<?xml version="1.0"?>
<!DOCTYPE svg PUBLIC "-//W3C//DTD SVG 1.1//EN"
  "http://www.w3.org/Graphics/SVG/1.1/DTD/svg11.dtd">
<svg
  width="240"
  height="240"
  viewBox="-50 -50 200 200" xmlns="http://www.w3.org/2000/svg" version="1.1">
  <rect
    x="0"
    y="0"
    width="100"
    height="100"
    fill="hsla(206,100%,53%,0.3)"
    stroke="hsl(206,100%,53%)"
    stroke-width="3"
    transform="" />
  
  <path
    d="M 
      59.9339241390
      66.4034854293
      L
    
      87.5312640944
      104.2990692525
      L
    
      63.7396454244
      82.7218804700
      L
    
      64.7434670047
      87.0261255448
      L
    
      51.7940826746
      120.6162131915
      L
    
      51.7241379310
      120.6896551724
      L
    
      51.6506959501
      120.6197104287
      L
    
      37.0791425247
      87.7008651663
      L
    
      37.8719321554
      83.3528003058
      L
    
      25.1605231866
      96.0642092746
      L
    
      21.7216778055
      96.0642092746
      L
    
      15.1605231866
      86.0642092746
      L
    
      23.0840705115
      93.9877565995
      L
    
      40.8775821948
      66.8682742572
      L
    
      50.5053507728
      70.7193816884
      z
    "
    fill="hsla(0,0%,50%,0.3)"
    stroke="hsla(0,0%,50%,1)"
    stroke-width="1"
    transform="translate(-41.0270329130,-75.1551314840) scale(1,-1) translate(50,-110)"
    />
  
  
  <line
    x1="59.933924139013904"
    y1="66.40348542932462"
    x2="64.74346700477395"
    y2="87.02612554485205"
    stroke="hsla(0,50%,50%,0.6)"
    stroke-width="1"
    transform="translate(-41.0270329130,-75.1551314840) scale(1,-1) translate(50,-110)"
    />
  
  <line
    x1="59.933924139013904"
    y1="66.40348542932462"
    x2="87.53126409446882"
    y2="104.29906925253188"
    stroke="hsla(0,50%,50%,0.6)"
    stroke-width="1"
    transform="translate(-41.0270329130,-75.1551314840) scale(1,-1) translate(50,-110)"
    />
  
  <line
    x1="51.311376312258176"
    y1="70.35042633593815"
    x2="51.49365442831919"
    y2="74.81564666680602"
    stroke="hsla(0,50%,50%,0.6)"
    stroke-width="1"
    transform="translate(-41.0270329130,-75.1551314840) scale(1,-1) translate(50,-110)"
    />
  
  <line
    x1="50.54083729666563"
    y1="70.7031378571601"
    x2="51.794082674687"
    y2="120.61621319157865"
    stroke="hsla(0,50%,50%,0.6)"
    stroke-width="1"
    transform="translate(-41.0270329130,-75.1551314840) scale(1,-1) translate(50,-110)"
    />
  
  <line
    x1="50.505350772889415"
    y1="70.71938168846611"
    x2="51.010701545778836"
    y2="91.43876337693223"
    stroke="hsla(0,50%,50%,0.6)"
    stroke-width="1"
    transform="translate(-41.0270329130,-75.1551314840) scale(1,-1) translate(50,-110)"
    />
  
  <line
    x1="50.46911453382216"
    y1="70.70488719283921"
    x2="51.65069595019934"
    y2="120.61971042876128"
    stroke="hsla(0,50%,50%,0.6)"
    stroke-width="1"
    transform="translate(-41.0270329130,-75.1551314840) scale(1,-1) translate(50,-110)"
    />
  
  <line
    x1="49.682296524942444"
    y1="70.39015998928733"
    x2="49.71792127651715"
    y2="74.85895723148411"
    stroke="hsla(0,50%,50%,0.6)"
    stroke-width="1"
    transform="translate(-41.0270329130,-75.1551314840) scale(1,-1) translate(50,-110)"
    />
  
  <line
    x1="37.07914252476673"
    y1="87.70086516631564"
    x2="51.65069595019934"
    y2="120.61971042876128"
    stroke="hsla(0,50%,50%,0.6)"
    stroke-width="1"
    transform="translate(-41.0270329130,-75.1551314840) scale(1,-1) translate(50,-110)"
    />
  
  <line
    x1="40.87758219480455"
    y1="66.86827425723217"
    x2="37.07914252476673"
    y2="87.70086516631564"
    stroke="hsla(0,50%,50%,0.6)"
    stroke-width="1"
    transform="translate(-41.0270329130,-75.1551314840) scale(1,-1) translate(50,-110)"
    />
  
  <line
    x1="51.311376312258176"
    y1="70.35042633593815"
    x2="87.53126409446882"
    y2="104.29906925253188"
    stroke="hsla(0,50%,50%,0.6)"
    stroke-width="1"
    transform="translate(-41.0270329130,-75.1551314840) scale(1,-1) translate(50,-110)"
    />
  
  <line
    x1="50.54083729666563"
    y1="70.7031378571601"
    x2="87.53126409446882"
    y2="104.29906925253188"
    stroke="hsla(0,50%,50%,0.6)"
    stroke-width="1"
    transform="translate(-41.0270329130,-75.1551314840) scale(1,-1) translate(50,-110)"
    />
  
  <line
    x1="50.505350772889415"
    y1="70.71938168846611"
    x2="87.53126409446882"
    y2="104.29906925253188"
    stroke="hsla(0,50%,50%,0.6)"
    stroke-width="1"
    transform="translate(-41.0270329130,-75.1551314840) scale(1,-1) translate(50,-110)"
    />
  
  <line
    x1="51.49365442831919"
    y1="74.81564666680602"
    x2="64.74346700477395"
    y2="87.02612554485205"
    stroke="hsla(0,50%,50%,0.6)"
    stroke-width="1"
    transform="translate(-41.0270329130,-75.1551314840) scale(1,-1) translate(50,-110)"
    />
  
  <line
    x1="15.160523186682521"
    y1="86.064209274673"
    x2="21.721677805568085"
    y2="96.064209274673"
    stroke="hsla(0,50%,50%,0.6)"
    stroke-width="1"
    transform="translate(-41.0270329130,-75.1551314840) scale(1,-1) translate(50,-110)"
    />
  
  <line
    x1="38.55970964864036"
    y1="79.58067585584796"
    x2="51.010701545778836"
    y2="91.43876337693223"
    stroke="hsla(0,50%,50%,0.6)"
    stroke-width="1"
    transform="translate(-41.0270329130,-75.1551314840) scale(1,-1) translate(50,-110)"
    />
  
  <line
    x1="64.74346700477395"
    y1="87.02612554485205"
    x2="51.794082674687"
    y2="120.61621319157865"
    stroke="hsla(0,50%,50%,0.6)"
    stroke-width="1"
    transform="translate(-41.0270329130,-75.1551314840) scale(1,-1) translate(50,-110)"
    />
  
  <line
    x1="15.160523186682521"
    y1="86.064209274673"
    x2="24.837522021912083"
    y2="96.064209274673"
    stroke="hsla(0,50%,50%,0.6)"
    stroke-width="1"
    transform="translate(-41.0270329130,-75.1551314840) scale(1,-1) translate(50,-110)"
    />
  
  <line
    x1="15.160523186682521"
    y1="86.064209274673"
    x2="25.146175984386968"
    y2="96.064209274673"
    stroke="hsla(0,50%,50%,0.6)"
    stroke-width="1"
    transform="translate(-41.0270329130,-75.1551314840) scale(1,-1) translate(50,-110)"
    />
  
  <line
    x1="15.160523186682521"
    y1="86.064209274673"
    x2="25.16052318668252"
    y2="96.064209274673"
    stroke="hsla(0,50%,50%,0.6)"
    stroke-width="1"
    transform="translate(-41.0270329130,-75.1551314840) scale(1,-1) translate(50,-110)"
    />
  
  <line
    x1="51.65069595019934"
    y1="120.61971042876128"
    x2="51.724137931034484"
    y2="120.6896551724138"
    stroke="hsla(0,50%,50%,0.6)"
    stroke-width="1"
    transform="translate(-41.0270329130,-75.1551314840) scale(1,-1) translate(50,-110)"
    />
  
  <line
    x1="40.87758219480455"
    y1="66.86827425723217"
    x2="21.721677805568085"
    y2="96.064209274673"
    stroke="hsla(0,50%,50%,0.6)"
    stroke-width="1"
    transform="translate(-41.0270329130,-75.1551314840) scale(1,-1) translate(50,-110)"
    />
  
  <line
    x1="40.87758219480455"
    y1="66.86827425723217"
    x2="50.505350772889415"
    y2="70.71938168846611"
    stroke="hsla(0,50%,50%,0.6)"
    stroke-width="1"
    transform="translate(-41.0270329130,-75.1551314840) scale(1,-1) translate(50,-110)"
    />
  
  <line
    x1="40.1292599677628"
    y1="70.972457073957"
    x2="49.71792127651715"
    y2="74.85895723148411"
    stroke="hsla(0,50%,50%,0.6)"
    stroke-width="1"
    transform="translate(-41.0270329130,-75.1551314840) scale(1,-1) translate(50,-110)"
    />
  
  <line
    x1="51.49365442831919"
    y1="74.81564666680602"
    x2="62.8687890668631"
    y2="78.98777147979375"
    stroke="hsla(0,50%,50%,0.6)"
    stroke-width="1"
    transform="translate(-41.0270329130,-75.1551314840) scale(1,-1) translate(50,-110)"
    />
  
  <line
    x1="49.682296524942444"
    y1="70.39015998928733"
    x2="24.837522021912083"
    y2="96.064209274673"
    stroke="hsla(0,50%,50%,0.6)"
    stroke-width="1"
    transform="translate(-41.0270329130,-75.1551314840) scale(1,-1) translate(50,-110)"
    />
  
  <line
    x1="50.46911453382216"
    y1="70.70488719283921"
    x2="25.146175984386968"
    y2="96.064209274673"
    stroke="hsla(0,50%,50%,0.6)"
    stroke-width="1"
    transform="translate(-41.0270329130,-75.1551314840) scale(1,-1) translate(50,-110)"
    />
  
  <line
    x1="50.505350772889415"
    y1="70.71938168846611"
    x2="25.16052318668252"
    y2="96.064209274673"
    stroke="hsla(0,50%,50%,0.6)"
    stroke-width="1"
    transform="translate(-41.0270329130,-75.1551314840) scale(1,-1) translate(50,-110)"
    />
  
  <line
    x1="49.71792127651715"
    y1="74.85895723148411"
    x2="37.07914252476673"
    y2="87.70086516631564"
    stroke="hsla(0,50%,50%,0.6)"
    stroke-width="1"
    transform="translate(-41.0270329130,-75.1551314840) scale(1,-1) translate(50,-110)"
    />
  
  <line
    x1="62.8687890668631"
    y1="78.98777147979375"
    x2="51.010701545778836"
    y2="91.43876337693223"
    stroke="hsla(0,50%,50%,0.6)"
    stroke-width="1"
    transform="translate(-41.0270329130,-75.1551314840) scale(1,-1) translate(50,-110)"
    />
  
  <line
    x1="60.88144157801604"
    y1="70.46630630297521"
    x2="40.1292599677628"
    y2="70.972457073957"
    stroke="hsla(0,50%,50%,0.6)"
    stroke-width="1"
    transform="translate(-41.0270329130,-75.1551314840) scale(1,-1) translate(50,-110)"
    />
  
  <line
    x1="59.933924139013904"
    y1="66.40348542932462"
    x2="50.505350772889415"
    y2="70.71938168846611"
    stroke="hsla(0,50%,50%,0.6)"
    stroke-width="1"
    transform="translate(-41.0270329130,-75.1551314840) scale(1,-1) translate(50,-110)"
    />
  
  <line
    x1="60.88144157801604"
    y1="70.46630630297521"
    x2="51.49365442831919"
    y2="74.81564666680602"
    stroke="hsla(0,50%,50%,0.6)"
    stroke-width="1"
    transform="translate(-41.0270329130,-75.1551314840) scale(1,-1) translate(50,-110)"
    />
  
  <line
    x1="49.71792127651715"
    y1="74.85895723148411"
    x2="38.55970964864036"
    y2="79.58067585584796"
    stroke="hsla(0,50%,50%,0.6)"
    stroke-width="1"
    transform="translate(-41.0270329130,-75.1551314840) scale(1,-1) translate(50,-110)"
    />
  
  <line
    x1="51.794082674687"
    y1="120.61621319157865"
    x2="51.724137931034484"
    y2="120.6896551724138"
    stroke="hsla(0,50%,50%,0.6)"
    stroke-width="1"
    transform="translate(-41.0270329130,-75.1551314840) scale(1,-1) translate(50,-110)"
    />
  
  <line
    x1="21.721677805568085"
    y1="96.064209274673"
    x2="25.16052318668252"
    y2="96.064209274673"
    stroke="hsla(0,50%,50%,0.6)"
    stroke-width="1"
    transform="translate(-41.0270329130,-75.1551314840) scale(1,-1) translate(50,-110)"
    />
  
</svg>
