<?xml version="1.0"?>
<!DOCTYPE svg PUBLIC "-//W3C//DTD SVG 1.1//EN"
  "http://www.w3.org/Graphics/SVG/1.1/DTD/svg11.dtd">
<svg
  width="240"
  height="240"
  viewBox="-500 -500 1000 1000" xmlns="http://www.w3.org/2000/svg" version="1.1">
  <rect
    x="0"
    y="0"
    width="100"
    height="100"
    fill="hsla(206,100%,53%,0.3)"
    stroke="hsl(206,100%,53%)"
    stroke-width="3"
    transform="" />
  
  <path
    d="M 
      98.3606557377
      81.9672131147
      L
    
      100.2528445006
      92.2882427307
      L
    
      118.1818181818
      90.9090909090
      L
    
      119.7183098591
      92.9577464788
      L
    
      130.7692307692
      92.3076923076
      L
    
      141.3793103448
      103.4482758620
      L
    
      111.8780096308
      102.7287319422
      L
    
      110.5263157894
      105.2631578947
      L
    
      0
      100
      z
    "
    fill="hsla(0,0%,50%,0.3)"
    stroke="hsla(0,0%,50%,1)"
    stroke-width="1"
    transform="translate(-70.6896551724,-93.6151855047)"
    />
  
  
  <line
    x1="118.18181818181819"
    y1="90.9090909090909"
    x2="125"
    y2="100"
    stroke="hsla(0,50%,50%,0.6)"
    stroke-width="1"
    transform="translate(-70.6896551724,-93.6151855047)"
    />
  
  <line
    x1="106.89655172413794"
    y1="96.55172413793103"
    x2="110.52631578947368"
    y2="105.26315789473684"
    stroke="hsla(0,50%,50%,0.6)"
    stroke-width="1"
    transform="translate(-70.6896551724,-93.6151855047)"
    />
  
  <line
    x1="130.76923076923077"
    y1="92.3076923076923"
    x2="141.3793103448276"
    y2="103.44827586206897"
    stroke="hsla(0,50%,50%,0.6)"
    stroke-width="1"
    transform="translate(-70.6896551724,-93.6151855047)"
    />
  
  <line
    x1="103.2258064516129"
    y1="96.7741935483871"
    x2="104.8780487804878"
    y2="102.4390243902439"
    stroke="hsla(0,50%,50%,0.6)"
    stroke-width="1"
    transform="translate(-70.6896551724,-93.6151855047)"
    />
  
  <line
    x1="98.36065573770492"
    y1="81.9672131147541"
    x2="102.04081632653062"
    y2="102.04081632653062"
    stroke="hsla(0,50%,50%,0.6)"
    stroke-width="1"
    transform="translate(-70.6896551724,-93.6151855047)"
    />
  
  <line
    x1="100"
    y1="90.9090909090909"
    x2="100"
    y2="100"
    stroke="hsla(0,50%,50%,0.6)"
    stroke-width="1"
    transform="translate(-70.6896551724,-93.6151855047)"
    />
  
  <line
    x1="103.2258064516129"
    y1="96.7741935483871"
    x2="102.04081632653062"
    y2="102.04081632653062"
    stroke="hsla(0,50%,50%,0.6)"
    stroke-width="1"
    transform="translate(-70.6896551724,-93.6151855047)"
    />
  
  <line
    x1="106.89655172413794"
    y1="96.55172413793103"
    x2="104.8780487804878"
    y2="102.4390243902439"
    stroke="hsla(0,50%,50%,0.6)"
    stroke-width="1"
    transform="translate(-70.6896551724,-93.6151855047)"
    />
  
  <line
    x1="118.18181818181819"
    y1="90.9090909090909"
    x2="110.52631578947368"
    y2="105.26315789473684"
    stroke="hsla(0,50%,50%,0.6)"
    stroke-width="1"
    transform="translate(-70.6896551724,-93.6151855047)"
    />
  
  <line
    x1="130.76923076923077"
    y1="92.3076923076923"
    x2="125"
    y2="100"
    stroke="hsla(0,50%,50%,0.6)"
    stroke-width="1"
    transform="translate(-70.6896551724,-93.6151855047)"
    />
  
  <line
    x1="98.36065573770492"
    y1="81.9672131147541"
    x2="0"
    y2="100"
    stroke="hsla(0,50%,50%,0.6)"
    stroke-width="1"
    transform="translate(-70.6896551724,-93.6151855047)"
    />
  
  <line
    x1="100"
    y1="90.9090909090909"
    x2="0"
    y2="100"
    stroke="hsla(0,50%,50%,0.6)"
    stroke-width="1"
    transform="translate(-70.6896551724,-93.6151855047)"
    />
  
  <line
    x1="118.18181818181819"
    y1="90.9090909090909"
    x2="0"
    y2="100"
    stroke="hsla(0,50%,50%,0.6)"
    stroke-width="1"
    transform="translate(-70.6896551724,-93.6151855047)"
    />
  
  <line
    x1="130.76923076923077"
    y1="92.3076923076923"
    x2="0"
    y2="100"
    stroke="hsla(0,50%,50%,0.6)"
    stroke-width="1"
    transform="translate(-70.6896551724,-93.6151855047)"
    />
  
  <line
    x1="0"
    y1="100"
    x2="110.52631578947368"
    y2="105.26315789473684"
    stroke="hsla(0,50%,50%,0.6)"
    stroke-width="1"
    transform="translate(-70.6896551724,-93.6151855047)"
    />
  
  <line
    x1="106.89655172413794"
    y1="96.55172413793103"
    x2="0"
    y2="100"
    stroke="hsla(0,50%,50%,0.6)"
    stroke-width="1"
    transform="translate(-70.6896551724,-93.6151855047)"
    />
  
  <line
    x1="103.2258064516129"
    y1="96.7741935483871"
    x2="0"
    y2="100"
    stroke="hsla(0,50%,50%,0.6)"
    stroke-width="1"
    transform="translate(-70.6896551724,-93.6151855047)"
    />
  
  <line
    x1="0"
    y1="100"
    x2="141.3793103448276"
    y2="103.44827586206897"
    stroke="hsla(0,50%,50%,0.6)"
    stroke-width="1"
    transform="translate(-70.6896551724,-93.6151855047)"
    />
  
  <line
    x1="0"
    y1="100"
    x2="104.8780487804878"
    y2="102.4390243902439"
    stroke="hsla(0,50%,50%,0.6)"
    stroke-width="1"
    transform="translate(-70.6896551724,-93.6151855047)"
    />
  
  <line
    x1="0"
    y1="100"
    x2="102.04081632653062"
    y2="102.04081632653062"
    stroke="hsla(0,50%,50%,0.6)"
    stroke-width="1"
    transform="translate(-70.6896551724,-93.6151855047)"
    />
  
  <line
    x1="0"
    y1="100"
    x2="125"
    y2="100"
    stroke="hsla(0,50%,50%,0.6)"
    stroke-width="1"
    transform="translate(-70.6896551724,-93.6151855047)"
    />
  
</svg>
