<?xml version="1.0"?>
<!DOCTYPE svg PUBLIC "-//W3C//DTD SVG 1.1//EN"
  "http://www.w3.org/Graphics/SVG/1.1/DTD/svg11.dtd">
<svg
  width="240"
  height="240"
  viewBox="-500 -500 1000 1000" xmlns="http://www.w3.org/2000/svg" version="1.1">
  <rect
    x="0"
    y="0"
    width="100"
    height="100"
    fill="hsla(206,100%,53%,0.3)"
    stroke="hsl(206,100%,53%)"
    stroke-width="3"
    transform="" />
  
  <path
    d="M 
      110
      105
      L
    
      121.6666666666
      106.6666666666
      L
    
      120
      118.3333333333
      L
    
      106.6666666666
      128.3333333333
      L
    
      103.3333333333
      151.6666666666
      L
    
      93.3333333333
      138.3333333333
      L
    
      90
      161.6666666666
      L
    
      70
      135
      z
    "
    fill="hsla(0,0%,50%,0.3)"
    stroke="hsla(0,0%,50%,1)"
    stroke-width="1"
    transform="translate(-95.8333333333,-133.3333333333)"
    />
  
  
  <line
    x1="83.33333333333333"
    y1="125"
    x2="103.33333333333333"
    y2="151.66666666666666"
    stroke="hsla(0,50%,50%,0.6)"
    stroke-width="1"
    transform="translate(-95.8333333333,-133.3333333333)"
    />
  
  <line
    x1="70"
    y1="135"
    x2="90"
    y2="161.66666666666666"
    stroke="hsla(0,50%,50%,0.6)"
    stroke-width="1"
    transform="translate(-95.8333333333,-133.3333333333)"
    />
  
  <line
    x1="96.66666666666667"
    y1="115"
    x2="90"
    y2="161.66666666666666"
    stroke="hsla(0,50%,50%,0.6)"
    stroke-width="1"
    transform="translate(-95.8333333333,-133.3333333333)"
    />
  
  <line
    x1="110"
    y1="105"
    x2="103.33333333333333"
    y2="151.66666666666666"
    stroke="hsla(0,50%,50%,0.6)"
    stroke-width="1"
    transform="translate(-95.8333333333,-133.3333333333)"
    />
  
  <line
    x1="121.66666666666667"
    y1="106.66666666666667"
    x2="120"
    y2="118.33333333333333"
    stroke="hsla(0,50%,50%,0.6)"
    stroke-width="1"
    transform="translate(-95.8333333333,-133.3333333333)"
    />
  
  <line
    x1="110"
    y1="105"
    x2="121.66666666666667"
    y2="106.66666666666667"
    stroke="hsla(0,50%,50%,0.6)"
    stroke-width="1"
    transform="translate(-95.8333333333,-133.3333333333)"
    />
  
  <line
    x1="96.66666666666667"
    y1="115"
    x2="120"
    y2="118.33333333333333"
    stroke="hsla(0,50%,50%,0.6)"
    stroke-width="1"
    transform="translate(-95.8333333333,-133.3333333333)"
    />
  
  <line
    x1="110"
    y1="105"
    x2="70"
    y2="135"
    stroke="hsla(0,50%,50%,0.6)"
    stroke-width="1"
    transform="translate(-95.8333333333,-133.3333333333)"
    />
  
  <line
    x1="108.33333333333333"
    y1="116.66666666666667"
    x2="75"
    y2="141.66666666666666"
    stroke="hsla(0,50%,50%,0.6)"
    stroke-width="1"
    transform="translate(-95.8333333333,-133.3333333333)"
    />
  
  <line
    x1="120"
    y1="118.33333333333333"
    x2="80"
    y2="148.33333333333334"
    stroke="hsla(0,50%,50%,0.6)"
    stroke-width="1"
    transform="translate(-95.8333333333,-133.3333333333)"
    />
  
</svg>
