<?xml version="1.0"?>
<!DOCTYPE svg PUBLIC "-//W3C//DTD SVG 1.1//EN"
  "http://www.w3.org/Graphics/SVG/1.1/DTD/svg11.dtd">
<svg
  width="240"
  height="240"
  viewBox="-500 -500 1000 1000" xmlns="http://www.w3.org/2000/svg" version="1.1">
  <rect
    x="0"
    y="0"
    width="100"
    height="100"
    fill="hsla(206,100%,53%,0.3)"
    stroke="hsl(206,100%,53%)"
    stroke-width="3"
    transform="" />
  
  <path
    d="M 
      143.3333333333
      130
      L
    
      155
      131.6666666666
      L
    
      153.3333333333
      143.3333333333
      L
    
      140
      153.3333333333
      L
    
      136.6666666666
      176.6666666666
      L
    
      126.6666666666
      163.3333333333
      L
    
      123.3333333333
      186.6666666666
      L
    
      103.3333333333
      160
      z
    "
    fill="hsla(0,0%,50%,0.3)"
    stroke="hsla(0,0%,50%,1)"
    stroke-width="1"
    transform="translate(-129.1666666666,-158.3333333333)"
    />
  
  
  <line
    x1="116.66666666666667"
    y1="150"
    x2="136.66666666666666"
    y2="176.66666666666666"
    stroke="hsla(0,50%,50%,0.6)"
    stroke-width="1"
    transform="translate(-129.1666666666,-158.3333333333)"
    />
  
  <line
    x1="103.33333333333333"
    y1="160"
    x2="123.33333333333333"
    y2="186.66666666666666"
    stroke="hsla(0,50%,50%,0.6)"
    stroke-width="1"
    transform="translate(-129.1666666666,-158.3333333333)"
    />
  
  <line
    x1="130"
    y1="140"
    x2="123.33333333333333"
    y2="186.66666666666666"
    stroke="hsla(0,50%,50%,0.6)"
    stroke-width="1"
    transform="translate(-129.1666666666,-158.3333333333)"
    />
  
  <line
    x1="143.33333333333334"
    y1="130"
    x2="136.66666666666666"
    y2="176.66666666666666"
    stroke="hsla(0,50%,50%,0.6)"
    stroke-width="1"
    transform="translate(-129.1666666666,-158.3333333333)"
    />
  
  <line
    x1="155"
    y1="131.66666666666666"
    x2="153.33333333333334"
    y2="143.33333333333334"
    stroke="hsla(0,50%,50%,0.6)"
    stroke-width="1"
    transform="translate(-129.1666666666,-158.3333333333)"
    />
  
  <line
    x1="143.33333333333334"
    y1="130"
    x2="155"
    y2="131.66666666666666"
    stroke="hsla(0,50%,50%,0.6)"
    stroke-width="1"
    transform="translate(-129.1666666666,-158.3333333333)"
    />
  
  <line
    x1="130"
    y1="140"
    x2="153.33333333333334"
    y2="143.33333333333334"
    stroke="hsla(0,50%,50%,0.6)"
    stroke-width="1"
    transform="translate(-129.1666666666,-158.3333333333)"
    />
  
  <line
    x1="143.33333333333334"
    y1="130"
    x2="103.33333333333333"
    y2="160"
    stroke="hsla(0,50%,50%,0.6)"
    stroke-width="1"
    transform="translate(-129.1666666666,-158.3333333333)"
    />
  
  <line
    x1="141.66666666666666"
    y1="141.66666666666666"
    x2="108.33333333333333"
    y2="166.66666666666666"
    stroke="hsla(0,50%,50%,0.6)"
    stroke-width="1"
    transform="translate(-129.1666666666,-158.3333333333)"
    />
  
  <line
    x1="153.33333333333334"
    y1="143.33333333333334"
    x2="113.33333333333333"
    y2="173.33333333333334"
    stroke="hsla(0,50%,50%,0.6)"
    stroke-width="1"
    transform="translate(-129.1666666666,-158.3333333333)"
    />
  
</svg>
