<?xml version="1.0"?>
<!DOCTYPE svg PUBLIC "-//W3C//DTD SVG 1.1//EN"
  "http://www.w3.org/Graphics/SVG/1.1/DTD/svg11.dtd">
<svg
  width="240"
  height="240"
  viewBox="-50 -50 200 200" xmlns="http://www.w3.org/2000/svg" version="1.1">
  <rect
    x="0"
    y="0"
    width="100"
    height="100"
    fill="hsla(206,100%,53%,0.3)"
    stroke="hsl(206,100%,53%)"
    stroke-width="3"
    transform="" />
  
  <path
    d="M 
      176.6666666666
      155
      L
    
      188.3333333333
      156.6666666666
      L
    
      186.6666666666
      168.3333333333
      L
    
      173.3333333333
      178.3333333333
      L
    
      170
      201.6666666666
      L
    
      160
      188.3333333333
      L
    
      156.6666666666
      211.6666666666
      L
    
      136.6666666666
      185
      z
    "
    fill="hsla(0,0%,50%,0.3)"
    stroke="hsla(0,0%,50%,1)"
    stroke-width="1"
    transform="translate(-149.3098958333,-192.2005208333) scale(1,-1) translate(50,-110)"
    />
  
  
  <line
    x1="150"
    y1="175"
    x2="170"
    y2="201.66666666666666"
    stroke="hsla(0,50%,50%,0.6)"
    stroke-width="1"
    transform="translate(-149.3098958333,-192.2005208333) scale(1,-1) translate(50,-110)"
    />
  
  <line
    x1="136.66666666666666"
    y1="185"
    x2="156.66666666666666"
    y2="211.66666666666666"
    stroke="hsla(0,50%,50%,0.6)"
    stroke-width="1"
    transform="translate(-149.3098958333,-192.2005208333) scale(1,-1) translate(50,-110)"
    />
  
  <line
    x1="163.33333333333334"
    y1="165"
    x2="156.66666666666666"
    y2="211.66666666666666"
    stroke="hsla(0,50%,50%,0.6)"
    stroke-width="1"
    transform="translate(-149.3098958333,-192.2005208333) scale(1,-1) translate(50,-110)"
    />
  
  <line
    x1="176.66666666666666"
    y1="155"
    x2="170"
    y2="201.66666666666666"
    stroke="hsla(0,50%,50%,0.6)"
    stroke-width="1"
    transform="translate(-149.3098958333,-192.2005208333) scale(1,-1) translate(50,-110)"
    />
  
  <line
    x1="188.33333333333334"
    y1="156.66666666666666"
    x2="186.66666666666666"
    y2="168.33333333333334"
    stroke="hsla(0,50%,50%,0.6)"
    stroke-width="1"
    transform="translate(-149.3098958333,-192.2005208333) scale(1,-1) translate(50,-110)"
    />
  
  <line
    x1="176.66666666666666"
    y1="155"
    x2="188.33333333333334"
    y2="156.66666666666666"
    stroke="hsla(0,50%,50%,0.6)"
    stroke-width="1"
    transform="translate(-149.3098958333,-192.2005208333) scale(1,-1) translate(50,-110)"
    />
  
  <line
    x1="163.33333333333334"
    y1="165"
    x2="186.66666666666666"
    y2="168.33333333333334"
    stroke="hsla(0,50%,50%,0.6)"
    stroke-width="1"
    transform="translate(-149.3098958333,-192.2005208333) scale(1,-1) translate(50,-110)"
    />
  
  <line
    x1="176.66666666666666"
    y1="155"
    x2="136.66666666666666"
    y2="185"
    stroke="hsla(0,50%,50%,0.6)"
    stroke-width="1"
    transform="translate(-149.3098958333,-192.2005208333) scale(1,-1) translate(50,-110)"
    />
  
  <line
    x1="175"
    y1="166.66666666666666"
    x2="141.66666666666666"
    y2="191.66666666666666"
    stroke="hsla(0,50%,50%,0.6)"
    stroke-width="1"
    transform="translate(-149.3098958333,-192.2005208333) scale(1,-1) translate(50,-110)"
    />
  
  <line
    x1="186.66666666666666"
    y1="168.33333333333334"
    x2="146.66666666666666"
    y2="198.33333333333334"
    stroke="hsla(0,50%,50%,0.6)"
    stroke-width="1"
    transform="translate(-149.3098958333,-192.2005208333) scale(1,-1) translate(50,-110)"
    />
  
</svg>
