<?xml version="1.0"?>
<!DOCTYPE svg PUBLIC "-//W3C//DTD SVG 1.1//EN"
  "http://www.w3.org/Graphics/SVG/1.1/DTD/svg11.dtd">
<svg
  width="240"
  height="240"
  viewBox="-50 -50 200 200" xmlns="http://www.w3.org/2000/svg" version="1.1">
  <rect
    x="0"
    y="0"
    width="100"
    height="100"
    fill="hsla(206,100%,53%,0.3)"
    stroke="hsl(206,100%,53%)"
    stroke-width="3"
    transform="" />
  
  <path
    d="M 
      210
      180
      L
    
      221.6666666666
      181.6666666666
      L
    
      220
      193.3333333333
      L
    
      206.6666666666
      203.3333333333
      L
    
      203.3333333333
      226.6666666666
      L
    
      193.3333333333
      213.3333333333
      L
    
      190
      236.6666666666
      L
    
      170
      210
      z
    "
    fill="hsla(0,0%,50%,0.3)"
    stroke="hsla(0,0%,50%,1)"
    stroke-width="1"
    transform="translate(-182.6432291666,-217.2005208333) scale(1,-1) translate(50,-110)"
    />
  
  
  <line
    x1="183.33333333333334"
    y1="200"
    x2="203.33333333333334"
    y2="226.66666666666666"
    stroke="hsla(0,50%,50%,0.6)"
    stroke-width="1"
    transform="translate(-182.6432291666,-217.2005208333) scale(1,-1) translate(50,-110)"
    />
  
  <line
    x1="170"
    y1="210"
    x2="190"
    y2="236.66666666666666"
    stroke="hsla(0,50%,50%,0.6)"
    stroke-width="1"
    transform="translate(-182.6432291666,-217.2005208333) scale(1,-1) translate(50,-110)"
    />
  
  <line
    x1="196.66666666666666"
    y1="190"
    x2="190"
    y2="236.66666666666666"
    stroke="hsla(0,50%,50%,0.6)"
    stroke-width="1"
    transform="translate(-182.6432291666,-217.2005208333) scale(1,-1) translate(50,-110)"
    />
  
  <line
    x1="210"
    y1="180"
    x2="203.33333333333334"
    y2="226.66666666666666"
    stroke="hsla(0,50%,50%,0.6)"
    stroke-width="1"
    transform="translate(-182.6432291666,-217.2005208333) scale(1,-1) translate(50,-110)"
    />
  
  <line
    x1="221.66666666666666"
    y1="181.66666666666666"
    x2="220"
    y2="193.33333333333334"
    stroke="hsla(0,50%,50%,0.6)"
    stroke-width="1"
    transform="translate(-182.6432291666,-217.2005208333) scale(1,-1) translate(50,-110)"
    />
  
  <line
    x1="210"
    y1="180"
    x2="221.66666666666666"
    y2="181.66666666666666"
    stroke="hsla(0,50%,50%,0.6)"
    stroke-width="1"
    transform="translate(-182.6432291666,-217.2005208333) scale(1,-1) translate(50,-110)"
    />
  
  <line
    x1="196.66666666666666"
    y1="190"
    x2="220"
    y2="193.33333333333334"
    stroke="hsla(0,50%,50%,0.6)"
    stroke-width="1"
    transform="translate(-182.6432291666,-217.2005208333) scale(1,-1) translate(50,-110)"
    />
  
  <line
    x1="210"
    y1="180"
    x2="170"
    y2="210"
    stroke="hsla(0,50%,50%,0.6)"
    stroke-width="1"
    transform="translate(-182.6432291666,-217.2005208333) scale(1,-1) translate(50,-110)"
    />
  
  <line
    x1="208.33333333333334"
    y1="191.66666666666666"
    x2="175"
    y2="216.66666666666666"
    stroke="hsla(0,50%,50%,0.6)"
    stroke-width="1"
    transform="translate(-182.6432291666,-217.2005208333) scale(1,-1) translate(50,-110)"
    />
  
  <line
    x1="220"
    y1="193.33333333333334"
    x2="180"
    y2="223.33333333333334"
    stroke="hsla(0,50%,50%,0.6)"
    stroke-width="1"
    transform="translate(-182.6432291666,-217.2005208333) scale(1,-1) translate(50,-110)"
    />
  
</svg>
