<?xml version="1.0"?>
<!DOCTYPE svg PUBLIC "-//W3C//DTD SVG 1.1//EN"
  "http://www.w3.org/Graphics/SVG/1.1/DTD/svg11.dtd">
<svg
  width="240"
  height="240"
  viewBox="-500 -500 1000 1000" xmlns="http://www.w3.org/2000/svg" version="1.1">
  <rect
    x="0"
    y="0"
    width="100"
    height="100"
    fill="hsla(206,100%,53%,0.3)"
    stroke="hsl(206,100%,53%)"
    stroke-width="3"
    transform="" />
  
  <path
    d="M 
      243.3333333333
      205
      L
    
      255
      206.6666666666
      L
    
      253.3333333333
      218.3333333333
      L
    
      240
      228.3333333333
      L
    
      236.6666666666
      251.6666666666
      L
    
      226.6666666666
      238.3333333333
      L
    
      223.3333333333
      261.6666666666
      L
    
      203.3333333333
      235
      z
    "
    fill="hsla(0,0%,50%,0.3)"
    stroke="hsla(0,0%,50%,1)"
    stroke-width="1"
    transform="translate(-229.1666666666,-233.3333333333)"
    />
  
  
  <line
    x1="216.66666666666666"
    y1="225"
    x2="236.66666666666666"
    y2="251.66666666666666"
    stroke="hsla(0,50%,50%,0.6)"
    stroke-width="1"
    transform="translate(-229.1666666666,-233.3333333333)"
    />
  
  <line
    x1="203.33333333333334"
    y1="235"
    x2="223.33333333333334"
    y2="261.6666666666667"
    stroke="hsla(0,50%,50%,0.6)"
    stroke-width="1"
    transform="translate(-229.1666666666,-233.3333333333)"
    />
  
  <line
    x1="230"
    y1="215"
    x2="223.33333333333334"
    y2="261.6666666666667"
    stroke="hsla(0,50%,50%,0.6)"
    stroke-width="1"
    transform="translate(-229.1666666666,-233.3333333333)"
    />
  
  <line
    x1="243.33333333333334"
    y1="205"
    x2="236.66666666666666"
    y2="251.66666666666666"
    stroke="hsla(0,50%,50%,0.6)"
    stroke-width="1"
    transform="translate(-229.1666666666,-233.3333333333)"
    />
  
  <line
    x1="255"
    y1="206.66666666666666"
    x2="253.33333333333334"
    y2="218.33333333333334"
    stroke="hsla(0,50%,50%,0.6)"
    stroke-width="1"
    transform="translate(-229.1666666666,-233.3333333333)"
    />
  
  <line
    x1="243.33333333333334"
    y1="205"
    x2="255"
    y2="206.66666666666666"
    stroke="hsla(0,50%,50%,0.6)"
    stroke-width="1"
    transform="translate(-229.1666666666,-233.3333333333)"
    />
  
  <line
    x1="230"
    y1="215"
    x2="253.33333333333334"
    y2="218.33333333333334"
    stroke="hsla(0,50%,50%,0.6)"
    stroke-width="1"
    transform="translate(-229.1666666666,-233.3333333333)"
    />
  
  <line
    x1="243.33333333333334"
    y1="205"
    x2="203.33333333333334"
    y2="235"
    stroke="hsla(0,50%,50%,0.6)"
    stroke-width="1"
    transform="translate(-229.1666666666,-233.3333333333)"
    />
  
  <line
    x1="241.66666666666666"
    y1="216.66666666666666"
    x2="208.33333333333334"
    y2="241.66666666666666"
    stroke="hsla(0,50%,50%,0.6)"
    stroke-width="1"
    transform="translate(-229.1666666666,-233.3333333333)"
    />
  
  <line
    x1="253.33333333333334"
    y1="218.33333333333334"
    x2="213.33333333333334"
    y2="248.33333333333334"
    stroke="hsla(0,50%,50%,0.6)"
    stroke-width="1"
    transform="translate(-229.1666666666,-233.3333333333)"
    />
  
</svg>
