<?xml version="1.0"?>
<!DOCTYPE svg PUBLIC "-//W3C//DTD SVG 1.1//EN"
  "http://www.w3.org/Graphics/SVG/1.1/DTD/svg11.dtd">
<svg
  width="240"
  height="240"
  viewBox="-500 -500 1000 1000" xmlns="http://www.w3.org/2000/svg" version="1.1">
  <rect
    x="0"
    y="0"
    width="100"
    height="100"
    fill="hsla(206,100%,53%,0.3)"
    stroke="hsl(206,100%,53%)"
    stroke-width="3"
    transform="" />
  
  <path
    d="M 
      276.6666666666
      230
      L
    
      288.3333333333
      231.6666666666
      L
    
      286.6666666666
      243.3333333333
      L
    
      273.3333333333
      253.3333333333
      L
    
      270
      276.6666666666
      L
    
      260
      263.3333333333
      L
    
      256.6666666666
      286.6666666666
      L
    
      236.6666666666
      260
      z
    "
    fill="hsla(0,0%,50%,0.3)"
    stroke="hsla(0,0%,50%,1)"
    stroke-width="1"
    transform="translate(-262.5,-258.3333333333)"
    />
  
  
  <line
    x1="250"
    y1="250"
    x2="270"
    y2="276.6666666666667"
    stroke="hsla(0,50%,50%,0.6)"
    stroke-width="1"
    transform="translate(-262.5,-258.3333333333)"
    />
  
  <line
    x1="236.66666666666666"
    y1="260"
    x2="256.6666666666667"
    y2="286.6666666666667"
    stroke="hsla(0,50%,50%,0.6)"
    stroke-width="1"
    transform="translate(-262.5,-258.3333333333)"
    />
  
  <line
    x1="263.3333333333333"
    y1="240"
    x2="256.6666666666667"
    y2="286.6666666666667"
    stroke="hsla(0,50%,50%,0.6)"
    stroke-width="1"
    transform="translate(-262.5,-258.3333333333)"
    />
  
  <line
    x1="276.6666666666667"
    y1="230"
    x2="270"
    y2="276.6666666666667"
    stroke="hsla(0,50%,50%,0.6)"
    stroke-width="1"
    transform="translate(-262.5,-258.3333333333)"
    />
  
  <line
    x1="288.3333333333333"
    y1="231.66666666666666"
    x2="286.6666666666667"
    y2="243.33333333333334"
    stroke="hsla(0,50%,50%,0.6)"
    stroke-width="1"
    transform="translate(-262.5,-258.3333333333)"
    />
  
  <line
    x1="276.6666666666667"
    y1="230"
    x2="288.3333333333333"
    y2="231.66666666666666"
    stroke="hsla(0,50%,50%,0.6)"
    stroke-width="1"
    transform="translate(-262.5,-258.3333333333)"
    />
  
  <line
    x1="263.3333333333333"
    y1="240"
    x2="286.6666666666667"
    y2="243.33333333333334"
    stroke="hsla(0,50%,50%,0.6)"
    stroke-width="1"
    transform="translate(-262.5,-258.3333333333)"
    />
  
  <line
    x1="276.6666666666667"
    y1="230"
    x2="236.66666666666666"
    y2="260"
    stroke="hsla(0,50%,50%,0.6)"
    stroke-width="1"
    transform="translate(-262.5,-258.3333333333)"
    />
  
  <line
    x1="275"
    y1="241.66666666666666"
    x2="241.66666666666666"
    y2="266.6666666666667"
    stroke="hsla(0,50%,50%,0.6)"
    stroke-width="1"
    transform="translate(-262.5,-258.3333333333)"
    />
  
  <line
    x1="286.6666666666667"
    y1="243.33333333333334"
    x2="246.66666666666666"
    y2="273.3333333333333"
    stroke="hsla(0,50%,50%,0.6)"
    stroke-width="1"
    transform="translate(-262.5,-258.3333333333)"
    />
  
</svg>
