<?xml version="1.0"?>
<!DOCTYPE svg PUBLIC "-//W3C//DTD SVG 1.1//EN"
  "http://www.w3.org/Graphics/SVG/1.1/DTD/svg11.dtd">
<svg
  width="240"
  height="240"
  viewBox="-500 -500 1000 1000" xmlns="http://www.w3.org/2000/svg" version="1.1">
  <rect
    x="0"
    y="0"
    width="100"
    height="100"
    fill="hsla(206,100%,53%,0.3)"
    stroke="hsl(206,100%,53%)"
    stroke-width="3"
    transform="" />
  
  <path
    d="M 
      310
      255
      L
    
      321.6666666666
      256.6666666666
      L
    
      320
      268.3333333333
      L
    
      306.6666666666
      278.3333333333
      L
    
      303.3333333333
      301.6666666666
      L
    
      293.3333333333
      288.3333333333
      L
    
      290
      311.6666666666
      L
    
      270
      285
      z
    "
    fill="hsla(0,0%,50%,0.3)"
    stroke="hsla(0,0%,50%,1)"
    stroke-width="1"
    transform="translate(-295.8333333333,-283.3333333333)"
    />
  
  
  <line
    x1="283.3333333333333"
    y1="275"
    x2="303.3333333333333"
    y2="301.6666666666667"
    stroke="hsla(0,50%,50%,0.6)"
    stroke-width="1"
    transform="translate(-295.8333333333,-283.3333333333)"
    />
  
  <line
    x1="270"
    y1="285"
    x2="290"
    y2="311.6666666666667"
    stroke="hsla(0,50%,50%,0.6)"
    stroke-width="1"
    transform="translate(-295.8333333333,-283.3333333333)"
    />
  
  <line
    x1="296.6666666666667"
    y1="265"
    x2="290"
    y2="311.6666666666667"
    stroke="hsla(0,50%,50%,0.6)"
    stroke-width="1"
    transform="translate(-295.8333333333,-283.3333333333)"
    />
  
  <line
    x1="310"
    y1="255"
    x2="303.3333333333333"
    y2="301.6666666666667"
    stroke="hsla(0,50%,50%,0.6)"
    stroke-width="1"
    transform="translate(-295.8333333333,-283.3333333333)"
    />
  
  <line
    x1="321.6666666666667"
    y1="256.6666666666667"
    x2="320"
    y2="268.3333333333333"
    stroke="hsla(0,50%,50%,0.6)"
    stroke-width="1"
    transform="translate(-295.8333333333,-283.3333333333)"
    />
  
  <line
    x1="310"
    y1="255"
    x2="321.6666666666667"
    y2="256.6666666666667"
    stroke="hsla(0,50%,50%,0.6)"
    stroke-width="1"
    transform="translate(-295.8333333333,-283.3333333333)"
    />
  
  <line
    x1="296.6666666666667"
    y1="265"
    x2="320"
    y2="268.3333333333333"
    stroke="hsla(0,50%,50%,0.6)"
    stroke-width="1"
    transform="translate(-295.8333333333,-283.3333333333)"
    />
  
  <line
    x1="310"
    y1="255"
    x2="270"
    y2="285"
    stroke="hsla(0,50%,50%,0.6)"
    stroke-width="1"
    transform="translate(-295.8333333333,-283.3333333333)"
    />
  
  <line
    x1="308.3333333333333"
    y1="266.6666666666667"
    x2="275"
    y2="291.6666666666667"
    stroke="hsla(0,50%,50%,0.6)"
    stroke-width="1"
    transform="translate(-295.8333333333,-283.3333333333)"
    />
  
  <line
    x1="320"
    y1="268.3333333333333"
    x2="280"
    y2="298.3333333333333"
    stroke="hsla(0,50%,50%,0.6)"
    stroke-width="1"
    transform="translate(-295.8333333333,-283.3333333333)"
    />
  
</svg>
