<?xml version="1.0"?>
<!DOCTYPE svg PUBLIC "-//W3C//DTD SVG 1.1//EN"
  "http://www.w3.org/Graphics/SVG/1.1/DTD/svg11.dtd">
<svg
  width="240"
  height="240"
  viewBox="-50 -50 200 200" xmlns="http://www.w3.org/2000/svg" version="1.1">
  <rect
    x="0"
    y="0"
    width="100"
    height="100"
    fill="hsla(206,100%,53%,0.3)"
    stroke="hsl(206,100%,53%)"
    stroke-width="3"
    transform="" />
  
  <path
    d="M 
      343.3333333333
      280
      L
    
      355
      281.6666666666
      L
    
      353.3333333333
      293.3333333333
      L
    
      340
      303.3333333333
      L
    
      336.6666666666
      326.6666666666
      L
    
      326.6666666666
      313.3333333333
      L
    
      323.3333333333
      336.6666666666
      L
    
      303.3333333333
      310
      z
    "
    fill="hsla(0,0%,50%,0.3)"
    stroke="hsla(0,0%,50%,1)"
    stroke-width="1"
    transform="translate(-315.9765625,-317.2005208333) scale(1,-1) translate(50,-110)"
    />
  
  
  <line
    x1="316.6666666666667"
    y1="300"
    x2="336.6666666666667"
    y2="326.6666666666667"
    stroke="hsla(0,50%,50%,0.6)"
    stroke-width="1"
    transform="translate(-315.9765625,-317.2005208333) scale(1,-1) translate(50,-110)"
    />
  
  <line
    x1="303.3333333333333"
    y1="310"
    x2="323.3333333333333"
    y2="336.6666666666667"
    stroke="hsla(0,50%,50%,0.6)"
    stroke-width="1"
    transform="translate(-315.9765625,-317.2005208333) scale(1,-1) translate(50,-110)"
    />
  
  <line
    x1="330"
    y1="290"
    x2="323.3333333333333"
    y2="336.6666666666667"
    stroke="hsla(0,50%,50%,0.6)"
    stroke-width="1"
    transform="translate(-315.9765625,-317.2005208333) scale(1,-1) translate(50,-110)"
    />
  
  <line
    x1="343.3333333333333"
    y1="280"
    x2="336.6666666666667"
    y2="326.6666666666667"
    stroke="hsla(0,50%,50%,0.6)"
    stroke-width="1"
    transform="translate(-315.9765625,-317.2005208333) scale(1,-1) translate(50,-110)"
    />
  
  <line
    x1="355"
    y1="281.6666666666667"
    x2="353.3333333333333"
    y2="293.3333333333333"
    stroke="hsla(0,50%,50%,0.6)"
    stroke-width="1"
    transform="translate(-315.9765625,-317.2005208333) scale(1,-1) translate(50,-110)"
    />
  
  <line
    x1="343.3333333333333"
    y1="280"
    x2="355"
    y2="281.6666666666667"
    stroke="hsla(0,50%,50%,0.6)"
    stroke-width="1"
    transform="translate(-315.9765625,-317.2005208333) scale(1,-1) translate(50,-110)"
    />
  
  <line
    x1="330"
    y1="290"
    x2="353.3333333333333"
    y2="293.3333333333333"
    stroke="hsla(0,50%,50%,0.6)"
    stroke-width="1"
    transform="translate(-315.9765625,-317.2005208333) scale(1,-1) translate(50,-110)"
    />
  
  <line
    x1="343.3333333333333"
    y1="280"
    x2="303.3333333333333"
    y2="310"
    stroke="hsla(0,50%,50%,0.6)"
    stroke-width="1"
    transform="translate(-315.9765625,-317.2005208333) scale(1,-1) translate(50,-110)"
    />
  
  <line
    x1="341.6666666666667"
    y1="291.6666666666667"
    x2="308.3333333333333"
    y2="316.6666666666667"
    stroke="hsla(0,50%,50%,0.6)"
    stroke-width="1"
    transform="translate(-315.9765625,-317.2005208333) scale(1,-1) translate(50,-110)"
    />
  
  <line
    x1="353.3333333333333"
    y1="293.3333333333333"
    x2="313.3333333333333"
    y2="323.3333333333333"
    stroke="hsla(0,50%,50%,0.6)"
    stroke-width="1"
    transform="translate(-315.9765625,-317.2005208333) scale(1,-1) translate(50,-110)"
    />
  
</svg>
