<?xml version="1.0"?>
<!DOCTYPE svg PUBLIC "-//W3C//DTD SVG 1.1//EN"
  "http://www.w3.org/Graphics/SVG/1.1/DTD/svg11.dtd">
<svg
  width="240"
  height="240"
  viewBox="-500 -500 1000 1000" xmlns="http://www.w3.org/2000/svg" version="1.1">
  <rect
    x="0"
    y="0"
    width="100"
    height="100"
    fill="hsla(206,100%,53%,0.3)"
    stroke="hsl(206,100%,53%)"
    stroke-width="3"
    transform="" />
  
  <path
    d="M 
      376.6666666666
      305
      L
    
      388.3333333333
      306.6666666666
      L
    
      386.6666666666
      318.3333333333
      L
    
      373.3333333333
      328.3333333333
      L
    
      370
      351.6666666666
      L
    
      360
      338.3333333333
      L
    
      356.6666666666
      361.6666666666
      L
    
      336.6666666666
      335
      z
    "
    fill="hsla(0,0%,50%,0.3)"
    stroke="hsla(0,0%,50%,1)"
    stroke-width="1"
    transform="translate(-362.5,-333.3333333333)"
    />
  
  
  <line
    x1="350"
    y1="325"
    x2="370"
    y2="351.6666666666667"
    stroke="hsla(0,50%,50%,0.6)"
    stroke-width="1"
    transform="translate(-362.5,-333.3333333333)"
    />
  
  <line
    x1="336.6666666666667"
    y1="335"
    x2="356.6666666666667"
    y2="361.6666666666667"
    stroke="hsla(0,50%,50%,0.6)"
    stroke-width="1"
    transform="translate(-362.5,-333.3333333333)"
    />
  
  <line
    x1="363.3333333333333"
    y1="315"
    x2="356.6666666666667"
    y2="361.6666666666667"
    stroke="hsla(0,50%,50%,0.6)"
    stroke-width="1"
    transform="translate(-362.5,-333.3333333333)"
    />
  
  <line
    x1="376.6666666666667"
    y1="305"
    x2="370"
    y2="351.6666666666667"
    stroke="hsla(0,50%,50%,0.6)"
    stroke-width="1"
    transform="translate(-362.5,-333.3333333333)"
    />
  
  <line
    x1="388.3333333333333"
    y1="306.6666666666667"
    x2="386.6666666666667"
    y2="318.3333333333333"
    stroke="hsla(0,50%,50%,0.6)"
    stroke-width="1"
    transform="translate(-362.5,-333.3333333333)"
    />
  
  <line
    x1="376.6666666666667"
    y1="305"
    x2="388.3333333333333"
    y2="306.6666666666667"
    stroke="hsla(0,50%,50%,0.6)"
    stroke-width="1"
    transform="translate(-362.5,-333.3333333333)"
    />
  
  <line
    x1="363.3333333333333"
    y1="315"
    x2="386.6666666666667"
    y2="318.3333333333333"
    stroke="hsla(0,50%,50%,0.6)"
    stroke-width="1"
    transform="translate(-362.5,-333.3333333333)"
    />
  
  <line
    x1="376.6666666666667"
    y1="305"
    x2="336.6666666666667"
    y2="335"
    stroke="hsla(0,50%,50%,0.6)"
    stroke-width="1"
    transform="translate(-362.5,-333.3333333333)"
    />
  
  <line
    x1="375"
    y1="316.6666666666667"
    x2="341.6666666666667"
    y2="341.6666666666667"
    stroke="hsla(0,50%,50%,0.6)"
    stroke-width="1"
    transform="translate(-362.5,-333.3333333333)"
    />
  
  <line
    x1="386.6666666666667"
    y1="318.3333333333333"
    x2="346.6666666666667"
    y2="348.3333333333333"
    stroke="hsla(0,50%,50%,0.6)"
    stroke-width="1"
    transform="translate(-362.5,-333.3333333333)"
    />
  
</svg>
