<?xml version="1.0"?>
<!DOCTYPE svg PUBLIC "-//W3C//DTD SVG 1.1//EN"
  "http://www.w3.org/Graphics/SVG/1.1/DTD/svg11.dtd">
<svg
  width="240"
  height="240"
  viewBox="-50 -50 200 200" xmlns="http://www.w3.org/2000/svg" version="1.1">
  <rect
    x="0"
    y="0"
    width="100"
    height="100"
    fill="hsla(206,100%,53%,0.3)"
    stroke="hsl(206,100%,53%)"
    stroke-width="3"
    transform="" />
  
  <path
    d="M 
      410
      330
      L
    
      421.6666666666
      331.6666666666
      L
    
      420
      343.3333333333
      L
    
      406.6666666666
      353.3333333333
      L
    
      403.3333333333
      376.6666666666
      L
    
      393.3333333333
      363.3333333333
      L
    
      390
      386.6666666666
      L
    
      370
      360
      z
    "
    fill="hsla(0,0%,50%,0.3)"
    stroke="hsla(0,0%,50%,1)"
    stroke-width="1"
    transform="translate(-382.6432291666,-367.2005208333) scale(1,-1) translate(50,-110)"
    />
  
  
  <line
    x1="383.3333333333333"
    y1="350"
    x2="403.3333333333333"
    y2="376.6666666666667"
    stroke="hsla(0,50%,50%,0.6)"
    stroke-width="1"
    transform="translate(-382.6432291666,-367.2005208333) scale(1,-1) translate(50,-110)"
    />
  
  <line
    x1="370"
    y1="360"
    x2="390"
    y2="386.6666666666667"
    stroke="hsla(0,50%,50%,0.6)"
    stroke-width="1"
    transform="translate(-382.6432291666,-367.2005208333) scale(1,-1) translate(50,-110)"
    />
  
  <line
    x1="396.6666666666667"
    y1="340"
    x2="390"
    y2="386.6666666666667"
    stroke="hsla(0,50%,50%,0.6)"
    stroke-width="1"
    transform="translate(-382.6432291666,-367.2005208333) scale(1,-1) translate(50,-110)"
    />
  
  <line
    x1="410"
    y1="330"
    x2="403.3333333333333"
    y2="376.6666666666667"
    stroke="hsla(0,50%,50%,0.6)"
    stroke-width="1"
    transform="translate(-382.6432291666,-367.2005208333) scale(1,-1) translate(50,-110)"
    />
  
  <line
    x1="421.6666666666667"
    y1="331.6666666666667"
    x2="420"
    y2="343.3333333333333"
    stroke="hsla(0,50%,50%,0.6)"
    stroke-width="1"
    transform="translate(-382.6432291666,-367.2005208333) scale(1,-1) translate(50,-110)"
    />
  
  <line
    x1="410"
    y1="330"
    x2="421.6666666666667"
    y2="331.6666666666667"
    stroke="hsla(0,50%,50%,0.6)"
    stroke-width="1"
    transform="translate(-382.6432291666,-367.2005208333) scale(1,-1) translate(50,-110)"
    />
  
  <line
    x1="396.6666666666667"
    y1="340"
    x2="420"
    y2="343.3333333333333"
    stroke="hsla(0,50%,50%,0.6)"
    stroke-width="1"
    transform="translate(-382.6432291666,-367.2005208333) scale(1,-1) translate(50,-110)"
    />
  
  <line
    x1="410"
    y1="330"
    x2="370"
    y2="360"
    stroke="hsla(0,50%,50%,0.6)"
    stroke-width="1"
    transform="translate(-382.6432291666,-367.2005208333) scale(1,-1) translate(50,-110)"
    />
  
  <line
    x1="408.3333333333333"
    y1="341.6666666666667"
    x2="375"
    y2="366.6666666666667"
    stroke="hsla(0,50%,50%,0.6)"
    stroke-width="1"
    transform="translate(-382.6432291666,-367.2005208333) scale(1,-1) translate(50,-110)"
    />
  
  <line
    x1="420"
    y1="343.3333333333333"
    x2="380"
    y2="373.3333333333333"
    stroke="hsla(0,50%,50%,0.6)"
    stroke-width="1"
    transform="translate(-382.6432291666,-367.2005208333) scale(1,-1) translate(50,-110)"
    />
  
</svg>
