<?xml version="1.0"?>
<!DOCTYPE svg PUBLIC "-//W3C//DTD SVG 1.1//EN"
  "http://www.w3.org/Graphics/SVG/1.1/DTD/svg11.dtd">
<svg
  width="240"
  height="240"
  viewBox="-500 -500 1000 1000" xmlns="http://www.w3.org/2000/svg" version="1.1">
  <rect
    x="0"
    y="0"
    width="100"
    height="100"
    fill="hsla(206,100%,53%,0.3)"
    stroke="hsl(206,100%,53%)"
    stroke-width="3"
    transform="" />
  
  <path
    d="M 
      443.3333333333
      355
      L
    
      455
      356.6666666666
      L
    
      453.3333333333
      368.3333333333
      L
    
      440
      378.3333333333
      L
    
      436.6666666666
      401.6666666666
      L
    
      426.6666666666
      388.3333333333
      L
    
      423.3333333333
      411.6666666666
      L
    
      403.3333333333
      385
      z
    "
    fill="hsla(0,0%,50%,0.3)"
    stroke="hsla(0,0%,50%,1)"
    stroke-width="1"
    transform="translate(-429.1666666666,-383.3333333333)"
    />
  
  
  <line
    x1="416.6666666666667"
    y1="375"
    x2="436.6666666666667"
    y2="401.6666666666667"
    stroke="hsla(0,50%,50%,0.6)"
    stroke-width="1"
    transform="translate(-429.1666666666,-383.3333333333)"
    />
  
  <line
    x1="403.3333333333333"
    y1="385"
    x2="423.3333333333333"
    y2="411.6666666666667"
    stroke="hsla(0,50%,50%,0.6)"
    stroke-width="1"
    transform="translate(-429.1666666666,-383.3333333333)"
    />
  
  <line
    x1="430"
    y1="365"
    x2="423.3333333333333"
    y2="411.6666666666667"
    stroke="hsla(0,50%,50%,0.6)"
    stroke-width="1"
    transform="translate(-429.1666666666,-383.3333333333)"
    />
  
  <line
    x1="443.3333333333333"
    y1="355"
    x2="436.6666666666667"
    y2="401.6666666666667"
    stroke="hsla(0,50%,50%,0.6)"
    stroke-width="1"
    transform="translate(-429.1666666666,-383.3333333333)"
    />
  
  <line
    x1="455"
    y1="356.6666666666667"
    x2="453.3333333333333"
    y2="368.3333333333333"
    stroke="hsla(0,50%,50%,0.6)"
    stroke-width="1"
    transform="translate(-429.1666666666,-383.3333333333)"
    />
  
  <line
    x1="443.3333333333333"
    y1="355"
    x2="455"
    y2="356.6666666666667"
    stroke="hsla(0,50%,50%,0.6)"
    stroke-width="1"
    transform="translate(-429.1666666666,-383.3333333333)"
    />
  
  <line
    x1="430"
    y1="365"
    x2="453.3333333333333"
    y2="368.3333333333333"
    stroke="hsla(0,50%,50%,0.6)"
    stroke-width="1"
    transform="translate(-429.1666666666,-383.3333333333)"
    />
  
  <line
    x1="443.3333333333333"
    y1="355"
    x2="403.3333333333333"
    y2="385"
    stroke="hsla(0,50%,50%,0.6)"
    stroke-width="1"
    transform="translate(-429.1666666666,-383.3333333333)"
    />
  
  <line
    x1="441.6666666666667"
    y1="366.6666666666667"
    x2="408.3333333333333"
    y2="391.6666666666667"
    stroke="hsla(0,50%,50%,0.6)"
    stroke-width="1"
    transform="translate(-429.1666666666,-383.3333333333)"
    />
  
  <line
    x1="453.3333333333333"
    y1="368.3333333333333"
    x2="413.3333333333333"
    y2="398.3333333333333"
    stroke="hsla(0,50%,50%,0.6)"
    stroke-width="1"
    transform="translate(-429.1666666666,-383.3333333333)"
    />
  
</svg>
