<?xml version="1.0"?>
<!DOCTYPE svg PUBLIC "-//W3C//DTD SVG 1.1//EN"
  "http://www.w3.org/Graphics/SVG/1.1/DTD/svg11.dtd">
<svg
  width="240"
  height="240"
  viewBox="-500 -500 1000 1000" xmlns="http://www.w3.org/2000/svg" version="1.1">
  <rect
    x="0"
    y="0"
    width="100"
    height="100"
    fill="hsla(206,100%,53%,0.3)"
    stroke="hsl(206,100%,53%)"
    stroke-width="3"
    transform="" />
  
  <path
    d="M 
      476.6666666666
      380
      L
    
      488.3333333333
      381.6666666666
      L
    
      486.6666666666
      393.3333333333
      L
    
      473.3333333333
      403.3333333333
      L
    
      470
      426.6666666666
      L
    
      460
      413.3333333333
      L
    
      456.6666666666
      436.6666666666
      L
    
      436.6666666666
      410
      z
    "
    fill="hsla(0,0%,50%,0.3)"
    stroke="hsla(0,0%,50%,1)"
    stroke-width="1"
    transform="translate(-462.5,-408.3333333333)"
    />
  
  
  <line
    x1="450"
    y1="400"
    x2="470"
    y2="426.6666666666667"
    stroke="hsla(0,50%,50%,0.6)"
    stroke-width="1"
    transform="translate(-462.5,-408.3333333333)"
    />
  
  <line
    x1="436.6666666666667"
    y1="410"
    x2="456.6666666666667"
    y2="436.6666666666667"
    stroke="hsla(0,50%,50%,0.6)"
    stroke-width="1"
    transform="translate(-462.5,-408.3333333333)"
    />
  
  <line
    x1="463.3333333333333"
    y1="390"
    x2="456.6666666666667"
    y2="436.6666666666667"
    stroke="hsla(0,50%,50%,0.6)"
    stroke-width="1"
    transform="translate(-462.5,-408.3333333333)"
    />
  
  <line
    x1="476.6666666666667"
    y1="380"
    x2="470"
    y2="426.6666666666667"
    stroke="hsla(0,50%,50%,0.6)"
    stroke-width="1"
    transform="translate(-462.5,-408.3333333333)"
    />
  
  <line
    x1="488.3333333333333"
    y1="381.6666666666667"
    x2="486.6666666666667"
    y2="393.3333333333333"
    stroke="hsla(0,50%,50%,0.6)"
    stroke-width="1"
    transform="translate(-462.5,-408.3333333333)"
    />
  
  <line
    x1="476.6666666666667"
    y1="380"
    x2="488.3333333333333"
    y2="381.6666666666667"
    stroke="hsla(0,50%,50%,0.6)"
    stroke-width="1"
    transform="translate(-462.5,-408.3333333333)"
    />
  
  <line
    x1="463.3333333333333"
    y1="390"
    x2="486.6666666666667"
    y2="393.3333333333333"
    stroke="hsla(0,50%,50%,0.6)"
    stroke-width="1"
    transform="translate(-462.5,-408.3333333333)"
    />
  
  <line
    x1="476.6666666666667"
    y1="380"
    x2="436.6666666666667"
    y2="410"
    stroke="hsla(0,50%,50%,0.6)"
    stroke-width="1"
    transform="translate(-462.5,-408.3333333333)"
    />
  
  <line
    x1="475"
    y1="391.6666666666667"
    x2="441.6666666666667"
    y2="416.6666666666667"
    stroke="hsla(0,50%,50%,0.6)"
    stroke-width="1"
    transform="translate(-462.5,-408.3333333333)"
    />
  
  <line
    x1="486.6666666666667"
    y1="393.3333333333333"
    x2="446.6666666666667"
    y2="423.3333333333333"
    stroke="hsla(0,50%,50%,0.6)"
    stroke-width="1"
    transform="translate(-462.5,-408.3333333333)"
    />
  
</svg>
