<?xml version="1.0"?>
<!DOCTYPE svg PUBLIC "-//W3C//DTD SVG 1.1//EN"
  "http://www.w3.org/Graphics/SVG/1.1/DTD/svg11.dtd">
<svg
  width="240"
  height="240"
  viewBox="-500 -500 1000 1000" xmlns="http://www.w3.org/2000/svg" version="1.1">
  <rect
    x="0"
    y="0"
    width="100"
    height="100"
    fill="hsla(206,100%,53%,0.3)"
    stroke="hsl(206,100%,53%)"
    stroke-width="3"
    transform="" />
  
  <path
    d="M 
      78.5714285714
      0
      L
    
      100
      0
      L
    
      78.5714285714
      21.4285714285
      L
    
      78.5714285714
      78.5714285714
      L
    
      17.8571428571
      78.5714285714
      L
    
      0
      87.5
      L
    
      -10
      80
      L
    
      0
      78.5714285714
      z
    "
    fill="hsla(0,0%,50%,0.3)"
    stroke="hsla(0,0%,50%,1)"
    stroke-width="1"
    transform="translate(-45,-43.75)"
    />
  
  
  <line
    x1="78.57142857142857"
    y1="0"
    x2="100"
    y2="0"
    stroke="hsla(0,50%,50%,0.6)"
    stroke-width="1"
    transform="translate(-45,-43.75)"
    />
  
  <line
    x1="0"
    y1="78.57142857142857"
    x2="0"
    y2="87.5"
    stroke="hsla(0,50%,50%,0.6)"
    stroke-width="1"
    transform="translate(-45,-43.75)"
    />
  
  <line
    x1="78.57142857142857"
    y1="0"
    x2="78.57142857142857"
    y2="78.57142857142857"
    stroke="hsla(0,50%,50%,0.6)"
    stroke-width="1"
    transform="translate(-45,-43.75)"
    />
  
  <line
    x1="78.57142857142857"
    y1="0"
    x2="0"
    y2="78.57142857142857"
    stroke="hsla(0,50%,50%,0.6)"
    stroke-width="1"
    transform="translate(-45,-43.75)"
    />
  
  <line
    x1="100"
    y1="0"
    x2="25"
    y2="75"
    stroke="hsla(0,50%,50%,0.6)"
    stroke-width="1"
    transform="translate(-45,-43.75)"
    />
  
  <line
    x1="-10"
    y1="80"
    x2="0"
    y2="87.5"
    stroke="hsla(0,50%,50%,0.6)"
    stroke-width="1"
    transform="translate(-45,-43.75)"
    />
  
  <line
    x1="25"
    y1="75"
    x2="0"
    y2="87.5"
    stroke="hsla(0,50%,50%,0.6)"
    stroke-width="1"
    transform="translate(-45,-43.75)"
    />
  
  <line
    x1="25"
    y1="75"
    x2="-10"
    y2="80"
    stroke="hsla(0,50%,50%,0.6)"
    stroke-width="1"
    transform="translate(-45,-43.75)"
    />
  
  <line
    x1="0"
    y1="78.57142857142857"
    x2="78.57142857142857"
    y2="78.57142857142857"
    stroke="hsla(0,50%,50%,0.6)"
    stroke-width="1"
    transform="translate(-45,-43.75)"
    />
  
</svg>
