<?xml version="1.0"?>
<!DOCTYPE svg PUBLIC "-//W3C//DTD SVG 1.1//EN"
  "http://www.w3.org/Graphics/SVG/1.1/DTD/svg11.dtd">
<svg
  width="240"
  height="240"
  viewBox="-50 -50 200 200" xmlns="http://www.w3.org/2000/svg" version="1.1">
  <rect
    x="0"
    y="0"
    width="100"
    height="100"
    fill="hsla(206,100%,53%,0.3)"
    stroke="hsl(206,100%,53%)"
    stroke-width="3"
    transform="" />
  
  <path
    d="M 
      -73.7173541615
      -97.9106663412
      L
    
      -54.9226006191
      -84.7115113988
      L
    
      -42.3529411764
      -90.5882352941
      L
    
      -32.1176470588
      -68.6960784313
      L
    
      8.1181352208
      -40.4393458628
      L
    
      -8.1058260624
      -17.3374613003
      L
    
      -0.0000000000
      -0.0000000000
      L
    
      -0.0000000000
      0.0000000000
      L
    
      -30.1960784313
      14.1176470588
      L
    
      -96.7058823529
      -65.1764705882
      z
    "
    fill="hsla(0,0%,50%,0.3)"
    stroke="hsla(0,0%,50%,1)"
    stroke-width="1"
    transform="translate(56.6960321917,31.4797163219) scale(1,-1) translate(50,-110)"
    />
  
  
  <line
    x1="-42.35294117647059"
    y1="-90.58823529411765"
    x2="-96.70588235294117"
    y2="-65.17647058823529"
    stroke="hsla(0,50%,50%,0.6)"
    stroke-width="1"
    transform="translate(56.6960321917,31.4797163219) scale(1,-1) translate(50,-110)"
    />
  
  <line
    x1="-73.71735416158164"
    y1="-97.91066634122528"
    x2="-96.70588235294117"
    y2="-65.17647058823529"
    stroke="hsla(0,50%,50%,0.6)"
    stroke-width="1"
    transform="translate(56.6960321917,31.4797163219) scale(1,-1) translate(50,-110)"
    />
  
  <line
    x1="-73.71735416158164"
    y1="-97.91066634122528"
    x2="8.118135220893336"
    y2="-40.43934586282646"
    stroke="hsla(0,50%,50%,0.6)"
    stroke-width="1"
    transform="translate(56.6960321917,31.4797163219) scale(1,-1) translate(50,-110)"
    />
  
  <line
    x1="8.118135220893336"
    y1="-40.43934586282646"
    x2="-30.19607843137255"
    y2="14.117647058823529"
    stroke="hsla(0,50%,50%,0.6)"
    stroke-width="1"
    transform="translate(56.6960321917,31.4797163219) scale(1,-1) translate(50,-110)"
    />
  
  <line
    x1="-42.35294117647059"
    y1="-90.58823529411765"
    x2="-4.454504908379194e-37"
    y2="-9.527691054033278e-37"
    stroke="hsla(0,50%,50%,0.6)"
    stroke-width="1"
    transform="translate(56.6960321917,31.4797163219) scale(1,-1) translate(50,-110)"
    />
  
  <line
    x1="-6.26387993171738e-38"
    y1="2.928567240802931e-38"
    x2="-30.19607843137255"
    y2="14.117647058823529"
    stroke="hsla(0,50%,50%,0.6)"
    stroke-width="1"
    transform="translate(56.6960321917,31.4797163219) scale(1,-1) translate(50,-110)"
    />
  
  <line
    x1="-6.26387993171738e-38"
    y1="2.928567240802931e-38"
    x2="-1.2857258493984791e-37"
    y2="5.011847590997865e-38"
    stroke="hsla(0,50%,50%,0.6)"
    stroke-width="1"
    transform="translate(56.6960321917,31.4797163219) scale(1,-1) translate(50,-110)"
    />
  
  <line
    x1="-4.454504908379194e-37"
    y1="-9.527691054033278e-37"
    x2="-6.26387993171738e-38"
    y2="2.928567240802931e-38"
    stroke="hsla(0,50%,50%,0.6)"
    stroke-width="1"
    transform="translate(56.6960321917,31.4797163219) scale(1,-1) translate(50,-110)"
    />
  
  <line
    x1="-4.454504908379194e-37"
    y1="-9.527691054033278e-37"
    x2="-1.2857258493984791e-37"
    y2="5.011847590997865e-38"
    stroke="hsla(0,50%,50%,0.6)"
    stroke-width="1"
    transform="translate(56.6960321917,31.4797163219) scale(1,-1) translate(50,-110)"
    />
  
  <line
    x1="-96.70588235294117"
    y1="-65.17647058823529"
    x2="-30.19607843137255"
    y2="14.117647058823529"
    stroke="hsla(0,50%,50%,0.6)"
    stroke-width="1"
    transform="translate(56.6960321917,31.4797163219) scale(1,-1) translate(50,-110)"
    />
  
</svg>
