<?xml version="1.0"?>
<!DOCTYPE svg PUBLIC "-//W3C//DTD SVG 1.1//EN"
  "http://www.w3.org/Graphics/SVG/1.1/DTD/svg11.dtd">
<svg
  width="240"
  height="240"
  viewBox="-50 -50 200 200" xmlns="http://www.w3.org/2000/svg" version="1.1">
  <rect
    x="0"
    y="0"
    width="100"
    height="100"
    fill="hsla(206,100%,53%,0.3)"
    stroke="hsl(206,100%,53%)"
    stroke-width="3"
    transform="" />
  
  <path
    d="M 
      199.9999998249
      199999999912.4999998000
      L
    
      217.8571426999
      199999999921.4285711928
      L
    
      278.5714284142
      199999999921.4285710714
      L
    
      278.5714285285
      199999999978.5714282142
      L
    
      299.9999999999
      199999999999.9999996000
      L
    
      278.5714285714
      199999999999.9999996428
      L
    
      199.9999998428
      199999999921.4285712285
      L
    
      189.9999998399
      199999999919.9999998200
      z
    "
    fill="hsla(0,0%,50%,0.3)"
    stroke="hsla(0,0%,50%,1)"
    stroke-width="1"
    transform="translate(-214.8939730886,-199999999937.1623881630) scale(1,-1) translate(50,-110)"
    />
  
  
  <line
    x1="278.5714284142857"
    y1="199999999921.4286"
    x2="278.5714285714286"
    y2="200000000000"
    stroke="hsla(0,50%,50%,0.6)"
    stroke-width="1"
    transform="translate(-214.8939730886,-199999999937.1623881630) scale(1,-1) translate(50,-110)"
    />
  
  <line
    x1="199.999999825"
    y1="199999999912.5"
    x2="199.99999984285714"
    y2="199999999921.42856"
    stroke="hsla(0,50%,50%,0.6)"
    stroke-width="1"
    transform="translate(-214.8939730886,-199999999937.1623881630) scale(1,-1) translate(50,-110)"
    />
  
  <line
    x1="224.99999985"
    y1="199999999925"
    x2="300"
    y2="199999999999.99997"
    stroke="hsla(0,50%,50%,0.6)"
    stroke-width="1"
    transform="translate(-214.8939730886,-199999999937.1623881630) scale(1,-1) translate(50,-110)"
    />
  
  <line
    x1="199.99999984285714"
    y1="199999999921.42856"
    x2="278.5714285714286"
    y2="200000000000"
    stroke="hsla(0,50%,50%,0.6)"
    stroke-width="1"
    transform="translate(-214.8939730886,-199999999937.1623881630) scale(1,-1) translate(50,-110)"
    />
  
  <line
    x1="199.999999825"
    y1="199999999912.5"
    x2="189.99999984000002"
    y2="199999999920"
    stroke="hsla(0,50%,50%,0.6)"
    stroke-width="1"
    transform="translate(-214.8939730886,-199999999937.1623881630) scale(1,-1) translate(50,-110)"
    />
  
  <line
    x1="199.999999825"
    y1="199999999912.5"
    x2="224.99999985"
    y2="199999999925"
    stroke="hsla(0,50%,50%,0.6)"
    stroke-width="1"
    transform="translate(-214.8939730886,-199999999937.1623881630) scale(1,-1) translate(50,-110)"
    />
  
  <line
    x1="189.99999984000002"
    y1="199999999920"
    x2="224.99999985"
    y2="199999999925"
    stroke="hsla(0,50%,50%,0.6)"
    stroke-width="1"
    transform="translate(-214.8939730886,-199999999937.1623881630) scale(1,-1) translate(50,-110)"
    />
  
  <line
    x1="278.5714284142857"
    y1="199999999921.4286"
    x2="199.99999984285714"
    y2="199999999921.42856"
    stroke="hsla(0,50%,50%,0.6)"
    stroke-width="1"
    transform="translate(-214.8939730886,-199999999937.1623881630) scale(1,-1) translate(50,-110)"
    />
  
  <line
    x1="300"
    y1="199999999999.99997"
    x2="278.5714285714286"
    y2="200000000000"
    stroke="hsla(0,50%,50%,0.6)"
    stroke-width="1"
    transform="translate(-214.8939730886,-199999999937.1623881630) scale(1,-1) translate(50,-110)"
    />
  
</svg>
