<?xml version="1.0"?>
<!DOCTYPE svg PUBLIC "-//W3C//DTD SVG 1.1//EN"
  "http://www.w3.org/Graphics/SVG/1.1/DTD/svg11.dtd">
<svg
  width="240"
  height="240"
  viewBox="-500 -500 1000 1000" xmlns="http://www.w3.org/2000/svg" version="1.1">
  <rect
    x="0"
    y="0"
    width="100"
    height="100"
    fill="hsla(206,100%,53%,0.3)"
    stroke="hsl(206,100%,53%)"
    stroke-width="3"
    transform="" />
  
  <path
    d="M 
      76.5957446808
      0
      L
    
      100
      0
      L
    
      100
      50
      L
    
      76.5957446808
      73.4042553191
      L
    
      76.5957446808
      76.5957446808
      L
    
      73.4042553191
      76.5957446808
      L
    
      50
      100
      L
    
      13.2978723404
      63.2978723404
      z
    "
    fill="hsla(0,0%,50%,0.3)"
    stroke="hsla(0,0%,50%,1)"
    stroke-width="1"
    transform="translate(-56.6489361702,-50)"
    />
  
  
  <line
    x1="76.59574468085107"
    y1="0"
    x2="100"
    y2="0"
    stroke="hsla(0,50%,50%,0.6)"
    stroke-width="1"
    transform="translate(-56.6489361702,-50)"
    />
  
  <line
    x1="26.595744680851062"
    y1="50"
    x2="26.595744680851062"
    y2="76.59574468085107"
    stroke="hsla(0,50%,50%,0.6)"
    stroke-width="1"
    transform="translate(-56.6489361702,-50)"
    />
  
  <line
    x1="50"
    y1="50"
    x2="50"
    y2="100"
    stroke="hsla(0,50%,50%,0.6)"
    stroke-width="1"
    transform="translate(-56.6489361702,-50)"
    />
  
  <line
    x1="76.59574468085107"
    y1="0"
    x2="76.59574468085107"
    y2="76.59574468085107"
    stroke="hsla(0,50%,50%,0.6)"
    stroke-width="1"
    transform="translate(-56.6489361702,-50)"
    />
  
  <line
    x1="100"
    y1="0"
    x2="100"
    y2="50"
    stroke="hsla(0,50%,50%,0.6)"
    stroke-width="1"
    transform="translate(-56.6489361702,-50)"
    />
  
  <line
    x1="13.297872340425531"
    y1="63.297872340425535"
    x2="50"
    y2="100"
    stroke="hsla(0,50%,50%,0.6)"
    stroke-width="1"
    transform="translate(-56.6489361702,-50)"
    />
  
  <line
    x1="76.59574468085107"
    y1="0"
    x2="13.297872340425531"
    y2="63.297872340425535"
    stroke="hsla(0,50%,50%,0.6)"
    stroke-width="1"
    transform="translate(-56.6489361702,-50)"
    />
  
  <line
    x1="26.595744680851062"
    y1="50"
    x2="100"
    y2="50"
    stroke="hsla(0,50%,50%,0.6)"
    stroke-width="1"
    transform="translate(-56.6489361702,-50)"
    />
  
  <line
    x1="100"
    y1="50"
    x2="50"
    y2="100"
    stroke="hsla(0,50%,50%,0.6)"
    stroke-width="1"
    transform="translate(-56.6489361702,-50)"
    />
  
  <line
    x1="26.595744680851062"
    y1="76.59574468085107"
    x2="76.59574468085107"
    y2="76.59574468085107"
    stroke="hsla(0,50%,50%,0.6)"
    stroke-width="1"
    transform="translate(-56.6489361702,-50)"
    />
  
</svg>
