<?xml version="1.0"?>
<!DOCTYPE svg PUBLIC "-//W3C//DTD SVG 1.1//EN"
  "http://www.w3.org/Graphics/SVG/1.1/DTD/svg11.dtd">
<svg
  width="240"
  height="240"
  viewBox="-50 -50 200 200" xmlns="http://www.w3.org/2000/svg" version="1.1">
  <rect
    x="0"
    y="0"
    width="100"
    height="100"
    fill="hsla(206,100%,53%,0.3)"
    stroke="hsl(206,100%,53%)"
    stroke-width="3"
    transform="" />
  
  <path
    d="M 
      40
      20
      L
    
      120
      80
      L
    
      80
      133.3333333333
      L
    
      80
      150
      L
    
      67.5
      150
      L
    
      17.5
      50
      z
    "
    fill="hsla(0,0%,50%,0.3)"
    stroke="hsla(0,0%,50%,1)"
    stroke-width="1"
    transform="translate(-45.625,-92.7083333333) scale(1,-1) translate(50,-110)"
    />
  
  
  <line
    x1="40"
    y1="20"
    x2="120"
    y2="80"
    stroke="hsla(0,50%,50%,0.6)"
    stroke-width="1"
    transform="translate(-45.625,-92.7083333333) scale(1,-1) translate(50,-110)"
    />
  
  <line
    x1="80"
    y1="50"
    x2="80"
    y2="150"
    stroke="hsla(0,50%,50%,0.6)"
    stroke-width="1"
    transform="translate(-45.625,-92.7083333333) scale(1,-1) translate(50,-110)"
    />
  
  <line
    x1="17.5"
    y1="50"
    x2="67.5"
    y2="150"
    stroke="hsla(0,50%,50%,0.6)"
    stroke-width="1"
    transform="translate(-45.625,-92.7083333333) scale(1,-1) translate(50,-110)"
    />
  
  <line
    x1="40"
    y1="20"
    x2="17.5"
    y2="50"
    stroke="hsla(0,50%,50%,0.6)"
    stroke-width="1"
    transform="translate(-45.625,-92.7083333333) scale(1,-1) translate(50,-110)"
    />
  
  <line
    x1="17.5"
    y1="50"
    x2="80"
    y2="50"
    stroke="hsla(0,50%,50%,0.6)"
    stroke-width="1"
    transform="translate(-45.625,-92.7083333333) scale(1,-1) translate(50,-110)"
    />
  
  <line
    x1="120"
    y1="80"
    x2="67.5"
    y2="150"
    stroke="hsla(0,50%,50%,0.6)"
    stroke-width="1"
    transform="translate(-45.625,-92.7083333333) scale(1,-1) translate(50,-110)"
    />
  
  <line
    x1="67.5"
    y1="150"
    x2="80"
    y2="150"
    stroke="hsla(0,50%,50%,0.6)"
    stroke-width="1"
    transform="translate(-45.625,-92.7083333333) scale(1,-1) translate(50,-110)"
    />
  
</svg>
