<?xml version="1.0"?>
<!DOCTYPE svg PUBLIC "-//W3C//DTD SVG 1.1//EN"
  "http://www.w3.org/Graphics/SVG/1.1/DTD/svg11.dtd">
<svg
  width="240"
  height="240"
  viewBox="-500 -500 1000 1000" xmlns="http://www.w3.org/2000/svg" version="1.1">
  <rect
    x="0"
    y="0"
    width="100"
    height="100"
    fill="hsla(206,100%,53%,0.3)"
    stroke="hsl(206,100%,53%)"
    stroke-width="3"
    transform="" />
  
  <path
    d="M 
      -268.4933909736
      139.5817301163
      L
    
      -220
      160
      L
    
      -203.3626588465
      172.4780058651
      L
    
      -207.4717636837
      178.7358818418
      L
    
      -250
      200
      L
    
      -262.3051532202
      201.7578790314
      L
    
      -274.0014032743
      170.2427664550
      L
    
      -273.0681772811
      170.6060919900
      L
    
      -279.7861742160
      151.4424250871
      z
    "
    fill="hsla(0,0%,50%,0.3)"
    stroke="hsla(0,0%,50%,1)"
    stroke-width="1"
    transform="translate(241.5744165312,-170.6698045738)"
    />
  
  
  <line
    x1="-268.4933909736997"
    y1="139.58173011633696"
    x2="-279.78617421602786"
    y2="151.442425087108"
    stroke="hsla(0,50%,50%,0.6)"
    stroke-width="1"
    transform="translate(241.5744165312,-170.6698045738)"
    />
  
  <line
    x1="-268.09025661514994"
    y1="149.29868332637162"
    x2="-268.9580673671806"
    y2="152.42315624079347"
    stroke="hsla(0,50%,50%,0.6)"
    stroke-width="1"
    transform="translate(241.5744165312,-170.6698045738)"
    />
  
  <line
    x1="-230.33650577838205"
    y1="180.33650577838205"
    x2="-239.94787141615987"
    y2="194.97393570807992"
    stroke="hsla(0,50%,50%,0.6)"
    stroke-width="1"
    transform="translate(241.5744165312,-170.6698045738)"
    />
  
  <line
    x1="-211.72374038909408"
    y1="166.20719470817943"
    x2="-219.29158635715714"
    y2="184.64579317857857"
    stroke="hsla(0,50%,50%,0.6)"
    stroke-width="1"
    transform="translate(241.5744165312,-170.6698045738)"
    />
  
  <line
    x1="-224.0252100840336"
    y1="177.70028011204482"
    x2="-227.0466119871375"
    y2="188.52330599356875"
    stroke="hsla(0,50%,50%,0.6)"
    stroke-width="1"
    transform="translate(241.5744165312,-170.6698045738)"
    />
  
  <line
    x1="-203.36265884652983"
    y1="172.47800586510263"
    x2="-207.47176368375327"
    y2="178.73588184187662"
    stroke="hsla(0,50%,50%,0.6)"
    stroke-width="1"
    transform="translate(241.5744165312,-170.6698045738)"
    />
  
  <line
    x1="-203.45763164929164"
    y1="172.40677626303128"
    x2="-204.40379403794037"
    y2="173.6991869918699"
    stroke="hsla(0,50%,50%,0.6)"
    stroke-width="1"
    transform="translate(241.5744165312,-170.6698045738)"
    />
  
  <line
    x1="-203.45763164929164"
    y1="172.40677626303128"
    x2="-208.84867970994665"
    y2="179.4243398549733"
    stroke="hsla(0,50%,50%,0.6)"
    stroke-width="1"
    transform="translate(241.5744165312,-170.6698045738)"
    />
  
  <line
    x1="-232.00964353033558"
    y1="182.00964353033558"
    x2="-233.53127052712065"
    y2="191.7656352635603"
    stroke="hsla(0,50%,50%,0.6)"
    stroke-width="1"
    transform="translate(241.5744165312,-170.6698045738)"
    />
  
  <line
    x1="-203.36265884652983"
    y1="172.47800586510263"
    x2="-204.40379403794037"
    y2="173.6991869918699"
    stroke="hsla(0,50%,50%,0.6)"
    stroke-width="1"
    transform="translate(241.5744165312,-170.6698045738)"
    />
  
  <line
    x1="-230.33650577838205"
    y1="180.33650577838205"
    x2="-250"
    y2="200"
    stroke="hsla(0,50%,50%,0.6)"
    stroke-width="1"
    transform="translate(241.5744165312,-170.6698045738)"
    />
  
  <line
    x1="-261.72105219345707"
    y1="193.61178168095674"
    x2="-262.30515322023064"
    y2="201.75787903146153"
    stroke="hsla(0,50%,50%,0.6)"
    stroke-width="1"
    transform="translate(241.5744165312,-170.6698045738)"
    />
  
  <line
    x1="-204.40379403794037"
    y1="173.6991869918699"
    x2="-211.26092779286486"
    y2="180.63046389643242"
    stroke="hsla(0,50%,50%,0.6)"
    stroke-width="1"
    transform="translate(241.5744165312,-170.6698045738)"
    />
  
  <line
    x1="-261.72105219345707"
    y1="193.61178168095674"
    x2="-262.1551485104634"
    y2="201.73644978720907"
    stroke="hsla(0,50%,50%,0.6)"
    stroke-width="1"
    transform="translate(241.5744165312,-170.6698045738)"
    />
  
  <line
    x1="-268.4933909736997"
    y1="139.58173011633696"
    x2="-268.9580673671806"
    y2="152.42315624079347"
    stroke="hsla(0,50%,50%,0.6)"
    stroke-width="1"
    transform="translate(241.5744165312,-170.6698045738)"
    />
  
  <line
    x1="-211.72374038909408"
    y1="166.20719470817943"
    x2="-220.0678203163704"
    y2="172.86226712904823"
    stroke="hsla(0,50%,50%,0.6)"
    stroke-width="1"
    transform="translate(241.5744165312,-170.6698045738)"
    />
  
  <line
    x1="-241.02767524223188"
    y1="154.26781690611426"
    x2="-250.46499164717676"
    y2="160.1324438504659"
    stroke="hsla(0,50%,50%,0.6)"
    stroke-width="1"
    transform="translate(241.5744165312,-170.6698045738)"
    />
  
  <line
    x1="-226.1219512195122"
    y1="177.5691056910569"
    x2="-230.33650577838205"
    y2="180.33650577838205"
    stroke="hsla(0,50%,50%,0.6)"
    stroke-width="1"
    transform="translate(241.5744165312,-170.6698045738)"
    />
  
  <line
    x1="-212.60935516204478"
    y1="180.815703307718"
    x2="-212.54649995897526"
    y2="181.27324997948764"
    stroke="hsla(0,50%,50%,0.6)"
    stroke-width="1"
    transform="translate(241.5744165312,-170.6698045738)"
    />
  
  <line
    x1="-224.0252100840336"
    y1="177.70028011204482"
    x2="-223.7439024390244"
    y2="179.59654471544715"
    stroke="hsla(0,50%,50%,0.6)"
    stroke-width="1"
    transform="translate(241.5744165312,-170.6698045738)"
    />
  
  <line
    x1="-258.038136485604"
    y1="143.98394253237726"
    x2="-268.78820979376263"
    y2="147.72910784210725"
    stroke="hsla(0,50%,50%,0.6)"
    stroke-width="1"
    transform="translate(241.5744165312,-170.6698045738)"
    />
  
  <line
    x1="-207.47176368375327"
    y1="178.73588184187662"
    x2="-250"
    y2="200"
    stroke="hsla(0,50%,50%,0.6)"
    stroke-width="1"
    transform="translate(241.5744165312,-170.6698045738)"
    />
  
  <line
    x1="-231.48094002457782"
    y1="181.48094002457782"
    x2="-231.3695866371178"
    y2="181.9098148430191"
    stroke="hsla(0,50%,50%,0.6)"
    stroke-width="1"
    transform="translate(241.5744165312,-170.6698045738)"
    />
  
  <line
    x1="-243.6549532011726"
    y1="150.04001970476943"
    x2="-260.40819892644373"
    y2="153.74635016614562"
    stroke="hsla(0,50%,50%,0.6)"
    stroke-width="1"
    transform="translate(241.5744165312,-170.6698045738)"
    />
  
  <line
    x1="-279.78617421602786"
    y1="151.442425087108"
    x2="-262.1551485104634"
    y2="201.73644978720907"
    stroke="hsla(0,50%,50%,0.6)"
    stroke-width="1"
    transform="translate(241.5744165312,-170.6698045738)"
    />
  
  <line
    x1="-274.0014032743067"
    y1="170.2427664550618"
    x2="-262.30515322023064"
    y2="201.75787903146153"
    stroke="hsla(0,50%,50%,0.6)"
    stroke-width="1"
    transform="translate(241.5744165312,-170.6698045738)"
    />
  
  <line
    x1="-258.038136485604"
    y1="143.98394253237726"
    x2="-250.46499164717676"
    y2="160.1324438504659"
    stroke="hsla(0,50%,50%,0.6)"
    stroke-width="1"
    transform="translate(241.5744165312,-170.6698045738)"
    />
  
  <line
    x1="-235.5478320820822"
    y1="153.4535443864917"
    x2="-251.74664770505842"
    y2="155.08682833136"
    stroke="hsla(0,50%,50%,0.6)"
    stroke-width="1"
    transform="translate(241.5744165312,-170.6698045738)"
    />
  
  <line
    x1="-231.3695866371178"
    y1="181.9098148430191"
    x2="-232.00964353033558"
    y2="182.00964353033558"
    stroke="hsla(0,50%,50%,0.6)"
    stroke-width="1"
    transform="translate(241.5744165312,-170.6698045738)"
    />
  
  <line
    x1="-211.26092779286486"
    y1="180.63046389643242"
    x2="-212.60935516204478"
    y2="180.815703307718"
    stroke="hsla(0,50%,50%,0.6)"
    stroke-width="1"
    transform="translate(241.5744165312,-170.6698045738)"
    />
  
  <line
    x1="-243.6549532011726"
    y1="150.04001970476943"
    x2="-241.02767524223188"
    y2="154.26781690611426"
    stroke="hsla(0,50%,50%,0.6)"
    stroke-width="1"
    transform="translate(241.5744165312,-170.6698045738)"
    />
  
  <line
    x1="-268.09025661514994"
    y1="149.29868332637162"
    x2="-244.46012794439258"
    y2="149.70099876025574"
    stroke="hsla(0,50%,50%,0.6)"
    stroke-width="1"
    transform="translate(241.5744165312,-170.6698045738)"
    />
  
  <line
    x1="-250"
    y1="200"
    x2="-262.30515322023064"
    y2="201.75787903146153"
    stroke="hsla(0,50%,50%,0.6)"
    stroke-width="1"
    transform="translate(241.5744165312,-170.6698045738)"
    />
  
  <line
    x1="-235.5478320820822"
    y1="153.4535443864917"
    x2="-220.0678203163704"
    y2="172.86226712904823"
    stroke="hsla(0,50%,50%,0.6)"
    stroke-width="1"
    transform="translate(241.5744165312,-170.6698045738)"
    />
  
  <line
    x1="-208.84867970994665"
    y1="179.4243398549733"
    x2="-223.7439024390244"
    y2="179.59654471544715"
    stroke="hsla(0,50%,50%,0.6)"
    stroke-width="1"
    transform="translate(241.5744165312,-170.6698045738)"
    />
  
  <line
    x1="-268.9580673671806"
    y1="152.42315624079347"
    x2="-220"
    y2="160"
    stroke="hsla(0,50%,50%,0.6)"
    stroke-width="1"
    transform="translate(241.5744165312,-170.6698045738)"
    />
  
  <line
    x1="-226.1219512195122"
    y1="177.5691056910569"
    x2="-207.47176368375327"
    y2="178.73588184187662"
    stroke="hsla(0,50%,50%,0.6)"
    stroke-width="1"
    transform="translate(241.5744165312,-170.6698045738)"
    />
  
  <line
    x1="-244.46012794439258"
    y1="149.70099876025574"
    x2="-212.54649995897526"
    y2="181.27324997948764"
    stroke="hsla(0,50%,50%,0.6)"
    stroke-width="1"
    transform="translate(241.5744165312,-170.6698045738)"
    />
  
  <line
    x1="-220"
    y1="160"
    x2="-203.36265884652983"
    y2="172.47800586510263"
    stroke="hsla(0,50%,50%,0.6)"
    stroke-width="1"
    transform="translate(241.5744165312,-170.6698045738)"
    />
  
  <line
    x1="-261.72105219345707"
    y1="193.61178168095674"
    x2="-239.94787141615987"
    y2="194.97393570807992"
    stroke="hsla(0,50%,50%,0.6)"
    stroke-width="1"
    transform="translate(241.5744165312,-170.6698045738)"
    />
  
  <line
    x1="-226.1219512195122"
    y1="177.5691056910569"
    x2="-223.7439024390244"
    y2="179.59654471544715"
    stroke="hsla(0,50%,50%,0.6)"
    stroke-width="1"
    transform="translate(241.5744165312,-170.6698045738)"
    />
  
  <line
    x1="-268.4933909736997"
    y1="139.58173011633696"
    x2="-220"
    y2="160"
    stroke="hsla(0,50%,50%,0.6)"
    stroke-width="1"
    transform="translate(241.5744165312,-170.6698045738)"
    />
  
  <line
    x1="-279.78617421602786"
    y1="151.442425087108"
    x2="-250.46499164717676"
    y2="160.1324438504659"
    stroke="hsla(0,50%,50%,0.6)"
    stroke-width="1"
    transform="translate(241.5744165312,-170.6698045738)"
    />
  
  <line
    x1="-268.78820979376263"
    y1="147.72910784210725"
    x2="-251.74664770505842"
    y2="155.08682833136"
    stroke="hsla(0,50%,50%,0.6)"
    stroke-width="1"
    transform="translate(241.5744165312,-170.6698045738)"
    />
  
  <line
    x1="-231.48094002457782"
    y1="181.48094002457782"
    x2="-219.29158635715714"
    y2="184.64579317857857"
    stroke="hsla(0,50%,50%,0.6)"
    stroke-width="1"
    transform="translate(241.5744165312,-170.6698045738)"
    />
  
  <line
    x1="-268.09025661514994"
    y1="149.29868332637162"
    x2="-260.40819892644373"
    y2="153.74635016614562"
    stroke="hsla(0,50%,50%,0.6)"
    stroke-width="1"
    transform="translate(241.5744165312,-170.6698045738)"
    />
  
  <line
    x1="-274.0014032743067"
    y1="170.2427664550618"
    x2="-227.0466119871375"
    y2="188.52330599356875"
    stroke="hsla(0,50%,50%,0.6)"
    stroke-width="1"
    transform="translate(241.5744165312,-170.6698045738)"
    />
  
  <line
    x1="-274.0014032743067"
    y1="170.2427664550618"
    x2="-233.53127052712065"
    y2="191.7656352635603"
    stroke="hsla(0,50%,50%,0.6)"
    stroke-width="1"
    transform="translate(241.5744165312,-170.6698045738)"
    />
  
</svg>
