<?xml version="1.0"?>
<!DOCTYPE svg PUBLIC "-//W3C//DTD SVG 1.1//EN"
  "http://www.w3.org/Graphics/SVG/1.1/DTD/svg11.dtd">
<svg
  width="240"
  height="240"
  viewBox="-50 -50 200 200" xmlns="http://www.w3.org/2000/svg" version="1.1">
  <rect
    x="0"
    y="0"
    width="100"
    height="100"
    fill="hsla(206,100%,53%,0.3)"
    stroke="hsl(206,100%,53%)"
    stroke-width="3"
    transform="" />
  
  <path
    d="M 
      23.3333333333
      0
      L
    
      30
      0
      L
    
      30
      13.3333333333
      L
    
      36.6666666666
      13.3333333333
      L
    
      36.6666666666
      40
      L
    
      40
      40
      L
    
      40
      43.3333333333
      L
    
      20
      63.3333333333
      L
    
      6.6666666666
      50
      L
    
      6.6666666666
      46.6666666666
      L
    
      3.3333333333
      46.6666666666
      L
    
      0
      43.3333333333
      L
    
      10
      33.3333333333
      L
    
      13.3333333333
      33.3333333333
      L
    
      13.3333333333
      10
      z
    "
    fill="hsla(0,0%,50%,0.3)"
    stroke="hsla(0,0%,50%,1)"
    stroke-width="1"
    transform="translate(-11.7395019531,-23.1819661458) scale(1,-1) translate(50,-110)"
    />
  
  
  <line
    x1="23.333333333333332"
    y1="10"
    x2="28.333333333333332"
    y2="15"
    stroke="hsla(0,50%,50%,0.6)"
    stroke-width="1"
    transform="translate(-11.7395019531,-23.1819661458) scale(1,-1) translate(50,-110)"
    />
  
  <line
    x1="23.333333333333332"
    y1="13.333333333333334"
    x2="30"
    y2="20"
    stroke="hsla(0,50%,50%,0.6)"
    stroke-width="1"
    transform="translate(-11.7395019531,-23.1819661458) scale(1,-1) translate(50,-110)"
    />
  
  <line
    x1="13.333333333333334"
    y1="10"
    x2="36.666666666666664"
    y2="33.333333333333336"
    stroke="hsla(0,50%,50%,0.6)"
    stroke-width="1"
    transform="translate(-11.7395019531,-23.1819661458) scale(1,-1) translate(50,-110)"
    />
  
  <line
    x1="23.333333333333332"
    y1="0"
    x2="30"
    y2="0"
    stroke="hsla(0,50%,50%,0.6)"
    stroke-width="1"
    transform="translate(-11.7395019531,-23.1819661458) scale(1,-1) translate(50,-110)"
    />
  
  <line
    x1="6.666666666666667"
    y1="40"
    x2="6.666666666666667"
    y2="50"
    stroke="hsla(0,50%,50%,0.6)"
    stroke-width="1"
    transform="translate(-11.7395019531,-23.1819661458) scale(1,-1) translate(50,-110)"
    />
  
  <line
    x1="13.333333333333334"
    y1="10"
    x2="13.333333333333334"
    y2="56.666666666666664"
    stroke="hsla(0,50%,50%,0.6)"
    stroke-width="1"
    transform="translate(-11.7395019531,-23.1819661458) scale(1,-1) translate(50,-110)"
    />
  
  <line
    x1="16.666666666666668"
    y1="10"
    x2="16.666666666666668"
    y2="26.666666666666668"
    stroke="hsla(0,50%,50%,0.6)"
    stroke-width="1"
    transform="translate(-11.7395019531,-23.1819661458) scale(1,-1) translate(50,-110)"
    />
  
  <line
    x1="16.666666666666668"
    y1="50"
    x2="16.666666666666668"
    y2="53.333333333333336"
    stroke="hsla(0,50%,50%,0.6)"
    stroke-width="1"
    transform="translate(-11.7395019531,-23.1819661458) scale(1,-1) translate(50,-110)"
    />
  
  <line
    x1="20"
    y1="46.666666666666664"
    x2="20"
    y2="56.666666666666664"
    stroke="hsla(0,50%,50%,0.6)"
    stroke-width="1"
    transform="translate(-11.7395019531,-23.1819661458) scale(1,-1) translate(50,-110)"
    />
  
  <line
    x1="23.333333333333332"
    y1="0"
    x2="23.333333333333332"
    y2="46.666666666666664"
    stroke="hsla(0,50%,50%,0.6)"
    stroke-width="1"
    transform="translate(-11.7395019531,-23.1819661458) scale(1,-1) translate(50,-110)"
    />
  
  <line
    x1="26.666666666666668"
    y1="13.333333333333334"
    x2="26.666666666666668"
    y2="50"
    stroke="hsla(0,50%,50%,0.6)"
    stroke-width="1"
    transform="translate(-11.7395019531,-23.1819661458) scale(1,-1) translate(50,-110)"
    />
  
  <line
    x1="30"
    y1="0"
    x2="30"
    y2="20"
    stroke="hsla(0,50%,50%,0.6)"
    stroke-width="1"
    transform="translate(-11.7395019531,-23.1819661458) scale(1,-1) translate(50,-110)"
    />
  
  <line
    x1="30"
    y1="43.333333333333336"
    x2="30"
    y2="50"
    stroke="hsla(0,50%,50%,0.6)"
    stroke-width="1"
    transform="translate(-11.7395019531,-23.1819661458) scale(1,-1) translate(50,-110)"
    />
  
  <line
    x1="33.333333333333336"
    y1="30"
    x2="33.333333333333336"
    y2="50"
    stroke="hsla(0,50%,50%,0.6)"
    stroke-width="1"
    transform="translate(-11.7395019531,-23.1819661458) scale(1,-1) translate(50,-110)"
    />
  
  <line
    x1="36.666666666666664"
    y1="13.333333333333334"
    x2="36.666666666666664"
    y2="46.666666666666664"
    stroke="hsla(0,50%,50%,0.6)"
    stroke-width="1"
    transform="translate(-11.7395019531,-23.1819661458) scale(1,-1) translate(50,-110)"
    />
  
  <line
    x1="40"
    y1="40"
    x2="40"
    y2="43.333333333333336"
    stroke="hsla(0,50%,50%,0.6)"
    stroke-width="1"
    transform="translate(-11.7395019531,-23.1819661458) scale(1,-1) translate(50,-110)"
    />
  
  <line
    x1="30"
    y1="46.666666666666664"
    x2="33.333333333333336"
    y2="50"
    stroke="hsla(0,50%,50%,0.6)"
    stroke-width="1"
    transform="translate(-11.7395019531,-23.1819661458) scale(1,-1) translate(50,-110)"
    />
  
  <line
    x1="16.666666666666668"
    y1="10"
    x2="30"
    y2="10"
    stroke="hsla(0,50%,50%,0.6)"
    stroke-width="1"
    transform="translate(-11.7395019531,-23.1819661458) scale(1,-1) translate(50,-110)"
    />
  
  <line
    x1="10"
    y1="33.333333333333336"
    x2="23.333333333333332"
    y2="46.666666666666664"
    stroke="hsla(0,50%,50%,0.6)"
    stroke-width="1"
    transform="translate(-11.7395019531,-23.1819661458) scale(1,-1) translate(50,-110)"
    />
  
  <line
    x1="23.333333333333332"
    y1="0"
    x2="13.333333333333334"
    y2="10"
    stroke="hsla(0,50%,50%,0.6)"
    stroke-width="1"
    transform="translate(-11.7395019531,-23.1819661458) scale(1,-1) translate(50,-110)"
    />
  
  <line
    x1="13.333333333333334"
    y1="13.333333333333334"
    x2="36.666666666666664"
    y2="13.333333333333334"
    stroke="hsla(0,50%,50%,0.6)"
    stroke-width="1"
    transform="translate(-11.7395019531,-23.1819661458) scale(1,-1) translate(50,-110)"
    />
  
  <line
    x1="6.666666666666667"
    y1="43.333333333333336"
    x2="23.333333333333332"
    y2="60"
    stroke="hsla(0,50%,50%,0.6)"
    stroke-width="1"
    transform="translate(-11.7395019531,-23.1819661458) scale(1,-1) translate(50,-110)"
    />
  
  <line
    x1="26.666666666666668"
    y1="13.333333333333334"
    x2="13.333333333333334"
    y2="26.666666666666668"
    stroke="hsla(0,50%,50%,0.6)"
    stroke-width="1"
    transform="translate(-11.7395019531,-23.1819661458) scale(1,-1) translate(50,-110)"
    />
  
  <line
    x1="0"
    y1="43.333333333333336"
    x2="3.3333333333333335"
    y2="46.666666666666664"
    stroke="hsla(0,50%,50%,0.6)"
    stroke-width="1"
    transform="translate(-11.7395019531,-23.1819661458) scale(1,-1) translate(50,-110)"
    />
  
  <line
    x1="6.666666666666667"
    y1="50"
    x2="20"
    y2="63.333333333333336"
    stroke="hsla(0,50%,50%,0.6)"
    stroke-width="1"
    transform="translate(-11.7395019531,-23.1819661458) scale(1,-1) translate(50,-110)"
    />
  
  <line
    x1="30"
    y1="13.333333333333334"
    x2="13.333333333333334"
    y2="30"
    stroke="hsla(0,50%,50%,0.6)"
    stroke-width="1"
    transform="translate(-11.7395019531,-23.1819661458) scale(1,-1) translate(50,-110)"
    />
  
  <line
    x1="10"
    y1="33.333333333333336"
    x2="0"
    y2="43.333333333333336"
    stroke="hsla(0,50%,50%,0.6)"
    stroke-width="1"
    transform="translate(-11.7395019531,-23.1819661458) scale(1,-1) translate(50,-110)"
    />
  
  <line
    x1="30"
    y1="20"
    x2="13.333333333333334"
    y2="36.666666666666664"
    stroke="hsla(0,50%,50%,0.6)"
    stroke-width="1"
    transform="translate(-11.7395019531,-23.1819661458) scale(1,-1) translate(50,-110)"
    />
  
  <line
    x1="6.666666666666667"
    y1="43.333333333333336"
    x2="3.3333333333333335"
    y2="46.666666666666664"
    stroke="hsla(0,50%,50%,0.6)"
    stroke-width="1"
    transform="translate(-11.7395019531,-23.1819661458) scale(1,-1) translate(50,-110)"
    />
  
  <line
    x1="13.333333333333334"
    y1="26.666666666666668"
    x2="16.666666666666668"
    y2="26.666666666666668"
    stroke="hsla(0,50%,50%,0.6)"
    stroke-width="1"
    transform="translate(-11.7395019531,-23.1819661458) scale(1,-1) translate(50,-110)"
    />
  
  <line
    x1="13.333333333333334"
    y1="30"
    x2="33.333333333333336"
    y2="30"
    stroke="hsla(0,50%,50%,0.6)"
    stroke-width="1"
    transform="translate(-11.7395019531,-23.1819661458) scale(1,-1) translate(50,-110)"
    />
  
  <line
    x1="20"
    y1="43.333333333333336"
    x2="13.333333333333334"
    y2="50"
    stroke="hsla(0,50%,50%,0.6)"
    stroke-width="1"
    transform="translate(-11.7395019531,-23.1819661458) scale(1,-1) translate(50,-110)"
    />
  
  <line
    x1="10"
    y1="33.333333333333336"
    x2="36.666666666666664"
    y2="33.333333333333336"
    stroke="hsla(0,50%,50%,0.6)"
    stroke-width="1"
    transform="translate(-11.7395019531,-23.1819661458) scale(1,-1) translate(50,-110)"
    />
  
  <line
    x1="26.666666666666668"
    y1="40"
    x2="15"
    y2="51.666666666666664"
    stroke="hsla(0,50%,50%,0.6)"
    stroke-width="1"
    transform="translate(-11.7395019531,-23.1819661458) scale(1,-1) translate(50,-110)"
    />
  
  <line
    x1="36.666666666666664"
    y1="33.333333333333336"
    x2="13.333333333333334"
    y2="56.666666666666664"
    stroke="hsla(0,50%,50%,0.6)"
    stroke-width="1"
    transform="translate(-11.7395019531,-23.1819661458) scale(1,-1) translate(50,-110)"
    />
  
  <line
    x1="26.666666666666668"
    y1="50"
    x2="20"
    y2="56.666666666666664"
    stroke="hsla(0,50%,50%,0.6)"
    stroke-width="1"
    transform="translate(-11.7395019531,-23.1819661458) scale(1,-1) translate(50,-110)"
    />
  
  <line
    x1="6.666666666666667"
    y1="40"
    x2="40"
    y2="40"
    stroke="hsla(0,50%,50%,0.6)"
    stroke-width="1"
    transform="translate(-11.7395019531,-23.1819661458) scale(1,-1) translate(50,-110)"
    />
  
  <line
    x1="40"
    y1="43.333333333333336"
    x2="20"
    y2="63.333333333333336"
    stroke="hsla(0,50%,50%,0.6)"
    stroke-width="1"
    transform="translate(-11.7395019531,-23.1819661458) scale(1,-1) translate(50,-110)"
    />
  
  <line
    x1="0"
    y1="43.333333333333336"
    x2="40"
    y2="43.333333333333336"
    stroke="hsla(0,50%,50%,0.6)"
    stroke-width="1"
    transform="translate(-11.7395019531,-23.1819661458) scale(1,-1) translate(50,-110)"
    />
  
  <line
    x1="3.3333333333333335"
    y1="46.666666666666664"
    x2="36.666666666666664"
    y2="46.666666666666664"
    stroke="hsla(0,50%,50%,0.6)"
    stroke-width="1"
    transform="translate(-11.7395019531,-23.1819661458) scale(1,-1) translate(50,-110)"
    />
  
  <line
    x1="6.666666666666667"
    y1="50"
    x2="33.333333333333336"
    y2="50"
    stroke="hsla(0,50%,50%,0.6)"
    stroke-width="1"
    transform="translate(-11.7395019531,-23.1819661458) scale(1,-1) translate(50,-110)"
    />
  
</svg>
