<?xml version="1.0"?>
<!DOCTYPE svg PUBLIC "-//W3C//DTD SVG 1.1//EN"
  "http://www.w3.org/Graphics/SVG/1.1/DTD/svg11.dtd">
<svg
  width="240"
  height="240"
  viewBox="-50 -50 200 200" xmlns="http://www.w3.org/2000/svg" version="1.1">
  <rect
    x="0"
    y="0"
    width="100"
    height="100"
    fill="hsla(206,100%,53%,0.3)"
    stroke="hsl(206,100%,53%)"
    stroke-width="3"
    transform="" />
  
  <path
    d="M 
      2538.8238164958
      -28.6436079502
      L
    
      2563.8238164958
      -28.6436079502
      L
    
      2588.8238164958
      -3.6436079502
      L
    
      2613.8238164958
      -3.6436079502
      L
    
      2613.8238164958
      21.3563920497
      L
    
      2638.8238164958
      46.3563920497
      L
    
      2638.8238164958
      71.3563920497
      L
    
      2613.8238164958
      46.3563920497
      L
    
      2563.8238164958
      46.3563920497
      L
    
      2563.8238164958
      -3.6436079502
      z
    "
    fill="hsla(0,0%,50%,0.3)"
    stroke="hsla(0,0%,50%,1)"
    stroke-width="1"
    transform="translate(-2578.3257696208,-21.6493607997) scale(1,-1) translate(50,-110)"
    />
  
  
  <line
    x1="2563.8238164958516"
    y1="-28.643607950241037"
    x2="2638.8238164958516"
    y2="46.35639204975896"
    stroke="hsla(0,50%,50%,0.6)"
    stroke-width="1"
    transform="translate(-2578.3257696208,-21.6493607997) scale(1,-1) translate(50,-110)"
    />
  
  <line
    x1="2538.8238164958516"
    y1="-28.643607950241037"
    x2="2638.8238164958516"
    y2="71.35639204975897"
    stroke="hsla(0,50%,50%,0.6)"
    stroke-width="1"
    transform="translate(-2578.3257696208,-21.6493607997) scale(1,-1) translate(50,-110)"
    />
  
  <line
    x1="2538.8238164958516"
    y1="-28.643607950241037"
    x2="2563.8238164958516"
    y2="-28.643607950241037"
    stroke="hsla(0,50%,50%,0.6)"
    stroke-width="1"
    transform="translate(-2578.3257696208,-21.6493607997) scale(1,-1) translate(50,-110)"
    />
  
  <line
    x1="2563.8238164958516"
    y1="-3.6436079502410386"
    x2="2613.8238164958516"
    y2="-3.6436079502410386"
    stroke="hsla(0,50%,50%,0.6)"
    stroke-width="1"
    transform="translate(-2578.3257696208,-21.6493607997) scale(1,-1) translate(50,-110)"
    />
  
  <line
    x1="2563.8238164958516"
    y1="-28.643607950241037"
    x2="2563.8238164958516"
    y2="46.35639204975896"
    stroke="hsla(0,50%,50%,0.6)"
    stroke-width="1"
    transform="translate(-2578.3257696208,-21.6493607997) scale(1,-1) translate(50,-110)"
    />
  
  <line
    x1="2613.8238164958516"
    y1="-3.6436079502410386"
    x2="2613.8238164958516"
    y2="46.35639204975896"
    stroke="hsla(0,50%,50%,0.6)"
    stroke-width="1"
    transform="translate(-2578.3257696208,-21.6493607997) scale(1,-1) translate(50,-110)"
    />
  
  <line
    x1="2638.8238164958516"
    y1="46.35639204975896"
    x2="2638.8238164958516"
    y2="71.35639204975897"
    stroke="hsla(0,50%,50%,0.6)"
    stroke-width="1"
    transform="translate(-2578.3257696208,-21.6493607997) scale(1,-1) translate(50,-110)"
    />
  
  <line
    x1="2563.8238164958516"
    y1="46.35639204975896"
    x2="2638.8238164958516"
    y2="46.35639204975896"
    stroke="hsla(0,50%,50%,0.6)"
    stroke-width="1"
    transform="translate(-2578.3257696208,-21.6493607997) scale(1,-1) translate(50,-110)"
    />
  
</svg>
