<?xml version="1.0"?>
<!DOCTYPE svg PUBLIC "-//W3C//DTD SVG 1.1//EN"
  "http://www.w3.org/Graphics/SVG/1.1/DTD/svg11.dtd">
<svg
  width="240"
  height="240"
  viewBox="-50 -50 200 200" xmlns="http://www.w3.org/2000/svg" version="1.1">
  <rect
    x="0"
    y="0"
    width="100"
    height="100"
    fill="hsla(206,100%,53%,0.3)"
    stroke="hsl(206,100%,53%)"
    stroke-width="3"
    transform="" />
  
  <path
    d="M 
      -1.6402893128
      -14.6193697754
      L
    
      77.5025688975
      14.8309868187
      L
    
      78.1008917476
      17.5462155718
      L
    
      66.1147635848
      23.3349394223
      L
    
      58.9288172214
      28.7011136418
      L
    
      56.5495624112
      27.9544718865
      L
    
      0
      55.2651927648
      L
    
      -35.0373273787
      27.4517307632
      z
    "
    fill="hsla(0,0%,50%,0.3)"
    stroke="hsla(0,0%,50%,1)"
    stroke-width="1"
    transform="translate(2.8878304568,-33.8353218946) scale(1,-1) translate(50,-110)"
    />
  
  
  <line
    x1="75.19267875167978"
    y1="13.971438780802089"
    x2="78.10089174760442"
    y2="17.54621557182882"
    stroke="hsla(0,50%,50%,0.6)"
    stroke-width="1"
    transform="translate(2.8878304568,-33.8353218946) scale(1,-1) translate(50,-110)"
    />
  
  <line
    x1="37.64679726496345"
    y1="0"
    x2="57.45801923623901"
    y2="17.1139396908308"
    stroke="hsla(0,50%,50%,0.6)"
    stroke-width="1"
    transform="translate(2.8878304568,-33.8353218946) scale(1,-1) translate(50,-110)"
    />
  
  <line
    x1="77.50256889756412"
    y1="14.830986818714557"
    x2="78.10089174760442"
    y2="17.54621557182882"
    stroke="hsla(0,50%,50%,0.6)"
    stroke-width="1"
    transform="translate(2.8878304568,-33.8353218946) scale(1,-1) translate(50,-110)"
    />
  
  <line
    x1="58.69401481507524"
    y1="7.832015120264204"
    x2="63.65556157347184"
    y2="25.171372059952205"
    stroke="hsla(0,50%,50%,0.6)"
    stroke-width="1"
    transform="translate(2.8878304568,-33.8353218946) scale(1,-1) translate(50,-110)"
    />
  
  <line
    x1="-1.6402893128416327"
    y1="-14.61936977540597"
    x2="77.50256889756412"
    y2="14.830986818714557"
    stroke="hsla(0,50%,50%,0.6)"
    stroke-width="1"
    transform="translate(2.8878304568,-33.8353218946) scale(1,-1) translate(50,-110)"
    />
  
  <line
    x1="9.313984483996698"
    y1="-9.40319301334464"
    x2="63.65556157347184"
    y2="25.171372059952205"
    stroke="hsla(0,50%,50%,0.6)"
    stroke-width="1"
    transform="translate(2.8878304568,-33.8353218946) scale(1,-1) translate(50,-110)"
    />
  
  <line
    x1="-1.6402893128416327"
    y1="-14.61936977540597"
    x2="-35.03732737878671"
    y2="27.451730763228657"
    stroke="hsla(0,50%,50%,0.6)"
    stroke-width="1"
    transform="translate(2.8878304568,-33.8353218946) scale(1,-1) translate(50,-110)"
    />
  
  <line
    x1="50.65273848323713"
    y1="23.380554053527668"
    x2="58.18024613591882"
    y2="27.166930018034417"
    stroke="hsla(0,50%,50%,0.6)"
    stroke-width="1"
    transform="translate(2.8878304568,-33.8353218946) scale(1,-1) translate(50,-110)"
    />
  
  <line
    x1="58.5915008559184"
    y1="7.793867993393729"
    x2="58.928817221431004"
    y2="28.7011136418684"
    stroke="hsla(0,50%,50%,0.6)"
    stroke-width="1"
    transform="translate(2.8878304568,-33.8353218946) scale(1,-1) translate(50,-110)"
    />
  
  <line
    x1="-1.6402893128416327"
    y1="-14.61936977540597"
    x2="-2.637275728635375"
    y2="9.380856092820869"
    stroke="hsla(0,50%,50%,0.6)"
    stroke-width="1"
    transform="translate(2.8878304568,-33.8353218946) scale(1,-1) translate(50,-110)"
    />
  
  <line
    x1="0"
    y1="0"
    x2="37.64679726496345"
    y2="0"
    stroke="hsla(0,50%,50%,0.6)"
    stroke-width="1"
    transform="translate(2.8878304568,-33.8353218946) scale(1,-1) translate(50,-110)"
    />
  
  <line
    x1="0"
    y1="0"
    x2="0"
    y2="55.265192764864594"
    stroke="hsla(0,50%,50%,0.6)"
    stroke-width="1"
    transform="translate(2.8878304568,-33.8353218946) scale(1,-1) translate(50,-110)"
    />
  
  <line
    x1="9.313984483996698"
    y1="-9.40319301334464"
    x2="-2.637275728635375"
    y2="9.380856092820869"
    stroke="hsla(0,50%,50%,0.6)"
    stroke-width="1"
    transform="translate(2.8878304568,-33.8353218946) scale(1,-1) translate(50,-110)"
    />
  
  <line
    x1="-2.637275728635375"
    y1="9.380856092820869"
    x2="58.928817221431004"
    y2="28.7011136418684"
    stroke="hsla(0,50%,50%,0.6)"
    stroke-width="1"
    transform="translate(2.8878304568,-33.8353218946) scale(1,-1) translate(50,-110)"
    />
  
  <line
    x1="61.94707192788882"
    y1="9.042531067751218"
    x2="58.18024613591882"
    y2="27.166930018034417"
    stroke="hsla(0,50%,50%,0.6)"
    stroke-width="1"
    transform="translate(2.8878304568,-33.8353218946) scale(1,-1) translate(50,-110)"
    />
  
  <line
    x1="58.36559269003179"
    y1="8.047008306908106"
    x2="50.65273848323713"
    y2="23.380554053527668"
    stroke="hsla(0,50%,50%,0.6)"
    stroke-width="1"
    transform="translate(2.8878304568,-33.8353218946) scale(1,-1) translate(50,-110)"
    />
  
  <line
    x1="75.19267875167978"
    y1="13.971438780802089"
    x2="57.45801923623901"
    y2="17.1139396908308"
    stroke="hsla(0,50%,50%,0.6)"
    stroke-width="1"
    transform="translate(2.8878304568,-33.8353218946) scale(1,-1) translate(50,-110)"
    />
  
  <line
    x1="61.94707192788882"
    y1="9.042531067751218"
    x2="57.45801923623901"
    y2="17.1139396908308"
    stroke="hsla(0,50%,50%,0.6)"
    stroke-width="1"
    transform="translate(2.8878304568,-33.8353218946) scale(1,-1) translate(50,-110)"
    />
  
  <line
    x1="58.69401481507524"
    y1="7.832015120264204"
    x2="58.36559269003179"
    y2="8.047008306908106"
    stroke="hsla(0,50%,50%,0.6)"
    stroke-width="1"
    transform="translate(2.8878304568,-33.8353218946) scale(1,-1) translate(50,-110)"
    />
  
  <line
    x1="58.5915008559184"
    y1="7.793867993393729"
    x2="58.36559269003179"
    y2="8.047008306908106"
    stroke="hsla(0,50%,50%,0.6)"
    stroke-width="1"
    transform="translate(2.8878304568,-33.8353218946) scale(1,-1) translate(50,-110)"
    />
  
  <line
    x1="-35.03732737878671"
    y1="27.451730763228657"
    x2="0"
    y2="55.265192764864594"
    stroke="hsla(0,50%,50%,0.6)"
    stroke-width="1"
    transform="translate(2.8878304568,-33.8353218946) scale(1,-1) translate(50,-110)"
    />
  
  <line
    x1="78.10089174760442"
    y1="17.54621557182882"
    x2="0"
    y2="55.265192764864594"
    stroke="hsla(0,50%,50%,0.6)"
    stroke-width="1"
    transform="translate(2.8878304568,-33.8353218946) scale(1,-1) translate(50,-110)"
    />
  
  <line
    x1="77.50256889756412"
    y1="14.830986818714557"
    x2="58.928817221431004"
    y2="28.7011136418684"
    stroke="hsla(0,50%,50%,0.6)"
    stroke-width="1"
    transform="translate(2.8878304568,-33.8353218946) scale(1,-1) translate(50,-110)"
    />
  
</svg>
