<?xml version="1.0"?>
<!DOCTYPE svg PUBLIC "-//W3C//DTD SVG 1.1//EN"
  "http://www.w3.org/Graphics/SVG/1.1/DTD/svg11.dtd">
<svg
  width="240"
  height="240"
  viewBox="-500 -500 1000 1000" xmlns="http://www.w3.org/2000/svg" version="1.1">
  <rect
    x="0"
    y="0"
    width="100"
    height="100"
    fill="hsla(206,100%,53%,0.3)"
    stroke="hsl(206,100%,53%)"
    stroke-width="3"
    transform="" />
  
  <path
    d="M 
      -84.8430282627
      -88.4443748532
      L
    
      -64.6113568655
      -77.5751557280
      L
    
      -52.8301886792
      -84.9056603773
      L
    
      -40.0628930817
      -64.3867924528
      L
    
      3.2490409457
      -41.1179832459
      L
    
      -10.1110408955
      -16.2498871535
      L
    
      -0.0000000000
      -0.0000000000
      L
    
      -0.0000000000
      0.0000000000
      L
    
      -28.3018867924
      17.6100628930
      L
    
      -103.7735849056
      -53.2075471698
      z
    "
    fill="hsla(0,0%,50%,0.3)"
    stroke="hsla(0,0%,50%,1)"
    stroke-width="1"
    transform="translate(50.2622719799,35.4171559800)"
    />
  
  
  <line
    x1="-52.83018867924528"
    y1="-84.90566037735849"
    x2="-103.77358490566037"
    y2="-53.20754716981132"
    stroke="hsla(0,50%,50%,0.6)"
    stroke-width="1"
    transform="translate(50.2622719799,35.4171559800)"
    />
  
  <line
    x1="-84.84302826274173"
    y1="-88.44437485320599"
    x2="-103.77358490566037"
    y2="-53.20754716981132"
    stroke="hsla(0,50%,50%,0.6)"
    stroke-width="1"
    transform="translate(50.2622719799,35.4171559800)"
    />
  
  <line
    x1="-84.84302826274173"
    y1="-88.44437485320599"
    x2="3.2490409457449307"
    y2="-41.11798324590934"
    stroke="hsla(0,50%,50%,0.6)"
    stroke-width="1"
    transform="translate(50.2622719799,35.4171559800)"
    />
  
  <line
    x1="3.2490409457449307"
    y1="-41.11798324590934"
    x2="-28.30188679245283"
    y2="17.61006289308176"
    stroke="hsla(0,50%,50%,0.6)"
    stroke-width="1"
    transform="translate(50.2622719799,35.4171559800)"
    />
  
  <line
    x1="-52.83018867924528"
    y1="-84.90566037735849"
    x2="-8.12097693746602e-37"
    y2="-1.305157007807039e-36"
    stroke="hsla(0,50%,50%,0.6)"
    stroke-width="1"
    transform="translate(50.2622719799,35.4171559800)"
    />
  
  <line
    x1="-6.653741608428042e-38"
    y1="4.1401058896885594e-38"
    x2="-28.30188679245283"
    y2="17.61006289308176"
    stroke="hsla(0,50%,50%,0.6)"
    stroke-width="1"
    transform="translate(50.2622719799,35.4171559800)"
    />
  
  <line
    x1="-6.653741608428042e-38"
    y1="4.1401058896885594e-38"
    x2="-1.369402089493975e-37"
    y2="7.582085223948819e-38"
    stroke="hsla(0,50%,50%,0.6)"
    stroke-width="1"
    transform="translate(50.2622719799,35.4171559800)"
    />
  
  <line
    x1="-8.12097693746602e-37"
    y1="-1.305157007807039e-36"
    x2="-6.653741608428042e-38"
    y2="4.1401058896885594e-38"
    stroke="hsla(0,50%,50%,0.6)"
    stroke-width="1"
    transform="translate(50.2622719799,35.4171559800)"
    />
  
  <line
    x1="-8.12097693746602e-37"
    y1="-1.305157007807039e-36"
    x2="-1.369402089493975e-37"
    y2="7.582085223948819e-38"
    stroke="hsla(0,50%,50%,0.6)"
    stroke-width="1"
    transform="translate(50.2622719799,35.4171559800)"
    />
  
  <line
    x1="-103.77358490566037"
    y1="-53.20754716981132"
    x2="-28.30188679245283"
    y2="17.61006289308176"
    stroke="hsla(0,50%,50%,0.6)"
    stroke-width="1"
    transform="translate(50.2622719799,35.4171559800)"
    />
  
</svg>
