<?xml version="1.0"?>
<!DOCTYPE svg PUBLIC "-//W3C//DTD SVG 1.1//EN"
  "http://www.w3.org/Graphics/SVG/1.1/DTD/svg11.dtd">
<svg
  width="240"
  height="240"
  viewBox="-50 -50 200 200" xmlns="http://www.w3.org/2000/svg" version="1.1">
  <rect
    x="0"
    y="0"
    width="100"
    height="100"
    fill="hsla(206,100%,53%,0.3)"
    stroke="hsl(206,100%,53%)"
    stroke-width="3"
    transform="" />
  
  <path
    d="M 
      -72.4137931034
      -68.9655172413
      L
    
      -54.9137931034
      -52.2988505747
      L
    
      -7.1540992988
      -40.6209758191
      L
    
      -13.8590991585
      -13.1991420557
      L
    
      -0.0000000000
      -0.0000000000
      L
    
      -0.0000000000
      0.0000000000
      L
    
      -22.9885057471
      24.1379310344
      L
    
      -113.7931034482
      -25.5172413793
      L
    
      -104.2924595793
      -64.3725854914
      L
    
      -81.9831710938
      -58.9176703514
      z
    "
    fill="hsla(0,0%,50%,0.3)"
    stroke="hsla(0,0%,50%,1)"
    stroke-width="1"
    transform="translate(83.1105265863,47.7316544838) scale(1,-1) translate(50,-110)"
    />
  
  
  <line
    x1="-72.41379310344827"
    y1="-68.96551724137932"
    x2="-113.79310344827586"
    y2="-25.517241379310345"
    stroke="hsla(0,50%,50%,0.6)"
    stroke-width="1"
    transform="translate(83.1105265863,47.7316544838) scale(1,-1) translate(50,-110)"
    />
  
  <line
    x1="-104.29245957933897"
    y1="-64.37258549148662"
    x2="-7.154099298898268"
    y2="-40.62097581914437"
    stroke="hsla(0,50%,50%,0.6)"
    stroke-width="1"
    transform="translate(83.1105265863,47.7316544838) scale(1,-1) translate(50,-110)"
    />
  
  <line
    x1="-104.29245957933897"
    y1="-64.37258549148662"
    x2="-113.79310344827586"
    y2="-25.517241379310345"
    stroke="hsla(0,50%,50%,0.6)"
    stroke-width="1"
    transform="translate(83.1105265863,47.7316544838) scale(1,-1) translate(50,-110)"
    />
  
  <line
    x1="-7.154099298898268"
    y1="-40.62097581914437"
    x2="-22.988505747126435"
    y2="24.137931034482758"
    stroke="hsla(0,50%,50%,0.6)"
    stroke-width="1"
    transform="translate(83.1105265863,47.7316544838) scale(1,-1) translate(50,-110)"
    />
  
  <line
    x1="-72.41379310344827"
    y1="-68.96551724137932"
    x2="-2.0672486859288504e-36"
    y2="-1.9688082723131908e-36"
    stroke="hsla(0,50%,50%,0.6)"
    stroke-width="1"
    transform="translate(83.1105265863,47.7316544838) scale(1,-1) translate(50,-110)"
    />
  
  <line
    x1="-3.860408377084688e-38"
    y1="4.053428795938922e-38"
    x2="-22.988505747126435"
    y2="24.137931034482758"
    stroke="hsla(0,50%,50%,0.6)"
    stroke-width="1"
    transform="translate(83.1105265863,47.7316544838) scale(1,-1) translate(50,-110)"
    />
  
  <line
    x1="-3.860408377084688e-38"
    y1="4.053428795938922e-38"
    x2="-7.87674639307468e-38"
    y2="7.952411584170498e-38"
    stroke="hsla(0,50%,50%,0.6)"
    stroke-width="1"
    transform="translate(83.1105265863,47.7316544838) scale(1,-1) translate(50,-110)"
    />
  
  <line
    x1="-2.0672486859288504e-36"
    y1="-1.9688082723131908e-36"
    x2="-3.860408377084688e-38"
    y2="4.053428795938922e-38"
    stroke="hsla(0,50%,50%,0.6)"
    stroke-width="1"
    transform="translate(83.1105265863,47.7316544838) scale(1,-1) translate(50,-110)"
    />
  
  <line
    x1="-2.0672486859288504e-36"
    y1="-1.9688082723131908e-36"
    x2="-7.87674639307468e-38"
    y2="7.952411584170498e-38"
    stroke="hsla(0,50%,50%,0.6)"
    stroke-width="1"
    transform="translate(83.1105265863,47.7316544838) scale(1,-1) translate(50,-110)"
    />
  
  <line
    x1="-113.79310344827586"
    y1="-25.517241379310345"
    x2="-22.988505747126435"
    y2="24.137931034482758"
    stroke="hsla(0,50%,50%,0.6)"
    stroke-width="1"
    transform="translate(83.1105265863,47.7316544838) scale(1,-1) translate(50,-110)"
    />
  
</svg>
