<?xml version="1.0"?>
<!DOCTYPE svg PUBLIC "-//W3C//DTD SVG 1.1//EN"
  "http://www.w3.org/Graphics/SVG/1.1/DTD/svg11.dtd">
<svg
  width="240"
  height="240"
  viewBox="-500 -500 1000 1000" xmlns="http://www.w3.org/2000/svg" version="1.1">
  <rect
    x="0"
    y="0"
    width="100"
    height="100"
    fill="hsla(206,100%,53%,0.3)"
    stroke="hsl(206,100%,53%)"
    stroke-width="3"
    transform="" />
  
  <path
    d="M 
      -84.9056603773
      -52.8301886792
      L
    
      -64.3867924528
      -40.0628930817
      L
    
      -15.2509199091
      -38.3230251311
      L
    
      -16.2498871535
      -10.1110408955
      L
    
      -0.0000000000
      -0.0000000000
      L
    
      -0.0000000000
      0.0000000000
      L
    
      -17.6100628930
      28.3018867924
      L
    
      -116.6037735849
      -1.8867924528
      L
    
      -115.1882877945
      -41.8617396069
      L
    
      -92.2361650266
      -41.0490204929
      z
    "
    fill="hsla(0,0%,50%,0.3)"
    stroke="hsla(0,0%,50%,1)"
    stroke-width="1"
    transform="translate(58.3018867924,12.2641509433)"
    />
  
  
  <line
    x1="-84.90566037735849"
    y1="-52.83018867924528"
    x2="-116.60377358490567"
    y2="-1.8867924528301887"
    stroke="hsla(0,50%,50%,0.6)"
    stroke-width="1"
    transform="translate(58.3018867924,12.2641509433)"
    />
  
  <line
    x1="-115.18828779456666"
    y1="-41.861739606983484"
    x2="-15.250919909183434"
    y2="-38.32302513113599"
    stroke="hsla(0,50%,50%,0.6)"
    stroke-width="1"
    transform="translate(58.3018867924,12.2641509433)"
    />
  
  <line
    x1="-115.18828779456666"
    y1="-41.861739606983484"
    x2="-116.60377358490567"
    y2="-1.8867924528301887"
    stroke="hsla(0,50%,50%,0.6)"
    stroke-width="1"
    transform="translate(58.3018867924,12.2641509433)"
    />
  
  <line
    x1="-15.250919909183434"
    y1="-38.32302513113599"
    x2="-17.61006289308176"
    y2="28.30188679245283"
    stroke="hsla(0,50%,50%,0.6)"
    stroke-width="1"
    transform="translate(58.3018867924,12.2641509433)"
    />
  
  <line
    x1="-84.90566037735849"
    y1="-52.83018867924528"
    x2="-5.655680367163836e-36"
    y2="-3.519090006235276e-36"
    stroke="hsla(0,50%,50%,0.6)"
    stroke-width="1"
    transform="translate(58.3018867924,12.2641509433)"
    />
  
  <line
    x1="-2.700069058492539e-38"
    y1="4.339396701148723e-38"
    x2="-17.61006289308176"
    y2="28.30188679245283"
    stroke="hsla(0,50%,50%,0.6)"
    stroke-width="1"
    transform="translate(58.3018867924,12.2641509433)"
    />
  
  <line
    x1="-2.700069058492539e-38"
    y1="4.339396701148723e-38"
    x2="-5.466405521117735e-38"
    y2="8.63685167195639e-38"
    stroke="hsla(0,50%,50%,0.6)"
    stroke-width="1"
    transform="translate(58.3018867924,12.2641509433)"
    />
  
  <line
    x1="-5.655680367163836e-36"
    y1="-3.519090006235276e-36"
    x2="-2.700069058492539e-38"
    y2="4.339396701148723e-38"
    stroke="hsla(0,50%,50%,0.6)"
    stroke-width="1"
    transform="translate(58.3018867924,12.2641509433)"
    />
  
  <line
    x1="-5.655680367163836e-36"
    y1="-3.519090006235276e-36"
    x2="-5.466405521117735e-38"
    y2="8.63685167195639e-38"
    stroke="hsla(0,50%,50%,0.6)"
    stroke-width="1"
    transform="translate(58.3018867924,12.2641509433)"
    />
  
  <line
    x1="-116.60377358490567"
    y1="-1.8867924528301887"
    x2="-17.61006289308176"
    y2="28.30188679245283"
    stroke="hsla(0,50%,50%,0.6)"
    stroke-width="1"
    transform="translate(58.3018867924,12.2641509433)"
    />
  
</svg>
