<?xml version="1.0"?>
<!DOCTYPE svg PUBLIC "-//W3C//DTD SVG 1.1//EN"
  "http://www.w3.org/Graphics/SVG/1.1/DTD/svg11.dtd">
<svg
  width="240"
  height="240"
  viewBox="-50 -50 200 200" xmlns="http://www.w3.org/2000/svg" version="1.1">
  <rect
    x="0"
    y="0"
    width="100"
    height="100"
    fill="hsla(206,100%,53%,0.3)"
    stroke="hsl(206,100%,53%)"
    stroke-width="3"
    transform="" />
  
  <path
    d="M 
      51.7241379310
      -20.6896551724
      L
    
      120.6896551724
      51.7241379310
      L
    
      48.2758620689
      120.6896551724
      L
    
      -20.6896551724
      48.2758620689
      z
    "
    fill="hsla(0,0%,50%,0.3)"
    stroke="hsla(0,0%,50%,1)"
    stroke-width="1"
    transform="translate(-23.2758620689,-58.1896551724) scale(1,-1) translate(50,-110)"
    />
  
  
  <line
    x1="51.724137931034484"
    y1="-20.689655172413794"
    x2="120.6896551724138"
    y2="51.724137931034484"
    stroke="hsla(0,50%,50%,0.6)"
    stroke-width="1"
    transform="translate(-23.2758620689,-58.1896551724) scale(1,-1) translate(50,-110)"
    />
  
  <line
    x1="51.724137931034484"
    y1="-20.689655172413794"
    x2="-20.689655172413794"
    y2="48.275862068965516"
    stroke="hsla(0,50%,50%,0.6)"
    stroke-width="1"
    transform="translate(-23.2758620689,-58.1896551724) scale(1,-1) translate(50,-110)"
    />
  
  <line
    x1="-20.689655172413794"
    y1="48.275862068965516"
    x2="48.275862068965516"
    y2="120.6896551724138"
    stroke="hsla(0,50%,50%,0.6)"
    stroke-width="1"
    transform="translate(-23.2758620689,-58.1896551724) scale(1,-1) translate(50,-110)"
    />
  
  <line
    x1="120.6896551724138"
    y1="51.724137931034484"
    x2="48.275862068965516"
    y2="120.6896551724138"
    stroke="hsla(0,50%,50%,0.6)"
    stroke-width="1"
    transform="translate(-23.2758620689,-58.1896551724) scale(1,-1) translate(50,-110)"
    />
  
</svg>
