<?xml version="1.0"?>
<!DOCTYPE svg PUBLIC "-//W3C//DTD SVG 1.1//EN"
  "http://www.w3.org/Graphics/SVG/1.1/DTD/svg11.dtd">
<svg
  width="240"
  height="240"
  viewBox="-50 -50 200 200" xmlns="http://www.w3.org/2000/svg" version="1.1">
  <rect
    x="0"
    y="0"
    width="100"
    height="100"
    fill="hsla(206,100%,53%,0.3)"
    stroke="hsl(206,100%,53%)"
    stroke-width="3"
    transform="" />
  
  <path
    d="M 
      -26.1474624960
      -31.8991382061
      L
    
      -18.5498711814
      -4.7110783952
      L
    
      -0.0000000000
      -0.0000000000
      L
    
      -0.0000000000
      0.0000000000
      L
    
      -8.2051282051
      32.3076923076
      L
    
      -111.6923076923
      33.5384615384
      L
    
      -122.4577082668
      -4.9856367698
      L
    
      -100.3386087596
      -11.1667280088
      L
    
      -96.9230769230
      -24.6153846153
      L
    
      -73.5
      -18.6666666666
      z
    "
    fill="hsla(0,0%,50%,0.3)"
    stroke="hsla(0,0%,50%,1)"
    stroke-width="1"
    transform="translate(84.8825913158,15.7132425003) scale(1,-1) translate(50,-110)"
    />
  
  
  <line
    x1="-26.147462496010213"
    y1="-31.89913820619215"
    x2="-122.4577082668369"
    y2="-4.985636769869135"
    stroke="hsla(0,50%,50%,0.6)"
    stroke-width="1"
    transform="translate(84.8825913158,15.7132425003) scale(1,-1) translate(50,-110)"
    />
  
  <line
    x1="-96.92307692307692"
    y1="-24.615384615384617"
    x2="-111.6923076923077"
    y2="33.53846153846154"
    stroke="hsla(0,50%,50%,0.6)"
    stroke-width="1"
    transform="translate(84.8825913158,15.7132425003) scale(1,-1) translate(50,-110)"
    />
  
  <line
    x1="-96.92307692307692"
    y1="-24.615384615384617"
    x2="-6.678803446847055e-37"
    y2="-1.696204049992903e-37"
    stroke="hsla(0,50%,50%,0.6)"
    stroke-width="1"
    transform="translate(84.8825913158,15.7132425003) scale(1,-1) translate(50,-110)"
    />
  
  <line
    x1="-9.64508185290082e-38"
    y1="3.797750979579698e-37"
    x2="-8.205128205128204"
    y2="32.30769230769231"
    stroke="hsla(0,50%,50%,0.6)"
    stroke-width="1"
    transform="translate(84.8825913158,15.7132425003) scale(1,-1) translate(50,-110)"
    />
  
  <line
    x1="-6.678803446847055e-37"
    y1="-1.696204049992903e-37"
    x2="-4.721417483287552e-37"
    y2="4.910774370623337e-37"
    stroke="hsla(0,50%,50%,0.6)"
    stroke-width="1"
    transform="translate(84.8825913158,15.7132425003) scale(1,-1) translate(50,-110)"
    />
  
  <line
    x1="-6.678803446847055e-37"
    y1="-1.696204049992903e-37"
    x2="-9.64508185290082e-38"
    y2="3.797750979579698e-37"
    stroke="hsla(0,50%,50%,0.6)"
    stroke-width="1"
    transform="translate(84.8825913158,15.7132425003) scale(1,-1) translate(50,-110)"
    />
  
  <line
    x1="-9.64508185290082e-38"
    y1="3.797750979579698e-37"
    x2="-4.721417483287552e-37"
    y2="4.910774370623337e-37"
    stroke="hsla(0,50%,50%,0.6)"
    stroke-width="1"
    transform="translate(84.8825913158,15.7132425003) scale(1,-1) translate(50,-110)"
    />
  
  <line
    x1="-26.147462496010213"
    y1="-31.89913820619215"
    x2="-8.205128205128204"
    y2="32.30769230769231"
    stroke="hsla(0,50%,50%,0.6)"
    stroke-width="1"
    transform="translate(84.8825913158,15.7132425003) scale(1,-1) translate(50,-110)"
    />
  
  <line
    x1="-122.4577082668369"
    y1="-4.985636769869135"
    x2="-111.6923076923077"
    y2="33.53846153846154"
    stroke="hsla(0,50%,50%,0.6)"
    stroke-width="1"
    transform="translate(84.8825913158,15.7132425003) scale(1,-1) translate(50,-110)"
    />
  
  <line
    x1="-8.205128205128204"
    y1="32.30769230769231"
    x2="-111.6923076923077"
    y2="33.53846153846154"
    stroke="hsla(0,50%,50%,0.6)"
    stroke-width="1"
    transform="translate(84.8825913158,15.7132425003) scale(1,-1) translate(50,-110)"
    />
  
</svg>
