<?xml version="1.0"?>
<!DOCTYPE svg PUBLIC "-//W3C//DTD SVG 1.1//EN"
  "http://www.w3.org/Graphics/SVG/1.1/DTD/svg11.dtd">
<svg
  width="240"
  height="240"
  viewBox="-50 -50 200 200" xmlns="http://www.w3.org/2000/svg" version="1.1">
  <rect
    x="0"
    y="0"
    width="100"
    height="100"
    fill="hsla(206,100%,53%,0.3)"
    stroke="hsl(206,100%,53%)"
    stroke-width="3"
    transform="" />
  
  <path
    d="M 
      39.0576836894
      25.5179358279
      L
    
      41.3076398414
      27.0646671734
      L
    
      37.8706796079
      32.0642489327
      L
    
      37.0357737460
      32.0484605571
      L
    
      35.6692493460
      36.4621691978
      L
    
      37.7038527485
      55.9820445308
      L
    
      26.0010603314
      65.3247269880
      L
    
      34.6825594298
      80.4681984411
      L
    
      31.5477063943
      82.2653572950
      L
    
      36.8530025504
      85.8975423139
      L
    
      63.8183301977
      119.2793184074
      L
    
      61.0782169980
      125.6868105123
      L
    
      53.6163901045
      122.4958193990
      L
    
      52.8778659576
      121.4089348055
      L
    
      43.2364132910
      123.2856920663
      L
    
      17.9861323996
      97.5354747724
      L
    
      13.5193534052
      96.4479769101
      L
    
      12.5210746678
      96.6145007429
      L
    
      12.4498620709
      96.1875947552
      L
    
      8.8088776757
      95.3011477761
      L
    
      4.3167241384
      63.6221066848
      L
    
      34.3344965367
      27.1576618168
      z
    "
    fill="hsla(0,0%,50%,0.3)"
    stroke="hsla(0,0%,50%,1)"
    stroke-width="1"
    transform="translate(-21.2470767558,-53.6453943028) scale(1,-1) translate(50,-110)"
    />
  
  
  <line
    x1="34.686674378526824"
    y1="27.035397942642348"
    x2="37.87067960799932"
    y2="32.06424893274887"
    stroke="hsla(0,50%,50%,0.6)"
    stroke-width="1"
    transform="translate(-21.2470767558,-53.6453943028) scale(1,-1) translate(50,-110)"
    />
  
  <line
    x1="45.6501264278829"
    y1="96.7879577164454"
    x2="49.12926926926927"
    y2="115.89213213213213"
    stroke="hsla(0,50%,50%,0.6)"
    stroke-width="1"
    transform="translate(-21.2470767558,-53.6453943028) scale(1,-1) translate(50,-110)"
    />
  
  <line
    x1="30.411479938062392"
    y1="31.92319273573377"
    x2="32.37035899326958"
    y2="41.01371940943643"
    stroke="hsla(0,50%,50%,0.6)"
    stroke-width="1"
    transform="translate(-21.2470767558,-53.6453943028) scale(1,-1) translate(50,-110)"
    />
  
  <line
    x1="34.686674378526824"
    y1="27.035397942642348"
    x2="37.70385274856664"
    y2="55.982044530860314"
    stroke="hsla(0,50%,50%,0.6)"
    stroke-width="1"
    transform="translate(-21.2470767558,-53.6453943028) scale(1,-1) translate(50,-110)"
    />
  
  <line
    x1="53.17428885584836"
    y1="106.10250819202915"
    x2="53.61639010450158"
    y2="122.4958193990778"
    stroke="hsla(0,50%,50%,0.6)"
    stroke-width="1"
    transform="translate(-21.2470767558,-53.6453943028) scale(1,-1) translate(50,-110)"
    />
  
  <line
    x1="39.05768368945861"
    y1="25.517935827939013"
    x2="41.30763984146874"
    y2="27.064667173437318"
    stroke="hsla(0,50%,50%,0.6)"
    stroke-width="1"
    transform="translate(-21.2470767558,-53.6453943028) scale(1,-1) translate(50,-110)"
    />
  
  <line
    x1="36.85300255042893"
    y1="85.89754231393462"
    x2="49.12926926926927"
    y2="115.89213213213213"
    stroke="hsla(0,50%,50%,0.6)"
    stroke-width="1"
    transform="translate(-21.2470767558,-53.6453943028) scale(1,-1) translate(50,-110)"
    />
  
  <line
    x1="7.3657997018464085"
    y1="65.70960684639098"
    x2="12.521074667817734"
    y2="96.61450074296664"
    stroke="hsla(0,50%,50%,0.6)"
    stroke-width="1"
    transform="translate(-21.2470767558,-53.6453943028) scale(1,-1) translate(50,-110)"
    />
  
  <line
    x1="4.316724138476037"
    y1="63.622106684877885"
    x2="8.808877675786436"
    y2="95.30114777611892"
    stroke="hsla(0,50%,50%,0.6)"
    stroke-width="1"
    transform="translate(-21.2470767558,-53.6453943028) scale(1,-1) translate(50,-110)"
    />
  
  <line
    x1="16.523880376149243"
    y1="48.79331893481607"
    x2="34.68255942983412"
    y2="80.46819844113591"
    stroke="hsla(0,50%,50%,0.6)"
    stroke-width="1"
    transform="translate(-21.2470767558,-53.6453943028) scale(1,-1) translate(50,-110)"
    />
  
  <line
    x1="34.33449653678952"
    y1="27.15766181683218"
    x2="32.37035899326958"
    y2="41.01371940943643"
    stroke="hsla(0,50%,50%,0.6)"
    stroke-width="1"
    transform="translate(-21.2470767558,-53.6453943028) scale(1,-1) translate(50,-110)"
    />
  
  <line
    x1="39.05768368945861"
    y1="25.517935827939013"
    x2="26.973495334462452"
    y2="64.54840360135296"
    stroke="hsla(0,50%,50%,0.6)"
    stroke-width="1"
    transform="translate(-21.2470767558,-53.6453943028) scale(1,-1) translate(50,-110)"
    />
  
  <line
    x1="49.12926926926927"
    y1="115.89213213213213"
    x2="53.61639010450158"
    y2="122.4958193990778"
    stroke="hsla(0,50%,50%,0.6)"
    stroke-width="1"
    transform="translate(-21.2470767558,-53.6453943028) scale(1,-1) translate(50,-110)"
    />
  
  <line
    x1="48.24476885644769"
    y1="100"
    x2="43.23641329104506"
    y2="123.28569206638566"
    stroke="hsla(0,50%,50%,0.6)"
    stroke-width="1"
    transform="translate(-21.2470767558,-53.6453943028) scale(1,-1) translate(50,-110)"
    />
  
  <line
    x1="36.85300255042893"
    y1="85.89754231393462"
    x2="63.8183301977654"
    y2="119.27931840747463"
    stroke="hsla(0,50%,50%,0.6)"
    stroke-width="1"
    transform="translate(-21.2470767558,-53.6453943028) scale(1,-1) translate(50,-110)"
    />
  
  <line
    x1="32.37035899326958"
    y1="41.01371940943643"
    x2="7.627794308527336"
    y2="86.97204944659381"
    stroke="hsla(0,50%,50%,0.6)"
    stroke-width="1"
    transform="translate(-21.2470767558,-53.6453943028) scale(1,-1) translate(50,-110)"
    />
  
  <line
    x1="41.592682719950446"
    y1="91.76503794548083"
    x2="40.44270304041831"
    y2="94.66825382040349"
    stroke="hsla(0,50%,50%,0.6)"
    stroke-width="1"
    transform="translate(-21.2470767558,-53.6453943028) scale(1,-1) translate(50,-110)"
    />
  
  <line
    x1="34.33449653678952"
    y1="27.15766181683218"
    x2="4.316724138476037"
    y2="63.622106684877885"
    stroke="hsla(0,50%,50%,0.6)"
    stroke-width="1"
    transform="translate(-21.2470767558,-53.6453943028) scale(1,-1) translate(50,-110)"
    />
  
  <line
    x1="41.30763984146874"
    y1="27.064667173437318"
    x2="37.87067960799932"
    y2="32.06424893274887"
    stroke="hsla(0,50%,50%,0.6)"
    stroke-width="1"
    transform="translate(-21.2470767558,-53.6453943028) scale(1,-1) translate(50,-110)"
    />
  
  <line
    x1="30.411479938062392"
    y1="31.92319273573377"
    x2="37.87067960799932"
    y2="32.06424893274887"
    stroke="hsla(0,50%,50%,0.6)"
    stroke-width="1"
    transform="translate(-21.2470767558,-53.6453943028) scale(1,-1) translate(50,-110)"
    />
  
  <line
    x1="39.05768368945861"
    y1="25.517935827939013"
    x2="34.33449653678952"
    y2="27.15766181683218"
    stroke="hsla(0,50%,50%,0.6)"
    stroke-width="1"
    transform="translate(-21.2470767558,-53.6453943028) scale(1,-1) translate(50,-110)"
    />
  
  <line
    x1="16.523880376149243"
    y1="48.79331893481607"
    x2="37.70385274856664"
    y2="55.982044530860314"
    stroke="hsla(0,50%,50%,0.6)"
    stroke-width="1"
    transform="translate(-21.2470767558,-53.6453943028) scale(1,-1) translate(50,-110)"
    />
  
  <line
    x1="7.627794308527336"
    y1="86.97204944659381"
    x2="43.23641329104506"
    y2="123.28569206638566"
    stroke="hsla(0,50%,50%,0.6)"
    stroke-width="1"
    transform="translate(-21.2470767558,-53.6453943028) scale(1,-1) translate(50,-110)"
    />
  
  <line
    x1="4.316724138476037"
    y1="63.622106684877885"
    x2="36.85300255042893"
    y2="85.89754231393462"
    stroke="hsla(0,50%,50%,0.6)"
    stroke-width="1"
    transform="translate(-21.2470767558,-53.6453943028) scale(1,-1) translate(50,-110)"
    />
  
  <line
    x1="63.8183301977654"
    y1="119.27931840747463"
    x2="61.07821699807949"
    y2="125.68681051233386"
    stroke="hsla(0,50%,50%,0.6)"
    stroke-width="1"
    transform="translate(-21.2470767558,-53.6453943028) scale(1,-1) translate(50,-110)"
    />
  
  <line
    x1="37.70385274856664"
    y1="55.982044530860314"
    x2="6.738744833272475"
    y2="80.70239845964026"
    stroke="hsla(0,50%,50%,0.6)"
    stroke-width="1"
    transform="translate(-21.2470767558,-53.6453943028) scale(1,-1) translate(50,-110)"
    />
  
  <line
    x1="40.44270304041831"
    y1="94.66825382040349"
    x2="45.68679482096482"
    y2="96.98930598207185"
    stroke="hsla(0,50%,50%,0.6)"
    stroke-width="1"
    transform="translate(-21.2470767558,-53.6453943028) scale(1,-1) translate(50,-110)"
    />
  
  <line
    x1="7.3657997018464085"
    y1="65.70960684639098"
    x2="4.691516369683152"
    y2="66.26517273203639"
    stroke="hsla(0,50%,50%,0.6)"
    stroke-width="1"
    transform="translate(-21.2470767558,-53.6453943028) scale(1,-1) translate(50,-110)"
    />
  
  <line
    x1="26.973495334462452"
    y1="64.54840360135296"
    x2="4.691516369683152"
    y2="66.26517273203639"
    stroke="hsla(0,50%,50%,0.6)"
    stroke-width="1"
    transform="translate(-21.2470767558,-53.6453943028) scale(1,-1) translate(50,-110)"
    />
  
  <line
    x1="6.738744833272475"
    y1="80.70239845964026"
    x2="45.6501264278829"
    y2="96.7879577164454"
    stroke="hsla(0,50%,50%,0.6)"
    stroke-width="1"
    transform="translate(-21.2470767558,-53.6453943028) scale(1,-1) translate(50,-110)"
    />
  
  <line
    x1="45.68679482096482"
    y1="96.98930598207185"
    x2="42.62489451476793"
    y2="100"
    stroke="hsla(0,50%,50%,0.6)"
    stroke-width="1"
    transform="translate(-21.2470767558,-53.6453943028) scale(1,-1) translate(50,-110)"
    />
  
  <line
    x1="34.68255942983412"
    y1="80.46819844113591"
    x2="8.808877675786436"
    y2="95.30114777611892"
    stroke="hsla(0,50%,50%,0.6)"
    stroke-width="1"
    transform="translate(-21.2470767558,-53.6453943028) scale(1,-1) translate(50,-110)"
    />
  
  <line
    x1="53.61639010450158"
    y1="122.4958193990778"
    x2="61.07821699807949"
    y2="125.68681051233386"
    stroke="hsla(0,50%,50%,0.6)"
    stroke-width="1"
    transform="translate(-21.2470767558,-53.6453943028) scale(1,-1) translate(50,-110)"
    />
  
  <line
    x1="8.808877675786436"
    y1="95.30114777611892"
    x2="53.17428885584836"
    y2="106.10250819202915"
    stroke="hsla(0,50%,50%,0.6)"
    stroke-width="1"
    transform="translate(-21.2470767558,-53.6453943028) scale(1,-1) translate(50,-110)"
    />
  
  <line
    x1="41.592682719950446"
    y1="91.76503794548083"
    x2="12.521074667817734"
    y2="96.61450074296664"
    stroke="hsla(0,50%,50%,0.6)"
    stroke-width="1"
    transform="translate(-21.2470767558,-53.6453943028) scale(1,-1) translate(50,-110)"
    />
  
  <line
    x1="42.62489451476793"
    y1="100"
    x2="48.24476885644769"
    y2="100"
    stroke="hsla(0,50%,50%,0.6)"
    stroke-width="1"
    transform="translate(-21.2470767558,-53.6453943028) scale(1,-1) translate(50,-110)"
    />
  
  <line
    x1="63.8183301977654"
    y1="119.27931840747463"
    x2="43.23641329104506"
    y2="123.28569206638566"
    stroke="hsla(0,50%,50%,0.6)"
    stroke-width="1"
    transform="translate(-21.2470767558,-53.6453943028) scale(1,-1) translate(50,-110)"
    />
  
</svg>
