<?xml version="1.0"?>
<!DOCTYPE svg PUBLIC "-//W3C//DTD SVG 1.1//EN"
  "http://www.w3.org/Graphics/SVG/1.1/DTD/svg11.dtd">
<svg
  width="240"
  height="240"
  viewBox="-500 -500 1000 1000" xmlns="http://www.w3.org/2000/svg" version="1.1">
  <rect
    x="0"
    y="0"
    width="100"
    height="100"
    fill="hsla(206,100%,53%,0.3)"
    stroke="hsl(206,100%,53%)"
    stroke-width="3"
    transform="" />
  
  <path
    d="M 
      240.9373001717
      103.6884558175
      L
    
      260.4431519272
      119.3256469749
      L
    
      295.5861948401
      115.4569863767
      L
    
      315.0920465956
      131.0941775340
      L
    
      279.9490036827
      134.9628381322
      L
    
      248.6746213680
      173.9745416433
      L
    
      209.6629178570
      142.7001593286
      L
    
      174.5198749441
      146.5688199267
      L
    
      190.1570661015
      127.0629681712
      L
    
      225.3001090143
      123.1943075730
      z
    "
    fill="hsla(0,0%,50%,0.3)"
    stroke="hsla(0,0%,50%,1)"
    stroke-width="1"
    transform="translate(-244.8059607699,-138.8314987304)"
    />
  
  
  <line
    x1="295.5861948401403"
    y1="115.45698637673046"
    x2="315.09204659566694"
    y2="131.09417753407766"
    stroke="hsla(0,50%,50%,0.6)"
    stroke-width="1"
    transform="translate(-244.8059607699,-138.8314987304)"
    />
  
  <line
    x1="240.93730017173976"
    y1="103.6884558175627"
    x2="279.9490036827931"
    y2="134.9628381322571"
    stroke="hsla(0,50%,50%,0.6)"
    stroke-width="1"
    transform="translate(-244.8059607699,-138.8314987304)"
    />
  
  <line
    x1="190.15706610151872"
    y1="127.06296817126882"
    x2="248.67462136809868"
    y2="173.97454164331043"
    stroke="hsla(0,50%,50%,0.6)"
    stroke-width="1"
    transform="translate(-244.8059607699,-138.8314987304)"
    />
  
  <line
    x1="190.15706610151872"
    y1="127.06296817126882"
    x2="174.5198749441715"
    y2="146.56881992679547"
    stroke="hsla(0,50%,50%,0.6)"
    stroke-width="1"
    transform="translate(-244.8059607699,-138.8314987304)"
    />
  
  <line
    x1="295.5861948401403"
    y1="115.45698637673046"
    x2="190.15706610151872"
    y2="127.06296817126882"
    stroke="hsla(0,50%,50%,0.6)"
    stroke-width="1"
    transform="translate(-244.8059607699,-138.8314987304)"
    />
  
  <line
    x1="240.93730017173976"
    y1="103.6884558175627"
    x2="209.66291785704536"
    y2="142.70015932861602"
    stroke="hsla(0,50%,50%,0.6)"
    stroke-width="1"
    transform="translate(-244.8059607699,-138.8314987304)"
    />
  
  <line
    x1="315.09204659566694"
    y1="131.09417753407766"
    x2="174.5198749441715"
    y2="146.56881992679547"
    stroke="hsla(0,50%,50%,0.6)"
    stroke-width="1"
    transform="translate(-244.8059607699,-138.8314987304)"
    />
  
  <line
    x1="295.5861948401403"
    y1="115.45698637673046"
    x2="248.67462136809868"
    y2="173.97454164331043"
    stroke="hsla(0,50%,50%,0.6)"
    stroke-width="1"
    transform="translate(-244.8059607699,-138.8314987304)"
    />
  
</svg>
