<?xml version="1.0"?>
<!DOCTYPE svg PUBLIC "-//W3C//DTD SVG 1.1//EN"
  "http://www.w3.org/Graphics/SVG/1.1/DTD/svg11.dtd">
<svg
  width="240"
  height="240"
  viewBox="-50 -50 200 200" xmlns="http://www.w3.org/2000/svg" version="1.1">
  <rect
    x="0"
    y="0"
    width="100"
    height="100"
    fill="hsla(206,100%,53%,0.3)"
    stroke="hsl(206,100%,53%)"
    stroke-width="3"
    transform="" />
  
  <path
    d="M 
      43.9684073777
      -27.0967668844
      L
    
      71.2574108816
      -8.6843919516
      L
    
      104.8769579046
      -10.4152238393
      L
    
      106.1791216634
      14.8779060309
      L
    
      126.8641231474
      28.8344436068
      L
    
      108.3131382075
      56.3288811725
      L
    
      46.4989803485
      39.1508060286
      L
    
      5.2807270971
      0
      L
    
      5.0092195106
      -5.2737427226
      L
    
      30.1161508294
      -6.5663204394
      z
    "
    fill="hsla(0,0%,50%,0.3)"
    stroke="hsla(0,0%,50%,1)"
    stroke-width="1"
    transform="translate(-26.7079453755,-0.0618092912) scale(1,-1) translate(50,-110)"
    />
  
  
  <line
    x1="43.968407377713156"
    y1="-27.096766884463033"
    x2="126.8641231474527"
    y2="28.83444360684097"
    stroke="hsla(0,50%,50%,0.6)"
    stroke-width="1"
    transform="translate(-26.7079453755,-0.0618092912) scale(1,-1) translate(50,-110)"
    />
  
  <line
    x1="33.41624937405002"
    y1="0"
    x2="46.498980348536556"
    y2="39.15080602865673"
    stroke="hsla(0,50%,50%,0.6)"
    stroke-width="1"
    transform="translate(-26.7079453755,-0.0618092912) scale(1,-1) translate(50,-110)"
    />
  
  <line
    x1="104.87695790461461"
    y1="-10.415223839366714"
    x2="108.31313820754663"
    y2="56.328881172540775"
    stroke="hsla(0,50%,50%,0.6)"
    stroke-width="1"
    transform="translate(-26.7079453755,-0.0618092912) scale(1,-1) translate(50,-110)"
    />
  
  <line
    x1="104.87695790461461"
    y1="-10.415223839366714"
    x2="5.009219510642113"
    y2="-5.273742722697104"
    stroke="hsla(0,50%,50%,0.6)"
    stroke-width="1"
    transform="translate(-26.7079453755,-0.0618092912) scale(1,-1) translate(50,-110)"
    />
  
  <line
    x1="5.2807270971657445"
    y1="0"
    x2="46.498980348536556"
    y2="39.15080602865673"
    stroke="hsla(0,50%,50%,0.6)"
    stroke-width="1"
    transform="translate(-26.7079453755,-0.0618092912) scale(1,-1) translate(50,-110)"
    />
  
  <line
    x1="5.009219510642113"
    y1="-5.273742722697104"
    x2="5.2807270971657445"
    y2="0"
    stroke="hsla(0,50%,50%,0.6)"
    stroke-width="1"
    transform="translate(-26.7079453755,-0.0618092912) scale(1,-1) translate(50,-110)"
    />
  
  <line
    x1="5.2807270971657445"
    y1="0"
    x2="33.41624937405002"
    y2="0"
    stroke="hsla(0,50%,50%,0.6)"
    stroke-width="1"
    transform="translate(-26.7079453755,-0.0618092912) scale(1,-1) translate(50,-110)"
    />
  
  <line
    x1="43.968407377713156"
    y1="-27.096766884463033"
    x2="17.71617291182676"
    y2="11.811702063174472"
    stroke="hsla(0,50%,50%,0.6)"
    stroke-width="1"
    transform="translate(-26.7079453755,-0.0618092912) scale(1,-1) translate(50,-110)"
    />
  
  <line
    x1="33.41624937405002"
    y1="0"
    x2="17.71617291182676"
    y2="11.811702063174472"
    stroke="hsla(0,50%,50%,0.6)"
    stroke-width="1"
    transform="translate(-26.7079453755,-0.0618092912) scale(1,-1) translate(50,-110)"
    />
  
  <line
    x1="46.498980348536556"
    y1="39.15080602865673"
    x2="108.31313820754663"
    y2="56.328881172540775"
    stroke="hsla(0,50%,50%,0.6)"
    stroke-width="1"
    transform="translate(-26.7079453755,-0.0618092912) scale(1,-1) translate(50,-110)"
    />
  
  <line
    x1="126.8641231474527"
    y1="28.83444360684097"
    x2="108.31313820754663"
    y2="56.328881172540775"
    stroke="hsla(0,50%,50%,0.6)"
    stroke-width="1"
    transform="translate(-26.7079453755,-0.0618092912) scale(1,-1) translate(50,-110)"
    />
  
</svg>
