<?xml version="1.0"?>
<!DOCTYPE svg PUBLIC "-//W3C//DTD SVG 1.1//EN"
  "http://www.w3.org/Graphics/SVG/1.1/DTD/svg11.dtd">
<svg
  width="240"
  height="240"
  viewBox="-50 -50 200 200" xmlns="http://www.w3.org/2000/svg" version="1.1">
  <rect
    x="0"
    y="0"
    width="100"
    height="100"
    fill="hsla(206,100%,53%,0.3)"
    stroke="hsl(206,100%,53%)"
    stroke-width="3"
    transform="" />
  
  <path
    d="M 
      28.3333333333
      0
      L
    
      31.6666666666
      0
      L
    
      31.6666666666
      16.6666666666
      L
    
      35
      16.6666666666
      L
    
      38.3333333333
      20
      L
    
      45
      20
      L
    
      45
      26.6666666666
      L
    
      35
      36.6666666666
      L
    
      35
      40
      L
    
      31.6666666666
      40
      L
    
      28.3333333333
      43.3333333333
      L
    
      21.6666666666
      43.3333333333
      L
    
      21.6666666666
      36.6666666666
      L
    
      18.3333333333
      33.3333333333
      L
    
      5
      33.3333333333
      L
    
      0
      28.3333333333
      z
    "
    fill="hsla(0,0%,50%,0.3)"
    stroke="hsla(0,0%,50%,1)"
    stroke-width="1"
    transform="translate(-6.5514119466,-31.5736897786) scale(1,-1) translate(50,-110)"
    />
  
  
  <line
    x1="26.666666666666668"
    y1="1.6666666666666667"
    x2="28.333333333333332"
    y2="3.3333333333333335"
    stroke="hsla(0,50%,50%,0.6)"
    stroke-width="1"
    transform="translate(-6.5514119466,-31.5736897786) scale(1,-1) translate(50,-110)"
    />
  
  <line
    x1="35"
    y1="16.666666666666668"
    x2="45"
    y2="26.666666666666668"
    stroke="hsla(0,50%,50%,0.6)"
    stroke-width="1"
    transform="translate(-6.5514119466,-31.5736897786) scale(1,-1) translate(50,-110)"
    />
  
  <line
    x1="16.666666666666668"
    y1="11.666666666666666"
    x2="38.333333333333336"
    y2="33.333333333333336"
    stroke="hsla(0,50%,50%,0.6)"
    stroke-width="1"
    transform="translate(-6.5514119466,-31.5736897786) scale(1,-1) translate(50,-110)"
    />
  
  <line
    x1="28.333333333333332"
    y1="0"
    x2="31.666666666666668"
    y2="0"
    stroke="hsla(0,50%,50%,0.6)"
    stroke-width="1"
    transform="translate(-6.5514119466,-31.5736897786) scale(1,-1) translate(50,-110)"
    />
  
  <line
    x1="1.6666666666666667"
    y1="26.666666666666668"
    x2="1.6666666666666667"
    y2="30"
    stroke="hsla(0,50%,50%,0.6)"
    stroke-width="1"
    transform="translate(-6.5514119466,-31.5736897786) scale(1,-1) translate(50,-110)"
    />
  
  <line
    x1="5"
    y1="23.333333333333332"
    x2="5"
    y2="26.666666666666668"
    stroke="hsla(0,50%,50%,0.6)"
    stroke-width="1"
    transform="translate(-6.5514119466,-31.5736897786) scale(1,-1) translate(50,-110)"
    />
  
  <line
    x1="15"
    y1="13.333333333333334"
    x2="15"
    y2="33.333333333333336"
    stroke="hsla(0,50%,50%,0.6)"
    stroke-width="1"
    transform="translate(-6.5514119466,-31.5736897786) scale(1,-1) translate(50,-110)"
    />
  
  <line
    x1="18.333333333333332"
    y1="16.666666666666668"
    x2="18.333333333333332"
    y2="33.333333333333336"
    stroke="hsla(0,50%,50%,0.6)"
    stroke-width="1"
    transform="translate(-6.5514119466,-31.5736897786) scale(1,-1) translate(50,-110)"
    />
  
  <line
    x1="21.666666666666668"
    y1="16.666666666666668"
    x2="21.666666666666668"
    y2="43.333333333333336"
    stroke="hsla(0,50%,50%,0.6)"
    stroke-width="1"
    transform="translate(-6.5514119466,-31.5736897786) scale(1,-1) translate(50,-110)"
    />
  
  <line
    x1="25"
    y1="20"
    x2="25"
    y2="33.333333333333336"
    stroke="hsla(0,50%,50%,0.6)"
    stroke-width="1"
    transform="translate(-6.5514119466,-31.5736897786) scale(1,-1) translate(50,-110)"
    />
  
  <line
    x1="28.333333333333332"
    y1="0"
    x2="28.333333333333332"
    y2="43.333333333333336"
    stroke="hsla(0,50%,50%,0.6)"
    stroke-width="1"
    transform="translate(-6.5514119466,-31.5736897786) scale(1,-1) translate(50,-110)"
    />
  
  <line
    x1="31.666666666666668"
    y1="0"
    x2="31.666666666666668"
    y2="40"
    stroke="hsla(0,50%,50%,0.6)"
    stroke-width="1"
    transform="translate(-6.5514119466,-31.5736897786) scale(1,-1) translate(50,-110)"
    />
  
  <line
    x1="35"
    y1="16.666666666666668"
    x2="35"
    y2="40"
    stroke="hsla(0,50%,50%,0.6)"
    stroke-width="1"
    transform="translate(-6.5514119466,-31.5736897786) scale(1,-1) translate(50,-110)"
    />
  
  <line
    x1="38.333333333333336"
    y1="26.666666666666668"
    x2="38.333333333333336"
    y2="33.333333333333336"
    stroke="hsla(0,50%,50%,0.6)"
    stroke-width="1"
    transform="translate(-6.5514119466,-31.5736897786) scale(1,-1) translate(50,-110)"
    />
  
  <line
    x1="45"
    y1="20"
    x2="45"
    y2="26.666666666666668"
    stroke="hsla(0,50%,50%,0.6)"
    stroke-width="1"
    transform="translate(-6.5514119466,-31.5736897786) scale(1,-1) translate(50,-110)"
    />
  
  <line
    x1="18.333333333333332"
    y1="20"
    x2="31.666666666666668"
    y2="33.333333333333336"
    stroke="hsla(0,50%,50%,0.6)"
    stroke-width="1"
    transform="translate(-6.5514119466,-31.5736897786) scale(1,-1) translate(50,-110)"
    />
  
  <line
    x1="28.333333333333332"
    y1="3.3333333333333335"
    x2="31.666666666666668"
    y2="3.3333333333333335"
    stroke="hsla(0,50%,50%,0.6)"
    stroke-width="1"
    transform="translate(-6.5514119466,-31.5736897786) scale(1,-1) translate(50,-110)"
    />
  
  <line
    x1="10"
    y1="18.333333333333332"
    x2="31.666666666666668"
    y2="40"
    stroke="hsla(0,50%,50%,0.6)"
    stroke-width="1"
    transform="translate(-6.5514119466,-31.5736897786) scale(1,-1) translate(50,-110)"
    />
  
  <line
    x1="11.666666666666666"
    y1="26.666666666666668"
    x2="28.333333333333332"
    y2="43.333333333333336"
    stroke="hsla(0,50%,50%,0.6)"
    stroke-width="1"
    transform="translate(-6.5514119466,-31.5736897786) scale(1,-1) translate(50,-110)"
    />
  
  <line
    x1="15"
    y1="13.333333333333334"
    x2="18.333333333333332"
    y2="13.333333333333334"
    stroke="hsla(0,50%,50%,0.6)"
    stroke-width="1"
    transform="translate(-6.5514119466,-31.5736897786) scale(1,-1) translate(50,-110)"
    />
  
  <line
    x1="0"
    y1="28.333333333333332"
    x2="5"
    y2="33.333333333333336"
    stroke="hsla(0,50%,50%,0.6)"
    stroke-width="1"
    transform="translate(-6.5514119466,-31.5736897786) scale(1,-1) translate(50,-110)"
    />
  
  <line
    x1="28.333333333333332"
    y1="0"
    x2="0"
    y2="28.333333333333332"
    stroke="hsla(0,50%,50%,0.6)"
    stroke-width="1"
    transform="translate(-6.5514119466,-31.5736897786) scale(1,-1) translate(50,-110)"
    />
  
  <line
    x1="28.333333333333332"
    y1="3.3333333333333335"
    x2="1.6666666666666667"
    y2="30"
    stroke="hsla(0,50%,50%,0.6)"
    stroke-width="1"
    transform="translate(-6.5514119466,-31.5736897786) scale(1,-1) translate(50,-110)"
    />
  
  <line
    x1="15"
    y1="16.666666666666668"
    x2="35"
    y2="16.666666666666668"
    stroke="hsla(0,50%,50%,0.6)"
    stroke-width="1"
    transform="translate(-6.5514119466,-31.5736897786) scale(1,-1) translate(50,-110)"
    />
  
  <line
    x1="11.666666666666666"
    y1="26.666666666666668"
    x2="5"
    y2="33.333333333333336"
    stroke="hsla(0,50%,50%,0.6)"
    stroke-width="1"
    transform="translate(-6.5514119466,-31.5736897786) scale(1,-1) translate(50,-110)"
    />
  
  <line
    x1="15"
    y1="20"
    x2="45"
    y2="20"
    stroke="hsla(0,50%,50%,0.6)"
    stroke-width="1"
    transform="translate(-6.5514119466,-31.5736897786) scale(1,-1) translate(50,-110)"
    />
  
  <line
    x1="5"
    y1="23.333333333333332"
    x2="28.333333333333332"
    y2="23.333333333333332"
    stroke="hsla(0,50%,50%,0.6)"
    stroke-width="1"
    transform="translate(-6.5514119466,-31.5736897786) scale(1,-1) translate(50,-110)"
    />
  
  <line
    x1="28.333333333333332"
    y1="23.333333333333332"
    x2="18.333333333333332"
    y2="33.333333333333336"
    stroke="hsla(0,50%,50%,0.6)"
    stroke-width="1"
    transform="translate(-6.5514119466,-31.5736897786) scale(1,-1) translate(50,-110)"
    />
  
  <line
    x1="1.6666666666666667"
    y1="26.666666666666668"
    x2="5"
    y2="26.666666666666668"
    stroke="hsla(0,50%,50%,0.6)"
    stroke-width="1"
    transform="translate(-6.5514119466,-31.5736897786) scale(1,-1) translate(50,-110)"
    />
  
  <line
    x1="11.666666666666666"
    y1="26.666666666666668"
    x2="45"
    y2="26.666666666666668"
    stroke="hsla(0,50%,50%,0.6)"
    stroke-width="1"
    transform="translate(-6.5514119466,-31.5736897786) scale(1,-1) translate(50,-110)"
    />
  
  <line
    x1="38.333333333333336"
    y1="20"
    x2="21.666666666666668"
    y2="36.666666666666664"
    stroke="hsla(0,50%,50%,0.6)"
    stroke-width="1"
    transform="translate(-6.5514119466,-31.5736897786) scale(1,-1) translate(50,-110)"
    />
  
  <line
    x1="1.6666666666666667"
    y1="30"
    x2="35"
    y2="30"
    stroke="hsla(0,50%,50%,0.6)"
    stroke-width="1"
    transform="translate(-6.5514119466,-31.5736897786) scale(1,-1) translate(50,-110)"
    />
  
  <line
    x1="35"
    y1="30"
    x2="31.666666666666668"
    y2="33.333333333333336"
    stroke="hsla(0,50%,50%,0.6)"
    stroke-width="1"
    transform="translate(-6.5514119466,-31.5736897786) scale(1,-1) translate(50,-110)"
    />
  
  <line
    x1="5"
    y1="33.333333333333336"
    x2="38.333333333333336"
    y2="33.333333333333336"
    stroke="hsla(0,50%,50%,0.6)"
    stroke-width="1"
    transform="translate(-6.5514119466,-31.5736897786) scale(1,-1) translate(50,-110)"
    />
  
  <line
    x1="45"
    y1="26.666666666666668"
    x2="28.333333333333332"
    y2="43.333333333333336"
    stroke="hsla(0,50%,50%,0.6)"
    stroke-width="1"
    transform="translate(-6.5514119466,-31.5736897786) scale(1,-1) translate(50,-110)"
    />
  
  <line
    x1="21.666666666666668"
    y1="36.666666666666664"
    x2="35"
    y2="36.666666666666664"
    stroke="hsla(0,50%,50%,0.6)"
    stroke-width="1"
    transform="translate(-6.5514119466,-31.5736897786) scale(1,-1) translate(50,-110)"
    />
  
  <line
    x1="31.666666666666668"
    y1="40"
    x2="35"
    y2="40"
    stroke="hsla(0,50%,50%,0.6)"
    stroke-width="1"
    transform="translate(-6.5514119466,-31.5736897786) scale(1,-1) translate(50,-110)"
    />
  
  <line
    x1="21.666666666666668"
    y1="43.333333333333336"
    x2="28.333333333333332"
    y2="43.333333333333336"
    stroke="hsla(0,50%,50%,0.6)"
    stroke-width="1"
    transform="translate(-6.5514119466,-31.5736897786) scale(1,-1) translate(50,-110)"
    />
  
</svg>
