<?xml version="1.0"?>
<!DOCTYPE svg PUBLIC "-//W3C//DTD SVG 1.1//EN"
  "http://www.w3.org/Graphics/SVG/1.1/DTD/svg11.dtd">
<svg
  width="240"
  height="240"
  viewBox="-500 -500 1000 1000" xmlns="http://www.w3.org/2000/svg" version="1.1">
  <rect
    x="0"
    y="0"
    width="100"
    height="100"
    fill="hsla(206,100%,53%,0.3)"
    stroke="hsl(206,100%,53%)"
    stroke-width="3"
    transform="" />
  
  <path
    d="M 
      -161.1211664152
      26.8778280542
      L
    
      -103.6742081447
      61.1583710407
      L
    
      -96.1397097831
      84.9959744109
      L
    
      -99.5981606462
      88.3480967354
      L
    
      -129.7752808988
      100
      L
    
      -144.5299620837
      100
      L
    
      -150.6559525667
      86.6715556249
      L
    
      -148.0209075908
      86.7580803464
      L
    
      -166.4184116086
      28.5521610235
      z
    "
    fill="hsla(0,0%,50%,0.3)"
    stroke="hsla(0,0%,50%,1)"
    stroke-width="1"
    transform="translate(131.2790606958,-63.4389140271)"
    />
  
  
  <line
    x1="-129.52533936651585"
    y1="45.73212669683258"
    x2="-151.34941488531751"
    y2="76.22736776408176"
    stroke="hsla(0,50%,50%,0.6)"
    stroke-width="1"
    transform="translate(131.2790606958,-63.4389140271)"
    />
  
  <line
    x1="-129.52533936651585"
    y1="45.73212669683258"
    x2="-135.01719457013576"
    y2="56.961085972850675"
    stroke="hsla(0,50%,50%,0.6)"
    stroke-width="1"
    transform="translate(131.2790606958,-63.4389140271)"
    />
  
  <line
    x1="-142.30615418174497"
    y1="95.16161508817656"
    x2="-144.52996208374546"
    y2="100"
    stroke="hsla(0,50%,50%,0.6)"
    stroke-width="1"
    transform="translate(131.2790606958,-63.4389140271)"
    />
  
  <line
    x1="-142.30615418174497"
    y1="95.16161508817656"
    x2="-143.83545235090511"
    y2="100"
    stroke="hsla(0,50%,50%,0.6)"
    stroke-width="1"
    transform="translate(131.2790606958,-63.4389140271)"
    />
  
  <line
    x1="-112.4373034741928"
    y1="55.929135669913336"
    x2="-120.04524886877829"
    y2="64.28355957767722"
    stroke="hsla(0,50%,50%,0.6)"
    stroke-width="1"
    transform="translate(131.2790606958,-63.4389140271)"
    />
  
  <line
    x1="-112.4373034741928"
    y1="55.929135669913336"
    x2="-127.60169993156558"
    y2="99.1607431406045"
    stroke="hsla(0,50%,50%,0.6)"
    stroke-width="1"
    transform="translate(131.2790606958,-63.4389140271)"
    />
  
  <line
    x1="-161.12116641528405"
    y1="26.877828054298643"
    x2="-166.4184116086753"
    y2="28.55216102356062"
    stroke="hsla(0,50%,50%,0.6)"
    stroke-width="1"
    transform="translate(131.2790606958,-63.4389140271)"
    />
  
  <line
    x1="-96.1397097831175"
    y1="84.99597441098456"
    x2="-99.59816064626632"
    y2="88.34809673543472"
    stroke="hsla(0,50%,50%,0.6)"
    stroke-width="1"
    transform="translate(131.2790606958,-63.4389140271)"
    />
  
  <line
    x1="-161.12116641528405"
    y1="26.877828054298643"
    x2="-152.78733031674207"
    y2="70.53393665158372"
    stroke="hsla(0,50%,50%,0.6)"
    stroke-width="1"
    transform="translate(131.2790606958,-63.4389140271)"
    />
  
  <line
    x1="-103.67420814479638"
    y1="61.158371040723985"
    x2="-96.1397097831175"
    y2="84.99597441098456"
    stroke="hsla(0,50%,50%,0.6)"
    stroke-width="1"
    transform="translate(131.2790606958,-63.4389140271)"
    />
  
  <line
    x1="-103.67420814479638"
    y1="61.158371040723985"
    x2="-152.78733031674207"
    y2="70.53393665158372"
    stroke="hsla(0,50%,50%,0.6)"
    stroke-width="1"
    transform="translate(131.2790606958,-63.4389140271)"
    />
  
  <line
    x1="-99.59816064626632"
    y1="88.34809673543472"
    x2="-129.77528089887642"
    y2="100"
    stroke="hsla(0,50%,50%,0.6)"
    stroke-width="1"
    transform="translate(131.2790606958,-63.4389140271)"
    />
  
  <line
    x1="-166.4184116086753"
    y1="28.55216102356062"
    x2="-143.83545235090511"
    y2="100"
    stroke="hsla(0,50%,50%,0.6)"
    stroke-width="1"
    transform="translate(131.2790606958,-63.4389140271)"
    />
  
  <line
    x1="-150.65595256670306"
    y1="86.67155562490248"
    x2="-144.52996208374546"
    y2="100"
    stroke="hsla(0,50%,50%,0.6)"
    stroke-width="1"
    transform="translate(131.2790606958,-63.4389140271)"
    />
  
  <line
    x1="-161.12116641528405"
    y1="26.877828054298643"
    x2="-103.67420814479638"
    y2="61.158371040723985"
    stroke="hsla(0,50%,50%,0.6)"
    stroke-width="1"
    transform="translate(131.2790606958,-63.4389140271)"
    />
  
  <line
    x1="-150.65595256670306"
    y1="86.67155562490248"
    x2="-99.59816064626632"
    y2="88.34809673543472"
    stroke="hsla(0,50%,50%,0.6)"
    stroke-width="1"
    transform="translate(131.2790606958,-63.4389140271)"
    />
  
  <line
    x1="-151.34941488531751"
    y1="76.22736776408176"
    x2="-96.1397097831175"
    y2="84.99597441098456"
    stroke="hsla(0,50%,50%,0.6)"
    stroke-width="1"
    transform="translate(131.2790606958,-63.4389140271)"
    />
  
  <line
    x1="-135.01719457013576"
    y1="56.961085972850675"
    x2="-120.04524886877829"
    y2="64.28355957767722"
    stroke="hsla(0,50%,50%,0.6)"
    stroke-width="1"
    transform="translate(131.2790606958,-63.4389140271)"
    />
  
  <line
    x1="-144.52996208374546"
    y1="100"
    x2="-129.77528089887642"
    y2="100"
    stroke="hsla(0,50%,50%,0.6)"
    stroke-width="1"
    transform="translate(131.2790606958,-63.4389140271)"
    />
  
  <line
    x1="-150.65595256670306"
    y1="86.67155562490248"
    x2="-127.60169993156558"
    y2="99.1607431406045"
    stroke="hsla(0,50%,50%,0.6)"
    stroke-width="1"
    transform="translate(131.2790606958,-63.4389140271)"
    />
  
  <line
    x1="-142.30615418174497"
    y1="95.16161508817656"
    x2="-129.77528089887642"
    y2="100"
    stroke="hsla(0,50%,50%,0.6)"
    stroke-width="1"
    transform="translate(131.2790606958,-63.4389140271)"
    />
  
</svg>
