<?xml version="1.0"?>
<!DOCTYPE svg PUBLIC "-//W3C//DTD SVG 1.1//EN"
  "http://www.w3.org/Graphics/SVG/1.1/DTD/svg11.dtd">
<svg
  width="240"
  height="240"
  viewBox="-500 -500 1000 1000" xmlns="http://www.w3.org/2000/svg" version="1.1">
  <rect
    x="0"
    y="0"
    width="100"
    height="100"
    fill="hsla(206,100%,53%,0.3)"
    stroke="hsl(206,100%,53%)"
    stroke-width="3"
    transform="" />
  
  <path
    d="M 
      50
      0
      L
    
      64.2857142857
      14.2857142857
      L
    
      85.7142857142
      14.2857142857
      L
    
      85.7142857142
      35.7142857142
      L
    
      100
      50
      L
    
      85.7142857142
      64.2857142857
      L
    
      85.7142857142
      85.7142857142
      L
    
      64.2857142857
      85.7142857142
      L
    
      50
      100
      L
    
      35.7142857142
      85.7142857142
      L
    
      14.2857142857
      85.7142857142
      L
    
      14.2857142857
      64.2857142857
      L
    
      0
      50
      L
    
      14.2857142857
      35.7142857142
      L
    
      14.2857142857
      14.2857142857
      L
    
      35.7142857142
      14.2857142857
      z
    "
    fill="hsla(0,0%,50%,0.3)"
    stroke="hsla(0,0%,50%,1)"
    stroke-width="1"
    transform="translate(-50,-50)"
    />
  
  
  <line
    x1="50"
    y1="0"
    x2="100"
    y2="50"
    stroke="hsla(0,50%,50%,0.6)"
    stroke-width="1"
    transform="translate(-50,-50)"
    />
  
  <line
    x1="50"
    y1="14.285714285714286"
    x2="85.71428571428571"
    y2="50"
    stroke="hsla(0,50%,50%,0.6)"
    stroke-width="1"
    transform="translate(-50,-50)"
    />
  
  <line
    x1="14.285714285714286"
    y1="14.285714285714286"
    x2="14.285714285714286"
    y2="85.71428571428571"
    stroke="hsla(0,50%,50%,0.6)"
    stroke-width="1"
    transform="translate(-50,-50)"
    />
  
  <line
    x1="50"
    y1="0"
    x2="50"
    y2="14.285714285714286"
    stroke="hsla(0,50%,50%,0.6)"
    stroke-width="1"
    transform="translate(-50,-50)"
    />
  
  <line
    x1="50"
    y1="85.71428571428571"
    x2="50"
    y2="100"
    stroke="hsla(0,50%,50%,0.6)"
    stroke-width="1"
    transform="translate(-50,-50)"
    />
  
  <line
    x1="85.71428571428571"
    y1="14.285714285714286"
    x2="85.71428571428571"
    y2="85.71428571428571"
    stroke="hsla(0,50%,50%,0.6)"
    stroke-width="1"
    transform="translate(-50,-50)"
    />
  
  <line
    x1="14.285714285714286"
    y1="14.285714285714286"
    x2="85.71428571428571"
    y2="14.285714285714286"
    stroke="hsla(0,50%,50%,0.6)"
    stroke-width="1"
    transform="translate(-50,-50)"
    />
  
  <line
    x1="14.285714285714286"
    y1="50"
    x2="50"
    y2="85.71428571428571"
    stroke="hsla(0,50%,50%,0.6)"
    stroke-width="1"
    transform="translate(-50,-50)"
    />
  
  <line
    x1="0"
    y1="50"
    x2="50"
    y2="100"
    stroke="hsla(0,50%,50%,0.6)"
    stroke-width="1"
    transform="translate(-50,-50)"
    />
  
  <line
    x1="50"
    y1="0"
    x2="0"
    y2="50"
    stroke="hsla(0,50%,50%,0.6)"
    stroke-width="1"
    transform="translate(-50,-50)"
    />
  
  <line
    x1="50"
    y1="14.285714285714286"
    x2="14.285714285714286"
    y2="50"
    stroke="hsla(0,50%,50%,0.6)"
    stroke-width="1"
    transform="translate(-50,-50)"
    />
  
  <line
    x1="0"
    y1="50"
    x2="14.285714285714286"
    y2="50"
    stroke="hsla(0,50%,50%,0.6)"
    stroke-width="1"
    transform="translate(-50,-50)"
    />
  
  <line
    x1="85.71428571428571"
    y1="50"
    x2="100"
    y2="50"
    stroke="hsla(0,50%,50%,0.6)"
    stroke-width="1"
    transform="translate(-50,-50)"
    />
  
  <line
    x1="85.71428571428571"
    y1="50"
    x2="50"
    y2="85.71428571428571"
    stroke="hsla(0,50%,50%,0.6)"
    stroke-width="1"
    transform="translate(-50,-50)"
    />
  
  <line
    x1="100"
    y1="50"
    x2="50"
    y2="100"
    stroke="hsla(0,50%,50%,0.6)"
    stroke-width="1"
    transform="translate(-50,-50)"
    />
  
  <line
    x1="14.285714285714286"
    y1="85.71428571428571"
    x2="85.71428571428571"
    y2="85.71428571428571"
    stroke="hsla(0,50%,50%,0.6)"
    stroke-width="1"
    transform="translate(-50,-50)"
    />
  
</svg>
