<?xml version="1.0"?>
<!DOCTYPE svg PUBLIC "-//W3C//DTD SVG 1.1//EN"
  "http://www.w3.org/Graphics/SVG/1.1/DTD/svg11.dtd">
<svg
  width="240"
  height="240"
  viewBox="-50 -50 200 200" xmlns="http://www.w3.org/2000/svg" version="1.1">
  <rect
    x="0"
    y="0"
    width="100"
    height="100"
    fill="hsla(206,100%,53%,0.3)"
    stroke="hsl(206,100%,53%)"
    stroke-width="3"
    transform="" />
  
  <path
    d="M 
      0
      17.4325765532
      L
    
      79.0015254271
      53.7193145666
      L
    
      75.1662309820
      100
      L
    
      0
      100
      L
    
      0
      44.1874748594
      L
    
      -13.2242153402
      28.7910471332
      z
    "
    fill="hsla(0,0%,50%,0.3)"
    stroke="hsla(0,0%,50%,1)"
    stroke-width="1"
    transform="translate(-0.5545794358,-46.4158888789) scale(1,-1) translate(50,-110)"
    />
  
  
  <line
    x1="0"
    y1="17.43257655320252"
    x2="0"
    y2="100"
    stroke="hsla(0,50%,50%,0.6)"
    stroke-width="1"
    transform="translate(-0.5545794358,-46.4158888789) scale(1,-1) translate(50,-110)"
    />
  
  <line
    x1="79.00152542713737"
    y1="53.71931456663565"
    x2="75.1662309820678"
    y2="100"
    stroke="hsla(0,50%,50%,0.6)"
    stroke-width="1"
    transform="translate(-0.5545794358,-46.4158888789) scale(1,-1) translate(50,-110)"
    />
  
  <line
    x1="0"
    y1="17.43257655320252"
    x2="-13.224215340251655"
    y2="28.791047133255052"
    stroke="hsla(0,50%,50%,0.6)"
    stroke-width="1"
    transform="translate(-0.5545794358,-46.4158888789) scale(1,-1) translate(50,-110)"
    />
  
  <line
    x1="59.22833486792754"
    y1="44.63715341047561"
    x2="50.67122668306233"
    y2="95.91210958712038"
    stroke="hsla(0,50%,50%,0.6)"
    stroke-width="1"
    transform="translate(-0.5545794358,-46.4158888789) scale(1,-1) translate(50,-110)"
    />
  
  <line
    x1="0"
    y1="17.43257655320252"
    x2="79.00152542713737"
    y2="53.71931456663565"
    stroke="hsla(0,50%,50%,0.6)"
    stroke-width="1"
    transform="translate(-0.5545794358,-46.4158888789) scale(1,-1) translate(50,-110)"
    />
  
  <line
    x1="-13.224215340251655"
    y1="28.791047133255052"
    x2="41.15107512146841"
    y2="92.09803421277716"
    stroke="hsla(0,50%,50%,0.6)"
    stroke-width="1"
    transform="translate(-0.5545794358,-46.4158888789) scale(1,-1) translate(50,-110)"
    />
  
  <line
    x1="28.450633183105857"
    y1="81.4917466752686"
    x2="41.15107512146841"
    y2="92.09803421277716"
    stroke="hsla(0,50%,50%,0.6)"
    stroke-width="1"
    transform="translate(-0.5545794358,-46.4158888789) scale(1,-1) translate(50,-110)"
    />
  
  <line
    x1="59.22833486792754"
    y1="44.63715341047561"
    x2="28.450633183105857"
    y2="81.4917466752686"
    stroke="hsla(0,50%,50%,0.6)"
    stroke-width="1"
    transform="translate(-0.5545794358,-46.4158888789) scale(1,-1) translate(50,-110)"
    />
  
  <line
    x1="79.00152542713737"
    y1="53.71931456663565"
    x2="41.15107512146841"
    y2="92.09803421277716"
    stroke="hsla(0,50%,50%,0.6)"
    stroke-width="1"
    transform="translate(-0.5545794358,-46.4158888789) scale(1,-1) translate(50,-110)"
    />
  
  <line
    x1="50.67122668306233"
    y1="95.91210958712038"
    x2="75.1662309820678"
    y2="100"
    stroke="hsla(0,50%,50%,0.6)"
    stroke-width="1"
    transform="translate(-0.5545794358,-46.4158888789) scale(1,-1) translate(50,-110)"
    />
  
  <line
    x1="0"
    y1="100"
    x2="75.1662309820678"
    y2="100"
    stroke="hsla(0,50%,50%,0.6)"
    stroke-width="1"
    transform="translate(-0.5545794358,-46.4158888789) scale(1,-1) translate(50,-110)"
    />
  
</svg>
