<?xml version="1.0"?>
<!DOCTYPE svg PUBLIC "-//W3C//DTD SVG 1.1//EN"
  "http://www.w3.org/Graphics/SVG/1.1/DTD/svg11.dtd">
<svg
  width="240"
  height="240"
  viewBox="-50 -50 200 200" xmlns="http://www.w3.org/2000/svg" version="1.1">
  <rect
    x="0"
    y="0"
    width="100"
    height="100"
    fill="hsla(206,100%,53%,0.3)"
    stroke="hsl(206,100%,53%)"
    stroke-width="3"
    transform="" />
  
  <path
    d="M 
      21.6843783040
      84.9712892548
      L
    
      103.1805258547
      109.6238967077
      L
    
      145.7149882525
      137.2881371965
      L
    
      145.6730300535
      145.6185137087
      L
    
      127.3916104092
      145.5264343841
      L
    
      62.1072548555
      174.8786601228
      L
    
      25.3072775474
      93.0292349944
      L
    
      24.9607295312
      92.8645798833
      L
    
      20.4789719047
      85.7283154831
      z
    "
    fill="hsla(0,0%,50%,0.3)"
    stroke="hsla(0,0%,50%,1)"
    stroke-width="1"
    transform="translate(-31.4080622545,-97.2945647126) scale(1,-1) translate(50,-110)"
    />
  
  
  <line
    x1="101.01793823581458"
    y1="108.96971334754275"
    x2="112.9740844108244"
    y2="126.30705223378216"
    stroke="hsla(0,50%,50%,0.6)"
    stroke-width="1"
    transform="translate(-31.4080622545,-97.2945647126) scale(1,-1) translate(50,-110)"
    />
  
  <line
    x1="76.29182098194201"
    y1="101.49005595493706"
    x2="103.91405974317725"
    y2="145.40818333745864"
    stroke="hsla(0,50%,50%,0.6)"
    stroke-width="1"
    transform="translate(-31.4080622545,-97.2945647126) scale(1,-1) translate(50,-110)"
    />
  
  <line
    x1="145.71498825253585"
    y1="137.28813719657862"
    x2="145.67303005357792"
    y2="145.6185137087219"
    stroke="hsla(0,50%,50%,0.6)"
    stroke-width="1"
    transform="translate(-31.4080622545,-97.2945647126) scale(1,-1) translate(50,-110)"
    />
  
  <line
    x1="21.684378304088764"
    y1="84.97128925481043"
    x2="62.107254855584934"
    y2="174.8786601228463"
    stroke="hsla(0,50%,50%,0.6)"
    stroke-width="1"
    transform="translate(-31.4080622545,-97.2945647126) scale(1,-1) translate(50,-110)"
    />
  
  <line
    x1="56.72102587887624"
    y1="95.56988495643988"
    x2="67.00690594230835"
    y2="109.23159274996691"
    stroke="hsla(0,50%,50%,0.6)"
    stroke-width="1"
    transform="translate(-31.4080622545,-97.2945647126) scale(1,-1) translate(50,-110)"
    />
  
  <line
    x1="20.47897190474087"
    y1="85.7283154831422"
    x2="24.960729531230264"
    y2="92.8645798833883"
    stroke="hsla(0,50%,50%,0.6)"
    stroke-width="1"
    transform="translate(-31.4080622545,-97.2945647126) scale(1,-1) translate(50,-110)"
    />
  
  <line
    x1="103.18052585472681"
    y1="109.62389670778794"
    x2="145.71498825253585"
    y2="137.28813719657862"
    stroke="hsla(0,50%,50%,0.6)"
    stroke-width="1"
    transform="translate(-31.4080622545,-97.2945647126) scale(1,-1) translate(50,-110)"
    />
  
  <line
    x1="41.161555360193645"
    y1="90.86314076788891"
    x2="49.55880647222152"
    y2="98.0868750209791"
    stroke="hsla(0,50%,50%,0.6)"
    stroke-width="1"
    transform="translate(-31.4080622545,-97.2945647126) scale(1,-1) translate(50,-110)"
    />
  
  <line
    x1="86.64576628023016"
    y1="104.62212730677241"
    x2="101.4476037562044"
    y2="113.24462061859433"
    stroke="hsla(0,50%,50%,0.6)"
    stroke-width="1"
    transform="translate(-31.4080622545,-97.2945647126) scale(1,-1) translate(50,-110)"
    />
  
  <line
    x1="90.61320593273052"
    y1="105.8222789125363"
    x2="99.4786853187014"
    y2="109.58375013973581"
    stroke="hsla(0,50%,50%,0.6)"
    stroke-width="1"
    transform="translate(-31.4080622545,-97.2945647126) scale(1,-1) translate(50,-110)"
    />
  
  <line
    x1="24.960729531230264"
    y1="92.8645798833883"
    x2="59.23072828933352"
    y2="109.14725987763157"
    stroke="hsla(0,50%,50%,0.6)"
    stroke-width="1"
    transform="translate(-31.4080622545,-97.2945647126) scale(1,-1) translate(50,-110)"
    />
  
  <line
    x1="112.9740844108244"
    y1="126.30705223378216"
    x2="103.91405974317725"
    y2="145.40818333745864"
    stroke="hsla(0,50%,50%,0.6)"
    stroke-width="1"
    transform="translate(-31.4080622545,-97.2945647126) scale(1,-1) translate(50,-110)"
    />
  
  <line
    x1="21.684378304088764"
    y1="84.97128925481043"
    x2="20.47897190474087"
    y2="85.7283154831422"
    stroke="hsla(0,50%,50%,0.6)"
    stroke-width="1"
    transform="translate(-31.4080622545,-97.2945647126) scale(1,-1) translate(50,-110)"
    />
  
  <line
    x1="21.684378304088764"
    y1="84.97128925481043"
    x2="103.18052585472681"
    y2="109.62389670778794"
    stroke="hsla(0,50%,50%,0.6)"
    stroke-width="1"
    transform="translate(-31.4080622545,-97.2945647126) scale(1,-1) translate(50,-110)"
    />
  
  <line
    x1="101.4476037562044"
    y1="113.24462061859433"
    x2="92.90652600516509"
    y2="127.90669574797828"
    stroke="hsla(0,50%,50%,0.6)"
    stroke-width="1"
    transform="translate(-31.4080622545,-97.2945647126) scale(1,-1) translate(50,-110)"
    />
  
  <line
    x1="71.3600087039103"
    y1="103.70350693382414"
    x2="67.00690594230835"
    y2="109.23159274996691"
    stroke="hsla(0,50%,50%,0.6)"
    stroke-width="1"
    transform="translate(-31.4080622545,-97.2945647126) scale(1,-1) translate(50,-110)"
    />
  
  <line
    x1="49.55880647222152"
    y1="98.0868750209791"
    x2="90.61320593273052"
    y2="105.8222789125363"
    stroke="hsla(0,50%,50%,0.6)"
    stroke-width="1"
    transform="translate(-31.4080622545,-97.2945647126) scale(1,-1) translate(50,-110)"
    />
  
  <line
    x1="41.161555360193645"
    y1="90.86314076788891"
    x2="24.960729531230264"
    y2="92.8645798833883"
    stroke="hsla(0,50%,50%,0.6)"
    stroke-width="1"
    transform="translate(-31.4080622545,-97.2945647126) scale(1,-1) translate(50,-110)"
    />
  
  <line
    x1="71.3600087039103"
    y1="103.70350693382414"
    x2="86.64576628023016"
    y2="104.62212730677241"
    stroke="hsla(0,50%,50%,0.6)"
    stroke-width="1"
    transform="translate(-31.4080622545,-97.2945647126) scale(1,-1) translate(50,-110)"
    />
  
  <line
    x1="56.72102587887624"
    y1="95.56988495643988"
    x2="49.55880647222152"
    y2="98.0868750209791"
    stroke="hsla(0,50%,50%,0.6)"
    stroke-width="1"
    transform="translate(-31.4080622545,-97.2945647126) scale(1,-1) translate(50,-110)"
    />
  
  <line
    x1="59.23072828933352"
    y1="109.14725987763157"
    x2="103.18052585472681"
    y2="109.62389670778794"
    stroke="hsla(0,50%,50%,0.6)"
    stroke-width="1"
    transform="translate(-31.4080622545,-97.2945647126) scale(1,-1) translate(50,-110)"
    />
  
  <line
    x1="76.29182098194201"
    y1="101.49005595493706"
    x2="59.23072828933352"
    y2="109.14725987763157"
    stroke="hsla(0,50%,50%,0.6)"
    stroke-width="1"
    transform="translate(-31.4080622545,-97.2945647126) scale(1,-1) translate(50,-110)"
    />
  
  <line
    x1="101.01793823581458"
    y1="108.96971334754275"
    x2="99.4786853187014"
    y2="109.58375013973581"
    stroke="hsla(0,50%,50%,0.6)"
    stroke-width="1"
    transform="translate(-31.4080622545,-97.2945647126) scale(1,-1) translate(50,-110)"
    />
  
  <line
    x1="112.9740844108244"
    y1="126.30705223378216"
    x2="92.90652600516509"
    y2="127.90669574797828"
    stroke="hsla(0,50%,50%,0.6)"
    stroke-width="1"
    transform="translate(-31.4080622545,-97.2945647126) scale(1,-1) translate(50,-110)"
    />
  
  <line
    x1="103.91405974317725"
    y1="145.40818333745864"
    x2="145.67303005357792"
    y2="145.6185137087219"
    stroke="hsla(0,50%,50%,0.6)"
    stroke-width="1"
    transform="translate(-31.4080622545,-97.2945647126) scale(1,-1) translate(50,-110)"
    />
  
  <line
    x1="145.71498825253585"
    y1="137.28813719657862"
    x2="62.107254855584934"
    y2="174.8786601228463"
    stroke="hsla(0,50%,50%,0.6)"
    stroke-width="1"
    transform="translate(-31.4080622545,-97.2945647126) scale(1,-1) translate(50,-110)"
    />
  
</svg>
