<?xml version="1.0"?>
<!DOCTYPE svg PUBLIC "-//W3C//DTD SVG 1.1//EN"
  "http://www.w3.org/Graphics/SVG/1.1/DTD/svg11.dtd">
<svg
  width="240"
  height="240"
  viewBox="-500 -500 1000 1000" xmlns="http://www.w3.org/2000/svg" version="1.1">
  <rect
    x="0"
    y="0"
    width="100"
    height="100"
    fill="hsla(206,100%,53%,0.3)"
    stroke="hsl(206,100%,53%)"
    stroke-width="3"
    transform="" />
  
  <path
    d="M 
      60
      -20
      L
    
      67.5
      -10
      L
    
      79.2
      -14.4
      L
    
      94.2857142857
      25.7142857142
      L
    
      50
      50
      L
    
      0
      15.3846153846
      L
    
      0
      0
      L
    
      33.3333333333
      0
      z
    "
    fill="hsla(0,0%,50%,0.3)"
    stroke="hsla(0,0%,50%,1)"
    stroke-width="1"
    transform="translate(-47.1428571428,-15)"
    />
  
  
  <line
    x1="60"
    y1="-20"
    x2="94.28571428571429"
    y2="25.714285714285715"
    stroke="hsla(0,50%,50%,0.6)"
    stroke-width="1"
    transform="translate(-47.1428571428,-15)"
    />
  
  <line
    x1="79.2"
    y1="-14.4"
    x2="94.28571428571429"
    y2="25.714285714285715"
    stroke="hsla(0,50%,50%,0.6)"
    stroke-width="1"
    transform="translate(-47.1428571428,-15)"
    />
  
  <line
    x1="33.333333333333336"
    y1="0"
    x2="50"
    y2="50"
    stroke="hsla(0,50%,50%,0.6)"
    stroke-width="1"
    transform="translate(-47.1428571428,-15)"
    />
  
  <line
    x1="0"
    y1="0"
    x2="50"
    y2="0"
    stroke="hsla(0,50%,50%,0.6)"
    stroke-width="1"
    transform="translate(-47.1428571428,-15)"
    />
  
  <line
    x1="0"
    y1="0"
    x2="50"
    y2="50"
    stroke="hsla(0,50%,50%,0.6)"
    stroke-width="1"
    transform="translate(-47.1428571428,-15)"
    />
  
  <line
    x1="0"
    y1="0"
    x2="0"
    y2="15.384615384615385"
    stroke="hsla(0,50%,50%,0.6)"
    stroke-width="1"
    transform="translate(-47.1428571428,-15)"
    />
  
  <line
    x1="50"
    y1="0"
    x2="50"
    y2="50"
    stroke="hsla(0,50%,50%,0.6)"
    stroke-width="1"
    transform="translate(-47.1428571428,-15)"
    />
  
  <line
    x1="0"
    y1="15.384615384615385"
    x2="50"
    y2="50"
    stroke="hsla(0,50%,50%,0.6)"
    stroke-width="1"
    transform="translate(-47.1428571428,-15)"
    />
  
  <line
    x1="79.2"
    y1="-14.4"
    x2="0"
    y2="15.384615384615385"
    stroke="hsla(0,50%,50%,0.6)"
    stroke-width="1"
    transform="translate(-47.1428571428,-15)"
    />
  
  <line
    x1="60"
    y1="-20"
    x2="33.333333333333336"
    y2="0"
    stroke="hsla(0,50%,50%,0.6)"
    stroke-width="1"
    transform="translate(-47.1428571428,-15)"
    />
  
  <line
    x1="94.28571428571429"
    y1="25.714285714285715"
    x2="50"
    y2="50"
    stroke="hsla(0,50%,50%,0.6)"
    stroke-width="1"
    transform="translate(-47.1428571428,-15)"
    />
  
</svg>
