<?xml version="1.0"?>
<!DOCTYPE svg PUBLIC "-//W3C//DTD SVG 1.1//EN"
  "http://www.w3.org/Graphics/SVG/1.1/DTD/svg11.dtd">
<svg
  width="240"
  height="240"
  viewBox="-500 -500 1000 1000" xmlns="http://www.w3.org/2000/svg" version="1.1">
  <rect
    x="0"
    y="0"
    width="100"
    height="100"
    fill="hsla(206,100%,53%,0.3)"
    stroke="hsl(206,100%,53%)"
    stroke-width="3"
    transform="" />
  
  <path
    d="M 
      11.1111111111
      33.3333333333
      L
    
      21.9542947202
      45.7578145521
      L
    
      24.1379310344
      43.6781609195
      L
    
      31.8007662835
      51.7241379310
      L
    
      29.2671394799
      54.1371158392
      L
    
      33.0289193302
      58.4474885844
      L
    
      24.6575342465
      65.7534246575
      L
    
      21.2135539795
      61.8071972681
      L
    
      11.1111111111
      71.4285714285
      L
    
      0
      66.6666666666
      L
    
      0
      37.5
      z
    "
    fill="hsla(0,0%,50%,0.3)"
    stroke="hsla(0,0%,50%,1)"
    stroke-width="1"
    transform="translate(-14.5101849153,-52.7695105820)"
    />
  
  <path
    d="M 
      11.1111111111
      50.2314814814
      L
    
      11.1111111111
      56.0846560846
      L
    
      13.9007092198
      53.4278959810
      z
    "
    fill="hsla(0,0%,50%,0.3)"
    stroke="hsla(0,0%,50%,1)"
    stroke-width="1"
    transform="translate(-14.5101849153,-52.7695105820)"
    />
  
  
  <line
    x1="0"
    y1="37.5"
    x2="0"
    y2="66.66666666666667"
    stroke="hsla(0,50%,50%,0.6)"
    stroke-width="1"
    transform="translate(-14.5101849153,-52.7695105820)"
    />
  
  <line
    x1="11.11111111111111"
    y1="33.333333333333336"
    x2="11.11111111111111"
    y2="71.42857142857143"
    stroke="hsla(0,50%,50%,0.6)"
    stroke-width="1"
    transform="translate(-14.5101849153,-52.7695105820)"
    />
  
  <line
    x1="24.137931034482758"
    y1="43.67816091954023"
    x2="31.800766283524904"
    y2="51.724137931034484"
    stroke="hsla(0,50%,50%,0.6)"
    stroke-width="1"
    transform="translate(-14.5101849153,-52.7695105820)"
    />
  
  <line
    x1="11.11111111111111"
    y1="33.333333333333336"
    x2="33.02891933028919"
    y2="58.44748858447488"
    stroke="hsla(0,50%,50%,0.6)"
    stroke-width="1"
    transform="translate(-14.5101849153,-52.7695105820)"
    />
  
  <line
    x1="0"
    y1="37.5"
    x2="24.65753424657534"
    y2="65.75342465753425"
    stroke="hsla(0,50%,50%,0.6)"
    stroke-width="1"
    transform="translate(-14.5101849153,-52.7695105820)"
    />
  
  <line
    x1="11.11111111111111"
    y1="33.333333333333336"
    x2="0"
    y2="37.5"
    stroke="hsla(0,50%,50%,0.6)"
    stroke-width="1"
    transform="translate(-14.5101849153,-52.7695105820)"
    />
  
  <line
    x1="24.137931034482758"
    y1="43.67816091954023"
    x2="0"
    y2="66.66666666666667"
    stroke="hsla(0,50%,50%,0.6)"
    stroke-width="1"
    transform="translate(-14.5101849153,-52.7695105820)"
    />
  
  <line
    x1="31.800766283524904"
    y1="51.724137931034484"
    x2="11.11111111111111"
    y2="71.42857142857143"
    stroke="hsla(0,50%,50%,0.6)"
    stroke-width="1"
    transform="translate(-14.5101849153,-52.7695105820)"
    />
  
  <line
    x1="33.02891933028919"
    y1="58.44748858447488"
    x2="24.65753424657534"
    y2="65.75342465753425"
    stroke="hsla(0,50%,50%,0.6)"
    stroke-width="1"
    transform="translate(-14.5101849153,-52.7695105820)"
    />
  
  <line
    x1="0"
    y1="66.66666666666667"
    x2="11.11111111111111"
    y2="71.42857142857143"
    stroke="hsla(0,50%,50%,0.6)"
    stroke-width="1"
    transform="translate(-14.5101849153,-52.7695105820)"
    />
  
</svg>
