<?xml version="1.0"?>
<!DOCTYPE svg PUBLIC "-//W3C//DTD SVG 1.1//EN"
  "http://www.w3.org/Graphics/SVG/1.1/DTD/svg11.dtd">
<svg
  width="240"
  height="240"
  viewBox="-50 -50 200 200" xmlns="http://www.w3.org/2000/svg" version="1.1">
  <rect
    x="0"
    y="0"
    width="100"
    height="100"
    fill="hsla(206,100%,53%,0.3)"
    stroke="hsl(206,100%,53%)"
    stroke-width="3"
    transform="" />
  
  <path
    d="M 
      100
      50
      L
    
      150
      100
      L
    
      125
      100
      L
    
      125
      125
      L
    
      100
      150
      L
    
      100
      100
      L
    
      50
      100
      L
    
      75
      75
      L
    
      100
      75
      z
    "
    fill="hsla(0,0%,50%,0.3)"
    stroke="hsla(0,0%,50%,1)"
    stroke-width="1"
    transform="translate(-88.28125,-83.0078125) scale(1,-1) translate(50,-110)"
    />
  
  
  <line
    x1="100"
    y1="50"
    x2="150"
    y2="100"
    stroke="hsla(0,50%,50%,0.6)"
    stroke-width="1"
    transform="translate(-88.28125,-83.0078125) scale(1,-1) translate(50,-110)"
    />
  
  <line
    x1="75"
    y1="75"
    x2="125"
    y2="125"
    stroke="hsla(0,50%,50%,0.6)"
    stroke-width="1"
    transform="translate(-88.28125,-83.0078125) scale(1,-1) translate(50,-110)"
    />
  
  <line
    x1="100"
    y1="50"
    x2="100"
    y2="150"
    stroke="hsla(0,50%,50%,0.6)"
    stroke-width="1"
    transform="translate(-88.28125,-83.0078125) scale(1,-1) translate(50,-110)"
    />
  
  <line
    x1="125"
    y1="75"
    x2="125"
    y2="125"
    stroke="hsla(0,50%,50%,0.6)"
    stroke-width="1"
    transform="translate(-88.28125,-83.0078125) scale(1,-1) translate(50,-110)"
    />
  
  <line
    x1="75"
    y1="75"
    x2="125"
    y2="75"
    stroke="hsla(0,50%,50%,0.6)"
    stroke-width="1"
    transform="translate(-88.28125,-83.0078125) scale(1,-1) translate(50,-110)"
    />
  
  <line
    x1="75"
    y1="75"
    x2="50"
    y2="100"
    stroke="hsla(0,50%,50%,0.6)"
    stroke-width="1"
    transform="translate(-88.28125,-83.0078125) scale(1,-1) translate(50,-110)"
    />
  
  <line
    x1="50"
    y1="100"
    x2="150"
    y2="100"
    stroke="hsla(0,50%,50%,0.6)"
    stroke-width="1"
    transform="translate(-88.28125,-83.0078125) scale(1,-1) translate(50,-110)"
    />
  
  <line
    x1="125"
    y1="75"
    x2="100"
    y2="100"
    stroke="hsla(0,50%,50%,0.6)"
    stroke-width="1"
    transform="translate(-88.28125,-83.0078125) scale(1,-1) translate(50,-110)"
    />
  
  <line
    x1="125"
    y1="125"
    x2="100"
    y2="150"
    stroke="hsla(0,50%,50%,0.6)"
    stroke-width="1"
    transform="translate(-88.28125,-83.0078125) scale(1,-1) translate(50,-110)"
    />
  
</svg>
