<?xml version="1.0"?>
<!DOCTYPE svg PUBLIC "-//W3C//DTD SVG 1.1//EN"
  "http://www.w3.org/Graphics/SVG/1.1/DTD/svg11.dtd">
<svg
  width="240"
  height="240"
  viewBox="-500 -500 1000 1000" xmlns="http://www.w3.org/2000/svg" version="1.1">
  <rect
    x="0"
    y="0"
    width="100"
    height="100"
    fill="hsla(206,100%,53%,0.3)"
    stroke="hsl(206,100%,53%)"
    stroke-width="3"
    transform="" />
  
  <path
    d="M 
      75
      66.6666666666
      L
    
      104.6576879910
      66.6666666666
      L
    
      107.2647558767
      85.5520120825
      L
    
      108.4044344891
      86.9974136124
      L
    
      107.5565771732
      87.6659370844
      L
    
      110.3865014181
      108.1656322244
      L
    
      89.9934350103
      122.9956830675
      L
    
      80.3316134523
      109.7095405763
      L
    
      79.9577261096
      111.0379352541
      L
    
      75
      109.6425434541
      z
    "
    fill="hsla(0,0%,50%,0.3)"
    stroke="hsla(0,0%,50%,1)"
    stroke-width="1"
    transform="translate(-92.6932507090,-94.8311748671)"
    />
  
  
  <line
    x1="105.78848596332044"
    y1="83.67972741560388"
    x2="108.40443448911633"
    y2="86.9974136124193"
    stroke="hsla(0,50%,50%,0.6)"
    stroke-width="1"
    transform="translate(-92.6932507090,-94.8311748671)"
    />
  
  <line
    x1="104.65768799102132"
    y1="66.66666666666667"
    x2="110.38650141819618"
    y2="108.16563222449425"
    stroke="hsla(0,50%,50%,0.6)"
    stroke-width="1"
    transform="translate(-92.6932507090,-94.8311748671)"
    />
  
  <line
    x1="75"
    y1="102.37794418842806"
    x2="89.99343501036697"
    y2="122.9956830675968"
    stroke="hsla(0,50%,50%,0.6)"
    stroke-width="1"
    transform="translate(-92.6932507090,-94.8311748671)"
    />
  
  <line
    x1="75"
    y1="66.66666666666667"
    x2="75"
    y2="109.64254345414201"
    stroke="hsla(0,50%,50%,0.6)"
    stroke-width="1"
    transform="translate(-92.6932507090,-94.8311748671)"
    />
  
  <line
    x1="100"
    y1="68"
    x2="100"
    y2="100"
    stroke="hsla(0,50%,50%,0.6)"
    stroke-width="1"
    transform="translate(-92.6932507090,-94.8311748671)"
    />
  
  <line
    x1="88.98876404494382"
    y1="78.95131086142322"
    x2="79.95772610968962"
    y2="111.03793525419958"
    stroke="hsla(0,50%,50%,0.6)"
    stroke-width="1"
    transform="translate(-92.6932507090,-94.8311748671)"
    />
  
  <line
    x1="95.8994708994709"
    y1="66.66666666666667"
    x2="100"
    y2="68"
    stroke="hsla(0,50%,50%,0.6)"
    stroke-width="1"
    transform="translate(-92.6932507090,-94.8311748671)"
    />
  
  <line
    x1="75"
    y1="105.26835995995228"
    x2="80.5403737184157"
    y2="108.96783045466562"
    stroke="hsla(0,50%,50%,0.6)"
    stroke-width="1"
    transform="translate(-92.6932507090,-94.8311748671)"
    />
  
  <line
    x1="75"
    y1="73.46236559139786"
    x2="107.03373164788812"
    y2="83.87849510787244"
    stroke="hsla(0,50%,50%,0.6)"
    stroke-width="1"
    transform="translate(-92.6932507090,-94.8311748671)"
    />
  
  <line
    x1="75"
    y1="75.01406095907298"
    x2="105.78848596332044"
    y2="83.67972741560388"
    stroke="hsla(0,50%,50%,0.6)"
    stroke-width="1"
    transform="translate(-92.6932507090,-94.8311748671)"
    />
  
  <line
    x1="75"
    y1="95.0720066790872"
    x2="110.38650141819618"
    y2="108.16563222449425"
    stroke="hsla(0,50%,50%,0.6)"
    stroke-width="1"
    transform="translate(-92.6932507090,-94.8311748671)"
    />
  
  <line
    x1="75"
    y1="66.66666666666667"
    x2="104.65768799102132"
    y2="66.66666666666667"
    stroke="hsla(0,50%,50%,0.6)"
    stroke-width="1"
    transform="translate(-92.6932507090,-94.8311748671)"
    />
  
  <line
    x1="100"
    y1="68"
    x2="75"
    y2="102.37794418842806"
    stroke="hsla(0,50%,50%,0.6)"
    stroke-width="1"
    transform="translate(-92.6932507090,-94.8311748671)"
    />
  
  <line
    x1="75"
    y1="109.64254345414201"
    x2="79.95772610968962"
    y2="111.03793525419958"
    stroke="hsla(0,50%,50%,0.6)"
    stroke-width="1"
    transform="translate(-92.6932507090,-94.8311748671)"
    />
  
  <line
    x1="95.8994708994709"
    y1="66.66666666666667"
    x2="75"
    y2="73.46236559139786"
    stroke="hsla(0,50%,50%,0.6)"
    stroke-width="1"
    transform="translate(-92.6932507090,-94.8311748671)"
    />
  
  <line
    x1="104.65768799102132"
    y1="66.66666666666667"
    x2="75"
    y2="75.01406095907298"
    stroke="hsla(0,50%,50%,0.6)"
    stroke-width="1"
    transform="translate(-92.6932507090,-94.8311748671)"
    />
  
  <line
    x1="75"
    y1="100"
    x2="109.25925925925925"
    y2="100"
    stroke="hsla(0,50%,50%,0.6)"
    stroke-width="1"
    transform="translate(-92.6932507090,-94.8311748671)"
    />
  
  <line
    x1="108.40443448911633"
    y1="86.9974136124193"
    x2="80.5403737184157"
    y2="108.96783045466562"
    stroke="hsla(0,50%,50%,0.6)"
    stroke-width="1"
    transform="translate(-92.6932507090,-94.8311748671)"
    />
  
  <line
    x1="107.03373164788812"
    y1="83.87849510787244"
    x2="75"
    y2="105.26835995995228"
    stroke="hsla(0,50%,50%,0.6)"
    stroke-width="1"
    transform="translate(-92.6932507090,-94.8311748671)"
    />
  
  <line
    x1="105.78848596332044"
    y1="83.67972741560388"
    x2="75"
    y2="95.0720066790872"
    stroke="hsla(0,50%,50%,0.6)"
    stroke-width="1"
    transform="translate(-92.6932507090,-94.8311748671)"
    />
  
  <line
    x1="109.25925925925925"
    y1="100"
    x2="75"
    y2="109.64254345414201"
    stroke="hsla(0,50%,50%,0.6)"
    stroke-width="1"
    transform="translate(-92.6932507090,-94.8311748671)"
    />
  
  <line
    x1="110.38650141819618"
    y1="108.16563222449425"
    x2="89.99343501036697"
    y2="122.9956830675968"
    stroke="hsla(0,50%,50%,0.6)"
    stroke-width="1"
    transform="translate(-92.6932507090,-94.8311748671)"
    />
  
</svg>
