<?xml version="1.0"?>
<!DOCTYPE svg PUBLIC "-//W3C//DTD SVG 1.1//EN"
  "http://www.w3.org/Graphics/SVG/1.1/DTD/svg11.dtd">
<svg
  width="240"
  height="240"
  viewBox="-50 -50 200 200" xmlns="http://www.w3.org/2000/svg" version="1.1">
  <rect
    x="0"
    y="0"
    width="100"
    height="100"
    fill="hsla(206,100%,53%,0.3)"
    stroke="hsl(206,100%,53%)"
    stroke-width="3"
    transform="" />
  
  <path
    d="M 
      9.2249440189
      11.6860001510
      L
    
      40.7368618576
      79.7447911638
      L
    
      39.8172969754
      80.1705591298
      L
    
      41.5473960803
      82.9976237283
      L
    
      34.5704612570
      89.4951307397
      L
    
      29.1919371859
      87.4871030692
      L
    
      5.1388810913
      96.2270211364
      L
    
      -21.0644509319
      32.6746013923
      L
    
      -19.5335493314
      25.0014773456
      z
    "
    fill="hsla(0,0%,50%,0.3)"
    stroke="hsla(0,0%,50%,1)"
    stroke-width="1"
    transform="translate(10.3302902733,-43.2427553329) scale(1,-1) translate(50,-110)"
    />
  
  
  <line
    x1="-19.533549331458634"
    y1="25.00147734566832"
    x2="-21.064450931955985"
    y2="32.674601392319786"
    stroke="hsla(0,50%,50%,0.6)"
    stroke-width="1"
    transform="translate(10.3302902733,-43.2427553329) scale(1,-1) translate(50,-110)"
    />
  
  <line
    x1="27.443111528147714"
    y1="65.27409458355068"
    x2="34.57046125707156"
    y2="89.49513073976378"
    stroke="hsla(0,50%,50%,0.6)"
    stroke-width="1"
    transform="translate(10.3302902733,-43.2427553329) scale(1,-1) translate(50,-110)"
    />
  
  <line
    x1="9.224944018962592"
    y1="11.686000151066663"
    x2="40.73686185766607"
    y2="79.74479116388734"
    stroke="hsla(0,50%,50%,0.6)"
    stroke-width="1"
    transform="translate(10.3302902733,-43.2427553329) scale(1,-1) translate(50,-110)"
    />
  
  <line
    x1="-14.846346963198206"
    y1="36.853476349366055"
    x2="-16.75347277918578"
    y2="43.130259963855295"
    stroke="hsla(0,50%,50%,0.6)"
    stroke-width="1"
    transform="translate(10.3302902733,-43.2427553329) scale(1,-1) translate(50,-110)"
    />
  
  <line
    x1="23.820614552536398"
    y1="62.83959654855205"
    x2="24.002756039877415"
    y2="67.52806425865916"
    stroke="hsla(0,50%,50%,0.6)"
    stroke-width="1"
    transform="translate(10.3302902733,-43.2427553329) scale(1,-1) translate(50,-110)"
    />
  
  <line
    x1="-7.143575105912764"
    y1="38.48067348530202"
    x2="-12.67794440046391"
    y2="53.0148689125546"
    stroke="hsla(0,50%,50%,0.6)"
    stroke-width="1"
    transform="translate(10.3302902733,-43.2427553329) scale(1,-1) translate(50,-110)"
    />
  
  <line
    x1="32.97695390986005"
    y1="68.99311174076924"
    x2="41.54739608039936"
    y2="82.99762372839906"
    stroke="hsla(0,50%,50%,0.6)"
    stroke-width="1"
    transform="translate(10.3302902733,-43.2427553329) scale(1,-1) translate(50,-110)"
    />
  
  <line
    x1="-21.064450931955985"
    y1="32.674601392319786"
    x2="5.138881091399057"
    y2="96.22702113648617"
    stroke="hsla(0,50%,50%,0.6)"
    stroke-width="1"
    transform="translate(10.3302902733,-43.2427553329) scale(1,-1) translate(50,-110)"
    />
  
  <line
    x1="9.224944018962592"
    y1="11.686000151066663"
    x2="-19.533549331458634"
    y2="25.00147734566832"
    stroke="hsla(0,50%,50%,0.6)"
    stroke-width="1"
    transform="translate(10.3302902733,-43.2427553329) scale(1,-1) translate(50,-110)"
    />
  
  <line
    x1="-14.846346963198206"
    y1="36.853476349366055"
    x2="-18.213440671039645"
    y2="39.58931745343702"
    stroke="hsla(0,50%,50%,0.6)"
    stroke-width="1"
    transform="translate(10.3302902733,-43.2427553329) scale(1,-1) translate(50,-110)"
    />
  
  <line
    x1="7.882289262852267"
    y1="56.387200114891954"
    x2="-2.971345948522778"
    y2="76.5568298569114"
    stroke="hsla(0,50%,50%,0.6)"
    stroke-width="1"
    transform="translate(10.3302902733,-43.2427553329) scale(1,-1) translate(50,-110)"
    />
  
  <line
    x1="25.382666978580584"
    y1="63.88937342548862"
    x2="24.002756039877415"
    y2="67.52806425865916"
    stroke="hsla(0,50%,50%,0.6)"
    stroke-width="1"
    transform="translate(10.3302902733,-43.2427553329) scale(1,-1) translate(50,-110)"
    />
  
  <line
    x1="-19.533549331458634"
    y1="25.00147734566832"
    x2="-7.143575105912764"
    y2="38.48067348530202"
    stroke="hsla(0,50%,50%,0.6)"
    stroke-width="1"
    transform="translate(10.3302902733,-43.2427553329) scale(1,-1) translate(50,-110)"
    />
  
  <line
    x1="-21.064450931955985"
    y1="32.674601392319786"
    x2="32.97695390986005"
    y2="68.99311174076924"
    stroke="hsla(0,50%,50%,0.6)"
    stroke-width="1"
    transform="translate(10.3302902733,-43.2427553329) scale(1,-1) translate(50,-110)"
    />
  
  <line
    x1="-7.143575105912764"
    y1="38.48067348530202"
    x2="-18.213440671039645"
    y2="39.58931745343702"
    stroke="hsla(0,50%,50%,0.6)"
    stroke-width="1"
    transform="translate(10.3302902733,-43.2427553329) scale(1,-1) translate(50,-110)"
    />
  
  <line
    x1="37.630668030849236"
    y1="76.59750296091256"
    x2="30.92731898335523"
    y2="86.85653476785694"
    stroke="hsla(0,50%,50%,0.6)"
    stroke-width="1"
    transform="translate(10.3302902733,-43.2427553329) scale(1,-1) translate(50,-110)"
    />
  
  <line
    x1="-16.75347277918578"
    y1="43.130259963855295"
    x2="7.882289262852267"
    y2="56.387200114891954"
    stroke="hsla(0,50%,50%,0.6)"
    stroke-width="1"
    transform="translate(10.3302902733,-43.2427553329) scale(1,-1) translate(50,-110)"
    />
  
  <line
    x1="25.382666978580584"
    y1="63.88937342548862"
    x2="8.385017214463188"
    y2="79.71901084016015"
    stroke="hsla(0,50%,50%,0.6)"
    stroke-width="1"
    transform="translate(10.3302902733,-43.2427553329) scale(1,-1) translate(50,-110)"
    />
  
  <line
    x1="-12.67794440046391"
    y1="53.0148689125546"
    x2="16.8088864791276"
    y2="66.35365729334613"
    stroke="hsla(0,50%,50%,0.6)"
    stroke-width="1"
    transform="translate(10.3302902733,-43.2427553329) scale(1,-1) translate(50,-110)"
    />
  
  <line
    x1="30.232889244764912"
    y1="57.058527492947114"
    x2="-4.399281383337076"
    y2="73.09357747206194"
    stroke="hsla(0,50%,50%,0.6)"
    stroke-width="1"
    transform="translate(10.3302902733,-43.2427553329) scale(1,-1) translate(50,-110)"
    />
  
  <line
    x1="16.8088864791276"
    y1="66.35365729334613"
    x2="32.97695390986005"
    y2="68.99311174076924"
    stroke="hsla(0,50%,50%,0.6)"
    stroke-width="1"
    transform="translate(10.3302902733,-43.2427553329) scale(1,-1) translate(50,-110)"
    />
  
  <line
    x1="23.820614552536398"
    y1="62.83959654855205"
    x2="-4.399281383337076"
    y2="73.09357747206194"
    stroke="hsla(0,50%,50%,0.6)"
    stroke-width="1"
    transform="translate(10.3302902733,-43.2427553329) scale(1,-1) translate(50,-110)"
    />
  
  <line
    x1="41.54739608039936"
    y1="82.99762372839906"
    x2="34.57046125707156"
    y2="89.49513073976378"
    stroke="hsla(0,50%,50%,0.6)"
    stroke-width="1"
    transform="translate(10.3302902733,-43.2427553329) scale(1,-1) translate(50,-110)"
    />
  
  <line
    x1="8.385017214463188"
    y1="79.71901084016015"
    x2="34.57046125707156"
    y2="89.49513073976378"
    stroke="hsla(0,50%,50%,0.6)"
    stroke-width="1"
    transform="translate(10.3302902733,-43.2427553329) scale(1,-1) translate(50,-110)"
    />
  
  <line
    x1="27.443111528147714"
    y1="65.27409458355068"
    x2="16.8088864791276"
    y2="66.35365729334613"
    stroke="hsla(0,50%,50%,0.6)"
    stroke-width="1"
    transform="translate(10.3302902733,-43.2427553329) scale(1,-1) translate(50,-110)"
    />
  
  <line
    x1="-2.971345948522778"
    y1="76.5568298569114"
    x2="30.92731898335523"
    y2="86.85653476785694"
    stroke="hsla(0,50%,50%,0.6)"
    stroke-width="1"
    transform="translate(10.3302902733,-43.2427553329) scale(1,-1) translate(50,-110)"
    />
  
  <line
    x1="37.630668030849236"
    y1="76.59750296091256"
    x2="8.385017214463188"
    y2="79.71901084016015"
    stroke="hsla(0,50%,50%,0.6)"
    stroke-width="1"
    transform="translate(10.3302902733,-43.2427553329) scale(1,-1) translate(50,-110)"
    />
  
  <line
    x1="40.73686185766607"
    y1="79.74479116388734"
    x2="5.138881091399057"
    y2="96.22702113648617"
    stroke="hsla(0,50%,50%,0.6)"
    stroke-width="1"
    transform="translate(10.3302902733,-43.2427553329) scale(1,-1) translate(50,-110)"
    />
  
  <line
    x1="41.54739608039936"
    y1="82.99762372839906"
    x2="5.138881091399057"
    y2="96.22702113648617"
    stroke="hsla(0,50%,50%,0.6)"
    stroke-width="1"
    transform="translate(10.3302902733,-43.2427553329) scale(1,-1) translate(50,-110)"
    />
  
</svg>
