<?xml version="1.0"?>
<!DOCTYPE svg PUBLIC "-//W3C//DTD SVG 1.1//EN"
  "http://www.w3.org/Graphics/SVG/1.1/DTD/svg11.dtd">
<svg
  width="240"
  height="240"
  viewBox="-500 -500 1000 1000" xmlns="http://www.w3.org/2000/svg" version="1.1">
  <rect
    x="0"
    y="0"
    width="100"
    height="100"
    fill="hsla(206,100%,53%,0.3)"
    stroke="hsl(206,100%,53%)"
    stroke-width="3"
    transform="" />
  
  <path
    d="M 
      527.9823813927
      1472.0938873167
      L
    
      547.8627057766
      1487.2521425722
      L
    
      582.9012854160
      1482.5300734438
      L
    
      602.7816097999
      1497.6883286993
      L
    
      567.7430301605
      1502.4103978277
      L
    
      537.4265196495
      1542.1710465955
      L
    
      497.6658708817
      1511.8545360845
      L
    
      462.6272912423
      1516.5766052129
      L
    
      477.7855464978
      1496.6962808290
      L
    
      512.8241261372
      1491.9742117006
      z
    "
    fill="hsla(0,0%,50%,0.3)"
    stroke="hsla(0,0%,50%,1)"
    stroke-width="1"
    transform="translate(-532.7044505211,-1507.1324669561)"
    />
  
  
  <line
    x1="582.9012854160496"
    y1="1482.5300734438167"
    x2="602.7816097999564"
    y2="1497.6883286993086"
    stroke="hsla(0,50%,50%,0.6)"
    stroke-width="1"
    transform="translate(-532.7044505211,-1507.1324669561)"
    />
  
  <line
    x1="527.9823813927444"
    y1="1472.0938873167402"
    x2="567.743030160558"
    y2="1502.4103978277235"
    stroke="hsla(0,50%,50%,0.6)"
    stroke-width="1"
    transform="translate(-532.7044505211,-1507.1324669561)"
    />
  
  <line
    x1="477.7855464978542"
    y1="1496.696280829062"
    x2="537.4265196495745"
    y2="1542.171046595537"
    stroke="hsla(0,50%,50%,0.6)"
    stroke-width="1"
    transform="translate(-532.7044505211,-1507.1324669561)"
    />
  
  <line
    x1="477.7855464978542"
    y1="1496.696280829062"
    x2="462.6272912423625"
    y2="1516.5766052129688"
    stroke="hsla(0,50%,50%,0.6)"
    stroke-width="1"
    transform="translate(-532.7044505211,-1507.1324669561)"
    />
  
  <line
    x1="527.9823813927444"
    y1="1472.0938873167402"
    x2="497.665870881761"
    y2="1511.8545360845537"
    stroke="hsla(0,50%,50%,0.6)"
    stroke-width="1"
    transform="translate(-532.7044505211,-1507.1324669561)"
    />
  
  <line
    x1="582.9012854160496"
    y1="1482.5300734438167"
    x2="537.4265196495745"
    y2="1542.171046595537"
    stroke="hsla(0,50%,50%,0.6)"
    stroke-width="1"
    transform="translate(-532.7044505211,-1507.1324669561)"
    />
  
  <line
    x1="582.9012854160496"
    y1="1482.5300734438167"
    x2="477.7855464978542"
    y2="1496.696280829062"
    stroke="hsla(0,50%,50%,0.6)"
    stroke-width="1"
    transform="translate(-532.7044505211,-1507.1324669561)"
    />
  
  <line
    x1="602.7816097999564"
    y1="1497.6883286993086"
    x2="462.6272912423625"
    y2="1516.5766052129688"
    stroke="hsla(0,50%,50%,0.6)"
    stroke-width="1"
    transform="translate(-532.7044505211,-1507.1324669561)"
    />
  
</svg>
