<?xml version="1.0"?>
<!DOCTYPE svg PUBLIC "-//W3C//DTD SVG 1.1//EN"
  "http://www.w3.org/Graphics/SVG/1.1/DTD/svg11.dtd">
<svg
  width="240"
  height="240"
  viewBox="-500 -500 1000 1000" xmlns="http://www.w3.org/2000/svg" version="1.1">
  <rect
    x="0"
    y="0"
    width="100"
    height="100"
    fill="hsla(206,100%,53%,0.3)"
    stroke="hsl(206,100%,53%)"
    stroke-width="3"
    transform="" />
  
  <path
    d="M 
      6.25
      43.75
      L
    
      81.25
      43.75
      L
    
      93.75
      56.25
      L
    
      93.75
      68.75
      L
    
      62.5
      100
      L
    
      43.75
      81.25
      L
    
      37.5
      87.5
      L
    
      0
      50
      z
    "
    fill="hsla(0,0%,50%,0.3)"
    stroke="hsla(0,0%,50%,1)"
    stroke-width="1"
    transform="translate(-46.875,-71.875)"
    />
  
  
  <line
    x1="81.25"
    y1="43.75"
    x2="93.75"
    y2="56.25"
    stroke="hsla(0,50%,50%,0.6)"
    stroke-width="1"
    transform="translate(-46.875,-71.875)"
    />
  
  <line
    x1="87.5"
    y1="62.5"
    x2="93.75"
    y2="68.75"
    stroke="hsla(0,50%,50%,0.6)"
    stroke-width="1"
    transform="translate(-46.875,-71.875)"
    />
  
  <line
    x1="37.5"
    y1="43.75"
    x2="37.5"
    y2="87.5"
    stroke="hsla(0,50%,50%,0.6)"
    stroke-width="1"
    transform="translate(-46.875,-71.875)"
    />
  
  <line
    x1="62.5"
    y1="43.75"
    x2="62.5"
    y2="100"
    stroke="hsla(0,50%,50%,0.6)"
    stroke-width="1"
    transform="translate(-46.875,-71.875)"
    />
  
  <line
    x1="93.75"
    y1="56.25"
    x2="93.75"
    y2="68.75"
    stroke="hsla(0,50%,50%,0.6)"
    stroke-width="1"
    transform="translate(-46.875,-71.875)"
    />
  
  <line
    x1="6.25"
    y1="43.75"
    x2="62.5"
    y2="100"
    stroke="hsla(0,50%,50%,0.6)"
    stroke-width="1"
    transform="translate(-46.875,-71.875)"
    />
  
  <line
    x1="0"
    y1="50"
    x2="37.5"
    y2="87.5"
    stroke="hsla(0,50%,50%,0.6)"
    stroke-width="1"
    transform="translate(-46.875,-71.875)"
    />
  
  <line
    x1="6.25"
    y1="43.75"
    x2="0"
    y2="50"
    stroke="hsla(0,50%,50%,0.6)"
    stroke-width="1"
    transform="translate(-46.875,-71.875)"
    />
  
  <line
    x1="6.25"
    y1="43.75"
    x2="81.25"
    y2="43.75"
    stroke="hsla(0,50%,50%,0.6)"
    stroke-width="1"
    transform="translate(-46.875,-71.875)"
    />
  
  <line
    x1="0"
    y1="50"
    x2="62.5"
    y2="50"
    stroke="hsla(0,50%,50%,0.6)"
    stroke-width="1"
    transform="translate(-46.875,-71.875)"
    />
  
  <line
    x1="37.5"
    y1="62.5"
    x2="93.75"
    y2="62.5"
    stroke="hsla(0,50%,50%,0.6)"
    stroke-width="1"
    transform="translate(-46.875,-71.875)"
    />
  
  <line
    x1="81.25"
    y1="43.75"
    x2="37.5"
    y2="87.5"
    stroke="hsla(0,50%,50%,0.6)"
    stroke-width="1"
    transform="translate(-46.875,-71.875)"
    />
  
  <line
    x1="93.75"
    y1="56.25"
    x2="87.5"
    y2="62.5"
    stroke="hsla(0,50%,50%,0.6)"
    stroke-width="1"
    transform="translate(-46.875,-71.875)"
    />
  
  <line
    x1="93.75"
    y1="68.75"
    x2="62.5"
    y2="100"
    stroke="hsla(0,50%,50%,0.6)"
    stroke-width="1"
    transform="translate(-46.875,-71.875)"
    />
  
</svg>
