<?xml version="1.0"?>
<!DOCTYPE svg PUBLIC "-//W3C//DTD SVG 1.1//EN"
  "http://www.w3.org/Graphics/SVG/1.1/DTD/svg11.dtd">
<svg
  width="240"
  height="240"
  viewBox="-500 -500 1000 1000" xmlns="http://www.w3.org/2000/svg" version="1.1">
  <rect
    x="0"
    y="0"
    width="100"
    height="100"
    fill="hsla(206,100%,53%,0.3)"
    stroke="hsl(206,100%,53%)"
    stroke-width="3"
    transform="" />
  
  <path
    d="M 
      -239.8292134831
      -93.1292134831
      L
    
      -203.2
      -56.5
      L
    
      -183.2
      -56.5
      L
    
      -178.5846153846
      -51.8846153846
      L
    
      -177.6444444444
      -52.0555555555
      L
    
      -173.2
      -56.5
      L
    
      -168.1738219895
      -55.2434554973
      L
    
      -166.7955056179
      -52.9044943820
      L
    
      -173.2
      -46.5
      L
    
      -275.3428571428
      -46.5
      L
    
      -286.5846153846
      -65.5769230769
      z
    "
    fill="hsla(0,0%,50%,0.3)"
    stroke="hsla(0,0%,50%,1)"
    stroke-width="1"
    transform="translate(226.6900605012,69.8146067415)"
    />
  
  
  <line
    x1="-239.82921348314608"
    y1="-93.12921348314607"
    x2="-286.5846153846154"
    y2="-65.57692307692308"
    stroke="hsla(0,50%,50%,0.6)"
    stroke-width="1"
    transform="translate(226.6900605012,69.8146067415)"
    />
  
  <line
    x1="-237.2449438202247"
    y1="-90.54494382022472"
    x2="-243.5370786516854"
    y2="-86.83707865168539"
    stroke="hsla(0,50%,50%,0.6)"
    stroke-width="1"
    transform="translate(226.6900605012,69.8146067415)"
    />
  
  <line
    x1="-256.4"
    y1="-48.9"
    x2="-259.3764705882353"
    y2="-46.5"
    stroke="hsla(0,50%,50%,0.6)"
    stroke-width="1"
    transform="translate(226.6900605012,69.8146067415)"
    />
  
  <line
    x1="-250.7"
    y1="-56.5"
    x2="-252.2"
    y2="-54.5"
    stroke="hsla(0,50%,50%,0.6)"
    stroke-width="1"
    transform="translate(226.6900605012,69.8146067415)"
    />
  
  <line
    x1="-231.2"
    y1="-62.5"
    x2="-243.2"
    y2="-46.5"
    stroke="hsla(0,50%,50%,0.6)"
    stroke-width="1"
    transform="translate(226.6900605012,69.8146067415)"
    />
  
  <line
    x1="-270.2"
    y1="-55.22727272727273"
    x2="-275.34285714285716"
    y2="-46.5"
    stroke="hsla(0,50%,50%,0.6)"
    stroke-width="1"
    transform="translate(226.6900605012,69.8146067415)"
    />
  
  <line
    x1="-196.53333333333333"
    y1="-56.5"
    x2="-209.86666666666667"
    y2="-46.5"
    stroke="hsla(0,50%,50%,0.6)"
    stroke-width="1"
    transform="translate(226.6900605012,69.8146067415)"
    />
  
  <line
    x1="-239.82921348314608"
    y1="-93.12921348314607"
    x2="-243.5370786516854"
    y2="-86.83707865168539"
    stroke="hsla(0,50%,50%,0.6)"
    stroke-width="1"
    transform="translate(226.6900605012,69.8146067415)"
    />
  
  <line
    x1="-237.2449438202247"
    y1="-90.54494382022472"
    x2="-251.8206896551724"
    y2="-65.8103448275862"
    stroke="hsla(0,50%,50%,0.6)"
    stroke-width="1"
    transform="translate(226.6900605012,69.8146067415)"
    />
  
  <line
    x1="-193.2"
    y1="-56.5"
    x2="-203.2"
    y2="-46.5"
    stroke="hsla(0,50%,50%,0.6)"
    stroke-width="1"
    transform="translate(226.6900605012,69.8146067415)"
    />
  
  <line
    x1="-193.2"
    y1="-56.5"
    x2="-213.2"
    y2="-46.5"
    stroke="hsla(0,50%,50%,0.6)"
    stroke-width="1"
    transform="translate(226.6900605012,69.8146067415)"
    />
  
  <line
    x1="-183.2"
    y1="-56.5"
    x2="-193.2"
    y2="-46.5"
    stroke="hsla(0,50%,50%,0.6)"
    stroke-width="1"
    transform="translate(226.6900605012,69.8146067415)"
    />
  
  <line
    x1="-175.2"
    y1="-52.5"
    x2="-183.2"
    y2="-46.5"
    stroke="hsla(0,50%,50%,0.6)"
    stroke-width="1"
    transform="translate(226.6900605012,69.8146067415)"
    />
  
  <line
    x1="-168.1738219895288"
    y1="-55.2434554973822"
    x2="-172.08962326503635"
    y2="-52.85161929940516"
    stroke="hsla(0,50%,50%,0.6)"
    stroke-width="1"
    transform="translate(226.6900605012,69.8146067415)"
    />
  
  <line
    x1="-173.2"
    y1="-56.5"
    x2="-183.2"
    y2="-46.5"
    stroke="hsla(0,50%,50%,0.6)"
    stroke-width="1"
    transform="translate(226.6900605012,69.8146067415)"
    />
  
  <line
    x1="-216.9037037037037"
    y1="-56.5"
    x2="-248.75555555555556"
    y2="-46.5"
    stroke="hsla(0,50%,50%,0.6)"
    stroke-width="1"
    transform="translate(226.6900605012,69.8146067415)"
    />
  
  <line
    x1="-188.9142857142857"
    y1="-50.785714285714285"
    x2="-199.2"
    y2="-46.5"
    stroke="hsla(0,50%,50%,0.6)"
    stroke-width="1"
    transform="translate(226.6900605012,69.8146067415)"
    />
  
  <line
    x1="-166.79550561797754"
    y1="-52.90449438202247"
    x2="-173.2"
    y2="-46.5"
    stroke="hsla(0,50%,50%,0.6)"
    stroke-width="1"
    transform="translate(226.6900605012,69.8146067415)"
    />
  
  <line
    x1="-169.13220338983052"
    y1="-55.483050847457626"
    x2="-171.50588235294117"
    y2="-52.87647058823529"
    stroke="hsla(0,50%,50%,0.6)"
    stroke-width="1"
    transform="translate(226.6900605012,69.8146067415)"
    />
  
  <line
    x1="-168.78823529411764"
    y1="-54.14705882352941"
    x2="-171.50588235294117"
    y2="-52.87647058823529"
    stroke="hsla(0,50%,50%,0.6)"
    stroke-width="1"
    transform="translate(226.6900605012,69.8146067415)"
    />
  
  <line
    x1="-168.98947368421054"
    y1="-54.921052631578945"
    x2="-176.27692307692308"
    y2="-51.88461538461539"
    stroke="hsla(0,50%,50%,0.6)"
    stroke-width="1"
    transform="translate(226.6900605012,69.8146067415)"
    />
  
  <line
    x1="-173.2"
    y1="-51.5"
    x2="-181.77142857142857"
    y2="-47.92857142857143"
    stroke="hsla(0,50%,50%,0.6)"
    stroke-width="1"
    transform="translate(226.6900605012,69.8146067415)"
    />
  
  <line
    x1="-168.25263157894736"
    y1="-53.76315789473684"
    x2="-170.4"
    y2="-51.1"
    stroke="hsla(0,50%,50%,0.6)"
    stroke-width="1"
    transform="translate(226.6900605012,69.8146067415)"
    />
  
  <line
    x1="-263.2"
    y1="-56.5"
    x2="-270.2"
    y2="-55.22727272727273"
    stroke="hsla(0,50%,50%,0.6)"
    stroke-width="1"
    transform="translate(226.6900605012,69.8146067415)"
    />
  
  <line
    x1="-250.8923076923077"
    y1="-68.03846153846153"
    x2="-251.8206896551724"
    y2="-65.8103448275862"
    stroke="hsla(0,50%,50%,0.6)"
    stroke-width="1"
    transform="translate(226.6900605012,69.8146067415)"
    />
  
  <line
    x1="-170.4"
    y1="-51.1"
    x2="-185.05185185185186"
    y2="-46.5"
    stroke="hsla(0,50%,50%,0.6)"
    stroke-width="1"
    transform="translate(226.6900605012,69.8146067415)"
    />
  
  <line
    x1="-168.25263157894736"
    y1="-53.76315789473684"
    x2="-208.2"
    y2="-46.5"
    stroke="hsla(0,50%,50%,0.6)"
    stroke-width="1"
    transform="translate(226.6900605012,69.8146067415)"
    />
  
  <line
    x1="-168.75555555555556"
    y1="-55.388888888888886"
    x2="-173.2"
    y2="-46.5"
    stroke="hsla(0,50%,50%,0.6)"
    stroke-width="1"
    transform="translate(226.6900605012,69.8146067415)"
    />
  
  <line
    x1="-186.53333333333333"
    y1="-56.5"
    x2="-188.9142857142857"
    y2="-50.785714285714285"
    stroke="hsla(0,50%,50%,0.6)"
    stroke-width="1"
    transform="translate(226.6900605012,69.8146067415)"
    />
  
  <line
    x1="-252.78333333333333"
    y1="-56.5"
    x2="-255.7"
    y2="-46.5"
    stroke="hsla(0,50%,50%,0.6)"
    stroke-width="1"
    transform="translate(226.6900605012,69.8146067415)"
    />
  
  <line
    x1="-181.77142857142857"
    y1="-47.92857142857143"
    x2="-182.36666666666667"
    y2="-46.5"
    stroke="hsla(0,50%,50%,0.6)"
    stroke-width="1"
    transform="translate(226.6900605012,69.8146067415)"
    />
  
  <line
    x1="-171.50588235294117"
    y1="-52.87647058823529"
    x2="-172.08962326503635"
    y2="-52.85161929940516"
    stroke="hsla(0,50%,50%,0.6)"
    stroke-width="1"
    transform="translate(226.6900605012,69.8146067415)"
    />
  
  <line
    x1="-263.2"
    y1="-56.5"
    x2="-183.2"
    y2="-56.5"
    stroke="hsla(0,50%,50%,0.6)"
    stroke-width="1"
    transform="translate(226.6900605012,69.8146067415)"
    />
  
  <line
    x1="-275.34285714285716"
    y1="-46.5"
    x2="-173.2"
    y2="-46.5"
    stroke="hsla(0,50%,50%,0.6)"
    stroke-width="1"
    transform="translate(226.6900605012,69.8146067415)"
    />
  
  <line
    x1="-173.2"
    y1="-56.5"
    x2="-168.1738219895288"
    y2="-55.2434554973822"
    stroke="hsla(0,50%,50%,0.6)"
    stroke-width="1"
    transform="translate(226.6900605012,69.8146067415)"
    />
  
  <line
    x1="-263.2"
    y1="-56.5"
    x2="-208.2"
    y2="-46.5"
    stroke="hsla(0,50%,50%,0.6)"
    stroke-width="1"
    transform="translate(226.6900605012,69.8146067415)"
    />
  
  <line
    x1="-168.75555555555556"
    y1="-55.388888888888886"
    x2="-168.78823529411764"
    y2="-54.14705882352941"
    stroke="hsla(0,50%,50%,0.6)"
    stroke-width="1"
    transform="translate(226.6900605012,69.8146067415)"
    />
  
  <line
    x1="-175.2"
    y1="-52.5"
    x2="-170.4"
    y2="-51.1"
    stroke="hsla(0,50%,50%,0.6)"
    stroke-width="1"
    transform="translate(226.6900605012,69.8146067415)"
    />
  
  <line
    x1="-173.2"
    y1="-56.5"
    x2="-173.2"
    y2="-51.5"
    stroke="hsla(0,50%,50%,0.6)"
    stroke-width="1"
    transform="translate(226.6900605012,69.8146067415)"
    />
  
  <line
    x1="-216.9037037037037"
    y1="-56.5"
    x2="-185.05185185185186"
    y2="-46.5"
    stroke="hsla(0,50%,50%,0.6)"
    stroke-width="1"
    transform="translate(226.6900605012,69.8146067415)"
    />
  
  <line
    x1="-176.72941176470587"
    y1="-52.970588235294116"
    x2="-173.2"
    y2="-51.5"
    stroke="hsla(0,50%,50%,0.6)"
    stroke-width="1"
    transform="translate(226.6900605012,69.8146067415)"
    />
  
  <line
    x1="-173.2"
    y1="-56.5"
    x2="-168.78823529411764"
    y2="-54.14705882352941"
    stroke="hsla(0,50%,50%,0.6)"
    stroke-width="1"
    transform="translate(226.6900605012,69.8146067415)"
    />
  
  <line
    x1="-256.4"
    y1="-48.9"
    x2="-248.75555555555556"
    y2="-46.5"
    stroke="hsla(0,50%,50%,0.6)"
    stroke-width="1"
    transform="translate(226.6900605012,69.8146067415)"
    />
  
  <line
    x1="-250.8923076923077"
    y1="-68.03846153846153"
    x2="-199.2"
    y2="-46.5"
    stroke="hsla(0,50%,50%,0.6)"
    stroke-width="1"
    transform="translate(226.6900605012,69.8146067415)"
    />
  
  <line
    x1="-193.2"
    y1="-56.5"
    x2="-173.2"
    y2="-46.5"
    stroke="hsla(0,50%,50%,0.6)"
    stroke-width="1"
    transform="translate(226.6900605012,69.8146067415)"
    />
  
  <line
    x1="-168.25263157894736"
    y1="-53.76315789473684"
    x2="-166.79550561797754"
    y2="-52.90449438202247"
    stroke="hsla(0,50%,50%,0.6)"
    stroke-width="1"
    transform="translate(226.6900605012,69.8146067415)"
    />
  
  <line
    x1="-169.13220338983052"
    y1="-55.483050847457626"
    x2="-168.98947368421054"
    y2="-54.921052631578945"
    stroke="hsla(0,50%,50%,0.6)"
    stroke-width="1"
    transform="translate(226.6900605012,69.8146067415)"
    />
  
  <line
    x1="-173.2"
    y1="-56.5"
    x2="-172.08962326503635"
    y2="-52.85161929940516"
    stroke="hsla(0,50%,50%,0.6)"
    stroke-width="1"
    transform="translate(226.6900605012,69.8146067415)"
    />
  
  <line
    x1="-251.8206896551724"
    y1="-65.8103448275862"
    x2="-213.2"
    y2="-46.5"
    stroke="hsla(0,50%,50%,0.6)"
    stroke-width="1"
    transform="translate(226.6900605012,69.8146067415)"
    />
  
  <line
    x1="-176.72941176470587"
    y1="-52.970588235294116"
    x2="-176.27692307692308"
    y2="-51.88461538461539"
    stroke="hsla(0,50%,50%,0.6)"
    stroke-width="1"
    transform="translate(226.6900605012,69.8146067415)"
    />
  
  <line
    x1="-186.53333333333333"
    y1="-56.5"
    x2="-182.36666666666667"
    y2="-46.5"
    stroke="hsla(0,50%,50%,0.6)"
    stroke-width="1"
    transform="translate(226.6900605012,69.8146067415)"
    />
  
  <line
    x1="-196.53333333333333"
    y1="-56.5"
    x2="-183.2"
    y2="-46.5"
    stroke="hsla(0,50%,50%,0.6)"
    stroke-width="1"
    transform="translate(226.6900605012,69.8146067415)"
    />
  
  <line
    x1="-168.1738219895288"
    y1="-55.2434554973822"
    x2="-166.79550561797754"
    y2="-52.90449438202247"
    stroke="hsla(0,50%,50%,0.6)"
    stroke-width="1"
    transform="translate(226.6900605012,69.8146067415)"
    />
  
  <line
    x1="-183.2"
    y1="-56.5"
    x2="-173.2"
    y2="-46.5"
    stroke="hsla(0,50%,50%,0.6)"
    stroke-width="1"
    transform="translate(226.6900605012,69.8146067415)"
    />
  
  <line
    x1="-252.78333333333333"
    y1="-56.5"
    x2="-252.2"
    y2="-54.5"
    stroke="hsla(0,50%,50%,0.6)"
    stroke-width="1"
    transform="translate(226.6900605012,69.8146067415)"
    />
  
  <line
    x1="-256.4"
    y1="-48.9"
    x2="-255.7"
    y2="-46.5"
    stroke="hsla(0,50%,50%,0.6)"
    stroke-width="1"
    transform="translate(226.6900605012,69.8146067415)"
    />
  
  <line
    x1="-193.2"
    y1="-56.5"
    x2="-183.2"
    y2="-46.5"
    stroke="hsla(0,50%,50%,0.6)"
    stroke-width="1"
    transform="translate(226.6900605012,69.8146067415)"
    />
  
  <line
    x1="-231.2"
    y1="-62.5"
    x2="-209.86666666666667"
    y2="-46.5"
    stroke="hsla(0,50%,50%,0.6)"
    stroke-width="1"
    transform="translate(226.6900605012,69.8146067415)"
    />
  
  <line
    x1="-239.82921348314608"
    y1="-93.12921348314607"
    x2="-193.2"
    y2="-46.5"
    stroke="hsla(0,50%,50%,0.6)"
    stroke-width="1"
    transform="translate(226.6900605012,69.8146067415)"
    />
  
  <line
    x1="-243.5370786516854"
    y1="-86.83707865168539"
    x2="-203.2"
    y2="-46.5"
    stroke="hsla(0,50%,50%,0.6)"
    stroke-width="1"
    transform="translate(226.6900605012,69.8146067415)"
    />
  
  <line
    x1="-270.2"
    y1="-55.22727272727273"
    x2="-259.3764705882353"
    y2="-46.5"
    stroke="hsla(0,50%,50%,0.6)"
    stroke-width="1"
    transform="translate(226.6900605012,69.8146067415)"
    />
  
  <line
    x1="-250.7"
    y1="-56.5"
    x2="-243.2"
    y2="-46.5"
    stroke="hsla(0,50%,50%,0.6)"
    stroke-width="1"
    transform="translate(226.6900605012,69.8146067415)"
    />
  
  <line
    x1="-286.5846153846154"
    y1="-65.57692307692308"
    x2="-275.34285714285716"
    y2="-46.5"
    stroke="hsla(0,50%,50%,0.6)"
    stroke-width="1"
    transform="translate(226.6900605012,69.8146067415)"
    />
  
</svg>
