<?xml version="1.0"?>
<!DOCTYPE svg PUBLIC "-//W3C//DTD SVG 1.1//EN"
  "http://www.w3.org/Graphics/SVG/1.1/DTD/svg11.dtd">
<svg
  width="240"
  height="240"
  viewBox="-50 -50 200 200" xmlns="http://www.w3.org/2000/svg" version="1.1">
  <rect
    x="0"
    y="0"
    width="100"
    height="100"
    fill="hsla(206,100%,53%,0.3)"
    stroke="hsl(206,100%,53%)"
    stroke-width="3"
    transform="" />
  
  <path
    d="M 
      7.8853774072
      -121.9283467479
      L
    
      44.0179929549
      -85.9005475167
      L
    
      -10.4883430177
      0.9676149003
      L
    
      -24.4675206769
      -3.9268689349
      L
    
      -25.0110348317
      -13.5129483536
      L
    
      -62.7225157165
      -51.1150328259
      z
    "
    fill="hsla(0,0%,50%,0.3)"
    stroke="hsla(0,0%,50%,1)"
    stroke-width="1"
    transform="translate(39.7059977656,35.8607891327) scale(1,-1) translate(50,-110)"
    />
  
  
  <line
    x1="-2.2054803906550586"
    y1="-102.08462133120508"
    x2="44.01799295491029"
    y2="-85.90054751677746"
    stroke="hsla(0,50%,50%,0.6)"
    stroke-width="1"
    transform="translate(39.7059977656,35.8607891327) scale(1,-1) translate(50,-110)"
    />
  
  <line
    x1="7.8853774072694875"
    y1="-121.92834674792563"
    x2="44.01799295491029"
    y2="-85.90054751677746"
    stroke="hsla(0,50%,50%,0.6)"
    stroke-width="1"
    transform="translate(39.7059977656,35.8607891327) scale(1,-1) translate(50,-110)"
    />
  
  <line
    x1="7.8853774072694875"
    y1="-121.92834674792563"
    x2="-62.72251571657907"
    y2="-51.115032825957684"
    stroke="hsla(0,50%,50%,0.6)"
    stroke-width="1"
    transform="translate(39.7059977656,35.8607891327) scale(1,-1) translate(50,-110)"
    />
  
  <line
    x1="-14.179746090429651"
    y1="-8.897229812465596"
    x2="-24.467520676953136"
    y2="-3.926868934936169"
    stroke="hsla(0,50%,50%,0.6)"
    stroke-width="1"
    transform="translate(39.7059977656,35.8607891327) scale(1,-1) translate(50,-110)"
    />
  
  <line
    x1="-2.2054803906550586"
    y1="-102.08462133120508"
    x2="-26.154652367445937"
    y2="-33.6831838927102"
    stroke="hsla(0,50%,50%,0.6)"
    stroke-width="1"
    transform="translate(39.7059977656,35.8607891327) scale(1,-1) translate(50,-110)"
    />
  
  <line
    x1="44.01799295491029"
    y1="-85.90054751677746"
    x2="-10.488343017748058"
    y2="0.9676149003699396"
    stroke="hsla(0,50%,50%,0.6)"
    stroke-width="1"
    transform="translate(39.7059977656,35.8607891327) scale(1,-1) translate(50,-110)"
    />
  
  <line
    x1="-26.154652367445937"
    y1="-33.6831838927102"
    x2="-24.467520676953136"
    y2="-3.926868934936169"
    stroke="hsla(0,50%,50%,0.6)"
    stroke-width="1"
    transform="translate(39.7059977656,35.8607891327) scale(1,-1) translate(50,-110)"
    />
  
  <line
    x1="-26.154652367445937"
    y1="-33.6831838927102"
    x2="-14.179746090429651"
    y2="-8.897229812465596"
    stroke="hsla(0,50%,50%,0.6)"
    stroke-width="1"
    transform="translate(39.7059977656,35.8607891327) scale(1,-1) translate(50,-110)"
    />
  
  <line
    x1="-24.467520676953136"
    y1="-3.926868934936169"
    x2="-10.488343017748058"
    y2="0.9676149003699396"
    stroke="hsla(0,50%,50%,0.6)"
    stroke-width="1"
    transform="translate(39.7059977656,35.8607891327) scale(1,-1) translate(50,-110)"
    />
  
  <line
    x1="-62.72251571657907"
    y1="-51.115032825957684"
    x2="-10.488343017748058"
    y2="0.9676149003699396"
    stroke="hsla(0,50%,50%,0.6)"
    stroke-width="1"
    transform="translate(39.7059977656,35.8607891327) scale(1,-1) translate(50,-110)"
    />
  
</svg>
