<?xml version="1.0"?>
<!DOCTYPE svg PUBLIC "-//W3C//DTD SVG 1.1//EN"
  "http://www.w3.org/Graphics/SVG/1.1/DTD/svg11.dtd">
<svg
  width="240"
  height="240"
  viewBox="-500 -500 1000 1000" xmlns="http://www.w3.org/2000/svg" version="1.1">
  <rect
    x="0"
    y="0"
    width="100"
    height="100"
    fill="hsla(206,100%,53%,0.3)"
    stroke="hsl(206,100%,53%)"
    stroke-width="3"
    transform="" />
  
  <path
    d="M 
      50
      0
      L
    
      100
      0
      L
    
      100
      55.3191489361
      L
    
      119.1176470588
      76.4705882352
      L
    
      105.1903114186
      97.2318339100
      L
    
      100
      93.75
      L
    
      100
      100
      L
    
      75
      100
      z
    "
    fill="hsla(0,0%,50%,0.3)"
    stroke="hsla(0,0%,50%,1)"
    stroke-width="1"
    transform="translate(-84.5588235294,-50)"
    />
  
  
  <line
    x1="50"
    y1="0"
    x2="119.11764705882354"
    y2="76.47058823529412"
    stroke="hsla(0,50%,50%,0.6)"
    stroke-width="1"
    transform="translate(-84.5588235294,-50)"
    />
  
  <line
    x1="50"
    y1="0"
    x2="94.11764705882354"
    y2="23.529411764705884"
    stroke="hsla(0,50%,50%,0.6)"
    stroke-width="1"
    transform="translate(-84.5588235294,-50)"
    />
  
  <line
    x1="50"
    y1="0"
    x2="75"
    y2="100"
    stroke="hsla(0,50%,50%,0.6)"
    stroke-width="1"
    transform="translate(-84.5588235294,-50)"
    />
  
  <line
    x1="50"
    y1="0"
    x2="100"
    y2="0"
    stroke="hsla(0,50%,50%,0.6)"
    stroke-width="1"
    transform="translate(-84.5588235294,-50)"
    />
  
  <line
    x1="100"
    y1="0"
    x2="100"
    y2="100"
    stroke="hsla(0,50%,50%,0.6)"
    stroke-width="1"
    transform="translate(-84.5588235294,-50)"
    />
  
  <line
    x1="68.08510638297872"
    y1="72.34042553191489"
    x2="105.19031141868513"
    y2="97.2318339100346"
    stroke="hsla(0,50%,50%,0.6)"
    stroke-width="1"
    transform="translate(-84.5588235294,-50)"
    />
  
  <line
    x1="94.11764705882354"
    y1="23.529411764705884"
    x2="68.08510638297872"
    y2="72.34042553191489"
    stroke="hsla(0,50%,50%,0.6)"
    stroke-width="1"
    transform="translate(-84.5588235294,-50)"
    />
  
  <line
    x1="119.11764705882354"
    y1="76.47058823529412"
    x2="105.19031141868513"
    y2="97.2318339100346"
    stroke="hsla(0,50%,50%,0.6)"
    stroke-width="1"
    transform="translate(-84.5588235294,-50)"
    />
  
  <line
    x1="75"
    y1="100"
    x2="100"
    y2="100"
    stroke="hsla(0,50%,50%,0.6)"
    stroke-width="1"
    transform="translate(-84.5588235294,-50)"
    />
  
  <line
    x1="119.11764705882354"
    y1="76.47058823529412"
    x2="75"
    y2="100"
    stroke="hsla(0,50%,50%,0.6)"
    stroke-width="1"
    transform="translate(-84.5588235294,-50)"
    />
  
</svg>
