<?xml version="1.0"?>
<!DOCTYPE svg PUBLIC "-//W3C//DTD SVG 1.1//EN"
  "http://www.w3.org/Graphics/SVG/1.1/DTD/svg11.dtd">
<svg
  width="240"
  height="240"
  viewBox="-500 -500 1000 1000" xmlns="http://www.w3.org/2000/svg" version="1.1">
  <rect
    x="0"
    y="0"
    width="100"
    height="100"
    fill="hsla(206,100%,53%,0.3)"
    stroke="hsl(206,100%,53%)"
    stroke-width="3"
    transform="" />
  
  <path
    d="M 
      75
      66.6666666666
      L
    
      105.5555555555
      66.6666666666
      L
    
      110.8108108108
      68.4684684684
      L
    
      100
      100
      L
    
      75
      100
      z
    "
    fill="hsla(0,0%,50%,0.3)"
    stroke="hsla(0,0%,50%,1)"
    stroke-width="1"
    transform="translate(-92.9054054054,-83.3333333333)"
    />
  
  
  <line
    x1="105.3422756706753"
    y1="66.66666666666667"
    x2="105.38714390065742"
    y2="66.72440780548888"
    stroke="hsla(0,50%,50%,0.6)"
    stroke-width="1"
    transform="translate(-92.9054054054,-83.3333333333)"
    />
  
  <line
    x1="99.74185563917294"
    y1="66.66666666666667"
    x2="102.54206565492412"
    y2="70.27027027027027"
    stroke="hsla(0,50%,50%,0.6)"
    stroke-width="1"
    transform="translate(-92.9054054054,-83.3333333333)"
    />
  
  <line
    x1="108.98985221415128"
    y1="67.84413980675663"
    x2="109.85768330030625"
    y2="71.2484237074401"
    stroke="hsla(0,50%,50%,0.6)"
    stroke-width="1"
    transform="translate(-92.9054054054,-83.3333333333)"
    />
  
  <line
    x1="88.57142857142857"
    y1="66.66666666666667"
    x2="100"
    y2="100"
    stroke="hsla(0,50%,50%,0.6)"
    stroke-width="1"
    transform="translate(-92.9054054054,-83.3333333333)"
    />
  
  <line
    x1="105.55555555555556"
    y1="66.66666666666667"
    x2="110.1930501930502"
    y2="70.27027027027027"
    stroke="hsla(0,50%,50%,0.6)"
    stroke-width="1"
    transform="translate(-92.9054054054,-83.3333333333)"
    />
  
  <line
    x1="101.23015873015873"
    y1="66.66666666666667"
    x2="105.86765336765336"
    y2="70.27027027027027"
    stroke="hsla(0,50%,50%,0.6)"
    stroke-width="1"
    transform="translate(-92.9054054054,-83.3333333333)"
    />
  
  <line
    x1="75"
    y1="66.66666666666667"
    x2="75"
    y2="100"
    stroke="hsla(0,50%,50%,0.6)"
    stroke-width="1"
    transform="translate(-92.9054054054,-83.3333333333)"
    />
  
  <line
    x1="85.51862673484295"
    y1="66.66666666666667"
    x2="85.51862673484295"
    y2="72.39995702380381"
    stroke="hsla(0,50%,50%,0.6)"
    stroke-width="1"
    transform="translate(-92.9054054054,-83.3333333333)"
    />
  
  <line
    x1="103.37837837837837"
    y1="66.66666666666667"
    x2="103.37837837837837"
    y2="86.87258687258688"
    stroke="hsla(0,50%,50%,0.6)"
    stroke-width="1"
    transform="translate(-92.9054054054,-83.3333333333)"
    />
  
  <line
    x1="105.38714390065742"
    y1="66.66666666666667"
    x2="105.38714390065742"
    y2="84.28749695641588"
    stroke="hsla(0,50%,50%,0.6)"
    stroke-width="1"
    transform="translate(-92.9054054054,-83.3333333333)"
    />
  
  <line
    x1="75"
    y1="80.57354301572617"
    x2="100"
    y2="100"
    stroke="hsla(0,50%,50%,0.6)"
    stroke-width="1"
    transform="translate(-92.9054054054,-83.3333333333)"
    />
  
  <line
    x1="75"
    y1="98.33487511563368"
    x2="77.14285714285714"
    y2="100"
    stroke="hsla(0,50%,50%,0.6)"
    stroke-width="1"
    transform="translate(-92.9054054054,-83.3333333333)"
    />
  
  <line
    x1="105.55555555555556"
    y1="66.66666666666667"
    x2="110.8108108108108"
    y2="68.46846846846847"
    stroke="hsla(0,50%,50%,0.6)"
    stroke-width="1"
    transform="translate(-92.9054054054,-83.3333333333)"
    />
  
  <line
    x1="88.57142857142857"
    y1="66.66666666666667"
    x2="77.14285714285714"
    y2="100"
    stroke="hsla(0,50%,50%,0.6)"
    stroke-width="1"
    transform="translate(-92.9054054054,-83.3333333333)"
    />
  
  <line
    x1="110.8108108108108"
    y1="68.46846846846847"
    x2="100"
    y2="100"
    stroke="hsla(0,50%,50%,0.6)"
    stroke-width="1"
    transform="translate(-92.9054054054,-83.3333333333)"
    />
  
  <line
    x1="86.97163475973139"
    y1="66.66666666666667"
    x2="97.63044885995706"
    y2="69.38384610515759"
    stroke="hsla(0,50%,50%,0.6)"
    stroke-width="1"
    transform="translate(-92.9054054054,-83.3333333333)"
    />
  
  <line
    x1="75"
    y1="77.14285714285714"
    x2="103.37837837837837"
    y2="86.87258687258688"
    stroke="hsla(0,50%,50%,0.6)"
    stroke-width="1"
    transform="translate(-92.9054054054,-83.3333333333)"
    />
  
  <line
    x1="75"
    y1="69.71851460288093"
    x2="85.51862673484295"
    y2="72.39995702380381"
    stroke="hsla(0,50%,50%,0.6)"
    stroke-width="1"
    transform="translate(-92.9054054054,-83.3333333333)"
    />
  
  <line
    x1="75"
    y1="66.66666666666667"
    x2="105.55555555555556"
    y2="66.66666666666667"
    stroke="hsla(0,50%,50%,0.6)"
    stroke-width="1"
    transform="translate(-92.9054054054,-83.3333333333)"
    />
  
  <line
    x1="75"
    y1="69.32067202337473"
    x2="97.81470659849039"
    y2="69.32067202337473"
    stroke="hsla(0,50%,50%,0.6)"
    stroke-width="1"
    transform="translate(-92.9054054054,-83.3333333333)"
    />
  
  <line
    x1="75"
    y1="70.27027027027027"
    x2="110.1930501930502"
    y2="70.27027027027027"
    stroke="hsla(0,50%,50%,0.6)"
    stroke-width="1"
    transform="translate(-92.9054054054,-83.3333333333)"
    />
  
  <line
    x1="99.74185563917294"
    y1="66.66666666666667"
    x2="97.63044885995706"
    y2="69.38384610515759"
    stroke="hsla(0,50%,50%,0.6)"
    stroke-width="1"
    transform="translate(-92.9054054054,-83.3333333333)"
    />
  
  <line
    x1="105.3422756706753"
    y1="66.66666666666667"
    x2="102.54206565492412"
    y2="70.27027027027027"
    stroke="hsla(0,50%,50%,0.6)"
    stroke-width="1"
    transform="translate(-92.9054054054,-83.3333333333)"
    />
  
  <line
    x1="105.38714390065742"
    y1="84.28749695641588"
    x2="103.37837837837837"
    y2="86.87258687258688"
    stroke="hsla(0,50%,50%,0.6)"
    stroke-width="1"
    transform="translate(-92.9054054054,-83.3333333333)"
    />
  
  <line
    x1="86.97163475973139"
    y1="66.66666666666667"
    x2="75"
    y2="69.71851460288093"
    stroke="hsla(0,50%,50%,0.6)"
    stroke-width="1"
    transform="translate(-92.9054054054,-83.3333333333)"
    />
  
  <line
    x1="85.51862673484295"
    y1="72.39995702380381"
    x2="75"
    y2="80.57354301572617"
    stroke="hsla(0,50%,50%,0.6)"
    stroke-width="1"
    transform="translate(-92.9054054054,-83.3333333333)"
    />
  
  <line
    x1="101.23015873015873"
    y1="66.66666666666667"
    x2="97.81470659849039"
    y2="69.32067202337473"
    stroke="hsla(0,50%,50%,0.6)"
    stroke-width="1"
    transform="translate(-92.9054054054,-83.3333333333)"
    />
  
  <line
    x1="105.55555555555556"
    y1="66.66666666666667"
    x2="75"
    y2="77.14285714285714"
    stroke="hsla(0,50%,50%,0.6)"
    stroke-width="1"
    transform="translate(-92.9054054054,-83.3333333333)"
    />
  
  <line
    x1="108.98985221415128"
    y1="67.84413980675663"
    x2="105.86765336765336"
    y2="70.27027027027027"
    stroke="hsla(0,50%,50%,0.6)"
    stroke-width="1"
    transform="translate(-92.9054054054,-83.3333333333)"
    />
  
  <line
    x1="109.85768330030625"
    y1="71.2484237074401"
    x2="75"
    y2="98.33487511563368"
    stroke="hsla(0,50%,50%,0.6)"
    stroke-width="1"
    transform="translate(-92.9054054054,-83.3333333333)"
    />
  
  <line
    x1="75"
    y1="100"
    x2="100"
    y2="100"
    stroke="hsla(0,50%,50%,0.6)"
    stroke-width="1"
    transform="translate(-92.9054054054,-83.3333333333)"
    />
  
</svg>
