<?xml version="1.0"?>
<!DOCTYPE svg PUBLIC "-//W3C//DTD SVG 1.1//EN"
  "http://www.w3.org/Graphics/SVG/1.1/DTD/svg11.dtd">
<svg
  width="240"
  height="240"
  viewBox="-50 -50 200 200" xmlns="http://www.w3.org/2000/svg" version="1.1">
  <rect
    x="0"
    y="0"
    width="100"
    height="100"
    fill="hsla(206,100%,53%,0.3)"
    stroke="hsl(206,100%,53%)"
    stroke-width="3"
    transform="" />
  
  <path
    d="M 
      100
      1.6523264401
      L
    
      100.6550716654
      2.8993260053
      L
    
      100
      3.2462443887
      L
    
      100
      37.6452157525
      L
    
      100.3227046772
      37.6948915375
      L
    
      100
      44.7753524945
      L
    
      -4.4038254134
      42.3973911782
      L
    
      -7.9516399964
      26.1027589666
      L
    
      0.4140555757
      24.2813041241
      L
    
      0.9163213214
      22.3926958349
      L
    
      5.7035665383
      23.1296239950
      L
    
      67.3123190960
      9.7156096173
      z
    "
    fill="hsla(0,0%,50%,0.3)"
    stroke="hsla(0,0%,50%,1)"
    stroke-width="1"
    transform="translate(-36.4692517236,-17.0110213199) scale(1,-1) translate(50,-110)"
    />
  
  
  <line
    x1="100.54028188026007"
    y1="2.6843130243003244"
    x2="100.65507166543047"
    y2="2.8993260053064818"
    stroke="hsla(0,50%,50%,0.6)"
    stroke-width="1"
    transform="translate(-36.4692517236,-17.0110213199) scale(1,-1) translate(50,-110)"
    />
  
  <line
    x1="100"
    y1="1.6523264401772526"
    x2="100.65507166543047"
    y2="2.8993260053064818"
    stroke="hsla(0,50%,50%,0.6)"
    stroke-width="1"
    transform="translate(-36.4692517236,-17.0110213199) scale(1,-1) translate(50,-110)"
    />
  
  <line
    x1="89.75914110541802"
    y1="4.828284673018147"
    x2="98.44908655345448"
    y2="44.74002800175981"
    stroke="hsla(0,50%,50%,0.6)"
    stroke-width="1"
    transform="translate(-36.4692517236,-17.0110213199) scale(1,-1) translate(50,-110)"
    />
  
  <line
    x1="0"
    y1="26.319977843426884"
    x2="0"
    y2="42.497695227765725"
    stroke="hsla(0,50%,50%,0.6)"
    stroke-width="1"
    transform="translate(-36.4692517236,-17.0110213199) scale(1,-1) translate(50,-110)"
    />
  
  <line
    x1="100"
    y1="1.6523264401772526"
    x2="100"
    y2="44.77535249457701"
    stroke="hsla(0,50%,50%,0.6)"
    stroke-width="1"
    transform="translate(-36.4692517236,-17.0110213199) scale(1,-1) translate(50,-110)"
    />
  
  <line
    x1="0.91632132141187"
    y1="22.392695834925487"
    x2="0"
    y2="42.497695227765725"
    stroke="hsla(0,50%,50%,0.6)"
    stroke-width="1"
    transform="translate(-36.4692517236,-17.0110213199) scale(1,-1) translate(50,-110)"
    />
  
  <line
    x1="0.91632132141187"
    y1="22.392695834925487"
    x2="-4.403825413418963"
    y2="42.39739117821931"
    stroke="hsla(0,50%,50%,0.6)"
    stroke-width="1"
    transform="translate(-36.4692517236,-17.0110213199) scale(1,-1) translate(50,-110)"
    />
  
  <line
    x1="-7.951639996418645"
    y1="26.102758966616065"
    x2="-4.403825413418963"
    y2="42.39739117821931"
    stroke="hsla(0,50%,50%,0.6)"
    stroke-width="1"
    transform="translate(-36.4692517236,-17.0110213199) scale(1,-1) translate(50,-110)"
    />
  
  <line
    x1="100.32270467725711"
    y1="37.69489153757973"
    x2="100"
    y2="44.77535249457701"
    stroke="hsla(0,50%,50%,0.6)"
    stroke-width="1"
    transform="translate(-36.4692517236,-17.0110213199) scale(1,-1) translate(50,-110)"
    />
  
  <line
    x1="0"
    y1="26.319977843426884"
    x2="8.601365562508528"
    y2="42.6936048555452"
    stroke="hsla(0,50%,50%,0.6)"
    stroke-width="1"
    transform="translate(-36.4692517236,-17.0110213199) scale(1,-1) translate(50,-110)"
    />
  
  <line
    x1="12.603348976601373"
    y1="35.969618569367114"
    x2="12.577052047224408"
    y2="36.02318518410679"
    stroke="hsla(0,50%,50%,0.6)"
    stroke-width="1"
    transform="translate(-36.4692517236,-17.0110213199) scale(1,-1) translate(50,-110)"
    />
  
  <line
    x1="12.519431742720652"
    y1="35.994898216831025"
    x2="8.601365562508528"
    y2="42.6936048555452"
    stroke="hsla(0,50%,50%,0.6)"
    stroke-width="1"
    transform="translate(-36.4692517236,-17.0110213199) scale(1,-1) translate(50,-110)"
    />
  
  <line
    x1="12.603348976601373"
    y1="35.969618569367114"
    x2="24.7272895426516"
    y2="43.0608981349194"
    stroke="hsla(0,50%,50%,0.6)"
    stroke-width="1"
    transform="translate(-36.4692517236,-17.0110213199) scale(1,-1) translate(50,-110)"
    />
  
  <line
    x1="0.91632132141187"
    y1="22.392695834925487"
    x2="100.32270467725711"
    y2="37.69489153757973"
    stroke="hsla(0,50%,50%,0.6)"
    stroke-width="1"
    transform="translate(-36.4692517236,-17.0110213199) scale(1,-1) translate(50,-110)"
    />
  
  <line
    x1="89.75914110541802"
    y1="4.828284673018147"
    x2="-7.951639996418645"
    y2="26.102758966616065"
    stroke="hsla(0,50%,50%,0.6)"
    stroke-width="1"
    transform="translate(-36.4692517236,-17.0110213199) scale(1,-1) translate(50,-110)"
    />
  
  <line
    x1="12.519431742720652"
    y1="35.994898216831025"
    x2="12.577052047224408"
    y2="36.02318518410679"
    stroke="hsla(0,50%,50%,0.6)"
    stroke-width="1"
    transform="translate(-36.4692517236,-17.0110213199) scale(1,-1) translate(50,-110)"
    />
  
  <line
    x1="100"
    y1="1.6523264401772526"
    x2="0"
    y2="26.319977843426884"
    stroke="hsla(0,50%,50%,0.6)"
    stroke-width="1"
    transform="translate(-36.4692517236,-17.0110213199) scale(1,-1) translate(50,-110)"
    />
  
  <line
    x1="100.32270467725711"
    y1="37.69489153757973"
    x2="98.44908655345448"
    y2="44.74002800175981"
    stroke="hsla(0,50%,50%,0.6)"
    stroke-width="1"
    transform="translate(-36.4692517236,-17.0110213199) scale(1,-1) translate(50,-110)"
    />
  
  <line
    x1="12.603348976601373"
    y1="35.969618569367114"
    x2="12.519431742720652"
    y2="35.994898216831025"
    stroke="hsla(0,50%,50%,0.6)"
    stroke-width="1"
    transform="translate(-36.4692517236,-17.0110213199) scale(1,-1) translate(50,-110)"
    />
  
  <line
    x1="-4.403825413418963"
    y1="42.39739117821931"
    x2="100"
    y2="44.77535249457701"
    stroke="hsla(0,50%,50%,0.6)"
    stroke-width="1"
    transform="translate(-36.4692517236,-17.0110213199) scale(1,-1) translate(50,-110)"
    />
  
  <line
    x1="100.54028188026007"
    y1="2.6843130243003244"
    x2="36.17972956575034"
    y2="37.04472205197394"
    stroke="hsla(0,50%,50%,0.6)"
    stroke-width="1"
    transform="translate(-36.4692517236,-17.0110213199) scale(1,-1) translate(50,-110)"
    />
  
  <line
    x1="100.65507166543047"
    y1="2.8993260053064818"
    x2="36.17972956575034"
    y2="37.04472205197394"
    stroke="hsla(0,50%,50%,0.6)"
    stroke-width="1"
    transform="translate(-36.4692517236,-17.0110213199) scale(1,-1) translate(50,-110)"
    />
  
  <line
    x1="36.17972956575034"
    y1="37.04472205197394"
    x2="24.7272895426516"
    y2="43.0608981349194"
    stroke="hsla(0,50%,50%,0.6)"
    stroke-width="1"
    transform="translate(-36.4692517236,-17.0110213199) scale(1,-1) translate(50,-110)"
    />
  
</svg>
