<?xml version="1.0"?>
<!DOCTYPE svg PUBLIC "-//W3C//DTD SVG 1.1//EN"
  "http://www.w3.org/Graphics/SVG/1.1/DTD/svg11.dtd">
<svg
  width="240"
  height="240"
  viewBox="-500 -500 1000 1000" xmlns="http://www.w3.org/2000/svg" version="1.1">
  <rect
    x="0"
    y="0"
    width="100"
    height="100"
    fill="hsla(206,100%,53%,0.3)"
    stroke="hsl(206,100%,53%)"
    stroke-width="3"
    transform="" />
  
  <path
    d="M 
      106
      32
      L
    
      107.4295176630
      36.9012034161
      L
    
      79.1903872282
      97.6657608695
      L
    
      26.0213994565
      72.9565217391
      L
    
      24.3807744565
      67.3315217391
      L
    
      66.3807744565
      55.0815217391
      L
    
      67.8290773871
      54.4400743707
      L
    
      70
      42.5
      z
    "
    fill="hsla(0,0%,50%,0.3)"
    stroke="hsla(0,0%,50%,1)"
    stroke-width="1"
    transform="translate(-65.9051460597,-64.8328804347)"
    />
  
  
  <line
    x1="102.28318584070796"
    y1="39.99778761061947"
    x2="104.0922214673913"
    y2="44.08234969429348"
    stroke="hsla(0,50%,50%,0.6)"
    stroke-width="1"
    transform="translate(-65.9051460597,-64.8328804347)"
    />
  
  <line
    x1="106"
    y1="32"
    x2="107.42951766304348"
    y2="36.901203416149066"
    stroke="hsla(0,50%,50%,0.6)"
    stroke-width="1"
    transform="translate(-65.9051460597,-64.8328804347)"
    />
  
  <line
    x1="98.38077445652173"
    y1="35.33152173913044"
    x2="105.63170202759197"
    y2="40.769717417433114"
    stroke="hsla(0,50%,50%,0.6)"
    stroke-width="1"
    transform="translate(-65.9051460597,-64.8328804347)"
    />
  
  <line
    x1="70"
    y1="42.5"
    x2="95.82599550585284"
    y2="61.86949662938963"
    stroke="hsla(0,50%,50%,0.6)"
    stroke-width="1"
    transform="translate(-65.9051460597,-64.8328804347)"
    />
  
  <line
    x1="24.38077445652174"
    y1="67.33152173913044"
    x2="26.02139945652174"
    y2="72.95652173913044"
    stroke="hsla(0,50%,50%,0.6)"
    stroke-width="1"
    transform="translate(-65.9051460597,-64.8328804347)"
    />
  
  <line
    x1="70"
    y1="42.5"
    x2="61.46739130434783"
    y2="89.42934782608695"
    stroke="hsla(0,50%,50%,0.6)"
    stroke-width="1"
    transform="translate(-65.9051460597,-64.8328804347)"
    />
  
  <line
    x1="102.28318584070796"
    y1="39.99778761061947"
    x2="105.63170202759197"
    y2="40.769717417433114"
    stroke="hsla(0,50%,50%,0.6)"
    stroke-width="1"
    transform="translate(-65.9051460597,-64.8328804347)"
    />
  
  <line
    x1="66.38077445652173"
    y1="55.08152173913044"
    x2="58.753370610367895"
    y2="88.16806020066889"
    stroke="hsla(0,50%,50%,0.6)"
    stroke-width="1"
    transform="translate(-65.9051460597,-64.8328804347)"
    />
  
  <line
    x1="66.38077445652173"
    y1="55.08152173913044"
    x2="95.82599550585284"
    y2="61.86949662938963"
    stroke="hsla(0,50%,50%,0.6)"
    stroke-width="1"
    transform="translate(-65.9051460597,-64.8328804347)"
    />
  
  <line
    x1="107.42951766304348"
    y1="36.901203416149066"
    x2="79.19038722826087"
    y2="97.66576086956522"
    stroke="hsla(0,50%,50%,0.6)"
    stroke-width="1"
    transform="translate(-65.9051460597,-64.8328804347)"
    />
  
  <line
    x1="26.02139945652174"
    y1="72.95652173913044"
    x2="79.19038722826087"
    y2="97.66576086956522"
    stroke="hsla(0,50%,50%,0.6)"
    stroke-width="1"
    transform="translate(-65.9051460597,-64.8328804347)"
    />
  
  <line
    x1="106"
    y1="32"
    x2="70"
    y2="42.5"
    stroke="hsla(0,50%,50%,0.6)"
    stroke-width="1"
    transform="translate(-65.9051460597,-64.8328804347)"
    />
  
  <line
    x1="98.38077445652173"
    y1="35.33152173913044"
    x2="58.753370610367895"
    y2="88.16806020066889"
    stroke="hsla(0,50%,50%,0.6)"
    stroke-width="1"
    transform="translate(-65.9051460597,-64.8328804347)"
    />
  
  <line
    x1="102.28318584070796"
    y1="39.99778761061947"
    x2="61.46739130434783"
    y2="89.42934782608695"
    stroke="hsla(0,50%,50%,0.6)"
    stroke-width="1"
    transform="translate(-65.9051460597,-64.8328804347)"
    />
  
  <line
    x1="104.0922214673913"
    y1="44.08234969429348"
    x2="24.38077445652174"
    y2="67.33152173913044"
    stroke="hsla(0,50%,50%,0.6)"
    stroke-width="1"
    transform="translate(-65.9051460597,-64.8328804347)"
    />
  
  <line
    x1="107.42951766304348"
    y1="36.901203416149066"
    x2="26.02139945652174"
    y2="72.95652173913044"
    stroke="hsla(0,50%,50%,0.6)"
    stroke-width="1"
    transform="translate(-65.9051460597,-64.8328804347)"
    />
  
</svg>
