<?xml version="1.0"?>
<!DOCTYPE svg PUBLIC "-//W3C//DTD SVG 1.1//EN"
  "http://www.w3.org/Graphics/SVG/1.1/DTD/svg11.dtd">
<svg
  width="240"
  height="240"
  viewBox="-50 -50 200 200" xmlns="http://www.w3.org/2000/svg" version="1.1">
  <rect
    x="0"
    y="0"
    width="100"
    height="100"
    fill="hsla(206,100%,53%,0.3)"
    stroke="hsl(206,100%,53%)"
    stroke-width="3"
    transform="" />
  
  <path
    d="M 
      16.6666666666
      -16.6666666666
      L
    
      66.6666666666
      -16.6666666666
      L
    
      66.6666666666
      0
      L
    
      100
      0
      L
    
      100
      16.6666666666
      L
    
      66.6666666666
      50
      L
    
      16.6666666666
      0
      z
    "
    fill="hsla(0,0%,50%,0.3)"
    stroke="hsla(0,0%,50%,1)"
    stroke-width="1"
    transform="translate(-47.1354166666,-14.0625) scale(1,-1) translate(50,-110)"
    />
  
  
  <line
    x1="16.666666666666668"
    y1="-16.666666666666668"
    x2="66.66666666666667"
    y2="-16.666666666666668"
    stroke="hsla(0,50%,50%,0.6)"
    stroke-width="1"
    transform="translate(-47.1354166666,-14.0625) scale(1,-1) translate(50,-110)"
    />
  
  <line
    x1="16.666666666666668"
    y1="0"
    x2="66.66666666666667"
    y2="50"
    stroke="hsla(0,50%,50%,0.6)"
    stroke-width="1"
    transform="translate(-47.1354166666,-14.0625) scale(1,-1) translate(50,-110)"
    />
  
  <line
    x1="16.666666666666668"
    y1="0"
    x2="100"
    y2="0"
    stroke="hsla(0,50%,50%,0.6)"
    stroke-width="1"
    transform="translate(-47.1354166666,-14.0625) scale(1,-1) translate(50,-110)"
    />
  
  <line
    x1="16.666666666666668"
    y1="-16.666666666666668"
    x2="16.666666666666668"
    y2="0"
    stroke="hsla(0,50%,50%,0.6)"
    stroke-width="1"
    transform="translate(-47.1354166666,-14.0625) scale(1,-1) translate(50,-110)"
    />
  
  <line
    x1="66.66666666666667"
    y1="-16.666666666666668"
    x2="66.66666666666667"
    y2="50"
    stroke="hsla(0,50%,50%,0.6)"
    stroke-width="1"
    transform="translate(-47.1354166666,-14.0625) scale(1,-1) translate(50,-110)"
    />
  
  <line
    x1="100"
    y1="0"
    x2="100"
    y2="16.666666666666668"
    stroke="hsla(0,50%,50%,0.6)"
    stroke-width="1"
    transform="translate(-47.1354166666,-14.0625) scale(1,-1) translate(50,-110)"
    />
  
  <line
    x1="66.66666666666667"
    y1="16.666666666666668"
    x2="100"
    y2="16.666666666666668"
    stroke="hsla(0,50%,50%,0.6)"
    stroke-width="1"
    transform="translate(-47.1354166666,-14.0625) scale(1,-1) translate(50,-110)"
    />
  
  <line
    x1="100"
    y1="16.666666666666668"
    x2="66.66666666666667"
    y2="50"
    stroke="hsla(0,50%,50%,0.6)"
    stroke-width="1"
    transform="translate(-47.1354166666,-14.0625) scale(1,-1) translate(50,-110)"
    />
  
</svg>
