<?xml version="1.0"?>
<!DOCTYPE svg PUBLIC "-//W3C//DTD SVG 1.1//EN"
  "http://www.w3.org/Graphics/SVG/1.1/DTD/svg11.dtd">
<svg
  width="240"
  height="240"
  viewBox="-500 -500 1000 1000" xmlns="http://www.w3.org/2000/svg" version="1.1">
  <rect
    x="0"
    y="0"
    width="100"
    height="100"
    fill="hsla(206,100%,53%,0.3)"
    stroke="hsl(206,100%,53%)"
    stroke-width="3"
    transform="" />
  
  <path
    d="M 
      100000000000000001587.5
      0
      L
    
      100000000000000001612.5
      0
      L
    
      100000000000000001625
      12.5
      L
    
      100000000000000001625
      25
      L
    
      100000000000000001612.5
      37.5
      L
    
      100000000000000001600
      37.5
      L
    
      100000000000000001587.5
      25
      z
    "
    fill="hsla(0,0%,50%,0.3)"
    stroke="hsla(0,0%,50%,1)"
    stroke-width="1"
    transform="translate(-100000000000000001606.25,-18.75)"
    />
  
  <path
    d="M 
      100000000000000001600
      12.5
      L
    
      100000000000000001600
      25
      L
    
      100000000000000001612.5
      25
      L
    
      100000000000000001612.5
      12.5
      z
    "
    fill="hsla(0,0%,50%,0.3)"
    stroke="hsla(0,0%,50%,1)"
    stroke-width="1"
    transform="translate(-100000000000000001606.25,-18.75)"
    />
  
  
  <line
    x1="100000000000000000000"
    y1="0"
    x2="100000000000000000000"
    y2="12.5"
    stroke="hsla(0,50%,50%,0.6)"
    stroke-width="1"
    transform="translate(-100000000000000001606.25,-18.75)"
    />
  
  <line
    x1="100000000000000000000"
    y1="25"
    x2="100000000000000000000"
    y2="37.5"
    stroke="hsla(0,50%,50%,0.6)"
    stroke-width="1"
    transform="translate(-100000000000000001606.25,-18.75)"
    />
  
  <line
    x1="100000000000000000000"
    y1="0"
    x2="100000000000000000000"
    y2="0"
    stroke="hsla(0,50%,50%,0.6)"
    stroke-width="1"
    transform="translate(-100000000000000001606.25,-18.75)"
    />
  
  <line
    x1="100000000000000000000"
    y1="0"
    x2="100000000000000000000"
    y2="25"
    stroke="hsla(0,50%,50%,0.6)"
    stroke-width="1"
    transform="translate(-100000000000000001606.25,-18.75)"
    />
  
  <line
    x1="100000000000000000000"
    y1="0"
    x2="100000000000000000000"
    y2="37.5"
    stroke="hsla(0,50%,50%,0.6)"
    stroke-width="1"
    transform="translate(-100000000000000001606.25,-18.75)"
    />
  
  <line
    x1="100000000000000000000"
    y1="0"
    x2="100000000000000000000"
    y2="37.5"
    stroke="hsla(0,50%,50%,0.6)"
    stroke-width="1"
    transform="translate(-100000000000000001606.25,-18.75)"
    />
  
  <line
    x1="100000000000000000000"
    y1="12.5"
    x2="100000000000000000000"
    y2="25"
    stroke="hsla(0,50%,50%,0.6)"
    stroke-width="1"
    transform="translate(-100000000000000001606.25,-18.75)"
    />
  
  <line
    x1="100000000000000000000"
    y1="12.5"
    x2="100000000000000000000"
    y2="12.5"
    stroke="hsla(0,50%,50%,0.6)"
    stroke-width="1"
    transform="translate(-100000000000000001606.25,-18.75)"
    />
  
  <line
    x1="100000000000000000000"
    y1="25"
    x2="100000000000000000000"
    y2="25"
    stroke="hsla(0,50%,50%,0.6)"
    stroke-width="1"
    transform="translate(-100000000000000001606.25,-18.75)"
    />
  
  <line
    x1="100000000000000000000"
    y1="37.5"
    x2="100000000000000000000"
    y2="37.5"
    stroke="hsla(0,50%,50%,0.6)"
    stroke-width="1"
    transform="translate(-100000000000000001606.25,-18.75)"
    />
  
  <line
    x1="100000000000000000000"
    y1="25"
    x2="100000000000000000000"
    y2="37.5"
    stroke="hsla(0,50%,50%,0.6)"
    stroke-width="1"
    transform="translate(-100000000000000001606.25,-18.75)"
    />
  
</svg>
