<?xml version="1.0"?>
<!DOCTYPE svg PUBLIC "-//W3C//DTD SVG 1.1//EN"
  "http://www.w3.org/Graphics/SVG/1.1/DTD/svg11.dtd">
<svg
  width="240"
  height="240"
  viewBox="-50 -50 200 200" xmlns="http://www.w3.org/2000/svg" version="1.1">
  <rect
    x="0"
    y="0"
    width="100"
    height="100"
    fill="hsla(206,100%,53%,0.3)"
    stroke="hsl(206,100%,53%)"
    stroke-width="3"
    transform="" />
  
  <path
    d="M 
      48.3159178775
      -65.8708533315
      L
    
      50.0607369180
      5.3759241536
      L
    
      -0.0644546713
      7.4663292783
      L
    
      -0.2781028372
      2.4606031496
      L
    
      -0.1419088942
      2.4539284226
      L
    
      -2.0208902498
      -64.4573101665
      L
    
      -1.3091469317
      -64.4772971291
      L
    
      -1.3165932851
      -64.8336071619
      z
    "
    fill="hsla(0,0%,50%,0.3)"
    stroke="hsla(0,0%,50%,1)"
    stroke-width="1"
    transform="translate(0.4881941649,56.7189824984) scale(1,-1) translate(50,-110)"
    />
  
  
  <line
    x1="48.31591787759418"
    y1="-65.87085333157121"
    x2="-1.316593285165411"
    y2="-64.83360716198843"
    stroke="hsla(0,50%,50%,0.6)"
    stroke-width="1"
    transform="translate(0.4881941649,56.7189824984) scale(1,-1) translate(50,-110)"
    />
  
  <line
    x1="48.31591787759418"
    y1="-65.87085333157121"
    x2="-2.0208902498495696"
    y2="-64.45731016655766"
    stroke="hsla(0,50%,50%,0.6)"
    stroke-width="1"
    transform="translate(0.4881941649,56.7189824984) scale(1,-1) translate(50,-110)"
    />
  
  <line
    x1="48.31591787759418"
    y1="-65.87085333157121"
    x2="50.06073691804969"
    y2="5.375924153695871"
    stroke="hsla(0,50%,50%,0.6)"
    stroke-width="1"
    transform="translate(0.4881941649,56.7189824984) scale(1,-1) translate(50,-110)"
    />
  
  <line
    x1="0.10311031103110312"
    y1="0"
    x2="0.21790775805288143"
    y2="5.739298363853806"
    stroke="hsla(0,50%,50%,0.6)"
    stroke-width="1"
    transform="translate(0.4881941649,56.7189824984) scale(1,-1) translate(50,-110)"
    />
  
  <line
    x1="0.2230032423846382"
    y1="4.798971335298657"
    x2="0.23077501678263587"
    y2="5.739204556378255"
    stroke="hsla(0,50%,50%,0.6)"
    stroke-width="1"
    transform="translate(0.4881941649,56.7189824984) scale(1,-1) translate(50,-110)"
    />
  
  <line
    x1="0.19453181651979568"
    y1="0"
    x2="0.23077501678263587"
    y2="5.739204556378255"
    stroke="hsla(0,50%,50%,0.6)"
    stroke-width="1"
    transform="translate(0.4881941649,56.7189824984) scale(1,-1) translate(50,-110)"
    />
  
  <line
    x1="-1.316593285165411"
    y1="-64.83360716198843"
    x2="0.1582852788990856"
    y2="5.739733035633786"
    stroke="hsla(0,50%,50%,0.6)"
    stroke-width="1"
    transform="translate(0.4881941649,56.7189824984) scale(1,-1) translate(50,-110)"
    />
  
  <line
    x1="0.1355613247704494"
    y1="7.102851997885492"
    x2="0.14066899131567684"
    y2="7.4577748660424925"
    stroke="hsla(0,50%,50%,0.6)"
    stroke-width="1"
    transform="translate(0.4881941649,56.7189824984) scale(1,-1) translate(50,-110)"
    />
  
  <line
    x1="0.16303619921673482"
    y1="7.0233044863075955"
    x2="0.16418763656270158"
    y2="7.456794051905124"
    stroke="hsla(0,50%,50%,0.6)"
    stroke-width="1"
    transform="translate(0.4881941649,56.7189824984) scale(1,-1) translate(50,-110)"
    />
  
  <line
    x1="0.16303619921673482"
    y1="7.0233044863075955"
    x2="0.17285063044722063"
    y2="7.4564327731501345"
    stroke="hsla(0,50%,50%,0.6)"
    stroke-width="1"
    transform="translate(0.4881941649,56.7189824984) scale(1,-1) translate(50,-110)"
    />
  
  <line
    x1="0"
    y1="0"
    x2="49.92908163265306"
    y2="0"
    stroke="hsla(0,50%,50%,0.6)"
    stroke-width="1"
    transform="translate(0.4881941649,56.7189824984) scale(1,-1) translate(50,-110)"
    />
  
  <line
    x1="0"
    y1="0"
    x2="0"
    y2="5.155"
    stroke="hsla(0,50%,50%,0.6)"
    stroke-width="1"
    transform="translate(0.4881941649,56.7189824984) scale(1,-1) translate(50,-110)"
    />
  
  <line
    x1="0.19453181651979568"
    y1="0"
    x2="0.1582852788990856"
    y2="5.739733035633786"
    stroke="hsla(0,50%,50%,0.6)"
    stroke-width="1"
    transform="translate(0.4881941649,56.7189824984) scale(1,-1) translate(50,-110)"
    />
  
  <line
    x1="0.2230032423846382"
    y1="4.798971335298657"
    x2="0.21790775805288143"
    y2="5.739298363853806"
    stroke="hsla(0,50%,50%,0.6)"
    stroke-width="1"
    transform="translate(0.4881941649,56.7189824984) scale(1,-1) translate(50,-110)"
    />
  
  <line
    x1="0.10311031103110312"
    y1="0"
    x2="0"
    y2="5.155"
    stroke="hsla(0,50%,50%,0.6)"
    stroke-width="1"
    transform="translate(0.4881941649,56.7189824984) scale(1,-1) translate(50,-110)"
    />
  
  <line
    x1="0.1513150669038474"
    y1="7.102102399285958"
    x2="0.1635184211159319"
    y2="7.456821960654299"
    stroke="hsla(0,50%,50%,0.6)"
    stroke-width="1"
    transform="translate(0.4881941649,56.7189824984) scale(1,-1) translate(50,-110)"
    />
  
  <line
    x1="-2.0208902498495696"
    y1="-64.45731016655766"
    x2="-0.0012262026705361791"
    y2="7.4636924183004805"
    stroke="hsla(0,50%,50%,0.6)"
    stroke-width="1"
    transform="translate(0.4881941649,56.7189824984) scale(1,-1) translate(50,-110)"
    />
  
  <line
    x1="-0.20477738363403614"
    y1="2.457009543547718"
    x2="-0.05962026478886451"
    y2="7.466127665784444"
    stroke="hsla(0,50%,50%,0.6)"
    stroke-width="1"
    transform="translate(0.4881941649,56.7189824984) scale(1,-1) translate(50,-110)"
    />
  
  <line
    x1="-0.08181265713191589"
    y1="2.4509831671134346"
    x2="0.1635184211159319"
    y2="7.456821960654299"
    stroke="hsla(0,50%,50%,0.6)"
    stroke-width="1"
    transform="translate(0.4881941649,56.7189824984) scale(1,-1) translate(50,-110)"
    />
  
  <line
    x1="-0.07884241258043916"
    y1="7.1130538115175845"
    x2="-0.06445467132011874"
    y2="7.466329278344259"
    stroke="hsla(0,50%,50%,0.6)"
    stroke-width="1"
    transform="translate(0.4881941649,56.7189824984) scale(1,-1) translate(50,-110)"
    />
  
  <line
    x1="-0.2781028372024687"
    y1="2.4606031496003475"
    x2="-0.06445467132011874"
    y2="7.466329278344259"
    stroke="hsla(0,50%,50%,0.6)"
    stroke-width="1"
    transform="translate(0.4881941649,56.7189824984) scale(1,-1) translate(50,-110)"
    />
  
  <line
    x1="0.1513150669038474"
    y1="7.102102399285958"
    x2="0.17285063044722063"
    y2="7.4564327731501345"
    stroke="hsla(0,50%,50%,0.6)"
    stroke-width="1"
    transform="translate(0.4881941649,56.7189824984) scale(1,-1) translate(50,-110)"
    />
  
  <line
    x1="-0.2781028372024687"
    y1="2.4606031496003475"
    x2="-0.0012262026705361791"
    y2="7.4636924183004805"
    stroke="hsla(0,50%,50%,0.6)"
    stroke-width="1"
    transform="translate(0.4881941649,56.7189824984) scale(1,-1) translate(50,-110)"
    />
  
  <line
    x1="-0.07884241258043916"
    y1="7.1130538115175845"
    x2="-0.05962026478886451"
    y2="7.466127665784444"
    stroke="hsla(0,50%,50%,0.6)"
    stroke-width="1"
    transform="translate(0.4881941649,56.7189824984) scale(1,-1) translate(50,-110)"
    />
  
  <line
    x1="-0.20477738363403614"
    y1="2.457009543547718"
    x2="0.14066899131567684"
    y2="7.4577748660424925"
    stroke="hsla(0,50%,50%,0.6)"
    stroke-width="1"
    transform="translate(0.4881941649,56.7189824984) scale(1,-1) translate(50,-110)"
    />
  
  <line
    x1="0.1355613247704494"
    y1="7.102851997885492"
    x2="0.16418763656270158"
    y2="7.456794051905124"
    stroke="hsla(0,50%,50%,0.6)"
    stroke-width="1"
    transform="translate(0.4881941649,56.7189824984) scale(1,-1) translate(50,-110)"
    />
  
  <line
    x1="49.92908163265306"
    y1="0"
    x2="-0.2781028372024687"
    y2="2.4606031496003475"
    stroke="hsla(0,50%,50%,0.6)"
    stroke-width="1"
    transform="translate(0.4881941649,56.7189824984) scale(1,-1) translate(50,-110)"
    />
  
  <line
    x1="50.044870720853616"
    y1="4.728054434855976"
    x2="0.2230032423846382"
    y2="4.798971335298657"
    stroke="hsla(0,50%,50%,0.6)"
    stroke-width="1"
    transform="translate(0.4881941649,56.7189824984) scale(1,-1) translate(50,-110)"
    />
  
  <line
    x1="0"
    y1="5.155"
    x2="33.885101897399856"
    y2="5.493851018973999"
    stroke="hsla(0,50%,50%,0.6)"
    stroke-width="1"
    transform="translate(0.4881941649,56.7189824984) scale(1,-1) translate(50,-110)"
    />
  
  <line
    x1="50.06073691804969"
    y1="5.375924153695871"
    x2="0.1582852788990856"
    y2="5.739733035633786"
    stroke="hsla(0,50%,50%,0.6)"
    stroke-width="1"
    transform="translate(0.4881941649,56.7189824984) scale(1,-1) translate(50,-110)"
    />
  
  <line
    x1="50.05388992852671"
    y1="5.096338748174015"
    x2="34.15272412529493"
    y2="5.484238631013225"
    stroke="hsla(0,50%,50%,0.6)"
    stroke-width="1"
    transform="translate(0.4881941649,56.7189824984) scale(1,-1) translate(50,-110)"
    />
  
  <line
    x1="50.05388992852671"
    y1="5.096338748174015"
    x2="33.885101897399856"
    y2="5.493851018973999"
    stroke="hsla(0,50%,50%,0.6)"
    stroke-width="1"
    transform="translate(0.4881941649,56.7189824984) scale(1,-1) translate(50,-110)"
    />
  
  <line
    x1="15.088345786587558"
    y1="6.834401684142262"
    x2="0.16303619921673482"
    y2="7.0233044863075955"
    stroke="hsla(0,50%,50%,0.6)"
    stroke-width="1"
    transform="translate(0.4881941649,56.7189824984) scale(1,-1) translate(50,-110)"
    />
  
  <line
    x1="50.044870720853616"
    y1="4.728054434855976"
    x2="-0.07884241258043916"
    y2="7.1130538115175845"
    stroke="hsla(0,50%,50%,0.6)"
    stroke-width="1"
    transform="translate(0.4881941649,56.7189824984) scale(1,-1) translate(50,-110)"
    />
  
  <line
    x1="50.06073691804969"
    y1="5.375924153695871"
    x2="-0.06445467132011874"
    y2="7.466329278344259"
    stroke="hsla(0,50%,50%,0.6)"
    stroke-width="1"
    transform="translate(0.4881941649,56.7189824984) scale(1,-1) translate(50,-110)"
    />
  
  <line
    x1="34.15272412529493"
    y1="5.484238631013225"
    x2="15.088345786587558"
    y2="6.834401684142262"
    stroke="hsla(0,50%,50%,0.6)"
    stroke-width="1"
    transform="translate(0.4881941649,56.7189824984) scale(1,-1) translate(50,-110)"
    />
  
</svg>
