<?xml version="1.0"?>
<!DOCTYPE svg PUBLIC "-//W3C//DTD SVG 1.1//EN"
  "http://www.w3.org/Graphics/SVG/1.1/DTD/svg11.dtd">
<svg
  width="240"
  height="240"
  viewBox="-50 -50 200 200" xmlns="http://www.w3.org/2000/svg" version="1.1">
  <rect
    x="0"
    y="0"
    width="100"
    height="100"
    fill="hsla(206,100%,53%,0.3)"
    stroke="hsl(206,100%,53%)"
    stroke-width="3"
    transform="" />
  
  <path
    d="M 
      4.2510664329
      -3.1843307496
      L
    
      19.3524207723
      -1.5222330337
      L
    
      39.0580921803
      -0.5604085959
      L
    
      48.4720264975
      -1.8487895606
      L
    
      48.7570640364
      -0.0870063982
      L
    
      1.7519982238
      52.4814609236
      L
    
      0
      52.5347826086
      L
    
      -0.3313599167
      47.0960549816
      L
    
      -1.2746949800
      47.0211898361
      L
    
      -0.8571355408
      38.4663135192
      L
    
      -2.8865134374
      5.1574156263
      L
    
      -2.1032151749
      5.1096923968
      L
    
      -2.1061777364
      5.0732892821
      L
    
      0
      4.7850400537
      L
    
      0
      0
      L
    
      1.0203869047
      0
      L
    
      1.1380796670
      -2.4112663495
      L
    
      4.1498014683
      -2.2642656426
      z
    "
    fill="hsla(0,0%,50%,0.3)"
    stroke="hsla(0,0%,50%,1)"
    stroke-width="1"
    transform="translate(-2.4287175365,1.2829102528) scale(1,-1) translate(50,-110)"
    />
  
  
  <line
    x1="46.583855603898336"
    y1="-1.5903765151324643"
    x2="47.29084645279977"
    y2="1.5527490153471146"
    stroke="hsla(0,50%,50%,0.6)"
    stroke-width="1"
    transform="translate(-2.4287175365,1.2829102528) scale(1,-1) translate(50,-110)"
    />
  
  <line
    x1="48.47202649755491"
    y1="-1.8487895606860363"
    x2="48.7570640364233"
    y2="-0.08700639822219594"
    stroke="hsla(0,50%,50%,0.6)"
    stroke-width="1"
    transform="translate(-2.4287175365,1.2829102528) scale(1,-1) translate(50,-110)"
    />
  
  <line
    x1="48.47202649755491"
    y1="-1.8487895606860363"
    x2="48.6792656587473"
    y2="0"
    stroke="hsla(0,50%,50%,0.6)"
    stroke-width="1"
    transform="translate(-2.4287175365,1.2829102528) scale(1,-1) translate(50,-110)"
    />
  
  <line
    x1="4.251066432938666"
    y1="-3.1843307496732156"
    x2="47.29084645279977"
    y2="1.5527490153471146"
    stroke="hsla(0,50%,50%,0.6)"
    stroke-width="1"
    transform="translate(-2.4287175365,1.2829102528) scale(1,-1) translate(50,-110)"
    />
  
  <line
    x1="1.1380796670630202"
    y1="-2.411266349583829"
    x2="48.7570640364233"
    y2="-0.08700639822219594"
    stroke="hsla(0,50%,50%,0.6)"
    stroke-width="1"
    transform="translate(-2.4287175365,1.2829102528) scale(1,-1) translate(50,-110)"
    />
  
  <line
    x1="46.583855603898336"
    y1="-1.5903765151324643"
    x2="46.77302490783891"
    y2="2.1318586175618006"
    stroke="hsla(0,50%,50%,0.6)"
    stroke-width="1"
    transform="translate(-2.4287175365,1.2829102528) scale(1,-1) translate(50,-110)"
    />
  
  <line
    x1="0"
    y1="0"
    x2="48.6792656587473"
    y2="0"
    stroke="hsla(0,50%,50%,0.6)"
    stroke-width="1"
    transform="translate(-2.4287175365,1.2829102528) scale(1,-1) translate(50,-110)"
    />
  
  <line
    x1="0"
    y1="0"
    x2="0"
    y2="52.53478260869565"
    stroke="hsla(0,50%,50%,0.6)"
    stroke-width="1"
    transform="translate(-2.4287175365,1.2829102528) scale(1,-1) translate(50,-110)"
    />
  
  <line
    x1="1.1380796670630202"
    y1="-2.411266349583829"
    x2="-1.274694980096159"
    y2="47.02118983611643"
    stroke="hsla(0,50%,50%,0.6)"
    stroke-width="1"
    transform="translate(-2.4287175365,1.2829102528) scale(1,-1) translate(50,-110)"
    />
  
  <line
    x1="-2.8865134374586865"
    y1="5.157415626357438"
    x2="0"
    y2="52.53478260869565"
    stroke="hsla(0,50%,50%,0.6)"
    stroke-width="1"
    transform="translate(-2.4287175365,1.2829102528) scale(1,-1) translate(50,-110)"
    />
  
  <line
    x1="-2.106177736417291"
    y1="5.073289282198926"
    x2="1.7519982238010656"
    y2="52.481460923623445"
    stroke="hsla(0,50%,50%,0.6)"
    stroke-width="1"
    transform="translate(-2.4287175365,1.2829102528) scale(1,-1) translate(50,-110)"
    />
  
  <line
    x1="4.251066432938666"
    y1="-3.1843307496732156"
    x2="-1.274694980096159"
    y2="47.02118983611643"
    stroke="hsla(0,50%,50%,0.6)"
    stroke-width="1"
    transform="translate(-2.4287175365,1.2829102528) scale(1,-1) translate(50,-110)"
    />
  
  <line
    x1="-2.106177736417291"
    y1="5.073289282198926"
    x2="6.11033524718756"
    y2="47.60728207862841"
    stroke="hsla(0,50%,50%,0.6)"
    stroke-width="1"
    transform="translate(-2.4287175365,1.2829102528) scale(1,-1) translate(50,-110)"
    />
  
  <line
    x1="48.47202649755491"
    y1="-1.8487895606860363"
    x2="-2.106177736417291"
    y2="5.073289282198926"
    stroke="hsla(0,50%,50%,0.6)"
    stroke-width="1"
    transform="translate(-2.4287175365,1.2829102528) scale(1,-1) translate(50,-110)"
    />
  
  <line
    x1="46.77302490783891"
    y1="2.1318586175618006"
    x2="-2.8865134374586865"
    y2="5.157415626357438"
    stroke="hsla(0,50%,50%,0.6)"
    stroke-width="1"
    transform="translate(-2.4287175365,1.2829102528) scale(1,-1) translate(50,-110)"
    />
  
  <line
    x1="48.7570640364233"
    y1="-0.08700639822219594"
    x2="1.7519982238010656"
    y2="52.481460923623445"
    stroke="hsla(0,50%,50%,0.6)"
    stroke-width="1"
    transform="translate(-2.4287175365,1.2829102528) scale(1,-1) translate(50,-110)"
    />
  
  <line
    x1="-1.274694980096159"
    y1="47.02118983611643"
    x2="6.11033524718756"
    y2="47.60728207862841"
    stroke="hsla(0,50%,50%,0.6)"
    stroke-width="1"
    transform="translate(-2.4287175365,1.2829102528) scale(1,-1) translate(50,-110)"
    />
  
  <line
    x1="1.7519982238010656"
    y1="52.481460923623445"
    x2="0"
    y2="52.53478260869565"
    stroke="hsla(0,50%,50%,0.6)"
    stroke-width="1"
    transform="translate(-2.4287175365,1.2829102528) scale(1,-1) translate(50,-110)"
    />
  
</svg>
