<?xml version="1.0"?>
<!DOCTYPE svg PUBLIC "-//W3C//DTD SVG 1.1//EN"
  "http://www.w3.org/Graphics/SVG/1.1/DTD/svg11.dtd">
<svg
  width="240"
  height="240"
  viewBox="-50 -50 200 200" xmlns="http://www.w3.org/2000/svg" version="1.1">
  <rect
    x="0"
    y="0"
    width="100"
    height="100"
    fill="hsla(206,100%,53%,0.3)"
    stroke="hsl(206,100%,53%)"
    stroke-width="3"
    transform="" />
  
  <path
    d="M 
      46.8373420242
      -3.7645099773
      L
    
      49.9380369571
      -1.0466412326
      L
    
      50.5352492174
      0
      L
    
      100
      0
      L
    
      100
      0.5
      L
    
      77.4327260661
      47.1390327967
      L
    
      22.4230597059
      49.0062016287
      L
    
      0.1573157315
      0
      L
    
      0.2607955058
      -0.1184912474
      L
    
      0.3964758918
      0
      L
    
      40.7909936948
      0
      L
    
      42.0807988527
      -3.4412390456
      z
    "
    fill="hsla(0,0%,50%,0.3)"
    stroke="hsla(0,0%,50%,1)"
    stroke-width="1"
    transform="translate(-32.9467685849,0.5944257015) scale(1,-1) translate(50,-110)"
    />
  
  
  <line
    x1="46.83734202426834"
    y1="-3.764509977325035"
    x2="49.93803695718887"
    y2="-1.0466412326315848"
    stroke="hsla(0,50%,50%,0.6)"
    stroke-width="1"
    transform="translate(-32.9467685849,0.5944257015) scale(1,-1) translate(50,-110)"
    />
  
  <line
    x1="42.080798852774734"
    y1="-3.4412390456997737"
    x2="42.213310024892934"
    y2="-3.308816310520847"
    stroke="hsla(0,50%,50%,0.6)"
    stroke-width="1"
    transform="translate(-32.9467685849,0.5944257015) scale(1,-1) translate(50,-110)"
    />
  
  <line
    x1="49.93803695718887"
    y1="-1.0466412326315848"
    x2="77.43272606610721"
    y2="47.13903279671177"
    stroke="hsla(0,50%,50%,0.6)"
    stroke-width="1"
    transform="translate(-32.9467685849,0.5944257015) scale(1,-1) translate(50,-110)"
    />
  
  <line
    x1="61.07136013227919"
    y1="31.30804187380916"
    x2="73.59140926634718"
    y2="47.269416917852446"
    stroke="hsla(0,50%,50%,0.6)"
    stroke-width="1"
    transform="translate(-32.9467685849,0.5944257015) scale(1,-1) translate(50,-110)"
    />
  
  <line
    x1="49.93803695718887"
    y1="-1.0466412326315848"
    x2="59.11948676454857"
    y2="47.76063099754796"
    stroke="hsla(0,50%,50%,0.6)"
    stroke-width="1"
    transform="translate(-32.9467685849,0.5944257015) scale(1,-1) translate(50,-110)"
    />
  
  <line
    x1="46.83734202426834"
    y1="-3.764509977325035"
    x2="49.98935651599575"
    y2="45.7759427359331"
    stroke="hsla(0,50%,50%,0.6)"
    stroke-width="1"
    transform="translate(-32.9467685849,0.5944257015) scale(1,-1) translate(50,-110)"
    />
  
  <line
    x1="42.056341095139345"
    y1="36.38204121307241"
    x2="42.744228925278875"
    y2="48.31644914875032"
    stroke="hsla(0,50%,50%,0.6)"
    stroke-width="1"
    transform="translate(-32.9467685849,0.5944257015) scale(1,-1) translate(50,-110)"
    />
  
  <line
    x1="41.91457015381239"
    y1="-2.9977358654970216"
    x2="44.070624473021915"
    y2="41.92377912449621"
    stroke="hsla(0,50%,50%,0.6)"
    stroke-width="1"
    transform="translate(-32.9467685849,0.5944257015) scale(1,-1) translate(50,-110)"
    />
  
  <line
    x1="46.83734202426834"
    y1="-3.764509977325035"
    x2="42.080798852774734"
    y2="-3.4412390456997737"
    stroke="hsla(0,50%,50%,0.6)"
    stroke-width="1"
    transform="translate(-32.9467685849,0.5944257015) scale(1,-1) translate(50,-110)"
    />
  
  <line
    x1="42.213310024892934"
    y1="-3.308816310520847"
    x2="42.744228925278875"
    y2="48.31644914875032"
    stroke="hsla(0,50%,50%,0.6)"
    stroke-width="1"
    transform="translate(-32.9467685849,0.5944257015) scale(1,-1) translate(50,-110)"
    />
  
  <line
    x1="0.2607955058434067"
    y1="-0.11849124742940262"
    x2="42.056341095139345"
    y2="36.38204121307241"
    stroke="hsla(0,50%,50%,0.6)"
    stroke-width="1"
    transform="translate(-32.9467685849,0.5944257015) scale(1,-1) translate(50,-110)"
    />
  
  <line
    x1="0.1573157315731573"
    y1="0"
    x2="22.423059705925617"
    y2="49.006201628780595"
    stroke="hsla(0,50%,50%,0.6)"
    stroke-width="1"
    transform="translate(-32.9467685849,0.5944257015) scale(1,-1) translate(50,-110)"
    />
  
  <line
    x1="0.1573157315731573"
    y1="0"
    x2="100"
    y2="0"
    stroke="hsla(0,50%,50%,0.6)"
    stroke-width="1"
    transform="translate(-32.9467685849,0.5944257015) scale(1,-1) translate(50,-110)"
    />
  
  <line
    x1="100"
    y1="0"
    x2="100"
    y2="0.5"
    stroke="hsla(0,50%,50%,0.6)"
    stroke-width="1"
    transform="translate(-32.9467685849,0.5944257015) scale(1,-1) translate(50,-110)"
    />
  
  <line
    x1="0.2607955058434067"
    y1="-0.11849124742940262"
    x2="0.1573157315731573"
    y2="0"
    stroke="hsla(0,50%,50%,0.6)"
    stroke-width="1"
    transform="translate(-32.9467685849,0.5944257015) scale(1,-1) translate(50,-110)"
    />
  
  <line
    x1="61.07136013227919"
    y1="31.30804187380916"
    x2="59.11948676454857"
    y2="47.76063099754796"
    stroke="hsla(0,50%,50%,0.6)"
    stroke-width="1"
    transform="translate(-32.9467685849,0.5944257015) scale(1,-1) translate(50,-110)"
    />
  
  <line
    x1="24.729680571164348"
    y1="42.85206762158893"
    x2="30.8405216969526"
    y2="48.72049143065174"
    stroke="hsla(0,50%,50%,0.6)"
    stroke-width="1"
    transform="translate(-32.9467685849,0.5944257015) scale(1,-1) translate(50,-110)"
    />
  
  <line
    x1="42.080798852774734"
    y1="-3.4412390456997737"
    x2="22.423059705925617"
    y2="49.006201628780595"
    stroke="hsla(0,50%,50%,0.6)"
    stroke-width="1"
    transform="translate(-32.9467685849,0.5944257015) scale(1,-1) translate(50,-110)"
    />
  
  <line
    x1="42.213310024892934"
    y1="-3.308816310520847"
    x2="41.91457015381239"
    y2="-2.9977358654970216"
    stroke="hsla(0,50%,50%,0.6)"
    stroke-width="1"
    transform="translate(-32.9467685849,0.5944257015) scale(1,-1) translate(50,-110)"
    />
  
  <line
    x1="42.056341095139345"
    y1="36.38204121307241"
    x2="30.8405216969526"
    y2="48.72049143065174"
    stroke="hsla(0,50%,50%,0.6)"
    stroke-width="1"
    transform="translate(-32.9467685849,0.5944257015) scale(1,-1) translate(50,-110)"
    />
  
  <line
    x1="100"
    y1="0.5"
    x2="77.43272606610721"
    y2="47.13903279671177"
    stroke="hsla(0,50%,50%,0.6)"
    stroke-width="1"
    transform="translate(-32.9467685849,0.5944257015) scale(1,-1) translate(50,-110)"
    />
  
  <line
    x1="44.070624473021915"
    y1="41.92377912449621"
    x2="24.729680571164348"
    y2="42.85206762158893"
    stroke="hsla(0,50%,50%,0.6)"
    stroke-width="1"
    transform="translate(-32.9467685849,0.5944257015) scale(1,-1) translate(50,-110)"
    />
  
  <line
    x1="75.72078474385701"
    y1="44.13877895916049"
    x2="49.98935651599575"
    y2="45.7759427359331"
    stroke="hsla(0,50%,50%,0.6)"
    stroke-width="1"
    transform="translate(-32.9467685849,0.5944257015) scale(1,-1) translate(50,-110)"
    />
  
  <line
    x1="100"
    y1="0.5"
    x2="61.07136013227919"
    y2="31.30804187380916"
    stroke="hsla(0,50%,50%,0.6)"
    stroke-width="1"
    transform="translate(-32.9467685849,0.5944257015) scale(1,-1) translate(50,-110)"
    />
  
  <line
    x1="75.72078474385701"
    y1="44.13877895916049"
    x2="73.59140926634718"
    y2="47.269416917852446"
    stroke="hsla(0,50%,50%,0.6)"
    stroke-width="1"
    transform="translate(-32.9467685849,0.5944257015) scale(1,-1) translate(50,-110)"
    />
  
  <line
    x1="77.43272606610721"
    y1="47.13903279671177"
    x2="22.423059705925617"
    y2="49.006201628780595"
    stroke="hsla(0,50%,50%,0.6)"
    stroke-width="1"
    transform="translate(-32.9467685849,0.5944257015) scale(1,-1) translate(50,-110)"
    />
  
</svg>
