<?xml version="1.0"?>
<!DOCTYPE svg PUBLIC "-//W3C//DTD SVG 1.1//EN"
  "http://www.w3.org/Graphics/SVG/1.1/DTD/svg11.dtd">
<svg
  width="240"
  height="240"
  viewBox="-50 -50 200 200" xmlns="http://www.w3.org/2000/svg" version="1.1">
  <rect
    x="0"
    y="0"
    width="100"
    height="100"
    fill="hsla(206,100%,53%,0.3)"
    stroke="hsl(206,100%,53%)"
    stroke-width="3"
    transform="" />
  
  <path
    d="M 
      93.7132372151
      -60.6903519938
      L
    
      98.3435648029
      -1.3725640980
      L
    
      99.1563582239
      -1.3753510694
      L
    
      99.1855544874
      -0.9350950821
      L
    
      99.9704379326
      -0.9256138985
      L
    
      99.9790185470
      0
      L
    
      100
      0
      L
    
      100
      2.2633256083
      L
    
      -1.6400478018
      2.7344266410
      L
    
      -5.9834823820
      -52.9080578871
      z
    "
    fill="hsla(0,0%,50%,0.3)"
    stroke="hsla(0,0%,50%,1)"
    stroke-width="1"
    transform="translate(-21.5719568910,25.6358638278) scale(1,-1) translate(50,-110)"
    />
  
  
  <line
    x1="93.71323721514585"
    y1="-60.69035199385102"
    x2="-5.983482382021086"
    y2="-52.908057887106544"
    stroke="hsla(0,50%,50%,0.6)"
    stroke-width="1"
    transform="translate(-21.5719568910,25.6358638278) scale(1,-1) translate(50,-110)"
    />
  
  <line
    x1="93.71323721514585"
    y1="-60.69035199385102"
    x2="98.62787763514667"
    y2="2.269685387554361"
    stroke="hsla(0,50%,50%,0.6)"
    stroke-width="1"
    transform="translate(-21.5719568910,25.6358638278) scale(1,-1) translate(50,-110)"
    />
  
  <line
    x1="98.7838952440249"
    y1="0"
    x2="98.93981346754273"
    y2="2.268239566778481"
    stroke="hsla(0,50%,50%,0.6)"
    stroke-width="1"
    transform="translate(-21.5719568910,25.6358638278) scale(1,-1) translate(50,-110)"
    />
  
  <line
    x1="99.15635822390236"
    y1="-1.3753510694912996"
    x2="99.39784783997523"
    y2="2.2661165801159897"
    stroke="hsla(0,50%,50%,0.6)"
    stroke-width="1"
    transform="translate(-21.5719568910,25.6358638278) scale(1,-1) translate(50,-110)"
    />
  
  <line
    x1="99.52704215109183"
    y1="0"
    x2="99.65616820178498"
    y2="2.2649192667356433"
    stroke="hsla(0,50%,50%,0.6)"
    stroke-width="1"
    transform="translate(-21.5719568910,25.6358638278) scale(1,-1) translate(50,-110)"
    />
  
  <line
    x1="69.54861803297983"
    y1="-1.273829669397275"
    x2="99.95533145471366"
    y2="-0.47387424929724486"
    stroke="hsla(0,50%,50%,0.6)"
    stroke-width="1"
    transform="translate(-21.5719568910,25.6358638278) scale(1,-1) translate(50,-110)"
    />
  
  <line
    x1="99.80850076790783"
    y1="-0.9275700564964083"
    x2="99.88358183900219"
    y2="2.2638652058447177"
    stroke="hsla(0,50%,50%,0.6)"
    stroke-width="1"
    transform="translate(-21.5719568910,25.6358638278) scale(1,-1) translate(50,-110)"
    />
  
  <line
    x1="70.79126528493981"
    y1="-1.278090558206366"
    x2="99.97043793263607"
    y2="-0.9256138985343808"
    stroke="hsla(0,50%,50%,0.6)"
    stroke-width="1"
    transform="translate(-21.5719568910,25.6358638278) scale(1,-1) translate(50,-110)"
    />
  
  <line
    x1="99.91584758960008"
    y1="0"
    x2="99.94810907751058"
    y2="2.2635661224680854"
    stroke="hsla(0,50%,50%,0.6)"
    stroke-width="1"
    transform="translate(-21.5719568910,25.6358638278) scale(1,-1) translate(50,-110)"
    />
  
  <line
    x1="99.15635822390236"
    y1="-1.3753510694912996"
    x2="-1.0405109377048554"
    y2="-1.0317879884614667"
    stroke="hsla(0,50%,50%,0.6)"
    stroke-width="1"
    transform="translate(-21.5719568910,25.6358638278) scale(1,-1) translate(50,-110)"
    />
  
  <line
    x1="99.97043793263607"
    y1="-0.9256138985343808"
    x2="100"
    y2="2.26332560834299"
    stroke="hsla(0,50%,50%,0.6)"
    stroke-width="1"
    transform="translate(-21.5719568910,25.6358638278) scale(1,-1) translate(50,-110)"
    />
  
  <line
    x1="68.19447456208138"
    y1="-1.2289095624074682"
    x2="-0.03518361730096825"
    y2="-0.9073010902552938"
    stroke="hsla(0,50%,50%,0.6)"
    stroke-width="1"
    transform="translate(-21.5719568910,25.6358638278) scale(1,-1) translate(50,-110)"
    />
  
  <line
    x1="-1.4520839948286168"
    y1="0"
    x2="-1.6400478018503082"
    y2="2.734426641028275"
    stroke="hsla(0,50%,50%,0.6)"
    stroke-width="1"
    transform="translate(-21.5719568910,25.6358638278) scale(1,-1) translate(50,-110)"
    />
  
  <line
    x1="-1.0405109377048554"
    y1="-1.0317879884614667"
    x2="-1.2642399233344994"
    y2="2.7326847736886886"
    stroke="hsla(0,50%,50%,0.6)"
    stroke-width="1"
    transform="translate(-21.5719568910,25.6358638278) scale(1,-1) translate(50,-110)"
    />
  
  <line
    x1="-0.6353405728112029"
    y1="0"
    x2="-0.7910095055189703"
    y2="2.7304913534438886"
    stroke="hsla(0,50%,50%,0.6)"
    stroke-width="1"
    transform="translate(-21.5719568910,25.6358638278) scale(1,-1) translate(50,-110)"
    />
  
  <line
    x1="-0.30018097850234676"
    y1="-1.0343264913497363"
    x2="-0.4797538885180451"
    y2="2.7290486854624243"
    stroke="hsla(0,50%,50%,0.6)"
    stroke-width="1"
    transform="translate(-21.5719568910,25.6358638278) scale(1,-1) translate(50,-110)"
    />
  
  <line
    x1="-0.22168643249965206"
    y1="-1.0345956397602043"
    x2="-0.24004785159966477"
    y2="0.06718177437227235"
    stroke="hsla(0,50%,50%,0.6)"
    stroke-width="1"
    transform="translate(-21.5719568910,25.6358638278) scale(1,-1) translate(50,-110)"
    />
  
  <line
    x1="-0.09430858987090368"
    y1="0"
    x2="-0.13318147575649902"
    y2="2.727442324337226"
    stroke="hsla(0,50%,50%,0.6)"
    stroke-width="1"
    transform="translate(-21.5719568910,25.6358638278) scale(1,-1) translate(50,-110)"
    />
  
  <line
    x1="-0.03669828279806693"
    y1="-1.0352299420013549"
    x2="-0.055440839553424354"
    y2="2.727081996938834"
    stroke="hsla(0,50%,50%,0.6)"
    stroke-width="1"
    transform="translate(-21.5719568910,25.6358638278) scale(1,-1) translate(50,-110)"
    />
  
  <line
    x1="-0.03487501316788468"
    y1="-1.0352361937748578"
    x2="-0.03518361730096825"
    y2="-0.9073010902552938"
    stroke="hsla(0,50%,50%,0.6)"
    stroke-width="1"
    transform="translate(-21.5719568910,25.6358638278) scale(1,-1) translate(50,-110)"
    />
  
  <line
    x1="-1.4520839948286168"
    y1="0"
    x2="100"
    y2="0"
    stroke="hsla(0,50%,50%,0.6)"
    stroke-width="1"
    transform="translate(-21.5719568910,25.6358638278) scale(1,-1) translate(50,-110)"
    />
  
  <line
    x1="0"
    y1="0"
    x2="0"
    y2="2.726825028968714"
    stroke="hsla(0,50%,50%,0.6)"
    stroke-width="1"
    transform="translate(-21.5719568910,25.6358638278) scale(1,-1) translate(50,-110)"
    />
  
  <line
    x1="100"
    y1="0"
    x2="100"
    y2="2.26332560834299"
    stroke="hsla(0,50%,50%,0.6)"
    stroke-width="1"
    transform="translate(-21.5719568910,25.6358638278) scale(1,-1) translate(50,-110)"
    />
  
  <line
    x1="-0.03487501316788468"
    y1="-1.0352361937748578"
    x2="0"
    y2="2.726825028968714"
    stroke="hsla(0,50%,50%,0.6)"
    stroke-width="1"
    transform="translate(-21.5719568910,25.6358638278) scale(1,-1) translate(50,-110)"
    />
  
  <line
    x1="-0.03669828279806693"
    y1="-1.0352299420013549"
    x2="-0.03518361730096825"
    y2="-0.9073010902552938"
    stroke="hsla(0,50%,50%,0.6)"
    stroke-width="1"
    transform="translate(-21.5719568910,25.6358638278) scale(1,-1) translate(50,-110)"
    />
  
  <line
    x1="-0.09430858987090368"
    y1="0"
    x2="-0.055440839553424354"
    y2="2.727081996938834"
    stroke="hsla(0,50%,50%,0.6)"
    stroke-width="1"
    transform="translate(-21.5719568910,25.6358638278) scale(1,-1) translate(50,-110)"
    />
  
  <line
    x1="-0.22168643249965206"
    y1="-1.0345956397602043"
    x2="-0.13318147575649902"
    y2="2.727442324337226"
    stroke="hsla(0,50%,50%,0.6)"
    stroke-width="1"
    transform="translate(-21.5719568910,25.6358638278) scale(1,-1) translate(50,-110)"
    />
  
  <line
    x1="-0.30018097850234676"
    y1="-1.0343264913497363"
    x2="-0.24004785159966477"
    y2="0.06718177437227235"
    stroke="hsla(0,50%,50%,0.6)"
    stroke-width="1"
    transform="translate(-21.5719568910,25.6358638278) scale(1,-1) translate(50,-110)"
    />
  
  <line
    x1="-0.6353405728112029"
    y1="0"
    x2="-0.4797538885180451"
    y2="2.7290486854624243"
    stroke="hsla(0,50%,50%,0.6)"
    stroke-width="1"
    transform="translate(-21.5719568910,25.6358638278) scale(1,-1) translate(50,-110)"
    />
  
  <line
    x1="70.79126528493981"
    y1="-1.278090558206366"
    x2="-0.24004785159966477"
    y2="0.06718177437227235"
    stroke="hsla(0,50%,50%,0.6)"
    stroke-width="1"
    transform="translate(-21.5719568910,25.6358638278) scale(1,-1) translate(50,-110)"
    />
  
  <line
    x1="-1.0405109377048554"
    y1="-1.0317879884614667"
    x2="-0.7910095055189703"
    y2="2.7304913534438886"
    stroke="hsla(0,50%,50%,0.6)"
    stroke-width="1"
    transform="translate(-21.5719568910,25.6358638278) scale(1,-1) translate(50,-110)"
    />
  
  <line
    x1="-1.4520839948286168"
    y1="0"
    x2="-1.2642399233344994"
    y2="2.7326847736886886"
    stroke="hsla(0,50%,50%,0.6)"
    stroke-width="1"
    transform="translate(-21.5719568910,25.6358638278) scale(1,-1) translate(50,-110)"
    />
  
  <line
    x1="-5.983482382021086"
    y1="-52.908057887106544"
    x2="-1.6400478018503082"
    y2="2.734426641028275"
    stroke="hsla(0,50%,50%,0.6)"
    stroke-width="1"
    transform="translate(-21.5719568910,25.6358638278) scale(1,-1) translate(50,-110)"
    />
  
  <line
    x1="99.96399687384576"
    y1="-0.9256917048147224"
    x2="99.94810907751058"
    y2="2.2635661224680854"
    stroke="hsla(0,50%,50%,0.6)"
    stroke-width="1"
    transform="translate(-21.5719568910,25.6358638278) scale(1,-1) translate(50,-110)"
    />
  
  <line
    x1="69.54861803297983"
    y1="-1.273829669397275"
    x2="68.19447456208138"
    y2="-1.2289095624074682"
    stroke="hsla(0,50%,50%,0.6)"
    stroke-width="1"
    transform="translate(-21.5719568910,25.6358638278) scale(1,-1) translate(50,-110)"
    />
  
  <line
    x1="99.91584758960008"
    y1="0"
    x2="99.88358183900219"
    y2="2.2638652058447177"
    stroke="hsla(0,50%,50%,0.6)"
    stroke-width="1"
    transform="translate(-21.5719568910,25.6358638278) scale(1,-1) translate(50,-110)"
    />
  
  <line
    x1="99.96399687384576"
    y1="-0.9256917048147224"
    x2="99.95533145471366"
    y2="-0.47387424929724486"
    stroke="hsla(0,50%,50%,0.6)"
    stroke-width="1"
    transform="translate(-21.5719568910,25.6358638278) scale(1,-1) translate(50,-110)"
    />
  
  <line
    x1="100"
    y1="2.26332560834299"
    x2="-1.6400478018503082"
    y2="2.734426641028275"
    stroke="hsla(0,50%,50%,0.6)"
    stroke-width="1"
    transform="translate(-21.5719568910,25.6358638278) scale(1,-1) translate(50,-110)"
    />
  
  <line
    x1="99.97043793263607"
    y1="-0.9256138985343808"
    x2="99.95533145471366"
    y2="-0.47387424929724486"
    stroke="hsla(0,50%,50%,0.6)"
    stroke-width="1"
    transform="translate(-21.5719568910,25.6358638278) scale(1,-1) translate(50,-110)"
    />
  
  <line
    x1="99.80850076790783"
    y1="-0.9275700564964083"
    x2="99.65616820178498"
    y2="2.2649192667356433"
    stroke="hsla(0,50%,50%,0.6)"
    stroke-width="1"
    transform="translate(-21.5719568910,25.6358638278) scale(1,-1) translate(50,-110)"
    />
  
  <line
    x1="99.52704215109183"
    y1="0"
    x2="99.39784783997523"
    y2="2.2661165801159897"
    stroke="hsla(0,50%,50%,0.6)"
    stroke-width="1"
    transform="translate(-21.5719568910,25.6358638278) scale(1,-1) translate(50,-110)"
    />
  
  <line
    x1="99.15635822390236"
    y1="-1.3753510694912996"
    x2="98.93981346754273"
    y2="2.268239566778481"
    stroke="hsla(0,50%,50%,0.6)"
    stroke-width="1"
    transform="translate(-21.5719568910,25.6358638278) scale(1,-1) translate(50,-110)"
    />
  
  <line
    x1="98.7838952440249"
    y1="0"
    x2="98.62787763514667"
    y2="2.269685387554361"
    stroke="hsla(0,50%,50%,0.6)"
    stroke-width="1"
    transform="translate(-21.5719568910,25.6358638278) scale(1,-1) translate(50,-110)"
    />
  
</svg>
