<?xml version="1.0"?>
<!DOCTYPE svg PUBLIC "-//W3C//DTD SVG 1.1//EN"
  "http://www.w3.org/Graphics/SVG/1.1/DTD/svg11.dtd">
<svg
  width="240"
  height="240"
  viewBox="-50 -50 200 200" xmlns="http://www.w3.org/2000/svg" version="1.1">
  <rect
    x="0"
    y="0"
    width="100"
    height="100"
    fill="hsla(206,100%,53%,0.3)"
    stroke="hsl(206,100%,53%)"
    stroke-width="3"
    transform="" />
  
  <path
    d="M 
      37.8774038461
      58.1917067307
      L
    
      45.703125
      67.8971354166
      L
    
      21.640625
      99.98046875
      L
    
      8.28125
      89.9609375
      L
    
      11.6741071428
      85.4371279761
      L
    
      8.6850961538
      81.7301682692
      L
    
      23.28125
      69.9609375
      L
    
      30.78125
      59.9609375
      L
    
      33.3209325396
      61.8656994047
      z
    "
    fill="hsla(0,0%,50%,0.3)"
    stroke="hsla(0,0%,50%,1)"
    stroke-width="1"
    transform="translate(-28.7985177325,-65.1255186311) scale(1,-1) translate(50,-110)"
    />
  
  
  <line
    x1="37.87740384615385"
    y1="58.19170673076923"
    x2="45.703125"
    y2="67.89713541666667"
    stroke="hsla(0,50%,50%,0.6)"
    stroke-width="1"
    transform="translate(-28.7985177325,-65.1255186311) scale(1,-1) translate(50,-110)"
    />
  
  <line
    x1="28.146634615384617"
    y1="66.03786057692308"
    x2="37.96502976190476"
    y2="78.21459573412699"
    stroke="hsla(0,50%,50%,0.6)"
    stroke-width="1"
    transform="translate(-28.7985177325,-65.1255186311) scale(1,-1) translate(50,-110)"
    />
  
  <line
    x1="30.78125"
    y1="59.9609375"
    x2="44.140625"
    y2="69.98046875"
    stroke="hsla(0,50%,50%,0.6)"
    stroke-width="1"
    transform="translate(-28.7985177325,-65.1255186311) scale(1,-1) translate(50,-110)"
    />
  
  <line
    x1="8.685096153846153"
    y1="81.73016826923077"
    x2="22.488839285714285"
    y2="98.84951636904762"
    stroke="hsla(0,50%,50%,0.6)"
    stroke-width="1"
    transform="translate(-28.7985177325,-65.1255186311) scale(1,-1) translate(50,-110)"
    />
  
  <line
    x1="35.9375"
    y1="63.828125"
    x2="17.1875"
    y2="96.640625"
    stroke="hsla(0,50%,50%,0.6)"
    stroke-width="1"
    transform="translate(-28.7985177325,-65.1255186311) scale(1,-1) translate(50,-110)"
    />
  
  <line
    x1="23.28125"
    y1="69.9609375"
    x2="36.640625"
    y2="79.98046875"
    stroke="hsla(0,50%,50%,0.6)"
    stroke-width="1"
    transform="translate(-28.7985177325,-65.1255186311) scale(1,-1) translate(50,-110)"
    />
  
  <line
    x1="30.78125"
    y1="59.9609375"
    x2="8.28125"
    y2="89.9609375"
    stroke="hsla(0,50%,50%,0.6)"
    stroke-width="1"
    transform="translate(-28.7985177325,-65.1255186311) scale(1,-1) translate(50,-110)"
    />
  
  <line
    x1="35.9375"
    y1="63.828125"
    x2="45.703125"
    y2="67.89713541666667"
    stroke="hsla(0,50%,50%,0.6)"
    stroke-width="1"
    transform="translate(-28.7985177325,-65.1255186311) scale(1,-1) translate(50,-110)"
    />
  
  <line
    x1="45.703125"
    y1="67.89713541666667"
    x2="21.640625"
    y2="99.98046875"
    stroke="hsla(0,50%,50%,0.6)"
    stroke-width="1"
    transform="translate(-28.7985177325,-65.1255186311) scale(1,-1) translate(50,-110)"
    />
  
  <line
    x1="29.6875"
    y1="74.765625"
    x2="37.96502976190476"
    y2="78.21459573412699"
    stroke="hsla(0,50%,50%,0.6)"
    stroke-width="1"
    transform="translate(-28.7985177325,-65.1255186311) scale(1,-1) translate(50,-110)"
    />
  
  <line
    x1="8.28125"
    y1="89.9609375"
    x2="21.640625"
    y2="99.98046875"
    stroke="hsla(0,50%,50%,0.6)"
    stroke-width="1"
    transform="translate(-28.7985177325,-65.1255186311) scale(1,-1) translate(50,-110)"
    />
  
  <line
    x1="37.87740384615385"
    y1="58.19170673076923"
    x2="8.685096153846153"
    y2="81.73016826923077"
    stroke="hsla(0,50%,50%,0.6)"
    stroke-width="1"
    transform="translate(-28.7985177325,-65.1255186311) scale(1,-1) translate(50,-110)"
    />
  
  <line
    x1="17.1875"
    y1="96.640625"
    x2="22.488839285714285"
    y2="98.84951636904762"
    stroke="hsla(0,50%,50%,0.6)"
    stroke-width="1"
    transform="translate(-28.7985177325,-65.1255186311) scale(1,-1) translate(50,-110)"
    />
  
</svg>
