<?xml version="1.0"?>
<!DOCTYPE svg PUBLIC "-//W3C//DTD SVG 1.1//EN"
  "http://www.w3.org/Graphics/SVG/1.1/DTD/svg11.dtd">
<svg
  width="240"
  height="240"
  viewBox="-50 -50 200 200" xmlns="http://www.w3.org/2000/svg" version="1.1">
  <rect
    x="0"
    y="0"
    width="100"
    height="100"
    fill="hsla(206,100%,53%,0.3)"
    stroke="hsl(206,100%,53%)"
    stroke-width="3"
    transform="" />
  
  <path
    d="M 
      136.3636363636
      84.8484848484
      L
    
      140.9756097560
      88.7804878048
      L
    
      125.2577319587
      107.2164948453
      L
    
      105.7937039517
      106.0951105157
      L
    
      105.1282051282
      107.6923076923
      L
    
      0
      100
      z
    "
    fill="hsla(0,0%,50%,0.3)"
    stroke="hsla(0,0%,50%,1)"
    stroke-width="1"
    transform="translate(-56.0017239646,-102.3119020607) scale(1,-1) translate(50,-110)"
    />
  
  
  <line
    x1="109.70873786407768"
    y1="93.20388349514563"
    x2="116.47058823529412"
    y2="105.88235294117646"
    stroke="hsla(0,50%,50%,0.6)"
    stroke-width="1"
    transform="translate(-56.0017239646,-102.3119020607) scale(1,-1) translate(50,-110)"
    />
  
  <line
    x1="112.96296296296296"
    y1="88.88888888888889"
    x2="125.25773195876289"
    y2="107.21649484536083"
    stroke="hsla(0,50%,50%,0.6)"
    stroke-width="1"
    transform="translate(-56.0017239646,-102.3119020607) scale(1,-1) translate(50,-110)"
    />
  
  <line
    x1="122.58064516129032"
    y1="96.7741935483871"
    x2="125"
    y2="100"
    stroke="hsla(0,50%,50%,0.6)"
    stroke-width="1"
    transform="translate(-56.0017239646,-102.3119020607) scale(1,-1) translate(50,-110)"
    />
  
  <line
    x1="105.26315789473684"
    y1="98.6842105263158"
    x2="106.36942675159236"
    y2="101.91082802547771"
    stroke="hsla(0,50%,50%,0.6)"
    stroke-width="1"
    transform="translate(-56.0017239646,-102.3119020607) scale(1,-1) translate(50,-110)"
    />
  
  <line
    x1="103.63636363636364"
    y1="98.18181818181819"
    x2="104.49438202247191"
    y2="101.12359550561797"
    stroke="hsla(0,50%,50%,0.6)"
    stroke-width="1"
    transform="translate(-56.0017239646,-102.3119020607) scale(1,-1) translate(50,-110)"
    />
  
  <line
    x1="103.04568527918782"
    y1="99.49238578680203"
    x2="105.12820512820512"
    y2="107.6923076923077"
    stroke="hsla(0,50%,50%,0.6)"
    stroke-width="1"
    transform="translate(-56.0017239646,-102.3119020607) scale(1,-1) translate(50,-110)"
    />
  
  <line
    x1="136.36363636363637"
    y1="84.84848484848484"
    x2="140.97560975609755"
    y2="88.78048780487805"
    stroke="hsla(0,50%,50%,0.6)"
    stroke-width="1"
    transform="translate(-56.0017239646,-102.3119020607) scale(1,-1) translate(50,-110)"
    />
  
  <line
    x1="101.48883374689827"
    y1="96.7741935483871"
    x2="102.62008733624454"
    y2="102.18340611353712"
    stroke="hsla(0,50%,50%,0.6)"
    stroke-width="1"
    transform="translate(-56.0017239646,-102.3119020607) scale(1,-1) translate(50,-110)"
    />
  
  <line
    x1="100.75471698113208"
    y1="98.11320754716981"
    x2="101.72910662824208"
    y2="104.89913544668588"
    stroke="hsla(0,50%,50%,0.6)"
    stroke-width="1"
    transform="translate(-56.0017239646,-102.3119020607) scale(1,-1) translate(50,-110)"
    />
  
  <line
    x1="100"
    y1="95.23809523809524"
    x2="100.50251256281408"
    y2="100.50251256281408"
    stroke="hsla(0,50%,50%,0.6)"
    stroke-width="1"
    transform="translate(-56.0017239646,-102.3119020607) scale(1,-1) translate(50,-110)"
    />
  
  <line
    x1="100"
    y1="95.65217391304348"
    x2="100.62305295950156"
    y2="102.80373831775701"
    stroke="hsla(0,50%,50%,0.6)"
    stroke-width="1"
    transform="translate(-56.0017239646,-102.3119020607) scale(1,-1) translate(50,-110)"
    />
  
  <line
    x1="100"
    y1="95.23809523809524"
    x2="100"
    y2="100"
    stroke="hsla(0,50%,50%,0.6)"
    stroke-width="1"
    transform="translate(-56.0017239646,-102.3119020607) scale(1,-1) translate(50,-110)"
    />
  
  <line
    x1="100.75471698113208"
    y1="98.11320754716981"
    x2="100.50251256281408"
    y2="100.50251256281408"
    stroke="hsla(0,50%,50%,0.6)"
    stroke-width="1"
    transform="translate(-56.0017239646,-102.3119020607) scale(1,-1) translate(50,-110)"
    />
  
  <line
    x1="101.48883374689827"
    y1="96.7741935483871"
    x2="100.62305295950156"
    y2="102.80373831775701"
    stroke="hsla(0,50%,50%,0.6)"
    stroke-width="1"
    transform="translate(-56.0017239646,-102.3119020607) scale(1,-1) translate(50,-110)"
    />
  
  <line
    x1="103.04568527918782"
    y1="99.49238578680203"
    x2="101.72910662824208"
    y2="104.89913544668588"
    stroke="hsla(0,50%,50%,0.6)"
    stroke-width="1"
    transform="translate(-56.0017239646,-102.3119020607) scale(1,-1) translate(50,-110)"
    />
  
  <line
    x1="103.63636363636364"
    y1="98.18181818181819"
    x2="102.62008733624454"
    y2="102.18340611353712"
    stroke="hsla(0,50%,50%,0.6)"
    stroke-width="1"
    transform="translate(-56.0017239646,-102.3119020607) scale(1,-1) translate(50,-110)"
    />
  
  <line
    x1="105.26315789473684"
    y1="98.6842105263158"
    x2="104.49438202247191"
    y2="101.12359550561797"
    stroke="hsla(0,50%,50%,0.6)"
    stroke-width="1"
    transform="translate(-56.0017239646,-102.3119020607) scale(1,-1) translate(50,-110)"
    />
  
  <line
    x1="109.70873786407768"
    y1="93.20388349514563"
    x2="106.36942675159236"
    y2="101.91082802547771"
    stroke="hsla(0,50%,50%,0.6)"
    stroke-width="1"
    transform="translate(-56.0017239646,-102.3119020607) scale(1,-1) translate(50,-110)"
    />
  
  <line
    x1="112.96296296296296"
    y1="88.88888888888889"
    x2="105.12820512820512"
    y2="107.6923076923077"
    stroke="hsla(0,50%,50%,0.6)"
    stroke-width="1"
    transform="translate(-56.0017239646,-102.3119020607) scale(1,-1) translate(50,-110)"
    />
  
  <line
    x1="122.58064516129032"
    y1="96.7741935483871"
    x2="116.47058823529412"
    y2="105.88235294117646"
    stroke="hsla(0,50%,50%,0.6)"
    stroke-width="1"
    transform="translate(-56.0017239646,-102.3119020607) scale(1,-1) translate(50,-110)"
    />
  
  <line
    x1="136.36363636363637"
    y1="84.84848484848484"
    x2="125"
    y2="100"
    stroke="hsla(0,50%,50%,0.6)"
    stroke-width="1"
    transform="translate(-56.0017239646,-102.3119020607) scale(1,-1) translate(50,-110)"
    />
  
  <line
    x1="136.36363636363637"
    y1="84.84848484848484"
    x2="0"
    y2="100"
    stroke="hsla(0,50%,50%,0.6)"
    stroke-width="1"
    transform="translate(-56.0017239646,-102.3119020607) scale(1,-1) translate(50,-110)"
    />
  
  <line
    x1="112.96296296296296"
    y1="88.88888888888889"
    x2="0"
    y2="100"
    stroke="hsla(0,50%,50%,0.6)"
    stroke-width="1"
    transform="translate(-56.0017239646,-102.3119020607) scale(1,-1) translate(50,-110)"
    />
  
  <line
    x1="0"
    y1="100"
    x2="105.12820512820512"
    y2="107.6923076923077"
    stroke="hsla(0,50%,50%,0.6)"
    stroke-width="1"
    transform="translate(-56.0017239646,-102.3119020607) scale(1,-1) translate(50,-110)"
    />
  
  <line
    x1="109.70873786407768"
    y1="93.20388349514563"
    x2="0"
    y2="100"
    stroke="hsla(0,50%,50%,0.6)"
    stroke-width="1"
    transform="translate(-56.0017239646,-102.3119020607) scale(1,-1) translate(50,-110)"
    />
  
  <line
    x1="0"
    y1="100"
    x2="125.25773195876289"
    y2="107.21649484536083"
    stroke="hsla(0,50%,50%,0.6)"
    stroke-width="1"
    transform="translate(-56.0017239646,-102.3119020607) scale(1,-1) translate(50,-110)"
    />
  
  <line
    x1="0"
    y1="100"
    x2="116.47058823529412"
    y2="105.88235294117646"
    stroke="hsla(0,50%,50%,0.6)"
    stroke-width="1"
    transform="translate(-56.0017239646,-102.3119020607) scale(1,-1) translate(50,-110)"
    />
  
  <line
    x1="0"
    y1="100"
    x2="101.72910662824208"
    y2="104.89913544668588"
    stroke="hsla(0,50%,50%,0.6)"
    stroke-width="1"
    transform="translate(-56.0017239646,-102.3119020607) scale(1,-1) translate(50,-110)"
    />
  
  <line
    x1="100"
    y1="95.23809523809524"
    x2="0"
    y2="100"
    stroke="hsla(0,50%,50%,0.6)"
    stroke-width="1"
    transform="translate(-56.0017239646,-102.3119020607) scale(1,-1) translate(50,-110)"
    />
  
  <line
    x1="100"
    y1="95.65217391304348"
    x2="0"
    y2="100"
    stroke="hsla(0,50%,50%,0.6)"
    stroke-width="1"
    transform="translate(-56.0017239646,-102.3119020607) scale(1,-1) translate(50,-110)"
    />
  
  <line
    x1="101.48883374689827"
    y1="96.7741935483871"
    x2="0"
    y2="100"
    stroke="hsla(0,50%,50%,0.6)"
    stroke-width="1"
    transform="translate(-56.0017239646,-102.3119020607) scale(1,-1) translate(50,-110)"
    />
  
  <line
    x1="0"
    y1="100"
    x2="100.62305295950156"
    y2="102.80373831775701"
    stroke="hsla(0,50%,50%,0.6)"
    stroke-width="1"
    transform="translate(-56.0017239646,-102.3119020607) scale(1,-1) translate(50,-110)"
    />
  
  <line
    x1="122.58064516129032"
    y1="96.7741935483871"
    x2="0"
    y2="100"
    stroke="hsla(0,50%,50%,0.6)"
    stroke-width="1"
    transform="translate(-56.0017239646,-102.3119020607) scale(1,-1) translate(50,-110)"
    />
  
  <line
    x1="0"
    y1="100"
    x2="102.62008733624454"
    y2="102.18340611353712"
    stroke="hsla(0,50%,50%,0.6)"
    stroke-width="1"
    transform="translate(-56.0017239646,-102.3119020607) scale(1,-1) translate(50,-110)"
    />
  
  <line
    x1="100.75471698113208"
    y1="98.11320754716981"
    x2="0"
    y2="100"
    stroke="hsla(0,50%,50%,0.6)"
    stroke-width="1"
    transform="translate(-56.0017239646,-102.3119020607) scale(1,-1) translate(50,-110)"
    />
  
  <line
    x1="0"
    y1="100"
    x2="106.36942675159236"
    y2="101.91082802547771"
    stroke="hsla(0,50%,50%,0.6)"
    stroke-width="1"
    transform="translate(-56.0017239646,-102.3119020607) scale(1,-1) translate(50,-110)"
    />
  
  <line
    x1="103.63636363636364"
    y1="98.18181818181819"
    x2="0"
    y2="100"
    stroke="hsla(0,50%,50%,0.6)"
    stroke-width="1"
    transform="translate(-56.0017239646,-102.3119020607) scale(1,-1) translate(50,-110)"
    />
  
  <line
    x1="105.26315789473684"
    y1="98.6842105263158"
    x2="0"
    y2="100"
    stroke="hsla(0,50%,50%,0.6)"
    stroke-width="1"
    transform="translate(-56.0017239646,-102.3119020607) scale(1,-1) translate(50,-110)"
    />
  
  <line
    x1="0"
    y1="100"
    x2="104.49438202247191"
    y2="101.12359550561797"
    stroke="hsla(0,50%,50%,0.6)"
    stroke-width="1"
    transform="translate(-56.0017239646,-102.3119020607) scale(1,-1) translate(50,-110)"
    />
  
  <line
    x1="0"
    y1="100"
    x2="100.50251256281408"
    y2="100.50251256281408"
    stroke="hsla(0,50%,50%,0.6)"
    stroke-width="1"
    transform="translate(-56.0017239646,-102.3119020607) scale(1,-1) translate(50,-110)"
    />
  
  <line
    x1="103.04568527918782"
    y1="99.49238578680203"
    x2="0"
    y2="100"
    stroke="hsla(0,50%,50%,0.6)"
    stroke-width="1"
    transform="translate(-56.0017239646,-102.3119020607) scale(1,-1) translate(50,-110)"
    />
  
  <line
    x1="0"
    y1="100"
    x2="125"
    y2="100"
    stroke="hsla(0,50%,50%,0.6)"
    stroke-width="1"
    transform="translate(-56.0017239646,-102.3119020607) scale(1,-1) translate(50,-110)"
    />
  
  <line
    x1="140.97560975609755"
    y1="88.78048780487805"
    x2="125.25773195876289"
    y2="107.21649484536083"
    stroke="hsla(0,50%,50%,0.6)"
    stroke-width="1"
    transform="translate(-56.0017239646,-102.3119020607) scale(1,-1) translate(50,-110)"
    />
  
</svg>
