<?xml version="1.0"?>
<!DOCTYPE svg PUBLIC "-//W3C//DTD SVG 1.1//EN"
  "http://www.w3.org/Graphics/SVG/1.1/DTD/svg11.dtd">
<svg
  width="240"
  height="240"
  viewBox="-500 -500 1000 1000" xmlns="http://www.w3.org/2000/svg" version="1.1">
  <rect
    x="0"
    y="0"
    width="100"
    height="100"
    fill="hsla(206,100%,53%,0.3)"
    stroke="hsl(206,100%,53%)"
    stroke-width="3"
    transform="" />
  
  <path
    d="M 
      0
      0
      L
    
      33.3333333333
      0
      L
    
      66.6666666666
      33.3333333333
      L
    
      91.6666666666
      66.6666666666
      L
    
      80
      106.6666666666
      L
    
      12.9032258064
      87.0967741935
      L
    
      0
      100
      z
    "
    fill="hsla(0,0%,50%,0.3)"
    stroke="hsla(0,0%,50%,1)"
    stroke-width="1"
    transform="translate(-45.8333333333,-53.3333333333)"
    />
  
  
  <line
    x1="66.66666666666667"
    y1="33.333333333333336"
    x2="91.66666666666667"
    y2="66.66666666666667"
    stroke="hsla(0,50%,50%,0.6)"
    stroke-width="1"
    transform="translate(-45.8333333333,-53.3333333333)"
    />
  
  <line
    x1="33.333333333333336"
    y1="0"
    x2="66.66666666666667"
    y2="33.333333333333336"
    stroke="hsla(0,50%,50%,0.6)"
    stroke-width="1"
    transform="translate(-45.8333333333,-53.3333333333)"
    />
  
  <line
    x1="0"
    y1="0"
    x2="33.333333333333336"
    y2="0"
    stroke="hsla(0,50%,50%,0.6)"
    stroke-width="1"
    transform="translate(-45.8333333333,-53.3333333333)"
    />
  
  <line
    x1="0"
    y1="0"
    x2="0"
    y2="100"
    stroke="hsla(0,50%,50%,0.6)"
    stroke-width="1"
    transform="translate(-45.8333333333,-53.3333333333)"
    />
  
  <line
    x1="33.333333333333336"
    y1="0"
    x2="33.333333333333336"
    y2="66.66666666666667"
    stroke="hsla(0,50%,50%,0.6)"
    stroke-width="1"
    transform="translate(-45.8333333333,-53.3333333333)"
    />
  
  <line
    x1="91.66666666666667"
    y1="66.66666666666667"
    x2="80"
    y2="106.66666666666667"
    stroke="hsla(0,50%,50%,0.6)"
    stroke-width="1"
    transform="translate(-45.8333333333,-53.3333333333)"
    />
  
  <line
    x1="66.66666666666667"
    y1="33.333333333333336"
    x2="0"
    y2="100"
    stroke="hsla(0,50%,50%,0.6)"
    stroke-width="1"
    transform="translate(-45.8333333333,-53.3333333333)"
    />
  
  <line
    x1="66.66666666666667"
    y1="33.333333333333336"
    x2="0"
    y2="83.33333333333333"
    stroke="hsla(0,50%,50%,0.6)"
    stroke-width="1"
    transform="translate(-45.8333333333,-53.3333333333)"
    />
  
  <line
    x1="33.333333333333336"
    y1="66.66666666666667"
    x2="91.66666666666667"
    y2="66.66666666666667"
    stroke="hsla(0,50%,50%,0.6)"
    stroke-width="1"
    transform="translate(-45.8333333333,-53.3333333333)"
    />
  
  <line
    x1="0"
    y1="83.33333333333333"
    x2="80"
    y2="106.66666666666667"
    stroke="hsla(0,50%,50%,0.6)"
    stroke-width="1"
    transform="translate(-45.8333333333,-53.3333333333)"
    />
  
</svg>
