<?xml version="1.0"?>
<!DOCTYPE svg PUBLIC "-//W3C//DTD SVG 1.1//EN"
  "http://www.w3.org/Graphics/SVG/1.1/DTD/svg11.dtd">
<svg
  width="240"
  height="240"
  viewBox="-500 -500 1000 1000" xmlns="http://www.w3.org/2000/svg" version="1.1">
  <rect
    x="0"
    y="0"
    width="100"
    height="100"
    fill="hsla(206,100%,53%,0.3)"
    stroke="hsl(206,100%,53%)"
    stroke-width="3"
    transform="" />
  
  <path
    d="M 
      -176.0061729793
      -17.9108871457
      L
    
      -82.3685379851
      17.6393925721
      L
    
      -88.0439268261
      35.5732429876
      L
    
      -84.8935764244
      39.7987591582
      L
    
      -90.7668926385
      44.1776334417
      L
    
      -93.3694845783
      42.3262176421
      L
    
      -108.7601086691
      76.8637587012
      L
    
      -200.1013634250
      36.1602554168
      z
    "
    fill="hsla(0,0%,50%,0.3)"
    stroke="hsla(0,0%,50%,1)"
    stroke-width="1"
    transform="translate(141.2349507051,-29.4764357777)"
    />
  
  
  <line
    x1="-175.2016495722914"
    y1="-17.60544337661821"
    x2="-176.3811179499746"
    y2="-16.72608603248435"
    stroke="hsla(0,50%,50%,0.6)"
    stroke-width="1"
    transform="translate(141.2349507051,-29.4764357777)"
    />
  
  <line
    x1="-176.0061729793778"
    y1="-17.910887145710337"
    x2="-200.1013634250401"
    y2="36.16025541685511"
    stroke="hsla(0,50%,50%,0.6)"
    stroke-width="1"
    transform="translate(141.2349507051,-29.4764357777)"
    />
  
  <line
    x1="-176.0061729793778"
    y1="-17.910887145710337"
    x2="-176.3811179499746"
    y2="-16.72608603248435"
    stroke="hsla(0,50%,50%,0.6)"
    stroke-width="1"
    transform="translate(141.2349507051,-29.4764357777)"
    />
  
  <line
    x1="-82.36853798517944"
    y1="17.63939257216518"
    x2="-108.76010866918205"
    y2="76.86375870128309"
    stroke="hsla(0,50%,50%,0.6)"
    stroke-width="1"
    transform="translate(141.2349507051,-29.4764357777)"
    />
  
  <line
    x1="-82.36853798517944"
    y1="17.63939257216518"
    x2="-90.76689263850638"
    y2="44.1776334417264"
    stroke="hsla(0,50%,50%,0.6)"
    stroke-width="1"
    transform="translate(141.2349507051,-29.4764357777)"
    />
  
  <line
    x1="-84.89357642447048"
    y1="39.79875915823114"
    x2="-90.76689263850638"
    y2="44.1776334417264"
    stroke="hsla(0,50%,50%,0.6)"
    stroke-width="1"
    transform="translate(141.2349507051,-29.4764357777)"
    />
  
  <line
    x1="-108.93411428505354"
    y1="7.553558298525063"
    x2="-167.46842534762777"
    y2="19.690505296464888"
    stroke="hsla(0,50%,50%,0.6)"
    stroke-width="1"
    transform="translate(141.2349507051,-29.4764357777)"
    />
  
  <line
    x1="-175.2016495722914"
    y1="-17.60544337661821"
    x2="-167.46842534762777"
    y2="19.690505296464888"
    stroke="hsla(0,50%,50%,0.6)"
    stroke-width="1"
    transform="translate(141.2349507051,-29.4764357777)"
    />
  
  <line
    x1="-176.0061729793778"
    y1="-17.910887145710337"
    x2="-82.36853798517944"
    y2="17.63939257216518"
    stroke="hsla(0,50%,50%,0.6)"
    stroke-width="1"
    transform="translate(141.2349507051,-29.4764357777)"
    />
  
  <line
    x1="-108.93411428505354"
    y1="7.553558298525063"
    x2="-84.89357642447048"
    y2="39.79875915823114"
    stroke="hsla(0,50%,50%,0.6)"
    stroke-width="1"
    transform="translate(141.2349507051,-29.4764357777)"
    />
  
  <line
    x1="-176.3811179499746"
    y1="-16.72608603248435"
    x2="-90.76689263850638"
    y2="44.1776334417264"
    stroke="hsla(0,50%,50%,0.6)"
    stroke-width="1"
    transform="translate(141.2349507051,-29.4764357777)"
    />
  
  <line
    x1="-200.1013634250401"
    y1="36.16025541685511"
    x2="-108.76010866918205"
    y2="76.86375870128309"
    stroke="hsla(0,50%,50%,0.6)"
    stroke-width="1"
    transform="translate(141.2349507051,-29.4764357777)"
    />
  
</svg>
