<?xml version="1.0"?>
<!DOCTYPE svg PUBLIC "-//W3C//DTD SVG 1.1//EN"
  "http://www.w3.org/Graphics/SVG/1.1/DTD/svg11.dtd">
<svg
  width="240"
  height="240"
  viewBox="-500 -500 1000 1000" xmlns="http://www.w3.org/2000/svg" version="1.1">
  <rect
    x="0"
    y="0"
    width="100"
    height="100"
    fill="hsla(206,100%,53%,0.3)"
    stroke="hsl(206,100%,53%)"
    stroke-width="3"
    transform="" />
  
  <path
    d="M 
      9.3305356371
      -127.4354218519
      L
    
      48.5717363997
      -113.4834740027
      L
    
      96.0514811190
      -107.8605481962
      L
    
      94.7720696907
      -97.0572528840
      L
    
      103.5523677646
      -93.9354763214
      L
    
      99.8965467110
      -83.6531265402
      L
    
      44.5868152274
      -56.6128133704
      L
    
      6.1559816523
      -118.5066821809
      z
    "
    fill="hsla(0,0%,50%,0.3)"
    stroke="hsla(0,0%,50%,1)"
    stroke-width="1"
    transform="translate(-54.8541747084,92.0241176112)"
    />
  
  
  <line
    x1="6.155981652366488"
    y1="-118.50668218092557"
    x2="96.05148111900564"
    y2="-107.8605481962627"
    stroke="hsla(0,50%,50%,0.6)"
    stroke-width="1"
    transform="translate(-54.8541747084,92.0241176112)"
    />
  
  <line
    x1="9.330535637178105"
    y1="-127.43542185197288"
    x2="103.55236776461656"
    y2="-93.935476321438"
    stroke="hsla(0,50%,50%,0.6)"
    stroke-width="1"
    transform="translate(-54.8541747084,92.0241176112)"
    />
  
  <line
    x1="13.615449290292174"
    y1="-106.49301324826628"
    x2="94.54157934890478"
    y2="-95.1110023081194"
    stroke="hsla(0,50%,50%,0.6)"
    stroke-width="1"
    transform="translate(-54.8541747084,92.0241176112)"
    />
  
  <line
    x1="15.325015876247766"
    y1="-111.65606628956894"
    x2="99.89654671105379"
    y2="-83.65312654021889"
    stroke="hsla(0,50%,50%,0.6)"
    stroke-width="1"
    transform="translate(-54.8541747084,92.0241176112)"
    />
  
  <line
    x1="6.155981652366488"
    y1="-118.50668218092557"
    x2="44.586815227483754"
    y2="-56.61281337047354"
    stroke="hsla(0,50%,50%,0.6)"
    stroke-width="1"
    transform="translate(-54.8541747084,92.0241176112)"
    />
  
  <line
    x1="99.89654671105379"
    y1="-83.65312654021889"
    x2="44.586815227483754"
    y2="-56.61281337047354"
    stroke="hsla(0,50%,50%,0.6)"
    stroke-width="1"
    transform="translate(-54.8541747084,92.0241176112)"
    />
  
  <line
    x1="94.54157934890478"
    y1="-95.1110023081194"
    x2="44.586815227483754"
    y2="-56.61281337047354"
    stroke="hsla(0,50%,50%,0.6)"
    stroke-width="1"
    transform="translate(-54.8541747084,92.0241176112)"
    />
  
  <line
    x1="9.330535637178105"
    y1="-127.43542185197288"
    x2="6.155981652366488"
    y2="-118.50668218092557"
    stroke="hsla(0,50%,50%,0.6)"
    stroke-width="1"
    transform="translate(-54.8541747084,92.0241176112)"
    />
  
  <line
    x1="15.325015876247766"
    y1="-111.65606628956894"
    x2="13.615449290292174"
    y2="-106.49301324826628"
    stroke="hsla(0,50%,50%,0.6)"
    stroke-width="1"
    transform="translate(-54.8541747084,92.0241176112)"
    />
  
  <line
    x1="96.05148111900564"
    y1="-107.8605481962627"
    x2="94.54157934890478"
    y2="-95.1110023081194"
    stroke="hsla(0,50%,50%,0.6)"
    stroke-width="1"
    transform="translate(-54.8541747084,92.0241176112)"
    />
  
  <line
    x1="103.55236776461656"
    y1="-93.935476321438"
    x2="99.89654671105379"
    y2="-83.65312654021889"
    stroke="hsla(0,50%,50%,0.6)"
    stroke-width="1"
    transform="translate(-54.8541747084,92.0241176112)"
    />
  
</svg>
