<?xml version="1.0"?>
<!DOCTYPE svg PUBLIC "-//W3C//DTD SVG 1.1//EN"
  "http://www.w3.org/Graphics/SVG/1.1/DTD/svg11.dtd">
<svg
  width="240"
  height="240"
  viewBox="-50 -50 200 200" xmlns="http://www.w3.org/2000/svg" version="1.1">
  <rect
    x="0"
    y="0"
    width="100"
    height="100"
    fill="hsla(206,100%,53%,0.3)"
    stroke="hsl(206,100%,53%)"
    stroke-width="3"
    transform="" />
  
  <path
    d="M 
      10.2257486400
      143.8447458926
      L
    
      15.4988060176
      147.3012775059
      L
    
      12.4800389841
      162.8418922646
      L
    
      48.4220849714
      177.4323292544
      L
    
      10.8087643278
      270.0888892497
      L
    
      -22.0680194473
      256.7427752786
      L
    
      -12.2123767659
      152.8181686219
      L
    
      6.8284671788
      149.0274151337
      z
    "
    fill="hsla(0,0%,50%,0.3)"
    stroke="hsla(0,0%,50%,1)"
    stroke-width="1"
    transform="translate(-0.1873485852,-172.0553953739) scale(1,-1) translate(50,-110)"
    />
  
  
  <line
    x1="-12.212376765999645"
    y1="152.81816862190263"
    x2="-22.068019447330578"
    y2="256.7427752786603"
    stroke="hsla(0,50%,50%,0.6)"
    stroke-width="1"
    transform="translate(-0.1873485852,-172.0553953739) scale(1,-1) translate(50,-110)"
    />
  
  <line
    x1="15.49880601768203"
    y1="147.30127750598058"
    x2="-5.10419199224122"
    y2="253.36552538970471"
    stroke="hsla(0,50%,50%,0.6)"
    stroke-width="1"
    transform="translate(-0.1873485852,-172.0553953739) scale(1,-1) translate(50,-110)"
    />
  
  <line
    x1="-15.012720003814135"
    y1="182.3468943380912"
    x2="5.560015264541086"
    y2="232.23456040846295"
    stroke="hsla(0,50%,50%,0.6)"
    stroke-width="1"
    transform="translate(-0.1873485852,-172.0553953739) scale(1,-1) translate(50,-110)"
    />
  
  <line
    x1="48.422084971475996"
    y1="177.43232925447617"
    x2="10.808764327846019"
    y2="270.0888892497592"
    stroke="hsla(0,50%,50%,0.6)"
    stroke-width="1"
    transform="translate(-0.1873485852,-172.0553953739) scale(1,-1) translate(50,-110)"
    />
  
  <line
    x1="10.22574864005931"
    y1="143.84474589265804"
    x2="-15.012720003814135"
    y2="182.3468943380912"
    stroke="hsla(0,50%,50%,0.6)"
    stroke-width="1"
    transform="translate(-0.1873485852,-172.0553953739) scale(1,-1) translate(50,-110)"
    />
  
  <line
    x1="10.22574864005931"
    y1="143.84474589265804"
    x2="15.49880601768203"
    y2="147.30127750598058"
    stroke="hsla(0,50%,50%,0.6)"
    stroke-width="1"
    transform="translate(-0.1873485852,-172.0553953739) scale(1,-1) translate(50,-110)"
    />
  
  <line
    x1="-12.212376765999645"
    y1="152.81816862190263"
    x2="48.422084971475996"
    y2="177.43232925447617"
    stroke="hsla(0,50%,50%,0.6)"
    stroke-width="1"
    transform="translate(-0.1873485852,-172.0553953739) scale(1,-1) translate(50,-110)"
    />
  
  <line
    x1="15.49880601768203"
    y1="147.30127750598058"
    x2="-12.212376765999645"
    y2="152.81816862190263"
    stroke="hsla(0,50%,50%,0.6)"
    stroke-width="1"
    transform="translate(-0.1873485852,-172.0553953739) scale(1,-1) translate(50,-110)"
    />
  
  <line
    x1="-20.773650608230078"
    y1="243.09406896678357"
    x2="-5.10419199224122"
    y2="253.36552538970471"
    stroke="hsla(0,50%,50%,0.6)"
    stroke-width="1"
    transform="translate(-0.1873485852,-172.0553953739) scale(1,-1) translate(50,-110)"
    />
  
  <line
    x1="5.560015264541086"
    y1="232.23456040846295"
    x2="-20.773650608230078"
    y2="243.09406896678357"
    stroke="hsla(0,50%,50%,0.6)"
    stroke-width="1"
    transform="translate(-0.1873485852,-172.0553953739) scale(1,-1) translate(50,-110)"
    />
  
  <line
    x1="-22.068019447330578"
    y1="256.7427752786603"
    x2="10.808764327846019"
    y2="270.0888892497592"
    stroke="hsla(0,50%,50%,0.6)"
    stroke-width="1"
    transform="translate(-0.1873485852,-172.0553953739) scale(1,-1) translate(50,-110)"
    />
  
  <line
    x1="-5.10419199224122"
    y1="253.36552538970471"
    x2="-22.068019447330578"
    y2="256.7427752786603"
    stroke="hsla(0,50%,50%,0.6)"
    stroke-width="1"
    transform="translate(-0.1873485852,-172.0553953739) scale(1,-1) translate(50,-110)"
    />
  
</svg>
