<?xml version="1.0"?>
<!DOCTYPE svg PUBLIC "-//W3C//DTD SVG 1.1//EN"
  "http://www.w3.org/Graphics/SVG/1.1/DTD/svg11.dtd">
<svg
  width="240"
  height="240"
  viewBox="-500 -500 1000 1000" xmlns="http://www.w3.org/2000/svg" version="1.1">
  <rect
    x="0"
    y="0"
    width="100"
    height="100"
    fill="hsla(206,100%,53%,0.3)"
    stroke="hsl(206,100%,53%)"
    stroke-width="3"
    transform="" />
  
  <path
    d="M 
      -139.8271549442
      -94.6031583256
      L
    
      -77.7885086204
      -64.8705860371
      L
    
      -85.0278599037
      22.4359904393
      L
    
      -92.8675739157
      38.7939846332
      L
    
      -167.9553598133
      2.8074962992
      L
    
      -177.6085081094
      -15.7702883035
      z
    "
    fill="hsla(0,0%,50%,0.3)"
    stroke="hsla(0,0%,50%,1)"
    stroke-width="1"
    transform="translate(127.6985083649,27.9045868461)"
    />
  
  
  <line
    x1="-77.78850862047231"
    y1="-64.87058603710386"
    x2="-107.76516302959399"
    y2="-56.203313519611555"
    stroke="hsla(0,50%,50%,0.6)"
    stroke-width="1"
    transform="translate(127.6985083649,27.9045868461)"
    />
  
  <line
    x1="-139.82715494427626"
    y1="-94.60315832569528"
    x2="-177.60850810948256"
    y2="-15.7702883035366"
    stroke="hsla(0,50%,50%,0.6)"
    stroke-width="1"
    transform="translate(127.6985083649,27.9045868461)"
    />
  
  <line
    x1="-85.02785990376277"
    y1="22.435990439379115"
    x2="-92.86757391571048"
    y2="38.793984633296034"
    stroke="hsla(0,50%,50%,0.6)"
    stroke-width="1"
    transform="translate(127.6985083649,27.9045868461)"
    />
  
  <line
    x1="-165.19916199820273"
    y1="-13.698106301675184"
    x2="-167.95535981336414"
    y2="2.80749629923898"
    stroke="hsla(0,50%,50%,0.6)"
    stroke-width="1"
    transform="translate(127.6985083649,27.9045868461)"
    />
  
  <line
    x1="-139.82715494427626"
    y1="-94.60315832569528"
    x2="-77.78850862047231"
    y2="-64.87058603710386"
    stroke="hsla(0,50%,50%,0.6)"
    stroke-width="1"
    transform="translate(127.6985083649,27.9045868461)"
    />
  
  <line
    x1="-77.78850862047231"
    y1="-64.87058603710386"
    x2="-85.02785990376277"
    y2="22.435990439379115"
    stroke="hsla(0,50%,50%,0.6)"
    stroke-width="1"
    transform="translate(127.6985083649,27.9045868461)"
    />
  
  <line
    x1="-177.60850810948256"
    y1="-15.7702883035366"
    x2="-165.19916199820273"
    y2="-13.698106301675184"
    stroke="hsla(0,50%,50%,0.6)"
    stroke-width="1"
    transform="translate(127.6985083649,27.9045868461)"
    />
  
  <line
    x1="-107.76516302959399"
    y1="-56.203313519611555"
    x2="-85.02785990376277"
    y2="22.435990439379115"
    stroke="hsla(0,50%,50%,0.6)"
    stroke-width="1"
    transform="translate(127.6985083649,27.9045868461)"
    />
  
  <line
    x1="-167.95535981336414"
    y1="2.80749629923898"
    x2="-92.86757391571048"
    y2="38.793984633296034"
    stroke="hsla(0,50%,50%,0.6)"
    stroke-width="1"
    transform="translate(127.6985083649,27.9045868461)"
    />
  
  <line
    x1="-177.60850810948256"
    y1="-15.7702883035366"
    x2="-167.95535981336414"
    y2="2.80749629923898"
    stroke="hsla(0,50%,50%,0.6)"
    stroke-width="1"
    transform="translate(127.6985083649,27.9045868461)"
    />
  
</svg>
