<?xml version="1.0"?>
<!DOCTYPE svg PUBLIC "-//W3C//DTD SVG 1.1//EN"
  "http://www.w3.org/Graphics/SVG/1.1/DTD/svg11.dtd">
<svg
  width="240"
  height="240"
  viewBox="-50 -50 200 200" xmlns="http://www.w3.org/2000/svg" version="1.1">
  <rect
    x="0"
    y="0"
    width="100"
    height="100"
    fill="hsla(206,100%,53%,0.3)"
    stroke="hsl(206,100%,53%)"
    stroke-width="3"
    transform="" />
  
  <path
    d="M 
      200.8986389358
      109.3065648772
      L
    
      218.3306537668
      157.4476581233
      L
    
      155.0105814082
      180.3760206932
      L
    
      123.8070540360
      128.4819823396
      L
    
      137.9061500050
      112.7857244723
      L
    
      150.4064205028
      121.8657743981
      z
    "
    fill="hsla(0,0%,50%,0.3)"
    stroke="hsla(0,0%,50%,1)"
    stroke-width="1"
    transform="translate(-147.9447062421,-124.7991368716) scale(1,-1) translate(50,-110)"
    />
  
  
  <line
    x1="200.898638935833"
    y1="109.30656487726434"
    x2="218.33065376682825"
    y2="157.44765812338787"
    stroke="hsla(0,50%,50%,0.6)"
    stroke-width="1"
    transform="translate(-147.9447062421,-124.7991368716) scale(1,-1) translate(50,-110)"
    />
  
  <line
    x1="200.898638935833"
    y1="109.30656487726434"
    x2="207.71611190703211"
    y2="157.62801003660297"
    stroke="hsla(0,50%,50%,0.6)"
    stroke-width="1"
    transform="translate(-147.9447062421,-124.7991368716) scale(1,-1) translate(50,-110)"
    />
  
  <line
    x1="123.80705403609737"
    y1="128.48198233960278"
    x2="155.01058140820717"
    y2="180.3760206932191"
    stroke="hsla(0,50%,50%,0.6)"
    stroke-width="1"
    transform="translate(-147.9447062421,-124.7991368716) scale(1,-1) translate(50,-110)"
    />
  
  <line
    x1="137.90615000506492"
    y1="112.78572447230482"
    x2="179.22911521991293"
    y2="158.4691191125071"
    stroke="hsla(0,50%,50%,0.6)"
    stroke-width="1"
    transform="translate(-147.9447062421,-124.7991368716) scale(1,-1) translate(50,-110)"
    />
  
  <line
    x1="137.90615000506492"
    y1="112.78572447230482"
    x2="168.97468135692196"
    y2="135.35354137245437"
    stroke="hsla(0,50%,50%,0.6)"
    stroke-width="1"
    transform="translate(-147.9447062421,-124.7991368716) scale(1,-1) translate(50,-110)"
    />
  
  <line
    x1="137.90615000506492"
    y1="112.78572447230482"
    x2="123.80705403609737"
    y2="128.48198233960278"
    stroke="hsla(0,50%,50%,0.6)"
    stroke-width="1"
    transform="translate(-147.9447062421,-124.7991368716) scale(1,-1) translate(50,-110)"
    />
  
  <line
    x1="168.97468135692196"
    y1="135.35354137245437"
    x2="146.52356543986383"
    y2="166.26141349138646"
    stroke="hsla(0,50%,50%,0.6)"
    stroke-width="1"
    transform="translate(-147.9447062421,-124.7991368716) scale(1,-1) translate(50,-110)"
    />
  
  <line
    x1="200.898638935833"
    y1="109.30656487726434"
    x2="123.80705403609737"
    y2="128.48198233960278"
    stroke="hsla(0,50%,50%,0.6)"
    stroke-width="1"
    transform="translate(-147.9447062421,-124.7991368716) scale(1,-1) translate(50,-110)"
    />
  
  <line
    x1="179.22911521991293"
    y1="158.4691191125071"
    x2="155.01058140820717"
    y2="180.3760206932191"
    stroke="hsla(0,50%,50%,0.6)"
    stroke-width="1"
    transform="translate(-147.9447062421,-124.7991368716) scale(1,-1) translate(50,-110)"
    />
  
  <line
    x1="207.71611190703211"
    y1="157.62801003660297"
    x2="146.52356543986383"
    y2="166.26141349138646"
    stroke="hsla(0,50%,50%,0.6)"
    stroke-width="1"
    transform="translate(-147.9447062421,-124.7991368716) scale(1,-1) translate(50,-110)"
    />
  
  <line
    x1="218.33065376682825"
    y1="157.44765812338787"
    x2="155.01058140820717"
    y2="180.3760206932191"
    stroke="hsla(0,50%,50%,0.6)"
    stroke-width="1"
    transform="translate(-147.9447062421,-124.7991368716) scale(1,-1) translate(50,-110)"
    />
  
</svg>
