<?xml version="1.0"?>
<!DOCTYPE svg PUBLIC "-//W3C//DTD SVG 1.1//EN"
  "http://www.w3.org/Graphics/SVG/1.1/DTD/svg11.dtd">
<svg
  width="240"
  height="240"
  viewBox="-500 -500 1000 1000" xmlns="http://www.w3.org/2000/svg" version="1.1">
  <rect
    x="0"
    y="0"
    width="100"
    height="100"
    fill="hsla(206,100%,53%,0.3)"
    stroke="hsl(206,100%,53%)"
    stroke-width="3"
    transform="" />
  
  <path
    d="M 
      -6.3675475632
      0.9034298252
      L
    
      0
      22.8915662650
      L
    
      5.3054944003
      60.2857135446
      L
    
      -15.7722146211
      107.7356435391
      L
    
      -74.6048568662
      124.7729967861
      L
    
      -102.4209856952
      28.7195586541
      z
    "
    fill="hsla(0,0%,50%,0.3)"
    stroke="hsla(0,0%,50%,1)"
    stroke-width="1"
    transform="translate(48.5577456474,-62.8382133056)"
    />
  
  
  <line
    x1="-6.367547563260138"
    y1="0.9034298252146863"
    x2="-102.42098569521704"
    y2="28.719558654193186"
    stroke="hsla(0,50%,50%,0.6)"
    stroke-width="1"
    transform="translate(48.5577456474,-62.8382133056)"
    />
  
  <line
    x1="0"
    y1="22.89156626506024"
    x2="0"
    y2="72.22939004315522"
    stroke="hsla(0,50%,50%,0.6)"
    stroke-width="1"
    transform="translate(48.5577456474,-62.8382133056)"
    />
  
  <line
    x1="0"
    y1="22.89156626506024"
    x2="5.305494400347689"
    y2="60.285713544619256"
    stroke="hsla(0,50%,50%,0.6)"
    stroke-width="1"
    transform="translate(48.5577456474,-62.8382133056)"
    />
  
  <line
    x1="-6.367547563260138"
    y1="0.9034298252146863"
    x2="0"
    y2="22.89156626506024"
    stroke="hsla(0,50%,50%,0.6)"
    stroke-width="1"
    transform="translate(48.5577456474,-62.8382133056)"
    />
  
  <line
    x1="5.305494400347689"
    y1="60.285713544619256"
    x2="-15.772214621157294"
    y2="107.73564353919825"
    stroke="hsla(0,50%,50%,0.6)"
    stroke-width="1"
    transform="translate(48.5577456474,-62.8382133056)"
    />
  
  <line
    x1="-27.94016034158106"
    y1="82.72898801936878"
    x2="-15.772214621157294"
    y2="107.73564353919825"
    stroke="hsla(0,50%,50%,0.6)"
    stroke-width="1"
    transform="translate(48.5577456474,-62.8382133056)"
    />
  
  <line
    x1="-102.42098569521704"
    y1="28.719558654193186"
    x2="-74.60485686623853"
    y2="124.77299678615009"
    stroke="hsla(0,50%,50%,0.6)"
    stroke-width="1"
    transform="translate(48.5577456474,-62.8382133056)"
    />
  
  <line
    x1="0"
    y1="72.22939004315522"
    x2="-20.60593170921022"
    y2="90.84664966347988"
    stroke="hsla(0,50%,50%,0.6)"
    stroke-width="1"
    transform="translate(48.5577456474,-62.8382133056)"
    />
  
  <line
    x1="5.305494400347689"
    y1="60.285713544619256"
    x2="-27.94016034158106"
    y2="82.72898801936878"
    stroke="hsla(0,50%,50%,0.6)"
    stroke-width="1"
    transform="translate(48.5577456474,-62.8382133056)"
    />
  
  <line
    x1="-27.94016034158106"
    y1="82.72898801936878"
    x2="-20.60593170921022"
    y2="90.84664966347988"
    stroke="hsla(0,50%,50%,0.6)"
    stroke-width="1"
    transform="translate(48.5577456474,-62.8382133056)"
    />
  
  <line
    x1="-15.772214621157294"
    y1="107.73564353919825"
    x2="-74.60485686623853"
    y2="124.77299678615009"
    stroke="hsla(0,50%,50%,0.6)"
    stroke-width="1"
    transform="translate(48.5577456474,-62.8382133056)"
    />
  
</svg>
