<?xml version="1.0"?>
<!DOCTYPE svg PUBLIC "-//W3C//DTD SVG 1.1//EN"
  "http://www.w3.org/Graphics/SVG/1.1/DTD/svg11.dtd">
<svg
  width="240"
  height="240"
  viewBox="-500 -500 1000 1000" xmlns="http://www.w3.org/2000/svg" version="1.1">
  <rect
    x="0"
    y="0"
    width="100"
    height="100"
    fill="hsla(206,100%,53%,0.3)"
    stroke="hsl(206,100%,53%)"
    stroke-width="3"
    transform="" />
  
  <path
    d="M 
      -108.4555145774
      156.0077980048
      L
    
      -94.0941876992
      200.5433783211
      L
    
      -107.2462006392
      204.7844897111
      L
    
      -107.1367872414
      209.1975899018
      L
    
      -122.0805056580
      209.5680874968
      L
    
      -189.2681642978
      231.2339986864
      L
    
      -194.4693954836
      215.1045803407
      L
    
      -203.3782882107
      215.2526488192
      L
    
      -203.4392422528
      211.5852036791
      L
    
      -158.2345668009
      164.4689082832
      z
    "
    fill="hsla(0,0%,50%,0.3)"
    stroke="hsla(0,0%,50%,1)"
    stroke-width="1"
    transform="translate(148.7667149760,-193.6208983456)"
    />
  
  
  <line
    x1="-158.23456680093597"
    y1="164.4689082832584"
    x2="-164.63462248558702"
    y2="214.60871743378704"
    stroke="hsla(0,50%,50%,0.6)"
    stroke-width="1"
    transform="translate(148.7667149760,-193.6208983456)"
    />
  
  <line
    x1="-158.23456680093597"
    y1="164.4689082832584"
    x2="-203.43924225284863"
    y2="211.58520367918692"
    stroke="hsla(0,50%,50%,0.6)"
    stroke-width="1"
    transform="translate(148.7667149760,-193.6208983456)"
    />
  
  <line
    x1="-108.45551457745147"
    y1="156.00779800487376"
    x2="-107.13678724145485"
    y2="209.19758990184596"
    stroke="hsla(0,50%,50%,0.6)"
    stroke-width="1"
    transform="translate(148.7667149760,-193.6208983456)"
    />
  
  <line
    x1="-203.43924225284863"
    y1="211.58520367918692"
    x2="-203.37828821078375"
    y2="215.25264881929874"
    stroke="hsla(0,50%,50%,0.6)"
    stroke-width="1"
    transform="translate(148.7667149760,-193.6208983456)"
    />
  
  <line
    x1="-108.45551457745147"
    y1="156.00779800487376"
    x2="-94.09418769922289"
    y2="200.54337832118767"
    stroke="hsla(0,50%,50%,0.6)"
    stroke-width="1"
    transform="translate(148.7667149760,-193.6208983456)"
    />
  
  <line
    x1="-197.57521429152098"
    y1="205.473197103013"
    x2="-189.26816429785254"
    y2="231.2339986864311"
    stroke="hsla(0,50%,50%,0.6)"
    stroke-width="1"
    transform="translate(148.7667149760,-193.6208983456)"
    />
  
  <line
    x1="-108.45551457745147"
    y1="156.00779800487376"
    x2="-158.23456680093597"
    y2="164.4689082832584"
    stroke="hsla(0,50%,50%,0.6)"
    stroke-width="1"
    transform="translate(148.7667149760,-193.6208983456)"
    />
  
  <line
    x1="-94.09418769922289"
    y1="200.54337832118767"
    x2="-189.26816429785254"
    y2="231.2339986864311"
    stroke="hsla(0,50%,50%,0.6)"
    stroke-width="1"
    transform="translate(148.7667149760,-193.6208983456)"
    />
  
  <line
    x1="-107.13678724145485"
    y1="209.19758990184596"
    x2="-203.43924225284863"
    y2="211.58520367918692"
    stroke="hsla(0,50%,50%,0.6)"
    stroke-width="1"
    transform="translate(148.7667149760,-193.6208983456)"
    />
  
  <line
    x1="-164.63462248558702"
    y1="214.60871743378704"
    x2="-203.37828821078375"
    y2="215.25264881929874"
    stroke="hsla(0,50%,50%,0.6)"
    stroke-width="1"
    transform="translate(148.7667149760,-193.6208983456)"
    />
  
  <line
    x1="-197.57521429152098"
    y1="205.473197103013"
    x2="-164.63462248558702"
    y2="214.60871743378704"
    stroke="hsla(0,50%,50%,0.6)"
    stroke-width="1"
    transform="translate(148.7667149760,-193.6208983456)"
    />
  
</svg>
