<?xml version="1.0"?>
<!DOCTYPE svg PUBLIC "-//W3C//DTD SVG 1.1//EN"
  "http://www.w3.org/Graphics/SVG/1.1/DTD/svg11.dtd">
<svg
  width="240"
  height="240"
  viewBox="-50 -50 200 200" xmlns="http://www.w3.org/2000/svg" version="1.1">
  <rect
    x="0"
    y="0"
    width="100"
    height="100"
    fill="hsla(206,100%,53%,0.3)"
    stroke="hsl(206,100%,53%)"
    stroke-width="3"
    transform="" />
  
  <path
    d="M 
      -79.1651454900
      3.0450476302
      L
    
      10.5522478019
      10.2566228597
      L
    
      9.8875089215
      20.5390861950
      L
    
      9.5625711107
      20.5492604483
      L
    
      1.9230769230
      100
      L
    
      0
      100
      L
    
      0
      99.6267263904
      L
    
      -94.3569072920
      81.3118358373
      z
    "
    fill="hsla(0,0%,50%,0.3)"
    stroke="hsla(0,0%,50%,1)"
    stroke-width="1"
    transform="translate(47.1409769274,-85.3796064277) scale(1,-1) translate(50,-110)"
    />
  
  
  <line
    x1="-79.16514549000397"
    y1="3.0450476302319673"
    x2="-94.35690729204838"
    y2="81.31183583730304"
    stroke="hsla(0,50%,50%,0.6)"
    stroke-width="1"
    transform="translate(47.1409769274,-85.3796064277) scale(1,-1) translate(50,-110)"
    />
  
  <line
    x1="0"
    y1="9.408422459893048"
    x2="0"
    y2="100"
    stroke="hsla(0,50%,50%,0.6)"
    stroke-width="1"
    transform="translate(47.1409769274,-85.3796064277) scale(1,-1) translate(50,-110)"
    />
  
  <line
    x1="0"
    y1="9.408422459893048"
    x2="-1.5028073134073539"
    y2="18.696047741017892"
    stroke="hsla(0,50%,50%,0.6)"
    stroke-width="1"
    transform="translate(47.1409769274,-85.3796064277) scale(1,-1) translate(50,-110)"
    />
  
  <line
    x1="10.552247801947233"
    y1="10.256622859748767"
    x2="9.887508921512252"
    y2="20.539086195061397"
    stroke="hsla(0,50%,50%,0.6)"
    stroke-width="1"
    transform="translate(47.1409769274,-85.3796064277) scale(1,-1) translate(50,-110)"
    />
  
  <line
    x1="10.552247801947233"
    y1="10.256622859748767"
    x2="1.9230769230769231"
    y2="100"
    stroke="hsla(0,50%,50%,0.6)"
    stroke-width="1"
    transform="translate(47.1409769274,-85.3796064277) scale(1,-1) translate(50,-110)"
    />
  
  <line
    x1="-79.16514549000397"
    y1="3.0450476302319673"
    x2="-78.5306974248175"
    y2="23.30758280515543"
    stroke="hsla(0,50%,50%,0.6)"
    stroke-width="1"
    transform="translate(47.1409769274,-85.3796064277) scale(1,-1) translate(50,-110)"
    />
  
  <line
    x1="-79.16514549000397"
    y1="3.0450476302319673"
    x2="10.552247801947233"
    y2="10.256622859748767"
    stroke="hsla(0,50%,50%,0.6)"
    stroke-width="1"
    transform="translate(47.1409769274,-85.3796064277) scale(1,-1) translate(50,-110)"
    />
  
  <line
    x1="-1.5028073134073539"
    y1="18.696047741017892"
    x2="9.887508921512252"
    y2="20.539086195061397"
    stroke="hsla(0,50%,50%,0.6)"
    stroke-width="1"
    transform="translate(47.1409769274,-85.3796064277) scale(1,-1) translate(50,-110)"
    />
  
  <line
    x1="9.887508921512252"
    y1="20.539086195061397"
    x2="-78.5306974248175"
    y2="23.30758280515543"
    stroke="hsla(0,50%,50%,0.6)"
    stroke-width="1"
    transform="translate(47.1409769274,-85.3796064277) scale(1,-1) translate(50,-110)"
    />
  
  <line
    x1="-94.35690729204838"
    y1="81.31183583730304"
    x2="1.9230769230769231"
    y2="100"
    stroke="hsla(0,50%,50%,0.6)"
    stroke-width="1"
    transform="translate(47.1409769274,-85.3796064277) scale(1,-1) translate(50,-110)"
    />
  
  <line
    x1="0"
    y1="100"
    x2="1.9230769230769231"
    y2="100"
    stroke="hsla(0,50%,50%,0.6)"
    stroke-width="1"
    transform="translate(47.1409769274,-85.3796064277) scale(1,-1) translate(50,-110)"
    />
  
</svg>
