<?xml version="1.0"?>
<!DOCTYPE svg PUBLIC "-//W3C//DTD SVG 1.1//EN"
  "http://www.w3.org/Graphics/SVG/1.1/DTD/svg11.dtd">
<svg
  width="240"
  height="240"
  viewBox="-50 -50 200 200" xmlns="http://www.w3.org/2000/svg" version="1.1">
  <rect
    x="0"
    y="0"
    width="100"
    height="100"
    fill="hsla(206,100%,53%,0.3)"
    stroke="hsl(206,100%,53%)"
    stroke-width="3"
    transform="" />
  
  <path
    d="M 
      98.0654442682
      79.5776081707
      L
    
      209.8677282449
      91.6923541396
      L
    
      212.9210899423
      107.9329243854
      L
    
      202.1045894714
      109.9665160473
      L
    
      199.1337045380
      116.9598770922
      L
    
      192.1476765667
      115.6374669001
      L
    
      191.2921456030
      119.0822706963
      L
    
      175.0603922986
      115.0510490739
      L
    
      114.6429311747
      126.4100320935
      L
    
      109.6827762280
      100.0273913110
      L
    
      98.5710871325
      97.9240199859
      L
    
      98.5192097870
      96.0417366379
      L
    
      94.2404255985
      94.9790832686
      z
    "
    fill="hsla(0,0%,50%,0.3)"
    stroke="hsla(0,0%,50%,1)"
    stroke-width="1"
    transform="translate(-100.2549767828,-97.5525575032) scale(1,-1) translate(50,-110)"
    />
  
  
  <line
    x1="209.8677282449072"
    y1="91.69235413960773"
    x2="212.92108994231432"
    y2="107.93292438541361"
    stroke="hsla(0,50%,50%,0.6)"
    stroke-width="1"
    transform="translate(-100.2549767828,-97.5525575032) scale(1,-1) translate(50,-110)"
    />
  
  <line
    x1="105.9996866202512"
    y1="80.43735206082663"
    x2="114.64293117474502"
    y2="126.41003209350578"
    stroke="hsla(0,50%,50%,0.6)"
    stroke-width="1"
    transform="translate(-100.2549767828,-97.5525575032) scale(1,-1) translate(50,-110)"
    />
  
  <line
    x1="198.40307119309225"
    y1="90.4500592341451"
    x2="199.13370453800746"
    y2="116.95987709223395"
    stroke="hsla(0,50%,50%,0.6)"
    stroke-width="1"
    transform="translate(-100.2549767828,-97.5525575032) scale(1,-1) translate(50,-110)"
    />
  
  <line
    x1="98.06544426828435"
    y1="79.57760817071227"
    x2="98.57108713250486"
    y2="97.9240199859072"
    stroke="hsla(0,50%,50%,0.6)"
    stroke-width="1"
    transform="translate(-100.2549767828,-97.5525575032) scale(1,-1) translate(50,-110)"
    />
  
  <line
    x1="98.06544426828435"
    y1="79.57760817071227"
    x2="94.24042559853007"
    y2="94.9790832686877"
    stroke="hsla(0,50%,50%,0.6)"
    stroke-width="1"
    transform="translate(-100.2549767828,-97.5525575032) scale(1,-1) translate(50,-110)"
    />
  
  <line
    x1="105.9996866202512"
    y1="80.43735206082663"
    x2="98.57108713250486"
    y2="97.9240199859072"
    stroke="hsla(0,50%,50%,0.6)"
    stroke-width="1"
    transform="translate(-100.2549767828,-97.5525575032) scale(1,-1) translate(50,-110)"
    />
  
  <line
    x1="198.40307119309225"
    y1="90.4500592341451"
    x2="191.2921456030063"
    y2="119.08227069634428"
    stroke="hsla(0,50%,50%,0.6)"
    stroke-width="1"
    transform="translate(-100.2549767828,-97.5525575032) scale(1,-1) translate(50,-110)"
    />
  
  <line
    x1="94.24042559853007"
    y1="94.9790832686877"
    x2="191.2921456030063"
    y2="119.08227069634428"
    stroke="hsla(0,50%,50%,0.6)"
    stroke-width="1"
    transform="translate(-100.2549767828,-97.5525575032) scale(1,-1) translate(50,-110)"
    />
  
  <line
    x1="98.06544426828435"
    y1="79.57760817071227"
    x2="209.8677282449072"
    y2="91.69235413960773"
    stroke="hsla(0,50%,50%,0.6)"
    stroke-width="1"
    transform="translate(-100.2549767828,-97.5525575032) scale(1,-1) translate(50,-110)"
    />
  
  <line
    x1="98.57108713250486"
    y1="97.9240199859072"
    x2="199.13370453800746"
    y2="116.95987709223395"
    stroke="hsla(0,50%,50%,0.6)"
    stroke-width="1"
    transform="translate(-100.2549767828,-97.5525575032) scale(1,-1) translate(50,-110)"
    />
  
  <line
    x1="209.8677282449072"
    y1="91.69235413960773"
    x2="199.13370453800746"
    y2="116.95987709223395"
    stroke="hsla(0,50%,50%,0.6)"
    stroke-width="1"
    transform="translate(-100.2549767828,-97.5525575032) scale(1,-1) translate(50,-110)"
    />
  
  <line
    x1="212.92108994231432"
    y1="107.93292438541361"
    x2="114.64293117474502"
    y2="126.41003209350578"
    stroke="hsla(0,50%,50%,0.6)"
    stroke-width="1"
    transform="translate(-100.2549767828,-97.5525575032) scale(1,-1) translate(50,-110)"
    />
  
</svg>
