<?xml version="1.0"?>
<!DOCTYPE svg PUBLIC "-//W3C//DTD SVG 1.1//EN"
  "http://www.w3.org/Graphics/SVG/1.1/DTD/svg11.dtd">
<svg
  width="240"
  height="240"
  viewBox="-500 -500 1000 1000" xmlns="http://www.w3.org/2000/svg" version="1.1">
  <rect
    x="0"
    y="0"
    width="100"
    height="100"
    fill="hsla(206,100%,53%,0.3)"
    stroke="hsl(206,100%,53%)"
    stroke-width="3"
    transform="" />
  
  <path
    d="M 
      -9.5345119509
      -319.6606220305
      L
    
      -1.3480503069
      -316.4249117109
      L
    
      10.2531845439
      -259.0769480728
      L
    
      -4.6412143692
      -189.5295523379
      L
    
      -15.5386224604
      -185.2622179170
      L
    
      -25.5654206984
      -210.8674556303
      L
    
      -66.4623870662
      -252.5730046764
      L
    
      -48.7128003328
      -269.9784643403
      L
    
      -52.0017590505
      -278.3774136158
      L
    
      -32.2670578316
      -286.1053585630
      L
    
      -16.8039610475
      -301.2686584975
      z
    "
    fill="hsla(0,0%,50%,0.3)"
    stroke="hsla(0,0%,50%,1)"
    stroke-width="1"
    transform="translate(28.1046012611,252.4614199738)"
    />
  
  
  <line
    x1="2.0657117067840014"
    y1="-299.54978571375347"
    x2="-17.686113863052416"
    y2="-299.0367806486138"
    stroke="hsla(0,50%,50%,0.6)"
    stroke-width="1"
    transform="translate(28.1046012611,252.4614199738)"
    />
  
  <line
    x1="-9.534511950934645"
    y1="-319.66062203059903"
    x2="-1.348050306926365"
    y2="-316.42491171093627"
    stroke="hsla(0,50%,50%,0.6)"
    stroke-width="1"
    transform="translate(28.1046012611,252.4614199738)"
    />
  
  <line
    x1="2.0657117067840014"
    y1="-299.54978571375347"
    x2="-52.00175905055303"
    y2="-278.377413615812"
    stroke="hsla(0,50%,50%,0.6)"
    stroke-width="1"
    transform="translate(28.1046012611,252.4614199738)"
    />
  
  <line
    x1="-4.641214369249076"
    y1="-189.5295523379193"
    x2="-15.53862246045279"
    y2="-185.2622179170878"
    stroke="hsla(0,50%,50%,0.6)"
    stroke-width="1"
    transform="translate(28.1046012611,252.4614199738)"
    />
  
  <line
    x1="-1.348050306926365"
    y1="-316.42491171093627"
    x2="-66.46238706628239"
    y2="-252.57300467645805"
    stroke="hsla(0,50%,50%,0.6)"
    stroke-width="1"
    transform="translate(28.1046012611,252.4614199738)"
    />
  
  <line
    x1="-66.46238706628239"
    y1="-252.57300467645805"
    x2="-4.641214369249076"
    y2="-189.5295523379193"
    stroke="hsla(0,50%,50%,0.6)"
    stroke-width="1"
    transform="translate(28.1046012611,252.4614199738)"
    />
  
  <line
    x1="-17.686113863052416"
    y1="-299.0367806486138"
    x2="10.253184543934864"
    y2="-259.07694807289425"
    stroke="hsla(0,50%,50%,0.6)"
    stroke-width="1"
    transform="translate(28.1046012611,252.4614199738)"
    />
  
  <line
    x1="-9.534511950934645"
    y1="-319.66062203059903"
    x2="-17.686113863052416"
    y2="-299.0367806486138"
    stroke="hsla(0,50%,50%,0.6)"
    stroke-width="1"
    transform="translate(28.1046012611,252.4614199738)"
    />
  
  <line
    x1="-52.00175905055303"
    y1="-278.377413615812"
    x2="-15.53862246045279"
    y2="-185.2622179170878"
    stroke="hsla(0,50%,50%,0.6)"
    stroke-width="1"
    transform="translate(28.1046012611,252.4614199738)"
    />
  
  <line
    x1="-1.348050306926365"
    y1="-316.42491171093627"
    x2="10.253184543934864"
    y2="-259.07694807289425"
    stroke="hsla(0,50%,50%,0.6)"
    stroke-width="1"
    transform="translate(28.1046012611,252.4614199738)"
    />
  
  <line
    x1="10.253184543934864"
    y1="-259.07694807289425"
    x2="-4.641214369249076"
    y2="-189.5295523379193"
    stroke="hsla(0,50%,50%,0.6)"
    stroke-width="1"
    transform="translate(28.1046012611,252.4614199738)"
    />
  
</svg>
