<?xml version="1.0"?>
<!DOCTYPE svg PUBLIC "-//W3C//DTD SVG 1.1//EN"
  "http://www.w3.org/Graphics/SVG/1.1/DTD/svg11.dtd">
<svg
  width="240"
  height="240"
  viewBox="-500 -500 1000 1000" xmlns="http://www.w3.org/2000/svg" version="1.1">
  <rect
    x="0"
    y="0"
    width="100"
    height="100"
    fill="hsla(206,100%,53%,0.3)"
    stroke="hsl(206,100%,53%)"
    stroke-width="3"
    transform="" />
  
  <path
    d="M 
      -113.4081024204
      -102.0049259296
      L
    
      -80.4408088411
      -68.9938510839
      L
    
      -96.3138515349
      10.6750899442
      L
    
      -123.5849746745
      14.6549943268
      L
    
      -126.8241931124
      -7.5407964269
      L
    
      -158.5117187465
      -26.4595084600
      L
    
      -135.2670174777
      -65.3927649114
      L
    
      -138.0258450249
      -84.2968185090
      L
    
      -122.6399580593
      -86.5422104077
      L
    
      -120.4095872169
      -90.2779263019
      L
    
      -123.7320730972
      -95.8596757560
      z
    "
    fill="hsla(0,0%,50%,0.3)"
    stroke="hsla(0,0%,50%,1)"
    stroke-width="1"
    transform="translate(119.4762637938,43.6749658013)"
    />
  
  
  <line
    x1="-113.40810242041127"
    y1="-102.00492592960173"
    x2="-123.7320730972133"
    y2="-95.85967575608582"
    stroke="hsla(0,50%,50%,0.6)"
    stroke-width="1"
    transform="translate(119.4762637938,43.6749658013)"
    />
  
  <line
    x1="-101.10456700936854"
    y1="-89.68505116210342"
    x2="-138.02584502499153"
    y2="-84.2968185090898"
    stroke="hsla(0,50%,50%,0.6)"
    stroke-width="1"
    transform="translate(119.4762637938,43.6749658013)"
    />
  
  <line
    x1="-80.44080884111787"
    y1="-68.99385108393476"
    x2="-104.8640321493135"
    y2="-64.16151929789713"
    stroke="hsla(0,50%,50%,0.6)"
    stroke-width="1"
    transform="translate(119.4762637938,43.6749658013)"
    />
  
  <line
    x1="-113.40810242041127"
    y1="-102.00492592960173"
    x2="-158.511718746592"
    y2="-26.459508460093968"
    stroke="hsla(0,50%,50%,0.6)"
    stroke-width="1"
    transform="translate(119.4762637938,43.6749658013)"
    />
  
  <line
    x1="-80.44080884111787"
    y1="-68.99385108393476"
    x2="-96.31385153494992"
    y2="10.67508994427598"
    stroke="hsla(0,50%,50%,0.6)"
    stroke-width="1"
    transform="translate(119.4762637938,43.6749658013)"
    />
  
  <line
    x1="-101.10456700936854"
    y1="-89.68505116210342"
    x2="-104.8640321493135"
    y2="-64.16151929789713"
    stroke="hsla(0,50%,50%,0.6)"
    stroke-width="1"
    transform="translate(119.4762637938,43.6749658013)"
    />
  
  <line
    x1="-96.31385153494992"
    y1="10.67508994427598"
    x2="-123.58497467451384"
    y2="14.654994326859264"
    stroke="hsla(0,50%,50%,0.6)"
    stroke-width="1"
    transform="translate(119.4762637938,43.6749658013)"
    />
  
  <line
    x1="-113.40810242041127"
    y1="-102.00492592960173"
    x2="-80.44080884111787"
    y2="-68.99385108393476"
    stroke="hsla(0,50%,50%,0.6)"
    stroke-width="1"
    transform="translate(119.4762637938,43.6749658013)"
    />
  
  <line
    x1="-138.02584502499153"
    y1="-84.2968185090898"
    x2="-123.58497467451384"
    y2="14.654994326859264"
    stroke="hsla(0,50%,50%,0.6)"
    stroke-width="1"
    transform="translate(119.4762637938,43.6749658013)"
    />
  
  <line
    x1="-123.7320730972133"
    y1="-95.85967575608582"
    x2="-104.8640321493135"
    y2="-64.16151929789713"
    stroke="hsla(0,50%,50%,0.6)"
    stroke-width="1"
    transform="translate(119.4762637938,43.6749658013)"
    />
  
  <line
    x1="-158.511718746592"
    y1="-26.459508460093968"
    x2="-96.31385153494992"
    y2="10.67508994427598"
    stroke="hsla(0,50%,50%,0.6)"
    stroke-width="1"
    transform="translate(119.4762637938,43.6749658013)"
    />
  
</svg>
