<?xml version="1.0"?>
<!DOCTYPE svg PUBLIC "-//W3C//DTD SVG 1.1//EN"
  "http://www.w3.org/Graphics/SVG/1.1/DTD/svg11.dtd">
<svg
  width="240"
  height="240"
  viewBox="-500 -500 1000 1000" xmlns="http://www.w3.org/2000/svg" version="1.1">
  <rect
    x="0"
    y="0"
    width="100"
    height="100"
    fill="hsla(206,100%,53%,0.3)"
    stroke="hsl(206,100%,53%)"
    stroke-width="3"
    transform="" />
  
  <path
    d="M 
      -6.3306586921
      22.1174151713
      L
    
      0
      23.7324185248
      L
    
      59.2537313432
      100
      L
    
      49.1816039076
      139.4817762817
      L
    
      -21.9105603951
      121.3455776106
      L
    
      -22.2452963913
      122.3298401723
      L
    
      -34.8324746031
      118.0490905001
      z
    "
    fill="hsla(0,0%,50%,0.3)"
    stroke="hsla(0,0%,50%,1)"
    stroke-width="1"
    transform="translate(-12.2106283700,-80.7995957265)"
    />
  
  
  <line
    x1="0"
    y1="23.732418524871356"
    x2="0"
    y2="100"
    stroke="hsla(0,50%,50%,0.6)"
    stroke-width="1"
    transform="translate(-12.2106283700,-80.7995957265)"
    />
  
  <line
    x1="-6.330658692157919"
    y1="22.11741517132469"
    x2="-34.83247460311981"
    y2="118.0490905001233"
    stroke="hsla(0,50%,50%,0.6)"
    stroke-width="1"
    transform="translate(-12.2106283700,-80.7995957265)"
    />
  
  <line
    x1="0.5680585908722416"
    y1="24.463586906673292"
    x2="1.3407945124729816"
    y2="34.34567034109767"
    stroke="hsla(0,50%,50%,0.6)"
    stroke-width="1"
    transform="translate(-12.2106283700,-80.7995957265)"
    />
  
  <line
    x1="7.8501805792656665"
    y1="33.83666467698277"
    x2="-22.245296391388628"
    y2="122.3298401723563"
    stroke="hsla(0,50%,50%,0.6)"
    stroke-width="1"
    transform="translate(-12.2106283700,-80.7995957265)"
    />
  
  <line
    x1="0"
    y1="23.732418524871356"
    x2="59.25373134328358"
    y2="100"
    stroke="hsla(0,50%,50%,0.6)"
    stroke-width="1"
    transform="translate(-12.2106283700,-80.7995957265)"
    />
  
  <line
    x1="59.25373134328358"
    y1="100"
    x2="49.18160390762609"
    y2="139.48177628178837"
    stroke="hsla(0,50%,50%,0.6)"
    stroke-width="1"
    transform="translate(-12.2106283700,-80.7995957265)"
    />
  
  <line
    x1="-6.330658692157919"
    y1="22.11741517132469"
    x2="0.5680585908722416"
    y2="24.463586906673292"
    stroke="hsla(0,50%,50%,0.6)"
    stroke-width="1"
    transform="translate(-12.2106283700,-80.7995957265)"
    />
  
  <line
    x1="-6.330658692157919"
    y1="22.11741517132469"
    x2="0"
    y2="23.732418524871356"
    stroke="hsla(0,50%,50%,0.6)"
    stroke-width="1"
    transform="translate(-12.2106283700,-80.7995957265)"
    />
  
  <line
    x1="7.8501805792656665"
    y1="33.83666467698277"
    x2="1.3407945124729816"
    y2="34.34567034109767"
    stroke="hsla(0,50%,50%,0.6)"
    stroke-width="1"
    transform="translate(-12.2106283700,-80.7995957265)"
    />
  
  <line
    x1="0"
    y1="100"
    x2="59.25373134328358"
    y2="100"
    stroke="hsla(0,50%,50%,0.6)"
    stroke-width="1"
    transform="translate(-12.2106283700,-80.7995957265)"
    />
  
  <line
    x1="-34.83247460311981"
    y1="118.0490905001233"
    x2="-22.245296391388628"
    y2="122.3298401723563"
    stroke="hsla(0,50%,50%,0.6)"
    stroke-width="1"
    transform="translate(-12.2106283700,-80.7995957265)"
    />
  
  <line
    x1="-34.83247460311981"
    y1="118.0490905001233"
    x2="49.18160390762609"
    y2="139.48177628178837"
    stroke="hsla(0,50%,50%,0.6)"
    stroke-width="1"
    transform="translate(-12.2106283700,-80.7995957265)"
    />
  
</svg>
