<?xml version="1.0"?>
<!DOCTYPE svg PUBLIC "-//W3C//DTD SVG 1.1//EN"
  "http://www.w3.org/Graphics/SVG/1.1/DTD/svg11.dtd">
<svg
  width="240"
  height="240"
  viewBox="-500 -500 1000 1000" xmlns="http://www.w3.org/2000/svg" version="1.1">
  <rect
    x="0"
    y="0"
    width="100"
    height="100"
    fill="hsla(206,100%,53%,0.3)"
    stroke="hsl(206,100%,53%)"
    stroke-width="3"
    transform="" />
  
  <path
    d="M 
      0
      22.8286575469
      L
    
      81.1547558091
      100
      L
    
      82.1024316474
      118.8214010934
      L
    
      33.1448436580
      121.2864632325
      L
    
      -18.4026753672
      111.3056328478
      L
    
      -22.7997746149
      23.9766483588
      z
    "
    fill="hsla(0,0%,50%,0.3)"
    stroke="hsla(0,0%,50%,1)"
    stroke-width="1"
    transform="translate(-29.6513285162,-72.0575603897)"
    />
  
  
  <line
    x1="81.15475580913369"
    y1="100"
    x2="82.10243164748981"
    y2="118.82140109340367"
    stroke="hsla(0,50%,50%,0.6)"
    stroke-width="1"
    transform="translate(-29.6513285162,-72.0575603897)"
    />
  
  <line
    x1="0"
    y1="22.828657546951078"
    x2="0"
    y2="100"
    stroke="hsla(0,50%,50%,0.6)"
    stroke-width="1"
    transform="translate(-29.6513285162,-72.0575603897)"
    />
  
  <line
    x1="-22.79977461493276"
    y1="23.976648358863038"
    x2="-18.402675367235574"
    y2="111.30563284787351"
    stroke="hsla(0,50%,50%,0.6)"
    stroke-width="1"
    transform="translate(-29.6513285162,-72.0575603897)"
    />
  
  <line
    x1="0"
    y1="22.828657546951078"
    x2="81.15475580913369"
    y2="100"
    stroke="hsla(0,50%,50%,0.6)"
    stroke-width="1"
    transform="translate(-29.6513285162,-72.0575603897)"
    />
  
  <line
    x1="-13.134408626725278"
    y1="99.9034982269898"
    x2="-18.402675367235574"
    y2="111.30563284787351"
    stroke="hsla(0,50%,50%,0.6)"
    stroke-width="1"
    transform="translate(-29.6513285162,-72.0575603897)"
    />
  
  <line
    x1="0"
    y1="22.828657546951078"
    x2="-22.79977461493276"
    y2="23.976648358863038"
    stroke="hsla(0,50%,50%,0.6)"
    stroke-width="1"
    transform="translate(-29.6513285162,-72.0575603897)"
    />
  
  <line
    x1="-13.134408626725278"
    y1="99.9034982269898"
    x2="33.144843658038056"
    y2="121.2864632325904"
    stroke="hsla(0,50%,50%,0.6)"
    stroke-width="1"
    transform="translate(-29.6513285162,-72.0575603897)"
    />
  
  <line
    x1="0"
    y1="100"
    x2="81.15475580913369"
    y2="100"
    stroke="hsla(0,50%,50%,0.6)"
    stroke-width="1"
    transform="translate(-29.6513285162,-72.0575603897)"
    />
  
  <line
    x1="-18.402675367235574"
    y1="111.30563284787351"
    x2="33.144843658038056"
    y2="121.2864632325904"
    stroke="hsla(0,50%,50%,0.6)"
    stroke-width="1"
    transform="translate(-29.6513285162,-72.0575603897)"
    />
  
  <line
    x1="82.10243164748981"
    y1="118.82140109340367"
    x2="33.144843658038056"
    y2="121.2864632325904"
    stroke="hsla(0,50%,50%,0.6)"
    stroke-width="1"
    transform="translate(-29.6513285162,-72.0575603897)"
    />
  
</svg>
