<?xml version="1.0"?>
<!DOCTYPE svg PUBLIC "-//W3C//DTD SVG 1.1//EN"
  "http://www.w3.org/Graphics/SVG/1.1/DTD/svg11.dtd">
<svg
  width="240"
  height="240"
  viewBox="-500 -500 1000 1000" xmlns="http://www.w3.org/2000/svg" version="1.1">
  <rect
    x="0"
    y="0"
    width="100"
    height="100"
    fill="hsla(206,100%,53%,0.3)"
    stroke="hsl(206,100%,53%)"
    stroke-width="3"
    transform="" />
  
  <path
    d="M 
      102.1708777618
      91.9647382884
      L
    
      182.6934084003
      151.2706730948
      L
    
      174.9582820038
      162.0039847868
      L
    
      174.7360144775
      161.8438042703
      L
    
      130.5159583906
      220.5997811809
      L
    
      91.8441377992
      191.4951663749
      L
    
      78.0135622606
      124.0629940893
      z
    "
    fill="hsla(0,0%,50%,0.3)"
    stroke="hsla(0,0%,50%,1)"
    stroke-width="1"
    transform="translate(-130.3534853304,-156.2822597347)"
    />
  
  
  <line
    x1="78.01356226066984"
    y1="124.0629940893848"
    x2="91.84413779925576"
    y2="191.49516637493178"
    stroke="hsla(0,50%,50%,0.6)"
    stroke-width="1"
    transform="translate(-130.3534853304,-156.2822597347)"
    />
  
  <line
    x1="102.17087776183425"
    y1="91.96473828845623"
    x2="182.69340840032822"
    y2="151.2706730948393"
    stroke="hsla(0,50%,50%,0.6)"
    stroke-width="1"
    transform="translate(-130.3534853304,-156.2822597347)"
    />
  
  <line
    x1="93.83045334585789"
    y1="103.5379654486741"
    x2="174.95828200380495"
    y2="162.00398478680574"
    stroke="hsla(0,50%,50%,0.6)"
    stroke-width="1"
    transform="translate(-130.3534853304,-156.2822597347)"
    />
  
  <line
    x1="78.01356226066984"
    y1="124.0629940893848"
    x2="117.52929912192816"
    y2="146.74248706573093"
    stroke="hsla(0,50%,50%,0.6)"
    stroke-width="1"
    transform="translate(-130.3534853304,-156.2822597347)"
    />
  
  <line
    x1="91.84413779925576"
    y1="191.49516637493178"
    x2="130.51595839066115"
    y2="220.59978118094807"
    stroke="hsla(0,50%,50%,0.6)"
    stroke-width="1"
    transform="translate(-130.3534853304,-156.2822597347)"
    />
  
  <line
    x1="102.17087776183425"
    y1="91.96473828845623"
    x2="93.83045334585789"
    y2="103.5379654486741"
    stroke="hsla(0,50%,50%,0.6)"
    stroke-width="1"
    transform="translate(-130.3534853304,-156.2822597347)"
    />
  
  <line
    x1="102.17087776183425"
    y1="91.96473828845623"
    x2="78.01356226066984"
    y2="124.0629940893848"
    stroke="hsla(0,50%,50%,0.6)"
    stroke-width="1"
    transform="translate(-130.3534853304,-156.2822597347)"
    />
  
  <line
    x1="117.52929912192816"
    y1="146.74248706573093"
    x2="91.84413779925576"
    y2="191.49516637493178"
    stroke="hsla(0,50%,50%,0.6)"
    stroke-width="1"
    transform="translate(-130.3534853304,-156.2822597347)"
    />
  
  <line
    x1="182.69340840032822"
    y1="151.2706730948393"
    x2="174.95828200380495"
    y2="162.00398478680574"
    stroke="hsla(0,50%,50%,0.6)"
    stroke-width="1"
    transform="translate(-130.3534853304,-156.2822597347)"
    />
  
  <line
    x1="182.69340840032822"
    y1="151.2706730948393"
    x2="130.51595839066115"
    y2="220.59978118094807"
    stroke="hsla(0,50%,50%,0.6)"
    stroke-width="1"
    transform="translate(-130.3534853304,-156.2822597347)"
    />
  
</svg>
