<?xml version="1.0"?>
<!DOCTYPE svg PUBLIC "-//W3C//DTD SVG 1.1//EN"
  "http://www.w3.org/Graphics/SVG/1.1/DTD/svg11.dtd">
<svg
  width="240"
  height="240"
  viewBox="-50 -50 200 200" xmlns="http://www.w3.org/2000/svg" version="1.1">
  <rect
    x="0"
    y="0"
    width="100"
    height="100"
    fill="hsla(206,100%,53%,0.3)"
    stroke="hsl(206,100%,53%)"
    stroke-width="3"
    transform="" />
  
  <path
    d="M 
      200
      200
      L
    
      300
      200
      L
    
      300
      250
      L
    
      250
      250
      L
    
      225
      225
      L
    
      200
      225
      z
    "
    fill="hsla(0,0%,50%,0.3)"
    stroke="hsla(0,0%,50%,1)"
    stroke-width="1"
    transform="translate(-221.875,-228.125) scale(1,-1) translate(50,-110)"
    />
  
  
  <line
    x1="200"
    y1="200"
    x2="250"
    y2="250"
    stroke="hsla(0,50%,50%,0.6)"
    stroke-width="1"
    transform="translate(-221.875,-228.125) scale(1,-1) translate(50,-110)"
    />
  
  <line
    x1="200"
    y1="200"
    x2="200"
    y2="225"
    stroke="hsla(0,50%,50%,0.6)"
    stroke-width="1"
    transform="translate(-221.875,-228.125) scale(1,-1) translate(50,-110)"
    />
  
  <line
    x1="250"
    y1="200"
    x2="250"
    y2="250"
    stroke="hsla(0,50%,50%,0.6)"
    stroke-width="1"
    transform="translate(-221.875,-228.125) scale(1,-1) translate(50,-110)"
    />
  
  <line
    x1="300"
    y1="200"
    x2="300"
    y2="250"
    stroke="hsla(0,50%,50%,0.6)"
    stroke-width="1"
    transform="translate(-221.875,-228.125) scale(1,-1) translate(50,-110)"
    />
  
  <line
    x1="200"
    y1="200"
    x2="300"
    y2="200"
    stroke="hsla(0,50%,50%,0.6)"
    stroke-width="1"
    transform="translate(-221.875,-228.125) scale(1,-1) translate(50,-110)"
    />
  
  <line
    x1="200"
    y1="225"
    x2="300"
    y2="225"
    stroke="hsla(0,50%,50%,0.6)"
    stroke-width="1"
    transform="translate(-221.875,-228.125) scale(1,-1) translate(50,-110)"
    />
  
  <line
    x1="250"
    y1="250"
    x2="300"
    y2="250"
    stroke="hsla(0,50%,50%,0.6)"
    stroke-width="1"
    transform="translate(-221.875,-228.125) scale(1,-1) translate(50,-110)"
    />
  
</svg>
