<?xml version="1.0"?>
<!DOCTYPE svg PUBLIC "-//W3C//DTD SVG 1.1//EN"
  "http://www.w3.org/Graphics/SVG/1.1/DTD/svg11.dtd">
<svg
  width="240"
  height="240"
  viewBox="-500 -500 1000 1000" xmlns="http://www.w3.org/2000/svg" version="1.1">
  <rect
    x="0"
    y="0"
    width="100"
    height="100"
    fill="hsla(206,100%,53%,0.3)"
    stroke="hsl(206,100%,53%)"
    stroke-width="3"
    transform="" />
  
  <path
    d="M 
      -293.7234320864
      212.7589073757
      L
    
      -256.8911592731
      225.4129337208
      L
    
      -257.7460418998
      231.7770670078
      L
    
      -273.1597633136
      249.1499013806
      L
    
      -298.9527677602
      240.2885053044
      L
    
      -296.9944240165
      234.5883234759
      L
    
      -303.3275307025
      224.4124697822
      L
    
      -300.4805477076
      220.9579556911
      L
    
      -298.1452980146
      219.5045753763
      L
    
      -298.5241351004
      218.5840549929
      z
    "
    fill="hsla(0,0%,50%,0.3)"
    stroke="hsla(0,0%,50%,1)"
    stroke-width="1"
    transform="translate(280.1093449878,-230.9544043781)"
    />
  
  
  <line
    x1="-300.4805477076056"
    y1="220.9579556911233"
    x2="-301.99280115498243"
    y2="224.92169798390745"
    stroke="hsla(0,50%,50%,0.6)"
    stroke-width="1"
    transform="translate(280.1093449878,-230.9544043781)"
    />
  
  <line
    x1="-284.15980142448745"
    y1="216.04457033125823"
    x2="-285.0448900549468"
    y2="217.79557354291094"
    stroke="hsla(0,50%,50%,0.6)"
    stroke-width="1"
    transform="translate(280.1093449878,-230.9544043781)"
    />
  
  <line
    x1="-282.7234717096101"
    y1="216.53803306554082"
    x2="-293.0528068625405"
    y2="237.19630028558217"
    stroke="hsla(0,50%,50%,0.6)"
    stroke-width="1"
    transform="translate(280.1093449878,-230.9544043781)"
    />
  
  <line
    x1="-285.3022249246206"
    y1="235.10910337109047"
    x2="-289.5527005229617"
    y2="243.5179747175505"
    stroke="hsla(0,50%,50%,0.6)"
    stroke-width="1"
    transform="translate(280.1093449878,-230.9544043781)"
    />
  
  <line
    x1="-289.9411785301635"
    y1="214.0583312909212"
    x2="-298.95276776023246"
    y2="240.28850530443611"
    stroke="hsla(0,50%,50%,0.6)"
    stroke-width="1"
    transform="translate(280.1093449878,-230.9544043781)"
    />
  
  <line
    x1="-273.4042867940705"
    y1="231.98119098417158"
    x2="-279.69857168273546"
    y2="246.9034406806257"
    stroke="hsla(0,50%,50%,0.6)"
    stroke-width="1"
    transform="translate(280.1093449878,-230.9544043781)"
    />
  
  <line
    x1="-272.78462955057535"
    y1="235.66344359172172"
    x2="-275.7728779582589"
    y2="243.74434069418993"
    stroke="hsla(0,50%,50%,0.6)"
    stroke-width="1"
    transform="translate(280.1093449878,-230.9544043781)"
    />
  
  <line
    x1="-270.09650629985015"
    y1="245.1378340924052"
    x2="-270.546359652771"
    y2="246.20432920309844"
    stroke="hsla(0,50%,50%,0.6)"
    stroke-width="1"
    transform="translate(280.1093449878,-230.9544043781)"
    />
  
  <line
    x1="-293.7234320864194"
    y1="212.75890737572396"
    x2="-298.524135100429"
    y2="218.58405499290186"
    stroke="hsla(0,50%,50%,0.6)"
    stroke-width="1"
    transform="translate(280.1093449878,-230.9544043781)"
    />
  
  <line
    x1="-300.4805477076056"
    y1="220.9579556911233"
    x2="-303.32753070255256"
    y2="224.41246978223975"
    stroke="hsla(0,50%,50%,0.6)"
    stroke-width="1"
    transform="translate(280.1093449878,-230.9544043781)"
    />
  
  <line
    x1="-256.8911592731347"
    y1="225.4129337208081"
    x2="-266.1037778789258"
    y2="241.19708693673192"
    stroke="hsla(0,50%,50%,0.6)"
    stroke-width="1"
    transform="translate(280.1093449878,-230.9544043781)"
    />
  
  <line
    x1="-263.9138710978705"
    y1="223.00022406005402"
    x2="-278.2282874425636"
    y2="245.0863600508303"
    stroke="hsla(0,50%,50%,0.6)"
    stroke-width="1"
    transform="translate(280.1093449878,-230.9544043781)"
    />
  
  <line
    x1="-278.01970839721287"
    y1="240.66001673153605"
    x2="-279.69857168273546"
    y2="246.9034406806257"
    stroke="hsla(0,50%,50%,0.6)"
    stroke-width="1"
    transform="translate(280.1093449878,-230.9544043781)"
    />
  
  <line
    x1="-282.7234717096101"
    y1="216.53803306554082"
    x2="-283.73102040172495"
    y2="221.55495624643322"
    stroke="hsla(0,50%,50%,0.6)"
    stroke-width="1"
    transform="translate(280.1093449878,-230.9544043781)"
    />
  
  <line
    x1="-284.15980142448745"
    y1="216.04457033125823"
    x2="-289.5527005229617"
    y2="243.5179747175505"
    stroke="hsla(0,50%,50%,0.6)"
    stroke-width="1"
    transform="translate(280.1093449878,-230.9544043781)"
    />
  
  <line
    x1="-269.18710400883265"
    y1="235.23716113006034"
    x2="-270.6806332960179"
    y2="246.3556692787462"
    stroke="hsla(0,50%,50%,0.6)"
    stroke-width="1"
    transform="translate(280.1093449878,-230.9544043781)"
    />
  
  <line
    x1="-256.8911592731347"
    y1="225.4129337208081"
    x2="-257.74604189988804"
    y2="231.77706700783625"
    stroke="hsla(0,50%,50%,0.6)"
    stroke-width="1"
    transform="translate(280.1093449878,-230.9544043781)"
    />
  
  <line
    x1="-257.74604189988804"
    y1="231.77706700783625"
    x2="-273.15976331360946"
    y2="249.1499013806706"
    stroke="hsla(0,50%,50%,0.6)"
    stroke-width="1"
    transform="translate(280.1093449878,-230.9544043781)"
    />
  
  <line
    x1="-263.9138710978705"
    y1="223.00022406005402"
    x2="-265.4313526321456"
    y2="240.43919517737876"
    stroke="hsla(0,50%,50%,0.6)"
    stroke-width="1"
    transform="translate(280.1093449878,-230.9544043781)"
    />
  
  <line
    x1="-293.4726306095732"
    y1="241.64828728554514"
    x2="-293.9366321386596"
    y2="242.0118394203532"
    stroke="hsla(0,50%,50%,0.6)"
    stroke-width="1"
    transform="translate(280.1093449878,-230.9544043781)"
    />
  
  <line
    x1="-293.7234320864194"
    y1="212.75890737572396"
    x2="-293.0528068625405"
    y2="237.19630028558217"
    stroke="hsla(0,50%,50%,0.6)"
    stroke-width="1"
    transform="translate(280.1093449878,-230.9544043781)"
    />
  
  <line
    x1="-266.8205874242795"
    y1="222.00159806815495"
    x2="-293.80576334880755"
    y2="242.05680045555545"
    stroke="hsla(0,50%,50%,0.6)"
    stroke-width="1"
    transform="translate(280.1093449878,-230.9544043781)"
    />
  
  <line
    x1="-289.5888962578137"
    y1="214.17936072556452"
    x2="-300.4805477076056"
    y2="220.9579556911233"
    stroke="hsla(0,50%,50%,0.6)"
    stroke-width="1"
    transform="translate(280.1093449878,-230.9544043781)"
    />
  
  <line
    x1="-266.1037778789258"
    y1="241.19708693673192"
    x2="-274.08520710059173"
    y2="247.23550295857987"
    stroke="hsla(0,50%,50%,0.6)"
    stroke-width="1"
    transform="translate(280.1093449878,-230.9544043781)"
    />
  
  <line
    x1="-274.3933617142806"
    y1="236.2414522477175"
    x2="-288.05022908164676"
    y2="244.0341609789174"
    stroke="hsla(0,50%,50%,0.6)"
    stroke-width="1"
    transform="translate(280.1093449878,-230.9544043781)"
    />
  
  <line
    x1="-272.74198378372233"
    y1="235.65242277556868"
    x2="-271.4765053950574"
    y2="241.70344587539157"
    stroke="hsla(0,50%,50%,0.6)"
    stroke-width="1"
    transform="translate(280.1093449878,-230.9544043781)"
    />
  
  <line
    x1="-270.546359652771"
    y1="246.20432920309844"
    x2="-274.7506622719473"
    y2="248.6033351279382"
    stroke="hsla(0,50%,50%,0.6)"
    stroke-width="1"
    transform="translate(280.1093449878,-230.9544043781)"
    />
  
  <line
    x1="-270.6505912529748"
    y1="244.6370160476336"
    x2="-270.33762198202345"
    y2="245.96906058211246"
    stroke="hsla(0,50%,50%,0.6)"
    stroke-width="1"
    transform="translate(280.1093449878,-230.9544043781)"
    />
  
  <line
    x1="-270.09650629985015"
    y1="245.1378340924052"
    x2="-269.987618606985"
    y2="245.57457112033572"
    stroke="hsla(0,50%,50%,0.6)"
    stroke-width="1"
    transform="translate(280.1093449878,-230.9544043781)"
    />
  
  <line
    x1="-295.020632777637"
    y1="237.66402742356365"
    x2="-293.9366321386596"
    y2="242.0118394203532"
    stroke="hsla(0,50%,50%,0.6)"
    stroke-width="1"
    transform="translate(280.1093449878,-230.9544043781)"
    />
  
  <line
    x1="-266.8205874242795"
    y1="222.00159806815495"
    x2="-262.6030767941665"
    y2="237.25144016513622"
    stroke="hsla(0,50%,50%,0.6)"
    stroke-width="1"
    transform="translate(280.1093449878,-230.9544043781)"
    />
  
  <line
    x1="-295.020632777637"
    y1="237.66402742356365"
    x2="-293.80576334880755"
    y2="242.05680045555545"
    stroke="hsla(0,50%,50%,0.6)"
    stroke-width="1"
    transform="translate(280.1093449878,-230.9544043781)"
    />
  
  <line
    x1="-272.74198378372233"
    y1="235.65242277556868"
    x2="-272.72189349112426"
    y2="235.71745562130178"
    stroke="hsla(0,50%,50%,0.6)"
    stroke-width="1"
    transform="translate(280.1093449878,-230.9544043781)"
    />
  
  <line
    x1="-269.18710400883265"
    y1="235.23716113006034"
    x2="-289.41950104781876"
    y2="243.5637364786059"
    stroke="hsla(0,50%,50%,0.6)"
    stroke-width="1"
    transform="translate(280.1093449878,-230.9544043781)"
    />
  
  <line
    x1="-274.3933617142806"
    y1="236.2414522477175"
    x2="-291.94936344608726"
    y2="242.69458171318018"
    stroke="hsla(0,50%,50%,0.6)"
    stroke-width="1"
    transform="translate(280.1093449878,-230.9544043781)"
    />
  
  <line
    x1="-289.5888962578137"
    y1="214.17936072556452"
    x2="-278.2282874425636"
    y2="245.0863600508303"
    stroke="hsla(0,50%,50%,0.6)"
    stroke-width="1"
    transform="translate(280.1093449878,-230.9544043781)"
    />
  
  <line
    x1="-287.01933636156946"
    y1="215.06215388870103"
    x2="-290.6492319696689"
    y2="216.1192735348402"
    stroke="hsla(0,50%,50%,0.6)"
    stroke-width="1"
    transform="translate(280.1093449878,-230.9544043781)"
    />
  
  <line
    x1="-278.01970839721287"
    y1="240.66001673153605"
    x2="-274.7506622719473"
    y2="248.6033351279382"
    stroke="hsla(0,50%,50%,0.6)"
    stroke-width="1"
    transform="translate(280.1093449878,-230.9544043781)"
    />
  
  <line
    x1="-298.524135100429"
    y1="218.58405499290186"
    x2="-288.05022908164676"
    y2="244.0341609789174"
    stroke="hsla(0,50%,50%,0.6)"
    stroke-width="1"
    transform="translate(280.1093449878,-230.9544043781)"
    />
  
  <line
    x1="-274.3933617142806"
    y1="236.2414522477175"
    x2="-270.02986212567293"
    y2="245.62218386963826"
    stroke="hsla(0,50%,50%,0.6)"
    stroke-width="1"
    transform="translate(280.1093449878,-230.9544043781)"
    />
  
  <line
    x1="-273.4042867940705"
    y1="231.98119098417158"
    x2="-298.35199514489454"
    y2="238.53982703686845"
    stroke="hsla(0,50%,50%,0.6)"
    stroke-width="1"
    transform="translate(280.1093449878,-230.9544043781)"
    />
  
  <line
    x1="-275.7728779582589"
    y1="243.74434069418993"
    x2="-273.15976331360946"
    y2="249.1499013806706"
    stroke="hsla(0,50%,50%,0.6)"
    stroke-width="1"
    transform="translate(280.1093449878,-230.9544043781)"
    />
  
  <line
    x1="-257.74604189988804"
    y1="231.77706700783625"
    x2="-272.78462955057535"
    y2="235.66344359172172"
    stroke="hsla(0,50%,50%,0.6)"
    stroke-width="1"
    transform="translate(280.1093449878,-230.9544043781)"
    />
  
  <line
    x1="-270.6806332960179"
    y1="246.3556692787462"
    x2="-274.08520710059173"
    y2="247.23550295857987"
    stroke="hsla(0,50%,50%,0.6)"
    stroke-width="1"
    transform="translate(280.1093449878,-230.9544043781)"
    />
  
  <line
    x1="-265.4313526321456"
    y1="240.43919517737876"
    x2="-271.4765053950574"
    y2="241.70344587539157"
    stroke="hsla(0,50%,50%,0.6)"
    stroke-width="1"
    transform="translate(280.1093449878,-230.9544043781)"
    />
  
  <line
    x1="-293.0528068625405"
    y1="237.19630028558217"
    x2="-289.41950104781876"
    y2="243.5637364786059"
    stroke="hsla(0,50%,50%,0.6)"
    stroke-width="1"
    transform="translate(280.1093449878,-230.9544043781)"
    />
  
  <line
    x1="-285.0448900549468"
    y1="217.79557354291094"
    x2="-291.397408754343"
    y2="218.29700342840795"
    stroke="hsla(0,50%,50%,0.6)"
    stroke-width="1"
    transform="translate(280.1093449878,-230.9544043781)"
    />
  
  <line
    x1="-303.32753070255256"
    y1="224.41246978223975"
    x2="-291.94936344608726"
    y2="242.69458171318018"
    stroke="hsla(0,50%,50%,0.6)"
    stroke-width="1"
    transform="translate(280.1093449878,-230.9544043781)"
    />
  
  <line
    x1="-287.01933636156946"
    y1="215.06215388870103"
    x2="-285.0448900549468"
    y2="217.79557354291094"
    stroke="hsla(0,50%,50%,0.6)"
    stroke-width="1"
    transform="translate(280.1093449878,-230.9544043781)"
    />
  
  <line
    x1="-290.6492319696689"
    y1="216.1192735348402"
    x2="-269.6486180250501"
    y2="245.1924829273438"
    stroke="hsla(0,50%,50%,0.6)"
    stroke-width="1"
    transform="translate(280.1093449878,-230.9544043781)"
    />
  
  <line
    x1="-278.01970839721287"
    y1="240.66001673153605"
    x2="-294.7559399180701"
    y2="241.73035958124714"
    stroke="hsla(0,50%,50%,0.6)"
    stroke-width="1"
    transform="translate(280.1093449878,-230.9544043781)"
    />
  
  <line
    x1="-270.09650629985015"
    y1="245.1378340924052"
    x2="-269.85276051776066"
    y2="245.42257231452848"
    stroke="hsla(0,50%,50%,0.6)"
    stroke-width="1"
    transform="translate(280.1093449878,-230.9544043781)"
    />
  
  <line
    x1="-291.397408754343"
    y1="218.29700342840795"
    x2="-266.21352102460486"
    y2="241.3207786424701"
    stroke="hsla(0,50%,50%,0.6)"
    stroke-width="1"
    transform="translate(280.1093449878,-230.9544043781)"
    />
  
  <line
    x1="-298.524135100429"
    y1="218.58405499290186"
    x2="-283.73102040172495"
    y2="221.55495624643322"
    stroke="hsla(0,50%,50%,0.6)"
    stroke-width="1"
    transform="translate(280.1093449878,-230.9544043781)"
    />
  
  <line
    x1="-272.78462955057535"
    y1="235.66344359172172"
    x2="-266.21352102460486"
    y2="241.3207786424701"
    stroke="hsla(0,50%,50%,0.6)"
    stroke-width="1"
    transform="translate(280.1093449878,-230.9544043781)"
    />
  
  <line
    x1="-272.72189349112426"
    y1="235.71745562130178"
    x2="-262.6030767941665"
    y2="237.25144016513622"
    stroke="hsla(0,50%,50%,0.6)"
    stroke-width="1"
    transform="translate(280.1093449878,-230.9544043781)"
    />
  
  <line
    x1="-278.2282874425636"
    y1="245.0863600508303"
    x2="-270.33762198202345"
    y2="245.96906058211246"
    stroke="hsla(0,50%,50%,0.6)"
    stroke-width="1"
    transform="translate(280.1093449878,-230.9544043781)"
    />
  
  <line
    x1="-291.39433545362766"
    y1="242.88526608594333"
    x2="-269.987618606985"
    y2="245.57457112033572"
    stroke="hsla(0,50%,50%,0.6)"
    stroke-width="1"
    transform="translate(280.1093449878,-230.9544043781)"
    />
  
  <line
    x1="-273.4042867940705"
    y1="231.98119098417158"
    x2="-269.18710400883265"
    y2="235.23716113006034"
    stroke="hsla(0,50%,50%,0.6)"
    stroke-width="1"
    transform="translate(280.1093449878,-230.9544043781)"
    />
  
  <line
    x1="-293.7234320864194"
    y1="212.75890737572396"
    x2="-256.8911592731347"
    y2="225.4129337208081"
    stroke="hsla(0,50%,50%,0.6)"
    stroke-width="1"
    transform="translate(280.1093449878,-230.9544043781)"
    />
  
  <line
    x1="-298.35199514489454"
    y1="238.53982703686845"
    x2="-294.7559399180701"
    y2="241.73035958124714"
    stroke="hsla(0,50%,50%,0.6)"
    stroke-width="1"
    transform="translate(280.1093449878,-230.9544043781)"
    />
  
  <line
    x1="-285.3022249246206"
    y1="235.10910337109047"
    x2="-269.85276051776066"
    y2="245.42257231452848"
    stroke="hsla(0,50%,50%,0.6)"
    stroke-width="1"
    transform="translate(280.1093449878,-230.9544043781)"
    />
  
  <line
    x1="-303.32753070255256"
    y1="224.41246978223975"
    x2="-301.99280115498243"
    y2="224.92169798390745"
    stroke="hsla(0,50%,50%,0.6)"
    stroke-width="1"
    transform="translate(280.1093449878,-230.9544043781)"
    />
  
  <line
    x1="-275.7728779582589"
    y1="243.74434069418993"
    x2="-270.02986212567293"
    y2="245.62218386963826"
    stroke="hsla(0,50%,50%,0.6)"
    stroke-width="1"
    transform="translate(280.1093449878,-230.9544043781)"
    />
  
  <line
    x1="-270.6505912529748"
    y1="244.6370160476336"
    x2="-269.6486180250501"
    y2="245.1924829273438"
    stroke="hsla(0,50%,50%,0.6)"
    stroke-width="1"
    transform="translate(280.1093449878,-230.9544043781)"
    />
  
  <line
    x1="-298.95276776023246"
    y1="240.28850530443611"
    x2="-273.15976331360946"
    y2="249.1499013806706"
    stroke="hsla(0,50%,50%,0.6)"
    stroke-width="1"
    transform="translate(280.1093449878,-230.9544043781)"
    />
  
  <line
    x1="-293.4726306095732"
    y1="241.64828728554514"
    x2="-291.39433545362766"
    y2="242.88526608594333"
    stroke="hsla(0,50%,50%,0.6)"
    stroke-width="1"
    transform="translate(280.1093449878,-230.9544043781)"
    />
  
</svg>
