<?xml version="1.0"?>
<!DOCTYPE svg PUBLIC "-//W3C//DTD SVG 1.1//EN"
  "http://www.w3.org/Graphics/SVG/1.1/DTD/svg11.dtd">
<svg
  width="240"
  height="240"
  viewBox="-50 -50 200 200" xmlns="http://www.w3.org/2000/svg" version="1.1">
  <rect
    x="0"
    y="0"
    width="100"
    height="100"
    fill="hsla(206,100%,53%,0.3)"
    stroke="hsl(206,100%,53%)"
    stroke-width="3"
    transform="" />
  
  <path
    d="M 
      40.7947283485
      19.4915904608
      L
    
      65.4320609506
      27.8298874579
      L
    
      65.8643661828
      34.1356338171
      L
    
      44.4444444444
      55.5555555555
      L
    
      52.3938938140
      71.4544542947
      L
    
      51.0076601677
      75.5503865240
      L
    
      52.8032873109
      79.5550734166
      L
    
      51.5494372897
      81.1825269752
      L
    
      48.7848461487
      82.1181794820
      L
    
      33.3333333333
      66.6666666666
      L
    
      33.3333333333
      33.3333333333
      L
    
      34.0236408947
      31.9527182104
      L
    
      35.1720872986
      32.0314526473
      z
    "
    fill="hsla(0,0%,50%,0.3)"
    stroke="hsla(0,0%,50%,1)"
    stroke-width="1"
    transform="translate(-35.4875438388,-37.3105858492) scale(1,-1) translate(50,-110)"
    />
  
  
  <line
    x1="52.67142359902541"
    y1="40.94152453880961"
    x2="54.28646889187105"
    y2="45.71353110812895"
    stroke="hsla(0,50%,50%,0.6)"
    stroke-width="1"
    transform="translate(-35.4875438388,-37.3105858492) scale(1,-1) translate(50,-110)"
    />
  
  <line
    x1="50.927955233071835"
    y1="48.665758119360625"
    x2="51.0751557661151"
    y2="48.9248442338849"
    stroke="hsla(0,50%,50%,0.6)"
    stroke-width="1"
    transform="translate(-35.4875438388,-37.3105858492) scale(1,-1) translate(50,-110)"
    />
  
  <line
    x1="45.44316708932094"
    y1="63.140208509439276"
    x2="51.549437289708784"
    y2="81.18252697528716"
    stroke="hsla(0,50%,50%,0.6)"
    stroke-width="1"
    transform="translate(-35.4875438388,-37.3105858492) scale(1,-1) translate(50,-110)"
    />
  
  <line
    x1="33.333333333333336"
    y1="33.333333333333336"
    x2="52.39389381404924"
    y2="71.45445429476516"
    stroke="hsla(0,50%,50%,0.6)"
    stroke-width="1"
    transform="translate(-35.4875438388,-37.3105858492) scale(1,-1) translate(50,-110)"
    />
  
  <line
    x1="33.333333333333336"
    y1="36.13232288171545"
    x2="52.80328731097962"
    y2="79.55507341661188"
    stroke="hsla(0,50%,50%,0.6)"
    stroke-width="1"
    transform="translate(-35.4875438388,-37.3105858492) scale(1,-1) translate(50,-110)"
    />
  
  <line
    x1="38.28297946397494"
    y1="49.16150365471633"
    x2="46.49582901566662"
    y2="79.82916234899996"
    stroke="hsla(0,50%,50%,0.6)"
    stroke-width="1"
    transform="translate(-35.4875438388,-37.3105858492) scale(1,-1) translate(50,-110)"
    />
  
  <line
    x1="65.43206095061299"
    y1="27.829887457941755"
    x2="65.86436618283544"
    y2="34.13563381716456"
    stroke="hsla(0,50%,50%,0.6)"
    stroke-width="1"
    transform="translate(-35.4875438388,-37.3105858492) scale(1,-1) translate(50,-110)"
    />
  
  <line
    x1="33.333333333333336"
    y1="41.82581711079198"
    x2="45.44316708932094"
    y2="63.140208509439276"
    stroke="hsla(0,50%,50%,0.6)"
    stroke-width="1"
    transform="translate(-35.4875438388,-37.3105858492) scale(1,-1) translate(50,-110)"
    />
  
  <line
    x1="49.57722681850771"
    y1="24.481392629878535"
    x2="51.30714833365008"
    y2="48.69285166634992"
    stroke="hsla(0,50%,50%,0.6)"
    stroke-width="1"
    transform="translate(-35.4875438388,-37.3105858492) scale(1,-1) translate(50,-110)"
    />
  
  <line
    x1="34.023640894794575"
    y1="31.952718210410843"
    x2="38.15205053545872"
    y2="36.73690963825692"
    stroke="hsla(0,50%,50%,0.6)"
    stroke-width="1"
    transform="translate(-35.4875438388,-37.3105858492) scale(1,-1) translate(50,-110)"
    />
  
  <line
    x1="43.96872622111491"
    y1="54.60411910889649"
    x2="45.71529962557747"
    y2="79.0486329589108"
    stroke="hsla(0,50%,50%,0.6)"
    stroke-width="1"
    transform="translate(-35.4875438388,-37.3105858492) scale(1,-1) translate(50,-110)"
    />
  
  <line
    x1="40.7947283485745"
    y1="19.49159046082123"
    x2="49.57722681850771"
    y2="24.481392629878535"
    stroke="hsla(0,50%,50%,0.6)"
    stroke-width="1"
    transform="translate(-35.4875438388,-37.3105858492) scale(1,-1) translate(50,-110)"
    />
  
  <line
    x1="36.752146667960034"
    y1="28.507534516765286"
    x2="52.59415245388096"
    y2="42.43380902656921"
    stroke="hsla(0,50%,50%,0.6)"
    stroke-width="1"
    transform="translate(-35.4875438388,-37.3105858492) scale(1,-1) translate(50,-110)"
    />
  
  <line
    x1="38.15205053545872"
    y1="36.73690963825692"
    x2="39.618606633199256"
    y2="63.13491939758661"
    stroke="hsla(0,50%,50%,0.6)"
    stroke-width="1"
    transform="translate(-35.4875438388,-37.3105858492) scale(1,-1) translate(50,-110)"
    />
  
  <line
    x1="33.333333333333336"
    y1="43.766005121638926"
    x2="44.158371040723985"
    y2="59.55656108597285"
    stroke="hsla(0,50%,50%,0.6)"
    stroke-width="1"
    transform="translate(-35.4875438388,-37.3105858492) scale(1,-1) translate(50,-110)"
    />
  
  <line
    x1="33.333333333333336"
    y1="33.333333333333336"
    x2="33.333333333333336"
    y2="66.66666666666667"
    stroke="hsla(0,50%,50%,0.6)"
    stroke-width="1"
    transform="translate(-35.4875438388,-37.3105858492) scale(1,-1) translate(50,-110)"
    />
  
  <line
    x1="51.81250189652557"
    y1="77.34538006372325"
    x2="51.549437289708784"
    y2="81.18252697528716"
    stroke="hsla(0,50%,50%,0.6)"
    stroke-width="1"
    transform="translate(-35.4875438388,-37.3105858492) scale(1,-1) translate(50,-110)"
    />
  
  <line
    x1="40.7947283485745"
    y1="19.49159046082123"
    x2="65.43206095061299"
    y2="27.829887457941755"
    stroke="hsla(0,50%,50%,0.6)"
    stroke-width="1"
    transform="translate(-35.4875438388,-37.3105858492) scale(1,-1) translate(50,-110)"
    />
  
  <line
    x1="37.97604255357127"
    y1="49.4026924415647"
    x2="43.96872622111491"
    y2="54.60411910889649"
    stroke="hsla(0,50%,50%,0.6)"
    stroke-width="1"
    transform="translate(-35.4875438388,-37.3105858492) scale(1,-1) translate(50,-110)"
    />
  
  <line
    x1="44.79016005552877"
    y1="56.24698677772421"
    x2="44.158371040723985"
    y2="59.55656108597285"
    stroke="hsla(0,50%,50%,0.6)"
    stroke-width="1"
    transform="translate(-35.4875438388,-37.3105858492) scale(1,-1) translate(50,-110)"
    />
  
  <line
    x1="33.333333333333336"
    y1="38.844775975268135"
    x2="51.0751557661151"
    y2="48.9248442338849"
    stroke="hsla(0,50%,50%,0.6)"
    stroke-width="1"
    transform="translate(-35.4875438388,-37.3105858492) scale(1,-1) translate(50,-110)"
    />
  
  <line
    x1="33.333333333333336"
    y1="66.66666666666667"
    x2="48.784846148721314"
    y2="82.11817948205464"
    stroke="hsla(0,50%,50%,0.6)"
    stroke-width="1"
    transform="translate(-35.4875438388,-37.3105858492) scale(1,-1) translate(50,-110)"
    />
  
  <line
    x1="41.851242774123314"
    y1="50.36915221491329"
    x2="36.628755075994896"
    y2="66.2796936999652"
    stroke="hsla(0,50%,50%,0.6)"
    stroke-width="1"
    transform="translate(-35.4875438388,-37.3105858492) scale(1,-1) translate(50,-110)"
    />
  
  <line
    x1="40.7947283485745"
    y1="19.49159046082123"
    x2="33.333333333333336"
    y2="36.13232288171545"
    stroke="hsla(0,50%,50%,0.6)"
    stroke-width="1"
    transform="translate(-35.4875438388,-37.3105858492) scale(1,-1) translate(50,-110)"
    />
  
  <line
    x1="34.023640894794575"
    y1="31.952718210410843"
    x2="33.333333333333336"
    y2="33.333333333333336"
    stroke="hsla(0,50%,50%,0.6)"
    stroke-width="1"
    transform="translate(-35.4875438388,-37.3105858492) scale(1,-1) translate(50,-110)"
    />
  
  <line
    x1="33.333333333333336"
    y1="63.02337829792181"
    x2="51.81250189652557"
    y2="77.34538006372325"
    stroke="hsla(0,50%,50%,0.6)"
    stroke-width="1"
    transform="translate(-35.4875438388,-37.3105858492) scale(1,-1) translate(50,-110)"
    />
  
  <line
    x1="52.39389381404924"
    y1="71.45445429476516"
    x2="48.784846148721314"
    y2="82.11817948205464"
    stroke="hsla(0,50%,50%,0.6)"
    stroke-width="1"
    transform="translate(-35.4875438388,-37.3105858492) scale(1,-1) translate(50,-110)"
    />
  
  <line
    x1="36.752146667960034"
    y1="28.507534516765286"
    x2="40.630265870572174"
    y2="28.98256267459191"
    stroke="hsla(0,50%,50%,0.6)"
    stroke-width="1"
    transform="translate(-35.4875438388,-37.3105858492) scale(1,-1) translate(50,-110)"
    />
  
  <line
    x1="44.746852660044446"
    y1="21.737001436897017"
    x2="33.333333333333336"
    y2="41.82581711079198"
    stroke="hsla(0,50%,50%,0.6)"
    stroke-width="1"
    transform="translate(-35.4875438388,-37.3105858492) scale(1,-1) translate(50,-110)"
    />
  
  <line
    x1="33.333333333333336"
    y1="38.622119463446325"
    x2="54.28646889187105"
    y2="45.71353110812895"
    stroke="hsla(0,50%,50%,0.6)"
    stroke-width="1"
    transform="translate(-35.4875438388,-37.3105858492) scale(1,-1) translate(50,-110)"
    />
  
  <line
    x1="41.996711952405576"
    y1="50.66009057147782"
    x2="40.33092006033183"
    y2="54.06606334841629"
    stroke="hsla(0,50%,50%,0.6)"
    stroke-width="1"
    transform="translate(-35.4875438388,-37.3105858492) scale(1,-1) translate(50,-110)"
    />
  
  <line
    x1="40.33092006033183"
    y1="54.06606334841629"
    x2="44.79016005552877"
    y2="56.24698677772421"
    stroke="hsla(0,50%,50%,0.6)"
    stroke-width="1"
    transform="translate(-35.4875438388,-37.3105858492) scale(1,-1) translate(50,-110)"
    />
  
  <line
    x1="34.023640894794575"
    y1="31.952718210410843"
    x2="65.86436618283544"
    y2="34.13563381716456"
    stroke="hsla(0,50%,50%,0.6)"
    stroke-width="1"
    transform="translate(-35.4875438388,-37.3105858492) scale(1,-1) translate(50,-110)"
    />
  
  <line
    x1="38.15205053545872"
    y1="36.73690963825692"
    x2="33.333333333333336"
    y2="43.766005121638926"
    stroke="hsla(0,50%,50%,0.6)"
    stroke-width="1"
    transform="translate(-35.4875438388,-37.3105858492) scale(1,-1) translate(50,-110)"
    />
  
  <line
    x1="33.333333333333336"
    y1="47.486337753659186"
    x2="41.851242774123314"
    y2="50.36915221491329"
    stroke="hsla(0,50%,50%,0.6)"
    stroke-width="1"
    transform="translate(-35.4875438388,-37.3105858492) scale(1,-1) translate(50,-110)"
    />
  
  <line
    x1="49.57722681850771"
    y1="24.481392629878535"
    x2="40.630265870572174"
    y2="28.98256267459191"
    stroke="hsla(0,50%,50%,0.6)"
    stroke-width="1"
    transform="translate(-35.4875438388,-37.3105858492) scale(1,-1) translate(50,-110)"
    />
  
  <line
    x1="40.12822396087191"
    y1="46.923114588410485"
    x2="37.97604255357127"
    y2="49.4026924415647"
    stroke="hsla(0,50%,50%,0.6)"
    stroke-width="1"
    transform="translate(-35.4875438388,-37.3105858492) scale(1,-1) translate(50,-110)"
    />
  
  <line
    x1="40.17262415237112"
    y1="47.011914971408906"
    x2="38.28297946397494"
    y2="49.16150365471633"
    stroke="hsla(0,50%,50%,0.6)"
    stroke-width="1"
    transform="translate(-35.4875438388,-37.3105858492) scale(1,-1) translate(50,-110)"
    />
  
  <line
    x1="33.333333333333336"
    y1="49.00627442086812"
    x2="41.996711952405576"
    y2="50.66009057147782"
    stroke="hsla(0,50%,50%,0.6)"
    stroke-width="1"
    transform="translate(-35.4875438388,-37.3105858492) scale(1,-1) translate(50,-110)"
    />
  
  <line
    x1="50.927955233071835"
    y1="48.665758119360625"
    x2="49.52824279248947"
    y2="50.47175720751053"
    stroke="hsla(0,50%,50%,0.6)"
    stroke-width="1"
    transform="translate(-35.4875438388,-37.3105858492) scale(1,-1) translate(50,-110)"
    />
  
  <line
    x1="34.30262148108302"
    y1="38.29407208176439"
    x2="33.333333333333336"
    y2="38.844775975268135"
    stroke="hsla(0,50%,50%,0.6)"
    stroke-width="1"
    transform="translate(-35.4875438388,-37.3105858492) scale(1,-1) translate(50,-110)"
    />
  
  <line
    x1="65.43206095061299"
    y1="27.829887457941755"
    x2="52.59415245388096"
    y2="42.43380902656921"
    stroke="hsla(0,50%,50%,0.6)"
    stroke-width="1"
    transform="translate(-35.4875438388,-37.3105858492) scale(1,-1) translate(50,-110)"
    />
  
  <line
    x1="33.333333333333336"
    y1="47.54392437713789"
    x2="38.775960622914695"
    y2="47.96729121246453"
    stroke="hsla(0,50%,50%,0.6)"
    stroke-width="1"
    transform="translate(-35.4875438388,-37.3105858492) scale(1,-1) translate(50,-110)"
    />
  
  <line
    x1="34.30262148108302"
    y1="38.29407208176439"
    x2="33.333333333333336"
    y2="38.622119463446325"
    stroke="hsla(0,50%,50%,0.6)"
    stroke-width="1"
    transform="translate(-35.4875438388,-37.3105858492) scale(1,-1) translate(50,-110)"
    />
  
  <line
    x1="33.333333333333336"
    y1="47.40861310677369"
    x2="51.30714833365008"
    y2="48.69285166634992"
    stroke="hsla(0,50%,50%,0.6)"
    stroke-width="1"
    transform="translate(-35.4875438388,-37.3105858492) scale(1,-1) translate(50,-110)"
    />
  
  <line
    x1="33.333333333333336"
    y1="65.19800207260202"
    x2="52.39389381404924"
    y2="71.45445429476516"
    stroke="hsla(0,50%,50%,0.6)"
    stroke-width="1"
    transform="translate(-35.4875438388,-37.3105858492) scale(1,-1) translate(50,-110)"
    />
  
  <line
    x1="40.12822396087191"
    y1="46.923114588410485"
    x2="33.333333333333336"
    y2="47.40861310677369"
    stroke="hsla(0,50%,50%,0.6)"
    stroke-width="1"
    transform="translate(-35.4875438388,-37.3105858492) scale(1,-1) translate(50,-110)"
    />
  
  <line
    x1="40.17262415237112"
    y1="47.011914971408906"
    x2="33.333333333333336"
    y2="47.54392437713789"
    stroke="hsla(0,50%,50%,0.6)"
    stroke-width="1"
    transform="translate(-35.4875438388,-37.3105858492) scale(1,-1) translate(50,-110)"
    />
  
  <line
    x1="65.86436618283544"
    y1="34.13563381716456"
    x2="33.333333333333336"
    y2="66.66666666666667"
    stroke="hsla(0,50%,50%,0.6)"
    stroke-width="1"
    transform="translate(-35.4875438388,-37.3105858492) scale(1,-1) translate(50,-110)"
    />
  
  <line
    x1="33.333333333333336"
    y1="61.820451183431956"
    x2="39.618606633199256"
    y2="63.13491939758661"
    stroke="hsla(0,50%,50%,0.6)"
    stroke-width="1"
    transform="translate(-35.4875438388,-37.3105858492) scale(1,-1) translate(50,-110)"
    />
  
  <line
    x1="52.67142359902541"
    y1="40.94152453880961"
    x2="33.333333333333336"
    y2="47.486337753659186"
    stroke="hsla(0,50%,50%,0.6)"
    stroke-width="1"
    transform="translate(-35.4875438388,-37.3105858492) scale(1,-1) translate(50,-110)"
    />
  
  <line
    x1="38.775960622914695"
    y1="47.96729121246453"
    x2="33.333333333333336"
    y2="49.00627442086812"
    stroke="hsla(0,50%,50%,0.6)"
    stroke-width="1"
    transform="translate(-35.4875438388,-37.3105858492) scale(1,-1) translate(50,-110)"
    />
  
  <line
    x1="52.80328731097962"
    y1="79.55507341661188"
    x2="51.549437289708784"
    y2="81.18252697528716"
    stroke="hsla(0,50%,50%,0.6)"
    stroke-width="1"
    transform="translate(-35.4875438388,-37.3105858492) scale(1,-1) translate(50,-110)"
    />
  
  <line
    x1="49.52824279248947"
    y1="50.47175720751053"
    x2="33.333333333333336"
    y2="63.02337829792181"
    stroke="hsla(0,50%,50%,0.6)"
    stroke-width="1"
    transform="translate(-35.4875438388,-37.3105858492) scale(1,-1) translate(50,-110)"
    />
  
  <line
    x1="46.49582901566662"
    y1="79.82916234899996"
    x2="51.549437289708784"
    y2="81.18252697528716"
    stroke="hsla(0,50%,50%,0.6)"
    stroke-width="1"
    transform="translate(-35.4875438388,-37.3105858492) scale(1,-1) translate(50,-110)"
    />
  
  <line
    x1="44.158371040723985"
    y1="59.55656108597285"
    x2="33.333333333333336"
    y2="61.820451183431956"
    stroke="hsla(0,50%,50%,0.6)"
    stroke-width="1"
    transform="translate(-35.4875438388,-37.3105858492) scale(1,-1) translate(50,-110)"
    />
  
  <line
    x1="39.618606633199256"
    y1="63.13491939758661"
    x2="33.333333333333336"
    y2="65.19800207260202"
    stroke="hsla(0,50%,50%,0.6)"
    stroke-width="1"
    transform="translate(-35.4875438388,-37.3105858492) scale(1,-1) translate(50,-110)"
    />
  
  <line
    x1="45.71529962557747"
    y1="79.0486329589108"
    x2="52.80328731097962"
    y2="79.55507341661188"
    stroke="hsla(0,50%,50%,0.6)"
    stroke-width="1"
    transform="translate(-35.4875438388,-37.3105858492) scale(1,-1) translate(50,-110)"
    />
  
  <line
    x1="51.549437289708784"
    y1="81.18252697528716"
    x2="48.784846148721314"
    y2="82.11817948205464"
    stroke="hsla(0,50%,50%,0.6)"
    stroke-width="1"
    transform="translate(-35.4875438388,-37.3105858492) scale(1,-1) translate(50,-110)"
    />
  
</svg>
