<?xml version="1.0"?>
<!DOCTYPE svg PUBLIC "-//W3C//DTD SVG 1.1//EN"
  "http://www.w3.org/Graphics/SVG/1.1/DTD/svg11.dtd">
<svg
  width="240"
  height="240"
  viewBox="-50 -50 200 200" xmlns="http://www.w3.org/2000/svg" version="1.1">
  <rect
    x="0"
    y="0"
    width="100"
    height="100"
    fill="hsla(206,100%,53%,0.3)"
    stroke="hsl(206,100%,53%)"
    stroke-width="3"
    transform="" />
  
  <path
    d="M 
      -92.9179300586
      206.0016171417
      L
    
      -84.1829600663
      213.9518900343
      L
    
      -69.7688700222
      214.5201536284
      L
    
      -68.2364261168
      220.6652920962
      L
    
      -57.7602587426
      222.9997978572
      L
    
      -60.7462190378
      224.7420482881
      L
    
      -51.2265833216
      229.1080779337
      L
    
      -62.8081409336
      233.4065241414
      L
    
      -49.2430800973
      245.7529816050
      L
    
      -48.1005481170
      254.2672548876
      L
    
      -45.2339313647
      256.7502218905
      L
    
      -47.7432101025
      256.9301768558
      L
    
      -101.4109561350
      213.2726905195
      z
    "
    fill="hsla(0,0%,50%,0.3)"
    stroke="hsla(0,0%,50%,1)"
    stroke-width="1"
    transform="translate(74.7162818198,-233.7072475503) scale(1,-1) translate(50,-110)"
    />
  
  
  <line
    x1="-95.02304919956416"
    y1="214.6961696421088"
    x2="-95.51923810108671"
    y2="218.06546865124753"
    stroke="hsla(0,50%,50%,0.6)"
    stroke-width="1"
    transform="translate(74.7162818198,-233.7072475503) scale(1,-1) translate(50,-110)"
    />
  
  <line
    x1="-95.02304919956416"
    y1="214.6961696421088"
    x2="-95.93512407995338"
    y2="217.72715490077172"
    stroke="hsla(0,50%,50%,0.6)"
    stroke-width="1"
    transform="translate(74.7162818198,-233.7072475503) scale(1,-1) translate(50,-110)"
    />
  
  <line
    x1="-93.08409136850617"
    y1="213.60097028502122"
    x2="-94.7806751566606"
    y2="218.66627274753412"
    stroke="hsla(0,50%,50%,0.6)"
    stroke-width="1"
    transform="translate(74.7162818198,-233.7072475503) scale(1,-1) translate(50,-110)"
    />
  
  <line
    x1="-70.69739235900546"
    y1="226.22599555286033"
    x2="-72.32059834242976"
    y2="236.93703254497674"
    stroke="hsla(0,50%,50%,0.6)"
    stroke-width="1"
    transform="translate(74.7162818198,-233.7072475503) scale(1,-1) translate(50,-110)"
    />
  
  <line
    x1="-81.42648069537093"
    y1="214.06056195674145"
    x2="-82.01738427329695"
    y2="229.04891853648675"
    stroke="hsla(0,50%,50%,0.6)"
    stroke-width="1"
    transform="translate(74.7162818198,-233.7072475503) scale(1,-1) translate(50,-110)"
    />
  
  <line
    x1="-97.50193845810367"
    y1="214.143774758711"
    x2="-97.52143754437708"
    y2="216.43672510787044"
    stroke="hsla(0,50%,50%,0.6)"
    stroke-width="1"
    transform="translate(74.7162818198,-233.7072475503) scale(1,-1) translate(50,-110)"
    />
  
  <line
    x1="-97.50193845810367"
    y1="214.143774758711"
    x2="-98.27311978886307"
    y2="215.82524876045633"
    stroke="hsla(0,50%,50%,0.6)"
    stroke-width="1"
    transform="translate(74.7162818198,-233.7072475503) scale(1,-1) translate(50,-110)"
    />
  
  <line
    x1="-69.7688700222357"
    y1="214.52015362846169"
    x2="-76.21588841722256"
    y2="233.7683029860107"
    stroke="hsla(0,50%,50%,0.6)"
    stroke-width="1"
    transform="translate(74.7162818198,-233.7072475503) scale(1,-1) translate(50,-110)"
    />
  
  <line
    x1="-91.41871841520113"
    y1="213.6666262381241"
    x2="-94.02292875913253"
    y2="219.28268214502296"
    stroke="hsla(0,50%,50%,0.6)"
    stroke-width="1"
    transform="translate(74.7162818198,-233.7072475503) scale(1,-1) translate(50,-110)"
    />
  
  <line
    x1="-49.24308009730732"
    y1="245.75298160501313"
    x2="-47.74321010255882"
    y2="256.9301768558036"
    stroke="hsla(0,50%,50%,0.6)"
    stroke-width="1"
    transform="translate(74.7162818198,-233.7072475503) scale(1,-1) translate(50,-110)"
    />
  
  <line
    x1="-69.7688700222357"
    y1="214.52015362846169"
    x2="-62.106650495249646"
    y2="245.24584596725288"
    stroke="hsla(0,50%,50%,0.6)"
    stroke-width="1"
    transform="translate(74.7162818198,-233.7072475503) scale(1,-1) translate(50,-110)"
    />
  
  <line
    x1="-93.08409136850617"
    y1="213.60097028502122"
    x2="-91.067717808773"
    y2="221.68667879522943"
    stroke="hsla(0,50%,50%,0.6)"
    stroke-width="1"
    transform="translate(74.7162818198,-233.7072475503) scale(1,-1) translate(50,-110)"
    />
  
  <line
    x1="-91.41871841520113"
    y1="213.6666262381241"
    x2="-90.92164193195121"
    y2="215.00592877912464"
    stroke="hsla(0,50%,50%,0.6)"
    stroke-width="1"
    transform="translate(74.7162818198,-233.7072475503) scale(1,-1) translate(50,-110)"
    />
  
  <line
    x1="-92.91793005862138"
    y1="206.00161714170204"
    x2="-101.41095613503133"
    y2="213.27269051950677"
    stroke="hsla(0,50%,50%,0.6)"
    stroke-width="1"
    transform="translate(74.7162818198,-233.7072475503) scale(1,-1) translate(50,-110)"
    />
  
  <line
    x1="-95.14404746057336"
    y1="213.5197582175943"
    x2="-98.27311978886307"
    y2="215.82524876045633"
    stroke="hsla(0,50%,50%,0.6)"
    stroke-width="1"
    transform="translate(74.7162818198,-233.7072475503) scale(1,-1) translate(50,-110)"
    />
  
  <line
    x1="-87.39842328684051"
    y1="214.35887069604473"
    x2="-94.02292875913253"
    y2="219.28268214502296"
    stroke="hsla(0,50%,50%,0.6)"
    stroke-width="1"
    transform="translate(74.7162818198,-233.7072475503) scale(1,-1) translate(50,-110)"
    />
  
  <line
    x1="-92.91793005862138"
    y1="206.00161714170204"
    x2="-87.39842328684051"
    y2="214.35887069604473"
    stroke="hsla(0,50%,50%,0.6)"
    stroke-width="1"
    transform="translate(74.7162818198,-233.7072475503) scale(1,-1) translate(50,-110)"
    />
  
  <line
    x1="-87.39842328684051"
    y1="214.35887069604473"
    x2="-94.7806751566606"
    y2="218.66627274753412"
    stroke="hsla(0,50%,50%,0.6)"
    stroke-width="1"
    transform="translate(74.7162818198,-233.7072475503) scale(1,-1) translate(50,-110)"
    />
  
  <line
    x1="-90.92164193195121"
    y1="215.00592877912464"
    x2="-95.93512407995338"
    y2="217.72715490077172"
    stroke="hsla(0,50%,50%,0.6)"
    stroke-width="1"
    transform="translate(74.7162818198,-233.7072475503) scale(1,-1) translate(50,-110)"
    />
  
  <line
    x1="-57.76025874267233"
    y1="222.99979785728723"
    x2="-76.21588841722256"
    y2="233.7683029860107"
    stroke="hsla(0,50%,50%,0.6)"
    stroke-width="1"
    transform="translate(74.7162818198,-233.7072475503) scale(1,-1) translate(50,-110)"
    />
  
  <line
    x1="-92.91793005862138"
    y1="206.00161714170204"
    x2="-49.24308009730732"
    y2="245.75298160501313"
    stroke="hsla(0,50%,50%,0.6)"
    stroke-width="1"
    transform="translate(74.7162818198,-233.7072475503) scale(1,-1) translate(50,-110)"
    />
  
  <line
    x1="-84.28140575817956"
    y1="213.94800889427935"
    x2="-95.51923810108671"
    y2="218.06546865124753"
    stroke="hsla(0,50%,50%,0.6)"
    stroke-width="1"
    transform="translate(74.7162818198,-233.7072475503) scale(1,-1) translate(50,-110)"
    />
  
  <line
    x1="-95.14404746057336"
    y1="213.5197582175943"
    x2="-45.2339313647743"
    y2="256.7502218905008"
    stroke="hsla(0,50%,50%,0.6)"
    stroke-width="1"
    transform="translate(74.7162818198,-233.7072475503) scale(1,-1) translate(50,-110)"
    />
  
  <line
    x1="-101.41095613503133"
    y1="213.27269051950677"
    x2="-47.74321010255882"
    y2="256.9301768558036"
    stroke="hsla(0,50%,50%,0.6)"
    stroke-width="1"
    transform="translate(74.7162818198,-233.7072475503) scale(1,-1) translate(50,-110)"
    />
  
  <line
    x1="-51.22658332167126"
    y1="229.1080779337905"
    x2="-72.32059834242976"
    y2="236.93703254497674"
    stroke="hsla(0,50%,50%,0.6)"
    stroke-width="1"
    transform="translate(74.7162818198,-233.7072475503) scale(1,-1) translate(50,-110)"
    />
  
  <line
    x1="-90.92164193195121"
    y1="215.00592877912464"
    x2="-97.52143754437708"
    y2="216.43672510787044"
    stroke="hsla(0,50%,50%,0.6)"
    stroke-width="1"
    transform="translate(74.7162818198,-233.7072475503) scale(1,-1) translate(50,-110)"
    />
  
  <line
    x1="-57.76025874267233"
    y1="222.99979785728723"
    x2="-82.01738427329695"
    y2="229.04891853648675"
    stroke="hsla(0,50%,50%,0.6)"
    stroke-width="1"
    transform="translate(74.7162818198,-233.7072475503) scale(1,-1) translate(50,-110)"
    />
  
  <line
    x1="-84.28140575817956"
    y1="213.94800889427935"
    x2="-51.22658332167126"
    y2="229.1080779337905"
    stroke="hsla(0,50%,50%,0.6)"
    stroke-width="1"
    transform="translate(74.7162818198,-233.7072475503) scale(1,-1) translate(50,-110)"
    />
  
  <line
    x1="-101.41095613503133"
    y1="213.27269051950677"
    x2="-69.7688700222357"
    y2="214.52015362846169"
    stroke="hsla(0,50%,50%,0.6)"
    stroke-width="1"
    transform="translate(74.7162818198,-233.7072475503) scale(1,-1) translate(50,-110)"
    />
  
  <line
    x1="-101.41095613503133"
    y1="213.27269051950677"
    x2="-57.76025874267233"
    y2="222.99979785728723"
    stroke="hsla(0,50%,50%,0.6)"
    stroke-width="1"
    transform="translate(74.7162818198,-233.7072475503) scale(1,-1) translate(50,-110)"
    />
  
  <line
    x1="-91.067717808773"
    y1="221.68667879522943"
    x2="-57.76025874267233"
    y2="222.99979785728723"
    stroke="hsla(0,50%,50%,0.6)"
    stroke-width="1"
    transform="translate(74.7162818198,-233.7072475503) scale(1,-1) translate(50,-110)"
    />
  
  <line
    x1="-62.106650495249646"
    y1="245.24584596725288"
    x2="-49.24308009730732"
    y2="245.75298160501313"
    stroke="hsla(0,50%,50%,0.6)"
    stroke-width="1"
    transform="translate(74.7162818198,-233.7072475503) scale(1,-1) translate(50,-110)"
    />
  
  <line
    x1="-45.2339313647743"
    y1="256.7502218905008"
    x2="-47.74321010255882"
    y2="256.9301768558036"
    stroke="hsla(0,50%,50%,0.6)"
    stroke-width="1"
    transform="translate(74.7162818198,-233.7072475503) scale(1,-1) translate(50,-110)"
    />
  
</svg>
