<?xml version="1.0"?>
<!DOCTYPE svg PUBLIC "-//W3C//DTD SVG 1.1//EN"
  "http://www.w3.org/Graphics/SVG/1.1/DTD/svg11.dtd">
<svg
  width="240"
  height="240"
  viewBox="-50 -50 200 200" xmlns="http://www.w3.org/2000/svg" version="1.1">
  <rect
    x="0"
    y="0"
    width="100"
    height="100"
    fill="hsla(206,100%,53%,0.3)"
    stroke="hsl(206,100%,53%)"
    stroke-width="3"
    transform="" />
  
  <path
    d="M 
      -279.5153343388
      -161.3916540975
      L
    
      -235.8111455108
      -147.3869969040
      L
    
      -228.7110226244
      -134.7899607843
      L
    
      -248.4810356088
      -95.8259043871
      L
    
      -243.3399457013
      -91.8131402714
      L
    
      -265.7015010141
      -77.5195131845
      L
    
      -271.5130484896
      -78.2807790143
      L
    
      -275.6763067758
      -84.0603425167
      L
    
      -275.6861209378
      -84.2580337309
      L
    
      -274.5511674208
      -84.5231251885
      L
    
      -275.8101719457
      -86.7568506787
      L
    
      -279.3068157870
      -157.1913682602
      L
    
      -281.3605866749
      -159.0616320798
      z
    "
    fill="hsla(0,0%,50%,0.3)"
    stroke="hsla(0,0%,50%,1)"
    stroke-width="1"
    transform="translate(279.1798605192,140.2309487022) scale(1,-1) translate(50,-110)"
    />
  
  
  <line
    x1="-247.66515837104072"
    y1="-151.18552036199094"
    x2="-278.1555113122172"
    y2="-134.00010859728508"
    stroke="hsla(0,50%,50%,0.6)"
    stroke-width="1"
    transform="translate(279.1798605192,140.2309487022) scale(1,-1) translate(50,-110)"
    />
  
  <line
    x1="-256.37043740573154"
    y1="-143.55927601809955"
    x2="-261.8003342709225"
    y2="-141.2491133667604"
    stroke="hsla(0,50%,50%,0.6)"
    stroke-width="1"
    transform="translate(279.1798605192,140.2309487022) scale(1,-1) translate(50,-110)"
    />
  
  <line
    x1="-235.8111455108359"
    y1="-147.38699690402476"
    x2="-252.36601307189542"
    y2="-139.64705882352942"
    stroke="hsla(0,50%,50%,0.6)"
    stroke-width="1"
    transform="translate(279.1798605192,140.2309487022) scale(1,-1) translate(50,-110)"
    />
  
  <line
    x1="-270.46346889739254"
    y1="-158.49105633176114"
    x2="-273.3665158371041"
    y2="-155.30316742081448"
    stroke="hsla(0,50%,50%,0.6)"
    stroke-width="1"
    transform="translate(279.1798605192,140.2309487022) scale(1,-1) translate(50,-110)"
    />
  
  <line
    x1="-259.2930974907446"
    y1="-135.64103661044837"
    x2="-277.38019251336897"
    y2="-118.3825026737968"
    stroke="hsla(0,50%,50%,0.6)"
    stroke-width="1"
    transform="translate(279.1798605192,140.2309487022) scale(1,-1) translate(50,-110)"
    />
  
  <line
    x1="-279.51533433886374"
    y1="-161.39165409753645"
    x2="-281.36058667498827"
    y2="-159.06163207988766"
    stroke="hsla(0,50%,50%,0.6)"
    stroke-width="1"
    transform="translate(279.1798605192,140.2309487022) scale(1,-1) translate(50,-110)"
    />
  
  <line
    x1="-260.265227984685"
    y1="-155.22311172989907"
    x2="-265.71789670775473"
    y2="-148.33796224059915"
    stroke="hsla(0,50%,50%,0.6)"
    stroke-width="1"
    transform="translate(279.1798605192,140.2309487022) scale(1,-1) translate(50,-110)"
    />
  
  <line
    x1="-258.17291437215533"
    y1="-154.55264659439231"
    x2="-271.1192760180995"
    y2="-137.96597285067872"
    stroke="hsla(0,50%,50%,0.6)"
    stroke-width="1"
    transform="translate(279.1798605192,140.2309487022) scale(1,-1) translate(50,-110)"
    />
  
  <line
    x1="-268.590407239819"
    y1="-80.67358471593765"
    x2="-271.5130484896661"
    y2="-78.28077901430842"
    stroke="hsla(0,50%,50%,0.6)"
    stroke-width="1"
    transform="translate(279.1798605192,140.2309487022) scale(1,-1) translate(50,-110)"
    />
  
  <line
    x1="-243.33994570135746"
    y1="-91.81314027149321"
    x2="-265.70150101419875"
    y2="-77.51951318458418"
    stroke="hsla(0,50%,50%,0.6)"
    stroke-width="1"
    transform="translate(279.1798605192,140.2309487022) scale(1,-1) translate(50,-110)"
    />
  
  <line
    x1="-268.590407239819"
    y1="-80.67358471593765"
    x2="-270.99447963800907"
    y2="-78.21285067873303"
    stroke="hsla(0,50%,50%,0.6)"
    stroke-width="1"
    transform="translate(279.1798605192,140.2309487022) scale(1,-1) translate(50,-110)"
    />
  
  <line
    x1="-243.33994570135746"
    y1="-91.81314027149321"
    x2="-275.6861209378856"
    y2="-84.2580337309749"
    stroke="hsla(0,50%,50%,0.6)"
    stroke-width="1"
    transform="translate(279.1798605192,140.2309487022) scale(1,-1) translate(50,-110)"
    />
  
  <line
    x1="-275.5705580693816"
    y1="-84.24289592760181"
    x2="-275.67630677587493"
    y2="-84.06034251675354"
    stroke="hsla(0,50%,50%,0.6)"
    stroke-width="1"
    transform="translate(279.1798605192,140.2309487022) scale(1,-1) translate(50,-110)"
    />
  
  <line
    x1="-228.71102262443438"
    y1="-134.78996078431373"
    x2="-253.96214232825997"
    y2="-85.02337474290415"
    stroke="hsla(0,50%,50%,0.6)"
    stroke-width="1"
    transform="translate(279.1798605192,140.2309487022) scale(1,-1) translate(50,-110)"
    />
  
  <line
    x1="-271.1192760180995"
    y1="-137.96597285067872"
    x2="-228.71102262443438"
    y2="-134.78996078431373"
    stroke="hsla(0,50%,50%,0.6)"
    stroke-width="1"
    transform="translate(279.1798605192,140.2309487022) scale(1,-1) translate(50,-110)"
    />
  
  <line
    x1="-258.78914027149324"
    y1="-125.489592760181"
    x2="-275.81017194570137"
    y2="-86.75685067873303"
    stroke="hsla(0,50%,50%,0.6)"
    stroke-width="1"
    transform="translate(279.1798605192,140.2309487022) scale(1,-1) translate(50,-110)"
    />
  
  <line
    x1="-256.37043740573154"
    y1="-143.55927601809955"
    x2="-257.576011345985"
    y2="-140.53177551158237"
    stroke="hsla(0,50%,50%,0.6)"
    stroke-width="1"
    transform="translate(279.1798605192,140.2309487022) scale(1,-1) translate(50,-110)"
    />
  
  <line
    x1="-275.5705580693816"
    y1="-84.24289592760181"
    x2="-275.6850112258644"
    y2="-84.23568028738212"
    stroke="hsla(0,50%,50%,0.6)"
    stroke-width="1"
    transform="translate(279.1798605192,140.2309487022) scale(1,-1) translate(50,-110)"
    />
  
  <line
    x1="-253.96214232825997"
    y1="-85.02337474290415"
    x2="-275.6850112258644"
    y2="-84.23568028738212"
    stroke="hsla(0,50%,50%,0.6)"
    stroke-width="1"
    transform="translate(279.1798605192,140.2309487022) scale(1,-1) translate(50,-110)"
    />
  
  <line
    x1="-261.8003342709225"
    y1="-141.2491133667604"
    x2="-252.36601307189542"
    y2="-139.64705882352942"
    stroke="hsla(0,50%,50%,0.6)"
    stroke-width="1"
    transform="translate(279.1798605192,140.2309487022) scale(1,-1) translate(50,-110)"
    />
  
  <line
    x1="-279.51533433886374"
    y1="-161.39165409753645"
    x2="-235.8111455108359"
    y2="-147.38699690402476"
    stroke="hsla(0,50%,50%,0.6)"
    stroke-width="1"
    transform="translate(279.1798605192,140.2309487022) scale(1,-1) translate(50,-110)"
    />
  
  <line
    x1="-275.6861209378856"
    y1="-84.2580337309749"
    x2="-275.5705580693816"
    y2="-84.24289592760181"
    stroke="hsla(0,50%,50%,0.6)"
    stroke-width="1"
    transform="translate(279.1798605192,140.2309487022) scale(1,-1) translate(50,-110)"
    />
  
  <line
    x1="-271.5130484896661"
    y1="-78.28077901430842"
    x2="-265.70150101419875"
    y2="-77.51951318458418"
    stroke="hsla(0,50%,50%,0.6)"
    stroke-width="1"
    transform="translate(279.1798605192,140.2309487022) scale(1,-1) translate(50,-110)"
    />
  
  <line
    x1="-278.1555113122172"
    y1="-134.00010859728508"
    x2="-258.78914027149324"
    y2="-125.489592760181"
    stroke="hsla(0,50%,50%,0.6)"
    stroke-width="1"
    transform="translate(279.1798605192,140.2309487022) scale(1,-1) translate(50,-110)"
    />
  
  <line
    x1="-258.17291437215533"
    y1="-154.55264659439231"
    x2="-257.576011345985"
    y2="-140.53177551158237"
    stroke="hsla(0,50%,50%,0.6)"
    stroke-width="1"
    transform="translate(279.1798605192,140.2309487022) scale(1,-1) translate(50,-110)"
    />
  
  <line
    x1="-260.265227984685"
    y1="-155.22311172989907"
    x2="-258.78914027149324"
    y2="-125.489592760181"
    stroke="hsla(0,50%,50%,0.6)"
    stroke-width="1"
    transform="translate(279.1798605192,140.2309487022) scale(1,-1) translate(50,-110)"
    />
  
  <line
    x1="-279.51533433886374"
    y1="-161.39165409753645"
    x2="-275.81017194570137"
    y2="-86.75685067873303"
    stroke="hsla(0,50%,50%,0.6)"
    stroke-width="1"
    transform="translate(279.1798605192,140.2309487022) scale(1,-1) translate(50,-110)"
    />
  
  <line
    x1="-275.6861209378856"
    y1="-84.2580337309749"
    x2="-275.67630677587493"
    y2="-84.06034251675354"
    stroke="hsla(0,50%,50%,0.6)"
    stroke-width="1"
    transform="translate(279.1798605192,140.2309487022) scale(1,-1) translate(50,-110)"
    />
  
  <line
    x1="-281.36058667498827"
    y1="-159.06163207988766"
    x2="-265.71789670775473"
    y2="-148.33796224059915"
    stroke="hsla(0,50%,50%,0.6)"
    stroke-width="1"
    transform="translate(279.1798605192,140.2309487022) scale(1,-1) translate(50,-110)"
    />
  
  <line
    x1="-270.46346889739254"
    y1="-158.49105633176114"
    x2="-268.60937556561083"
    y2="-142.9126515837104"
    stroke="hsla(0,50%,50%,0.6)"
    stroke-width="1"
    transform="translate(279.1798605192,140.2309487022) scale(1,-1) translate(50,-110)"
    />
  
  <line
    x1="-268.60937556561083"
    y1="-142.9126515837104"
    x2="-259.2930974907446"
    y2="-135.64103661044837"
    stroke="hsla(0,50%,50%,0.6)"
    stroke-width="1"
    transform="translate(279.1798605192,140.2309487022) scale(1,-1) translate(50,-110)"
    />
  
  <line
    x1="-273.3665158371041"
    y1="-155.30316742081448"
    x2="-265.71789670775473"
    y2="-148.33796224059915"
    stroke="hsla(0,50%,50%,0.6)"
    stroke-width="1"
    transform="translate(279.1798605192,140.2309487022) scale(1,-1) translate(50,-110)"
    />
  
  <line
    x1="-281.36058667498827"
    y1="-159.06163207988766"
    x2="-261.8003342709225"
    y2="-141.2491133667604"
    stroke="hsla(0,50%,50%,0.6)"
    stroke-width="1"
    transform="translate(279.1798605192,140.2309487022) scale(1,-1) translate(50,-110)"
    />
  
  <line
    x1="-256.37043740573154"
    y1="-143.55927601809955"
    x2="-252.36601307189542"
    y2="-139.64705882352942"
    stroke="hsla(0,50%,50%,0.6)"
    stroke-width="1"
    transform="translate(279.1798605192,140.2309487022) scale(1,-1) translate(50,-110)"
    />
  
  <line
    x1="-277.38019251336897"
    y1="-118.3825026737968"
    x2="-243.33994570135746"
    y2="-91.81314027149321"
    stroke="hsla(0,50%,50%,0.6)"
    stroke-width="1"
    transform="translate(279.1798605192,140.2309487022) scale(1,-1) translate(50,-110)"
    />
  
  <line
    x1="-235.8111455108359"
    y1="-147.38699690402476"
    x2="-228.71102262443438"
    y2="-134.78996078431373"
    stroke="hsla(0,50%,50%,0.6)"
    stroke-width="1"
    transform="translate(279.1798605192,140.2309487022) scale(1,-1) translate(50,-110)"
    />
  
  <line
    x1="-247.66515837104072"
    y1="-151.18552036199094"
    x2="-244.0814479638009"
    y2="-143.52036199095022"
    stroke="hsla(0,50%,50%,0.6)"
    stroke-width="1"
    transform="translate(279.1798605192,140.2309487022) scale(1,-1) translate(50,-110)"
    />
  
  <line
    x1="-268.60937556561083"
    y1="-142.9126515837104"
    x2="-258.78914027149324"
    y2="-125.489592760181"
    stroke="hsla(0,50%,50%,0.6)"
    stroke-width="1"
    transform="translate(279.1798605192,140.2309487022) scale(1,-1) translate(50,-110)"
    />
  
  <line
    x1="-268.590407239819"
    y1="-80.67358471593765"
    x2="-265.70150101419875"
    y2="-77.51951318458418"
    stroke="hsla(0,50%,50%,0.6)"
    stroke-width="1"
    transform="translate(279.1798605192,140.2309487022) scale(1,-1) translate(50,-110)"
    />
  
  <line
    x1="-275.81017194570137"
    y1="-86.75685067873303"
    x2="-270.99447963800907"
    y2="-78.21285067873303"
    stroke="hsla(0,50%,50%,0.6)"
    stroke-width="1"
    transform="translate(279.1798605192,140.2309487022) scale(1,-1) translate(50,-110)"
    />
  
  <line
    x1="-275.67630677587493"
    y1="-84.06034251675354"
    x2="-271.5130484896661"
    y2="-78.28077901430842"
    stroke="hsla(0,50%,50%,0.6)"
    stroke-width="1"
    transform="translate(279.1798605192,140.2309487022) scale(1,-1) translate(50,-110)"
    />
  
</svg>
