<?xml version="1.0"?>
<!DOCTYPE svg PUBLIC "-//W3C//DTD SVG 1.1//EN"
  "http://www.w3.org/Graphics/SVG/1.1/DTD/svg11.dtd">
<svg
  width="240"
  height="240"
  viewBox="-50 -50 200 200" xmlns="http://www.w3.org/2000/svg" version="1.1">
  <rect
    x="0"
    y="0"
    width="100"
    height="100"
    fill="hsla(206,100%,53%,0.3)"
    stroke="hsl(206,100%,53%)"
    stroke-width="3"
    transform="" />
  
  <path
    d="M 
      125
      450
      L
    
      150
      450
      L
    
      200
      500
      L
    
      100
      500
      L
    
      125
      475
      z
    "
    fill="hsla(0,0%,50%,0.3)"
    stroke="hsla(0,0%,50%,1)"
    stroke-width="1"
    transform="translate(-129.6875,-481.25) scale(1,-1) translate(50,-110)"
    />
  
  
  <line
    x1="125"
    y1="450"
    x2="125"
    y2="500"
    stroke="hsla(0,50%,50%,0.6)"
    stroke-width="1"
    transform="translate(-129.6875,-481.25) scale(1,-1) translate(50,-110)"
    />
  
  <line
    x1="150"
    y1="450"
    x2="150"
    y2="500"
    stroke="hsla(0,50%,50%,0.6)"
    stroke-width="1"
    transform="translate(-129.6875,-481.25) scale(1,-1) translate(50,-110)"
    />
  
  <line
    x1="150"
    y1="450"
    x2="200"
    y2="500"
    stroke="hsla(0,50%,50%,0.6)"
    stroke-width="1"
    transform="translate(-129.6875,-481.25) scale(1,-1) translate(50,-110)"
    />
  
  <line
    x1="150"
    y1="450"
    x2="100"
    y2="500"
    stroke="hsla(0,50%,50%,0.6)"
    stroke-width="1"
    transform="translate(-129.6875,-481.25) scale(1,-1) translate(50,-110)"
    />
  
  <line
    x1="125"
    y1="450"
    x2="150"
    y2="450"
    stroke="hsla(0,50%,50%,0.6)"
    stroke-width="1"
    transform="translate(-129.6875,-481.25) scale(1,-1) translate(50,-110)"
    />
  
  <line
    x1="100"
    y1="500"
    x2="200"
    y2="500"
    stroke="hsla(0,50%,50%,0.6)"
    stroke-width="1"
    transform="translate(-129.6875,-481.25) scale(1,-1) translate(50,-110)"
    />
  
</svg>
