<?xml version="1.0"?>
<!DOCTYPE svg PUBLIC "-//W3C//DTD SVG 1.1//EN"
  "http://www.w3.org/Graphics/SVG/1.1/DTD/svg11.dtd">
<svg
  width="240"
  height="240"
  viewBox="-50 -50 200 200" xmlns="http://www.w3.org/2000/svg" version="1.1">
  <rect
    x="0"
    y="0"
    width="100"
    height="100"
    fill="hsla(206,100%,53%,0.3)"
    stroke="hsl(206,100%,53%)"
    stroke-width="3"
    transform="" />
  
  <path
    d="M 
      9.7919277071
      -6.0719912409
      L
    
      42.6663516562
      23.0168929806
      L
    
      40.7749932947
      25.8869344237
      L
    
      38.4009748696
      26.6440587766
      L
    
      -0.0415285992
      59.3345667140
      L
    
      -0.2056861891
      59.3035592163
      L
    
      -1.3226890842
      57.1474838605
      L
    
      -0.2512215711
      51.0530214928
      L
    
      -0.5546925241
      39.0678395521
      L
    
      -9.2522116947
      41.8416611472
      L
    
      -12.5363896716
      35.5024338895
      L
    
      -13.6021142927
      32.1607768994
      L
    
      -14.1768303707
      32.3360018424
      L
    
      -14.5916768579
      31.5352516462
      L
    
      -23.2873819974
      4.2447771464
      L
    
      -23.2925400831
      4.2462808836
      L
    
      -23.3531715847
      4.0383040627
      z
    "
    fill="hsla(0,0%,50%,0.3)"
    stroke="hsla(0,0%,50%,1)"
    stroke-width="1"
    transform="translate(22.1099055817,-7.7145526456) scale(1,-1) translate(50,-110)"
    />
  
  
  <line
    x1="9.791927707167996"
    y1="-6.071991240930136"
    x2="42.66635165620019"
    y2="23.016892980637742"
    stroke="hsla(0,50%,50%,0.6)"
    stroke-width="1"
    transform="translate(22.1099055817,-7.7145526456) scale(1,-1) translate(50,-110)"
    />
  
  <line
    x1="40.29276178890419"
    y1="20.916625582909155"
    x2="40.77499329473106"
    y2="25.886934423716397"
    stroke="hsla(0,50%,50%,0.6)"
    stroke-width="1"
    transform="translate(22.1099055817,-7.7145526456) scale(1,-1) translate(50,-110)"
    />
  
  <line
    x1="9.791927707167996"
    y1="-6.071991240930136"
    x2="-23.353171584746356"
    y2="4.038304062773167"
    stroke="hsla(0,50%,50%,0.6)"
    stroke-width="1"
    transform="translate(22.1099055817,-7.7145526456) scale(1,-1) translate(50,-110)"
    />
  
  <line
    x1="10.364153542413698"
    y1="-5.565658077621818"
    x2="-23.2925400831949"
    y2="4.246280883647518"
    stroke="hsla(0,50%,50%,0.6)"
    stroke-width="1"
    transform="translate(22.1099055817,-7.7145526456) scale(1,-1) translate(50,-110)"
    />
  
  <line
    x1="0"
    y1="31.215546697038725"
    x2="0"
    y2="59.29925187032419"
    stroke="hsla(0,50%,50%,0.6)"
    stroke-width="1"
    transform="translate(22.1099055817,-7.7145526456) scale(1,-1) translate(50,-110)"
    />
  
  <line
    x1="0"
    y1="31.215546697038725"
    x2="0.6891165519612723"
    y2="58.7132450268858"
    stroke="hsla(0,50%,50%,0.6)"
    stroke-width="1"
    transform="translate(22.1099055817,-7.7145526456) scale(1,-1) translate(50,-110)"
    />
  
  <line
    x1="-0.987824415251522"
    y1="21.961871195129767"
    x2="-0.041528599227422205"
    y2="59.33456671405624"
    stroke="hsla(0,50%,50%,0.6)"
    stroke-width="1"
    transform="translate(22.1099055817,-7.7145526456) scale(1,-1) translate(50,-110)"
    />
  
  <line
    x1="9.791927707167996"
    y1="-6.071991240930136"
    x2="-1.3226890842774426"
    y2="57.14748386058075"
    stroke="hsla(0,50%,50%,0.6)"
    stroke-width="1"
    transform="translate(22.1099055817,-7.7145526456) scale(1,-1) translate(50,-110)"
    />
  
  <line
    x1="10.364153542413698"
    y1="-5.565658077621818"
    x2="-0.08703525509584722"
    y2="58.53009849965419"
    stroke="hsla(0,50%,50%,0.6)"
    stroke-width="1"
    transform="translate(22.1099055817,-7.7145526456) scale(1,-1) translate(50,-110)"
    />
  
  <line
    x1="-22.64030958983861"
    y1="3.8208587862986887"
    x2="-14.538812492412525"
    y2="31.637292165808383"
    stroke="hsla(0,50%,50%,0.6)"
    stroke-width="1"
    transform="translate(22.1099055817,-7.7145526456) scale(1,-1) translate(50,-110)"
    />
  
  <line
    x1="-23.353171584746356"
    y1="4.038304062773167"
    x2="-23.2925400831949"
    y2="4.246280883647518"
    stroke="hsla(0,50%,50%,0.6)"
    stroke-width="1"
    transform="translate(22.1099055817,-7.7145526456) scale(1,-1) translate(50,-110)"
    />
  
  <line
    x1="35.932276973734574"
    y1="17.0582572010015"
    x2="33.51895083512155"
    y2="30.79560539955998"
    stroke="hsla(0,50%,50%,0.6)"
    stroke-width="1"
    transform="translate(22.1099055817,-7.7145526456) scale(1,-1) translate(50,-110)"
    />
  
  <line
    x1="-22.64030958983861"
    y1="3.8208587862986887"
    x2="-12.536389671685518"
    y2="35.50243388953726"
    stroke="hsla(0,50%,50%,0.6)"
    stroke-width="1"
    transform="translate(22.1099055817,-7.7145526456) scale(1,-1) translate(50,-110)"
    />
  
  <line
    x1="-23.353171584746356"
    y1="4.038304062773167"
    x2="-14.591676857989547"
    y2="31.535251646206216"
    stroke="hsla(0,50%,50%,0.6)"
    stroke-width="1"
    transform="translate(22.1099055817,-7.7145526456) scale(1,-1) translate(50,-110)"
    />
  
  <line
    x1="-0.26828329134852047"
    y1="57.64486132010392"
    x2="-0.6415418759897807"
    y2="58.46225637890345"
    stroke="hsla(0,50%,50%,0.6)"
    stroke-width="1"
    transform="translate(22.1099055817,-7.7145526456) scale(1,-1) translate(50,-110)"
    />
  
  <line
    x1="0.40606902815629214"
    y1="57.96296242097816"
    x2="-0.205686189144624"
    y2="59.30355921630224"
    stroke="hsla(0,50%,50%,0.6)"
    stroke-width="1"
    transform="translate(22.1099055817,-7.7145526456) scale(1,-1) translate(50,-110)"
    />
  
  <line
    x1="-0.26828329134852047"
    y1="57.64486132010392"
    x2="-0.6543156037011717"
    y2="58.43760011378612"
    stroke="hsla(0,50%,50%,0.6)"
    stroke-width="1"
    transform="translate(22.1099055817,-7.7145526456) scale(1,-1) translate(50,-110)"
    />
  
  <line
    x1="0.40606902815629214"
    y1="57.96296242097816"
    x2="-0.2270678677904834"
    y2="59.26228760403232"
    stroke="hsla(0,50%,50%,0.6)"
    stroke-width="1"
    transform="translate(22.1099055817,-7.7145526456) scale(1,-1) translate(50,-110)"
    />
  
  <line
    x1="-14.591676857989547"
    y1="31.535251646206216"
    x2="-14.176830370755871"
    y2="32.33600184249448"
    stroke="hsla(0,50%,50%,0.6)"
    stroke-width="1"
    transform="translate(22.1099055817,-7.7145526456) scale(1,-1) translate(50,-110)"
    />
  
  <line
    x1="-12.536389671685518"
    y1="35.50243388953726"
    x2="-9.252211694798824"
    y2="41.84166114724878"
    stroke="hsla(0,50%,50%,0.6)"
    stroke-width="1"
    transform="translate(22.1099055817,-7.7145526456) scale(1,-1) translate(50,-110)"
    />
  
  <line
    x1="-1.3226890842774426"
    y1="57.14748386058075"
    x2="-0.205686189144624"
    y2="59.30355921630224"
    stroke="hsla(0,50%,50%,0.6)"
    stroke-width="1"
    transform="translate(22.1099055817,-7.7145526456) scale(1,-1) translate(50,-110)"
    />
  
  <line
    x1="-14.056620466691102"
    y1="32.24269386461117"
    x2="-14.176830370755871"
    y2="32.33600184249448"
    stroke="hsla(0,50%,50%,0.6)"
    stroke-width="1"
    transform="translate(22.1099055817,-7.7145526456) scale(1,-1) translate(50,-110)"
    />
  
  <line
    x1="-14.591676857989547"
    y1="31.535251646206216"
    x2="-14.056620466691102"
    y2="32.24269386461117"
    stroke="hsla(0,50%,50%,0.6)"
    stroke-width="1"
    transform="translate(22.1099055817,-7.7145526456) scale(1,-1) translate(50,-110)"
    />
  
  <line
    x1="-12.536389671685518"
    y1="35.50243388953726"
    x2="-8.29272105213327"
    y2="41.11636546522284"
    stroke="hsla(0,50%,50%,0.6)"
    stroke-width="1"
    transform="translate(22.1099055817,-7.7145526456) scale(1,-1) translate(50,-110)"
    />
  
  <line
    x1="-14.538812492412525"
    y1="31.637292165808383"
    x2="-14.056620466691102"
    y2="32.24269386461117"
    stroke="hsla(0,50%,50%,0.6)"
    stroke-width="1"
    transform="translate(22.1099055817,-7.7145526456) scale(1,-1) translate(50,-110)"
    />
  
  <line
    x1="40.29276178890419"
    y1="20.916625582909155"
    x2="-0.987824415251522"
    y2="21.961871195129767"
    stroke="hsla(0,50%,50%,0.6)"
    stroke-width="1"
    transform="translate(22.1099055817,-7.7145526456) scale(1,-1) translate(50,-110)"
    />
  
  <line
    x1="-8.29272105213327"
    y1="41.11636546522284"
    x2="-9.252211694798824"
    y2="41.84166114724878"
    stroke="hsla(0,50%,50%,0.6)"
    stroke-width="1"
    transform="translate(22.1099055817,-7.7145526456) scale(1,-1) translate(50,-110)"
    />
  
  <line
    x1="35.932276973734574"
    y1="17.0582572010015"
    x2="-14.176830370755871"
    y2="32.33600184249448"
    stroke="hsla(0,50%,50%,0.6)"
    stroke-width="1"
    transform="translate(22.1099055817,-7.7145526456) scale(1,-1) translate(50,-110)"
    />
  
  <line
    x1="42.66635165620019"
    y1="23.016892980637742"
    x2="40.77499329473106"
    y2="25.886934423716397"
    stroke="hsla(0,50%,50%,0.6)"
    stroke-width="1"
    transform="translate(22.1099055817,-7.7145526456) scale(1,-1) translate(50,-110)"
    />
  
  <line
    x1="33.51895083512155"
    y1="30.79560539955998"
    x2="0"
    y2="31.215546697038725"
    stroke="hsla(0,50%,50%,0.6)"
    stroke-width="1"
    transform="translate(22.1099055817,-7.7145526456) scale(1,-1) translate(50,-110)"
    />
  
  <line
    x1="42.66635165620019"
    y1="23.016892980637742"
    x2="-0.041528599227422205"
    y2="59.33456671405624"
    stroke="hsla(0,50%,50%,0.6)"
    stroke-width="1"
    transform="translate(22.1099055817,-7.7145526456) scale(1,-1) translate(50,-110)"
    />
  
  <line
    x1="40.77499329473106"
    y1="25.886934423716397"
    x2="-9.252211694798824"
    y2="41.84166114724878"
    stroke="hsla(0,50%,50%,0.6)"
    stroke-width="1"
    transform="translate(22.1099055817,-7.7145526456) scale(1,-1) translate(50,-110)"
    />
  
  <line
    x1="-1.3226890842774426"
    y1="57.14748386058075"
    x2="0.40606902815629214"
    y2="57.96296242097816"
    stroke="hsla(0,50%,50%,0.6)"
    stroke-width="1"
    transform="translate(22.1099055817,-7.7145526456) scale(1,-1) translate(50,-110)"
    />
  
  <line
    x1="-0.6415418759897807"
    y1="58.46225637890345"
    x2="0.6891165519612723"
    y2="58.7132450268858"
    stroke="hsla(0,50%,50%,0.6)"
    stroke-width="1"
    transform="translate(22.1099055817,-7.7145526456) scale(1,-1) translate(50,-110)"
    />
  
  <line
    x1="-0.6543156037011717"
    y1="58.43760011378612"
    x2="-0.08703525509584722"
    y2="58.53009849965419"
    stroke="hsla(0,50%,50%,0.6)"
    stroke-width="1"
    transform="translate(22.1099055817,-7.7145526456) scale(1,-1) translate(50,-110)"
    />
  
  <line
    x1="-0.205686189144624"
    y1="59.30355921630224"
    x2="-0.041528599227422205"
    y2="59.33456671405624"
    stroke="hsla(0,50%,50%,0.6)"
    stroke-width="1"
    transform="translate(22.1099055817,-7.7145526456) scale(1,-1) translate(50,-110)"
    />
  
  <line
    x1="-0.2270678677904834"
    y1="59.26228760403232"
    x2="0"
    y2="59.29925187032419"
    stroke="hsla(0,50%,50%,0.6)"
    stroke-width="1"
    transform="translate(22.1099055817,-7.7145526456) scale(1,-1) translate(50,-110)"
    />
  
</svg>
