<?xml version="1.0"?>
<!DOCTYPE svg PUBLIC "-//W3C//DTD SVG 1.1//EN"
  "http://www.w3.org/Graphics/SVG/1.1/DTD/svg11.dtd">
<svg
  width="240"
  height="240"
  viewBox="-50 -50 200 200" xmlns="http://www.w3.org/2000/svg" version="1.1">
  <rect
    x="0"
    y="0"
    width="100"
    height="100"
    fill="hsla(206,100%,53%,0.3)"
    stroke="hsl(206,100%,53%)"
    stroke-width="3"
    transform="" />
  
  <path
    d="M 
      9.7919277071
      -6.0719912409
      L
    
      27.6561817819
      9.7351669101
      L
    
      28.7535671303
      9.0212942611
      L
    
      35.2615948391
      16.4648051303
      L
    
      -0.4034337611
      51.9187980583
      L
    
      -7.1591175494
      53.0652253136
      L
    
      -7.5694057363
      52.8673061091
      L
    
      -7.8169240367
      51.5128891607
      L
    
      -0.4561329897
      42.9603173651
      L
    
      -0.5546925241
      39.0678395521
      L
    
      -9.5402098924
      41.9335098232
      L
    
      -12.4155042070
      35.8814790481
      L
    
      -13.6021142927
      32.1607768994
      L
    
      -14.1096733037
      32.3155263526
      L
    
      -14.8183381431
      30.8239011664
      L
    
      -23.2873819974
      4.2447771464
      L
    
      -23.2925400831
      4.2462808836
      L
    
      -23.3531715847
      4.0383040627
      z
    "
    fill="hsla(0,0%,50%,0.3)"
    stroke="hsla(0,0%,50%,1)"
    stroke-width="1"
    transform="translate(22.1308042678,-7.6609446564) scale(1,-1) translate(50,-110)"
    />
  
  
  <line
    x1="28.753567130326772"
    y1="9.021294261157937"
    x2="35.261594839103715"
    y2="16.46480513035844"
    stroke="hsla(0,50%,50%,0.6)"
    stroke-width="1"
    transform="translate(22.1308042678,-7.6609446564) scale(1,-1) translate(50,-110)"
    />
  
  <line
    x1="9.791927707167996"
    y1="-6.071991240930136"
    x2="35.261594839103715"
    y2="16.46480513035844"
    stroke="hsla(0,50%,50%,0.6)"
    stroke-width="1"
    transform="translate(22.1308042678,-7.6609446564) scale(1,-1) translate(50,-110)"
    />
  
  <line
    x1="9.791927707167996"
    y1="-6.071991240930136"
    x2="-23.353171584746356"
    y2="4.038304062773167"
    stroke="hsla(0,50%,50%,0.6)"
    stroke-width="1"
    transform="translate(22.1308042678,-7.6609446564) scale(1,-1) translate(50,-110)"
    />
  
  <line
    x1="10.364153542413698"
    y1="-5.565658077621818"
    x2="-23.2925400831949"
    y2="4.246280883647518"
    stroke="hsla(0,50%,50%,0.6)"
    stroke-width="1"
    transform="translate(22.1308042678,-7.6609446564) scale(1,-1) translate(50,-110)"
    />
  
  <line
    x1="0"
    y1="31.215546697038725"
    x2="0"
    y2="51.51775147928994"
    stroke="hsla(0,50%,50%,0.6)"
    stroke-width="1"
    transform="translate(22.1308042678,-7.6609446564) scale(1,-1) translate(50,-110)"
    />
  
  <line
    x1="0"
    y1="31.215546697038725"
    x2="0.4964239358008917"
    y2="51.024264963227516"
    stroke="hsla(0,50%,50%,0.6)"
    stroke-width="1"
    transform="translate(22.1308042678,-7.6609446564) scale(1,-1) translate(50,-110)"
    />
  
  <line
    x1="-0.987824415251522"
    y1="21.961871195129767"
    x2="-0.233575123207388"
    y2="51.74994450117657"
    stroke="hsla(0,50%,50%,0.6)"
    stroke-width="1"
    transform="translate(22.1308042678,-7.6609446564) scale(1,-1) translate(50,-110)"
    />
  
  <line
    x1="20.920704929520507"
    y1="18.122369934997028"
    x2="20.68372927323286"
    y2="30.956411136667924"
    stroke="hsla(0,50%,50%,0.6)"
    stroke-width="1"
    transform="translate(22.1308042678,-7.6609446564) scale(1,-1) translate(50,-110)"
    />
  
  <line
    x1="30.839711079034025"
    y1="11.407306714051677"
    x2="30.534726287124933"
    y2="21.163704045934978"
    stroke="hsla(0,50%,50%,0.6)"
    stroke-width="1"
    transform="translate(22.1308042678,-7.6609446564) scale(1,-1) translate(50,-110)"
    />
  
  <line
    x1="9.791927707167996"
    y1="-6.071991240930136"
    x2="-0.403433761121496"
    y2="51.918798058392966"
    stroke="hsla(0,50%,50%,0.6)"
    stroke-width="1"
    transform="translate(22.1308042678,-7.6609446564) scale(1,-1) translate(50,-110)"
    />
  
  <line
    x1="10.364153542413698"
    y1="-5.565658077621818"
    x2="1.2607205209118735"
    y2="50.26449084311719"
    stroke="hsla(0,50%,50%,0.6)"
    stroke-width="1"
    transform="translate(22.1308042678,-7.6609446564) scale(1,-1) translate(50,-110)"
    />
  
  <line
    x1="-7.0127400560945805"
    y1="51.563169265316176"
    x2="-6.78687899404773"
    y2="53.002057107589955"
    stroke="hsla(0,50%,50%,0.6)"
    stroke-width="1"
    transform="translate(22.1308042678,-7.6609446564) scale(1,-1) translate(50,-110)"
    />
  
  <line
    x1="-7.781363356599257"
    y1="51.471570874697555"
    x2="-7.562094291167553"
    y2="52.87083308225046"
    stroke="hsla(0,50%,50%,0.6)"
    stroke-width="1"
    transform="translate(22.1308042678,-7.6609446564) scale(1,-1) translate(50,-110)"
    />
  
  <line
    x1="-7.191277156443997"
    y1="50.78594421307336"
    x2="-6.78687899404773"
    y2="53.002057107589955"
    stroke="hsla(0,50%,50%,0.6)"
    stroke-width="1"
    transform="translate(22.1308042678,-7.6609446564) scale(1,-1) translate(50,-110)"
    />
  
  <line
    x1="-7.816924036786282"
    y1="51.51288916079762"
    x2="-7.5694057363423966"
    y2="52.867306109115944"
    stroke="hsla(0,50%,50%,0.6)"
    stroke-width="1"
    transform="translate(22.1308042678,-7.6609446564) scale(1,-1) translate(50,-110)"
    />
  
  <line
    x1="-22.64030958983861"
    y1="3.8208587862986887"
    x2="-14.708182805705775"
    y2="31.055760384764458"
    stroke="hsla(0,50%,50%,0.6)"
    stroke-width="1"
    transform="translate(22.1308042678,-7.6609446564) scale(1,-1) translate(50,-110)"
    />
  
  <line
    x1="-23.353171584746356"
    y1="4.038304062773167"
    x2="-23.2925400831949"
    y2="4.246280883647518"
    stroke="hsla(0,50%,50%,0.6)"
    stroke-width="1"
    transform="translate(22.1308042678,-7.6609446564) scale(1,-1) translate(50,-110)"
    />
  
  <line
    x1="-22.64030958983861"
    y1="3.8208587862986887"
    x2="-12.415504207013612"
    y2="35.881479048140704"
    stroke="hsla(0,50%,50%,0.6)"
    stroke-width="1"
    transform="translate(22.1308042678,-7.6609446564) scale(1,-1) translate(50,-110)"
    />
  
  <line
    x1="-23.353171584746356"
    y1="4.038304062773167"
    x2="-14.818338143166269"
    y2="30.823901166400027"
    stroke="hsla(0,50%,50%,0.6)"
    stroke-width="1"
    transform="translate(22.1308042678,-7.6609446564) scale(1,-1) translate(50,-110)"
    />
  
  <line
    x1="25.872351649626"
    y1="10.895586578342852"
    x2="30.839711079034025"
    y2="11.407306714051677"
    stroke="hsla(0,50%,50%,0.6)"
    stroke-width="1"
    transform="translate(22.1308042678,-7.6609446564) scale(1,-1) translate(50,-110)"
    />
  
  <line
    x1="25.872351649626"
    y1="10.895586578342852"
    x2="18.70190886727422"
    y2="32.926504794662314"
    stroke="hsla(0,50%,50%,0.6)"
    stroke-width="1"
    transform="translate(22.1308042678,-7.6609446564) scale(1,-1) translate(50,-110)"
    />
  
  <line
    x1="34.67213349367754"
    y1="15.790612866896515"
    x2="34.103812096348484"
    y2="17.615737087653578"
    stroke="hsla(0,50%,50%,0.6)"
    stroke-width="1"
    transform="translate(22.1308042678,-7.6609446564) scale(1,-1) translate(50,-110)"
    />
  
  <line
    x1="-14.818338143166269"
    y1="30.823901166400027"
    x2="-14.109673303742289"
    y2="32.31552635260695"
    stroke="hsla(0,50%,50%,0.6)"
    stroke-width="1"
    transform="translate(22.1308042678,-7.6609446564) scale(1,-1) translate(50,-110)"
    />
  
  <line
    x1="-12.415504207013612"
    y1="35.881479048140704"
    x2="-9.540209892424535"
    y2="41.933509823203195"
    stroke="hsla(0,50%,50%,0.6)"
    stroke-width="1"
    transform="translate(22.1308042678,-7.6609446564) scale(1,-1) translate(50,-110)"
    />
  
  <line
    x1="-7.336790368398228"
    y1="52.74289709804642"
    x2="-7.1591175494214365"
    y2="53.06522531360647"
    stroke="hsla(0,50%,50%,0.6)"
    stroke-width="1"
    transform="translate(22.1308042678,-7.6609446564) scale(1,-1) translate(50,-110)"
    />
  
  <line
    x1="-13.925024727034051"
    y1="32.19159508056383"
    x2="-14.109673303742289"
    y2="32.31552635260695"
    stroke="hsla(0,50%,50%,0.6)"
    stroke-width="1"
    transform="translate(22.1308042678,-7.6609446564) scale(1,-1) translate(50,-110)"
    />
  
  <line
    x1="-14.818338143166269"
    y1="30.823901166400027"
    x2="-13.925024727034051"
    y2="32.19159508056383"
    stroke="hsla(0,50%,50%,0.6)"
    stroke-width="1"
    transform="translate(22.1308042678,-7.6609446564) scale(1,-1) translate(50,-110)"
    />
  
  <line
    x1="-12.415504207013612"
    y1="35.881479048140704"
    x2="-8.78616123280643"
    y2="41.44127973055795"
    stroke="hsla(0,50%,50%,0.6)"
    stroke-width="1"
    transform="translate(22.1308042678,-7.6609446564) scale(1,-1) translate(50,-110)"
    />
  
  <line
    x1="-14.708182805705775"
    y1="31.055760384764458"
    x2="-13.925024727034051"
    y2="32.19159508056383"
    stroke="hsla(0,50%,50%,0.6)"
    stroke-width="1"
    transform="translate(22.1308042678,-7.6609446564) scale(1,-1) translate(50,-110)"
    />
  
  <line
    x1="28.753567130326772"
    y1="9.021294261157937"
    x2="-7.816924036786282"
    y2="51.51288916079762"
    stroke="hsla(0,50%,50%,0.6)"
    stroke-width="1"
    transform="translate(22.1308042678,-7.6609446564) scale(1,-1) translate(50,-110)"
    />
  
  <line
    x1="28.753567130326772"
    y1="9.021294261157937"
    x2="25.872351649626"
    y2="10.895586578342852"
    stroke="hsla(0,50%,50%,0.6)"
    stroke-width="1"
    transform="translate(22.1308042678,-7.6609446564) scale(1,-1) translate(50,-110)"
    />
  
  <line
    x1="34.67213349367754"
    y1="15.790612866896515"
    x2="20.920704929520507"
    y2="18.122369934997028"
    stroke="hsla(0,50%,50%,0.6)"
    stroke-width="1"
    transform="translate(22.1308042678,-7.6609446564) scale(1,-1) translate(50,-110)"
    />
  
  <line
    x1="30.534726287124933"
    y1="21.163704045934978"
    x2="-0.987824415251522"
    y2="21.961871195129767"
    stroke="hsla(0,50%,50%,0.6)"
    stroke-width="1"
    transform="translate(22.1308042678,-7.6609446564) scale(1,-1) translate(50,-110)"
    />
  
  <line
    x1="-8.78616123280643"
    y1="41.44127973055795"
    x2="-9.540209892424535"
    y2="41.933509823203195"
    stroke="hsla(0,50%,50%,0.6)"
    stroke-width="1"
    transform="translate(22.1308042678,-7.6609446564) scale(1,-1) translate(50,-110)"
    />
  
  <line
    x1="34.103812096348484"
    y1="17.615737087653578"
    x2="-14.109673303742289"
    y2="32.31552635260695"
    stroke="hsla(0,50%,50%,0.6)"
    stroke-width="1"
    transform="translate(22.1308042678,-7.6609446564) scale(1,-1) translate(50,-110)"
    />
  
  <line
    x1="35.261594839103715"
    y1="16.46480513035844"
    x2="-0.403433761121496"
    y2="51.918798058392966"
    stroke="hsla(0,50%,50%,0.6)"
    stroke-width="1"
    transform="translate(22.1308042678,-7.6609446564) scale(1,-1) translate(50,-110)"
    />
  
  <line
    x1="20.68372927323286"
    y1="30.956411136667924"
    x2="0"
    y2="31.215546697038725"
    stroke="hsla(0,50%,50%,0.6)"
    stroke-width="1"
    transform="translate(22.1308042678,-7.6609446564) scale(1,-1) translate(50,-110)"
    />
  
  <line
    x1="18.70190886727422"
    y1="32.926504794662314"
    x2="-9.540209892424535"
    y2="41.933509823203195"
    stroke="hsla(0,50%,50%,0.6)"
    stroke-width="1"
    transform="translate(22.1308042678,-7.6609446564) scale(1,-1) translate(50,-110)"
    />
  
  <line
    x1="-7.336790368398228"
    y1="52.74289709804642"
    x2="-7.562094291167553"
    y2="52.87083308225046"
    stroke="hsla(0,50%,50%,0.6)"
    stroke-width="1"
    transform="translate(22.1308042678,-7.6609446564) scale(1,-1) translate(50,-110)"
    />
  
  <line
    x1="-7.336790368398228"
    y1="52.74289709804642"
    x2="-7.5694057363423966"
    y2="52.867306109115944"
    stroke="hsla(0,50%,50%,0.6)"
    stroke-width="1"
    transform="translate(22.1308042678,-7.6609446564) scale(1,-1) translate(50,-110)"
    />
  
  <line
    x1="-7.5694057363423966"
    y1="52.867306109115944"
    x2="-7.1591175494214365"
    y2="53.06522531360647"
    stroke="hsla(0,50%,50%,0.6)"
    stroke-width="1"
    transform="translate(22.1308042678,-7.6609446564) scale(1,-1) translate(50,-110)"
    />
  
  <line
    x1="1.2607205209118735"
    y1="50.26449084311719"
    x2="-7.0127400560945805"
    y2="51.563169265316176"
    stroke="hsla(0,50%,50%,0.6)"
    stroke-width="1"
    transform="translate(22.1308042678,-7.6609446564) scale(1,-1) translate(50,-110)"
    />
  
  <line
    x1="-0.403433761121496"
    y1="51.918798058392966"
    x2="-7.1591175494214365"
    y2="53.06522531360647"
    stroke="hsla(0,50%,50%,0.6)"
    stroke-width="1"
    transform="translate(22.1308042678,-7.6609446564) scale(1,-1) translate(50,-110)"
    />
  
  <line
    x1="-7.191277156443997"
    y1="50.78594421307336"
    x2="0.4964239358008917"
    y2="51.024264963227516"
    stroke="hsla(0,50%,50%,0.6)"
    stroke-width="1"
    transform="translate(22.1308042678,-7.6609446564) scale(1,-1) translate(50,-110)"
    />
  
  <line
    x1="-7.781363356599257"
    y1="51.471570874697555"
    x2="0"
    y2="51.51775147928994"
    stroke="hsla(0,50%,50%,0.6)"
    stroke-width="1"
    transform="translate(22.1308042678,-7.6609446564) scale(1,-1) translate(50,-110)"
    />
  
  <line
    x1="-7.816924036786282"
    y1="51.51288916079762"
    x2="-0.233575123207388"
    y2="51.74994450117657"
    stroke="hsla(0,50%,50%,0.6)"
    stroke-width="1"
    transform="translate(22.1308042678,-7.6609446564) scale(1,-1) translate(50,-110)"
    />
  
</svg>
