<?xml version="1.0"?>
<!DOCTYPE svg PUBLIC "-//W3C//DTD SVG 1.1//EN"
  "http://www.w3.org/Graphics/SVG/1.1/DTD/svg11.dtd">
<svg
  width="240"
  height="240"
  viewBox="-500 -500 1000 1000" xmlns="http://www.w3.org/2000/svg" version="1.1">
  <rect
    x="0"
    y="0"
    width="100"
    height="100"
    fill="hsla(206,100%,53%,0.3)"
    stroke="hsl(206,100%,53%)"
    stroke-width="3"
    transform="" />
  
  <path
    d="M 
      10.4645137298
      -0.7943864437
      L
    
      10.5858203596
      0
      L
    
      11.1279644268
      0
      L
    
      12.3053702336
      1.1032728485
      L
    
      12.5096223086
      1.0802071495
      L
    
      12.5367064492
      1.3200434505
      L
    
      12.8272164192
      1.5922620520
      L
    
      14.9721464030
      1.5083891039
      L
    
      56.9565200139
      42.9430539389
      L
    
      16.6502635956
      84.8562043008
      L
    
      15.7242995429
      84.8322130330
      L
    
      14.1281537513
      74.4797310752
      L
    
      10.7426705301
      72.1919098679
      L
    
      5.2624087591
      0
      z
    "
    fill="hsla(0,0%,50%,0.3)"
    stroke="hsla(0,0%,50%,1)"
    stroke-width="1"
    transform="translate(-31.1094643865,-42.0309089285)"
    />
  
  
  <line
    x1="14.97214640304514"
    y1="1.5083891039578583"
    x2="56.956520013942225"
    y2="42.94305393899031"
    stroke="hsla(0,50%,50%,0.6)"
    stroke-width="1"
    transform="translate(-31.1094643865,-42.0309089285)"
    />
  
  <line
    x1="11.12796442687747"
    y1="0"
    x2="56.956520013942225"
    y2="42.94305393899031"
    stroke="hsla(0,50%,50%,0.6)"
    stroke-width="1"
    transform="translate(-31.1094643865,-42.0309089285)"
    />
  
  <line
    x1="35.28084350446399"
    y1="53.086482331239594"
    x2="38.510127845892924"
    y2="62.124850445965166"
    stroke="hsla(0,50%,50%,0.6)"
    stroke-width="1"
    transform="translate(-31.1094643865,-42.0309089285)"
    />
  
  <line
    x1="10.464513729819528"
    y1="-0.7943864437235262"
    x2="18.018357921126093"
    y2="48.67258360080946"
    stroke="hsla(0,50%,50%,0.6)"
    stroke-width="1"
    transform="translate(-31.1094643865,-42.0309089285)"
    />
  
  <line
    x1="12.509622308618594"
    y1="1.080207149589687"
    x2="19.614549831563"
    y2="63.995976181020986"
    stroke="hsla(0,50%,50%,0.6)"
    stroke-width="1"
    transform="translate(-31.1094643865,-42.0309089285)"
    />
  
  <line
    x1="11.12796442687747"
    y1="0"
    x2="16.65026359565907"
    y2="84.8562043008595"
    stroke="hsla(0,50%,50%,0.6)"
    stroke-width="1"
    transform="translate(-31.1094643865,-42.0309089285)"
    />
  
  <line
    x1="13.232078146059393"
    y1="68.66785186834548"
    x2="15.724299542919924"
    y2="84.83221303307742"
    stroke="hsla(0,50%,50%,0.6)"
    stroke-width="1"
    transform="translate(-31.1094643865,-42.0309089285)"
    />
  
  <line
    x1="5.262408759124088"
    y1="0"
    x2="10.742670530121728"
    y2="72.19190986794968"
    stroke="hsla(0,50%,50%,0.6)"
    stroke-width="1"
    transform="translate(-31.1094643865,-42.0309089285)"
    />
  
  <line
    x1="5.262408759124088"
    y1="0"
    x2="11.12796442687747"
    y2="0"
    stroke="hsla(0,50%,50%,0.6)"
    stroke-width="1"
    transform="translate(-31.1094643865,-42.0309089285)"
    />
  
  <line
    x1="14.97214640304514"
    y1="1.5083891039578583"
    x2="13.232078146059393"
    y2="68.66785186834548"
    stroke="hsla(0,50%,50%,0.6)"
    stroke-width="1"
    transform="translate(-31.1094643865,-42.0309089285)"
    />
  
  <line
    x1="10.464513729819528"
    y1="-0.7943864437235262"
    x2="5.262408759124088"
    y2="0"
    stroke="hsla(0,50%,50%,0.6)"
    stroke-width="1"
    transform="translate(-31.1094643865,-42.0309089285)"
    />
  
  <line
    x1="14.97214640304514"
    y1="1.5083891039578583"
    x2="5.4053123431838594"
    y2="1.8824799054027646"
    stroke="hsla(0,50%,50%,0.6)"
    stroke-width="1"
    transform="translate(-31.1094643865,-42.0309089285)"
    />
  
  <line
    x1="12.509622308618594"
    y1="1.080207149589687"
    x2="5.4053123431838594"
    y2="1.8824799054027646"
    stroke="hsla(0,50%,50%,0.6)"
    stroke-width="1"
    transform="translate(-31.1094643865,-42.0309089285)"
    />
  
  <line
    x1="13.232078146059393"
    y1="68.66785186834548"
    x2="18.240660823929712"
    y2="83.20240253192691"
    stroke="hsla(0,50%,50%,0.6)"
    stroke-width="1"
    transform="translate(-31.1094643865,-42.0309089285)"
    />
  
  <line
    x1="17.550279180588927"
    y1="82.99429820838053"
    x2="17.143708751518613"
    y2="84.34308691287266"
    stroke="hsla(0,50%,50%,0.6)"
    stroke-width="1"
    transform="translate(-31.1094643865,-42.0309089285)"
    />
  
  <line
    x1="10.105876743997769"
    y1="63.80337633920138"
    x2="21.70499075273501"
    y2="79.59995978203968"
    stroke="hsla(0,50%,50%,0.6)"
    stroke-width="1"
    transform="translate(-31.1094643865,-42.0309089285)"
    />
  
  <line
    x1="18.018357921126093"
    y1="48.67258360080946"
    x2="10.105876743997769"
    y2="63.80337633920138"
    stroke="hsla(0,50%,50%,0.6)"
    stroke-width="1"
    transform="translate(-31.1094643865,-42.0309089285)"
    />
  
  <line
    x1="19.614549831563"
    y1="63.995976181020986"
    x2="10.742670530121728"
    y2="72.19190986794968"
    stroke="hsla(0,50%,50%,0.6)"
    stroke-width="1"
    transform="translate(-31.1094643865,-42.0309089285)"
    />
  
  <line
    x1="10.742670530121728"
    y1="72.19190986794968"
    x2="21.70499075273501"
    y2="79.59995978203968"
    stroke="hsla(0,50%,50%,0.6)"
    stroke-width="1"
    transform="translate(-31.1094643865,-42.0309089285)"
    />
  
  <line
    x1="9.282210022232821"
    y1="52.95315125441313"
    x2="38.510127845892924"
    y2="62.124850445965166"
    stroke="hsla(0,50%,50%,0.6)"
    stroke-width="1"
    transform="translate(-31.1094643865,-42.0309089285)"
    />
  
  <line
    x1="18.018357921126093"
    y1="48.67258360080946"
    x2="9.282210022232821"
    y2="52.95315125441313"
    stroke="hsla(0,50%,50%,0.6)"
    stroke-width="1"
    transform="translate(-31.1094643865,-42.0309089285)"
    />
  
  <line
    x1="56.956520013942225"
    y1="42.94305393899031"
    x2="16.65026359565907"
    y2="84.8562043008595"
    stroke="hsla(0,50%,50%,0.6)"
    stroke-width="1"
    transform="translate(-31.1094643865,-42.0309089285)"
    />
  
  <line
    x1="9.978590773802008"
    y1="62.12662846258415"
    x2="19.614549831563"
    y2="63.995976181020986"
    stroke="hsla(0,50%,50%,0.6)"
    stroke-width="1"
    transform="translate(-31.1094643865,-42.0309089285)"
    />
  
  <line
    x1="35.28084350446399"
    y1="53.086482331239594"
    x2="9.978590773802008"
    y2="62.12662846258415"
    stroke="hsla(0,50%,50%,0.6)"
    stroke-width="1"
    transform="translate(-31.1094643865,-42.0309089285)"
    />
  
  <line
    x1="17.550279180588927"
    y1="82.99429820838053"
    x2="18.240660823929712"
    y2="83.20240253192691"
    stroke="hsla(0,50%,50%,0.6)"
    stroke-width="1"
    transform="translate(-31.1094643865,-42.0309089285)"
    />
  
  <line
    x1="17.143708751518613"
    y1="84.34308691287266"
    x2="15.724299542919924"
    y2="84.83221303307742"
    stroke="hsla(0,50%,50%,0.6)"
    stroke-width="1"
    transform="translate(-31.1094643865,-42.0309089285)"
    />
  
  <line
    x1="15.724299542919924"
    y1="84.83221303307742"
    x2="16.65026359565907"
    y2="84.8562043008595"
    stroke="hsla(0,50%,50%,0.6)"
    stroke-width="1"
    transform="translate(-31.1094643865,-42.0309089285)"
    />
  
</svg>
