<?xml version="1.0"?>
<!DOCTYPE svg PUBLIC "-//W3C//DTD SVG 1.1//EN"
  "http://www.w3.org/Graphics/SVG/1.1/DTD/svg11.dtd">
<svg
  width="240"
  height="240"
  viewBox="-500 -500 1000 1000" xmlns="http://www.w3.org/2000/svg" version="1.1">
  <rect
    x="0"
    y="0"
    width="100"
    height="100"
    fill="hsla(206,100%,53%,0.3)"
    stroke="hsl(206,100%,53%)"
    stroke-width="3"
    transform="" />
  
  <path
    d="M 
      21.4415906472
      -23.2014532888
      L
    
      46.5280303699
      -1.2280701150
      L
    
      48.2679612291
      -1.2737076185
      L
    
      49.9356761567
      0
      L
    
      50.5817204301
      0
      L
    
      53.0863579608
      2.4063149830
      L
    
      65.5079924615
      11.8932664021
      L
    
      54.2729793169
      28.6295618451
      L
    
      13.3025822759
      9.5120526474
      L
    
      19.7756052216
      -6.4364033827
      L
    
      20.0468926764
      -6.3361153884
      L
    
      20.0576476952
      -6.3114570443
      L
    
      21.3815567356
      -5.7249581918
      L
    
      22.2596178927
      -7.6161530471
      L
    
      21.4337345375
      -23.2010369732
      z
    "
    fill="hsla(0,0%,50%,0.3)"
    stroke="hsla(0,0%,50%,1)"
    stroke-width="1"
    transform="translate(-39.4052873687,-2.7140542781)"
    />
  
  
  <line
    x1="50.581720430107524"
    y1="0"
    x2="64.50935633747943"
    y2="13.380889869685815"
    stroke="hsla(0,50%,50%,0.6)"
    stroke-width="1"
    transform="translate(-39.4052873687,-2.7140542781)"
    />
  
  <line
    x1="48.26796122917185"
    y1="-1.273707618567034"
    x2="65.50799246151561"
    y2="11.893266402156042"
    stroke="hsla(0,50%,50%,0.6)"
    stroke-width="1"
    transform="translate(-39.4052873687,-2.7140542781)"
    />
  
  <line
    x1="21.441590647289484"
    y1="-23.2014532888077"
    x2="64.0270160988505"
    y2="14.099410501022705"
    stroke="hsla(0,50%,50%,0.6)"
    stroke-width="1"
    transform="translate(-39.4052873687,-2.7140542781)"
    />
  
  <line
    x1="21.441590647289484"
    y1="-23.2014532888077"
    x2="21.43373453750981"
    y2="-23.201036973207618"
    stroke="hsla(0,50%,50%,0.6)"
    stroke-width="1"
    transform="translate(-39.4052873687,-2.7140542781)"
    />
  
  <line
    x1="26.90696982596245"
    y1="-10.732143066959562"
    x2="65.50799246151561"
    y2="11.893266402156042"
    stroke="hsla(0,50%,50%,0.6)"
    stroke-width="1"
    transform="translate(-39.4052873687,-2.7140542781)"
    />
  
  <line
    x1="55.871563916645634"
    y1="10.027689037349734"
    x2="55.87201727160071"
    y2="10.028899557201525"
    stroke="hsla(0,50%,50%,0.6)"
    stroke-width="1"
    transform="translate(-39.4052873687,-2.7140542781)"
    />
  
  <line
    x1="42.08834266212261"
    y1="11.173478461016042"
    x2="52.175262302353374"
    y2="27.650730122333815"
    stroke="hsla(0,50%,50%,0.6)"
    stroke-width="1"
    transform="translate(-39.4052873687,-2.7140542781)"
    />
  
  <line
    x1="49.59051564971674"
    y1="8.34322368710427"
    x2="56.02707034339958"
    y2="26.016571074659936"
    stroke="hsla(0,50%,50%,0.6)"
    stroke-width="1"
    transform="translate(-39.4052873687,-2.7140542781)"
    />
  
  <line
    x1="21.997983906874943"
    y1="-6.884160814234928"
    x2="64.0270160988505"
    y2="14.099410501022705"
    stroke="hsla(0,50%,50%,0.6)"
    stroke-width="1"
    transform="translate(-39.4052873687,-2.7140542781)"
    />
  
  <line
    x1="19.77560522168596"
    y1="-6.436403382774781"
    x2="64.50935633747943"
    y2="13.380889869685815"
    stroke="hsla(0,50%,50%,0.6)"
    stroke-width="1"
    transform="translate(-39.4052873687,-2.7140542781)"
    />
  
  <line
    x1="19.77560522168596"
    y1="-6.436403382774781"
    x2="20.046892676431685"
    y2="-6.336115388458169"
    stroke="hsla(0,50%,50%,0.6)"
    stroke-width="1"
    transform="translate(-39.4052873687,-2.7140542781)"
    />
  
  <line
    x1="22.63135458093512"
    y1="-0.6012724347551731"
    x2="54.27297931691387"
    y2="28.629561845149"
    stroke="hsla(0,50%,50%,0.6)"
    stroke-width="1"
    transform="translate(-39.4052873687,-2.7140542781)"
    />
  
  <line
    x1="48.26796122917185"
    y1="-1.273707618567034"
    x2="55.23714148995504"
    y2="27.193292677032492"
    stroke="hsla(0,50%,50%,0.6)"
    stroke-width="1"
    transform="translate(-39.4052873687,-2.7140542781)"
    />
  
  <line
    x1="20.046892676431685"
    y1="-6.336115388458169"
    x2="30.448876732463233"
    y2="17.512815775303437"
    stroke="hsla(0,50%,50%,0.6)"
    stroke-width="1"
    transform="translate(-39.4052873687,-2.7140542781)"
    />
  
  <line
    x1="23.023125137170826"
    y1="-9.260618197379783"
    x2="32.87105885962146"
    y2="18.643048637048704"
    stroke="hsla(0,50%,50%,0.6)"
    stroke-width="1"
    transform="translate(-39.4052873687,-2.7140542781)"
    />
  
  <line
    x1="19.6584952429538"
    y1="-6.14786379900064"
    x2="27.802924334833197"
    y2="16.27816776230545"
    stroke="hsla(0,50%,50%,0.6)"
    stroke-width="1"
    transform="translate(-39.4052873687,-2.7140542781)"
    />
  
  <line
    x1="26.90696982596245"
    y1="-10.732143066959562"
    x2="31.17749220838934"
    y2="17.852800595286404"
    stroke="hsla(0,50%,50%,0.6)"
    stroke-width="1"
    transform="translate(-39.4052873687,-2.7140542781)"
    />
  
  <line
    x1="50.581720430107524"
    y1="0"
    x2="51.63079215422522"
    y2="26.188684180569968"
    stroke="hsla(0,50%,50%,0.6)"
    stroke-width="1"
    transform="translate(-39.4052873687,-2.7140542781)"
    />
  
  <line
    x1="21.441590647289484"
    y1="-23.2014532888077"
    x2="23.28221649484536"
    y2="0"
    stroke="hsla(0,50%,50%,0.6)"
    stroke-width="1"
    transform="translate(-39.4052873687,-2.7140542781)"
    />
  
  <line
    x1="21.43373453750981"
    y1="-23.201036973207618"
    x2="22.63135458093512"
    y2="-0.6012724347551731"
    stroke="hsla(0,50%,50%,0.6)"
    stroke-width="1"
    transform="translate(-39.4052873687,-2.7140542781)"
    />
  
  <line
    x1="26.90696982596245"
    y1="-10.732143066959562"
    x2="23.023125137170826"
    y2="-9.260618197379783"
    stroke="hsla(0,50%,50%,0.6)"
    stroke-width="1"
    transform="translate(-39.4052873687,-2.7140542781)"
    />
  
  <line
    x1="48.26796122917185"
    y1="-1.273707618567034"
    x2="22.63135458093512"
    y2="-0.6012724347551731"
    stroke="hsla(0,50%,50%,0.6)"
    stroke-width="1"
    transform="translate(-39.4052873687,-2.7140542781)"
    />
  
  <line
    x1="23.28221649484536"
    y1="0"
    x2="50.581720430107524"
    y2="0"
    stroke="hsla(0,50%,50%,0.6)"
    stroke-width="1"
    transform="translate(-39.4052873687,-2.7140542781)"
    />
  
  <line
    x1="13.302582275986735"
    y1="9.512052647467652"
    x2="54.27297931691387"
    y2="28.629561845149"
    stroke="hsla(0,50%,50%,0.6)"
    stroke-width="1"
    transform="translate(-39.4052873687,-2.7140542781)"
    />
  
  <line
    x1="20.046892676431685"
    y1="-6.336115388458169"
    x2="19.6584952429538"
    y2="-6.14786379900064"
    stroke="hsla(0,50%,50%,0.6)"
    stroke-width="1"
    transform="translate(-39.4052873687,-2.7140542781)"
    />
  
  <line
    x1="19.77560522168596"
    y1="-6.436403382774781"
    x2="13.302582275986735"
    y2="9.512052647467652"
    stroke="hsla(0,50%,50%,0.6)"
    stroke-width="1"
    transform="translate(-39.4052873687,-2.7140542781)"
    />
  
  <line
    x1="23.023125137170826"
    y1="-9.260618197379783"
    x2="14.128292338742591"
    y2="9.897343512566769"
    stroke="hsla(0,50%,50%,0.6)"
    stroke-width="1"
    transform="translate(-39.4052873687,-2.7140542781)"
    />
  
  <line
    x1="21.997983906874943"
    y1="-6.884160814234928"
    x2="14.128292338742591"
    y2="9.897343512566769"
    stroke="hsla(0,50%,50%,0.6)"
    stroke-width="1"
    transform="translate(-39.4052873687,-2.7140542781)"
    />
  
  <line
    x1="21.997983906874943"
    y1="-6.884160814234928"
    x2="13.302582275986735"
    y2="9.512052647467652"
    stroke="hsla(0,50%,50%,0.6)"
    stroke-width="1"
    transform="translate(-39.4052873687,-2.7140542781)"
    />
  
  <line
    x1="49.59051564971674"
    y1="8.34322368710427"
    x2="27.802924334833197"
    y2="16.27816776230545"
    stroke="hsla(0,50%,50%,0.6)"
    stroke-width="1"
    transform="translate(-39.4052873687,-2.7140542781)"
    />
  
  <line
    x1="55.871563916645634"
    y1="10.027689037349734"
    x2="30.448876732463233"
    y2="17.512815775303437"
    stroke="hsla(0,50%,50%,0.6)"
    stroke-width="1"
    transform="translate(-39.4052873687,-2.7140542781)"
    />
  
  <line
    x1="42.08834266212261"
    y1="11.173478461016042"
    x2="31.17749220838934"
    y2="17.852800595286404"
    stroke="hsla(0,50%,50%,0.6)"
    stroke-width="1"
    transform="translate(-39.4052873687,-2.7140542781)"
    />
  
  <line
    x1="55.87201727160071"
    y1="10.028899557201525"
    x2="32.87105885962146"
    y2="18.643048637048704"
    stroke="hsla(0,50%,50%,0.6)"
    stroke-width="1"
    transform="translate(-39.4052873687,-2.7140542781)"
    />
  
  <line
    x1="56.02707034339958"
    y1="26.016571074659936"
    x2="51.63079215422522"
    y2="26.188684180569968"
    stroke="hsla(0,50%,50%,0.6)"
    stroke-width="1"
    transform="translate(-39.4052873687,-2.7140542781)"
    />
  
  <line
    x1="65.50799246151561"
    y1="11.893266402156042"
    x2="54.27297931691387"
    y2="28.629561845149"
    stroke="hsla(0,50%,50%,0.6)"
    stroke-width="1"
    transform="translate(-39.4052873687,-2.7140542781)"
    />
  
  <line
    x1="55.23714148995504"
    y1="27.193292677032492"
    x2="52.175262302353374"
    y2="27.650730122333815"
    stroke="hsla(0,50%,50%,0.6)"
    stroke-width="1"
    transform="translate(-39.4052873687,-2.7140542781)"
    />
  
</svg>
