<?xml version="1.0"?>
<!DOCTYPE svg PUBLIC "-//W3C//DTD SVG 1.1//EN"
  "http://www.w3.org/Graphics/SVG/1.1/DTD/svg11.dtd">
<svg
  width="240"
  height="240"
  viewBox="-50 -50 200 200" xmlns="http://www.w3.org/2000/svg" version="1.1">
  <rect
    x="0"
    y="0"
    width="100"
    height="100"
    fill="hsla(206,100%,53%,0.3)"
    stroke="hsl(206,100%,53%)"
    stroke-width="3"
    transform="" />
  
  <path
    d="M 
      1.1176686258
      14.9768617911
      L
    
      101.0911237987
      17.3242551297
      L
    
      101.0026678523
      21.9838088496
      L
    
      100.9607833773
      21.9830137239
      L
    
      100
      56.3243006993
      L
    
      0
      54.9256993006
      L
    
      0
      19.6624258514
      L
    
      -0.5327552140
      19.6237195896
      L
    
      -0.5080051792
      18.7125111311
      L
    
      -0.7371896012
      18.6982804207
      L
    
      -0.6552822452
      16.2384368133
      L
    
      -0.5137950918
      16.2431480229
      L
    
      -0.4099271808
      15.1016272483
      L
    
      1.1116656508
      15.1914261695
      z
    "
    fill="hsla(0,0%,50%,0.3)"
    stroke="hsla(0,0%,50%,1)"
    stroke-width="1"
    transform="translate(-0.4971236185,-15.7055616084) scale(1,-1) translate(50,-110)"
    />
  
  
  <line
    x1="-0.6552822452217193"
    y1="16.238436813379256"
    x2="-0.7371896012145509"
    y2="18.698280420738882"
    stroke="hsla(0,50%,50%,0.6)"
    stroke-width="1"
    transform="translate(-0.4971236185,-15.7055616084) scale(1,-1) translate(50,-110)"
    />
  
  <line
    x1="0"
    y1="15.125819672131147"
    x2="0"
    y2="54.9256993006993"
    stroke="hsla(0,50%,50%,0.6)"
    stroke-width="1"
    transform="translate(-0.4971236185,-15.7055616084) scale(1,-1) translate(50,-110)"
    />
  
  <line
    x1="100"
    y1="21.027459016393443"
    x2="100"
    y2="56.3243006993007"
    stroke="hsla(0,50%,50%,0.6)"
    stroke-width="1"
    transform="translate(-0.4971236185,-15.7055616084) scale(1,-1) translate(50,-110)"
    />
  
  <line
    x1="-0.40992718085376917"
    y1="15.101627248343057"
    x2="-0.5327552140102476"
    y2="19.623719589614204"
    stroke="hsla(0,50%,50%,0.6)"
    stroke-width="1"
    transform="translate(-0.4971236185,-15.7055616084) scale(1,-1) translate(50,-110)"
    />
  
  <line
    x1="1.1176686258492339"
    y1="14.976861791105614"
    x2="1.0206821800940382"
    y2="20.085772749992564"
    stroke="hsla(0,50%,50%,0.6)"
    stroke-width="1"
    transform="translate(-0.4971236185,-15.7055616084) scale(1,-1) translate(50,-110)"
    />
  
  <line
    x1="1.1176686258492339"
    y1="14.976861791105614"
    x2="0"
    y2="54.9256993006993"
    stroke="hsla(0,50%,50%,0.6)"
    stroke-width="1"
    transform="translate(-0.4971236185,-15.7055616084) scale(1,-1) translate(50,-110)"
    />
  
  <line
    x1="-0.40992718085376917"
    y1="15.101627248343057"
    x2="-0.7371896012145509"
    y2="18.698280420738882"
    stroke="hsla(0,50%,50%,0.6)"
    stroke-width="1"
    transform="translate(-0.4971236185,-15.7055616084) scale(1,-1) translate(50,-110)"
    />
  
  <line
    x1="0"
    y1="15.125819672131147"
    x2="-0.5327552140102476"
    y2="19.623719589614204"
    stroke="hsla(0,50%,50%,0.6)"
    stroke-width="1"
    transform="translate(-0.4971236185,-15.7055616084) scale(1,-1) translate(50,-110)"
    />
  
  <line
    x1="101.09112379876692"
    y1="17.324255129738393"
    x2="101.00266785233602"
    y2="21.983808849648973"
    stroke="hsla(0,50%,50%,0.6)"
    stroke-width="1"
    transform="translate(-0.4971236185,-15.7055616084) scale(1,-1) translate(50,-110)"
    />
  
  <line
    x1="99.4668526548913"
    y1="20.995994582911617"
    x2="99.3071036974157"
    y2="26.877384348439634"
    stroke="hsla(0,50%,50%,0.6)"
    stroke-width="1"
    transform="translate(-0.4971236185,-15.7055616084) scale(1,-1) translate(50,-110)"
    />
  
  <line
    x1="101.09112379876692"
    y1="17.324255129738393"
    x2="100"
    y2="56.3243006993007"
    stroke="hsla(0,50%,50%,0.6)"
    stroke-width="1"
    transform="translate(-0.4971236185,-15.7055616084) scale(1,-1) translate(50,-110)"
    />
  
  <line
    x1="99.2421649156128"
    y1="20.982734322888625"
    x2="99.11178900955282"
    y2="24.898186545561035"
    stroke="hsla(0,50%,50%,0.6)"
    stroke-width="1"
    transform="translate(-0.4971236185,-15.7055616084) scale(1,-1) translate(50,-110)"
    />
  
  <line
    x1="99.2421649156128"
    y1="20.982734322888625"
    x2="99.12240227346855"
    y2="22.394812585595368"
    stroke="hsla(0,50%,50%,0.6)"
    stroke-width="1"
    transform="translate(-0.4971236185,-15.7055616084) scale(1,-1) translate(50,-110)"
    />
  
  <line
    x1="99.4668526548913"
    y1="20.995994582911617"
    x2="99.11178900955282"
    y2="24.898186545561035"
    stroke="hsla(0,50%,50%,0.6)"
    stroke-width="1"
    transform="translate(-0.4971236185,-15.7055616084) scale(1,-1) translate(50,-110)"
    />
  
  <line
    x1="100"
    y1="21.027459016393443"
    x2="99.3071036974157"
    y2="26.877384348439634"
    stroke="hsla(0,50%,50%,0.6)"
    stroke-width="1"
    transform="translate(-0.4971236185,-15.7055616084) scale(1,-1) translate(50,-110)"
    />
  
  <line
    x1="44.109572146622476"
    y1="17.729007536521983"
    x2="99.12240227346855"
    y2="22.394812585595368"
    stroke="hsla(0,50%,50%,0.6)"
    stroke-width="1"
    transform="translate(-0.4971236185,-15.7055616084) scale(1,-1) translate(50,-110)"
    />
  
  <line
    x1="1.1176686258492339"
    y1="14.976861791105614"
    x2="101.09112379876692"
    y2="17.324255129738393"
    stroke="hsla(0,50%,50%,0.6)"
    stroke-width="1"
    transform="translate(-0.4971236185,-15.7055616084) scale(1,-1) translate(50,-110)"
    />
  
  <line
    x1="-0.40992718085376917"
    y1="15.101627248343057"
    x2="100"
    y2="21.027459016393443"
    stroke="hsla(0,50%,50%,0.6)"
    stroke-width="1"
    transform="translate(-0.4971236185,-15.7055616084) scale(1,-1) translate(50,-110)"
    />
  
  <line
    x1="-0.6552822452217193"
    y1="16.238436813379256"
    x2="44.109572146622476"
    y2="17.729007536521983"
    stroke="hsla(0,50%,50%,0.6)"
    stroke-width="1"
    transform="translate(-0.4971236185,-15.7055616084) scale(1,-1) translate(50,-110)"
    />
  
  <line
    x1="-0.7371896012145509"
    y1="18.698280420738882"
    x2="99.11178900955282"
    y2="24.898186545561035"
    stroke="hsla(0,50%,50%,0.6)"
    stroke-width="1"
    transform="translate(-0.4971236185,-15.7055616084) scale(1,-1) translate(50,-110)"
    />
  
  <line
    x1="-0.5327552140102476"
    y1="19.623719589614204"
    x2="99.3071036974157"
    y2="26.877384348439634"
    stroke="hsla(0,50%,50%,0.6)"
    stroke-width="1"
    transform="translate(-0.4971236185,-15.7055616084) scale(1,-1) translate(50,-110)"
    />
  
  <line
    x1="1.0206821800940382"
    y1="20.085772749992564"
    x2="101.00266785233602"
    y2="21.983808849648973"
    stroke="hsla(0,50%,50%,0.6)"
    stroke-width="1"
    transform="translate(-0.4971236185,-15.7055616084) scale(1,-1) translate(50,-110)"
    />
  
  <line
    x1="0"
    y1="54.9256993006993"
    x2="100"
    y2="56.3243006993007"
    stroke="hsla(0,50%,50%,0.6)"
    stroke-width="1"
    transform="translate(-0.4971236185,-15.7055616084) scale(1,-1) translate(50,-110)"
    />
  
</svg>
