<?xml version="1.0"?>
<!DOCTYPE svg PUBLIC "-//W3C//DTD SVG 1.1//EN"
  "http://www.w3.org/Graphics/SVG/1.1/DTD/svg11.dtd">
<svg
  width="240"
  height="240"
  viewBox="-500 -500 1000 1000" xmlns="http://www.w3.org/2000/svg" version="1.1">
  <rect
    x="0"
    y="0"
    width="100"
    height="100"
    fill="hsla(206,100%,53%,0.3)"
    stroke="hsl(206,100%,53%)"
    stroke-width="3"
    transform="" />
  
  <path
    d="M 
      101.5693923581
      -1.9946403716
      L
    
      101.6850531793
      -1.8859509033
      L
    
      99.9252935046
      0
      L
    
      100
      0
      L
    
      100
      0.6211538923
      L
    
      101.1089620531
      0.6315085651
      L
    
      101.1021446646
      1.3616354681
      L
    
      76.7094859087
      24.8805981504
      L
    
      51.4183168316
      0
      L
    
      51.4102497903
      -0.4928632197
      z
    "
    fill="hsla(0,0%,50%,0.3)"
    stroke="hsla(0,0%,50%,1)"
    stroke-width="1"
    transform="translate(-76.5476514848,-11.4429788893)"
    />
  
  
  <line
    x1="101.56939235814389"
    y1="-1.9946403716775236"
    x2="101.68505317930016"
    y2="-1.8859509033322255"
    stroke="hsla(0,50%,50%,0.6)"
    stroke-width="1"
    transform="translate(-76.5476514848,-11.4429788893)"
    />
  
  <line
    x1="101.56779240460855"
    y1="-1.994592468672397"
    x2="101.68505317930016"
    y2="-1.8859509033322255"
    stroke="hsla(0,50%,50%,0.6)"
    stroke-width="1"
    transform="translate(-76.5476514848,-11.4429788893)"
    />
  
  <line
    x1="51.41831683168317"
    y1="0"
    x2="76.7094859087047"
    y2="24.880598150446506"
    stroke="hsla(0,50%,50%,0.6)"
    stroke-width="1"
    transform="translate(-76.5476514848,-11.4429788893)"
    />
  
  <line
    x1="51.410249790320655"
    y1="-0.4928632197155105"
    x2="51.432299790953685"
    y2="0.013755963178464243"
    stroke="hsla(0,50%,50%,0.6)"
    stroke-width="1"
    transform="translate(-76.5476514848,-11.4429788893)"
    />
  
  <line
    x1="51.99001773026721"
    y1="-0.5102216154351846"
    x2="52.03055801056261"
    y2="0.6023021987028261"
    stroke="hsla(0,50%,50%,0.6)"
    stroke-width="1"
    transform="translate(-76.5476514848,-11.4429788893)"
    />
  
  <line
    x1="51.57310238911508"
    y1="-0.4977390668589582"
    x2="51.59608774633058"
    y2="0.17488502317586294"
    stroke="hsla(0,50%,50%,0.6)"
    stroke-width="1"
    transform="translate(-76.5476514848,-11.4429788893)"
    />
  
  <line
    x1="51.83459054156231"
    y1="-0.5055680869089524"
    x2="51.86559392346262"
    y2="0.44001610002978486"
    stroke="hsla(0,50%,50%,0.6)"
    stroke-width="1"
    transform="translate(-76.5476514848,-11.4429788893)"
    />
  
  <line
    x1="51.83459054156231"
    y1="-0.5055680869089524"
    x2="51.86006222808763"
    y2="0.4345742049043847"
    stroke="hsla(0,50%,50%,0.6)"
    stroke-width="1"
    transform="translate(-76.5476514848,-11.4429788893)"
    />
  
  <line
    x1="51.432299790953685"
    y1="0.013755963178464243"
    x2="101.10214466465382"
    y2="1.3616354681036156"
    stroke="hsla(0,50%,50%,0.6)"
    stroke-width="1"
    transform="translate(-76.5476514848,-11.4429788893)"
    />
  
  <line
    x1="51.57310238911508"
    y1="-0.4977390668589582"
    x2="51.59024709720153"
    y2="0.16913918977942324"
    stroke="hsla(0,50%,50%,0.6)"
    stroke-width="1"
    transform="translate(-76.5476514848,-11.4429788893)"
    />
  
  <line
    x1="51.99001773026721"
    y1="-0.5102216154351846"
    x2="52.01575739822402"
    y2="0.5877418560450582"
    stroke="hsla(0,50%,50%,0.6)"
    stroke-width="1"
    transform="translate(-76.5476514848,-11.4429788893)"
    />
  
  <line
    x1="51.410249790320655"
    y1="-0.4928632197155105"
    x2="51.41831683168317"
    y2="0"
    stroke="hsla(0,50%,50%,0.6)"
    stroke-width="1"
    transform="translate(-76.5476514848,-11.4429788893)"
    />
  
  <line
    x1="51.59608774633058"
    y1="0.17488502317586294"
    x2="100.61166938155597"
    y2="1.0471174372800387"
    stroke="hsla(0,50%,50%,0.6)"
    stroke-width="1"
    transform="translate(-76.5476514848,-11.4429788893)"
    />
  
  <line
    x1="52.03055801056261"
    y1="0.6023021987028261"
    x2="100.87348657761804"
    y2="1.5821034814438504"
    stroke="hsla(0,50%,50%,0.6)"
    stroke-width="1"
    transform="translate(-76.5476514848,-11.4429788893)"
    />
  
  <line
    x1="51.86559392346262"
    y1="0.44001610002978486"
    x2="100.87902901736628"
    y2="1.244376926485967"
    stroke="hsla(0,50%,50%,0.6)"
    stroke-width="1"
    transform="translate(-76.5476514848,-11.4429788893)"
    />
  
  <line
    x1="51.59024709720153"
    y1="0.16913918977942324"
    x2="101.10896205319784"
    y2="0.631508565133694"
    stroke="hsla(0,50%,50%,0.6)"
    stroke-width="1"
    transform="translate(-76.5476514848,-11.4429788893)"
    />
  
  <line
    x1="51.86006222808763"
    y1="0.4345742049043847"
    x2="100"
    y2="0.950681279620853"
    stroke="hsla(0,50%,50%,0.6)"
    stroke-width="1"
    transform="translate(-76.5476514848,-11.4429788893)"
    />
  
  <line
    x1="51.41831683168317"
    y1="0"
    x2="100"
    y2="0"
    stroke="hsla(0,50%,50%,0.6)"
    stroke-width="1"
    transform="translate(-76.5476514848,-11.4429788893)"
    />
  
  <line
    x1="100"
    y1="0"
    x2="100"
    y2="0.950681279620853"
    stroke="hsla(0,50%,50%,0.6)"
    stroke-width="1"
    transform="translate(-76.5476514848,-11.4429788893)"
    />
  
  <line
    x1="52.01575739822402"
    y1="0.5877418560450582"
    x2="100.61248745378307"
    y2="0.9314508989451245"
    stroke="hsla(0,50%,50%,0.6)"
    stroke-width="1"
    transform="translate(-76.5476514848,-11.4429788893)"
    />
  
  <line
    x1="100.61248745378307"
    y1="0.9314508989451245"
    x2="100.61166938155597"
    y2="1.0471174372800387"
    stroke="hsla(0,50%,50%,0.6)"
    stroke-width="1"
    transform="translate(-76.5476514848,-11.4429788893)"
    />
  
  <line
    x1="101.10896205319784"
    y1="0.631508565133694"
    x2="101.10214466465382"
    y2="1.3616354681036156"
    stroke="hsla(0,50%,50%,0.6)"
    stroke-width="1"
    transform="translate(-76.5476514848,-11.4429788893)"
    />
  
  <line
    x1="101.56939235814389"
    y1="-1.9946403716775236"
    x2="51.410249790320655"
    y2="-0.4928632197155105"
    stroke="hsla(0,50%,50%,0.6)"
    stroke-width="1"
    transform="translate(-76.5476514848,-11.4429788893)"
    />
  
  <line
    x1="100.87902901736628"
    y1="1.244376926485967"
    x2="100.87348657761804"
    y2="1.5821034814438504"
    stroke="hsla(0,50%,50%,0.6)"
    stroke-width="1"
    transform="translate(-76.5476514848,-11.4429788893)"
    />
  
  <line
    x1="101.56939235814389"
    y1="-1.9946403716775236"
    x2="76.44490270364619"
    y2="24.6203101272883"
    stroke="hsla(0,50%,50%,0.6)"
    stroke-width="1"
    transform="translate(-76.5476514848,-11.4429788893)"
    />
  
  <line
    x1="101.56779240460855"
    y1="-1.994592468672397"
    x2="76.25955427051814"
    y2="24.437970597295443"
    stroke="hsla(0,50%,50%,0.6)"
    stroke-width="1"
    transform="translate(-76.5476514848,-11.4429788893)"
    />
  
  <line
    x1="101.68505317930016"
    y1="-1.8859509033322255"
    x2="76.7094859087047"
    y2="24.880598150446506"
    stroke="hsla(0,50%,50%,0.6)"
    stroke-width="1"
    transform="translate(-76.5476514848,-11.4429788893)"
    />
  
  <line
    x1="100"
    y1="0.950681279620853"
    x2="76.25955427051814"
    y2="24.437970597295443"
    stroke="hsla(0,50%,50%,0.6)"
    stroke-width="1"
    transform="translate(-76.5476514848,-11.4429788893)"
    />
  
  <line
    x1="100.61166938155597"
    y1="1.0471174372800387"
    x2="76.44490270364619"
    y2="24.6203101272883"
    stroke="hsla(0,50%,50%,0.6)"
    stroke-width="1"
    transform="translate(-76.5476514848,-11.4429788893)"
    />
  
  <line
    x1="101.10214466465382"
    y1="1.3616354681036156"
    x2="76.7094859087047"
    y2="24.880598150446506"
    stroke="hsla(0,50%,50%,0.6)"
    stroke-width="1"
    transform="translate(-76.5476514848,-11.4429788893)"
    />
  
</svg>
