<?xml version="1.0"?>
<!DOCTYPE svg PUBLIC "-//W3C//DTD SVG 1.1//EN"
  "http://www.w3.org/Graphics/SVG/1.1/DTD/svg11.dtd">
<svg
  width="240"
  height="240"
  viewBox="-50 -50 200 200" xmlns="http://www.w3.org/2000/svg" version="1.1">
  <rect
    x="0"
    y="0"
    width="100"
    height="100"
    fill="hsla(206,100%,53%,0.3)"
    stroke="hsl(206,100%,53%)"
    stroke-width="3"
    transform="" />
  
  <path
    d="M 
      49.0321979299
      -1.9916201098
      L
    
      49.0388490652
      -1.6637570461
      L
    
      50.3316927714
      -1.6720075023
      L
    
      50.3393310923
      -1.1621495862
      L
    
      52.1027191161
      -1.1675919993
      L
    
      52.1821969953
      24.5839154448
      L
    
      25.8003884679
      24.7791350969
      L
    
      25.4498237266
      -1.5132205040
      z
    "
    fill="hsla(0,0%,50%,0.3)"
    stroke="hsla(0,0%,50%,1)"
    stroke-width="1"
    transform="translate(-32.0799204003,-8.3471885270) scale(1,-1) translate(50,-110)"
    />
  
  
  <line
    x1="50.93094560966939"
    y1="-0.6790792747955919"
    x2="51.60485920036823"
    y2="24.5881876191396"
    stroke="hsla(0,50%,50%,0.6)"
    stroke-width="1"
    transform="translate(-32.0799204003,-8.3471885270) scale(1,-1) translate(50,-110)"
    />
  
  <line
    x1="50.33169277149999"
    y1="-1.6720075023757868"
    x2="25.449823726612898"
    y2="-1.5132205040325304"
    stroke="hsla(0,50%,50%,0.6)"
    stroke-width="1"
    transform="translate(-32.0799204003,-8.3471885270) scale(1,-1) translate(50,-110)"
    />
  
  <line
    x1="50.13521529381323"
    y1="-0.5600311937995925"
    x2="50.720771139792085"
    y2="24.29897358112154"
    stroke="hsla(0,50%,50%,0.6)"
    stroke-width="1"
    transform="translate(-32.0799204003,-8.3471885270) scale(1,-1) translate(50,-110)"
    />
  
  <line
    x1="52.10271911616714"
    y1="-1.1675919993219508"
    x2="25.455528670148972"
    y2="-1.0853497388271143"
    stroke="hsla(0,50%,50%,0.6)"
    stroke-width="1"
    transform="translate(-32.0799204003,-8.3471885270) scale(1,-1) translate(50,-110)"
    />
  
  <line
    x1="49.03219792997511"
    y1="-1.9916201098743531"
    x2="25.449823726612898"
    y2="-1.5132205040325304"
    stroke="hsla(0,50%,50%,0.6)"
    stroke-width="1"
    transform="translate(-32.0799204003,-8.3471885270) scale(1,-1) translate(50,-110)"
    />
  
  <line
    x1="49.03219792997511"
    y1="-1.9916201098743531"
    x2="49.57170963853863"
    y2="24.603232484228354"
    stroke="hsla(0,50%,50%,0.6)"
    stroke-width="1"
    transform="translate(-32.0799204003,-8.3471885270) scale(1,-1) translate(50,-110)"
    />
  
  <line
    x1="49.70779605473129"
    y1="-0.2105930083126075"
    x2="50.15676084058505"
    y2="24.5989032324261"
    stroke="hsla(0,50%,50%,0.6)"
    stroke-width="1"
    transform="translate(-32.0799204003,-8.3471885270) scale(1,-1) translate(50,-110)"
    />
  
  <line
    x1="50.33169277149999"
    y1="-1.6720075023757868"
    x2="50.720771139792085"
    y2="24.29897358112154"
    stroke="hsla(0,50%,50%,0.6)"
    stroke-width="1"
    transform="translate(-32.0799204003,-8.3471885270) scale(1,-1) translate(50,-110)"
    />
  
  <line
    x1="51.89542445144617"
    y1="0.10169448776374707"
    x2="52.18219699536985"
    y2="24.583915444873863"
    stroke="hsla(0,50%,50%,0.6)"
    stroke-width="1"
    transform="translate(-32.0799204003,-8.3471885270) scale(1,-1) translate(50,-110)"
    />
  
  <line
    x1="50.33169277149999"
    y1="-1.6720075023757868"
    x2="25.455528670148972"
    y2="-1.0853497388271143"
    stroke="hsla(0,50%,50%,0.6)"
    stroke-width="1"
    transform="translate(-32.0799204003,-8.3471885270) scale(1,-1) translate(50,-110)"
    />
  
  <line
    x1="25.449823726612898"
    y1="-1.5132205040325304"
    x2="25.80038846795942"
    y2="24.779135096956466"
    stroke="hsla(0,50%,50%,0.6)"
    stroke-width="1"
    transform="translate(-32.0799204003,-8.3471885270) scale(1,-1) translate(50,-110)"
    />
  
  <line
    x1="52.10271911616714"
    y1="-1.1675919993219508"
    x2="52.18219699536985"
    y2="24.583915444873863"
    stroke="hsla(0,50%,50%,0.6)"
    stroke-width="1"
    transform="translate(-32.0799204003,-8.3471885270) scale(1,-1) translate(50,-110)"
    />
  
  <line
    x1="25.47"
    y1="0"
    x2="50.35674157303371"
    y2="0"
    stroke="hsla(0,50%,50%,0.6)"
    stroke-width="1"
    transform="translate(-32.0799204003,-8.3471885270) scale(1,-1) translate(50,-110)"
    />
  
  <line
    x1="25.471329004779072"
    y1="0.09967535843040531"
    x2="51.89542445144617"
    y2="0.10169448776374707"
    stroke="hsla(0,50%,50%,0.6)"
    stroke-width="1"
    transform="translate(-32.0799204003,-8.3471885270) scale(1,-1) translate(50,-110)"
    />
  
  <line
    x1="49.70779605473129"
    y1="-0.2105930083126075"
    x2="25.469229819523342"
    y2="-0.05776353574936628"
    stroke="hsla(0,50%,50%,0.6)"
    stroke-width="1"
    transform="translate(-32.0799204003,-8.3471885270) scale(1,-1) translate(50,-110)"
    />
  
  <line
    x1="50.23509437573002"
    y1="0.8271135910129856"
    x2="50.15676084058505"
    y2="24.5989032324261"
    stroke="hsla(0,50%,50%,0.6)"
    stroke-width="1"
    transform="translate(-32.0799204003,-8.3471885270) scale(1,-1) translate(50,-110)"
    />
  
  <line
    x1="49.70779605473129"
    y1="-0.2105930083126075"
    x2="49.57170963853863"
    y2="24.603232484228354"
    stroke="hsla(0,50%,50%,0.6)"
    stroke-width="1"
    transform="translate(-32.0799204003,-8.3471885270) scale(1,-1) translate(50,-110)"
    />
  
  <line
    x1="50.13521529381323"
    y1="-0.5600311937995925"
    x2="25.469229819523342"
    y2="-0.05776353574936628"
    stroke="hsla(0,50%,50%,0.6)"
    stroke-width="1"
    transform="translate(-32.0799204003,-8.3471885270) scale(1,-1) translate(50,-110)"
    />
  
  <line
    x1="51.89542445144617"
    y1="0.10169448776374707"
    x2="51.60485920036823"
    y2="24.5881876191396"
    stroke="hsla(0,50%,50%,0.6)"
    stroke-width="1"
    transform="translate(-32.0799204003,-8.3471885270) scale(1,-1) translate(50,-110)"
    />
  
  <line
    x1="25.479940528583697"
    y1="0.7455396437773802"
    x2="50.23509437573002"
    y2="0.8271135910129856"
    stroke="hsla(0,50%,50%,0.6)"
    stroke-width="1"
    transform="translate(-32.0799204003,-8.3471885270) scale(1,-1) translate(50,-110)"
    />
  
  <line
    x1="50.93094560966939"
    y1="-0.6790792747955919"
    x2="25.47"
    y2="0"
    stroke="hsla(0,50%,50%,0.6)"
    stroke-width="1"
    transform="translate(-32.0799204003,-8.3471885270) scale(1,-1) translate(50,-110)"
    />
  
  <line
    x1="50.13521529381323"
    y1="-0.5600311937995925"
    x2="25.471329004779072"
    y2="0.09967535843040531"
    stroke="hsla(0,50%,50%,0.6)"
    stroke-width="1"
    transform="translate(-32.0799204003,-8.3471885270) scale(1,-1) translate(50,-110)"
    />
  
  <line
    x1="50.35674157303371"
    y1="0"
    x2="25.479940528583697"
    y2="0.7455396437773802"
    stroke="hsla(0,50%,50%,0.6)"
    stroke-width="1"
    transform="translate(-32.0799204003,-8.3471885270) scale(1,-1) translate(50,-110)"
    />
  
  <line
    x1="52.18219699536985"
    y1="24.583915444873863"
    x2="25.80038846795942"
    y2="24.779135096956466"
    stroke="hsla(0,50%,50%,0.6)"
    stroke-width="1"
    transform="translate(-32.0799204003,-8.3471885270) scale(1,-1) translate(50,-110)"
    />
  
  <line
    x1="50.720771139792085"
    y1="24.29897358112154"
    x2="25.80038846795942"
    y2="24.779135096956466"
    stroke="hsla(0,50%,50%,0.6)"
    stroke-width="1"
    transform="translate(-32.0799204003,-8.3471885270) scale(1,-1) translate(50,-110)"
    />
  
</svg>
