<?xml version="1.0"?>
<!DOCTYPE svg PUBLIC "-//W3C//DTD SVG 1.1//EN"
  "http://www.w3.org/Graphics/SVG/1.1/DTD/svg11.dtd">
<svg
  width="240"
  height="240"
  viewBox="-500 -500 1000 1000" xmlns="http://www.w3.org/2000/svg" version="1.1">
  <rect
    x="0"
    y="0"
    width="100"
    height="100"
    fill="hsla(206,100%,53%,0.3)"
    stroke="hsl(206,100%,53%)"
    stroke-width="3"
    transform="" />
  
  <path
    d="M 
      58.1999237343
      19.9906651422
      L
    
      59.7090116034
      22.9147329509
      L
    
      59.8184033179
      22.7677340792
      L
    
      59.8340066482
      22.0533277133
      L
    
      60.3417878485
      22.0644181489
      L
    
      76.8235236407
      55.7871981728
      L
    
      81.3305019414
      59.1406428193
      L
    
      79.9308499369
      61.0217537002
      L
    
      79.4901004127
      61.2432000790
      L
    
      79.4914462735
      61.2459538040
      L
    
      41.1384692907
      80.5122619136
      L
    
      19.9612215783
      38.3589754932
      L
    
      39.5696828117
      28.0682510745
      L
    
      40.2815497345
      28.5979199928
      z
    "
    fill="hsla(0,0%,50%,0.3)"
    stroke="hsla(0,0%,50%,1)"
    stroke-width="1"
    transform="translate(-50.6458617599,-50.2514635279)"
    />
  
  
  <line
    x1="60.341787848556756"
    y1="22.06441814891809"
    x2="79.49144627357175"
    y2="61.24595380402543"
    stroke="hsla(0,50%,50%,0.6)"
    stroke-width="1"
    transform="translate(-50.6458617599,-50.2514635279)"
    />
  
  <line
    x1="58.19992373431527"
    y1="19.99066514221444"
    x2="79.49144627357175"
    y2="61.24595380402543"
    stroke="hsla(0,50%,50%,0.6)"
    stroke-width="1"
    transform="translate(-50.6458617599,-50.2514635279)"
    />
  
  <line
    x1="39.56968281170722"
    y1="28.0682510745451"
    x2="41.270817193466335"
    y2="75.98559509305652"
    stroke="hsla(0,50%,50%,0.6)"
    stroke-width="1"
    transform="translate(-50.6458617599,-50.2514635279)"
    />
  
  <line
    x1="39.56968281170722"
    y1="28.0682510745451"
    x2="81.33050194147711"
    y2="59.14064281937725"
    stroke="hsla(0,50%,50%,0.6)"
    stroke-width="1"
    transform="translate(-50.6458617599,-50.2514635279)"
    />
  
  <line
    x1="19.961221578342034"
    y1="38.35897549323189"
    x2="41.13846929075348"
    y2="80.5122619136613"
    stroke="hsla(0,50%,50%,0.6)"
    stroke-width="1"
    transform="translate(-50.6458617599,-50.2514635279)"
    />
  
  <line
    x1="24.623543891679578"
    y1="38.99621817772096"
    x2="24.44320216803107"
    y2="47.28035253399059"
    stroke="hsla(0,50%,50%,0.6)"
    stroke-width="1"
    transform="translate(-50.6458617599,-50.2514635279)"
    />
  
  <line
    x1="59.83400664821931"
    y1="22.053327713328876"
    x2="58.75043875857751"
    y2="71.66503134961387"
    stroke="hsla(0,50%,50%,0.6)"
    stroke-width="1"
    transform="translate(-50.6458617599,-50.2514635279)"
    />
  
  <line
    x1="24.44320216803107"
    y1="47.28035253399059"
    x2="58.75043875857751"
    y2="71.66503134961387"
    stroke="hsla(0,50%,50%,0.6)"
    stroke-width="1"
    transform="translate(-50.6458617599,-50.2514635279)"
    />
  
  <line
    x1="59.83400664821931"
    y1="22.053327713328876"
    x2="60.341787848556756"
    y2="22.06441814891809"
    stroke="hsla(0,50%,50%,0.6)"
    stroke-width="1"
    transform="translate(-50.6458617599,-50.2514635279)"
    />
  
  <line
    x1="24.43959214792917"
    y1="38.992213634444695"
    x2="21.839724201456487"
    y2="42.098132733540474"
    stroke="hsla(0,50%,50%,0.6)"
    stroke-width="1"
    transform="translate(-50.6458617599,-50.2514635279)"
    />
  
  <line
    x1="60.341787848556756"
    y1="22.06441814891809"
    x2="31.348441318353977"
    y2="61.02522286171171"
    stroke="hsla(0,50%,50%,0.6)"
    stroke-width="1"
    transform="translate(-50.6458617599,-50.2514635279)"
    />
  
  <line
    x1="39.56968281170722"
    y1="28.0682510745451"
    x2="19.961221578342034"
    y2="38.35897549323189"
    stroke="hsla(0,50%,50%,0.6)"
    stroke-width="1"
    transform="translate(-50.6458617599,-50.2514635279)"
    />
  
  <line
    x1="24.43959214792917"
    y1="38.992213634444695"
    x2="24.623543891679578"
    y2="38.99621817772096"
    stroke="hsla(0,50%,50%,0.6)"
    stroke-width="1"
    transform="translate(-50.6458617599,-50.2514635279)"
    />
  
  <line
    x1="58.19992373431527"
    y1="19.99066514221444"
    x2="19.961221578342034"
    y2="38.35897549323189"
    stroke="hsla(0,50%,50%,0.6)"
    stroke-width="1"
    transform="translate(-50.6458617599,-50.2514635279)"
    />
  
  <line
    x1="58.19992373431527"
    y1="19.99066514221444"
    x2="21.051788200567156"
    y2="40.529747059561224"
    stroke="hsla(0,50%,50%,0.6)"
    stroke-width="1"
    transform="translate(-50.6458617599,-50.2514635279)"
    />
  
  <line
    x1="24.43959214792917"
    y1="38.992213634444695"
    x2="21.051788200567156"
    y2="40.529747059561224"
    stroke="hsla(0,50%,50%,0.6)"
    stroke-width="1"
    transform="translate(-50.6458617599,-50.2514635279)"
    />
  
  <line
    x1="68.23698156781009"
    y1="39.43886183517769"
    x2="21.839724201456487"
    y2="42.098132733540474"
    stroke="hsla(0,50%,50%,0.6)"
    stroke-width="1"
    transform="translate(-50.6458617599,-50.2514635279)"
    />
  
  <line
    x1="68.23698156781009"
    y1="39.43886183517769"
    x2="38.90650101207034"
    y2="76.06953170573622"
    stroke="hsla(0,50%,50%,0.6)"
    stroke-width="1"
    transform="translate(-50.6458617599,-50.2514635279)"
    />
  
  <line
    x1="81.33050194147711"
    y1="59.14064281937725"
    x2="79.93084993697241"
    y2="61.02175370021126"
    stroke="hsla(0,50%,50%,0.6)"
    stroke-width="1"
    transform="translate(-50.6458617599,-50.2514635279)"
    />
  
  <line
    x1="79.93084993697241"
    y1="61.02175370021126"
    x2="31.348441318353977"
    y2="61.02522286171171"
    stroke="hsla(0,50%,50%,0.6)"
    stroke-width="1"
    transform="translate(-50.6458617599,-50.2514635279)"
    />
  
  <line
    x1="41.270817193466335"
    y1="75.98559509305652"
    x2="38.90650101207034"
    y2="76.06953170573622"
    stroke="hsla(0,50%,50%,0.6)"
    stroke-width="1"
    transform="translate(-50.6458617599,-50.2514635279)"
    />
  
  <line
    x1="79.93084993697241"
    y1="61.02175370021126"
    x2="41.13846929075348"
    y2="80.5122619136613"
    stroke="hsla(0,50%,50%,0.6)"
    stroke-width="1"
    transform="translate(-50.6458617599,-50.2514635279)"
    />
  
  <line
    x1="79.49144627357175"
    y1="61.24595380402543"
    x2="41.13846929075348"
    y2="80.5122619136613"
    stroke="hsla(0,50%,50%,0.6)"
    stroke-width="1"
    transform="translate(-50.6458617599,-50.2514635279)"
    />
  
</svg>
