<?xml version="1.0"?>
<!DOCTYPE svg PUBLIC "-//W3C//DTD SVG 1.1//EN"
  "http://www.w3.org/Graphics/SVG/1.1/DTD/svg11.dtd">
<svg
  width="240"
  height="240"
  viewBox="-50 -50 200 200" xmlns="http://www.w3.org/2000/svg" version="1.1">
  <rect
    x="0"
    y="0"
    width="100"
    height="100"
    fill="hsla(206,100%,53%,0.3)"
    stroke="hsl(206,100%,53%)"
    stroke-width="3"
    transform="" />
  
  <path
    d="M 
      45.2151772532
      23.2209234569
      L
    
      72.6054048713
      23.7243713255
      L
    
      72.0334932039
      74.0525980560
      L
    
      71.5073271326
      74.0496486946
      L
    
      71.4893711632
      74.6749860923
      L
    
      44.3136072636
      74.0470914205
      L
    
      44.3219448347
      73.5781030470
      L
    
      44.0706458962
      73.5738001444
      L
    
      44.3676352942
      47.7848711628
      L
    
      44.6567579321
      47.7882007449
      z
    "
    fill="hsla(0,0%,50%,0.3)"
    stroke="hsla(0,0%,50%,1)"
    stroke-width="1"
    transform="translate(-45.2712118807,-54.0759137567) scale(1,-1) translate(50,-110)"
    />
  
  
  <line
    x1="72.26290383954736"
    y1="24.447961229169014"
    x2="72.37816061787642"
    y2="43.721865626874624"
    stroke="hsla(0,50%,50%,0.6)"
    stroke-width="1"
    transform="translate(-45.2712118807,-54.0759137567) scale(1,-1) translate(50,-110)"
    />
  
  <line
    x1="72.26290383954736"
    y1="24.447961229169014"
    x2="72.19933223557011"
    y2="47.8565705596541"
    stroke="hsla(0,50%,50%,0.6)"
    stroke-width="1"
    transform="translate(-45.2712118807,-54.0759137567) scale(1,-1) translate(50,-110)"
    />
  
  <line
    x1="44.36763529425616"
    y1="47.784871162826"
    x2="44.07064589623857"
    y2="73.57380014445889"
    stroke="hsla(0,50%,50%,0.6)"
    stroke-width="1"
    transform="translate(-45.2712118807,-54.0759137567) scale(1,-1) translate(50,-110)"
    />
  
  <line
    x1="45.21517725320684"
    y1="23.220923456928734"
    x2="44.88064760699148"
    y2="47.062054837221126"
    stroke="hsla(0,50%,50%,0.6)"
    stroke-width="1"
    transform="translate(-45.2712118807,-54.0759137567) scale(1,-1) translate(50,-110)"
    />
  
  <line
    x1="45.21035089075241"
    y1="23.605262395177185"
    x2="44.31360726363463"
    y2="74.04709142055225"
    stroke="hsla(0,50%,50%,0.6)"
    stroke-width="1"
    transform="translate(-45.2712118807,-54.0759137567) scale(1,-1) translate(50,-110)"
    />
  
  <line
    x1="72.60540487130082"
    y1="23.724371325527393"
    x2="72.03349320390824"
    y2="74.05259805607572"
    stroke="hsla(0,50%,50%,0.6)"
    stroke-width="1"
    transform="translate(-45.2712118807,-54.0759137567) scale(1,-1) translate(50,-110)"
    />
  
  <line
    x1="45.21517725320684"
    y1="23.220923456928734"
    x2="44.07064589623857"
    y2="73.57380014445889"
    stroke="hsla(0,50%,50%,0.6)"
    stroke-width="1"
    transform="translate(-45.2712118807,-54.0759137567) scale(1,-1) translate(50,-110)"
    />
  
  <line
    x1="53.94560551434929"
    y1="23.877925885915655"
    x2="52.8796621986809"
    y2="74.1537526288877"
    stroke="hsla(0,50%,50%,0.6)"
    stroke-width="1"
    transform="translate(-45.2712118807,-54.0759137567) scale(1,-1) translate(50,-110)"
    />
  
  <line
    x1="71.9503751280388"
    y1="48.32784181671519"
    x2="71.48937116321987"
    y2="74.67498609239372"
    stroke="hsla(0,50%,50%,0.6)"
    stroke-width="1"
    transform="translate(-45.2712118807,-54.0759137567) scale(1,-1) translate(50,-110)"
    />
  
  <line
    x1="72.37816061787642"
    y1="43.721865626874624"
    x2="71.48937116321987"
    y2="74.67498609239372"
    stroke="hsla(0,50%,50%,0.6)"
    stroke-width="1"
    transform="translate(-45.2712118807,-54.0759137567) scale(1,-1) translate(50,-110)"
    />
  
  <line
    x1="45.21035089075241"
    y1="23.605262395177185"
    x2="53.94560551434929"
    y2="23.877925885915655"
    stroke="hsla(0,50%,50%,0.6)"
    stroke-width="1"
    transform="translate(-45.2712118807,-54.0759137567) scale(1,-1) translate(50,-110)"
    />
  
  <line
    x1="45.21517725320684"
    y1="23.220923456928734"
    x2="72.60540487130082"
    y2="23.724371325527393"
    stroke="hsla(0,50%,50%,0.6)"
    stroke-width="1"
    transform="translate(-45.2712118807,-54.0759137567) scale(1,-1) translate(50,-110)"
    />
  
  <line
    x1="45.207242499546304"
    y1="23.780109400520352"
    x2="72.5971884584885"
    y2="24.44741565301111"
    stroke="hsla(0,50%,50%,0.6)"
    stroke-width="1"
    transform="translate(-45.2712118807,-54.0759137567) scale(1,-1) translate(50,-110)"
    />
  
  <line
    x1="45.207242499546304"
    y1="23.780109400520352"
    x2="53.94560551434929"
    y2="23.877925885915655"
    stroke="hsla(0,50%,50%,0.6)"
    stroke-width="1"
    transform="translate(-45.2712118807,-54.0759137567) scale(1,-1) translate(50,-110)"
    />
  
  <line
    x1="45.21035089075241"
    y1="23.605262395177185"
    x2="72.60540487130082"
    y2="23.724371325527393"
    stroke="hsla(0,50%,50%,0.6)"
    stroke-width="1"
    transform="translate(-45.2712118807,-54.0759137567) scale(1,-1) translate(50,-110)"
    />
  
  <line
    x1="72.5971884584885"
    y1="24.44741565301111"
    x2="72.26290383954736"
    y2="24.447961229169014"
    stroke="hsla(0,50%,50%,0.6)"
    stroke-width="1"
    transform="translate(-45.2712118807,-54.0759137567) scale(1,-1) translate(50,-110)"
    />
  
  <line
    x1="44.79075078239752"
    y1="47.207768490139756"
    x2="53.44603887040631"
    y2="47.440272652634924"
    stroke="hsla(0,50%,50%,0.6)"
    stroke-width="1"
    transform="translate(-45.2712118807,-54.0759137567) scale(1,-1) translate(50,-110)"
    />
  
  <line
    x1="44.789009407982576"
    y1="47.305720800980254"
    x2="72.33117126591296"
    y2="47.85692859966013"
    stroke="hsla(0,50%,50%,0.6)"
    stroke-width="1"
    transform="translate(-45.2712118807,-54.0759137567) scale(1,-1) translate(50,-110)"
    />
  
  <line
    x1="44.88064760699148"
    y1="47.062054837221126"
    x2="72.33582618848983"
    y2="47.44729541289448"
    stroke="hsla(0,50%,50%,0.6)"
    stroke-width="1"
    transform="translate(-45.2712118807,-54.0759137567) scale(1,-1) translate(50,-110)"
    />
  
  <line
    x1="44.789009407982576"
    y1="47.305720800980254"
    x2="53.44603887040631"
    y2="47.440272652634924"
    stroke="hsla(0,50%,50%,0.6)"
    stroke-width="1"
    transform="translate(-45.2712118807,-54.0759137567) scale(1,-1) translate(50,-110)"
    />
  
  <line
    x1="44.78025730915213"
    y1="47.79802636019305"
    x2="53.433986919083964"
    y2="48.0087098365738"
    stroke="hsla(0,50%,50%,0.6)"
    stroke-width="1"
    transform="translate(-45.2712118807,-54.0759137567) scale(1,-1) translate(50,-110)"
    />
  
  <line
    x1="44.79075078239752"
    y1="47.207768490139756"
    x2="72.33582618848983"
    y2="47.44729541289448"
    stroke="hsla(0,50%,50%,0.6)"
    stroke-width="1"
    transform="translate(-45.2712118807,-54.0759137567) scale(1,-1) translate(50,-110)"
    />
  
  <line
    x1="44.77929029130133"
    y1="47.85242111430039"
    x2="53.433986919083964"
    y2="48.0087098365738"
    stroke="hsla(0,50%,50%,0.6)"
    stroke-width="1"
    transform="translate(-45.2712118807,-54.0759137567) scale(1,-1) translate(50,-110)"
    />
  
  <line
    x1="44.77929029130133"
    y1="47.85242111430039"
    x2="71.9503751280388"
    y2="48.32784181671519"
    stroke="hsla(0,50%,50%,0.6)"
    stroke-width="1"
    transform="translate(-45.2712118807,-54.0759137567) scale(1,-1) translate(50,-110)"
    />
  
  <line
    x1="44.36763529425616"
    y1="47.784871162826"
    x2="72.32833101169135"
    y2="48.106870971161904"
    stroke="hsla(0,50%,50%,0.6)"
    stroke-width="1"
    transform="translate(-45.2712118807,-54.0759137567) scale(1,-1) translate(50,-110)"
    />
  
  <line
    x1="44.78025730915213"
    y1="47.79802636019305"
    x2="72.32833101169135"
    y2="48.106870971161904"
    stroke="hsla(0,50%,50%,0.6)"
    stroke-width="1"
    transform="translate(-45.2712118807,-54.0759137567) scale(1,-1) translate(50,-110)"
    />
  
  <line
    x1="72.19933223557011"
    y1="47.8565705596541"
    x2="72.33117126591296"
    y2="47.85692859966013"
    stroke="hsla(0,50%,50%,0.6)"
    stroke-width="1"
    transform="translate(-45.2712118807,-54.0759137567) scale(1,-1) translate(50,-110)"
    />
  
  <line
    x1="44.31627142287764"
    y1="73.89723246313272"
    x2="52.8796621986809"
    y2="74.1537526288877"
    stroke="hsla(0,50%,50%,0.6)"
    stroke-width="1"
    transform="translate(-45.2712118807,-54.0759137567) scale(1,-1) translate(50,-110)"
    />
  
  <line
    x1="44.07064589623857"
    y1="73.57380014445889"
    x2="72.03349320390824"
    y2="74.05259805607572"
    stroke="hsla(0,50%,50%,0.6)"
    stroke-width="1"
    transform="translate(-45.2712118807,-54.0759137567) scale(1,-1) translate(50,-110)"
    />
  
  <line
    x1="44.31360726363463"
    y1="74.04709142055225"
    x2="71.48937116321987"
    y2="74.67498609239372"
    stroke="hsla(0,50%,50%,0.6)"
    stroke-width="1"
    transform="translate(-45.2712118807,-54.0759137567) scale(1,-1) translate(50,-110)"
    />
  
  <line
    x1="44.31360726363463"
    y1="74.04709142055225"
    x2="52.8796621986809"
    y2="74.1537526288877"
    stroke="hsla(0,50%,50%,0.6)"
    stroke-width="1"
    transform="translate(-45.2712118807,-54.0759137567) scale(1,-1) translate(50,-110)"
    />
  
  <line
    x1="44.31627142287764"
    y1="73.89723246313272"
    x2="72.03349320390824"
    y2="74.05259805607572"
    stroke="hsla(0,50%,50%,0.6)"
    stroke-width="1"
    transform="translate(-45.2712118807,-54.0759137567) scale(1,-1) translate(50,-110)"
    />
  
</svg>
