<?xml version="1.0"?>
<!DOCTYPE svg PUBLIC "-//W3C//DTD SVG 1.1//EN"
  "http://www.w3.org/Graphics/SVG/1.1/DTD/svg11.dtd">
<svg
  width="240"
  height="240"
  viewBox="-500 -500 1000 1000" xmlns="http://www.w3.org/2000/svg" version="1.1">
  <rect
    x="0"
    y="0"
    width="100"
    height="100"
    fill="hsla(206,100%,53%,0.3)"
    stroke="hsl(206,100%,53%)"
    stroke-width="3"
    transform="" />
  
  <path
    d="M 
      27.1068316221
      -52.5075854069
      L
    
      35.1692189335
      -2.8709769341
      L
    
      -27.4335876728
      7.9414391668
      L
    
      -31.7211313537
      -16.2552530589
      L
    
      -32.0063857250
      -16.2079991753
      L
    
      -36.2212997065
      -41.6518896178
      L
    
      -8.1378050361
      -46.4659567384
      L
    
      -8.2292317804
      -47.0848351014
      z
    "
    fill="hsla(0,0%,50%,0.3)"
    stroke="hsla(0,0%,50%,1)"
    stroke-width="1"
    transform="translate(0.5260403864,22.2830731200)"
    />
  
  
  <line
    x1="27.106831622178728"
    y1="-52.50758540696957"
    x2="-8.229231780402195"
    y2="-47.08483510148718"
    stroke="hsla(0,50%,50%,0.6)"
    stroke-width="1"
    transform="translate(0.5260403864,22.2830731200)"
    />
  
  <line
    x1="27.106831622178728"
    y1="-52.50758540696957"
    x2="-36.22129970651453"
    y2="-41.65188961788933"
    stroke="hsla(0,50%,50%,0.6)"
    stroke-width="1"
    transform="translate(0.5260403864,22.2830731200)"
    />
  
  <line
    x1="31.299531671467342"
    y1="-26.694956621735972"
    x2="-4.086181280461309"
    y2="-21.06139050447163"
    stroke="hsla(0,50%,50%,0.6)"
    stroke-width="1"
    transform="translate(0.5260403864,22.2830731200)"
    />
  
  <line
    x1="31.299531671467342"
    y1="-26.694956621735972"
    x2="-32.00638572509924"
    y2="-16.20799917535854"
    stroke="hsla(0,50%,50%,0.6)"
    stroke-width="1"
    transform="translate(0.5260403864,22.2830731200)"
    />
  
  <line
    x1="31.39068801907977"
    y1="-26.133746677147492"
    x2="-4.509224235223839"
    y2="-20.510859321396698"
    stroke="hsla(0,50%,50%,0.6)"
    stroke-width="1"
    transform="translate(0.5260403864,22.2830731200)"
    />
  
  <line
    x1="31.39068801907977"
    y1="-26.133746677147492"
    x2="-31.38942980610728"
    y2="-15.5715948482207"
    stroke="hsla(0,50%,50%,0.6)"
    stroke-width="1"
    transform="translate(0.5260403864,22.2830731200)"
    />
  
  <line
    x1="27.106831622178728"
    y1="-52.50758540696957"
    x2="35.16921893352223"
    y2="-2.8709769341553897"
    stroke="hsla(0,50%,50%,0.6)"
    stroke-width="1"
    transform="translate(0.5260403864,22.2830731200)"
    />
  
  <line
    x1="-8.229231780402195"
    y1="-47.08483510148718"
    x2="-4.086181280461309"
    y2="-21.06139050447163"
    stroke="hsla(0,50%,50%,0.6)"
    stroke-width="1"
    transform="translate(0.5260403864,22.2830731200)"
    />
  
  <line
    x1="-8.229231780402195"
    y1="-47.08483510148718"
    x2="-0.8869572367321737"
    y2="2.61588307626372"
    stroke="hsla(0,50%,50%,0.6)"
    stroke-width="1"
    transform="translate(0.5260403864,22.2830731200)"
    />
  
  <line
    x1="-4.509224235223839"
    y1="-20.510859321396698"
    x2="-0.8869572367321737"
    y2="2.61588307626372"
    stroke="hsla(0,50%,50%,0.6)"
    stroke-width="1"
    transform="translate(0.5260403864,22.2830731200)"
    />
  
  <line
    x1="35.16921893352223"
    y1="-2.8709769341553897"
    x2="-0.8869572367321737"
    y2="2.61588307626372"
    stroke="hsla(0,50%,50%,0.6)"
    stroke-width="1"
    transform="translate(0.5260403864,22.2830731200)"
    />
  
  <line
    x1="35.16921893352223"
    y1="-2.8709769341553897"
    x2="-27.433587672818426"
    y2="7.941439166832656"
    stroke="hsla(0,50%,50%,0.6)"
    stroke-width="1"
    transform="translate(0.5260403864,22.2830731200)"
    />
  
  <line
    x1="-31.38942980610728"
    y1="-15.5715948482207"
    x2="-27.433587672818426"
    y2="7.941439166832656"
    stroke="hsla(0,50%,50%,0.6)"
    stroke-width="1"
    transform="translate(0.5260403864,22.2830731200)"
    />
  
  <line
    x1="-36.22129970651453"
    y1="-41.65188961788933"
    x2="-32.00638572509924"
    y2="-16.20799917535854"
    stroke="hsla(0,50%,50%,0.6)"
    stroke-width="1"
    transform="translate(0.5260403864,22.2830731200)"
    />
  
  <line
    x1="-36.22129970651453"
    y1="-41.65188961788933"
    x2="-27.433587672818426"
    y2="7.941439166832656"
    stroke="hsla(0,50%,50%,0.6)"
    stroke-width="1"
    transform="translate(0.5260403864,22.2830731200)"
    />
  
</svg>
