<?xml version="1.0"?>
<!DOCTYPE svg PUBLIC "-//W3C//DTD SVG 1.1//EN"
  "http://www.w3.org/Graphics/SVG/1.1/DTD/svg11.dtd">
<svg
  width="240"
  height="240"
  viewBox="-50 -50 200 200" xmlns="http://www.w3.org/2000/svg" version="1.1">
  <rect
    x="0"
    y="0"
    width="100"
    height="100"
    fill="hsla(206,100%,53%,0.3)"
    stroke="hsl(206,100%,53%)"
    stroke-width="3"
    transform="" />
  
  <path
    d="M 
      -0.0441885024
      0.5094413368
      L
    
      100.1400302623
      1.3477016393
      L
    
      100.2602826593
      19.4210437284
      L
    
      99.9601928004
      19.4230403998
      L
    
      99.9571765688
      19.7394916323
      L
    
      -0.3602569507
      19.3782043567
      L
    
      -0.4094010765
      14.2304744681
      L
    
      -0.2740062759
      14.2291818869
      z
    "
    fill="hsla(0,0%,50%,0.3)"
    stroke="hsla(0,0%,50%,1)"
    stroke-width="1"
    transform="translate(-11.4352597149,-15.2531360823) scale(1,-1) translate(50,-110)"
    />
  
  
  <line
    x1="99.58604220659015"
    y1="13.275842280636802"
    x2="99.64773845647187"
    y2="19.73837720932703"
    stroke="hsla(0,50%,50%,0.6)"
    stroke-width="1"
    transform="translate(-11.4352597149,-15.2531360823) scale(1,-1) translate(50,-110)"
    />
  
  <line
    x1="100.14003026231312"
    y1="1.3477016393649162"
    x2="100.26028265937443"
    y2="19.42104372849187"
    stroke="hsla(0,50%,50%,0.6)"
    stroke-width="1"
    transform="translate(-11.4352597149,-15.2531360823) scale(1,-1) translate(50,-110)"
    />
  
  <line
    x1="99.9569155350133"
    y1="19.627377750647586"
    x2="99.95717656885171"
    y2="19.739491632300787"
    stroke="hsla(0,50%,50%,0.6)"
    stroke-width="1"
    transform="translate(-11.4352597149,-15.2531360823) scale(1,-1) translate(50,-110)"
    />
  
  <line
    x1="99.95582433551203"
    y1="1.3461603535433118"
    x2="99.95610629069061"
    y2="19.73948777775759"
    stroke="hsla(0,50%,50%,0.6)"
    stroke-width="1"
    transform="translate(-11.4352597149,-15.2531360823) scale(1,-1) translate(50,-110)"
    />
  
  <line
    x1="0.13375412332620268"
    y1="0.7371041430523698"
    x2="0.2577777406776932"
    y2="19.377242038863603"
    stroke="hsla(0,50%,50%,0.6)"
    stroke-width="1"
    transform="translate(-11.4352597149,-15.2531360823) scale(1,-1) translate(50,-110)"
    />
  
  <line
    x1="-0.04418850247871999"
    y1="0.5094413368208495"
    x2="-0.3602569507233385"
    y2="19.378204356720083"
    stroke="hsla(0,50%,50%,0.6)"
    stroke-width="1"
    transform="translate(-11.4352597149,-15.2531360823) scale(1,-1) translate(50,-110)"
    />
  
  <line
    x1="-0.04418850247871999"
    y1="0.5094413368208495"
    x2="-0.04389929600257556"
    y2="19.375806677584"
    stroke="hsla(0,50%,50%,0.6)"
    stroke-width="1"
    transform="translate(-11.4352597149,-15.2531360823) scale(1,-1) translate(50,-110)"
    />
  
  <line
    x1="0.13375412332620268"
    y1="0.7371041430523698"
    x2="-0.04389929600257556"
    y2="19.375806677584"
    stroke="hsla(0,50%,50%,0.6)"
    stroke-width="1"
    transform="translate(-11.4352597149,-15.2531360823) scale(1,-1) translate(50,-110)"
    />
  
  <line
    x1="-0.4094010765243642"
    y1="14.230474468145701"
    x2="-0.3602569507233385"
    y2="19.378204356720083"
    stroke="hsla(0,50%,50%,0.6)"
    stroke-width="1"
    transform="translate(-11.4352597149,-15.2531360823) scale(1,-1) translate(50,-110)"
    />
  
  <line
    x1="0.2692438616718263"
    y1="18.6681742494046"
    x2="0.2577777406776932"
    y2="19.377242038863603"
    stroke="hsla(0,50%,50%,0.6)"
    stroke-width="1"
    transform="translate(-11.4352597149,-15.2531360823) scale(1,-1) translate(50,-110)"
    />
  
  <line
    x1="32.778412940301735"
    y1="0.7840742496182669"
    x2="100.12911585162931"
    y2="1.8142942920081022"
    stroke="hsla(0,50%,50%,0.6)"
    stroke-width="1"
    transform="translate(-11.4352597149,-15.2531360823) scale(1,-1) translate(50,-110)"
    />
  
  <line
    x1="-0.04418850247871999"
    y1="0.5094413368208495"
    x2="100.14003026231312"
    y2="1.3477016393649162"
    stroke="hsla(0,50%,50%,0.6)"
    stroke-width="1"
    transform="translate(-11.4352597149,-15.2531360823) scale(1,-1) translate(50,-110)"
    />
  
  <line
    x1="27.90249174265083"
    y1="0.7770586290983953"
    x2="100.13135374733349"
    y2="1.465502703227764"
    stroke="hsla(0,50%,50%,0.6)"
    stroke-width="1"
    transform="translate(-11.4352597149,-15.2531360823) scale(1,-1) translate(50,-110)"
    />
  
  <line
    x1="100.13247716185963"
    y1="1.347638441145183"
    x2="100.12911585162931"
    y2="1.8142942920081022"
    stroke="hsla(0,50%,50%,0.6)"
    stroke-width="1"
    transform="translate(-11.4352597149,-15.2531360823) scale(1,-1) translate(50,-110)"
    />
  
  <line
    x1="99.9569155350133"
    y1="19.627377750647586"
    x2="99.95610629069061"
    y2="19.73948777775759"
    stroke="hsla(0,50%,50%,0.6)"
    stroke-width="1"
    transform="translate(-11.4352597149,-15.2531360823) scale(1,-1) translate(50,-110)"
    />
  
  <line
    x1="0.13375412332620268"
    y1="0.7371041430523698"
    x2="32.778412940301735"
    y2="0.7840742496182669"
    stroke="hsla(0,50%,50%,0.6)"
    stroke-width="1"
    transform="translate(-11.4352597149,-15.2531360823) scale(1,-1) translate(50,-110)"
    />
  
  <line
    x1="100.13247716185963"
    y1="1.347638441145183"
    x2="99.95717656885171"
    y2="19.739491632300787"
    stroke="hsla(0,50%,50%,0.6)"
    stroke-width="1"
    transform="translate(-11.4352597149,-15.2531360823) scale(1,-1) translate(50,-110)"
    />
  
  <line
    x1="27.90249174265083"
    y1="0.7770586290983953"
    x2="0.1352492223545509"
    y2="0.9618101518871375"
    stroke="hsla(0,50%,50%,0.6)"
    stroke-width="1"
    transform="translate(-11.4352597149,-15.2531360823) scale(1,-1) translate(50,-110)"
    />
  
  <line
    x1="99.95582433551203"
    y1="1.3461603535433118"
    x2="99.64773845647187"
    y2="19.73837720932703"
    stroke="hsla(0,50%,50%,0.6)"
    stroke-width="1"
    transform="translate(-11.4352597149,-15.2531360823) scale(1,-1) translate(50,-110)"
    />
  
  <line
    x1="100.14003026231312"
    y1="1.3477016393649162"
    x2="100.12911585162931"
    y2="1.8142942920081022"
    stroke="hsla(0,50%,50%,0.6)"
    stroke-width="1"
    transform="translate(-11.4352597149,-15.2531360823) scale(1,-1) translate(50,-110)"
    />
  
  <line
    x1="99.58604220659015"
    y1="13.275842280636802"
    x2="-0.4094010765243642"
    y2="14.230474468145701"
    stroke="hsla(0,50%,50%,0.6)"
    stroke-width="1"
    transform="translate(-11.4352597149,-15.2531360823) scale(1,-1) translate(50,-110)"
    />
  
  <line
    x1="0.2692438616718263"
    y1="18.6681742494046"
    x2="56.93903749552329"
    y2="19.584564360728173"
    stroke="hsla(0,50%,50%,0.6)"
    stroke-width="1"
    transform="translate(-11.4352597149,-15.2531360823) scale(1,-1) translate(50,-110)"
    />
  
  <line
    x1="62.40391864598573"
    y1="19.53556252632743"
    x2="69.10095222105286"
    y2="19.628364773905354"
    stroke="hsla(0,50%,50%,0.6)"
    stroke-width="1"
    transform="translate(-11.4352597149,-15.2531360823) scale(1,-1) translate(50,-110)"
    />
  
  <line
    x1="-0.04389929600257556"
    y1="19.375806677584"
    x2="3.014487033648495"
    y2="19.39035829663979"
    stroke="hsla(0,50%,50%,0.6)"
    stroke-width="1"
    transform="translate(-11.4352597149,-15.2531360823) scale(1,-1) translate(50,-110)"
    />
  
  <line
    x1="-0.3602569507233385"
    y1="19.378204356720083"
    x2="99.95717656885171"
    y2="19.739491632300787"
    stroke="hsla(0,50%,50%,0.6)"
    stroke-width="1"
    transform="translate(-11.4352597149,-15.2531360823) scale(1,-1) translate(50,-110)"
    />
  
  <line
    x1="3.014487033648495"
    y1="19.39035829663979"
    x2="99.9569155350133"
    y2="19.627377750647586"
    stroke="hsla(0,50%,50%,0.6)"
    stroke-width="1"
    transform="translate(-11.4352597149,-15.2531360823) scale(1,-1) translate(50,-110)"
    />
  
  <line
    x1="100.26028265937443"
    y1="19.42104372849187"
    x2="69.10095222105286"
    y2="19.628364773905354"
    stroke="hsla(0,50%,50%,0.6)"
    stroke-width="1"
    transform="translate(-11.4352597149,-15.2531360823) scale(1,-1) translate(50,-110)"
    />
  
  <line
    x1="62.40391864598573"
    y1="19.53556252632743"
    x2="56.93903749552329"
    y2="19.584564360728173"
    stroke="hsla(0,50%,50%,0.6)"
    stroke-width="1"
    transform="translate(-11.4352597149,-15.2531360823) scale(1,-1) translate(50,-110)"
    />
  
</svg>
