<?xml version="1.0"?>
<!DOCTYPE svg PUBLIC "-//W3C//DTD SVG 1.1//EN"
  "http://www.w3.org/Graphics/SVG/1.1/DTD/svg11.dtd">
<svg
  width="240"
  height="240"
  viewBox="-50 -50 200 200" xmlns="http://www.w3.org/2000/svg" version="1.1">
  <rect
    x="0"
    y="0"
    width="100"
    height="100"
    fill="hsla(206,100%,53%,0.3)"
    stroke="hsl(206,100%,53%)"
    stroke-width="3"
    transform="" />
  
  <path
    d="M 
      111.8096680947
      45.6501385593
      L
    
      130.9688113893
      69.4999686605
      L
    
      123.8403381015
      84.8046407307
      L
    
      116.3002305627
      81.2926768722
      L
    
      112.2774650401
      86.3437598314
      L
    
      105.2020264719
      96.0757803806
      L
    
      104.5628648499
      96.0304008592
      L
    
      101.7802798751
      99.5242827347
      L
    
      96.6915702117
      95.4715506861
      L
    
      79.4430472105
      94.2469312926
      L
    
      77.3738926874
      90.4283225312
      L
    
      81.2145591269
      83.1686423649
      L
    
      80.8816942064
      82.8803054767
      L
    
      82.2183264058
      81.2713077432
      L
    
      91.8490594583
      63.0671645742
      L
    
      89.4629511235
      57.1686902338
      z
    "
    fill="hsla(0,0%,50%,0.3)"
    stroke="hsla(0,0%,50%,1)"
    stroke-width="1"
    transform="translate(-88.1802552938,-65.1860399938) scale(1,-1) translate(50,-110)"
    />
  
  
  <line
    x1="111.80966809472997"
    y1="45.65013855930179"
    x2="130.96881138932827"
    y2="69.49996866050863"
    stroke="hsla(0,50%,50%,0.6)"
    stroke-width="1"
    transform="translate(-88.1802552938,-65.1860399938) scale(1,-1) translate(50,-110)"
    />
  
  <line
    x1="105.0070820087792"
    y1="53.838887565792724"
    x2="118.54859889780204"
    y2="78.46957049957541"
    stroke="hsla(0,50%,50%,0.6)"
    stroke-width="1"
    transform="translate(-88.1802552938,-65.1860399938) scale(1,-1) translate(50,-110)"
    />
  
  <line
    x1="89.46295112351972"
    y1="57.16869023389309"
    x2="100"
    y2="73.70050125313283"
    stroke="hsla(0,50%,50%,0.6)"
    stroke-width="1"
    transform="translate(-88.1802552938,-65.1860399938) scale(1,-1) translate(50,-110)"
    />
  
  <line
    x1="89.46295112351972"
    y1="57.16869023389309"
    x2="105.20202647194388"
    y2="96.07578038065158"
    stroke="hsla(0,50%,50%,0.6)"
    stroke-width="1"
    transform="translate(-88.1802552938,-65.1860399938) scale(1,-1) translate(50,-110)"
    />
  
  <line
    x1="108.88862516009773"
    y1="73.21923387180534"
    x2="111.84806973231728"
    y2="86.93437819649604"
    stroke="hsla(0,50%,50%,0.6)"
    stroke-width="1"
    transform="translate(-88.1802552938,-65.1860399938) scale(1,-1) translate(50,-110)"
    />
  
  <line
    x1="107.4335593375701"
    y1="56.5215503414965"
    x2="124.66435834529403"
    y2="69.30601736141311"
    stroke="hsla(0,50%,50%,0.6)"
    stroke-width="1"
    transform="translate(-88.1802552938,-65.1860399938) scale(1,-1) translate(50,-110)"
    />
  
  <line
    x1="100"
    y1="51.73739837398374"
    x2="124.66435834529403"
    y2="69.30601736141311"
    stroke="hsla(0,50%,50%,0.6)"
    stroke-width="1"
    transform="translate(-88.1802552938,-65.1860399938) scale(1,-1) translate(50,-110)"
    />
  
  <line
    x1="77.37389268740883"
    y1="90.42832253127337"
    x2="79.44304721058195"
    y2="94.24693129261715"
    stroke="hsla(0,50%,50%,0.6)"
    stroke-width="1"
    transform="translate(-88.1802552938,-65.1860399938) scale(1,-1) translate(50,-110)"
    />
  
  <line
    x1="123.20417219113548"
    y1="59.83433158965487"
    x2="124.22532617834263"
    y2="69.90989089227223"
    stroke="hsla(0,50%,50%,0.6)"
    stroke-width="1"
    transform="translate(-88.1802552938,-65.1860399938) scale(1,-1) translate(50,-110)"
    />
  
  <line
    x1="100"
    y1="51.73739837398374"
    x2="100"
    y2="73.70050125313283"
    stroke="hsla(0,50%,50%,0.6)"
    stroke-width="1"
    transform="translate(-88.1802552938,-65.1860399938) scale(1,-1) translate(50,-110)"
    />
  
  <line
    x1="83.1761407318293"
    y1="80.11831959850028"
    x2="83.01823190834601"
    y2="84.73103408977657"
    stroke="hsla(0,50%,50%,0.6)"
    stroke-width="1"
    transform="translate(-88.1802552938,-65.1860399938) scale(1,-1) translate(50,-110)"
    />
  
  <line
    x1="80.88169420647745"
    y1="82.88030547674228"
    x2="83.01823190834601"
    y2="84.73103408977657"
    stroke="hsla(0,50%,50%,0.6)"
    stroke-width="1"
    transform="translate(-88.1802552938,-65.1860399938) scale(1,-1) translate(50,-110)"
    />
  
  <line
    x1="120.42935279043557"
    y1="56.38015985292153"
    x2="118.54859889780204"
    y2="78.46957049957541"
    stroke="hsla(0,50%,50%,0.6)"
    stroke-width="1"
    transform="translate(-88.1802552938,-65.1860399938) scale(1,-1) translate(50,-110)"
    />
  
  <line
    x1="80.88169420647745"
    y1="82.88030547674228"
    x2="101.78027987512246"
    y2="99.5242827347101"
    stroke="hsla(0,50%,50%,0.6)"
    stroke-width="1"
    transform="translate(-88.1802552938,-65.1860399938) scale(1,-1) translate(50,-110)"
    />
  
  <line
    x1="105.0070820087792"
    y1="53.838887565792724"
    x2="123.20417219113548"
    y2="59.83433158965487"
    stroke="hsla(0,50%,50%,0.6)"
    stroke-width="1"
    transform="translate(-88.1802552938,-65.1860399938) scale(1,-1) translate(50,-110)"
    />
  
  <line
    x1="100"
    y1="73.70050125313283"
    x2="123.84033810157202"
    y2="84.80464073078717"
    stroke="hsla(0,50%,50%,0.6)"
    stroke-width="1"
    transform="translate(-88.1802552938,-65.1860399938) scale(1,-1) translate(50,-110)"
    />
  
  <line
    x1="97.03422149480163"
    y1="53.266100465281106"
    x2="120.42935279043557"
    y2="56.38015985292153"
    stroke="hsla(0,50%,50%,0.6)"
    stroke-width="1"
    transform="translate(-88.1802552938,-65.1860399938) scale(1,-1) translate(50,-110)"
    />
  
  <line
    x1="97.03422149480163"
    y1="53.266100465281106"
    x2="77.37389268740883"
    y2="90.42832253127337"
    stroke="hsla(0,50%,50%,0.6)"
    stroke-width="1"
    transform="translate(-88.1802552938,-65.1860399938) scale(1,-1) translate(50,-110)"
    />
  
  <line
    x1="130.96881138932827"
    y1="69.49996866050863"
    x2="123.84033810157202"
    y2="84.80464073078717"
    stroke="hsla(0,50%,50%,0.6)"
    stroke-width="1"
    transform="translate(-88.1802552938,-65.1860399938) scale(1,-1) translate(50,-110)"
    />
  
  <line
    x1="107.4335593375701"
    y1="56.5215503414965"
    x2="79.44304721058195"
    y2="94.24693129261715"
    stroke="hsla(0,50%,50%,0.6)"
    stroke-width="1"
    transform="translate(-88.1802552938,-65.1860399938) scale(1,-1) translate(50,-110)"
    />
  
  <line
    x1="111.80966809472997"
    y1="45.65013855930179"
    x2="80.88169420647745"
    y2="82.88030547674228"
    stroke="hsla(0,50%,50%,0.6)"
    stroke-width="1"
    transform="translate(-88.1802552938,-65.1860399938) scale(1,-1) translate(50,-110)"
    />
  
  <line
    x1="111.80966809472997"
    y1="45.65013855930179"
    x2="89.46295112351972"
    y2="57.16869023389309"
    stroke="hsla(0,50%,50%,0.6)"
    stroke-width="1"
    transform="translate(-88.1802552938,-65.1860399938) scale(1,-1) translate(50,-110)"
    />
  
  <line
    x1="127.58540800188948"
    y1="65.28821478855896"
    x2="105.20202647194388"
    y2="96.07578038065158"
    stroke="hsla(0,50%,50%,0.6)"
    stroke-width="1"
    transform="translate(-88.1802552938,-65.1860399938) scale(1,-1) translate(50,-110)"
    />
  
  <line
    x1="79.44304721058195"
    y1="94.24693129261715"
    x2="105.20202647194388"
    y2="96.07578038065158"
    stroke="hsla(0,50%,50%,0.6)"
    stroke-width="1"
    transform="translate(-88.1802552938,-65.1860399938) scale(1,-1) translate(50,-110)"
    />
  
  <line
    x1="118.54859889780204"
    y1="78.46957049957541"
    x2="101.78027987512246"
    y2="99.5242827347101"
    stroke="hsla(0,50%,50%,0.6)"
    stroke-width="1"
    transform="translate(-88.1802552938,-65.1860399938) scale(1,-1) translate(50,-110)"
    />
  
  <line
    x1="124.22532617834263"
    y1="69.90989089227223"
    x2="108.88862516009773"
    y2="73.21923387180534"
    stroke="hsla(0,50%,50%,0.6)"
    stroke-width="1"
    transform="translate(-88.1802552938,-65.1860399938) scale(1,-1) translate(50,-110)"
    />
  
  <line
    x1="130.96881138932827"
    y1="69.49996866050863"
    x2="83.1761407318293"
    y2="80.11831959850028"
    stroke="hsla(0,50%,50%,0.6)"
    stroke-width="1"
    transform="translate(-88.1802552938,-65.1860399938) scale(1,-1) translate(50,-110)"
    />
  
  <line
    x1="111.84806973231728"
    y1="86.93437819649604"
    x2="77.37389268740883"
    y2="90.42832253127337"
    stroke="hsla(0,50%,50%,0.6)"
    stroke-width="1"
    transform="translate(-88.1802552938,-65.1860399938) scale(1,-1) translate(50,-110)"
    />
  
  <line
    x1="127.58540800188948"
    y1="65.28821478855896"
    x2="83.01823190834601"
    y2="84.73103408977657"
    stroke="hsla(0,50%,50%,0.6)"
    stroke-width="1"
    transform="translate(-88.1802552938,-65.1860399938) scale(1,-1) translate(50,-110)"
    />
  
</svg>
