<?xml version="1.0"?>
<!DOCTYPE svg PUBLIC "-//W3C//DTD SVG 1.1//EN"
  "http://www.w3.org/Graphics/SVG/1.1/DTD/svg11.dtd">
<svg
  width="240"
  height="240"
  viewBox="-50 -50 200 200" xmlns="http://www.w3.org/2000/svg" version="1.1">
  <rect
    x="0"
    y="0"
    width="100"
    height="100"
    fill="hsla(206,100%,53%,0.3)"
    stroke="hsl(206,100%,53%)"
    stroke-width="3"
    transform="" />
  
  <path
    d="M 
      57.0557479441
      -87.0256102593
      L
    
      57.5628636168
      -84.2199916077
      L
    
      57.7832492352
      -84.2576584235
      L
    
      66.1033124896
      -36.9699381395
      L
    
      -31.8516269655
      -19.4999892984
      L
    
      -40.3479140552
      -67.1130722475
      L
    
      -40.3389092988
      -67.1146903469
      L
    
      -40.7170301358
      -69.2359948945
      L
    
      56.9342613149
      -87.0035059431
      L
    
      56.9342113409
      -87.0037881163
      z
    "
    fill="hsla(0,0%,50%,0.3)"
    stroke="hsla(0,0%,50%,1)"
    stroke-width="1"
    transform="translate(-34.2973188373,81.4563320790) scale(1,-1) translate(50,-110)"
    />
  
  
  <line
    x1="57.055747944132754"
    y1="-87.02561025939623"
    x2="56.93421134090769"
    y2="-87.0037881163853"
    stroke="hsla(0,50%,50%,0.6)"
    stroke-width="1"
    transform="translate(-34.2973188373,81.4563320790) scale(1,-1) translate(50,-110)"
    />
  
  <line
    x1="57.055747944132754"
    y1="-87.02561025939623"
    x2="-40.71703013581427"
    y2="-69.23599489454688"
    stroke="hsla(0,50%,50%,0.6)"
    stroke-width="1"
    transform="translate(-34.2973188373,81.4563320790) scale(1,-1) translate(50,-110)"
    />
  
  <line
    x1="-40.22565691068268"
    y1="-69.32176633620661"
    x2="-40.71703013581427"
    y2="-69.23599489454688"
    stroke="hsla(0,50%,50%,0.6)"
    stroke-width="1"
    transform="translate(-34.2973188373,81.4563320790) scale(1,-1) translate(50,-110)"
    />
  
  <line
    x1="57.21212113881268"
    y1="-86.16047519218297"
    x2="57.08747514692531"
    y2="-86.13839987589412"
    stroke="hsla(0,50%,50%,0.6)"
    stroke-width="1"
    transform="translate(-34.2973188373,81.4563320790) scale(1,-1) translate(50,-110)"
    />
  
  <line
    x1="57.21212113881268"
    y1="-86.16047519218297"
    x2="-40.52137696624026"
    y2="-68.13835647360968"
    stroke="hsla(0,50%,50%,0.6)"
    stroke-width="1"
    transform="translate(-34.2973188373,81.4563320790) scale(1,-1) translate(50,-110)"
    />
  
  <line
    x1="-40.03634690043746"
    y1="-68.22183539318056"
    x2="-40.52137696624026"
    y2="-68.13835647360968"
    stroke="hsla(0,50%,50%,0.6)"
    stroke-width="1"
    transform="translate(-34.2973188373,81.4563320790) scale(1,-1) translate(50,-110)"
    />
  
  <line
    x1="57.82253728363282"
    y1="-84.02082550055627"
    x2="18.97389788189708"
    y2="-77.62462719648404"
    stroke="hsla(0,50%,50%,0.6)"
    stroke-width="1"
    transform="translate(-34.2973188373,81.4563320790) scale(1,-1) translate(50,-110)"
    />
  
  <line
    x1="57.82253728363282"
    y1="-84.02082550055627"
    x2="57.819249553934334"
    y2="-84.02027600575119"
    stroke="hsla(0,50%,50%,0.6)"
    stroke-width="1"
    transform="translate(-34.2973188373,81.4563320790) scale(1,-1) translate(50,-110)"
    />
  
  <line
    x1="57.783249235205524"
    y1="-84.2576584235068"
    x2="18.97389788189708"
    y2="-77.62462719648404"
    stroke="hsla(0,50%,50%,0.6)"
    stroke-width="1"
    transform="translate(-34.2973188373,81.4563320790) scale(1,-1) translate(50,-110)"
    />
  
  <line
    x1="-39.97480407954376"
    y1="-67.18011781716439"
    x2="-40.34791405522004"
    y2="-67.11307224756405"
    stroke="hsla(0,50%,50%,0.6)"
    stroke-width="1"
    transform="translate(-34.2973188373,81.4563320790) scale(1,-1) translate(50,-110)"
    />
  
  <line
    x1="18.97389788189708"
    y1="-77.62462719648404"
    x2="-40.34791405522004"
    y2="-67.11307224756405"
    stroke="hsla(0,50%,50%,0.6)"
    stroke-width="1"
    transform="translate(-34.2973188373,81.4563320790) scale(1,-1) translate(50,-110)"
    />
  
  <line
    x1="66.10331248968984"
    y1="-36.969938139514326"
    x2="-31.851626965511223"
    y2="-19.499989298469"
    stroke="hsla(0,50%,50%,0.6)"
    stroke-width="1"
    transform="translate(-34.2973188373,81.4563320790) scale(1,-1) translate(50,-110)"
    />
  
  <line
    x1="56.93421134090769"
    y1="-87.0037881163853"
    x2="66.04244931091809"
    y2="-36.95908338706019"
    stroke="hsla(0,50%,50%,0.6)"
    stroke-width="1"
    transform="translate(-34.2973188373,81.4563320790) scale(1,-1) translate(50,-110)"
    />
  
  <line
    x1="57.055747944132754"
    y1="-87.02561025939623"
    x2="66.10331248968984"
    y2="-36.969938139514326"
    stroke="hsla(0,50%,50%,0.6)"
    stroke-width="1"
    transform="translate(-34.2973188373,81.4563320790) scale(1,-1) translate(50,-110)"
    />
  
  <line
    x1="56.93421134090769"
    y1="-87.0037881163853"
    x2="57.08747514692531"
    y2="-86.13839987589412"
    stroke="hsla(0,50%,50%,0.6)"
    stroke-width="1"
    transform="translate(-34.2973188373,81.4563320790) scale(1,-1) translate(50,-110)"
    />
  
  <line
    x1="57.783249235205524"
    y1="-84.2576584235068"
    x2="66.10331248968984"
    y2="-36.969938139514326"
    stroke="hsla(0,50%,50%,0.6)"
    stroke-width="1"
    transform="translate(-34.2973188373,81.4563320790) scale(1,-1) translate(50,-110)"
    />
  
  <line
    x1="57.77967668808572"
    y1="-84.257047827973"
    x2="66.04244931091809"
    y2="-36.95908338706019"
    stroke="hsla(0,50%,50%,0.6)"
    stroke-width="1"
    transform="translate(-34.2973188373,81.4563320790) scale(1,-1) translate(50,-110)"
    />
  
  <line
    x1="57.77967668808572"
    y1="-84.257047827973"
    x2="57.819249553934334"
    y2="-84.02027600575119"
    stroke="hsla(0,50%,50%,0.6)"
    stroke-width="1"
    transform="translate(-34.2973188373,81.4563320790) scale(1,-1) translate(50,-110)"
    />
  
  <line
    x1="57.783249235205524"
    y1="-84.2576584235068"
    x2="57.82253728363282"
    y2="-84.02082550055627"
    stroke="hsla(0,50%,50%,0.6)"
    stroke-width="1"
    transform="translate(-34.2973188373,81.4563320790) scale(1,-1) translate(50,-110)"
    />
  
  <line
    x1="-40.22565691068268"
    y1="-69.32176633620661"
    x2="-40.03634690043746"
    y2="-68.22183539318056"
    stroke="hsla(0,50%,50%,0.6)"
    stroke-width="1"
    transform="translate(-34.2973188373,81.4563320790) scale(1,-1) translate(50,-110)"
    />
  
  <line
    x1="-40.22565691068268"
    y1="-69.32176633620661"
    x2="-31.420785542492805"
    y2="-19.576828482491738"
    stroke="hsla(0,50%,50%,0.6)"
    stroke-width="1"
    transform="translate(-34.2973188373,81.4563320790) scale(1,-1) translate(50,-110)"
    />
  
  <line
    x1="-39.97480407954376"
    y1="-67.18011781716439"
    x2="-31.420785542492805"
    y2="-19.576828482491738"
    stroke="hsla(0,50%,50%,0.6)"
    stroke-width="1"
    transform="translate(-34.2973188373,81.4563320790) scale(1,-1) translate(50,-110)"
    />
  
  <line
    x1="-40.71703013581427"
    y1="-69.23599489454688"
    x2="-31.851626965511223"
    y2="-19.499989298469"
    stroke="hsla(0,50%,50%,0.6)"
    stroke-width="1"
    transform="translate(-34.2973188373,81.4563320790) scale(1,-1) translate(50,-110)"
    />
  
  <line
    x1="-40.34791405522004"
    y1="-67.11307224756405"
    x2="-31.851626965511223"
    y2="-19.499989298469"
    stroke="hsla(0,50%,50%,0.6)"
    stroke-width="1"
    transform="translate(-34.2973188373,81.4563320790) scale(1,-1) translate(50,-110)"
    />
  
</svg>
