<?xml version="1.0"?>
<!DOCTYPE svg PUBLIC "-//W3C//DTD SVG 1.1//EN"
  "http://www.w3.org/Graphics/SVG/1.1/DTD/svg11.dtd">
<svg
  width="240"
  height="240"
  viewBox="-500 -500 1000 1000" xmlns="http://www.w3.org/2000/svg" version="1.1">
  <rect
    x="0"
    y="0"
    width="100"
    height="100"
    fill="hsla(206,100%,53%,0.3)"
    stroke="hsl(206,100%,53%)"
    stroke-width="3"
    transform="" />
  
  <path
    d="M 
      116.4768853351
      40.2471623378
      L
    
      116.4768853351
      45.2471623378
      L
    
      21.4768853351
      140.2471623378
      L
    
      16.4768853351
      140.2471623378
      z
    "
    fill="hsla(0,0%,50%,0.3)"
    stroke="hsla(0,0%,50%,1)"
    stroke-width="1"
    transform="translate(-66.4768853351,-90.2471623378)"
    />
  
  
  <line
    x1="21.47688533512793"
    y1="135.24716233786341"
    x2="21.47688533512793"
    y2="140.24716233786341"
    stroke="hsla(0,50%,50%,0.6)"
    stroke-width="1"
    transform="translate(-66.4768853351,-90.2471623378)"
    />
  
  <line
    x1="26.47688533512793"
    y1="130.24716233786341"
    x2="26.47688533512793"
    y2="135.24716233786341"
    stroke="hsla(0,50%,50%,0.6)"
    stroke-width="1"
    transform="translate(-66.4768853351,-90.2471623378)"
    />
  
  <line
    x1="31.47688533512793"
    y1="125.24716233786341"
    x2="31.47688533512793"
    y2="130.24716233786341"
    stroke="hsla(0,50%,50%,0.6)"
    stroke-width="1"
    transform="translate(-66.4768853351,-90.2471623378)"
    />
  
  <line
    x1="36.476885335127925"
    y1="120.24716233786341"
    x2="36.476885335127925"
    y2="125.24716233786341"
    stroke="hsla(0,50%,50%,0.6)"
    stroke-width="1"
    transform="translate(-66.4768853351,-90.2471623378)"
    />
  
  <line
    x1="41.476885335127925"
    y1="115.24716233786341"
    x2="41.476885335127925"
    y2="120.24716233786341"
    stroke="hsla(0,50%,50%,0.6)"
    stroke-width="1"
    transform="translate(-66.4768853351,-90.2471623378)"
    />
  
  <line
    x1="46.476885335127925"
    y1="110.24716233786341"
    x2="46.476885335127925"
    y2="115.24716233786341"
    stroke="hsla(0,50%,50%,0.6)"
    stroke-width="1"
    transform="translate(-66.4768853351,-90.2471623378)"
    />
  
  <line
    x1="51.476885335127925"
    y1="105.24716233786341"
    x2="51.476885335127925"
    y2="110.24716233786341"
    stroke="hsla(0,50%,50%,0.6)"
    stroke-width="1"
    transform="translate(-66.4768853351,-90.2471623378)"
    />
  
  <line
    x1="56.476885335127925"
    y1="100.24716233786341"
    x2="56.476885335127925"
    y2="105.24716233786341"
    stroke="hsla(0,50%,50%,0.6)"
    stroke-width="1"
    transform="translate(-66.4768853351,-90.2471623378)"
    />
  
  <line
    x1="61.476885335127925"
    y1="95.24716233786341"
    x2="61.476885335127925"
    y2="100.24716233786341"
    stroke="hsla(0,50%,50%,0.6)"
    stroke-width="1"
    transform="translate(-66.4768853351,-90.2471623378)"
    />
  
  <line
    x1="66.47688533512793"
    y1="90.24716233786341"
    x2="66.47688533512793"
    y2="95.24716233786341"
    stroke="hsla(0,50%,50%,0.6)"
    stroke-width="1"
    transform="translate(-66.4768853351,-90.2471623378)"
    />
  
  <line
    x1="71.47688533512793"
    y1="85.24716233786341"
    x2="71.47688533512793"
    y2="90.24716233786341"
    stroke="hsla(0,50%,50%,0.6)"
    stroke-width="1"
    transform="translate(-66.4768853351,-90.2471623378)"
    />
  
  <line
    x1="76.47688533512793"
    y1="80.24716233786341"
    x2="76.47688533512793"
    y2="85.24716233786341"
    stroke="hsla(0,50%,50%,0.6)"
    stroke-width="1"
    transform="translate(-66.4768853351,-90.2471623378)"
    />
  
  <line
    x1="81.47688533512793"
    y1="75.24716233786341"
    x2="81.47688533512793"
    y2="80.24716233786341"
    stroke="hsla(0,50%,50%,0.6)"
    stroke-width="1"
    transform="translate(-66.4768853351,-90.2471623378)"
    />
  
  <line
    x1="86.47688533512793"
    y1="70.24716233786341"
    x2="86.47688533512793"
    y2="75.24716233786341"
    stroke="hsla(0,50%,50%,0.6)"
    stroke-width="1"
    transform="translate(-66.4768853351,-90.2471623378)"
    />
  
  <line
    x1="91.47688533512793"
    y1="65.24716233786341"
    x2="91.47688533512793"
    y2="70.24716233786341"
    stroke="hsla(0,50%,50%,0.6)"
    stroke-width="1"
    transform="translate(-66.4768853351,-90.2471623378)"
    />
  
  <line
    x1="96.47688533512793"
    y1="60.247162337863415"
    x2="96.47688533512793"
    y2="65.24716233786341"
    stroke="hsla(0,50%,50%,0.6)"
    stroke-width="1"
    transform="translate(-66.4768853351,-90.2471623378)"
    />
  
  <line
    x1="101.47688533512793"
    y1="55.247162337863415"
    x2="101.47688533512793"
    y2="60.247162337863415"
    stroke="hsla(0,50%,50%,0.6)"
    stroke-width="1"
    transform="translate(-66.4768853351,-90.2471623378)"
    />
  
  <line
    x1="106.47688533512793"
    y1="50.247162337863415"
    x2="106.47688533512793"
    y2="55.247162337863415"
    stroke="hsla(0,50%,50%,0.6)"
    stroke-width="1"
    transform="translate(-66.4768853351,-90.2471623378)"
    />
  
  <line
    x1="111.47688533512793"
    y1="45.247162337863415"
    x2="111.47688533512793"
    y2="50.247162337863415"
    stroke="hsla(0,50%,50%,0.6)"
    stroke-width="1"
    transform="translate(-66.4768853351,-90.2471623378)"
    />
  
  <line
    x1="116.47688533512793"
    y1="40.247162337863415"
    x2="116.47688533512793"
    y2="45.247162337863415"
    stroke="hsla(0,50%,50%,0.6)"
    stroke-width="1"
    transform="translate(-66.4768853351,-90.2471623378)"
    />
  
  <line
    x1="111.47688533512793"
    y1="45.247162337863415"
    x2="116.47688533512793"
    y2="45.247162337863415"
    stroke="hsla(0,50%,50%,0.6)"
    stroke-width="1"
    transform="translate(-66.4768853351,-90.2471623378)"
    />
  
  <line
    x1="106.47688533512793"
    y1="50.247162337863415"
    x2="111.47688533512793"
    y2="50.247162337863415"
    stroke="hsla(0,50%,50%,0.6)"
    stroke-width="1"
    transform="translate(-66.4768853351,-90.2471623378)"
    />
  
  <line
    x1="101.47688533512793"
    y1="55.247162337863415"
    x2="106.47688533512793"
    y2="55.247162337863415"
    stroke="hsla(0,50%,50%,0.6)"
    stroke-width="1"
    transform="translate(-66.4768853351,-90.2471623378)"
    />
  
  <line
    x1="96.47688533512793"
    y1="60.247162337863415"
    x2="101.47688533512793"
    y2="60.247162337863415"
    stroke="hsla(0,50%,50%,0.6)"
    stroke-width="1"
    transform="translate(-66.4768853351,-90.2471623378)"
    />
  
  <line
    x1="91.47688533512793"
    y1="65.24716233786341"
    x2="96.47688533512793"
    y2="65.24716233786341"
    stroke="hsla(0,50%,50%,0.6)"
    stroke-width="1"
    transform="translate(-66.4768853351,-90.2471623378)"
    />
  
  <line
    x1="86.47688533512793"
    y1="70.24716233786341"
    x2="91.47688533512793"
    y2="70.24716233786341"
    stroke="hsla(0,50%,50%,0.6)"
    stroke-width="1"
    transform="translate(-66.4768853351,-90.2471623378)"
    />
  
  <line
    x1="81.47688533512793"
    y1="75.24716233786341"
    x2="86.47688533512793"
    y2="75.24716233786341"
    stroke="hsla(0,50%,50%,0.6)"
    stroke-width="1"
    transform="translate(-66.4768853351,-90.2471623378)"
    />
  
  <line
    x1="116.47688533512793"
    y1="40.247162337863415"
    x2="16.47688533512793"
    y2="140.24716233786341"
    stroke="hsla(0,50%,50%,0.6)"
    stroke-width="1"
    transform="translate(-66.4768853351,-90.2471623378)"
    />
  
  <line
    x1="76.47688533512793"
    y1="80.24716233786341"
    x2="81.47688533512793"
    y2="80.24716233786341"
    stroke="hsla(0,50%,50%,0.6)"
    stroke-width="1"
    transform="translate(-66.4768853351,-90.2471623378)"
    />
  
  <line
    x1="116.47688533512793"
    y1="45.247162337863415"
    x2="21.47688533512793"
    y2="140.24716233786341"
    stroke="hsla(0,50%,50%,0.6)"
    stroke-width="1"
    transform="translate(-66.4768853351,-90.2471623378)"
    />
  
  <line
    x1="71.47688533512793"
    y1="85.24716233786341"
    x2="76.47688533512793"
    y2="85.24716233786341"
    stroke="hsla(0,50%,50%,0.6)"
    stroke-width="1"
    transform="translate(-66.4768853351,-90.2471623378)"
    />
  
  <line
    x1="66.47688533512793"
    y1="90.24716233786341"
    x2="71.47688533512793"
    y2="90.24716233786341"
    stroke="hsla(0,50%,50%,0.6)"
    stroke-width="1"
    transform="translate(-66.4768853351,-90.2471623378)"
    />
  
  <line
    x1="61.476885335127925"
    y1="95.24716233786341"
    x2="66.47688533512793"
    y2="95.24716233786341"
    stroke="hsla(0,50%,50%,0.6)"
    stroke-width="1"
    transform="translate(-66.4768853351,-90.2471623378)"
    />
  
  <line
    x1="56.476885335127925"
    y1="100.24716233786341"
    x2="61.476885335127925"
    y2="100.24716233786341"
    stroke="hsla(0,50%,50%,0.6)"
    stroke-width="1"
    transform="translate(-66.4768853351,-90.2471623378)"
    />
  
  <line
    x1="51.476885335127925"
    y1="105.24716233786341"
    x2="56.476885335127925"
    y2="105.24716233786341"
    stroke="hsla(0,50%,50%,0.6)"
    stroke-width="1"
    transform="translate(-66.4768853351,-90.2471623378)"
    />
  
  <line
    x1="46.476885335127925"
    y1="110.24716233786341"
    x2="51.476885335127925"
    y2="110.24716233786341"
    stroke="hsla(0,50%,50%,0.6)"
    stroke-width="1"
    transform="translate(-66.4768853351,-90.2471623378)"
    />
  
  <line
    x1="41.476885335127925"
    y1="115.24716233786341"
    x2="46.476885335127925"
    y2="115.24716233786341"
    stroke="hsla(0,50%,50%,0.6)"
    stroke-width="1"
    transform="translate(-66.4768853351,-90.2471623378)"
    />
  
  <line
    x1="36.476885335127925"
    y1="120.24716233786341"
    x2="41.476885335127925"
    y2="120.24716233786341"
    stroke="hsla(0,50%,50%,0.6)"
    stroke-width="1"
    transform="translate(-66.4768853351,-90.2471623378)"
    />
  
  <line
    x1="31.47688533512793"
    y1="125.24716233786341"
    x2="36.476885335127925"
    y2="125.24716233786341"
    stroke="hsla(0,50%,50%,0.6)"
    stroke-width="1"
    transform="translate(-66.4768853351,-90.2471623378)"
    />
  
  <line
    x1="26.47688533512793"
    y1="130.24716233786341"
    x2="31.47688533512793"
    y2="130.24716233786341"
    stroke="hsla(0,50%,50%,0.6)"
    stroke-width="1"
    transform="translate(-66.4768853351,-90.2471623378)"
    />
  
  <line
    x1="21.47688533512793"
    y1="135.24716233786341"
    x2="26.47688533512793"
    y2="135.24716233786341"
    stroke="hsla(0,50%,50%,0.6)"
    stroke-width="1"
    transform="translate(-66.4768853351,-90.2471623378)"
    />
  
  <line
    x1="16.47688533512793"
    y1="140.24716233786341"
    x2="21.47688533512793"
    y2="140.24716233786341"
    stroke="hsla(0,50%,50%,0.6)"
    stroke-width="1"
    transform="translate(-66.4768853351,-90.2471623378)"
    />
  
</svg>
