<?xml version="1.0"?>
<!DOCTYPE svg PUBLIC "-//W3C//DTD SVG 1.1//EN"
  "http://www.w3.org/Graphics/SVG/1.1/DTD/svg11.dtd">
<svg
  width="240"
  height="240"
  viewBox="-50 -50 200 200" xmlns="http://www.w3.org/2000/svg" version="1.1">
  <rect
    x="0"
    y="0"
    width="100"
    height="100"
    fill="hsla(206,100%,53%,0.3)"
    stroke="hsl(206,100%,53%)"
    stroke-width="3"
    transform="" />
  
  <path
    d="M 
      103.7938107471
      -78.1529279354
      L
    
      103.7938107471
      -73.1529279354
      L
    
      8.7938107471
      21.8470720645
      L
    
      3.7938107471
      21.8470720645
      z
    "
    fill="hsla(0,0%,50%,0.3)"
    stroke="hsla(0,0%,50%,1)"
    stroke-width="1"
    transform="translate(-30.0438107471,2.5279279354) scale(1,-1) translate(50,-110)"
    />
  
  
  <line
    x1="98.79381074719781"
    y1="-73.15292793548412"
    x2="103.79381074719781"
    y2="-73.15292793548412"
    stroke="hsla(0,50%,50%,0.6)"
    stroke-width="1"
    transform="translate(-30.0438107471,2.5279279354) scale(1,-1) translate(50,-110)"
    />
  
  <line
    x1="93.79381074719781"
    y1="-68.15292793548412"
    x2="98.79381074719781"
    y2="-68.15292793548412"
    stroke="hsla(0,50%,50%,0.6)"
    stroke-width="1"
    transform="translate(-30.0438107471,2.5279279354) scale(1,-1) translate(50,-110)"
    />
  
  <line
    x1="88.79381074719781"
    y1="-63.152927935484115"
    x2="93.79381074719781"
    y2="-63.152927935484115"
    stroke="hsla(0,50%,50%,0.6)"
    stroke-width="1"
    transform="translate(-30.0438107471,2.5279279354) scale(1,-1) translate(50,-110)"
    />
  
  <line
    x1="83.79381074719781"
    y1="-58.152927935484115"
    x2="88.79381074719781"
    y2="-58.152927935484115"
    stroke="hsla(0,50%,50%,0.6)"
    stroke-width="1"
    transform="translate(-30.0438107471,2.5279279354) scale(1,-1) translate(50,-110)"
    />
  
  <line
    x1="78.79381074719781"
    y1="-53.152927935484115"
    x2="83.79381074719781"
    y2="-53.152927935484115"
    stroke="hsla(0,50%,50%,0.6)"
    stroke-width="1"
    transform="translate(-30.0438107471,2.5279279354) scale(1,-1) translate(50,-110)"
    />
  
  <line
    x1="73.79381074719781"
    y1="-48.152927935484115"
    x2="78.79381074719781"
    y2="-48.152927935484115"
    stroke="hsla(0,50%,50%,0.6)"
    stroke-width="1"
    transform="translate(-30.0438107471,2.5279279354) scale(1,-1) translate(50,-110)"
    />
  
  <line
    x1="68.79381074719781"
    y1="-43.152927935484115"
    x2="73.79381074719781"
    y2="-43.152927935484115"
    stroke="hsla(0,50%,50%,0.6)"
    stroke-width="1"
    transform="translate(-30.0438107471,2.5279279354) scale(1,-1) translate(50,-110)"
    />
  
  <line
    x1="63.79381074719782"
    y1="-38.152927935484115"
    x2="68.79381074719781"
    y2="-38.152927935484115"
    stroke="hsla(0,50%,50%,0.6)"
    stroke-width="1"
    transform="translate(-30.0438107471,2.5279279354) scale(1,-1) translate(50,-110)"
    />
  
  <line
    x1="58.79381074719782"
    y1="-33.152927935484115"
    x2="63.79381074719782"
    y2="-33.152927935484115"
    stroke="hsla(0,50%,50%,0.6)"
    stroke-width="1"
    transform="translate(-30.0438107471,2.5279279354) scale(1,-1) translate(50,-110)"
    />
  
  <line
    x1="53.79381074719782"
    y1="-28.152927935484115"
    x2="58.79381074719782"
    y2="-28.152927935484115"
    stroke="hsla(0,50%,50%,0.6)"
    stroke-width="1"
    transform="translate(-30.0438107471,2.5279279354) scale(1,-1) translate(50,-110)"
    />
  
  <line
    x1="48.79381074719782"
    y1="-23.152927935484115"
    x2="53.79381074719782"
    y2="-23.152927935484115"
    stroke="hsla(0,50%,50%,0.6)"
    stroke-width="1"
    transform="translate(-30.0438107471,2.5279279354) scale(1,-1) translate(50,-110)"
    />
  
  <line
    x1="43.79381074719782"
    y1="-18.152927935484115"
    x2="48.79381074719782"
    y2="-18.152927935484115"
    stroke="hsla(0,50%,50%,0.6)"
    stroke-width="1"
    transform="translate(-30.0438107471,2.5279279354) scale(1,-1) translate(50,-110)"
    />
  
  <line
    x1="38.79381074719782"
    y1="-13.152927935484115"
    x2="43.79381074719782"
    y2="-13.152927935484115"
    stroke="hsla(0,50%,50%,0.6)"
    stroke-width="1"
    transform="translate(-30.0438107471,2.5279279354) scale(1,-1) translate(50,-110)"
    />
  
  <line
    x1="33.79381074719782"
    y1="-8.152927935484115"
    x2="38.79381074719782"
    y2="-8.152927935484115"
    stroke="hsla(0,50%,50%,0.6)"
    stroke-width="1"
    transform="translate(-30.0438107471,2.5279279354) scale(1,-1) translate(50,-110)"
    />
  
  <line
    x1="28.793810747197817"
    y1="-3.152927935484115"
    x2="33.79381074719782"
    y2="-3.152927935484115"
    stroke="hsla(0,50%,50%,0.6)"
    stroke-width="1"
    transform="translate(-30.0438107471,2.5279279354) scale(1,-1) translate(50,-110)"
    />
  
  <line
    x1="8.793810747197815"
    y1="16.847072064515885"
    x2="8.793810747197815"
    y2="21.847072064515885"
    stroke="hsla(0,50%,50%,0.6)"
    stroke-width="1"
    transform="translate(-30.0438107471,2.5279279354) scale(1,-1) translate(50,-110)"
    />
  
  <line
    x1="13.793810747197815"
    y1="11.847072064515885"
    x2="13.793810747197815"
    y2="16.847072064515885"
    stroke="hsla(0,50%,50%,0.6)"
    stroke-width="1"
    transform="translate(-30.0438107471,2.5279279354) scale(1,-1) translate(50,-110)"
    />
  
  <line
    x1="18.793810747197817"
    y1="6.847072064515885"
    x2="18.793810747197817"
    y2="11.847072064515885"
    stroke="hsla(0,50%,50%,0.6)"
    stroke-width="1"
    transform="translate(-30.0438107471,2.5279279354) scale(1,-1) translate(50,-110)"
    />
  
  <line
    x1="23.793810747197817"
    y1="1.847072064515885"
    x2="23.793810747197817"
    y2="6.847072064515885"
    stroke="hsla(0,50%,50%,0.6)"
    stroke-width="1"
    transform="translate(-30.0438107471,2.5279279354) scale(1,-1) translate(50,-110)"
    />
  
  <line
    x1="28.793810747197817"
    y1="-3.152927935484115"
    x2="28.793810747197817"
    y2="1.847072064515885"
    stroke="hsla(0,50%,50%,0.6)"
    stroke-width="1"
    transform="translate(-30.0438107471,2.5279279354) scale(1,-1) translate(50,-110)"
    />
  
  <line
    x1="33.79381074719782"
    y1="-8.152927935484115"
    x2="33.79381074719782"
    y2="-3.152927935484115"
    stroke="hsla(0,50%,50%,0.6)"
    stroke-width="1"
    transform="translate(-30.0438107471,2.5279279354) scale(1,-1) translate(50,-110)"
    />
  
  <line
    x1="38.79381074719782"
    y1="-13.152927935484115"
    x2="38.79381074719782"
    y2="-8.152927935484115"
    stroke="hsla(0,50%,50%,0.6)"
    stroke-width="1"
    transform="translate(-30.0438107471,2.5279279354) scale(1,-1) translate(50,-110)"
    />
  
  <line
    x1="43.79381074719782"
    y1="-18.152927935484115"
    x2="43.79381074719782"
    y2="-13.152927935484115"
    stroke="hsla(0,50%,50%,0.6)"
    stroke-width="1"
    transform="translate(-30.0438107471,2.5279279354) scale(1,-1) translate(50,-110)"
    />
  
  <line
    x1="48.79381074719782"
    y1="-23.152927935484115"
    x2="48.79381074719782"
    y2="-18.152927935484115"
    stroke="hsla(0,50%,50%,0.6)"
    stroke-width="1"
    transform="translate(-30.0438107471,2.5279279354) scale(1,-1) translate(50,-110)"
    />
  
  <line
    x1="53.79381074719782"
    y1="-28.152927935484115"
    x2="53.79381074719782"
    y2="-23.152927935484115"
    stroke="hsla(0,50%,50%,0.6)"
    stroke-width="1"
    transform="translate(-30.0438107471,2.5279279354) scale(1,-1) translate(50,-110)"
    />
  
  <line
    x1="58.79381074719782"
    y1="-33.152927935484115"
    x2="58.79381074719782"
    y2="-28.152927935484115"
    stroke="hsla(0,50%,50%,0.6)"
    stroke-width="1"
    transform="translate(-30.0438107471,2.5279279354) scale(1,-1) translate(50,-110)"
    />
  
  <line
    x1="63.79381074719782"
    y1="-38.152927935484115"
    x2="63.79381074719782"
    y2="-33.152927935484115"
    stroke="hsla(0,50%,50%,0.6)"
    stroke-width="1"
    transform="translate(-30.0438107471,2.5279279354) scale(1,-1) translate(50,-110)"
    />
  
  <line
    x1="68.79381074719781"
    y1="-43.152927935484115"
    x2="68.79381074719781"
    y2="-38.152927935484115"
    stroke="hsla(0,50%,50%,0.6)"
    stroke-width="1"
    transform="translate(-30.0438107471,2.5279279354) scale(1,-1) translate(50,-110)"
    />
  
  <line
    x1="73.79381074719781"
    y1="-48.152927935484115"
    x2="73.79381074719781"
    y2="-43.152927935484115"
    stroke="hsla(0,50%,50%,0.6)"
    stroke-width="1"
    transform="translate(-30.0438107471,2.5279279354) scale(1,-1) translate(50,-110)"
    />
  
  <line
    x1="78.79381074719781"
    y1="-53.152927935484115"
    x2="78.79381074719781"
    y2="-48.152927935484115"
    stroke="hsla(0,50%,50%,0.6)"
    stroke-width="1"
    transform="translate(-30.0438107471,2.5279279354) scale(1,-1) translate(50,-110)"
    />
  
  <line
    x1="83.79381074719781"
    y1="-58.152927935484115"
    x2="83.79381074719781"
    y2="-53.152927935484115"
    stroke="hsla(0,50%,50%,0.6)"
    stroke-width="1"
    transform="translate(-30.0438107471,2.5279279354) scale(1,-1) translate(50,-110)"
    />
  
  <line
    x1="88.79381074719781"
    y1="-63.152927935484115"
    x2="88.79381074719781"
    y2="-58.152927935484115"
    stroke="hsla(0,50%,50%,0.6)"
    stroke-width="1"
    transform="translate(-30.0438107471,2.5279279354) scale(1,-1) translate(50,-110)"
    />
  
  <line
    x1="93.79381074719781"
    y1="-68.15292793548412"
    x2="93.79381074719781"
    y2="-63.152927935484115"
    stroke="hsla(0,50%,50%,0.6)"
    stroke-width="1"
    transform="translate(-30.0438107471,2.5279279354) scale(1,-1) translate(50,-110)"
    />
  
  <line
    x1="98.79381074719781"
    y1="-73.15292793548412"
    x2="98.79381074719781"
    y2="-68.15292793548412"
    stroke="hsla(0,50%,50%,0.6)"
    stroke-width="1"
    transform="translate(-30.0438107471,2.5279279354) scale(1,-1) translate(50,-110)"
    />
  
  <line
    x1="103.79381074719781"
    y1="-78.15292793548412"
    x2="103.79381074719781"
    y2="-73.15292793548412"
    stroke="hsla(0,50%,50%,0.6)"
    stroke-width="1"
    transform="translate(-30.0438107471,2.5279279354) scale(1,-1) translate(50,-110)"
    />
  
  <line
    x1="23.793810747197817"
    y1="1.847072064515885"
    x2="28.793810747197817"
    y2="1.847072064515885"
    stroke="hsla(0,50%,50%,0.6)"
    stroke-width="1"
    transform="translate(-30.0438107471,2.5279279354) scale(1,-1) translate(50,-110)"
    />
  
  <line
    x1="18.793810747197817"
    y1="6.847072064515885"
    x2="23.793810747197817"
    y2="6.847072064515885"
    stroke="hsla(0,50%,50%,0.6)"
    stroke-width="1"
    transform="translate(-30.0438107471,2.5279279354) scale(1,-1) translate(50,-110)"
    />
  
  <line
    x1="13.793810747197815"
    y1="11.847072064515885"
    x2="18.793810747197817"
    y2="11.847072064515885"
    stroke="hsla(0,50%,50%,0.6)"
    stroke-width="1"
    transform="translate(-30.0438107471,2.5279279354) scale(1,-1) translate(50,-110)"
    />
  
  <line
    x1="103.79381074719781"
    y1="-78.15292793548412"
    x2="3.7938107471978157"
    y2="21.847072064515885"
    stroke="hsla(0,50%,50%,0.6)"
    stroke-width="1"
    transform="translate(-30.0438107471,2.5279279354) scale(1,-1) translate(50,-110)"
    />
  
  <line
    x1="103.79381074719781"
    y1="-73.15292793548412"
    x2="8.793810747197815"
    y2="21.847072064515885"
    stroke="hsla(0,50%,50%,0.6)"
    stroke-width="1"
    transform="translate(-30.0438107471,2.5279279354) scale(1,-1) translate(50,-110)"
    />
  
  <line
    x1="8.793810747197815"
    y1="16.847072064515885"
    x2="13.793810747197815"
    y2="16.847072064515885"
    stroke="hsla(0,50%,50%,0.6)"
    stroke-width="1"
    transform="translate(-30.0438107471,2.5279279354) scale(1,-1) translate(50,-110)"
    />
  
  <line
    x1="3.7938107471978157"
    y1="21.847072064515885"
    x2="8.793810747197815"
    y2="21.847072064515885"
    stroke="hsla(0,50%,50%,0.6)"
    stroke-width="1"
    transform="translate(-30.0438107471,2.5279279354) scale(1,-1) translate(50,-110)"
    />
  
</svg>
