<?xml version="1.0"?>
<!DOCTYPE svg PUBLIC "-//W3C//DTD SVG 1.1//EN"
  "http://www.w3.org/Graphics/SVG/1.1/DTD/svg11.dtd">
<svg
  width="240"
  height="240"
  viewBox="-50 -50 200 200" xmlns="http://www.w3.org/2000/svg" version="1.1">
  <rect
    x="0"
    y="0"
    width="100"
    height="100"
    fill="hsla(206,100%,53%,0.3)"
    stroke="hsl(206,100%,53%)"
    stroke-width="3"
    transform="" />
  
  <path
    d="M 
      -75.3487713911
      -103.5725754449
      L
    
      -75.3487713911
      -98.5725754449
      L
    
      -170.3487713911
      -3.5725754449
      L
    
      -175.3487713911
      -3.5725754449
      z
    "
    fill="hsla(0,0%,50%,0.3)"
    stroke="hsla(0,0%,50%,1)"
    stroke-width="1"
    transform="translate(149.0987713911,27.9475754449) scale(1,-1) translate(50,-110)"
    />
  
  
  <line
    x1="-80.34877139110307"
    y1="-98.57257544497148"
    x2="-75.34877139110307"
    y2="-98.57257544497148"
    stroke="hsla(0,50%,50%,0.6)"
    stroke-width="1"
    transform="translate(149.0987713911,27.9475754449) scale(1,-1) translate(50,-110)"
    />
  
  <line
    x1="-85.34877139110307"
    y1="-93.57257544497148"
    x2="-80.34877139110307"
    y2="-93.57257544497148"
    stroke="hsla(0,50%,50%,0.6)"
    stroke-width="1"
    transform="translate(149.0987713911,27.9475754449) scale(1,-1) translate(50,-110)"
    />
  
  <line
    x1="-75.34877139110307"
    y1="-103.57257544497148"
    x2="-175.34877139110307"
    y2="-3.572575444971482"
    stroke="hsla(0,50%,50%,0.6)"
    stroke-width="1"
    transform="translate(149.0987713911,27.9475754449) scale(1,-1) translate(50,-110)"
    />
  
  <line
    x1="-90.34877139110307"
    y1="-88.57257544497148"
    x2="-85.34877139110307"
    y2="-88.57257544497148"
    stroke="hsla(0,50%,50%,0.6)"
    stroke-width="1"
    transform="translate(149.0987713911,27.9475754449) scale(1,-1) translate(50,-110)"
    />
  
  <line
    x1="-75.34877139110307"
    y1="-98.57257544497148"
    x2="-170.34877139110307"
    y2="-3.572575444971482"
    stroke="hsla(0,50%,50%,0.6)"
    stroke-width="1"
    transform="translate(149.0987713911,27.9475754449) scale(1,-1) translate(50,-110)"
    />
  
  <line
    x1="-95.34877139110307"
    y1="-83.57257544497148"
    x2="-90.34877139110307"
    y2="-83.57257544497148"
    stroke="hsla(0,50%,50%,0.6)"
    stroke-width="1"
    transform="translate(149.0987713911,27.9475754449) scale(1,-1) translate(50,-110)"
    />
  
  <line
    x1="-100.34877139110307"
    y1="-78.57257544497148"
    x2="-95.34877139110307"
    y2="-78.57257544497148"
    stroke="hsla(0,50%,50%,0.6)"
    stroke-width="1"
    transform="translate(149.0987713911,27.9475754449) scale(1,-1) translate(50,-110)"
    />
  
  <line
    x1="-105.34877139110307"
    y1="-73.57257544497148"
    x2="-100.34877139110307"
    y2="-73.57257544497148"
    stroke="hsla(0,50%,50%,0.6)"
    stroke-width="1"
    transform="translate(149.0987713911,27.9475754449) scale(1,-1) translate(50,-110)"
    />
  
  <line
    x1="-110.34877139110307"
    y1="-68.57257544497148"
    x2="-105.34877139110307"
    y2="-68.57257544497148"
    stroke="hsla(0,50%,50%,0.6)"
    stroke-width="1"
    transform="translate(149.0987713911,27.9475754449) scale(1,-1) translate(50,-110)"
    />
  
  <line
    x1="-115.34877139110307"
    y1="-63.572575444971484"
    x2="-110.34877139110307"
    y2="-63.572575444971484"
    stroke="hsla(0,50%,50%,0.6)"
    stroke-width="1"
    transform="translate(149.0987713911,27.9475754449) scale(1,-1) translate(50,-110)"
    />
  
  <line
    x1="-120.34877139110307"
    y1="-58.572575444971484"
    x2="-115.34877139110307"
    y2="-58.572575444971484"
    stroke="hsla(0,50%,50%,0.6)"
    stroke-width="1"
    transform="translate(149.0987713911,27.9475754449) scale(1,-1) translate(50,-110)"
    />
  
  <line
    x1="-125.34877139110307"
    y1="-53.572575444971484"
    x2="-120.34877139110307"
    y2="-53.572575444971484"
    stroke="hsla(0,50%,50%,0.6)"
    stroke-width="1"
    transform="translate(149.0987713911,27.9475754449) scale(1,-1) translate(50,-110)"
    />
  
  <line
    x1="-130.34877139110307"
    y1="-48.572575444971484"
    x2="-125.34877139110307"
    y2="-48.572575444971484"
    stroke="hsla(0,50%,50%,0.6)"
    stroke-width="1"
    transform="translate(149.0987713911,27.9475754449) scale(1,-1) translate(50,-110)"
    />
  
  <line
    x1="-135.34877139110307"
    y1="-43.572575444971484"
    x2="-130.34877139110307"
    y2="-43.572575444971484"
    stroke="hsla(0,50%,50%,0.6)"
    stroke-width="1"
    transform="translate(149.0987713911,27.9475754449) scale(1,-1) translate(50,-110)"
    />
  
  <line
    x1="-140.34877139110307"
    y1="-38.572575444971484"
    x2="-135.34877139110307"
    y2="-38.572575444971484"
    stroke="hsla(0,50%,50%,0.6)"
    stroke-width="1"
    transform="translate(149.0987713911,27.9475754449) scale(1,-1) translate(50,-110)"
    />
  
  <line
    x1="-145.34877139110307"
    y1="-33.572575444971484"
    x2="-140.34877139110307"
    y2="-33.572575444971484"
    stroke="hsla(0,50%,50%,0.6)"
    stroke-width="1"
    transform="translate(149.0987713911,27.9475754449) scale(1,-1) translate(50,-110)"
    />
  
  <line
    x1="-150.34877139110307"
    y1="-28.57257544497148"
    x2="-145.34877139110307"
    y2="-28.57257544497148"
    stroke="hsla(0,50%,50%,0.6)"
    stroke-width="1"
    transform="translate(149.0987713911,27.9475754449) scale(1,-1) translate(50,-110)"
    />
  
  <line
    x1="-155.34877139110307"
    y1="-23.57257544497148"
    x2="-150.34877139110307"
    y2="-23.57257544497148"
    stroke="hsla(0,50%,50%,0.6)"
    stroke-width="1"
    transform="translate(149.0987713911,27.9475754449) scale(1,-1) translate(50,-110)"
    />
  
  <line
    x1="-160.34877139110307"
    y1="-18.57257544497148"
    x2="-155.34877139110307"
    y2="-18.57257544497148"
    stroke="hsla(0,50%,50%,0.6)"
    stroke-width="1"
    transform="translate(149.0987713911,27.9475754449) scale(1,-1) translate(50,-110)"
    />
  
  <line
    x1="-165.34877139110307"
    y1="-13.572575444971482"
    x2="-160.34877139110307"
    y2="-13.572575444971482"
    stroke="hsla(0,50%,50%,0.6)"
    stroke-width="1"
    transform="translate(149.0987713911,27.9475754449) scale(1,-1) translate(50,-110)"
    />
  
  <line
    x1="-170.34877139110307"
    y1="-8.572575444971482"
    x2="-165.34877139110307"
    y2="-8.572575444971482"
    stroke="hsla(0,50%,50%,0.6)"
    stroke-width="1"
    transform="translate(149.0987713911,27.9475754449) scale(1,-1) translate(50,-110)"
    />
  
  <line
    x1="-175.34877139110307"
    y1="-3.572575444971482"
    x2="-170.34877139110307"
    y2="-3.572575444971482"
    stroke="hsla(0,50%,50%,0.6)"
    stroke-width="1"
    transform="translate(149.0987713911,27.9475754449) scale(1,-1) translate(50,-110)"
    />
  
  <line
    x1="-170.34877139110307"
    y1="-8.572575444971482"
    x2="-170.34877139110307"
    y2="-3.572575444971482"
    stroke="hsla(0,50%,50%,0.6)"
    stroke-width="1"
    transform="translate(149.0987713911,27.9475754449) scale(1,-1) translate(50,-110)"
    />
  
  <line
    x1="-165.34877139110307"
    y1="-13.572575444971482"
    x2="-165.34877139110307"
    y2="-8.572575444971482"
    stroke="hsla(0,50%,50%,0.6)"
    stroke-width="1"
    transform="translate(149.0987713911,27.9475754449) scale(1,-1) translate(50,-110)"
    />
  
  <line
    x1="-160.34877139110307"
    y1="-18.57257544497148"
    x2="-160.34877139110307"
    y2="-13.572575444971482"
    stroke="hsla(0,50%,50%,0.6)"
    stroke-width="1"
    transform="translate(149.0987713911,27.9475754449) scale(1,-1) translate(50,-110)"
    />
  
  <line
    x1="-155.34877139110307"
    y1="-23.57257544497148"
    x2="-155.34877139110307"
    y2="-18.57257544497148"
    stroke="hsla(0,50%,50%,0.6)"
    stroke-width="1"
    transform="translate(149.0987713911,27.9475754449) scale(1,-1) translate(50,-110)"
    />
  
  <line
    x1="-150.34877139110307"
    y1="-28.57257544497148"
    x2="-150.34877139110307"
    y2="-23.57257544497148"
    stroke="hsla(0,50%,50%,0.6)"
    stroke-width="1"
    transform="translate(149.0987713911,27.9475754449) scale(1,-1) translate(50,-110)"
    />
  
  <line
    x1="-145.34877139110307"
    y1="-33.572575444971484"
    x2="-145.34877139110307"
    y2="-28.57257544497148"
    stroke="hsla(0,50%,50%,0.6)"
    stroke-width="1"
    transform="translate(149.0987713911,27.9475754449) scale(1,-1) translate(50,-110)"
    />
  
  <line
    x1="-140.34877139110307"
    y1="-38.572575444971484"
    x2="-140.34877139110307"
    y2="-33.572575444971484"
    stroke="hsla(0,50%,50%,0.6)"
    stroke-width="1"
    transform="translate(149.0987713911,27.9475754449) scale(1,-1) translate(50,-110)"
    />
  
  <line
    x1="-135.34877139110307"
    y1="-43.572575444971484"
    x2="-135.34877139110307"
    y2="-38.572575444971484"
    stroke="hsla(0,50%,50%,0.6)"
    stroke-width="1"
    transform="translate(149.0987713911,27.9475754449) scale(1,-1) translate(50,-110)"
    />
  
  <line
    x1="-130.34877139110307"
    y1="-48.572575444971484"
    x2="-130.34877139110307"
    y2="-43.572575444971484"
    stroke="hsla(0,50%,50%,0.6)"
    stroke-width="1"
    transform="translate(149.0987713911,27.9475754449) scale(1,-1) translate(50,-110)"
    />
  
  <line
    x1="-125.34877139110307"
    y1="-53.572575444971484"
    x2="-125.34877139110307"
    y2="-48.572575444971484"
    stroke="hsla(0,50%,50%,0.6)"
    stroke-width="1"
    transform="translate(149.0987713911,27.9475754449) scale(1,-1) translate(50,-110)"
    />
  
  <line
    x1="-120.34877139110307"
    y1="-58.572575444971484"
    x2="-120.34877139110307"
    y2="-53.572575444971484"
    stroke="hsla(0,50%,50%,0.6)"
    stroke-width="1"
    transform="translate(149.0987713911,27.9475754449) scale(1,-1) translate(50,-110)"
    />
  
  <line
    x1="-115.34877139110307"
    y1="-63.572575444971484"
    x2="-115.34877139110307"
    y2="-58.572575444971484"
    stroke="hsla(0,50%,50%,0.6)"
    stroke-width="1"
    transform="translate(149.0987713911,27.9475754449) scale(1,-1) translate(50,-110)"
    />
  
  <line
    x1="-110.34877139110307"
    y1="-68.57257544497148"
    x2="-110.34877139110307"
    y2="-63.572575444971484"
    stroke="hsla(0,50%,50%,0.6)"
    stroke-width="1"
    transform="translate(149.0987713911,27.9475754449) scale(1,-1) translate(50,-110)"
    />
  
  <line
    x1="-105.34877139110307"
    y1="-73.57257544497148"
    x2="-105.34877139110307"
    y2="-68.57257544497148"
    stroke="hsla(0,50%,50%,0.6)"
    stroke-width="1"
    transform="translate(149.0987713911,27.9475754449) scale(1,-1) translate(50,-110)"
    />
  
  <line
    x1="-100.34877139110307"
    y1="-78.57257544497148"
    x2="-100.34877139110307"
    y2="-73.57257544497148"
    stroke="hsla(0,50%,50%,0.6)"
    stroke-width="1"
    transform="translate(149.0987713911,27.9475754449) scale(1,-1) translate(50,-110)"
    />
  
  <line
    x1="-95.34877139110307"
    y1="-83.57257544497148"
    x2="-95.34877139110307"
    y2="-78.57257544497148"
    stroke="hsla(0,50%,50%,0.6)"
    stroke-width="1"
    transform="translate(149.0987713911,27.9475754449) scale(1,-1) translate(50,-110)"
    />
  
  <line
    x1="-90.34877139110307"
    y1="-88.57257544497148"
    x2="-90.34877139110307"
    y2="-83.57257544497148"
    stroke="hsla(0,50%,50%,0.6)"
    stroke-width="1"
    transform="translate(149.0987713911,27.9475754449) scale(1,-1) translate(50,-110)"
    />
  
  <line
    x1="-85.34877139110307"
    y1="-93.57257544497148"
    x2="-85.34877139110307"
    y2="-88.57257544497148"
    stroke="hsla(0,50%,50%,0.6)"
    stroke-width="1"
    transform="translate(149.0987713911,27.9475754449) scale(1,-1) translate(50,-110)"
    />
  
  <line
    x1="-80.34877139110307"
    y1="-98.57257544497148"
    x2="-80.34877139110307"
    y2="-93.57257544497148"
    stroke="hsla(0,50%,50%,0.6)"
    stroke-width="1"
    transform="translate(149.0987713911,27.9475754449) scale(1,-1) translate(50,-110)"
    />
  
  <line
    x1="-75.34877139110307"
    y1="-103.57257544497148"
    x2="-75.34877139110307"
    y2="-98.57257544497148"
    stroke="hsla(0,50%,50%,0.6)"
    stroke-width="1"
    transform="translate(149.0987713911,27.9475754449) scale(1,-1) translate(50,-110)"
    />
  
</svg>
