<?xml version="1.0"?>
<!DOCTYPE svg PUBLIC "-//W3C//DTD SVG 1.1//EN"
  "http://www.w3.org/Graphics/SVG/1.1/DTD/svg11.dtd">
<svg
  width="240"
  height="240"
  viewBox="-50 -50 200 200" xmlns="http://www.w3.org/2000/svg" version="1.1">
  <rect
    x="0"
    y="0"
    width="100"
    height="100"
    fill="hsla(206,100%,53%,0.3)"
    stroke="hsl(206,100%,53%)"
    stroke-width="3"
    transform="" />
  
  <path
    d="M 
      16.3564584188
      113.3621090321
      L
    
      16.3564584188
      118.3621090321
      L
    
      -78.6435415811
      213.3621090321
      L
    
      -83.6435415811
      213.3621090321
      z
    "
    fill="hsla(0,0%,50%,0.3)"
    stroke="hsla(0,0%,50%,1)"
    stroke-width="1"
    transform="translate(57.3935415811,-188.9871090321) scale(1,-1) translate(50,-110)"
    />
  
  
  <line
    x1="-78.64354158114458"
    y1="208.3621090321994"
    x2="-78.64354158114458"
    y2="213.3621090321994"
    stroke="hsla(0,50%,50%,0.6)"
    stroke-width="1"
    transform="translate(57.3935415811,-188.9871090321) scale(1,-1) translate(50,-110)"
    />
  
  <line
    x1="-73.64354158114458"
    y1="203.3621090321994"
    x2="-73.64354158114458"
    y2="208.3621090321994"
    stroke="hsla(0,50%,50%,0.6)"
    stroke-width="1"
    transform="translate(57.3935415811,-188.9871090321) scale(1,-1) translate(50,-110)"
    />
  
  <line
    x1="-68.64354158114458"
    y1="198.3621090321994"
    x2="-68.64354158114458"
    y2="203.3621090321994"
    stroke="hsla(0,50%,50%,0.6)"
    stroke-width="1"
    transform="translate(57.3935415811,-188.9871090321) scale(1,-1) translate(50,-110)"
    />
  
  <line
    x1="-63.64354158114458"
    y1="193.3621090321994"
    x2="-63.64354158114458"
    y2="198.3621090321994"
    stroke="hsla(0,50%,50%,0.6)"
    stroke-width="1"
    transform="translate(57.3935415811,-188.9871090321) scale(1,-1) translate(50,-110)"
    />
  
  <line
    x1="-58.64354158114458"
    y1="188.3621090321994"
    x2="-58.64354158114458"
    y2="193.3621090321994"
    stroke="hsla(0,50%,50%,0.6)"
    stroke-width="1"
    transform="translate(57.3935415811,-188.9871090321) scale(1,-1) translate(50,-110)"
    />
  
  <line
    x1="-53.64354158114458"
    y1="183.3621090321994"
    x2="-53.64354158114458"
    y2="188.3621090321994"
    stroke="hsla(0,50%,50%,0.6)"
    stroke-width="1"
    transform="translate(57.3935415811,-188.9871090321) scale(1,-1) translate(50,-110)"
    />
  
  <line
    x1="-48.64354158114458"
    y1="178.3621090321994"
    x2="-48.64354158114458"
    y2="183.3621090321994"
    stroke="hsla(0,50%,50%,0.6)"
    stroke-width="1"
    transform="translate(57.3935415811,-188.9871090321) scale(1,-1) translate(50,-110)"
    />
  
  <line
    x1="-43.64354158114458"
    y1="173.3621090321994"
    x2="-43.64354158114458"
    y2="178.3621090321994"
    stroke="hsla(0,50%,50%,0.6)"
    stroke-width="1"
    transform="translate(57.3935415811,-188.9871090321) scale(1,-1) translate(50,-110)"
    />
  
  <line
    x1="-38.64354158114458"
    y1="168.3621090321994"
    x2="-38.64354158114458"
    y2="173.3621090321994"
    stroke="hsla(0,50%,50%,0.6)"
    stroke-width="1"
    transform="translate(57.3935415811,-188.9871090321) scale(1,-1) translate(50,-110)"
    />
  
  <line
    x1="-33.64354158114458"
    y1="163.3621090321994"
    x2="-33.64354158114458"
    y2="168.3621090321994"
    stroke="hsla(0,50%,50%,0.6)"
    stroke-width="1"
    transform="translate(57.3935415811,-188.9871090321) scale(1,-1) translate(50,-110)"
    />
  
  <line
    x1="-28.643541581144582"
    y1="158.3621090321994"
    x2="-28.643541581144582"
    y2="163.3621090321994"
    stroke="hsla(0,50%,50%,0.6)"
    stroke-width="1"
    transform="translate(57.3935415811,-188.9871090321) scale(1,-1) translate(50,-110)"
    />
  
  <line
    x1="-23.643541581144582"
    y1="153.3621090321994"
    x2="-23.643541581144582"
    y2="158.3621090321994"
    stroke="hsla(0,50%,50%,0.6)"
    stroke-width="1"
    transform="translate(57.3935415811,-188.9871090321) scale(1,-1) translate(50,-110)"
    />
  
  <line
    x1="-18.643541581144582"
    y1="148.3621090321994"
    x2="-18.643541581144582"
    y2="153.3621090321994"
    stroke="hsla(0,50%,50%,0.6)"
    stroke-width="1"
    transform="translate(57.3935415811,-188.9871090321) scale(1,-1) translate(50,-110)"
    />
  
  <line
    x1="-13.643541581144582"
    y1="143.3621090321994"
    x2="-13.643541581144582"
    y2="148.3621090321994"
    stroke="hsla(0,50%,50%,0.6)"
    stroke-width="1"
    transform="translate(57.3935415811,-188.9871090321) scale(1,-1) translate(50,-110)"
    />
  
  <line
    x1="-8.643541581144582"
    y1="138.3621090321994"
    x2="-8.643541581144582"
    y2="143.3621090321994"
    stroke="hsla(0,50%,50%,0.6)"
    stroke-width="1"
    transform="translate(57.3935415811,-188.9871090321) scale(1,-1) translate(50,-110)"
    />
  
  <line
    x1="-3.6435415811445813"
    y1="133.3621090321994"
    x2="-3.6435415811445813"
    y2="138.3621090321994"
    stroke="hsla(0,50%,50%,0.6)"
    stroke-width="1"
    transform="translate(57.3935415811,-188.9871090321) scale(1,-1) translate(50,-110)"
    />
  
  <line
    x1="1.3564584188554185"
    y1="128.3621090321994"
    x2="1.3564584188554185"
    y2="133.3621090321994"
    stroke="hsla(0,50%,50%,0.6)"
    stroke-width="1"
    transform="translate(57.3935415811,-188.9871090321) scale(1,-1) translate(50,-110)"
    />
  
  <line
    x1="6.356458418855419"
    y1="123.36210903219941"
    x2="6.356458418855419"
    y2="128.3621090321994"
    stroke="hsla(0,50%,50%,0.6)"
    stroke-width="1"
    transform="translate(57.3935415811,-188.9871090321) scale(1,-1) translate(50,-110)"
    />
  
  <line
    x1="11.356458418855418"
    y1="118.36210903219941"
    x2="11.356458418855418"
    y2="123.36210903219941"
    stroke="hsla(0,50%,50%,0.6)"
    stroke-width="1"
    transform="translate(57.3935415811,-188.9871090321) scale(1,-1) translate(50,-110)"
    />
  
  <line
    x1="16.356458418855418"
    y1="113.36210903219941"
    x2="16.356458418855418"
    y2="118.36210903219941"
    stroke="hsla(0,50%,50%,0.6)"
    stroke-width="1"
    transform="translate(57.3935415811,-188.9871090321) scale(1,-1) translate(50,-110)"
    />
  
  <line
    x1="16.356458418855418"
    y1="113.36210903219941"
    x2="-83.64354158114458"
    y2="213.3621090321994"
    stroke="hsla(0,50%,50%,0.6)"
    stroke-width="1"
    transform="translate(57.3935415811,-188.9871090321) scale(1,-1) translate(50,-110)"
    />
  
  <line
    x1="16.356458418855418"
    y1="118.36210903219941"
    x2="-78.64354158114458"
    y2="213.3621090321994"
    stroke="hsla(0,50%,50%,0.6)"
    stroke-width="1"
    transform="translate(57.3935415811,-188.9871090321) scale(1,-1) translate(50,-110)"
    />
  
  <line
    x1="11.356458418855418"
    y1="118.36210903219941"
    x2="16.356458418855418"
    y2="118.36210903219941"
    stroke="hsla(0,50%,50%,0.6)"
    stroke-width="1"
    transform="translate(57.3935415811,-188.9871090321) scale(1,-1) translate(50,-110)"
    />
  
  <line
    x1="6.356458418855419"
    y1="123.36210903219941"
    x2="11.356458418855418"
    y2="123.36210903219941"
    stroke="hsla(0,50%,50%,0.6)"
    stroke-width="1"
    transform="translate(57.3935415811,-188.9871090321) scale(1,-1) translate(50,-110)"
    />
  
  <line
    x1="1.3564584188554185"
    y1="128.3621090321994"
    x2="6.356458418855419"
    y2="128.3621090321994"
    stroke="hsla(0,50%,50%,0.6)"
    stroke-width="1"
    transform="translate(57.3935415811,-188.9871090321) scale(1,-1) translate(50,-110)"
    />
  
  <line
    x1="-3.6435415811445813"
    y1="133.3621090321994"
    x2="1.3564584188554185"
    y2="133.3621090321994"
    stroke="hsla(0,50%,50%,0.6)"
    stroke-width="1"
    transform="translate(57.3935415811,-188.9871090321) scale(1,-1) translate(50,-110)"
    />
  
  <line
    x1="-8.643541581144582"
    y1="138.3621090321994"
    x2="-3.6435415811445813"
    y2="138.3621090321994"
    stroke="hsla(0,50%,50%,0.6)"
    stroke-width="1"
    transform="translate(57.3935415811,-188.9871090321) scale(1,-1) translate(50,-110)"
    />
  
  <line
    x1="-13.643541581144582"
    y1="143.3621090321994"
    x2="-8.643541581144582"
    y2="143.3621090321994"
    stroke="hsla(0,50%,50%,0.6)"
    stroke-width="1"
    transform="translate(57.3935415811,-188.9871090321) scale(1,-1) translate(50,-110)"
    />
  
  <line
    x1="-18.643541581144582"
    y1="148.3621090321994"
    x2="-13.643541581144582"
    y2="148.3621090321994"
    stroke="hsla(0,50%,50%,0.6)"
    stroke-width="1"
    transform="translate(57.3935415811,-188.9871090321) scale(1,-1) translate(50,-110)"
    />
  
  <line
    x1="-23.643541581144582"
    y1="153.3621090321994"
    x2="-18.643541581144582"
    y2="153.3621090321994"
    stroke="hsla(0,50%,50%,0.6)"
    stroke-width="1"
    transform="translate(57.3935415811,-188.9871090321) scale(1,-1) translate(50,-110)"
    />
  
  <line
    x1="-28.643541581144582"
    y1="158.3621090321994"
    x2="-23.643541581144582"
    y2="158.3621090321994"
    stroke="hsla(0,50%,50%,0.6)"
    stroke-width="1"
    transform="translate(57.3935415811,-188.9871090321) scale(1,-1) translate(50,-110)"
    />
  
  <line
    x1="-33.64354158114458"
    y1="163.3621090321994"
    x2="-28.643541581144582"
    y2="163.3621090321994"
    stroke="hsla(0,50%,50%,0.6)"
    stroke-width="1"
    transform="translate(57.3935415811,-188.9871090321) scale(1,-1) translate(50,-110)"
    />
  
  <line
    x1="-38.64354158114458"
    y1="168.3621090321994"
    x2="-33.64354158114458"
    y2="168.3621090321994"
    stroke="hsla(0,50%,50%,0.6)"
    stroke-width="1"
    transform="translate(57.3935415811,-188.9871090321) scale(1,-1) translate(50,-110)"
    />
  
  <line
    x1="-43.64354158114458"
    y1="173.3621090321994"
    x2="-38.64354158114458"
    y2="173.3621090321994"
    stroke="hsla(0,50%,50%,0.6)"
    stroke-width="1"
    transform="translate(57.3935415811,-188.9871090321) scale(1,-1) translate(50,-110)"
    />
  
  <line
    x1="-48.64354158114458"
    y1="178.3621090321994"
    x2="-43.64354158114458"
    y2="178.3621090321994"
    stroke="hsla(0,50%,50%,0.6)"
    stroke-width="1"
    transform="translate(57.3935415811,-188.9871090321) scale(1,-1) translate(50,-110)"
    />
  
  <line
    x1="-53.64354158114458"
    y1="183.3621090321994"
    x2="-48.64354158114458"
    y2="183.3621090321994"
    stroke="hsla(0,50%,50%,0.6)"
    stroke-width="1"
    transform="translate(57.3935415811,-188.9871090321) scale(1,-1) translate(50,-110)"
    />
  
  <line
    x1="-58.64354158114458"
    y1="188.3621090321994"
    x2="-53.64354158114458"
    y2="188.3621090321994"
    stroke="hsla(0,50%,50%,0.6)"
    stroke-width="1"
    transform="translate(57.3935415811,-188.9871090321) scale(1,-1) translate(50,-110)"
    />
  
  <line
    x1="-63.64354158114458"
    y1="193.3621090321994"
    x2="-58.64354158114458"
    y2="193.3621090321994"
    stroke="hsla(0,50%,50%,0.6)"
    stroke-width="1"
    transform="translate(57.3935415811,-188.9871090321) scale(1,-1) translate(50,-110)"
    />
  
  <line
    x1="-68.64354158114458"
    y1="198.3621090321994"
    x2="-63.64354158114458"
    y2="198.3621090321994"
    stroke="hsla(0,50%,50%,0.6)"
    stroke-width="1"
    transform="translate(57.3935415811,-188.9871090321) scale(1,-1) translate(50,-110)"
    />
  
  <line
    x1="-73.64354158114458"
    y1="203.3621090321994"
    x2="-68.64354158114458"
    y2="203.3621090321994"
    stroke="hsla(0,50%,50%,0.6)"
    stroke-width="1"
    transform="translate(57.3935415811,-188.9871090321) scale(1,-1) translate(50,-110)"
    />
  
  <line
    x1="-78.64354158114458"
    y1="208.3621090321994"
    x2="-73.64354158114458"
    y2="208.3621090321994"
    stroke="hsla(0,50%,50%,0.6)"
    stroke-width="1"
    transform="translate(57.3935415811,-188.9871090321) scale(1,-1) translate(50,-110)"
    />
  
  <line
    x1="-83.64354158114458"
    y1="213.3621090321994"
    x2="-78.64354158114458"
    y2="213.3621090321994"
    stroke="hsla(0,50%,50%,0.6)"
    stroke-width="1"
    transform="translate(57.3935415811,-188.9871090321) scale(1,-1) translate(50,-110)"
    />
  
</svg>
