<?xml version="1.0"?>
<!DOCTYPE svg PUBLIC "-//W3C//DTD SVG 1.1//EN"
  "http://www.w3.org/Graphics/SVG/1.1/DTD/svg11.dtd">
<svg
  width="240"
  height="240"
  viewBox="-500 -500 1000 1000" xmlns="http://www.w3.org/2000/svg" version="1.1">
  <rect
    x="0"
    y="0"
    width="100"
    height="100"
    fill="hsla(206,100%,53%,0.3)"
    stroke="hsl(206,100%,53%)"
    stroke-width="3"
    transform="" />
  
  <path
    d="M 
      460.7314820931
      -60.5754755752
      L
    
      460.7314820931
      -55.5754755752
      L
    
      365.7314820931
      39.4245244247
      L
    
      360.7314820931
      39.4245244247
      z
    "
    fill="hsla(0,0%,50%,0.3)"
    stroke="hsla(0,0%,50%,1)"
    stroke-width="1"
    transform="translate(-410.7314820931,10.5754755752)"
    />
  
  
  <line
    x1="455.731482093113"
    y1="-55.57547557522367"
    x2="460.731482093113"
    y2="-55.57547557522367"
    stroke="hsla(0,50%,50%,0.6)"
    stroke-width="1"
    transform="translate(-410.7314820931,10.5754755752)"
    />
  
  <line
    x1="450.731482093113"
    y1="-50.57547557522367"
    x2="455.731482093113"
    y2="-50.57547557522367"
    stroke="hsla(0,50%,50%,0.6)"
    stroke-width="1"
    transform="translate(-410.7314820931,10.5754755752)"
    />
  
  <line
    x1="445.731482093113"
    y1="-45.57547557522367"
    x2="450.731482093113"
    y2="-45.57547557522367"
    stroke="hsla(0,50%,50%,0.6)"
    stroke-width="1"
    transform="translate(-410.7314820931,10.5754755752)"
    />
  
  <line
    x1="440.731482093113"
    y1="-40.57547557522367"
    x2="445.731482093113"
    y2="-40.57547557522367"
    stroke="hsla(0,50%,50%,0.6)"
    stroke-width="1"
    transform="translate(-410.7314820931,10.5754755752)"
    />
  
  <line
    x1="435.731482093113"
    y1="-35.57547557522367"
    x2="440.731482093113"
    y2="-35.57547557522367"
    stroke="hsla(0,50%,50%,0.6)"
    stroke-width="1"
    transform="translate(-410.7314820931,10.5754755752)"
    />
  
  <line
    x1="430.731482093113"
    y1="-30.57547557522367"
    x2="435.731482093113"
    y2="-30.57547557522367"
    stroke="hsla(0,50%,50%,0.6)"
    stroke-width="1"
    transform="translate(-410.7314820931,10.5754755752)"
    />
  
  <line
    x1="425.731482093113"
    y1="-25.57547557522367"
    x2="430.731482093113"
    y2="-25.57547557522367"
    stroke="hsla(0,50%,50%,0.6)"
    stroke-width="1"
    transform="translate(-410.7314820931,10.5754755752)"
    />
  
  <line
    x1="420.731482093113"
    y1="-20.57547557522367"
    x2="425.731482093113"
    y2="-20.57547557522367"
    stroke="hsla(0,50%,50%,0.6)"
    stroke-width="1"
    transform="translate(-410.7314820931,10.5754755752)"
    />
  
  <line
    x1="415.731482093113"
    y1="-15.57547557522367"
    x2="420.731482093113"
    y2="-15.57547557522367"
    stroke="hsla(0,50%,50%,0.6)"
    stroke-width="1"
    transform="translate(-410.7314820931,10.5754755752)"
    />
  
  <line
    x1="410.731482093113"
    y1="-10.57547557522367"
    x2="415.731482093113"
    y2="-10.57547557522367"
    stroke="hsla(0,50%,50%,0.6)"
    stroke-width="1"
    transform="translate(-410.7314820931,10.5754755752)"
    />
  
  <line
    x1="405.731482093113"
    y1="-5.57547557522367"
    x2="410.731482093113"
    y2="-5.57547557522367"
    stroke="hsla(0,50%,50%,0.6)"
    stroke-width="1"
    transform="translate(-410.7314820931,10.5754755752)"
    />
  
  <line
    x1="400.731482093113"
    y1="-0.5754755752236708"
    x2="405.731482093113"
    y2="-0.5754755752236708"
    stroke="hsla(0,50%,50%,0.6)"
    stroke-width="1"
    transform="translate(-410.7314820931,10.5754755752)"
    />
  
  <line
    x1="365.731482093113"
    y1="34.42452442477633"
    x2="365.731482093113"
    y2="39.42452442477633"
    stroke="hsla(0,50%,50%,0.6)"
    stroke-width="1"
    transform="translate(-410.7314820931,10.5754755752)"
    />
  
  <line
    x1="370.731482093113"
    y1="29.42452442477633"
    x2="370.731482093113"
    y2="34.42452442477633"
    stroke="hsla(0,50%,50%,0.6)"
    stroke-width="1"
    transform="translate(-410.7314820931,10.5754755752)"
    />
  
  <line
    x1="375.731482093113"
    y1="24.42452442477633"
    x2="375.731482093113"
    y2="29.42452442477633"
    stroke="hsla(0,50%,50%,0.6)"
    stroke-width="1"
    transform="translate(-410.7314820931,10.5754755752)"
    />
  
  <line
    x1="380.731482093113"
    y1="19.42452442477633"
    x2="380.731482093113"
    y2="24.42452442477633"
    stroke="hsla(0,50%,50%,0.6)"
    stroke-width="1"
    transform="translate(-410.7314820931,10.5754755752)"
    />
  
  <line
    x1="385.731482093113"
    y1="14.42452442477633"
    x2="385.731482093113"
    y2="19.42452442477633"
    stroke="hsla(0,50%,50%,0.6)"
    stroke-width="1"
    transform="translate(-410.7314820931,10.5754755752)"
    />
  
  <line
    x1="390.731482093113"
    y1="9.42452442477633"
    x2="390.731482093113"
    y2="14.42452442477633"
    stroke="hsla(0,50%,50%,0.6)"
    stroke-width="1"
    transform="translate(-410.7314820931,10.5754755752)"
    />
  
  <line
    x1="395.731482093113"
    y1="4.42452442477633"
    x2="395.731482093113"
    y2="9.42452442477633"
    stroke="hsla(0,50%,50%,0.6)"
    stroke-width="1"
    transform="translate(-410.7314820931,10.5754755752)"
    />
  
  <line
    x1="400.731482093113"
    y1="-0.5754755752236708"
    x2="400.731482093113"
    y2="4.42452442477633"
    stroke="hsla(0,50%,50%,0.6)"
    stroke-width="1"
    transform="translate(-410.7314820931,10.5754755752)"
    />
  
  <line
    x1="405.731482093113"
    y1="-5.57547557522367"
    x2="405.731482093113"
    y2="-0.5754755752236708"
    stroke="hsla(0,50%,50%,0.6)"
    stroke-width="1"
    transform="translate(-410.7314820931,10.5754755752)"
    />
  
  <line
    x1="410.731482093113"
    y1="-10.57547557522367"
    x2="410.731482093113"
    y2="-5.57547557522367"
    stroke="hsla(0,50%,50%,0.6)"
    stroke-width="1"
    transform="translate(-410.7314820931,10.5754755752)"
    />
  
  <line
    x1="415.731482093113"
    y1="-15.57547557522367"
    x2="415.731482093113"
    y2="-10.57547557522367"
    stroke="hsla(0,50%,50%,0.6)"
    stroke-width="1"
    transform="translate(-410.7314820931,10.5754755752)"
    />
  
  <line
    x1="420.731482093113"
    y1="-20.57547557522367"
    x2="420.731482093113"
    y2="-15.57547557522367"
    stroke="hsla(0,50%,50%,0.6)"
    stroke-width="1"
    transform="translate(-410.7314820931,10.5754755752)"
    />
  
  <line
    x1="425.731482093113"
    y1="-25.57547557522367"
    x2="425.731482093113"
    y2="-20.57547557522367"
    stroke="hsla(0,50%,50%,0.6)"
    stroke-width="1"
    transform="translate(-410.7314820931,10.5754755752)"
    />
  
  <line
    x1="430.731482093113"
    y1="-30.57547557522367"
    x2="430.731482093113"
    y2="-25.57547557522367"
    stroke="hsla(0,50%,50%,0.6)"
    stroke-width="1"
    transform="translate(-410.7314820931,10.5754755752)"
    />
  
  <line
    x1="435.731482093113"
    y1="-35.57547557522367"
    x2="435.731482093113"
    y2="-30.57547557522367"
    stroke="hsla(0,50%,50%,0.6)"
    stroke-width="1"
    transform="translate(-410.7314820931,10.5754755752)"
    />
  
  <line
    x1="440.731482093113"
    y1="-40.57547557522367"
    x2="440.731482093113"
    y2="-35.57547557522367"
    stroke="hsla(0,50%,50%,0.6)"
    stroke-width="1"
    transform="translate(-410.7314820931,10.5754755752)"
    />
  
  <line
    x1="445.731482093113"
    y1="-45.57547557522367"
    x2="445.731482093113"
    y2="-40.57547557522367"
    stroke="hsla(0,50%,50%,0.6)"
    stroke-width="1"
    transform="translate(-410.7314820931,10.5754755752)"
    />
  
  <line
    x1="450.731482093113"
    y1="-50.57547557522367"
    x2="450.731482093113"
    y2="-45.57547557522367"
    stroke="hsla(0,50%,50%,0.6)"
    stroke-width="1"
    transform="translate(-410.7314820931,10.5754755752)"
    />
  
  <line
    x1="455.731482093113"
    y1="-55.57547557522367"
    x2="455.731482093113"
    y2="-50.57547557522367"
    stroke="hsla(0,50%,50%,0.6)"
    stroke-width="1"
    transform="translate(-410.7314820931,10.5754755752)"
    />
  
  <line
    x1="460.731482093113"
    y1="-60.57547557522367"
    x2="460.731482093113"
    y2="-55.57547557522367"
    stroke="hsla(0,50%,50%,0.6)"
    stroke-width="1"
    transform="translate(-410.7314820931,10.5754755752)"
    />
  
  <line
    x1="395.731482093113"
    y1="4.42452442477633"
    x2="400.731482093113"
    y2="4.42452442477633"
    stroke="hsla(0,50%,50%,0.6)"
    stroke-width="1"
    transform="translate(-410.7314820931,10.5754755752)"
    />
  
  <line
    x1="390.731482093113"
    y1="9.42452442477633"
    x2="395.731482093113"
    y2="9.42452442477633"
    stroke="hsla(0,50%,50%,0.6)"
    stroke-width="1"
    transform="translate(-410.7314820931,10.5754755752)"
    />
  
  <line
    x1="385.731482093113"
    y1="14.42452442477633"
    x2="390.731482093113"
    y2="14.42452442477633"
    stroke="hsla(0,50%,50%,0.6)"
    stroke-width="1"
    transform="translate(-410.7314820931,10.5754755752)"
    />
  
  <line
    x1="380.731482093113"
    y1="19.42452442477633"
    x2="385.731482093113"
    y2="19.42452442477633"
    stroke="hsla(0,50%,50%,0.6)"
    stroke-width="1"
    transform="translate(-410.7314820931,10.5754755752)"
    />
  
  <line
    x1="375.731482093113"
    y1="24.42452442477633"
    x2="380.731482093113"
    y2="24.42452442477633"
    stroke="hsla(0,50%,50%,0.6)"
    stroke-width="1"
    transform="translate(-410.7314820931,10.5754755752)"
    />
  
  <line
    x1="370.731482093113"
    y1="29.42452442477633"
    x2="375.731482093113"
    y2="29.42452442477633"
    stroke="hsla(0,50%,50%,0.6)"
    stroke-width="1"
    transform="translate(-410.7314820931,10.5754755752)"
    />
  
  <line
    x1="365.731482093113"
    y1="34.42452442477633"
    x2="370.731482093113"
    y2="34.42452442477633"
    stroke="hsla(0,50%,50%,0.6)"
    stroke-width="1"
    transform="translate(-410.7314820931,10.5754755752)"
    />
  
  <line
    x1="360.731482093113"
    y1="39.42452442477633"
    x2="365.731482093113"
    y2="39.42452442477633"
    stroke="hsla(0,50%,50%,0.6)"
    stroke-width="1"
    transform="translate(-410.7314820931,10.5754755752)"
    />
  
  <line
    x1="460.731482093113"
    y1="-60.57547557522367"
    x2="360.731482093113"
    y2="39.42452442477633"
    stroke="hsla(0,50%,50%,0.6)"
    stroke-width="1"
    transform="translate(-410.7314820931,10.5754755752)"
    />
  
  <line
    x1="460.731482093113"
    y1="-55.57547557522367"
    x2="365.731482093113"
    y2="39.42452442477633"
    stroke="hsla(0,50%,50%,0.6)"
    stroke-width="1"
    transform="translate(-410.7314820931,10.5754755752)"
    />
  
</svg>
