<?xml version="1.0"?>
<!DOCTYPE svg PUBLIC "-//W3C//DTD SVG 1.1//EN"
  "http://www.w3.org/Graphics/SVG/1.1/DTD/svg11.dtd">
<svg
  width="240"
  height="240"
  viewBox="-50 -50 200 200" xmlns="http://www.w3.org/2000/svg" version="1.1">
  <rect
    x="0"
    y="0"
    width="100"
    height="100"
    fill="hsla(206,100%,53%,0.3)"
    stroke="hsl(206,100%,53%)"
    stroke-width="3"
    transform="" />
  
  <path
    d="M 
      -20.9446026569
      34.2888920217
      L
    
      -20.9446026569
      39.2888920217
      L
    
      -115.9446026569
      134.2888920217
      L
    
      -120.9446026569
      134.2888920217
      z
    "
    fill="hsla(0,0%,50%,0.3)"
    stroke="hsla(0,0%,50%,1)"
    stroke-width="1"
    transform="translate(94.6946026569,-109.9138920217) scale(1,-1) translate(50,-110)"
    />
  
  
  <line
    x1="-115.9446026569809"
    y1="129.28889202171925"
    x2="-115.9446026569809"
    y2="134.28889202171925"
    stroke="hsla(0,50%,50%,0.6)"
    stroke-width="1"
    transform="translate(94.6946026569,-109.9138920217) scale(1,-1) translate(50,-110)"
    />
  
  <line
    x1="-110.9446026569809"
    y1="124.28889202171925"
    x2="-110.9446026569809"
    y2="129.28889202171925"
    stroke="hsla(0,50%,50%,0.6)"
    stroke-width="1"
    transform="translate(94.6946026569,-109.9138920217) scale(1,-1) translate(50,-110)"
    />
  
  <line
    x1="-105.9446026569809"
    y1="119.28889202171925"
    x2="-105.9446026569809"
    y2="124.28889202171925"
    stroke="hsla(0,50%,50%,0.6)"
    stroke-width="1"
    transform="translate(94.6946026569,-109.9138920217) scale(1,-1) translate(50,-110)"
    />
  
  <line
    x1="-100.9446026569809"
    y1="114.28889202171925"
    x2="-100.9446026569809"
    y2="119.28889202171925"
    stroke="hsla(0,50%,50%,0.6)"
    stroke-width="1"
    transform="translate(94.6946026569,-109.9138920217) scale(1,-1) translate(50,-110)"
    />
  
  <line
    x1="-95.9446026569809"
    y1="109.28889202171925"
    x2="-95.9446026569809"
    y2="114.28889202171925"
    stroke="hsla(0,50%,50%,0.6)"
    stroke-width="1"
    transform="translate(94.6946026569,-109.9138920217) scale(1,-1) translate(50,-110)"
    />
  
  <line
    x1="-90.9446026569809"
    y1="104.28889202171925"
    x2="-90.9446026569809"
    y2="109.28889202171925"
    stroke="hsla(0,50%,50%,0.6)"
    stroke-width="1"
    transform="translate(94.6946026569,-109.9138920217) scale(1,-1) translate(50,-110)"
    />
  
  <line
    x1="-85.9446026569809"
    y1="99.28889202171925"
    x2="-85.9446026569809"
    y2="104.28889202171925"
    stroke="hsla(0,50%,50%,0.6)"
    stroke-width="1"
    transform="translate(94.6946026569,-109.9138920217) scale(1,-1) translate(50,-110)"
    />
  
  <line
    x1="-80.9446026569809"
    y1="94.28889202171925"
    x2="-80.9446026569809"
    y2="99.28889202171925"
    stroke="hsla(0,50%,50%,0.6)"
    stroke-width="1"
    transform="translate(94.6946026569,-109.9138920217) scale(1,-1) translate(50,-110)"
    />
  
  <line
    x1="-75.9446026569809"
    y1="89.28889202171925"
    x2="-75.9446026569809"
    y2="94.28889202171925"
    stroke="hsla(0,50%,50%,0.6)"
    stroke-width="1"
    transform="translate(94.6946026569,-109.9138920217) scale(1,-1) translate(50,-110)"
    />
  
  <line
    x1="-70.9446026569809"
    y1="84.28889202171925"
    x2="-70.9446026569809"
    y2="89.28889202171925"
    stroke="hsla(0,50%,50%,0.6)"
    stroke-width="1"
    transform="translate(94.6946026569,-109.9138920217) scale(1,-1) translate(50,-110)"
    />
  
  <line
    x1="-65.9446026569809"
    y1="79.28889202171925"
    x2="-65.9446026569809"
    y2="84.28889202171925"
    stroke="hsla(0,50%,50%,0.6)"
    stroke-width="1"
    transform="translate(94.6946026569,-109.9138920217) scale(1,-1) translate(50,-110)"
    />
  
  <line
    x1="-60.944602656980905"
    y1="74.28889202171925"
    x2="-60.944602656980905"
    y2="79.28889202171925"
    stroke="hsla(0,50%,50%,0.6)"
    stroke-width="1"
    transform="translate(94.6946026569,-109.9138920217) scale(1,-1) translate(50,-110)"
    />
  
  <line
    x1="-55.944602656980905"
    y1="69.28889202171925"
    x2="-55.944602656980905"
    y2="74.28889202171925"
    stroke="hsla(0,50%,50%,0.6)"
    stroke-width="1"
    transform="translate(94.6946026569,-109.9138920217) scale(1,-1) translate(50,-110)"
    />
  
  <line
    x1="-50.944602656980905"
    y1="64.28889202171925"
    x2="-50.944602656980905"
    y2="69.28889202171925"
    stroke="hsla(0,50%,50%,0.6)"
    stroke-width="1"
    transform="translate(94.6946026569,-109.9138920217) scale(1,-1) translate(50,-110)"
    />
  
  <line
    x1="-45.944602656980905"
    y1="59.28889202171925"
    x2="-45.944602656980905"
    y2="64.28889202171925"
    stroke="hsla(0,50%,50%,0.6)"
    stroke-width="1"
    transform="translate(94.6946026569,-109.9138920217) scale(1,-1) translate(50,-110)"
    />
  
  <line
    x1="-40.944602656980905"
    y1="54.28889202171925"
    x2="-40.944602656980905"
    y2="59.28889202171925"
    stroke="hsla(0,50%,50%,0.6)"
    stroke-width="1"
    transform="translate(94.6946026569,-109.9138920217) scale(1,-1) translate(50,-110)"
    />
  
  <line
    x1="-35.944602656980905"
    y1="49.28889202171925"
    x2="-35.944602656980905"
    y2="54.28889202171925"
    stroke="hsla(0,50%,50%,0.6)"
    stroke-width="1"
    transform="translate(94.6946026569,-109.9138920217) scale(1,-1) translate(50,-110)"
    />
  
  <line
    x1="-30.94460265698091"
    y1="44.28889202171925"
    x2="-30.94460265698091"
    y2="49.28889202171925"
    stroke="hsla(0,50%,50%,0.6)"
    stroke-width="1"
    transform="translate(94.6946026569,-109.9138920217) scale(1,-1) translate(50,-110)"
    />
  
  <line
    x1="-25.94460265698091"
    y1="39.28889202171925"
    x2="-25.94460265698091"
    y2="44.28889202171925"
    stroke="hsla(0,50%,50%,0.6)"
    stroke-width="1"
    transform="translate(94.6946026569,-109.9138920217) scale(1,-1) translate(50,-110)"
    />
  
  <line
    x1="-20.94460265698091"
    y1="34.28889202171925"
    x2="-20.94460265698091"
    y2="39.28889202171925"
    stroke="hsla(0,50%,50%,0.6)"
    stroke-width="1"
    transform="translate(94.6946026569,-109.9138920217) scale(1,-1) translate(50,-110)"
    />
  
  <line
    x1="-20.94460265698091"
    y1="34.28889202171925"
    x2="-120.9446026569809"
    y2="134.28889202171925"
    stroke="hsla(0,50%,50%,0.6)"
    stroke-width="1"
    transform="translate(94.6946026569,-109.9138920217) scale(1,-1) translate(50,-110)"
    />
  
  <line
    x1="-20.94460265698091"
    y1="39.28889202171925"
    x2="-115.9446026569809"
    y2="134.28889202171925"
    stroke="hsla(0,50%,50%,0.6)"
    stroke-width="1"
    transform="translate(94.6946026569,-109.9138920217) scale(1,-1) translate(50,-110)"
    />
  
  <line
    x1="-25.94460265698091"
    y1="39.28889202171925"
    x2="-20.94460265698091"
    y2="39.28889202171925"
    stroke="hsla(0,50%,50%,0.6)"
    stroke-width="1"
    transform="translate(94.6946026569,-109.9138920217) scale(1,-1) translate(50,-110)"
    />
  
  <line
    x1="-30.94460265698091"
    y1="44.28889202171925"
    x2="-25.94460265698091"
    y2="44.28889202171925"
    stroke="hsla(0,50%,50%,0.6)"
    stroke-width="1"
    transform="translate(94.6946026569,-109.9138920217) scale(1,-1) translate(50,-110)"
    />
  
  <line
    x1="-35.944602656980905"
    y1="49.28889202171925"
    x2="-30.94460265698091"
    y2="49.28889202171925"
    stroke="hsla(0,50%,50%,0.6)"
    stroke-width="1"
    transform="translate(94.6946026569,-109.9138920217) scale(1,-1) translate(50,-110)"
    />
  
  <line
    x1="-40.944602656980905"
    y1="54.28889202171925"
    x2="-35.944602656980905"
    y2="54.28889202171925"
    stroke="hsla(0,50%,50%,0.6)"
    stroke-width="1"
    transform="translate(94.6946026569,-109.9138920217) scale(1,-1) translate(50,-110)"
    />
  
  <line
    x1="-45.944602656980905"
    y1="59.28889202171925"
    x2="-40.944602656980905"
    y2="59.28889202171925"
    stroke="hsla(0,50%,50%,0.6)"
    stroke-width="1"
    transform="translate(94.6946026569,-109.9138920217) scale(1,-1) translate(50,-110)"
    />
  
  <line
    x1="-50.944602656980905"
    y1="64.28889202171925"
    x2="-45.944602656980905"
    y2="64.28889202171925"
    stroke="hsla(0,50%,50%,0.6)"
    stroke-width="1"
    transform="translate(94.6946026569,-109.9138920217) scale(1,-1) translate(50,-110)"
    />
  
  <line
    x1="-55.944602656980905"
    y1="69.28889202171925"
    x2="-50.944602656980905"
    y2="69.28889202171925"
    stroke="hsla(0,50%,50%,0.6)"
    stroke-width="1"
    transform="translate(94.6946026569,-109.9138920217) scale(1,-1) translate(50,-110)"
    />
  
  <line
    x1="-60.944602656980905"
    y1="74.28889202171925"
    x2="-55.944602656980905"
    y2="74.28889202171925"
    stroke="hsla(0,50%,50%,0.6)"
    stroke-width="1"
    transform="translate(94.6946026569,-109.9138920217) scale(1,-1) translate(50,-110)"
    />
  
  <line
    x1="-65.9446026569809"
    y1="79.28889202171925"
    x2="-60.944602656980905"
    y2="79.28889202171925"
    stroke="hsla(0,50%,50%,0.6)"
    stroke-width="1"
    transform="translate(94.6946026569,-109.9138920217) scale(1,-1) translate(50,-110)"
    />
  
  <line
    x1="-70.9446026569809"
    y1="84.28889202171925"
    x2="-65.9446026569809"
    y2="84.28889202171925"
    stroke="hsla(0,50%,50%,0.6)"
    stroke-width="1"
    transform="translate(94.6946026569,-109.9138920217) scale(1,-1) translate(50,-110)"
    />
  
  <line
    x1="-75.9446026569809"
    y1="89.28889202171925"
    x2="-70.9446026569809"
    y2="89.28889202171925"
    stroke="hsla(0,50%,50%,0.6)"
    stroke-width="1"
    transform="translate(94.6946026569,-109.9138920217) scale(1,-1) translate(50,-110)"
    />
  
  <line
    x1="-80.9446026569809"
    y1="94.28889202171925"
    x2="-75.9446026569809"
    y2="94.28889202171925"
    stroke="hsla(0,50%,50%,0.6)"
    stroke-width="1"
    transform="translate(94.6946026569,-109.9138920217) scale(1,-1) translate(50,-110)"
    />
  
  <line
    x1="-85.9446026569809"
    y1="99.28889202171925"
    x2="-80.9446026569809"
    y2="99.28889202171925"
    stroke="hsla(0,50%,50%,0.6)"
    stroke-width="1"
    transform="translate(94.6946026569,-109.9138920217) scale(1,-1) translate(50,-110)"
    />
  
  <line
    x1="-90.9446026569809"
    y1="104.28889202171925"
    x2="-85.9446026569809"
    y2="104.28889202171925"
    stroke="hsla(0,50%,50%,0.6)"
    stroke-width="1"
    transform="translate(94.6946026569,-109.9138920217) scale(1,-1) translate(50,-110)"
    />
  
  <line
    x1="-95.9446026569809"
    y1="109.28889202171925"
    x2="-90.9446026569809"
    y2="109.28889202171925"
    stroke="hsla(0,50%,50%,0.6)"
    stroke-width="1"
    transform="translate(94.6946026569,-109.9138920217) scale(1,-1) translate(50,-110)"
    />
  
  <line
    x1="-100.9446026569809"
    y1="114.28889202171925"
    x2="-95.9446026569809"
    y2="114.28889202171925"
    stroke="hsla(0,50%,50%,0.6)"
    stroke-width="1"
    transform="translate(94.6946026569,-109.9138920217) scale(1,-1) translate(50,-110)"
    />
  
  <line
    x1="-105.9446026569809"
    y1="119.28889202171925"
    x2="-100.9446026569809"
    y2="119.28889202171925"
    stroke="hsla(0,50%,50%,0.6)"
    stroke-width="1"
    transform="translate(94.6946026569,-109.9138920217) scale(1,-1) translate(50,-110)"
    />
  
  <line
    x1="-110.9446026569809"
    y1="124.28889202171925"
    x2="-105.9446026569809"
    y2="124.28889202171925"
    stroke="hsla(0,50%,50%,0.6)"
    stroke-width="1"
    transform="translate(94.6946026569,-109.9138920217) scale(1,-1) translate(50,-110)"
    />
  
  <line
    x1="-115.9446026569809"
    y1="129.28889202171925"
    x2="-110.9446026569809"
    y2="129.28889202171925"
    stroke="hsla(0,50%,50%,0.6)"
    stroke-width="1"
    transform="translate(94.6946026569,-109.9138920217) scale(1,-1) translate(50,-110)"
    />
  
  <line
    x1="-120.9446026569809"
    y1="134.28889202171925"
    x2="-115.9446026569809"
    y2="134.28889202171925"
    stroke="hsla(0,50%,50%,0.6)"
    stroke-width="1"
    transform="translate(94.6946026569,-109.9138920217) scale(1,-1) translate(50,-110)"
    />
  
</svg>
