<?xml version="1.0"?>
<!DOCTYPE svg PUBLIC "-//W3C//DTD SVG 1.1//EN"
  "http://www.w3.org/Graphics/SVG/1.1/DTD/svg11.dtd">
<svg
  width="240"
  height="240"
  viewBox="-50 -50 200 200" xmlns="http://www.w3.org/2000/svg" version="1.1">
  <rect
    x="0"
    y="0"
    width="100"
    height="100"
    fill="hsla(206,100%,53%,0.3)"
    stroke="hsl(206,100%,53%)"
    stroke-width="3"
    transform="" />
  
  <path
    d="M 
      419.0369554300
      4.4300655355
      L
    
      419.0369554300
      9.4300655355
      L
    
      324.0369554300
      104.4300655355
      L
    
      319.0369554300
      104.4300655355
      z
    "
    fill="hsla(0,0%,50%,0.3)"
    stroke="hsla(0,0%,50%,1)"
    stroke-width="1"
    transform="translate(-345.2869554300,-80.0550655355) scale(1,-1) translate(50,-110)"
    />
  
  
  <line
    x1="324.0369554300872"
    y1="99.43006553553931"
    x2="324.0369554300872"
    y2="104.43006553553931"
    stroke="hsla(0,50%,50%,0.6)"
    stroke-width="1"
    transform="translate(-345.2869554300,-80.0550655355) scale(1,-1) translate(50,-110)"
    />
  
  <line
    x1="329.0369554300872"
    y1="94.43006553553931"
    x2="329.0369554300872"
    y2="99.43006553553931"
    stroke="hsla(0,50%,50%,0.6)"
    stroke-width="1"
    transform="translate(-345.2869554300,-80.0550655355) scale(1,-1) translate(50,-110)"
    />
  
  <line
    x1="334.0369554300872"
    y1="89.43006553553931"
    x2="334.0369554300872"
    y2="94.43006553553931"
    stroke="hsla(0,50%,50%,0.6)"
    stroke-width="1"
    transform="translate(-345.2869554300,-80.0550655355) scale(1,-1) translate(50,-110)"
    />
  
  <line
    x1="339.0369554300872"
    y1="84.43006553553931"
    x2="339.0369554300872"
    y2="89.43006553553931"
    stroke="hsla(0,50%,50%,0.6)"
    stroke-width="1"
    transform="translate(-345.2869554300,-80.0550655355) scale(1,-1) translate(50,-110)"
    />
  
  <line
    x1="344.0369554300872"
    y1="79.43006553553931"
    x2="344.0369554300872"
    y2="84.43006553553931"
    stroke="hsla(0,50%,50%,0.6)"
    stroke-width="1"
    transform="translate(-345.2869554300,-80.0550655355) scale(1,-1) translate(50,-110)"
    />
  
  <line
    x1="349.0369554300872"
    y1="74.43006553553931"
    x2="349.0369554300872"
    y2="79.43006553553931"
    stroke="hsla(0,50%,50%,0.6)"
    stroke-width="1"
    transform="translate(-345.2869554300,-80.0550655355) scale(1,-1) translate(50,-110)"
    />
  
  <line
    x1="354.0369554300872"
    y1="69.43006553553931"
    x2="354.0369554300872"
    y2="74.43006553553931"
    stroke="hsla(0,50%,50%,0.6)"
    stroke-width="1"
    transform="translate(-345.2869554300,-80.0550655355) scale(1,-1) translate(50,-110)"
    />
  
  <line
    x1="359.0369554300872"
    y1="64.43006553553931"
    x2="359.0369554300872"
    y2="69.43006553553931"
    stroke="hsla(0,50%,50%,0.6)"
    stroke-width="1"
    transform="translate(-345.2869554300,-80.0550655355) scale(1,-1) translate(50,-110)"
    />
  
  <line
    x1="364.0369554300872"
    y1="59.43006553553932"
    x2="364.0369554300872"
    y2="64.43006553553931"
    stroke="hsla(0,50%,50%,0.6)"
    stroke-width="1"
    transform="translate(-345.2869554300,-80.0550655355) scale(1,-1) translate(50,-110)"
    />
  
  <line
    x1="369.0369554300872"
    y1="54.43006553553932"
    x2="369.0369554300872"
    y2="59.43006553553932"
    stroke="hsla(0,50%,50%,0.6)"
    stroke-width="1"
    transform="translate(-345.2869554300,-80.0550655355) scale(1,-1) translate(50,-110)"
    />
  
  <line
    x1="374.0369554300872"
    y1="49.43006553553932"
    x2="374.0369554300872"
    y2="54.43006553553932"
    stroke="hsla(0,50%,50%,0.6)"
    stroke-width="1"
    transform="translate(-345.2869554300,-80.0550655355) scale(1,-1) translate(50,-110)"
    />
  
  <line
    x1="379.0369554300872"
    y1="44.43006553553932"
    x2="379.0369554300872"
    y2="49.43006553553932"
    stroke="hsla(0,50%,50%,0.6)"
    stroke-width="1"
    transform="translate(-345.2869554300,-80.0550655355) scale(1,-1) translate(50,-110)"
    />
  
  <line
    x1="384.0369554300872"
    y1="39.43006553553932"
    x2="384.0369554300872"
    y2="44.43006553553932"
    stroke="hsla(0,50%,50%,0.6)"
    stroke-width="1"
    transform="translate(-345.2869554300,-80.0550655355) scale(1,-1) translate(50,-110)"
    />
  
  <line
    x1="389.0369554300872"
    y1="34.43006553553932"
    x2="389.0369554300872"
    y2="39.43006553553932"
    stroke="hsla(0,50%,50%,0.6)"
    stroke-width="1"
    transform="translate(-345.2869554300,-80.0550655355) scale(1,-1) translate(50,-110)"
    />
  
  <line
    x1="394.0369554300872"
    y1="29.430065535539317"
    x2="394.0369554300872"
    y2="34.43006553553932"
    stroke="hsla(0,50%,50%,0.6)"
    stroke-width="1"
    transform="translate(-345.2869554300,-80.0550655355) scale(1,-1) translate(50,-110)"
    />
  
  <line
    x1="399.0369554300872"
    y1="24.430065535539317"
    x2="399.0369554300872"
    y2="29.430065535539317"
    stroke="hsla(0,50%,50%,0.6)"
    stroke-width="1"
    transform="translate(-345.2869554300,-80.0550655355) scale(1,-1) translate(50,-110)"
    />
  
  <line
    x1="404.0369554300872"
    y1="19.430065535539317"
    x2="404.0369554300872"
    y2="24.430065535539317"
    stroke="hsla(0,50%,50%,0.6)"
    stroke-width="1"
    transform="translate(-345.2869554300,-80.0550655355) scale(1,-1) translate(50,-110)"
    />
  
  <line
    x1="409.0369554300872"
    y1="14.430065535539317"
    x2="409.0369554300872"
    y2="19.430065535539317"
    stroke="hsla(0,50%,50%,0.6)"
    stroke-width="1"
    transform="translate(-345.2869554300,-80.0550655355) scale(1,-1) translate(50,-110)"
    />
  
  <line
    x1="414.0369554300872"
    y1="9.430065535539317"
    x2="414.0369554300872"
    y2="14.430065535539317"
    stroke="hsla(0,50%,50%,0.6)"
    stroke-width="1"
    transform="translate(-345.2869554300,-80.0550655355) scale(1,-1) translate(50,-110)"
    />
  
  <line
    x1="419.0369554300872"
    y1="4.430065535539317"
    x2="419.0369554300872"
    y2="9.430065535539317"
    stroke="hsla(0,50%,50%,0.6)"
    stroke-width="1"
    transform="translate(-345.2869554300,-80.0550655355) scale(1,-1) translate(50,-110)"
    />
  
  <line
    x1="414.0369554300872"
    y1="9.430065535539317"
    x2="419.0369554300872"
    y2="9.430065535539317"
    stroke="hsla(0,50%,50%,0.6)"
    stroke-width="1"
    transform="translate(-345.2869554300,-80.0550655355) scale(1,-1) translate(50,-110)"
    />
  
  <line
    x1="409.0369554300872"
    y1="14.430065535539317"
    x2="414.0369554300872"
    y2="14.430065535539317"
    stroke="hsla(0,50%,50%,0.6)"
    stroke-width="1"
    transform="translate(-345.2869554300,-80.0550655355) scale(1,-1) translate(50,-110)"
    />
  
  <line
    x1="404.0369554300872"
    y1="19.430065535539317"
    x2="409.0369554300872"
    y2="19.430065535539317"
    stroke="hsla(0,50%,50%,0.6)"
    stroke-width="1"
    transform="translate(-345.2869554300,-80.0550655355) scale(1,-1) translate(50,-110)"
    />
  
  <line
    x1="399.0369554300872"
    y1="24.430065535539317"
    x2="404.0369554300872"
    y2="24.430065535539317"
    stroke="hsla(0,50%,50%,0.6)"
    stroke-width="1"
    transform="translate(-345.2869554300,-80.0550655355) scale(1,-1) translate(50,-110)"
    />
  
  <line
    x1="394.0369554300872"
    y1="29.430065535539317"
    x2="399.0369554300872"
    y2="29.430065535539317"
    stroke="hsla(0,50%,50%,0.6)"
    stroke-width="1"
    transform="translate(-345.2869554300,-80.0550655355) scale(1,-1) translate(50,-110)"
    />
  
  <line
    x1="389.0369554300872"
    y1="34.43006553553932"
    x2="394.0369554300872"
    y2="34.43006553553932"
    stroke="hsla(0,50%,50%,0.6)"
    stroke-width="1"
    transform="translate(-345.2869554300,-80.0550655355) scale(1,-1) translate(50,-110)"
    />
  
  <line
    x1="384.0369554300872"
    y1="39.43006553553932"
    x2="389.0369554300872"
    y2="39.43006553553932"
    stroke="hsla(0,50%,50%,0.6)"
    stroke-width="1"
    transform="translate(-345.2869554300,-80.0550655355) scale(1,-1) translate(50,-110)"
    />
  
  <line
    x1="379.0369554300872"
    y1="44.43006553553932"
    x2="384.0369554300872"
    y2="44.43006553553932"
    stroke="hsla(0,50%,50%,0.6)"
    stroke-width="1"
    transform="translate(-345.2869554300,-80.0550655355) scale(1,-1) translate(50,-110)"
    />
  
  <line
    x1="374.0369554300872"
    y1="49.43006553553932"
    x2="379.0369554300872"
    y2="49.43006553553932"
    stroke="hsla(0,50%,50%,0.6)"
    stroke-width="1"
    transform="translate(-345.2869554300,-80.0550655355) scale(1,-1) translate(50,-110)"
    />
  
  <line
    x1="369.0369554300872"
    y1="54.43006553553932"
    x2="374.0369554300872"
    y2="54.43006553553932"
    stroke="hsla(0,50%,50%,0.6)"
    stroke-width="1"
    transform="translate(-345.2869554300,-80.0550655355) scale(1,-1) translate(50,-110)"
    />
  
  <line
    x1="364.0369554300872"
    y1="59.43006553553932"
    x2="369.0369554300872"
    y2="59.43006553553932"
    stroke="hsla(0,50%,50%,0.6)"
    stroke-width="1"
    transform="translate(-345.2869554300,-80.0550655355) scale(1,-1) translate(50,-110)"
    />
  
  <line
    x1="359.0369554300872"
    y1="64.43006553553931"
    x2="364.0369554300872"
    y2="64.43006553553931"
    stroke="hsla(0,50%,50%,0.6)"
    stroke-width="1"
    transform="translate(-345.2869554300,-80.0550655355) scale(1,-1) translate(50,-110)"
    />
  
  <line
    x1="354.0369554300872"
    y1="69.43006553553931"
    x2="359.0369554300872"
    y2="69.43006553553931"
    stroke="hsla(0,50%,50%,0.6)"
    stroke-width="1"
    transform="translate(-345.2869554300,-80.0550655355) scale(1,-1) translate(50,-110)"
    />
  
  <line
    x1="349.0369554300872"
    y1="74.43006553553931"
    x2="354.0369554300872"
    y2="74.43006553553931"
    stroke="hsla(0,50%,50%,0.6)"
    stroke-width="1"
    transform="translate(-345.2869554300,-80.0550655355) scale(1,-1) translate(50,-110)"
    />
  
  <line
    x1="344.0369554300872"
    y1="79.43006553553931"
    x2="349.0369554300872"
    y2="79.43006553553931"
    stroke="hsla(0,50%,50%,0.6)"
    stroke-width="1"
    transform="translate(-345.2869554300,-80.0550655355) scale(1,-1) translate(50,-110)"
    />
  
  <line
    x1="339.0369554300872"
    y1="84.43006553553931"
    x2="344.0369554300872"
    y2="84.43006553553931"
    stroke="hsla(0,50%,50%,0.6)"
    stroke-width="1"
    transform="translate(-345.2869554300,-80.0550655355) scale(1,-1) translate(50,-110)"
    />
  
  <line
    x1="334.0369554300872"
    y1="89.43006553553931"
    x2="339.0369554300872"
    y2="89.43006553553931"
    stroke="hsla(0,50%,50%,0.6)"
    stroke-width="1"
    transform="translate(-345.2869554300,-80.0550655355) scale(1,-1) translate(50,-110)"
    />
  
  <line
    x1="329.0369554300872"
    y1="94.43006553553931"
    x2="334.0369554300872"
    y2="94.43006553553931"
    stroke="hsla(0,50%,50%,0.6)"
    stroke-width="1"
    transform="translate(-345.2869554300,-80.0550655355) scale(1,-1) translate(50,-110)"
    />
  
  <line
    x1="324.0369554300872"
    y1="99.43006553553931"
    x2="329.0369554300872"
    y2="99.43006553553931"
    stroke="hsla(0,50%,50%,0.6)"
    stroke-width="1"
    transform="translate(-345.2869554300,-80.0550655355) scale(1,-1) translate(50,-110)"
    />
  
  <line
    x1="319.0369554300872"
    y1="104.43006553553931"
    x2="324.0369554300872"
    y2="104.43006553553931"
    stroke="hsla(0,50%,50%,0.6)"
    stroke-width="1"
    transform="translate(-345.2869554300,-80.0550655355) scale(1,-1) translate(50,-110)"
    />
  
  <line
    x1="419.0369554300872"
    y1="4.430065535539317"
    x2="319.0369554300872"
    y2="104.43006553553931"
    stroke="hsla(0,50%,50%,0.6)"
    stroke-width="1"
    transform="translate(-345.2869554300,-80.0550655355) scale(1,-1) translate(50,-110)"
    />
  
  <line
    x1="419.0369554300872"
    y1="9.430065535539317"
    x2="324.0369554300872"
    y2="104.43006553553931"
    stroke="hsla(0,50%,50%,0.6)"
    stroke-width="1"
    transform="translate(-345.2869554300,-80.0550655355) scale(1,-1) translate(50,-110)"
    />
  
</svg>
