<?xml version="1.0"?>
<!DOCTYPE svg PUBLIC "-//W3C//DTD SVG 1.1//EN"
  "http://www.w3.org/Graphics/SVG/1.1/DTD/svg11.dtd">
<svg
  width="240"
  height="240"
  viewBox="-50 -50 200 200" xmlns="http://www.w3.org/2000/svg" version="1.1">
  <rect
    x="0"
    y="0"
    width="100"
    height="100"
    fill="hsla(206,100%,53%,0.3)"
    stroke="hsl(206,100%,53%)"
    stroke-width="3"
    transform="" />
  
  <path
    d="M 
      214.9917173689
      -47.6425334650
      L
    
      214.9917173689
      -42.6425334650
      L
    
      119.9917173689
      52.3574665349
      L
    
      114.9917173689
      52.3574665349
      z
    "
    fill="hsla(0,0%,50%,0.3)"
    stroke="hsla(0,0%,50%,1)"
    stroke-width="1"
    transform="translate(-141.2417173689,-27.9824665349) scale(1,-1) translate(50,-110)"
    />
  
  
  <line
    x1="209.9917173689916"
    y1="-42.64253346502245"
    x2="214.9917173689916"
    y2="-42.64253346502245"
    stroke="hsla(0,50%,50%,0.6)"
    stroke-width="1"
    transform="translate(-141.2417173689,-27.9824665349) scale(1,-1) translate(50,-110)"
    />
  
  <line
    x1="204.9917173689916"
    y1="-37.64253346502245"
    x2="209.9917173689916"
    y2="-37.64253346502245"
    stroke="hsla(0,50%,50%,0.6)"
    stroke-width="1"
    transform="translate(-141.2417173689,-27.9824665349) scale(1,-1) translate(50,-110)"
    />
  
  <line
    x1="199.9917173689916"
    y1="-32.64253346502245"
    x2="204.9917173689916"
    y2="-32.64253346502245"
    stroke="hsla(0,50%,50%,0.6)"
    stroke-width="1"
    transform="translate(-141.2417173689,-27.9824665349) scale(1,-1) translate(50,-110)"
    />
  
  <line
    x1="194.9917173689916"
    y1="-27.642533465022456"
    x2="199.9917173689916"
    y2="-27.642533465022456"
    stroke="hsla(0,50%,50%,0.6)"
    stroke-width="1"
    transform="translate(-141.2417173689,-27.9824665349) scale(1,-1) translate(50,-110)"
    />
  
  <line
    x1="189.9917173689916"
    y1="-22.642533465022456"
    x2="194.9917173689916"
    y2="-22.642533465022456"
    stroke="hsla(0,50%,50%,0.6)"
    stroke-width="1"
    transform="translate(-141.2417173689,-27.9824665349) scale(1,-1) translate(50,-110)"
    />
  
  <line
    x1="184.9917173689916"
    y1="-17.642533465022456"
    x2="189.9917173689916"
    y2="-17.642533465022456"
    stroke="hsla(0,50%,50%,0.6)"
    stroke-width="1"
    transform="translate(-141.2417173689,-27.9824665349) scale(1,-1) translate(50,-110)"
    />
  
  <line
    x1="179.9917173689916"
    y1="-12.642533465022456"
    x2="184.9917173689916"
    y2="-12.642533465022456"
    stroke="hsla(0,50%,50%,0.6)"
    stroke-width="1"
    transform="translate(-141.2417173689,-27.9824665349) scale(1,-1) translate(50,-110)"
    />
  
  <line
    x1="174.9917173689916"
    y1="-7.6425334650224555"
    x2="179.9917173689916"
    y2="-7.6425334650224555"
    stroke="hsla(0,50%,50%,0.6)"
    stroke-width="1"
    transform="translate(-141.2417173689,-27.9824665349) scale(1,-1) translate(50,-110)"
    />
  
  <line
    x1="169.9917173689916"
    y1="-2.642533465022456"
    x2="174.9917173689916"
    y2="-2.642533465022456"
    stroke="hsla(0,50%,50%,0.6)"
    stroke-width="1"
    transform="translate(-141.2417173689,-27.9824665349) scale(1,-1) translate(50,-110)"
    />
  
  <line
    x1="119.99171736899162"
    y1="47.35746653497755"
    x2="119.99171736899162"
    y2="52.35746653497755"
    stroke="hsla(0,50%,50%,0.6)"
    stroke-width="1"
    transform="translate(-141.2417173689,-27.9824665349) scale(1,-1) translate(50,-110)"
    />
  
  <line
    x1="124.99171736899162"
    y1="42.35746653497755"
    x2="124.99171736899162"
    y2="47.35746653497755"
    stroke="hsla(0,50%,50%,0.6)"
    stroke-width="1"
    transform="translate(-141.2417173689,-27.9824665349) scale(1,-1) translate(50,-110)"
    />
  
  <line
    x1="129.9917173689916"
    y1="37.35746653497755"
    x2="129.9917173689916"
    y2="42.35746653497755"
    stroke="hsla(0,50%,50%,0.6)"
    stroke-width="1"
    transform="translate(-141.2417173689,-27.9824665349) scale(1,-1) translate(50,-110)"
    />
  
  <line
    x1="134.9917173689916"
    y1="32.35746653497755"
    x2="134.9917173689916"
    y2="37.35746653497755"
    stroke="hsla(0,50%,50%,0.6)"
    stroke-width="1"
    transform="translate(-141.2417173689,-27.9824665349) scale(1,-1) translate(50,-110)"
    />
  
  <line
    x1="139.9917173689916"
    y1="27.357466534977544"
    x2="139.9917173689916"
    y2="32.35746653497755"
    stroke="hsla(0,50%,50%,0.6)"
    stroke-width="1"
    transform="translate(-141.2417173689,-27.9824665349) scale(1,-1) translate(50,-110)"
    />
  
  <line
    x1="144.9917173689916"
    y1="22.357466534977544"
    x2="144.9917173689916"
    y2="27.357466534977544"
    stroke="hsla(0,50%,50%,0.6)"
    stroke-width="1"
    transform="translate(-141.2417173689,-27.9824665349) scale(1,-1) translate(50,-110)"
    />
  
  <line
    x1="149.9917173689916"
    y1="17.357466534977544"
    x2="149.9917173689916"
    y2="22.357466534977544"
    stroke="hsla(0,50%,50%,0.6)"
    stroke-width="1"
    transform="translate(-141.2417173689,-27.9824665349) scale(1,-1) translate(50,-110)"
    />
  
  <line
    x1="154.9917173689916"
    y1="12.357466534977544"
    x2="154.9917173689916"
    y2="17.357466534977544"
    stroke="hsla(0,50%,50%,0.6)"
    stroke-width="1"
    transform="translate(-141.2417173689,-27.9824665349) scale(1,-1) translate(50,-110)"
    />
  
  <line
    x1="159.9917173689916"
    y1="7.3574665349775445"
    x2="159.9917173689916"
    y2="12.357466534977544"
    stroke="hsla(0,50%,50%,0.6)"
    stroke-width="1"
    transform="translate(-141.2417173689,-27.9824665349) scale(1,-1) translate(50,-110)"
    />
  
  <line
    x1="164.9917173689916"
    y1="2.357466534977544"
    x2="164.9917173689916"
    y2="7.3574665349775445"
    stroke="hsla(0,50%,50%,0.6)"
    stroke-width="1"
    transform="translate(-141.2417173689,-27.9824665349) scale(1,-1) translate(50,-110)"
    />
  
  <line
    x1="169.9917173689916"
    y1="-2.642533465022456"
    x2="169.9917173689916"
    y2="2.357466534977544"
    stroke="hsla(0,50%,50%,0.6)"
    stroke-width="1"
    transform="translate(-141.2417173689,-27.9824665349) scale(1,-1) translate(50,-110)"
    />
  
  <line
    x1="174.9917173689916"
    y1="-7.6425334650224555"
    x2="174.9917173689916"
    y2="-2.642533465022456"
    stroke="hsla(0,50%,50%,0.6)"
    stroke-width="1"
    transform="translate(-141.2417173689,-27.9824665349) scale(1,-1) translate(50,-110)"
    />
  
  <line
    x1="179.9917173689916"
    y1="-12.642533465022456"
    x2="179.9917173689916"
    y2="-7.6425334650224555"
    stroke="hsla(0,50%,50%,0.6)"
    stroke-width="1"
    transform="translate(-141.2417173689,-27.9824665349) scale(1,-1) translate(50,-110)"
    />
  
  <line
    x1="184.9917173689916"
    y1="-17.642533465022456"
    x2="184.9917173689916"
    y2="-12.642533465022456"
    stroke="hsla(0,50%,50%,0.6)"
    stroke-width="1"
    transform="translate(-141.2417173689,-27.9824665349) scale(1,-1) translate(50,-110)"
    />
  
  <line
    x1="189.9917173689916"
    y1="-22.642533465022456"
    x2="189.9917173689916"
    y2="-17.642533465022456"
    stroke="hsla(0,50%,50%,0.6)"
    stroke-width="1"
    transform="translate(-141.2417173689,-27.9824665349) scale(1,-1) translate(50,-110)"
    />
  
  <line
    x1="194.9917173689916"
    y1="-27.642533465022456"
    x2="194.9917173689916"
    y2="-22.642533465022456"
    stroke="hsla(0,50%,50%,0.6)"
    stroke-width="1"
    transform="translate(-141.2417173689,-27.9824665349) scale(1,-1) translate(50,-110)"
    />
  
  <line
    x1="199.9917173689916"
    y1="-32.64253346502245"
    x2="199.9917173689916"
    y2="-27.642533465022456"
    stroke="hsla(0,50%,50%,0.6)"
    stroke-width="1"
    transform="translate(-141.2417173689,-27.9824665349) scale(1,-1) translate(50,-110)"
    />
  
  <line
    x1="204.9917173689916"
    y1="-37.64253346502245"
    x2="204.9917173689916"
    y2="-32.64253346502245"
    stroke="hsla(0,50%,50%,0.6)"
    stroke-width="1"
    transform="translate(-141.2417173689,-27.9824665349) scale(1,-1) translate(50,-110)"
    />
  
  <line
    x1="209.9917173689916"
    y1="-42.64253346502245"
    x2="209.9917173689916"
    y2="-37.64253346502245"
    stroke="hsla(0,50%,50%,0.6)"
    stroke-width="1"
    transform="translate(-141.2417173689,-27.9824665349) scale(1,-1) translate(50,-110)"
    />
  
  <line
    x1="214.9917173689916"
    y1="-47.64253346502245"
    x2="214.9917173689916"
    y2="-42.64253346502245"
    stroke="hsla(0,50%,50%,0.6)"
    stroke-width="1"
    transform="translate(-141.2417173689,-27.9824665349) scale(1,-1) translate(50,-110)"
    />
  
  <line
    x1="164.9917173689916"
    y1="2.357466534977544"
    x2="169.9917173689916"
    y2="2.357466534977544"
    stroke="hsla(0,50%,50%,0.6)"
    stroke-width="1"
    transform="translate(-141.2417173689,-27.9824665349) scale(1,-1) translate(50,-110)"
    />
  
  <line
    x1="159.9917173689916"
    y1="7.3574665349775445"
    x2="164.9917173689916"
    y2="7.3574665349775445"
    stroke="hsla(0,50%,50%,0.6)"
    stroke-width="1"
    transform="translate(-141.2417173689,-27.9824665349) scale(1,-1) translate(50,-110)"
    />
  
  <line
    x1="154.9917173689916"
    y1="12.357466534977544"
    x2="159.9917173689916"
    y2="12.357466534977544"
    stroke="hsla(0,50%,50%,0.6)"
    stroke-width="1"
    transform="translate(-141.2417173689,-27.9824665349) scale(1,-1) translate(50,-110)"
    />
  
  <line
    x1="149.9917173689916"
    y1="17.357466534977544"
    x2="154.9917173689916"
    y2="17.357466534977544"
    stroke="hsla(0,50%,50%,0.6)"
    stroke-width="1"
    transform="translate(-141.2417173689,-27.9824665349) scale(1,-1) translate(50,-110)"
    />
  
  <line
    x1="144.9917173689916"
    y1="22.357466534977544"
    x2="149.9917173689916"
    y2="22.357466534977544"
    stroke="hsla(0,50%,50%,0.6)"
    stroke-width="1"
    transform="translate(-141.2417173689,-27.9824665349) scale(1,-1) translate(50,-110)"
    />
  
  <line
    x1="139.9917173689916"
    y1="27.357466534977544"
    x2="144.9917173689916"
    y2="27.357466534977544"
    stroke="hsla(0,50%,50%,0.6)"
    stroke-width="1"
    transform="translate(-141.2417173689,-27.9824665349) scale(1,-1) translate(50,-110)"
    />
  
  <line
    x1="134.9917173689916"
    y1="32.35746653497755"
    x2="139.9917173689916"
    y2="32.35746653497755"
    stroke="hsla(0,50%,50%,0.6)"
    stroke-width="1"
    transform="translate(-141.2417173689,-27.9824665349) scale(1,-1) translate(50,-110)"
    />
  
  <line
    x1="129.9917173689916"
    y1="37.35746653497755"
    x2="134.9917173689916"
    y2="37.35746653497755"
    stroke="hsla(0,50%,50%,0.6)"
    stroke-width="1"
    transform="translate(-141.2417173689,-27.9824665349) scale(1,-1) translate(50,-110)"
    />
  
  <line
    x1="124.99171736899162"
    y1="42.35746653497755"
    x2="129.9917173689916"
    y2="42.35746653497755"
    stroke="hsla(0,50%,50%,0.6)"
    stroke-width="1"
    transform="translate(-141.2417173689,-27.9824665349) scale(1,-1) translate(50,-110)"
    />
  
  <line
    x1="119.99171736899162"
    y1="47.35746653497755"
    x2="124.99171736899162"
    y2="47.35746653497755"
    stroke="hsla(0,50%,50%,0.6)"
    stroke-width="1"
    transform="translate(-141.2417173689,-27.9824665349) scale(1,-1) translate(50,-110)"
    />
  
  <line
    x1="114.99171736899162"
    y1="52.35746653497755"
    x2="119.99171736899162"
    y2="52.35746653497755"
    stroke="hsla(0,50%,50%,0.6)"
    stroke-width="1"
    transform="translate(-141.2417173689,-27.9824665349) scale(1,-1) translate(50,-110)"
    />
  
  <line
    x1="214.9917173689916"
    y1="-47.64253346502245"
    x2="114.99171736899162"
    y2="52.35746653497755"
    stroke="hsla(0,50%,50%,0.6)"
    stroke-width="1"
    transform="translate(-141.2417173689,-27.9824665349) scale(1,-1) translate(50,-110)"
    />
  
  <line
    x1="214.9917173689916"
    y1="-42.64253346502245"
    x2="119.99171736899162"
    y2="52.35746653497755"
    stroke="hsla(0,50%,50%,0.6)"
    stroke-width="1"
    transform="translate(-141.2417173689,-27.9824665349) scale(1,-1) translate(50,-110)"
    />
  
</svg>
