<?xml version="1.0"?>
<!DOCTYPE svg PUBLIC "-//W3C//DTD SVG 1.1//EN"
  "http://www.w3.org/Graphics/SVG/1.1/DTD/svg11.dtd">
<svg
  width="240"
  height="240"
  viewBox="-50 -50 200 200" xmlns="http://www.w3.org/2000/svg" version="1.1">
  <rect
    x="0"
    y="0"
    width="100"
    height="100"
    fill="hsla(206,100%,53%,0.3)"
    stroke="hsl(206,100%,53%)"
    stroke-width="3"
    transform="" />
  
  <path
    d="M 
      26208.3677894375
      258.5978464167
      L
    
      26239.2377996729
      271.1737590745
      L
    
      26271.4793554559
      262.7124830595
      L
    
      26277.8253124672
      286.8936498967
      L
    
      26300.9778201437
      296.3255843901
      L
    
      26288.4019074859
      327.1955946255
      L
    
      26296.8631835010
      359.4371504085
      L
    
      26272.6820166637
      365.7831074197
      L
    
      26198.9358549441
      281.7503540932
      z
    "
    fill="hsla(0,0%,50%,0.3)"
    stroke="hsla(0,0%,50%,1)"
    stroke-width="1"
    transform="translate(-26240.3874179772,-315.5650717664) scale(1,-1) translate(50,-110)"
    />
  
  
  <line
    x1="26198.935854944197"
    y1="281.7503540932894"
    x2="26272.682016663748"
    y2="365.78310741979914"
    stroke="hsla(0,50%,50%,0.6)"
    stroke-width="1"
    transform="translate(-26240.3874179772,-315.5650717664) scale(1,-1) translate(50,-110)"
    />
  
  <line
    x1="26208.367789437543"
    y1="258.5978464167285"
    x2="26300.977820143788"
    y2="296.32558439011643"
    stroke="hsla(0,50%,50%,0.6)"
    stroke-width="1"
    transform="translate(-26240.3874179772,-315.5650717664) scale(1,-1) translate(50,-110)"
    />
  
  <line
    x1="26271.47935545597"
    y1="262.7124830595125"
    x2="26296.86318350101"
    y2="359.43715040854016"
    stroke="hsla(0,50%,50%,0.6)"
    stroke-width="1"
    transform="translate(-26240.3874179772,-315.5650717664) scale(1,-1) translate(50,-110)"
    />
  
  <line
    x1="26271.47935545597"
    y1="262.7124830595125"
    x2="26198.935854944197"
    y2="281.7503540932894"
    stroke="hsla(0,50%,50%,0.6)"
    stroke-width="1"
    transform="translate(-26240.3874179772,-315.5650717664) scale(1,-1) translate(50,-110)"
    />
  
  <line
    x1="26296.86318350101"
    y1="359.43715040854016"
    x2="26272.682016663748"
    y2="365.78310741979914"
    stroke="hsla(0,50%,50%,0.6)"
    stroke-width="1"
    transform="translate(-26240.3874179772,-315.5650717664) scale(1,-1) translate(50,-110)"
    />
  
  <line
    x1="26208.367789437543"
    y1="258.5978464167285"
    x2="26198.935854944197"
    y2="281.7503540932894"
    stroke="hsla(0,50%,50%,0.6)"
    stroke-width="1"
    transform="translate(-26240.3874179772,-315.5650717664) scale(1,-1) translate(50,-110)"
    />
  
  <line
    x1="26300.977820143788"
    y1="296.32558439011643"
    x2="26272.682016663748"
    y2="365.78310741979914"
    stroke="hsla(0,50%,50%,0.6)"
    stroke-width="1"
    transform="translate(-26240.3874179772,-315.5650717664) scale(1,-1) translate(50,-110)"
    />
  
</svg>
