<?xml version="1.0"?>
<!DOCTYPE svg PUBLIC "-//W3C//DTD SVG 1.1//EN"
  "http://www.w3.org/Graphics/SVG/1.1/DTD/svg11.dtd">
<svg
  width="240"
  height="240"
  viewBox="-500 -500 1000 1000" xmlns="http://www.w3.org/2000/svg" version="1.1">
  <rect
    x="0"
    y="0"
    width="100"
    height="100"
    fill="hsla(206,100%,53%,0.3)"
    stroke="hsl(206,100%,53%)"
    stroke-width="3"
    transform="" />
  
  <path
    d="M 
      -157.3627194605
      -86.9345187397
      L
    
      -157.3627194605
      -81.9345187397
      L
    
      -252.3627194605
      13.0654812602
      L
    
      -257.3627194605
      13.0654812602
      z
    "
    fill="hsla(0,0%,50%,0.3)"
    stroke="hsla(0,0%,50%,1)"
    stroke-width="1"
    transform="translate(207.3627194605,36.9345187397)"
    />
  
  
  <line
    x1="-157.36271946057866"
    y1="-86.93451873978088"
    x2="-257.36271946057866"
    y2="13.06548126021911"
    stroke="hsla(0,50%,50%,0.6)"
    stroke-width="1"
    transform="translate(207.3627194605,36.9345187397)"
    />
  
  <line
    x1="-157.36271946057866"
    y1="-81.93451873978088"
    x2="-252.36271946057866"
    y2="13.06548126021911"
    stroke="hsla(0,50%,50%,0.6)"
    stroke-width="1"
    transform="translate(207.3627194605,36.9345187397)"
    />
  
  <line
    x1="-162.36271946057866"
    y1="-81.93451873978088"
    x2="-157.36271946057866"
    y2="-81.93451873978088"
    stroke="hsla(0,50%,50%,0.6)"
    stroke-width="1"
    transform="translate(207.3627194605,36.9345187397)"
    />
  
  <line
    x1="-167.36271946057866"
    y1="-76.93451873978088"
    x2="-162.36271946057866"
    y2="-76.93451873978088"
    stroke="hsla(0,50%,50%,0.6)"
    stroke-width="1"
    transform="translate(207.3627194605,36.9345187397)"
    />
  
  <line
    x1="-172.36271946057866"
    y1="-71.93451873978088"
    x2="-167.36271946057866"
    y2="-71.93451873978088"
    stroke="hsla(0,50%,50%,0.6)"
    stroke-width="1"
    transform="translate(207.3627194605,36.9345187397)"
    />
  
  <line
    x1="-177.36271946057866"
    y1="-66.93451873978088"
    x2="-172.36271946057866"
    y2="-66.93451873978088"
    stroke="hsla(0,50%,50%,0.6)"
    stroke-width="1"
    transform="translate(207.3627194605,36.9345187397)"
    />
  
  <line
    x1="-182.36271946057866"
    y1="-61.93451873978089"
    x2="-177.36271946057866"
    y2="-61.93451873978089"
    stroke="hsla(0,50%,50%,0.6)"
    stroke-width="1"
    transform="translate(207.3627194605,36.9345187397)"
    />
  
  <line
    x1="-187.36271946057866"
    y1="-56.93451873978089"
    x2="-182.36271946057866"
    y2="-56.93451873978089"
    stroke="hsla(0,50%,50%,0.6)"
    stroke-width="1"
    transform="translate(207.3627194605,36.9345187397)"
    />
  
  <line
    x1="-192.36271946057866"
    y1="-51.93451873978089"
    x2="-187.36271946057866"
    y2="-51.93451873978089"
    stroke="hsla(0,50%,50%,0.6)"
    stroke-width="1"
    transform="translate(207.3627194605,36.9345187397)"
    />
  
  <line
    x1="-197.36271946057866"
    y1="-46.93451873978089"
    x2="-192.36271946057866"
    y2="-46.93451873978089"
    stroke="hsla(0,50%,50%,0.6)"
    stroke-width="1"
    transform="translate(207.3627194605,36.9345187397)"
    />
  
  <line
    x1="-202.36271946057866"
    y1="-41.93451873978089"
    x2="-197.36271946057866"
    y2="-41.93451873978089"
    stroke="hsla(0,50%,50%,0.6)"
    stroke-width="1"
    transform="translate(207.3627194605,36.9345187397)"
    />
  
  <line
    x1="-207.36271946057866"
    y1="-36.93451873978089"
    x2="-202.36271946057866"
    y2="-36.93451873978089"
    stroke="hsla(0,50%,50%,0.6)"
    stroke-width="1"
    transform="translate(207.3627194605,36.9345187397)"
    />
  
  <line
    x1="-212.36271946057866"
    y1="-31.93451873978089"
    x2="-207.36271946057866"
    y2="-31.93451873978089"
    stroke="hsla(0,50%,50%,0.6)"
    stroke-width="1"
    transform="translate(207.3627194605,36.9345187397)"
    />
  
  <line
    x1="-217.36271946057866"
    y1="-26.93451873978089"
    x2="-212.36271946057866"
    y2="-26.93451873978089"
    stroke="hsla(0,50%,50%,0.6)"
    stroke-width="1"
    transform="translate(207.3627194605,36.9345187397)"
    />
  
  <line
    x1="-222.36271946057866"
    y1="-21.93451873978089"
    x2="-217.36271946057866"
    y2="-21.93451873978089"
    stroke="hsla(0,50%,50%,0.6)"
    stroke-width="1"
    transform="translate(207.3627194605,36.9345187397)"
    />
  
  <line
    x1="-227.36271946057866"
    y1="-16.93451873978089"
    x2="-222.36271946057866"
    y2="-16.93451873978089"
    stroke="hsla(0,50%,50%,0.6)"
    stroke-width="1"
    transform="translate(207.3627194605,36.9345187397)"
    />
  
  <line
    x1="-232.36271946057866"
    y1="-11.93451873978089"
    x2="-227.36271946057866"
    y2="-11.93451873978089"
    stroke="hsla(0,50%,50%,0.6)"
    stroke-width="1"
    transform="translate(207.3627194605,36.9345187397)"
    />
  
  <line
    x1="-237.36271946057866"
    y1="-6.93451873978089"
    x2="-232.36271946057866"
    y2="-6.93451873978089"
    stroke="hsla(0,50%,50%,0.6)"
    stroke-width="1"
    transform="translate(207.3627194605,36.9345187397)"
    />
  
  <line
    x1="-242.36271946057866"
    y1="-1.9345187397808898"
    x2="-237.36271946057866"
    y2="-1.9345187397808898"
    stroke="hsla(0,50%,50%,0.6)"
    stroke-width="1"
    transform="translate(207.3627194605,36.9345187397)"
    />
  
  <line
    x1="-252.36271946057866"
    y1="8.06548126021911"
    x2="-252.36271946057866"
    y2="13.06548126021911"
    stroke="hsla(0,50%,50%,0.6)"
    stroke-width="1"
    transform="translate(207.3627194605,36.9345187397)"
    />
  
  <line
    x1="-247.36271946057866"
    y1="3.06548126021911"
    x2="-247.36271946057866"
    y2="8.06548126021911"
    stroke="hsla(0,50%,50%,0.6)"
    stroke-width="1"
    transform="translate(207.3627194605,36.9345187397)"
    />
  
  <line
    x1="-242.36271946057866"
    y1="-1.9345187397808898"
    x2="-242.36271946057866"
    y2="3.06548126021911"
    stroke="hsla(0,50%,50%,0.6)"
    stroke-width="1"
    transform="translate(207.3627194605,36.9345187397)"
    />
  
  <line
    x1="-237.36271946057866"
    y1="-6.93451873978089"
    x2="-237.36271946057866"
    y2="-1.9345187397808898"
    stroke="hsla(0,50%,50%,0.6)"
    stroke-width="1"
    transform="translate(207.3627194605,36.9345187397)"
    />
  
  <line
    x1="-232.36271946057866"
    y1="-11.93451873978089"
    x2="-232.36271946057866"
    y2="-6.93451873978089"
    stroke="hsla(0,50%,50%,0.6)"
    stroke-width="1"
    transform="translate(207.3627194605,36.9345187397)"
    />
  
  <line
    x1="-227.36271946057866"
    y1="-16.93451873978089"
    x2="-227.36271946057866"
    y2="-11.93451873978089"
    stroke="hsla(0,50%,50%,0.6)"
    stroke-width="1"
    transform="translate(207.3627194605,36.9345187397)"
    />
  
  <line
    x1="-222.36271946057866"
    y1="-21.93451873978089"
    x2="-222.36271946057866"
    y2="-16.93451873978089"
    stroke="hsla(0,50%,50%,0.6)"
    stroke-width="1"
    transform="translate(207.3627194605,36.9345187397)"
    />
  
  <line
    x1="-217.36271946057866"
    y1="-26.93451873978089"
    x2="-217.36271946057866"
    y2="-21.93451873978089"
    stroke="hsla(0,50%,50%,0.6)"
    stroke-width="1"
    transform="translate(207.3627194605,36.9345187397)"
    />
  
  <line
    x1="-212.36271946057866"
    y1="-31.93451873978089"
    x2="-212.36271946057866"
    y2="-26.93451873978089"
    stroke="hsla(0,50%,50%,0.6)"
    stroke-width="1"
    transform="translate(207.3627194605,36.9345187397)"
    />
  
  <line
    x1="-207.36271946057866"
    y1="-36.93451873978089"
    x2="-207.36271946057866"
    y2="-31.93451873978089"
    stroke="hsla(0,50%,50%,0.6)"
    stroke-width="1"
    transform="translate(207.3627194605,36.9345187397)"
    />
  
  <line
    x1="-202.36271946057866"
    y1="-41.93451873978089"
    x2="-202.36271946057866"
    y2="-36.93451873978089"
    stroke="hsla(0,50%,50%,0.6)"
    stroke-width="1"
    transform="translate(207.3627194605,36.9345187397)"
    />
  
  <line
    x1="-197.36271946057866"
    y1="-46.93451873978089"
    x2="-197.36271946057866"
    y2="-41.93451873978089"
    stroke="hsla(0,50%,50%,0.6)"
    stroke-width="1"
    transform="translate(207.3627194605,36.9345187397)"
    />
  
  <line
    x1="-192.36271946057866"
    y1="-51.93451873978089"
    x2="-192.36271946057866"
    y2="-46.93451873978089"
    stroke="hsla(0,50%,50%,0.6)"
    stroke-width="1"
    transform="translate(207.3627194605,36.9345187397)"
    />
  
  <line
    x1="-187.36271946057866"
    y1="-56.93451873978089"
    x2="-187.36271946057866"
    y2="-51.93451873978089"
    stroke="hsla(0,50%,50%,0.6)"
    stroke-width="1"
    transform="translate(207.3627194605,36.9345187397)"
    />
  
  <line
    x1="-182.36271946057866"
    y1="-61.93451873978089"
    x2="-182.36271946057866"
    y2="-56.93451873978089"
    stroke="hsla(0,50%,50%,0.6)"
    stroke-width="1"
    transform="translate(207.3627194605,36.9345187397)"
    />
  
  <line
    x1="-177.36271946057866"
    y1="-66.93451873978088"
    x2="-177.36271946057866"
    y2="-61.93451873978089"
    stroke="hsla(0,50%,50%,0.6)"
    stroke-width="1"
    transform="translate(207.3627194605,36.9345187397)"
    />
  
  <line
    x1="-172.36271946057866"
    y1="-71.93451873978088"
    x2="-172.36271946057866"
    y2="-66.93451873978088"
    stroke="hsla(0,50%,50%,0.6)"
    stroke-width="1"
    transform="translate(207.3627194605,36.9345187397)"
    />
  
  <line
    x1="-167.36271946057866"
    y1="-76.93451873978088"
    x2="-167.36271946057866"
    y2="-71.93451873978088"
    stroke="hsla(0,50%,50%,0.6)"
    stroke-width="1"
    transform="translate(207.3627194605,36.9345187397)"
    />
  
  <line
    x1="-162.36271946057866"
    y1="-81.93451873978088"
    x2="-162.36271946057866"
    y2="-76.93451873978088"
    stroke="hsla(0,50%,50%,0.6)"
    stroke-width="1"
    transform="translate(207.3627194605,36.9345187397)"
    />
  
  <line
    x1="-157.36271946057866"
    y1="-86.93451873978088"
    x2="-157.36271946057866"
    y2="-81.93451873978088"
    stroke="hsla(0,50%,50%,0.6)"
    stroke-width="1"
    transform="translate(207.3627194605,36.9345187397)"
    />
  
  <line
    x1="-247.36271946057866"
    y1="3.06548126021911"
    x2="-242.36271946057866"
    y2="3.06548126021911"
    stroke="hsla(0,50%,50%,0.6)"
    stroke-width="1"
    transform="translate(207.3627194605,36.9345187397)"
    />
  
  <line
    x1="-252.36271946057866"
    y1="8.06548126021911"
    x2="-247.36271946057866"
    y2="8.06548126021911"
    stroke="hsla(0,50%,50%,0.6)"
    stroke-width="1"
    transform="translate(207.3627194605,36.9345187397)"
    />
  
  <line
    x1="-257.36271946057866"
    y1="13.06548126021911"
    x2="-252.36271946057866"
    y2="13.06548126021911"
    stroke="hsla(0,50%,50%,0.6)"
    stroke-width="1"
    transform="translate(207.3627194605,36.9345187397)"
    />
  
</svg>
