<?xml version="1.0"?>
<!DOCTYPE svg PUBLIC "-//W3C//DTD SVG 1.1//EN"
  "http://www.w3.org/Graphics/SVG/1.1/DTD/svg11.dtd">
<svg
  width="240"
  height="240"
  viewBox="-50 -50 200 200" xmlns="http://www.w3.org/2000/svg" version="1.1">
  <rect
    x="0"
    y="0"
    width="100"
    height="100"
    fill="hsla(206,100%,53%,0.3)"
    stroke="hsl(206,100%,53%)"
    stroke-width="3"
    transform="" />
  
  <path
    d="M 
      -72.5091636101
      67.7186177939
      L
    
      -72.5091636101
      72.7186177939
      L
    
      -167.5091636101
      167.7186177939
      L
    
      -172.5091636101
      167.7186177939
      z
    "
    fill="hsla(0,0%,50%,0.3)"
    stroke="hsla(0,0%,50%,1)"
    stroke-width="1"
    transform="translate(146.2591636101,-143.3436177939) scale(1,-1) translate(50,-110)"
    />
  
  
  <line
    x1="-72.50916361012516"
    y1="67.7186177939307"
    x2="-172.50916361012514"
    y2="167.71861779393072"
    stroke="hsla(0,50%,50%,0.6)"
    stroke-width="1"
    transform="translate(146.2591636101,-143.3436177939) scale(1,-1) translate(50,-110)"
    />
  
  <line
    x1="-167.50916361012514"
    y1="162.71861779393072"
    x2="-167.50916361012514"
    y2="167.71861779393072"
    stroke="hsla(0,50%,50%,0.6)"
    stroke-width="1"
    transform="translate(146.2591636101,-143.3436177939) scale(1,-1) translate(50,-110)"
    />
  
  <line
    x1="-162.50916361012514"
    y1="157.71861779393072"
    x2="-162.50916361012514"
    y2="162.71861779393072"
    stroke="hsla(0,50%,50%,0.6)"
    stroke-width="1"
    transform="translate(146.2591636101,-143.3436177939) scale(1,-1) translate(50,-110)"
    />
  
  <line
    x1="-157.50916361012514"
    y1="152.71861779393072"
    x2="-157.50916361012514"
    y2="157.71861779393072"
    stroke="hsla(0,50%,50%,0.6)"
    stroke-width="1"
    transform="translate(146.2591636101,-143.3436177939) scale(1,-1) translate(50,-110)"
    />
  
  <line
    x1="-152.50916361012514"
    y1="147.71861779393072"
    x2="-152.50916361012514"
    y2="152.71861779393072"
    stroke="hsla(0,50%,50%,0.6)"
    stroke-width="1"
    transform="translate(146.2591636101,-143.3436177939) scale(1,-1) translate(50,-110)"
    />
  
  <line
    x1="-147.50916361012514"
    y1="142.71861779393072"
    x2="-147.50916361012514"
    y2="147.71861779393072"
    stroke="hsla(0,50%,50%,0.6)"
    stroke-width="1"
    transform="translate(146.2591636101,-143.3436177939) scale(1,-1) translate(50,-110)"
    />
  
  <line
    x1="-142.50916361012514"
    y1="137.71861779393072"
    x2="-142.50916361012514"
    y2="142.71861779393072"
    stroke="hsla(0,50%,50%,0.6)"
    stroke-width="1"
    transform="translate(146.2591636101,-143.3436177939) scale(1,-1) translate(50,-110)"
    />
  
  <line
    x1="-137.50916361012514"
    y1="132.71861779393072"
    x2="-137.50916361012514"
    y2="137.71861779393072"
    stroke="hsla(0,50%,50%,0.6)"
    stroke-width="1"
    transform="translate(146.2591636101,-143.3436177939) scale(1,-1) translate(50,-110)"
    />
  
  <line
    x1="-132.50916361012514"
    y1="127.7186177939307"
    x2="-132.50916361012514"
    y2="132.71861779393072"
    stroke="hsla(0,50%,50%,0.6)"
    stroke-width="1"
    transform="translate(146.2591636101,-143.3436177939) scale(1,-1) translate(50,-110)"
    />
  
  <line
    x1="-127.50916361012516"
    y1="122.7186177939307"
    x2="-127.50916361012516"
    y2="127.7186177939307"
    stroke="hsla(0,50%,50%,0.6)"
    stroke-width="1"
    transform="translate(146.2591636101,-143.3436177939) scale(1,-1) translate(50,-110)"
    />
  
  <line
    x1="-122.50916361012516"
    y1="117.7186177939307"
    x2="-122.50916361012516"
    y2="122.7186177939307"
    stroke="hsla(0,50%,50%,0.6)"
    stroke-width="1"
    transform="translate(146.2591636101,-143.3436177939) scale(1,-1) translate(50,-110)"
    />
  
  <line
    x1="-117.50916361012516"
    y1="112.7186177939307"
    x2="-117.50916361012516"
    y2="117.7186177939307"
    stroke="hsla(0,50%,50%,0.6)"
    stroke-width="1"
    transform="translate(146.2591636101,-143.3436177939) scale(1,-1) translate(50,-110)"
    />
  
  <line
    x1="-112.50916361012516"
    y1="107.7186177939307"
    x2="-112.50916361012516"
    y2="112.7186177939307"
    stroke="hsla(0,50%,50%,0.6)"
    stroke-width="1"
    transform="translate(146.2591636101,-143.3436177939) scale(1,-1) translate(50,-110)"
    />
  
  <line
    x1="-107.50916361012516"
    y1="102.7186177939307"
    x2="-107.50916361012516"
    y2="107.7186177939307"
    stroke="hsla(0,50%,50%,0.6)"
    stroke-width="1"
    transform="translate(146.2591636101,-143.3436177939) scale(1,-1) translate(50,-110)"
    />
  
  <line
    x1="-102.50916361012516"
    y1="97.7186177939307"
    x2="-102.50916361012516"
    y2="102.7186177939307"
    stroke="hsla(0,50%,50%,0.6)"
    stroke-width="1"
    transform="translate(146.2591636101,-143.3436177939) scale(1,-1) translate(50,-110)"
    />
  
  <line
    x1="-97.50916361012516"
    y1="92.7186177939307"
    x2="-97.50916361012516"
    y2="97.7186177939307"
    stroke="hsla(0,50%,50%,0.6)"
    stroke-width="1"
    transform="translate(146.2591636101,-143.3436177939) scale(1,-1) translate(50,-110)"
    />
  
  <line
    x1="-92.50916361012516"
    y1="87.7186177939307"
    x2="-92.50916361012516"
    y2="92.7186177939307"
    stroke="hsla(0,50%,50%,0.6)"
    stroke-width="1"
    transform="translate(146.2591636101,-143.3436177939) scale(1,-1) translate(50,-110)"
    />
  
  <line
    x1="-87.50916361012516"
    y1="82.7186177939307"
    x2="-87.50916361012516"
    y2="87.7186177939307"
    stroke="hsla(0,50%,50%,0.6)"
    stroke-width="1"
    transform="translate(146.2591636101,-143.3436177939) scale(1,-1) translate(50,-110)"
    />
  
  <line
    x1="-82.50916361012516"
    y1="77.7186177939307"
    x2="-82.50916361012516"
    y2="82.7186177939307"
    stroke="hsla(0,50%,50%,0.6)"
    stroke-width="1"
    transform="translate(146.2591636101,-143.3436177939) scale(1,-1) translate(50,-110)"
    />
  
  <line
    x1="-77.50916361012516"
    y1="72.7186177939307"
    x2="-77.50916361012516"
    y2="77.7186177939307"
    stroke="hsla(0,50%,50%,0.6)"
    stroke-width="1"
    transform="translate(146.2591636101,-143.3436177939) scale(1,-1) translate(50,-110)"
    />
  
  <line
    x1="-72.50916361012516"
    y1="67.7186177939307"
    x2="-72.50916361012516"
    y2="72.7186177939307"
    stroke="hsla(0,50%,50%,0.6)"
    stroke-width="1"
    transform="translate(146.2591636101,-143.3436177939) scale(1,-1) translate(50,-110)"
    />
  
  <line
    x1="-72.50916361012516"
    y1="72.7186177939307"
    x2="-167.50916361012514"
    y2="167.71861779393072"
    stroke="hsla(0,50%,50%,0.6)"
    stroke-width="1"
    transform="translate(146.2591636101,-143.3436177939) scale(1,-1) translate(50,-110)"
    />
  
  <line
    x1="-77.50916361012516"
    y1="72.7186177939307"
    x2="-72.50916361012516"
    y2="72.7186177939307"
    stroke="hsla(0,50%,50%,0.6)"
    stroke-width="1"
    transform="translate(146.2591636101,-143.3436177939) scale(1,-1) translate(50,-110)"
    />
  
  <line
    x1="-82.50916361012516"
    y1="77.7186177939307"
    x2="-77.50916361012516"
    y2="77.7186177939307"
    stroke="hsla(0,50%,50%,0.6)"
    stroke-width="1"
    transform="translate(146.2591636101,-143.3436177939) scale(1,-1) translate(50,-110)"
    />
  
  <line
    x1="-87.50916361012516"
    y1="82.7186177939307"
    x2="-82.50916361012516"
    y2="82.7186177939307"
    stroke="hsla(0,50%,50%,0.6)"
    stroke-width="1"
    transform="translate(146.2591636101,-143.3436177939) scale(1,-1) translate(50,-110)"
    />
  
  <line
    x1="-92.50916361012516"
    y1="87.7186177939307"
    x2="-87.50916361012516"
    y2="87.7186177939307"
    stroke="hsla(0,50%,50%,0.6)"
    stroke-width="1"
    transform="translate(146.2591636101,-143.3436177939) scale(1,-1) translate(50,-110)"
    />
  
  <line
    x1="-97.50916361012516"
    y1="92.7186177939307"
    x2="-92.50916361012516"
    y2="92.7186177939307"
    stroke="hsla(0,50%,50%,0.6)"
    stroke-width="1"
    transform="translate(146.2591636101,-143.3436177939) scale(1,-1) translate(50,-110)"
    />
  
  <line
    x1="-102.50916361012516"
    y1="97.7186177939307"
    x2="-97.50916361012516"
    y2="97.7186177939307"
    stroke="hsla(0,50%,50%,0.6)"
    stroke-width="1"
    transform="translate(146.2591636101,-143.3436177939) scale(1,-1) translate(50,-110)"
    />
  
  <line
    x1="-107.50916361012516"
    y1="102.7186177939307"
    x2="-102.50916361012516"
    y2="102.7186177939307"
    stroke="hsla(0,50%,50%,0.6)"
    stroke-width="1"
    transform="translate(146.2591636101,-143.3436177939) scale(1,-1) translate(50,-110)"
    />
  
  <line
    x1="-112.50916361012516"
    y1="107.7186177939307"
    x2="-107.50916361012516"
    y2="107.7186177939307"
    stroke="hsla(0,50%,50%,0.6)"
    stroke-width="1"
    transform="translate(146.2591636101,-143.3436177939) scale(1,-1) translate(50,-110)"
    />
  
  <line
    x1="-117.50916361012516"
    y1="112.7186177939307"
    x2="-112.50916361012516"
    y2="112.7186177939307"
    stroke="hsla(0,50%,50%,0.6)"
    stroke-width="1"
    transform="translate(146.2591636101,-143.3436177939) scale(1,-1) translate(50,-110)"
    />
  
  <line
    x1="-122.50916361012516"
    y1="117.7186177939307"
    x2="-117.50916361012516"
    y2="117.7186177939307"
    stroke="hsla(0,50%,50%,0.6)"
    stroke-width="1"
    transform="translate(146.2591636101,-143.3436177939) scale(1,-1) translate(50,-110)"
    />
  
  <line
    x1="-127.50916361012516"
    y1="122.7186177939307"
    x2="-122.50916361012516"
    y2="122.7186177939307"
    stroke="hsla(0,50%,50%,0.6)"
    stroke-width="1"
    transform="translate(146.2591636101,-143.3436177939) scale(1,-1) translate(50,-110)"
    />
  
  <line
    x1="-132.50916361012514"
    y1="127.7186177939307"
    x2="-127.50916361012516"
    y2="127.7186177939307"
    stroke="hsla(0,50%,50%,0.6)"
    stroke-width="1"
    transform="translate(146.2591636101,-143.3436177939) scale(1,-1) translate(50,-110)"
    />
  
  <line
    x1="-137.50916361012514"
    y1="132.71861779393072"
    x2="-132.50916361012514"
    y2="132.71861779393072"
    stroke="hsla(0,50%,50%,0.6)"
    stroke-width="1"
    transform="translate(146.2591636101,-143.3436177939) scale(1,-1) translate(50,-110)"
    />
  
  <line
    x1="-142.50916361012514"
    y1="137.71861779393072"
    x2="-137.50916361012514"
    y2="137.71861779393072"
    stroke="hsla(0,50%,50%,0.6)"
    stroke-width="1"
    transform="translate(146.2591636101,-143.3436177939) scale(1,-1) translate(50,-110)"
    />
  
  <line
    x1="-147.50916361012514"
    y1="142.71861779393072"
    x2="-142.50916361012514"
    y2="142.71861779393072"
    stroke="hsla(0,50%,50%,0.6)"
    stroke-width="1"
    transform="translate(146.2591636101,-143.3436177939) scale(1,-1) translate(50,-110)"
    />
  
  <line
    x1="-152.50916361012514"
    y1="147.71861779393072"
    x2="-147.50916361012514"
    y2="147.71861779393072"
    stroke="hsla(0,50%,50%,0.6)"
    stroke-width="1"
    transform="translate(146.2591636101,-143.3436177939) scale(1,-1) translate(50,-110)"
    />
  
  <line
    x1="-157.50916361012514"
    y1="152.71861779393072"
    x2="-152.50916361012514"
    y2="152.71861779393072"
    stroke="hsla(0,50%,50%,0.6)"
    stroke-width="1"
    transform="translate(146.2591636101,-143.3436177939) scale(1,-1) translate(50,-110)"
    />
  
  <line
    x1="-162.50916361012514"
    y1="157.71861779393072"
    x2="-157.50916361012514"
    y2="157.71861779393072"
    stroke="hsla(0,50%,50%,0.6)"
    stroke-width="1"
    transform="translate(146.2591636101,-143.3436177939) scale(1,-1) translate(50,-110)"
    />
  
  <line
    x1="-167.50916361012514"
    y1="162.71861779393072"
    x2="-162.50916361012514"
    y2="162.71861779393072"
    stroke="hsla(0,50%,50%,0.6)"
    stroke-width="1"
    transform="translate(146.2591636101,-143.3436177939) scale(1,-1) translate(50,-110)"
    />
  
  <line
    x1="-172.50916361012514"
    y1="167.71861779393072"
    x2="-167.50916361012514"
    y2="167.71861779393072"
    stroke="hsla(0,50%,50%,0.6)"
    stroke-width="1"
    transform="translate(146.2591636101,-143.3436177939) scale(1,-1) translate(50,-110)"
    />
  
</svg>
