<?xml version="1.0"?>
<!DOCTYPE svg PUBLIC "-//W3C//DTD SVG 1.1//EN"
  "http://www.w3.org/Graphics/SVG/1.1/DTD/svg11.dtd">
<svg
  width="240"
  height="240"
  viewBox="-500 -500 1000 1000" xmlns="http://www.w3.org/2000/svg" version="1.1">
  <rect
    x="0"
    y="0"
    width="100"
    height="100"
    fill="hsla(206,100%,53%,0.3)"
    stroke="hsl(206,100%,53%)"
    stroke-width="3"
    transform="" />
  
  <path
    d="M 
      -80.5775502926
      -18.9566473276
      L
    
      -80.5775502926
      -13.9566473276
      L
    
      -175.5775502926
      81.0433526723
      L
    
      -180.5775502926
      81.0433526723
      z
    "
    fill="hsla(0,0%,50%,0.3)"
    stroke="hsla(0,0%,50%,1)"
    stroke-width="1"
    transform="translate(130.5775502926,-31.0433526723)"
    />
  
  
  <line
    x1="-80.57755029268768"
    y1="-18.956647327686543"
    x2="-180.57755029268768"
    y2="81.04335267231346"
    stroke="hsla(0,50%,50%,0.6)"
    stroke-width="1"
    transform="translate(130.5775502926,-31.0433526723)"
    />
  
  <line
    x1="-80.57755029268768"
    y1="-13.956647327686541"
    x2="-175.57755029268768"
    y2="81.04335267231346"
    stroke="hsla(0,50%,50%,0.6)"
    stroke-width="1"
    transform="translate(130.5775502926,-31.0433526723)"
    />
  
  <line
    x1="-85.57755029268768"
    y1="-13.956647327686541"
    x2="-80.57755029268768"
    y2="-13.956647327686541"
    stroke="hsla(0,50%,50%,0.6)"
    stroke-width="1"
    transform="translate(130.5775502926,-31.0433526723)"
    />
  
  <line
    x1="-90.57755029268768"
    y1="-8.956647327686541"
    x2="-85.57755029268768"
    y2="-8.956647327686541"
    stroke="hsla(0,50%,50%,0.6)"
    stroke-width="1"
    transform="translate(130.5775502926,-31.0433526723)"
    />
  
  <line
    x1="-95.57755029268768"
    y1="-3.9566473276865417"
    x2="-90.57755029268768"
    y2="-3.9566473276865417"
    stroke="hsla(0,50%,50%,0.6)"
    stroke-width="1"
    transform="translate(130.5775502926,-31.0433526723)"
    />
  
  <line
    x1="-175.57755029268768"
    y1="76.04335267231346"
    x2="-175.57755029268768"
    y2="81.04335267231346"
    stroke="hsla(0,50%,50%,0.6)"
    stroke-width="1"
    transform="translate(130.5775502926,-31.0433526723)"
    />
  
  <line
    x1="-170.57755029268768"
    y1="71.04335267231346"
    x2="-170.57755029268768"
    y2="76.04335267231346"
    stroke="hsla(0,50%,50%,0.6)"
    stroke-width="1"
    transform="translate(130.5775502926,-31.0433526723)"
    />
  
  <line
    x1="-165.57755029268768"
    y1="66.04335267231346"
    x2="-165.57755029268768"
    y2="71.04335267231346"
    stroke="hsla(0,50%,50%,0.6)"
    stroke-width="1"
    transform="translate(130.5775502926,-31.0433526723)"
    />
  
  <line
    x1="-160.57755029268768"
    y1="61.04335267231346"
    x2="-160.57755029268768"
    y2="66.04335267231346"
    stroke="hsla(0,50%,50%,0.6)"
    stroke-width="1"
    transform="translate(130.5775502926,-31.0433526723)"
    />
  
  <line
    x1="-155.57755029268768"
    y1="56.04335267231346"
    x2="-155.57755029268768"
    y2="61.04335267231346"
    stroke="hsla(0,50%,50%,0.6)"
    stroke-width="1"
    transform="translate(130.5775502926,-31.0433526723)"
    />
  
  <line
    x1="-150.57755029268768"
    y1="51.04335267231346"
    x2="-150.57755029268768"
    y2="56.04335267231346"
    stroke="hsla(0,50%,50%,0.6)"
    stroke-width="1"
    transform="translate(130.5775502926,-31.0433526723)"
    />
  
  <line
    x1="-145.57755029268768"
    y1="46.04335267231346"
    x2="-145.57755029268768"
    y2="51.04335267231346"
    stroke="hsla(0,50%,50%,0.6)"
    stroke-width="1"
    transform="translate(130.5775502926,-31.0433526723)"
    />
  
  <line
    x1="-140.57755029268768"
    y1="41.04335267231346"
    x2="-140.57755029268768"
    y2="46.04335267231346"
    stroke="hsla(0,50%,50%,0.6)"
    stroke-width="1"
    transform="translate(130.5775502926,-31.0433526723)"
    />
  
  <line
    x1="-135.57755029268768"
    y1="36.04335267231346"
    x2="-135.57755029268768"
    y2="41.04335267231346"
    stroke="hsla(0,50%,50%,0.6)"
    stroke-width="1"
    transform="translate(130.5775502926,-31.0433526723)"
    />
  
  <line
    x1="-130.57755029268768"
    y1="31.043352672313457"
    x2="-130.57755029268768"
    y2="36.04335267231346"
    stroke="hsla(0,50%,50%,0.6)"
    stroke-width="1"
    transform="translate(130.5775502926,-31.0433526723)"
    />
  
  <line
    x1="-125.57755029268768"
    y1="26.043352672313457"
    x2="-125.57755029268768"
    y2="31.043352672313457"
    stroke="hsla(0,50%,50%,0.6)"
    stroke-width="1"
    transform="translate(130.5775502926,-31.0433526723)"
    />
  
  <line
    x1="-120.57755029268768"
    y1="21.043352672313457"
    x2="-120.57755029268768"
    y2="26.043352672313457"
    stroke="hsla(0,50%,50%,0.6)"
    stroke-width="1"
    transform="translate(130.5775502926,-31.0433526723)"
    />
  
  <line
    x1="-115.57755029268768"
    y1="16.043352672313457"
    x2="-115.57755029268768"
    y2="21.043352672313457"
    stroke="hsla(0,50%,50%,0.6)"
    stroke-width="1"
    transform="translate(130.5775502926,-31.0433526723)"
    />
  
  <line
    x1="-110.57755029268768"
    y1="11.043352672313459"
    x2="-110.57755029268768"
    y2="16.043352672313457"
    stroke="hsla(0,50%,50%,0.6)"
    stroke-width="1"
    transform="translate(130.5775502926,-31.0433526723)"
    />
  
  <line
    x1="-105.57755029268768"
    y1="6.043352672313458"
    x2="-105.57755029268768"
    y2="11.043352672313459"
    stroke="hsla(0,50%,50%,0.6)"
    stroke-width="1"
    transform="translate(130.5775502926,-31.0433526723)"
    />
  
  <line
    x1="-100.57755029268768"
    y1="1.0433526723134583"
    x2="-100.57755029268768"
    y2="6.043352672313458"
    stroke="hsla(0,50%,50%,0.6)"
    stroke-width="1"
    transform="translate(130.5775502926,-31.0433526723)"
    />
  
  <line
    x1="-95.57755029268768"
    y1="-3.9566473276865417"
    x2="-95.57755029268768"
    y2="1.0433526723134583"
    stroke="hsla(0,50%,50%,0.6)"
    stroke-width="1"
    transform="translate(130.5775502926,-31.0433526723)"
    />
  
  <line
    x1="-90.57755029268768"
    y1="-8.956647327686541"
    x2="-90.57755029268768"
    y2="-3.9566473276865417"
    stroke="hsla(0,50%,50%,0.6)"
    stroke-width="1"
    transform="translate(130.5775502926,-31.0433526723)"
    />
  
  <line
    x1="-85.57755029268768"
    y1="-13.956647327686541"
    x2="-85.57755029268768"
    y2="-8.956647327686541"
    stroke="hsla(0,50%,50%,0.6)"
    stroke-width="1"
    transform="translate(130.5775502926,-31.0433526723)"
    />
  
  <line
    x1="-80.57755029268768"
    y1="-18.956647327686543"
    x2="-80.57755029268768"
    y2="-13.956647327686541"
    stroke="hsla(0,50%,50%,0.6)"
    stroke-width="1"
    transform="translate(130.5775502926,-31.0433526723)"
    />
  
  <line
    x1="-100.57755029268768"
    y1="1.0433526723134583"
    x2="-95.57755029268768"
    y2="1.0433526723134583"
    stroke="hsla(0,50%,50%,0.6)"
    stroke-width="1"
    transform="translate(130.5775502926,-31.0433526723)"
    />
  
  <line
    x1="-105.57755029268768"
    y1="6.043352672313458"
    x2="-100.57755029268768"
    y2="6.043352672313458"
    stroke="hsla(0,50%,50%,0.6)"
    stroke-width="1"
    transform="translate(130.5775502926,-31.0433526723)"
    />
  
  <line
    x1="-110.57755029268768"
    y1="11.043352672313459"
    x2="-105.57755029268768"
    y2="11.043352672313459"
    stroke="hsla(0,50%,50%,0.6)"
    stroke-width="1"
    transform="translate(130.5775502926,-31.0433526723)"
    />
  
  <line
    x1="-115.57755029268768"
    y1="16.043352672313457"
    x2="-110.57755029268768"
    y2="16.043352672313457"
    stroke="hsla(0,50%,50%,0.6)"
    stroke-width="1"
    transform="translate(130.5775502926,-31.0433526723)"
    />
  
  <line
    x1="-120.57755029268768"
    y1="21.043352672313457"
    x2="-115.57755029268768"
    y2="21.043352672313457"
    stroke="hsla(0,50%,50%,0.6)"
    stroke-width="1"
    transform="translate(130.5775502926,-31.0433526723)"
    />
  
  <line
    x1="-125.57755029268768"
    y1="26.043352672313457"
    x2="-120.57755029268768"
    y2="26.043352672313457"
    stroke="hsla(0,50%,50%,0.6)"
    stroke-width="1"
    transform="translate(130.5775502926,-31.0433526723)"
    />
  
  <line
    x1="-130.57755029268768"
    y1="31.043352672313457"
    x2="-125.57755029268768"
    y2="31.043352672313457"
    stroke="hsla(0,50%,50%,0.6)"
    stroke-width="1"
    transform="translate(130.5775502926,-31.0433526723)"
    />
  
  <line
    x1="-135.57755029268768"
    y1="36.04335267231346"
    x2="-130.57755029268768"
    y2="36.04335267231346"
    stroke="hsla(0,50%,50%,0.6)"
    stroke-width="1"
    transform="translate(130.5775502926,-31.0433526723)"
    />
  
  <line
    x1="-140.57755029268768"
    y1="41.04335267231346"
    x2="-135.57755029268768"
    y2="41.04335267231346"
    stroke="hsla(0,50%,50%,0.6)"
    stroke-width="1"
    transform="translate(130.5775502926,-31.0433526723)"
    />
  
  <line
    x1="-145.57755029268768"
    y1="46.04335267231346"
    x2="-140.57755029268768"
    y2="46.04335267231346"
    stroke="hsla(0,50%,50%,0.6)"
    stroke-width="1"
    transform="translate(130.5775502926,-31.0433526723)"
    />
  
  <line
    x1="-150.57755029268768"
    y1="51.04335267231346"
    x2="-145.57755029268768"
    y2="51.04335267231346"
    stroke="hsla(0,50%,50%,0.6)"
    stroke-width="1"
    transform="translate(130.5775502926,-31.0433526723)"
    />
  
  <line
    x1="-155.57755029268768"
    y1="56.04335267231346"
    x2="-150.57755029268768"
    y2="56.04335267231346"
    stroke="hsla(0,50%,50%,0.6)"
    stroke-width="1"
    transform="translate(130.5775502926,-31.0433526723)"
    />
  
  <line
    x1="-160.57755029268768"
    y1="61.04335267231346"
    x2="-155.57755029268768"
    y2="61.04335267231346"
    stroke="hsla(0,50%,50%,0.6)"
    stroke-width="1"
    transform="translate(130.5775502926,-31.0433526723)"
    />
  
  <line
    x1="-165.57755029268768"
    y1="66.04335267231346"
    x2="-160.57755029268768"
    y2="66.04335267231346"
    stroke="hsla(0,50%,50%,0.6)"
    stroke-width="1"
    transform="translate(130.5775502926,-31.0433526723)"
    />
  
  <line
    x1="-170.57755029268768"
    y1="71.04335267231346"
    x2="-165.57755029268768"
    y2="71.04335267231346"
    stroke="hsla(0,50%,50%,0.6)"
    stroke-width="1"
    transform="translate(130.5775502926,-31.0433526723)"
    />
  
  <line
    x1="-175.57755029268768"
    y1="76.04335267231346"
    x2="-170.57755029268768"
    y2="76.04335267231346"
    stroke="hsla(0,50%,50%,0.6)"
    stroke-width="1"
    transform="translate(130.5775502926,-31.0433526723)"
    />
  
  <line
    x1="-180.57755029268768"
    y1="81.04335267231346"
    x2="-175.57755029268768"
    y2="81.04335267231346"
    stroke="hsla(0,50%,50%,0.6)"
    stroke-width="1"
    transform="translate(130.5775502926,-31.0433526723)"
    />
  
</svg>
