<?xml version="1.0"?>
<!DOCTYPE svg PUBLIC "-//W3C//DTD SVG 1.1//EN"
  "http://www.w3.org/Graphics/SVG/1.1/DTD/svg11.dtd">
<svg
  width="240"
  height="240"
  viewBox="-50 -50 200 200" xmlns="http://www.w3.org/2000/svg" version="1.1">
  <rect
    x="0"
    y="0"
    width="100"
    height="100"
    fill="hsla(206,100%,53%,0.3)"
    stroke="hsl(206,100%,53%)"
    stroke-width="3"
    transform="" />
  
  <path
    d="M 
      895.3500342358
      -30.1414709017
      L
    
      895.3500342358
      -25.1414709017
      L
    
      800.3500342358
      69.8585290982
      L
    
      795.3500342358
      69.8585290982
      z
    "
    fill="hsla(0,0%,50%,0.3)"
    stroke="hsla(0,0%,50%,1)"
    stroke-width="1"
    transform="translate(-821.6000342358,-45.4835290982) scale(1,-1) translate(50,-110)"
    />
  
  
  <line
    x1="890.3500342358687"
    y1="-25.141470901738685"
    x2="895.3500342358687"
    y2="-25.141470901738685"
    stroke="hsla(0,50%,50%,0.6)"
    stroke-width="1"
    transform="translate(-821.6000342358,-45.4835290982) scale(1,-1) translate(50,-110)"
    />
  
  <line
    x1="885.3500342358687"
    y1="-20.141470901738685"
    x2="890.3500342358687"
    y2="-20.141470901738685"
    stroke="hsla(0,50%,50%,0.6)"
    stroke-width="1"
    transform="translate(-821.6000342358,-45.4835290982) scale(1,-1) translate(50,-110)"
    />
  
  <line
    x1="880.3500342358687"
    y1="-15.141470901738684"
    x2="885.3500342358687"
    y2="-15.141470901738684"
    stroke="hsla(0,50%,50%,0.6)"
    stroke-width="1"
    transform="translate(-821.6000342358,-45.4835290982) scale(1,-1) translate(50,-110)"
    />
  
  <line
    x1="875.3500342358687"
    y1="-10.141470901738684"
    x2="880.3500342358687"
    y2="-10.141470901738684"
    stroke="hsla(0,50%,50%,0.6)"
    stroke-width="1"
    transform="translate(-821.6000342358,-45.4835290982) scale(1,-1) translate(50,-110)"
    />
  
  <line
    x1="870.3500342358687"
    y1="-5.141470901738684"
    x2="875.3500342358687"
    y2="-5.141470901738684"
    stroke="hsla(0,50%,50%,0.6)"
    stroke-width="1"
    transform="translate(-821.6000342358,-45.4835290982) scale(1,-1) translate(50,-110)"
    />
  
  <line
    x1="865.3500342358687"
    y1="-0.14147090173868385"
    x2="870.3500342358687"
    y2="-0.14147090173868385"
    stroke="hsla(0,50%,50%,0.6)"
    stroke-width="1"
    transform="translate(-821.6000342358,-45.4835290982) scale(1,-1) translate(50,-110)"
    />
  
  <line
    x1="800.3500342358687"
    y1="64.85852909826131"
    x2="800.3500342358687"
    y2="69.85852909826131"
    stroke="hsla(0,50%,50%,0.6)"
    stroke-width="1"
    transform="translate(-821.6000342358,-45.4835290982) scale(1,-1) translate(50,-110)"
    />
  
  <line
    x1="805.3500342358687"
    y1="59.858529098261315"
    x2="805.3500342358687"
    y2="64.85852909826131"
    stroke="hsla(0,50%,50%,0.6)"
    stroke-width="1"
    transform="translate(-821.6000342358,-45.4835290982) scale(1,-1) translate(50,-110)"
    />
  
  <line
    x1="810.3500342358687"
    y1="54.858529098261315"
    x2="810.3500342358687"
    y2="59.858529098261315"
    stroke="hsla(0,50%,50%,0.6)"
    stroke-width="1"
    transform="translate(-821.6000342358,-45.4835290982) scale(1,-1) translate(50,-110)"
    />
  
  <line
    x1="815.3500342358687"
    y1="49.858529098261315"
    x2="815.3500342358687"
    y2="54.858529098261315"
    stroke="hsla(0,50%,50%,0.6)"
    stroke-width="1"
    transform="translate(-821.6000342358,-45.4835290982) scale(1,-1) translate(50,-110)"
    />
  
  <line
    x1="820.3500342358687"
    y1="44.858529098261315"
    x2="820.3500342358687"
    y2="49.858529098261315"
    stroke="hsla(0,50%,50%,0.6)"
    stroke-width="1"
    transform="translate(-821.6000342358,-45.4835290982) scale(1,-1) translate(50,-110)"
    />
  
  <line
    x1="825.3500342358687"
    y1="39.858529098261315"
    x2="825.3500342358687"
    y2="44.858529098261315"
    stroke="hsla(0,50%,50%,0.6)"
    stroke-width="1"
    transform="translate(-821.6000342358,-45.4835290982) scale(1,-1) translate(50,-110)"
    />
  
  <line
    x1="830.3500342358687"
    y1="34.858529098261315"
    x2="830.3500342358687"
    y2="39.858529098261315"
    stroke="hsla(0,50%,50%,0.6)"
    stroke-width="1"
    transform="translate(-821.6000342358,-45.4835290982) scale(1,-1) translate(50,-110)"
    />
  
  <line
    x1="835.3500342358687"
    y1="29.858529098261315"
    x2="835.3500342358687"
    y2="34.858529098261315"
    stroke="hsla(0,50%,50%,0.6)"
    stroke-width="1"
    transform="translate(-821.6000342358,-45.4835290982) scale(1,-1) translate(50,-110)"
    />
  
  <line
    x1="840.3500342358687"
    y1="24.858529098261315"
    x2="840.3500342358687"
    y2="29.858529098261315"
    stroke="hsla(0,50%,50%,0.6)"
    stroke-width="1"
    transform="translate(-821.6000342358,-45.4835290982) scale(1,-1) translate(50,-110)"
    />
  
  <line
    x1="845.3500342358687"
    y1="19.858529098261315"
    x2="845.3500342358687"
    y2="24.858529098261315"
    stroke="hsla(0,50%,50%,0.6)"
    stroke-width="1"
    transform="translate(-821.6000342358,-45.4835290982) scale(1,-1) translate(50,-110)"
    />
  
  <line
    x1="850.3500342358687"
    y1="14.858529098261316"
    x2="850.3500342358687"
    y2="19.858529098261315"
    stroke="hsla(0,50%,50%,0.6)"
    stroke-width="1"
    transform="translate(-821.6000342358,-45.4835290982) scale(1,-1) translate(50,-110)"
    />
  
  <line
    x1="855.3500342358687"
    y1="9.858529098261316"
    x2="855.3500342358687"
    y2="14.858529098261316"
    stroke="hsla(0,50%,50%,0.6)"
    stroke-width="1"
    transform="translate(-821.6000342358,-45.4835290982) scale(1,-1) translate(50,-110)"
    />
  
  <line
    x1="860.3500342358687"
    y1="4.858529098261316"
    x2="860.3500342358687"
    y2="9.858529098261316"
    stroke="hsla(0,50%,50%,0.6)"
    stroke-width="1"
    transform="translate(-821.6000342358,-45.4835290982) scale(1,-1) translate(50,-110)"
    />
  
  <line
    x1="865.3500342358687"
    y1="-0.14147090173868385"
    x2="865.3500342358687"
    y2="4.858529098261316"
    stroke="hsla(0,50%,50%,0.6)"
    stroke-width="1"
    transform="translate(-821.6000342358,-45.4835290982) scale(1,-1) translate(50,-110)"
    />
  
  <line
    x1="870.3500342358687"
    y1="-5.141470901738684"
    x2="870.3500342358687"
    y2="-0.14147090173868385"
    stroke="hsla(0,50%,50%,0.6)"
    stroke-width="1"
    transform="translate(-821.6000342358,-45.4835290982) scale(1,-1) translate(50,-110)"
    />
  
  <line
    x1="875.3500342358687"
    y1="-10.141470901738684"
    x2="875.3500342358687"
    y2="-5.141470901738684"
    stroke="hsla(0,50%,50%,0.6)"
    stroke-width="1"
    transform="translate(-821.6000342358,-45.4835290982) scale(1,-1) translate(50,-110)"
    />
  
  <line
    x1="880.3500342358687"
    y1="-15.141470901738684"
    x2="880.3500342358687"
    y2="-10.141470901738684"
    stroke="hsla(0,50%,50%,0.6)"
    stroke-width="1"
    transform="translate(-821.6000342358,-45.4835290982) scale(1,-1) translate(50,-110)"
    />
  
  <line
    x1="885.3500342358687"
    y1="-20.141470901738685"
    x2="885.3500342358687"
    y2="-15.141470901738684"
    stroke="hsla(0,50%,50%,0.6)"
    stroke-width="1"
    transform="translate(-821.6000342358,-45.4835290982) scale(1,-1) translate(50,-110)"
    />
  
  <line
    x1="890.3500342358687"
    y1="-25.141470901738685"
    x2="890.3500342358687"
    y2="-20.141470901738685"
    stroke="hsla(0,50%,50%,0.6)"
    stroke-width="1"
    transform="translate(-821.6000342358,-45.4835290982) scale(1,-1) translate(50,-110)"
    />
  
  <line
    x1="895.3500342358687"
    y1="-30.141470901738685"
    x2="895.3500342358687"
    y2="-25.141470901738685"
    stroke="hsla(0,50%,50%,0.6)"
    stroke-width="1"
    transform="translate(-821.6000342358,-45.4835290982) scale(1,-1) translate(50,-110)"
    />
  
  <line
    x1="860.3500342358687"
    y1="4.858529098261316"
    x2="865.3500342358687"
    y2="4.858529098261316"
    stroke="hsla(0,50%,50%,0.6)"
    stroke-width="1"
    transform="translate(-821.6000342358,-45.4835290982) scale(1,-1) translate(50,-110)"
    />
  
  <line
    x1="855.3500342358687"
    y1="9.858529098261316"
    x2="860.3500342358687"
    y2="9.858529098261316"
    stroke="hsla(0,50%,50%,0.6)"
    stroke-width="1"
    transform="translate(-821.6000342358,-45.4835290982) scale(1,-1) translate(50,-110)"
    />
  
  <line
    x1="850.3500342358687"
    y1="14.858529098261316"
    x2="855.3500342358687"
    y2="14.858529098261316"
    stroke="hsla(0,50%,50%,0.6)"
    stroke-width="1"
    transform="translate(-821.6000342358,-45.4835290982) scale(1,-1) translate(50,-110)"
    />
  
  <line
    x1="845.3500342358687"
    y1="19.858529098261315"
    x2="850.3500342358687"
    y2="19.858529098261315"
    stroke="hsla(0,50%,50%,0.6)"
    stroke-width="1"
    transform="translate(-821.6000342358,-45.4835290982) scale(1,-1) translate(50,-110)"
    />
  
  <line
    x1="840.3500342358687"
    y1="24.858529098261315"
    x2="845.3500342358687"
    y2="24.858529098261315"
    stroke="hsla(0,50%,50%,0.6)"
    stroke-width="1"
    transform="translate(-821.6000342358,-45.4835290982) scale(1,-1) translate(50,-110)"
    />
  
  <line
    x1="835.3500342358687"
    y1="29.858529098261315"
    x2="840.3500342358687"
    y2="29.858529098261315"
    stroke="hsla(0,50%,50%,0.6)"
    stroke-width="1"
    transform="translate(-821.6000342358,-45.4835290982) scale(1,-1) translate(50,-110)"
    />
  
  <line
    x1="830.3500342358687"
    y1="34.858529098261315"
    x2="835.3500342358687"
    y2="34.858529098261315"
    stroke="hsla(0,50%,50%,0.6)"
    stroke-width="1"
    transform="translate(-821.6000342358,-45.4835290982) scale(1,-1) translate(50,-110)"
    />
  
  <line
    x1="825.3500342358687"
    y1="39.858529098261315"
    x2="830.3500342358687"
    y2="39.858529098261315"
    stroke="hsla(0,50%,50%,0.6)"
    stroke-width="1"
    transform="translate(-821.6000342358,-45.4835290982) scale(1,-1) translate(50,-110)"
    />
  
  <line
    x1="820.3500342358687"
    y1="44.858529098261315"
    x2="825.3500342358687"
    y2="44.858529098261315"
    stroke="hsla(0,50%,50%,0.6)"
    stroke-width="1"
    transform="translate(-821.6000342358,-45.4835290982) scale(1,-1) translate(50,-110)"
    />
  
  <line
    x1="815.3500342358687"
    y1="49.858529098261315"
    x2="820.3500342358687"
    y2="49.858529098261315"
    stroke="hsla(0,50%,50%,0.6)"
    stroke-width="1"
    transform="translate(-821.6000342358,-45.4835290982) scale(1,-1) translate(50,-110)"
    />
  
  <line
    x1="810.3500342358687"
    y1="54.858529098261315"
    x2="815.3500342358687"
    y2="54.858529098261315"
    stroke="hsla(0,50%,50%,0.6)"
    stroke-width="1"
    transform="translate(-821.6000342358,-45.4835290982) scale(1,-1) translate(50,-110)"
    />
  
  <line
    x1="805.3500342358687"
    y1="59.858529098261315"
    x2="810.3500342358687"
    y2="59.858529098261315"
    stroke="hsla(0,50%,50%,0.6)"
    stroke-width="1"
    transform="translate(-821.6000342358,-45.4835290982) scale(1,-1) translate(50,-110)"
    />
  
  <line
    x1="800.3500342358687"
    y1="64.85852909826131"
    x2="805.3500342358687"
    y2="64.85852909826131"
    stroke="hsla(0,50%,50%,0.6)"
    stroke-width="1"
    transform="translate(-821.6000342358,-45.4835290982) scale(1,-1) translate(50,-110)"
    />
  
  <line
    x1="795.3500342358687"
    y1="69.85852909826131"
    x2="800.3500342358687"
    y2="69.85852909826131"
    stroke="hsla(0,50%,50%,0.6)"
    stroke-width="1"
    transform="translate(-821.6000342358,-45.4835290982) scale(1,-1) translate(50,-110)"
    />
  
  <line
    x1="895.3500342358687"
    y1="-30.141470901738685"
    x2="795.3500342358687"
    y2="69.85852909826131"
    stroke="hsla(0,50%,50%,0.6)"
    stroke-width="1"
    transform="translate(-821.6000342358,-45.4835290982) scale(1,-1) translate(50,-110)"
    />
  
  <line
    x1="895.3500342358687"
    y1="-25.141470901738685"
    x2="800.3500342358687"
    y2="69.85852909826131"
    stroke="hsla(0,50%,50%,0.6)"
    stroke-width="1"
    transform="translate(-821.6000342358,-45.4835290982) scale(1,-1) translate(50,-110)"
    />
  
</svg>
