<?xml version="1.0"?>
<!DOCTYPE svg PUBLIC "-//W3C//DTD SVG 1.1//EN"
  "http://www.w3.org/Graphics/SVG/1.1/DTD/svg11.dtd">
<svg
  width="240"
  height="240"
  viewBox="-50 -50 200 200" xmlns="http://www.w3.org/2000/svg" version="1.1">
  <rect
    x="0"
    y="0"
    width="100"
    height="100"
    fill="hsla(206,100%,53%,0.3)"
    stroke="hsl(206,100%,53%)"
    stroke-width="3"
    transform="" />
  
  <path
    d="M 
      54.7047931014
      -149.5645917287
      L
    
      54.7047931014
      -144.5645917287
      L
    
      -40.2952068985
      -49.5645917287
      L
    
      -45.2952068985
      -49.5645917287
      z
    "
    fill="hsla(0,0%,50%,0.3)"
    stroke="hsla(0,0%,50%,1)"
    stroke-width="1"
    transform="translate(19.0452068985,73.9395917287) scale(1,-1) translate(50,-110)"
    />
  
  
  <line
    x1="49.70479310140851"
    y1="-144.56459172874628"
    x2="54.70479310140851"
    y2="-144.56459172874628"
    stroke="hsla(0,50%,50%,0.6)"
    stroke-width="1"
    transform="translate(19.0452068985,73.9395917287) scale(1,-1) translate(50,-110)"
    />
  
  <line
    x1="44.70479310140851"
    y1="-139.56459172874628"
    x2="49.70479310140851"
    y2="-139.56459172874628"
    stroke="hsla(0,50%,50%,0.6)"
    stroke-width="1"
    transform="translate(19.0452068985,73.9395917287) scale(1,-1) translate(50,-110)"
    />
  
  <line
    x1="39.70479310140851"
    y1="-134.56459172874628"
    x2="44.70479310140851"
    y2="-134.56459172874628"
    stroke="hsla(0,50%,50%,0.6)"
    stroke-width="1"
    transform="translate(19.0452068985,73.9395917287) scale(1,-1) translate(50,-110)"
    />
  
  <line
    x1="34.70479310140851"
    y1="-129.56459172874628"
    x2="39.70479310140851"
    y2="-129.56459172874628"
    stroke="hsla(0,50%,50%,0.6)"
    stroke-width="1"
    transform="translate(19.0452068985,73.9395917287) scale(1,-1) translate(50,-110)"
    />
  
  <line
    x1="29.704793101408516"
    y1="-124.56459172874627"
    x2="34.70479310140851"
    y2="-124.56459172874627"
    stroke="hsla(0,50%,50%,0.6)"
    stroke-width="1"
    transform="translate(19.0452068985,73.9395917287) scale(1,-1) translate(50,-110)"
    />
  
  <line
    x1="24.704793101408516"
    y1="-119.56459172874627"
    x2="29.704793101408516"
    y2="-119.56459172874627"
    stroke="hsla(0,50%,50%,0.6)"
    stroke-width="1"
    transform="translate(19.0452068985,73.9395917287) scale(1,-1) translate(50,-110)"
    />
  
  <line
    x1="19.704793101408516"
    y1="-114.56459172874627"
    x2="24.704793101408516"
    y2="-114.56459172874627"
    stroke="hsla(0,50%,50%,0.6)"
    stroke-width="1"
    transform="translate(19.0452068985,73.9395917287) scale(1,-1) translate(50,-110)"
    />
  
  <line
    x1="14.704793101408516"
    y1="-109.56459172874627"
    x2="19.704793101408516"
    y2="-109.56459172874627"
    stroke="hsla(0,50%,50%,0.6)"
    stroke-width="1"
    transform="translate(19.0452068985,73.9395917287) scale(1,-1) translate(50,-110)"
    />
  
  <line
    x1="9.704793101408516"
    y1="-104.56459172874627"
    x2="14.704793101408516"
    y2="-104.56459172874627"
    stroke="hsla(0,50%,50%,0.6)"
    stroke-width="1"
    transform="translate(19.0452068985,73.9395917287) scale(1,-1) translate(50,-110)"
    />
  
  <line
    x1="4.704793101408516"
    y1="-99.56459172874627"
    x2="9.704793101408516"
    y2="-99.56459172874627"
    stroke="hsla(0,50%,50%,0.6)"
    stroke-width="1"
    transform="translate(19.0452068985,73.9395917287) scale(1,-1) translate(50,-110)"
    />
  
  <line
    x1="-0.29520689859148425"
    y1="-94.56459172874627"
    x2="4.704793101408516"
    y2="-94.56459172874627"
    stroke="hsla(0,50%,50%,0.6)"
    stroke-width="1"
    transform="translate(19.0452068985,73.9395917287) scale(1,-1) translate(50,-110)"
    />
  
  <line
    x1="-5.295206898591484"
    y1="-89.56459172874627"
    x2="-0.29520689859148425"
    y2="-89.56459172874627"
    stroke="hsla(0,50%,50%,0.6)"
    stroke-width="1"
    transform="translate(19.0452068985,73.9395917287) scale(1,-1) translate(50,-110)"
    />
  
  <line
    x1="-10.295206898591484"
    y1="-84.56459172874627"
    x2="-5.295206898591484"
    y2="-84.56459172874627"
    stroke="hsla(0,50%,50%,0.6)"
    stroke-width="1"
    transform="translate(19.0452068985,73.9395917287) scale(1,-1) translate(50,-110)"
    />
  
  <line
    x1="-15.295206898591484"
    y1="-79.56459172874627"
    x2="-10.295206898591484"
    y2="-79.56459172874627"
    stroke="hsla(0,50%,50%,0.6)"
    stroke-width="1"
    transform="translate(19.0452068985,73.9395917287) scale(1,-1) translate(50,-110)"
    />
  
  <line
    x1="-20.295206898591484"
    y1="-74.56459172874627"
    x2="-15.295206898591484"
    y2="-74.56459172874627"
    stroke="hsla(0,50%,50%,0.6)"
    stroke-width="1"
    transform="translate(19.0452068985,73.9395917287) scale(1,-1) translate(50,-110)"
    />
  
  <line
    x1="-25.295206898591484"
    y1="-69.56459172874627"
    x2="-20.295206898591484"
    y2="-69.56459172874627"
    stroke="hsla(0,50%,50%,0.6)"
    stroke-width="1"
    transform="translate(19.0452068985,73.9395917287) scale(1,-1) translate(50,-110)"
    />
  
  <line
    x1="-30.295206898591484"
    y1="-64.56459172874627"
    x2="-25.295206898591484"
    y2="-64.56459172874627"
    stroke="hsla(0,50%,50%,0.6)"
    stroke-width="1"
    transform="translate(19.0452068985,73.9395917287) scale(1,-1) translate(50,-110)"
    />
  
  <line
    x1="-35.29520689859149"
    y1="-59.564591728746265"
    x2="-30.295206898591484"
    y2="-59.564591728746265"
    stroke="hsla(0,50%,50%,0.6)"
    stroke-width="1"
    transform="translate(19.0452068985,73.9395917287) scale(1,-1) translate(50,-110)"
    />
  
  <line
    x1="-40.29520689859149"
    y1="-54.564591728746265"
    x2="-35.29520689859149"
    y2="-54.564591728746265"
    stroke="hsla(0,50%,50%,0.6)"
    stroke-width="1"
    transform="translate(19.0452068985,73.9395917287) scale(1,-1) translate(50,-110)"
    />
  
  <line
    x1="-45.29520689859149"
    y1="-49.564591728746265"
    x2="-40.29520689859149"
    y2="-49.564591728746265"
    stroke="hsla(0,50%,50%,0.6)"
    stroke-width="1"
    transform="translate(19.0452068985,73.9395917287) scale(1,-1) translate(50,-110)"
    />
  
  <line
    x1="54.70479310140851"
    y1="-149.56459172874628"
    x2="-45.29520689859149"
    y2="-49.564591728746265"
    stroke="hsla(0,50%,50%,0.6)"
    stroke-width="1"
    transform="translate(19.0452068985,73.9395917287) scale(1,-1) translate(50,-110)"
    />
  
  <line
    x1="54.70479310140851"
    y1="-144.56459172874628"
    x2="-40.29520689859149"
    y2="-49.564591728746265"
    stroke="hsla(0,50%,50%,0.6)"
    stroke-width="1"
    transform="translate(19.0452068985,73.9395917287) scale(1,-1) translate(50,-110)"
    />
  
  <line
    x1="-40.29520689859149"
    y1="-54.564591728746265"
    x2="-40.29520689859149"
    y2="-49.564591728746265"
    stroke="hsla(0,50%,50%,0.6)"
    stroke-width="1"
    transform="translate(19.0452068985,73.9395917287) scale(1,-1) translate(50,-110)"
    />
  
  <line
    x1="-35.29520689859149"
    y1="-59.564591728746265"
    x2="-35.29520689859149"
    y2="-54.564591728746265"
    stroke="hsla(0,50%,50%,0.6)"
    stroke-width="1"
    transform="translate(19.0452068985,73.9395917287) scale(1,-1) translate(50,-110)"
    />
  
  <line
    x1="-30.295206898591484"
    y1="-64.56459172874627"
    x2="-30.295206898591484"
    y2="-59.564591728746265"
    stroke="hsla(0,50%,50%,0.6)"
    stroke-width="1"
    transform="translate(19.0452068985,73.9395917287) scale(1,-1) translate(50,-110)"
    />
  
  <line
    x1="-25.295206898591484"
    y1="-69.56459172874627"
    x2="-25.295206898591484"
    y2="-64.56459172874627"
    stroke="hsla(0,50%,50%,0.6)"
    stroke-width="1"
    transform="translate(19.0452068985,73.9395917287) scale(1,-1) translate(50,-110)"
    />
  
  <line
    x1="-20.295206898591484"
    y1="-74.56459172874627"
    x2="-20.295206898591484"
    y2="-69.56459172874627"
    stroke="hsla(0,50%,50%,0.6)"
    stroke-width="1"
    transform="translate(19.0452068985,73.9395917287) scale(1,-1) translate(50,-110)"
    />
  
  <line
    x1="-15.295206898591484"
    y1="-79.56459172874627"
    x2="-15.295206898591484"
    y2="-74.56459172874627"
    stroke="hsla(0,50%,50%,0.6)"
    stroke-width="1"
    transform="translate(19.0452068985,73.9395917287) scale(1,-1) translate(50,-110)"
    />
  
  <line
    x1="-10.295206898591484"
    y1="-84.56459172874627"
    x2="-10.295206898591484"
    y2="-79.56459172874627"
    stroke="hsla(0,50%,50%,0.6)"
    stroke-width="1"
    transform="translate(19.0452068985,73.9395917287) scale(1,-1) translate(50,-110)"
    />
  
  <line
    x1="-5.295206898591484"
    y1="-89.56459172874627"
    x2="-5.295206898591484"
    y2="-84.56459172874627"
    stroke="hsla(0,50%,50%,0.6)"
    stroke-width="1"
    transform="translate(19.0452068985,73.9395917287) scale(1,-1) translate(50,-110)"
    />
  
  <line
    x1="-0.29520689859148425"
    y1="-94.56459172874627"
    x2="-0.29520689859148425"
    y2="-89.56459172874627"
    stroke="hsla(0,50%,50%,0.6)"
    stroke-width="1"
    transform="translate(19.0452068985,73.9395917287) scale(1,-1) translate(50,-110)"
    />
  
  <line
    x1="4.704793101408516"
    y1="-99.56459172874627"
    x2="4.704793101408516"
    y2="-94.56459172874627"
    stroke="hsla(0,50%,50%,0.6)"
    stroke-width="1"
    transform="translate(19.0452068985,73.9395917287) scale(1,-1) translate(50,-110)"
    />
  
  <line
    x1="9.704793101408516"
    y1="-104.56459172874627"
    x2="9.704793101408516"
    y2="-99.56459172874627"
    stroke="hsla(0,50%,50%,0.6)"
    stroke-width="1"
    transform="translate(19.0452068985,73.9395917287) scale(1,-1) translate(50,-110)"
    />
  
  <line
    x1="14.704793101408516"
    y1="-109.56459172874627"
    x2="14.704793101408516"
    y2="-104.56459172874627"
    stroke="hsla(0,50%,50%,0.6)"
    stroke-width="1"
    transform="translate(19.0452068985,73.9395917287) scale(1,-1) translate(50,-110)"
    />
  
  <line
    x1="19.704793101408516"
    y1="-114.56459172874627"
    x2="19.704793101408516"
    y2="-109.56459172874627"
    stroke="hsla(0,50%,50%,0.6)"
    stroke-width="1"
    transform="translate(19.0452068985,73.9395917287) scale(1,-1) translate(50,-110)"
    />
  
  <line
    x1="24.704793101408516"
    y1="-119.56459172874627"
    x2="24.704793101408516"
    y2="-114.56459172874627"
    stroke="hsla(0,50%,50%,0.6)"
    stroke-width="1"
    transform="translate(19.0452068985,73.9395917287) scale(1,-1) translate(50,-110)"
    />
  
  <line
    x1="29.704793101408516"
    y1="-124.56459172874627"
    x2="29.704793101408516"
    y2="-119.56459172874627"
    stroke="hsla(0,50%,50%,0.6)"
    stroke-width="1"
    transform="translate(19.0452068985,73.9395917287) scale(1,-1) translate(50,-110)"
    />
  
  <line
    x1="34.70479310140851"
    y1="-129.56459172874628"
    x2="34.70479310140851"
    y2="-124.56459172874627"
    stroke="hsla(0,50%,50%,0.6)"
    stroke-width="1"
    transform="translate(19.0452068985,73.9395917287) scale(1,-1) translate(50,-110)"
    />
  
  <line
    x1="39.70479310140851"
    y1="-134.56459172874628"
    x2="39.70479310140851"
    y2="-129.56459172874628"
    stroke="hsla(0,50%,50%,0.6)"
    stroke-width="1"
    transform="translate(19.0452068985,73.9395917287) scale(1,-1) translate(50,-110)"
    />
  
  <line
    x1="44.70479310140851"
    y1="-139.56459172874628"
    x2="44.70479310140851"
    y2="-134.56459172874628"
    stroke="hsla(0,50%,50%,0.6)"
    stroke-width="1"
    transform="translate(19.0452068985,73.9395917287) scale(1,-1) translate(50,-110)"
    />
  
  <line
    x1="49.70479310140851"
    y1="-144.56459172874628"
    x2="49.70479310140851"
    y2="-139.56459172874628"
    stroke="hsla(0,50%,50%,0.6)"
    stroke-width="1"
    transform="translate(19.0452068985,73.9395917287) scale(1,-1) translate(50,-110)"
    />
  
  <line
    x1="54.70479310140851"
    y1="-149.56459172874628"
    x2="54.70479310140851"
    y2="-144.56459172874628"
    stroke="hsla(0,50%,50%,0.6)"
    stroke-width="1"
    transform="translate(19.0452068985,73.9395917287) scale(1,-1) translate(50,-110)"
    />
  
</svg>
