<?xml version="1.0"?>
<!DOCTYPE svg PUBLIC "-//W3C//DTD SVG 1.1//EN"
  "http://www.w3.org/Graphics/SVG/1.1/DTD/svg11.dtd">
<svg
  width="240"
  height="240"
  viewBox="-50 -50 200 200" xmlns="http://www.w3.org/2000/svg" version="1.1">
  <rect
    x="0"
    y="0"
    width="100"
    height="100"
    fill="hsla(206,100%,53%,0.3)"
    stroke="hsl(206,100%,53%)"
    stroke-width="3"
    transform="" />
  
  <path
    d="M 
      157.7509109595
      84.5730370916
      L
    
      157.7509109595
      89.5730370916
      L
    
      62.7509109595
      184.5730370916
      L
    
      57.7509109595
      184.5730370916
      z
    "
    fill="hsla(0,0%,50%,0.3)"
    stroke="hsla(0,0%,50%,1)"
    stroke-width="1"
    transform="translate(-84.0009109595,-160.1980370916) scale(1,-1) translate(50,-110)"
    />
  
  
  <line
    x1="62.75091095951423"
    y1="179.57303709166763"
    x2="62.75091095951423"
    y2="184.57303709166763"
    stroke="hsla(0,50%,50%,0.6)"
    stroke-width="1"
    transform="translate(-84.0009109595,-160.1980370916) scale(1,-1) translate(50,-110)"
    />
  
  <line
    x1="67.75091095951423"
    y1="174.57303709166763"
    x2="67.75091095951423"
    y2="179.57303709166763"
    stroke="hsla(0,50%,50%,0.6)"
    stroke-width="1"
    transform="translate(-84.0009109595,-160.1980370916) scale(1,-1) translate(50,-110)"
    />
  
  <line
    x1="72.75091095951423"
    y1="169.57303709166763"
    x2="72.75091095951423"
    y2="174.57303709166763"
    stroke="hsla(0,50%,50%,0.6)"
    stroke-width="1"
    transform="translate(-84.0009109595,-160.1980370916) scale(1,-1) translate(50,-110)"
    />
  
  <line
    x1="77.75091095951423"
    y1="164.57303709166763"
    x2="77.75091095951423"
    y2="169.57303709166763"
    stroke="hsla(0,50%,50%,0.6)"
    stroke-width="1"
    transform="translate(-84.0009109595,-160.1980370916) scale(1,-1) translate(50,-110)"
    />
  
  <line
    x1="82.75091095951423"
    y1="159.57303709166763"
    x2="82.75091095951423"
    y2="164.57303709166763"
    stroke="hsla(0,50%,50%,0.6)"
    stroke-width="1"
    transform="translate(-84.0009109595,-160.1980370916) scale(1,-1) translate(50,-110)"
    />
  
  <line
    x1="87.75091095951423"
    y1="154.57303709166763"
    x2="87.75091095951423"
    y2="159.57303709166763"
    stroke="hsla(0,50%,50%,0.6)"
    stroke-width="1"
    transform="translate(-84.0009109595,-160.1980370916) scale(1,-1) translate(50,-110)"
    />
  
  <line
    x1="92.75091095951423"
    y1="149.57303709166763"
    x2="92.75091095951423"
    y2="154.57303709166763"
    stroke="hsla(0,50%,50%,0.6)"
    stroke-width="1"
    transform="translate(-84.0009109595,-160.1980370916) scale(1,-1) translate(50,-110)"
    />
  
  <line
    x1="97.75091095951423"
    y1="144.57303709166763"
    x2="97.75091095951423"
    y2="149.57303709166763"
    stroke="hsla(0,50%,50%,0.6)"
    stroke-width="1"
    transform="translate(-84.0009109595,-160.1980370916) scale(1,-1) translate(50,-110)"
    />
  
  <line
    x1="102.75091095951423"
    y1="139.57303709166763"
    x2="102.75091095951423"
    y2="144.57303709166763"
    stroke="hsla(0,50%,50%,0.6)"
    stroke-width="1"
    transform="translate(-84.0009109595,-160.1980370916) scale(1,-1) translate(50,-110)"
    />
  
  <line
    x1="107.75091095951423"
    y1="134.57303709166763"
    x2="107.75091095951423"
    y2="139.57303709166763"
    stroke="hsla(0,50%,50%,0.6)"
    stroke-width="1"
    transform="translate(-84.0009109595,-160.1980370916) scale(1,-1) translate(50,-110)"
    />
  
  <line
    x1="112.75091095951423"
    y1="129.57303709166763"
    x2="112.75091095951423"
    y2="134.57303709166763"
    stroke="hsla(0,50%,50%,0.6)"
    stroke-width="1"
    transform="translate(-84.0009109595,-160.1980370916) scale(1,-1) translate(50,-110)"
    />
  
  <line
    x1="117.75091095951423"
    y1="124.57303709166764"
    x2="117.75091095951423"
    y2="129.57303709166763"
    stroke="hsla(0,50%,50%,0.6)"
    stroke-width="1"
    transform="translate(-84.0009109595,-160.1980370916) scale(1,-1) translate(50,-110)"
    />
  
  <line
    x1="122.75091095951423"
    y1="119.57303709166764"
    x2="122.75091095951423"
    y2="124.57303709166764"
    stroke="hsla(0,50%,50%,0.6)"
    stroke-width="1"
    transform="translate(-84.0009109595,-160.1980370916) scale(1,-1) translate(50,-110)"
    />
  
  <line
    x1="127.75091095951423"
    y1="114.57303709166764"
    x2="127.75091095951423"
    y2="119.57303709166764"
    stroke="hsla(0,50%,50%,0.6)"
    stroke-width="1"
    transform="translate(-84.0009109595,-160.1980370916) scale(1,-1) translate(50,-110)"
    />
  
  <line
    x1="132.75091095951424"
    y1="109.57303709166764"
    x2="132.75091095951424"
    y2="114.57303709166764"
    stroke="hsla(0,50%,50%,0.6)"
    stroke-width="1"
    transform="translate(-84.0009109595,-160.1980370916) scale(1,-1) translate(50,-110)"
    />
  
  <line
    x1="137.75091095951424"
    y1="104.57303709166764"
    x2="137.75091095951424"
    y2="109.57303709166764"
    stroke="hsla(0,50%,50%,0.6)"
    stroke-width="1"
    transform="translate(-84.0009109595,-160.1980370916) scale(1,-1) translate(50,-110)"
    />
  
  <line
    x1="142.75091095951424"
    y1="99.57303709166764"
    x2="142.75091095951424"
    y2="104.57303709166764"
    stroke="hsla(0,50%,50%,0.6)"
    stroke-width="1"
    transform="translate(-84.0009109595,-160.1980370916) scale(1,-1) translate(50,-110)"
    />
  
  <line
    x1="147.75091095951424"
    y1="94.57303709166764"
    x2="147.75091095951424"
    y2="99.57303709166764"
    stroke="hsla(0,50%,50%,0.6)"
    stroke-width="1"
    transform="translate(-84.0009109595,-160.1980370916) scale(1,-1) translate(50,-110)"
    />
  
  <line
    x1="152.75091095951424"
    y1="89.57303709166764"
    x2="152.75091095951424"
    y2="94.57303709166764"
    stroke="hsla(0,50%,50%,0.6)"
    stroke-width="1"
    transform="translate(-84.0009109595,-160.1980370916) scale(1,-1) translate(50,-110)"
    />
  
  <line
    x1="157.75091095951424"
    y1="84.57303709166764"
    x2="157.75091095951424"
    y2="89.57303709166764"
    stroke="hsla(0,50%,50%,0.6)"
    stroke-width="1"
    transform="translate(-84.0009109595,-160.1980370916) scale(1,-1) translate(50,-110)"
    />
  
  <line
    x1="152.75091095951424"
    y1="89.57303709166764"
    x2="157.75091095951424"
    y2="89.57303709166764"
    stroke="hsla(0,50%,50%,0.6)"
    stroke-width="1"
    transform="translate(-84.0009109595,-160.1980370916) scale(1,-1) translate(50,-110)"
    />
  
  <line
    x1="147.75091095951424"
    y1="94.57303709166764"
    x2="152.75091095951424"
    y2="94.57303709166764"
    stroke="hsla(0,50%,50%,0.6)"
    stroke-width="1"
    transform="translate(-84.0009109595,-160.1980370916) scale(1,-1) translate(50,-110)"
    />
  
  <line
    x1="142.75091095951424"
    y1="99.57303709166764"
    x2="147.75091095951424"
    y2="99.57303709166764"
    stroke="hsla(0,50%,50%,0.6)"
    stroke-width="1"
    transform="translate(-84.0009109595,-160.1980370916) scale(1,-1) translate(50,-110)"
    />
  
  <line
    x1="137.75091095951424"
    y1="104.57303709166764"
    x2="142.75091095951424"
    y2="104.57303709166764"
    stroke="hsla(0,50%,50%,0.6)"
    stroke-width="1"
    transform="translate(-84.0009109595,-160.1980370916) scale(1,-1) translate(50,-110)"
    />
  
  <line
    x1="132.75091095951424"
    y1="109.57303709166764"
    x2="137.75091095951424"
    y2="109.57303709166764"
    stroke="hsla(0,50%,50%,0.6)"
    stroke-width="1"
    transform="translate(-84.0009109595,-160.1980370916) scale(1,-1) translate(50,-110)"
    />
  
  <line
    x1="127.75091095951423"
    y1="114.57303709166764"
    x2="132.75091095951424"
    y2="114.57303709166764"
    stroke="hsla(0,50%,50%,0.6)"
    stroke-width="1"
    transform="translate(-84.0009109595,-160.1980370916) scale(1,-1) translate(50,-110)"
    />
  
  <line
    x1="122.75091095951423"
    y1="119.57303709166764"
    x2="127.75091095951423"
    y2="119.57303709166764"
    stroke="hsla(0,50%,50%,0.6)"
    stroke-width="1"
    transform="translate(-84.0009109595,-160.1980370916) scale(1,-1) translate(50,-110)"
    />
  
  <line
    x1="157.75091095951424"
    y1="84.57303709166764"
    x2="57.75091095951423"
    y2="184.57303709166763"
    stroke="hsla(0,50%,50%,0.6)"
    stroke-width="1"
    transform="translate(-84.0009109595,-160.1980370916) scale(1,-1) translate(50,-110)"
    />
  
  <line
    x1="157.75091095951424"
    y1="89.57303709166764"
    x2="62.75091095951423"
    y2="184.57303709166763"
    stroke="hsla(0,50%,50%,0.6)"
    stroke-width="1"
    transform="translate(-84.0009109595,-160.1980370916) scale(1,-1) translate(50,-110)"
    />
  
  <line
    x1="117.75091095951423"
    y1="124.57303709166764"
    x2="122.75091095951423"
    y2="124.57303709166764"
    stroke="hsla(0,50%,50%,0.6)"
    stroke-width="1"
    transform="translate(-84.0009109595,-160.1980370916) scale(1,-1) translate(50,-110)"
    />
  
  <line
    x1="112.75091095951423"
    y1="129.57303709166763"
    x2="117.75091095951423"
    y2="129.57303709166763"
    stroke="hsla(0,50%,50%,0.6)"
    stroke-width="1"
    transform="translate(-84.0009109595,-160.1980370916) scale(1,-1) translate(50,-110)"
    />
  
  <line
    x1="107.75091095951423"
    y1="134.57303709166763"
    x2="112.75091095951423"
    y2="134.57303709166763"
    stroke="hsla(0,50%,50%,0.6)"
    stroke-width="1"
    transform="translate(-84.0009109595,-160.1980370916) scale(1,-1) translate(50,-110)"
    />
  
  <line
    x1="102.75091095951423"
    y1="139.57303709166763"
    x2="107.75091095951423"
    y2="139.57303709166763"
    stroke="hsla(0,50%,50%,0.6)"
    stroke-width="1"
    transform="translate(-84.0009109595,-160.1980370916) scale(1,-1) translate(50,-110)"
    />
  
  <line
    x1="97.75091095951423"
    y1="144.57303709166763"
    x2="102.75091095951423"
    y2="144.57303709166763"
    stroke="hsla(0,50%,50%,0.6)"
    stroke-width="1"
    transform="translate(-84.0009109595,-160.1980370916) scale(1,-1) translate(50,-110)"
    />
  
  <line
    x1="92.75091095951423"
    y1="149.57303709166763"
    x2="97.75091095951423"
    y2="149.57303709166763"
    stroke="hsla(0,50%,50%,0.6)"
    stroke-width="1"
    transform="translate(-84.0009109595,-160.1980370916) scale(1,-1) translate(50,-110)"
    />
  
  <line
    x1="87.75091095951423"
    y1="154.57303709166763"
    x2="92.75091095951423"
    y2="154.57303709166763"
    stroke="hsla(0,50%,50%,0.6)"
    stroke-width="1"
    transform="translate(-84.0009109595,-160.1980370916) scale(1,-1) translate(50,-110)"
    />
  
  <line
    x1="82.75091095951423"
    y1="159.57303709166763"
    x2="87.75091095951423"
    y2="159.57303709166763"
    stroke="hsla(0,50%,50%,0.6)"
    stroke-width="1"
    transform="translate(-84.0009109595,-160.1980370916) scale(1,-1) translate(50,-110)"
    />
  
  <line
    x1="77.75091095951423"
    y1="164.57303709166763"
    x2="82.75091095951423"
    y2="164.57303709166763"
    stroke="hsla(0,50%,50%,0.6)"
    stroke-width="1"
    transform="translate(-84.0009109595,-160.1980370916) scale(1,-1) translate(50,-110)"
    />
  
  <line
    x1="72.75091095951423"
    y1="169.57303709166763"
    x2="77.75091095951423"
    y2="169.57303709166763"
    stroke="hsla(0,50%,50%,0.6)"
    stroke-width="1"
    transform="translate(-84.0009109595,-160.1980370916) scale(1,-1) translate(50,-110)"
    />
  
  <line
    x1="67.75091095951423"
    y1="174.57303709166763"
    x2="72.75091095951423"
    y2="174.57303709166763"
    stroke="hsla(0,50%,50%,0.6)"
    stroke-width="1"
    transform="translate(-84.0009109595,-160.1980370916) scale(1,-1) translate(50,-110)"
    />
  
  <line
    x1="62.75091095951423"
    y1="179.57303709166763"
    x2="67.75091095951423"
    y2="179.57303709166763"
    stroke="hsla(0,50%,50%,0.6)"
    stroke-width="1"
    transform="translate(-84.0009109595,-160.1980370916) scale(1,-1) translate(50,-110)"
    />
  
  <line
    x1="57.75091095951423"
    y1="184.57303709166763"
    x2="62.75091095951423"
    y2="184.57303709166763"
    stroke="hsla(0,50%,50%,0.6)"
    stroke-width="1"
    transform="translate(-84.0009109595,-160.1980370916) scale(1,-1) translate(50,-110)"
    />
  
</svg>
