<?xml version="1.0"?>
<!DOCTYPE svg PUBLIC "-//W3C//DTD SVG 1.1//EN"
  "http://www.w3.org/Graphics/SVG/1.1/DTD/svg11.dtd">
<svg
  width="240"
  height="240"
  viewBox="-50 -50 200 200" xmlns="http://www.w3.org/2000/svg" version="1.1">
  <rect
    x="0"
    y="0"
    width="100"
    height="100"
    fill="hsla(206,100%,53%,0.3)"
    stroke="hsl(206,100%,53%)"
    stroke-width="3"
    transform="" />
  
  <path
    d="M 
      58.1864068297
      -33.6101404485
      L
    
      58.1864068297
      -28.6101404485
      L
    
      -36.8135931702
      66.3898595514
      L
    
      -41.8135931702
      66.3898595514
      z
    "
    fill="hsla(0,0%,50%,0.3)"
    stroke="hsla(0,0%,50%,1)"
    stroke-width="1"
    transform="translate(15.5635931702,-42.0148595514) scale(1,-1) translate(50,-110)"
    />
  
  
  <line
    x1="53.186406829722266"
    y1="-28.610140448536058"
    x2="58.186406829722266"
    y2="-28.610140448536058"
    stroke="hsla(0,50%,50%,0.6)"
    stroke-width="1"
    transform="translate(15.5635931702,-42.0148595514) scale(1,-1) translate(50,-110)"
    />
  
  <line
    x1="48.186406829722266"
    y1="-23.610140448536058"
    x2="53.186406829722266"
    y2="-23.610140448536058"
    stroke="hsla(0,50%,50%,0.6)"
    stroke-width="1"
    transform="translate(15.5635931702,-42.0148595514) scale(1,-1) translate(50,-110)"
    />
  
  <line
    x1="43.186406829722266"
    y1="-18.610140448536058"
    x2="48.186406829722266"
    y2="-18.610140448536058"
    stroke="hsla(0,50%,50%,0.6)"
    stroke-width="1"
    transform="translate(15.5635931702,-42.0148595514) scale(1,-1) translate(50,-110)"
    />
  
  <line
    x1="38.186406829722266"
    y1="-13.610140448536058"
    x2="43.186406829722266"
    y2="-13.610140448536058"
    stroke="hsla(0,50%,50%,0.6)"
    stroke-width="1"
    transform="translate(15.5635931702,-42.0148595514) scale(1,-1) translate(50,-110)"
    />
  
  <line
    x1="33.186406829722266"
    y1="-8.610140448536058"
    x2="38.186406829722266"
    y2="-8.610140448536058"
    stroke="hsla(0,50%,50%,0.6)"
    stroke-width="1"
    transform="translate(15.5635931702,-42.0148595514) scale(1,-1) translate(50,-110)"
    />
  
  <line
    x1="28.186406829722262"
    y1="-3.610140448536057"
    x2="33.186406829722266"
    y2="-3.610140448536057"
    stroke="hsla(0,50%,50%,0.6)"
    stroke-width="1"
    transform="translate(15.5635931702,-42.0148595514) scale(1,-1) translate(50,-110)"
    />
  
  <line
    x1="-36.813593170277734"
    y1="61.38985955146394"
    x2="-36.813593170277734"
    y2="66.38985955146394"
    stroke="hsla(0,50%,50%,0.6)"
    stroke-width="1"
    transform="translate(15.5635931702,-42.0148595514) scale(1,-1) translate(50,-110)"
    />
  
  <line
    x1="-31.813593170277738"
    y1="56.38985955146394"
    x2="-31.813593170277738"
    y2="61.38985955146394"
    stroke="hsla(0,50%,50%,0.6)"
    stroke-width="1"
    transform="translate(15.5635931702,-42.0148595514) scale(1,-1) translate(50,-110)"
    />
  
  <line
    x1="-26.813593170277738"
    y1="51.38985955146394"
    x2="-26.813593170277738"
    y2="56.38985955146394"
    stroke="hsla(0,50%,50%,0.6)"
    stroke-width="1"
    transform="translate(15.5635931702,-42.0148595514) scale(1,-1) translate(50,-110)"
    />
  
  <line
    x1="-21.813593170277738"
    y1="46.38985955146394"
    x2="-21.813593170277738"
    y2="51.38985955146394"
    stroke="hsla(0,50%,50%,0.6)"
    stroke-width="1"
    transform="translate(15.5635931702,-42.0148595514) scale(1,-1) translate(50,-110)"
    />
  
  <line
    x1="-16.813593170277738"
    y1="41.38985955146394"
    x2="-16.813593170277738"
    y2="46.38985955146394"
    stroke="hsla(0,50%,50%,0.6)"
    stroke-width="1"
    transform="translate(15.5635931702,-42.0148595514) scale(1,-1) translate(50,-110)"
    />
  
  <line
    x1="-11.813593170277738"
    y1="36.38985955146394"
    x2="-11.813593170277738"
    y2="41.38985955146394"
    stroke="hsla(0,50%,50%,0.6)"
    stroke-width="1"
    transform="translate(15.5635931702,-42.0148595514) scale(1,-1) translate(50,-110)"
    />
  
  <line
    x1="-6.813593170277738"
    y1="31.389859551463942"
    x2="-6.813593170277738"
    y2="36.38985955146394"
    stroke="hsla(0,50%,50%,0.6)"
    stroke-width="1"
    transform="translate(15.5635931702,-42.0148595514) scale(1,-1) translate(50,-110)"
    />
  
  <line
    x1="-1.8135931702777375"
    y1="26.389859551463942"
    x2="-1.8135931702777375"
    y2="31.389859551463942"
    stroke="hsla(0,50%,50%,0.6)"
    stroke-width="1"
    transform="translate(15.5635931702,-42.0148595514) scale(1,-1) translate(50,-110)"
    />
  
  <line
    x1="3.1864068297222627"
    y1="21.389859551463942"
    x2="3.1864068297222627"
    y2="26.389859551463942"
    stroke="hsla(0,50%,50%,0.6)"
    stroke-width="1"
    transform="translate(15.5635931702,-42.0148595514) scale(1,-1) translate(50,-110)"
    />
  
  <line
    x1="8.186406829722262"
    y1="16.389859551463942"
    x2="8.186406829722262"
    y2="21.389859551463942"
    stroke="hsla(0,50%,50%,0.6)"
    stroke-width="1"
    transform="translate(15.5635931702,-42.0148595514) scale(1,-1) translate(50,-110)"
    />
  
  <line
    x1="13.186406829722262"
    y1="11.389859551463942"
    x2="13.186406829722262"
    y2="16.389859551463942"
    stroke="hsla(0,50%,50%,0.6)"
    stroke-width="1"
    transform="translate(15.5635931702,-42.0148595514) scale(1,-1) translate(50,-110)"
    />
  
  <line
    x1="18.186406829722262"
    y1="6.3898595514639425"
    x2="18.186406829722262"
    y2="11.389859551463942"
    stroke="hsla(0,50%,50%,0.6)"
    stroke-width="1"
    transform="translate(15.5635931702,-42.0148595514) scale(1,-1) translate(50,-110)"
    />
  
  <line
    x1="23.186406829722262"
    y1="1.389859551463943"
    x2="23.186406829722262"
    y2="6.3898595514639425"
    stroke="hsla(0,50%,50%,0.6)"
    stroke-width="1"
    transform="translate(15.5635931702,-42.0148595514) scale(1,-1) translate(50,-110)"
    />
  
  <line
    x1="28.186406829722262"
    y1="-3.610140448536057"
    x2="28.186406829722262"
    y2="1.389859551463943"
    stroke="hsla(0,50%,50%,0.6)"
    stroke-width="1"
    transform="translate(15.5635931702,-42.0148595514) scale(1,-1) translate(50,-110)"
    />
  
  <line
    x1="33.186406829722266"
    y1="-8.610140448536058"
    x2="33.186406829722266"
    y2="-3.610140448536057"
    stroke="hsla(0,50%,50%,0.6)"
    stroke-width="1"
    transform="translate(15.5635931702,-42.0148595514) scale(1,-1) translate(50,-110)"
    />
  
  <line
    x1="38.186406829722266"
    y1="-13.610140448536058"
    x2="38.186406829722266"
    y2="-8.610140448536058"
    stroke="hsla(0,50%,50%,0.6)"
    stroke-width="1"
    transform="translate(15.5635931702,-42.0148595514) scale(1,-1) translate(50,-110)"
    />
  
  <line
    x1="43.186406829722266"
    y1="-18.610140448536058"
    x2="43.186406829722266"
    y2="-13.610140448536058"
    stroke="hsla(0,50%,50%,0.6)"
    stroke-width="1"
    transform="translate(15.5635931702,-42.0148595514) scale(1,-1) translate(50,-110)"
    />
  
  <line
    x1="48.186406829722266"
    y1="-23.610140448536058"
    x2="48.186406829722266"
    y2="-18.610140448536058"
    stroke="hsla(0,50%,50%,0.6)"
    stroke-width="1"
    transform="translate(15.5635931702,-42.0148595514) scale(1,-1) translate(50,-110)"
    />
  
  <line
    x1="53.186406829722266"
    y1="-28.610140448536058"
    x2="53.186406829722266"
    y2="-23.610140448536058"
    stroke="hsla(0,50%,50%,0.6)"
    stroke-width="1"
    transform="translate(15.5635931702,-42.0148595514) scale(1,-1) translate(50,-110)"
    />
  
  <line
    x1="58.186406829722266"
    y1="-33.61014044853606"
    x2="58.186406829722266"
    y2="-28.610140448536058"
    stroke="hsla(0,50%,50%,0.6)"
    stroke-width="1"
    transform="translate(15.5635931702,-42.0148595514) scale(1,-1) translate(50,-110)"
    />
  
  <line
    x1="23.186406829722262"
    y1="1.389859551463943"
    x2="28.186406829722262"
    y2="1.389859551463943"
    stroke="hsla(0,50%,50%,0.6)"
    stroke-width="1"
    transform="translate(15.5635931702,-42.0148595514) scale(1,-1) translate(50,-110)"
    />
  
  <line
    x1="18.186406829722262"
    y1="6.3898595514639425"
    x2="23.186406829722262"
    y2="6.3898595514639425"
    stroke="hsla(0,50%,50%,0.6)"
    stroke-width="1"
    transform="translate(15.5635931702,-42.0148595514) scale(1,-1) translate(50,-110)"
    />
  
  <line
    x1="13.186406829722262"
    y1="11.389859551463942"
    x2="18.186406829722262"
    y2="11.389859551463942"
    stroke="hsla(0,50%,50%,0.6)"
    stroke-width="1"
    transform="translate(15.5635931702,-42.0148595514) scale(1,-1) translate(50,-110)"
    />
  
  <line
    x1="58.186406829722266"
    y1="-33.61014044853606"
    x2="-41.813593170277734"
    y2="66.38985955146394"
    stroke="hsla(0,50%,50%,0.6)"
    stroke-width="1"
    transform="translate(15.5635931702,-42.0148595514) scale(1,-1) translate(50,-110)"
    />
  
  <line
    x1="58.186406829722266"
    y1="-28.610140448536058"
    x2="-36.813593170277734"
    y2="66.38985955146394"
    stroke="hsla(0,50%,50%,0.6)"
    stroke-width="1"
    transform="translate(15.5635931702,-42.0148595514) scale(1,-1) translate(50,-110)"
    />
  
  <line
    x1="8.186406829722262"
    y1="16.389859551463942"
    x2="13.186406829722262"
    y2="16.389859551463942"
    stroke="hsla(0,50%,50%,0.6)"
    stroke-width="1"
    transform="translate(15.5635931702,-42.0148595514) scale(1,-1) translate(50,-110)"
    />
  
  <line
    x1="3.1864068297222627"
    y1="21.389859551463942"
    x2="8.186406829722262"
    y2="21.389859551463942"
    stroke="hsla(0,50%,50%,0.6)"
    stroke-width="1"
    transform="translate(15.5635931702,-42.0148595514) scale(1,-1) translate(50,-110)"
    />
  
  <line
    x1="-1.8135931702777375"
    y1="26.389859551463942"
    x2="3.1864068297222627"
    y2="26.389859551463942"
    stroke="hsla(0,50%,50%,0.6)"
    stroke-width="1"
    transform="translate(15.5635931702,-42.0148595514) scale(1,-1) translate(50,-110)"
    />
  
  <line
    x1="-6.813593170277738"
    y1="31.389859551463942"
    x2="-1.8135931702777375"
    y2="31.389859551463942"
    stroke="hsla(0,50%,50%,0.6)"
    stroke-width="1"
    transform="translate(15.5635931702,-42.0148595514) scale(1,-1) translate(50,-110)"
    />
  
  <line
    x1="-11.813593170277738"
    y1="36.38985955146394"
    x2="-6.813593170277738"
    y2="36.38985955146394"
    stroke="hsla(0,50%,50%,0.6)"
    stroke-width="1"
    transform="translate(15.5635931702,-42.0148595514) scale(1,-1) translate(50,-110)"
    />
  
  <line
    x1="-16.813593170277738"
    y1="41.38985955146394"
    x2="-11.813593170277738"
    y2="41.38985955146394"
    stroke="hsla(0,50%,50%,0.6)"
    stroke-width="1"
    transform="translate(15.5635931702,-42.0148595514) scale(1,-1) translate(50,-110)"
    />
  
  <line
    x1="-21.813593170277738"
    y1="46.38985955146394"
    x2="-16.813593170277738"
    y2="46.38985955146394"
    stroke="hsla(0,50%,50%,0.6)"
    stroke-width="1"
    transform="translate(15.5635931702,-42.0148595514) scale(1,-1) translate(50,-110)"
    />
  
  <line
    x1="-26.813593170277738"
    y1="51.38985955146394"
    x2="-21.813593170277738"
    y2="51.38985955146394"
    stroke="hsla(0,50%,50%,0.6)"
    stroke-width="1"
    transform="translate(15.5635931702,-42.0148595514) scale(1,-1) translate(50,-110)"
    />
  
  <line
    x1="-31.813593170277738"
    y1="56.38985955146394"
    x2="-26.813593170277738"
    y2="56.38985955146394"
    stroke="hsla(0,50%,50%,0.6)"
    stroke-width="1"
    transform="translate(15.5635931702,-42.0148595514) scale(1,-1) translate(50,-110)"
    />
  
  <line
    x1="-36.813593170277734"
    y1="61.38985955146394"
    x2="-31.813593170277738"
    y2="61.38985955146394"
    stroke="hsla(0,50%,50%,0.6)"
    stroke-width="1"
    transform="translate(15.5635931702,-42.0148595514) scale(1,-1) translate(50,-110)"
    />
  
  <line
    x1="-41.813593170277734"
    y1="66.38985955146394"
    x2="-36.813593170277734"
    y2="66.38985955146394"
    stroke="hsla(0,50%,50%,0.6)"
    stroke-width="1"
    transform="translate(15.5635931702,-42.0148595514) scale(1,-1) translate(50,-110)"
    />
  
</svg>
