<?xml version="1.0"?>
<!DOCTYPE svg PUBLIC "-//W3C//DTD SVG 1.1//EN"
  "http://www.w3.org/Graphics/SVG/1.1/DTD/svg11.dtd">
<svg
  width="240"
  height="240"
  viewBox="-500 -500 1000 1000" xmlns="http://www.w3.org/2000/svg" version="1.1">
  <rect
    x="0"
    y="0"
    width="100"
    height="100"
    fill="hsla(206,100%,53%,0.3)"
    stroke="hsl(206,100%,53%)"
    stroke-width="3"
    transform="" />
  
  <path
    d="M 
      23.9608631663
      -94.5392068719
      L
    
      23.9608631663
      -89.5392068719
      L
    
      -71.0391368336
      5.4607931280
      L
    
      -76.0391368336
      5.4607931280
      z
    "
    fill="hsla(0,0%,50%,0.3)"
    stroke="hsla(0,0%,50%,1)"
    stroke-width="1"
    transform="translate(26.0391368336,44.5392068719)"
    />
  
  
  <line
    x1="18.960863166332317"
    y1="-89.53920687196369"
    x2="23.960863166332317"
    y2="-89.53920687196369"
    stroke="hsla(0,50%,50%,0.6)"
    stroke-width="1"
    transform="translate(26.0391368336,44.5392068719)"
    />
  
  <line
    x1="13.960863166332315"
    y1="-84.53920687196369"
    x2="18.960863166332317"
    y2="-84.53920687196369"
    stroke="hsla(0,50%,50%,0.6)"
    stroke-width="1"
    transform="translate(26.0391368336,44.5392068719)"
    />
  
  <line
    x1="8.960863166332315"
    y1="-79.53920687196369"
    x2="13.960863166332315"
    y2="-79.53920687196369"
    stroke="hsla(0,50%,50%,0.6)"
    stroke-width="1"
    transform="translate(26.0391368336,44.5392068719)"
    />
  
  <line
    x1="3.9608631663323153"
    y1="-74.53920687196369"
    x2="8.960863166332315"
    y2="-74.53920687196369"
    stroke="hsla(0,50%,50%,0.6)"
    stroke-width="1"
    transform="translate(26.0391368336,44.5392068719)"
    />
  
  <line
    x1="-1.0391368336676845"
    y1="-69.53920687196369"
    x2="3.9608631663323153"
    y2="-69.53920687196369"
    stroke="hsla(0,50%,50%,0.6)"
    stroke-width="1"
    transform="translate(26.0391368336,44.5392068719)"
    />
  
  <line
    x1="-6.039136833667684"
    y1="-64.53920687196369"
    x2="-1.0391368336676845"
    y2="-64.53920687196369"
    stroke="hsla(0,50%,50%,0.6)"
    stroke-width="1"
    transform="translate(26.0391368336,44.5392068719)"
    />
  
  <line
    x1="-11.039136833667685"
    y1="-59.539206871963685"
    x2="-6.039136833667684"
    y2="-59.539206871963685"
    stroke="hsla(0,50%,50%,0.6)"
    stroke-width="1"
    transform="translate(26.0391368336,44.5392068719)"
    />
  
  <line
    x1="-16.039136833667683"
    y1="-54.539206871963685"
    x2="-11.039136833667685"
    y2="-54.539206871963685"
    stroke="hsla(0,50%,50%,0.6)"
    stroke-width="1"
    transform="translate(26.0391368336,44.5392068719)"
    />
  
  <line
    x1="-21.039136833667683"
    y1="-49.539206871963685"
    x2="-16.039136833667683"
    y2="-49.539206871963685"
    stroke="hsla(0,50%,50%,0.6)"
    stroke-width="1"
    transform="translate(26.0391368336,44.5392068719)"
    />
  
  <line
    x1="-26.039136833667683"
    y1="-44.539206871963685"
    x2="-21.039136833667683"
    y2="-44.539206871963685"
    stroke="hsla(0,50%,50%,0.6)"
    stroke-width="1"
    transform="translate(26.0391368336,44.5392068719)"
    />
  
  <line
    x1="-31.039136833667683"
    y1="-39.539206871963685"
    x2="-26.039136833667683"
    y2="-39.539206871963685"
    stroke="hsla(0,50%,50%,0.6)"
    stroke-width="1"
    transform="translate(26.0391368336,44.5392068719)"
    />
  
  <line
    x1="23.960863166332317"
    y1="-94.53920687196369"
    x2="-76.03913683366768"
    y2="5.460793128036315"
    stroke="hsla(0,50%,50%,0.6)"
    stroke-width="1"
    transform="translate(26.0391368336,44.5392068719)"
    />
  
  <line
    x1="-36.03913683366768"
    y1="-34.539206871963685"
    x2="-31.039136833667683"
    y2="-34.539206871963685"
    stroke="hsla(0,50%,50%,0.6)"
    stroke-width="1"
    transform="translate(26.0391368336,44.5392068719)"
    />
  
  <line
    x1="23.960863166332317"
    y1="-89.53920687196369"
    x2="-71.03913683366768"
    y2="5.460793128036315"
    stroke="hsla(0,50%,50%,0.6)"
    stroke-width="1"
    transform="translate(26.0391368336,44.5392068719)"
    />
  
  <line
    x1="-41.03913683366768"
    y1="-29.539206871963685"
    x2="-36.03913683366768"
    y2="-29.539206871963685"
    stroke="hsla(0,50%,50%,0.6)"
    stroke-width="1"
    transform="translate(26.0391368336,44.5392068719)"
    />
  
  <line
    x1="-46.03913683366768"
    y1="-24.539206871963685"
    x2="-41.03913683366768"
    y2="-24.539206871963685"
    stroke="hsla(0,50%,50%,0.6)"
    stroke-width="1"
    transform="translate(26.0391368336,44.5392068719)"
    />
  
  <line
    x1="-51.03913683366768"
    y1="-19.539206871963685"
    x2="-46.03913683366768"
    y2="-19.539206871963685"
    stroke="hsla(0,50%,50%,0.6)"
    stroke-width="1"
    transform="translate(26.0391368336,44.5392068719)"
    />
  
  <line
    x1="-56.03913683366768"
    y1="-14.539206871963685"
    x2="-51.03913683366768"
    y2="-14.539206871963685"
    stroke="hsla(0,50%,50%,0.6)"
    stroke-width="1"
    transform="translate(26.0391368336,44.5392068719)"
    />
  
  <line
    x1="-61.03913683366768"
    y1="-9.539206871963685"
    x2="-56.03913683366768"
    y2="-9.539206871963685"
    stroke="hsla(0,50%,50%,0.6)"
    stroke-width="1"
    transform="translate(26.0391368336,44.5392068719)"
    />
  
  <line
    x1="-66.03913683366768"
    y1="-4.539206871963685"
    x2="-61.03913683366768"
    y2="-4.539206871963685"
    stroke="hsla(0,50%,50%,0.6)"
    stroke-width="1"
    transform="translate(26.0391368336,44.5392068719)"
    />
  
  <line
    x1="-71.03913683366768"
    y1="0.4607931280363143"
    x2="-71.03913683366768"
    y2="5.460793128036315"
    stroke="hsla(0,50%,50%,0.6)"
    stroke-width="1"
    transform="translate(26.0391368336,44.5392068719)"
    />
  
  <line
    x1="-66.03913683366768"
    y1="-4.539206871963685"
    x2="-66.03913683366768"
    y2="0.4607931280363143"
    stroke="hsla(0,50%,50%,0.6)"
    stroke-width="1"
    transform="translate(26.0391368336,44.5392068719)"
    />
  
  <line
    x1="-61.03913683366768"
    y1="-9.539206871963685"
    x2="-61.03913683366768"
    y2="-4.539206871963685"
    stroke="hsla(0,50%,50%,0.6)"
    stroke-width="1"
    transform="translate(26.0391368336,44.5392068719)"
    />
  
  <line
    x1="-56.03913683366768"
    y1="-14.539206871963685"
    x2="-56.03913683366768"
    y2="-9.539206871963685"
    stroke="hsla(0,50%,50%,0.6)"
    stroke-width="1"
    transform="translate(26.0391368336,44.5392068719)"
    />
  
  <line
    x1="-51.03913683366768"
    y1="-19.539206871963685"
    x2="-51.03913683366768"
    y2="-14.539206871963685"
    stroke="hsla(0,50%,50%,0.6)"
    stroke-width="1"
    transform="translate(26.0391368336,44.5392068719)"
    />
  
  <line
    x1="-46.03913683366768"
    y1="-24.539206871963685"
    x2="-46.03913683366768"
    y2="-19.539206871963685"
    stroke="hsla(0,50%,50%,0.6)"
    stroke-width="1"
    transform="translate(26.0391368336,44.5392068719)"
    />
  
  <line
    x1="-41.03913683366768"
    y1="-29.539206871963685"
    x2="-41.03913683366768"
    y2="-24.539206871963685"
    stroke="hsla(0,50%,50%,0.6)"
    stroke-width="1"
    transform="translate(26.0391368336,44.5392068719)"
    />
  
  <line
    x1="-36.03913683366768"
    y1="-34.539206871963685"
    x2="-36.03913683366768"
    y2="-29.539206871963685"
    stroke="hsla(0,50%,50%,0.6)"
    stroke-width="1"
    transform="translate(26.0391368336,44.5392068719)"
    />
  
  <line
    x1="-31.039136833667683"
    y1="-39.539206871963685"
    x2="-31.039136833667683"
    y2="-34.539206871963685"
    stroke="hsla(0,50%,50%,0.6)"
    stroke-width="1"
    transform="translate(26.0391368336,44.5392068719)"
    />
  
  <line
    x1="-26.039136833667683"
    y1="-44.539206871963685"
    x2="-26.039136833667683"
    y2="-39.539206871963685"
    stroke="hsla(0,50%,50%,0.6)"
    stroke-width="1"
    transform="translate(26.0391368336,44.5392068719)"
    />
  
  <line
    x1="-21.039136833667683"
    y1="-49.539206871963685"
    x2="-21.039136833667683"
    y2="-44.539206871963685"
    stroke="hsla(0,50%,50%,0.6)"
    stroke-width="1"
    transform="translate(26.0391368336,44.5392068719)"
    />
  
  <line
    x1="-16.039136833667683"
    y1="-54.539206871963685"
    x2="-16.039136833667683"
    y2="-49.539206871963685"
    stroke="hsla(0,50%,50%,0.6)"
    stroke-width="1"
    transform="translate(26.0391368336,44.5392068719)"
    />
  
  <line
    x1="-11.039136833667685"
    y1="-59.539206871963685"
    x2="-11.039136833667685"
    y2="-54.539206871963685"
    stroke="hsla(0,50%,50%,0.6)"
    stroke-width="1"
    transform="translate(26.0391368336,44.5392068719)"
    />
  
  <line
    x1="-6.039136833667684"
    y1="-64.53920687196369"
    x2="-6.039136833667684"
    y2="-59.539206871963685"
    stroke="hsla(0,50%,50%,0.6)"
    stroke-width="1"
    transform="translate(26.0391368336,44.5392068719)"
    />
  
  <line
    x1="-1.0391368336676845"
    y1="-69.53920687196369"
    x2="-1.0391368336676845"
    y2="-64.53920687196369"
    stroke="hsla(0,50%,50%,0.6)"
    stroke-width="1"
    transform="translate(26.0391368336,44.5392068719)"
    />
  
  <line
    x1="3.9608631663323153"
    y1="-74.53920687196369"
    x2="3.9608631663323153"
    y2="-69.53920687196369"
    stroke="hsla(0,50%,50%,0.6)"
    stroke-width="1"
    transform="translate(26.0391368336,44.5392068719)"
    />
  
  <line
    x1="8.960863166332315"
    y1="-79.53920687196369"
    x2="8.960863166332315"
    y2="-74.53920687196369"
    stroke="hsla(0,50%,50%,0.6)"
    stroke-width="1"
    transform="translate(26.0391368336,44.5392068719)"
    />
  
  <line
    x1="13.960863166332315"
    y1="-84.53920687196369"
    x2="13.960863166332315"
    y2="-79.53920687196369"
    stroke="hsla(0,50%,50%,0.6)"
    stroke-width="1"
    transform="translate(26.0391368336,44.5392068719)"
    />
  
  <line
    x1="18.960863166332317"
    y1="-89.53920687196369"
    x2="18.960863166332317"
    y2="-84.53920687196369"
    stroke="hsla(0,50%,50%,0.6)"
    stroke-width="1"
    transform="translate(26.0391368336,44.5392068719)"
    />
  
  <line
    x1="23.960863166332317"
    y1="-94.53920687196369"
    x2="23.960863166332317"
    y2="-89.53920687196369"
    stroke="hsla(0,50%,50%,0.6)"
    stroke-width="1"
    transform="translate(26.0391368336,44.5392068719)"
    />
  
  <line
    x1="-71.03913683366768"
    y1="0.4607931280363143"
    x2="-66.03913683366768"
    y2="0.4607931280363143"
    stroke="hsla(0,50%,50%,0.6)"
    stroke-width="1"
    transform="translate(26.0391368336,44.5392068719)"
    />
  
  <line
    x1="-76.03913683366768"
    y1="5.460793128036315"
    x2="-71.03913683366768"
    y2="5.460793128036315"
    stroke="hsla(0,50%,50%,0.6)"
    stroke-width="1"
    transform="translate(26.0391368336,44.5392068719)"
    />
  
</svg>
