<?xml version="1.0"?>
<!DOCTYPE svg PUBLIC "-//W3C//DTD SVG 1.1//EN"
  "http://www.w3.org/Graphics/SVG/1.1/DTD/svg11.dtd">
<svg
  width="240"
  height="240"
  viewBox="-500 -500 1000 1000" xmlns="http://www.w3.org/2000/svg" version="1.1">
  <rect
    x="0"
    y="0"
    width="100"
    height="100"
    fill="hsla(206,100%,53%,0.3)"
    stroke="hsl(206,100%,53%)"
    stroke-width="3"
    transform="" />
  
  <path
    d="M 
      193.3865990088
      -165.6290120591
      L
    
      193.3865990088
      -160.6290120591
      L
    
      98.3865990088
      -65.6290120591
      L
    
      93.3865990088
      -65.6290120591
      z
    "
    fill="hsla(0,0%,50%,0.3)"
    stroke="hsla(0,0%,50%,1)"
    stroke-width="1"
    transform="translate(-143.3865990088,115.6290120591)"
    />
  
  
  <line
    x1="188.3865990088454"
    y1="-160.62901205917737"
    x2="193.3865990088454"
    y2="-160.62901205917737"
    stroke="hsla(0,50%,50%,0.6)"
    stroke-width="1"
    transform="translate(-143.3865990088,115.6290120591)"
    />
  
  <line
    x1="183.3865990088454"
    y1="-155.62901205917737"
    x2="188.3865990088454"
    y2="-155.62901205917737"
    stroke="hsla(0,50%,50%,0.6)"
    stroke-width="1"
    transform="translate(-143.3865990088,115.6290120591)"
    />
  
  <line
    x1="178.3865990088454"
    y1="-150.62901205917737"
    x2="183.3865990088454"
    y2="-150.62901205917737"
    stroke="hsla(0,50%,50%,0.6)"
    stroke-width="1"
    transform="translate(-143.3865990088,115.6290120591)"
    />
  
  <line
    x1="173.3865990088454"
    y1="-145.62901205917737"
    x2="178.3865990088454"
    y2="-145.62901205917737"
    stroke="hsla(0,50%,50%,0.6)"
    stroke-width="1"
    transform="translate(-143.3865990088,115.6290120591)"
    />
  
  <line
    x1="168.3865990088454"
    y1="-140.62901205917737"
    x2="173.3865990088454"
    y2="-140.62901205917737"
    stroke="hsla(0,50%,50%,0.6)"
    stroke-width="1"
    transform="translate(-143.3865990088,115.6290120591)"
    />
  
  <line
    x1="163.3865990088454"
    y1="-135.62901205917737"
    x2="168.3865990088454"
    y2="-135.62901205917737"
    stroke="hsla(0,50%,50%,0.6)"
    stroke-width="1"
    transform="translate(-143.3865990088,115.6290120591)"
    />
  
  <line
    x1="158.3865990088454"
    y1="-130.62901205917737"
    x2="163.3865990088454"
    y2="-130.62901205917737"
    stroke="hsla(0,50%,50%,0.6)"
    stroke-width="1"
    transform="translate(-143.3865990088,115.6290120591)"
    />
  
  <line
    x1="153.3865990088454"
    y1="-125.62901205917737"
    x2="158.3865990088454"
    y2="-125.62901205917737"
    stroke="hsla(0,50%,50%,0.6)"
    stroke-width="1"
    transform="translate(-143.3865990088,115.6290120591)"
    />
  
  <line
    x1="148.3865990088454"
    y1="-120.62901205917737"
    x2="153.3865990088454"
    y2="-120.62901205917737"
    stroke="hsla(0,50%,50%,0.6)"
    stroke-width="1"
    transform="translate(-143.3865990088,115.6290120591)"
    />
  
  <line
    x1="143.3865990088454"
    y1="-115.62901205917737"
    x2="148.3865990088454"
    y2="-115.62901205917737"
    stroke="hsla(0,50%,50%,0.6)"
    stroke-width="1"
    transform="translate(-143.3865990088,115.6290120591)"
    />
  
  <line
    x1="138.3865990088454"
    y1="-110.62901205917737"
    x2="143.3865990088454"
    y2="-110.62901205917737"
    stroke="hsla(0,50%,50%,0.6)"
    stroke-width="1"
    transform="translate(-143.3865990088,115.6290120591)"
    />
  
  <line
    x1="133.3865990088454"
    y1="-105.62901205917737"
    x2="138.3865990088454"
    y2="-105.62901205917737"
    stroke="hsla(0,50%,50%,0.6)"
    stroke-width="1"
    transform="translate(-143.3865990088,115.6290120591)"
    />
  
  <line
    x1="128.3865990088454"
    y1="-100.62901205917737"
    x2="133.3865990088454"
    y2="-100.62901205917737"
    stroke="hsla(0,50%,50%,0.6)"
    stroke-width="1"
    transform="translate(-143.3865990088,115.6290120591)"
    />
  
  <line
    x1="123.38659900884538"
    y1="-95.62901205917737"
    x2="128.3865990088454"
    y2="-95.62901205917737"
    stroke="hsla(0,50%,50%,0.6)"
    stroke-width="1"
    transform="translate(-143.3865990088,115.6290120591)"
    />
  
  <line
    x1="118.38659900884538"
    y1="-90.62901205917737"
    x2="123.38659900884538"
    y2="-90.62901205917737"
    stroke="hsla(0,50%,50%,0.6)"
    stroke-width="1"
    transform="translate(-143.3865990088,115.6290120591)"
    />
  
  <line
    x1="113.38659900884538"
    y1="-85.62901205917737"
    x2="118.38659900884538"
    y2="-85.62901205917737"
    stroke="hsla(0,50%,50%,0.6)"
    stroke-width="1"
    transform="translate(-143.3865990088,115.6290120591)"
    />
  
  <line
    x1="108.38659900884538"
    y1="-80.62901205917737"
    x2="113.38659900884538"
    y2="-80.62901205917737"
    stroke="hsla(0,50%,50%,0.6)"
    stroke-width="1"
    transform="translate(-143.3865990088,115.6290120591)"
    />
  
  <line
    x1="103.38659900884538"
    y1="-75.62901205917737"
    x2="108.38659900884538"
    y2="-75.62901205917737"
    stroke="hsla(0,50%,50%,0.6)"
    stroke-width="1"
    transform="translate(-143.3865990088,115.6290120591)"
    />
  
  <line
    x1="98.38659900884538"
    y1="-70.62901205917737"
    x2="103.38659900884538"
    y2="-70.62901205917737"
    stroke="hsla(0,50%,50%,0.6)"
    stroke-width="1"
    transform="translate(-143.3865990088,115.6290120591)"
    />
  
  <line
    x1="93.38659900884538"
    y1="-65.62901205917737"
    x2="98.38659900884538"
    y2="-65.62901205917737"
    stroke="hsla(0,50%,50%,0.6)"
    stroke-width="1"
    transform="translate(-143.3865990088,115.6290120591)"
    />
  
  <line
    x1="98.38659900884538"
    y1="-70.62901205917737"
    x2="98.38659900884538"
    y2="-65.62901205917737"
    stroke="hsla(0,50%,50%,0.6)"
    stroke-width="1"
    transform="translate(-143.3865990088,115.6290120591)"
    />
  
  <line
    x1="103.38659900884538"
    y1="-75.62901205917737"
    x2="103.38659900884538"
    y2="-70.62901205917737"
    stroke="hsla(0,50%,50%,0.6)"
    stroke-width="1"
    transform="translate(-143.3865990088,115.6290120591)"
    />
  
  <line
    x1="108.38659900884538"
    y1="-80.62901205917737"
    x2="108.38659900884538"
    y2="-75.62901205917737"
    stroke="hsla(0,50%,50%,0.6)"
    stroke-width="1"
    transform="translate(-143.3865990088,115.6290120591)"
    />
  
  <line
    x1="113.38659900884538"
    y1="-85.62901205917737"
    x2="113.38659900884538"
    y2="-80.62901205917737"
    stroke="hsla(0,50%,50%,0.6)"
    stroke-width="1"
    transform="translate(-143.3865990088,115.6290120591)"
    />
  
  <line
    x1="118.38659900884538"
    y1="-90.62901205917737"
    x2="118.38659900884538"
    y2="-85.62901205917737"
    stroke="hsla(0,50%,50%,0.6)"
    stroke-width="1"
    transform="translate(-143.3865990088,115.6290120591)"
    />
  
  <line
    x1="123.38659900884538"
    y1="-95.62901205917737"
    x2="123.38659900884538"
    y2="-90.62901205917737"
    stroke="hsla(0,50%,50%,0.6)"
    stroke-width="1"
    transform="translate(-143.3865990088,115.6290120591)"
    />
  
  <line
    x1="128.3865990088454"
    y1="-100.62901205917737"
    x2="128.3865990088454"
    y2="-95.62901205917737"
    stroke="hsla(0,50%,50%,0.6)"
    stroke-width="1"
    transform="translate(-143.3865990088,115.6290120591)"
    />
  
  <line
    x1="133.3865990088454"
    y1="-105.62901205917737"
    x2="133.3865990088454"
    y2="-100.62901205917737"
    stroke="hsla(0,50%,50%,0.6)"
    stroke-width="1"
    transform="translate(-143.3865990088,115.6290120591)"
    />
  
  <line
    x1="138.3865990088454"
    y1="-110.62901205917737"
    x2="138.3865990088454"
    y2="-105.62901205917737"
    stroke="hsla(0,50%,50%,0.6)"
    stroke-width="1"
    transform="translate(-143.3865990088,115.6290120591)"
    />
  
  <line
    x1="143.3865990088454"
    y1="-115.62901205917737"
    x2="143.3865990088454"
    y2="-110.62901205917737"
    stroke="hsla(0,50%,50%,0.6)"
    stroke-width="1"
    transform="translate(-143.3865990088,115.6290120591)"
    />
  
  <line
    x1="148.3865990088454"
    y1="-120.62901205917737"
    x2="148.3865990088454"
    y2="-115.62901205917737"
    stroke="hsla(0,50%,50%,0.6)"
    stroke-width="1"
    transform="translate(-143.3865990088,115.6290120591)"
    />
  
  <line
    x1="153.3865990088454"
    y1="-125.62901205917737"
    x2="153.3865990088454"
    y2="-120.62901205917737"
    stroke="hsla(0,50%,50%,0.6)"
    stroke-width="1"
    transform="translate(-143.3865990088,115.6290120591)"
    />
  
  <line
    x1="158.3865990088454"
    y1="-130.62901205917737"
    x2="158.3865990088454"
    y2="-125.62901205917737"
    stroke="hsla(0,50%,50%,0.6)"
    stroke-width="1"
    transform="translate(-143.3865990088,115.6290120591)"
    />
  
  <line
    x1="163.3865990088454"
    y1="-135.62901205917737"
    x2="163.3865990088454"
    y2="-130.62901205917737"
    stroke="hsla(0,50%,50%,0.6)"
    stroke-width="1"
    transform="translate(-143.3865990088,115.6290120591)"
    />
  
  <line
    x1="168.3865990088454"
    y1="-140.62901205917737"
    x2="168.3865990088454"
    y2="-135.62901205917737"
    stroke="hsla(0,50%,50%,0.6)"
    stroke-width="1"
    transform="translate(-143.3865990088,115.6290120591)"
    />
  
  <line
    x1="173.3865990088454"
    y1="-145.62901205917737"
    x2="173.3865990088454"
    y2="-140.62901205917737"
    stroke="hsla(0,50%,50%,0.6)"
    stroke-width="1"
    transform="translate(-143.3865990088,115.6290120591)"
    />
  
  <line
    x1="178.3865990088454"
    y1="-150.62901205917737"
    x2="178.3865990088454"
    y2="-145.62901205917737"
    stroke="hsla(0,50%,50%,0.6)"
    stroke-width="1"
    transform="translate(-143.3865990088,115.6290120591)"
    />
  
  <line
    x1="183.3865990088454"
    y1="-155.62901205917737"
    x2="183.3865990088454"
    y2="-150.62901205917737"
    stroke="hsla(0,50%,50%,0.6)"
    stroke-width="1"
    transform="translate(-143.3865990088,115.6290120591)"
    />
  
  <line
    x1="188.3865990088454"
    y1="-160.62901205917737"
    x2="188.3865990088454"
    y2="-155.62901205917737"
    stroke="hsla(0,50%,50%,0.6)"
    stroke-width="1"
    transform="translate(-143.3865990088,115.6290120591)"
    />
  
  <line
    x1="193.3865990088454"
    y1="-165.62901205917737"
    x2="193.3865990088454"
    y2="-160.62901205917737"
    stroke="hsla(0,50%,50%,0.6)"
    stroke-width="1"
    transform="translate(-143.3865990088,115.6290120591)"
    />
  
  <line
    x1="193.3865990088454"
    y1="-165.62901205917737"
    x2="93.38659900884538"
    y2="-65.62901205917737"
    stroke="hsla(0,50%,50%,0.6)"
    stroke-width="1"
    transform="translate(-143.3865990088,115.6290120591)"
    />
  
  <line
    x1="193.3865990088454"
    y1="-160.62901205917737"
    x2="98.38659900884538"
    y2="-65.62901205917737"
    stroke="hsla(0,50%,50%,0.6)"
    stroke-width="1"
    transform="translate(-143.3865990088,115.6290120591)"
    />
  
</svg>
