<?xml version="1.0"?>
<!DOCTYPE svg PUBLIC "-//W3C//DTD SVG 1.1//EN"
  "http://www.w3.org/Graphics/SVG/1.1/DTD/svg11.dtd">
<svg
  width="240"
  height="240"
  viewBox="-50 -50 200 200" xmlns="http://www.w3.org/2000/svg" version="1.1">
  <rect
    x="0"
    y="0"
    width="100"
    height="100"
    fill="hsla(206,100%,53%,0.3)"
    stroke="hsl(206,100%,53%)"
    stroke-width="3"
    transform="" />
  
  <path
    d="M 
      19.6019575066
      29.7131513300
      L
    
      19.6019575066
      34.7131513300
      L
    
      -75.3980424933
      129.7131513300
      L
    
      -80.3980424933
      129.7131513300
      z
    "
    fill="hsla(0,0%,50%,0.3)"
    stroke="hsla(0,0%,50%,1)"
    stroke-width="1"
    transform="translate(54.1480424933,-105.3381513300) scale(1,-1) translate(50,-110)"
    />
  
  
  <line
    x1="-75.39804249335093"
    y1="124.71315133006921"
    x2="-75.39804249335093"
    y2="129.7131513300692"
    stroke="hsla(0,50%,50%,0.6)"
    stroke-width="1"
    transform="translate(54.1480424933,-105.3381513300) scale(1,-1) translate(50,-110)"
    />
  
  <line
    x1="-70.39804249335093"
    y1="119.71315133006921"
    x2="-70.39804249335093"
    y2="124.71315133006921"
    stroke="hsla(0,50%,50%,0.6)"
    stroke-width="1"
    transform="translate(54.1480424933,-105.3381513300) scale(1,-1) translate(50,-110)"
    />
  
  <line
    x1="-65.39804249335093"
    y1="114.71315133006921"
    x2="-65.39804249335093"
    y2="119.71315133006921"
    stroke="hsla(0,50%,50%,0.6)"
    stroke-width="1"
    transform="translate(54.1480424933,-105.3381513300) scale(1,-1) translate(50,-110)"
    />
  
  <line
    x1="-60.39804249335093"
    y1="109.71315133006921"
    x2="-60.39804249335093"
    y2="114.71315133006921"
    stroke="hsla(0,50%,50%,0.6)"
    stroke-width="1"
    transform="translate(54.1480424933,-105.3381513300) scale(1,-1) translate(50,-110)"
    />
  
  <line
    x1="-55.39804249335093"
    y1="104.71315133006921"
    x2="-55.39804249335093"
    y2="109.71315133006921"
    stroke="hsla(0,50%,50%,0.6)"
    stroke-width="1"
    transform="translate(54.1480424933,-105.3381513300) scale(1,-1) translate(50,-110)"
    />
  
  <line
    x1="-50.39804249335093"
    y1="99.71315133006921"
    x2="-50.39804249335093"
    y2="104.71315133006921"
    stroke="hsla(0,50%,50%,0.6)"
    stroke-width="1"
    transform="translate(54.1480424933,-105.3381513300) scale(1,-1) translate(50,-110)"
    />
  
  <line
    x1="-45.39804249335093"
    y1="94.71315133006921"
    x2="-45.39804249335093"
    y2="99.71315133006921"
    stroke="hsla(0,50%,50%,0.6)"
    stroke-width="1"
    transform="translate(54.1480424933,-105.3381513300) scale(1,-1) translate(50,-110)"
    />
  
  <line
    x1="-40.39804249335093"
    y1="89.71315133006921"
    x2="-40.39804249335093"
    y2="94.71315133006921"
    stroke="hsla(0,50%,50%,0.6)"
    stroke-width="1"
    transform="translate(54.1480424933,-105.3381513300) scale(1,-1) translate(50,-110)"
    />
  
  <line
    x1="-35.39804249335093"
    y1="84.71315133006921"
    x2="-35.39804249335093"
    y2="89.71315133006921"
    stroke="hsla(0,50%,50%,0.6)"
    stroke-width="1"
    transform="translate(54.1480424933,-105.3381513300) scale(1,-1) translate(50,-110)"
    />
  
  <line
    x1="-30.398042493350925"
    y1="79.71315133006921"
    x2="-30.398042493350925"
    y2="84.71315133006921"
    stroke="hsla(0,50%,50%,0.6)"
    stroke-width="1"
    transform="translate(54.1480424933,-105.3381513300) scale(1,-1) translate(50,-110)"
    />
  
  <line
    x1="-25.398042493350925"
    y1="74.71315133006921"
    x2="-25.398042493350925"
    y2="79.71315133006921"
    stroke="hsla(0,50%,50%,0.6)"
    stroke-width="1"
    transform="translate(54.1480424933,-105.3381513300) scale(1,-1) translate(50,-110)"
    />
  
  <line
    x1="-20.398042493350925"
    y1="69.71315133006921"
    x2="-20.398042493350925"
    y2="74.71315133006921"
    stroke="hsla(0,50%,50%,0.6)"
    stroke-width="1"
    transform="translate(54.1480424933,-105.3381513300) scale(1,-1) translate(50,-110)"
    />
  
  <line
    x1="-15.398042493350927"
    y1="64.71315133006921"
    x2="-15.398042493350927"
    y2="69.71315133006921"
    stroke="hsla(0,50%,50%,0.6)"
    stroke-width="1"
    transform="translate(54.1480424933,-105.3381513300) scale(1,-1) translate(50,-110)"
    />
  
  <line
    x1="-10.398042493350927"
    y1="59.7131513300692"
    x2="-10.398042493350927"
    y2="64.71315133006921"
    stroke="hsla(0,50%,50%,0.6)"
    stroke-width="1"
    transform="translate(54.1480424933,-105.3381513300) scale(1,-1) translate(50,-110)"
    />
  
  <line
    x1="-5.398042493350926"
    y1="54.7131513300692"
    x2="-5.398042493350926"
    y2="59.7131513300692"
    stroke="hsla(0,50%,50%,0.6)"
    stroke-width="1"
    transform="translate(54.1480424933,-105.3381513300) scale(1,-1) translate(50,-110)"
    />
  
  <line
    x1="-0.398042493350926"
    y1="49.7131513300692"
    x2="-0.398042493350926"
    y2="54.7131513300692"
    stroke="hsla(0,50%,50%,0.6)"
    stroke-width="1"
    transform="translate(54.1480424933,-105.3381513300) scale(1,-1) translate(50,-110)"
    />
  
  <line
    x1="4.601957506649074"
    y1="44.7131513300692"
    x2="4.601957506649074"
    y2="49.7131513300692"
    stroke="hsla(0,50%,50%,0.6)"
    stroke-width="1"
    transform="translate(54.1480424933,-105.3381513300) scale(1,-1) translate(50,-110)"
    />
  
  <line
    x1="9.601957506649073"
    y1="39.7131513300692"
    x2="9.601957506649073"
    y2="44.7131513300692"
    stroke="hsla(0,50%,50%,0.6)"
    stroke-width="1"
    transform="translate(54.1480424933,-105.3381513300) scale(1,-1) translate(50,-110)"
    />
  
  <line
    x1="14.601957506649073"
    y1="34.7131513300692"
    x2="14.601957506649073"
    y2="39.7131513300692"
    stroke="hsla(0,50%,50%,0.6)"
    stroke-width="1"
    transform="translate(54.1480424933,-105.3381513300) scale(1,-1) translate(50,-110)"
    />
  
  <line
    x1="19.601957506649075"
    y1="29.713151330069206"
    x2="19.601957506649075"
    y2="34.7131513300692"
    stroke="hsla(0,50%,50%,0.6)"
    stroke-width="1"
    transform="translate(54.1480424933,-105.3381513300) scale(1,-1) translate(50,-110)"
    />
  
  <line
    x1="19.601957506649075"
    y1="29.713151330069206"
    x2="-80.39804249335093"
    y2="129.7131513300692"
    stroke="hsla(0,50%,50%,0.6)"
    stroke-width="1"
    transform="translate(54.1480424933,-105.3381513300) scale(1,-1) translate(50,-110)"
    />
  
  <line
    x1="19.601957506649075"
    y1="34.7131513300692"
    x2="-75.39804249335093"
    y2="129.7131513300692"
    stroke="hsla(0,50%,50%,0.6)"
    stroke-width="1"
    transform="translate(54.1480424933,-105.3381513300) scale(1,-1) translate(50,-110)"
    />
  
  <line
    x1="14.601957506649073"
    y1="34.7131513300692"
    x2="19.601957506649075"
    y2="34.7131513300692"
    stroke="hsla(0,50%,50%,0.6)"
    stroke-width="1"
    transform="translate(54.1480424933,-105.3381513300) scale(1,-1) translate(50,-110)"
    />
  
  <line
    x1="9.601957506649073"
    y1="39.7131513300692"
    x2="14.601957506649073"
    y2="39.7131513300692"
    stroke="hsla(0,50%,50%,0.6)"
    stroke-width="1"
    transform="translate(54.1480424933,-105.3381513300) scale(1,-1) translate(50,-110)"
    />
  
  <line
    x1="4.601957506649074"
    y1="44.7131513300692"
    x2="9.601957506649073"
    y2="44.7131513300692"
    stroke="hsla(0,50%,50%,0.6)"
    stroke-width="1"
    transform="translate(54.1480424933,-105.3381513300) scale(1,-1) translate(50,-110)"
    />
  
  <line
    x1="-0.398042493350926"
    y1="49.7131513300692"
    x2="4.601957506649074"
    y2="49.7131513300692"
    stroke="hsla(0,50%,50%,0.6)"
    stroke-width="1"
    transform="translate(54.1480424933,-105.3381513300) scale(1,-1) translate(50,-110)"
    />
  
  <line
    x1="-5.398042493350926"
    y1="54.7131513300692"
    x2="-0.398042493350926"
    y2="54.7131513300692"
    stroke="hsla(0,50%,50%,0.6)"
    stroke-width="1"
    transform="translate(54.1480424933,-105.3381513300) scale(1,-1) translate(50,-110)"
    />
  
  <line
    x1="-10.398042493350927"
    y1="59.7131513300692"
    x2="-5.398042493350926"
    y2="59.7131513300692"
    stroke="hsla(0,50%,50%,0.6)"
    stroke-width="1"
    transform="translate(54.1480424933,-105.3381513300) scale(1,-1) translate(50,-110)"
    />
  
  <line
    x1="-15.398042493350927"
    y1="64.71315133006921"
    x2="-10.398042493350927"
    y2="64.71315133006921"
    stroke="hsla(0,50%,50%,0.6)"
    stroke-width="1"
    transform="translate(54.1480424933,-105.3381513300) scale(1,-1) translate(50,-110)"
    />
  
  <line
    x1="-20.398042493350925"
    y1="69.71315133006921"
    x2="-15.398042493350927"
    y2="69.71315133006921"
    stroke="hsla(0,50%,50%,0.6)"
    stroke-width="1"
    transform="translate(54.1480424933,-105.3381513300) scale(1,-1) translate(50,-110)"
    />
  
  <line
    x1="-25.398042493350925"
    y1="74.71315133006921"
    x2="-20.398042493350925"
    y2="74.71315133006921"
    stroke="hsla(0,50%,50%,0.6)"
    stroke-width="1"
    transform="translate(54.1480424933,-105.3381513300) scale(1,-1) translate(50,-110)"
    />
  
  <line
    x1="-30.398042493350925"
    y1="79.71315133006921"
    x2="-25.398042493350925"
    y2="79.71315133006921"
    stroke="hsla(0,50%,50%,0.6)"
    stroke-width="1"
    transform="translate(54.1480424933,-105.3381513300) scale(1,-1) translate(50,-110)"
    />
  
  <line
    x1="-35.39804249335093"
    y1="84.71315133006921"
    x2="-30.398042493350925"
    y2="84.71315133006921"
    stroke="hsla(0,50%,50%,0.6)"
    stroke-width="1"
    transform="translate(54.1480424933,-105.3381513300) scale(1,-1) translate(50,-110)"
    />
  
  <line
    x1="-40.39804249335093"
    y1="89.71315133006921"
    x2="-35.39804249335093"
    y2="89.71315133006921"
    stroke="hsla(0,50%,50%,0.6)"
    stroke-width="1"
    transform="translate(54.1480424933,-105.3381513300) scale(1,-1) translate(50,-110)"
    />
  
  <line
    x1="-45.39804249335093"
    y1="94.71315133006921"
    x2="-40.39804249335093"
    y2="94.71315133006921"
    stroke="hsla(0,50%,50%,0.6)"
    stroke-width="1"
    transform="translate(54.1480424933,-105.3381513300) scale(1,-1) translate(50,-110)"
    />
  
  <line
    x1="-50.39804249335093"
    y1="99.71315133006921"
    x2="-45.39804249335093"
    y2="99.71315133006921"
    stroke="hsla(0,50%,50%,0.6)"
    stroke-width="1"
    transform="translate(54.1480424933,-105.3381513300) scale(1,-1) translate(50,-110)"
    />
  
  <line
    x1="-55.39804249335093"
    y1="104.71315133006921"
    x2="-50.39804249335093"
    y2="104.71315133006921"
    stroke="hsla(0,50%,50%,0.6)"
    stroke-width="1"
    transform="translate(54.1480424933,-105.3381513300) scale(1,-1) translate(50,-110)"
    />
  
  <line
    x1="-60.39804249335093"
    y1="109.71315133006921"
    x2="-55.39804249335093"
    y2="109.71315133006921"
    stroke="hsla(0,50%,50%,0.6)"
    stroke-width="1"
    transform="translate(54.1480424933,-105.3381513300) scale(1,-1) translate(50,-110)"
    />
  
  <line
    x1="-65.39804249335093"
    y1="114.71315133006921"
    x2="-60.39804249335093"
    y2="114.71315133006921"
    stroke="hsla(0,50%,50%,0.6)"
    stroke-width="1"
    transform="translate(54.1480424933,-105.3381513300) scale(1,-1) translate(50,-110)"
    />
  
  <line
    x1="-70.39804249335093"
    y1="119.71315133006921"
    x2="-65.39804249335093"
    y2="119.71315133006921"
    stroke="hsla(0,50%,50%,0.6)"
    stroke-width="1"
    transform="translate(54.1480424933,-105.3381513300) scale(1,-1) translate(50,-110)"
    />
  
  <line
    x1="-75.39804249335093"
    y1="124.71315133006921"
    x2="-70.39804249335093"
    y2="124.71315133006921"
    stroke="hsla(0,50%,50%,0.6)"
    stroke-width="1"
    transform="translate(54.1480424933,-105.3381513300) scale(1,-1) translate(50,-110)"
    />
  
  <line
    x1="-80.39804249335093"
    y1="129.7131513300692"
    x2="-75.39804249335093"
    y2="129.7131513300692"
    stroke="hsla(0,50%,50%,0.6)"
    stroke-width="1"
    transform="translate(54.1480424933,-105.3381513300) scale(1,-1) translate(50,-110)"
    />
  
</svg>
