<?xml version="1.0"?>
<!DOCTYPE svg PUBLIC "-//W3C//DTD SVG 1.1//EN"
  "http://www.w3.org/Graphics/SVG/1.1/DTD/svg11.dtd">
<svg
  width="240"
  height="240"
  viewBox="-500 -500 1000 1000" xmlns="http://www.w3.org/2000/svg" version="1.1">
  <rect
    x="0"
    y="0"
    width="100"
    height="100"
    fill="hsla(206,100%,53%,0.3)"
    stroke="hsl(206,100%,53%)"
    stroke-width="3"
    transform="" />
  
  <path
    d="M 
      93.5622793224
      -16.0162237114
      L
    
      93.5622793224
      -11.0162237114
      L
    
      -1.4377206775
      83.9837762885
      L
    
      -6.4377206775
      83.9837762885
      z
    "
    fill="hsla(0,0%,50%,0.3)"
    stroke="hsla(0,0%,50%,1)"
    stroke-width="1"
    transform="translate(-43.5622793224,-33.9837762885)"
    />
  
  
  <line
    x1="88.56227932247535"
    y1="-11.016223711486832"
    x2="93.56227932247535"
    y2="-11.016223711486832"
    stroke="hsla(0,50%,50%,0.6)"
    stroke-width="1"
    transform="translate(-43.5622793224,-33.9837762885)"
    />
  
  <line
    x1="83.56227932247535"
    y1="-6.016223711486832"
    x2="88.56227932247535"
    y2="-6.016223711486832"
    stroke="hsla(0,50%,50%,0.6)"
    stroke-width="1"
    transform="translate(-43.5622793224,-33.9837762885)"
    />
  
  <line
    x1="78.56227932247535"
    y1="-1.0162237114868324"
    x2="83.56227932247535"
    y2="-1.0162237114868324"
    stroke="hsla(0,50%,50%,0.6)"
    stroke-width="1"
    transform="translate(-43.5622793224,-33.9837762885)"
    />
  
  <line
    x1="-1.4377206775246585"
    y1="78.98377628851317"
    x2="-1.4377206775246585"
    y2="83.98377628851317"
    stroke="hsla(0,50%,50%,0.6)"
    stroke-width="1"
    transform="translate(-43.5622793224,-33.9837762885)"
    />
  
  <line
    x1="3.5622793224753413"
    y1="73.98377628851317"
    x2="3.5622793224753413"
    y2="78.98377628851317"
    stroke="hsla(0,50%,50%,0.6)"
    stroke-width="1"
    transform="translate(-43.5622793224,-33.9837762885)"
    />
  
  <line
    x1="8.56227932247534"
    y1="68.98377628851317"
    x2="8.56227932247534"
    y2="73.98377628851317"
    stroke="hsla(0,50%,50%,0.6)"
    stroke-width="1"
    transform="translate(-43.5622793224,-33.9837762885)"
    />
  
  <line
    x1="13.56227932247534"
    y1="63.98377628851317"
    x2="13.56227932247534"
    y2="68.98377628851317"
    stroke="hsla(0,50%,50%,0.6)"
    stroke-width="1"
    transform="translate(-43.5622793224,-33.9837762885)"
    />
  
  <line
    x1="18.56227932247534"
    y1="58.98377628851317"
    x2="18.56227932247534"
    y2="63.98377628851317"
    stroke="hsla(0,50%,50%,0.6)"
    stroke-width="1"
    transform="translate(-43.5622793224,-33.9837762885)"
    />
  
  <line
    x1="23.56227932247534"
    y1="53.98377628851317"
    x2="23.56227932247534"
    y2="58.98377628851317"
    stroke="hsla(0,50%,50%,0.6)"
    stroke-width="1"
    transform="translate(-43.5622793224,-33.9837762885)"
    />
  
  <line
    x1="28.56227932247534"
    y1="48.98377628851317"
    x2="28.56227932247534"
    y2="53.98377628851317"
    stroke="hsla(0,50%,50%,0.6)"
    stroke-width="1"
    transform="translate(-43.5622793224,-33.9837762885)"
    />
  
  <line
    x1="33.56227932247534"
    y1="43.98377628851317"
    x2="33.56227932247534"
    y2="48.98377628851317"
    stroke="hsla(0,50%,50%,0.6)"
    stroke-width="1"
    transform="translate(-43.5622793224,-33.9837762885)"
    />
  
  <line
    x1="38.56227932247534"
    y1="38.98377628851317"
    x2="38.56227932247534"
    y2="43.98377628851317"
    stroke="hsla(0,50%,50%,0.6)"
    stroke-width="1"
    transform="translate(-43.5622793224,-33.9837762885)"
    />
  
  <line
    x1="43.56227932247534"
    y1="33.98377628851317"
    x2="43.56227932247534"
    y2="38.98377628851317"
    stroke="hsla(0,50%,50%,0.6)"
    stroke-width="1"
    transform="translate(-43.5622793224,-33.9837762885)"
    />
  
  <line
    x1="48.56227932247534"
    y1="28.983776288513166"
    x2="48.56227932247534"
    y2="33.98377628851317"
    stroke="hsla(0,50%,50%,0.6)"
    stroke-width="1"
    transform="translate(-43.5622793224,-33.9837762885)"
    />
  
  <line
    x1="53.56227932247534"
    y1="23.983776288513166"
    x2="53.56227932247534"
    y2="28.983776288513166"
    stroke="hsla(0,50%,50%,0.6)"
    stroke-width="1"
    transform="translate(-43.5622793224,-33.9837762885)"
    />
  
  <line
    x1="58.56227932247534"
    y1="18.983776288513166"
    x2="58.56227932247534"
    y2="23.983776288513166"
    stroke="hsla(0,50%,50%,0.6)"
    stroke-width="1"
    transform="translate(-43.5622793224,-33.9837762885)"
    />
  
  <line
    x1="63.56227932247534"
    y1="13.983776288513168"
    x2="63.56227932247534"
    y2="18.983776288513166"
    stroke="hsla(0,50%,50%,0.6)"
    stroke-width="1"
    transform="translate(-43.5622793224,-33.9837762885)"
    />
  
  <line
    x1="68.56227932247535"
    y1="8.983776288513168"
    x2="68.56227932247535"
    y2="13.983776288513168"
    stroke="hsla(0,50%,50%,0.6)"
    stroke-width="1"
    transform="translate(-43.5622793224,-33.9837762885)"
    />
  
  <line
    x1="73.56227932247535"
    y1="3.983776288513168"
    x2="73.56227932247535"
    y2="8.983776288513168"
    stroke="hsla(0,50%,50%,0.6)"
    stroke-width="1"
    transform="translate(-43.5622793224,-33.9837762885)"
    />
  
  <line
    x1="78.56227932247535"
    y1="-1.0162237114868324"
    x2="78.56227932247535"
    y2="3.983776288513168"
    stroke="hsla(0,50%,50%,0.6)"
    stroke-width="1"
    transform="translate(-43.5622793224,-33.9837762885)"
    />
  
  <line
    x1="83.56227932247535"
    y1="-6.016223711486832"
    x2="83.56227932247535"
    y2="-1.0162237114868324"
    stroke="hsla(0,50%,50%,0.6)"
    stroke-width="1"
    transform="translate(-43.5622793224,-33.9837762885)"
    />
  
  <line
    x1="88.56227932247535"
    y1="-11.016223711486832"
    x2="88.56227932247535"
    y2="-6.016223711486832"
    stroke="hsla(0,50%,50%,0.6)"
    stroke-width="1"
    transform="translate(-43.5622793224,-33.9837762885)"
    />
  
  <line
    x1="93.56227932247535"
    y1="-16.016223711486834"
    x2="93.56227932247535"
    y2="-11.016223711486832"
    stroke="hsla(0,50%,50%,0.6)"
    stroke-width="1"
    transform="translate(-43.5622793224,-33.9837762885)"
    />
  
  <line
    x1="73.56227932247535"
    y1="3.983776288513168"
    x2="78.56227932247535"
    y2="3.983776288513168"
    stroke="hsla(0,50%,50%,0.6)"
    stroke-width="1"
    transform="translate(-43.5622793224,-33.9837762885)"
    />
  
  <line
    x1="68.56227932247535"
    y1="8.983776288513168"
    x2="73.56227932247535"
    y2="8.983776288513168"
    stroke="hsla(0,50%,50%,0.6)"
    stroke-width="1"
    transform="translate(-43.5622793224,-33.9837762885)"
    />
  
  <line
    x1="63.56227932247534"
    y1="13.983776288513168"
    x2="68.56227932247535"
    y2="13.983776288513168"
    stroke="hsla(0,50%,50%,0.6)"
    stroke-width="1"
    transform="translate(-43.5622793224,-33.9837762885)"
    />
  
  <line
    x1="58.56227932247534"
    y1="18.983776288513166"
    x2="63.56227932247534"
    y2="18.983776288513166"
    stroke="hsla(0,50%,50%,0.6)"
    stroke-width="1"
    transform="translate(-43.5622793224,-33.9837762885)"
    />
  
  <line
    x1="53.56227932247534"
    y1="23.983776288513166"
    x2="58.56227932247534"
    y2="23.983776288513166"
    stroke="hsla(0,50%,50%,0.6)"
    stroke-width="1"
    transform="translate(-43.5622793224,-33.9837762885)"
    />
  
  <line
    x1="48.56227932247534"
    y1="28.983776288513166"
    x2="53.56227932247534"
    y2="28.983776288513166"
    stroke="hsla(0,50%,50%,0.6)"
    stroke-width="1"
    transform="translate(-43.5622793224,-33.9837762885)"
    />
  
  <line
    x1="43.56227932247534"
    y1="33.98377628851317"
    x2="48.56227932247534"
    y2="33.98377628851317"
    stroke="hsla(0,50%,50%,0.6)"
    stroke-width="1"
    transform="translate(-43.5622793224,-33.9837762885)"
    />
  
  <line
    x1="93.56227932247535"
    y1="-16.016223711486834"
    x2="-6.437720677524658"
    y2="83.98377628851317"
    stroke="hsla(0,50%,50%,0.6)"
    stroke-width="1"
    transform="translate(-43.5622793224,-33.9837762885)"
    />
  
  <line
    x1="38.56227932247534"
    y1="38.98377628851317"
    x2="43.56227932247534"
    y2="38.98377628851317"
    stroke="hsla(0,50%,50%,0.6)"
    stroke-width="1"
    transform="translate(-43.5622793224,-33.9837762885)"
    />
  
  <line
    x1="93.56227932247535"
    y1="-11.016223711486832"
    x2="-1.4377206775246585"
    y2="83.98377628851317"
    stroke="hsla(0,50%,50%,0.6)"
    stroke-width="1"
    transform="translate(-43.5622793224,-33.9837762885)"
    />
  
  <line
    x1="33.56227932247534"
    y1="43.98377628851317"
    x2="38.56227932247534"
    y2="43.98377628851317"
    stroke="hsla(0,50%,50%,0.6)"
    stroke-width="1"
    transform="translate(-43.5622793224,-33.9837762885)"
    />
  
  <line
    x1="28.56227932247534"
    y1="48.98377628851317"
    x2="33.56227932247534"
    y2="48.98377628851317"
    stroke="hsla(0,50%,50%,0.6)"
    stroke-width="1"
    transform="translate(-43.5622793224,-33.9837762885)"
    />
  
  <line
    x1="23.56227932247534"
    y1="53.98377628851317"
    x2="28.56227932247534"
    y2="53.98377628851317"
    stroke="hsla(0,50%,50%,0.6)"
    stroke-width="1"
    transform="translate(-43.5622793224,-33.9837762885)"
    />
  
  <line
    x1="18.56227932247534"
    y1="58.98377628851317"
    x2="23.56227932247534"
    y2="58.98377628851317"
    stroke="hsla(0,50%,50%,0.6)"
    stroke-width="1"
    transform="translate(-43.5622793224,-33.9837762885)"
    />
  
  <line
    x1="13.56227932247534"
    y1="63.98377628851317"
    x2="18.56227932247534"
    y2="63.98377628851317"
    stroke="hsla(0,50%,50%,0.6)"
    stroke-width="1"
    transform="translate(-43.5622793224,-33.9837762885)"
    />
  
  <line
    x1="8.56227932247534"
    y1="68.98377628851317"
    x2="13.56227932247534"
    y2="68.98377628851317"
    stroke="hsla(0,50%,50%,0.6)"
    stroke-width="1"
    transform="translate(-43.5622793224,-33.9837762885)"
    />
  
  <line
    x1="3.5622793224753413"
    y1="73.98377628851317"
    x2="8.56227932247534"
    y2="73.98377628851317"
    stroke="hsla(0,50%,50%,0.6)"
    stroke-width="1"
    transform="translate(-43.5622793224,-33.9837762885)"
    />
  
  <line
    x1="-1.4377206775246585"
    y1="78.98377628851317"
    x2="3.5622793224753413"
    y2="78.98377628851317"
    stroke="hsla(0,50%,50%,0.6)"
    stroke-width="1"
    transform="translate(-43.5622793224,-33.9837762885)"
    />
  
  <line
    x1="-6.437720677524658"
    y1="83.98377628851317"
    x2="-1.4377206775246585"
    y2="83.98377628851317"
    stroke="hsla(0,50%,50%,0.6)"
    stroke-width="1"
    transform="translate(-43.5622793224,-33.9837762885)"
    />
  
</svg>
