<?xml version="1.0"?>
<!DOCTYPE svg PUBLIC "-//W3C//DTD SVG 1.1//EN"
  "http://www.w3.org/Graphics/SVG/1.1/DTD/svg11.dtd">
<svg
  width="240"
  height="240"
  viewBox="-50 -50 200 200" xmlns="http://www.w3.org/2000/svg" version="1.1">
  <rect
    x="0"
    y="0"
    width="100"
    height="100"
    fill="hsla(206,100%,53%,0.3)"
    stroke="hsl(206,100%,53%)"
    stroke-width="3"
    transform="" />
  
  <path
    d="M 
      107.0141970568
      -138.4301484683
      L
    
      107.0141970568
      -133.4301484683
      L
    
      12.0141970568
      -38.4301484683
      L
    
      7.0141970568
      -38.4301484683
      z
    "
    fill="hsla(0,0%,50%,0.3)"
    stroke="hsla(0,0%,50%,1)"
    stroke-width="1"
    transform="translate(-33.2641970568,62.8051484683) scale(1,-1) translate(50,-110)"
    />
  
  
  <line
    x1="102.01419705681135"
    y1="-133.43014846834237"
    x2="107.01419705681135"
    y2="-133.43014846834237"
    stroke="hsla(0,50%,50%,0.6)"
    stroke-width="1"
    transform="translate(-33.2641970568,62.8051484683) scale(1,-1) translate(50,-110)"
    />
  
  <line
    x1="97.01419705681135"
    y1="-128.43014846834237"
    x2="102.01419705681135"
    y2="-128.43014846834237"
    stroke="hsla(0,50%,50%,0.6)"
    stroke-width="1"
    transform="translate(-33.2641970568,62.8051484683) scale(1,-1) translate(50,-110)"
    />
  
  <line
    x1="92.01419705681135"
    y1="-123.43014846834237"
    x2="97.01419705681135"
    y2="-123.43014846834237"
    stroke="hsla(0,50%,50%,0.6)"
    stroke-width="1"
    transform="translate(-33.2641970568,62.8051484683) scale(1,-1) translate(50,-110)"
    />
  
  <line
    x1="87.01419705681135"
    y1="-118.43014846834237"
    x2="92.01419705681135"
    y2="-118.43014846834237"
    stroke="hsla(0,50%,50%,0.6)"
    stroke-width="1"
    transform="translate(-33.2641970568,62.8051484683) scale(1,-1) translate(50,-110)"
    />
  
  <line
    x1="82.01419705681135"
    y1="-113.43014846834237"
    x2="87.01419705681135"
    y2="-113.43014846834237"
    stroke="hsla(0,50%,50%,0.6)"
    stroke-width="1"
    transform="translate(-33.2641970568,62.8051484683) scale(1,-1) translate(50,-110)"
    />
  
  <line
    x1="77.01419705681135"
    y1="-108.43014846834237"
    x2="82.01419705681135"
    y2="-108.43014846834237"
    stroke="hsla(0,50%,50%,0.6)"
    stroke-width="1"
    transform="translate(-33.2641970568,62.8051484683) scale(1,-1) translate(50,-110)"
    />
  
  <line
    x1="72.01419705681135"
    y1="-103.43014846834237"
    x2="77.01419705681135"
    y2="-103.43014846834237"
    stroke="hsla(0,50%,50%,0.6)"
    stroke-width="1"
    transform="translate(-33.2641970568,62.8051484683) scale(1,-1) translate(50,-110)"
    />
  
  <line
    x1="67.01419705681135"
    y1="-98.43014846834237"
    x2="72.01419705681135"
    y2="-98.43014846834237"
    stroke="hsla(0,50%,50%,0.6)"
    stroke-width="1"
    transform="translate(-33.2641970568,62.8051484683) scale(1,-1) translate(50,-110)"
    />
  
  <line
    x1="62.014197056811355"
    y1="-93.43014846834237"
    x2="67.01419705681135"
    y2="-93.43014846834237"
    stroke="hsla(0,50%,50%,0.6)"
    stroke-width="1"
    transform="translate(-33.2641970568,62.8051484683) scale(1,-1) translate(50,-110)"
    />
  
  <line
    x1="57.014197056811355"
    y1="-88.43014846834237"
    x2="62.014197056811355"
    y2="-88.43014846834237"
    stroke="hsla(0,50%,50%,0.6)"
    stroke-width="1"
    transform="translate(-33.2641970568,62.8051484683) scale(1,-1) translate(50,-110)"
    />
  
  <line
    x1="52.014197056811355"
    y1="-83.43014846834237"
    x2="57.014197056811355"
    y2="-83.43014846834237"
    stroke="hsla(0,50%,50%,0.6)"
    stroke-width="1"
    transform="translate(-33.2641970568,62.8051484683) scale(1,-1) translate(50,-110)"
    />
  
  <line
    x1="47.014197056811355"
    y1="-78.43014846834237"
    x2="52.014197056811355"
    y2="-78.43014846834237"
    stroke="hsla(0,50%,50%,0.6)"
    stroke-width="1"
    transform="translate(-33.2641970568,62.8051484683) scale(1,-1) translate(50,-110)"
    />
  
  <line
    x1="42.014197056811355"
    y1="-73.43014846834237"
    x2="47.014197056811355"
    y2="-73.43014846834237"
    stroke="hsla(0,50%,50%,0.6)"
    stroke-width="1"
    transform="translate(-33.2641970568,62.8051484683) scale(1,-1) translate(50,-110)"
    />
  
  <line
    x1="37.014197056811355"
    y1="-68.43014846834237"
    x2="42.014197056811355"
    y2="-68.43014846834237"
    stroke="hsla(0,50%,50%,0.6)"
    stroke-width="1"
    transform="translate(-33.2641970568,62.8051484683) scale(1,-1) translate(50,-110)"
    />
  
  <line
    x1="32.014197056811355"
    y1="-63.43014846834236"
    x2="37.014197056811355"
    y2="-63.43014846834236"
    stroke="hsla(0,50%,50%,0.6)"
    stroke-width="1"
    transform="translate(-33.2641970568,62.8051484683) scale(1,-1) translate(50,-110)"
    />
  
  <line
    x1="27.01419705681136"
    y1="-58.43014846834236"
    x2="32.014197056811355"
    y2="-58.43014846834236"
    stroke="hsla(0,50%,50%,0.6)"
    stroke-width="1"
    transform="translate(-33.2641970568,62.8051484683) scale(1,-1) translate(50,-110)"
    />
  
  <line
    x1="22.01419705681136"
    y1="-53.43014846834236"
    x2="27.01419705681136"
    y2="-53.43014846834236"
    stroke="hsla(0,50%,50%,0.6)"
    stroke-width="1"
    transform="translate(-33.2641970568,62.8051484683) scale(1,-1) translate(50,-110)"
    />
  
  <line
    x1="17.01419705681136"
    y1="-48.43014846834236"
    x2="22.01419705681136"
    y2="-48.43014846834236"
    stroke="hsla(0,50%,50%,0.6)"
    stroke-width="1"
    transform="translate(-33.2641970568,62.8051484683) scale(1,-1) translate(50,-110)"
    />
  
  <line
    x1="12.014197056811359"
    y1="-43.43014846834236"
    x2="17.01419705681136"
    y2="-43.43014846834236"
    stroke="hsla(0,50%,50%,0.6)"
    stroke-width="1"
    transform="translate(-33.2641970568,62.8051484683) scale(1,-1) translate(50,-110)"
    />
  
  <line
    x1="7.0141970568113585"
    y1="-38.43014846834236"
    x2="12.014197056811359"
    y2="-38.43014846834236"
    stroke="hsla(0,50%,50%,0.6)"
    stroke-width="1"
    transform="translate(-33.2641970568,62.8051484683) scale(1,-1) translate(50,-110)"
    />
  
  <line
    x1="107.01419705681135"
    y1="-138.43014846834237"
    x2="7.0141970568113585"
    y2="-38.43014846834236"
    stroke="hsla(0,50%,50%,0.6)"
    stroke-width="1"
    transform="translate(-33.2641970568,62.8051484683) scale(1,-1) translate(50,-110)"
    />
  
  <line
    x1="107.01419705681135"
    y1="-133.43014846834237"
    x2="12.014197056811359"
    y2="-38.43014846834236"
    stroke="hsla(0,50%,50%,0.6)"
    stroke-width="1"
    transform="translate(-33.2641970568,62.8051484683) scale(1,-1) translate(50,-110)"
    />
  
  <line
    x1="12.014197056811359"
    y1="-43.43014846834236"
    x2="12.014197056811359"
    y2="-38.43014846834236"
    stroke="hsla(0,50%,50%,0.6)"
    stroke-width="1"
    transform="translate(-33.2641970568,62.8051484683) scale(1,-1) translate(50,-110)"
    />
  
  <line
    x1="17.01419705681136"
    y1="-48.43014846834236"
    x2="17.01419705681136"
    y2="-43.43014846834236"
    stroke="hsla(0,50%,50%,0.6)"
    stroke-width="1"
    transform="translate(-33.2641970568,62.8051484683) scale(1,-1) translate(50,-110)"
    />
  
  <line
    x1="22.01419705681136"
    y1="-53.43014846834236"
    x2="22.01419705681136"
    y2="-48.43014846834236"
    stroke="hsla(0,50%,50%,0.6)"
    stroke-width="1"
    transform="translate(-33.2641970568,62.8051484683) scale(1,-1) translate(50,-110)"
    />
  
  <line
    x1="27.01419705681136"
    y1="-58.43014846834236"
    x2="27.01419705681136"
    y2="-53.43014846834236"
    stroke="hsla(0,50%,50%,0.6)"
    stroke-width="1"
    transform="translate(-33.2641970568,62.8051484683) scale(1,-1) translate(50,-110)"
    />
  
  <line
    x1="32.014197056811355"
    y1="-63.43014846834236"
    x2="32.014197056811355"
    y2="-58.43014846834236"
    stroke="hsla(0,50%,50%,0.6)"
    stroke-width="1"
    transform="translate(-33.2641970568,62.8051484683) scale(1,-1) translate(50,-110)"
    />
  
  <line
    x1="37.014197056811355"
    y1="-68.43014846834237"
    x2="37.014197056811355"
    y2="-63.43014846834236"
    stroke="hsla(0,50%,50%,0.6)"
    stroke-width="1"
    transform="translate(-33.2641970568,62.8051484683) scale(1,-1) translate(50,-110)"
    />
  
  <line
    x1="42.014197056811355"
    y1="-73.43014846834237"
    x2="42.014197056811355"
    y2="-68.43014846834237"
    stroke="hsla(0,50%,50%,0.6)"
    stroke-width="1"
    transform="translate(-33.2641970568,62.8051484683) scale(1,-1) translate(50,-110)"
    />
  
  <line
    x1="47.014197056811355"
    y1="-78.43014846834237"
    x2="47.014197056811355"
    y2="-73.43014846834237"
    stroke="hsla(0,50%,50%,0.6)"
    stroke-width="1"
    transform="translate(-33.2641970568,62.8051484683) scale(1,-1) translate(50,-110)"
    />
  
  <line
    x1="52.014197056811355"
    y1="-83.43014846834237"
    x2="52.014197056811355"
    y2="-78.43014846834237"
    stroke="hsla(0,50%,50%,0.6)"
    stroke-width="1"
    transform="translate(-33.2641970568,62.8051484683) scale(1,-1) translate(50,-110)"
    />
  
  <line
    x1="57.014197056811355"
    y1="-88.43014846834237"
    x2="57.014197056811355"
    y2="-83.43014846834237"
    stroke="hsla(0,50%,50%,0.6)"
    stroke-width="1"
    transform="translate(-33.2641970568,62.8051484683) scale(1,-1) translate(50,-110)"
    />
  
  <line
    x1="62.014197056811355"
    y1="-93.43014846834237"
    x2="62.014197056811355"
    y2="-88.43014846834237"
    stroke="hsla(0,50%,50%,0.6)"
    stroke-width="1"
    transform="translate(-33.2641970568,62.8051484683) scale(1,-1) translate(50,-110)"
    />
  
  <line
    x1="67.01419705681135"
    y1="-98.43014846834237"
    x2="67.01419705681135"
    y2="-93.43014846834237"
    stroke="hsla(0,50%,50%,0.6)"
    stroke-width="1"
    transform="translate(-33.2641970568,62.8051484683) scale(1,-1) translate(50,-110)"
    />
  
  <line
    x1="72.01419705681135"
    y1="-103.43014846834237"
    x2="72.01419705681135"
    y2="-98.43014846834237"
    stroke="hsla(0,50%,50%,0.6)"
    stroke-width="1"
    transform="translate(-33.2641970568,62.8051484683) scale(1,-1) translate(50,-110)"
    />
  
  <line
    x1="77.01419705681135"
    y1="-108.43014846834237"
    x2="77.01419705681135"
    y2="-103.43014846834237"
    stroke="hsla(0,50%,50%,0.6)"
    stroke-width="1"
    transform="translate(-33.2641970568,62.8051484683) scale(1,-1) translate(50,-110)"
    />
  
  <line
    x1="82.01419705681135"
    y1="-113.43014846834237"
    x2="82.01419705681135"
    y2="-108.43014846834237"
    stroke="hsla(0,50%,50%,0.6)"
    stroke-width="1"
    transform="translate(-33.2641970568,62.8051484683) scale(1,-1) translate(50,-110)"
    />
  
  <line
    x1="87.01419705681135"
    y1="-118.43014846834237"
    x2="87.01419705681135"
    y2="-113.43014846834237"
    stroke="hsla(0,50%,50%,0.6)"
    stroke-width="1"
    transform="translate(-33.2641970568,62.8051484683) scale(1,-1) translate(50,-110)"
    />
  
  <line
    x1="92.01419705681135"
    y1="-123.43014846834237"
    x2="92.01419705681135"
    y2="-118.43014846834237"
    stroke="hsla(0,50%,50%,0.6)"
    stroke-width="1"
    transform="translate(-33.2641970568,62.8051484683) scale(1,-1) translate(50,-110)"
    />
  
  <line
    x1="97.01419705681135"
    y1="-128.43014846834237"
    x2="97.01419705681135"
    y2="-123.43014846834237"
    stroke="hsla(0,50%,50%,0.6)"
    stroke-width="1"
    transform="translate(-33.2641970568,62.8051484683) scale(1,-1) translate(50,-110)"
    />
  
  <line
    x1="102.01419705681135"
    y1="-133.43014846834237"
    x2="102.01419705681135"
    y2="-128.43014846834237"
    stroke="hsla(0,50%,50%,0.6)"
    stroke-width="1"
    transform="translate(-33.2641970568,62.8051484683) scale(1,-1) translate(50,-110)"
    />
  
  <line
    x1="107.01419705681135"
    y1="-138.43014846834237"
    x2="107.01419705681135"
    y2="-133.43014846834237"
    stroke="hsla(0,50%,50%,0.6)"
    stroke-width="1"
    transform="translate(-33.2641970568,62.8051484683) scale(1,-1) translate(50,-110)"
    />
  
</svg>
