<?xml version="1.0"?>
<!DOCTYPE svg PUBLIC "-//W3C//DTD SVG 1.1//EN"
  "http://www.w3.org/Graphics/SVG/1.1/DTD/svg11.dtd">
<svg
  width="240"
  height="240"
  viewBox="-500 -500 1000 1000" xmlns="http://www.w3.org/2000/svg" version="1.1">
  <rect
    x="0"
    y="0"
    width="100"
    height="100"
    fill="hsla(206,100%,53%,0.3)"
    stroke="hsl(206,100%,53%)"
    stroke-width="3"
    transform="" />
  
  <path
    d="M 
      188.4597149604
      -28.8680915920
      L
    
      188.4597149604
      -23.8680915920
      L
    
      93.4597149604
      71.1319084079
      L
    
      88.4597149604
      71.1319084079
      z
    "
    fill="hsla(0,0%,50%,0.3)"
    stroke="hsla(0,0%,50%,1)"
    stroke-width="1"
    transform="translate(-138.4597149604,-21.1319084079)"
    />
  
  
  <line
    x1="183.4597149604532"
    y1="-23.86809159200829"
    x2="188.4597149604532"
    y2="-23.86809159200829"
    stroke="hsla(0,50%,50%,0.6)"
    stroke-width="1"
    transform="translate(-138.4597149604,-21.1319084079)"
    />
  
  <line
    x1="178.4597149604532"
    y1="-18.86809159200829"
    x2="183.4597149604532"
    y2="-18.86809159200829"
    stroke="hsla(0,50%,50%,0.6)"
    stroke-width="1"
    transform="translate(-138.4597149604,-21.1319084079)"
    />
  
  <line
    x1="173.4597149604532"
    y1="-13.868091592008291"
    x2="178.4597149604532"
    y2="-13.868091592008291"
    stroke="hsla(0,50%,50%,0.6)"
    stroke-width="1"
    transform="translate(-138.4597149604,-21.1319084079)"
    />
  
  <line
    x1="168.4597149604532"
    y1="-8.868091592008291"
    x2="173.4597149604532"
    y2="-8.868091592008291"
    stroke="hsla(0,50%,50%,0.6)"
    stroke-width="1"
    transform="translate(-138.4597149604,-21.1319084079)"
    />
  
  <line
    x1="163.4597149604532"
    y1="-3.8680915920082906"
    x2="168.4597149604532"
    y2="-3.8680915920082906"
    stroke="hsla(0,50%,50%,0.6)"
    stroke-width="1"
    transform="translate(-138.4597149604,-21.1319084079)"
    />
  
  <line
    x1="93.45971496045318"
    y1="66.13190840799172"
    x2="93.45971496045318"
    y2="71.13190840799172"
    stroke="hsla(0,50%,50%,0.6)"
    stroke-width="1"
    transform="translate(-138.4597149604,-21.1319084079)"
    />
  
  <line
    x1="98.45971496045318"
    y1="61.13190840799171"
    x2="98.45971496045318"
    y2="66.13190840799172"
    stroke="hsla(0,50%,50%,0.6)"
    stroke-width="1"
    transform="translate(-138.4597149604,-21.1319084079)"
    />
  
  <line
    x1="103.45971496045318"
    y1="56.13190840799171"
    x2="103.45971496045318"
    y2="61.13190840799171"
    stroke="hsla(0,50%,50%,0.6)"
    stroke-width="1"
    transform="translate(-138.4597149604,-21.1319084079)"
    />
  
  <line
    x1="108.45971496045318"
    y1="51.13190840799171"
    x2="108.45971496045318"
    y2="56.13190840799171"
    stroke="hsla(0,50%,50%,0.6)"
    stroke-width="1"
    transform="translate(-138.4597149604,-21.1319084079)"
    />
  
  <line
    x1="113.45971496045318"
    y1="46.13190840799171"
    x2="113.45971496045318"
    y2="51.13190840799171"
    stroke="hsla(0,50%,50%,0.6)"
    stroke-width="1"
    transform="translate(-138.4597149604,-21.1319084079)"
    />
  
  <line
    x1="118.45971496045318"
    y1="41.13190840799171"
    x2="118.45971496045318"
    y2="46.13190840799171"
    stroke="hsla(0,50%,50%,0.6)"
    stroke-width="1"
    transform="translate(-138.4597149604,-21.1319084079)"
    />
  
  <line
    x1="123.45971496045318"
    y1="36.13190840799171"
    x2="123.45971496045318"
    y2="41.13190840799171"
    stroke="hsla(0,50%,50%,0.6)"
    stroke-width="1"
    transform="translate(-138.4597149604,-21.1319084079)"
    />
  
  <line
    x1="128.4597149604532"
    y1="31.13190840799171"
    x2="128.4597149604532"
    y2="36.13190840799171"
    stroke="hsla(0,50%,50%,0.6)"
    stroke-width="1"
    transform="translate(-138.4597149604,-21.1319084079)"
    />
  
  <line
    x1="133.4597149604532"
    y1="26.13190840799171"
    x2="133.4597149604532"
    y2="31.13190840799171"
    stroke="hsla(0,50%,50%,0.6)"
    stroke-width="1"
    transform="translate(-138.4597149604,-21.1319084079)"
    />
  
  <line
    x1="138.4597149604532"
    y1="21.13190840799171"
    x2="138.4597149604532"
    y2="26.13190840799171"
    stroke="hsla(0,50%,50%,0.6)"
    stroke-width="1"
    transform="translate(-138.4597149604,-21.1319084079)"
    />
  
  <line
    x1="143.4597149604532"
    y1="16.13190840799171"
    x2="143.4597149604532"
    y2="21.13190840799171"
    stroke="hsla(0,50%,50%,0.6)"
    stroke-width="1"
    transform="translate(-138.4597149604,-21.1319084079)"
    />
  
  <line
    x1="148.4597149604532"
    y1="11.131908407991709"
    x2="148.4597149604532"
    y2="16.13190840799171"
    stroke="hsla(0,50%,50%,0.6)"
    stroke-width="1"
    transform="translate(-138.4597149604,-21.1319084079)"
    />
  
  <line
    x1="153.4597149604532"
    y1="6.131908407991709"
    x2="153.4597149604532"
    y2="11.131908407991709"
    stroke="hsla(0,50%,50%,0.6)"
    stroke-width="1"
    transform="translate(-138.4597149604,-21.1319084079)"
    />
  
  <line
    x1="158.4597149604532"
    y1="1.1319084079917092"
    x2="158.4597149604532"
    y2="6.131908407991709"
    stroke="hsla(0,50%,50%,0.6)"
    stroke-width="1"
    transform="translate(-138.4597149604,-21.1319084079)"
    />
  
  <line
    x1="163.4597149604532"
    y1="-3.8680915920082906"
    x2="163.4597149604532"
    y2="1.1319084079917092"
    stroke="hsla(0,50%,50%,0.6)"
    stroke-width="1"
    transform="translate(-138.4597149604,-21.1319084079)"
    />
  
  <line
    x1="168.4597149604532"
    y1="-8.868091592008291"
    x2="168.4597149604532"
    y2="-3.8680915920082906"
    stroke="hsla(0,50%,50%,0.6)"
    stroke-width="1"
    transform="translate(-138.4597149604,-21.1319084079)"
    />
  
  <line
    x1="173.4597149604532"
    y1="-13.868091592008291"
    x2="173.4597149604532"
    y2="-8.868091592008291"
    stroke="hsla(0,50%,50%,0.6)"
    stroke-width="1"
    transform="translate(-138.4597149604,-21.1319084079)"
    />
  
  <line
    x1="178.4597149604532"
    y1="-18.86809159200829"
    x2="178.4597149604532"
    y2="-13.868091592008291"
    stroke="hsla(0,50%,50%,0.6)"
    stroke-width="1"
    transform="translate(-138.4597149604,-21.1319084079)"
    />
  
  <line
    x1="183.4597149604532"
    y1="-23.86809159200829"
    x2="183.4597149604532"
    y2="-18.86809159200829"
    stroke="hsla(0,50%,50%,0.6)"
    stroke-width="1"
    transform="translate(-138.4597149604,-21.1319084079)"
    />
  
  <line
    x1="188.4597149604532"
    y1="-28.86809159200829"
    x2="188.4597149604532"
    y2="-23.86809159200829"
    stroke="hsla(0,50%,50%,0.6)"
    stroke-width="1"
    transform="translate(-138.4597149604,-21.1319084079)"
    />
  
  <line
    x1="158.4597149604532"
    y1="1.1319084079917092"
    x2="163.4597149604532"
    y2="1.1319084079917092"
    stroke="hsla(0,50%,50%,0.6)"
    stroke-width="1"
    transform="translate(-138.4597149604,-21.1319084079)"
    />
  
  <line
    x1="153.4597149604532"
    y1="6.131908407991709"
    x2="158.4597149604532"
    y2="6.131908407991709"
    stroke="hsla(0,50%,50%,0.6)"
    stroke-width="1"
    transform="translate(-138.4597149604,-21.1319084079)"
    />
  
  <line
    x1="148.4597149604532"
    y1="11.131908407991709"
    x2="153.4597149604532"
    y2="11.131908407991709"
    stroke="hsla(0,50%,50%,0.6)"
    stroke-width="1"
    transform="translate(-138.4597149604,-21.1319084079)"
    />
  
  <line
    x1="143.4597149604532"
    y1="16.13190840799171"
    x2="148.4597149604532"
    y2="16.13190840799171"
    stroke="hsla(0,50%,50%,0.6)"
    stroke-width="1"
    transform="translate(-138.4597149604,-21.1319084079)"
    />
  
  <line
    x1="138.4597149604532"
    y1="21.13190840799171"
    x2="143.4597149604532"
    y2="21.13190840799171"
    stroke="hsla(0,50%,50%,0.6)"
    stroke-width="1"
    transform="translate(-138.4597149604,-21.1319084079)"
    />
  
  <line
    x1="133.4597149604532"
    y1="26.13190840799171"
    x2="138.4597149604532"
    y2="26.13190840799171"
    stroke="hsla(0,50%,50%,0.6)"
    stroke-width="1"
    transform="translate(-138.4597149604,-21.1319084079)"
    />
  
  <line
    x1="128.4597149604532"
    y1="31.13190840799171"
    x2="133.4597149604532"
    y2="31.13190840799171"
    stroke="hsla(0,50%,50%,0.6)"
    stroke-width="1"
    transform="translate(-138.4597149604,-21.1319084079)"
    />
  
  <line
    x1="123.45971496045318"
    y1="36.13190840799171"
    x2="128.4597149604532"
    y2="36.13190840799171"
    stroke="hsla(0,50%,50%,0.6)"
    stroke-width="1"
    transform="translate(-138.4597149604,-21.1319084079)"
    />
  
  <line
    x1="118.45971496045318"
    y1="41.13190840799171"
    x2="123.45971496045318"
    y2="41.13190840799171"
    stroke="hsla(0,50%,50%,0.6)"
    stroke-width="1"
    transform="translate(-138.4597149604,-21.1319084079)"
    />
  
  <line
    x1="113.45971496045318"
    y1="46.13190840799171"
    x2="118.45971496045318"
    y2="46.13190840799171"
    stroke="hsla(0,50%,50%,0.6)"
    stroke-width="1"
    transform="translate(-138.4597149604,-21.1319084079)"
    />
  
  <line
    x1="108.45971496045318"
    y1="51.13190840799171"
    x2="113.45971496045318"
    y2="51.13190840799171"
    stroke="hsla(0,50%,50%,0.6)"
    stroke-width="1"
    transform="translate(-138.4597149604,-21.1319084079)"
    />
  
  <line
    x1="103.45971496045318"
    y1="56.13190840799171"
    x2="108.45971496045318"
    y2="56.13190840799171"
    stroke="hsla(0,50%,50%,0.6)"
    stroke-width="1"
    transform="translate(-138.4597149604,-21.1319084079)"
    />
  
  <line
    x1="98.45971496045318"
    y1="61.13190840799171"
    x2="103.45971496045318"
    y2="61.13190840799171"
    stroke="hsla(0,50%,50%,0.6)"
    stroke-width="1"
    transform="translate(-138.4597149604,-21.1319084079)"
    />
  
  <line
    x1="93.45971496045318"
    y1="66.13190840799172"
    x2="98.45971496045318"
    y2="66.13190840799172"
    stroke="hsla(0,50%,50%,0.6)"
    stroke-width="1"
    transform="translate(-138.4597149604,-21.1319084079)"
    />
  
  <line
    x1="88.45971496045318"
    y1="71.13190840799172"
    x2="93.45971496045318"
    y2="71.13190840799172"
    stroke="hsla(0,50%,50%,0.6)"
    stroke-width="1"
    transform="translate(-138.4597149604,-21.1319084079)"
    />
  
  <line
    x1="188.4597149604532"
    y1="-28.86809159200829"
    x2="88.45971496045318"
    y2="71.13190840799172"
    stroke="hsla(0,50%,50%,0.6)"
    stroke-width="1"
    transform="translate(-138.4597149604,-21.1319084079)"
    />
  
  <line
    x1="188.4597149604532"
    y1="-23.86809159200829"
    x2="93.45971496045318"
    y2="71.13190840799172"
    stroke="hsla(0,50%,50%,0.6)"
    stroke-width="1"
    transform="translate(-138.4597149604,-21.1319084079)"
    />
  
</svg>
