<?xml version="1.0"?>
<!DOCTYPE svg PUBLIC "-//W3C//DTD SVG 1.1//EN"
  "http://www.w3.org/Graphics/SVG/1.1/DTD/svg11.dtd">
<svg
  width="240"
  height="240"
  viewBox="-50 -50 200 200" xmlns="http://www.w3.org/2000/svg" version="1.1">
  <rect
    x="0"
    y="0"
    width="100"
    height="100"
    fill="hsla(206,100%,53%,0.3)"
    stroke="hsl(206,100%,53%)"
    stroke-width="3"
    transform="" />
  
  <path
    d="M 
      253.3524831822
      -101.7279706507
      L
    
      253.3524831822
      -96.7279706507
      L
    
      158.3524831822
      -1.7279706507
      L
    
      153.3524831822
      -1.7279706507
      z
    "
    fill="hsla(0,0%,50%,0.3)"
    stroke="hsla(0,0%,50%,1)"
    stroke-width="1"
    transform="translate(-179.6024831822,26.1029706507) scale(1,-1) translate(50,-110)"
    />
  
  
  <line
    x1="248.35248318229213"
    y1="-96.72797065070384"
    x2="253.35248318229213"
    y2="-96.72797065070384"
    stroke="hsla(0,50%,50%,0.6)"
    stroke-width="1"
    transform="translate(-179.6024831822,26.1029706507) scale(1,-1) translate(50,-110)"
    />
  
  <line
    x1="243.35248318229213"
    y1="-91.72797065070384"
    x2="248.35248318229213"
    y2="-91.72797065070384"
    stroke="hsla(0,50%,50%,0.6)"
    stroke-width="1"
    transform="translate(-179.6024831822,26.1029706507) scale(1,-1) translate(50,-110)"
    />
  
  <line
    x1="238.35248318229213"
    y1="-86.72797065070384"
    x2="243.35248318229213"
    y2="-86.72797065070384"
    stroke="hsla(0,50%,50%,0.6)"
    stroke-width="1"
    transform="translate(-179.6024831822,26.1029706507) scale(1,-1) translate(50,-110)"
    />
  
  <line
    x1="233.35248318229213"
    y1="-81.72797065070384"
    x2="238.35248318229213"
    y2="-81.72797065070384"
    stroke="hsla(0,50%,50%,0.6)"
    stroke-width="1"
    transform="translate(-179.6024831822,26.1029706507) scale(1,-1) translate(50,-110)"
    />
  
  <line
    x1="228.35248318229213"
    y1="-76.72797065070384"
    x2="233.35248318229213"
    y2="-76.72797065070384"
    stroke="hsla(0,50%,50%,0.6)"
    stroke-width="1"
    transform="translate(-179.6024831822,26.1029706507) scale(1,-1) translate(50,-110)"
    />
  
  <line
    x1="223.35248318229213"
    y1="-71.72797065070384"
    x2="228.35248318229213"
    y2="-71.72797065070384"
    stroke="hsla(0,50%,50%,0.6)"
    stroke-width="1"
    transform="translate(-179.6024831822,26.1029706507) scale(1,-1) translate(50,-110)"
    />
  
  <line
    x1="218.35248318229213"
    y1="-66.72797065070384"
    x2="223.35248318229213"
    y2="-66.72797065070384"
    stroke="hsla(0,50%,50%,0.6)"
    stroke-width="1"
    transform="translate(-179.6024831822,26.1029706507) scale(1,-1) translate(50,-110)"
    />
  
  <line
    x1="213.35248318229213"
    y1="-61.72797065070384"
    x2="218.35248318229213"
    y2="-61.72797065070384"
    stroke="hsla(0,50%,50%,0.6)"
    stroke-width="1"
    transform="translate(-179.6024831822,26.1029706507) scale(1,-1) translate(50,-110)"
    />
  
  <line
    x1="208.35248318229213"
    y1="-56.72797065070384"
    x2="213.35248318229213"
    y2="-56.72797065070384"
    stroke="hsla(0,50%,50%,0.6)"
    stroke-width="1"
    transform="translate(-179.6024831822,26.1029706507) scale(1,-1) translate(50,-110)"
    />
  
  <line
    x1="203.35248318229213"
    y1="-51.72797065070384"
    x2="208.35248318229213"
    y2="-51.72797065070384"
    stroke="hsla(0,50%,50%,0.6)"
    stroke-width="1"
    transform="translate(-179.6024831822,26.1029706507) scale(1,-1) translate(50,-110)"
    />
  
  <line
    x1="198.35248318229213"
    y1="-46.72797065070384"
    x2="203.35248318229213"
    y2="-46.72797065070384"
    stroke="hsla(0,50%,50%,0.6)"
    stroke-width="1"
    transform="translate(-179.6024831822,26.1029706507) scale(1,-1) translate(50,-110)"
    />
  
  <line
    x1="193.35248318229213"
    y1="-41.72797065070384"
    x2="198.35248318229213"
    y2="-41.72797065070384"
    stroke="hsla(0,50%,50%,0.6)"
    stroke-width="1"
    transform="translate(-179.6024831822,26.1029706507) scale(1,-1) translate(50,-110)"
    />
  
  <line
    x1="188.35248318229213"
    y1="-36.72797065070384"
    x2="193.35248318229213"
    y2="-36.72797065070384"
    stroke="hsla(0,50%,50%,0.6)"
    stroke-width="1"
    transform="translate(-179.6024831822,26.1029706507) scale(1,-1) translate(50,-110)"
    />
  
  <line
    x1="183.35248318229213"
    y1="-31.727970650703842"
    x2="188.35248318229213"
    y2="-31.727970650703842"
    stroke="hsla(0,50%,50%,0.6)"
    stroke-width="1"
    transform="translate(-179.6024831822,26.1029706507) scale(1,-1) translate(50,-110)"
    />
  
  <line
    x1="178.35248318229213"
    y1="-26.727970650703842"
    x2="183.35248318229213"
    y2="-26.727970650703842"
    stroke="hsla(0,50%,50%,0.6)"
    stroke-width="1"
    transform="translate(-179.6024831822,26.1029706507) scale(1,-1) translate(50,-110)"
    />
  
  <line
    x1="173.35248318229213"
    y1="-21.727970650703842"
    x2="178.35248318229213"
    y2="-21.727970650703842"
    stroke="hsla(0,50%,50%,0.6)"
    stroke-width="1"
    transform="translate(-179.6024831822,26.1029706507) scale(1,-1) translate(50,-110)"
    />
  
  <line
    x1="168.35248318229213"
    y1="-16.727970650703842"
    x2="173.35248318229213"
    y2="-16.727970650703842"
    stroke="hsla(0,50%,50%,0.6)"
    stroke-width="1"
    transform="translate(-179.6024831822,26.1029706507) scale(1,-1) translate(50,-110)"
    />
  
  <line
    x1="163.35248318229213"
    y1="-11.72797065070384"
    x2="168.35248318229213"
    y2="-11.72797065070384"
    stroke="hsla(0,50%,50%,0.6)"
    stroke-width="1"
    transform="translate(-179.6024831822,26.1029706507) scale(1,-1) translate(50,-110)"
    />
  
  <line
    x1="158.35248318229213"
    y1="-6.727970650703841"
    x2="163.35248318229213"
    y2="-6.727970650703841"
    stroke="hsla(0,50%,50%,0.6)"
    stroke-width="1"
    transform="translate(-179.6024831822,26.1029706507) scale(1,-1) translate(50,-110)"
    />
  
  <line
    x1="153.35248318229213"
    y1="-1.727970650703841"
    x2="158.35248318229213"
    y2="-1.727970650703841"
    stroke="hsla(0,50%,50%,0.6)"
    stroke-width="1"
    transform="translate(-179.6024831822,26.1029706507) scale(1,-1) translate(50,-110)"
    />
  
  <line
    x1="158.35248318229213"
    y1="-6.727970650703841"
    x2="158.35248318229213"
    y2="-1.727970650703841"
    stroke="hsla(0,50%,50%,0.6)"
    stroke-width="1"
    transform="translate(-179.6024831822,26.1029706507) scale(1,-1) translate(50,-110)"
    />
  
  <line
    x1="163.35248318229213"
    y1="-11.72797065070384"
    x2="163.35248318229213"
    y2="-6.727970650703841"
    stroke="hsla(0,50%,50%,0.6)"
    stroke-width="1"
    transform="translate(-179.6024831822,26.1029706507) scale(1,-1) translate(50,-110)"
    />
  
  <line
    x1="168.35248318229213"
    y1="-16.727970650703842"
    x2="168.35248318229213"
    y2="-11.72797065070384"
    stroke="hsla(0,50%,50%,0.6)"
    stroke-width="1"
    transform="translate(-179.6024831822,26.1029706507) scale(1,-1) translate(50,-110)"
    />
  
  <line
    x1="173.35248318229213"
    y1="-21.727970650703842"
    x2="173.35248318229213"
    y2="-16.727970650703842"
    stroke="hsla(0,50%,50%,0.6)"
    stroke-width="1"
    transform="translate(-179.6024831822,26.1029706507) scale(1,-1) translate(50,-110)"
    />
  
  <line
    x1="178.35248318229213"
    y1="-26.727970650703842"
    x2="178.35248318229213"
    y2="-21.727970650703842"
    stroke="hsla(0,50%,50%,0.6)"
    stroke-width="1"
    transform="translate(-179.6024831822,26.1029706507) scale(1,-1) translate(50,-110)"
    />
  
  <line
    x1="183.35248318229213"
    y1="-31.727970650703842"
    x2="183.35248318229213"
    y2="-26.727970650703842"
    stroke="hsla(0,50%,50%,0.6)"
    stroke-width="1"
    transform="translate(-179.6024831822,26.1029706507) scale(1,-1) translate(50,-110)"
    />
  
  <line
    x1="188.35248318229213"
    y1="-36.72797065070384"
    x2="188.35248318229213"
    y2="-31.727970650703842"
    stroke="hsla(0,50%,50%,0.6)"
    stroke-width="1"
    transform="translate(-179.6024831822,26.1029706507) scale(1,-1) translate(50,-110)"
    />
  
  <line
    x1="193.35248318229213"
    y1="-41.72797065070384"
    x2="193.35248318229213"
    y2="-36.72797065070384"
    stroke="hsla(0,50%,50%,0.6)"
    stroke-width="1"
    transform="translate(-179.6024831822,26.1029706507) scale(1,-1) translate(50,-110)"
    />
  
  <line
    x1="198.35248318229213"
    y1="-46.72797065070384"
    x2="198.35248318229213"
    y2="-41.72797065070384"
    stroke="hsla(0,50%,50%,0.6)"
    stroke-width="1"
    transform="translate(-179.6024831822,26.1029706507) scale(1,-1) translate(50,-110)"
    />
  
  <line
    x1="203.35248318229213"
    y1="-51.72797065070384"
    x2="203.35248318229213"
    y2="-46.72797065070384"
    stroke="hsla(0,50%,50%,0.6)"
    stroke-width="1"
    transform="translate(-179.6024831822,26.1029706507) scale(1,-1) translate(50,-110)"
    />
  
  <line
    x1="208.35248318229213"
    y1="-56.72797065070384"
    x2="208.35248318229213"
    y2="-51.72797065070384"
    stroke="hsla(0,50%,50%,0.6)"
    stroke-width="1"
    transform="translate(-179.6024831822,26.1029706507) scale(1,-1) translate(50,-110)"
    />
  
  <line
    x1="213.35248318229213"
    y1="-61.72797065070384"
    x2="213.35248318229213"
    y2="-56.72797065070384"
    stroke="hsla(0,50%,50%,0.6)"
    stroke-width="1"
    transform="translate(-179.6024831822,26.1029706507) scale(1,-1) translate(50,-110)"
    />
  
  <line
    x1="218.35248318229213"
    y1="-66.72797065070384"
    x2="218.35248318229213"
    y2="-61.72797065070384"
    stroke="hsla(0,50%,50%,0.6)"
    stroke-width="1"
    transform="translate(-179.6024831822,26.1029706507) scale(1,-1) translate(50,-110)"
    />
  
  <line
    x1="223.35248318229213"
    y1="-71.72797065070384"
    x2="223.35248318229213"
    y2="-66.72797065070384"
    stroke="hsla(0,50%,50%,0.6)"
    stroke-width="1"
    transform="translate(-179.6024831822,26.1029706507) scale(1,-1) translate(50,-110)"
    />
  
  <line
    x1="228.35248318229213"
    y1="-76.72797065070384"
    x2="228.35248318229213"
    y2="-71.72797065070384"
    stroke="hsla(0,50%,50%,0.6)"
    stroke-width="1"
    transform="translate(-179.6024831822,26.1029706507) scale(1,-1) translate(50,-110)"
    />
  
  <line
    x1="233.35248318229213"
    y1="-81.72797065070384"
    x2="233.35248318229213"
    y2="-76.72797065070384"
    stroke="hsla(0,50%,50%,0.6)"
    stroke-width="1"
    transform="translate(-179.6024831822,26.1029706507) scale(1,-1) translate(50,-110)"
    />
  
  <line
    x1="238.35248318229213"
    y1="-86.72797065070384"
    x2="238.35248318229213"
    y2="-81.72797065070384"
    stroke="hsla(0,50%,50%,0.6)"
    stroke-width="1"
    transform="translate(-179.6024831822,26.1029706507) scale(1,-1) translate(50,-110)"
    />
  
  <line
    x1="243.35248318229213"
    y1="-91.72797065070384"
    x2="243.35248318229213"
    y2="-86.72797065070384"
    stroke="hsla(0,50%,50%,0.6)"
    stroke-width="1"
    transform="translate(-179.6024831822,26.1029706507) scale(1,-1) translate(50,-110)"
    />
  
  <line
    x1="248.35248318229213"
    y1="-96.72797065070384"
    x2="248.35248318229213"
    y2="-91.72797065070384"
    stroke="hsla(0,50%,50%,0.6)"
    stroke-width="1"
    transform="translate(-179.6024831822,26.1029706507) scale(1,-1) translate(50,-110)"
    />
  
  <line
    x1="253.35248318229213"
    y1="-101.72797065070384"
    x2="253.35248318229213"
    y2="-96.72797065070384"
    stroke="hsla(0,50%,50%,0.6)"
    stroke-width="1"
    transform="translate(-179.6024831822,26.1029706507) scale(1,-1) translate(50,-110)"
    />
  
  <line
    x1="253.35248318229213"
    y1="-101.72797065070384"
    x2="153.35248318229213"
    y2="-1.727970650703841"
    stroke="hsla(0,50%,50%,0.6)"
    stroke-width="1"
    transform="translate(-179.6024831822,26.1029706507) scale(1,-1) translate(50,-110)"
    />
  
  <line
    x1="253.35248318229213"
    y1="-96.72797065070384"
    x2="158.35248318229213"
    y2="-1.727970650703841"
    stroke="hsla(0,50%,50%,0.6)"
    stroke-width="1"
    transform="translate(-179.6024831822,26.1029706507) scale(1,-1) translate(50,-110)"
    />
  
</svg>
