<?xml version="1.0"?>
<!DOCTYPE svg PUBLIC "-//W3C//DTD SVG 1.1//EN"
  "http://www.w3.org/Graphics/SVG/1.1/DTD/svg11.dtd">
<svg
  width="240"
  height="240"
  viewBox="-500 -500 1000 1000" xmlns="http://www.w3.org/2000/svg" version="1.1">
  <rect
    x="0"
    y="0"
    width="100"
    height="100"
    fill="hsla(206,100%,53%,0.3)"
    stroke="hsl(206,100%,53%)"
    stroke-width="3"
    transform="" />
  
  <path
    d="M 
      188.0899877149
      -13.4958733229
      L
    
      188.0899877149
      -8.4958733229
      L
    
      93.0899877149
      86.5041266770
      L
    
      88.0899877149
      86.5041266770
      z
    "
    fill="hsla(0,0%,50%,0.3)"
    stroke="hsla(0,0%,50%,1)"
    stroke-width="1"
    transform="translate(-138.0899877149,-36.5041266770)"
    />
  
  
  <line
    x1="183.08998771498256"
    y1="-8.495873322900191"
    x2="188.08998771498256"
    y2="-8.495873322900191"
    stroke="hsla(0,50%,50%,0.6)"
    stroke-width="1"
    transform="translate(-138.0899877149,-36.5041266770)"
    />
  
  <line
    x1="178.08998771498256"
    y1="-3.495873322900191"
    x2="183.08998771498256"
    y2="-3.495873322900191"
    stroke="hsla(0,50%,50%,0.6)"
    stroke-width="1"
    transform="translate(-138.0899877149,-36.5041266770)"
    />
  
  <line
    x1="93.08998771498257"
    y1="81.5041266770998"
    x2="93.08998771498257"
    y2="86.5041266770998"
    stroke="hsla(0,50%,50%,0.6)"
    stroke-width="1"
    transform="translate(-138.0899877149,-36.5041266770)"
    />
  
  <line
    x1="98.08998771498257"
    y1="76.5041266770998"
    x2="98.08998771498257"
    y2="81.5041266770998"
    stroke="hsla(0,50%,50%,0.6)"
    stroke-width="1"
    transform="translate(-138.0899877149,-36.5041266770)"
    />
  
  <line
    x1="103.08998771498257"
    y1="71.5041266770998"
    x2="103.08998771498257"
    y2="76.5041266770998"
    stroke="hsla(0,50%,50%,0.6)"
    stroke-width="1"
    transform="translate(-138.0899877149,-36.5041266770)"
    />
  
  <line
    x1="108.08998771498257"
    y1="66.5041266770998"
    x2="108.08998771498257"
    y2="71.5041266770998"
    stroke="hsla(0,50%,50%,0.6)"
    stroke-width="1"
    transform="translate(-138.0899877149,-36.5041266770)"
    />
  
  <line
    x1="113.08998771498257"
    y1="61.50412667709981"
    x2="113.08998771498257"
    y2="66.5041266770998"
    stroke="hsla(0,50%,50%,0.6)"
    stroke-width="1"
    transform="translate(-138.0899877149,-36.5041266770)"
    />
  
  <line
    x1="118.08998771498257"
    y1="56.50412667709981"
    x2="118.08998771498257"
    y2="61.50412667709981"
    stroke="hsla(0,50%,50%,0.6)"
    stroke-width="1"
    transform="translate(-138.0899877149,-36.5041266770)"
    />
  
  <line
    x1="123.08998771498257"
    y1="51.50412667709981"
    x2="123.08998771498257"
    y2="56.50412667709981"
    stroke="hsla(0,50%,50%,0.6)"
    stroke-width="1"
    transform="translate(-138.0899877149,-36.5041266770)"
    />
  
  <line
    x1="128.08998771498256"
    y1="46.50412667709981"
    x2="128.08998771498256"
    y2="51.50412667709981"
    stroke="hsla(0,50%,50%,0.6)"
    stroke-width="1"
    transform="translate(-138.0899877149,-36.5041266770)"
    />
  
  <line
    x1="133.08998771498256"
    y1="41.50412667709981"
    x2="133.08998771498256"
    y2="46.50412667709981"
    stroke="hsla(0,50%,50%,0.6)"
    stroke-width="1"
    transform="translate(-138.0899877149,-36.5041266770)"
    />
  
  <line
    x1="138.08998771498256"
    y1="36.50412667709981"
    x2="138.08998771498256"
    y2="41.50412667709981"
    stroke="hsla(0,50%,50%,0.6)"
    stroke-width="1"
    transform="translate(-138.0899877149,-36.5041266770)"
    />
  
  <line
    x1="143.08998771498256"
    y1="31.50412667709981"
    x2="143.08998771498256"
    y2="36.50412667709981"
    stroke="hsla(0,50%,50%,0.6)"
    stroke-width="1"
    transform="translate(-138.0899877149,-36.5041266770)"
    />
  
  <line
    x1="148.08998771498256"
    y1="26.50412667709981"
    x2="148.08998771498256"
    y2="31.50412667709981"
    stroke="hsla(0,50%,50%,0.6)"
    stroke-width="1"
    transform="translate(-138.0899877149,-36.5041266770)"
    />
  
  <line
    x1="153.08998771498256"
    y1="21.50412667709981"
    x2="153.08998771498256"
    y2="26.50412667709981"
    stroke="hsla(0,50%,50%,0.6)"
    stroke-width="1"
    transform="translate(-138.0899877149,-36.5041266770)"
    />
  
  <line
    x1="158.08998771498256"
    y1="16.50412667709981"
    x2="158.08998771498256"
    y2="21.50412667709981"
    stroke="hsla(0,50%,50%,0.6)"
    stroke-width="1"
    transform="translate(-138.0899877149,-36.5041266770)"
    />
  
  <line
    x1="163.08998771498256"
    y1="11.504126677099809"
    x2="163.08998771498256"
    y2="16.50412667709981"
    stroke="hsla(0,50%,50%,0.6)"
    stroke-width="1"
    transform="translate(-138.0899877149,-36.5041266770)"
    />
  
  <line
    x1="168.08998771498256"
    y1="6.5041266770998085"
    x2="168.08998771498256"
    y2="11.504126677099809"
    stroke="hsla(0,50%,50%,0.6)"
    stroke-width="1"
    transform="translate(-138.0899877149,-36.5041266770)"
    />
  
  <line
    x1="173.08998771498256"
    y1="1.5041266770998087"
    x2="173.08998771498256"
    y2="6.5041266770998085"
    stroke="hsla(0,50%,50%,0.6)"
    stroke-width="1"
    transform="translate(-138.0899877149,-36.5041266770)"
    />
  
  <line
    x1="178.08998771498256"
    y1="-3.495873322900191"
    x2="178.08998771498256"
    y2="1.5041266770998087"
    stroke="hsla(0,50%,50%,0.6)"
    stroke-width="1"
    transform="translate(-138.0899877149,-36.5041266770)"
    />
  
  <line
    x1="183.08998771498256"
    y1="-8.495873322900191"
    x2="183.08998771498256"
    y2="-3.495873322900191"
    stroke="hsla(0,50%,50%,0.6)"
    stroke-width="1"
    transform="translate(-138.0899877149,-36.5041266770)"
    />
  
  <line
    x1="188.08998771498256"
    y1="-13.495873322900191"
    x2="188.08998771498256"
    y2="-8.495873322900191"
    stroke="hsla(0,50%,50%,0.6)"
    stroke-width="1"
    transform="translate(-138.0899877149,-36.5041266770)"
    />
  
  <line
    x1="173.08998771498256"
    y1="1.5041266770998087"
    x2="178.08998771498256"
    y2="1.5041266770998087"
    stroke="hsla(0,50%,50%,0.6)"
    stroke-width="1"
    transform="translate(-138.0899877149,-36.5041266770)"
    />
  
  <line
    x1="168.08998771498256"
    y1="6.5041266770998085"
    x2="173.08998771498256"
    y2="6.5041266770998085"
    stroke="hsla(0,50%,50%,0.6)"
    stroke-width="1"
    transform="translate(-138.0899877149,-36.5041266770)"
    />
  
  <line
    x1="163.08998771498256"
    y1="11.504126677099809"
    x2="168.08998771498256"
    y2="11.504126677099809"
    stroke="hsla(0,50%,50%,0.6)"
    stroke-width="1"
    transform="translate(-138.0899877149,-36.5041266770)"
    />
  
  <line
    x1="158.08998771498256"
    y1="16.50412667709981"
    x2="163.08998771498256"
    y2="16.50412667709981"
    stroke="hsla(0,50%,50%,0.6)"
    stroke-width="1"
    transform="translate(-138.0899877149,-36.5041266770)"
    />
  
  <line
    x1="153.08998771498256"
    y1="21.50412667709981"
    x2="158.08998771498256"
    y2="21.50412667709981"
    stroke="hsla(0,50%,50%,0.6)"
    stroke-width="1"
    transform="translate(-138.0899877149,-36.5041266770)"
    />
  
  <line
    x1="148.08998771498256"
    y1="26.50412667709981"
    x2="153.08998771498256"
    y2="26.50412667709981"
    stroke="hsla(0,50%,50%,0.6)"
    stroke-width="1"
    transform="translate(-138.0899877149,-36.5041266770)"
    />
  
  <line
    x1="143.08998771498256"
    y1="31.50412667709981"
    x2="148.08998771498256"
    y2="31.50412667709981"
    stroke="hsla(0,50%,50%,0.6)"
    stroke-width="1"
    transform="translate(-138.0899877149,-36.5041266770)"
    />
  
  <line
    x1="138.08998771498256"
    y1="36.50412667709981"
    x2="143.08998771498256"
    y2="36.50412667709981"
    stroke="hsla(0,50%,50%,0.6)"
    stroke-width="1"
    transform="translate(-138.0899877149,-36.5041266770)"
    />
  
  <line
    x1="133.08998771498256"
    y1="41.50412667709981"
    x2="138.08998771498256"
    y2="41.50412667709981"
    stroke="hsla(0,50%,50%,0.6)"
    stroke-width="1"
    transform="translate(-138.0899877149,-36.5041266770)"
    />
  
  <line
    x1="128.08998771498256"
    y1="46.50412667709981"
    x2="133.08998771498256"
    y2="46.50412667709981"
    stroke="hsla(0,50%,50%,0.6)"
    stroke-width="1"
    transform="translate(-138.0899877149,-36.5041266770)"
    />
  
  <line
    x1="123.08998771498257"
    y1="51.50412667709981"
    x2="128.08998771498256"
    y2="51.50412667709981"
    stroke="hsla(0,50%,50%,0.6)"
    stroke-width="1"
    transform="translate(-138.0899877149,-36.5041266770)"
    />
  
  <line
    x1="118.08998771498257"
    y1="56.50412667709981"
    x2="123.08998771498257"
    y2="56.50412667709981"
    stroke="hsla(0,50%,50%,0.6)"
    stroke-width="1"
    transform="translate(-138.0899877149,-36.5041266770)"
    />
  
  <line
    x1="113.08998771498257"
    y1="61.50412667709981"
    x2="118.08998771498257"
    y2="61.50412667709981"
    stroke="hsla(0,50%,50%,0.6)"
    stroke-width="1"
    transform="translate(-138.0899877149,-36.5041266770)"
    />
  
  <line
    x1="108.08998771498257"
    y1="66.5041266770998"
    x2="113.08998771498257"
    y2="66.5041266770998"
    stroke="hsla(0,50%,50%,0.6)"
    stroke-width="1"
    transform="translate(-138.0899877149,-36.5041266770)"
    />
  
  <line
    x1="103.08998771498257"
    y1="71.5041266770998"
    x2="108.08998771498257"
    y2="71.5041266770998"
    stroke="hsla(0,50%,50%,0.6)"
    stroke-width="1"
    transform="translate(-138.0899877149,-36.5041266770)"
    />
  
  <line
    x1="98.08998771498257"
    y1="76.5041266770998"
    x2="103.08998771498257"
    y2="76.5041266770998"
    stroke="hsla(0,50%,50%,0.6)"
    stroke-width="1"
    transform="translate(-138.0899877149,-36.5041266770)"
    />
  
  <line
    x1="93.08998771498257"
    y1="81.5041266770998"
    x2="98.08998771498257"
    y2="81.5041266770998"
    stroke="hsla(0,50%,50%,0.6)"
    stroke-width="1"
    transform="translate(-138.0899877149,-36.5041266770)"
    />
  
  <line
    x1="88.08998771498257"
    y1="86.5041266770998"
    x2="93.08998771498257"
    y2="86.5041266770998"
    stroke="hsla(0,50%,50%,0.6)"
    stroke-width="1"
    transform="translate(-138.0899877149,-36.5041266770)"
    />
  
  <line
    x1="188.08998771498256"
    y1="-13.495873322900191"
    x2="88.08998771498257"
    y2="86.5041266770998"
    stroke="hsla(0,50%,50%,0.6)"
    stroke-width="1"
    transform="translate(-138.0899877149,-36.5041266770)"
    />
  
  <line
    x1="188.08998771498256"
    y1="-8.495873322900191"
    x2="93.08998771498257"
    y2="86.5041266770998"
    stroke="hsla(0,50%,50%,0.6)"
    stroke-width="1"
    transform="translate(-138.0899877149,-36.5041266770)"
    />
  
</svg>
