<?xml version="1.0"?>
<!DOCTYPE svg PUBLIC "-//W3C//DTD SVG 1.1//EN"
  "http://www.w3.org/Graphics/SVG/1.1/DTD/svg11.dtd">
<svg
  width="240"
  height="240"
  viewBox="-500 -500 1000 1000" xmlns="http://www.w3.org/2000/svg" version="1.1">
  <rect
    x="0"
    y="0"
    width="100"
    height="100"
    fill="hsla(206,100%,53%,0.3)"
    stroke="hsl(206,100%,53%)"
    stroke-width="3"
    transform="" />
  
  <path
    d="M 
      104.8913043478
      86.9565217391
      L
    
      107.0276657861
      91.3388016126
      L
    
      110.1910828025
      91.0828025477
      L
    
      110.5731698965
      91.7482709032
      L
    
      127.3764258555
      90.4942965779
      L
    
      134.9014877362
      98.6373587097
      L
    
      139.4366197183
      98.5915492957
      L
    
      141.4201183431
      100.5917159763
      L
    
      140
      102
      L
    
      134.3866054006
      101.9198086485
      L
    
      130
      106.6666666666
      L
    
      103.3963886500
      105.3023789051
      L
    
      102.6666666666
      107.5555555555
      L
    
      0
      100
      z
    "
    fill="hsla(0,0%,50%,0.3)"
    stroke="hsla(0,0%,50%,1)"
    stroke-width="1"
    transform="translate(-70.7100591715,-97.2560386473)"
    />
  
  
  <line
    x1="110.19108280254777"
    y1="91.0828025477707"
    x2="117.87709497206704"
    y2="104.46927374301676"
    stroke="hsla(0,50%,50%,0.6)"
    stroke-width="1"
    transform="translate(-70.7100591715,-97.2560386473)"
    />
  
  <line
    x1="116.49484536082474"
    y1="97.9381443298969"
    x2="118.34862385321101"
    y2="100.91743119266054"
    stroke="hsla(0,50%,50%,0.6)"
    stroke-width="1"
    transform="translate(-70.7100591715,-97.2560386473)"
    />
  
  <line
    x1="104.8913043478261"
    y1="86.95652173913044"
    x2="113.11475409836065"
    y2="103.82513661202186"
    stroke="hsla(0,50%,50%,0.6)"
    stroke-width="1"
    transform="translate(-70.7100591715,-97.2560386473)"
    />
  
  <line
    x1="121.73913043478261"
    y1="95.65217391304348"
    x2="130"
    y2="106.66666666666667"
    stroke="hsla(0,50%,50%,0.6)"
    stroke-width="1"
    transform="translate(-70.7100591715,-97.2560386473)"
    />
  
  <line
    x1="105.4054054054054"
    y1="99.09909909909909"
    x2="106.25"
    y2="101.5625"
    stroke="hsla(0,50%,50%,0.6)"
    stroke-width="1"
    transform="translate(-70.7100591715,-97.2560386473)"
    />
  
  <line
    x1="127.3764258555133"
    y1="90.49429657794677"
    x2="137.11340206185568"
    y2="101.03092783505154"
    stroke="hsla(0,50%,50%,0.6)"
    stroke-width="1"
    transform="translate(-70.7100591715,-97.2560386473)"
    />
  
  <line
    x1="137.11340206185568"
    y1="98.96907216494846"
    x2="140"
    y2="102"
    stroke="hsla(0,50%,50%,0.6)"
    stroke-width="1"
    transform="translate(-70.7100591715,-97.2560386473)"
    />
  
  <line
    x1="139.43661971830986"
    y1="98.59154929577464"
    x2="141.42011834319527"
    y2="100.59171597633136"
    stroke="hsla(0,50%,50%,0.6)"
    stroke-width="1"
    transform="translate(-70.7100591715,-97.2560386473)"
    />
  
  <line
    x1="101.40845070422536"
    y1="98.59154929577464"
    x2="101.89873417721519"
    y2="101.26582278481013"
    stroke="hsla(0,50%,50%,0.6)"
    stroke-width="1"
    transform="translate(-70.7100591715,-97.2560386473)"
    />
  
  <line
    x1="100"
    y1="91.66666666666667"
    x2="102.66666666666667"
    y2="107.55555555555556"
    stroke="hsla(0,50%,50%,0.6)"
    stroke-width="1"
    transform="translate(-70.7100591715,-97.2560386473)"
    />
  
  <line
    x1="100"
    y1="96"
    x2="100.61728395061728"
    y2="103.70370370370371"
    stroke="hsla(0,50%,50%,0.6)"
    stroke-width="1"
    transform="translate(-70.7100591715,-97.2560386473)"
    />
  
  <line
    x1="100"
    y1="91.66666666666667"
    x2="100"
    y2="100"
    stroke="hsla(0,50%,50%,0.6)"
    stroke-width="1"
    transform="translate(-70.7100591715,-97.2560386473)"
    />
  
  <line
    x1="101.40845070422536"
    y1="98.59154929577464"
    x2="100.61728395061728"
    y2="103.70370370370371"
    stroke="hsla(0,50%,50%,0.6)"
    stroke-width="1"
    transform="translate(-70.7100591715,-97.2560386473)"
    />
  
  <line
    x1="104.8913043478261"
    y1="86.95652173913044"
    x2="101.89873417721519"
    y2="101.26582278481013"
    stroke="hsla(0,50%,50%,0.6)"
    stroke-width="1"
    transform="translate(-70.7100591715,-97.2560386473)"
    />
  
  <line
    x1="105.4054054054054"
    y1="99.09909909909909"
    x2="102.66666666666667"
    y2="107.55555555555556"
    stroke="hsla(0,50%,50%,0.6)"
    stroke-width="1"
    transform="translate(-70.7100591715,-97.2560386473)"
    />
  
  <line
    x1="110.19108280254777"
    y1="91.0828025477707"
    x2="106.25"
    y2="101.5625"
    stroke="hsla(0,50%,50%,0.6)"
    stroke-width="1"
    transform="translate(-70.7100591715,-97.2560386473)"
    />
  
  <line
    x1="116.49484536082474"
    y1="97.9381443298969"
    x2="113.11475409836065"
    y2="103.82513661202186"
    stroke="hsla(0,50%,50%,0.6)"
    stroke-width="1"
    transform="translate(-70.7100591715,-97.2560386473)"
    />
  
  <line
    x1="121.73913043478261"
    y1="95.65217391304348"
    x2="118.34862385321101"
    y2="100.91743119266054"
    stroke="hsla(0,50%,50%,0.6)"
    stroke-width="1"
    transform="translate(-70.7100591715,-97.2560386473)"
    />
  
  <line
    x1="127.3764258555133"
    y1="90.49429657794677"
    x2="117.87709497206704"
    y2="104.46927374301676"
    stroke="hsla(0,50%,50%,0.6)"
    stroke-width="1"
    transform="translate(-70.7100591715,-97.2560386473)"
    />
  
  <line
    x1="104.8913043478261"
    y1="86.95652173913044"
    x2="0"
    y2="100"
    stroke="hsla(0,50%,50%,0.6)"
    stroke-width="1"
    transform="translate(-70.7100591715,-97.2560386473)"
    />
  
  <line
    x1="100"
    y1="91.66666666666667"
    x2="0"
    y2="100"
    stroke="hsla(0,50%,50%,0.6)"
    stroke-width="1"
    transform="translate(-70.7100591715,-97.2560386473)"
    />
  
  <line
    x1="110.19108280254777"
    y1="91.0828025477707"
    x2="0"
    y2="100"
    stroke="hsla(0,50%,50%,0.6)"
    stroke-width="1"
    transform="translate(-70.7100591715,-97.2560386473)"
    />
  
  <line
    x1="127.3764258555133"
    y1="90.49429657794677"
    x2="0"
    y2="100"
    stroke="hsla(0,50%,50%,0.6)"
    stroke-width="1"
    transform="translate(-70.7100591715,-97.2560386473)"
    />
  
  <line
    x1="0"
    y1="100"
    x2="102.66666666666667"
    y2="107.55555555555556"
    stroke="hsla(0,50%,50%,0.6)"
    stroke-width="1"
    transform="translate(-70.7100591715,-97.2560386473)"
    />
  
  <line
    x1="0"
    y1="100"
    x2="130"
    y2="106.66666666666667"
    stroke="hsla(0,50%,50%,0.6)"
    stroke-width="1"
    transform="translate(-70.7100591715,-97.2560386473)"
    />
  
  <line
    x1="100"
    y1="96"
    x2="0"
    y2="100"
    stroke="hsla(0,50%,50%,0.6)"
    stroke-width="1"
    transform="translate(-70.7100591715,-97.2560386473)"
    />
  
  <line
    x1="0"
    y1="100"
    x2="117.87709497206704"
    y2="104.46927374301676"
    stroke="hsla(0,50%,50%,0.6)"
    stroke-width="1"
    transform="translate(-70.7100591715,-97.2560386473)"
    />
  
  <line
    x1="0"
    y1="100"
    x2="100.61728395061728"
    y2="103.70370370370371"
    stroke="hsla(0,50%,50%,0.6)"
    stroke-width="1"
    transform="translate(-70.7100591715,-97.2560386473)"
    />
  
  <line
    x1="121.73913043478261"
    y1="95.65217391304348"
    x2="0"
    y2="100"
    stroke="hsla(0,50%,50%,0.6)"
    stroke-width="1"
    transform="translate(-70.7100591715,-97.2560386473)"
    />
  
  <line
    x1="0"
    y1="100"
    x2="113.11475409836065"
    y2="103.82513661202186"
    stroke="hsla(0,50%,50%,0.6)"
    stroke-width="1"
    transform="translate(-70.7100591715,-97.2560386473)"
    />
  
  <line
    x1="116.49484536082474"
    y1="97.9381443298969"
    x2="0"
    y2="100"
    stroke="hsla(0,50%,50%,0.6)"
    stroke-width="1"
    transform="translate(-70.7100591715,-97.2560386473)"
    />
  
  <line
    x1="0"
    y1="100"
    x2="106.25"
    y2="101.5625"
    stroke="hsla(0,50%,50%,0.6)"
    stroke-width="1"
    transform="translate(-70.7100591715,-97.2560386473)"
    />
  
  <line
    x1="0"
    y1="100"
    x2="140"
    y2="102"
    stroke="hsla(0,50%,50%,0.6)"
    stroke-width="1"
    transform="translate(-70.7100591715,-97.2560386473)"
    />
  
  <line
    x1="101.40845070422536"
    y1="98.59154929577464"
    x2="0"
    y2="100"
    stroke="hsla(0,50%,50%,0.6)"
    stroke-width="1"
    transform="translate(-70.7100591715,-97.2560386473)"
    />
  
  <line
    x1="0"
    y1="100"
    x2="101.89873417721519"
    y2="101.26582278481013"
    stroke="hsla(0,50%,50%,0.6)"
    stroke-width="1"
    transform="translate(-70.7100591715,-97.2560386473)"
    />
  
  <line
    x1="139.43661971830986"
    y1="98.59154929577464"
    x2="0"
    y2="100"
    stroke="hsla(0,50%,50%,0.6)"
    stroke-width="1"
    transform="translate(-70.7100591715,-97.2560386473)"
    />
  
  <line
    x1="105.4054054054054"
    y1="99.09909909909909"
    x2="0"
    y2="100"
    stroke="hsla(0,50%,50%,0.6)"
    stroke-width="1"
    transform="translate(-70.7100591715,-97.2560386473)"
    />
  
  <line
    x1="0"
    y1="100"
    x2="118.34862385321101"
    y2="100.91743119266054"
    stroke="hsla(0,50%,50%,0.6)"
    stroke-width="1"
    transform="translate(-70.7100591715,-97.2560386473)"
    />
  
  <line
    x1="0"
    y1="100"
    x2="137.11340206185568"
    y2="101.03092783505154"
    stroke="hsla(0,50%,50%,0.6)"
    stroke-width="1"
    transform="translate(-70.7100591715,-97.2560386473)"
    />
  
  <line
    x1="137.11340206185568"
    y1="98.96907216494846"
    x2="0"
    y2="100"
    stroke="hsla(0,50%,50%,0.6)"
    stroke-width="1"
    transform="translate(-70.7100591715,-97.2560386473)"
    />
  
  <line
    x1="0"
    y1="100"
    x2="100"
    y2="100"
    stroke="hsla(0,50%,50%,0.6)"
    stroke-width="1"
    transform="translate(-70.7100591715,-97.2560386473)"
    />
  
  <line
    x1="137.11340206185568"
    y1="98.96907216494846"
    x2="130"
    y2="106.66666666666667"
    stroke="hsla(0,50%,50%,0.6)"
    stroke-width="1"
    transform="translate(-70.7100591715,-97.2560386473)"
    />
  
  <line
    x1="139.43661971830986"
    y1="98.59154929577464"
    x2="137.11340206185568"
    y2="101.03092783505154"
    stroke="hsla(0,50%,50%,0.6)"
    stroke-width="1"
    transform="translate(-70.7100591715,-97.2560386473)"
    />
  
  <line
    x1="141.42011834319527"
    y1="100.59171597633136"
    x2="140"
    y2="102"
    stroke="hsla(0,50%,50%,0.6)"
    stroke-width="1"
    transform="translate(-70.7100591715,-97.2560386473)"
    />
  
</svg>
