<?xml version="1.0"?>
<!DOCTYPE svg PUBLIC "-//W3C//DTD SVG 1.1//EN"
  "http://www.w3.org/Graphics/SVG/1.1/DTD/svg11.dtd">
<svg
  width="240"
  height="240"
  viewBox="-500 -500 1000 1000" xmlns="http://www.w3.org/2000/svg" version="1.1">
  <rect
    x="0"
    y="0"
    width="100"
    height="100"
    fill="hsla(206,100%,53%,0.3)"
    stroke="hsl(206,100%,53%)"
    stroke-width="3"
    transform="" />
  
  <path
    d="M 
      100
      86.9565217391
      L
    
      101.3751518973
      92.1382535263
      L
    
      113.9534883720
      91.1627906976
      L
    
      115.9341761990
      94.1668339019
      L
    
      125.1968503937
      93.7007874015
      L
    
      128.9397386145
      98.1667335742
      L
    
      134.3949044585
      98.0891719745
      L
    
      141.3114754098
      105.5737704918
      L
    
      137.8378378378
      108.7837837837
      L
    
      125.7345491388
      108.0124957784
      L
    
      125.3521126760
      108.4507042253
      L
    
      0
      100
      z
    "
    fill="hsla(0,0%,50%,0.3)"
    stroke="hsla(0,0%,50%,1)"
    stroke-width="1"
    transform="translate(-70.6557377049,-97.8701527614)"
    />
  
  
  <line
    x1="117.3913043478261"
    y1="99.37888198757764"
    x2="118.34862385321101"
    y2="100.91743119266054"
    stroke="hsla(0,50%,50%,0.6)"
    stroke-width="1"
    transform="translate(-70.6557377049,-97.8701527614)"
    />
  
  <line
    x1="112.24489795918367"
    y1="97.95918367346938"
    x2="115.05376344086021"
    y2="103.2258064516129"
    stroke="hsla(0,50%,50%,0.6)"
    stroke-width="1"
    transform="translate(-70.6557377049,-97.8701527614)"
    />
  
  <line
    x1="113.95348837209302"
    y1="91.16279069767442"
    x2="125.35211267605634"
    y2="108.45070422535211"
    stroke="hsla(0,50%,50%,0.6)"
    stroke-width="1"
    transform="translate(-70.6557377049,-97.8701527614)"
    />
  
  <line
    x1="105.88235294117646"
    y1="94.11764705882354"
    x2="109.0909090909091"
    y2="101.81818181818181"
    stroke="hsla(0,50%,50%,0.6)"
    stroke-width="1"
    transform="translate(-70.6557377049,-97.8701527614)"
    />
  
  <line
    x1="105.01392757660167"
    y1="94.15041782729806"
    x2="109.04522613065326"
    y2="104.52261306532664"
    stroke="hsla(0,50%,50%,0.6)"
    stroke-width="1"
    transform="translate(-70.6557377049,-97.8701527614)"
    />
  
  <line
    x1="125.19685039370079"
    y1="93.7007874015748"
    x2="137.83783783783784"
    y2="108.78378378378379"
    stroke="hsla(0,50%,50%,0.6)"
    stroke-width="1"
    transform="translate(-70.6557377049,-97.8701527614)"
    />
  
  <line
    x1="134.39490445859872"
    y1="98.08917197452229"
    x2="141.31147540983608"
    y2="105.57377049180327"
    stroke="hsla(0,50%,50%,0.6)"
    stroke-width="1"
    transform="translate(-70.6557377049,-97.8701527614)"
    />
  
  <line
    x1="100"
    y1="86.95652173913044"
    x2="103.79746835443038"
    y2="101.26582278481013"
    stroke="hsla(0,50%,50%,0.6)"
    stroke-width="1"
    transform="translate(-70.6557377049,-97.8701527614)"
    />
  
  <line
    x1="101.48883374689827"
    y1="96.7741935483871"
    x2="102.73556231003039"
    y2="102.73556231003039"
    stroke="hsla(0,50%,50%,0.6)"
    stroke-width="1"
    transform="translate(-70.6557377049,-97.8701527614)"
    />
  
  <line
    x1="100"
    y1="93.75"
    x2="100.89686098654708"
    y2="100.89686098654708"
    stroke="hsla(0,50%,50%,0.6)"
    stroke-width="1"
    transform="translate(-70.6557377049,-97.8701527614)"
    />
  
  <line
    x1="100"
    y1="86.95652173913044"
    x2="100"
    y2="100"
    stroke="hsla(0,50%,50%,0.6)"
    stroke-width="1"
    transform="translate(-70.6557377049,-97.8701527614)"
    />
  
  <line
    x1="101.48883374689827"
    y1="96.7741935483871"
    x2="100.89686098654708"
    y2="100.89686098654708"
    stroke="hsla(0,50%,50%,0.6)"
    stroke-width="1"
    transform="translate(-70.6557377049,-97.8701527614)"
    />
  
  <line
    x1="105.01392757660167"
    y1="94.15041782729806"
    x2="102.73556231003039"
    y2="102.73556231003039"
    stroke="hsla(0,50%,50%,0.6)"
    stroke-width="1"
    transform="translate(-70.6557377049,-97.8701527614)"
    />
  
  <line
    x1="105.88235294117646"
    y1="94.11764705882354"
    x2="103.79746835443038"
    y2="101.26582278481013"
    stroke="hsla(0,50%,50%,0.6)"
    stroke-width="1"
    transform="translate(-70.6557377049,-97.8701527614)"
    />
  
  <line
    x1="113.95348837209302"
    y1="91.16279069767442"
    x2="109.0909090909091"
    y2="101.81818181818181"
    stroke="hsla(0,50%,50%,0.6)"
    stroke-width="1"
    transform="translate(-70.6557377049,-97.8701527614)"
    />
  
  <line
    x1="112.24489795918367"
    y1="97.95918367346938"
    x2="109.04522613065326"
    y2="104.52261306532664"
    stroke="hsla(0,50%,50%,0.6)"
    stroke-width="1"
    transform="translate(-70.6557377049,-97.8701527614)"
    />
  
  <line
    x1="117.3913043478261"
    y1="99.37888198757764"
    x2="115.05376344086021"
    y2="103.2258064516129"
    stroke="hsla(0,50%,50%,0.6)"
    stroke-width="1"
    transform="translate(-70.6557377049,-97.8701527614)"
    />
  
  <line
    x1="119.35483870967742"
    y1="99.35483870967742"
    x2="118.34862385321101"
    y2="100.91743119266054"
    stroke="hsla(0,50%,50%,0.6)"
    stroke-width="1"
    transform="translate(-70.6557377049,-97.8701527614)"
    />
  
  <line
    x1="125.19685039370079"
    y1="93.7007874015748"
    x2="120.33898305084746"
    y2="100.84745762711864"
    stroke="hsla(0,50%,50%,0.6)"
    stroke-width="1"
    transform="translate(-70.6557377049,-97.8701527614)"
    />
  
  <line
    x1="100"
    y1="86.95652173913044"
    x2="0"
    y2="100"
    stroke="hsla(0,50%,50%,0.6)"
    stroke-width="1"
    transform="translate(-70.6557377049,-97.8701527614)"
    />
  
  <line
    x1="113.95348837209302"
    y1="91.16279069767442"
    x2="0"
    y2="100"
    stroke="hsla(0,50%,50%,0.6)"
    stroke-width="1"
    transform="translate(-70.6557377049,-97.8701527614)"
    />
  
  <line
    x1="0"
    y1="100"
    x2="125.35211267605634"
    y2="108.45070422535211"
    stroke="hsla(0,50%,50%,0.6)"
    stroke-width="1"
    transform="translate(-70.6557377049,-97.8701527614)"
    />
  
  <line
    x1="0"
    y1="100"
    x2="137.83783783783784"
    y2="108.78378378378379"
    stroke="hsla(0,50%,50%,0.6)"
    stroke-width="1"
    transform="translate(-70.6557377049,-97.8701527614)"
    />
  
  <line
    x1="100"
    y1="93.75"
    x2="0"
    y2="100"
    stroke="hsla(0,50%,50%,0.6)"
    stroke-width="1"
    transform="translate(-70.6557377049,-97.8701527614)"
    />
  
  <line
    x1="105.01392757660167"
    y1="94.15041782729806"
    x2="0"
    y2="100"
    stroke="hsla(0,50%,50%,0.6)"
    stroke-width="1"
    transform="translate(-70.6557377049,-97.8701527614)"
    />
  
  <line
    x1="105.88235294117646"
    y1="94.11764705882354"
    x2="0"
    y2="100"
    stroke="hsla(0,50%,50%,0.6)"
    stroke-width="1"
    transform="translate(-70.6557377049,-97.8701527614)"
    />
  
  <line
    x1="125.19685039370079"
    y1="93.7007874015748"
    x2="0"
    y2="100"
    stroke="hsla(0,50%,50%,0.6)"
    stroke-width="1"
    transform="translate(-70.6557377049,-97.8701527614)"
    />
  
  <line
    x1="0"
    y1="100"
    x2="109.04522613065326"
    y2="104.52261306532664"
    stroke="hsla(0,50%,50%,0.6)"
    stroke-width="1"
    transform="translate(-70.6557377049,-97.8701527614)"
    />
  
  <line
    x1="101.48883374689827"
    y1="96.7741935483871"
    x2="0"
    y2="100"
    stroke="hsla(0,50%,50%,0.6)"
    stroke-width="1"
    transform="translate(-70.6557377049,-97.8701527614)"
    />
  
  <line
    x1="0"
    y1="100"
    x2="115.05376344086021"
    y2="103.2258064516129"
    stroke="hsla(0,50%,50%,0.6)"
    stroke-width="1"
    transform="translate(-70.6557377049,-97.8701527614)"
    />
  
  <line
    x1="0"
    y1="100"
    x2="102.73556231003039"
    y2="102.73556231003039"
    stroke="hsla(0,50%,50%,0.6)"
    stroke-width="1"
    transform="translate(-70.6557377049,-97.8701527614)"
    />
  
  <line
    x1="112.24489795918367"
    y1="97.95918367346938"
    x2="0"
    y2="100"
    stroke="hsla(0,50%,50%,0.6)"
    stroke-width="1"
    transform="translate(-70.6557377049,-97.8701527614)"
    />
  
  <line
    x1="0"
    y1="100"
    x2="109.0909090909091"
    y2="101.81818181818181"
    stroke="hsla(0,50%,50%,0.6)"
    stroke-width="1"
    transform="translate(-70.6557377049,-97.8701527614)"
    />
  
  <line
    x1="134.39490445859872"
    y1="98.08917197452229"
    x2="0"
    y2="100"
    stroke="hsla(0,50%,50%,0.6)"
    stroke-width="1"
    transform="translate(-70.6557377049,-97.8701527614)"
    />
  
  <line
    x1="0"
    y1="100"
    x2="103.79746835443038"
    y2="101.26582278481013"
    stroke="hsla(0,50%,50%,0.6)"
    stroke-width="1"
    transform="translate(-70.6557377049,-97.8701527614)"
    />
  
  <line
    x1="0"
    y1="100"
    x2="100.89686098654708"
    y2="100.89686098654708"
    stroke="hsla(0,50%,50%,0.6)"
    stroke-width="1"
    transform="translate(-70.6557377049,-97.8701527614)"
    />
  
  <line
    x1="0"
    y1="100"
    x2="118.34862385321101"
    y2="100.91743119266054"
    stroke="hsla(0,50%,50%,0.6)"
    stroke-width="1"
    transform="translate(-70.6557377049,-97.8701527614)"
    />
  
  <line
    x1="0"
    y1="100"
    x2="120.33898305084746"
    y2="100.84745762711864"
    stroke="hsla(0,50%,50%,0.6)"
    stroke-width="1"
    transform="translate(-70.6557377049,-97.8701527614)"
    />
  
  <line
    x1="119.35483870967742"
    y1="99.35483870967742"
    x2="0"
    y2="100"
    stroke="hsla(0,50%,50%,0.6)"
    stroke-width="1"
    transform="translate(-70.6557377049,-97.8701527614)"
    />
  
  <line
    x1="117.3913043478261"
    y1="99.37888198757764"
    x2="0"
    y2="100"
    stroke="hsla(0,50%,50%,0.6)"
    stroke-width="1"
    transform="translate(-70.6557377049,-97.8701527614)"
    />
  
  <line
    x1="0"
    y1="100"
    x2="100"
    y2="100"
    stroke="hsla(0,50%,50%,0.6)"
    stroke-width="1"
    transform="translate(-70.6557377049,-97.8701527614)"
    />
  
  <line
    x1="134.39490445859872"
    y1="98.08917197452229"
    x2="125.35211267605634"
    y2="108.45070422535211"
    stroke="hsla(0,50%,50%,0.6)"
    stroke-width="1"
    transform="translate(-70.6557377049,-97.8701527614)"
    />
  
  <line
    x1="141.31147540983608"
    y1="105.57377049180327"
    x2="137.83783783783784"
    y2="108.78378378378379"
    stroke="hsla(0,50%,50%,0.6)"
    stroke-width="1"
    transform="translate(-70.6557377049,-97.8701527614)"
    />
  
</svg>
