<?xml version="1.0"?>
<!DOCTYPE svg PUBLIC "-//W3C//DTD SVG 1.1//EN"
  "http://www.w3.org/Graphics/SVG/1.1/DTD/svg11.dtd">
<svg
  width="240"
  height="240"
  viewBox="-50 -50 200 200" xmlns="http://www.w3.org/2000/svg" version="1.1">
  <rect
    x="0"
    y="0"
    width="100"
    height="100"
    fill="hsla(206,100%,53%,0.3)"
    stroke="hsl(206,100%,53%)"
    stroke-width="3"
    transform="" />
  
  <path
    d="M 
      104.1237113402
      86.5979381443
      L
    
      106.9414316702
      92.6247288503
      L
    
      131.8181818181
      90.9090909090
      L
    
      141.4201183431
      100.5917159763
      L
    
      132.2580645161
      109.6774193548
      L
    
      101.6015582729
      107.4342603614
      L
    
      101.2779552715
      108.6261980830
      L
    
      0
      100
      z
    "
    fill="hsla(0,0%,50%,0.3)"
    stroke="hsla(0,0%,50%,1)"
    stroke-width="1"
    transform="translate(-54.4137968531,-103.4047935312) scale(1,-1) translate(50,-110)"
    />
  
  
  <line
    x1="112.93103448275862"
    y1="96.55172413793103"
    x2="119.23076923076923"
    y2="107.6923076923077"
    stroke="hsla(0,50%,50%,0.6)"
    stroke-width="1"
    transform="translate(-54.4137968531,-103.4047935312) scale(1,-1) translate(50,-110)"
    />
  
  <line
    x1="116.26016260162602"
    y1="97.5609756097561"
    x2="118.75"
    y2="101.5625"
    stroke="hsla(0,50%,50%,0.6)"
    stroke-width="1"
    transform="translate(-54.4137968531,-103.4047935312) scale(1,-1) translate(50,-110)"
    />
  
  <line
    x1="104.12371134020619"
    y1="86.5979381443299"
    x2="110.8108108108108"
    y2="100.90090090090091"
    stroke="hsla(0,50%,50%,0.6)"
    stroke-width="1"
    transform="translate(-54.4137968531,-103.4047935312) scale(1,-1) translate(50,-110)"
    />
  
  <line
    x1="109.0909090909091"
    y1="98.18181818181819"
    x2="112.13592233009709"
    y2="104.85436893203884"
    stroke="hsla(0,50%,50%,0.6)"
    stroke-width="1"
    transform="translate(-54.4137968531,-103.4047935312) scale(1,-1) translate(50,-110)"
    />
  
  <line
    x1="122.22222222222223"
    y1="96.29629629629629"
    x2="132.25806451612902"
    y2="109.6774193548387"
    stroke="hsla(0,50%,50%,0.6)"
    stroke-width="1"
    transform="translate(-54.4137968531,-103.4047935312) scale(1,-1) translate(50,-110)"
    />
  
  <line
    x1="131.8181818181818"
    y1="90.9090909090909"
    x2="141.42011834319527"
    y2="100.59171597633136"
    stroke="hsla(0,50%,50%,0.6)"
    stroke-width="1"
    transform="translate(-54.4137968531,-103.4047935312) scale(1,-1) translate(50,-110)"
    />
  
  <line
    x1="103.88349514563107"
    y1="99.02912621359224"
    x2="105.88235294117646"
    y2="105.88235294117646"
    stroke="hsla(0,50%,50%,0.6)"
    stroke-width="1"
    transform="translate(-54.4137968531,-103.4047935312) scale(1,-1) translate(50,-110)"
    />
  
  <line
    x1="100.43668122270742"
    y1="97.81659388646288"
    x2="101.0752688172043"
    y2="103.2258064516129"
    stroke="hsla(0,50%,50%,0.6)"
    stroke-width="1"
    transform="translate(-54.4137968531,-103.4047935312) scale(1,-1) translate(50,-110)"
    />
  
  <line
    x1="100.4149377593361"
    y1="99.5850622406639"
    x2="101.27795527156549"
    y2="108.6261980830671"
    stroke="hsla(0,50%,50%,0.6)"
    stroke-width="1"
    transform="translate(-54.4137968531,-103.4047935312) scale(1,-1) translate(50,-110)"
    />
  
  <line
    x1="100"
    y1="96.55172413793103"
    x2="100.25575447570333"
    y2="100.25575447570333"
    stroke="hsla(0,50%,50%,0.6)"
    stroke-width="1"
    transform="translate(-54.4137968531,-103.4047935312) scale(1,-1) translate(50,-110)"
    />
  
  <line
    x1="100"
    y1="96.7741935483871"
    x2="100.28089887640449"
    y2="101.12359550561797"
    stroke="hsla(0,50%,50%,0.6)"
    stroke-width="1"
    transform="translate(-54.4137968531,-103.4047935312) scale(1,-1) translate(50,-110)"
    />
  
  <line
    x1="100"
    y1="96.55172413793103"
    x2="100"
    y2="100"
    stroke="hsla(0,50%,50%,0.6)"
    stroke-width="1"
    transform="translate(-54.4137968531,-103.4047935312) scale(1,-1) translate(50,-110)"
    />
  
  <line
    x1="100.43668122270742"
    y1="97.81659388646288"
    x2="100.25575447570333"
    y2="100.25575447570333"
    stroke="hsla(0,50%,50%,0.6)"
    stroke-width="1"
    transform="translate(-54.4137968531,-103.4047935312) scale(1,-1) translate(50,-110)"
    />
  
  <line
    x1="100.4149377593361"
    y1="99.5850622406639"
    x2="100.28089887640449"
    y2="101.12359550561797"
    stroke="hsla(0,50%,50%,0.6)"
    stroke-width="1"
    transform="translate(-54.4137968531,-103.4047935312) scale(1,-1) translate(50,-110)"
    />
  
  <line
    x1="104.12371134020619"
    y1="86.5979381443299"
    x2="101.0752688172043"
    y2="103.2258064516129"
    stroke="hsla(0,50%,50%,0.6)"
    stroke-width="1"
    transform="translate(-54.4137968531,-103.4047935312) scale(1,-1) translate(50,-110)"
    />
  
  <line
    x1="103.88349514563107"
    y1="99.02912621359224"
    x2="101.27795527156549"
    y2="108.6261980830671"
    stroke="hsla(0,50%,50%,0.6)"
    stroke-width="1"
    transform="translate(-54.4137968531,-103.4047935312) scale(1,-1) translate(50,-110)"
    />
  
  <line
    x1="109.0909090909091"
    y1="98.18181818181819"
    x2="105.88235294117646"
    y2="105.88235294117646"
    stroke="hsla(0,50%,50%,0.6)"
    stroke-width="1"
    transform="translate(-54.4137968531,-103.4047935312) scale(1,-1) translate(50,-110)"
    />
  
  <line
    x1="112.93103448275862"
    y1="96.55172413793103"
    x2="110.8108108108108"
    y2="100.90090090090091"
    stroke="hsla(0,50%,50%,0.6)"
    stroke-width="1"
    transform="translate(-54.4137968531,-103.4047935312) scale(1,-1) translate(50,-110)"
    />
  
  <line
    x1="116.26016260162602"
    y1="97.5609756097561"
    x2="112.13592233009709"
    y2="104.85436893203884"
    stroke="hsla(0,50%,50%,0.6)"
    stroke-width="1"
    transform="translate(-54.4137968531,-103.4047935312) scale(1,-1) translate(50,-110)"
    />
  
  <line
    x1="122.22222222222223"
    y1="96.29629629629629"
    x2="118.75"
    y2="101.5625"
    stroke="hsla(0,50%,50%,0.6)"
    stroke-width="1"
    transform="translate(-54.4137968531,-103.4047935312) scale(1,-1) translate(50,-110)"
    />
  
  <line
    x1="131.8181818181818"
    y1="90.9090909090909"
    x2="119.23076923076923"
    y2="107.6923076923077"
    stroke="hsla(0,50%,50%,0.6)"
    stroke-width="1"
    transform="translate(-54.4137968531,-103.4047935312) scale(1,-1) translate(50,-110)"
    />
  
  <line
    x1="104.12371134020619"
    y1="86.5979381443299"
    x2="0"
    y2="100"
    stroke="hsla(0,50%,50%,0.6)"
    stroke-width="1"
    transform="translate(-54.4137968531,-103.4047935312) scale(1,-1) translate(50,-110)"
    />
  
  <line
    x1="0"
    y1="100"
    x2="101.27795527156549"
    y2="108.6261980830671"
    stroke="hsla(0,50%,50%,0.6)"
    stroke-width="1"
    transform="translate(-54.4137968531,-103.4047935312) scale(1,-1) translate(50,-110)"
    />
  
  <line
    x1="0"
    y1="100"
    x2="132.25806451612902"
    y2="109.6774193548387"
    stroke="hsla(0,50%,50%,0.6)"
    stroke-width="1"
    transform="translate(-54.4137968531,-103.4047935312) scale(1,-1) translate(50,-110)"
    />
  
  <line
    x1="131.8181818181818"
    y1="90.9090909090909"
    x2="0"
    y2="100"
    stroke="hsla(0,50%,50%,0.6)"
    stroke-width="1"
    transform="translate(-54.4137968531,-103.4047935312) scale(1,-1) translate(50,-110)"
    />
  
  <line
    x1="0"
    y1="100"
    x2="119.23076923076923"
    y2="107.6923076923077"
    stroke="hsla(0,50%,50%,0.6)"
    stroke-width="1"
    transform="translate(-54.4137968531,-103.4047935312) scale(1,-1) translate(50,-110)"
    />
  
  <line
    x1="0"
    y1="100"
    x2="105.88235294117646"
    y2="105.88235294117646"
    stroke="hsla(0,50%,50%,0.6)"
    stroke-width="1"
    transform="translate(-54.4137968531,-103.4047935312) scale(1,-1) translate(50,-110)"
    />
  
  <line
    x1="0"
    y1="100"
    x2="112.13592233009709"
    y2="104.85436893203884"
    stroke="hsla(0,50%,50%,0.6)"
    stroke-width="1"
    transform="translate(-54.4137968531,-103.4047935312) scale(1,-1) translate(50,-110)"
    />
  
  <line
    x1="100"
    y1="96.55172413793103"
    x2="0"
    y2="100"
    stroke="hsla(0,50%,50%,0.6)"
    stroke-width="1"
    transform="translate(-54.4137968531,-103.4047935312) scale(1,-1) translate(50,-110)"
    />
  
  <line
    x1="100"
    y1="96.7741935483871"
    x2="0"
    y2="100"
    stroke="hsla(0,50%,50%,0.6)"
    stroke-width="1"
    transform="translate(-54.4137968531,-103.4047935312) scale(1,-1) translate(50,-110)"
    />
  
  <line
    x1="0"
    y1="100"
    x2="101.0752688172043"
    y2="103.2258064516129"
    stroke="hsla(0,50%,50%,0.6)"
    stroke-width="1"
    transform="translate(-54.4137968531,-103.4047935312) scale(1,-1) translate(50,-110)"
    />
  
  <line
    x1="112.93103448275862"
    y1="96.55172413793103"
    x2="0"
    y2="100"
    stroke="hsla(0,50%,50%,0.6)"
    stroke-width="1"
    transform="translate(-54.4137968531,-103.4047935312) scale(1,-1) translate(50,-110)"
    />
  
  <line
    x1="122.22222222222223"
    y1="96.29629629629629"
    x2="0"
    y2="100"
    stroke="hsla(0,50%,50%,0.6)"
    stroke-width="1"
    transform="translate(-54.4137968531,-103.4047935312) scale(1,-1) translate(50,-110)"
    />
  
  <line
    x1="100.43668122270742"
    y1="97.81659388646288"
    x2="0"
    y2="100"
    stroke="hsla(0,50%,50%,0.6)"
    stroke-width="1"
    transform="translate(-54.4137968531,-103.4047935312) scale(1,-1) translate(50,-110)"
    />
  
  <line
    x1="116.26016260162602"
    y1="97.5609756097561"
    x2="0"
    y2="100"
    stroke="hsla(0,50%,50%,0.6)"
    stroke-width="1"
    transform="translate(-54.4137968531,-103.4047935312) scale(1,-1) translate(50,-110)"
    />
  
  <line
    x1="109.0909090909091"
    y1="98.18181818181819"
    x2="0"
    y2="100"
    stroke="hsla(0,50%,50%,0.6)"
    stroke-width="1"
    transform="translate(-54.4137968531,-103.4047935312) scale(1,-1) translate(50,-110)"
    />
  
  <line
    x1="0"
    y1="100"
    x2="118.75"
    y2="101.5625"
    stroke="hsla(0,50%,50%,0.6)"
    stroke-width="1"
    transform="translate(-54.4137968531,-103.4047935312) scale(1,-1) translate(50,-110)"
    />
  
  <line
    x1="0"
    y1="100"
    x2="100.28089887640449"
    y2="101.12359550561797"
    stroke="hsla(0,50%,50%,0.6)"
    stroke-width="1"
    transform="translate(-54.4137968531,-103.4047935312) scale(1,-1) translate(50,-110)"
    />
  
  <line
    x1="103.88349514563107"
    y1="99.02912621359224"
    x2="0"
    y2="100"
    stroke="hsla(0,50%,50%,0.6)"
    stroke-width="1"
    transform="translate(-54.4137968531,-103.4047935312) scale(1,-1) translate(50,-110)"
    />
  
  <line
    x1="0"
    y1="100"
    x2="110.8108108108108"
    y2="100.90090090090091"
    stroke="hsla(0,50%,50%,0.6)"
    stroke-width="1"
    transform="translate(-54.4137968531,-103.4047935312) scale(1,-1) translate(50,-110)"
    />
  
  <line
    x1="100.4149377593361"
    y1="99.5850622406639"
    x2="0"
    y2="100"
    stroke="hsla(0,50%,50%,0.6)"
    stroke-width="1"
    transform="translate(-54.4137968531,-103.4047935312) scale(1,-1) translate(50,-110)"
    />
  
  <line
    x1="0"
    y1="100"
    x2="100.25575447570333"
    y2="100.25575447570333"
    stroke="hsla(0,50%,50%,0.6)"
    stroke-width="1"
    transform="translate(-54.4137968531,-103.4047935312) scale(1,-1) translate(50,-110)"
    />
  
  <line
    x1="0"
    y1="100"
    x2="100"
    y2="100"
    stroke="hsla(0,50%,50%,0.6)"
    stroke-width="1"
    transform="translate(-54.4137968531,-103.4047935312) scale(1,-1) translate(50,-110)"
    />
  
  <line
    x1="141.42011834319527"
    y1="100.59171597633136"
    x2="132.25806451612902"
    y2="109.6774193548387"
    stroke="hsla(0,50%,50%,0.6)"
    stroke-width="1"
    transform="translate(-54.4137968531,-103.4047935312) scale(1,-1) translate(50,-110)"
    />
  
</svg>
