<?xml version="1.0"?>
<!DOCTYPE svg PUBLIC "-//W3C//DTD SVG 1.1//EN"
  "http://www.w3.org/Graphics/SVG/1.1/DTD/svg11.dtd">
<svg
  width="240"
  height="240"
  viewBox="-500 -500 1000 1000" xmlns="http://www.w3.org/2000/svg" version="1.1">
  <rect
    x="0"
    y="0"
    width="100"
    height="100"
    fill="hsla(206,100%,53%,0.3)"
    stroke="hsl(206,100%,53%)"
    stroke-width="3"
    transform="" />
  
  <path
    d="M 
      102.8169014084
      91.5492957746
      L
    
      103.1640590857
      92.5618390000
      L
    
      110.3806228373
      92.0415224913
      L
    
      111.3818531580
      93.8121192689
      L
    
      120
      93.3333333333
      L
    
      122.4719101123
      96.6292134831
      L
    
      134.5679012345
      96.2962962962
      L
    
      141.3793103448
      103.4482758620
      L
    
      129.9609205384
      103.1697785497
      L
    
      128.5714285714
      104.7619047619
      L
    
      117.4973648546
      104.3517542538
      L
    
      117.4129353233
      104.4776119402
      L
    
      103.6033292732
      103.9509744214
      L
    
      101.6326530612
      110.2040816326
      L
    
      0
      100
      z
    "
    fill="hsla(0,0%,50%,0.3)"
    stroke="hsla(0,0%,50%,1)"
    stroke-width="1"
    transform="translate(-70.6896551724,-100.8766887036)"
    />
  
  
  <line
    x1="110.38062283737024"
    y1="92.04152249134948"
    x2="117.41293532338308"
    y2="104.4776119402985"
    stroke="hsla(0,50%,50%,0.6)"
    stroke-width="1"
    transform="translate(-70.6896551724,-100.8766887036)"
    />
  
  <line
    x1="120"
    y1="93.33333333333333"
    x2="128.57142857142858"
    y2="104.76190476190476"
    stroke="hsla(0,50%,50%,0.6)"
    stroke-width="1"
    transform="translate(-70.6896551724,-100.8766887036)"
    />
  
  <line
    x1="107.3170731707317"
    y1="97.5609756097561"
    x2="108.95522388059702"
    y2="101.49253731343283"
    stroke="hsla(0,50%,50%,0.6)"
    stroke-width="1"
    transform="translate(-70.6896551724,-100.8766887036)"
    />
  
  <line
    x1="105.5813953488372"
    y1="97.67441860465117"
    x2="106.84410646387833"
    y2="101.14068441064639"
    stroke="hsla(0,50%,50%,0.6)"
    stroke-width="1"
    transform="translate(-70.6896551724,-100.8766887036)"
    />
  
  <line
    x1="102.8169014084507"
    y1="91.54929577464789"
    x2="106.06060606060606"
    y2="101.01010101010101"
    stroke="hsla(0,50%,50%,0.6)"
    stroke-width="1"
    transform="translate(-70.6896551724,-100.8766887036)"
    />
  
  <line
    x1="134.5679012345679"
    y1="96.29629629629629"
    x2="141.3793103448276"
    y2="103.44827586206897"
    stroke="hsla(0,50%,50%,0.6)"
    stroke-width="1"
    transform="translate(-70.6896551724,-100.8766887036)"
    />
  
  <line
    x1="100"
    y1="94.73684210526316"
    x2="101.63265306122449"
    y2="110.20408163265306"
    stroke="hsla(0,50%,50%,0.6)"
    stroke-width="1"
    transform="translate(-70.6896551724,-100.8766887036)"
    />
  
  <line
    x1="100"
    y1="96.29629629629629"
    x2="100.61919504643963"
    y2="104.6439628482972"
    stroke="hsla(0,50%,50%,0.6)"
    stroke-width="1"
    transform="translate(-70.6896551724,-100.8766887036)"
    />
  
  <line
    x1="100"
    y1="94.73684210526316"
    x2="100"
    y2="100"
    stroke="hsla(0,50%,50%,0.6)"
    stroke-width="1"
    transform="translate(-70.6896551724,-100.8766887036)"
    />
  
  <line
    x1="102.8169014084507"
    y1="91.54929577464789"
    x2="100.61919504643963"
    y2="104.6439628482972"
    stroke="hsla(0,50%,50%,0.6)"
    stroke-width="1"
    transform="translate(-70.6896551724,-100.8766887036)"
    />
  
  <line
    x1="105.5813953488372"
    y1="97.67441860465117"
    x2="101.63265306122449"
    y2="110.20408163265306"
    stroke="hsla(0,50%,50%,0.6)"
    stroke-width="1"
    transform="translate(-70.6896551724,-100.8766887036)"
    />
  
  <line
    x1="107.3170731707317"
    y1="97.5609756097561"
    x2="106.06060606060606"
    y2="101.01010101010101"
    stroke="hsla(0,50%,50%,0.6)"
    stroke-width="1"
    transform="translate(-70.6896551724,-100.8766887036)"
    />
  
  <line
    x1="110.38062283737024"
    y1="92.04152249134948"
    x2="106.84410646387833"
    y2="101.14068441064639"
    stroke="hsla(0,50%,50%,0.6)"
    stroke-width="1"
    transform="translate(-70.6896551724,-100.8766887036)"
    />
  
  <line
    x1="111.95219123505976"
    y1="94.8207171314741"
    x2="108.95522388059702"
    y2="101.49253731343283"
    stroke="hsla(0,50%,50%,0.6)"
    stroke-width="1"
    transform="translate(-70.6896551724,-100.8766887036)"
    />
  
  <line
    x1="120"
    y1="93.33333333333333"
    x2="115.4639175257732"
    y2="101.03092783505154"
    stroke="hsla(0,50%,50%,0.6)"
    stroke-width="1"
    transform="translate(-70.6896551724,-100.8766887036)"
    />
  
  <line
    x1="122.58064516129032"
    y1="96.7741935483871"
    x2="117.41293532338308"
    y2="104.4776119402985"
    stroke="hsla(0,50%,50%,0.6)"
    stroke-width="1"
    transform="translate(-70.6896551724,-100.8766887036)"
    />
  
  <line
    x1="0"
    y1="100"
    x2="101.63265306122449"
    y2="110.20408163265306"
    stroke="hsla(0,50%,50%,0.6)"
    stroke-width="1"
    transform="translate(-70.6896551724,-100.8766887036)"
    />
  
  <line
    x1="102.8169014084507"
    y1="91.54929577464789"
    x2="0"
    y2="100"
    stroke="hsla(0,50%,50%,0.6)"
    stroke-width="1"
    transform="translate(-70.6896551724,-100.8766887036)"
    />
  
  <line
    x1="110.38062283737024"
    y1="92.04152249134948"
    x2="0"
    y2="100"
    stroke="hsla(0,50%,50%,0.6)"
    stroke-width="1"
    transform="translate(-70.6896551724,-100.8766887036)"
    />
  
  <line
    x1="120"
    y1="93.33333333333333"
    x2="0"
    y2="100"
    stroke="hsla(0,50%,50%,0.6)"
    stroke-width="1"
    transform="translate(-70.6896551724,-100.8766887036)"
    />
  
  <line
    x1="100"
    y1="94.73684210526316"
    x2="0"
    y2="100"
    stroke="hsla(0,50%,50%,0.6)"
    stroke-width="1"
    transform="translate(-70.6896551724,-100.8766887036)"
    />
  
  <line
    x1="111.95219123505976"
    y1="94.8207171314741"
    x2="0"
    y2="100"
    stroke="hsla(0,50%,50%,0.6)"
    stroke-width="1"
    transform="translate(-70.6896551724,-100.8766887036)"
    />
  
  <line
    x1="0"
    y1="100"
    x2="100.61919504643963"
    y2="104.6439628482972"
    stroke="hsla(0,50%,50%,0.6)"
    stroke-width="1"
    transform="translate(-70.6896551724,-100.8766887036)"
    />
  
  <line
    x1="0"
    y1="100"
    x2="117.41293532338308"
    y2="104.4776119402985"
    stroke="hsla(0,50%,50%,0.6)"
    stroke-width="1"
    transform="translate(-70.6896551724,-100.8766887036)"
    />
  
  <line
    x1="0"
    y1="100"
    x2="128.57142857142858"
    y2="104.76190476190476"
    stroke="hsla(0,50%,50%,0.6)"
    stroke-width="1"
    transform="translate(-70.6896551724,-100.8766887036)"
    />
  
  <line
    x1="100"
    y1="96.29629629629629"
    x2="0"
    y2="100"
    stroke="hsla(0,50%,50%,0.6)"
    stroke-width="1"
    transform="translate(-70.6896551724,-100.8766887036)"
    />
  
  <line
    x1="0"
    y1="100"
    x2="128"
    y2="104"
    stroke="hsla(0,50%,50%,0.6)"
    stroke-width="1"
    transform="translate(-70.6896551724,-100.8766887036)"
    />
  
  <line
    x1="134.5679012345679"
    y1="96.29629629629629"
    x2="0"
    y2="100"
    stroke="hsla(0,50%,50%,0.6)"
    stroke-width="1"
    transform="translate(-70.6896551724,-100.8766887036)"
    />
  
  <line
    x1="122.58064516129032"
    y1="96.7741935483871"
    x2="0"
    y2="100"
    stroke="hsla(0,50%,50%,0.6)"
    stroke-width="1"
    transform="translate(-70.6896551724,-100.8766887036)"
    />
  
  <line
    x1="0"
    y1="100"
    x2="141.3793103448276"
    y2="103.44827586206897"
    stroke="hsla(0,50%,50%,0.6)"
    stroke-width="1"
    transform="translate(-70.6896551724,-100.8766887036)"
    />
  
  <line
    x1="107.3170731707317"
    y1="97.5609756097561"
    x2="0"
    y2="100"
    stroke="hsla(0,50%,50%,0.6)"
    stroke-width="1"
    transform="translate(-70.6896551724,-100.8766887036)"
    />
  
  <line
    x1="105.5813953488372"
    y1="97.67441860465117"
    x2="0"
    y2="100"
    stroke="hsla(0,50%,50%,0.6)"
    stroke-width="1"
    transform="translate(-70.6896551724,-100.8766887036)"
    />
  
  <line
    x1="135.2941176470588"
    y1="97.05882352941177"
    x2="0"
    y2="100"
    stroke="hsla(0,50%,50%,0.6)"
    stroke-width="1"
    transform="translate(-70.6896551724,-100.8766887036)"
    />
  
  <line
    x1="0"
    y1="100"
    x2="108.95522388059702"
    y2="101.49253731343283"
    stroke="hsla(0,50%,50%,0.6)"
    stroke-width="1"
    transform="translate(-70.6896551724,-100.8766887036)"
    />
  
  <line
    x1="0"
    y1="100"
    x2="106.84410646387833"
    y2="101.14068441064639"
    stroke="hsla(0,50%,50%,0.6)"
    stroke-width="1"
    transform="translate(-70.6896551724,-100.8766887036)"
    />
  
  <line
    x1="0"
    y1="100"
    x2="106.06060606060606"
    y2="101.01010101010101"
    stroke="hsla(0,50%,50%,0.6)"
    stroke-width="1"
    transform="translate(-70.6896551724,-100.8766887036)"
    />
  
  <line
    x1="0"
    y1="100"
    x2="115.4639175257732"
    y2="101.03092783505154"
    stroke="hsla(0,50%,50%,0.6)"
    stroke-width="1"
    transform="translate(-70.6896551724,-100.8766887036)"
    />
  
  <line
    x1="0"
    y1="100"
    x2="100"
    y2="100"
    stroke="hsla(0,50%,50%,0.6)"
    stroke-width="1"
    transform="translate(-70.6896551724,-100.8766887036)"
    />
  
  <line
    x1="134.5679012345679"
    y1="96.29629629629629"
    x2="128"
    y2="104"
    stroke="hsla(0,50%,50%,0.6)"
    stroke-width="1"
    transform="translate(-70.6896551724,-100.8766887036)"
    />
  
  <line
    x1="135.2941176470588"
    y1="97.05882352941177"
    x2="128.57142857142858"
    y2="104.76190476190476"
    stroke="hsla(0,50%,50%,0.6)"
    stroke-width="1"
    transform="translate(-70.6896551724,-100.8766887036)"
    />
  
</svg>
