<?xml version="1.0"?>
<!DOCTYPE svg PUBLIC "-//W3C//DTD SVG 1.1//EN"
  "http://www.w3.org/Graphics/SVG/1.1/DTD/svg11.dtd">
<svg
  width="240"
  height="240"
  viewBox="-50 -50 200 200" xmlns="http://www.w3.org/2000/svg" version="1.1">
  <rect
    x="0"
    y="0"
    width="100"
    height="100"
    fill="hsla(206,100%,53%,0.3)"
    stroke="hsl(206,100%,53%)"
    stroke-width="3"
    transform="" />
  
  <path
    d="M 
      112.5
      90
      L
    
      116.5931770712
      96.3564632165
      L
    
      128
      96
      L
    
      140.9756097560
      111.2195121951
      L
    
      139.4736842105
      112.5
      L
    
      0
      100
      L
    
      100
      90.9090909090
      L
    
      100.0364431486
      91.1078717201
      z
    "
    fill="hsla(0,0%,50%,0.3)"
    stroke="hsla(0,0%,50%,1)"
    stroke-width="1"
    transform="translate(-91.9306050882,-94.2439782123) scale(1,-1) translate(50,-110)"
    />
  
  
  <line
    x1="115.05376344086021"
    y1="96.7741935483871"
    x2="117.94871794871794"
    y2="101.53846153846153"
    stroke="hsla(0,50%,50%,0.6)"
    stroke-width="1"
    transform="translate(-91.9306050882,-94.2439782123) scale(1,-1) translate(50,-110)"
    />
  
  <line
    x1="112.5"
    y1="90"
    x2="121.73913043478261"
    y2="104.34782608695652"
    stroke="hsla(0,50%,50%,0.6)"
    stroke-width="1"
    transform="translate(-91.9306050882,-94.2439782123) scale(1,-1) translate(50,-110)"
    />
  
  <line
    x1="119.35483870967742"
    y1="99.35483870967742"
    x2="122.22222222222223"
    y2="103.70370370370371"
    stroke="hsla(0,50%,50%,0.6)"
    stroke-width="1"
    transform="translate(-91.9306050882,-94.2439782123) scale(1,-1) translate(50,-110)"
    />
  
  <line
    x1="105.88235294117646"
    y1="94.11764705882354"
    x2="110.52631578947368"
    y2="105.26315789473684"
    stroke="hsla(0,50%,50%,0.6)"
    stroke-width="1"
    transform="translate(-91.9306050882,-94.2439782123) scale(1,-1) translate(50,-110)"
    />
  
  <line
    x1="127.02702702702703"
    y1="97.29729729729729"
    x2="139.47368421052633"
    y2="112.5"
    stroke="hsla(0,50%,50%,0.6)"
    stroke-width="1"
    transform="translate(-91.9306050882,-94.2439782123) scale(1,-1) translate(50,-110)"
    />
  
  <line
    x1="128"
    y1="96"
    x2="140.97560975609755"
    y2="111.21951219512195"
    stroke="hsla(0,50%,50%,0.6)"
    stroke-width="1"
    transform="translate(-91.9306050882,-94.2439782123) scale(1,-1) translate(50,-110)"
    />
  
  <line
    x1="104"
    y1="93.33333333333333"
    x2="106.84410646387833"
    y2="101.14068441064639"
    stroke="hsla(0,50%,50%,0.6)"
    stroke-width="1"
    transform="translate(-91.9306050882,-94.2439782123) scale(1,-1) translate(50,-110)"
    />
  
  <line
    x1="100"
    y1="90.9090909090909"
    x2="102.63157894736842"
    y2="105.26315789473684"
    stroke="hsla(0,50%,50%,0.6)"
    stroke-width="1"
    transform="translate(-91.9306050882,-94.2439782123) scale(1,-1) translate(50,-110)"
    />
  
  <line
    x1="100.83682008368201"
    y1="99.581589958159"
    x2="101.49253731343283"
    y2="104.4776119402985"
    stroke="hsla(0,50%,50%,0.6)"
    stroke-width="1"
    transform="translate(-91.9306050882,-94.2439782123) scale(1,-1) translate(50,-110)"
    />
  
  <line
    x1="100"
    y1="96"
    x2="100.50125313283208"
    y2="102.25563909774436"
    stroke="hsla(0,50%,50%,0.6)"
    stroke-width="1"
    transform="translate(-91.9306050882,-94.2439782123) scale(1,-1) translate(50,-110)"
    />
  
  <line
    x1="100"
    y1="90.9090909090909"
    x2="100"
    y2="100"
    stroke="hsla(0,50%,50%,0.6)"
    stroke-width="1"
    transform="translate(-91.9306050882,-94.2439782123) scale(1,-1) translate(50,-110)"
    />
  
  <line
    x1="100.83682008368201"
    y1="99.581589958159"
    x2="100.50125313283208"
    y2="102.25563909774436"
    stroke="hsla(0,50%,50%,0.6)"
    stroke-width="1"
    transform="translate(-91.9306050882,-94.2439782123) scale(1,-1) translate(50,-110)"
    />
  
  <line
    x1="104"
    y1="93.33333333333333"
    x2="101.49253731343283"
    y2="104.4776119402985"
    stroke="hsla(0,50%,50%,0.6)"
    stroke-width="1"
    transform="translate(-91.9306050882,-94.2439782123) scale(1,-1) translate(50,-110)"
    />
  
  <line
    x1="105.88235294117646"
    y1="94.11764705882354"
    x2="102.63157894736842"
    y2="105.26315789473684"
    stroke="hsla(0,50%,50%,0.6)"
    stroke-width="1"
    transform="translate(-91.9306050882,-94.2439782123) scale(1,-1) translate(50,-110)"
    />
  
  <line
    x1="107.79220779220779"
    y1="98.7012987012987"
    x2="106.84410646387833"
    y2="101.14068441064639"
    stroke="hsla(0,50%,50%,0.6)"
    stroke-width="1"
    transform="translate(-91.9306050882,-94.2439782123) scale(1,-1) translate(50,-110)"
    />
  
  <line
    x1="112.5"
    y1="90"
    x2="108.33333333333333"
    y2="100"
    stroke="hsla(0,50%,50%,0.6)"
    stroke-width="1"
    transform="translate(-91.9306050882,-94.2439782123) scale(1,-1) translate(50,-110)"
    />
  
  <line
    x1="115.05376344086021"
    y1="96.7741935483871"
    x2="110.52631578947368"
    y2="105.26315789473684"
    stroke="hsla(0,50%,50%,0.6)"
    stroke-width="1"
    transform="translate(-91.9306050882,-94.2439782123) scale(1,-1) translate(50,-110)"
    />
  
  <line
    x1="119.35483870967742"
    y1="99.35483870967742"
    x2="117.94871794871794"
    y2="101.53846153846153"
    stroke="hsla(0,50%,50%,0.6)"
    stroke-width="1"
    transform="translate(-91.9306050882,-94.2439782123) scale(1,-1) translate(50,-110)"
    />
  
  <line
    x1="128"
    y1="96"
    x2="121.73913043478261"
    y2="104.34782608695652"
    stroke="hsla(0,50%,50%,0.6)"
    stroke-width="1"
    transform="translate(-91.9306050882,-94.2439782123) scale(1,-1) translate(50,-110)"
    />
  
  <line
    x1="100"
    y1="90.9090909090909"
    x2="0"
    y2="100"
    stroke="hsla(0,50%,50%,0.6)"
    stroke-width="1"
    transform="translate(-91.9306050882,-94.2439782123) scale(1,-1) translate(50,-110)"
    />
  
  <line
    x1="0"
    y1="100"
    x2="139.47368421052633"
    y2="112.5"
    stroke="hsla(0,50%,50%,0.6)"
    stroke-width="1"
    transform="translate(-91.9306050882,-94.2439782123) scale(1,-1) translate(50,-110)"
    />
  
  <line
    x1="112.5"
    y1="90"
    x2="0"
    y2="100"
    stroke="hsla(0,50%,50%,0.6)"
    stroke-width="1"
    transform="translate(-91.9306050882,-94.2439782123) scale(1,-1) translate(50,-110)"
    />
  
  <line
    x1="104"
    y1="93.33333333333333"
    x2="0"
    y2="100"
    stroke="hsla(0,50%,50%,0.6)"
    stroke-width="1"
    transform="translate(-91.9306050882,-94.2439782123) scale(1,-1) translate(50,-110)"
    />
  
  <line
    x1="105.88235294117646"
    y1="94.11764705882354"
    x2="0"
    y2="100"
    stroke="hsla(0,50%,50%,0.6)"
    stroke-width="1"
    transform="translate(-91.9306050882,-94.2439782123) scale(1,-1) translate(50,-110)"
    />
  
  <line
    x1="0"
    y1="100"
    x2="102.63157894736842"
    y2="105.26315789473684"
    stroke="hsla(0,50%,50%,0.6)"
    stroke-width="1"
    transform="translate(-91.9306050882,-94.2439782123) scale(1,-1) translate(50,-110)"
    />
  
  <line
    x1="0"
    y1="100"
    x2="110.52631578947368"
    y2="105.26315789473684"
    stroke="hsla(0,50%,50%,0.6)"
    stroke-width="1"
    transform="translate(-91.9306050882,-94.2439782123) scale(1,-1) translate(50,-110)"
    />
  
  <line
    x1="0"
    y1="100"
    x2="101.49253731343283"
    y2="104.4776119402985"
    stroke="hsla(0,50%,50%,0.6)"
    stroke-width="1"
    transform="translate(-91.9306050882,-94.2439782123) scale(1,-1) translate(50,-110)"
    />
  
  <line
    x1="100"
    y1="96"
    x2="0"
    y2="100"
    stroke="hsla(0,50%,50%,0.6)"
    stroke-width="1"
    transform="translate(-91.9306050882,-94.2439782123) scale(1,-1) translate(50,-110)"
    />
  
  <line
    x1="0"
    y1="100"
    x2="121.73913043478261"
    y2="104.34782608695652"
    stroke="hsla(0,50%,50%,0.6)"
    stroke-width="1"
    transform="translate(-91.9306050882,-94.2439782123) scale(1,-1) translate(50,-110)"
    />
  
  <line
    x1="128"
    y1="96"
    x2="0"
    y2="100"
    stroke="hsla(0,50%,50%,0.6)"
    stroke-width="1"
    transform="translate(-91.9306050882,-94.2439782123) scale(1,-1) translate(50,-110)"
    />
  
  <line
    x1="0"
    y1="100"
    x2="122.22222222222223"
    y2="103.70370370370371"
    stroke="hsla(0,50%,50%,0.6)"
    stroke-width="1"
    transform="translate(-91.9306050882,-94.2439782123) scale(1,-1) translate(50,-110)"
    />
  
  <line
    x1="115.05376344086021"
    y1="96.7741935483871"
    x2="0"
    y2="100"
    stroke="hsla(0,50%,50%,0.6)"
    stroke-width="1"
    transform="translate(-91.9306050882,-94.2439782123) scale(1,-1) translate(50,-110)"
    />
  
  <line
    x1="0"
    y1="100"
    x2="100.50125313283208"
    y2="102.25563909774436"
    stroke="hsla(0,50%,50%,0.6)"
    stroke-width="1"
    transform="translate(-91.9306050882,-94.2439782123) scale(1,-1) translate(50,-110)"
    />
  
  <line
    x1="127.02702702702703"
    y1="97.29729729729729"
    x2="0"
    y2="100"
    stroke="hsla(0,50%,50%,0.6)"
    stroke-width="1"
    transform="translate(-91.9306050882,-94.2439782123) scale(1,-1) translate(50,-110)"
    />
  
  <line
    x1="0"
    y1="100"
    x2="117.94871794871794"
    y2="101.53846153846153"
    stroke="hsla(0,50%,50%,0.6)"
    stroke-width="1"
    transform="translate(-91.9306050882,-94.2439782123) scale(1,-1) translate(50,-110)"
    />
  
  <line
    x1="107.79220779220779"
    y1="98.7012987012987"
    x2="0"
    y2="100"
    stroke="hsla(0,50%,50%,0.6)"
    stroke-width="1"
    transform="translate(-91.9306050882,-94.2439782123) scale(1,-1) translate(50,-110)"
    />
  
  <line
    x1="0"
    y1="100"
    x2="106.84410646387833"
    y2="101.14068441064639"
    stroke="hsla(0,50%,50%,0.6)"
    stroke-width="1"
    transform="translate(-91.9306050882,-94.2439782123) scale(1,-1) translate(50,-110)"
    />
  
  <line
    x1="119.35483870967742"
    y1="99.35483870967742"
    x2="0"
    y2="100"
    stroke="hsla(0,50%,50%,0.6)"
    stroke-width="1"
    transform="translate(-91.9306050882,-94.2439782123) scale(1,-1) translate(50,-110)"
    />
  
  <line
    x1="100.83682008368201"
    y1="99.581589958159"
    x2="0"
    y2="100"
    stroke="hsla(0,50%,50%,0.6)"
    stroke-width="1"
    transform="translate(-91.9306050882,-94.2439782123) scale(1,-1) translate(50,-110)"
    />
  
  <line
    x1="0"
    y1="100"
    x2="108.33333333333333"
    y2="100"
    stroke="hsla(0,50%,50%,0.6)"
    stroke-width="1"
    transform="translate(-91.9306050882,-94.2439782123) scale(1,-1) translate(50,-110)"
    />
  
  <line
    x1="140.97560975609755"
    y1="111.21951219512195"
    x2="139.47368421052633"
    y2="112.5"
    stroke="hsla(0,50%,50%,0.6)"
    stroke-width="1"
    transform="translate(-91.9306050882,-94.2439782123) scale(1,-1) translate(50,-110)"
    />
  
</svg>
