<?xml version="1.0"?>
<!DOCTYPE svg PUBLIC "-//W3C//DTD SVG 1.1//EN"
  "http://www.w3.org/Graphics/SVG/1.1/DTD/svg11.dtd">
<svg
  width="240"
  height="240"
  viewBox="-500 -500 1000 1000" xmlns="http://www.w3.org/2000/svg" version="1.1">
  <rect
    x="0"
    y="0"
    width="100"
    height="100"
    fill="hsla(206,100%,53%,0.3)"
    stroke="hsl(206,100%,53%)"
    stroke-width="3"
    transform="" />
  
  <path
    d="M 
      108.1632653061
      83.2653061224
      L
    
      110.3847751503
      86.7151802335
      L
    
      112.2850122850
      86.4864864864
      L
    
      119.0677966101
      96.2791313559
      L
    
      128
      96
      L
    
      140.9756097560
      111.2195121951
      L
    
      136.3636363636
      115.1515151515
      L
    
      0
      100
      z
    "
    fill="hsla(0,0%,50%,0.3)"
    stroke="hsla(0,0%,50%,1)"
    stroke-width="1"
    transform="translate(-70.4878048780,-99.2084106369)"
    />
  
  
  <line
    x1="108.16326530612245"
    y1="83.26530612244898"
    x2="120.24291497975709"
    y2="102.02429149797571"
    stroke="hsla(0,50%,50%,0.6)"
    stroke-width="1"
    transform="translate(-70.4878048780,-99.2084106369)"
    />
  
  <line
    x1="112.28501228501229"
    y1="86.48648648648648"
    x2="123.25581395348837"
    y2="102.32558139534883"
    stroke="hsla(0,50%,50%,0.6)"
    stroke-width="1"
    transform="translate(-70.4878048780,-99.2084106369)"
    />
  
  <line
    x1="123.25581395348837"
    y1="97.67441860465117"
    x2="136.36363636363637"
    y2="115.15151515151516"
    stroke="hsla(0,50%,50%,0.6)"
    stroke-width="1"
    transform="translate(-70.4878048780,-99.2084106369)"
    />
  
  <line
    x1="128"
    y1="96"
    x2="140.97560975609755"
    y2="111.21951219512195"
    stroke="hsla(0,50%,50%,0.6)"
    stroke-width="1"
    transform="translate(-70.4878048780,-99.2084106369)"
    />
  
  <line
    x1="104"
    y1="93.33333333333333"
    x2="106.75675675675676"
    y2="100.90090090090091"
    stroke="hsla(0,50%,50%,0.6)"
    stroke-width="1"
    transform="translate(-70.4878048780,-99.2084106369)"
    />
  
  <line
    x1="102.4"
    y1="96"
    x2="103.53982300884955"
    y2="100.29498525073747"
    stroke="hsla(0,50%,50%,0.6)"
    stroke-width="1"
    transform="translate(-70.4878048780,-99.2084106369)"
    />
  
  <line
    x1="100.72992700729927"
    y1="94.8905109489051"
    x2="102.04081632653062"
    y2="102.04081632653062"
    stroke="hsla(0,50%,50%,0.6)"
    stroke-width="1"
    transform="translate(-70.4878048780,-99.2084106369)"
    />
  
  <line
    x1="101.29032258064517"
    y1="99.35483870967742"
    x2="101.52671755725191"
    y2="100.76335877862596"
    stroke="hsla(0,50%,50%,0.6)"
    stroke-width="1"
    transform="translate(-70.4878048780,-99.2084106369)"
    />
  
  <line
    x1="100.35335689045937"
    y1="98.93992932862191"
    x2="100.73529411764706"
    y2="102.94117647058823"
    stroke="hsla(0,50%,50%,0.6)"
    stroke-width="1"
    transform="translate(-70.4878048780,-99.2084106369)"
    />
  
  <line
    x1="100"
    y1="96.29629629629629"
    x2="100.29673590504451"
    y2="100.29673590504451"
    stroke="hsla(0,50%,50%,0.6)"
    stroke-width="1"
    transform="translate(-70.4878048780,-99.2084106369)"
    />
  
  <line
    x1="100"
    y1="96.7741935483871"
    x2="100.23923444976077"
    y2="100.47846889952153"
    stroke="hsla(0,50%,50%,0.6)"
    stroke-width="1"
    transform="translate(-70.4878048780,-99.2084106369)"
    />
  
  <line
    x1="100"
    y1="96.29629629629629"
    x2="100"
    y2="100"
    stroke="hsla(0,50%,50%,0.6)"
    stroke-width="1"
    transform="translate(-70.4878048780,-99.2084106369)"
    />
  
  <line
    x1="100.35335689045937"
    y1="98.93992932862191"
    x2="100.23923444976077"
    y2="100.47846889952153"
    stroke="hsla(0,50%,50%,0.6)"
    stroke-width="1"
    transform="translate(-70.4878048780,-99.2084106369)"
    />
  
  <line
    x1="100.72992700729927"
    y1="94.8905109489051"
    x2="100.29673590504451"
    y2="100.29673590504451"
    stroke="hsla(0,50%,50%,0.6)"
    stroke-width="1"
    transform="translate(-70.4878048780,-99.2084106369)"
    />
  
  <line
    x1="101.29032258064517"
    y1="99.35483870967742"
    x2="100.73529411764706"
    y2="102.94117647058823"
    stroke="hsla(0,50%,50%,0.6)"
    stroke-width="1"
    transform="translate(-70.4878048780,-99.2084106369)"
    />
  
  <line
    x1="102.4"
    y1="96"
    x2="101.52671755725191"
    y2="100.76335877862596"
    stroke="hsla(0,50%,50%,0.6)"
    stroke-width="1"
    transform="translate(-70.4878048780,-99.2084106369)"
    />
  
  <line
    x1="104"
    y1="93.33333333333333"
    x2="102.04081632653062"
    y2="102.04081632653062"
    stroke="hsla(0,50%,50%,0.6)"
    stroke-width="1"
    transform="translate(-70.4878048780,-99.2084106369)"
    />
  
  <line
    x1="108.16326530612245"
    y1="83.26530612244898"
    x2="103.53982300884955"
    y2="100.29498525073747"
    stroke="hsla(0,50%,50%,0.6)"
    stroke-width="1"
    transform="translate(-70.4878048780,-99.2084106369)"
    />
  
  <line
    x1="112.28501228501229"
    y1="86.48648648648648"
    x2="106.75675675675676"
    y2="100.90090090090091"
    stroke="hsla(0,50%,50%,0.6)"
    stroke-width="1"
    transform="translate(-70.4878048780,-99.2084106369)"
    />
  
  <line
    x1="123.25581395348837"
    y1="97.67441860465117"
    x2="120.24291497975709"
    y2="102.02429149797571"
    stroke="hsla(0,50%,50%,0.6)"
    stroke-width="1"
    transform="translate(-70.4878048780,-99.2084106369)"
    />
  
  <line
    x1="128"
    y1="96"
    x2="123.25581395348837"
    y2="102.32558139534883"
    stroke="hsla(0,50%,50%,0.6)"
    stroke-width="1"
    transform="translate(-70.4878048780,-99.2084106369)"
    />
  
  <line
    x1="108.16326530612245"
    y1="83.26530612244898"
    x2="0"
    y2="100"
    stroke="hsla(0,50%,50%,0.6)"
    stroke-width="1"
    transform="translate(-70.4878048780,-99.2084106369)"
    />
  
  <line
    x1="112.28501228501229"
    y1="86.48648648648648"
    x2="0"
    y2="100"
    stroke="hsla(0,50%,50%,0.6)"
    stroke-width="1"
    transform="translate(-70.4878048780,-99.2084106369)"
    />
  
  <line
    x1="0"
    y1="100"
    x2="136.36363636363637"
    y2="115.15151515151516"
    stroke="hsla(0,50%,50%,0.6)"
    stroke-width="1"
    transform="translate(-70.4878048780,-99.2084106369)"
    />
  
  <line
    x1="104"
    y1="93.33333333333333"
    x2="0"
    y2="100"
    stroke="hsla(0,50%,50%,0.6)"
    stroke-width="1"
    transform="translate(-70.4878048780,-99.2084106369)"
    />
  
  <line
    x1="100.72992700729927"
    y1="94.8905109489051"
    x2="0"
    y2="100"
    stroke="hsla(0,50%,50%,0.6)"
    stroke-width="1"
    transform="translate(-70.4878048780,-99.2084106369)"
    />
  
  <line
    x1="102.4"
    y1="96"
    x2="0"
    y2="100"
    stroke="hsla(0,50%,50%,0.6)"
    stroke-width="1"
    transform="translate(-70.4878048780,-99.2084106369)"
    />
  
  <line
    x1="100"
    y1="96.29629629629629"
    x2="0"
    y2="100"
    stroke="hsla(0,50%,50%,0.6)"
    stroke-width="1"
    transform="translate(-70.4878048780,-99.2084106369)"
    />
  
  <line
    x1="100"
    y1="96.7741935483871"
    x2="0"
    y2="100"
    stroke="hsla(0,50%,50%,0.6)"
    stroke-width="1"
    transform="translate(-70.4878048780,-99.2084106369)"
    />
  
  <line
    x1="128"
    y1="96"
    x2="0"
    y2="100"
    stroke="hsla(0,50%,50%,0.6)"
    stroke-width="1"
    transform="translate(-70.4878048780,-99.2084106369)"
    />
  
  <line
    x1="0"
    y1="100"
    x2="100.73529411764706"
    y2="102.94117647058823"
    stroke="hsla(0,50%,50%,0.6)"
    stroke-width="1"
    transform="translate(-70.4878048780,-99.2084106369)"
    />
  
  <line
    x1="0"
    y1="100"
    x2="102.04081632653062"
    y2="102.04081632653062"
    stroke="hsla(0,50%,50%,0.6)"
    stroke-width="1"
    transform="translate(-70.4878048780,-99.2084106369)"
    />
  
  <line
    x1="0"
    y1="100"
    x2="123.25581395348837"
    y2="102.32558139534883"
    stroke="hsla(0,50%,50%,0.6)"
    stroke-width="1"
    transform="translate(-70.4878048780,-99.2084106369)"
    />
  
  <line
    x1="123.25581395348837"
    y1="97.67441860465117"
    x2="0"
    y2="100"
    stroke="hsla(0,50%,50%,0.6)"
    stroke-width="1"
    transform="translate(-70.4878048780,-99.2084106369)"
    />
  
  <line
    x1="0"
    y1="100"
    x2="120.24291497975709"
    y2="102.02429149797571"
    stroke="hsla(0,50%,50%,0.6)"
    stroke-width="1"
    transform="translate(-70.4878048780,-99.2084106369)"
    />
  
  <line
    x1="100.35335689045937"
    y1="98.93992932862191"
    x2="0"
    y2="100"
    stroke="hsla(0,50%,50%,0.6)"
    stroke-width="1"
    transform="translate(-70.4878048780,-99.2084106369)"
    />
  
  <line
    x1="0"
    y1="100"
    x2="106.75675675675676"
    y2="100.90090090090091"
    stroke="hsla(0,50%,50%,0.6)"
    stroke-width="1"
    transform="translate(-70.4878048780,-99.2084106369)"
    />
  
  <line
    x1="0"
    y1="100"
    x2="101.52671755725191"
    y2="100.76335877862596"
    stroke="hsla(0,50%,50%,0.6)"
    stroke-width="1"
    transform="translate(-70.4878048780,-99.2084106369)"
    />
  
  <line
    x1="101.29032258064517"
    y1="99.35483870967742"
    x2="0"
    y2="100"
    stroke="hsla(0,50%,50%,0.6)"
    stroke-width="1"
    transform="translate(-70.4878048780,-99.2084106369)"
    />
  
  <line
    x1="0"
    y1="100"
    x2="100.23923444976077"
    y2="100.47846889952153"
    stroke="hsla(0,50%,50%,0.6)"
    stroke-width="1"
    transform="translate(-70.4878048780,-99.2084106369)"
    />
  
  <line
    x1="0"
    y1="100"
    x2="100.29673590504451"
    y2="100.29673590504451"
    stroke="hsla(0,50%,50%,0.6)"
    stroke-width="1"
    transform="translate(-70.4878048780,-99.2084106369)"
    />
  
  <line
    x1="0"
    y1="100"
    x2="103.53982300884955"
    y2="100.29498525073747"
    stroke="hsla(0,50%,50%,0.6)"
    stroke-width="1"
    transform="translate(-70.4878048780,-99.2084106369)"
    />
  
  <line
    x1="0"
    y1="100"
    x2="100"
    y2="100"
    stroke="hsla(0,50%,50%,0.6)"
    stroke-width="1"
    transform="translate(-70.4878048780,-99.2084106369)"
    />
  
  <line
    x1="140.97560975609755"
    y1="111.21951219512195"
    x2="136.36363636363637"
    y2="115.15151515151516"
    stroke="hsla(0,50%,50%,0.6)"
    stroke-width="1"
    transform="translate(-70.4878048780,-99.2084106369)"
    />
  
</svg>
