<?xml version="1.0"?>
<!DOCTYPE svg PUBLIC "-//W3C//DTD SVG 1.1//EN"
  "http://www.w3.org/Graphics/SVG/1.1/DTD/svg11.dtd">
<svg
  width="240"
  height="240"
  viewBox="-50 -50 200 200" xmlns="http://www.w3.org/2000/svg" version="1.1">
  <rect
    x="0"
    y="0"
    width="100"
    height="100"
    fill="hsla(206,100%,53%,0.3)"
    stroke="hsl(206,100%,53%)"
    stroke-width="3"
    transform="" />
  
  <path
    d="M 
      100
      90.9090909090
      L
    
      100.1574448942
      91.7678812415
      L
    
      102.8169014084
      91.5492957746
      L
    
      103.5216592848
      93.6048395808
      L
    
      115.625
      92.8571428571
      L
    
      118.2723150094
      96.8034509456
      L
    
      127.5862068965
      96.5517241379
      L
    
      128.1415209434
      97.2143147620
      L
    
      135.2941176470
      97.0588235294
      L
    
      141.3793103448
      103.4482758620
      L
    
      130
      114.2857142857
      L
    
      0
      100
      z
    "
    fill="hsla(0,0%,50%,0.3)"
    stroke="hsla(0,0%,50%,1)"
    stroke-width="1"
    transform="translate(-66.4022467740,-103.5956310273) scale(1,-1) translate(50,-110)"
    />
  
  
  <line
    x1="114.28571428571429"
    y1="98.21428571428571"
    x2="119.51219512195122"
    y2="107.3170731707317"
    stroke="hsla(0,50%,50%,0.6)"
    stroke-width="1"
    transform="translate(-66.4022467740,-103.5956310273) scale(1,-1) translate(50,-110)"
    />
  
  <line
    x1="115.625"
    y1="92.85714285714286"
    x2="130"
    y2="114.28571428571429"
    stroke="hsla(0,50%,50%,0.6)"
    stroke-width="1"
    transform="translate(-66.4022467740,-103.5956310273) scale(1,-1) translate(50,-110)"
    />
  
  <line
    x1="109.77198697068404"
    y1="99.6742671009772"
    x2="110.91703056768559"
    y2="102.18340611353712"
    stroke="hsla(0,50%,50%,0.6)"
    stroke-width="1"
    transform="translate(-66.4022467740,-103.5956310273) scale(1,-1) translate(50,-110)"
    />
  
  <line
    x1="127.58620689655173"
    y1="96.55172413793103"
    x2="131.57894736842104"
    y2="101.3157894736842"
    stroke="hsla(0,50%,50%,0.6)"
    stroke-width="1"
    transform="translate(-66.4022467740,-103.5956310273) scale(1,-1) translate(50,-110)"
    />
  
  <line
    x1="102.8169014084507"
    y1="91.54929577464789"
    x2="108.69565217391305"
    y2="108.69565217391305"
    stroke="hsla(0,50%,50%,0.6)"
    stroke-width="1"
    transform="translate(-66.4022467740,-103.5956310273) scale(1,-1) translate(50,-110)"
    />
  
  <line
    x1="135.2941176470588"
    y1="97.05882352941177"
    x2="141.3793103448276"
    y2="103.44827586206897"
    stroke="hsla(0,50%,50%,0.6)"
    stroke-width="1"
    transform="translate(-66.4022467740,-103.5956310273) scale(1,-1) translate(50,-110)"
    />
  
  <line
    x1="104.09556313993174"
    y1="97.61092150170649"
    x2="106.81818181818181"
    y2="106.25"
    stroke="hsla(0,50%,50%,0.6)"
    stroke-width="1"
    transform="translate(-66.4022467740,-103.5956310273) scale(1,-1) translate(50,-110)"
    />
  
  <line
    x1="100"
    y1="90.9090909090909"
    x2="102.4"
    y2="104"
    stroke="hsla(0,50%,50%,0.6)"
    stroke-width="1"
    transform="translate(-66.4022467740,-103.5956310273) scale(1,-1) translate(50,-110)"
    />
  
  <line
    x1="101.10497237569061"
    y1="99.4475138121547"
    x2="101.29032258064517"
    y2="100.64516129032258"
    stroke="hsla(0,50%,50%,0.6)"
    stroke-width="1"
    transform="translate(-66.4022467740,-103.5956310273) scale(1,-1) translate(50,-110)"
    />
  
  <line
    x1="100.53475935828877"
    y1="97.32620320855615"
    x2="100.95693779904306"
    y2="100.47846889952153"
    stroke="hsla(0,50%,50%,0.6)"
    stroke-width="1"
    transform="translate(-66.4022467740,-103.5956310273) scale(1,-1) translate(50,-110)"
    />
  
  <line
    x1="100"
    y1="96.55172413793103"
    x2="100.27624309392266"
    y2="100.5524861878453"
    stroke="hsla(0,50%,50%,0.6)"
    stroke-width="1"
    transform="translate(-66.4022467740,-103.5956310273) scale(1,-1) translate(50,-110)"
    />
  
  <line
    x1="100"
    y1="90.9090909090909"
    x2="100"
    y2="100"
    stroke="hsla(0,50%,50%,0.6)"
    stroke-width="1"
    transform="translate(-66.4022467740,-103.5956310273) scale(1,-1) translate(50,-110)"
    />
  
  <line
    x1="100.53475935828877"
    y1="97.32620320855615"
    x2="100.27624309392266"
    y2="100.5524861878453"
    stroke="hsla(0,50%,50%,0.6)"
    stroke-width="1"
    transform="translate(-66.4022467740,-103.5956310273) scale(1,-1) translate(50,-110)"
    />
  
  <line
    x1="101.10497237569061"
    y1="99.4475138121547"
    x2="100.95693779904306"
    y2="100.47846889952153"
    stroke="hsla(0,50%,50%,0.6)"
    stroke-width="1"
    transform="translate(-66.4022467740,-103.5956310273) scale(1,-1) translate(50,-110)"
    />
  
  <line
    x1="102.8169014084507"
    y1="91.54929577464789"
    x2="101.29032258064517"
    y2="100.64516129032258"
    stroke="hsla(0,50%,50%,0.6)"
    stroke-width="1"
    transform="translate(-66.4022467740,-103.5956310273) scale(1,-1) translate(50,-110)"
    />
  
  <line
    x1="104.09556313993174"
    y1="97.61092150170649"
    x2="102.4"
    y2="104"
    stroke="hsla(0,50%,50%,0.6)"
    stroke-width="1"
    transform="translate(-66.4022467740,-103.5956310273) scale(1,-1) translate(50,-110)"
    />
  
  <line
    x1="109.77198697068404"
    y1="99.6742671009772"
    x2="106.81818181818181"
    y2="106.25"
    stroke="hsla(0,50%,50%,0.6)"
    stroke-width="1"
    transform="translate(-66.4022467740,-103.5956310273) scale(1,-1) translate(50,-110)"
    />
  
  <line
    x1="115.625"
    y1="92.85714285714286"
    x2="110.91703056768559"
    y2="102.18340611353712"
    stroke="hsla(0,50%,50%,0.6)"
    stroke-width="1"
    transform="translate(-66.4022467740,-103.5956310273) scale(1,-1) translate(50,-110)"
    />
  
  <line
    x1="114.28571428571429"
    y1="98.21428571428571"
    x2="108.69565217391305"
    y2="108.69565217391305"
    stroke="hsla(0,50%,50%,0.6)"
    stroke-width="1"
    transform="translate(-66.4022467740,-103.5956310273) scale(1,-1) translate(50,-110)"
    />
  
  <line
    x1="127.58620689655173"
    y1="96.55172413793103"
    x2="119.51219512195122"
    y2="107.3170731707317"
    stroke="hsla(0,50%,50%,0.6)"
    stroke-width="1"
    transform="translate(-66.4022467740,-103.5956310273) scale(1,-1) translate(50,-110)"
    />
  
  <line
    x1="0"
    y1="100"
    x2="130"
    y2="114.28571428571429"
    stroke="hsla(0,50%,50%,0.6)"
    stroke-width="1"
    transform="translate(-66.4022467740,-103.5956310273) scale(1,-1) translate(50,-110)"
    />
  
  <line
    x1="100"
    y1="90.9090909090909"
    x2="0"
    y2="100"
    stroke="hsla(0,50%,50%,0.6)"
    stroke-width="1"
    transform="translate(-66.4022467740,-103.5956310273) scale(1,-1) translate(50,-110)"
    />
  
  <line
    x1="102.8169014084507"
    y1="91.54929577464789"
    x2="0"
    y2="100"
    stroke="hsla(0,50%,50%,0.6)"
    stroke-width="1"
    transform="translate(-66.4022467740,-103.5956310273) scale(1,-1) translate(50,-110)"
    />
  
  <line
    x1="0"
    y1="100"
    x2="108.69565217391305"
    y2="108.69565217391305"
    stroke="hsla(0,50%,50%,0.6)"
    stroke-width="1"
    transform="translate(-66.4022467740,-103.5956310273) scale(1,-1) translate(50,-110)"
    />
  
  <line
    x1="115.625"
    y1="92.85714285714286"
    x2="0"
    y2="100"
    stroke="hsla(0,50%,50%,0.6)"
    stroke-width="1"
    transform="translate(-66.4022467740,-103.5956310273) scale(1,-1) translate(50,-110)"
    />
  
  <line
    x1="0"
    y1="100"
    x2="119.51219512195122"
    y2="107.3170731707317"
    stroke="hsla(0,50%,50%,0.6)"
    stroke-width="1"
    transform="translate(-66.4022467740,-103.5956310273) scale(1,-1) translate(50,-110)"
    />
  
  <line
    x1="0"
    y1="100"
    x2="106.81818181818181"
    y2="106.25"
    stroke="hsla(0,50%,50%,0.6)"
    stroke-width="1"
    transform="translate(-66.4022467740,-103.5956310273) scale(1,-1) translate(50,-110)"
    />
  
  <line
    x1="0"
    y1="100"
    x2="102.4"
    y2="104"
    stroke="hsla(0,50%,50%,0.6)"
    stroke-width="1"
    transform="translate(-66.4022467740,-103.5956310273) scale(1,-1) translate(50,-110)"
    />
  
  <line
    x1="100"
    y1="96.55172413793103"
    x2="0"
    y2="100"
    stroke="hsla(0,50%,50%,0.6)"
    stroke-width="1"
    transform="translate(-66.4022467740,-103.5956310273) scale(1,-1) translate(50,-110)"
    />
  
  <line
    x1="127.58620689655173"
    y1="96.55172413793103"
    x2="0"
    y2="100"
    stroke="hsla(0,50%,50%,0.6)"
    stroke-width="1"
    transform="translate(-66.4022467740,-103.5956310273) scale(1,-1) translate(50,-110)"
    />
  
  <line
    x1="100.53475935828877"
    y1="97.32620320855615"
    x2="0"
    y2="100"
    stroke="hsla(0,50%,50%,0.6)"
    stroke-width="1"
    transform="translate(-66.4022467740,-103.5956310273) scale(1,-1) translate(50,-110)"
    />
  
  <line
    x1="104.09556313993174"
    y1="97.61092150170649"
    x2="0"
    y2="100"
    stroke="hsla(0,50%,50%,0.6)"
    stroke-width="1"
    transform="translate(-66.4022467740,-103.5956310273) scale(1,-1) translate(50,-110)"
    />
  
  <line
    x1="135.2941176470588"
    y1="97.05882352941177"
    x2="0"
    y2="100"
    stroke="hsla(0,50%,50%,0.6)"
    stroke-width="1"
    transform="translate(-66.4022467740,-103.5956310273) scale(1,-1) translate(50,-110)"
    />
  
  <line
    x1="0"
    y1="100"
    x2="110.91703056768559"
    y2="102.18340611353712"
    stroke="hsla(0,50%,50%,0.6)"
    stroke-width="1"
    transform="translate(-66.4022467740,-103.5956310273) scale(1,-1) translate(50,-110)"
    />
  
  <line
    x1="114.28571428571429"
    y1="98.21428571428571"
    x2="0"
    y2="100"
    stroke="hsla(0,50%,50%,0.6)"
    stroke-width="1"
    transform="translate(-66.4022467740,-103.5956310273) scale(1,-1) translate(50,-110)"
    />
  
  <line
    x1="0"
    y1="100"
    x2="131.57894736842104"
    y2="101.3157894736842"
    stroke="hsla(0,50%,50%,0.6)"
    stroke-width="1"
    transform="translate(-66.4022467740,-103.5956310273) scale(1,-1) translate(50,-110)"
    />
  
  <line
    x1="0"
    y1="100"
    x2="101.29032258064517"
    y2="100.64516129032258"
    stroke="hsla(0,50%,50%,0.6)"
    stroke-width="1"
    transform="translate(-66.4022467740,-103.5956310273) scale(1,-1) translate(50,-110)"
    />
  
  <line
    x1="0"
    y1="100"
    x2="100.27624309392266"
    y2="100.5524861878453"
    stroke="hsla(0,50%,50%,0.6)"
    stroke-width="1"
    transform="translate(-66.4022467740,-103.5956310273) scale(1,-1) translate(50,-110)"
    />
  
  <line
    x1="101.10497237569061"
    y1="99.4475138121547"
    x2="0"
    y2="100"
    stroke="hsla(0,50%,50%,0.6)"
    stroke-width="1"
    transform="translate(-66.4022467740,-103.5956310273) scale(1,-1) translate(50,-110)"
    />
  
  <line
    x1="0"
    y1="100"
    x2="100.95693779904306"
    y2="100.47846889952153"
    stroke="hsla(0,50%,50%,0.6)"
    stroke-width="1"
    transform="translate(-66.4022467740,-103.5956310273) scale(1,-1) translate(50,-110)"
    />
  
  <line
    x1="109.77198697068404"
    y1="99.6742671009772"
    x2="0"
    y2="100"
    stroke="hsla(0,50%,50%,0.6)"
    stroke-width="1"
    transform="translate(-66.4022467740,-103.5956310273) scale(1,-1) translate(50,-110)"
    />
  
  <line
    x1="0"
    y1="100"
    x2="100"
    y2="100"
    stroke="hsla(0,50%,50%,0.6)"
    stroke-width="1"
    transform="translate(-66.4022467740,-103.5956310273) scale(1,-1) translate(50,-110)"
    />
  
  <line
    x1="135.2941176470588"
    y1="97.05882352941177"
    x2="131.57894736842104"
    y2="101.3157894736842"
    stroke="hsla(0,50%,50%,0.6)"
    stroke-width="1"
    transform="translate(-66.4022467740,-103.5956310273) scale(1,-1) translate(50,-110)"
    />
  
  <line
    x1="141.3793103448276"
    y1="103.44827586206897"
    x2="130"
    y2="114.28571428571429"
    stroke="hsla(0,50%,50%,0.6)"
    stroke-width="1"
    transform="translate(-66.4022467740,-103.5956310273) scale(1,-1) translate(50,-110)"
    />
  
</svg>
