<?xml version="1.0"?>
<!DOCTYPE svg PUBLIC "-//W3C//DTD SVG 1.1//EN"
  "http://www.w3.org/Graphics/SVG/1.1/DTD/svg11.dtd">
<svg
  width="240"
  height="240"
  viewBox="-50 -50 200 200" xmlns="http://www.w3.org/2000/svg" version="1.1">
  <rect
    x="0"
    y="0"
    width="100"
    height="100"
    fill="hsla(206,100%,53%,0.3)"
    stroke="hsl(206,100%,53%)"
    stroke-width="3"
    transform="" />
  
  <path
    d="M 
      100
      88.8888888888
      L
    
      100.9012131715
      92.8942807625
      L
    
      109.2307692307
      92.3076923076
      L
    
      109.8859315589
      93.5361216730
      L
    
      130.7692307692
      92.3076923076
      L
    
      131.5851502651
      93.1644077784
      L
    
      137.5
      92.8571428571
      L
    
      141.3793103448
      96.5517241379
      L
    
      138.0952380952
      100
      L
    
      131.4102564102
      100
      L
    
      128
      104
      L
    
      122.1374045801
      103.8167938931
      L
    
      118.1818181818
      109.0909090909
      L
    
      0
      100
      z
    "
    fill="hsla(0,0%,50%,0.3)"
    stroke="hsla(0,0%,50%,1)"
    stroke-width="1"
    transform="translate(-61.2081275187,-102.9168643536) scale(1,-1) translate(50,-110)"
    />
  
  
  <line
    x1="115.09433962264151"
    y1="99.62264150943396"
    x2="119.51219512195122"
    y2="107.3170731707317"
    stroke="hsla(0,50%,50%,0.6)"
    stroke-width="1"
    transform="translate(-61.2081275187,-102.9168643536) scale(1,-1) translate(50,-110)"
    />
  
  <line
    x1="109.23076923076923"
    y1="92.3076923076923"
    x2="118.18181818181819"
    y2="109.0909090909091"
    stroke="hsla(0,50%,50%,0.6)"
    stroke-width="1"
    transform="translate(-61.2081275187,-102.9168643536) scale(1,-1) translate(50,-110)"
    />
  
  <line
    x1="107.56302521008404"
    y1="92.43697478991596"
    x2="112.93103448275862"
    y2="103.44827586206897"
    stroke="hsla(0,50%,50%,0.6)"
    stroke-width="1"
    transform="translate(-61.2081275187,-102.9168643536) scale(1,-1) translate(50,-110)"
    />
  
  <line
    x1="125"
    y1="100"
    x2="128"
    y2="104"
    stroke="hsla(0,50%,50%,0.6)"
    stroke-width="1"
    transform="translate(-61.2081275187,-102.9168643536) scale(1,-1) translate(50,-110)"
    />
  
  <line
    x1="130.76923076923077"
    y1="92.3076923076923"
    x2="138.0952380952381"
    y2="100"
    stroke="hsla(0,50%,50%,0.6)"
    stroke-width="1"
    transform="translate(-61.2081275187,-102.9168643536) scale(1,-1) translate(50,-110)"
    />
  
  <line
    x1="104.16666666666667"
    y1="100"
    x2="105.17241379310344"
    y2="103.44827586206897"
    stroke="hsla(0,50%,50%,0.6)"
    stroke-width="1"
    transform="translate(-61.2081275187,-102.9168643536) scale(1,-1) translate(50,-110)"
    />
  
  <line
    x1="137.5"
    y1="92.85714285714286"
    x2="141.3793103448276"
    y2="96.55172413793103"
    stroke="hsla(0,50%,50%,0.6)"
    stroke-width="1"
    transform="translate(-61.2081275187,-102.9168643536) scale(1,-1) translate(50,-110)"
    />
  
  <line
    x1="103.04568527918782"
    y1="99.49238578680203"
    x2="104.02684563758389"
    y2="103.35570469798658"
    stroke="hsla(0,50%,50%,0.6)"
    stroke-width="1"
    transform="translate(-61.2081275187,-102.9168643536) scale(1,-1) translate(50,-110)"
    />
  
  <line
    x1="100"
    y1="88.88888888888889"
    x2="103.2258064516129"
    y2="103.2258064516129"
    stroke="hsla(0,50%,50%,0.6)"
    stroke-width="1"
    transform="translate(-61.2081275187,-102.9168643536) scale(1,-1) translate(50,-110)"
    />
  
  <line
    x1="100"
    y1="89.65517241379311"
    x2="102.32558139534883"
    y2="100.7751937984496"
    stroke="hsla(0,50%,50%,0.6)"
    stroke-width="1"
    transform="translate(-61.2081275187,-102.9168643536) scale(1,-1) translate(50,-110)"
    />
  
  <line
    x1="100"
    y1="88.88888888888889"
    x2="100"
    y2="100"
    stroke="hsla(0,50%,50%,0.6)"
    stroke-width="1"
    transform="translate(-61.2081275187,-102.9168643536) scale(1,-1) translate(50,-110)"
    />
  
  <line
    x1="102.5"
    y1="100"
    x2="102.32558139534883"
    y2="100.7751937984496"
    stroke="hsla(0,50%,50%,0.6)"
    stroke-width="1"
    transform="translate(-61.2081275187,-102.9168643536) scale(1,-1) translate(50,-110)"
    />
  
  <line
    x1="103.04568527918782"
    y1="99.49238578680203"
    x2="102.70270270270271"
    y2="100.90090090090091"
    stroke="hsla(0,50%,50%,0.6)"
    stroke-width="1"
    transform="translate(-61.2081275187,-102.9168643536) scale(1,-1) translate(50,-110)"
    />
  
  <line
    x1="104.16666666666667"
    y1="100"
    x2="103.2258064516129"
    y2="103.2258064516129"
    stroke="hsla(0,50%,50%,0.6)"
    stroke-width="1"
    transform="translate(-61.2081275187,-102.9168643536) scale(1,-1) translate(50,-110)"
    />
  
  <line
    x1="107.56302521008404"
    y1="92.43697478991596"
    x2="104.02684563758389"
    y2="103.35570469798658"
    stroke="hsla(0,50%,50%,0.6)"
    stroke-width="1"
    transform="translate(-61.2081275187,-102.9168643536) scale(1,-1) translate(50,-110)"
    />
  
  <line
    x1="109.23076923076923"
    y1="92.3076923076923"
    x2="105.17241379310344"
    y2="103.44827586206897"
    stroke="hsla(0,50%,50%,0.6)"
    stroke-width="1"
    transform="translate(-61.2081275187,-102.9168643536) scale(1,-1) translate(50,-110)"
    />
  
  <line
    x1="115.09433962264151"
    y1="99.62264150943396"
    x2="112.93103448275862"
    y2="103.44827586206897"
    stroke="hsla(0,50%,50%,0.6)"
    stroke-width="1"
    transform="translate(-61.2081275187,-102.9168643536) scale(1,-1) translate(50,-110)"
    />
  
  <line
    x1="130.76923076923077"
    y1="92.3076923076923"
    x2="118.18181818181819"
    y2="109.0909090909091"
    stroke="hsla(0,50%,50%,0.6)"
    stroke-width="1"
    transform="translate(-61.2081275187,-102.9168643536) scale(1,-1) translate(50,-110)"
    />
  
  <line
    x1="100"
    y1="88.88888888888889"
    x2="0"
    y2="100"
    stroke="hsla(0,50%,50%,0.6)"
    stroke-width="1"
    transform="translate(-61.2081275187,-102.9168643536) scale(1,-1) translate(50,-110)"
    />
  
  <line
    x1="100"
    y1="89.65517241379311"
    x2="0"
    y2="100"
    stroke="hsla(0,50%,50%,0.6)"
    stroke-width="1"
    transform="translate(-61.2081275187,-102.9168643536) scale(1,-1) translate(50,-110)"
    />
  
  <line
    x1="0"
    y1="100"
    x2="118.18181818181819"
    y2="109.0909090909091"
    stroke="hsla(0,50%,50%,0.6)"
    stroke-width="1"
    transform="translate(-61.2081275187,-102.9168643536) scale(1,-1) translate(50,-110)"
    />
  
  <line
    x1="109.23076923076923"
    y1="92.3076923076923"
    x2="0"
    y2="100"
    stroke="hsla(0,50%,50%,0.6)"
    stroke-width="1"
    transform="translate(-61.2081275187,-102.9168643536) scale(1,-1) translate(50,-110)"
    />
  
  <line
    x1="107.56302521008404"
    y1="92.43697478991596"
    x2="0"
    y2="100"
    stroke="hsla(0,50%,50%,0.6)"
    stroke-width="1"
    transform="translate(-61.2081275187,-102.9168643536) scale(1,-1) translate(50,-110)"
    />
  
  <line
    x1="0"
    y1="100"
    x2="119.51219512195122"
    y2="107.3170731707317"
    stroke="hsla(0,50%,50%,0.6)"
    stroke-width="1"
    transform="translate(-61.2081275187,-102.9168643536) scale(1,-1) translate(50,-110)"
    />
  
  <line
    x1="130.76923076923077"
    y1="92.3076923076923"
    x2="0"
    y2="100"
    stroke="hsla(0,50%,50%,0.6)"
    stroke-width="1"
    transform="translate(-61.2081275187,-102.9168643536) scale(1,-1) translate(50,-110)"
    />
  
  <line
    x1="137.5"
    y1="92.85714285714286"
    x2="0"
    y2="100"
    stroke="hsla(0,50%,50%,0.6)"
    stroke-width="1"
    transform="translate(-61.2081275187,-102.9168643536) scale(1,-1) translate(50,-110)"
    />
  
  <line
    x1="0"
    y1="100"
    x2="105.17241379310344"
    y2="103.44827586206897"
    stroke="hsla(0,50%,50%,0.6)"
    stroke-width="1"
    transform="translate(-61.2081275187,-102.9168643536) scale(1,-1) translate(50,-110)"
    />
  
  <line
    x1="0"
    y1="100"
    x2="104.02684563758389"
    y2="103.35570469798658"
    stroke="hsla(0,50%,50%,0.6)"
    stroke-width="1"
    transform="translate(-61.2081275187,-102.9168643536) scale(1,-1) translate(50,-110)"
    />
  
  <line
    x1="0"
    y1="100"
    x2="128"
    y2="104"
    stroke="hsla(0,50%,50%,0.6)"
    stroke-width="1"
    transform="translate(-61.2081275187,-102.9168643536) scale(1,-1) translate(50,-110)"
    />
  
  <line
    x1="0"
    y1="100"
    x2="112.93103448275862"
    y2="103.44827586206897"
    stroke="hsla(0,50%,50%,0.6)"
    stroke-width="1"
    transform="translate(-61.2081275187,-102.9168643536) scale(1,-1) translate(50,-110)"
    />
  
  <line
    x1="0"
    y1="100"
    x2="102.70270270270271"
    y2="100.90090090090091"
    stroke="hsla(0,50%,50%,0.6)"
    stroke-width="1"
    transform="translate(-61.2081275187,-102.9168643536) scale(1,-1) translate(50,-110)"
    />
  
  <line
    x1="0"
    y1="100"
    x2="102.32558139534883"
    y2="100.7751937984496"
    stroke="hsla(0,50%,50%,0.6)"
    stroke-width="1"
    transform="translate(-61.2081275187,-102.9168643536) scale(1,-1) translate(50,-110)"
    />
  
  <line
    x1="103.04568527918782"
    y1="99.49238578680203"
    x2="0"
    y2="100"
    stroke="hsla(0,50%,50%,0.6)"
    stroke-width="1"
    transform="translate(-61.2081275187,-102.9168643536) scale(1,-1) translate(50,-110)"
    />
  
  <line
    x1="115.09433962264151"
    y1="99.62264150943396"
    x2="0"
    y2="100"
    stroke="hsla(0,50%,50%,0.6)"
    stroke-width="1"
    transform="translate(-61.2081275187,-102.9168643536) scale(1,-1) translate(50,-110)"
    />
  
  <line
    x1="0"
    y1="100"
    x2="138.0952380952381"
    y2="100"
    stroke="hsla(0,50%,50%,0.6)"
    stroke-width="1"
    transform="translate(-61.2081275187,-102.9168643536) scale(1,-1) translate(50,-110)"
    />
  
  <line
    x1="137.5"
    y1="92.85714285714286"
    x2="128"
    y2="104"
    stroke="hsla(0,50%,50%,0.6)"
    stroke-width="1"
    transform="translate(-61.2081275187,-102.9168643536) scale(1,-1) translate(50,-110)"
    />
  
  <line
    x1="141.3793103448276"
    y1="96.55172413793103"
    x2="138.0952380952381"
    y2="100"
    stroke="hsla(0,50%,50%,0.6)"
    stroke-width="1"
    transform="translate(-61.2081275187,-102.9168643536) scale(1,-1) translate(50,-110)"
    />
  
</svg>
