<?xml version="1.0"?>
<!DOCTYPE svg PUBLIC "-//W3C//DTD SVG 1.1//EN"
  "http://www.w3.org/Graphics/SVG/1.1/DTD/svg11.dtd">
<svg
  width="240"
  height="240"
  viewBox="-500 -500 1000 1000" xmlns="http://www.w3.org/2000/svg" version="1.1">
  <rect
    x="0"
    y="0"
    width="100"
    height="100"
    fill="hsla(206,100%,53%,0.3)"
    stroke="hsl(206,100%,53%)"
    stroke-width="3"
    transform="" />
  
  <path
    d="M 
      104.5454545454
      90.9090909090
      L
    
      107.0217917675
      96.8523002421
      L
    
      109.6774193548
      96.7741935483
      L
    
      109.9552372426
      97.3440763951
      L
    
      131.8471337579
      96.8152866242
      L
    
      133.0068560235
      98.0999020568
      L
    
      140
      98
      L
    
      141.4201183431
      99.4082840236
      L
    
      138.4146341463
      102.4390243902
      L
    
      130.7170466198
      102.3033840814
      L
    
      125.7668711656
      107.9754601226
      L
    
      122.8610169491
      107.7911864406
      L
    
      117.2413793103
      114.6551724137
      L
    
      0
      100
      z
    "
    fill="hsla(0,0%,50%,0.3)"
    stroke="hsla(0,0%,50%,1)"
    stroke-width="1"
    transform="translate(-70.7100591715,-102.7821316614)"
    />
  
  
  <line
    x1="119.04761904761905"
    y1="97.95918367346938"
    x2="125.76687116564418"
    y2="107.97546012269939"
    stroke="hsla(0,50%,50%,0.6)"
    stroke-width="1"
    transform="translate(-70.7100591715,-102.7821316614)"
    />
  
  <line
    x1="109.6774193548387"
    y1="96.7741935483871"
    x2="114.11764705882354"
    y2="105.88235294117646"
    stroke="hsla(0,50%,50%,0.6)"
    stroke-width="1"
    transform="translate(-70.7100591715,-102.7821316614)"
    />
  
  <line
    x1="110"
    y1="99.16666666666667"
    x2="117.24137931034483"
    y2="114.65517241379311"
    stroke="hsla(0,50%,50%,0.6)"
    stroke-width="1"
    transform="translate(-70.7100591715,-102.7821316614)"
    />
  
  <line
    x1="104.54545454545455"
    y1="90.9090909090909"
    x2="108.95522388059702"
    y2="101.49253731343283"
    stroke="hsla(0,50%,50%,0.6)"
    stroke-width="1"
    transform="translate(-70.7100591715,-102.7821316614)"
    />
  
  <line
    x1="131.84713375796179"
    y1="96.81528662420382"
    x2="136.36363636363637"
    y2="101.81818181818181"
    stroke="hsla(0,50%,50%,0.6)"
    stroke-width="1"
    transform="translate(-70.7100591715,-102.7821316614)"
    />
  
  <line
    x1="134.39490445859872"
    y1="98.08917197452229"
    x2="138.41463414634146"
    y2="102.4390243902439"
    stroke="hsla(0,50%,50%,0.6)"
    stroke-width="1"
    transform="translate(-70.7100591715,-102.7821316614)"
    />
  
  <line
    x1="104.49438202247191"
    y1="98.87640449438203"
    x2="106.34920634920636"
    y2="104.76190476190476"
    stroke="hsla(0,50%,50%,0.6)"
    stroke-width="1"
    transform="translate(-70.7100591715,-102.7821316614)"
    />
  
  <line
    x1="140"
    y1="98"
    x2="141.42011834319527"
    y2="99.40828402366864"
    stroke="hsla(0,50%,50%,0.6)"
    stroke-width="1"
    transform="translate(-70.7100591715,-102.7821316614)"
    />
  
  <line
    x1="101.48883374689827"
    y1="96.7741935483871"
    x2="102.32558139534883"
    y2="100.7751937984496"
    stroke="hsla(0,50%,50%,0.6)"
    stroke-width="1"
    transform="translate(-70.7100591715,-102.7821316614)"
    />
  
  <line
    x1="100"
    y1="93.33333333333333"
    x2="101.92307692307692"
    y2="107.6923076923077"
    stroke="hsla(0,50%,50%,0.6)"
    stroke-width="1"
    transform="translate(-70.7100591715,-102.7821316614)"
    />
  
  <line
    x1="100"
    y1="96.7741935483871"
    x2="100.46189376443418"
    y2="103.92609699769054"
    stroke="hsla(0,50%,50%,0.6)"
    stroke-width="1"
    transform="translate(-70.7100591715,-102.7821316614)"
    />
  
  <line
    x1="100"
    y1="93.33333333333333"
    x2="100"
    y2="100"
    stroke="hsla(0,50%,50%,0.6)"
    stroke-width="1"
    transform="translate(-70.7100591715,-102.7821316614)"
    />
  
  <line
    x1="101.48883374689827"
    y1="96.7741935483871"
    x2="100.46189376443418"
    y2="103.92609699769054"
    stroke="hsla(0,50%,50%,0.6)"
    stroke-width="1"
    transform="translate(-70.7100591715,-102.7821316614)"
    />
  
  <line
    x1="104.54545454545455"
    y1="90.9090909090909"
    x2="102.32558139534883"
    y2="100.7751937984496"
    stroke="hsla(0,50%,50%,0.6)"
    stroke-width="1"
    transform="translate(-70.7100591715,-102.7821316614)"
    />
  
  <line
    x1="104.49438202247191"
    y1="98.87640449438203"
    x2="101.92307692307692"
    y2="107.6923076923077"
    stroke="hsla(0,50%,50%,0.6)"
    stroke-width="1"
    transform="translate(-70.7100591715,-102.7821316614)"
    />
  
  <line
    x1="109.6774193548387"
    y1="96.7741935483871"
    x2="106.34920634920636"
    y2="104.76190476190476"
    stroke="hsla(0,50%,50%,0.6)"
    stroke-width="1"
    transform="translate(-70.7100591715,-102.7821316614)"
    />
  
  <line
    x1="110"
    y1="99.16666666666667"
    x2="108.95522388059702"
    y2="101.49253731343283"
    stroke="hsla(0,50%,50%,0.6)"
    stroke-width="1"
    transform="translate(-70.7100591715,-102.7821316614)"
    />
  
  <line
    x1="119.04761904761905"
    y1="97.95918367346938"
    x2="114.11764705882354"
    y2="105.88235294117646"
    stroke="hsla(0,50%,50%,0.6)"
    stroke-width="1"
    transform="translate(-70.7100591715,-102.7821316614)"
    />
  
  <line
    x1="0"
    y1="100"
    x2="117.24137931034483"
    y2="114.65517241379311"
    stroke="hsla(0,50%,50%,0.6)"
    stroke-width="1"
    transform="translate(-70.7100591715,-102.7821316614)"
    />
  
  <line
    x1="104.54545454545455"
    y1="90.9090909090909"
    x2="0"
    y2="100"
    stroke="hsla(0,50%,50%,0.6)"
    stroke-width="1"
    transform="translate(-70.7100591715,-102.7821316614)"
    />
  
  <line
    x1="0"
    y1="100"
    x2="101.92307692307692"
    y2="107.6923076923077"
    stroke="hsla(0,50%,50%,0.6)"
    stroke-width="1"
    transform="translate(-70.7100591715,-102.7821316614)"
    />
  
  <line
    x1="100"
    y1="93.33333333333333"
    x2="0"
    y2="100"
    stroke="hsla(0,50%,50%,0.6)"
    stroke-width="1"
    transform="translate(-70.7100591715,-102.7821316614)"
    />
  
  <line
    x1="0"
    y1="100"
    x2="125.76687116564418"
    y2="107.97546012269939"
    stroke="hsla(0,50%,50%,0.6)"
    stroke-width="1"
    transform="translate(-70.7100591715,-102.7821316614)"
    />
  
  <line
    x1="0"
    y1="100"
    x2="114.11764705882354"
    y2="105.88235294117646"
    stroke="hsla(0,50%,50%,0.6)"
    stroke-width="1"
    transform="translate(-70.7100591715,-102.7821316614)"
    />
  
  <line
    x1="0"
    y1="100"
    x2="106.34920634920636"
    y2="104.76190476190476"
    stroke="hsla(0,50%,50%,0.6)"
    stroke-width="1"
    transform="translate(-70.7100591715,-102.7821316614)"
    />
  
  <line
    x1="0"
    y1="100"
    x2="100.46189376443418"
    y2="103.92609699769054"
    stroke="hsla(0,50%,50%,0.6)"
    stroke-width="1"
    transform="translate(-70.7100591715,-102.7821316614)"
    />
  
  <line
    x1="100"
    y1="96.7741935483871"
    x2="0"
    y2="100"
    stroke="hsla(0,50%,50%,0.6)"
    stroke-width="1"
    transform="translate(-70.7100591715,-102.7821316614)"
    />
  
  <line
    x1="101.48883374689827"
    y1="96.7741935483871"
    x2="0"
    y2="100"
    stroke="hsla(0,50%,50%,0.6)"
    stroke-width="1"
    transform="translate(-70.7100591715,-102.7821316614)"
    />
  
  <line
    x1="109.6774193548387"
    y1="96.7741935483871"
    x2="0"
    y2="100"
    stroke="hsla(0,50%,50%,0.6)"
    stroke-width="1"
    transform="translate(-70.7100591715,-102.7821316614)"
    />
  
  <line
    x1="131.84713375796179"
    y1="96.81528662420382"
    x2="0"
    y2="100"
    stroke="hsla(0,50%,50%,0.6)"
    stroke-width="1"
    transform="translate(-70.7100591715,-102.7821316614)"
    />
  
  <line
    x1="0"
    y1="100"
    x2="138.41463414634146"
    y2="102.4390243902439"
    stroke="hsla(0,50%,50%,0.6)"
    stroke-width="1"
    transform="translate(-70.7100591715,-102.7821316614)"
    />
  
  <line
    x1="119.04761904761905"
    y1="97.95918367346938"
    x2="0"
    y2="100"
    stroke="hsla(0,50%,50%,0.6)"
    stroke-width="1"
    transform="translate(-70.7100591715,-102.7821316614)"
    />
  
  <line
    x1="140"
    y1="98"
    x2="0"
    y2="100"
    stroke="hsla(0,50%,50%,0.6)"
    stroke-width="1"
    transform="translate(-70.7100591715,-102.7821316614)"
    />
  
  <line
    x1="134.39490445859872"
    y1="98.08917197452229"
    x2="0"
    y2="100"
    stroke="hsla(0,50%,50%,0.6)"
    stroke-width="1"
    transform="translate(-70.7100591715,-102.7821316614)"
    />
  
  <line
    x1="0"
    y1="100"
    x2="108.95522388059702"
    y2="101.49253731343283"
    stroke="hsla(0,50%,50%,0.6)"
    stroke-width="1"
    transform="translate(-70.7100591715,-102.7821316614)"
    />
  
  <line
    x1="0"
    y1="100"
    x2="136.36363636363637"
    y2="101.81818181818181"
    stroke="hsla(0,50%,50%,0.6)"
    stroke-width="1"
    transform="translate(-70.7100591715,-102.7821316614)"
    />
  
  <line
    x1="104.49438202247191"
    y1="98.87640449438203"
    x2="0"
    y2="100"
    stroke="hsla(0,50%,50%,0.6)"
    stroke-width="1"
    transform="translate(-70.7100591715,-102.7821316614)"
    />
  
  <line
    x1="0"
    y1="100"
    x2="102.32558139534883"
    y2="100.7751937984496"
    stroke="hsla(0,50%,50%,0.6)"
    stroke-width="1"
    transform="translate(-70.7100591715,-102.7821316614)"
    />
  
  <line
    x1="110"
    y1="99.16666666666667"
    x2="0"
    y2="100"
    stroke="hsla(0,50%,50%,0.6)"
    stroke-width="1"
    transform="translate(-70.7100591715,-102.7821316614)"
    />
  
  <line
    x1="0"
    y1="100"
    x2="100"
    y2="100"
    stroke="hsla(0,50%,50%,0.6)"
    stroke-width="1"
    transform="translate(-70.7100591715,-102.7821316614)"
    />
  
  <line
    x1="131.84713375796179"
    y1="96.81528662420382"
    x2="117.24137931034483"
    y2="114.65517241379311"
    stroke="hsla(0,50%,50%,0.6)"
    stroke-width="1"
    transform="translate(-70.7100591715,-102.7821316614)"
    />
  
  <line
    x1="134.39490445859872"
    y1="98.08917197452229"
    x2="125.76687116564418"
    y2="107.97546012269939"
    stroke="hsla(0,50%,50%,0.6)"
    stroke-width="1"
    transform="translate(-70.7100591715,-102.7821316614)"
    />
  
  <line
    x1="140"
    y1="98"
    x2="136.36363636363637"
    y2="101.81818181818181"
    stroke="hsla(0,50%,50%,0.6)"
    stroke-width="1"
    transform="translate(-70.7100591715,-102.7821316614)"
    />
  
  <line
    x1="141.42011834319527"
    y1="99.40828402366864"
    x2="138.41463414634146"
    y2="102.4390243902439"
    stroke="hsla(0,50%,50%,0.6)"
    stroke-width="1"
    transform="translate(-70.7100591715,-102.7821316614)"
    />
  
</svg>
