<?xml version="1.0"?>
<!DOCTYPE svg PUBLIC "-//W3C//DTD SVG 1.1//EN"
  "http://www.w3.org/Graphics/SVG/1.1/DTD/svg11.dtd">
<svg
  width="240"
  height="240"
  viewBox="-50 -50 200 200" xmlns="http://www.w3.org/2000/svg" version="1.1">
  <rect
    x="0"
    y="0"
    width="100"
    height="100"
    fill="hsla(206,100%,53%,0.3)"
    stroke="hsl(206,100%,53%)"
    stroke-width="3"
    transform="" />
  
  <path
    d="M 
      105.3333333333
      80
      L
    
      112.7198364008
      91.8711656441
      L
    
      113.6612021857
      91.8032786885
      L
    
      117.8552278820
      98.3163538873
      L
    
      140
      98
      L
    
      141.4201183431
      99.4082840236
      L
    
      139.4366197183
      101.4084507042
      L
    
      136.7794187708
      101.3816102906
      L
    
      134.5679012345
      103.7037037037
      L
    
      131.4559244063
      103.6180529653
      L
    
      124.6913580246
      111.1111111111
      L
    
      0
      100
      z
    "
    fill="hsla(0,0%,50%,0.3)"
    stroke="hsla(0,0%,50%,1)"
    stroke-width="1"
    transform="translate(-64.5677521123,-103.4892351983) scale(1,-1) translate(50,-110)"
    />
  
  
  <line
    x1="105.33333333333333"
    y1="80"
    x2="124.69135802469135"
    y2="111.11111111111111"
    stroke="hsla(0,50%,50%,0.6)"
    stroke-width="1"
    transform="translate(-64.5677521123,-103.4892351983) scale(1,-1) translate(50,-110)"
    />
  
  <line
    x1="113.66120218579235"
    y1="91.80327868852459"
    x2="123.47417840375587"
    y2="107.04225352112677"
    stroke="hsla(0,50%,50%,0.6)"
    stroke-width="1"
    transform="translate(-64.5677521123,-103.4892351983) scale(1,-1) translate(50,-110)"
    />
  
  <line
    x1="130.3030303030303"
    y1="98.7012987012987"
    x2="134.5679012345679"
    y2="103.70370370370371"
    stroke="hsla(0,50%,50%,0.6)"
    stroke-width="1"
    transform="translate(-64.5677521123,-103.4892351983) scale(1,-1) translate(50,-110)"
    />
  
  <line
    x1="136.36363636363637"
    y1="98.18181818181819"
    x2="139.43661971830986"
    y2="101.40845070422536"
    stroke="hsla(0,50%,50%,0.6)"
    stroke-width="1"
    transform="translate(-64.5677521123,-103.4892351983) scale(1,-1) translate(50,-110)"
    />
  
  <line
    x1="140"
    y1="98"
    x2="141.42011834319527"
    y2="99.40828402366864"
    stroke="hsla(0,50%,50%,0.6)"
    stroke-width="1"
    transform="translate(-64.5677521123,-103.4892351983) scale(1,-1) translate(50,-110)"
    />
  
  <line
    x1="103.63636363636364"
    y1="98.18181818181819"
    x2="106.41025641025641"
    y2="107.6923076923077"
    stroke="hsla(0,50%,50%,0.6)"
    stroke-width="1"
    transform="translate(-64.5677521123,-103.4892351983) scale(1,-1) translate(50,-110)"
    />
  
  <line
    x1="101.61290322580645"
    y1="94.6236559139785"
    x2="103.04568527918782"
    y2="100.50761421319797"
    stroke="hsla(0,50%,50%,0.6)"
    stroke-width="1"
    transform="translate(-64.5677521123,-103.4892351983) scale(1,-1) translate(50,-110)"
    />
  
  <line
    x1="100.83682008368201"
    y1="99.581589958159"
    x2="101.21951219512195"
    y2="102.4390243902439"
    stroke="hsla(0,50%,50%,0.6)"
    stroke-width="1"
    transform="translate(-64.5677521123,-103.4892351983) scale(1,-1) translate(50,-110)"
    />
  
  <line
    x1="100.43668122270742"
    y1="97.81659388646288"
    x2="100.7380073800738"
    y2="100.3690036900369"
    stroke="hsla(0,50%,50%,0.6)"
    stroke-width="1"
    transform="translate(-64.5677521123,-103.4892351983) scale(1,-1) translate(50,-110)"
    />
  
  <line
    x1="100"
    y1="95.23809523809524"
    x2="100.63694267515923"
    y2="101.91082802547771"
    stroke="hsla(0,50%,50%,0.6)"
    stroke-width="1"
    transform="translate(-64.5677521123,-103.4892351983) scale(1,-1) translate(50,-110)"
    />
  
  <line
    x1="100"
    y1="96.55172413793103"
    x2="100.25575447570333"
    y2="100.25575447570333"
    stroke="hsla(0,50%,50%,0.6)"
    stroke-width="1"
    transform="translate(-64.5677521123,-103.4892351983) scale(1,-1) translate(50,-110)"
    />
  
  <line
    x1="100"
    y1="95.23809523809524"
    x2="100"
    y2="100"
    stroke="hsla(0,50%,50%,0.6)"
    stroke-width="1"
    transform="translate(-64.5677521123,-103.4892351983) scale(1,-1) translate(50,-110)"
    />
  
  <line
    x1="100.43668122270742"
    y1="97.81659388646288"
    x2="100.25575447570333"
    y2="100.25575447570333"
    stroke="hsla(0,50%,50%,0.6)"
    stroke-width="1"
    transform="translate(-64.5677521123,-103.4892351983) scale(1,-1) translate(50,-110)"
    />
  
  <line
    x1="100.83682008368201"
    y1="99.581589958159"
    x2="100.7380073800738"
    y2="100.3690036900369"
    stroke="hsla(0,50%,50%,0.6)"
    stroke-width="1"
    transform="translate(-64.5677521123,-103.4892351983) scale(1,-1) translate(50,-110)"
    />
  
  <line
    x1="101.61290322580645"
    y1="94.6236559139785"
    x2="100.63694267515923"
    y2="101.91082802547771"
    stroke="hsla(0,50%,50%,0.6)"
    stroke-width="1"
    transform="translate(-64.5677521123,-103.4892351983) scale(1,-1) translate(50,-110)"
    />
  
  <line
    x1="105.33333333333333"
    y1="80"
    x2="101.21951219512195"
    y2="102.4390243902439"
    stroke="hsla(0,50%,50%,0.6)"
    stroke-width="1"
    transform="translate(-64.5677521123,-103.4892351983) scale(1,-1) translate(50,-110)"
    />
  
  <line
    x1="103.63636363636364"
    y1="98.18181818181819"
    x2="103.04568527918782"
    y2="100.50761421319797"
    stroke="hsla(0,50%,50%,0.6)"
    stroke-width="1"
    transform="translate(-64.5677521123,-103.4892351983) scale(1,-1) translate(50,-110)"
    />
  
  <line
    x1="113.66120218579235"
    y1="91.80327868852459"
    x2="106.41025641025641"
    y2="107.6923076923077"
    stroke="hsla(0,50%,50%,0.6)"
    stroke-width="1"
    transform="translate(-64.5677521123,-103.4892351983) scale(1,-1) translate(50,-110)"
    />
  
  <line
    x1="105.33333333333333"
    y1="80"
    x2="0"
    y2="100"
    stroke="hsla(0,50%,50%,0.6)"
    stroke-width="1"
    transform="translate(-64.5677521123,-103.4892351983) scale(1,-1) translate(50,-110)"
    />
  
  <line
    x1="0"
    y1="100"
    x2="124.69135802469135"
    y2="111.11111111111111"
    stroke="hsla(0,50%,50%,0.6)"
    stroke-width="1"
    transform="translate(-64.5677521123,-103.4892351983) scale(1,-1) translate(50,-110)"
    />
  
  <line
    x1="0"
    y1="100"
    x2="106.41025641025641"
    y2="107.6923076923077"
    stroke="hsla(0,50%,50%,0.6)"
    stroke-width="1"
    transform="translate(-64.5677521123,-103.4892351983) scale(1,-1) translate(50,-110)"
    />
  
  <line
    x1="113.66120218579235"
    y1="91.80327868852459"
    x2="0"
    y2="100"
    stroke="hsla(0,50%,50%,0.6)"
    stroke-width="1"
    transform="translate(-64.5677521123,-103.4892351983) scale(1,-1) translate(50,-110)"
    />
  
  <line
    x1="0"
    y1="100"
    x2="123.47417840375587"
    y2="107.04225352112677"
    stroke="hsla(0,50%,50%,0.6)"
    stroke-width="1"
    transform="translate(-64.5677521123,-103.4892351983) scale(1,-1) translate(50,-110)"
    />
  
  <line
    x1="101.61290322580645"
    y1="94.6236559139785"
    x2="0"
    y2="100"
    stroke="hsla(0,50%,50%,0.6)"
    stroke-width="1"
    transform="translate(-64.5677521123,-103.4892351983) scale(1,-1) translate(50,-110)"
    />
  
  <line
    x1="100"
    y1="95.23809523809524"
    x2="0"
    y2="100"
    stroke="hsla(0,50%,50%,0.6)"
    stroke-width="1"
    transform="translate(-64.5677521123,-103.4892351983) scale(1,-1) translate(50,-110)"
    />
  
  <line
    x1="100"
    y1="96.55172413793103"
    x2="0"
    y2="100"
    stroke="hsla(0,50%,50%,0.6)"
    stroke-width="1"
    transform="translate(-64.5677521123,-103.4892351983) scale(1,-1) translate(50,-110)"
    />
  
  <line
    x1="0"
    y1="100"
    x2="134.5679012345679"
    y2="103.70370370370371"
    stroke="hsla(0,50%,50%,0.6)"
    stroke-width="1"
    transform="translate(-64.5677521123,-103.4892351983) scale(1,-1) translate(50,-110)"
    />
  
  <line
    x1="0"
    y1="100"
    x2="101.21951219512195"
    y2="102.4390243902439"
    stroke="hsla(0,50%,50%,0.6)"
    stroke-width="1"
    transform="translate(-64.5677521123,-103.4892351983) scale(1,-1) translate(50,-110)"
    />
  
  <line
    x1="100.43668122270742"
    y1="97.81659388646288"
    x2="0"
    y2="100"
    stroke="hsla(0,50%,50%,0.6)"
    stroke-width="1"
    transform="translate(-64.5677521123,-103.4892351983) scale(1,-1) translate(50,-110)"
    />
  
  <line
    x1="0"
    y1="100"
    x2="100.63694267515923"
    y2="101.91082802547771"
    stroke="hsla(0,50%,50%,0.6)"
    stroke-width="1"
    transform="translate(-64.5677521123,-103.4892351983) scale(1,-1) translate(50,-110)"
    />
  
  <line
    x1="103.63636363636364"
    y1="98.18181818181819"
    x2="0"
    y2="100"
    stroke="hsla(0,50%,50%,0.6)"
    stroke-width="1"
    transform="translate(-64.5677521123,-103.4892351983) scale(1,-1) translate(50,-110)"
    />
  
  <line
    x1="140"
    y1="98"
    x2="0"
    y2="100"
    stroke="hsla(0,50%,50%,0.6)"
    stroke-width="1"
    transform="translate(-64.5677521123,-103.4892351983) scale(1,-1) translate(50,-110)"
    />
  
  <line
    x1="136.36363636363637"
    y1="98.18181818181819"
    x2="0"
    y2="100"
    stroke="hsla(0,50%,50%,0.6)"
    stroke-width="1"
    transform="translate(-64.5677521123,-103.4892351983) scale(1,-1) translate(50,-110)"
    />
  
  <line
    x1="0"
    y1="100"
    x2="139.43661971830986"
    y2="101.40845070422536"
    stroke="hsla(0,50%,50%,0.6)"
    stroke-width="1"
    transform="translate(-64.5677521123,-103.4892351983) scale(1,-1) translate(50,-110)"
    />
  
  <line
    x1="130.3030303030303"
    y1="98.7012987012987"
    x2="0"
    y2="100"
    stroke="hsla(0,50%,50%,0.6)"
    stroke-width="1"
    transform="translate(-64.5677521123,-103.4892351983) scale(1,-1) translate(50,-110)"
    />
  
  <line
    x1="0"
    y1="100"
    x2="103.04568527918782"
    y2="100.50761421319797"
    stroke="hsla(0,50%,50%,0.6)"
    stroke-width="1"
    transform="translate(-64.5677521123,-103.4892351983) scale(1,-1) translate(50,-110)"
    />
  
  <line
    x1="100.83682008368201"
    y1="99.581589958159"
    x2="0"
    y2="100"
    stroke="hsla(0,50%,50%,0.6)"
    stroke-width="1"
    transform="translate(-64.5677521123,-103.4892351983) scale(1,-1) translate(50,-110)"
    />
  
  <line
    x1="0"
    y1="100"
    x2="100.7380073800738"
    y2="100.3690036900369"
    stroke="hsla(0,50%,50%,0.6)"
    stroke-width="1"
    transform="translate(-64.5677521123,-103.4892351983) scale(1,-1) translate(50,-110)"
    />
  
  <line
    x1="0"
    y1="100"
    x2="100.25575447570333"
    y2="100.25575447570333"
    stroke="hsla(0,50%,50%,0.6)"
    stroke-width="1"
    transform="translate(-64.5677521123,-103.4892351983) scale(1,-1) translate(50,-110)"
    />
  
  <line
    x1="0"
    y1="100"
    x2="100"
    y2="100"
    stroke="hsla(0,50%,50%,0.6)"
    stroke-width="1"
    transform="translate(-64.5677521123,-103.4892351983) scale(1,-1) translate(50,-110)"
    />
  
  <line
    x1="130.3030303030303"
    y1="98.7012987012987"
    x2="123.47417840375587"
    y2="107.04225352112677"
    stroke="hsla(0,50%,50%,0.6)"
    stroke-width="1"
    transform="translate(-64.5677521123,-103.4892351983) scale(1,-1) translate(50,-110)"
    />
  
  <line
    x1="136.36363636363637"
    y1="98.18181818181819"
    x2="124.69135802469135"
    y2="111.11111111111111"
    stroke="hsla(0,50%,50%,0.6)"
    stroke-width="1"
    transform="translate(-64.5677521123,-103.4892351983) scale(1,-1) translate(50,-110)"
    />
  
  <line
    x1="140"
    y1="98"
    x2="134.5679012345679"
    y2="103.70370370370371"
    stroke="hsla(0,50%,50%,0.6)"
    stroke-width="1"
    transform="translate(-64.5677521123,-103.4892351983) scale(1,-1) translate(50,-110)"
    />
  
  <line
    x1="141.42011834319527"
    y1="99.40828402366864"
    x2="139.43661971830986"
    y2="101.40845070422536"
    stroke="hsla(0,50%,50%,0.6)"
    stroke-width="1"
    transform="translate(-64.5677521123,-103.4892351983) scale(1,-1) translate(50,-110)"
    />
  
</svg>
