<?xml version="1.0"?>
<!DOCTYPE svg PUBLIC "-//W3C//DTD SVG 1.1//EN"
  "http://www.w3.org/Graphics/SVG/1.1/DTD/svg11.dtd">
<svg
  width="240"
  height="240"
  viewBox="-50 -50 200 200" xmlns="http://www.w3.org/2000/svg" version="1.1">
  <rect
    x="0"
    y="0"
    width="100"
    height="100"
    fill="hsla(206,100%,53%,0.3)"
    stroke="hsl(206,100%,53%)"
    stroke-width="3"
    transform="" />
  
  <path
    d="M 
      104.8780487804
      89.4308943089
      L
    
      106.9565217391
      94.0579710144
      L
    
      120
      93.3333333333
      L
    
      120.3866432337
      93.8488576449
      L
    
      141.2371134020
      92.7835051546
      L
    
      129.4117647058
      105.8823529411
      L
    
      113.0434782608
      105.1383399209
      L
    
      112.4137931034
      106.2068965517
      L
    
      107.2190164090
      105.9200683906
      L
    
      104.6012269938
      111.6564417177
      L
    
      0
      100
      z
    "
    fill="hsla(0,0%,50%,0.3)"
    stroke="hsla(0,0%,50%,1)"
    stroke-width="1"
    transform="translate(-54.1481333590,-104.1849831459) scale(1,-1) translate(50,-110)"
    />
  
  
  <line
    x1="116.53543307086615"
    y1="99.21259842519684"
    x2="118.85521885521885"
    y2="103.03030303030303"
    stroke="hsla(0,50%,50%,0.6)"
    stroke-width="1"
    transform="translate(-54.1481333590,-104.1849831459) scale(1,-1) translate(50,-110)"
    />
  
  <line
    x1="110.56338028169014"
    y1="98.59154929577464"
    x2="113.43283582089552"
    y2="104.4776119402985"
    stroke="hsla(0,50%,50%,0.6)"
    stroke-width="1"
    transform="translate(-54.1481333590,-104.1849831459) scale(1,-1) translate(50,-110)"
    />
  
  <line
    x1="104.8780487804878"
    y1="89.4308943089431"
    x2="112.41379310344827"
    y2="106.20689655172414"
    stroke="hsla(0,50%,50%,0.6)"
    stroke-width="1"
    transform="translate(-54.1481333590,-104.1849831459) scale(1,-1) translate(50,-110)"
    />
  
  <line
    x1="120"
    y1="93.33333333333333"
    x2="129.41176470588235"
    y2="105.88235294117646"
    stroke="hsla(0,50%,50%,0.6)"
    stroke-width="1"
    transform="translate(-54.1481333590,-104.1849831459) scale(1,-1) translate(50,-110)"
    />
  
  <line
    x1="124.69135802469135"
    y1="94.44444444444444"
    x2="131.84713375796179"
    y2="103.18471337579618"
    stroke="hsla(0,50%,50%,0.6)"
    stroke-width="1"
    transform="translate(-54.1481333590,-104.1849831459) scale(1,-1) translate(50,-110)"
    />
  
  <line
    x1="102.09059233449477"
    y1="99.65156794425087"
    x2="104.60122699386503"
    y2="111.65644171779141"
    stroke="hsla(0,50%,50%,0.6)"
    stroke-width="1"
    transform="translate(-54.1481333590,-104.1849831459) scale(1,-1) translate(50,-110)"
    />
  
  <line
    x1="101.68067226890756"
    y1="98.31932773109244"
    x2="102.24719101123596"
    y2="101.12359550561797"
    stroke="hsla(0,50%,50%,0.6)"
    stroke-width="1"
    transform="translate(-54.1481333590,-104.1849831459) scale(1,-1) translate(50,-110)"
    />
  
  <line
    x1="100.63694267515923"
    y1="98.08917197452229"
    x2="101.11731843575419"
    y2="101.67597765363128"
    stroke="hsla(0,50%,50%,0.6)"
    stroke-width="1"
    transform="translate(-54.1481333590,-104.1849831459) scale(1,-1) translate(50,-110)"
    />
  
  <line
    x1="100"
    y1="96"
    x2="100.38167938931298"
    y2="100.76335877862596"
    stroke="hsla(0,50%,50%,0.6)"
    stroke-width="1"
    transform="translate(-54.1481333590,-104.1849831459) scale(1,-1) translate(50,-110)"
    />
  
  <line
    x1="100"
    y1="96.7741935483871"
    x2="100.64724919093851"
    y2="106.79611650485437"
    stroke="hsla(0,50%,50%,0.6)"
    stroke-width="1"
    transform="translate(-54.1481333590,-104.1849831459) scale(1,-1) translate(50,-110)"
    />
  
  <line
    x1="100"
    y1="96"
    x2="100"
    y2="100"
    stroke="hsla(0,50%,50%,0.6)"
    stroke-width="1"
    transform="translate(-54.1481333590,-104.1849831459) scale(1,-1) translate(50,-110)"
    />
  
  <line
    x1="100.63694267515923"
    y1="98.08917197452229"
    x2="100.38167938931298"
    y2="100.76335877862596"
    stroke="hsla(0,50%,50%,0.6)"
    stroke-width="1"
    transform="translate(-54.1481333590,-104.1849831459) scale(1,-1) translate(50,-110)"
    />
  
  <line
    x1="101.68067226890756"
    y1="98.31932773109244"
    x2="101.11731843575419"
    y2="101.67597765363128"
    stroke="hsla(0,50%,50%,0.6)"
    stroke-width="1"
    transform="translate(-54.1481333590,-104.1849831459) scale(1,-1) translate(50,-110)"
    />
  
  <line
    x1="102.09059233449477"
    y1="99.65156794425087"
    x2="100.64724919093851"
    y2="106.79611650485437"
    stroke="hsla(0,50%,50%,0.6)"
    stroke-width="1"
    transform="translate(-54.1481333590,-104.1849831459) scale(1,-1) translate(50,-110)"
    />
  
  <line
    x1="104.8780487804878"
    y1="89.4308943089431"
    x2="102.24719101123596"
    y2="101.12359550561797"
    stroke="hsla(0,50%,50%,0.6)"
    stroke-width="1"
    transform="translate(-54.1481333590,-104.1849831459) scale(1,-1) translate(50,-110)"
    />
  
  <line
    x1="110.56338028169014"
    y1="98.59154929577464"
    x2="104.60122699386503"
    y2="111.65644171779141"
    stroke="hsla(0,50%,50%,0.6)"
    stroke-width="1"
    transform="translate(-54.1481333590,-104.1849831459) scale(1,-1) translate(50,-110)"
    />
  
  <line
    x1="120"
    y1="93.33333333333333"
    x2="112.41379310344827"
    y2="106.20689655172414"
    stroke="hsla(0,50%,50%,0.6)"
    stroke-width="1"
    transform="translate(-54.1481333590,-104.1849831459) scale(1,-1) translate(50,-110)"
    />
  
  <line
    x1="124.69135802469135"
    y1="94.44444444444444"
    x2="118.85521885521885"
    y2="103.03030303030303"
    stroke="hsla(0,50%,50%,0.6)"
    stroke-width="1"
    transform="translate(-54.1481333590,-104.1849831459) scale(1,-1) translate(50,-110)"
    />
  
  <line
    x1="0"
    y1="100"
    x2="104.60122699386503"
    y2="111.65644171779141"
    stroke="hsla(0,50%,50%,0.6)"
    stroke-width="1"
    transform="translate(-54.1481333590,-104.1849831459) scale(1,-1) translate(50,-110)"
    />
  
  <line
    x1="104.8780487804878"
    y1="89.4308943089431"
    x2="0"
    y2="100"
    stroke="hsla(0,50%,50%,0.6)"
    stroke-width="1"
    transform="translate(-54.1481333590,-104.1849831459) scale(1,-1) translate(50,-110)"
    />
  
  <line
    x1="0"
    y1="100"
    x2="100.64724919093851"
    y2="106.79611650485437"
    stroke="hsla(0,50%,50%,0.6)"
    stroke-width="1"
    transform="translate(-54.1481333590,-104.1849831459) scale(1,-1) translate(50,-110)"
    />
  
  <line
    x1="120"
    y1="93.33333333333333"
    x2="0"
    y2="100"
    stroke="hsla(0,50%,50%,0.6)"
    stroke-width="1"
    transform="translate(-54.1481333590,-104.1849831459) scale(1,-1) translate(50,-110)"
    />
  
  <line
    x1="0"
    y1="100"
    x2="112.41379310344827"
    y2="106.20689655172414"
    stroke="hsla(0,50%,50%,0.6)"
    stroke-width="1"
    transform="translate(-54.1481333590,-104.1849831459) scale(1,-1) translate(50,-110)"
    />
  
  <line
    x1="141.23711340206185"
    y1="92.78350515463917"
    x2="0"
    y2="100"
    stroke="hsla(0,50%,50%,0.6)"
    stroke-width="1"
    transform="translate(-54.1481333590,-104.1849831459) scale(1,-1) translate(50,-110)"
    />
  
  <line
    x1="0"
    y1="100"
    x2="129.41176470588235"
    y2="105.88235294117646"
    stroke="hsla(0,50%,50%,0.6)"
    stroke-width="1"
    transform="translate(-54.1481333590,-104.1849831459) scale(1,-1) translate(50,-110)"
    />
  
  <line
    x1="124.69135802469135"
    y1="94.44444444444444"
    x2="0"
    y2="100"
    stroke="hsla(0,50%,50%,0.6)"
    stroke-width="1"
    transform="translate(-54.1481333590,-104.1849831459) scale(1,-1) translate(50,-110)"
    />
  
  <line
    x1="100"
    y1="96"
    x2="0"
    y2="100"
    stroke="hsla(0,50%,50%,0.6)"
    stroke-width="1"
    transform="translate(-54.1481333590,-104.1849831459) scale(1,-1) translate(50,-110)"
    />
  
  <line
    x1="0"
    y1="100"
    x2="113.43283582089552"
    y2="104.4776119402985"
    stroke="hsla(0,50%,50%,0.6)"
    stroke-width="1"
    transform="translate(-54.1481333590,-104.1849831459) scale(1,-1) translate(50,-110)"
    />
  
  <line
    x1="100"
    y1="96.7741935483871"
    x2="0"
    y2="100"
    stroke="hsla(0,50%,50%,0.6)"
    stroke-width="1"
    transform="translate(-54.1481333590,-104.1849831459) scale(1,-1) translate(50,-110)"
    />
  
  <line
    x1="0"
    y1="100"
    x2="118.85521885521885"
    y2="103.03030303030303"
    stroke="hsla(0,50%,50%,0.6)"
    stroke-width="1"
    transform="translate(-54.1481333590,-104.1849831459) scale(1,-1) translate(50,-110)"
    />
  
  <line
    x1="0"
    y1="100"
    x2="131.84713375796179"
    y2="103.18471337579618"
    stroke="hsla(0,50%,50%,0.6)"
    stroke-width="1"
    transform="translate(-54.1481333590,-104.1849831459) scale(1,-1) translate(50,-110)"
    />
  
  <line
    x1="100.63694267515923"
    y1="98.08917197452229"
    x2="0"
    y2="100"
    stroke="hsla(0,50%,50%,0.6)"
    stroke-width="1"
    transform="translate(-54.1481333590,-104.1849831459) scale(1,-1) translate(50,-110)"
    />
  
  <line
    x1="0"
    y1="100"
    x2="101.11731843575419"
    y2="101.67597765363128"
    stroke="hsla(0,50%,50%,0.6)"
    stroke-width="1"
    transform="translate(-54.1481333590,-104.1849831459) scale(1,-1) translate(50,-110)"
    />
  
  <line
    x1="101.68067226890756"
    y1="98.31932773109244"
    x2="0"
    y2="100"
    stroke="hsla(0,50%,50%,0.6)"
    stroke-width="1"
    transform="translate(-54.1481333590,-104.1849831459) scale(1,-1) translate(50,-110)"
    />
  
  <line
    x1="110.56338028169014"
    y1="98.59154929577464"
    x2="0"
    y2="100"
    stroke="hsla(0,50%,50%,0.6)"
    stroke-width="1"
    transform="translate(-54.1481333590,-104.1849831459) scale(1,-1) translate(50,-110)"
    />
  
  <line
    x1="0"
    y1="100"
    x2="102.24719101123596"
    y2="101.12359550561797"
    stroke="hsla(0,50%,50%,0.6)"
    stroke-width="1"
    transform="translate(-54.1481333590,-104.1849831459) scale(1,-1) translate(50,-110)"
    />
  
  <line
    x1="0"
    y1="100"
    x2="100.38167938931298"
    y2="100.76335877862596"
    stroke="hsla(0,50%,50%,0.6)"
    stroke-width="1"
    transform="translate(-54.1481333590,-104.1849831459) scale(1,-1) translate(50,-110)"
    />
  
  <line
    x1="116.53543307086615"
    y1="99.21259842519684"
    x2="0"
    y2="100"
    stroke="hsla(0,50%,50%,0.6)"
    stroke-width="1"
    transform="translate(-54.1481333590,-104.1849831459) scale(1,-1) translate(50,-110)"
    />
  
  <line
    x1="102.09059233449477"
    y1="99.65156794425087"
    x2="0"
    y2="100"
    stroke="hsla(0,50%,50%,0.6)"
    stroke-width="1"
    transform="translate(-54.1481333590,-104.1849831459) scale(1,-1) translate(50,-110)"
    />
  
  <line
    x1="0"
    y1="100"
    x2="100"
    y2="100"
    stroke="hsla(0,50%,50%,0.6)"
    stroke-width="1"
    transform="translate(-54.1481333590,-104.1849831459) scale(1,-1) translate(50,-110)"
    />
  
  <line
    x1="141.23711340206185"
    y1="92.78350515463917"
    x2="129.41176470588235"
    y2="105.88235294117646"
    stroke="hsla(0,50%,50%,0.6)"
    stroke-width="1"
    transform="translate(-54.1481333590,-104.1849831459) scale(1,-1) translate(50,-110)"
    />
  
</svg>
