<?xml version="1.0"?>
<!DOCTYPE svg PUBLIC "-//W3C//DTD SVG 1.1//EN"
  "http://www.w3.org/Graphics/SVG/1.1/DTD/svg11.dtd">
<svg
  width="240"
  height="240"
  viewBox="-500 -500 1000 1000" xmlns="http://www.w3.org/2000/svg" version="1.1">
  <rect
    x="0"
    y="0"
    width="100"
    height="100"
    fill="hsla(206,100%,53%,0.3)"
    stroke="hsl(206,100%,53%)"
    stroke-width="3"
    transform="" />
  
  <path
    d="M 
      100
      94.1176470588
      L
    
      100.0685557586
      94.6983546617
      L
    
      102.0270270270
      94.5945945945
      L
    
      102.2159322231
      95.3064112754
      L
    
      125.6410256410
      94.2307692307
      L
    
      140.8759124087
      112.4087591240
      L
    
      108.2481029363
      109.5348069943
      L
    
      106.7415730337
      112.3595505617
      L
    
      0
      100
      z
    "
    fill="hsla(0,0%,50%,0.3)"
    stroke="hsla(0,0%,50%,1)"
    stroke-width="1"
    transform="translate(-70.4379562043,-103.2632030914)"
    />
  
  
  <line
    x1="112.13592233009709"
    y1="95.14563106796116"
    x2="117.92114695340501"
    y2="105.3763440860215"
    stroke="hsla(0,50%,50%,0.6)"
    stroke-width="1"
    transform="translate(-70.4379562043,-103.2632030914)"
    />
  
  <line
    x1="115.38461538461539"
    y1="96.15384615384616"
    x2="119.6078431372549"
    y2="102.94117647058823"
    stroke="hsla(0,50%,50%,0.6)"
    stroke-width="1"
    transform="translate(-70.4379562043,-103.2632030914)"
    />
  
  <line
    x1="123.25581395348837"
    y1="97.67441860465117"
    x2="127.02702702702703"
    y2="102.70270270270271"
    stroke="hsla(0,50%,50%,0.6)"
    stroke-width="1"
    transform="translate(-70.4379562043,-103.2632030914)"
    />
  
  <line
    x1="106.52173913043478"
    y1="95.65217391304348"
    x2="109.0909090909091"
    y2="101.81818181818181"
    stroke="hsla(0,50%,50%,0.6)"
    stroke-width="1"
    transform="translate(-70.4379562043,-103.2632030914)"
    />
  
  <line
    x1="125.64102564102564"
    y1="94.23076923076923"
    x2="140.87591240875912"
    y2="112.4087591240876"
    stroke="hsla(0,50%,50%,0.6)"
    stroke-width="1"
    transform="translate(-70.4379562043,-103.2632030914)"
    />
  
  <line
    x1="103.47826086956522"
    y1="95.65217391304348"
    x2="104.97925311203319"
    y2="100.4149377593361"
    stroke="hsla(0,50%,50%,0.6)"
    stroke-width="1"
    transform="translate(-70.4379562043,-103.2632030914)"
    />
  
  <line
    x1="102.02702702702703"
    y1="94.5945945945946"
    x2="106.74157303370787"
    y2="112.35955056179775"
    stroke="hsla(0,50%,50%,0.6)"
    stroke-width="1"
    transform="translate(-70.4379562043,-103.2632030914)"
    />
  
  <line
    x1="101.40845070422536"
    y1="98.59154929577464"
    x2="102.04081632653062"
    y2="102.04081632653062"
    stroke="hsla(0,50%,50%,0.6)"
    stroke-width="1"
    transform="translate(-70.4379562043,-103.2632030914)"
    />
  
  <line
    x1="100"
    y1="94.11764705882354"
    x2="100.9090909090909"
    y2="101.81818181818181"
    stroke="hsla(0,50%,50%,0.6)"
    stroke-width="1"
    transform="translate(-70.4379562043,-103.2632030914)"
    />
  
  <line
    x1="100"
    y1="95.23809523809524"
    x2="100.73529411764706"
    y2="102.94117647058823"
    stroke="hsla(0,50%,50%,0.6)"
    stroke-width="1"
    transform="translate(-70.4379562043,-103.2632030914)"
    />
  
  <line
    x1="100"
    y1="94.11764705882354"
    x2="100"
    y2="100"
    stroke="hsla(0,50%,50%,0.6)"
    stroke-width="1"
    transform="translate(-70.4379562043,-103.2632030914)"
    />
  
  <line
    x1="102.02702702702703"
    y1="94.5945945945946"
    x2="100.73529411764706"
    y2="102.94117647058823"
    stroke="hsla(0,50%,50%,0.6)"
    stroke-width="1"
    transform="translate(-70.4379562043,-103.2632030914)"
    />
  
  <line
    x1="103.47826086956522"
    y1="95.65217391304348"
    x2="102.04081632653062"
    y2="102.04081632653062"
    stroke="hsla(0,50%,50%,0.6)"
    stroke-width="1"
    transform="translate(-70.4379562043,-103.2632030914)"
    />
  
  <line
    x1="106.52173913043478"
    y1="95.65217391304348"
    x2="104.97925311203319"
    y2="100.4149377593361"
    stroke="hsla(0,50%,50%,0.6)"
    stroke-width="1"
    transform="translate(-70.4379562043,-103.2632030914)"
    />
  
  <line
    x1="112.13592233009709"
    y1="95.14563106796116"
    x2="109.0909090909091"
    y2="101.81818181818181"
    stroke="hsla(0,50%,50%,0.6)"
    stroke-width="1"
    transform="translate(-70.4379562043,-103.2632030914)"
    />
  
  <line
    x1="115.38461538461539"
    y1="96.15384615384616"
    x2="106.74157303370787"
    y2="112.35955056179775"
    stroke="hsla(0,50%,50%,0.6)"
    stroke-width="1"
    transform="translate(-70.4379562043,-103.2632030914)"
    />
  
  <line
    x1="125.64102564102564"
    y1="94.23076923076923"
    x2="117.92114695340501"
    y2="105.3763440860215"
    stroke="hsla(0,50%,50%,0.6)"
    stroke-width="1"
    transform="translate(-70.4379562043,-103.2632030914)"
    />
  
  <line
    x1="0"
    y1="100"
    x2="106.74157303370787"
    y2="112.35955056179775"
    stroke="hsla(0,50%,50%,0.6)"
    stroke-width="1"
    transform="translate(-70.4379562043,-103.2632030914)"
    />
  
  <line
    x1="0"
    y1="100"
    x2="140.87591240875912"
    y2="112.4087591240876"
    stroke="hsla(0,50%,50%,0.6)"
    stroke-width="1"
    transform="translate(-70.4379562043,-103.2632030914)"
    />
  
  <line
    x1="100"
    y1="94.11764705882354"
    x2="0"
    y2="100"
    stroke="hsla(0,50%,50%,0.6)"
    stroke-width="1"
    transform="translate(-70.4379562043,-103.2632030914)"
    />
  
  <line
    x1="102.02702702702703"
    y1="94.5945945945946"
    x2="0"
    y2="100"
    stroke="hsla(0,50%,50%,0.6)"
    stroke-width="1"
    transform="translate(-70.4379562043,-103.2632030914)"
    />
  
  <line
    x1="100"
    y1="95.23809523809524"
    x2="0"
    y2="100"
    stroke="hsla(0,50%,50%,0.6)"
    stroke-width="1"
    transform="translate(-70.4379562043,-103.2632030914)"
    />
  
  <line
    x1="125.64102564102564"
    y1="94.23076923076923"
    x2="0"
    y2="100"
    stroke="hsla(0,50%,50%,0.6)"
    stroke-width="1"
    transform="translate(-70.4379562043,-103.2632030914)"
    />
  
  <line
    x1="0"
    y1="100"
    x2="117.92114695340501"
    y2="105.3763440860215"
    stroke="hsla(0,50%,50%,0.6)"
    stroke-width="1"
    transform="translate(-70.4379562043,-103.2632030914)"
    />
  
  <line
    x1="112.13592233009709"
    y1="95.14563106796116"
    x2="0"
    y2="100"
    stroke="hsla(0,50%,50%,0.6)"
    stroke-width="1"
    transform="translate(-70.4379562043,-103.2632030914)"
    />
  
  <line
    x1="103.47826086956522"
    y1="95.65217391304348"
    x2="0"
    y2="100"
    stroke="hsla(0,50%,50%,0.6)"
    stroke-width="1"
    transform="translate(-70.4379562043,-103.2632030914)"
    />
  
  <line
    x1="106.52173913043478"
    y1="95.65217391304348"
    x2="0"
    y2="100"
    stroke="hsla(0,50%,50%,0.6)"
    stroke-width="1"
    transform="translate(-70.4379562043,-103.2632030914)"
    />
  
  <line
    x1="115.38461538461539"
    y1="96.15384615384616"
    x2="0"
    y2="100"
    stroke="hsla(0,50%,50%,0.6)"
    stroke-width="1"
    transform="translate(-70.4379562043,-103.2632030914)"
    />
  
  <line
    x1="0"
    y1="100"
    x2="100.73529411764706"
    y2="102.94117647058823"
    stroke="hsla(0,50%,50%,0.6)"
    stroke-width="1"
    transform="translate(-70.4379562043,-103.2632030914)"
    />
  
  <line
    x1="0"
    y1="100"
    x2="119.6078431372549"
    y2="102.94117647058823"
    stroke="hsla(0,50%,50%,0.6)"
    stroke-width="1"
    transform="translate(-70.4379562043,-103.2632030914)"
    />
  
  <line
    x1="0"
    y1="100"
    x2="127.02702702702703"
    y2="102.70270270270271"
    stroke="hsla(0,50%,50%,0.6)"
    stroke-width="1"
    transform="translate(-70.4379562043,-103.2632030914)"
    />
  
  <line
    x1="0"
    y1="100"
    x2="102.04081632653062"
    y2="102.04081632653062"
    stroke="hsla(0,50%,50%,0.6)"
    stroke-width="1"
    transform="translate(-70.4379562043,-103.2632030914)"
    />
  
  <line
    x1="123.25581395348837"
    y1="97.67441860465117"
    x2="0"
    y2="100"
    stroke="hsla(0,50%,50%,0.6)"
    stroke-width="1"
    transform="translate(-70.4379562043,-103.2632030914)"
    />
  
  <line
    x1="0"
    y1="100"
    x2="100.9090909090909"
    y2="101.81818181818181"
    stroke="hsla(0,50%,50%,0.6)"
    stroke-width="1"
    transform="translate(-70.4379562043,-103.2632030914)"
    />
  
  <line
    x1="0"
    y1="100"
    x2="109.0909090909091"
    y2="101.81818181818181"
    stroke="hsla(0,50%,50%,0.6)"
    stroke-width="1"
    transform="translate(-70.4379562043,-103.2632030914)"
    />
  
  <line
    x1="101.40845070422536"
    y1="98.59154929577464"
    x2="0"
    y2="100"
    stroke="hsla(0,50%,50%,0.6)"
    stroke-width="1"
    transform="translate(-70.4379562043,-103.2632030914)"
    />
  
  <line
    x1="129.8507462686567"
    y1="99.25373134328358"
    x2="0"
    y2="100"
    stroke="hsla(0,50%,50%,0.6)"
    stroke-width="1"
    transform="translate(-70.4379562043,-103.2632030914)"
    />
  
  <line
    x1="0"
    y1="100"
    x2="104.97925311203319"
    y2="100.4149377593361"
    stroke="hsla(0,50%,50%,0.6)"
    stroke-width="1"
    transform="translate(-70.4379562043,-103.2632030914)"
    />
  
  <line
    x1="0"
    y1="100"
    x2="100"
    y2="100"
    stroke="hsla(0,50%,50%,0.6)"
    stroke-width="1"
    transform="translate(-70.4379562043,-103.2632030914)"
    />
  
  <line
    x1="129.8507462686567"
    y1="99.25373134328358"
    x2="127.02702702702703"
    y2="102.70270270270271"
    stroke="hsla(0,50%,50%,0.6)"
    stroke-width="1"
    transform="translate(-70.4379562043,-103.2632030914)"
    />
  
</svg>
