<?xml version="1.0"?>
<!DOCTYPE svg PUBLIC "-//W3C//DTD SVG 1.1//EN"
  "http://www.w3.org/Graphics/SVG/1.1/DTD/svg11.dtd">
<svg
  width="240"
  height="240"
  viewBox="-50 -50 200 200" xmlns="http://www.w3.org/2000/svg" version="1.1">
  <rect
    x="0"
    y="0"
    width="100"
    height="100"
    fill="hsla(206,100%,53%,0.3)"
    stroke="hsl(206,100%,53%)"
    stroke-width="3"
    transform="" />
  
  <path
    d="M 
      114.1643059490
      81.5864022662
      L
    
      123.5567560776
      93.0586092091
      L
    
      136.9230769230
      92.3076923076
      L
    
      141.3793103448
      96.5517241379
      L
    
      133.3333333333
      105
      L
    
      126.5004616805
      104.7437673130
      L
    
      124.4897959183
      107.1428571428
      L
    
      101.1936071211
      105.8061905725
      L
    
      101.0638297872
      106.3829787234
      L
    
      0
      100
      z
    "
    fill="hsla(0,0%,50%,0.3)"
    stroke="hsla(0,0%,50%,1)"
    stroke-width="1"
    transform="translate(-53.8359239232,-102.8878056083) scale(1,-1) translate(50,-110)"
    />
  
  
  <line
    x1="111.76470588235294"
    y1="97.05882352941177"
    x2="114.63414634146342"
    y2="102.4390243902439"
    stroke="hsla(0,50%,50%,0.6)"
    stroke-width="1"
    transform="translate(-53.8359239232,-102.8878056083) scale(1,-1) translate(50,-110)"
    />
  
  <line
    x1="117.82178217821782"
    y1="97.02970297029702"
    x2="124.48979591836735"
    y2="107.14285714285714"
    stroke="hsla(0,50%,50%,0.6)"
    stroke-width="1"
    transform="translate(-53.8359239232,-102.8878056083) scale(1,-1) translate(50,-110)"
    />
  
  <line
    x1="107.97872340425532"
    y1="95.74468085106383"
    x2="110.15228426395939"
    y2="100.50761421319797"
    stroke="hsla(0,50%,50%,0.6)"
    stroke-width="1"
    transform="translate(-53.8359239232,-102.8878056083) scale(1,-1) translate(50,-110)"
    />
  
  <line
    x1="114.1643059490085"
    y1="81.58640226628896"
    x2="133.33333333333334"
    y2="105"
    stroke="hsla(0,50%,50%,0.6)"
    stroke-width="1"
    transform="translate(-53.8359239232,-102.8878056083) scale(1,-1) translate(50,-110)"
    />
  
  <line
    x1="104.96894409937889"
    y1="95.03105590062111"
    x2="106.96864111498257"
    y2="100.34843205574913"
    stroke="hsla(0,50%,50%,0.6)"
    stroke-width="1"
    transform="translate(-53.8359239232,-102.8878056083) scale(1,-1) translate(50,-110)"
    />
  
  <line
    x1="136.92307692307693"
    y1="92.3076923076923"
    x2="141.3793103448276"
    y2="96.55172413793103"
    stroke="hsla(0,50%,50%,0.6)"
    stroke-width="1"
    transform="translate(-53.8359239232,-102.8878056083) scale(1,-1) translate(50,-110)"
    />
  
  <line
    x1="102.94117647058823"
    y1="98.03921568627452"
    x2="104.71204188481676"
    y2="104.71204188481676"
    stroke="hsla(0,50%,50%,0.6)"
    stroke-width="1"
    transform="translate(-53.8359239232,-102.8878056083) scale(1,-1) translate(50,-110)"
    />
  
  <line
    x1="101.40845070422536"
    y1="98.59154929577464"
    x2="102.45398773006134"
    y2="104.29447852760737"
    stroke="hsla(0,50%,50%,0.6)"
    stroke-width="1"
    transform="translate(-53.8359239232,-102.8878056083) scale(1,-1) translate(50,-110)"
    />
  
  <line
    x1="100.40650406504065"
    y1="97.5609756097561"
    x2="100.9090909090909"
    y2="101.81818181818181"
    stroke="hsla(0,50%,50%,0.6)"
    stroke-width="1"
    transform="translate(-53.8359239232,-102.8878056083) scale(1,-1) translate(50,-110)"
    />
  
  <line
    x1="100"
    y1="95.23809523809524"
    x2="101.06382978723404"
    y2="106.38297872340425"
    stroke="hsla(0,50%,50%,0.6)"
    stroke-width="1"
    transform="translate(-53.8359239232,-102.8878056083) scale(1,-1) translate(50,-110)"
    />
  
  <line
    x1="100"
    y1="96.7741935483871"
    x2="100.22271714922049"
    y2="100.22271714922049"
    stroke="hsla(0,50%,50%,0.6)"
    stroke-width="1"
    transform="translate(-53.8359239232,-102.8878056083) scale(1,-1) translate(50,-110)"
    />
  
  <line
    x1="100"
    y1="95.23809523809524"
    x2="100"
    y2="100"
    stroke="hsla(0,50%,50%,0.6)"
    stroke-width="1"
    transform="translate(-53.8359239232,-102.8878056083) scale(1,-1) translate(50,-110)"
    />
  
  <line
    x1="100.40650406504065"
    y1="97.5609756097561"
    x2="100.22271714922049"
    y2="100.22271714922049"
    stroke="hsla(0,50%,50%,0.6)"
    stroke-width="1"
    transform="translate(-53.8359239232,-102.8878056083) scale(1,-1) translate(50,-110)"
    />
  
  <line
    x1="101.40845070422536"
    y1="98.59154929577464"
    x2="100.9090909090909"
    y2="101.81818181818181"
    stroke="hsla(0,50%,50%,0.6)"
    stroke-width="1"
    transform="translate(-53.8359239232,-102.8878056083) scale(1,-1) translate(50,-110)"
    />
  
  <line
    x1="102.94117647058823"
    y1="98.03921568627452"
    x2="101.06382978723404"
    y2="106.38297872340425"
    stroke="hsla(0,50%,50%,0.6)"
    stroke-width="1"
    transform="translate(-53.8359239232,-102.8878056083) scale(1,-1) translate(50,-110)"
    />
  
  <line
    x1="104.96894409937889"
    y1="95.03105590062111"
    x2="102.45398773006134"
    y2="104.29447852760737"
    stroke="hsla(0,50%,50%,0.6)"
    stroke-width="1"
    transform="translate(-53.8359239232,-102.8878056083) scale(1,-1) translate(50,-110)"
    />
  
  <line
    x1="107.97872340425532"
    y1="95.74468085106383"
    x2="104.71204188481676"
    y2="104.71204188481676"
    stroke="hsla(0,50%,50%,0.6)"
    stroke-width="1"
    transform="translate(-53.8359239232,-102.8878056083) scale(1,-1) translate(50,-110)"
    />
  
  <line
    x1="114.1643059490085"
    y1="81.58640226628896"
    x2="106.96864111498257"
    y2="100.34843205574913"
    stroke="hsla(0,50%,50%,0.6)"
    stroke-width="1"
    transform="translate(-53.8359239232,-102.8878056083) scale(1,-1) translate(50,-110)"
    />
  
  <line
    x1="111.76470588235294"
    y1="97.05882352941177"
    x2="110.15228426395939"
    y2="100.50761421319797"
    stroke="hsla(0,50%,50%,0.6)"
    stroke-width="1"
    transform="translate(-53.8359239232,-102.8878056083) scale(1,-1) translate(50,-110)"
    />
  
  <line
    x1="117.82178217821782"
    y1="97.02970297029702"
    x2="114.63414634146342"
    y2="102.4390243902439"
    stroke="hsla(0,50%,50%,0.6)"
    stroke-width="1"
    transform="translate(-53.8359239232,-102.8878056083) scale(1,-1) translate(50,-110)"
    />
  
  <line
    x1="114.1643059490085"
    y1="81.58640226628896"
    x2="0"
    y2="100"
    stroke="hsla(0,50%,50%,0.6)"
    stroke-width="1"
    transform="translate(-53.8359239232,-102.8878056083) scale(1,-1) translate(50,-110)"
    />
  
  <line
    x1="0"
    y1="100"
    x2="101.06382978723404"
    y2="106.38297872340425"
    stroke="hsla(0,50%,50%,0.6)"
    stroke-width="1"
    transform="translate(-53.8359239232,-102.8878056083) scale(1,-1) translate(50,-110)"
    />
  
  <line
    x1="0"
    y1="100"
    x2="124.48979591836735"
    y2="107.14285714285714"
    stroke="hsla(0,50%,50%,0.6)"
    stroke-width="1"
    transform="translate(-53.8359239232,-102.8878056083) scale(1,-1) translate(50,-110)"
    />
  
  <line
    x1="136.92307692307693"
    y1="92.3076923076923"
    x2="0"
    y2="100"
    stroke="hsla(0,50%,50%,0.6)"
    stroke-width="1"
    transform="translate(-53.8359239232,-102.8878056083) scale(1,-1) translate(50,-110)"
    />
  
  <line
    x1="100"
    y1="95.23809523809524"
    x2="0"
    y2="100"
    stroke="hsla(0,50%,50%,0.6)"
    stroke-width="1"
    transform="translate(-53.8359239232,-102.8878056083) scale(1,-1) translate(50,-110)"
    />
  
  <line
    x1="104.96894409937889"
    y1="95.03105590062111"
    x2="0"
    y2="100"
    stroke="hsla(0,50%,50%,0.6)"
    stroke-width="1"
    transform="translate(-53.8359239232,-102.8878056083) scale(1,-1) translate(50,-110)"
    />
  
  <line
    x1="0"
    y1="100"
    x2="104.71204188481676"
    y2="104.71204188481676"
    stroke="hsla(0,50%,50%,0.6)"
    stroke-width="1"
    transform="translate(-53.8359239232,-102.8878056083) scale(1,-1) translate(50,-110)"
    />
  
  <line
    x1="0"
    y1="100"
    x2="102.45398773006134"
    y2="104.29447852760737"
    stroke="hsla(0,50%,50%,0.6)"
    stroke-width="1"
    transform="translate(-53.8359239232,-102.8878056083) scale(1,-1) translate(50,-110)"
    />
  
  <line
    x1="107.97872340425532"
    y1="95.74468085106383"
    x2="0"
    y2="100"
    stroke="hsla(0,50%,50%,0.6)"
    stroke-width="1"
    transform="translate(-53.8359239232,-102.8878056083) scale(1,-1) translate(50,-110)"
    />
  
  <line
    x1="0"
    y1="100"
    x2="133.33333333333334"
    y2="105"
    stroke="hsla(0,50%,50%,0.6)"
    stroke-width="1"
    transform="translate(-53.8359239232,-102.8878056083) scale(1,-1) translate(50,-110)"
    />
  
  <line
    x1="100"
    y1="96.7741935483871"
    x2="0"
    y2="100"
    stroke="hsla(0,50%,50%,0.6)"
    stroke-width="1"
    transform="translate(-53.8359239232,-102.8878056083) scale(1,-1) translate(50,-110)"
    />
  
  <line
    x1="111.76470588235294"
    y1="97.05882352941177"
    x2="0"
    y2="100"
    stroke="hsla(0,50%,50%,0.6)"
    stroke-width="1"
    transform="translate(-53.8359239232,-102.8878056083) scale(1,-1) translate(50,-110)"
    />
  
  <line
    x1="117.82178217821782"
    y1="97.02970297029702"
    x2="0"
    y2="100"
    stroke="hsla(0,50%,50%,0.6)"
    stroke-width="1"
    transform="translate(-53.8359239232,-102.8878056083) scale(1,-1) translate(50,-110)"
    />
  
  <line
    x1="100.40650406504065"
    y1="97.5609756097561"
    x2="0"
    y2="100"
    stroke="hsla(0,50%,50%,0.6)"
    stroke-width="1"
    transform="translate(-53.8359239232,-102.8878056083) scale(1,-1) translate(50,-110)"
    />
  
  <line
    x1="0"
    y1="100"
    x2="114.63414634146342"
    y2="102.4390243902439"
    stroke="hsla(0,50%,50%,0.6)"
    stroke-width="1"
    transform="translate(-53.8359239232,-102.8878056083) scale(1,-1) translate(50,-110)"
    />
  
  <line
    x1="102.94117647058823"
    y1="98.03921568627452"
    x2="0"
    y2="100"
    stroke="hsla(0,50%,50%,0.6)"
    stroke-width="1"
    transform="translate(-53.8359239232,-102.8878056083) scale(1,-1) translate(50,-110)"
    />
  
  <line
    x1="0"
    y1="100"
    x2="100.9090909090909"
    y2="101.81818181818181"
    stroke="hsla(0,50%,50%,0.6)"
    stroke-width="1"
    transform="translate(-53.8359239232,-102.8878056083) scale(1,-1) translate(50,-110)"
    />
  
  <line
    x1="101.40845070422536"
    y1="98.59154929577464"
    x2="0"
    y2="100"
    stroke="hsla(0,50%,50%,0.6)"
    stroke-width="1"
    transform="translate(-53.8359239232,-102.8878056083) scale(1,-1) translate(50,-110)"
    />
  
  <line
    x1="0"
    y1="100"
    x2="110.15228426395939"
    y2="100.50761421319797"
    stroke="hsla(0,50%,50%,0.6)"
    stroke-width="1"
    transform="translate(-53.8359239232,-102.8878056083) scale(1,-1) translate(50,-110)"
    />
  
  <line
    x1="0"
    y1="100"
    x2="106.96864111498257"
    y2="100.34843205574913"
    stroke="hsla(0,50%,50%,0.6)"
    stroke-width="1"
    transform="translate(-53.8359239232,-102.8878056083) scale(1,-1) translate(50,-110)"
    />
  
  <line
    x1="0"
    y1="100"
    x2="100.22271714922049"
    y2="100.22271714922049"
    stroke="hsla(0,50%,50%,0.6)"
    stroke-width="1"
    transform="translate(-53.8359239232,-102.8878056083) scale(1,-1) translate(50,-110)"
    />
  
  <line
    x1="0"
    y1="100"
    x2="100"
    y2="100"
    stroke="hsla(0,50%,50%,0.6)"
    stroke-width="1"
    transform="translate(-53.8359239232,-102.8878056083) scale(1,-1) translate(50,-110)"
    />
  
  <line
    x1="136.92307692307693"
    y1="92.3076923076923"
    x2="124.48979591836735"
    y2="107.14285714285714"
    stroke="hsla(0,50%,50%,0.6)"
    stroke-width="1"
    transform="translate(-53.8359239232,-102.8878056083) scale(1,-1) translate(50,-110)"
    />
  
  <line
    x1="141.3793103448276"
    y1="96.55172413793103"
    x2="133.33333333333334"
    y2="105"
    stroke="hsla(0,50%,50%,0.6)"
    stroke-width="1"
    transform="translate(-53.8359239232,-102.8878056083) scale(1,-1) translate(50,-110)"
    />
  
</svg>
