<?xml version="1.0"?>
<!DOCTYPE svg PUBLIC "-//W3C//DTD SVG 1.1//EN"
  "http://www.w3.org/Graphics/SVG/1.1/DTD/svg11.dtd">
<svg
  width="240"
  height="240"
  viewBox="-500 -500 1000 1000" xmlns="http://www.w3.org/2000/svg" version="1.1">
  <rect
    x="0"
    y="0"
    width="100"
    height="100"
    fill="hsla(206,100%,53%,0.3)"
    stroke="hsl(206,100%,53%)"
    stroke-width="3"
    transform="" />
  
  <path
    d="M 
      132.2580645161
      90.3225806451
      L
    
      141.4201183431
      99.4082840236
      L
    
      139.4366197183
      101.4084507042
      L
    
      131.5674494811
      101.3289641361
      L
    
      128.5714285714
      104.7619047619
      L
    
      118.6024699077
      104.3926840706
      L
    
      116.9491525423
      106.7796610169
      L
    
      107.0876288659
      106.2079784849
      L
    
      102.5906735751
      116.0621761658
      L
    
      0
      100
      z
    "
    fill="hsla(0,0%,50%,0.3)"
    stroke="hsla(0,0%,50%,1)"
    stroke-width="1"
    transform="translate(-70.7100591715,-103.1923784054)"
    />
  
  
  <line
    x1="111.49425287356321"
    y1="96.55172413793103"
    x2="116.94915254237289"
    y2="106.77966101694915"
    stroke="hsla(0,50%,50%,0.6)"
    stroke-width="1"
    transform="translate(-70.7100591715,-103.1923784054)"
    />
  
  <line
    x1="118.3206106870229"
    y1="96.18320610687023"
    x2="122.85714285714286"
    y2="102.85714285714286"
    stroke="hsla(0,50%,50%,0.6)"
    stroke-width="1"
    transform="translate(-70.7100591715,-103.1923784054)"
    />
  
  <line
    x1="123.25581395348837"
    y1="97.67441860465117"
    x2="128.57142857142858"
    y2="104.76190476190476"
    stroke="hsla(0,50%,50%,0.6)"
    stroke-width="1"
    transform="translate(-70.7100591715,-103.1923784054)"
    />
  
  <line
    x1="106.06060606060606"
    y1="98.98989898989899"
    x2="108.16326530612245"
    y2="104.76190476190476"
    stroke="hsla(0,50%,50%,0.6)"
    stroke-width="1"
    transform="translate(-70.7100591715,-103.1923784054)"
    />
  
  <line
    x1="135.2941176470588"
    y1="97.05882352941177"
    x2="139.43661971830986"
    y2="101.40845070422536"
    stroke="hsla(0,50%,50%,0.6)"
    stroke-width="1"
    transform="translate(-70.7100591715,-103.1923784054)"
    />
  
  <line
    x1="132.25806451612902"
    y1="90.3225806451613"
    x2="141.42011834319527"
    y2="99.40828402366864"
    stroke="hsla(0,50%,50%,0.6)"
    stroke-width="1"
    transform="translate(-70.7100591715,-103.1923784054)"
    />
  
  <line
    x1="100.9090909090909"
    y1="98.18181818181819"
    x2="102.59740259740259"
    y2="109.0909090909091"
    stroke="hsla(0,50%,50%,0.6)"
    stroke-width="1"
    transform="translate(-70.7100591715,-103.1923784054)"
    />
  
  <line
    x1="100"
    y1="94.11764705882354"
    x2="102.59067357512953"
    y2="116.06217616580311"
    stroke="hsla(0,50%,50%,0.6)"
    stroke-width="1"
    transform="translate(-70.7100591715,-103.1923784054)"
    />
  
  <line
    x1="100.50251256281408"
    y1="99.49748743718592"
    x2="100.62111801242236"
    y2="100.62111801242236"
    stroke="hsla(0,50%,50%,0.6)"
    stroke-width="1"
    transform="translate(-70.7100591715,-103.1923784054)"
    />
  
  <line
    x1="100"
    y1="96"
    x2="100.38167938931298"
    y2="100.76335877862596"
    stroke="hsla(0,50%,50%,0.6)"
    stroke-width="1"
    transform="translate(-70.7100591715,-103.1923784054)"
    />
  
  <line
    x1="100"
    y1="94.11764705882354"
    x2="100"
    y2="100"
    stroke="hsla(0,50%,50%,0.6)"
    stroke-width="1"
    transform="translate(-70.7100591715,-103.1923784054)"
    />
  
  <line
    x1="100.50251256281408"
    y1="99.49748743718592"
    x2="100.38167938931298"
    y2="100.76335877862596"
    stroke="hsla(0,50%,50%,0.6)"
    stroke-width="1"
    transform="translate(-70.7100591715,-103.1923784054)"
    />
  
  <line
    x1="100.9090909090909"
    y1="98.18181818181819"
    x2="100.62111801242236"
    y2="100.62111801242236"
    stroke="hsla(0,50%,50%,0.6)"
    stroke-width="1"
    transform="translate(-70.7100591715,-103.1923784054)"
    />
  
  <line
    x1="106.06060606060606"
    y1="98.98989898989899"
    x2="102.59740259740259"
    y2="109.0909090909091"
    stroke="hsla(0,50%,50%,0.6)"
    stroke-width="1"
    transform="translate(-70.7100591715,-103.1923784054)"
    />
  
  <line
    x1="111.49425287356321"
    y1="96.55172413793103"
    x2="102.59067357512953"
    y2="116.06217616580311"
    stroke="hsla(0,50%,50%,0.6)"
    stroke-width="1"
    transform="translate(-70.7100591715,-103.1923784054)"
    />
  
  <line
    x1="111.76470588235294"
    y1="97.05882352941177"
    x2="108.16326530612245"
    y2="104.76190476190476"
    stroke="hsla(0,50%,50%,0.6)"
    stroke-width="1"
    transform="translate(-70.7100591715,-103.1923784054)"
    />
  
  <line
    x1="118.3206106870229"
    y1="96.18320610687023"
    x2="114.63414634146342"
    y2="102.4390243902439"
    stroke="hsla(0,50%,50%,0.6)"
    stroke-width="1"
    transform="translate(-70.7100591715,-103.1923784054)"
    />
  
  <line
    x1="123.25581395348837"
    y1="97.67441860465117"
    x2="116.94915254237289"
    y2="106.77966101694915"
    stroke="hsla(0,50%,50%,0.6)"
    stroke-width="1"
    transform="translate(-70.7100591715,-103.1923784054)"
    />
  
  <line
    x1="132.25806451612902"
    y1="90.3225806451613"
    x2="122.85714285714286"
    y2="102.85714285714286"
    stroke="hsla(0,50%,50%,0.6)"
    stroke-width="1"
    transform="translate(-70.7100591715,-103.1923784054)"
    />
  
  <line
    x1="0"
    y1="100"
    x2="102.59067357512953"
    y2="116.06217616580311"
    stroke="hsla(0,50%,50%,0.6)"
    stroke-width="1"
    transform="translate(-70.7100591715,-103.1923784054)"
    />
  
  <line
    x1="0"
    y1="100"
    x2="102.59740259740259"
    y2="109.0909090909091"
    stroke="hsla(0,50%,50%,0.6)"
    stroke-width="1"
    transform="translate(-70.7100591715,-103.1923784054)"
    />
  
  <line
    x1="132.25806451612902"
    y1="90.3225806451613"
    x2="0"
    y2="100"
    stroke="hsla(0,50%,50%,0.6)"
    stroke-width="1"
    transform="translate(-70.7100591715,-103.1923784054)"
    />
  
  <line
    x1="100"
    y1="94.11764705882354"
    x2="0"
    y2="100"
    stroke="hsla(0,50%,50%,0.6)"
    stroke-width="1"
    transform="translate(-70.7100591715,-103.1923784054)"
    />
  
  <line
    x1="0"
    y1="100"
    x2="116.94915254237289"
    y2="106.77966101694915"
    stroke="hsla(0,50%,50%,0.6)"
    stroke-width="1"
    transform="translate(-70.7100591715,-103.1923784054)"
    />
  
  <line
    x1="0"
    y1="100"
    x2="108.16326530612245"
    y2="104.76190476190476"
    stroke="hsla(0,50%,50%,0.6)"
    stroke-width="1"
    transform="translate(-70.7100591715,-103.1923784054)"
    />
  
  <line
    x1="100"
    y1="96"
    x2="0"
    y2="100"
    stroke="hsla(0,50%,50%,0.6)"
    stroke-width="1"
    transform="translate(-70.7100591715,-103.1923784054)"
    />
  
  <line
    x1="0"
    y1="100"
    x2="128.57142857142858"
    y2="104.76190476190476"
    stroke="hsla(0,50%,50%,0.6)"
    stroke-width="1"
    transform="translate(-70.7100591715,-103.1923784054)"
    />
  
  <line
    x1="118.3206106870229"
    y1="96.18320610687023"
    x2="0"
    y2="100"
    stroke="hsla(0,50%,50%,0.6)"
    stroke-width="1"
    transform="translate(-70.7100591715,-103.1923784054)"
    />
  
  <line
    x1="111.49425287356321"
    y1="96.55172413793103"
    x2="0"
    y2="100"
    stroke="hsla(0,50%,50%,0.6)"
    stroke-width="1"
    transform="translate(-70.7100591715,-103.1923784054)"
    />
  
  <line
    x1="111.76470588235294"
    y1="97.05882352941177"
    x2="0"
    y2="100"
    stroke="hsla(0,50%,50%,0.6)"
    stroke-width="1"
    transform="translate(-70.7100591715,-103.1923784054)"
    />
  
  <line
    x1="0"
    y1="100"
    x2="122.85714285714286"
    y2="102.85714285714286"
    stroke="hsla(0,50%,50%,0.6)"
    stroke-width="1"
    transform="translate(-70.7100591715,-103.1923784054)"
    />
  
  <line
    x1="135.2941176470588"
    y1="97.05882352941177"
    x2="0"
    y2="100"
    stroke="hsla(0,50%,50%,0.6)"
    stroke-width="1"
    transform="translate(-70.7100591715,-103.1923784054)"
    />
  
  <line
    x1="0"
    y1="100"
    x2="114.63414634146342"
    y2="102.4390243902439"
    stroke="hsla(0,50%,50%,0.6)"
    stroke-width="1"
    transform="translate(-70.7100591715,-103.1923784054)"
    />
  
  <line
    x1="123.25581395348837"
    y1="97.67441860465117"
    x2="0"
    y2="100"
    stroke="hsla(0,50%,50%,0.6)"
    stroke-width="1"
    transform="translate(-70.7100591715,-103.1923784054)"
    />
  
  <line
    x1="100.9090909090909"
    y1="98.18181818181819"
    x2="0"
    y2="100"
    stroke="hsla(0,50%,50%,0.6)"
    stroke-width="1"
    transform="translate(-70.7100591715,-103.1923784054)"
    />
  
  <line
    x1="0"
    y1="100"
    x2="139.43661971830986"
    y2="101.40845070422536"
    stroke="hsla(0,50%,50%,0.6)"
    stroke-width="1"
    transform="translate(-70.7100591715,-103.1923784054)"
    />
  
  <line
    x1="106.06060606060606"
    y1="98.98989898989899"
    x2="0"
    y2="100"
    stroke="hsla(0,50%,50%,0.6)"
    stroke-width="1"
    transform="translate(-70.7100591715,-103.1923784054)"
    />
  
  <line
    x1="0"
    y1="100"
    x2="100.38167938931298"
    y2="100.76335877862596"
    stroke="hsla(0,50%,50%,0.6)"
    stroke-width="1"
    transform="translate(-70.7100591715,-103.1923784054)"
    />
  
  <line
    x1="0"
    y1="100"
    x2="100.62111801242236"
    y2="100.62111801242236"
    stroke="hsla(0,50%,50%,0.6)"
    stroke-width="1"
    transform="translate(-70.7100591715,-103.1923784054)"
    />
  
  <line
    x1="100.50251256281408"
    y1="99.49748743718592"
    x2="0"
    y2="100"
    stroke="hsla(0,50%,50%,0.6)"
    stroke-width="1"
    transform="translate(-70.7100591715,-103.1923784054)"
    />
  
  <line
    x1="0"
    y1="100"
    x2="100"
    y2="100"
    stroke="hsla(0,50%,50%,0.6)"
    stroke-width="1"
    transform="translate(-70.7100591715,-103.1923784054)"
    />
  
  <line
    x1="135.2941176470588"
    y1="97.05882352941177"
    x2="128.57142857142858"
    y2="104.76190476190476"
    stroke="hsla(0,50%,50%,0.6)"
    stroke-width="1"
    transform="translate(-70.7100591715,-103.1923784054)"
    />
  
  <line
    x1="141.42011834319527"
    y1="99.40828402366864"
    x2="139.43661971830986"
    y2="101.40845070422536"
    stroke="hsla(0,50%,50%,0.6)"
    stroke-width="1"
    transform="translate(-70.7100591715,-103.1923784054)"
    />
  
</svg>
