<?xml version="1.0"?>
<!DOCTYPE svg PUBLIC "-//W3C//DTD SVG 1.1//EN"
  "http://www.w3.org/Graphics/SVG/1.1/DTD/svg11.dtd">
<svg
  width="240"
  height="240"
  viewBox="-50 -50 200 200" xmlns="http://www.w3.org/2000/svg" version="1.1">
  <rect
    x="0"
    y="0"
    width="100"
    height="100"
    fill="hsla(206,100%,53%,0.3)"
    stroke="hsl(206,100%,53%)"
    stroke-width="3"
    transform="" />
  
  <path
    d="M 
      114.3589743589
      80
      L
    
      119.0713047943
      85.5272447211
      L
    
      130.2158273381
      84.1726618705
      L
    
      141.3114754098
      94.4262295081
      L
    
      133.6898395721
      102.6737967914
      L
    
      118.2212581344
      102.3644251626
      L
    
      115.3846153846
      106.6666666666
      L
    
      103.1828660667
      105.9616767060
      L
    
      102.1276595744
      109.2198581560
      L
    
      0
      100
      z
    "
    fill="hsla(0,0%,50%,0.3)"
    stroke="hsla(0,0%,50%,1)"
    stroke-width="1"
    transform="translate(-53.4931996646,-103.4098069334) scale(1,-1) translate(50,-110)"
    />
  
  
  <line
    x1="111.1731843575419"
    y1="98.32402234636872"
    x2="115.38461538461539"
    y2="106.66666666666667"
    stroke="hsla(0,50%,50%,0.6)"
    stroke-width="1"
    transform="translate(-53.4931996646,-103.4098069334) scale(1,-1) translate(50,-110)"
    />
  
  <line
    x1="105.91133004926108"
    y1="97.53694581280789"
    x2="108.42105263157895"
    y2="104.21052631578948"
    stroke="hsla(0,50%,50%,0.6)"
    stroke-width="1"
    transform="translate(-53.4931996646,-103.4098069334) scale(1,-1) translate(50,-110)"
    />
  
  <line
    x1="114.35897435897436"
    y1="80"
    x2="133.6898395721925"
    y2="102.67379679144385"
    stroke="hsla(0,50%,50%,0.6)"
    stroke-width="1"
    transform="translate(-53.4931996646,-103.4098069334) scale(1,-1) translate(50,-110)"
    />
  
  <line
    x1="104.61538461538461"
    y1="98.46153846153847"
    x2="105.91133004926108"
    y2="102.46305418719211"
    stroke="hsla(0,50%,50%,0.6)"
    stroke-width="1"
    transform="translate(-53.4931996646,-103.4098069334) scale(1,-1) translate(50,-110)"
    />
  
  <line
    x1="103.88349514563107"
    y1="99.02912621359224"
    x2="104.16666666666667"
    y2="100"
    stroke="hsla(0,50%,50%,0.6)"
    stroke-width="1"
    transform="translate(-53.4931996646,-103.4098069334) scale(1,-1) translate(50,-110)"
    />
  
  <line
    x1="130.2158273381295"
    y1="84.1726618705036"
    x2="141.31147540983608"
    y2="94.42622950819673"
    stroke="hsla(0,50%,50%,0.6)"
    stroke-width="1"
    transform="translate(-53.4931996646,-103.4098069334) scale(1,-1) translate(50,-110)"
    />
  
  <line
    x1="102.02702702702703"
    y1="94.5945945945946"
    x2="103.53982300884955"
    y2="100.29498525073747"
    stroke="hsla(0,50%,50%,0.6)"
    stroke-width="1"
    transform="translate(-53.4931996646,-103.4098069334) scale(1,-1) translate(50,-110)"
    />
  
  <line
    x1="100.78740157480316"
    y1="99.21259842519684"
    x2="102.12765957446808"
    y2="109.21985815602837"
    stroke="hsla(0,50%,50%,0.6)"
    stroke-width="1"
    transform="translate(-53.4931996646,-103.4098069334) scale(1,-1) translate(50,-110)"
    />
  
  <line
    x1="100.34843205574913"
    y1="99.65156794425087"
    x2="100.67114093959732"
    y2="103.35570469798658"
    stroke="hsla(0,50%,50%,0.6)"
    stroke-width="1"
    transform="translate(-53.4931996646,-103.4098069334) scale(1,-1) translate(50,-110)"
    />
  
  <line
    x1="100"
    y1="96.29629629629629"
    x2="100.29673590504451"
    y2="100.29673590504451"
    stroke="hsla(0,50%,50%,0.6)"
    stroke-width="1"
    transform="translate(-53.4931996646,-103.4098069334) scale(1,-1) translate(50,-110)"
    />
  
  <line
    x1="100"
    y1="96.55172413793103"
    x2="100.40650406504065"
    y2="102.4390243902439"
    stroke="hsla(0,50%,50%,0.6)"
    stroke-width="1"
    transform="translate(-53.4931996646,-103.4098069334) scale(1,-1) translate(50,-110)"
    />
  
  <line
    x1="100"
    y1="96.29629629629629"
    x2="100"
    y2="100"
    stroke="hsla(0,50%,50%,0.6)"
    stroke-width="1"
    transform="translate(-53.4931996646,-103.4098069334) scale(1,-1) translate(50,-110)"
    />
  
  <line
    x1="100.34843205574913"
    y1="99.65156794425087"
    x2="100.29673590504451"
    y2="100.29673590504451"
    stroke="hsla(0,50%,50%,0.6)"
    stroke-width="1"
    transform="translate(-53.4931996646,-103.4098069334) scale(1,-1) translate(50,-110)"
    />
  
  <line
    x1="100.78740157480316"
    y1="99.21259842519684"
    x2="100.40650406504065"
    y2="102.4390243902439"
    stroke="hsla(0,50%,50%,0.6)"
    stroke-width="1"
    transform="translate(-53.4931996646,-103.4098069334) scale(1,-1) translate(50,-110)"
    />
  
  <line
    x1="102.02702702702703"
    y1="94.5945945945946"
    x2="100.67114093959732"
    y2="103.35570469798658"
    stroke="hsla(0,50%,50%,0.6)"
    stroke-width="1"
    transform="translate(-53.4931996646,-103.4098069334) scale(1,-1) translate(50,-110)"
    />
  
  <line
    x1="103.88349514563107"
    y1="99.02912621359224"
    x2="103.53982300884955"
    y2="100.29498525073747"
    stroke="hsla(0,50%,50%,0.6)"
    stroke-width="1"
    transform="translate(-53.4931996646,-103.4098069334) scale(1,-1) translate(50,-110)"
    />
  
  <line
    x1="104.61538461538461"
    y1="98.46153846153847"
    x2="104.16666666666667"
    y2="100"
    stroke="hsla(0,50%,50%,0.6)"
    stroke-width="1"
    transform="translate(-53.4931996646,-103.4098069334) scale(1,-1) translate(50,-110)"
    />
  
  <line
    x1="105.91133004926108"
    y1="97.53694581280789"
    x2="102.12765957446808"
    y2="109.21985815602837"
    stroke="hsla(0,50%,50%,0.6)"
    stroke-width="1"
    transform="translate(-53.4931996646,-103.4098069334) scale(1,-1) translate(50,-110)"
    />
  
  <line
    x1="114.35897435897436"
    y1="80"
    x2="105.91133004926108"
    y2="102.46305418719211"
    stroke="hsla(0,50%,50%,0.6)"
    stroke-width="1"
    transform="translate(-53.4931996646,-103.4098069334) scale(1,-1) translate(50,-110)"
    />
  
  <line
    x1="111.1731843575419"
    y1="98.32402234636872"
    x2="108.42105263157895"
    y2="104.21052631578948"
    stroke="hsla(0,50%,50%,0.6)"
    stroke-width="1"
    transform="translate(-53.4931996646,-103.4098069334) scale(1,-1) translate(50,-110)"
    />
  
  <line
    x1="130.2158273381295"
    y1="84.1726618705036"
    x2="115.38461538461539"
    y2="106.66666666666667"
    stroke="hsla(0,50%,50%,0.6)"
    stroke-width="1"
    transform="translate(-53.4931996646,-103.4098069334) scale(1,-1) translate(50,-110)"
    />
  
  <line
    x1="114.35897435897436"
    y1="80"
    x2="0"
    y2="100"
    stroke="hsla(0,50%,50%,0.6)"
    stroke-width="1"
    transform="translate(-53.4931996646,-103.4098069334) scale(1,-1) translate(50,-110)"
    />
  
  <line
    x1="130.2158273381295"
    y1="84.1726618705036"
    x2="0"
    y2="100"
    stroke="hsla(0,50%,50%,0.6)"
    stroke-width="1"
    transform="translate(-53.4931996646,-103.4098069334) scale(1,-1) translate(50,-110)"
    />
  
  <line
    x1="0"
    y1="100"
    x2="102.12765957446808"
    y2="109.21985815602837"
    stroke="hsla(0,50%,50%,0.6)"
    stroke-width="1"
    transform="translate(-53.4931996646,-103.4098069334) scale(1,-1) translate(50,-110)"
    />
  
  <line
    x1="0"
    y1="100"
    x2="115.38461538461539"
    y2="106.66666666666667"
    stroke="hsla(0,50%,50%,0.6)"
    stroke-width="1"
    transform="translate(-53.4931996646,-103.4098069334) scale(1,-1) translate(50,-110)"
    />
  
  <line
    x1="102.02702702702703"
    y1="94.5945945945946"
    x2="0"
    y2="100"
    stroke="hsla(0,50%,50%,0.6)"
    stroke-width="1"
    transform="translate(-53.4931996646,-103.4098069334) scale(1,-1) translate(50,-110)"
    />
  
  <line
    x1="0"
    y1="100"
    x2="108.42105263157895"
    y2="104.21052631578948"
    stroke="hsla(0,50%,50%,0.6)"
    stroke-width="1"
    transform="translate(-53.4931996646,-103.4098069334) scale(1,-1) translate(50,-110)"
    />
  
  <line
    x1="100"
    y1="96.29629629629629"
    x2="0"
    y2="100"
    stroke="hsla(0,50%,50%,0.6)"
    stroke-width="1"
    transform="translate(-53.4931996646,-103.4098069334) scale(1,-1) translate(50,-110)"
    />
  
  <line
    x1="100"
    y1="96.55172413793103"
    x2="0"
    y2="100"
    stroke="hsla(0,50%,50%,0.6)"
    stroke-width="1"
    transform="translate(-53.4931996646,-103.4098069334) scale(1,-1) translate(50,-110)"
    />
  
  <line
    x1="0"
    y1="100"
    x2="100.67114093959732"
    y2="103.35570469798658"
    stroke="hsla(0,50%,50%,0.6)"
    stroke-width="1"
    transform="translate(-53.4931996646,-103.4098069334) scale(1,-1) translate(50,-110)"
    />
  
  <line
    x1="0"
    y1="100"
    x2="100.40650406504065"
    y2="102.4390243902439"
    stroke="hsla(0,50%,50%,0.6)"
    stroke-width="1"
    transform="translate(-53.4931996646,-103.4098069334) scale(1,-1) translate(50,-110)"
    />
  
  <line
    x1="0"
    y1="100"
    x2="105.91133004926108"
    y2="102.46305418719211"
    stroke="hsla(0,50%,50%,0.6)"
    stroke-width="1"
    transform="translate(-53.4931996646,-103.4098069334) scale(1,-1) translate(50,-110)"
    />
  
  <line
    x1="105.91133004926108"
    y1="97.53694581280789"
    x2="0"
    y2="100"
    stroke="hsla(0,50%,50%,0.6)"
    stroke-width="1"
    transform="translate(-53.4931996646,-103.4098069334) scale(1,-1) translate(50,-110)"
    />
  
  <line
    x1="0"
    y1="100"
    x2="133.6898395721925"
    y2="102.67379679144385"
    stroke="hsla(0,50%,50%,0.6)"
    stroke-width="1"
    transform="translate(-53.4931996646,-103.4098069334) scale(1,-1) translate(50,-110)"
    />
  
  <line
    x1="111.1731843575419"
    y1="98.32402234636872"
    x2="0"
    y2="100"
    stroke="hsla(0,50%,50%,0.6)"
    stroke-width="1"
    transform="translate(-53.4931996646,-103.4098069334) scale(1,-1) translate(50,-110)"
    />
  
  <line
    x1="104.61538461538461"
    y1="98.46153846153847"
    x2="0"
    y2="100"
    stroke="hsla(0,50%,50%,0.6)"
    stroke-width="1"
    transform="translate(-53.4931996646,-103.4098069334) scale(1,-1) translate(50,-110)"
    />
  
  <line
    x1="103.88349514563107"
    y1="99.02912621359224"
    x2="0"
    y2="100"
    stroke="hsla(0,50%,50%,0.6)"
    stroke-width="1"
    transform="translate(-53.4931996646,-103.4098069334) scale(1,-1) translate(50,-110)"
    />
  
  <line
    x1="100.78740157480316"
    y1="99.21259842519684"
    x2="0"
    y2="100"
    stroke="hsla(0,50%,50%,0.6)"
    stroke-width="1"
    transform="translate(-53.4931996646,-103.4098069334) scale(1,-1) translate(50,-110)"
    />
  
  <line
    x1="100.34843205574913"
    y1="99.65156794425087"
    x2="0"
    y2="100"
    stroke="hsla(0,50%,50%,0.6)"
    stroke-width="1"
    transform="translate(-53.4931996646,-103.4098069334) scale(1,-1) translate(50,-110)"
    />
  
  <line
    x1="0"
    y1="100"
    x2="100.29673590504451"
    y2="100.29673590504451"
    stroke="hsla(0,50%,50%,0.6)"
    stroke-width="1"
    transform="translate(-53.4931996646,-103.4098069334) scale(1,-1) translate(50,-110)"
    />
  
  <line
    x1="0"
    y1="100"
    x2="103.53982300884955"
    y2="100.29498525073747"
    stroke="hsla(0,50%,50%,0.6)"
    stroke-width="1"
    transform="translate(-53.4931996646,-103.4098069334) scale(1,-1) translate(50,-110)"
    />
  
  <line
    x1="0"
    y1="100"
    x2="104.16666666666667"
    y2="100"
    stroke="hsla(0,50%,50%,0.6)"
    stroke-width="1"
    transform="translate(-53.4931996646,-103.4098069334) scale(1,-1) translate(50,-110)"
    />
  
  <line
    x1="141.31147540983608"
    y1="94.42622950819673"
    x2="133.6898395721925"
    y2="102.67379679144385"
    stroke="hsla(0,50%,50%,0.6)"
    stroke-width="1"
    transform="translate(-53.4931996646,-103.4098069334) scale(1,-1) translate(50,-110)"
    />
  
</svg>
