<?xml version="1.0"?>
<!DOCTYPE svg PUBLIC "-//W3C//DTD SVG 1.1//EN"
  "http://www.w3.org/Graphics/SVG/1.1/DTD/svg11.dtd">
<svg
  width="240"
  height="240"
  viewBox="-50 -50 200 200" xmlns="http://www.w3.org/2000/svg" version="1.1">
  <rect
    x="0"
    y="0"
    width="100"
    height="100"
    fill="hsla(206,100%,53%,0.3)"
    stroke="hsl(206,100%,53%)"
    stroke-width="3"
    transform="" />
  
  <path
    d="M 
      140
      80
      L
    
      123.2558139534
      102.3255813953
      L
    
      112.2042341220
      102.1170610211
      L
    
      111.4942528735
      103.4482758620
      L
    
      0
      100
      z
    "
    fill="hsla(0,0%,50%,0.3)"
    stroke="hsla(0,0%,50%,1)"
    stroke-width="1"
    transform="translate(-58.3525808557,-100.0220504303) scale(1,-1) translate(50,-110)"
    />
  
  
  <line
    x1="113.33333333333333"
    y1="88"
    x2="123.25581395348837"
    y2="102.32558139534883"
    stroke="hsla(0,50%,50%,0.6)"
    stroke-width="1"
    transform="translate(-58.3525808557,-100.0220504303) scale(1,-1) translate(50,-110)"
    />
  
  <line
    x1="108.23045267489712"
    y1="96.29629629629629"
    x2="111.49425287356321"
    y2="103.44827586206897"
    stroke="hsla(0,50%,50%,0.6)"
    stroke-width="1"
    transform="translate(-58.3525808557,-100.0220504303) scale(1,-1) translate(50,-110)"
    />
  
  <line
    x1="106.02409638554217"
    y1="97.18875502008032"
    x2="107.6923076923077"
    y2="101.53846153846153"
    stroke="hsla(0,50%,50%,0.6)"
    stroke-width="1"
    transform="translate(-58.3525808557,-100.0220504303) scale(1,-1) translate(50,-110)"
    />
  
  <line
    x1="105.17241379310344"
    y1="96.55172413793103"
    x2="106.62983425414365"
    y2="100.5524861878453"
    stroke="hsla(0,50%,50%,0.6)"
    stroke-width="1"
    transform="translate(-58.3525808557,-100.0220504303) scale(1,-1) translate(50,-110)"
    />
  
  <line
    x1="103.92156862745098"
    y1="97.05882352941177"
    x2="104.97925311203319"
    y2="100.4149377593361"
    stroke="hsla(0,50%,50%,0.6)"
    stroke-width="1"
    transform="translate(-58.3525808557,-100.0220504303) scale(1,-1) translate(50,-110)"
    />
  
  <line
    x1="101.19760479041916"
    y1="92.21556886227545"
    x2="103.63636363636364"
    y2="101.81818181818181"
    stroke="hsla(0,50%,50%,0.6)"
    stroke-width="1"
    transform="translate(-58.3525808557,-100.0220504303) scale(1,-1) translate(50,-110)"
    />
  
  <line
    x1="101.22448979591837"
    y1="95.51020408163265"
    x2="102.62008733624454"
    y2="102.18340611353712"
    stroke="hsla(0,50%,50%,0.6)"
    stroke-width="1"
    transform="translate(-58.3525808557,-100.0220504303) scale(1,-1) translate(50,-110)"
    />
  
  <line
    x1="100"
    y1="96.55172413793103"
    x2="100.40650406504065"
    y2="102.4390243902439"
    stroke="hsla(0,50%,50%,0.6)"
    stroke-width="1"
    transform="translate(-58.3525808557,-100.0220504303) scale(1,-1) translate(50,-110)"
    />
  
  <line
    x1="100"
    y1="96.55172413793103"
    x2="100"
    y2="100"
    stroke="hsla(0,50%,50%,0.6)"
    stroke-width="1"
    transform="translate(-58.3525808557,-100.0220504303) scale(1,-1) translate(50,-110)"
    />
  
  <line
    x1="101.19760479041916"
    y1="92.21556886227545"
    x2="100.32894736842105"
    y2="101.3157894736842"
    stroke="hsla(0,50%,50%,0.6)"
    stroke-width="1"
    transform="translate(-58.3525808557,-100.0220504303) scale(1,-1) translate(50,-110)"
    />
  
  <line
    x1="101.22448979591837"
    y1="95.51020408163265"
    x2="100.40650406504065"
    y2="102.4390243902439"
    stroke="hsla(0,50%,50%,0.6)"
    stroke-width="1"
    transform="translate(-58.3525808557,-100.0220504303) scale(1,-1) translate(50,-110)"
    />
  
  <line
    x1="103.92156862745098"
    y1="97.05882352941177"
    x2="102.62008733624454"
    y2="102.18340611353712"
    stroke="hsla(0,50%,50%,0.6)"
    stroke-width="1"
    transform="translate(-58.3525808557,-100.0220504303) scale(1,-1) translate(50,-110)"
    />
  
  <line
    x1="105.17241379310344"
    y1="96.55172413793103"
    x2="103.63636363636364"
    y2="101.81818181818181"
    stroke="hsla(0,50%,50%,0.6)"
    stroke-width="1"
    transform="translate(-58.3525808557,-100.0220504303) scale(1,-1) translate(50,-110)"
    />
  
  <line
    x1="106.02409638554217"
    y1="97.18875502008032"
    x2="104.97925311203319"
    y2="100.4149377593361"
    stroke="hsla(0,50%,50%,0.6)"
    stroke-width="1"
    transform="translate(-58.3525808557,-100.0220504303) scale(1,-1) translate(50,-110)"
    />
  
  <line
    x1="108.23045267489712"
    y1="96.29629629629629"
    x2="106.62983425414365"
    y2="100.5524861878453"
    stroke="hsla(0,50%,50%,0.6)"
    stroke-width="1"
    transform="translate(-58.3525808557,-100.0220504303) scale(1,-1) translate(50,-110)"
    />
  
  <line
    x1="113.33333333333333"
    y1="88"
    x2="107.6923076923077"
    y2="101.53846153846153"
    stroke="hsla(0,50%,50%,0.6)"
    stroke-width="1"
    transform="translate(-58.3525808557,-100.0220504303) scale(1,-1) translate(50,-110)"
    />
  
  <line
    x1="116.94915254237289"
    y1="93.22033898305085"
    x2="111.49425287356321"
    y2="103.44827586206897"
    stroke="hsla(0,50%,50%,0.6)"
    stroke-width="1"
    transform="translate(-58.3525808557,-100.0220504303) scale(1,-1) translate(50,-110)"
    />
  
  <line
    x1="140"
    y1="80"
    x2="123.25581395348837"
    y2="102.32558139534883"
    stroke="hsla(0,50%,50%,0.6)"
    stroke-width="1"
    transform="translate(-58.3525808557,-100.0220504303) scale(1,-1) translate(50,-110)"
    />
  
  <line
    x1="140"
    y1="80"
    x2="0"
    y2="100"
    stroke="hsla(0,50%,50%,0.6)"
    stroke-width="1"
    transform="translate(-58.3525808557,-100.0220504303) scale(1,-1) translate(50,-110)"
    />
  
  <line
    x1="113.33333333333333"
    y1="88"
    x2="0"
    y2="100"
    stroke="hsla(0,50%,50%,0.6)"
    stroke-width="1"
    transform="translate(-58.3525808557,-100.0220504303) scale(1,-1) translate(50,-110)"
    />
  
  <line
    x1="101.19760479041916"
    y1="92.21556886227545"
    x2="0"
    y2="100"
    stroke="hsla(0,50%,50%,0.6)"
    stroke-width="1"
    transform="translate(-58.3525808557,-100.0220504303) scale(1,-1) translate(50,-110)"
    />
  
  <line
    x1="116.94915254237289"
    y1="93.22033898305085"
    x2="0"
    y2="100"
    stroke="hsla(0,50%,50%,0.6)"
    stroke-width="1"
    transform="translate(-58.3525808557,-100.0220504303) scale(1,-1) translate(50,-110)"
    />
  
  <line
    x1="101.22448979591837"
    y1="95.51020408163265"
    x2="0"
    y2="100"
    stroke="hsla(0,50%,50%,0.6)"
    stroke-width="1"
    transform="translate(-58.3525808557,-100.0220504303) scale(1,-1) translate(50,-110)"
    />
  
  <line
    x1="100"
    y1="96.55172413793103"
    x2="0"
    y2="100"
    stroke="hsla(0,50%,50%,0.6)"
    stroke-width="1"
    transform="translate(-58.3525808557,-100.0220504303) scale(1,-1) translate(50,-110)"
    />
  
  <line
    x1="108.23045267489712"
    y1="96.29629629629629"
    x2="0"
    y2="100"
    stroke="hsla(0,50%,50%,0.6)"
    stroke-width="1"
    transform="translate(-58.3525808557,-100.0220504303) scale(1,-1) translate(50,-110)"
    />
  
  <line
    x1="105.17241379310344"
    y1="96.55172413793103"
    x2="0"
    y2="100"
    stroke="hsla(0,50%,50%,0.6)"
    stroke-width="1"
    transform="translate(-58.3525808557,-100.0220504303) scale(1,-1) translate(50,-110)"
    />
  
  <line
    x1="0"
    y1="100"
    x2="111.49425287356321"
    y2="103.44827586206897"
    stroke="hsla(0,50%,50%,0.6)"
    stroke-width="1"
    transform="translate(-58.3525808557,-100.0220504303) scale(1,-1) translate(50,-110)"
    />
  
  <line
    x1="103.92156862745098"
    y1="97.05882352941177"
    x2="0"
    y2="100"
    stroke="hsla(0,50%,50%,0.6)"
    stroke-width="1"
    transform="translate(-58.3525808557,-100.0220504303) scale(1,-1) translate(50,-110)"
    />
  
  <line
    x1="106.02409638554217"
    y1="97.18875502008032"
    x2="0"
    y2="100"
    stroke="hsla(0,50%,50%,0.6)"
    stroke-width="1"
    transform="translate(-58.3525808557,-100.0220504303) scale(1,-1) translate(50,-110)"
    />
  
  <line
    x1="0"
    y1="100"
    x2="100.40650406504065"
    y2="102.4390243902439"
    stroke="hsla(0,50%,50%,0.6)"
    stroke-width="1"
    transform="translate(-58.3525808557,-100.0220504303) scale(1,-1) translate(50,-110)"
    />
  
  <line
    x1="0"
    y1="100"
    x2="102.62008733624454"
    y2="102.18340611353712"
    stroke="hsla(0,50%,50%,0.6)"
    stroke-width="1"
    transform="translate(-58.3525808557,-100.0220504303) scale(1,-1) translate(50,-110)"
    />
  
  <line
    x1="0"
    y1="100"
    x2="123.25581395348837"
    y2="102.32558139534883"
    stroke="hsla(0,50%,50%,0.6)"
    stroke-width="1"
    transform="translate(-58.3525808557,-100.0220504303) scale(1,-1) translate(50,-110)"
    />
  
  <line
    x1="0"
    y1="100"
    x2="103.63636363636364"
    y2="101.81818181818181"
    stroke="hsla(0,50%,50%,0.6)"
    stroke-width="1"
    transform="translate(-58.3525808557,-100.0220504303) scale(1,-1) translate(50,-110)"
    />
  
  <line
    x1="0"
    y1="100"
    x2="107.6923076923077"
    y2="101.53846153846153"
    stroke="hsla(0,50%,50%,0.6)"
    stroke-width="1"
    transform="translate(-58.3525808557,-100.0220504303) scale(1,-1) translate(50,-110)"
    />
  
  <line
    x1="0"
    y1="100"
    x2="100.32894736842105"
    y2="101.3157894736842"
    stroke="hsla(0,50%,50%,0.6)"
    stroke-width="1"
    transform="translate(-58.3525808557,-100.0220504303) scale(1,-1) translate(50,-110)"
    />
  
  <line
    x1="0"
    y1="100"
    x2="106.62983425414365"
    y2="100.5524861878453"
    stroke="hsla(0,50%,50%,0.6)"
    stroke-width="1"
    transform="translate(-58.3525808557,-100.0220504303) scale(1,-1) translate(50,-110)"
    />
  
  <line
    x1="0"
    y1="100"
    x2="104.97925311203319"
    y2="100.4149377593361"
    stroke="hsla(0,50%,50%,0.6)"
    stroke-width="1"
    transform="translate(-58.3525808557,-100.0220504303) scale(1,-1) translate(50,-110)"
    />
  
  <line
    x1="0"
    y1="100"
    x2="100"
    y2="100"
    stroke="hsla(0,50%,50%,0.6)"
    stroke-width="1"
    transform="translate(-58.3525808557,-100.0220504303) scale(1,-1) translate(50,-110)"
    />
  
</svg>
