<?xml version="1.0"?>
<!DOCTYPE svg PUBLIC "-//W3C//DTD SVG 1.1//EN"
  "http://www.w3.org/Graphics/SVG/1.1/DTD/svg11.dtd">
<svg
  width="240"
  height="240"
  viewBox="-50 -50 200 200" xmlns="http://www.w3.org/2000/svg" version="1.1">
  <rect
    x="0"
    y="0"
    width="100"
    height="100"
    fill="hsla(206,100%,53%,0.3)"
    stroke="hsl(206,100%,53%)"
    stroke-width="3"
    transform="" />
  
  <path
    d="M 
      107.2072072072
      85.8858858858
      L
    
      109.7116843702
      90.2478502781
      L
    
      112.5
      90
      L
    
      113.5874360331
      91.6887241926
      L
    
      132.2580645161
      90.3225806451
      L
    
      141.4201183431
      99.4082840236
      L
    
      124.6696035242
      116.2995594713
      L
    
      0
      100
      z
    "
    fill="hsla(0,0%,50%,0.3)"
    stroke="hsla(0,0%,50%,1)"
    stroke-width="1"
    transform="translate(-64.1131434227,-102.7936541059) scale(1,-1) translate(50,-110)"
    />
  
  
  <line
    x1="107.2072072072072"
    y1="85.88588588588588"
    x2="124.66960352422907"
    y2="116.29955947136564"
    stroke="hsla(0,50%,50%,0.6)"
    stroke-width="1"
    transform="translate(-64.1131434227,-102.7936541059) scale(1,-1) translate(50,-110)"
    />
  
  <line
    x1="112.5"
    y1="90"
    x2="119.35483870967742"
    y2="100.64516129032258"
    stroke="hsla(0,50%,50%,0.6)"
    stroke-width="1"
    transform="translate(-64.1131434227,-102.7936541059) scale(1,-1) translate(50,-110)"
    />
  
  <line
    x1="122.22222222222223"
    y1="96.29629629629629"
    x2="125"
    y2="100"
    stroke="hsla(0,50%,50%,0.6)"
    stroke-width="1"
    transform="translate(-64.1131434227,-102.7936541059) scale(1,-1) translate(50,-110)"
    />
  
  <line
    x1="103.50877192982456"
    y1="93.5672514619883"
    x2="106.89655172413794"
    y2="103.44827586206897"
    stroke="hsla(0,50%,50%,0.6)"
    stroke-width="1"
    transform="translate(-64.1131434227,-102.7936541059) scale(1,-1) translate(50,-110)"
    />
  
  <line
    x1="132.25806451612902"
    y1="90.3225806451613"
    x2="141.42011834319527"
    y2="99.40828402366864"
    stroke="hsla(0,50%,50%,0.6)"
    stroke-width="1"
    transform="translate(-64.1131434227,-102.7936541059) scale(1,-1) translate(50,-110)"
    />
  
  <line
    x1="101.43884892086331"
    y1="97.12230215827338"
    x2="102.6431718061674"
    y2="103.08370044052863"
    stroke="hsla(0,50%,50%,0.6)"
    stroke-width="1"
    transform="translate(-64.1131434227,-102.7936541059) scale(1,-1) translate(50,-110)"
    />
  
  <line
    x1="100.43196544276458"
    y1="97.19222462203024"
    x2="101.04712041884817"
    y2="102.09424083769633"
    stroke="hsla(0,50%,50%,0.6)"
    stroke-width="1"
    transform="translate(-64.1131434227,-102.7936541059) scale(1,-1) translate(50,-110)"
    />
  
  <line
    x1="100.56179775280899"
    y1="98.87640449438203"
    x2="100.84388185654008"
    y2="101.26582278481013"
    stroke="hsla(0,50%,50%,0.6)"
    stroke-width="1"
    transform="translate(-64.1131434227,-102.7936541059) scale(1,-1) translate(50,-110)"
    />
  
  <line
    x1="100"
    y1="96"
    x2="100.38167938931298"
    y2="100.76335877862596"
    stroke="hsla(0,50%,50%,0.6)"
    stroke-width="1"
    transform="translate(-64.1131434227,-102.7936541059) scale(1,-1) translate(50,-110)"
    />
  
  <line
    x1="100"
    y1="96.7741935483871"
    x2="100.22271714922049"
    y2="100.22271714922049"
    stroke="hsla(0,50%,50%,0.6)"
    stroke-width="1"
    transform="translate(-64.1131434227,-102.7936541059) scale(1,-1) translate(50,-110)"
    />
  
  <line
    x1="100"
    y1="96"
    x2="100"
    y2="100"
    stroke="hsla(0,50%,50%,0.6)"
    stroke-width="1"
    transform="translate(-64.1131434227,-102.7936541059) scale(1,-1) translate(50,-110)"
    />
  
  <line
    x1="100.43196544276458"
    y1="97.19222462203024"
    x2="100.22271714922049"
    y2="100.22271714922049"
    stroke="hsla(0,50%,50%,0.6)"
    stroke-width="1"
    transform="translate(-64.1131434227,-102.7936541059) scale(1,-1) translate(50,-110)"
    />
  
  <line
    x1="100.56179775280899"
    y1="98.87640449438203"
    x2="100.38167938931298"
    y2="100.76335877862596"
    stroke="hsla(0,50%,50%,0.6)"
    stroke-width="1"
    transform="translate(-64.1131434227,-102.7936541059) scale(1,-1) translate(50,-110)"
    />
  
  <line
    x1="101.43884892086331"
    y1="97.12230215827338"
    x2="100.84388185654008"
    y2="101.26582278481013"
    stroke="hsla(0,50%,50%,0.6)"
    stroke-width="1"
    transform="translate(-64.1131434227,-102.7936541059) scale(1,-1) translate(50,-110)"
    />
  
  <line
    x1="101.68067226890756"
    y1="98.31932773109244"
    x2="101.04712041884817"
    y2="102.09424083769633"
    stroke="hsla(0,50%,50%,0.6)"
    stroke-width="1"
    transform="translate(-64.1131434227,-102.7936541059) scale(1,-1) translate(50,-110)"
    />
  
  <line
    x1="103.50877192982456"
    y1="93.5672514619883"
    x2="102.09059233449477"
    y2="100.34843205574913"
    stroke="hsla(0,50%,50%,0.6)"
    stroke-width="1"
    transform="translate(-64.1131434227,-102.7936541059) scale(1,-1) translate(50,-110)"
    />
  
  <line
    x1="107.2072072072072"
    y1="85.88588588588588"
    x2="102.6431718061674"
    y2="103.08370044052863"
    stroke="hsla(0,50%,50%,0.6)"
    stroke-width="1"
    transform="translate(-64.1131434227,-102.7936541059) scale(1,-1) translate(50,-110)"
    />
  
  <line
    x1="112.5"
    y1="90"
    x2="106.89655172413794"
    y2="103.44827586206897"
    stroke="hsla(0,50%,50%,0.6)"
    stroke-width="1"
    transform="translate(-64.1131434227,-102.7936541059) scale(1,-1) translate(50,-110)"
    />
  
  <line
    x1="122.22222222222223"
    y1="96.29629629629629"
    x2="119.35483870967742"
    y2="100.64516129032258"
    stroke="hsla(0,50%,50%,0.6)"
    stroke-width="1"
    transform="translate(-64.1131434227,-102.7936541059) scale(1,-1) translate(50,-110)"
    />
  
  <line
    x1="132.25806451612902"
    y1="90.3225806451613"
    x2="125"
    y2="100"
    stroke="hsla(0,50%,50%,0.6)"
    stroke-width="1"
    transform="translate(-64.1131434227,-102.7936541059) scale(1,-1) translate(50,-110)"
    />
  
  <line
    x1="107.2072072072072"
    y1="85.88588588588588"
    x2="0"
    y2="100"
    stroke="hsla(0,50%,50%,0.6)"
    stroke-width="1"
    transform="translate(-64.1131434227,-102.7936541059) scale(1,-1) translate(50,-110)"
    />
  
  <line
    x1="0"
    y1="100"
    x2="124.66960352422907"
    y2="116.29955947136564"
    stroke="hsla(0,50%,50%,0.6)"
    stroke-width="1"
    transform="translate(-64.1131434227,-102.7936541059) scale(1,-1) translate(50,-110)"
    />
  
  <line
    x1="112.5"
    y1="90"
    x2="0"
    y2="100"
    stroke="hsla(0,50%,50%,0.6)"
    stroke-width="1"
    transform="translate(-64.1131434227,-102.7936541059) scale(1,-1) translate(50,-110)"
    />
  
  <line
    x1="132.25806451612902"
    y1="90.3225806451613"
    x2="0"
    y2="100"
    stroke="hsla(0,50%,50%,0.6)"
    stroke-width="1"
    transform="translate(-64.1131434227,-102.7936541059) scale(1,-1) translate(50,-110)"
    />
  
  <line
    x1="103.50877192982456"
    y1="93.5672514619883"
    x2="0"
    y2="100"
    stroke="hsla(0,50%,50%,0.6)"
    stroke-width="1"
    transform="translate(-64.1131434227,-102.7936541059) scale(1,-1) translate(50,-110)"
    />
  
  <line
    x1="100"
    y1="96"
    x2="0"
    y2="100"
    stroke="hsla(0,50%,50%,0.6)"
    stroke-width="1"
    transform="translate(-64.1131434227,-102.7936541059) scale(1,-1) translate(50,-110)"
    />
  
  <line
    x1="0"
    y1="100"
    x2="106.89655172413794"
    y2="103.44827586206897"
    stroke="hsla(0,50%,50%,0.6)"
    stroke-width="1"
    transform="translate(-64.1131434227,-102.7936541059) scale(1,-1) translate(50,-110)"
    />
  
  <line
    x1="100"
    y1="96.7741935483871"
    x2="0"
    y2="100"
    stroke="hsla(0,50%,50%,0.6)"
    stroke-width="1"
    transform="translate(-64.1131434227,-102.7936541059) scale(1,-1) translate(50,-110)"
    />
  
  <line
    x1="122.22222222222223"
    y1="96.29629629629629"
    x2="0"
    y2="100"
    stroke="hsla(0,50%,50%,0.6)"
    stroke-width="1"
    transform="translate(-64.1131434227,-102.7936541059) scale(1,-1) translate(50,-110)"
    />
  
  <line
    x1="0"
    y1="100"
    x2="102.6431718061674"
    y2="103.08370044052863"
    stroke="hsla(0,50%,50%,0.6)"
    stroke-width="1"
    transform="translate(-64.1131434227,-102.7936541059) scale(1,-1) translate(50,-110)"
    />
  
  <line
    x1="101.43884892086331"
    y1="97.12230215827338"
    x2="0"
    y2="100"
    stroke="hsla(0,50%,50%,0.6)"
    stroke-width="1"
    transform="translate(-64.1131434227,-102.7936541059) scale(1,-1) translate(50,-110)"
    />
  
  <line
    x1="100.43196544276458"
    y1="97.19222462203024"
    x2="0"
    y2="100"
    stroke="hsla(0,50%,50%,0.6)"
    stroke-width="1"
    transform="translate(-64.1131434227,-102.7936541059) scale(1,-1) translate(50,-110)"
    />
  
  <line
    x1="0"
    y1="100"
    x2="101.04712041884817"
    y2="102.09424083769633"
    stroke="hsla(0,50%,50%,0.6)"
    stroke-width="1"
    transform="translate(-64.1131434227,-102.7936541059) scale(1,-1) translate(50,-110)"
    />
  
  <line
    x1="101.68067226890756"
    y1="98.31932773109244"
    x2="0"
    y2="100"
    stroke="hsla(0,50%,50%,0.6)"
    stroke-width="1"
    transform="translate(-64.1131434227,-102.7936541059) scale(1,-1) translate(50,-110)"
    />
  
  <line
    x1="0"
    y1="100"
    x2="100.84388185654008"
    y2="101.26582278481013"
    stroke="hsla(0,50%,50%,0.6)"
    stroke-width="1"
    transform="translate(-64.1131434227,-102.7936541059) scale(1,-1) translate(50,-110)"
    />
  
  <line
    x1="100.56179775280899"
    y1="98.87640449438203"
    x2="0"
    y2="100"
    stroke="hsla(0,50%,50%,0.6)"
    stroke-width="1"
    transform="translate(-64.1131434227,-102.7936541059) scale(1,-1) translate(50,-110)"
    />
  
  <line
    x1="0"
    y1="100"
    x2="100.38167938931298"
    y2="100.76335877862596"
    stroke="hsla(0,50%,50%,0.6)"
    stroke-width="1"
    transform="translate(-64.1131434227,-102.7936541059) scale(1,-1) translate(50,-110)"
    />
  
  <line
    x1="0"
    y1="100"
    x2="119.35483870967742"
    y2="100.64516129032258"
    stroke="hsla(0,50%,50%,0.6)"
    stroke-width="1"
    transform="translate(-64.1131434227,-102.7936541059) scale(1,-1) translate(50,-110)"
    />
  
  <line
    x1="0"
    y1="100"
    x2="102.09059233449477"
    y2="100.34843205574913"
    stroke="hsla(0,50%,50%,0.6)"
    stroke-width="1"
    transform="translate(-64.1131434227,-102.7936541059) scale(1,-1) translate(50,-110)"
    />
  
  <line
    x1="0"
    y1="100"
    x2="100.22271714922049"
    y2="100.22271714922049"
    stroke="hsla(0,50%,50%,0.6)"
    stroke-width="1"
    transform="translate(-64.1131434227,-102.7936541059) scale(1,-1) translate(50,-110)"
    />
  
  <line
    x1="0"
    y1="100"
    x2="125"
    y2="100"
    stroke="hsla(0,50%,50%,0.6)"
    stroke-width="1"
    transform="translate(-64.1131434227,-102.7936541059) scale(1,-1) translate(50,-110)"
    />
  
  <line
    x1="141.42011834319527"
    y1="99.40828402366864"
    x2="124.66960352422907"
    y2="116.29955947136564"
    stroke="hsla(0,50%,50%,0.6)"
    stroke-width="1"
    transform="translate(-64.1131434227,-102.7936541059) scale(1,-1) translate(50,-110)"
    />
  
</svg>
