<?xml version="1.0"?>
<!DOCTYPE svg PUBLIC "-//W3C//DTD SVG 1.1//EN"
  "http://www.w3.org/Graphics/SVG/1.1/DTD/svg11.dtd">
<svg
  width="240"
  height="240"
  viewBox="-500 -500 1000 1000" xmlns="http://www.w3.org/2000/svg" version="1.1">
  <rect
    x="0"
    y="0"
    width="100"
    height="100"
    fill="hsla(206,100%,53%,0.3)"
    stroke="hsl(206,100%,53%)"
    stroke-width="3"
    transform="" />
  
  <path
    d="M 
      103.125
      87.5
      L
    
      105.5498458376
      93.3196300102
      L
    
      111.2676056338
      92.9577464788
      L
    
      112.0128709331
      94.2557502085
      L
    
      130
      93.3333333333
      L
    
      141.3114754098
      105.5737704918
      L
    
      121.4084507042
      104.7887323943
      L
    
      119.5121951219
      107.3170731707
      L
    
      0
      100
      z
    "
    fill="hsla(0,0%,50%,0.3)"
    stroke="hsla(0,0%,50%,1)"
    stroke-width="1"
    transform="translate(-70.6557377049,-97.4085365853)"
    />
  
  
  <line
    x1="111.26760563380282"
    y1="92.95774647887323"
    x2="119.51219512195122"
    y2="107.3170731707317"
    stroke="hsla(0,50%,50%,0.6)"
    stroke-width="1"
    transform="translate(-70.6557377049,-97.4085365853)"
    />
  
  <line
    x1="117.44186046511628"
    y1="97.67441860465117"
    x2="121.73913043478261"
    y2="104.34782608695652"
    stroke="hsla(0,50%,50%,0.6)"
    stroke-width="1"
    transform="translate(-70.6557377049,-97.4085365853)"
    />
  
  <line
    x1="109.22509225092251"
    y1="94.4649446494465"
    x2="113.88888888888889"
    y2="103.70370370370371"
    stroke="hsla(0,50%,50%,0.6)"
    stroke-width="1"
    transform="translate(-70.6557377049,-97.4085365853)"
    />
  
  <line
    x1="103.125"
    y1="87.5"
    x2="108.33333333333333"
    y2="100"
    stroke="hsla(0,50%,50%,0.6)"
    stroke-width="1"
    transform="translate(-70.6557377049,-97.4085365853)"
    />
  
  <line
    x1="130"
    y1="93.33333333333333"
    x2="141.31147540983608"
    y2="105.57377049180327"
    stroke="hsla(0,50%,50%,0.6)"
    stroke-width="1"
    transform="translate(-70.6557377049,-97.4085365853)"
    />
  
  <line
    x1="104.09556313993174"
    y1="97.61092150170649"
    x2="105.86510263929618"
    y2="103.2258064516129"
    stroke="hsla(0,50%,50%,0.6)"
    stroke-width="1"
    transform="translate(-70.6557377049,-97.4085365853)"
    />
  
  <line
    x1="102.70270270270271"
    y1="99.09909909909909"
    x2="103.18021201413427"
    y2="101.06007067137809"
    stroke="hsla(0,50%,50%,0.6)"
    stroke-width="1"
    transform="translate(-70.6557377049,-97.4085365853)"
    />
  
  <line
    x1="100.5449591280654"
    y1="98.09264305177112"
    x2="101.3986013986014"
    y2="104.8951048951049"
    stroke="hsla(0,50%,50%,0.6)"
    stroke-width="1"
    transform="translate(-70.6557377049,-97.4085365853)"
    />
  
  <line
    x1="100"
    y1="94.73684210526316"
    x2="100.8130081300813"
    y2="102.4390243902439"
    stroke="hsla(0,50%,50%,0.6)"
    stroke-width="1"
    transform="translate(-70.6557377049,-97.4085365853)"
    />
  
  <line
    x1="100"
    y1="96.55172413793103"
    x2="100.30030030030031"
    y2="100.90090090090091"
    stroke="hsla(0,50%,50%,0.6)"
    stroke-width="1"
    transform="translate(-70.6557377049,-97.4085365853)"
    />
  
  <line
    x1="100"
    y1="94.73684210526316"
    x2="100"
    y2="100"
    stroke="hsla(0,50%,50%,0.6)"
    stroke-width="1"
    transform="translate(-70.6557377049,-97.4085365853)"
    />
  
  <line
    x1="100.5449591280654"
    y1="98.09264305177112"
    x2="100.30030030030031"
    y2="100.90090090090091"
    stroke="hsla(0,50%,50%,0.6)"
    stroke-width="1"
    transform="translate(-70.6557377049,-97.4085365853)"
    />
  
  <line
    x1="103.125"
    y1="87.5"
    x2="100.8130081300813"
    y2="102.4390243902439"
    stroke="hsla(0,50%,50%,0.6)"
    stroke-width="1"
    transform="translate(-70.6557377049,-97.4085365853)"
    />
  
  <line
    x1="102.70270270270271"
    y1="99.09909909909909"
    x2="101.3986013986014"
    y2="104.8951048951049"
    stroke="hsla(0,50%,50%,0.6)"
    stroke-width="1"
    transform="translate(-70.6557377049,-97.4085365853)"
    />
  
  <line
    x1="104.09556313993174"
    y1="97.61092150170649"
    x2="103.18021201413427"
    y2="101.06007067137809"
    stroke="hsla(0,50%,50%,0.6)"
    stroke-width="1"
    transform="translate(-70.6557377049,-97.4085365853)"
    />
  
  <line
    x1="109.22509225092251"
    y1="94.4649446494465"
    x2="105.86510263929618"
    y2="103.2258064516129"
    stroke="hsla(0,50%,50%,0.6)"
    stroke-width="1"
    transform="translate(-70.6557377049,-97.4085365853)"
    />
  
  <line
    x1="111.26760563380282"
    y1="92.95774647887323"
    x2="108.33333333333333"
    y2="100"
    stroke="hsla(0,50%,50%,0.6)"
    stroke-width="1"
    transform="translate(-70.6557377049,-97.4085365853)"
    />
  
  <line
    x1="117.44186046511628"
    y1="97.67441860465117"
    x2="113.88888888888889"
    y2="103.70370370370371"
    stroke="hsla(0,50%,50%,0.6)"
    stroke-width="1"
    transform="translate(-70.6557377049,-97.4085365853)"
    />
  
  <line
    x1="130"
    y1="93.33333333333333"
    x2="119.51219512195122"
    y2="107.3170731707317"
    stroke="hsla(0,50%,50%,0.6)"
    stroke-width="1"
    transform="translate(-70.6557377049,-97.4085365853)"
    />
  
  <line
    x1="103.125"
    y1="87.5"
    x2="0"
    y2="100"
    stroke="hsla(0,50%,50%,0.6)"
    stroke-width="1"
    transform="translate(-70.6557377049,-97.4085365853)"
    />
  
  <line
    x1="111.26760563380282"
    y1="92.95774647887323"
    x2="0"
    y2="100"
    stroke="hsla(0,50%,50%,0.6)"
    stroke-width="1"
    transform="translate(-70.6557377049,-97.4085365853)"
    />
  
  <line
    x1="0"
    y1="100"
    x2="119.51219512195122"
    y2="107.3170731707317"
    stroke="hsla(0,50%,50%,0.6)"
    stroke-width="1"
    transform="translate(-70.6557377049,-97.4085365853)"
    />
  
  <line
    x1="100"
    y1="94.73684210526316"
    x2="0"
    y2="100"
    stroke="hsla(0,50%,50%,0.6)"
    stroke-width="1"
    transform="translate(-70.6557377049,-97.4085365853)"
    />
  
  <line
    x1="130"
    y1="93.33333333333333"
    x2="0"
    y2="100"
    stroke="hsla(0,50%,50%,0.6)"
    stroke-width="1"
    transform="translate(-70.6557377049,-97.4085365853)"
    />
  
  <line
    x1="109.22509225092251"
    y1="94.4649446494465"
    x2="0"
    y2="100"
    stroke="hsla(0,50%,50%,0.6)"
    stroke-width="1"
    transform="translate(-70.6557377049,-97.4085365853)"
    />
  
  <line
    x1="0"
    y1="100"
    x2="101.3986013986014"
    y2="104.8951048951049"
    stroke="hsla(0,50%,50%,0.6)"
    stroke-width="1"
    transform="translate(-70.6557377049,-97.4085365853)"
    />
  
  <line
    x1="0"
    y1="100"
    x2="141.31147540983608"
    y2="105.57377049180327"
    stroke="hsla(0,50%,50%,0.6)"
    stroke-width="1"
    transform="translate(-70.6557377049,-97.4085365853)"
    />
  
  <line
    x1="0"
    y1="100"
    x2="121.73913043478261"
    y2="104.34782608695652"
    stroke="hsla(0,50%,50%,0.6)"
    stroke-width="1"
    transform="translate(-70.6557377049,-97.4085365853)"
    />
  
  <line
    x1="100"
    y1="96.55172413793103"
    x2="0"
    y2="100"
    stroke="hsla(0,50%,50%,0.6)"
    stroke-width="1"
    transform="translate(-70.6557377049,-97.4085365853)"
    />
  
  <line
    x1="0"
    y1="100"
    x2="113.88888888888889"
    y2="103.70370370370371"
    stroke="hsla(0,50%,50%,0.6)"
    stroke-width="1"
    transform="translate(-70.6557377049,-97.4085365853)"
    />
  
  <line
    x1="0"
    y1="100"
    x2="105.86510263929618"
    y2="103.2258064516129"
    stroke="hsla(0,50%,50%,0.6)"
    stroke-width="1"
    transform="translate(-70.6557377049,-97.4085365853)"
    />
  
  <line
    x1="0"
    y1="100"
    x2="100.8130081300813"
    y2="102.4390243902439"
    stroke="hsla(0,50%,50%,0.6)"
    stroke-width="1"
    transform="translate(-70.6557377049,-97.4085365853)"
    />
  
  <line
    x1="104.09556313993174"
    y1="97.61092150170649"
    x2="0"
    y2="100"
    stroke="hsla(0,50%,50%,0.6)"
    stroke-width="1"
    transform="translate(-70.6557377049,-97.4085365853)"
    />
  
  <line
    x1="117.44186046511628"
    y1="97.67441860465117"
    x2="0"
    y2="100"
    stroke="hsla(0,50%,50%,0.6)"
    stroke-width="1"
    transform="translate(-70.6557377049,-97.4085365853)"
    />
  
  <line
    x1="100.5449591280654"
    y1="98.09264305177112"
    x2="0"
    y2="100"
    stroke="hsla(0,50%,50%,0.6)"
    stroke-width="1"
    transform="translate(-70.6557377049,-97.4085365853)"
    />
  
  <line
    x1="0"
    y1="100"
    x2="103.18021201413427"
    y2="101.06007067137809"
    stroke="hsla(0,50%,50%,0.6)"
    stroke-width="1"
    transform="translate(-70.6557377049,-97.4085365853)"
    />
  
  <line
    x1="0"
    y1="100"
    x2="100.30030030030031"
    y2="100.90090090090091"
    stroke="hsla(0,50%,50%,0.6)"
    stroke-width="1"
    transform="translate(-70.6557377049,-97.4085365853)"
    />
  
  <line
    x1="102.70270270270271"
    y1="99.09909909909909"
    x2="0"
    y2="100"
    stroke="hsla(0,50%,50%,0.6)"
    stroke-width="1"
    transform="translate(-70.6557377049,-97.4085365853)"
    />
  
  <line
    x1="0"
    y1="100"
    x2="108.33333333333333"
    y2="100"
    stroke="hsla(0,50%,50%,0.6)"
    stroke-width="1"
    transform="translate(-70.6557377049,-97.4085365853)"
    />
  
</svg>
