<?xml version="1.0"?>
<!DOCTYPE svg PUBLIC "-//W3C//DTD SVG 1.1//EN"
  "http://www.w3.org/Graphics/SVG/1.1/DTD/svg11.dtd">
<svg
  width="240"
  height="240"
  viewBox="-50 -50 200 200" xmlns="http://www.w3.org/2000/svg" version="1.1">
  <rect
    x="0"
    y="0"
    width="100"
    height="100"
    fill="hsla(206,100%,53%,0.3)"
    stroke="hsl(206,100%,53%)"
    stroke-width="3"
    transform="" />
  
  <path
    d="M 
      107.4074074074
      88.8888888888
      L
    
      109.9681866383
      93.6903499469
      L
    
      124.4897959183
      92.8571428571
      L
    
      125.6880733944
      94.2869057547
      L
    
      129.4117647058
      94.1176470588
      L
    
      133.1198536139
      98.2250686184
      L
    
      136.3636363636
      98.1818181818
      L
    
      141.3793103448
      103.4482758620
      L
    
      139.4736842105
      105.2631578947
      L
    
      116.8723447299
      104.4102771596
      L
    
      113.7404580152
      109.1603053435
      L
    
      0
      100
      z
    "
    fill="hsla(0,0%,50%,0.3)"
    stroke="hsla(0,0%,50%,1)"
    stroke-width="1"
    transform="translate(-60.3287586983,-103.1861732217) scale(1,-1) translate(50,-110)"
    />
  
  
  <line
    x1="107.4074074074074"
    y1="88.88888888888889"
    x2="115.87301587301587"
    y2="104.76190476190476"
    stroke="hsla(0,50%,50%,0.6)"
    stroke-width="1"
    transform="translate(-60.3287586983,-103.1861732217) scale(1,-1) translate(50,-110)"
    />
  
  <line
    x1="119.35483870967742"
    y1="99.35483870967742"
    x2="122.22222222222223"
    y2="103.70370370370371"
    stroke="hsla(0,50%,50%,0.6)"
    stroke-width="1"
    transform="translate(-60.3287586983,-103.1861732217) scale(1,-1) translate(50,-110)"
    />
  
  <line
    x1="108.95522388059702"
    y1="98.50746268656717"
    x2="113.74045801526718"
    y2="109.16030534351145"
    stroke="hsla(0,50%,50%,0.6)"
    stroke-width="1"
    transform="translate(-60.3287586983,-103.1861732217) scale(1,-1) translate(50,-110)"
    />
  
  <line
    x1="106.84410646387833"
    y1="98.85931558935361"
    x2="107.79220779220779"
    y2="101.2987012987013"
    stroke="hsla(0,50%,50%,0.6)"
    stroke-width="1"
    transform="translate(-60.3287586983,-103.1861732217) scale(1,-1) translate(50,-110)"
    />
  
  <line
    x1="124.48979591836735"
    y1="92.85714285714286"
    x2="132.52032520325204"
    y2="102.4390243902439"
    stroke="hsla(0,50%,50%,0.6)"
    stroke-width="1"
    transform="translate(-60.3287586983,-103.1861732217) scale(1,-1) translate(50,-110)"
    />
  
  <line
    x1="129.41176470588235"
    y1="94.11764705882354"
    x2="139.47368421052633"
    y2="105.26315789473684"
    stroke="hsla(0,50%,50%,0.6)"
    stroke-width="1"
    transform="translate(-60.3287586983,-103.1861732217) scale(1,-1) translate(50,-110)"
    />
  
  <line
    x1="136.36363636363637"
    y1="98.18181818181819"
    x2="141.3793103448276"
    y2="103.44827586206897"
    stroke="hsla(0,50%,50%,0.6)"
    stroke-width="1"
    transform="translate(-60.3287586983,-103.1861732217) scale(1,-1) translate(50,-110)"
    />
  
  <line
    x1="102.9126213592233"
    y1="93.20388349514563"
    x2="105.73248407643312"
    y2="101.91082802547771"
    stroke="hsla(0,50%,50%,0.6)"
    stroke-width="1"
    transform="translate(-60.3287586983,-103.1861732217) scale(1,-1) translate(50,-110)"
    />
  
  <line
    x1="103.38983050847457"
    y1="99.15254237288136"
    x2="103.88349514563107"
    y2="100.97087378640776"
    stroke="hsla(0,50%,50%,0.6)"
    stroke-width="1"
    transform="translate(-60.3287586983,-103.1861732217) scale(1,-1) translate(50,-110)"
    />
  
  <line
    x1="100"
    y1="93.75"
    x2="101.5748031496063"
    y2="106.2992125984252"
    stroke="hsla(0,50%,50%,0.6)"
    stroke-width="1"
    transform="translate(-60.3287586983,-103.1861732217) scale(1,-1) translate(50,-110)"
    />
  
  <line
    x1="100"
    y1="96.7741935483871"
    x2="100.58823529411765"
    y2="105.88235294117646"
    stroke="hsla(0,50%,50%,0.6)"
    stroke-width="1"
    transform="translate(-60.3287586983,-103.1861732217) scale(1,-1) translate(50,-110)"
    />
  
  <line
    x1="100"
    y1="93.75"
    x2="100"
    y2="100"
    stroke="hsla(0,50%,50%,0.6)"
    stroke-width="1"
    transform="translate(-60.3287586983,-103.1861732217) scale(1,-1) translate(50,-110)"
    />
  
  <line
    x1="102.9126213592233"
    y1="93.20388349514563"
    x2="100.58823529411765"
    y2="105.88235294117646"
    stroke="hsla(0,50%,50%,0.6)"
    stroke-width="1"
    transform="translate(-60.3287586983,-103.1861732217) scale(1,-1) translate(50,-110)"
    />
  
  <line
    x1="103.38983050847457"
    y1="99.15254237288136"
    x2="101.5748031496063"
    y2="106.2992125984252"
    stroke="hsla(0,50%,50%,0.6)"
    stroke-width="1"
    transform="translate(-60.3287586983,-103.1861732217) scale(1,-1) translate(50,-110)"
    />
  
  <line
    x1="107.4074074074074"
    y1="88.88888888888889"
    x2="103.88349514563107"
    y2="100.97087378640776"
    stroke="hsla(0,50%,50%,0.6)"
    stroke-width="1"
    transform="translate(-60.3287586983,-103.1861732217) scale(1,-1) translate(50,-110)"
    />
  
  <line
    x1="106.84410646387833"
    y1="98.85931558935361"
    x2="105.73248407643312"
    y2="101.91082802547771"
    stroke="hsla(0,50%,50%,0.6)"
    stroke-width="1"
    transform="translate(-60.3287586983,-103.1861732217) scale(1,-1) translate(50,-110)"
    />
  
  <line
    x1="108.95522388059702"
    y1="98.50746268656717"
    x2="107.79220779220779"
    y2="101.2987012987013"
    stroke="hsla(0,50%,50%,0.6)"
    stroke-width="1"
    transform="translate(-60.3287586983,-103.1861732217) scale(1,-1) translate(50,-110)"
    />
  
  <line
    x1="119.35483870967742"
    y1="99.35483870967742"
    x2="115.87301587301587"
    y2="104.76190476190476"
    stroke="hsla(0,50%,50%,0.6)"
    stroke-width="1"
    transform="translate(-60.3287586983,-103.1861732217) scale(1,-1) translate(50,-110)"
    />
  
  <line
    x1="124.48979591836735"
    y1="92.85714285714286"
    x2="113.74045801526718"
    y2="109.16030534351145"
    stroke="hsla(0,50%,50%,0.6)"
    stroke-width="1"
    transform="translate(-60.3287586983,-103.1861732217) scale(1,-1) translate(50,-110)"
    />
  
  <line
    x1="129.41176470588235"
    y1="94.11764705882354"
    x2="122.22222222222223"
    y2="103.70370370370371"
    stroke="hsla(0,50%,50%,0.6)"
    stroke-width="1"
    transform="translate(-60.3287586983,-103.1861732217) scale(1,-1) translate(50,-110)"
    />
  
  <line
    x1="107.4074074074074"
    y1="88.88888888888889"
    x2="0"
    y2="100"
    stroke="hsla(0,50%,50%,0.6)"
    stroke-width="1"
    transform="translate(-60.3287586983,-103.1861732217) scale(1,-1) translate(50,-110)"
    />
  
  <line
    x1="0"
    y1="100"
    x2="113.74045801526718"
    y2="109.16030534351145"
    stroke="hsla(0,50%,50%,0.6)"
    stroke-width="1"
    transform="translate(-60.3287586983,-103.1861732217) scale(1,-1) translate(50,-110)"
    />
  
  <line
    x1="102.9126213592233"
    y1="93.20388349514563"
    x2="0"
    y2="100"
    stroke="hsla(0,50%,50%,0.6)"
    stroke-width="1"
    transform="translate(-60.3287586983,-103.1861732217) scale(1,-1) translate(50,-110)"
    />
  
  <line
    x1="100"
    y1="93.75"
    x2="0"
    y2="100"
    stroke="hsla(0,50%,50%,0.6)"
    stroke-width="1"
    transform="translate(-60.3287586983,-103.1861732217) scale(1,-1) translate(50,-110)"
    />
  
  <line
    x1="0"
    y1="100"
    x2="101.5748031496063"
    y2="106.2992125984252"
    stroke="hsla(0,50%,50%,0.6)"
    stroke-width="1"
    transform="translate(-60.3287586983,-103.1861732217) scale(1,-1) translate(50,-110)"
    />
  
  <line
    x1="0"
    y1="100"
    x2="100.58823529411765"
    y2="105.88235294117646"
    stroke="hsla(0,50%,50%,0.6)"
    stroke-width="1"
    transform="translate(-60.3287586983,-103.1861732217) scale(1,-1) translate(50,-110)"
    />
  
  <line
    x1="124.48979591836735"
    y1="92.85714285714286"
    x2="0"
    y2="100"
    stroke="hsla(0,50%,50%,0.6)"
    stroke-width="1"
    transform="translate(-60.3287586983,-103.1861732217) scale(1,-1) translate(50,-110)"
    />
  
  <line
    x1="129.41176470588235"
    y1="94.11764705882354"
    x2="0"
    y2="100"
    stroke="hsla(0,50%,50%,0.6)"
    stroke-width="1"
    transform="translate(-60.3287586983,-103.1861732217) scale(1,-1) translate(50,-110)"
    />
  
  <line
    x1="0"
    y1="100"
    x2="115.87301587301587"
    y2="104.76190476190476"
    stroke="hsla(0,50%,50%,0.6)"
    stroke-width="1"
    transform="translate(-60.3287586983,-103.1861732217) scale(1,-1) translate(50,-110)"
    />
  
  <line
    x1="0"
    y1="100"
    x2="139.47368421052633"
    y2="105.26315789473684"
    stroke="hsla(0,50%,50%,0.6)"
    stroke-width="1"
    transform="translate(-60.3287586983,-103.1861732217) scale(1,-1) translate(50,-110)"
    />
  
  <line
    x1="100"
    y1="96.7741935483871"
    x2="0"
    y2="100"
    stroke="hsla(0,50%,50%,0.6)"
    stroke-width="1"
    transform="translate(-60.3287586983,-103.1861732217) scale(1,-1) translate(50,-110)"
    />
  
  <line
    x1="0"
    y1="100"
    x2="122.22222222222223"
    y2="103.70370370370371"
    stroke="hsla(0,50%,50%,0.6)"
    stroke-width="1"
    transform="translate(-60.3287586983,-103.1861732217) scale(1,-1) translate(50,-110)"
    />
  
  <line
    x1="0"
    y1="100"
    x2="132.52032520325204"
    y2="102.4390243902439"
    stroke="hsla(0,50%,50%,0.6)"
    stroke-width="1"
    transform="translate(-60.3287586983,-103.1861732217) scale(1,-1) translate(50,-110)"
    />
  
  <line
    x1="0"
    y1="100"
    x2="105.73248407643312"
    y2="101.91082802547771"
    stroke="hsla(0,50%,50%,0.6)"
    stroke-width="1"
    transform="translate(-60.3287586983,-103.1861732217) scale(1,-1) translate(50,-110)"
    />
  
  <line
    x1="108.95522388059702"
    y1="98.50746268656717"
    x2="0"
    y2="100"
    stroke="hsla(0,50%,50%,0.6)"
    stroke-width="1"
    transform="translate(-60.3287586983,-103.1861732217) scale(1,-1) translate(50,-110)"
    />
  
  <line
    x1="136.36363636363637"
    y1="98.18181818181819"
    x2="0"
    y2="100"
    stroke="hsla(0,50%,50%,0.6)"
    stroke-width="1"
    transform="translate(-60.3287586983,-103.1861732217) scale(1,-1) translate(50,-110)"
    />
  
  <line
    x1="0"
    y1="100"
    x2="107.79220779220779"
    y2="101.2987012987013"
    stroke="hsla(0,50%,50%,0.6)"
    stroke-width="1"
    transform="translate(-60.3287586983,-103.1861732217) scale(1,-1) translate(50,-110)"
    />
  
  <line
    x1="106.84410646387833"
    y1="98.85931558935361"
    x2="0"
    y2="100"
    stroke="hsla(0,50%,50%,0.6)"
    stroke-width="1"
    transform="translate(-60.3287586983,-103.1861732217) scale(1,-1) translate(50,-110)"
    />
  
  <line
    x1="0"
    y1="100"
    x2="103.88349514563107"
    y2="100.97087378640776"
    stroke="hsla(0,50%,50%,0.6)"
    stroke-width="1"
    transform="translate(-60.3287586983,-103.1861732217) scale(1,-1) translate(50,-110)"
    />
  
  <line
    x1="103.38983050847457"
    y1="99.15254237288136"
    x2="0"
    y2="100"
    stroke="hsla(0,50%,50%,0.6)"
    stroke-width="1"
    transform="translate(-60.3287586983,-103.1861732217) scale(1,-1) translate(50,-110)"
    />
  
  <line
    x1="119.35483870967742"
    y1="99.35483870967742"
    x2="0"
    y2="100"
    stroke="hsla(0,50%,50%,0.6)"
    stroke-width="1"
    transform="translate(-60.3287586983,-103.1861732217) scale(1,-1) translate(50,-110)"
    />
  
  <line
    x1="0"
    y1="100"
    x2="100"
    y2="100"
    stroke="hsla(0,50%,50%,0.6)"
    stroke-width="1"
    transform="translate(-60.3287586983,-103.1861732217) scale(1,-1) translate(50,-110)"
    />
  
  <line
    x1="136.36363636363637"
    y1="98.18181818181819"
    x2="132.52032520325204"
    y2="102.4390243902439"
    stroke="hsla(0,50%,50%,0.6)"
    stroke-width="1"
    transform="translate(-60.3287586983,-103.1861732217) scale(1,-1) translate(50,-110)"
    />
  
  <line
    x1="141.3793103448276"
    y1="103.44827586206897"
    x2="139.47368421052633"
    y2="105.26315789473684"
    stroke="hsla(0,50%,50%,0.6)"
    stroke-width="1"
    transform="translate(-60.3287586983,-103.1861732217) scale(1,-1) translate(50,-110)"
    />
  
</svg>
