<?xml version="1.0"?>
<!DOCTYPE svg PUBLIC "-//W3C//DTD SVG 1.1//EN"
  "http://www.w3.org/Graphics/SVG/1.1/DTD/svg11.dtd">
<svg
  width="240"
  height="240"
  viewBox="-500 -500 1000 1000" xmlns="http://www.w3.org/2000/svg" version="1.1">
  <rect
    x="0"
    y="0"
    width="100"
    height="100"
    fill="hsla(206,100%,53%,0.3)"
    stroke="hsl(206,100%,53%)"
    stroke-width="3"
    transform="" />
  
  <path
    d="M 
      104.8780487804
      79.2682926829
      L
    
      114.4898637421
      94.7158524426
      L
    
      138.2978723404
      93.6170212765
      L
    
      141.3793103448
      96.5517241379
      L
    
      133.3333333333
      105
      L
    
      103.8523612378
      103.8944635464
      L
    
      103.3210332103
      105.5350553505
      L
    
      0
      100
      z
    "
    fill="hsla(0,0%,50%,0.3)"
    stroke="hsla(0,0%,50%,1)"
    stroke-width="1"
    transform="translate(-70.6896551724,-92.4016740167)"
    />
  
  
  <line
    x1="108.67052023121387"
    y1="89.01734104046243"
    x2="117.14285714285714"
    y2="104"
    stroke="hsla(0,50%,50%,0.6)"
    stroke-width="1"
    transform="translate(-70.6896551724,-92.4016740167)"
    />
  
  <line
    x1="104.8780487804878"
    y1="79.26829268292683"
    x2="118.75"
    y2="101.5625"
    stroke="hsla(0,50%,50%,0.6)"
    stroke-width="1"
    transform="translate(-70.6896551724,-92.4016740167)"
    />
  
  <line
    x1="120.33898305084746"
    y1="99.15254237288136"
    x2="122.85714285714286"
    y2="102.85714285714286"
    stroke="hsla(0,50%,50%,0.6)"
    stroke-width="1"
    transform="translate(-70.6896551724,-92.4016740167)"
    />
  
  <line
    x1="122.22222222222223"
    y1="96.29629629629629"
    x2="128.57142857142858"
    y2="104.76190476190476"
    stroke="hsla(0,50%,50%,0.6)"
    stroke-width="1"
    transform="translate(-70.6896551724,-92.4016740167)"
    />
  
  <line
    x1="127.02702702702703"
    y1="97.29729729729729"
    x2="133.33333333333334"
    y2="105"
    stroke="hsla(0,50%,50%,0.6)"
    stroke-width="1"
    transform="translate(-70.6896551724,-92.4016740167)"
    />
  
  <line
    x1="138.29787234042553"
    y1="93.61702127659575"
    x2="141.3793103448276"
    y2="96.55172413793103"
    stroke="hsla(0,50%,50%,0.6)"
    stroke-width="1"
    transform="translate(-70.6896551724,-92.4016740167)"
    />
  
  <line
    x1="101.30151843817788"
    y1="95.87852494577007"
    x2="103.3210332103321"
    y2="105.5350553505535"
    stroke="hsla(0,50%,50%,0.6)"
    stroke-width="1"
    transform="translate(-70.6896551724,-92.4016740167)"
    />
  
  <line
    x1="100"
    y1="92.3076923076923"
    x2="101.29032258064517"
    y2="100.64516129032258"
    stroke="hsla(0,50%,50%,0.6)"
    stroke-width="1"
    transform="translate(-70.6896551724,-92.4016740167)"
    />
  
  <line
    x1="100.45871559633028"
    y1="99.08256880733946"
    x2="100.66006600660066"
    y2="100.99009900990099"
    stroke="hsla(0,50%,50%,0.6)"
    stroke-width="1"
    transform="translate(-70.6896551724,-92.4016740167)"
    />
  
  <line
    x1="100"
    y1="96"
    x2="100.34843205574913"
    y2="100.34843205574913"
    stroke="hsla(0,50%,50%,0.6)"
    stroke-width="1"
    transform="translate(-70.6896551724,-92.4016740167)"
    />
  
  <line
    x1="100"
    y1="92.3076923076923"
    x2="100"
    y2="100"
    stroke="hsla(0,50%,50%,0.6)"
    stroke-width="1"
    transform="translate(-70.6896551724,-92.4016740167)"
    />
  
  <line
    x1="100.45871559633028"
    y1="99.08256880733946"
    x2="100.34843205574913"
    y2="100.34843205574913"
    stroke="hsla(0,50%,50%,0.6)"
    stroke-width="1"
    transform="translate(-70.6896551724,-92.4016740167)"
    />
  
  <line
    x1="101.30151843817788"
    y1="95.87852494577007"
    x2="100.66006600660066"
    y2="100.99009900990099"
    stroke="hsla(0,50%,50%,0.6)"
    stroke-width="1"
    transform="translate(-70.6896551724,-92.4016740167)"
    />
  
  <line
    x1="104.8780487804878"
    y1="79.26829268292683"
    x2="101.29032258064517"
    y2="100.64516129032258"
    stroke="hsla(0,50%,50%,0.6)"
    stroke-width="1"
    transform="translate(-70.6896551724,-92.4016740167)"
    />
  
  <line
    x1="108.67052023121387"
    y1="89.01734104046243"
    x2="103.3210332103321"
    y2="105.5350553505535"
    stroke="hsla(0,50%,50%,0.6)"
    stroke-width="1"
    transform="translate(-70.6896551724,-92.4016740167)"
    />
  
  <line
    x1="122.22222222222223"
    y1="96.29629629629629"
    x2="117.14285714285714"
    y2="104"
    stroke="hsla(0,50%,50%,0.6)"
    stroke-width="1"
    transform="translate(-70.6896551724,-92.4016740167)"
    />
  
  <line
    x1="127.02702702702703"
    y1="97.29729729729729"
    x2="122.85714285714286"
    y2="102.85714285714286"
    stroke="hsla(0,50%,50%,0.6)"
    stroke-width="1"
    transform="translate(-70.6896551724,-92.4016740167)"
    />
  
  <line
    x1="104.8780487804878"
    y1="79.26829268292683"
    x2="0"
    y2="100"
    stroke="hsla(0,50%,50%,0.6)"
    stroke-width="1"
    transform="translate(-70.6896551724,-92.4016740167)"
    />
  
  <line
    x1="108.67052023121387"
    y1="89.01734104046243"
    x2="0"
    y2="100"
    stroke="hsla(0,50%,50%,0.6)"
    stroke-width="1"
    transform="translate(-70.6896551724,-92.4016740167)"
    />
  
  <line
    x1="100"
    y1="92.3076923076923"
    x2="0"
    y2="100"
    stroke="hsla(0,50%,50%,0.6)"
    stroke-width="1"
    transform="translate(-70.6896551724,-92.4016740167)"
    />
  
  <line
    x1="0"
    y1="100"
    x2="103.3210332103321"
    y2="105.5350553505535"
    stroke="hsla(0,50%,50%,0.6)"
    stroke-width="1"
    transform="translate(-70.6896551724,-92.4016740167)"
    />
  
  <line
    x1="138.29787234042553"
    y1="93.61702127659575"
    x2="0"
    y2="100"
    stroke="hsla(0,50%,50%,0.6)"
    stroke-width="1"
    transform="translate(-70.6896551724,-92.4016740167)"
    />
  
  <line
    x1="101.30151843817788"
    y1="95.87852494577007"
    x2="0"
    y2="100"
    stroke="hsla(0,50%,50%,0.6)"
    stroke-width="1"
    transform="translate(-70.6896551724,-92.4016740167)"
    />
  
  <line
    x1="100"
    y1="96"
    x2="0"
    y2="100"
    stroke="hsla(0,50%,50%,0.6)"
    stroke-width="1"
    transform="translate(-70.6896551724,-92.4016740167)"
    />
  
  <line
    x1="0"
    y1="100"
    x2="133.33333333333334"
    y2="105"
    stroke="hsla(0,50%,50%,0.6)"
    stroke-width="1"
    transform="translate(-70.6896551724,-92.4016740167)"
    />
  
  <line
    x1="0"
    y1="100"
    x2="128.57142857142858"
    y2="104.76190476190476"
    stroke="hsla(0,50%,50%,0.6)"
    stroke-width="1"
    transform="translate(-70.6896551724,-92.4016740167)"
    />
  
  <line
    x1="0"
    y1="100"
    x2="117.14285714285714"
    y2="104"
    stroke="hsla(0,50%,50%,0.6)"
    stroke-width="1"
    transform="translate(-70.6896551724,-92.4016740167)"
    />
  
  <line
    x1="122.22222222222223"
    y1="96.29629629629629"
    x2="0"
    y2="100"
    stroke="hsla(0,50%,50%,0.6)"
    stroke-width="1"
    transform="translate(-70.6896551724,-92.4016740167)"
    />
  
  <line
    x1="0"
    y1="100"
    x2="122.85714285714286"
    y2="102.85714285714286"
    stroke="hsla(0,50%,50%,0.6)"
    stroke-width="1"
    transform="translate(-70.6896551724,-92.4016740167)"
    />
  
  <line
    x1="127.02702702702703"
    y1="97.29729729729729"
    x2="0"
    y2="100"
    stroke="hsla(0,50%,50%,0.6)"
    stroke-width="1"
    transform="translate(-70.6896551724,-92.4016740167)"
    />
  
  <line
    x1="0"
    y1="100"
    x2="118.75"
    y2="101.5625"
    stroke="hsla(0,50%,50%,0.6)"
    stroke-width="1"
    transform="translate(-70.6896551724,-92.4016740167)"
    />
  
  <line
    x1="0"
    y1="100"
    x2="100.66006600660066"
    y2="100.99009900990099"
    stroke="hsla(0,50%,50%,0.6)"
    stroke-width="1"
    transform="translate(-70.6896551724,-92.4016740167)"
    />
  
  <line
    x1="100.45871559633028"
    y1="99.08256880733946"
    x2="0"
    y2="100"
    stroke="hsla(0,50%,50%,0.6)"
    stroke-width="1"
    transform="translate(-70.6896551724,-92.4016740167)"
    />
  
  <line
    x1="120.33898305084746"
    y1="99.15254237288136"
    x2="0"
    y2="100"
    stroke="hsla(0,50%,50%,0.6)"
    stroke-width="1"
    transform="translate(-70.6896551724,-92.4016740167)"
    />
  
  <line
    x1="0"
    y1="100"
    x2="101.29032258064517"
    y2="100.64516129032258"
    stroke="hsla(0,50%,50%,0.6)"
    stroke-width="1"
    transform="translate(-70.6896551724,-92.4016740167)"
    />
  
  <line
    x1="0"
    y1="100"
    x2="100.34843205574913"
    y2="100.34843205574913"
    stroke="hsla(0,50%,50%,0.6)"
    stroke-width="1"
    transform="translate(-70.6896551724,-92.4016740167)"
    />
  
  <line
    x1="0"
    y1="100"
    x2="125"
    y2="100"
    stroke="hsla(0,50%,50%,0.6)"
    stroke-width="1"
    transform="translate(-70.6896551724,-92.4016740167)"
    />
  
  <line
    x1="138.29787234042553"
    y1="93.61702127659575"
    x2="128.57142857142858"
    y2="104.76190476190476"
    stroke="hsla(0,50%,50%,0.6)"
    stroke-width="1"
    transform="translate(-70.6896551724,-92.4016740167)"
    />
  
  <line
    x1="141.3793103448276"
    y1="96.55172413793103"
    x2="133.33333333333334"
    y2="105"
    stroke="hsla(0,50%,50%,0.6)"
    stroke-width="1"
    transform="translate(-70.6896551724,-92.4016740167)"
    />
  
</svg>
