<?xml version="1.0"?>
<!DOCTYPE svg PUBLIC "-//W3C//DTD SVG 1.1//EN"
  "http://www.w3.org/Graphics/SVG/1.1/DTD/svg11.dtd">
<svg
  width="240"
  height="240"
  viewBox="-500 -500 1000 1000" xmlns="http://www.w3.org/2000/svg" version="1.1">
  <rect
    x="0"
    y="0"
    width="100"
    height="100"
    fill="hsla(206,100%,53%,0.3)"
    stroke="hsl(206,100%,53%)"
    stroke-width="3"
    transform="" />
  
  <path
    d="M 
      103.9215686274
      84.9673202614
      L
    
      104.7004320441
      86.5649888084
      L
    
      107.1090047393
      86.2559241706
      L
    
      110.8457196381
      92.8640094653
      L
    
      127.3224043715
      91.8032786885
      L
    
      131.8196884322
      96.7848856479
      L
    
      141.3793103448
      96.5517241379
      L
    
      133.3333333333
      105
      L
    
      118.5654008438
      104.4462025316
      L
    
      117.9211469534
      105.3763440860
      L
    
      0
      100
      z
    "
    fill="hsla(0,0%,50%,0.3)"
    stroke="hsla(0,0%,50%,1)"
    stroke-width="1"
    transform="translate(-70.6896551724,-95.1718321737)"
    />
  
  
  <line
    x1="107.1090047393365"
    y1="86.25592417061611"
    x2="117.92114695340501"
    y2="105.3763440860215"
    stroke="hsla(0,50%,50%,0.6)"
    stroke-width="1"
    transform="translate(-70.6896551724,-95.1718321737)"
    />
  
  <line
    x1="115.625"
    y1="92.85714285714286"
    x2="122.58064516129032"
    y2="103.2258064516129"
    stroke="hsla(0,50%,50%,0.6)"
    stroke-width="1"
    transform="translate(-70.6896551724,-95.1718321737)"
    />
  
  <line
    x1="103.92156862745098"
    y1="84.9673202614379"
    x2="111.62790697674419"
    y2="100.7751937984496"
    stroke="hsla(0,50%,50%,0.6)"
    stroke-width="1"
    transform="translate(-70.6896551724,-95.1718321737)"
    />
  
  <line
    x1="127.02702702702703"
    y1="97.29729729729729"
    x2="133.33333333333334"
    y2="105"
    stroke="hsla(0,50%,50%,0.6)"
    stroke-width="1"
    transform="translate(-70.6896551724,-95.1718321737)"
    />
  
  <line
    x1="127.3224043715847"
    y1="91.80327868852459"
    x2="136.36363636363637"
    y2="101.81818181818181"
    stroke="hsla(0,50%,50%,0.6)"
    stroke-width="1"
    transform="translate(-70.6896551724,-95.1718321737)"
    />
  
  <line
    x1="102.5"
    y1="100"
    x2="102.94117647058823"
    y2="101.96078431372548"
    stroke="hsla(0,50%,50%,0.6)"
    stroke-width="1"
    transform="translate(-70.6896551724,-95.1718321737)"
    />
  
  <line
    x1="100"
    y1="89.65517241379311"
    x2="102.32558139534883"
    y2="100.7751937984496"
    stroke="hsla(0,50%,50%,0.6)"
    stroke-width="1"
    transform="translate(-70.6896551724,-95.1718321737)"
    />
  
  <line
    x1="101.03092783505154"
    y1="98.96907216494846"
    x2="101.29032258064517"
    y2="100.64516129032258"
    stroke="hsla(0,50%,50%,0.6)"
    stroke-width="1"
    transform="translate(-70.6896551724,-95.1718321737)"
    />
  
  <line
    x1="100.7380073800738"
    y1="99.6309963099631"
    x2="100.83682008368201"
    y2="100.418410041841"
    stroke="hsla(0,50%,50%,0.6)"
    stroke-width="1"
    transform="translate(-70.6896551724,-95.1718321737)"
    />
  
  <line
    x1="100"
    y1="96"
    x2="100.47169811320755"
    y2="101.88679245283019"
    stroke="hsla(0,50%,50%,0.6)"
    stroke-width="1"
    transform="translate(-70.6896551724,-95.1718321737)"
    />
  
  <line
    x1="100"
    y1="89.65517241379311"
    x2="100"
    y2="100"
    stroke="hsla(0,50%,50%,0.6)"
    stroke-width="1"
    transform="translate(-70.6896551724,-95.1718321737)"
    />
  
  <line
    x1="100.7380073800738"
    y1="99.6309963099631"
    x2="100.47169811320755"
    y2="101.88679245283019"
    stroke="hsla(0,50%,50%,0.6)"
    stroke-width="1"
    transform="translate(-70.6896551724,-95.1718321737)"
    />
  
  <line
    x1="101.03092783505154"
    y1="98.96907216494846"
    x2="100.83682008368201"
    y2="100.418410041841"
    stroke="hsla(0,50%,50%,0.6)"
    stroke-width="1"
    transform="translate(-70.6896551724,-95.1718321737)"
    />
  
  <line
    x1="103.92156862745098"
    y1="84.9673202614379"
    x2="101.29032258064517"
    y2="100.64516129032258"
    stroke="hsla(0,50%,50%,0.6)"
    stroke-width="1"
    transform="translate(-70.6896551724,-95.1718321737)"
    />
  
  <line
    x1="102.5"
    y1="100"
    x2="102.32558139534883"
    y2="100.7751937984496"
    stroke="hsla(0,50%,50%,0.6)"
    stroke-width="1"
    transform="translate(-70.6896551724,-95.1718321737)"
    />
  
  <line
    x1="107.1090047393365"
    y1="86.25592417061611"
    x2="102.94117647058823"
    y2="101.96078431372548"
    stroke="hsla(0,50%,50%,0.6)"
    stroke-width="1"
    transform="translate(-70.6896551724,-95.1718321737)"
    />
  
  <line
    x1="115.625"
    y1="92.85714285714286"
    x2="111.62790697674419"
    y2="100.7751937984496"
    stroke="hsla(0,50%,50%,0.6)"
    stroke-width="1"
    transform="translate(-70.6896551724,-95.1718321737)"
    />
  
  <line
    x1="127.3224043715847"
    y1="91.80327868852459"
    x2="117.92114695340501"
    y2="105.3763440860215"
    stroke="hsla(0,50%,50%,0.6)"
    stroke-width="1"
    transform="translate(-70.6896551724,-95.1718321737)"
    />
  
  <line
    x1="127.02702702702703"
    y1="97.29729729729729"
    x2="122.58064516129032"
    y2="103.2258064516129"
    stroke="hsla(0,50%,50%,0.6)"
    stroke-width="1"
    transform="translate(-70.6896551724,-95.1718321737)"
    />
  
  <line
    x1="103.92156862745098"
    y1="84.9673202614379"
    x2="0"
    y2="100"
    stroke="hsla(0,50%,50%,0.6)"
    stroke-width="1"
    transform="translate(-70.6896551724,-95.1718321737)"
    />
  
  <line
    x1="107.1090047393365"
    y1="86.25592417061611"
    x2="0"
    y2="100"
    stroke="hsla(0,50%,50%,0.6)"
    stroke-width="1"
    transform="translate(-70.6896551724,-95.1718321737)"
    />
  
  <line
    x1="100"
    y1="89.65517241379311"
    x2="0"
    y2="100"
    stroke="hsla(0,50%,50%,0.6)"
    stroke-width="1"
    transform="translate(-70.6896551724,-95.1718321737)"
    />
  
  <line
    x1="127.3224043715847"
    y1="91.80327868852459"
    x2="0"
    y2="100"
    stroke="hsla(0,50%,50%,0.6)"
    stroke-width="1"
    transform="translate(-70.6896551724,-95.1718321737)"
    />
  
  <line
    x1="115.625"
    y1="92.85714285714286"
    x2="0"
    y2="100"
    stroke="hsla(0,50%,50%,0.6)"
    stroke-width="1"
    transform="translate(-70.6896551724,-95.1718321737)"
    />
  
  <line
    x1="0"
    y1="100"
    x2="117.92114695340501"
    y2="105.3763440860215"
    stroke="hsla(0,50%,50%,0.6)"
    stroke-width="1"
    transform="translate(-70.6896551724,-95.1718321737)"
    />
  
  <line
    x1="100"
    y1="96"
    x2="0"
    y2="100"
    stroke="hsla(0,50%,50%,0.6)"
    stroke-width="1"
    transform="translate(-70.6896551724,-95.1718321737)"
    />
  
  <line
    x1="0"
    y1="100"
    x2="133.33333333333334"
    y2="105"
    stroke="hsla(0,50%,50%,0.6)"
    stroke-width="1"
    transform="translate(-70.6896551724,-95.1718321737)"
    />
  
  <line
    x1="0"
    y1="100"
    x2="122.58064516129032"
    y2="103.2258064516129"
    stroke="hsla(0,50%,50%,0.6)"
    stroke-width="1"
    transform="translate(-70.6896551724,-95.1718321737)"
    />
  
  <line
    x1="141.3793103448276"
    y1="96.55172413793103"
    x2="0"
    y2="100"
    stroke="hsla(0,50%,50%,0.6)"
    stroke-width="1"
    transform="translate(-70.6896551724,-95.1718321737)"
    />
  
  <line
    x1="127.02702702702703"
    y1="97.29729729729729"
    x2="0"
    y2="100"
    stroke="hsla(0,50%,50%,0.6)"
    stroke-width="1"
    transform="translate(-70.6896551724,-95.1718321737)"
    />
  
  <line
    x1="0"
    y1="100"
    x2="102.94117647058823"
    y2="101.96078431372548"
    stroke="hsla(0,50%,50%,0.6)"
    stroke-width="1"
    transform="translate(-70.6896551724,-95.1718321737)"
    />
  
  <line
    x1="0"
    y1="100"
    x2="100.47169811320755"
    y2="101.88679245283019"
    stroke="hsla(0,50%,50%,0.6)"
    stroke-width="1"
    transform="translate(-70.6896551724,-95.1718321737)"
    />
  
  <line
    x1="0"
    y1="100"
    x2="136.36363636363637"
    y2="101.81818181818181"
    stroke="hsla(0,50%,50%,0.6)"
    stroke-width="1"
    transform="translate(-70.6896551724,-95.1718321737)"
    />
  
  <line
    x1="101.03092783505154"
    y1="98.96907216494846"
    x2="0"
    y2="100"
    stroke="hsla(0,50%,50%,0.6)"
    stroke-width="1"
    transform="translate(-70.6896551724,-95.1718321737)"
    />
  
  <line
    x1="0"
    y1="100"
    x2="102.32558139534883"
    y2="100.7751937984496"
    stroke="hsla(0,50%,50%,0.6)"
    stroke-width="1"
    transform="translate(-70.6896551724,-95.1718321737)"
    />
  
  <line
    x1="0"
    y1="100"
    x2="111.62790697674419"
    y2="100.7751937984496"
    stroke="hsla(0,50%,50%,0.6)"
    stroke-width="1"
    transform="translate(-70.6896551724,-95.1718321737)"
    />
  
  <line
    x1="0"
    y1="100"
    x2="101.29032258064517"
    y2="100.64516129032258"
    stroke="hsla(0,50%,50%,0.6)"
    stroke-width="1"
    transform="translate(-70.6896551724,-95.1718321737)"
    />
  
  <line
    x1="0"
    y1="100"
    x2="100.83682008368201"
    y2="100.418410041841"
    stroke="hsla(0,50%,50%,0.6)"
    stroke-width="1"
    transform="translate(-70.6896551724,-95.1718321737)"
    />
  
  <line
    x1="100.7380073800738"
    y1="99.6309963099631"
    x2="0"
    y2="100"
    stroke="hsla(0,50%,50%,0.6)"
    stroke-width="1"
    transform="translate(-70.6896551724,-95.1718321737)"
    />
  
  <line
    x1="0"
    y1="100"
    x2="102.5"
    y2="100"
    stroke="hsla(0,50%,50%,0.6)"
    stroke-width="1"
    transform="translate(-70.6896551724,-95.1718321737)"
    />
  
  <line
    x1="141.3793103448276"
    y1="96.55172413793103"
    x2="133.33333333333334"
    y2="105"
    stroke="hsla(0,50%,50%,0.6)"
    stroke-width="1"
    transform="translate(-70.6896551724,-95.1718321737)"
    />
  
</svg>
