<?xml version="1.0"?>
<!DOCTYPE svg PUBLIC "-//W3C//DTD SVG 1.1//EN"
  "http://www.w3.org/Graphics/SVG/1.1/DTD/svg11.dtd">
<svg
  width="240"
  height="240"
  viewBox="-500 -500 1000 1000" xmlns="http://www.w3.org/2000/svg" version="1.1">
  <rect
    x="0"
    y="0"
    width="100"
    height="100"
    fill="hsla(206,100%,53%,0.3)"
    stroke="hsl(206,100%,53%)"
    stroke-width="3"
    transform="" />
  
  <path
    d="M 
      115.5440414507
      78.7564766839
      L
    
      130.9493034611
      95.8207669108
      L
    
      140.2985074626
      95.5223880597
      L
    
      141.3793103448
      96.5517241379
      L
    
      136.3636363636
      101.8181818181
      L
    
      134.5034397600
      101.7933791968
      L
    
      133.1797235023
      103.2258064516
      L
    
      101.5234252721
      102.4590449027
      L
    
      101.4388489208
      102.8776978417
      L
    
      0
      100
      z
    "
    fill="hsla(0,0%,50%,0.3)"
    stroke="hsla(0,0%,50%,1)"
    stroke-width="1"
    transform="translate(-70.6896551724,-90.9911415677)"
    />
  
  
  <line
    x1="112.90322580645162"
    y1="94.6236559139785"
    x2="116.90140845070422"
    y2="101.40845070422536"
    stroke="hsla(0,50%,50%,0.6)"
    stroke-width="1"
    transform="translate(-70.6896551724,-90.9911415677)"
    />
  
  <line
    x1="104.44444444444444"
    y1="88"
    x2="110.15228426395939"
    y2="100.50761421319797"
    stroke="hsla(0,50%,50%,0.6)"
    stroke-width="1"
    transform="translate(-70.6896551724,-90.9911415677)"
    />
  
  <line
    x1="123.18840579710145"
    y1="91.30434782608695"
    x2="133.17972350230414"
    y2="103.2258064516129"
    stroke="hsla(0,50%,50%,0.6)"
    stroke-width="1"
    transform="translate(-70.6896551724,-90.9911415677)"
    />
  
  <line
    x1="115.5440414507772"
    y1="78.75647668393782"
    x2="136.36363636363637"
    y2="101.81818181818181"
    stroke="hsla(0,50%,50%,0.6)"
    stroke-width="1"
    transform="translate(-70.6896551724,-90.9911415677)"
    />
  
  <line
    x1="103.77358490566037"
    y1="94.33962264150944"
    x2="106.45161290322581"
    y2="102.15053763440861"
    stroke="hsla(0,50%,50%,0.6)"
    stroke-width="1"
    transform="translate(-70.6896551724,-90.9911415677)"
    />
  
  <line
    x1="140.29850746268656"
    y1="95.5223880597015"
    x2="141.3793103448276"
    y2="96.55172413793103"
    stroke="hsla(0,50%,50%,0.6)"
    stroke-width="1"
    transform="translate(-70.6896551724,-90.9911415677)"
    />
  
  <line
    x1="101.52671755725191"
    y1="99.23664122137404"
    x2="102.04081632653062"
    y2="102.04081632653062"
    stroke="hsla(0,50%,50%,0.6)"
    stroke-width="1"
    transform="translate(-70.6896551724,-90.9911415677)"
    />
  
  <line
    x1="100.8130081300813"
    y1="97.5609756097561"
    x2="101.29032258064517"
    y2="100.64516129032258"
    stroke="hsla(0,50%,50%,0.6)"
    stroke-width="1"
    transform="translate(-70.6896551724,-90.9911415677)"
    />
  
  <line
    x1="100.84388185654008"
    y1="98.73417721518987"
    x2="101.43884892086331"
    y2="102.87769784172662"
    stroke="hsla(0,50%,50%,0.6)"
    stroke-width="1"
    transform="translate(-70.6896551724,-90.9911415677)"
    />
  
  <line
    x1="100"
    y1="94.73684210526316"
    x2="100.62111801242236"
    y2="100.62111801242236"
    stroke="hsla(0,50%,50%,0.6)"
    stroke-width="1"
    transform="translate(-70.6896551724,-90.9911415677)"
    />
  
  <line
    x1="100"
    y1="96.7741935483871"
    x2="100.34013605442176"
    y2="102.04081632653062"
    stroke="hsla(0,50%,50%,0.6)"
    stroke-width="1"
    transform="translate(-70.6896551724,-90.9911415677)"
    />
  
  <line
    x1="100"
    y1="94.73684210526316"
    x2="100"
    y2="100"
    stroke="hsla(0,50%,50%,0.6)"
    stroke-width="1"
    transform="translate(-70.6896551724,-90.9911415677)"
    />
  
  <line
    x1="100.8130081300813"
    y1="97.5609756097561"
    x2="100.34013605442176"
    y2="102.04081632653062"
    stroke="hsla(0,50%,50%,0.6)"
    stroke-width="1"
    transform="translate(-70.6896551724,-90.9911415677)"
    />
  
  <line
    x1="100.84388185654008"
    y1="98.73417721518987"
    x2="100.62111801242236"
    y2="100.62111801242236"
    stroke="hsla(0,50%,50%,0.6)"
    stroke-width="1"
    transform="translate(-70.6896551724,-90.9911415677)"
    />
  
  <line
    x1="101.52671755725191"
    y1="99.23664122137404"
    x2="101.29032258064517"
    y2="100.64516129032258"
    stroke="hsla(0,50%,50%,0.6)"
    stroke-width="1"
    transform="translate(-70.6896551724,-90.9911415677)"
    />
  
  <line
    x1="104.44444444444444"
    y1="88"
    x2="101.43884892086331"
    y2="102.87769784172662"
    stroke="hsla(0,50%,50%,0.6)"
    stroke-width="1"
    transform="translate(-70.6896551724,-90.9911415677)"
    />
  
  <line
    x1="103.77358490566037"
    y1="94.33962264150944"
    x2="102.04081632653062"
    y2="102.04081632653062"
    stroke="hsla(0,50%,50%,0.6)"
    stroke-width="1"
    transform="translate(-70.6896551724,-90.9911415677)"
    />
  
  <line
    x1="115.5440414507772"
    y1="78.75647668393782"
    x2="106.45161290322581"
    y2="102.15053763440861"
    stroke="hsla(0,50%,50%,0.6)"
    stroke-width="1"
    transform="translate(-70.6896551724,-90.9911415677)"
    />
  
  <line
    x1="112.90322580645162"
    y1="94.6236559139785"
    x2="110.15228426395939"
    y2="100.50761421319797"
    stroke="hsla(0,50%,50%,0.6)"
    stroke-width="1"
    transform="translate(-70.6896551724,-90.9911415677)"
    />
  
  <line
    x1="123.18840579710145"
    y1="91.30434782608695"
    x2="116.90140845070422"
    y2="101.40845070422536"
    stroke="hsla(0,50%,50%,0.6)"
    stroke-width="1"
    transform="translate(-70.6896551724,-90.9911415677)"
    />
  
  <line
    x1="115.5440414507772"
    y1="78.75647668393782"
    x2="0"
    y2="100"
    stroke="hsla(0,50%,50%,0.6)"
    stroke-width="1"
    transform="translate(-70.6896551724,-90.9911415677)"
    />
  
  <line
    x1="104.44444444444444"
    y1="88"
    x2="0"
    y2="100"
    stroke="hsla(0,50%,50%,0.6)"
    stroke-width="1"
    transform="translate(-70.6896551724,-90.9911415677)"
    />
  
  <line
    x1="123.18840579710145"
    y1="91.30434782608695"
    x2="0"
    y2="100"
    stroke="hsla(0,50%,50%,0.6)"
    stroke-width="1"
    transform="translate(-70.6896551724,-90.9911415677)"
    />
  
  <line
    x1="103.77358490566037"
    y1="94.33962264150944"
    x2="0"
    y2="100"
    stroke="hsla(0,50%,50%,0.6)"
    stroke-width="1"
    transform="translate(-70.6896551724,-90.9911415677)"
    />
  
  <line
    x1="100"
    y1="94.73684210526316"
    x2="0"
    y2="100"
    stroke="hsla(0,50%,50%,0.6)"
    stroke-width="1"
    transform="translate(-70.6896551724,-90.9911415677)"
    />
  
  <line
    x1="112.90322580645162"
    y1="94.6236559139785"
    x2="0"
    y2="100"
    stroke="hsla(0,50%,50%,0.6)"
    stroke-width="1"
    transform="translate(-70.6896551724,-90.9911415677)"
    />
  
  <line
    x1="100"
    y1="96.7741935483871"
    x2="0"
    y2="100"
    stroke="hsla(0,50%,50%,0.6)"
    stroke-width="1"
    transform="translate(-70.6896551724,-90.9911415677)"
    />
  
  <line
    x1="140.29850746268656"
    y1="95.5223880597015"
    x2="0"
    y2="100"
    stroke="hsla(0,50%,50%,0.6)"
    stroke-width="1"
    transform="translate(-70.6896551724,-90.9911415677)"
    />
  
  <line
    x1="0"
    y1="100"
    x2="101.43884892086331"
    y2="102.87769784172662"
    stroke="hsla(0,50%,50%,0.6)"
    stroke-width="1"
    transform="translate(-70.6896551724,-90.9911415677)"
    />
  
  <line
    x1="0"
    y1="100"
    x2="133.17972350230414"
    y2="103.2258064516129"
    stroke="hsla(0,50%,50%,0.6)"
    stroke-width="1"
    transform="translate(-70.6896551724,-90.9911415677)"
    />
  
  <line
    x1="100.8130081300813"
    y1="97.5609756097561"
    x2="0"
    y2="100"
    stroke="hsla(0,50%,50%,0.6)"
    stroke-width="1"
    transform="translate(-70.6896551724,-90.9911415677)"
    />
  
  <line
    x1="0"
    y1="100"
    x2="100.34013605442176"
    y2="102.04081632653062"
    stroke="hsla(0,50%,50%,0.6)"
    stroke-width="1"
    transform="translate(-70.6896551724,-90.9911415677)"
    />
  
  <line
    x1="0"
    y1="100"
    x2="106.45161290322581"
    y2="102.15053763440861"
    stroke="hsla(0,50%,50%,0.6)"
    stroke-width="1"
    transform="translate(-70.6896551724,-90.9911415677)"
    />
  
  <line
    x1="0"
    y1="100"
    x2="102.04081632653062"
    y2="102.04081632653062"
    stroke="hsla(0,50%,50%,0.6)"
    stroke-width="1"
    transform="translate(-70.6896551724,-90.9911415677)"
    />
  
  <line
    x1="0"
    y1="100"
    x2="136.36363636363637"
    y2="101.81818181818181"
    stroke="hsla(0,50%,50%,0.6)"
    stroke-width="1"
    transform="translate(-70.6896551724,-90.9911415677)"
    />
  
  <line
    x1="100.84388185654008"
    y1="98.73417721518987"
    x2="0"
    y2="100"
    stroke="hsla(0,50%,50%,0.6)"
    stroke-width="1"
    transform="translate(-70.6896551724,-90.9911415677)"
    />
  
  <line
    x1="0"
    y1="100"
    x2="116.90140845070422"
    y2="101.40845070422536"
    stroke="hsla(0,50%,50%,0.6)"
    stroke-width="1"
    transform="translate(-70.6896551724,-90.9911415677)"
    />
  
  <line
    x1="101.52671755725191"
    y1="99.23664122137404"
    x2="0"
    y2="100"
    stroke="hsla(0,50%,50%,0.6)"
    stroke-width="1"
    transform="translate(-70.6896551724,-90.9911415677)"
    />
  
  <line
    x1="0"
    y1="100"
    x2="101.29032258064517"
    y2="100.64516129032258"
    stroke="hsla(0,50%,50%,0.6)"
    stroke-width="1"
    transform="translate(-70.6896551724,-90.9911415677)"
    />
  
  <line
    x1="0"
    y1="100"
    x2="100.62111801242236"
    y2="100.62111801242236"
    stroke="hsla(0,50%,50%,0.6)"
    stroke-width="1"
    transform="translate(-70.6896551724,-90.9911415677)"
    />
  
  <line
    x1="0"
    y1="100"
    x2="110.15228426395939"
    y2="100.50761421319797"
    stroke="hsla(0,50%,50%,0.6)"
    stroke-width="1"
    transform="translate(-70.6896551724,-90.9911415677)"
    />
  
  <line
    x1="0"
    y1="100"
    x2="100"
    y2="100"
    stroke="hsla(0,50%,50%,0.6)"
    stroke-width="1"
    transform="translate(-70.6896551724,-90.9911415677)"
    />
  
  <line
    x1="140.29850746268656"
    y1="95.5223880597015"
    x2="133.17972350230414"
    y2="103.2258064516129"
    stroke="hsla(0,50%,50%,0.6)"
    stroke-width="1"
    transform="translate(-70.6896551724,-90.9911415677)"
    />
  
  <line
    x1="141.3793103448276"
    y1="96.55172413793103"
    x2="136.36363636363637"
    y2="101.81818181818181"
    stroke="hsla(0,50%,50%,0.6)"
    stroke-width="1"
    transform="translate(-70.6896551724,-90.9911415677)"
    />
  
</svg>
