<?xml version="1.0"?>
<!DOCTYPE svg PUBLIC "-//W3C//DTD SVG 1.1//EN"
  "http://www.w3.org/Graphics/SVG/1.1/DTD/svg11.dtd">
<svg
  width="240"
  height="240"
  viewBox="-50 -50 200 200" xmlns="http://www.w3.org/2000/svg" version="1.1">
  <rect
    x="0"
    y="0"
    width="100"
    height="100"
    fill="hsla(206,100%,53%,0.3)"
    stroke="hsl(206,100%,53%)"
    stroke-width="3"
    transform="" />
  
  <path
    d="M 
      100
      86.9565217391
      L
    
      101.7137727482
      93.4142161529
      L
    
      114.8760330578
      92.5619834710
      L
    
      116.2428219852
      94.6349466776
      L
    
      138.2978723404
      93.6170212765
      L
    
      141.3793103448
      96.5517241379
      L
    
      130.7692307692
      107.6923076923
      L
    
      126.2461851475
      107.4262461851
      L
    
      125.3521126760
      108.4507042253
      L
    
      0
      100
      z
    "
    fill="hsla(0,0%,50%,0.3)"
    stroke="hsla(0,0%,50%,1)"
    stroke-width="1"
    transform="translate(-63.6217397024,-103.2049257633) scale(1,-1) translate(50,-110)"
    />
  
  
  <line
    x1="111.76470588235294"
    y1="97.05882352941177"
    x2="115.05376344086021"
    y2="103.2258064516129"
    stroke="hsla(0,50%,50%,0.6)"
    stroke-width="1"
    transform="translate(-63.6217397024,-103.2049257633) scale(1,-1) translate(50,-110)"
    />
  
  <line
    x1="117.94871794871794"
    y1="98.46153846153847"
    x2="121.73913043478261"
    y2="104.34782608695652"
    stroke="hsla(0,50%,50%,0.6)"
    stroke-width="1"
    transform="translate(-63.6217397024,-103.2049257633) scale(1,-1) translate(50,-110)"
    />
  
  <line
    x1="114.87603305785125"
    y1="92.56198347107438"
    x2="125.35211267605634"
    y2="108.45070422535211"
    stroke="hsla(0,50%,50%,0.6)"
    stroke-width="1"
    transform="translate(-63.6217397024,-103.2049257633) scale(1,-1) translate(50,-110)"
    />
  
  <line
    x1="106.9204152249135"
    y1="93.42560553633218"
    x2="110.15228426395939"
    y2="100.50761421319797"
    stroke="hsla(0,50%,50%,0.6)"
    stroke-width="1"
    transform="translate(-63.6217397024,-103.2049257633) scale(1,-1) translate(50,-110)"
    />
  
  <line
    x1="125"
    y1="100"
    x2="130.76923076923077"
    y2="107.6923076923077"
    stroke="hsla(0,50%,50%,0.6)"
    stroke-width="1"
    transform="translate(-63.6217397024,-103.2049257633) scale(1,-1) translate(50,-110)"
    />
  
  <line
    x1="105.33333333333333"
    y1="96"
    x2="108.75912408759125"
    y2="105.1094890510949"
    stroke="hsla(0,50%,50%,0.6)"
    stroke-width="1"
    transform="translate(-63.6217397024,-103.2049257633) scale(1,-1) translate(50,-110)"
    />
  
  <line
    x1="138.29787234042553"
    y1="93.61702127659575"
    x2="141.3793103448276"
    y2="96.55172413793103"
    stroke="hsla(0,50%,50%,0.6)"
    stroke-width="1"
    transform="translate(-63.6217397024,-103.2049257633) scale(1,-1) translate(50,-110)"
    />
  
  <line
    x1="100"
    y1="86.95652173913044"
    x2="103.79746835443038"
    y2="101.26582278481013"
    stroke="hsla(0,50%,50%,0.6)"
    stroke-width="1"
    transform="translate(-63.6217397024,-103.2049257633) scale(1,-1) translate(50,-110)"
    />
  
  <line
    x1="102.8169014084507"
    y1="98.59154929577464"
    x2="103.92156862745098"
    y2="102.94117647058823"
    stroke="hsla(0,50%,50%,0.6)"
    stroke-width="1"
    transform="translate(-63.6217397024,-103.2049257633) scale(1,-1) translate(50,-110)"
    />
  
  <line
    x1="101.30151843817788"
    y1="95.87852494577007"
    x2="102.32558139534883"
    y2="100.7751937984496"
    stroke="hsla(0,50%,50%,0.6)"
    stroke-width="1"
    transform="translate(-63.6217397024,-103.2049257633) scale(1,-1) translate(50,-110)"
    />
  
  <line
    x1="100"
    y1="96.55172413793103"
    x2="100.43196544276458"
    y2="102.80777537796976"
    stroke="hsla(0,50%,50%,0.6)"
    stroke-width="1"
    transform="translate(-63.6217397024,-103.2049257633) scale(1,-1) translate(50,-110)"
    />
  
  <line
    x1="100"
    y1="86.95652173913044"
    x2="100"
    y2="100"
    stroke="hsla(0,50%,50%,0.6)"
    stroke-width="1"
    transform="translate(-63.6217397024,-103.2049257633) scale(1,-1) translate(50,-110)"
    />
  
  <line
    x1="101.30151843817788"
    y1="95.87852494577007"
    x2="100.43196544276458"
    y2="102.80777537796976"
    stroke="hsla(0,50%,50%,0.6)"
    stroke-width="1"
    transform="translate(-63.6217397024,-103.2049257633) scale(1,-1) translate(50,-110)"
    />
  
  <line
    x1="102.8169014084507"
    y1="98.59154929577464"
    x2="102.32558139534883"
    y2="100.7751937984496"
    stroke="hsla(0,50%,50%,0.6)"
    stroke-width="1"
    transform="translate(-63.6217397024,-103.2049257633) scale(1,-1) translate(50,-110)"
    />
  
  <line
    x1="105.33333333333333"
    y1="96"
    x2="103.79746835443038"
    y2="101.26582278481013"
    stroke="hsla(0,50%,50%,0.6)"
    stroke-width="1"
    transform="translate(-63.6217397024,-103.2049257633) scale(1,-1) translate(50,-110)"
    />
  
  <line
    x1="106.9204152249135"
    y1="93.42560553633218"
    x2="103.92156862745098"
    y2="102.94117647058823"
    stroke="hsla(0,50%,50%,0.6)"
    stroke-width="1"
    transform="translate(-63.6217397024,-103.2049257633) scale(1,-1) translate(50,-110)"
    />
  
  <line
    x1="111.76470588235294"
    y1="97.05882352941177"
    x2="110.15228426395939"
    y2="100.50761421319797"
    stroke="hsla(0,50%,50%,0.6)"
    stroke-width="1"
    transform="translate(-63.6217397024,-103.2049257633) scale(1,-1) translate(50,-110)"
    />
  
  <line
    x1="114.87603305785125"
    y1="92.56198347107438"
    x2="108.75912408759125"
    y2="105.1094890510949"
    stroke="hsla(0,50%,50%,0.6)"
    stroke-width="1"
    transform="translate(-63.6217397024,-103.2049257633) scale(1,-1) translate(50,-110)"
    />
  
  <line
    x1="117.94871794871794"
    y1="98.46153846153847"
    x2="115.05376344086021"
    y2="103.2258064516129"
    stroke="hsla(0,50%,50%,0.6)"
    stroke-width="1"
    transform="translate(-63.6217397024,-103.2049257633) scale(1,-1) translate(50,-110)"
    />
  
  <line
    x1="125"
    y1="100"
    x2="121.73913043478261"
    y2="104.34782608695652"
    stroke="hsla(0,50%,50%,0.6)"
    stroke-width="1"
    transform="translate(-63.6217397024,-103.2049257633) scale(1,-1) translate(50,-110)"
    />
  
  <line
    x1="100"
    y1="86.95652173913044"
    x2="0"
    y2="100"
    stroke="hsla(0,50%,50%,0.6)"
    stroke-width="1"
    transform="translate(-63.6217397024,-103.2049257633) scale(1,-1) translate(50,-110)"
    />
  
  <line
    x1="0"
    y1="100"
    x2="125.35211267605634"
    y2="108.45070422535211"
    stroke="hsla(0,50%,50%,0.6)"
    stroke-width="1"
    transform="translate(-63.6217397024,-103.2049257633) scale(1,-1) translate(50,-110)"
    />
  
  <line
    x1="114.87603305785125"
    y1="92.56198347107438"
    x2="0"
    y2="100"
    stroke="hsla(0,50%,50%,0.6)"
    stroke-width="1"
    transform="translate(-63.6217397024,-103.2049257633) scale(1,-1) translate(50,-110)"
    />
  
  <line
    x1="106.9204152249135"
    y1="93.42560553633218"
    x2="0"
    y2="100"
    stroke="hsla(0,50%,50%,0.6)"
    stroke-width="1"
    transform="translate(-63.6217397024,-103.2049257633) scale(1,-1) translate(50,-110)"
    />
  
  <line
    x1="0"
    y1="100"
    x2="130.76923076923077"
    y2="107.6923076923077"
    stroke="hsla(0,50%,50%,0.6)"
    stroke-width="1"
    transform="translate(-63.6217397024,-103.2049257633) scale(1,-1) translate(50,-110)"
    />
  
  <line
    x1="0"
    y1="100"
    x2="108.75912408759125"
    y2="105.1094890510949"
    stroke="hsla(0,50%,50%,0.6)"
    stroke-width="1"
    transform="translate(-63.6217397024,-103.2049257633) scale(1,-1) translate(50,-110)"
    />
  
  <line
    x1="138.29787234042553"
    y1="93.61702127659575"
    x2="0"
    y2="100"
    stroke="hsla(0,50%,50%,0.6)"
    stroke-width="1"
    transform="translate(-63.6217397024,-103.2049257633) scale(1,-1) translate(50,-110)"
    />
  
  <line
    x1="101.30151843817788"
    y1="95.87852494577007"
    x2="0"
    y2="100"
    stroke="hsla(0,50%,50%,0.6)"
    stroke-width="1"
    transform="translate(-63.6217397024,-103.2049257633) scale(1,-1) translate(50,-110)"
    />
  
  <line
    x1="105.33333333333333"
    y1="96"
    x2="0"
    y2="100"
    stroke="hsla(0,50%,50%,0.6)"
    stroke-width="1"
    transform="translate(-63.6217397024,-103.2049257633) scale(1,-1) translate(50,-110)"
    />
  
  <line
    x1="0"
    y1="100"
    x2="121.73913043478261"
    y2="104.34782608695652"
    stroke="hsla(0,50%,50%,0.6)"
    stroke-width="1"
    transform="translate(-63.6217397024,-103.2049257633) scale(1,-1) translate(50,-110)"
    />
  
  <line
    x1="100"
    y1="96.55172413793103"
    x2="0"
    y2="100"
    stroke="hsla(0,50%,50%,0.6)"
    stroke-width="1"
    transform="translate(-63.6217397024,-103.2049257633) scale(1,-1) translate(50,-110)"
    />
  
  <line
    x1="0"
    y1="100"
    x2="103.92156862745098"
    y2="102.94117647058823"
    stroke="hsla(0,50%,50%,0.6)"
    stroke-width="1"
    transform="translate(-63.6217397024,-103.2049257633) scale(1,-1) translate(50,-110)"
    />
  
  <line
    x1="0"
    y1="100"
    x2="115.05376344086021"
    y2="103.2258064516129"
    stroke="hsla(0,50%,50%,0.6)"
    stroke-width="1"
    transform="translate(-63.6217397024,-103.2049257633) scale(1,-1) translate(50,-110)"
    />
  
  <line
    x1="0"
    y1="100"
    x2="100.43196544276458"
    y2="102.80777537796976"
    stroke="hsla(0,50%,50%,0.6)"
    stroke-width="1"
    transform="translate(-63.6217397024,-103.2049257633) scale(1,-1) translate(50,-110)"
    />
  
  <line
    x1="111.76470588235294"
    y1="97.05882352941177"
    x2="0"
    y2="100"
    stroke="hsla(0,50%,50%,0.6)"
    stroke-width="1"
    transform="translate(-63.6217397024,-103.2049257633) scale(1,-1) translate(50,-110)"
    />
  
  <line
    x1="102.8169014084507"
    y1="98.59154929577464"
    x2="0"
    y2="100"
    stroke="hsla(0,50%,50%,0.6)"
    stroke-width="1"
    transform="translate(-63.6217397024,-103.2049257633) scale(1,-1) translate(50,-110)"
    />
  
  <line
    x1="117.94871794871794"
    y1="98.46153846153847"
    x2="0"
    y2="100"
    stroke="hsla(0,50%,50%,0.6)"
    stroke-width="1"
    transform="translate(-63.6217397024,-103.2049257633) scale(1,-1) translate(50,-110)"
    />
  
  <line
    x1="0"
    y1="100"
    x2="103.79746835443038"
    y2="101.26582278481013"
    stroke="hsla(0,50%,50%,0.6)"
    stroke-width="1"
    transform="translate(-63.6217397024,-103.2049257633) scale(1,-1) translate(50,-110)"
    />
  
  <line
    x1="0"
    y1="100"
    x2="102.32558139534883"
    y2="100.7751937984496"
    stroke="hsla(0,50%,50%,0.6)"
    stroke-width="1"
    transform="translate(-63.6217397024,-103.2049257633) scale(1,-1) translate(50,-110)"
    />
  
  <line
    x1="0"
    y1="100"
    x2="110.15228426395939"
    y2="100.50761421319797"
    stroke="hsla(0,50%,50%,0.6)"
    stroke-width="1"
    transform="translate(-63.6217397024,-103.2049257633) scale(1,-1) translate(50,-110)"
    />
  
  <line
    x1="0"
    y1="100"
    x2="125"
    y2="100"
    stroke="hsla(0,50%,50%,0.6)"
    stroke-width="1"
    transform="translate(-63.6217397024,-103.2049257633) scale(1,-1) translate(50,-110)"
    />
  
  <line
    x1="138.29787234042553"
    y1="93.61702127659575"
    x2="125.35211267605634"
    y2="108.45070422535211"
    stroke="hsla(0,50%,50%,0.6)"
    stroke-width="1"
    transform="translate(-63.6217397024,-103.2049257633) scale(1,-1) translate(50,-110)"
    />
  
  <line
    x1="141.3793103448276"
    y1="96.55172413793103"
    x2="130.76923076923077"
    y2="107.6923076923077"
    stroke="hsla(0,50%,50%,0.6)"
    stroke-width="1"
    transform="translate(-63.6217397024,-103.2049257633) scale(1,-1) translate(50,-110)"
    />
  
</svg>
