<?xml version="1.0"?>
<!DOCTYPE svg PUBLIC "-//W3C//DTD SVG 1.1//EN"
  "http://www.w3.org/Graphics/SVG/1.1/DTD/svg11.dtd">
<svg
  width="240"
  height="240"
  viewBox="-50 -50 200 200" xmlns="http://www.w3.org/2000/svg" version="1.1">
  <rect
    x="0"
    y="0"
    width="100"
    height="100"
    fill="hsla(206,100%,53%,0.3)"
    stroke="hsl(206,100%,53%)"
    stroke-width="3"
    transform="" />
  
  <path
    d="M 
      111.4832535885
      86.1244019138
      L
    
      118.3476248809
      96.2229481420
      L
    
      140.2985074626
      95.5223880597
      L
    
      141.3793103448
      96.5517241379
      L
    
      128.0701754385
      110.5263157894
      L
    
      103.3346000380
      108.4932547976
      L
    
      102.5531914893
      110.6382978723
      L
    
      0
      100
      z
    "
    fill="hsla(0,0%,50%,0.3)"
    stroke="hsla(0,0%,50%,1)"
    stroke-width="1"
    transform="translate(-54.9653302074,-104.0634934196) scale(1,-1) translate(50,-110)"
    />
  
  
  <line
    x1="111.32075471698113"
    y1="96.22641509433963"
    x2="114.28571428571429"
    y2="101.78571428571429"
    stroke="hsla(0,50%,50%,0.6)"
    stroke-width="1"
    transform="translate(-54.9653302074,-104.0634934196) scale(1,-1) translate(50,-110)"
    />
  
  <line
    x1="117.02127659574468"
    y1="97.02127659574468"
    x2="121.73913043478261"
    y2="104.34782608695652"
    stroke="hsla(0,50%,50%,0.6)"
    stroke-width="1"
    transform="translate(-54.9653302074,-104.0634934196) scale(1,-1) translate(50,-110)"
    />
  
  <line
    x1="111.48325358851675"
    y1="86.1244019138756"
    x2="128.0701754385965"
    y2="110.52631578947368"
    stroke="hsla(0,50%,50%,0.6)"
    stroke-width="1"
    transform="translate(-54.9653302074,-104.0634934196) scale(1,-1) translate(50,-110)"
    />
  
  <line
    x1="127.58620689655173"
    y1="96.55172413793103"
    x2="133.17972350230414"
    y2="103.2258064516129"
    stroke="hsla(0,50%,50%,0.6)"
    stroke-width="1"
    transform="translate(-54.9653302074,-104.0634934196) scale(1,-1) translate(50,-110)"
    />
  
  <line
    x1="140.29850746268656"
    y1="95.5223880597015"
    x2="141.3793103448276"
    y2="96.55172413793103"
    stroke="hsla(0,50%,50%,0.6)"
    stroke-width="1"
    transform="translate(-54.9653302074,-104.0634934196) scale(1,-1) translate(50,-110)"
    />
  
  <line
    x1="103.53982300884955"
    y1="99.70501474926253"
    x2="105.88235294117646"
    y2="108.33333333333333"
    stroke="hsla(0,50%,50%,0.6)"
    stroke-width="1"
    transform="translate(-54.9653302074,-104.0634934196) scale(1,-1) translate(50,-110)"
    />
  
  <line
    x1="101.27118644067797"
    y1="93.22033898305085"
    x2="103.18021201413427"
    y2="101.06007067137809"
    stroke="hsla(0,50%,50%,0.6)"
    stroke-width="1"
    transform="translate(-54.9653302074,-104.0634934196) scale(1,-1) translate(50,-110)"
    />
  
  <line
    x1="100.89686098654708"
    y1="99.10313901345292"
    x2="102.55319148936171"
    y2="110.63829787234043"
    stroke="hsla(0,50%,50%,0.6)"
    stroke-width="1"
    transform="translate(-54.9653302074,-104.0634934196) scale(1,-1) translate(50,-110)"
    />
  
  <line
    x1="100.35335689045937"
    y1="98.93992932862191"
    x2="100.59701492537313"
    y2="101.49253731343283"
    stroke="hsla(0,50%,50%,0.6)"
    stroke-width="1"
    transform="translate(-54.9653302074,-104.0634934196) scale(1,-1) translate(50,-110)"
    />
  
  <line
    x1="100"
    y1="95.65217391304348"
    x2="100.45871559633028"
    y2="100.91743119266054"
    stroke="hsla(0,50%,50%,0.6)"
    stroke-width="1"
    transform="translate(-54.9653302074,-104.0634934196) scale(1,-1) translate(50,-110)"
    />
  
  <line
    x1="100"
    y1="96.7741935483871"
    x2="100.23923444976077"
    y2="100.47846889952153"
    stroke="hsla(0,50%,50%,0.6)"
    stroke-width="1"
    transform="translate(-54.9653302074,-104.0634934196) scale(1,-1) translate(50,-110)"
    />
  
  <line
    x1="100"
    y1="95.65217391304348"
    x2="100"
    y2="100"
    stroke="hsla(0,50%,50%,0.6)"
    stroke-width="1"
    transform="translate(-54.9653302074,-104.0634934196) scale(1,-1) translate(50,-110)"
    />
  
  <line
    x1="100.35335689045937"
    y1="98.93992932862191"
    x2="100.23923444976077"
    y2="100.47846889952153"
    stroke="hsla(0,50%,50%,0.6)"
    stroke-width="1"
    transform="translate(-54.9653302074,-104.0634934196) scale(1,-1) translate(50,-110)"
    />
  
  <line
    x1="101.27118644067797"
    y1="93.22033898305085"
    x2="100.45871559633028"
    y2="100.91743119266054"
    stroke="hsla(0,50%,50%,0.6)"
    stroke-width="1"
    transform="translate(-54.9653302074,-104.0634934196) scale(1,-1) translate(50,-110)"
    />
  
  <line
    x1="100.89686098654708"
    y1="99.10313901345292"
    x2="100.59701492537313"
    y2="101.49253731343283"
    stroke="hsla(0,50%,50%,0.6)"
    stroke-width="1"
    transform="translate(-54.9653302074,-104.0634934196) scale(1,-1) translate(50,-110)"
    />
  
  <line
    x1="103.53982300884955"
    y1="99.70501474926253"
    x2="103.18021201413427"
    y2="101.06007067137809"
    stroke="hsla(0,50%,50%,0.6)"
    stroke-width="1"
    transform="translate(-54.9653302074,-104.0634934196) scale(1,-1) translate(50,-110)"
    />
  
  <line
    x1="111.48325358851675"
    y1="86.1244019138756"
    x2="102.55319148936171"
    y2="110.63829787234043"
    stroke="hsla(0,50%,50%,0.6)"
    stroke-width="1"
    transform="translate(-54.9653302074,-104.0634934196) scale(1,-1) translate(50,-110)"
    />
  
  <line
    x1="111.32075471698113"
    y1="96.22641509433963"
    x2="105.88235294117646"
    y2="108.33333333333333"
    stroke="hsla(0,50%,50%,0.6)"
    stroke-width="1"
    transform="translate(-54.9653302074,-104.0634934196) scale(1,-1) translate(50,-110)"
    />
  
  <line
    x1="117.02127659574468"
    y1="97.02127659574468"
    x2="114.28571428571429"
    y2="101.78571428571429"
    stroke="hsla(0,50%,50%,0.6)"
    stroke-width="1"
    transform="translate(-54.9653302074,-104.0634934196) scale(1,-1) translate(50,-110)"
    />
  
  <line
    x1="127.58620689655173"
    y1="96.55172413793103"
    x2="121.73913043478261"
    y2="104.34782608695652"
    stroke="hsla(0,50%,50%,0.6)"
    stroke-width="1"
    transform="translate(-54.9653302074,-104.0634934196) scale(1,-1) translate(50,-110)"
    />
  
  <line
    x1="111.48325358851675"
    y1="86.1244019138756"
    x2="0"
    y2="100"
    stroke="hsla(0,50%,50%,0.6)"
    stroke-width="1"
    transform="translate(-54.9653302074,-104.0634934196) scale(1,-1) translate(50,-110)"
    />
  
  <line
    x1="0"
    y1="100"
    x2="102.55319148936171"
    y2="110.63829787234043"
    stroke="hsla(0,50%,50%,0.6)"
    stroke-width="1"
    transform="translate(-54.9653302074,-104.0634934196) scale(1,-1) translate(50,-110)"
    />
  
  <line
    x1="0"
    y1="100"
    x2="128.0701754385965"
    y2="110.52631578947368"
    stroke="hsla(0,50%,50%,0.6)"
    stroke-width="1"
    transform="translate(-54.9653302074,-104.0634934196) scale(1,-1) translate(50,-110)"
    />
  
  <line
    x1="0"
    y1="100"
    x2="105.88235294117646"
    y2="108.33333333333333"
    stroke="hsla(0,50%,50%,0.6)"
    stroke-width="1"
    transform="translate(-54.9653302074,-104.0634934196) scale(1,-1) translate(50,-110)"
    />
  
  <line
    x1="101.27118644067797"
    y1="93.22033898305085"
    x2="0"
    y2="100"
    stroke="hsla(0,50%,50%,0.6)"
    stroke-width="1"
    transform="translate(-54.9653302074,-104.0634934196) scale(1,-1) translate(50,-110)"
    />
  
  <line
    x1="100"
    y1="95.65217391304348"
    x2="0"
    y2="100"
    stroke="hsla(0,50%,50%,0.6)"
    stroke-width="1"
    transform="translate(-54.9653302074,-104.0634934196) scale(1,-1) translate(50,-110)"
    />
  
  <line
    x1="0"
    y1="100"
    x2="121.73913043478261"
    y2="104.34782608695652"
    stroke="hsla(0,50%,50%,0.6)"
    stroke-width="1"
    transform="translate(-54.9653302074,-104.0634934196) scale(1,-1) translate(50,-110)"
    />
  
  <line
    x1="111.32075471698113"
    y1="96.22641509433963"
    x2="0"
    y2="100"
    stroke="hsla(0,50%,50%,0.6)"
    stroke-width="1"
    transform="translate(-54.9653302074,-104.0634934196) scale(1,-1) translate(50,-110)"
    />
  
  <line
    x1="100"
    y1="96.7741935483871"
    x2="0"
    y2="100"
    stroke="hsla(0,50%,50%,0.6)"
    stroke-width="1"
    transform="translate(-54.9653302074,-104.0634934196) scale(1,-1) translate(50,-110)"
    />
  
  <line
    x1="140.29850746268656"
    y1="95.5223880597015"
    x2="0"
    y2="100"
    stroke="hsla(0,50%,50%,0.6)"
    stroke-width="1"
    transform="translate(-54.9653302074,-104.0634934196) scale(1,-1) translate(50,-110)"
    />
  
  <line
    x1="127.58620689655173"
    y1="96.55172413793103"
    x2="0"
    y2="100"
    stroke="hsla(0,50%,50%,0.6)"
    stroke-width="1"
    transform="translate(-54.9653302074,-104.0634934196) scale(1,-1) translate(50,-110)"
    />
  
  <line
    x1="117.02127659574468"
    y1="97.02127659574468"
    x2="0"
    y2="100"
    stroke="hsla(0,50%,50%,0.6)"
    stroke-width="1"
    transform="translate(-54.9653302074,-104.0634934196) scale(1,-1) translate(50,-110)"
    />
  
  <line
    x1="0"
    y1="100"
    x2="133.17972350230414"
    y2="103.2258064516129"
    stroke="hsla(0,50%,50%,0.6)"
    stroke-width="1"
    transform="translate(-54.9653302074,-104.0634934196) scale(1,-1) translate(50,-110)"
    />
  
  <line
    x1="0"
    y1="100"
    x2="114.28571428571429"
    y2="101.78571428571429"
    stroke="hsla(0,50%,50%,0.6)"
    stroke-width="1"
    transform="translate(-54.9653302074,-104.0634934196) scale(1,-1) translate(50,-110)"
    />
  
  <line
    x1="0"
    y1="100"
    x2="100.59701492537313"
    y2="101.49253731343283"
    stroke="hsla(0,50%,50%,0.6)"
    stroke-width="1"
    transform="translate(-54.9653302074,-104.0634934196) scale(1,-1) translate(50,-110)"
    />
  
  <line
    x1="100.35335689045937"
    y1="98.93992932862191"
    x2="0"
    y2="100"
    stroke="hsla(0,50%,50%,0.6)"
    stroke-width="1"
    transform="translate(-54.9653302074,-104.0634934196) scale(1,-1) translate(50,-110)"
    />
  
  <line
    x1="0"
    y1="100"
    x2="103.18021201413427"
    y2="101.06007067137809"
    stroke="hsla(0,50%,50%,0.6)"
    stroke-width="1"
    transform="translate(-54.9653302074,-104.0634934196) scale(1,-1) translate(50,-110)"
    />
  
  <line
    x1="0"
    y1="100"
    x2="100.45871559633028"
    y2="100.91743119266054"
    stroke="hsla(0,50%,50%,0.6)"
    stroke-width="1"
    transform="translate(-54.9653302074,-104.0634934196) scale(1,-1) translate(50,-110)"
    />
  
  <line
    x1="100.89686098654708"
    y1="99.10313901345292"
    x2="0"
    y2="100"
    stroke="hsla(0,50%,50%,0.6)"
    stroke-width="1"
    transform="translate(-54.9653302074,-104.0634934196) scale(1,-1) translate(50,-110)"
    />
  
  <line
    x1="0"
    y1="100"
    x2="100.23923444976077"
    y2="100.47846889952153"
    stroke="hsla(0,50%,50%,0.6)"
    stroke-width="1"
    transform="translate(-54.9653302074,-104.0634934196) scale(1,-1) translate(50,-110)"
    />
  
  <line
    x1="103.53982300884955"
    y1="99.70501474926253"
    x2="0"
    y2="100"
    stroke="hsla(0,50%,50%,0.6)"
    stroke-width="1"
    transform="translate(-54.9653302074,-104.0634934196) scale(1,-1) translate(50,-110)"
    />
  
  <line
    x1="0"
    y1="100"
    x2="100"
    y2="100"
    stroke="hsla(0,50%,50%,0.6)"
    stroke-width="1"
    transform="translate(-54.9653302074,-104.0634934196) scale(1,-1) translate(50,-110)"
    />
  
  <line
    x1="140.29850746268656"
    y1="95.5223880597015"
    x2="133.17972350230414"
    y2="103.2258064516129"
    stroke="hsla(0,50%,50%,0.6)"
    stroke-width="1"
    transform="translate(-54.9653302074,-104.0634934196) scale(1,-1) translate(50,-110)"
    />
  
  <line
    x1="141.3793103448276"
    y1="96.55172413793103"
    x2="128.0701754385965"
    y2="110.52631578947368"
    stroke="hsla(0,50%,50%,0.6)"
    stroke-width="1"
    transform="translate(-54.9653302074,-104.0634934196) scale(1,-1) translate(50,-110)"
    />
  
</svg>
