<?xml version="1.0"?>
<!DOCTYPE svg PUBLIC "-//W3C//DTD SVG 1.1//EN"
  "http://www.w3.org/Graphics/SVG/1.1/DTD/svg11.dtd">
<svg
  width="240"
  height="240"
  viewBox="-50 -50 200 200" xmlns="http://www.w3.org/2000/svg" version="1.1">
  <rect
    x="0"
    y="0"
    width="100"
    height="100"
    fill="hsla(206,100%,53%,0.3)"
    stroke="hsl(206,100%,53%)"
    stroke-width="3"
    transform="" />
  
  <path
    d="M 
      100
      84.6153846153
      L
    
      101.5081179159
      89.4007587718
      L
    
      106.4102564102
      88.8888888888
      L
    
      109.2025589271
      94.4203072081
      L
    
      141.2371134020
      92.7835051546
      L
    
      131.8471337579
      103.1847133757
      L
    
      122.7758007117
      102.9655990510
      L
    
      121.0526315789
      105.2631578947
      L
    
      102.2813688212
      104.4470160357
      L
    
      100.8450704225
      109.8591549295
      L
    
      0
      100
      z
    "
    fill="hsla(0,0%,50%,0.3)"
    stroke="hsla(0,0%,50%,1)"
    stroke-width="1"
    transform="translate(-53.3936886669,-103.3667984323) scale(1,-1) translate(50,-110)"
    />
  
  
  <line
    x1="114.28571428571429"
    y1="98.21428571428571"
    x2="116.13832853025937"
    y2="101.44092219020173"
    stroke="hsla(0,50%,50%,0.6)"
    stroke-width="1"
    transform="translate(-53.3936886669,-103.3667984323) scale(1,-1) translate(50,-110)"
    />
  
  <line
    x1="117.3913043478261"
    y1="99.37888198757764"
    x2="121.05263157894737"
    y2="105.26315789473684"
    stroke="hsla(0,50%,50%,0.6)"
    stroke-width="1"
    transform="translate(-53.3936886669,-103.3667984323) scale(1,-1) translate(50,-110)"
    />
  
  <line
    x1="111.76470588235294"
    y1="97.05882352941177"
    x2="113.33333333333333"
    y2="100"
    stroke="hsla(0,50%,50%,0.6)"
    stroke-width="1"
    transform="translate(-53.3936886669,-103.3667984323) scale(1,-1) translate(50,-110)"
    />
  
  <line
    x1="106.41025641025641"
    y1="88.88888888888889"
    x2="112.65822784810126"
    y2="101.26582278481013"
    stroke="hsla(0,50%,50%,0.6)"
    stroke-width="1"
    transform="translate(-53.3936886669,-103.3667984323) scale(1,-1) translate(50,-110)"
    />
  
  <line
    x1="116.21621621621621"
    y1="94.5945945945946"
    x2="120.33898305084746"
    y2="100.84745762711864"
    stroke="hsla(0,50%,50%,0.6)"
    stroke-width="1"
    transform="translate(-53.3936886669,-103.3667984323) scale(1,-1) translate(50,-110)"
    />
  
  <line
    x1="107.6923076923077"
    y1="98.46153846153847"
    x2="109.30232558139535"
    y2="102.32558139534883"
    stroke="hsla(0,50%,50%,0.6)"
    stroke-width="1"
    transform="translate(-53.3936886669,-103.3667984323) scale(1,-1) translate(50,-110)"
    />
  
  <line
    x1="124.69135802469135"
    y1="94.44444444444444"
    x2="131.84713375796179"
    y2="103.18471337579618"
    stroke="hsla(0,50%,50%,0.6)"
    stroke-width="1"
    transform="translate(-53.3936886669,-103.3667984323) scale(1,-1) translate(50,-110)"
    />
  
  <line
    x1="127.58620689655173"
    y1="96.55172413793103"
    x2="132.52032520325204"
    y2="102.4390243902439"
    stroke="hsla(0,50%,50%,0.6)"
    stroke-width="1"
    transform="translate(-53.3936886669,-103.3667984323) scale(1,-1) translate(50,-110)"
    />
  
  <line
    x1="100"
    y1="84.61538461538461"
    x2="105.86510263929618"
    y2="103.2258064516129"
    stroke="hsla(0,50%,50%,0.6)"
    stroke-width="1"
    transform="translate(-53.3936886669,-103.3667984323) scale(1,-1) translate(50,-110)"
    />
  
  <line
    x1="100"
    y1="96.7741935483871"
    x2="100.84507042253522"
    y2="109.85915492957747"
    stroke="hsla(0,50%,50%,0.6)"
    stroke-width="1"
    transform="translate(-53.3936886669,-103.3667984323) scale(1,-1) translate(50,-110)"
    />
  
  <line
    x1="100"
    y1="84.61538461538461"
    x2="100"
    y2="100"
    stroke="hsla(0,50%,50%,0.6)"
    stroke-width="1"
    transform="translate(-53.3936886669,-103.3667984323) scale(1,-1) translate(50,-110)"
    />
  
  <line
    x1="106.41025641025641"
    y1="88.88888888888889"
    x2="100.84507042253522"
    y2="109.85915492957747"
    stroke="hsla(0,50%,50%,0.6)"
    stroke-width="1"
    transform="translate(-53.3936886669,-103.3667984323) scale(1,-1) translate(50,-110)"
    />
  
  <line
    x1="107.6923076923077"
    y1="98.46153846153847"
    x2="105.86510263929618"
    y2="103.2258064516129"
    stroke="hsla(0,50%,50%,0.6)"
    stroke-width="1"
    transform="translate(-53.3936886669,-103.3667984323) scale(1,-1) translate(50,-110)"
    />
  
  <line
    x1="111.76470588235294"
    y1="97.05882352941177"
    x2="109.30232558139535"
    y2="102.32558139534883"
    stroke="hsla(0,50%,50%,0.6)"
    stroke-width="1"
    transform="translate(-53.3936886669,-103.3667984323) scale(1,-1) translate(50,-110)"
    />
  
  <line
    x1="116.21621621621621"
    y1="94.5945945945946"
    x2="112.65822784810126"
    y2="101.26582278481013"
    stroke="hsla(0,50%,50%,0.6)"
    stroke-width="1"
    transform="translate(-53.3936886669,-103.3667984323) scale(1,-1) translate(50,-110)"
    />
  
  <line
    x1="117.3913043478261"
    y1="99.37888198757764"
    x2="116.13832853025937"
    y2="101.44092219020173"
    stroke="hsla(0,50%,50%,0.6)"
    stroke-width="1"
    transform="translate(-53.3936886669,-103.3667984323) scale(1,-1) translate(50,-110)"
    />
  
  <line
    x1="124.69135802469135"
    y1="94.44444444444444"
    x2="120.33898305084746"
    y2="100.84745762711864"
    stroke="hsla(0,50%,50%,0.6)"
    stroke-width="1"
    transform="translate(-53.3936886669,-103.3667984323) scale(1,-1) translate(50,-110)"
    />
  
  <line
    x1="127.58620689655173"
    y1="96.55172413793103"
    x2="121.05263157894737"
    y2="105.26315789473684"
    stroke="hsla(0,50%,50%,0.6)"
    stroke-width="1"
    transform="translate(-53.3936886669,-103.3667984323) scale(1,-1) translate(50,-110)"
    />
  
  <line
    x1="100"
    y1="84.61538461538461"
    x2="0"
    y2="100"
    stroke="hsla(0,50%,50%,0.6)"
    stroke-width="1"
    transform="translate(-53.3936886669,-103.3667984323) scale(1,-1) translate(50,-110)"
    />
  
  <line
    x1="106.41025641025641"
    y1="88.88888888888889"
    x2="0"
    y2="100"
    stroke="hsla(0,50%,50%,0.6)"
    stroke-width="1"
    transform="translate(-53.3936886669,-103.3667984323) scale(1,-1) translate(50,-110)"
    />
  
  <line
    x1="0"
    y1="100"
    x2="100.84507042253522"
    y2="109.85915492957747"
    stroke="hsla(0,50%,50%,0.6)"
    stroke-width="1"
    transform="translate(-53.3936886669,-103.3667984323) scale(1,-1) translate(50,-110)"
    />
  
  <line
    x1="141.23711340206185"
    y1="92.78350515463917"
    x2="0"
    y2="100"
    stroke="hsla(0,50%,50%,0.6)"
    stroke-width="1"
    transform="translate(-53.3936886669,-103.3667984323) scale(1,-1) translate(50,-110)"
    />
  
  <line
    x1="116.21621621621621"
    y1="94.5945945945946"
    x2="0"
    y2="100"
    stroke="hsla(0,50%,50%,0.6)"
    stroke-width="1"
    transform="translate(-53.3936886669,-103.3667984323) scale(1,-1) translate(50,-110)"
    />
  
  <line
    x1="124.69135802469135"
    y1="94.44444444444444"
    x2="0"
    y2="100"
    stroke="hsla(0,50%,50%,0.6)"
    stroke-width="1"
    transform="translate(-53.3936886669,-103.3667984323) scale(1,-1) translate(50,-110)"
    />
  
  <line
    x1="0"
    y1="100"
    x2="121.05263157894737"
    y2="105.26315789473684"
    stroke="hsla(0,50%,50%,0.6)"
    stroke-width="1"
    transform="translate(-53.3936886669,-103.3667984323) scale(1,-1) translate(50,-110)"
    />
  
  <line
    x1="100"
    y1="96.7741935483871"
    x2="0"
    y2="100"
    stroke="hsla(0,50%,50%,0.6)"
    stroke-width="1"
    transform="translate(-53.3936886669,-103.3667984323) scale(1,-1) translate(50,-110)"
    />
  
  <line
    x1="0"
    y1="100"
    x2="105.86510263929618"
    y2="103.2258064516129"
    stroke="hsla(0,50%,50%,0.6)"
    stroke-width="1"
    transform="translate(-53.3936886669,-103.3667984323) scale(1,-1) translate(50,-110)"
    />
  
  <line
    x1="127.58620689655173"
    y1="96.55172413793103"
    x2="0"
    y2="100"
    stroke="hsla(0,50%,50%,0.6)"
    stroke-width="1"
    transform="translate(-53.3936886669,-103.3667984323) scale(1,-1) translate(50,-110)"
    />
  
  <line
    x1="111.76470588235294"
    y1="97.05882352941177"
    x2="0"
    y2="100"
    stroke="hsla(0,50%,50%,0.6)"
    stroke-width="1"
    transform="translate(-53.3936886669,-103.3667984323) scale(1,-1) translate(50,-110)"
    />
  
  <line
    x1="0"
    y1="100"
    x2="131.84713375796179"
    y2="103.18471337579618"
    stroke="hsla(0,50%,50%,0.6)"
    stroke-width="1"
    transform="translate(-53.3936886669,-103.3667984323) scale(1,-1) translate(50,-110)"
    />
  
  <line
    x1="0"
    y1="100"
    x2="109.30232558139535"
    y2="102.32558139534883"
    stroke="hsla(0,50%,50%,0.6)"
    stroke-width="1"
    transform="translate(-53.3936886669,-103.3667984323) scale(1,-1) translate(50,-110)"
    />
  
  <line
    x1="0"
    y1="100"
    x2="132.52032520325204"
    y2="102.4390243902439"
    stroke="hsla(0,50%,50%,0.6)"
    stroke-width="1"
    transform="translate(-53.3936886669,-103.3667984323) scale(1,-1) translate(50,-110)"
    />
  
  <line
    x1="114.28571428571429"
    y1="98.21428571428571"
    x2="0"
    y2="100"
    stroke="hsla(0,50%,50%,0.6)"
    stroke-width="1"
    transform="translate(-53.3936886669,-103.3667984323) scale(1,-1) translate(50,-110)"
    />
  
  <line
    x1="107.6923076923077"
    y1="98.46153846153847"
    x2="0"
    y2="100"
    stroke="hsla(0,50%,50%,0.6)"
    stroke-width="1"
    transform="translate(-53.3936886669,-103.3667984323) scale(1,-1) translate(50,-110)"
    />
  
  <line
    x1="0"
    y1="100"
    x2="116.13832853025937"
    y2="101.44092219020173"
    stroke="hsla(0,50%,50%,0.6)"
    stroke-width="1"
    transform="translate(-53.3936886669,-103.3667984323) scale(1,-1) translate(50,-110)"
    />
  
  <line
    x1="0"
    y1="100"
    x2="112.65822784810126"
    y2="101.26582278481013"
    stroke="hsla(0,50%,50%,0.6)"
    stroke-width="1"
    transform="translate(-53.3936886669,-103.3667984323) scale(1,-1) translate(50,-110)"
    />
  
  <line
    x1="0"
    y1="100"
    x2="120.33898305084746"
    y2="100.84745762711864"
    stroke="hsla(0,50%,50%,0.6)"
    stroke-width="1"
    transform="translate(-53.3936886669,-103.3667984323) scale(1,-1) translate(50,-110)"
    />
  
  <line
    x1="117.3913043478261"
    y1="99.37888198757764"
    x2="0"
    y2="100"
    stroke="hsla(0,50%,50%,0.6)"
    stroke-width="1"
    transform="translate(-53.3936886669,-103.3667984323) scale(1,-1) translate(50,-110)"
    />
  
  <line
    x1="0"
    y1="100"
    x2="113.33333333333333"
    y2="100"
    stroke="hsla(0,50%,50%,0.6)"
    stroke-width="1"
    transform="translate(-53.3936886669,-103.3667984323) scale(1,-1) translate(50,-110)"
    />
  
  <line
    x1="141.23711340206185"
    y1="92.78350515463917"
    x2="131.84713375796179"
    y2="103.18471337579618"
    stroke="hsla(0,50%,50%,0.6)"
    stroke-width="1"
    transform="translate(-53.3936886669,-103.3667984323) scale(1,-1) translate(50,-110)"
    />
  
</svg>
