<?xml version="1.0"?>
<!DOCTYPE svg PUBLIC "-//W3C//DTD SVG 1.1//EN"
  "http://www.w3.org/Graphics/SVG/1.1/DTD/svg11.dtd">
<svg
  width="240"
  height="240"
  viewBox="-500 -500 1000 1000" xmlns="http://www.w3.org/2000/svg" version="1.1">
  <rect
    x="0"
    y="0"
    width="100"
    height="100"
    fill="hsla(206,100%,53%,0.3)"
    stroke="hsl(206,100%,53%)"
    stroke-width="3"
    transform="" />
  
  <path
    d="M 
      120
      87.5
      L
    
      125.6171533361
      94.2022852306
      L
    
      138.2978723404
      93.6170212765
      L
    
      141.3793103448
      96.5517241379
      L
    
      137.1134020618
      101.0309278350
      L
    
      131.8620127665
      100.9914437050
      L
    
      131.5789473684
      101.3157894736
      L
    
      120.8082545141
      101.2080825451
      L
    
      119.1780821917
      103.5616438356
      L
    
      111.5552873736
      103.3338361743
      L
    
      106.8965517241
      112.0689655172
      L
    
      0
      100
      z
    "
    fill="hsla(0,0%,50%,0.3)"
    stroke="hsla(0,0%,50%,1)"
    stroke-width="1"
    transform="translate(-70.6896551724,-99.7844827586)"
    />
  
  
  <line
    x1="115.05376344086021"
    y1="96.7741935483871"
    x2="119.17808219178082"
    y2="103.56164383561644"
    stroke="hsla(0,50%,50%,0.6)"
    stroke-width="1"
    transform="translate(-70.6896551724,-99.7844827586)"
    />
  
  <line
    x1="123.25581395348837"
    y1="97.67441860465117"
    x2="125"
    y2="100"
    stroke="hsla(0,50%,50%,0.6)"
    stroke-width="1"
    transform="translate(-70.6896551724,-99.7844827586)"
    />
  
  <line
    x1="106.84410646387833"
    y1="98.85931558935361"
    x2="109.8360655737705"
    y2="106.55737704918033"
    stroke="hsla(0,50%,50%,0.6)"
    stroke-width="1"
    transform="translate(-70.6896551724,-99.7844827586)"
    />
  
  <line
    x1="120"
    y1="87.5"
    x2="131.57894736842104"
    y2="101.3157894736842"
    stroke="hsla(0,50%,50%,0.6)"
    stroke-width="1"
    transform="translate(-70.6896551724,-99.7844827586)"
    />
  
  <line
    x1="134.39490445859872"
    y1="98.08917197452229"
    x2="137.11340206185568"
    y2="101.03092783505154"
    stroke="hsla(0,50%,50%,0.6)"
    stroke-width="1"
    transform="translate(-70.6896551724,-99.7844827586)"
    />
  
  <line
    x1="104.61538461538461"
    y1="98.46153846153847"
    x2="105.73248407643312"
    y2="101.91082802547771"
    stroke="hsla(0,50%,50%,0.6)"
    stroke-width="1"
    transform="translate(-70.6896551724,-99.7844827586)"
    />
  
  <line
    x1="138.29787234042553"
    y1="93.61702127659575"
    x2="141.3793103448276"
    y2="96.55172413793103"
    stroke="hsla(0,50%,50%,0.6)"
    stroke-width="1"
    transform="translate(-70.6896551724,-99.7844827586)"
    />
  
  <line
    x1="103.00751879699249"
    y1="97.74436090225564"
    x2="106.89655172413794"
    y2="112.06896551724138"
    stroke="hsla(0,50%,50%,0.6)"
    stroke-width="1"
    transform="translate(-70.6896551724,-99.7844827586)"
    />
  
  <line
    x1="100"
    y1="93.75"
    x2="101.3986013986014"
    y2="104.8951048951049"
    stroke="hsla(0,50%,50%,0.6)"
    stroke-width="1"
    transform="translate(-70.6896551724,-99.7844827586)"
    />
  
  <line
    x1="100"
    y1="96.55172413793103"
    x2="100.99009900990099"
    y2="110.89108910891089"
    stroke="hsla(0,50%,50%,0.6)"
    stroke-width="1"
    transform="translate(-70.6896551724,-99.7844827586)"
    />
  
  <line
    x1="100"
    y1="93.75"
    x2="100"
    y2="100"
    stroke="hsla(0,50%,50%,0.6)"
    stroke-width="1"
    transform="translate(-70.6896551724,-99.7844827586)"
    />
  
  <line
    x1="103.00751879699249"
    y1="97.74436090225564"
    x2="101.3986013986014"
    y2="104.8951048951049"
    stroke="hsla(0,50%,50%,0.6)"
    stroke-width="1"
    transform="translate(-70.6896551724,-99.7844827586)"
    />
  
  <line
    x1="104.61538461538461"
    y1="98.46153846153847"
    x2="100.99009900990099"
    y2="110.89108910891089"
    stroke="hsla(0,50%,50%,0.6)"
    stroke-width="1"
    transform="translate(-70.6896551724,-99.7844827586)"
    />
  
  <line
    x1="106.84410646387833"
    y1="98.85931558935361"
    x2="105.73248407643312"
    y2="101.91082802547771"
    stroke="hsla(0,50%,50%,0.6)"
    stroke-width="1"
    transform="translate(-70.6896551724,-99.7844827586)"
    />
  
  <line
    x1="120"
    y1="87.5"
    x2="106.89655172413794"
    y2="112.06896551724138"
    stroke="hsla(0,50%,50%,0.6)"
    stroke-width="1"
    transform="translate(-70.6896551724,-99.7844827586)"
    />
  
  <line
    x1="123.25581395348837"
    y1="97.67441860465117"
    x2="119.17808219178082"
    y2="103.56164383561644"
    stroke="hsla(0,50%,50%,0.6)"
    stroke-width="1"
    transform="translate(-70.6896551724,-99.7844827586)"
    />
  
  <line
    x1="127.58620689655173"
    y1="96.55172413793103"
    x2="125"
    y2="100"
    stroke="hsla(0,50%,50%,0.6)"
    stroke-width="1"
    transform="translate(-70.6896551724,-99.7844827586)"
    />
  
  <line
    x1="0"
    y1="100"
    x2="106.89655172413794"
    y2="112.06896551724138"
    stroke="hsla(0,50%,50%,0.6)"
    stroke-width="1"
    transform="translate(-70.6896551724,-99.7844827586)"
    />
  
  <line
    x1="0"
    y1="100"
    x2="100.99009900990099"
    y2="110.89108910891089"
    stroke="hsla(0,50%,50%,0.6)"
    stroke-width="1"
    transform="translate(-70.6896551724,-99.7844827586)"
    />
  
  <line
    x1="120"
    y1="87.5"
    x2="0"
    y2="100"
    stroke="hsla(0,50%,50%,0.6)"
    stroke-width="1"
    transform="translate(-70.6896551724,-99.7844827586)"
    />
  
  <line
    x1="100"
    y1="93.75"
    x2="0"
    y2="100"
    stroke="hsla(0,50%,50%,0.6)"
    stroke-width="1"
    transform="translate(-70.6896551724,-99.7844827586)"
    />
  
  <line
    x1="0"
    y1="100"
    x2="109.8360655737705"
    y2="106.55737704918033"
    stroke="hsla(0,50%,50%,0.6)"
    stroke-width="1"
    transform="translate(-70.6896551724,-99.7844827586)"
    />
  
  <line
    x1="0"
    y1="100"
    x2="101.3986013986014"
    y2="104.8951048951049"
    stroke="hsla(0,50%,50%,0.6)"
    stroke-width="1"
    transform="translate(-70.6896551724,-99.7844827586)"
    />
  
  <line
    x1="138.29787234042553"
    y1="93.61702127659575"
    x2="0"
    y2="100"
    stroke="hsla(0,50%,50%,0.6)"
    stroke-width="1"
    transform="translate(-70.6896551724,-99.7844827586)"
    />
  
  <line
    x1="100"
    y1="96.55172413793103"
    x2="0"
    y2="100"
    stroke="hsla(0,50%,50%,0.6)"
    stroke-width="1"
    transform="translate(-70.6896551724,-99.7844827586)"
    />
  
  <line
    x1="0"
    y1="100"
    x2="119.17808219178082"
    y2="103.56164383561644"
    stroke="hsla(0,50%,50%,0.6)"
    stroke-width="1"
    transform="translate(-70.6896551724,-99.7844827586)"
    />
  
  <line
    x1="115.05376344086021"
    y1="96.7741935483871"
    x2="0"
    y2="100"
    stroke="hsla(0,50%,50%,0.6)"
    stroke-width="1"
    transform="translate(-70.6896551724,-99.7844827586)"
    />
  
  <line
    x1="127.58620689655173"
    y1="96.55172413793103"
    x2="0"
    y2="100"
    stroke="hsla(0,50%,50%,0.6)"
    stroke-width="1"
    transform="translate(-70.6896551724,-99.7844827586)"
    />
  
  <line
    x1="103.00751879699249"
    y1="97.74436090225564"
    x2="0"
    y2="100"
    stroke="hsla(0,50%,50%,0.6)"
    stroke-width="1"
    transform="translate(-70.6896551724,-99.7844827586)"
    />
  
  <line
    x1="123.25581395348837"
    y1="97.67441860465117"
    x2="0"
    y2="100"
    stroke="hsla(0,50%,50%,0.6)"
    stroke-width="1"
    transform="translate(-70.6896551724,-99.7844827586)"
    />
  
  <line
    x1="0"
    y1="100"
    x2="105.73248407643312"
    y2="101.91082802547771"
    stroke="hsla(0,50%,50%,0.6)"
    stroke-width="1"
    transform="translate(-70.6896551724,-99.7844827586)"
    />
  
  <line
    x1="104.61538461538461"
    y1="98.46153846153847"
    x2="0"
    y2="100"
    stroke="hsla(0,50%,50%,0.6)"
    stroke-width="1"
    transform="translate(-70.6896551724,-99.7844827586)"
    />
  
  <line
    x1="134.39490445859872"
    y1="98.08917197452229"
    x2="0"
    y2="100"
    stroke="hsla(0,50%,50%,0.6)"
    stroke-width="1"
    transform="translate(-70.6896551724,-99.7844827586)"
    />
  
  <line
    x1="106.84410646387833"
    y1="98.85931558935361"
    x2="0"
    y2="100"
    stroke="hsla(0,50%,50%,0.6)"
    stroke-width="1"
    transform="translate(-70.6896551724,-99.7844827586)"
    />
  
  <line
    x1="0"
    y1="100"
    x2="131.57894736842104"
    y2="101.3157894736842"
    stroke="hsla(0,50%,50%,0.6)"
    stroke-width="1"
    transform="translate(-70.6896551724,-99.7844827586)"
    />
  
  <line
    x1="0"
    y1="100"
    x2="137.11340206185568"
    y2="101.03092783505154"
    stroke="hsla(0,50%,50%,0.6)"
    stroke-width="1"
    transform="translate(-70.6896551724,-99.7844827586)"
    />
  
  <line
    x1="0"
    y1="100"
    x2="125"
    y2="100"
    stroke="hsla(0,50%,50%,0.6)"
    stroke-width="1"
    transform="translate(-70.6896551724,-99.7844827586)"
    />
  
  <line
    x1="138.29787234042553"
    y1="93.61702127659575"
    x2="131.57894736842104"
    y2="101.3157894736842"
    stroke="hsla(0,50%,50%,0.6)"
    stroke-width="1"
    transform="translate(-70.6896551724,-99.7844827586)"
    />
  
  <line
    x1="141.3793103448276"
    y1="96.55172413793103"
    x2="137.11340206185568"
    y2="101.03092783505154"
    stroke="hsla(0,50%,50%,0.6)"
    stroke-width="1"
    transform="translate(-70.6896551724,-99.7844827586)"
    />
  
</svg>
