<?xml version="1.0"?>
<!DOCTYPE svg PUBLIC "-//W3C//DTD SVG 1.1//EN"
  "http://www.w3.org/Graphics/SVG/1.1/DTD/svg11.dtd">
<svg
  width="240"
  height="240"
  viewBox="-500 -500 1000 1000" xmlns="http://www.w3.org/2000/svg" version="1.1">
  <rect
    x="0"
    y="0"
    width="100"
    height="100"
    fill="hsla(206,100%,53%,0.3)"
    stroke="hsl(206,100%,53%)"
    stroke-width="3"
    transform="" />
  
  <path
    d="M 
      37.4839933067
      -4.1774652000
      L
    
      45.4048499312
      0
      L
    
      100
      0
      L
    
      100
      28.7935194785
      L
    
      109.6334990400
      33.8742334596
      L
    
      100
      52.1402299513
      L
    
      100
      100
      L
    
      74.7587245497
      100
      L
    
      22.3811318904
      13.1603449764
      z
    "
    fill="hsla(0,0%,50%,0.3)"
    stroke="hsla(0,0%,50%,1)"
    stroke-width="1"
    transform="translate(-66.0073154652,-47.9112673999)"
    />
  
  
  <line
    x1="37.483993306784996"
    y1="-4.177465200053714"
    x2="48.23652492768277"
    y2="10.792139857113234"
    stroke="hsla(0,50%,50%,0.6)"
    stroke-width="1"
    transform="translate(-66.0073154652,-47.9112673999)"
    />
  
  <line
    x1="37.483993306784996"
    y1="-4.177465200053714"
    x2="109.6334990400388"
    y2="33.874233459627405"
    stroke="hsla(0,50%,50%,0.6)"
    stroke-width="1"
    transform="translate(-66.0073154652,-47.9112673999)"
    />
  
  <line
    x1="22.3811318904428"
    y1="13.160344976489007"
    x2="74.75872454972703"
    y2="100"
    stroke="hsla(0,50%,50%,0.6)"
    stroke-width="1"
    transform="translate(-66.0073154652,-47.9112673999)"
    />
  
  <line
    x1="33.84502867713623"
    y1="0"
    x2="36.50568513725159"
    y2="19.218295744633284"
    stroke="hsla(0,50%,50%,0.6)"
    stroke-width="1"
    transform="translate(-66.0073154652,-47.9112673999)"
    />
  
  <line
    x1="33.84502867713623"
    y1="0"
    x2="100"
    y2="0"
    stroke="hsla(0,50%,50%,0.6)"
    stroke-width="1"
    transform="translate(-66.0073154652,-47.9112673999)"
    />
  
  <line
    x1="100"
    y1="0"
    x2="100"
    y2="100"
    stroke="hsla(0,50%,50%,0.6)"
    stroke-width="1"
    transform="translate(-66.0073154652,-47.9112673999)"
    />
  
  <line
    x1="22.3811318904428"
    y1="13.160344976489007"
    x2="36.50568513725159"
    y2="19.218295744633284"
    stroke="hsla(0,50%,50%,0.6)"
    stroke-width="1"
    transform="translate(-66.0073154652,-47.9112673999)"
    />
  
  <line
    x1="37.483993306784996"
    y1="-4.177465200053714"
    x2="22.3811318904428"
    y2="13.160344976489007"
    stroke="hsla(0,50%,50%,0.6)"
    stroke-width="1"
    transform="translate(-66.0073154652,-47.9112673999)"
    />
  
  <line
    x1="48.23652492768277"
    y1="10.792139857113234"
    x2="36.50568513725159"
    y2="19.218295744633284"
    stroke="hsla(0,50%,50%,0.6)"
    stroke-width="1"
    transform="translate(-66.0073154652,-47.9112673999)"
    />
  
  <line
    x1="109.6334990400388"
    y1="33.874233459627405"
    x2="74.75872454972703"
    y2="100"
    stroke="hsla(0,50%,50%,0.6)"
    stroke-width="1"
    transform="translate(-66.0073154652,-47.9112673999)"
    />
  
  <line
    x1="74.75872454972703"
    y1="100"
    x2="100"
    y2="100"
    stroke="hsla(0,50%,50%,0.6)"
    stroke-width="1"
    transform="translate(-66.0073154652,-47.9112673999)"
    />
  
</svg>
