<?xml version="1.0"?>
<!DOCTYPE svg PUBLIC "-//W3C//DTD SVG 1.1//EN"
  "http://www.w3.org/Graphics/SVG/1.1/DTD/svg11.dtd">
<svg
  width="240"
  height="240"
  viewBox="-500 -500 1000 1000" xmlns="http://www.w3.org/2000/svg" version="1.1">
  <rect
    x="0"
    y="0"
    width="100"
    height="100"
    fill="hsla(206,100%,53%,0.3)"
    stroke="hsl(206,100%,53%)"
    stroke-width="3"
    transform="" />
  
  <path
    d="M 
      -101.6
      -259.9
      L
    
      -96.6
      -259.9
      L
    
      -95.7176470588
      -256.3705882352
      L
    
      -21.6
      -256.3705882352
      L
    
      -21.6
      -224.6058823529
      L
    
      -55.7176470588
      -156.3705882352
      L
    
      -75.7176470588
      -156.3705882352
      L
    
      -76.5019607843
      -157.1549019607
      L
    
      -81.6
      -169.9
      L
    
      -103.2176470588
      -256.3705882352
      L
    
      -101.6
      -257.2333333333
      z
    "
    fill="hsla(0,0%,50%,0.3)"
    stroke="hsla(0,0%,50%,1)"
    stroke-width="1"
    transform="translate(62.4088235294,208.1352941176)"
    />
  
  
  <line
    x1="-101.6"
    y1="-259.9"
    x2="-96.6"
    y2="-259.9"
    stroke="hsla(0,50%,50%,0.6)"
    stroke-width="1"
    transform="translate(62.4088235294,208.1352941176)"
    />
  
  <line
    x1="-103.21764705882353"
    y1="-256.3705882352941"
    x2="-21.6"
    y2="-256.3705882352941"
    stroke="hsla(0,50%,50%,0.6)"
    stroke-width="1"
    transform="translate(62.4088235294,208.1352941176)"
    />
  
  <line
    x1="-96.6"
    y1="-259.9"
    x2="-103.21764705882353"
    y2="-256.3705882352941"
    stroke="hsla(0,50%,50%,0.6)"
    stroke-width="1"
    transform="translate(62.4088235294,208.1352941176)"
    />
  
  <line
    x1="-89.1"
    y1="-199.9"
    x2="-81.6"
    y2="-199.9"
    stroke="hsla(0,50%,50%,0.6)"
    stroke-width="1"
    transform="translate(62.4088235294,208.1352941176)"
    />
  
  <line
    x1="-88.21764705882353"
    y1="-196.37058823529412"
    x2="-75.71764705882353"
    y2="-196.37058823529412"
    stroke="hsla(0,50%,50%,0.6)"
    stroke-width="1"
    transform="translate(62.4088235294,208.1352941176)"
    />
  
  <line
    x1="-78.07058823529412"
    y1="-205.78235294117647"
    x2="-89.1"
    y2="-199.9"
    stroke="hsla(0,50%,50%,0.6)"
    stroke-width="1"
    transform="translate(62.4088235294,208.1352941176)"
    />
  
  <line
    x1="-81.6"
    y1="-199.9"
    x2="-88.21764705882353"
    y2="-196.37058823529412"
    stroke="hsla(0,50%,50%,0.6)"
    stroke-width="1"
    transform="translate(62.4088235294,208.1352941176)"
    />
  
  <line
    x1="-45.71764705882353"
    y1="-186.37058823529412"
    x2="-40.71764705882353"
    y2="-186.37058823529412"
    stroke="hsla(0,50%,50%,0.6)"
    stroke-width="1"
    transform="translate(62.4088235294,208.1352941176)"
    />
  
  <line
    x1="-21.6"
    y1="-231.95882352941177"
    x2="-55.71764705882353"
    y2="-206.37058823529412"
    stroke="hsla(0,50%,50%,0.6)"
    stroke-width="1"
    transform="translate(62.4088235294,208.1352941176)"
    />
  
  <line
    x1="-75.71764705882353"
    y1="-156.37058823529412"
    x2="-55.71764705882353"
    y2="-156.37058823529412"
    stroke="hsla(0,50%,50%,0.6)"
    stroke-width="1"
    transform="translate(62.4088235294,208.1352941176)"
    />
  
  <line
    x1="-27.48235294117647"
    y1="-236.37058823529412"
    x2="-21.6"
    y2="-231.95882352941177"
    stroke="hsla(0,50%,50%,0.6)"
    stroke-width="1"
    transform="translate(62.4088235294,208.1352941176)"
    />
  
  <line
    x1="-45.71764705882353"
    y1="-176.37058823529412"
    x2="-61.71764705882353"
    y2="-164.37058823529412"
    stroke="hsla(0,50%,50%,0.6)"
    stroke-width="1"
    transform="translate(62.4088235294,208.1352941176)"
    />
  
  <line
    x1="-78.39012345679012"
    y1="-161.8753086419753"
    x2="-76.41406355645707"
    y2="-160.75868830290736"
    stroke="hsla(0,50%,50%,0.6)"
    stroke-width="1"
    transform="translate(62.4088235294,208.1352941176)"
    />
  
  <line
    x1="-21.6"
    y1="-224.60588235294117"
    x2="-55.71764705882353"
    y2="-156.37058823529412"
    stroke="hsla(0,50%,50%,0.6)"
    stroke-width="1"
    transform="translate(62.4088235294,208.1352941176)"
    />
  
  <line
    x1="-84.93333333333334"
    y1="-183.23333333333332"
    x2="-74.93333333333334"
    y2="-173.23333333333332"
    stroke="hsla(0,50%,50%,0.6)"
    stroke-width="1"
    transform="translate(62.4088235294,208.1352941176)"
    />
  
  <line
    x1="-55.71764705882353"
    y1="-206.37058823529412"
    x2="-40.71764705882353"
    y2="-186.37058823529412"
    stroke="hsla(0,50%,50%,0.6)"
    stroke-width="1"
    transform="translate(62.4088235294,208.1352941176)"
    />
  
  <line
    x1="-76.50196078431372"
    y1="-157.15490196078431"
    x2="-75.71764705882353"
    y2="-156.37058823529412"
    stroke="hsla(0,50%,50%,0.6)"
    stroke-width="1"
    transform="translate(62.4088235294,208.1352941176)"
    />
  
  <line
    x1="-78.07058823529412"
    y1="-205.78235294117647"
    x2="-84.93333333333334"
    y2="-183.23333333333332"
    stroke="hsla(0,50%,50%,0.6)"
    stroke-width="1"
    transform="translate(62.4088235294,208.1352941176)"
    />
  
  <line
    x1="-27.48235294117647"
    y1="-236.37058823529412"
    x2="-21.6"
    y2="-224.60588235294117"
    stroke="hsla(0,50%,50%,0.6)"
    stroke-width="1"
    transform="translate(62.4088235294,208.1352941176)"
    />
  
  <line
    x1="-74.93333333333334"
    y1="-173.23333333333332"
    x2="-78.39012345679012"
    y2="-161.8753086419753"
    stroke="hsla(0,50%,50%,0.6)"
    stroke-width="1"
    transform="translate(62.4088235294,208.1352941176)"
    />
  
  <line
    x1="-61.71764705882353"
    y1="-164.37058823529412"
    x2="-55.71764705882353"
    y2="-156.37058823529412"
    stroke="hsla(0,50%,50%,0.6)"
    stroke-width="1"
    transform="translate(62.4088235294,208.1352941176)"
    />
  
  <line
    x1="-101.6"
    y1="-249.9"
    x2="-78.07058823529412"
    y2="-205.78235294117647"
    stroke="hsla(0,50%,50%,0.6)"
    stroke-width="1"
    transform="translate(62.4088235294,208.1352941176)"
    />
  
  <line
    x1="-55.71764705882353"
    y1="-206.37058823529412"
    x2="-61.71764705882353"
    y2="-164.37058823529412"
    stroke="hsla(0,50%,50%,0.6)"
    stroke-width="1"
    transform="translate(62.4088235294,208.1352941176)"
    />
  
  <line
    x1="-81.6"
    y1="-169.9"
    x2="-76.41406355645707"
    y2="-160.75868830290736"
    stroke="hsla(0,50%,50%,0.6)"
    stroke-width="1"
    transform="translate(62.4088235294,208.1352941176)"
    />
  
  <line
    x1="-76.41406355645707"
    y1="-160.75868830290736"
    x2="-76.50196078431372"
    y2="-157.15490196078431"
    stroke="hsla(0,50%,50%,0.6)"
    stroke-width="1"
    transform="translate(62.4088235294,208.1352941176)"
    />
  
  <line
    x1="-101.6"
    y1="-259.9"
    x2="-101.6"
    y2="-249.9"
    stroke="hsla(0,50%,50%,0.6)"
    stroke-width="1"
    transform="translate(62.4088235294,208.1352941176)"
    />
  
  <line
    x1="-75.71764705882353"
    y1="-196.37058823529412"
    x2="-75.71764705882353"
    y2="-156.37058823529412"
    stroke="hsla(0,50%,50%,0.6)"
    stroke-width="1"
    transform="translate(62.4088235294,208.1352941176)"
    />
  
  <line
    x1="-45.71764705882353"
    y1="-186.37058823529412"
    x2="-45.71764705882353"
    y2="-176.37058823529412"
    stroke="hsla(0,50%,50%,0.6)"
    stroke-width="1"
    transform="translate(62.4088235294,208.1352941176)"
    />
  
  <line
    x1="-27.48235294117647"
    y1="-256.3705882352941"
    x2="-27.48235294117647"
    y2="-236.37058823529412"
    stroke="hsla(0,50%,50%,0.6)"
    stroke-width="1"
    transform="translate(62.4088235294,208.1352941176)"
    />
  
  <line
    x1="-21.6"
    y1="-256.3705882352941"
    x2="-21.6"
    y2="-224.60588235294117"
    stroke="hsla(0,50%,50%,0.6)"
    stroke-width="1"
    transform="translate(62.4088235294,208.1352941176)"
    />
  
  <line
    x1="-81.6"
    y1="-169.9"
    x2="-76.50196078431372"
    y2="-157.15490196078431"
    stroke="hsla(0,50%,50%,0.6)"
    stroke-width="1"
    transform="translate(62.4088235294,208.1352941176)"
    />
  
  <line
    x1="-96.6"
    y1="-259.9"
    x2="-74.93333333333334"
    y2="-173.23333333333332"
    stroke="hsla(0,50%,50%,0.6)"
    stroke-width="1"
    transform="translate(62.4088235294,208.1352941176)"
    />
  
  <line
    x1="-103.21764705882353"
    y1="-256.3705882352941"
    x2="-81.6"
    y2="-169.9"
    stroke="hsla(0,50%,50%,0.6)"
    stroke-width="1"
    transform="translate(62.4088235294,208.1352941176)"
    />
  
</svg>
