<?xml version="1.0"?>
<!DOCTYPE svg PUBLIC "-//W3C//DTD SVG 1.1//EN"
  "http://www.w3.org/Graphics/SVG/1.1/DTD/svg11.dtd">
<svg
  width="240"
  height="240"
  viewBox="-500 -500 1000 1000" xmlns="http://www.w3.org/2000/svg" version="1.1">
  <rect
    x="0"
    y="0"
    width="100"
    height="100"
    fill="hsla(206,100%,53%,0.3)"
    stroke="hsl(206,100%,53%)"
    stroke-width="3"
    transform="" />
  
  <path
    d="M 
      2.7758892805
      -102.5217244682
      L
    
      47.4817571530
      -87.3248196806
      L
    
      36.7020049843
      -55.6132190036
      L
    
      -48.1652598562
      -14.2184514072
      L
    
      -79.3819185023
      -24.8299574981
      L
    
      -59.2647529339
      -84.0101233573
      z
    "
    fill="hsla(0,0%,50%,0.3)"
    stroke="hsla(0,0%,50%,1)"
    stroke-width="1"
    transform="translate(15.9500806746,58.3700879377)"
    />
  
  
  <line
    x1="2.7758892805429416"
    y1="-102.52172446820356"
    x2="-59.26475293390499"
    y2="-84.0101233573919"
    stroke="hsla(0,50%,50%,0.6)"
    stroke-width="1"
    transform="translate(15.9500806746,58.3700879377)"
    />
  
  <line
    x1="2.7758892805429416"
    y1="-102.52172446820356"
    x2="47.48175715301317"
    y2="-87.32481968067705"
    stroke="hsla(0,50%,50%,0.6)"
    stroke-width="1"
    transform="translate(15.9500806746,58.3700879377)"
    />
  
  <line
    x1="-26.096148432176715"
    y1="-77.51021442460933"
    x2="36.70200498439377"
    y2="-55.61321900368736"
    stroke="hsla(0,50%,50%,0.6)"
    stroke-width="1"
    transform="translate(15.9500806746,58.3700879377)"
    />
  
  <line
    x1="2.7758892805429416"
    y1="-102.52172446820356"
    x2="-29.718046538811947"
    y2="-60.927732479185885"
    stroke="hsla(0,50%,50%,0.6)"
    stroke-width="1"
    transform="translate(15.9500806746,58.3700879377)"
    />
  
  <line
    x1="36.70200498439377"
    y1="-55.61321900368736"
    x2="-48.16525985620427"
    y2="-14.218451407237465"
    stroke="hsla(0,50%,50%,0.6)"
    stroke-width="1"
    transform="translate(15.9500806746,58.3700879377)"
    />
  
  <line
    x1="-59.26475293390499"
    y1="-84.0101233573919"
    x2="-79.38191850236515"
    y2="-24.829957498198628"
    stroke="hsla(0,50%,50%,0.6)"
    stroke-width="1"
    transform="translate(15.9500806746,58.3700879377)"
    />
  
  <line
    x1="-59.26475293390499"
    y1="-84.0101233573919"
    x2="-29.718046538811947"
    y2="-60.927732479185885"
    stroke="hsla(0,50%,50%,0.6)"
    stroke-width="1"
    transform="translate(15.9500806746,58.3700879377)"
    />
  
  <line
    x1="-26.096148432176715"
    y1="-77.51021442460933"
    x2="-48.16525985620427"
    y2="-14.218451407237465"
    stroke="hsla(0,50%,50%,0.6)"
    stroke-width="1"
    transform="translate(15.9500806746,58.3700879377)"
    />
  
  <line
    x1="-79.38191850236515"
    y1="-24.829957498198628"
    x2="-48.16525985620427"
    y2="-14.218451407237465"
    stroke="hsla(0,50%,50%,0.6)"
    stroke-width="1"
    transform="translate(15.9500806746,58.3700879377)"
    />
  
  <line
    x1="47.48175715301317"
    y1="-87.32481968067705"
    x2="36.70200498439377"
    y2="-55.61321900368736"
    stroke="hsla(0,50%,50%,0.6)"
    stroke-width="1"
    transform="translate(15.9500806746,58.3700879377)"
    />
  
</svg>
