<?xml version="1.0"?>
<!DOCTYPE svg PUBLIC "-//W3C//DTD SVG 1.1//EN"
  "http://www.w3.org/Graphics/SVG/1.1/DTD/svg11.dtd">
<svg
  width="240"
  height="240"
  viewBox="-500 -500 1000 1000" xmlns="http://www.w3.org/2000/svg" version="1.1">
  <rect
    x="0"
    y="0"
    width="100"
    height="100"
    fill="hsla(206,100%,53%,0.3)"
    stroke="hsl(206,100%,53%)"
    stroke-width="3"
    transform="" />
  
  <path
    d="M 
      3.125
      0
      L
    
      51.5625
      0
      L
    
      51.5625
      3.125
      L
    
      3.125
      3.125
      L
    
      3.125
      51.5625
      L
    
      0
      51.5625
      L
    
      0
      3.125
      z
    "
    fill="hsla(0,0%,50%,0.3)"
    stroke="hsla(0,0%,50%,1)"
    stroke-width="1"
    transform="translate(-25.78125,-25.78125)"
    />
  
  
  <line
    x1="3.125"
    y1="0"
    x2="51.5625"
    y2="0"
    stroke="hsla(0,50%,50%,0.6)"
    stroke-width="1"
    transform="translate(-25.78125,-25.78125)"
    />
  
  <line
    x1="0"
    y1="3.125"
    x2="0"
    y2="51.5625"
    stroke="hsla(0,50%,50%,0.6)"
    stroke-width="1"
    transform="translate(-25.78125,-25.78125)"
    />
  
  <line
    x1="3.125"
    y1="0"
    x2="3.125"
    y2="51.5625"
    stroke="hsla(0,50%,50%,0.6)"
    stroke-width="1"
    transform="translate(-25.78125,-25.78125)"
    />
  
  <line
    x1="51.5625"
    y1="0"
    x2="51.5625"
    y2="3.125"
    stroke="hsla(0,50%,50%,0.6)"
    stroke-width="1"
    transform="translate(-25.78125,-25.78125)"
    />
  
  <line
    x1="3.125"
    y1="0"
    x2="0"
    y2="3.125"
    stroke="hsla(0,50%,50%,0.6)"
    stroke-width="1"
    transform="translate(-25.78125,-25.78125)"
    />
  
  <line
    x1="0"
    y1="3.125"
    x2="51.5625"
    y2="3.125"
    stroke="hsla(0,50%,50%,0.6)"
    stroke-width="1"
    transform="translate(-25.78125,-25.78125)"
    />
  
  <line
    x1="0"
    y1="51.5625"
    x2="3.125"
    y2="51.5625"
    stroke="hsla(0,50%,50%,0.6)"
    stroke-width="1"
    transform="translate(-25.78125,-25.78125)"
    />
  
</svg>
