<?xml version="1.0"?>
<!DOCTYPE svg PUBLIC "-//W3C//DTD SVG 1.1//EN"
  "http://www.w3.org/Graphics/SVG/1.1/DTD/svg11.dtd">
<svg
  width="240"
  height="240"
  viewBox="-500 -500 1000 1000" xmlns="http://www.w3.org/2000/svg" version="1.1">
  <rect
    x="0"
    y="0"
    width="100"
    height="100"
    fill="hsla(206,100%,53%,0.3)"
    stroke="hsl(206,100%,53%)"
    stroke-width="3"
    transform="" />
  
  <path
    d="M 
      60
      -20
      L
    
      75
      0
      L
    
      100
      0
      L
    
      100
      33.3333333333
      L
    
      0
      66.6666666666
      L
    
      -20
      40
      L
    
      0
      25
      L
    
      0
      0
      L
    
      33.3333333333
      0
      z
    "
    fill="hsla(0,0%,50%,0.3)"
    stroke="hsla(0,0%,50%,1)"
    stroke-width="1"
    transform="translate(-40,-23.3333333333)"
    />
  
  
  <line
    x1="60"
    y1="-20"
    x2="100"
    y2="33.333333333333336"
    stroke="hsla(0,50%,50%,0.6)"
    stroke-width="1"
    transform="translate(-40,-23.3333333333)"
    />
  
  <line
    x1="0"
    y1="0"
    x2="100"
    y2="0"
    stroke="hsla(0,50%,50%,0.6)"
    stroke-width="1"
    transform="translate(-40,-23.3333333333)"
    />
  
  <line
    x1="0"
    y1="0"
    x2="0"
    y2="66.66666666666667"
    stroke="hsla(0,50%,50%,0.6)"
    stroke-width="1"
    transform="translate(-40,-23.3333333333)"
    />
  
  <line
    x1="100"
    y1="0"
    x2="100"
    y2="33.333333333333336"
    stroke="hsla(0,50%,50%,0.6)"
    stroke-width="1"
    transform="translate(-40,-23.3333333333)"
    />
  
  <line
    x1="60"
    y1="-20"
    x2="-20"
    y2="40"
    stroke="hsla(0,50%,50%,0.6)"
    stroke-width="1"
    transform="translate(-40,-23.3333333333)"
    />
  
  <line
    x1="-20"
    y1="40"
    x2="0"
    y2="66.66666666666667"
    stroke="hsla(0,50%,50%,0.6)"
    stroke-width="1"
    transform="translate(-40,-23.3333333333)"
    />
  
  <line
    x1="100"
    y1="33.333333333333336"
    x2="0"
    y2="66.66666666666667"
    stroke="hsla(0,50%,50%,0.6)"
    stroke-width="1"
    transform="translate(-40,-23.3333333333)"
    />
  
</svg>
