<?xml version="1.0"?>
<!DOCTYPE svg PUBLIC "-//W3C//DTD SVG 1.1//EN"
  "http://www.w3.org/Graphics/SVG/1.1/DTD/svg11.dtd">
<svg
  width="240"
  height="240"
  viewBox="-500 -500 1000 1000" xmlns="http://www.w3.org/2000/svg" version="1.1">
  <rect
    x="0"
    y="0"
    width="100"
    height="100"
    fill="hsla(206,100%,53%,0.3)"
    stroke="hsl(206,100%,53%)"
    stroke-width="3"
    transform="" />
  
  <path
    d="M 
      15.1162790697
      1.5625
      L
    
      98.4375
      1.5625
      L
    
      98.4375
      98.4375
      L
    
      15.1162790697
      98.4375
      z
    "
    fill="hsla(0,0%,50%,0.3)"
    stroke="hsla(0,0%,50%,1)"
    stroke-width="1"
    transform="translate(-56.7768895348,-50)"
    />
  
  
  <line
    x1="15.116279069767442"
    y1="1.5625"
    x2="15.116279069767442"
    y2="98.4375"
    stroke="hsla(0,50%,50%,0.6)"
    stroke-width="1"
    transform="translate(-56.7768895348,-50)"
    />
  
  <line
    x1="30.232558139534884"
    y1="1.5625"
    x2="30.232558139534884"
    y2="98.4375"
    stroke="hsla(0,50%,50%,0.6)"
    stroke-width="1"
    transform="translate(-56.7768895348,-50)"
    />
  
  <line
    x1="96.875"
    y1="1.5625"
    x2="96.875"
    y2="98.4375"
    stroke="hsla(0,50%,50%,0.6)"
    stroke-width="1"
    transform="translate(-56.7768895348,-50)"
    />
  
  <line
    x1="98.4375"
    y1="1.5625"
    x2="98.4375"
    y2="98.4375"
    stroke="hsla(0,50%,50%,0.6)"
    stroke-width="1"
    transform="translate(-56.7768895348,-50)"
    />
  
  <line
    x1="15.116279069767442"
    y1="1.5625"
    x2="98.4375"
    y2="1.5625"
    stroke="hsla(0,50%,50%,0.6)"
    stroke-width="1"
    transform="translate(-56.7768895348,-50)"
    />
  
  <line
    x1="15.116279069767442"
    y1="3.125"
    x2="98.4375"
    y2="3.125"
    stroke="hsla(0,50%,50%,0.6)"
    stroke-width="1"
    transform="translate(-56.7768895348,-50)"
    />
  
  <line
    x1="15.116279069767442"
    y1="96.875"
    x2="98.4375"
    y2="96.875"
    stroke="hsla(0,50%,50%,0.6)"
    stroke-width="1"
    transform="translate(-56.7768895348,-50)"
    />
  
  <line
    x1="15.116279069767442"
    y1="98.4375"
    x2="98.4375"
    y2="98.4375"
    stroke="hsla(0,50%,50%,0.6)"
    stroke-width="1"
    transform="translate(-56.7768895348,-50)"
    />
  
</svg>
