<?xml version="1.0"?>
<!DOCTYPE svg PUBLIC "-//W3C//DTD SVG 1.1//EN"
  "http://www.w3.org/Graphics/SVG/1.1/DTD/svg11.dtd">
<svg
  width="240"
  height="240"
  viewBox="-50 -50 200 200" xmlns="http://www.w3.org/2000/svg" version="1.1">
  <rect
    x="0"
    y="0"
    width="100"
    height="100"
    fill="hsla(206,100%,53%,0.3)"
    stroke="hsl(206,100%,53%)"
    stroke-width="3"
    transform="" />
  
  <path
    d="M 
      263680094001.0992392457
      -63952222718.7790973020
      L
    
      263680094005.6074359670
      -63952222694.1889333676
      L
    
      263680093981.0172720325
      -63952222689.6807366463
      L
    
      263680093976.5090753112
      -63952222714.2709005807
      z
    "
    fill="hsla(0,0%,50%,0.3)"
    stroke="hsla(0,0%,50%,1)"
    stroke-width="1"
    transform="translate(-263680093984.3471900653,63952222706.1766382857) scale(1,-1) translate(50,-110)"
    />
  
  
  <line
    x1="263680094001.09924"
    y1="-63952222718.7791"
    x2="263680094005.60745"
    y2="-63952222694.188934"
    stroke="hsla(0,50%,50%,0.6)"
    stroke-width="1"
    transform="translate(-263680093984.3471900653,63952222706.1766382857) scale(1,-1) translate(50,-110)"
    />
  
  <line
    x1="263680093976.5091"
    y1="-63952222714.2709"
    x2="263680093981.01727"
    y2="-63952222689.68073"
    stroke="hsla(0,50%,50%,0.6)"
    stroke-width="1"
    transform="translate(-263680093984.3471900653,63952222706.1766382857) scale(1,-1) translate(50,-110)"
    />
  
  <line
    x1="263680094001.09924"
    y1="-63952222718.7791"
    x2="263680093976.5091"
    y2="-63952222714.2709"
    stroke="hsla(0,50%,50%,0.6)"
    stroke-width="1"
    transform="translate(-263680093984.3471900653,63952222706.1766382857) scale(1,-1) translate(50,-110)"
    />
  
  <line
    x1="263680094005.60745"
    y1="-63952222694.188934"
    x2="263680093981.01727"
    y2="-63952222689.68073"
    stroke="hsla(0,50%,50%,0.6)"
    stroke-width="1"
    transform="translate(-263680093984.3471900653,63952222706.1766382857) scale(1,-1) translate(50,-110)"
    />
  
</svg>
