<?xml version="1.0"?>
<!DOCTYPE svg PUBLIC "-//W3C//DTD SVG 1.1//EN"
  "http://www.w3.org/Graphics/SVG/1.1/DTD/svg11.dtd">
<svg
  width="240"
  height="240"
  viewBox="-500 -500 1000 1000" xmlns="http://www.w3.org/2000/svg" version="1.1">
  <rect
    x="0"
    y="0"
    width="100"
    height="100"
    fill="hsla(206,100%,53%,0.3)"
    stroke="hsl(206,100%,53%)"
    stroke-width="3"
    transform="" />
  
  <path
    d="M 
      55.7142857142
      27.9411764705
      L
    
      58.4615384615
      98.4375
      L
    
      1.5625
      39.0625
      L
    
      1.5625
      28.7878787878
      z
    "
    fill="hsla(0,0%,50%,0.3)"
    stroke="hsla(0,0%,50%,1)"
    stroke-width="1"
    transform="translate(-30.0120192307,-63.1893382352)"
    />
  
  
  <line
    x1="50.30422199478421"
    y1="70.06062441385933"
    x2="58.46153846153846"
    y2="98.4375"
    stroke="hsla(0,50%,50%,0.6)"
    stroke-width="1"
    transform="translate(-30.0120192307,-63.1893382352)"
    />
  
  <line
    x1="55.714285714285715"
    y1="27.941176470588236"
    x2="58.46153846153846"
    y2="98.4375"
    stroke="hsla(0,50%,50%,0.6)"
    stroke-width="1"
    transform="translate(-30.0120192307,-63.1893382352)"
    />
  
  <line
    x1="22.332958246763344"
    y1="45.49703159639278"
    x2="24.44483234859543"
    y2="62.94055699240841"
    stroke="hsla(0,50%,50%,0.6)"
    stroke-width="1"
    transform="translate(-30.0120192307,-63.1893382352)"
    />
  
  <line
    x1="10.005117161425513"
    y1="31.50918199118257"
    x2="11.395688728378806"
    y2="49.32357991512279"
    stroke="hsla(0,50%,50%,0.6)"
    stroke-width="1"
    transform="translate(-30.0120192307,-63.1893382352)"
    />
  
  <line
    x1="1.5625"
    y1="28.78787878787879"
    x2="1.588971134112701"
    y2="29.634167209850858"
    stroke="hsla(0,50%,50%,0.6)"
    stroke-width="1"
    transform="translate(-30.0120192307,-63.1893382352)"
    />
  
  <line
    x1="1.5625"
    y1="28.78787878787879"
    x2="1.5625"
    y2="39.0625"
    stroke="hsla(0,50%,50%,0.6)"
    stroke-width="1"
    transform="translate(-30.0120192307,-63.1893382352)"
    />
  
  <line
    x1="23.646623421044417"
    y1="59.500608732921876"
    x2="23.13673055279662"
    y2="61.57553314972862"
    stroke="hsla(0,50%,50%,0.6)"
    stroke-width="1"
    transform="translate(-30.0120192307,-63.1893382352)"
    />
  
  <line
    x1="1.5625"
    y1="39.0625"
    x2="58.46153846153846"
    y2="98.4375"
    stroke="hsla(0,50%,50%,0.6)"
    stroke-width="1"
    transform="translate(-30.0120192307,-63.1893382352)"
    />
  
  <line
    x1="55.714285714285715"
    y1="27.941176470588236"
    x2="1.5625"
    y2="28.78787878787879"
    stroke="hsla(0,50%,50%,0.6)"
    stroke-width="1"
    transform="translate(-30.0120192307,-63.1893382352)"
    />
  
  <line
    x1="55.714285714285715"
    y1="27.941176470588236"
    x2="1.588971134112701"
    y2="29.634167209850858"
    stroke="hsla(0,50%,50%,0.6)"
    stroke-width="1"
    transform="translate(-30.0120192307,-63.1893382352)"
    />
  
  <line
    x1="55.714285714285715"
    y1="27.941176470588236"
    x2="10.005117161425513"
    y2="31.50918199118257"
    stroke="hsla(0,50%,50%,0.6)"
    stroke-width="1"
    transform="translate(-30.0120192307,-63.1893382352)"
    />
  
  <line
    x1="1.5625"
    y1="39.0625"
    x2="56.2384709865449"
    y2="41.39211744407136"
    stroke="hsla(0,50%,50%,0.6)"
    stroke-width="1"
    transform="translate(-30.0120192307,-63.1893382352)"
    />
  
  <line
    x1="11.395688728378806"
    y1="49.32357991512279"
    x2="56.76160162566449"
    y2="54.81599583327382"
    stroke="hsla(0,50%,50%,0.6)"
    stroke-width="1"
    transform="translate(-30.0120192307,-63.1893382352)"
    />
  
  <line
    x1="56.2384709865449"
    y1="41.39211744407136"
    x2="22.332958246763344"
    y2="45.49703159639278"
    stroke="hsla(0,50%,50%,0.6)"
    stroke-width="1"
    transform="translate(-30.0120192307,-63.1893382352)"
    />
  
  <line
    x1="23.646623421044417"
    y1="59.500608732921876"
    x2="57.26612031064646"
    y2="67.76227916256997"
    stroke="hsla(0,50%,50%,0.6)"
    stroke-width="1"
    transform="translate(-30.0120192307,-63.1893382352)"
    />
  
  <line
    x1="24.44483234859543"
    y1="62.94055699240841"
    x2="57.28879907527507"
    y2="68.34423127094658"
    stroke="hsla(0,50%,50%,0.6)"
    stroke-width="1"
    transform="translate(-30.0120192307,-63.1893382352)"
    />
  
  <line
    x1="56.76160162566449"
    y1="54.81599583327382"
    x2="23.13673055279662"
    y2="61.57553314972862"
    stroke="hsla(0,50%,50%,0.6)"
    stroke-width="1"
    transform="translate(-30.0120192307,-63.1893382352)"
    />
  
  <line
    x1="57.28879907527507"
    y1="68.34423127094658"
    x2="50.30422199478421"
    y2="70.06062441385933"
    stroke="hsla(0,50%,50%,0.6)"
    stroke-width="1"
    transform="translate(-30.0120192307,-63.1893382352)"
    />
  
  <line
    x1="57.26612031064646"
    y1="67.76227916256997"
    x2="50.30422199478421"
    y2="70.06062441385933"
    stroke="hsla(0,50%,50%,0.6)"
    stroke-width="1"
    transform="translate(-30.0120192307,-63.1893382352)"
    />
  
</svg>
