<?xml version="1.0"?>
<!DOCTYPE svg PUBLIC "-//W3C//DTD SVG 1.1//EN"
  "http://www.w3.org/Graphics/SVG/1.1/DTD/svg11.dtd">
<svg
  width="240"
  height="240"
  viewBox="-50 -50 200 200" xmlns="http://www.w3.org/2000/svg" version="1.1">
  <rect
    x="0"
    y="0"
    width="100"
    height="100"
    fill="hsla(206,100%,53%,0.3)"
    stroke="hsl(206,100%,53%)"
    stroke-width="3"
    transform="" />
  
  <path
    d="M 
      -109.1341861509
      -12.4366569771
      L
    
      -96.6789525168
      -0.4028731230
      L
    
      -75.5918581636
      4.6242012716
      L
    
      -66.8966624547
      28.3716687138
      L
    
      -132.2789888207
      70.9095937874
      L
    
      -155.5304349903
      38.2880064794
      L
    
      -152.7547592923
      36.3096087556
      L
    
      -162.8057644643
      19.3254064279
      z
    "
    fill="hsla(0,0%,50%,0.3)"
    stroke="hsla(0,0%,50%,1)"
    stroke-width="1"
    transform="translate(152.1798718617,-28.8165147877) scale(1,-1) translate(50,-110)"
    />
  
  
  <line
    x1="-109.13418615090713"
    y1="-12.436656977185198"
    x2="-162.80576446433741"
    y2="19.325406427902916"
    stroke="hsla(0,50%,50%,0.6)"
    stroke-width="1"
    transform="translate(152.1798718617,-28.8165147877) scale(1,-1) translate(50,-110)"
    />
  
  <line
    x1="-109.13418615090713"
    y1="-12.436656977185198"
    x2="-127.17514927122758"
    y2="20.591699938121074"
    stroke="hsla(0,50%,50%,0.6)"
    stroke-width="1"
    transform="translate(152.1798718617,-28.8165147877) scale(1,-1) translate(50,-110)"
    />
  
  <line
    x1="-100.10241389516221"
    y1="-1.219011882952145"
    x2="-155.53043499038725"
    y2="38.288006479439495"
    stroke="hsla(0,50%,50%,0.6)"
    stroke-width="1"
    transform="translate(152.1798718617,-28.8165147877) scale(1,-1) translate(50,-110)"
    />
  
  <line
    x1="-91.32099408967146"
    y1="0.8744415779072192"
    x2="-98.62074308034336"
    y2="12.75933926444216"
    stroke="hsla(0,50%,50%,0.6)"
    stroke-width="1"
    transform="translate(152.1798718617,-28.8165147877) scale(1,-1) translate(50,-110)"
    />
  
  <line
    x1="-75.59185816368392"
    y1="4.624201271663923"
    x2="-89.97436727958063"
    y2="18.069975896686433"
    stroke="hsla(0,50%,50%,0.6)"
    stroke-width="1"
    transform="translate(152.1798718617,-28.8165147877) scale(1,-1) translate(50,-110)"
    />
  
  <line
    x1="-66.89666245473175"
    y1="28.371668713804127"
    x2="-132.27898882071486"
    y2="70.90959378742869"
    stroke="hsla(0,50%,50%,0.6)"
    stroke-width="1"
    transform="translate(152.1798718617,-28.8165147877) scale(1,-1) translate(50,-110)"
    />
  
  <line
    x1="-91.32099408967146"
    y1="0.8744415779072192"
    x2="-87.90695786287951"
    y2="42.041025886012314"
    stroke="hsla(0,50%,50%,0.6)"
    stroke-width="1"
    transform="translate(152.1798718617,-28.8165147877) scale(1,-1) translate(50,-110)"
    />
  
  <line
    x1="-100.10241389516221"
    y1="-1.219011882952145"
    x2="-75.59185816368392"
    y2="4.624201271663923"
    stroke="hsla(0,50%,50%,0.6)"
    stroke-width="1"
    transform="translate(152.1798718617,-28.8165147877) scale(1,-1) translate(50,-110)"
    />
  
  <line
    x1="-75.59185816368392"
    y1="4.624201271663923"
    x2="-66.89666245473175"
    y2="28.371668713804127"
    stroke="hsla(0,50%,50%,0.6)"
    stroke-width="1"
    transform="translate(152.1798718617,-28.8165147877) scale(1,-1) translate(50,-110)"
    />
  
  <line
    x1="-100.10241389516221"
    y1="-1.219011882952145"
    x2="-89.97436727958063"
    y2="18.069975896686433"
    stroke="hsla(0,50%,50%,0.6)"
    stroke-width="1"
    transform="translate(152.1798718617,-28.8165147877) scale(1,-1) translate(50,-110)"
    />
  
  <line
    x1="-109.13418615090713"
    y1="-12.436656977185198"
    x2="-66.89666245473175"
    y2="28.371668713804127"
    stroke="hsla(0,50%,50%,0.6)"
    stroke-width="1"
    transform="translate(152.1798718617,-28.8165147877) scale(1,-1) translate(50,-110)"
    />
  
  <line
    x1="-98.62074308034336"
    y1="12.75933926444216"
    x2="-89.97436727958063"
    y2="18.069975896686433"
    stroke="hsla(0,50%,50%,0.6)"
    stroke-width="1"
    transform="translate(152.1798718617,-28.8165147877) scale(1,-1) translate(50,-110)"
    />
  
  <line
    x1="-127.17514927122758"
    y1="20.591699938121074"
    x2="-87.90695786287951"
    y2="42.041025886012314"
    stroke="hsla(0,50%,50%,0.6)"
    stroke-width="1"
    transform="translate(152.1798718617,-28.8165147877) scale(1,-1) translate(50,-110)"
    />
  
  <line
    x1="-162.80576446433741"
    y1="19.325406427902916"
    x2="-132.27898882071486"
    y2="70.90959378742869"
    stroke="hsla(0,50%,50%,0.6)"
    stroke-width="1"
    transform="translate(152.1798718617,-28.8165147877) scale(1,-1) translate(50,-110)"
    />
  
  <line
    x1="-155.53043499038725"
    y1="38.288006479439495"
    x2="-132.27898882071486"
    y2="70.90959378742869"
    stroke="hsla(0,50%,50%,0.6)"
    stroke-width="1"
    transform="translate(152.1798718617,-28.8165147877) scale(1,-1) translate(50,-110)"
    />
  
</svg>
