<?xml version="1.0"?>
<!DOCTYPE svg PUBLIC "-//W3C//DTD SVG 1.1//EN"
  "http://www.w3.org/Graphics/SVG/1.1/DTD/svg11.dtd">
<svg
  width="240"
  height="240"
  viewBox="-50 -50 200 200" xmlns="http://www.w3.org/2000/svg" version="1.1">
  <rect
    x="0"
    y="0"
    width="100"
    height="100"
    fill="hsla(206,100%,53%,0.3)"
    stroke="hsl(206,100%,53%)"
    stroke-width="3"
    transform="" />
  
  <path
    d="M 
      12.5
      0
      L
    
      25
      0
      L
    
      37.5
      12.5
      L
    
      37.5
      25
      L
    
      25
      37.5
      L
    
      12.5
      37.5
      L
    
      0
      25
      L
    
      0
      12.5
      L
    
      12.5
      12.5
      z
    "
    fill="hsla(0,0%,50%,0.3)"
    stroke="hsla(0,0%,50%,1)"
    stroke-width="1"
    transform="translate(-15.3564453125,-16.845703125) scale(1,-1) translate(50,-110)"
    />
  
  <path
    d="M 
      12.5
      12.5
      L
    
      12.5
      25
      L
    
      25
      25
      L
    
      25
      12.5
      z
    "
    fill="hsla(0,0%,50%,0.3)"
    stroke="hsla(0,0%,50%,1)"
    stroke-width="1"
    transform="translate(-15.3564453125,-16.845703125) scale(1,-1) translate(50,-110)"
    />
  
  
  <line
    x1="25"
    y1="0"
    x2="37.5"
    y2="12.5"
    stroke="hsla(0,50%,50%,0.6)"
    stroke-width="1"
    transform="translate(-15.3564453125,-16.845703125) scale(1,-1) translate(50,-110)"
    />
  
  <line
    x1="12.5"
    y1="0"
    x2="25"
    y2="0"
    stroke="hsla(0,50%,50%,0.6)"
    stroke-width="1"
    transform="translate(-15.3564453125,-16.845703125) scale(1,-1) translate(50,-110)"
    />
  
  <line
    x1="0"
    y1="12.5"
    x2="0"
    y2="25"
    stroke="hsla(0,50%,50%,0.6)"
    stroke-width="1"
    transform="translate(-15.3564453125,-16.845703125) scale(1,-1) translate(50,-110)"
    />
  
  <line
    x1="12.5"
    y1="0"
    x2="12.5"
    y2="37.5"
    stroke="hsla(0,50%,50%,0.6)"
    stroke-width="1"
    transform="translate(-15.3564453125,-16.845703125) scale(1,-1) translate(50,-110)"
    />
  
  <line
    x1="18.75"
    y1="0"
    x2="18.75"
    y2="12.5"
    stroke="hsla(0,50%,50%,0.6)"
    stroke-width="1"
    transform="translate(-15.3564453125,-16.845703125) scale(1,-1) translate(50,-110)"
    />
  
  <line
    x1="25"
    y1="0"
    x2="25"
    y2="37.5"
    stroke="hsla(0,50%,50%,0.6)"
    stroke-width="1"
    transform="translate(-15.3564453125,-16.845703125) scale(1,-1) translate(50,-110)"
    />
  
  <line
    x1="37.5"
    y1="12.5"
    x2="37.5"
    y2="25"
    stroke="hsla(0,50%,50%,0.6)"
    stroke-width="1"
    transform="translate(-15.3564453125,-16.845703125) scale(1,-1) translate(50,-110)"
    />
  
  <line
    x1="0"
    y1="25"
    x2="12.5"
    y2="37.5"
    stroke="hsla(0,50%,50%,0.6)"
    stroke-width="1"
    transform="translate(-15.3564453125,-16.845703125) scale(1,-1) translate(50,-110)"
    />
  
  <line
    x1="0"
    y1="12.5"
    x2="37.5"
    y2="12.5"
    stroke="hsla(0,50%,50%,0.6)"
    stroke-width="1"
    transform="translate(-15.3564453125,-16.845703125) scale(1,-1) translate(50,-110)"
    />
  
  <line
    x1="0"
    y1="18.75"
    x2="12.5"
    y2="18.75"
    stroke="hsla(0,50%,50%,0.6)"
    stroke-width="1"
    transform="translate(-15.3564453125,-16.845703125) scale(1,-1) translate(50,-110)"
    />
  
  <line
    x1="0"
    y1="25"
    x2="37.5"
    y2="25"
    stroke="hsla(0,50%,50%,0.6)"
    stroke-width="1"
    transform="translate(-15.3564453125,-16.845703125) scale(1,-1) translate(50,-110)"
    />
  
  <line
    x1="37.5"
    y1="25"
    x2="25"
    y2="37.5"
    stroke="hsla(0,50%,50%,0.6)"
    stroke-width="1"
    transform="translate(-15.3564453125,-16.845703125) scale(1,-1) translate(50,-110)"
    />
  
  <line
    x1="12.5"
    y1="37.5"
    x2="25"
    y2="37.5"
    stroke="hsla(0,50%,50%,0.6)"
    stroke-width="1"
    transform="translate(-15.3564453125,-16.845703125) scale(1,-1) translate(50,-110)"
    />
  
</svg>
