<?xml version="1.0"?>
<!DOCTYPE svg PUBLIC "-//W3C//DTD SVG 1.1//EN"
  "http://www.w3.org/Graphics/SVG/1.1/DTD/svg11.dtd">
<svg
  width="240"
  height="240"
  viewBox="-500 -500 1000 1000" xmlns="http://www.w3.org/2000/svg" version="1.1">
  <rect
    x="0"
    y="0"
    width="100"
    height="100"
    fill="hsla(206,100%,53%,0.3)"
    stroke="hsl(206,100%,53%)"
    stroke-width="3"
    transform="" />
  
  <path
    d="M 
      125.0133087633
      50.8374283374
      L
    
      137.0435850220
      52.2423632211
      L
    
      140.3441915562
      61.3581819426
      L
    
      144.4369369369
      59.9549549549
      L
    
      149.5966420966
      75.0040950040
      L
    
      149.8103017021
      87.5022688536
      L
    
      137.7723177723
      91.8609172242
      L
    
      128.8861588861
      104.5290745290
      L
    
      106.7424242424
      88.9962121212
      z
    "
    fill="hsla(0,0%,50%,0.3)"
    stroke="hsla(0,0%,50%,1)"
    stroke-width="1"
    transform="translate(-128.2763629723,-77.6832514332)"
    />
  
  
  <line
    x1="144.43693693693695"
    y1="59.95495495495496"
    x2="149.59664209664209"
    y2="75.004095004095"
    stroke="hsla(0,50%,50%,0.6)"
    stroke-width="1"
    transform="translate(-128.2763629723,-77.6832514332)"
    />
  
  <line
    x1="137.04358502203644"
    y1="52.24236322117988"
    x2="149.81030170219358"
    y2="87.50226885362021"
    stroke="hsla(0,50%,50%,0.6)"
    stroke-width="1"
    transform="translate(-128.2763629723,-77.6832514332)"
    />
  
  <line
    x1="125.01330876330876"
    y1="50.837428337428335"
    x2="149.59664209664209"
    y2="75.004095004095"
    stroke="hsla(0,50%,50%,0.6)"
    stroke-width="1"
    transform="translate(-128.2763629723,-77.6832514332)"
    />
  
  <line
    x1="117.45934959349593"
    y1="78.09451219512195"
    x2="133.21032571032572"
    y2="98.36451836451836"
    stroke="hsla(0,50%,50%,0.6)"
    stroke-width="1"
    transform="translate(-128.2763629723,-77.6832514332)"
    />
  
  <line
    x1="107.10820771631582"
    y1="88.23227250592116"
    x2="108.85135135135135"
    y2="90.47553235053235"
    stroke="hsla(0,50%,50%,0.6)"
    stroke-width="1"
    transform="translate(-128.2763629723,-77.6832514332)"
    />
  
  <line
    x1="117.45934959349593"
    y1="78.09451219512195"
    x2="120"
    y2="80"
    stroke="hsla(0,50%,50%,0.6)"
    stroke-width="1"
    transform="translate(-128.2763629723,-77.6832514332)"
    />
  
  <line
    x1="149.59664209664209"
    y1="75.004095004095"
    x2="149.81030170219358"
    y2="87.50226885362021"
    stroke="hsla(0,50%,50%,0.6)"
    stroke-width="1"
    transform="translate(-128.2763629723,-77.6832514332)"
    />
  
  <line
    x1="120"
    y1="75.51005747126437"
    x2="120"
    y2="98.29582230067668"
    stroke="hsla(0,50%,50%,0.6)"
    stroke-width="1"
    transform="translate(-128.2763629723,-77.6832514332)"
    />
  
  <line
    x1="120.18496690793988"
    y1="60.9214312592691"
    x2="149.59664209664209"
    y2="75.004095004095"
    stroke="hsla(0,50%,50%,0.6)"
    stroke-width="1"
    transform="translate(-128.2763629723,-77.6832514332)"
    />
  
  <line
    x1="106.74242424242425"
    y1="88.99621212121212"
    x2="128.88615888615888"
    y2="104.52907452907453"
    stroke="hsla(0,50%,50%,0.6)"
    stroke-width="1"
    transform="translate(-128.2763629723,-77.6832514332)"
    />
  
  <line
    x1="125.01330876330876"
    y1="50.837428337428335"
    x2="137.04358502203644"
    y2="52.24236322117988"
    stroke="hsla(0,50%,50%,0.6)"
    stroke-width="1"
    transform="translate(-128.2763629723,-77.6832514332)"
    />
  
  <line
    x1="130.6418918918919"
    y1="64.68468468468468"
    x2="119.8015498015498"
    y2="98.15661815661815"
    stroke="hsla(0,50%,50%,0.6)"
    stroke-width="1"
    transform="translate(-128.2763629723,-77.6832514332)"
    />
  
  <line
    x1="108.85135135135135"
    y1="90.47553235053235"
    x2="133.21032571032572"
    y2="98.36451836451836"
    stroke="hsla(0,50%,50%,0.6)"
    stroke-width="1"
    transform="translate(-128.2763629723,-77.6832514332)"
    />
  
  <line
    x1="125.01330876330876"
    y1="50.837428337428335"
    x2="106.74242424242425"
    y2="88.99621212121212"
    stroke="hsla(0,50%,50%,0.6)"
    stroke-width="1"
    transform="translate(-128.2763629723,-77.6832514332)"
    />
  
  <line
    x1="149.59664209664209"
    y1="75.004095004095"
    x2="120"
    y2="75.51005747126437"
    stroke="hsla(0,50%,50%,0.6)"
    stroke-width="1"
    transform="translate(-128.2763629723,-77.6832514332)"
    />
  
  <line
    x1="137.04358502203644"
    y1="52.24236322117988"
    x2="111.00849448761974"
    y2="91.98867401650702"
    stroke="hsla(0,50%,50%,0.6)"
    stroke-width="1"
    transform="translate(-128.2763629723,-77.6832514332)"
    />
  
  <line
    x1="120"
    y1="80"
    x2="111.00849448761974"
    y2="91.98867401650702"
    stroke="hsla(0,50%,50%,0.6)"
    stroke-width="1"
    transform="translate(-128.2763629723,-77.6832514332)"
    />
  
  <line
    x1="149.81030170219358"
    y1="87.50226885362021"
    x2="107.10820771631582"
    y2="88.23227250592116"
    stroke="hsla(0,50%,50%,0.6)"
    stroke-width="1"
    transform="translate(-128.2763629723,-77.6832514332)"
    />
  
  <line
    x1="149.59664209664209"
    y1="75.004095004095"
    x2="128.88615888615888"
    y2="104.52907452907453"
    stroke="hsla(0,50%,50%,0.6)"
    stroke-width="1"
    transform="translate(-128.2763629723,-77.6832514332)"
    />
  
  <line
    x1="130.6418918918919"
    y1="64.68468468468468"
    x2="106.74242424242425"
    y2="88.99621212121212"
    stroke="hsla(0,50%,50%,0.6)"
    stroke-width="1"
    transform="translate(-128.2763629723,-77.6832514332)"
    />
  
  <line
    x1="144.43693693693695"
    y1="59.95495495495496"
    x2="130.6418918918919"
    y2="64.68468468468468"
    stroke="hsla(0,50%,50%,0.6)"
    stroke-width="1"
    transform="translate(-128.2763629723,-77.6832514332)"
    />
  
  <line
    x1="149.59664209664209"
    y1="75.004095004095"
    x2="119.8015498015498"
    y2="98.15661815661815"
    stroke="hsla(0,50%,50%,0.6)"
    stroke-width="1"
    transform="translate(-128.2763629723,-77.6832514332)"
    />
  
  <line
    x1="149.81030170219358"
    y1="87.50226885362021"
    x2="120"
    y2="98.29582230067668"
    stroke="hsla(0,50%,50%,0.6)"
    stroke-width="1"
    transform="translate(-128.2763629723,-77.6832514332)"
    />
  
</svg>
