<?xml version="1.0"?>
<!DOCTYPE svg PUBLIC "-//W3C//DTD SVG 1.1//EN"
  "http://www.w3.org/Graphics/SVG/1.1/DTD/svg11.dtd">
<svg
  width="240"
  height="240"
  viewBox="-500 -500 1000 1000" xmlns="http://www.w3.org/2000/svg" version="1.1">
  <rect
    x="0"
    y="0"
    width="100"
    height="100"
    fill="hsla(206,100%,53%,0.3)"
    stroke="hsl(206,100%,53%)"
    stroke-width="3"
    transform="" />
  
  <path
    d="M 
      -886293811965250109592900
      -7976644307687250986336100
      L
    
      -886293811965250109592800
      -7976644307687250986336000
      L
    
      -886293811965250109592850
      -7976644307687250986336000
      L
    
      -886293811965250109592900
      -7976644307687250986336050
      z
    "
    fill="hsla(0,0%,50%,0.3)"
    stroke="hsla(0,0%,50%,1)"
    stroke-width="1"
    transform="translate(886293811965250109592850,7976644307687250986336050)"
    />
  
  
  <line
    x1="-8.862938119652501e+23"
    y1="-7.976644307687251e+24"
    x2="-8.862938119652501e+23"
    y2="-7.976644307687251e+24"
    stroke="hsla(0,50%,50%,0.6)"
    stroke-width="1"
    transform="translate(886293811965250109592850,7976644307687250986336050)"
    />
  
  <line
    x1="-8.862938119652501e+23"
    y1="-7.976644307687251e+24"
    x2="-8.862938119652501e+23"
    y2="-7.976644307687251e+24"
    stroke="hsla(0,50%,50%,0.6)"
    stroke-width="1"
    transform="translate(886293811965250109592850,7976644307687250986336050)"
    />
  
  <line
    x1="-8.862938119652501e+23"
    y1="-7.976644307687251e+24"
    x2="-8.862938119652501e+23"
    y2="-7.976644307687251e+24"
    stroke="hsla(0,50%,50%,0.6)"
    stroke-width="1"
    transform="translate(886293811965250109592850,7976644307687250986336050)"
    />
  
  <line
    x1="-8.862938119652501e+23"
    y1="-7.976644307687251e+24"
    x2="-8.862938119652501e+23"
    y2="-7.976644307687251e+24"
    stroke="hsla(0,50%,50%,0.6)"
    stroke-width="1"
    transform="translate(886293811965250109592850,7976644307687250986336050)"
    />
  
  <line
    x1="-8.862938119652501e+23"
    y1="-7.976644307687251e+24"
    x2="-8.862938119652501e+23"
    y2="-7.976644307687251e+24"
    stroke="hsla(0,50%,50%,0.6)"
    stroke-width="1"
    transform="translate(886293811965250109592850,7976644307687250986336050)"
    />
  
  <line
    x1="-8.862938119652501e+23"
    y1="-7.976644307687251e+24"
    x2="-8.862938119652501e+23"
    y2="-7.976644307687251e+24"
    stroke="hsla(0,50%,50%,0.6)"
    stroke-width="1"
    transform="translate(886293811965250109592850,7976644307687250986336050)"
    />
  
</svg>
