<?xml version="1.0"?>
<!DOCTYPE svg PUBLIC "-//W3C//DTD SVG 1.1//EN"
  "http://www.w3.org/Graphics/SVG/1.1/DTD/svg11.dtd">
<svg
  width="240"
  height="240"
  viewBox="-50 -50 200 200" xmlns="http://www.w3.org/2000/svg" version="1.1">
  <rect
    x="0"
    y="0"
    width="100"
    height="100"
    fill="hsla(206,100%,53%,0.3)"
    stroke="hsl(206,100%,53%)"
    stroke-width="3"
    transform="" />
  
  <path
    d="M 
      268279333263.1929561721
      -53064785093.3564810630
      L
    
      268279333274.0037669829
      -53064785061.8249495315
      L
    
      268279333253.2830462622
      -53064785019.4826071891
      L
    
      268279333221.7515147307
      -53064785008.6717963783
      L
    
      268279333210.9407039199
      -53064785040.2033279099
      L
    
      268279333242.4722354514
      -53064785051.0141387207
      L
    
      268279333231.6614246406
      -53064785082.5456702522
      z
    "
    fill="hsla(0,0%,50%,0.3)"
    stroke="hsla(0,0%,50%,1)"
    stroke-width="1"
    transform="translate(-268279333232.9846228388,53064785062.6273143964) scale(1,-1) translate(50,-110)"
    />
  
  
  <line
    x1="268279333263.19296"
    y1="-53064785093.35648"
    x2="268279333274.00378"
    y2="-53064785061.82495"
    stroke="hsla(0,50%,50%,0.6)"
    stroke-width="1"
    transform="translate(-268279333232.9846228388,53064785062.6273143964) scale(1,-1) translate(50,-110)"
    />
  
  <line
    x1="268279333231.66144"
    y1="-53064785082.54567"
    x2="268279333253.28302"
    y2="-53064785019.482605"
    stroke="hsla(0,50%,50%,0.6)"
    stroke-width="1"
    transform="translate(-268279333232.9846228388,53064785062.6273143964) scale(1,-1) translate(50,-110)"
    />
  
  <line
    x1="268279333210.94067"
    y1="-53064785040.20333"
    x2="268279333221.75153"
    y2="-53064785008.6718"
    stroke="hsla(0,50%,50%,0.6)"
    stroke-width="1"
    transform="translate(-268279333232.9846228388,53064785062.6273143964) scale(1,-1) translate(50,-110)"
    />
  
  <line
    x1="268279333263.19296"
    y1="-53064785093.35648"
    x2="268279333231.66144"
    y2="-53064785082.54567"
    stroke="hsla(0,50%,50%,0.6)"
    stroke-width="1"
    transform="translate(-268279333232.9846228388,53064785062.6273143964) scale(1,-1) translate(50,-110)"
    />
  
  <line
    x1="268279333274.00378"
    y1="-53064785061.82495"
    x2="268279333210.94067"
    y2="-53064785040.20333"
    stroke="hsla(0,50%,50%,0.6)"
    stroke-width="1"
    transform="translate(-268279333232.9846228388,53064785062.6273143964) scale(1,-1) translate(50,-110)"
    />
  
  <line
    x1="268279333253.28302"
    y1="-53064785019.482605"
    x2="268279333221.75153"
    y2="-53064785008.6718"
    stroke="hsla(0,50%,50%,0.6)"
    stroke-width="1"
    transform="translate(-268279333232.9846228388,53064785062.6273143964) scale(1,-1) translate(50,-110)"
    />
  
  <line
    x1="268279333274.00378"
    y1="-53064785061.82495"
    x2="268279333253.28302"
    y2="-53064785019.482605"
    stroke="hsla(0,50%,50%,0.6)"
    stroke-width="1"
    transform="translate(-268279333232.9846228388,53064785062.6273143964) scale(1,-1) translate(50,-110)"
    />
  
</svg>
