<?xml version="1.0"?>
<!DOCTYPE svg PUBLIC "-//W3C//DTD SVG 1.1//EN"
  "http://www.w3.org/Graphics/SVG/1.1/DTD/svg11.dtd">
<svg
  width="240"
  height="240"
  viewBox="-50 -50 200 200" xmlns="http://www.w3.org/2000/svg" version="1.1">
  <rect
    x="0"
    y="0"
    width="100"
    height="100"
    fill="hsla(206,100%,53%,0.3)"
    stroke="hsl(206,100%,53%)"
    stroke-width="3"
    transform="" />
  
  <path
    d="M 
      144596566028.5741701827
      224648415198.5506074572
      L
    
      144596566109.5998112084
      224648415246.7557356623
      L
    
      144596566117.8049394135
      224648415279.0634279700
      L
    
      144596566077.2921189007
      224648415254.9608638674
      L
    
      144596566044.9844265930
      224648415263.1659920726
      L
    
      144596566036.7792983879
      224648415230.8582997649
      L
    
      144596565996.2664778750
      224648415206.7557356623
      z
    "
    fill="hsla(0,0%,50%,0.3)"
    stroke="hsla(0,0%,50%,1)"
    stroke-width="1"
    transform="translate(-144596566023.6222471058,-224648415225.6018895085) scale(1,-1) translate(50,-110)"
    />
  
  
  <line
    x1="144596566109.59982"
    y1="224648415246.75574"
    x2="144596566117.80493"
    y2="224648415279.06342"
    stroke="hsla(0,50%,50%,0.6)"
    stroke-width="1"
    transform="translate(-144596566023.6222471058,-224648415225.6018895085) scale(1,-1) translate(50,-110)"
    />
  
  <line
    x1="144596566028.57416"
    y1="224648415198.5506"
    x2="144596566044.98444"
    y2="224648415263.166"
    stroke="hsla(0,50%,50%,0.6)"
    stroke-width="1"
    transform="translate(-144596566023.6222471058,-224648415225.6018895085) scale(1,-1) translate(50,-110)"
    />
  
  <line
    x1="144596566028.57416"
    y1="224648415198.5506"
    x2="144596566109.59982"
    y2="224648415246.75574"
    stroke="hsla(0,50%,50%,0.6)"
    stroke-width="1"
    transform="translate(-144596566023.6222471058,-224648415225.6018895085) scale(1,-1) translate(50,-110)"
    />
  
  <line
    x1="144596565996.26645"
    y1="224648415206.75574"
    x2="144596566117.80493"
    y2="224648415279.06342"
    stroke="hsla(0,50%,50%,0.6)"
    stroke-width="1"
    transform="translate(-144596566023.6222471058,-224648415225.6018895085) scale(1,-1) translate(50,-110)"
    />
  
  <line
    x1="144596566028.57416"
    y1="224648415198.5506"
    x2="144596565996.26645"
    y2="224648415206.75574"
    stroke="hsla(0,50%,50%,0.6)"
    stroke-width="1"
    transform="translate(-144596566023.6222471058,-224648415225.6018895085) scale(1,-1) translate(50,-110)"
    />
  
  <line
    x1="144596566109.59982"
    y1="224648415246.75574"
    x2="144596566044.98444"
    y2="224648415263.166"
    stroke="hsla(0,50%,50%,0.6)"
    stroke-width="1"
    transform="translate(-144596566023.6222471058,-224648415225.6018895085) scale(1,-1) translate(50,-110)"
    />
  
</svg>
