<?xml version="1.0"?>
<!DOCTYPE svg PUBLIC "-//W3C//DTD SVG 1.1//EN"
  "http://www.w3.org/Graphics/SVG/1.1/DTD/svg11.dtd">
<svg
  width="240"
  height="240"
  viewBox="-50 -50 200 200" xmlns="http://www.w3.org/2000/svg" version="1.1">
  <rect
    x="0"
    y="0"
    width="100"
    height="100"
    fill="hsla(206,100%,53%,0.3)"
    stroke="hsl(206,100%,53%)"
    stroke-width="3"
    transform="" />
  
  <path
    d="M 
      72.1272104485
      96.6735112763
      L
    
      84.6249023902
      96.9137114666
      L
    
      87.8043567675
      103.5903729954
      L
    
      39.8808893390
      172.9875195636
      L
    
      31.9642857142
      168.1770833333
      L
    
      32.1278756082
      166.9365266374
      L
    
      30.7894751697
      165.8919455407
      L
    
      32.5657402112
      163.6160533981
      L
    
      40.9908536585
      99.7256097560
      L
    
      72.1154654184
      97.2846089145
      z
    "
    fill="hsla(0,0%,50%,0.3)"
    stroke="hsla(0,0%,50%,1)"
    stroke-width="1"
    transform="translate(-54.7646556123,-114.3727084873) scale(1,-1) translate(50,-110)"
    />
  
  
  <line
    x1="84.62490239025331"
    y1="96.91371146662551"
    x2="87.80435676757094"
    y2="103.59037299545858"
    stroke="hsla(0,50%,50%,0.6)"
    stroke-width="1"
    transform="translate(-54.7646556123,-114.3727084873) scale(1,-1) translate(50,-110)"
    />
  
  <line
    x1="78.37605641942407"
    y1="96.7936113714918"
    x2="84.95339651231836"
    y2="107.71879936587607"
    stroke="hsla(0,50%,50%,0.6)"
    stroke-width="1"
    transform="translate(-54.7646556123,-114.3727084873) scale(1,-1) translate(50,-110)"
    />
  
  <line
    x1="40.99085365853659"
    y1="99.72560975609755"
    x2="46.03736339292176"
    y2="164.07243567706448"
    stroke="hsla(0,50%,50%,0.6)"
    stroke-width="1"
    transform="translate(-54.7646556123,-114.3727084873) scale(1,-1) translate(50,-110)"
    />
  
  <line
    x1="72.12721044859482"
    y1="96.67351127635811"
    x2="71.5416557062788"
    y2="127.14010989268746"
    stroke="hsla(0,50%,50%,0.6)"
    stroke-width="1"
    transform="translate(-54.7646556123,-114.3727084873) scale(1,-1) translate(50,-110)"
    />
  
  <line
    x1="40.99085365853659"
    y1="99.72560975609755"
    x2="31.964285714285715"
    y2="168.17708333333334"
    stroke="hsla(0,50%,50%,0.6)"
    stroke-width="1"
    transform="translate(-54.7646556123,-114.3727084873) scale(1,-1) translate(50,-110)"
    />
  
  <line
    x1="78.37605641942407"
    y1="96.7936113714918"
    x2="44.900184838010915"
    y2="149.5725467706142"
    stroke="hsla(0,50%,50%,0.6)"
    stroke-width="1"
    transform="translate(-54.7646556123,-114.3727084873) scale(1,-1) translate(50,-110)"
    />
  
  <line
    x1="35.46875"
    y1="141.6015625"
    x2="52.65422671321131"
    y2="154.49067003490848"
    stroke="hsla(0,50%,50%,0.6)"
    stroke-width="1"
    transform="translate(-54.7646556123,-114.3727084873) scale(1,-1) translate(50,-110)"
    />
  
  <line
    x1="87.80435676757094"
    y1="103.59037299545858"
    x2="39.880889339028144"
    y2="172.98751956364558"
    stroke="hsla(0,50%,50%,0.6)"
    stroke-width="1"
    transform="translate(-54.7646556123,-114.3727084873) scale(1,-1) translate(50,-110)"
    />
  
  <line
    x1="84.62490239025331"
    y1="96.91371146662551"
    x2="30.789475169790226"
    y2="165.89194554078998"
    stroke="hsla(0,50%,50%,0.6)"
    stroke-width="1"
    transform="translate(-54.7646556123,-114.3727084873) scale(1,-1) translate(50,-110)"
    />
  
  <line
    x1="44.900184838010915"
    y1="149.5725467706142"
    x2="52.65422671321131"
    y2="154.49067003490848"
    stroke="hsla(0,50%,50%,0.6)"
    stroke-width="1"
    transform="translate(-54.7646556123,-114.3727084873) scale(1,-1) translate(50,-110)"
    />
  
  <line
    x1="30.789475169790226"
    y1="165.89194554078998"
    x2="39.880889339028144"
    y2="172.98751956364558"
    stroke="hsla(0,50%,50%,0.6)"
    stroke-width="1"
    transform="translate(-54.7646556123,-114.3727084873) scale(1,-1) translate(50,-110)"
    />
  
  <line
    x1="40.99085365853659"
    y1="99.72560975609755"
    x2="84.95339651231836"
    y2="107.71879936587607"
    stroke="hsla(0,50%,50%,0.6)"
    stroke-width="1"
    transform="translate(-54.7646556123,-114.3727084873) scale(1,-1) translate(50,-110)"
    />
  
  <line
    x1="72.12721044859482"
    y1="96.67351127635811"
    x2="84.62490239025331"
    y2="96.91371146662551"
    stroke="hsla(0,50%,50%,0.6)"
    stroke-width="1"
    transform="translate(-54.7646556123,-114.3727084873) scale(1,-1) translate(50,-110)"
    />
  
  <line
    x1="40.99085365853659"
    y1="99.72560975609755"
    x2="87.80435676757094"
    y2="103.59037299545858"
    stroke="hsla(0,50%,50%,0.6)"
    stroke-width="1"
    transform="translate(-54.7646556123,-114.3727084873) scale(1,-1) translate(50,-110)"
    />
  
  <line
    x1="78.37605641942407"
    y1="96.7936113714918"
    x2="40.99085365853659"
    y2="99.72560975609755"
    stroke="hsla(0,50%,50%,0.6)"
    stroke-width="1"
    transform="translate(-54.7646556123,-114.3727084873) scale(1,-1) translate(50,-110)"
    />
  
  <line
    x1="31.964285714285715"
    y1="168.17708333333334"
    x2="39.880889339028144"
    y2="172.98751956364558"
    stroke="hsla(0,50%,50%,0.6)"
    stroke-width="1"
    transform="translate(-54.7646556123,-114.3727084873) scale(1,-1) translate(50,-110)"
    />
  
  <line
    x1="71.5416557062788"
    y1="127.14010989268746"
    x2="35.46875"
    y2="141.6015625"
    stroke="hsla(0,50%,50%,0.6)"
    stroke-width="1"
    transform="translate(-54.7646556123,-114.3727084873) scale(1,-1) translate(50,-110)"
    />
  
  <line
    x1="46.03736339292176"
    y1="164.07243567706448"
    x2="31.964285714285715"
    y2="168.17708333333334"
    stroke="hsla(0,50%,50%,0.6)"
    stroke-width="1"
    transform="translate(-54.7646556123,-114.3727084873) scale(1,-1) translate(50,-110)"
    />
  
</svg>
