<?xml version="1.0"?>
<!DOCTYPE svg PUBLIC "-//W3C//DTD SVG 1.1//EN"
  "http://www.w3.org/Graphics/SVG/1.1/DTD/svg11.dtd">
<svg
  width="240"
  height="240"
  viewBox="-50 -50 200 200" xmlns="http://www.w3.org/2000/svg" version="1.1">
  <rect
    x="0"
    y="0"
    width="100"
    height="100"
    fill="hsla(206,100%,53%,0.3)"
    stroke="hsl(206,100%,53%)"
    stroke-width="3"
    transform="" />
  
  <path
    d="M 
      32.6932317990
      143.1067054540
      L
    
      47.7708055730
      190.1271872668
      L
    
      24.9705995919
      212.4111881114
      L
    
      13.1580919455
      208.3228310935
      L
    
      18.6092346361
      192.5728208984
      L
    
      12.8225372028
      174.5265950602
      L
    
      12
      174
      L
    
      5.4240594918
      151.4539182577
      z
    "
    fill="hsla(0,0%,50%,0.3)"
    stroke="hsla(0,0%,50%,1)"
    stroke-width="1"
    transform="translate(-9.9079053449,-165.5109878903) scale(1,-1) translate(50,-110)"
    />
  
  
  <line
    x1="13.888225344322121"
    y1="148.86300010371176"
    x2="12"
    y2="174"
    stroke="hsla(0,50%,50%,0.6)"
    stroke-width="1"
    transform="translate(-9.9079053449,-165.5109878903) scale(1,-1) translate(50,-110)"
    />
  
  <line
    x1="32.69323179908628"
    y1="143.1067054540101"
    x2="46.34318181818182"
    y2="189.9065340909091"
    stroke="hsla(0,50%,50%,0.6)"
    stroke-width="1"
    transform="translate(-9.9079053449,-165.5109878903) scale(1,-1) translate(50,-110)"
    />
  
  <line
    x1="14.696063539375192"
    y1="148.61571730212407"
    x2="12"
    y2="174"
    stroke="hsla(0,50%,50%,0.6)"
    stroke-width="1"
    transform="translate(-9.9079053449,-165.5109878903) scale(1,-1) translate(50,-110)"
    />
  
  <line
    x1="32.69323179908628"
    y1="143.1067054540101"
    x2="47.77080557304859"
    y2="190.1271872668417"
    stroke="hsla(0,50%,50%,0.6)"
    stroke-width="1"
    transform="translate(-9.9079053449,-165.5109878903) scale(1,-1) translate(50,-110)"
    />
  
  <line
    x1="46.612678041782274"
    y1="186.51548452625306"
    x2="46.34318181818182"
    y2="189.9065340909091"
    stroke="hsla(0,50%,50%,0.6)"
    stroke-width="1"
    transform="translate(-9.9079053449,-165.5109878903) scale(1,-1) translate(50,-110)"
    />
  
  <line
    x1="5.424059491848788"
    y1="151.45391825776727"
    x2="12"
    y2="174"
    stroke="hsla(0,50%,50%,0.6)"
    stroke-width="1"
    transform="translate(-9.9079053449,-165.5109878903) scale(1,-1) translate(50,-110)"
    />
  
  <line
    x1="5.424059491848788"
    y1="151.45391825776727"
    x2="24.970599591904712"
    y2="212.41118811146546"
    stroke="hsla(0,50%,50%,0.6)"
    stroke-width="1"
    transform="translate(-9.9079053449,-165.5109878903) scale(1,-1) translate(50,-110)"
    />
  
  <line
    x1="34.15350871455455"
    y1="147.66068245155915"
    x2="13.158091945589511"
    y2="208.32283109357368"
    stroke="hsla(0,50%,50%,0.6)"
    stroke-width="1"
    transform="translate(-9.9079053449,-165.5109878903) scale(1,-1) translate(50,-110)"
    />
  
  <line
    x1="29.228793631614234"
    y1="144.16718511593487"
    x2="18.75"
    y2="172.03125"
    stroke="hsla(0,50%,50%,0.6)"
    stroke-width="1"
    transform="translate(-9.9079053449,-165.5109878903) scale(1,-1) translate(50,-110)"
    />
  
  <line
    x1="13.888225344322121"
    y1="148.86300010371176"
    x2="46.34318181818182"
    y2="189.9065340909091"
    stroke="hsla(0,50%,50%,0.6)"
    stroke-width="1"
    transform="translate(-9.9079053449,-165.5109878903) scale(1,-1) translate(50,-110)"
    />
  
  <line
    x1="14.696063539375192"
    y1="148.61571730212407"
    x2="46.612678041782274"
    y2="186.51548452625306"
    stroke="hsla(0,50%,50%,0.6)"
    stroke-width="1"
    transform="translate(-9.9079053449,-165.5109878903) scale(1,-1) translate(50,-110)"
    />
  
  <line
    x1="46.34318181818182"
    y1="189.9065340909091"
    x2="43.582191780821915"
    y2="194.21917808219177"
    stroke="hsla(0,50%,50%,0.6)"
    stroke-width="1"
    transform="translate(-9.9079053449,-165.5109878903) scale(1,-1) translate(50,-110)"
    />
  
  <line
    x1="29.228793631614234"
    y1="144.16718511593487"
    x2="34.15350871455455"
    y2="147.66068245155915"
    stroke="hsla(0,50%,50%,0.6)"
    stroke-width="1"
    transform="translate(-9.9079053449,-165.5109878903) scale(1,-1) translate(50,-110)"
    />
  
  <line
    x1="12"
    y1="174"
    x2="43.582191780821915"
    y2="194.21917808219177"
    stroke="hsla(0,50%,50%,0.6)"
    stroke-width="1"
    transform="translate(-9.9079053449,-165.5109878903) scale(1,-1) translate(50,-110)"
    />
  
  <line
    x1="47.77080557304859"
    y1="190.1271872668417"
    x2="24.970599591904712"
    y2="212.41118811146546"
    stroke="hsla(0,50%,50%,0.6)"
    stroke-width="1"
    transform="translate(-9.9079053449,-165.5109878903) scale(1,-1) translate(50,-110)"
    />
  
  <line
    x1="12"
    y1="174"
    x2="46.34318181818182"
    y2="189.9065340909091"
    stroke="hsla(0,50%,50%,0.6)"
    stroke-width="1"
    transform="translate(-9.9079053449,-165.5109878903) scale(1,-1) translate(50,-110)"
    />
  
  <line
    x1="32.69323179908628"
    y1="143.1067054540101"
    x2="5.424059491848788"
    y2="151.45391825776727"
    stroke="hsla(0,50%,50%,0.6)"
    stroke-width="1"
    transform="translate(-9.9079053449,-165.5109878903) scale(1,-1) translate(50,-110)"
    />
  
  <line
    x1="12.329268292682928"
    y1="169.61661585365854"
    x2="18.75"
    y2="172.03125"
    stroke="hsla(0,50%,50%,0.6)"
    stroke-width="1"
    transform="translate(-9.9079053449,-165.5109878903) scale(1,-1) translate(50,-110)"
    />
  
  <line
    x1="38.78275240384615"
    y1="163.9850618131868"
    x2="12"
    y2="174"
    stroke="hsla(0,50%,50%,0.6)"
    stroke-width="1"
    transform="translate(-9.9079053449,-165.5109878903) scale(1,-1) translate(50,-110)"
    />
  
  <line
    x1="39.375"
    y1="166.015625"
    x2="12"
    y2="174"
    stroke="hsla(0,50%,50%,0.6)"
    stroke-width="1"
    transform="translate(-9.9079053449,-165.5109878903) scale(1,-1) translate(50,-110)"
    />
  
  <line
    x1="38.78275240384615"
    y1="163.9850618131868"
    x2="12.329268292682928"
    y2="169.61661585365854"
    stroke="hsla(0,50%,50%,0.6)"
    stroke-width="1"
    transform="translate(-9.9079053449,-165.5109878903) scale(1,-1) translate(50,-110)"
    />
  
  <line
    x1="46.34318181818182"
    y1="189.9065340909091"
    x2="47.77080557304859"
    y2="190.1271872668417"
    stroke="hsla(0,50%,50%,0.6)"
    stroke-width="1"
    transform="translate(-9.9079053449,-165.5109878903) scale(1,-1) translate(50,-110)"
    />
  
  <line
    x1="13.158091945589511"
    y1="208.32283109357368"
    x2="24.970599591904712"
    y2="212.41118811146546"
    stroke="hsla(0,50%,50%,0.6)"
    stroke-width="1"
    transform="translate(-9.9079053449,-165.5109878903) scale(1,-1) translate(50,-110)"
    />
  
</svg>
