<?xml version="1.0"?>
<!DOCTYPE svg PUBLIC "-//W3C//DTD SVG 1.1//EN"
  "http://www.w3.org/Graphics/SVG/1.1/DTD/svg11.dtd">
<svg
  width="240"
  height="240"
  viewBox="-50 -50 200 200" xmlns="http://www.w3.org/2000/svg" version="1.1">
  <rect
    x="0"
    y="0"
    width="100"
    height="100"
    fill="hsla(206,100%,53%,0.3)"
    stroke="hsl(206,100%,53%)"
    stroke-width="3"
    transform="" />
  
  <path
    d="M 
      57.1428571428
      42.8571428571
      L
    
      71.4285714285
      42.8571428571
      L
    
      92.8571428571
      57.1428571428
      L
    
      114.2857142857
      57.1428571428
      L
    
      114.2857142857
      71.4285714285
      L
    
      100
      92.8571428571
      L
    
      100
      114.2857142857
      L
    
      85.7142857142
      114.2857142857
      L
    
      64.2857142857
      100
      L
    
      42.8571428571
      100
      L
    
      42.8571428571
      85.7142857142
      L
    
      57.1428571428
      64.2857142857
      z
    "
    fill="hsla(0,0%,50%,0.3)"
    stroke="hsla(0,0%,50%,1)"
    stroke-width="1"
    transform="translate(-54.5061383928,-78.8922991071) scale(1,-1) translate(50,-110)"
    />
  
  
  <line
    x1="71.42857142857143"
    y1="42.857142857142854"
    x2="114.28571428571429"
    y2="71.42857142857143"
    stroke="hsla(0,50%,50%,0.6)"
    stroke-width="1"
    transform="translate(-54.5061383928,-78.8922991071) scale(1,-1) translate(50,-110)"
    />
  
  <line
    x1="42.857142857142854"
    y1="85.71428571428571"
    x2="42.857142857142854"
    y2="100"
    stroke="hsla(0,50%,50%,0.6)"
    stroke-width="1"
    transform="translate(-54.5061383928,-78.8922991071) scale(1,-1) translate(50,-110)"
    />
  
  <line
    x1="57.142857142857146"
    y1="42.857142857142854"
    x2="57.142857142857146"
    y2="100"
    stroke="hsla(0,50%,50%,0.6)"
    stroke-width="1"
    transform="translate(-54.5061383928,-78.8922991071) scale(1,-1) translate(50,-110)"
    />
  
  <line
    x1="71.42857142857143"
    y1="42.857142857142854"
    x2="71.42857142857143"
    y2="100"
    stroke="hsla(0,50%,50%,0.6)"
    stroke-width="1"
    transform="translate(-54.5061383928,-78.8922991071) scale(1,-1) translate(50,-110)"
    />
  
  <line
    x1="85.71428571428571"
    y1="57.142857142857146"
    x2="85.71428571428571"
    y2="114.28571428571429"
    stroke="hsla(0,50%,50%,0.6)"
    stroke-width="1"
    transform="translate(-54.5061383928,-78.8922991071) scale(1,-1) translate(50,-110)"
    />
  
  <line
    x1="100"
    y1="57.142857142857146"
    x2="100"
    y2="114.28571428571429"
    stroke="hsla(0,50%,50%,0.6)"
    stroke-width="1"
    transform="translate(-54.5061383928,-78.8922991071) scale(1,-1) translate(50,-110)"
    />
  
  <line
    x1="114.28571428571429"
    y1="57.142857142857146"
    x2="114.28571428571429"
    y2="71.42857142857143"
    stroke="hsla(0,50%,50%,0.6)"
    stroke-width="1"
    transform="translate(-54.5061383928,-78.8922991071) scale(1,-1) translate(50,-110)"
    />
  
  <line
    x1="42.857142857142854"
    y1="85.71428571428571"
    x2="85.71428571428571"
    y2="114.28571428571429"
    stroke="hsla(0,50%,50%,0.6)"
    stroke-width="1"
    transform="translate(-54.5061383928,-78.8922991071) scale(1,-1) translate(50,-110)"
    />
  
  <line
    x1="57.142857142857146"
    y1="42.857142857142854"
    x2="71.42857142857143"
    y2="42.857142857142854"
    stroke="hsla(0,50%,50%,0.6)"
    stroke-width="1"
    transform="translate(-54.5061383928,-78.8922991071) scale(1,-1) translate(50,-110)"
    />
  
  <line
    x1="71.42857142857143"
    y1="42.857142857142854"
    x2="42.857142857142854"
    y2="85.71428571428571"
    stroke="hsla(0,50%,50%,0.6)"
    stroke-width="1"
    transform="translate(-54.5061383928,-78.8922991071) scale(1,-1) translate(50,-110)"
    />
  
  <line
    x1="57.142857142857146"
    y1="57.142857142857146"
    x2="114.28571428571429"
    y2="57.142857142857146"
    stroke="hsla(0,50%,50%,0.6)"
    stroke-width="1"
    transform="translate(-54.5061383928,-78.8922991071) scale(1,-1) translate(50,-110)"
    />
  
  <line
    x1="57.142857142857146"
    y1="71.42857142857143"
    x2="114.28571428571429"
    y2="71.42857142857143"
    stroke="hsla(0,50%,50%,0.6)"
    stroke-width="1"
    transform="translate(-54.5061383928,-78.8922991071) scale(1,-1) translate(50,-110)"
    />
  
  <line
    x1="114.28571428571429"
    y1="71.42857142857143"
    x2="85.71428571428571"
    y2="114.28571428571429"
    stroke="hsla(0,50%,50%,0.6)"
    stroke-width="1"
    transform="translate(-54.5061383928,-78.8922991071) scale(1,-1) translate(50,-110)"
    />
  
  <line
    x1="42.857142857142854"
    y1="85.71428571428571"
    x2="100"
    y2="85.71428571428571"
    stroke="hsla(0,50%,50%,0.6)"
    stroke-width="1"
    transform="translate(-54.5061383928,-78.8922991071) scale(1,-1) translate(50,-110)"
    />
  
  <line
    x1="42.857142857142854"
    y1="100"
    x2="100"
    y2="100"
    stroke="hsla(0,50%,50%,0.6)"
    stroke-width="1"
    transform="translate(-54.5061383928,-78.8922991071) scale(1,-1) translate(50,-110)"
    />
  
  <line
    x1="85.71428571428571"
    y1="114.28571428571429"
    x2="100"
    y2="114.28571428571429"
    stroke="hsla(0,50%,50%,0.6)"
    stroke-width="1"
    transform="translate(-54.5061383928,-78.8922991071) scale(1,-1) translate(50,-110)"
    />
  
</svg>
