<?xml version="1.0"?>
<!DOCTYPE svg PUBLIC "-//W3C//DTD SVG 1.1//EN"
  "http://www.w3.org/Graphics/SVG/1.1/DTD/svg11.dtd">
<svg
  width="240"
  height="240"
  viewBox="-500 -500 1000 1000" xmlns="http://www.w3.org/2000/svg" version="1.1">
  <rect
    x="0"
    y="0"
    width="100"
    height="100"
    fill="hsla(206,100%,53%,0.3)"
    stroke="hsl(206,100%,53%)"
    stroke-width="3"
    transform="" />
  
  <path
    d="M 
      -54163966320.9187826266
      146135364987.0644070864
      L
    
      -54163966297.9302768795
      146135365011.2023381209
      L
    
      -54163966299.0797021669
      146135365058.3287749025
      L
    
      -54163966323.2176332013
      146135365081.3172806497
      L
    
      -54163966346.2061389485
      146135365057.1793496152
      L
    
      -54163966322.0682079140
      146135365034.1908438680
      L
    
      -54163966345.0567136611
      146135365010.0529128336
      z
    "
    fill="hsla(0,0%,50%,0.3)"
    stroke="hsla(0,0%,50%,1)"
    stroke-width="1"
    transform="translate(54163966322.0682079140,-146135365034.1908438680)"
    />
  
  
  <line
    x1="-54163966297.930275"
    y1="146135365011.20233"
    x2="-54163966299.079704"
    y2="146135365058.32877"
    stroke="hsla(0,50%,50%,0.6)"
    stroke-width="1"
    transform="translate(54163966322.0682079140,-146135365034.1908438680)"
    />
  
  <line
    x1="-54163966320.918785"
    y1="146135364987.0644"
    x2="-54163966345.05672"
    y2="146135365010.0529"
    stroke="hsla(0,50%,50%,0.6)"
    stroke-width="1"
    transform="translate(54163966322.0682079140,-146135365034.1908438680)"
    />
  
  <line
    x1="-54163966297.930275"
    y1="146135365011.20233"
    x2="-54163966346.20613"
    y2="146135365057.17935"
    stroke="hsla(0,50%,50%,0.6)"
    stroke-width="1"
    transform="translate(54163966322.0682079140,-146135365034.1908438680)"
    />
  
  <line
    x1="-54163966299.079704"
    y1="146135365058.32877"
    x2="-54163966323.21763"
    y2="146135365081.31726"
    stroke="hsla(0,50%,50%,0.6)"
    stroke-width="1"
    transform="translate(54163966322.0682079140,-146135365034.1908438680)"
    />
  
  <line
    x1="-54163966320.918785"
    y1="146135364987.0644"
    x2="-54163966297.930275"
    y2="146135365011.20233"
    stroke="hsla(0,50%,50%,0.6)"
    stroke-width="1"
    transform="translate(54163966322.0682079140,-146135365034.1908438680)"
    />
  
  <line
    x1="-54163966345.05672"
    y1="146135365010.0529"
    x2="-54163966299.079704"
    y2="146135365058.32877"
    stroke="hsla(0,50%,50%,0.6)"
    stroke-width="1"
    transform="translate(54163966322.0682079140,-146135365034.1908438680)"
    />
  
  <line
    x1="-54163966346.20613"
    y1="146135365057.17935"
    x2="-54163966323.21763"
    y2="146135365081.31726"
    stroke="hsla(0,50%,50%,0.6)"
    stroke-width="1"
    transform="translate(54163966322.0682079140,-146135365034.1908438680)"
    />
  
</svg>
