<?xml version="1.0"?>
<!DOCTYPE svg PUBLIC "-//W3C//DTD SVG 1.1//EN"
  "http://www.w3.org/Graphics/SVG/1.1/DTD/svg11.dtd">
<svg
  width="240"
  height="240"
  viewBox="-500 -500 1000 1000" xmlns="http://www.w3.org/2000/svg" version="1.1">
  <rect
    x="0"
    y="0"
    width="100"
    height="100"
    fill="hsla(206,100%,53%,0.3)"
    stroke="hsl(206,100%,53%)"
    stroke-width="3"
    transform="" />
  
  <path
    d="M 
      152749341900.5606551955
      -65905312937.6529867454
      L
    
      152749341915.5606551955
      -65905312917.6529867454
      L
    
      152749341940.5606551955
      -65905312917.6529867454
      L
    
      152749341940.5606551955
      -65905312884.3196534120
      L
    
      152749341960.5606551955
      -65905312857.6529867454
      L
    
      152749341940.5606551955
      -65905312842.6529867454
      L
    
      152749341840.5606551955
      -65905312892.6529867454
      L
    
      152749341840.5606551955
      -65905312917.6529867454
      L
    
      152749341873.8939885288
      -65905312917.6529867454
      z
    "
    fill="hsla(0,0%,50%,0.3)"
    stroke="hsla(0,0%,50%,1)"
    stroke-width="1"
    transform="translate(-152749341900.5606551955,65905312890.1529867454)"
    />
  
  
  <line
    x1="152749341840.56064"
    y1="-65905312892.652985"
    x2="152749341940.56064"
    y2="-65905312842.65299"
    stroke="hsla(0,50%,50%,0.6)"
    stroke-width="1"
    transform="translate(-152749341900.5606551955,65905312890.1529867454)"
    />
  
  <line
    x1="152749341900.56064"
    y1="-65905312937.652985"
    x2="152749341960.56064"
    y2="-65905312857.652985"
    stroke="hsla(0,50%,50%,0.6)"
    stroke-width="1"
    transform="translate(-152749341900.5606551955,65905312890.1529867454)"
    />
  
  <line
    x1="152749341840.56064"
    y1="-65905312917.652985"
    x2="152749341940.56064"
    y2="-65905312917.652985"
    stroke="hsla(0,50%,50%,0.6)"
    stroke-width="1"
    transform="translate(-152749341900.5606551955,65905312890.1529867454)"
    />
  
  <line
    x1="152749341840.56064"
    y1="-65905312917.652985"
    x2="152749341840.56064"
    y2="-65905312892.652985"
    stroke="hsla(0,50%,50%,0.6)"
    stroke-width="1"
    transform="translate(-152749341900.5606551955,65905312890.1529867454)"
    />
  
  <line
    x1="152749341940.56064"
    y1="-65905312917.652985"
    x2="152749341940.56064"
    y2="-65905312842.65299"
    stroke="hsla(0,50%,50%,0.6)"
    stroke-width="1"
    transform="translate(-152749341900.5606551955,65905312890.1529867454)"
    />
  
  <line
    x1="152749341900.56064"
    y1="-65905312937.652985"
    x2="152749341840.56064"
    y2="-65905312892.652985"
    stroke="hsla(0,50%,50%,0.6)"
    stroke-width="1"
    transform="translate(-152749341900.5606551955,65905312890.1529867454)"
    />
  
  <line
    x1="152749341960.56064"
    y1="-65905312857.652985"
    x2="152749341940.56064"
    y2="-65905312842.65299"
    stroke="hsla(0,50%,50%,0.6)"
    stroke-width="1"
    transform="translate(-152749341900.5606551955,65905312890.1529867454)"
    />
  
</svg>
