<?xml version="1.0"?>
<!DOCTYPE svg PUBLIC "-//W3C//DTD SVG 1.1//EN"
  "http://www.w3.org/Graphics/SVG/1.1/DTD/svg11.dtd">
<svg
  width="240"
  height="240"
  viewBox="-50 -50 200 200" xmlns="http://www.w3.org/2000/svg" version="1.1">
  <rect
    x="0"
    y="0"
    width="100"
    height="100"
    fill="hsla(206,100%,53%,0.3)"
    stroke="hsl(206,100%,53%)"
    stroke-width="3"
    transform="" />
  
  <path
    d="M 
      138528295957.6165836544
      177423289866.8777426803
      L
    
      138528295967.7659685401
      177423289889.7248428560
      L
    
      138528295944.9188683644
      177423289899.8742277418
      L
    
      138528295934.7694834786
      177423289877.0271275660
      z
    "
    fill="hsla(0,0%,50%,0.3)"
    stroke="hsla(0,0%,50%,1)"
    stroke-width="1"
    transform="translate(-138528295944.2872778547,-177423289883.0574439105) scale(1,-1) translate(50,-110)"
    />
  
  
  <line
    x1="138528295957.6166"
    y1="177423289866.87772"
    x2="138528295967.766"
    y2="177423289889.72482"
    stroke="hsla(0,50%,50%,0.6)"
    stroke-width="1"
    transform="translate(-138528295944.2872778547,-177423289883.0574439105) scale(1,-1) translate(50,-110)"
    />
  
  <line
    x1="138528295934.7695"
    y1="177423289877.02713"
    x2="138528295944.91888"
    y2="177423289899.8742"
    stroke="hsla(0,50%,50%,0.6)"
    stroke-width="1"
    transform="translate(-138528295944.2872778547,-177423289883.0574439105) scale(1,-1) translate(50,-110)"
    />
  
  <line
    x1="138528295957.6166"
    y1="177423289866.87772"
    x2="138528295934.7695"
    y2="177423289877.02713"
    stroke="hsla(0,50%,50%,0.6)"
    stroke-width="1"
    transform="translate(-138528295944.2872778547,-177423289883.0574439105) scale(1,-1) translate(50,-110)"
    />
  
  <line
    x1="138528295967.766"
    y1="177423289889.72482"
    x2="138528295944.91888"
    y2="177423289899.8742"
    stroke="hsla(0,50%,50%,0.6)"
    stroke-width="1"
    transform="translate(-138528295944.2872778547,-177423289883.0574439105) scale(1,-1) translate(50,-110)"
    />
  
</svg>
