<?xml version="1.0"?>
<!DOCTYPE svg PUBLIC "-//W3C//DTD SVG 1.1//EN"
  "http://www.w3.org/Graphics/SVG/1.1/DTD/svg11.dtd">
<svg
  width="240"
  height="240"
  viewBox="-50 -50 200 200" xmlns="http://www.w3.org/2000/svg" version="1.1">
  <rect
    x="0"
    y="0"
    width="100"
    height="100"
    fill="hsla(206,100%,53%,0.3)"
    stroke="hsl(206,100%,53%)"
    stroke-width="3"
    transform="" />
  
  <path
    d="M 
      73.1066176470
      47.4264705882
      L
    
      84.6875
      69.140625
      L
    
      92.5
      75
      L
    
      92.5
      83.7890625
      L
    
      57.34375
      92.578125
      L
    
      47.96875
      81.640625
      L
    
      55.5514705882
      70.9558823529
      L
    
      61.25
      75
      L
    
      66.6071428571
      50.8928571428
      z
    "
    fill="hsla(0,0%,50%,0.3)"
    stroke="hsla(0,0%,50%,1)"
    stroke-width="1"
    transform="translate(-63.1343963366,-63.4120011530) scale(1,-1) translate(50,-110)"
    />
  
  
  <line
    x1="73.10661764705883"
    y1="47.4264705882353"
    x2="92.5"
    y2="83.7890625"
    stroke="hsla(0,50%,50%,0.6)"
    stroke-width="1"
    transform="translate(-63.1343963366,-63.4120011530) scale(1,-1) translate(50,-110)"
    />
  
  <line
    x1="73.84191176470588"
    y1="75.36764705882354"
    x2="80"
    y2="86.9140625"
    stroke="hsla(0,50%,50%,0.6)"
    stroke-width="1"
    transform="translate(-63.1343963366,-63.4120011530) scale(1,-1) translate(50,-110)"
    />
  
  <line
    x1="66.60714285714286"
    y1="50.892857142857146"
    x2="84.6875"
    y2="75"
    stroke="hsla(0,50%,50%,0.6)"
    stroke-width="1"
    transform="translate(-63.1343963366,-63.4120011530) scale(1,-1) translate(50,-110)"
    />
  
  <line
    x1="80"
    y1="65.625"
    x2="80"
    y2="86.9140625"
    stroke="hsla(0,50%,50%,0.6)"
    stroke-width="1"
    transform="translate(-63.1343963366,-63.4120011530) scale(1,-1) translate(50,-110)"
    />
  
  <line
    x1="92.5"
    y1="75"
    x2="92.5"
    y2="83.7890625"
    stroke="hsla(0,50%,50%,0.6)"
    stroke-width="1"
    transform="translate(-63.1343963366,-63.4120011530) scale(1,-1) translate(50,-110)"
    />
  
  <line
    x1="59.464285714285715"
    y1="83.03571428571429"
    x2="65.15625"
    y2="90.625"
    stroke="hsla(0,50%,50%,0.6)"
    stroke-width="1"
    transform="translate(-63.1343963366,-63.4120011530) scale(1,-1) translate(50,-110)"
    />
  
  <line
    x1="80"
    y1="65.625"
    x2="92.5"
    y2="75"
    stroke="hsla(0,50%,50%,0.6)"
    stroke-width="1"
    transform="translate(-63.1343963366,-63.4120011530) scale(1,-1) translate(50,-110)"
    />
  
  <line
    x1="47.96875"
    y1="81.640625"
    x2="57.34375"
    y2="92.578125"
    stroke="hsla(0,50%,50%,0.6)"
    stroke-width="1"
    transform="translate(-63.1343963366,-63.4120011530) scale(1,-1) translate(50,-110)"
    />
  
  <line
    x1="66.94852941176471"
    y1="79.04411764705883"
    x2="65.15625"
    y2="90.625"
    stroke="hsla(0,50%,50%,0.6)"
    stroke-width="1"
    transform="translate(-63.1343963366,-63.4120011530) scale(1,-1) translate(50,-110)"
    />
  
  <line
    x1="66.60714285714286"
    y1="50.892857142857146"
    x2="57.34375"
    y2="92.578125"
    stroke="hsla(0,50%,50%,0.6)"
    stroke-width="1"
    transform="translate(-63.1343963366,-63.4120011530) scale(1,-1) translate(50,-110)"
    />
  
  <line
    x1="55.5514705882353"
    y1="70.95588235294117"
    x2="78.54910714285714"
    y2="87.27678571428571"
    stroke="hsla(0,50%,50%,0.6)"
    stroke-width="1"
    transform="translate(-63.1343963366,-63.4120011530) scale(1,-1) translate(50,-110)"
    />
  
  <line
    x1="61.25"
    y1="75"
    x2="84.38701923076923"
    y2="85.8173076923077"
    stroke="hsla(0,50%,50%,0.6)"
    stroke-width="1"
    transform="translate(-63.1343963366,-63.4120011530) scale(1,-1) translate(50,-110)"
    />
  
  <line
    x1="84.6875"
    y1="75"
    x2="78.54910714285714"
    y2="87.27678571428571"
    stroke="hsla(0,50%,50%,0.6)"
    stroke-width="1"
    transform="translate(-63.1343963366,-63.4120011530) scale(1,-1) translate(50,-110)"
    />
  
  <line
    x1="55.5514705882353"
    y1="70.95588235294117"
    x2="47.96875"
    y2="81.640625"
    stroke="hsla(0,50%,50%,0.6)"
    stroke-width="1"
    transform="translate(-63.1343963366,-63.4120011530) scale(1,-1) translate(50,-110)"
    />
  
  <line
    x1="61.25"
    y1="75"
    x2="52.395833333333336"
    y2="86.80555555555556"
    stroke="hsla(0,50%,50%,0.6)"
    stroke-width="1"
    transform="translate(-63.1343963366,-63.4120011530) scale(1,-1) translate(50,-110)"
    />
  
  <line
    x1="73.10661764705883"
    y1="47.4264705882353"
    x2="66.60714285714286"
    y2="50.892857142857146"
    stroke="hsla(0,50%,50%,0.6)"
    stroke-width="1"
    transform="translate(-63.1343963366,-63.4120011530) scale(1,-1) translate(50,-110)"
    />
  
  <line
    x1="92.5"
    y1="75"
    x2="84.38701923076923"
    y2="85.8173076923077"
    stroke="hsla(0,50%,50%,0.6)"
    stroke-width="1"
    transform="translate(-63.1343963366,-63.4120011530) scale(1,-1) translate(50,-110)"
    />
  
  <line
    x1="61.25"
    y1="75"
    x2="92.5"
    y2="75"
    stroke="hsla(0,50%,50%,0.6)"
    stroke-width="1"
    transform="translate(-63.1343963366,-63.4120011530) scale(1,-1) translate(50,-110)"
    />
  
  <line
    x1="80"
    y1="65.625"
    x2="47.96875"
    y2="81.640625"
    stroke="hsla(0,50%,50%,0.6)"
    stroke-width="1"
    transform="translate(-63.1343963366,-63.4120011530) scale(1,-1) translate(50,-110)"
    />
  
  <line
    x1="73.84191176470588"
    y1="75.36764705882354"
    x2="52.395833333333336"
    y2="86.80555555555556"
    stroke="hsla(0,50%,50%,0.6)"
    stroke-width="1"
    transform="translate(-63.1343963366,-63.4120011530) scale(1,-1) translate(50,-110)"
    />
  
  <line
    x1="92.5"
    y1="83.7890625"
    x2="57.34375"
    y2="92.578125"
    stroke="hsla(0,50%,50%,0.6)"
    stroke-width="1"
    transform="translate(-63.1343963366,-63.4120011530) scale(1,-1) translate(50,-110)"
    />
  
</svg>
