<?xml version="1.0"?>
<!DOCTYPE svg PUBLIC "-//W3C//DTD SVG 1.1//EN"
  "http://www.w3.org/Graphics/SVG/1.1/DTD/svg11.dtd">
<svg
  width="240"
  height="240"
  viewBox="-50 -50 200 200" xmlns="http://www.w3.org/2000/svg" version="1.1">
  <rect
    x="0"
    y="0"
    width="100"
    height="100"
    fill="hsla(206,100%,53%,0.3)"
    stroke="hsl(206,100%,53%)"
    stroke-width="3"
    transform="" />
  
  <path
    d="M 
      -22.6983426215
      148.7921099846
      L
    
      -12.4133175663
      160.5834632400
      L
    
      -18.9002363849
      185.7309667631
      L
    
      -37.0846335330
      184.8410441157
      L
    
      -39.3699923504
      190.5676591258
      L
    
      -80.9166822732
      218.3862240863
      L
    
      -105.6235394677
      181.4868320334
      L
    
      -120.8862213951
      180.7398946344
      L
    
      -123.1970223478
      165.9172496050
      z
    "
    fill="hsla(0,0%,50%,0.3)"
    stroke="hsla(0,0%,50%,1)"
    stroke-width="1"
    transform="translate(112.1748742775,-175.9814936434) scale(1,-1) translate(50,-110)"
    />
  
  
  <line
    x1="-116.78060991495249"
    y1="164.82388241778312"
    x2="-120.88622139519349"
    y2="180.73989463442084"
    stroke="hsla(0,50%,50%,0.6)"
    stroke-width="1"
    transform="translate(112.1748742775,-175.9814936434) scale(1,-1) translate(50,-110)"
    />
  
  <line
    x1="-12.413317566387345"
    y1="160.58346324006905"
    x2="-18.900236384903398"
    y2="185.73096676316865"
    stroke="hsla(0,50%,50%,0.6)"
    stroke-width="1"
    transform="translate(112.1748742775,-175.9814936434) scale(1,-1) translate(50,-110)"
    />
  
  <line
    x1="-24.608146987339158"
    y1="149.11754377645227"
    x2="-18.900236384903398"
    y2="185.73096676316865"
    stroke="hsla(0,50%,50%,0.6)"
    stroke-width="1"
    transform="translate(112.1748742775,-175.9814936434) scale(1,-1) translate(50,-110)"
    />
  
  <line
    x1="-47.80868569002998"
    y1="153.07095356883178"
    x2="-46.467832017436464"
    y2="164.55841601776586"
    stroke="hsla(0,50%,50%,0.6)"
    stroke-width="1"
    transform="translate(112.1748742775,-175.9814936434) scale(1,-1) translate(50,-110)"
    />
  
  <line
    x1="-24.608146987339158"
    y1="149.11754377645227"
    x2="-24.11923939808859"
    y2="151.76062145993083"
    stroke="hsla(0,50%,50%,0.6)"
    stroke-width="1"
    transform="translate(112.1748742775,-175.9814936434) scale(1,-1) translate(50,-110)"
    />
  
  <line
    x1="-22.698342621587923"
    y1="148.7921099846837"
    x2="-39.36999235045365"
    y2="190.5676591258641"
    stroke="hsla(0,50%,50%,0.6)"
    stroke-width="1"
    transform="translate(112.1748742775,-175.9814936434) scale(1,-1) translate(50,-110)"
    />
  
  <line
    x1="-47.80868569002998"
    y1="153.07095356883178"
    x2="-39.36999235045365"
    y2="190.5676591258641"
    stroke="hsla(0,50%,50%,0.6)"
    stroke-width="1"
    transform="translate(112.1748742775,-175.9814936434) scale(1,-1) translate(50,-110)"
    />
  
  <line
    x1="-123.19702234789351"
    y1="165.91724960504555"
    x2="-120.88622139519349"
    y2="180.73989463442084"
    stroke="hsla(0,50%,50%,0.6)"
    stroke-width="1"
    transform="translate(112.1748742775,-175.9814936434) scale(1,-1) translate(50,-110)"
    />
  
  <line
    x1="-123.19702234789351"
    y1="165.91724960504555"
    x2="-122.45110977602785"
    y2="169.9497189629998"
    stroke="hsla(0,50%,50%,0.6)"
    stroke-width="1"
    transform="translate(112.1748742775,-175.9814936434) scale(1,-1) translate(50,-110)"
    />
  
  <line
    x1="-22.698342621587923"
    y1="148.7921099846837"
    x2="-12.413317566387345"
    y2="160.58346324006905"
    stroke="hsla(0,50%,50%,0.6)"
    stroke-width="1"
    transform="translate(112.1748742775,-175.9814936434) scale(1,-1) translate(50,-110)"
    />
  
  <line
    x1="-116.78060991495249"
    y1="164.82388241778312"
    x2="-80.91668227322215"
    y2="218.38622408635993"
    stroke="hsla(0,50%,50%,0.6)"
    stroke-width="1"
    transform="translate(112.1748742775,-175.9814936434) scale(1,-1) translate(50,-110)"
    />
  
  <line
    x1="-39.36999235045365"
    y1="190.5676591258641"
    x2="-80.91668227322215"
    y2="218.38622408635993"
    stroke="hsla(0,50%,50%,0.6)"
    stroke-width="1"
    transform="translate(112.1748742775,-175.9814936434) scale(1,-1) translate(50,-110)"
    />
  
  <line
    x1="-22.698342621587923"
    y1="148.7921099846837"
    x2="-123.19702234789351"
    y2="165.91724960504555"
    stroke="hsla(0,50%,50%,0.6)"
    stroke-width="1"
    transform="translate(112.1748742775,-175.9814936434) scale(1,-1) translate(50,-110)"
    />
  
  <line
    x1="-24.11923939808859"
    y1="151.76062145993083"
    x2="-122.45110977602785"
    y2="169.9497189629998"
    stroke="hsla(0,50%,50%,0.6)"
    stroke-width="1"
    transform="translate(112.1748742775,-175.9814936434) scale(1,-1) translate(50,-110)"
    />
  
  <line
    x1="-12.413317566387345"
    y1="160.58346324006905"
    x2="-46.467832017436464"
    y2="164.55841601776586"
    stroke="hsla(0,50%,50%,0.6)"
    stroke-width="1"
    transform="translate(112.1748742775,-175.9814936434) scale(1,-1) translate(50,-110)"
    />
  
  <line
    x1="-120.88622139519349"
    y1="180.73989463442084"
    x2="-18.900236384903398"
    y2="185.73096676316865"
    stroke="hsla(0,50%,50%,0.6)"
    stroke-width="1"
    transform="translate(112.1748742775,-175.9814936434) scale(1,-1) translate(50,-110)"
    />
  
</svg>
