<?xml version="1.0"?>
<!DOCTYPE svg PUBLIC "-//W3C//DTD SVG 1.1//EN"
  "http://www.w3.org/Graphics/SVG/1.1/DTD/svg11.dtd">
<svg
  width="240"
  height="240"
  viewBox="-50 -50 200 200" xmlns="http://www.w3.org/2000/svg" version="1.1">
  <rect
    x="0"
    y="0"
    width="100"
    height="100"
    fill="hsla(206,100%,53%,0.3)"
    stroke="hsl(206,100%,53%)"
    stroke-width="3"
    transform="" />
  
  <path
    d="M 
      0
      0
      L
    
      90
      0
      L
    
      90
      4.3478260869
      L
    
      95.6521739130
      4.3478260869
      L
    
      95.6521739130
      94.3478260869
      L
    
      90
      94.3478260869
      L
    
      0
      4.3478260869
      z
    "
    fill="hsla(0,0%,50%,0.3)"
    stroke="hsla(0,0%,50%,1)"
    stroke-width="1"
    transform="translate(-44.6535326086,-37.9619565217) scale(1,-1) translate(50,-110)"
    />
  
  
  <line
    x1="0"
    y1="0"
    x2="90"
    y2="0"
    stroke="hsla(0,50%,50%,0.6)"
    stroke-width="1"
    transform="translate(-44.6535326086,-37.9619565217) scale(1,-1) translate(50,-110)"
    />
  
  <line
    x1="0"
    y1="0"
    x2="0"
    y2="4.3478260869565215"
    stroke="hsla(0,50%,50%,0.6)"
    stroke-width="1"
    transform="translate(-44.6535326086,-37.9619565217) scale(1,-1) translate(50,-110)"
    />
  
  <line
    x1="80"
    y1="0"
    x2="80"
    y2="84.34782608695652"
    stroke="hsla(0,50%,50%,0.6)"
    stroke-width="1"
    transform="translate(-44.6535326086,-37.9619565217) scale(1,-1) translate(50,-110)"
    />
  
  <line
    x1="90"
    y1="0"
    x2="90"
    y2="94.34782608695652"
    stroke="hsla(0,50%,50%,0.6)"
    stroke-width="1"
    transform="translate(-44.6535326086,-37.9619565217) scale(1,-1) translate(50,-110)"
    />
  
  <line
    x1="95.65217391304348"
    y1="4.3478260869565215"
    x2="95.65217391304348"
    y2="94.34782608695652"
    stroke="hsla(0,50%,50%,0.6)"
    stroke-width="1"
    transform="translate(-44.6535326086,-37.9619565217) scale(1,-1) translate(50,-110)"
    />
  
  <line
    x1="0"
    y1="4.3478260869565215"
    x2="90"
    y2="94.34782608695652"
    stroke="hsla(0,50%,50%,0.6)"
    stroke-width="1"
    transform="translate(-44.6535326086,-37.9619565217) scale(1,-1) translate(50,-110)"
    />
  
  <line
    x1="0"
    y1="4.3478260869565215"
    x2="95.65217391304348"
    y2="4.3478260869565215"
    stroke="hsla(0,50%,50%,0.6)"
    stroke-width="1"
    transform="translate(-44.6535326086,-37.9619565217) scale(1,-1) translate(50,-110)"
    />
  
  <line
    x1="80"
    y1="84.34782608695652"
    x2="95.65217391304348"
    y2="84.34782608695652"
    stroke="hsla(0,50%,50%,0.6)"
    stroke-width="1"
    transform="translate(-44.6535326086,-37.9619565217) scale(1,-1) translate(50,-110)"
    />
  
  <line
    x1="90"
    y1="94.34782608695652"
    x2="95.65217391304348"
    y2="94.34782608695652"
    stroke="hsla(0,50%,50%,0.6)"
    stroke-width="1"
    transform="translate(-44.6535326086,-37.9619565217) scale(1,-1) translate(50,-110)"
    />
  
</svg>
