<?xml version="1.0"?>
<!DOCTYPE svg PUBLIC "-//W3C//DTD SVG 1.1//EN"
  "http://www.w3.org/Graphics/SVG/1.1/DTD/svg11.dtd">
<svg
  width="240"
  height="240"
  viewBox="-50 -50 200 200" xmlns="http://www.w3.org/2000/svg" version="1.1">
  <rect
    x="0"
    y="0"
    width="100"
    height="100"
    fill="hsla(206,100%,53%,0.3)"
    stroke="hsl(206,100%,53%)"
    stroke-width="3"
    transform="" />
  
  <path
    d="M 
      -56.9349261972
      -14.0770838000
      L
    
      -45.1552830300
      -8.8710253191
      L
    
      -25.3343221494
      45.9119082257
      L
    
      -34.7029363269
      53.1564156867
      L
    
      -40.9252438069
      46.4746938918
      L
    
      -73.1770833333
      47.6388888888
      L
    
      -85.3846153846
      26.9230769230
      L
    
      -63.8461538461
      14.2307692307
      L
    
      -65.3564949201
      4.9782293178
      z
    "
    fill="hsla(0,0%,50%,0.3)"
    stroke="hsla(0,0%,50%,1)"
    stroke-width="1"
    transform="translate(66.3042920736,-14.9415710485) scale(1,-1) translate(50,-110)"
    />
  
  
  <line
    x1="-56.934926197225174"
    y1="-14.077083800079874"
    x2="-65.35649492017417"
    y2="4.97822931785196"
    stroke="hsla(0,50%,50%,0.6)"
    stroke-width="1"
    transform="translate(66.3042920736,-14.9415710485) scale(1,-1) translate(50,-110)"
    />
  
  <line
    x1="-45.15528303004766"
    y1="-8.87102531915952"
    x2="-73.17708333333333"
    y2="47.638888888888886"
    stroke="hsla(0,50%,50%,0.6)"
    stroke-width="1"
    transform="translate(66.3042920736,-14.9415710485) scale(1,-1) translate(50,-110)"
    />
  
  <line
    x1="-41.55048076923077"
    y1="1.0922475961538463"
    x2="-85.38461538461539"
    y2="26.923076923076923"
    stroke="hsla(0,50%,50%,0.6)"
    stroke-width="1"
    transform="translate(66.3042920736,-14.9415710485) scale(1,-1) translate(50,-110)"
    />
  
  <line
    x1="-39.948184167473855"
    y1="5.520817370454208"
    x2="-61.64653243847875"
    y2="24.385906040268456"
    stroke="hsla(0,50%,50%,0.6)"
    stroke-width="1"
    transform="translate(66.3042920736,-14.9415710485) scale(1,-1) translate(50,-110)"
    />
  
  <line
    x1="-33.38376115924473"
    y1="23.66415318486527"
    x2="-44.763621794871796"
    y2="46.613247863247864"
    stroke="hsla(0,50%,50%,0.6)"
    stroke-width="1"
    transform="translate(66.3042920736,-14.9415710485) scale(1,-1) translate(50,-110)"
    />
  
  <line
    x1="-41.55048076923077"
    y1="1.0922475961538463"
    x2="-65.35649492017417"
    y2="4.97822931785196"
    stroke="hsla(0,50%,50%,0.6)"
    stroke-width="1"
    transform="translate(66.3042920736,-14.9415710485) scale(1,-1) translate(50,-110)"
    />
  
  <line
    x1="-30.736228813559322"
    y1="30.981638418079097"
    x2="-42.395833333333336"
    y2="46.52777777777778"
    stroke="hsla(0,50%,50%,0.6)"
    stroke-width="1"
    transform="translate(66.3042920736,-14.9415710485) scale(1,-1) translate(50,-110)"
    />
  
  <line
    x1="-61.19077798125221"
    y1="5.067187149940094"
    x2="-61.324214729384416"
    y2="11.315762558323025"
    stroke="hsla(0,50%,50%,0.6)"
    stroke-width="1"
    transform="translate(66.3042920736,-14.9415710485) scale(1,-1) translate(50,-110)"
    />
  
  <line
    x1="-65.35649492017417"
    y1="4.97822931785196"
    x2="-39.948184167473855"
    y2="5.520817370454208"
    stroke="hsla(0,50%,50%,0.6)"
    stroke-width="1"
    transform="translate(66.3042920736,-14.9415710485) scale(1,-1) translate(50,-110)"
    />
  
  <line
    x1="-56.934926197225174"
    y1="-14.077083800079874"
    x2="-45.15528303004766"
    y2="-8.87102531915952"
    stroke="hsla(0,50%,50%,0.6)"
    stroke-width="1"
    transform="translate(66.3042920736,-14.9415710485) scale(1,-1) translate(50,-110)"
    />
  
  <line
    x1="-65.35649492017417"
    y1="4.97822931785196"
    x2="-62.33581277213353"
    y2="23.4833091436865"
    stroke="hsla(0,50%,50%,0.6)"
    stroke-width="1"
    transform="translate(66.3042920736,-14.9415710485) scale(1,-1) translate(50,-110)"
    />
  
  <line
    x1="-45.15528303004766"
    y1="-8.87102531915952"
    x2="-25.334322149481725"
    y2="45.91190822573801"
    stroke="hsla(0,50%,50%,0.6)"
    stroke-width="1"
    transform="translate(66.3042920736,-14.9415710485) scale(1,-1) translate(50,-110)"
    />
  
  <line
    x1="-25.334322149481725"
    y1="45.91190822573801"
    x2="-34.702936326925546"
    y2="53.15641568673914"
    stroke="hsla(0,50%,50%,0.6)"
    stroke-width="1"
    transform="translate(66.3042920736,-14.9415710485) scale(1,-1) translate(50,-110)"
    />
  
  <line
    x1="-65.35649492017417"
    y1="4.97822931785196"
    x2="-34.702936326925546"
    y2="53.15641568673914"
    stroke="hsla(0,50%,50%,0.6)"
    stroke-width="1"
    transform="translate(66.3042920736,-14.9415710485) scale(1,-1) translate(50,-110)"
    />
  
  <line
    x1="-63.84615384615385"
    y1="14.23076923076923"
    x2="-44.763621794871796"
    y2="46.613247863247864"
    stroke="hsla(0,50%,50%,0.6)"
    stroke-width="1"
    transform="translate(66.3042920736,-14.9415710485) scale(1,-1) translate(50,-110)"
    />
  
  <line
    x1="-61.324214729384416"
    y1="11.315762558323025"
    x2="-33.38376115924473"
    y2="23.66415318486527"
    stroke="hsla(0,50%,50%,0.6)"
    stroke-width="1"
    transform="translate(66.3042920736,-14.9415710485) scale(1,-1) translate(50,-110)"
    />
  
  <line
    x1="-62.33581277213353"
    y1="23.4833091436865"
    x2="-30.736228813559322"
    y2="30.981638418079097"
    stroke="hsla(0,50%,50%,0.6)"
    stroke-width="1"
    transform="translate(66.3042920736,-14.9415710485) scale(1,-1) translate(50,-110)"
    />
  
  <line
    x1="-61.64653243847875"
    y1="24.385906040268456"
    x2="-42.395833333333336"
    y2="46.52777777777778"
    stroke="hsla(0,50%,50%,0.6)"
    stroke-width="1"
    transform="translate(66.3042920736,-14.9415710485) scale(1,-1) translate(50,-110)"
    />
  
  <line
    x1="-62.33581277213353"
    y1="23.4833091436865"
    x2="-34.702936326925546"
    y2="53.15641568673914"
    stroke="hsla(0,50%,50%,0.6)"
    stroke-width="1"
    transform="translate(66.3042920736,-14.9415710485) scale(1,-1) translate(50,-110)"
    />
  
  <line
    x1="-85.38461538461539"
    y1="26.923076923076923"
    x2="-73.17708333333333"
    y2="47.638888888888886"
    stroke="hsla(0,50%,50%,0.6)"
    stroke-width="1"
    transform="translate(66.3042920736,-14.9415710485) scale(1,-1) translate(50,-110)"
    />
  
  <line
    x1="-25.334322149481725"
    y1="45.91190822573801"
    x2="-73.17708333333333"
    y2="47.638888888888886"
    stroke="hsla(0,50%,50%,0.6)"
    stroke-width="1"
    transform="translate(66.3042920736,-14.9415710485) scale(1,-1) translate(50,-110)"
    />
  
</svg>
