<?xml version="1.0"?>
<!DOCTYPE svg PUBLIC "-//W3C//DTD SVG 1.1//EN"
  "http://www.w3.org/Graphics/SVG/1.1/DTD/svg11.dtd">
<svg
  width="240"
  height="240"
  viewBox="-50 -50 200 200" xmlns="http://www.w3.org/2000/svg" version="1.1">
  <rect
    x="0"
    y="0"
    width="100"
    height="100"
    fill="hsla(206,100%,53%,0.3)"
    stroke="hsl(206,100%,53%)"
    stroke-width="3"
    transform="" />
  
  <path
    d="M 
      83.7640551726
      33.5686110342
      L
    
      85.7662337965
      34.1709233409
      L
    
      102.3032254124
      59.2014628536
      L
    
      95.0863246845
      63.9694714205
      L
    
      109.3241511209
      80.9576737060
      L
    
      101.9255609961
      121.9622097389
      L
    
      27.6052847843
      108.5523454932
      L
    
      18.8680937036
      114.3247682401
      L
    
      13.3557631650
      105.9812550692
      L
    
      33.2684824902
      75.7684824902
      z
    "
    fill="hsla(0,0%,50%,0.3)"
    stroke="hsla(0,0%,50%,1)"
    stroke-width="1"
    transform="translate(-30.4239854222,-91.3942763296) scale(1,-1) translate(50,-110)"
    />
  
  
  <line
    x1="85.76623379652479"
    y1="34.1709233409841"
    x2="102.30322541247332"
    y2="59.201462853628406"
    stroke="hsla(0,50%,50%,0.6)"
    stroke-width="1"
    transform="translate(-30.4239854222,-91.3942763296) scale(1,-1) translate(50,-110)"
    />
  
  <line
    x1="75.43859649122807"
    y1="40.526315789473685"
    x2="86.00682593856655"
    y2="53.208191126279864"
    stroke="hsla(0,50%,50%,0.6)"
    stroke-width="1"
    transform="translate(-30.4239854222,-91.3942763296) scale(1,-1) translate(50,-110)"
    />
  
  <line
    x1="75.43859649122807"
    y1="40.526315789473685"
    x2="109.32415112099092"
    y2="80.95767370602901"
    stroke="hsla(0,50%,50%,0.6)"
    stroke-width="1"
    transform="translate(-30.4239854222,-91.3942763296) scale(1,-1) translate(50,-110)"
    />
  
  <line
    x1="83.76405517264664"
    y1="33.56861103428817"
    x2="86.00682593856655"
    y2="53.208191126279864"
    stroke="hsla(0,50%,50%,0.6)"
    stroke-width="1"
    transform="translate(-30.4239854222,-91.3942763296) scale(1,-1) translate(50,-110)"
    />
  
  <line
    x1="50.93457943925234"
    y1="61.004672897196265"
    x2="50.99104760150672"
    y2="81.12141607354174"
    stroke="hsla(0,50%,50%,0.6)"
    stroke-width="1"
    transform="translate(-30.4239854222,-91.3942763296) scale(1,-1) translate(50,-110)"
    />
  
  <line
    x1="83.76405517264664"
    y1="33.56861103428817"
    x2="85.76623379652479"
    y2="34.1709233409841"
    stroke="hsla(0,50%,50%,0.6)"
    stroke-width="1"
    transform="translate(-30.4239854222,-91.3942763296) scale(1,-1) translate(50,-110)"
    />
  
  <line
    x1="109.32415112099092"
    y1="80.95767370602901"
    x2="101.92556099612484"
    y2="121.96220973895281"
    stroke="hsla(0,50%,50%,0.6)"
    stroke-width="1"
    transform="translate(-30.4239854222,-91.3942763296) scale(1,-1) translate(50,-110)"
    />
  
  <line
    x1="13.355763165009462"
    y1="105.9812550692421"
    x2="18.868093703658975"
    y2="114.32476824012353"
    stroke="hsla(0,50%,50%,0.6)"
    stroke-width="1"
    transform="translate(-30.4239854222,-91.3942763296) scale(1,-1) translate(50,-110)"
    />
  
  <line
    x1="33.268482490272376"
    y1="75.76848249027238"
    x2="13.355763165009462"
    y2="105.9812550692421"
    stroke="hsla(0,50%,50%,0.6)"
    stroke-width="1"
    transform="translate(-30.4239854222,-91.3942763296) scale(1,-1) translate(50,-110)"
    />
  
  <line
    x1="80.2153462555774"
    y1="36.5343177721246"
    x2="62.72727272727273"
    y2="63.166666666666664"
    stroke="hsla(0,50%,50%,0.6)"
    stroke-width="1"
    transform="translate(-30.4239854222,-91.3942763296) scale(1,-1) translate(50,-110)"
    />
  
  <line
    x1="50.93457943925234"
    y1="61.004672897196265"
    x2="62.72727272727273"
    y2="63.166666666666664"
    stroke="hsla(0,50%,50%,0.6)"
    stroke-width="1"
    transform="translate(-30.4239854222,-91.3942763296) scale(1,-1) translate(50,-110)"
    />
  
  <line
    x1="85.76623379652479"
    y1="34.1709233409841"
    x2="80.2153462555774"
    y2="36.5343177721246"
    stroke="hsla(0,50%,50%,0.6)"
    stroke-width="1"
    transform="translate(-30.4239854222,-91.3942763296) scale(1,-1) translate(50,-110)"
    />
  
  <line
    x1="83.76405517264664"
    y1="33.56861103428817"
    x2="33.268482490272376"
    y2="75.76848249027238"
    stroke="hsla(0,50%,50%,0.6)"
    stroke-width="1"
    transform="translate(-30.4239854222,-91.3942763296) scale(1,-1) translate(50,-110)"
    />
  
  <line
    x1="86.00682593856655"
    y1="53.208191126279864"
    x2="33.268482490272376"
    y2="75.76848249027238"
    stroke="hsla(0,50%,50%,0.6)"
    stroke-width="1"
    transform="translate(-30.4239854222,-91.3942763296) scale(1,-1) translate(50,-110)"
    />
  
  <line
    x1="109.32415112099092"
    y1="80.95767370602901"
    x2="50.99104760150672"
    y2="81.12141607354174"
    stroke="hsla(0,50%,50%,0.6)"
    stroke-width="1"
    transform="translate(-30.4239854222,-91.3942763296) scale(1,-1) translate(50,-110)"
    />
  
  <line
    x1="102.30322541247332"
    y1="59.201462853628406"
    x2="18.868093703658975"
    y2="114.32476824012353"
    stroke="hsla(0,50%,50%,0.6)"
    stroke-width="1"
    transform="translate(-30.4239854222,-91.3942763296) scale(1,-1) translate(50,-110)"
    />
  
  <line
    x1="13.355763165009462"
    y1="105.9812550692421"
    x2="101.92556099612484"
    y2="121.96220973895281"
    stroke="hsla(0,50%,50%,0.6)"
    stroke-width="1"
    transform="translate(-30.4239854222,-91.3942763296) scale(1,-1) translate(50,-110)"
    />
  
</svg>
