<?xml version="1.0"?>
<!DOCTYPE svg PUBLIC "-//W3C//DTD SVG 1.1//EN"
  "http://www.w3.org/Graphics/SVG/1.1/DTD/svg11.dtd">
<svg
  width="240"
  height="240"
  viewBox="-50 -50 200 200" xmlns="http://www.w3.org/2000/svg" version="1.1">
  <rect
    x="0"
    y="0"
    width="100"
    height="100"
    fill="hsla(206,100%,53%,0.3)"
    stroke="hsl(206,100%,53%)"
    stroke-width="3"
    transform="" />
  
  <path
    d="M 
      89.3017144826
      81.7911605065
      L
    
      130.1886792452
      144.5492662473
      L
    
      125.5128301330
      147.7362566712
      L
    
      128.1567489114
      163.9332365747
      L
    
      88.6792452830
      170.3773584905
      L
    
      54.7169811320
      191.5094339622
      L
    
      45.9119496855
      177.3584905660
      L
    
      78.7989242186
      104.9238884297
      L
    
      64.9713134925
      95.9089692691
      L
    
      73.7048978535
      82.5128863275
      L
    
      75.7441962056
      81.9302296555
      z
    "
    fill="hsla(0,0%,50%,0.3)"
    stroke="hsla(0,0%,50%,1)"
    stroke-width="1"
    transform="translate(-73.2872780125,-91.1555085988) scale(1,-1) translate(50,-110)"
    />
  
  
  <line
    x1="89.30171448263978"
    y1="81.79116050659086"
    x2="130.18867924528303"
    y2="144.54926624737945"
    stroke="hsla(0,50%,50%,0.6)"
    stroke-width="1"
    transform="translate(-73.2872780125,-91.1555085988) scale(1,-1) translate(50,-110)"
    />
  
  <line
    x1="123.2554657082959"
    y1="133.90735749226315"
    x2="128.15674891146588"
    y2="163.93323657474602"
    stroke="hsla(0,50%,50%,0.6)"
    stroke-width="1"
    transform="translate(-73.2872780125,-91.1555085988) scale(1,-1) translate(50,-110)"
    />
  
  <line
    x1="74.33611651704439"
    y1="82.33253813798731"
    x2="121.00738072825004"
    y2="150.80710514468137"
    stroke="hsla(0,50%,50%,0.6)"
    stroke-width="1"
    transform="translate(-73.2872780125,-91.1555085988) scale(1,-1) translate(50,-110)"
    />
  
  <line
    x1="74.33611651704439"
    y1="82.33253813798731"
    x2="74.31670281995662"
    y2="82.79826464208243"
    stroke="hsla(0,50%,50%,0.6)"
    stroke-width="1"
    transform="translate(-73.2872780125,-91.1555085988) scale(1,-1) translate(50,-110)"
    />
  
  <line
    x1="45.911949685534594"
    y1="177.35849056603774"
    x2="54.716981132075475"
    y2="191.50943396226415"
    stroke="hsla(0,50%,50%,0.6)"
    stroke-width="1"
    transform="translate(-73.2872780125,-91.1555085988) scale(1,-1) translate(50,-110)"
    />
  
  <line
    x1="64.97131349257572"
    y1="95.90896926917883"
    x2="123.2554657082959"
    y2="133.90735749226315"
    stroke="hsla(0,50%,50%,0.6)"
    stroke-width="1"
    transform="translate(-73.2872780125,-91.1555085988) scale(1,-1) translate(50,-110)"
    />
  
  <line
    x1="73.70489785356096"
    y1="82.51288632755401"
    x2="74.31670281995662"
    y2="82.79826464208243"
    stroke="hsla(0,50%,50%,0.6)"
    stroke-width="1"
    transform="translate(-73.2872780125,-91.1555085988) scale(1,-1) translate(50,-110)"
    />
  
  <line
    x1="89.30171448263978"
    y1="81.79116050659086"
    x2="45.911949685534594"
    y2="177.35849056603774"
    stroke="hsla(0,50%,50%,0.6)"
    stroke-width="1"
    transform="translate(-73.2872780125,-91.1555085988) scale(1,-1) translate(50,-110)"
    />
  
  <line
    x1="73.70489785356096"
    y1="82.51288632755401"
    x2="64.97131349257572"
    y2="95.90896926917883"
    stroke="hsla(0,50%,50%,0.6)"
    stroke-width="1"
    transform="translate(-73.2872780125,-91.1555085988) scale(1,-1) translate(50,-110)"
    />
  
  <line
    x1="89.30171448263978"
    y1="81.79116050659086"
    x2="75.74419620569147"
    y2="81.93022965551673"
    stroke="hsla(0,50%,50%,0.6)"
    stroke-width="1"
    transform="translate(-73.2872780125,-91.1555085988) scale(1,-1) translate(50,-110)"
    />
  
  <line
    x1="75.74419620569147"
    y1="81.93022965551673"
    x2="74.31670281995662"
    y2="82.79826464208243"
    stroke="hsla(0,50%,50%,0.6)"
    stroke-width="1"
    transform="translate(-73.2872780125,-91.1555085988) scale(1,-1) translate(50,-110)"
    />
  
  <line
    x1="75.74419620569147"
    y1="81.93022965551673"
    x2="73.70489785356096"
    y2="82.51288632755401"
    stroke="hsla(0,50%,50%,0.6)"
    stroke-width="1"
    transform="translate(-73.2872780125,-91.1555085988) scale(1,-1) translate(50,-110)"
    />
  
  <line
    x1="130.18867924528303"
    y1="144.54926624737945"
    x2="121.00738072825004"
    y2="150.80710514468137"
    stroke="hsla(0,50%,50%,0.6)"
    stroke-width="1"
    transform="translate(-73.2872780125,-91.1555085988) scale(1,-1) translate(50,-110)"
    />
  
  <line
    x1="130.18867924528303"
    y1="144.54926624737945"
    x2="54.716981132075475"
    y2="191.50943396226415"
    stroke="hsla(0,50%,50%,0.6)"
    stroke-width="1"
    transform="translate(-73.2872780125,-91.1555085988) scale(1,-1) translate(50,-110)"
    />
  
  <line
    x1="128.15674891146588"
    y1="163.93323657474602"
    x2="45.911949685534594"
    y2="177.35849056603774"
    stroke="hsla(0,50%,50%,0.6)"
    stroke-width="1"
    transform="translate(-73.2872780125,-91.1555085988) scale(1,-1) translate(50,-110)"
    />
  
</svg>
