<?xml version="1.0"?>
<!DOCTYPE svg PUBLIC "-//W3C//DTD SVG 1.1//EN"
  "http://www.w3.org/Graphics/SVG/1.1/DTD/svg11.dtd">
<svg
  width="240"
  height="240"
  viewBox="-500 -500 1000 1000" xmlns="http://www.w3.org/2000/svg" version="1.1">
  <rect
    x="0"
    y="0"
    width="100"
    height="100"
    fill="hsla(206,100%,53%,0.3)"
    stroke="hsl(206,100%,53%)"
    stroke-width="3"
    transform="" />
  
  <path
    d="M 
      44.8387096774
      38.2795698924
      L
    
      46.4705882352
      38.8235294117
      L
    
      88.2681564245
      86.5921787709
      L
    
      83.4808259587
      97.7876106194
      L
    
      59.5180722891
      94.5783132530
      L
    
      29.1888456343
      103.0030984348
      L
    
      25
      100
      L
    
      32.4460431654
      76.8345323741
      L
    
      31.7142857142
      76.2857142857
      z
    "
    fill="hsla(0,0%,50%,0.3)"
    stroke="hsla(0,0%,50%,1)"
    stroke-width="1"
    transform="translate(-56.6340782122,-70.6413341636)"
    />
  
  
  <line
    x1="46.470588235294116"
    y1="38.8235294117647"
    x2="56.98199572779982"
    y2="93.89075373817516"
    stroke="hsla(0,50%,50%,0.6)"
    stroke-width="1"
    transform="translate(-56.6340782122,-70.6413341636)"
    />
  
  <line
    x1="56.644731865970805"
    y1="92.12389380530973"
    x2="57.52212389380531"
    y2="94.3109987357775"
    stroke="hsla(0,50%,50%,0.6)"
    stroke-width="1"
    transform="translate(-56.6340782122,-70.6413341636)"
    />
  
  <line
    x1="46.470588235294116"
    y1="38.8235294117647"
    x2="88.26815642458101"
    y2="86.59217877094972"
    stroke="hsla(0,50%,50%,0.6)"
    stroke-width="1"
    transform="translate(-56.6340782122,-70.6413341636)"
    />
  
  <line
    x1="53.15299008178466"
    y1="70.61721562159336"
    x2="62.74163309794215"
    y2="84.11353799162079"
    stroke="hsla(0,50%,50%,0.6)"
    stroke-width="1"
    transform="translate(-56.6340782122,-70.6413341636)"
    />
  
  <line
    x1="56.822333529758396"
    y1="50.654095462581026"
    x2="56.644731865970805"
    y2="92.12389380530973"
    stroke="hsla(0,50%,50%,0.6)"
    stroke-width="1"
    transform="translate(-56.6340782122,-70.6413341636)"
    />
  
  <line
    x1="43.61658031088083"
    y1="48.943005181347154"
    x2="39.333333333333336"
    y2="82"
    stroke="hsla(0,50%,50%,0.6)"
    stroke-width="1"
    transform="translate(-56.6340782122,-70.6413341636)"
    />
  
  <line
    x1="44.83870967741935"
    y1="38.27956989247312"
    x2="25"
    y2="100"
    stroke="hsla(0,50%,50%,0.6)"
    stroke-width="1"
    transform="translate(-56.6340782122,-70.6413341636)"
    />
  
  <line
    x1="44.83870967741935"
    y1="38.27956989247312"
    x2="31.714285714285715"
    y2="76.28571428571429"
    stroke="hsla(0,50%,50%,0.6)"
    stroke-width="1"
    transform="translate(-56.6340782122,-70.6413341636)"
    />
  
  <line
    x1="70.46935618835104"
    y1="87.37226462459112"
    x2="83.48082595870207"
    y2="97.78761061946902"
    stroke="hsla(0,50%,50%,0.6)"
    stroke-width="1"
    transform="translate(-56.6340782122,-70.6413341636)"
    />
  
  <line
    x1="44.83870967741935"
    y1="38.27956989247312"
    x2="46.470588235294116"
    y2="38.8235294117647"
    stroke="hsla(0,50%,50%,0.6)"
    stroke-width="1"
    transform="translate(-56.6340782122,-70.6413341636)"
    />
  
  <line
    x1="37.04324494426686"
    y1="84.77764711727976"
    x2="29.188845634384684"
    y2="103.00309843489315"
    stroke="hsla(0,50%,50%,0.6)"
    stroke-width="1"
    transform="translate(-56.6340782122,-70.6413341636)"
    />
  
  <line
    x1="56.98199572779982"
    y1="93.89075373817516"
    x2="57.52212389380531"
    y2="94.3109987357775"
    stroke="hsla(0,50%,50%,0.6)"
    stroke-width="1"
    transform="translate(-56.6340782122,-70.6413341636)"
    />
  
  <line
    x1="31.714285714285715"
    y1="76.28571428571429"
    x2="39.333333333333336"
    y2="82"
    stroke="hsla(0,50%,50%,0.6)"
    stroke-width="1"
    transform="translate(-56.6340782122,-70.6413341636)"
    />
  
  <line
    x1="43.61658031088083"
    y1="48.943005181347154"
    x2="56.822333529758396"
    y2="50.654095462581026"
    stroke="hsla(0,50%,50%,0.6)"
    stroke-width="1"
    transform="translate(-56.6340782122,-70.6413341636)"
    />
  
  <line
    x1="88.26815642458101"
    y1="86.59217877094972"
    x2="83.48082595870207"
    y2="97.78761061946902"
    stroke="hsla(0,50%,50%,0.6)"
    stroke-width="1"
    transform="translate(-56.6340782122,-70.6413341636)"
    />
  
  <line
    x1="72.1398002853067"
    y1="68.15977175463624"
    x2="56.98199572779982"
    y2="93.89075373817516"
    stroke="hsla(0,50%,50%,0.6)"
    stroke-width="1"
    transform="translate(-56.6340782122,-70.6413341636)"
    />
  
  <line
    x1="25"
    y1="100"
    x2="29.188845634384684"
    y2="103.00309843489315"
    stroke="hsla(0,50%,50%,0.6)"
    stroke-width="1"
    transform="translate(-56.6340782122,-70.6413341636)"
    />
  
  <line
    x1="37.04324494426686"
    y1="84.77764711727976"
    x2="59.680284191829486"
    y2="94.53325439115848"
    stroke="hsla(0,50%,50%,0.6)"
    stroke-width="1"
    transform="translate(-56.6340782122,-70.6413341636)"
    />
  
  <line
    x1="75.68412822517593"
    y1="72.21043225734391"
    x2="59.680284191829486"
    y2="94.53325439115848"
    stroke="hsla(0,50%,50%,0.6)"
    stroke-width="1"
    transform="translate(-56.6340782122,-70.6413341636)"
    />
  
  <line
    x1="66.1872467199257"
    y1="61.35685339420079"
    x2="51.851670741646295"
    y2="76.71882640586797"
    stroke="hsla(0,50%,50%,0.6)"
    stroke-width="1"
    transform="translate(-56.6340782122,-70.6413341636)"
    />
  
  <line
    x1="79.29901423877328"
    y1="76.34173055859803"
    x2="70.46935618835104"
    y2="87.37226462459112"
    stroke="hsla(0,50%,50%,0.6)"
    stroke-width="1"
    transform="translate(-56.6340782122,-70.6413341636)"
    />
  
  <line
    x1="66.1872467199257"
    y1="61.35685339420079"
    x2="53.15299008178466"
    y2="70.61721562159336"
    stroke="hsla(0,50%,50%,0.6)"
    stroke-width="1"
    transform="translate(-56.6340782122,-70.6413341636)"
    />
  
  <line
    x1="31.714285714285715"
    y1="76.28571428571429"
    x2="51.851670741646295"
    y2="76.71882640586797"
    stroke="hsla(0,50%,50%,0.6)"
    stroke-width="1"
    transform="translate(-56.6340782122,-70.6413341636)"
    />
  
  <line
    x1="54.94894486044929"
    y1="83.23999471668208"
    x2="62.74163309794215"
    y2="84.11353799162079"
    stroke="hsla(0,50%,50%,0.6)"
    stroke-width="1"
    transform="translate(-56.6340782122,-70.6413341636)"
    />
  
  <line
    x1="72.1398002853067"
    y1="68.15977175463624"
    x2="39.333333333333336"
    y2="82"
    stroke="hsla(0,50%,50%,0.6)"
    stroke-width="1"
    transform="translate(-56.6340782122,-70.6413341636)"
    />
  
  <line
    x1="57.52212389380531"
    y1="94.3109987357775"
    x2="83.48082595870207"
    y2="97.78761061946902"
    stroke="hsla(0,50%,50%,0.6)"
    stroke-width="1"
    transform="translate(-56.6340782122,-70.6413341636)"
    />
  
  <line
    x1="75.68412822517593"
    y1="72.21043225734391"
    x2="54.94894486044929"
    y2="83.23999471668208"
    stroke="hsla(0,50%,50%,0.6)"
    stroke-width="1"
    transform="translate(-56.6340782122,-70.6413341636)"
    />
  
  <line
    x1="79.29901423877328"
    y1="76.34173055859803"
    x2="40"
    y2="100"
    stroke="hsla(0,50%,50%,0.6)"
    stroke-width="1"
    transform="translate(-56.6340782122,-70.6413341636)"
    />
  
  <line
    x1="25"
    y1="100"
    x2="40"
    y2="100"
    stroke="hsla(0,50%,50%,0.6)"
    stroke-width="1"
    transform="translate(-56.6340782122,-70.6413341636)"
    />
  
  <line
    x1="88.26815642458101"
    y1="86.59217877094972"
    x2="29.188845634384684"
    y2="103.00309843489315"
    stroke="hsla(0,50%,50%,0.6)"
    stroke-width="1"
    transform="translate(-56.6340782122,-70.6413341636)"
    />
  
</svg>
