<?xml version="1.0"?>
<!DOCTYPE svg PUBLIC "-//W3C//DTD SVG 1.1//EN"
  "http://www.w3.org/Graphics/SVG/1.1/DTD/svg11.dtd">
<svg
  width="240"
  height="240"
  viewBox="-50 -50 200 200" xmlns="http://www.w3.org/2000/svg" version="1.1">
  <rect
    x="0"
    y="0"
    width="100"
    height="100"
    fill="hsla(206,100%,53%,0.3)"
    stroke="hsl(206,100%,53%)"
    stroke-width="3"
    transform="" />
  
  <path
    d="M 
      129.7534938175
      84.4791540932
      L
    
      159.0363815142
      87.7679449360
      L
    
      169.5340539062
      114.1952248530
      L
    
      155.5923710681
      142.2728092924
      L
    
      155.5689861552
      142.2611977152
      L
    
      148.2232203812
      158.7268468870
      L
    
      120.6887520951
      161.6373989089
      L
    
      118.1372676956
      137.4997900458
      L
    
      118.4878991344
      135.6435119420
      L
    
      145.0303253457
      104.3048864251
      L
    
      143.0408686464
      101.7230397946
      L
    
      128.7289535480
      95.7572725624
      L
    
      128.0102772221
      85.9196064770
      z
    "
    fill="hsla(0,0%,50%,0.3)"
    stroke="hsla(0,0%,50%,1)"
    stroke-width="1"
    transform="translate(-130.8114773904,-94.9182737409) scale(1,-1) translate(50,-110)"
    />
  
  
  <line
    x1="159.0363815142576"
    y1="87.76794493608652"
    x2="169.53405390620244"
    y2="114.19522485301741"
    stroke="hsla(0,50%,50%,0.6)"
    stroke-width="1"
    transform="translate(-130.8114773904,-94.9182737409) scale(1,-1) translate(50,-110)"
    />
  
  <line
    x1="140.4943821884764"
    y1="85.68547416947611"
    x2="160.2098090879899"
    y2="112.21429879419877"
    stroke="hsla(0,50%,50%,0.6)"
    stroke-width="1"
    transform="translate(-130.8114773904,-94.9182737409) scale(1,-1) translate(50,-110)"
    />
  
  <line
    x1="129.75349381759196"
    y1="84.47915409326447"
    x2="145.9383967814349"
    y2="105.48334945849231"
    stroke="hsla(0,50%,50%,0.6)"
    stroke-width="1"
    transform="translate(-130.8114773904,-94.9182737409) scale(1,-1) translate(50,-110)"
    />
  
  <line
    x1="156.23252298034035"
    y1="91.07845889955516"
    x2="161.19649601680905"
    y2="119.28625323165387"
    stroke="hsla(0,50%,50%,0.6)"
    stroke-width="1"
    transform="translate(-130.8114773904,-94.9182737409) scale(1,-1) translate(50,-110)"
    />
  
  <line
    x1="118.48789913445505"
    y1="135.64351194204997"
    x2="118.73119114352319"
    y2="136.35532445861088"
    stroke="hsla(0,50%,50%,0.6)"
    stroke-width="1"
    transform="translate(-130.8114773904,-94.9182737409) scale(1,-1) translate(50,-110)"
    />
  
  <line
    x1="125.52004928134794"
    y1="127.34065679693946"
    x2="148.22322038120367"
    y2="158.7268468870263"
    stroke="hsla(0,50%,50%,0.6)"
    stroke-width="1"
    transform="translate(-130.8114773904,-94.9182737409) scale(1,-1) translate(50,-110)"
    />
  
  <line
    x1="144.07164452389327"
    y1="86.087240133713"
    x2="145.9383967814349"
    y2="105.48334945849231"
    stroke="hsla(0,50%,50%,0.6)"
    stroke-width="1"
    transform="translate(-130.8114773904,-94.9182737409) scale(1,-1) translate(50,-110)"
    />
  
  <line
    x1="118.13726769562491"
    y1="137.4997900458217"
    x2="120.68875209512868"
    y2="161.6373989089341"
    stroke="hsla(0,50%,50%,0.6)"
    stroke-width="1"
    transform="translate(-130.8114773904,-94.9182737409) scale(1,-1) translate(50,-110)"
    />
  
  <line
    x1="128.0102772221706"
    y1="85.91960647700537"
    x2="128.7289535480721"
    y2="95.7572725624814"
    stroke="hsla(0,50%,50%,0.6)"
    stroke-width="1"
    transform="translate(-130.8114773904,-94.9182737409) scale(1,-1) translate(50,-110)"
    />
  
  <line
    x1="147.14648869085806"
    y1="86.4325790034369"
    x2="147.417666104182"
    y2="103.54746054308208"
    stroke="hsla(0,50%,50%,0.6)"
    stroke-width="1"
    transform="translate(-130.8114773904,-94.9182737409) scale(1,-1) translate(50,-110)"
    />
  
  <line
    x1="143.6153309908334"
    y1="86.0359910976026"
    x2="143.322916793291"
    y2="102.08907191678907"
    stroke="hsla(0,50%,50%,0.6)"
    stroke-width="1"
    transform="translate(-130.8114773904,-94.9182737409) scale(1,-1) translate(50,-110)"
    />
  
  <line
    x1="148.94800164323675"
    y1="101.6406227299645"
    x2="144.8977634861708"
    y2="134.60092677134273"
    stroke="hsla(0,50%,50%,0.6)"
    stroke-width="1"
    transform="translate(-130.8114773904,-94.9182737409) scale(1,-1) translate(50,-110)"
    />
  
  <line
    x1="118.48789913445505"
    y1="135.64351194204997"
    x2="118.13726769562491"
    y2="137.4997900458217"
    stroke="hsla(0,50%,50%,0.6)"
    stroke-width="1"
    transform="translate(-130.8114773904,-94.9182737409) scale(1,-1) translate(50,-110)"
    />
  
  <line
    x1="143.6153309908334"
    y1="86.0359910976026"
    x2="142.8105903243414"
    y2="89.89727964095088"
    stroke="hsla(0,50%,50%,0.6)"
    stroke-width="1"
    transform="translate(-130.8114773904,-94.9182737409) scale(1,-1) translate(50,-110)"
    />
  
  <line
    x1="128.7289535480721"
    y1="95.7572725624814"
    x2="168.85387437945175"
    y2="112.48291243974387"
    stroke="hsla(0,50%,50%,0.6)"
    stroke-width="1"
    transform="translate(-130.8114773904,-94.9182737409) scale(1,-1) translate(50,-110)"
    />
  
  <line
    x1="147.14648869085806"
    y1="86.4325790034369"
    x2="143.322916793291"
    y2="102.08907191678907"
    stroke="hsla(0,50%,50%,0.6)"
    stroke-width="1"
    transform="translate(-130.8114773904,-94.9182737409) scale(1,-1) translate(50,-110)"
    />
  
  <line
    x1="148.94800164323675"
    y1="101.6406227299645"
    x2="145.6017970474588"
    y2="115.52891086984177"
    stroke="hsla(0,50%,50%,0.6)"
    stroke-width="1"
    transform="translate(-130.8114773904,-94.9182737409) scale(1,-1) translate(50,-110)"
    />
  
  <line
    x1="145.9383967814349"
    y1="105.48334945849231"
    x2="169.53405390620244"
    y2="114.19522485301741"
    stroke="hsla(0,50%,50%,0.6)"
    stroke-width="1"
    transform="translate(-130.8114773904,-94.9182737409) scale(1,-1) translate(50,-110)"
    />
  
  <line
    x1="128.0102772221706"
    y1="85.91960647700537"
    x2="142.8105903243414"
    y2="89.89727964095088"
    stroke="hsla(0,50%,50%,0.6)"
    stroke-width="1"
    transform="translate(-130.8114773904,-94.9182737409) scale(1,-1) translate(50,-110)"
    />
  
  <line
    x1="144.07164452389327"
    y1="86.087240133713"
    x2="142.8105903243414"
    y2="89.89727964095088"
    stroke="hsla(0,50%,50%,0.6)"
    stroke-width="1"
    transform="translate(-130.8114773904,-94.9182737409) scale(1,-1) translate(50,-110)"
    />
  
  <line
    x1="125.52004928134794"
    y1="127.34065679693946"
    x2="155.592371068118"
    y2="142.27280929246822"
    stroke="hsla(0,50%,50%,0.6)"
    stroke-width="1"
    transform="translate(-130.8114773904,-94.9182737409) scale(1,-1) translate(50,-110)"
    />
  
  <line
    x1="118.38380992443916"
    y1="136.19457068919496"
    x2="118.73119114352319"
    y2="136.35532445861088"
    stroke="hsla(0,50%,50%,0.6)"
    stroke-width="1"
    transform="translate(-130.8114773904,-94.9182737409) scale(1,-1) translate(50,-110)"
    />
  
  <line
    x1="129.75349381759196"
    y1="84.47915409326447"
    x2="159.0363815142576"
    y2="87.76794493608652"
    stroke="hsla(0,50%,50%,0.6)"
    stroke-width="1"
    transform="translate(-130.8114773904,-94.9182737409) scale(1,-1) translate(50,-110)"
    />
  
  <line
    x1="148.94800164323675"
    y1="101.6406227299645"
    x2="165.75757908247007"
    y2="104.68816904676089"
    stroke="hsla(0,50%,50%,0.6)"
    stroke-width="1"
    transform="translate(-130.8114773904,-94.9182737409) scale(1,-1) translate(50,-110)"
    />
  
  <line
    x1="145.6017970474588"
    y1="115.52891086984177"
    x2="161.19649601680905"
    y2="119.28625323165387"
    stroke="hsla(0,50%,50%,0.6)"
    stroke-width="1"
    transform="translate(-130.8114773904,-94.9182737409) scale(1,-1) translate(50,-110)"
    />
  
  <line
    x1="118.73119114352319"
    y1="136.35532445861088"
    x2="118.13726769562491"
    y2="137.4997900458217"
    stroke="hsla(0,50%,50%,0.6)"
    stroke-width="1"
    transform="translate(-130.8114773904,-94.9182737409) scale(1,-1) translate(50,-110)"
    />
  
  <line
    x1="168.85387437945175"
    y1="112.48291243974387"
    x2="148.22322038120367"
    y2="158.7268468870263"
    stroke="hsla(0,50%,50%,0.6)"
    stroke-width="1"
    transform="translate(-130.8114773904,-94.9182737409) scale(1,-1) translate(50,-110)"
    />
  
  <line
    x1="156.23252298034035"
    y1="91.07845889955516"
    x2="160.36593865091484"
    y2="91.11502772778756"
    stroke="hsla(0,50%,50%,0.6)"
    stroke-width="1"
    transform="translate(-130.8114773904,-94.9182737409) scale(1,-1) translate(50,-110)"
    />
  
  <line
    x1="169.53405390620244"
    y1="114.19522485301741"
    x2="155.592371068118"
    y2="142.27280929246822"
    stroke="hsla(0,50%,50%,0.6)"
    stroke-width="1"
    transform="translate(-130.8114773904,-94.9182737409) scale(1,-1) translate(50,-110)"
    />
  
  <line
    x1="168.74056656233617"
    y1="112.19766659781912"
    x2="160.2098090879899"
    y2="112.21429879419877"
    stroke="hsla(0,50%,50%,0.6)"
    stroke-width="1"
    transform="translate(-130.8114773904,-94.9182737409) scale(1,-1) translate(50,-110)"
    />
  
  <line
    x1="129.75349381759196"
    y1="84.47915409326447"
    x2="128.0102772221706"
    y2="85.91960647700537"
    stroke="hsla(0,50%,50%,0.6)"
    stroke-width="1"
    transform="translate(-130.8114773904,-94.9182737409) scale(1,-1) translate(50,-110)"
    />
  
  <line
    x1="159.0363815142576"
    y1="87.76794493608652"
    x2="118.48789913445505"
    y2="135.64351194204997"
    stroke="hsla(0,50%,50%,0.6)"
    stroke-width="1"
    transform="translate(-130.8114773904,-94.9182737409) scale(1,-1) translate(50,-110)"
    />
  
  <line
    x1="165.75757908247007"
    y1="104.68816904676089"
    x2="160.2098090879899"
    y2="112.21429879419877"
    stroke="hsla(0,50%,50%,0.6)"
    stroke-width="1"
    transform="translate(-130.8114773904,-94.9182737409) scale(1,-1) translate(50,-110)"
    />
  
  <line
    x1="140.4943821884764"
    y1="85.68547416947611"
    x2="128.7289535480721"
    y2="95.7572725624814"
    stroke="hsla(0,50%,50%,0.6)"
    stroke-width="1"
    transform="translate(-130.8114773904,-94.9182737409) scale(1,-1) translate(50,-110)"
    />
  
  <line
    x1="160.36593865091484"
    y1="91.11502772778756"
    x2="147.417666104182"
    y2="103.54746054308208"
    stroke="hsla(0,50%,50%,0.6)"
    stroke-width="1"
    transform="translate(-130.8114773904,-94.9182737409) scale(1,-1) translate(50,-110)"
    />
  
  <line
    x1="144.8977634861708"
    y1="134.60092677134273"
    x2="118.38380992443916"
    y2="136.19457068919496"
    stroke="hsla(0,50%,50%,0.6)"
    stroke-width="1"
    transform="translate(-130.8114773904,-94.9182737409) scale(1,-1) translate(50,-110)"
    />
  
  <line
    x1="168.74056656233617"
    y1="112.19766659781912"
    x2="144.8977634861708"
    y2="134.60092677134273"
    stroke="hsla(0,50%,50%,0.6)"
    stroke-width="1"
    transform="translate(-130.8114773904,-94.9182737409) scale(1,-1) translate(50,-110)"
    />
  
  <line
    x1="148.22322038120367"
    y1="158.7268468870263"
    x2="120.68875209512868"
    y2="161.6373989089341"
    stroke="hsla(0,50%,50%,0.6)"
    stroke-width="1"
    transform="translate(-130.8114773904,-94.9182737409) scale(1,-1) translate(50,-110)"
    />
  
</svg>
