<?xml version="1.0"?>
<!DOCTYPE svg PUBLIC "-//W3C//DTD SVG 1.1//EN"
  "http://www.w3.org/Graphics/SVG/1.1/DTD/svg11.dtd">
<svg
  width="240"
  height="240"
  viewBox="-500 -500 1000 1000" xmlns="http://www.w3.org/2000/svg" version="1.1">
  <rect
    x="0"
    y="0"
    width="100"
    height="100"
    fill="hsla(206,100%,53%,0.3)"
    stroke="hsl(206,100%,53%)"
    stroke-width="3"
    transform="" />
  
  <path
    d="M 
      -28.8116591928
      -26.6774622155
      L
    
      17.3698384201
      16.0831837223
      L
    
      16.8181818181
      38.3333333333
      L
    
      -25
      58.3333333333
      L
    
      -35
      45
      L
    
      -29.4444444444
      40.8333333333
      L
    
      -35.8834433591
      15.4797751066
      L
    
      -40.0372669004
      14.4418192001
      L
    
      -49.5538056165
      -9.7225655270
      L
    
      -42.9450402198
      -12.3252625322
      L
    
      -45.5128205128
      -22.4358974358
      z
    "
    fill="hsla(0,0%,50%,0.3)"
    stroke="hsla(0,0%,50%,1)"
    stroke-width="1"
    transform="translate(16.0919835982,-15.8279355588)"
    />
  
  
  <line
    x1="-28.81165919282511"
    y1="-26.677462215578807"
    x2="-45.51282051282051"
    y2="-22.435897435897434"
    stroke="hsla(0,50%,50%,0.6)"
    stroke-width="1"
    transform="translate(16.0919835982,-15.8279355588)"
    />
  
  <line
    x1="-22.154250728105755"
    y1="-20.513195118616437"
    x2="-49.553805616514516"
    y2="-9.722565527058345"
    stroke="hsla(0,50%,50%,0.6)"
    stroke-width="1"
    transform="translate(16.0919835982,-15.8279355588)"
    />
  
  <line
    x1="-12.577328205985621"
    y1="-11.645674264801501"
    x2="-16.94998008681142"
    y2="-7.405966898735135"
    stroke="hsla(0,50%,50%,0.6)"
    stroke-width="1"
    transform="translate(16.0919835982,-15.8279355588)"
    />
  
  <line
    x1="-34.1411098273786"
    y1="9.415852959003434"
    x2="-40.03726690042985"
    y2="14.44181920013332"
    stroke="hsla(0,50%,50%,0.6)"
    stroke-width="1"
    transform="translate(16.0919835982,-15.8279355588)"
    />
  
  <line
    x1="-12.577328205985621"
    y1="-11.645674264801501"
    x2="-32.11262798634812"
    y2="11.875995449374289"
    stroke="hsla(0,50%,50%,0.6)"
    stroke-width="1"
    transform="translate(16.0919835982,-15.8279355588)"
    />
  
  <line
    x1="-34.1411098273786"
    y1="9.415852959003434"
    x2="-36.117315752182634"
    y2="15.421335158698707"
    stroke="hsla(0,50%,50%,0.6)"
    stroke-width="1"
    transform="translate(16.0919835982,-15.8279355588)"
    />
  
  <line
    x1="-22.154250728105755"
    y1="-20.513195118616437"
    x2="-32.11262798634812"
    y2="11.875995449374289"
    stroke="hsla(0,50%,50%,0.6)"
    stroke-width="1"
    transform="translate(16.0919835982,-15.8279355588)"
    />
  
  <line
    x1="-28.81165919282511"
    y1="-26.677462215578807"
    x2="-36.117315752182634"
    y2="15.421335158698707"
    stroke="hsla(0,50%,50%,0.6)"
    stroke-width="1"
    transform="translate(16.0919835982,-15.8279355588)"
    />
  
  <line
    x1="-28.81165919282511"
    y1="-26.677462215578807"
    x2="17.36983842010772"
    y2="16.083183722321962"
    stroke="hsla(0,50%,50%,0.6)"
    stroke-width="1"
    transform="translate(16.0919835982,-15.8279355588)"
    />
  
  <line
    x1="17.36983842010772"
    y1="16.083183722321962"
    x2="16.818181818181817"
    y2="38.333333333333336"
    stroke="hsla(0,50%,50%,0.6)"
    stroke-width="1"
    transform="translate(16.0919835982,-15.8279355588)"
    />
  
  <line
    x1="-16.94998008681142"
    y1="-7.405966898735135"
    x2="6.864261836274586"
    y2="17.155018269455027"
    stroke="hsla(0,50%,50%,0.6)"
    stroke-width="1"
    transform="translate(16.0919835982,-15.8279355588)"
    />
  
  <line
    x1="11.187845303867404"
    y1="10.359116022099448"
    x2="6.864261836274586"
    y2="17.155018269455027"
    stroke="hsla(0,50%,50%,0.6)"
    stroke-width="1"
    transform="translate(16.0919835982,-15.8279355588)"
    />
  
  <line
    x1="-45.51282051282051"
    y1="-22.435897435897434"
    x2="-25"
    y2="58.333333333333336"
    stroke="hsla(0,50%,50%,0.6)"
    stroke-width="1"
    transform="translate(16.0919835982,-15.8279355588)"
    />
  
  <line
    x1="11.187845303867404"
    y1="10.359116022099448"
    x2="-35"
    y2="45"
    stroke="hsla(0,50%,50%,0.6)"
    stroke-width="1"
    transform="translate(16.0919835982,-15.8279355588)"
    />
  
  <line
    x1="-49.553805616514516"
    y1="-9.722565527058345"
    x2="-40.03726690042985"
    y2="14.44181920013332"
    stroke="hsla(0,50%,50%,0.6)"
    stroke-width="1"
    transform="translate(16.0919835982,-15.8279355588)"
    />
  
  <line
    x1="17.36983842010772"
    y1="16.083183722321962"
    x2="-18.729405749346665"
    y2="19.766219747755937"
    stroke="hsla(0,50%,50%,0.6)"
    stroke-width="1"
    transform="translate(16.0919835982,-15.8279355588)"
    />
  
  <line
    x1="-34.1411098273786"
    y1="9.415852959003434"
    x2="-18.729405749346665"
    y2="19.766219747755937"
    stroke="hsla(0,50%,50%,0.6)"
    stroke-width="1"
    transform="translate(16.0919835982,-15.8279355588)"
    />
  
  <line
    x1="-32.11262798634812"
    y1="11.875995449374289"
    x2="16.818181818181817"
    y2="38.333333333333336"
    stroke="hsla(0,50%,50%,0.6)"
    stroke-width="1"
    transform="translate(16.0919835982,-15.8279355588)"
    />
  
  <line
    x1="-40.03726690042985"
    y1="14.44181920013332"
    x2="-18.729405749346665"
    y2="19.766219747755937"
    stroke="hsla(0,50%,50%,0.6)"
    stroke-width="1"
    transform="translate(16.0919835982,-15.8279355588)"
    />
  
  <line
    x1="-35"
    y1="45"
    x2="-25"
    y2="58.333333333333336"
    stroke="hsla(0,50%,50%,0.6)"
    stroke-width="1"
    transform="translate(16.0919835982,-15.8279355588)"
    />
  
  <line
    x1="16.818181818181817"
    y1="38.333333333333336"
    x2="-25"
    y2="58.333333333333336"
    stroke="hsla(0,50%,50%,0.6)"
    stroke-width="1"
    transform="translate(16.0919835982,-15.8279355588)"
    />
  
</svg>
