<?xml version="1.0"?>
<!DOCTYPE svg PUBLIC "-//W3C//DTD SVG 1.1//EN"
  "http://www.w3.org/Graphics/SVG/1.1/DTD/svg11.dtd">
<svg
  width="240"
  height="240"
  viewBox="-500 -500 1000 1000" xmlns="http://www.w3.org/2000/svg" version="1.1">
  <rect
    x="0"
    y="0"
    width="100"
    height="100"
    fill="hsla(206,100%,53%,0.3)"
    stroke="hsl(206,100%,53%)"
    stroke-width="3"
    transform="" />
  
  <path
    d="M 
      201.7
      56.0277777777
      L
    
      209.0666666666
      58.0740740740
      L
    
      212.9912224973
      69.0687030818
      L
    
      205.0038733809
      65.2835671407
      L
    
      203.9312202130
      62.2785331588
      L
    
      140.7239819004
      114.0271493212
      L
    
      136.7647058823
      109.1911764705
      z
    "
    fill="hsla(0,0%,50%,0.3)"
    stroke="hsla(0,0%,50%,1)"
    stroke-width="1"
    transform="translate(-174.8779641898,-85.0274635495)"
    />
  
  
  <line
    x1="209.06666666666666"
    y1="58.074074074074076"
    x2="212.99122249737454"
    y2="69.06870308184989"
    stroke="hsla(0,50%,50%,0.6)"
    stroke-width="1"
    transform="translate(-174.8779641898,-85.0274635495)"
    />
  
  <line
    x1="201.7"
    y1="56.02777777777778"
    x2="205.00387338095916"
    y2="65.28356714076418"
    stroke="hsla(0,50%,50%,0.6)"
    stroke-width="1"
    transform="translate(-174.8779641898,-85.0274635495)"
    />
  
  <line
    x1="205.00387338095916"
    y1="65.28356714076418"
    x2="212.99122249737454"
    y2="69.06870308184989"
    stroke="hsla(0,50%,50%,0.6)"
    stroke-width="1"
    transform="translate(-174.8779641898,-85.0274635495)"
    />
  
  <line
    x1="136.76470588235293"
    y1="109.19117647058823"
    x2="140.7239819004525"
    y2="114.02714932126698"
    stroke="hsla(0,50%,50%,0.6)"
    stroke-width="1"
    transform="translate(-174.8779641898,-85.0274635495)"
    />
  
  <line
    x1="201.7"
    y1="56.02777777777778"
    x2="209.06666666666666"
    y2="58.074074074074076"
    stroke="hsla(0,50%,50%,0.6)"
    stroke-width="1"
    transform="translate(-174.8779641898,-85.0274635495)"
    />
  
  <line
    x1="210.89011590970972"
    y1="63.182460553099354"
    x2="205.00387338095916"
    y2="65.28356714076418"
    stroke="hsla(0,50%,50%,0.6)"
    stroke-width="1"
    transform="translate(-174.8779641898,-85.0274635495)"
    />
  
  <line
    x1="201.7"
    y1="56.02777777777778"
    x2="136.76470588235293"
    y2="109.19117647058823"
    stroke="hsla(0,50%,50%,0.6)"
    stroke-width="1"
    transform="translate(-174.8779641898,-85.0274635495)"
    />
  
  <line
    x1="209.06666666666666"
    y1="58.074074074074076"
    x2="140.7239819004525"
    y2="114.02714932126698"
    stroke="hsla(0,50%,50%,0.6)"
    stroke-width="1"
    transform="translate(-174.8779641898,-85.0274635495)"
    />
  
</svg>
