<?xml version="1.0"?>
<!DOCTYPE svg PUBLIC "-//W3C//DTD SVG 1.1//EN"
  "http://www.w3.org/Graphics/SVG/1.1/DTD/svg11.dtd">
<svg
  width="240"
  height="240"
  viewBox="-500 -500 1000 1000" xmlns="http://www.w3.org/2000/svg" version="1.1">
  <rect
    x="0"
    y="0"
    width="100"
    height="100"
    fill="hsla(206,100%,53%,0.3)"
    stroke="hsl(206,100%,53%)"
    stroke-width="3"
    transform="" />
  
  <path
    d="M 
      155.0609756097
      58.0487804878
      L
    
      158.4184508852
      72.9708928235
      L
    
      159.5627999191
      73.7748800994
      L
    
      175.3384239748
      127.9007076196
      L
    
      182.3780487804
      133.9024390243
      L
    
      178.4355158495
      138.5267633643
      L
    
      178.7289869344
      139.5336563572
      L
    
      169.8075984314
      147.2956119354
      L
    
      139.6389019737
      134.8545600384
      L
    
      127.4996794172
      131.8538533390
      L
    
      141.5167452467
      61.0962323194
      z
    "
    fill="hsla(0,0%,50%,0.3)"
    stroke="hsla(0,0%,50%,1)"
    stroke-width="1"
    transform="translate(-154.9388640988,-102.6721962116)"
    />
  
  
  <line
    x1="159.56279991914636"
    y1="73.77488009948934"
    x2="178.72898693442133"
    y2="139.53365635725044"
    stroke="hsla(0,50%,50%,0.6)"
    stroke-width="1"
    transform="translate(-154.9388640988,-102.6721962116)"
    />
  
  <line
    x1="154.20163579618216"
    y1="86.77533491832709"
    x2="169.80759843143235"
    y2="147.29561193543248"
    stroke="hsla(0,50%,50%,0.6)"
    stroke-width="1"
    transform="translate(-154.9388640988,-102.6721962116)"
    />
  
  <line
    x1="155.0609756097561"
    y1="58.048780487804876"
    x2="174.26829268292684"
    y2="143.41463414634146"
    stroke="hsla(0,50%,50%,0.6)"
    stroke-width="1"
    transform="translate(-154.9388640988,-102.6721962116)"
    />
  
  <line
    x1="141.51674524675857"
    y1="61.09623231947932"
    x2="159.56279991914636"
    y2="73.77488009948934"
    stroke="hsla(0,50%,50%,0.6)"
    stroke-width="1"
    transform="translate(-154.9388640988,-102.6721962116)"
    />
  
  <line
    x1="135.08184045910247"
    y1="93.57938962218351"
    x2="182.3780487804878"
    y2="133.90243902439025"
    stroke="hsla(0,50%,50%,0.6)"
    stroke-width="1"
    transform="translate(-154.9388640988,-102.6721962116)"
    />
  
  <line
    x1="141.51674524675857"
    y1="61.09623231947932"
    x2="127.49967941725005"
    y2="131.8538533390955"
    stroke="hsla(0,50%,50%,0.6)"
    stroke-width="1"
    transform="translate(-154.9388640988,-102.6721962116)"
    />
  
  <line
    x1="135.1397189145317"
    y1="132.99917427419462"
    x2="169.80759843143235"
    y2="147.29561193543248"
    stroke="hsla(0,50%,50%,0.6)"
    stroke-width="1"
    transform="translate(-154.9388640988,-102.6721962116)"
    />
  
  <line
    x1="159.56279991914636"
    y1="73.77488009948934"
    x2="135.1397189145317"
    y2="132.99917427419462"
    stroke="hsla(0,50%,50%,0.6)"
    stroke-width="1"
    transform="translate(-154.9388640988,-102.6721962116)"
    />
  
  <line
    x1="155.0609756097561"
    y1="58.048780487804876"
    x2="141.51674524675857"
    y2="61.09623231947932"
    stroke="hsla(0,50%,50%,0.6)"
    stroke-width="1"
    transform="translate(-154.9388640988,-102.6721962116)"
    />
  
  <line
    x1="127.49967941725005"
    y1="131.8538533390955"
    x2="174.26829268292684"
    y2="143.41463414634146"
    stroke="hsla(0,50%,50%,0.6)"
    stroke-width="1"
    transform="translate(-154.9388640988,-102.6721962116)"
    />
  
  <line
    x1="127.49967941725005"
    y1="131.8538533390955"
    x2="178.72898693442133"
    y2="139.53365635725044"
    stroke="hsla(0,50%,50%,0.6)"
    stroke-width="1"
    transform="translate(-154.9388640988,-102.6721962116)"
    />
  
  <line
    x1="162.7122997517126"
    y1="84.58074642274502"
    x2="154.20163579618216"
    y2="86.77533491832709"
    stroke="hsla(0,50%,50%,0.6)"
    stroke-width="1"
    transform="translate(-154.9388640988,-102.6721962116)"
    />
  
  <line
    x1="162.7122997517126"
    y1="84.58074642274502"
    x2="135.08184045910247"
    y2="93.57938962218351"
    stroke="hsla(0,50%,50%,0.6)"
    stroke-width="1"
    transform="translate(-154.9388640988,-102.6721962116)"
    />
  
  <line
    x1="182.3780487804878"
    y1="133.90243902439025"
    x2="174.26829268292684"
    y2="143.41463414634146"
    stroke="hsla(0,50%,50%,0.6)"
    stroke-width="1"
    transform="translate(-154.9388640988,-102.6721962116)"
    />
  
  <line
    x1="178.72898693442133"
    y1="139.53365635725044"
    x2="169.80759843143235"
    y2="147.29561193543248"
    stroke="hsla(0,50%,50%,0.6)"
    stroke-width="1"
    transform="translate(-154.9388640988,-102.6721962116)"
    />
  
</svg>
