<?xml version="1.0"?>
<!DOCTYPE svg PUBLIC "-//W3C//DTD SVG 1.1//EN"
  "http://www.w3.org/Graphics/SVG/1.1/DTD/svg11.dtd">
<svg
  width="240"
  height="240"
  viewBox="-50 -50 200 200" xmlns="http://www.w3.org/2000/svg" version="1.1">
  <rect
    x="0"
    y="0"
    width="100"
    height="100"
    fill="hsla(206,100%,53%,0.3)"
    stroke="hsl(206,100%,53%)"
    stroke-width="3"
    transform="" />
  
  <path
    d="M 
      21.7944011409
      -44.1680394212
      L
    
      29.5615694098
      -32.7945509570
      L
    
      0
      16.7059374303
      L
    
      0
      18.6538461538
      L
    
      -3.4367044665
      22.4606572552
      L
    
      -13.5385327470
      14.9965285813
      L
    
      13.3845823030
      -30.0859000749
      L
    
      13.1237327796
      -30.0422238151
      L
    
      11.0594874232
      -42.3706012878
      z
    "
    fill="hsla(0,0%,50%,0.3)"
    stroke="hsla(0,0%,50%,1)"
    stroke-width="1"
    transform="translate(-9.7308036431,30.6960691678) scale(1,-1) translate(50,-110)"
    />
  
  
  <line
    x1="21.794401140946324"
    y1="-44.168039421283936"
    x2="11.05948742325146"
    y2="-42.370601287806835"
    stroke="hsla(0,50%,50%,0.6)"
    stroke-width="1"
    transform="translate(-9.7308036431,30.6960691678) scale(1,-1) translate(50,-110)"
    />
  
  <line
    x1="29.56156940988683"
    y1="-32.79455095702845"
    x2="13.123732779666568"
    y2="-30.042223815141636"
    stroke="hsla(0,50%,50%,0.6)"
    stroke-width="1"
    transform="translate(-9.7308036431,30.6960691678) scale(1,-1) translate(50,-110)"
    />
  
  <line
    x1="21.794401140946324"
    y1="-44.168039421283936"
    x2="29.56156940988683"
    y2="-32.79455095702845"
    stroke="hsla(0,50%,50%,0.6)"
    stroke-width="1"
    transform="translate(-9.7308036431,30.6960691678) scale(1,-1) translate(50,-110)"
    />
  
  <line
    x1="11.05948742325146"
    y1="-42.370601287806835"
    x2="13.123732779666568"
    y2="-30.042223815141636"
    stroke="hsla(0,50%,50%,0.6)"
    stroke-width="1"
    transform="translate(-9.7308036431,30.6960691678) scale(1,-1) translate(50,-110)"
    />
  
  <line
    x1="21.794401140946324"
    y1="-44.168039421283936"
    x2="-13.538532747049294"
    y2="14.99652858134691"
    stroke="hsla(0,50%,50%,0.6)"
    stroke-width="1"
    transform="translate(-9.7308036431,30.6960691678) scale(1,-1) translate(50,-110)"
    />
  
  <line
    x1="0"
    y1="0"
    x2="0"
    y2="18.653846153846153"
    stroke="hsla(0,50%,50%,0.6)"
    stroke-width="1"
    transform="translate(-9.7308036431,30.6960691678) scale(1,-1) translate(50,-110)"
    />
  
  <line
    x1="0"
    y1="0"
    x2="-5.555555555555555"
    y2="12.5"
    stroke="hsla(0,50%,50%,0.6)"
    stroke-width="1"
    transform="translate(-9.7308036431,30.6960691678) scale(1,-1) translate(50,-110)"
    />
  
  <line
    x1="0"
    y1="0"
    x2="-13.538532747049294"
    y2="14.99652858134691"
    stroke="hsla(0,50%,50%,0.6)"
    stroke-width="1"
    transform="translate(-9.7308036431,30.6960691678) scale(1,-1) translate(50,-110)"
    />
  
  <line
    x1="29.56156940988683"
    y1="-32.79455095702845"
    x2="-3.436704466558667"
    y2="22.460657255264984"
    stroke="hsla(0,50%,50%,0.6)"
    stroke-width="1"
    transform="translate(-9.7308036431,30.6960691678) scale(1,-1) translate(50,-110)"
    />
  
  <line
    x1="-5.555555555555555"
    y1="12.5"
    x2="0"
    y2="18.653846153846153"
    stroke="hsla(0,50%,50%,0.6)"
    stroke-width="1"
    transform="translate(-9.7308036431,30.6960691678) scale(1,-1) translate(50,-110)"
    />
  
  <line
    x1="0"
    y1="18.653846153846153"
    x2="-3.436704466558667"
    y2="22.460657255264984"
    stroke="hsla(0,50%,50%,0.6)"
    stroke-width="1"
    transform="translate(-9.7308036431,30.6960691678) scale(1,-1) translate(50,-110)"
    />
  
  <line
    x1="-5.555555555555555"
    y1="12.5"
    x2="0"
    y2="12.5"
    stroke="hsla(0,50%,50%,0.6)"
    stroke-width="1"
    transform="translate(-9.7308036431,30.6960691678) scale(1,-1) translate(50,-110)"
    />
  
  <line
    x1="-13.538532747049294"
    y1="14.99652858134691"
    x2="-3.436704466558667"
    y2="22.460657255264984"
    stroke="hsla(0,50%,50%,0.6)"
    stroke-width="1"
    transform="translate(-9.7308036431,30.6960691678) scale(1,-1) translate(50,-110)"
    />
  
</svg>
