<?xml version="1.0"?>
<!DOCTYPE svg PUBLIC "-//W3C//DTD SVG 1.1//EN"
  "http://www.w3.org/Graphics/SVG/1.1/DTD/svg11.dtd">
<svg
  width="240"
  height="240"
  viewBox="-500 -500 1000 1000" xmlns="http://www.w3.org/2000/svg" version="1.1">
  <rect
    x="0"
    y="0"
    width="100"
    height="100"
    fill="hsla(206,100%,53%,0.3)"
    stroke="hsl(206,100%,53%)"
    stroke-width="3"
    transform="" />
  
  <path
    d="M 
      17.1966638303
      183.3981497321
      L
    
      17.4436766280
      186.7385094603
      L
    
      18.6919981704
      186.7310154824
      L
    
      18.7670373593
      199.2307902452
      L
    
      -31.4890555418
      199.5324897972
      L
    
      -31.9880648323
      187.0352602301
      z
    "
    fill="hsla(0,0%,50%,0.3)"
    stroke="hsla(0,0%,50%,1)"
    stroke-width="1"
    transform="translate(6.6105137365,-191.4653197646)"
    />
  
  
  <line
    x1="17.196663830303187"
    y1="183.39814973211838"
    x2="18.11849637569941"
    y2="195.86411238079694"
    stroke="hsla(0,50%,50%,0.6)"
    stroke-width="1"
    transform="translate(6.6105137365,-191.4653197646)"
    />
  
  <line
    x1="18.691998170475458"
    y1="186.73101548246362"
    x2="18.767037359332864"
    y2="199.23079024523977"
    stroke="hsla(0,50%,50%,0.6)"
    stroke-width="1"
    transform="translate(6.6105137365,-191.4653197646)"
    />
  
  <line
    x1="-31.988064832348982"
    y1="187.03526023016096"
    x2="-31.489055541871668"
    y2="199.53248979727326"
    stroke="hsla(0,50%,50%,0.6)"
    stroke-width="1"
    transform="translate(6.6105137365,-191.4653197646)"
    />
  
  <line
    x1="17.196663830303187"
    y1="183.39814973211838"
    x2="-31.988064832348982"
    y2="187.03526023016096"
    stroke="hsla(0,50%,50%,0.6)"
    stroke-width="1"
    transform="translate(6.6105137365,-191.4653197646)"
    />
  
  <line
    x1="18.691998170475458"
    y1="186.73101548246362"
    x2="-31.988064832348982"
    y2="187.03526023016096"
    stroke="hsla(0,50%,50%,0.6)"
    stroke-width="1"
    transform="translate(6.6105137365,-191.4653197646)"
    />
  
  <line
    x1="18.11849637569941"
    y1="195.86411238079694"
    x2="-31.489055541871668"
    y2="199.53248979727326"
    stroke="hsla(0,50%,50%,0.6)"
    stroke-width="1"
    transform="translate(6.6105137365,-191.4653197646)"
    />
  
  <line
    x1="18.767037359332864"
    y1="199.23079024523977"
    x2="-31.489055541871668"
    y2="199.53248979727326"
    stroke="hsla(0,50%,50%,0.6)"
    stroke-width="1"
    transform="translate(6.6105137365,-191.4653197646)"
    />
  
</svg>
