<?xml version="1.0"?>
<!DOCTYPE svg PUBLIC "-//W3C//DTD SVG 1.1//EN"
  "http://www.w3.org/Graphics/SVG/1.1/DTD/svg11.dtd">
<svg
  width="240"
  height="240"
  viewBox="-50 -50 200 200" xmlns="http://www.w3.org/2000/svg" version="1.1">
  <rect
    x="0"
    y="0"
    width="100"
    height="100"
    fill="hsla(206,100%,53%,0.3)"
    stroke="hsl(206,100%,53%)"
    stroke-width="3"
    transform="" />
  
  <path
    d="M 
      -43.3498151330
      146.1698953288
      L
    
      5.3361453939
      160.7885486642
      L
    
      1.7413945737
      172.7605061709
      L
    
      -45.3863111666
      158.6097410374
      L
    
      -46.3923848894
      159.8374796062
      L
    
      -49.3389574545
      157.4229026714
      z
    "
    fill="hsla(0,0%,50%,0.3)"
    stroke="hsla(0,0%,50%,1)"
    stroke-width="1"
    transform="translate(43.0199538639,-158.8870218774) scale(1,-1) translate(50,-110)"
    />
  
  
  <line
    x1="-8.346091756496381"
    y1="156.68026201263194"
    x2="-11.940842576680726"
    y2="168.65221951927154"
    stroke="hsla(0,50%,50%,0.6)"
    stroke-width="1"
    transform="translate(43.0199538639,-158.8870218774) scale(1,-1) translate(50,-110)"
    />
  
  <line
    x1="-43.349815133052125"
    y1="146.16989532885486"
    x2="-49.338957454564394"
    y2="157.4229026714576"
    stroke="hsla(0,50%,50%,0.6)"
    stroke-width="1"
    transform="translate(43.0199538639,-158.8870218774) scale(1,-1) translate(50,-110)"
    />
  
  <line
    x1="5.336145393948862"
    y1="160.78854866427122"
    x2="1.741394573764516"
    y2="172.7605061709108"
    stroke="hsla(0,50%,50%,0.6)"
    stroke-width="1"
    transform="translate(43.0199538639,-158.8870218774) scale(1,-1) translate(50,-110)"
    />
  
  <line
    x1="-38.46955432215548"
    y1="150.16903837713087"
    x2="-46.392384889494714"
    y2="159.83747960626573"
    stroke="hsla(0,50%,50%,0.6)"
    stroke-width="1"
    transform="translate(43.0199538639,-158.8870218774) scale(1,-1) translate(50,-110)"
    />
  
  <line
    x1="-43.349815133052125"
    y1="146.16989532885486"
    x2="-38.46955432215548"
    y2="150.16903837713087"
    stroke="hsla(0,50%,50%,0.6)"
    stroke-width="1"
    transform="translate(43.0199538639,-158.8870218774) scale(1,-1) translate(50,-110)"
    />
  
  <line
    x1="-49.338957454564394"
    y1="157.4229026714576"
    x2="-46.392384889494714"
    y2="159.83747960626573"
    stroke="hsla(0,50%,50%,0.6)"
    stroke-width="1"
    transform="translate(43.0199538639,-158.8870218774) scale(1,-1) translate(50,-110)"
    />
  
  <line
    x1="-43.349815133052125"
    y1="146.16989532885486"
    x2="5.336145393948862"
    y2="160.78854866427122"
    stroke="hsla(0,50%,50%,0.6)"
    stroke-width="1"
    transform="translate(43.0199538639,-158.8870218774) scale(1,-1) translate(50,-110)"
    />
  
  <line
    x1="-49.338957454564394"
    y1="157.4229026714576"
    x2="1.741394573764516"
    y2="172.7605061709108"
    stroke="hsla(0,50%,50%,0.6)"
    stroke-width="1"
    transform="translate(43.0199538639,-158.8870218774) scale(1,-1) translate(50,-110)"
    />
  
</svg>
