<?xml version="1.0"?>
<!DOCTYPE svg PUBLIC "-//W3C//DTD SVG 1.1//EN"
  "http://www.w3.org/Graphics/SVG/1.1/DTD/svg11.dtd">
<svg
  width="240"
  height="240"
  viewBox="-50 -50 200 200" xmlns="http://www.w3.org/2000/svg" version="1.1">
  <rect
    x="0"
    y="0"
    width="100"
    height="100"
    fill="hsla(206,100%,53%,0.3)"
    stroke="hsl(206,100%,53%)"
    stroke-width="3"
    transform="" />
  
  <path
    d="M 
      -37.1461794813
      -8.3923814647
      L
    
      -36.0316902782
      -7.4900154808
      L
    
      19.8453576864
      56.5357686453
      L
    
      9.9636872239
      68.3971144245
      L
    
      4.3138037994
      66.2491846053
      L
    
      -11.8955942243
      76.3865235098
      L
    
      -16.7967933866
      72.4181805306
      L
    
      -52.8778248631
      11.0373723571
      z
    "
    fill="hsla(0,0%,50%,0.3)"
    stroke="hsla(0,0%,50%,1)"
    stroke-width="1"
    transform="translate(31.8057004867,-40.2088207724) scale(1,-1) translate(50,-110)"
    />
  
  
  <line
    x1="-37.14617948134525"
    y1="-8.392381464799286"
    x2="-52.877824863195976"
    y2="11.03737235710218"
    stroke="hsla(0,50%,50%,0.6)"
    stroke-width="1"
    transform="translate(31.8057004867,-40.2088207724) scale(1,-1) translate(50,-110)"
    />
  
  <line
    x1="-28.24948678849652"
    y1="6.742612331407035"
    x2="-52.877824863195976"
    y2="11.03737235710218"
    stroke="hsla(0,50%,50%,0.6)"
    stroke-width="1"
    transform="translate(31.8057004867,-40.2088207724) scale(1,-1) translate(50,-110)"
    />
  
  <line
    x1="-28.24948678849652"
    y1="6.742612331407035"
    x2="-16.796793386642797"
    y2="72.4181805306056"
    stroke="hsla(0,50%,50%,0.6)"
    stroke-width="1"
    transform="translate(31.8057004867,-40.2088207724) scale(1,-1) translate(50,-110)"
    />
  
  <line
    x1="-17.99355358581789"
    y1="50.05640612409347"
    x2="-11.895594224361348"
    y2="76.38652350981118"
    stroke="hsla(0,50%,50%,0.6)"
    stroke-width="1"
    transform="translate(31.8057004867,-40.2088207724) scale(1,-1) translate(50,-110)"
    />
  
  <line
    x1="8.779299847792998"
    y1="43.855910705225774"
    x2="0.7771510430656281"
    y2="64.90464679022294"
    stroke="hsla(0,50%,50%,0.6)"
    stroke-width="1"
    transform="translate(31.8057004867,-40.2088207724) scale(1,-1) translate(50,-110)"
    />
  
  <line
    x1="-37.14617948134525"
    y1="-8.392381464799286"
    x2="-36.03169027826562"
    y2="-7.490015480883061"
    stroke="hsla(0,50%,50%,0.6)"
    stroke-width="1"
    transform="translate(31.8057004867,-40.2088207724) scale(1,-1) translate(50,-110)"
    />
  
  <line
    x1="-36.03169027826562"
    y1="-7.490015480883061"
    x2="9.963687223961196"
    y2="68.39711442451168"
    stroke="hsla(0,50%,50%,0.6)"
    stroke-width="1"
    transform="translate(31.8057004867,-40.2088207724) scale(1,-1) translate(50,-110)"
    />
  
  <line
    x1="-36.03169027826562"
    y1="-7.490015480883061"
    x2="19.84535768645358"
    y2="56.535768645357685"
    stroke="hsla(0,50%,50%,0.6)"
    stroke-width="1"
    transform="translate(31.8057004867,-40.2088207724) scale(1,-1) translate(50,-110)"
    />
  
  <line
    x1="-52.877824863195976"
    y1="11.03737235710218"
    x2="-16.796793386642797"
    y2="72.4181805306056"
    stroke="hsla(0,50%,50%,0.6)"
    stroke-width="1"
    transform="translate(31.8057004867,-40.2088207724) scale(1,-1) translate(50,-110)"
    />
  
  <line
    x1="19.84535768645358"
    y1="56.535768645357685"
    x2="9.963687223961196"
    y2="68.39711442451168"
    stroke="hsla(0,50%,50%,0.6)"
    stroke-width="1"
    transform="translate(31.8057004867,-40.2088207724) scale(1,-1) translate(50,-110)"
    />
  
  <line
    x1="8.779299847792998"
    y1="43.855910705225774"
    x2="-17.99355358581789"
    y2="50.05640612409347"
    stroke="hsla(0,50%,50%,0.6)"
    stroke-width="1"
    transform="translate(31.8057004867,-40.2088207724) scale(1,-1) translate(50,-110)"
    />
  
  <line
    x1="19.84535768645358"
    y1="56.535768645357685"
    x2="-11.895594224361348"
    y2="76.38652350981118"
    stroke="hsla(0,50%,50%,0.6)"
    stroke-width="1"
    transform="translate(31.8057004867,-40.2088207724) scale(1,-1) translate(50,-110)"
    />
  
  <line
    x1="-16.796793386642797"
    y1="72.4181805306056"
    x2="-11.895594224361348"
    y2="76.38652350981118"
    stroke="hsla(0,50%,50%,0.6)"
    stroke-width="1"
    transform="translate(31.8057004867,-40.2088207724) scale(1,-1) translate(50,-110)"
    />
  
  <line
    x1="0.7771510430656281"
    y1="64.90464679022294"
    x2="9.963687223961196"
    y2="68.39711442451168"
    stroke="hsla(0,50%,50%,0.6)"
    stroke-width="1"
    transform="translate(31.8057004867,-40.2088207724) scale(1,-1) translate(50,-110)"
    />
  
</svg>
