<?xml version="1.0"?>
<!DOCTYPE svg PUBLIC "-//W3C//DTD SVG 1.1//EN"
  "http://www.w3.org/Graphics/SVG/1.1/DTD/svg11.dtd">
<svg
  width="240"
  height="240"
  viewBox="-500 -500 1000 1000" xmlns="http://www.w3.org/2000/svg" version="1.1">
  <rect
    x="0"
    y="0"
    width="100"
    height="100"
    fill="hsla(206,100%,53%,0.3)"
    stroke="hsl(206,100%,53%)"
    stroke-width="3"
    transform="" />
  
  <path
    d="M 
      27.9069767441
      141.8604651162
      L
    
      44.5874051994
      166.8811077991
      L
    
      30.0342376260
      183.0654411577
      L
    
      11.1332279840
      178.6244165492
      L
    
      9.1658900279
      179.3150046598
      L
    
      9.6634995318
      178.2790857787
      L
    
      -1.1994868067
      175.7266935750
      L
    
      -10.1351351351
      185.8108108108
      L
    
      -28.8461538461
      169.2307692307
      z
    "
    fill="hsla(0,0%,50%,0.3)"
    stroke="hsla(0,0%,50%,1)"
    stroke-width="1"
    transform="translate(-7.8706256766,-163.8356379635)"
    />
  
  
  <line
    x1="19.974733295901178"
    y1="145.68594422609021"
    x2="20.515807584773103"
    y2="155.88188605429986"
    stroke="hsla(0,50%,50%,0.6)"
    stroke-width="1"
    transform="translate(-7.8706256766,-163.8356379635)"
    />
  
  <line
    x1="-1.4332278502296865"
    y1="156.01035101996894"
    x2="-4.155592515592516"
    y2="173.15201663201663"
    stroke="hsla(0,50%,50%,0.6)"
    stroke-width="1"
    transform="translate(-7.8706256766,-163.8356379635)"
    />
  
  <line
    x1="20.515807584773103"
    y1="155.88188605429986"
    x2="30.03423762600626"
    y2="183.06544115776597"
    stroke="hsla(0,50%,50%,0.6)"
    stroke-width="1"
    transform="translate(-7.8706256766,-163.8356379635)"
    />
  
  <line
    x1="27.906976744186046"
    y1="141.86046511627907"
    x2="44.587405199411386"
    y2="166.88110779911707"
    stroke="hsla(0,50%,50%,0.6)"
    stroke-width="1"
    transform="translate(-7.8706256766,-163.8356379635)"
    />
  
  <line
    x1="26.598837209302324"
    y1="143.02325581395348"
    x2="9.165890027958994"
    y2="179.31500465983225"
    stroke="hsla(0,50%,50%,0.6)"
    stroke-width="1"
    transform="translate(-7.8706256766,-163.8356379635)"
    />
  
  <line
    x1="20.515807584773103"
    y1="155.88188605429986"
    x2="35.556993457460955"
    y2="176.9236771064797"
    stroke="hsla(0,50%,50%,0.6)"
    stroke-width="1"
    transform="translate(-7.8706256766,-163.8356379635)"
    />
  
  <line
    x1="19.974733295901178"
    y1="145.68594422609021"
    x2="23.024948024948024"
    y2="148.3887733887734"
    stroke="hsla(0,50%,50%,0.6)"
    stroke-width="1"
    transform="translate(-7.8706256766,-163.8356379635)"
    />
  
  <line
    x1="28.294573643410853"
    y1="142.4418604651163"
    x2="-10.135135135135135"
    y2="185.8108108108108"
    stroke="hsla(0,50%,50%,0.6)"
    stroke-width="1"
    transform="translate(-7.8706256766,-163.8356379635)"
    />
  
  <line
    x1="27.906976744186046"
    y1="141.86046511627907"
    x2="26.598837209302324"
    y2="143.02325581395348"
    stroke="hsla(0,50%,50%,0.6)"
    stroke-width="1"
    transform="translate(-7.8706256766,-163.8356379635)"
    />
  
  <line
    x1="44.587405199411386"
    y1="166.88110779911707"
    x2="30.03423762600626"
    y2="183.06544115776597"
    stroke="hsla(0,50%,50%,0.6)"
    stroke-width="1"
    transform="translate(-7.8706256766,-163.8356379635)"
    />
  
  <line
    x1="-28.846153846153847"
    y1="169.23076923076923"
    x2="-10.135135135135135"
    y2="185.8108108108108"
    stroke="hsla(0,50%,50%,0.6)"
    stroke-width="1"
    transform="translate(-7.8706256766,-163.8356379635)"
    />
  
  <line
    x1="-1.4332278502296865"
    y1="156.01035101996894"
    x2="35.556993457460955"
    y2="176.9236771064797"
    stroke="hsla(0,50%,50%,0.6)"
    stroke-width="1"
    transform="translate(-7.8706256766,-163.8356379635)"
    />
  
  <line
    x1="27.906976744186046"
    y1="141.86046511627907"
    x2="-28.846153846153847"
    y2="169.23076923076923"
    stroke="hsla(0,50%,50%,0.6)"
    stroke-width="1"
    transform="translate(-7.8706256766,-163.8356379635)"
    />
  
  <line
    x1="28.294573643410853"
    y1="142.4418604651163"
    x2="26.598837209302324"
    y2="143.02325581395348"
    stroke="hsla(0,50%,50%,0.6)"
    stroke-width="1"
    transform="translate(-7.8706256766,-163.8356379635)"
    />
  
  <line
    x1="44.587405199411386"
    y1="166.88110779911707"
    x2="9.165890027958994"
    y2="179.31500465983225"
    stroke="hsla(0,50%,50%,0.6)"
    stroke-width="1"
    transform="translate(-7.8706256766,-163.8356379635)"
    />
  
  <line
    x1="-28.846153846153847"
    y1="169.23076923076923"
    x2="30.03423762600626"
    y2="183.06544115776597"
    stroke="hsla(0,50%,50%,0.6)"
    stroke-width="1"
    transform="translate(-7.8706256766,-163.8356379635)"
    />
  
  <line
    x1="-28.846153846153847"
    y1="169.23076923076923"
    x2="-4.155592515592516"
    y2="173.15201663201663"
    stroke="hsla(0,50%,50%,0.6)"
    stroke-width="1"
    transform="translate(-7.8706256766,-163.8356379635)"
    />
  
</svg>
