<?xml version="1.0"?>
<!DOCTYPE svg PUBLIC "-//W3C//DTD SVG 1.1//EN"
  "http://www.w3.org/Graphics/SVG/1.1/DTD/svg11.dtd">
<svg
  width="240"
  height="240"
  viewBox="-500 -500 1000 1000" xmlns="http://www.w3.org/2000/svg" version="1.1">
  <rect
    x="0"
    y="0"
    width="100"
    height="100"
    fill="hsla(206,100%,53%,0.3)"
    stroke="hsl(206,100%,53%)"
    stroke-width="3"
    transform="" />
  
  <path
    d="M 
      33.1628303495
      -50.7672634271
      L
    
      45.0980392156
      2.9411764705
      L
    
      23.1593687725
      28.5362919875
      L
    
      23.1938963430
      28.6205384547
      L
    
      22.0430107526
      29.8387096774
      L
    
      0
      10
      L
    
      0
      0
      L
    
      6.4069264069
      0
      L
    
      -7.6190476190
      -30
      L
    
      -9.8039215686
      -44.1176470588
      z
    "
    fill="hsla(0,0%,50%,0.3)"
    stroke="hsla(0,0%,50%,1)"
    stroke-width="1"
    transform="translate(-17.6470588235,10.4642768748)"
    />
  
  
  <line
    x1="33.16283034953112"
    y1="-50.767263427109974"
    x2="-9.803921568627452"
    y2="-44.11764705882353"
    stroke="hsla(0,50%,50%,0.6)"
    stroke-width="1"
    transform="translate(-17.6470588235,10.4642768748)"
    />
  
  <line
    x1="33.16283034953112"
    y1="-50.767263427109974"
    x2="26.901960784313726"
    y2="-48.94117647058823"
    stroke="hsla(0,50%,50%,0.6)"
    stroke-width="1"
    transform="translate(-17.6470588235,10.4642768748)"
    />
  
  <line
    x1="41.568627450980394"
    y1="1.3445378151260505"
    x2="45.09803921568628"
    y2="2.9411764705882355"
    stroke="hsla(0,50%,50%,0.6)"
    stroke-width="1"
    transform="translate(-17.6470588235,10.4642768748)"
    />
  
  <line
    x1="26.901960784313726"
    y1="-48.94117647058823"
    x2="41.568627450980394"
    y2="1.3445378151260505"
    stroke="hsla(0,50%,50%,0.6)"
    stroke-width="1"
    transform="translate(-17.6470588235,10.4642768748)"
    />
  
  <line
    x1="33.16283034953112"
    y1="-50.767263427109974"
    x2="45.09803921568628"
    y2="2.9411764705882355"
    stroke="hsla(0,50%,50%,0.6)"
    stroke-width="1"
    transform="translate(-17.6470588235,10.4642768748)"
    />
  
  <line
    x1="-7.619047619047619"
    y1="-30"
    x2="33.36839030090564"
    y2="16.625766871165645"
    stroke="hsla(0,50%,50%,0.6)"
    stroke-width="1"
    transform="translate(-17.6470588235,10.4642768748)"
    />
  
  <line
    x1="14.917127071823204"
    y1="8.425414364640885"
    x2="23.193896343067614"
    y2="28.620538454792598"
    stroke="hsla(0,50%,50%,0.6)"
    stroke-width="1"
    transform="translate(-17.6470588235,10.4642768748)"
    />
  
  <line
    x1="13.44"
    y1="3.92"
    x2="33.36839030090564"
    y2="16.625766871165645"
    stroke="hsla(0,50%,50%,0.6)"
    stroke-width="1"
    transform="translate(-17.6470588235,10.4642768748)"
    />
  
  <line
    x1="-7.619047619047619"
    y1="-30"
    x2="19.13303437967115"
    y2="27.219730941704036"
    stroke="hsla(0,50%,50%,0.6)"
    stroke-width="1"
    transform="translate(-17.6470588235,10.4642768748)"
    />
  
  <line
    x1="0"
    y1="0"
    x2="44.44444444444444"
    y2="0"
    stroke="hsla(0,50%,50%,0.6)"
    stroke-width="1"
    transform="translate(-17.6470588235,10.4642768748)"
    />
  
  <line
    x1="0"
    y1="0"
    x2="0"
    y2="10"
    stroke="hsla(0,50%,50%,0.6)"
    stroke-width="1"
    transform="translate(-17.6470588235,10.4642768748)"
    />
  
  <line
    x1="-9.803921568627452"
    y1="-44.11764705882353"
    x2="-7.619047619047619"
    y2="-30"
    stroke="hsla(0,50%,50%,0.6)"
    stroke-width="1"
    transform="translate(-17.6470588235,10.4642768748)"
    />
  
  <line
    x1="0"
    y1="10"
    x2="22.043010752688172"
    y2="29.838709677419356"
    stroke="hsla(0,50%,50%,0.6)"
    stroke-width="1"
    transform="translate(-17.6470588235,10.4642768748)"
    />
  
  <line
    x1="13.44"
    y1="3.92"
    x2="6.076681938750904"
    y2="15.469013744875815"
    stroke="hsla(0,50%,50%,0.6)"
    stroke-width="1"
    transform="translate(-17.6470588235,10.4642768748)"
    />
  
  <line
    x1="14.917127071823204"
    y1="8.425414364640885"
    x2="0"
    y2="10"
    stroke="hsla(0,50%,50%,0.6)"
    stroke-width="1"
    transform="translate(-17.6470588235,10.4642768748)"
    />
  
  <line
    x1="14.917127071823204"
    y1="8.425414364640885"
    x2="6.076681938750904"
    y2="15.469013744875815"
    stroke="hsla(0,50%,50%,0.6)"
    stroke-width="1"
    transform="translate(-17.6470588235,10.4642768748)"
    />
  
  <line
    x1="44.44444444444444"
    y1="0"
    x2="41.568627450980394"
    y2="1.3445378151260505"
    stroke="hsla(0,50%,50%,0.6)"
    stroke-width="1"
    transform="translate(-17.6470588235,10.4642768748)"
    />
  
  <line
    x1="19.13303437967115"
    y1="27.219730941704036"
    x2="23.193896343067614"
    y2="28.620538454792598"
    stroke="hsla(0,50%,50%,0.6)"
    stroke-width="1"
    transform="translate(-17.6470588235,10.4642768748)"
    />
  
  <line
    x1="45.09803921568628"
    y1="2.9411764705882355"
    x2="22.043010752688172"
    y2="29.838709677419356"
    stroke="hsla(0,50%,50%,0.6)"
    stroke-width="1"
    transform="translate(-17.6470588235,10.4642768748)"
    />
  
  <line
    x1="23.193896343067614"
    y1="28.620538454792598"
    x2="22.043010752688172"
    y2="29.838709677419356"
    stroke="hsla(0,50%,50%,0.6)"
    stroke-width="1"
    transform="translate(-17.6470588235,10.4642768748)"
    />
  
</svg>
