<?xml version="1.0"?>
<!DOCTYPE svg PUBLIC "-//W3C//DTD SVG 1.1//EN"
  "http://www.w3.org/Graphics/SVG/1.1/DTD/svg11.dtd">
<svg
  width="240"
  height="240"
  viewBox="-500 -500 1000 1000" xmlns="http://www.w3.org/2000/svg" version="1.1">
  <rect
    x="0"
    y="0"
    width="100"
    height="100"
    fill="hsla(206,100%,53%,0.3)"
    stroke="hsl(206,100%,53%)"
    stroke-width="3"
    transform="" />
  
  <path
    d="M 
      48.0612020836
      -21.6567544207
      L
    
      91.0699152047
      3.8432572589
      L
    
      85.4032459425
      13.4007490636
      L
    
      55.0218340611
      34.7598253275
      L
    
      29.7345132743
      37.1681415929
      L
    
      12.5
      15.625
      L
    
      9.7560975609
      2.1951219512
      L
    
      17.8692764058
      -3.6509304801
      L
    
      28.5757975392
      11.2076295106
      z
    "
    fill="hsla(0,0%,50%,0.3)"
    stroke="hsla(0,0%,50%,1)"
    stroke-width="1"
    transform="translate(-50.4130063828,-7.7556935860)"
    />
  
  
  <line
    x1="48.061202083674"
    y1="-21.656754420799366"
    x2="91.06991520474666"
    y2="3.843257258987596"
    stroke="hsla(0,50%,50%,0.6)"
    stroke-width="1"
    transform="translate(-50.4130063828,-7.7556935860)"
    />
  
  <line
    x1="17.869276405861772"
    y1="-3.650930480198773"
    x2="35.21489476909895"
    y2="20.421399627511768"
    stroke="hsla(0,50%,50%,0.6)"
    stroke-width="1"
    transform="translate(-50.4130063828,-7.7556935860)"
    />
  
  <line
    x1="9.75609756097561"
    y1="2.1951219512195124"
    x2="12.5"
    y2="15.625"
    stroke="hsla(0,50%,50%,0.6)"
    stroke-width="1"
    transform="translate(-50.4130063828,-7.7556935860)"
    />
  
  <line
    x1="24.390243902439025"
    y1="5.487804878048781"
    x2="26.08695652173913"
    y2="32.608695652173914"
    stroke="hsla(0,50%,50%,0.6)"
    stroke-width="1"
    transform="translate(-50.4130063828,-7.7556935860)"
    />
  
  <line
    x1="22.546004766492572"
    y1="9.544834440444196"
    x2="23.68696428779587"
    y2="29.60870535974484"
    stroke="hsla(0,50%,50%,0.6)"
    stroke-width="1"
    transform="translate(-50.4130063828,-7.7556935860)"
    />
  
  <line
    x1="9.75609756097561"
    y1="2.1951219512195124"
    x2="24.390243902439025"
    y2="5.487804878048781"
    stroke="hsla(0,50%,50%,0.6)"
    stroke-width="1"
    transform="translate(-50.4130063828,-7.7556935860)"
    />
  
  <line
    x1="12.5"
    y1="15.625"
    x2="29.734513274336283"
    y2="37.16814159292036"
    stroke="hsla(0,50%,50%,0.6)"
    stroke-width="1"
    transform="translate(-50.4130063828,-7.7556935860)"
    />
  
  <line
    x1="17.869276405861772"
    y1="-3.650930480198773"
    x2="9.75609756097561"
    y2="2.1951219512195124"
    stroke="hsla(0,50%,50%,0.6)"
    stroke-width="1"
    transform="translate(-50.4130063828,-7.7556935860)"
    />
  
  <line
    x1="12.5"
    y1="15.625"
    x2="55.02183406113537"
    y2="34.75982532751092"
    stroke="hsla(0,50%,50%,0.6)"
    stroke-width="1"
    transform="translate(-50.4130063828,-7.7556935860)"
    />
  
  <line
    x1="22.546004766492572"
    y1="9.544834440444196"
    x2="11.387388424164396"
    y2="10.179384453826845"
    stroke="hsla(0,50%,50%,0.6)"
    stroke-width="1"
    transform="translate(-50.4130063828,-7.7556935860)"
    />
  
  <line
    x1="35.21489476909895"
    y1="20.421399627511768"
    x2="29.734513274336283"
    y2="37.16814159292036"
    stroke="hsla(0,50%,50%,0.6)"
    stroke-width="1"
    transform="translate(-50.4130063828,-7.7556935860)"
    />
  
  <line
    x1="24.390243902439025"
    y1="5.487804878048781"
    x2="11.387388424164396"
    y2="10.179384453826845"
    stroke="hsla(0,50%,50%,0.6)"
    stroke-width="1"
    transform="translate(-50.4130063828,-7.7556935860)"
    />
  
  <line
    x1="48.061202083674"
    y1="-21.656754420799366"
    x2="20.228733372378397"
    y2="25.285916715472997"
    stroke="hsla(0,50%,50%,0.6)"
    stroke-width="1"
    transform="translate(-50.4130063828,-7.7556935860)"
    />
  
  <line
    x1="23.68696428779587"
    y1="29.60870535974484"
    x2="45.053292330801824"
    y2="35.70921025420935"
    stroke="hsla(0,50%,50%,0.6)"
    stroke-width="1"
    transform="translate(-50.4130063828,-7.7556935860)"
    />
  
  <line
    x1="26.08695652173913"
    y1="32.608695652173914"
    x2="38.76923076923077"
    y2="36.30769230769231"
    stroke="hsla(0,50%,50%,0.6)"
    stroke-width="1"
    transform="translate(-50.4130063828,-7.7556935860)"
    />
  
  <line
    x1="85.40324594257179"
    y1="13.400749063670412"
    x2="82.28571428571429"
    y2="14"
    stroke="hsla(0,50%,50%,0.6)"
    stroke-width="1"
    transform="translate(-50.4130063828,-7.7556935860)"
    />
  
  <line
    x1="35.21489476909895"
    y1="20.421399627511768"
    x2="20.228733372378397"
    y2="25.285916715472997"
    stroke="hsla(0,50%,50%,0.6)"
    stroke-width="1"
    transform="translate(-50.4130063828,-7.7556935860)"
    />
  
  <line
    x1="55.02183406113537"
    y1="34.75982532751092"
    x2="29.734513274336283"
    y2="37.16814159292036"
    stroke="hsla(0,50%,50%,0.6)"
    stroke-width="1"
    transform="translate(-50.4130063828,-7.7556935860)"
    />
  
  <line
    x1="91.06991520474666"
    y1="3.843257258987596"
    x2="85.40324594257179"
    y2="13.400749063670412"
    stroke="hsla(0,50%,50%,0.6)"
    stroke-width="1"
    transform="translate(-50.4130063828,-7.7556935860)"
    />
  
  <line
    x1="82.28571428571429"
    y1="14"
    x2="38.76923076923077"
    y2="36.30769230769231"
    stroke="hsla(0,50%,50%,0.6)"
    stroke-width="1"
    transform="translate(-50.4130063828,-7.7556935860)"
    />
  
  <line
    x1="75.72308514205498"
    y1="20.206202792791256"
    x2="45.053292330801824"
    y2="35.70921025420935"
    stroke="hsla(0,50%,50%,0.6)"
    stroke-width="1"
    transform="translate(-50.4130063828,-7.7556935860)"
    />
  
  <line
    x1="82.28571428571429"
    y1="14"
    x2="75.72308514205498"
    y2="20.206202792791256"
    stroke="hsla(0,50%,50%,0.6)"
    stroke-width="1"
    transform="translate(-50.4130063828,-7.7556935860)"
    />
  
  <line
    x1="85.40324594257179"
    y1="13.400749063670412"
    x2="55.02183406113537"
    y2="34.75982532751092"
    stroke="hsla(0,50%,50%,0.6)"
    stroke-width="1"
    transform="translate(-50.4130063828,-7.7556935860)"
    />
  
</svg>
