<?xml version="1.0"?>
<!DOCTYPE svg PUBLIC "-//W3C//DTD SVG 1.1//EN"
  "http://www.w3.org/Graphics/SVG/1.1/DTD/svg11.dtd">
<svg
  width="240"
  height="240"
  viewBox="-500 -500 1000 1000" xmlns="http://www.w3.org/2000/svg" version="1.1">
  <rect
    x="0"
    y="0"
    width="100"
    height="100"
    fill="hsla(206,100%,53%,0.3)"
    stroke="hsl(206,100%,53%)"
    stroke-width="3"
    transform="" />
  
  <path
    d="M 
      92.9762476647
      53.8329692002
      L
    
      131.0717832481
      65.0349688201
      L
    
      132.3043693536
      124.0009608840
      L
    
      126.6538023141
      135.1508977508
      L
    
      94.0889073382
      118.6476543338
      L
    
      88.2018717862
      100.4174982817
      L
    
      88.5118457495
      99.8058446022
      L
    
      107.4276995698
      79.6167929259
      L
    
      106.2989316496
      77.6028808795
      L
    
      98.4589397007
      79.2261573965
      L
    
      86.7383161431
      57.1438798097
      z
    "
    fill="hsla(0,0%,50%,0.3)"
    stroke="hsla(0,0%,50%,1)"
    stroke-width="1"
    transform="translate(-109.5213427483,-94.4919334755)"
    />
  
  
  <line
    x1="92.9762476647985"
    y1="53.83296920021893"
    x2="132.30436935364085"
    y2="124.00096088407975"
    stroke="hsla(0,50%,50%,0.6)"
    stroke-width="1"
    transform="translate(-109.5213427483,-94.4919334755)"
    />
  
  <line
    x1="86.73831614311057"
    y1="57.14387980973014"
    x2="98.45893970078023"
    y2="79.22615739650544"
    stroke="hsla(0,50%,50%,0.6)"
    stroke-width="1"
    transform="translate(-109.5213427483,-94.4919334755)"
    />
  
  <line
    x1="123.24599308808068"
    y1="62.73379370717489"
    x2="125.24765131970896"
    y2="73.67953352581054"
    stroke="hsla(0,50%,50%,0.6)"
    stroke-width="1"
    transform="translate(-109.5213427483,-94.4919334755)"
    />
  
  <line
    x1="88.20187178621471"
    y1="100.41749828175669"
    x2="94.08890733829392"
    y2="118.64765433381581"
    stroke="hsla(0,50%,50%,0.6)"
    stroke-width="1"
    transform="translate(-109.5213427483,-94.4919334755)"
    />
  
  <line
    x1="131.0717832481948"
    y1="65.03496882012652"
    x2="132.30436935364085"
    y2="124.00096088407975"
    stroke="hsla(0,50%,50%,0.6)"
    stroke-width="1"
    transform="translate(-109.5213427483,-94.4919334755)"
    />
  
  <line
    x1="99.51405903351004"
    y1="57.47994503863792"
    x2="131.2699297447987"
    y2="74.51414816071872"
    stroke="hsla(0,50%,50%,0.6)"
    stroke-width="1"
    transform="translate(-109.5213427483,-94.4919334755)"
    />
  
  <line
    x1="100.3130849641822"
    y1="55.990367629730464"
    x2="98.45893970078023"
    y2="79.22615739650544"
    stroke="hsla(0,50%,50%,0.6)"
    stroke-width="1"
    transform="translate(-109.5213427483,-94.4919334755)"
    />
  
  <line
    x1="92.9762476647985"
    y1="53.83296920021893"
    x2="131.0717832481948"
    y2="65.03496882012652"
    stroke="hsla(0,50%,50%,0.6)"
    stroke-width="1"
    transform="translate(-109.5213427483,-94.4919334755)"
    />
  
  <line
    x1="88.20187178621471"
    y1="100.41749828175669"
    x2="100.2836321825431"
    y2="106.66178092475987"
    stroke="hsla(0,50%,50%,0.6)"
    stroke-width="1"
    transform="translate(-109.5213427483,-94.4919334755)"
    />
  
  <line
    x1="100.3130849641822"
    y1="55.990367629730464"
    x2="99.51405903351004"
    y2="57.47994503863792"
    stroke="hsla(0,50%,50%,0.6)"
    stroke-width="1"
    transform="translate(-109.5213427483,-94.4919334755)"
    />
  
  <line
    x1="88.51184574952512"
    y1="99.80584460221058"
    x2="88.20187178621471"
    y2="100.41749828175669"
    stroke="hsla(0,50%,50%,0.6)"
    stroke-width="1"
    transform="translate(-109.5213427483,-94.4919334755)"
    />
  
  <line
    x1="94.08890733829392"
    y1="118.64765433381581"
    x2="126.65380231412806"
    y2="135.15089775080557"
    stroke="hsla(0,50%,50%,0.6)"
    stroke-width="1"
    transform="translate(-109.5213427483,-94.4919334755)"
    />
  
  <line
    x1="100.2836321825431"
    y1="106.66178092475987"
    x2="94.08890733829392"
    y2="118.64765433381581"
    stroke="hsla(0,50%,50%,0.6)"
    stroke-width="1"
    transform="translate(-109.5213427483,-94.4919334755)"
    />
  
  <line
    x1="132.30436935364085"
    y1="124.00096088407975"
    x2="126.65380231412806"
    y2="135.15089775080557"
    stroke="hsla(0,50%,50%,0.6)"
    stroke-width="1"
    transform="translate(-109.5213427483,-94.4919334755)"
    />
  
  <line
    x1="92.9762476647985"
    y1="53.83296920021893"
    x2="86.73831614311057"
    y2="57.14387980973014"
    stroke="hsla(0,50%,50%,0.6)"
    stroke-width="1"
    transform="translate(-109.5213427483,-94.4919334755)"
    />
  
  <line
    x1="131.0717832481948"
    y1="65.03496882012652"
    x2="125.24765131970896"
    y2="73.67953352581054"
    stroke="hsla(0,50%,50%,0.6)"
    stroke-width="1"
    transform="translate(-109.5213427483,-94.4919334755)"
    />
  
  <line
    x1="123.24599308808068"
    y1="62.73379370717489"
    x2="88.51184574952512"
    y2="99.80584460221058"
    stroke="hsla(0,50%,50%,0.6)"
    stroke-width="1"
    transform="translate(-109.5213427483,-94.4919334755)"
    />
  
  <line
    x1="125.24765131970896"
    y1="73.67953352581054"
    x2="98.45893970078023"
    y2="79.22615739650544"
    stroke="hsla(0,50%,50%,0.6)"
    stroke-width="1"
    transform="translate(-109.5213427483,-94.4919334755)"
    />
  
  <line
    x1="131.2699297447987"
    y1="74.51414816071872"
    x2="88.51184574952512"
    y2="99.80584460221058"
    stroke="hsla(0,50%,50%,0.6)"
    stroke-width="1"
    transform="translate(-109.5213427483,-94.4919334755)"
    />
  
</svg>
