<?xml version="1.0"?>
<!DOCTYPE svg PUBLIC "-//W3C//DTD SVG 1.1//EN"
  "http://www.w3.org/Graphics/SVG/1.1/DTD/svg11.dtd">
<svg
  width="240"
  height="240"
  viewBox="-500 -500 1000 1000" xmlns="http://www.w3.org/2000/svg" version="1.1">
  <rect
    x="0"
    y="0"
    width="100"
    height="100"
    fill="hsla(206,100%,53%,0.3)"
    stroke="hsl(206,100%,53%)"
    stroke-width="3"
    transform="" />
  
  <path
    d="M 
      3.4375
      -71.875
      L
    
      6.7896910919
      -69.3608566810
      L
    
      -14.6660786290
      7.8799143145
      L
    
      -15.78125
      8.4375
      L
    
      -21.25
      -2.5
      L
    
      -28.5017460601
      -13.9327766833
      L
    
      -27.6630073975
      -15.3260147951
      L
    
      -32.1875
      -24.375
      L
    
      -28.8431200874
      -28.8341732167
      L
    
      -32.5660368911
      -65.3482046919
      L
    
      1.1181998479
      -68.7825997972
      z
    "
    fill="hsla(0,0%,50%,0.3)"
    stroke="hsla(0,0%,50%,1)"
    stroke-width="1"
    transform="translate(12.8881728995,31.71875)"
    />
  
  
  <line
    x1="6.789691091954023"
    y1="-69.36085668103448"
    x2="-32.56603689111748"
    y2="-65.34820469197707"
    stroke="hsla(0,50%,50%,0.6)"
    stroke-width="1"
    transform="translate(12.8881728995,31.71875)"
    />
  
  <line
    x1="3.4375"
    y1="-71.875"
    x2="6.789691091954023"
    y2="-69.36085668103448"
    stroke="hsla(0,50%,50%,0.6)"
    stroke-width="1"
    transform="translate(12.8881728995,31.71875)"
    />
  
  <line
    x1="-32.1875"
    y1="-24.375"
    x2="-5.706380208333333"
    y2="-24.375"
    stroke="hsla(0,50%,50%,0.6)"
    stroke-width="1"
    transform="translate(12.8881728995,31.71875)"
    />
  
  <line
    x1="3.4375"
    y1="-71.875"
    x2="-32.1875"
    y2="-24.375"
    stroke="hsla(0,50%,50%,0.6)"
    stroke-width="1"
    transform="translate(12.8881728995,31.71875)"
    />
  
  <line
    x1="-8.027119252873563"
    y1="-16.02033943965517"
    x2="-28.50174606017192"
    y2="-13.932776683381089"
    stroke="hsla(0,50%,50%,0.6)"
    stroke-width="1"
    transform="translate(12.8881728995,31.71875)"
    />
  
  <line
    x1="-17.823916547277936"
    y1="-31.669837929799428"
    x2="-28.50174606017192"
    y2="-13.932776683381089"
    stroke="hsla(0,50%,50%,0.6)"
    stroke-width="1"
    transform="translate(12.8881728995,31.71875)"
    />
  
  <line
    x1="-17.823916547277936"
    y1="-31.669837929799428"
    x2="-5.706380208333333"
    y2="-24.375"
    stroke="hsla(0,50%,50%,0.6)"
    stroke-width="1"
    transform="translate(12.8881728995,31.71875)"
    />
  
  <line
    x1="-3.916015625"
    y1="-30.8203125"
    x2="-22.8125"
    y2="-5.625"
    stroke="hsla(0,50%,50%,0.6)"
    stroke-width="1"
    transform="translate(12.8881728995,31.71875)"
    />
  
  <line
    x1="-10"
    y1="-17.5"
    x2="-21.25"
    y2="-2.5"
    stroke="hsla(0,50%,50%,0.6)"
    stroke-width="1"
    transform="translate(12.8881728995,31.71875)"
    />
  
  <line
    x1="-10"
    y1="-17.5"
    x2="-8.027119252873563"
    y2="-16.02033943965517"
    stroke="hsla(0,50%,50%,0.6)"
    stroke-width="1"
    transform="translate(12.8881728995,31.71875)"
    />
  
  <line
    x1="-22.8125"
    y1="-5.625"
    x2="-10.914713541666666"
    y2="-5.625"
    stroke="hsla(0,50%,50%,0.6)"
    stroke-width="1"
    transform="translate(12.8881728995,31.71875)"
    />
  
  <line
    x1="-13.107192095588236"
    y1="2.267922794117647"
    x2="-16.5625"
    y2="6.875"
    stroke="hsla(0,50%,50%,0.6)"
    stroke-width="1"
    transform="translate(12.8881728995,31.71875)"
    />
  
  <line
    x1="6.789691091954023"
    y1="-69.36085668103448"
    x2="-14.666078629032258"
    y2="7.879914314516129"
    stroke="hsla(0,50%,50%,0.6)"
    stroke-width="1"
    transform="translate(12.8881728995,31.71875)"
    />
  
  <line
    x1="-21.25"
    y1="-2.5"
    x2="-11.782769097222221"
    y2="-2.5"
    stroke="hsla(0,50%,50%,0.6)"
    stroke-width="1"
    transform="translate(12.8881728995,31.71875)"
    />
  
  <line
    x1="-7.694976719197708"
    y1="-67.88402131088826"
    x2="-3.916015625"
    y2="-30.8203125"
    stroke="hsla(0,50%,50%,0.6)"
    stroke-width="1"
    transform="translate(12.8881728995,31.71875)"
    />
  
  <line
    x1="-14.666078629032258"
    y1="7.879914314516129"
    x2="-15.78125"
    y2="8.4375"
    stroke="hsla(0,50%,50%,0.6)"
    stroke-width="1"
    transform="translate(12.8881728995,31.71875)"
    />
  
  <line
    x1="-27.49440365329513"
    y1="-15.606084348137536"
    x2="-10.914713541666666"
    y2="-5.625"
    stroke="hsla(0,50%,50%,0.6)"
    stroke-width="1"
    transform="translate(12.8881728995,31.71875)"
    />
  
  <line
    x1="-20.130506805157594"
    y1="-66.61611300143267"
    x2="-13.107192095588236"
    y2="2.267922794117647"
    stroke="hsla(0,50%,50%,0.6)"
    stroke-width="1"
    transform="translate(12.8881728995,31.71875)"
    />
  
  <line
    x1="-18.009267550143267"
    y1="-15.002574319484241"
    x2="-15.869672277936962"
    y2="5.982382700573066"
    stroke="hsla(0,50%,50%,0.6)"
    stroke-width="1"
    transform="translate(12.8881728995,31.71875)"
    />
  
  <line
    x1="-32.56603689111748"
    y1="-65.34820469197707"
    x2="-27.098182306590257"
    y2="-11.719981196275072"
    stroke="hsla(0,50%,50%,0.6)"
    stroke-width="1"
    transform="translate(12.8881728995,31.71875)"
    />
  
  <line
    x1="-27.098182306590257"
    y1="-11.719981196275072"
    x2="-11.782769097222221"
    y2="-2.5"
    stroke="hsla(0,50%,50%,0.6)"
    stroke-width="1"
    transform="translate(12.8881728995,31.71875)"
    />
  
  <line
    x1="-16.5625"
    y1="6.875"
    x2="-14.38693576388889"
    y2="6.875"
    stroke="hsla(0,50%,50%,0.6)"
    stroke-width="1"
    transform="translate(12.8881728995,31.71875)"
    />
  
  <line
    x1="-32.1875"
    y1="-24.375"
    x2="-15.78125"
    y2="8.4375"
    stroke="hsla(0,50%,50%,0.6)"
    stroke-width="1"
    transform="translate(12.8881728995,31.71875)"
    />
  
  <line
    x1="-28.50174606017192"
    y1="-13.932776683381089"
    x2="-14.666078629032258"
    y2="7.879914314516129"
    stroke="hsla(0,50%,50%,0.6)"
    stroke-width="1"
    transform="translate(12.8881728995,31.71875)"
    />
  
  <line
    x1="-15.869672277936962"
    y1="5.982382700573066"
    x2="-14.38693576388889"
    y2="6.875"
    stroke="hsla(0,50%,50%,0.6)"
    stroke-width="1"
    transform="translate(12.8881728995,31.71875)"
    />
  
</svg>
