<?xml version="1.0"?>
<!DOCTYPE svg PUBLIC "-//W3C//DTD SVG 1.1//EN"
  "http://www.w3.org/Graphics/SVG/1.1/DTD/svg11.dtd">
<svg
  width="240"
  height="240"
  viewBox="-50 -50 200 200" xmlns="http://www.w3.org/2000/svg" version="1.1">
  <rect
    x="0"
    y="0"
    width="100"
    height="100"
    fill="hsla(206,100%,53%,0.3)"
    stroke="hsl(206,100%,53%)"
    stroke-width="3"
    transform="" />
  
  <path
    d="M 
      73.9333333333
      70.8666666666
      L
    
      85.0980392156
      95.4901960784
      L
    
      105.8333333333
      111.0416666666
      L
    
      100.0520833333
      118.75
      L
    
      58.75
      111.2405303030
      L
    
      58.75
      99.1666666666
      L
    
      64.3421052631
      96.3706140350
      z
    "
    fill="hsla(0,0%,50%,0.3)"
    stroke="hsla(0,0%,50%,1)"
    stroke-width="1"
    transform="translate(-66.2477147026,-100.3732930358) scale(1,-1) translate(50,-110)"
    />
  
  
  <line
    x1="97.5"
    y1="110"
    x2="100.05208333333333"
    y2="118.75"
    stroke="hsla(0,50%,50%,0.6)"
    stroke-width="1"
    transform="translate(-66.2477147026,-100.3732930358) scale(1,-1) translate(50,-110)"
    />
  
  <line
    x1="73.93333333333334"
    y1="70.86666666666666"
    x2="95.24839743589743"
    y2="117.87660256410257"
    stroke="hsla(0,50%,50%,0.6)"
    stroke-width="1"
    transform="translate(-66.2477147026,-100.3732930358) scale(1,-1) translate(50,-110)"
    />
  
  <line
    x1="85.83333333333333"
    y1="96.04166666666667"
    x2="92.03125"
    y2="117.29166666666667"
    stroke="hsla(0,50%,50%,0.6)"
    stroke-width="1"
    transform="translate(-66.2477147026,-100.3732930358) scale(1,-1) translate(50,-110)"
    />
  
  <line
    x1="97.5"
    y1="110"
    x2="98.71527777777777"
    y2="118.50694444444444"
    stroke="hsla(0,50%,50%,0.6)"
    stroke-width="1"
    transform="translate(-66.2477147026,-100.3732930358) scale(1,-1) translate(50,-110)"
    />
  
  <line
    x1="90.83333333333333"
    y1="99.79166666666667"
    x2="93.36805555555556"
    y2="117.53472222222223"
    stroke="hsla(0,50%,50%,0.6)"
    stroke-width="1"
    transform="translate(-66.2477147026,-100.3732930358) scale(1,-1) translate(50,-110)"
    />
  
  <line
    x1="58.75"
    y1="99.16666666666667"
    x2="58.75"
    y2="111.2405303030303"
    stroke="hsla(0,50%,50%,0.6)"
    stroke-width="1"
    transform="translate(-66.2477147026,-100.3732930358) scale(1,-1) translate(50,-110)"
    />
  
  <line
    x1="77.5"
    y1="89.79166666666667"
    x2="73.125"
    y2="113.85416666666667"
    stroke="hsla(0,50%,50%,0.6)"
    stroke-width="1"
    transform="translate(-66.2477147026,-100.3732930358) scale(1,-1) translate(50,-110)"
    />
  
  <line
    x1="77.5"
    y1="89.79166666666667"
    x2="105.83333333333333"
    y2="111.04166666666667"
    stroke="hsla(0,50%,50%,0.6)"
    stroke-width="1"
    transform="translate(-66.2477147026,-100.3732930358) scale(1,-1) translate(50,-110)"
    />
  
  <line
    x1="73.93333333333334"
    y1="70.86666666666666"
    x2="58.75"
    y2="111.2405303030303"
    stroke="hsla(0,50%,50%,0.6)"
    stroke-width="1"
    transform="translate(-66.2477147026,-100.3732930358) scale(1,-1) translate(50,-110)"
    />
  
  <line
    x1="58.75"
    y1="99.16666666666667"
    x2="80"
    y2="115.10416666666667"
    stroke="hsla(0,50%,50%,0.6)"
    stroke-width="1"
    transform="translate(-66.2477147026,-100.3732930358) scale(1,-1) translate(50,-110)"
    />
  
  <line
    x1="65"
    y1="96.04166666666667"
    x2="58.75"
    y2="104.375"
    stroke="hsla(0,50%,50%,0.6)"
    stroke-width="1"
    transform="translate(-66.2477147026,-100.3732930358) scale(1,-1) translate(50,-110)"
    />
  
  <line
    x1="97.5"
    y1="110"
    x2="93.36805555555556"
    y2="117.53472222222223"
    stroke="hsla(0,50%,50%,0.6)"
    stroke-width="1"
    transform="translate(-66.2477147026,-100.3732930358) scale(1,-1) translate(50,-110)"
    />
  
  <line
    x1="103.69047619047619"
    y1="109.43452380952381"
    x2="98.71527777777777"
    y2="118.50694444444444"
    stroke="hsla(0,50%,50%,0.6)"
    stroke-width="1"
    transform="translate(-66.2477147026,-100.3732930358) scale(1,-1) translate(50,-110)"
    />
  
  <line
    x1="97.5"
    y1="110"
    x2="92.03125"
    y2="117.29166666666667"
    stroke="hsla(0,50%,50%,0.6)"
    stroke-width="1"
    transform="translate(-66.2477147026,-100.3732930358) scale(1,-1) translate(50,-110)"
    />
  
  <line
    x1="74.58333333333333"
    y1="105.83333333333333"
    x2="97.5"
    y2="110"
    stroke="hsla(0,50%,50%,0.6)"
    stroke-width="1"
    transform="translate(-66.2477147026,-100.3732930358) scale(1,-1) translate(50,-110)"
    />
  
  <line
    x1="105.83333333333333"
    y1="111.04166666666667"
    x2="100.05208333333333"
    y2="118.75"
    stroke="hsla(0,50%,50%,0.6)"
    stroke-width="1"
    transform="translate(-66.2477147026,-100.3732930358) scale(1,-1) translate(50,-110)"
    />
  
  <line
    x1="65"
    y1="96.04166666666667"
    x2="85.83333333333333"
    y2="96.04166666666667"
    stroke="hsla(0,50%,50%,0.6)"
    stroke-width="1"
    transform="translate(-66.2477147026,-100.3732930358) scale(1,-1) translate(50,-110)"
    />
  
  <line
    x1="58.75"
    y1="111.2405303030303"
    x2="100.05208333333333"
    y2="118.75"
    stroke="hsla(0,50%,50%,0.6)"
    stroke-width="1"
    transform="translate(-66.2477147026,-100.3732930358) scale(1,-1) translate(50,-110)"
    />
  
  <line
    x1="77.5"
    y1="89.79166666666667"
    x2="58.75"
    y2="99.16666666666667"
    stroke="hsla(0,50%,50%,0.6)"
    stroke-width="1"
    transform="translate(-66.2477147026,-100.3732930358) scale(1,-1) translate(50,-110)"
    />
  
  <line
    x1="103.69047619047619"
    y1="109.43452380952381"
    x2="95.24839743589743"
    y2="117.87660256410257"
    stroke="hsla(0,50%,50%,0.6)"
    stroke-width="1"
    transform="translate(-66.2477147026,-100.3732930358) scale(1,-1) translate(50,-110)"
    />
  
  <line
    x1="90.83333333333333"
    y1="99.79166666666667"
    x2="58.75"
    y2="104.375"
    stroke="hsla(0,50%,50%,0.6)"
    stroke-width="1"
    transform="translate(-66.2477147026,-100.3732930358) scale(1,-1) translate(50,-110)"
    />
  
  <line
    x1="97.5"
    y1="110"
    x2="80"
    y2="115.10416666666667"
    stroke="hsla(0,50%,50%,0.6)"
    stroke-width="1"
    transform="translate(-66.2477147026,-100.3732930358) scale(1,-1) translate(50,-110)"
    />
  
</svg>
