<?xml version="1.0"?>
<!DOCTYPE svg PUBLIC "-//W3C//DTD SVG 1.1//EN"
  "http://www.w3.org/Graphics/SVG/1.1/DTD/svg11.dtd">
<svg
  width="240"
  height="240"
  viewBox="-50 -50 200 200" xmlns="http://www.w3.org/2000/svg" version="1.1">
  <rect
    x="0"
    y="0"
    width="100"
    height="100"
    fill="hsla(206,100%,53%,0.3)"
    stroke="hsl(206,100%,53%)"
    stroke-width="3"
    transform="" />
  
  <path
    d="M 
      61.8762675889
      0.8199890284
      L
    
      69.3978777663
      20
      L
    
      33.7925924026
      72.2081827520
      L
    
      21.8071958227
      71.7143779012
      L
    
      21.6015625
      44.53125
      L
    
      10.7961309523
      20
      L
    
      24.8338278931
      4.6565281899
      L
    
      32.5143236168
      11.6833909924
      L
    
      32.5336622013
      11.6735381417
      L
    
      32.5599501709
      11.7251345917
      L
    
      33.0124988796
      12.1391700657
      z
    "
    fill="hsla(0,0%,50%,0.3)"
    stroke="hsla(0,0%,50%,1)"
    stroke-width="1"
    transform="translate(-32.1379817818,-12.4376876982) scale(1,-1) translate(50,-110)"
    />
  
  
  <line
    x1="61.87626758893808"
    y1="0.819989028463776"
    x2="69.39787776636882"
    y2="20"
    stroke="hsla(0,50%,50%,0.6)"
    stroke-width="1"
    transform="translate(-32.1379817818,-12.4376876982) scale(1,-1) translate(50,-110)"
    />
  
  <line
    x1="32.53366220132055"
    y1="11.673538141744334"
    x2="50.72550042381644"
    y2="47.37938704204287"
    stroke="hsla(0,50%,50%,0.6)"
    stroke-width="1"
    transform="translate(-32.1379817818,-12.4376876982) scale(1,-1) translate(50,-110)"
    />
  
  <line
    x1="24.833827893175073"
    y1="4.656528189910979"
    x2="58.71921520957763"
    y2="35.65816874145238"
    stroke="hsla(0,50%,50%,0.6)"
    stroke-width="1"
    transform="translate(-32.1379817818,-12.4376876982) scale(1,-1) translate(50,-110)"
    />
  
  <line
    x1="40"
    y1="20"
    x2="59.44960107762027"
    y2="34.5872008082152"
    stroke="hsla(0,50%,50%,0.6)"
    stroke-width="1"
    transform="translate(-32.1379817818,-12.4376876982) scale(1,-1) translate(50,-110)"
    />
  
  <line
    x1="26.964795689286166"
    y1="14.510830120223453"
    x2="59.44960107762027"
    y2="34.5872008082152"
    stroke="hsla(0,50%,50%,0.6)"
    stroke-width="1"
    transform="translate(-32.1379817818,-12.4376876982) scale(1,-1) translate(50,-110)"
    />
  
  <line
    x1="10.796130952380953"
    y1="20"
    x2="33.79259240267966"
    y2="72.20818275202949"
    stroke="hsla(0,50%,50%,0.6)"
    stroke-width="1"
    transform="translate(-32.1379817818,-12.4376876982) scale(1,-1) translate(50,-110)"
    />
  
  <line
    x1="21.39592917725178"
    y1="17.34812209870257"
    x2="21.80719582274822"
    y2="71.71437790129742"
    stroke="hsla(0,50%,50%,0.6)"
    stroke-width="1"
    transform="translate(-32.1379817818,-12.4376876982) scale(1,-1) translate(50,-110)"
    />
  
  <line
    x1="26.964795689286166"
    y1="14.510830120223453"
    x2="21.80719582274822"
    y2="71.71437790129742"
    stroke="hsla(0,50%,50%,0.6)"
    stroke-width="1"
    transform="translate(-32.1379817818,-12.4376876982) scale(1,-1) translate(50,-110)"
    />
  
  <line
    x1="21.39592917725178"
    y1="17.34812209870257"
    x2="58.71921520957763"
    y2="35.65816874145238"
    stroke="hsla(0,50%,50%,0.6)"
    stroke-width="1"
    transform="translate(-32.1379817818,-12.4376876982) scale(1,-1) translate(50,-110)"
    />
  
  <line
    x1="24.833827893175073"
    y1="4.656528189910979"
    x2="10.796130952380953"
    y2="20"
    stroke="hsla(0,50%,50%,0.6)"
    stroke-width="1"
    transform="translate(-32.1379817818,-12.4376876982) scale(1,-1) translate(50,-110)"
    />
  
  <line
    x1="10.796130952380953"
    y1="20"
    x2="69.39787776636882"
    y2="20"
    stroke="hsla(0,50%,50%,0.6)"
    stroke-width="1"
    transform="translate(-32.1379817818,-12.4376876982) scale(1,-1) translate(50,-110)"
    />
  
  <line
    x1="61.87626758893808"
    y1="0.819989028463776"
    x2="26.964795689286166"
    y2="14.510830120223453"
    stroke="hsla(0,50%,50%,0.6)"
    stroke-width="1"
    transform="translate(-32.1379817818,-12.4376876982) scale(1,-1) translate(50,-110)"
    />
  
  <line
    x1="32.53366220132055"
    y1="11.673538141744334"
    x2="21.39592917725178"
    y2="17.34812209870257"
    stroke="hsla(0,50%,50%,0.6)"
    stroke-width="1"
    transform="translate(-32.1379817818,-12.4376876982) scale(1,-1) translate(50,-110)"
    />
  
  <line
    x1="40"
    y1="20"
    x2="21.6015625"
    y2="44.53125"
    stroke="hsla(0,50%,50%,0.6)"
    stroke-width="1"
    transform="translate(-32.1379817818,-12.4376876982) scale(1,-1) translate(50,-110)"
    />
  
  <line
    x1="69.39787776636882"
    y1="20"
    x2="33.79259240267966"
    y2="72.20818275202949"
    stroke="hsla(0,50%,50%,0.6)"
    stroke-width="1"
    transform="translate(-32.1379817818,-12.4376876982) scale(1,-1) translate(50,-110)"
    />
  
  <line
    x1="21.6015625"
    y1="44.53125"
    x2="50.72550042381644"
    y2="47.37938704204287"
    stroke="hsla(0,50%,50%,0.6)"
    stroke-width="1"
    transform="translate(-32.1379817818,-12.4376876982) scale(1,-1) translate(50,-110)"
    />
  
  <line
    x1="21.80719582274822"
    y1="71.71437790129742"
    x2="33.79259240267966"
    y2="72.20818275202949"
    stroke="hsla(0,50%,50%,0.6)"
    stroke-width="1"
    transform="translate(-32.1379817818,-12.4376876982) scale(1,-1) translate(50,-110)"
    />
  
</svg>
