<?xml version="1.0"?>
<!DOCTYPE svg PUBLIC "-//W3C//DTD SVG 1.1//EN"
  "http://www.w3.org/Graphics/SVG/1.1/DTD/svg11.dtd">
<svg
  width="240"
  height="240"
  viewBox="-50 -50 200 200" xmlns="http://www.w3.org/2000/svg" version="1.1">
  <rect
    x="0"
    y="0"
    width="100"
    height="100"
    fill="hsla(206,100%,53%,0.3)"
    stroke="hsl(206,100%,53%)"
    stroke-width="3"
    transform="" />
  
  <path
    d="M 
      54.0904846221
      36.7309231590
      L
    
      66.2569734161
      39.5991195304
      L
    
      75.9021174929
      80.4008804695
      L
    
      112.4015838750
      89.0054695837
      L
    
      109.8919120500
      99.6511472785
      L
    
      66.9390038323
      118.4211579509
      L
    
      61.3109883236
      113.7270642201
      L
    
      41.8275474525
      60
      L
    
      43.3218555093
      58.7521114864
      L
    
      46.35
      50.7
      L
    
      50.4351601458
      52.2362995420
      z
    "
    fill="hsla(0,0%,50%,0.3)"
    stroke="hsla(0,0%,50%,1)"
    stroke-width="1"
    transform="translate(-49.3597964349,-56.6492412873) scale(1,-1) translate(50,-110)"
    />
  
  
  <line
    x1="75.90211749296594"
    y1="80.40088046958378"
    x2="88.415457941205"
    y2="109.03615261472785"
    stroke="hsla(0,50%,50%,0.6)"
    stroke-width="1"
    transform="translate(-49.3597964349,-56.6492412873) scale(1,-1) translate(50,-110)"
    />
  
  <line
    x1="66.25697341612496"
    y1="39.599119530416225"
    x2="75.90211749296594"
    y2="80.40088046958378"
    stroke="hsla(0,50%,50%,0.6)"
    stroke-width="1"
    transform="translate(-49.3597964349,-56.6492412873) scale(1,-1) translate(50,-110)"
    />
  
  <line
    x1="41.82754745254745"
    y1="60"
    x2="61.310988323603006"
    y2="113.7270642201835"
    stroke="hsla(0,50%,50%,0.6)"
    stroke-width="1"
    transform="translate(-49.3597964349,-56.6492412873) scale(1,-1) translate(50,-110)"
    />
  
  <line
    x1="54.090484622101485"
    y1="36.73092315901814"
    x2="45.93481989708405"
    y2="71.32611492281303"
    stroke="hsla(0,50%,50%,0.6)"
    stroke-width="1"
    transform="translate(-49.3597964349,-56.6492412873) scale(1,-1) translate(50,-110)"
    />
  
  <line
    x1="71.07954545454545"
    y1="60"
    x2="61.310988323603006"
    y2="113.7270642201835"
    stroke="hsla(0,50%,50%,0.6)"
    stroke-width="1"
    transform="translate(-49.3597964349,-56.6492412873) scale(1,-1) translate(50,-110)"
    />
  
  <line
    x1="75.90211749296594"
    y1="80.40088046958378"
    x2="66.93900383234696"
    y2="118.42115795090714"
    stroke="hsla(0,50%,50%,0.6)"
    stroke-width="1"
    transform="translate(-49.3597964349,-56.6492412873) scale(1,-1) translate(50,-110)"
    />
  
  <line
    x1="46.35"
    y1="50.7"
    x2="42.33073744437381"
    y2="61.3875845229151"
    stroke="hsla(0,50%,50%,0.6)"
    stroke-width="1"
    transform="translate(-49.3597964349,-56.6492412873) scale(1,-1) translate(50,-110)"
    />
  
  <line
    x1="54.090484622101485"
    y1="36.73092315901814"
    x2="66.25697341612496"
    y2="39.599119530416225"
    stroke="hsla(0,50%,50%,0.6)"
    stroke-width="1"
    transform="translate(-49.3597964349,-56.6492412873) scale(1,-1) translate(50,-110)"
    />
  
  <line
    x1="45.93481989708405"
    y1="71.32611492281303"
    x2="66.25"
    y2="86.5625"
    stroke="hsla(0,50%,50%,0.6)"
    stroke-width="1"
    transform="translate(-49.3597964349,-56.6492412873) scale(1,-1) translate(50,-110)"
    />
  
  <line
    x1="42.33073744437381"
    y1="61.3875845229151"
    x2="109.89191205006307"
    y2="99.65114727854856"
    stroke="hsla(0,50%,50%,0.6)"
    stroke-width="1"
    transform="translate(-49.3597964349,-56.6492412873) scale(1,-1) translate(50,-110)"
    />
  
  <line
    x1="46.35"
    y1="50.7"
    x2="71.07954545454545"
    y2="60"
    stroke="hsla(0,50%,50%,0.6)"
    stroke-width="1"
    transform="translate(-49.3597964349,-56.6492412873) scale(1,-1) translate(50,-110)"
    />
  
  <line
    x1="112.40158387503638"
    y1="89.00546958377801"
    x2="109.89191205006307"
    y2="99.65114727854856"
    stroke="hsla(0,50%,50%,0.6)"
    stroke-width="1"
    transform="translate(-49.3597964349,-56.6492412873) scale(1,-1) translate(50,-110)"
    />
  
  <line
    x1="61.310988323603006"
    y1="113.7270642201835"
    x2="66.93900383234696"
    y2="118.42115795090714"
    stroke="hsla(0,50%,50%,0.6)"
    stroke-width="1"
    transform="translate(-49.3597964349,-56.6492412873) scale(1,-1) translate(50,-110)"
    />
  
  <line
    x1="66.25697341612496"
    y1="39.599119530416225"
    x2="41.82754745254745"
    y2="60"
    stroke="hsla(0,50%,50%,0.6)"
    stroke-width="1"
    transform="translate(-49.3597964349,-56.6492412873) scale(1,-1) translate(50,-110)"
    />
  
  <line
    x1="75.90211749296594"
    y1="80.40088046958378"
    x2="112.40158387503638"
    y2="89.00546958377801"
    stroke="hsla(0,50%,50%,0.6)"
    stroke-width="1"
    transform="translate(-49.3597964349,-56.6492412873) scale(1,-1) translate(50,-110)"
    />
  
  <line
    x1="41.82754745254745"
    y1="60"
    x2="71.07954545454545"
    y2="60"
    stroke="hsla(0,50%,50%,0.6)"
    stroke-width="1"
    transform="translate(-49.3597964349,-56.6492412873) scale(1,-1) translate(50,-110)"
    />
  
  <line
    x1="75.90211749296594"
    y1="80.40088046958378"
    x2="57.30949197860963"
    y2="102.69263490520176"
    stroke="hsla(0,50%,50%,0.6)"
    stroke-width="1"
    transform="translate(-49.3597964349,-56.6492412873) scale(1,-1) translate(50,-110)"
    />
  
  <line
    x1="57.30949197860963"
    y1="102.69263490520176"
    x2="63.125"
    y2="103.75"
    stroke="hsla(0,50%,50%,0.6)"
    stroke-width="1"
    transform="translate(-49.3597964349,-56.6492412873) scale(1,-1) translate(50,-110)"
    />
  
  <line
    x1="75.90211749296594"
    y1="80.40088046958378"
    x2="52.87478825522304"
    y2="90.46360342555995"
    stroke="hsla(0,50%,50%,0.6)"
    stroke-width="1"
    transform="translate(-49.3597964349,-56.6492412873) scale(1,-1) translate(50,-110)"
    />
  
  <line
    x1="66.25"
    y1="86.5625"
    x2="52.87478825522304"
    y2="90.46360342555995"
    stroke="hsla(0,50%,50%,0.6)"
    stroke-width="1"
    transform="translate(-49.3597964349,-56.6492412873) scale(1,-1) translate(50,-110)"
    />
  
  <line
    x1="109.89191205006307"
    y1="99.65114727854856"
    x2="66.93900383234696"
    y2="118.42115795090714"
    stroke="hsla(0,50%,50%,0.6)"
    stroke-width="1"
    transform="translate(-49.3597964349,-56.6492412873) scale(1,-1) translate(50,-110)"
    />
  
</svg>
