<?xml version="1.0"?>
<!DOCTYPE svg PUBLIC "-//W3C//DTD SVG 1.1//EN"
  "http://www.w3.org/Graphics/SVG/1.1/DTD/svg11.dtd">
<svg
  width="240"
  height="240"
  viewBox="-500 -500 1000 1000" xmlns="http://www.w3.org/2000/svg" version="1.1">
  <rect
    x="0"
    y="0"
    width="100"
    height="100"
    fill="hsla(206,100%,53%,0.3)"
    stroke="hsl(206,100%,53%)"
    stroke-width="3"
    transform="" />
  
  <path
    d="M 
      103.8062274642
      134.0804620539
      L
    
      108.7362313139
      138.1077891424
      L
    
      108.1637827038
      140.6520051869
      L
    
      162.0749608462
      221.9543899038
      L
    
      155.8463602152
      232.7920342133
      L
    
      141.3961678025
      224.4872333719
      L
    
      126.0938609502
      226.3615375384
      L
    
      86.6460223106
      187.7891827226
      L
    
      71.7231650631
      163.1220108941
      z
    "
    fill="hsla(0,0%,50%,0.3)"
    stroke="hsla(0,0%,50%,1)"
    stroke-width="1"
    transform="translate(-116.8990629547,-183.4362481336)"
    />
  
  
  <line
    x1="78.92419500517158"
    y1="162.05476948206456"
    x2="86.64602231065443"
    y2="187.78918272265736"
    stroke="hsla(0,50%,50%,0.6)"
    stroke-width="1"
    transform="translate(-116.8990629547,-183.4362481336)"
    />
  
  <line
    x1="103.8062274642973"
    y1="134.08046205397844"
    x2="162.07496084628093"
    y2="221.9543899038019"
    stroke="hsla(0,50%,50%,0.6)"
    stroke-width="1"
    transform="translate(-116.8990629547,-183.4362481336)"
    />
  
  <line
    x1="75.50876638498902"
    y1="159.695289208337"
    x2="81.42857142857143"
    y2="170.40106566820276"
    stroke="hsla(0,50%,50%,0.6)"
    stroke-width="1"
    transform="translate(-116.8990629547,-183.4362481336)"
    />
  
  <line
    x1="81.42857142857143"
    y1="170.40106566820276"
    x2="99.62608035966706"
    y2="200.48116844005503"
    stroke="hsla(0,50%,50%,0.6)"
    stroke-width="1"
    transform="translate(-116.8990629547,-183.4362481336)"
    />
  
  <line
    x1="71.7231650631645"
    y1="163.12201089414756"
    x2="86.64602231065443"
    y2="187.78918272265736"
    stroke="hsla(0,50%,50%,0.6)"
    stroke-width="1"
    transform="translate(-116.8990629547,-183.4362481336)"
    />
  
  <line
    x1="131.1815848701916"
    y1="175.36469876080344"
    x2="126.09386095027592"
    y2="226.36153753846415"
    stroke="hsla(0,50%,50%,0.6)"
    stroke-width="1"
    transform="translate(-116.8990629547,-183.4362481336)"
    />
  
  <line
    x1="103.8062274642973"
    y1="134.08046205397844"
    x2="108.73623131392604"
    y2="138.10778914240754"
    stroke="hsla(0,50%,50%,0.6)"
    stroke-width="1"
    transform="translate(-116.8990629547,-183.4362481336)"
    />
  
  <line
    x1="108.73623131392604"
    y1="138.10778914240754"
    x2="100.50452399685287"
    y2="174.69315499606608"
    stroke="hsla(0,50%,50%,0.6)"
    stroke-width="1"
    transform="translate(-116.8990629547,-183.4362481336)"
    />
  
  <line
    x1="78.92419500517158"
    y1="162.05476948206456"
    x2="75.78621859371027"
    y2="169.83815364913264"
    stroke="hsla(0,50%,50%,0.6)"
    stroke-width="1"
    transform="translate(-116.8990629547,-183.4362481336)"
    />
  
  <line
    x1="86.64602231065443"
    y1="187.78918272265736"
    x2="126.09386095027592"
    y2="226.36153753846415"
    stroke="hsla(0,50%,50%,0.6)"
    stroke-width="1"
    transform="translate(-116.8990629547,-183.4362481336)"
    />
  
  <line
    x1="71.7231650631645"
    y1="163.12201089414756"
    x2="81.42857142857143"
    y2="170.40106566820276"
    stroke="hsla(0,50%,50%,0.6)"
    stroke-width="1"
    transform="translate(-116.8990629547,-183.4362481336)"
    />
  
  <line
    x1="75.50876638498902"
    y1="159.695289208337"
    x2="78.92419500517158"
    y2="162.05476948206456"
    stroke="hsla(0,50%,50%,0.6)"
    stroke-width="1"
    transform="translate(-116.8990629547,-183.4362481336)"
    />
  
  <line
    x1="90.11793418241685"
    y1="146.47108838864696"
    x2="76.24889485559702"
    y2="170.60294786137052"
    stroke="hsla(0,50%,50%,0.6)"
    stroke-width="1"
    transform="translate(-116.8990629547,-183.4362481336)"
    />
  
  <line
    x1="99.62608035966706"
    y1="200.48116844005503"
    x2="155.84636021529016"
    y2="232.7920342133196"
    stroke="hsla(0,50%,50%,0.6)"
    stroke-width="1"
    transform="translate(-116.8990629547,-183.4362481336)"
    />
  
  <line
    x1="162.07496084628093"
    y1="221.9543899038019"
    x2="155.84636021529016"
    y2="232.7920342133196"
    stroke="hsla(0,50%,50%,0.6)"
    stroke-width="1"
    transform="translate(-116.8990629547,-183.4362481336)"
    />
  
  <line
    x1="103.8062274642973"
    y1="134.08046205397844"
    x2="71.7231650631645"
    y2="163.12201089414756"
    stroke="hsla(0,50%,50%,0.6)"
    stroke-width="1"
    transform="translate(-116.8990629547,-183.4362481336)"
    />
  
  <line
    x1="81.42857142857143"
    y1="170.40106566820276"
    x2="100.50452399685287"
    y2="174.69315499606608"
    stroke="hsla(0,50%,50%,0.6)"
    stroke-width="1"
    transform="translate(-116.8990629547,-183.4362481336)"
    />
  
  <line
    x1="108.73623131392604"
    y1="138.10778914240754"
    x2="90.11793418241685"
    y2="146.47108838864696"
    stroke="hsla(0,50%,50%,0.6)"
    stroke-width="1"
    transform="translate(-116.8990629547,-183.4362481336)"
    />
  
  <line
    x1="75.78621859371027"
    y1="169.83815364913264"
    x2="131.1815848701916"
    y2="175.36469876080344"
    stroke="hsla(0,50%,50%,0.6)"
    stroke-width="1"
    transform="translate(-116.8990629547,-183.4362481336)"
    />
  
  <line
    x1="81.42857142857143"
    y1="170.40106566820276"
    x2="77.54726784510662"
    y2="172.74913133673124"
    stroke="hsla(0,50%,50%,0.6)"
    stroke-width="1"
    transform="translate(-116.8990629547,-183.4362481336)"
    />
  
  <line
    x1="81.42857142857143"
    y1="170.40106566820276"
    x2="76.24889485559702"
    y2="170.60294786137052"
    stroke="hsla(0,50%,50%,0.6)"
    stroke-width="1"
    transform="translate(-116.8990629547,-183.4362481336)"
    />
  
  <line
    x1="162.07496084628093"
    y1="221.9543899038019"
    x2="126.09386095027592"
    y2="226.36153753846415"
    stroke="hsla(0,50%,50%,0.6)"
    stroke-width="1"
    transform="translate(-116.8990629547,-183.4362481336)"
    />
  
</svg>
