<?xml version="1.0"?>
<!DOCTYPE svg PUBLIC "-//W3C//DTD SVG 1.1//EN"
  "http://www.w3.org/Graphics/SVG/1.1/DTD/svg11.dtd">
<svg
  width="240"
  height="240"
  viewBox="-500 -500 1000 1000" xmlns="http://www.w3.org/2000/svg" version="1.1">
  <rect
    x="0"
    y="0"
    width="100"
    height="100"
    fill="hsla(206,100%,53%,0.3)"
    stroke="hsl(206,100%,53%)"
    stroke-width="3"
    transform="" />
  
  <path
    d="M 
      0
      0
      L
    
      90
      0
      L
    
      90
      3.7037037037
      L
    
      96.2962962962
      3.7037037037
      L
    
      96.2962962962
      93.7037037037
      L
    
      90
      93.7037037037
      L
    
      0
      3.7037037037
      z
    "
    fill="hsla(0,0%,50%,0.3)"
    stroke="hsla(0,0%,50%,1)"
    stroke-width="1"
    transform="translate(-48.1481481481,-46.8518518518)"
    />
  
  
  <line
    x1="0"
    y1="0"
    x2="90"
    y2="0"
    stroke="hsla(0,50%,50%,0.6)"
    stroke-width="1"
    transform="translate(-48.1481481481,-46.8518518518)"
    />
  
  <line
    x1="0"
    y1="0"
    x2="0"
    y2="3.7037037037037037"
    stroke="hsla(0,50%,50%,0.6)"
    stroke-width="1"
    transform="translate(-48.1481481481,-46.8518518518)"
    />
  
  <line
    x1="80"
    y1="0"
    x2="80"
    y2="83.70370370370371"
    stroke="hsla(0,50%,50%,0.6)"
    stroke-width="1"
    transform="translate(-48.1481481481,-46.8518518518)"
    />
  
  <line
    x1="90"
    y1="0"
    x2="90"
    y2="93.70370370370371"
    stroke="hsla(0,50%,50%,0.6)"
    stroke-width="1"
    transform="translate(-48.1481481481,-46.8518518518)"
    />
  
  <line
    x1="96.29629629629629"
    y1="3.7037037037037037"
    x2="96.29629629629629"
    y2="93.70370370370371"
    stroke="hsla(0,50%,50%,0.6)"
    stroke-width="1"
    transform="translate(-48.1481481481,-46.8518518518)"
    />
  
  <line
    x1="0"
    y1="3.7037037037037037"
    x2="90"
    y2="93.70370370370371"
    stroke="hsla(0,50%,50%,0.6)"
    stroke-width="1"
    transform="translate(-48.1481481481,-46.8518518518)"
    />
  
  <line
    x1="0"
    y1="3.7037037037037037"
    x2="96.29629629629629"
    y2="3.7037037037037037"
    stroke="hsla(0,50%,50%,0.6)"
    stroke-width="1"
    transform="translate(-48.1481481481,-46.8518518518)"
    />
  
  <line
    x1="80"
    y1="83.70370370370371"
    x2="96.29629629629629"
    y2="83.70370370370371"
    stroke="hsla(0,50%,50%,0.6)"
    stroke-width="1"
    transform="translate(-48.1481481481,-46.8518518518)"
    />
  
  <line
    x1="90"
    y1="93.70370370370371"
    x2="96.29629629629629"
    y2="93.70370370370371"
    stroke="hsla(0,50%,50%,0.6)"
    stroke-width="1"
    transform="translate(-48.1481481481,-46.8518518518)"
    />
  
</svg>
