<?xml version="1.0"?>
<!DOCTYPE svg PUBLIC "-//W3C//DTD SVG 1.1//EN"
  "http://www.w3.org/Graphics/SVG/1.1/DTD/svg11.dtd">
<svg
  width="240"
  height="240"
  viewBox="-500 -500 1000 1000" xmlns="http://www.w3.org/2000/svg" version="1.1">
  <rect
    x="0"
    y="0"
    width="100"
    height="100"
    fill="hsla(206,100%,53%,0.3)"
    stroke="hsl(206,100%,53%)"
    stroke-width="3"
    transform="" />
  
  <path
    d="M 
      82.7840909090
      75.1704545454
      L
    
      105.7730263157
      105.8223684210
      L
    
      103.35
      129.05
      L
    
      85.8
      135.65
      L
    
      80.2083333333
      120.78125
      L
    
      76.25
      123.75
      L
    
      59.0340909090
      100.7954545454
      L
    
      61.7872390891
      97.8249525616
      L
    
      60
      97.5
      L
    
      62.1875
      85.46875
      z
    "
    fill="hsla(0,0%,50%,0.3)"
    stroke="hsla(0,0%,50%,1)"
    stroke-width="1"
    transform="translate(-82.4035586124,-105.4102272727)"
    />
  
  
  <line
    x1="98.76420454545455"
    y1="96.47727272727273"
    x2="101.25"
    y2="105"
    stroke="hsla(0,50%,50%,0.6)"
    stroke-width="1"
    transform="translate(-82.4035586124,-105.4102272727)"
    />
  
  <line
    x1="82.7840909090909"
    y1="75.17045454545455"
    x2="105.77302631578948"
    y2="105.82236842105263"
    stroke="hsla(0,50%,50%,0.6)"
    stroke-width="1"
    transform="translate(-82.4035586124,-105.4102272727)"
    />
  
  <line
    x1="68.75"
    y1="90.3125"
    x2="85.8"
    y2="135.65"
    stroke="hsla(0,50%,50%,0.6)"
    stroke-width="1"
    transform="translate(-82.4035586124,-105.4102272727)"
    />
  
  <line
    x1="76.30681818181819"
    y1="82.1590909090909"
    x2="96.25"
    y2="108.75"
    stroke="hsla(0,50%,50%,0.6)"
    stroke-width="1"
    transform="translate(-82.4035586124,-105.4102272727)"
    />
  
  <line
    x1="101.25"
    y1="99.79166666666667"
    x2="101.25"
    y2="105"
    stroke="hsla(0,50%,50%,0.6)"
    stroke-width="1"
    transform="translate(-82.4035586124,-105.4102272727)"
    />
  
  <line
    x1="59.03409090909091"
    y1="100.79545454545455"
    x2="76.25"
    y2="123.75"
    stroke="hsla(0,50%,50%,0.6)"
    stroke-width="1"
    transform="translate(-82.4035586124,-105.4102272727)"
    />
  
  <line
    x1="105.77302631578948"
    y1="105.82236842105263"
    x2="103.35"
    y2="129.05"
    stroke="hsla(0,50%,50%,0.6)"
    stroke-width="1"
    transform="translate(-82.4035586124,-105.4102272727)"
    />
  
  <line
    x1="62.1875"
    y1="85.46875"
    x2="60"
    y2="97.5"
    stroke="hsla(0,50%,50%,0.6)"
    stroke-width="1"
    transform="translate(-82.4035586124,-105.4102272727)"
    />
  
  <line
    x1="76.30681818181819"
    y1="82.1590909090909"
    x2="98.76420454545455"
    y2="96.47727272727273"
    stroke="hsla(0,50%,50%,0.6)"
    stroke-width="1"
    transform="translate(-82.4035586124,-105.4102272727)"
    />
  
  <line
    x1="62.1875"
    y1="85.46875"
    x2="101.25"
    y2="105"
    stroke="hsla(0,50%,50%,0.6)"
    stroke-width="1"
    transform="translate(-82.4035586124,-105.4102272727)"
    />
  
  <line
    x1="59.03409090909091"
    y1="100.79545454545455"
    x2="103.35"
    y2="129.05"
    stroke="hsla(0,50%,50%,0.6)"
    stroke-width="1"
    transform="translate(-82.4035586124,-105.4102272727)"
    />
  
  <line
    x1="68.75"
    y1="90.3125"
    x2="101.25"
    y2="99.79166666666667"
    stroke="hsla(0,50%,50%,0.6)"
    stroke-width="1"
    transform="translate(-82.4035586124,-105.4102272727)"
    />
  
  <line
    x1="82.7840909090909"
    y1="75.17045454545455"
    x2="59.03409090909091"
    y2="100.79545454545455"
    stroke="hsla(0,50%,50%,0.6)"
    stroke-width="1"
    transform="translate(-82.4035586124,-105.4102272727)"
    />
  
  <line
    x1="60"
    y1="97.5"
    x2="105.77302631578948"
    y2="105.82236842105263"
    stroke="hsla(0,50%,50%,0.6)"
    stroke-width="1"
    transform="translate(-82.4035586124,-105.4102272727)"
    />
  
  <line
    x1="103.203125"
    y1="102.39583333333333"
    x2="101.25"
    y2="105"
    stroke="hsla(0,50%,50%,0.6)"
    stroke-width="1"
    transform="translate(-82.4035586124,-105.4102272727)"
    />
  
  <line
    x1="82.7840909090909"
    y1="75.17045454545455"
    x2="62.1875"
    y2="85.46875"
    stroke="hsla(0,50%,50%,0.6)"
    stroke-width="1"
    transform="translate(-82.4035586124,-105.4102272727)"
    />
  
  <line
    x1="103.75"
    y1="103.125"
    x2="76.25"
    y2="123.75"
    stroke="hsla(0,50%,50%,0.6)"
    stroke-width="1"
    transform="translate(-82.4035586124,-105.4102272727)"
    />
  
  <line
    x1="103.203125"
    y1="102.39583333333333"
    x2="77"
    y2="112.25"
    stroke="hsla(0,50%,50%,0.6)"
    stroke-width="1"
    transform="translate(-82.4035586124,-105.4102272727)"
    />
  
  <line
    x1="103.35"
    y1="129.05"
    x2="85.8"
    y2="135.65"
    stroke="hsla(0,50%,50%,0.6)"
    stroke-width="1"
    transform="translate(-82.4035586124,-105.4102272727)"
    />
  
</svg>
