<?xml version="1.0"?>
<!DOCTYPE svg PUBLIC "-//W3C//DTD SVG 1.1//EN"
  "http://www.w3.org/Graphics/SVG/1.1/DTD/svg11.dtd">
<svg
  width="240"
  height="240"
  viewBox="-500 -500 1000 1000" xmlns="http://www.w3.org/2000/svg" version="1.1">
  <rect
    x="0"
    y="0"
    width="100"
    height="100"
    fill="hsla(206,100%,53%,0.3)"
    stroke="hsl(206,100%,53%)"
    stroke-width="3"
    transform="" />
  
  <path
    d="M 
      82.5700820001
      -7.4861691722
      L
    
      107.7775717111
      34.2550692383
      L
    
      61.4433760683
      71.1987179487
      L
    
      44.1079065841
      61.5390639654
      L
    
      53.6377470355
      44.4365612648
      L
    
      46
      18.25
      L
    
      62.0898121523
      13.5571381222
      L
    
      61.5940500411
      -6.9798075119
      z
    "
    fill="hsla(0,0%,50%,0.3)"
    stroke="hsla(0,0%,50%,1)"
    stroke-width="1"
    transform="translate(-75.9427391476,-31.8562743882)"
    />
  
  
  <line
    x1="82.57008200016078"
    y1="-7.486169172227135"
    x2="107.77757171117705"
    y2="34.25506923837784"
    stroke="hsla(0,50%,50%,0.6)"
    stroke-width="1"
    transform="translate(-75.9427391476,-31.8562743882)"
    />
  
  <line
    x1="96.25"
    y1="23.125"
    x2="107.77757171117705"
    y2="34.25506923837784"
    stroke="hsla(0,50%,50%,0.6)"
    stroke-width="1"
    transform="translate(-75.9427391476,-31.8562743882)"
    />
  
  <line
    x1="96.25"
    y1="23.125"
    x2="101.84714484679665"
    y2="38.98357706592386"
    stroke="hsla(0,50%,50%,0.6)"
    stroke-width="1"
    transform="translate(-75.9427391476,-31.8562743882)"
    />
  
  <line
    x1="68.44555430500844"
    y1="17.86208028512474"
    x2="91.56295620437956"
    y2="47.1834701946472"
    stroke="hsla(0,50%,50%,0.6)"
    stroke-width="1"
    transform="translate(-75.9427391476,-31.8562743882)"
    />
  
  <line
    x1="64"
    y1="13"
    x2="91.56295620437956"
    y2="47.1834701946472"
    stroke="hsla(0,50%,50%,0.6)"
    stroke-width="1"
    transform="translate(-75.9427391476,-31.8562743882)"
    />
  
  <line
    x1="65.90317951603826"
    y1="12.152541737009942"
    x2="68.44555430500844"
    y2="17.86208028512474"
    stroke="hsla(0,50%,50%,0.6)"
    stroke-width="1"
    transform="translate(-75.9427391476,-31.8562743882)"
    />
  
  <line
    x1="62.096820483961736"
    y1="13.847458262990058"
    x2="101.84714484679665"
    y2="38.98357706592386"
    stroke="hsla(0,50%,50%,0.6)"
    stroke-width="1"
    transform="translate(-75.9427391476,-31.8562743882)"
    />
  
  <line
    x1="46"
    y1="18.25"
    x2="61.44337606837607"
    y2="71.19871794871794"
    stroke="hsla(0,50%,50%,0.6)"
    stroke-width="1"
    transform="translate(-75.9427391476,-31.8562743882)"
    />
  
  <line
    x1="64"
    y1="13"
    x2="96.25"
    y2="23.125"
    stroke="hsla(0,50%,50%,0.6)"
    stroke-width="1"
    transform="translate(-75.9427391476,-31.8562743882)"
    />
  
  <line
    x1="82.57008200016078"
    y1="-7.486169172227135"
    x2="61.59405004112376"
    y2="-6.9798075119403205"
    stroke="hsla(0,50%,50%,0.6)"
    stroke-width="1"
    transform="translate(-75.9427391476,-31.8562743882)"
    />
  
  <line
    x1="61.59405004112376"
    y1="-6.9798075119403205"
    x2="62.096820483961736"
    y2="13.847458262990058"
    stroke="hsla(0,50%,50%,0.6)"
    stroke-width="1"
    transform="translate(-75.9427391476,-31.8562743882)"
    />
  
  <line
    x1="97.45496020580433"
    y1="17.161792882600423"
    x2="68.44555430500844"
    y2="17.86208028512474"
    stroke="hsla(0,50%,50%,0.6)"
    stroke-width="1"
    transform="translate(-75.9427391476,-31.8562743882)"
    />
  
  <line
    x1="44.10790658413056"
    y1="61.5390639654849"
    x2="61.44337606837607"
    y2="71.19871794871794"
    stroke="hsla(0,50%,50%,0.6)"
    stroke-width="1"
    transform="translate(-75.9427391476,-31.8562743882)"
    />
  
  <line
    x1="64"
    y1="13"
    x2="46"
    y2="18.25"
    stroke="hsla(0,50%,50%,0.6)"
    stroke-width="1"
    transform="translate(-75.9427391476,-31.8562743882)"
    />
  
  <line
    x1="82.57008200016078"
    y1="-7.486169172227135"
    x2="44.10790658413056"
    y2="61.5390639654849"
    stroke="hsla(0,50%,50%,0.6)"
    stroke-width="1"
    transform="translate(-75.9427391476,-31.8562743882)"
    />
  
  <line
    x1="88.38448754924029"
    y1="2.1419410054398798"
    x2="62.096820483961736"
    y2="13.847458262990058"
    stroke="hsla(0,50%,50%,0.6)"
    stroke-width="1"
    transform="translate(-75.9427391476,-31.8562743882)"
    />
  
  <line
    x1="88.38448754924029"
    y1="2.1419410054398798"
    x2="68.44555430500844"
    y2="17.86208028512474"
    stroke="hsla(0,50%,50%,0.6)"
    stroke-width="1"
    transform="translate(-75.9427391476,-31.8562743882)"
    />
  
  <line
    x1="97.45496020580433"
    y1="17.161792882600423"
    x2="72.0625"
    y2="62.731770833333336"
    stroke="hsla(0,50%,50%,0.6)"
    stroke-width="1"
    transform="translate(-75.9427391476,-31.8562743882)"
    />
  
  <line
    x1="107.77757171117705"
    y1="34.25506923837784"
    x2="61.44337606837607"
    y2="71.19871794871794"
    stroke="hsla(0,50%,50%,0.6)"
    stroke-width="1"
    transform="translate(-75.9427391476,-31.8562743882)"
    />
  
  <line
    x1="72.0625"
    y1="62.731770833333336"
    x2="60"
    y2="66.25"
    stroke="hsla(0,50%,50%,0.6)"
    stroke-width="1"
    transform="translate(-75.9427391476,-31.8562743882)"
    />
  
</svg>
