<?xml version="1.0"?>
<!DOCTYPE svg PUBLIC "-//W3C//DTD SVG 1.1//EN"
  "http://www.w3.org/Graphics/SVG/1.1/DTD/svg11.dtd">
<svg
  width="240"
  height="240"
  viewBox="-50 -50 200 200" xmlns="http://www.w3.org/2000/svg" version="1.1">
  <rect
    x="0"
    y="0"
    width="100"
    height="100"
    fill="hsla(206,100%,53%,0.3)"
    stroke="hsl(206,100%,53%)"
    stroke-width="3"
    transform="" />
  
  <path
    d="M 
      60
      20
      L
    
      42.8571428571
      42.8571428571
      L
    
      50
      50
      L
    
      0
      100
      L
    
      25
      25
      z
    "
    fill="hsla(0,0%,50%,0.3)"
    stroke="hsla(0,0%,50%,1)"
    stroke-width="1"
    transform="translate(-25.1785714285,-47.6785714285) scale(1,-1) translate(50,-110)"
    />
  
  
  <line
    x1="25"
    y1="25"
    x2="50"
    y2="50"
    stroke="hsla(0,50%,50%,0.6)"
    stroke-width="1"
    transform="translate(-25.1785714285,-47.6785714285) scale(1,-1) translate(50,-110)"
    />
  
  <line
    x1="25"
    y1="25"
    x2="0"
    y2="100"
    stroke="hsla(0,50%,50%,0.6)"
    stroke-width="1"
    transform="translate(-25.1785714285,-47.6785714285) scale(1,-1) translate(50,-110)"
    />
  
  <line
    x1="60"
    y1="20"
    x2="25"
    y2="25"
    stroke="hsla(0,50%,50%,0.6)"
    stroke-width="1"
    transform="translate(-25.1785714285,-47.6785714285) scale(1,-1) translate(50,-110)"
    />
  
  <line
    x1="60"
    y1="20"
    x2="0"
    y2="100"
    stroke="hsla(0,50%,50%,0.6)"
    stroke-width="1"
    transform="translate(-25.1785714285,-47.6785714285) scale(1,-1) translate(50,-110)"
    />
  
  <line
    x1="50"
    y1="50"
    x2="0"
    y2="100"
    stroke="hsla(0,50%,50%,0.6)"
    stroke-width="1"
    transform="translate(-25.1785714285,-47.6785714285) scale(1,-1) translate(50,-110)"
    />
  
</svg>
