<?xml version="1.0"?>
<!DOCTYPE svg PUBLIC "-//W3C//DTD SVG 1.1//EN"
  "http://www.w3.org/Graphics/SVG/1.1/DTD/svg11.dtd">
<svg
  width="240"
  height="240"
  viewBox="-50 -50 200 200" xmlns="http://www.w3.org/2000/svg" version="1.1">
  <rect
    x="0"
    y="0"
    width="100"
    height="100"
    fill="hsla(206,100%,53%,0.3)"
    stroke="hsl(206,100%,53%)"
    stroke-width="3"
    transform="" />
  
  <path
    d="M 
      -16.3259794230
      58.4683691829
      L
    
      22.3633644397
      93.5837206806
      L
    
      12.3115216697
      114.0931184681
      L
    
      -1.2844281734
      108.1630563130
      L
    
      -4.0611138491
      109.8749383932
      L
    
      -8.8348006214
      106.9174003107
      L
    
      -10
      107.5
      L
    
      -20
      100
      L
    
      -52.3115216697
      85.9068815318
      L
    
      -54.0031177611
      68.4816947996
      L
    
      -25.8775683734
      65.7513327012
      z
    "
    fill="hsla(0,0%,50%,0.3)"
    stroke="hsla(0,0%,50%,1)"
    stroke-width="1"
    transform="translate(34.6858505203,-73.6666460078) scale(1,-1) translate(50,-110)"
    />
  
  
  <line
    x1="-10"
    y1="64.2099757554185"
    x2="-10"
    y2="107.5"
    stroke="hsla(0,50%,50%,0.6)"
    stroke-width="1"
    transform="translate(34.6858505203,-73.6666460078) scale(1,-1) translate(50,-110)"
    />
  
  <line
    x1="-26.472895661133844"
    y1="66.20526208824006"
    x2="-26.225998317916595"
    y2="97.2844444537899"
    stroke="hsla(0,50%,50%,0.6)"
    stroke-width="1"
    transform="translate(34.6858505203,-73.6666460078) scale(1,-1) translate(50,-110)"
    />
  
  <line
    x1="-7.963641780982542"
    y1="66.0582220035238"
    x2="-4.061113849186792"
    y2="109.87493839329719"
    stroke="hsla(0,50%,50%,0.6)"
    stroke-width="1"
    transform="translate(34.6858505203,-73.6666460078) scale(1,-1) translate(50,-110)"
    />
  
  <line
    x1="-54.00311776114873"
    y1="68.48169479968723"
    x2="-52.31152166975744"
    y2="85.90688153186666"
    stroke="hsla(0,50%,50%,0.6)"
    stroke-width="1"
    transform="translate(34.6858505203,-73.6666460078) scale(1,-1) translate(50,-110)"
    />
  
  <line
    x1="-16.32597942305245"
    y1="58.468369182931745"
    x2="-35.93888615081321"
    y2="90.12506160670281"
    stroke="hsla(0,50%,50%,0.6)"
    stroke-width="1"
    transform="translate(34.6858505203,-73.6666460078) scale(1,-1) translate(50,-110)"
    />
  
  <line
    x1="20.753982983633875"
    y1="92.12300850818306"
    x2="12.311521669757436"
    y2="114.09311846813334"
    stroke="hsla(0,50%,50%,0.6)"
    stroke-width="1"
    transform="translate(34.6858505203,-73.6666460078) scale(1,-1) translate(50,-110)"
    />
  
  <line
    x1="0.021028598566180463"
    y1="73.30529520191176"
    x2="-20"
    y2="100"
    stroke="hsla(0,50%,50%,0.6)"
    stroke-width="1"
    transform="translate(34.6858505203,-73.6666460078) scale(1,-1) translate(50,-110)"
    />
  
  <line
    x1="22.363364439793582"
    y1="93.58372068069691"
    x2="12.311521669757436"
    y2="114.09311846813334"
    stroke="hsla(0,50%,50%,0.6)"
    stroke-width="1"
    transform="translate(34.6858505203,-73.6666460078) scale(1,-1) translate(50,-110)"
    />
  
  <line
    x1="-16.32597942305245"
    y1="58.468369182931745"
    x2="-52.31152166975744"
    y2="85.90688153186666"
    stroke="hsla(0,50%,50%,0.6)"
    stroke-width="1"
    transform="translate(34.6858505203,-73.6666460078) scale(1,-1) translate(50,-110)"
    />
  
  <line
    x1="0.021028598566180463"
    y1="73.30529520191176"
    x2="-26.225998317916595"
    y2="97.2844444537899"
    stroke="hsla(0,50%,50%,0.6)"
    stroke-width="1"
    transform="translate(34.6858505203,-73.6666460078) scale(1,-1) translate(50,-110)"
    />
  
  <line
    x1="-16.32597942305245"
    y1="58.468369182931745"
    x2="22.363364439793582"
    y2="93.58372068069691"
    stroke="hsla(0,50%,50%,0.6)"
    stroke-width="1"
    transform="translate(34.6858505203,-73.6666460078) scale(1,-1) translate(50,-110)"
    />
  
  <line
    x1="-10"
    y1="64.2099757554185"
    x2="-54.00311776114873"
    y2="68.48169479968723"
    stroke="hsla(0,50%,50%,0.6)"
    stroke-width="1"
    transform="translate(34.6858505203,-73.6666460078) scale(1,-1) translate(50,-110)"
    />
  
  <line
    x1="-7.963641780982542"
    y1="66.0582220035238"
    x2="-26.472895661133844"
    y2="66.20526208824006"
    stroke="hsla(0,50%,50%,0.6)"
    stroke-width="1"
    transform="translate(34.6858505203,-73.6666460078) scale(1,-1) translate(50,-110)"
    />
  
  <line
    x1="-20"
    y1="100"
    x2="-10"
    y2="107.5"
    stroke="hsla(0,50%,50%,0.6)"
    stroke-width="1"
    transform="translate(34.6858505203,-73.6666460078) scale(1,-1) translate(50,-110)"
    />
  
  <line
    x1="22.363364439793582"
    y1="93.58372068069691"
    x2="-4.061113849186792"
    y2="109.87493839329719"
    stroke="hsla(0,50%,50%,0.6)"
    stroke-width="1"
    transform="translate(34.6858505203,-73.6666460078) scale(1,-1) translate(50,-110)"
    />
  
  <line
    x1="-35.93888615081321"
    y1="90.12506160670281"
    x2="-4.061113849186792"
    y2="109.87493839329719"
    stroke="hsla(0,50%,50%,0.6)"
    stroke-width="1"
    transform="translate(34.6858505203,-73.6666460078) scale(1,-1) translate(50,-110)"
    />
  
  <line
    x1="20.753982983633875"
    y1="92.12300850818306"
    x2="-10"
    y2="107.5"
    stroke="hsla(0,50%,50%,0.6)"
    stroke-width="1"
    transform="translate(34.6858505203,-73.6666460078) scale(1,-1) translate(50,-110)"
    />
  
  <line
    x1="-52.31152166975744"
    y1="85.90688153186666"
    x2="12.311521669757436"
    y2="114.09311846813334"
    stroke="hsla(0,50%,50%,0.6)"
    stroke-width="1"
    transform="translate(34.6858505203,-73.6666460078) scale(1,-1) translate(50,-110)"
    />
  
</svg>
