<?xml version="1.0"?>
<!DOCTYPE svg PUBLIC "-//W3C//DTD SVG 1.1//EN"
  "http://www.w3.org/Graphics/SVG/1.1/DTD/svg11.dtd">
<svg
  width="240"
  height="240"
  viewBox="-50 -50 200 200" xmlns="http://www.w3.org/2000/svg" version="1.1">
  <rect
    x="0"
    y="0"
    width="100"
    height="100"
    fill="hsla(206,100%,53%,0.3)"
    stroke="hsl(206,100%,53%)"
    stroke-width="3"
    transform="" />
  
  <path
    d="M 
      24.1140292553
      95.625
      L
    
      26.25
      95.625
      L
    
      45
      105
      L
    
      45
      136.25
      L
    
      20
      136.25
      L
    
      19.6064331874
      140.1363728882
      L
    
      -18.0570361795
      170.8730663545
      L
    
      -16.7976223794
      158.4366731121
      L
    
      4.8064179485
      124.3252239314
      L
    
      -0.2218391833
      117.6208810888
      z
    "
    fill="hsla(0,0%,50%,0.3)"
    stroke="hsla(0,0%,50%,1)"
    stroke-width="1"
    transform="translate(0.5866706314,-128.7322097474) scale(1,-1) translate(50,-110)"
    />
  
  
  <line
    x1="-16.797622379401588"
    y1="158.43667311215142"
    x2="-18.057036179523713"
    y2="170.87306635456952"
    stroke="hsla(0,50%,50%,0.6)"
    stroke-width="1"
    transform="translate(0.5866706314,-128.7322097474) scale(1,-1) translate(50,-110)"
    />
  
  <line
    x1="20"
    y1="99.34344951923077"
    x2="20"
    y2="136.25"
    stroke="hsla(0,50%,50%,0.6)"
    stroke-width="1"
    transform="translate(0.5866706314,-128.7322097474) scale(1,-1) translate(50,-110)"
    />
  
  <line
    x1="45"
    y1="105"
    x2="45"
    y2="136.25"
    stroke="hsla(0,50%,50%,0.6)"
    stroke-width="1"
    transform="translate(0.5866706314,-128.7322097474) scale(1,-1) translate(50,-110)"
    />
  
  <line
    x1="6.8267952127659575"
    y1="111.25"
    x2="5.635208884591899"
    y2="123.0166140850804"
    stroke="hsla(0,50%,50%,0.6)"
    stroke-width="1"
    transform="translate(0.5866706314,-128.7322097474) scale(1,-1) translate(50,-110)"
    />
  
  <line
    x1="24.11402925531915"
    y1="95.625"
    x2="19.606433187461835"
    y2="140.13637288825564"
    stroke="hsla(0,50%,50%,0.6)"
    stroke-width="1"
    transform="translate(0.5866706314,-128.7322097474) scale(1,-1) translate(50,-110)"
    />
  
  <line
    x1="20.590429727254225"
    y1="99.40324140036637"
    x2="23.279723437818035"
    y2="103.86355926453626"
    stroke="hsla(0,50%,50%,0.6)"
    stroke-width="1"
    transform="translate(0.5866706314,-128.7322097474) scale(1,-1) translate(50,-110)"
    />
  
  <line
    x1="5.635208884591899"
    y1="123.0166140850804"
    x2="15.316666242621617"
    y2="139.073758396092"
    stroke="hsla(0,50%,50%,0.6)"
    stroke-width="1"
    transform="translate(0.5866706314,-128.7322097474) scale(1,-1) translate(50,-110)"
    />
  
  <line
    x1="21.469494047619047"
    y1="98.01525297619048"
    x2="-16.797622379401588"
    y2="158.43667311215142"
    stroke="hsla(0,50%,50%,0.6)"
    stroke-width="1"
    transform="translate(0.5866706314,-128.7322097474) scale(1,-1) translate(50,-110)"
    />
  
  <line
    x1="-0.22183918338108882"
    y1="117.62088108882521"
    x2="10"
    y2="131.25"
    stroke="hsla(0,50%,50%,0.6)"
    stroke-width="1"
    transform="translate(0.5866706314,-128.7322097474) scale(1,-1) translate(50,-110)"
    />
  
  <line
    x1="0.6147411616161617"
    y1="116.86474116161617"
    x2="19.606433187461835"
    y2="140.13637288825564"
    stroke="hsla(0,50%,50%,0.6)"
    stroke-width="1"
    transform="translate(0.5866706314,-128.7322097474) scale(1,-1) translate(50,-110)"
    />
  
  <line
    x1="0.6147411616161617"
    y1="116.86474116161617"
    x2="20"
    y2="136.25"
    stroke="hsla(0,50%,50%,0.6)"
    stroke-width="1"
    transform="translate(0.5866706314,-128.7322097474) scale(1,-1) translate(50,-110)"
    />
  
  <line
    x1="23.279723437818035"
    y1="103.86355926453626"
    x2="5.635208884591899"
    y2="123.0166140850804"
    stroke="hsla(0,50%,50%,0.6)"
    stroke-width="1"
    transform="translate(0.5866706314,-128.7322097474) scale(1,-1) translate(50,-110)"
    />
  
  <line
    x1="-0.22183918338108882"
    y1="117.62088108882521"
    x2="20"
    y2="136.25"
    stroke="hsla(0,50%,50%,0.6)"
    stroke-width="1"
    transform="translate(0.5866706314,-128.7322097474) scale(1,-1) translate(50,-110)"
    />
  
  <line
    x1="24.11402925531915"
    y1="95.625"
    x2="-0.22183918338108882"
    y2="117.62088108882521"
    stroke="hsla(0,50%,50%,0.6)"
    stroke-width="1"
    transform="translate(0.5866706314,-128.7322097474) scale(1,-1) translate(50,-110)"
    />
  
  <line
    x1="26.25"
    y1="95.625"
    x2="45"
    y2="105"
    stroke="hsla(0,50%,50%,0.6)"
    stroke-width="1"
    transform="translate(0.5866706314,-128.7322097474) scale(1,-1) translate(50,-110)"
    />
  
  <line
    x1="26.25"
    y1="95.625"
    x2="21.469494047619047"
    y2="98.01525297619048"
    stroke="hsla(0,50%,50%,0.6)"
    stroke-width="1"
    transform="translate(0.5866706314,-128.7322097474) scale(1,-1) translate(50,-110)"
    />
  
  <line
    x1="45"
    y1="105"
    x2="10"
    y2="131.25"
    stroke="hsla(0,50%,50%,0.6)"
    stroke-width="1"
    transform="translate(0.5866706314,-128.7322097474) scale(1,-1) translate(50,-110)"
    />
  
  <line
    x1="19.606433187461835"
    y1="140.13637288825564"
    x2="-18.057036179523713"
    y2="170.87306635456952"
    stroke="hsla(0,50%,50%,0.6)"
    stroke-width="1"
    transform="translate(0.5866706314,-128.7322097474) scale(1,-1) translate(50,-110)"
    />
  
  <line
    x1="24.11402925531915"
    y1="95.625"
    x2="26.25"
    y2="95.625"
    stroke="hsla(0,50%,50%,0.6)"
    stroke-width="1"
    transform="translate(0.5866706314,-128.7322097474) scale(1,-1) translate(50,-110)"
    />
  
  <line
    x1="20"
    y1="99.34344951923077"
    x2="23.69952803785874"
    y2="99.71809485039691"
    stroke="hsla(0,50%,50%,0.6)"
    stroke-width="1"
    transform="translate(0.5866706314,-128.7322097474) scale(1,-1) translate(50,-110)"
    />
  
  <line
    x1="20"
    y1="136.25"
    x2="-16.797622379401588"
    y2="158.43667311215142"
    stroke="hsla(0,50%,50%,0.6)"
    stroke-width="1"
    transform="translate(0.5866706314,-128.7322097474) scale(1,-1) translate(50,-110)"
    />
  
  <line
    x1="6.8267952127659575"
    y1="111.25"
    x2="45"
    y2="111.25"
    stroke="hsla(0,50%,50%,0.6)"
    stroke-width="1"
    transform="translate(0.5866706314,-128.7322097474) scale(1,-1) translate(50,-110)"
    />
  
  <line
    x1="5.635208884591899"
    y1="123.0166140850804"
    x2="21.180700437614494"
    y2="124.59088133523305"
    stroke="hsla(0,50%,50%,0.6)"
    stroke-width="1"
    transform="translate(0.5866706314,-128.7322097474) scale(1,-1) translate(50,-110)"
    />
  
  <line
    x1="20"
    y1="136.25"
    x2="45"
    y2="136.25"
    stroke="hsla(0,50%,50%,0.6)"
    stroke-width="1"
    transform="translate(0.5866706314,-128.7322097474) scale(1,-1) translate(50,-110)"
    />
  
</svg>
