<?xml version="1.0"?>
<!DOCTYPE svg PUBLIC "-//W3C//DTD SVG 1.1//EN"
  "http://www.w3.org/Graphics/SVG/1.1/DTD/svg11.dtd">
<svg
  width="240"
  height="240"
  viewBox="-50 -50 200 200" xmlns="http://www.w3.org/2000/svg" version="1.1">
  <rect
    x="0"
    y="0"
    width="100"
    height="100"
    fill="hsla(206,100%,53%,0.3)"
    stroke="hsl(206,100%,53%)"
    stroke-width="3"
    transform="" />
  
  <path
    d="M 
      102.9911580383
      56.5612025601
      L
    
      147.0823670629
      75.8352658741
      L
    
      136.0312819143
      105.1443022882
      L
    
      143.94
      117.54875
      L
    
      128.13
      127.62875
      L
    
      122.7857730263
      124.4284539473
      L
    
      116.5689466831
      125.0715482006
      L
    
      114.8540286742
      108.4933446188
      L
    
      82.3123160753
      73.3217099458
      L
    
      97.4268345469
      59.3373637319
      z
    "
    fill="hsla(0,0%,50%,0.3)"
    stroke="hsla(0,0%,50%,1)"
    stroke-width="1"
    transform="translate(-98.9172240000,-76.8479939895) scale(1,-1) translate(50,-110)"
    />
  
  
  <line
    x1="105.85399537444343"
    y1="57.812665364082406"
    x2="143.94"
    y2="117.54875"
    stroke="hsla(0,50%,50%,0.6)"
    stroke-width="1"
    transform="translate(-98.9172240000,-76.8479939895) scale(1,-1) translate(50,-110)"
    />
  
  <line
    x1="102.9911580383909"
    y1="56.56120256019741"
    x2="122.7857730263158"
    y2="124.42845394736842"
    stroke="hsla(0,50%,50%,0.6)"
    stroke-width="1"
    transform="translate(-98.9172240000,-76.8479939895) scale(1,-1) translate(50,-110)"
    />
  
  <line
    x1="120"
    y1="114.87723214285714"
    x2="128.13"
    y2="127.62875"
    stroke="hsla(0,50%,50%,0.6)"
    stroke-width="1"
    transform="translate(-98.9172240000,-76.8479939895) scale(1,-1) translate(50,-110)"
    />
  
  <line
    x1="109.78936544956856"
    y1="59.532975912823574"
    x2="116.56894668312769"
    y2="125.07154820068013"
    stroke="hsla(0,50%,50%,0.6)"
    stroke-width="1"
    transform="translate(-98.9172240000,-76.8479939895) scale(1,-1) translate(50,-110)"
    />
  
  <line
    x1="82.31231607531949"
    y1="73.3217099458587"
    x2="129.00259936950388"
    y2="123.78535969405672"
    stroke="hsla(0,50%,50%,0.6)"
    stroke-width="1"
    transform="translate(-98.9172240000,-76.8479939895) scale(1,-1) translate(50,-110)"
    />
  
  <line
    x1="106.97916666666667"
    y1="70.234375"
    x2="120"
    y2="80"
    stroke="hsla(0,50%,50%,0.6)"
    stroke-width="1"
    transform="translate(-98.9172240000,-76.8479939895) scale(1,-1) translate(50,-110)"
    />
  
  <line
    x1="120"
    y1="63.99646015728557"
    x2="120"
    y2="114.87723214285714"
    stroke="hsla(0,50%,50%,0.6)"
    stroke-width="1"
    transform="translate(-98.9172240000,-76.8479939895) scale(1,-1) translate(50,-110)"
    />
  
  <line
    x1="102.9911580383909"
    y1="56.56120256019741"
    x2="147.08236706293943"
    y2="75.83526587412115"
    stroke="hsla(0,50%,50%,0.6)"
    stroke-width="1"
    transform="translate(-98.9172240000,-76.8479939895) scale(1,-1) translate(50,-110)"
    />
  
  <line
    x1="130.5"
    y1="96.46875"
    x2="128.13"
    y2="127.62875"
    stroke="hsla(0,50%,50%,0.6)"
    stroke-width="1"
    transform="translate(-98.9172240000,-76.8479939895) scale(1,-1) translate(50,-110)"
    />
  
  <line
    x1="122.7857730263158"
    y1="124.42845394736842"
    x2="128.13"
    y2="127.62875"
    stroke="hsla(0,50%,50%,0.6)"
    stroke-width="1"
    transform="translate(-98.9172240000,-76.8479939895) scale(1,-1) translate(50,-110)"
    />
  
  <line
    x1="112.67578125"
    y1="89.765625"
    x2="130.5"
    y2="96.46875"
    stroke="hsla(0,50%,50%,0.6)"
    stroke-width="1"
    transform="translate(-98.9172240000,-76.8479939895) scale(1,-1) translate(50,-110)"
    />
  
  <line
    x1="109.5"
    y1="63.53125"
    x2="106.97916666666667"
    y2="70.234375"
    stroke="hsla(0,50%,50%,0.6)"
    stroke-width="1"
    transform="translate(-98.9172240000,-76.8479939895) scale(1,-1) translate(50,-110)"
    />
  
  <line
    x1="104.92254273504274"
    y1="63.18309294871795"
    x2="109.5"
    y2="63.53125"
    stroke="hsla(0,50%,50%,0.6)"
    stroke-width="1"
    transform="translate(-98.9172240000,-76.8479939895) scale(1,-1) translate(50,-110)"
    />
  
  <line
    x1="147.08236706293943"
    y1="75.83526587412115"
    x2="129.00259936950388"
    y2="123.78535969405672"
    stroke="hsla(0,50%,50%,0.6)"
    stroke-width="1"
    transform="translate(-98.9172240000,-76.8479939895) scale(1,-1) translate(50,-110)"
    />
  
  <line
    x1="147.08236706293943"
    y1="75.83526587412115"
    x2="122.7857730263158"
    y2="124.42845394736842"
    stroke="hsla(0,50%,50%,0.6)"
    stroke-width="1"
    transform="translate(-98.9172240000,-76.8479939895) scale(1,-1) translate(50,-110)"
    />
  
  <line
    x1="105.85399537444343"
    y1="57.812665364082406"
    x2="97.42683454697945"
    y2="59.33736373193497"
    stroke="hsla(0,50%,50%,0.6)"
    stroke-width="1"
    transform="translate(-98.9172240000,-76.8479939895) scale(1,-1) translate(50,-110)"
    />
  
  <line
    x1="97.42683454697945"
    y1="59.33736373193497"
    x2="82.31231607531949"
    y2="73.3217099458587"
    stroke="hsla(0,50%,50%,0.6)"
    stroke-width="1"
    transform="translate(-98.9172240000,-76.8479939895) scale(1,-1) translate(50,-110)"
    />
  
  <line
    x1="120"
    y1="80"
    x2="112.67578125"
    y2="89.765625"
    stroke="hsla(0,50%,50%,0.6)"
    stroke-width="1"
    transform="translate(-98.9172240000,-76.8479939895) scale(1,-1) translate(50,-110)"
    />
  
  <line
    x1="102.9911580383909"
    y1="56.56120256019741"
    x2="97.42683454697945"
    y2="59.33736373193497"
    stroke="hsla(0,50%,50%,0.6)"
    stroke-width="1"
    transform="translate(-98.9172240000,-76.8479939895) scale(1,-1) translate(50,-110)"
    />
  
  <line
    x1="109.78936544956856"
    y1="59.532975912823574"
    x2="104.92254273504274"
    y2="63.18309294871795"
    stroke="hsla(0,50%,50%,0.6)"
    stroke-width="1"
    transform="translate(-98.9172240000,-76.8479939895) scale(1,-1) translate(50,-110)"
    />
  
  <line
    x1="120"
    y1="63.99646015728557"
    x2="95.04602970100615"
    y2="87.08452351354907"
    stroke="hsla(0,50%,50%,0.6)"
    stroke-width="1"
    transform="translate(-98.9172240000,-76.8479939895) scale(1,-1) translate(50,-110)"
    />
  
  <line
    x1="129.00259936950388"
    y1="123.78535969405672"
    x2="116.56894668312769"
    y2="125.07154820068013"
    stroke="hsla(0,50%,50%,0.6)"
    stroke-width="1"
    transform="translate(-98.9172240000,-76.8479939895) scale(1,-1) translate(50,-110)"
    />
  
  <line
    x1="143.94"
    y1="117.54875"
    x2="128.13"
    y2="127.62875"
    stroke="hsla(0,50%,50%,0.6)"
    stroke-width="1"
    transform="translate(-98.9172240000,-76.8479939895) scale(1,-1) translate(50,-110)"
    />
  
</svg>
