<?xml version="1.0"?>
<!DOCTYPE svg PUBLIC "-//W3C//DTD SVG 1.1//EN"
  "http://www.w3.org/Graphics/SVG/1.1/DTD/svg11.dtd">
<svg
  width="240"
  height="240"
  viewBox="-50 -50 200 200" xmlns="http://www.w3.org/2000/svg" version="1.1">
  <rect
    x="0"
    y="0"
    width="100"
    height="100"
    fill="hsla(206,100%,53%,0.3)"
    stroke="hsl(206,100%,53%)"
    stroke-width="3"
    transform="" />
  
  <path
    d="M 
      64.5041446630
      129.2389475651
      L
    
      84.3724261222
      169.2582624167
      L
    
      74.9207081679
      201.2158621169
      L
    
      62.6139994503
      203.4055928175
      L
    
      59.6943585163
      186.9966478607
      L
    
      30.7855600172
      160
      L
    
      10
      160
      L
    
      10
      132.0223499766
      z
    "
    fill="hsla(0,0%,50%,0.3)"
    stroke="hsla(0,0%,50%,1)"
    stroke-width="1"
    transform="translate(-19.3695141666,-149.5308975537) scale(1,-1) translate(50,-110)"
    />
  
  
  <line
    x1="49.55338980672655"
    y1="130.0024485315384"
    x2="62.61399945035513"
    y2="203.40559281750393"
    stroke="hsla(0,50%,50%,0.6)"
    stroke-width="1"
    transform="translate(-19.3695141666,-149.5308975537) scale(1,-1) translate(50,-110)"
    />
  
  <line
    x1="64.50414466305263"
    y1="129.238947565193"
    x2="84.37242612224277"
    y2="169.2582624167564"
    stroke="hsla(0,50%,50%,0.6)"
    stroke-width="1"
    transform="translate(-19.3695141666,-149.5308975537) scale(1,-1) translate(50,-110)"
    />
  
  <line
    x1="10"
    y1="132.02234997664127"
    x2="10"
    y2="160"
    stroke="hsla(0,50%,50%,0.6)"
    stroke-width="1"
    transform="translate(-19.3695141666,-149.5308975537) scale(1,-1) translate(50,-110)"
    />
  
  <line
    x1="10"
    y1="132.02234997664127"
    x2="10.970039631181889"
    y2="141.49516224077786"
    stroke="hsla(0,50%,50%,0.6)"
    stroke-width="1"
    transform="translate(-19.3695141666,-149.5308975537) scale(1,-1) translate(50,-110)"
    />
  
  <line
    x1="49.55338980672655"
    y1="130.0024485315384"
    x2="47.67123287671233"
    y2="155.37671232876713"
    stroke="hsla(0,50%,50%,0.6)"
    stroke-width="1"
    transform="translate(-19.3695141666,-149.5308975537) scale(1,-1) translate(50,-110)"
    />
  
  <line
    x1="84.37242612224277"
    y1="169.2582624167564"
    x2="74.92070816792773"
    y2="201.21586211697877"
    stroke="hsla(0,50%,50%,0.6)"
    stroke-width="1"
    transform="translate(-19.3695141666,-149.5308975537) scale(1,-1) translate(50,-110)"
    />
  
  <line
    x1="64.50414466305263"
    y1="129.238947565193"
    x2="52.96875"
    y2="160"
    stroke="hsla(0,50%,50%,0.6)"
    stroke-width="1"
    transform="translate(-19.3695141666,-149.5308975537) scale(1,-1) translate(50,-110)"
    />
  
  <line
    x1="20.30786056339045"
    y1="131.49595103714074"
    x2="52.96875"
    y2="160"
    stroke="hsla(0,50%,50%,0.6)"
    stroke-width="1"
    transform="translate(-19.3695141666,-149.5308975537) scale(1,-1) translate(50,-110)"
    />
  
  <line
    x1="10.970039631181889"
    y1="141.49516224077786"
    x2="74.92070816792773"
    y2="201.21586211697877"
    stroke="hsla(0,50%,50%,0.6)"
    stroke-width="1"
    transform="translate(-19.3695141666,-149.5308975537) scale(1,-1) translate(50,-110)"
    />
  
  <line
    x1="20.30786056339045"
    y1="131.49595103714074"
    x2="10.970039631181889"
    y2="141.49516224077786"
    stroke="hsla(0,50%,50%,0.6)"
    stroke-width="1"
    transform="translate(-19.3695141666,-149.5308975537) scale(1,-1) translate(50,-110)"
    />
  
  <line
    x1="21.887072386109416"
    y1="131.41530428958205"
    x2="54.51219512195122"
    y2="155.8841463414634"
    stroke="hsla(0,50%,50%,0.6)"
    stroke-width="1"
    transform="translate(-19.3695141666,-149.5308975537) scale(1,-1) translate(50,-110)"
    />
  
  <line
    x1="21.887072386109416"
    y1="131.41530428958205"
    x2="10.970039631181889"
    y2="141.49516224077786"
    stroke="hsla(0,50%,50%,0.6)"
    stroke-width="1"
    transform="translate(-19.3695141666,-149.5308975537) scale(1,-1) translate(50,-110)"
    />
  
  <line
    x1="10.970039631181889"
    y1="141.49516224077786"
    x2="84.37242612224277"
    y2="169.2582624167564"
    stroke="hsla(0,50%,50%,0.6)"
    stroke-width="1"
    transform="translate(-19.3695141666,-149.5308975537) scale(1,-1) translate(50,-110)"
    />
  
  <line
    x1="64.50414466305263"
    y1="129.238947565193"
    x2="10"
    y2="132.02234997664127"
    stroke="hsla(0,50%,50%,0.6)"
    stroke-width="1"
    transform="translate(-19.3695141666,-149.5308975537) scale(1,-1) translate(50,-110)"
    />
  
  <line
    x1="47.67123287671233"
    y1="155.37671232876713"
    x2="54.51219512195122"
    y2="155.8841463414634"
    stroke="hsla(0,50%,50%,0.6)"
    stroke-width="1"
    transform="translate(-19.3695141666,-149.5308975537) scale(1,-1) translate(50,-110)"
    />
  
  <line
    x1="10"
    y1="160"
    x2="52.96875"
    y2="160"
    stroke="hsla(0,50%,50%,0.6)"
    stroke-width="1"
    transform="translate(-19.3695141666,-149.5308975537) scale(1,-1) translate(50,-110)"
    />
  
  <line
    x1="74.92070816792773"
    y1="201.21586211697877"
    x2="62.61399945035513"
    y2="203.40559281750393"
    stroke="hsla(0,50%,50%,0.6)"
    stroke-width="1"
    transform="translate(-19.3695141666,-149.5308975537) scale(1,-1) translate(50,-110)"
    />
  
</svg>
