<?xml version="1.0"?>
<!DOCTYPE svg PUBLIC "-//W3C//DTD SVG 1.1//EN"
  "http://www.w3.org/Graphics/SVG/1.1/DTD/svg11.dtd">
<svg
  width="240"
  height="240"
  viewBox="-500 -500 1000 1000" xmlns="http://www.w3.org/2000/svg" version="1.1">
  <rect
    x="0"
    y="0"
    width="100"
    height="100"
    fill="hsla(206,100%,53%,0.3)"
    stroke="hsl(206,100%,53%)"
    stroke-width="3"
    transform="" />
  
  <path
    d="M 
      38.1818181818
      12.7272727272
      L
    
      57.5757575757
      27.2727272727
      L
    
      72.7272727272
      27.2727272727
      L
    
      87.2727272727
      38.1818181818
      L
    
      72.7272727272
      57.5757575757
      L
    
      72.7272727272
      72.7272727272
      L
    
      61.8181818181
      87.2727272727
      L
    
      42.4242424242
      72.7272727272
      L
    
      27.2727272727
      72.7272727272
      L
    
      12.7272727272
      61.8181818181
      L
    
      27.2727272727
      42.4242424242
      L
    
      27.2727272727
      27.2727272727
      z
    "
    fill="hsla(0,0%,50%,0.3)"
    stroke="hsla(0,0%,50%,1)"
    stroke-width="1"
    transform="translate(-50,-50)"
    />
  
  
  <line
    x1="72.72727272727273"
    y1="27.272727272727273"
    x2="87.27272727272727"
    y2="38.18181818181818"
    stroke="hsla(0,50%,50%,0.6)"
    stroke-width="1"
    transform="translate(-50,-50)"
    />
  
  <line
    x1="38.18181818181818"
    y1="12.727272727272727"
    x2="81.81818181818181"
    y2="45.45454545454545"
    stroke="hsla(0,50%,50%,0.6)"
    stroke-width="1"
    transform="translate(-50,-50)"
    />
  
  <line
    x1="27.272727272727273"
    y1="27.272727272727273"
    x2="27.272727272727273"
    y2="72.72727272727273"
    stroke="hsla(0,50%,50%,0.6)"
    stroke-width="1"
    transform="translate(-50,-50)"
    />
  
  <line
    x1="72.72727272727273"
    y1="27.272727272727273"
    x2="72.72727272727273"
    y2="72.72727272727273"
    stroke="hsla(0,50%,50%,0.6)"
    stroke-width="1"
    transform="translate(-50,-50)"
    />
  
  <line
    x1="27.272727272727273"
    y1="27.272727272727273"
    x2="70.9090909090909"
    y2="60"
    stroke="hsla(0,50%,50%,0.6)"
    stroke-width="1"
    transform="translate(-50,-50)"
    />
  
  <line
    x1="29.09090909090909"
    y1="40"
    x2="72.72727272727273"
    y2="72.72727272727273"
    stroke="hsla(0,50%,50%,0.6)"
    stroke-width="1"
    transform="translate(-50,-50)"
    />
  
  <line
    x1="38.18181818181818"
    y1="12.727272727272727"
    x2="27.272727272727273"
    y2="27.272727272727273"
    stroke="hsla(0,50%,50%,0.6)"
    stroke-width="1"
    transform="translate(-50,-50)"
    />
  
  <line
    x1="18.181818181818183"
    y1="54.54545454545455"
    x2="61.81818181818182"
    y2="87.27272727272727"
    stroke="hsla(0,50%,50%,0.6)"
    stroke-width="1"
    transform="translate(-50,-50)"
    />
  
  <line
    x1="27.272727272727273"
    y1="27.272727272727273"
    x2="72.72727272727273"
    y2="27.272727272727273"
    stroke="hsla(0,50%,50%,0.6)"
    stroke-width="1"
    transform="translate(-50,-50)"
    />
  
  <line
    x1="45.45454545454545"
    y1="18.181818181818183"
    x2="12.727272727272727"
    y2="61.81818181818182"
    stroke="hsla(0,50%,50%,0.6)"
    stroke-width="1"
    transform="translate(-50,-50)"
    />
  
  <line
    x1="12.727272727272727"
    y1="61.81818181818182"
    x2="27.272727272727273"
    y2="72.72727272727273"
    stroke="hsla(0,50%,50%,0.6)"
    stroke-width="1"
    transform="translate(-50,-50)"
    />
  
  <line
    x1="60"
    y1="29.09090909090909"
    x2="27.272727272727273"
    y2="72.72727272727273"
    stroke="hsla(0,50%,50%,0.6)"
    stroke-width="1"
    transform="translate(-50,-50)"
    />
  
  <line
    x1="72.72727272727273"
    y1="27.272727272727273"
    x2="40"
    y2="70.9090909090909"
    stroke="hsla(0,50%,50%,0.6)"
    stroke-width="1"
    transform="translate(-50,-50)"
    />
  
  <line
    x1="87.27272727272727"
    y1="38.18181818181818"
    x2="54.54545454545455"
    y2="81.81818181818181"
    stroke="hsla(0,50%,50%,0.6)"
    stroke-width="1"
    transform="translate(-50,-50)"
    />
  
  <line
    x1="72.72727272727273"
    y1="72.72727272727273"
    x2="61.81818181818182"
    y2="87.27272727272727"
    stroke="hsla(0,50%,50%,0.6)"
    stroke-width="1"
    transform="translate(-50,-50)"
    />
  
  <line
    x1="27.272727272727273"
    y1="72.72727272727273"
    x2="72.72727272727273"
    y2="72.72727272727273"
    stroke="hsla(0,50%,50%,0.6)"
    stroke-width="1"
    transform="translate(-50,-50)"
    />
  
</svg>
