<?xml version="1.0"?>
<!DOCTYPE svg PUBLIC "-//W3C//DTD SVG 1.1//EN"
  "http://www.w3.org/Graphics/SVG/1.1/DTD/svg11.dtd">
<svg
  width="240"
  height="240"
  viewBox="-50 -50 200 200" xmlns="http://www.w3.org/2000/svg" version="1.1">
  <rect
    x="0"
    y="0"
    width="100"
    height="100"
    fill="hsla(206,100%,53%,0.3)"
    stroke="hsl(206,100%,53%)"
    stroke-width="3"
    transform="" />
  
  <path
    d="M 
      -75.8745476477
      -65.1387213510
      L
    
      -57.5381986328
      -49.3968636911
      L
    
      -9.2397479340
      -40.1979087937
      L
    
      -14.5214445258
      -12.4667409284
      L
    
      -0.0000000000
      -0.0000000000
      L
    
      -0.0000000000
      0.0000000000
      L
    
      -21.7129071170
      25.2915158825
      L
    
      -114.9577804583
      -19.6139927623
      L
    
      -107.4738849486
      -58.9076475681
      L
    
      -84.9129348208
      -54.6106740697
      z
    "
    fill="hsla(0,0%,50%,0.3)"
    stroke="hsla(0,0%,50%,1)"
    stroke-width="1"
    transform="translate(85.4618312205,43.3814000888) scale(1,-1) translate(50,-110)"
    />
  
  
  <line
    x1="-75.8745476477684"
    y1="-65.13872135102532"
    x2="-114.9577804583836"
    y2="-19.613992762364294"
    stroke="hsla(0,50%,50%,0.6)"
    stroke-width="1"
    transform="translate(85.4618312205,43.3814000888) scale(1,-1) translate(50,-110)"
    />
  
  <line
    x1="-107.47388494862079"
    y1="-58.90764756818444"
    x2="-9.239747934070444"
    y2="-40.19790879377744"
    stroke="hsla(0,50%,50%,0.6)"
    stroke-width="1"
    transform="translate(85.4618312205,43.3814000888) scale(1,-1) translate(50,-110)"
    />
  
  <line
    x1="-107.47388494862079"
    y1="-58.90764756818444"
    x2="-114.9577804583836"
    y2="-19.613992762364294"
    stroke="hsla(0,50%,50%,0.6)"
    stroke-width="1"
    transform="translate(85.4618312205,43.3814000888) scale(1,-1) translate(50,-110)"
    />
  
  <line
    x1="-9.239747934070444"
    y1="-40.19790879377744"
    x2="-21.712907117008445"
    y2="25.291515882589465"
    stroke="hsla(0,50%,50%,0.6)"
    stroke-width="1"
    transform="translate(85.4618312205,43.3814000888) scale(1,-1) translate(50,-110)"
    />
  
  <line
    x1="-75.8745476477684"
    y1="-65.13872135102532"
    x2="-7.980167032786947e-37"
    y2="-6.85101780239261e-37"
    stroke="hsla(0,50%,50%,0.6)"
    stroke-width="1"
    transform="translate(85.4618312205,43.3814000888) scale(1,-1) translate(50,-110)"
    />
  
  <line
    x1="-4.5041293510539646e-38"
    y1="5.246476595949896e-38"
    x2="-21.712907117008445"
    y2="25.291515882589465"
    stroke="hsla(0,50%,50%,0.6)"
    stroke-width="1"
    transform="translate(85.4618312205,43.3814000888) scale(1,-1) translate(50,-110)"
    />
  
  <line
    x1="-4.5041293510539646e-38"
    y1="5.246476595949896e-38"
    x2="-9.656369436058727e-38"
    y2="9.858105374304234e-38"
    stroke="hsla(0,50%,50%,0.6)"
    stroke-width="1"
    transform="translate(85.4618312205,43.3814000888) scale(1,-1) translate(50,-110)"
    />
  
  <line
    x1="-7.980167032786947e-37"
    y1="-6.85101780239261e-37"
    x2="-4.5041293510539646e-38"
    y2="5.246476595949896e-38"
    stroke="hsla(0,50%,50%,0.6)"
    stroke-width="1"
    transform="translate(85.4618312205,43.3814000888) scale(1,-1) translate(50,-110)"
    />
  
  <line
    x1="-7.980167032786947e-37"
    y1="-6.85101780239261e-37"
    x2="-9.656369436058727e-38"
    y2="9.858105374304234e-38"
    stroke="hsla(0,50%,50%,0.6)"
    stroke-width="1"
    transform="translate(85.4618312205,43.3814000888) scale(1,-1) translate(50,-110)"
    />
  
  <line
    x1="-114.9577804583836"
    y1="-19.613992762364294"
    x2="-21.712907117008445"
    y2="25.291515882589465"
    stroke="hsla(0,50%,50%,0.6)"
    stroke-width="1"
    transform="translate(85.4618312205,43.3814000888) scale(1,-1) translate(50,-110)"
    />
  
</svg>
