<?xml version="1.0"?>
<!DOCTYPE svg PUBLIC "-//W3C//DTD SVG 1.1//EN"
  "http://www.w3.org/Graphics/SVG/1.1/DTD/svg11.dtd">
<svg
  width="240"
  height="240"
  viewBox="-500 -500 1000 1000" xmlns="http://www.w3.org/2000/svg" version="1.1">
  <rect
    x="0"
    y="0"
    width="100"
    height="100"
    fill="hsla(206,100%,53%,0.3)"
    stroke="hsl(206,100%,53%)"
    stroke-width="3"
    transform="" />
  
  <path
    d="M 
      250
      100
      L
    
      275
      125
      L
    
      225
      175
      L
    
      200
      175
      L
    
      200
      125
      L
    
      250
      125
      z
    "
    fill="hsla(0,0%,50%,0.3)"
    stroke="hsla(0,0%,50%,1)"
    stroke-width="1"
    transform="translate(-237.5,-137.5)"
    />
  
  
  <line
    x1="250"
    y1="100"
    x2="275"
    y2="125"
    stroke="hsla(0,50%,50%,0.6)"
    stroke-width="1"
    transform="translate(-237.5,-137.5)"
    />
  
  <line
    x1="200"
    y1="125"
    x2="200"
    y2="175"
    stroke="hsla(0,50%,50%,0.6)"
    stroke-width="1"
    transform="translate(-237.5,-137.5)"
    />
  
  <line
    x1="225"
    y1="125"
    x2="225"
    y2="175"
    stroke="hsla(0,50%,50%,0.6)"
    stroke-width="1"
    transform="translate(-237.5,-137.5)"
    />
  
  <line
    x1="250"
    y1="100"
    x2="250"
    y2="150"
    stroke="hsla(0,50%,50%,0.6)"
    stroke-width="1"
    transform="translate(-237.5,-137.5)"
    />
  
  <line
    x1="200"
    y1="125"
    x2="275"
    y2="125"
    stroke="hsla(0,50%,50%,0.6)"
    stroke-width="1"
    transform="translate(-237.5,-137.5)"
    />
  
  <line
    x1="200"
    y1="150"
    x2="250"
    y2="150"
    stroke="hsla(0,50%,50%,0.6)"
    stroke-width="1"
    transform="translate(-237.5,-137.5)"
    />
  
  <line
    x1="200"
    y1="175"
    x2="225"
    y2="175"
    stroke="hsla(0,50%,50%,0.6)"
    stroke-width="1"
    transform="translate(-237.5,-137.5)"
    />
  
  <line
    x1="275"
    y1="125"
    x2="225"
    y2="175"
    stroke="hsla(0,50%,50%,0.6)"
    stroke-width="1"
    transform="translate(-237.5,-137.5)"
    />
  
</svg>
