<?xml version="1.0"?>
<!DOCTYPE svg PUBLIC "-//W3C//DTD SVG 1.1//EN"
  "http://www.w3.org/Graphics/SVG/1.1/DTD/svg11.dtd">
<svg
  width="240"
  height="240"
  viewBox="-500 -500 1000 1000" xmlns="http://www.w3.org/2000/svg" version="1.1">
  <rect
    x="0"
    y="0"
    width="100"
    height="100"
    fill="hsla(206,100%,53%,0.3)"
    stroke="hsl(206,100%,53%)"
    stroke-width="3"
    transform="" />
  
  <path
    d="M 
      16.6272687950
      -186.2962488092
      L
    
      39.2322584000
      -175.6184941314
      L
    
      5.9495141172
      -163.6912592042
      L
    
      -15.4059952382
      -118.4812799942
      L
    
      -60.6159744481
      -139.8367893497
      L
    
      -93.8987187309
      -127.9095544225
      L
    
      -83.2209640531
      -150.5145440275
      L
    
      -49.9382197704
      -162.4417789547
      L
    
      -39.2604650926
      -185.0467685597
      L
    
      -16.6554754876
      -174.3690138819
      z
    "
    fill="hsla(0,0%,50%,0.3)"
    stroke="hsla(0,0%,50%,1)"
    stroke-width="1"
    transform="translate(27.3332301654,152.3887644017)"
    />
  
  
  <line
    x1="16.62726879505403"
    y1="-186.2962488092171"
    x2="-83.22096405317882"
    y2="-150.51454402751233"
    stroke="hsla(0,50%,50%,0.6)"
    stroke-width="1"
    transform="translate(27.3332301654,152.3887644017)"
    />
  
  <line
    x1="16.62726879505403"
    y1="-186.2962488092171"
    x2="39.232258400043634"
    y2="-175.61849413146243"
    stroke="hsla(0,50%,50%,0.6)"
    stroke-width="1"
    transform="translate(27.3332301654,152.3887644017)"
    />
  
  <line
    x1="39.232258400043634"
    y1="-175.61849413146243"
    x2="-93.8987187309335"
    y2="-127.90955442252272"
    stroke="hsla(0,50%,50%,0.6)"
    stroke-width="1"
    transform="translate(27.3332301654,152.3887644017)"
    />
  
  <line
    x1="-39.26046509267986"
    y1="-185.04676855973685"
    x2="5.949514117299352"
    y2="-163.6912592042275"
    stroke="hsla(0,50%,50%,0.6)"
    stroke-width="1"
    transform="translate(27.3332301654,152.3887644017)"
    />
  
  <line
    x1="-83.22096405317882"
    y1="-150.51454402751233"
    x2="-15.405995238210004"
    y2="-118.4812799942483"
    stroke="hsla(0,50%,50%,0.6)"
    stroke-width="1"
    transform="translate(27.3332301654,152.3887644017)"
    />
  
  <line
    x1="-83.22096405317882"
    y1="-150.51454402751233"
    x2="-93.8987187309335"
    y2="-127.90955442252272"
    stroke="hsla(0,50%,50%,0.6)"
    stroke-width="1"
    transform="translate(27.3332301654,152.3887644017)"
    />
  
  <line
    x1="-39.26046509267986"
    y1="-185.04676855973685"
    x2="-60.61597444818921"
    y2="-139.83678934975765"
    stroke="hsla(0,50%,50%,0.6)"
    stroke-width="1"
    transform="translate(27.3332301654,152.3887644017)"
    />
  
  <line
    x1="16.62726879505403"
    y1="-186.2962488092171"
    x2="-15.405995238210004"
    y2="-118.4812799942483"
    stroke="hsla(0,50%,50%,0.6)"
    stroke-width="1"
    transform="translate(27.3332301654,152.3887644017)"
    />
  
</svg>
