<?xml version="1.0"?>
<!DOCTYPE svg PUBLIC "-//W3C//DTD SVG 1.1//EN"
  "http://www.w3.org/Graphics/SVG/1.1/DTD/svg11.dtd">
<svg
  width="240"
  height="240"
  viewBox="-50 -50 200 200" xmlns="http://www.w3.org/2000/svg" version="1.1">
  <rect
    x="0"
    y="0"
    width="100"
    height="100"
    fill="hsla(206,100%,53%,0.3)"
    stroke="hsl(206,100%,53%)"
    stroke-width="3"
    transform="" />
  
  <path
    d="M 
      926400
      402700
      L
    
      926427.6774969915
      402760.6498194945
      L
    
      926382.1901323706
      402781.4079422382
      L
    
      926354.5126353790
      402720.7581227436
      z
    "
    fill="hsla(0,0%,50%,0.3)"
    stroke="hsla(0,0%,50%,1)"
    stroke-width="1"
    transform="translate(-926376.2635379061,-402738.3122743682) scale(1,-1) translate(50,-110)"
    />
  
  
  <line
    x1="926400"
    y1="402700"
    x2="926427.6774969916"
    y2="402760.6498194946"
    stroke="hsla(0,50%,50%,0.6)"
    stroke-width="1"
    transform="translate(-926376.2635379061,-402738.3122743682) scale(1,-1) translate(50,-110)"
    />
  
  <line
    x1="926354.5126353791"
    y1="402720.7581227437"
    x2="926382.1901323707"
    y2="402781.40794223826"
    stroke="hsla(0,50%,50%,0.6)"
    stroke-width="1"
    transform="translate(-926376.2635379061,-402738.3122743682) scale(1,-1) translate(50,-110)"
    />
  
  <line
    x1="926400"
    y1="402700"
    x2="926354.5126353791"
    y2="402720.7581227437"
    stroke="hsla(0,50%,50%,0.6)"
    stroke-width="1"
    transform="translate(-926376.2635379061,-402738.3122743682) scale(1,-1) translate(50,-110)"
    />
  
  <line
    x1="926413.8387484958"
    y1="402730.3249097473"
    x2="926368.3513838749"
    y2="402751.083032491"
    stroke="hsla(0,50%,50%,0.6)"
    stroke-width="1"
    transform="translate(-926376.2635379061,-402738.3122743682) scale(1,-1) translate(50,-110)"
    />
  
  <line
    x1="926427.6774969916"
    y1="402760.6498194946"
    x2="926382.1901323707"
    y2="402781.40794223826"
    stroke="hsla(0,50%,50%,0.6)"
    stroke-width="1"
    transform="translate(-926376.2635379061,-402738.3122743682) scale(1,-1) translate(50,-110)"
    />
  
</svg>
