<?xml version="1.0"?>
<!DOCTYPE svg PUBLIC "-//W3C//DTD SVG 1.1//EN"
  "http://www.w3.org/Graphics/SVG/1.1/DTD/svg11.dtd">
<svg
  width="240"
  height="240"
  viewBox="-50 -50 200 200" xmlns="http://www.w3.org/2000/svg" version="1.1">
  <rect
    x="0"
    y="0"
    width="100"
    height="100"
    fill="hsla(206,100%,53%,0.3)"
    stroke="hsl(206,100%,53%)"
    stroke-width="3"
    transform="" />
  
  <path
    d="M 
      630100
      601600
      L
    
      630127.6774969915
      601660.6498194945
      L
    
      630082.1901323706
      601681.4079422382
      L
    
      630054.5126353790
      601620.7581227436
      z
    "
    fill="hsla(0,0%,50%,0.3)"
    stroke="hsla(0,0%,50%,1)"
    stroke-width="1"
    transform="translate(-630076.2635379061,-601638.3122743682) scale(1,-1) translate(50,-110)"
    />
  
  
  <line
    x1="630100"
    y1="601600"
    x2="630127.6774969916"
    y2="601660.6498194946"
    stroke="hsla(0,50%,50%,0.6)"
    stroke-width="1"
    transform="translate(-630076.2635379061,-601638.3122743682) scale(1,-1) translate(50,-110)"
    />
  
  <line
    x1="630054.5126353791"
    y1="601620.7581227437"
    x2="630082.1901323707"
    y2="601681.4079422383"
    stroke="hsla(0,50%,50%,0.6)"
    stroke-width="1"
    transform="translate(-630076.2635379061,-601638.3122743682) scale(1,-1) translate(50,-110)"
    />
  
  <line
    x1="630100"
    y1="601600"
    x2="630054.5126353791"
    y2="601620.7581227437"
    stroke="hsla(0,50%,50%,0.6)"
    stroke-width="1"
    transform="translate(-630076.2635379061,-601638.3122743682) scale(1,-1) translate(50,-110)"
    />
  
  <line
    x1="630113.8387484958"
    y1="601630.3249097473"
    x2="630068.3513838749"
    y2="601651.0830324909"
    stroke="hsla(0,50%,50%,0.6)"
    stroke-width="1"
    transform="translate(-630076.2635379061,-601638.3122743682) scale(1,-1) translate(50,-110)"
    />
  
  <line
    x1="630127.6774969916"
    y1="601660.6498194946"
    x2="630082.1901323707"
    y2="601681.4079422383"
    stroke="hsla(0,50%,50%,0.6)"
    stroke-width="1"
    transform="translate(-630076.2635379061,-601638.3122743682) scale(1,-1) translate(50,-110)"
    />
  
</svg>
