<?xml version="1.0"?>
<!DOCTYPE svg PUBLIC "-//W3C//DTD SVG 1.1//EN"
  "http://www.w3.org/Graphics/SVG/1.1/DTD/svg11.dtd">
<svg
  width="240"
  height="240"
  viewBox="-50 -50 200 200" xmlns="http://www.w3.org/2000/svg" version="1.1">
  <rect
    x="0"
    y="0"
    width="100"
    height="100"
    fill="hsla(206,100%,53%,0.3)"
    stroke="hsl(206,100%,53%)"
    stroke-width="3"
    transform="" />
  
  <path
    d="M 
      127400
      211100
      L
    
      127427.6774969915
      211160.6498194945
      L
    
      127382.1901323706
      211181.4079422382
      L
    
      127354.5126353790
      211120.7581227436
      z
    "
    fill="hsla(0,0%,50%,0.3)"
    stroke="hsla(0,0%,50%,1)"
    stroke-width="1"
    transform="translate(-127376.2635379061,-211138.3122743682) scale(1,-1) translate(50,-110)"
    />
  
  
  <line
    x1="127400"
    y1="211100"
    x2="127427.67749699157"
    y2="211160.64981949457"
    stroke="hsla(0,50%,50%,0.6)"
    stroke-width="1"
    transform="translate(-127376.2635379061,-211138.3122743682) scale(1,-1) translate(50,-110)"
    />
  
  <line
    x1="127354.51263537905"
    y1="211120.7581227437"
    x2="127382.19013237064"
    y2="211181.40794223826"
    stroke="hsla(0,50%,50%,0.6)"
    stroke-width="1"
    transform="translate(-127376.2635379061,-211138.3122743682) scale(1,-1) translate(50,-110)"
    />
  
  <line
    x1="127400"
    y1="211100"
    x2="127354.51263537905"
    y2="211120.7581227437"
    stroke="hsla(0,50%,50%,0.6)"
    stroke-width="1"
    transform="translate(-127376.2635379061,-211138.3122743682) scale(1,-1) translate(50,-110)"
    />
  
  <line
    x1="127413.8387484958"
    y1="211130.3249097473"
    x2="127368.35138387485"
    y2="211151.08303249098"
    stroke="hsla(0,50%,50%,0.6)"
    stroke-width="1"
    transform="translate(-127376.2635379061,-211138.3122743682) scale(1,-1) translate(50,-110)"
    />
  
  <line
    x1="127427.67749699157"
    y1="211160.64981949457"
    x2="127382.19013237064"
    y2="211181.40794223826"
    stroke="hsla(0,50%,50%,0.6)"
    stroke-width="1"
    transform="translate(-127376.2635379061,-211138.3122743682) scale(1,-1) translate(50,-110)"
    />
  
</svg>
