<?xml version="1.0"?>
<!DOCTYPE svg PUBLIC "-//W3C//DTD SVG 1.1//EN"
  "http://www.w3.org/Graphics/SVG/1.1/DTD/svg11.dtd">
<svg
  width="240"
  height="240"
  viewBox="-50 -50 200 200" xmlns="http://www.w3.org/2000/svg" version="1.1">
  <rect
    x="0"
    y="0"
    width="100"
    height="100"
    fill="hsla(206,100%,53%,0.3)"
    stroke="hsl(206,100%,53%)"
    stroke-width="3"
    transform="" />
  
  <path
    d="M 
      362600
      223200
      L
    
      362627.6774969915
      223260.6498194945
      L
    
      362582.1901323706
      223281.4079422382
      L
    
      362554.5126353790
      223220.7581227436
      z
    "
    fill="hsla(0,0%,50%,0.3)"
    stroke="hsla(0,0%,50%,1)"
    stroke-width="1"
    transform="translate(-362576.2635379061,-223238.3122743682) scale(1,-1) translate(50,-110)"
    />
  
  
  <line
    x1="362600"
    y1="223200"
    x2="362627.6774969916"
    y2="223260.64981949457"
    stroke="hsla(0,50%,50%,0.6)"
    stroke-width="1"
    transform="translate(-362576.2635379061,-223238.3122743682) scale(1,-1) translate(50,-110)"
    />
  
  <line
    x1="362554.51263537904"
    y1="223220.7581227437"
    x2="362582.1901323706"
    y2="223281.40794223826"
    stroke="hsla(0,50%,50%,0.6)"
    stroke-width="1"
    transform="translate(-362576.2635379061,-223238.3122743682) scale(1,-1) translate(50,-110)"
    />
  
  <line
    x1="362600"
    y1="223200"
    x2="362554.51263537904"
    y2="223220.7581227437"
    stroke="hsla(0,50%,50%,0.6)"
    stroke-width="1"
    transform="translate(-362576.2635379061,-223238.3122743682) scale(1,-1) translate(50,-110)"
    />
  
  <line
    x1="362613.8387484958"
    y1="223230.3249097473"
    x2="362568.35138387483"
    y2="223251.08303249098"
    stroke="hsla(0,50%,50%,0.6)"
    stroke-width="1"
    transform="translate(-362576.2635379061,-223238.3122743682) scale(1,-1) translate(50,-110)"
    />
  
  <line
    x1="362627.6774969916"
    y1="223260.64981949457"
    x2="362582.1901323706"
    y2="223281.40794223826"
    stroke="hsla(0,50%,50%,0.6)"
    stroke-width="1"
    transform="translate(-362576.2635379061,-223238.3122743682) scale(1,-1) translate(50,-110)"
    />
  
</svg>
