<?xml version="1.0"?>
<!DOCTYPE svg PUBLIC "-//W3C//DTD SVG 1.1//EN"
  "http://www.w3.org/Graphics/SVG/1.1/DTD/svg11.dtd">
<svg
  width="240"
  height="240"
  viewBox="-50 -50 200 200" xmlns="http://www.w3.org/2000/svg" version="1.1">
  <rect
    x="0"
    y="0"
    width="100"
    height="100"
    fill="hsla(206,100%,53%,0.3)"
    stroke="hsl(206,100%,53%)"
    stroke-width="3"
    transform="" />
  
  <path
    d="M 
      248300
      172500
      L
    
      248327.6774969915
      172560.6498194945
      L
    
      248282.1901323706
      172581.4079422382
      L
    
      248254.5126353790
      172520.7581227436
      z
    "
    fill="hsla(0,0%,50%,0.3)"
    stroke="hsla(0,0%,50%,1)"
    stroke-width="1"
    transform="translate(-248276.2635379061,-172538.3122743682) scale(1,-1) translate(50,-110)"
    />
  
  
  <line
    x1="248300"
    y1="172500"
    x2="248327.6774969916"
    y2="172560.64981949457"
    stroke="hsla(0,50%,50%,0.6)"
    stroke-width="1"
    transform="translate(-248276.2635379061,-172538.3122743682) scale(1,-1) translate(50,-110)"
    />
  
  <line
    x1="248254.51263537907"
    y1="172520.7581227437"
    x2="248282.19013237063"
    y2="172581.40794223826"
    stroke="hsla(0,50%,50%,0.6)"
    stroke-width="1"
    transform="translate(-248276.2635379061,-172538.3122743682) scale(1,-1) translate(50,-110)"
    />
  
  <line
    x1="248300"
    y1="172500"
    x2="248254.51263537907"
    y2="172520.7581227437"
    stroke="hsla(0,50%,50%,0.6)"
    stroke-width="1"
    transform="translate(-248276.2635379061,-172538.3122743682) scale(1,-1) translate(50,-110)"
    />
  
  <line
    x1="248313.8387484958"
    y1="172530.3249097473"
    x2="248268.35138387486"
    y2="172551.08303249098"
    stroke="hsla(0,50%,50%,0.6)"
    stroke-width="1"
    transform="translate(-248276.2635379061,-172538.3122743682) scale(1,-1) translate(50,-110)"
    />
  
  <line
    x1="248327.6774969916"
    y1="172560.64981949457"
    x2="248282.19013237063"
    y2="172581.40794223826"
    stroke="hsla(0,50%,50%,0.6)"
    stroke-width="1"
    transform="translate(-248276.2635379061,-172538.3122743682) scale(1,-1) translate(50,-110)"
    />
  
</svg>
