<?xml version="1.0"?>
<!DOCTYPE svg PUBLIC "-//W3C//DTD SVG 1.1//EN"
  "http://www.w3.org/Graphics/SVG/1.1/DTD/svg11.dtd">
<svg
  width="240"
  height="240"
  viewBox="-50 -50 200 200" xmlns="http://www.w3.org/2000/svg" version="1.1">
  <rect
    x="0"
    y="0"
    width="100"
    height="100"
    fill="hsla(206,100%,53%,0.3)"
    stroke="hsl(206,100%,53%)"
    stroke-width="3"
    transform="" />
  
  <path
    d="M 
      17300
      575800
      L
    
      17327.6774969915
      575860.6498194945
      L
    
      17282.1901323706
      575881.4079422382
      L
    
      17254.5126353790
      575820.7581227436
      z
    "
    fill="hsla(0,0%,50%,0.3)"
    stroke="hsla(0,0%,50%,1)"
    stroke-width="1"
    transform="translate(-17276.2635379061,-575838.3122743682) scale(1,-1) translate(50,-110)"
    />
  
  
  <line
    x1="17300"
    y1="575800"
    x2="17327.677496991575"
    y2="575860.6498194946"
    stroke="hsla(0,50%,50%,0.6)"
    stroke-width="1"
    transform="translate(-17276.2635379061,-575838.3122743682) scale(1,-1) translate(50,-110)"
    />
  
  <line
    x1="17254.512635379062"
    y1="575820.7581227437"
    x2="17282.190132370637"
    y2="575881.4079422383"
    stroke="hsla(0,50%,50%,0.6)"
    stroke-width="1"
    transform="translate(-17276.2635379061,-575838.3122743682) scale(1,-1) translate(50,-110)"
    />
  
  <line
    x1="17300"
    y1="575800"
    x2="17254.512635379062"
    y2="575820.7581227437"
    stroke="hsla(0,50%,50%,0.6)"
    stroke-width="1"
    transform="translate(-17276.2635379061,-575838.3122743682) scale(1,-1) translate(50,-110)"
    />
  
  <line
    x1="17313.83874849579"
    y1="575830.3249097473"
    x2="17268.35138387485"
    y2="575851.0830324909"
    stroke="hsla(0,50%,50%,0.6)"
    stroke-width="1"
    transform="translate(-17276.2635379061,-575838.3122743682) scale(1,-1) translate(50,-110)"
    />
  
  <line
    x1="17327.677496991575"
    y1="575860.6498194946"
    x2="17282.190132370637"
    y2="575881.4079422383"
    stroke="hsla(0,50%,50%,0.6)"
    stroke-width="1"
    transform="translate(-17276.2635379061,-575838.3122743682) scale(1,-1) translate(50,-110)"
    />
  
</svg>
