<?xml version="1.0"?>
<!DOCTYPE svg PUBLIC "-//W3C//DTD SVG 1.1//EN"
  "http://www.w3.org/Graphics/SVG/1.1/DTD/svg11.dtd">
<svg
  width="240"
  height="240"
  viewBox="-50 -50 200 200" xmlns="http://www.w3.org/2000/svg" version="1.1">
  <rect
    x="0"
    y="0"
    width="100"
    height="100"
    fill="hsla(206,100%,53%,0.3)"
    stroke="hsl(206,100%,53%)"
    stroke-width="3"
    transform="" />
  
  <path
    d="M 
      472300
      359800
      L
    
      472327.6774969915
      359860.6498194945
      L
    
      472282.1901323706
      359881.4079422382
      L
    
      472254.5126353790
      359820.7581227436
      z
    "
    fill="hsla(0,0%,50%,0.3)"
    stroke="hsla(0,0%,50%,1)"
    stroke-width="1"
    transform="translate(-472276.2635379061,-359838.3122743682) scale(1,-1) translate(50,-110)"
    />
  
  
  <line
    x1="472300"
    y1="359800"
    x2="472327.6774969916"
    y2="359860.6498194946"
    stroke="hsla(0,50%,50%,0.6)"
    stroke-width="1"
    transform="translate(-472276.2635379061,-359838.3122743682) scale(1,-1) translate(50,-110)"
    />
  
  <line
    x1="472254.51263537904"
    y1="359820.7581227437"
    x2="472282.1901323706"
    y2="359881.40794223826"
    stroke="hsla(0,50%,50%,0.6)"
    stroke-width="1"
    transform="translate(-472276.2635379061,-359838.3122743682) scale(1,-1) translate(50,-110)"
    />
  
  <line
    x1="472300"
    y1="359800"
    x2="472254.51263537904"
    y2="359820.7581227437"
    stroke="hsla(0,50%,50%,0.6)"
    stroke-width="1"
    transform="translate(-472276.2635379061,-359838.3122743682) scale(1,-1) translate(50,-110)"
    />
  
  <line
    x1="472313.8387484958"
    y1="359830.3249097473"
    x2="472268.35138387483"
    y2="359851.083032491"
    stroke="hsla(0,50%,50%,0.6)"
    stroke-width="1"
    transform="translate(-472276.2635379061,-359838.3122743682) scale(1,-1) translate(50,-110)"
    />
  
  <line
    x1="472327.6774969916"
    y1="359860.6498194946"
    x2="472282.1901323706"
    y2="359881.40794223826"
    stroke="hsla(0,50%,50%,0.6)"
    stroke-width="1"
    transform="translate(-472276.2635379061,-359838.3122743682) scale(1,-1) translate(50,-110)"
    />
  
</svg>
