<?xml version="1.0"?>
<!DOCTYPE svg PUBLIC "-//W3C//DTD SVG 1.1//EN"
  "http://www.w3.org/Graphics/SVG/1.1/DTD/svg11.dtd">
<svg
  width="240"
  height="240"
  viewBox="-50 -50 200 200" xmlns="http://www.w3.org/2000/svg" version="1.1">
  <rect
    x="0"
    y="0"
    width="100"
    height="100"
    fill="hsla(206,100%,53%,0.3)"
    stroke="hsl(206,100%,53%)"
    stroke-width="3"
    transform="" />
  
  <path
    d="M 
      347200
      270800
      L
    
      347227.6774969915
      270860.6498194945
      L
    
      347182.1901323706
      270881.4079422382
      L
    
      347154.5126353790
      270820.7581227436
      z
    "
    fill="hsla(0,0%,50%,0.3)"
    stroke="hsla(0,0%,50%,1)"
    stroke-width="1"
    transform="translate(-347176.2635379061,-270838.3122743682) scale(1,-1) translate(50,-110)"
    />
  
  
  <line
    x1="347200"
    y1="270800"
    x2="347227.6774969916"
    y2="270860.6498194946"
    stroke="hsla(0,50%,50%,0.6)"
    stroke-width="1"
    transform="translate(-347176.2635379061,-270838.3122743682) scale(1,-1) translate(50,-110)"
    />
  
  <line
    x1="347154.51263537904"
    y1="270820.7581227437"
    x2="347182.1901323706"
    y2="270881.40794223826"
    stroke="hsla(0,50%,50%,0.6)"
    stroke-width="1"
    transform="translate(-347176.2635379061,-270838.3122743682) scale(1,-1) translate(50,-110)"
    />
  
  <line
    x1="347200"
    y1="270800"
    x2="347154.51263537904"
    y2="270820.7581227437"
    stroke="hsla(0,50%,50%,0.6)"
    stroke-width="1"
    transform="translate(-347176.2635379061,-270838.3122743682) scale(1,-1) translate(50,-110)"
    />
  
  <line
    x1="347213.8387484958"
    y1="270830.3249097473"
    x2="347168.35138387483"
    y2="270851.083032491"
    stroke="hsla(0,50%,50%,0.6)"
    stroke-width="1"
    transform="translate(-347176.2635379061,-270838.3122743682) scale(1,-1) translate(50,-110)"
    />
  
  <line
    x1="347227.6774969916"
    y1="270860.6498194946"
    x2="347182.1901323706"
    y2="270881.40794223826"
    stroke="hsla(0,50%,50%,0.6)"
    stroke-width="1"
    transform="translate(-347176.2635379061,-270838.3122743682) scale(1,-1) translate(50,-110)"
    />
  
</svg>
