<?xml version="1.0"?>
<!DOCTYPE svg PUBLIC "-//W3C//DTD SVG 1.1//EN"
  "http://www.w3.org/Graphics/SVG/1.1/DTD/svg11.dtd">
<svg
  width="240"
  height="240"
  viewBox="-500 -500 1000 1000" xmlns="http://www.w3.org/2000/svg" version="1.1">
  <rect
    x="0"
    y="0"
    width="100"
    height="100"
    fill="hsla(206,100%,53%,0.3)"
    stroke="hsl(206,100%,53%)"
    stroke-width="3"
    transform="" />
  
  <path
    d="M 
      0
      0
      L
    
      90
      0
      L
    
      90
      2.8571428571
      L
    
      97.1428571428
      2.8571428571
      L
    
      97.1428571428
      92.8571428571
      L
    
      90
      92.8571428571
      L
    
      0
      2.8571428571
      z
    "
    fill="hsla(0,0%,50%,0.3)"
    stroke="hsla(0,0%,50%,1)"
    stroke-width="1"
    transform="translate(-48.5714285714,-46.4285714285)"
    />
  
  
  <line
    x1="0"
    y1="0"
    x2="90"
    y2="0"
    stroke="hsla(0,50%,50%,0.6)"
    stroke-width="1"
    transform="translate(-48.5714285714,-46.4285714285)"
    />
  
  <line
    x1="0"
    y1="0"
    x2="0"
    y2="2.857142857142857"
    stroke="hsla(0,50%,50%,0.6)"
    stroke-width="1"
    transform="translate(-48.5714285714,-46.4285714285)"
    />
  
  <line
    x1="80"
    y1="0"
    x2="80"
    y2="82.85714285714286"
    stroke="hsla(0,50%,50%,0.6)"
    stroke-width="1"
    transform="translate(-48.5714285714,-46.4285714285)"
    />
  
  <line
    x1="90"
    y1="0"
    x2="90"
    y2="92.85714285714286"
    stroke="hsla(0,50%,50%,0.6)"
    stroke-width="1"
    transform="translate(-48.5714285714,-46.4285714285)"
    />
  
  <line
    x1="97.14285714285714"
    y1="2.857142857142857"
    x2="97.14285714285714"
    y2="92.85714285714286"
    stroke="hsla(0,50%,50%,0.6)"
    stroke-width="1"
    transform="translate(-48.5714285714,-46.4285714285)"
    />
  
  <line
    x1="0"
    y1="2.857142857142857"
    x2="90"
    y2="92.85714285714286"
    stroke="hsla(0,50%,50%,0.6)"
    stroke-width="1"
    transform="translate(-48.5714285714,-46.4285714285)"
    />
  
  <line
    x1="0"
    y1="2.857142857142857"
    x2="97.14285714285714"
    y2="2.857142857142857"
    stroke="hsla(0,50%,50%,0.6)"
    stroke-width="1"
    transform="translate(-48.5714285714,-46.4285714285)"
    />
  
  <line
    x1="80"
    y1="82.85714285714286"
    x2="97.14285714285714"
    y2="82.85714285714286"
    stroke="hsla(0,50%,50%,0.6)"
    stroke-width="1"
    transform="translate(-48.5714285714,-46.4285714285)"
    />
  
  <line
    x1="90"
    y1="92.85714285714286"
    x2="97.14285714285714"
    y2="92.85714285714286"
    stroke="hsla(0,50%,50%,0.6)"
    stroke-width="1"
    transform="translate(-48.5714285714,-46.4285714285)"
    />
  
</svg>
