<?xml version="1.0"?>
<!DOCTYPE svg PUBLIC "-//W3C//DTD SVG 1.1//EN"
  "http://www.w3.org/Graphics/SVG/1.1/DTD/svg11.dtd">
<svg
  width="240"
  height="240"
  viewBox="-50 -50 200 200" xmlns="http://www.w3.org/2000/svg" version="1.1">
  <rect
    x="0"
    y="0"
    width="100"
    height="100"
    fill="hsla(206,100%,53%,0.3)"
    stroke="hsl(206,100%,53%)"
    stroke-width="3"
    transform="" />
  
  <path
    d="M 
      90.7692307692
      5.4794520547
      L
    
      53.2467532467
      98.4375
      L
    
      10.1449275362
      26.3888888888
      z
    "
    fill="hsla(0,0%,50%,0.3)"
    stroke="hsla(0,0%,50%,1)"
    stroke-width="1"
    transform="translate(-41.0764597721,-39.1736824581) scale(1,-1) translate(50,-110)"
    />
  
  
  <line
    x1="81.9717026673891"
    y1="22.742740400416377"
    x2="83.48883265808135"
    y2="23.515883584961916"
    stroke="hsla(0,50%,50%,0.6)"
    stroke-width="1"
    transform="translate(-41.0764597721,-39.1736824581) scale(1,-1) translate(50,-110)"
    />
  
  <line
    x1="44.58838937615208"
    y1="41.76277846294981"
    x2="57.55480505125777"
    y2="87.76474828861144"
    stroke="hsla(0,50%,50%,0.6)"
    stroke-width="1"
    transform="translate(-41.0764597721,-39.1736824581) scale(1,-1) translate(50,-110)"
    />
  
  <line
    x1="51.99321367492282"
    y1="90.9476785282424"
    x2="53.246753246753244"
    y2="98.4375"
    stroke="hsla(0,50%,50%,0.6)"
    stroke-width="1"
    transform="translate(-41.0764597721,-39.1736824581) scale(1,-1) translate(50,-110)"
    />
  
  <line
    x1="54.87201530362213"
    y1="14.789182858034613"
    x2="83.48883265808135"
    y2="23.515883584961916"
    stroke="hsla(0,50%,50%,0.6)"
    stroke-width="1"
    transform="translate(-41.0764597721,-39.1736824581) scale(1,-1) translate(50,-110)"
    />
  
  <line
    x1="10.144927536231885"
    y1="26.38888888888889"
    x2="53.246753246753244"
    y2="98.4375"
    stroke="hsla(0,50%,50%,0.6)"
    stroke-width="1"
    transform="translate(-41.0764597721,-39.1736824581) scale(1,-1) translate(50,-110)"
    />
  
  <line
    x1="10.144927536231885"
    y1="26.38888888888889"
    x2="21.441188691172982"
    y2="43.984315358240266"
    stroke="hsla(0,50%,50%,0.6)"
    stroke-width="1"
    transform="translate(-41.0764597721,-39.1736824581) scale(1,-1) translate(50,-110)"
    />
  
  <line
    x1="10.144927536231885"
    y1="26.38888888888889"
    x2="69.47619582745439"
    y2="58.23073858247292"
    stroke="hsla(0,50%,50%,0.6)"
    stroke-width="1"
    transform="translate(-41.0764597721,-39.1736824581) scale(1,-1) translate(50,-110)"
    />
  
  <line
    x1="58.162230616288774"
    y1="55.04171045133792"
    x2="48.27359187002157"
    y2="90.1244096814738"
    stroke="hsla(0,50%,50%,0.6)"
    stroke-width="1"
    transform="translate(-41.0764597721,-39.1736824581) scale(1,-1) translate(50,-110)"
    />
  
  <line
    x1="90.76923076923077"
    y1="5.47945205479452"
    x2="10.144927536231885"
    y2="26.38888888888889"
    stroke="hsla(0,50%,50%,0.6)"
    stroke-width="1"
    transform="translate(-41.0764597721,-39.1736824581) scale(1,-1) translate(50,-110)"
    />
  
  <line
    x1="90.76923076923077"
    y1="5.47945205479452"
    x2="53.246753246753244"
    y2="98.4375"
    stroke="hsla(0,50%,50%,0.6)"
    stroke-width="1"
    transform="translate(-41.0764597721,-39.1736824581) scale(1,-1) translate(50,-110)"
    />
  
  <line
    x1="54.87201530362213"
    y1="14.789182858034613"
    x2="22.98490593991196"
    y2="47.852077406585224"
    stroke="hsla(0,50%,50%,0.6)"
    stroke-width="1"
    transform="translate(-41.0764597721,-39.1736824581) scale(1,-1) translate(50,-110)"
    />
  
  <line
    x1="58.162230616288774"
    y1="55.04171045133792"
    x2="69.47619582745439"
    y2="58.23073858247292"
    stroke="hsla(0,50%,50%,0.6)"
    stroke-width="1"
    transform="translate(-41.0764597721,-39.1736824581) scale(1,-1) translate(50,-110)"
    />
  
  <line
    x1="90.76923076923077"
    y1="5.47945205479452"
    x2="81.9717026673891"
    y2="22.742740400416377"
    stroke="hsla(0,50%,50%,0.6)"
    stroke-width="1"
    transform="translate(-41.0764597721,-39.1736824581) scale(1,-1) translate(50,-110)"
    />
  
  <line
    x1="21.441188691172982"
    y1="43.984315358240266"
    x2="20.884781401645142"
    y2="44.341528754685505"
    stroke="hsla(0,50%,50%,0.6)"
    stroke-width="1"
    transform="translate(-41.0764597721,-39.1736824581) scale(1,-1) translate(50,-110)"
    />
  
  <line
    x1="90.76923076923077"
    y1="5.47945205479452"
    x2="20.884781401645142"
    y2="44.341528754685505"
    stroke="hsla(0,50%,50%,0.6)"
    stroke-width="1"
    transform="translate(-41.0764597721,-39.1736824581) scale(1,-1) translate(50,-110)"
    />
  
  <line
    x1="44.58838937615208"
    y1="41.76277846294981"
    x2="22.98490593991196"
    y2="47.852077406585224"
    stroke="hsla(0,50%,50%,0.6)"
    stroke-width="1"
    transform="translate(-41.0764597721,-39.1736824581) scale(1,-1) translate(50,-110)"
    />
  
  <line
    x1="48.27359187002157"
    y1="90.1244096814738"
    x2="51.99321367492282"
    y2="90.9476785282424"
    stroke="hsla(0,50%,50%,0.6)"
    stroke-width="1"
    transform="translate(-41.0764597721,-39.1736824581) scale(1,-1) translate(50,-110)"
    />
  
  <line
    x1="51.99321367492282"
    y1="90.9476785282424"
    x2="49.63136145050409"
    y2="92.39404468811348"
    stroke="hsla(0,50%,50%,0.6)"
    stroke-width="1"
    transform="translate(-41.0764597721,-39.1736824581) scale(1,-1) translate(50,-110)"
    />
  
  <line
    x1="57.55480505125777"
    y1="87.76474828861144"
    x2="49.63136145050409"
    y2="92.39404468811348"
    stroke="hsla(0,50%,50%,0.6)"
    stroke-width="1"
    transform="translate(-41.0764597721,-39.1736824581) scale(1,-1) translate(50,-110)"
    />
  
</svg>
