<?xml version="1.0"?>
<!DOCTYPE svg PUBLIC "-//W3C//DTD SVG 1.1//EN"
  "http://www.w3.org/Graphics/SVG/1.1/DTD/svg11.dtd">
<svg
  width="240"
  height="240"
  viewBox="-50 -50 200 200" xmlns="http://www.w3.org/2000/svg" version="1.1">
  <rect
    x="0"
    y="0"
    width="100"
    height="100"
    fill="hsla(206,100%,53%,0.3)"
    stroke="hsl(206,100%,53%)"
    stroke-width="3"
    transform="" />
  
  <path
    d="M 
      -3219749.9999999999
      2116979.2893218813
      L
    
      -3219679.2893218813
      2117050.0000000000
      L
    
      -3219750.0000000000
      2117120.7106781186
      L
    
      -3219820.7106781186
      2117049.9999999999
      z
    "
    fill="hsla(0,0%,50%,0.3)"
    stroke="hsla(0,0%,50%,1)"
    stroke-width="1"
    transform="translate(3219776.5165042944,-2117058.8388347648) scale(1,-1) translate(50,-110)"
    />
  
  
  <line
    x1="-3219750.0000000005"
    y1="2116979.2893218817"
    x2="-3219820.7106781187"
    y2="2117050"
    stroke="hsla(0,50%,50%,0.6)"
    stroke-width="1"
    transform="translate(3219776.5165042944,-2117058.8388347648) scale(1,-1) translate(50,-110)"
    />
  
  <line
    x1="-3219679.2893218813"
    y1="2117050"
    x2="-3219750.0000000005"
    y2="2117120.7106781187"
    stroke="hsla(0,50%,50%,0.6)"
    stroke-width="1"
    transform="translate(3219776.5165042944,-2117058.8388347648) scale(1,-1) translate(50,-110)"
    />
  
  <line
    x1="-3219750.0000000005"
    y1="2116979.2893218817"
    x2="-3219679.2893218813"
    y2="2117050"
    stroke="hsla(0,50%,50%,0.6)"
    stroke-width="1"
    transform="translate(3219776.5165042944,-2117058.8388347648) scale(1,-1) translate(50,-110)"
    />
  
  <line
    x1="-3219820.7106781187"
    y1="2117050"
    x2="-3219750.0000000005"
    y2="2117120.7106781187"
    stroke="hsla(0,50%,50%,0.6)"
    stroke-width="1"
    transform="translate(3219776.5165042944,-2117058.8388347648) scale(1,-1) translate(50,-110)"
    />
  
</svg>
