<?xml version="1.0"?>
<!DOCTYPE svg PUBLIC "-//W3C//DTD SVG 1.1//EN"
  "http://www.w3.org/Graphics/SVG/1.1/DTD/svg11.dtd">
<svg
  width="240"
  height="240"
  viewBox="-50 -50 200 200" xmlns="http://www.w3.org/2000/svg" version="1.1">
  <rect
    x="0"
    y="0"
    width="100"
    height="100"
    fill="hsla(206,100%,53%,0.3)"
    stroke="hsl(206,100%,53%)"
    stroke-width="3"
    transform="" />
  
  <path
    d="M 
      92.0792079207
      -19.2079207920
      L
    
      95.9595959595
      0
      L
    
      100
      0
      L
    
      100
      20
      L
    
      0
      30
      L
    
      -1.8601860186
      20.7920792079
      L
    
      -7.9207920792
      20.7920792079
      L
    
      -7.9207920792
      -9.2079207920
      z
    "
    fill="hsla(0,0%,50%,0.3)"
    stroke="hsla(0,0%,50%,1)"
    stroke-width="1"
    transform="translate(0.0165641564,-5.5430074257) scale(1,-1) translate(50,-110)"
    />
  
  
  <line
    x1="92.07920792079207"
    y1="-19.207920792079207"
    x2="100"
    y2="20"
    stroke="hsla(0,50%,50%,0.6)"
    stroke-width="1"
    transform="translate(0.0165641564,-5.5430074257) scale(1,-1) translate(50,-110)"
    />
  
  <line
    x1="92.07920792079207"
    y1="-19.207920792079207"
    x2="-7.920792079207921"
    y2="-9.207920792079207"
    stroke="hsla(0,50%,50%,0.6)"
    stroke-width="1"
    transform="translate(0.0165641564,-5.5430074257) scale(1,-1) translate(50,-110)"
    />
  
  <line
    x1="-7.920792079207921"
    y1="-9.207920792079207"
    x2="-7.920792079207921"
    y2="20.792079207920793"
    stroke="hsla(0,50%,50%,0.6)"
    stroke-width="1"
    transform="translate(0.0165641564,-5.5430074257) scale(1,-1) translate(50,-110)"
    />
  
  <line
    x1="0"
    y1="0"
    x2="100"
    y2="0"
    stroke="hsla(0,50%,50%,0.6)"
    stroke-width="1"
    transform="translate(0.0165641564,-5.5430074257) scale(1,-1) translate(50,-110)"
    />
  
  <line
    x1="0"
    y1="0"
    x2="0"
    y2="30"
    stroke="hsla(0,50%,50%,0.6)"
    stroke-width="1"
    transform="translate(0.0165641564,-5.5430074257) scale(1,-1) translate(50,-110)"
    />
  
  <line
    x1="92.07920792079207"
    y1="-19.207920792079207"
    x2="92.07920792079207"
    y2="20.792079207920793"
    stroke="hsla(0,50%,50%,0.6)"
    stroke-width="1"
    transform="translate(0.0165641564,-5.5430074257) scale(1,-1) translate(50,-110)"
    />
  
  <line
    x1="100"
    y1="0"
    x2="100"
    y2="20"
    stroke="hsla(0,50%,50%,0.6)"
    stroke-width="1"
    transform="translate(0.0165641564,-5.5430074257) scale(1,-1) translate(50,-110)"
    />
  
  <line
    x1="-7.920792079207921"
    y1="-9.207920792079207"
    x2="0"
    y2="30"
    stroke="hsla(0,50%,50%,0.6)"
    stroke-width="1"
    transform="translate(0.0165641564,-5.5430074257) scale(1,-1) translate(50,-110)"
    />
  
  <line
    x1="-7.920792079207921"
    y1="20.792079207920793"
    x2="92.07920792079207"
    y2="20.792079207920793"
    stroke="hsla(0,50%,50%,0.6)"
    stroke-width="1"
    transform="translate(0.0165641564,-5.5430074257) scale(1,-1) translate(50,-110)"
    />
  
  <line
    x1="100"
    y1="20"
    x2="0"
    y2="30"
    stroke="hsla(0,50%,50%,0.6)"
    stroke-width="1"
    transform="translate(0.0165641564,-5.5430074257) scale(1,-1) translate(50,-110)"
    />
  
</svg>
