<?xml version="1.0"?>
<!DOCTYPE svg PUBLIC "-//W3C//DTD SVG 1.1//EN"
  "http://www.w3.org/Graphics/SVG/1.1/DTD/svg11.dtd">
<svg
  width="240"
  height="240"
  viewBox="-50 -50 200 200" xmlns="http://www.w3.org/2000/svg" version="1.1">
  <rect
    x="0"
    y="0"
    width="100"
    height="100"
    fill="hsla(206,100%,53%,0.3)"
    stroke="hsl(206,100%,53%)"
    stroke-width="3"
    transform="" />
  
  <path
    d="M 
      46.1538461538
      7.3770491803
      L
    
      66.1538461538
      7.3770491803
      L
    
      67.7163461538
      10.5020491803
      L
    
      58.1069711538
      23.3145491803
      L
    
      70.1538461538
      39.3770491803
      L
    
      67.6538461538
      41.2520491803
      L
    
      56.1538461538
      25.9187158469
      L
    
      44.6538461538
      41.2520491803
      L
    
      42.1538461538
      39.3770491803
      L
    
      54.2007211538
      23.3145491803
      L
    
      44.5913461538
      10.5020491803
      z
    "
    fill="hsla(0,0%,50%,0.3)"
    stroke="hsla(0,0%,50%,1)"
    stroke-width="1"
    transform="translate(-52.9013742300,-16.7611637636) scale(1,-1) translate(50,-110)"
    />
  
  <path
    d="M 
      48.4975961538
      10.5020491803
      L
    
      56.1538461538
      20.7103825136
      L
    
      63.8100961538
      10.5020491803
      z
    "
    fill="hsla(0,0%,50%,0.3)"
    stroke="hsla(0,0%,50%,1)"
    stroke-width="1"
    transform="translate(-52.9013742300,-16.7611637636) scale(1,-1) translate(50,-110)"
    />
  
  
  <line
    x1="66.15384615384616"
    y1="7.377049180327869"
    x2="67.71634615384616"
    y2="10.50204918032787"
    stroke="hsla(0,50%,50%,0.6)"
    stroke-width="1"
    transform="translate(-52.9013742300,-16.7611637636) scale(1,-1) translate(50,-110)"
    />
  
  <line
    x1="46.15384615384615"
    y1="7.377049180327869"
    x2="70.15384615384616"
    y2="39.377049180327866"
    stroke="hsla(0,50%,50%,0.6)"
    stroke-width="1"
    transform="translate(-52.9013742300,-16.7611637636) scale(1,-1) translate(50,-110)"
    />
  
  <line
    x1="44.59134615384615"
    y1="10.50204918032787"
    x2="67.65384615384616"
    y2="41.252049180327866"
    stroke="hsla(0,50%,50%,0.6)"
    stroke-width="1"
    transform="translate(-52.9013742300,-16.7611637636) scale(1,-1) translate(50,-110)"
    />
  
  <line
    x1="42.15384615384615"
    y1="39.377049180327866"
    x2="44.65384615384615"
    y2="41.252049180327866"
    stroke="hsla(0,50%,50%,0.6)"
    stroke-width="1"
    transform="translate(-52.9013742300,-16.7611637636) scale(1,-1) translate(50,-110)"
    />
  
  <line
    x1="46.15384615384615"
    y1="7.377049180327869"
    x2="66.15384615384616"
    y2="7.377049180327869"
    stroke="hsla(0,50%,50%,0.6)"
    stroke-width="1"
    transform="translate(-52.9013742300,-16.7611637636) scale(1,-1) translate(50,-110)"
    />
  
  <line
    x1="44.59134615384615"
    y1="10.50204918032787"
    x2="67.71634615384616"
    y2="10.50204918032787"
    stroke="hsla(0,50%,50%,0.6)"
    stroke-width="1"
    transform="translate(-52.9013742300,-16.7611637636) scale(1,-1) translate(50,-110)"
    />
  
  <line
    x1="46.15384615384615"
    y1="7.377049180327869"
    x2="44.59134615384615"
    y2="10.50204918032787"
    stroke="hsla(0,50%,50%,0.6)"
    stroke-width="1"
    transform="translate(-52.9013742300,-16.7611637636) scale(1,-1) translate(50,-110)"
    />
  
  <line
    x1="66.15384615384616"
    y1="7.377049180327869"
    x2="42.15384615384615"
    y2="39.377049180327866"
    stroke="hsla(0,50%,50%,0.6)"
    stroke-width="1"
    transform="translate(-52.9013742300,-16.7611637636) scale(1,-1) translate(50,-110)"
    />
  
  <line
    x1="67.71634615384616"
    y1="10.50204918032787"
    x2="44.65384615384615"
    y2="41.252049180327866"
    stroke="hsla(0,50%,50%,0.6)"
    stroke-width="1"
    transform="translate(-52.9013742300,-16.7611637636) scale(1,-1) translate(50,-110)"
    />
  
  <line
    x1="70.15384615384616"
    y1="39.377049180327866"
    x2="67.65384615384616"
    y2="41.252049180327866"
    stroke="hsla(0,50%,50%,0.6)"
    stroke-width="1"
    transform="translate(-52.9013742300,-16.7611637636) scale(1,-1) translate(50,-110)"
    />
  
</svg>
