<?xml version="1.0"?>
<!DOCTYPE svg PUBLIC "-//W3C//DTD SVG 1.1//EN"
  "http://www.w3.org/Graphics/SVG/1.1/DTD/svg11.dtd">
<svg
  width="240"
  height="240"
  viewBox="-50 -50 200 200" xmlns="http://www.w3.org/2000/svg" version="1.1">
  <rect
    x="0"
    y="0"
    width="100"
    height="100"
    fill="hsla(206,100%,53%,0.3)"
    stroke="hsl(206,100%,53%)"
    stroke-width="3"
    transform="" />
  
  <path
    d="M 
      -3799500
      -3163800
      L
    
      -3799440
      -3163720
      L
    
      -3799520
      -3163660
      L
    
      -3799580
      -3163740
      z
    "
    fill="hsla(0,0%,50%,0.3)"
    stroke="hsla(0,0%,50%,1)"
    stroke-width="1"
    transform="translate(3799537.5,3163725) scale(1,-1) translate(50,-110)"
    />
  
  
  <line
    x1="-3799500"
    y1="-3163800"
    x2="-3799580"
    y2="-3163740"
    stroke="hsla(0,50%,50%,0.6)"
    stroke-width="1"
    transform="translate(3799537.5,3163725) scale(1,-1) translate(50,-110)"
    />
  
  <line
    x1="-3799440"
    y1="-3163720"
    x2="-3799520"
    y2="-3163660"
    stroke="hsla(0,50%,50%,0.6)"
    stroke-width="1"
    transform="translate(3799537.5,3163725) scale(1,-1) translate(50,-110)"
    />
  
  <line
    x1="-3799500"
    y1="-3163800"
    x2="-3799440"
    y2="-3163720"
    stroke="hsla(0,50%,50%,0.6)"
    stroke-width="1"
    transform="translate(3799537.5,3163725) scale(1,-1) translate(50,-110)"
    />
  
  <line
    x1="-3799580"
    y1="-3163740"
    x2="-3799520"
    y2="-3163660"
    stroke="hsla(0,50%,50%,0.6)"
    stroke-width="1"
    transform="translate(3799537.5,3163725) scale(1,-1) translate(50,-110)"
    />
  
</svg>
