<?xml version="1.0"?>
<!DOCTYPE svg PUBLIC "-//W3C//DTD SVG 1.1//EN"
  "http://www.w3.org/Graphics/SVG/1.1/DTD/svg11.dtd">
<svg
  width="240"
  height="240"
  viewBox="-500 -500 1000 1000" xmlns="http://www.w3.org/2000/svg" version="1.1">
  <rect
    x="0"
    y="0"
    width="100"
    height="100"
    fill="hsla(206,100%,53%,0.3)"
    stroke="hsl(206,100%,53%)"
    stroke-width="3"
    transform="" />
  
  <path
    d="M 
      2.0833333333
      0
      L
    
      10.4166666666
      0
      L
    
      18.75
      8.3333333333
      L
    
      56.25
      8.3333333333
      L
    
      43.75
      20.8333333333
      L
    
      47.9166666666
      20.8333333333
      L
    
      47.9166666666
      45.8333333333
      L
    
      31.25
      45.8333333333
      L
    
      31.25
      54.1666666666
      L
    
      18.75
      54.1666666666
      L
    
      0
      35.4166666666
      L
    
      2.0833333333
      33.3333333333
      z
    "
    fill="hsla(0,0%,50%,0.3)"
    stroke="hsla(0,0%,50%,1)"
    stroke-width="1"
    transform="translate(-28.125,-27.0833333333)"
    />
  
  
  <line
    x1="31.25"
    y1="8.333333333333334"
    x2="43.75"
    y2="20.833333333333332"
    stroke="hsla(0,50%,50%,0.6)"
    stroke-width="1"
    transform="translate(-28.125,-27.0833333333)"
    />
  
  <line
    x1="27.083333333333332"
    y1="8.333333333333334"
    x2="41.666666666666664"
    y2="22.916666666666668"
    stroke="hsla(0,50%,50%,0.6)"
    stroke-width="1"
    transform="translate(-28.125,-27.0833333333)"
    />
  
  <line
    x1="10.416666666666666"
    y1="0"
    x2="41.666666666666664"
    y2="31.25"
    stroke="hsla(0,50%,50%,0.6)"
    stroke-width="1"
    transform="translate(-28.125,-27.0833333333)"
    />
  
  <line
    x1="10.416666666666666"
    y1="8.333333333333334"
    x2="37.5"
    y2="35.416666666666664"
    stroke="hsla(0,50%,50%,0.6)"
    stroke-width="1"
    transform="translate(-28.125,-27.0833333333)"
    />
  
  <line
    x1="2.0833333333333335"
    y1="0"
    x2="10.416666666666666"
    y2="0"
    stroke="hsla(0,50%,50%,0.6)"
    stroke-width="1"
    transform="translate(-28.125,-27.0833333333)"
    />
  
  <line
    x1="2.0833333333333335"
    y1="0"
    x2="2.0833333333333335"
    y2="37.5"
    stroke="hsla(0,50%,50%,0.6)"
    stroke-width="1"
    transform="translate(-28.125,-27.0833333333)"
    />
  
  <line
    x1="6.25"
    y1="29.166666666666668"
    x2="6.25"
    y2="33.333333333333336"
    stroke="hsla(0,50%,50%,0.6)"
    stroke-width="1"
    transform="translate(-28.125,-27.0833333333)"
    />
  
  <line
    x1="10.416666666666666"
    y1="0"
    x2="10.416666666666666"
    y2="8.333333333333334"
    stroke="hsla(0,50%,50%,0.6)"
    stroke-width="1"
    transform="translate(-28.125,-27.0833333333)"
    />
  
  <line
    x1="18.75"
    y1="33.333333333333336"
    x2="18.75"
    y2="54.166666666666664"
    stroke="hsla(0,50%,50%,0.6)"
    stroke-width="1"
    transform="translate(-28.125,-27.0833333333)"
    />
  
  <line
    x1="27.083333333333332"
    y1="8.333333333333334"
    x2="27.083333333333332"
    y2="25"
    stroke="hsla(0,50%,50%,0.6)"
    stroke-width="1"
    transform="translate(-28.125,-27.0833333333)"
    />
  
  <line
    x1="27.083333333333332"
    y1="29.166666666666668"
    x2="27.083333333333332"
    y2="54.166666666666664"
    stroke="hsla(0,50%,50%,0.6)"
    stroke-width="1"
    transform="translate(-28.125,-27.0833333333)"
    />
  
  <line
    x1="31.25"
    y1="8.333333333333334"
    x2="31.25"
    y2="12.5"
    stroke="hsla(0,50%,50%,0.6)"
    stroke-width="1"
    transform="translate(-28.125,-27.0833333333)"
    />
  
  <line
    x1="31.25"
    y1="20.833333333333332"
    x2="31.25"
    y2="54.166666666666664"
    stroke="hsla(0,50%,50%,0.6)"
    stroke-width="1"
    transform="translate(-28.125,-27.0833333333)"
    />
  
  <line
    x1="35.416666666666664"
    y1="8.333333333333334"
    x2="35.416666666666664"
    y2="16.666666666666668"
    stroke="hsla(0,50%,50%,0.6)"
    stroke-width="1"
    transform="translate(-28.125,-27.0833333333)"
    />
  
  <line
    x1="39.583333333333336"
    y1="16.666666666666668"
    x2="39.583333333333336"
    y2="20.833333333333332"
    stroke="hsla(0,50%,50%,0.6)"
    stroke-width="1"
    transform="translate(-28.125,-27.0833333333)"
    />
  
  <line
    x1="43.75"
    y1="8.333333333333334"
    x2="43.75"
    y2="29.166666666666668"
    stroke="hsla(0,50%,50%,0.6)"
    stroke-width="1"
    transform="translate(-28.125,-27.0833333333)"
    />
  
  <line
    x1="47.916666666666664"
    y1="20.833333333333332"
    x2="47.916666666666664"
    y2="45.833333333333336"
    stroke="hsla(0,50%,50%,0.6)"
    stroke-width="1"
    transform="translate(-28.125,-27.0833333333)"
    />
  
  <line
    x1="52.083333333333336"
    y1="8.333333333333334"
    x2="52.083333333333336"
    y2="12.5"
    stroke="hsla(0,50%,50%,0.6)"
    stroke-width="1"
    transform="translate(-28.125,-27.0833333333)"
    />
  
  <line
    x1="18.75"
    y1="33.333333333333336"
    x2="31.25"
    y2="45.833333333333336"
    stroke="hsla(0,50%,50%,0.6)"
    stroke-width="1"
    transform="translate(-28.125,-27.0833333333)"
    />
  
  <line
    x1="10.416666666666666"
    y1="8.333333333333334"
    x2="56.25"
    y2="8.333333333333334"
    stroke="hsla(0,50%,50%,0.6)"
    stroke-width="1"
    transform="translate(-28.125,-27.0833333333)"
    />
  
  <line
    x1="31.25"
    y1="12.5"
    x2="52.083333333333336"
    y2="12.5"
    stroke="hsla(0,50%,50%,0.6)"
    stroke-width="1"
    transform="translate(-28.125,-27.0833333333)"
    />
  
  <line
    x1="4.166666666666667"
    y1="31.25"
    x2="27.083333333333332"
    y2="54.166666666666664"
    stroke="hsla(0,50%,50%,0.6)"
    stroke-width="1"
    transform="translate(-28.125,-27.0833333333)"
    />
  
  <line
    x1="35.416666666666664"
    y1="16.666666666666668"
    x2="39.583333333333336"
    y2="16.666666666666668"
    stroke="hsla(0,50%,50%,0.6)"
    stroke-width="1"
    transform="translate(-28.125,-27.0833333333)"
    />
  
  <line
    x1="0"
    y1="35.416666666666664"
    x2="18.75"
    y2="54.166666666666664"
    stroke="hsla(0,50%,50%,0.6)"
    stroke-width="1"
    transform="translate(-28.125,-27.0833333333)"
    />
  
  <line
    x1="27.083333333333332"
    y1="8.333333333333334"
    x2="0"
    y2="35.416666666666664"
    stroke="hsla(0,50%,50%,0.6)"
    stroke-width="1"
    transform="translate(-28.125,-27.0833333333)"
    />
  
  <line
    x1="31.25"
    y1="8.333333333333334"
    x2="2.0833333333333335"
    y2="37.5"
    stroke="hsla(0,50%,50%,0.6)"
    stroke-width="1"
    transform="translate(-28.125,-27.0833333333)"
    />
  
  <line
    x1="31.25"
    y1="20.833333333333332"
    x2="47.916666666666664"
    y2="20.833333333333332"
    stroke="hsla(0,50%,50%,0.6)"
    stroke-width="1"
    transform="translate(-28.125,-27.0833333333)"
    />
  
  <line
    x1="27.083333333333332"
    y1="25"
    x2="47.916666666666664"
    y2="25"
    stroke="hsla(0,50%,50%,0.6)"
    stroke-width="1"
    transform="translate(-28.125,-27.0833333333)"
    />
  
  <line
    x1="31.25"
    y1="20.833333333333332"
    x2="18.75"
    y2="33.333333333333336"
    stroke="hsla(0,50%,50%,0.6)"
    stroke-width="1"
    transform="translate(-28.125,-27.0833333333)"
    />
  
  <line
    x1="6.25"
    y1="29.166666666666668"
    x2="43.75"
    y2="29.166666666666668"
    stroke="hsla(0,50%,50%,0.6)"
    stroke-width="1"
    transform="translate(-28.125,-27.0833333333)"
    />
  
  <line
    x1="56.25"
    y1="8.333333333333334"
    x2="14.583333333333334"
    y2="50"
    stroke="hsla(0,50%,50%,0.6)"
    stroke-width="1"
    transform="translate(-28.125,-27.0833333333)"
    />
  
  <line
    x1="47.916666666666664"
    y1="25"
    x2="18.75"
    y2="54.166666666666664"
    stroke="hsla(0,50%,50%,0.6)"
    stroke-width="1"
    transform="translate(-28.125,-27.0833333333)"
    />
  
  <line
    x1="2.0833333333333335"
    y1="37.5"
    x2="27.083333333333332"
    y2="37.5"
    stroke="hsla(0,50%,50%,0.6)"
    stroke-width="1"
    transform="translate(-28.125,-27.0833333333)"
    />
  
  <line
    x1="31.25"
    y1="50"
    x2="27.083333333333332"
    y2="54.166666666666664"
    stroke="hsla(0,50%,50%,0.6)"
    stroke-width="1"
    transform="translate(-28.125,-27.0833333333)"
    />
  
  <line
    x1="18.75"
    y1="45.833333333333336"
    x2="47.916666666666664"
    y2="45.833333333333336"
    stroke="hsla(0,50%,50%,0.6)"
    stroke-width="1"
    transform="translate(-28.125,-27.0833333333)"
    />
  
  <line
    x1="27.083333333333332"
    y1="50"
    x2="31.25"
    y2="50"
    stroke="hsla(0,50%,50%,0.6)"
    stroke-width="1"
    transform="translate(-28.125,-27.0833333333)"
    />
  
  <line
    x1="18.75"
    y1="54.166666666666664"
    x2="31.25"
    y2="54.166666666666664"
    stroke="hsla(0,50%,50%,0.6)"
    stroke-width="1"
    transform="translate(-28.125,-27.0833333333)"
    />
  
</svg>
