<?xml version="1.0"?>
<!DOCTYPE svg PUBLIC "-//W3C//DTD SVG 1.1//EN"
  "http://www.w3.org/Graphics/SVG/1.1/DTD/svg11.dtd">
<svg
  width="240"
  height="240"
  viewBox="-50 -50 200 200" xmlns="http://www.w3.org/2000/svg" version="1.1">
  <rect
    x="0"
    y="0"
    width="100"
    height="100"
    fill="hsla(206,100%,53%,0.3)"
    stroke="hsl(206,100%,53%)"
    stroke-width="3"
    transform="" />
  
  <path
    d="M 
      -20
      -40
      L
    
      -10
      30
      L
    
      -40
      70
      L
    
      -80
      40
      L
    
      -45
      35
      L
    
      -50
      0
      z
    "
    fill="hsla(0,0%,50%,0.3)"
    stroke="hsla(0,0%,50%,1)"
    stroke-width="1"
    transform="translate(49.6875,-17.8125) scale(1,-1) translate(50,-110)"
    />
  
  
  <line
    x1="-20"
    y1="-40"
    x2="-50"
    y2="0"
    stroke="hsla(0,50%,50%,0.6)"
    stroke-width="1"
    transform="translate(49.6875,-17.8125) scale(1,-1) translate(50,-110)"
    />
  
  <line
    x1="-20"
    y1="-40"
    x2="-10"
    y2="30"
    stroke="hsla(0,50%,50%,0.6)"
    stroke-width="1"
    transform="translate(49.6875,-17.8125) scale(1,-1) translate(50,-110)"
    />
  
  <line
    x1="-10"
    y1="30"
    x2="-40"
    y2="70"
    stroke="hsla(0,50%,50%,0.6)"
    stroke-width="1"
    transform="translate(49.6875,-17.8125) scale(1,-1) translate(50,-110)"
    />
  
  <line
    x1="-50"
    y1="0"
    x2="-40"
    y2="70"
    stroke="hsla(0,50%,50%,0.6)"
    stroke-width="1"
    transform="translate(49.6875,-17.8125) scale(1,-1) translate(50,-110)"
    />
  
  <line
    x1="-50"
    y1="0"
    x2="-10"
    y2="30"
    stroke="hsla(0,50%,50%,0.6)"
    stroke-width="1"
    transform="translate(49.6875,-17.8125) scale(1,-1) translate(50,-110)"
    />
  
  <line
    x1="-10"
    y1="30"
    x2="-80"
    y2="40"
    stroke="hsla(0,50%,50%,0.6)"
    stroke-width="1"
    transform="translate(49.6875,-17.8125) scale(1,-1) translate(50,-110)"
    />
  
  <line
    x1="-80"
    y1="40"
    x2="-40"
    y2="70"
    stroke="hsla(0,50%,50%,0.6)"
    stroke-width="1"
    transform="translate(49.6875,-17.8125) scale(1,-1) translate(50,-110)"
    />
  
</svg>
