<?xml version="1.0"?>
<!DOCTYPE svg PUBLIC "-//W3C//DTD SVG 1.1//EN"
  "http://www.w3.org/Graphics/SVG/1.1/DTD/svg11.dtd">
<svg
  width="240"
  height="240"
  viewBox="-50 -50 200 200" xmlns="http://www.w3.org/2000/svg" version="1.1">
  <rect
    x="0"
    y="0"
    width="100"
    height="100"
    fill="hsla(206,100%,53%,0.3)"
    stroke="hsl(206,100%,53%)"
    stroke-width="3"
    transform="" />
  
  <path
    d="M 
      33.3333333333
      -250
      L
    
      133.3333333333
      -250
      L
    
      133.3333333333
      -150
      L
    
      33.3333333333
      -150
      z
    "
    fill="hsla(0,0%,50%,0.3)"
    stroke="hsla(0,0%,50%,1)"
    stroke-width="1"
    transform="translate(-70.8333333333,175) scale(1,-1) translate(50,-110)"
    />
  
  
  <line
    x1="33.333333333333336"
    y1="-250"
    x2="133.33333333333334"
    y2="-250"
    stroke="hsla(0,50%,50%,0.6)"
    stroke-width="1"
    transform="translate(-70.8333333333,175) scale(1,-1) translate(50,-110)"
    />
  
  <line
    x1="33.333333333333336"
    y1="-150"
    x2="133.33333333333334"
    y2="-150"
    stroke="hsla(0,50%,50%,0.6)"
    stroke-width="1"
    transform="translate(-70.8333333333,175) scale(1,-1) translate(50,-110)"
    />
  
  <line
    x1="33.333333333333336"
    y1="-250"
    x2="33.333333333333336"
    y2="-150"
    stroke="hsla(0,50%,50%,0.6)"
    stroke-width="1"
    transform="translate(-70.8333333333,175) scale(1,-1) translate(50,-110)"
    />
  
  <line
    x1="133.33333333333334"
    y1="-250"
    x2="133.33333333333334"
    y2="-150"
    stroke="hsla(0,50%,50%,0.6)"
    stroke-width="1"
    transform="translate(-70.8333333333,175) scale(1,-1) translate(50,-110)"
    />
  
</svg>
