<?xml version="1.0"?>
<!DOCTYPE svg PUBLIC "-//W3C//DTD SVG 1.1//EN"
  "http://www.w3.org/Graphics/SVG/1.1/DTD/svg11.dtd">
<svg
  width="240"
  height="240"
  viewBox="-50 -50 200 200" xmlns="http://www.w3.org/2000/svg" version="1.1">
  <rect
    x="0"
    y="0"
    width="100"
    height="100"
    fill="hsla(206,100%,53%,0.3)"
    stroke="hsl(206,100%,53%)"
    stroke-width="3"
    transform="" />
  
  <path
    d="M 
      71.4285714285
      57.1428571428
      L
    
      85.7142857142
      57.1428571428
      L
    
      104.7619047619
      85.7142857142
      L
    
      114.2857142857
      85.7142857142
      L
    
      114.2857142857
      100
      L
    
      85.7142857142
      119.0476190476
      L
    
      85.7142857142
      128.5714285714
      L
    
      71.4285714285
      128.5714285714
      L
    
      52.3809523809
      100
      L
    
      42.8571428571
      100
      L
    
      42.8571428571
      85.7142857142
      L
    
      71.4285714285
      66.6666666666
      z
    "
    fill="hsla(0,0%,50%,0.3)"
    stroke="hsla(0,0%,50%,1)"
    stroke-width="1"
    transform="translate(-60.1492745535,-81.1662946428) scale(1,-1) translate(50,-110)"
    />
  
  
  <line
    x1="85.71428571428571"
    y1="57.142857142857146"
    x2="114.28571428571429"
    y2="100"
    stroke="hsla(0,50%,50%,0.6)"
    stroke-width="1"
    transform="translate(-60.1492745535,-81.1662946428) scale(1,-1) translate(50,-110)"
    />
  
  <line
    x1="42.857142857142854"
    y1="85.71428571428571"
    x2="42.857142857142854"
    y2="100"
    stroke="hsla(0,50%,50%,0.6)"
    stroke-width="1"
    transform="translate(-60.1492745535,-81.1662946428) scale(1,-1) translate(50,-110)"
    />
  
  <line
    x1="71.42857142857143"
    y1="57.142857142857146"
    x2="71.42857142857143"
    y2="128.57142857142858"
    stroke="hsla(0,50%,50%,0.6)"
    stroke-width="1"
    transform="translate(-60.1492745535,-81.1662946428) scale(1,-1) translate(50,-110)"
    />
  
  <line
    x1="85.71428571428571"
    y1="57.142857142857146"
    x2="85.71428571428571"
    y2="128.57142857142858"
    stroke="hsla(0,50%,50%,0.6)"
    stroke-width="1"
    transform="translate(-60.1492745535,-81.1662946428) scale(1,-1) translate(50,-110)"
    />
  
  <line
    x1="114.28571428571429"
    y1="85.71428571428571"
    x2="114.28571428571429"
    y2="100"
    stroke="hsla(0,50%,50%,0.6)"
    stroke-width="1"
    transform="translate(-60.1492745535,-81.1662946428) scale(1,-1) translate(50,-110)"
    />
  
  <line
    x1="42.857142857142854"
    y1="85.71428571428571"
    x2="71.42857142857143"
    y2="128.57142857142858"
    stroke="hsla(0,50%,50%,0.6)"
    stroke-width="1"
    transform="translate(-60.1492745535,-81.1662946428) scale(1,-1) translate(50,-110)"
    />
  
  <line
    x1="71.42857142857143"
    y1="57.142857142857146"
    x2="85.71428571428571"
    y2="57.142857142857146"
    stroke="hsla(0,50%,50%,0.6)"
    stroke-width="1"
    transform="translate(-60.1492745535,-81.1662946428) scale(1,-1) translate(50,-110)"
    />
  
  <line
    x1="85.71428571428571"
    y1="57.142857142857146"
    x2="42.857142857142854"
    y2="85.71428571428571"
    stroke="hsla(0,50%,50%,0.6)"
    stroke-width="1"
    transform="translate(-60.1492745535,-81.1662946428) scale(1,-1) translate(50,-110)"
    />
  
  <line
    x1="42.857142857142854"
    y1="85.71428571428571"
    x2="114.28571428571429"
    y2="85.71428571428571"
    stroke="hsla(0,50%,50%,0.6)"
    stroke-width="1"
    transform="translate(-60.1492745535,-81.1662946428) scale(1,-1) translate(50,-110)"
    />
  
  <line
    x1="42.857142857142854"
    y1="100"
    x2="114.28571428571429"
    y2="100"
    stroke="hsla(0,50%,50%,0.6)"
    stroke-width="1"
    transform="translate(-60.1492745535,-81.1662946428) scale(1,-1) translate(50,-110)"
    />
  
  <line
    x1="114.28571428571429"
    y1="100"
    x2="71.42857142857143"
    y2="128.57142857142858"
    stroke="hsla(0,50%,50%,0.6)"
    stroke-width="1"
    transform="translate(-60.1492745535,-81.1662946428) scale(1,-1) translate(50,-110)"
    />
  
  <line
    x1="71.42857142857143"
    y1="128.57142857142858"
    x2="85.71428571428571"
    y2="128.57142857142858"
    stroke="hsla(0,50%,50%,0.6)"
    stroke-width="1"
    transform="translate(-60.1492745535,-81.1662946428) scale(1,-1) translate(50,-110)"
    />
  
</svg>
