<?xml version="1.0"?>
<!DOCTYPE svg PUBLIC "-//W3C//DTD SVG 1.1//EN"
  "http://www.w3.org/Graphics/SVG/1.1/DTD/svg11.dtd">
<svg
  width="240"
  height="240"
  viewBox="-50 -50 200 200" xmlns="http://www.w3.org/2000/svg" version="1.1">
  <rect
    x="0"
    y="0"
    width="100"
    height="100"
    fill="hsla(206,100%,53%,0.3)"
    stroke="hsl(206,100%,53%)"
    stroke-width="3"
    transform="" />
  
  <path
    d="M 
      145.2051631786
      -186.0346034738
      L
    
      168.6600457496
      -177.3819458718
      L
    
      136.5525055766
      -162.5797209027
      L
    
      119.2471903726
      -115.6699557606
      L
    
      72.3374252305
      -132.9752709645
      L
    
      40.2298850574
      -118.1730459954
      L
    
      48.8825426594
      -141.6279285665
      L
    
      80.9900828325
      -156.4301535356
      L
    
      89.6427404344
      -179.8850361067
      L
    
      113.0976230055
      -171.2323785047
      z
    "
    fill="hsla(0,0%,50%,0.3)"
    stroke="hsla(0,0%,50%,1)"
    stroke-width="1"
    transform="translate(-96.6039169448,167.0121558147) scale(1,-1) translate(50,-110)"
    />
  
  
  <line
    x1="145.20516317860847"
    y1="-186.0346034738653"
    x2="168.66004574968386"
    y2="-177.38194587188755"
    stroke="hsla(0,50%,50%,0.6)"
    stroke-width="1"
    transform="translate(-96.6039169448,167.0121558147) scale(1,-1) translate(50,-110)"
    />
  
  <line
    x1="89.64274043447992"
    y1="-179.8850361067454"
    x2="136.55250557663072"
    y2="-162.5797209027899"
    stroke="hsla(0,50%,50%,0.6)"
    stroke-width="1"
    transform="translate(-96.6039169448,167.0121558147) scale(1,-1) translate(50,-110)"
    />
  
  <line
    x1="48.882542659449015"
    y1="-141.62792856657234"
    x2="119.24719037267522"
    y2="-115.6699557606391"
    stroke="hsla(0,50%,50%,0.6)"
    stroke-width="1"
    transform="translate(-96.6039169448,167.0121558147) scale(1,-1) translate(50,-110)"
    />
  
  <line
    x1="145.20516317860847"
    y1="-186.0346034738653"
    x2="48.882542659449015"
    y2="-141.62792856657234"
    stroke="hsla(0,50%,50%,0.6)"
    stroke-width="1"
    transform="translate(-96.6039169448,167.0121558147) scale(1,-1) translate(50,-110)"
    />
  
  <line
    x1="168.66004574968386"
    y1="-177.38194587188755"
    x2="40.229885057471265"
    y2="-118.17304599549695"
    stroke="hsla(0,50%,50%,0.6)"
    stroke-width="1"
    transform="translate(-96.6039169448,167.0121558147) scale(1,-1) translate(50,-110)"
    />
  
  <line
    x1="48.882542659449015"
    y1="-141.62792856657234"
    x2="40.229885057471265"
    y2="-118.17304599549695"
    stroke="hsla(0,50%,50%,0.6)"
    stroke-width="1"
    transform="translate(-96.6039169448,167.0121558147) scale(1,-1) translate(50,-110)"
    />
  
  <line
    x1="89.64274043447992"
    y1="-179.8850361067454"
    x2="72.33742523052442"
    y2="-132.97527096459459"
    stroke="hsla(0,50%,50%,0.6)"
    stroke-width="1"
    transform="translate(-96.6039169448,167.0121558147) scale(1,-1) translate(50,-110)"
    />
  
  <line
    x1="145.20516317860847"
    y1="-186.0346034738653"
    x2="119.24719037267522"
    y2="-115.6699557606391"
    stroke="hsla(0,50%,50%,0.6)"
    stroke-width="1"
    transform="translate(-96.6039169448,167.0121558147) scale(1,-1) translate(50,-110)"
    />
  
</svg>
