<?xml version="1.0"?>
<!DOCTYPE svg PUBLIC "-//W3C//DTD SVG 1.1//EN"
  "http://www.w3.org/Graphics/SVG/1.1/DTD/svg11.dtd">
<svg
  width="240"
  height="240"
  viewBox="-50 -50 200 200" xmlns="http://www.w3.org/2000/svg" version="1.1">
  <rect
    x="0"
    y="0"
    width="100"
    height="100"
    fill="hsla(206,100%,53%,0.3)"
    stroke="hsl(206,100%,53%)"
    stroke-width="3"
    transform="" />
  
  <path
    d="M 
      2.2905613452
      -7.8022984093
      L
    
      26.0483075467
      18.3810836377
      L
    
      52.2316895938
      -5.3766625636
      L
    
      102.1728178424
      -2.9510267180
      L
    
      49.8060537482
      44.5644656849
      L
    
      -0.1350745004
      42.1388298392
      z
    "
    fill="hsla(0,0%,50%,0.3)"
    stroke="hsla(0,0%,50%,1)"
    stroke-width="1"
    transform="translate(-29.3056486696,-31.8361986292) scale(1,-1) translate(50,-110)"
    />
  
  
  <line
    x1="52.231689593873526"
    y1="-5.376662563671792"
    x2="102.17281784248448"
    y2="-2.9510267180029826"
    stroke="hsla(0,50%,50%,0.6)"
    stroke-width="1"
    transform="translate(-29.3056486696,-31.8361986292) scale(1,-1) translate(50,-110)"
    />
  
  <line
    x1="2.290561345262579"
    y1="-7.802298409340602"
    x2="49.80605374820472"
    y2="44.56446568493916"
    stroke="hsla(0,50%,50%,0.6)"
    stroke-width="1"
    transform="translate(-29.3056486696,-31.8361986292) scale(1,-1) translate(50,-110)"
    />
  
  <line
    x1="2.290561345262579"
    y1="-7.802298409340602"
    x2="-0.1350745004062305"
    y2="42.13882983927035"
    stroke="hsla(0,50%,50%,0.6)"
    stroke-width="1"
    transform="translate(-29.3056486696,-31.8361986292) scale(1,-1) translate(50,-110)"
    />
  
  <line
    x1="52.231689593873526"
    y1="-5.376662563671792"
    x2="49.80605374820472"
    y2="44.56446568493916"
    stroke="hsla(0,50%,50%,0.6)"
    stroke-width="1"
    transform="translate(-29.3056486696,-31.8361986292) scale(1,-1) translate(50,-110)"
    />
  
  <line
    x1="52.231689593873526"
    y1="-5.376662563671792"
    x2="-0.1350745004062305"
    y2="42.13882983927035"
    stroke="hsla(0,50%,50%,0.6)"
    stroke-width="1"
    transform="translate(-29.3056486696,-31.8361986292) scale(1,-1) translate(50,-110)"
    />
  
  <line
    x1="-0.1350745004062305"
    y1="42.13882983927035"
    x2="49.80605374820472"
    y2="44.56446568493916"
    stroke="hsla(0,50%,50%,0.6)"
    stroke-width="1"
    transform="translate(-29.3056486696,-31.8361986292) scale(1,-1) translate(50,-110)"
    />
  
  <line
    x1="102.17281784248448"
    y1="-2.9510267180029826"
    x2="49.80605374820472"
    y2="44.56446568493916"
    stroke="hsla(0,50%,50%,0.6)"
    stroke-width="1"
    transform="translate(-29.3056486696,-31.8361986292) scale(1,-1) translate(50,-110)"
    />
  
</svg>
