<?xml version="1.0"?>
<!DOCTYPE svg PUBLIC "-//W3C//DTD SVG 1.1//EN"
  "http://www.w3.org/Graphics/SVG/1.1/DTD/svg11.dtd">
<svg
  width="240"
  height="240"
  viewBox="-50 -50 200 200" xmlns="http://www.w3.org/2000/svg" version="1.1">
  <rect
    x="0"
    y="0"
    width="100"
    height="100"
    fill="hsla(206,100%,53%,0.3)"
    stroke="hsl(206,100%,53%)"
    stroke-width="3"
    transform="" />
  
  <path
    d="M 
      50.0525514850
      49.9874158953
      L
    
      106.5140540072
      92.5561689066
      L
    
      56.9989262404
      99.5025436621
      L
    
      28.7681749794
      78.2181671564
      L
    
      7.4837984737
      106.4489184175
      L
    
      0.5374237183
      56.9337906508
      z
    "
    fill="hsla(0,0%,50%,0.3)"
    stroke="hsla(0,0%,50%,1)"
    stroke-width="1"
    transform="translate(-14.1908226616,-75.5297918283) scale(1,-1) translate(50,-110)"
    />
  
  
  <line
    x1="50.052551485042386"
    y1="49.98741589536779"
    x2="56.99892624049995"
    y2="99.50254366210936"
    stroke="hsla(0,50%,50%,0.6)"
    stroke-width="1"
    transform="translate(-14.1908226616,-75.5297918283) scale(1,-1) translate(50,-110)"
    />
  
  <line
    x1="0.5374237183008151"
    y1="56.93379065082535"
    x2="7.483798473758376"
    y2="106.44891841756692"
    stroke="hsla(0,50%,50%,0.6)"
    stroke-width="1"
    transform="translate(-14.1908226616,-75.5297918283) scale(1,-1) translate(50,-110)"
    />
  
  <line
    x1="50.052551485042386"
    y1="49.98741589536779"
    x2="106.51405400724151"
    y2="92.5561689066518"
    stroke="hsla(0,50%,50%,0.6)"
    stroke-width="1"
    transform="translate(-14.1908226616,-75.5297918283) scale(1,-1) translate(50,-110)"
    />
  
  <line
    x1="0.5374237183008151"
    y1="56.93379065082535"
    x2="56.99892624049995"
    y2="99.50254366210936"
    stroke="hsla(0,50%,50%,0.6)"
    stroke-width="1"
    transform="translate(-14.1908226616,-75.5297918283) scale(1,-1) translate(50,-110)"
    />
  
  <line
    x1="50.052551485042386"
    y1="49.98741589536779"
    x2="7.483798473758376"
    y2="106.44891841756692"
    stroke="hsla(0,50%,50%,0.6)"
    stroke-width="1"
    transform="translate(-14.1908226616,-75.5297918283) scale(1,-1) translate(50,-110)"
    />
  
  <line
    x1="50.052551485042386"
    y1="49.98741589536779"
    x2="0.5374237183008151"
    y2="56.93379065082535"
    stroke="hsla(0,50%,50%,0.6)"
    stroke-width="1"
    transform="translate(-14.1908226616,-75.5297918283) scale(1,-1) translate(50,-110)"
    />
  
  <line
    x1="106.51405400724151"
    y1="92.5561689066518"
    x2="56.99892624049995"
    y2="99.50254366210936"
    stroke="hsla(0,50%,50%,0.6)"
    stroke-width="1"
    transform="translate(-14.1908226616,-75.5297918283) scale(1,-1) translate(50,-110)"
    />
  
</svg>
