<?xml version="1.0"?>
<!DOCTYPE svg PUBLIC "-//W3C//DTD SVG 1.1//EN"
  "http://www.w3.org/Graphics/SVG/1.1/DTD/svg11.dtd">
<svg
  width="240"
  height="240"
  viewBox="-50 -50 200 200" xmlns="http://www.w3.org/2000/svg" version="1.1">
  <rect
    x="0"
    y="0"
    width="100"
    height="100"
    fill="hsla(206,100%,53%,0.3)"
    stroke="hsl(206,100%,53%)"
    stroke-width="3"
    transform="" />
  
  <path
    d="M 
      89.9269150151
      -35.2365003493
      L
    
      116.3542902771
      7.2086859120
      L
    
      108.3453847774
      41.6449666736
      L
    
      142.7816655391
      49.6538721733
      L
    
      100.3364792778
      76.0812474353
      L
    
      73.9091040157
      33.6360611740
      z
    "
    fill="hsla(0,0%,50%,0.3)"
    stroke="hsla(0,0%,50%,1)"
    stroke-width="1"
    transform="translate(-93.1042542337,-43.7720176834) scale(1,-1) translate(50,-110)"
    />
  
  
  <line
    x1="89.92691501513823"
    y1="-35.23650034934401"
    x2="116.35429027714625"
    y2="7.2086859120096705"
    stroke="hsla(0,50%,50%,0.6)"
    stroke-width="1"
    transform="translate(-93.1042542337,-43.7720176834) scale(1,-1) translate(50,-110)"
    />
  
  <line
    x1="73.90910401579256"
    y1="33.63606117401768"
    x2="100.33647927780058"
    y2="76.08124743537135"
    stroke="hsla(0,50%,50%,0.6)"
    stroke-width="1"
    transform="translate(-93.1042542337,-43.7720176834) scale(1,-1) translate(50,-110)"
    />
  
  <line
    x1="73.90910401579256"
    y1="33.63606117401768"
    x2="142.78166553915426"
    y2="49.653872173363354"
    stroke="hsla(0,50%,50%,0.6)"
    stroke-width="1"
    transform="translate(-93.1042542337,-43.7720176834) scale(1,-1) translate(50,-110)"
    />
  
  <line
    x1="89.92691501513823"
    y1="-35.23650034934401"
    x2="73.90910401579256"
    y2="33.63606117401768"
    stroke="hsla(0,50%,50%,0.6)"
    stroke-width="1"
    transform="translate(-93.1042542337,-43.7720176834) scale(1,-1) translate(50,-110)"
    />
  
  <line
    x1="116.35429027714625"
    y1="7.2086859120096705"
    x2="100.33647927780058"
    y2="76.08124743537135"
    stroke="hsla(0,50%,50%,0.6)"
    stroke-width="1"
    transform="translate(-93.1042542337,-43.7720176834) scale(1,-1) translate(50,-110)"
    />
  
  <line
    x1="116.35429027714625"
    y1="7.2086859120096705"
    x2="73.90910401579256"
    y2="33.63606117401768"
    stroke="hsla(0,50%,50%,0.6)"
    stroke-width="1"
    transform="translate(-93.1042542337,-43.7720176834) scale(1,-1) translate(50,-110)"
    />
  
  <line
    x1="142.78166553915426"
    y1="49.653872173363354"
    x2="100.33647927780058"
    y2="76.08124743537135"
    stroke="hsla(0,50%,50%,0.6)"
    stroke-width="1"
    transform="translate(-93.1042542337,-43.7720176834) scale(1,-1) translate(50,-110)"
    />
  
</svg>
