<?xml version="1.0"?>
<!DOCTYPE svg PUBLIC "-//W3C//DTD SVG 1.1//EN"
  "http://www.w3.org/Graphics/SVG/1.1/DTD/svg11.dtd">
<svg
  width="240"
  height="240"
  viewBox="-500 -500 1000 1000" xmlns="http://www.w3.org/2000/svg" version="1.1">
  <rect
    x="0"
    y="0"
    width="100"
    height="100"
    fill="hsla(206,100%,53%,0.3)"
    stroke="hsl(206,100%,53%)"
    stroke-width="3"
    transform="" />
  
  <path
    d="M 
      15.1162790697
      1.5625
      L
    
      80.3030303030
      43.1578947368
      L
    
      98.4375
      70.8860759493
      L
    
      26.9662921348
      98.4375
      z
    "
    fill="hsla(0,0%,50%,0.3)"
    stroke="hsla(0,0%,50%,1)"
    stroke-width="1"
    transform="translate(-56.7768895348,-50)"
    />
  
  
  <line
    x1="80.3030303030303"
    y1="43.1578947368421"
    x2="98.4375"
    y2="70.88607594936708"
    stroke="hsla(0,50%,50%,0.6)"
    stroke-width="1"
    transform="translate(-56.7768895348,-50)"
    />
  
  <line
    x1="80.9643832568156"
    y1="69.07611170370589"
    x2="85.43687766157436"
    y2="75.89768369557754"
    stroke="hsla(0,50%,50%,0.6)"
    stroke-width="1"
    transform="translate(-56.7768895348,-50)"
    />
  
  <line
    x1="80.3030303030303"
    y1="43.1578947368421"
    x2="85.43687766157436"
    y2="75.89768369557754"
    stroke="hsla(0,50%,50%,0.6)"
    stroke-width="1"
    transform="translate(-56.7768895348,-50)"
    />
  
  <line
    x1="53.560962553623575"
    y1="82.69573348100522"
    x2="55.08301222564632"
    y2="87.59879024156987"
    stroke="hsla(0,50%,50%,0.6)"
    stroke-width="1"
    transform="translate(-56.7768895348,-50)"
    />
  
  <line
    x1="15.116279069767442"
    y1="1.5625"
    x2="80.3030303030303"
    y2="43.1578947368421"
    stroke="hsla(0,50%,50%,0.6)"
    stroke-width="1"
    transform="translate(-56.7768895348,-50)"
    />
  
  <line
    x1="15.116279069767442"
    y1="1.5625"
    x2="55.08301222564632"
    y2="87.59879024156987"
    stroke="hsla(0,50%,50%,0.6)"
    stroke-width="1"
    transform="translate(-56.7768895348,-50)"
    />
  
  <line
    x1="15.116279069767442"
    y1="1.5625"
    x2="38.10945548603349"
    y2="94.1419238103039"
    stroke="hsla(0,50%,50%,0.6)"
    stroke-width="1"
    transform="translate(-56.7768895348,-50)"
    />
  
  <line
    x1="15.116279069767442"
    y1="1.5625"
    x2="26.96629213483146"
    y2="98.4375"
    stroke="hsla(0,50%,50%,0.6)"
    stroke-width="1"
    transform="translate(-56.7768895348,-50)"
    />
  
  <line
    x1="35.93092443745302"
    y1="90.08143619453621"
    x2="38.10945548603349"
    y2="94.1419238103039"
    stroke="hsla(0,50%,50%,0.6)"
    stroke-width="1"
    transform="translate(-56.7768895348,-50)"
    />
  
  <line
    x1="83.11390395986953"
    y1="61.08351735229207"
    x2="98.4375"
    y2="70.88607594936708"
    stroke="hsla(0,50%,50%,0.6)"
    stroke-width="1"
    transform="translate(-56.7768895348,-50)"
    />
  
  <line
    x1="32.63225997722695"
    y1="91.85123421523349"
    x2="30.812633819054394"
    y2="96.95477438291556"
    stroke="hsla(0,50%,50%,0.6)"
    stroke-width="1"
    transform="translate(-56.7768895348,-50)"
    />
  
  <line
    x1="81.7582342035982"
    y1="45.38294780596289"
    x2="78.84828856427505"
    y2="54.75690510973338"
    stroke="hsla(0,50%,50%,0.6)"
    stroke-width="1"
    transform="translate(-56.7768895348,-50)"
    />
  
  <line
    x1="78.84828856427505"
    y1="54.75690510973338"
    x2="83.789711357138"
    y2="56.29086470034938"
    stroke="hsla(0,50%,50%,0.6)"
    stroke-width="1"
    transform="translate(-56.7768895348,-50)"
    />
  
  <line
    x1="80.63217920791807"
    y1="45.25695708315234"
    x2="81.7582342035982"
    y2="45.38294780596289"
    stroke="hsla(0,50%,50%,0.6)"
    stroke-width="1"
    transform="translate(-56.7768895348,-50)"
    />
  
  <line
    x1="87.60036216390644"
    y1="54.31574735605145"
    x2="80.9643832568156"
    y2="69.07611170370589"
    stroke="hsla(0,50%,50%,0.6)"
    stroke-width="1"
    transform="translate(-56.7768895348,-50)"
    />
  
  <line
    x1="97.12305109413836"
    y1="68.87624174603071"
    x2="96.71295371569853"
    y2="69.78287759038129"
    stroke="hsla(0,50%,50%,0.6)"
    stroke-width="1"
    transform="translate(-56.7768895348,-50)"
    />
  
  <line
    x1="87.60036216390644"
    y1="54.31574735605145"
    x2="82.06142606134296"
    y2="54.371610691462635"
    stroke="hsla(0,50%,50%,0.6)"
    stroke-width="1"
    transform="translate(-56.7768895348,-50)"
    />
  
  <line
    x1="32.63225997722695"
    y1="91.85123421523349"
    x2="26.96629213483146"
    y2="98.4375"
    stroke="hsla(0,50%,50%,0.6)"
    stroke-width="1"
    transform="translate(-56.7768895348,-50)"
    />
  
  <line
    x1="26.502021993048242"
    y1="94.64204680190628"
    x2="30.812633819054394"
    y2="96.95477438291556"
    stroke="hsla(0,50%,50%,0.6)"
    stroke-width="1"
    transform="translate(-56.7768895348,-50)"
    />
  
  <line
    x1="81.43869537197094"
    y1="44.89436276455523"
    x2="26.502021993048242"
    y2="94.64204680190628"
    stroke="hsla(0,50%,50%,0.6)"
    stroke-width="1"
    transform="translate(-56.7768895348,-50)"
    />
  
  <line
    x1="86.69597660725597"
    y1="52.932913062033734"
    x2="83.789711357138"
    y2="56.29086470034938"
    stroke="hsla(0,50%,50%,0.6)"
    stroke-width="1"
    transform="translate(-56.7768895348,-50)"
    />
  
  <line
    x1="88.08906071625374"
    y1="55.06298299316791"
    x2="83.11390395986953"
    y2="61.08351735229207"
    stroke="hsla(0,50%,50%,0.6)"
    stroke-width="1"
    transform="translate(-56.7768895348,-50)"
    />
  
  <line
    x1="81.43869537197094"
    y1="44.89436276455523"
    x2="80.63217920791807"
    y2="45.25695708315234"
    stroke="hsla(0,50%,50%,0.6)"
    stroke-width="1"
    transform="translate(-56.7768895348,-50)"
    />
  
  <line
    x1="97.12305109413836"
    y1="68.87624174603071"
    x2="80.9643832568156"
    y2="69.07611170370589"
    stroke="hsla(0,50%,50%,0.6)"
    stroke-width="1"
    transform="translate(-56.7768895348,-50)"
    />
  
  <line
    x1="86.69597660725597"
    y1="52.932913062033734"
    x2="82.06142606134296"
    y2="54.371610691462635"
    stroke="hsla(0,50%,50%,0.6)"
    stroke-width="1"
    transform="translate(-56.7768895348,-50)"
    />
  
  <line
    x1="88.08906071625374"
    y1="55.06298299316791"
    x2="83.789711357138"
    y2="56.29086470034938"
    stroke="hsla(0,50%,50%,0.6)"
    stroke-width="1"
    transform="translate(-56.7768895348,-50)"
    />
  
  <line
    x1="97.28427663045008"
    y1="69.12276072131044"
    x2="96.71295371569853"
    y2="69.78287759038129"
    stroke="hsla(0,50%,50%,0.6)"
    stroke-width="1"
    transform="translate(-56.7768895348,-50)"
    />
  
  <line
    x1="35.93092443745302"
    y1="90.08143619453621"
    x2="32.63225997722695"
    y2="91.85123421523349"
    stroke="hsla(0,50%,50%,0.6)"
    stroke-width="1"
    transform="translate(-56.7768895348,-50)"
    />
  
  <line
    x1="97.28427663045008"
    y1="69.12276072131044"
    x2="53.560962553623575"
    y2="82.69573348100522"
    stroke="hsla(0,50%,50%,0.6)"
    stroke-width="1"
    transform="translate(-56.7768895348,-50)"
    />
  
  <line
    x1="98.4375"
    y1="70.88607594936708"
    x2="26.96629213483146"
    y2="98.4375"
    stroke="hsla(0,50%,50%,0.6)"
    stroke-width="1"
    transform="translate(-56.7768895348,-50)"
    />
  
</svg>
