<?xml version="1.0"?>
<!DOCTYPE svg PUBLIC "-//W3C//DTD SVG 1.1//EN"
  "http://www.w3.org/Graphics/SVG/1.1/DTD/svg11.dtd">
<svg
  width="240"
  height="240"
  viewBox="-50 -50 200 200" xmlns="http://www.w3.org/2000/svg" version="1.1">
  <rect
    x="0"
    y="0"
    width="100"
    height="100"
    fill="hsla(206,100%,53%,0.3)"
    stroke="hsl(206,100%,53%)"
    stroke-width="3"
    transform="" />
  
  <path
    d="M 
      0
      0
      L
    
      50
      0
      L
    
      50
      50
      L
    
      33.3333333333
      66.6666666666
      L
    
      33.3333333333
      100
      L
    
      16.6666666666
      83.3333333333
      L
    
      16.6666666666
      33.3333333333
      L
    
      25
      25
      z
    "
    fill="hsla(0,0%,50%,0.3)"
    stroke="hsla(0,0%,50%,1)"
    stroke-width="1"
    transform="translate(-23.046875,-40.3645833333) scale(1,-1) translate(50,-110)"
    />
  
  
  <line
    x1="0"
    y1="0"
    x2="50"
    y2="0"
    stroke="hsla(0,50%,50%,0.6)"
    stroke-width="1"
    transform="translate(-23.046875,-40.3645833333) scale(1,-1) translate(50,-110)"
    />
  
  <line
    x1="0"
    y1="0"
    x2="50"
    y2="50"
    stroke="hsla(0,50%,50%,0.6)"
    stroke-width="1"
    transform="translate(-23.046875,-40.3645833333) scale(1,-1) translate(50,-110)"
    />
  
  <line
    x1="16.666666666666668"
    y1="33.333333333333336"
    x2="16.666666666666668"
    y2="83.33333333333333"
    stroke="hsla(0,50%,50%,0.6)"
    stroke-width="1"
    transform="translate(-23.046875,-40.3645833333) scale(1,-1) translate(50,-110)"
    />
  
  <line
    x1="33.333333333333336"
    y1="50"
    x2="33.333333333333336"
    y2="100"
    stroke="hsla(0,50%,50%,0.6)"
    stroke-width="1"
    transform="translate(-23.046875,-40.3645833333) scale(1,-1) translate(50,-110)"
    />
  
  <line
    x1="50"
    y1="0"
    x2="50"
    y2="50"
    stroke="hsla(0,50%,50%,0.6)"
    stroke-width="1"
    transform="translate(-23.046875,-40.3645833333) scale(1,-1) translate(50,-110)"
    />
  
  <line
    x1="16.666666666666668"
    y1="33.333333333333336"
    x2="33.333333333333336"
    y2="50"
    stroke="hsla(0,50%,50%,0.6)"
    stroke-width="1"
    transform="translate(-23.046875,-40.3645833333) scale(1,-1) translate(50,-110)"
    />
  
  <line
    x1="50"
    y1="0"
    x2="16.666666666666668"
    y2="33.333333333333336"
    stroke="hsla(0,50%,50%,0.6)"
    stroke-width="1"
    transform="translate(-23.046875,-40.3645833333) scale(1,-1) translate(50,-110)"
    />
  
  <line
    x1="16.666666666666668"
    y1="83.33333333333333"
    x2="33.333333333333336"
    y2="100"
    stroke="hsla(0,50%,50%,0.6)"
    stroke-width="1"
    transform="translate(-23.046875,-40.3645833333) scale(1,-1) translate(50,-110)"
    />
  
  <line
    x1="16.666666666666668"
    y1="50"
    x2="50"
    y2="50"
    stroke="hsla(0,50%,50%,0.6)"
    stroke-width="1"
    transform="translate(-23.046875,-40.3645833333) scale(1,-1) translate(50,-110)"
    />
  
  <line
    x1="50"
    y1="50"
    x2="16.666666666666668"
    y2="83.33333333333333"
    stroke="hsla(0,50%,50%,0.6)"
    stroke-width="1"
    transform="translate(-23.046875,-40.3645833333) scale(1,-1) translate(50,-110)"
    />
  
</svg>
