<?xml version="1.0"?>
<!DOCTYPE svg PUBLIC "-//W3C//DTD SVG 1.1//EN"
  "http://www.w3.org/Graphics/SVG/1.1/DTD/svg11.dtd">
<svg
  width="240"
  height="240"
  viewBox="-500 -500 1000 1000" xmlns="http://www.w3.org/2000/svg" version="1.1">
  <rect
    x="0"
    y="0"
    width="100"
    height="100"
    fill="hsla(206,100%,53%,0.3)"
    stroke="hsl(206,100%,53%)"
    stroke-width="3"
    transform="" />
  
  <path
    d="M 
      -25.6210476725
      -32.3234702567
      L
    
      -18.4701531518
      -5.0145212176
      L
    
      -0.0000000000
      -0.0000000000
      L
    
      -0.0000000000
      0.0000000000
      L
    
      -8.7336244541
      32.1688500727
      L
    
      -112.2270742358
      31.7030567685
      L
    
      -122.3595281668
      -6.9923354291
      L
    
      -100.1420781011
      -12.8100123273
      L
    
      -96.5065502183
      -26.2008733624
      L
    
      -73.1841339155
      -19.8689956331
      z
    "
    fill="hsla(0,0%,50%,0.3)"
    stroke="hsla(0,0%,50%,1)"
    stroke-width="1"
    transform="translate(61.1797640834,0.0773100919)"
    />
  
  
  <line
    x1="-25.62104767254344"
    y1="-32.323470256754064"
    x2="-122.35952816684484"
    y2="-6.992335429161608"
    stroke="hsla(0,50%,50%,0.6)"
    stroke-width="1"
    transform="translate(61.1797640834,0.0773100919)"
    />
  
  <line
    x1="-96.5065502183406"
    y1="-26.200873362445414"
    x2="-112.22707423580786"
    y2="31.70305676855895"
    stroke="hsla(0,50%,50%,0.6)"
    stroke-width="1"
    transform="translate(61.1797640834,0.0773100919)"
    />
  
  <line
    x1="-96.5065502183406"
    y1="-26.200873362445414"
    x2="-1.0150154622016397e-36"
    y2="-2.755698087425266e-37"
    stroke="hsla(0,50%,50%,0.6)"
    stroke-width="1"
    transform="translate(61.1797640834,0.0773100919)"
    />
  
  <line
    x1="-1.811704624950867e-38"
    y1="6.673112035235694e-38"
    x2="-8.733624454148472"
    y2="32.1688500727802"
    stroke="hsla(0,50%,50%,0.6)"
    stroke-width="1"
    transform="translate(61.1797640834,0.0773100919)"
    />
  
  <line
    x1="-1.811704624950867e-38"
    y1="6.673112035235694e-38"
    x2="-4.4814725487232197e-38"
    y2="1.3051594387337334e-37"
    stroke="hsla(0,50%,50%,0.6)"
    stroke-width="1"
    transform="translate(61.1797640834,0.0773100919)"
    />
  
  <line
    x1="-1.0150154622016397e-36"
    y1="-2.755698087425266e-37"
    x2="-1.811704624950867e-38"
    y2="6.673112035235694e-38"
    stroke="hsla(0,50%,50%,0.6)"
    stroke-width="1"
    transform="translate(61.1797640834,0.0773100919)"
    />
  
  <line
    x1="-1.0150154622016397e-36"
    y1="-2.755698087425266e-37"
    x2="-4.4814725487232197e-38"
    y2="1.3051594387337334e-37"
    stroke="hsla(0,50%,50%,0.6)"
    stroke-width="1"
    transform="translate(61.1797640834,0.0773100919)"
    />
  
  <line
    x1="-25.62104767254344"
    y1="-32.323470256754064"
    x2="-8.733624454148472"
    y2="32.1688500727802"
    stroke="hsla(0,50%,50%,0.6)"
    stroke-width="1"
    transform="translate(61.1797640834,0.0773100919)"
    />
  
  <line
    x1="-122.35952816684484"
    y1="-6.992335429161608"
    x2="-112.22707423580786"
    y2="31.70305676855895"
    stroke="hsla(0,50%,50%,0.6)"
    stroke-width="1"
    transform="translate(61.1797640834,0.0773100919)"
    />
  
  <line
    x1="-112.22707423580786"
    y1="31.70305676855895"
    x2="-8.733624454148472"
    y2="32.1688500727802"
    stroke="hsla(0,50%,50%,0.6)"
    stroke-width="1"
    transform="translate(61.1797640834,0.0773100919)"
    />
  
</svg>
