<?xml version="1.0"?>
<!DOCTYPE svg PUBLIC "-//W3C//DTD SVG 1.1//EN"
  "http://www.w3.org/Graphics/SVG/1.1/DTD/svg11.dtd">
<svg
  width="240"
  height="240"
  viewBox="-500 -500 1000 1000" xmlns="http://www.w3.org/2000/svg" version="1.1">
  <rect
    x="0"
    y="0"
    width="100"
    height="100"
    fill="hsla(206,100%,53%,0.3)"
    stroke="hsl(206,100%,53%)"
    stroke-width="3"
    transform="" />
  
  <path
    d="M 
      104.6538195631
      46.8495119929
      L
    
      122.0397869878
      73.0312468237
      L
    
      97.1048014347
      89.5893110376
      L
    
      97.0535496474
      89.8794800441
      L
    
      -4.1445078727
      87.8989029631
      L
    
      -5.3922317318
      78.7597777883
      L
    
      -2.4595696299
      78.3593945563
      L
    
      -1.0421253485
      70.3343398125
      L
    
      14.3434343434
      65.6911976911
      L
    
      30.8296063683
      62.2516456296
      L
    
      40.2841951032
      49.1562922860
      L
    
      52.2363371663
      57.7855048581
      z
    "
    fill="hsla(0,0%,50%,0.3)"
    stroke="hsla(0,0%,50%,1)"
    stroke-width="1"
    transform="translate(-58.3237776279,-68.3644960185)"
    />
  
  
  <line
    x1="104.6538195631751"
    y1="46.84951199293862"
    x2="122.03978698786699"
    y2="73.03124682370125"
    stroke="hsla(0,50%,50%,0.6)"
    stroke-width="1"
    transform="translate(-58.3237776279,-68.3644960185)"
    />
  
  <line
    x1="93.68863647439699"
    y1="65.23271027570857"
    x2="97.0535496474592"
    y2="89.87948004413204"
    stroke="hsla(0,50%,50%,0.6)"
    stroke-width="1"
    transform="translate(-58.3237776279,-68.3644960185)"
    />
  
  <line
    x1="0"
    y1="70.01984126984127"
    x2="0"
    y2="71.42857142857143"
    stroke="hsla(0,50%,50%,0.6)"
    stroke-width="1"
    transform="translate(-58.3237776279,-68.3644960185)"
    />
  
  <line
    x1="-1.042125348598268"
    y1="70.33433981254325"
    x2="-4.1445078727315074"
    y2="87.89890296312178"
    stroke="hsla(0,50%,50%,0.6)"
    stroke-width="1"
    transform="translate(-58.3237776279,-68.3644960185)"
    />
  
  <line
    x1="-5.3922317318754835"
    y1="78.75977778833926"
    x2="-4.1445078727315074"
    y2="87.89890296312178"
    stroke="hsla(0,50%,50%,0.6)"
    stroke-width="1"
    transform="translate(-58.3237776279,-68.3644960185)"
    />
  
  <line
    x1="40.28419510326542"
    y1="49.15629228608372"
    x2="96.67887513121693"
    y2="89.8721471784833"
    stroke="hsla(0,50%,50%,0.6)"
    stroke-width="1"
    transform="translate(-58.3237776279,-68.3644960185)"
    />
  
  <line
    x1="104.6538195631751"
    y1="46.84951199293862"
    x2="97.0535496474592"
    y2="89.87948004413204"
    stroke="hsla(0,50%,50%,0.6)"
    stroke-width="1"
    transform="translate(-58.3237776279,-68.3644960185)"
    />
  
  <line
    x1="0"
    y1="70.01984126984127"
    x2="12.083485648604464"
    y2="88.21650581861857"
    stroke="hsla(0,50%,50%,0.6)"
    stroke-width="1"
    transform="translate(-58.3237776279,-68.3644960185)"
    />
  
  <line
    x1="-1.042125348598268"
    y1="70.33433981254325"
    x2="0"
    y2="71.42857142857143"
    stroke="hsla(0,50%,50%,0.6)"
    stroke-width="1"
    transform="translate(-58.3237776279,-68.3644960185)"
    />
  
  <line
    x1="40.28419510326542"
    y1="49.15629228608372"
    x2="12.083485648604464"
    y2="88.21650581861857"
    stroke="hsla(0,50%,50%,0.6)"
    stroke-width="1"
    transform="translate(-58.3237776279,-68.3644960185)"
    />
  
  <line
    x1="14.343434343434344"
    y1="65.69119769119769"
    x2="0"
    y2="71.42857142857143"
    stroke="hsla(0,50%,50%,0.6)"
    stroke-width="1"
    transform="translate(-58.3237776279,-68.3644960185)"
    />
  
  <line
    x1="14.343434343434344"
    y1="65.69119769119769"
    x2="-1.042125348598268"
    y2="70.33433981254325"
    stroke="hsla(0,50%,50%,0.6)"
    stroke-width="1"
    transform="translate(-58.3237776279,-68.3644960185)"
    />
  
  <line
    x1="104.6538195631751"
    y1="46.84951199293862"
    x2="14.343434343434344"
    y2="65.69119769119769"
    stroke="hsla(0,50%,50%,0.6)"
    stroke-width="1"
    transform="translate(-58.3237776279,-68.3644960185)"
    />
  
  <line
    x1="93.68863647439699"
    y1="65.23271027570857"
    x2="-5.3922317318754835"
    y2="78.75977778833926"
    stroke="hsla(0,50%,50%,0.6)"
    stroke-width="1"
    transform="translate(-58.3237776279,-68.3644960185)"
    />
  
  <line
    x1="-4.1445078727315074"
    y1="87.89890296312178"
    x2="97.0535496474592"
    y2="89.87948004413204"
    stroke="hsla(0,50%,50%,0.6)"
    stroke-width="1"
    transform="translate(-58.3237776279,-68.3644960185)"
    />
  
  <line
    x1="122.03978698786699"
    y1="73.03124682370125"
    x2="96.67887513121693"
    y2="89.8721471784833"
    stroke="hsla(0,50%,50%,0.6)"
    stroke-width="1"
    transform="translate(-58.3237776279,-68.3644960185)"
    />
  
</svg>
