<?xml version="1.0"?>
<!DOCTYPE svg PUBLIC "-//W3C//DTD SVG 1.1//EN"
  "http://www.w3.org/Graphics/SVG/1.1/DTD/svg11.dtd">
<svg
  width="240"
  height="240"
  viewBox="-500 -500 1000 1000" xmlns="http://www.w3.org/2000/svg" version="1.1">
  <rect
    x="0"
    y="0"
    width="100"
    height="100"
    fill="hsla(206,100%,53%,0.3)"
    stroke="hsl(206,100%,53%)"
    stroke-width="3"
    transform="" />
  
  <path
    d="M 
      -14757395258967641292800
      -14757395258967641292800
      L
    
      -14757395258967641292700
      -14757395258967641292700
      L
    
      -14757395258967641292750
      -14757395258967641292700
      L
    
      -14757395258967641292800
      -14757395258967641292750
      z
    "
    fill="hsla(0,0%,50%,0.3)"
    stroke="hsla(0,0%,50%,1)"
    stroke-width="1"
    transform="translate(14757395258967641292750,14757395258967641292750)"
    />
  
  
  <line
    x1="-1.4757395258967641e+22"
    y1="-1.4757395258967641e+22"
    x2="-1.4757395258967641e+22"
    y2="-1.4757395258967641e+22"
    stroke="hsla(0,50%,50%,0.6)"
    stroke-width="1"
    transform="translate(14757395258967641292750,14757395258967641292750)"
    />
  
  <line
    x1="-1.4757395258967641e+22"
    y1="-1.4757395258967641e+22"
    x2="-1.4757395258967641e+22"
    y2="-1.4757395258967641e+22"
    stroke="hsla(0,50%,50%,0.6)"
    stroke-width="1"
    transform="translate(14757395258967641292750,14757395258967641292750)"
    />
  
  <line
    x1="-1.4757395258967641e+22"
    y1="-1.4757395258967641e+22"
    x2="-1.4757395258967641e+22"
    y2="-1.4757395258967641e+22"
    stroke="hsla(0,50%,50%,0.6)"
    stroke-width="1"
    transform="translate(14757395258967641292750,14757395258967641292750)"
    />
  
  <line
    x1="-1.4757395258967641e+22"
    y1="-1.4757395258967641e+22"
    x2="-1.4757395258967641e+22"
    y2="-1.4757395258967641e+22"
    stroke="hsla(0,50%,50%,0.6)"
    stroke-width="1"
    transform="translate(14757395258967641292750,14757395258967641292750)"
    />
  
  <line
    x1="-1.4757395258967641e+22"
    y1="-1.4757395258967641e+22"
    x2="-1.4757395258967641e+22"
    y2="-1.4757395258967641e+22"
    stroke="hsla(0,50%,50%,0.6)"
    stroke-width="1"
    transform="translate(14757395258967641292750,14757395258967641292750)"
    />
  
  <line
    x1="-1.4757395258967641e+22"
    y1="-1.4757395258967641e+22"
    x2="-1.4757395258967641e+22"
    y2="-1.4757395258967641e+22"
    stroke="hsla(0,50%,50%,0.6)"
    stroke-width="1"
    transform="translate(14757395258967641292750,14757395258967641292750)"
    />
  
</svg>
