<?xml version="1.0"?>
<!DOCTYPE svg PUBLIC "-//W3C//DTD SVG 1.1//EN"
  "http://www.w3.org/Graphics/SVG/1.1/DTD/svg11.dtd">
<svg
  width="240"
  height="240"
  viewBox="-50 -50 200 200" xmlns="http://www.w3.org/2000/svg" version="1.1">
  <rect
    x="0"
    y="0"
    width="100"
    height="100"
    fill="hsla(206,100%,53%,0.3)"
    stroke="hsl(206,100%,53%)"
    stroke-width="3"
    transform="" />
  
  <path
    d="M 
      -326.1030132063
      1044.1541963037
      L
    
      -276.4684186155
      1114.4968725694
      L
    
      -277.8022341760
      1118.3099460357
      L
    
      -278.1460379532
      1118.3314674419
      L
    
      -278.1681099286
      1117.9788683383
      L
    
      -278.7010117746
      1117.4966502223
      L
    
      -314.2885273930
      1132.2783391473
      L
    
      -313.9517794166
      1142.1871485726
      L
    
      -340.3002044793
      1143.0825920553
      L
    
      -351.6685620648
      1090.7287418106
      L
    
      -337.1028100722
      1050.9208220607
      z
    "
    fill="hsla(0,0%,50%,0.3)"
    stroke="hsla(0,0%,50%,1)"
    stroke-width="1"
    transform="translate(337.1950045879,-1082.6541495352) scale(1,-1) translate(50,-110)"
    />
  
  
  <line
    x1="-324.8820256195066"
    y1="1045.884592920348"
    x2="-333.37595596766755"
    y2="1079.1741717376347"
    stroke="hsla(0,50%,50%,0.6)"
    stroke-width="1"
    transform="translate(337.1950045879,-1082.6541495352) scale(1,-1) translate(50,-110)"
    />
  
  <line
    x1="-335.27112695520236"
    y1="1052.2564886200796"
    x2="-335.1898399694416"
    y2="1056.736883368734"
    stroke="hsla(0,50%,50%,0.6)"
    stroke-width="1"
    transform="translate(337.1950045879,-1082.6541495352) scale(1,-1) translate(50,-110)"
    />
  
  <line
    x1="-316.8371228973831"
    y1="1057.2859147692925"
    x2="-313.95177941663775"
    y2="1142.187148572664"
    stroke="hsla(0,50%,50%,0.6)"
    stroke-width="1"
    transform="translate(337.1950045879,-1082.6541495352) scale(1,-1) translate(50,-110)"
    />
  
  <line
    x1="-337.10281007229526"
    y1="1050.9208220607347"
    x2="-351.6685620648157"
    y2="1090.7287418106991"
    stroke="hsla(0,50%,50%,0.6)"
    stroke-width="1"
    transform="translate(337.1950045879,-1082.6541495352) scale(1,-1) translate(50,-110)"
    />
  
  <line
    x1="-278.3517509590315"
    y1="1115.0452087366882"
    x2="-278.1460379532208"
    y2="1118.3314674419137"
    stroke="hsla(0,50%,50%,0.6)"
    stroke-width="1"
    transform="translate(337.1950045879,-1082.6541495352) scale(1,-1) translate(50,-110)"
    />
  
  <line
    x1="-328.3897939761416"
    y1="1045.56093043216"
    x2="-330.83659621902336"
    y2="1051.762349884888"
    stroke="hsla(0,50%,50%,0.6)"
    stroke-width="1"
    transform="translate(337.1950045879,-1082.6541495352) scale(1,-1) translate(50,-110)"
    />
  
  <line
    x1="-276.4684186155708"
    y1="1114.4968725694548"
    x2="-277.80223417605595"
    y2="1118.3099460357332"
    stroke="hsla(0,50%,50%,0.6)"
    stroke-width="1"
    transform="translate(337.1950045879,-1082.6541495352) scale(1,-1) translate(50,-110)"
    />
  
  <line
    x1="-332.5652493009644"
    y1="1053.9255151021657"
    x2="-336.0929550704953"
    y2="1061.4995308429268"
    stroke="hsla(0,50%,50%,0.6)"
    stroke-width="1"
    transform="translate(337.1950045879,-1082.6541495352) scale(1,-1) translate(50,-110)"
    />
  
  <line
    x1="-338.1827221728719"
    y1="1053.872201039235"
    x2="-333.70749620114844"
    y2="1076.920071277079"
    stroke="hsla(0,50%,50%,0.6)"
    stroke-width="1"
    transform="translate(337.1950045879,-1082.6541495352) scale(1,-1) translate(50,-110)"
    />
  
  <line
    x1="-351.6685620648157"
    y1="1090.7287418106991"
    x2="-340.3002044793115"
    y2="1143.082592055365"
    stroke="hsla(0,50%,50%,0.6)"
    stroke-width="1"
    transform="translate(337.1950045879,-1082.6541495352) scale(1,-1) translate(50,-110)"
    />
  
  <line
    x1="-317.4684512017485"
    y1="1056.3911895701149"
    x2="-333.37595596766755"
    y2="1079.1741717376347"
    stroke="hsla(0,50%,50%,0.6)"
    stroke-width="1"
    transform="translate(337.1950045879,-1082.6541495352) scale(1,-1) translate(50,-110)"
    />
  
  <line
    x1="-337.10281007229526"
    y1="1050.9208220607347"
    x2="-335.1898399694416"
    y2="1056.736883368734"
    stroke="hsla(0,50%,50%,0.6)"
    stroke-width="1"
    transform="translate(337.1950045879,-1082.6541495352) scale(1,-1) translate(50,-110)"
    />
  
  <line
    x1="-278.3517509590315"
    y1="1115.0452087366882"
    x2="-277.31659575132403"
    y2="1116.9216169095705"
    stroke="hsla(0,50%,50%,0.6)"
    stroke-width="1"
    transform="translate(337.1950045879,-1082.6541495352) scale(1,-1) translate(50,-110)"
    />
  
  <line
    x1="-337.889983310006"
    y1="1053.0721513633482"
    x2="-321.5390097268372"
    y2="1078.7329288706019"
    stroke="hsla(0,50%,50%,0.6)"
    stroke-width="1"
    transform="translate(337.1950045879,-1082.6541495352) scale(1,-1) translate(50,-110)"
    />
  
  <line
    x1="-326.1030132063842"
    y1="1044.1541963037082"
    x2="-338.1827221728719"
    y2="1053.872201039235"
    stroke="hsla(0,50%,50%,0.6)"
    stroke-width="1"
    transform="translate(337.1950045879,-1082.6541495352) scale(1,-1) translate(50,-110)"
    />
  
  <line
    x1="-326.1030132063842"
    y1="1044.1541963037082"
    x2="-276.4684186155708"
    y2="1114.4968725694548"
    stroke="hsla(0,50%,50%,0.6)"
    stroke-width="1"
    transform="translate(337.1950045879,-1082.6541495352) scale(1,-1) translate(50,-110)"
    />
  
  <line
    x1="-333.70749620114844"
    y1="1076.920071277079"
    x2="-351.6685620648157"
    y2="1090.7287418106991"
    stroke="hsla(0,50%,50%,0.6)"
    stroke-width="1"
    transform="translate(337.1950045879,-1082.6541495352) scale(1,-1) translate(50,-110)"
    />
  
  <line
    x1="-339.4981966852549"
    y1="1057.467367553738"
    x2="-321.5390097268372"
    y2="1078.7329288706019"
    stroke="hsla(0,50%,50%,0.6)"
    stroke-width="1"
    transform="translate(337.1950045879,-1082.6541495352) scale(1,-1) translate(50,-110)"
    />
  
  <line
    x1="-326.1030132063842"
    y1="1044.1541963037082"
    x2="-337.10281007229526"
    y2="1050.9208220607347"
    stroke="hsla(0,50%,50%,0.6)"
    stroke-width="1"
    transform="translate(337.1950045879,-1082.6541495352) scale(1,-1) translate(50,-110)"
    />
  
  <line
    x1="-321.5390097268372"
    y1="1078.7329288706019"
    x2="-277.80223417605595"
    y2="1118.3099460357332"
    stroke="hsla(0,50%,50%,0.6)"
    stroke-width="1"
    transform="translate(337.1950045879,-1082.6541495352) scale(1,-1) translate(50,-110)"
    />
  
  <line
    x1="-277.31659575132403"
    y1="1116.9216169095705"
    x2="-340.3002044793115"
    y2="1143.082592055365"
    stroke="hsla(0,50%,50%,0.6)"
    stroke-width="1"
    transform="translate(337.1950045879,-1082.6541495352) scale(1,-1) translate(50,-110)"
    />
  
  <line
    x1="-335.27112695520236"
    y1="1052.2564886200796"
    x2="-337.889983310006"
    y2="1053.0721513633482"
    stroke="hsla(0,50%,50%,0.6)"
    stroke-width="1"
    transform="translate(337.1950045879,-1082.6541495352) scale(1,-1) translate(50,-110)"
    />
  
  <line
    x1="-317.4684512017485"
    y1="1056.3911895701149"
    x2="-336.0929550704953"
    y2="1061.4995308429268"
    stroke="hsla(0,50%,50%,0.6)"
    stroke-width="1"
    transform="translate(337.1950045879,-1082.6541495352) scale(1,-1) translate(50,-110)"
    />
  
  <line
    x1="-276.4684186155708"
    y1="1114.4968725694548"
    x2="-278.3517509590315"
    y2="1115.0452087366882"
    stroke="hsla(0,50%,50%,0.6)"
    stroke-width="1"
    transform="translate(337.1950045879,-1082.6541495352) scale(1,-1) translate(50,-110)"
    />
  
  <line
    x1="-335.1898399694416"
    y1="1056.736883368734"
    x2="-339.4981966852549"
    y2="1057.467367553738"
    stroke="hsla(0,50%,50%,0.6)"
    stroke-width="1"
    transform="translate(337.1950045879,-1082.6541495352) scale(1,-1) translate(50,-110)"
    />
  
  <line
    x1="-337.3814379240175"
    y1="1051.682306614856"
    x2="-332.5652493009644"
    y2="1053.9255151021657"
    stroke="hsla(0,50%,50%,0.6)"
    stroke-width="1"
    transform="translate(337.1950045879,-1082.6541495352) scale(1,-1) translate(50,-110)"
    />
  
  <line
    x1="-345.42115962761835"
    y1="1073.6547112358692"
    x2="-333.37595596766755"
    y2="1079.1741717376347"
    stroke="hsla(0,50%,50%,0.6)"
    stroke-width="1"
    transform="translate(337.1950045879,-1082.6541495352) scale(1,-1) translate(50,-110)"
    />
  
  <line
    x1="-330.83659621902336"
    y1="1051.762349884888"
    x2="-316.8371228973831"
    y2="1057.2859147692925"
    stroke="hsla(0,50%,50%,0.6)"
    stroke-width="1"
    transform="translate(337.1950045879,-1082.6541495352) scale(1,-1) translate(50,-110)"
    />
  
  <line
    x1="-337.3814379240175"
    y1="1051.682306614856"
    x2="-335.27112695520236"
    y2="1052.2564886200796"
    stroke="hsla(0,50%,50%,0.6)"
    stroke-width="1"
    transform="translate(337.1950045879,-1082.6541495352) scale(1,-1) translate(50,-110)"
    />
  
  <line
    x1="-328.3897939761416"
    y1="1045.56093043216"
    x2="-324.8820256195066"
    y2="1045.884592920348"
    stroke="hsla(0,50%,50%,0.6)"
    stroke-width="1"
    transform="translate(337.1950045879,-1082.6541495352) scale(1,-1) translate(50,-110)"
    />
  
  <line
    x1="-345.42115962761835"
    y1="1073.6547112358692"
    x2="-333.70749620114844"
    y2="1076.920071277079"
    stroke="hsla(0,50%,50%,0.6)"
    stroke-width="1"
    transform="translate(337.1950045879,-1082.6541495352) scale(1,-1) translate(50,-110)"
    />
  
  <line
    x1="-277.80223417605595"
    y1="1118.3099460357332"
    x2="-278.1460379532208"
    y2="1118.3314674419137"
    stroke="hsla(0,50%,50%,0.6)"
    stroke-width="1"
    transform="translate(337.1950045879,-1082.6541495352) scale(1,-1) translate(50,-110)"
    />
  
  <line
    x1="-313.95177941663775"
    y1="1142.187148572664"
    x2="-340.3002044793115"
    y2="1143.082592055365"
    stroke="hsla(0,50%,50%,0.6)"
    stroke-width="1"
    transform="translate(337.1950045879,-1082.6541495352) scale(1,-1) translate(50,-110)"
    />
  
</svg>
