<?xml version="1.0"?>
<!DOCTYPE svg PUBLIC "-//W3C//DTD SVG 1.1//EN"
  "http://www.w3.org/Graphics/SVG/1.1/DTD/svg11.dtd">
<svg
  width="240"
  height="240"
  viewBox="-50 -50 200 200" xmlns="http://www.w3.org/2000/svg" version="1.1">
  <rect
    x="0"
    y="0"
    width="100"
    height="100"
    fill="hsla(206,100%,53%,0.3)"
    stroke="hsl(206,100%,53%)"
    stroke-width="3"
    transform="" />
  
  <path
    d="M 
      45.8333333333
      0
      L
    
      45.8333333333
      4.1666666666
      L
    
      50
      4.1666666666
      L
    
      50
      12.5
      L
    
      45.8333333333
      16.6666666666
      L
    
      45.8333333333
      25
      L
    
      54.1666666666
      33.3333333333
      L
    
      45.8333333333
      41.6666666666
      L
    
      45.8333333333
      50
      L
    
      16.6666666666
      50
      L
    
      12.5
      45.8333333333
      L
    
      12.5
      33.3333333333
      L
    
      0
      20.8333333333
      L
    
      0
      4.1666666666
      L
    
      41.6666666666
      4.1666666666
      z
    "
    fill="hsla(0,0%,50%,0.3)"
    stroke="hsla(0,0%,50%,1)"
    stroke-width="1"
    transform="translate(-22.9995727539,-10.6808980305) scale(1,-1) translate(50,-110)"
    />
  
  
  <line
    x1="33.333333333333336"
    y1="12.5"
    x2="54.166666666666664"
    y2="33.333333333333336"
    stroke="hsla(0,50%,50%,0.6)"
    stroke-width="1"
    transform="translate(-22.9995727539,-10.6808980305) scale(1,-1) translate(50,-110)"
    />
  
  <line
    x1="33.333333333333336"
    y1="20.833333333333332"
    x2="45.833333333333336"
    y2="33.333333333333336"
    stroke="hsla(0,50%,50%,0.6)"
    stroke-width="1"
    transform="translate(-22.9995727539,-10.6808980305) scale(1,-1) translate(50,-110)"
    />
  
  <line
    x1="33.333333333333336"
    y1="25"
    x2="45.833333333333336"
    y2="37.5"
    stroke="hsla(0,50%,50%,0.6)"
    stroke-width="1"
    transform="translate(-22.9995727539,-10.6808980305) scale(1,-1) translate(50,-110)"
    />
  
  <line
    x1="33.333333333333336"
    y1="29.166666666666668"
    x2="41.666666666666664"
    y2="37.5"
    stroke="hsla(0,50%,50%,0.6)"
    stroke-width="1"
    transform="translate(-22.9995727539,-10.6808980305) scale(1,-1) translate(50,-110)"
    />
  
  <line
    x1="20.833333333333332"
    y1="20.833333333333332"
    x2="29.166666666666668"
    y2="29.166666666666668"
    stroke="hsla(0,50%,50%,0.6)"
    stroke-width="1"
    transform="translate(-22.9995727539,-10.6808980305) scale(1,-1) translate(50,-110)"
    />
  
  <line
    x1="0"
    y1="4.166666666666667"
    x2="0"
    y2="20.833333333333332"
    stroke="hsla(0,50%,50%,0.6)"
    stroke-width="1"
    transform="translate(-22.9995727539,-10.6808980305) scale(1,-1) translate(50,-110)"
    />
  
  <line
    x1="12.5"
    y1="33.333333333333336"
    x2="12.5"
    y2="45.833333333333336"
    stroke="hsla(0,50%,50%,0.6)"
    stroke-width="1"
    transform="translate(-22.9995727539,-10.6808980305) scale(1,-1) translate(50,-110)"
    />
  
  <line
    x1="16.666666666666668"
    y1="4.166666666666667"
    x2="16.666666666666668"
    y2="50"
    stroke="hsla(0,50%,50%,0.6)"
    stroke-width="1"
    transform="translate(-22.9995727539,-10.6808980305) scale(1,-1) translate(50,-110)"
    />
  
  <line
    x1="20.833333333333332"
    y1="20.833333333333332"
    x2="20.833333333333332"
    y2="50"
    stroke="hsla(0,50%,50%,0.6)"
    stroke-width="1"
    transform="translate(-22.9995727539,-10.6808980305) scale(1,-1) translate(50,-110)"
    />
  
  <line
    x1="25"
    y1="33.333333333333336"
    x2="25"
    y2="45.833333333333336"
    stroke="hsla(0,50%,50%,0.6)"
    stroke-width="1"
    transform="translate(-22.9995727539,-10.6808980305) scale(1,-1) translate(50,-110)"
    />
  
  <line
    x1="29.166666666666668"
    y1="4.166666666666667"
    x2="29.166666666666668"
    y2="50"
    stroke="hsla(0,50%,50%,0.6)"
    stroke-width="1"
    transform="translate(-22.9995727539,-10.6808980305) scale(1,-1) translate(50,-110)"
    />
  
  <line
    x1="33.333333333333336"
    y1="4.166666666666667"
    x2="33.333333333333336"
    y2="50"
    stroke="hsla(0,50%,50%,0.6)"
    stroke-width="1"
    transform="translate(-22.9995727539,-10.6808980305) scale(1,-1) translate(50,-110)"
    />
  
  <line
    x1="37.5"
    y1="16.666666666666668"
    x2="37.5"
    y2="25"
    stroke="hsla(0,50%,50%,0.6)"
    stroke-width="1"
    transform="translate(-22.9995727539,-10.6808980305) scale(1,-1) translate(50,-110)"
    />
  
  <line
    x1="41.666666666666664"
    y1="4.166666666666667"
    x2="41.666666666666664"
    y2="37.5"
    stroke="hsla(0,50%,50%,0.6)"
    stroke-width="1"
    transform="translate(-22.9995727539,-10.6808980305) scale(1,-1) translate(50,-110)"
    />
  
  <line
    x1="45.833333333333336"
    y1="0"
    x2="45.833333333333336"
    y2="50"
    stroke="hsla(0,50%,50%,0.6)"
    stroke-width="1"
    transform="translate(-22.9995727539,-10.6808980305) scale(1,-1) translate(50,-110)"
    />
  
  <line
    x1="50"
    y1="4.166666666666667"
    x2="50"
    y2="12.5"
    stroke="hsla(0,50%,50%,0.6)"
    stroke-width="1"
    transform="translate(-22.9995727539,-10.6808980305) scale(1,-1) translate(50,-110)"
    />
  
  <line
    x1="0"
    y1="4.166666666666667"
    x2="50"
    y2="4.166666666666667"
    stroke="hsla(0,50%,50%,0.6)"
    stroke-width="1"
    transform="translate(-22.9995727539,-10.6808980305) scale(1,-1) translate(50,-110)"
    />
  
  <line
    x1="20.833333333333332"
    y1="33.333333333333336"
    x2="37.5"
    y2="50"
    stroke="hsla(0,50%,50%,0.6)"
    stroke-width="1"
    transform="translate(-22.9995727539,-10.6808980305) scale(1,-1) translate(50,-110)"
    />
  
  <line
    x1="0"
    y1="20.833333333333332"
    x2="29.166666666666668"
    y2="50"
    stroke="hsla(0,50%,50%,0.6)"
    stroke-width="1"
    transform="translate(-22.9995727539,-10.6808980305) scale(1,-1) translate(50,-110)"
    />
  
  <line
    x1="16.666666666666668"
    y1="41.666666666666664"
    x2="25"
    y2="50"
    stroke="hsla(0,50%,50%,0.6)"
    stroke-width="1"
    transform="translate(-22.9995727539,-10.6808980305) scale(1,-1) translate(50,-110)"
    />
  
  <line
    x1="45.833333333333336"
    y1="12.5"
    x2="50"
    y2="12.5"
    stroke="hsla(0,50%,50%,0.6)"
    stroke-width="1"
    transform="translate(-22.9995727539,-10.6808980305) scale(1,-1) translate(50,-110)"
    />
  
  <line
    x1="16.666666666666668"
    y1="45.833333333333336"
    x2="20.833333333333332"
    y2="50"
    stroke="hsla(0,50%,50%,0.6)"
    stroke-width="1"
    transform="translate(-22.9995727539,-10.6808980305) scale(1,-1) translate(50,-110)"
    />
  
  <line
    x1="12.5"
    y1="45.833333333333336"
    x2="16.666666666666668"
    y2="50"
    stroke="hsla(0,50%,50%,0.6)"
    stroke-width="1"
    transform="translate(-22.9995727539,-10.6808980305) scale(1,-1) translate(50,-110)"
    />
  
  <line
    x1="37.5"
    y1="16.666666666666668"
    x2="45.833333333333336"
    y2="16.666666666666668"
    stroke="hsla(0,50%,50%,0.6)"
    stroke-width="1"
    transform="translate(-22.9995727539,-10.6808980305) scale(1,-1) translate(50,-110)"
    />
  
  <line
    x1="0"
    y1="20.833333333333332"
    x2="20.833333333333332"
    y2="20.833333333333332"
    stroke="hsla(0,50%,50%,0.6)"
    stroke-width="1"
    transform="translate(-22.9995727539,-10.6808980305) scale(1,-1) translate(50,-110)"
    />
  
  <line
    x1="33.333333333333336"
    y1="20.833333333333332"
    x2="45.833333333333336"
    y2="20.833333333333332"
    stroke="hsla(0,50%,50%,0.6)"
    stroke-width="1"
    transform="translate(-22.9995727539,-10.6808980305) scale(1,-1) translate(50,-110)"
    />
  
  <line
    x1="45.833333333333336"
    y1="0"
    x2="33.333333333333336"
    y2="12.5"
    stroke="hsla(0,50%,50%,0.6)"
    stroke-width="1"
    transform="translate(-22.9995727539,-10.6808980305) scale(1,-1) translate(50,-110)"
    />
  
  <line
    x1="37.5"
    y1="25"
    x2="45.833333333333336"
    y2="25"
    stroke="hsla(0,50%,50%,0.6)"
    stroke-width="1"
    transform="translate(-22.9995727539,-10.6808980305) scale(1,-1) translate(50,-110)"
    />
  
  <line
    x1="37.5"
    y1="16.666666666666668"
    x2="16.666666666666668"
    y2="37.5"
    stroke="hsla(0,50%,50%,0.6)"
    stroke-width="1"
    transform="translate(-22.9995727539,-10.6808980305) scale(1,-1) translate(50,-110)"
    />
  
  <line
    x1="45.833333333333336"
    y1="12.5"
    x2="16.666666666666668"
    y2="41.666666666666664"
    stroke="hsla(0,50%,50%,0.6)"
    stroke-width="1"
    transform="translate(-22.9995727539,-10.6808980305) scale(1,-1) translate(50,-110)"
    />
  
  <line
    x1="50"
    y1="12.5"
    x2="16.666666666666668"
    y2="45.833333333333336"
    stroke="hsla(0,50%,50%,0.6)"
    stroke-width="1"
    transform="translate(-22.9995727539,-10.6808980305) scale(1,-1) translate(50,-110)"
    />
  
  <line
    x1="12.5"
    y1="33.333333333333336"
    x2="54.166666666666664"
    y2="33.333333333333336"
    stroke="hsla(0,50%,50%,0.6)"
    stroke-width="1"
    transform="translate(-22.9995727539,-10.6808980305) scale(1,-1) translate(50,-110)"
    />
  
  <line
    x1="20.833333333333332"
    y1="45.833333333333336"
    x2="16.666666666666668"
    y2="50"
    stroke="hsla(0,50%,50%,0.6)"
    stroke-width="1"
    transform="translate(-22.9995727539,-10.6808980305) scale(1,-1) translate(50,-110)"
    />
  
  <line
    x1="25"
    y1="45.833333333333336"
    x2="20.833333333333332"
    y2="50"
    stroke="hsla(0,50%,50%,0.6)"
    stroke-width="1"
    transform="translate(-22.9995727539,-10.6808980305) scale(1,-1) translate(50,-110)"
    />
  
  <line
    x1="41.666666666666664"
    y1="37.5"
    x2="45.833333333333336"
    y2="37.5"
    stroke="hsla(0,50%,50%,0.6)"
    stroke-width="1"
    transform="translate(-22.9995727539,-10.6808980305) scale(1,-1) translate(50,-110)"
    />
  
  <line
    x1="27.083333333333332"
    y1="47.916666666666664"
    x2="25"
    y2="50"
    stroke="hsla(0,50%,50%,0.6)"
    stroke-width="1"
    transform="translate(-22.9995727539,-10.6808980305) scale(1,-1) translate(50,-110)"
    />
  
  <line
    x1="16.666666666666668"
    y1="41.666666666666664"
    x2="29.166666666666668"
    y2="41.666666666666664"
    stroke="hsla(0,50%,50%,0.6)"
    stroke-width="1"
    transform="translate(-22.9995727539,-10.6808980305) scale(1,-1) translate(50,-110)"
    />
  
  <line
    x1="54.166666666666664"
    y1="33.333333333333336"
    x2="37.5"
    y2="50"
    stroke="hsla(0,50%,50%,0.6)"
    stroke-width="1"
    transform="translate(-22.9995727539,-10.6808980305) scale(1,-1) translate(50,-110)"
    />
  
  <line
    x1="12.5"
    y1="45.833333333333336"
    x2="25"
    y2="45.833333333333336"
    stroke="hsla(0,50%,50%,0.6)"
    stroke-width="1"
    transform="translate(-22.9995727539,-10.6808980305) scale(1,-1) translate(50,-110)"
    />
  
  <line
    x1="16.666666666666668"
    y1="50"
    x2="45.833333333333336"
    y2="50"
    stroke="hsla(0,50%,50%,0.6)"
    stroke-width="1"
    transform="translate(-22.9995727539,-10.6808980305) scale(1,-1) translate(50,-110)"
    />
  
</svg>
