<?xml version="1.0"?>
<!DOCTYPE svg PUBLIC "-//W3C//DTD SVG 1.1//EN"
  "http://www.w3.org/Graphics/SVG/1.1/DTD/svg11.dtd">
<svg
  width="240"
  height="240"
  viewBox="-500 -500 1000 1000" xmlns="http://www.w3.org/2000/svg" version="1.1">
  <rect
    x="0"
    y="0"
    width="100"
    height="100"
    fill="hsla(206,100%,53%,0.3)"
    stroke="hsl(206,100%,53%)"
    stroke-width="3"
    transform="" />
  
  <path
    d="M 
      12.5
      0
      L
    
      41.6666666666
      0
      L
    
      41.6666666666
      20.8333333333
      L
    
      45.8333333333
      25
      L
    
      41.6666666666
      29.1666666666
      L
    
      41.6666666666
      41.6666666666
      L
    
      37.5
      41.6666666666
      L
    
      33.3333333333
      45.8333333333
      L
    
      29.1666666666
      45.8333333333
      L
    
      29.1666666666
      41.6666666666
      L
    
      20.8333333333
      50
      L
    
      20.8333333333
      66.6666666666
      L
    
      16.6666666666
      66.6666666666
      L
    
      0
      50
      L
    
      0
      20.8333333333
      L
    
      12.5
      8.3333333333
      z
    "
    fill="hsla(0,0%,50%,0.3)"
    stroke="hsla(0,0%,50%,1)"
    stroke-width="1"
    transform="translate(-22.9166666666,-33.3333333333)"
    />
  
  
  <line
    x1="20.833333333333332"
    y1="0"
    x2="45.833333333333336"
    y2="25"
    stroke="hsla(0,50%,50%,0.6)"
    stroke-width="1"
    transform="translate(-22.9166666666,-33.3333333333)"
    />
  
  <line
    x1="37.5"
    y1="25"
    x2="41.666666666666664"
    y2="29.166666666666668"
    stroke="hsla(0,50%,50%,0.6)"
    stroke-width="1"
    transform="translate(-22.9166666666,-33.3333333333)"
    />
  
  <line
    x1="12.5"
    y1="0"
    x2="41.666666666666664"
    y2="0"
    stroke="hsla(0,50%,50%,0.6)"
    stroke-width="1"
    transform="translate(-22.9166666666,-33.3333333333)"
    />
  
  <line
    x1="25"
    y1="25"
    x2="29.166666666666668"
    y2="29.166666666666668"
    stroke="hsla(0,50%,50%,0.6)"
    stroke-width="1"
    transform="translate(-22.9166666666,-33.3333333333)"
    />
  
  <line
    x1="0"
    y1="20.833333333333332"
    x2="0"
    y2="50"
    stroke="hsla(0,50%,50%,0.6)"
    stroke-width="1"
    transform="translate(-22.9166666666,-33.3333333333)"
    />
  
  <line
    x1="12.5"
    y1="0"
    x2="12.5"
    y2="41.666666666666664"
    stroke="hsla(0,50%,50%,0.6)"
    stroke-width="1"
    transform="translate(-22.9166666666,-33.3333333333)"
    />
  
  <line
    x1="16.666666666666668"
    y1="0"
    x2="16.666666666666668"
    y2="66.66666666666667"
    stroke="hsla(0,50%,50%,0.6)"
    stroke-width="1"
    transform="translate(-22.9166666666,-33.3333333333)"
    />
  
  <line
    x1="20.833333333333332"
    y1="0"
    x2="20.833333333333332"
    y2="66.66666666666667"
    stroke="hsla(0,50%,50%,0.6)"
    stroke-width="1"
    transform="translate(-22.9166666666,-33.3333333333)"
    />
  
  <line
    x1="25"
    y1="25"
    x2="25"
    y2="29.166666666666668"
    stroke="hsla(0,50%,50%,0.6)"
    stroke-width="1"
    transform="translate(-22.9166666666,-33.3333333333)"
    />
  
  <line
    x1="29.166666666666668"
    y1="37.5"
    x2="29.166666666666668"
    y2="45.833333333333336"
    stroke="hsla(0,50%,50%,0.6)"
    stroke-width="1"
    transform="translate(-22.9166666666,-33.3333333333)"
    />
  
  <line
    x1="33.333333333333336"
    y1="29.166666666666668"
    x2="33.333333333333336"
    y2="45.833333333333336"
    stroke="hsla(0,50%,50%,0.6)"
    stroke-width="1"
    transform="translate(-22.9166666666,-33.3333333333)"
    />
  
  <line
    x1="37.5"
    y1="0"
    x2="37.5"
    y2="41.666666666666664"
    stroke="hsla(0,50%,50%,0.6)"
    stroke-width="1"
    transform="translate(-22.9166666666,-33.3333333333)"
    />
  
  <line
    x1="41.666666666666664"
    y1="0"
    x2="41.666666666666664"
    y2="41.666666666666664"
    stroke="hsla(0,50%,50%,0.6)"
    stroke-width="1"
    transform="translate(-22.9166666666,-33.3333333333)"
    />
  
  <line
    x1="16.666666666666668"
    y1="25"
    x2="35.416666666666664"
    y2="43.75"
    stroke="hsla(0,50%,50%,0.6)"
    stroke-width="1"
    transform="translate(-22.9166666666,-33.3333333333)"
    />
  
  <line
    x1="0"
    y1="20.833333333333332"
    x2="20.833333333333332"
    y2="41.666666666666664"
    stroke="hsla(0,50%,50%,0.6)"
    stroke-width="1"
    transform="translate(-22.9166666666,-33.3333333333)"
    />
  
  <line
    x1="20.833333333333332"
    y1="0"
    x2="0"
    y2="20.833333333333332"
    stroke="hsla(0,50%,50%,0.6)"
    stroke-width="1"
    transform="translate(-22.9166666666,-33.3333333333)"
    />
  
  <line
    x1="10.416666666666666"
    y1="39.583333333333336"
    x2="20.833333333333332"
    y2="50"
    stroke="hsla(0,50%,50%,0.6)"
    stroke-width="1"
    transform="translate(-22.9166666666,-33.3333333333)"
    />
  
  <line
    x1="0"
    y1="50"
    x2="16.666666666666668"
    y2="66.66666666666667"
    stroke="hsla(0,50%,50%,0.6)"
    stroke-width="1"
    transform="translate(-22.9166666666,-33.3333333333)"
    />
  
  <line
    x1="16.666666666666668"
    y1="25"
    x2="41.666666666666664"
    y2="25"
    stroke="hsla(0,50%,50%,0.6)"
    stroke-width="1"
    transform="translate(-22.9166666666,-33.3333333333)"
    />
  
  <line
    x1="35.416666666666664"
    y1="14.583333333333334"
    x2="0"
    y2="50"
    stroke="hsla(0,50%,50%,0.6)"
    stroke-width="1"
    transform="translate(-22.9166666666,-33.3333333333)"
    />
  
  <line
    x1="20.833333333333332"
    y1="29.166666666666668"
    x2="41.666666666666664"
    y2="29.166666666666668"
    stroke="hsla(0,50%,50%,0.6)"
    stroke-width="1"
    transform="translate(-22.9166666666,-33.3333333333)"
    />
  
  <line
    x1="39.583333333333336"
    y1="18.75"
    x2="14.583333333333334"
    y2="43.75"
    stroke="hsla(0,50%,50%,0.6)"
    stroke-width="1"
    transform="translate(-22.9166666666,-33.3333333333)"
    />
  
  <line
    x1="37.5"
    y1="25"
    x2="33.333333333333336"
    y2="29.166666666666668"
    stroke="hsla(0,50%,50%,0.6)"
    stroke-width="1"
    transform="translate(-22.9166666666,-33.3333333333)"
    />
  
  <line
    x1="16.666666666666668"
    y1="33.333333333333336"
    x2="20.833333333333332"
    y2="33.333333333333336"
    stroke="hsla(0,50%,50%,0.6)"
    stroke-width="1"
    transform="translate(-22.9166666666,-33.3333333333)"
    />
  
  <line
    x1="45.833333333333336"
    y1="25"
    x2="20.833333333333332"
    y2="50"
    stroke="hsla(0,50%,50%,0.6)"
    stroke-width="1"
    transform="translate(-22.9166666666,-33.3333333333)"
    />
  
  <line
    x1="29.166666666666668"
    y1="37.5"
    x2="41.666666666666664"
    y2="37.5"
    stroke="hsla(0,50%,50%,0.6)"
    stroke-width="1"
    transform="translate(-22.9166666666,-33.3333333333)"
    />
  
  <line
    x1="33.333333333333336"
    y1="41.666666666666664"
    x2="29.166666666666668"
    y2="45.833333333333336"
    stroke="hsla(0,50%,50%,0.6)"
    stroke-width="1"
    transform="translate(-22.9166666666,-33.3333333333)"
    />
  
  <line
    x1="41.666666666666664"
    y1="37.5"
    x2="33.333333333333336"
    y2="45.833333333333336"
    stroke="hsla(0,50%,50%,0.6)"
    stroke-width="1"
    transform="translate(-22.9166666666,-33.3333333333)"
    />
  
  <line
    x1="0"
    y1="41.666666666666664"
    x2="41.666666666666664"
    y2="41.666666666666664"
    stroke="hsla(0,50%,50%,0.6)"
    stroke-width="1"
    transform="translate(-22.9166666666,-33.3333333333)"
    />
  
  <line
    x1="29.166666666666668"
    y1="45.833333333333336"
    x2="33.333333333333336"
    y2="45.833333333333336"
    stroke="hsla(0,50%,50%,0.6)"
    stroke-width="1"
    transform="translate(-22.9166666666,-33.3333333333)"
    />
  
  <line
    x1="0"
    y1="50"
    x2="20.833333333333332"
    y2="50"
    stroke="hsla(0,50%,50%,0.6)"
    stroke-width="1"
    transform="translate(-22.9166666666,-33.3333333333)"
    />
  
  <line
    x1="16.666666666666668"
    y1="66.66666666666667"
    x2="20.833333333333332"
    y2="66.66666666666667"
    stroke="hsla(0,50%,50%,0.6)"
    stroke-width="1"
    transform="translate(-22.9166666666,-33.3333333333)"
    />
  
</svg>
