<?xml version="1.0"?>
<!DOCTYPE svg PUBLIC "-//W3C//DTD SVG 1.1//EN"
  "http://www.w3.org/Graphics/SVG/1.1/DTD/svg11.dtd">
<svg
  width="240"
  height="240"
  viewBox="-500 -500 1000 1000" xmlns="http://www.w3.org/2000/svg" version="1.1">
  <rect
    x="0"
    y="0"
    width="100"
    height="100"
    fill="hsla(206,100%,53%,0.3)"
    stroke="hsl(206,100%,53%)"
    stroke-width="3"
    transform="" />
  
  <path
    d="M 
      6.25
      0
      L
    
      14.5833333333
      8.3333333333
      L
    
      35.4166666666
      8.3333333333
      L
    
      35.4166666666
      12.5
      L
    
      27.0833333333
      20.8333333333
      L
    
      35.4166666666
      29.1666666666
      L
    
      35.4166666666
      33.3333333333
      L
    
      27.0833333333
      41.6666666666
      L
    
      2.0833333333
      41.6666666666
      L
    
      2.0833333333
      16.6666666666
      L
    
      0
      14.5833333333
      L
    
      2.0833333333
      12.5
      L
    
      2.0833333333
      8.3333333333
      L
    
      6.25
      8.3333333333
      z
    "
    fill="hsla(0,0%,50%,0.3)"
    stroke="hsla(0,0%,50%,1)"
    stroke-width="1"
    transform="translate(-17.7083333333,-20.8333333333)"
    />
  
  
  <line
    x1="6.25"
    y1="0"
    x2="35.416666666666664"
    y2="29.166666666666668"
    stroke="hsla(0,50%,50%,0.6)"
    stroke-width="1"
    transform="translate(-17.7083333333,-20.8333333333)"
    />
  
  <line
    x1="2.0833333333333335"
    y1="8.333333333333334"
    x2="2.0833333333333335"
    y2="41.666666666666664"
    stroke="hsla(0,50%,50%,0.6)"
    stroke-width="1"
    transform="translate(-17.7083333333,-20.8333333333)"
    />
  
  <line
    x1="6.25"
    y1="0"
    x2="6.25"
    y2="29.166666666666668"
    stroke="hsla(0,50%,50%,0.6)"
    stroke-width="1"
    transform="translate(-17.7083333333,-20.8333333333)"
    />
  
  <line
    x1="10.416666666666666"
    y1="4.166666666666667"
    x2="10.416666666666666"
    y2="25"
    stroke="hsla(0,50%,50%,0.6)"
    stroke-width="1"
    transform="translate(-17.7083333333,-20.8333333333)"
    />
  
  <line
    x1="14.583333333333334"
    y1="8.333333333333334"
    x2="14.583333333333334"
    y2="33.333333333333336"
    stroke="hsla(0,50%,50%,0.6)"
    stroke-width="1"
    transform="translate(-17.7083333333,-20.8333333333)"
    />
  
  <line
    x1="18.75"
    y1="8.333333333333334"
    x2="18.75"
    y2="33.333333333333336"
    stroke="hsla(0,50%,50%,0.6)"
    stroke-width="1"
    transform="translate(-17.7083333333,-20.8333333333)"
    />
  
  <line
    x1="22.916666666666668"
    y1="8.333333333333334"
    x2="22.916666666666668"
    y2="25"
    stroke="hsla(0,50%,50%,0.6)"
    stroke-width="1"
    transform="translate(-17.7083333333,-20.8333333333)"
    />
  
  <line
    x1="27.083333333333332"
    y1="20.833333333333332"
    x2="27.083333333333332"
    y2="41.666666666666664"
    stroke="hsla(0,50%,50%,0.6)"
    stroke-width="1"
    transform="translate(-17.7083333333,-20.8333333333)"
    />
  
  <line
    x1="35.416666666666664"
    y1="8.333333333333334"
    x2="35.416666666666664"
    y2="12.5"
    stroke="hsla(0,50%,50%,0.6)"
    stroke-width="1"
    transform="translate(-17.7083333333,-20.8333333333)"
    />
  
  <line
    x1="35.416666666666664"
    y1="29.166666666666668"
    x2="35.416666666666664"
    y2="33.333333333333336"
    stroke="hsla(0,50%,50%,0.6)"
    stroke-width="1"
    transform="translate(-17.7083333333,-20.8333333333)"
    />
  
  <line
    x1="2.0833333333333335"
    y1="12.5"
    x2="18.75"
    y2="29.166666666666668"
    stroke="hsla(0,50%,50%,0.6)"
    stroke-width="1"
    transform="translate(-17.7083333333,-20.8333333333)"
    />
  
  <line
    x1="0"
    y1="14.583333333333334"
    x2="27.083333333333332"
    y2="41.666666666666664"
    stroke="hsla(0,50%,50%,0.6)"
    stroke-width="1"
    transform="translate(-17.7083333333,-20.8333333333)"
    />
  
  <line
    x1="10.416666666666666"
    y1="4.166666666666667"
    x2="0"
    y2="14.583333333333334"
    stroke="hsla(0,50%,50%,0.6)"
    stroke-width="1"
    transform="translate(-17.7083333333,-20.8333333333)"
    />
  
  <line
    x1="2.0833333333333335"
    y1="8.333333333333334"
    x2="35.416666666666664"
    y2="8.333333333333334"
    stroke="hsla(0,50%,50%,0.6)"
    stroke-width="1"
    transform="translate(-17.7083333333,-20.8333333333)"
    />
  
  <line
    x1="14.583333333333334"
    y1="8.333333333333334"
    x2="6.25"
    y2="16.666666666666668"
    stroke="hsla(0,50%,50%,0.6)"
    stroke-width="1"
    transform="translate(-17.7083333333,-20.8333333333)"
    />
  
  <line
    x1="2.0833333333333335"
    y1="12.5"
    x2="35.416666666666664"
    y2="12.5"
    stroke="hsla(0,50%,50%,0.6)"
    stroke-width="1"
    transform="translate(-17.7083333333,-20.8333333333)"
    />
  
  <line
    x1="16.666666666666668"
    y1="10.416666666666666"
    x2="6.25"
    y2="20.833333333333332"
    stroke="hsla(0,50%,50%,0.6)"
    stroke-width="1"
    transform="translate(-17.7083333333,-20.8333333333)"
    />
  
  <line
    x1="2.0833333333333335"
    y1="16.666666666666668"
    x2="22.916666666666668"
    y2="16.666666666666668"
    stroke="hsla(0,50%,50%,0.6)"
    stroke-width="1"
    transform="translate(-17.7083333333,-20.8333333333)"
    />
  
  <line
    x1="22.916666666666668"
    y1="16.666666666666668"
    x2="14.583333333333334"
    y2="25"
    stroke="hsla(0,50%,50%,0.6)"
    stroke-width="1"
    transform="translate(-17.7083333333,-20.8333333333)"
    />
  
  <line
    x1="6.25"
    y1="20.833333333333332"
    x2="27.083333333333332"
    y2="20.833333333333332"
    stroke="hsla(0,50%,50%,0.6)"
    stroke-width="1"
    transform="translate(-17.7083333333,-20.8333333333)"
    />
  
  <line
    x1="35.416666666666664"
    y1="12.5"
    x2="14.583333333333334"
    y2="33.333333333333336"
    stroke="hsla(0,50%,50%,0.6)"
    stroke-width="1"
    transform="translate(-17.7083333333,-20.8333333333)"
    />
  
  <line
    x1="10.416666666666666"
    y1="25"
    x2="22.916666666666668"
    y2="25"
    stroke="hsla(0,50%,50%,0.6)"
    stroke-width="1"
    transform="translate(-17.7083333333,-20.8333333333)"
    />
  
  <line
    x1="6.25"
    y1="29.166666666666668"
    x2="35.416666666666664"
    y2="29.166666666666668"
    stroke="hsla(0,50%,50%,0.6)"
    stroke-width="1"
    transform="translate(-17.7083333333,-20.8333333333)"
    />
  
  <line
    x1="2.0833333333333335"
    y1="33.333333333333336"
    x2="35.416666666666664"
    y2="33.333333333333336"
    stroke="hsla(0,50%,50%,0.6)"
    stroke-width="1"
    transform="translate(-17.7083333333,-20.8333333333)"
    />
  
  <line
    x1="35.416666666666664"
    y1="33.333333333333336"
    x2="27.083333333333332"
    y2="41.666666666666664"
    stroke="hsla(0,50%,50%,0.6)"
    stroke-width="1"
    transform="translate(-17.7083333333,-20.8333333333)"
    />
  
  <line
    x1="2.0833333333333335"
    y1="41.666666666666664"
    x2="27.083333333333332"
    y2="41.666666666666664"
    stroke="hsla(0,50%,50%,0.6)"
    stroke-width="1"
    transform="translate(-17.7083333333,-20.8333333333)"
    />
  
</svg>
