<?xml version="1.0"?>
<!DOCTYPE svg PUBLIC "-//W3C//DTD SVG 1.1//EN"
  "http://www.w3.org/Graphics/SVG/1.1/DTD/svg11.dtd">
<svg
  width="240"
  height="240"
  viewBox="-50 -50 200 200" xmlns="http://www.w3.org/2000/svg" version="1.1">
  <rect
    x="0"
    y="0"
    width="100"
    height="100"
    fill="hsla(206,100%,53%,0.3)"
    stroke="hsl(206,100%,53%)"
    stroke-width="3"
    transform="" />
  
  <path
    d="M 
      20.8333333333
      0
      L
    
      29.1666666666
      0
      L
    
      29.1666666666
      8.3333333333
      L
    
      33.3333333333
      8.3333333333
      L
    
      33.3333333333
      33.3333333333
      L
    
      29.1666666666
      33.3333333333
      L
    
      25
      29.1666666666
      L
    
      20.8333333333
      33.3333333333
      L
    
      18.75
      31.25
      L
    
      16.6666666666
      33.3333333333
      L
    
      4.1666666666
      33.3333333333
      L
    
      4.1666666666
      16.6666666666
      L
    
      0
      12.5
      L
    
      0
      8.3333333333
      L
    
      12.5
      8.3333333333
      z
    "
    fill="hsla(0,0%,50%,0.3)"
    stroke="hsla(0,0%,50%,1)"
    stroke-width="1"
    transform="translate(-7.2372436523,-10.8998616536) scale(1,-1) translate(50,-110)"
    />
  
  
  <line
    x1="29.166666666666668"
    y1="12.5"
    x2="33.333333333333336"
    y2="16.666666666666668"
    stroke="hsla(0,50%,50%,0.6)"
    stroke-width="1"
    transform="translate(-7.2372436523,-10.8998616536) scale(1,-1) translate(50,-110)"
    />
  
  <line
    x1="16.666666666666668"
    y1="4.166666666666667"
    x2="33.333333333333336"
    y2="20.833333333333332"
    stroke="hsla(0,50%,50%,0.6)"
    stroke-width="1"
    transform="translate(-7.2372436523,-10.8998616536) scale(1,-1) translate(50,-110)"
    />
  
  <line
    x1="16.666666666666668"
    y1="8.333333333333334"
    x2="31.25"
    y2="22.916666666666668"
    stroke="hsla(0,50%,50%,0.6)"
    stroke-width="1"
    transform="translate(-7.2372436523,-10.8998616536) scale(1,-1) translate(50,-110)"
    />
  
  <line
    x1="20.833333333333332"
    y1="16.666666666666668"
    x2="29.166666666666668"
    y2="25"
    stroke="hsla(0,50%,50%,0.6)"
    stroke-width="1"
    transform="translate(-7.2372436523,-10.8998616536) scale(1,-1) translate(50,-110)"
    />
  
  <line
    x1="20.833333333333332"
    y1="0"
    x2="29.166666666666668"
    y2="0"
    stroke="hsla(0,50%,50%,0.6)"
    stroke-width="1"
    transform="translate(-7.2372436523,-10.8998616536) scale(1,-1) translate(50,-110)"
    />
  
  <line
    x1="0"
    y1="8.333333333333334"
    x2="0"
    y2="12.5"
    stroke="hsla(0,50%,50%,0.6)"
    stroke-width="1"
    transform="translate(-7.2372436523,-10.8998616536) scale(1,-1) translate(50,-110)"
    />
  
  <line
    x1="4.166666666666667"
    y1="12.5"
    x2="4.166666666666667"
    y2="33.333333333333336"
    stroke="hsla(0,50%,50%,0.6)"
    stroke-width="1"
    transform="translate(-7.2372436523,-10.8998616536) scale(1,-1) translate(50,-110)"
    />
  
  <line
    x1="8.333333333333334"
    y1="12.5"
    x2="8.333333333333334"
    y2="20.833333333333332"
    stroke="hsla(0,50%,50%,0.6)"
    stroke-width="1"
    transform="translate(-7.2372436523,-10.8998616536) scale(1,-1) translate(50,-110)"
    />
  
  <line
    x1="16.666666666666668"
    y1="4.166666666666667"
    x2="16.666666666666668"
    y2="33.333333333333336"
    stroke="hsla(0,50%,50%,0.6)"
    stroke-width="1"
    transform="translate(-7.2372436523,-10.8998616536) scale(1,-1) translate(50,-110)"
    />
  
  <line
    x1="20.833333333333332"
    y1="0"
    x2="20.833333333333332"
    y2="33.333333333333336"
    stroke="hsla(0,50%,50%,0.6)"
    stroke-width="1"
    transform="translate(-7.2372436523,-10.8998616536) scale(1,-1) translate(50,-110)"
    />
  
  <line
    x1="25"
    y1="12.5"
    x2="25"
    y2="29.166666666666668"
    stroke="hsla(0,50%,50%,0.6)"
    stroke-width="1"
    transform="translate(-7.2372436523,-10.8998616536) scale(1,-1) translate(50,-110)"
    />
  
  <line
    x1="29.166666666666668"
    y1="0"
    x2="29.166666666666668"
    y2="33.333333333333336"
    stroke="hsla(0,50%,50%,0.6)"
    stroke-width="1"
    transform="translate(-7.2372436523,-10.8998616536) scale(1,-1) translate(50,-110)"
    />
  
  <line
    x1="33.333333333333336"
    y1="8.333333333333334"
    x2="33.333333333333336"
    y2="33.333333333333336"
    stroke="hsla(0,50%,50%,0.6)"
    stroke-width="1"
    transform="translate(-7.2372436523,-10.8998616536) scale(1,-1) translate(50,-110)"
    />
  
  <line
    x1="8.333333333333334"
    y1="12.5"
    x2="29.166666666666668"
    y2="33.333333333333336"
    stroke="hsla(0,50%,50%,0.6)"
    stroke-width="1"
    transform="translate(-7.2372436523,-10.8998616536) scale(1,-1) translate(50,-110)"
    />
  
  <line
    x1="16.666666666666668"
    y1="4.166666666666667"
    x2="29.166666666666668"
    y2="4.166666666666667"
    stroke="hsla(0,50%,50%,0.6)"
    stroke-width="1"
    transform="translate(-7.2372436523,-10.8998616536) scale(1,-1) translate(50,-110)"
    />
  
  <line
    x1="0"
    y1="12.5"
    x2="20.833333333333332"
    y2="33.333333333333336"
    stroke="hsla(0,50%,50%,0.6)"
    stroke-width="1"
    transform="translate(-7.2372436523,-10.8998616536) scale(1,-1) translate(50,-110)"
    />
  
  <line
    x1="0"
    y1="8.333333333333334"
    x2="33.333333333333336"
    y2="8.333333333333334"
    stroke="hsla(0,50%,50%,0.6)"
    stroke-width="1"
    transform="translate(-7.2372436523,-10.8998616536) scale(1,-1) translate(50,-110)"
    />
  
  <line
    x1="20.833333333333332"
    y1="0"
    x2="8.333333333333334"
    y2="12.5"
    stroke="hsla(0,50%,50%,0.6)"
    stroke-width="1"
    transform="translate(-7.2372436523,-10.8998616536) scale(1,-1) translate(50,-110)"
    />
  
  <line
    x1="0"
    y1="12.5"
    x2="33.333333333333336"
    y2="12.5"
    stroke="hsla(0,50%,50%,0.6)"
    stroke-width="1"
    transform="translate(-7.2372436523,-10.8998616536) scale(1,-1) translate(50,-110)"
    />
  
  <line
    x1="20.833333333333332"
    y1="8.333333333333334"
    x2="12.5"
    y2="16.666666666666668"
    stroke="hsla(0,50%,50%,0.6)"
    stroke-width="1"
    transform="translate(-7.2372436523,-10.8998616536) scale(1,-1) translate(50,-110)"
    />
  
  <line
    x1="4.166666666666667"
    y1="16.666666666666668"
    x2="29.166666666666668"
    y2="16.666666666666668"
    stroke="hsla(0,50%,50%,0.6)"
    stroke-width="1"
    transform="translate(-7.2372436523,-10.8998616536) scale(1,-1) translate(50,-110)"
    />
  
  <line
    x1="8.333333333333334"
    y1="20.833333333333332"
    x2="33.333333333333336"
    y2="20.833333333333332"
    stroke="hsla(0,50%,50%,0.6)"
    stroke-width="1"
    transform="translate(-7.2372436523,-10.8998616536) scale(1,-1) translate(50,-110)"
    />
  
  <line
    x1="33.333333333333336"
    y1="8.333333333333334"
    x2="14.583333333333334"
    y2="27.083333333333332"
    stroke="hsla(0,50%,50%,0.6)"
    stroke-width="1"
    transform="translate(-7.2372436523,-10.8998616536) scale(1,-1) translate(50,-110)"
    />
  
  <line
    x1="29.166666666666668"
    y1="16.666666666666668"
    x2="20.833333333333332"
    y2="25"
    stroke="hsla(0,50%,50%,0.6)"
    stroke-width="1"
    transform="translate(-7.2372436523,-10.8998616536) scale(1,-1) translate(50,-110)"
    />
  
  <line
    x1="16.666666666666668"
    y1="25"
    x2="29.166666666666668"
    y2="25"
    stroke="hsla(0,50%,50%,0.6)"
    stroke-width="1"
    transform="translate(-7.2372436523,-10.8998616536) scale(1,-1) translate(50,-110)"
    />
  
  <line
    x1="33.333333333333336"
    y1="16.666666666666668"
    x2="16.666666666666668"
    y2="33.333333333333336"
    stroke="hsla(0,50%,50%,0.6)"
    stroke-width="1"
    transform="translate(-7.2372436523,-10.8998616536) scale(1,-1) translate(50,-110)"
    />
  
  <line
    x1="33.333333333333336"
    y1="20.833333333333332"
    x2="20.833333333333332"
    y2="33.333333333333336"
    stroke="hsla(0,50%,50%,0.6)"
    stroke-width="1"
    transform="translate(-7.2372436523,-10.8998616536) scale(1,-1) translate(50,-110)"
    />
  
  <line
    x1="20.833333333333332"
    y1="29.166666666666668"
    x2="29.166666666666668"
    y2="29.166666666666668"
    stroke="hsla(0,50%,50%,0.6)"
    stroke-width="1"
    transform="translate(-7.2372436523,-10.8998616536) scale(1,-1) translate(50,-110)"
    />
  
  <line
    x1="4.166666666666667"
    y1="33.333333333333336"
    x2="16.666666666666668"
    y2="33.333333333333336"
    stroke="hsla(0,50%,50%,0.6)"
    stroke-width="1"
    transform="translate(-7.2372436523,-10.8998616536) scale(1,-1) translate(50,-110)"
    />
  
  <line
    x1="29.166666666666668"
    y1="33.333333333333336"
    x2="33.333333333333336"
    y2="33.333333333333336"
    stroke="hsla(0,50%,50%,0.6)"
    stroke-width="1"
    transform="translate(-7.2372436523,-10.8998616536) scale(1,-1) translate(50,-110)"
    />
  
</svg>
