<?xml version="1.0"?>
<!DOCTYPE svg PUBLIC "-//W3C//DTD SVG 1.1//EN"
  "http://www.w3.org/Graphics/SVG/1.1/DTD/svg11.dtd">
<svg
  width="240"
  height="240"
  viewBox="-50 -50 200 200" xmlns="http://www.w3.org/2000/svg" version="1.1">
  <rect
    x="0"
    y="0"
    width="100"
    height="100"
    fill="hsla(206,100%,53%,0.3)"
    stroke="hsl(206,100%,53%)"
    stroke-width="3"
    transform="" />
  
  <path
    d="M 
      25
      0
      L
    
      50
      0
      L
    
      75
      25
      L
    
      50
      25
      L
    
      37.5
      12.5
      L
    
      12.5
      37.5
      L
    
      25
      50
      L
    
      25
      75
      L
    
      0
      50
      L
    
      0
      25
      z
    "
    fill="hsla(0,0%,50%,0.3)"
    stroke="hsla(0,0%,50%,1)"
    stroke-width="1"
    transform="translate(-6.494140625,-39.16015625) scale(1,-1) translate(50,-110)"
    />
  
  
  <line
    x1="50"
    y1="0"
    x2="75"
    y2="25"
    stroke="hsla(0,50%,50%,0.6)"
    stroke-width="1"
    transform="translate(-6.494140625,-39.16015625) scale(1,-1) translate(50,-110)"
    />
  
  <line
    x1="25"
    y1="0"
    x2="50"
    y2="25"
    stroke="hsla(0,50%,50%,0.6)"
    stroke-width="1"
    transform="translate(-6.494140625,-39.16015625) scale(1,-1) translate(50,-110)"
    />
  
  <line
    x1="25"
    y1="0"
    x2="50"
    y2="0"
    stroke="hsla(0,50%,50%,0.6)"
    stroke-width="1"
    transform="translate(-6.494140625,-39.16015625) scale(1,-1) translate(50,-110)"
    />
  
  <line
    x1="0"
    y1="25"
    x2="0"
    y2="50"
    stroke="hsla(0,50%,50%,0.6)"
    stroke-width="1"
    transform="translate(-6.494140625,-39.16015625) scale(1,-1) translate(50,-110)"
    />
  
  <line
    x1="25"
    y1="0"
    x2="25"
    y2="25"
    stroke="hsla(0,50%,50%,0.6)"
    stroke-width="1"
    transform="translate(-6.494140625,-39.16015625) scale(1,-1) translate(50,-110)"
    />
  
  <line
    x1="25"
    y1="50"
    x2="25"
    y2="75"
    stroke="hsla(0,50%,50%,0.6)"
    stroke-width="1"
    transform="translate(-6.494140625,-39.16015625) scale(1,-1) translate(50,-110)"
    />
  
  <line
    x1="50"
    y1="0"
    x2="50"
    y2="25"
    stroke="hsla(0,50%,50%,0.6)"
    stroke-width="1"
    transform="translate(-6.494140625,-39.16015625) scale(1,-1) translate(50,-110)"
    />
  
  <line
    x1="0"
    y1="25"
    x2="25"
    y2="50"
    stroke="hsla(0,50%,50%,0.6)"
    stroke-width="1"
    transform="translate(-6.494140625,-39.16015625) scale(1,-1) translate(50,-110)"
    />
  
  <line
    x1="25"
    y1="0"
    x2="0"
    y2="25"
    stroke="hsla(0,50%,50%,0.6)"
    stroke-width="1"
    transform="translate(-6.494140625,-39.16015625) scale(1,-1) translate(50,-110)"
    />
  
  <line
    x1="0"
    y1="50"
    x2="25"
    y2="75"
    stroke="hsla(0,50%,50%,0.6)"
    stroke-width="1"
    transform="translate(-6.494140625,-39.16015625) scale(1,-1) translate(50,-110)"
    />
  
  <line
    x1="0"
    y1="25"
    x2="25"
    y2="25"
    stroke="hsla(0,50%,50%,0.6)"
    stroke-width="1"
    transform="translate(-6.494140625,-39.16015625) scale(1,-1) translate(50,-110)"
    />
  
  <line
    x1="50"
    y1="25"
    x2="75"
    y2="25"
    stroke="hsla(0,50%,50%,0.6)"
    stroke-width="1"
    transform="translate(-6.494140625,-39.16015625) scale(1,-1) translate(50,-110)"
    />
  
  <line
    x1="50"
    y1="0"
    x2="0"
    y2="50"
    stroke="hsla(0,50%,50%,0.6)"
    stroke-width="1"
    transform="translate(-6.494140625,-39.16015625) scale(1,-1) translate(50,-110)"
    />
  
  <line
    x1="0"
    y1="50"
    x2="25"
    y2="50"
    stroke="hsla(0,50%,50%,0.6)"
    stroke-width="1"
    transform="translate(-6.494140625,-39.16015625) scale(1,-1) translate(50,-110)"
    />
  
</svg>
