<?xml version="1.0"?>
<!DOCTYPE svg PUBLIC "-//W3C//DTD SVG 1.1//EN"
  "http://www.w3.org/Graphics/SVG/1.1/DTD/svg11.dtd">
<svg
  width="240"
  height="240"
  viewBox="-500 -500 1000 1000" xmlns="http://www.w3.org/2000/svg" version="1.1">
  <rect
    x="0"
    y="0"
    width="100"
    height="100"
    fill="hsla(206,100%,53%,0.3)"
    stroke="hsl(206,100%,53%)"
    stroke-width="3"
    transform="" />
  
  <path
    d="M 
      60.2941176470
      1.5625
      L
    
      98.4375
      27.6923076923
      L
    
      70.7692307692
      55.7522123893
      L
    
      37.6811594202
      66.1538461538
      L
    
      1.5625
      17.7215189873
      z
    "
    fill="hsla(0,0%,50%,0.3)"
    stroke="hsla(0,0%,50%,1)"
    stroke-width="1"
    transform="translate(-50,-33.8581730769)"
    />
  
  
  <line
    x1="93.96701023808401"
    y1="24.629835762356045"
    x2="94.76278038356904"
    y2="26.773126470080506"
    stroke="hsla(0,50%,50%,0.6)"
    stroke-width="1"
    transform="translate(-50,-33.8581730769)"
    />
  
  <line
    x1="60.294117647058826"
    y1="1.5625"
    x2="98.4375"
    y2="27.692307692307693"
    stroke="hsla(0,50%,50%,0.6)"
    stroke-width="1"
    transform="translate(-50,-33.8581730769)"
    />
  
  <line
    x1="60.294117647058826"
    y1="1.5625"
    x2="75.20062680919952"
    y2="40.044643477560626"
    stroke="hsla(0,50%,50%,0.6)"
    stroke-width="1"
    transform="translate(-50,-33.8581730769)"
    />
  
  <line
    x1="43.88315791921607"
    y1="15.955583831979316"
    x2="58.86570480357811"
    y2="34.774019309870724"
    stroke="hsla(0,50%,50%,0.6)"
    stroke-width="1"
    transform="translate(-50,-33.8581730769)"
    />
  
  <line
    x1="24.530683468025085"
    y1="25.605825800595483"
    x2="24.858951007598936"
    y2="48.960256945169824"
    stroke="hsla(0,50%,50%,0.6)"
    stroke-width="1"
    transform="translate(-50,-33.8581730769)"
    />
  
  <line
    x1="25.07919193519969"
    y1="30.926610636968643"
    x2="45.027514953809714"
    y2="55.27198107695908"
    stroke="hsla(0,50%,50%,0.6)"
    stroke-width="1"
    transform="translate(-50,-33.8581730769)"
    />
  
  <line
    x1="94.76278038356904"
    y1="26.773126470080506"
    x2="98.4375"
    y2="27.692307692307693"
    stroke="hsla(0,50%,50%,0.6)"
    stroke-width="1"
    transform="translate(-50,-33.8581730769)"
    />
  
  <line
    x1="25.07919193519969"
    y1="30.926610636968643"
    x2="23.372883121092446"
    y2="46.96755491175807"
    stroke="hsla(0,50%,50%,0.6)"
    stroke-width="1"
    transform="translate(-50,-33.8581730769)"
    />
  
  <line
    x1="1.5625"
    y1="17.72151898734177"
    x2="37.68115942028985"
    y2="66.15384615384616"
    stroke="hsla(0,50%,50%,0.6)"
    stroke-width="1"
    transform="translate(-50,-33.8581730769)"
    />
  
  <line
    x1="1.5625"
    y1="17.72151898734177"
    x2="12.512841764523051"
    y2="29.604444126944987"
    stroke="hsla(0,50%,50%,0.6)"
    stroke-width="1"
    transform="translate(-50,-33.8581730769)"
    />
  
  <line
    x1="1.5625"
    y1="17.72151898734177"
    x2="58.86570480357811"
    y2="34.774019309870724"
    stroke="hsla(0,50%,50%,0.6)"
    stroke-width="1"
    transform="translate(-50,-33.8581730769)"
    />
  
  <line
    x1="60.294117647058826"
    y1="1.5625"
    x2="1.5625"
    y2="17.72151898734177"
    stroke="hsla(0,50%,50%,0.6)"
    stroke-width="1"
    transform="translate(-50,-33.8581730769)"
    />
  
  <line
    x1="12.512841764523051"
    y1="29.604444126944987"
    x2="11.274959784807038"
    y2="30.74517594026409"
    stroke="hsla(0,50%,50%,0.6)"
    stroke-width="1"
    transform="translate(-50,-33.8581730769)"
    />
  
  <line
    x1="93.96701023808401"
    y1="24.629835762356045"
    x2="24.530683468025085"
    y2="25.605825800595483"
    stroke="hsla(0,50%,50%,0.6)"
    stroke-width="1"
    transform="translate(-50,-33.8581730769)"
    />
  
  <line
    x1="60.294117647058826"
    y1="1.5625"
    x2="11.274959784807038"
    y2="30.74517594026409"
    stroke="hsla(0,50%,50%,0.6)"
    stroke-width="1"
    transform="translate(-50,-33.8581730769)"
    />
  
  <line
    x1="43.88315791921607"
    y1="15.955583831979316"
    x2="25.07919193519969"
    y2="30.926610636968643"
    stroke="hsla(0,50%,50%,0.6)"
    stroke-width="1"
    transform="translate(-50,-33.8581730769)"
    />
  
  <line
    x1="95.77998432007318"
    y1="25.871798619115186"
    x2="93.09082111814203"
    y2="33.114667096846986"
    stroke="hsla(0,50%,50%,0.6)"
    stroke-width="1"
    transform="translate(-50,-33.8581730769)"
    />
  
  <line
    x1="24.858951007598936"
    y1="48.960256945169824"
    x2="45.027514953809714"
    y2="55.27198107695908"
    stroke="hsla(0,50%,50%,0.6)"
    stroke-width="1"
    transform="translate(-50,-33.8581730769)"
    />
  
  <line
    x1="58.86570480357811"
    y1="34.774019309870724"
    x2="37.68115942028985"
    y2="66.15384615384616"
    stroke="hsla(0,50%,50%,0.6)"
    stroke-width="1"
    transform="translate(-50,-33.8581730769)"
    />
  
  <line
    x1="23.372883121092446"
    y1="46.96755491175807"
    x2="70.76923076923077"
    y2="55.75221238938053"
    stroke="hsla(0,50%,50%,0.6)"
    stroke-width="1"
    transform="translate(-50,-33.8581730769)"
    />
  
  <line
    x1="93.09082111814203"
    y1="33.114667096846986"
    x2="75.20062680919952"
    y2="40.044643477560626"
    stroke="hsla(0,50%,50%,0.6)"
    stroke-width="1"
    transform="translate(-50,-33.8581730769)"
    />
  
  <line
    x1="95.77998432007318"
    y1="25.871798619115186"
    x2="94.76278038356904"
    y2="26.773126470080506"
    stroke="hsla(0,50%,50%,0.6)"
    stroke-width="1"
    transform="translate(-50,-33.8581730769)"
    />
  
  <line
    x1="98.4375"
    y1="27.692307692307693"
    x2="70.76923076923077"
    y2="55.75221238938053"
    stroke="hsla(0,50%,50%,0.6)"
    stroke-width="1"
    transform="translate(-50,-33.8581730769)"
    />
  
  <line
    x1="70.76923076923077"
    y1="55.75221238938053"
    x2="37.68115942028985"
    y2="66.15384615384616"
    stroke="hsla(0,50%,50%,0.6)"
    stroke-width="1"
    transform="translate(-50,-33.8581730769)"
    />
  
</svg>
