<?xml version="1.0"?>
<!DOCTYPE svg PUBLIC "-//W3C//DTD SVG 1.1//EN"
  "http://www.w3.org/Graphics/SVG/1.1/DTD/svg11.dtd">
<svg
  width="240"
  height="240"
  viewBox="-50 -50 200 200" xmlns="http://www.w3.org/2000/svg" version="1.1">
  <rect
    x="0"
    y="0"
    width="100"
    height="100"
    fill="hsla(206,100%,53%,0.3)"
    stroke="hsl(206,100%,53%)"
    stroke-width="3"
    transform="" />
  
  <path
    d="M 
      -0.5899208504
      25.8318638739
      L
    
      25.5257679731
      48.5993874637
      L
    
      25.4836072121
      60.2989986421
      L
    
      -0.3624523369
      85.3146627036
      L
    
      -15.2297922258
      84.7721470648
      L
    
      -14.2945828568
      59.1432535107
      L
    
      -0.4609975458
      59.5451847913
      L
    
      -0.4887979986
      52.2753929558
      L
    
      -22.5958801535
      55.3992488566
      L
    
      -26.0330036579
      31.6921846452
      L
    
      -25.8621847269
      31.6670852167
      L
    
      -26.1001120657
      29.9383638401
      L
    
      -25.9119962527
      29.9124730890
      L
    
      -26.0031921509
      29.2305707743
      z
    "
    fill="hsla(0,0%,50%,0.3)"
    stroke="hsla(0,0%,50%,1)"
    stroke-width="1"
    transform="translate(25.5644106093,-30.5756501829) scale(1,-1) translate(50,-110)"
    />
  
  
  <line
    x1="-14.294582856825912"
    y1="59.14325351076897"
    x2="-15.22979222585158"
    y2="84.77214706486474"
    stroke="hsla(0,50%,50%,0.6)"
    stroke-width="1"
    transform="translate(25.5644106093,-30.5756501829) scale(1,-1) translate(50,-110)"
    />
  
  <line
    x1="-14.20090505721991"
    y1="59.14597529525995"
    x2="-15.028130777302177"
    y2="84.47301010975833"
    stroke="hsla(0,50%,50%,0.6)"
    stroke-width="1"
    transform="translate(25.5644106093,-30.5756501829) scale(1,-1) translate(50,-110)"
    />
  
  <line
    x1="-14.20090505721991"
    y1="59.14597529525995"
    x2="-14.82435617730098"
    y2="83.64453942715086"
    stroke="hsla(0,50%,50%,0.6)"
    stroke-width="1"
    transform="translate(25.5644106093,-30.5756501829) scale(1,-1) translate(50,-110)"
    />
  
  <line
    x1="-14.294582856825912"
    y1="59.14325351076897"
    x2="-14.82435617730098"
    y2="83.64453942715086"
    stroke="hsla(0,50%,50%,0.6)"
    stroke-width="1"
    transform="translate(25.5644106093,-30.5756501829) scale(1,-1) translate(50,-110)"
    />
  
  <line
    x1="0"
    y1="26.346153846153847"
    x2="0"
    y2="84.96385542168674"
    stroke="hsla(0,50%,50%,0.6)"
    stroke-width="1"
    transform="translate(25.5644106093,-30.5756501829) scale(1,-1) translate(50,-110)"
    />
  
  <line
    x1="-0.5899208504718009"
    y1="25.83186387394766"
    x2="-0.3624523369162668"
    y2="85.31466270360168"
    stroke="hsla(0,50%,50%,0.6)"
    stroke-width="1"
    transform="translate(25.5644106093,-30.5756501829) scale(1,-1) translate(50,-110)"
    />
  
  <line
    x1="1.4928858436904304"
    y1="27.647644068858323"
    x2="0.9788318756250928"
    y2="84.01647195973635"
    stroke="hsla(0,50%,50%,0.6)"
    stroke-width="1"
    transform="translate(25.5644106093,-30.5756501829) scale(1,-1) translate(50,-110)"
    />
  
  <line
    x1="25.52576797310367"
    y1="48.599387463731404"
    x2="25.483607212100527"
    y2="60.298998642103506"
    stroke="hsla(0,50%,50%,0.6)"
    stroke-width="1"
    transform="translate(25.5644106093,-30.5756501829) scale(1,-1) translate(50,-110)"
    />
  
  <line
    x1="-26.003192150943008"
    y1="29.230570774347818"
    x2="-22.505173217334992"
    y2="55.38643145286031"
    stroke="hsla(0,50%,50%,0.6)"
    stroke-width="1"
    transform="translate(25.5644106093,-30.5756501829) scale(1,-1) translate(50,-110)"
    />
  
  <line
    x1="-26.100112065745236"
    y1="29.938363840119536"
    x2="-22.595880153594013"
    y2="55.39924885662652"
    stroke="hsla(0,50%,50%,0.6)"
    stroke-width="1"
    transform="translate(25.5644106093,-30.5756501829) scale(1,-1) translate(50,-110)"
    />
  
  <line
    x1="-26.033003657907106"
    y1="31.692184645293064"
    x2="-22.595880153594013"
    y2="55.39924885662652"
    stroke="hsla(0,50%,50%,0.6)"
    stroke-width="1"
    transform="translate(25.5644106093,-30.5756501829) scale(1,-1) translate(50,-110)"
    />
  
  <line
    x1="-26.033003657907106"
    y1="31.692184645293064"
    x2="-22.505173217334992"
    y2="55.38643145286031"
    stroke="hsla(0,50%,50%,0.6)"
    stroke-width="1"
    transform="translate(25.5644106093,-30.5756501829) scale(1,-1) translate(50,-110)"
    />
  
  <line
    x1="-0.5899208504718009"
    y1="25.83186387394766"
    x2="25.52576797310367"
    y2="48.599387463731404"
    stroke="hsla(0,50%,50%,0.6)"
    stroke-width="1"
    transform="translate(25.5644106093,-30.5756501829) scale(1,-1) translate(50,-110)"
    />
  
  <line
    x1="-0.5899208504718009"
    y1="25.83186387394766"
    x2="-26.003192150943008"
    y2="29.230570774347818"
    stroke="hsla(0,50%,50%,0.6)"
    stroke-width="1"
    transform="translate(25.5644106093,-30.5756501829) scale(1,-1) translate(50,-110)"
    />
  
  <line
    x1="0"
    y1="26.346153846153847"
    x2="-26.100112065745236"
    y2="29.938363840119536"
    stroke="hsla(0,50%,50%,0.6)"
    stroke-width="1"
    transform="translate(25.5644106093,-30.5756501829) scale(1,-1) translate(50,-110)"
    />
  
  <line
    x1="1.4928858436904304"
    y1="27.647644068858323"
    x2="-26.033003657907106"
    y2="31.692184645293064"
    stroke="hsla(0,50%,50%,0.6)"
    stroke-width="1"
    transform="translate(25.5644106093,-30.5756501829) scale(1,-1) translate(50,-110)"
    />
  
  <line
    x1="25.483607212100527"
    y1="60.298998642103506"
    x2="-0.3624523369162668"
    y2="85.31466270360168"
    stroke="hsla(0,50%,50%,0.6)"
    stroke-width="1"
    transform="translate(25.5644106093,-30.5756501829) scale(1,-1) translate(50,-110)"
    />
  
  <line
    x1="25.52576797310367"
    y1="48.599387463731404"
    x2="-22.595880153594013"
    y2="55.39924885662652"
    stroke="hsla(0,50%,50%,0.6)"
    stroke-width="1"
    transform="translate(25.5644106093,-30.5756501829) scale(1,-1) translate(50,-110)"
    />
  
  <line
    x1="-14.294582856825912"
    y1="59.14325351076897"
    x2="25.483607212100527"
    y2="60.298998642103506"
    stroke="hsla(0,50%,50%,0.6)"
    stroke-width="1"
    transform="translate(25.5644106093,-30.5756501829) scale(1,-1) translate(50,-110)"
    />
  
  <line
    x1="-14.82435617730098"
    y1="83.64453942715086"
    x2="0.9788318756250928"
    y2="84.01647195973635"
    stroke="hsla(0,50%,50%,0.6)"
    stroke-width="1"
    transform="translate(25.5644106093,-30.5756501829) scale(1,-1) translate(50,-110)"
    />
  
  <line
    x1="-15.028130777302177"
    y1="84.47301010975833"
    x2="0"
    y2="84.96385542168674"
    stroke="hsla(0,50%,50%,0.6)"
    stroke-width="1"
    transform="translate(25.5644106093,-30.5756501829) scale(1,-1) translate(50,-110)"
    />
  
  <line
    x1="-15.22979222585158"
    y1="84.77214706486474"
    x2="-0.3624523369162668"
    y2="85.31466270360168"
    stroke="hsla(0,50%,50%,0.6)"
    stroke-width="1"
    transform="translate(25.5644106093,-30.5756501829) scale(1,-1) translate(50,-110)"
    />
  
</svg>
