<?xml version="1.0"?>
<!DOCTYPE svg PUBLIC "-//W3C//DTD SVG 1.1//EN"
  "http://www.w3.org/Graphics/SVG/1.1/DTD/svg11.dtd">
<svg
  width="240"
  height="240"
  viewBox="-50 -50 200 200" xmlns="http://www.w3.org/2000/svg" version="1.1">
  <rect
    x="0"
    y="0"
    width="100"
    height="100"
    fill="hsla(206,100%,53%,0.3)"
    stroke="hsl(206,100%,53%)"
    stroke-width="3"
    transform="" />
  
  <path
    d="M 
      41.1764705882
      0
      L
    
      100
      0
      L
    
      100
      6.25
      L
    
      41.1764705882
      6.25
      z
    "
    fill="hsla(0,0%,50%,0.3)"
    stroke="hsla(0,0%,50%,1)"
    stroke-width="1"
    transform="translate(-63.2352941176,-4.6875) scale(1,-1) translate(50,-110)"
    />
  
  
  <line
    x1="41.1764705882353"
    y1="0"
    x2="100"
    y2="0"
    stroke="hsla(0,50%,50%,0.6)"
    stroke-width="1"
    transform="translate(-63.2352941176,-4.6875) scale(1,-1) translate(50,-110)"
    />
  
  <line
    x1="41.1764705882353"
    y1="0"
    x2="41.1764705882353"
    y2="6.25"
    stroke="hsla(0,50%,50%,0.6)"
    stroke-width="1"
    transform="translate(-63.2352941176,-4.6875) scale(1,-1) translate(50,-110)"
    />
  
  <line
    x1="82.3529411764706"
    y1="0"
    x2="82.3529411764706"
    y2="6.25"
    stroke="hsla(0,50%,50%,0.6)"
    stroke-width="1"
    transform="translate(-63.2352941176,-4.6875) scale(1,-1) translate(50,-110)"
    />
  
  <line
    x1="100"
    y1="0"
    x2="100"
    y2="6.25"
    stroke="hsla(0,50%,50%,0.6)"
    stroke-width="1"
    transform="translate(-63.2352941176,-4.6875) scale(1,-1) translate(50,-110)"
    />
  
  <line
    x1="41.1764705882353"
    y1="6.25"
    x2="100"
    y2="6.25"
    stroke="hsla(0,50%,50%,0.6)"
    stroke-width="1"
    transform="translate(-63.2352941176,-4.6875) scale(1,-1) translate(50,-110)"
    />
  
</svg>
