<?xml version="1.0"?>
<!DOCTYPE svg PUBLIC "-//W3C//DTD SVG 1.1//EN"
  "http://www.w3.org/Graphics/SVG/1.1/DTD/svg11.dtd">
<svg
  width="240"
  height="240"
  viewBox="-50 -50 200 200" xmlns="http://www.w3.org/2000/svg" version="1.1">
  <rect
    x="0"
    y="0"
    width="100"
    height="100"
    fill="hsla(206,100%,53%,0.3)"
    stroke="hsl(206,100%,53%)"
    stroke-width="3"
    transform="" />
  
  <path
    d="M 
      0
      0
      L
    
      12.5
      0
      L
    
      25
      12.5
      L
    
      87.5
      12.5
      L
    
      87.5
      75
      L
    
      100
      87.5
      L
    
      100
      100
      L
    
      87.5
      100
      L
    
      75
      87.5
      L
    
      12.5
      87.5
      L
    
      12.5
      25
      L
    
      0
      12.5
      z
    "
    fill="hsla(0,0%,50%,0.3)"
    stroke="hsla(0,0%,50%,1)"
    stroke-width="1"
    transform="translate(-14.9963378906,-34.6069335937) scale(1,-1) translate(50,-110)"
    />
  
  
  <line
    x1="12.5"
    y1="0"
    x2="100"
    y2="87.5"
    stroke="hsla(0,50%,50%,0.6)"
    stroke-width="1"
    transform="translate(-14.9963378906,-34.6069335937) scale(1,-1) translate(50,-110)"
    />
  
  <line
    x1="0"
    y1="0"
    x2="12.5"
    y2="0"
    stroke="hsla(0,50%,50%,0.6)"
    stroke-width="1"
    transform="translate(-14.9963378906,-34.6069335937) scale(1,-1) translate(50,-110)"
    />
  
  <line
    x1="0"
    y1="0"
    x2="0"
    y2="12.5"
    stroke="hsla(0,50%,50%,0.6)"
    stroke-width="1"
    transform="translate(-14.9963378906,-34.6069335937) scale(1,-1) translate(50,-110)"
    />
  
  <line
    x1="12.5"
    y1="0"
    x2="12.5"
    y2="87.5"
    stroke="hsla(0,50%,50%,0.6)"
    stroke-width="1"
    transform="translate(-14.9963378906,-34.6069335937) scale(1,-1) translate(50,-110)"
    />
  
  <line
    x1="87.5"
    y1="12.5"
    x2="87.5"
    y2="100"
    stroke="hsla(0,50%,50%,0.6)"
    stroke-width="1"
    transform="translate(-14.9963378906,-34.6069335937) scale(1,-1) translate(50,-110)"
    />
  
  <line
    x1="100"
    y1="87.5"
    x2="100"
    y2="100"
    stroke="hsla(0,50%,50%,0.6)"
    stroke-width="1"
    transform="translate(-14.9963378906,-34.6069335937) scale(1,-1) translate(50,-110)"
    />
  
  <line
    x1="0"
    y1="12.5"
    x2="87.5"
    y2="100"
    stroke="hsla(0,50%,50%,0.6)"
    stroke-width="1"
    transform="translate(-14.9963378906,-34.6069335937) scale(1,-1) translate(50,-110)"
    />
  
  <line
    x1="0"
    y1="12.5"
    x2="87.5"
    y2="12.5"
    stroke="hsla(0,50%,50%,0.6)"
    stroke-width="1"
    transform="translate(-14.9963378906,-34.6069335937) scale(1,-1) translate(50,-110)"
    />
  
  <line
    x1="12.5"
    y1="87.5"
    x2="100"
    y2="87.5"
    stroke="hsla(0,50%,50%,0.6)"
    stroke-width="1"
    transform="translate(-14.9963378906,-34.6069335937) scale(1,-1) translate(50,-110)"
    />
  
  <line
    x1="87.5"
    y1="100"
    x2="100"
    y2="100"
    stroke="hsla(0,50%,50%,0.6)"
    stroke-width="1"
    transform="translate(-14.9963378906,-34.6069335937) scale(1,-1) translate(50,-110)"
    />
  
</svg>
