<?xml version="1.0"?>
<!DOCTYPE svg PUBLIC "-//W3C//DTD SVG 1.1//EN"
  "http://www.w3.org/Graphics/SVG/1.1/DTD/svg11.dtd">
<svg
  width="240"
  height="240"
  viewBox="-50 -50 200 200" xmlns="http://www.w3.org/2000/svg" version="1.1">
  <rect
    x="0"
    y="0"
    width="100"
    height="100"
    fill="hsla(206,100%,53%,0.3)"
    stroke="hsl(206,100%,53%)"
    stroke-width="3"
    transform="" />
  
  <path
    d="M 
      0.1542762958
      139.4358046690
      L
    
      91.8378337225
      179.3623033582
      L
    
      83.8525339847
      197.6990148435
      L
    
      -7.8310234419
      157.7725161543
      z
    "
    fill="hsla(0,0%,50%,0.3)"
    stroke="hsla(0,0%,50%,1)"
    stroke-width="1"
    transform="translate(-28.5466355274,-168.1607752914) scale(1,-1) translate(50,-110)"
    />
  
  
  <line
    x1="0.15427629584291264"
    y1="139.43580466903177"
    x2="-7.831023441992339"
    y2="157.77251615438072"
    stroke="hsla(0,50%,50%,0.6)"
    stroke-width="1"
    transform="translate(-28.5466355274,-168.1607752914) scale(1,-1) translate(50,-110)"
    />
  
  <line
    x1="91.83783372258769"
    y1="179.36230335820804"
    x2="83.85253398475244"
    y2="197.699014843557"
    stroke="hsla(0,50%,50%,0.6)"
    stroke-width="1"
    transform="translate(-28.5466355274,-168.1607752914) scale(1,-1) translate(50,-110)"
    />
  
  <line
    x1="0.15427629584291264"
    y1="139.43580466903177"
    x2="91.83783372258769"
    y2="179.36230335820804"
    stroke="hsla(0,50%,50%,0.6)"
    stroke-width="1"
    transform="translate(-28.5466355274,-168.1607752914) scale(1,-1) translate(50,-110)"
    />
  
  <line
    x1="-7.831023441992339"
    y1="157.77251615438072"
    x2="83.85253398475244"
    y2="197.699014843557"
    stroke="hsla(0,50%,50%,0.6)"
    stroke-width="1"
    transform="translate(-28.5466355274,-168.1607752914) scale(1,-1) translate(50,-110)"
    />
  
</svg>
