<?xml version="1.0"?>
<!DOCTYPE svg PUBLIC "-//W3C//DTD SVG 1.1//EN"
  "http://www.w3.org/Graphics/SVG/1.1/DTD/svg11.dtd">
<svg
  width="240"
  height="240"
  viewBox="-50 -50 200 200" xmlns="http://www.w3.org/2000/svg" version="1.1">
  <rect
    x="0"
    y="0"
    width="100"
    height="100"
    fill="hsla(206,100%,53%,0.3)"
    stroke="hsl(206,100%,53%)"
    stroke-width="3"
    transform="" />
  
  <path
    d="M 
      63.5453683640
      34.7500677139
      L
    
      97.4445717473
      42.8691058969
      L
    
      94.9177959112
      54.0301955807
      L
    
      94.6399610417
      53.9677968764
      L
    
      94.3995862181
      54.9190325972
      L
    
      94.3201060903
      54.8993138138
      L
    
      0
      58.2935066390
      L
    
      79.7107744953
      54.7714564057
      L
    
      0
      0
      L
    
      63.3901274613
      75.8112864602
      L
    
      0
      0
      L
    
      48.3088896042
      46.7215867395
      z
    "
    fill="hsla(0,0%,50%,0.3)"
    stroke="hsla(0,0%,50%,1)"
    stroke-width="1"
    transform="translate(-61.7134279418,-55.5252375619) scale(1,-1) translate(50,-110)"
    />
  
  <path
    d="M 
      63.4853985515
      50.6120831042
      L
    
      63.4541498929
      58.8773533225
      L
    
      73.5590261899
      53.1944564183
      z
    "
    fill="hsla(0,0%,50%,0.3)"
    stroke="hsla(0,0%,50%,1)"
    stroke-width="1"
    transform="translate(-61.7134279418,-55.5252375619) scale(1,-1) translate(50,-110)"
    />
  
  
  <line
    x1="79.21625241562467"
    y1="53.87403884287005"
    x2="0"
    y2="0"
    stroke="hsla(0,50%,50%,0.6)"
    stroke-width="1"
    transform="translate(-61.7134279418,-55.5252375619) scale(1,-1) translate(50,-110)"
    />
  
  <line
    x1="77.20192142766325"
    y1="51.145722969269734"
    x2="84.23396524965835"
    y2="63.64954525127742"
    stroke="hsla(0,50%,50%,0.6)"
    stroke-width="1"
    transform="translate(-61.7134279418,-55.5252375619) scale(1,-1) translate(50,-110)"
    />
  
  <line
    x1="78.46629955193931"
    y1="53.56522154993019"
    x2="84.1958620906389"
    y2="0"
    stroke="hsla(0,50%,50%,0.6)"
    stroke-width="1"
    transform="translate(-61.7134279418,-55.5252375619) scale(1,-1) translate(50,-110)"
    />
  
  <line
    x1="78.46629955193931"
    y1="53.56522154993019"
    x2="84.28273993781808"
    y2="63.62108671398832"
    stroke="hsla(0,50%,50%,0.6)"
    stroke-width="1"
    transform="translate(-61.7134279418,-55.5252375619) scale(1,-1) translate(50,-110)"
    />
  
  <line
    x1="0"
    y1="0"
    x2="84.28273993781808"
    y2="63.62108671398832"
    stroke="hsla(0,50%,50%,0.6)"
    stroke-width="1"
    transform="translate(-61.7134279418,-55.5252375619) scale(1,-1) translate(50,-110)"
    />
  
  <line
    x1="77.57782144273945"
    y1="52.64658590760248"
    x2="84.1958620906389"
    y2="0"
    stroke="hsla(0,50%,50%,0.6)"
    stroke-width="1"
    transform="translate(-61.7134279418,-55.5252375619) scale(1,-1) translate(50,-110)"
    />
  
  <line
    x1="0"
    y1="0"
    x2="0"
    y2="0"
    stroke="hsla(0,50%,50%,0.6)"
    stroke-width="1"
    transform="translate(-61.7134279418,-55.5252375619) scale(1,-1) translate(50,-110)"
    />
  
  <line
    x1="77.57782144273945"
    y1="52.64658590760248"
    x2="84.23396524965835"
    y2="63.64954525127742"
    stroke="hsla(0,50%,50%,0.6)"
    stroke-width="1"
    transform="translate(-61.7134279418,-55.5252375619) scale(1,-1) translate(50,-110)"
    />
  
  <line
    x1="51.162370514878646"
    y1="44.47956602402392"
    x2="51.672230568853855"
    y2="69.0521761232742"
    stroke="hsla(0,50%,50%,0.6)"
    stroke-width="1"
    transform="translate(-61.7134279418,-55.5252375619) scale(1,-1) translate(50,-110)"
    />
  
  <line
    x1="48.30888960420072"
    y1="46.72158673955657"
    x2="0"
    y2="0"
    stroke="hsla(0,50%,50%,0.6)"
    stroke-width="1"
    transform="translate(-61.7134279418,-55.5252375619) scale(1,-1) translate(50,-110)"
    />
  
  <line
    x1="51.44052388289676"
    y1="44.26101694915254"
    x2="51.54753354311182"
    y2="68.98024845882999"
    stroke="hsla(0,50%,50%,0.6)"
    stroke-width="1"
    transform="translate(-61.7134279418,-55.5252375619) scale(1,-1) translate(50,-110)"
    />
  
  <line
    x1="63.54536836403034"
    y1="34.750067713976165"
    x2="63.39012746139806"
    y2="75.81128646021344"
    stroke="hsla(0,50%,50%,0.6)"
    stroke-width="1"
    transform="translate(-61.7134279418,-55.5252375619) scale(1,-1) translate(50,-110)"
    />
  
  <line
    x1="51.43591740030084"
    y1="44.26463632833506"
    x2="50.998290900159155"
    y2="68.6634346432185"
    stroke="hsla(0,50%,50%,0.6)"
    stroke-width="1"
    transform="translate(-61.7134279418,-55.5252375619) scale(1,-1) translate(50,-110)"
    />
  
  <line
    x1="63.54536836403034"
    y1="34.750067713976165"
    x2="97.44457174733971"
    y2="42.86910589690672"
    stroke="hsla(0,50%,50%,0.6)"
    stroke-width="1"
    transform="translate(-61.7134279418,-55.5252375619) scale(1,-1) translate(50,-110)"
    />
  
  <line
    x1="97.10894939551984"
    y1="42.78872257171"
    x2="94.71612617953956"
    y2="53.98490274194061"
    stroke="hsla(0,50%,50%,0.6)"
    stroke-width="1"
    transform="translate(-61.7134279418,-55.5252375619) scale(1,-1) translate(50,-110)"
    />
  
  <line
    x1="97.40639262830453"
    y1="0"
    x2="94.9177959112394"
    y2="54.03019558074556"
    stroke="hsla(0,50%,50%,0.6)"
    stroke-width="1"
    transform="translate(-61.7134279418,-55.5252375619) scale(1,-1) translate(50,-110)"
    />
  
  <line
    x1="97.44457174733971"
    y1="42.86910589690672"
    x2="94.9177959112394"
    y2="54.03019558074556"
    stroke="hsla(0,50%,50%,0.6)"
    stroke-width="1"
    transform="translate(-61.7134279418,-55.5252375619) scale(1,-1) translate(50,-110)"
    />
  
  <line
    x1="97.33992474342996"
    y1="42.84404238698097"
    x2="94.71612617953956"
    y2="53.98490274194061"
    stroke="hsla(0,50%,50%,0.6)"
    stroke-width="1"
    transform="translate(-61.7134279418,-55.5252375619) scale(1,-1) translate(50,-110)"
    />
  
  <line
    x1="97.33992474342996"
    y1="42.84404238698097"
    x2="94.39958621819821"
    y2="54.91903259726604"
    stroke="hsla(0,50%,50%,0.6)"
    stroke-width="1"
    transform="translate(-61.7134279418,-55.5252375619) scale(1,-1) translate(50,-110)"
    />
  
  <line
    x1="97.44457174733971"
    y1="42.86910589690672"
    x2="94.39958621819821"
    y2="54.91903259726604"
    stroke="hsla(0,50%,50%,0.6)"
    stroke-width="1"
    transform="translate(-61.7134279418,-55.5252375619) scale(1,-1) translate(50,-110)"
    />
  
  <line
    x1="97.40639262830453"
    y1="0"
    x2="0"
    y2="58.29350663909742"
    stroke="hsla(0,50%,50%,0.6)"
    stroke-width="1"
    transform="translate(-61.7134279418,-55.5252375619) scale(1,-1) translate(50,-110)"
    />
  
  <line
    x1="97.10894939551984"
    y1="42.78872257171"
    x2="93.66186359247762"
    y2="55.76732760313937"
    stroke="hsla(0,50%,50%,0.6)"
    stroke-width="1"
    transform="translate(-61.7134279418,-55.5252375619) scale(1,-1) translate(50,-110)"
    />
  
  <line
    x1="51.162370514878646"
    y1="44.47956602402392"
    x2="93.66186359247762"
    y2="55.76732760313937"
    stroke="hsla(0,50%,50%,0.6)"
    stroke-width="1"
    transform="translate(-61.7134279418,-55.5252375619) scale(1,-1) translate(50,-110)"
    />
  
  <line
    x1="0"
    y1="0"
    x2="63.39012746139806"
    y2="75.81128646021344"
    stroke="hsla(0,50%,50%,0.6)"
    stroke-width="1"
    transform="translate(-61.7134279418,-55.5252375619) scale(1,-1) translate(50,-110)"
    />
  
  <line
    x1="51.44052388289676"
    y1="44.26101694915254"
    x2="94.39958621819821"
    y2="54.91903259726604"
    stroke="hsla(0,50%,50%,0.6)"
    stroke-width="1"
    transform="translate(-61.7134279418,-55.5252375619) scale(1,-1) translate(50,-110)"
    />
  
  <line
    x1="51.43591740030084"
    y1="44.26463632833506"
    x2="94.9177959112394"
    y2="54.03019558074556"
    stroke="hsla(0,50%,50%,0.6)"
    stroke-width="1"
    transform="translate(-61.7134279418,-55.5252375619) scale(1,-1) translate(50,-110)"
    />
  
  <line
    x1="48.30888960420072"
    y1="46.72158673955657"
    x2="0"
    y2="58.29350663909742"
    stroke="hsla(0,50%,50%,0.6)"
    stroke-width="1"
    transform="translate(-61.7134279418,-55.5252375619) scale(1,-1) translate(50,-110)"
    />
  
  <line
    x1="63.54536836403034"
    y1="34.750067713976165"
    x2="48.30888960420072"
    y2="46.72158673955657"
    stroke="hsla(0,50%,50%,0.6)"
    stroke-width="1"
    transform="translate(-61.7134279418,-55.5252375619) scale(1,-1) translate(50,-110)"
    />
  
  <line
    x1="77.20192142766325"
    y1="51.145722969269734"
    x2="0"
    y2="0"
    stroke="hsla(0,50%,50%,0.6)"
    stroke-width="1"
    transform="translate(-61.7134279418,-55.5252375619) scale(1,-1) translate(50,-110)"
    />
  
  <line
    x1="0"
    y1="0"
    x2="50.998290900159155"
    y2="68.6634346432185"
    stroke="hsla(0,50%,50%,0.6)"
    stroke-width="1"
    transform="translate(-61.7134279418,-55.5252375619) scale(1,-1) translate(50,-110)"
    />
  
  <line
    x1="78.46629955193931"
    y1="53.56522154993019"
    x2="51.54753354311182"
    y2="68.98024845882999"
    stroke="hsla(0,50%,50%,0.6)"
    stroke-width="1"
    transform="translate(-61.7134279418,-55.5252375619) scale(1,-1) translate(50,-110)"
    />
  
  <line
    x1="79.21625241562467"
    y1="53.87403884287005"
    x2="51.672230568853855"
    y2="69.0521761232742"
    stroke="hsla(0,50%,50%,0.6)"
    stroke-width="1"
    transform="translate(-61.7134279418,-55.5252375619) scale(1,-1) translate(50,-110)"
    />
  
  <line
    x1="84.5132505863724"
    y1="63.48659080771138"
    x2="63.39012746139806"
    y2="75.81128646021344"
    stroke="hsla(0,50%,50%,0.6)"
    stroke-width="1"
    transform="translate(-61.7134279418,-55.5252375619) scale(1,-1) translate(50,-110)"
    />
  
</svg>
