<?xml version="1.0"?>
<!DOCTYPE svg PUBLIC "-//W3C//DTD SVG 1.1//EN"
  "http://www.w3.org/Graphics/SVG/1.1/DTD/svg11.dtd">
<svg
  width="240"
  height="240"
  viewBox="-50 -50 200 200" xmlns="http://www.w3.org/2000/svg" version="1.1">
  <rect
    x="0"
    y="0"
    width="100"
    height="100"
    fill="hsla(206,100%,53%,0.3)"
    stroke="hsl(206,100%,53%)"
    stroke-width="3"
    transform="" />
  
  <path
    d="M 
      2.3809523809
      0
      L
    
      100
      0
      L
    
      100
      97.6190476190
      L
    
      97.6190476190
      100
      L
    
      0
      100
      L
    
      0
      2.3809523809
      z
    "
    fill="hsla(0,0%,50%,0.3)"
    stroke="hsla(0,0%,50%,1)"
    stroke-width="1"
    transform="translate(-21.6517857142,-44.7916666666) scale(1,-1) translate(50,-110)"
    />
  
  
  <line
    x1="2.380952380952381"
    y1="0"
    x2="100"
    y2="0"
    stroke="hsla(0,50%,50%,0.6)"
    stroke-width="1"
    transform="translate(-21.6517857142,-44.7916666666) scale(1,-1) translate(50,-110)"
    />
  
  <line
    x1="0"
    y1="2.380952380952381"
    x2="0"
    y2="100"
    stroke="hsla(0,50%,50%,0.6)"
    stroke-width="1"
    transform="translate(-21.6517857142,-44.7916666666) scale(1,-1) translate(50,-110)"
    />
  
  <line
    x1="2.380952380952381"
    y1="0"
    x2="2.380952380952381"
    y2="2.380952380952381"
    stroke="hsla(0,50%,50%,0.6)"
    stroke-width="1"
    transform="translate(-21.6517857142,-44.7916666666) scale(1,-1) translate(50,-110)"
    />
  
  <line
    x1="97.61904761904762"
    y1="97.61904761904762"
    x2="97.61904761904762"
    y2="100"
    stroke="hsla(0,50%,50%,0.6)"
    stroke-width="1"
    transform="translate(-21.6517857142,-44.7916666666) scale(1,-1) translate(50,-110)"
    />
  
  <line
    x1="100"
    y1="0"
    x2="100"
    y2="97.61904761904762"
    stroke="hsla(0,50%,50%,0.6)"
    stroke-width="1"
    transform="translate(-21.6517857142,-44.7916666666) scale(1,-1) translate(50,-110)"
    />
  
  <line
    x1="2.380952380952381"
    y1="0"
    x2="0"
    y2="2.380952380952381"
    stroke="hsla(0,50%,50%,0.6)"
    stroke-width="1"
    transform="translate(-21.6517857142,-44.7916666666) scale(1,-1) translate(50,-110)"
    />
  
  <line
    x1="0"
    y1="2.380952380952381"
    x2="2.380952380952381"
    y2="2.380952380952381"
    stroke="hsla(0,50%,50%,0.6)"
    stroke-width="1"
    transform="translate(-21.6517857142,-44.7916666666) scale(1,-1) translate(50,-110)"
    />
  
  <line
    x1="97.61904761904762"
    y1="97.61904761904762"
    x2="100"
    y2="97.61904761904762"
    stroke="hsla(0,50%,50%,0.6)"
    stroke-width="1"
    transform="translate(-21.6517857142,-44.7916666666) scale(1,-1) translate(50,-110)"
    />
  
  <line
    x1="100"
    y1="97.61904761904762"
    x2="97.61904761904762"
    y2="100"
    stroke="hsla(0,50%,50%,0.6)"
    stroke-width="1"
    transform="translate(-21.6517857142,-44.7916666666) scale(1,-1) translate(50,-110)"
    />
  
  <line
    x1="0"
    y1="100"
    x2="97.61904761904762"
    y2="100"
    stroke="hsla(0,50%,50%,0.6)"
    stroke-width="1"
    transform="translate(-21.6517857142,-44.7916666666) scale(1,-1) translate(50,-110)"
    />
  
</svg>
