<?xml version="1.0"?>
<!DOCTYPE svg PUBLIC "-//W3C//DTD SVG 1.1//EN"
  "http://www.w3.org/Graphics/SVG/1.1/DTD/svg11.dtd">
<svg
  width="240"
  height="240"
  viewBox="-500 -500 1000 1000" xmlns="http://www.w3.org/2000/svg" version="1.1">
  <rect
    x="0"
    y="0"
    width="100"
    height="100"
    fill="hsla(206,100%,53%,0.3)"
    stroke="hsl(206,100%,53%)"
    stroke-width="3"
    transform="" />
  
  <path
    d="M 
      -63.0769230769
      -4.6153846153
      L
    
      -56.0439560439
      23.0769230769
      L
    
      -0.0000000000
      0.0000000000
      L
    
      -0.0000000000
      0.0000000000
      L
    
      -0.0000000000
      0.0000000000
      L
    
      -0.0000000000
      0.0000000000
      L
    
      -38.4615384615
      92.3076923076
      L
    
      -87.1794871794
      35.8974358974
      z
    "
    fill="hsla(0,0%,50%,0.3)"
    stroke="hsla(0,0%,50%,1)"
    stroke-width="1"
    transform="translate(43.5897435897,-43.8461538461)"
    />
  
  
  <line
    x1="-63.07692307692308"
    y1="-4.615384615384615"
    x2="-87.17948717948718"
    y2="35.8974358974359"
    stroke="hsla(0,50%,50%,0.6)"
    stroke-width="1"
    transform="translate(43.5897435897,-43.8461538461)"
    />
  
  <line
    x1="-2.404521434428214e-25"
    y1="5.770851442627713e-25"
    x2="-4.809042868856428e-25"
    y2="1.1541702885255427e-24"
    stroke="hsla(0,50%,50%,0.6)"
    stroke-width="1"
    transform="translate(43.5897435897,-43.8461538461)"
    />
  
  <line
    x1="-2.404521434428214e-25"
    y1="5.770851442627713e-25"
    x2="-38.46153846153846"
    y2="92.3076923076923"
    stroke="hsla(0,50%,50%,0.6)"
    stroke-width="1"
    transform="translate(43.5897435897,-43.8461538461)"
    />
  
  <line
    x1="-8.175372877055928e-25"
    y1="3.3663300081995e-25"
    x2="-87.17948717948718"
    y2="35.8974358974359"
    stroke="hsla(0,50%,50%,0.6)"
    stroke-width="1"
    transform="translate(43.5897435897,-43.8461538461)"
    />
  
  <line
    x1="-8.175372877055928e-25"
    y1="3.3663300081995e-25"
    x2="-4.809042868856428e-25"
    y2="1.1541702885255427e-24"
    stroke="hsla(0,50%,50%,0.6)"
    stroke-width="1"
    transform="translate(43.5897435897,-43.8461538461)"
    />
  
  <line
    x1="-8.175372877055928e-25"
    y1="3.3663300081995e-25"
    x2="-2.404521434428214e-25"
    y2="5.770851442627713e-25"
    stroke="hsla(0,50%,50%,0.6)"
    stroke-width="1"
    transform="translate(43.5897435897,-43.8461538461)"
    />
  
  <line
    x1="-63.07692307692308"
    y1="-4.615384615384615"
    x2="-38.46153846153846"
    y2="92.3076923076923"
    stroke="hsla(0,50%,50%,0.6)"
    stroke-width="1"
    transform="translate(43.5897435897,-43.8461538461)"
    />
  
  <line
    x1="-87.17948717948718"
    y1="35.8974358974359"
    x2="-38.46153846153846"
    y2="92.3076923076923"
    stroke="hsla(0,50%,50%,0.6)"
    stroke-width="1"
    transform="translate(43.5897435897,-43.8461538461)"
    />
  
</svg>
