<?xml version="1.0"?>
<!DOCTYPE svg PUBLIC "-//W3C//DTD SVG 1.1//EN"
  "http://www.w3.org/Graphics/SVG/1.1/DTD/svg11.dtd">
<svg
  width="240"
  height="240"
  viewBox="-50 -50 200 200" xmlns="http://www.w3.org/2000/svg" version="1.1">
  <rect
    x="0"
    y="0"
    width="100"
    height="100"
    fill="hsla(206,100%,53%,0.3)"
    stroke="hsl(206,100%,53%)"
    stroke-width="3"
    transform="" />
  
  <path
    d="M 
      0
      0
      L
    
      100
      0
      L
    
      124
      32
      L
    
      44
      92
      L
    
      -16
      12
      z
    "
    fill="hsla(0,0%,50%,0.3)"
    stroke="hsla(0,0%,50%,1)"
    stroke-width="1"
    transform="translate(-24.75,-33) scale(1,-1) translate(50,-110)"
    />
  
  
  <line
    x1="100"
    y1="0"
    x2="124"
    y2="32"
    stroke="hsla(0,50%,50%,0.6)"
    stroke-width="1"
    transform="translate(-24.75,-33) scale(1,-1) translate(50,-110)"
    />
  
  <line
    x1="0"
    y1="0"
    x2="100"
    y2="0"
    stroke="hsla(0,50%,50%,0.6)"
    stroke-width="1"
    transform="translate(-24.75,-33) scale(1,-1) translate(50,-110)"
    />
  
  <line
    x1="0"
    y1="0"
    x2="64"
    y2="48"
    stroke="hsla(0,50%,50%,0.6)"
    stroke-width="1"
    transform="translate(-24.75,-33) scale(1,-1) translate(50,-110)"
    />
  
  <line
    x1="0"
    y1="0"
    x2="-16"
    y2="12"
    stroke="hsla(0,50%,50%,0.6)"
    stroke-width="1"
    transform="translate(-24.75,-33) scale(1,-1) translate(50,-110)"
    />
  
  <line
    x1="-16"
    y1="12"
    x2="44"
    y2="92"
    stroke="hsla(0,50%,50%,0.6)"
    stroke-width="1"
    transform="translate(-24.75,-33) scale(1,-1) translate(50,-110)"
    />
  
  <line
    x1="100"
    y1="0"
    x2="64"
    y2="48"
    stroke="hsla(0,50%,50%,0.6)"
    stroke-width="1"
    transform="translate(-24.75,-33) scale(1,-1) translate(50,-110)"
    />
  
  <line
    x1="124"
    y1="32"
    x2="44"
    y2="92"
    stroke="hsla(0,50%,50%,0.6)"
    stroke-width="1"
    transform="translate(-24.75,-33) scale(1,-1) translate(50,-110)"
    />
  
</svg>
