<?xml version="1.0"?>
<!DOCTYPE svg PUBLIC "-//W3C//DTD SVG 1.1//EN"
  "http://www.w3.org/Graphics/SVG/1.1/DTD/svg11.dtd">
<svg
  width="240"
  height="240"
  viewBox="-50 -50 200 200" xmlns="http://www.w3.org/2000/svg" version="1.1">
  <rect
    x="0"
    y="0"
    width="100"
    height="100"
    fill="hsla(206,100%,53%,0.3)"
    stroke="hsl(206,100%,53%)"
    stroke-width="3"
    transform="" />
  
  <path
    d="M 
      49.0175928265
      -5.2000033679
      L
    
      58.8228433968
      -5.1245739384
      L
    
      58.7659854977
      2.2665193156
      L
    
      61.1823537439
      0.5140647847
      L
    
      76.4572050322
      4.2914696687
      L
    
      84.5115564682
      23.3236038028
      L
    
      69.7490996198
      47.0307667994
      L
    
      43.5125860442
      49.3087874392
      L
    
      43.0410633874
      47.7352967458
      L
    
      38.0961505111
      46.2761619953
      L
    
      40.4196673473
      38.4019143861
      L
    
      31.6388676845
      30.1822569293
      L
    
      33.7121939799
      6.7754942786
      z
    "
    fill="hsla(0,0%,50%,0.3)"
    stroke="hsla(0,0%,50%,1)"
    stroke-width="1"
    transform="translate(-49.5991134358,-21.1158592700) scale(1,-1) translate(50,-110)"
    />
  
  <path
    d="M 
      57.2850237816
      5.5803797027
      L
    
      43.7364801228
      16.8356629512
      L
    
      43.5214300120
      17.7329686422
      L
    
      58.7253442869
      34.7166053239
      L
    
      67.5099810214
      19.6435248296
      L
    
      67.4794270877
      19.6369112725
      z
    "
    fill="hsla(0,0%,50%,0.3)"
    stroke="hsla(0,0%,50%,1)"
    stroke-width="1"
    transform="translate(-49.5991134358,-21.1158592700) scale(1,-1) translate(50,-110)"
    />
  
  
  <line
    x1="76.4572050322364"
    y1="4.291469668766006"
    x2="84.51155646828171"
    y2="23.323603802828636"
    stroke="hsla(0,50%,50%,0.6)"
    stroke-width="1"
    transform="translate(-49.5991134358,-21.1158592700) scale(1,-1) translate(50,-110)"
    />
  
  <line
    x1="56.22052467825147"
    y1="4.112597351609578"
    x2="67.47942708774583"
    y2="19.636911272580715"
    stroke="hsla(0,50%,50%,0.6)"
    stroke-width="1"
    transform="translate(-49.5991134358,-21.1158592700) scale(1,-1) translate(50,-110)"
    />
  
  <line
    x1="61.182353743949186"
    y1="0.5140647847166983"
    x2="70.99587525493648"
    y2="20.398064672800942"
    stroke="hsla(0,50%,50%,0.6)"
    stroke-width="1"
    transform="translate(-49.5991134358,-21.1158592700) scale(1,-1) translate(50,-110)"
    />
  
  <line
    x1="61.182353743949186"
    y1="0.5140647847166983"
    x2="76.4572050322364"
    y2="4.291469668766006"
    stroke="hsla(0,50%,50%,0.6)"
    stroke-width="1"
    transform="translate(-49.5991134358,-21.1158592700) scale(1,-1) translate(50,-110)"
    />
  
  <line
    x1="33.71219397998056"
    y1="6.775494278640494"
    x2="69.74909961988571"
    y2="47.030766799471"
    stroke="hsla(0,50%,50%,0.6)"
    stroke-width="1"
    transform="translate(-49.5991134358,-21.1158592700) scale(1,-1) translate(50,-110)"
    />
  
  <line
    x1="78.02892770064784"
    y1="13.17358130749762"
    x2="80.74016223224682"
    y2="29.380119923178285"
    stroke="hsla(0,50%,50%,0.6)"
    stroke-width="1"
    transform="translate(-49.5991134358,-21.1158592700) scale(1,-1) translate(50,-110)"
    />
  
  <line
    x1="41.10029319051134"
    y1="41.258865975178104"
    x2="43.51258604420072"
    y2="49.30878743927599"
    stroke="hsla(0,50%,50%,0.6)"
    stroke-width="1"
    transform="translate(-49.5991134358,-21.1158592700) scale(1,-1) translate(50,-110)"
    />
  
  <line
    x1="40.874217954903465"
    y1="1.1716676736292087"
    x2="58.749854005246625"
    y2="4.363490309189422"
    stroke="hsla(0,50%,50%,0.6)"
    stroke-width="1"
    transform="translate(-49.5991134358,-21.1158592700) scale(1,-1) translate(50,-110)"
    />
  
  <line
    x1="49.01759282650345"
    y1="-5.200003367941634"
    x2="58.822843396841066"
    y2="-5.124573938409565"
    stroke="hsla(0,50%,50%,0.6)"
    stroke-width="1"
    transform="translate(-49.5991134358,-21.1158592700) scale(1,-1) translate(50,-110)"
    />
  
  <line
    x1="31.954073426573427"
    y1="26.62375"
    x2="50.578532227019714"
    y2="48.695277141965356"
    stroke="hsla(0,50%,50%,0.6)"
    stroke-width="1"
    transform="translate(-49.5991134358,-21.1158592700) scale(1,-1) translate(50,-110)"
    />
  
  <line
    x1="78.09375276645214"
    y1="13.087448700961156"
    x2="78.02674795829041"
    y2="33.73761645175172"
    stroke="hsla(0,50%,50%,0.6)"
    stroke-width="1"
    transform="translate(-49.5991134358,-21.1158592700) scale(1,-1) translate(50,-110)"
    />
  
  <line
    x1="31.638867684576457"
    y1="30.18225692938685"
    x2="51.34467774983884"
    y2="48.62875552471459"
    stroke="hsla(0,50%,50%,0.6)"
    stroke-width="1"
    transform="translate(-49.5991134358,-21.1158592700) scale(1,-1) translate(50,-110)"
    />
  
  <line
    x1="58.822843396841066"
    y1="-5.124573938409565"
    x2="58.749854005246625"
    y2="4.363490309189422"
    stroke="hsla(0,50%,50%,0.6)"
    stroke-width="1"
    transform="translate(-49.5991134358,-21.1158592700) scale(1,-1) translate(50,-110)"
    />
  
  <line
    x1="40.874217954903465"
    y1="1.1716676736292087"
    x2="39.279111148728944"
    y2="25.223350896218943"
    stroke="hsla(0,50%,50%,0.6)"
    stroke-width="1"
    transform="translate(-49.5991134358,-21.1158592700) scale(1,-1) translate(50,-110)"
    />
  
  <line
    x1="33.71219397998056"
    y1="6.775494278640494"
    x2="31.638867684576457"
    y2="30.18225692938685"
    stroke="hsla(0,50%,50%,0.6)"
    stroke-width="1"
    transform="translate(-49.5991134358,-21.1158592700) scale(1,-1) translate(50,-110)"
    />
  
  <line
    x1="67.47942708774583"
    y1="19.636911272580715"
    x2="84.51155646828171"
    y2="23.323603802828636"
    stroke="hsla(0,50%,50%,0.6)"
    stroke-width="1"
    transform="translate(-49.5991134358,-21.1158592700) scale(1,-1) translate(50,-110)"
    />
  
  <line
    x1="46.817522957767146"
    y1="21.41489186586698"
    x2="43.51258604420072"
    y2="49.30878743927599"
    stroke="hsla(0,50%,50%,0.6)"
    stroke-width="1"
    transform="translate(-49.5991134358,-21.1158592700) scale(1,-1) translate(50,-110)"
    />
  
  <line
    x1="32.30580289466684"
    y1="22.65290942599801"
    x2="39.279111148728944"
    y2="25.223350896218943"
    stroke="hsla(0,50%,50%,0.6)"
    stroke-width="1"
    transform="translate(-49.5991134358,-21.1158592700) scale(1,-1) translate(50,-110)"
    />
  
  <line
    x1="49.01759282650345"
    y1="-5.200003367941634"
    x2="42.17705276703277"
    y2="23.342439608221216"
    stroke="hsla(0,50%,50%,0.6)"
    stroke-width="1"
    transform="translate(-49.5991134358,-21.1158592700) scale(1,-1) translate(50,-110)"
    />
  
  <line
    x1="45.77560042046518"
    y1="20.25100515195776"
    x2="38.09615051119701"
    y2="46.27616199530616"
    stroke="hsla(0,50%,50%,0.6)"
    stroke-width="1"
    transform="translate(-49.5991134358,-21.1158592700) scale(1,-1) translate(50,-110)"
    />
  
  <line
    x1="32.40594009592783"
    y1="21.52241312755153"
    x2="42.17705276703277"
    y2="23.342439608221216"
    stroke="hsla(0,50%,50%,0.6)"
    stroke-width="1"
    transform="translate(-49.5991134358,-21.1158592700) scale(1,-1) translate(50,-110)"
    />
  
  <line
    x1="49.01759282650345"
    y1="-5.200003367941634"
    x2="33.71219397998056"
    y2="6.775494278640494"
    stroke="hsla(0,50%,50%,0.6)"
    stroke-width="1"
    transform="translate(-49.5991134358,-21.1158592700) scale(1,-1) translate(50,-110)"
    />
  
  <line
    x1="46.817522957767146"
    y1="21.41489186586698"
    x2="32.40594009592783"
    y2="21.52241312755153"
    stroke="hsla(0,50%,50%,0.6)"
    stroke-width="1"
    transform="translate(-49.5991134358,-21.1158592700) scale(1,-1) translate(50,-110)"
    />
  
  <line
    x1="80.11442531636095"
    y1="12.933345747549206"
    x2="78.02892770064784"
    y2="13.17358130749762"
    stroke="hsla(0,50%,50%,0.6)"
    stroke-width="1"
    transform="translate(-49.5991134358,-21.1158592700) scale(1,-1) translate(50,-110)"
    />
  
  <line
    x1="45.77560042046518"
    y1="20.25100515195776"
    x2="32.30580289466684"
    y2="22.65290942599801"
    stroke="hsla(0,50%,50%,0.6)"
    stroke-width="1"
    transform="translate(-49.5991134358,-21.1158592700) scale(1,-1) translate(50,-110)"
    />
  
  <line
    x1="61.182353743949186"
    y1="0.5140647847166983"
    x2="56.22052467825147"
    y2="4.112597351609578"
    stroke="hsla(0,50%,50%,0.6)"
    stroke-width="1"
    transform="translate(-49.5991134358,-21.1158592700) scale(1,-1) translate(50,-110)"
    />
  
  <line
    x1="58.749854005246625"
    y1="4.363490309189422"
    x2="31.954073426573427"
    y2="26.62375"
    stroke="hsla(0,50%,50%,0.6)"
    stroke-width="1"
    transform="translate(-49.5991134358,-21.1158592700) scale(1,-1) translate(50,-110)"
    />
  
  <line
    x1="38.09615051119701"
    y1="46.27616199530616"
    x2="47.26838237309184"
    y2="48.98268536281538"
    stroke="hsla(0,50%,50%,0.6)"
    stroke-width="1"
    transform="translate(-49.5991134358,-21.1158592700) scale(1,-1) translate(50,-110)"
    />
  
  <line
    x1="79.95054153181154"
    y1="12.546094434428737"
    x2="78.09375276645214"
    y2="13.087448700961156"
    stroke="hsla(0,50%,50%,0.6)"
    stroke-width="1"
    transform="translate(-49.5991134358,-21.1158592700) scale(1,-1) translate(50,-110)"
    />
  
  <line
    x1="76.4572050322364"
    y1="4.291469668766006"
    x2="50.578532227019714"
    y2="48.695277141965356"
    stroke="hsla(0,50%,50%,0.6)"
    stroke-width="1"
    transform="translate(-49.5991134358,-21.1158592700) scale(1,-1) translate(50,-110)"
    />
  
  <line
    x1="42.17705276703277"
    y1="23.342439608221216"
    x2="31.638867684576457"
    y2="30.18225692938685"
    stroke="hsla(0,50%,50%,0.6)"
    stroke-width="1"
    transform="translate(-49.5991134358,-21.1158592700) scale(1,-1) translate(50,-110)"
    />
  
  <line
    x1="78.09375276645214"
    y1="13.087448700961156"
    x2="51.34467774983884"
    y2="48.62875552471459"
    stroke="hsla(0,50%,50%,0.6)"
    stroke-width="1"
    transform="translate(-49.5991134358,-21.1158592700) scale(1,-1) translate(50,-110)"
    />
  
  <line
    x1="79.95054153181154"
    y1="12.546094434428737"
    x2="67.47942708774583"
    y2="19.636911272580715"
    stroke="hsla(0,50%,50%,0.6)"
    stroke-width="1"
    transform="translate(-49.5991134358,-21.1158592700) scale(1,-1) translate(50,-110)"
    />
  
  <line
    x1="84.51155646828171"
    y1="23.323603802828636"
    x2="69.74909961988571"
    y2="47.030766799471"
    stroke="hsla(0,50%,50%,0.6)"
    stroke-width="1"
    transform="translate(-49.5991134358,-21.1158592700) scale(1,-1) translate(50,-110)"
    />
  
  <line
    x1="80.11442531636095"
    y1="12.933345747549206"
    x2="70.99587525493648"
    y2="20.398064672800942"
    stroke="hsla(0,50%,50%,0.6)"
    stroke-width="1"
    transform="translate(-49.5991134358,-21.1158592700) scale(1,-1) translate(50,-110)"
    />
  
  <line
    x1="80.74016223224682"
    y1="29.380119923178285"
    x2="41.10029319051134"
    y2="41.258865975178104"
    stroke="hsla(0,50%,50%,0.6)"
    stroke-width="1"
    transform="translate(-49.5991134358,-21.1158592700) scale(1,-1) translate(50,-110)"
    />
  
  <line
    x1="69.74909961988571"
    y1="47.030766799471"
    x2="43.51258604420072"
    y2="49.30878743927599"
    stroke="hsla(0,50%,50%,0.6)"
    stroke-width="1"
    transform="translate(-49.5991134358,-21.1158592700) scale(1,-1) translate(50,-110)"
    />
  
  <line
    x1="78.02674795829041"
    y1="33.73761645175172"
    x2="47.26838237309184"
    y2="48.98268536281538"
    stroke="hsla(0,50%,50%,0.6)"
    stroke-width="1"
    transform="translate(-49.5991134358,-21.1158592700) scale(1,-1) translate(50,-110)"
    />
  
</svg>
