<?xml version="1.0"?>
<!DOCTYPE svg PUBLIC "-//W3C//DTD SVG 1.1//EN"
  "http://www.w3.org/Graphics/SVG/1.1/DTD/svg11.dtd">
<svg
  width="240"
  height="240"
  viewBox="-500 -500 1000 1000" xmlns="http://www.w3.org/2000/svg" version="1.1">
  <rect
    x="0"
    y="0"
    width="100"
    height="100"
    fill="hsla(206,100%,53%,0.3)"
    stroke="hsl(206,100%,53%)"
    stroke-width="3"
    transform="" />
  
  <path
    d="M 
      66.0833333333
      50.6657485547
      L
    
      160
      50.6657485547
      L
    
      160
      101.3314971094
      L
    
      66.0833333333
      101.3314971094
      z
    "
    fill="hsla(0,0%,50%,0.3)"
    stroke="hsla(0,0%,50%,1)"
    stroke-width="1"
    transform="translate(-113.0416666666,-75.9986228321)"
    />
  
  
  <line
    x1="66.08333333333333"
    y1="50.66574855473721"
    x2="66.08333333333333"
    y2="101.33149710947443"
    stroke="hsla(0,50%,50%,0.6)"
    stroke-width="1"
    transform="translate(-113.0416666666,-75.9986228321)"
    />
  
  <line
    x1="80"
    y1="50.66574855473721"
    x2="80"
    y2="101.33149710947443"
    stroke="hsla(0,50%,50%,0.6)"
    stroke-width="1"
    transform="translate(-113.0416666666,-75.9986228321)"
    />
  
  <line
    x1="83.04166666666667"
    y1="50.66574855473721"
    x2="83.04166666666667"
    y2="101.33149710947443"
    stroke="hsla(0,50%,50%,0.6)"
    stroke-width="1"
    transform="translate(-113.0416666666,-75.9986228321)"
    />
  
  <line
    x1="160"
    y1="50.66574855473721"
    x2="160"
    y2="101.33149710947443"
    stroke="hsla(0,50%,50%,0.6)"
    stroke-width="1"
    transform="translate(-113.0416666666,-75.9986228321)"
    />
  
  <line
    x1="66.08333333333333"
    y1="50.66574855473721"
    x2="160"
    y2="50.66574855473721"
    stroke="hsla(0,50%,50%,0.6)"
    stroke-width="1"
    transform="translate(-113.0416666666,-75.9986228321)"
    />
  
  <line
    x1="66.08333333333333"
    y1="60"
    x2="160"
    y2="60"
    stroke="hsla(0,50%,50%,0.6)"
    stroke-width="1"
    transform="translate(-113.0416666666,-75.9986228321)"
    />
  
  <line
    x1="66.08333333333333"
    y1="80"
    x2="160"
    y2="80"
    stroke="hsla(0,50%,50%,0.6)"
    stroke-width="1"
    transform="translate(-113.0416666666,-75.9986228321)"
    />
  
  <line
    x1="66.08333333333333"
    y1="101.33149710947443"
    x2="160"
    y2="101.33149710947443"
    stroke="hsla(0,50%,50%,0.6)"
    stroke-width="1"
    transform="translate(-113.0416666666,-75.9986228321)"
    />
  
</svg>
