<?xml version="1.0"?>
<!DOCTYPE svg PUBLIC "-//W3C//DTD SVG 1.1//EN"
  "http://www.w3.org/Graphics/SVG/1.1/DTD/svg11.dtd">
<svg
  width="240"
  height="240"
  viewBox="-50 -50 200 200" xmlns="http://www.w3.org/2000/svg" version="1.1">
  <rect
    x="0"
    y="0"
    width="100"
    height="100"
    fill="hsla(206,100%,53%,0.3)"
    stroke="hsl(206,100%,53%)"
    stroke-width="3"
    transform="" />
  
  <path
    d="M 
      -6310649.9999999999
      5258879.2893218813
      L
    
      -6310579.2893218813
      5258950.0000000000
      L
    
      -6310650.0000000000
      5259020.7106781186
      L
    
      -6310720.7106781186
      5258949.9999999999
      z
    "
    fill="hsla(0,0%,50%,0.3)"
    stroke="hsla(0,0%,50%,1)"
    stroke-width="1"
    transform="translate(6310676.5165042944,-5258958.8388347648) scale(1,-1) translate(50,-110)"
    />
  
  
  <line
    x1="-6310650"
    y1="5258879.289321882"
    x2="-6310720.710678118"
    y2="5258950.000000001"
    stroke="hsla(0,50%,50%,0.6)"
    stroke-width="1"
    transform="translate(6310676.5165042944,-5258958.8388347648) scale(1,-1) translate(50,-110)"
    />
  
  <line
    x1="-6310579.289321882"
    y1="5258950.000000001"
    x2="-6310650"
    y2="5259020.710678119"
    stroke="hsla(0,50%,50%,0.6)"
    stroke-width="1"
    transform="translate(6310676.5165042944,-5258958.8388347648) scale(1,-1) translate(50,-110)"
    />
  
  <line
    x1="-6310650"
    y1="5258879.289321882"
    x2="-6310579.289321882"
    y2="5258950.000000001"
    stroke="hsla(0,50%,50%,0.6)"
    stroke-width="1"
    transform="translate(6310676.5165042944,-5258958.8388347648) scale(1,-1) translate(50,-110)"
    />
  
  <line
    x1="-6310720.710678118"
    y1="5258950.000000001"
    x2="-6310650"
    y2="5259020.710678119"
    stroke="hsla(0,50%,50%,0.6)"
    stroke-width="1"
    transform="translate(6310676.5165042944,-5258958.8388347648) scale(1,-1) translate(50,-110)"
    />
  
</svg>
