<?xml version="1.0"?>
<!DOCTYPE svg PUBLIC "-//W3C//DTD SVG 1.1//EN"
  "http://www.w3.org/Graphics/SVG/1.1/DTD/svg11.dtd">
<svg
  width="240"
  height="240"
  viewBox="-50 -50 200 200" xmlns="http://www.w3.org/2000/svg" version="1.1">
  <rect
    x="0"
    y="0"
    width="100"
    height="100"
    fill="hsla(206,100%,53%,0.3)"
    stroke="hsl(206,100%,53%)"
    stroke-width="3"
    transform="" />
  
  <path
    d="M 
      -2085549.9999999999
      -6005320.7106781186
      L
    
      -2085479.2893218813
      -6005249.9999999999
      L
    
      -2085550.0000000000
      -6005179.2893218813
      L
    
      -2085620.7106781186
      -6005250.0000000000
      z
    "
    fill="hsla(0,0%,50%,0.3)"
    stroke="hsla(0,0%,50%,1)"
    stroke-width="1"
    transform="translate(2085576.5165042944,6005241.1611652351) scale(1,-1) translate(50,-110)"
    />
  
  
  <line
    x1="-2085550.0000000002"
    y1="-6005320.710678119"
    x2="-2085620.7106781187"
    y2="-6005250.000000001"
    stroke="hsla(0,50%,50%,0.6)"
    stroke-width="1"
    transform="translate(2085576.5165042944,6005241.1611652351) scale(1,-1) translate(50,-110)"
    />
  
  <line
    x1="-2085479.2893218815"
    y1="-6005250.000000001"
    x2="-2085550.0000000002"
    y2="-6005179.289321882"
    stroke="hsla(0,50%,50%,0.6)"
    stroke-width="1"
    transform="translate(2085576.5165042944,6005241.1611652351) scale(1,-1) translate(50,-110)"
    />
  
  <line
    x1="-2085550.0000000002"
    y1="-6005320.710678119"
    x2="-2085479.2893218815"
    y2="-6005250.000000001"
    stroke="hsla(0,50%,50%,0.6)"
    stroke-width="1"
    transform="translate(2085576.5165042944,6005241.1611652351) scale(1,-1) translate(50,-110)"
    />
  
  <line
    x1="-2085620.7106781187"
    y1="-6005250.000000001"
    x2="-2085550.0000000002"
    y2="-6005179.289321882"
    stroke="hsla(0,50%,50%,0.6)"
    stroke-width="1"
    transform="translate(2085576.5165042944,6005241.1611652351) scale(1,-1) translate(50,-110)"
    />
  
</svg>
