<?xml version="1.0"?>
<!DOCTYPE svg PUBLIC "-//W3C//DTD SVG 1.1//EN"
  "http://www.w3.org/Graphics/SVG/1.1/DTD/svg11.dtd">
<svg
  width="240"
  height="240"
  viewBox="-500 -500 1000 1000" xmlns="http://www.w3.org/2000/svg" version="1.1">
  <rect
    x="0"
    y="0"
    width="100"
    height="100"
    fill="hsla(206,100%,53%,0.3)"
    stroke="hsl(206,100%,53%)"
    stroke-width="3"
    transform="" />
  
  <path
    d="M 
      106.5186033101
      73.0966740442
      L
    
      146.1454751781
      78.5474561862
      L
    
      143.4200841071
      98.3608921201
      L
    
      103.7932122392
      92.9101099782
      L
    
      98.3424300972
      132.5369818461
      L
    
      78.5289941632
      129.8115907751
      L
    
      83.9797763052
      90.1847189072
      z
    "
    fill="hsla(0,0%,50%,0.3)"
    stroke="hsla(0,0%,50%,1)"
    stroke-width="1"
    transform="translate(-112.3372346707,-102.8168279451)"
    />
  
  
  <line
    x1="83.97977630522023"
    y1="90.18471890720905"
    x2="78.528994163233"
    y2="129.8115907751801"
    stroke="hsla(0,50%,50%,0.6)"
    stroke-width="1"
    transform="translate(-112.3372346707,-102.8168279451)"
    />
  
  <line
    x1="106.51860331019938"
    y1="73.09667404421718"
    x2="98.3424300972185"
    y2="132.5369818461737"
    stroke="hsla(0,50%,50%,0.6)"
    stroke-width="1"
    transform="translate(-112.3372346707,-102.8168279451)"
    />
  
  <line
    x1="146.1454751781704"
    y1="78.54745618620444"
    x2="143.42008410717676"
    y2="98.36089212018994"
    stroke="hsla(0,50%,50%,0.6)"
    stroke-width="1"
    transform="translate(-112.3372346707,-102.8168279451)"
    />
  
  <line
    x1="106.51860331019938"
    y1="73.09667404421718"
    x2="146.1454751781704"
    y2="78.54745618620444"
    stroke="hsla(0,50%,50%,0.6)"
    stroke-width="1"
    transform="translate(-112.3372346707,-102.8168279451)"
    />
  
  <line
    x1="83.97977630522023"
    y1="90.18471890720905"
    x2="143.42008410717676"
    y2="98.36089212018994"
    stroke="hsla(0,50%,50%,0.6)"
    stroke-width="1"
    transform="translate(-112.3372346707,-102.8168279451)"
    />
  
  <line
    x1="106.51860331019938"
    y1="73.09667404421718"
    x2="83.97977630522023"
    y2="90.18471890720905"
    stroke="hsla(0,50%,50%,0.6)"
    stroke-width="1"
    transform="translate(-112.3372346707,-102.8168279451)"
    />
  
  <line
    x1="78.528994163233"
    y1="129.8115907751801"
    x2="98.3424300972185"
    y2="132.5369818461737"
    stroke="hsla(0,50%,50%,0.6)"
    stroke-width="1"
    transform="translate(-112.3372346707,-102.8168279451)"
    />
  
</svg>
