<?xml version="1.0"?>
<!DOCTYPE svg PUBLIC "-//W3C//DTD SVG 1.1//EN"
  "http://www.w3.org/Graphics/SVG/1.1/DTD/svg11.dtd">
<svg
  width="240"
  height="240"
  viewBox="-50 -50 200 200" xmlns="http://www.w3.org/2000/svg" version="1.1">
  <rect
    x="0"
    y="0"
    width="100"
    height="100"
    fill="hsla(206,100%,53%,0.3)"
    stroke="hsl(206,100%,53%)"
    stroke-width="3"
    transform="" />
  
  <path
    d="M 
      694950.0000000000
      -1119420.7106781186
      L
    
      695020.7106781186
      -1119349.9999999999
      L
    
      694949.9999999999
      -1119279.2893218813
      L
    
      694879.2893218813
      -1119350.0000000000
      z
    "
    fill="hsla(0,0%,50%,0.3)"
    stroke="hsla(0,0%,50%,1)"
    stroke-width="1"
    transform="translate(-694923.4834957055,1119341.1611652351) scale(1,-1) translate(50,-110)"
    />
  
  
  <line
    x1="694950"
    y1="-1119420.7106781185"
    x2="695020.7106781187"
    y2="-1119350"
    stroke="hsla(0,50%,50%,0.6)"
    stroke-width="1"
    transform="translate(-694923.4834957055,1119341.1611652351) scale(1,-1) translate(50,-110)"
    />
  
  <line
    x1="694879.2893218814"
    y1="-1119350"
    x2="694950"
    y2="-1119279.2893218813"
    stroke="hsla(0,50%,50%,0.6)"
    stroke-width="1"
    transform="translate(-694923.4834957055,1119341.1611652351) scale(1,-1) translate(50,-110)"
    />
  
  <line
    x1="694950"
    y1="-1119420.7106781185"
    x2="694879.2893218814"
    y2="-1119350"
    stroke="hsla(0,50%,50%,0.6)"
    stroke-width="1"
    transform="translate(-694923.4834957055,1119341.1611652351) scale(1,-1) translate(50,-110)"
    />
  
  <line
    x1="695020.7106781187"
    y1="-1119350"
    x2="694950"
    y2="-1119279.2893218813"
    stroke="hsla(0,50%,50%,0.6)"
    stroke-width="1"
    transform="translate(-694923.4834957055,1119341.1611652351) scale(1,-1) translate(50,-110)"
    />
  
</svg>
