<?xml version="1.0"?>
<!DOCTYPE svg PUBLIC "-//W3C//DTD SVG 1.1//EN"
  "http://www.w3.org/Graphics/SVG/1.1/DTD/svg11.dtd">
<svg
  width="240"
  height="240"
  viewBox="-50 -50 200 200" xmlns="http://www.w3.org/2000/svg" version="1.1">
  <rect
    x="0"
    y="0"
    width="100"
    height="100"
    fill="hsla(206,100%,53%,0.3)"
    stroke="hsl(206,100%,53%)"
    stroke-width="3"
    transform="" />
  
  <path
    d="M 
      13.3302503175
      16.9902508672
      L
    
      22.3052500279
      24.6674691518
      L
    
      17.6708288709
      30.0853076189
      L
    
      85.2752289312
      100
      L
    
      84.7806223063
      114.7164617797
      L
    
      -15.1629470096
      111.3574511537
      L
    
      -13.6625691974
      66.7154030735
      L
    
      5.4723966841
      17.4700099000
      z
    "
    fill="hsla(0,0%,50%,0.3)"
    stroke="hsla(0,0%,50%,1)"
    stroke-width="1"
    transform="translate(-5.9433365123,-50.4238498430) scale(1,-1) translate(50,-110)"
    />
  
  
  <line
    x1="-13.66256919748386"
    y1="66.71540307350865"
    x2="-15.162947009610221"
    y2="111.35745115379929"
    stroke="hsla(0,50%,50%,0.6)"
    stroke-width="1"
    transform="translate(-5.9433365123,-50.4238498430) scale(1,-1) translate(50,-110)"
    />
  
  <line
    x1="0"
    y1="31.553668474576497"
    x2="0"
    y2="100"
    stroke="hsla(0,50%,50%,0.6)"
    stroke-width="1"
    transform="translate(-5.9433365123,-50.4238498430) scale(1,-1) translate(50,-110)"
    />
  
  <line
    x1="85.27522893120208"
    y1="100"
    x2="84.78062230635265"
    y2="114.71646177976088"
    stroke="hsla(0,50%,50%,0.6)"
    stroke-width="1"
    transform="translate(-5.9433365123,-50.4238498430) scale(1,-1) translate(50,-110)"
    />
  
  <line
    x1="13.33025031755814"
    y1="16.990250867250744"
    x2="22.305250027966597"
    y2="24.66746915183436"
    stroke="hsla(0,50%,50%,0.6)"
    stroke-width="1"
    transform="translate(-5.9433365123,-50.4238498430) scale(1,-1) translate(50,-110)"
    />
  
  <line
    x1="5.472396684164264"
    y1="17.47000990001669"
    x2="-13.66256919748386"
    y2="66.71540307350865"
    stroke="hsla(0,50%,50%,0.6)"
    stroke-width="1"
    transform="translate(-5.9433365123,-50.4238498430) scale(1,-1) translate(50,-110)"
    />
  
  <line
    x1="5.472396684164264"
    y1="17.47000990001669"
    x2="85.27522893120208"
    y2="100"
    stroke="hsla(0,50%,50%,0.6)"
    stroke-width="1"
    transform="translate(-5.9433365123,-50.4238498430) scale(1,-1) translate(50,-110)"
    />
  
  <line
    x1="13.33025031755814"
    y1="16.990250867250744"
    x2="0"
    y2="31.553668474576497"
    stroke="hsla(0,50%,50%,0.6)"
    stroke-width="1"
    transform="translate(-5.9433365123,-50.4238498430) scale(1,-1) translate(50,-110)"
    />
  
  <line
    x1="13.33025031755814"
    y1="16.990250867250744"
    x2="5.472396684164264"
    y2="17.47000990001669"
    stroke="hsla(0,50%,50%,0.6)"
    stroke-width="1"
    transform="translate(-5.9433365123,-50.4238498430) scale(1,-1) translate(50,-110)"
    />
  
  <line
    x1="22.305250027966597"
    y1="24.66746915183436"
    x2="-13.66256919748386"
    y2="66.71540307350865"
    stroke="hsla(0,50%,50%,0.6)"
    stroke-width="1"
    transform="translate(-5.9433365123,-50.4238498430) scale(1,-1) translate(50,-110)"
    />
  
  <line
    x1="0"
    y1="100"
    x2="85.27522893120208"
    y2="100"
    stroke="hsla(0,50%,50%,0.6)"
    stroke-width="1"
    transform="translate(-5.9433365123,-50.4238498430) scale(1,-1) translate(50,-110)"
    />
  
  <line
    x1="-15.162947009610221"
    y1="111.35745115379929"
    x2="84.78062230635265"
    y2="114.71646177976088"
    stroke="hsla(0,50%,50%,0.6)"
    stroke-width="1"
    transform="translate(-5.9433365123,-50.4238498430) scale(1,-1) translate(50,-110)"
    />
  
</svg>
