<?xml version="1.0"?>
<!DOCTYPE svg PUBLIC "-//W3C//DTD SVG 1.1//EN"
  "http://www.w3.org/Graphics/SVG/1.1/DTD/svg11.dtd">
<svg
  width="240"
  height="240"
  viewBox="-50 -50 200 200" xmlns="http://www.w3.org/2000/svg" version="1.1">
  <rect
    x="0"
    y="0"
    width="100"
    height="100"
    fill="hsla(206,100%,53%,0.3)"
    stroke="hsl(206,100%,53%)"
    stroke-width="3"
    transform="" />
  
  <path
    d="M 
      142.8735656696
      185.5782196777
      L
    
      146.8259222578
      189.4824577507
      L
    
      113.6398986371
      223.0774887502
      L
    
      147.2349296366
      256.2635123708
      L
    
      143.3306915636
      260.2158689590
      L
    
      109.7356605641
      227.0298453383
      L
    
      109.6875420489
      219.1732506771
      z
    "
    fill="hsla(0,0%,50%,0.3)"
    stroke="hsla(0,0%,50%,1)"
    stroke-width="1"
    transform="translate(-117.4740070445,-227.7190344245) scale(1,-1) translate(50,-110)"
    />
  
  
  <line
    x1="109.68754204899832"
    y1="219.17325067718392"
    x2="109.73566056415302"
    y2="227.02984533837318"
    stroke="hsla(0,50%,50%,0.6)"
    stroke-width="1"
    transform="translate(-117.4740070445,-227.7190344245) scale(1,-1) translate(50,-110)"
    />
  
  <line
    x1="142.87356566964527"
    y1="185.57821967772207"
    x2="146.82592225781724"
    y2="189.48245775073937"
    stroke="hsla(0,50%,50%,0.6)"
    stroke-width="1"
    transform="translate(-117.4740070445,-227.7190344245) scale(1,-1) translate(50,-110)"
    />
  
  <line
    x1="109.68754204899832"
    y1="219.17325067718392"
    x2="147.23492963663213"
    y2="256.26351237084816"
    stroke="hsla(0,50%,50%,0.6)"
    stroke-width="1"
    transform="translate(-117.4740070445,-227.7190344245) scale(1,-1) translate(50,-110)"
    />
  
  <line
    x1="109.73566056415302"
    y1="227.02984533837318"
    x2="143.33069156361483"
    y2="260.21586895902016"
    stroke="hsla(0,50%,50%,0.6)"
    stroke-width="1"
    transform="translate(-117.4740070445,-227.7190344245) scale(1,-1) translate(50,-110)"
    />
  
  <line
    x1="142.87356566964527"
    y1="185.57821967772207"
    x2="109.68754204899832"
    y2="219.17325067718392"
    stroke="hsla(0,50%,50%,0.6)"
    stroke-width="1"
    transform="translate(-117.4740070445,-227.7190344245) scale(1,-1) translate(50,-110)"
    />
  
  <line
    x1="146.82592225781724"
    y1="189.48245775073937"
    x2="109.73566056415302"
    y2="227.02984533837318"
    stroke="hsla(0,50%,50%,0.6)"
    stroke-width="1"
    transform="translate(-117.4740070445,-227.7190344245) scale(1,-1) translate(50,-110)"
    />
  
  <line
    x1="147.23492963663213"
    y1="256.26351237084816"
    x2="143.33069156361483"
    y2="260.21586895902016"
    stroke="hsla(0,50%,50%,0.6)"
    stroke-width="1"
    transform="translate(-117.4740070445,-227.7190344245) scale(1,-1) translate(50,-110)"
    />
  
</svg>
