<?xml version="1.0"?>
<!DOCTYPE svg PUBLIC "-//W3C//DTD SVG 1.1//EN"
  "http://www.w3.org/Graphics/SVG/1.1/DTD/svg11.dtd">
<svg
  width="240"
  height="240"
  viewBox="-50 -50 200 200" xmlns="http://www.w3.org/2000/svg" version="1.1">
  <rect
    x="0"
    y="0"
    width="100"
    height="100"
    fill="hsla(206,100%,53%,0.3)"
    stroke="hsl(206,100%,53%)"
    stroke-width="3"
    transform="" />
  
  <path
    d="M 
      49.0769230769
      -11.0598290598
      L
    
      63.5759849906
      30.9530956848
      L
    
      32.5826923076
      15.8634615384
      L
    
      22.6480769230
      28.2903846153
      L
    
      44.1913696060
      55.2007504690
      L
    
      0.0170940170
      50.3076923076
      L
    
      0
      0
      z
    "
    fill="hsla(0,0%,50%,0.3)"
    stroke="hsla(0,0%,50%,1)"
    stroke-width="1"
    transform="translate(-9.7221103358,-22.0517313881) scale(1,-1) translate(50,-110)"
    />
  
  
  <line
    x1="49.07692307692308"
    y1="-11.05982905982906"
    x2="63.57598499061913"
    y2="30.953095684803003"
    stroke="hsla(0,50%,50%,0.6)"
    stroke-width="1"
    transform="translate(-9.7221103358,-22.0517313881) scale(1,-1) translate(50,-110)"
    />
  
  <line
    x1="49.07692307692308"
    y1="-11.05982905982906"
    x2="49.69230769230769"
    y2="-5.538461538461538"
    stroke="hsla(0,50%,50%,0.6)"
    stroke-width="1"
    transform="translate(-9.7221103358,-22.0517313881) scale(1,-1) translate(50,-110)"
    />
  
  <line
    x1="0"
    y1="0"
    x2="63.57598499061913"
    y2="30.953095684803003"
    stroke="hsla(0,50%,50%,0.6)"
    stroke-width="1"
    transform="translate(-9.7221103358,-22.0517313881) scale(1,-1) translate(50,-110)"
    />
  
  <line
    x1="0"
    y1="0"
    x2="44.191369606003754"
    y2="55.20075046904315"
    stroke="hsla(0,50%,50%,0.6)"
    stroke-width="1"
    transform="translate(-9.7221103358,-22.0517313881) scale(1,-1) translate(50,-110)"
    />
  
  <line
    x1="0"
    y1="0"
    x2="5.538461538461538"
    y2="49.69230769230769"
    stroke="hsla(0,50%,50%,0.6)"
    stroke-width="1"
    transform="translate(-9.7221103358,-22.0517313881) scale(1,-1) translate(50,-110)"
    />
  
  <line
    x1="0"
    y1="0"
    x2="0.017094017094017096"
    y2="50.30769230769231"
    stroke="hsla(0,50%,50%,0.6)"
    stroke-width="1"
    transform="translate(-9.7221103358,-22.0517313881) scale(1,-1) translate(50,-110)"
    />
  
  <line
    x1="49.07692307692308"
    y1="-11.05982905982906"
    x2="0"
    y2="0"
    stroke="hsla(0,50%,50%,0.6)"
    stroke-width="1"
    transform="translate(-9.7221103358,-22.0517313881) scale(1,-1) translate(50,-110)"
    />
  
  <line
    x1="49.69230769230769"
    y1="-5.538461538461538"
    x2="0"
    y2="0"
    stroke="hsla(0,50%,50%,0.6)"
    stroke-width="1"
    transform="translate(-9.7221103358,-22.0517313881) scale(1,-1) translate(50,-110)"
    />
  
  <line
    x1="49.69230769230769"
    y1="-5.538461538461538"
    x2="5.538461538461538"
    y2="49.69230769230769"
    stroke="hsla(0,50%,50%,0.6)"
    stroke-width="1"
    transform="translate(-9.7221103358,-22.0517313881) scale(1,-1) translate(50,-110)"
    />
  
  <line
    x1="5.538461538461538"
    y1="49.69230769230769"
    x2="0.017094017094017096"
    y2="50.30769230769231"
    stroke="hsla(0,50%,50%,0.6)"
    stroke-width="1"
    transform="translate(-9.7221103358,-22.0517313881) scale(1,-1) translate(50,-110)"
    />
  
  <line
    x1="0.017094017094017096"
    y1="50.30769230769231"
    x2="44.191369606003754"
    y2="55.20075046904315"
    stroke="hsla(0,50%,50%,0.6)"
    stroke-width="1"
    transform="translate(-9.7221103358,-22.0517313881) scale(1,-1) translate(50,-110)"
    />
  
</svg>
