<?xml version="1.0"?>
<!DOCTYPE svg PUBLIC "-//W3C//DTD SVG 1.1//EN"
  "http://www.w3.org/Graphics/SVG/1.1/DTD/svg11.dtd">
<svg
  width="240"
  height="240"
  viewBox="-50 -50 200 200" xmlns="http://www.w3.org/2000/svg" version="1.1">
  <rect
    x="0"
    y="0"
    width="100"
    height="100"
    fill="hsla(206,100%,53%,0.3)"
    stroke="hsl(206,100%,53%)"
    stroke-width="3"
    transform="" />
  
  <path
    d="M 
      49.2
      -65.6
      L
    
      62.5
      -20
      L
    
      47.5
      0
      L
    
      0
      0
      L
    
      0
      -20
      L
    
      41.6666666666
      -20
      L
    
      30
      -60
      z
    "
    fill="hsla(0,0%,50%,0.3)"
    stroke="hsla(0,0%,50%,1)"
    stroke-width="1"
    transform="translate(-28.6463541666,38.8375) scale(1,-1) translate(50,-110)"
    />
  
  
  <line
    x1="30"
    y1="-60"
    x2="53.4"
    y2="-51.2"
    stroke="hsla(0,50%,50%,0.6)"
    stroke-width="1"
    transform="translate(-28.6463541666,38.8375) scale(1,-1) translate(50,-110)"
    />
  
  <line
    x1="38.4"
    y1="-62.45"
    x2="53.4"
    y2="-51.2"
    stroke="hsla(0,50%,50%,0.6)"
    stroke-width="1"
    transform="translate(-28.6463541666,38.8375) scale(1,-1) translate(50,-110)"
    />
  
  <line
    x1="49.2"
    y1="-65.6"
    x2="30"
    y2="-60"
    stroke="hsla(0,50%,50%,0.6)"
    stroke-width="1"
    transform="translate(-28.6463541666,38.8375) scale(1,-1) translate(50,-110)"
    />
  
  <line
    x1="33.266666666666666"
    y1="-48.8"
    x2="59.93333333333333"
    y2="-28.8"
    stroke="hsla(0,50%,50%,0.6)"
    stroke-width="1"
    transform="translate(-28.6463541666,38.8375) scale(1,-1) translate(50,-110)"
    />
  
  <line
    x1="38.4"
    y1="-31.2"
    x2="61.8"
    y2="-22.4"
    stroke="hsla(0,50%,50%,0.6)"
    stroke-width="1"
    transform="translate(-28.6463541666,38.8375) scale(1,-1) translate(50,-110)"
    />
  
  <line
    x1="30"
    y1="-20"
    x2="45"
    y2="0"
    stroke="hsla(0,50%,50%,0.6)"
    stroke-width="1"
    transform="translate(-28.6463541666,38.8375) scale(1,-1) translate(50,-110)"
    />
  
  <line
    x1="0"
    y1="-20"
    x2="62.5"
    y2="-20"
    stroke="hsla(0,50%,50%,0.6)"
    stroke-width="1"
    transform="translate(-28.6463541666,38.8375) scale(1,-1) translate(50,-110)"
    />
  
  <line
    x1="11.666666666666666"
    y1="-20"
    x2="38.333333333333336"
    y2="0"
    stroke="hsla(0,50%,50%,0.6)"
    stroke-width="1"
    transform="translate(-28.6463541666,38.8375) scale(1,-1) translate(50,-110)"
    />
  
  <line
    x1="49.2"
    y1="-65.6"
    x2="62.5"
    y2="-20"
    stroke="hsla(0,50%,50%,0.6)"
    stroke-width="1"
    transform="translate(-28.6463541666,38.8375) scale(1,-1) translate(50,-110)"
    />
  
  <line
    x1="30"
    y1="-60"
    x2="47.5"
    y2="0"
    stroke="hsla(0,50%,50%,0.6)"
    stroke-width="1"
    transform="translate(-28.6463541666,38.8375) scale(1,-1) translate(50,-110)"
    />
  
  <line
    x1="11.666666666666666"
    y1="-20"
    x2="0"
    y2="-11.25"
    stroke="hsla(0,50%,50%,0.6)"
    stroke-width="1"
    transform="translate(-28.6463541666,38.8375) scale(1,-1) translate(50,-110)"
    />
  
  <line
    x1="0"
    y1="-11.25"
    x2="15"
    y2="0"
    stroke="hsla(0,50%,50%,0.6)"
    stroke-width="1"
    transform="translate(-28.6463541666,38.8375) scale(1,-1) translate(50,-110)"
    />
  
  <line
    x1="0"
    y1="-20"
    x2="15"
    y2="0"
    stroke="hsla(0,50%,50%,0.6)"
    stroke-width="1"
    transform="translate(-28.6463541666,38.8375) scale(1,-1) translate(50,-110)"
    />
  
  <line
    x1="0"
    y1="0"
    x2="47.5"
    y2="0"
    stroke="hsla(0,50%,50%,0.6)"
    stroke-width="1"
    transform="translate(-28.6463541666,38.8375) scale(1,-1) translate(50,-110)"
    />
  
  <line
    x1="0"
    y1="-20"
    x2="0"
    y2="0"
    stroke="hsla(0,50%,50%,0.6)"
    stroke-width="1"
    transform="translate(-28.6463541666,38.8375) scale(1,-1) translate(50,-110)"
    />
  
  <line
    x1="38.4"
    y1="-62.45"
    x2="33.266666666666666"
    y2="-48.8"
    stroke="hsla(0,50%,50%,0.6)"
    stroke-width="1"
    transform="translate(-28.6463541666,38.8375) scale(1,-1) translate(50,-110)"
    />
  
  <line
    x1="53.4"
    y1="-51.2"
    x2="38.4"
    y2="-31.2"
    stroke="hsla(0,50%,50%,0.6)"
    stroke-width="1"
    transform="translate(-28.6463541666,38.8375) scale(1,-1) translate(50,-110)"
    />
  
  <line
    x1="30"
    y1="-20"
    x2="15"
    y2="0"
    stroke="hsla(0,50%,50%,0.6)"
    stroke-width="1"
    transform="translate(-28.6463541666,38.8375) scale(1,-1) translate(50,-110)"
    />
  
  <line
    x1="59.93333333333333"
    y1="-28.8"
    x2="50.714285714285715"
    y2="-4.285714285714286"
    stroke="hsla(0,50%,50%,0.6)"
    stroke-width="1"
    transform="translate(-28.6463541666,38.8375) scale(1,-1) translate(50,-110)"
    />
  
  <line
    x1="61.8"
    y1="-22.4"
    x2="59.285714285714285"
    y2="-15.714285714285714"
    stroke="hsla(0,50%,50%,0.6)"
    stroke-width="1"
    transform="translate(-28.6463541666,38.8375) scale(1,-1) translate(50,-110)"
    />
  
  <line
    x1="59.285714285714285"
    y1="-15.714285714285714"
    x2="38.333333333333336"
    y2="0"
    stroke="hsla(0,50%,50%,0.6)"
    stroke-width="1"
    transform="translate(-28.6463541666,38.8375) scale(1,-1) translate(50,-110)"
    />
  
  <line
    x1="50.714285714285715"
    y1="-4.285714285714286"
    x2="45"
    y2="0"
    stroke="hsla(0,50%,50%,0.6)"
    stroke-width="1"
    transform="translate(-28.6463541666,38.8375) scale(1,-1) translate(50,-110)"
    />
  
  <line
    x1="62.5"
    y1="-20"
    x2="47.5"
    y2="0"
    stroke="hsla(0,50%,50%,0.6)"
    stroke-width="1"
    transform="translate(-28.6463541666,38.8375) scale(1,-1) translate(50,-110)"
    />
  
</svg>
