<?xml version="1.0"?>
<!DOCTYPE svg PUBLIC "-//W3C//DTD SVG 1.1//EN"
  "http://www.w3.org/Graphics/SVG/1.1/DTD/svg11.dtd">
<svg
  width="240"
  height="240"
  viewBox="-500 -500 1000 1000" xmlns="http://www.w3.org/2000/svg" version="1.1">
  <rect
    x="0"
    y="0"
    width="100"
    height="100"
    fill="hsla(206,100%,53%,0.3)"
    stroke="hsl(206,100%,53%)"
    stroke-width="3"
    transform="" />
  
  <path
    d="M 
      -261.6569285827
      -169.5686535119
      L
    
      -241.5745881410
      -154.6790731826
      L
    
      -206.6026673700
      -159.8718332949
      L
    
      -186.5203269283
      -144.9822529655
      L
    
      -221.4922476993
      -139.7894928532
      L
    
      -251.2714083581
      -99.6248119698
      L
    
      -291.4360892414
      -129.4039726286
      L
    
      -326.4080100125
      -124.2112125162
      L
    
      -311.5184296831
      -144.2935529579
      L
    
      -276.5465089121
      -149.4863130702
      z
    "
    fill="hsla(0,0%,50%,0.3)"
    stroke="hsla(0,0%,50%,1)"
    stroke-width="1"
    transform="translate(256.4641684704,134.5967327409)"
    />
  
  
  <line
    x1="-311.5184296831539"
    y1="-144.29355295797595"
    x2="-326.40801001251566"
    y2="-124.21121251629727"
    stroke="hsla(0,50%,50%,0.6)"
    stroke-width="1"
    transform="translate(256.4641684704,134.5967327409)"
    />
  
  <line
    x1="-206.60266737003252"
    y1="-159.8718332949267"
    x2="-311.5184296831539"
    y2="-144.29355295797595"
    stroke="hsla(0,50%,50%,0.6)"
    stroke-width="1"
    transform="translate(256.4641684704,134.5967327409)"
    />
  
  <line
    x1="-261.6569285827517"
    y1="-169.56865351197155"
    x2="-291.4360892414752"
    y2="-129.40397262861418"
    stroke="hsla(0,50%,50%,0.6)"
    stroke-width="1"
    transform="translate(256.4641684704,134.5967327409)"
    />
  
  <line
    x1="-186.52032692835385"
    y1="-144.98225296556492"
    x2="-326.40801001251566"
    y2="-124.21121251629727"
    stroke="hsla(0,50%,50%,0.6)"
    stroke-width="1"
    transform="translate(256.4641684704,134.5967327409)"
    />
  
  <line
    x1="-206.60266737003252"
    y1="-159.8718332949267"
    x2="-251.27140835811784"
    y2="-99.62481196989064"
    stroke="hsla(0,50%,50%,0.6)"
    stroke-width="1"
    transform="translate(256.4641684704,134.5967327409)"
    />
  
  <line
    x1="-206.60266737003252"
    y1="-159.8718332949267"
    x2="-186.52032692835385"
    y2="-144.98225296556492"
    stroke="hsla(0,50%,50%,0.6)"
    stroke-width="1"
    transform="translate(256.4641684704,134.5967327409)"
    />
  
  <line
    x1="-261.6569285827517"
    y1="-169.56865351197155"
    x2="-221.49224769939428"
    y2="-139.78949285324802"
    stroke="hsla(0,50%,50%,0.6)"
    stroke-width="1"
    transform="translate(256.4641684704,134.5967327409)"
    />
  
  <line
    x1="-311.5184296831539"
    y1="-144.29355295797595"
    x2="-251.27140835811784"
    y2="-99.62481196989064"
    stroke="hsla(0,50%,50%,0.6)"
    stroke-width="1"
    transform="translate(256.4641684704,134.5967327409)"
    />
  
</svg>
