<?xml version="1.0"?>
<!DOCTYPE svg PUBLIC "-//W3C//DTD SVG 1.1//EN"
  "http://www.w3.org/Graphics/SVG/1.1/DTD/svg11.dtd">
<svg
  width="240"
  height="240"
  viewBox="-50 -50 200 200" xmlns="http://www.w3.org/2000/svg" version="1.1">
  <rect
    x="0"
    y="0"
    width="100"
    height="100"
    fill="hsla(206,100%,53%,0.3)"
    stroke="hsl(206,100%,53%)"
    stroke-width="3"
    transform="" />
  
  <path
    d="M 
      127.7622461927
      -41.0450757177
      L
    
      147.6441918933
      -38.4473550372
      L
    
      148.0219051840
      57.3029641542
      L
    
      144.3476706236
      61.9718844618
      L
    
      142.5726715046
      61.7399679286
      L
    
      137.7167744542
      46.8790472093
      L
    
      133.0873993279
      42.5344880423
      L
    
      134.7731965343
      40.7381751471
      L
    
      118.6799822474
      20.6169160752
      L
    
      120.8302777054
      15.5484556404
      L
    
      113.8568302691
      14.9485909156
      L
    
      111.9418067542
      10.9943440615
      L
    
      110.7484406555
      4.5685266068
      L
    
      122.0958624964
      -0.9269774574
      L
    
      121.0030788355
      -4.2713175820
      L
    
      123.0609216839
      -5.0629628968
      z
    "
    fill="hsla(0,0%,50%,0.3)"
    stroke="hsla(0,0%,50%,1)"
    stroke-width="1"
    transform="translate(-121.1800747688,2.4827937554) scale(1,-1) translate(50,-110)"
    />
  
  
  <line
    x1="143.49380687598483"
    y1="-37.871738540843886"
    x2="147.66902760993042"
    y2="-32.15150088264149"
    stroke="hsla(0,50%,50%,0.6)"
    stroke-width="1"
    transform="translate(-121.1800747688,2.4827937554) scale(1,-1) translate(50,-110)"
    />
  
  <line
    x1="135.54550533929213"
    y1="-19.136800645424405"
    x2="147.74320368240348"
    y2="-13.347866510720364"
    stroke="hsla(0,50%,50%,0.6)"
    stroke-width="1"
    transform="translate(-121.1800747688,2.4827937554) scale(1,-1) translate(50,-110)"
    />
  
  <line
    x1="135.54550533929213"
    y1="-19.136800645424405"
    x2="147.73843660357738"
    y2="-14.556320993132708"
    stroke="hsla(0,50%,50%,0.6)"
    stroke-width="1"
    transform="translate(-121.1800747688,2.4827937554) scale(1,-1) translate(50,-110)"
    />
  
  <line
    x1="122.3992229164347"
    y1="0.001422610486441887"
    x2="147.9013781076875"
    y2="26.749350298777674"
    stroke="hsla(0,50%,50%,0.6)"
    stroke-width="1"
    transform="translate(-121.1800747688,2.4827937554) scale(1,-1) translate(50,-110)"
    />
  
  <line
    x1="127.76224619271422"
    y1="-41.045075717725915"
    x2="147.64419189334436"
    y2="-38.447355037204005"
    stroke="hsla(0,50%,50%,0.6)"
    stroke-width="1"
    transform="translate(-121.1800747688,2.4827937554) scale(1,-1) translate(50,-110)"
    />
  
  <line
    x1="118.67998224742489"
    y1="20.61691607521408"
    x2="148.02190518404058"
    y2="57.302964154285796"
    stroke="hsla(0,50%,50%,0.6)"
    stroke-width="1"
    transform="translate(-121.1800747688,2.4827937554) scale(1,-1) translate(50,-110)"
    />
  
  <line
    x1="133.0873993279042"
    y1="42.5344880423625"
    x2="148.01892454293653"
    y2="56.547371634409956"
    stroke="hsla(0,50%,50%,0.6)"
    stroke-width="1"
    transform="translate(-121.1800747688,2.4827937554) scale(1,-1) translate(50,-110)"
    />
  
  <line
    x1="111.94180675427954"
    y1="10.99434406150525"
    x2="113.85683026911377"
    y2="14.948590915606882"
    stroke="hsla(0,50%,50%,0.6)"
    stroke-width="1"
    transform="translate(-121.1800747688,2.4827937554) scale(1,-1) translate(50,-110)"
    />
  
  <line
    x1="133.06569343065692"
    y1="32.644942648592284"
    x2="144.34767062365444"
    y2="61.97188446181821"
    stroke="hsla(0,50%,50%,0.6)"
    stroke-width="1"
    transform="translate(-121.1800747688,2.4827937554) scale(1,-1) translate(50,-110)"
    />
  
  <line
    x1="121.00307883559816"
    y1="-4.271317582073271"
    x2="142.5726715046551"
    y2="61.73996792865986"
    stroke="hsla(0,50%,50%,0.6)"
    stroke-width="1"
    transform="translate(-121.1800747688,2.4827937554) scale(1,-1) translate(50,-110)"
    />
  
  <line
    x1="122.93003207662008"
    y1="-4.793006034119286"
    x2="133.06569343065692"
    y2="32.644942648592284"
    stroke="hsla(0,50%,50%,0.6)"
    stroke-width="1"
    transform="translate(-121.1800747688,2.4827937554) scale(1,-1) translate(50,-110)"
    />
  
  <line
    x1="110.74844065556339"
    y1="4.568526606879797"
    x2="111.94180675427954"
    y2="10.99434406150525"
    stroke="hsla(0,50%,50%,0.6)"
    stroke-width="1"
    transform="translate(-121.1800747688,2.4827937554) scale(1,-1) translate(50,-110)"
    />
  
  <line
    x1="147.64419189334436"
    y1="-38.447355037204005"
    x2="143.49380687598483"
    y2="-37.871738540843886"
    stroke="hsla(0,50%,50%,0.6)"
    stroke-width="1"
    transform="translate(-121.1800747688,2.4827937554) scale(1,-1) translate(50,-110)"
    />
  
  <line
    x1="110.74844065556339"
    y1="4.568526606879797"
    x2="112.46916978439674"
    y2="4.712993781441387"
    stroke="hsla(0,50%,50%,0.6)"
    stroke-width="1"
    transform="translate(-121.1800747688,2.4827937554) scale(1,-1) translate(50,-110)"
    />
  
  <line
    x1="147.64419189334436"
    y1="-38.447355037204005"
    x2="148.02190518404058"
    y2="57.302964154285796"
    stroke="hsla(0,50%,50%,0.6)"
    stroke-width="1"
    transform="translate(-121.1800747688,2.4827937554) scale(1,-1) translate(50,-110)"
    />
  
  <line
    x1="113.85683026911377"
    y1="14.948590915606882"
    x2="147.86636739290566"
    y2="17.874134101585135"
    stroke="hsla(0,50%,50%,0.6)"
    stroke-width="1"
    transform="translate(-121.1800747688,2.4827937554) scale(1,-1) translate(50,-110)"
    />
  
  <line
    x1="112.46916978439674"
    y1="4.712993781441387"
    x2="111.94180675427954"
    y2="10.99434406150525"
    stroke="hsla(0,50%,50%,0.6)"
    stroke-width="1"
    transform="translate(-121.1800747688,2.4827937554) scale(1,-1) translate(50,-110)"
    />
  
  <line
    x1="127.76224619271422"
    y1="-41.045075717725915"
    x2="122.3992229164347"
    y2="0.001422610486441887"
    stroke="hsla(0,50%,50%,0.6)"
    stroke-width="1"
    transform="translate(-121.1800747688,2.4827937554) scale(1,-1) translate(50,-110)"
    />
  
  <line
    x1="122.93003207662008"
    y1="-4.793006034119286"
    x2="121.00307883559816"
    y2="-4.271317582073271"
    stroke="hsla(0,50%,50%,0.6)"
    stroke-width="1"
    transform="translate(-121.1800747688,2.4827937554) scale(1,-1) translate(50,-110)"
    />
  
  <line
    x1="147.86636739290566"
    y1="17.874134101585135"
    x2="118.67998224742489"
    y2="20.61691607521408"
    stroke="hsla(0,50%,50%,0.6)"
    stroke-width="1"
    transform="translate(-121.1800747688,2.4827937554) scale(1,-1) translate(50,-110)"
    />
  
  <line
    x1="147.73843660357738"
    y1="-14.556320993132708"
    x2="121.00307883559816"
    y2="-4.271317582073271"
    stroke="hsla(0,50%,50%,0.6)"
    stroke-width="1"
    transform="translate(-121.1800747688,2.4827937554) scale(1,-1) translate(50,-110)"
    />
  
  <line
    x1="142.5726715046551"
    y1="61.73996792865986"
    x2="144.34767062365444"
    y2="61.97188446181821"
    stroke="hsla(0,50%,50%,0.6)"
    stroke-width="1"
    transform="translate(-121.1800747688,2.4827937554) scale(1,-1) translate(50,-110)"
    />
  
  <line
    x1="143.49380687598483"
    y1="-37.871738540843886"
    x2="118.67998224742489"
    y2="20.61691607521408"
    stroke="hsla(0,50%,50%,0.6)"
    stroke-width="1"
    transform="translate(-121.1800747688,2.4827937554) scale(1,-1) translate(50,-110)"
    />
  
  <line
    x1="147.74320368240348"
    y1="-13.347866510720364"
    x2="110.74844065556339"
    y2="4.568526606879797"
    stroke="hsla(0,50%,50%,0.6)"
    stroke-width="1"
    transform="translate(-121.1800747688,2.4827937554) scale(1,-1) translate(50,-110)"
    />
  
  <line
    x1="147.66902760993042"
    y1="-32.15150088264149"
    x2="113.85683026911377"
    y2="14.948590915606882"
    stroke="hsla(0,50%,50%,0.6)"
    stroke-width="1"
    transform="translate(-121.1800747688,2.4827937554) scale(1,-1) translate(50,-110)"
    />
  
  <line
    x1="147.9013781076875"
    y1="26.749350298777674"
    x2="133.0873993279042"
    y2="42.5344880423625"
    stroke="hsla(0,50%,50%,0.6)"
    stroke-width="1"
    transform="translate(-121.1800747688,2.4827937554) scale(1,-1) translate(50,-110)"
    />
  
  <line
    x1="148.02190518404058"
    y1="57.302964154285796"
    x2="144.34767062365444"
    y2="61.97188446181821"
    stroke="hsla(0,50%,50%,0.6)"
    stroke-width="1"
    transform="translate(-121.1800747688,2.4827937554) scale(1,-1) translate(50,-110)"
    />
  
  <line
    x1="148.01892454293653"
    y1="56.547371634409956"
    x2="142.5726715046551"
    y2="61.73996792865986"
    stroke="hsla(0,50%,50%,0.6)"
    stroke-width="1"
    transform="translate(-121.1800747688,2.4827937554) scale(1,-1) translate(50,-110)"
    />
  
</svg>
