<?xml version="1.0"?>
<!DOCTYPE svg PUBLIC "-//W3C//DTD SVG 1.1//EN"
  "http://www.w3.org/Graphics/SVG/1.1/DTD/svg11.dtd">
<svg
  width="240"
  height="240"
  viewBox="-50 -50 200 200" xmlns="http://www.w3.org/2000/svg" version="1.1">
  <rect
    x="0"
    y="0"
    width="100"
    height="100"
    fill="hsla(206,100%,53%,0.3)"
    stroke="hsl(206,100%,53%)"
    stroke-width="3"
    transform="" />
  
  <path
    d="M 
      58.3333333333
      20
      L
    
      83.3333333333
      20
      L
    
      108.3333333333
      45
      L
    
      83.3333333333
      45
      L
    
      70.8333333333
      32.5
      L
    
      45.8333333333
      57.5
      L
    
      58.3333333333
      70
      L
    
      58.3333333333
      95
      L
    
      33.3333333333
      70
      L
    
      33.3333333333
      45
      z
    "
    fill="hsla(0,0%,50%,0.3)"
    stroke="hsla(0,0%,50%,1)"
    stroke-width="1"
    transform="translate(-39.8274739583,-59.16015625) scale(1,-1) translate(50,-110)"
    />
  
  
  <line
    x1="83.33333333333333"
    y1="20"
    x2="108.33333333333333"
    y2="45"
    stroke="hsla(0,50%,50%,0.6)"
    stroke-width="1"
    transform="translate(-39.8274739583,-59.16015625) scale(1,-1) translate(50,-110)"
    />
  
  <line
    x1="58.333333333333336"
    y1="20"
    x2="83.33333333333333"
    y2="45"
    stroke="hsla(0,50%,50%,0.6)"
    stroke-width="1"
    transform="translate(-39.8274739583,-59.16015625) scale(1,-1) translate(50,-110)"
    />
  
  <line
    x1="33.333333333333336"
    y1="45"
    x2="33.333333333333336"
    y2="70"
    stroke="hsla(0,50%,50%,0.6)"
    stroke-width="1"
    transform="translate(-39.8274739583,-59.16015625) scale(1,-1) translate(50,-110)"
    />
  
  <line
    x1="58.333333333333336"
    y1="20"
    x2="58.333333333333336"
    y2="45"
    stroke="hsla(0,50%,50%,0.6)"
    stroke-width="1"
    transform="translate(-39.8274739583,-59.16015625) scale(1,-1) translate(50,-110)"
    />
  
  <line
    x1="58.333333333333336"
    y1="70"
    x2="58.333333333333336"
    y2="95"
    stroke="hsla(0,50%,50%,0.6)"
    stroke-width="1"
    transform="translate(-39.8274739583,-59.16015625) scale(1,-1) translate(50,-110)"
    />
  
  <line
    x1="83.33333333333333"
    y1="20"
    x2="83.33333333333333"
    y2="45"
    stroke="hsla(0,50%,50%,0.6)"
    stroke-width="1"
    transform="translate(-39.8274739583,-59.16015625) scale(1,-1) translate(50,-110)"
    />
  
  <line
    x1="33.333333333333336"
    y1="45"
    x2="58.333333333333336"
    y2="70"
    stroke="hsla(0,50%,50%,0.6)"
    stroke-width="1"
    transform="translate(-39.8274739583,-59.16015625) scale(1,-1) translate(50,-110)"
    />
  
  <line
    x1="33.333333333333336"
    y1="70"
    x2="58.333333333333336"
    y2="95"
    stroke="hsla(0,50%,50%,0.6)"
    stroke-width="1"
    transform="translate(-39.8274739583,-59.16015625) scale(1,-1) translate(50,-110)"
    />
  
  <line
    x1="58.333333333333336"
    y1="20"
    x2="83.33333333333333"
    y2="20"
    stroke="hsla(0,50%,50%,0.6)"
    stroke-width="1"
    transform="translate(-39.8274739583,-59.16015625) scale(1,-1) translate(50,-110)"
    />
  
  <line
    x1="58.333333333333336"
    y1="20"
    x2="33.333333333333336"
    y2="45"
    stroke="hsla(0,50%,50%,0.6)"
    stroke-width="1"
    transform="translate(-39.8274739583,-59.16015625) scale(1,-1) translate(50,-110)"
    />
  
  <line
    x1="33.333333333333336"
    y1="45"
    x2="58.333333333333336"
    y2="45"
    stroke="hsla(0,50%,50%,0.6)"
    stroke-width="1"
    transform="translate(-39.8274739583,-59.16015625) scale(1,-1) translate(50,-110)"
    />
  
  <line
    x1="83.33333333333333"
    y1="45"
    x2="108.33333333333333"
    y2="45"
    stroke="hsla(0,50%,50%,0.6)"
    stroke-width="1"
    transform="translate(-39.8274739583,-59.16015625) scale(1,-1) translate(50,-110)"
    />
  
  <line
    x1="83.33333333333333"
    y1="20"
    x2="33.333333333333336"
    y2="70"
    stroke="hsla(0,50%,50%,0.6)"
    stroke-width="1"
    transform="translate(-39.8274739583,-59.16015625) scale(1,-1) translate(50,-110)"
    />
  
  <line
    x1="33.333333333333336"
    y1="70"
    x2="58.333333333333336"
    y2="70"
    stroke="hsla(0,50%,50%,0.6)"
    stroke-width="1"
    transform="translate(-39.8274739583,-59.16015625) scale(1,-1) translate(50,-110)"
    />
  
</svg>
