<?xml version="1.0"?>
<!DOCTYPE svg PUBLIC "-//W3C//DTD SVG 1.1//EN"
  "http://www.w3.org/Graphics/SVG/1.1/DTD/svg11.dtd">
<svg
  width="240"
  height="240"
  viewBox="-500 -500 1000 1000" xmlns="http://www.w3.org/2000/svg" version="1.1">
  <rect
    x="0"
    y="0"
    width="100"
    height="100"
    fill="hsla(206,100%,53%,0.3)"
    stroke="hsl(206,100%,53%)"
    stroke-width="3"
    transform="" />
  
  <path
    d="M 
      73.9532977372
      -29.0599515917
      L
    
      85.8290357748
      -19.8121818288
      L
    
      83.7879826845
      15.4149232625
      L
    
      89.7015772135
      33.0485469122
      L
    
      98.0829228535
      31.5771529371
      L
    
      100.6462301816
      32.9790336095
      L
    
      102.1551135170
      31.0831794540
      L
    
      114.3210371400
      25.8681924916
      L
    
      120.6179943876
      40.5582198078
      L
    
      119.0516643545
      43.0450222455
      L
    
      85.7507739938
      51.6946041574
      L
    
      65.3322528363
      43.2938411669
      L
    
      52.3416202871
      -3.1140737329
      L
    
      55.0936216547
      -5.3709567800
      L
    
      55.3053588603
      -5.1127683549
      z
    "
    fill="hsla(0,0%,50%,0.3)"
    stroke="hsla(0,0%,50%,1)"
    stroke-width="1"
    transform="translate(-86.4798073373,-11.3173262828)"
    />
  
  
  <line
    x1="73.9532977372593"
    y1="-29.059951591740262"
    x2="85.82903577483867"
    y2="-19.812181828864105"
    stroke="hsla(0,50%,50%,0.6)"
    stroke-width="1"
    transform="translate(-86.4798073373,-11.3173262828)"
    />
  
  <line
    x1="114.32103714008987"
    y1="25.868192491646795"
    x2="120.61799438763899"
    y2="40.558219807815014"
    stroke="hsla(0,50%,50%,0.6)"
    stroke-width="1"
    transform="translate(-86.4798073373,-11.3173262828)"
    />
  
  <line
    x1="55.09362165474399"
    y1="-5.370956780023095"
    x2="99.05785822885531"
    y2="48.23821864185577"
    stroke="hsla(0,50%,50%,0.6)"
    stroke-width="1"
    transform="translate(-86.4798073373,-11.3173262828)"
    />
  
  <line
    x1="79.43346105273564"
    y1="2.4302664260566886"
    x2="95.1370935079503"
    y2="49.256599088844084"
    stroke="hsla(0,50%,50%,0.6)"
    stroke-width="1"
    transform="translate(-86.4798073373,-11.3173262828)"
    />
  
  <line
    x1="52.71374561166622"
    y1="-1.78468809073724"
    x2="73.84018886579169"
    y2="6.247002836046669"
    stroke="hsla(0,50%,50%,0.6)"
    stroke-width="1"
    transform="translate(-86.4798073373,-11.3173262828)"
    />
  
  <line
    x1="98.08292285350194"
    y1="31.577152937110014"
    x2="119.05166435456172"
    y2="43.04502224556839"
    stroke="hsla(0,50%,50%,0.6)"
    stroke-width="1"
    transform="translate(-86.4798073373,-11.3173262828)"
    />
  
  <line
    x1="93.72165034908157"
    y1="41.6795031176362"
    x2="95.1370935079503"
    y2="49.256599088844084"
    stroke="hsla(0,50%,50%,0.6)"
    stroke-width="1"
    transform="translate(-86.4798073373,-11.3173262828)"
    />
  
  <line
    x1="52.341620287116214"
    y1="-3.114073732922773"
    x2="65.3322528363047"
    y2="43.293841166936794"
    stroke="hsla(0,50%,50%,0.6)"
    stroke-width="1"
    transform="translate(-86.4798073373,-11.3173262828)"
    />
  
  <line
    x1="52.341620287116214"
    y1="-3.114073732922773"
    x2="74.28132118451025"
    y2="0"
    stroke="hsla(0,50%,50%,0.6)"
    stroke-width="1"
    transform="translate(-86.4798073373,-11.3173262828)"
    />
  
  <line
    x1="53.213320463320464"
    y1="0"
    x2="74.28132118451025"
    y2="0"
    stroke="hsla(0,50%,50%,0.6)"
    stroke-width="1"
    transform="translate(-86.4798073373,-11.3173262828)"
    />
  
  <line
    x1="85.82903577483867"
    y1="-19.812181828864105"
    x2="81.78058530208433"
    y2="50.061155095714696"
    stroke="hsla(0,50%,50%,0.6)"
    stroke-width="1"
    transform="translate(-86.4798073373,-11.3173262828)"
    />
  
  <line
    x1="74.28132118451025"
    y1="0"
    x2="71.05778109465322"
    y2="45.64948707894304"
    stroke="hsla(0,50%,50%,0.6)"
    stroke-width="1"
    transform="translate(-86.4798073373,-11.3173262828)"
    />
  
  <line
    x1="65.3322528363047"
    y1="43.293841166936794"
    x2="85.75077399380805"
    y2="51.69460415745245"
    stroke="hsla(0,50%,50%,0.6)"
    stroke-width="1"
    transform="translate(-86.4798073373,-11.3173262828)"
    />
  
  <line
    x1="102.15511351706462"
    y1="31.083179454048192"
    x2="99.05785822885531"
    y2="48.23821864185577"
    stroke="hsla(0,50%,50%,0.6)"
    stroke-width="1"
    transform="translate(-86.4798073373,-11.3173262828)"
    />
  
  <line
    x1="73.84018886579169"
    y1="6.247002836046669"
    x2="56.08539807058747"
    y2="10.260249659064211"
    stroke="hsla(0,50%,50%,0.6)"
    stroke-width="1"
    transform="translate(-86.4798073373,-11.3173262828)"
    />
  
  <line
    x1="85.82903577483867"
    y1="-19.812181828864105"
    x2="53.213320463320464"
    y2="0"
    stroke="hsla(0,50%,50%,0.6)"
    stroke-width="1"
    transform="translate(-86.4798073373,-11.3173262828)"
    />
  
  <line
    x1="55.09362165474399"
    y1="-5.370956780023095"
    x2="52.341620287116214"
    y2="-3.114073732922773"
    stroke="hsla(0,50%,50%,0.6)"
    stroke-width="1"
    transform="translate(-86.4798073373,-11.3173262828)"
    />
  
  <line
    x1="73.9532977372593"
    y1="-29.059951591740262"
    x2="52.71374561166622"
    y2="-1.78468809073724"
    stroke="hsla(0,50%,50%,0.6)"
    stroke-width="1"
    transform="translate(-86.4798073373,-11.3173262828)"
    />
  
  <line
    x1="79.43346105273564"
    y1="2.4302664260566886"
    x2="56.08539807058747"
    y2="10.260249659064211"
    stroke="hsla(0,50%,50%,0.6)"
    stroke-width="1"
    transform="translate(-86.4798073373,-11.3173262828)"
    />
  
  <line
    x1="120.61799438763899"
    y1="40.558219807815014"
    x2="93.72165034908157"
    y2="41.6795031176362"
    stroke="hsla(0,50%,50%,0.6)"
    stroke-width="1"
    transform="translate(-86.4798073373,-11.3173262828)"
    />
  
  <line
    x1="98.08292285350194"
    y1="31.577152937110014"
    x2="80.50338429217865"
    y2="34.663343178648795"
    stroke="hsla(0,50%,50%,0.6)"
    stroke-width="1"
    transform="translate(-86.4798073373,-11.3173262828)"
    />
  
  <line
    x1="80.50338429217865"
    y1="34.663343178648795"
    x2="71.05778109465322"
    y2="45.64948707894304"
    stroke="hsla(0,50%,50%,0.6)"
    stroke-width="1"
    transform="translate(-86.4798073373,-11.3173262828)"
    />
  
  <line
    x1="80.50338429217865"
    y1="34.663343178648795"
    x2="65.3322528363047"
    y2="43.293841166936794"
    stroke="hsla(0,50%,50%,0.6)"
    stroke-width="1"
    transform="translate(-86.4798073373,-11.3173262828)"
    />
  
  <line
    x1="102.15511351706462"
    y1="31.083179454048192"
    x2="85.75077399380805"
    y2="51.69460415745245"
    stroke="hsla(0,50%,50%,0.6)"
    stroke-width="1"
    transform="translate(-86.4798073373,-11.3173262828)"
    />
  
  <line
    x1="98.08292285350194"
    y1="31.577152937110014"
    x2="81.78058530208433"
    y2="50.061155095714696"
    stroke="hsla(0,50%,50%,0.6)"
    stroke-width="1"
    transform="translate(-86.4798073373,-11.3173262828)"
    />
  
  <line
    x1="114.32103714008987"
    y1="25.868192491646795"
    x2="102.15511351706462"
    y2="31.083179454048192"
    stroke="hsla(0,50%,50%,0.6)"
    stroke-width="1"
    transform="translate(-86.4798073373,-11.3173262828)"
    />
  
  <line
    x1="120.61799438763899"
    y1="40.558219807815014"
    x2="119.05166435456172"
    y2="43.04502224556839"
    stroke="hsla(0,50%,50%,0.6)"
    stroke-width="1"
    transform="translate(-86.4798073373,-11.3173262828)"
    />
  
  <line
    x1="119.05166435456172"
    y1="43.04502224556839"
    x2="85.75077399380805"
    y2="51.69460415745245"
    stroke="hsla(0,50%,50%,0.6)"
    stroke-width="1"
    transform="translate(-86.4798073373,-11.3173262828)"
    />
  
</svg>
