<?xml version="1.0"?>
<!DOCTYPE svg PUBLIC "-//W3C//DTD SVG 1.1//EN"
  "http://www.w3.org/Graphics/SVG/1.1/DTD/svg11.dtd">
<svg
  width="240"
  height="240"
  viewBox="-500 -500 1000 1000" xmlns="http://www.w3.org/2000/svg" version="1.1">
  <rect
    x="0"
    y="0"
    width="100"
    height="100"
    fill="hsla(206,100%,53%,0.3)"
    stroke="hsl(206,100%,53%)"
    stroke-width="3"
    transform="" />
  
  <path
    d="M 
      0
      0
      L
    
      36.4529702970
      0
      L
    
      44.8765949440
      54.0181644032
      L
    
      0
      75.1913946587
      L
    
      -19.1475621173
      59.4168023046
      L
    
      -15.7741507530
      55.3220781941
      L
    
      0
      54.4933311428
      L
    
      0
      39.5871061209
      L
    
      -0.8401289230
      30.0204080622
      L
    
      -21.1320123728
      18.4072915522
      L
    
      -21.8121094530
      15.3914206330
      L
    
      -2.5071246436
      11.0380301354
      L
    
      -2.9786762143
      5.6683882006
      L
    
      0
      5.4068066157
      z
    "
    fill="hsla(0,0%,50%,0.3)"
    stroke="hsla(0,0%,50%,1)"
    stroke-width="1"
    transform="translate(-11.5322427455,-37.5956973293)"
    />
  
  
  <line
    x1="36.4529702970297"
    y1="0"
    x2="44.87659494407006"
    y2="54.01816440324291"
    stroke="hsla(0,50%,50%,0.6)"
    stroke-width="1"
    transform="translate(-11.5322427455,-37.5956973293)"
    />
  
  <line
    x1="0"
    y1="0"
    x2="36.4529702970297"
    y2="0"
    stroke="hsla(0,50%,50%,0.6)"
    stroke-width="1"
    transform="translate(-11.5322427455,-37.5956973293)"
    />
  
  <line
    x1="0"
    y1="0"
    x2="0"
    y2="75.19139465875371"
    stroke="hsla(0,50%,50%,0.6)"
    stroke-width="1"
    transform="translate(-11.5322427455,-37.5956973293)"
    />
  
  <line
    x1="-2.978676214315136"
    y1="5.668388200627357"
    x2="3.002303956606499"
    y2="73.77487736171979"
    stroke="hsla(0,50%,50%,0.6)"
    stroke-width="1"
    transform="translate(-11.5322427455,-37.5956973293)"
    />
  
  <line
    x1="43.276788366376344"
    y1="52.21964228879967"
    x2="44.87659494407006"
    y2="54.01816440324291"
    stroke="hsla(0,50%,50%,0.6)"
    stroke-width="1"
    transform="translate(-11.5322427455,-37.5956973293)"
    />
  
  <line
    x1="36.79226291566371"
    y1="2.1757812369545957"
    x2="-2.978676214315136"
    y2="5.668388200627357"
    stroke="hsla(0,50%,50%,0.6)"
    stroke-width="1"
    transform="translate(-11.5322427455,-37.5956973293)"
    />
  
  <line
    x1="-21.812109453000616"
    y1="15.391420633036857"
    x2="-21.132012372818245"
    y2="18.407291552280043"
    stroke="hsla(0,50%,50%,0.6)"
    stroke-width="1"
    transform="translate(-11.5322427455,-37.5956973293)"
    />
  
  <line
    x1="43.276788366376344"
    y1="52.21964228879967"
    x2="42.80202563621634"
    y2="54.99696713306113"
    stroke="hsla(0,50%,50%,0.6)"
    stroke-width="1"
    transform="translate(-11.5322427455,-37.5956973293)"
    />
  
  <line
    x1="36.79226291566371"
    y1="2.1757812369545957"
    x2="-21.812109453000616"
    y2="15.391420633036857"
    stroke="hsla(0,50%,50%,0.6)"
    stroke-width="1"
    transform="translate(-11.5322427455,-37.5956973293)"
    />
  
  <line
    x1="36.4529702970297"
    y1="0"
    x2="-21.132012372818245"
    y2="18.407291552280043"
    stroke="hsla(0,50%,50%,0.6)"
    stroke-width="1"
    transform="translate(-11.5322427455,-37.5956973293)"
    />
  
  <line
    x1="-15.774150753050549"
    y1="55.32207819410809"
    x2="-19.14756211739287"
    y2="59.4168023046453"
    stroke="hsla(0,50%,50%,0.6)"
    stroke-width="1"
    transform="translate(-11.5322427455,-37.5956973293)"
    />
  
  <line
    x1="-21.132012372818245"
    y1="18.407291552280043"
    x2="42.80202563621634"
    y2="54.99696713306113"
    stroke="hsla(0,50%,50%,0.6)"
    stroke-width="1"
    transform="translate(-11.5322427455,-37.5956973293)"
    />
  
  <line
    x1="-15.774150753050549"
    y1="55.32207819410809"
    x2="3.002303956606499"
    y2="73.77487736171979"
    stroke="hsla(0,50%,50%,0.6)"
    stroke-width="1"
    transform="translate(-11.5322427455,-37.5956973293)"
    />
  
  <line
    x1="-19.14756211739287"
    y1="59.4168023046453"
    x2="0"
    y2="75.19139465875371"
    stroke="hsla(0,50%,50%,0.6)"
    stroke-width="1"
    transform="translate(-11.5322427455,-37.5956973293)"
    />
  
  <line
    x1="43.276788366376344"
    y1="52.21964228879967"
    x2="-15.774150753050549"
    y2="55.32207819410809"
    stroke="hsla(0,50%,50%,0.6)"
    stroke-width="1"
    transform="translate(-11.5322427455,-37.5956973293)"
    />
  
  <line
    x1="44.87659494407006"
    y1="54.01816440324291"
    x2="0"
    y2="75.19139465875371"
    stroke="hsla(0,50%,50%,0.6)"
    stroke-width="1"
    transform="translate(-11.5322427455,-37.5956973293)"
    />
  
</svg>
