<?xml version="1.0"?>
<!DOCTYPE svg PUBLIC "-//W3C//DTD SVG 1.1//EN"
  "http://www.w3.org/Graphics/SVG/1.1/DTD/svg11.dtd">
<svg
  width="240"
  height="240"
  viewBox="-500 -500 1000 1000" xmlns="http://www.w3.org/2000/svg" version="1.1">
  <rect
    x="0"
    y="0"
    width="100"
    height="100"
    fill="hsla(206,100%,53%,0.3)"
    stroke="hsl(206,100%,53%)"
    stroke-width="3"
    transform="" />
  
  <path
    d="M 
      30
      -10
      L
    
      65
      -5
      L
    
      80
      15
      L
    
      100
      0
      L
    
      95
      35
      L
    
      75
      50
      L
    
      90
      70
      L
    
      55
      65
      L
    
      40
      45
      L
    
      20
      60
      L
    
      25
      25
      L
    
      45
      10
      z
    "
    fill="hsla(0,0%,50%,0.3)"
    stroke="hsla(0,0%,50%,1)"
    stroke-width="1"
    transform="translate(-60,-30)"
    />
  
  
  <line
    x1="65"
    y1="-5"
    x2="95"
    y2="35"
    stroke="hsla(0,50%,50%,0.6)"
    stroke-width="1"
    transform="translate(-60,-30)"
    />
  
  <line
    x1="30"
    y1="-10"
    x2="90"
    y2="70"
    stroke="hsla(0,50%,50%,0.6)"
    stroke-width="1"
    transform="translate(-60,-30)"
    />
  
  <line
    x1="30"
    y1="-10"
    x2="65"
    y2="-5"
    stroke="hsla(0,50%,50%,0.6)"
    stroke-width="1"
    transform="translate(-60,-30)"
    />
  
  <line
    x1="25"
    y1="25"
    x2="55"
    y2="65"
    stroke="hsla(0,50%,50%,0.6)"
    stroke-width="1"
    transform="translate(-60,-30)"
    />
  
  <line
    x1="25"
    y1="25"
    x2="20"
    y2="60"
    stroke="hsla(0,50%,50%,0.6)"
    stroke-width="1"
    transform="translate(-60,-30)"
    />
  
  <line
    x1="65"
    y1="-5"
    x2="55"
    y2="65"
    stroke="hsla(0,50%,50%,0.6)"
    stroke-width="1"
    transform="translate(-60,-30)"
    />
  
  <line
    x1="100"
    y1="0"
    x2="95"
    y2="35"
    stroke="hsla(0,50%,50%,0.6)"
    stroke-width="1"
    transform="translate(-60,-30)"
    />
  
  <line
    x1="25"
    y1="25"
    x2="95"
    y2="35"
    stroke="hsla(0,50%,50%,0.6)"
    stroke-width="1"
    transform="translate(-60,-30)"
    />
  
  <line
    x1="65"
    y1="-5"
    x2="25"
    y2="25"
    stroke="hsla(0,50%,50%,0.6)"
    stroke-width="1"
    transform="translate(-60,-30)"
    />
  
  <line
    x1="100"
    y1="0"
    x2="20"
    y2="60"
    stroke="hsla(0,50%,50%,0.6)"
    stroke-width="1"
    transform="translate(-60,-30)"
    />
  
  <line
    x1="55"
    y1="65"
    x2="90"
    y2="70"
    stroke="hsla(0,50%,50%,0.6)"
    stroke-width="1"
    transform="translate(-60,-30)"
    />
  
  <line
    x1="95"
    y1="35"
    x2="55"
    y2="65"
    stroke="hsla(0,50%,50%,0.6)"
    stroke-width="1"
    transform="translate(-60,-30)"
    />
  
</svg>
