<?xml version="1.0"?>
<!DOCTYPE svg PUBLIC "-//W3C//DTD SVG 1.1//EN"
  "http://www.w3.org/Graphics/SVG/1.1/DTD/svg11.dtd">
<svg
  width="240"
  height="240"
  viewBox="-500 -500 1000 1000" xmlns="http://www.w3.org/2000/svg" version="1.1">
  <rect
    x="0"
    y="0"
    width="100"
    height="100"
    fill="hsla(206,100%,53%,0.3)"
    stroke="hsl(206,100%,53%)"
    stroke-width="3"
    transform="" />
  
  <path
    d="M 
      -20
      20
      L
    
      10
      20
      L
    
      15
      25
      L
    
      20
      20
      L
    
      20
      50
      L
    
      15
      55
      L
    
      20
      60
      L
    
      -10
      60
      L
    
      -15
      55
      L
    
      -20
      60
      L
    
      -20
      30
      L
    
      -15
      25
      z
    "
    fill="hsla(0,0%,50%,0.3)"
    stroke="hsla(0,0%,50%,1)"
    stroke-width="1"
    transform="translate(0,-40)"
    />
  
  
  <line
    x1="-20"
    y1="30"
    x2="-20"
    y2="60"
    stroke="hsla(0,50%,50%,0.6)"
    stroke-width="1"
    transform="translate(0,-40)"
    />
  
  <line
    x1="-10"
    y1="40"
    x2="-10"
    y2="60"
    stroke="hsla(0,50%,50%,0.6)"
    stroke-width="1"
    transform="translate(0,-40)"
    />
  
  <line
    x1="0"
    y1="20"
    x2="0"
    y2="60"
    stroke="hsla(0,50%,50%,0.6)"
    stroke-width="1"
    transform="translate(0,-40)"
    />
  
  <line
    x1="-10"
    y1="20"
    x2="-20"
    y2="40"
    stroke="hsla(0,50%,50%,0.6)"
    stroke-width="1"
    transform="translate(0,-40)"
    />
  
  <line
    x1="10"
    y1="20"
    x2="10"
    y2="40"
    stroke="hsla(0,50%,50%,0.6)"
    stroke-width="1"
    transform="translate(0,-40)"
    />
  
  <line
    x1="20"
    y1="20"
    x2="20"
    y2="50"
    stroke="hsla(0,50%,50%,0.6)"
    stroke-width="1"
    transform="translate(0,-40)"
    />
  
  <line
    x1="-10"
    y1="30"
    x2="-20"
    y2="50"
    stroke="hsla(0,50%,50%,0.6)"
    stroke-width="1"
    transform="translate(0,-40)"
    />
  
  <line
    x1="0"
    y1="20"
    x2="-10"
    y2="40"
    stroke="hsla(0,50%,50%,0.6)"
    stroke-width="1"
    transform="translate(0,-40)"
    />
  
  <line
    x1="10"
    y1="20"
    x2="20"
    y2="30"
    stroke="hsla(0,50%,50%,0.6)"
    stroke-width="1"
    transform="translate(0,-40)"
    />
  
  <line
    x1="-10"
    y1="20"
    x2="-20"
    y2="30"
    stroke="hsla(0,50%,50%,0.6)"
    stroke-width="1"
    transform="translate(0,-40)"
    />
  
  <line
    x1="0"
    y1="30"
    x2="-10"
    y2="50"
    stroke="hsla(0,50%,50%,0.6)"
    stroke-width="1"
    transform="translate(0,-40)"
    />
  
  <line
    x1="0"
    y1="20"
    x2="20"
    y2="40"
    stroke="hsla(0,50%,50%,0.6)"
    stroke-width="1"
    transform="translate(0,-40)"
    />
  
  <line
    x1="0"
    y1="20"
    x2="-20"
    y2="40"
    stroke="hsla(0,50%,50%,0.6)"
    stroke-width="1"
    transform="translate(0,-40)"
    />
  
  <line
    x1="10"
    y1="30"
    x2="0"
    y2="50"
    stroke="hsla(0,50%,50%,0.6)"
    stroke-width="1"
    transform="translate(0,-40)"
    />
  
  <line
    x1="10"
    y1="40"
    x2="0"
    y2="60"
    stroke="hsla(0,50%,50%,0.6)"
    stroke-width="1"
    transform="translate(0,-40)"
    />
  
  <line
    x1="20"
    y1="30"
    x2="10"
    y2="50"
    stroke="hsla(0,50%,50%,0.6)"
    stroke-width="1"
    transform="translate(0,-40)"
    />
  
  <line
    x1="-10"
    y1="20"
    x2="10"
    y2="40"
    stroke="hsla(0,50%,50%,0.6)"
    stroke-width="1"
    transform="translate(0,-40)"
    />
  
  <line
    x1="0"
    y1="30"
    x2="-20"
    y2="50"
    stroke="hsla(0,50%,50%,0.6)"
    stroke-width="1"
    transform="translate(0,-40)"
    />
  
  <line
    x1="0"
    y1="20"
    x2="20"
    y2="30"
    stroke="hsla(0,50%,50%,0.6)"
    stroke-width="1"
    transform="translate(0,-40)"
    />
  
  <line
    x1="20"
    y1="40"
    x2="10"
    y2="60"
    stroke="hsla(0,50%,50%,0.6)"
    stroke-width="1"
    transform="translate(0,-40)"
    />
  
  <line
    x1="-20"
    y1="20"
    x2="20"
    y2="60"
    stroke="hsla(0,50%,50%,0.6)"
    stroke-width="1"
    transform="translate(0,-40)"
    />
  
  <line
    x1="-10"
    y1="20"
    x2="10"
    y2="30"
    stroke="hsla(0,50%,50%,0.6)"
    stroke-width="1"
    transform="translate(0,-40)"
    />
  
  <line
    x1="-20"
    y1="20"
    x2="10"
    y2="20"
    stroke="hsla(0,50%,50%,0.6)"
    stroke-width="1"
    transform="translate(0,-40)"
    />
  
  <line
    x1="20"
    y1="20"
    x2="-20"
    y2="60"
    stroke="hsla(0,50%,50%,0.6)"
    stroke-width="1"
    transform="translate(0,-40)"
    />
  
  <line
    x1="0"
    y1="30"
    x2="20"
    y2="40"
    stroke="hsla(0,50%,50%,0.6)"
    stroke-width="1"
    transform="translate(0,-40)"
    />
  
  <line
    x1="-10"
    y1="40"
    x2="10"
    y2="60"
    stroke="hsla(0,50%,50%,0.6)"
    stroke-width="1"
    transform="translate(0,-40)"
    />
  
  <line
    x1="20"
    y1="30"
    x2="0"
    y2="50"
    stroke="hsla(0,50%,50%,0.6)"
    stroke-width="1"
    transform="translate(0,-40)"
    />
  
  <line
    x1="-10"
    y1="30"
    x2="10"
    y2="40"
    stroke="hsla(0,50%,50%,0.6)"
    stroke-width="1"
    transform="translate(0,-40)"
    />
  
  <line
    x1="-20"
    y1="40"
    x2="0"
    y2="60"
    stroke="hsla(0,50%,50%,0.6)"
    stroke-width="1"
    transform="translate(0,-40)"
    />
  
  <line
    x1="-20"
    y1="30"
    x2="0"
    y2="30"
    stroke="hsla(0,50%,50%,0.6)"
    stroke-width="1"
    transform="translate(0,-40)"
    />
  
  <line
    x1="20"
    y1="40"
    x2="0"
    y2="60"
    stroke="hsla(0,50%,50%,0.6)"
    stroke-width="1"
    transform="translate(0,-40)"
    />
  
  <line
    x1="-20"
    y1="50"
    x2="-10"
    y2="60"
    stroke="hsla(0,50%,50%,0.6)"
    stroke-width="1"
    transform="translate(0,-40)"
    />
  
  <line
    x1="20"
    y1="50"
    x2="10"
    y2="60"
    stroke="hsla(0,50%,50%,0.6)"
    stroke-width="1"
    transform="translate(0,-40)"
    />
  
  <line
    x1="-10"
    y1="40"
    x2="10"
    y2="50"
    stroke="hsla(0,50%,50%,0.6)"
    stroke-width="1"
    transform="translate(0,-40)"
    />
  
  <line
    x1="-20"
    y1="40"
    x2="0"
    y2="50"
    stroke="hsla(0,50%,50%,0.6)"
    stroke-width="1"
    transform="translate(0,-40)"
    />
  
  <line
    x1="-20"
    y1="40"
    x2="20"
    y2="40"
    stroke="hsla(0,50%,50%,0.6)"
    stroke-width="1"
    transform="translate(0,-40)"
    />
  
  <line
    x1="-10"
    y1="50"
    x2="10"
    y2="60"
    stroke="hsla(0,50%,50%,0.6)"
    stroke-width="1"
    transform="translate(0,-40)"
    />
  
  <line
    x1="-20"
    y1="50"
    x2="0"
    y2="60"
    stroke="hsla(0,50%,50%,0.6)"
    stroke-width="1"
    transform="translate(0,-40)"
    />
  
  <line
    x1="0"
    y1="50"
    x2="20"
    y2="50"
    stroke="hsla(0,50%,50%,0.6)"
    stroke-width="1"
    transform="translate(0,-40)"
    />
  
  <line
    x1="-10"
    y1="60"
    x2="20"
    y2="60"
    stroke="hsla(0,50%,50%,0.6)"
    stroke-width="1"
    transform="translate(0,-40)"
    />
  
</svg>
