<?xml version="1.0"?>
<!DOCTYPE svg PUBLIC "-//W3C//DTD SVG 1.1//EN"
  "http://www.w3.org/Graphics/SVG/1.1/DTD/svg11.dtd">
<svg
  width="240"
  height="240"
  viewBox="-50 -50 200 200" xmlns="http://www.w3.org/2000/svg" version="1.1">
  <rect
    x="0"
    y="0"
    width="100"
    height="100"
    fill="hsla(206,100%,53%,0.3)"
    stroke="hsl(206,100%,53%)"
    stroke-width="3"
    transform="" />
  
  <path
    d="M 
      -33.0316742081
      -52.4886877828
      L
    
      -36.3321799307
      -19.3771626297
      L
    
      -0.0000000000
      -0.0000000000
      L
    
      -0.0000000000
      0.0000000000
      L
    
      -47.0588235294
      88.2352941176
      L
    
      -58.8235294117
      -31.3725490196
      z
    "
    fill="hsla(0,0%,50%,0.3)"
    stroke="hsla(0,0%,50%,1)"
    stroke-width="1"
    transform="translate(43.3440910300,-4.1267411942) scale(1,-1) translate(50,-110)"
    />
  
  
  <line
    x1="-33.0316742081448"
    y1="-52.48868778280543"
    x2="-58.8235294117647"
    y2="-31.372549019607842"
    stroke="hsla(0,50%,50%,0.6)"
    stroke-width="1"
    transform="translate(43.3440910300,-4.1267411942) scale(1,-1) translate(50,-110)"
    />
  
  <line
    x1="-33.0316742081448"
    y1="-52.48868778280543"
    x2="-47.05882352941177"
    y2="88.23529411764706"
    stroke="hsla(0,50%,50%,0.6)"
    stroke-width="1"
    transform="translate(43.3440910300,-4.1267411942) scale(1,-1) translate(50,-110)"
    />
  
  <line
    x1="-1.1854674931954963e-19"
    y1="-5.840031399168725e-20"
    x2="-9.652674349632471e-19"
    y2="1.8098764405560885e-18"
    stroke="hsla(0,50%,50%,0.6)"
    stroke-width="1"
    transform="translate(43.3440910300,-4.1267411942) scale(1,-1) translate(50,-110)"
    />
  
  <line
    x1="-5.833225461722584e-20"
    y1="-3.1110535795853784e-20"
    x2="-9.652674349632471e-19"
    y2="1.8098764405560885e-18"
    stroke="hsla(0,50%,50%,0.6)"
    stroke-width="1"
    transform="translate(43.3440910300,-4.1267411942) scale(1,-1) translate(50,-110)"
    />
  
  <line
    x1="-1.1854674931954963e-19"
    y1="-5.840031399168725e-20"
    x2="-5.833225461722584e-20"
    y2="-3.1110535795853784e-20"
    stroke="hsla(0,50%,50%,0.6)"
    stroke-width="1"
    transform="translate(43.3440910300,-4.1267411942) scale(1,-1) translate(50,-110)"
    />
  
  <line
    x1="-58.8235294117647"
    y1="-31.372549019607842"
    x2="-5.833225461722584e-20"
    y2="-3.1110535795853784e-20"
    stroke="hsla(0,50%,50%,0.6)"
    stroke-width="1"
    transform="translate(43.3440910300,-4.1267411942) scale(1,-1) translate(50,-110)"
    />
  
  <line
    x1="-9.652674349632471e-19"
    y1="1.8098764405560885e-18"
    x2="-47.05882352941177"
    y2="88.23529411764706"
    stroke="hsla(0,50%,50%,0.6)"
    stroke-width="1"
    transform="translate(43.3440910300,-4.1267411942) scale(1,-1) translate(50,-110)"
    />
  
  <line
    x1="-58.8235294117647"
    y1="-31.372549019607842"
    x2="-47.05882352941177"
    y2="88.23529411764706"
    stroke="hsla(0,50%,50%,0.6)"
    stroke-width="1"
    transform="translate(43.3440910300,-4.1267411942) scale(1,-1) translate(50,-110)"
    />
  
</svg>
