<?xml version="1.0"?>
<!DOCTYPE svg PUBLIC "-//W3C//DTD SVG 1.1//EN"
  "http://www.w3.org/Graphics/SVG/1.1/DTD/svg11.dtd">
<svg
  width="240"
  height="240"
  viewBox="-500 -500 1000 1000" xmlns="http://www.w3.org/2000/svg" version="1.1">
  <rect
    x="0"
    y="0"
    width="100"
    height="100"
    fill="hsla(206,100%,53%,0.3)"
    stroke="hsl(206,100%,53%)"
    stroke-width="3"
    transform="" />
  
  <path
    d="M 
      -121.0660261292
      118.1023576575
      L
    
      -80.0501218238
      121.7351698075
      L
    
      -57.7152801949
      136.2623191288
      L
    
      -40.6153846153
      167.1373626373
      L
    
      -51.5502958579
      173.1935756551
      L
    
      -72.7414750478
      134.9314367758
      L
    
      -122.1688441033
      130.5536143217
      z
    "
    fill="hsla(0,0%,50%,0.3)"
    stroke="hsla(0,0%,50%,1)"
    stroke-width="1"
    transform="translate(81.3921143593,-145.6479666563)"
    />
  
  
  <line
    x1="-121.06602612924014"
    y1="118.10235765757471"
    x2="-122.16884410334525"
    y2="130.55361432170267"
    stroke="hsla(0,50%,50%,0.6)"
    stroke-width="1"
    transform="translate(81.3921143593,-145.6479666563)"
    />
  
  <line
    x1="-57.7152801949182"
    y1="136.26231912883497"
    x2="-40.61538461538461"
    y2="167.13736263736263"
    stroke="hsla(0,50%,50%,0.6)"
    stroke-width="1"
    transform="translate(81.3921143593,-145.6479666563)"
    />
  
  <line
    x1="-80.05012182387748"
    y1="121.735169807568"
    x2="-51.55029585798817"
    y2="173.1935756551141"
    stroke="hsla(0,50%,50%,0.6)"
    stroke-width="1"
    transform="translate(81.3921143593,-145.6479666563)"
    />
  
  <line
    x1="-40.61538461538461"
    y1="167.13736263736263"
    x2="-51.55029585798817"
    y2="173.1935756551141"
    stroke="hsla(0,50%,50%,0.6)"
    stroke-width="1"
    transform="translate(81.3921143593,-145.6479666563)"
    />
  
  <line
    x1="-80.05012182387748"
    y1="121.735169807568"
    x2="-57.7152801949182"
    y2="136.26231912883497"
    stroke="hsla(0,50%,50%,0.6)"
    stroke-width="1"
    transform="translate(81.3921143593,-145.6479666563)"
    />
  
  <line
    x1="-121.06602612924014"
    y1="118.10235765757471"
    x2="-80.05012182387748"
    y2="121.735169807568"
    stroke="hsla(0,50%,50%,0.6)"
    stroke-width="1"
    transform="translate(81.3921143593,-145.6479666563)"
    />
  
  <line
    x1="-122.16884410334525"
    y1="130.55361432170267"
    x2="-57.7152801949182"
    y2="136.26231912883497"
    stroke="hsla(0,50%,50%,0.6)"
    stroke-width="1"
    transform="translate(81.3921143593,-145.6479666563)"
    />
  
</svg>
