<?xml version="1.0"?>
<!DOCTYPE svg PUBLIC "-//W3C//DTD SVG 1.1//EN"
  "http://www.w3.org/Graphics/SVG/1.1/DTD/svg11.dtd">
<svg
  width="240"
  height="240"
  viewBox="-50 -50 200 200" xmlns="http://www.w3.org/2000/svg" version="1.1">
  <rect
    x="0"
    y="0"
    width="100"
    height="100"
    fill="hsla(206,100%,53%,0.3)"
    stroke="hsl(206,100%,53%)"
    stroke-width="3"
    transform="" />
  
  <path
    d="M 
      -138.5021352581
      88.9314648580
      L
    
      -116.2231343172
      123.5601790585
      L
    
      -114.0045648761
      150.1112838873
      L
    
      -127.9101085767
      182.5506210395
      L
    
      -139.3990404848
      177.6257409789
      L
    
      -122.1664868168
      137.4250389807
      L
    
      -149.0144234976
      95.6947330008
      z
    "
    fill="hsla(0,0%,50%,0.3)"
    stroke="hsla(0,0%,50%,1)"
    stroke-width="1"
    transform="translate(138.0108202891,-123.8274172406) scale(1,-1) translate(50,-110)"
    />
  
  
  <line
    x1="-116.22313431727375"
    y1="123.56017905857739"
    x2="-139.39904048480767"
    y2="177.62574097899406"
    stroke="hsla(0,50%,50%,0.6)"
    stroke-width="1"
    transform="translate(138.0108202891,-123.8274172406) scale(1,-1) translate(50,-110)"
    />
  
  <line
    x1="-114.00456487619877"
    y1="150.11128388734502"
    x2="-127.91010857671913"
    y2="182.55062103959503"
    stroke="hsla(0,50%,50%,0.6)"
    stroke-width="1"
    transform="translate(138.0108202891,-123.8274172406) scale(1,-1) translate(50,-110)"
    />
  
  <line
    x1="-138.50213525816721"
    y1="88.9314648580837"
    x2="-149.01442349760282"
    y2="95.69473300085492"
    stroke="hsla(0,50%,50%,0.6)"
    stroke-width="1"
    transform="translate(138.0108202891,-123.8274172406) scale(1,-1) translate(50,-110)"
    />
  
  <line
    x1="-116.22313431727375"
    y1="123.56017905857739"
    x2="-114.00456487619877"
    y2="150.11128388734502"
    stroke="hsla(0,50%,50%,0.6)"
    stroke-width="1"
    transform="translate(138.0108202891,-123.8274172406) scale(1,-1) translate(50,-110)"
    />
  
  <line
    x1="-138.50213525816721"
    y1="88.9314648580837"
    x2="-116.22313431727375"
    y2="123.56017905857739"
    stroke="hsla(0,50%,50%,0.6)"
    stroke-width="1"
    transform="translate(138.0108202891,-123.8274172406) scale(1,-1) translate(50,-110)"
    />
  
  <line
    x1="-149.01442349760282"
    y1="95.69473300085492"
    x2="-114.00456487619877"
    y2="150.11128388734502"
    stroke="hsla(0,50%,50%,0.6)"
    stroke-width="1"
    transform="translate(138.0108202891,-123.8274172406) scale(1,-1) translate(50,-110)"
    />
  
  <line
    x1="-139.39904048480767"
    y1="177.62574097899406"
    x2="-127.91010857671913"
    y2="182.55062103959503"
    stroke="hsla(0,50%,50%,0.6)"
    stroke-width="1"
    transform="translate(138.0108202891,-123.8274172406) scale(1,-1) translate(50,-110)"
    />
  
</svg>
