<?xml version="1.0"?>
<!DOCTYPE svg PUBLIC "-//W3C//DTD SVG 1.1//EN"
  "http://www.w3.org/Graphics/SVG/1.1/DTD/svg11.dtd">
<svg
  width="240"
  height="240"
  viewBox="-50 -50 200 200" xmlns="http://www.w3.org/2000/svg" version="1.1">
  <rect
    x="0"
    y="0"
    width="100"
    height="100"
    fill="hsla(206,100%,53%,0.3)"
    stroke="hsl(206,100%,53%)"
    stroke-width="3"
    transform="" />
  
  <path
    d="M 
      -45.7786116322
      -41.8386491557
      L
    
      -40.1721664275
      -9.0387374461
      L
    
      -0.0000000000
      -0.0000000000
      L
    
      -0.0000000000
      0.0000000000
      L
    
      -21.9512195121
      97.5609756097
      L
    
      -65.0406504065
      -14.6341463414
      z
    "
    fill="hsla(0,0%,50%,0.3)"
    stroke="hsla(0,0%,50%,1)"
    stroke-width="1"
    transform="translate(40.6940918956,-15.4832524003) scale(1,-1) translate(50,-110)"
    />
  
  
  <line
    x1="-45.77861163227017"
    y1="-41.83864915572233"
    x2="-65.04065040650407"
    y2="-14.634146341463415"
    stroke="hsla(0,50%,50%,0.6)"
    stroke-width="1"
    transform="translate(40.6940918956,-15.4832524003) scale(1,-1) translate(50,-110)"
    />
  
  <line
    x1="-1.3241481762892028e-19"
    y1="-2.3944580059842696e-20"
    x2="-3.482862422023631e-19"
    y2="1.547938854232725e-18"
    stroke="hsla(0,50%,50%,0.6)"
    stroke-width="1"
    transform="translate(40.6940918956,-15.4832524003) scale(1,-1) translate(50,-110)"
    />
  
  <line
    x1="-6.569926814031234e-20"
    y1="-1.4782335331570276e-20"
    x2="-3.482862422023631e-19"
    y2="1.547938854232725e-18"
    stroke="hsla(0,50%,50%,0.6)"
    stroke-width="1"
    transform="translate(40.6940918956,-15.4832524003) scale(1,-1) translate(50,-110)"
    />
  
  <line
    x1="-1.3241481762892028e-19"
    y1="-2.3944580059842696e-20"
    x2="-6.569926814031234e-20"
    y2="-1.4782335331570276e-20"
    stroke="hsla(0,50%,50%,0.6)"
    stroke-width="1"
    transform="translate(40.6940918956,-15.4832524003) scale(1,-1) translate(50,-110)"
    />
  
  <line
    x1="-65.04065040650407"
    y1="-14.634146341463415"
    x2="-6.569926814031234e-20"
    y2="-1.4782335331570276e-20"
    stroke="hsla(0,50%,50%,0.6)"
    stroke-width="1"
    transform="translate(40.6940918956,-15.4832524003) scale(1,-1) translate(50,-110)"
    />
  
  <line
    x1="-3.482862422023631e-19"
    y1="1.547938854232725e-18"
    x2="-21.951219512195124"
    y2="97.5609756097561"
    stroke="hsla(0,50%,50%,0.6)"
    stroke-width="1"
    transform="translate(40.6940918956,-15.4832524003) scale(1,-1) translate(50,-110)"
    />
  
  <line
    x1="-45.77861163227017"
    y1="-41.83864915572233"
    x2="-21.951219512195124"
    y2="97.5609756097561"
    stroke="hsla(0,50%,50%,0.6)"
    stroke-width="1"
    transform="translate(40.6940918956,-15.4832524003) scale(1,-1) translate(50,-110)"
    />
  
  <line
    x1="-65.04065040650407"
    y1="-14.634146341463415"
    x2="-21.951219512195124"
    y2="97.5609756097561"
    stroke="hsla(0,50%,50%,0.6)"
    stroke-width="1"
    transform="translate(40.6940918956,-15.4832524003) scale(1,-1) translate(50,-110)"
    />
  
</svg>
