<?xml version="1.0"?>
<!DOCTYPE svg PUBLIC "-//W3C//DTD SVG 1.1//EN"
  "http://www.w3.org/Graphics/SVG/1.1/DTD/svg11.dtd">
<svg
  width="240"
  height="240"
  viewBox="-500 -500 1000 1000" xmlns="http://www.w3.org/2000/svg" version="1.1">
  <rect
    x="0"
    y="0"
    width="100"
    height="100"
    fill="hsla(206,100%,53%,0.3)"
    stroke="hsl(206,100%,53%)"
    stroke-width="3"
    transform="" />
  
  <path
    d="M 
      -72.4137931034
      -68.9655172413
      L
    
      45.9770114942
      -48.2758620689
      L
    
      59.4164456233
      -17.7718832891
      L
    
      28.3975659229
      -29.8174442190
      L
    
      0.0000000000
      -0.0000000000
      L
    
      -0.0000000000
      -0.0000000000
      z
    "
    fill="hsla(0,0%,50%,0.3)"
    stroke="hsla(0,0%,50%,1)"
    stroke-width="1"
    transform="translate(6.4986737400,34.4827586206)"
    />
  
  
  <line
    x1="-72.41379310344827"
    y1="-68.96551724137932"
    x2="45.97701149425287"
    y2="-48.275862068965516"
    stroke="hsla(0,50%,50%,0.6)"
    stroke-width="1"
    transform="translate(6.4986737400,34.4827586206)"
    />
  
  <line
    x1="-72.41379310344827"
    y1="-68.96551724137932"
    x2="59.41644562334218"
    y2="-17.77188328912467"
    stroke="hsla(0,50%,50%,0.6)"
    stroke-width="1"
    transform="translate(6.4986737400,34.4827586206)"
    />
  
  <line
    x1="45.97701149425287"
    y1="-48.275862068965516"
    x2="59.41644562334218"
    y2="-17.77188328912467"
    stroke="hsla(0,50%,50%,0.6)"
    stroke-width="1"
    transform="translate(6.4986737400,34.4827586206)"
    />
  
  <line
    x1="-1.509830611551432e-18"
    y1="-1.4379339157632684e-18"
    x2="8.60395404257288e-20"
    y2="-9.612883315683739e-20"
    stroke="hsla(0,50%,50%,0.6)"
    stroke-width="1"
    transform="translate(6.4986737400,34.4827586206)"
    />
  
  <line
    x1="-1.509830611551432e-18"
    y1="-1.4379339157632684e-18"
    x2="4.450747834505355e-20"
    y2="-4.673285226230622e-20"
    stroke="hsla(0,50%,50%,0.6)"
    stroke-width="1"
    transform="translate(6.4986737400,34.4827586206)"
    />
  
  <line
    x1="-72.41379310344827"
    y1="-68.96551724137932"
    x2="-1.509830611551432e-18"
    y2="-1.4379339157632684e-18"
    stroke="hsla(0,50%,50%,0.6)"
    stroke-width="1"
    transform="translate(6.4986737400,34.4827586206)"
    />
  
  <line
    x1="45.97701149425287"
    y1="-48.275862068965516"
    x2="4.450747834505355e-20"
    y2="-4.673285226230622e-20"
    stroke="hsla(0,50%,50%,0.6)"
    stroke-width="1"
    transform="translate(6.4986737400,34.4827586206)"
    />
  
  <line
    x1="8.60395404257288e-20"
    y1="-9.612883315683739e-20"
    x2="4.450747834505355e-20"
    y2="-4.673285226230622e-20"
    stroke="hsla(0,50%,50%,0.6)"
    stroke-width="1"
    transform="translate(6.4986737400,34.4827586206)"
    />
  
</svg>
