<?xml version="1.0"?>
<!DOCTYPE svg PUBLIC "-//W3C//DTD SVG 1.1//EN"
  "http://www.w3.org/Graphics/SVG/1.1/DTD/svg11.dtd">
<svg
  width="240"
  height="240"
  viewBox="-500 -500 1000 1000" xmlns="http://www.w3.org/2000/svg" version="1.1">
  <rect
    x="0"
    y="0"
    width="100"
    height="100"
    fill="hsla(206,100%,53%,0.3)"
    stroke="hsl(206,100%,53%)"
    stroke-width="3"
    transform="" />
  
  <path
    d="M 
      35.2201257861
      -56.6037735849
      L
    
      54.5718432510
      -29.4629898403
      L
    
      21.7536071032
      -34.9611542730
      L
    
      0.0000000000
      -0.0000000000
      L
    
      -0.0000000000
      -0.0000000000
      L
    
      -84.9056603773
      -52.8301886792
      z
    "
    fill="hsla(0,0%,50%,0.3)"
    stroke="hsla(0,0%,50%,1)"
    stroke-width="1"
    transform="translate(15.1669085631,28.3018867924)"
    />
  
  
  <line
    x1="35.22012578616352"
    y1="-56.60377358490566"
    x2="-84.90566037735849"
    y2="-52.83018867924528"
    stroke="hsla(0,50%,50%,0.6)"
    stroke-width="1"
    transform="translate(15.1669085631,28.3018867924)"
    />
  
  <line
    x1="-84.90566037735849"
    y1="-52.83018867924528"
    x2="54.57184325108853"
    y2="-29.46298984034833"
    stroke="hsla(0,50%,50%,0.6)"
    stroke-width="1"
    transform="translate(15.1669085631,28.3018867924)"
    />
  
  <line
    x1="35.22012578616352"
    y1="-56.60377358490566"
    x2="54.57184325108853"
    y2="-29.46298984034833"
    stroke="hsla(0,50%,50%,0.6)"
    stroke-width="1"
    transform="translate(15.1669085631,28.3018867924)"
    />
  
  <line
    x1="-1.4847564747975562e-18"
    y1="-9.238484732073682e-19"
    x2="5.623357592522946e-20"
    y2="-9.72001474519488e-20"
    stroke="hsla(0,50%,50%,0.6)"
    stroke-width="1"
    transform="translate(15.1669085631,28.3018867924)"
    />
  
  <line
    x1="-1.4847564747975562e-18"
    y1="-9.238484732073682e-19"
    x2="2.967803385432997e-20"
    y2="-4.769684012303031e-20"
    stroke="hsla(0,50%,50%,0.6)"
    stroke-width="1"
    transform="translate(15.1669085631,28.3018867924)"
    />
  
  <line
    x1="-84.90566037735849"
    y1="-52.83018867924528"
    x2="-1.4847564747975562e-18"
    y2="-9.238484732073682e-19"
    stroke="hsla(0,50%,50%,0.6)"
    stroke-width="1"
    transform="translate(15.1669085631,28.3018867924)"
    />
  
  <line
    x1="35.22012578616352"
    y1="-56.60377358490566"
    x2="2.967803385432997e-20"
    y2="-4.769684012303031e-20"
    stroke="hsla(0,50%,50%,0.6)"
    stroke-width="1"
    transform="translate(15.1669085631,28.3018867924)"
    />
  
  <line
    x1="5.623357592522946e-20"
    y1="-9.72001474519488e-20"
    x2="2.967803385432997e-20"
    y2="-4.769684012303031e-20"
    stroke="hsla(0,50%,50%,0.6)"
    stroke-width="1"
    transform="translate(15.1669085631,28.3018867924)"
    />
  
</svg>
