<?xml version="1.0"?>
<!DOCTYPE svg PUBLIC "-//W3C//DTD SVG 1.1//EN"
  "http://www.w3.org/Graphics/SVG/1.1/DTD/svg11.dtd">
<svg
  width="240"
  height="240"
  viewBox="-50 -50 200 200" xmlns="http://www.w3.org/2000/svg" version="1.1">
  <rect
    x="0"
    y="0"
    width="100"
    height="100"
    fill="hsla(206,100%,53%,0.3)"
    stroke="hsl(206,100%,53%)"
    stroke-width="3"
    transform="" />
  
  <path
    d="M 
      -50.7692307692
      -86.1538461538
      L
    
      57.4358974358
      -33.8461538461
      L
    
      62.0118343195
      -0.8284023668
      L
    
      35.4751131221
      -20.9049773755
      L
    
      0.0000000000
      -0.0000000000
      L
    
      -0.0000000000
      -0.0000000000
      z
    "
    fill="hsla(0,0%,50%,0.3)"
    stroke="hsla(0,0%,50%,1)"
    stroke-width="1"
    transform="translate(-8.5184621185,6.4148973198) scale(1,-1) translate(50,-110)"
    />
  
  
  <line
    x1="-50.76923076923077"
    y1="-86.15384615384616"
    x2="57.43589743589744"
    y2="-33.84615384615385"
    stroke="hsla(0,50%,50%,0.6)"
    stroke-width="1"
    transform="translate(-8.5184621185,6.4148973198) scale(1,-1) translate(50,-110)"
    />
  
  <line
    x1="-50.76923076923077"
    y1="-86.15384615384616"
    x2="62.01183431952663"
    y2="-0.8284023668639053"
    stroke="hsla(0,50%,50%,0.6)"
    stroke-width="1"
    transform="translate(-8.5184621185,6.4148973198) scale(1,-1) translate(50,-110)"
    />
  
  <line
    x1="57.43589743589744"
    y1="-33.84615384615385"
    x2="62.01183431952663"
    y2="-0.8284023668639053"
    stroke="hsla(0,50%,50%,0.6)"
    stroke-width="1"
    transform="translate(-8.5184621185,6.4148973198) scale(1,-1) translate(50,-110)"
    />
  
  <line
    x1="-9.397774928485986e-19"
    y1="-1.594773927258228e-18"
    x2="9.308688399311777e-20"
    y2="-5.864997582110436e-20"
    stroke="hsla(0,50%,50%,0.6)"
    stroke-width="1"
    transform="translate(-8.5184621185,6.4148973198) scale(1,-1) translate(50,-110)"
    />
  
  <line
    x1="-9.397774928485986e-19"
    y1="-1.594773927258228e-18"
    x2="4.741532343552382e-20"
    y2="-2.794117273879082e-20"
    stroke="hsla(0,50%,50%,0.6)"
    stroke-width="1"
    transform="translate(-8.5184621185,6.4148973198) scale(1,-1) translate(50,-110)"
    />
  
  <line
    x1="-50.76923076923077"
    y1="-86.15384615384616"
    x2="-9.397774928485986e-19"
    y2="-1.594773927258228e-18"
    stroke="hsla(0,50%,50%,0.6)"
    stroke-width="1"
    transform="translate(-8.5184621185,6.4148973198) scale(1,-1) translate(50,-110)"
    />
  
  <line
    x1="57.43589743589744"
    y1="-33.84615384615385"
    x2="4.741532343552382e-20"
    y2="-2.794117273879082e-20"
    stroke="hsla(0,50%,50%,0.6)"
    stroke-width="1"
    transform="translate(-8.5184621185,6.4148973198) scale(1,-1) translate(50,-110)"
    />
  
  <line
    x1="9.308688399311777e-20"
    y1="-5.864997582110436e-20"
    x2="4.741532343552382e-20"
    y2="-2.794117273879082e-20"
    stroke="hsla(0,50%,50%,0.6)"
    stroke-width="1"
    transform="translate(-8.5184621185,6.4148973198) scale(1,-1) translate(50,-110)"
    />
  
</svg>
