<?xml version="1.0"?>
<!DOCTYPE svg PUBLIC "-//W3C//DTD SVG 1.1//EN"
  "http://www.w3.org/Graphics/SVG/1.1/DTD/svg11.dtd">
<svg
  width="240"
  height="240"
  viewBox="-500 -500 1000 1000" xmlns="http://www.w3.org/2000/svg" version="1.1">
  <rect
    x="0"
    y="0"
    width="100"
    height="100"
    fill="hsla(206,100%,53%,0.3)"
    stroke="hsl(206,100%,53%)"
    stroke-width="3"
    transform="" />
  
  <path
    d="M 
      23.75
      0
      L
    
      27.1825396825
      0
      L
    
      36.2413068675
      12.5429084100
      L
    
      59.1467356173
      100
      L
    
      25.7072969159
      118.8058681437
      L
    
      24.4972128822
      120.1346835408
      L
    
      24.0571137657
      119.7339078459
      L
    
      26.3002288137
      100
      L
    
      0
      100
      L
    
      0
      26.3888888888
      z
    "
    fill="hsla(0,0%,50%,0.3)"
    stroke="hsla(0,0%,50%,1)"
    stroke-width="1"
    transform="translate(-29.5733678086,-60.0673417704)"
    />
  
  
  <line
    x1="27.182539682539684"
    y1="0"
    x2="36.241306867574615"
    y2="12.54290841004837"
    stroke="hsla(0,50%,50%,0.6)"
    stroke-width="1"
    transform="translate(-29.5733678086,-60.0673417704)"
    />
  
  <line
    x1="36.241306867574615"
    y1="12.54290841004837"
    x2="59.146735617323856"
    y2="100"
    stroke="hsla(0,50%,50%,0.6)"
    stroke-width="1"
    transform="translate(-29.5733678086,-60.0673417704)"
    />
  
  <line
    x1="23.75"
    y1="0"
    x2="26.243093922651934"
    y2="23.61878453038674"
    stroke="hsla(0,50%,50%,0.6)"
    stroke-width="1"
    transform="translate(-29.5733678086,-60.0673417704)"
    />
  
  <line
    x1="23.75"
    y1="0"
    x2="27.182539682539684"
    y2="0"
    stroke="hsla(0,50%,50%,0.6)"
    stroke-width="1"
    transform="translate(-29.5733678086,-60.0673417704)"
    />
  
  <line
    x1="0"
    y1="26.38888888888889"
    x2="0"
    y2="100"
    stroke="hsla(0,50%,50%,0.6)"
    stroke-width="1"
    transform="translate(-29.5733678086,-60.0673417704)"
    />
  
  <line
    x1="36.241306867574615"
    y1="12.54290841004837"
    x2="24.057113765726655"
    y2="119.73390784593781"
    stroke="hsla(0,50%,50%,0.6)"
    stroke-width="1"
    transform="translate(-29.5733678086,-60.0673417704)"
    />
  
  <line
    x1="27.182539682539684"
    y1="0"
    x2="4.288611996522747"
    y2="69.12489133584468"
    stroke="hsla(0,50%,50%,0.6)"
    stroke-width="1"
    transform="translate(-29.5733678086,-60.0673417704)"
    />
  
  <line
    x1="23.75"
    y1="0"
    x2="0"
    y2="26.38888888888889"
    stroke="hsla(0,50%,50%,0.6)"
    stroke-width="1"
    transform="translate(-29.5733678086,-60.0673417704)"
    />
  
  <line
    x1="26.243093922651934"
    y1="23.61878453038674"
    x2="0"
    y2="26.38888888888889"
    stroke="hsla(0,50%,50%,0.6)"
    stroke-width="1"
    transform="translate(-29.5733678086,-60.0673417704)"
    />
  
  <line
    x1="24.057113765726655"
    y1="119.73390784593781"
    x2="24.49721288229636"
    y2="120.13468354083115"
    stroke="hsla(0,50%,50%,0.6)"
    stroke-width="1"
    transform="translate(-29.5733678086,-60.0673417704)"
    />
  
  <line
    x1="4.288611996522747"
    y1="69.12489133584468"
    x2="55.50281836315385"
    y2="86.08686139316909"
    stroke="hsla(0,50%,50%,0.6)"
    stroke-width="1"
    transform="translate(-29.5733678086,-60.0673417704)"
    />
  
  <line
    x1="55.50281836315385"
    y1="86.08686139316909"
    x2="24.49721288229636"
    y2="120.13468354083115"
    stroke="hsla(0,50%,50%,0.6)"
    stroke-width="1"
    transform="translate(-29.5733678086,-60.0673417704)"
    />
  
  <line
    x1="0"
    y1="100"
    x2="59.146735617323856"
    y2="100"
    stroke="hsla(0,50%,50%,0.6)"
    stroke-width="1"
    transform="translate(-29.5733678086,-60.0673417704)"
    />
  
  <line
    x1="59.146735617323856"
    y1="100"
    x2="24.057113765726655"
    y2="119.73390784593781"
    stroke="hsla(0,50%,50%,0.6)"
    stroke-width="1"
    transform="translate(-29.5733678086,-60.0673417704)"
    />
  
</svg>
