<?xml version="1.0"?>
<!DOCTYPE svg PUBLIC "-//W3C//DTD SVG 1.1//EN"
  "http://www.w3.org/Graphics/SVG/1.1/DTD/svg11.dtd">
<svg
  width="240"
  height="240"
  viewBox="-500 -500 1000 1000" xmlns="http://www.w3.org/2000/svg" version="1.1">
  <rect
    x="0"
    y="0"
    width="100"
    height="100"
    fill="hsla(206,100%,53%,0.3)"
    stroke="hsl(206,100%,53%)"
    stroke-width="3"
    transform="" />
  
  <path
    d="M 
      -62.4852071005
      406.4644970414
      L
    
      -51.5502958579
      412.5207100591
      L
    
      -72.7414750478
      450.7828489383
      L
    
      -50.2299535370
      495.0034497987
      L
    
      -61.3695723691
      500.6743308832
      L
    
      -80.0501218238
      463.9791159067
      L
    
      -79.5851026801
      437.3395405499
      z
    "
    fill="hsla(0,0%,50%,0.3)"
    stroke="hsla(0,0%,50%,1)"
    stroke-width="1"
    transform="translate(65.1400376804,-453.5694139623)"
    />
  
  
  <line
    x1="-79.5851026801253"
    y1="437.3395405499478"
    x2="-80.05012182387748"
    y2="463.9791159067177"
    stroke="hsla(0,50%,50%,0.6)"
    stroke-width="1"
    transform="translate(65.1400376804,-453.5694139623)"
    />
  
  <line
    x1="-62.485207100591715"
    y1="406.46449704142015"
    x2="-79.5851026801253"
    y2="437.3395405499478"
    stroke="hsla(0,50%,50%,0.6)"
    stroke-width="1"
    transform="translate(65.1400376804,-453.5694139623)"
    />
  
  <line
    x1="-51.55029585798817"
    y1="412.5207100591716"
    x2="-80.05012182387748"
    y2="463.9791159067177"
    stroke="hsla(0,50%,50%,0.6)"
    stroke-width="1"
    transform="translate(65.1400376804,-453.5694139623)"
    />
  
  <line
    x1="-79.5851026801253"
    y1="437.3395405499478"
    x2="-50.2299535370014"
    y2="495.00344979878054"
    stroke="hsla(0,50%,50%,0.6)"
    stroke-width="1"
    transform="translate(65.1400376804,-453.5694139623)"
    />
  
  <line
    x1="-80.05012182387748"
    y1="463.9791159067177"
    x2="-61.36957236916227"
    y2="500.67433088324765"
    stroke="hsla(0,50%,50%,0.6)"
    stroke-width="1"
    transform="translate(65.1400376804,-453.5694139623)"
    />
  
  <line
    x1="-62.485207100591715"
    y1="406.46449704142015"
    x2="-51.55029585798817"
    y2="412.5207100591716"
    stroke="hsla(0,50%,50%,0.6)"
    stroke-width="1"
    transform="translate(65.1400376804,-453.5694139623)"
    />
  
  <line
    x1="-50.2299535370014"
    y1="495.00344979878054"
    x2="-61.36957236916227"
    y2="500.67433088324765"
    stroke="hsla(0,50%,50%,0.6)"
    stroke-width="1"
    transform="translate(65.1400376804,-453.5694139623)"
    />
  
</svg>
