<?xml version="1.0"?>
<!DOCTYPE svg PUBLIC "-//W3C//DTD SVG 1.1//EN"
  "http://www.w3.org/Graphics/SVG/1.1/DTD/svg11.dtd">
<svg
  width="240"
  height="240"
  viewBox="-50 -50 200 200" xmlns="http://www.w3.org/2000/svg" version="1.1">
  <rect
    x="0"
    y="0"
    width="100"
    height="100"
    fill="hsla(206,100%,53%,0.3)"
    stroke="hsl(206,100%,53%)"
    stroke-width="3"
    transform="" />
  
  <path
    d="M 
      -38.4615384615
      420.1923076923
      L
    
      -29.5857988165
      428.9940828402
      L
    
      -60.3839219674
      460.0510137486
      L
    
      -50.7469681879
      508.7270783291
      L
    
      -63.0089636182
      511.1547249399
      L
    
      -71.0059171597
      470.7622694048
      L
    
      -63.3136094674
      445.2532196310
      z
    "
    fill="hsla(0,0%,50%,0.3)"
    stroke="hsla(0,0%,50%,1)"
    stroke-width="1"
    transform="translate(63.4063271941,-463.6520917115) scale(1,-1) translate(50,-110)"
    />
  
  
  <line
    x1="-63.31360946745562"
    y1="445.25321963104767"
    x2="-71.00591715976331"
    y2="470.76226940480336"
    stroke="hsla(0,50%,50%,0.6)"
    stroke-width="1"
    transform="translate(63.4063271941,-463.6520917115) scale(1,-1) translate(50,-110)"
    />
  
  <line
    x1="-63.31360946745562"
    y1="445.25321963104767"
    x2="-50.746968187943054"
    y2="508.7270783291347"
    stroke="hsla(0,50%,50%,0.6)"
    stroke-width="1"
    transform="translate(63.4063271941,-463.6520917115) scale(1,-1) translate(50,-110)"
    />
  
  <line
    x1="-71.00591715976331"
    y1="470.76226940480336"
    x2="-63.008963618255315"
    y2="511.15472493994963"
    stroke="hsla(0,50%,50%,0.6)"
    stroke-width="1"
    transform="translate(63.4063271941,-463.6520917115) scale(1,-1) translate(50,-110)"
    />
  
  <line
    x1="-38.46153846153846"
    y1="420.1923076923077"
    x2="-63.31360946745562"
    y2="445.25321963104767"
    stroke="hsla(0,50%,50%,0.6)"
    stroke-width="1"
    transform="translate(63.4063271941,-463.6520917115) scale(1,-1) translate(50,-110)"
    />
  
  <line
    x1="-29.585798816568047"
    y1="428.9940828402367"
    x2="-71.00591715976331"
    y2="470.76226940480336"
    stroke="hsla(0,50%,50%,0.6)"
    stroke-width="1"
    transform="translate(63.4063271941,-463.6520917115) scale(1,-1) translate(50,-110)"
    />
  
  <line
    x1="-38.46153846153846"
    y1="420.1923076923077"
    x2="-29.585798816568047"
    y2="428.9940828402367"
    stroke="hsla(0,50%,50%,0.6)"
    stroke-width="1"
    transform="translate(63.4063271941,-463.6520917115) scale(1,-1) translate(50,-110)"
    />
  
  <line
    x1="-50.746968187943054"
    y1="508.7270783291347"
    x2="-63.008963618255315"
    y2="511.15472493994963"
    stroke="hsla(0,50%,50%,0.6)"
    stroke-width="1"
    transform="translate(63.4063271941,-463.6520917115) scale(1,-1) translate(50,-110)"
    />
  
</svg>
