<?xml version="1.0"?>
<!DOCTYPE svg PUBLIC "-//W3C//DTD SVG 1.1//EN"
  "http://www.w3.org/Graphics/SVG/1.1/DTD/svg11.dtd">
<svg
  width="240"
  height="240"
  viewBox="-50 -50 200 200" xmlns="http://www.w3.org/2000/svg" version="1.1">
  <rect
    x="0"
    y="0"
    width="100"
    height="100"
    fill="hsla(206,100%,53%,0.3)"
    stroke="hsl(206,100%,53%)"
    stroke-width="3"
    transform="" />
  
  <path
    d="M 
      -104.8751486325
      400.1189060642
      L
    
      -102.7428312102
      443.8054093516
      L
    
      -60.3198781416
      469.5449352627
      L
    
      -66.8039263452
      480.2317083441
      L
    
      -102.0074141428
      458.8724907323
      L
    
      -115.6396446807
      435.9804504441
      L
    
      -117.3602853745
      400.7282996432
      z
    "
    fill="hsla(0,0%,50%,0.3)"
    stroke="hsla(0,0%,50%,1)"
    stroke-width="1"
    transform="translate(109.6452531488,-424.5924022010) scale(1,-1) translate(50,-110)"
    />
  
  
  <line
    x1="-104.87514863258026"
    y1="400.1189060642093"
    x2="-102.00741414282717"
    y2="458.87249073232147"
    stroke="hsla(0,50%,50%,0.6)"
    stroke-width="1"
    transform="translate(109.6452531488,-424.5924022010) scale(1,-1) translate(50,-110)"
    />
  
  <line
    x1="-117.3602853745541"
    y1="400.7282996432818"
    x2="-115.63964468070225"
    y2="435.98045044414914"
    stroke="hsla(0,50%,50%,0.6)"
    stroke-width="1"
    transform="translate(109.6452531488,-424.5924022010) scale(1,-1) translate(50,-110)"
    />
  
  <line
    x1="-60.31987814166032"
    y1="469.54493526275706"
    x2="-66.80392634525504"
    y2="480.2317083441629"
    stroke="hsla(0,50%,50%,0.6)"
    stroke-width="1"
    transform="translate(109.6452531488,-424.5924022010) scale(1,-1) translate(50,-110)"
    />
  
  <line
    x1="-115.63964468070225"
    y1="435.98045044414914"
    x2="-102.00741414282717"
    y2="458.87249073232147"
    stroke="hsla(0,50%,50%,0.6)"
    stroke-width="1"
    transform="translate(109.6452531488,-424.5924022010) scale(1,-1) translate(50,-110)"
    />
  
  <line
    x1="-115.63964468070225"
    y1="435.98045044414914"
    x2="-60.31987814166032"
    y2="469.54493526275706"
    stroke="hsla(0,50%,50%,0.6)"
    stroke-width="1"
    transform="translate(109.6452531488,-424.5924022010) scale(1,-1) translate(50,-110)"
    />
  
  <line
    x1="-102.00741414282717"
    y1="458.87249073232147"
    x2="-66.80392634525504"
    y2="480.2317083441629"
    stroke="hsla(0,50%,50%,0.6)"
    stroke-width="1"
    transform="translate(109.6452531488,-424.5924022010) scale(1,-1) translate(50,-110)"
    />
  
  <line
    x1="-104.87514863258026"
    y1="400.1189060642093"
    x2="-117.3602853745541"
    y2="400.7282996432818"
    stroke="hsla(0,50%,50%,0.6)"
    stroke-width="1"
    transform="translate(109.6452531488,-424.5924022010) scale(1,-1) translate(50,-110)"
    />
  
</svg>
