<?xml version="1.0"?>
<!DOCTYPE svg PUBLIC "-//W3C//DTD SVG 1.1//EN"
  "http://www.w3.org/Graphics/SVG/1.1/DTD/svg11.dtd">
<svg
  width="240"
  height="240"
  viewBox="-500 -500 1000 1000" xmlns="http://www.w3.org/2000/svg" version="1.1">
  <rect
    x="0"
    y="0"
    width="100"
    height="100"
    fill="hsla(206,100%,53%,0.3)"
    stroke="hsl(206,100%,53%)"
    stroke-width="3"
    transform="" />
  
  <path
    d="M 
      -155.7093425605
      416.9550173010
      L
    
      -131.3429056202
      453.2776562181
      L
    
      -81.7223031858
      453.4387624948
      L
    
      -81.7628874944
      465.9386966112
      L
    
      -122.9391410543
      465.8050071239
      L
    
      -146.4278444941
      453.2286790148
      L
    
      -166.0899653979
      423.9186851211
      z
    "
    fill="hsla(0,0%,50%,0.3)"
    stroke="hsla(0,0%,50%,1)"
    stroke-width="1"
    transform="translate(123.9061342918,-441.4468569561)"
    />
  
  
  <line
    x1="-81.72230318586823"
    y1="453.43876249482815"
    x2="-81.76288749449871"
    y2="465.9386966112102"
    stroke="hsla(0,50%,50%,0.6)"
    stroke-width="1"
    transform="translate(123.9061342918,-441.4468569561)"
    />
  
  <line
    x1="-155.70934256055364"
    y1="416.9550173010381"
    x2="-122.93914105434561"
    y2="465.80500712395684"
    stroke="hsla(0,50%,50%,0.6)"
    stroke-width="1"
    transform="translate(123.9061342918,-441.4468569561)"
    />
  
  <line
    x1="-166.08996539792386"
    y1="423.9186851211073"
    x2="-146.42784449419906"
    y2="453.2286790148585"
    stroke="hsla(0,50%,50%,0.6)"
    stroke-width="1"
    transform="translate(123.9061342918,-441.4468569561)"
    />
  
  <line
    x1="-155.70934256055364"
    y1="416.9550173010381"
    x2="-166.08996539792386"
    y2="423.9186851211073"
    stroke="hsla(0,50%,50%,0.6)"
    stroke-width="1"
    transform="translate(123.9061342918,-441.4468569561)"
    />
  
  <line
    x1="-146.42784449419906"
    y1="453.2286790148585"
    x2="-122.93914105434561"
    y2="465.80500712395684"
    stroke="hsla(0,50%,50%,0.6)"
    stroke-width="1"
    transform="translate(123.9061342918,-441.4468569561)"
    />
  
  <line
    x1="-146.42784449419906"
    y1="453.2286790148585"
    x2="-81.72230318586823"
    y2="453.43876249482815"
    stroke="hsla(0,50%,50%,0.6)"
    stroke-width="1"
    transform="translate(123.9061342918,-441.4468569561)"
    />
  
  <line
    x1="-122.93914105434561"
    y1="465.80500712395684"
    x2="-81.76288749449871"
    y2="465.9386966112102"
    stroke="hsla(0,50%,50%,0.6)"
    stroke-width="1"
    transform="translate(123.9061342918,-441.4468569561)"
    />
  
</svg>
