<?xml version="1.0"?>
<!DOCTYPE svg PUBLIC "-//W3C//DTD SVG 1.1//EN"
  "http://www.w3.org/Graphics/SVG/1.1/DTD/svg11.dtd">
<svg
  width="240"
  height="240"
  viewBox="-50 -50 200 200" xmlns="http://www.w3.org/2000/svg" version="1.1">
  <rect
    x="0"
    y="0"
    width="100"
    height="100"
    fill="hsla(206,100%,53%,0.3)"
    stroke="hsl(206,100%,53%)"
    stroke-width="3"
    transform="" />
  
  <path
    d="M 
      60.0000001513
      -120
      L
    
      75.0000001513
      -100
      L
    
      100.0000001513
      -100
      L
    
      50.0000001513
      -50
      L
    
      0.0000001513
      -50
      L
    
      0.0000001513
      -100
      L
    
      57.1428572941
      -100
      z
    "
    fill="hsla(0,0%,50%,0.3)"
    stroke="hsla(0,0%,50%,1)"
    stroke-width="1"
    transform="translate(-36.9308037227,90.9375) scale(1,-1) translate(50,-110)"
    />
  
  
  <line
    x1="1.5133991839263354e-7"
    y1="-100"
    x2="100.00000015133992"
    y2="-100"
    stroke="hsla(0,50%,50%,0.6)"
    stroke-width="1"
    transform="translate(-36.9308037227,90.9375) scale(1,-1) translate(50,-110)"
    />
  
  <line
    x1="60.00000015133992"
    y1="-120"
    x2="75.00000015133992"
    y2="-100"
    stroke="hsla(0,50%,50%,0.6)"
    stroke-width="1"
    transform="translate(-36.9308037227,90.9375) scale(1,-1) translate(50,-110)"
    />
  
  <line
    x1="1.5133991839263354e-7"
    y1="-50"
    x2="50.00000015133992"
    y2="-50"
    stroke="hsla(0,50%,50%,0.6)"
    stroke-width="1"
    transform="translate(-36.9308037227,90.9375) scale(1,-1) translate(50,-110)"
    />
  
  <line
    x1="1.5133991839263354e-7"
    y1="-100"
    x2="1.5133991839263354e-7"
    y2="-50"
    stroke="hsla(0,50%,50%,0.6)"
    stroke-width="1"
    transform="translate(-36.9308037227,90.9375) scale(1,-1) translate(50,-110)"
    />
  
  <line
    x1="50.00000015133992"
    y1="-100"
    x2="50.00000015133992"
    y2="-50"
    stroke="hsla(0,50%,50%,0.6)"
    stroke-width="1"
    transform="translate(-36.9308037227,90.9375) scale(1,-1) translate(50,-110)"
    />
  
  <line
    x1="100.00000015133992"
    y1="-100"
    x2="50.00000015133992"
    y2="-50"
    stroke="hsla(0,50%,50%,0.6)"
    stroke-width="1"
    transform="translate(-36.9308037227,90.9375) scale(1,-1) translate(50,-110)"
    />
  
  <line
    x1="60.00000015133992"
    y1="-120"
    x2="50.00000015133992"
    y2="-50"
    stroke="hsla(0,50%,50%,0.6)"
    stroke-width="1"
    transform="translate(-36.9308037227,90.9375) scale(1,-1) translate(50,-110)"
    />
  
  <line
    x1="75.00000015133992"
    y1="-100"
    x2="50.00000015133992"
    y2="-50"
    stroke="hsla(0,50%,50%,0.6)"
    stroke-width="1"
    transform="translate(-36.9308037227,90.9375) scale(1,-1) translate(50,-110)"
    />
  
</svg>
