<?xml version="1.0"?>
<!DOCTYPE svg PUBLIC "-//W3C//DTD SVG 1.1//EN"
  "http://www.w3.org/Graphics/SVG/1.1/DTD/svg11.dtd">
<svg
  width="240"
  height="240"
  viewBox="-50 -50 200 200" xmlns="http://www.w3.org/2000/svg" version="1.1">
  <rect
    x="0"
    y="0"
    width="100"
    height="100"
    fill="hsla(206,100%,53%,0.3)"
    stroke="hsl(206,100%,53%)"
    stroke-width="3"
    transform="" />
  
  <path
    d="M 
      -170.4142011834
      428.9940828402
      L
    
      -139.6160780325
      460.0510137486
      L
    
      -90.8610751835
      450.8217213391
      L
    
      -88.5361226154
      463.1036021217
      L
    
      -128.9940828402
      470.7622694048
      L
    
      -154.4378698224
      462.8567699269
      L
    
      -179.2899408284
      437.7958579881
      z
    "
    fill="hsla(0,0%,50%,0.3)"
    stroke="hsla(0,0%,50%,1)"
    stroke-width="1"
    transform="translate(157.5958376005,-450.3808887100) scale(1,-1) translate(50,-110)"
    />
  
  
  <line
    x1="-90.8610751835311"
    y1="450.8217213391799"
    x2="-88.53612261544771"
    y2="463.10360212170514"
    stroke="hsla(0,50%,50%,0.6)"
    stroke-width="1"
    transform="translate(157.5958376005,-450.3808887100) scale(1,-1) translate(50,-110)"
    />
  
  <line
    x1="-170.41420118343194"
    y1="428.9940828402367"
    x2="-179.28994082840237"
    y2="437.79585798816566"
    stroke="hsla(0,50%,50%,0.6)"
    stroke-width="1"
    transform="translate(157.5958376005,-450.3808887100) scale(1,-1) translate(50,-110)"
    />
  
  <line
    x1="-170.41420118343194"
    y1="428.9940828402367"
    x2="-128.9940828402367"
    y2="470.76226940480336"
    stroke="hsla(0,50%,50%,0.6)"
    stroke-width="1"
    transform="translate(157.5958376005,-450.3808887100) scale(1,-1) translate(50,-110)"
    />
  
  <line
    x1="-179.28994082840237"
    y1="437.79585798816566"
    x2="-154.4378698224852"
    y2="462.85676992690566"
    stroke="hsla(0,50%,50%,0.6)"
    stroke-width="1"
    transform="translate(157.5958376005,-450.3808887100) scale(1,-1) translate(50,-110)"
    />
  
  <line
    x1="-90.8610751835311"
    y1="450.8217213391799"
    x2="-154.4378698224852"
    y2="462.85676992690566"
    stroke="hsla(0,50%,50%,0.6)"
    stroke-width="1"
    transform="translate(157.5958376005,-450.3808887100) scale(1,-1) translate(50,-110)"
    />
  
  <line
    x1="-88.53612261544771"
    y1="463.10360212170514"
    x2="-128.9940828402367"
    y2="470.76226940480336"
    stroke="hsla(0,50%,50%,0.6)"
    stroke-width="1"
    transform="translate(157.5958376005,-450.3808887100) scale(1,-1) translate(50,-110)"
    />
  
  <line
    x1="-154.4378698224852"
    y1="462.85676992690566"
    x2="-128.9940828402367"
    y2="470.76226940480336"
    stroke="hsla(0,50%,50%,0.6)"
    stroke-width="1"
    transform="translate(157.5958376005,-450.3808887100) scale(1,-1) translate(50,-110)"
    />
  
</svg>
