<?xml version="1.0"?>
<!DOCTYPE svg PUBLIC "-//W3C//DTD SVG 1.1//EN"
  "http://www.w3.org/Graphics/SVG/1.1/DTD/svg11.dtd">
<svg
  width="240"
  height="240"
  viewBox="-500 -500 1000 1000" xmlns="http://www.w3.org/2000/svg" version="1.1">
  <rect
    x="0"
    y="0"
    width="100"
    height="100"
    fill="hsla(206,100%,53%,0.3)"
    stroke="hsl(206,100%,53%)"
    stroke-width="3"
    transform="" />
  
  <path
    d="M 
      -107.6099881093
      399.5095124851
      L
    
      -95.1248513674
      400.1189060642
      L
    
      -97.2571687897
      443.8054093516
      L
    
      -57.5425657447
      473.5540302635
      L
    
      -65.0365457290
      483.5585424452
      L
    
      -97.9925858571
      458.8724907323
      L
    
      -109.3306288032
      434.7616632860
      z
    "
    fill="hsla(0,0%,50%,0.3)"
    stroke="hsla(0,0%,50%,1)"
    stroke-width="1"
    transform="translate(83.4365972739,-441.5340274652)"
    />
  
  
  <line
    x1="-107.60998810939358"
    y1="399.5095124851367"
    x2="-109.33062880324543"
    y2="434.7616632860041"
    stroke="hsla(0,50%,50%,0.6)"
    stroke-width="1"
    transform="translate(83.4365972739,-441.5340274652)"
    />
  
  <line
    x1="-95.12485136741974"
    y1="400.1189060642093"
    x2="-97.99258585717283"
    y2="458.87249073232147"
    stroke="hsla(0,50%,50%,0.6)"
    stroke-width="1"
    transform="translate(83.4365972739,-441.5340274652)"
    />
  
  <line
    x1="-109.33062880324543"
    y1="434.7616632860041"
    x2="-97.99258585717283"
    y2="458.87249073232147"
    stroke="hsla(0,50%,50%,0.6)"
    stroke-width="1"
    transform="translate(83.4365972739,-441.5340274652)"
    />
  
  <line
    x1="-57.5425657447296"
    y1="473.55403026354037"
    x2="-65.03654572902639"
    y2="483.5585424452991"
    stroke="hsla(0,50%,50%,0.6)"
    stroke-width="1"
    transform="translate(83.4365972739,-441.5340274652)"
    />
  
  <line
    x1="-109.33062880324543"
    y1="434.7616632860041"
    x2="-57.5425657447296"
    y2="473.55403026354037"
    stroke="hsla(0,50%,50%,0.6)"
    stroke-width="1"
    transform="translate(83.4365972739,-441.5340274652)"
    />
  
  <line
    x1="-97.99258585717283"
    y1="458.87249073232147"
    x2="-65.03654572902639"
    y2="483.5585424452991"
    stroke="hsla(0,50%,50%,0.6)"
    stroke-width="1"
    transform="translate(83.4365972739,-441.5340274652)"
    />
  
  <line
    x1="-107.60998810939358"
    y1="399.5095124851367"
    x2="-95.12485136741974"
    y2="400.1189060642093"
    stroke="hsla(0,50%,50%,0.6)"
    stroke-width="1"
    transform="translate(83.4365972739,-441.5340274652)"
    />
  
</svg>
