<?xml version="1.0"?>
<!DOCTYPE svg PUBLIC "-//W3C//DTD SVG 1.1//EN"
  "http://www.w3.org/Graphics/SVG/1.1/DTD/svg11.dtd">
<svg
  width="240"
  height="240"
  viewBox="-500 -500 1000 1000" xmlns="http://www.w3.org/2000/svg" version="1.1">
  <rect
    x="0"
    y="0"
    width="100"
    height="100"
    fill="hsla(206,100%,53%,0.3)"
    stroke="hsl(206,100%,53%)"
    stroke-width="3"
    transform="" />
  
  <path
    d="M 
      -128
      404
      L
    
      -115.7532169117
      445.9889705882
      L
    
      -68.5026656511
      461.1420411271
      L
    
      -72.3198781416
      473.0449352627
      L
    
      -111.5294117647
      460.4705882352
      L
    
      -130.1176470588
      441.3823529411
      L
    
      -140
      407.5
      z
    "
    fill="hsla(0,0%,50%,0.3)"
    stroke="hsla(0,0%,50%,1)"
    stroke-width="1"
    transform="translate(104.2513328255,-438.5224676313)"
    />
  
  
  <line
    x1="-68.50266565118051"
    y1="461.14204112718966"
    x2="-72.31987814166033"
    y2="473.04493526275706"
    stroke="hsla(0,50%,50%,0.6)"
    stroke-width="1"
    transform="translate(104.2513328255,-438.5224676313)"
    />
  
  <line
    x1="-128"
    y1="404"
    x2="-111.52941176470588"
    y2="460.47058823529414"
    stroke="hsla(0,50%,50%,0.6)"
    stroke-width="1"
    transform="translate(104.2513328255,-438.5224676313)"
    />
  
  <line
    x1="-140"
    y1="407.5"
    x2="-130.11764705882354"
    y2="441.38235294117646"
    stroke="hsla(0,50%,50%,0.6)"
    stroke-width="1"
    transform="translate(104.2513328255,-438.5224676313)"
    />
  
  <line
    x1="-130.11764705882354"
    y1="441.38235294117646"
    x2="-111.52941176470588"
    y2="460.47058823529414"
    stroke="hsla(0,50%,50%,0.6)"
    stroke-width="1"
    transform="translate(104.2513328255,-438.5224676313)"
    />
  
  <line
    x1="-128"
    y1="404"
    x2="-140"
    y2="407.5"
    stroke="hsla(0,50%,50%,0.6)"
    stroke-width="1"
    transform="translate(104.2513328255,-438.5224676313)"
    />
  
  <line
    x1="-130.11764705882354"
    y1="441.38235294117646"
    x2="-68.50266565118051"
    y2="461.14204112718966"
    stroke="hsla(0,50%,50%,0.6)"
    stroke-width="1"
    transform="translate(104.2513328255,-438.5224676313)"
    />
  
  <line
    x1="-111.52941176470588"
    y1="460.47058823529414"
    x2="-72.31987814166033"
    y2="473.04493526275706"
    stroke="hsla(0,50%,50%,0.6)"
    stroke-width="1"
    transform="translate(104.2513328255,-438.5224676313)"
    />
  
</svg>
