<?xml version="1.0"?>
<!DOCTYPE svg PUBLIC "-//W3C//DTD SVG 1.1//EN"
  "http://www.w3.org/Graphics/SVG/1.1/DTD/svg11.dtd">
<svg
  width="240"
  height="240"
  viewBox="-500 -500 1000 1000" xmlns="http://www.w3.org/2000/svg" version="1.1">
  <rect
    x="0"
    y="0"
    width="100"
    height="100"
    fill="hsla(206,100%,53%,0.3)"
    stroke="hsl(206,100%,53%)"
    stroke-width="3"
    transform="" />
  
  <path
    d="M 
      42.3076923076
      30.7692307692
      L
    
      50
      34.6153846153
      L
    
      50
      45.8333333333
      L
    
      59.5384615384
      48.6153846153
      L
    
      61.0769230769
      57.0769230769
      L
    
      48.7692307692
      66.3076923076
      L
    
      41.0769230769
      62.4615384615
      L
    
      41.0769230769
      51.2435897435
      L
    
      31.5384615384
      48.4615384615
      L
    
      30
      40
      z
    "
    fill="hsla(0,0%,50%,0.3)"
    stroke="hsla(0,0%,50%,1)"
    stroke-width="1"
    transform="translate(-46.7307692307,-50.1762820512)"
    />
  
  <path
    d="M 
      42.3076923076
      40.3846153846
      L
    
      39.2307692307
      42.6923076923
      L
    
      42.3076923076
      43.5897435897
      z
    "
    fill="hsla(0,0%,50%,0.3)"
    stroke="hsla(0,0%,50%,1)"
    stroke-width="1"
    transform="translate(-46.7307692307,-50.1762820512)"
    />
  
  <path
    d="M 
      48.7692307692
      53.4871794871
      L
    
      48.7692307692
      56.6923076923
      L
    
      51.8461538461
      54.3846153846
      z
    "
    fill="hsla(0,0%,50%,0.3)"
    stroke="hsla(0,0%,50%,1)"
    stroke-width="1"
    transform="translate(-46.7307692307,-50.1762820512)"
    />
  
  
  <line
    x1="59.53846153846154"
    y1="48.61538461538461"
    x2="61.07692307692308"
    y2="57.07692307692308"
    stroke="hsla(0,50%,50%,0.6)"
    stroke-width="1"
    transform="translate(-46.7307692307,-50.1762820512)"
    />
  
  <line
    x1="30"
    y1="40"
    x2="31.53846153846154"
    y2="48.46153846153846"
    stroke="hsla(0,50%,50%,0.6)"
    stroke-width="1"
    transform="translate(-46.7307692307,-50.1762820512)"
    />
  
  <line
    x1="41.07692307692308"
    y1="50.92307692307692"
    x2="41.07692307692308"
    y2="62.46153846153846"
    stroke="hsla(0,50%,50%,0.6)"
    stroke-width="1"
    transform="translate(-46.7307692307,-50.1762820512)"
    />
  
  <line
    x1="42.30769230769231"
    y1="30.76923076923077"
    x2="42.30769230769231"
    y2="50"
    stroke="hsla(0,50%,50%,0.6)"
    stroke-width="1"
    transform="translate(-46.7307692307,-50.1762820512)"
    />
  
  <line
    x1="48.76923076923077"
    y1="50.92307692307692"
    x2="48.76923076923077"
    y2="66.3076923076923"
    stroke="hsla(0,50%,50%,0.6)"
    stroke-width="1"
    transform="translate(-46.7307692307,-50.1762820512)"
    />
  
  <line
    x1="50"
    y1="34.61538461538461"
    x2="50"
    y2="50"
    stroke="hsla(0,50%,50%,0.6)"
    stroke-width="1"
    transform="translate(-46.7307692307,-50.1762820512)"
    />
  
  <line
    x1="42.30769230769231"
    y1="30.76923076923077"
    x2="50"
    y2="34.61538461538461"
    stroke="hsla(0,50%,50%,0.6)"
    stroke-width="1"
    transform="translate(-46.7307692307,-50.1762820512)"
    />
  
  <line
    x1="30"
    y1="40"
    x2="59.53846153846154"
    y2="48.61538461538461"
    stroke="hsla(0,50%,50%,0.6)"
    stroke-width="1"
    transform="translate(-46.7307692307,-50.1762820512)"
    />
  
  <line
    x1="41.07692307692308"
    y1="62.46153846153846"
    x2="48.76923076923077"
    y2="66.3076923076923"
    stroke="hsla(0,50%,50%,0.6)"
    stroke-width="1"
    transform="translate(-46.7307692307,-50.1762820512)"
    />
  
  <line
    x1="31.53846153846154"
    y1="48.46153846153846"
    x2="61.07692307692308"
    y2="57.07692307692308"
    stroke="hsla(0,50%,50%,0.6)"
    stroke-width="1"
    transform="translate(-46.7307692307,-50.1762820512)"
    />
  
  <line
    x1="42.30769230769231"
    y1="30.76923076923077"
    x2="30"
    y2="40"
    stroke="hsla(0,50%,50%,0.6)"
    stroke-width="1"
    transform="translate(-46.7307692307,-50.1762820512)"
    />
  
  <line
    x1="50"
    y1="34.61538461538461"
    x2="31.53846153846154"
    y2="48.46153846153846"
    stroke="hsla(0,50%,50%,0.6)"
    stroke-width="1"
    transform="translate(-46.7307692307,-50.1762820512)"
    />
  
  <line
    x1="42.30769230769231"
    y1="50"
    x2="50"
    y2="50"
    stroke="hsla(0,50%,50%,0.6)"
    stroke-width="1"
    transform="translate(-46.7307692307,-50.1762820512)"
    />
  
  <line
    x1="41.07692307692308"
    y1="50.92307692307692"
    x2="48.76923076923077"
    y2="50.92307692307692"
    stroke="hsla(0,50%,50%,0.6)"
    stroke-width="1"
    transform="translate(-46.7307692307,-50.1762820512)"
    />
  
  <line
    x1="59.53846153846154"
    y1="48.61538461538461"
    x2="41.07692307692308"
    y2="62.46153846153846"
    stroke="hsla(0,50%,50%,0.6)"
    stroke-width="1"
    transform="translate(-46.7307692307,-50.1762820512)"
    />
  
  <line
    x1="61.07692307692308"
    y1="57.07692307692308"
    x2="48.76923076923077"
    y2="66.3076923076923"
    stroke="hsla(0,50%,50%,0.6)"
    stroke-width="1"
    transform="translate(-46.7307692307,-50.1762820512)"
    />
  
</svg>
