<?xml version="1.0"?>
<!DOCTYPE svg PUBLIC "-//W3C//DTD SVG 1.1//EN"
  "http://www.w3.org/Graphics/SVG/1.1/DTD/svg11.dtd">
<svg
  width="240"
  height="240"
  viewBox="-500 -500 1000 1000" xmlns="http://www.w3.org/2000/svg" version="1.1">
  <rect
    x="0"
    y="0"
    width="100"
    height="100"
    fill="hsla(206,100%,53%,0.3)"
    stroke="hsl(206,100%,53%)"
    stroke-width="3"
    transform="" />
  
  <path
    d="M 
      57.6923076923
      30.7692307692
      L
    
      70
      40
      L
    
      68.4615384615
      48.4615384615
      L
    
      58.9230769230
      51.2435897435
      L
    
      58.9230769230
      62.4615384615
      L
    
      51.2307692307
      66.3076923076
      L
    
      38.9230769230
      57.0769230769
      L
    
      40.4615384615
      48.6153846153
      L
    
      50
      45.8333333333
      L
    
      50
      34.6153846153
      z
    "
    fill="hsla(0,0%,50%,0.3)"
    stroke="hsla(0,0%,50%,1)"
    stroke-width="1"
    transform="translate(-53.2692307692,-50.1762820512)"
    />
  
  <path
    d="M 
      57.6923076923
      40.3846153846
      L
    
      57.6923076923
      43.5897435897
      L
    
      60.7692307692
      42.6923076923
      z
    "
    fill="hsla(0,0%,50%,0.3)"
    stroke="hsla(0,0%,50%,1)"
    stroke-width="1"
    transform="translate(-53.2692307692,-50.1762820512)"
    />
  
  <path
    d="M 
      51.2307692307
      53.4871794871
      L
    
      48.1538461538
      54.3846153846
      L
    
      51.2307692307
      56.6923076923
      z
    "
    fill="hsla(0,0%,50%,0.3)"
    stroke="hsla(0,0%,50%,1)"
    stroke-width="1"
    transform="translate(-53.2692307692,-50.1762820512)"
    />
  
  
  <line
    x1="57.69230769230769"
    y1="30.76923076923077"
    x2="70"
    y2="40"
    stroke="hsla(0,50%,50%,0.6)"
    stroke-width="1"
    transform="translate(-53.2692307692,-50.1762820512)"
    />
  
  <line
    x1="50"
    y1="34.61538461538461"
    x2="68.46153846153847"
    y2="48.46153846153846"
    stroke="hsla(0,50%,50%,0.6)"
    stroke-width="1"
    transform="translate(-53.2692307692,-50.1762820512)"
    />
  
  <line
    x1="50"
    y1="34.61538461538461"
    x2="50"
    y2="50"
    stroke="hsla(0,50%,50%,0.6)"
    stroke-width="1"
    transform="translate(-53.2692307692,-50.1762820512)"
    />
  
  <line
    x1="51.23076923076923"
    y1="50.92307692307692"
    x2="51.23076923076923"
    y2="66.3076923076923"
    stroke="hsla(0,50%,50%,0.6)"
    stroke-width="1"
    transform="translate(-53.2692307692,-50.1762820512)"
    />
  
  <line
    x1="57.69230769230769"
    y1="30.76923076923077"
    x2="57.69230769230769"
    y2="50"
    stroke="hsla(0,50%,50%,0.6)"
    stroke-width="1"
    transform="translate(-53.2692307692,-50.1762820512)"
    />
  
  <line
    x1="58.92307692307692"
    y1="50.92307692307692"
    x2="58.92307692307692"
    y2="62.46153846153846"
    stroke="hsla(0,50%,50%,0.6)"
    stroke-width="1"
    transform="translate(-53.2692307692,-50.1762820512)"
    />
  
  <line
    x1="40.46153846153846"
    y1="48.61538461538461"
    x2="38.92307692307692"
    y2="57.07692307692308"
    stroke="hsla(0,50%,50%,0.6)"
    stroke-width="1"
    transform="translate(-53.2692307692,-50.1762820512)"
    />
  
  <line
    x1="40.46153846153846"
    y1="48.61538461538461"
    x2="58.92307692307692"
    y2="62.46153846153846"
    stroke="hsla(0,50%,50%,0.6)"
    stroke-width="1"
    transform="translate(-53.2692307692,-50.1762820512)"
    />
  
  <line
    x1="70"
    y1="40"
    x2="68.46153846153847"
    y2="48.46153846153846"
    stroke="hsla(0,50%,50%,0.6)"
    stroke-width="1"
    transform="translate(-53.2692307692,-50.1762820512)"
    />
  
  <line
    x1="38.92307692307692"
    y1="57.07692307692308"
    x2="51.23076923076923"
    y2="66.3076923076923"
    stroke="hsla(0,50%,50%,0.6)"
    stroke-width="1"
    transform="translate(-53.2692307692,-50.1762820512)"
    />
  
  <line
    x1="57.69230769230769"
    y1="30.76923076923077"
    x2="50"
    y2="34.61538461538461"
    stroke="hsla(0,50%,50%,0.6)"
    stroke-width="1"
    transform="translate(-53.2692307692,-50.1762820512)"
    />
  
  <line
    x1="50"
    y1="50"
    x2="57.69230769230769"
    y2="50"
    stroke="hsla(0,50%,50%,0.6)"
    stroke-width="1"
    transform="translate(-53.2692307692,-50.1762820512)"
    />
  
  <line
    x1="51.23076923076923"
    y1="50.92307692307692"
    x2="58.92307692307692"
    y2="50.92307692307692"
    stroke="hsla(0,50%,50%,0.6)"
    stroke-width="1"
    transform="translate(-53.2692307692,-50.1762820512)"
    />
  
  <line
    x1="70"
    y1="40"
    x2="40.46153846153846"
    y2="48.61538461538461"
    stroke="hsla(0,50%,50%,0.6)"
    stroke-width="1"
    transform="translate(-53.2692307692,-50.1762820512)"
    />
  
  <line
    x1="68.46153846153847"
    y1="48.46153846153846"
    x2="38.92307692307692"
    y2="57.07692307692308"
    stroke="hsla(0,50%,50%,0.6)"
    stroke-width="1"
    transform="translate(-53.2692307692,-50.1762820512)"
    />
  
  <line
    x1="58.92307692307692"
    y1="62.46153846153846"
    x2="51.23076923076923"
    y2="66.3076923076923"
    stroke="hsla(0,50%,50%,0.6)"
    stroke-width="1"
    transform="translate(-53.2692307692,-50.1762820512)"
    />
  
</svg>
