<?xml version="1.0"?>
<!DOCTYPE svg PUBLIC "-//W3C//DTD SVG 1.1//EN"
  "http://www.w3.org/Graphics/SVG/1.1/DTD/svg11.dtd">
<svg
  width="240"
  height="240"
  viewBox="-500 -500 1000 1000" xmlns="http://www.w3.org/2000/svg" version="1.1">
  <rect
    x="0"
    y="0"
    width="100"
    height="100"
    fill="hsla(206,100%,53%,0.3)"
    stroke="hsl(206,100%,53%)"
    stroke-width="3"
    transform="" />
  
  <path
    d="M 
      57.0769230769
      38.9230769230
      L
    
      66.3076923076
      51.2307692307
      L
    
      62.4615384615
      58.9230769230
      L
    
      51.2435897435
      58.9230769230
      L
    
      48.4615384615
      68.4615384615
      L
    
      40
      70
      L
    
      30.7692307692
      57.6923076923
      L
    
      34.6153846153
      50
      L
    
      45.8333333333
      50
      L
    
      48.6153846153
      40.4615384615
      z
    "
    fill="hsla(0,0%,50%,0.3)"
    stroke="hsla(0,0%,50%,1)"
    stroke-width="1"
    transform="translate(-46.9006410256,-55.6538461538)"
    />
  
  <path
    d="M 
      54.3846153846
      48.1538461538
      L
    
      53.4871794871
      51.2307692307
      L
    
      56.6923076923
      51.2307692307
      z
    "
    fill="hsla(0,0%,50%,0.3)"
    stroke="hsla(0,0%,50%,1)"
    stroke-width="1"
    transform="translate(-46.9006410256,-55.6538461538)"
    />
  
  <path
    d="M 
      40.3846153846
      57.6923076923
      L
    
      42.6923076923
      60.7692307692
      L
    
      43.5897435897
      57.6923076923
      z
    "
    fill="hsla(0,0%,50%,0.3)"
    stroke="hsla(0,0%,50%,1)"
    stroke-width="1"
    transform="translate(-46.9006410256,-55.6538461538)"
    />
  
  
  <line
    x1="57.07692307692308"
    y1="38.92307692307692"
    x2="66.3076923076923"
    y2="51.23076923076923"
    stroke="hsla(0,50%,50%,0.6)"
    stroke-width="1"
    transform="translate(-46.9006410256,-55.6538461538)"
    />
  
  <line
    x1="48.61538461538461"
    y1="40.46153846153846"
    x2="62.46153846153846"
    y2="58.92307692307692"
    stroke="hsla(0,50%,50%,0.6)"
    stroke-width="1"
    transform="translate(-46.9006410256,-55.6538461538)"
    />
  
  <line
    x1="50"
    y1="50"
    x2="50"
    y2="57.69230769230769"
    stroke="hsla(0,50%,50%,0.6)"
    stroke-width="1"
    transform="translate(-46.9006410256,-55.6538461538)"
    />
  
  <line
    x1="50.92307692307692"
    y1="51.23076923076923"
    x2="50.92307692307692"
    y2="58.92307692307692"
    stroke="hsla(0,50%,50%,0.6)"
    stroke-width="1"
    transform="translate(-46.9006410256,-55.6538461538)"
    />
  
  <line
    x1="34.61538461538461"
    y1="50"
    x2="48.46153846153846"
    y2="68.46153846153847"
    stroke="hsla(0,50%,50%,0.6)"
    stroke-width="1"
    transform="translate(-46.9006410256,-55.6538461538)"
    />
  
  <line
    x1="30.76923076923077"
    y1="57.69230769230769"
    x2="40"
    y2="70"
    stroke="hsla(0,50%,50%,0.6)"
    stroke-width="1"
    transform="translate(-46.9006410256,-55.6538461538)"
    />
  
  <line
    x1="48.61538461538461"
    y1="40.46153846153846"
    x2="40"
    y2="70"
    stroke="hsla(0,50%,50%,0.6)"
    stroke-width="1"
    transform="translate(-46.9006410256,-55.6538461538)"
    />
  
  <line
    x1="57.07692307692308"
    y1="38.92307692307692"
    x2="48.46153846153846"
    y2="68.46153846153847"
    stroke="hsla(0,50%,50%,0.6)"
    stroke-width="1"
    transform="translate(-46.9006410256,-55.6538461538)"
    />
  
  <line
    x1="34.61538461538461"
    y1="50"
    x2="30.76923076923077"
    y2="57.69230769230769"
    stroke="hsla(0,50%,50%,0.6)"
    stroke-width="1"
    transform="translate(-46.9006410256,-55.6538461538)"
    />
  
  <line
    x1="66.3076923076923"
    y1="51.23076923076923"
    x2="62.46153846153846"
    y2="58.92307692307692"
    stroke="hsla(0,50%,50%,0.6)"
    stroke-width="1"
    transform="translate(-46.9006410256,-55.6538461538)"
    />
  
  <line
    x1="57.07692307692308"
    y1="38.92307692307692"
    x2="48.61538461538461"
    y2="40.46153846153846"
    stroke="hsla(0,50%,50%,0.6)"
    stroke-width="1"
    transform="translate(-46.9006410256,-55.6538461538)"
    />
  
  <line
    x1="34.61538461538461"
    y1="50"
    x2="50"
    y2="50"
    stroke="hsla(0,50%,50%,0.6)"
    stroke-width="1"
    transform="translate(-46.9006410256,-55.6538461538)"
    />
  
  <line
    x1="50.92307692307692"
    y1="51.23076923076923"
    x2="66.3076923076923"
    y2="51.23076923076923"
    stroke="hsla(0,50%,50%,0.6)"
    stroke-width="1"
    transform="translate(-46.9006410256,-55.6538461538)"
    />
  
  <line
    x1="30.76923076923077"
    y1="57.69230769230769"
    x2="50"
    y2="57.69230769230769"
    stroke="hsla(0,50%,50%,0.6)"
    stroke-width="1"
    transform="translate(-46.9006410256,-55.6538461538)"
    />
  
  <line
    x1="50.92307692307692"
    y1="58.92307692307692"
    x2="62.46153846153846"
    y2="58.92307692307692"
    stroke="hsla(0,50%,50%,0.6)"
    stroke-width="1"
    transform="translate(-46.9006410256,-55.6538461538)"
    />
  
  <line
    x1="48.46153846153846"
    y1="68.46153846153847"
    x2="40"
    y2="70"
    stroke="hsla(0,50%,50%,0.6)"
    stroke-width="1"
    transform="translate(-46.9006410256,-55.6538461538)"
    />
  
</svg>
