<?xml version="1.0"?>
<!DOCTYPE svg PUBLIC "-//W3C//DTD SVG 1.1//EN"
  "http://www.w3.org/Graphics/SVG/1.1/DTD/svg11.dtd">
<svg
  width="240"
  height="240"
  viewBox="-500 -500 1000 1000" xmlns="http://www.w3.org/2000/svg" version="1.1">
  <rect
    x="0"
    y="0"
    width="100"
    height="100"
    fill="hsla(206,100%,53%,0.3)"
    stroke="hsl(206,100%,53%)"
    stroke-width="3"
    transform="" />
  
  <path
    d="M 
      40
      30
      L
    
      48.4615384615
      31.5384615384
      L
    
      51.2435897435
      41.0769230769
      L
    
      62.4615384615
      41.0769230769
      L
    
      66.3076923076
      48.7692307692
      L
    
      57.0769230769
      61.0769230769
      L
    
      48.6153846153
      59.5384615384
      L
    
      45.8333333333
      50
      L
    
      34.6153846153
      50
      L
    
      30.7692307692
      42.3076923076
      z
    "
    fill="hsla(0,0%,50%,0.3)"
    stroke="hsla(0,0%,50%,1)"
    stroke-width="1"
    transform="translate(-50.1762820512,-46.7307692307)"
    />
  
  <path
    d="M 
      42.6923076923
      39.2307692307
      L
    
      40.3846153846
      42.3076923076
      L
    
      43.5897435897
      42.3076923076
      z
    "
    fill="hsla(0,0%,50%,0.3)"
    stroke="hsla(0,0%,50%,1)"
    stroke-width="1"
    transform="translate(-50.1762820512,-46.7307692307)"
    />
  
  <path
    d="M 
      53.4871794871
      48.7692307692
      L
    
      54.3846153846
      51.8461538461
      L
    
      56.6923076923
      48.7692307692
      z
    "
    fill="hsla(0,0%,50%,0.3)"
    stroke="hsla(0,0%,50%,1)"
    stroke-width="1"
    transform="translate(-50.1762820512,-46.7307692307)"
    />
  
  
  <line
    x1="62.46153846153846"
    y1="41.07692307692308"
    x2="66.3076923076923"
    y2="48.76923076923077"
    stroke="hsla(0,50%,50%,0.6)"
    stroke-width="1"
    transform="translate(-50.1762820512,-46.7307692307)"
    />
  
  <line
    x1="48.46153846153846"
    y1="31.53846153846154"
    x2="57.07692307692308"
    y2="61.07692307692308"
    stroke="hsla(0,50%,50%,0.6)"
    stroke-width="1"
    transform="translate(-50.1762820512,-46.7307692307)"
    />
  
  <line
    x1="40"
    y1="30"
    x2="48.61538461538461"
    y2="59.53846153846154"
    stroke="hsla(0,50%,50%,0.6)"
    stroke-width="1"
    transform="translate(-50.1762820512,-46.7307692307)"
    />
  
  <line
    x1="30.76923076923077"
    y1="42.30769230769231"
    x2="34.61538461538461"
    y2="50"
    stroke="hsla(0,50%,50%,0.6)"
    stroke-width="1"
    transform="translate(-50.1762820512,-46.7307692307)"
    />
  
  <line
    x1="50"
    y1="42.30769230769231"
    x2="50"
    y2="50"
    stroke="hsla(0,50%,50%,0.6)"
    stroke-width="1"
    transform="translate(-50.1762820512,-46.7307692307)"
    />
  
  <line
    x1="50.92307692307692"
    y1="41.07692307692308"
    x2="50.92307692307692"
    y2="48.76923076923077"
    stroke="hsla(0,50%,50%,0.6)"
    stroke-width="1"
    transform="translate(-50.1762820512,-46.7307692307)"
    />
  
  <line
    x1="40"
    y1="30"
    x2="48.46153846153846"
    y2="31.53846153846154"
    stroke="hsla(0,50%,50%,0.6)"
    stroke-width="1"
    transform="translate(-50.1762820512,-46.7307692307)"
    />
  
  <line
    x1="40"
    y1="30"
    x2="30.76923076923077"
    y2="42.30769230769231"
    stroke="hsla(0,50%,50%,0.6)"
    stroke-width="1"
    transform="translate(-50.1762820512,-46.7307692307)"
    />
  
  <line
    x1="48.46153846153846"
    y1="31.53846153846154"
    x2="34.61538461538461"
    y2="50"
    stroke="hsla(0,50%,50%,0.6)"
    stroke-width="1"
    transform="translate(-50.1762820512,-46.7307692307)"
    />
  
  <line
    x1="50.92307692307692"
    y1="41.07692307692308"
    x2="62.46153846153846"
    y2="41.07692307692308"
    stroke="hsla(0,50%,50%,0.6)"
    stroke-width="1"
    transform="translate(-50.1762820512,-46.7307692307)"
    />
  
  <line
    x1="30.76923076923077"
    y1="42.30769230769231"
    x2="50"
    y2="42.30769230769231"
    stroke="hsla(0,50%,50%,0.6)"
    stroke-width="1"
    transform="translate(-50.1762820512,-46.7307692307)"
    />
  
  <line
    x1="62.46153846153846"
    y1="41.07692307692308"
    x2="48.61538461538461"
    y2="59.53846153846154"
    stroke="hsla(0,50%,50%,0.6)"
    stroke-width="1"
    transform="translate(-50.1762820512,-46.7307692307)"
    />
  
  <line
    x1="50.92307692307692"
    y1="48.76923076923077"
    x2="66.3076923076923"
    y2="48.76923076923077"
    stroke="hsla(0,50%,50%,0.6)"
    stroke-width="1"
    transform="translate(-50.1762820512,-46.7307692307)"
    />
  
  <line
    x1="48.61538461538461"
    y1="59.53846153846154"
    x2="57.07692307692308"
    y2="61.07692307692308"
    stroke="hsla(0,50%,50%,0.6)"
    stroke-width="1"
    transform="translate(-50.1762820512,-46.7307692307)"
    />
  
  <line
    x1="66.3076923076923"
    y1="48.76923076923077"
    x2="57.07692307692308"
    y2="61.07692307692308"
    stroke="hsla(0,50%,50%,0.6)"
    stroke-width="1"
    transform="translate(-50.1762820512,-46.7307692307)"
    />
  
  <line
    x1="34.61538461538461"
    y1="50"
    x2="50"
    y2="50"
    stroke="hsla(0,50%,50%,0.6)"
    stroke-width="1"
    transform="translate(-50.1762820512,-46.7307692307)"
    />
  
</svg>
