<?xml version="1.0"?>
<!DOCTYPE svg PUBLIC "-//W3C//DTD SVG 1.1//EN"
  "http://www.w3.org/Graphics/SVG/1.1/DTD/svg11.dtd">
<svg
  width="240"
  height="240"
  viewBox="-500 -500 1000 1000" xmlns="http://www.w3.org/2000/svg" version="1.1">
  <rect
    x="0"
    y="0"
    width="100"
    height="100"
    fill="hsla(206,100%,53%,0.3)"
    stroke="hsl(206,100%,53%)"
    stroke-width="3"
    transform="" />
  
  <path
    d="M 
      0
      0
      L
    
      25
      0
      L
    
      50
      50
      L
    
      25
      100
      L
    
      0
      100
      L
    
      0
      75
      L
    
      -20
      60
      L
    
      -12.5
      50
      L
    
      -20
      40
      L
    
      0
      25
      z
    "
    fill="hsla(0,0%,50%,0.3)"
    stroke="hsla(0,0%,50%,1)"
    stroke-width="1"
    transform="translate(-15,-50)"
    />
  
  
  <line
    x1="25"
    y1="0"
    x2="50"
    y2="50"
    stroke="hsla(0,50%,50%,0.6)"
    stroke-width="1"
    transform="translate(-15,-50)"
    />
  
  <line
    x1="0"
    y1="0"
    x2="25"
    y2="0"
    stroke="hsla(0,50%,50%,0.6)"
    stroke-width="1"
    transform="translate(-15,-50)"
    />
  
  <line
    x1="0"
    y1="0"
    x2="0"
    y2="100"
    stroke="hsla(0,50%,50%,0.6)"
    stroke-width="1"
    transform="translate(-15,-50)"
    />
  
  <line
    x1="25"
    y1="0"
    x2="-20"
    y2="60"
    stroke="hsla(0,50%,50%,0.6)"
    stroke-width="1"
    transform="translate(-15,-50)"
    />
  
  <line
    x1="0"
    y1="25"
    x2="-20"
    y2="40"
    stroke="hsla(0,50%,50%,0.6)"
    stroke-width="1"
    transform="translate(-15,-50)"
    />
  
  <line
    x1="0"
    y1="25"
    x2="50"
    y2="50"
    stroke="hsla(0,50%,50%,0.6)"
    stroke-width="1"
    transform="translate(-15,-50)"
    />
  
  <line
    x1="-20"
    y1="40"
    x2="25"
    y2="100"
    stroke="hsla(0,50%,50%,0.6)"
    stroke-width="1"
    transform="translate(-15,-50)"
    />
  
  <line
    x1="50"
    y1="50"
    x2="25"
    y2="100"
    stroke="hsla(0,50%,50%,0.6)"
    stroke-width="1"
    transform="translate(-15,-50)"
    />
  
  <line
    x1="-20"
    y1="60"
    x2="0"
    y2="75"
    stroke="hsla(0,50%,50%,0.6)"
    stroke-width="1"
    transform="translate(-15,-50)"
    />
  
  <line
    x1="0"
    y1="50"
    x2="50"
    y2="50"
    stroke="hsla(0,50%,50%,0.6)"
    stroke-width="1"
    transform="translate(-15,-50)"
    />
  
  <line
    x1="50"
    y1="50"
    x2="0"
    y2="75"
    stroke="hsla(0,50%,50%,0.6)"
    stroke-width="1"
    transform="translate(-15,-50)"
    />
  
  <line
    x1="0"
    y1="100"
    x2="25"
    y2="100"
    stroke="hsla(0,50%,50%,0.6)"
    stroke-width="1"
    transform="translate(-15,-50)"
    />
  
</svg>
