<?xml version="1.0"?>
<!DOCTYPE svg PUBLIC "-//W3C//DTD SVG 1.1//EN"
  "http://www.w3.org/Graphics/SVG/1.1/DTD/svg11.dtd">
<svg
  width="240"
  height="240"
  viewBox="-50 -50 200 200" xmlns="http://www.w3.org/2000/svg" version="1.1">
  <rect
    x="0"
    y="0"
    width="100"
    height="100"
    fill="hsla(206,100%,53%,0.3)"
    stroke="hsl(206,100%,53%)"
    stroke-width="3"
    transform="" />
  
  <path
    d="M 
      45
      -60
      L
    
      47.5
      -42.5
      L
    
      67.5
      -27.5
      L
    
      85
      -30
      L
    
      55
      10
      L
    
      52.5
      -7.5
      L
    
      32.5
      -22.5
      L
    
      15
      -20
      z
    "
    fill="hsla(0,0%,50%,0.3)"
    stroke="hsla(0,0%,50%,1)"
    stroke-width="1"
    transform="translate(-30.05859375,18.10546875) scale(1,-1) translate(50,-110)"
    />
  
  
  <line
    x1="37.5"
    y1="-50"
    x2="77.5"
    y2="-20"
    stroke="hsla(0,50%,50%,0.6)"
    stroke-width="1"
    transform="translate(-30.05859375,18.10546875) scale(1,-1) translate(50,-110)"
    />
  
  <line
    x1="30"
    y1="-40"
    x2="70"
    y2="-10"
    stroke="hsla(0,50%,50%,0.6)"
    stroke-width="1"
    transform="translate(-30.05859375,18.10546875) scale(1,-1) translate(50,-110)"
    />
  
  <line
    x1="47.5"
    y1="-42.5"
    x2="30"
    y2="-40"
    stroke="hsla(0,50%,50%,0.6)"
    stroke-width="1"
    transform="translate(-30.05859375,18.10546875) scale(1,-1) translate(50,-110)"
    />
  
  <line
    x1="22.5"
    y1="-30"
    x2="62.5"
    y2="0"
    stroke="hsla(0,50%,50%,0.6)"
    stroke-width="1"
    transform="translate(-30.05859375,18.10546875) scale(1,-1) translate(50,-110)"
    />
  
  <line
    x1="85"
    y1="-30"
    x2="15"
    y2="-20"
    stroke="hsla(0,50%,50%,0.6)"
    stroke-width="1"
    transform="translate(-30.05859375,18.10546875) scale(1,-1) translate(50,-110)"
    />
  
  <line
    x1="67.5"
    y1="-27.5"
    x2="70"
    y2="-10"
    stroke="hsla(0,50%,50%,0.6)"
    stroke-width="1"
    transform="translate(-30.05859375,18.10546875) scale(1,-1) translate(50,-110)"
    />
  
  <line
    x1="45"
    y1="-60"
    x2="55"
    y2="10"
    stroke="hsla(0,50%,50%,0.6)"
    stroke-width="1"
    transform="translate(-30.05859375,18.10546875) scale(1,-1) translate(50,-110)"
    />
  
  <line
    x1="30"
    y1="-40"
    x2="32.5"
    y2="-22.5"
    stroke="hsla(0,50%,50%,0.6)"
    stroke-width="1"
    transform="translate(-30.05859375,18.10546875) scale(1,-1) translate(50,-110)"
    />
  
  <line
    x1="45"
    y1="-60"
    x2="15"
    y2="-20"
    stroke="hsla(0,50%,50%,0.6)"
    stroke-width="1"
    transform="translate(-30.05859375,18.10546875) scale(1,-1) translate(50,-110)"
    />
  
  <line
    x1="70"
    y1="-10"
    x2="52.5"
    y2="-7.5"
    stroke="hsla(0,50%,50%,0.6)"
    stroke-width="1"
    transform="translate(-30.05859375,18.10546875) scale(1,-1) translate(50,-110)"
    />
  
  <line
    x1="57.5"
    y1="-35"
    x2="42.5"
    y2="-15"
    stroke="hsla(0,50%,50%,0.6)"
    stroke-width="1"
    transform="translate(-30.05859375,18.10546875) scale(1,-1) translate(50,-110)"
    />
  
  <line
    x1="85"
    y1="-30"
    x2="55"
    y2="10"
    stroke="hsla(0,50%,50%,0.6)"
    stroke-width="1"
    transform="translate(-30.05859375,18.10546875) scale(1,-1) translate(50,-110)"
    />
  
</svg>
