<?xml version="1.0"?>
<!DOCTYPE svg PUBLIC "-//W3C//DTD SVG 1.1//EN"
  "http://www.w3.org/Graphics/SVG/1.1/DTD/svg11.dtd">
<svg
  width="240"
  height="240"
  viewBox="-500 -500 1000 1000" xmlns="http://www.w3.org/2000/svg" version="1.1">
  <rect
    x="0"
    y="0"
    width="100"
    height="100"
    fill="hsla(206,100%,53%,0.3)"
    stroke="hsl(206,100%,53%)"
    stroke-width="3"
    transform="" />
  
  <path
    d="M 
      68
      -124
      L
    
      99
      -107
      L
    
      106
      -83
      L
    
      130
      -90
      L
    
      113
      -59
      L
    
      89
      -52
      L
    
      96
      -28
      L
    
      65
      -45
      L
    
      58
      -69
      L
    
      34
      -62
      L
    
      51
      -93
      L
    
      75
      -100
      z
    "
    fill="hsla(0,0%,50%,0.3)"
    stroke="hsla(0,0%,50%,1)"
    stroke-width="1"
    transform="translate(-82,76)"
    />
  
  
  <line
    x1="68"
    y1="-124"
    x2="99"
    y2="-107"
    stroke="hsla(0,50%,50%,0.6)"
    stroke-width="1"
    transform="translate(-82,76)"
    />
  
  <line
    x1="51"
    y1="-93"
    x2="113"
    y2="-59"
    stroke="hsla(0,50%,50%,0.6)"
    stroke-width="1"
    transform="translate(-82,76)"
    />
  
  <line
    x1="99"
    y1="-107"
    x2="51"
    y2="-93"
    stroke="hsla(0,50%,50%,0.6)"
    stroke-width="1"
    transform="translate(-82,76)"
    />
  
  <line
    x1="65"
    y1="-45"
    x2="96"
    y2="-28"
    stroke="hsla(0,50%,50%,0.6)"
    stroke-width="1"
    transform="translate(-82,76)"
    />
  
  <line
    x1="130"
    y1="-90"
    x2="34"
    y2="-62"
    stroke="hsla(0,50%,50%,0.6)"
    stroke-width="1"
    transform="translate(-82,76)"
    />
  
  <line
    x1="99"
    y1="-107"
    x2="113"
    y2="-59"
    stroke="hsla(0,50%,50%,0.6)"
    stroke-width="1"
    transform="translate(-82,76)"
    />
  
  <line
    x1="68"
    y1="-124"
    x2="96"
    y2="-28"
    stroke="hsla(0,50%,50%,0.6)"
    stroke-width="1"
    transform="translate(-82,76)"
    />
  
  <line
    x1="113"
    y1="-59"
    x2="65"
    y2="-45"
    stroke="hsla(0,50%,50%,0.6)"
    stroke-width="1"
    transform="translate(-82,76)"
    />
  
  <line
    x1="51"
    y1="-93"
    x2="65"
    y2="-45"
    stroke="hsla(0,50%,50%,0.6)"
    stroke-width="1"
    transform="translate(-82,76)"
    />
  
  <line
    x1="51"
    y1="-93"
    x2="34"
    y2="-62"
    stroke="hsla(0,50%,50%,0.6)"
    stroke-width="1"
    transform="translate(-82,76)"
    />
  
  <line
    x1="99"
    y1="-107"
    x2="65"
    y2="-45"
    stroke="hsla(0,50%,50%,0.6)"
    stroke-width="1"
    transform="translate(-82,76)"
    />
  
  <line
    x1="130"
    y1="-90"
    x2="113"
    y2="-59"
    stroke="hsla(0,50%,50%,0.6)"
    stroke-width="1"
    transform="translate(-82,76)"
    />
  
</svg>
