<?xml version="1.0"?>
<!DOCTYPE svg PUBLIC "-//W3C//DTD SVG 1.1//EN"
  "http://www.w3.org/Graphics/SVG/1.1/DTD/svg11.dtd">
<svg
  width="240"
  height="240"
  viewBox="-500 -500 1000 1000" xmlns="http://www.w3.org/2000/svg" version="1.1">
  <rect
    x="0"
    y="0"
    width="100"
    height="100"
    fill="hsla(206,100%,53%,0.3)"
    stroke="hsl(206,100%,53%)"
    stroke-width="3"
    transform="" />
  
  <path
    d="M 
      130.7692307692
      -53.8461538461
      L
    
      144.2307692307
      -21.1538461538
      L
    
      134.6153846153
      1.9230769230
      L
    
      157.6923076923
      11.5384615384
      L
    
      125
      25
      L
    
      101.9230769230
      15.3846153846
      L
    
      92.3076923076
      38.4615384615
      L
    
      78.8461538461
      5.7692307692
      L
    
      88.4615384615
      -17.3076923076
      L
    
      65.3846153846
      -26.9230769230
      L
    
      98.0769230769
      -40.3846153846
      L
    
      121.1538461538
      -30.7692307692
      z
    "
    fill="hsla(0,0%,50%,0.3)"
    stroke="hsla(0,0%,50%,1)"
    stroke-width="1"
    transform="translate(-111.5384615384,7.6923076923)"
    />
  
  
  <line
    x1="98.07692307692308"
    y1="-40.38461538461539"
    x2="144.23076923076923"
    y2="-21.153846153846153"
    stroke="hsla(0,50%,50%,0.6)"
    stroke-width="1"
    transform="translate(-111.5384615384,7.6923076923)"
    />
  
  <line
    x1="130.76923076923077"
    y1="-53.84615384615385"
    x2="144.23076923076923"
    y2="-21.153846153846153"
    stroke="hsla(0,50%,50%,0.6)"
    stroke-width="1"
    transform="translate(-111.5384615384,7.6923076923)"
    />
  
  <line
    x1="65.38461538461539"
    y1="-26.923076923076923"
    x2="157.69230769230768"
    y2="11.538461538461538"
    stroke="hsla(0,50%,50%,0.6)"
    stroke-width="1"
    transform="translate(-111.5384615384,7.6923076923)"
    />
  
  <line
    x1="98.07692307692308"
    y1="-40.38461538461539"
    x2="125"
    y2="25"
    stroke="hsla(0,50%,50%,0.6)"
    stroke-width="1"
    transform="translate(-111.5384615384,7.6923076923)"
    />
  
  <line
    x1="78.84615384615384"
    y1="5.769230769230769"
    x2="92.3076923076923"
    y2="38.46153846153846"
    stroke="hsla(0,50%,50%,0.6)"
    stroke-width="1"
    transform="translate(-111.5384615384,7.6923076923)"
    />
  
  <line
    x1="78.84615384615384"
    y1="5.769230769230769"
    x2="125"
    y2="25"
    stroke="hsla(0,50%,50%,0.6)"
    stroke-width="1"
    transform="translate(-111.5384615384,7.6923076923)"
    />
  
  <line
    x1="98.07692307692308"
    y1="-40.38461538461539"
    x2="65.38461538461539"
    y2="-26.923076923076923"
    stroke="hsla(0,50%,50%,0.6)"
    stroke-width="1"
    transform="translate(-111.5384615384,7.6923076923)"
    />
  
  <line
    x1="98.07692307692308"
    y1="-40.38461538461539"
    x2="78.84615384615384"
    y2="5.769230769230769"
    stroke="hsla(0,50%,50%,0.6)"
    stroke-width="1"
    transform="translate(-111.5384615384,7.6923076923)"
    />
  
  <line
    x1="144.23076923076923"
    y1="-21.153846153846153"
    x2="78.84615384615384"
    y2="5.769230769230769"
    stroke="hsla(0,50%,50%,0.6)"
    stroke-width="1"
    transform="translate(-111.5384615384,7.6923076923)"
    />
  
  <line
    x1="130.76923076923077"
    y1="-53.84615384615385"
    x2="92.3076923076923"
    y2="38.46153846153846"
    stroke="hsla(0,50%,50%,0.6)"
    stroke-width="1"
    transform="translate(-111.5384615384,7.6923076923)"
    />
  
  <line
    x1="144.23076923076923"
    y1="-21.153846153846153"
    x2="125"
    y2="25"
    stroke="hsla(0,50%,50%,0.6)"
    stroke-width="1"
    transform="translate(-111.5384615384,7.6923076923)"
    />
  
  <line
    x1="157.69230769230768"
    y1="11.538461538461538"
    x2="125"
    y2="25"
    stroke="hsla(0,50%,50%,0.6)"
    stroke-width="1"
    transform="translate(-111.5384615384,7.6923076923)"
    />
  
</svg>
