<?xml version="1.0"?>
<!DOCTYPE svg PUBLIC "-//W3C//DTD SVG 1.1//EN"
  "http://www.w3.org/Graphics/SVG/1.1/DTD/svg11.dtd">
<svg
  width="240"
  height="240"
  viewBox="-500 -500 1000 1000" xmlns="http://www.w3.org/2000/svg" version="1.1">
  <rect
    x="0"
    y="0"
    width="100"
    height="100"
    fill="hsla(206,100%,53%,0.3)"
    stroke="hsl(206,100%,53%)"
    stroke-width="3"
    transform="" />
  
  <path
    d="M 
      -10
      70
      L
    
      5
      90
      L
    
      25
      75
      L
    
      60
      80
      L
    
      40
      95
      L
    
      55
      115
      L
    
      50
      150
      L
    
      35
      130
      L
    
      15
      145
      L
    
      -20
      140
      L
    
      0
      125
      L
    
      -15
      105
      z
    "
    fill="hsla(0,0%,50%,0.3)"
    stroke="hsla(0,0%,50%,1)"
    stroke-width="1"
    transform="translate(-20,-110)"
    />
  
  
  <line
    x1="-10"
    y1="70"
    x2="-15"
    y2="105"
    stroke="hsla(0,50%,50%,0.6)"
    stroke-width="1"
    transform="translate(-20,-110)"
    />
  
  <line
    x1="25"
    y1="75"
    x2="15"
    y2="145"
    stroke="hsla(0,50%,50%,0.6)"
    stroke-width="1"
    transform="translate(-20,-110)"
    />
  
  <line
    x1="55"
    y1="115"
    x2="50"
    y2="150"
    stroke="hsla(0,50%,50%,0.6)"
    stroke-width="1"
    transform="translate(-20,-110)"
    />
  
  <line
    x1="25"
    y1="75"
    x2="55"
    y2="115"
    stroke="hsla(0,50%,50%,0.6)"
    stroke-width="1"
    transform="translate(-20,-110)"
    />
  
  <line
    x1="-10"
    y1="70"
    x2="50"
    y2="150"
    stroke="hsla(0,50%,50%,0.6)"
    stroke-width="1"
    transform="translate(-20,-110)"
    />
  
  <line
    x1="-15"
    y1="105"
    x2="15"
    y2="145"
    stroke="hsla(0,50%,50%,0.6)"
    stroke-width="1"
    transform="translate(-20,-110)"
    />
  
  <line
    x1="25"
    y1="75"
    x2="-15"
    y2="105"
    stroke="hsla(0,50%,50%,0.6)"
    stroke-width="1"
    transform="translate(-20,-110)"
    />
  
  <line
    x1="25"
    y1="75"
    x2="60"
    y2="80"
    stroke="hsla(0,50%,50%,0.6)"
    stroke-width="1"
    transform="translate(-20,-110)"
    />
  
  <line
    x1="60"
    y1="80"
    x2="-20"
    y2="140"
    stroke="hsla(0,50%,50%,0.6)"
    stroke-width="1"
    transform="translate(-20,-110)"
    />
  
  <line
    x1="55"
    y1="115"
    x2="15"
    y2="145"
    stroke="hsla(0,50%,50%,0.6)"
    stroke-width="1"
    transform="translate(-20,-110)"
    />
  
  <line
    x1="-15"
    y1="105"
    x2="55"
    y2="115"
    stroke="hsla(0,50%,50%,0.6)"
    stroke-width="1"
    transform="translate(-20,-110)"
    />
  
  <line
    x1="-20"
    y1="140"
    x2="15"
    y2="145"
    stroke="hsla(0,50%,50%,0.6)"
    stroke-width="1"
    transform="translate(-20,-110)"
    />
  
</svg>
