<?xml version="1.0"?>
<!DOCTYPE svg PUBLIC "-//W3C//DTD SVG 1.1//EN"
  "http://www.w3.org/Graphics/SVG/1.1/DTD/svg11.dtd">
<svg
  width="240"
  height="240"
  viewBox="-50 -50 200 200" xmlns="http://www.w3.org/2000/svg" version="1.1">
  <rect
    x="0"
    y="0"
    width="100"
    height="100"
    fill="hsla(206,100%,53%,0.3)"
    stroke="hsl(206,100%,53%)"
    stroke-width="3"
    transform="" />
  
  <path
    d="M 
      103.8461538461
      -119.2307692307
      L
    
      94.2307692307
      -96.1538461538
      L
    
      117.3076923076
      -86.5384615384
      L
    
      130.7692307692
      -53.8461538461
      L
    
      107.6923076923
      -63.4615384615
      L
    
      98.0769230769
      -40.3846153846
      L
    
      65.3846153846
      -26.9230769230
      L
    
      75
      -50
      L
    
      51.9230769230
      -59.6153846153
      L
    
      38.4615384615
      -92.3076923076
      L
    
      61.5384615384
      -82.6923076923
      L
    
      71.1538461538
      -105.7692307692
      z
    "
    fill="hsla(0,0%,50%,0.3)"
    stroke="hsla(0,0%,50%,1)"
    stroke-width="1"
    transform="translate(-64.0333909254,91.6635366586) scale(1,-1) translate(50,-110)"
    />
  
  
  <line
    x1="71.15384615384616"
    y1="-105.76923076923077"
    x2="117.3076923076923"
    y2="-86.53846153846153"
    stroke="hsla(0,50%,50%,0.6)"
    stroke-width="1"
    transform="translate(-64.0333909254,91.6635366586) scale(1,-1) translate(50,-110)"
    />
  
  <line
    x1="38.46153846153846"
    y1="-92.3076923076923"
    x2="130.76923076923077"
    y2="-53.84615384615385"
    stroke="hsla(0,50%,50%,0.6)"
    stroke-width="1"
    transform="translate(-64.0333909254,91.6635366586) scale(1,-1) translate(50,-110)"
    />
  
  <line
    x1="51.92307692307692"
    y1="-59.61538461538461"
    x2="98.07692307692308"
    y2="-40.38461538461539"
    stroke="hsla(0,50%,50%,0.6)"
    stroke-width="1"
    transform="translate(-64.0333909254,91.6635366586) scale(1,-1) translate(50,-110)"
    />
  
  <line
    x1="103.84615384615384"
    y1="-119.23076923076923"
    x2="71.15384615384616"
    y2="-105.76923076923077"
    stroke="hsla(0,50%,50%,0.6)"
    stroke-width="1"
    transform="translate(-64.0333909254,91.6635366586) scale(1,-1) translate(50,-110)"
    />
  
  <line
    x1="117.3076923076923"
    y1="-86.53846153846153"
    x2="130.76923076923077"
    y2="-53.84615384615385"
    stroke="hsla(0,50%,50%,0.6)"
    stroke-width="1"
    transform="translate(-64.0333909254,91.6635366586) scale(1,-1) translate(50,-110)"
    />
  
  <line
    x1="71.15384615384616"
    y1="-105.76923076923077"
    x2="98.07692307692308"
    y2="-40.38461538461539"
    stroke="hsla(0,50%,50%,0.6)"
    stroke-width="1"
    transform="translate(-64.0333909254,91.6635366586) scale(1,-1) translate(50,-110)"
    />
  
  <line
    x1="117.3076923076923"
    y1="-86.53846153846153"
    x2="51.92307692307692"
    y2="-59.61538461538461"
    stroke="hsla(0,50%,50%,0.6)"
    stroke-width="1"
    transform="translate(-64.0333909254,91.6635366586) scale(1,-1) translate(50,-110)"
    />
  
  <line
    x1="38.46153846153846"
    y1="-92.3076923076923"
    x2="51.92307692307692"
    y2="-59.61538461538461"
    stroke="hsla(0,50%,50%,0.6)"
    stroke-width="1"
    transform="translate(-64.0333909254,91.6635366586) scale(1,-1) translate(50,-110)"
    />
  
  <line
    x1="98.07692307692308"
    y1="-40.38461538461539"
    x2="65.38461538461539"
    y2="-26.923076923076923"
    stroke="hsla(0,50%,50%,0.6)"
    stroke-width="1"
    transform="translate(-64.0333909254,91.6635366586) scale(1,-1) translate(50,-110)"
    />
  
  <line
    x1="71.15384615384616"
    y1="-105.76923076923077"
    x2="51.92307692307692"
    y2="-59.61538461538461"
    stroke="hsla(0,50%,50%,0.6)"
    stroke-width="1"
    transform="translate(-64.0333909254,91.6635366586) scale(1,-1) translate(50,-110)"
    />
  
  <line
    x1="103.84615384615384"
    y1="-119.23076923076923"
    x2="65.38461538461539"
    y2="-26.923076923076923"
    stroke="hsla(0,50%,50%,0.6)"
    stroke-width="1"
    transform="translate(-64.0333909254,91.6635366586) scale(1,-1) translate(50,-110)"
    />
  
  <line
    x1="117.3076923076923"
    y1="-86.53846153846153"
    x2="98.07692307692308"
    y2="-40.38461538461539"
    stroke="hsla(0,50%,50%,0.6)"
    stroke-width="1"
    transform="translate(-64.0333909254,91.6635366586) scale(1,-1) translate(50,-110)"
    />
  
</svg>
