<?xml version="1.0"?>
<!DOCTYPE svg PUBLIC "-//W3C//DTD SVG 1.1//EN"
  "http://www.w3.org/Graphics/SVG/1.1/DTD/svg11.dtd">
<svg
  width="240"
  height="240"
  viewBox="-50 -50 200 200" xmlns="http://www.w3.org/2000/svg" version="1.1">
  <rect
    x="0"
    y="0"
    width="100"
    height="100"
    fill="hsla(206,100%,53%,0.3)"
    stroke="hsl(206,100%,53%)"
    stroke-width="3"
    transform="" />
  
  <path
    d="M 
      69.9616858237
      -66.2068965517
      L
    
      77.7777777777
      0
      L
    
      100
      0
      L
    
      100
      12.5
      L
    
      79.2534722222
      12.5
      L
    
      65.1909722222
      0
      L
    
      57.5478927203
      -64.7413793103
      z
    "
    fill="hsla(0,0%,50%,0.3)"
    stroke="hsla(0,0%,50%,1)"
    stroke-width="1"
    transform="translate(-66.6618025622,31.0614224137) scale(1,-1) translate(50,-110)"
    />
  
  
  <line
    x1="69.96168582375479"
    y1="-66.20689655172414"
    x2="57.547892720306514"
    y2="-64.74137931034483"
    stroke="hsla(0,50%,50%,0.6)"
    stroke-width="1"
    transform="translate(-66.6618025622,31.0614224137) scale(1,-1) translate(50,-110)"
    />
  
  <line
    x1="65.19097222222223"
    y1="0"
    x2="79.25347222222223"
    y2="12.5"
    stroke="hsla(0,50%,50%,0.6)"
    stroke-width="1"
    transform="translate(-66.6618025622,31.0614224137) scale(1,-1) translate(50,-110)"
    />
  
  <line
    x1="69.96168582375479"
    y1="-66.20689655172414"
    x2="79.25347222222223"
    y2="12.5"
    stroke="hsla(0,50%,50%,0.6)"
    stroke-width="1"
    transform="translate(-66.6618025622,31.0614224137) scale(1,-1) translate(50,-110)"
    />
  
  <line
    x1="57.547892720306514"
    y1="-64.74137931034483"
    x2="65.19097222222223"
    y2="0"
    stroke="hsla(0,50%,50%,0.6)"
    stroke-width="1"
    transform="translate(-66.6618025622,31.0614224137) scale(1,-1) translate(50,-110)"
    />
  
  <line
    x1="65.19097222222223"
    y1="0"
    x2="100"
    y2="0"
    stroke="hsla(0,50%,50%,0.6)"
    stroke-width="1"
    transform="translate(-66.6618025622,31.0614224137) scale(1,-1) translate(50,-110)"
    />
  
  <line
    x1="100"
    y1="0"
    x2="100"
    y2="12.5"
    stroke="hsla(0,50%,50%,0.6)"
    stroke-width="1"
    transform="translate(-66.6618025622,31.0614224137) scale(1,-1) translate(50,-110)"
    />
  
  <line
    x1="79.25347222222223"
    y1="12.5"
    x2="100"
    y2="12.5"
    stroke="hsla(0,50%,50%,0.6)"
    stroke-width="1"
    transform="translate(-66.6618025622,31.0614224137) scale(1,-1) translate(50,-110)"
    />
  
</svg>
