<?xml version="1.0"?>
<!DOCTYPE svg PUBLIC "-//W3C//DTD SVG 1.1//EN"
  "http://www.w3.org/Graphics/SVG/1.1/DTD/svg11.dtd">
<svg
  width="240"
  height="240"
  viewBox="-500 -500 1000 1000" xmlns="http://www.w3.org/2000/svg" version="1.1">
  <rect
    x="0"
    y="0"
    width="100"
    height="100"
    fill="hsla(206,100%,53%,0.3)"
    stroke="hsl(206,100%,53%)"
    stroke-width="3"
    transform="" />
  
  <path
    d="M 
      68.6790475907
      -5.6178887641
      L
    
      69.6043158795
      0
      L
    
      100
      0
      L
    
      100
      100
      L
    
      72.8064657255
      100
      L
    
      34.8573239583
      3.5211955558
      L
    
      34.5692931011
      0
      z
    "
    fill="hsla(0,0%,50%,0.3)"
    stroke="hsla(0,0%,50%,1)"
    stroke-width="1"
    transform="translate(-67.2846465505,-47.1910556179)"
    />
  
  
  <line
    x1="34.857323958331186"
    y1="3.5211955558615236"
    x2="94.80912913792682"
    y2="79.52266016080613"
    stroke="hsla(0,50%,50%,0.6)"
    stroke-width="1"
    transform="translate(-67.2846465505,-47.1910556179)"
    />
  
  <line
    x1="34.857323958331186"
    y1="3.5211955558615236"
    x2="72.80646572552077"
    y2="100"
    stroke="hsla(0,50%,50%,0.6)"
    stroke-width="1"
    transform="translate(-67.2846465505,-47.1910556179)"
    />
  
  <line
    x1="68.67904759078155"
    y1="-5.617888764179291"
    x2="84.9301428843577"
    y2="93.05278520615045"
    stroke="hsla(0,50%,50%,0.6)"
    stroke-width="1"
    transform="translate(-67.2846465505,-47.1910556179)"
    />
  
  <line
    x1="34.569293101123904"
    y1="0"
    x2="34.857323958331186"
    y2="3.5211955558615236"
    stroke="hsla(0,50%,50%,0.6)"
    stroke-width="1"
    transform="translate(-67.2846465505,-47.1910556179)"
    />
  
  <line
    x1="34.569293101123904"
    y1="0"
    x2="100"
    y2="0"
    stroke="hsla(0,50%,50%,0.6)"
    stroke-width="1"
    transform="translate(-67.2846465505,-47.1910556179)"
    />
  
  <line
    x1="100"
    y1="0"
    x2="100"
    y2="100"
    stroke="hsla(0,50%,50%,0.6)"
    stroke-width="1"
    transform="translate(-67.2846465505,-47.1910556179)"
    />
  
  <line
    x1="68.67904759078155"
    y1="-5.617888764179291"
    x2="34.569293101123904"
    y2="0"
    stroke="hsla(0,50%,50%,0.6)"
    stroke-width="1"
    transform="translate(-67.2846465505,-47.1910556179)"
    />
  
  <line
    x1="94.80912913792682"
    y1="79.52266016080613"
    x2="72.80646572552077"
    y2="100"
    stroke="hsla(0,50%,50%,0.6)"
    stroke-width="1"
    transform="translate(-67.2846465505,-47.1910556179)"
    />
  
  <line
    x1="94.80912913792682"
    y1="79.52266016080613"
    x2="70.97772306612801"
    y2="95.35075374045084"
    stroke="hsla(0,50%,50%,0.6)"
    stroke-width="1"
    transform="translate(-67.2846465505,-47.1910556179)"
    />
  
  <line
    x1="72.80646572552077"
    y1="100"
    x2="100"
    y2="100"
    stroke="hsla(0,50%,50%,0.6)"
    stroke-width="1"
    transform="translate(-67.2846465505,-47.1910556179)"
    />
  
  <line
    x1="84.9301428843577"
    y1="93.05278520615045"
    x2="70.97772306612801"
    y2="95.35075374045084"
    stroke="hsla(0,50%,50%,0.6)"
    stroke-width="1"
    transform="translate(-67.2846465505,-47.1910556179)"
    />
  
</svg>
