<?xml version="1.0"?>
<!DOCTYPE svg PUBLIC "-//W3C//DTD SVG 1.1//EN"
  "http://www.w3.org/Graphics/SVG/1.1/DTD/svg11.dtd">
<svg
  width="240"
  height="240"
  viewBox="-500 -500 1000 1000" xmlns="http://www.w3.org/2000/svg" version="1.1">
  <rect
    x="0"
    y="0"
    width="100"
    height="100"
    fill="hsla(206,100%,53%,0.3)"
    stroke="hsl(206,100%,53%)"
    stroke-width="3"
    transform="" />
  
  <path
    d="M 
      29.0011833193
      -0.2962698023
      L
    
      129.0011833193
      33.0370635309
      L
    
      129.0011833193
      88.5926190865
      L
    
      29.0011833193
      55.2592857532
      L
    
      29.0011833193
      13.5926190865
      L
    
      22.3345166527
      8.5926190865
      z
    "
    fill="hsla(0,0%,50%,0.3)"
    stroke="hsla(0,0%,50%,1)"
    stroke-width="1"
    transform="translate(-75.6678499860,-44.1481746420)"
    />
  
  
  <line
    x1="29.00118331938357"
    y1="-0.2962698023526082"
    x2="129.00118331938356"
    y2="33.037063530980724"
    stroke="hsla(0,50%,50%,0.6)"
    stroke-width="1"
    transform="translate(-75.6678499860,-44.1481746420)"
    />
  
  <line
    x1="22.334516652716903"
    y1="8.592619086536281"
    x2="129.00118331938356"
    y2="88.59261908653627"
    stroke="hsla(0,50%,50%,0.6)"
    stroke-width="1"
    transform="translate(-75.6678499860,-44.1481746420)"
    />
  
  <line
    x1="29.00118331938357"
    y1="-0.2962698023526082"
    x2="29.00118331938357"
    y2="55.259285753202946"
    stroke="hsla(0,50%,50%,0.6)"
    stroke-width="1"
    transform="translate(-75.6678499860,-44.1481746420)"
    />
  
  <line
    x1="129.00118331938356"
    y1="33.037063530980724"
    x2="129.00118331938356"
    y2="88.59261908653627"
    stroke="hsla(0,50%,50%,0.6)"
    stroke-width="1"
    transform="translate(-75.6678499860,-44.1481746420)"
    />
  
  <line
    x1="29.00118331938357"
    y1="-0.2962698023526082"
    x2="22.334516652716903"
    y2="8.592619086536281"
    stroke="hsla(0,50%,50%,0.6)"
    stroke-width="1"
    transform="translate(-75.6678499860,-44.1481746420)"
    />
  
  <line
    x1="49.00118331938357"
    y1="28.59261908653628"
    x2="29.00118331938357"
    y2="55.259285753202946"
    stroke="hsla(0,50%,50%,0.6)"
    stroke-width="1"
    transform="translate(-75.6678499860,-44.1481746420)"
    />
  
  <line
    x1="29.00118331938357"
    y1="55.259285753202946"
    x2="129.00118331938356"
    y2="88.59261908653627"
    stroke="hsla(0,50%,50%,0.6)"
    stroke-width="1"
    transform="translate(-75.6678499860,-44.1481746420)"
    />
  
  <line
    x1="129.00118331938356"
    y1="33.037063530980724"
    x2="102.3345166527169"
    y2="68.59261908653627"
    stroke="hsla(0,50%,50%,0.6)"
    stroke-width="1"
    transform="translate(-75.6678499860,-44.1481746420)"
    />
  
</svg>
