<?xml version="1.0"?>
<!DOCTYPE svg PUBLIC "-//W3C//DTD SVG 1.1//EN"
  "http://www.w3.org/Graphics/SVG/1.1/DTD/svg11.dtd">
<svg
  width="240"
  height="240"
  viewBox="-50 -50 200 200" xmlns="http://www.w3.org/2000/svg" version="1.1">
  <rect
    x="0"
    y="0"
    width="100"
    height="100"
    fill="hsla(206,100%,53%,0.3)"
    stroke="hsl(206,100%,53%)"
    stroke-width="3"
    transform="" />
  
  <path
    d="M 
      11.4044943820
      -22.2471910112
      L
    
      39.2134831460
      -7.9915730337
      L
    
      44.4943820224
      22.8089887640
      L
    
      -45.6179775280
      88.9887640449
      z
    "
    fill="hsla(0,0%,50%,0.3)"
    stroke="hsla(0,0%,50%,1)"
    stroke-width="1"
    transform="translate(5.3581460674,-46.4167837078) scale(1,-1) translate(50,-110)"
    />
  
  
  <line
    x1="11.404494382022472"
    y1="-22.247191011235955"
    x2="39.21348314606742"
    y2="-7.991573033707865"
    stroke="hsla(0,50%,50%,0.6)"
    stroke-width="1"
    transform="translate(5.3581460674,-46.4167837078) scale(1,-1) translate(50,-110)"
    />
  
  <line
    x1="11.404494382022472"
    y1="-22.247191011235955"
    x2="29.662921348314608"
    y2="15.205992509363297"
    stroke="hsla(0,50%,50%,0.6)"
    stroke-width="1"
    transform="translate(5.3581460674,-46.4167837078) scale(1,-1) translate(50,-110)"
    />
  
  <line
    x1="39.21348314606742"
    y1="-7.991573033707865"
    x2="44.49438202247191"
    y2="22.808988764044944"
    stroke="hsla(0,50%,50%,0.6)"
    stroke-width="1"
    transform="translate(5.3581460674,-46.4167837078) scale(1,-1) translate(50,-110)"
    />
  
  <line
    x1="0"
    y1="0"
    x2="44.49438202247191"
    y2="22.808988764044944"
    stroke="hsla(0,50%,50%,0.6)"
    stroke-width="1"
    transform="translate(5.3581460674,-46.4167837078) scale(1,-1) translate(50,-110)"
    />
  
  <line
    x1="11.404494382022472"
    y1="-22.247191011235955"
    x2="-45.61797752808989"
    y2="88.98876404494382"
    stroke="hsla(0,50%,50%,0.6)"
    stroke-width="1"
    transform="translate(5.3581460674,-46.4167837078) scale(1,-1) translate(50,-110)"
    />
  
  <line
    x1="39.21348314606742"
    y1="-7.991573033707865"
    x2="22.359550561797754"
    y2="0.2247191011235955"
    stroke="hsla(0,50%,50%,0.6)"
    stroke-width="1"
    transform="translate(5.3581460674,-46.4167837078) scale(1,-1) translate(50,-110)"
    />
  
  <line
    x1="29.662921348314608"
    y1="15.205992509363297"
    x2="-45.61797752808989"
    y2="88.98876404494382"
    stroke="hsla(0,50%,50%,0.6)"
    stroke-width="1"
    transform="translate(5.3581460674,-46.4167837078) scale(1,-1) translate(50,-110)"
    />
  
  <line
    x1="44.49438202247191"
    y1="22.808988764044944"
    x2="-45.61797752808989"
    y2="88.98876404494382"
    stroke="hsla(0,50%,50%,0.6)"
    stroke-width="1"
    transform="translate(5.3581460674,-46.4167837078) scale(1,-1) translate(50,-110)"
    />
  
</svg>
