<?xml version="1.0"?>
<!DOCTYPE svg PUBLIC "-//W3C//DTD SVG 1.1//EN"
  "http://www.w3.org/Graphics/SVG/1.1/DTD/svg11.dtd">
<svg
  width="240"
  height="240"
  viewBox="-500 -500 1000 1000" xmlns="http://www.w3.org/2000/svg" version="1.1">
  <rect
    x="0"
    y="0"
    width="100"
    height="100"
    fill="hsla(206,100%,53%,0.3)"
    stroke="hsl(206,100%,53%)"
    stroke-width="3"
    transform="" />
  
  <path
    d="M 
      22.8779840848
      -10.0795755968
      L
    
      35.4774535809
      18.5179045092
      L
    
      20.1591511936
      45.7559681697
      L
    
      -91.5119363395
      40.3183023872
      z
    "
    fill="hsla(0,0%,50%,0.3)"
    stroke="hsla(0,0%,50%,1)"
    stroke-width="1"
    transform="translate(28.0172413793,-17.8381962864)"
    />
  
  
  <line
    x1="22.877984084880637"
    y1="-10.079575596816976"
    x2="35.47745358090186"
    y2="18.51790450928382"
    stroke="hsla(0,50%,50%,0.6)"
    stroke-width="1"
    transform="translate(28.0172413793,-17.8381962864)"
    />
  
  <line
    x1="0"
    y1="0"
    x2="20.159151193633953"
    y2="45.755968169761275"
    stroke="hsla(0,50%,50%,0.6)"
    stroke-width="1"
    transform="translate(28.0172413793,-17.8381962864)"
    />
  
  <line
    x1="22.877984084880637"
    y1="-10.079575596816976"
    x2="-91.51193633952255"
    y2="40.318302387267906"
    stroke="hsla(0,50%,50%,0.6)"
    stroke-width="1"
    transform="translate(28.0172413793,-17.8381962864)"
    />
  
  <line
    x1="22.877984084880637"
    y1="-10.079575596816976"
    x2="13.439434129089301"
    y2="30.50397877984085"
    stroke="hsla(0,50%,50%,0.6)"
    stroke-width="1"
    transform="translate(28.0172413793,-17.8381962864)"
    />
  
  <line
    x1="17.214854111405835"
    y1="14.270557029177718"
    x2="35.47745358090186"
    y2="18.51790450928382"
    stroke="hsla(0,50%,50%,0.6)"
    stroke-width="1"
    transform="translate(28.0172413793,-17.8381962864)"
    />
  
  <line
    x1="35.47745358090186"
    y1="18.51790450928382"
    x2="20.159151193633953"
    y2="45.755968169761275"
    stroke="hsla(0,50%,50%,0.6)"
    stroke-width="1"
    transform="translate(28.0172413793,-17.8381962864)"
    />
  
  <line
    x1="13.439434129089301"
    y1="30.50397877984085"
    x2="-91.51193633952255"
    y2="40.318302387267906"
    stroke="hsla(0,50%,50%,0.6)"
    stroke-width="1"
    transform="translate(28.0172413793,-17.8381962864)"
    />
  
  <line
    x1="-91.51193633952255"
    y1="40.318302387267906"
    x2="20.159151193633953"
    y2="45.755968169761275"
    stroke="hsla(0,50%,50%,0.6)"
    stroke-width="1"
    transform="translate(28.0172413793,-17.8381962864)"
    />
  
</svg>
