<?xml version="1.0"?>
<!DOCTYPE svg PUBLIC "-//W3C//DTD SVG 1.1//EN"
  "http://www.w3.org/Graphics/SVG/1.1/DTD/svg11.dtd">
<svg
  width="240"
  height="240"
  viewBox="-500 -500 1000 1000" xmlns="http://www.w3.org/2000/svg" version="1.1">
  <rect
    x="0"
    y="0"
    width="100"
    height="100"
    fill="hsla(206,100%,53%,0.3)"
    stroke="hsl(206,100%,53%)"
    stroke-width="3"
    transform="" />
  
  <path
    d="M 
      4.2544570502
      -24.6353322528
      L
    
      35.0486223662
      -19.3172609400
      L
    
      49.2706645056
      8.5089141004
      L
    
      -17.0178282009
      98.5413290113
      z
    "
    fill="hsla(0,0%,50%,0.3)"
    stroke="hsla(0,0%,50%,1)"
    stroke-width="1"
    transform="translate(-16.1264181523,-36.9529983792)"
    />
  
  
  <line
    x1="4.254457050243112"
    y1="-24.635332252836303"
    x2="35.04862236628849"
    y2="-19.317260940032416"
    stroke="hsla(0,50%,50%,0.6)"
    stroke-width="1"
    transform="translate(-16.1264181523,-36.9529983792)"
    />
  
  <line
    x1="35.04862236628849"
    y1="-19.317260940032416"
    x2="49.270664505672606"
    y2="8.508914100486225"
    stroke="hsla(0,50%,50%,0.6)"
    stroke-width="1"
    transform="translate(-16.1264181523,-36.9529983792)"
    />
  
  <line
    x1="4.254457050243112"
    y1="-24.635332252836303"
    x2="32.847109670448404"
    y2="5.672609400324149"
    stroke="hsla(0,50%,50%,0.6)"
    stroke-width="1"
    transform="translate(-16.1264181523,-36.9529983792)"
    />
  
  <line
    x1="0"
    y1="0"
    x2="49.270664505672606"
    y2="8.508914100486225"
    stroke="hsla(0,50%,50%,0.6)"
    stroke-width="1"
    transform="translate(-16.1264181523,-36.9529983792)"
    />
  
  <line
    x1="4.254457050243112"
    y1="-24.635332252836303"
    x2="-17.01782820097245"
    y2="98.54132901134521"
    stroke="hsla(0,50%,50%,0.6)"
    stroke-width="1"
    transform="translate(-16.1264181523,-36.9529983792)"
    />
  
  <line
    x1="35.04862236628849"
    y1="-19.317260940032416"
    x2="21.41004862236629"
    y2="-6.450567260940033"
    stroke="hsla(0,50%,50%,0.6)"
    stroke-width="1"
    transform="translate(-16.1264181523,-36.9529983792)"
    />
  
  <line
    x1="32.847109670448404"
    y1="5.672609400324149"
    x2="-17.01782820097245"
    y2="98.54132901134521"
    stroke="hsla(0,50%,50%,0.6)"
    stroke-width="1"
    transform="translate(-16.1264181523,-36.9529983792)"
    />
  
  <line
    x1="49.270664505672606"
    y1="8.508914100486225"
    x2="-17.01782820097245"
    y2="98.54132901134521"
    stroke="hsla(0,50%,50%,0.6)"
    stroke-width="1"
    transform="translate(-16.1264181523,-36.9529983792)"
    />
  
</svg>
