<?xml version="1.0"?>
<!DOCTYPE svg PUBLIC "-//W3C//DTD SVG 1.1//EN"
  "http://www.w3.org/Graphics/SVG/1.1/DTD/svg11.dtd">
<svg
  width="240"
  height="240"
  viewBox="-50 -50 200 200" xmlns="http://www.w3.org/2000/svg" version="1.1">
  <rect
    x="0"
    y="0"
    width="100"
    height="100"
    fill="hsla(206,100%,53%,0.3)"
    stroke="hsl(206,100%,53%)"
    stroke-width="3"
    transform="" />
  
  <path
    d="M 
      10.7425742574
      -22.5742574257
      L
    
      38.9603960396
      -9.1460396039
      L
    
      45.1485148514
      21.4851485148
      L
    
      -42.9702970297
      90.2970297029
      z
    "
    fill="hsla(0,0%,50%,0.3)"
    stroke="hsla(0,0%,50%,1)"
    stroke-width="1"
    transform="translate(3.9851485148,-46.5547648514) scale(1,-1) translate(50,-110)"
    />
  
  
  <line
    x1="10.742574257425742"
    y1="-22.574257425742573"
    x2="38.960396039603964"
    y2="-9.146039603960396"
    stroke="hsla(0,50%,50%,0.6)"
    stroke-width="1"
    transform="translate(3.9851485148,-46.5547648514) scale(1,-1) translate(50,-110)"
    />
  
  <line
    x1="10.742574257425742"
    y1="-22.574257425742573"
    x2="30.099009900990097"
    y2="14.323432343234323"
    stroke="hsla(0,50%,50%,0.6)"
    stroke-width="1"
    transform="translate(3.9851485148,-46.5547648514) scale(1,-1) translate(50,-110)"
    />
  
  <line
    x1="38.960396039603964"
    y1="-9.146039603960396"
    x2="45.148514851485146"
    y2="21.485148514851485"
    stroke="hsla(0,50%,50%,0.6)"
    stroke-width="1"
    transform="translate(3.9851485148,-46.5547648514) scale(1,-1) translate(50,-110)"
    />
  
  <line
    x1="0"
    y1="0"
    x2="45.148514851485146"
    y2="21.485148514851485"
    stroke="hsla(0,50%,50%,0.6)"
    stroke-width="1"
    transform="translate(3.9851485148,-46.5547648514) scale(1,-1) translate(50,-110)"
    />
  
  <line
    x1="10.742574257425742"
    y1="-22.574257425742573"
    x2="-42.97029702970297"
    y2="90.29702970297029"
    stroke="hsla(0,50%,50%,0.6)"
    stroke-width="1"
    transform="translate(3.9851485148,-46.5547648514) scale(1,-1) translate(50,-110)"
    />
  
  <line
    x1="38.960396039603964"
    y1="-9.146039603960396"
    x2="22.356435643564357"
    y2="-0.43564356435643564"
    stroke="hsla(0,50%,50%,0.6)"
    stroke-width="1"
    transform="translate(3.9851485148,-46.5547648514) scale(1,-1) translate(50,-110)"
    />
  
  <line
    x1="30.099009900990097"
    y1="14.323432343234323"
    x2="-42.97029702970297"
    y2="90.29702970297029"
    stroke="hsla(0,50%,50%,0.6)"
    stroke-width="1"
    transform="translate(3.9851485148,-46.5547648514) scale(1,-1) translate(50,-110)"
    />
  
  <line
    x1="45.148514851485146"
    y1="21.485148514851485"
    x2="-42.97029702970297"
    y2="90.29702970297029"
    stroke="hsla(0,50%,50%,0.6)"
    stroke-width="1"
    transform="translate(3.9851485148,-46.5547648514) scale(1,-1) translate(50,-110)"
    />
  
</svg>
