<?xml version="1.0"?>
<!DOCTYPE svg PUBLIC "-//W3C//DTD SVG 1.1//EN"
  "http://www.w3.org/Graphics/SVG/1.1/DTD/svg11.dtd">
<svg
  width="240"
  height="240"
  viewBox="-500 -500 1000 1000" xmlns="http://www.w3.org/2000/svg" version="1.1">
  <rect
    x="0"
    y="0"
    width="100"
    height="100"
    fill="hsla(206,100%,53%,0.3)"
    stroke="hsl(206,100%,53%)"
    stroke-width="3"
    transform="" />
  
  <path
    d="M 
      1.3503649635
      -24.9635036496
      L
    
      32.5547445255
      -23.2755474452
      L
    
      49.9270072992
      2.7007299270
      L
    
      -5.4014598540
      99.8540145985
      z
    "
    fill="hsla(0,0%,50%,0.3)"
    stroke="hsla(0,0%,50%,1)"
    stroke-width="1"
    transform="translate(-22.2627737226,-37.4452554744)"
    />
  
  
  <line
    x1="1.3503649635036497"
    y1="-24.963503649635037"
    x2="32.55474452554745"
    y2="-23.275547445255473"
    stroke="hsla(0,50%,50%,0.6)"
    stroke-width="1"
    transform="translate(-22.2627737226,-37.4452554744)"
    />
  
  <line
    x1="32.55474452554745"
    y1="-23.275547445255473"
    x2="49.92700729927007"
    y2="2.7007299270072993"
    stroke="hsla(0,50%,50%,0.6)"
    stroke-width="1"
    transform="translate(-22.2627737226,-37.4452554744)"
    />
  
  <line
    x1="1.3503649635036497"
    y1="-24.963503649635037"
    x2="33.284671532846716"
    y2="1.8004866180048662"
    stroke="hsla(0,50%,50%,0.6)"
    stroke-width="1"
    transform="translate(-22.2627737226,-37.4452554744)"
    />
  
  <line
    x1="0"
    y1="0"
    x2="49.92700729927007"
    y2="2.7007299270072993"
    stroke="hsla(0,50%,50%,0.6)"
    stroke-width="1"
    transform="translate(-22.2627737226,-37.4452554744)"
    />
  
  <line
    x1="1.3503649635036497"
    y1="-24.963503649635037"
    x2="-5.401459854014599"
    y2="99.85401459854015"
    stroke="hsla(0,50%,50%,0.6)"
    stroke-width="1"
    transform="translate(-22.2627737226,-37.4452554744)"
    />
  
  <line
    x1="32.55474452554745"
    y1="-23.275547445255473"
    x2="20.51094890510949"
    y2="-8.905109489051094"
    stroke="hsla(0,50%,50%,0.6)"
    stroke-width="1"
    transform="translate(-22.2627737226,-37.4452554744)"
    />
  
  <line
    x1="33.284671532846716"
    y1="1.8004866180048662"
    x2="-5.401459854014599"
    y2="99.85401459854015"
    stroke="hsla(0,50%,50%,0.6)"
    stroke-width="1"
    transform="translate(-22.2627737226,-37.4452554744)"
    />
  
  <line
    x1="49.92700729927007"
    y1="2.7007299270072993"
    x2="-5.401459854014599"
    y2="99.85401459854015"
    stroke="hsla(0,50%,50%,0.6)"
    stroke-width="1"
    transform="translate(-22.2627737226,-37.4452554744)"
    />
  
</svg>
