<?xml version="1.0"?>
<!DOCTYPE svg PUBLIC "-//W3C//DTD SVG 1.1//EN"
  "http://www.w3.org/Graphics/SVG/1.1/DTD/svg11.dtd">
<svg
  width="240"
  height="240"
  viewBox="-500 -500 1000 1000" xmlns="http://www.w3.org/2000/svg" version="1.1">
  <rect
    x="0"
    y="0"
    width="100"
    height="100"
    fill="hsla(206,100%,53%,0.3)"
    stroke="hsl(206,100%,53%)"
    stroke-width="3"
    transform="" />
  
  <path
    d="M 
      48
      64
      L
    
      52.6315789473
      76.3157894736
      L
    
      100
      100
      L
    
      60
      130
      L
    
      27.2727272727
      86.3636363636
      z
    "
    fill="hsla(0,0%,50%,0.3)"
    stroke="hsla(0,0%,50%,1)"
    stroke-width="1"
    transform="translate(-63.6363636363,-97)"
    />
  
  
  <line
    x1="48"
    y1="64"
    x2="65.6"
    y2="110.8"
    stroke="hsla(0,50%,50%,0.6)"
    stroke-width="1"
    transform="translate(-63.6363636363,-97)"
    />
  
  <line
    x1="50"
    y1="75"
    x2="43.90243902439025"
    y2="108.53658536585365"
    stroke="hsla(0,50%,50%,0.6)"
    stroke-width="1"
    transform="translate(-63.6363636363,-97)"
    />
  
  <line
    x1="48"
    y1="64"
    x2="37.5"
    y2="100"
    stroke="hsla(0,50%,50%,0.6)"
    stroke-width="1"
    transform="translate(-63.6363636363,-97)"
    />
  
  <line
    x1="27.272727272727273"
    y1="86.36363636363636"
    x2="60"
    y2="130"
    stroke="hsla(0,50%,50%,0.6)"
    stroke-width="1"
    transform="translate(-63.6363636363,-97)"
    />
  
  <line
    x1="50"
    y1="75"
    x2="100"
    y2="100"
    stroke="hsla(0,50%,50%,0.6)"
    stroke-width="1"
    transform="translate(-63.6363636363,-97)"
    />
  
  <line
    x1="27.272727272727273"
    y1="86.36363636363636"
    x2="65.6"
    y2="110.8"
    stroke="hsla(0,50%,50%,0.6)"
    stroke-width="1"
    transform="translate(-63.6363636363,-97)"
    />
  
  <line
    x1="48"
    y1="64"
    x2="27.272727272727273"
    y2="86.36363636363636"
    stroke="hsla(0,50%,50%,0.6)"
    stroke-width="1"
    transform="translate(-63.6363636363,-97)"
    />
  
  <line
    x1="50"
    y1="75"
    x2="27.272727272727273"
    y2="86.36363636363636"
    stroke="hsla(0,50%,50%,0.6)"
    stroke-width="1"
    transform="translate(-63.6363636363,-97)"
    />
  
  <line
    x1="37.5"
    y1="100"
    x2="100"
    y2="100"
    stroke="hsla(0,50%,50%,0.6)"
    stroke-width="1"
    transform="translate(-63.6363636363,-97)"
    />
  
  <line
    x1="43.90243902439025"
    y1="108.53658536585365"
    x2="65.6"
    y2="110.8"
    stroke="hsla(0,50%,50%,0.6)"
    stroke-width="1"
    transform="translate(-63.6363636363,-97)"
    />
  
  <line
    x1="100"
    y1="100"
    x2="60"
    y2="130"
    stroke="hsla(0,50%,50%,0.6)"
    stroke-width="1"
    transform="translate(-63.6363636363,-97)"
    />
  
</svg>
