<?xml version="1.0"?>
<!DOCTYPE svg PUBLIC "-//W3C//DTD SVG 1.1//EN"
  "http://www.w3.org/Graphics/SVG/1.1/DTD/svg11.dtd">
<svg
  width="240"
  height="240"
  viewBox="-50 -50 200 200" xmlns="http://www.w3.org/2000/svg" version="1.1">
  <rect
    x="0"
    y="0"
    width="100"
    height="100"
    fill="hsla(206,100%,53%,0.3)"
    stroke="hsl(206,100%,53%)"
    stroke-width="3"
    transform="" />
  
  <path
    d="M 
      93.5223275444
      -21.3570490774
      L
    
      99.1497892952
      0
      L
    
      100
      0
      L
    
      100
      3.2266752848
      L
    
      119.0020839988
      75.3423925497
      L
    
      116.1811738490
      76.0856864342
      L
    
      75.0670961393
      61.1350964944
      L
    
      0
      3.2855557688
      L
    
      0
      0
      L
    
      12.4691697445
      0
      z
    "
    fill="hsla(0,0%,50%,0.3)"
    stroke="hsla(0,0%,50%,1)"
    stroke-width="1"
    transform="translate(-17.9645353544,-7.7700360008) scale(1,-1) translate(50,-110)"
    />
  
  
  <line
    x1="106.51824730691804"
    y1="62.42417367112018"
    x2="116.18117384907106"
    y2="76.08568643427725"
    stroke="hsla(0,50%,50%,0.6)"
    stroke-width="1"
    transform="translate(-17.9645353544,-7.7700360008) scale(1,-1) translate(50,-110)"
    />
  
  <line
    x1="93.52232754447171"
    y1="-21.357049077490778"
    x2="119.0020839988461"
    y2="75.34239254977905"
    stroke="hsla(0,50%,50%,0.6)"
    stroke-width="1"
    transform="translate(-17.9645353544,-7.7700360008) scale(1,-1) translate(50,-110)"
    />
  
  <line
    x1="0"
    y1="0"
    x2="100"
    y2="0"
    stroke="hsla(0,50%,50%,0.6)"
    stroke-width="1"
    transform="translate(-17.9645353544,-7.7700360008) scale(1,-1) translate(50,-110)"
    />
  
  <line
    x1="0"
    y1="0"
    x2="0"
    y2="3.2855557688165207"
    stroke="hsla(0,50%,50%,0.6)"
    stroke-width="1"
    transform="translate(-17.9645353544,-7.7700360008) scale(1,-1) translate(50,-110)"
    />
  
  <line
    x1="100"
    y1="0"
    x2="100"
    y2="70.20161682994663"
    stroke="hsla(0,50%,50%,0.6)"
    stroke-width="1"
    transform="translate(-17.9645353544,-7.7700360008) scale(1,-1) translate(50,-110)"
    />
  
  <line
    x1="0"
    y1="3.2855557688165207"
    x2="75.06709613933623"
    y2="61.135096494485815"
    stroke="hsla(0,50%,50%,0.6)"
    stroke-width="1"
    transform="translate(-17.9645353544,-7.7700360008) scale(1,-1) translate(50,-110)"
    />
  
  <line
    x1="93.52232754447171"
    y1="-21.357049077490778"
    x2="0"
    y2="3.2855557688165207"
    stroke="hsla(0,50%,50%,0.6)"
    stroke-width="1"
    transform="translate(-17.9645353544,-7.7700360008) scale(1,-1) translate(50,-110)"
    />
  
  <line
    x1="75.06709613933623"
    y1="61.135096494485815"
    x2="116.18117384907106"
    y2="76.08568643427725"
    stroke="hsla(0,50%,50%,0.6)"
    stroke-width="1"
    transform="translate(-17.9645353544,-7.7700360008) scale(1,-1) translate(50,-110)"
    />
  
  <line
    x1="75.06709613933623"
    y1="61.135096494485815"
    x2="106.51824730691804"
    y2="62.42417367112018"
    stroke="hsla(0,50%,50%,0.6)"
    stroke-width="1"
    transform="translate(-17.9645353544,-7.7700360008) scale(1,-1) translate(50,-110)"
    />
  
  <line
    x1="106.51824730691804"
    y1="62.42417367112018"
    x2="100"
    y2="70.20161682994663"
    stroke="hsla(0,50%,50%,0.6)"
    stroke-width="1"
    transform="translate(-17.9645353544,-7.7700360008) scale(1,-1) translate(50,-110)"
    />
  
  <line
    x1="119.0020839988461"
    y1="75.34239254977905"
    x2="116.18117384907106"
    y2="76.08568643427725"
    stroke="hsla(0,50%,50%,0.6)"
    stroke-width="1"
    transform="translate(-17.9645353544,-7.7700360008) scale(1,-1) translate(50,-110)"
    />
  
</svg>
