<?xml version="1.0"?>
<!DOCTYPE svg PUBLIC "-//W3C//DTD SVG 1.1//EN"
  "http://www.w3.org/Graphics/SVG/1.1/DTD/svg11.dtd">
<svg
  width="240"
  height="240"
  viewBox="-500 -500 1000 1000" xmlns="http://www.w3.org/2000/svg" version="1.1">
  <rect
    x="0"
    y="0"
    width="100"
    height="100"
    fill="hsla(206,100%,53%,0.3)"
    stroke="hsl(206,100%,53%)"
    stroke-width="3"
    transform="" />
  
  <path
    d="M 
      14316557646.6666666666
      11.1121111111
      L
    
      14316557746.6666666666
      44.4454444444
      L
    
      14316557746.6666666666
      100.001
      L
    
      14316557646.6666666666
      66.6676666666
      L
    
      14316557646.6666666666
      25.001
      L
    
      14316557640
      20.001
      z
    "
    fill="hsla(0,0%,50%,0.3)"
    stroke="hsla(0,0%,50%,1)"
    stroke-width="1"
    transform="translate(-14316557693.3333333333,-55.5565555555)"
    />
  
  
  <line
    x1="14316557640"
    y1="20.001"
    x2="14316557746.666666"
    y2="100.001"
    stroke="hsla(0,50%,50%,0.6)"
    stroke-width="1"
    transform="translate(-14316557693.3333333333,-55.5565555555)"
    />
  
  <line
    x1="14316557646.666666"
    y1="11.112111111111112"
    x2="14316557746.666666"
    y2="44.44544444444445"
    stroke="hsla(0,50%,50%,0.6)"
    stroke-width="1"
    transform="translate(-14316557693.3333333333,-55.5565555555)"
    />
  
  <line
    x1="14316557646.666666"
    y1="66.66766666666666"
    x2="14316557746.666666"
    y2="100.001"
    stroke="hsla(0,50%,50%,0.6)"
    stroke-width="1"
    transform="translate(-14316557693.3333333333,-55.5565555555)"
    />
  
  <line
    x1="14316557646.666666"
    y1="11.112111111111112"
    x2="14316557646.666666"
    y2="66.66766666666666"
    stroke="hsla(0,50%,50%,0.6)"
    stroke-width="1"
    transform="translate(-14316557693.3333333333,-55.5565555555)"
    />
  
  <line
    x1="14316557746.666666"
    y1="44.44544444444445"
    x2="14316557746.666666"
    y2="100.001"
    stroke="hsla(0,50%,50%,0.6)"
    stroke-width="1"
    transform="translate(-14316557693.3333333333,-55.5565555555)"
    />
  
  <line
    x1="14316557646.666666"
    y1="11.112111111111112"
    x2="14316557640"
    y2="20.001"
    stroke="hsla(0,50%,50%,0.6)"
    stroke-width="1"
    transform="translate(-14316557693.3333333333,-55.5565555555)"
    />
  
  <line
    x1="14316557666.666666"
    y1="40.001"
    x2="14316557646.666666"
    y2="66.66766666666666"
    stroke="hsla(0,50%,50%,0.6)"
    stroke-width="1"
    transform="translate(-14316557693.3333333333,-55.5565555555)"
    />
  
  <line
    x1="14316557746.666666"
    y1="44.44544444444445"
    x2="14316557720"
    y2="80.001"
    stroke="hsla(0,50%,50%,0.6)"
    stroke-width="1"
    transform="translate(-14316557693.3333333333,-55.5565555555)"
    />
  
</svg>
