<?xml version="1.0"?>
<!DOCTYPE svg PUBLIC "-//W3C//DTD SVG 1.1//EN"
  "http://www.w3.org/Graphics/SVG/1.1/DTD/svg11.dtd">
<svg
  width="240"
  height="240"
  viewBox="-50 -50 200 200" xmlns="http://www.w3.org/2000/svg" version="1.1">
  <rect
    x="0"
    y="0"
    width="100"
    height="100"
    fill="hsla(206,100%,53%,0.3)"
    stroke="hsl(206,100%,53%)"
    stroke-width="3"
    transform="" />
  
  <path
    d="M 
      116.5962287640
      -64.6128718123
      L
    
      117.2487400263
      -62.7578665873
      L
    
      178.5714285714
      -41.1871753750
      L
    
      178.5714285714
      11.8159627122
      L
    
      128.5714285714
      47.2312456971
      L
    
      114.2857142857
      42.2061442393
      L
    
      114.2857142857
      -63.8001319351
      z
    "
    fill="hsla(0,0%,50%,0.3)"
    stroke="hsla(0,0%,50%,1)"
    stroke-width="1"
    transform="translate(-122.1806133516,17.9833935440) scale(1,-1) translate(50,-110)"
    />
  
  
  <line
    x1="114.28571428571429"
    y1="-63.8001319351671"
    x2="178.57142857142858"
    y2="-41.187175375078525"
    stroke="hsla(0,50%,50%,0.6)"
    stroke-width="1"
    transform="translate(-122.1806133516,17.9833935440) scale(1,-1) translate(50,-110)"
    />
  
  <line
    x1="161.88941770452507"
    y1="0"
    x2="178.57142857142858"
    y2="11.815962712200681"
    stroke="hsla(0,50%,50%,0.6)"
    stroke-width="1"
    transform="translate(-122.1806133516,17.9833935440) scale(1,-1) translate(50,-110)"
    />
  
  <line
    x1="150.83362013631938"
    y1="-31.43020426284236"
    x2="161.88941770452507"
    y2="0"
    stroke="hsla(0,50%,50%,0.6)"
    stroke-width="1"
    transform="translate(-122.1806133516,17.9833935440) scale(1,-1) translate(50,-110)"
    />
  
  <line
    x1="116.5962287640959"
    y1="-64.61287181231754"
    x2="149.77889631357107"
    y2="29.72116538688755"
    stroke="hsla(0,50%,50%,0.6)"
    stroke-width="1"
    transform="translate(-122.1806133516,17.9833935440) scale(1,-1) translate(50,-110)"
    />
  
  <line
    x1="116.5962287640959"
    y1="-64.61287181231754"
    x2="114.28571428571429"
    y2="-63.8001319351671"
    stroke="hsla(0,50%,50%,0.6)"
    stroke-width="1"
    transform="translate(-122.1806133516,17.9833935440) scale(1,-1) translate(50,-110)"
    />
  
  <line
    x1="128.57142857142858"
    y1="0"
    x2="178.57142857142858"
    y2="0"
    stroke="hsla(0,50%,50%,0.6)"
    stroke-width="1"
    transform="translate(-122.1806133516,17.9833935440) scale(1,-1) translate(50,-110)"
    />
  
  <line
    x1="114.28571428571429"
    y1="-63.8001319351671"
    x2="114.28571428571429"
    y2="42.206144239391314"
    stroke="hsla(0,50%,50%,0.6)"
    stroke-width="1"
    transform="translate(-122.1806133516,17.9833935440) scale(1,-1) translate(50,-110)"
    />
  
  <line
    x1="128.57142857142858"
    y1="0"
    x2="128.57142857142858"
    y2="47.231245697188776"
    stroke="hsla(0,50%,50%,0.6)"
    stroke-width="1"
    transform="translate(-122.1806133516,17.9833935440) scale(1,-1) translate(50,-110)"
    />
  
  <line
    x1="178.57142857142858"
    y1="-41.187175375078525"
    x2="178.57142857142858"
    y2="11.815962712200681"
    stroke="hsla(0,50%,50%,0.6)"
    stroke-width="1"
    transform="translate(-122.1806133516,17.9833935440) scale(1,-1) translate(50,-110)"
    />
  
  <line
    x1="114.28571428571429"
    y1="42.206144239391314"
    x2="128.57142857142858"
    y2="47.231245697188776"
    stroke="hsla(0,50%,50%,0.6)"
    stroke-width="1"
    transform="translate(-122.1806133516,17.9833935440) scale(1,-1) translate(50,-110)"
    />
  
  <line
    x1="178.57142857142858"
    y1="-41.187175375078525"
    x2="150.83362013631938"
    y2="-31.43020426284236"
    stroke="hsla(0,50%,50%,0.6)"
    stroke-width="1"
    transform="translate(-122.1806133516,17.9833935440) scale(1,-1) translate(50,-110)"
    />
  
  <line
    x1="149.77889631357107"
    y1="29.72116538688755"
    x2="114.28571428571429"
    y2="42.206144239391314"
    stroke="hsla(0,50%,50%,0.6)"
    stroke-width="1"
    transform="translate(-122.1806133516,17.9833935440) scale(1,-1) translate(50,-110)"
    />
  
  <line
    x1="178.57142857142858"
    y1="11.815962712200681"
    x2="128.57142857142858"
    y2="47.231245697188776"
    stroke="hsla(0,50%,50%,0.6)"
    stroke-width="1"
    transform="translate(-122.1806133516,17.9833935440) scale(1,-1) translate(50,-110)"
    />
  
</svg>
