<?xml version="1.0"?>
<!DOCTYPE svg PUBLIC "-//W3C//DTD SVG 1.1//EN"
  "http://www.w3.org/Graphics/SVG/1.1/DTD/svg11.dtd">
<svg
  width="240"
  height="240"
  viewBox="-50 -50 200 200" xmlns="http://www.w3.org/2000/svg" version="1.1">
  <rect
    x="0"
    y="0"
    width="100"
    height="100"
    fill="hsla(206,100%,53%,0.3)"
    stroke="hsl(206,100%,53%)"
    stroke-width="3"
    transform="" />
  
  <path
    d="M 
      510
      405
      L
    
      521.6666666666
      406.6666666666
      L
    
      520
      418.3333333333
      L
    
      506.6666666666
      428.3333333333
      L
    
      503.3333333333
      451.6666666666
      L
    
      493.3333333333
      438.3333333333
      L
    
      490
      461.6666666666
      L
    
      470
      435
      z
    "
    fill="hsla(0,0%,50%,0.3)"
    stroke="hsla(0,0%,50%,1)"
    stroke-width="1"
    transform="translate(-482.6432291666,-442.2005208333) scale(1,-1) translate(50,-110)"
    />
  
  
  <line
    x1="483.3333333333333"
    y1="425"
    x2="503.3333333333333"
    y2="451.6666666666667"
    stroke="hsla(0,50%,50%,0.6)"
    stroke-width="1"
    transform="translate(-482.6432291666,-442.2005208333) scale(1,-1) translate(50,-110)"
    />
  
  <line
    x1="470"
    y1="435"
    x2="490"
    y2="461.6666666666667"
    stroke="hsla(0,50%,50%,0.6)"
    stroke-width="1"
    transform="translate(-482.6432291666,-442.2005208333) scale(1,-1) translate(50,-110)"
    />
  
  <line
    x1="496.6666666666667"
    y1="415"
    x2="490"
    y2="461.6666666666667"
    stroke="hsla(0,50%,50%,0.6)"
    stroke-width="1"
    transform="translate(-482.6432291666,-442.2005208333) scale(1,-1) translate(50,-110)"
    />
  
  <line
    x1="510"
    y1="405"
    x2="503.3333333333333"
    y2="451.6666666666667"
    stroke="hsla(0,50%,50%,0.6)"
    stroke-width="1"
    transform="translate(-482.6432291666,-442.2005208333) scale(1,-1) translate(50,-110)"
    />
  
  <line
    x1="521.6666666666666"
    y1="406.6666666666667"
    x2="520"
    y2="418.3333333333333"
    stroke="hsla(0,50%,50%,0.6)"
    stroke-width="1"
    transform="translate(-482.6432291666,-442.2005208333) scale(1,-1) translate(50,-110)"
    />
  
  <line
    x1="510"
    y1="405"
    x2="521.6666666666666"
    y2="406.6666666666667"
    stroke="hsla(0,50%,50%,0.6)"
    stroke-width="1"
    transform="translate(-482.6432291666,-442.2005208333) scale(1,-1) translate(50,-110)"
    />
  
  <line
    x1="496.6666666666667"
    y1="415"
    x2="520"
    y2="418.3333333333333"
    stroke="hsla(0,50%,50%,0.6)"
    stroke-width="1"
    transform="translate(-482.6432291666,-442.2005208333) scale(1,-1) translate(50,-110)"
    />
  
  <line
    x1="510"
    y1="405"
    x2="470"
    y2="435"
    stroke="hsla(0,50%,50%,0.6)"
    stroke-width="1"
    transform="translate(-482.6432291666,-442.2005208333) scale(1,-1) translate(50,-110)"
    />
  
  <line
    x1="508.3333333333333"
    y1="416.6666666666667"
    x2="475"
    y2="441.6666666666667"
    stroke="hsla(0,50%,50%,0.6)"
    stroke-width="1"
    transform="translate(-482.6432291666,-442.2005208333) scale(1,-1) translate(50,-110)"
    />
  
  <line
    x1="520"
    y1="418.3333333333333"
    x2="480"
    y2="448.3333333333333"
    stroke="hsla(0,50%,50%,0.6)"
    stroke-width="1"
    transform="translate(-482.6432291666,-442.2005208333) scale(1,-1) translate(50,-110)"
    />
  
</svg>
