<?xml version="1.0"?>
<!DOCTYPE svg PUBLIC "-//W3C//DTD SVG 1.1//EN"
  "http://www.w3.org/Graphics/SVG/1.1/DTD/svg11.dtd">
<svg
  width="240"
  height="240"
  viewBox="-500 -500 1000 1000" xmlns="http://www.w3.org/2000/svg" version="1.1">
  <rect
    x="0"
    y="0"
    width="100"
    height="100"
    fill="hsla(206,100%,53%,0.3)"
    stroke="hsl(206,100%,53%)"
    stroke-width="3"
    transform="" />
  
  <path
    d="M 
      543.3333333333
      430
      L
    
      555
      431.6666666666
      L
    
      553.3333333333
      443.3333333333
      L
    
      540
      453.3333333333
      L
    
      536.6666666666
      476.6666666666
      L
    
      526.6666666666
      463.3333333333
      L
    
      523.3333333333
      486.6666666666
      L
    
      503.3333333333
      460
      z
    "
    fill="hsla(0,0%,50%,0.3)"
    stroke="hsla(0,0%,50%,1)"
    stroke-width="1"
    transform="translate(-529.1666666666,-458.3333333333)"
    />
  
  
  <line
    x1="516.6666666666666"
    y1="450"
    x2="536.6666666666666"
    y2="476.6666666666667"
    stroke="hsla(0,50%,50%,0.6)"
    stroke-width="1"
    transform="translate(-529.1666666666,-458.3333333333)"
    />
  
  <line
    x1="503.3333333333333"
    y1="460"
    x2="523.3333333333334"
    y2="486.6666666666667"
    stroke="hsla(0,50%,50%,0.6)"
    stroke-width="1"
    transform="translate(-529.1666666666,-458.3333333333)"
    />
  
  <line
    x1="530"
    y1="440"
    x2="523.3333333333334"
    y2="486.6666666666667"
    stroke="hsla(0,50%,50%,0.6)"
    stroke-width="1"
    transform="translate(-529.1666666666,-458.3333333333)"
    />
  
  <line
    x1="543.3333333333334"
    y1="430"
    x2="536.6666666666666"
    y2="476.6666666666667"
    stroke="hsla(0,50%,50%,0.6)"
    stroke-width="1"
    transform="translate(-529.1666666666,-458.3333333333)"
    />
  
  <line
    x1="555"
    y1="431.6666666666667"
    x2="553.3333333333334"
    y2="443.3333333333333"
    stroke="hsla(0,50%,50%,0.6)"
    stroke-width="1"
    transform="translate(-529.1666666666,-458.3333333333)"
    />
  
  <line
    x1="543.3333333333334"
    y1="430"
    x2="555"
    y2="431.6666666666667"
    stroke="hsla(0,50%,50%,0.6)"
    stroke-width="1"
    transform="translate(-529.1666666666,-458.3333333333)"
    />
  
  <line
    x1="530"
    y1="440"
    x2="553.3333333333334"
    y2="443.3333333333333"
    stroke="hsla(0,50%,50%,0.6)"
    stroke-width="1"
    transform="translate(-529.1666666666,-458.3333333333)"
    />
  
  <line
    x1="543.3333333333334"
    y1="430"
    x2="503.3333333333333"
    y2="460"
    stroke="hsla(0,50%,50%,0.6)"
    stroke-width="1"
    transform="translate(-529.1666666666,-458.3333333333)"
    />
  
  <line
    x1="541.6666666666666"
    y1="441.6666666666667"
    x2="508.3333333333333"
    y2="466.6666666666667"
    stroke="hsla(0,50%,50%,0.6)"
    stroke-width="1"
    transform="translate(-529.1666666666,-458.3333333333)"
    />
  
  <line
    x1="553.3333333333334"
    y1="443.3333333333333"
    x2="513.3333333333334"
    y2="473.3333333333333"
    stroke="hsla(0,50%,50%,0.6)"
    stroke-width="1"
    transform="translate(-529.1666666666,-458.3333333333)"
    />
  
</svg>
