<?xml version="1.0"?>
<!DOCTYPE svg PUBLIC "-//W3C//DTD SVG 1.1//EN"
  "http://www.w3.org/Graphics/SVG/1.1/DTD/svg11.dtd">
<svg
  width="240"
  height="240"
  viewBox="-50 -50 200 200" xmlns="http://www.w3.org/2000/svg" version="1.1">
  <rect
    x="0"
    y="0"
    width="100"
    height="100"
    fill="hsla(206,100%,53%,0.3)"
    stroke="hsl(206,100%,53%)"
    stroke-width="3"
    transform="" />
  
  <path
    d="M 
      576.6666666666
      455
      L
    
      588.3333333333
      456.6666666666
      L
    
      586.6666666666
      468.3333333333
      L
    
      573.3333333333
      478.3333333333
      L
    
      570
      501.6666666666
      L
    
      560
      488.3333333333
      L
    
      556.6666666666
      511.6666666666
      L
    
      536.6666666666
      485
      z
    "
    fill="hsla(0,0%,50%,0.3)"
    stroke="hsla(0,0%,50%,1)"
    stroke-width="1"
    transform="translate(-549.3098958333,-492.2005208333) scale(1,-1) translate(50,-110)"
    />
  
  
  <line
    x1="550"
    y1="475"
    x2="570"
    y2="501.6666666666667"
    stroke="hsla(0,50%,50%,0.6)"
    stroke-width="1"
    transform="translate(-549.3098958333,-492.2005208333) scale(1,-1) translate(50,-110)"
    />
  
  <line
    x1="536.6666666666666"
    y1="485"
    x2="556.6666666666666"
    y2="511.6666666666667"
    stroke="hsla(0,50%,50%,0.6)"
    stroke-width="1"
    transform="translate(-549.3098958333,-492.2005208333) scale(1,-1) translate(50,-110)"
    />
  
  <line
    x1="563.3333333333334"
    y1="465"
    x2="556.6666666666666"
    y2="511.6666666666667"
    stroke="hsla(0,50%,50%,0.6)"
    stroke-width="1"
    transform="translate(-549.3098958333,-492.2005208333) scale(1,-1) translate(50,-110)"
    />
  
  <line
    x1="576.6666666666666"
    y1="455"
    x2="570"
    y2="501.6666666666667"
    stroke="hsla(0,50%,50%,0.6)"
    stroke-width="1"
    transform="translate(-549.3098958333,-492.2005208333) scale(1,-1) translate(50,-110)"
    />
  
  <line
    x1="588.3333333333334"
    y1="456.6666666666667"
    x2="586.6666666666666"
    y2="468.3333333333333"
    stroke="hsla(0,50%,50%,0.6)"
    stroke-width="1"
    transform="translate(-549.3098958333,-492.2005208333) scale(1,-1) translate(50,-110)"
    />
  
  <line
    x1="576.6666666666666"
    y1="455"
    x2="588.3333333333334"
    y2="456.6666666666667"
    stroke="hsla(0,50%,50%,0.6)"
    stroke-width="1"
    transform="translate(-549.3098958333,-492.2005208333) scale(1,-1) translate(50,-110)"
    />
  
  <line
    x1="563.3333333333334"
    y1="465"
    x2="586.6666666666666"
    y2="468.3333333333333"
    stroke="hsla(0,50%,50%,0.6)"
    stroke-width="1"
    transform="translate(-549.3098958333,-492.2005208333) scale(1,-1) translate(50,-110)"
    />
  
  <line
    x1="576.6666666666666"
    y1="455"
    x2="536.6666666666666"
    y2="485"
    stroke="hsla(0,50%,50%,0.6)"
    stroke-width="1"
    transform="translate(-549.3098958333,-492.2005208333) scale(1,-1) translate(50,-110)"
    />
  
  <line
    x1="575"
    y1="466.6666666666667"
    x2="541.6666666666666"
    y2="491.6666666666667"
    stroke="hsla(0,50%,50%,0.6)"
    stroke-width="1"
    transform="translate(-549.3098958333,-492.2005208333) scale(1,-1) translate(50,-110)"
    />
  
  <line
    x1="586.6666666666666"
    y1="468.3333333333333"
    x2="546.6666666666666"
    y2="498.3333333333333"
    stroke="hsla(0,50%,50%,0.6)"
    stroke-width="1"
    transform="translate(-549.3098958333,-492.2005208333) scale(1,-1) translate(50,-110)"
    />
  
</svg>
