<?xml version="1.0"?>
<!DOCTYPE svg PUBLIC "-//W3C//DTD SVG 1.1//EN"
  "http://www.w3.org/Graphics/SVG/1.1/DTD/svg11.dtd">
<svg
  width="240"
  height="240"
  viewBox="-50 -50 200 200" xmlns="http://www.w3.org/2000/svg" version="1.1">
  <rect
    x="0"
    y="0"
    width="100"
    height="100"
    fill="hsla(206,100%,53%,0.3)"
    stroke="hsl(206,100%,53%)"
    stroke-width="3"
    transform="" />
  
  <path
    d="M 
      643.3333333333
      505
      L
    
      655
      506.6666666666
      L
    
      653.3333333333
      518.3333333333
      L
    
      640
      528.3333333333
      L
    
      636.6666666666
      551.6666666666
      L
    
      626.6666666666
      538.3333333333
      L
    
      623.3333333333
      561.6666666666
      L
    
      603.3333333333
      535
      z
    "
    fill="hsla(0,0%,50%,0.3)"
    stroke="hsla(0,0%,50%,1)"
    stroke-width="1"
    transform="translate(-615.9765625,-542.2005208333) scale(1,-1) translate(50,-110)"
    />
  
  
  <line
    x1="616.6666666666666"
    y1="525"
    x2="636.6666666666666"
    y2="551.6666666666666"
    stroke="hsla(0,50%,50%,0.6)"
    stroke-width="1"
    transform="translate(-615.9765625,-542.2005208333) scale(1,-1) translate(50,-110)"
    />
  
  <line
    x1="603.3333333333334"
    y1="535"
    x2="623.3333333333334"
    y2="561.6666666666666"
    stroke="hsla(0,50%,50%,0.6)"
    stroke-width="1"
    transform="translate(-615.9765625,-542.2005208333) scale(1,-1) translate(50,-110)"
    />
  
  <line
    x1="630"
    y1="515"
    x2="623.3333333333334"
    y2="561.6666666666666"
    stroke="hsla(0,50%,50%,0.6)"
    stroke-width="1"
    transform="translate(-615.9765625,-542.2005208333) scale(1,-1) translate(50,-110)"
    />
  
  <line
    x1="643.3333333333334"
    y1="505"
    x2="636.6666666666666"
    y2="551.6666666666666"
    stroke="hsla(0,50%,50%,0.6)"
    stroke-width="1"
    transform="translate(-615.9765625,-542.2005208333) scale(1,-1) translate(50,-110)"
    />
  
  <line
    x1="655"
    y1="506.6666666666667"
    x2="653.3333333333334"
    y2="518.3333333333334"
    stroke="hsla(0,50%,50%,0.6)"
    stroke-width="1"
    transform="translate(-615.9765625,-542.2005208333) scale(1,-1) translate(50,-110)"
    />
  
  <line
    x1="643.3333333333334"
    y1="505"
    x2="655"
    y2="506.6666666666667"
    stroke="hsla(0,50%,50%,0.6)"
    stroke-width="1"
    transform="translate(-615.9765625,-542.2005208333) scale(1,-1) translate(50,-110)"
    />
  
  <line
    x1="630"
    y1="515"
    x2="653.3333333333334"
    y2="518.3333333333334"
    stroke="hsla(0,50%,50%,0.6)"
    stroke-width="1"
    transform="translate(-615.9765625,-542.2005208333) scale(1,-1) translate(50,-110)"
    />
  
  <line
    x1="643.3333333333334"
    y1="505"
    x2="603.3333333333334"
    y2="535"
    stroke="hsla(0,50%,50%,0.6)"
    stroke-width="1"
    transform="translate(-615.9765625,-542.2005208333) scale(1,-1) translate(50,-110)"
    />
  
  <line
    x1="641.6666666666666"
    y1="516.6666666666666"
    x2="608.3333333333334"
    y2="541.6666666666666"
    stroke="hsla(0,50%,50%,0.6)"
    stroke-width="1"
    transform="translate(-615.9765625,-542.2005208333) scale(1,-1) translate(50,-110)"
    />
  
  <line
    x1="653.3333333333334"
    y1="518.3333333333334"
    x2="613.3333333333334"
    y2="548.3333333333334"
    stroke="hsla(0,50%,50%,0.6)"
    stroke-width="1"
    transform="translate(-615.9765625,-542.2005208333) scale(1,-1) translate(50,-110)"
    />
  
</svg>
