<?xml version="1.0"?>
<!DOCTYPE svg PUBLIC "-//W3C//DTD SVG 1.1//EN"
  "http://www.w3.org/Graphics/SVG/1.1/DTD/svg11.dtd">
<svg
  width="240"
  height="240"
  viewBox="-500 -500 1000 1000" xmlns="http://www.w3.org/2000/svg" version="1.1">
  <rect
    x="0"
    y="0"
    width="100"
    height="100"
    fill="hsla(206,100%,53%,0.3)"
    stroke="hsl(206,100%,53%)"
    stroke-width="3"
    transform="" />
  
  <path
    d="M 
      676.6666666666
      530
      L
    
      688.3333333333
      531.6666666666
      L
    
      686.6666666666
      543.3333333333
      L
    
      673.3333333333
      553.3333333333
      L
    
      670
      576.6666666666
      L
    
      660
      563.3333333333
      L
    
      656.6666666666
      586.6666666666
      L
    
      636.6666666666
      560
      z
    "
    fill="hsla(0,0%,50%,0.3)"
    stroke="hsla(0,0%,50%,1)"
    stroke-width="1"
    transform="translate(-662.5,-558.3333333333)"
    />
  
  
  <line
    x1="650"
    y1="550"
    x2="670"
    y2="576.6666666666666"
    stroke="hsla(0,50%,50%,0.6)"
    stroke-width="1"
    transform="translate(-662.5,-558.3333333333)"
    />
  
  <line
    x1="636.6666666666666"
    y1="560"
    x2="656.6666666666666"
    y2="586.6666666666666"
    stroke="hsla(0,50%,50%,0.6)"
    stroke-width="1"
    transform="translate(-662.5,-558.3333333333)"
    />
  
  <line
    x1="663.3333333333334"
    y1="540"
    x2="656.6666666666666"
    y2="586.6666666666666"
    stroke="hsla(0,50%,50%,0.6)"
    stroke-width="1"
    transform="translate(-662.5,-558.3333333333)"
    />
  
  <line
    x1="676.6666666666666"
    y1="530"
    x2="670"
    y2="576.6666666666666"
    stroke="hsla(0,50%,50%,0.6)"
    stroke-width="1"
    transform="translate(-662.5,-558.3333333333)"
    />
  
  <line
    x1="688.3333333333334"
    y1="531.6666666666666"
    x2="686.6666666666666"
    y2="543.3333333333334"
    stroke="hsla(0,50%,50%,0.6)"
    stroke-width="1"
    transform="translate(-662.5,-558.3333333333)"
    />
  
  <line
    x1="676.6666666666666"
    y1="530"
    x2="688.3333333333334"
    y2="531.6666666666666"
    stroke="hsla(0,50%,50%,0.6)"
    stroke-width="1"
    transform="translate(-662.5,-558.3333333333)"
    />
  
  <line
    x1="663.3333333333334"
    y1="540"
    x2="686.6666666666666"
    y2="543.3333333333334"
    stroke="hsla(0,50%,50%,0.6)"
    stroke-width="1"
    transform="translate(-662.5,-558.3333333333)"
    />
  
  <line
    x1="676.6666666666666"
    y1="530"
    x2="636.6666666666666"
    y2="560"
    stroke="hsla(0,50%,50%,0.6)"
    stroke-width="1"
    transform="translate(-662.5,-558.3333333333)"
    />
  
  <line
    x1="675"
    y1="541.6666666666666"
    x2="641.6666666666666"
    y2="566.6666666666666"
    stroke="hsla(0,50%,50%,0.6)"
    stroke-width="1"
    transform="translate(-662.5,-558.3333333333)"
    />
  
  <line
    x1="686.6666666666666"
    y1="543.3333333333334"
    x2="646.6666666666666"
    y2="573.3333333333334"
    stroke="hsla(0,50%,50%,0.6)"
    stroke-width="1"
    transform="translate(-662.5,-558.3333333333)"
    />
  
</svg>
