<?xml version="1.0"?>
<!DOCTYPE svg PUBLIC "-//W3C//DTD SVG 1.1//EN"
  "http://www.w3.org/Graphics/SVG/1.1/DTD/svg11.dtd">
<svg
  width="240"
  height="240"
  viewBox="-500 -500 1000 1000" xmlns="http://www.w3.org/2000/svg" version="1.1">
  <rect
    x="0"
    y="0"
    width="100"
    height="100"
    fill="hsla(206,100%,53%,0.3)"
    stroke="hsl(206,100%,53%)"
    stroke-width="3"
    transform="" />
  
  <path
    d="M 
      0
      0
      L
    
      26.6666666666
      20
      L
    
      30
      43.3333333333
      L
    
      53.3333333333
      40
      L
    
      60
      86.6666666666
      L
    
      33.3333333333
      66.6666666666
      L
    
      -13.3333333333
      73.3333333333
      L
    
      6.6666666666
      46.6666666666
      z
    "
    fill="hsla(0,0%,50%,0.3)"
    stroke="hsla(0,0%,50%,1)"
    stroke-width="1"
    transform="translate(-23.3333333333,-43.3333333333)"
    />
  
  
  <line
    x1="53.333333333333336"
    y1="40"
    x2="60"
    y2="86.66666666666667"
    stroke="hsla(0,50%,50%,0.6)"
    stroke-width="1"
    transform="translate(-23.3333333333,-43.3333333333)"
    />
  
  <line
    x1="26.666666666666668"
    y1="20"
    x2="33.333333333333336"
    y2="66.66666666666667"
    stroke="hsla(0,50%,50%,0.6)"
    stroke-width="1"
    transform="translate(-23.3333333333,-43.3333333333)"
    />
  
  <line
    x1="0"
    y1="0"
    x2="26.666666666666668"
    y2="20"
    stroke="hsla(0,50%,50%,0.6)"
    stroke-width="1"
    transform="translate(-23.3333333333,-43.3333333333)"
    />
  
  <line
    x1="0"
    y1="0"
    x2="6.666666666666667"
    y2="46.666666666666664"
    stroke="hsla(0,50%,50%,0.6)"
    stroke-width="1"
    transform="translate(-23.3333333333,-43.3333333333)"
    />
  
  <line
    x1="26.666666666666668"
    y1="20"
    x2="-13.333333333333334"
    y2="73.33333333333333"
    stroke="hsla(0,50%,50%,0.6)"
    stroke-width="1"
    transform="translate(-23.3333333333,-43.3333333333)"
    />
  
  <line
    x1="6.666666666666667"
    y1="46.666666666666664"
    x2="60"
    y2="86.66666666666667"
    stroke="hsla(0,50%,50%,0.6)"
    stroke-width="1"
    transform="translate(-23.3333333333,-43.3333333333)"
    />
  
  <line
    x1="53.333333333333336"
    y1="40"
    x2="33.333333333333336"
    y2="66.66666666666667"
    stroke="hsla(0,50%,50%,0.6)"
    stroke-width="1"
    transform="translate(-23.3333333333,-43.3333333333)"
    />
  
  <line
    x1="53.333333333333336"
    y1="40"
    x2="6.666666666666667"
    y2="46.666666666666664"
    stroke="hsla(0,50%,50%,0.6)"
    stroke-width="1"
    transform="translate(-23.3333333333,-43.3333333333)"
    />
  
  <line
    x1="33.333333333333336"
    y1="66.66666666666667"
    x2="-13.333333333333334"
    y2="73.33333333333333"
    stroke="hsla(0,50%,50%,0.6)"
    stroke-width="1"
    transform="translate(-23.3333333333,-43.3333333333)"
    />
  
</svg>
