<?xml version="1.0"?>
<!DOCTYPE svg PUBLIC "-//W3C//DTD SVG 1.1//EN"
  "http://www.w3.org/Graphics/SVG/1.1/DTD/svg11.dtd">
<svg
  width="240"
  height="240"
  viewBox="-50 -50 200 200" xmlns="http://www.w3.org/2000/svg" version="1.1">
  <rect
    x="0"
    y="0"
    width="100"
    height="100"
    fill="hsla(206,100%,53%,0.3)"
    stroke="hsl(206,100%,53%)"
    stroke-width="3"
    transform="" />
  
  <path
    d="M 
      26.6666666666
      20
      L
    
      40
      113.3333333333
      L
    
      13.3333333333
      93.3333333333
      L
    
      -33.3333333333
      100
      L
    
      -13.3333333333
      73.3333333333
      L
    
      -40
      53.3333333333
      L
    
      6.6666666666
      46.6666666666
      z
    "
    fill="hsla(0,0%,50%,0.3)"
    stroke="hsla(0,0%,50%,1)"
    stroke-width="1"
    transform="translate(8.9583333333,-57.0833333333) scale(1,-1) translate(50,-110)"
    />
  
  
  <line
    x1="26.666666666666668"
    y1="20"
    x2="40"
    y2="113.33333333333333"
    stroke="hsla(0,50%,50%,0.6)"
    stroke-width="1"
    transform="translate(8.9583333333,-57.0833333333) scale(1,-1) translate(50,-110)"
    />
  
  <line
    x1="6.666666666666667"
    y1="46.666666666666664"
    x2="13.333333333333334"
    y2="93.33333333333333"
    stroke="hsla(0,50%,50%,0.6)"
    stroke-width="1"
    transform="translate(8.9583333333,-57.0833333333) scale(1,-1) translate(50,-110)"
    />
  
  <line
    x1="26.666666666666668"
    y1="20"
    x2="-33.333333333333336"
    y2="100"
    stroke="hsla(0,50%,50%,0.6)"
    stroke-width="1"
    transform="translate(8.9583333333,-57.0833333333) scale(1,-1) translate(50,-110)"
    />
  
  <line
    x1="6.666666666666667"
    y1="46.666666666666664"
    x2="33.333333333333336"
    y2="66.66666666666667"
    stroke="hsla(0,50%,50%,0.6)"
    stroke-width="1"
    transform="translate(8.9583333333,-57.0833333333) scale(1,-1) translate(50,-110)"
    />
  
  <line
    x1="33.333333333333336"
    y1="66.66666666666667"
    x2="13.333333333333334"
    y2="93.33333333333333"
    stroke="hsla(0,50%,50%,0.6)"
    stroke-width="1"
    transform="translate(8.9583333333,-57.0833333333) scale(1,-1) translate(50,-110)"
    />
  
  <line
    x1="6.666666666666667"
    y1="46.666666666666664"
    x2="-40"
    y2="53.333333333333336"
    stroke="hsla(0,50%,50%,0.6)"
    stroke-width="1"
    transform="translate(8.9583333333,-57.0833333333) scale(1,-1) translate(50,-110)"
    />
  
  <line
    x1="-40"
    y1="53.333333333333336"
    x2="40"
    y2="113.33333333333333"
    stroke="hsla(0,50%,50%,0.6)"
    stroke-width="1"
    transform="translate(8.9583333333,-57.0833333333) scale(1,-1) translate(50,-110)"
    />
  
  <line
    x1="33.333333333333336"
    y1="66.66666666666667"
    x2="-13.333333333333334"
    y2="73.33333333333333"
    stroke="hsla(0,50%,50%,0.6)"
    stroke-width="1"
    transform="translate(8.9583333333,-57.0833333333) scale(1,-1) translate(50,-110)"
    />
  
  <line
    x1="13.333333333333334"
    y1="93.33333333333333"
    x2="-33.333333333333336"
    y2="100"
    stroke="hsla(0,50%,50%,0.6)"
    stroke-width="1"
    transform="translate(8.9583333333,-57.0833333333) scale(1,-1) translate(50,-110)"
    />
  
</svg>
