<?xml version="1.0"?>
<!DOCTYPE svg PUBLIC "-//W3C//DTD SVG 1.1//EN"
  "http://www.w3.org/Graphics/SVG/1.1/DTD/svg11.dtd">
<svg
  width="240"
  height="240"
  viewBox="-500 -500 1000 1000" xmlns="http://www.w3.org/2000/svg" version="1.1">
  <rect
    x="0"
    y="0"
    width="100"
    height="100"
    fill="hsla(206,100%,53%,0.3)"
    stroke="hsl(206,100%,53%)"
    stroke-width="3"
    transform="" />
  
  <path
    d="M 
      19.1077347980
      30.6435089830
      L
    
      24.4272527521
      32.8474720307
      L
    
      24.3894689866
      36.6636323480
      L
    
      23.6591148365
      41.6287874588
      L
    
      24.6565364228
      44.0361790171
      L
    
      24.6256280785
      50.2487562189
      L
    
      21.4663070941
      56.5361177817
      L
    
      19.9129928848
      67.0959892956
      L
    
      24.5092107478
      73.6486396728
      L
    
      24.1930584698
      137.1952475526
      L
    
      23.1790060755
      137.5510799669
      L
    
      22.8883596673
      136.7227948690
      L
    
      -29.6450356330
      117.6995969192
      L
    
      -16.7495854063
      66.5008291873
      z
    "
    fill="hsla(0,0%,50%,0.3)"
    stroke="hsla(0,0%,50%,1)"
    stroke-width="1"
    transform="translate(2.4942496051,-84.0972944749)"
    />
  
  
  <line
    x1="23.92981824768035"
    y1="33.04211900953401"
    x2="24.389468986653043"
    y2="36.66363234804272"
    stroke="hsla(0,50%,50%,0.6)"
    stroke-width="1"
    transform="translate(2.4942496051,-84.0972944749)"
    />
  
  <line
    x1="19.107734798084483"
    y1="30.643508983010044"
    x2="24.656536422800336"
    y2="44.03617901713249"
    stroke="hsla(0,50%,50%,0.6)"
    stroke-width="1"
    transform="translate(2.4942496051,-84.0972944749)"
    />
  
  <line
    x1="23.92981824768035"
    y1="33.04211900953401"
    x2="24.41854360615604"
    y2="33.72709577824015"
    stroke="hsla(0,50%,50%,0.6)"
    stroke-width="1"
    transform="translate(2.4942496051,-84.0972944749)"
    />
  
  <line
    x1="-15.633345418961962"
    y1="65.3845892000565"
    x2="-15.633345418961962"
    y2="96.0624242211592"
    stroke="hsla(0,50%,50%,0.6)"
    stroke-width="1"
    transform="translate(2.4942496051,-84.0972944749)"
    />
  
  <line
    x1="-16.749585406301826"
    y1="66.50082918739635"
    x2="-29.645035633030904"
    y2="117.69959691926132"
    stroke="hsla(0,50%,50%,0.6)"
    stroke-width="1"
    transform="translate(2.4942496051,-84.0972944749)"
    />
  
  <line
    x1="23.226270285558"
    y1="47.393428821746916"
    x2="24.625628078512907"
    y2="50.24875621890547"
    stroke="hsla(0,50%,50%,0.6)"
    stroke-width="1"
    transform="translate(2.4942496051,-84.0972944749)"
    />
  
  <line
    x1="24.656536422800336"
    y1="44.03617901713249"
    x2="24.625628078512907"
    y2="50.24875621890547"
    stroke="hsla(0,50%,50%,0.6)"
    stroke-width="1"
    transform="translate(2.4942496051,-84.0972944749)"
    />
  
  <line
    x1="24.509210747896493"
    y1="73.64863967280493"
    x2="24.193058469887408"
    y2="137.19524755263137"
    stroke="hsla(0,50%,50%,0.6)"
    stroke-width="1"
    transform="translate(2.4942496051,-84.0972944749)"
    />
  
  <line
    x1="24.42725275217038"
    y1="32.84747203079158"
    x2="24.389468986653043"
    y2="36.66363234804272"
    stroke="hsla(0,50%,50%,0.6)"
    stroke-width="1"
    transform="translate(2.4942496051,-84.0972944749)"
    />
  
  <line
    x1="24.389468986653043"
    y1="36.66363234804272"
    x2="11.577467568907641"
    y2="123.76325970940262"
    stroke="hsla(0,50%,50%,0.6)"
    stroke-width="1"
    transform="translate(2.4942496051,-84.0972944749)"
    />
  
  <line
    x1="14.265133753283806"
    y1="35.486110027810724"
    x2="24.629747852705904"
    y2="49.42068160611324"
    stroke="hsla(0,50%,50%,0.6)"
    stroke-width="1"
    transform="translate(2.4942496051,-84.0972944749)"
    />
  
  <line
    x1="8.565297210160844"
    y1="95.90488398172671"
    x2="23.179006075569447"
    y2="137.55107996695534"
    stroke="hsla(0,50%,50%,0.6)"
    stroke-width="1"
    transform="translate(2.4942496051,-84.0972944749)"
    />
  
  <line
    x1="4.553166301657327"
    y1="45.1980774794372"
    x2="24.509210747896493"
    y2="73.64863967280493"
    stroke="hsla(0,50%,50%,0.6)"
    stroke-width="1"
    transform="translate(2.4942496051,-84.0972944749)"
    />
  
  <line
    x1="24.656536422800336"
    y1="44.03617901713249"
    x2="23.226270285558"
    y2="47.393428821746916"
    stroke="hsla(0,50%,50%,0.6)"
    stroke-width="1"
    transform="translate(2.4942496051,-84.0972944749)"
    />
  
  <line
    x1="14.265133753283806"
    y1="35.486110027810724"
    x2="19.95968538792933"
    y2="39.72175012845342"
    stroke="hsla(0,50%,50%,0.6)"
    stroke-width="1"
    transform="translate(2.4942496051,-84.0972944749)"
    />
  
  <line
    x1="19.107734798084483"
    y1="30.643508983010044"
    x2="24.42725275217038"
    y2="32.84747203079158"
    stroke="hsla(0,50%,50%,0.6)"
    stroke-width="1"
    transform="translate(2.4942496051,-84.0972944749)"
    />
  
  <line
    x1="24.625628078512907"
    y1="50.24875621890547"
    x2="21.27113014473089"
    y2="56.92453923563998"
    stroke="hsla(0,50%,50%,0.6)"
    stroke-width="1"
    transform="translate(2.4942496051,-84.0972944749)"
    />
  
  <line
    x1="24.41854360615604"
    y1="33.72709577824015"
    x2="19.95968538792933"
    y2="39.72175012845342"
    stroke="hsla(0,50%,50%,0.6)"
    stroke-width="1"
    transform="translate(2.4942496051,-84.0972944749)"
    />
  
  <line
    x1="19.107734798084483"
    y1="30.643508983010044"
    x2="-16.749585406301826"
    y2="66.50082918739635"
    stroke="hsla(0,50%,50%,0.6)"
    stroke-width="1"
    transform="translate(2.4942496051,-84.0972944749)"
    />
  
  <line
    x1="4.553166301657327"
    y1="45.1980774794372"
    x2="21.27113014473089"
    y2="56.92453923563998"
    stroke="hsla(0,50%,50%,0.6)"
    stroke-width="1"
    transform="translate(2.4942496051,-84.0972944749)"
    />
  
  <line
    x1="24.629747852705904"
    y1="49.42068160611324"
    x2="24.380596891784826"
    y2="49.74878097015541"
    stroke="hsla(0,50%,50%,0.6)"
    stroke-width="1"
    transform="translate(2.4942496051,-84.0972944749)"
    />
  
  <line
    x1="24.509210747896493"
    y1="73.64863967280493"
    x2="8.565297210160844"
    y2="95.90488398172671"
    stroke="hsla(0,50%,50%,0.6)"
    stroke-width="1"
    transform="translate(2.4942496051,-84.0972944749)"
    />
  
  <line
    x1="24.42725275217038"
    y1="32.84747203079158"
    x2="23.92981824768035"
    y2="33.04211900953401"
    stroke="hsla(0,50%,50%,0.6)"
    stroke-width="1"
    transform="translate(2.4942496051,-84.0972944749)"
    />
  
  <line
    x1="23.226270285558"
    y1="47.393428821746916"
    x2="24.63799017335682"
    y2="47.7639751552795"
    stroke="hsla(0,50%,50%,0.6)"
    stroke-width="1"
    transform="translate(2.4942496051,-84.0972944749)"
    />
  
  <line
    x1="16.747943451061523"
    y1="49.75124378109453"
    x2="-12.317781100130686"
    y2="65.3845892000565"
    stroke="hsla(0,50%,50%,0.6)"
    stroke-width="1"
    transform="translate(2.4942496051,-84.0972944749)"
    />
  
  <line
    x1="24.380596891784826"
    y1="49.74878097015541"
    x2="24.628103264770672"
    y2="49.75124378109453"
    stroke="hsla(0,50%,50%,0.6)"
    stroke-width="1"
    transform="translate(2.4942496051,-84.0972944749)"
    />
  
  <line
    x1="16.747943451061523"
    y1="49.75124378109453"
    x2="24.628103264770672"
    y2="49.75124378109453"
    stroke="hsla(0,50%,50%,0.6)"
    stroke-width="1"
    transform="translate(2.4942496051,-84.0972944749)"
    />
  
  <line
    x1="24.63799017335682"
    y1="47.7639751552795"
    x2="16.747943451061523"
    y2="49.75124378109453"
    stroke="hsla(0,50%,50%,0.6)"
    stroke-width="1"
    transform="translate(2.4942496051,-84.0972944749)"
    />
  
  <line
    x1="21.27113014473089"
    y1="56.92453923563998"
    x2="-16.749585406301826"
    y2="66.50082918739635"
    stroke="hsla(0,50%,50%,0.6)"
    stroke-width="1"
    transform="translate(2.4942496051,-84.0972944749)"
    />
  
  <line
    x1="-15.633345418961962"
    y1="65.3845892000565"
    x2="-12.317781100130686"
    y2="65.3845892000565"
    stroke="hsla(0,50%,50%,0.6)"
    stroke-width="1"
    transform="translate(2.4942496051,-84.0972944749)"
    />
  
  <line
    x1="8.565297210160844"
    y1="95.90488398172671"
    x2="24.397699381984282"
    y2="96.0624242211592"
    stroke="hsla(0,50%,50%,0.6)"
    stroke-width="1"
    transform="translate(2.4942496051,-84.0972944749)"
    />
  
  <line
    x1="-15.633345418961962"
    y1="96.0624242211592"
    x2="24.397699381984282"
    y2="96.0624242211592"
    stroke="hsla(0,50%,50%,0.6)"
    stroke-width="1"
    transform="translate(2.4942496051,-84.0972944749)"
    />
  
  <line
    x1="-29.645035633030904"
    y1="117.69959691926132"
    x2="24.193058469887408"
    y2="137.19524755263137"
    stroke="hsla(0,50%,50%,0.6)"
    stroke-width="1"
    transform="translate(2.4942496051,-84.0972944749)"
    />
  
  <line
    x1="-29.645035633030904"
    y1="117.69959691926132"
    x2="11.577467568907641"
    y2="123.76325970940262"
    stroke="hsla(0,50%,50%,0.6)"
    stroke-width="1"
    transform="translate(2.4942496051,-84.0972944749)"
    />
  
  <line
    x1="24.193058469887408"
    y1="137.19524755263137"
    x2="23.179006075569447"
    y2="137.55107996695534"
    stroke="hsla(0,50%,50%,0.6)"
    stroke-width="1"
    transform="translate(2.4942496051,-84.0972944749)"
    />
  
</svg>
