<?xml version="1.0"?>
<!DOCTYPE svg PUBLIC "-//W3C//DTD SVG 1.1//EN"
  "http://www.w3.org/Graphics/SVG/1.1/DTD/svg11.dtd">
<svg
  width="240"
  height="240"
  viewBox="-50 -50 200 200" xmlns="http://www.w3.org/2000/svg" version="1.1">
  <rect
    x="0"
    y="0"
    width="100"
    height="100"
    fill="hsla(206,100%,53%,0.3)"
    stroke="hsl(206,100%,53%)"
    stroke-width="3"
    transform="" />
  
  <path
    d="M 
      44
      12
      L
    
      50
      20
      L
    
      56
      12
      L
    
      64
      18
      L
    
      56.25
      28.3333333333
      L
    
      65
      40
      L
    
      60
      50
      L
    
      40
      50
      L
    
      35
      40
      L
    
      43.75
      28.3333333333
      L
    
      36
      18
      z
    "
    fill="hsla(0,0%,50%,0.3)"
    stroke="hsla(0,0%,50%,1)"
    stroke-width="1"
    transform="translate(-45.109375,-32.9544270833) scale(1,-1) translate(50,-110)"
    />
  
  <path
    d="M 
      50
      36.6666666666
      L
    
      47.5
      40
      L
    
      52.5
      40
      z
    "
    fill="hsla(0,0%,50%,0.3)"
    stroke="hsla(0,0%,50%,1)"
    stroke-width="1"
    transform="translate(-45.109375,-32.9544270833) scale(1,-1) translate(50,-110)"
    />
  
  
  <line
    x1="56"
    y1="12"
    x2="64"
    y2="18"
    stroke="hsla(0,50%,50%,0.6)"
    stroke-width="1"
    transform="translate(-45.109375,-32.9544270833) scale(1,-1) translate(50,-110)"
    />
  
  <line
    x1="44"
    y1="12"
    x2="65"
    y2="40"
    stroke="hsla(0,50%,50%,0.6)"
    stroke-width="1"
    transform="translate(-45.109375,-32.9544270833) scale(1,-1) translate(50,-110)"
    />
  
  <line
    x1="36"
    y1="18"
    x2="60"
    y2="50"
    stroke="hsla(0,50%,50%,0.6)"
    stroke-width="1"
    transform="translate(-45.109375,-32.9544270833) scale(1,-1) translate(50,-110)"
    />
  
  <line
    x1="35"
    y1="40"
    x2="40"
    y2="50"
    stroke="hsla(0,50%,50%,0.6)"
    stroke-width="1"
    transform="translate(-45.109375,-32.9544270833) scale(1,-1) translate(50,-110)"
    />
  
  <line
    x1="44"
    y1="12"
    x2="36"
    y2="18"
    stroke="hsla(0,50%,50%,0.6)"
    stroke-width="1"
    transform="translate(-45.109375,-32.9544270833) scale(1,-1) translate(50,-110)"
    />
  
  <line
    x1="56"
    y1="12"
    x2="35"
    y2="40"
    stroke="hsla(0,50%,50%,0.6)"
    stroke-width="1"
    transform="translate(-45.109375,-32.9544270833) scale(1,-1) translate(50,-110)"
    />
  
  <line
    x1="65"
    y1="40"
    x2="60"
    y2="50"
    stroke="hsla(0,50%,50%,0.6)"
    stroke-width="1"
    transform="translate(-45.109375,-32.9544270833) scale(1,-1) translate(50,-110)"
    />
  
  <line
    x1="64"
    y1="18"
    x2="40"
    y2="50"
    stroke="hsla(0,50%,50%,0.6)"
    stroke-width="1"
    transform="translate(-45.109375,-32.9544270833) scale(1,-1) translate(50,-110)"
    />
  
  <line
    x1="35"
    y1="40"
    x2="65"
    y2="40"
    stroke="hsla(0,50%,50%,0.6)"
    stroke-width="1"
    transform="translate(-45.109375,-32.9544270833) scale(1,-1) translate(50,-110)"
    />
  
  <line
    x1="40"
    y1="50"
    x2="60"
    y2="50"
    stroke="hsla(0,50%,50%,0.6)"
    stroke-width="1"
    transform="translate(-45.109375,-32.9544270833) scale(1,-1) translate(50,-110)"
    />
  
</svg>
