<?xml version="1.0"?>
<!DOCTYPE svg PUBLIC "-//W3C//DTD SVG 1.1//EN"
  "http://www.w3.org/Graphics/SVG/1.1/DTD/svg11.dtd">
<svg
  width="240"
  height="240"
  viewBox="-50 -50 200 200" xmlns="http://www.w3.org/2000/svg" version="1.1">
  <rect
    x="0"
    y="0"
    width="100"
    height="100"
    fill="hsla(206,100%,53%,0.3)"
    stroke="hsl(206,100%,53%)"
    stroke-width="3"
    transform="" />
  
  <path
    d="M 
      154.7695445661
      -129.9162981978
      L
    
      253.1167426504
      -111.5675044274
      L
    
      239.0392818679
      -21.3029064422
      L
    
      156.9894614115
      -34.0992092616
      L
    
      144.0209150999
      -60.9961475648
      L
    
      153.8943671801
      -124.3046658068
      L
    
      153.5644719151
      -124.3764269989
      z
    "
    fill="hsla(0,0%,50%,0.3)"
    stroke="hsla(0,0%,50%,1)"
    stroke-width="1"
    transform="translate(-156.9134842744,107.4589992179) scale(1,-1) translate(50,-110)"
    />
  
  
  <line
    x1="154.7695445661379"
    y1="-129.91629819786075"
    x2="253.1167426504498"
    y2="-111.56750442749195"
    stroke="hsla(0,50%,50%,0.6)"
    stroke-width="1"
    transform="translate(-156.9134842744,107.4589992179) scale(1,-1) translate(50,-110)"
    />
  
  <line
    x1="153.5644719151653"
    y1="-124.37642699895551"
    x2="251.2793510786676"
    y2="-103.12078327635436"
    stroke="hsla(0,50%,50%,0.6)"
    stroke-width="1"
    transform="translate(-156.9134842744,107.4589992179) scale(1,-1) translate(50,-110)"
    />
  
  <line
    x1="144.02091509994978"
    y1="-60.99614756489952"
    x2="165.37951800006263"
    y2="-48.83664526269573"
    stroke="hsla(0,50%,50%,0.6)"
    stroke-width="1"
    transform="translate(-156.9134842744,107.4589992179) scale(1,-1) translate(50,-110)"
    />
  
  <line
    x1="144.02091509994978"
    y1="-60.99614756489952"
    x2="156.989461411542"
    y2="-34.09920926161785"
    stroke="hsla(0,50%,50%,0.6)"
    stroke-width="1"
    transform="translate(-156.9134842744,107.4589992179) scale(1,-1) translate(50,-110)"
    />
  
  <line
    x1="156.989461411542"
    y1="-34.09920926161785"
    x2="239.03928186797978"
    y2="-21.302906442283454"
    stroke="hsla(0,50%,50%,0.6)"
    stroke-width="1"
    transform="translate(-156.9134842744,107.4589992179) scale(1,-1) translate(50,-110)"
    />
  
  <line
    x1="154.7695445661379"
    y1="-129.91629819786075"
    x2="144.02091509994978"
    y2="-60.99614756489952"
    stroke="hsla(0,50%,50%,0.6)"
    stroke-width="1"
    transform="translate(-156.9134842744,107.4589992179) scale(1,-1) translate(50,-110)"
    />
  
  <line
    x1="154.7695445661379"
    y1="-129.91629819786075"
    x2="153.5644719151653"
    y2="-124.37642699895551"
    stroke="hsla(0,50%,50%,0.6)"
    stroke-width="1"
    transform="translate(-156.9134842744,107.4589992179) scale(1,-1) translate(50,-110)"
    />
  
  <line
    x1="253.1167426504498"
    y1="-111.56750442749195"
    x2="239.03928186797978"
    y2="-21.302906442283454"
    stroke="hsla(0,50%,50%,0.6)"
    stroke-width="1"
    transform="translate(-156.9134842744,107.4589992179) scale(1,-1) translate(50,-110)"
    />
  
  <line
    x1="253.1167426504498"
    y1="-111.56750442749195"
    x2="251.2793510786676"
    y2="-103.12078327635436"
    stroke="hsla(0,50%,50%,0.6)"
    stroke-width="1"
    transform="translate(-156.9134842744,107.4589992179) scale(1,-1) translate(50,-110)"
    />
  
  <line
    x1="165.37951800006263"
    y1="-48.83664526269573"
    x2="156.989461411542"
    y2="-34.09920926161785"
    stroke="hsla(0,50%,50%,0.6)"
    stroke-width="1"
    transform="translate(-156.9134842744,107.4589992179) scale(1,-1) translate(50,-110)"
    />
  
</svg>
