<?xml version="1.0"?>
<!DOCTYPE svg PUBLIC "-//W3C//DTD SVG 1.1//EN"
  "http://www.w3.org/Graphics/SVG/1.1/DTD/svg11.dtd">
<svg
  width="240"
  height="240"
  viewBox="-500 -500 1000 1000" xmlns="http://www.w3.org/2000/svg" version="1.1">
  <rect
    x="0"
    y="0"
    width="100"
    height="100"
    fill="hsla(206,100%,53%,0.3)"
    stroke="hsl(206,100%,53%)"
    stroke-width="3"
    transform="" />
  
  <path
    d="M 
      25
      0
      L
    
      75
      0
      L
    
      75
      25
      L
    
      50
      50
      L
    
      33.3333333333
      50
      L
    
      25
      58.3333333333
      L
    
      0
      58.3333333333
      L
    
      0
      25
      L
    
      25
      25
      z
    "
    fill="hsla(0,0%,50%,0.3)"
    stroke="hsla(0,0%,50%,1)"
    stroke-width="1"
    transform="translate(-37.5,-29.1666666666)"
    />
  
  
  <line
    x1="25"
    y1="0"
    x2="75"
    y2="0"
    stroke="hsla(0,50%,50%,0.6)"
    stroke-width="1"
    transform="translate(-37.5,-29.1666666666)"
    />
  
  <line
    x1="41.666666666666664"
    y1="41.666666666666664"
    x2="50"
    y2="50"
    stroke="hsla(0,50%,50%,0.6)"
    stroke-width="1"
    transform="translate(-37.5,-29.1666666666)"
    />
  
  <line
    x1="0"
    y1="25"
    x2="0"
    y2="58.333333333333336"
    stroke="hsla(0,50%,50%,0.6)"
    stroke-width="1"
    transform="translate(-37.5,-29.1666666666)"
    />
  
  <line
    x1="25"
    y1="0"
    x2="25"
    y2="58.333333333333336"
    stroke="hsla(0,50%,50%,0.6)"
    stroke-width="1"
    transform="translate(-37.5,-29.1666666666)"
    />
  
  <line
    x1="75"
    y1="0"
    x2="75"
    y2="25"
    stroke="hsla(0,50%,50%,0.6)"
    stroke-width="1"
    transform="translate(-37.5,-29.1666666666)"
    />
  
  <line
    x1="0"
    y1="25"
    x2="75"
    y2="25"
    stroke="hsla(0,50%,50%,0.6)"
    stroke-width="1"
    transform="translate(-37.5,-29.1666666666)"
    />
  
  <line
    x1="0"
    y1="41.666666666666664"
    x2="41.666666666666664"
    y2="41.666666666666664"
    stroke="hsla(0,50%,50%,0.6)"
    stroke-width="1"
    transform="translate(-37.5,-29.1666666666)"
    />
  
  <line
    x1="41.666666666666664"
    y1="41.666666666666664"
    x2="25"
    y2="58.333333333333336"
    stroke="hsla(0,50%,50%,0.6)"
    stroke-width="1"
    transform="translate(-37.5,-29.1666666666)"
    />
  
  <line
    x1="0"
    y1="50"
    x2="50"
    y2="50"
    stroke="hsla(0,50%,50%,0.6)"
    stroke-width="1"
    transform="translate(-37.5,-29.1666666666)"
    />
  
  <line
    x1="75"
    y1="25"
    x2="50"
    y2="50"
    stroke="hsla(0,50%,50%,0.6)"
    stroke-width="1"
    transform="translate(-37.5,-29.1666666666)"
    />
  
  <line
    x1="0"
    y1="58.333333333333336"
    x2="25"
    y2="58.333333333333336"
    stroke="hsla(0,50%,50%,0.6)"
    stroke-width="1"
    transform="translate(-37.5,-29.1666666666)"
    />
  
</svg>
