<?xml version="1.0"?>
<!DOCTYPE svg PUBLIC "-//W3C//DTD SVG 1.1//EN"
  "http://www.w3.org/Graphics/SVG/1.1/DTD/svg11.dtd">
<svg
  width="240"
  height="240"
  viewBox="-50 -50 200 200" xmlns="http://www.w3.org/2000/svg" version="1.1">
  <rect
    x="0"
    y="0"
    width="100"
    height="100"
    fill="hsla(206,100%,53%,0.3)"
    stroke="hsl(206,100%,53%)"
    stroke-width="3"
    transform="" />
  
  <path
    d="M 
      117.0996293806
      -76.3224981325
      L
    
      165.3795180000
      -48.8366452626
      L
    
      86.9370496626
      21.5756425303
      L
    
      50.7271331981
      0.9612528779
      L
    
      43.0836408779
      4.2811127540
      L
    
      38.6571610432
      -5.9102103394
      z
    "
    fill="hsla(0,0%,50%,0.3)"
    stroke="hsla(0,0%,50%,1)"
    stroke-width="1"
    transform="translate(-50.7014213504,4.3274159444) scale(1,-1) translate(50,-110)"
    />
  
  
  <line
    x1="117.0996293806429"
    y1="-76.32249813252227"
    x2="165.37951800006263"
    y2="-48.83664526267586"
    stroke="hsla(0,50%,50%,0.6)"
    stroke-width="1"
    transform="translate(-50.7014213504,4.3274159444) scale(1,-1) translate(50,-110)"
    />
  
  <line
    x1="117.0996293806429"
    y1="-76.32249813252227"
    x2="134.80554871954524"
    y2="-35.55720575849909"
    stroke="hsla(0,50%,50%,0.6)"
    stroke-width="1"
    transform="translate(-50.7014213504,4.3274159444) scale(1,-1) translate(50,-110)"
    />
  
  <line
    x1="73.6576101585105"
    y1="-8.998326750145546"
    x2="86.93704966268726"
    y2="21.575642530371834"
    stroke="hsla(0,50%,50%,0.6)"
    stroke-width="1"
    transform="translate(-50.7014213504,4.3274159444) scale(1,-1) translate(50,-110)"
    />
  
  <line
    x1="38.65716104326752"
    y1="-5.910210339474568"
    x2="86.93704966268726"
    y2="21.575642530371834"
    stroke="hsla(0,50%,50%,0.6)"
    stroke-width="1"
    transform="translate(-50.7014213504,4.3274159444) scale(1,-1) translate(50,-110)"
    />
  
  <line
    x1="38.65716104326752"
    y1="-5.910210339474568"
    x2="43.08364087799311"
    y2="4.281112754031226"
    stroke="hsla(0,50%,50%,0.6)"
    stroke-width="1"
    transform="translate(-50.7014213504,4.3274159444) scale(1,-1) translate(50,-110)"
    />
  
  <line
    x1="117.0996293806429"
    y1="-76.32249813252227"
    x2="38.65716104326752"
    y2="-5.910210339474568"
    stroke="hsla(0,50%,50%,0.6)"
    stroke-width="1"
    transform="translate(-50.7014213504,4.3274159444) scale(1,-1) translate(50,-110)"
    />
  
  <line
    x1="165.37951800006263"
    y1="-48.83664526267586"
    x2="43.08364087799311"
    y2="4.281112754031226"
    stroke="hsla(0,50%,50%,0.6)"
    stroke-width="1"
    transform="translate(-50.7014213504,4.3274159444) scale(1,-1) translate(50,-110)"
    />
  
  <line
    x1="165.37951800006263"
    y1="-48.83664526267586"
    x2="86.93704966268726"
    y2="21.575642530371834"
    stroke="hsla(0,50%,50%,0.6)"
    stroke-width="1"
    transform="translate(-50.7014213504,4.3274159444) scale(1,-1) translate(50,-110)"
    />
  
</svg>
