<?xml version="1.0"?>
<!DOCTYPE svg PUBLIC "-//W3C//DTD SVG 1.1//EN"
  "http://www.w3.org/Graphics/SVG/1.1/DTD/svg11.dtd">
<svg
  width="240"
  height="240"
  viewBox="-50 -50 200 200" xmlns="http://www.w3.org/2000/svg" version="1.1">
  <rect
    x="0"
    y="0"
    width="100"
    height="100"
    fill="hsla(206,100%,53%,0.3)"
    stroke="hsl(206,100%,53%)"
    stroke-width="3"
    transform="" />
  
  <path
    d="M 
      0.0000000000
      0
      L
    
      22.2222222222
      0
      L
    
      22.2222222222
      22.2222222222
      L
    
      0
      22.2222222222
      L
    
      0
      0.0000000000
      z
    "
    fill="hsla(0,0%,50%,0.3)"
    stroke="hsla(0,0%,50%,1)"
    stroke-width="1"
    transform="translate(-4.1666666666,-8.3333333333) scale(1,-1) translate(50,-110)"
    />
  
  
  <line
    x1="6.820183771755967e-11"
    y1="0"
    x2="22.22222222222222"
    y2="0"
    stroke="hsla(0,50%,50%,0.6)"
    stroke-width="1"
    transform="translate(-4.1666666666,-8.3333333333) scale(1,-1) translate(50,-110)"
    />
  
  <line
    x1="0"
    y1="6.820183771755967e-11"
    x2="0"
    y2="22.22222222222222"
    stroke="hsla(0,50%,50%,0.6)"
    stroke-width="1"
    transform="translate(-4.1666666666,-8.3333333333) scale(1,-1) translate(50,-110)"
    />
  
  <line
    x1="6.820183771755967e-11"
    y1="0"
    x2="6.820183771755967e-11"
    y2="6.820183771755967e-11"
    stroke="hsla(0,50%,50%,0.6)"
    stroke-width="1"
    transform="translate(-4.1666666666,-8.3333333333) scale(1,-1) translate(50,-110)"
    />
  
  <line
    x1="12.698412698412698"
    y1="0"
    x2="12.698412698412698"
    y2="22.22222222222222"
    stroke="hsla(0,50%,50%,0.6)"
    stroke-width="1"
    transform="translate(-4.1666666666,-8.3333333333) scale(1,-1) translate(50,-110)"
    />
  
  <line
    x1="17.46031746031746"
    y1="0"
    x2="17.46031746031746"
    y2="22.22222222222222"
    stroke="hsla(0,50%,50%,0.6)"
    stroke-width="1"
    transform="translate(-4.1666666666,-8.3333333333) scale(1,-1) translate(50,-110)"
    />
  
  <line
    x1="22.22222222222222"
    y1="0"
    x2="22.22222222222222"
    y2="22.22222222222222"
    stroke="hsla(0,50%,50%,0.6)"
    stroke-width="1"
    transform="translate(-4.1666666666,-8.3333333333) scale(1,-1) translate(50,-110)"
    />
  
  <line
    x1="6.820183771755967e-11"
    y1="0"
    x2="0"
    y2="6.820183771755967e-11"
    stroke="hsla(0,50%,50%,0.6)"
    stroke-width="1"
    transform="translate(-4.1666666666,-8.3333333333) scale(1,-1) translate(50,-110)"
    />
  
  <line
    x1="0"
    y1="6.820183771755967e-11"
    x2="6.820183771755967e-11"
    y2="6.820183771755967e-11"
    stroke="hsla(0,50%,50%,0.6)"
    stroke-width="1"
    transform="translate(-4.1666666666,-8.3333333333) scale(1,-1) translate(50,-110)"
    />
  
  <line
    x1="0"
    y1="1.5873015873015872"
    x2="22.22222222222222"
    y2="1.5873015873015872"
    stroke="hsla(0,50%,50%,0.6)"
    stroke-width="1"
    transform="translate(-4.1666666666,-8.3333333333) scale(1,-1) translate(50,-110)"
    />
  
  <line
    x1="0"
    y1="12.698412698412698"
    x2="22.22222222222222"
    y2="12.698412698412698"
    stroke="hsla(0,50%,50%,0.6)"
    stroke-width="1"
    transform="translate(-4.1666666666,-8.3333333333) scale(1,-1) translate(50,-110)"
    />
  
  <line
    x1="0"
    y1="15.873015873015873"
    x2="22.22222222222222"
    y2="15.873015873015873"
    stroke="hsla(0,50%,50%,0.6)"
    stroke-width="1"
    transform="translate(-4.1666666666,-8.3333333333) scale(1,-1) translate(50,-110)"
    />
  
  <line
    x1="0"
    y1="22.22222222222222"
    x2="22.22222222222222"
    y2="22.22222222222222"
    stroke="hsla(0,50%,50%,0.6)"
    stroke-width="1"
    transform="translate(-4.1666666666,-8.3333333333) scale(1,-1) translate(50,-110)"
    />
  
</svg>
