<?xml version="1.0"?>
<!DOCTYPE svg PUBLIC "-//W3C//DTD SVG 1.1//EN"
  "http://www.w3.org/Graphics/SVG/1.1/DTD/svg11.dtd">
<svg
  width="240"
  height="240"
  viewBox="-500 -500 1000 1000" xmlns="http://www.w3.org/2000/svg" version="1.1">
  <rect
    x="0"
    y="0"
    width="100"
    height="100"
    fill="hsla(206,100%,53%,0.3)"
    stroke="hsl(206,100%,53%)"
    stroke-width="3"
    transform="" />
  
  <path
    d="M 
      20
      15
      L
    
      40
      30
      L
    
      45
      65
      L
    
      30
      85
      L
    
      10
      70
      L
    
      -5
      90
      L
    
      -25
      75
      L
    
      -30
      40
      L
    
      -15
      20
      L
    
      5
      35
      z
    "
    fill="hsla(0,0%,50%,0.3)"
    stroke="hsla(0,0%,50%,1)"
    stroke-width="1"
    transform="translate(-7.5,-52.5)"
    />
  
  
  <line
    x1="40"
    y1="30"
    x2="45"
    y2="65"
    stroke="hsla(0,50%,50%,0.6)"
    stroke-width="1"
    transform="translate(-7.5,-52.5)"
    />
  
  <line
    x1="20"
    y1="15"
    x2="40"
    y2="30"
    stroke="hsla(0,50%,50%,0.6)"
    stroke-width="1"
    transform="translate(-7.5,-52.5)"
    />
  
  <line
    x1="-15"
    y1="20"
    x2="-30"
    y2="40"
    stroke="hsla(0,50%,50%,0.6)"
    stroke-width="1"
    transform="translate(-7.5,-52.5)"
    />
  
  <line
    x1="-30"
    y1="40"
    x2="-25"
    y2="75"
    stroke="hsla(0,50%,50%,0.6)"
    stroke-width="1"
    transform="translate(-7.5,-52.5)"
    />
  
  <line
    x1="20"
    y1="15"
    x2="-25"
    y2="75"
    stroke="hsla(0,50%,50%,0.6)"
    stroke-width="1"
    transform="translate(-7.5,-52.5)"
    />
  
  <line
    x1="-15"
    y1="20"
    x2="45"
    y2="65"
    stroke="hsla(0,50%,50%,0.6)"
    stroke-width="1"
    transform="translate(-7.5,-52.5)"
    />
  
  <line
    x1="40"
    y1="30"
    x2="-5"
    y2="90"
    stroke="hsla(0,50%,50%,0.6)"
    stroke-width="1"
    transform="translate(-7.5,-52.5)"
    />
  
  <line
    x1="40"
    y1="30"
    x2="-30"
    y2="40"
    stroke="hsla(0,50%,50%,0.6)"
    stroke-width="1"
    transform="translate(-7.5,-52.5)"
    />
  
  <line
    x1="-30"
    y1="40"
    x2="30"
    y2="85"
    stroke="hsla(0,50%,50%,0.6)"
    stroke-width="1"
    transform="translate(-7.5,-52.5)"
    />
  
  <line
    x1="45"
    y1="65"
    x2="30"
    y2="85"
    stroke="hsla(0,50%,50%,0.6)"
    stroke-width="1"
    transform="translate(-7.5,-52.5)"
    />
  
  <line
    x1="-25"
    y1="75"
    x2="-5"
    y2="90"
    stroke="hsla(0,50%,50%,0.6)"
    stroke-width="1"
    transform="translate(-7.5,-52.5)"
    />
  
</svg>
