<?xml version="1.0"?>
<!DOCTYPE svg PUBLIC "-//W3C//DTD SVG 1.1//EN"
  "http://www.w3.org/Graphics/SVG/1.1/DTD/svg11.dtd">
<svg
  width="240"
  height="240"
  viewBox="-500 -500 1000 1000" xmlns="http://www.w3.org/2000/svg" version="1.1">
  <rect
    x="0"
    y="0"
    width="100"
    height="100"
    fill="hsla(206,100%,53%,0.3)"
    stroke="hsl(206,100%,53%)"
    stroke-width="3"
    transform="" />
  
  <path
    d="M 
      -48.9167446211
      -24.2694106641
      L
    
      -30.6585431181
      -2.8900847516
      L
    
      -27.1493212669
      -11.3122171945
      L
    
      -0.0000000000
      -0.0000000000
      L
    
      -9.6153846153
      23.0769230769
      L
    
      -45.2488687782
      32.1266968325
      L
    
      -57.8070484644
      22.0007337654
      L
    
      -58.3465818759
      -16.2162162162
      z
    "
    fill="hsla(0,0%,50%,0.3)"
    stroke="hsla(0,0%,50%,1)"
    stroke-width="1"
    transform="translate(31.2899702075,-2.8653109960)"
    />
  
  <path
    d="M 
      -31.7618300853
      -0.2421960305
      L
    
      -35.0514688690
      2.5671950621
      L
    
      -33.4653092006
      3.8461538461
      z
    "
    fill="hsla(0,0%,50%,0.3)"
    stroke="hsla(0,0%,50%,1)"
    stroke-width="1"
    transform="translate(31.2899702075,-2.8653109960)"
    />
  
  
  <line
    x1="-48.916744621141255"
    y1="-24.269410664172124"
    x2="-58.34658187599364"
    y2="-16.216216216216218"
    stroke="hsla(0,50%,50%,0.6)"
    stroke-width="1"
    transform="translate(31.2899702075,-2.8653109960)"
    />
  
  <line
    x1="-45.096639562495504"
    y1="-19.7962827355883"
    x2="-58.238675193692494"
    y2="-8.572826219885043"
    stroke="hsla(0,50%,50%,0.6)"
    stroke-width="1"
    transform="translate(31.2899702075,-2.8653109960)"
    />
  
  <line
    x1="-29.8162193279125"
    y1="-1.903771021253"
    x2="-57.80704846448791"
    y2="22.000733765439648"
    stroke="hsla(0,50%,50%,0.6)"
    stroke-width="1"
    transform="translate(31.2899702075,-2.8653109960)"
    />
  
  <line
    x1="-27.149321266968325"
    y1="-11.312217194570136"
    x2="-45.248868778280546"
    y2="32.126696832579185"
    stroke="hsla(0,50%,50%,0.6)"
    stroke-width="1"
    transform="translate(31.2899702075,-2.8653109960)"
    />
  
  <line
    x1="-5.429864253393665"
    y1="-2.262443438914027"
    x2="-16.742081447963802"
    y2="24.8868778280543"
    stroke="hsla(0,50%,50%,0.6)"
    stroke-width="1"
    transform="translate(31.2899702075,-2.8653109960)"
    />
  
  <line
    x1="-8.975802738755469e-20"
    y1="-3.739917807814779e-20"
    x2="-9.615384615384615"
    y2="23.076923076923077"
    stroke="hsla(0,50%,50%,0.6)"
    stroke-width="1"
    transform="translate(31.2899702075,-2.8653109960)"
    />
  
  <line
    x1="-4.4879013693777346e-20"
    y1="-1.8699589039073896e-20"
    x2="-9.615384615384615"
    y2="23.076923076923077"
    stroke="hsla(0,50%,50%,0.6)"
    stroke-width="1"
    transform="translate(31.2899702075,-2.8653109960)"
    />
  
  <line
    x1="-8.975802738755469e-20"
    y1="-3.739917807814779e-20"
    x2="-4.4879013693777346e-20"
    y2="-1.8699589039073896e-20"
    stroke="hsla(0,50%,50%,0.6)"
    stroke-width="1"
    transform="translate(31.2899702075,-2.8653109960)"
    />
  
  <line
    x1="-27.149321266968325"
    y1="-11.312217194570136"
    x2="-4.4879013693777346e-20"
    y2="-1.8699589039073896e-20"
    stroke="hsla(0,50%,50%,0.6)"
    stroke-width="1"
    transform="translate(31.2899702075,-2.8653109960)"
    />
  
  <line
    x1="-58.34658187599364"
    y1="-16.216216216216218"
    x2="-57.80704846448791"
    y2="22.000733765439648"
    stroke="hsla(0,50%,50%,0.6)"
    stroke-width="1"
    transform="translate(31.2899702075,-2.8653109960)"
    />
  
  <line
    x1="-48.916744621141255"
    y1="-24.269410664172124"
    x2="-29.8162193279125"
    y2="-1.903771021253"
    stroke="hsla(0,50%,50%,0.6)"
    stroke-width="1"
    transform="translate(31.2899702075,-2.8653109960)"
    />
  
  <line
    x1="-58.34658187599364"
    y1="-16.216216216216218"
    x2="-9.615384615384615"
    y2="23.076923076923077"
    stroke="hsla(0,50%,50%,0.6)"
    stroke-width="1"
    transform="translate(31.2899702075,-2.8653109960)"
    />
  
  <line
    x1="-9.615384615384615"
    y1="23.076923076923077"
    x2="-45.248868778280546"
    y2="32.126696832579185"
    stroke="hsla(0,50%,50%,0.6)"
    stroke-width="1"
    transform="translate(31.2899702075,-2.8653109960)"
    />
  
  <line
    x1="-58.238675193692494"
    y1="-8.572826219885043"
    x2="-16.742081447963802"
    y2="24.8868778280543"
    stroke="hsla(0,50%,50%,0.6)"
    stroke-width="1"
    transform="translate(31.2899702075,-2.8653109960)"
    />
  
  <line
    x1="-57.80704846448791"
    y1="22.000733765439648"
    x2="-45.248868778280546"
    y2="32.126696832579185"
    stroke="hsla(0,50%,50%,0.6)"
    stroke-width="1"
    transform="translate(31.2899702075,-2.8653109960)"
    />
  
</svg>
