<?xml version="1.0"?>
<!DOCTYPE svg PUBLIC "-//W3C//DTD SVG 1.1//EN"
  "http://www.w3.org/Graphics/SVG/1.1/DTD/svg11.dtd">
<svg
  width="240"
  height="240"
  viewBox="-50 -50 200 200" xmlns="http://www.w3.org/2000/svg" version="1.1">
  <rect
    x="0"
    y="0"
    width="100"
    height="100"
    fill="hsla(206,100%,53%,0.3)"
    stroke="hsl(206,100%,53%)"
    stroke-width="3"
    transform="" />
  
  <path
    d="M 
      30.7279693486
      -22.0689655172
      L
    
      33.3333333333
      0
      L
    
      65.1909722222
      0
      L
    
      79.2534722222
      12.5
      L
    
      81.6858237547
      33.1034482758
      L
    
      69.2720306513
      34.5689655172
      L
    
      66.6666666666
      12.5
      L
    
      34.8090277777
      12.5
      L
    
      20.7465277777
      0
      L
    
      18.3141762452
      -20.6034482758
      z
    "
    fill="hsla(0,0%,50%,0.3)"
    stroke="hsla(0,0%,50%,1)"
    stroke-width="1"
    transform="translate(-27.3015468787,6.3058997844) scale(1,-1) translate(50,-110)"
    />
  
  
  <line
    x1="65.19097222222223"
    y1="0"
    x2="79.25347222222223"
    y2="12.5"
    stroke="hsla(0,50%,50%,0.6)"
    stroke-width="1"
    transform="translate(-27.3015468787,6.3058997844) scale(1,-1) translate(50,-110)"
    />
  
  <line
    x1="30.727969348659006"
    y1="-22.06896551724138"
    x2="18.314176245210728"
    y2="-20.603448275862068"
    stroke="hsla(0,50%,50%,0.6)"
    stroke-width="1"
    transform="translate(-27.3015468787,6.3058997844) scale(1,-1) translate(50,-110)"
    />
  
  <line
    x1="20.74652777777778"
    y1="0"
    x2="34.80902777777778"
    y2="12.5"
    stroke="hsla(0,50%,50%,0.6)"
    stroke-width="1"
    transform="translate(-27.3015468787,6.3058997844) scale(1,-1) translate(50,-110)"
    />
  
  <line
    x1="79.25347222222223"
    y1="12.5"
    x2="81.68582375478927"
    y2="33.10344827586207"
    stroke="hsla(0,50%,50%,0.6)"
    stroke-width="1"
    transform="translate(-27.3015468787,6.3058997844) scale(1,-1) translate(50,-110)"
    />
  
  <line
    x1="65.19097222222223"
    y1="0"
    x2="69.272030651341"
    y2="34.56896551724138"
    stroke="hsla(0,50%,50%,0.6)"
    stroke-width="1"
    transform="translate(-27.3015468787,6.3058997844) scale(1,-1) translate(50,-110)"
    />
  
  <line
    x1="30.727969348659006"
    y1="-22.06896551724138"
    x2="34.80902777777778"
    y2="12.5"
    stroke="hsla(0,50%,50%,0.6)"
    stroke-width="1"
    transform="translate(-27.3015468787,6.3058997844) scale(1,-1) translate(50,-110)"
    />
  
  <line
    x1="18.314176245210728"
    y1="-20.603448275862068"
    x2="20.74652777777778"
    y2="0"
    stroke="hsla(0,50%,50%,0.6)"
    stroke-width="1"
    transform="translate(-27.3015468787,6.3058997844) scale(1,-1) translate(50,-110)"
    />
  
  <line
    x1="20.74652777777778"
    y1="0"
    x2="65.19097222222223"
    y2="0"
    stroke="hsla(0,50%,50%,0.6)"
    stroke-width="1"
    transform="translate(-27.3015468787,6.3058997844) scale(1,-1) translate(50,-110)"
    />
  
  <line
    x1="34.80902777777778"
    y1="12.5"
    x2="79.25347222222223"
    y2="12.5"
    stroke="hsla(0,50%,50%,0.6)"
    stroke-width="1"
    transform="translate(-27.3015468787,6.3058997844) scale(1,-1) translate(50,-110)"
    />
  
  <line
    x1="81.68582375478927"
    y1="33.10344827586207"
    x2="69.272030651341"
    y2="34.56896551724138"
    stroke="hsla(0,50%,50%,0.6)"
    stroke-width="1"
    transform="translate(-27.3015468787,6.3058997844) scale(1,-1) translate(50,-110)"
    />
  
</svg>
