<?xml version="1.0"?>
<!DOCTYPE svg PUBLIC "-//W3C//DTD SVG 1.1//EN"
  "http://www.w3.org/Graphics/SVG/1.1/DTD/svg11.dtd">
<svg
  width="240"
  height="240"
  viewBox="-50 -50 200 200" xmlns="http://www.w3.org/2000/svg" version="1.1">
  <rect
    x="0"
    y="0"
    width="100"
    height="100"
    fill="hsla(206,100%,53%,0.3)"
    stroke="hsl(206,100%,53%)"
    stroke-width="3"
    transform="" />
  
  <path
    d="M 
      214.8525792369
      -51.0200981793
      L
    
      160.0600364350
      20.0346495047
      L
    
      130.3420729984
      2.8831861814
      L
    
      114.6551724137
      -24.1379310344
      L
    
      136.2758620689
      -36.6896551724
      L
    
      141.8544061302
      -27.0804597701
      L
    
      139.6131693204
      -20.2755034804
      z
    "
    fill="hsla(0,0%,50%,0.3)"
    stroke="hsla(0,0%,50%,1)"
    stroke-width="1"
    transform="translate(-139.4018166283,23.3967423363) scale(1,-1) translate(50,-110)"
    />
  
  
  <line
    x1="114.65517241379311"
    y1="-24.137931034482758"
    x2="132.75862068965517"
    y2="-6.896551724137931"
    stroke="hsla(0,50%,50%,0.6)"
    stroke-width="1"
    transform="translate(-139.4018166283,23.3967423363) scale(1,-1) translate(50,-110)"
    />
  
  <line
    x1="136.27586206896552"
    y1="-36.689655172413794"
    x2="141.8544061302682"
    y2="-27.080459770114942"
    stroke="hsla(0,50%,50%,0.6)"
    stroke-width="1"
    transform="translate(-139.4018166283,23.3967423363) scale(1,-1) translate(50,-110)"
    />
  
  <line
    x1="123.65813862444023"
    y1="-14.655464489241197"
    x2="129.37746362601447"
    y2="-10.546934890382285"
    stroke="hsla(0,50%,50%,0.6)"
    stroke-width="1"
    transform="translate(-139.4018166283,23.3967423363) scale(1,-1) translate(50,-110)"
    />
  
  <line
    x1="125.07062146892656"
    y1="-6.197033898305085"
    x2="160"
    y2="20"
    stroke="hsla(0,50%,50%,0.6)"
    stroke-width="1"
    transform="translate(-139.4018166283,23.3967423363) scale(1,-1) translate(50,-110)"
    />
  
  <line
    x1="114.65517241379311"
    y1="-24.137931034482758"
    x2="128.34941596769184"
    y2="-18.327008387698044"
    stroke="hsla(0,50%,50%,0.6)"
    stroke-width="1"
    transform="translate(-139.4018166283,23.3967423363) scale(1,-1) translate(50,-110)"
    />
  
  <line
    x1="114.65517241379311"
    y1="-24.137931034482758"
    x2="130.34207299849285"
    y2="2.8831861814698496"
    stroke="hsla(0,50%,50%,0.6)"
    stroke-width="1"
    transform="translate(-139.4018166283,23.3967423363) scale(1,-1) translate(50,-110)"
    />
  
  <line
    x1="127.35594069713684"
    y1="-2.601731372569779"
    x2="130.41418111490827"
    y2="2.92480275175222"
    stroke="hsla(0,50%,50%,0.6)"
    stroke-width="1"
    transform="translate(-139.4018166283,23.3967423363) scale(1,-1) translate(50,-110)"
    />
  
  <line
    x1="130.34207299849285"
    y1="2.8831861814698496"
    x2="160.06003643506526"
    y2="20.034649504710423"
    stroke="hsla(0,50%,50%,0.6)"
    stroke-width="1"
    transform="translate(-139.4018166283,23.3967423363) scale(1,-1) translate(50,-110)"
    />
  
  <line
    x1="132.43088829836705"
    y1="2.8875250098240066"
    x2="162.01444917644815"
    y2="15.279961301036543"
    stroke="hsla(0,50%,50%,0.6)"
    stroke-width="1"
    transform="translate(-139.4018166283,23.3967423363) scale(1,-1) translate(50,-110)"
    />
  
  <line
    x1="123.65813862444023"
    y1="-14.655464489241197"
    x2="130.76667308824534"
    y2="3.1282404188497943"
    stroke="hsla(0,50%,50%,0.6)"
    stroke-width="1"
    transform="translate(-139.4018166283,23.3967423363) scale(1,-1) translate(50,-110)"
    />
  
  <line
    x1="129.96215306980656"
    y1="2.2287636669470143"
    x2="131.09946122084588"
    y2="2.4848226760406207"
    stroke="hsla(0,50%,50%,0.6)"
    stroke-width="1"
    transform="translate(-139.4018166283,23.3967423363) scale(1,-1) translate(50,-110)"
    />
  
  <line
    x1="128.34941596769184"
    y1="-18.327008387698044"
    x2="131.21897525602878"
    y2="3.3892826688787085"
    stroke="hsla(0,50%,50%,0.6)"
    stroke-width="1"
    transform="translate(-139.4018166283,23.3967423363) scale(1,-1) translate(50,-110)"
    />
  
  <line
    x1="123.2807567508112"
    y1="-20.477808942418743"
    x2="125.07062146892656"
    y2="-6.197033898305085"
    stroke="hsla(0,50%,50%,0.6)"
    stroke-width="1"
    transform="translate(-139.4018166283,23.3967423363) scale(1,-1) translate(50,-110)"
    />
  
  <line
    x1="130.34207299849285"
    y1="2.8831861814698496"
    x2="132.43088829836705"
    y2="2.8875250098240066"
    stroke="hsla(0,50%,50%,0.6)"
    stroke-width="1"
    transform="translate(-139.4018166283,23.3967423363) scale(1,-1) translate(50,-110)"
    />
  
  <line
    x1="132.43088829836705"
    y1="2.8875250098240066"
    x2="130.41418111490827"
    y2="2.92480275175222"
    stroke="hsla(0,50%,50%,0.6)"
    stroke-width="1"
    transform="translate(-139.4018166283,23.3967423363) scale(1,-1) translate(50,-110)"
    />
  
  <line
    x1="132.43088829836705"
    y1="2.8875250098240066"
    x2="132.35591323427752"
    y2="4.045456503817042"
    stroke="hsla(0,50%,50%,0.6)"
    stroke-width="1"
    transform="translate(-139.4018166283,23.3967423363) scale(1,-1) translate(50,-110)"
    />
  
  <line
    x1="132.75862068965517"
    y1="-6.896551724137931"
    x2="125.38314176245211"
    y2="-5.658709106984969"
    stroke="hsla(0,50%,50%,0.6)"
    stroke-width="1"
    transform="translate(-139.4018166283,23.3967423363) scale(1,-1) translate(50,-110)"
    />
  
  <line
    x1="132.43088829836705"
    y1="2.8875250098240066"
    x2="130.76667308824534"
    y2="3.1282404188497943"
    stroke="hsla(0,50%,50%,0.6)"
    stroke-width="1"
    transform="translate(-139.4018166283,23.3967423363) scale(1,-1) translate(50,-110)"
    />
  
  <line
    x1="141.8544061302682"
    y1="-27.080459770114942"
    x2="118.75191570881226"
    y2="-17.08117816091954"
    stroke="hsla(0,50%,50%,0.6)"
    stroke-width="1"
    transform="translate(-139.4018166283,23.3967423363) scale(1,-1) translate(50,-110)"
    />
  
  <line
    x1="214.8525792369397"
    y1="-51.0200981793414"
    x2="121.2529464253406"
    y2="-12.773084042064415"
    stroke="hsla(0,50%,50%,0.6)"
    stroke-width="1"
    transform="translate(-139.4018166283,23.3967423363) scale(1,-1) translate(50,-110)"
    />
  
  <line
    x1="136.27586206896552"
    y1="-36.689655172413794"
    x2="114.65517241379311"
    y2="-24.137931034482758"
    stroke="hsla(0,50%,50%,0.6)"
    stroke-width="1"
    transform="translate(-139.4018166283,23.3967423363) scale(1,-1) translate(50,-110)"
    />
  
  <line
    x1="132.75862068965517"
    y1="-6.896551724137931"
    x2="129.96215306980656"
    y2="2.2287636669470143"
    stroke="hsla(0,50%,50%,0.6)"
    stroke-width="1"
    transform="translate(-139.4018166283,23.3967423363) scale(1,-1) translate(50,-110)"
    />
  
  <line
    x1="141.8544061302682"
    y1="-27.080459770114942"
    x2="131.72323539590977"
    y2="3.68031200919673"
    stroke="hsla(0,50%,50%,0.6)"
    stroke-width="1"
    transform="translate(-139.4018166283,23.3967423363) scale(1,-1) translate(50,-110)"
    />
  
  <line
    x1="123.2807567508112"
    y1="-20.477808942418743"
    x2="118.75191570881226"
    y2="-17.08117816091954"
    stroke="hsla(0,50%,50%,0.6)"
    stroke-width="1"
    transform="translate(-139.4018166283,23.3967423363) scale(1,-1) translate(50,-110)"
    />
  
  <line
    x1="132.43088829836705"
    y1="2.8875250098240066"
    x2="131.21897525602878"
    y2="3.3892826688787085"
    stroke="hsla(0,50%,50%,0.6)"
    stroke-width="1"
    transform="translate(-139.4018166283,23.3967423363) scale(1,-1) translate(50,-110)"
    />
  
  <line
    x1="128.34941596769184"
    y1="-18.327008387698044"
    x2="121.2529464253406"
    y2="-12.773084042064415"
    stroke="hsla(0,50%,50%,0.6)"
    stroke-width="1"
    transform="translate(-139.4018166283,23.3967423363) scale(1,-1) translate(50,-110)"
    />
  
  <line
    x1="214.8525792369397"
    y1="-51.0200981793414"
    x2="127.35594069713684"
    y2="-2.601731372569779"
    stroke="hsla(0,50%,50%,0.6)"
    stroke-width="1"
    transform="translate(-139.4018166283,23.3967423363) scale(1,-1) translate(50,-110)"
    />
  
  <line
    x1="131.09946122084588"
    y1="2.4848226760406207"
    x2="130.34207299849285"
    y2="2.8831861814698496"
    stroke="hsla(0,50%,50%,0.6)"
    stroke-width="1"
    transform="translate(-139.4018166283,23.3967423363) scale(1,-1) translate(50,-110)"
    />
  
  <line
    x1="129.37746362601447"
    y1="-10.546934890382285"
    x2="125.38314176245211"
    y2="-5.658709106984969"
    stroke="hsla(0,50%,50%,0.6)"
    stroke-width="1"
    transform="translate(-139.4018166283,23.3967423363) scale(1,-1) translate(50,-110)"
    />
  
  <line
    x1="162.01444917644815"
    y1="15.279961301036543"
    x2="160.06003643506526"
    y2="20.034649504710423"
    stroke="hsla(0,50%,50%,0.6)"
    stroke-width="1"
    transform="translate(-139.4018166283,23.3967423363) scale(1,-1) translate(50,-110)"
    />
  
  <line
    x1="162.01444917644815"
    y1="15.279961301036543"
    x2="160"
    y2="20"
    stroke="hsla(0,50%,50%,0.6)"
    stroke-width="1"
    transform="translate(-139.4018166283,23.3967423363) scale(1,-1) translate(50,-110)"
    />
  
  <line
    x1="214.8525792369397"
    y1="-51.0200981793414"
    x2="130.34207299849285"
    y2="2.8831861814698496"
    stroke="hsla(0,50%,50%,0.6)"
    stroke-width="1"
    transform="translate(-139.4018166283,23.3967423363) scale(1,-1) translate(50,-110)"
    />
  
  <line
    x1="214.8525792369397"
    y1="-51.0200981793414"
    x2="132.35591323427752"
    y2="4.045456503817042"
    stroke="hsla(0,50%,50%,0.6)"
    stroke-width="1"
    transform="translate(-139.4018166283,23.3967423363) scale(1,-1) translate(50,-110)"
    />
  
  <line
    x1="132.43088829836705"
    y1="2.8875250098240066"
    x2="131.72323539590977"
    y2="3.68031200919673"
    stroke="hsla(0,50%,50%,0.6)"
    stroke-width="1"
    transform="translate(-139.4018166283,23.3967423363) scale(1,-1) translate(50,-110)"
    />
  
  <line
    x1="214.8525792369397"
    y1="-51.0200981793414"
    x2="160.06003643506526"
    y2="20.034649504710423"
    stroke="hsla(0,50%,50%,0.6)"
    stroke-width="1"
    transform="translate(-139.4018166283,23.3967423363) scale(1,-1) translate(50,-110)"
    />
  
</svg>
