<?xml version="1.0"?>
<!DOCTYPE svg PUBLIC "-//W3C//DTD SVG 1.1//EN"
  "http://www.w3.org/Graphics/SVG/1.1/DTD/svg11.dtd">
<svg
  width="240"
  height="240"
  viewBox="-50 -50 200 200" xmlns="http://www.w3.org/2000/svg" version="1.1">
  <rect
    x="0"
    y="0"
    width="100"
    height="100"
    fill="hsla(206,100%,53%,0.3)"
    stroke="hsl(206,100%,53%)"
    stroke-width="3"
    transform="" />
  
  <path
    d="M 
      0
      0
      L
    
      60
      45
      L
    
      65
      80
      L
    
      45
      65
      L
    
      30
      85
      L
    
      -5
      90
      L
    
      10
      70
      z
    "
    fill="hsla(0,0%,50%,0.3)"
    stroke="hsla(0,0%,50%,1)"
    stroke-width="1"
    transform="translate(-13.28125,-75.390625) scale(1,-1) translate(50,-110)"
    />
  
  
  <line
    x1="60"
    y1="45"
    x2="65"
    y2="80"
    stroke="hsla(0,50%,50%,0.6)"
    stroke-width="1"
    transform="translate(-13.28125,-75.390625) scale(1,-1) translate(50,-110)"
    />
  
  <line
    x1="25"
    y1="50"
    x2="30"
    y2="85"
    stroke="hsla(0,50%,50%,0.6)"
    stroke-width="1"
    transform="translate(-13.28125,-75.390625) scale(1,-1) translate(50,-110)"
    />
  
  <line
    x1="0"
    y1="0"
    x2="60"
    y2="45"
    stroke="hsla(0,50%,50%,0.6)"
    stroke-width="1"
    transform="translate(-13.28125,-75.390625) scale(1,-1) translate(50,-110)"
    />
  
  <line
    x1="0"
    y1="0"
    x2="10"
    y2="70"
    stroke="hsla(0,50%,50%,0.6)"
    stroke-width="1"
    transform="translate(-13.28125,-75.390625) scale(1,-1) translate(50,-110)"
    />
  
  <line
    x1="20"
    y1="15"
    x2="5"
    y2="35"
    stroke="hsla(0,50%,50%,0.6)"
    stroke-width="1"
    transform="translate(-13.28125,-75.390625) scale(1,-1) translate(50,-110)"
    />
  
  <line
    x1="5"
    y1="35"
    x2="65"
    y2="80"
    stroke="hsla(0,50%,50%,0.6)"
    stroke-width="1"
    transform="translate(-13.28125,-75.390625) scale(1,-1) translate(50,-110)"
    />
  
  <line
    x1="40"
    y1="30"
    x2="-5"
    y2="90"
    stroke="hsla(0,50%,50%,0.6)"
    stroke-width="1"
    transform="translate(-13.28125,-75.390625) scale(1,-1) translate(50,-110)"
    />
  
  <line
    x1="10"
    y1="70"
    x2="30"
    y2="85"
    stroke="hsla(0,50%,50%,0.6)"
    stroke-width="1"
    transform="translate(-13.28125,-75.390625) scale(1,-1) translate(50,-110)"
    />
  
  <line
    x1="60"
    y1="45"
    x2="30"
    y2="85"
    stroke="hsla(0,50%,50%,0.6)"
    stroke-width="1"
    transform="translate(-13.28125,-75.390625) scale(1,-1) translate(50,-110)"
    />
  
  <line
    x1="60"
    y1="45"
    x2="25"
    y2="50"
    stroke="hsla(0,50%,50%,0.6)"
    stroke-width="1"
    transform="translate(-13.28125,-75.390625) scale(1,-1) translate(50,-110)"
    />
  
  <line
    x1="30"
    y1="85"
    x2="-5"
    y2="90"
    stroke="hsla(0,50%,50%,0.6)"
    stroke-width="1"
    transform="translate(-13.28125,-75.390625) scale(1,-1) translate(50,-110)"
    />
  
</svg>
