<?xml version="1.0"?>
<!DOCTYPE svg PUBLIC "-//W3C//DTD SVG 1.1//EN"
  "http://www.w3.org/Graphics/SVG/1.1/DTD/svg11.dtd">
<svg
  width="240"
  height="240"
  viewBox="-500 -500 1000 1000" xmlns="http://www.w3.org/2000/svg" version="1.1">
  <rect
    x="0"
    y="0"
    width="100"
    height="100"
    fill="hsla(206,100%,53%,0.3)"
    stroke="hsl(206,100%,53%)"
    stroke-width="3"
    transform="" />
  
  <path
    d="M 
      16.6666666666
      0
      L
    
      22.2222222222
      0
      L
    
      38.8888888888
      16.6666666666
      L
    
      38.8888888888
      44.4444444444
      L
    
      22.2222222222
      44.4444444444
      L
    
      22.2222222222
      38.8888888888
      L
    
      16.6666666666
      38.8888888888
      L
    
      0
      22.2222222222
      L
    
      0
      16.6666666666
      z
    "
    fill="hsla(0,0%,50%,0.3)"
    stroke="hsla(0,0%,50%,1)"
    stroke-width="1"
    transform="translate(-19.4444444444,-20.8333333333)"
    />
  
  <path
    d="M 
      16.6666666666
      16.6666666666
      L
    
      16.6666666666
      22.2222222222
      L
    
      22.2222222222
      22.2222222222
      L
    
      22.2222222222
      16.6666666666
      z
    "
    fill="hsla(0,0%,50%,0.3)"
    stroke="hsla(0,0%,50%,1)"
    stroke-width="1"
    transform="translate(-19.4444444444,-20.8333333333)"
    />
  
  
  <line
    x1="22.22222222222222"
    y1="0"
    x2="38.888888888888886"
    y2="16.666666666666668"
    stroke="hsla(0,50%,50%,0.6)"
    stroke-width="1"
    transform="translate(-19.4444444444,-20.8333333333)"
    />
  
  <line
    x1="16.666666666666668"
    y1="0"
    x2="22.22222222222222"
    y2="0"
    stroke="hsla(0,50%,50%,0.6)"
    stroke-width="1"
    transform="translate(-19.4444444444,-20.8333333333)"
    />
  
  <line
    x1="0"
    y1="16.666666666666668"
    x2="0"
    y2="22.22222222222222"
    stroke="hsla(0,50%,50%,0.6)"
    stroke-width="1"
    transform="translate(-19.4444444444,-20.8333333333)"
    />
  
  <line
    x1="16.666666666666668"
    y1="0"
    x2="16.666666666666668"
    y2="38.888888888888886"
    stroke="hsla(0,50%,50%,0.6)"
    stroke-width="1"
    transform="translate(-19.4444444444,-20.8333333333)"
    />
  
  <line
    x1="22.22222222222222"
    y1="0"
    x2="22.22222222222222"
    y2="44.44444444444444"
    stroke="hsla(0,50%,50%,0.6)"
    stroke-width="1"
    transform="translate(-19.4444444444,-20.8333333333)"
    />
  
  <line
    x1="27.77777777777778"
    y1="22.22222222222222"
    x2="27.77777777777778"
    y2="38.888888888888886"
    stroke="hsla(0,50%,50%,0.6)"
    stroke-width="1"
    transform="translate(-19.4444444444,-20.8333333333)"
    />
  
  <line
    x1="38.888888888888886"
    y1="16.666666666666668"
    x2="38.888888888888886"
    y2="44.44444444444444"
    stroke="hsla(0,50%,50%,0.6)"
    stroke-width="1"
    transform="translate(-19.4444444444,-20.8333333333)"
    />
  
  <line
    x1="16.666666666666668"
    y1="0"
    x2="0"
    y2="16.666666666666668"
    stroke="hsla(0,50%,50%,0.6)"
    stroke-width="1"
    transform="translate(-19.4444444444,-20.8333333333)"
    />
  
  <line
    x1="0"
    y1="22.22222222222222"
    x2="16.666666666666668"
    y2="38.888888888888886"
    stroke="hsla(0,50%,50%,0.6)"
    stroke-width="1"
    transform="translate(-19.4444444444,-20.8333333333)"
    />
  
  <line
    x1="0"
    y1="16.666666666666668"
    x2="38.888888888888886"
    y2="16.666666666666668"
    stroke="hsla(0,50%,50%,0.6)"
    stroke-width="1"
    transform="translate(-19.4444444444,-20.8333333333)"
    />
  
  <line
    x1="0"
    y1="22.22222222222222"
    x2="27.77777777777778"
    y2="22.22222222222222"
    stroke="hsla(0,50%,50%,0.6)"
    stroke-width="1"
    transform="translate(-19.4444444444,-20.8333333333)"
    />
  
  <line
    x1="16.666666666666668"
    y1="38.888888888888886"
    x2="27.77777777777778"
    y2="38.888888888888886"
    stroke="hsla(0,50%,50%,0.6)"
    stroke-width="1"
    transform="translate(-19.4444444444,-20.8333333333)"
    />
  
  <line
    x1="22.22222222222222"
    y1="44.44444444444444"
    x2="38.888888888888886"
    y2="44.44444444444444"
    stroke="hsla(0,50%,50%,0.6)"
    stroke-width="1"
    transform="translate(-19.4444444444,-20.8333333333)"
    />
  
</svg>
