<?xml version="1.0"?>
<!DOCTYPE svg PUBLIC "-//W3C//DTD SVG 1.1//EN"
  "http://www.w3.org/Graphics/SVG/1.1/DTD/svg11.dtd">
<svg
  width="240"
  height="240"
  viewBox="-50 -50 200 200" xmlns="http://www.w3.org/2000/svg" version="1.1">
  <rect
    x="0"
    y="0"
    width="100"
    height="100"
    fill="hsla(206,100%,53%,0.3)"
    stroke="hsl(206,100%,53%)"
    stroke-width="3"
    transform="" />
  
  <path
    d="M 
      27.7777777777
      11.1111111111
      L
    
      33.3333333333
      11.1111111111
      L
    
      50
      27.7777777777
      L
    
      50
      55.5555555555
      L
    
      33.3333333333
      55.5555555555
      L
    
      33.3333333333
      50
      L
    
      27.7777777777
      50
      L
    
      11.1111111111
      33.3333333333
      L
    
      11.1111111111
      27.7777777777
      z
    "
    fill="hsla(0,0%,50%,0.3)"
    stroke="hsla(0,0%,50%,1)"
    stroke-width="1"
    transform="translate(-24.1427951388,-32.1831597222) scale(1,-1) translate(50,-110)"
    />
  
  <path
    d="M 
      27.7777777777
      27.7777777777
      L
    
      27.7777777777
      33.3333333333
      L
    
      33.3333333333
      33.3333333333
      L
    
      33.3333333333
      27.7777777777
      z
    "
    fill="hsla(0,0%,50%,0.3)"
    stroke="hsla(0,0%,50%,1)"
    stroke-width="1"
    transform="translate(-24.1427951388,-32.1831597222) scale(1,-1) translate(50,-110)"
    />
  
  
  <line
    x1="33.333333333333336"
    y1="11.11111111111111"
    x2="50"
    y2="27.77777777777778"
    stroke="hsla(0,50%,50%,0.6)"
    stroke-width="1"
    transform="translate(-24.1427951388,-32.1831597222) scale(1,-1) translate(50,-110)"
    />
  
  <line
    x1="11.11111111111111"
    y1="27.77777777777778"
    x2="11.11111111111111"
    y2="33.333333333333336"
    stroke="hsla(0,50%,50%,0.6)"
    stroke-width="1"
    transform="translate(-24.1427951388,-32.1831597222) scale(1,-1) translate(50,-110)"
    />
  
  <line
    x1="27.77777777777778"
    y1="11.11111111111111"
    x2="27.77777777777778"
    y2="50"
    stroke="hsla(0,50%,50%,0.6)"
    stroke-width="1"
    transform="translate(-24.1427951388,-32.1831597222) scale(1,-1) translate(50,-110)"
    />
  
  <line
    x1="33.333333333333336"
    y1="11.11111111111111"
    x2="33.333333333333336"
    y2="55.55555555555556"
    stroke="hsla(0,50%,50%,0.6)"
    stroke-width="1"
    transform="translate(-24.1427951388,-32.1831597222) scale(1,-1) translate(50,-110)"
    />
  
  <line
    x1="38.888888888888886"
    y1="33.333333333333336"
    x2="38.888888888888886"
    y2="50"
    stroke="hsla(0,50%,50%,0.6)"
    stroke-width="1"
    transform="translate(-24.1427951388,-32.1831597222) scale(1,-1) translate(50,-110)"
    />
  
  <line
    x1="50"
    y1="27.77777777777778"
    x2="50"
    y2="55.55555555555556"
    stroke="hsla(0,50%,50%,0.6)"
    stroke-width="1"
    transform="translate(-24.1427951388,-32.1831597222) scale(1,-1) translate(50,-110)"
    />
  
  <line
    x1="11.11111111111111"
    y1="33.333333333333336"
    x2="27.77777777777778"
    y2="50"
    stroke="hsla(0,50%,50%,0.6)"
    stroke-width="1"
    transform="translate(-24.1427951388,-32.1831597222) scale(1,-1) translate(50,-110)"
    />
  
  <line
    x1="27.77777777777778"
    y1="11.11111111111111"
    x2="33.333333333333336"
    y2="11.11111111111111"
    stroke="hsla(0,50%,50%,0.6)"
    stroke-width="1"
    transform="translate(-24.1427951388,-32.1831597222) scale(1,-1) translate(50,-110)"
    />
  
  <line
    x1="27.77777777777778"
    y1="11.11111111111111"
    x2="11.11111111111111"
    y2="27.77777777777778"
    stroke="hsla(0,50%,50%,0.6)"
    stroke-width="1"
    transform="translate(-24.1427951388,-32.1831597222) scale(1,-1) translate(50,-110)"
    />
  
  <line
    x1="11.11111111111111"
    y1="27.77777777777778"
    x2="50"
    y2="27.77777777777778"
    stroke="hsla(0,50%,50%,0.6)"
    stroke-width="1"
    transform="translate(-24.1427951388,-32.1831597222) scale(1,-1) translate(50,-110)"
    />
  
  <line
    x1="11.11111111111111"
    y1="33.333333333333336"
    x2="38.888888888888886"
    y2="33.333333333333336"
    stroke="hsla(0,50%,50%,0.6)"
    stroke-width="1"
    transform="translate(-24.1427951388,-32.1831597222) scale(1,-1) translate(50,-110)"
    />
  
  <line
    x1="27.77777777777778"
    y1="50"
    x2="38.888888888888886"
    y2="50"
    stroke="hsla(0,50%,50%,0.6)"
    stroke-width="1"
    transform="translate(-24.1427951388,-32.1831597222) scale(1,-1) translate(50,-110)"
    />
  
  <line
    x1="33.333333333333336"
    y1="55.55555555555556"
    x2="50"
    y2="55.55555555555556"
    stroke="hsla(0,50%,50%,0.6)"
    stroke-width="1"
    transform="translate(-24.1427951388,-32.1831597222) scale(1,-1) translate(50,-110)"
    />
  
</svg>
