<?xml version="1.0"?>
<!DOCTYPE svg PUBLIC "-//W3C//DTD SVG 1.1//EN"
  "http://www.w3.org/Graphics/SVG/1.1/DTD/svg11.dtd">
<svg
  width="240"
  height="240"
  viewBox="-50 -50 200 200" xmlns="http://www.w3.org/2000/svg" version="1.1">
  <rect
    x="0"
    y="0"
    width="100"
    height="100"
    fill="hsla(206,100%,53%,0.3)"
    stroke="hsl(206,100%,53%)"
    stroke-width="3"
    transform="" />
  
  <path
    d="M 
      -1087.0435782713
      -1708.2449955498
      L
    
      -996.4557209614
      -1665.8912459167
      L
    
      -998.9471179986
      -1660.5625484279
      L
    
      -1089.5349753086
      -1702.9162980610
      z
    "
    fill="hsla(0,0%,50%,0.3)"
    stroke="hsla(0,0%,50%,1)"
    stroke-width="1"
    transform="translate(1054.9416795580,1688.3658163208) scale(1,-1) translate(50,-110)"
    />
  
  
  <line
    x1="-1087.0435782713948"
    y1="-1708.2449955498994"
    x2="-996.4557209614151"
    y2="-1665.8912459167589"
    stroke="hsla(0,50%,50%,0.6)"
    stroke-width="1"
    transform="translate(1054.9416795580,1688.3658163208) scale(1,-1) translate(50,-110)"
    />
  
  <line
    x1="-1089.5349753086382"
    y1="-1702.916298061077"
    x2="-998.9471179986587"
    y2="-1660.5625484279365"
    stroke="hsla(0,50%,50%,0.6)"
    stroke-width="1"
    transform="translate(1054.9416795580,1688.3658163208) scale(1,-1) translate(50,-110)"
    />
  
  <line
    x1="-1087.0435782713948"
    y1="-1708.2449955498994"
    x2="-1089.5349753086382"
    y2="-1702.916298061077"
    stroke="hsla(0,50%,50%,0.6)"
    stroke-width="1"
    transform="translate(1054.9416795580,1688.3658163208) scale(1,-1) translate(50,-110)"
    />
  
  <line
    x1="-996.4557209614151"
    y1="-1665.8912459167589"
    x2="-998.9471179986587"
    y2="-1660.5625484279365"
    stroke="hsla(0,50%,50%,0.6)"
    stroke-width="1"
    transform="translate(1054.9416795580,1688.3658163208) scale(1,-1) translate(50,-110)"
    />
  
</svg>
