<?xml version="1.0"?>
<!DOCTYPE svg PUBLIC "-//W3C//DTD SVG 1.1//EN"
  "http://www.w3.org/Graphics/SVG/1.1/DTD/svg11.dtd">
<svg
  width="240"
  height="240"
  viewBox="-50 -50 200 200" xmlns="http://www.w3.org/2000/svg" version="1.1">
  <rect
    x="0"
    y="0"
    width="100"
    height="100"
    fill="hsla(206,100%,53%,0.3)"
    stroke="hsl(206,100%,53%)"
    stroke-width="3"
    transform="" />
  
  <path
    d="M 
      997.9310344827
      1662.7586206896
      L
    
      1088.5192697768
      1705.1115618661
      L
    
      1087.0588235294
      1708.2352941176
      L
    
      996.4705882352
      1665.8823529411
      z
    "
    fill="hsla(0,0%,50%,0.3)"
    stroke="hsla(0,0%,50%,1)"
    stroke-width="1"
    transform="translate(-1030.8062880324,-1680.9837728194) scale(1,-1) translate(50,-110)"
    />
  
  
  <line
    x1="997.9310344827586"
    y1="1662.7586206896551"
    x2="996.4705882352941"
    y2="1665.8823529411766"
    stroke="hsla(0,50%,50%,0.6)"
    stroke-width="1"
    transform="translate(-1030.8062880324,-1680.9837728194) scale(1,-1) translate(50,-110)"
    />
  
  <line
    x1="1088.5192697768762"
    y1="1705.1115618661258"
    x2="1087.0588235294117"
    y2="1708.235294117647"
    stroke="hsla(0,50%,50%,0.6)"
    stroke-width="1"
    transform="translate(-1030.8062880324,-1680.9837728194) scale(1,-1) translate(50,-110)"
    />
  
  <line
    x1="997.9310344827586"
    y1="1662.7586206896551"
    x2="1088.5192697768762"
    y2="1705.1115618661258"
    stroke="hsla(0,50%,50%,0.6)"
    stroke-width="1"
    transform="translate(-1030.8062880324,-1680.9837728194) scale(1,-1) translate(50,-110)"
    />
  
  <line
    x1="996.4705882352941"
    y1="1665.8823529411766"
    x2="1087.0588235294117"
    y2="1708.235294117647"
    stroke="hsla(0,50%,50%,0.6)"
    stroke-width="1"
    transform="translate(-1030.8062880324,-1680.9837728194) scale(1,-1) translate(50,-110)"
    />
  
</svg>
