<?xml version="1.0"?>
<!DOCTYPE svg PUBLIC "-//W3C//DTD SVG 1.1//EN"
  "http://www.w3.org/Graphics/SVG/1.1/DTD/svg11.dtd">
<svg
  width="240"
  height="240"
  viewBox="-50 -50 200 200" xmlns="http://www.w3.org/2000/svg" version="1.1">
  <rect
    x="0"
    y="0"
    width="100"
    height="100"
    fill="hsla(206,100%,53%,0.3)"
    stroke="hsl(206,100%,53%)"
    stroke-width="3"
    transform="" />
  
  <path
    d="M 
      170.3389037433
      23.6286764705
      L
    
      186.3837762237
      34.5338461538
      L
    
      185.4168294885
      36.2411638343
      L
    
      185.6725227813
      36.5701502339
      L
    
      184.8829554223
      37.1838141367
      L
    
      184.5081981474
      36.8599307289
      L
    
      173.2307692307
      50.8461538461
      L
    
      168.7330316742
      49.8642533936
      L
    
      170
      60
      L
    
      135
      42.5
      L
    
      136.8018680740
      37.3947071236
      L
    
      134.2906325060
      36.1465172137
      L
    
      129.32
      38.76
      L
    
      129.4953846153
      33.7630769230
      z
    "
    fill="hsla(0,0%,50%,0.3)"
    stroke="hsla(0,0%,50%,1)"
    stroke-width="1"
    transform="translate(-132.0044384046,-36.4229383236) scale(1,-1) translate(50,-110)"
    />
  
  
  <line
    x1="181.5212669683258"
    y1="31.2289592760181"
    x2="185.67252278138085"
    y2="36.570150233970935"
    stroke="hsla(0,50%,50%,0.6)"
    stroke-width="1"
    transform="translate(-132.0044384046,-36.4229383236) scale(1,-1) translate(50,-110)"
    />
  
  <line
    x1="169.45299554416763"
    y1="23.84849466074433"
    x2="184.88295542237913"
    y2="37.18381413677038"
    stroke="hsla(0,50%,50%,0.6)"
    stroke-width="1"
    transform="translate(-132.0044384046,-36.4229383236) scale(1,-1) translate(50,-110)"
    />
  
  <line
    x1="170.3389037433155"
    y1="23.628676470588236"
    x2="186.38377622377624"
    y2="34.533846153846156"
    stroke="hsla(0,50%,50%,0.6)"
    stroke-width="1"
    transform="translate(-132.0044384046,-36.4229383236) scale(1,-1) translate(50,-110)"
    />
  
  <line
    x1="167.5030128691087"
    y1="28.851389999531612"
    x2="167.53599572433654"
    y2="28.916443713460247"
    stroke="hsla(0,50%,50%,0.6)"
    stroke-width="1"
    transform="translate(-132.0044384046,-36.4229383236) scale(1,-1) translate(50,-110)"
    />
  
  <line
    x1="144.19156600974782"
    y1="30.116550116550115"
    x2="170"
    y2="60"
    stroke="hsla(0,50%,50%,0.6)"
    stroke-width="1"
    transform="translate(-132.0044384046,-36.4229383236) scale(1,-1) translate(50,-110)"
    />
  
  <line
    x1="138.90791690061764"
    y1="31.42756878158338"
    x2="155.39605799135552"
    y2="46.636803138806044"
    stroke="hsla(0,50%,50%,0.6)"
    stroke-width="1"
    transform="translate(-132.0044384046,-36.4229383236) scale(1,-1) translate(50,-110)"
    />
  
  <line
    x1="165.60054907343857"
    y1="24.80439258750858"
    x2="167.315587808418"
    y2="29.332249637155297"
    stroke="hsla(0,50%,50%,0.6)"
    stroke-width="1"
    transform="translate(-132.0044384046,-36.4229383236) scale(1,-1) translate(50,-110)"
    />
  
  <line
    x1="140"
    y1="31.156592928061315"
    x2="141.31980023073203"
    y2="33.652373785865805"
    stroke="hsla(0,50%,50%,0.6)"
    stroke-width="1"
    transform="translate(-132.0044384046,-36.4229383236) scale(1,-1) translate(50,-110)"
    />
  
  <line
    x1="143.01865892597968"
    y1="35.21946008708273"
    x2="155.9279005291247"
    y2="45.86468395369302"
    stroke="hsla(0,50%,50%,0.6)"
    stroke-width="1"
    transform="translate(-132.0044384046,-36.4229383236) scale(1,-1) translate(50,-110)"
    />
  
  <line
    x1="166.5567332076208"
    y1="24.567137005006828"
    x2="173.23076923076923"
    y2="50.84615384615385"
    stroke="hsla(0,50%,50%,0.6)"
    stroke-width="1"
    transform="translate(-132.0044384046,-36.4229383236) scale(1,-1) translate(50,-110)"
    />
  
  <line
    x1="164.30315072381492"
    y1="25.126312801589556"
    x2="165.71428571428572"
    y2="25.714285714285715"
    stroke="hsla(0,50%,50%,0.6)"
    stroke-width="1"
    transform="translate(-132.0044384046,-36.4229383236) scale(1,-1) translate(50,-110)"
    />
  
  <line
    x1="166.5567332076208"
    y1="24.567137005006828"
    x2="167.58718335508266"
    y2="28.819876763968225"
    stroke="hsla(0,50%,50%,0.6)"
    stroke-width="1"
    transform="translate(-132.0044384046,-36.4229383236) scale(1,-1) translate(50,-110)"
    />
  
  <line
    x1="133.07165644171778"
    y1="32.87570552147239"
    x2="155.9279005291247"
    y2="45.86468395369302"
    stroke="hsla(0,50%,50%,0.6)"
    stroke-width="1"
    transform="translate(-132.0044384046,-36.4229383236) scale(1,-1) translate(50,-110)"
    />
  
  <line
    x1="129.4953846153846"
    y1="33.76307692307692"
    x2="155.39605799135552"
    y2="46.636803138806044"
    stroke="hsla(0,50%,50%,0.6)"
    stroke-width="1"
    transform="translate(-132.0044384046,-36.4229383236) scale(1,-1) translate(50,-110)"
    />
  
  <line
    x1="141.31980023073203"
    y1="33.652373785865805"
    x2="148.9764233560344"
    y2="36.94183677570615"
    stroke="hsla(0,50%,50%,0.6)"
    stroke-width="1"
    transform="translate(-132.0044384046,-36.4229383236) scale(1,-1) translate(50,-110)"
    />
  
  <line
    x1="162.3010989010989"
    y1="25.623076923076923"
    x2="181.5212669683258"
    y2="31.2289592760181"
    stroke="hsla(0,50%,50%,0.6)"
    stroke-width="1"
    transform="translate(-132.0044384046,-36.4229383236) scale(1,-1) translate(50,-110)"
    />
  
  <line
    x1="135"
    y1="42.5"
    x2="170"
    y2="60"
    stroke="hsla(0,50%,50%,0.6)"
    stroke-width="1"
    transform="translate(-132.0044384046,-36.4229383236) scale(1,-1) translate(50,-110)"
    />
  
  <line
    x1="165.60054907343857"
    y1="24.80439258750858"
    x2="170"
    y2="60"
    stroke="hsla(0,50%,50%,0.6)"
    stroke-width="1"
    transform="translate(-132.0044384046,-36.4229383236) scale(1,-1) translate(50,-110)"
    />
  
  <line
    x1="147.16"
    y1="29.38"
    x2="148.9504566261025"
    y2="43.433067619366604"
    stroke="hsla(0,50%,50%,0.6)"
    stroke-width="1"
    transform="translate(-132.0044384046,-36.4229383236) scale(1,-1) translate(50,-110)"
    />
  
  <line
    x1="140"
    y1="31.156592928061315"
    x2="140"
    y2="45"
    stroke="hsla(0,50%,50%,0.6)"
    stroke-width="1"
    transform="translate(-132.0044384046,-36.4229383236) scale(1,-1) translate(50,-110)"
    />
  
  <line
    x1="129.4953846153846"
    y1="33.76307692307692"
    x2="129.32"
    y2="38.76"
    stroke="hsla(0,50%,50%,0.6)"
    stroke-width="1"
    transform="translate(-132.0044384046,-36.4229383236) scale(1,-1) translate(50,-110)"
    />
  
  <line
    x1="135"
    y1="42.5"
    x2="173.23076923076923"
    y2="50.84615384615385"
    stroke="hsla(0,50%,50%,0.6)"
    stroke-width="1"
    transform="translate(-132.0044384046,-36.4229383236) scale(1,-1) translate(50,-110)"
    />
  
  <line
    x1="147.16"
    y1="29.38"
    x2="145.6389550072569"
    y2="41.78711175616836"
    stroke="hsla(0,50%,50%,0.6)"
    stroke-width="1"
    transform="translate(-132.0044384046,-36.4229383236) scale(1,-1) translate(50,-110)"
    />
  
  <line
    x1="164.33670559339063"
    y1="28.471061292843586"
    x2="163.27017162808164"
    y2="35.20531021953373"
    stroke="hsla(0,50%,50%,0.6)"
    stroke-width="1"
    transform="translate(-132.0044384046,-36.4229383236) scale(1,-1) translate(50,-110)"
    />
  
  <line
    x1="167.315587808418"
    y1="29.332249637155297"
    x2="147.16"
    y2="29.38"
    stroke="hsla(0,50%,50%,0.6)"
    stroke-width="1"
    transform="translate(-132.0044384046,-36.4229383236) scale(1,-1) translate(50,-110)"
    />
  
  <line
    x1="144.19156600974782"
    y1="30.116550116550115"
    x2="143.01865892597968"
    y2="35.21946008708273"
    stroke="hsla(0,50%,50%,0.6)"
    stroke-width="1"
    transform="translate(-132.0044384046,-36.4229383236) scale(1,-1) translate(50,-110)"
    />
  
  <line
    x1="138.90791690061764"
    y1="31.42756878158338"
    x2="135"
    y2="42.5"
    stroke="hsla(0,50%,50%,0.6)"
    stroke-width="1"
    transform="translate(-132.0044384046,-36.4229383236) scale(1,-1) translate(50,-110)"
    />
  
  <line
    x1="167.53599572433654"
    y1="28.916443713460247"
    x2="129.4953846153846"
    y2="33.76307692307692"
    stroke="hsla(0,50%,50%,0.6)"
    stroke-width="1"
    transform="translate(-132.0044384046,-36.4229383236) scale(1,-1) translate(50,-110)"
    />
  
  <line
    x1="148.9764233560344"
    y1="36.94183677570615"
    x2="147.81543641844368"
    y2="39.64417434934228"
    stroke="hsla(0,50%,50%,0.6)"
    stroke-width="1"
    transform="translate(-132.0044384046,-36.4229383236) scale(1,-1) translate(50,-110)"
    />
  
  <line
    x1="169.45299554416763"
    y1="23.84849466074433"
    x2="167.315587808418"
    y2="29.332249637155297"
    stroke="hsla(0,50%,50%,0.6)"
    stroke-width="1"
    transform="translate(-132.0044384046,-36.4229383236) scale(1,-1) translate(50,-110)"
    />
  
  <line
    x1="170.3389037433155"
    y1="23.628676470588236"
    x2="129.4953846153846"
    y2="33.76307692307692"
    stroke="hsla(0,50%,50%,0.6)"
    stroke-width="1"
    transform="translate(-132.0044384046,-36.4229383236) scale(1,-1) translate(50,-110)"
    />
  
  <line
    x1="167.315587808418"
    y1="29.332249637155297"
    x2="143.01865892597968"
    y2="35.21946008708273"
    stroke="hsla(0,50%,50%,0.6)"
    stroke-width="1"
    transform="translate(-132.0044384046,-36.4229383236) scale(1,-1) translate(50,-110)"
    />
  
  <line
    x1="133.07165644171778"
    y1="32.87570552147239"
    x2="129.32"
    y2="38.76"
    stroke="hsla(0,50%,50%,0.6)"
    stroke-width="1"
    transform="translate(-132.0044384046,-36.4229383236) scale(1,-1) translate(50,-110)"
    />
  
  <line
    x1="164.33670559339063"
    y1="28.471061292843586"
    x2="143.01865892597968"
    y2="35.21946008708273"
    stroke="hsla(0,50%,50%,0.6)"
    stroke-width="1"
    transform="translate(-132.0044384046,-36.4229383236) scale(1,-1) translate(50,-110)"
    />
  
  <line
    x1="170.3389037433155"
    y1="23.628676470588236"
    x2="167.315587808418"
    y2="29.332249637155297"
    stroke="hsla(0,50%,50%,0.6)"
    stroke-width="1"
    transform="translate(-132.0044384046,-36.4229383236) scale(1,-1) translate(50,-110)"
    />
  
  <line
    x1="167.58718335508266"
    y1="28.819876763968225"
    x2="167.5030128691087"
    y2="28.851389999531612"
    stroke="hsla(0,50%,50%,0.6)"
    stroke-width="1"
    transform="translate(-132.0044384046,-36.4229383236) scale(1,-1) translate(50,-110)"
    />
  
  <line
    x1="147.16"
    y1="29.38"
    x2="129.32"
    y2="38.76"
    stroke="hsla(0,50%,50%,0.6)"
    stroke-width="1"
    transform="translate(-132.0044384046,-36.4229383236) scale(1,-1) translate(50,-110)"
    />
  
  <line
    x1="167.315587808418"
    y1="29.332249637155297"
    x2="155.39605799135552"
    y2="46.636803138806044"
    stroke="hsla(0,50%,50%,0.6)"
    stroke-width="1"
    transform="translate(-132.0044384046,-36.4229383236) scale(1,-1) translate(50,-110)"
    />
  
  <line
    x1="186.38377622377624"
    y1="34.533846153846156"
    x2="184.88295542237913"
    y2="37.18381413677038"
    stroke="hsla(0,50%,50%,0.6)"
    stroke-width="1"
    transform="translate(-132.0044384046,-36.4229383236) scale(1,-1) translate(50,-110)"
    />
  
  <line
    x1="164.30315072381492"
    y1="25.126312801589556"
    x2="150.38037993871956"
    y2="42.010167392356074"
    stroke="hsla(0,50%,50%,0.6)"
    stroke-width="1"
    transform="translate(-132.0044384046,-36.4229383236) scale(1,-1) translate(50,-110)"
    />
  
  <line
    x1="167.315587808418"
    y1="29.332249637155297"
    x2="147.81543641844368"
    y2="39.64417434934228"
    stroke="hsla(0,50%,50%,0.6)"
    stroke-width="1"
    transform="translate(-132.0044384046,-36.4229383236) scale(1,-1) translate(50,-110)"
    />
  
  <line
    x1="162.3010989010989"
    y1="25.623076923076923"
    x2="145.6389550072569"
    y2="41.78711175616836"
    stroke="hsla(0,50%,50%,0.6)"
    stroke-width="1"
    transform="translate(-132.0044384046,-36.4229383236) scale(1,-1) translate(50,-110)"
    />
  
  <line
    x1="165.71428571428572"
    y1="25.714285714285715"
    x2="140"
    y2="45"
    stroke="hsla(0,50%,50%,0.6)"
    stroke-width="1"
    transform="translate(-132.0044384046,-36.4229383236) scale(1,-1) translate(50,-110)"
    />
  
  <line
    x1="164.33670559339063"
    y1="28.471061292843586"
    x2="150.38037993871956"
    y2="42.010167392356074"
    stroke="hsla(0,50%,50%,0.6)"
    stroke-width="1"
    transform="translate(-132.0044384046,-36.4229383236) scale(1,-1) translate(50,-110)"
    />
  
  <line
    x1="163.27017162808164"
    y1="35.20531021953373"
    x2="148.9504566261025"
    y2="43.433067619366604"
    stroke="hsla(0,50%,50%,0.6)"
    stroke-width="1"
    transform="translate(-132.0044384046,-36.4229383236) scale(1,-1) translate(50,-110)"
    />
  
  <line
    x1="186.38377622377624"
    y1="34.533846153846156"
    x2="173.23076923076923"
    y2="50.84615384615385"
    stroke="hsla(0,50%,50%,0.6)"
    stroke-width="1"
    transform="translate(-132.0044384046,-36.4229383236) scale(1,-1) translate(50,-110)"
    />
  
  <line
    x1="185.67252278138085"
    y1="36.570150233970935"
    x2="184.88295542237913"
    y2="37.18381413677038"
    stroke="hsla(0,50%,50%,0.6)"
    stroke-width="1"
    transform="translate(-132.0044384046,-36.4229383236) scale(1,-1) translate(50,-110)"
    />
  
</svg>
