<?xml version="1.0"?>
<!DOCTYPE svg PUBLIC "-//W3C//DTD SVG 1.1//EN"
  "http://www.w3.org/Graphics/SVG/1.1/DTD/svg11.dtd">
<svg
  width="240"
  height="240"
  viewBox="-50 -50 200 200" xmlns="http://www.w3.org/2000/svg" version="1.1">
  <rect
    x="0"
    y="0"
    width="100"
    height="100"
    fill="hsla(206,100%,53%,0.3)"
    stroke="hsl(206,100%,53%)"
    stroke-width="3"
    transform="" />
  
  <path
    d="M 
      63.6363636363
      63.6363636363
      L
    
      113.6363636363
      63.6363636363
      L
    
      163.6363636363
      88.6363636363
      L
    
      163.6363636363
      113.6363636363
      L
    
      130.3030303030
      113.6363636363
      L
    
      103.6363636363
      133.6363636363
      L
    
      88.6363636363
      113.6363636363
      L
    
      63.6363636363
      113.6363636363
      z
    "
    fill="hsla(0,0%,50%,0.3)"
    stroke="hsla(0,0%,50%,1)"
    stroke-width="1"
    transform="translate(-84.1311553030,-114.9644886363) scale(1,-1) translate(50,-110)"
    />
  
  
  <line
    x1="88.63636363636364"
    y1="113.63636363636364"
    x2="103.63636363636364"
    y2="133.63636363636363"
    stroke="hsla(0,50%,50%,0.6)"
    stroke-width="1"
    transform="translate(-84.1311553030,-114.9644886363) scale(1,-1) translate(50,-110)"
    />
  
  <line
    x1="63.63636363636363"
    y1="63.63636363636363"
    x2="63.63636363636363"
    y2="113.63636363636364"
    stroke="hsla(0,50%,50%,0.6)"
    stroke-width="1"
    transform="translate(-84.1311553030,-114.9644886363) scale(1,-1) translate(50,-110)"
    />
  
  <line
    x1="113.63636363636364"
    y1="63.63636363636363"
    x2="113.63636363636364"
    y2="113.63636363636364"
    stroke="hsla(0,50%,50%,0.6)"
    stroke-width="1"
    transform="translate(-84.1311553030,-114.9644886363) scale(1,-1) translate(50,-110)"
    />
  
  <line
    x1="163.63636363636363"
    y1="88.63636363636364"
    x2="163.63636363636363"
    y2="113.63636363636364"
    stroke="hsla(0,50%,50%,0.6)"
    stroke-width="1"
    transform="translate(-84.1311553030,-114.9644886363) scale(1,-1) translate(50,-110)"
    />
  
  <line
    x1="113.63636363636364"
    y1="63.63636363636363"
    x2="163.63636363636363"
    y2="88.63636363636364"
    stroke="hsla(0,50%,50%,0.6)"
    stroke-width="1"
    transform="translate(-84.1311553030,-114.9644886363) scale(1,-1) translate(50,-110)"
    />
  
  <line
    x1="113.63636363636364"
    y1="63.63636363636363"
    x2="88.63636363636364"
    y2="113.63636363636364"
    stroke="hsla(0,50%,50%,0.6)"
    stroke-width="1"
    transform="translate(-84.1311553030,-114.9644886363) scale(1,-1) translate(50,-110)"
    />
  
  <line
    x1="63.63636363636363"
    y1="63.63636363636363"
    x2="113.63636363636364"
    y2="63.63636363636363"
    stroke="hsla(0,50%,50%,0.6)"
    stroke-width="1"
    transform="translate(-84.1311553030,-114.9644886363) scale(1,-1) translate(50,-110)"
    />
  
  <line
    x1="63.63636363636363"
    y1="113.63636363636364"
    x2="163.63636363636363"
    y2="113.63636363636364"
    stroke="hsla(0,50%,50%,0.6)"
    stroke-width="1"
    transform="translate(-84.1311553030,-114.9644886363) scale(1,-1) translate(50,-110)"
    />
  
  <line
    x1="163.63636363636363"
    y1="88.63636363636364"
    x2="103.63636363636364"
    y2="133.63636363636363"
    stroke="hsla(0,50%,50%,0.6)"
    stroke-width="1"
    transform="translate(-84.1311553030,-114.9644886363) scale(1,-1) translate(50,-110)"
    />
  
</svg>
