<?xml version="1.0"?>
<!DOCTYPE svg PUBLIC "-//W3C//DTD SVG 1.1//EN"
  "http://www.w3.org/Graphics/SVG/1.1/DTD/svg11.dtd">
<svg
  width="240"
  height="240"
  viewBox="-500 -500 1000 1000" xmlns="http://www.w3.org/2000/svg" version="1.1">
  <rect
    x="0"
    y="0"
    width="100"
    height="100"
    fill="hsla(206,100%,53%,0.3)"
    stroke="hsl(206,100%,53%)"
    stroke-width="3"
    transform="" />
  
  <path
    d="M 
      30.7692307692
      12.8205128205
      L
    
      66.6666666666
      100
      L
    
      35.8974358974
      87.1794871794
      L
    
      -7.6923076923
      105.1282051282
      L
    
      5.1282051282
      74.3589743589
      L
    
      -25.6410256410
      61.5384615384
      L
    
      17.9487179487
      43.5897435897
      z
    "
    fill="hsla(0,0%,50%,0.3)"
    stroke="hsla(0,0%,50%,1)"
    stroke-width="1"
    transform="translate(-20.5128205128,-58.9743589743)"
    />
  
  
  <line
    x1="30.76923076923077"
    y1="12.820512820512821"
    x2="66.66666666666667"
    y2="100"
    stroke="hsla(0,50%,50%,0.6)"
    stroke-width="1"
    transform="translate(-20.5128205128,-58.9743589743)"
    />
  
  <line
    x1="17.94871794871795"
    y1="43.58974358974359"
    x2="35.8974358974359"
    y2="87.17948717948718"
    stroke="hsla(0,50%,50%,0.6)"
    stroke-width="1"
    transform="translate(-20.5128205128,-58.9743589743)"
    />
  
  <line
    x1="30.76923076923077"
    y1="12.820512820512821"
    x2="-7.6923076923076925"
    y2="105.12820512820512"
    stroke="hsla(0,50%,50%,0.6)"
    stroke-width="1"
    transform="translate(-20.5128205128,-58.9743589743)"
    />
  
  <line
    x1="48.717948717948715"
    y1="56.41025641025641"
    x2="35.8974358974359"
    y2="87.17948717948718"
    stroke="hsla(0,50%,50%,0.6)"
    stroke-width="1"
    transform="translate(-20.5128205128,-58.9743589743)"
    />
  
  <line
    x1="17.94871794871795"
    y1="43.58974358974359"
    x2="48.717948717948715"
    y2="56.41025641025641"
    stroke="hsla(0,50%,50%,0.6)"
    stroke-width="1"
    transform="translate(-20.5128205128,-58.9743589743)"
    />
  
  <line
    x1="17.94871794871795"
    y1="43.58974358974359"
    x2="-25.641025641025642"
    y2="61.53846153846154"
    stroke="hsla(0,50%,50%,0.6)"
    stroke-width="1"
    transform="translate(-20.5128205128,-58.9743589743)"
    />
  
  <line
    x1="-25.641025641025642"
    y1="61.53846153846154"
    x2="66.66666666666667"
    y2="100"
    stroke="hsla(0,50%,50%,0.6)"
    stroke-width="1"
    transform="translate(-20.5128205128,-58.9743589743)"
    />
  
  <line
    x1="48.717948717948715"
    y1="56.41025641025641"
    x2="5.128205128205129"
    y2="74.35897435897436"
    stroke="hsla(0,50%,50%,0.6)"
    stroke-width="1"
    transform="translate(-20.5128205128,-58.9743589743)"
    />
  
  <line
    x1="35.8974358974359"
    y1="87.17948717948718"
    x2="-7.6923076923076925"
    y2="105.12820512820512"
    stroke="hsla(0,50%,50%,0.6)"
    stroke-width="1"
    transform="translate(-20.5128205128,-58.9743589743)"
    />
  
</svg>
