<?xml version="1.0"?>
<!DOCTYPE svg PUBLIC "-//W3C//DTD SVG 1.1//EN"
  "http://www.w3.org/Graphics/SVG/1.1/DTD/svg11.dtd">
<svg
  width="240"
  height="240"
  viewBox="-50 -50 200 200" xmlns="http://www.w3.org/2000/svg" version="1.1">
  <rect
    x="0"
    y="0"
    width="100"
    height="100"
    fill="hsla(206,100%,53%,0.3)"
    stroke="hsl(206,100%,53%)"
    stroke-width="3"
    transform="" />
  
  <path
    d="M 
      0
      17.5
      L
    
      16.8
      22.4
      L
    
      16.2264150943
      24.3665768194
      L
    
      26.7692307692
      18.1538461538
      L
    
      36.9230769230
      35.3846153846
      L
    
      0
      57.1428571428
      L
    
      -20
      45.7142857142
      L
    
      -20
      32.5
      z
    "
    fill="hsla(0,0%,50%,0.3)"
    stroke="hsla(0,0%,50%,1)"
    stroke-width="1"
    transform="translate(11.4709814949,-38.2927212380) scale(1,-1) translate(50,-110)"
    />
  
  
  <line
    x1="26.76923076923077"
    y1="18.153846153846153"
    x2="36.92307692307692"
    y2="35.38461538461539"
    stroke="hsla(0,50%,50%,0.6)"
    stroke-width="1"
    transform="translate(11.4709814949,-38.2927212380) scale(1,-1) translate(50,-110)"
    />
  
  <line
    x1="-20"
    y1="32.5"
    x2="-20"
    y2="45.714285714285715"
    stroke="hsla(0,50%,50%,0.6)"
    stroke-width="1"
    transform="translate(11.4709814949,-38.2927212380) scale(1,-1) translate(50,-110)"
    />
  
  <line
    x1="0"
    y1="17.5"
    x2="0"
    y2="57.142857142857146"
    stroke="hsla(0,50%,50%,0.6)"
    stroke-width="1"
    transform="translate(11.4709814949,-38.2927212380) scale(1,-1) translate(50,-110)"
    />
  
  <line
    x1="16.8"
    y1="22.4"
    x2="11.2"
    y2="41.6"
    stroke="hsla(0,50%,50%,0.6)"
    stroke-width="1"
    transform="translate(11.4709814949,-38.2927212380) scale(1,-1) translate(50,-110)"
    />
  
  <line
    x1="0"
    y1="17.5"
    x2="-20"
    y2="32.5"
    stroke="hsla(0,50%,50%,0.6)"
    stroke-width="1"
    transform="translate(11.4709814949,-38.2927212380) scale(1,-1) translate(50,-110)"
    />
  
  <line
    x1="0"
    y1="17.5"
    x2="16.8"
    y2="22.4"
    stroke="hsla(0,50%,50%,0.6)"
    stroke-width="1"
    transform="translate(11.4709814949,-38.2927212380) scale(1,-1) translate(50,-110)"
    />
  
  <line
    x1="26.76923076923077"
    y1="18.153846153846153"
    x2="-20"
    y2="45.714285714285715"
    stroke="hsla(0,50%,50%,0.6)"
    stroke-width="1"
    transform="translate(11.4709814949,-38.2927212380) scale(1,-1) translate(50,-110)"
    />
  
  <line
    x1="-20"
    y1="32.5"
    x2="11.2"
    y2="41.6"
    stroke="hsla(0,50%,50%,0.6)"
    stroke-width="1"
    transform="translate(11.4709814949,-38.2927212380) scale(1,-1) translate(50,-110)"
    />
  
  <line
    x1="36.92307692307692"
    y1="35.38461538461539"
    x2="0"
    y2="57.142857142857146"
    stroke="hsla(0,50%,50%,0.6)"
    stroke-width="1"
    transform="translate(11.4709814949,-38.2927212380) scale(1,-1) translate(50,-110)"
    />
  
  <line
    x1="-20"
    y1="45.714285714285715"
    x2="0"
    y2="57.142857142857146"
    stroke="hsla(0,50%,50%,0.6)"
    stroke-width="1"
    transform="translate(11.4709814949,-38.2927212380) scale(1,-1) translate(50,-110)"
    />
  
</svg>
