<?xml version="1.0"?>
<!DOCTYPE svg PUBLIC "-//W3C//DTD SVG 1.1//EN"
  "http://www.w3.org/Graphics/SVG/1.1/DTD/svg11.dtd">
<svg
  width="240"
  height="240"
  viewBox="-500 -500 1000 1000" xmlns="http://www.w3.org/2000/svg" version="1.1">
  <rect
    x="0"
    y="0"
    width="100"
    height="100"
    fill="hsla(206,100%,53%,0.3)"
    stroke="hsl(206,100%,53%)"
    stroke-width="3"
    transform="" />
  
  <path
    d="M 
      167.2721575467
      -12.7214977670
      L
    
      169.5794295070
      7.9146268010
      L
    
      172.1662540812
      13.5041244747
      L
    
      118.9126709299
      61.6722152807
      L
    
      102.5072042419
      63.4999309187
      L
    
      100
      66.8324987481
      L
    
      93.1475793998
      64.5426767921
      L
    
      100
      0
      L
    
      130.7178772842
      6.5969216156
      L
    
      134.0628366892
      -9.0084490993
      z
    "
    fill="hsla(0,0%,50%,0.3)"
    stroke="hsla(0,0%,50%,1)"
    stroke-width="1"
    transform="translate(-132.6569167405,-27.0555004905)"
    />
  
  
  <line
    x1="134.0628366892248"
    y1="-9.008449099320597"
    x2="172.16625408127513"
    y2="13.504124474712258"
    stroke="hsla(0,50%,50%,0.6)"
    stroke-width="1"
    transform="translate(-132.6569167405,-27.0555004905)"
    />
  
  <line
    x1="162.7889846814633"
    y1="-6.757870102663698"
    x2="172.16625408127513"
    y2="13.504124474712258"
    stroke="hsla(0,50%,50%,0.6)"
    stroke-width="1"
    transform="translate(-132.6569167405,-27.0555004905)"
    />
  
  <line
    x1="97.50998971212854"
    y1="23.45330775738336"
    x2="119.9400704248656"
    y2="40.328221154734344"
    stroke="hsla(0,50%,50%,0.6)"
    stroke-width="1"
    transform="translate(-132.6569167405,-27.0555004905)"
    />
  
  <line
    x1="100"
    y1="0"
    x2="170.38456008004363"
    y2="15.115674221440452"
    stroke="hsla(0,50%,50%,0.6)"
    stroke-width="1"
    transform="translate(-132.6569167405,-27.0555004905)"
    />
  
  <line
    x1="167.2721575467761"
    y1="-12.72149776704744"
    x2="170.38456008004363"
    y2="15.115674221440452"
    stroke="hsla(0,50%,50%,0.6)"
    stroke-width="1"
    transform="translate(-132.6569167405,-27.0555004905)"
    />
  
  <line
    x1="100"
    y1="0"
    x2="100"
    y2="66.83249874810004"
    stroke="hsla(0,50%,50%,0.6)"
    stroke-width="1"
    transform="translate(-132.6569167405,-27.0555004905)"
    />
  
  <line
    x1="167.2721575467761"
    y1="-12.72149776704744"
    x2="134.0628366892248"
    y2="-9.008449099320597"
    stroke="hsla(0,50%,50%,0.6)"
    stroke-width="1"
    transform="translate(-132.6569167405,-27.0555004905)"
    />
  
  <line
    x1="100"
    y1="0"
    x2="93.1475793998098"
    y2="64.54267679218171"
    stroke="hsla(0,50%,50%,0.6)"
    stroke-width="1"
    transform="translate(-132.6569167405,-27.0555004905)"
    />
  
  <line
    x1="134.0628366892248"
    y1="-9.008449099320597"
    x2="118.91267092995199"
    y2="61.67221528074562"
    stroke="hsla(0,50%,50%,0.6)"
    stroke-width="1"
    transform="translate(-132.6569167405,-27.0555004905)"
    />
  
  <line
    x1="93.1475793998098"
    y1="64.54267679218171"
    x2="100"
    y2="66.83249874810004"
    stroke="hsla(0,50%,50%,0.6)"
    stroke-width="1"
    transform="translate(-132.6569167405,-27.0555004905)"
    />
  
  <line
    x1="162.7889846814633"
    y1="-6.757870102663698"
    x2="97.50998971212854"
    y2="23.45330775738336"
    stroke="hsla(0,50%,50%,0.6)"
    stroke-width="1"
    transform="translate(-132.6569167405,-27.0555004905)"
    />
  
  <line
    x1="119.9400704248656"
    y1="40.328221154734344"
    x2="100"
    y2="66.83249874810004"
    stroke="hsla(0,50%,50%,0.6)"
    stroke-width="1"
    transform="translate(-132.6569167405,-27.0555004905)"
    />
  
  <line
    x1="118.91267092995199"
    y1="61.67221528074562"
    x2="93.1475793998098"
    y2="64.54267679218171"
    stroke="hsla(0,50%,50%,0.6)"
    stroke-width="1"
    transform="translate(-132.6569167405,-27.0555004905)"
    />
  
  <line
    x1="172.16625408127513"
    y1="13.504124474712258"
    x2="118.91267092995199"
    y2="61.67221528074562"
    stroke="hsla(0,50%,50%,0.6)"
    stroke-width="1"
    transform="translate(-132.6569167405,-27.0555004905)"
    />
  
</svg>
