<?xml version="1.0"?>
<!DOCTYPE svg PUBLIC "-//W3C//DTD SVG 1.1//EN"
  "http://www.w3.org/Graphics/SVG/1.1/DTD/svg11.dtd">
<svg
  width="240"
  height="240"
  viewBox="-500 -500 1000 1000" xmlns="http://www.w3.org/2000/svg" version="1.1">
  <rect
    x="0"
    y="0"
    width="100"
    height="100"
    fill="hsla(206,100%,53%,0.3)"
    stroke="hsl(206,100%,53%)"
    stroke-width="3"
    transform="" />
  
  <path
    d="M 
      61.5384615384
      -25.6410256410
      L
    
      105.1282051282
      -7.6923076923
      L
    
      74.3589743589
      5.1282051282
      L
    
      56.4102564102
      48.7179487179
      L
    
      43.5897435897
      17.9487179487
      L
    
      0
      0
      L
    
      30.7692307692
      -12.8205128205
      L
    
      52.5641025641
      -3.8461538461
      z
    "
    fill="hsla(0,0%,50%,0.3)"
    stroke="hsla(0,0%,50%,1)"
    stroke-width="1"
    transform="translate(-52.5641025641,-11.5384615384)"
    />
  
  
  <line
    x1="61.53846153846154"
    y1="-25.641025641025642"
    x2="105.12820512820512"
    y2="-7.6923076923076925"
    stroke="hsla(0,50%,50%,0.6)"
    stroke-width="1"
    transform="translate(-52.5641025641,-11.5384615384)"
    />
  
  <line
    x1="61.53846153846154"
    y1="-25.641025641025642"
    x2="74.35897435897436"
    y2="5.128205128205129"
    stroke="hsla(0,50%,50%,0.6)"
    stroke-width="1"
    transform="translate(-52.5641025641,-11.5384615384)"
    />
  
  <line
    x1="30.76923076923077"
    y1="-12.820512820512821"
    x2="74.35897435897436"
    y2="5.128205128205129"
    stroke="hsla(0,50%,50%,0.6)"
    stroke-width="1"
    transform="translate(-52.5641025641,-11.5384615384)"
    />
  
  <line
    x1="30.76923076923077"
    y1="-12.820512820512821"
    x2="56.41025641025641"
    y2="48.717948717948715"
    stroke="hsla(0,50%,50%,0.6)"
    stroke-width="1"
    transform="translate(-52.5641025641,-11.5384615384)"
    />
  
  <line
    x1="0"
    y1="0"
    x2="43.58974358974359"
    y2="17.94871794871795"
    stroke="hsla(0,50%,50%,0.6)"
    stroke-width="1"
    transform="translate(-52.5641025641,-11.5384615384)"
    />
  
  <line
    x1="30.76923076923077"
    y1="-12.820512820512821"
    x2="0"
    y2="0"
    stroke="hsla(0,50%,50%,0.6)"
    stroke-width="1"
    transform="translate(-52.5641025641,-11.5384615384)"
    />
  
  <line
    x1="61.53846153846154"
    y1="-25.641025641025642"
    x2="43.58974358974359"
    y2="17.94871794871795"
    stroke="hsla(0,50%,50%,0.6)"
    stroke-width="1"
    transform="translate(-52.5641025641,-11.5384615384)"
    />
  
  <line
    x1="74.35897435897436"
    y1="5.128205128205129"
    x2="56.41025641025641"
    y2="48.717948717948715"
    stroke="hsla(0,50%,50%,0.6)"
    stroke-width="1"
    transform="translate(-52.5641025641,-11.5384615384)"
    />
  
  <line
    x1="105.12820512820512"
    y1="-7.6923076923076925"
    x2="43.58974358974359"
    y2="17.94871794871795"
    stroke="hsla(0,50%,50%,0.6)"
    stroke-width="1"
    transform="translate(-52.5641025641,-11.5384615384)"
    />
  
</svg>
