<?xml version="1.0"?>
<!DOCTYPE svg PUBLIC "-//W3C//DTD SVG 1.1//EN"
  "http://www.w3.org/Graphics/SVG/1.1/DTD/svg11.dtd">
<svg
  width="240"
  height="240"
  viewBox="-50 -50 200 200" xmlns="http://www.w3.org/2000/svg" version="1.1">
  <rect
    x="0"
    y="0"
    width="100"
    height="100"
    fill="hsla(206,100%,53%,0.3)"
    stroke="hsl(206,100%,53%)"
    stroke-width="3"
    transform="" />
  
  <path
    d="M 
      12.8571428571
      0
      L
    
      28.5714285714
      2.8571428571
      L
    
      35.7142857142
      17.1428571428
      L
    
      28.5714285714
      31.4285714285
      L
    
      12.8571428571
      34.2857142857
      L
    
      3.9367915677
      26.0180716272
      L
    
      2.8
      26.7428571428
      L
    
      2.5946275946
      24.7741147741
      L
    
      1.1428571428
      23.4285714285
      L
    
      2.4047604959
      22.9540094838
      L
    
      1.1428571428
      10.8571428571
      z
    "
    fill="hsla(0,0%,50%,0.3)"
    stroke="hsla(0,0%,50%,1)"
    stroke-width="1"
    transform="translate(-13.5109890716,-17.7320457555) scale(1,-1) translate(50,-110)"
    />
  
  <path
    d="M 
      20
      5.3571428571
      L
    
      9.7142857142
      8.3571428571
      L
    
      5.9428571428
      18.3857142857
      L
    
      7.6079095348
      20.9972696743
      L
    
      7.8285714285
      20.9142857142
      L
    
      8.2219938335
      21.9604316546
      L
    
      8.8228571428
      22.9028571428
      L
    
      8.6240728385
      23.0295962818
      L
    
      9.7142857142
      25.9285714285
      L
    
      20
      28.9285714285
      L
    
      28.5714285714
      22.5
      L
    
      28.5714285714
      11.7857142857
      z
    "
    fill="hsla(0,0%,50%,0.3)"
    stroke="hsla(0,0%,50%,1)"
    stroke-width="1"
    transform="translate(-13.5109890716,-17.7320457555) scale(1,-1) translate(50,-110)"
    />
  
  
  <line
    x1="28.571428571428573"
    y1="2.857142857142857"
    x2="35.714285714285715"
    y2="17.142857142857142"
    stroke="hsla(0,50%,50%,0.6)"
    stroke-width="1"
    transform="translate(-13.5109890716,-17.7320457555) scale(1,-1) translate(50,-110)"
    />
  
  <line
    x1="12.857142857142858"
    y1="0"
    x2="35.714285714285715"
    y2="17.142857142857142"
    stroke="hsla(0,50%,50%,0.6)"
    stroke-width="1"
    transform="translate(-13.5109890716,-17.7320457555) scale(1,-1) translate(50,-110)"
    />
  
  <line
    x1="12.857142857142858"
    y1="0"
    x2="28.571428571428573"
    y2="2.857142857142857"
    stroke="hsla(0,50%,50%,0.6)"
    stroke-width="1"
    transform="translate(-13.5109890716,-17.7320457555) scale(1,-1) translate(50,-110)"
    />
  
  <line
    x1="1.1428571428571428"
    y1="10.857142857142858"
    x2="2.8"
    y2="26.742857142857144"
    stroke="hsla(0,50%,50%,0.6)"
    stroke-width="1"
    transform="translate(-13.5109890716,-17.7320457555) scale(1,-1) translate(50,-110)"
    />
  
  <line
    x1="28.571428571428573"
    y1="2.857142857142857"
    x2="28.571428571428573"
    y2="31.428571428571427"
    stroke="hsla(0,50%,50%,0.6)"
    stroke-width="1"
    transform="translate(-13.5109890716,-17.7320457555) scale(1,-1) translate(50,-110)"
    />
  
  <line
    x1="7.828571428571428"
    y1="20.914285714285715"
    x2="12.857142857142858"
    y2="34.285714285714285"
    stroke="hsla(0,50%,50%,0.6)"
    stroke-width="1"
    transform="translate(-13.5109890716,-17.7320457555) scale(1,-1) translate(50,-110)"
    />
  
  <line
    x1="1.1428571428571428"
    y1="10.857142857142858"
    x2="8.822857142857142"
    y2="22.902857142857144"
    stroke="hsla(0,50%,50%,0.6)"
    stroke-width="1"
    transform="translate(-13.5109890716,-17.7320457555) scale(1,-1) translate(50,-110)"
    />
  
  <line
    x1="12.857142857142858"
    y1="0"
    x2="2.8"
    y2="26.742857142857144"
    stroke="hsla(0,50%,50%,0.6)"
    stroke-width="1"
    transform="translate(-13.5109890716,-17.7320457555) scale(1,-1) translate(50,-110)"
    />
  
  <line
    x1="12.857142857142858"
    y1="0"
    x2="1.1428571428571428"
    y2="10.857142857142858"
    stroke="hsla(0,50%,50%,0.6)"
    stroke-width="1"
    transform="translate(-13.5109890716,-17.7320457555) scale(1,-1) translate(50,-110)"
    />
  
  <line
    x1="28.571428571428573"
    y1="2.857142857142857"
    x2="1.1428571428571428"
    y2="10.857142857142858"
    stroke="hsla(0,50%,50%,0.6)"
    stroke-width="1"
    transform="translate(-13.5109890716,-17.7320457555) scale(1,-1) translate(50,-110)"
    />
  
  <line
    x1="1.1428571428571428"
    y1="23.428571428571427"
    x2="12.857142857142858"
    y2="34.285714285714285"
    stroke="hsla(0,50%,50%,0.6)"
    stroke-width="1"
    transform="translate(-13.5109890716,-17.7320457555) scale(1,-1) translate(50,-110)"
    />
  
  <line
    x1="35.714285714285715"
    y1="17.142857142857142"
    x2="28.571428571428573"
    y2="31.428571428571427"
    stroke="hsla(0,50%,50%,0.6)"
    stroke-width="1"
    transform="translate(-13.5109890716,-17.7320457555) scale(1,-1) translate(50,-110)"
    />
  
  <line
    x1="8.822857142857142"
    y1="22.902857142857144"
    x2="2.8"
    y2="26.742857142857144"
    stroke="hsla(0,50%,50%,0.6)"
    stroke-width="1"
    transform="translate(-13.5109890716,-17.7320457555) scale(1,-1) translate(50,-110)"
    />
  
  <line
    x1="7.828571428571428"
    y1="20.914285714285715"
    x2="1.1428571428571428"
    y2="23.428571428571427"
    stroke="hsla(0,50%,50%,0.6)"
    stroke-width="1"
    transform="translate(-13.5109890716,-17.7320457555) scale(1,-1) translate(50,-110)"
    />
  
  <line
    x1="1.1428571428571428"
    y1="23.428571428571427"
    x2="28.571428571428573"
    y2="31.428571428571427"
    stroke="hsla(0,50%,50%,0.6)"
    stroke-width="1"
    transform="translate(-13.5109890716,-17.7320457555) scale(1,-1) translate(50,-110)"
    />
  
  <line
    x1="35.714285714285715"
    y1="17.142857142857142"
    x2="12.857142857142858"
    y2="34.285714285714285"
    stroke="hsla(0,50%,50%,0.6)"
    stroke-width="1"
    transform="translate(-13.5109890716,-17.7320457555) scale(1,-1) translate(50,-110)"
    />
  
  <line
    x1="28.571428571428573"
    y1="31.428571428571427"
    x2="12.857142857142858"
    y2="34.285714285714285"
    stroke="hsla(0,50%,50%,0.6)"
    stroke-width="1"
    transform="translate(-13.5109890716,-17.7320457555) scale(1,-1) translate(50,-110)"
    />
  
</svg>
