<?xml version="1.0"?>
<!DOCTYPE svg PUBLIC "-//W3C//DTD SVG 1.1//EN"
  "http://www.w3.org/Graphics/SVG/1.1/DTD/svg11.dtd">
<svg
  width="240"
  height="240"
  viewBox="-500 -500 1000 1000" xmlns="http://www.w3.org/2000/svg" version="1.1">
  <rect
    x="0"
    y="0"
    width="100"
    height="100"
    fill="hsla(206,100%,53%,0.3)"
    stroke="hsl(206,100%,53%)"
    stroke-width="3"
    transform="" />
  
  <path
    d="M 
      1.8484960461
      -11.9341964795
      L
    
      15.3502129001
      -6.7049045891
      L
    
      77.2350301033
      53.9179594008
      L
    
      76.3911057852
      54.9750939052
      L
    
      88.0887936357
      65.8383732116
      L
    
      87.3636099389
      68.0997225681
      L
    
      84.6491515146
      67.2292330131
      L
    
      58.0087498946
      78.0015931616
      L
    
      -3.7850251113
      -4.8774148831
      L
    
      0.8534894009
      -10.6878100036
      L
    
      0.8310057037
      -10.8503524467
      L
    
      1.0366863843
      -10.9172901217
      z
    "
    fill="hsla(0,0%,50%,0.3)"
    stroke="hsla(0,0%,50%,1)"
    stroke-width="1"
    transform="translate(-42.1518842621,-33.0336983410)"
    />
  
  
  <line
    x1="15.350212900173474"
    y1="-6.704904589181517"
    x2="77.23503010334467"
    y2="53.91795940089645"
    stroke="hsla(0,50%,50%,0.6)"
    stroke-width="1"
    transform="translate(-42.1518842621,-33.0336983410)"
    />
  
  <line
    x1="1.848496046192718"
    y1="-11.934196479518622"
    x2="15.350212900173474"
    y2="-6.704904589181517"
    stroke="hsla(0,50%,50%,0.6)"
    stroke-width="1"
    transform="translate(-42.1518842621,-33.0336983410)"
    />
  
  <line
    x1="11.664244130805677"
    y1="-8.132501301669821"
    x2="13.26413818025535"
    y2="-6.629633851864884"
    stroke="hsla(0,50%,50%,0.6)"
    stroke-width="1"
    transform="translate(-42.1518842621,-33.0336983410)"
    />
  
  <line
    x1="2.9045562303541654"
    y1="-11.525178351197027"
    x2="0.8310057037676722"
    y2="-10.850352446761335"
    stroke="hsla(0,50%,50%,0.6)"
    stroke-width="1"
    transform="translate(-42.1518842621,-33.0336983410)"
    />
  
  <line
    x1="7.170891431762769"
    y1="-9.307568769106156"
    x2="88.08879363571869"
    y2="65.838373211618"
    stroke="hsla(0,50%,50%,0.6)"
    stroke-width="1"
    transform="translate(-42.1518842621,-33.0336983410)"
    />
  
  <line
    x1="11.664244130805677"
    y1="-8.132501301669821"
    x2="3.221577894985434"
    y2="-8.004951478515537"
    stroke="hsla(0,50%,50%,0.6)"
    stroke-width="1"
    transform="translate(-42.1518842621,-33.0336983410)"
    />
  
  <line
    x1="13.912255114837961"
    y1="1.5172957879877635"
    x2="22.16331233578299"
    y2="10.20489404258466"
    stroke="hsla(0,50%,50%,0.6)"
    stroke-width="1"
    transform="translate(-42.1518842621,-33.0336983410)"
    />
  
  <line
    x1="15.350212900173474"
    y1="-6.704904589181517"
    x2="1.4736844283314863"
    y2="-6.204205108238765"
    stroke="hsla(0,50%,50%,0.6)"
    stroke-width="1"
    transform="translate(-42.1518842621,-33.0336983410)"
    />
  
  <line
    x1="42.530784016473305"
    y1="19.921401190253658"
    x2="47.754986120964624"
    y2="56.21842452783609"
    stroke="hsla(0,50%,50%,0.6)"
    stroke-width="1"
    transform="translate(-42.1518842621,-33.0336983410)"
    />
  
  <line
    x1="7.170891431762769"
    y1="-9.307568769106156"
    x2="-3.785025111398216"
    y2="-4.877414883168811"
    stroke="hsla(0,50%,50%,0.6)"
    stroke-width="1"
    transform="translate(-42.1518842621,-33.0336983410)"
    />
  
  <line
    x1="3.271407513988062"
    y1="-4.706672958847192"
    x2="20.00950084992131"
    y2="-2.1406286902830396"
    stroke="hsla(0,50%,50%,0.6)"
    stroke-width="1"
    transform="translate(-42.1518842621,-33.0336983410)"
    />
  
  <line
    x1="13.912255114837961"
    y1="1.5172957879877635"
    x2="22.594280314639267"
    y2="23.093546585005488"
    stroke="hsla(0,50%,50%,0.6)"
    stroke-width="1"
    transform="translate(-42.1518842621,-33.0336983410)"
    />
  
  <line
    x1="2.9045562303541654"
    y1="-11.525178351197027"
    x2="25.21609178061719"
    y2="27.70324906670317"
    stroke="hsla(0,50%,50%,0.6)"
    stroke-width="1"
    transform="translate(-42.1518842621,-33.0336983410)"
    />
  
  <line
    x1="1.848496046192718"
    y1="-11.934196479518622"
    x2="-3.785025111398216"
    y2="-4.877414883168811"
    stroke="hsla(0,50%,50%,0.6)"
    stroke-width="1"
    transform="translate(-42.1518842621,-33.0336983410)"
    />
  
  <line
    x1="20.00950084992131"
    y1="-2.1406286902830396"
    x2="25.21609178061719"
    y2="27.70324906670317"
    stroke="hsla(0,50%,50%,0.6)"
    stroke-width="1"
    transform="translate(-42.1518842621,-33.0336983410)"
    />
  
  <line
    x1="0.8310057037676722"
    y1="-10.850352446761335"
    x2="3.2850353123529508"
    y2="-6.269563129827168"
    stroke="hsla(0,50%,50%,0.6)"
    stroke-width="1"
    transform="translate(-42.1518842621,-33.0336983410)"
    />
  
  <line
    x1="22.594280314639267"
    y1="23.093546585005488"
    x2="27.80800353106265"
    y2="29.927718984142327"
    stroke="hsla(0,50%,50%,0.6)"
    stroke-width="1"
    transform="translate(-42.1518842621,-33.0336983410)"
    />
  
  <line
    x1="38.3129458998168"
    y1="15.789573093569373"
    x2="39.08180740980676"
    y2="52.61641126730456"
    stroke="hsla(0,50%,50%,0.6)"
    stroke-width="1"
    transform="translate(-42.1518842621,-33.0336983410)"
    />
  
  <line
    x1="0.8310057037676722"
    y1="-10.850352446761335"
    x2="1.4736844283314863"
    y2="-6.204205108238765"
    stroke="hsla(0,50%,50%,0.6)"
    stroke-width="1"
    transform="translate(-42.1518842621,-33.0336983410)"
    />
  
  <line
    x1="13.863913235264816"
    y1="-7.280556920538627"
    x2="13.912255114837961"
    y2="1.5172957879877635"
    stroke="hsla(0,50%,50%,0.6)"
    stroke-width="1"
    transform="translate(-42.1518842621,-33.0336983410)"
    />
  
  <line
    x1="3.221577894985434"
    y1="-8.004951478515537"
    x2="3.271407513988062"
    y2="-4.706672958847192"
    stroke="hsla(0,50%,50%,0.6)"
    stroke-width="1"
    transform="translate(-42.1518842621,-33.0336983410)"
    />
  
  <line
    x1="25.85484749207787"
    y1="3.585519830103274"
    x2="25.85151159364383"
    y2="15.78616589046044"
    stroke="hsla(0,50%,50%,0.6)"
    stroke-width="1"
    transform="translate(-42.1518842621,-33.0336983410)"
    />
  
  <line
    x1="1.848496046192718"
    y1="-11.934196479518622"
    x2="1.4736844283314863"
    y2="-6.204205108238765"
    stroke="hsla(0,50%,50%,0.6)"
    stroke-width="1"
    transform="translate(-42.1518842621,-33.0336983410)"
    />
  
  <line
    x1="-3.785025111398216"
    y1="-4.877414883168811"
    x2="58.008749894671965"
    y2="78.00159316164108"
    stroke="hsla(0,50%,50%,0.6)"
    stroke-width="1"
    transform="translate(-42.1518842621,-33.0336983410)"
    />
  
  <line
    x1="5.228445152904952"
    y1="-10.625122926530336"
    x2="3.2850353123529508"
    y2="-6.269563129827168"
    stroke="hsla(0,50%,50%,0.6)"
    stroke-width="1"
    transform="translate(-42.1518842621,-33.0336983410)"
    />
  
  <line
    x1="5.228445152904952"
    y1="-10.625122926530336"
    x2="3.271407513988062"
    y2="-4.706672958847192"
    stroke="hsla(0,50%,50%,0.6)"
    stroke-width="1"
    transform="translate(-42.1518842621,-33.0336983410)"
    />
  
  <line
    x1="7.170891431762769"
    y1="-9.307568769106156"
    x2="2.8824499290316483"
    y2="4.065131796655702"
    stroke="hsla(0,50%,50%,0.6)"
    stroke-width="1"
    transform="translate(-42.1518842621,-33.0336983410)"
    />
  
  <line
    x1="25.21609178061719"
    y1="27.70324906670317"
    x2="27.80800353106265"
    y2="29.927718984142327"
    stroke="hsla(0,50%,50%,0.6)"
    stroke-width="1"
    transform="translate(-42.1518842621,-33.0336983410)"
    />
  
  <line
    x1="13.863913235264816"
    y1="-7.280556920538627"
    x2="13.26413818025535"
    y2="-6.629633851864884"
    stroke="hsla(0,50%,50%,0.6)"
    stroke-width="1"
    transform="translate(-42.1518842621,-33.0336983410)"
    />
  
  <line
    x1="25.85484749207787"
    y1="3.585519830103274"
    x2="2.8824499290316483"
    y2="4.065131796655702"
    stroke="hsla(0,50%,50%,0.6)"
    stroke-width="1"
    transform="translate(-42.1518842621,-33.0336983410)"
    />
  
  <line
    x1="22.16331233578299"
    y1="10.20489404258466"
    x2="19.155334195906505"
    y2="17.047147496566794"
    stroke="hsla(0,50%,50%,0.6)"
    stroke-width="1"
    transform="translate(-42.1518842621,-33.0336983410)"
    />
  
  <line
    x1="75.50604916501854"
    y1="52.224235786565224"
    x2="75.07683595082484"
    y2="55.714899109968485"
    stroke="hsla(0,50%,50%,0.6)"
    stroke-width="1"
    transform="translate(-42.1518842621,-33.0336983410)"
    />
  
  <line
    x1="27.80800353106265"
    y1="29.927718984142327"
    x2="75.07683595082484"
    y2="55.714899109968485"
    stroke="hsla(0,50%,50%,0.6)"
    stroke-width="1"
    transform="translate(-42.1518842621,-33.0336983410)"
    />
  
  <line
    x1="19.155334195906505"
    y1="17.047147496566794"
    x2="42.530784016473305"
    y2="19.921401190253658"
    stroke="hsla(0,50%,50%,0.6)"
    stroke-width="1"
    transform="translate(-42.1518842621,-33.0336983410)"
    />
  
  <line
    x1="25.85151159364383"
    y1="15.78616589046044"
    x2="38.3129458998168"
    y2="15.789573093569373"
    stroke="hsla(0,50%,50%,0.6)"
    stroke-width="1"
    transform="translate(-42.1518842621,-33.0336983410)"
    />
  
  <line
    x1="88.08879363571869"
    y1="65.838373211618"
    x2="87.36360993890563"
    y2="68.09972256813303"
    stroke="hsla(0,50%,50%,0.6)"
    stroke-width="1"
    transform="translate(-42.1518842621,-33.0336983410)"
    />
  
  <line
    x1="39.08180740980676"
    y1="52.61641126730456"
    x2="87.36360993890563"
    y2="68.09972256813303"
    stroke="hsla(0,50%,50%,0.6)"
    stroke-width="1"
    transform="translate(-42.1518842621,-33.0336983410)"
    />
  
  <line
    x1="77.23503010334467"
    y1="53.91795940089645"
    x2="58.008749894671965"
    y2="78.00159316164108"
    stroke="hsla(0,50%,50%,0.6)"
    stroke-width="1"
    transform="translate(-42.1518842621,-33.0336983410)"
    />
  
  <line
    x1="75.50604916501854"
    y1="52.224235786565224"
    x2="47.754986120964624"
    y2="56.21842452783609"
    stroke="hsla(0,50%,50%,0.6)"
    stroke-width="1"
    transform="translate(-42.1518842621,-33.0336983410)"
    />
  
  <line
    x1="77.23503010334467"
    y1="53.91795940089645"
    x2="75.07683595082484"
    y2="55.714899109968485"
    stroke="hsla(0,50%,50%,0.6)"
    stroke-width="1"
    transform="translate(-42.1518842621,-33.0336983410)"
    />
  
  <line
    x1="88.08879363571869"
    y1="65.838373211618"
    x2="58.008749894671965"
    y2="78.00159316164108"
    stroke="hsla(0,50%,50%,0.6)"
    stroke-width="1"
    transform="translate(-42.1518842621,-33.0336983410)"
    />
  
</svg>
