<?xml version="1.0"?>
<!DOCTYPE svg PUBLIC "-//W3C//DTD SVG 1.1//EN"
  "http://www.w3.org/Graphics/SVG/1.1/DTD/svg11.dtd">
<svg
  width="240"
  height="240"
  viewBox="-50 -50 200 200" xmlns="http://www.w3.org/2000/svg" version="1.1">
  <rect
    x="0"
    y="0"
    width="100"
    height="100"
    fill="hsla(206,100%,53%,0.3)"
    stroke="hsl(206,100%,53%)"
    stroke-width="3"
    transform="" />
  
  <path
    d="M 
      18999999999999999999999999999999999999999999999999999999999999999999999999999999999999999999999999999000
      18999999999999999999999999999999999999999999999999999999999999999999999999999999999999999999999999999000
      L
    
      18999999999999999999999999999999999999999999999999999999999999999999999999999999999999999999999999999100
      18999999999999999999999999999999999999999999999999999999999999999999999999999999999999999999999999999000
      L
    
      18999999999999999999999999999999999999999999999999999999999999999999999999999999999999999999999999999100
      18999999999999999999999999999999999999999999999999999999999999999999999999999999999999999999999999999100
      L
    
      18999999999999999999999999999999999999999999999999999999999999999999999999999999999999999999999999999000
      18999999999999999999999999999999999999999999999999999999999999999999999999999999999999999999999999999100
      z
    "
    fill="hsla(0,0%,50%,0.3)"
    stroke="hsla(0,0%,50%,1)"
    stroke-width="1"
    transform="translate(-18999999999999999999999999999999999999999999999999999999999999999999999999999999999999999999999999999037.5,-18999999999999999999999999999999999999999999999999999999999999999999999999999999999999999999999999999075) scale(1,-1) translate(50,-110)"
    />
  
  
  <line
    x1="1.9e+103"
    y1="1.9e+103"
    x2="1.9e+103"
    y2="1.9e+103"
    stroke="hsla(0,50%,50%,0.6)"
    stroke-width="1"
    transform="translate(-18999999999999999999999999999999999999999999999999999999999999999999999999999999999999999999999999999037.5,-18999999999999999999999999999999999999999999999999999999999999999999999999999999999999999999999999999075) scale(1,-1) translate(50,-110)"
    />
  
  <line
    x1="1.9e+103"
    y1="1.9e+103"
    x2="1.9e+103"
    y2="1.9e+103"
    stroke="hsla(0,50%,50%,0.6)"
    stroke-width="1"
    transform="translate(-18999999999999999999999999999999999999999999999999999999999999999999999999999999999999999999999999999037.5,-18999999999999999999999999999999999999999999999999999999999999999999999999999999999999999999999999999075) scale(1,-1) translate(50,-110)"
    />
  
  <line
    x1="1.9e+103"
    y1="1.9e+103"
    x2="1.9e+103"
    y2="1.9e+103"
    stroke="hsla(0,50%,50%,0.6)"
    stroke-width="1"
    transform="translate(-18999999999999999999999999999999999999999999999999999999999999999999999999999999999999999999999999999037.5,-18999999999999999999999999999999999999999999999999999999999999999999999999999999999999999999999999999075) scale(1,-1) translate(50,-110)"
    />
  
  <line
    x1="1.9e+103"
    y1="1.9e+103"
    x2="1.9e+103"
    y2="1.9e+103"
    stroke="hsla(0,50%,50%,0.6)"
    stroke-width="1"
    transform="translate(-18999999999999999999999999999999999999999999999999999999999999999999999999999999999999999999999999999037.5,-18999999999999999999999999999999999999999999999999999999999999999999999999999999999999999999999999999075) scale(1,-1) translate(50,-110)"
    />
  
</svg>
