<?xml version="1.0"?>
<!DOCTYPE svg PUBLIC "-//W3C//DTD SVG 1.1//EN"
  "http://www.w3.org/Graphics/SVG/1.1/DTD/svg11.dtd">
<svg
  width="240"
  height="240"
  viewBox="-500 -500 1000 1000" xmlns="http://www.w3.org/2000/svg" version="1.1">
  <rect
    x="0"
    y="0"
    width="100"
    height="100"
    fill="hsla(206,100%,53%,0.3)"
    stroke="hsl(206,100%,53%)"
    stroke-width="3"
    transform="" />
  
  <path
    d="M 
      -50
      -112.5
      L
    
      0
      -112.5
      L
    
      12.5
      -100
      L
    
      12.5
      -62.5
      L
    
      0
      -62.5
      L
    
      0
      -100
      L
    
      -50
      -100
      z
    "
    fill="hsla(0,0%,50%,0.3)"
    stroke="hsla(0,0%,50%,1)"
    stroke-width="1"
    transform="translate(18.75,87.5)"
    />
  
  
  <line
    x1="-50"
    y1="-112.5"
    x2="0"
    y2="-112.5"
    stroke="hsla(0,50%,50%,0.6)"
    stroke-width="1"
    transform="translate(18.75,87.5)"
    />
  
  <line
    x1="-50"
    y1="-100"
    x2="12.5"
    y2="-100"
    stroke="hsla(0,50%,50%,0.6)"
    stroke-width="1"
    transform="translate(18.75,87.5)"
    />
  
  <line
    x1="0"
    y1="-62.5"
    x2="12.5"
    y2="-62.5"
    stroke="hsla(0,50%,50%,0.6)"
    stroke-width="1"
    transform="translate(18.75,87.5)"
    />
  
  <line
    x1="0"
    y1="-112.5"
    x2="12.5"
    y2="-100"
    stroke="hsla(0,50%,50%,0.6)"
    stroke-width="1"
    transform="translate(18.75,87.5)"
    />
  
  <line
    x1="-50"
    y1="-112.5"
    x2="-50"
    y2="-100"
    stroke="hsla(0,50%,50%,0.6)"
    stroke-width="1"
    transform="translate(18.75,87.5)"
    />
  
  <line
    x1="0"
    y1="-112.5"
    x2="0"
    y2="-62.5"
    stroke="hsla(0,50%,50%,0.6)"
    stroke-width="1"
    transform="translate(18.75,87.5)"
    />
  
  <line
    x1="12.5"
    y1="-100"
    x2="12.5"
    y2="-62.5"
    stroke="hsla(0,50%,50%,0.6)"
    stroke-width="1"
    transform="translate(18.75,87.5)"
    />
  
</svg>
