<?xml version="1.0"?>
<!DOCTYPE svg PUBLIC "-//W3C//DTD SVG 1.1//EN"
  "http://www.w3.org/Graphics/SVG/1.1/DTD/svg11.dtd">
<svg
  width="240"
  height="240"
  viewBox="-500 -500 1000 1000" xmlns="http://www.w3.org/2000/svg" version="1.1">
  <rect
    x="0"
    y="0"
    width="100"
    height="100"
    fill="hsla(206,100%,53%,0.3)"
    stroke="hsl(206,100%,53%)"
    stroke-width="3"
    transform="" />
  
  <path
    d="M 
      -35.7761975297
      -6.0464678000
      L
    
      -19.3830096573
      10.3467200724
      L
    
      -18.3938715785
      14.9652837550
      L
    
      -27.6508617851
      21.1366105594
      L
    
      -30.6990411690
      27.6199699515
      L
    
      -34.6145563474
      25.7790736010
      L
    
      -35.3244964709
      26.2523670166
      L
    
      -38.9520211311
      23.7397958234
      L
    
      -47.8200939926
      19.5704331156
      L
    
      -44.7869477456
      13.1190486228
      L
    
      -43.4921278713
      -2.4187898676
      z
    "
    fill="hsla(0,0%,50%,0.3)"
    stroke="hsla(0,0%,50%,1)"
    stroke-width="1"
    transform="translate(33.1069827856,-10.7867510757)"
    />
  
  
  <line
    x1="-35.77619752978088"
    y1="-6.046467800051153"
    x2="-43.492127871391176"
    y2="-2.4187898676302497"
    stroke="hsla(0,50%,50%,0.6)"
    stroke-width="1"
    transform="translate(33.1069827856,-10.7867510757)"
    />
  
  <line
    x1="-35.77619752978088"
    y1="-6.046467800051153"
    x2="-47.8200939926305"
    y2="19.570433115653387"
    stroke="hsla(0,50%,50%,0.6)"
    stroke-width="1"
    transform="translate(33.1069827856,-10.7867510757)"
    />
  
  <line
    x1="-40.57952182952183"
    y1="1.7151767151767152"
    x2="-44.6509009009009"
    y2="11.486486486486486"
    stroke="hsla(0,50%,50%,0.6)"
    stroke-width="1"
    transform="translate(33.1069827856,-10.7867510757)"
    />
  
  <line
    x1="-31.71334370028314"
    y1="-1.9836139705534086"
    x2="-44.010176615906495"
    y2="3.797795066553593"
    stroke="hsla(0,50%,50%,0.6)"
    stroke-width="1"
    transform="translate(33.1069827856,-10.7867510757)"
    />
  
  <line
    x1="-31.71334370028314"
    y1="-1.9836139705534086"
    x2="-42.92836461446107"
    y2="21.870300783050812"
    stroke="hsla(0,50%,50%,0.6)"
    stroke-width="1"
    transform="translate(33.1069827856,-10.7867510757)"
    />
  
  <line
    x1="-29.681916785534266"
    y1="0.047812944195463704"
    x2="-40.48249992537635"
    y2="23.020234616749526"
    stroke="hsla(0,50%,50%,0.6)"
    stroke-width="1"
    transform="translate(33.1069827856,-10.7867510757)"
    />
  
  <line
    x1="-29.681916785534266"
    y1="0.047812944195463704"
    x2="-44.26920098816415"
    y2="6.906087533645515"
    stroke="hsla(0,50%,50%,0.6)"
    stroke-width="1"
    transform="translate(33.1069827856,-10.7867510757)"
    />
  
  <line
    x1="-29.300935550935552"
    y1="2.7546777546777546"
    x2="-36.38253638253638"
    y2="19.75051975051975"
    stroke="hsla(0,50%,50%,0.6)"
    stroke-width="1"
    transform="translate(33.1069827856,-10.7867510757)"
    />
  
  <line
    x1="-26.55007949125596"
    y1="3.179650238473768"
    x2="-33.88773388773389"
    y2="20.79002079002079"
    stroke="hsla(0,50%,50%,0.6)"
    stroke-width="1"
    transform="translate(33.1069827856,-10.7867510757)"
    />
  
  <line
    x1="-22.416534181240063"
    y1="7.3131955484896665"
    x2="-28.37837837837838"
    y2="21.62162162162162"
    stroke="hsla(0,50%,50%,0.6)"
    stroke-width="1"
    transform="translate(33.1069827856,-10.7867510757)"
    />
  
  <line
    x1="-21.556209126538775"
    y1="8.173520603190953"
    x2="-30.69904116903749"
    y2="27.619969951544377"
    stroke="hsla(0,50%,50%,0.6)"
    stroke-width="1"
    transform="translate(33.1069827856,-10.7867510757)"
    />
  
  <line
    x1="-26.55007949125596"
    y1="3.179650238473768"
    x2="-26.715176715176714"
    y2="3.2484407484407485"
    stroke="hsla(0,50%,50%,0.6)"
    stroke-width="1"
    transform="translate(33.1069827856,-10.7867510757)"
    />
  
  <line
    x1="-43.492127871391176"
    y1="-2.4187898676302497"
    x2="-45.305298477194796"
    y2="19.3392574020132"
    stroke="hsla(0,50%,50%,0.6)"
    stroke-width="1"
    transform="translate(33.1069827856,-10.7867510757)"
    />
  
  <line
    x1="-22.416534181240063"
    y1="7.3131955484896665"
    x2="-26.195426195426194"
    y2="8.887733887733887"
    stroke="hsla(0,50%,50%,0.6)"
    stroke-width="1"
    transform="translate(33.1069827856,-10.7867510757)"
    />
  
  <line
    x1="-21.556209126538775"
    y1="8.173520603190953"
    x2="-45.305298477194796"
    y2="19.3392574020132"
    stroke="hsla(0,50%,50%,0.6)"
    stroke-width="1"
    transform="translate(33.1069827856,-10.7867510757)"
    />
  
  <line
    x1="-29.72972972972973"
    y1="21.62162162162162"
    x2="-29.72972972972973"
    y2="22.52252252252252"
    stroke="hsla(0,50%,50%,0.6)"
    stroke-width="1"
    transform="translate(33.1069827856,-10.7867510757)"
    />
  
  <line
    x1="-18.393871578584953"
    y1="14.965283755092672"
    x2="-35.32449647099329"
    y2="26.252367016698226"
    stroke="hsla(0,50%,50%,0.6)"
    stroke-width="1"
    transform="translate(33.1069827856,-10.7867510757)"
    />
  
  <line
    x1="-26.738921662779532"
    y1="2.990808066950199"
    x2="-26.195426195426194"
    y2="8.887733887733887"
    stroke="hsla(0,50%,50%,0.6)"
    stroke-width="1"
    transform="translate(33.1069827856,-10.7867510757)"
    />
  
  <line
    x1="-19.38300965732387"
    y1="10.346720072405859"
    x2="-18.393871578584953"
    y2="14.965283755092672"
    stroke="hsla(0,50%,50%,0.6)"
    stroke-width="1"
    transform="translate(33.1069827856,-10.7867510757)"
    />
  
  <line
    x1="-43.64327191913399"
    y1="15.819055129399956"
    x2="-45.038998730273896"
    y2="16.143660438962453"
    stroke="hsla(0,50%,50%,0.6)"
    stroke-width="1"
    transform="translate(33.1069827856,-10.7867510757)"
    />
  
  <line
    x1="-40.57952182952183"
    y1="1.7151767151767152"
    x2="-26.738921662779532"
    y2="2.990808066950199"
    stroke="hsla(0,50%,50%,0.6)"
    stroke-width="1"
    transform="translate(33.1069827856,-10.7867510757)"
    />
  
  <line
    x1="-26.417546866424672"
    y1="3.3121828633050576"
    x2="-23.231192976415905"
    y2="18.190164686979973"
    stroke="hsla(0,50%,50%,0.6)"
    stroke-width="1"
    transform="translate(33.1069827856,-10.7867510757)"
    />
  
  <line
    x1="-29.300935550935552"
    y1="2.7546777546777546"
    x2="-25.649853675331382"
    y2="19.802605152923626"
    stroke="hsla(0,50%,50%,0.6)"
    stroke-width="1"
    transform="translate(33.1069827856,-10.7867510757)"
    />
  
  <line
    x1="-40.57952182952183"
    y1="1.7151767151767152"
    x2="-35.32449647099329"
    y2="26.252367016698226"
    stroke="hsla(0,50%,50%,0.6)"
    stroke-width="1"
    transform="translate(33.1069827856,-10.7867510757)"
    />
  
  <line
    x1="-26.715176715176714"
    y1="3.2484407484407485"
    x2="-26.417546866424672"
    y2="3.3121828633050576"
    stroke="hsla(0,50%,50%,0.6)"
    stroke-width="1"
    transform="translate(33.1069827856,-10.7867510757)"
    />
  
  <line
    x1="-44.6509009009009"
    y1="11.486486486486486"
    x2="-43.64327191913399"
    y2="15.819055129399956"
    stroke="hsla(0,50%,50%,0.6)"
    stroke-width="1"
    transform="translate(33.1069827856,-10.7867510757)"
    />
  
  <line
    x1="-26.195426195426194"
    y1="8.887733887733887"
    x2="-19.38300965732387"
    y2="10.346720072405859"
    stroke="hsla(0,50%,50%,0.6)"
    stroke-width="1"
    transform="translate(33.1069827856,-10.7867510757)"
    />
  
  <line
    x1="-35.77619752978088"
    y1="-6.046467800051153"
    x2="-19.38300965732387"
    y2="10.346720072405859"
    stroke="hsla(0,50%,50%,0.6)"
    stroke-width="1"
    transform="translate(33.1069827856,-10.7867510757)"
    />
  
  <line
    x1="-43.492127871391176"
    y1="-2.4187898676302497"
    x2="-18.393871578584953"
    y2="14.965283755092672"
    stroke="hsla(0,50%,50%,0.6)"
    stroke-width="1"
    transform="translate(33.1069827856,-10.7867510757)"
    />
  
  <line
    x1="-29.72972972972973"
    y1="21.62162162162162"
    x2="-28.37837837837838"
    y2="21.62162162162162"
    stroke="hsla(0,50%,50%,0.6)"
    stroke-width="1"
    transform="translate(33.1069827856,-10.7867510757)"
    />
  
  <line
    x1="-44.010176615906495"
    y1="3.797795066553593"
    x2="-23.231192976415905"
    y2="18.190164686979973"
    stroke="hsla(0,50%,50%,0.6)"
    stroke-width="1"
    transform="translate(33.1069827856,-10.7867510757)"
    />
  
  <line
    x1="-44.26920098816415"
    y1="6.906087533645515"
    x2="-25.649853675331382"
    y2="19.802605152923626"
    stroke="hsla(0,50%,50%,0.6)"
    stroke-width="1"
    transform="translate(33.1069827856,-10.7867510757)"
    />
  
  <line
    x1="-45.038998730273896"
    y1="16.143660438962453"
    x2="-29.72972972972973"
    y2="22.52252252252252"
    stroke="hsla(0,50%,50%,0.6)"
    stroke-width="1"
    transform="translate(33.1069827856,-10.7867510757)"
    />
  
  <line
    x1="-45.305298477194796"
    y1="19.3392574020132"
    x2="-35.32449647099329"
    y2="26.252367016698226"
    stroke="hsla(0,50%,50%,0.6)"
    stroke-width="1"
    transform="translate(33.1069827856,-10.7867510757)"
    />
  
  <line
    x1="-47.8200939926305"
    y1="19.570433115653387"
    x2="-30.69904116903749"
    y2="27.619969951544377"
    stroke="hsla(0,50%,50%,0.6)"
    stroke-width="1"
    transform="translate(33.1069827856,-10.7867510757)"
    />
  
</svg>
