<?xml version="1.0"?>
<!DOCTYPE svg PUBLIC "-//W3C//DTD SVG 1.1//EN"
  "http://www.w3.org/Graphics/SVG/1.1/DTD/svg11.dtd">
<svg
  width="240"
  height="240"
  viewBox="-50 -50 200 200" xmlns="http://www.w3.org/2000/svg" version="1.1">
  <rect
    x="0"
    y="0"
    width="100"
    height="100"
    fill="hsla(206,100%,53%,0.3)"
    stroke="hsl(206,100%,53%)"
    stroke-width="3"
    transform="" />
  
  <path
    d="M 
      -6.25
      56.25
      L
    
      0
      56.25
      L
    
      0
      100
      L
    
      50
      100
      L
    
      50
      106.25
      L
    
      0
      106.25
      L
    
      -6.25
      100
      z
    "
    fill="hsla(0,0%,50%,0.3)"
    stroke="hsla(0,0%,50%,1)"
    stroke-width="1"
    transform="translate(-6.15234375,-100.9765625) scale(1,-1) translate(50,-110)"
    />
  
  
  <line
    x1="-6.25"
    y1="56.25"
    x2="-6.25"
    y2="100"
    stroke="hsla(0,50%,50%,0.6)"
    stroke-width="1"
    transform="translate(-6.15234375,-100.9765625) scale(1,-1) translate(50,-110)"
    />
  
  <line
    x1="0"
    y1="56.25"
    x2="0"
    y2="106.25"
    stroke="hsla(0,50%,50%,0.6)"
    stroke-width="1"
    transform="translate(-6.15234375,-100.9765625) scale(1,-1) translate(50,-110)"
    />
  
  <line
    x1="50"
    y1="100"
    x2="50"
    y2="106.25"
    stroke="hsla(0,50%,50%,0.6)"
    stroke-width="1"
    transform="translate(-6.15234375,-100.9765625) scale(1,-1) translate(50,-110)"
    />
  
  <line
    x1="-6.25"
    y1="100"
    x2="0"
    y2="106.25"
    stroke="hsla(0,50%,50%,0.6)"
    stroke-width="1"
    transform="translate(-6.15234375,-100.9765625) scale(1,-1) translate(50,-110)"
    />
  
  <line
    x1="-6.25"
    y1="56.25"
    x2="0"
    y2="56.25"
    stroke="hsla(0,50%,50%,0.6)"
    stroke-width="1"
    transform="translate(-6.15234375,-100.9765625) scale(1,-1) translate(50,-110)"
    />
  
  <line
    x1="-6.25"
    y1="100"
    x2="50"
    y2="100"
    stroke="hsla(0,50%,50%,0.6)"
    stroke-width="1"
    transform="translate(-6.15234375,-100.9765625) scale(1,-1) translate(50,-110)"
    />
  
  <line
    x1="0"
    y1="106.25"
    x2="50"
    y2="106.25"
    stroke="hsla(0,50%,50%,0.6)"
    stroke-width="1"
    transform="translate(-6.15234375,-100.9765625) scale(1,-1) translate(50,-110)"
    />
  
</svg>
