<?xml version="1.0"?>
<!DOCTYPE svg PUBLIC "-//W3C//DTD SVG 1.1//EN"
  "http://www.w3.org/Graphics/SVG/1.1/DTD/svg11.dtd">
<svg
  width="240"
  height="240"
  viewBox="-500 -500 1000 1000" xmlns="http://www.w3.org/2000/svg" version="1.1">
  <rect
    x="0"
    y="0"
    width="100"
    height="100"
    fill="hsla(206,100%,53%,0.3)"
    stroke="hsl(206,100%,53%)"
    stroke-width="3"
    transform="" />
  
  <path
    d="M 
      -6.25
      256.25
      L
    
      0
      256.25
      L
    
      0
      300
      L
    
      50
      300
      L
    
      50
      306.25
      L
    
      0
      306.25
      L
    
      -6.25
      300
      z
    "
    fill="hsla(0,0%,50%,0.3)"
    stroke="hsla(0,0%,50%,1)"
    stroke-width="1"
    transform="translate(-21.875,-281.25)"
    />
  
  
  <line
    x1="-6.25"
    y1="256.25"
    x2="-6.25"
    y2="300"
    stroke="hsla(0,50%,50%,0.6)"
    stroke-width="1"
    transform="translate(-21.875,-281.25)"
    />
  
  <line
    x1="0"
    y1="256.25"
    x2="0"
    y2="306.25"
    stroke="hsla(0,50%,50%,0.6)"
    stroke-width="1"
    transform="translate(-21.875,-281.25)"
    />
  
  <line
    x1="50"
    y1="300"
    x2="50"
    y2="306.25"
    stroke="hsla(0,50%,50%,0.6)"
    stroke-width="1"
    transform="translate(-21.875,-281.25)"
    />
  
  <line
    x1="-6.25"
    y1="300"
    x2="0"
    y2="306.25"
    stroke="hsla(0,50%,50%,0.6)"
    stroke-width="1"
    transform="translate(-21.875,-281.25)"
    />
  
  <line
    x1="-6.25"
    y1="256.25"
    x2="0"
    y2="256.25"
    stroke="hsla(0,50%,50%,0.6)"
    stroke-width="1"
    transform="translate(-21.875,-281.25)"
    />
  
  <line
    x1="-6.25"
    y1="300"
    x2="50"
    y2="300"
    stroke="hsla(0,50%,50%,0.6)"
    stroke-width="1"
    transform="translate(-21.875,-281.25)"
    />
  
  <line
    x1="0"
    y1="306.25"
    x2="50"
    y2="306.25"
    stroke="hsla(0,50%,50%,0.6)"
    stroke-width="1"
    transform="translate(-21.875,-281.25)"
    />
  
</svg>
