<?xml version="1.0"?>
<!DOCTYPE svg PUBLIC "-//W3C//DTD SVG 1.1//EN"
  "http://www.w3.org/Graphics/SVG/1.1/DTD/svg11.dtd">
<svg
  width="240"
  height="240"
  viewBox="-50 -50 200 200" xmlns="http://www.w3.org/2000/svg" version="1.1">
  <rect
    x="0"
    y="0"
    width="100"
    height="100"
    fill="hsla(206,100%,53%,0.3)"
    stroke="hsl(206,100%,53%)"
    stroke-width="3"
    transform="" />
  
  <path
    d="M 
      100
      25
      L
    
      116.1030595813
      40.9688674181
      L
    
      177.7777777777
      66.6666666666
      L
    
      177.7777777777
      100
      L
    
      144.1643323996
      100
      L
    
      130.4404996712
      113.6094674556
      L
    
      116.9444444444
      100
      L
    
      88.8888888888
      100
      L
    
      88.8888888888
      29.6296296296
      z
    "
    fill="hsla(0,0%,50%,0.3)"
    stroke="hsla(0,0%,50%,1)"
    stroke-width="1"
    transform="translate(-98.9532080823,-64.8814307524) scale(1,-1) translate(50,-110)"
    />
  
  
  <line
    x1="100"
    y1="25"
    x2="117.75147928994083"
    y2="42.603550295857985"
    stroke="hsla(0,50%,50%,0.6)"
    stroke-width="1"
    transform="translate(-98.9532080823,-64.8814307524) scale(1,-1) translate(50,-110)"
    />
  
  <line
    x1="88.88888888888889"
    y1="71.70868347338936"
    x2="130.4404996712689"
    y2="113.6094674556213"
    stroke="hsla(0,50%,50%,0.6)"
    stroke-width="1"
    transform="translate(-98.9532080823,-64.8814307524) scale(1,-1) translate(50,-110)"
    />
  
  <line
    x1="88.88888888888889"
    y1="29.62962962962963"
    x2="177.77777777777777"
    y2="66.66666666666667"
    stroke="hsla(0,50%,50%,0.6)"
    stroke-width="1"
    transform="translate(-98.9532080823,-64.8814307524) scale(1,-1) translate(50,-110)"
    />
  
  <line
    x1="88.88888888888889"
    y1="29.62962962962963"
    x2="88.88888888888889"
    y2="100"
    stroke="hsla(0,50%,50%,0.6)"
    stroke-width="1"
    transform="translate(-98.9532080823,-64.8814307524) scale(1,-1) translate(50,-110)"
    />
  
  <line
    x1="100"
    y1="25"
    x2="100"
    y2="100"
    stroke="hsla(0,50%,50%,0.6)"
    stroke-width="1"
    transform="translate(-98.9532080823,-64.8814307524) scale(1,-1) translate(50,-110)"
    />
  
  <line
    x1="177.77777777777777"
    y1="66.66666666666667"
    x2="177.77777777777777"
    y2="100"
    stroke="hsla(0,50%,50%,0.6)"
    stroke-width="1"
    transform="translate(-98.9532080823,-64.8814307524) scale(1,-1) translate(50,-110)"
    />
  
  <line
    x1="100"
    y1="25"
    x2="88.88888888888889"
    y2="29.62962962962963"
    stroke="hsla(0,50%,50%,0.6)"
    stroke-width="1"
    transform="translate(-98.9532080823,-64.8814307524) scale(1,-1) translate(50,-110)"
    />
  
  <line
    x1="117.75147928994083"
    y1="42.603550295857985"
    x2="88.88888888888889"
    y2="71.70868347338936"
    stroke="hsla(0,50%,50%,0.6)"
    stroke-width="1"
    transform="translate(-98.9532080823,-64.8814307524) scale(1,-1) translate(50,-110)"
    />
  
  <line
    x1="88.88888888888889"
    y1="100"
    x2="177.77777777777777"
    y2="100"
    stroke="hsla(0,50%,50%,0.6)"
    stroke-width="1"
    transform="translate(-98.9532080823,-64.8814307524) scale(1,-1) translate(50,-110)"
    />
  
  <line
    x1="177.77777777777777"
    y1="66.66666666666667"
    x2="130.4404996712689"
    y2="113.6094674556213"
    stroke="hsla(0,50%,50%,0.6)"
    stroke-width="1"
    transform="translate(-98.9532080823,-64.8814307524) scale(1,-1) translate(50,-110)"
    />
  
</svg>
