<?xml version="1.0"?>
<!DOCTYPE svg PUBLIC "-//W3C//DTD SVG 1.1//EN"
  "http://www.w3.org/Graphics/SVG/1.1/DTD/svg11.dtd">
<svg
  width="240"
  height="240"
  viewBox="-50 -50 200 200" xmlns="http://www.w3.org/2000/svg" version="1.1">
  <rect
    x="0"
    y="0"
    width="100"
    height="100"
    fill="hsla(206,100%,53%,0.3)"
    stroke="hsl(206,100%,53%)"
    stroke-width="3"
    transform="" />
  
  <path
    d="M 
      25038687.3038413931
      31483347.0443673409
      L
    
      25038710.3665434787
      31483356.6938114965
      L
    
      25038726.7226165993
      31483349.9871825316
      L
    
      25038733.4292455642
      31483366.3432556522
      L
    
      25038756.4919476498
      31483375.9926998078
      L
    
      25038746.8425034941
      31483399.0554018934
      L
    
      25038753.5491324591
      31483415.4114750140
      L
    
      25038737.1930593385
      31483422.1181039789
      L
    
      25038727.5436151829
      31483445.1808060645
      L
    
      25038704.4809130973
      31483435.5313619089
      L
    
      25038688.1248399767
      31483442.2379908738
      L
    
      25038681.4182110118
      31483425.8819177532
      L
    
      25038658.3555089262
      31483416.2324735976
      L
    
      25038668.0049530818
      31483393.1697715120
      L
    
      25038661.2983241169
      31483376.8136983914
      L
    
      25038677.6543972375
      31483370.1070694265
      z
    "
    fill="hsla(0,0%,50%,0.3)"
    stroke="hsla(0,0%,50%,1)"
    stroke-width="1"
    transform="translate(-25038672.0932288978,-31483381.3823937722) scale(1,-1) translate(50,-110)"
    />
  
  
  <line
    x1="25038726.722616598"
    y1="31483349.987182528"
    x2="25038753.54913246"
    y2="31483415.411475014"
    stroke="hsla(0,50%,50%,0.6)"
    stroke-width="1"
    transform="translate(-25038672.0932288978,-31483381.3823937722) scale(1,-1) translate(50,-110)"
    />
  
  <line
    x1="25038721.89789452"
    y1="31483361.518533573"
    x2="25038742.017781418"
    y2="31483410.586752936"
    stroke="hsla(0,50%,50%,0.6)"
    stroke-width="1"
    transform="translate(-25038672.0932288978,-31483381.3823937722) scale(1,-1) translate(50,-110)"
    />
  
  <line
    x1="25038672.82967516"
    y1="31483381.63842047"
    x2="25038692.949562054"
    y2="31483430.70663983"
    stroke="hsla(0,50%,50%,0.6)"
    stroke-width="1"
    transform="translate(-25038672.0932288978,-31483381.3823937722) scale(1,-1) translate(50,-110)"
    />
  
  <line
    x1="25038661.298324116"
    y1="31483376.81369839"
    x2="25038688.124839976"
    y2="31483442.237990875"
    stroke="hsla(0,50%,50%,0.6)"
    stroke-width="1"
    transform="translate(-25038672.0932288978,-31483381.3823937722) scale(1,-1) translate(50,-110)"
    />
  
  <line
    x1="25038687.303841393"
    y1="31483347.04436734"
    x2="25038658.355508924"
    y2="31483416.232473597"
    stroke="hsla(0,50%,50%,0.6)"
    stroke-width="1"
    transform="translate(-25038672.0932288978,-31483381.3823937722) scale(1,-1) translate(50,-110)"
    />
  
  <line
    x1="25038726.722616598"
    y1="31483349.987182528"
    x2="25038721.89789452"
    y2="31483361.518533573"
    stroke="hsla(0,50%,50%,0.6)"
    stroke-width="1"
    transform="translate(-25038672.0932288978,-31483381.3823937722) scale(1,-1) translate(50,-110)"
    />
  
  <line
    x1="25038692.949562054"
    y1="31483430.70663983"
    x2="25038688.124839976"
    y2="31483442.237990875"
    stroke="hsla(0,50%,50%,0.6)"
    stroke-width="1"
    transform="translate(-25038672.0932288978,-31483381.3823937722) scale(1,-1) translate(50,-110)"
    />
  
  <line
    x1="25038756.49194765"
    y1="31483375.992699806"
    x2="25038727.54361518"
    y2="31483445.180806063"
    stroke="hsla(0,50%,50%,0.6)"
    stroke-width="1"
    transform="translate(-25038672.0932288978,-31483381.3823937722) scale(1,-1) translate(50,-110)"
    />
  
  <line
    x1="25038687.303841393"
    y1="31483347.04436734"
    x2="25038756.49194765"
    y2="31483375.992699806"
    stroke="hsla(0,50%,50%,0.6)"
    stroke-width="1"
    transform="translate(-25038672.0932288978,-31483381.3823937722) scale(1,-1) translate(50,-110)"
    />
  
  <line
    x1="25038661.298324116"
    y1="31483376.81369839"
    x2="25038672.82967516"
    y2="31483381.63842047"
    stroke="hsla(0,50%,50%,0.6)"
    stroke-width="1"
    transform="translate(-25038672.0932288978,-31483381.3823937722) scale(1,-1) translate(50,-110)"
    />
  
  <line
    x1="25038742.017781418"
    y1="31483410.586752936"
    x2="25038753.54913246"
    y2="31483415.411475014"
    stroke="hsla(0,50%,50%,0.6)"
    stroke-width="1"
    transform="translate(-25038672.0932288978,-31483381.3823937722) scale(1,-1) translate(50,-110)"
    />
  
  <line
    x1="25038658.355508924"
    y1="31483416.232473597"
    x2="25038727.54361518"
    y2="31483445.180806063"
    stroke="hsla(0,50%,50%,0.6)"
    stroke-width="1"
    transform="translate(-25038672.0932288978,-31483381.3823937722) scale(1,-1) translate(50,-110)"
    />
  
  <line
    x1="25038726.722616598"
    y1="31483349.987182528"
    x2="25038661.298324116"
    y2="31483376.81369839"
    stroke="hsla(0,50%,50%,0.6)"
    stroke-width="1"
    transform="translate(-25038672.0932288978,-31483381.3823937722) scale(1,-1) translate(50,-110)"
    />
  
  <line
    x1="25038721.89789452"
    y1="31483361.518533573"
    x2="25038672.82967516"
    y2="31483381.63842047"
    stroke="hsla(0,50%,50%,0.6)"
    stroke-width="1"
    transform="translate(-25038672.0932288978,-31483381.3823937722) scale(1,-1) translate(50,-110)"
    />
  
  <line
    x1="25038742.017781418"
    y1="31483410.586752936"
    x2="25038692.949562054"
    y2="31483430.70663983"
    stroke="hsla(0,50%,50%,0.6)"
    stroke-width="1"
    transform="translate(-25038672.0932288978,-31483381.3823937722) scale(1,-1) translate(50,-110)"
    />
  
  <line
    x1="25038753.54913246"
    y1="31483415.411475014"
    x2="25038688.124839976"
    y2="31483442.237990875"
    stroke="hsla(0,50%,50%,0.6)"
    stroke-width="1"
    transform="translate(-25038672.0932288978,-31483381.3823937722) scale(1,-1) translate(50,-110)"
    />
  
</svg>
