<?xml version="1.0"?>
<!DOCTYPE svg PUBLIC "-//W3C//DTD SVG 1.1//EN"
  "http://www.w3.org/Graphics/SVG/1.1/DTD/svg11.dtd">
<svg
  width="240"
  height="240"
  viewBox="-50 -50 200 200" xmlns="http://www.w3.org/2000/svg" version="1.1">
  <rect
    x="0"
    y="0"
    width="100"
    height="100"
    fill="hsla(206,100%,53%,0.3)"
    stroke="hsl(206,100%,53%)"
    stroke-width="3"
    transform="" />
  
  <path
    d="M 
      100
      0
      L
    
      180
      60
      L
    
      145
      65
      L
    
      115
      105
      L
    
      75
      75
      L
    
      40
      80
      z
    "
    fill="hsla(0,0%,50%,0.3)"
    stroke="hsla(0,0%,50%,1)"
    stroke-width="1"
    transform="translate(-70.9375,-77.8125) scale(1,-1) translate(50,-110)"
    />
  
  
  <line
    x1="100"
    y1="0"
    x2="180"
    y2="60"
    stroke="hsla(0,50%,50%,0.6)"
    stroke-width="1"
    transform="translate(-70.9375,-77.8125) scale(1,-1) translate(50,-110)"
    />
  
  <line
    x1="55"
    y1="60"
    x2="115"
    y2="105"
    stroke="hsla(0,50%,50%,0.6)"
    stroke-width="1"
    transform="translate(-70.9375,-77.8125) scale(1,-1) translate(50,-110)"
    />
  
  <line
    x1="100"
    y1="0"
    x2="40"
    y2="80"
    stroke="hsla(0,50%,50%,0.6)"
    stroke-width="1"
    transform="translate(-70.9375,-77.8125) scale(1,-1) translate(50,-110)"
    />
  
  <line
    x1="160"
    y1="45"
    x2="55"
    y2="60"
    stroke="hsla(0,50%,50%,0.6)"
    stroke-width="1"
    transform="translate(-70.9375,-77.8125) scale(1,-1) translate(50,-110)"
    />
  
  <line
    x1="180"
    y1="60"
    x2="40"
    y2="80"
    stroke="hsla(0,50%,50%,0.6)"
    stroke-width="1"
    transform="translate(-70.9375,-77.8125) scale(1,-1) translate(50,-110)"
    />
  
  <line
    x1="160"
    y1="45"
    x2="115"
    y2="105"
    stroke="hsla(0,50%,50%,0.6)"
    stroke-width="1"
    transform="translate(-70.9375,-77.8125) scale(1,-1) translate(50,-110)"
    />
  
</svg>
