<?xml version="1.0"?>
<!DOCTYPE svg PUBLIC "-//W3C//DTD SVG 1.1//EN"
  "http://www.w3.org/Graphics/SVG/1.1/DTD/svg11.dtd">
<svg
  width="240"
  height="240"
  viewBox="-50 -50 200 200" xmlns="http://www.w3.org/2000/svg" version="1.1">
  <rect
    x="0"
    y="0"
    width="100"
    height="100"
    fill="hsla(206,100%,53%,0.3)"
    stroke="hsl(206,100%,53%)"
    stroke-width="3"
    transform="" />
  
  <path
    d="M 
      -50
      6.25
      L
    
      -50
      31.25
      L
    
      -25
      31.25
      L
    
      0
      56.25
      L
    
      -25
      56.25
      L
    
      -25
      81.25
      L
    
      -37.5
      93.75
      L
    
      -50
      93.75
      L
    
      -50
      81.25
      L
    
      -75
      81.25
      L
    
      -100
      56.25
      L
    
      -75
      56.25
      L
    
      -75
      31.25
      z
    "
    fill="hsla(0,0%,50%,0.3)"
    stroke="hsla(0,0%,50%,1)"
    stroke-width="1"
    transform="translate(76.2573242187,-47.0397949218) scale(1,-1) translate(50,-110)"
    />
  
  
  <line
    x1="-50"
    y1="6.25"
    x2="-75"
    y2="31.25"
    stroke="hsla(0,50%,50%,0.6)"
    stroke-width="1"
    transform="translate(76.2573242187,-47.0397949218) scale(1,-1) translate(50,-110)"
    />
  
  <line
    x1="-75"
    y1="31.25"
    x2="-75"
    y2="81.25"
    stroke="hsla(0,50%,50%,0.6)"
    stroke-width="1"
    transform="translate(76.2573242187,-47.0397949218) scale(1,-1) translate(50,-110)"
    />
  
  <line
    x1="-50"
    y1="6.25"
    x2="-50"
    y2="93.75"
    stroke="hsla(0,50%,50%,0.6)"
    stroke-width="1"
    transform="translate(76.2573242187,-47.0397949218) scale(1,-1) translate(50,-110)"
    />
  
  <line
    x1="-25"
    y1="31.25"
    x2="-25"
    y2="81.25"
    stroke="hsla(0,50%,50%,0.6)"
    stroke-width="1"
    transform="translate(76.2573242187,-47.0397949218) scale(1,-1) translate(50,-110)"
    />
  
  <line
    x1="-25"
    y1="31.25"
    x2="-75"
    y2="81.25"
    stroke="hsla(0,50%,50%,0.6)"
    stroke-width="1"
    transform="translate(76.2573242187,-47.0397949218) scale(1,-1) translate(50,-110)"
    />
  
  <line
    x1="-25"
    y1="31.25"
    x2="0"
    y2="56.25"
    stroke="hsla(0,50%,50%,0.6)"
    stroke-width="1"
    transform="translate(76.2573242187,-47.0397949218) scale(1,-1) translate(50,-110)"
    />
  
  <line
    x1="-25"
    y1="81.25"
    x2="-37.5"
    y2="93.75"
    stroke="hsla(0,50%,50%,0.6)"
    stroke-width="1"
    transform="translate(76.2573242187,-47.0397949218) scale(1,-1) translate(50,-110)"
    />
  
  <line
    x1="-75"
    y1="31.25"
    x2="-25"
    y2="31.25"
    stroke="hsla(0,50%,50%,0.6)"
    stroke-width="1"
    transform="translate(76.2573242187,-47.0397949218) scale(1,-1) translate(50,-110)"
    />
  
  <line
    x1="-75"
    y1="31.25"
    x2="-25"
    y2="81.25"
    stroke="hsla(0,50%,50%,0.6)"
    stroke-width="1"
    transform="translate(76.2573242187,-47.0397949218) scale(1,-1) translate(50,-110)"
    />
  
  <line
    x1="-100"
    y1="56.25"
    x2="0"
    y2="56.25"
    stroke="hsla(0,50%,50%,0.6)"
    stroke-width="1"
    transform="translate(76.2573242187,-47.0397949218) scale(1,-1) translate(50,-110)"
    />
  
  <line
    x1="-50"
    y1="81.25"
    x2="-37.5"
    y2="93.75"
    stroke="hsla(0,50%,50%,0.6)"
    stroke-width="1"
    transform="translate(76.2573242187,-47.0397949218) scale(1,-1) translate(50,-110)"
    />
  
  <line
    x1="-100"
    y1="56.25"
    x2="-75"
    y2="81.25"
    stroke="hsla(0,50%,50%,0.6)"
    stroke-width="1"
    transform="translate(76.2573242187,-47.0397949218) scale(1,-1) translate(50,-110)"
    />
  
  <line
    x1="-75"
    y1="81.25"
    x2="-25"
    y2="81.25"
    stroke="hsla(0,50%,50%,0.6)"
    stroke-width="1"
    transform="translate(76.2573242187,-47.0397949218) scale(1,-1) translate(50,-110)"
    />
  
  <line
    x1="-50"
    y1="93.75"
    x2="-37.5"
    y2="93.75"
    stroke="hsla(0,50%,50%,0.6)"
    stroke-width="1"
    transform="translate(76.2573242187,-47.0397949218) scale(1,-1) translate(50,-110)"
    />
  
</svg>
