<?xml version="1.0"?>
<!DOCTYPE svg PUBLIC "-//W3C//DTD SVG 1.1//EN"
  "http://www.w3.org/Graphics/SVG/1.1/DTD/svg11.dtd">
<svg
  width="240"
  height="240"
  viewBox="-500 -500 1000 1000" xmlns="http://www.w3.org/2000/svg" version="1.1">
  <rect
    x="0"
    y="0"
    width="100"
    height="100"
    fill="hsla(206,100%,53%,0.3)"
    stroke="hsl(206,100%,53%)"
    stroke-width="3"
    transform="" />
  
  <path
    d="M 
      57.03125
      0
      L
    
      65.1909722222
      0
      L
    
      79.2534722222
      12.5
      L
    
      81.6858237547
      33.1034482758
      L
    
      74.6120422098
      33.9385474860
      L
    
      72.9533623992
      40.8656361474
      L
    
      52.7771791187
      36.0344827586
      L
    
      42.0120929118
      20.6034482758
      L
    
      42.96875
      12.5
      z
    "
    fill="hsla(0,0%,50%,0.3)"
    stroke="hsla(0,0%,50%,1)"
    stroke-width="1"
    transform="translate(-61.5797896495,-20.0700126404)"
    />
  
  <path
    d="M 
      55.5555555555
      12.5
      L
    
      54.2528735632
      23.5344827586
      L
    
      68.3683683683
      26.9144144144
      L
    
      66.6666666666
      12.5
      z
    "
    fill="hsla(0,0%,50%,0.3)"
    stroke="hsla(0,0%,50%,1)"
    stroke-width="1"
    transform="translate(-61.5797896495,-20.0700126404)"
    />
  
  
  <line
    x1="65.19097222222223"
    y1="0"
    x2="79.25347222222223"
    y2="12.5"
    stroke="hsla(0,50%,50%,0.6)"
    stroke-width="1"
    transform="translate(-61.5797896495,-20.0700126404)"
    />
  
  <line
    x1="42.012092911877396"
    y1="20.603448275862068"
    x2="52.777179118773944"
    y2="36.03448275862069"
    stroke="hsla(0,50%,50%,0.6)"
    stroke-width="1"
    transform="translate(-61.5797896495,-20.0700126404)"
    />
  
  <line
    x1="79.25347222222223"
    y1="12.5"
    x2="81.68582375478927"
    y2="33.10344827586207"
    stroke="hsla(0,50%,50%,0.6)"
    stroke-width="1"
    transform="translate(-61.5797896495,-20.0700126404)"
    />
  
  <line
    x1="65.19097222222223"
    y1="0"
    x2="69.272030651341"
    y2="34.56896551724138"
    stroke="hsla(0,50%,50%,0.6)"
    stroke-width="1"
    transform="translate(-61.5797896495,-20.0700126404)"
    />
  
  <line
    x1="57.03125"
    y1="0"
    x2="65.19097222222223"
    y2="0"
    stroke="hsla(0,50%,50%,0.6)"
    stroke-width="1"
    transform="translate(-61.5797896495,-20.0700126404)"
    />
  
  <line
    x1="42.96875"
    y1="12.5"
    x2="42.012092911877396"
    y2="20.603448275862068"
    stroke="hsla(0,50%,50%,0.6)"
    stroke-width="1"
    transform="translate(-61.5797896495,-20.0700126404)"
    />
  
  <line
    x1="57.03125"
    y1="0"
    x2="52.777179118773944"
    y2="36.03448275862069"
    stroke="hsla(0,50%,50%,0.6)"
    stroke-width="1"
    transform="translate(-61.5797896495,-20.0700126404)"
    />
  
  <line
    x1="42.012092911877396"
    y1="20.603448275862068"
    x2="75.86418285110318"
    y2="28.709274673008323"
    stroke="hsla(0,50%,50%,0.6)"
    stroke-width="1"
    transform="translate(-61.5797896495,-20.0700126404)"
    />
  
  <line
    x1="42.96875"
    y1="12.5"
    x2="79.25347222222223"
    y2="12.5"
    stroke="hsla(0,50%,50%,0.6)"
    stroke-width="1"
    transform="translate(-61.5797896495,-20.0700126404)"
    />
  
  <line
    x1="75.86418285110318"
    y1="28.709274673008323"
    x2="72.95336239926014"
    y2="40.86563614744352"
    stroke="hsla(0,50%,50%,0.6)"
    stroke-width="1"
    transform="translate(-61.5797896495,-20.0700126404)"
    />
  
  <line
    x1="52.777179118773944"
    y1="36.03448275862069"
    x2="72.95336239926014"
    y2="40.86563614744352"
    stroke="hsla(0,50%,50%,0.6)"
    stroke-width="1"
    transform="translate(-61.5797896495,-20.0700126404)"
    />
  
  <line
    x1="57.03125"
    y1="0"
    x2="42.96875"
    y2="12.5"
    stroke="hsla(0,50%,50%,0.6)"
    stroke-width="1"
    transform="translate(-61.5797896495,-20.0700126404)"
    />
  
  <line
    x1="81.68582375478927"
    y1="33.10344827586207"
    x2="69.272030651341"
    y2="34.56896551724138"
    stroke="hsla(0,50%,50%,0.6)"
    stroke-width="1"
    transform="translate(-61.5797896495,-20.0700126404)"
    />
  
</svg>
