<?xml version="1.0"?>
<!DOCTYPE svg PUBLIC "-//W3C//DTD SVG 1.1//EN"
  "http://www.w3.org/Graphics/SVG/1.1/DTD/svg11.dtd">
<svg
  width="240"
  height="240"
  viewBox="-50 -50 200 200" xmlns="http://www.w3.org/2000/svg" version="1.1">
  <rect
    x="0"
    y="0"
    width="100"
    height="100"
    fill="hsla(206,100%,53%,0.3)"
    stroke="hsl(206,100%,53%)"
    stroke-width="3"
    transform="" />
  
  <path
    d="M 
      -6.25
      0
      L
    
      -6.25
      12.5
      L
    
      -25
      31.25
      L
    
      -18.75
      37.5
      L
    
      -31.25
      50
      L
    
      -31.25
      75
      L
    
      -43.75
      62.5
      L
    
      -43.75
      12.5
      L
    
      -18.75
      12.5
      z
    "
    fill="hsla(0,0%,50%,0.3)"
    stroke="hsla(0,0%,50%,1)"
    stroke-width="1"
    transform="translate(29.248046875,-24.31640625) scale(1,-1) translate(50,-110)"
    />
  
  
  <line
    x1="-31.25"
    y1="12.5"
    x2="-43.75"
    y2="25"
    stroke="hsla(0,50%,50%,0.6)"
    stroke-width="1"
    transform="translate(29.248046875,-24.31640625) scale(1,-1) translate(50,-110)"
    />
  
  <line
    x1="-6.25"
    y1="0"
    x2="-43.75"
    y2="37.5"
    stroke="hsla(0,50%,50%,0.6)"
    stroke-width="1"
    transform="translate(29.248046875,-24.31640625) scale(1,-1) translate(50,-110)"
    />
  
  <line
    x1="-43.75"
    y1="12.5"
    x2="-43.75"
    y2="62.5"
    stroke="hsla(0,50%,50%,0.6)"
    stroke-width="1"
    transform="translate(29.248046875,-24.31640625) scale(1,-1) translate(50,-110)"
    />
  
  <line
    x1="-31.25"
    y1="12.5"
    x2="-31.25"
    y2="75"
    stroke="hsla(0,50%,50%,0.6)"
    stroke-width="1"
    transform="translate(29.248046875,-24.31640625) scale(1,-1) translate(50,-110)"
    />
  
  <line
    x1="-6.25"
    y1="0"
    x2="-6.25"
    y2="12.5"
    stroke="hsla(0,50%,50%,0.6)"
    stroke-width="1"
    transform="translate(29.248046875,-24.31640625) scale(1,-1) translate(50,-110)"
    />
  
  <line
    x1="-6.25"
    y1="12.5"
    x2="-43.75"
    y2="50"
    stroke="hsla(0,50%,50%,0.6)"
    stroke-width="1"
    transform="translate(29.248046875,-24.31640625) scale(1,-1) translate(50,-110)"
    />
  
  <line
    x1="-18.75"
    y1="37.5"
    x2="-43.75"
    y2="62.5"
    stroke="hsla(0,50%,50%,0.6)"
    stroke-width="1"
    transform="translate(29.248046875,-24.31640625) scale(1,-1) translate(50,-110)"
    />
  
  <line
    x1="-43.75"
    y1="12.5"
    x2="-6.25"
    y2="12.5"
    stroke="hsla(0,50%,50%,0.6)"
    stroke-width="1"
    transform="translate(29.248046875,-24.31640625) scale(1,-1) translate(50,-110)"
    />
  
  <line
    x1="-43.75"
    y1="12.5"
    x2="-18.75"
    y2="37.5"
    stroke="hsla(0,50%,50%,0.6)"
    stroke-width="1"
    transform="translate(29.248046875,-24.31640625) scale(1,-1) translate(50,-110)"
    />
  
  <line
    x1="-43.75"
    y1="25"
    x2="-25"
    y2="43.75"
    stroke="hsla(0,50%,50%,0.6)"
    stroke-width="1"
    transform="translate(29.248046875,-24.31640625) scale(1,-1) translate(50,-110)"
    />
  
  <line
    x1="-43.75"
    y1="37.5"
    x2="-31.25"
    y2="50"
    stroke="hsla(0,50%,50%,0.6)"
    stroke-width="1"
    transform="translate(29.248046875,-24.31640625) scale(1,-1) translate(50,-110)"
    />
  
  <line
    x1="-43.75"
    y1="50"
    x2="-37.5"
    y2="56.25"
    stroke="hsla(0,50%,50%,0.6)"
    stroke-width="1"
    transform="translate(29.248046875,-24.31640625) scale(1,-1) translate(50,-110)"
    />
  
  <line
    x1="-43.75"
    y1="62.5"
    x2="-31.25"
    y2="75"
    stroke="hsla(0,50%,50%,0.6)"
    stroke-width="1"
    transform="translate(29.248046875,-24.31640625) scale(1,-1) translate(50,-110)"
    />
  
</svg>
