<?xml version="1.0"?>
<!DOCTYPE svg PUBLIC "-//W3C//DTD SVG 1.1//EN"
  "http://www.w3.org/Graphics/SVG/1.1/DTD/svg11.dtd">
<svg
  width="240"
  height="240"
  viewBox="-50 -50 200 200" xmlns="http://www.w3.org/2000/svg" version="1.1">
  <rect
    x="0"
    y="0"
    width="100"
    height="100"
    fill="hsla(206,100%,53%,0.3)"
    stroke="hsl(206,100%,53%)"
    stroke-width="3"
    transform="" />
  
  <path
    d="M 
      100.1
      0
      L
    
      100.1001996002
      0
      L
    
      200.1
      100
      L
    
      100.1
      100
      z
    "
    fill="hsla(0,0%,50%,0.3)"
    stroke="hsla(0,0%,50%,1)"
    stroke-width="1"
    transform="translate(-125.1000249500,-75) scale(1,-1) translate(50,-110)"
    />
  
  
  <line
    x1="100.1001996002008"
    y1="0"
    x2="200.1"
    y2="100"
    stroke="hsla(0,50%,50%,0.6)"
    stroke-width="1"
    transform="translate(-125.1000249500,-75) scale(1,-1) translate(50,-110)"
    />
  
  <line
    x1="100.1"
    y1="0"
    x2="100.1001996002008"
    y2="0"
    stroke="hsla(0,50%,50%,0.6)"
    stroke-width="1"
    transform="translate(-125.1000249500,-75) scale(1,-1) translate(50,-110)"
    />
  
  <line
    x1="100.1"
    y1="0"
    x2="100.1"
    y2="100"
    stroke="hsla(0,50%,50%,0.6)"
    stroke-width="1"
    transform="translate(-125.1000249500,-75) scale(1,-1) translate(50,-110)"
    />
  
  <line
    x1="100.1001996002008"
    y1="0"
    x2="100.1000000001992"
    y2="99.9998003996"
    stroke="hsla(0,50%,50%,0.6)"
    stroke-width="1"
    transform="translate(-125.1000249500,-75) scale(1,-1) translate(50,-110)"
    />
  
  <line
    x1="100.1000000001992"
    y1="99.9998003996"
    x2="200.1"
    y2="100"
    stroke="hsla(0,50%,50%,0.6)"
    stroke-width="1"
    transform="translate(-125.1000249500,-75) scale(1,-1) translate(50,-110)"
    />
  
  <line
    x1="100.1"
    y1="100"
    x2="200.1"
    y2="100"
    stroke="hsla(0,50%,50%,0.6)"
    stroke-width="1"
    transform="translate(-125.1000249500,-75) scale(1,-1) translate(50,-110)"
    />
  
</svg>
