<?xml version="1.0"?>
<!DOCTYPE svg PUBLIC "-//W3C//DTD SVG 1.1//EN"
  "http://www.w3.org/Graphics/SVG/1.1/DTD/svg11.dtd">
<svg
  width="240"
  height="240"
  viewBox="-50 -50 200 200" xmlns="http://www.w3.org/2000/svg" version="1.1">
  <rect
    x="0"
    y="0"
    width="100"
    height="100"
    fill="hsla(206,100%,53%,0.3)"
    stroke="hsl(206,100%,53%)"
    stroke-width="3"
    transform="" />
  
  <path
    d="M 
      0
      0
      L
    
      46.875
      0
      L
    
      53.125
      6.25
      L
    
      53.125
      53.125
      L
    
      46.875
      53.125
      L
    
      46.875
      6.25
      L
    
      0
      6.25
      z
    "
    fill="hsla(0,0%,50%,0.3)"
    stroke="hsla(0,0%,50%,1)"
    stroke-width="1"
    transform="translate(-23.291015625,-14.84375) scale(1,-1) translate(50,-110)"
    />
  
  
  <line
    x1="46.875"
    y1="0"
    x2="53.125"
    y2="6.25"
    stroke="hsla(0,50%,50%,0.6)"
    stroke-width="1"
    transform="translate(-23.291015625,-14.84375) scale(1,-1) translate(50,-110)"
    />
  
  <line
    x1="0"
    y1="0"
    x2="46.875"
    y2="0"
    stroke="hsla(0,50%,50%,0.6)"
    stroke-width="1"
    transform="translate(-23.291015625,-14.84375) scale(1,-1) translate(50,-110)"
    />
  
  <line
    x1="0"
    y1="0"
    x2="0"
    y2="6.25"
    stroke="hsla(0,50%,50%,0.6)"
    stroke-width="1"
    transform="translate(-23.291015625,-14.84375) scale(1,-1) translate(50,-110)"
    />
  
  <line
    x1="46.875"
    y1="0"
    x2="46.875"
    y2="53.125"
    stroke="hsla(0,50%,50%,0.6)"
    stroke-width="1"
    transform="translate(-23.291015625,-14.84375) scale(1,-1) translate(50,-110)"
    />
  
  <line
    x1="53.125"
    y1="6.25"
    x2="53.125"
    y2="53.125"
    stroke="hsla(0,50%,50%,0.6)"
    stroke-width="1"
    transform="translate(-23.291015625,-14.84375) scale(1,-1) translate(50,-110)"
    />
  
  <line
    x1="0"
    y1="6.25"
    x2="53.125"
    y2="6.25"
    stroke="hsla(0,50%,50%,0.6)"
    stroke-width="1"
    transform="translate(-23.291015625,-14.84375) scale(1,-1) translate(50,-110)"
    />
  
  <line
    x1="46.875"
    y1="53.125"
    x2="53.125"
    y2="53.125"
    stroke="hsla(0,50%,50%,0.6)"
    stroke-width="1"
    transform="translate(-23.291015625,-14.84375) scale(1,-1) translate(50,-110)"
    />
  
</svg>
