<?xml version="1.0"?>
<!DOCTYPE svg PUBLIC "-//W3C//DTD SVG 1.1//EN"
  "http://www.w3.org/Graphics/SVG/1.1/DTD/svg11.dtd">
<svg
  width="240"
  height="240"
  viewBox="-500 -500 1000 1000" xmlns="http://www.w3.org/2000/svg" version="1.1">
  <rect
    x="0"
    y="0"
    width="100"
    height="100"
    fill="hsla(206,100%,53%,0.3)"
    stroke="hsl(206,100%,53%)"
    stroke-width="3"
    transform="" />
  
  <path
    d="M 
      20
      -15
      L
    
      42.5
      15
      L
    
      52.5
      7.5
      L
    
      60
      17.5
      L
    
      30
      40
      L
    
      22.5
      30
      L
    
      32.5
      22.5
      L
    
      10
      -7.5
      z
    "
    fill="hsla(0,0%,50%,0.3)"
    stroke="hsla(0,0%,50%,1)"
    stroke-width="1"
    transform="translate(-35,-12.5)"
    />
  
  
  <line
    x1="52.5"
    y1="7.5"
    x2="60"
    y2="17.5"
    stroke="hsla(0,50%,50%,0.6)"
    stroke-width="1"
    transform="translate(-35,-12.5)"
    />
  
  <line
    x1="20"
    y1="-15"
    x2="42.5"
    y2="15"
    stroke="hsla(0,50%,50%,0.6)"
    stroke-width="1"
    transform="translate(-35,-12.5)"
    />
  
  <line
    x1="10"
    y1="-7.5"
    x2="40"
    y2="32.5"
    stroke="hsla(0,50%,50%,0.6)"
    stroke-width="1"
    transform="translate(-35,-12.5)"
    />
  
  <line
    x1="22.5"
    y1="30"
    x2="30"
    y2="40"
    stroke="hsla(0,50%,50%,0.6)"
    stroke-width="1"
    transform="translate(-35,-12.5)"
    />
  
  <line
    x1="20"
    y1="-15"
    x2="10"
    y2="-7.5"
    stroke="hsla(0,50%,50%,0.6)"
    stroke-width="1"
    transform="translate(-35,-12.5)"
    />
  
  <line
    x1="42.5"
    y1="15"
    x2="40"
    y2="32.5"
    stroke="hsla(0,50%,50%,0.6)"
    stroke-width="1"
    transform="translate(-35,-12.5)"
    />
  
  <line
    x1="52.5"
    y1="7.5"
    x2="22.5"
    y2="30"
    stroke="hsla(0,50%,50%,0.6)"
    stroke-width="1"
    transform="translate(-35,-12.5)"
    />
  
  <line
    x1="60"
    y1="17.5"
    x2="30"
    y2="40"
    stroke="hsla(0,50%,50%,0.6)"
    stroke-width="1"
    transform="translate(-35,-12.5)"
    />
  
</svg>
