<?xml version="1.0"?>
<!DOCTYPE svg PUBLIC "-//W3C//DTD SVG 1.1//EN"
  "http://www.w3.org/Graphics/SVG/1.1/DTD/svg11.dtd">
<svg
  width="240"
  height="240"
  viewBox="-50 -50 200 200" xmlns="http://www.w3.org/2000/svg" version="1.1">
  <rect
    x="0"
    y="0"
    width="100"
    height="100"
    fill="hsla(206,100%,53%,0.3)"
    stroke="hsl(206,100%,53%)"
    stroke-width="3"
    transform="" />
  
  <path
    d="M 
      500
      100
      L
    
      500
      200
      L
    
      450
      150
      L
    
      450
      125
      L
    
      475
      125
      z
    "
    fill="hsla(0,0%,50%,0.3)"
    stroke="hsla(0,0%,50%,1)"
    stroke-width="1"
    transform="translate(-468.75,-131.25) scale(1,-1) translate(50,-110)"
    />
  
  
  <line
    x1="450"
    y1="150"
    x2="500"
    y2="200"
    stroke="hsla(0,50%,50%,0.6)"
    stroke-width="1"
    transform="translate(-468.75,-131.25) scale(1,-1) translate(50,-110)"
    />
  
  <line
    x1="450"
    y1="125"
    x2="450"
    y2="150"
    stroke="hsla(0,50%,50%,0.6)"
    stroke-width="1"
    transform="translate(-468.75,-131.25) scale(1,-1) translate(50,-110)"
    />
  
  <line
    x1="500"
    y1="100"
    x2="500"
    y2="200"
    stroke="hsla(0,50%,50%,0.6)"
    stroke-width="1"
    transform="translate(-468.75,-131.25) scale(1,-1) translate(50,-110)"
    />
  
  <line
    x1="450"
    y1="125"
    x2="500"
    y2="125"
    stroke="hsla(0,50%,50%,0.6)"
    stroke-width="1"
    transform="translate(-468.75,-131.25) scale(1,-1) translate(50,-110)"
    />
  
  <line
    x1="450"
    y1="150"
    x2="500"
    y2="150"
    stroke="hsla(0,50%,50%,0.6)"
    stroke-width="1"
    transform="translate(-468.75,-131.25) scale(1,-1) translate(50,-110)"
    />
  
  <line
    x1="500"
    y1="100"
    x2="450"
    y2="150"
    stroke="hsla(0,50%,50%,0.6)"
    stroke-width="1"
    transform="translate(-468.75,-131.25) scale(1,-1) translate(50,-110)"
    />
  
</svg>
