<?xml version="1.0"?>
<!DOCTYPE svg PUBLIC "-//W3C//DTD SVG 1.1//EN"
  "http://www.w3.org/Graphics/SVG/1.1/DTD/svg11.dtd">
<svg
  width="240"
  height="240"
  viewBox="-50 -50 200 200" xmlns="http://www.w3.org/2000/svg" version="1.1">
  <rect
    x="0"
    y="0"
    width="100"
    height="100"
    fill="hsla(206,100%,53%,0.3)"
    stroke="hsl(206,100%,53%)"
    stroke-width="3"
    transform="" />
  
  <path
    d="M 
      5.8823529411
      111.0294117647
      L
    
      11.7647058823
      122.0588235294
      L
    
      -21.3235294117
      139.7058823529
      L
    
      -15.4411764705
      150.7352941176
      L
    
      -26.4705882352
      156.6176470588
      L
    
      -44.1176470588
      123.5294117647
      L
    
      -33.0882352941
      117.6470588235
      L
    
      -27.2058823529
      128.6764705882
      z
    "
    fill="hsla(0,0%,50%,0.3)"
    stroke="hsla(0,0%,50%,1)"
    stroke-width="1"
    transform="translate(29.7219669117,-127.6941636029) scale(1,-1) translate(50,-110)"
    />
  
  
  <line
    x1="5.882352941176471"
    y1="111.02941176470588"
    x2="11.764705882352942"
    y2="122.05882352941177"
    stroke="hsla(0,50%,50%,0.6)"
    stroke-width="1"
    transform="translate(29.7219669117,-127.6941636029) scale(1,-1) translate(50,-110)"
    />
  
  <line
    x1="-33.088235294117645"
    y1="117.6470588235294"
    x2="-15.441176470588236"
    y2="150.73529411764707"
    stroke="hsla(0,50%,50%,0.6)"
    stroke-width="1"
    transform="translate(29.7219669117,-127.6941636029) scale(1,-1) translate(50,-110)"
    />
  
  <line
    x1="-44.11764705882353"
    y1="123.52941176470588"
    x2="-26.470588235294116"
    y2="156.61764705882354"
    stroke="hsla(0,50%,50%,0.6)"
    stroke-width="1"
    transform="translate(29.7219669117,-127.6941636029) scale(1,-1) translate(50,-110)"
    />
  
  <line
    x1="-33.088235294117645"
    y1="117.6470588235294"
    x2="-44.11764705882353"
    y2="123.52941176470588"
    stroke="hsla(0,50%,50%,0.6)"
    stroke-width="1"
    transform="translate(29.7219669117,-127.6941636029) scale(1,-1) translate(50,-110)"
    />
  
  <line
    x1="5.882352941176471"
    y1="111.02941176470588"
    x2="-38.23529411764706"
    y2="134.55882352941177"
    stroke="hsla(0,50%,50%,0.6)"
    stroke-width="1"
    transform="translate(29.7219669117,-127.6941636029) scale(1,-1) translate(50,-110)"
    />
  
  <line
    x1="11.764705882352942"
    y1="122.05882352941177"
    x2="-21.323529411764707"
    y2="139.7058823529412"
    stroke="hsla(0,50%,50%,0.6)"
    stroke-width="1"
    transform="translate(29.7219669117,-127.6941636029) scale(1,-1) translate(50,-110)"
    />
  
  <line
    x1="-15.441176470588236"
    y1="150.73529411764707"
    x2="-26.470588235294116"
    y2="156.61764705882354"
    stroke="hsla(0,50%,50%,0.6)"
    stroke-width="1"
    transform="translate(29.7219669117,-127.6941636029) scale(1,-1) translate(50,-110)"
    />
  
  <line
    x1="-38.23529411764706"
    y1="134.55882352941177"
    x2="-21.323529411764707"
    y2="139.7058823529412"
    stroke="hsla(0,50%,50%,0.6)"
    stroke-width="1"
    transform="translate(29.7219669117,-127.6941636029) scale(1,-1) translate(50,-110)"
    />
  
</svg>
