<?xml version="1.0"?>
<!DOCTYPE svg PUBLIC "-//W3C//DTD SVG 1.1//EN"
  "http://www.w3.org/Graphics/SVG/1.1/DTD/svg11.dtd">
<svg
  width="240"
  height="240"
  viewBox="-50 -50 200 200" xmlns="http://www.w3.org/2000/svg" version="1.1">
  <rect
    x="0"
    y="0"
    width="100"
    height="100"
    fill="hsla(206,100%,53%,0.3)"
    stroke="hsl(206,100%,53%)"
    stroke-width="3"
    transform="" />
  
  <path
    d="M 
      0
      11.1111111111
      L
    
      100
      44.4444444444
      L
    
      100
      100
      L
    
      0
      66.6666666666
      L
    
      0
      25
      L
    
      -6.6666666666
      20
      z
    "
    fill="hsla(0,0%,50%,0.3)"
    stroke="hsla(0,0%,50%,1)"
    stroke-width="1"
    transform="translate(-6.0416666666,-32.5694444444) scale(1,-1) translate(50,-110)"
    />
  
  
  <line
    x1="0"
    y1="11.11111111111111"
    x2="0"
    y2="66.66666666666667"
    stroke="hsla(0,50%,50%,0.6)"
    stroke-width="1"
    transform="translate(-6.0416666666,-32.5694444444) scale(1,-1) translate(50,-110)"
    />
  
  <line
    x1="100"
    y1="44.44444444444444"
    x2="100"
    y2="100"
    stroke="hsla(0,50%,50%,0.6)"
    stroke-width="1"
    transform="translate(-6.0416666666,-32.5694444444) scale(1,-1) translate(50,-110)"
    />
  
  <line
    x1="0"
    y1="11.11111111111111"
    x2="-6.666666666666667"
    y2="20"
    stroke="hsla(0,50%,50%,0.6)"
    stroke-width="1"
    transform="translate(-6.0416666666,-32.5694444444) scale(1,-1) translate(50,-110)"
    />
  
  <line
    x1="0"
    y1="11.11111111111111"
    x2="100"
    y2="44.44444444444444"
    stroke="hsla(0,50%,50%,0.6)"
    stroke-width="1"
    transform="translate(-6.0416666666,-32.5694444444) scale(1,-1) translate(50,-110)"
    />
  
  <line
    x1="-6.666666666666667"
    y1="20"
    x2="100"
    y2="100"
    stroke="hsla(0,50%,50%,0.6)"
    stroke-width="1"
    transform="translate(-6.0416666666,-32.5694444444) scale(1,-1) translate(50,-110)"
    />
  
  <line
    x1="20"
    y1="40"
    x2="0"
    y2="66.66666666666667"
    stroke="hsla(0,50%,50%,0.6)"
    stroke-width="1"
    transform="translate(-6.0416666666,-32.5694444444) scale(1,-1) translate(50,-110)"
    />
  
  <line
    x1="0"
    y1="66.66666666666667"
    x2="100"
    y2="100"
    stroke="hsla(0,50%,50%,0.6)"
    stroke-width="1"
    transform="translate(-6.0416666666,-32.5694444444) scale(1,-1) translate(50,-110)"
    />
  
  <line
    x1="100"
    y1="44.44444444444444"
    x2="73.33333333333333"
    y2="80"
    stroke="hsla(0,50%,50%,0.6)"
    stroke-width="1"
    transform="translate(-6.0416666666,-32.5694444444) scale(1,-1) translate(50,-110)"
    />
  
</svg>
