<?xml version="1.0"?>
<!DOCTYPE svg PUBLIC "-//W3C//DTD SVG 1.1//EN"
  "http://www.w3.org/Graphics/SVG/1.1/DTD/svg11.dtd">
<svg
  width="240"
  height="240"
  viewBox="-50 -50 200 200" xmlns="http://www.w3.org/2000/svg" version="1.1">
  <rect
    x="0"
    y="0"
    width="100"
    height="100"
    fill="hsla(206,100%,53%,0.3)"
    stroke="hsl(206,100%,53%)"
    stroke-width="3"
    transform="" />
  
  <path
    d="M 
      75
      75
      L
    
      125
      75
      L
    
      137.5
      87.5
      L
    
      125
      100
      L
    
      125
      125
      L
    
      75
      125
      L
    
      62.5
      112.5
      L
    
      75
      100
      z
    "
    fill="hsla(0,0%,50%,0.3)"
    stroke="hsla(0,0%,50%,1)"
    stroke-width="1"
    transform="translate(-77.9296875,-107.2265625) scale(1,-1) translate(50,-110)"
    />
  
  
  <line
    x1="125"
    y1="75"
    x2="137.5"
    y2="87.5"
    stroke="hsla(0,50%,50%,0.6)"
    stroke-width="1"
    transform="translate(-77.9296875,-107.2265625) scale(1,-1) translate(50,-110)"
    />
  
  <line
    x1="75"
    y1="75"
    x2="75"
    y2="125"
    stroke="hsla(0,50%,50%,0.6)"
    stroke-width="1"
    transform="translate(-77.9296875,-107.2265625) scale(1,-1) translate(50,-110)"
    />
  
  <line
    x1="100"
    y1="75"
    x2="100"
    y2="125"
    stroke="hsla(0,50%,50%,0.6)"
    stroke-width="1"
    transform="translate(-77.9296875,-107.2265625) scale(1,-1) translate(50,-110)"
    />
  
  <line
    x1="125"
    y1="75"
    x2="125"
    y2="125"
    stroke="hsla(0,50%,50%,0.6)"
    stroke-width="1"
    transform="translate(-77.9296875,-107.2265625) scale(1,-1) translate(50,-110)"
    />
  
  <line
    x1="62.5"
    y1="112.5"
    x2="75"
    y2="125"
    stroke="hsla(0,50%,50%,0.6)"
    stroke-width="1"
    transform="translate(-77.9296875,-107.2265625) scale(1,-1) translate(50,-110)"
    />
  
  <line
    x1="75"
    y1="75"
    x2="125"
    y2="75"
    stroke="hsla(0,50%,50%,0.6)"
    stroke-width="1"
    transform="translate(-77.9296875,-107.2265625) scale(1,-1) translate(50,-110)"
    />
  
  <line
    x1="75"
    y1="100"
    x2="62.5"
    y2="112.5"
    stroke="hsla(0,50%,50%,0.6)"
    stroke-width="1"
    transform="translate(-77.9296875,-107.2265625) scale(1,-1) translate(50,-110)"
    />
  
  <line
    x1="75"
    y1="100"
    x2="125"
    y2="100"
    stroke="hsla(0,50%,50%,0.6)"
    stroke-width="1"
    transform="translate(-77.9296875,-107.2265625) scale(1,-1) translate(50,-110)"
    />
  
  <line
    x1="125"
    y1="75"
    x2="75"
    y2="125"
    stroke="hsla(0,50%,50%,0.6)"
    stroke-width="1"
    transform="translate(-77.9296875,-107.2265625) scale(1,-1) translate(50,-110)"
    />
  
  <line
    x1="137.5"
    y1="87.5"
    x2="125"
    y2="100"
    stroke="hsla(0,50%,50%,0.6)"
    stroke-width="1"
    transform="translate(-77.9296875,-107.2265625) scale(1,-1) translate(50,-110)"
    />
  
  <line
    x1="75"
    y1="125"
    x2="125"
    y2="125"
    stroke="hsla(0,50%,50%,0.6)"
    stroke-width="1"
    transform="translate(-77.9296875,-107.2265625) scale(1,-1) translate(50,-110)"
    />
  
</svg>
