<?xml version="1.0"?>
<!DOCTYPE svg PUBLIC "-//W3C//DTD SVG 1.1//EN"
  "http://www.w3.org/Graphics/SVG/1.1/DTD/svg11.dtd">
<svg
  width="240"
  height="240"
  viewBox="-500 -500 1000 1000" xmlns="http://www.w3.org/2000/svg" version="1.1">
  <rect
    x="0"
    y="0"
    width="100"
    height="100"
    fill="hsla(206,100%,53%,0.3)"
    stroke="hsl(206,100%,53%)"
    stroke-width="3"
    transform="" />
  
  <path
    d="M 
      15.3846153846
      -0.7692307692
      L
    
      24.3589743589
      5.9615384615
      L
    
      32.3076923076
      0
      L
    
      40
      3.8461538461
      L
    
      40
      19.2307692307
      L
    
      32.3076923076
      23.0769230769
      L
    
      23.3333333333
      16.3461538461
      L
    
      15.3846153846
      22.3076923076
      L
    
      7.6923076923
      18.4615384615
      L
    
      7.6923076923
      3.0769230769
      z
    "
    fill="hsla(0,0%,50%,0.3)"
    stroke="hsla(0,0%,50%,1)"
    stroke-width="1"
    transform="translate(-25.6410256410,-11.25)"
    />
  
  <path
    d="M 
      15.3846153846
      8.8461538461
      L
    
      15.3846153846
      12.6923076923
      L
    
      17.9487179487
      10.7692307692
      z
    "
    fill="hsla(0,0%,50%,0.3)"
    stroke="hsla(0,0%,50%,1)"
    stroke-width="1"
    transform="translate(-25.6410256410,-11.25)"
    />
  
  <path
    d="M 
      32.3076923076
      9.6153846153
      L
    
      29.7435897435
      11.5384615384
      L
    
      32.3076923076
      13.4615384615
      z
    "
    fill="hsla(0,0%,50%,0.3)"
    stroke="hsla(0,0%,50%,1)"
    stroke-width="1"
    transform="translate(-25.6410256410,-11.25)"
    />
  
  
  <line
    x1="32.30769230769231"
    y1="0"
    x2="40"
    y2="3.8461538461538463"
    stroke="hsla(0,50%,50%,0.6)"
    stroke-width="1"
    transform="translate(-25.6410256410,-11.25)"
    />
  
  <line
    x1="15.384615384615385"
    y1="-0.7692307692307693"
    x2="24.615384615384617"
    y2="6.153846153846154"
    stroke="hsla(0,50%,50%,0.6)"
    stroke-width="1"
    transform="translate(-25.6410256410,-11.25)"
    />
  
  <line
    x1="24.615384615384617"
    y1="7.6923076923076925"
    x2="40"
    y2="19.23076923076923"
    stroke="hsla(0,50%,50%,0.6)"
    stroke-width="1"
    transform="translate(-25.6410256410,-11.25)"
    />
  
  <line
    x1="7.6923076923076925"
    y1="3.076923076923077"
    x2="20"
    y2="12.307692307692308"
    stroke="hsla(0,50%,50%,0.6)"
    stroke-width="1"
    transform="translate(-25.6410256410,-11.25)"
    />
  
  <line
    x1="20"
    y1="13.846153846153847"
    x2="32.30769230769231"
    y2="23.076923076923077"
    stroke="hsla(0,50%,50%,0.6)"
    stroke-width="1"
    transform="translate(-25.6410256410,-11.25)"
    />
  
  <line
    x1="7.6923076923076925"
    y1="3.076923076923077"
    x2="7.6923076923076925"
    y2="18.46153846153846"
    stroke="hsla(0,50%,50%,0.6)"
    stroke-width="1"
    transform="translate(-25.6410256410,-11.25)"
    />
  
  <line
    x1="15.384615384615385"
    y1="-0.7692307692307693"
    x2="15.384615384615385"
    y2="22.307692307692307"
    stroke="hsla(0,50%,50%,0.6)"
    stroke-width="1"
    transform="translate(-25.6410256410,-11.25)"
    />
  
  <line
    x1="32.30769230769231"
    y1="0"
    x2="32.30769230769231"
    y2="23.076923076923077"
    stroke="hsla(0,50%,50%,0.6)"
    stroke-width="1"
    transform="translate(-25.6410256410,-11.25)"
    />
  
  <line
    x1="40"
    y1="3.8461538461538463"
    x2="40"
    y2="19.23076923076923"
    stroke="hsla(0,50%,50%,0.6)"
    stroke-width="1"
    transform="translate(-25.6410256410,-11.25)"
    />
  
  <line
    x1="15.384615384615385"
    y1="-0.7692307692307693"
    x2="7.6923076923076925"
    y2="3.076923076923077"
    stroke="hsla(0,50%,50%,0.6)"
    stroke-width="1"
    transform="translate(-25.6410256410,-11.25)"
    />
  
  <line
    x1="7.6923076923076925"
    y1="18.46153846153846"
    x2="15.384615384615385"
    y2="22.307692307692307"
    stroke="hsla(0,50%,50%,0.6)"
    stroke-width="1"
    transform="translate(-25.6410256410,-11.25)"
    />
  
  <line
    x1="24.615384615384617"
    y1="6.153846153846154"
    x2="20"
    y2="12.307692307692308"
    stroke="hsla(0,50%,50%,0.6)"
    stroke-width="1"
    transform="translate(-25.6410256410,-11.25)"
    />
  
  <line
    x1="24.615384615384617"
    y1="7.6923076923076925"
    x2="20"
    y2="13.846153846153847"
    stroke="hsla(0,50%,50%,0.6)"
    stroke-width="1"
    transform="translate(-25.6410256410,-11.25)"
    />
  
  <line
    x1="32.30769230769231"
    y1="0"
    x2="7.6923076923076925"
    y2="18.46153846153846"
    stroke="hsla(0,50%,50%,0.6)"
    stroke-width="1"
    transform="translate(-25.6410256410,-11.25)"
    />
  
  <line
    x1="40"
    y1="3.8461538461538463"
    x2="15.384615384615385"
    y2="22.307692307692307"
    stroke="hsla(0,50%,50%,0.6)"
    stroke-width="1"
    transform="translate(-25.6410256410,-11.25)"
    />
  
  <line
    x1="40"
    y1="19.23076923076923"
    x2="32.30769230769231"
    y2="23.076923076923077"
    stroke="hsla(0,50%,50%,0.6)"
    stroke-width="1"
    transform="translate(-25.6410256410,-11.25)"
    />
  
</svg>
