<?xml version="1.0"?>
<!DOCTYPE svg PUBLIC "-//W3C//DTD SVG 1.1//EN"
  "http://www.w3.org/Graphics/SVG/1.1/DTD/svg11.dtd">
<svg
  width="240"
  height="240"
  viewBox="-500 -500 1000 1000" xmlns="http://www.w3.org/2000/svg" version="1.1">
  <rect
    x="0"
    y="0"
    width="100"
    height="100"
    fill="hsla(206,100%,53%,0.3)"
    stroke="hsl(206,100%,53%)"
    stroke-width="3"
    transform="" />
  
  <path
    d="M 
      -6.6196986709
      6.6196986709
      L
    
      10.4713597602
      17.8691865503
      L
    
      17.9683439133
      64.1326385263
      L
    
      10.8573034949
      65.2849813597
      L
    
      10.7570143643
      95.4720096548
      L
    
      2.9224243106
      96.6882363482
      L
    
      2.5265721211
      94.1382679551
      L
    
      -80.1289490604
      80.7439554687
      L
    
      -80.0100139715
      80.0100139715
      z
    "
    fill="hsla(0,0%,50%,0.3)"
    stroke="hsla(0,0%,50%,1)"
    stroke-width="1"
    transform="translate(31.0803025735,-51.6539675096)"
    />
  
  
  <line
    x1="-80.0100139715964"
    y1="80.0100139715964"
    x2="-80.12894906048744"
    y2="80.74395546870768"
    stroke="hsla(0,50%,50%,0.6)"
    stroke-width="1"
    transform="translate(31.0803025735,-51.6539675096)"
    />
  
  <line
    x1="-21.42132390271065"
    y1="24.33386598250238"
    x2="-24.008227827269213"
    y2="30.454123424611865"
    stroke="hsla(0,50%,50%,0.6)"
    stroke-width="1"
    transform="translate(31.0803025735,-51.6539675096)"
    />
  
  <line
    x1="-26.042739703933666"
    y1="26.606141195252995"
    x2="-26.649798088973"
    y2="27.351197939966006"
    stroke="hsla(0,50%,50%,0.6)"
    stroke-width="1"
    transform="translate(31.0803025735,-51.6539675096)"
    />
  
  <line
    x1="-26.65903331664204"
    y1="26.65903331664204"
    x2="-26.70542263812703"
    y2="27.199556967012995"
    stroke="hsla(0,50%,50%,0.6)"
    stroke-width="1"
    transform="translate(31.0803025735,-51.6539675096)"
    />
  
  <line
    x1="10.471359760231154"
    y1="17.869186550378668"
    x2="17.96834391337016"
    y2="64.1326385263976"
    stroke="hsla(0,50%,50%,0.6)"
    stroke-width="1"
    transform="translate(31.0803025735,-51.6539675096)"
    />
  
  <line
    x1="-6.619698670952496"
    y1="6.619698670952496"
    x2="-80.0100139715964"
    y2="80.0100139715964"
    stroke="hsla(0,50%,50%,0.6)"
    stroke-width="1"
    transform="translate(31.0803025735,-51.6539675096)"
    />
  
  <line
    x1="10.96345514950166"
    y1="33.333333333333336"
    x2="10.757014364380472"
    y2="95.47200965481123"
    stroke="hsla(0,50%,50%,0.6)"
    stroke-width="1"
    transform="translate(31.0803025735,-51.6539675096)"
    />
  
  <line
    x1="-3.5408413875104205"
    y1="55.05369779920715"
    x2="2.922424310687309"
    y2="96.68823634827625"
    stroke="hsla(0,50%,50%,0.6)"
    stroke-width="1"
    transform="translate(31.0803025735,-51.6539675096)"
    />
  
  <line
    x1="-6.619698670952496"
    y1="6.619698670952496"
    x2="10.96345514950166"
    y2="33.333333333333336"
    stroke="hsla(0,50%,50%,0.6)"
    stroke-width="1"
    transform="translate(31.0803025735,-51.6539675096)"
    />
  
  <line
    x1="-6.619698670952496"
    y1="6.619698670952496"
    x2="10.471359760231154"
    y2="17.869186550378668"
    stroke="hsla(0,50%,50%,0.6)"
    stroke-width="1"
    transform="translate(31.0803025735,-51.6539675096)"
    />
  
  <line
    x1="-21.42132390271065"
    y1="24.33386598250238"
    x2="-26.649798088973"
    y2="27.351197939966006"
    stroke="hsla(0,50%,50%,0.6)"
    stroke-width="1"
    transform="translate(31.0803025735,-51.6539675096)"
    />
  
  <line
    x1="-5.768648717616195"
    y1="38.163609377999265"
    x2="0.4282307961677471"
    y2="48.90164716434644"
    stroke="hsla(0,50%,50%,0.6)"
    stroke-width="1"
    transform="translate(31.0803025735,-51.6539675096)"
    />
  
  <line
    x1="10.96345514950166"
    y1="33.333333333333336"
    x2="-3.5408413875104205"
    y2="55.05369779920715"
    stroke="hsla(0,50%,50%,0.6)"
    stroke-width="1"
    transform="translate(31.0803025735,-51.6539675096)"
    />
  
  <line
    x1="-26.042739703933666"
    y1="26.606141195252995"
    x2="-24.008227827269213"
    y2="30.454123424611865"
    stroke="hsla(0,50%,50%,0.6)"
    stroke-width="1"
    transform="translate(31.0803025735,-51.6539675096)"
    />
  
  <line
    x1="10.471359760231154"
    y1="17.869186550378668"
    x2="-26.70542263812703"
    y2="27.199556967012995"
    stroke="hsla(0,50%,50%,0.6)"
    stroke-width="1"
    transform="translate(31.0803025735,-51.6539675096)"
    />
  
  <line
    x1="-26.042739703933666"
    y1="26.606141195252995"
    x2="-26.65903331664204"
    y2="26.65903331664204"
    stroke="hsla(0,50%,50%,0.6)"
    stroke-width="1"
    transform="translate(31.0803025735,-51.6539675096)"
    />
  
  <line
    x1="-21.42132390271065"
    y1="24.33386598250238"
    x2="-5.768648717616195"
    y2="38.163609377999265"
    stroke="hsla(0,50%,50%,0.6)"
    stroke-width="1"
    transform="translate(31.0803025735,-51.6539675096)"
    />
  
  <line
    x1="-26.972332401775642"
    y1="26.972332401775642"
    x2="-24.008227827269213"
    y2="30.454123424611865"
    stroke="hsla(0,50%,50%,0.6)"
    stroke-width="1"
    transform="translate(31.0803025735,-51.6539675096)"
    />
  
  <line
    x1="-26.972332401775642"
    y1="26.972332401775642"
    x2="-26.70542263812703"
    y2="27.199556967012995"
    stroke="hsla(0,50%,50%,0.6)"
    stroke-width="1"
    transform="translate(31.0803025735,-51.6539675096)"
    />
  
  <line
    x1="-24.008227827269213"
    y1="30.454123424611865"
    x2="0.4282307961677471"
    y2="48.90164716434644"
    stroke="hsla(0,50%,50%,0.6)"
    stroke-width="1"
    transform="translate(31.0803025735,-51.6539675096)"
    />
  
  <line
    x1="-24.008227827269213"
    y1="30.454123424611865"
    x2="-5.768648717616195"
    y2="38.163609377999265"
    stroke="hsla(0,50%,50%,0.6)"
    stroke-width="1"
    transform="translate(31.0803025735,-51.6539675096)"
    />
  
  <line
    x1="0.4282307961677471"
    y1="48.90164716434644"
    x2="10.902999340776384"
    y2="51.53053175964226"
    stroke="hsla(0,50%,50%,0.6)"
    stroke-width="1"
    transform="translate(31.0803025735,-51.6539675096)"
    />
  
  <line
    x1="10.902999340776384"
    y1="51.53053175964226"
    x2="-3.5408413875104205"
    y2="55.05369779920715"
    stroke="hsla(0,50%,50%,0.6)"
    stroke-width="1"
    transform="translate(31.0803025735,-51.6539675096)"
    />
  
  <line
    x1="17.96834391337016"
    y1="64.1326385263976"
    x2="-80.0100139715964"
    y2="80.0100139715964"
    stroke="hsla(0,50%,50%,0.6)"
    stroke-width="1"
    transform="translate(31.0803025735,-51.6539675096)"
    />
  
  <line
    x1="-80.12894906048744"
    y1="80.74395546870768"
    x2="10.757014364380472"
    y2="95.47200965481123"
    stroke="hsla(0,50%,50%,0.6)"
    stroke-width="1"
    transform="translate(31.0803025735,-51.6539675096)"
    />
  
  <line
    x1="10.757014364380472"
    y1="95.47200965481123"
    x2="2.922424310687309"
    y2="96.68823634827625"
    stroke="hsla(0,50%,50%,0.6)"
    stroke-width="1"
    transform="translate(31.0803025735,-51.6539675096)"
    />
  
</svg>
