<?xml version="1.0"?>
<!DOCTYPE svg PUBLIC "-//W3C//DTD SVG 1.1//EN"
  "http://www.w3.org/Graphics/SVG/1.1/DTD/svg11.dtd">
<svg
  width="240"
  height="240"
  viewBox="-50 -50 200 200" xmlns="http://www.w3.org/2000/svg" version="1.1">
  <rect
    x="0"
    y="0"
    width="100"
    height="100"
    fill="hsla(206,100%,53%,0.3)"
    stroke="hsl(206,100%,53%)"
    stroke-width="3"
    transform="" />
  
  <path
    d="M 
      148
      14
      L
    
      141
      38
      L
    
      165
      45
      L
    
      182
      76
      L
    
      134
      62
      L
    
      120
      110
      L
    
      103
      79
      L
    
      110
      55
      L
    
      86
      48
      z
    "
    fill="hsla(0,0%,50%,0.3)"
    stroke="hsla(0,0%,50%,1)"
    stroke-width="1"
    transform="translate(-100.32421875,-58.1796875) scale(1,-1) translate(50,-110)"
    />
  
  
  <line
    x1="165"
    y1="45"
    x2="182"
    y2="76"
    stroke="hsla(0,50%,50%,0.6)"
    stroke-width="1"
    transform="translate(-100.32421875,-58.1796875) scale(1,-1) translate(50,-110)"
    />
  
  <line
    x1="117"
    y1="31"
    x2="134"
    y2="62"
    stroke="hsla(0,50%,50%,0.6)"
    stroke-width="1"
    transform="translate(-100.32421875,-58.1796875) scale(1,-1) translate(50,-110)"
    />
  
  <line
    x1="103"
    y1="79"
    x2="120"
    y2="110"
    stroke="hsla(0,50%,50%,0.6)"
    stroke-width="1"
    transform="translate(-100.32421875,-58.1796875) scale(1,-1) translate(50,-110)"
    />
  
  <line
    x1="117"
    y1="31"
    x2="165"
    y2="45"
    stroke="hsla(0,50%,50%,0.6)"
    stroke-width="1"
    transform="translate(-100.32421875,-58.1796875) scale(1,-1) translate(50,-110)"
    />
  
  <line
    x1="86"
    y1="48"
    x2="182"
    y2="76"
    stroke="hsla(0,50%,50%,0.6)"
    stroke-width="1"
    transform="translate(-100.32421875,-58.1796875) scale(1,-1) translate(50,-110)"
    />
  
  <line
    x1="117"
    y1="31"
    x2="103"
    y2="79"
    stroke="hsla(0,50%,50%,0.6)"
    stroke-width="1"
    transform="translate(-100.32421875,-58.1796875) scale(1,-1) translate(50,-110)"
    />
  
  <line
    x1="148"
    y1="14"
    x2="120"
    y2="110"
    stroke="hsla(0,50%,50%,0.6)"
    stroke-width="1"
    transform="translate(-100.32421875,-58.1796875) scale(1,-1) translate(50,-110)"
    />
  
  <line
    x1="148"
    y1="14"
    x2="86"
    y2="48"
    stroke="hsla(0,50%,50%,0.6)"
    stroke-width="1"
    transform="translate(-100.32421875,-58.1796875) scale(1,-1) translate(50,-110)"
    />
  
  <line
    x1="165"
    y1="45"
    x2="103"
    y2="79"
    stroke="hsla(0,50%,50%,0.6)"
    stroke-width="1"
    transform="translate(-100.32421875,-58.1796875) scale(1,-1) translate(50,-110)"
    />
  
</svg>
