<?xml version="1.0"?>
<!DOCTYPE svg PUBLIC "-//W3C//DTD SVG 1.1//EN"
  "http://www.w3.org/Graphics/SVG/1.1/DTD/svg11.dtd">
<svg
  width="240"
  height="240"
  viewBox="-500 -500 1000 1000" xmlns="http://www.w3.org/2000/svg" version="1.1">
  <rect
    x="0"
    y="0"
    width="100"
    height="100"
    fill="hsla(206,100%,53%,0.3)"
    stroke="hsl(206,100%,53%)"
    stroke-width="3"
    transform="" />
  
  <path
    d="M 
      -42.6910491904
      -41.0502428807
      L
    
      -80.0761903512
      18.9693474243
      L
    
      -123.1199437980
      54.6377548630
      L
    
      -145.9960574628
      44.5539349719
      L
    
      -132.5509642748
      14.0524500855
      L
    
      -140.0957806563
      -18.4157937363
      z
    "
    fill="hsla(0,0%,50%,0.3)"
    stroke="hsla(0,0%,50%,1)"
    stroke-width="1"
    transform="translate(94.3435533266,-6.7937559911)"
    />
  
  
  <line
    x1="-42.69104919047421"
    y1="-41.05024288070459"
    x2="-140.0957806563176"
    y2="-18.415793736381833"
    stroke="hsla(0,50%,50%,0.6)"
    stroke-width="1"
    transform="translate(94.3435533266,-6.7937559911)"
    />
  
  <line
    x1="-132.5509642748767"
    y1="14.052450085565974"
    x2="-145.99605746289265"
    y2="44.55393497198877"
    stroke="hsla(0,50%,50%,0.6)"
    stroke-width="1"
    transform="translate(94.3435533266,-6.7937559911)"
    />
  
  <line
    x1="-42.69104919047421"
    y1="-41.05024288070459"
    x2="-80.07619035123453"
    y2="18.9693474243785"
    stroke="hsla(0,50%,50%,0.6)"
    stroke-width="1"
    transform="translate(94.3435533266,-6.7937559911)"
    />
  
  <line
    x1="-80.07619035123453"
    y1="18.9693474243785"
    x2="-123.11994379807557"
    y2="54.63775486300074"
    stroke="hsla(0,50%,50%,0.6)"
    stroke-width="1"
    transform="translate(94.3435533266,-6.7937559911)"
    />
  
  <line
    x1="-80.07619035123453"
    y1="18.9693474243785"
    x2="-128.77855608415624"
    y2="30.286571996539877"
    stroke="hsla(0,50%,50%,0.6)"
    stroke-width="1"
    transform="translate(94.3435533266,-6.7937559911)"
    />
  
  <line
    x1="-132.5509642748767"
    y1="14.052450085565974"
    x2="-80.07619035123453"
    y2="18.9693474243785"
    stroke="hsla(0,50%,50%,0.6)"
    stroke-width="1"
    transform="translate(94.3435533266,-6.7937559911)"
    />
  
  <line
    x1="-140.0957806563176"
    y1="-18.415793736381833"
    x2="-123.11994379807557"
    y2="54.63775486300074"
    stroke="hsla(0,50%,50%,0.6)"
    stroke-width="1"
    transform="translate(94.3435533266,-6.7937559911)"
    />
  
  <line
    x1="-145.99605746289265"
    y1="44.55393497198877"
    x2="-123.11994379807557"
    y2="54.63775486300074"
    stroke="hsla(0,50%,50%,0.6)"
    stroke-width="1"
    transform="translate(94.3435533266,-6.7937559911)"
    />
  
</svg>
