<?xml version="1.0"?>
<!DOCTYPE svg PUBLIC "-//W3C//DTD SVG 1.1//EN"
  "http://www.w3.org/Graphics/SVG/1.1/DTD/svg11.dtd">
<svg
  width="240"
  height="240"
  viewBox="-50 -50 200 200" xmlns="http://www.w3.org/2000/svg" version="1.1">
  <rect
    x="0"
    y="0"
    width="100"
    height="100"
    fill="hsla(206,100%,53%,0.3)"
    stroke="hsl(206,100%,53%)"
    stroke-width="3"
    transform="" />
  
  <path
    d="M 
      -78.7290367419
      -23.8661101052
      L
    
      -66.7405782072
      24.6753861835
      L
    
      -79.0228678169
      79.2111117397
      L
    
      -103.2936159614
      85.2053410071
      L
    
      -106.2907305951
      73.0699669349
      L
    
      -118.7798818018
      72.5492922430
      L
    
      -117.7385324180
      47.5709898295
      L
    
      -113.1023547625
      45.4895713162
      L
    
      -127.2705330307
      -11.8776515706
      z
    "
    fill="hsla(0,0%,50%,0.3)"
    stroke="hsla(0,0%,50%,1)"
    stroke-width="1"
    transform="translate(120.1730692896,-20.1510395027) scale(1,-1) translate(50,-110)"
    />
  
  
  <line
    x1="-78.72903674192959"
    y1="-23.86611010528848"
    x2="-127.2705330307977"
    y2="-11.877651570605908"
    stroke="hsla(0,50%,50%,0.6)"
    stroke-width="1"
    transform="translate(120.1730692896,-20.1510395027) scale(1,-1) translate(50,-110)"
    />
  
  <line
    x1="-66.74057820724701"
    y1="24.675386183579633"
    x2="-106.2907305951032"
    y2="73.0699669349133"
    stroke="hsla(0,50%,50%,0.6)"
    stroke-width="1"
    transform="translate(120.1730692896,-20.1510395027) scale(1,-1) translate(50,-110)"
    />
  
  <line
    x1="-66.74057820724701"
    y1="24.675386183579633"
    x2="-79.0228678169985"
    y2="79.21111173978903"
    stroke="hsla(0,50%,50%,0.6)"
    stroke-width="1"
    transform="translate(120.1730692896,-20.1510395027) scale(1,-1) translate(50,-110)"
    />
  
  <line
    x1="-117.73853241806542"
    y1="47.570989829504086"
    x2="-118.77988180185932"
    y2="72.54929224301634"
    stroke="hsla(0,50%,50%,0.6)"
    stroke-width="1"
    transform="translate(120.1730692896,-20.1510395027) scale(1,-1) translate(50,-110)"
    />
  
  <line
    x1="-66.74057820724701"
    y1="24.675386183579633"
    x2="-117.73853241806542"
    y2="47.570989829504086"
    stroke="hsla(0,50%,50%,0.6)"
    stroke-width="1"
    transform="translate(120.1730692896,-20.1510395027) scale(1,-1) translate(50,-110)"
    />
  
  <line
    x1="-78.72903674192959"
    y1="-23.86611010528848"
    x2="-66.74057820724701"
    y2="24.675386183579633"
    stroke="hsla(0,50%,50%,0.6)"
    stroke-width="1"
    transform="translate(120.1730692896,-20.1510395027) scale(1,-1) translate(50,-110)"
    />
  
  <line
    x1="-127.2705330307977"
    y1="-11.877651570605908"
    x2="-103.29361596143255"
    y2="85.20534100713031"
    stroke="hsla(0,50%,50%,0.6)"
    stroke-width="1"
    transform="translate(120.1730692896,-20.1510395027) scale(1,-1) translate(50,-110)"
    />
  
  <line
    x1="-79.0228678169985"
    y1="79.21111173978903"
    x2="-103.29361596143255"
    y2="85.20534100713031"
    stroke="hsla(0,50%,50%,0.6)"
    stroke-width="1"
    transform="translate(120.1730692896,-20.1510395027) scale(1,-1) translate(50,-110)"
    />
  
  <line
    x1="-118.77988180185932"
    y1="72.54929224301634"
    x2="-106.2907305951032"
    y2="73.0699669349133"
    stroke="hsla(0,50%,50%,0.6)"
    stroke-width="1"
    transform="translate(120.1730692896,-20.1510395027) scale(1,-1) translate(50,-110)"
    />
  
  <line
    x1="-117.73853241806542"
    y1="47.570989829504086"
    x2="-79.0228678169985"
    y2="79.21111173978903"
    stroke="hsla(0,50%,50%,0.6)"
    stroke-width="1"
    transform="translate(120.1730692896,-20.1510395027) scale(1,-1) translate(50,-110)"
    />
  
</svg>
