<?xml version="1.0"?>
<!DOCTYPE svg PUBLIC "-//W3C//DTD SVG 1.1//EN"
  "http://www.w3.org/Graphics/SVG/1.1/DTD/svg11.dtd">
<svg
  width="240"
  height="240"
  viewBox="-50 -50 200 200" xmlns="http://www.w3.org/2000/svg" version="1.1">
  <rect
    x="0"
    y="0"
    width="100"
    height="100"
    fill="hsla(206,100%,53%,0.3)"
    stroke="hsl(206,100%,53%)"
    stroke-width="3"
    transform="" />
  
  <path
    d="M 
      -31.8284656534
      -26.0136975865
      L
    
      -29.1107748032
      7.2086633703
      L
    
      -56.8977540598
      76.3710761344
      L
    
      -123.3424759737
      81.8064578348
      L
    
      -126.0601668239
      48.5840968779
      L
    
      -98.2731875673
      -20.5783158861
      z
    "
    fill="hsla(0,0%,50%,0.3)"
    stroke="hsla(0,0%,50%,1)"
    stroke-width="1"
    transform="translate(101.5299058793,-16.2682084448) scale(1,-1) translate(50,-110)"
    />
  
  
  <line
    x1="-98.27318756733287"
    y1="-20.578315886187283"
    x2="-126.06016682391041"
    y2="48.58409687790075"
    stroke="hsla(0,50%,50%,0.6)"
    stroke-width="1"
    transform="translate(101.5299058793,-16.2682084448) scale(1,-1) translate(50,-110)"
    />
  
  <line
    x1="-76.16561831301316"
    y1="4.368958369261328"
    x2="-126.06016682391041"
    y2="48.58409687790075"
    stroke="hsla(0,50%,50%,0.6)"
    stroke-width="1"
    transform="translate(101.5299058793,-16.2682084448) scale(1,-1) translate(50,-110)"
    />
  
  <line
    x1="-31.828465653431444"
    y1="-26.013697586560482"
    x2="-98.27318756733287"
    y2="-20.578315886187283"
    stroke="hsla(0,50%,50%,0.6)"
    stroke-width="1"
    transform="translate(101.5299058793,-16.2682084448) scale(1,-1) translate(50,-110)"
    />
  
  <line
    x1="-29.110774803244848"
    y1="7.208663370390234"
    x2="-79.00532331414207"
    y2="51.423801879029654"
    stroke="hsla(0,50%,50%,0.6)"
    stroke-width="1"
    transform="translate(101.5299058793,-16.2682084448) scale(1,-1) translate(50,-110)"
    />
  
  <line
    x1="-29.110774803244848"
    y1="7.208663370390234"
    x2="-56.89775405982237"
    y2="76.37107613447826"
    stroke="hsla(0,50%,50%,0.6)"
    stroke-width="1"
    transform="translate(101.5299058793,-16.2682084448) scale(1,-1) translate(50,-110)"
    />
  
  <line
    x1="-31.828465653431444"
    y1="-26.013697586560482"
    x2="-29.110774803244848"
    y2="7.208663370390234"
    stroke="hsla(0,50%,50%,0.6)"
    stroke-width="1"
    transform="translate(101.5299058793,-16.2682084448) scale(1,-1) translate(50,-110)"
    />
  
  <line
    x1="-126.06016682391041"
    y1="48.58409687790075"
    x2="-123.3424759737238"
    y2="81.80645783485146"
    stroke="hsla(0,50%,50%,0.6)"
    stroke-width="1"
    transform="translate(101.5299058793,-16.2682084448) scale(1,-1) translate(50,-110)"
    />
  
  <line
    x1="-98.27318756733287"
    y1="-20.578315886187283"
    x2="-76.16561831301316"
    y2="4.368958369261328"
    stroke="hsla(0,50%,50%,0.6)"
    stroke-width="1"
    transform="translate(101.5299058793,-16.2682084448) scale(1,-1) translate(50,-110)"
    />
  
  <line
    x1="-79.00532331414207"
    y1="51.423801879029654"
    x2="-56.89775405982237"
    y2="76.37107613447826"
    stroke="hsla(0,50%,50%,0.6)"
    stroke-width="1"
    transform="translate(101.5299058793,-16.2682084448) scale(1,-1) translate(50,-110)"
    />
  
  <line
    x1="-56.89775405982237"
    y1="76.37107613447826"
    x2="-123.3424759737238"
    y2="81.80645783485146"
    stroke="hsla(0,50%,50%,0.6)"
    stroke-width="1"
    transform="translate(101.5299058793,-16.2682084448) scale(1,-1) translate(50,-110)"
    />
  
</svg>
