<?xml version="1.0"?>
<!DOCTYPE svg PUBLIC "-//W3C//DTD SVG 1.1//EN"
  "http://www.w3.org/Graphics/SVG/1.1/DTD/svg11.dtd">
<svg
  width="240"
  height="240"
  viewBox="-500 -500 1000 1000" xmlns="http://www.w3.org/2000/svg" version="1.1">
  <rect
    x="0"
    y="0"
    width="100"
    height="100"
    fill="hsla(206,100%,53%,0.3)"
    stroke="hsl(206,100%,53%)"
    stroke-width="3"
    transform="" />
  
  <path
    d="M 
      -28.5046351700
      -7.1086257310
      L
    
      61.3552799143
      47.9940672352
      L
    
      48.7805859452
      102.1078069384
      L
    
      -41.0793291391
      47.0051139721
      L
    
      -31.6483086623
      6.4198091947
      L
    
      -37.0102349694
      0.0406093451
      z
    "
    fill="hsla(0,0%,50%,0.3)"
    stroke="hsla(0,0%,50%,1)"
    stroke-width="1"
    transform="translate(-10.1379753876,-47.4995906037)"
    />
  
  
  <line
    x1="-28.50463517004882"
    y1="-7.1086257310499885"
    x2="-37.0102349694893"
    y2="0.04060934518124392"
    stroke="hsla(0,50%,50%,0.6)"
    stroke-width="1"
    transform="translate(-10.1379753876,-47.4995906037)"
    />
  
  <line
    x1="-28.50463517004882"
    y1="-7.1086257310499885"
    x2="-41.079329139117014"
    y2="47.005113972196355"
    stroke="hsla(0,50%,50%,0.6)"
    stroke-width="1"
    transform="translate(-10.1379753876,-47.4995906037)"
    />
  
  <line
    x1="-15.562529740795602"
    y1="25.55740874350266"
    x2="-41.079329139117014"
    y2="47.005113972196355"
    stroke="hsla(0,50%,50%,0.6)"
    stroke-width="1"
    transform="translate(-10.1379753876,-47.4995906037)"
    />
  
  <line
    x1="-28.50463517004882"
    y1="-7.1086257310499885"
    x2="61.35527991435367"
    y2="47.99406723522057"
    stroke="hsla(0,50%,50%,0.6)"
    stroke-width="1"
    transform="translate(-10.1379753876,-47.4995906037)"
    />
  
  <line
    x1="61.35527991435367"
    y1="47.99406723522057"
    x2="48.78058594528547"
    y2="102.10780693846691"
    stroke="hsla(0,50%,50%,0.6)"
    stroke-width="1"
    transform="translate(-10.1379753876,-47.4995906037)"
    />
  
  <line
    x1="-37.0102349694893"
    y1="0.04060934518124392"
    x2="48.78058594528547"
    y2="102.10780693846691"
    stroke="hsla(0,50%,50%,0.6)"
    stroke-width="1"
    transform="translate(-10.1379753876,-47.4995906037)"
    />
  
  <line
    x1="-41.079329139117014"
    y1="47.005113972196355"
    x2="48.78058594528547"
    y2="102.10780693846691"
    stroke="hsla(0,50%,50%,0.6)"
    stroke-width="1"
    transform="translate(-10.1379753876,-47.4995906037)"
    />
  
  <line
    x1="61.35527991435367"
    y1="47.99406723522057"
    x2="27.332880716591784"
    y2="76.5910075401455"
    stroke="hsla(0,50%,50%,0.6)"
    stroke-width="1"
    transform="translate(-10.1379753876,-47.4995906037)"
    />
  
</svg>
