<?xml version="1.0"?>
<!DOCTYPE svg PUBLIC "-//W3C//DTD SVG 1.1//EN"
  "http://www.w3.org/Graphics/SVG/1.1/DTD/svg11.dtd">
<svg
  width="240"
  height="240"
  viewBox="-50 -50 200 200" xmlns="http://www.w3.org/2000/svg" version="1.1">
  <rect
    x="0"
    y="0"
    width="100"
    height="100"
    fill="hsla(206,100%,53%,0.3)"
    stroke="hsl(206,100%,53%)"
    stroke-width="3"
    transform="" />
  
  <path
    d="M 
      119.8241492387
      76.1813337476
      L
    
      128.9119066120
      175.8119629225
      L
    
      38.2208347315
      186.8120553172
      L
    
      28.2218359420
      104.3745733931
      L
    
      50.5783709981
      84.5802857370
      L
    
      114.1860035215
      76.8651951524
      L
    
      114.1653468414
      76.5282176218
      z
    "
    fill="hsla(0,0%,50%,0.3)"
    stroke="hsla(0,0%,50%,1)"
    stroke-width="1"
    transform="translate(-98.7962373802,-84.3516261423) scale(1,-1) translate(50,-110)"
    />
  
  
  <line
    x1="119.82414923876102"
    y1="76.18133374761646"
    x2="128.9119066120154"
    y2="175.81196292252065"
    stroke="hsla(0,50%,50%,0.6)"
    stroke-width="1"
    transform="translate(-98.7962373802,-84.3516261423) scale(1,-1) translate(50,-110)"
    />
  
  <line
    x1="114.1653468414011"
    y1="76.52821762186815"
    x2="120.28384935513664"
    y2="176.3408617456935"
    stroke="hsla(0,50%,50%,0.6)"
    stroke-width="1"
    transform="translate(-98.7962373802,-84.3516261423) scale(1,-1) translate(50,-110)"
    />
  
  <line
    x1="28.22183594206492"
    y1="104.37457339314712"
    x2="38.22083473158741"
    y2="186.8120553172386"
    stroke="hsla(0,50%,50%,0.6)"
    stroke-width="1"
    transform="translate(-98.7962373802,-84.3516261423) scale(1,-1) translate(50,-110)"
    />
  
  <line
    x1="50.578370998126076"
    y1="84.5802857370186"
    x2="44.685493433372685"
    y2="108.44065891282696"
    stroke="hsla(0,50%,50%,0.6)"
    stroke-width="1"
    transform="translate(-98.7962373802,-84.3516261423) scale(1,-1) translate(50,-110)"
    />
  
  <line
    x1="50.578370998126076"
    y1="84.5802857370186"
    x2="28.22183594206492"
    y2="104.37457339314712"
    stroke="hsla(0,50%,50%,0.6)"
    stroke-width="1"
    transform="translate(-98.7962373802,-84.3516261423) scale(1,-1) translate(50,-110)"
    />
  
  <line
    x1="119.82414923876102"
    y1="76.18133374761646"
    x2="114.1653468414011"
    y2="76.52821762186815"
    stroke="hsla(0,50%,50%,0.6)"
    stroke-width="1"
    transform="translate(-98.7962373802,-84.3516261423) scale(1,-1) translate(50,-110)"
    />
  
  <line
    x1="119.82414923876102"
    y1="76.18133374761646"
    x2="50.578370998126076"
    y2="84.5802857370186"
    stroke="hsla(0,50%,50%,0.6)"
    stroke-width="1"
    transform="translate(-98.7962373802,-84.3516261423) scale(1,-1) translate(50,-110)"
    />
  
  <line
    x1="28.22183594206492"
    y1="104.37457339314712"
    x2="44.685493433372685"
    y2="108.44065891282696"
    stroke="hsla(0,50%,50%,0.6)"
    stroke-width="1"
    transform="translate(-98.7962373802,-84.3516261423) scale(1,-1) translate(50,-110)"
    />
  
  <line
    x1="128.9119066120154"
    y1="175.81196292252065"
    x2="120.28384935513664"
    y2="176.3408617456935"
    stroke="hsla(0,50%,50%,0.6)"
    stroke-width="1"
    transform="translate(-98.7962373802,-84.3516261423) scale(1,-1) translate(50,-110)"
    />
  
  <line
    x1="128.9119066120154"
    y1="175.81196292252065"
    x2="38.22083473158741"
    y2="186.8120553172386"
    stroke="hsla(0,50%,50%,0.6)"
    stroke-width="1"
    transform="translate(-98.7962373802,-84.3516261423) scale(1,-1) translate(50,-110)"
    />
  
</svg>
