<?xml version="1.0"?>
<!DOCTYPE svg PUBLIC "-//W3C//DTD SVG 1.1//EN"
  "http://www.w3.org/Graphics/SVG/1.1/DTD/svg11.dtd">
<svg
  width="240"
  height="240"
  viewBox="-500 -500 1000 1000" xmlns="http://www.w3.org/2000/svg" version="1.1">
  <rect
    x="0"
    y="0"
    width="100"
    height="100"
    fill="hsla(206,100%,53%,0.3)"
    stroke="hsl(206,100%,53%)"
    stroke-width="3"
    transform="" />
  
  <path
    d="M 
      -34.0175656143
      -12.8853414409
      L
    
      11.7394395457
      41.0247362697
      L
    
      32.5796739881
      92.8965458428
      L
    
      15.9989970474
      111.6070015343
      L
    
      -8.9482772079
      89.4994322800
      L
    
      -42.1706381649
      86.7817414298
      z
    "
    fill="hsla(0,0%,50%,0.3)"
    stroke="hsla(0,0%,50%,1)"
    stroke-width="1"
    transform="translate(4.7954820883,-49.3608300467)"
    />
  
  
  <line
    x1="-34.01756561438274"
    y1="-12.885341440959978"
    x2="-42.17063816494253"
    y2="86.78174142989216"
    stroke="hsla(0,50%,50%,0.6)"
    stroke-width="1"
    transform="translate(4.7954820883,-49.3608300467)"
    />
  
  <line
    x1="11.739439545763435"
    y1="41.024736269745986"
    x2="7.662903270483537"
    y2="90.85827770517206"
    stroke="hsla(0,50%,50%,0.6)"
    stroke-width="1"
    transform="translate(4.7954820883,-49.3608300467)"
    />
  
  <line
    x1="11.739439545763435"
    y1="41.024736269745986"
    x2="32.579673988196575"
    y2="92.89654584281202"
    stroke="hsla(0,50%,50%,0.6)"
    stroke-width="1"
    transform="translate(4.7954820883,-49.3608300467)"
    />
  
  <line
    x1="11.739439545763435"
    y1="41.024736269745986"
    x2="-8.94827720799182"
    y2="89.49943228007876"
    stroke="hsla(0,50%,50%,0.6)"
    stroke-width="1"
    transform="translate(4.7954820883,-49.3608300467)"
    />
  
  <line
    x1="-34.01756561438274"
    y1="-12.885341440959978"
    x2="11.739439545763435"
    y2="41.024736269745986"
    stroke="hsla(0,50%,50%,0.6)"
    stroke-width="1"
    transform="translate(4.7954820883,-49.3608300467)"
    />
  
  <line
    x1="-8.94827720799182"
    y1="89.49943228007876"
    x2="15.998997047456793"
    y2="111.60700153439848"
    stroke="hsla(0,50%,50%,0.6)"
    stroke-width="1"
    transform="translate(4.7954820883,-49.3608300467)"
    />
  
  <line
    x1="32.579673988196575"
    y1="92.89654584281202"
    x2="15.998997047456793"
    y2="111.60700153439848"
    stroke="hsla(0,50%,50%,0.6)"
    stroke-width="1"
    transform="translate(4.7954820883,-49.3608300467)"
    />
  
  <line
    x1="-42.17063816494253"
    y1="86.78174142989216"
    x2="32.579673988196575"
    y2="92.89654584281202"
    stroke="hsla(0,50%,50%,0.6)"
    stroke-width="1"
    transform="translate(4.7954820883,-49.3608300467)"
    />
  
</svg>
