<?xml version="1.0"?>
<!DOCTYPE svg PUBLIC "-//W3C//DTD SVG 1.1//EN"
  "http://www.w3.org/Graphics/SVG/1.1/DTD/svg11.dtd">
<svg
  width="240"
  height="240"
  viewBox="-500 -500 1000 1000" xmlns="http://www.w3.org/2000/svg" version="1.1">
  <rect
    x="0"
    y="0"
    width="100"
    height="100"
    fill="hsla(206,100%,53%,0.3)"
    stroke="hsl(206,100%,53%)"
    stroke-width="3"
    transform="" />
  
  <path
    d="M 
      56.8427793245
      -64.3620883630
      L
    
      81.1939621910
      -58.7034760769
      L
    
      78.3646560480
      -46.5278846436
      L
    
      89.2610181038
      -40.4025851450
      L
    
      77.0104191066
      -18.6098610333
      L
    
      71.9344148138
      -18.8560859318
      L
    
      58.5595130467
      38.7012553889
      L
    
      9.8571473138
      27.3840308167
      L
    
      21.1743718859
      -21.3183349161
      z
    "
    fill="hsla(0,0%,50%,0.3)"
    stroke="hsla(0,0%,50%,1)"
    stroke-width="1"
    transform="translate(-49.5590827088,12.8304164870)"
    />
  
  
  <line
    x1="56.84277932458433"
    y1="-64.36208836300342"
    x2="81.19396219104517"
    y2="-58.70347607692274"
    stroke="hsla(0,50%,50%,0.6)"
    stroke-width="1"
    transform="translate(-49.5590827088,12.8304164870)"
    />
  
  <line
    x1="78.36465604800483"
    y1="-46.52788464369232"
    x2="89.26101810385475"
    y2="-40.40258514506906"
    stroke="hsla(0,50%,50%,0.6)"
    stroke-width="1"
    transform="translate(-49.5590827088,12.8304164870)"
    />
  
  <line
    x1="56.84277932458433"
    y1="-64.36208836300342"
    x2="77.01041910660825"
    y2="-18.60986103336924"
    stroke="hsla(0,50%,50%,0.6)"
    stroke-width="1"
    transform="translate(-49.5590827088,12.8304164870)"
    />
  
  <line
    x1="21.1743718859621"
    y1="-21.31833491616241"
    x2="77.01041910660825"
    y2="-18.60986103336924"
    stroke="hsla(0,50%,50%,0.6)"
    stroke-width="1"
    transform="translate(-49.5590827088,12.8304164870)"
    />
  
  <line
    x1="78.36465604800483"
    y1="-46.52788464369232"
    x2="21.1743718859621"
    y2="-21.31833491616241"
    stroke="hsla(0,50%,50%,0.6)"
    stroke-width="1"
    transform="translate(-49.5590827088,12.8304164870)"
    />
  
  <line
    x1="56.84277932458433"
    y1="-64.36208836300342"
    x2="21.1743718859621"
    y2="-21.31833491616241"
    stroke="hsla(0,50%,50%,0.6)"
    stroke-width="1"
    transform="translate(-49.5590827088,12.8304164870)"
    />
  
  <line
    x1="21.1743718859621"
    y1="-21.31833491616241"
    x2="9.857147313800725"
    y2="27.3840308167593"
    stroke="hsla(0,50%,50%,0.6)"
    stroke-width="1"
    transform="translate(-49.5590827088,12.8304164870)"
    />
  
  <line
    x1="81.19396219104517"
    y1="-58.70347607692274"
    x2="58.55951304672243"
    y2="38.70125538892067"
    stroke="hsla(0,50%,50%,0.6)"
    stroke-width="1"
    transform="translate(-49.5590827088,12.8304164870)"
    />
  
  <line
    x1="9.857147313800725"
    y1="27.3840308167593"
    x2="58.55951304672243"
    y2="38.70125538892067"
    stroke="hsla(0,50%,50%,0.6)"
    stroke-width="1"
    transform="translate(-49.5590827088,12.8304164870)"
    />
  
  <line
    x1="89.26101810385475"
    y1="-40.40258514506906"
    x2="77.01041910660825"
    y2="-18.60986103336924"
    stroke="hsla(0,50%,50%,0.6)"
    stroke-width="1"
    transform="translate(-49.5590827088,12.8304164870)"
    />
  
</svg>
