<?xml version="1.0"?>
<!DOCTYPE svg PUBLIC "-//W3C//DTD SVG 1.1//EN"
  "http://www.w3.org/Graphics/SVG/1.1/DTD/svg11.dtd">
<svg
  width="240"
  height="240"
  viewBox="-50 -50 200 200" xmlns="http://www.w3.org/2000/svg" version="1.1">
  <rect
    x="0"
    y="0"
    width="100"
    height="100"
    fill="hsla(206,100%,53%,0.3)"
    stroke="hsl(206,100%,53%)"
    stroke-width="3"
    transform="" />
  
  <path
    d="M 
      -24.8055519956
      -52.1444753192
      L
    
      39.9164430561
      -36.1598639396
      L
    
      31.9241373663
      -3.7988664137
      L
    
      -16.4214715391
      52.9308229483
      L
    
      -81.1434665909
      36.9462115687
      L
    
      -73.1511609011
      4.5852140428
      z
    "
    fill="hsla(0,0%,50%,0.3)"
    stroke="hsla(0,0%,50%,1)"
    stroke-width="1"
    transform="translate(56.4466571096,-15.1485730294) scale(1,-1) translate(50,-110)"
    />
  
  
  <line
    x1="-24.8055519956768"
    y1="-52.14447531921928"
    x2="39.91644305614735"
    y2="-36.15986393964252"
    stroke="hsla(0,50%,50%,0.6)"
    stroke-width="1"
    transform="translate(56.4466571096,-15.1485730294) scale(1,-1) translate(50,-110)"
    />
  
  <line
    x1="-24.8055519956768"
    y1="-52.14447531921928"
    x2="-73.15116090116564"
    y2="4.585214042816485"
    stroke="hsla(0,50%,50%,0.6)"
    stroke-width="1"
    transform="translate(56.4466571096,-15.1485730294) scale(1,-1) translate(50,-110)"
    />
  
  <line
    x1="-11.782798031960262"
    y1="-21.460293884616593"
    x2="-73.15116090116564"
    y2="4.585214042816485"
    stroke="hsla(0,50%,50%,0.6)"
    stroke-width="1"
    transform="translate(56.4466571096,-15.1485730294) scale(1,-1) translate(50,-110)"
    />
  
  <line
    x1="-73.15116090116564"
    y1="4.585214042816485"
    x2="-81.14346659095402"
    y2="36.94621156872856"
    stroke="hsla(0,50%,50%,0.6)"
    stroke-width="1"
    transform="translate(56.4466571096,-15.1485730294) scale(1,-1) translate(50,-110)"
    />
  
  <line
    x1="-24.8055519956768"
    y1="-52.14447531921928"
    x2="-11.782798031960262"
    y2="-21.460293884616593"
    stroke="hsla(0,50%,50%,0.6)"
    stroke-width="1"
    transform="translate(56.4466571096,-15.1485730294) scale(1,-1) translate(50,-110)"
    />
  
  <line
    x1="39.91644305614735"
    y1="-36.15986393964252"
    x2="31.924137366358966"
    y2="-3.7988664137304444"
    stroke="hsla(0,50%,50%,0.6)"
    stroke-width="1"
    transform="translate(56.4466571096,-15.1485730294) scale(1,-1) translate(50,-110)"
    />
  
  <line
    x1="31.924137366358966"
    y1="-3.7988664137304444"
    x2="-29.444225502846415"
    y2="22.246641513702635"
    stroke="hsla(0,50%,50%,0.6)"
    stroke-width="1"
    transform="translate(56.4466571096,-15.1485730294) scale(1,-1) translate(50,-110)"
    />
  
  <line
    x1="-29.444225502846415"
    y1="22.246641513702635"
    x2="-16.421471539129872"
    y2="52.93082294830533"
    stroke="hsla(0,50%,50%,0.6)"
    stroke-width="1"
    transform="translate(56.4466571096,-15.1485730294) scale(1,-1) translate(50,-110)"
    />
  
  <line
    x1="31.924137366358966"
    y1="-3.7988664137304444"
    x2="-16.421471539129872"
    y2="52.93082294830533"
    stroke="hsla(0,50%,50%,0.6)"
    stroke-width="1"
    transform="translate(56.4466571096,-15.1485730294) scale(1,-1) translate(50,-110)"
    />
  
  <line
    x1="-81.14346659095402"
    y1="36.94621156872856"
    x2="-16.421471539129872"
    y2="52.93082294830533"
    stroke="hsla(0,50%,50%,0.6)"
    stroke-width="1"
    transform="translate(56.4466571096,-15.1485730294) scale(1,-1) translate(50,-110)"
    />
  
</svg>
