<?xml version="1.0"?>
<!DOCTYPE svg PUBLIC "-//W3C//DTD SVG 1.1//EN"
  "http://www.w3.org/Graphics/SVG/1.1/DTD/svg11.dtd">
<svg
  width="240"
  height="240"
  viewBox="-50 -50 200 200" xmlns="http://www.w3.org/2000/svg" version="1.1">
  <rect
    x="0"
    y="0"
    width="100"
    height="100"
    fill="hsla(206,100%,53%,0.3)"
    stroke="hsl(206,100%,53%)"
    stroke-width="3"
    transform="" />
  
  <path
    d="M 
      -37.3605418733
      -63.0264398916
      L
    
      18.0100597215
      -58.4969551413
      L
    
      -23.3653737859
      38.4524368792
      L
    
      -64.8933249821
      35.0553233165
      L
    
      -70.4202172957
      41.2921418804
      L
    
      -78.7359753808
      33.9229521289
      z
    "
    fill="hsla(0,0%,50%,0.3)"
    stroke="hsla(0,0%,50%,1)"
    stroke-width="1"
    transform="translate(67.1497460660,-30.2720981593) scale(1,-1) translate(50,-110)"
    />
  
  
  <line
    x1="-37.36054187337219"
    y1="-63.02643989168837"
    x2="18.010059721545662"
    y2="-58.496955141377384"
    stroke="hsla(0,50%,50%,0.6)"
    stroke-width="1"
    transform="translate(67.1497460660,-30.2720981593) scale(1,-1) translate(50,-110)"
    />
  
  <line
    x1="-37.36054187337219"
    y1="-63.02643989168837"
    x2="-78.7359753808827"
    y2="33.922952128977165"
    stroke="hsla(0,50%,50%,0.6)"
    stroke-width="1"
    transform="translate(67.1497460660,-30.2720981593) scale(1,-1) translate(50,-110)"
    />
  
  <line
    x1="18.010059721545662"
    y1="-58.496955141377384"
    x2="-70.42021729573315"
    y2="41.29214188041707"
    stroke="hsla(0,50%,50%,0.6)"
    stroke-width="1"
    transform="translate(67.1497460660,-30.2720981593) scale(1,-1) translate(50,-110)"
    />
  
  <line
    x1="-37.36054187337219"
    y1="-63.02643989168837"
    x2="-4.097509532774041"
    y2="-33.549680885928765"
    stroke="hsla(0,50%,50%,0.6)"
    stroke-width="1"
    transform="translate(67.1497460660,-30.2720981593) scale(1,-1) translate(50,-110)"
    />
  
  <line
    x1="18.010059721545662"
    y1="-58.496955141377384"
    x2="-23.365373785964845"
    y2="38.45243687928817"
    stroke="hsla(0,50%,50%,0.6)"
    stroke-width="1"
    transform="translate(67.1497460660,-30.2720981593) scale(1,-1) translate(50,-110)"
    />
  
  <line
    x1="-48.31264804141345"
    y1="16.344867624968458"
    x2="-23.365373785964845"
    y2="38.45243687928817"
    stroke="hsla(0,50%,50%,0.6)"
    stroke-width="1"
    transform="translate(67.1497460660,-30.2720981593) scale(1,-1) translate(50,-110)"
    />
  
  <line
    x1="-78.7359753808827"
    y1="33.922952128977165"
    x2="-23.365373785964845"
    y2="38.45243687928817"
    stroke="hsla(0,50%,50%,0.6)"
    stroke-width="1"
    transform="translate(67.1497460660,-30.2720981593) scale(1,-1) translate(50,-110)"
    />
  
  <line
    x1="-78.7359753808827"
    y1="33.922952128977165"
    x2="-70.42021729573315"
    y2="41.29214188041707"
    stroke="hsla(0,50%,50%,0.6)"
    stroke-width="1"
    transform="translate(67.1497460660,-30.2720981593) scale(1,-1) translate(50,-110)"
    />
  
</svg>
