<?xml version="1.0"?>
<!DOCTYPE svg PUBLIC "-//W3C//DTD SVG 1.1//EN"
  "http://www.w3.org/Graphics/SVG/1.1/DTD/svg11.dtd">
<svg
  width="240"
  height="240"
  viewBox="-50 -50 200 200" xmlns="http://www.w3.org/2000/svg" version="1.1">
  <rect
    x="0"
    y="0"
    width="100"
    height="100"
    fill="hsla(206,100%,53%,0.3)"
    stroke="hsl(206,100%,53%)"
    stroke-width="3"
    transform="" />
  
  <path
    d="M 
      94.4112131050
      18.8814953713
      L
    
      147.6731322282
      103.5692605749
      L
    
      71.8206047594
      154.4835672882
      L
    
      25.5398942955
      85.5342073076
      L
    
      36.4951780731
      57.7563340831
      L
    
      89.6955603509
      22.0467714496
      L
    
      89.5243996858
      21.7557652962
      z
    "
    fill="hsla(0,0%,50%,0.3)"
    stroke="hsla(0,0%,50%,1)"
    stroke-width="1"
    transform="translate(-79.3711923778,-35.6959097670) scale(1,-1) translate(50,-110)"
    />
  
  
  <line
    x1="94.4112131050165"
    y1="18.8814953713718"
    x2="147.67313222828102"
    y2="103.56926057490776"
    stroke="hsla(0,50%,50%,0.6)"
    stroke-width="1"
    transform="translate(-79.3711923778,-35.6959097670) scale(1,-1) translate(50,-110)"
    />
  
  <line
    x1="89.5243996858889"
    y1="21.755765296277357"
    x2="140.222137649713"
    y2="107.95170119438932"
    stroke="hsla(0,50%,50%,0.6)"
    stroke-width="1"
    transform="translate(-79.3711923778,-35.6959097670) scale(1,-1) translate(50,-110)"
    />
  
  <line
    x1="36.495178073196115"
    y1="57.756334083119896"
    x2="42.058113339946935"
    y2="81.6957819735778"
    stroke="hsla(0,50%,50%,0.6)"
    stroke-width="1"
    transform="translate(-79.3711923778,-35.6959097670) scale(1,-1) translate(50,-110)"
    />
  
  <line
    x1="25.53989429553099"
    y1="85.53420730763587"
    x2="71.82060475942308"
    y2="154.4835672882417"
    stroke="hsla(0,50%,50%,0.6)"
    stroke-width="1"
    transform="translate(-79.3711923778,-35.6959097670) scale(1,-1) translate(50,-110)"
    />
  
  <line
    x1="36.495178073196115"
    y1="57.756334083119896"
    x2="25.53989429553099"
    y2="85.53420730763587"
    stroke="hsla(0,50%,50%,0.6)"
    stroke-width="1"
    transform="translate(-79.3711923778,-35.6959097670) scale(1,-1) translate(50,-110)"
    />
  
  <line
    x1="94.4112131050165"
    y1="18.8814953713718"
    x2="89.5243996858889"
    y2="21.755765296277357"
    stroke="hsla(0,50%,50%,0.6)"
    stroke-width="1"
    transform="translate(-79.3711923778,-35.6959097670) scale(1,-1) translate(50,-110)"
    />
  
  <line
    x1="94.4112131050165"
    y1="18.8814953713718"
    x2="36.495178073196115"
    y2="57.756334083119896"
    stroke="hsla(0,50%,50%,0.6)"
    stroke-width="1"
    transform="translate(-79.3711923778,-35.6959097670) scale(1,-1) translate(50,-110)"
    />
  
  <line
    x1="42.058113339946935"
    y1="81.6957819735778"
    x2="25.53989429553099"
    y2="85.53420730763587"
    stroke="hsla(0,50%,50%,0.6)"
    stroke-width="1"
    transform="translate(-79.3711923778,-35.6959097670) scale(1,-1) translate(50,-110)"
    />
  
  <line
    x1="147.67313222828102"
    y1="103.56926057490776"
    x2="71.82060475942308"
    y2="154.4835672882417"
    stroke="hsla(0,50%,50%,0.6)"
    stroke-width="1"
    transform="translate(-79.3711923778,-35.6959097670) scale(1,-1) translate(50,-110)"
    />
  
  <line
    x1="147.67313222828102"
    y1="103.56926057490776"
    x2="140.222137649713"
    y2="107.95170119438932"
    stroke="hsla(0,50%,50%,0.6)"
    stroke-width="1"
    transform="translate(-79.3711923778,-35.6959097670) scale(1,-1) translate(50,-110)"
    />
  
</svg>
