<?xml version="1.0"?>
<!DOCTYPE svg PUBLIC "-//W3C//DTD SVG 1.1//EN"
  "http://www.w3.org/Graphics/SVG/1.1/DTD/svg11.dtd">
<svg
  width="240"
  height="240"
  viewBox="-50 -50 200 200" xmlns="http://www.w3.org/2000/svg" version="1.1">
  <rect
    x="0"
    y="0"
    width="100"
    height="100"
    fill="hsla(206,100%,53%,0.3)"
    stroke="hsl(206,100%,53%)"
    stroke-width="3"
    transform="" />
  
  <path
    d="M 
      100
      25
      L
    
      117.7514792899
      42.6035502958
      L
    
      101.5233415233
      58.9680589680
      L
    
      120
      66.6666666666
      L
    
      120
      100
      L
    
      86.3865546218
      100
      L
    
      72.6627218934
      113.6094674556
      L
    
      60
      100.8403361344
      L
    
      60
      41.6666666666
      z
    "
    fill="hsla(0,0%,50%,0.3)"
    stroke="hsla(0,0%,50%,1)"
    stroke-width="1"
    transform="translate(-66.7507427221,-71.3860317945) scale(1,-1) translate(50,-110)"
    />
  
  
  <line
    x1="100"
    y1="25"
    x2="117.75147928994083"
    y2="42.603550295857985"
    stroke="hsla(0,50%,50%,0.6)"
    stroke-width="1"
    transform="translate(-66.7507427221,-71.3860317945) scale(1,-1) translate(50,-110)"
    />
  
  <line
    x1="60"
    y1="41.666666666666664"
    x2="60"
    y2="100.84033613445378"
    stroke="hsla(0,50%,50%,0.6)"
    stroke-width="1"
    transform="translate(-66.7507427221,-71.3860317945) scale(1,-1) translate(50,-110)"
    />
  
  <line
    x1="100"
    y1="25"
    x2="100"
    y2="100"
    stroke="hsla(0,50%,50%,0.6)"
    stroke-width="1"
    transform="translate(-66.7507427221,-71.3860317945) scale(1,-1) translate(50,-110)"
    />
  
  <line
    x1="120"
    y1="66.66666666666667"
    x2="120"
    y2="100"
    stroke="hsla(0,50%,50%,0.6)"
    stroke-width="1"
    transform="translate(-66.7507427221,-71.3860317945) scale(1,-1) translate(50,-110)"
    />
  
  <line
    x1="60"
    y1="41.666666666666664"
    x2="120"
    y2="66.66666666666667"
    stroke="hsla(0,50%,50%,0.6)"
    stroke-width="1"
    transform="translate(-66.7507427221,-71.3860317945) scale(1,-1) translate(50,-110)"
    />
  
  <line
    x1="60"
    y1="100.84033613445378"
    x2="72.66272189349112"
    y2="113.6094674556213"
    stroke="hsla(0,50%,50%,0.6)"
    stroke-width="1"
    transform="translate(-66.7507427221,-71.3860317945) scale(1,-1) translate(50,-110)"
    />
  
  <line
    x1="100"
    y1="25"
    x2="60"
    y2="41.666666666666664"
    stroke="hsla(0,50%,50%,0.6)"
    stroke-width="1"
    transform="translate(-66.7507427221,-71.3860317945) scale(1,-1) translate(50,-110)"
    />
  
  <line
    x1="117.75147928994083"
    y1="42.603550295857985"
    x2="60"
    y2="100.84033613445378"
    stroke="hsla(0,50%,50%,0.6)"
    stroke-width="1"
    transform="translate(-66.7507427221,-71.3860317945) scale(1,-1) translate(50,-110)"
    />
  
  <line
    x1="120"
    y1="66.66666666666667"
    x2="72.66272189349112"
    y2="113.6094674556213"
    stroke="hsla(0,50%,50%,0.6)"
    stroke-width="1"
    transform="translate(-66.7507427221,-71.3860317945) scale(1,-1) translate(50,-110)"
    />
  
  <line
    x1="60"
    y1="100"
    x2="120"
    y2="100"
    stroke="hsla(0,50%,50%,0.6)"
    stroke-width="1"
    transform="translate(-66.7507427221,-71.3860317945) scale(1,-1) translate(50,-110)"
    />
  
</svg>
