<?xml version="1.0"?>
<!DOCTYPE svg PUBLIC "-//W3C//DTD SVG 1.1//EN"
  "http://www.w3.org/Graphics/SVG/1.1/DTD/svg11.dtd">
<svg
  width="240"
  height="240"
  viewBox="-500 -500 1000 1000" xmlns="http://www.w3.org/2000/svg" version="1.1">
  <rect
    x="0"
    y="0"
    width="100"
    height="100"
    fill="hsla(206,100%,53%,0.3)"
    stroke="hsl(206,100%,53%)"
    stroke-width="3"
    transform="" />
  
  <path
    d="M 
      -79.1941891645
      5.0714480186
      L
    
      -18.6642343409
      41.6244857727
      L
    
      17.5949723381
      84.1717527943
      L
    
      7.8279068653
      107.1848888702
      L
    
      -22.8562745692
      94.1621349065
      L
    
      -55.2172720951
      102.1544405963
      z
    "
    fill="hsla(0,0%,50%,0.3)"
    stroke="hsla(0,0%,50%,1)"
    stroke-width="1"
    transform="translate(30.7996084131,-56.1281684444)"
    />
  
  
  <line
    x1="-18.664234340957467"
    y1="41.62448577278616"
    x2="-22.85627456923093"
    y2="94.16213490654846"
    stroke="hsla(0,50%,50%,0.6)"
    stroke-width="1"
    transform="translate(30.7996084131,-56.1281684444)"
    />
  
  <line
    x1="-18.664234340957467"
    y1="41.62448577278616"
    x2="-6.675775806274892"
    y2="90.16598206165426"
    stroke="hsla(0,50%,50%,0.6)"
    stroke-width="1"
    transform="translate(30.7996084131,-56.1281684444)"
    />
  
  <line
    x1="-79.19418916450815"
    y1="5.071448018600613"
    x2="-55.21727209514301"
    y2="102.15444059633684"
    stroke="hsla(0,50%,50%,0.6)"
    stroke-width="1"
    transform="translate(30.7996084131,-56.1281684444)"
    />
  
  <line
    x1="17.594972338159163"
    y1="84.171752794313"
    x2="7.827906865371759"
    y2="107.18488887026501"
    stroke="hsla(0,50%,50%,0.6)"
    stroke-width="1"
    transform="translate(30.7996084131,-56.1281684444)"
    />
  
  <line
    x1="-18.664234340957467"
    y1="41.62448577278616"
    x2="17.594972338159163"
    y2="84.171752794313"
    stroke="hsla(0,50%,50%,0.6)"
    stroke-width="1"
    transform="translate(30.7996084131,-56.1281684444)"
    />
  
  <line
    x1="-79.19418916450815"
    y1="5.071448018600613"
    x2="-18.664234340957467"
    y2="41.62448577278616"
    stroke="hsla(0,50%,50%,0.6)"
    stroke-width="1"
    transform="translate(30.7996084131,-56.1281684444)"
    />
  
  <line
    x1="17.594972338159163"
    y1="84.171752794313"
    x2="-55.21727209514301"
    y2="102.15444059633684"
    stroke="hsla(0,50%,50%,0.6)"
    stroke-width="1"
    transform="translate(30.7996084131,-56.1281684444)"
    />
  
  <line
    x1="-22.85627456923093"
    y1="94.16213490654846"
    x2="7.827906865371759"
    y2="107.18488887026501"
    stroke="hsla(0,50%,50%,0.6)"
    stroke-width="1"
    transform="translate(30.7996084131,-56.1281684444)"
    />
  
</svg>
