<?xml version="1.0"?>
<!DOCTYPE svg PUBLIC "-//W3C//DTD SVG 1.1//EN"
  "http://www.w3.org/Graphics/SVG/1.1/DTD/svg11.dtd">
<svg
  width="240"
  height="240"
  viewBox="-50 -50 200 200" xmlns="http://www.w3.org/2000/svg" version="1.1">
  <rect
    x="0"
    y="0"
    width="100"
    height="100"
    fill="hsla(206,100%,53%,0.3)"
    stroke="hsl(206,100%,53%)"
    stroke-width="3"
    transform="" />
  
  <path
    d="M 
      -20.4764805692
      44.7540150407
      L
    
      31.3953290037
      65.5942494832
      L
    
      33.4335971414
      90.5110202009
      L
    
      20.9752117825
      91.5301542697
      L
    
      18.4652325881
      103.7755617535
      L
    
      -6.0255823793
      98.7556033647
      L
    
      -7.3393003966
      93.8463680625
      L
    
      -66.2334857294
      98.6640927514
      L
    
      -70.3100220047
      48.8305513160
      z
    "
    fill="hsla(0,0%,50%,0.3)"
    stroke="hsla(0,0%,50%,1)"
    stroke-width="1"
    transform="translate(51.7987659511,-72.7956302828) scale(1,-1) translate(50,-110)"
    />
  
  
  <line
    x1="31.395329003776588"
    y1="65.59424948322304"
    x2="33.43359714141654"
    y2="90.51102020093607"
    stroke="hsla(0,50%,50%,0.6)"
    stroke-width="1"
    transform="translate(51.7987659511,-72.7956302828) scale(1,-1) translate(50,-110)"
    />
  
  <line
    x1="-70.3100220047155"
    y1="48.8305513160698"
    x2="-66.2334857294356"
    y2="98.66409275149587"
    stroke="hsla(0,50%,50%,0.6)"
    stroke-width="1"
    transform="translate(51.7987659511,-72.7956302828) scale(1,-1) translate(50,-110)"
    />
  
  <line
    x1="20.975211782560024"
    y1="91.53015426975605"
    x2="18.46523258814737"
    y2="103.77556175352791"
    stroke="hsla(0,50%,50%,0.6)"
    stroke-width="1"
    transform="translate(51.7987659511,-72.7956302828) scale(1,-1) translate(50,-110)"
    />
  
  <line
    x1="-20.476480569289432"
    y1="44.7540150407899"
    x2="-6.0255823793963295"
    y2="98.7556033647026"
    stroke="hsla(0,50%,50%,0.6)"
    stroke-width="1"
    transform="translate(51.7987659511,-72.7956302828) scale(1,-1) translate(50,-110)"
    />
  
  <line
    x1="-20.476480569289432"
    y1="44.7540150407899"
    x2="20.975211782560024"
    y2="91.53015426975605"
    stroke="hsla(0,50%,50%,0.6)"
    stroke-width="1"
    transform="translate(51.7987659511,-72.7956302828) scale(1,-1) translate(50,-110)"
    />
  
  <line
    x1="-20.476480569289432"
    y1="44.7540150407899"
    x2="-70.3100220047155"
    y2="48.8305513160698"
    stroke="hsla(0,50%,50%,0.6)"
    stroke-width="1"
    transform="translate(51.7987659511,-72.7956302828) scale(1,-1) translate(50,-110)"
    />
  
  <line
    x1="-20.476480569289432"
    y1="44.7540150407899"
    x2="31.395329003776588"
    y2="65.59424948322304"
    stroke="hsla(0,50%,50%,0.6)"
    stroke-width="1"
    transform="translate(51.7987659511,-72.7956302828) scale(1,-1) translate(50,-110)"
    />
  
  <line
    x1="31.395329003776588"
    y1="65.59424948322304"
    x2="-6.0255823793963295"
    y2="98.7556033647026"
    stroke="hsla(0,50%,50%,0.6)"
    stroke-width="1"
    transform="translate(51.7987659511,-72.7956302828) scale(1,-1) translate(50,-110)"
    />
  
  <line
    x1="33.43359714141654"
    y1="90.51102020093607"
    x2="-66.2334857294356"
    y2="98.66409275149587"
    stroke="hsla(0,50%,50%,0.6)"
    stroke-width="1"
    transform="translate(51.7987659511,-72.7956302828) scale(1,-1) translate(50,-110)"
    />
  
  <line
    x1="-6.0255823793963295"
    y1="98.7556033647026"
    x2="18.46523258814737"
    y2="103.77556175352791"
    stroke="hsla(0,50%,50%,0.6)"
    stroke-width="1"
    transform="translate(51.7987659511,-72.7956302828) scale(1,-1) translate(50,-110)"
    />
  
</svg>
