<?xml version="1.0"?>
<!DOCTYPE svg PUBLIC "-//W3C//DTD SVG 1.1//EN"
  "http://www.w3.org/Graphics/SVG/1.1/DTD/svg11.dtd">
<svg
  width="240"
  height="240"
  viewBox="-50 -50 200 200" xmlns="http://www.w3.org/2000/svg" version="1.1">
  <rect
    x="0"
    y="0"
    width="100"
    height="100"
    fill="hsla(206,100%,53%,0.3)"
    stroke="hsl(206,100%,53%)"
    stroke-width="3"
    transform="" />
  
  <path
    d="M 
      -74.3054724607
      -1.1818429447
      L
    
      -66.7606560792
      31.2864008772
      L
    
      -84.1392671383
      103.7677049025
      L
    
      -149.0757547822
      118.8573376654
      L
    
      -156.6205711636
      86.3890938434
      L
    
      -139.2419601046
      13.9077898181
      z
    "
    fill="hsla(0,0%,50%,0.3)"
    stroke="hsla(0,0%,50%,1)"
    stroke-width="1"
    transform="translate(137.0776129040,-50.8345845699) scale(1,-1) translate(50,-110)"
    />
  
  
  <line
    x1="-113.72516070629138"
    y1="35.35549504683962"
    x2="-156.62057116367876"
    y2="86.38909384348246"
    stroke="hsla(0,50%,50%,0.6)"
    stroke-width="1"
    transform="translate(137.0776129040,-50.8345845699) scale(1,-1) translate(50,-110)"
    />
  
  <line
    x1="-139.2419601046128"
    y1="13.907789818145927"
    x2="-156.62057116367876"
    y2="86.38909384348246"
    stroke="hsla(0,50%,50%,0.6)"
    stroke-width="1"
    transform="translate(137.0776129040,-50.8345845699) scale(1,-1) translate(50,-110)"
    />
  
  <line
    x1="-66.76065607927626"
    y1="31.2864008772119"
    x2="-109.65606653666364"
    y2="82.31999967385474"
    stroke="hsla(0,50%,50%,0.6)"
    stroke-width="1"
    transform="translate(137.0776129040,-50.8345845699) scale(1,-1) translate(50,-110)"
    />
  
  <line
    x1="-74.30547246071718"
    y1="-1.1818429447359078"
    x2="-139.2419601046128"
    y2="13.907789818145927"
    stroke="hsla(0,50%,50%,0.6)"
    stroke-width="1"
    transform="translate(137.0776129040,-50.8345845699) scale(1,-1) translate(50,-110)"
    />
  
  <line
    x1="-66.76065607927626"
    y1="31.2864008772119"
    x2="-84.13926713834222"
    y2="103.76770490254843"
    stroke="hsla(0,50%,50%,0.6)"
    stroke-width="1"
    transform="translate(137.0776129040,-50.8345845699) scale(1,-1) translate(50,-110)"
    />
  
  <line
    x1="-74.30547246071718"
    y1="-1.1818429447359078"
    x2="-66.76065607927626"
    y2="31.2864008772119"
    stroke="hsla(0,50%,50%,0.6)"
    stroke-width="1"
    transform="translate(137.0776129040,-50.8345845699) scale(1,-1) translate(50,-110)"
    />
  
  <line
    x1="-156.62057116367876"
    y1="86.38909384348246"
    x2="-149.07575478223785"
    y2="118.85733766543026"
    stroke="hsla(0,50%,50%,0.6)"
    stroke-width="1"
    transform="translate(137.0776129040,-50.8345845699) scale(1,-1) translate(50,-110)"
    />
  
  <line
    x1="-139.2419601046128"
    y1="13.907789818145927"
    x2="-113.72516070629138"
    y2="35.35549504683962"
    stroke="hsla(0,50%,50%,0.6)"
    stroke-width="1"
    transform="translate(137.0776129040,-50.8345845699) scale(1,-1) translate(50,-110)"
    />
  
  <line
    x1="-84.13926713834222"
    y1="103.76770490254843"
    x2="-149.07575478223785"
    y2="118.85733766543026"
    stroke="hsla(0,50%,50%,0.6)"
    stroke-width="1"
    transform="translate(137.0776129040,-50.8345845699) scale(1,-1) translate(50,-110)"
    />
  
  <line
    x1="-109.65606653666364"
    y1="82.31999967385474"
    x2="-84.13926713834222"
    y2="103.76770490254843"
    stroke="hsla(0,50%,50%,0.6)"
    stroke-width="1"
    transform="translate(137.0776129040,-50.8345845699) scale(1,-1) translate(50,-110)"
    />
  
</svg>
