<?xml version="1.0"?>
<!DOCTYPE svg PUBLIC "-//W3C//DTD SVG 1.1//EN"
  "http://www.w3.org/Graphics/SVG/1.1/DTD/svg11.dtd">
<svg
  width="240"
  height="240"
  viewBox="-50 -50 200 200" xmlns="http://www.w3.org/2000/svg" version="1.1">
  <rect
    x="0"
    y="0"
    width="100"
    height="100"
    fill="hsla(206,100%,53%,0.3)"
    stroke="hsl(206,100%,53%)"
    stroke-width="3"
    transform="" />
  
  <path
    d="M 
      -95.2621000801
      -2.8560869171
      L
    
      -85.0340396019
      1.4848310707
      L
    
      -93.4181200585
      106.5601293382
      L
    
      -147.3531159350
      119.8806388212
      L
    
      -138.9690354785
      14.8053405536
      L
    
      -98.5177885711
      4.8149584414
      z
    "
    fill="hsla(0,0%,50%,0.3)"
    stroke="hsla(0,0%,50%,1)"
    stroke-width="1"
    transform="translate(113.8931795158,-27.7110505502) scale(1,-1) translate(50,-110)"
    />
  
  
  <line
    x1="-95.26210008019973"
    y1="-2.856086917186849"
    x2="-147.35311593506592"
    y2="119.8806388212239"
    stroke="hsla(0,50%,50%,0.6)"
    stroke-width="1"
    transform="translate(113.8931795158,-27.7110505502) scale(1,-1) translate(50,-110)"
    />
  
  <line
    x1="-85.03403960199883"
    y1="1.4848310707186638"
    x2="-138.96903547851898"
    y2="14.805340553699299"
    stroke="hsla(0,50%,50%,0.6)"
    stroke-width="1"
    transform="translate(113.8931795158,-27.7110505502) scale(1,-1) translate(50,-110)"
    />
  
  <line
    x1="-138.96903547851898"
    y1="14.805340553699299"
    x2="-147.35311593506592"
    y2="119.8806388212239"
    stroke="hsla(0,50%,50%,0.6)"
    stroke-width="1"
    transform="translate(113.8931795158,-27.7110505502) scale(1,-1) translate(50,-110)"
    />
  
  <line
    x1="-85.03403960199883"
    y1="1.4848310707186638"
    x2="-93.41812005854577"
    y2="106.56012933824326"
    stroke="hsla(0,50%,50%,0.6)"
    stroke-width="1"
    transform="translate(113.8931795158,-27.7110505502) scale(1,-1) translate(50,-110)"
    />
  
  <line
    x1="-95.26210008019973"
    y1="-2.856086917186849"
    x2="-85.03403960199883"
    y2="1.4848310707186638"
    stroke="hsla(0,50%,50%,0.6)"
    stroke-width="1"
    transform="translate(113.8931795158,-27.7110505502) scale(1,-1) translate(50,-110)"
    />
  
  <line
    x1="-138.96903547851898"
    y1="14.805340553699299"
    x2="-108.28485404391627"
    y2="27.82809451741584"
    stroke="hsla(0,50%,50%,0.6)"
    stroke-width="1"
    transform="translate(113.8931795158,-27.7110505502) scale(1,-1) translate(50,-110)"
    />
  
  <line
    x1="-93.41812005854577"
    y1="106.56012933824326"
    x2="-147.35311593506592"
    y2="119.8806388212239"
    stroke="hsla(0,50%,50%,0.6)"
    stroke-width="1"
    transform="translate(113.8931795158,-27.7110505502) scale(1,-1) translate(50,-110)"
    />
  
  <line
    x1="-134.33036197134936"
    y1="89.1964573866212"
    x2="-93.41812005854577"
    y2="106.56012933824326"
    stroke="hsla(0,50%,50%,0.6)"
    stroke-width="1"
    transform="translate(113.8931795158,-27.7110505502) scale(1,-1) translate(50,-110)"
    />
  
</svg>
