<?xml version="1.0"?>
<!DOCTYPE svg PUBLIC "-//W3C//DTD SVG 1.1//EN"
  "http://www.w3.org/Graphics/SVG/1.1/DTD/svg11.dtd">
<svg
  width="240"
  height="240"
  viewBox="-500 -500 1000 1000" xmlns="http://www.w3.org/2000/svg" version="1.1">
  <rect
    x="0"
    y="0"
    width="100"
    height="100"
    fill="hsla(206,100%,53%,0.3)"
    stroke="hsl(206,100%,53%)"
    stroke-width="3"
    transform="" />
  
  <path
    d="M 
      -165.9395678551
      88.2176187320
      L
    
      -140.0614699729
      103.1156902021
      L
    
      -112.5121069290
      160.9645115716
      L
    
      -112.1992069863
      160.8377275803
      L
    
      -110.0701464740
      166.0921994215
      L
    
      -201.6338676085
      206.4026766683
      L
    
      -240.9134503403
      123.9224552092
      z
    "
    fill="hsla(0,0%,50%,0.3)"
    stroke="hsla(0,0%,50%,1)"
    stroke-width="1"
    transform="translate(175.4917984071,-147.3101477001)"
    />
  
  
  <line
    x1="-165.93956785510656"
    y1="88.21761873203481"
    x2="-240.91345034034572"
    y2="123.92245520928714"
    stroke="hsla(0,50%,50%,0.6)"
    stroke-width="1"
    transform="translate(175.4917984071,-147.3101477001)"
    />
  
  <line
    x1="-165.93956785510656"
    y1="88.21761873203481"
    x2="-164.5569426350741"
    y2="105.11949486888346"
    stroke="hsla(0,50%,50%,0.6)"
    stroke-width="1"
    transform="translate(175.4917984071,-147.3101477001)"
    />
  
  <line
    x1="-112.19920698637341"
    y1="160.83772758036477"
    x2="-110.07014647405273"
    y2="166.09219942151674"
    stroke="hsla(0,50%,50%,0.6)"
    stroke-width="1"
    transform="translate(175.4917984071,-147.3101477001)"
    />
  
  <line
    x1="-140.06146997297458"
    y1="103.11569020216982"
    x2="-110.07014647405273"
    y2="166.09219942151674"
    stroke="hsla(0,50%,50%,0.6)"
    stroke-width="1"
    transform="translate(175.4917984071,-147.3101477001)"
    />
  
  <line
    x1="-140.06146997297458"
    y1="103.11569020216982"
    x2="-164.5569426350741"
    y2="105.11949486888346"
    stroke="hsla(0,50%,50%,0.6)"
    stroke-width="1"
    transform="translate(175.4917984071,-147.3101477001)"
    />
  
  <line
    x1="-110.07014647405273"
    y1="166.09219942151674"
    x2="-201.63386760856022"
    y2="206.40267666831394"
    stroke="hsla(0,50%,50%,0.6)"
    stroke-width="1"
    transform="translate(175.4917984071,-147.3101477001)"
    />
  
  <line
    x1="-112.19920698637341"
    y1="160.83772758036477"
    x2="-204.8800767379394"
    y2="198.39110801533047"
    stroke="hsla(0,50%,50%,0.6)"
    stroke-width="1"
    transform="translate(175.4917984071,-147.3101477001)"
    />
  
  <line
    x1="-204.8800767379394"
    y1="198.39110801533047"
    x2="-201.63386760856022"
    y2="206.40267666831394"
    stroke="hsla(0,50%,50%,0.6)"
    stroke-width="1"
    transform="translate(175.4917984071,-147.3101477001)"
    />
  
  <line
    x1="-240.91345034034572"
    y1="123.92245520928714"
    x2="-201.63386760856022"
    y2="206.40267666831394"
    stroke="hsla(0,50%,50%,0.6)"
    stroke-width="1"
    transform="translate(175.4917984071,-147.3101477001)"
    />
  
  <line
    x1="-165.93956785510656"
    y1="88.21761873203481"
    x2="-140.06146997297458"
    y2="103.11569020216982"
    stroke="hsla(0,50%,50%,0.6)"
    stroke-width="1"
    transform="translate(175.4917984071,-147.3101477001)"
    />
  
</svg>
