<?xml version="1.0"?>
<!DOCTYPE svg PUBLIC "-//W3C//DTD SVG 1.1//EN"
  "http://www.w3.org/Graphics/SVG/1.1/DTD/svg11.dtd">
<svg
  width="240"
  height="240"
  viewBox="-50 -50 200 200" xmlns="http://www.w3.org/2000/svg" version="1.1">
  <rect
    x="0"
    y="0"
    width="100"
    height="100"
    fill="hsla(206,100%,53%,0.3)"
    stroke="hsl(206,100%,53%)"
    stroke-width="3"
    transform="" />
  
  <path
    d="M 
      -71.7432891810
      -3.5510282077
      L
    
      -34.3581480203
      56.4685620973
      L
    
      -21.3241897260
      110.8295401163
      L
    
      -40.4617892747
      126.9153190378
      L
    
      -61.9094945034
      101.3985196395
      L
    
      -94.3777383254
      93.8537032580
      z
    "
    fill="hsla(0,0%,50%,0.3)"
    stroke="hsla(0,0%,50%,1)"
    stroke-width="1"
    transform="translate(72.3723982183,-96.7214156099) scale(1,-1) translate(50,-110)"
    />
  
  
  <line
    x1="-71.74328918107821"
    y1="-3.5510282077801905"
    x2="-94.37773832540097"
    y2="93.85370325806323"
    stroke="hsla(0,50%,50%,0.6)"
    stroke-width="1"
    transform="translate(72.3723982183,-96.7214156099) scale(1,-1) translate(50,-110)"
    />
  
  <line
    x1="-34.358148020317884"
    y1="56.4685620973029"
    x2="-45.67537259247926"
    y2="105.17092783022461"
    stroke="hsla(0,50%,50%,0.6)"
    stroke-width="1"
    transform="translate(72.3723982183,-96.7214156099) scale(1,-1) translate(50,-110)"
    />
  
  <line
    x1="-34.358148020317884"
    y1="56.4685620973029"
    x2="-61.90949450345317"
    y2="101.39851963950414"
    stroke="hsla(0,50%,50%,0.6)"
    stroke-width="1"
    transform="translate(72.3723982183,-96.7214156099) scale(1,-1) translate(50,-110)"
    />
  
  <line
    x1="-34.358148020317884"
    y1="56.4685620973029"
    x2="-21.324189726018403"
    y2="110.82954011630531"
    stroke="hsla(0,50%,50%,0.6)"
    stroke-width="1"
    transform="translate(72.3723982183,-96.7214156099) scale(1,-1) translate(50,-110)"
    />
  
  <line
    x1="-71.74328918107821"
    y1="-3.5510282077801905"
    x2="-34.358148020317884"
    y2="56.4685620973029"
    stroke="hsla(0,50%,50%,0.6)"
    stroke-width="1"
    transform="translate(72.3723982183,-96.7214156099) scale(1,-1) translate(50,-110)"
    />
  
  <line
    x1="-21.324189726018403"
    y1="110.82954011630531"
    x2="-40.46178927475947"
    y2="126.91531903782557"
    stroke="hsla(0,50%,50%,0.6)"
    stroke-width="1"
    transform="translate(72.3723982183,-96.7214156099) scale(1,-1) translate(50,-110)"
    />
  
  <line
    x1="-61.90949450345317"
    y1="101.39851963950414"
    x2="-40.46178927475947"
    y2="126.91531903782557"
    stroke="hsla(0,50%,50%,0.6)"
    stroke-width="1"
    transform="translate(72.3723982183,-96.7214156099) scale(1,-1) translate(50,-110)"
    />
  
  <line
    x1="-94.37773832540097"
    y1="93.85370325806323"
    x2="-21.324189726018403"
    y2="110.82954011630531"
    stroke="hsla(0,50%,50%,0.6)"
    stroke-width="1"
    transform="translate(72.3723982183,-96.7214156099) scale(1,-1) translate(50,-110)"
    />
  
</svg>
