<?xml version="1.0"?>
<!DOCTYPE svg PUBLIC "-//W3C//DTD SVG 1.1//EN"
  "http://www.w3.org/Graphics/SVG/1.1/DTD/svg11.dtd">
<svg
  width="240"
  height="240"
  viewBox="-500 -500 1000 1000" xmlns="http://www.w3.org/2000/svg" version="1.1">
  <rect
    x="0"
    y="0"
    width="100"
    height="100"
    fill="hsla(206,100%,53%,0.3)"
    stroke="hsl(206,100%,53%)"
    stroke-width="3"
    transform="" />
  
  <path
    d="M 
      17.2077922077
      20.8603896103
      L
    
      75
      23.75
      L
    
      75
      25
      L
    
      74.8607242339
      25.1392757660
      L
    
      74.5012468827
      28.7250623441
      L
    
      70.7229778095
      29.2770221904
      L
    
      67.8571428571
      32.1428571428
      L
    
      66.1764705882
      35.2941176470
      L
    
      88.2352941176
      47.0588235294
      L
    
      54.4117647058
      57.3529411764
      L
    
      32.3529411764
      45.5882352941
      L
    
      20.5882352941
      67.6470588235
      L
    
      11.5416910511
      37.9226991679
      L
    
      -1.9950124688
      39.9002493765
      L
    
      14.0519795313
      26.7775383786
      z
    "
    fill="hsla(0,0%,50%,0.3)"
    stroke="hsla(0,0%,50%,1)"
    stroke-width="1"
    transform="translate(-43.1201408244,-44.2537242169)"
    />
  
  
  <line
    x1="73.6842105263158"
    y1="23.68421052631579"
    x2="75"
    y2="25"
    stroke="hsla(0,50%,50%,0.6)"
    stroke-width="1"
    transform="translate(-43.1201408244,-44.2537242169)"
    />
  
  <line
    x1="72.40259740259741"
    y1="23.62012987012987"
    x2="74.50124688279301"
    y2="28.72506234413965"
    stroke="hsla(0,50%,50%,0.6)"
    stroke-width="1"
    transform="translate(-43.1201408244,-44.2537242169)"
    />
  
  <line
    x1="44.8051948051948"
    y1="22.24025974025974"
    x2="49.00249376558604"
    y2="32.4501246882793"
    stroke="hsla(0,50%,50%,0.6)"
    stroke-width="1"
    transform="translate(-43.1201408244,-44.2537242169)"
    />
  
  <line
    x1="43.70860927152318"
    y1="22.185430463576157"
    x2="54.411764705882355"
    y2="57.35294117647059"
    stroke="hsla(0,50%,50%,0.6)"
    stroke-width="1"
    transform="translate(-43.1201408244,-44.2537242169)"
    />
  
  <line
    x1="28.571428571428573"
    y1="21.428571428571427"
    x2="38.80299251870324"
    y2="33.94014962593516"
    stroke="hsla(0,50%,50%,0.6)"
    stroke-width="1"
    transform="translate(-43.1201408244,-44.2537242169)"
    />
  
  <line
    x1="17.207792207792206"
    y1="20.86038961038961"
    x2="23.503740648379054"
    y2="36.175187032418954"
    stroke="hsla(0,50%,50%,0.6)"
    stroke-width="1"
    transform="translate(-43.1201408244,-44.2537242169)"
    />
  
  <line
    x1="41.37931034482759"
    y1="22.06896551724138"
    x2="88.23529411764706"
    y2="47.05882352941177"
    stroke="hsla(0,50%,50%,0.6)"
    stroke-width="1"
    transform="translate(-43.1201408244,-44.2537242169)"
    />
  
  <line
    x1="21.05263157894737"
    y1="21.05263157894737"
    x2="25"
    y2="25"
    stroke="hsla(0,50%,50%,0.6)"
    stroke-width="1"
    transform="translate(-43.1201408244,-44.2537242169)"
    />
  
  <line
    x1="10.294117647058824"
    y1="33.8235294117647"
    x2="20.58823529411765"
    y2="67.6470588235294"
    stroke="hsla(0,50%,50%,0.6)"
    stroke-width="1"
    transform="translate(-43.1201408244,-44.2537242169)"
    />
  
  <line
    x1="25"
    y1="21.25"
    x2="25"
    y2="25"
    stroke="hsla(0,50%,50%,0.6)"
    stroke-width="1"
    transform="translate(-43.1201408244,-44.2537242169)"
    />
  
  <line
    x1="50"
    y1="22.5"
    x2="50"
    y2="50"
    stroke="hsla(0,50%,50%,0.6)"
    stroke-width="1"
    transform="translate(-43.1201408244,-44.2537242169)"
    />
  
  <line
    x1="75"
    y1="23.75"
    x2="75"
    y2="25"
    stroke="hsla(0,50%,50%,0.6)"
    stroke-width="1"
    transform="translate(-43.1201408244,-44.2537242169)"
    />
  
  <line
    x1="47.852760736196316"
    y1="22.392638036809817"
    x2="66.00166251039069"
    y2="29.966749792186203"
    stroke="hsla(0,50%,50%,0.6)"
    stroke-width="1"
    transform="translate(-43.1201408244,-44.2537242169)"
    />
  
  <line
    x1="25"
    y1="21.25"
    x2="23.503740648379054"
    y2="36.175187032418954"
    stroke="hsla(0,50%,50%,0.6)"
    stroke-width="1"
    transform="translate(-43.1201408244,-44.2537242169)"
    />
  
  <line
    x1="50"
    y1="22.5"
    x2="49.00249376558604"
    y2="32.4501246882793"
    stroke="hsla(0,50%,50%,0.6)"
    stroke-width="1"
    transform="translate(-43.1201408244,-44.2537242169)"
    />
  
  <line
    x1="75"
    y1="23.75"
    x2="74.50124688279301"
    y2="28.72506234413965"
    stroke="hsla(0,50%,50%,0.6)"
    stroke-width="1"
    transform="translate(-43.1201408244,-44.2537242169)"
    />
  
  <line
    x1="17.207792207792206"
    y1="20.86038961038961"
    x2="10.294117647058824"
    y2="33.8235294117647"
    stroke="hsla(0,50%,50%,0.6)"
    stroke-width="1"
    transform="translate(-43.1201408244,-44.2537242169)"
    />
  
  <line
    x1="43.70860927152318"
    y1="22.185430463576157"
    x2="38.80299251870324"
    y2="33.94014962593516"
    stroke="hsla(0,50%,50%,0.6)"
    stroke-width="1"
    transform="translate(-43.1201408244,-44.2537242169)"
    />
  
  <line
    x1="17.207792207792206"
    y1="20.86038961038961"
    x2="75"
    y2="23.75"
    stroke="hsla(0,50%,50%,0.6)"
    stroke-width="1"
    transform="translate(-43.1201408244,-44.2537242169)"
    />
  
  <line
    x1="10.294117647058824"
    y1="33.8235294117647"
    x2="54.411764705882355"
    y2="57.35294117647059"
    stroke="hsla(0,50%,50%,0.6)"
    stroke-width="1"
    transform="translate(-43.1201408244,-44.2537242169)"
    />
  
  <line
    x1="21.05263157894737"
    y1="21.05263157894737"
    x2="-1.9950124688279303"
    y2="39.900249376558605"
    stroke="hsla(0,50%,50%,0.6)"
    stroke-width="1"
    transform="translate(-43.1201408244,-44.2537242169)"
    />
  
  <line
    x1="44.8051948051948"
    y1="22.24025974025974"
    x2="20.58823529411765"
    y2="67.6470588235294"
    stroke="hsla(0,50%,50%,0.6)"
    stroke-width="1"
    transform="translate(-43.1201408244,-44.2537242169)"
    />
  
  <line
    x1="25"
    y1="25"
    x2="75"
    y2="25"
    stroke="hsla(0,50%,50%,0.6)"
    stroke-width="1"
    transform="translate(-43.1201408244,-44.2537242169)"
    />
  
  <line
    x1="28.571428571428573"
    y1="21.428571428571427"
    x2="25"
    y2="25"
    stroke="hsla(0,50%,50%,0.6)"
    stroke-width="1"
    transform="translate(-43.1201408244,-44.2537242169)"
    />
  
  <line
    x1="41.37931034482759"
    y1="22.06896551724138"
    x2="-1.9950124688279303"
    y2="39.900249376558605"
    stroke="hsla(0,50%,50%,0.6)"
    stroke-width="1"
    transform="translate(-43.1201408244,-44.2537242169)"
    />
  
  <line
    x1="47.852760736196316"
    y1="22.392638036809817"
    x2="10.294117647058824"
    y2="33.8235294117647"
    stroke="hsla(0,50%,50%,0.6)"
    stroke-width="1"
    transform="translate(-43.1201408244,-44.2537242169)"
    />
  
  <line
    x1="72.40259740259741"
    y1="23.62012987012987"
    x2="54.411764705882355"
    y2="57.35294117647059"
    stroke="hsla(0,50%,50%,0.6)"
    stroke-width="1"
    transform="translate(-43.1201408244,-44.2537242169)"
    />
  
  <line
    x1="74.50124688279301"
    y1="28.72506234413965"
    x2="-1.9950124688279303"
    y2="39.900249376558605"
    stroke="hsla(0,50%,50%,0.6)"
    stroke-width="1"
    transform="translate(-43.1201408244,-44.2537242169)"
    />
  
  <line
    x1="75"
    y1="25"
    x2="50"
    y2="50"
    stroke="hsla(0,50%,50%,0.6)"
    stroke-width="1"
    transform="translate(-43.1201408244,-44.2537242169)"
    />
  
  <line
    x1="73.6842105263158"
    y1="23.68421052631579"
    x2="66.00166251039069"
    y2="29.966749792186203"
    stroke="hsla(0,50%,50%,0.6)"
    stroke-width="1"
    transform="translate(-43.1201408244,-44.2537242169)"
    />
  
  <line
    x1="88.23529411764706"
    y1="47.05882352941177"
    x2="54.411764705882355"
    y2="57.35294117647059"
    stroke="hsla(0,50%,50%,0.6)"
    stroke-width="1"
    transform="translate(-43.1201408244,-44.2537242169)"
    />
  
</svg>
