<?xml version="1.0"?>
<!DOCTYPE svg PUBLIC "-//W3C//DTD SVG 1.1//EN"
  "http://www.w3.org/Graphics/SVG/1.1/DTD/svg11.dtd">
<svg
  width="240"
  height="240"
  viewBox="-50 -50 200 200" xmlns="http://www.w3.org/2000/svg" version="1.1">
  <rect
    x="0"
    y="0"
    width="100"
    height="100"
    fill="hsla(206,100%,53%,0.3)"
    stroke="hsl(206,100%,53%)"
    stroke-width="3"
    transform="" />
  
  <path
    d="M 
      100
      25
      L
    
      117.7514792899
      42.6035502958
      L
    
      100
      60.5042016806
      L
    
      100
      60.7142857142
      L
    
      114.2857142857
      66.6666666666
      L
    
      114.2857142857
      100
      L
    
      80.6722689075
      100
      L
    
      66.9484361792
      113.6094674556
      L
    
      57.1428571428
      103.7214885954
      L
    
      57.1428571428
      42.8571428571
      z
    "
    fill="hsla(0,0%,50%,0.3)"
    stroke="hsla(0,0%,50%,1)"
    stroke-width="1"
    transform="translate(-63.2220279013,-72.8195067551) scale(1,-1) translate(50,-110)"
    />
  
  
  <line
    x1="100"
    y1="25"
    x2="117.75147928994083"
    y2="42.603550295857985"
    stroke="hsla(0,50%,50%,0.6)"
    stroke-width="1"
    transform="translate(-63.2220279013,-72.8195067551) scale(1,-1) translate(50,-110)"
    />
  
  <line
    x1="57.142857142857146"
    y1="42.857142857142854"
    x2="57.142857142857146"
    y2="103.72148859543817"
    stroke="hsla(0,50%,50%,0.6)"
    stroke-width="1"
    transform="translate(-63.2220279013,-72.8195067551) scale(1,-1) translate(50,-110)"
    />
  
  <line
    x1="100"
    y1="25"
    x2="100"
    y2="100"
    stroke="hsla(0,50%,50%,0.6)"
    stroke-width="1"
    transform="translate(-63.2220279013,-72.8195067551) scale(1,-1) translate(50,-110)"
    />
  
  <line
    x1="114.28571428571429"
    y1="66.66666666666667"
    x2="114.28571428571429"
    y2="100"
    stroke="hsla(0,50%,50%,0.6)"
    stroke-width="1"
    transform="translate(-63.2220279013,-72.8195067551) scale(1,-1) translate(50,-110)"
    />
  
  <line
    x1="57.142857142857146"
    y1="42.857142857142854"
    x2="114.28571428571429"
    y2="66.66666666666667"
    stroke="hsla(0,50%,50%,0.6)"
    stroke-width="1"
    transform="translate(-63.2220279013,-72.8195067551) scale(1,-1) translate(50,-110)"
    />
  
  <line
    x1="57.142857142857146"
    y1="103.72148859543817"
    x2="66.94843617920542"
    y2="113.6094674556213"
    stroke="hsla(0,50%,50%,0.6)"
    stroke-width="1"
    transform="translate(-63.2220279013,-72.8195067551) scale(1,-1) translate(50,-110)"
    />
  
  <line
    x1="100"
    y1="25"
    x2="57.142857142857146"
    y2="42.857142857142854"
    stroke="hsla(0,50%,50%,0.6)"
    stroke-width="1"
    transform="translate(-63.2220279013,-72.8195067551) scale(1,-1) translate(50,-110)"
    />
  
  <line
    x1="117.75147928994083"
    y1="42.603550295857985"
    x2="57.142857142857146"
    y2="103.72148859543817"
    stroke="hsla(0,50%,50%,0.6)"
    stroke-width="1"
    transform="translate(-63.2220279013,-72.8195067551) scale(1,-1) translate(50,-110)"
    />
  
  <line
    x1="114.28571428571429"
    y1="66.66666666666667"
    x2="66.94843617920542"
    y2="113.6094674556213"
    stroke="hsla(0,50%,50%,0.6)"
    stroke-width="1"
    transform="translate(-63.2220279013,-72.8195067551) scale(1,-1) translate(50,-110)"
    />
  
  <line
    x1="57.142857142857146"
    y1="100"
    x2="114.28571428571429"
    y2="100"
    stroke="hsla(0,50%,50%,0.6)"
    stroke-width="1"
    transform="translate(-63.2220279013,-72.8195067551) scale(1,-1) translate(50,-110)"
    />
  
</svg>
