<?xml version="1.0"?>
<!DOCTYPE svg PUBLIC "-//W3C//DTD SVG 1.1//EN"
  "http://www.w3.org/Graphics/SVG/1.1/DTD/svg11.dtd">
<svg
  width="240"
  height="240"
  viewBox="-50 -50 200 200" xmlns="http://www.w3.org/2000/svg" version="1.1">
  <rect
    x="0"
    y="0"
    width="100"
    height="100"
    fill="hsla(206,100%,53%,0.3)"
    stroke="hsl(206,100%,53%)"
    stroke-width="3"
    transform="" />
  
  <path
    d="M 
      96286074843.2000866813
      185399224378.9295121339
      L
    
      96286074886.7203031914
      185399224445.6035412067
      L
    
      96286074890.6892358244
      185399224444.8527677432
      L
    
      96286074892.5087576538
      185399224454.4715940809
      L
    
      96286074801.9453675628
      185399224490.9195165823
      L
    
      96286074797.5144761681
      185399224491.8888173847
      L
    
      96286074764.0153443263
      185399224440.5673334988
      L
    
      96286074787.3736188399
      185399224415.3691873904
      z
    "
    fill="hsla(0,0%,50%,0.3)"
    stroke="hsla(0,0%,50%,1)"
    stroke-width="1"
    transform="translate(-96286074789.8244615275,-185399224437.5897253196) scale(1,-1) translate(50,-110)"
    />
  
  
  <line
    x1="96286074799.77567"
    y1="185399224476.6762"
    x2="96286074803.23918"
    y2="185399224490.3988"
    stroke="hsla(0,50%,50%,0.6)"
    stroke-width="1"
    transform="translate(-96286074789.8244615275,-185399224437.5897253196) scale(1,-1) translate(50,-110)"
    />
  
  <line
    x1="96286074890.68924"
    y1="185399224444.85275"
    x2="96286074892.50877"
    y2="185399224454.47162"
    stroke="hsla(0,50%,50%,0.6)"
    stroke-width="1"
    transform="translate(-96286074789.8244615275,-185399224437.5897253196) scale(1,-1) translate(50,-110)"
    />
  
  <line
    x1="96286074803.18385"
    y1="185399224490.01962"
    x2="96286074803.2532"
    y2="185399224490.39316"
    stroke="hsla(0,50%,50%,0.6)"
    stroke-width="1"
    transform="translate(-96286074789.8244615275,-185399224437.5897253196) scale(1,-1) translate(50,-110)"
    />
  
  <line
    x1="96286074803.12418"
    y1="185399224490.19696"
    x2="96286074803.23918"
    y2="185399224490.3988"
    stroke="hsla(0,50%,50%,0.6)"
    stroke-width="1"
    transform="translate(-96286074789.8244615275,-185399224437.5897253196) scale(1,-1) translate(50,-110)"
    />
  
  <line
    x1="96286074843.2001"
    y1="185399224378.9295"
    x2="96286074892.50877"
    y2="185399224454.47162"
    stroke="hsla(0,50%,50%,0.6)"
    stroke-width="1"
    transform="translate(-96286074789.8244615275,-185399224437.5897253196) scale(1,-1) translate(50,-110)"
    />
  
  <line
    x1="96286074764.01535"
    y1="185399224440.56735"
    x2="96286074797.51447"
    y2="185399224491.88882"
    stroke="hsla(0,50%,50%,0.6)"
    stroke-width="1"
    transform="translate(-96286074789.8244615275,-185399224437.5897253196) scale(1,-1) translate(50,-110)"
    />
  
  <line
    x1="96286074803.12418"
    y1="185399224490.19696"
    x2="96286074803.2532"
    y2="185399224490.39316"
    stroke="hsla(0,50%,50%,0.6)"
    stroke-width="1"
    transform="translate(-96286074789.8244615275,-185399224437.5897253196) scale(1,-1) translate(50,-110)"
    />
  
  <line
    x1="96286074799.77567"
    y1="185399224476.6762"
    x2="96286074797.51447"
    y2="185399224491.88882"
    stroke="hsla(0,50%,50%,0.6)"
    stroke-width="1"
    transform="translate(-96286074789.8244615275,-185399224437.5897253196) scale(1,-1) translate(50,-110)"
    />
  
  <line
    x1="96286074787.37361"
    y1="185399224415.36917"
    x2="96286074771.31834"
    y2="185399224444.58115"
    stroke="hsla(0,50%,50%,0.6)"
    stroke-width="1"
    transform="translate(-96286074789.8244615275,-185399224437.5897253196) scale(1,-1) translate(50,-110)"
    />
  
  <line
    x1="96286074764.01535"
    y1="185399224440.56735"
    x2="96286074771.31834"
    y2="185399224444.58115"
    stroke="hsla(0,50%,50%,0.6)"
    stroke-width="1"
    transform="translate(-96286074789.8244615275,-185399224437.5897253196) scale(1,-1) translate(50,-110)"
    />
  
  <line
    x1="96286074871.03773"
    y1="185399224448.5701"
    x2="96286074867.98009"
    y2="185399224452.5262"
    stroke="hsla(0,50%,50%,0.6)"
    stroke-width="1"
    transform="translate(-96286074789.8244615275,-185399224437.5897253196) scale(1,-1) translate(50,-110)"
    />
  
  <line
    x1="96286074787.37361"
    y1="185399224415.36917"
    x2="96286074764.01535"
    y2="185399224440.56735"
    stroke="hsla(0,50%,50%,0.6)"
    stroke-width="1"
    transform="translate(-96286074789.8244615275,-185399224437.5897253196) scale(1,-1) translate(50,-110)"
    />
  
  <line
    x1="96286074867.98009"
    y1="185399224452.5262"
    x2="96286074842.64977"
    y2="185399224474.53772"
    stroke="hsla(0,50%,50%,0.6)"
    stroke-width="1"
    transform="translate(-96286074789.8244615275,-185399224437.5897253196) scale(1,-1) translate(50,-110)"
    />
  
  <line
    x1="96286074819.57529"
    y1="185399224480.11346"
    x2="96286074805.03505"
    y2="185399224489.67606"
    stroke="hsla(0,50%,50%,0.6)"
    stroke-width="1"
    transform="translate(-96286074789.8244615275,-185399224437.5897253196) scale(1,-1) translate(50,-110)"
    />
  
  <line
    x1="96286074843.2001"
    y1="185399224378.9295"
    x2="96286074787.37361"
    y2="185399224415.36917"
    stroke="hsla(0,50%,50%,0.6)"
    stroke-width="1"
    transform="translate(-96286074789.8244615275,-185399224437.5897253196) scale(1,-1) translate(50,-110)"
    />
  
  <line
    x1="96286074871.03773"
    y1="185399224448.5701"
    x2="96286074801.94537"
    y2="185399224490.91953"
    stroke="hsla(0,50%,50%,0.6)"
    stroke-width="1"
    transform="translate(-96286074789.8244615275,-185399224437.5897253196) scale(1,-1) translate(50,-110)"
    />
  
  <line
    x1="96286074867.98009"
    y1="185399224452.5262"
    x2="96286074819.57529"
    y2="185399224480.11346"
    stroke="hsla(0,50%,50%,0.6)"
    stroke-width="1"
    transform="translate(-96286074789.8244615275,-185399224437.5897253196) scale(1,-1) translate(50,-110)"
    />
  
  <line
    x1="96286074842.64977"
    y1="185399224474.53772"
    x2="96286074799.77567"
    y2="185399224476.6762"
    stroke="hsla(0,50%,50%,0.6)"
    stroke-width="1"
    transform="translate(-96286074789.8244615275,-185399224437.5897253196) scale(1,-1) translate(50,-110)"
    />
  
  <line
    x1="96286074892.50877"
    y1="185399224454.47162"
    x2="96286074801.94537"
    y2="185399224490.91953"
    stroke="hsla(0,50%,50%,0.6)"
    stroke-width="1"
    transform="translate(-96286074789.8244615275,-185399224437.5897253196) scale(1,-1) translate(50,-110)"
    />
  
  <line
    x1="96286074805.03505"
    y1="185399224489.67606"
    x2="96286074803.18385"
    y2="185399224490.01962"
    stroke="hsla(0,50%,50%,0.6)"
    stroke-width="1"
    transform="translate(-96286074789.8244615275,-185399224437.5897253196) scale(1,-1) translate(50,-110)"
    />
  
  <line
    x1="96286074890.68924"
    y1="185399224444.85275"
    x2="96286074871.03773"
    y2="185399224448.5701"
    stroke="hsla(0,50%,50%,0.6)"
    stroke-width="1"
    transform="translate(-96286074789.8244615275,-185399224437.5897253196) scale(1,-1) translate(50,-110)"
    />
  
  <line
    x1="96286074801.94537"
    y1="185399224490.91953"
    x2="96286074797.51447"
    y2="185399224491.88882"
    stroke="hsla(0,50%,50%,0.6)"
    stroke-width="1"
    transform="translate(-96286074789.8244615275,-185399224437.5897253196) scale(1,-1) translate(50,-110)"
    />
  
</svg>
