<?xml version="1.0"?>
<!DOCTYPE svg PUBLIC "-//W3C//DTD SVG 1.1//EN"
  "http://www.w3.org/Graphics/SVG/1.1/DTD/svg11.dtd">
<svg
  width="240"
  height="240"
  viewBox="-50 -50 200 200" xmlns="http://www.w3.org/2000/svg" version="1.1">
  <rect
    x="0"
    y="0"
    width="100"
    height="100"
    fill="hsla(206,100%,53%,0.3)"
    stroke="hsl(206,100%,53%)"
    stroke-width="3"
    transform="" />
  
  <path
    d="M 
      57.0590412360
      1.7360274075
      L
    
      64.3059490084
      2.2662889518
      L
    
      66.8297979838
      9.1768278128
      L
    
      75.9850225267
      16.1488771892
      L
    
      69.9590027690
      17.7448885342
      L
    
      100
      100
      L
    
      32.9343712145
      65.4530224402
      z
    "
    fill="hsla(0,0%,50%,0.3)"
    stroke="hsla(0,0%,50%,1)"
    stroke-width="1"
    transform="translate(-58.9458840209,-61.3032391735) scale(1,-1) translate(50,-110)"
    />
  
  
  <line
    x1="57.05904123609271"
    y1="1.7360274075189788"
    x2="75.98502252679377"
    y2="16.148877189250175"
    stroke="hsla(0,50%,50%,0.6)"
    stroke-width="1"
    transform="translate(-58.9458840209,-61.3032391735) scale(1,-1) translate(50,-110)"
    />
  
  <line
    x1="54.547712986770385"
    y1="8.368834797010695"
    x2="62.31687305803742"
    y2="19.76893196745955"
    stroke="hsla(0,50%,50%,0.6)"
    stroke-width="1"
    transform="translate(-58.9458840209,-61.3032391735) scale(1,-1) translate(50,-110)"
    />
  
  <line
    x1="64.30594900849859"
    y1="2.26628895184136"
    x2="100"
    y2="100"
    stroke="hsla(0,50%,50%,0.6)"
    stroke-width="1"
    transform="translate(-58.9458840209,-61.3032391735) scale(1,-1) translate(50,-110)"
    />
  
  <line
    x1="56.35732870771899"
    y1="10.02601908065915"
    x2="100"
    y2="100"
    stroke="hsla(0,50%,50%,0.6)"
    stroke-width="1"
    transform="translate(-58.9458840209,-61.3032391735) scale(1,-1) translate(50,-110)"
    />
  
  <line
    x1="60"
    y1="20"
    x2="100"
    y2="100"
    stroke="hsla(0,50%,50%,0.6)"
    stroke-width="1"
    transform="translate(-58.9458840209,-61.3032391735) scale(1,-1) translate(50,-110)"
    />
  
  <line
    x1="52.32370678773115"
    y1="14.242780090798359"
    x2="60"
    y2="20"
    stroke="hsla(0,50%,50%,0.6)"
    stroke-width="1"
    transform="translate(-58.9458840209,-61.3032391735) scale(1,-1) translate(50,-110)"
    />
  
  <line
    x1="48.88438133874239"
    y1="23.32657200811359"
    x2="100"
    y2="100"
    stroke="hsla(0,50%,50%,0.6)"
    stroke-width="1"
    transform="translate(-58.9458840209,-61.3032391735) scale(1,-1) translate(50,-110)"
    />
  
  <line
    x1="43.06232479743039"
    y1="38.70352627909488"
    x2="56.74104572773175"
    y2="71.48657378620733"
    stroke="hsla(0,50%,50%,0.6)"
    stroke-width="1"
    transform="translate(-58.9458840209,-61.3032391735) scale(1,-1) translate(50,-110)"
    />
  
  <line
    x1="50.778693847974424"
    y1="18.323398881449897"
    x2="55.95411382258188"
    y2="21.454129881453568"
    stroke="hsla(0,50%,50%,0.6)"
    stroke-width="1"
    transform="translate(-58.9458840209,-61.3032391735) scale(1,-1) translate(50,-110)"
    />
  
  <line
    x1="52.49127869802857"
    y1="13.800196686899662"
    x2="56.74104572773175"
    y2="71.48657378620733"
    stroke="hsla(0,50%,50%,0.6)"
    stroke-width="1"
    transform="translate(-58.9458840209,-61.3032391735) scale(1,-1) translate(50,-110)"
    />
  
  <line
    x1="57.05904123609271"
    y1="1.7360274075189788"
    x2="64.30594900849859"
    y2="2.26628895184136"
    stroke="hsla(0,50%,50%,0.6)"
    stroke-width="1"
    transform="translate(-58.9458840209,-61.3032391735) scale(1,-1) translate(50,-110)"
    />
  
  <line
    x1="62.69474319187704"
    y1="15.078245143371289"
    x2="62.31687305803742"
    y2="19.76893196745955"
    stroke="hsla(0,50%,50%,0.6)"
    stroke-width="1"
    transform="translate(-58.9458840209,-61.3032391735) scale(1,-1) translate(50,-110)"
    />
  
  <line
    x1="50.778693847974424"
    y1="18.323398881449897"
    x2="60"
    y2="20"
    stroke="hsla(0,50%,50%,0.6)"
    stroke-width="1"
    transform="translate(-58.9458840209,-61.3032391735) scale(1,-1) translate(50,-110)"
    />
  
  <line
    x1="52.32370678773115"
    y1="14.242780090798359"
    x2="75.98502252679377"
    y2="16.148877189250175"
    stroke="hsla(0,50%,50%,0.6)"
    stroke-width="1"
    transform="translate(-58.9458840209,-61.3032391735) scale(1,-1) translate(50,-110)"
    />
  
  <line
    x1="59.33545355254771"
    y1="15.3941383273909"
    x2="75.98502252679377"
    y2="16.148877189250175"
    stroke="hsla(0,50%,50%,0.6)"
    stroke-width="1"
    transform="translate(-58.9458840209,-61.3032391735) scale(1,-1) translate(50,-110)"
    />
  
  <line
    x1="57.05904123609271"
    y1="1.7360274075189788"
    x2="32.93437121458106"
    y2="65.45302244029152"
    stroke="hsla(0,50%,50%,0.6)"
    stroke-width="1"
    transform="translate(-58.9458840209,-61.3032391735) scale(1,-1) translate(50,-110)"
    />
  
  <line
    x1="65.51724137931035"
    y1="5.582922824302135"
    x2="54.547712986770385"
    y2="8.368834797010695"
    stroke="hsla(0,50%,50%,0.6)"
    stroke-width="1"
    transform="translate(-58.9458840209,-61.3032391735) scale(1,-1) translate(50,-110)"
    />
  
  <line
    x1="59.33545355254771"
    y1="15.3941383273909"
    x2="55.95411382258188"
    y2="21.454129881453568"
    stroke="hsla(0,50%,50%,0.6)"
    stroke-width="1"
    transform="translate(-58.9458840209,-61.3032391735) scale(1,-1) translate(50,-110)"
    />
  
  <line
    x1="65.51724137931035"
    y1="5.582922824302135"
    x2="56.35732870771899"
    y2="10.02601908065915"
    stroke="hsla(0,50%,50%,0.6)"
    stroke-width="1"
    transform="translate(-58.9458840209,-61.3032391735) scale(1,-1) translate(50,-110)"
    />
  
  <line
    x1="64.30594900849859"
    y1="2.26628895184136"
    x2="52.49127869802857"
    y2="13.800196686899662"
    stroke="hsla(0,50%,50%,0.6)"
    stroke-width="1"
    transform="translate(-58.9458840209,-61.3032391735) scale(1,-1) translate(50,-110)"
    />
  
  <line
    x1="75.98502252679377"
    y1="16.148877189250175"
    x2="48.88438133874239"
    y2="23.32657200811359"
    stroke="hsla(0,50%,50%,0.6)"
    stroke-width="1"
    transform="translate(-58.9458840209,-61.3032391735) scale(1,-1) translate(50,-110)"
    />
  
  <line
    x1="60"
    y1="20"
    x2="52.94117647058823"
    y2="29.41176470588235"
    stroke="hsla(0,50%,50%,0.6)"
    stroke-width="1"
    transform="translate(-58.9458840209,-61.3032391735) scale(1,-1) translate(50,-110)"
    />
  
  <line
    x1="32.93437121458106"
    y1="65.45302244029152"
    x2="100"
    y2="100"
    stroke="hsla(0,50%,50%,0.6)"
    stroke-width="1"
    transform="translate(-58.9458840209,-61.3032391735) scale(1,-1) translate(50,-110)"
    />
  
  <line
    x1="72.41379310344827"
    y1="24.46633825944171"
    x2="52.94117647058823"
    y2="29.41176470588235"
    stroke="hsla(0,50%,50%,0.6)"
    stroke-width="1"
    transform="translate(-58.9458840209,-61.3032391735) scale(1,-1) translate(50,-110)"
    />
  
  <line
    x1="72.41379310344827"
    y1="24.46633825944171"
    x2="43.06232479743039"
    y2="38.70352627909488"
    stroke="hsla(0,50%,50%,0.6)"
    stroke-width="1"
    transform="translate(-58.9458840209,-61.3032391735) scale(1,-1) translate(50,-110)"
    />
  
  <line
    x1="32.93437121458106"
    y1="65.45302244029152"
    x2="56.74104572773175"
    y2="71.48657378620733"
    stroke="hsla(0,50%,50%,0.6)"
    stroke-width="1"
    transform="translate(-58.9458840209,-61.3032391735) scale(1,-1) translate(50,-110)"
    />
  
</svg>
