<?xml version="1.0"?>
<!DOCTYPE svg PUBLIC "-//W3C//DTD SVG 1.1//EN"
  "http://www.w3.org/Graphics/SVG/1.1/DTD/svg11.dtd">
<svg
  width="240"
  height="240"
  viewBox="-50 -50 200 200" xmlns="http://www.w3.org/2000/svg" version="1.1">
  <rect
    x="0"
    y="0"
    width="100"
    height="100"
    fill="hsla(206,100%,53%,0.3)"
    stroke="hsl(206,100%,53%)"
    stroke-width="3"
    transform="" />
  
  <path
    d="M 
      -35.7142857142
      6.6666666666
      L
    
      -6.25
      6.6666666666
      L
    
      -6.25
      26.0317460317
      L
    
      -35.7142857142
      26.0317460317
      z
    "
    fill="hsla(0,0%,50%,0.3)"
    stroke="hsla(0,0%,50%,1)"
    stroke-width="1"
    transform="translate(24.6651785714,-21.1904761904) scale(1,-1) translate(50,-110)"
    />
  
  
  <line
    x1="-35.714285714285715"
    y1="6.666666666666667"
    x2="-35.714285714285715"
    y2="26.03174603174603"
    stroke="hsla(0,50%,50%,0.6)"
    stroke-width="1"
    transform="translate(24.6651785714,-21.1904761904) scale(1,-1) translate(50,-110)"
    />
  
  <line
    x1="-31.818181818181817"
    y1="6.666666666666667"
    x2="-31.818181818181817"
    y2="26.03174603174603"
    stroke="hsla(0,50%,50%,0.6)"
    stroke-width="1"
    transform="translate(24.6651785714,-21.1904761904) scale(1,-1) translate(50,-110)"
    />
  
  <line
    x1="-13.636363636363637"
    y1="6.666666666666667"
    x2="-13.636363636363637"
    y2="26.03174603174603"
    stroke="hsla(0,50%,50%,0.6)"
    stroke-width="1"
    transform="translate(24.6651785714,-21.1904761904) scale(1,-1) translate(50,-110)"
    />
  
  <line
    x1="-8.928571428571429"
    y1="6.666666666666667"
    x2="-8.928571428571429"
    y2="26.03174603174603"
    stroke="hsla(0,50%,50%,0.6)"
    stroke-width="1"
    transform="translate(24.6651785714,-21.1904761904) scale(1,-1) translate(50,-110)"
    />
  
  <line
    x1="-6.25"
    y1="6.666666666666667"
    x2="-6.25"
    y2="26.03174603174603"
    stroke="hsla(0,50%,50%,0.6)"
    stroke-width="1"
    transform="translate(24.6651785714,-21.1904761904) scale(1,-1) translate(50,-110)"
    />
  
  <line
    x1="-35.714285714285715"
    y1="6.666666666666667"
    x2="-6.25"
    y2="6.666666666666667"
    stroke="hsla(0,50%,50%,0.6)"
    stroke-width="1"
    transform="translate(24.6651785714,-21.1904761904) scale(1,-1) translate(50,-110)"
    />
  
  <line
    x1="-35.714285714285715"
    y1="12.301587301587302"
    x2="-6.25"
    y2="12.301587301587302"
    stroke="hsla(0,50%,50%,0.6)"
    stroke-width="1"
    transform="translate(24.6651785714,-21.1904761904) scale(1,-1) translate(50,-110)"
    />
  
  <line
    x1="-35.714285714285715"
    y1="13.69047619047619"
    x2="-6.25"
    y2="13.69047619047619"
    stroke="hsla(0,50%,50%,0.6)"
    stroke-width="1"
    transform="translate(24.6651785714,-21.1904761904) scale(1,-1) translate(50,-110)"
    />
  
  <line
    x1="-35.714285714285715"
    y1="17.77777777777778"
    x2="-6.25"
    y2="17.77777777777778"
    stroke="hsla(0,50%,50%,0.6)"
    stroke-width="1"
    transform="translate(24.6651785714,-21.1904761904) scale(1,-1) translate(50,-110)"
    />
  
  <line
    x1="-35.714285714285715"
    y1="24.761904761904763"
    x2="-6.25"
    y2="24.761904761904763"
    stroke="hsla(0,50%,50%,0.6)"
    stroke-width="1"
    transform="translate(24.6651785714,-21.1904761904) scale(1,-1) translate(50,-110)"
    />
  
  <line
    x1="-35.714285714285715"
    y1="26.03174603174603"
    x2="-6.25"
    y2="26.03174603174603"
    stroke="hsla(0,50%,50%,0.6)"
    stroke-width="1"
    transform="translate(24.6651785714,-21.1904761904) scale(1,-1) translate(50,-110)"
    />
  
</svg>
