<?xml version="1.0"?>
<!DOCTYPE svg PUBLIC "-//W3C//DTD SVG 1.1//EN"
  "http://www.w3.org/Graphics/SVG/1.1/DTD/svg11.dtd">
<svg
  width="240"
  height="240"
  viewBox="-50 -50 200 200" xmlns="http://www.w3.org/2000/svg" version="1.1">
  <rect
    x="0"
    y="0"
    width="100"
    height="100"
    fill="hsla(206,100%,53%,0.3)"
    stroke="hsl(206,100%,53%)"
    stroke-width="3"
    transform="" />
  
  <path
    d="M 
      100.0000000000
      199.9999999999
      L
    
      100.0000000000
      299.9999999999
      L
    
      0.0000000000
      299.9999999999
      L
    
      0.0000000000
      199.9999999999
      z
    "
    fill="hsla(0,0%,50%,0.3)"
    stroke="hsla(0,0%,50%,1)"
    stroke-width="1"
    transform="translate(-25.0000000000,-237.4999999999) scale(1,-1) translate(50,-110)"
    />
  
  
  <line
    x1="99.99999999999999"
    y1="199.99999999999997"
    x2="99.99999999999999"
    y2="300"
    stroke="hsla(0,50%,50%,0.6)"
    stroke-width="1"
    transform="translate(-25.0000000000,-237.4999999999) scale(1,-1) translate(50,-110)"
    />
  
  <line
    x1="6.589026030552191e-37"
    y1="200"
    x2="4.020852530019943e-36"
    y2="300"
    stroke="hsla(0,50%,50%,0.6)"
    stroke-width="1"
    transform="translate(-25.0000000000,-237.4999999999) scale(1,-1) translate(50,-110)"
    />
  
  <line
    x1="99.99999999999999"
    y1="199.99999999999997"
    x2="6.589026030552191e-37"
    y2="200"
    stroke="hsla(0,50%,50%,0.6)"
    stroke-width="1"
    transform="translate(-25.0000000000,-237.4999999999) scale(1,-1) translate(50,-110)"
    />
  
  <line
    x1="99.99999999999999"
    y1="300"
    x2="4.020852530019943e-36"
    y2="300"
    stroke="hsla(0,50%,50%,0.6)"
    stroke-width="1"
    transform="translate(-25.0000000000,-237.4999999999) scale(1,-1) translate(50,-110)"
    />
  
</svg>
