<?xml version="1.0"?>
<!DOCTYPE svg PUBLIC "-//W3C//DTD SVG 1.1//EN"
  "http://www.w3.org/Graphics/SVG/1.1/DTD/svg11.dtd">
<svg
  width="240"
  height="240"
  viewBox="-500 -500 1000 1000" xmlns="http://www.w3.org/2000/svg" version="1.1">
  <rect
    x="0"
    y="0"
    width="100"
    height="100"
    fill="hsla(206,100%,53%,0.3)"
    stroke="hsl(206,100%,53%)"
    stroke-width="3"
    transform="" />
  
  <path
    d="M 
      78.2683311650
      82.2819497882
      L
    
      117.9635841849
      101.8634503887
      L
    
      112.8205128205
      113.6752136752
      L
    
      102.2893772893
      109.2872405372
      L
    
      95.4134926651
      106.9219305951
      L
    
      85.2564102564
      129.2735042735
      L
    
      75
      125
      L
    
      75.2716073333
      124.3481423998
      L
    
      72.8005382485
      123.1291990164
      L
    
      82.9160537819
      102.6228013839
      L
    
      85.8451392281
      101.4167073766
      L
    
      72.3580701414
      95.2877349350
      L
    
      73.8266917488
      92.0559695338
      L
    
      73.2258614666
      91.7354897446
      z
    "
    fill="hsla(0,0%,50%,0.3)"
    stroke="hsla(0,0%,50%,1)"
    stroke-width="1"
    transform="translate(-95.1608271631,-105.7777270308)"
    />
  
  
  <line
    x1="78.26833116505661"
    y1="82.28194978824702"
    x2="117.96358418491012"
    y2="101.8634503887844"
    stroke="hsla(0,50%,50%,0.6)"
    stroke-width="1"
    transform="translate(-95.1608271631,-105.7777270308)"
    />
  
  <line
    x1="73.2258614666632"
    y1="91.73548974469355"
    x2="113.11031180382355"
    y2="113.00965087256428"
    stroke="hsla(0,50%,50%,0.6)"
    stroke-width="1"
    transform="translate(-95.1608271631,-105.7777270308)"
    />
  
  <line
    x1="78.26833116505661"
    y1="82.28194978824702"
    x2="72.35807014144545"
    y2="95.2877349350901"
    stroke="hsla(0,50%,50%,0.6)"
    stroke-width="1"
    transform="translate(-95.1608271631,-105.7777270308)"
    />
  
  <line
    x1="84.61538461538461"
    y1="101.92307692307692"
    x2="75"
    y2="125"
    stroke="hsla(0,50%,50%,0.6)"
    stroke-width="1"
    transform="translate(-95.1608271631,-105.7777270308)"
    />
  
  <line
    x1="100.69356872635561"
    y1="95.30264817150064"
    x2="117.96358418491012"
    y2="101.8634503887844"
    stroke="hsla(0,50%,50%,0.6)"
    stroke-width="1"
    transform="translate(-95.1608271631,-105.7777270308)"
    />
  
  <line
    x1="78.26833116505661"
    y1="82.28194978824702"
    x2="73.2258614666632"
    y2="91.73548974469355"
    stroke="hsla(0,50%,50%,0.6)"
    stroke-width="1"
    transform="translate(-95.1608271631,-105.7777270308)"
    />
  
  <line
    x1="72.35807014144545"
    y1="95.2877349350901"
    x2="112.82051282051282"
    y2="113.67521367521367"
    stroke="hsla(0,50%,50%,0.6)"
    stroke-width="1"
    transform="translate(-95.1608271631,-105.7777270308)"
    />
  
  <line
    x1="82.91605378193043"
    y1="102.622801383911"
    x2="72.80053824856242"
    y2="123.12919901643788"
    stroke="hsla(0,50%,50%,0.6)"
    stroke-width="1"
    transform="translate(-95.1608271631,-105.7777270308)"
    />
  
  <line
    x1="100.69356872635561"
    y1="95.30264817150064"
    x2="85.25641025641026"
    y2="129.27350427350427"
    stroke="hsla(0,50%,50%,0.6)"
    stroke-width="1"
    transform="translate(-95.1608271631,-105.7777270308)"
    />
  
  <line
    x1="84.61538461538461"
    y1="101.92307692307692"
    x2="112.82051282051282"
    y2="113.67521367521367"
    stroke="hsla(0,50%,50%,0.6)"
    stroke-width="1"
    transform="translate(-95.1608271631,-105.7777270308)"
    />
  
  <line
    x1="117.96358418491012"
    y1="101.8634503887844"
    x2="112.82051282051282"
    y2="113.67521367521367"
    stroke="hsla(0,50%,50%,0.6)"
    stroke-width="1"
    transform="translate(-95.1608271631,-105.7777270308)"
    />
  
  <line
    x1="82.91605378193043"
    y1="102.622801383911"
    x2="113.11031180382355"
    y2="113.00965087256428"
    stroke="hsla(0,50%,50%,0.6)"
    stroke-width="1"
    transform="translate(-95.1608271631,-105.7777270308)"
    />
  
  <line
    x1="72.80053824856242"
    y1="123.12919901643788"
    x2="85.25641025641026"
    y2="129.27350427350427"
    stroke="hsla(0,50%,50%,0.6)"
    stroke-width="1"
    transform="translate(-95.1608271631,-105.7777270308)"
    />
  
  <line
    x1="75"
    y1="125"
    x2="85.25641025641026"
    y2="129.27350427350427"
    stroke="hsla(0,50%,50%,0.6)"
    stroke-width="1"
    transform="translate(-95.1608271631,-105.7777270308)"
    />
  
  <line
    x1="100.69356872635561"
    y1="95.30264817150064"
    x2="82.91605378193043"
    y2="102.622801383911"
    stroke="hsla(0,50%,50%,0.6)"
    stroke-width="1"
    transform="translate(-95.1608271631,-105.7777270308)"
    />
  
</svg>
