<?xml version="1.0"?>
<!DOCTYPE svg PUBLIC "-//W3C//DTD SVG 1.1//EN"
  "http://www.w3.org/Graphics/SVG/1.1/DTD/svg11.dtd">
<svg
  width="240"
  height="240"
  viewBox="-50 -50 200 200" xmlns="http://www.w3.org/2000/svg" version="1.1">
  <rect
    x="0"
    y="0"
    width="100"
    height="100"
    fill="hsla(206,100%,53%,0.3)"
    stroke="hsl(206,100%,53%)"
    stroke-width="3"
    transform="" />
  
  <path
    d="M 
      11.0602910602
      -9.0228690228
      L
    
      17.0130327580
      0
      L
    
      82.9869672419
      0
      L
    
      88.9397089397
      -9.0228690228
      L
    
      90.7894736842
      0
      L
    
      81.5296989422
      11.3506916192
      L
    
      86.7647058823
      13.2352941176
      L
    
      88.5269121813
      31.8696883852
      L
    
      77.3641851106
      22.6358148893
      L
    
      50
      50
      L
    
      22.6358148893
      22.6358148893
      L
    
      11.4730878186
      31.8696883852
      L
    
      13.2352941176
      13.2352941176
      L
    
      18.4703010577
      11.3506916192
      L
    
      9.2105263157
      0
      z
    "
    fill="hsla(0,0%,50%,0.3)"
    stroke="hsla(0,0%,50%,1)"
    stroke-width="1"
    transform="translate(-14.3601227992,-8.3080739654) scale(1,-1) translate(50,-110)"
    />
  
  
  <line
    x1="50"
    y1="0"
    x2="88.52691218130312"
    y2="31.86968838526912"
    stroke="hsla(0,50%,50%,0.6)"
    stroke-width="1"
    transform="translate(-14.3601227992,-8.3080739654) scale(1,-1) translate(50,-110)"
    />
  
  <line
    x1="88.93970893970894"
    y1="-9.022869022869022"
    x2="90.78947368421052"
    y2="0"
    stroke="hsla(0,50%,50%,0.6)"
    stroke-width="1"
    transform="translate(-14.3601227992,-8.3080739654) scale(1,-1) translate(50,-110)"
    />
  
  <line
    x1="50"
    y1="0"
    x2="86.76470588235294"
    y2="13.235294117647058"
    stroke="hsla(0,50%,50%,0.6)"
    stroke-width="1"
    transform="translate(-14.3601227992,-8.3080739654) scale(1,-1) translate(50,-110)"
    />
  
  <line
    x1="86.76470588235294"
    y1="13.235294117647058"
    x2="88.52691218130312"
    y2="31.86968838526912"
    stroke="hsla(0,50%,50%,0.6)"
    stroke-width="1"
    transform="translate(-14.3601227992,-8.3080739654) scale(1,-1) translate(50,-110)"
    />
  
  <line
    x1="11.06029106029106"
    y1="-9.022869022869022"
    x2="50"
    y2="50"
    stroke="hsla(0,50%,50%,0.6)"
    stroke-width="1"
    transform="translate(-14.3601227992,-8.3080739654) scale(1,-1) translate(50,-110)"
    />
  
  <line
    x1="9.210526315789474"
    y1="0"
    x2="50"
    y2="50"
    stroke="hsla(0,50%,50%,0.6)"
    stroke-width="1"
    transform="translate(-14.3601227992,-8.3080739654) scale(1,-1) translate(50,-110)"
    />
  
  <line
    x1="9.210526315789474"
    y1="0"
    x2="90.78947368421052"
    y2="0"
    stroke="hsla(0,50%,50%,0.6)"
    stroke-width="1"
    transform="translate(-14.3601227992,-8.3080739654) scale(1,-1) translate(50,-110)"
    />
  
  <line
    x1="13.235294117647058"
    y1="13.235294117647058"
    x2="50"
    y2="50"
    stroke="hsla(0,50%,50%,0.6)"
    stroke-width="1"
    transform="translate(-14.3601227992,-8.3080739654) scale(1,-1) translate(50,-110)"
    />
  
  <line
    x1="50"
    y1="0"
    x2="50"
    y2="50"
    stroke="hsla(0,50%,50%,0.6)"
    stroke-width="1"
    transform="translate(-14.3601227992,-8.3080739654) scale(1,-1) translate(50,-110)"
    />
  
  <line
    x1="13.235294117647058"
    y1="13.235294117647058"
    x2="11.473087818696884"
    y2="31.86968838526912"
    stroke="hsla(0,50%,50%,0.6)"
    stroke-width="1"
    transform="translate(-14.3601227992,-8.3080739654) scale(1,-1) translate(50,-110)"
    />
  
  <line
    x1="11.06029106029106"
    y1="-9.022869022869022"
    x2="9.210526315789474"
    y2="0"
    stroke="hsla(0,50%,50%,0.6)"
    stroke-width="1"
    transform="translate(-14.3601227992,-8.3080739654) scale(1,-1) translate(50,-110)"
    />
  
  <line
    x1="50"
    y1="0"
    x2="13.235294117647058"
    y2="13.235294117647058"
    stroke="hsla(0,50%,50%,0.6)"
    stroke-width="1"
    transform="translate(-14.3601227992,-8.3080739654) scale(1,-1) translate(50,-110)"
    />
  
  <line
    x1="50"
    y1="0"
    x2="11.473087818696884"
    y2="31.86968838526912"
    stroke="hsla(0,50%,50%,0.6)"
    stroke-width="1"
    transform="translate(-14.3601227992,-8.3080739654) scale(1,-1) translate(50,-110)"
    />
  
  <line
    x1="88.93970893970894"
    y1="-9.022869022869022"
    x2="50"
    y2="50"
    stroke="hsla(0,50%,50%,0.6)"
    stroke-width="1"
    transform="translate(-14.3601227992,-8.3080739654) scale(1,-1) translate(50,-110)"
    />
  
  <line
    x1="90.78947368421052"
    y1="0"
    x2="50"
    y2="50"
    stroke="hsla(0,50%,50%,0.6)"
    stroke-width="1"
    transform="translate(-14.3601227992,-8.3080739654) scale(1,-1) translate(50,-110)"
    />
  
  <line
    x1="86.76470588235294"
    y1="13.235294117647058"
    x2="50"
    y2="50"
    stroke="hsla(0,50%,50%,0.6)"
    stroke-width="1"
    transform="translate(-14.3601227992,-8.3080739654) scale(1,-1) translate(50,-110)"
    />
  
</svg>
