<?xml version="1.0"?>
<!DOCTYPE svg PUBLIC "-//W3C//DTD SVG 1.1//EN"
  "http://www.w3.org/Graphics/SVG/1.1/DTD/svg11.dtd">
<svg
  width="240"
  height="240"
  viewBox="-50 -50 200 200" xmlns="http://www.w3.org/2000/svg" version="1.1">
  <rect
    x="0"
    y="0"
    width="100"
    height="100"
    fill="hsla(206,100%,53%,0.3)"
    stroke="hsl(206,100%,53%)"
    stroke-width="3"
    transform="" />
  
  <path
    d="M 
      28.8900152052
      -17.4860618347
      L
    
      34.3597446488
      0
      L
    
      65.6402553511
      0
      L
    
      71.1099847947
      -17.4860618347
      L
    
      80.2631578947
      0
      L
    
      77.4034511092
      4.7247329498
      L
    
      92.6470588235
      7.3529411764
      L
    
      97.1131639722
      16.7436489607
      L
    
      86.8896925858
      13.1103074141
      L
    
      50
      50
      L
    
      13.1103074141
      13.1103074141
      L
    
      2.8868360277
      16.7436489607
      L
    
      7.3529411764
      7.3529411764
      L
    
      22.5965488907
      4.7247329498
      L
    
      19.7368421052
      0
      z
    "
    fill="hsla(0,0%,50%,0.3)"
    stroke="hsla(0,0%,50%,1)"
    stroke-width="1"
    transform="translate(-19.1911899120,-4.5191940943) scale(1,-1) translate(50,-110)"
    />
  
  
  <line
    x1="92.6470588235294"
    y1="7.352941176470588"
    x2="97.11316397228637"
    y2="16.74364896073903"
    stroke="hsla(0,50%,50%,0.6)"
    stroke-width="1"
    transform="translate(-19.1911899120,-4.5191940943) scale(1,-1) translate(50,-110)"
    />
  
  <line
    x1="71.10998479472885"
    y1="-17.486061834769387"
    x2="80.26315789473684"
    y2="0"
    stroke="hsla(0,50%,50%,0.6)"
    stroke-width="1"
    transform="translate(-19.1911899120,-4.5191940943) scale(1,-1) translate(50,-110)"
    />
  
  <line
    x1="50"
    y1="0"
    x2="97.11316397228637"
    y2="16.74364896073903"
    stroke="hsla(0,50%,50%,0.6)"
    stroke-width="1"
    transform="translate(-19.1911899120,-4.5191940943) scale(1,-1) translate(50,-110)"
    />
  
  <line
    x1="28.890015205271162"
    y1="-17.486061834769387"
    x2="50"
    y2="50"
    stroke="hsla(0,50%,50%,0.6)"
    stroke-width="1"
    transform="translate(-19.1911899120,-4.5191940943) scale(1,-1) translate(50,-110)"
    />
  
  <line
    x1="19.736842105263158"
    y1="0"
    x2="50"
    y2="50"
    stroke="hsla(0,50%,50%,0.6)"
    stroke-width="1"
    transform="translate(-19.1911899120,-4.5191940943) scale(1,-1) translate(50,-110)"
    />
  
  <line
    x1="50"
    y1="0"
    x2="92.6470588235294"
    y2="7.352941176470588"
    stroke="hsla(0,50%,50%,0.6)"
    stroke-width="1"
    transform="translate(-19.1911899120,-4.5191940943) scale(1,-1) translate(50,-110)"
    />
  
  <line
    x1="19.736842105263158"
    y1="0"
    x2="80.26315789473684"
    y2="0"
    stroke="hsla(0,50%,50%,0.6)"
    stroke-width="1"
    transform="translate(-19.1911899120,-4.5191940943) scale(1,-1) translate(50,-110)"
    />
  
  <line
    x1="7.352941176470588"
    y1="7.352941176470588"
    x2="50"
    y2="50"
    stroke="hsla(0,50%,50%,0.6)"
    stroke-width="1"
    transform="translate(-19.1911899120,-4.5191940943) scale(1,-1) translate(50,-110)"
    />
  
  <line
    x1="50"
    y1="0"
    x2="50"
    y2="50"
    stroke="hsla(0,50%,50%,0.6)"
    stroke-width="1"
    transform="translate(-19.1911899120,-4.5191940943) scale(1,-1) translate(50,-110)"
    />
  
  <line
    x1="7.352941176470588"
    y1="7.352941176470588"
    x2="2.886836027713626"
    y2="16.74364896073903"
    stroke="hsla(0,50%,50%,0.6)"
    stroke-width="1"
    transform="translate(-19.1911899120,-4.5191940943) scale(1,-1) translate(50,-110)"
    />
  
  <line
    x1="28.890015205271162"
    y1="-17.486061834769387"
    x2="19.736842105263158"
    y2="0"
    stroke="hsla(0,50%,50%,0.6)"
    stroke-width="1"
    transform="translate(-19.1911899120,-4.5191940943) scale(1,-1) translate(50,-110)"
    />
  
  <line
    x1="50"
    y1="0"
    x2="7.352941176470588"
    y2="7.352941176470588"
    stroke="hsla(0,50%,50%,0.6)"
    stroke-width="1"
    transform="translate(-19.1911899120,-4.5191940943) scale(1,-1) translate(50,-110)"
    />
  
  <line
    x1="50"
    y1="0"
    x2="2.886836027713626"
    y2="16.74364896073903"
    stroke="hsla(0,50%,50%,0.6)"
    stroke-width="1"
    transform="translate(-19.1911899120,-4.5191940943) scale(1,-1) translate(50,-110)"
    />
  
  <line
    x1="71.10998479472885"
    y1="-17.486061834769387"
    x2="50"
    y2="50"
    stroke="hsla(0,50%,50%,0.6)"
    stroke-width="1"
    transform="translate(-19.1911899120,-4.5191940943) scale(1,-1) translate(50,-110)"
    />
  
  <line
    x1="80.26315789473684"
    y1="0"
    x2="50"
    y2="50"
    stroke="hsla(0,50%,50%,0.6)"
    stroke-width="1"
    transform="translate(-19.1911899120,-4.5191940943) scale(1,-1) translate(50,-110)"
    />
  
  <line
    x1="92.6470588235294"
    y1="7.352941176470588"
    x2="50"
    y2="50"
    stroke="hsla(0,50%,50%,0.6)"
    stroke-width="1"
    transform="translate(-19.1911899120,-4.5191940943) scale(1,-1) translate(50,-110)"
    />
  
</svg>
