<?xml version="1.0"?>
<!DOCTYPE svg PUBLIC "-//W3C//DTD SVG 1.1//EN"
  "http://www.w3.org/Graphics/SVG/1.1/DTD/svg11.dtd">
<svg
  width="240"
  height="240"
  viewBox="-50 -50 200 200" xmlns="http://www.w3.org/2000/svg" version="1.1">
  <rect
    x="0"
    y="0"
    width="100"
    height="100"
    fill="hsla(206,100%,53%,0.3)"
    stroke="hsl(206,100%,53%)"
    stroke-width="3"
    transform="" />
  
  <path
    d="M 
      19.2360791532
      -13.6677404509
      L
    
      25.8402602096
      0
      L
    
      74.1597397903
      0
      L
    
      80.7639208467
      -13.6677404509
      L
    
      85.5263157894
      0
      L
    
      81.6491511721
      5.4567502021
      L
    
      92.6470588235
      7.3529411764
      L
    
      97.1131639722
      16.7436489607
      L
    
      86.8896925858
      13.1103074141
      L
    
      50
      50
      L
    
      13.1103074141
      13.1103074141
      L
    
      2.8868360277
      16.7436489607
      L
    
      7.3529411764
      7.3529411764
      L
    
      18.3508488278
      5.4567502021
      L
    
      14.4736842105
      0
      z
    "
    fill="hsla(0,0%,50%,0.3)"
    stroke="hsla(0,0%,50%,1)"
    stroke-width="1"
    transform="translate(-15.5071897182,-4.7040785272) scale(1,-1) translate(50,-110)"
    />
  
  
  <line
    x1="92.6470588235294"
    y1="7.352941176470588"
    x2="97.11316397228637"
    y2="16.74364896073903"
    stroke="hsla(0,50%,50%,0.6)"
    stroke-width="1"
    transform="translate(-15.5071897182,-4.7040785272) scale(1,-1) translate(50,-110)"
    />
  
  <line
    x1="80.76392084675564"
    y1="-13.667740450989415"
    x2="85.52631578947368"
    y2="0"
    stroke="hsla(0,50%,50%,0.6)"
    stroke-width="1"
    transform="translate(-15.5071897182,-4.7040785272) scale(1,-1) translate(50,-110)"
    />
  
  <line
    x1="50"
    y1="0"
    x2="97.11316397228637"
    y2="16.74364896073903"
    stroke="hsla(0,50%,50%,0.6)"
    stroke-width="1"
    transform="translate(-15.5071897182,-4.7040785272) scale(1,-1) translate(50,-110)"
    />
  
  <line
    x1="19.23607915324436"
    y1="-13.667740450989415"
    x2="50"
    y2="50"
    stroke="hsla(0,50%,50%,0.6)"
    stroke-width="1"
    transform="translate(-15.5071897182,-4.7040785272) scale(1,-1) translate(50,-110)"
    />
  
  <line
    x1="50"
    y1="0"
    x2="92.6470588235294"
    y2="7.352941176470588"
    stroke="hsla(0,50%,50%,0.6)"
    stroke-width="1"
    transform="translate(-15.5071897182,-4.7040785272) scale(1,-1) translate(50,-110)"
    />
  
  <line
    x1="14.473684210526315"
    y1="0"
    x2="50"
    y2="50"
    stroke="hsla(0,50%,50%,0.6)"
    stroke-width="1"
    transform="translate(-15.5071897182,-4.7040785272) scale(1,-1) translate(50,-110)"
    />
  
  <line
    x1="14.473684210526315"
    y1="0"
    x2="85.52631578947368"
    y2="0"
    stroke="hsla(0,50%,50%,0.6)"
    stroke-width="1"
    transform="translate(-15.5071897182,-4.7040785272) scale(1,-1) translate(50,-110)"
    />
  
  <line
    x1="7.352941176470588"
    y1="7.352941176470588"
    x2="50"
    y2="50"
    stroke="hsla(0,50%,50%,0.6)"
    stroke-width="1"
    transform="translate(-15.5071897182,-4.7040785272) scale(1,-1) translate(50,-110)"
    />
  
  <line
    x1="50"
    y1="0"
    x2="50"
    y2="50"
    stroke="hsla(0,50%,50%,0.6)"
    stroke-width="1"
    transform="translate(-15.5071897182,-4.7040785272) scale(1,-1) translate(50,-110)"
    />
  
  <line
    x1="7.352941176470588"
    y1="7.352941176470588"
    x2="2.886836027713626"
    y2="16.74364896073903"
    stroke="hsla(0,50%,50%,0.6)"
    stroke-width="1"
    transform="translate(-15.5071897182,-4.7040785272) scale(1,-1) translate(50,-110)"
    />
  
  <line
    x1="19.23607915324436"
    y1="-13.667740450989415"
    x2="14.473684210526315"
    y2="0"
    stroke="hsla(0,50%,50%,0.6)"
    stroke-width="1"
    transform="translate(-15.5071897182,-4.7040785272) scale(1,-1) translate(50,-110)"
    />
  
  <line
    x1="50"
    y1="0"
    x2="7.352941176470588"
    y2="7.352941176470588"
    stroke="hsla(0,50%,50%,0.6)"
    stroke-width="1"
    transform="translate(-15.5071897182,-4.7040785272) scale(1,-1) translate(50,-110)"
    />
  
  <line
    x1="50"
    y1="0"
    x2="2.886836027713626"
    y2="16.74364896073903"
    stroke="hsla(0,50%,50%,0.6)"
    stroke-width="1"
    transform="translate(-15.5071897182,-4.7040785272) scale(1,-1) translate(50,-110)"
    />
  
  <line
    x1="80.76392084675564"
    y1="-13.667740450989415"
    x2="50"
    y2="50"
    stroke="hsla(0,50%,50%,0.6)"
    stroke-width="1"
    transform="translate(-15.5071897182,-4.7040785272) scale(1,-1) translate(50,-110)"
    />
  
  <line
    x1="85.52631578947368"
    y1="0"
    x2="50"
    y2="50"
    stroke="hsla(0,50%,50%,0.6)"
    stroke-width="1"
    transform="translate(-15.5071897182,-4.7040785272) scale(1,-1) translate(50,-110)"
    />
  
  <line
    x1="92.6470588235294"
    y1="7.352941176470588"
    x2="50"
    y2="50"
    stroke="hsla(0,50%,50%,0.6)"
    stroke-width="1"
    transform="translate(-15.5071897182,-4.7040785272) scale(1,-1) translate(50,-110)"
    />
  
</svg>
