<?xml version="1.0"?>
<!DOCTYPE svg PUBLIC "-//W3C//DTD SVG 1.1//EN"
  "http://www.w3.org/Graphics/SVG/1.1/DTD/svg11.dtd">
<svg
  width="240"
  height="240"
  viewBox="-500 -500 1000 1000" xmlns="http://www.w3.org/2000/svg" version="1.1">
  <rect
    x="0"
    y="0"
    width="100"
    height="100"
    fill="hsla(206,100%,53%,0.3)"
    stroke="hsl(206,100%,53%)"
    stroke-width="3"
    transform="" />
  
  <path
    d="M 
      4.2712626451
      -3.9340576995
      L
    
      7.6068079194
      0
      L
    
      92.3931920805
      0
      L
    
      95.7287373548
      -3.9340576995
      L
    
      96.0526315789
      0
      L
    
      89.7415818324
      6.8519968676
      L
    
      92.6470588235
      7.3529411764
      L
    
      97.1131639722
      16.7436489607
      L
    
      86.8896925858
      13.1103074141
      L
    
      50
      50
      L
    
      13.1103074141
      13.1103074141
      L
    
      2.8868360277
      16.7436489607
      L
    
      7.3529411764
      7.3529411764
      L
    
      10.2584181675
      6.8519968676
      L
    
      3.9473684210
      0
      z
    "
    fill="hsla(0,0%,50%,0.3)"
    stroke="hsla(0,0%,50%,1)"
    stroke-width="1"
    transform="translate(-50,-23.0329711502)"
    />
  
  
  <line
    x1="92.6470588235294"
    y1="7.352941176470588"
    x2="97.11316397228637"
    y2="16.74364896073903"
    stroke="hsla(0,50%,50%,0.6)"
    stroke-width="1"
    transform="translate(-50,-23.0329711502)"
    />
  
  <line
    x1="50"
    y1="0"
    x2="97.11316397228637"
    y2="16.74364896073903"
    stroke="hsla(0,50%,50%,0.6)"
    stroke-width="1"
    transform="translate(-50,-23.0329711502)"
    />
  
  <line
    x1="50"
    y1="0"
    x2="92.6470588235294"
    y2="7.352941176470588"
    stroke="hsla(0,50%,50%,0.6)"
    stroke-width="1"
    transform="translate(-50,-23.0329711502)"
    />
  
  <line
    x1="95.72873735481454"
    y1="-3.9340576995129264"
    x2="96.05263157894737"
    y2="0"
    stroke="hsla(0,50%,50%,0.6)"
    stroke-width="1"
    transform="translate(-50,-23.0329711502)"
    />
  
  <line
    x1="4.2712626451854625"
    y1="-3.9340576995129264"
    x2="50"
    y2="50"
    stroke="hsla(0,50%,50%,0.6)"
    stroke-width="1"
    transform="translate(-50,-23.0329711502)"
    />
  
  <line
    x1="3.9473684210526314"
    y1="0"
    x2="50"
    y2="50"
    stroke="hsla(0,50%,50%,0.6)"
    stroke-width="1"
    transform="translate(-50,-23.0329711502)"
    />
  
  <line
    x1="3.9473684210526314"
    y1="0"
    x2="96.05263157894737"
    y2="0"
    stroke="hsla(0,50%,50%,0.6)"
    stroke-width="1"
    transform="translate(-50,-23.0329711502)"
    />
  
  <line
    x1="7.352941176470588"
    y1="7.352941176470588"
    x2="50"
    y2="50"
    stroke="hsla(0,50%,50%,0.6)"
    stroke-width="1"
    transform="translate(-50,-23.0329711502)"
    />
  
  <line
    x1="50"
    y1="0"
    x2="50"
    y2="50"
    stroke="hsla(0,50%,50%,0.6)"
    stroke-width="1"
    transform="translate(-50,-23.0329711502)"
    />
  
  <line
    x1="4.2712626451854625"
    y1="-3.9340576995129264"
    x2="3.9473684210526314"
    y2="0"
    stroke="hsla(0,50%,50%,0.6)"
    stroke-width="1"
    transform="translate(-50,-23.0329711502)"
    />
  
  <line
    x1="7.352941176470588"
    y1="7.352941176470588"
    x2="2.886836027713626"
    y2="16.74364896073903"
    stroke="hsla(0,50%,50%,0.6)"
    stroke-width="1"
    transform="translate(-50,-23.0329711502)"
    />
  
  <line
    x1="50"
    y1="0"
    x2="7.352941176470588"
    y2="7.352941176470588"
    stroke="hsla(0,50%,50%,0.6)"
    stroke-width="1"
    transform="translate(-50,-23.0329711502)"
    />
  
  <line
    x1="50"
    y1="0"
    x2="2.886836027713626"
    y2="16.74364896073903"
    stroke="hsla(0,50%,50%,0.6)"
    stroke-width="1"
    transform="translate(-50,-23.0329711502)"
    />
  
  <line
    x1="95.72873735481454"
    y1="-3.9340576995129264"
    x2="50"
    y2="50"
    stroke="hsla(0,50%,50%,0.6)"
    stroke-width="1"
    transform="translate(-50,-23.0329711502)"
    />
  
  <line
    x1="96.05263157894737"
    y1="0"
    x2="50"
    y2="50"
    stroke="hsla(0,50%,50%,0.6)"
    stroke-width="1"
    transform="translate(-50,-23.0329711502)"
    />
  
  <line
    x1="92.6470588235294"
    y1="7.352941176470588"
    x2="50"
    y2="50"
    stroke="hsla(0,50%,50%,0.6)"
    stroke-width="1"
    transform="translate(-50,-23.0329711502)"
    />
  
</svg>
