<?xml version="1.0"?>
<!DOCTYPE svg PUBLIC "-//W3C//DTD SVG 1.1//EN"
  "http://www.w3.org/Graphics/SVG/1.1/DTD/svg11.dtd">
<svg
  width="240"
  height="240"
  viewBox="-500 -500 1000 1000" xmlns="http://www.w3.org/2000/svg" version="1.1">
  <rect
    x="0"
    y="0"
    width="100"
    height="100"
    fill="hsla(206,100%,53%,0.3)"
    stroke="hsl(206,100%,53%)"
    stroke-width="3"
    transform="" />
  
  <path
    d="M 
      28.8900152052
      -17.4860618347
      L
    
      34.3597446488
      0
      L
    
      65.6402553511
      0
      L
    
      71.1099847947
      -17.4860618347
      L
    
      80.2631578947
      0
      L
    
      79.7180892717
      0.9005481597
      L
    
      98.5294117647
      1.4705882352
      L
    
      99.9082568807
      3.0275229357
      L
    
      97.1403812824
      2.8596187175
      L
    
      50
      50
      L
    
      2.8596187175
      2.8596187175
      L
    
      0.0917431192
      3.0275229357
      L
    
      1.4705882352
      1.4705882352
      L
    
      20.2819107282
      0.9005481597
      L
    
      19.7368421052
      0
      z
    "
    fill="hsla(0,0%,50%,0.3)"
    stroke="hsla(0,0%,50%,1)"
    stroke-width="1"
    transform="translate(-50,-16.2569690826)"
    />
  
  
  <line
    x1="98.52941176470588"
    y1="1.4705882352941178"
    x2="99.90825688073394"
    y2="3.0275229357798166"
    stroke="hsla(0,50%,50%,0.6)"
    stroke-width="1"
    transform="translate(-50,-16.2569690826)"
    />
  
  <line
    x1="71.10998479472885"
    y1="-17.486061834769387"
    x2="80.26315789473684"
    y2="0"
    stroke="hsla(0,50%,50%,0.6)"
    stroke-width="1"
    transform="translate(-50,-16.2569690826)"
    />
  
  <line
    x1="28.890015205271162"
    y1="-17.486061834769387"
    x2="50"
    y2="50"
    stroke="hsla(0,50%,50%,0.6)"
    stroke-width="1"
    transform="translate(-50,-16.2569690826)"
    />
  
  <line
    x1="19.736842105263158"
    y1="0"
    x2="50"
    y2="50"
    stroke="hsla(0,50%,50%,0.6)"
    stroke-width="1"
    transform="translate(-50,-16.2569690826)"
    />
  
  <line
    x1="50"
    y1="0"
    x2="99.90825688073394"
    y2="3.0275229357798166"
    stroke="hsla(0,50%,50%,0.6)"
    stroke-width="1"
    transform="translate(-50,-16.2569690826)"
    />
  
  <line
    x1="50"
    y1="0"
    x2="98.52941176470588"
    y2="1.4705882352941178"
    stroke="hsla(0,50%,50%,0.6)"
    stroke-width="1"
    transform="translate(-50,-16.2569690826)"
    />
  
  <line
    x1="19.736842105263158"
    y1="0"
    x2="80.26315789473684"
    y2="0"
    stroke="hsla(0,50%,50%,0.6)"
    stroke-width="1"
    transform="translate(-50,-16.2569690826)"
    />
  
  <line
    x1="1.4705882352941178"
    y1="1.4705882352941178"
    x2="50"
    y2="50"
    stroke="hsla(0,50%,50%,0.6)"
    stroke-width="1"
    transform="translate(-50,-16.2569690826)"
    />
  
  <line
    x1="50"
    y1="0"
    x2="50"
    y2="50"
    stroke="hsla(0,50%,50%,0.6)"
    stroke-width="1"
    transform="translate(-50,-16.2569690826)"
    />
  
  <line
    x1="1.4705882352941178"
    y1="1.4705882352941178"
    x2="0.09174311926605505"
    y2="3.0275229357798166"
    stroke="hsla(0,50%,50%,0.6)"
    stroke-width="1"
    transform="translate(-50,-16.2569690826)"
    />
  
  <line
    x1="50"
    y1="0"
    x2="1.4705882352941178"
    y2="1.4705882352941178"
    stroke="hsla(0,50%,50%,0.6)"
    stroke-width="1"
    transform="translate(-50,-16.2569690826)"
    />
  
  <line
    x1="50"
    y1="0"
    x2="0.09174311926605505"
    y2="3.0275229357798166"
    stroke="hsla(0,50%,50%,0.6)"
    stroke-width="1"
    transform="translate(-50,-16.2569690826)"
    />
  
  <line
    x1="28.890015205271162"
    y1="-17.486061834769387"
    x2="19.736842105263158"
    y2="0"
    stroke="hsla(0,50%,50%,0.6)"
    stroke-width="1"
    transform="translate(-50,-16.2569690826)"
    />
  
  <line
    x1="71.10998479472885"
    y1="-17.486061834769387"
    x2="50"
    y2="50"
    stroke="hsla(0,50%,50%,0.6)"
    stroke-width="1"
    transform="translate(-50,-16.2569690826)"
    />
  
  <line
    x1="80.26315789473684"
    y1="0"
    x2="50"
    y2="50"
    stroke="hsla(0,50%,50%,0.6)"
    stroke-width="1"
    transform="translate(-50,-16.2569690826)"
    />
  
  <line
    x1="98.52941176470588"
    y1="1.4705882352941178"
    x2="50"
    y2="50"
    stroke="hsla(0,50%,50%,0.6)"
    stroke-width="1"
    transform="translate(-50,-16.2569690826)"
    />
  
</svg>
