<?xml version="1.0"?>
<!DOCTYPE svg PUBLIC "-//W3C//DTD SVG 1.1//EN"
  "http://www.w3.org/Graphics/SVG/1.1/DTD/svg11.dtd">
<svg
  width="240"
  height="240"
  viewBox="-500 -500 1000 1000" xmlns="http://www.w3.org/2000/svg" version="1.1">
  <rect
    x="0"
    y="0"
    width="100"
    height="100"
    fill="hsla(206,100%,53%,0.3)"
    stroke="hsl(206,100%,53%)"
    stroke-width="3"
    transform="" />
  
  <path
    d="M 
      11.0602910602
      -9.0228690228
      L
    
      17.0130327580
      0
      L
    
      82.9869672419
      0
      L
    
      88.9397089397
      -9.0228690228
      L
    
      90.7894736842
      0
      L
    
      89.8054474708
      1.2062256809
      L
    
      98.5294117647
      1.4705882352
      L
    
      99.9082568807
      3.0275229357
      L
    
      97.1403812824
      2.8596187175
      L
    
      50
      50
      L
    
      2.8596187175
      2.8596187175
      L
    
      0.0917431192
      3.0275229357
      L
    
      1.4705882352
      1.4705882352
      L
    
      10.1945525291
      1.2062256809
      L
    
      9.2105263157
      0
      z
    "
    fill="hsla(0,0%,50%,0.3)"
    stroke="hsla(0,0%,50%,1)"
    stroke-width="1"
    transform="translate(-50,-20.4885654885)"
    />
  
  
  <line
    x1="98.52941176470588"
    y1="1.4705882352941178"
    x2="99.90825688073394"
    y2="3.0275229357798166"
    stroke="hsla(0,50%,50%,0.6)"
    stroke-width="1"
    transform="translate(-50,-20.4885654885)"
    />
  
  <line
    x1="88.93970893970894"
    y1="-9.022869022869022"
    x2="90.78947368421052"
    y2="0"
    stroke="hsla(0,50%,50%,0.6)"
    stroke-width="1"
    transform="translate(-50,-20.4885654885)"
    />
  
  <line
    x1="11.06029106029106"
    y1="-9.022869022869022"
    x2="50"
    y2="50"
    stroke="hsla(0,50%,50%,0.6)"
    stroke-width="1"
    transform="translate(-50,-20.4885654885)"
    />
  
  <line
    x1="9.210526315789474"
    y1="0"
    x2="50"
    y2="50"
    stroke="hsla(0,50%,50%,0.6)"
    stroke-width="1"
    transform="translate(-50,-20.4885654885)"
    />
  
  <line
    x1="50"
    y1="0"
    x2="99.90825688073394"
    y2="3.0275229357798166"
    stroke="hsla(0,50%,50%,0.6)"
    stroke-width="1"
    transform="translate(-50,-20.4885654885)"
    />
  
  <line
    x1="50"
    y1="0"
    x2="98.52941176470588"
    y2="1.4705882352941178"
    stroke="hsla(0,50%,50%,0.6)"
    stroke-width="1"
    transform="translate(-50,-20.4885654885)"
    />
  
  <line
    x1="9.210526315789474"
    y1="0"
    x2="90.78947368421052"
    y2="0"
    stroke="hsla(0,50%,50%,0.6)"
    stroke-width="1"
    transform="translate(-50,-20.4885654885)"
    />
  
  <line
    x1="1.4705882352941178"
    y1="1.4705882352941178"
    x2="50"
    y2="50"
    stroke="hsla(0,50%,50%,0.6)"
    stroke-width="1"
    transform="translate(-50,-20.4885654885)"
    />
  
  <line
    x1="50"
    y1="0"
    x2="50"
    y2="50"
    stroke="hsla(0,50%,50%,0.6)"
    stroke-width="1"
    transform="translate(-50,-20.4885654885)"
    />
  
  <line
    x1="1.4705882352941178"
    y1="1.4705882352941178"
    x2="0.09174311926605505"
    y2="3.0275229357798166"
    stroke="hsla(0,50%,50%,0.6)"
    stroke-width="1"
    transform="translate(-50,-20.4885654885)"
    />
  
  <line
    x1="50"
    y1="0"
    x2="1.4705882352941178"
    y2="1.4705882352941178"
    stroke="hsla(0,50%,50%,0.6)"
    stroke-width="1"
    transform="translate(-50,-20.4885654885)"
    />
  
  <line
    x1="11.06029106029106"
    y1="-9.022869022869022"
    x2="9.210526315789474"
    y2="0"
    stroke="hsla(0,50%,50%,0.6)"
    stroke-width="1"
    transform="translate(-50,-20.4885654885)"
    />
  
  <line
    x1="50"
    y1="0"
    x2="0.09174311926605505"
    y2="3.0275229357798166"
    stroke="hsla(0,50%,50%,0.6)"
    stroke-width="1"
    transform="translate(-50,-20.4885654885)"
    />
  
  <line
    x1="88.93970893970894"
    y1="-9.022869022869022"
    x2="50"
    y2="50"
    stroke="hsla(0,50%,50%,0.6)"
    stroke-width="1"
    transform="translate(-50,-20.4885654885)"
    />
  
  <line
    x1="90.78947368421052"
    y1="0"
    x2="50"
    y2="50"
    stroke="hsla(0,50%,50%,0.6)"
    stroke-width="1"
    transform="translate(-50,-20.4885654885)"
    />
  
  <line
    x1="98.52941176470588"
    y1="1.4705882352941178"
    x2="50"
    y2="50"
    stroke="hsla(0,50%,50%,0.6)"
    stroke-width="1"
    transform="translate(-50,-20.4885654885)"
    />
  
</svg>
