<?xml version="1.0"?>
<!DOCTYPE svg PUBLIC "-//W3C//DTD SVG 1.1//EN"
  "http://www.w3.org/Graphics/SVG/1.1/DTD/svg11.dtd">
<svg
  width="240"
  height="240"
  viewBox="-50 -50 200 200" xmlns="http://www.w3.org/2000/svg" version="1.1">
  <rect
    x="0"
    y="0"
    width="100"
    height="100"
    fill="hsla(206,100%,53%,0.3)"
    stroke="hsl(206,100%,53%)"
    stroke-width="3"
    transform="" />
  
  <path
    d="M 
      50
      30
      L
    
      70
      30
      L
    
      70
      50
      L
    
      85
      65
      L
    
      80
      70
      L
    
      80
      80
      L
    
      50
      80
      L
    
      25
      55
      z
    "
    fill="hsla(0,0%,50%,0.3)"
    stroke="hsla(0,0%,50%,1)"
    stroke-width="1"
    transform="translate(-44.6875,-65.15625) scale(1,-1) translate(50,-110)"
    />
  
  
  <line
    x1="50"
    y1="30"
    x2="85"
    y2="65"
    stroke="hsla(0,50%,50%,0.6)"
    stroke-width="1"
    transform="translate(-44.6875,-65.15625) scale(1,-1) translate(50,-110)"
    />
  
  <line
    x1="30"
    y1="50"
    x2="30"
    y2="60"
    stroke="hsla(0,50%,50%,0.6)"
    stroke-width="1"
    transform="translate(-44.6875,-65.15625) scale(1,-1) translate(50,-110)"
    />
  
  <line
    x1="50"
    y1="30"
    x2="50"
    y2="80"
    stroke="hsla(0,50%,50%,0.6)"
    stroke-width="1"
    transform="translate(-44.6875,-65.15625) scale(1,-1) translate(50,-110)"
    />
  
  <line
    x1="70"
    y1="30"
    x2="70"
    y2="80"
    stroke="hsla(0,50%,50%,0.6)"
    stroke-width="1"
    transform="translate(-44.6875,-65.15625) scale(1,-1) translate(50,-110)"
    />
  
  <line
    x1="80"
    y1="60"
    x2="80"
    y2="80"
    stroke="hsla(0,50%,50%,0.6)"
    stroke-width="1"
    transform="translate(-44.6875,-65.15625) scale(1,-1) translate(50,-110)"
    />
  
  <line
    x1="60"
    y1="70"
    x2="70"
    y2="80"
    stroke="hsla(0,50%,50%,0.6)"
    stroke-width="1"
    transform="translate(-44.6875,-65.15625) scale(1,-1) translate(50,-110)"
    />
  
  <line
    x1="25"
    y1="55"
    x2="50"
    y2="80"
    stroke="hsla(0,50%,50%,0.6)"
    stroke-width="1"
    transform="translate(-44.6875,-65.15625) scale(1,-1) translate(50,-110)"
    />
  
  <line
    x1="50"
    y1="30"
    x2="70"
    y2="30"
    stroke="hsla(0,50%,50%,0.6)"
    stroke-width="1"
    transform="translate(-44.6875,-65.15625) scale(1,-1) translate(50,-110)"
    />
  
  <line
    x1="50"
    y1="30"
    x2="25"
    y2="55"
    stroke="hsla(0,50%,50%,0.6)"
    stroke-width="1"
    transform="translate(-44.6875,-65.15625) scale(1,-1) translate(50,-110)"
    />
  
  <line
    x1="30"
    y1="50"
    x2="70"
    y2="50"
    stroke="hsla(0,50%,50%,0.6)"
    stroke-width="1"
    transform="translate(-44.6875,-65.15625) scale(1,-1) translate(50,-110)"
    />
  
  <line
    x1="30"
    y1="60"
    x2="80"
    y2="60"
    stroke="hsla(0,50%,50%,0.6)"
    stroke-width="1"
    transform="translate(-44.6875,-65.15625) scale(1,-1) translate(50,-110)"
    />
  
  <line
    x1="60"
    y1="70"
    x2="50"
    y2="80"
    stroke="hsla(0,50%,50%,0.6)"
    stroke-width="1"
    transform="translate(-44.6875,-65.15625) scale(1,-1) translate(50,-110)"
    />
  
  <line
    x1="85"
    y1="65"
    x2="70"
    y2="80"
    stroke="hsla(0,50%,50%,0.6)"
    stroke-width="1"
    transform="translate(-44.6875,-65.15625) scale(1,-1) translate(50,-110)"
    />
  
  <line
    x1="50"
    y1="80"
    x2="80"
    y2="80"
    stroke="hsla(0,50%,50%,0.6)"
    stroke-width="1"
    transform="translate(-44.6875,-65.15625) scale(1,-1) translate(50,-110)"
    />
  
</svg>
