<?xml version="1.0"?>
<!DOCTYPE svg PUBLIC "-//W3C//DTD SVG 1.1//EN"
  "http://www.w3.org/Graphics/SVG/1.1/DTD/svg11.dtd">
<svg
  width="240"
  height="240"
  viewBox="-50 -50 200 200" xmlns="http://www.w3.org/2000/svg" version="1.1">
  <rect
    x="0"
    y="0"
    width="100"
    height="100"
    fill="hsla(206,100%,53%,0.3)"
    stroke="hsl(206,100%,53%)"
    stroke-width="3"
    transform="" />
  
  <path
    d="M 
      82.3754789272
      11.4942528735
      L
    
      98.0842911877
      11.8773946360
      L
    
      121.0727969348
      36.0153256704
      L
    
      81.8007662835
      35.0574712643
      L
    
      81.4176245210
      50.7662835249
      L
    
      120.6896551724
      51.7241379310
      L
    
      96.5517241379
      74.7126436781
      L
    
      80.8429118773
      74.3295019157
      L
    
      57.8544061302
      50.1915708812
      L
    
      58.2375478927
      34.4827586206
      z
    "
    fill="hsla(0,0%,50%,0.3)"
    stroke="hsla(0,0%,50%,1)"
    stroke-width="1"
    transform="translate(-66.2303939176,-46.6198215996) scale(1,-1) translate(50,-110)"
    />
  
  
  <line
    x1="98.08429118773947"
    y1="11.877394636015326"
    x2="121.0727969348659"
    y2="36.015325670498086"
    stroke="hsla(0,50%,50%,0.6)"
    stroke-width="1"
    transform="translate(-66.2303939176,-46.6198215996) scale(1,-1) translate(50,-110)"
    />
  
  <line
    x1="66.28352490421456"
    y1="26.81992337164751"
    x2="81.60919540229885"
    y2="42.911877394636015"
    stroke="hsla(0,50%,50%,0.6)"
    stroke-width="1"
    transform="translate(-66.2303939176,-46.6198215996) scale(1,-1) translate(50,-110)"
    />
  
  <line
    x1="73.5632183908046"
    y1="50.57471264367816"
    x2="96.55172413793103"
    y2="74.71264367816092"
    stroke="hsla(0,50%,50%,0.6)"
    stroke-width="1"
    transform="translate(-66.2303939176,-46.6198215996) scale(1,-1) translate(50,-110)"
    />
  
  <line
    x1="57.8544061302682"
    y1="50.191570881226056"
    x2="80.84291187739464"
    y2="74.32950191570882"
    stroke="hsla(0,50%,50%,0.6)"
    stroke-width="1"
    transform="translate(-66.2303939176,-46.6198215996) scale(1,-1) translate(50,-110)"
    />
  
  <line
    x1="58.23754789272031"
    y1="34.48275862068966"
    x2="57.8544061302682"
    y2="50.191570881226056"
    stroke="hsla(0,50%,50%,0.6)"
    stroke-width="1"
    transform="translate(-66.2303939176,-46.6198215996) scale(1,-1) translate(50,-110)"
    />
  
  <line
    x1="82.37547892720306"
    y1="11.494252873563218"
    x2="80.84291187739464"
    y2="74.32950191570882"
    stroke="hsla(0,50%,50%,0.6)"
    stroke-width="1"
    transform="translate(-66.2303939176,-46.6198215996) scale(1,-1) translate(50,-110)"
    />
  
  <line
    x1="82.37547892720306"
    y1="11.494252873563218"
    x2="98.08429118773947"
    y2="11.877394636015326"
    stroke="hsla(0,50%,50%,0.6)"
    stroke-width="1"
    transform="translate(-66.2303939176,-46.6198215996) scale(1,-1) translate(50,-110)"
    />
  
  <line
    x1="58.23754789272031"
    y1="34.48275862068966"
    x2="121.0727969348659"
    y2="36.015325670498086"
    stroke="hsla(0,50%,50%,0.6)"
    stroke-width="1"
    transform="translate(-66.2303939176,-46.6198215996) scale(1,-1) translate(50,-110)"
    />
  
  <line
    x1="82.37547892720306"
    y1="11.494252873563218"
    x2="58.23754789272031"
    y2="34.48275862068966"
    stroke="hsla(0,50%,50%,0.6)"
    stroke-width="1"
    transform="translate(-66.2303939176,-46.6198215996) scale(1,-1) translate(50,-110)"
    />
  
  <line
    x1="57.8544061302682"
    y1="50.191570881226056"
    x2="120.6896551724138"
    y2="51.724137931034484"
    stroke="hsla(0,50%,50%,0.6)"
    stroke-width="1"
    transform="translate(-66.2303939176,-46.6198215996) scale(1,-1) translate(50,-110)"
    />
  
  <line
    x1="98.08429118773947"
    y1="11.877394636015326"
    x2="73.9463601532567"
    y2="34.86590038314176"
    stroke="hsla(0,50%,50%,0.6)"
    stroke-width="1"
    transform="translate(-66.2303939176,-46.6198215996) scale(1,-1) translate(50,-110)"
    />
  
  <line
    x1="81.60919540229885"
    y1="42.911877394636015"
    x2="65.51724137931035"
    y2="58.23754789272031"
    stroke="hsla(0,50%,50%,0.6)"
    stroke-width="1"
    transform="translate(-66.2303939176,-46.6198215996) scale(1,-1) translate(50,-110)"
    />
  
  <line
    x1="80.84291187739464"
    y1="74.32950191570882"
    x2="96.55172413793103"
    y2="74.71264367816092"
    stroke="hsla(0,50%,50%,0.6)"
    stroke-width="1"
    transform="translate(-66.2303939176,-46.6198215996) scale(1,-1) translate(50,-110)"
    />
  
  <line
    x1="120.6896551724138"
    y1="51.724137931034484"
    x2="96.55172413793103"
    y2="74.71264367816092"
    stroke="hsla(0,50%,50%,0.6)"
    stroke-width="1"
    transform="translate(-66.2303939176,-46.6198215996) scale(1,-1) translate(50,-110)"
    />
  
</svg>
