<?xml version="1.0"?>
<!DOCTYPE svg PUBLIC "-//W3C//DTD SVG 1.1//EN"
  "http://www.w3.org/Graphics/SVG/1.1/DTD/svg11.dtd">
<svg
  width="240"
  height="240"
  viewBox="-500 -500 1000 1000" xmlns="http://www.w3.org/2000/svg" version="1.1">
  <rect
    x="0"
    y="0"
    width="100"
    height="100"
    fill="hsla(206,100%,53%,0.3)"
    stroke="hsl(206,100%,53%)"
    stroke-width="3"
    transform="" />
  
  <path
    d="M 
      -12.3809523809
      -91.6666666666
      L
    
      30
      -91.6666666666
      L
    
      30
      8.3333333333
      L
    
      -12.3809523809
      8.3333333333
      z
    "
    fill="hsla(0,0%,50%,0.3)"
    stroke="hsla(0,0%,50%,1)"
    stroke-width="1"
    transform="translate(-8.8095238095,41.6666666666)"
    />
  
  
  <line
    x1="-12.380952380952381"
    y1="-91.66666666666667"
    x2="30"
    y2="-91.66666666666667"
    stroke="hsla(0,50%,50%,0.6)"
    stroke-width="1"
    transform="translate(-8.8095238095,41.6666666666)"
    />
  
  <line
    x1="-12.380952380952381"
    y1="-91.66666666666667"
    x2="-12.380952380952381"
    y2="8.333333333333334"
    stroke="hsla(0,50%,50%,0.6)"
    stroke-width="1"
    transform="translate(-8.8095238095,41.6666666666)"
    />
  
  <line
    x1="14.285714285714286"
    y1="-91.66666666666667"
    x2="14.285714285714286"
    y2="8.333333333333334"
    stroke="hsla(0,50%,50%,0.6)"
    stroke-width="1"
    transform="translate(-8.8095238095,41.6666666666)"
    />
  
  <line
    x1="20.952380952380953"
    y1="-91.66666666666667"
    x2="20.952380952380953"
    y2="8.333333333333334"
    stroke="hsla(0,50%,50%,0.6)"
    stroke-width="1"
    transform="translate(-8.8095238095,41.6666666666)"
    />
  
  <line
    x1="27.61904761904762"
    y1="-91.66666666666667"
    x2="27.61904761904762"
    y2="8.333333333333334"
    stroke="hsla(0,50%,50%,0.6)"
    stroke-width="1"
    transform="translate(-8.8095238095,41.6666666666)"
    />
  
  <line
    x1="29.047619047619047"
    y1="-91.66666666666667"
    x2="29.047619047619047"
    y2="8.333333333333334"
    stroke="hsla(0,50%,50%,0.6)"
    stroke-width="1"
    transform="translate(-8.8095238095,41.6666666666)"
    />
  
  <line
    x1="30"
    y1="-91.66666666666667"
    x2="30"
    y2="8.333333333333334"
    stroke="hsla(0,50%,50%,0.6)"
    stroke-width="1"
    transform="translate(-8.8095238095,41.6666666666)"
    />
  
  <line
    x1="-12.380952380952381"
    y1="8.333333333333334"
    x2="30"
    y2="8.333333333333334"
    stroke="hsla(0,50%,50%,0.6)"
    stroke-width="1"
    transform="translate(-8.8095238095,41.6666666666)"
    />
  
</svg>
