<?xml version="1.0"?>
<!DOCTYPE svg PUBLIC "-//W3C//DTD SVG 1.1//EN"
  "http://www.w3.org/Graphics/SVG/1.1/DTD/svg11.dtd">
<svg
  width="240"
  height="240"
  viewBox="-500 -500 1000 1000" xmlns="http://www.w3.org/2000/svg" version="1.1">
  <rect
    x="0"
    y="0"
    width="100"
    height="100"
    fill="hsla(206,100%,53%,0.3)"
    stroke="hsl(206,100%,53%)"
    stroke-width="3"
    transform="" />
  
  <path
    d="M 
      107.6923076923
      41.1764705882
      L
    
      111.5726957311
      60.3843913803
      L
    
      115.6130997715
      60.3843913803
      L
    
      115.6130997715
      80.3843913803
      L
    
      15.6130997715
      90.3843913803
      L
    
      13.7529137529
      81.1764705882
      L
    
      7.6923076923
      81.1764705882
      L
    
      7.6923076923
      51.1764705882
      z
    "
    fill="hsla(0,0%,50%,0.3)"
    stroke="hsla(0,0%,50%,1)"
    stroke-width="1"
    transform="translate(-61.6527037319,-65.7804309842)"
    />
  
  
  <line
    x1="107.6923076923077"
    y1="41.1764705882353"
    x2="115.6130997715156"
    y2="80.3843913803145"
    stroke="hsla(0,50%,50%,0.6)"
    stroke-width="1"
    transform="translate(-61.6527037319,-65.7804309842)"
    />
  
  <line
    x1="7.6923076923076925"
    y1="51.1764705882353"
    x2="7.6923076923076925"
    y2="81.17647058823529"
    stroke="hsla(0,50%,50%,0.6)"
    stroke-width="1"
    transform="translate(-61.6527037319,-65.7804309842)"
    />
  
  <line
    x1="15.613099771515612"
    y1="60.384391380314504"
    x2="15.613099771515612"
    y2="90.3843913803145"
    stroke="hsla(0,50%,50%,0.6)"
    stroke-width="1"
    transform="translate(-61.6527037319,-65.7804309842)"
    />
  
  <line
    x1="107.6923076923077"
    y1="41.1764705882353"
    x2="107.6923076923077"
    y2="81.17647058823529"
    stroke="hsla(0,50%,50%,0.6)"
    stroke-width="1"
    transform="translate(-61.6527037319,-65.7804309842)"
    />
  
  <line
    x1="115.6130997715156"
    y1="60.384391380314504"
    x2="115.6130997715156"
    y2="80.3843913803145"
    stroke="hsla(0,50%,50%,0.6)"
    stroke-width="1"
    transform="translate(-61.6527037319,-65.7804309842)"
    />
  
  <line
    x1="7.6923076923076925"
    y1="51.1764705882353"
    x2="15.613099771515612"
    y2="90.3843913803145"
    stroke="hsla(0,50%,50%,0.6)"
    stroke-width="1"
    transform="translate(-61.6527037319,-65.7804309842)"
    />
  
  <line
    x1="107.6923076923077"
    y1="41.1764705882353"
    x2="7.6923076923076925"
    y2="51.1764705882353"
    stroke="hsla(0,50%,50%,0.6)"
    stroke-width="1"
    transform="translate(-61.6527037319,-65.7804309842)"
    />
  
  <line
    x1="15.613099771515612"
    y1="60.384391380314504"
    x2="115.6130997715156"
    y2="60.384391380314504"
    stroke="hsla(0,50%,50%,0.6)"
    stroke-width="1"
    transform="translate(-61.6527037319,-65.7804309842)"
    />
  
  <line
    x1="7.6923076923076925"
    y1="81.17647058823529"
    x2="107.6923076923077"
    y2="81.17647058823529"
    stroke="hsla(0,50%,50%,0.6)"
    stroke-width="1"
    transform="translate(-61.6527037319,-65.7804309842)"
    />
  
  <line
    x1="115.6130997715156"
    y1="80.3843913803145"
    x2="15.613099771515612"
    y2="90.3843913803145"
    stroke="hsla(0,50%,50%,0.6)"
    stroke-width="1"
    transform="translate(-61.6527037319,-65.7804309842)"
    />
  
</svg>
