<?xml version="1.0"?>
<!DOCTYPE svg PUBLIC "-//W3C//DTD SVG 1.1//EN"
  "http://www.w3.org/Graphics/SVG/1.1/DTD/svg11.dtd">
<svg
  width="240"
  height="240"
  viewBox="-50 -50 200 200" xmlns="http://www.w3.org/2000/svg" version="1.1">
  <rect
    x="0"
    y="0"
    width="100"
    height="100"
    fill="hsla(206,100%,53%,0.3)"
    stroke="hsl(206,100%,53%)"
    stroke-width="3"
    transform="" />
  
  <path
    d="M 
      6.1810154525
      20.3090507726
      L
    
      81.2362030905
      24.0618101545
      L
    
      88.2352941176
      47.0588235294
      L
    
      66.1764705882
      35.2941176470
      L
    
      54.4117647058
      57.3529411764
      L
    
      20.5882352941
      67.6470588235
      L
    
      32.3529411764
      45.5882352941
      L
    
      16.5956936364
      37.1843699394
      L
    
      -1.9950124688
      39.9002493765
      z
    "
    fill="hsla(0,0%,50%,0.3)"
    stroke="hsla(0,0%,50%,1)"
    stroke-width="1"
    transform="translate(-12.2474862728,-42.0574084956) scale(1,-1) translate(50,-110)"
    />
  
  
  <line
    x1="76.19047619047619"
    y1="23.80952380952381"
    x2="79.60099750623442"
    y2="27.98004987531172"
    stroke="hsla(0,50%,50%,0.6)"
    stroke-width="1"
    transform="translate(-12.2474862728,-42.0574084956) scale(1,-1) translate(50,-110)"
    />
  
  <line
    x1="73.6842105263158"
    y1="23.68421052631579"
    x2="75"
    y2="25"
    stroke="hsla(0,50%,50%,0.6)"
    stroke-width="1"
    transform="translate(-12.2474862728,-42.0574084956) scale(1,-1) translate(50,-110)"
    />
  
  <line
    x1="72.40259740259741"
    y1="23.62012987012987"
    x2="74.50124688279301"
    y2="28.72506234413965"
    stroke="hsla(0,50%,50%,0.6)"
    stroke-width="1"
    transform="translate(-12.2474862728,-42.0574084956) scale(1,-1) translate(50,-110)"
    />
  
  <line
    x1="81.23620309050773"
    y1="24.061810154525386"
    x2="88.23529411764706"
    y2="47.05882352941177"
    stroke="hsla(0,50%,50%,0.6)"
    stroke-width="1"
    transform="translate(-12.2474862728,-42.0574084956) scale(1,-1) translate(50,-110)"
    />
  
  <line
    x1="43.70860927152318"
    y1="22.185430463576157"
    x2="54.411764705882355"
    y2="57.35294117647059"
    stroke="hsla(0,50%,50%,0.6)"
    stroke-width="1"
    transform="translate(-12.2474862728,-42.0574084956) scale(1,-1) translate(50,-110)"
    />
  
  <line
    x1="28.571428571428573"
    y1="21.428571428571427"
    x2="38.80299251870324"
    y2="33.94014962593516"
    stroke="hsla(0,50%,50%,0.6)"
    stroke-width="1"
    transform="translate(-12.2474862728,-42.0574084956) scale(1,-1) translate(50,-110)"
    />
  
  <line
    x1="17.207792207792206"
    y1="20.86038961038961"
    x2="23.503740648379054"
    y2="36.175187032418954"
    stroke="hsla(0,50%,50%,0.6)"
    stroke-width="1"
    transform="translate(-12.2474862728,-42.0574084956) scale(1,-1) translate(50,-110)"
    />
  
  <line
    x1="41.37931034482759"
    y1="22.06896551724138"
    x2="88.23529411764706"
    y2="47.05882352941177"
    stroke="hsla(0,50%,50%,0.6)"
    stroke-width="1"
    transform="translate(-12.2474862728,-42.0574084956) scale(1,-1) translate(50,-110)"
    />
  
  <line
    x1="21.05263157894737"
    y1="21.05263157894737"
    x2="25"
    y2="25"
    stroke="hsla(0,50%,50%,0.6)"
    stroke-width="1"
    transform="translate(-12.2474862728,-42.0574084956) scale(1,-1) translate(50,-110)"
    />
  
  <line
    x1="6.181015452538631"
    y1="20.309050772626932"
    x2="10.294117647058824"
    y2="33.8235294117647"
    stroke="hsla(0,50%,50%,0.6)"
    stroke-width="1"
    transform="translate(-12.2474862728,-42.0574084956) scale(1,-1) translate(50,-110)"
    />
  
  <line
    x1="25"
    y1="21.25"
    x2="25"
    y2="25"
    stroke="hsla(0,50%,50%,0.6)"
    stroke-width="1"
    transform="translate(-12.2474862728,-42.0574084956) scale(1,-1) translate(50,-110)"
    />
  
  <line
    x1="75"
    y1="23.75"
    x2="75"
    y2="25"
    stroke="hsla(0,50%,50%,0.6)"
    stroke-width="1"
    transform="translate(-12.2474862728,-42.0574084956) scale(1,-1) translate(50,-110)"
    />
  
  <line
    x1="47.852760736196316"
    y1="22.392638036809817"
    x2="66.00166251039069"
    y2="29.966749792186203"
    stroke="hsla(0,50%,50%,0.6)"
    stroke-width="1"
    transform="translate(-12.2474862728,-42.0574084956) scale(1,-1) translate(50,-110)"
    />
  
  <line
    x1="25"
    y1="21.25"
    x2="23.503740648379054"
    y2="36.175187032418954"
    stroke="hsla(0,50%,50%,0.6)"
    stroke-width="1"
    transform="translate(-12.2474862728,-42.0574084956) scale(1,-1) translate(50,-110)"
    />
  
  <line
    x1="6.181015452538631"
    y1="20.309050772626932"
    x2="-1.9950124688279303"
    y2="39.900249376558605"
    stroke="hsla(0,50%,50%,0.6)"
    stroke-width="1"
    transform="translate(-12.2474862728,-42.0574084956) scale(1,-1) translate(50,-110)"
    />
  
  <line
    x1="75"
    y1="23.75"
    x2="74.50124688279301"
    y2="28.72506234413965"
    stroke="hsla(0,50%,50%,0.6)"
    stroke-width="1"
    transform="translate(-12.2474862728,-42.0574084956) scale(1,-1) translate(50,-110)"
    />
  
  <line
    x1="17.207792207792206"
    y1="20.86038961038961"
    x2="10.294117647058824"
    y2="33.8235294117647"
    stroke="hsla(0,50%,50%,0.6)"
    stroke-width="1"
    transform="translate(-12.2474862728,-42.0574084956) scale(1,-1) translate(50,-110)"
    />
  
  <line
    x1="43.70860927152318"
    y1="22.185430463576157"
    x2="38.80299251870324"
    y2="33.94014962593516"
    stroke="hsla(0,50%,50%,0.6)"
    stroke-width="1"
    transform="translate(-12.2474862728,-42.0574084956) scale(1,-1) translate(50,-110)"
    />
  
  <line
    x1="6.181015452538631"
    y1="20.309050772626932"
    x2="81.23620309050773"
    y2="24.061810154525386"
    stroke="hsla(0,50%,50%,0.6)"
    stroke-width="1"
    transform="translate(-12.2474862728,-42.0574084956) scale(1,-1) translate(50,-110)"
    />
  
  <line
    x1="10.294117647058824"
    y1="33.8235294117647"
    x2="54.411764705882355"
    y2="57.35294117647059"
    stroke="hsla(0,50%,50%,0.6)"
    stroke-width="1"
    transform="translate(-12.2474862728,-42.0574084956) scale(1,-1) translate(50,-110)"
    />
  
  <line
    x1="21.05263157894737"
    y1="21.05263157894737"
    x2="-1.9950124688279303"
    y2="39.900249376558605"
    stroke="hsla(0,50%,50%,0.6)"
    stroke-width="1"
    transform="translate(-12.2474862728,-42.0574084956) scale(1,-1) translate(50,-110)"
    />
  
  <line
    x1="44.11764705882353"
    y1="23.529411764705884"
    x2="20.58823529411765"
    y2="67.6470588235294"
    stroke="hsla(0,50%,50%,0.6)"
    stroke-width="1"
    transform="translate(-12.2474862728,-42.0574084956) scale(1,-1) translate(50,-110)"
    />
  
  <line
    x1="25"
    y1="25"
    x2="75"
    y2="25"
    stroke="hsla(0,50%,50%,0.6)"
    stroke-width="1"
    transform="translate(-12.2474862728,-42.0574084956) scale(1,-1) translate(50,-110)"
    />
  
  <line
    x1="28.571428571428573"
    y1="21.428571428571427"
    x2="25"
    y2="25"
    stroke="hsla(0,50%,50%,0.6)"
    stroke-width="1"
    transform="translate(-12.2474862728,-42.0574084956) scale(1,-1) translate(50,-110)"
    />
  
  <line
    x1="81.23620309050773"
    y1="24.061810154525386"
    x2="79.60099750623442"
    y2="27.98004987531172"
    stroke="hsla(0,50%,50%,0.6)"
    stroke-width="1"
    transform="translate(-12.2474862728,-42.0574084956) scale(1,-1) translate(50,-110)"
    />
  
  <line
    x1="41.37931034482759"
    y1="22.06896551724138"
    x2="-1.9950124688279303"
    y2="39.900249376558605"
    stroke="hsla(0,50%,50%,0.6)"
    stroke-width="1"
    transform="translate(-12.2474862728,-42.0574084956) scale(1,-1) translate(50,-110)"
    />
  
  <line
    x1="47.852760736196316"
    y1="22.392638036809817"
    x2="10.294117647058824"
    y2="33.8235294117647"
    stroke="hsla(0,50%,50%,0.6)"
    stroke-width="1"
    transform="translate(-12.2474862728,-42.0574084956) scale(1,-1) translate(50,-110)"
    />
  
  <line
    x1="72.40259740259741"
    y1="23.62012987012987"
    x2="54.411764705882355"
    y2="57.35294117647059"
    stroke="hsla(0,50%,50%,0.6)"
    stroke-width="1"
    transform="translate(-12.2474862728,-42.0574084956) scale(1,-1) translate(50,-110)"
    />
  
  <line
    x1="79.60099750623442"
    y1="27.98004987531172"
    x2="-1.9950124688279303"
    y2="39.900249376558605"
    stroke="hsla(0,50%,50%,0.6)"
    stroke-width="1"
    transform="translate(-12.2474862728,-42.0574084956) scale(1,-1) translate(50,-110)"
    />
  
  <line
    x1="76.19047619047619"
    y1="23.80952380952381"
    x2="75"
    y2="25"
    stroke="hsla(0,50%,50%,0.6)"
    stroke-width="1"
    transform="translate(-12.2474862728,-42.0574084956) scale(1,-1) translate(50,-110)"
    />
  
  <line
    x1="73.6842105263158"
    y1="23.68421052631579"
    x2="66.00166251039069"
    y2="29.966749792186203"
    stroke="hsla(0,50%,50%,0.6)"
    stroke-width="1"
    transform="translate(-12.2474862728,-42.0574084956) scale(1,-1) translate(50,-110)"
    />
  
  <line
    x1="54.411764705882355"
    y1="57.35294117647059"
    x2="20.58823529411765"
    y2="67.6470588235294"
    stroke="hsla(0,50%,50%,0.6)"
    stroke-width="1"
    transform="translate(-12.2474862728,-42.0574084956) scale(1,-1) translate(50,-110)"
    />
  
</svg>
