<?xml version="1.0"?>
<!DOCTYPE svg PUBLIC "-//W3C//DTD SVG 1.1//EN"
  "http://www.w3.org/Graphics/SVG/1.1/DTD/svg11.dtd">
<svg
  width="240"
  height="240"
  viewBox="-50 -50 200 200" xmlns="http://www.w3.org/2000/svg" version="1.1">
  <rect
    x="0"
    y="0"
    width="100"
    height="100"
    fill="hsla(206,100%,53%,0.3)"
    stroke="hsl(206,100%,53%)"
    stroke-width="3"
    transform="" />
  
  <path
    d="M 
      130
      -90
      L
    
      115
      -70
      L
    
      135
      -55
      L
    
      140
      -20
      L
    
      120
      -35
      L
    
      105
      -15
      L
    
      70
      -10
      L
    
      85
      -30
      L
    
      65
      -45
      L
    
      60
      -80
      L
    
      80
      -65
      L
    
      95
      -85
      z
    "
    fill="hsla(0,0%,50%,0.3)"
    stroke="hsla(0,0%,50%,1)"
    stroke-width="1"
    transform="translate(-84.6264648437,73.0810546875) scale(1,-1) translate(50,-110)"
    />
  
  
  <line
    x1="95"
    y1="-85"
    x2="135"
    y2="-55"
    stroke="hsla(0,50%,50%,0.6)"
    stroke-width="1"
    transform="translate(-84.6264648437,73.0810546875) scale(1,-1) translate(50,-110)"
    />
  
  <line
    x1="60"
    y1="-80"
    x2="140"
    y2="-20"
    stroke="hsla(0,50%,50%,0.6)"
    stroke-width="1"
    transform="translate(-84.6264648437,73.0810546875) scale(1,-1) translate(50,-110)"
    />
  
  <line
    x1="130"
    y1="-90"
    x2="95"
    y2="-85"
    stroke="hsla(0,50%,50%,0.6)"
    stroke-width="1"
    transform="translate(-84.6264648437,73.0810546875) scale(1,-1) translate(50,-110)"
    />
  
  <line
    x1="65"
    y1="-45"
    x2="105"
    y2="-15"
    stroke="hsla(0,50%,50%,0.6)"
    stroke-width="1"
    transform="translate(-84.6264648437,73.0810546875) scale(1,-1) translate(50,-110)"
    />
  
  <line
    x1="135"
    y1="-55"
    x2="65"
    y2="-45"
    stroke="hsla(0,50%,50%,0.6)"
    stroke-width="1"
    transform="translate(-84.6264648437,73.0810546875) scale(1,-1) translate(50,-110)"
    />
  
  <line
    x1="135"
    y1="-55"
    x2="140"
    y2="-20"
    stroke="hsla(0,50%,50%,0.6)"
    stroke-width="1"
    transform="translate(-84.6264648437,73.0810546875) scale(1,-1) translate(50,-110)"
    />
  
  <line
    x1="95"
    y1="-85"
    x2="105"
    y2="-15"
    stroke="hsla(0,50%,50%,0.6)"
    stroke-width="1"
    transform="translate(-84.6264648437,73.0810546875) scale(1,-1) translate(50,-110)"
    />
  
  <line
    x1="60"
    y1="-80"
    x2="65"
    y2="-45"
    stroke="hsla(0,50%,50%,0.6)"
    stroke-width="1"
    transform="translate(-84.6264648437,73.0810546875) scale(1,-1) translate(50,-110)"
    />
  
  <line
    x1="105"
    y1="-15"
    x2="70"
    y2="-10"
    stroke="hsla(0,50%,50%,0.6)"
    stroke-width="1"
    transform="translate(-84.6264648437,73.0810546875) scale(1,-1) translate(50,-110)"
    />
  
  <line
    x1="95"
    y1="-85"
    x2="65"
    y2="-45"
    stroke="hsla(0,50%,50%,0.6)"
    stroke-width="1"
    transform="translate(-84.6264648437,73.0810546875) scale(1,-1) translate(50,-110)"
    />
  
  <line
    x1="130"
    y1="-90"
    x2="70"
    y2="-10"
    stroke="hsla(0,50%,50%,0.6)"
    stroke-width="1"
    transform="translate(-84.6264648437,73.0810546875) scale(1,-1) translate(50,-110)"
    />
  
  <line
    x1="135"
    y1="-55"
    x2="105"
    y2="-15"
    stroke="hsla(0,50%,50%,0.6)"
    stroke-width="1"
    transform="translate(-84.6264648437,73.0810546875) scale(1,-1) translate(50,-110)"
    />
  
</svg>
