<?xml version="1.0"?>
<!DOCTYPE svg PUBLIC "-//W3C//DTD SVG 1.1//EN"
  "http://www.w3.org/Graphics/SVG/1.1/DTD/svg11.dtd">
<svg
  width="240"
  height="240"
  viewBox="-500 -500 1000 1000" xmlns="http://www.w3.org/2000/svg" version="1.1">
  <rect
    x="0"
    y="0"
    width="100"
    height="100"
    fill="hsla(206,100%,53%,0.3)"
    stroke="hsl(206,100%,53%)"
    stroke-width="3"
    transform="" />
  
  <path
    d="M 
      80
      -60
      L
    
      95
      -40
      L
    
      115
      -55
      L
    
      150
      -50
      L
    
      130
      -35
      L
    
      145
      -15
      L
    
      140
      20
      L
    
      125
      0
      L
    
      105
      15
      L
    
      70
      10
      L
    
      90
      -5
      L
    
      75
      -25
      z
    "
    fill="hsla(0,0%,50%,0.3)"
    stroke="hsla(0,0%,50%,1)"
    stroke-width="1"
    transform="translate(-110,20)"
    />
  
  
  <line
    x1="115"
    y1="-55"
    x2="145"
    y2="-15"
    stroke="hsla(0,50%,50%,0.6)"
    stroke-width="1"
    transform="translate(-110,20)"
    />
  
  <line
    x1="115"
    y1="-55"
    x2="150"
    y2="-50"
    stroke="hsla(0,50%,50%,0.6)"
    stroke-width="1"
    transform="translate(-110,20)"
    />
  
  <line
    x1="80"
    y1="-60"
    x2="140"
    y2="20"
    stroke="hsla(0,50%,50%,0.6)"
    stroke-width="1"
    transform="translate(-110,20)"
    />
  
  <line
    x1="75"
    y1="-25"
    x2="105"
    y2="15"
    stroke="hsla(0,50%,50%,0.6)"
    stroke-width="1"
    transform="translate(-110,20)"
    />
  
  <line
    x1="75"
    y1="-25"
    x2="145"
    y2="-15"
    stroke="hsla(0,50%,50%,0.6)"
    stroke-width="1"
    transform="translate(-110,20)"
    />
  
  <line
    x1="70"
    y1="10"
    x2="105"
    y2="15"
    stroke="hsla(0,50%,50%,0.6)"
    stroke-width="1"
    transform="translate(-110,20)"
    />
  
  <line
    x1="80"
    y1="-60"
    x2="75"
    y2="-25"
    stroke="hsla(0,50%,50%,0.6)"
    stroke-width="1"
    transform="translate(-110,20)"
    />
  
  <line
    x1="115"
    y1="-55"
    x2="105"
    y2="15"
    stroke="hsla(0,50%,50%,0.6)"
    stroke-width="1"
    transform="translate(-110,20)"
    />
  
  <line
    x1="115"
    y1="-55"
    x2="75"
    y2="-25"
    stroke="hsla(0,50%,50%,0.6)"
    stroke-width="1"
    transform="translate(-110,20)"
    />
  
  <line
    x1="145"
    y1="-15"
    x2="140"
    y2="20"
    stroke="hsla(0,50%,50%,0.6)"
    stroke-width="1"
    transform="translate(-110,20)"
    />
  
  <line
    x1="150"
    y1="-50"
    x2="70"
    y2="10"
    stroke="hsla(0,50%,50%,0.6)"
    stroke-width="1"
    transform="translate(-110,20)"
    />
  
  <line
    x1="145"
    y1="-15"
    x2="105"
    y2="15"
    stroke="hsla(0,50%,50%,0.6)"
    stroke-width="1"
    transform="translate(-110,20)"
    />
  
</svg>
