<?xml version="1.0"?>
<!DOCTYPE svg PUBLIC "-//W3C//DTD SVG 1.1//EN"
  "http://www.w3.org/Graphics/SVG/1.1/DTD/svg11.dtd">
<svg
  width="240"
  height="240"
  viewBox="-50 -50 200 200" xmlns="http://www.w3.org/2000/svg" version="1.1">
  <rect
    x="0"
    y="0"
    width="100"
    height="100"
    fill="hsla(206,100%,53%,0.3)"
    stroke="hsl(206,100%,53%)"
    stroke-width="3"
    transform="" />
  
  <path
    d="M 
      16.6666666666
      0
      L
    
      50
      0
      L
    
      50
      8.3333333333
      L
    
      66.6666666666
      25
      L
    
      66.6666666666
      50
      L
    
      58.3333333333
      50
      L
    
      50
      58.3333333333
      L
    
      50
      66.6666666666
      L
    
      16.6666666666
      66.6666666666
      L
    
      16.6666666666
      58.3333333333
      L
    
      8.3333333333
      50
      L
    
      0
      50
      L
    
      0
      25
      L
    
      16.6666666666
      8.3333333333
      z
    "
    fill="hsla(0,0%,50%,0.3)"
    stroke="hsla(0,0%,50%,1)"
    stroke-width="1"
    transform="translate(-10.4532877604,-23.5656738281) scale(1,-1) translate(50,-110)"
    />
  
  
  <line
    x1="41.666666666666664"
    y1="0"
    x2="66.66666666666667"
    y2="25"
    stroke="hsla(0,50%,50%,0.6)"
    stroke-width="1"
    transform="translate(-10.4532877604,-23.5656738281) scale(1,-1) translate(50,-110)"
    />
  
  <line
    x1="16.666666666666668"
    y1="0"
    x2="50"
    y2="0"
    stroke="hsla(0,50%,50%,0.6)"
    stroke-width="1"
    transform="translate(-10.4532877604,-23.5656738281) scale(1,-1) translate(50,-110)"
    />
  
  <line
    x1="0"
    y1="25"
    x2="0"
    y2="50"
    stroke="hsla(0,50%,50%,0.6)"
    stroke-width="1"
    transform="translate(-10.4532877604,-23.5656738281) scale(1,-1) translate(50,-110)"
    />
  
  <line
    x1="16.666666666666668"
    y1="0"
    x2="16.666666666666668"
    y2="66.66666666666667"
    stroke="hsla(0,50%,50%,0.6)"
    stroke-width="1"
    transform="translate(-10.4532877604,-23.5656738281) scale(1,-1) translate(50,-110)"
    />
  
  <line
    x1="25"
    y1="0"
    x2="25"
    y2="66.66666666666667"
    stroke="hsla(0,50%,50%,0.6)"
    stroke-width="1"
    transform="translate(-10.4532877604,-23.5656738281) scale(1,-1) translate(50,-110)"
    />
  
  <line
    x1="41.666666666666664"
    y1="0"
    x2="41.666666666666664"
    y2="66.66666666666667"
    stroke="hsla(0,50%,50%,0.6)"
    stroke-width="1"
    transform="translate(-10.4532877604,-23.5656738281) scale(1,-1) translate(50,-110)"
    />
  
  <line
    x1="50"
    y1="0"
    x2="50"
    y2="66.66666666666667"
    stroke="hsla(0,50%,50%,0.6)"
    stroke-width="1"
    transform="translate(-10.4532877604,-23.5656738281) scale(1,-1) translate(50,-110)"
    />
  
  <line
    x1="66.66666666666667"
    y1="25"
    x2="66.66666666666667"
    y2="50"
    stroke="hsla(0,50%,50%,0.6)"
    stroke-width="1"
    transform="translate(-10.4532877604,-23.5656738281) scale(1,-1) translate(50,-110)"
    />
  
  <line
    x1="25"
    y1="0"
    x2="0"
    y2="25"
    stroke="hsla(0,50%,50%,0.6)"
    stroke-width="1"
    transform="translate(-10.4532877604,-23.5656738281) scale(1,-1) translate(50,-110)"
    />
  
  <line
    x1="0"
    y1="41.666666666666664"
    x2="25"
    y2="66.66666666666667"
    stroke="hsla(0,50%,50%,0.6)"
    stroke-width="1"
    transform="translate(-10.4532877604,-23.5656738281) scale(1,-1) translate(50,-110)"
    />
  
  <line
    x1="0"
    y1="25"
    x2="25"
    y2="25"
    stroke="hsla(0,50%,50%,0.6)"
    stroke-width="1"
    transform="translate(-10.4532877604,-23.5656738281) scale(1,-1) translate(50,-110)"
    />
  
  <line
    x1="41.666666666666664"
    y1="25"
    x2="66.66666666666667"
    y2="25"
    stroke="hsla(0,50%,50%,0.6)"
    stroke-width="1"
    transform="translate(-10.4532877604,-23.5656738281) scale(1,-1) translate(50,-110)"
    />
  
  <line
    x1="0"
    y1="33.333333333333336"
    x2="66.66666666666667"
    y2="33.333333333333336"
    stroke="hsla(0,50%,50%,0.6)"
    stroke-width="1"
    transform="translate(-10.4532877604,-23.5656738281) scale(1,-1) translate(50,-110)"
    />
  
  <line
    x1="0"
    y1="41.666666666666664"
    x2="25"
    y2="41.666666666666664"
    stroke="hsla(0,50%,50%,0.6)"
    stroke-width="1"
    transform="translate(-10.4532877604,-23.5656738281) scale(1,-1) translate(50,-110)"
    />
  
  <line
    x1="41.666666666666664"
    y1="41.666666666666664"
    x2="66.66666666666667"
    y2="41.666666666666664"
    stroke="hsla(0,50%,50%,0.6)"
    stroke-width="1"
    transform="translate(-10.4532877604,-23.5656738281) scale(1,-1) translate(50,-110)"
    />
  
  <line
    x1="0"
    y1="50"
    x2="66.66666666666667"
    y2="50"
    stroke="hsla(0,50%,50%,0.6)"
    stroke-width="1"
    transform="translate(-10.4532877604,-23.5656738281) scale(1,-1) translate(50,-110)"
    />
  
  <line
    x1="66.66666666666667"
    y1="41.666666666666664"
    x2="41.666666666666664"
    y2="66.66666666666667"
    stroke="hsla(0,50%,50%,0.6)"
    stroke-width="1"
    transform="translate(-10.4532877604,-23.5656738281) scale(1,-1) translate(50,-110)"
    />
  
  <line
    x1="16.666666666666668"
    y1="66.66666666666667"
    x2="50"
    y2="66.66666666666667"
    stroke="hsla(0,50%,50%,0.6)"
    stroke-width="1"
    transform="translate(-10.4532877604,-23.5656738281) scale(1,-1) translate(50,-110)"
    />
  
</svg>
