<?xml version="1.0"?>
<!DOCTYPE svg PUBLIC "-//W3C//DTD SVG 1.1//EN"
  "http://www.w3.org/Graphics/SVG/1.1/DTD/svg11.dtd">
<svg
  width="240"
  height="240"
  viewBox="-500 -500 1000 1000" xmlns="http://www.w3.org/2000/svg" version="1.1">
  <rect
    x="0"
    y="0"
    width="100"
    height="100"
    fill="hsla(206,100%,53%,0.3)"
    stroke="hsl(206,100%,53%)"
    stroke-width="3"
    transform="" />
  
  <path
    d="M 
      -53892466362.6100296402
      284737286044.4931495832
      L
    
      -53892466360.6113720019
      284737286044.5497952214
      L
    
      -53892466361.1986436594
      284737286065.2708078199
      L
    
      -53892466359.3569427656
      284737286092.3833286084
      L
    
      -53892466361.9734316527
      284737286092.6080572301
      L
    
      -53892466362.0678428986
      284737286095.9392185274
      L
    
      -53892466413.3293873999
      284737286102.3704842273
      L
    
      -53892466425.1983569483
      284737286063.4233639983
      L
    
      -53892466401.1391133289
      284737286055.6193135208
      L
    
      -53892466401.0108247450
      284737286051.6192912236
      L
    
      -53892466389.9054237351
      284737286051.9754632807
      L
    
      -53892466389.7177611774
      284737286053.2994781870
      L
    
      -53892466375.4001774801
      284737286049.2141583299
      L
    
      -53892466373.5113795505
      284737286055.8337189495
      z
    "
    fill="hsla(0,0%,50%,0.3)"
    stroke="hsla(0,0%,50%,1)"
    stroke-width="1"
    transform="translate(53892466392.2776498570,-284737286073.4318169052)"
    />
  
  
  <line
    x1="-53892466413.08104"
    y1="284737286096.9976"
    x2="-53892466413.329384"
    y2="284737286102.3705"
    stroke="hsla(0,50%,50%,0.6)"
    stroke-width="1"
    transform="translate(53892466392.2776498570,-284737286073.4318169052)"
    />
  
  <line
    x1="-53892466401.010826"
    y1="284737286051.61926"
    x2="-53892466402.59532"
    y2="284737286101.0238"
    stroke="hsla(0,50%,50%,0.6)"
    stroke-width="1"
    transform="translate(53892466392.2776498570,-284737286073.4318169052)"
    />
  
  <line
    x1="-53892466360.611374"
    y1="284737286044.5498"
    x2="-53892466362.06785"
    y2="284737286095.9392"
    stroke="hsla(0,50%,50%,0.6)"
    stroke-width="1"
    transform="translate(53892466392.2776498570,-284737286073.4318169052)"
    />
  
  <line
    x1="-53892466361.57157"
    y1="284737286071.0695"
    x2="-53892466366.99899"
    y2="284737286093.0397"
    stroke="hsla(0,50%,50%,0.6)"
    stroke-width="1"
    transform="translate(53892466392.2776498570,-284737286073.4318169052)"
    />
  
  <line
    x1="-53892466362.61003"
    y1="284737286044.49316"
    x2="-53892466359.35694"
    y2="284737286092.38336"
    stroke="hsla(0,50%,50%,0.6)"
    stroke-width="1"
    transform="translate(53892466392.2776498570,-284737286073.4318169052)"
    />
  
  <line
    x1="-53892466361.57157"
    y1="284737286071.0695"
    x2="-53892466359.35694"
    y2="284737286092.38336"
    stroke="hsla(0,50%,50%,0.6)"
    stroke-width="1"
    transform="translate(53892466392.2776498570,-284737286073.4318169052)"
    />
  
  <line
    x1="-53892466386.49358"
    y1="284737286069.339"
    x2="-53892466383.296616"
    y2="284737286098.6026"
    stroke="hsla(0,50%,50%,0.6)"
    stroke-width="1"
    transform="translate(53892466392.2776498570,-284737286073.4318169052)"
    />
  
  <line
    x1="-53892466389.905426"
    y1="284737286051.97546"
    x2="-53892466383.296616"
    y2="284737286098.6026"
    stroke="hsla(0,50%,50%,0.6)"
    stroke-width="1"
    transform="translate(53892466392.2776498570,-284737286073.4318169052)"
    />
  
  <line
    x1="-53892466375.40018"
    y1="284737286049.2142"
    x2="-53892466362.06785"
    y2="284737286095.9392"
    stroke="hsla(0,50%,50%,0.6)"
    stroke-width="1"
    transform="translate(53892466392.2776498570,-284737286073.4318169052)"
    />
  
  <line
    x1="-53892466405.91696"
    y1="284737286089.5449"
    x2="-53892466402.59532"
    y2="284737286101.0238"
    stroke="hsla(0,50%,50%,0.6)"
    stroke-width="1"
    transform="translate(53892466392.2776498570,-284737286073.4318169052)"
    />
  
  <line
    x1="-53892466425.19836"
    y1="284737286063.42334"
    x2="-53892466413.329384"
    y2="284737286102.3705"
    stroke="hsla(0,50%,50%,0.6)"
    stroke-width="1"
    transform="translate(53892466392.2776498570,-284737286073.4318169052)"
    />
  
  <line
    x1="-53892466369.38635"
    y1="284737286087.59973"
    x2="-53892466366.99899"
    y2="284737286093.0397"
    stroke="hsla(0,50%,50%,0.6)"
    stroke-width="1"
    transform="translate(53892466392.2776498570,-284737286073.4318169052)"
    />
  
  <line
    x1="-53892466362.61003"
    y1="284737286044.49316"
    x2="-53892466413.08104"
    y2="284737286096.9976"
    stroke="hsla(0,50%,50%,0.6)"
    stroke-width="1"
    transform="translate(53892466392.2776498570,-284737286073.4318169052)"
    />
  
  <line
    x1="-53892466369.38635"
    y1="284737286087.59973"
    x2="-53892466385.37961"
    y2="284737286094.6184"
    stroke="hsla(0,50%,50%,0.6)"
    stroke-width="1"
    transform="translate(53892466392.2776498570,-284737286073.4318169052)"
    />
  
  <line
    x1="-53892466389.905426"
    y1="284737286051.97546"
    x2="-53892466425.19836"
    y2="284737286063.42334"
    stroke="hsla(0,50%,50%,0.6)"
    stroke-width="1"
    transform="translate(53892466392.2776498570,-284737286073.4318169052)"
    />
  
  <line
    x1="-53892466375.40018"
    y1="284737286049.2142"
    x2="-53892466425.19836"
    y2="284737286063.42334"
    stroke="hsla(0,50%,50%,0.6)"
    stroke-width="1"
    transform="translate(53892466392.2776498570,-284737286073.4318169052)"
    />
  
  <line
    x1="-53892466362.06785"
    y1="284737286095.9392"
    x2="-53892466413.329384"
    y2="284737286102.3705"
    stroke="hsla(0,50%,50%,0.6)"
    stroke-width="1"
    transform="translate(53892466392.2776498570,-284737286073.4318169052)"
    />
  
  <line
    x1="-53892466359.35694"
    y1="284737286092.38336"
    x2="-53892466413.08104"
    y2="284737286096.9976"
    stroke="hsla(0,50%,50%,0.6)"
    stroke-width="1"
    transform="translate(53892466392.2776498570,-284737286073.4318169052)"
    />
  
  <line
    x1="-53892466405.91696"
    y1="284737286089.5449"
    x2="-53892466385.37961"
    y2="284737286094.6184"
    stroke="hsla(0,50%,50%,0.6)"
    stroke-width="1"
    transform="translate(53892466392.2776498570,-284737286073.4318169052)"
    />
  
  <line
    x1="-53892466362.61003"
    y1="284737286044.49316"
    x2="-53892466360.611374"
    y2="284737286044.5498"
    stroke="hsla(0,50%,50%,0.6)"
    stroke-width="1"
    transform="translate(53892466392.2776498570,-284737286073.4318169052)"
    />
  
  <line
    x1="-53892466401.010826"
    y1="284737286051.61926"
    x2="-53892466389.905426"
    y2="284737286051.97546"
    stroke="hsla(0,50%,50%,0.6)"
    stroke-width="1"
    transform="translate(53892466392.2776498570,-284737286073.4318169052)"
    />
  
  <line
    x1="-53892466386.49358"
    y1="284737286069.339"
    x2="-53892466361.57157"
    y2="284737286071.0695"
    stroke="hsla(0,50%,50%,0.6)"
    stroke-width="1"
    transform="translate(53892466392.2776498570,-284737286073.4318169052)"
    />
  
</svg>
