<?xml version="1.0"?>
<!DOCTYPE svg PUBLIC "-//W3C//DTD SVG 1.1//EN"
  "http://www.w3.org/Graphics/SVG/1.1/DTD/svg11.dtd">
<svg
  width="240"
  height="240"
  viewBox="-500 -500 1000 1000" xmlns="http://www.w3.org/2000/svg" version="1.1">
  <rect
    x="0"
    y="0"
    width="100"
    height="100"
    fill="hsla(206,100%,53%,0.3)"
    stroke="hsl(206,100%,53%)"
    stroke-width="3"
    transform="" />
  
  <path
    d="M 
      3.0172413793
      -23.7068965517
      L
    
      6.4655172413
      -20.0862068965
      L
    
      10.4281767955
      -23.1353591160
      L
    
      37.6246882793
      12.2090606816
      L
    
      32.1428571428
      25
      L
    
      12.5
      25
      L
    
      -2.0833333333
      10.4166666666
      L
    
      -2.6315789473
      0
      L
    
      0
      -0.2777777777
      L
    
      0
      -2.9166666666
      L
    
      5.0480769230
      -3.4495192307
      L
    
      -6.0344827586
      -15.0862068965
      z
    "
    fill="hsla(0,0%,50%,0.3)"
    stroke="hsla(0,0%,50%,1)"
    stroke-width="1"
    transform="translate(-15.8543455754,-4.3029097670)"
    />
  
  <path
    d="M 
      12.5
      4.375
      L
    
      12.5
      11.1842105263
      L
    
      19.3271767810
      11.5435356200
      z
    "
    fill="hsla(0,0%,50%,0.3)"
    stroke="hsla(0,0%,50%,1)"
    stroke-width="1"
    transform="translate(-15.8543455754,-4.3029097670)"
    />
  
  
  <line
    x1="10.42817679558011"
    y1="-23.135359116022098"
    x2="37.62468827930174"
    y2="12.20906068162926"
    stroke="hsla(0,50%,50%,0.6)"
    stroke-width="1"
    transform="translate(-15.8543455754,-4.3029097670)"
    />
  
  <line
    x1="3.0172413793103448"
    y1="-23.70689655172414"
    x2="37.5"
    y2="12.5"
    stroke="hsla(0,50%,50%,0.6)"
    stroke-width="1"
    transform="translate(-15.8543455754,-4.3029097670)"
    />
  
  <line
    x1="1.1116152450090744"
    y1="-21.89201451905626"
    x2="37.5"
    y2="12.5"
    stroke="hsla(0,50%,50%,0.6)"
    stroke-width="1"
    transform="translate(-15.8543455754,-4.3029097670)"
    />
  
  <line
    x1="4.645593869731801"
    y1="-21.99712643678161"
    x2="-5.316091954022989"
    y2="-14.331896551724139"
    stroke="hsla(0,50%,50%,0.6)"
    stroke-width="1"
    transform="translate(-15.8543455754,-4.3029097670)"
    />
  
  <line
    x1="3.0172413793103448"
    y1="-23.70689655172414"
    x2="-6.0344827586206895"
    y2="-15.086206896551724"
    stroke="hsla(0,50%,50%,0.6)"
    stroke-width="1"
    transform="translate(-15.8543455754,-4.3029097670)"
    />
  
  <line
    x1="10.42817679558011"
    y1="-23.135359116022098"
    x2="-3.496168582375479"
    y2="-12.420977011494253"
    stroke="hsla(0,50%,50%,0.6)"
    stroke-width="1"
    transform="translate(-15.8543455754,-4.3029097670)"
    />
  
  <line
    x1="1.1116152450090744"
    y1="-21.89201451905626"
    x2="-5.316091954022989"
    y2="-14.331896551724139"
    stroke="hsla(0,50%,50%,0.6)"
    stroke-width="1"
    transform="translate(-15.8543455754,-4.3029097670)"
    />
  
  <line
    x1="4.645593869731801"
    y1="-21.99712643678161"
    x2="-3.496168582375479"
    y2="-12.420977011494253"
    stroke="hsla(0,50%,50%,0.6)"
    stroke-width="1"
    transform="translate(-15.8543455754,-4.3029097670)"
    />
  
  <line
    x1="5.524861878453039"
    y1="-4.972375690607735"
    x2="12.5"
    y2="-4.236111111111111"
    stroke="hsla(0,50%,50%,0.6)"
    stroke-width="1"
    transform="translate(-15.8543455754,-4.3029097670)"
    />
  
  <line
    x1="-6.0344827586206895"
    y1="-15.086206896551724"
    x2="32.142857142857146"
    y2="25"
    stroke="hsla(0,50%,50%,0.6)"
    stroke-width="1"
    transform="translate(-15.8543455754,-4.3029097670)"
    />
  
  <line
    x1="12.5"
    y1="-4.236111111111111"
    x2="0"
    y2="-2.9166666666666665"
    stroke="hsla(0,50%,50%,0.6)"
    stroke-width="1"
    transform="translate(-15.8543455754,-4.3029097670)"
    />
  
  <line
    x1="0"
    y1="-2.9166666666666665"
    x2="12.5"
    y2="-1.5972222222222223"
    stroke="hsla(0,50%,50%,0.6)"
    stroke-width="1"
    transform="translate(-15.8543455754,-4.3029097670)"
    />
  
  <line
    x1="12.5"
    y1="-1.5972222222222223"
    x2="-2.6315789473684212"
    y2="0"
    stroke="hsla(0,50%,50%,0.6)"
    stroke-width="1"
    transform="translate(-15.8543455754,-4.3029097670)"
    />
  
  <line
    x1="-2.6315789473684212"
    y1="0"
    x2="12.5"
    y2="0"
    stroke="hsla(0,50%,50%,0.6)"
    stroke-width="1"
    transform="translate(-15.8543455754,-4.3029097670)"
    />
  
  <line
    x1="0"
    y1="-2.9166666666666665"
    x2="0"
    y2="12.5"
    stroke="hsla(0,50%,50%,0.6)"
    stroke-width="1"
    transform="translate(-15.8543455754,-4.3029097670)"
    />
  
  <line
    x1="12.5"
    y1="-4.236111111111111"
    x2="12.5"
    y2="25"
    stroke="hsla(0,50%,50%,0.6)"
    stroke-width="1"
    transform="translate(-15.8543455754,-4.3029097670)"
    />
  
  <line
    x1="-2.6315789473684212"
    y1="0"
    x2="-2.0833333333333335"
    y2="10.416666666666666"
    stroke="hsla(0,50%,50%,0.6)"
    stroke-width="1"
    transform="translate(-15.8543455754,-4.3029097670)"
    />
  
  <line
    x1="5.524861878453039"
    y1="-4.972375690607735"
    x2="3.329145728643216"
    y2="15.829145728643216"
    stroke="hsla(0,50%,50%,0.6)"
    stroke-width="1"
    transform="translate(-15.8543455754,-4.3029097670)"
    />
  
  <line
    x1="-2.0833333333333335"
    y1="10.416666666666666"
    x2="12.5"
    y2="25"
    stroke="hsla(0,50%,50%,0.6)"
    stroke-width="1"
    transform="translate(-15.8543455754,-4.3029097670)"
    />
  
  <line
    x1="-2.0833333333333335"
    y1="10.416666666666666"
    x2="37.5"
    y2="12.5"
    stroke="hsla(0,50%,50%,0.6)"
    stroke-width="1"
    transform="translate(-15.8543455754,-4.3029097670)"
    />
  
  <line
    x1="0"
    y1="12.5"
    x2="37.5"
    y2="12.5"
    stroke="hsla(0,50%,50%,0.6)"
    stroke-width="1"
    transform="translate(-15.8543455754,-4.3029097670)"
    />
  
  <line
    x1="37.62468827930174"
    y1="12.20906068162926"
    x2="32.142857142857146"
    y2="25"
    stroke="hsla(0,50%,50%,0.6)"
    stroke-width="1"
    transform="translate(-15.8543455754,-4.3029097670)"
    />
  
  <line
    x1="37.62468827930174"
    y1="12.20906068162926"
    x2="3.329145728643216"
    y2="15.829145728643216"
    stroke="hsla(0,50%,50%,0.6)"
    stroke-width="1"
    transform="translate(-15.8543455754,-4.3029097670)"
    />
  
  <line
    x1="12.5"
    y1="25"
    x2="32.142857142857146"
    y2="25"
    stroke="hsla(0,50%,50%,0.6)"
    stroke-width="1"
    transform="translate(-15.8543455754,-4.3029097670)"
    />
  
</svg>
