<?xml version="1.0"?>
<!DOCTYPE svg PUBLIC "-//W3C//DTD SVG 1.1//EN"
  "http://www.w3.org/Graphics/SVG/1.1/DTD/svg11.dtd">
<svg
  width="240"
  height="240"
  viewBox="-50 -50 200 200" xmlns="http://www.w3.org/2000/svg" version="1.1">
  <rect
    x="0"
    y="0"
    width="100"
    height="100"
    fill="hsla(206,100%,53%,0.3)"
    stroke="hsl(206,100%,53%)"
    stroke-width="3"
    transform="" />
  
  <path
    d="M 
      68.4615384615
      17.6923076923
      L
    
      102.6923076923
      26.5384615384
      L
    
      115.3846153846
      48.0769230769
      L
    
      136.9230769230
      35.3846153846
      L
    
      128.0769230769
      69.6153846153
      L
    
      106.5384615384
      82.3076923076
      L
    
      119.2307692307
      103.8461538461
      L
    
      85
      95
      L
    
      72.3076923076
      73.4615384615
      L
    
      50.7692307692
      86.1538461538
      L
    
      59.6153846153
      51.9230769230
      L
    
      81.1538461538
      39.2307692307
      z
    "
    fill="hsla(0,0%,50%,0.3)"
    stroke="hsla(0,0%,50%,1)"
    stroke-width="1"
    transform="translate(-72.6616962139,-53.6006986177) scale(1,-1) translate(50,-110)"
    />
  
  
  <line
    x1="102.6923076923077"
    y1="26.53846153846154"
    x2="128.07692307692307"
    y2="69.61538461538461"
    stroke="hsla(0,50%,50%,0.6)"
    stroke-width="1"
    transform="translate(-72.6616962139,-53.6006986177) scale(1,-1) translate(50,-110)"
    />
  
  <line
    x1="68.46153846153847"
    y1="17.692307692307693"
    x2="119.23076923076923"
    y2="103.84615384615384"
    stroke="hsla(0,50%,50%,0.6)"
    stroke-width="1"
    transform="translate(-72.6616962139,-53.6006986177) scale(1,-1) translate(50,-110)"
    />
  
  <line
    x1="59.61538461538461"
    y1="51.92307692307692"
    x2="85"
    y2="95"
    stroke="hsla(0,50%,50%,0.6)"
    stroke-width="1"
    transform="translate(-72.6616962139,-53.6006986177) scale(1,-1) translate(50,-110)"
    />
  
  <line
    x1="68.46153846153847"
    y1="17.692307692307693"
    x2="102.6923076923077"
    y2="26.53846153846154"
    stroke="hsla(0,50%,50%,0.6)"
    stroke-width="1"
    transform="translate(-72.6616962139,-53.6006986177) scale(1,-1) translate(50,-110)"
    />
  
  <line
    x1="59.61538461538461"
    y1="51.92307692307692"
    x2="50.76923076923077"
    y2="86.15384615384616"
    stroke="hsla(0,50%,50%,0.6)"
    stroke-width="1"
    transform="translate(-72.6616962139,-53.6006986177) scale(1,-1) translate(50,-110)"
    />
  
  <line
    x1="102.6923076923077"
    y1="26.53846153846154"
    x2="85"
    y2="95"
    stroke="hsla(0,50%,50%,0.6)"
    stroke-width="1"
    transform="translate(-72.6616962139,-53.6006986177) scale(1,-1) translate(50,-110)"
    />
  
  <line
    x1="59.61538461538461"
    y1="51.92307692307692"
    x2="128.07692307692307"
    y2="69.61538461538461"
    stroke="hsla(0,50%,50%,0.6)"
    stroke-width="1"
    transform="translate(-72.6616962139,-53.6006986177) scale(1,-1) translate(50,-110)"
    />
  
  <line
    x1="136.92307692307693"
    y1="35.38461538461539"
    x2="128.07692307692307"
    y2="69.61538461538461"
    stroke="hsla(0,50%,50%,0.6)"
    stroke-width="1"
    transform="translate(-72.6616962139,-53.6006986177) scale(1,-1) translate(50,-110)"
    />
  
  <line
    x1="102.6923076923077"
    y1="26.53846153846154"
    x2="59.61538461538461"
    y2="51.92307692307692"
    stroke="hsla(0,50%,50%,0.6)"
    stroke-width="1"
    transform="translate(-72.6616962139,-53.6006986177) scale(1,-1) translate(50,-110)"
    />
  
  <line
    x1="85"
    y1="95"
    x2="119.23076923076923"
    y2="103.84615384615384"
    stroke="hsla(0,50%,50%,0.6)"
    stroke-width="1"
    transform="translate(-72.6616962139,-53.6006986177) scale(1,-1) translate(50,-110)"
    />
  
  <line
    x1="136.92307692307693"
    y1="35.38461538461539"
    x2="50.76923076923077"
    y2="86.15384615384616"
    stroke="hsla(0,50%,50%,0.6)"
    stroke-width="1"
    transform="translate(-72.6616962139,-53.6006986177) scale(1,-1) translate(50,-110)"
    />
  
  <line
    x1="128.07692307692307"
    y1="69.61538461538461"
    x2="85"
    y2="95"
    stroke="hsla(0,50%,50%,0.6)"
    stroke-width="1"
    transform="translate(-72.6616962139,-53.6006986177) scale(1,-1) translate(50,-110)"
    />
  
</svg>
