<?xml version="1.0"?>
<!DOCTYPE svg PUBLIC "-//W3C//DTD SVG 1.1//EN"
  "http://www.w3.org/Graphics/SVG/1.1/DTD/svg11.dtd">
<svg
  width="240"
  height="240"
  viewBox="-500 -500 1000 1000" xmlns="http://www.w3.org/2000/svg" version="1.1">
  <rect
    x="0"
    y="0"
    width="100"
    height="100"
    fill="hsla(206,100%,53%,0.3)"
    stroke="hsl(206,100%,53%)"
    stroke-width="3"
    transform="" />
  
  <path
    d="M 
      86.1538461538
      -50.7692307692
      L
    
      98.8461538461
      -29.2307692307
      L
    
      120.3846153846
      -41.9230769230
      L
    
      154.6153846153
      -33.0769230769
      L
    
      133.0769230769
      -20.3846153846
      L
    
      145.7692307692
      1.1538461538
      L
    
      136.9230769230
      35.3846153846
      L
    
      124.2307692307
      13.8461538461
      L
    
      102.6923076923
      26.5384615384
      L
    
      68.4615384615
      17.6923076923
      L
    
      90
      5
      L
    
      77.3076923076
      -16.5384615384
      z
    "
    fill="hsla(0,0%,50%,0.3)"
    stroke="hsla(0,0%,50%,1)"
    stroke-width="1"
    transform="translate(-111.5384615384,7.6923076923)"
    />
  
  
  <line
    x1="120.38461538461539"
    y1="-41.92307692307692"
    x2="154.6153846153846"
    y2="-33.07692307692308"
    stroke="hsla(0,50%,50%,0.6)"
    stroke-width="1"
    transform="translate(-111.5384615384,7.6923076923)"
    />
  
  <line
    x1="120.38461538461539"
    y1="-41.92307692307692"
    x2="145.76923076923077"
    y2="1.1538461538461537"
    stroke="hsla(0,50%,50%,0.6)"
    stroke-width="1"
    transform="translate(-111.5384615384,7.6923076923)"
    />
  
  <line
    x1="86.15384615384616"
    y1="-50.76923076923077"
    x2="136.92307692307693"
    y2="35.38461538461539"
    stroke="hsla(0,50%,50%,0.6)"
    stroke-width="1"
    transform="translate(-111.5384615384,7.6923076923)"
    />
  
  <line
    x1="77.3076923076923"
    y1="-16.53846153846154"
    x2="102.6923076923077"
    y2="26.53846153846154"
    stroke="hsla(0,50%,50%,0.6)"
    stroke-width="1"
    transform="translate(-111.5384615384,7.6923076923)"
    />
  
  <line
    x1="77.3076923076923"
    y1="-16.53846153846154"
    x2="145.76923076923077"
    y2="1.1538461538461537"
    stroke="hsla(0,50%,50%,0.6)"
    stroke-width="1"
    transform="translate(-111.5384615384,7.6923076923)"
    />
  
  <line
    x1="68.46153846153847"
    y1="17.692307692307693"
    x2="102.6923076923077"
    y2="26.53846153846154"
    stroke="hsla(0,50%,50%,0.6)"
    stroke-width="1"
    transform="translate(-111.5384615384,7.6923076923)"
    />
  
  <line
    x1="86.15384615384616"
    y1="-50.76923076923077"
    x2="77.3076923076923"
    y2="-16.53846153846154"
    stroke="hsla(0,50%,50%,0.6)"
    stroke-width="1"
    transform="translate(-111.5384615384,7.6923076923)"
    />
  
  <line
    x1="120.38461538461539"
    y1="-41.92307692307692"
    x2="77.3076923076923"
    y2="-16.53846153846154"
    stroke="hsla(0,50%,50%,0.6)"
    stroke-width="1"
    transform="translate(-111.5384615384,7.6923076923)"
    />
  
  <line
    x1="120.38461538461539"
    y1="-41.92307692307692"
    x2="102.6923076923077"
    y2="26.53846153846154"
    stroke="hsla(0,50%,50%,0.6)"
    stroke-width="1"
    transform="translate(-111.5384615384,7.6923076923)"
    />
  
  <line
    x1="145.76923076923077"
    y1="1.1538461538461537"
    x2="136.92307692307693"
    y2="35.38461538461539"
    stroke="hsla(0,50%,50%,0.6)"
    stroke-width="1"
    transform="translate(-111.5384615384,7.6923076923)"
    />
  
  <line
    x1="154.6153846153846"
    y1="-33.07692307692308"
    x2="68.46153846153847"
    y2="17.692307692307693"
    stroke="hsla(0,50%,50%,0.6)"
    stroke-width="1"
    transform="translate(-111.5384615384,7.6923076923)"
    />
  
  <line
    x1="145.76923076923077"
    y1="1.1538461538461537"
    x2="102.6923076923077"
    y2="26.53846153846154"
    stroke="hsla(0,50%,50%,0.6)"
    stroke-width="1"
    transform="translate(-111.5384615384,7.6923076923)"
    />
  
</svg>
