<?xml version="1.0"?>
<!DOCTYPE svg PUBLIC "-//W3C//DTD SVG 1.1//EN"
  "http://www.w3.org/Graphics/SVG/1.1/DTD/svg11.dtd">
<svg
  width="240"
  height="240"
  viewBox="-500 -500 1000 1000" xmlns="http://www.w3.org/2000/svg" version="1.1">
  <rect
    x="0"
    y="0"
    width="100"
    height="100"
    fill="hsla(206,100%,53%,0.3)"
    stroke="hsl(206,100%,53%)"
    stroke-width="3"
    transform="" />
  
  <path
    d="M 
      92.3076923076
      38.4615384615
      L
    
      82.6923076923
      61.5384615384
      L
    
      105.7692307692
      71.1538461538
      L
    
      119.2307692307
      103.8461538461
      L
    
      96.1538461538
      94.2307692307
      L
    
      86.5384615384
      117.3076923076
      L
    
      53.8461538461
      130.7692307692
      L
    
      63.4615384615
      107.6923076923
      L
    
      40.3846153846
      98.0769230769
      L
    
      26.9230769230
      65.3846153846
      L
    
      50
      75
      L
    
      59.6153846153
      51.9230769230
      z
    "
    fill="hsla(0,0%,50%,0.3)"
    stroke="hsla(0,0%,50%,1)"
    stroke-width="1"
    transform="translate(-73.0769230769,-84.6153846153)"
    />
  
  
  <line
    x1="105.76923076923077"
    y1="71.15384615384616"
    x2="119.23076923076923"
    y2="103.84615384615384"
    stroke="hsla(0,50%,50%,0.6)"
    stroke-width="1"
    transform="translate(-73.0769230769,-84.6153846153)"
    />
  
  <line
    x1="59.61538461538461"
    y1="51.92307692307692"
    x2="86.53846153846153"
    y2="117.3076923076923"
    stroke="hsla(0,50%,50%,0.6)"
    stroke-width="1"
    transform="translate(-73.0769230769,-84.6153846153)"
    />
  
  <line
    x1="26.923076923076923"
    y1="65.38461538461539"
    x2="40.38461538461539"
    y2="98.07692307692308"
    stroke="hsla(0,50%,50%,0.6)"
    stroke-width="1"
    transform="translate(-73.0769230769,-84.6153846153)"
    />
  
  <line
    x1="59.61538461538461"
    y1="51.92307692307692"
    x2="105.76923076923077"
    y2="71.15384615384616"
    stroke="hsla(0,50%,50%,0.6)"
    stroke-width="1"
    transform="translate(-73.0769230769,-84.6153846153)"
    />
  
  <line
    x1="59.61538461538461"
    y1="51.92307692307692"
    x2="40.38461538461539"
    y2="98.07692307692308"
    stroke="hsla(0,50%,50%,0.6)"
    stroke-width="1"
    transform="translate(-73.0769230769,-84.6153846153)"
    />
  
  <line
    x1="92.3076923076923"
    y1="38.46153846153846"
    x2="53.84615384615385"
    y2="130.76923076923077"
    stroke="hsla(0,50%,50%,0.6)"
    stroke-width="1"
    transform="translate(-73.0769230769,-84.6153846153)"
    />
  
  <line
    x1="26.923076923076923"
    y1="65.38461538461539"
    x2="119.23076923076923"
    y2="103.84615384615384"
    stroke="hsla(0,50%,50%,0.6)"
    stroke-width="1"
    transform="translate(-73.0769230769,-84.6153846153)"
    />
  
  <line
    x1="105.76923076923077"
    y1="71.15384615384616"
    x2="86.53846153846153"
    y2="117.3076923076923"
    stroke="hsla(0,50%,50%,0.6)"
    stroke-width="1"
    transform="translate(-73.0769230769,-84.6153846153)"
    />
  
  <line
    x1="92.3076923076923"
    y1="38.46153846153846"
    x2="59.61538461538461"
    y2="51.92307692307692"
    stroke="hsla(0,50%,50%,0.6)"
    stroke-width="1"
    transform="translate(-73.0769230769,-84.6153846153)"
    />
  
  <line
    x1="40.38461538461539"
    y1="98.07692307692308"
    x2="86.53846153846153"
    y2="117.3076923076923"
    stroke="hsla(0,50%,50%,0.6)"
    stroke-width="1"
    transform="translate(-73.0769230769,-84.6153846153)"
    />
  
  <line
    x1="105.76923076923077"
    y1="71.15384615384616"
    x2="40.38461538461539"
    y2="98.07692307692308"
    stroke="hsla(0,50%,50%,0.6)"
    stroke-width="1"
    transform="translate(-73.0769230769,-84.6153846153)"
    />
  
  <line
    x1="86.53846153846153"
    y1="117.3076923076923"
    x2="53.84615384615385"
    y2="130.76923076923077"
    stroke="hsla(0,50%,50%,0.6)"
    stroke-width="1"
    transform="translate(-73.0769230769,-84.6153846153)"
    />
  
</svg>
