<?xml version="1.0"?>
<!DOCTYPE svg PUBLIC "-//W3C//DTD SVG 1.1//EN"
  "http://www.w3.org/Graphics/SVG/1.1/DTD/svg11.dtd">
<svg
  width="240"
  height="240"
  viewBox="-500 -500 1000 1000" xmlns="http://www.w3.org/2000/svg" version="1.1">
  <rect
    x="0"
    y="0"
    width="100"
    height="100"
    fill="hsla(206,100%,53%,0.3)"
    stroke="hsl(206,100%,53%)"
    stroke-width="3"
    transform="" />
  
  <path
    d="M 
      26.9230769230
      65.3846153846
      L
    
      40.3846153846
      98.0769230769
      L
    
      30.7692307692
      121.1538461538
      L
    
      53.8461538461
      130.7692307692
      L
    
      21.1538461538
      144.2307692307
      L
    
      -1.9230769230
      134.6153846153
      L
    
      -11.5384615384
      157.6923076923
      L
    
      -25
      125
      L
    
      -15.3846153846
      101.9230769230
      L
    
      -38.4615384615
      92.3076923076
      L
    
      -5.7692307692
      78.8461538461
      L
    
      17.3076923076
      88.4615384615
      z
    "
    fill="hsla(0,0%,50%,0.3)"
    stroke="hsla(0,0%,50%,1)"
    stroke-width="1"
    transform="translate(-7.6923076923,-111.5384615384)"
    />
  
  
  <line
    x1="26.923076923076923"
    y1="65.38461538461539"
    x2="40.38461538461539"
    y2="98.07692307692308"
    stroke="hsla(0,50%,50%,0.6)"
    stroke-width="1"
    transform="translate(-7.6923076923,-111.5384615384)"
    />
  
  <line
    x1="-5.769230769230769"
    y1="78.84615384615384"
    x2="-25"
    y2="125"
    stroke="hsla(0,50%,50%,0.6)"
    stroke-width="1"
    transform="translate(-7.6923076923,-111.5384615384)"
    />
  
  <line
    x1="-5.769230769230769"
    y1="78.84615384615384"
    x2="21.153846153846153"
    y2="144.23076923076923"
    stroke="hsla(0,50%,50%,0.6)"
    stroke-width="1"
    transform="translate(-7.6923076923,-111.5384615384)"
    />
  
  <line
    x1="26.923076923076923"
    y1="65.38461538461539"
    x2="-11.538461538461538"
    y2="157.69230769230768"
    stroke="hsla(0,50%,50%,0.6)"
    stroke-width="1"
    transform="translate(-7.6923076923,-111.5384615384)"
    />
  
  <line
    x1="-25"
    y1="125"
    x2="-11.538461538461538"
    y2="157.69230769230768"
    stroke="hsla(0,50%,50%,0.6)"
    stroke-width="1"
    transform="translate(-7.6923076923,-111.5384615384)"
    />
  
  <line
    x1="40.38461538461539"
    y1="98.07692307692308"
    x2="21.153846153846153"
    y2="144.23076923076923"
    stroke="hsla(0,50%,50%,0.6)"
    stroke-width="1"
    transform="translate(-7.6923076923,-111.5384615384)"
    />
  
  <line
    x1="-5.769230769230769"
    y1="78.84615384615384"
    x2="-38.46153846153846"
    y2="92.3076923076923"
    stroke="hsla(0,50%,50%,0.6)"
    stroke-width="1"
    transform="translate(-7.6923076923,-111.5384615384)"
    />
  
  <line
    x1="-5.769230769230769"
    y1="78.84615384615384"
    x2="40.38461538461539"
    y2="98.07692307692308"
    stroke="hsla(0,50%,50%,0.6)"
    stroke-width="1"
    transform="translate(-7.6923076923,-111.5384615384)"
    />
  
  <line
    x1="-38.46153846153846"
    y1="92.3076923076923"
    x2="53.84615384615385"
    y2="130.76923076923077"
    stroke="hsla(0,50%,50%,0.6)"
    stroke-width="1"
    transform="translate(-7.6923076923,-111.5384615384)"
    />
  
  <line
    x1="40.38461538461539"
    y1="98.07692307692308"
    x2="-25"
    y2="125"
    stroke="hsla(0,50%,50%,0.6)"
    stroke-width="1"
    transform="translate(-7.6923076923,-111.5384615384)"
    />
  
  <line
    x1="-25"
    y1="125"
    x2="21.153846153846153"
    y2="144.23076923076923"
    stroke="hsla(0,50%,50%,0.6)"
    stroke-width="1"
    transform="translate(-7.6923076923,-111.5384615384)"
    />
  
  <line
    x1="53.84615384615385"
    y1="130.76923076923077"
    x2="21.153846153846153"
    y2="144.23076923076923"
    stroke="hsla(0,50%,50%,0.6)"
    stroke-width="1"
    transform="translate(-7.6923076923,-111.5384615384)"
    />
  
</svg>
