<?xml version="1.0"?>
<!DOCTYPE svg PUBLIC "-//W3C//DTD SVG 1.1//EN"
  "http://www.w3.org/Graphics/SVG/1.1/DTD/svg11.dtd">
<svg
  width="240"
  height="240"
  viewBox="-500 -500 1000 1000" xmlns="http://www.w3.org/2000/svg" version="1.1">
  <rect
    x="0"
    y="0"
    width="100"
    height="100"
    fill="hsla(206,100%,53%,0.3)"
    stroke="hsl(206,100%,53%)"
    stroke-width="3"
    transform="" />
  
  <path
    d="M 
      23.0769230769
      -15.3846153846
      L
    
      60
      0
      L
    
      100
      0
      L
    
      88.2352941176
      11.7647058823
      L
    
      115.3846153846
      23.0769230769
      L
    
      50
      50
      L
    
      0
      0
      L
    
      29.4117647058
      0
      z
    "
    fill="hsla(0,0%,50%,0.3)"
    stroke="hsla(0,0%,50%,1)"
    stroke-width="1"
    transform="translate(-57.6923076923,-17.3076923076)"
    />
  
  
  <line
    x1="23.076923076923077"
    y1="-15.384615384615385"
    x2="115.38461538461539"
    y2="23.076923076923077"
    stroke="hsla(0,50%,50%,0.6)"
    stroke-width="1"
    transform="translate(-57.6923076923,-17.3076923076)"
    />
  
  <line
    x1="23.076923076923077"
    y1="-15.384615384615385"
    x2="50"
    y2="50"
    stroke="hsla(0,50%,50%,0.6)"
    stroke-width="1"
    transform="translate(-57.6923076923,-17.3076923076)"
    />
  
  <line
    x1="0"
    y1="0"
    x2="100"
    y2="0"
    stroke="hsla(0,50%,50%,0.6)"
    stroke-width="1"
    transform="translate(-57.6923076923,-17.3076923076)"
    />
  
  <line
    x1="0"
    y1="0"
    x2="50"
    y2="50"
    stroke="hsla(0,50%,50%,0.6)"
    stroke-width="1"
    transform="translate(-57.6923076923,-17.3076923076)"
    />
  
  <line
    x1="60"
    y1="0"
    x2="50"
    y2="50"
    stroke="hsla(0,50%,50%,0.6)"
    stroke-width="1"
    transform="translate(-57.6923076923,-17.3076923076)"
    />
  
  <line
    x1="100"
    y1="0"
    x2="50"
    y2="50"
    stroke="hsla(0,50%,50%,0.6)"
    stroke-width="1"
    transform="translate(-57.6923076923,-17.3076923076)"
    />
  
  <line
    x1="115.38461538461539"
    y1="23.076923076923077"
    x2="50"
    y2="50"
    stroke="hsla(0,50%,50%,0.6)"
    stroke-width="1"
    transform="translate(-57.6923076923,-17.3076923076)"
    />
  
</svg>
