<?xml version="1.0"?>
<!DOCTYPE svg PUBLIC "-//W3C//DTD SVG 1.1//EN"
  "http://www.w3.org/Graphics/SVG/1.1/DTD/svg11.dtd">
<svg
  width="240"
  height="240"
  viewBox="-50 -50 200 200" xmlns="http://www.w3.org/2000/svg" version="1.1">
  <rect
    x="0"
    y="0"
    width="100"
    height="100"
    fill="hsla(206,100%,53%,0.3)"
    stroke="hsl(206,100%,53%)"
    stroke-width="3"
    transform="" />
  
  <path
    d="M 
      -80
      60
      L
    
      -45
      65
      L
    
      -30
      85
      L
    
      -10
      70
      L
    
      -15
      105
      L
    
      -35
      120
      L
    
      -20
      140
      L
    
      -55
      135
      L
    
      -70
      115
      L
    
      -90
      130
      L
    
      -85
      95
      L
    
      -65
      80
      z
    "
    fill="hsla(0,0%,50%,0.3)"
    stroke="hsla(0,0%,50%,1)"
    stroke-width="1"
    transform="translate(71.8481445312,-95.2221679687) scale(1,-1) translate(50,-110)"
    />
  
  
  <line
    x1="-85"
    y1="95"
    x2="-90"
    y2="130"
    stroke="hsla(0,50%,50%,0.6)"
    stroke-width="1"
    transform="translate(71.8481445312,-95.2221679687) scale(1,-1) translate(50,-110)"
    />
  
  <line
    x1="-45"
    y1="65"
    x2="-55"
    y2="135"
    stroke="hsla(0,50%,50%,0.6)"
    stroke-width="1"
    transform="translate(71.8481445312,-95.2221679687) scale(1,-1) translate(50,-110)"
    />
  
  <line
    x1="-10"
    y1="70"
    x2="-15"
    y2="105"
    stroke="hsla(0,50%,50%,0.6)"
    stroke-width="1"
    transform="translate(71.8481445312,-95.2221679687) scale(1,-1) translate(50,-110)"
    />
  
  <line
    x1="-45"
    y1="65"
    x2="-85"
    y2="95"
    stroke="hsla(0,50%,50%,0.6)"
    stroke-width="1"
    transform="translate(71.8481445312,-95.2221679687) scale(1,-1) translate(50,-110)"
    />
  
  <line
    x1="-10"
    y1="70"
    x2="-90"
    y2="130"
    stroke="hsla(0,50%,50%,0.6)"
    stroke-width="1"
    transform="translate(71.8481445312,-95.2221679687) scale(1,-1) translate(50,-110)"
    />
  
  <line
    x1="-45"
    y1="65"
    x2="-15"
    y2="105"
    stroke="hsla(0,50%,50%,0.6)"
    stroke-width="1"
    transform="translate(71.8481445312,-95.2221679687) scale(1,-1) translate(50,-110)"
    />
  
  <line
    x1="-80"
    y1="60"
    x2="-20"
    y2="140"
    stroke="hsla(0,50%,50%,0.6)"
    stroke-width="1"
    transform="translate(71.8481445312,-95.2221679687) scale(1,-1) translate(50,-110)"
    />
  
  <line
    x1="-15"
    y1="105"
    x2="-55"
    y2="135"
    stroke="hsla(0,50%,50%,0.6)"
    stroke-width="1"
    transform="translate(71.8481445312,-95.2221679687) scale(1,-1) translate(50,-110)"
    />
  
  <line
    x1="-80"
    y1="60"
    x2="-45"
    y2="65"
    stroke="hsla(0,50%,50%,0.6)"
    stroke-width="1"
    transform="translate(71.8481445312,-95.2221679687) scale(1,-1) translate(50,-110)"
    />
  
  <line
    x1="-85"
    y1="95"
    x2="-55"
    y2="135"
    stroke="hsla(0,50%,50%,0.6)"
    stroke-width="1"
    transform="translate(71.8481445312,-95.2221679687) scale(1,-1) translate(50,-110)"
    />
  
  <line
    x1="-85"
    y1="95"
    x2="-15"
    y2="105"
    stroke="hsla(0,50%,50%,0.6)"
    stroke-width="1"
    transform="translate(71.8481445312,-95.2221679687) scale(1,-1) translate(50,-110)"
    />
  
  <line
    x1="-55"
    y1="135"
    x2="-20"
    y2="140"
    stroke="hsla(0,50%,50%,0.6)"
    stroke-width="1"
    transform="translate(71.8481445312,-95.2221679687) scale(1,-1) translate(50,-110)"
    />
  
</svg>
