<?xml version="1.0"?>
<!DOCTYPE svg PUBLIC "-//W3C//DTD SVG 1.1//EN"
  "http://www.w3.org/Graphics/SVG/1.1/DTD/svg11.dtd">
<svg
  width="240"
  height="240"
  viewBox="-500 -500 1000 1000" xmlns="http://www.w3.org/2000/svg" version="1.1">
  <rect
    x="0"
    y="0"
    width="100"
    height="100"
    fill="hsla(206,100%,53%,0.3)"
    stroke="hsl(206,100%,53%)"
    stroke-width="3"
    transform="" />
  
  <path
    d="M 
      70.7100591715
      0.2958579881
      L
    
      106.0650887573
      0.4437869822
      L
    
      123.6686390532
      18.1952662721
      L
    
      141.4201183431
      0.5917159763
      L
    
      141.2721893491
      35.9467455621
      L
    
      123.5207100591
      53.5502958579
      L
    
      141.1242603550
      71.3017751479
      L
    
      105.7692307692
      71.1538461538
      L
    
      88.1656804733
      53.4023668639
      L
    
      70.4142011834
      71.0059171597
      L
    
      70.5621301775
      35.6508875739
      L
    
      88.3136094674
      18.0473372781
      z
    "
    fill="hsla(0,0%,50%,0.3)"
    stroke="hsla(0,0%,50%,1)"
    stroke-width="1"
    transform="translate(-105.9171597633,-35.7988165680)"
    />
  
  
  <line
    x1="106.06508875739645"
    y1="0.4437869822485207"
    x2="141.27218934911244"
    y2="35.946745562130175"
    stroke="hsla(0,50%,50%,0.6)"
    stroke-width="1"
    transform="translate(-105.9171597633,-35.7988165680)"
    />
  
  <line
    x1="70.71005917159763"
    y1="0.2958579881656805"
    x2="141.12426035502958"
    y2="71.30177514792899"
    stroke="hsla(0,50%,50%,0.6)"
    stroke-width="1"
    transform="translate(-105.9171597633,-35.7988165680)"
    />
  
  <line
    x1="70.56213017751479"
    y1="35.650887573964496"
    x2="105.76923076923077"
    y2="71.15384615384616"
    stroke="hsla(0,50%,50%,0.6)"
    stroke-width="1"
    transform="translate(-105.9171597633,-35.7988165680)"
    />
  
  <line
    x1="70.71005917159763"
    y1="0.2958579881656805"
    x2="106.06508875739645"
    y2="0.4437869822485207"
    stroke="hsla(0,50%,50%,0.6)"
    stroke-width="1"
    transform="translate(-105.9171597633,-35.7988165680)"
    />
  
  <line
    x1="70.56213017751479"
    y1="35.650887573964496"
    x2="70.41420118343196"
    y2="71.00591715976331"
    stroke="hsla(0,50%,50%,0.6)"
    stroke-width="1"
    transform="translate(-105.9171597633,-35.7988165680)"
    />
  
  <line
    x1="106.06508875739645"
    y1="0.4437869822485207"
    x2="105.76923076923077"
    y2="71.15384615384616"
    stroke="hsla(0,50%,50%,0.6)"
    stroke-width="1"
    transform="translate(-105.9171597633,-35.7988165680)"
    />
  
  <line
    x1="141.42011834319527"
    y1="0.591715976331361"
    x2="141.27218934911244"
    y2="35.946745562130175"
    stroke="hsla(0,50%,50%,0.6)"
    stroke-width="1"
    transform="translate(-105.9171597633,-35.7988165680)"
    />
  
  <line
    x1="70.56213017751479"
    y1="35.650887573964496"
    x2="141.27218934911244"
    y2="35.946745562130175"
    stroke="hsla(0,50%,50%,0.6)"
    stroke-width="1"
    transform="translate(-105.9171597633,-35.7988165680)"
    />
  
  <line
    x1="106.06508875739645"
    y1="0.4437869822485207"
    x2="70.56213017751479"
    y2="35.650887573964496"
    stroke="hsla(0,50%,50%,0.6)"
    stroke-width="1"
    transform="translate(-105.9171597633,-35.7988165680)"
    />
  
  <line
    x1="105.76923076923077"
    y1="71.15384615384616"
    x2="141.12426035502958"
    y2="71.30177514792899"
    stroke="hsla(0,50%,50%,0.6)"
    stroke-width="1"
    transform="translate(-105.9171597633,-35.7988165680)"
    />
  
  <line
    x1="141.42011834319527"
    y1="0.591715976331361"
    x2="70.41420118343196"
    y2="71.00591715976331"
    stroke="hsla(0,50%,50%,0.6)"
    stroke-width="1"
    transform="translate(-105.9171597633,-35.7988165680)"
    />
  
  <line
    x1="141.27218934911244"
    y1="35.946745562130175"
    x2="105.76923076923077"
    y2="71.15384615384616"
    stroke="hsla(0,50%,50%,0.6)"
    stroke-width="1"
    transform="translate(-105.9171597633,-35.7988165680)"
    />
  
</svg>
