<?xml version="1.0"?>
<!DOCTYPE svg PUBLIC "-//W3C//DTD SVG 1.1//EN"
  "http://www.w3.org/Graphics/SVG/1.1/DTD/svg11.dtd">
<svg
  width="240"
  height="240"
  viewBox="-50 -50 200 200" xmlns="http://www.w3.org/2000/svg" version="1.1">
  <rect
    x="0"
    y="0"
    width="100"
    height="100"
    fill="hsla(206,100%,53%,0.3)"
    stroke="hsl(206,100%,53%)"
    stroke-width="3"
    transform="" />
  
  <path
    d="M 
      37.5
      37.5
      L
    
      75
      50
      L
    
      75
      75
      L
    
      60.7142857142
      75
      L
    
      65
      105
      L
    
      45
      90
      L
    
      42.8571428571
      75
      L
    
      25
      75
      L
    
      0
      100
      L
    
      0
      75
      z
    "
    fill="hsla(0,0%,50%,0.3)"
    stroke="hsla(0,0%,50%,1)"
    stroke-width="1"
    transform="translate(-9.2124720982,-82.0654296875) scale(1,-1) translate(50,-110)"
    />
  
  
  <line
    x1="56.25"
    y1="43.75"
    x2="65"
    y2="105"
    stroke="hsla(0,50%,50%,0.6)"
    stroke-width="1"
    transform="translate(-9.2124720982,-82.0654296875) scale(1,-1) translate(50,-110)"
    />
  
  <line
    x1="37.5"
    y1="37.5"
    x2="45"
    y2="90"
    stroke="hsla(0,50%,50%,0.6)"
    stroke-width="1"
    transform="translate(-9.2124720982,-82.0654296875) scale(1,-1) translate(50,-110)"
    />
  
  <line
    x1="0"
    y1="75"
    x2="0"
    y2="100"
    stroke="hsla(0,50%,50%,0.6)"
    stroke-width="1"
    transform="translate(-9.2124720982,-82.0654296875) scale(1,-1) translate(50,-110)"
    />
  
  <line
    x1="75"
    y1="50"
    x2="75"
    y2="75"
    stroke="hsla(0,50%,50%,0.6)"
    stroke-width="1"
    transform="translate(-9.2124720982,-82.0654296875) scale(1,-1) translate(50,-110)"
    />
  
  <line
    x1="37.5"
    y1="37.5"
    x2="75"
    y2="50"
    stroke="hsla(0,50%,50%,0.6)"
    stroke-width="1"
    transform="translate(-9.2124720982,-82.0654296875) scale(1,-1) translate(50,-110)"
    />
  
  <line
    x1="45"
    y1="90"
    x2="65"
    y2="105"
    stroke="hsla(0,50%,50%,0.6)"
    stroke-width="1"
    transform="translate(-9.2124720982,-82.0654296875) scale(1,-1) translate(50,-110)"
    />
  
  <line
    x1="37.5"
    y1="37.5"
    x2="0"
    y2="75"
    stroke="hsla(0,50%,50%,0.6)"
    stroke-width="1"
    transform="translate(-9.2124720982,-82.0654296875) scale(1,-1) translate(50,-110)"
    />
  
  <line
    x1="56.25"
    y1="43.75"
    x2="0"
    y2="100"
    stroke="hsla(0,50%,50%,0.6)"
    stroke-width="1"
    transform="translate(-9.2124720982,-82.0654296875) scale(1,-1) translate(50,-110)"
    />
  
  <line
    x1="75"
    y1="50"
    x2="45"
    y2="90"
    stroke="hsla(0,50%,50%,0.6)"
    stroke-width="1"
    transform="translate(-9.2124720982,-82.0654296875) scale(1,-1) translate(50,-110)"
    />
  
  <line
    x1="0"
    y1="75"
    x2="75"
    y2="75"
    stroke="hsla(0,50%,50%,0.6)"
    stroke-width="1"
    transform="translate(-9.2124720982,-82.0654296875) scale(1,-1) translate(50,-110)"
    />
  
</svg>
