<?xml version="1.0"?>
<!DOCTYPE svg PUBLIC "-//W3C//DTD SVG 1.1//EN"
  "http://www.w3.org/Graphics/SVG/1.1/DTD/svg11.dtd">
<svg
  width="240"
  height="240"
  viewBox="-50 -50 200 200" xmlns="http://www.w3.org/2000/svg" version="1.1">
  <rect
    x="0"
    y="0"
    width="100"
    height="100"
    fill="hsla(206,100%,53%,0.3)"
    stroke="hsl(206,100%,53%)"
    stroke-width="3"
    transform="" />
  
  <path
    d="M 
      135.2941176470
      -41.1764705882
      L
    
      145.5882352941
      -7.3529411764
      L
    
      133.8235294117
      14.7058823529
      L
    
      155.8823529411
      26.4705882352
      L
    
      122.0588235294
      36.7647058823
      L
    
      100
      25
      L
    
      88.2352941176
      47.0588235294
      L
    
      77.9411764705
      13.2352941176
      L
    
      89.7058823529
      -8.8235294117
      L
    
      67.6470588235
      -20.5882352941
      L
    
      101.4705882352
      -30.8823529411
      L
    
      123.5294117647
      -19.1176470588
      z
    "
    fill="hsla(0,0%,50%,0.3)"
    stroke="hsla(0,0%,50%,1)"
    stroke-width="1"
    transform="translate(-106.8395278033,18.8742244944) scale(1,-1) translate(50,-110)"
    />
  
  
  <line
    x1="101.47058823529412"
    y1="-30.88235294117647"
    x2="145.58823529411765"
    y2="-7.352941176470588"
    stroke="hsla(0,50%,50%,0.6)"
    stroke-width="1"
    transform="translate(-106.8395278033,18.8742244944) scale(1,-1) translate(50,-110)"
    />
  
  <line
    x1="67.6470588235294"
    y1="-20.58823529411765"
    x2="155.88235294117646"
    y2="26.470588235294116"
    stroke="hsla(0,50%,50%,0.6)"
    stroke-width="1"
    transform="translate(-106.8395278033,18.8742244944) scale(1,-1) translate(50,-110)"
    />
  
  <line
    x1="135.2941176470588"
    y1="-41.1764705882353"
    x2="145.58823529411765"
    y2="-7.352941176470588"
    stroke="hsla(0,50%,50%,0.6)"
    stroke-width="1"
    transform="translate(-106.8395278033,18.8742244944) scale(1,-1) translate(50,-110)"
    />
  
  <line
    x1="101.47058823529412"
    y1="-30.88235294117647"
    x2="122.05882352941177"
    y2="36.76470588235294"
    stroke="hsla(0,50%,50%,0.6)"
    stroke-width="1"
    transform="translate(-106.8395278033,18.8742244944) scale(1,-1) translate(50,-110)"
    />
  
  <line
    x1="77.94117647058823"
    y1="13.235294117647058"
    x2="122.05882352941177"
    y2="36.76470588235294"
    stroke="hsla(0,50%,50%,0.6)"
    stroke-width="1"
    transform="translate(-106.8395278033,18.8742244944) scale(1,-1) translate(50,-110)"
    />
  
  <line
    x1="77.94117647058823"
    y1="13.235294117647058"
    x2="88.23529411764706"
    y2="47.05882352941177"
    stroke="hsla(0,50%,50%,0.6)"
    stroke-width="1"
    transform="translate(-106.8395278033,18.8742244944) scale(1,-1) translate(50,-110)"
    />
  
  <line
    x1="101.47058823529412"
    y1="-30.88235294117647"
    x2="67.6470588235294"
    y2="-20.58823529411765"
    stroke="hsla(0,50%,50%,0.6)"
    stroke-width="1"
    transform="translate(-106.8395278033,18.8742244944) scale(1,-1) translate(50,-110)"
    />
  
  <line
    x1="145.58823529411765"
    y1="-7.352941176470588"
    x2="77.94117647058823"
    y2="13.235294117647058"
    stroke="hsla(0,50%,50%,0.6)"
    stroke-width="1"
    transform="translate(-106.8395278033,18.8742244944) scale(1,-1) translate(50,-110)"
    />
  
  <line
    x1="101.47058823529412"
    y1="-30.88235294117647"
    x2="77.94117647058823"
    y2="13.235294117647058"
    stroke="hsla(0,50%,50%,0.6)"
    stroke-width="1"
    transform="translate(-106.8395278033,18.8742244944) scale(1,-1) translate(50,-110)"
    />
  
  <line
    x1="135.2941176470588"
    y1="-41.1764705882353"
    x2="88.23529411764706"
    y2="47.05882352941177"
    stroke="hsla(0,50%,50%,0.6)"
    stroke-width="1"
    transform="translate(-106.8395278033,18.8742244944) scale(1,-1) translate(50,-110)"
    />
  
  <line
    x1="145.58823529411765"
    y1="-7.352941176470588"
    x2="122.05882352941177"
    y2="36.76470588235294"
    stroke="hsla(0,50%,50%,0.6)"
    stroke-width="1"
    transform="translate(-106.8395278033,18.8742244944) scale(1,-1) translate(50,-110)"
    />
  
  <line
    x1="155.88235294117646"
    y1="26.470588235294116"
    x2="122.05882352941177"
    y2="36.76470588235294"
    stroke="hsla(0,50%,50%,0.6)"
    stroke-width="1"
    transform="translate(-106.8395278033,18.8742244944) scale(1,-1) translate(50,-110)"
    />
  
</svg>
