<?xml version="1.0"?>
<!DOCTYPE svg PUBLIC "-//W3C//DTD SVG 1.1//EN"
  "http://www.w3.org/Graphics/SVG/1.1/DTD/svg11.dtd">
<svg
  width="240"
  height="240"
  viewBox="-50 -50 200 200" xmlns="http://www.w3.org/2000/svg" version="1.1">
  <rect
    x="0"
    y="0"
    width="100"
    height="100"
    fill="hsla(206,100%,53%,0.3)"
    stroke="hsl(206,100%,53%)"
    stroke-width="3"
    transform="" />
  
  <path
    d="M 
      9.0909090909
      77.2727272727
      L
    
      18.1818181818
      81.8181818181
      L
    
      18.1818181818
      100
      L
    
      15.2828595553
      100
      L
    
      15.5244755244
      102.1678321678
      L
    
      6.9930069930
      107.6923076923
      L
    
      -6.0606060606
      100
      L
    
      -6.6666666666
      89.0909090909
      L
    
      0.2237428043
      83.9231019876
      L
    
      -1.6654115115
      80.5121032813
      L
    
      3.6363636363
      77.5757575757
      L
    
      6.6264541146
      79.1210685049
      z
    "
    fill="hsla(0,0%,50%,0.3)"
    stroke="hsla(0,0%,50%,1)"
    stroke-width="1"
    transform="translate(-4.2608359489,-87.4164994038) scale(1,-1) translate(50,-110)"
    />
  
  <path
    d="M 
      5.1948051948
      91.5584415584
      L
    
      1.8181818181
      94.0909090909
      L
    
      5.7342657342
      96.3986013986
      z
    "
    fill="hsla(0,0%,50%,0.3)"
    stroke="hsla(0,0%,50%,1)"
    stroke-width="1"
    transform="translate(-4.2608359489,-87.4164994038) scale(1,-1) translate(50,-110)"
    />
  
  
  <line
    x1="13.342657342657343"
    y1="82.5920745920746"
    x2="15.524475524475525"
    y2="102.16783216783217"
    stroke="hsla(0,50%,50%,0.6)"
    stroke-width="1"
    transform="translate(-4.2608359489,-87.4164994038) scale(1,-1) translate(50,-110)"
    />
  
  <line
    x1="9.090909090909092"
    y1="77.27272727272727"
    x2="9.090909090909092"
    y2="100"
    stroke="hsla(0,50%,50%,0.6)"
    stroke-width="1"
    transform="translate(-4.2608359489,-87.4164994038) scale(1,-1) translate(50,-110)"
    />
  
  <line
    x1="18.181818181818183"
    y1="81.81818181818181"
    x2="18.181818181818183"
    y2="100"
    stroke="hsla(0,50%,50%,0.6)"
    stroke-width="1"
    transform="translate(-4.2608359489,-87.4164994038) scale(1,-1) translate(50,-110)"
    />
  
  <line
    x1="3.6363636363636362"
    y1="77.57575757575758"
    x2="6.993006993006993"
    y2="107.6923076923077"
    stroke="hsla(0,50%,50%,0.6)"
    stroke-width="1"
    transform="translate(-4.2608359489,-87.4164994038) scale(1,-1) translate(50,-110)"
    />
  
  <line
    x1="-6.666666666666667"
    y1="89.0909090909091"
    x2="-6.0606060606060606"
    y2="100"
    stroke="hsla(0,50%,50%,0.6)"
    stroke-width="1"
    transform="translate(-4.2608359489,-87.4164994038) scale(1,-1) translate(50,-110)"
    />
  
  <line
    x1="-1.6654115115653578"
    y1="80.51210328133405"
    x2="2.7391070467993544"
    y2="88.46476600322754"
    stroke="hsla(0,50%,50%,0.6)"
    stroke-width="1"
    transform="translate(-4.2608359489,-87.4164994038) scale(1,-1) translate(50,-110)"
    />
  
  <line
    x1="9.090909090909092"
    y1="77.27272727272727"
    x2="-6.666666666666667"
    y2="89.0909090909091"
    stroke="hsla(0,50%,50%,0.6)"
    stroke-width="1"
    transform="translate(-4.2608359489,-87.4164994038) scale(1,-1) translate(50,-110)"
    />
  
  <line
    x1="9.090909090909092"
    y1="77.27272727272727"
    x2="18.181818181818183"
    y2="81.81818181818181"
    stroke="hsla(0,50%,50%,0.6)"
    stroke-width="1"
    transform="translate(-4.2608359489,-87.4164994038) scale(1,-1) translate(50,-110)"
    />
  
  <line
    x1="3.6363636363636362"
    y1="77.57575757575758"
    x2="13.342657342657343"
    y2="82.5920745920746"
    stroke="hsla(0,50%,50%,0.6)"
    stroke-width="1"
    transform="translate(-4.2608359489,-87.4164994038) scale(1,-1) translate(50,-110)"
    />
  
  <line
    x1="3.6363636363636362"
    y1="77.57575757575758"
    x2="-1.6654115115653578"
    y2="80.51210328133405"
    stroke="hsla(0,50%,50%,0.6)"
    stroke-width="1"
    transform="translate(-4.2608359489,-87.4164994038) scale(1,-1) translate(50,-110)"
    />
  
  <line
    x1="18.181818181818183"
    y1="81.81818181818181"
    x2="-6.0606060606060606"
    y2="100"
    stroke="hsla(0,50%,50%,0.6)"
    stroke-width="1"
    transform="translate(-4.2608359489,-87.4164994038) scale(1,-1) translate(50,-110)"
    />
  
  <line
    x1="13.342657342657343"
    y1="82.5920745920746"
    x2="2.7391070467993544"
    y2="88.46476600322754"
    stroke="hsla(0,50%,50%,0.6)"
    stroke-width="1"
    transform="translate(-4.2608359489,-87.4164994038) scale(1,-1) translate(50,-110)"
    />
  
  <line
    x1="-6.666666666666667"
    y1="89.0909090909091"
    x2="15.524475524475525"
    y2="102.16783216783217"
    stroke="hsla(0,50%,50%,0.6)"
    stroke-width="1"
    transform="translate(-4.2608359489,-87.4164994038) scale(1,-1) translate(50,-110)"
    />
  
  <line
    x1="-6.0606060606060606"
    y1="100"
    x2="6.993006993006993"
    y2="107.6923076923077"
    stroke="hsla(0,50%,50%,0.6)"
    stroke-width="1"
    transform="translate(-4.2608359489,-87.4164994038) scale(1,-1) translate(50,-110)"
    />
  
  <line
    x1="15.524475524475525"
    y1="102.16783216783217"
    x2="6.993006993006993"
    y2="107.6923076923077"
    stroke="hsla(0,50%,50%,0.6)"
    stroke-width="1"
    transform="translate(-4.2608359489,-87.4164994038) scale(1,-1) translate(50,-110)"
    />
  
  <line
    x1="9.090909090909092"
    y1="100"
    x2="18.181818181818183"
    y2="100"
    stroke="hsla(0,50%,50%,0.6)"
    stroke-width="1"
    transform="translate(-4.2608359489,-87.4164994038) scale(1,-1) translate(50,-110)"
    />
  
</svg>
