<?xml version="1.0"?>
<!DOCTYPE svg PUBLIC "-//W3C//DTD SVG 1.1//EN"
  "http://www.w3.org/Graphics/SVG/1.1/DTD/svg11.dtd">
<svg
  width="240"
  height="240"
  viewBox="-500 -500 1000 1000" xmlns="http://www.w3.org/2000/svg" version="1.1">
  <rect
    x="0"
    y="0"
    width="100"
    height="100"
    fill="hsla(206,100%,53%,0.3)"
    stroke="hsl(206,100%,53%)"
    stroke-width="3"
    transform="" />
  
  <path
    d="M 
      1291.7107471428
      1030.5114638571
      L
    
      1305.9964614285
      1030.5114638571
      L
    
      1327.4250328571
      1044.7971781428
      L
    
      1348.8536042857
      1044.7971781428
      L
    
      1348.8536042857
      1059.0828924285
      L
    
      1334.5678899999
      1080.5114638571
      L
    
      1334.5678899999
      1101.9400352857
      L
    
      1320.2821757142
      1101.9400352857
      L
    
      1298.8536042857
      1087.6543209999
      L
    
      1277.4250328571
      1087.6543209999
      L
    
      1277.4250328571
      1073.3686067142
      L
    
      1291.7107471428
      1051.9400352857
      z
    "
    fill="hsla(0,0%,50%,0.3)"
    stroke="hsla(0,0%,50%,1)"
    stroke-width="1"
    transform="translate(-1313.1393185714,-1066.2257495714)"
    />
  
  
  <line
    x1="1320.2821757142858"
    y1="1044.797178142857"
    x2="1334.56789"
    y2="1073.3686067142858"
    stroke="hsla(0,50%,50%,0.6)"
    stroke-width="1"
    transform="translate(-1313.1393185714,-1066.2257495714)"
    />
  
  <line
    x1="1305.9964614285714"
    y1="1030.5114638571429"
    x2="1322.4799779120879"
    y2="1070.0719034175825"
    stroke="hsla(0,50%,50%,0.6)"
    stroke-width="1"
    transform="translate(-1313.1393185714,-1066.2257495714)"
    />
  
  <line
    x1="1303.798659230769"
    y1="1062.3795957252746"
    x2="1320.2821757142858"
    y2="1101.9400352857142"
    stroke="hsla(0,50%,50%,0.6)"
    stroke-width="1"
    transform="translate(-1313.1393185714,-1066.2257495714)"
    />
  
  <line
    x1="1291.7107471428571"
    y1="1059.0828924285713"
    x2="1305.9964614285714"
    y2="1087.654321"
    stroke="hsla(0,50%,50%,0.6)"
    stroke-width="1"
    transform="translate(-1313.1393185714,-1066.2257495714)"
    />
  
  <line
    x1="1277.425032857143"
    y1="1073.3686067142858"
    x2="1277.425032857143"
    y2="1087.654321"
    stroke="hsla(0,50%,50%,0.6)"
    stroke-width="1"
    transform="translate(-1313.1393185714,-1066.2257495714)"
    />
  
  <line
    x1="1291.7107471428571"
    y1="1030.5114638571429"
    x2="1291.7107471428571"
    y2="1059.0828924285713"
    stroke="hsla(0,50%,50%,0.6)"
    stroke-width="1"
    transform="translate(-1313.1393185714,-1066.2257495714)"
    />
  
  <line
    x1="1305.9964614285714"
    y1="1030.5114638571429"
    x2="1305.9964614285714"
    y2="1087.654321"
    stroke="hsla(0,50%,50%,0.6)"
    stroke-width="1"
    transform="translate(-1313.1393185714,-1066.2257495714)"
    />
  
  <line
    x1="1320.2821757142858"
    y1="1044.797178142857"
    x2="1320.2821757142858"
    y2="1101.9400352857142"
    stroke="hsla(0,50%,50%,0.6)"
    stroke-width="1"
    transform="translate(-1313.1393185714,-1066.2257495714)"
    />
  
  <line
    x1="1334.56789"
    y1="1073.3686067142858"
    x2="1334.56789"
    y2="1101.9400352857142"
    stroke="hsla(0,50%,50%,0.6)"
    stroke-width="1"
    transform="translate(-1313.1393185714,-1066.2257495714)"
    />
  
  <line
    x1="1348.8536042857143"
    y1="1044.797178142857"
    x2="1348.8536042857143"
    y2="1059.0828924285713"
    stroke="hsla(0,50%,50%,0.6)"
    stroke-width="1"
    transform="translate(-1313.1393185714,-1066.2257495714)"
    />
  
  <line
    x1="1305.9964614285714"
    y1="1030.5114638571429"
    x2="1348.8536042857143"
    y2="1059.0828924285713"
    stroke="hsla(0,50%,50%,0.6)"
    stroke-width="1"
    transform="translate(-1313.1393185714,-1066.2257495714)"
    />
  
  <line
    x1="1277.425032857143"
    y1="1073.3686067142858"
    x2="1320.2821757142858"
    y2="1101.9400352857142"
    stroke="hsla(0,50%,50%,0.6)"
    stroke-width="1"
    transform="translate(-1313.1393185714,-1066.2257495714)"
    />
  
  <line
    x1="1305.9964614285714"
    y1="1030.5114638571429"
    x2="1277.425032857143"
    y2="1073.3686067142858"
    stroke="hsla(0,50%,50%,0.6)"
    stroke-width="1"
    transform="translate(-1313.1393185714,-1066.2257495714)"
    />
  
  <line
    x1="1348.8536042857143"
    y1="1059.0828924285713"
    x2="1320.2821757142858"
    y2="1101.9400352857142"
    stroke="hsla(0,50%,50%,0.6)"
    stroke-width="1"
    transform="translate(-1313.1393185714,-1066.2257495714)"
    />
  
  <line
    x1="1291.7107471428571"
    y1="1030.5114638571429"
    x2="1305.9964614285714"
    y2="1030.5114638571429"
    stroke="hsla(0,50%,50%,0.6)"
    stroke-width="1"
    transform="translate(-1313.1393185714,-1066.2257495714)"
    />
  
  <line
    x1="1320.2821757142858"
    y1="1044.797178142857"
    x2="1348.8536042857143"
    y2="1044.797178142857"
    stroke="hsla(0,50%,50%,0.6)"
    stroke-width="1"
    transform="translate(-1313.1393185714,-1066.2257495714)"
    />
  
  <line
    x1="1291.7107471428571"
    y1="1059.0828924285713"
    x2="1348.8536042857143"
    y2="1059.0828924285713"
    stroke="hsla(0,50%,50%,0.6)"
    stroke-width="1"
    transform="translate(-1313.1393185714,-1066.2257495714)"
    />
  
  <line
    x1="1277.425032857143"
    y1="1073.3686067142858"
    x2="1334.56789"
    y2="1073.3686067142858"
    stroke="hsla(0,50%,50%,0.6)"
    stroke-width="1"
    transform="translate(-1313.1393185714,-1066.2257495714)"
    />
  
  <line
    x1="1277.425032857143"
    y1="1087.654321"
    x2="1305.9964614285714"
    y2="1087.654321"
    stroke="hsla(0,50%,50%,0.6)"
    stroke-width="1"
    transform="translate(-1313.1393185714,-1066.2257495714)"
    />
  
  <line
    x1="1320.2821757142858"
    y1="1101.9400352857142"
    x2="1334.56789"
    y2="1101.9400352857142"
    stroke="hsla(0,50%,50%,0.6)"
    stroke-width="1"
    transform="translate(-1313.1393185714,-1066.2257495714)"
    />
  
  <line
    x1="1320.2821757142858"
    y1="1044.797178142857"
    x2="1291.7107471428571"
    y2="1059.0828924285713"
    stroke="hsla(0,50%,50%,0.6)"
    stroke-width="1"
    transform="translate(-1313.1393185714,-1066.2257495714)"
    />
  
  <line
    x1="1316.9854724175823"
    y1="1056.8850902307693"
    x2="1277.425032857143"
    y2="1073.3686067142858"
    stroke="hsla(0,50%,50%,0.6)"
    stroke-width="1"
    transform="translate(-1313.1393185714,-1066.2257495714)"
    />
  
  <line
    x1="1348.8536042857143"
    y1="1059.0828924285713"
    x2="1309.2931647252747"
    y2="1075.5664089120878"
    stroke="hsla(0,50%,50%,0.6)"
    stroke-width="1"
    transform="translate(-1313.1393185714,-1066.2257495714)"
    />
  
  <line
    x1="1334.56789"
    y1="1073.3686067142858"
    x2="1305.9964614285714"
    y2="1087.654321"
    stroke="hsla(0,50%,50%,0.6)"
    stroke-width="1"
    transform="translate(-1313.1393185714,-1066.2257495714)"
    />
  
</svg>
