<?xml version="1.0"?>
<!DOCTYPE svg PUBLIC "-//W3C//DTD SVG 1.1//EN"
  "http://www.w3.org/Graphics/SVG/1.1/DTD/svg11.dtd">
<svg
  width="240"
  height="240"
  viewBox="-50 -50 200 200" xmlns="http://www.w3.org/2000/svg" version="1.1">
  <rect
    x="0"
    y="0"
    width="100"
    height="100"
    fill="hsla(206,100%,53%,0.3)"
    stroke="hsl(206,100%,53%)"
    stroke-width="3"
    transform="" />
  
  <path
    d="M 
      -9.1539773614
      -60.8367536814
      L
    
      10.1069257098
      -53.5798202801
      L
    
      20.0465204123
      -39.9933068922
      L
    
      16.6885552636
      -16.8177345725
      L
    
      16.6595748202
      -16.6525182565
      L
    
      -3.5802102030
      23.7263563419
      L
    
      -14.8400410073
      25.4980876548
      L
    
      -53.5549574206
      -29.6879009595
      z
    "
    fill="hsla(0,0%,50%,0.3)"
    stroke="hsla(0,0%,50%,1)"
    stroke-width="1"
    transform="translate(29.0516026688,8.5887455240) scale(1,-1) translate(50,-110)"
    />
  
  
  <line
    x1="-9.153977361414807"
    y1="-60.83675368146122"
    x2="10.10692570981733"
    y2="-53.5798202801165"
    stroke="hsla(0,50%,50%,0.6)"
    stroke-width="1"
    transform="translate(29.0516026688,8.5887455240) scale(1,-1) translate(50,-110)"
    />
  
  <line
    x1="6.187905752647939"
    y1="-55.0563900298598"
    x2="0.8248412550757537"
    y2="-53.16088038935621"
    stroke="hsla(0,50%,50%,0.6)"
    stroke-width="1"
    transform="translate(29.0516026688,8.5887455240) scale(1,-1) translate(50,-110)"
    />
  
  <line
    x1="-9.153977361414807"
    y1="-60.83675368146122"
    x2="-53.55495742065782"
    y2="-29.687900959560935"
    stroke="hsla(0,50%,50%,0.6)"
    stroke-width="1"
    transform="translate(29.0516026688,8.5887455240) scale(1,-1) translate(50,-110)"
    />
  
  <line
    x1="-8.032363586113737"
    y1="-60.41416308748497"
    x2="-52.17580239325382"
    y2="-29.445984632703677"
    stroke="hsla(0,50%,50%,0.6)"
    stroke-width="1"
    transform="translate(29.0516026688,8.5887455240) scale(1,-1) translate(50,-110)"
    />
  
  <line
    x1="-0.06854947246997015"
    y1="-53.58766963165532"
    x2="0.8248412550757537"
    y2="-53.16088038935621"
    stroke="hsla(0,50%,50%,0.6)"
    stroke-width="1"
    transform="translate(29.0516026688,8.5887455240) scale(1,-1) translate(50,-110)"
    />
  
  <line
    x1="19.27819896917942"
    y1="-39.40751703648733"
    x2="19.946625705497606"
    y2="-39.30386644248331"
    stroke="hsla(0,50%,50%,0.6)"
    stroke-width="1"
    transform="translate(29.0516026688,8.5887455240) scale(1,-1) translate(50,-110)"
    />
  
  <line
    x1="10.795420642775836"
    y1="-40.53696999453627"
    x2="19.946625705497606"
    y2="-39.30386644248331"
    stroke="hsla(0,50%,50%,0.6)"
    stroke-width="1"
    transform="translate(29.0516026688,8.5887455240) scale(1,-1) translate(50,-110)"
    />
  
  <line
    x1="-3.7096546517392333"
    y1="-38.4338633689414"
    x2="15.693740919713392"
    y2="-38.07891653362603"
    stroke="hsla(0,50%,50%,0.6)"
    stroke-width="1"
    transform="translate(29.0516026688,8.5887455240) scale(1,-1) translate(50,-110)"
    />
  
  <line
    x1="18.30732961019655"
    y1="-42.3706210407967"
    x2="10.795420642775836"
    y2="-40.53696999453627"
    stroke="hsla(0,50%,50%,0.6)"
    stroke-width="1"
    transform="translate(29.0516026688,8.5887455240) scale(1,-1) translate(50,-110)"
    />
  
  <line
    x1="10.10692570981733"
    y1="-53.5798202801165"
    x2="20.046520412321946"
    y2="-39.99330689224428"
    stroke="hsla(0,50%,50%,0.6)"
    stroke-width="1"
    transform="translate(29.0516026688,8.5887455240) scale(1,-1) translate(50,-110)"
    />
  
  <line
    x1="6.187905752647939"
    y1="-55.0563900298598"
    x2="15.693740919713392"
    y2="-38.07891653362603"
    stroke="hsla(0,50%,50%,0.6)"
    stroke-width="1"
    transform="translate(29.0516026688,8.5887455240) scale(1,-1) translate(50,-110)"
    />
  
  <line
    x1="20.046520412321946"
    y1="-39.99330689224428"
    x2="19.27819896917942"
    y2="-39.40751703648733"
    stroke="hsla(0,50%,50%,0.6)"
    stroke-width="1"
    transform="translate(29.0516026688,8.5887455240) scale(1,-1) translate(50,-110)"
    />
  
  <line
    x1="1.4803911897104751"
    y1="-56.830041013033146"
    x2="-0.06854947246997015"
    y2="-53.58766963165532"
    stroke="hsla(0,50%,50%,0.6)"
    stroke-width="1"
    transform="translate(29.0516026688,8.5887455240) scale(1,-1) translate(50,-110)"
    />
  
  <line
    x1="2.410293793758834"
    y1="-56.47968146642419"
    x2="0.8248412550757537"
    y2="-53.16088038935621"
    stroke="hsla(0,50%,50%,0.6)"
    stroke-width="1"
    transform="translate(29.0516026688,8.5887455240) scale(1,-1) translate(50,-110)"
    />
  
  <line
    x1="1.4803911897104751"
    y1="-56.830041013033146"
    x2="-3.7096546517392333"
    y2="-38.4338633689414"
    stroke="hsla(0,50%,50%,0.6)"
    stroke-width="1"
    transform="translate(29.0516026688,8.5887455240) scale(1,-1) translate(50,-110)"
    />
  
  <line
    x1="2.410293793758834"
    y1="-56.47968146642419"
    x2="-2.6861884512877476"
    y2="-38.415141074301545"
    stroke="hsla(0,50%,50%,0.6)"
    stroke-width="1"
    transform="translate(29.0516026688,8.5887455240) scale(1,-1) translate(50,-110)"
    />
  
  <line
    x1="18.30732961019655"
    y1="-42.3706210407967"
    x2="15.693740919713392"
    y2="-38.07891653362603"
    stroke="hsla(0,50%,50%,0.6)"
    stroke-width="1"
    transform="translate(29.0516026688,8.5887455240) scale(1,-1) translate(50,-110)"
    />
  
  <line
    x1="-9.969412335478978"
    y1="9.731194658401037"
    x2="-14.870002125014402"
    y2="25.052787001540842"
    stroke="hsla(0,50%,50%,0.6)"
    stroke-width="1"
    transform="translate(29.0516026688,8.5887455240) scale(1,-1) translate(50,-110)"
    />
  
  <line
    x1="-9.969412335478978"
    y1="9.731194658401037"
    x2="-14.840041007351038"
    y2="25.498087654841754"
    stroke="hsla(0,50%,50%,0.6)"
    stroke-width="1"
    transform="translate(29.0516026688,8.5887455240) scale(1,-1) translate(50,-110)"
    />
  
  <line
    x1="-9.024876053731308"
    y1="10.028131564194693"
    x2="-13.92696648319412"
    y2="25.354415626945546"
    stroke="hsla(0,50%,50%,0.6)"
    stroke-width="1"
    transform="translate(29.0516026688,8.5887455240) scale(1,-1) translate(50,-110)"
    />
  
  <line
    x1="-9.024876053731308"
    y1="10.028131564194693"
    x2="-13.750832586834894"
    y2="25.326701006285685"
    stroke="hsla(0,50%,50%,0.6)"
    stroke-width="1"
    transform="translate(29.0516026688,8.5887455240) scale(1,-1) translate(50,-110)"
    />
  
  <line
    x1="-8.032363586113737"
    y1="-60.41416308748497"
    x2="-2.6861884512877476"
    y2="-38.415141074301545"
    stroke="hsla(0,50%,50%,0.6)"
    stroke-width="1"
    transform="translate(29.0516026688,8.5887455240) scale(1,-1) translate(50,-110)"
    />
  
  <line
    x1="-9.153977361414807"
    y1="-60.83675368146122"
    x2="-3.7096546517392333"
    y2="-38.4338633689414"
    stroke="hsla(0,50%,50%,0.6)"
    stroke-width="1"
    transform="translate(29.0516026688,8.5887455240) scale(1,-1) translate(50,-110)"
    />
  
  <line
    x1="10.10692570981733"
    y1="-53.5798202801165"
    x2="10.795420642775836"
    y2="-40.53696999453627"
    stroke="hsla(0,50%,50%,0.6)"
    stroke-width="1"
    transform="translate(29.0516026688,8.5887455240) scale(1,-1) translate(50,-110)"
    />
  
  <line
    x1="16.659574820217628"
    y1="-16.652518256586745"
    x2="-9.971107570521244"
    y2="11.611856467306238"
    stroke="hsla(0,50%,50%,0.6)"
    stroke-width="1"
    transform="translate(29.0516026688,8.5887455240) scale(1,-1) translate(50,-110)"
    />
  
  <line
    x1="-2.464753401597114"
    y1="10.433392896068064"
    x2="-1.077076212281928"
    y2="18.732541763474558"
    stroke="hsla(0,50%,50%,0.6)"
    stroke-width="1"
    transform="translate(29.0516026688,8.5887455240) scale(1,-1) translate(50,-110)"
    />
  
  <line
    x1="19.27819896917942"
    y1="-39.40751703648733"
    x2="16.688555263683607"
    y2="-16.817734572582175"
    stroke="hsla(0,50%,50%,0.6)"
    stroke-width="1"
    transform="translate(29.0516026688,8.5887455240) scale(1,-1) translate(50,-110)"
    />
  
  <line
    x1="20.046520412321946"
    y1="-39.99330689224428"
    x2="16.688555263683607"
    y2="-16.817734572582175"
    stroke="hsla(0,50%,50%,0.6)"
    stroke-width="1"
    transform="translate(29.0516026688,8.5887455240) scale(1,-1) translate(50,-110)"
    />
  
  <line
    x1="16.688555263683607"
    y1="-16.817734572582175"
    x2="16.659574820217628"
    y2="-16.652518256586745"
    stroke="hsla(0,50%,50%,0.6)"
    stroke-width="1"
    transform="translate(29.0516026688,8.5887455240) scale(1,-1) translate(50,-110)"
    />
  
  <line
    x1="16.659574820217628"
    y1="-16.652518256586745"
    x2="-3.580210203001979"
    y2="23.726356341975755"
    stroke="hsla(0,50%,50%,0.6)"
    stroke-width="1"
    transform="translate(29.0516026688,8.5887455240) scale(1,-1) translate(50,-110)"
    />
  
  <line
    x1="-9.971107570521244"
    y1="11.611856467306238"
    x2="-3.580210203001979"
    y2="23.726356341975755"
    stroke="hsla(0,50%,50%,0.6)"
    stroke-width="1"
    transform="translate(29.0516026688,8.5887455240) scale(1,-1) translate(50,-110)"
    />
  
  <line
    x1="-2.464753401597114"
    y1="10.433392896068064"
    x2="1.6101325700537168"
    y2="13.371493396725338"
    stroke="hsla(0,50%,50%,0.6)"
    stroke-width="1"
    transform="translate(29.0516026688,8.5887455240) scale(1,-1) translate(50,-110)"
    />
  
  <line
    x1="-2.464753401597114"
    y1="10.433392896068064"
    x2="-9.971107570521244"
    y2="11.611856467306238"
    stroke="hsla(0,50%,50%,0.6)"
    stroke-width="1"
    transform="translate(29.0516026688,8.5887455240) scale(1,-1) translate(50,-110)"
    />
  
  <line
    x1="-9.969412335478978"
    y1="9.731194658401037"
    x2="1.6101325700537168"
    y2="13.371493396725338"
    stroke="hsla(0,50%,50%,0.6)"
    stroke-width="1"
    transform="translate(29.0516026688,8.5887455240) scale(1,-1) translate(50,-110)"
    />
  
  <line
    x1="-1.077076212281928"
    y1="18.732541763474558"
    x2="-13.92696648319412"
    y2="25.354415626945546"
    stroke="hsla(0,50%,50%,0.6)"
    stroke-width="1"
    transform="translate(29.0516026688,8.5887455240) scale(1,-1) translate(50,-110)"
    />
  
  <line
    x1="-52.17580239325382"
    y1="-29.445984632703677"
    x2="-13.750832586834894"
    y2="25.326701006285685"
    stroke="hsla(0,50%,50%,0.6)"
    stroke-width="1"
    transform="translate(29.0516026688,8.5887455240) scale(1,-1) translate(50,-110)"
    />
  
  <line
    x1="-53.55495742065782"
    y1="-29.687900959560935"
    x2="-14.840041007351038"
    y2="25.498087654841754"
    stroke="hsla(0,50%,50%,0.6)"
    stroke-width="1"
    transform="translate(29.0516026688,8.5887455240) scale(1,-1) translate(50,-110)"
    />
  
  <line
    x1="-3.580210203001979"
    y1="23.726356341975755"
    x2="-14.840041007351038"
    y2="25.498087654841754"
    stroke="hsla(0,50%,50%,0.6)"
    stroke-width="1"
    transform="translate(29.0516026688,8.5887455240) scale(1,-1) translate(50,-110)"
    />
  
  <line
    x1="-14.870002125014402"
    y1="25.052787001540842"
    x2="-13.92696648319412"
    y2="25.354415626945546"
    stroke="hsla(0,50%,50%,0.6)"
    stroke-width="1"
    transform="translate(29.0516026688,8.5887455240) scale(1,-1) translate(50,-110)"
    />
  
</svg>
