<?xml version="1.0"?>
<!DOCTYPE svg PUBLIC "-//W3C//DTD SVG 1.1//EN"
  "http://www.w3.org/Graphics/SVG/1.1/DTD/svg11.dtd">
<svg
  width="240"
  height="240"
  viewBox="-50 -50 200 200" xmlns="http://www.w3.org/2000/svg" version="1.1">
  <rect
    x="0"
    y="0"
    width="100"
    height="100"
    fill="hsla(206,100%,53%,0.3)"
    stroke="hsl(206,100%,53%)"
    stroke-width="3"
    transform="" />
  
  <path
    d="M 
      3.9473684210
      0
      L
    
      96.0526315789
      0
      L
    
      96.0526315789
      50
      L
    
      3.9473684210
      50
      z
    "
    fill="hsla(0,0%,50%,0.3)"
    stroke="hsla(0,0%,50%,1)"
    stroke-width="1"
    transform="translate(-38.4868421052,-37.5) scale(1,-1) translate(50,-110)"
    />
  
  
  <line
    x1="3.9473684210526314"
    y1="0"
    x2="96.05263157894737"
    y2="0"
    stroke="hsla(0,50%,50%,0.6)"
    stroke-width="1"
    transform="translate(-38.4868421052,-37.5) scale(1,-1) translate(50,-110)"
    />
  
  <line
    x1="3.9473684210526314"
    y1="0"
    x2="3.9473684210526314"
    y2="50"
    stroke="hsla(0,50%,50%,0.6)"
    stroke-width="1"
    transform="translate(-38.4868421052,-37.5) scale(1,-1) translate(50,-110)"
    />
  
  <line
    x1="7.894736842105263"
    y1="0"
    x2="7.894736842105263"
    y2="50"
    stroke="hsla(0,50%,50%,0.6)"
    stroke-width="1"
    transform="translate(-38.4868421052,-37.5) scale(1,-1) translate(50,-110)"
    />
  
  <line
    x1="92.10526315789474"
    y1="0"
    x2="92.10526315789474"
    y2="50"
    stroke="hsla(0,50%,50%,0.6)"
    stroke-width="1"
    transform="translate(-38.4868421052,-37.5) scale(1,-1) translate(50,-110)"
    />
  
  <line
    x1="96.05263157894737"
    y1="0"
    x2="96.05263157894737"
    y2="50"
    stroke="hsla(0,50%,50%,0.6)"
    stroke-width="1"
    transform="translate(-38.4868421052,-37.5) scale(1,-1) translate(50,-110)"
    />
  
  <line
    x1="3.9473684210526314"
    y1="20"
    x2="96.05263157894737"
    y2="20"
    stroke="hsla(0,50%,50%,0.6)"
    stroke-width="1"
    transform="translate(-38.4868421052,-37.5) scale(1,-1) translate(50,-110)"
    />
  
  <line
    x1="3.9473684210526314"
    y1="40"
    x2="96.05263157894737"
    y2="40"
    stroke="hsla(0,50%,50%,0.6)"
    stroke-width="1"
    transform="translate(-38.4868421052,-37.5) scale(1,-1) translate(50,-110)"
    />
  
  <line
    x1="3.9473684210526314"
    y1="50"
    x2="96.05263157894737"
    y2="50"
    stroke="hsla(0,50%,50%,0.6)"
    stroke-width="1"
    transform="translate(-38.4868421052,-37.5) scale(1,-1) translate(50,-110)"
    />
  
</svg>
