<?xml version="1.0"?>
<!DOCTYPE svg PUBLIC "-//W3C//DTD SVG 1.1//EN"
  "http://www.w3.org/Graphics/SVG/1.1/DTD/svg11.dtd">
<svg
  width="240"
  height="240"
  viewBox="-500 -500 1000 1000" xmlns="http://www.w3.org/2000/svg" version="1.1">
  <rect
    x="0"
    y="0"
    width="100"
    height="100"
    fill="hsla(206,100%,53%,0.3)"
    stroke="hsl(206,100%,53%)"
    stroke-width="3"
    transform="" />
  
  <path
    d="M 
      20
      -5.5375086056
      L
    
      80
      -5.5375086056
      L
    
      80
      47.2312456971
      L
    
      20
      47.2312456971
      z
    "
    fill="hsla(0,0%,50%,0.3)"
    stroke="hsla(0,0%,50%,1)"
    stroke-width="1"
    transform="translate(-50,-20.8468685457)"
    />
  
  
  <line
    x1="20"
    y1="-5.537508605622455"
    x2="80"
    y2="-5.537508605622455"
    stroke="hsla(0,50%,50%,0.6)"
    stroke-width="1"
    transform="translate(-50,-20.8468685457)"
    />
  
  <line
    x1="20"
    y1="-5.537508605622455"
    x2="20"
    y2="47.231245697188776"
    stroke="hsla(0,50%,50%,0.6)"
    stroke-width="1"
    transform="translate(-50,-20.8468685457)"
    />
  
  <line
    x1="40"
    y1="-5.537508605622455"
    x2="40"
    y2="47.231245697188776"
    stroke="hsla(0,50%,50%,0.6)"
    stroke-width="1"
    transform="translate(-50,-20.8468685457)"
    />
  
  <line
    x1="60"
    y1="-5.537508605622455"
    x2="60"
    y2="47.231245697188776"
    stroke="hsla(0,50%,50%,0.6)"
    stroke-width="1"
    transform="translate(-50,-20.8468685457)"
    />
  
  <line
    x1="80"
    y1="-5.537508605622455"
    x2="80"
    y2="47.231245697188776"
    stroke="hsla(0,50%,50%,0.6)"
    stroke-width="1"
    transform="translate(-50,-20.8468685457)"
    />
  
  <line
    x1="20"
    y1="20"
    x2="80"
    y2="20"
    stroke="hsla(0,50%,50%,0.6)"
    stroke-width="1"
    transform="translate(-50,-20.8468685457)"
    />
  
  <line
    x1="20"
    y1="40"
    x2="80"
    y2="40"
    stroke="hsla(0,50%,50%,0.6)"
    stroke-width="1"
    transform="translate(-50,-20.8468685457)"
    />
  
  <line
    x1="20"
    y1="47.231245697188776"
    x2="80"
    y2="47.231245697188776"
    stroke="hsla(0,50%,50%,0.6)"
    stroke-width="1"
    transform="translate(-50,-20.8468685457)"
    />
  
</svg>
