<?xml version="1.0"?>
<!DOCTYPE svg PUBLIC "-//W3C//DTD SVG 1.1//EN"
  "http://www.w3.org/Graphics/SVG/1.1/DTD/svg11.dtd">
<svg
  width="240"
  height="240"
  viewBox="-500 -500 1000 1000" xmlns="http://www.w3.org/2000/svg" version="1.1">
  <rect
    x="0"
    y="0"
    width="100"
    height="100"
    fill="hsla(206,100%,53%,0.3)"
    stroke="hsl(206,100%,53%)"
    stroke-width="3"
    transform="" />
  
  <path
    d="M 
      0
      14.2857142857
      L
    
      33.1210191082
      17.8343949044
      L
    
      87.5
      47.1153846153
      L
    
      93.5779816513
      58.0804516584
      L
    
      55.0458715596
      83.4862385321
      L
    
      51.1140235910
      77.5229357798
      L
    
      44.6195358877
      80.4964921748
      L
    
      30.6564577397
      50
      L
    
      0
      50
      L
    
      0
      27.3753444138
      L
    
      -3.0264817150
      28.2471626733
      z
    "
    fill="hsla(0,0%,50%,0.3)"
    stroke="hsla(0,0%,50%,1)"
    stroke-width="1"
    transform="translate(-45.2757499681,-48.8859764089)"
    />
  
  
  <line
    x1="87.5"
    y1="47.11538461538461"
    x2="93.57798165137615"
    y2="58.08045165843331"
    stroke="hsla(0,50%,50%,0.6)"
    stroke-width="1"
    transform="translate(-45.2757499681,-48.8859764089)"
    />
  
  <line
    x1="48.148148148148145"
    y1="25.925925925925927"
    x2="50"
    y2="50"
    stroke="hsla(0,50%,50%,0.6)"
    stroke-width="1"
    transform="translate(-45.2757499681,-48.8859764089)"
    />
  
  <line
    x1="25.40578687367678"
    y1="38.53211009174312"
    x2="44.61953588774959"
    y2="80.4964921748516"
    stroke="hsla(0,50%,50%,0.6)"
    stroke-width="1"
    transform="translate(-45.2757499681,-48.8859764089)"
    />
  
  <line
    x1="33.12101910828026"
    y1="17.8343949044586"
    x2="87.5"
    y2="47.11538461538461"
    stroke="hsla(0,50%,50%,0.6)"
    stroke-width="1"
    transform="translate(-45.2757499681,-48.8859764089)"
    />
  
  <line
    x1="10.135135135135135"
    y1="15.371621621621621"
    x2="55.04587155963303"
    y2="83.4862385321101"
    stroke="hsla(0,50%,50%,0.6)"
    stroke-width="1"
    transform="translate(-45.2757499681,-48.8859764089)"
    />
  
  <line
    x1="0"
    y1="14.285714285714286"
    x2="0"
    y2="50"
    stroke="hsla(0,50%,50%,0.6)"
    stroke-width="1"
    transform="translate(-45.2757499681,-48.8859764089)"
    />
  
  <line
    x1="50"
    y1="26.923076923076923"
    x2="50"
    y2="50"
    stroke="hsla(0,50%,50%,0.6)"
    stroke-width="1"
    transform="translate(-45.2757499681,-48.8859764089)"
    />
  
  <line
    x1="0"
    y1="14.285714285714286"
    x2="-3.0264817150063053"
    y2="28.247162673392182"
    stroke="hsla(0,50%,50%,0.6)"
    stroke-width="1"
    transform="translate(-45.2757499681,-48.8859764089)"
    />
  
  <line
    x1="10.135135135135135"
    y1="15.371621621621621"
    x2="-3.0264817150063053"
    y2="28.247162673392182"
    stroke="hsla(0,50%,50%,0.6)"
    stroke-width="1"
    transform="translate(-45.2757499681,-48.8859764089)"
    />
  
  <line
    x1="0"
    y1="14.285714285714286"
    x2="33.12101910828026"
    y2="17.8343949044586"
    stroke="hsla(0,50%,50%,0.6)"
    stroke-width="1"
    transform="translate(-45.2757499681,-48.8859764089)"
    />
  
  <line
    x1="33.12101910828026"
    y1="17.8343949044586"
    x2="-3.0264817150063053"
    y2="28.247162673392182"
    stroke="hsla(0,50%,50%,0.6)"
    stroke-width="1"
    transform="translate(-45.2757499681,-48.8859764089)"
    />
  
  <line
    x1="48.148148148148145"
    y1="25.925925925925927"
    x2="25.40578687367678"
    y2="38.53211009174312"
    stroke="hsla(0,50%,50%,0.6)"
    stroke-width="1"
    transform="translate(-45.2757499681,-48.8859764089)"
    />
  
  <line
    x1="50"
    y1="26.923076923076923"
    x2="27.522935779816514"
    y2="41.74311926605505"
    stroke="hsla(0,50%,50%,0.6)"
    stroke-width="1"
    transform="translate(-45.2757499681,-48.8859764089)"
    />
  
  <line
    x1="0"
    y1="50"
    x2="50"
    y2="50"
    stroke="hsla(0,50%,50%,0.6)"
    stroke-width="1"
    transform="translate(-45.2757499681,-48.8859764089)"
    />
  
  <line
    x1="87.5"
    y1="47.11538461538461"
    x2="50"
    y2="50"
    stroke="hsla(0,50%,50%,0.6)"
    stroke-width="1"
    transform="translate(-45.2757499681,-48.8859764089)"
    />
  
  <line
    x1="93.57798165137615"
    y1="58.08045165843331"
    x2="44.61953588774959"
    y2="80.4964921748516"
    stroke="hsla(0,50%,50%,0.6)"
    stroke-width="1"
    transform="translate(-45.2757499681,-48.8859764089)"
    />
  
  <line
    x1="93.57798165137615"
    y1="58.08045165843331"
    x2="55.04587155963303"
    y2="83.4862385321101"
    stroke="hsla(0,50%,50%,0.6)"
    stroke-width="1"
    transform="translate(-45.2757499681,-48.8859764089)"
    />
  
</svg>
