<?xml version="1.0"?>
<!DOCTYPE svg PUBLIC "-//W3C//DTD SVG 1.1//EN"
  "http://www.w3.org/Graphics/SVG/1.1/DTD/svg11.dtd">
<svg
  width="240"
  height="240"
  viewBox="-50 -50 200 200" xmlns="http://www.w3.org/2000/svg" version="1.1">
  <rect
    x="0"
    y="0"
    width="100"
    height="100"
    fill="hsla(206,100%,53%,0.3)"
    stroke="hsl(206,100%,53%)"
    stroke-width="3"
    transform="" />
  
  <path
    d="M 
      12.5
      16.6666666666
      L
    
      56.25
      16.6666666666
      L
    
      56.25
      58.3333333333
      L
    
      12.5
      58.3333333333
      z
    "
    fill="hsla(0,0%,50%,0.3)"
    stroke="hsla(0,0%,50%,1)"
    stroke-width="1"
    transform="translate(-28.90625,-47.9166666666) scale(1,-1) translate(50,-110)"
    />
  
  
  <line
    x1="12.5"
    y1="16.666666666666668"
    x2="12.5"
    y2="58.333333333333336"
    stroke="hsla(0,50%,50%,0.6)"
    stroke-width="1"
    transform="translate(-28.90625,-47.9166666666) scale(1,-1) translate(50,-110)"
    />
  
  <line
    x1="20"
    y1="16.666666666666668"
    x2="20"
    y2="58.333333333333336"
    stroke="hsla(0,50%,50%,0.6)"
    stroke-width="1"
    transform="translate(-28.90625,-47.9166666666) scale(1,-1) translate(50,-110)"
    />
  
  <line
    x1="40"
    y1="16.666666666666668"
    x2="40"
    y2="58.333333333333336"
    stroke="hsla(0,50%,50%,0.6)"
    stroke-width="1"
    transform="translate(-28.90625,-47.9166666666) scale(1,-1) translate(50,-110)"
    />
  
  <line
    x1="56.25"
    y1="16.666666666666668"
    x2="56.25"
    y2="58.333333333333336"
    stroke="hsla(0,50%,50%,0.6)"
    stroke-width="1"
    transform="translate(-28.90625,-47.9166666666) scale(1,-1) translate(50,-110)"
    />
  
  <line
    x1="12.5"
    y1="16.666666666666668"
    x2="56.25"
    y2="16.666666666666668"
    stroke="hsla(0,50%,50%,0.6)"
    stroke-width="1"
    transform="translate(-28.90625,-47.9166666666) scale(1,-1) translate(50,-110)"
    />
  
  <line
    x1="12.5"
    y1="20"
    x2="56.25"
    y2="20"
    stroke="hsla(0,50%,50%,0.6)"
    stroke-width="1"
    transform="translate(-28.90625,-47.9166666666) scale(1,-1) translate(50,-110)"
    />
  
  <line
    x1="12.5"
    y1="40"
    x2="56.25"
    y2="40"
    stroke="hsla(0,50%,50%,0.6)"
    stroke-width="1"
    transform="translate(-28.90625,-47.9166666666) scale(1,-1) translate(50,-110)"
    />
  
  <line
    x1="12.5"
    y1="58.333333333333336"
    x2="56.25"
    y2="58.333333333333336"
    stroke="hsla(0,50%,50%,0.6)"
    stroke-width="1"
    transform="translate(-28.90625,-47.9166666666) scale(1,-1) translate(50,-110)"
    />
  
</svg>
