<?xml version="1.0"?>
<!DOCTYPE svg PUBLIC "-//W3C//DTD SVG 1.1//EN"
  "http://www.w3.org/Graphics/SVG/1.1/DTD/svg11.dtd">
<svg
  width="240"
  height="240"
  viewBox="-50 -50 200 200" xmlns="http://www.w3.org/2000/svg" version="1.1">
  <rect
    x="0"
    y="0"
    width="100"
    height="100"
    fill="hsla(206,100%,53%,0.3)"
    stroke="hsl(206,100%,53%)"
    stroke-width="3"
    transform="" />
  
  <path
    d="M 
      58.3333333333
      58.3333333333
      L
    
      66.6666666666
      66.6666666666
      L
    
      66.6666666666
      83.3333333333
      L
    
      83.3333333333
      100
      L
    
      66.6666666666
      100
      L
    
      83.3333333333
      116.6666666666
      L
    
      50
      116.6666666666
      L
    
      50
      66.6666666666
      z
    "
    fill="hsla(0,0%,50%,0.3)"
    stroke="hsla(0,0%,50%,1)"
    stroke-width="1"
    transform="translate(-56.7057291666,-88.7369791666) scale(1,-1) translate(50,-110)"
    />
  
  
  <line
    x1="58.333333333333336"
    y1="58.333333333333336"
    x2="66.66666666666667"
    y2="66.66666666666667"
    stroke="hsla(0,50%,50%,0.6)"
    stroke-width="1"
    transform="translate(-56.7057291666,-88.7369791666) scale(1,-1) translate(50,-110)"
    />
  
  <line
    x1="50"
    y1="66.66666666666667"
    x2="50"
    y2="116.66666666666667"
    stroke="hsla(0,50%,50%,0.6)"
    stroke-width="1"
    transform="translate(-56.7057291666,-88.7369791666) scale(1,-1) translate(50,-110)"
    />
  
  <line
    x1="58.333333333333336"
    y1="75"
    x2="58.333333333333336"
    y2="100"
    stroke="hsla(0,50%,50%,0.6)"
    stroke-width="1"
    transform="translate(-56.7057291666,-88.7369791666) scale(1,-1) translate(50,-110)"
    />
  
  <line
    x1="66.66666666666667"
    y1="66.66666666666667"
    x2="66.66666666666667"
    y2="116.66666666666667"
    stroke="hsla(0,50%,50%,0.6)"
    stroke-width="1"
    transform="translate(-56.7057291666,-88.7369791666) scale(1,-1) translate(50,-110)"
    />
  
  <line
    x1="50"
    y1="66.66666666666667"
    x2="83.33333333333333"
    y2="100"
    stroke="hsla(0,50%,50%,0.6)"
    stroke-width="1"
    transform="translate(-56.7057291666,-88.7369791666) scale(1,-1) translate(50,-110)"
    />
  
  <line
    x1="50"
    y1="83.33333333333333"
    x2="83.33333333333333"
    y2="116.66666666666667"
    stroke="hsla(0,50%,50%,0.6)"
    stroke-width="1"
    transform="translate(-56.7057291666,-88.7369791666) scale(1,-1) translate(50,-110)"
    />
  
  <line
    x1="58.333333333333336"
    y1="58.333333333333336"
    x2="50"
    y2="66.66666666666667"
    stroke="hsla(0,50%,50%,0.6)"
    stroke-width="1"
    transform="translate(-56.7057291666,-88.7369791666) scale(1,-1) translate(50,-110)"
    />
  
  <line
    x1="66.66666666666667"
    y1="66.66666666666667"
    x2="50"
    y2="83.33333333333333"
    stroke="hsla(0,50%,50%,0.6)"
    stroke-width="1"
    transform="translate(-56.7057291666,-88.7369791666) scale(1,-1) translate(50,-110)"
    />
  
  <line
    x1="66.66666666666667"
    y1="83.33333333333333"
    x2="50"
    y2="100"
    stroke="hsla(0,50%,50%,0.6)"
    stroke-width="1"
    transform="translate(-56.7057291666,-88.7369791666) scale(1,-1) translate(50,-110)"
    />
  
  <line
    x1="50"
    y1="100"
    x2="83.33333333333333"
    y2="100"
    stroke="hsla(0,50%,50%,0.6)"
    stroke-width="1"
    transform="translate(-56.7057291666,-88.7369791666) scale(1,-1) translate(50,-110)"
    />
  
  <line
    x1="50"
    y1="116.66666666666667"
    x2="83.33333333333333"
    y2="116.66666666666667"
    stroke="hsla(0,50%,50%,0.6)"
    stroke-width="1"
    transform="translate(-56.7057291666,-88.7369791666) scale(1,-1) translate(50,-110)"
    />
  
</svg>
