<?xml version="1.0"?>
<!DOCTYPE svg PUBLIC "-//W3C//DTD SVG 1.1//EN"
  "http://www.w3.org/Graphics/SVG/1.1/DTD/svg11.dtd">
<svg
  width="240"
  height="240"
  viewBox="-500 -500 1000 1000" xmlns="http://www.w3.org/2000/svg" version="1.1">
  <rect
    x="0"
    y="0"
    width="100"
    height="100"
    fill="hsla(206,100%,53%,0.3)"
    stroke="hsl(206,100%,53%)"
    stroke-width="3"
    transform="" />
  
  <path
    d="M 
      1
      1
      L
    
      99
      1
      L
    
      99
      56.9091796875
      L
    
      1
      56.9091796875
      z
    "
    fill="hsla(0,0%,50%,0.3)"
    stroke="hsla(0,0%,50%,1)"
    stroke-width="1"
    transform="translate(-50,-28.9545898437)"
    />
  
  
  <line
    x1="1"
    y1="1"
    x2="1"
    y2="56.9091796875"
    stroke="hsla(0,50%,50%,0.6)"
    stroke-width="1"
    transform="translate(-50,-28.9545898437)"
    />
  
  <line
    x1="2"
    y1="1"
    x2="2"
    y2="56.9091796875"
    stroke="hsla(0,50%,50%,0.6)"
    stroke-width="1"
    transform="translate(-50,-28.9545898437)"
    />
  
  <line
    x1="98"
    y1="1"
    x2="98"
    y2="56.9091796875"
    stroke="hsla(0,50%,50%,0.6)"
    stroke-width="1"
    transform="translate(-50,-28.9545898437)"
    />
  
  <line
    x1="99"
    y1="1"
    x2="99"
    y2="56.9091796875"
    stroke="hsla(0,50%,50%,0.6)"
    stroke-width="1"
    transform="translate(-50,-28.9545898437)"
    />
  
  <line
    x1="1"
    y1="1"
    x2="99"
    y2="1"
    stroke="hsla(0,50%,50%,0.6)"
    stroke-width="1"
    transform="translate(-50,-28.9545898437)"
    />
  
  <line
    x1="1"
    y1="2"
    x2="99"
    y2="2"
    stroke="hsla(0,50%,50%,0.6)"
    stroke-width="1"
    transform="translate(-50,-28.9545898437)"
    />
  
  <line
    x1="1"
    y1="13.818359375"
    x2="99"
    y2="13.818359375"
    stroke="hsla(0,50%,50%,0.6)"
    stroke-width="1"
    transform="translate(-50,-28.9545898437)"
    />
  
  <line
    x1="1"
    y1="56.9091796875"
    x2="99"
    y2="56.9091796875"
    stroke="hsla(0,50%,50%,0.6)"
    stroke-width="1"
    transform="translate(-50,-28.9545898437)"
    />
  
</svg>
