<?xml version="1.0"?>
<!DOCTYPE svg PUBLIC "-//W3C//DTD SVG 1.1//EN"
  "http://www.w3.org/Graphics/SVG/1.1/DTD/svg11.dtd">
<svg
  width="240"
  height="240"
  viewBox="-500 -500 1000 1000" xmlns="http://www.w3.org/2000/svg" version="1.1">
  <rect
    x="0"
    y="0"
    width="100"
    height="100"
    fill="hsla(206,100%,53%,0.3)"
    stroke="hsl(206,100%,53%)"
    stroke-width="3"
    transform="" />
  
  <path
    d="M 
      86.1003861003
      40.5405405405
      L
    
      108.4495630534
      57.2255338850
      L
    
      95.3895071542
      104.1335453100
      L
    
      77.8378378378
      100.3413940256
      L
    
      78.1785831436
      98.2326570778
      L
    
      67.5675675675
      94.5945945945
      L
    
      69.1891891891
      89.8648648648
      L
    
      64.6558160370
      87.7557115126
      L
    
      66.6844464742
      83.3954127463
      L
    
      62.2014646367
      86.2044337962
      L
    
      50.3347974807
      72.7742125928
      L
    
      54.0817059834
      69.4635213247
      L
    
      51.1826277144
      65.3897828464
      L
    
      52.9714631442
      64.1167571112
      L
    
      50.8477299514
      59.0345984392
      L
    
      79.4458240096
      45.2762633782
      z
    "
    fill="hsla(0,0%,50%,0.3)"
    stroke="hsla(0,0%,50%,1)"
    stroke-width="1"
    transform="translate(-79.3921802670,-72.3370429252)"
    />
  
  
  <line
    x1="86.1003861003861"
    y1="40.54054054054054"
    x2="108.44956305341745"
    y2="57.225533885062795"
    stroke="hsla(0,50%,50%,0.6)"
    stroke-width="1"
    transform="translate(-79.3921802670,-72.3370429252)"
    />
  
  <line
    x1="50.84772995145099"
    y1="59.03459843927517"
    x2="62.20146463673749"
    y2="86.20443379628543"
    stroke="hsla(0,50%,50%,0.6)"
    stroke-width="1"
    transform="translate(-79.3921802670,-72.3370429252)"
    />
  
  <line
    x1="50.84772995145099"
    y1="59.03459843927517"
    x2="64.82534898039829"
    y2="84.56031686225498"
    stroke="hsla(0,50%,50%,0.6)"
    stroke-width="1"
    transform="translate(-79.3921802670,-72.3370429252)"
    />
  
  <line
    x1="51.182627714419624"
    y1="65.38978284643025"
    x2="64.82534898039829"
    y2="84.56031686225498"
    stroke="hsla(0,50%,50%,0.6)"
    stroke-width="1"
    transform="translate(-79.3921802670,-72.3370429252)"
    />
  
  <line
    x1="50.334797480711316"
    y1="72.77421259281829"
    x2="62.20146463673749"
    y2="86.20443379628543"
    stroke="hsla(0,50%,50%,0.6)"
    stroke-width="1"
    transform="translate(-79.3921802670,-72.3370429252)"
    />
  
  <line
    x1="87.3501384435778"
    y1="41.47355519124903"
    x2="77.83783783783784"
    y2="100.34139402560456"
    stroke="hsla(0,50%,50%,0.6)"
    stroke-width="1"
    transform="translate(-79.3921802670,-72.3370429252)"
    />
  
  <line
    x1="86.1003861003861"
    y1="40.54054054054054"
    x2="67.56756756756756"
    y2="94.5945945945946"
    stroke="hsla(0,50%,50%,0.6)"
    stroke-width="1"
    transform="translate(-79.3921802670,-72.3370429252)"
    />
  
  <line
    x1="108.44956305341745"
    y1="57.225533885062795"
    x2="95.38950715421304"
    y2="104.1335453100159"
    stroke="hsla(0,50%,50%,0.6)"
    stroke-width="1"
    transform="translate(-79.3921802670,-72.3370429252)"
    />
  
  <line
    x1="86.48804244659166"
    y1="40.82994912010456"
    x2="64.65581603703151"
    y2="87.7557115126176"
    stroke="hsla(0,50%,50%,0.6)"
    stroke-width="1"
    transform="translate(-79.3921802670,-72.3370429252)"
    />
  
  <line
    x1="64.65581603703151"
    y1="87.7557115126176"
    x2="95.90195259383026"
    y2="102.29298683754455"
    stroke="hsla(0,50%,50%,0.6)"
    stroke-width="1"
    transform="translate(-79.3921802670,-72.3370429252)"
    />
  
  <line
    x1="67.56756756756756"
    y1="94.5945945945946"
    x2="95.38950715421304"
    y2="104.1335453100159"
    stroke="hsla(0,50%,50%,0.6)"
    stroke-width="1"
    transform="translate(-79.3921802670,-72.3370429252)"
    />
  
  <line
    x1="86.48804244659166"
    y1="40.82994912010456"
    x2="50.334797480711316"
    y2="72.77421259281829"
    stroke="hsla(0,50%,50%,0.6)"
    stroke-width="1"
    transform="translate(-79.3921802670,-72.3370429252)"
    />
  
  <line
    x1="86.1003861003861"
    y1="40.54054054054054"
    x2="51.182627714419624"
    y2="65.38978284643025"
    stroke="hsla(0,50%,50%,0.6)"
    stroke-width="1"
    transform="translate(-79.3921802670,-72.3370429252)"
    />
  
  <line
    x1="87.3501384435778"
    y1="41.47355519124903"
    x2="50.84772995145099"
    y2="59.03459843927517"
    stroke="hsla(0,50%,50%,0.6)"
    stroke-width="1"
    transform="translate(-79.3921802670,-72.3370429252)"
    />
  
  <line
    x1="77.83783783783784"
    y1="100.34139402560456"
    x2="95.38950715421304"
    y2="104.1335453100159"
    stroke="hsla(0,50%,50%,0.6)"
    stroke-width="1"
    transform="translate(-79.3921802670,-72.3370429252)"
    />
  
  <line
    x1="108.44956305341745"
    y1="57.225533885062795"
    x2="62.20146463673749"
    y2="86.20443379628543"
    stroke="hsla(0,50%,50%,0.6)"
    stroke-width="1"
    transform="translate(-79.3921802670,-72.3370429252)"
    />
  
  <line
    x1="77.83783783783784"
    y1="100.34139402560456"
    x2="95.90195259383026"
    y2="102.29298683754455"
    stroke="hsla(0,50%,50%,0.6)"
    stroke-width="1"
    transform="translate(-79.3921802670,-72.3370429252)"
    />
  
</svg>
