<?xml version="1.0"?>
<!DOCTYPE svg PUBLIC "-//W3C//DTD SVG 1.1//EN"
  "http://www.w3.org/Graphics/SVG/1.1/DTD/svg11.dtd">
<svg
  width="240"
  height="240"
  viewBox="-500 -500 1000 1000" xmlns="http://www.w3.org/2000/svg" version="1.1">
  <rect
    x="0"
    y="0"
    width="100"
    height="100"
    fill="hsla(206,100%,53%,0.3)"
    stroke="hsl(206,100%,53%)"
    stroke-width="3"
    transform="" />
  
  <path
    d="M 
      1
      37.5
      L
    
      75
      37.5
      L
    
      75
      99
      L
    
      1
      99
      z
    "
    fill="hsla(0,0%,50%,0.3)"
    stroke="hsla(0,0%,50%,1)"
    stroke-width="1"
    transform="translate(-38,-68.25)"
    />
  
  
  <line
    x1="1"
    y1="37.5"
    x2="1"
    y2="99"
    stroke="hsla(0,50%,50%,0.6)"
    stroke-width="1"
    transform="translate(-38,-68.25)"
    />
  
  <line
    x1="2"
    y1="37.5"
    x2="2"
    y2="99"
    stroke="hsla(0,50%,50%,0.6)"
    stroke-width="1"
    transform="translate(-38,-68.25)"
    />
  
  <line
    x1="50"
    y1="37.5"
    x2="50"
    y2="99"
    stroke="hsla(0,50%,50%,0.6)"
    stroke-width="1"
    transform="translate(-38,-68.25)"
    />
  
  <line
    x1="75"
    y1="37.5"
    x2="75"
    y2="99"
    stroke="hsla(0,50%,50%,0.6)"
    stroke-width="1"
    transform="translate(-38,-68.25)"
    />
  
  <line
    x1="1"
    y1="37.5"
    x2="75"
    y2="37.5"
    stroke="hsla(0,50%,50%,0.6)"
    stroke-width="1"
    transform="translate(-38,-68.25)"
    />
  
  <line
    x1="1"
    y1="75"
    x2="75"
    y2="75"
    stroke="hsla(0,50%,50%,0.6)"
    stroke-width="1"
    transform="translate(-38,-68.25)"
    />
  
  <line
    x1="1"
    y1="98"
    x2="75"
    y2="98"
    stroke="hsla(0,50%,50%,0.6)"
    stroke-width="1"
    transform="translate(-38,-68.25)"
    />
  
  <line
    x1="1"
    y1="99"
    x2="75"
    y2="99"
    stroke="hsla(0,50%,50%,0.6)"
    stroke-width="1"
    transform="translate(-38,-68.25)"
    />
  
</svg>
