<?xml version="1.0"?>
<!DOCTYPE svg PUBLIC "-//W3C//DTD SVG 1.1//EN"
  "http://www.w3.org/Graphics/SVG/1.1/DTD/svg11.dtd">
<svg
  width="240"
  height="240"
  viewBox="-500 -500 1000 1000" xmlns="http://www.w3.org/2000/svg" version="1.1">
  <rect
    x="0"
    y="0"
    width="100"
    height="100"
    fill="hsla(206,100%,53%,0.3)"
    stroke="hsl(206,100%,53%)"
    stroke-width="3"
    transform="" />
  
  <path
    d="M 
      23.75
      0
      L
    
      48.75
      18.75
      L
    
      55
      62.5
      L
    
      40
      82.5
      L
    
      0
      52.5
      L
    
      11.25
      37.5
      L
    
      1.25
      30
      L
    
      5
      25
      L
    
      2.5
      7.5
      L
    
      20
      5
      z
    "
    fill="hsla(0,0%,50%,0.3)"
    stroke="hsla(0,0%,50%,1)"
    stroke-width="1"
    transform="translate(-27.5,-41.25)"
    />
  
  
  <line
    x1="23.75"
    y1="0"
    x2="48.75"
    y2="18.75"
    stroke="hsla(0,50%,50%,0.6)"
    stroke-width="1"
    transform="translate(-27.5,-41.25)"
    />
  
  <line
    x1="48.75"
    y1="18.75"
    x2="55"
    y2="62.5"
    stroke="hsla(0,50%,50%,0.6)"
    stroke-width="1"
    transform="translate(-27.5,-41.25)"
    />
  
  <line
    x1="38.75"
    y1="11.25"
    x2="42.5"
    y2="37.5"
    stroke="hsla(0,50%,50%,0.6)"
    stroke-width="1"
    transform="translate(-27.5,-41.25)"
    />
  
  <line
    x1="28.75"
    y1="3.75"
    x2="35"
    y2="47.5"
    stroke="hsla(0,50%,50%,0.6)"
    stroke-width="1"
    transform="translate(-27.5,-41.25)"
    />
  
  <line
    x1="22.5"
    y1="22.5"
    x2="26.25"
    y2="48.75"
    stroke="hsla(0,50%,50%,0.6)"
    stroke-width="1"
    transform="translate(-27.5,-41.25)"
    />
  
  <line
    x1="12.5"
    y1="15"
    x2="16.25"
    y2="41.25"
    stroke="hsla(0,50%,50%,0.6)"
    stroke-width="1"
    transform="translate(-27.5,-41.25)"
    />
  
  <line
    x1="2.5"
    y1="7.5"
    x2="6.25"
    y2="33.75"
    stroke="hsla(0,50%,50%,0.6)"
    stroke-width="1"
    transform="translate(-27.5,-41.25)"
    />
  
  <line
    x1="2.5"
    y1="7.5"
    x2="52.5"
    y2="45"
    stroke="hsla(0,50%,50%,0.6)"
    stroke-width="1"
    transform="translate(-27.5,-41.25)"
    />
  
  <line
    x1="28.75"
    y1="3.75"
    x2="2.5"
    y2="7.5"
    stroke="hsla(0,50%,50%,0.6)"
    stroke-width="1"
    transform="translate(-27.5,-41.25)"
    />
  
  <line
    x1="23.75"
    y1="0"
    x2="1.25"
    y2="30"
    stroke="hsla(0,50%,50%,0.6)"
    stroke-width="1"
    transform="translate(-27.5,-41.25)"
    />
  
  <line
    x1="35"
    y1="47.5"
    x2="55"
    y2="62.5"
    stroke="hsla(0,50%,50%,0.6)"
    stroke-width="1"
    transform="translate(-27.5,-41.25)"
    />
  
  <line
    x1="38.75"
    y1="11.25"
    x2="12.5"
    y2="15"
    stroke="hsla(0,50%,50%,0.6)"
    stroke-width="1"
    transform="translate(-27.5,-41.25)"
    />
  
  <line
    x1="1.25"
    y1="30"
    x2="26.25"
    y2="48.75"
    stroke="hsla(0,50%,50%,0.6)"
    stroke-width="1"
    transform="translate(-27.5,-41.25)"
    />
  
  <line
    x1="33.75"
    y1="7.5"
    x2="0"
    y2="52.5"
    stroke="hsla(0,50%,50%,0.6)"
    stroke-width="1"
    transform="translate(-27.5,-41.25)"
    />
  
  <line
    x1="48.75"
    y1="18.75"
    x2="22.5"
    y2="22.5"
    stroke="hsla(0,50%,50%,0.6)"
    stroke-width="1"
    transform="translate(-27.5,-41.25)"
    />
  
  <line
    x1="0"
    y1="52.5"
    x2="40"
    y2="82.5"
    stroke="hsla(0,50%,50%,0.6)"
    stroke-width="1"
    transform="translate(-27.5,-41.25)"
    />
  
  <line
    x1="42.5"
    y1="37.5"
    x2="35"
    y2="47.5"
    stroke="hsla(0,50%,50%,0.6)"
    stroke-width="1"
    transform="translate(-27.5,-41.25)"
    />
  
  <line
    x1="32.5"
    y1="30"
    x2="6.25"
    y2="33.75"
    stroke="hsla(0,50%,50%,0.6)"
    stroke-width="1"
    transform="translate(-27.5,-41.25)"
    />
  
  <line
    x1="42.5"
    y1="37.5"
    x2="16.25"
    y2="41.25"
    stroke="hsla(0,50%,50%,0.6)"
    stroke-width="1"
    transform="translate(-27.5,-41.25)"
    />
  
  <line
    x1="55"
    y1="62.5"
    x2="40"
    y2="82.5"
    stroke="hsla(0,50%,50%,0.6)"
    stroke-width="1"
    transform="translate(-27.5,-41.25)"
    />
  
  <line
    x1="52.5"
    y1="45"
    x2="26.25"
    y2="48.75"
    stroke="hsla(0,50%,50%,0.6)"
    stroke-width="1"
    transform="translate(-27.5,-41.25)"
    />
  
</svg>
