<?xml version="1.0"?>
<!DOCTYPE svg PUBLIC "-//W3C//DTD SVG 1.1//EN"
  "http://www.w3.org/Graphics/SVG/1.1/DTD/svg11.dtd">
<svg
  width="240"
  height="240"
  viewBox="-500 -500 1000 1000" xmlns="http://www.w3.org/2000/svg" version="1.1">
  <rect
    x="0"
    y="0"
    width="100"
    height="100"
    fill="hsla(206,100%,53%,0.3)"
    stroke="hsl(206,100%,53%)"
    stroke-width="3"
    transform="" />
  
  <path
    d="M 
      40110901089.1494684153
      108103104534.3329236451
      L
    
      40110901140.4410352736
      108103104595.2312862430
      L
    
      40110901144.2894883434
      108103104594.0042996874
      L
    
      40110901147.2631267720
      108103104603.3311402189
      L
    
      40110901061.7935870890
      108103104650.5024923916
      L
    
      40110901057.5131168536
      108103104652.0024647786
      L
    
      40110901018.0320871542
      108103104605.1267265307
      L
    
      40110901038.1589923867
      108103104577.2795858998
      z
    "
    fill="hsla(0,0%,50%,0.3)"
    stroke="hsla(0,0%,50%,1)"
    stroke-width="1"
    transform="translate(-40110901082.6476069631,-108103104593.1676942118)"
    />
  
  
  <line
    x1="40110901062.91369"
    y1="108103104649.45891"
    x2="40110901063.027855"
    y2="108103104649.82129"
    stroke="hsla(0,50%,50%,0.6)"
    stroke-width="1"
    transform="translate(-40110901082.6476069631,-108103104593.1676942118)"
    />
  
  <line
    x1="40110901144.28949"
    y1="108103104594.0043"
    x2="40110901147.26313"
    y2="108103104603.33113"
    stroke="hsla(0,50%,50%,0.6)"
    stroke-width="1"
    transform="translate(-40110901082.6476069631,-108103104593.1676942118)"
    />
  
  <line
    x1="40110901057.91102"
    y1="108103104636.62787"
    x2="40110901063.01465"
    y2="108103104649.8286"
    stroke="hsla(0,50%,50%,0.6)"
    stroke-width="1"
    transform="translate(-40110901082.6476069631,-108103104593.1676942118)"
    />
  
  <line
    x1="40110901057.91102"
    y1="108103104636.62787"
    x2="40110901057.513115"
    y2="108103104652.00247"
    stroke="hsla(0,50%,50%,0.6)"
    stroke-width="1"
    transform="translate(-40110901082.6476069631,-108103104593.1676942118)"
    />
  
  <line
    x1="40110901062.87597"
    y1="108103104649.64221"
    x2="40110901063.01465"
    y2="108103104649.8286"
    stroke="hsla(0,50%,50%,0.6)"
    stroke-width="1"
    transform="translate(-40110901082.6476069631,-108103104593.1676942118)"
    />
  
  <line
    x1="40110901089.14947"
    y1="108103104534.33293"
    x2="40110901147.26313"
    y2="108103104603.33113"
    stroke="hsla(0,50%,50%,0.6)"
    stroke-width="1"
    transform="translate(-40110901082.6476069631,-108103104593.1676942118)"
    />
  
  <line
    x1="40110901018.03209"
    y1="108103104605.12674"
    x2="40110901057.513115"
    y2="108103104652.00247"
    stroke="hsla(0,50%,50%,0.6)"
    stroke-width="1"
    transform="translate(-40110901082.6476069631,-108103104593.1676942118)"
    />
  
  <line
    x1="40110901062.87597"
    y1="108103104649.64221"
    x2="40110901063.027855"
    y2="108103104649.82129"
    stroke="hsla(0,50%,50%,0.6)"
    stroke-width="1"
    transform="translate(-40110901082.6476069631,-108103104593.1676942118)"
    />
  
  <line
    x1="40110901038.15899"
    y1="108103104577.27959"
    x2="40110901025.76829"
    y2="108103104608.22441"
    stroke="hsla(0,50%,50%,0.6)"
    stroke-width="1"
    transform="translate(-40110901082.6476069631,-108103104593.1676942118)"
    />
  
  <line
    x1="40110901125.23452"
    y1="108103104600.07951"
    x2="40110901122.679695"
    y2="108103104604.37752"
    stroke="hsla(0,50%,50%,0.6)"
    stroke-width="1"
    transform="translate(-40110901082.6476069631,-108103104593.1676942118)"
    />
  
  <line
    x1="40110901038.15899"
    y1="108103104577.27959"
    x2="40110901018.03209"
    y2="108103104605.12674"
    stroke="hsla(0,50%,50%,0.6)"
    stroke-width="1"
    transform="translate(-40110901082.6476069631,-108103104593.1676942118)"
    />
  
  <line
    x1="40110901122.679695"
    y1="108103104604.37752"
    x2="40110901100.20851"
    y2="108103104629.30098"
    stroke="hsla(0,50%,50%,0.6)"
    stroke-width="1"
    transform="translate(-40110901082.6476069631,-108103104593.1676942118)"
    />
  
  <line
    x1="40110901018.03209"
    y1="108103104605.12674"
    x2="40110901025.76829"
    y2="108103104608.22441"
    stroke="hsla(0,50%,50%,0.6)"
    stroke-width="1"
    transform="translate(-40110901082.6476069631,-108103104593.1676942118)"
    />
  
  <line
    x1="40110901077.98145"
    y1="108103104637.63634"
    x2="40110901064.70949"
    y2="108103104648.89317"
    stroke="hsla(0,50%,50%,0.6)"
    stroke-width="1"
    transform="translate(-40110901082.6476069631,-108103104593.1676942118)"
    />
  
  <line
    x1="40110901089.14947"
    y1="108103104534.33293"
    x2="40110901038.15899"
    y2="108103104577.27959"
    stroke="hsla(0,50%,50%,0.6)"
    stroke-width="1"
    transform="translate(-40110901082.6476069631,-108103104593.1676942118)"
    />
  
  <line
    x1="40110901125.23452"
    y1="108103104600.07951"
    x2="40110901061.793594"
    y2="108103104650.50249"
    stroke="hsla(0,50%,50%,0.6)"
    stroke-width="1"
    transform="translate(-40110901082.6476069631,-108103104593.1676942118)"
    />
  
  <line
    x1="40110901122.679695"
    y1="108103104604.37752"
    x2="40110901077.98145"
    y2="108103104637.63634"
    stroke="hsla(0,50%,50%,0.6)"
    stroke-width="1"
    transform="translate(-40110901082.6476069631,-108103104593.1676942118)"
    />
  
  <line
    x1="40110901147.26313"
    y1="108103104603.33113"
    x2="40110901061.793594"
    y2="108103104650.50249"
    stroke="hsla(0,50%,50%,0.6)"
    stroke-width="1"
    transform="translate(-40110901082.6476069631,-108103104593.1676942118)"
    />
  
  <line
    x1="40110901061.793594"
    y1="108103104650.50249"
    x2="40110901057.513115"
    y2="108103104652.00247"
    stroke="hsla(0,50%,50%,0.6)"
    stroke-width="1"
    transform="translate(-40110901082.6476069631,-108103104593.1676942118)"
    />
  
  <line
    x1="40110901144.28949"
    y1="108103104594.0043"
    x2="40110901125.23452"
    y2="108103104600.07951"
    stroke="hsla(0,50%,50%,0.6)"
    stroke-width="1"
    transform="translate(-40110901082.6476069631,-108103104593.1676942118)"
    />
  
  <line
    x1="40110901064.70949"
    y1="108103104648.89317"
    x2="40110901062.91369"
    y2="108103104649.45891"
    stroke="hsla(0,50%,50%,0.6)"
    stroke-width="1"
    transform="translate(-40110901082.6476069631,-108103104593.1676942118)"
    />
  
  <line
    x1="40110901100.20851"
    y1="108103104629.30098"
    x2="40110901057.91102"
    y2="108103104636.62787"
    stroke="hsla(0,50%,50%,0.6)"
    stroke-width="1"
    transform="translate(-40110901082.6476069631,-108103104593.1676942118)"
    />
  
</svg>
