<?xml version="1.0"?>
<!DOCTYPE svg PUBLIC "-//W3C//DTD SVG 1.1//EN"
  "http://www.w3.org/Graphics/SVG/1.1/DTD/svg11.dtd">
<svg
  width="240"
  height="240"
  viewBox="-500 -500 1000 1000" xmlns="http://www.w3.org/2000/svg" version="1.1">
  <rect
    x="0"
    y="0"
    width="100"
    height="100"
    fill="hsla(206,100%,53%,0.3)"
    stroke="hsl(206,100%,53%)"
    stroke-width="3"
    transform="" />
  
  <path
    d="M 
      157.4234761778
      149.6386744743
      L
    
      179.1218614142
      162.6000354893
      L
    
      184.8023689113
      184.2407505988
      L
    
      172.8735249756
      199.0752816963
      L
    
      148.1962558779
      200.2730458699
      L
    
      125.4309732942
      194.5204507142
      L
    
      123.6809067518
      168.3947741992
      L
    
      139.8684677490
      151.0238665601
      z
    "
    fill="hsla(0,0%,50%,0.3)"
    stroke="hsla(0,0%,50%,1)"
    stroke-width="1"
    transform="translate(-154.2416378316,-174.9558601721)"
    />
  
  
  <line
    x1="179.12186141424897"
    y1="162.60003548930885"
    x2="184.80236891136545"
    y2="184.24075059888207"
    stroke="hsla(0,50%,50%,0.6)"
    stroke-width="1"
    transform="translate(-154.2416378316,-174.9558601721)"
    />
  
  <line
    x1="158.7809357416138"
    y1="173.10502749299053"
    x2="161.90288941502558"
    y2="183.74218245540035"
    stroke="hsla(0,50%,50%,0.6)"
    stroke-width="1"
    transform="translate(-154.2416378316,-174.9558601721)"
    />
  
  <line
    x1="146.54985531350798"
    y1="180.49086790624847"
    x2="152.85576307245015"
    y2="190.52466104088126"
    stroke="hsla(0,50%,50%,0.6)"
    stroke-width="1"
    transform="translate(-154.2416378316,-174.9558601721)"
    />
  
  <line
    x1="157.42347617780143"
    y1="149.63867447431463"
    x2="160.5225499970676"
    y2="188.9142865521084"
    stroke="hsla(0,50%,50%,0.6)"
    stroke-width="1"
    transform="translate(-154.2416378316,-174.9558601721)"
    />
  
  <line
    x1="144.62403717099514"
    y1="156.61736310617204"
    x2="148.19625587791677"
    y2="200.27304586993168"
    stroke="hsla(0,50%,50%,0.6)"
    stroke-width="1"
    transform="translate(-154.2416378316,-174.9558601721)"
    />
  
  <line
    x1="132.22095070568756"
    y1="173.1838479703369"
    x2="145.66243955998877"
    y2="194.3930107420281"
    stroke="hsla(0,50%,50%,0.6)"
    stroke-width="1"
    transform="translate(-154.2416378316,-174.9558601721)"
    />
  
  <line
    x1="123.68090675184101"
    y1="168.39477419927246"
    x2="125.4309732942951"
    y2="194.52045071422233"
    stroke="hsla(0,50%,50%,0.6)"
    stroke-width="1"
    transform="translate(-154.2416378316,-174.9558601721)"
    />
  
  <line
    x1="147.47389498412096"
    y1="153.94996138398275"
    x2="156.24179383860553"
    y2="163.31760362822683"
    stroke="hsla(0,50%,50%,0.6)"
    stroke-width="1"
    transform="translate(-154.2416378316,-174.9558601721)"
    />
  
  <line
    x1="123.68090675184101"
    y1="168.39477419927246"
    x2="139.37068113251777"
    y2="190.35527690276356"
    stroke="hsla(0,50%,50%,0.6)"
    stroke-width="1"
    transform="translate(-154.2416378316,-174.9558601721)"
    />
  
  <line
    x1="139.8684677490906"
    y1="151.02386656019874"
    x2="140.10987159264292"
    y2="176.99353267368878"
    stroke="hsla(0,50%,50%,0.6)"
    stroke-width="1"
    transform="translate(-154.2416378316,-174.9558601721)"
    />
  
  <line
    x1="139.8684677490906"
    y1="151.02386656019874"
    x2="155.4137207533733"
    y2="167.6705013715972"
    stroke="hsla(0,50%,50%,0.6)"
    stroke-width="1"
    transform="translate(-154.2416378316,-174.9558601721)"
    />
  
  <line
    x1="141.2551804786849"
    y1="176.7057323465842"
    x2="154.97138674474314"
    y2="193.45909857155533"
    stroke="hsla(0,50%,50%,0.6)"
    stroke-width="1"
    transform="translate(-154.2416378316,-174.9558601721)"
    />
  
  <line
    x1="173.15632606988717"
    y1="175.68207414384412"
    x2="172.8735249756011"
    y2="199.07528169638897"
    stroke="hsla(0,50%,50%,0.6)"
    stroke-width="1"
    transform="translate(-154.2416378316,-174.9558601721)"
    />
  
  <line
    x1="156.51281675168363"
    y1="169.55325546044784"
    x2="168.59066476508042"
    y2="182.02463683483816"
    stroke="hsla(0,50%,50%,0.6)"
    stroke-width="1"
    transform="translate(-154.2416378316,-174.9558601721)"
    />
  
  <line
    x1="166.76917443659067"
    y1="167.7836932986028"
    x2="184.80236891136545"
    y2="184.24075059888207"
    stroke="hsla(0,50%,50%,0.6)"
    stroke-width="1"
    transform="translate(-154.2416378316,-174.9558601721)"
    />
  
  <line
    x1="157.82779179809518"
    y1="185.39666423799318"
    x2="172.8735249756011"
    y2="199.07528169638897"
    stroke="hsla(0,50%,50%,0.6)"
    stroke-width="1"
    transform="translate(-154.2416378316,-174.9558601721)"
    />
  
  <line
    x1="156.51281675168363"
    y1="169.55325546044784"
    x2="152.85576307245015"
    y2="190.52466104088126"
    stroke="hsla(0,50%,50%,0.6)"
    stroke-width="1"
    transform="translate(-154.2416378316,-174.9558601721)"
    />
  
  <line
    x1="156.24179383860553"
    y1="163.31760362822683"
    x2="148.19625587791677"
    y2="200.27304586993168"
    stroke="hsla(0,50%,50%,0.6)"
    stroke-width="1"
    transform="translate(-154.2416378316,-174.9558601721)"
    />
  
  <line
    x1="157.42347617780143"
    y1="149.63867447431463"
    x2="179.12186141424897"
    y2="162.60003548930885"
    stroke="hsla(0,50%,50%,0.6)"
    stroke-width="1"
    transform="translate(-154.2416378316,-174.9558601721)"
    />
  
  <line
    x1="144.62403717099514"
    y1="156.61736310617204"
    x2="173.15632606988717"
    y2="175.68207414384412"
    stroke="hsla(0,50%,50%,0.6)"
    stroke-width="1"
    transform="translate(-154.2416378316,-174.9558601721)"
    />
  
  <line
    x1="132.22095070568756"
    y1="173.1838479703369"
    x2="125.4309732942951"
    y2="194.52045071422233"
    stroke="hsla(0,50%,50%,0.6)"
    stroke-width="1"
    transform="translate(-154.2416378316,-174.9558601721)"
    />
  
  <line
    x1="140.10987159264292"
    y1="176.99353267368878"
    x2="160.5225499970676"
    y2="188.9142865521084"
    stroke="hsla(0,50%,50%,0.6)"
    stroke-width="1"
    transform="translate(-154.2416378316,-174.9558601721)"
    />
  
  <line
    x1="166.76917443659067"
    y1="167.7836932986028"
    x2="157.82779179809518"
    y2="185.39666423799318"
    stroke="hsla(0,50%,50%,0.6)"
    stroke-width="1"
    transform="translate(-154.2416378316,-174.9558601721)"
    />
  
  <line
    x1="157.42347617780143"
    y1="149.63867447431463"
    x2="141.2551804786849"
    y2="176.7057323465842"
    stroke="hsla(0,50%,50%,0.6)"
    stroke-width="1"
    transform="translate(-154.2416378316,-174.9558601721)"
    />
  
  <line
    x1="179.12186141424897"
    y1="162.60003548930885"
    x2="168.59066476508042"
    y2="182.02463683483816"
    stroke="hsla(0,50%,50%,0.6)"
    stroke-width="1"
    transform="translate(-154.2416378316,-174.9558601721)"
    />
  
  <line
    x1="158.7809357416138"
    y1="173.10502749299053"
    x2="145.66243955998877"
    y2="194.3930107420281"
    stroke="hsla(0,50%,50%,0.6)"
    stroke-width="1"
    transform="translate(-154.2416378316,-174.9558601721)"
    />
  
  <line
    x1="155.4137207533733"
    y1="167.6705013715972"
    x2="139.37068113251777"
    y2="190.35527690276356"
    stroke="hsla(0,50%,50%,0.6)"
    stroke-width="1"
    transform="translate(-154.2416378316,-174.9558601721)"
    />
  
  <line
    x1="139.8684677490906"
    y1="151.02386656019874"
    x2="123.68090675184101"
    y2="168.39477419927246"
    stroke="hsla(0,50%,50%,0.6)"
    stroke-width="1"
    transform="translate(-154.2416378316,-174.9558601721)"
    />
  
  <line
    x1="141.2551804786849"
    y1="176.7057323465842"
    x2="168.59066476508042"
    y2="182.02463683483816"
    stroke="hsla(0,50%,50%,0.6)"
    stroke-width="1"
    transform="translate(-154.2416378316,-174.9558601721)"
    />
  
  <line
    x1="123.68090675184101"
    y1="168.39477419927246"
    x2="158.7809357416138"
    y2="173.10502749299053"
    stroke="hsla(0,50%,50%,0.6)"
    stroke-width="1"
    transform="translate(-154.2416378316,-174.9558601721)"
    />
  
  <line
    x1="125.4309732942951"
    y1="194.52045071422233"
    x2="148.19625587791677"
    y2="200.27304586993168"
    stroke="hsla(0,50%,50%,0.6)"
    stroke-width="1"
    transform="translate(-154.2416378316,-174.9558601721)"
    />
  
  <line
    x1="147.47389498412096"
    y1="153.94996138398275"
    x2="144.62403717099514"
    y2="156.61736310617204"
    stroke="hsla(0,50%,50%,0.6)"
    stroke-width="1"
    transform="translate(-154.2416378316,-174.9558601721)"
    />
  
  <line
    x1="157.42347617780143"
    y1="149.63867447431463"
    x2="139.8684677490906"
    y2="151.02386656019874"
    stroke="hsla(0,50%,50%,0.6)"
    stroke-width="1"
    transform="translate(-154.2416378316,-174.9558601721)"
    />
  
  <line
    x1="184.80236891136545"
    y1="184.24075059888207"
    x2="172.8735249756011"
    y2="199.07528169638897"
    stroke="hsla(0,50%,50%,0.6)"
    stroke-width="1"
    transform="translate(-154.2416378316,-174.9558601721)"
    />
  
  <line
    x1="155.4137207533733"
    y1="167.6705013715972"
    x2="140.10987159264292"
    y2="176.99353267368878"
    stroke="hsla(0,50%,50%,0.6)"
    stroke-width="1"
    transform="translate(-154.2416378316,-174.9558601721)"
    />
  
  <line
    x1="160.5225499970676"
    y1="188.9142865521084"
    x2="154.97138674474314"
    y2="193.45909857155533"
    stroke="hsla(0,50%,50%,0.6)"
    stroke-width="1"
    transform="translate(-154.2416378316,-174.9558601721)"
    />
  
  <line
    x1="156.24179383860553"
    y1="163.31760362822683"
    x2="132.22095070568756"
    y2="173.1838479703369"
    stroke="hsla(0,50%,50%,0.6)"
    stroke-width="1"
    transform="translate(-154.2416378316,-174.9558601721)"
    />
  
  <line
    x1="145.66243955998877"
    y1="194.3930107420281"
    x2="125.4309732942951"
    y2="194.52045071422233"
    stroke="hsla(0,50%,50%,0.6)"
    stroke-width="1"
    transform="translate(-154.2416378316,-174.9558601721)"
    />
  
  <line
    x1="166.76917443659067"
    y1="167.7836932986028"
    x2="146.54985531350798"
    y2="180.49086790624847"
    stroke="hsla(0,50%,50%,0.6)"
    stroke-width="1"
    transform="translate(-154.2416378316,-174.9558601721)"
    />
  
  <line
    x1="179.12186141424897"
    y1="162.60003548930885"
    x2="156.51281675168363"
    y2="169.55325546044784"
    stroke="hsla(0,50%,50%,0.6)"
    stroke-width="1"
    transform="translate(-154.2416378316,-174.9558601721)"
    />
  
  <line
    x1="173.15632606988717"
    y1="175.68207414384412"
    x2="157.82779179809518"
    y2="185.39666423799318"
    stroke="hsla(0,50%,50%,0.6)"
    stroke-width="1"
    transform="translate(-154.2416378316,-174.9558601721)"
    />
  
  <line
    x1="172.8735249756011"
    y1="199.07528169638897"
    x2="148.19625587791677"
    y2="200.27304586993168"
    stroke="hsla(0,50%,50%,0.6)"
    stroke-width="1"
    transform="translate(-154.2416378316,-174.9558601721)"
    />
  
  <line
    x1="184.80236891136545"
    y1="184.24075059888207"
    x2="152.85576307245015"
    y2="190.52466104088126"
    stroke="hsla(0,50%,50%,0.6)"
    stroke-width="1"
    transform="translate(-154.2416378316,-174.9558601721)"
    />
  
  <line
    x1="161.90288941502558"
    y1="183.74218245540035"
    x2="139.37068113251777"
    y2="190.35527690276356"
    stroke="hsla(0,50%,50%,0.6)"
    stroke-width="1"
    transform="translate(-154.2416378316,-174.9558601721)"
    />
  
</svg>
