<?xml version="1.0"?>
<!DOCTYPE svg PUBLIC "-//W3C//DTD SVG 1.1//EN"
  "http://www.w3.org/Graphics/SVG/1.1/DTD/svg11.dtd">
<svg
  width="240"
  height="240"
  viewBox="-50 -50 200 200" xmlns="http://www.w3.org/2000/svg" version="1.1">
  <rect
    x="0"
    y="0"
    width="100"
    height="100"
    fill="hsla(206,100%,53%,0.3)"
    stroke="hsl(206,100%,53%)"
    stroke-width="3"
    transform="" />
  
  <path
    d="M 
      286.3164784814
      35.6688757977
      L
    
      301.2682048764
      37.7814596629
      L
    
      320.6206021927
      49.4468990345
      L
    
      327.9266895761
      64.8236786123
      L
    
      322.7454590083
      80.9953362788
      L
    
      313.3607429225
      96.9522173130
      L
    
      295.5441008018
      98.1210112911
      L
    
      275.6030109638
      85.3297332678
      L
    
      269.4743086237
      72.2046309932
      L
    
      271.1884306987
      55.1534118802
      z
    "
    fill="hsla(0,0%,50%,0.3)"
    stroke="hsla(0,0%,50%,1)"
    stroke-width="1"
    transform="translate(-275.6820740135,-67.5649970979) scale(1,-1) translate(50,-110)"
    />
  
  
  <line
    x1="290.9110390792152"
    y1="54.96349466336941"
    x2="308.72216193592686"
    y2="77.04278407772304"
    stroke="hsla(0,50%,50%,0.6)"
    stroke-width="1"
    transform="translate(-275.6820740135,-67.5649970979) scale(1,-1) translate(50,-110)"
    />
  
  <line
    x1="293.74069252071723"
    y1="59.90832697472107"
    x2="307.7403762547312"
    y2="79.39200513376423"
    stroke="hsla(0,50%,50%,0.6)"
    stroke-width="1"
    transform="translate(-275.6820740135,-67.5649970979) scale(1,-1) translate(50,-110)"
    />
  
  <line
    x1="320.62060219276714"
    y1="49.4468990345279"
    x2="327.9266895761741"
    y2="64.82367861233841"
    stroke="hsla(0,50%,50%,0.6)"
    stroke-width="1"
    transform="translate(-275.6820740135,-67.5649970979) scale(1,-1) translate(50,-110)"
    />
  
  <line
    x1="286.31647848142694"
    y1="35.66887579774178"
    x2="316.0399191324365"
    y2="57.35632657877431"
    stroke="hsla(0,50%,50%,0.6)"
    stroke-width="1"
    transform="translate(-275.6820740135,-67.5649970979) scale(1,-1) translate(50,-110)"
    />
  
  <line
    x1="301.2682048764523"
    y1="37.78145966290296"
    x2="320.62060219276714"
    y2="49.4468990345279"
    stroke="hsla(0,50%,50%,0.6)"
    stroke-width="1"
    transform="translate(-275.6820740135,-67.5649970979) scale(1,-1) translate(50,-110)"
    />
  
  <line
    x1="290.054329139181"
    y1="78.1926870122719"
    x2="313.3607429225986"
    y2="96.95221731304206"
    stroke="hsla(0,50%,50%,0.6)"
    stroke-width="1"
    transform="translate(-275.6820740135,-67.5649970979) scale(1,-1) translate(50,-110)"
    />
  
  <line
    x1="269.47430862379315"
    y1="72.20463099329079"
    x2="275.6030109638357"
    y2="85.3297332678776"
    stroke="hsla(0,50%,50%,0.6)"
    stroke-width="1"
    transform="translate(-275.6820740135,-67.5649970979) scale(1,-1) translate(50,-110)"
    />
  
  <line
    x1="295.0571350912081"
    y1="60.25885524575023"
    x2="312.9059577214854"
    y2="70.10581205763368"
    stroke="hsla(0,50%,50%,0.6)"
    stroke-width="1"
    transform="translate(-275.6820740135,-67.5649970979) scale(1,-1) translate(50,-110)"
    />
  
  <line
    x1="299.22637580529033"
    y1="60.79248428654695"
    x2="315.58432284826375"
    y2="69.41513403407433"
    stroke="hsla(0,50%,50%,0.6)"
    stroke-width="1"
    transform="translate(-275.6820740135,-67.5649970979) scale(1,-1) translate(50,-110)"
    />
  
  <line
    x1="292.44161470090467"
    y1="52.135478116476015"
    x2="296.72909122971026"
    y2="66.52686368401339"
    stroke="hsla(0,50%,50%,0.6)"
    stroke-width="1"
    transform="translate(-275.6820740135,-67.5649970979) scale(1,-1) translate(50,-110)"
    />
  
  <line
    x1="300.6860128592455"
    y1="69.22951436543413"
    x2="322.7454590083456"
    y2="80.99533627884144"
    stroke="hsla(0,50%,50%,0.6)"
    stroke-width="1"
    transform="translate(-275.6820740135,-67.5649970979) scale(1,-1) translate(50,-110)"
    />
  
  <line
    x1="290.7013268447469"
    y1="69.00405454849337"
    x2="304.9854840968165"
    y2="76.63640709653528"
    stroke="hsla(0,50%,50%,0.6)"
    stroke-width="1"
    transform="translate(-275.6820740135,-67.5649970979) scale(1,-1) translate(50,-110)"
    />
  
  <line
    x1="275.6030109638357"
    y1="85.3297332678776"
    x2="295.54410080183277"
    y2="98.12101129111439"
    stroke="hsla(0,50%,50%,0.6)"
    stroke-width="1"
    transform="translate(-275.6820740135,-67.5649970979) scale(1,-1) translate(50,-110)"
    />
  
  <line
    x1="271.18843069874"
    y1="55.153411880216005"
    x2="296.72909122971026"
    y2="66.52686368401339"
    stroke="hsla(0,50%,50%,0.6)"
    stroke-width="1"
    transform="translate(-275.6820740135,-67.5649970979) scale(1,-1) translate(50,-110)"
    />
  
  <line
    x1="307.2833828187483"
    y1="58.929822624520945"
    x2="327.9266895761741"
    y2="64.82367861233841"
    stroke="hsla(0,50%,50%,0.6)"
    stroke-width="1"
    transform="translate(-275.6820740135,-67.5649970979) scale(1,-1) translate(50,-110)"
    />
  
  <line
    x1="293.74069252071723"
    y1="59.90832697472107"
    x2="314.1296699033176"
    y2="66.030268180106"
    stroke="hsla(0,50%,50%,0.6)"
    stroke-width="1"
    transform="translate(-275.6820740135,-67.5649970979) scale(1,-1) translate(50,-110)"
    />
  
  <line
    x1="290.7013268447469"
    y1="69.00405454849337"
    x2="291.4333401403127"
    y2="78.39100168602845"
    stroke="hsla(0,50%,50%,0.6)"
    stroke-width="1"
    transform="translate(-275.6820740135,-67.5649970979) scale(1,-1) translate(50,-110)"
    />
  
  <line
    x1="294.278976285274"
    y1="76.56931324429145"
    x2="295.54410080183277"
    y2="98.12101129111439"
    stroke="hsla(0,50%,50%,0.6)"
    stroke-width="1"
    transform="translate(-275.6820740135,-67.5649970979) scale(1,-1) translate(50,-110)"
    />
  
  <line
    x1="300.07719282269017"
    y1="74.7608451531873"
    x2="322.7454590083456"
    y2="80.99533627884144"
    stroke="hsla(0,50%,50%,0.6)"
    stroke-width="1"
    transform="translate(-275.6820740135,-67.5649970979) scale(1,-1) translate(50,-110)"
    />
  
  <line
    x1="286.31647848142694"
    y1="35.66887579774178"
    x2="301.2682048764523"
    y2="37.78145966290296"
    stroke="hsla(0,50%,50%,0.6)"
    stroke-width="1"
    transform="translate(-275.6820740135,-67.5649970979) scale(1,-1) translate(50,-110)"
    />
  
  <line
    x1="290.9110390792152"
    y1="54.96349466336941"
    x2="298.62747504500084"
    y2="56.47111765668467"
    stroke="hsla(0,50%,50%,0.6)"
    stroke-width="1"
    transform="translate(-275.6820740135,-67.5649970979) scale(1,-1) translate(50,-110)"
    />
  
  <line
    x1="292.44161470090467"
    y1="52.135478116476015"
    x2="292.2753574377885"
    y2="74.4967709772313"
    stroke="hsla(0,50%,50%,0.6)"
    stroke-width="1"
    transform="translate(-275.6820740135,-67.5649970979) scale(1,-1) translate(50,-110)"
    />
  
  <line
    x1="294.278976285274"
    y1="76.56931324429145"
    x2="307.7403762547312"
    y2="79.39200513376423"
    stroke="hsla(0,50%,50%,0.6)"
    stroke-width="1"
    transform="translate(-275.6820740135,-67.5649970979) scale(1,-1) translate(50,-110)"
    />
  
  <line
    x1="284.1494856473723"
    y1="55.19694465584817"
    x2="315.76137053933826"
    y2="59.43435293114845"
    stroke="hsla(0,50%,50%,0.6)"
    stroke-width="1"
    transform="translate(-275.6820740135,-67.5649970979) scale(1,-1) translate(50,-110)"
    />
  
  <line
    x1="315.58432284826375"
    y1="69.41513403407433"
    x2="313.3607429225986"
    y2="96.95221731304206"
    stroke="hsla(0,50%,50%,0.6)"
    stroke-width="1"
    transform="translate(-275.6820740135,-67.5649970979) scale(1,-1) translate(50,-110)"
    />
  
  <line
    x1="271.18843069874"
    y1="55.153411880216005"
    x2="269.47430862379315"
    y2="72.20463099329079"
    stroke="hsla(0,50%,50%,0.6)"
    stroke-width="1"
    transform="translate(-275.6820740135,-67.5649970979) scale(1,-1) translate(50,-110)"
    />
  
  <line
    x1="284.1494856473723"
    y1="55.19694465584817"
    x2="298.62747504500084"
    y2="56.47111765668467"
    stroke="hsla(0,50%,50%,0.6)"
    stroke-width="1"
    transform="translate(-275.6820740135,-67.5649970979) scale(1,-1) translate(50,-110)"
    />
  
  <line
    x1="286.31647848142694"
    y1="35.66887579774178"
    x2="284.1494856473723"
    y2="55.19694465584817"
    stroke="hsla(0,50%,50%,0.6)"
    stroke-width="1"
    transform="translate(-275.6820740135,-67.5649970979) scale(1,-1) translate(50,-110)"
    />
  
  <line
    x1="300.6860128592455"
    y1="69.22951436543413"
    x2="300.07719282269017"
    y2="74.7608451531873"
    stroke="hsla(0,50%,50%,0.6)"
    stroke-width="1"
    transform="translate(-275.6820740135,-67.5649970979) scale(1,-1) translate(50,-110)"
    />
  
  <line
    x1="307.2833828187483"
    y1="58.929822624520945"
    x2="304.9854840968165"
    y2="76.63640709653528"
    stroke="hsla(0,50%,50%,0.6)"
    stroke-width="1"
    transform="translate(-275.6820740135,-67.5649970979) scale(1,-1) translate(50,-110)"
    />
  
  <line
    x1="301.2682048764523"
    y1="37.78145966290296"
    x2="298.62747504500084"
    y2="56.47111765668467"
    stroke="hsla(0,50%,50%,0.6)"
    stroke-width="1"
    transform="translate(-275.6820740135,-67.5649970979) scale(1,-1) translate(50,-110)"
    />
  
  <line
    x1="316.0399191324365"
    y1="57.35632657877431"
    x2="315.76137053933826"
    y2="59.43435293114845"
    stroke="hsla(0,50%,50%,0.6)"
    stroke-width="1"
    transform="translate(-275.6820740135,-67.5649970979) scale(1,-1) translate(50,-110)"
    />
  
  <line
    x1="269.47430862379315"
    y1="72.20463099329079"
    x2="292.2753574377885"
    y2="74.4967709772313"
    stroke="hsla(0,50%,50%,0.6)"
    stroke-width="1"
    transform="translate(-275.6820740135,-67.5649970979) scale(1,-1) translate(50,-110)"
    />
  
  <line
    x1="295.0571350912081"
    y1="60.25885524575023"
    x2="292.2753574377885"
    y2="74.4967709772313"
    stroke="hsla(0,50%,50%,0.6)"
    stroke-width="1"
    transform="translate(-275.6820740135,-67.5649970979) scale(1,-1) translate(50,-110)"
    />
  
  <line
    x1="292.44161470090467"
    y1="52.135478116476015"
    x2="271.18843069874"
    y2="55.153411880216005"
    stroke="hsla(0,50%,50%,0.6)"
    stroke-width="1"
    transform="translate(-275.6820740135,-67.5649970979) scale(1,-1) translate(50,-110)"
    />
  
  <line
    x1="314.1296699033176"
    y1="66.030268180106"
    x2="312.9059577214854"
    y2="70.10581205763368"
    stroke="hsla(0,50%,50%,0.6)"
    stroke-width="1"
    transform="translate(-275.6820740135,-67.5649970979) scale(1,-1) translate(50,-110)"
    />
  
  <line
    x1="308.72216193592686"
    y1="77.04278407772304"
    x2="291.4333401403127"
    y2="78.39100168602845"
    stroke="hsla(0,50%,50%,0.6)"
    stroke-width="1"
    transform="translate(-275.6820740135,-67.5649970979) scale(1,-1) translate(50,-110)"
    />
  
  <line
    x1="327.9266895761741"
    y1="64.82367861233841"
    x2="322.7454590083456"
    y2="80.99533627884144"
    stroke="hsla(0,50%,50%,0.6)"
    stroke-width="1"
    transform="translate(-275.6820740135,-67.5649970979) scale(1,-1) translate(50,-110)"
    />
  
  <line
    x1="313.3607429225986"
    y1="96.95221731304206"
    x2="295.54410080183277"
    y2="98.12101129111439"
    stroke="hsla(0,50%,50%,0.6)"
    stroke-width="1"
    transform="translate(-275.6820740135,-67.5649970979) scale(1,-1) translate(50,-110)"
    />
  
  <line
    x1="320.62060219276714"
    y1="49.4468990345279"
    x2="308.72216193592686"
    y2="77.04278407772304"
    stroke="hsla(0,50%,50%,0.6)"
    stroke-width="1"
    transform="translate(-275.6820740135,-67.5649970979) scale(1,-1) translate(50,-110)"
    />
  
  <line
    x1="307.2833828187483"
    y1="58.929822624520945"
    x2="300.07719282269017"
    y2="74.7608451531873"
    stroke="hsla(0,50%,50%,0.6)"
    stroke-width="1"
    transform="translate(-275.6820740135,-67.5649970979) scale(1,-1) translate(50,-110)"
    />
  
  <line
    x1="299.22637580529033"
    y1="60.79248428654695"
    x2="290.054329139181"
    y2="78.1926870122719"
    stroke="hsla(0,50%,50%,0.6)"
    stroke-width="1"
    transform="translate(-275.6820740135,-67.5649970979) scale(1,-1) translate(50,-110)"
    />
  
  <line
    x1="301.2682048764523"
    y1="37.78145966290296"
    x2="290.9110390792152"
    y2="54.96349466336941"
    stroke="hsla(0,50%,50%,0.6)"
    stroke-width="1"
    transform="translate(-275.6820740135,-67.5649970979) scale(1,-1) translate(50,-110)"
    />
  
  <line
    x1="286.31647848142694"
    y1="35.66887579774178"
    x2="271.18843069874"
    y2="55.153411880216005"
    stroke="hsla(0,50%,50%,0.6)"
    stroke-width="1"
    transform="translate(-275.6820740135,-67.5649970979) scale(1,-1) translate(50,-110)"
    />
  
  <line
    x1="315.58432284826375"
    y1="69.41513403407433"
    x2="294.278976285274"
    y2="76.56931324429145"
    stroke="hsla(0,50%,50%,0.6)"
    stroke-width="1"
    transform="translate(-275.6820740135,-67.5649970979) scale(1,-1) translate(50,-110)"
    />
  
  <line
    x1="293.74069252071723"
    y1="59.90832697472107"
    x2="275.6030109638357"
    y2="85.3297332678776"
    stroke="hsla(0,50%,50%,0.6)"
    stroke-width="1"
    transform="translate(-275.6820740135,-67.5649970979) scale(1,-1) translate(50,-110)"
    />
  
  <line
    x1="322.7454590083456"
    y1="80.99533627884144"
    x2="313.3607429225986"
    y2="96.95221731304206"
    stroke="hsla(0,50%,50%,0.6)"
    stroke-width="1"
    transform="translate(-275.6820740135,-67.5649970979) scale(1,-1) translate(50,-110)"
    />
  
  <line
    x1="295.0571350912081"
    y1="60.25885524575023"
    x2="269.47430862379315"
    y2="72.20463099329079"
    stroke="hsla(0,50%,50%,0.6)"
    stroke-width="1"
    transform="translate(-275.6820740135,-67.5649970979) scale(1,-1) translate(50,-110)"
    />
  
  <line
    x1="307.7403762547312"
    y1="79.39200513376423"
    x2="295.54410080183277"
    y2="98.12101129111439"
    stroke="hsla(0,50%,50%,0.6)"
    stroke-width="1"
    transform="translate(-275.6820740135,-67.5649970979) scale(1,-1) translate(50,-110)"
    />
  
  <line
    x1="316.0399191324365"
    y1="57.35632657877431"
    x2="296.72909122971026"
    y2="66.52686368401339"
    stroke="hsla(0,50%,50%,0.6)"
    stroke-width="1"
    transform="translate(-275.6820740135,-67.5649970979) scale(1,-1) translate(50,-110)"
    />
  
  <line
    x1="312.9059577214854"
    y1="70.10581205763368"
    x2="275.6030109638357"
    y2="85.3297332678776"
    stroke="hsla(0,50%,50%,0.6)"
    stroke-width="1"
    transform="translate(-275.6820740135,-67.5649970979) scale(1,-1) translate(50,-110)"
    />
  
  <line
    x1="320.62060219276714"
    y1="49.4468990345279"
    x2="290.7013268447469"
    y2="69.00405454849337"
    stroke="hsla(0,50%,50%,0.6)"
    stroke-width="1"
    transform="translate(-275.6820740135,-67.5649970979) scale(1,-1) translate(50,-110)"
    />
  
  <line
    x1="327.9266895761741"
    y1="64.82367861233841"
    x2="304.9854840968165"
    y2="76.63640709653528"
    stroke="hsla(0,50%,50%,0.6)"
    stroke-width="1"
    transform="translate(-275.6820740135,-67.5649970979) scale(1,-1) translate(50,-110)"
    />
  
  <line
    x1="300.6860128592455"
    y1="69.22951436543413"
    x2="290.054329139181"
    y2="78.1926870122719"
    stroke="hsla(0,50%,50%,0.6)"
    stroke-width="1"
    transform="translate(-275.6820740135,-67.5649970979) scale(1,-1) translate(50,-110)"
    />
  
</svg>
