<?xml version="1.0"?>
<!DOCTYPE svg PUBLIC "-//W3C//DTD SVG 1.1//EN"
  "http://www.w3.org/Graphics/SVG/1.1/DTD/svg11.dtd">
<svg
  width="240"
  height="240"
  viewBox="-50 -50 200 200" xmlns="http://www.w3.org/2000/svg" version="1.1">
  <rect
    x="0"
    y="0"
    width="100"
    height="100"
    fill="hsla(206,100%,53%,0.3)"
    stroke="hsl(206,100%,53%)"
    stroke-width="3"
    transform="" />
  
  <path
    d="M 
      5
      78
      L
    
      78
      78
      L
    
      78
      156
      L
    
      5
      156
      z
    "
    fill="hsla(0,0%,50%,0.3)"
    stroke="hsla(0,0%,50%,1)"
    stroke-width="1"
    transform="translate(-32.375,-136.5) scale(1,-1) translate(50,-110)"
    />
  
  
  <line
    x1="5"
    y1="78"
    x2="5"
    y2="156"
    stroke="hsla(0,50%,50%,0.6)"
    stroke-width="1"
    transform="translate(-32.375,-136.5) scale(1,-1) translate(50,-110)"
    />
  
  <line
    x1="10"
    y1="78"
    x2="10"
    y2="156"
    stroke="hsla(0,50%,50%,0.6)"
    stroke-width="1"
    transform="translate(-32.375,-136.5) scale(1,-1) translate(50,-110)"
    />
  
  <line
    x1="56"
    y1="78"
    x2="56"
    y2="156"
    stroke="hsla(0,50%,50%,0.6)"
    stroke-width="1"
    transform="translate(-32.375,-136.5) scale(1,-1) translate(50,-110)"
    />
  
  <line
    x1="78"
    y1="78"
    x2="78"
    y2="156"
    stroke="hsla(0,50%,50%,0.6)"
    stroke-width="1"
    transform="translate(-32.375,-136.5) scale(1,-1) translate(50,-110)"
    />
  
  <line
    x1="5"
    y1="78"
    x2="78"
    y2="78"
    stroke="hsla(0,50%,50%,0.6)"
    stroke-width="1"
    transform="translate(-32.375,-136.5) scale(1,-1) translate(50,-110)"
    />
  
  <line
    x1="5"
    y1="80"
    x2="78"
    y2="80"
    stroke="hsla(0,50%,50%,0.6)"
    stroke-width="1"
    transform="translate(-32.375,-136.5) scale(1,-1) translate(50,-110)"
    />
  
  <line
    x1="5"
    y1="90"
    x2="78"
    y2="90"
    stroke="hsla(0,50%,50%,0.6)"
    stroke-width="1"
    transform="translate(-32.375,-136.5) scale(1,-1) translate(50,-110)"
    />
  
  <line
    x1="5"
    y1="156"
    x2="78"
    y2="156"
    stroke="hsla(0,50%,50%,0.6)"
    stroke-width="1"
    transform="translate(-32.375,-136.5) scale(1,-1) translate(50,-110)"
    />
  
</svg>
