<?xml version="1.0"?>
<!DOCTYPE svg PUBLIC "-//W3C//DTD SVG 1.1//EN"
  "http://www.w3.org/Graphics/SVG/1.1/DTD/svg11.dtd">
<svg
  width="240"
  height="240"
  viewBox="-50 -50 200 200" xmlns="http://www.w3.org/2000/svg" version="1.1">
  <rect
    x="0"
    y="0"
    width="100"
    height="100"
    fill="hsla(206,100%,53%,0.3)"
    stroke="hsl(206,100%,53%)"
    stroke-width="3"
    transform="" />
  
  <path
    d="M 
      81.1354388684
      111.9838348049
      L
    
      89.2873901999
      155.4889375811
      L
    
      76.7521367521
      158.4615384615
      L
    
      73.9438339438
      147.4038461538
      L
    
      71.7105511229
      140.4839524892
      L
    
      47.7350427350
      145.7692307692
      L
    
      45
      135
      L
    
      45.6844504801
      134.8261713066
      L
    
      45.1769637359
      132.1179500087
      L
    
      67.6513911620
      127.9065238558
      L
    
      70.3737176355
      129.5261358085
      L
    
      67.1846541367
      115.0590970742
      L
    
      70.6512394222
      114.2949351194
      L
    
      70.5471250842
      113.6219830201
      z
    "
    fill="hsla(0,0%,50%,0.3)"
    stroke="hsla(0,0%,50%,1)"
    stroke-width="1"
    transform="translate(-69.3244081793,-116.0697997718) scale(1,-1) translate(50,-110)"
    />
  
  
  <line
    x1="84.17402269861286"
    y1="137.73644388398486"
    x2="89.28739019991856"
    y2="155.48893758119874"
    stroke="hsla(0,50%,50%,0.6)"
    stroke-width="1"
    transform="translate(-69.3244081793,-116.0697997718) scale(1,-1) translate(50,-110)"
    />
  
  <line
    x1="81.13543886843635"
    y1="111.98383480499349"
    x2="89.28739019991856"
    y2="155.48893758119874"
    stroke="hsla(0,50%,50%,0.6)"
    stroke-width="1"
    transform="translate(-69.3244081793,-116.0697997718) scale(1,-1) translate(50,-110)"
    />
  
  <line
    x1="67.18465413679519"
    y1="115.05909707421043"
    x2="76.75213675213675"
    y2="158.46153846153845"
    stroke="hsla(0,50%,50%,0.6)"
    stroke-width="1"
    transform="translate(-69.3244081793,-116.0697997718) scale(1,-1) translate(50,-110)"
    />
  
  <line
    x1="69.23076923076923"
    y1="128.84615384615384"
    x2="76.75213675213675"
    y2="158.46153846153845"
    stroke="hsla(0,50%,50%,0.6)"
    stroke-width="1"
    transform="translate(-69.3244081793,-116.0697997718) scale(1,-1) translate(50,-110)"
    />
  
  <line
    x1="70.54712508424308"
    y1="113.6219830201467"
    x2="77.4584663842427"
    y2="158.2940399665974"
    stroke="hsla(0,50%,50%,0.6)"
    stroke-width="1"
    transform="translate(-69.3244081793,-116.0697997718) scale(1,-1) translate(50,-110)"
    />
  
  <line
    x1="67.65139116202946"
    y1="127.90652385589094"
    x2="77.4584663842427"
    y2="158.2940399665974"
    stroke="hsla(0,50%,50%,0.6)"
    stroke-width="1"
    transform="translate(-69.3244081793,-116.0697997718) scale(1,-1) translate(50,-110)"
    />
  
  <line
    x1="45.176963735987144"
    y1="132.11795000871265"
    x2="47.73504273504273"
    y2="145.76923076923077"
    stroke="hsla(0,50%,50%,0.6)"
    stroke-width="1"
    transform="translate(-69.3244081793,-116.0697997718) scale(1,-1) translate(50,-110)"
    />
  
  <line
    x1="45"
    y1="135"
    x2="47.73504273504273"
    y2="145.76923076923077"
    stroke="hsla(0,50%,50%,0.6)"
    stroke-width="1"
    transform="translate(-69.3244081793,-116.0697997718) scale(1,-1) translate(50,-110)"
    />
  
  <line
    x1="67.65139116202946"
    y1="127.90652385589094"
    x2="84.17402269861286"
    y2="137.73644388398486"
    stroke="hsla(0,50%,50%,0.6)"
    stroke-width="1"
    transform="translate(-69.3244081793,-116.0697997718) scale(1,-1) translate(50,-110)"
    />
  
  <line
    x1="81.13543886843635"
    y1="111.98383480499349"
    x2="70.54712508424308"
    y2="113.6219830201467"
    stroke="hsla(0,50%,50%,0.6)"
    stroke-width="1"
    transform="translate(-69.3244081793,-116.0697997718) scale(1,-1) translate(50,-110)"
    />
  
  <line
    x1="81.13543886843635"
    y1="111.98383480499349"
    x2="67.18465413679519"
    y2="115.05909707421043"
    stroke="hsla(0,50%,50%,0.6)"
    stroke-width="1"
    transform="translate(-69.3244081793,-116.0697997718) scale(1,-1) translate(50,-110)"
    />
  
  <line
    x1="67.65139116202946"
    y1="127.90652385589094"
    x2="45.176963735987144"
    y2="132.11795000871265"
    stroke="hsla(0,50%,50%,0.6)"
    stroke-width="1"
    transform="translate(-69.3244081793,-116.0697997718) scale(1,-1) translate(50,-110)"
    />
  
  <line
    x1="69.23076923076923"
    y1="128.84615384615384"
    x2="45"
    y2="135"
    stroke="hsla(0,50%,50%,0.6)"
    stroke-width="1"
    transform="translate(-69.3244081793,-116.0697997718) scale(1,-1) translate(50,-110)"
    />
  
  <line
    x1="84.17402269861286"
    y1="137.73644388398486"
    x2="47.73504273504273"
    y2="145.76923076923077"
    stroke="hsla(0,50%,50%,0.6)"
    stroke-width="1"
    transform="translate(-69.3244081793,-116.0697997718) scale(1,-1) translate(50,-110)"
    />
  
  <line
    x1="89.28739019991856"
    y1="155.48893758119874"
    x2="76.75213675213675"
    y2="158.46153846153845"
    stroke="hsla(0,50%,50%,0.6)"
    stroke-width="1"
    transform="translate(-69.3244081793,-116.0697997718) scale(1,-1) translate(50,-110)"
    />
  
</svg>
