<?xml version="1.0"?>
<!DOCTYPE svg PUBLIC "-//W3C//DTD SVG 1.1//EN"
  "http://www.w3.org/Graphics/SVG/1.1/DTD/svg11.dtd">
<svg
  width="240"
  height="240"
  viewBox="-500 -500 1000 1000" xmlns="http://www.w3.org/2000/svg" version="1.1">
  <rect
    x="0"
    y="0"
    width="100"
    height="100"
    fill="hsla(206,100%,53%,0.3)"
    stroke="hsl(206,100%,53%)"
    stroke-width="3"
    transform="" />
  
  <path
    d="M 
      159.2886666628
      231.6088550104
      L
    
      161.7054798689
      241.5151879100
      L
    
      150.1252830957
      254.5071915342
      L
    
      152.2709067284
      259.5493905104
      L
    
      151.5930253048
      259.8405365853
      L
    
      159.3244876205
      302.2491720396
      L
    
      142.9313698673
      305.2377796849
      L
    
      132.5531613595
      292.0437487112
      L
    
      120.1078439430
      296.5518563250
      L
    
      115.4912870549
      307.4639524267
      L
    
      107.3761410837
      308.9434139701
      L
    
      100.3938599364
      270.6441888406
      L
    
      100.8938882754
      270.4800175714
      L
    
      90.1658478667
      246.7317615466
      L
    
      107.2650627122
      239.0073599052
      L
    
      114.8153751935
      245.9017756815
      L
    
      121.4624538204
      241.3558645422
      L
    
      121.4026647034
      240.8517696984
      z
    "
    fill="hsla(0,0%,50%,0.3)"
    stroke="hsla(0,0%,50%,1)"
    stroke-width="1"
    transform="translate(-125.9356638678,-270.2761344902)"
    />
  
  
  <line
    x1="159.28866666281286"
    y1="231.60885501040048"
    x2="161.70547986893033"
    y2="241.5151879100236"
    stroke="hsla(0,50%,50%,0.6)"
    stroke-width="1"
    transform="translate(-125.9356638678,-270.2761344902)"
    />
  
  <line
    x1="151.00936240269928"
    y1="256.6390274486496"
    x2="159.3244876205855"
    y2="302.24917203963673"
    stroke="hsla(0,50%,50%,0.6)"
    stroke-width="1"
    transform="translate(-125.9356638678,-270.2761344902)"
    />
  
  <line
    x1="143.63432827332983"
    y1="239.2534978011431"
    x2="152.27090672844517"
    y2="259.549390510458"
    stroke="hsla(0,50%,50%,0.6)"
    stroke-width="1"
    transform="translate(-125.9356638678,-270.2761344902)"
    />
  
  <line
    x1="151.00936240269928"
    y1="256.6390274486496"
    x2="152.27090672844517"
    y2="259.549390510458"
    stroke="hsla(0,50%,50%,0.6)"
    stroke-width="1"
    transform="translate(-125.9356638678,-270.2761344902)"
    />
  
  <line
    x1="122.19585678601103"
    y1="240.85429311545604"
    x2="134.06841861542023"
    y2="279.463687582002"
    stroke="hsla(0,50%,50%,0.6)"
    stroke-width="1"
    transform="translate(-125.9356638678,-270.2761344902)"
    />
  
  <line
    x1="121.40266470348276"
    y1="240.85176969841632"
    x2="126.20525584626071"
    y2="281.343443698387"
    stroke="hsla(0,50%,50%,0.6)"
    stroke-width="1"
    transform="translate(-125.9356638678,-270.2761344902)"
    />
  
  <line
    x1="100.39385993648504"
    y1="270.64418884065583"
    x2="107.37614108371598"
    y2="308.94341397019423"
    stroke="hsla(0,50%,50%,0.6)"
    stroke-width="1"
    transform="translate(-125.9356638678,-270.2761344902)"
    />
  
  <line
    x1="136.01667052558463"
    y1="258.9483676777032"
    x2="141.8161997375936"
    y2="270.55703480744"
    stroke="hsla(0,50%,50%,0.6)"
    stroke-width="1"
    transform="translate(-125.9356638678,-270.2761344902)"
    />
  
  <line
    x1="113.62854055722775"
    y1="267.9844871498032"
    x2="116.82982171799027"
    y2="274.77112757582773"
    stroke="hsla(0,50%,50%,0.6)"
    stroke-width="1"
    transform="translate(-125.9356638678,-270.2761344902)"
    />
  
  <line
    x1="90.16584786675536"
    y1="246.73176154668462"
    x2="108.08732517316936"
    y2="286.40385590892447"
    stroke="hsla(0,50%,50%,0.6)"
    stroke-width="1"
    transform="translate(-125.9356638678,-270.2761344902)"
    />
  
  <line
    x1="100.39385993648504"
    y1="270.64418884065583"
    x2="108.08732517316936"
    y2="286.40385590892447"
    stroke="hsla(0,50%,50%,0.6)"
    stroke-width="1"
    transform="translate(-125.9356638678,-270.2761344902)"
    />
  
  <line
    x1="110.51227294333589"
    y1="300.02769106958397"
    x2="115.49128705491046"
    y2="307.46395242678045"
    stroke="hsla(0,50%,50%,0.6)"
    stroke-width="1"
    transform="translate(-125.9356638678,-270.2761344902)"
    />
  
  <line
    x1="113.62854055722775"
    y1="267.9844871498032"
    x2="142.93136986739097"
    y2="305.23777968496967"
    stroke="hsla(0,50%,50%,0.6)"
    stroke-width="1"
    transform="translate(-125.9356638678,-270.2761344902)"
    />
  
  <line
    x1="124.91687890715444"
    y1="256.06498417843636"
    x2="151.90876295515102"
    y2="285.0325064903537"
    stroke="hsla(0,50%,50%,0.6)"
    stroke-width="1"
    transform="translate(-125.9356638678,-270.2761344902)"
    />
  
  <line
    x1="107.26506271223838"
    y1="239.00735990525033"
    x2="101.789507806127"
    y2="254.81011556738773"
    stroke="hsla(0,50%,50%,0.6)"
    stroke-width="1"
    transform="translate(-125.9356638678,-270.2761344902)"
    />
  
  <line
    x1="124.91687890715444"
    y1="256.06498417843636"
    x2="110.51227294333589"
    y2="300.02769106958397"
    stroke="hsla(0,50%,50%,0.6)"
    stroke-width="1"
    transform="translate(-125.9356638678,-270.2761344902)"
    />
  
  <line
    x1="107.26506271223838"
    y1="239.00735990525033"
    x2="141.8161997375936"
    y2="270.55703480744"
    stroke="hsla(0,50%,50%,0.6)"
    stroke-width="1"
    transform="translate(-125.9356638678,-270.2761344902)"
    />
  
  <line
    x1="136.01667052558463"
    y1="258.9483676777032"
    x2="115.49128705491046"
    y2="307.46395242678045"
    stroke="hsla(0,50%,50%,0.6)"
    stroke-width="1"
    transform="translate(-125.9356638678,-270.2761344902)"
    />
  
  <line
    x1="151.90876295515102"
    y1="285.0325064903537"
    x2="142.93136986739097"
    y2="305.23777968496967"
    stroke="hsla(0,50%,50%,0.6)"
    stroke-width="1"
    transform="translate(-125.9356638678,-270.2761344902)"
    />
  
  <line
    x1="101.789507806127"
    y1="254.81011556738773"
    x2="134.06841861542023"
    y2="279.463687582002"
    stroke="hsla(0,50%,50%,0.6)"
    stroke-width="1"
    transform="translate(-125.9356638678,-270.2761344902)"
    />
  
  <line
    x1="116.82982171799027"
    y1="274.77112757582773"
    x2="126.20525584626071"
    y2="281.343443698387"
    stroke="hsla(0,50%,50%,0.6)"
    stroke-width="1"
    transform="translate(-125.9356638678,-270.2761344902)"
    />
  
  <line
    x1="143.63432827332983"
    y1="239.2534978011431"
    x2="116.82982171799027"
    y2="274.77112757582773"
    stroke="hsla(0,50%,50%,0.6)"
    stroke-width="1"
    transform="translate(-125.9356638678,-270.2761344902)"
    />
  
  <line
    x1="124.91687890715444"
    y1="256.06498417843636"
    x2="113.62854055722775"
    y2="267.9844871498032"
    stroke="hsla(0,50%,50%,0.6)"
    stroke-width="1"
    transform="translate(-125.9356638678,-270.2761344902)"
    />
  
  <line
    x1="141.8161997375936"
    y1="270.55703480744"
    x2="134.06841861542023"
    y2="279.463687582002"
    stroke="hsla(0,50%,50%,0.6)"
    stroke-width="1"
    transform="translate(-125.9356638678,-270.2761344902)"
    />
  
  <line
    x1="161.70547986893033"
    y1="241.5151879100236"
    x2="126.20525584626071"
    y2="281.343443698387"
    stroke="hsla(0,50%,50%,0.6)"
    stroke-width="1"
    transform="translate(-125.9356638678,-270.2761344902)"
    />
  
  <line
    x1="124.91687890715444"
    y1="256.06498417843636"
    x2="136.01667052558463"
    y2="258.9483676777032"
    stroke="hsla(0,50%,50%,0.6)"
    stroke-width="1"
    transform="translate(-125.9356638678,-270.2761344902)"
    />
  
  <line
    x1="143.63432827332983"
    y1="239.2534978011431"
    x2="161.70547986893033"
    y2="241.5151879100236"
    stroke="hsla(0,50%,50%,0.6)"
    stroke-width="1"
    transform="translate(-125.9356638678,-270.2761344902)"
    />
  
  <line
    x1="122.19585678601103"
    y1="240.85429311545604"
    x2="101.789507806127"
    y2="254.81011556738773"
    stroke="hsla(0,50%,50%,0.6)"
    stroke-width="1"
    transform="translate(-125.9356638678,-270.2761344902)"
    />
  
  <line
    x1="107.26506271223838"
    y1="239.00735990525033"
    x2="90.16584786675536"
    y2="246.73176154668462"
    stroke="hsla(0,50%,50%,0.6)"
    stroke-width="1"
    transform="translate(-125.9356638678,-270.2761344902)"
    />
  
  <line
    x1="121.40266470348276"
    y1="240.85176969841632"
    x2="122.19585678601103"
    y2="240.85429311545604"
    stroke="hsla(0,50%,50%,0.6)"
    stroke-width="1"
    transform="translate(-125.9356638678,-270.2761344902)"
    />
  
  <line
    x1="159.28866666281286"
    y1="231.60885501040048"
    x2="121.40266470348276"
    y2="240.85176969841632"
    stroke="hsla(0,50%,50%,0.6)"
    stroke-width="1"
    transform="translate(-125.9356638678,-270.2761344902)"
    />
  
  <line
    x1="136.01667052558463"
    y1="258.9483676777032"
    x2="100.39385993648504"
    y2="270.64418884065583"
    stroke="hsla(0,50%,50%,0.6)"
    stroke-width="1"
    transform="translate(-125.9356638678,-270.2761344902)"
    />
  
  <line
    x1="152.27090672844517"
    y1="259.549390510458"
    x2="116.82982171799027"
    y2="274.77112757582773"
    stroke="hsla(0,50%,50%,0.6)"
    stroke-width="1"
    transform="translate(-125.9356638678,-270.2761344902)"
    />
  
  <line
    x1="141.8161997375936"
    y1="270.55703480744"
    x2="108.08732517316936"
    y2="286.40385590892447"
    stroke="hsla(0,50%,50%,0.6)"
    stroke-width="1"
    transform="translate(-125.9356638678,-270.2761344902)"
    />
  
  <line
    x1="151.00936240269928"
    y1="256.6390274486496"
    x2="113.62854055722775"
    y2="267.9844871498032"
    stroke="hsla(0,50%,50%,0.6)"
    stroke-width="1"
    transform="translate(-125.9356638678,-270.2761344902)"
    />
  
  <line
    x1="134.06841861542023"
    y1="279.463687582002"
    x2="126.20525584626071"
    y2="281.343443698387"
    stroke="hsla(0,50%,50%,0.6)"
    stroke-width="1"
    transform="translate(-125.9356638678,-270.2761344902)"
    />
  
  <line
    x1="151.90876295515102"
    y1="285.0325064903537"
    x2="110.51227294333589"
    y2="300.02769106958397"
    stroke="hsla(0,50%,50%,0.6)"
    stroke-width="1"
    transform="translate(-125.9356638678,-270.2761344902)"
    />
  
  <line
    x1="115.49128705491046"
    y1="307.46395242678045"
    x2="107.37614108371598"
    y2="308.94341397019423"
    stroke="hsla(0,50%,50%,0.6)"
    stroke-width="1"
    transform="translate(-125.9356638678,-270.2761344902)"
    />
  
  <line
    x1="159.3244876205855"
    y1="302.24917203963673"
    x2="142.93136986739097"
    y2="305.23777968496967"
    stroke="hsla(0,50%,50%,0.6)"
    stroke-width="1"
    transform="translate(-125.9356638678,-270.2761344902)"
    />
  
</svg>
