<?xml version="1.0"?>
<!DOCTYPE svg PUBLIC "-//W3C//DTD SVG 1.1//EN"
  "http://www.w3.org/Graphics/SVG/1.1/DTD/svg11.dtd">
<svg
  width="240"
  height="240"
  viewBox="-500 -500 1000 1000" xmlns="http://www.w3.org/2000/svg" version="1.1">
  <rect
    x="0"
    y="0"
    width="100"
    height="100"
    fill="hsla(206,100%,53%,0.3)"
    stroke="hsl(206,100%,53%)"
    stroke-width="3"
    transform="" />
  
  <path
    d="M 
      0.0000000000
      5
      L
    
      78
      5
      L
    
      78
      66.6666666666
      L
    
      0.0000000000
      66.6666666666
      z
    "
    fill="hsla(0,0%,50%,0.3)"
    stroke="hsla(0,0%,50%,1)"
    stroke-width="1"
    transform="translate(-39.0000000000,-35.8333333333)"
    />
  
  
  <line
    x1="6.251755729513357e-25"
    y1="5"
    x2="6.251755729513357e-25"
    y2="66.66666666666667"
    stroke="hsla(0,50%,50%,0.6)"
    stroke-width="1"
    transform="translate(-39.0000000000,-35.8333333333)"
    />
  
  <line
    x1="1.2503511459026714e-24"
    y1="5"
    x2="1.2503511459026714e-24"
    y2="66.66666666666667"
    stroke="hsla(0,50%,50%,0.6)"
    stroke-width="1"
    transform="translate(-39.0000000000,-35.8333333333)"
    />
  
  <line
    x1="56"
    y1="5"
    x2="56"
    y2="66.66666666666667"
    stroke="hsla(0,50%,50%,0.6)"
    stroke-width="1"
    transform="translate(-39.0000000000,-35.8333333333)"
    />
  
  <line
    x1="78"
    y1="5"
    x2="78"
    y2="66.66666666666667"
    stroke="hsla(0,50%,50%,0.6)"
    stroke-width="1"
    transform="translate(-39.0000000000,-35.8333333333)"
    />
  
  <line
    x1="6.251755729513357e-25"
    y1="5"
    x2="78"
    y2="5"
    stroke="hsla(0,50%,50%,0.6)"
    stroke-width="1"
    transform="translate(-39.0000000000,-35.8333333333)"
    />
  
  <line
    x1="6.251755729513357e-25"
    y1="10"
    x2="78"
    y2="10"
    stroke="hsla(0,50%,50%,0.6)"
    stroke-width="1"
    transform="translate(-39.0000000000,-35.8333333333)"
    />
  
  <line
    x1="6.251755729513357e-25"
    y1="33.333333333333336"
    x2="78"
    y2="33.333333333333336"
    stroke="hsla(0,50%,50%,0.6)"
    stroke-width="1"
    transform="translate(-39.0000000000,-35.8333333333)"
    />
  
  <line
    x1="6.251755729513357e-25"
    y1="66.66666666666667"
    x2="78"
    y2="66.66666666666667"
    stroke="hsla(0,50%,50%,0.6)"
    stroke-width="1"
    transform="translate(-39.0000000000,-35.8333333333)"
    />
  
</svg>
