<?xml version="1.0"?>
<!DOCTYPE svg PUBLIC "-//W3C//DTD SVG 1.1//EN"
  "http://www.w3.org/Graphics/SVG/1.1/DTD/svg11.dtd">
<svg
  width="240"
  height="240"
  viewBox="-50 -50 200 200" xmlns="http://www.w3.org/2000/svg" version="1.1">
  <rect
    x="0"
    y="0"
    width="100"
    height="100"
    fill="hsla(206,100%,53%,0.3)"
    stroke="hsl(206,100%,53%)"
    stroke-width="3"
    transform="" />
  
  <path
    d="M 
      -18.0423814292
      119.2201717493
      L
    
      -7.9428419072
      122.4610131202
      L
    
      -5.3280221165
      138.3238204419
      L
    
      5.0582232132
      140.5953591430
      L
    
      17.6995444391
      134.8300498850
      L
    
      22.6709712205
      137.4470146284
      L
    
      15.8131828077
      150.4746998739
      L
    
      14.6015238044
      174.6831118478
      L
    
      -19.5653336665
      172.9730211359
      L
    
      -22.2836239706
      176.6602453982
      L
    
      -29.3738183494
      172.4820951392
      L
    
      -29.3412380665
      172.3734152138
      L
    
      -35.2881753005
      172.9638009049
      L
    
      -44.4765061822
      156.4758875395
      L
    
      -57.6011664239
      144.5390495674
      L
    
      -53.5877638412
      140.1262774887
      L
    
      -25.7799652795
      143.3330563237
      L
    
      -24.7821465528
      140.2235213256
      L
    
      -25.2490906396
      135.2724802201
      L
    
      -22.5529408037
      133.2765748421
      z
    "
    fill="hsla(0,0%,50%,0.3)"
    stroke="hsla(0,0%,50%,1)"
    stroke-width="1"
    transform="translate(25.4556838263,-136.1505572547) scale(1,-1) translate(50,-110)"
    />
  
  
  <line
    x1="0.08672699849170437"
    y1="146.315987933635"
    x2="-0.19230769230769232"
    y2="169.47963800904978"
    stroke="hsla(0,50%,50%,0.6)"
    stroke-width="1"
    transform="translate(25.4556838263,-136.1505572547) scale(1,-1) translate(50,-110)"
    />
  
  <line
    x1="16.185846591438466"
    y1="143.02904199500338"
    x2="14.601523804441555"
    y2="174.68311184786734"
    stroke="hsla(0,50%,50%,0.6)"
    stroke-width="1"
    transform="translate(25.4556838263,-136.1505572547) scale(1,-1) translate(50,-110)"
    />
  
  <line
    x1="-25.24909063965649"
    y1="135.27248022018847"
    x2="-21.91553544494721"
    y2="170.6184012066365"
    stroke="hsla(0,50%,50%,0.6)"
    stroke-width="1"
    transform="translate(25.4556838263,-136.1505572547) scale(1,-1) translate(50,-110)"
    />
  
  <line
    x1="-7.9428419072764305"
    y1="122.46101312027967"
    x2="-0.19230769230769232"
    y2="169.47963800904978"
    stroke="hsla(0,50%,50%,0.6)"
    stroke-width="1"
    transform="translate(25.4556838263,-136.1505572547) scale(1,-1) translate(50,-110)"
    />
  
  <line
    x1="-18.042381429221667"
    y1="119.22017174935519"
    x2="-35.2881753005859"
    y2="172.96380090497738"
    stroke="hsla(0,50%,50%,0.6)"
    stroke-width="1"
    transform="translate(25.4556838263,-136.1505572547) scale(1,-1) translate(50,-110)"
    />
  
  <line
    x1="-18.284313725490197"
    y1="135.49019607843138"
    x2="-29.373818349477578"
    y2="172.48209513929595"
    stroke="hsla(0,50%,50%,0.6)"
    stroke-width="1"
    transform="translate(25.4556838263,-136.1505572547) scale(1,-1) translate(50,-110)"
    />
  
  <line
    x1="17.69954443918962"
    y1="134.8300498850053"
    x2="13.242038582358914"
    y2="153.82703661500292"
    stroke="hsla(0,50%,50%,0.6)"
    stroke-width="1"
    transform="translate(25.4556838263,-136.1505572547) scale(1,-1) translate(50,-110)"
    />
  
  <line
    x1="-18.284313725490197"
    y1="135.49019607843138"
    x2="-28.254147812971343"
    y2="155.78808446455506"
    stroke="hsla(0,50%,50%,0.6)"
    stroke-width="1"
    transform="translate(25.4556838263,-136.1505572547) scale(1,-1) translate(50,-110)"
    />
  
  <line
    x1="16.185846591438466"
    y1="143.02904199500338"
    x2="4.946288096066005"
    y2="171.11845196667505"
    stroke="hsla(0,50%,50%,0.6)"
    stroke-width="1"
    transform="translate(25.4556838263,-136.1505572547) scale(1,-1) translate(50,-110)"
    />
  
  <line
    x1="-28.254147812971343"
    y1="155.78808446455506"
    x2="-21.91553544494721"
    y2="170.6184012066365"
    stroke="hsla(0,50%,50%,0.6)"
    stroke-width="1"
    transform="translate(25.4556838263,-136.1505572547) scale(1,-1) translate(50,-110)"
    />
  
  <line
    x1="-53.58776384124732"
    y1="140.12627748871208"
    x2="-57.60116642396411"
    y2="144.5390495674352"
    stroke="hsla(0,50%,50%,0.6)"
    stroke-width="1"
    transform="translate(25.4556838263,-136.1505572547) scale(1,-1) translate(50,-110)"
    />
  
  <line
    x1="22.670971220562638"
    y1="137.44701462848963"
    x2="4.946288096066005"
    y2="171.11845196667505"
    stroke="hsla(0,50%,50%,0.6)"
    stroke-width="1"
    transform="translate(25.4556838263,-136.1505572547) scale(1,-1) translate(50,-110)"
    />
  
  <line
    x1="0.08672699849170437"
    y1="146.315987933635"
    x2="-22.28362397060206"
    y2="176.66024539827617"
    stroke="hsla(0,50%,50%,0.6)"
    stroke-width="1"
    transform="translate(25.4556838263,-136.1505572547) scale(1,-1) translate(50,-110)"
    />
  
  <line
    x1="-53.58776384124732"
    y1="140.12627748871208"
    x2="-35.2881753005859"
    y2="172.96380090497738"
    stroke="hsla(0,50%,50%,0.6)"
    stroke-width="1"
    transform="translate(25.4556838263,-136.1505572547) scale(1,-1) translate(50,-110)"
    />
  
  <line
    x1="-7.9428419072764305"
    y1="122.46101312027967"
    x2="-25.24909063965649"
    y2="135.27248022018847"
    stroke="hsla(0,50%,50%,0.6)"
    stroke-width="1"
    transform="translate(25.4556838263,-136.1505572547) scale(1,-1) translate(50,-110)"
    />
  
  <line
    x1="17.69954443918962"
    y1="134.8300498850053"
    x2="22.670971220562638"
    y2="137.44701462848963"
    stroke="hsla(0,50%,50%,0.6)"
    stroke-width="1"
    transform="translate(25.4556838263,-136.1505572547) scale(1,-1) translate(50,-110)"
    />
  
  <line
    x1="-57.60116642396411"
    y1="144.5390495674352"
    x2="-22.28362397060206"
    y2="176.66024539827617"
    stroke="hsla(0,50%,50%,0.6)"
    stroke-width="1"
    transform="translate(25.4556838263,-136.1505572547) scale(1,-1) translate(50,-110)"
    />
  
  <line
    x1="-18.284313725490197"
    y1="135.49019607843138"
    x2="0.08672699849170437"
    y2="146.315987933635"
    stroke="hsla(0,50%,50%,0.6)"
    stroke-width="1"
    transform="translate(25.4556838263,-136.1505572547) scale(1,-1) translate(50,-110)"
    />
  
  <line
    x1="-18.042381429221667"
    y1="119.22017174935519"
    x2="-7.9428419072764305"
    y2="122.46101312027967"
    stroke="hsla(0,50%,50%,0.6)"
    stroke-width="1"
    transform="translate(25.4556838263,-136.1505572547) scale(1,-1) translate(50,-110)"
    />
  
  <line
    x1="17.69954443918962"
    y1="134.8300498850053"
    x2="-28.254147812971343"
    y2="155.78808446455506"
    stroke="hsla(0,50%,50%,0.6)"
    stroke-width="1"
    transform="translate(25.4556838263,-136.1505572547) scale(1,-1) translate(50,-110)"
    />
  
  <line
    x1="-25.24909063965649"
    y1="135.27248022018847"
    x2="13.242038582358914"
    y2="153.82703661500292"
    stroke="hsla(0,50%,50%,0.6)"
    stroke-width="1"
    transform="translate(25.4556838263,-136.1505572547) scale(1,-1) translate(50,-110)"
    />
  
  <line
    x1="13.242038582358914"
    y1="153.82703661500292"
    x2="-21.91553544494721"
    y2="170.6184012066365"
    stroke="hsla(0,50%,50%,0.6)"
    stroke-width="1"
    transform="translate(25.4556838263,-136.1505572547) scale(1,-1) translate(50,-110)"
    />
  
  <line
    x1="-18.284313725490197"
    y1="135.49019607843138"
    x2="16.185846591438466"
    y2="143.02904199500338"
    stroke="hsla(0,50%,50%,0.6)"
    stroke-width="1"
    transform="translate(25.4556838263,-136.1505572547) scale(1,-1) translate(50,-110)"
    />
  
  <line
    x1="-28.254147812971343"
    y1="155.78808446455506"
    x2="4.946288096066005"
    y2="171.11845196667505"
    stroke="hsla(0,50%,50%,0.6)"
    stroke-width="1"
    transform="translate(25.4556838263,-136.1505572547) scale(1,-1) translate(50,-110)"
    />
  
  <line
    x1="-29.373818349477578"
    y1="172.48209513929595"
    x2="-22.28362397060206"
    y2="176.66024539827617"
    stroke="hsla(0,50%,50%,0.6)"
    stroke-width="1"
    transform="translate(25.4556838263,-136.1505572547) scale(1,-1) translate(50,-110)"
    />
  
  <line
    x1="-53.58776384124732"
    y1="140.12627748871208"
    x2="0.08672699849170437"
    y2="146.315987933635"
    stroke="hsla(0,50%,50%,0.6)"
    stroke-width="1"
    transform="translate(25.4556838263,-136.1505572547) scale(1,-1) translate(50,-110)"
    />
  
  <line
    x1="-0.19230769230769232"
    y1="169.47963800904978"
    x2="-35.2881753005859"
    y2="172.96380090497738"
    stroke="hsla(0,50%,50%,0.6)"
    stroke-width="1"
    transform="translate(25.4556838263,-136.1505572547) scale(1,-1) translate(50,-110)"
    />
  
  <line
    x1="-0.19230769230769232"
    y1="169.47963800904978"
    x2="-21.91553544494721"
    y2="170.6184012066365"
    stroke="hsla(0,50%,50%,0.6)"
    stroke-width="1"
    transform="translate(25.4556838263,-136.1505572547) scale(1,-1) translate(50,-110)"
    />
  
  <line
    x1="-29.373818349477578"
    y1="172.48209513929595"
    x2="14.601523804441555"
    y2="174.68311184786734"
    stroke="hsla(0,50%,50%,0.6)"
    stroke-width="1"
    transform="translate(25.4556838263,-136.1505572547) scale(1,-1) translate(50,-110)"
    />
  
</svg>
