<?xml version="1.0"?>
<!DOCTYPE svg PUBLIC "-//W3C//DTD SVG 1.1//EN"
  "http://www.w3.org/Graphics/SVG/1.1/DTD/svg11.dtd">
<svg
  width="240"
  height="240"
  viewBox="-500 -500 1000 1000" xmlns="http://www.w3.org/2000/svg" version="1.1">
  <rect
    x="0"
    y="0"
    width="100"
    height="100"
    fill="hsla(206,100%,53%,0.3)"
    stroke="hsl(206,100%,53%)"
    stroke-width="3"
    transform="" />
  
  <path
    d="M 
      3.0877192982
      33.2105263157
      L
    
      32
      34.3333333333
      L
    
      50
      39.5833333333
      L
    
      50
      42.3398328690
      L
    
      52.4615384615
      44.3076923076
      L
    
      50
      46.6216216216
      L
    
      46.4824120603
      45.1005025125
      L
    
      28.72
      72.96
      L
    
      14.6666666666
      64
      L
    
      5.5873015873
      39.8571428571
      L
    
      -0.6274509803
      41.1568627450
      z
    "
    fill="hsla(0,0%,50%,0.3)"
    stroke="hsla(0,0%,50%,1)"
    stroke-width="1"
    transform="translate(-25.9170437405,-53.0852631578)"
    />
  
  
  <line
    x1="40"
    y1="36.666666666666664"
    x2="46.25"
    y2="45"
    stroke="hsla(0,50%,50%,0.6)"
    stroke-width="1"
    transform="translate(-25.9170437405,-53.0852631578)"
    />
  
  <line
    x1="23.416666666666668"
    y1="34"
    x2="23.84313725490196"
    y2="36.03921568627451"
    stroke="hsla(0,50%,50%,0.6)"
    stroke-width="1"
    transform="translate(-25.9170437405,-53.0852631578)"
    />
  
  <line
    x1="20.06855791962175"
    y1="33.86997635933806"
    x2="28.72"
    y2="72.96"
    stroke="hsla(0,50%,50%,0.6)"
    stroke-width="1"
    transform="translate(-25.9170437405,-53.0852631578)"
    />
  
  <line
    x1="15.469135802469136"
    y1="33.69135802469136"
    x2="16.8515406162465"
    y2="37.50140056022409"
    stroke="hsla(0,50%,50%,0.6)"
    stroke-width="1"
    transform="translate(-25.9170437405,-53.0852631578)"
    />
  
  <line
    x1="16.70409982174688"
    y1="35.21033868092692"
    x2="16.8515406162465"
    y2="37.50140056022409"
    stroke="hsla(0,50%,50%,0.6)"
    stroke-width="1"
    transform="translate(-25.9170437405,-53.0852631578)"
    />
  
  <line
    x1="35.294117647058826"
    y1="35.294117647058826"
    x2="44.04761904761905"
    y2="44.04761904761905"
    stroke="hsla(0,50%,50%,0.6)"
    stroke-width="1"
    transform="translate(-25.9170437405,-53.0852631578)"
    />
  
  <line
    x1="50"
    y1="39.583333333333336"
    x2="50"
    y2="46.62162162162162"
    stroke="hsla(0,50%,50%,0.6)"
    stroke-width="1"
    transform="translate(-25.9170437405,-53.0852631578)"
    />
  
  <line
    x1="17.35812060673326"
    y1="34.98594154642989"
    x2="17.306184012066364"
    y2="36.09653092006033"
    stroke="hsla(0,50%,50%,0.6)"
    stroke-width="1"
    transform="translate(-25.9170437405,-53.0852631578)"
    />
  
  <line
    x1="44.57142857142857"
    y1="38"
    x2="52.46153846153846"
    y2="44.30769230769231"
    stroke="hsla(0,50%,50%,0.6)"
    stroke-width="1"
    transform="translate(-25.9170437405,-53.0852631578)"
    />
  
  <line
    x1="3.087719298245614"
    y1="33.21052631578947"
    x2="14.666666666666666"
    y2="64"
    stroke="hsla(0,50%,50%,0.6)"
    stroke-width="1"
    transform="translate(-25.9170437405,-53.0852631578)"
    />
  
  <line
    x1="16.70409982174688"
    y1="35.21033868092692"
    x2="17.306184012066364"
    y2="36.09653092006033"
    stroke="hsla(0,50%,50%,0.6)"
    stroke-width="1"
    transform="translate(-25.9170437405,-53.0852631578)"
    />
  
  <line
    x1="3.763239875389408"
    y1="33.23676012461059"
    x2="7.743589743589744"
    y2="41.94871794871795"
    stroke="hsla(0,50%,50%,0.6)"
    stroke-width="1"
    transform="translate(-25.9170437405,-53.0852631578)"
    />
  
  <line
    x1="17.35812060673326"
    y1="34.98594154642989"
    x2="19.106894370651485"
    y2="37.029728020240356"
    stroke="hsla(0,50%,50%,0.6)"
    stroke-width="1"
    transform="translate(-25.9170437405,-53.0852631578)"
    />
  
  <line
    x1="3.087719298245614"
    y1="33.21052631578947"
    x2="-0.6274509803921569"
    y2="41.15686274509804"
    stroke="hsla(0,50%,50%,0.6)"
    stroke-width="1"
    transform="translate(-25.9170437405,-53.0852631578)"
    />
  
  <line
    x1="16.55638166047088"
    y1="33.73358116480793"
    x2="19.506577314470093"
    y2="36.94614048150906"
    stroke="hsla(0,50%,50%,0.6)"
    stroke-width="1"
    transform="translate(-25.9170437405,-53.0852631578)"
    />
  
  <line
    x1="20.06855791962175"
    y1="33.86997635933806"
    x2="19.106894370651485"
    y2="37.029728020240356"
    stroke="hsla(0,50%,50%,0.6)"
    stroke-width="1"
    transform="translate(-25.9170437405,-53.0852631578)"
    />
  
  <line
    x1="23.416666666666668"
    y1="34"
    x2="14.666666666666666"
    y2="64"
    stroke="hsla(0,50%,50%,0.6)"
    stroke-width="1"
    transform="translate(-25.9170437405,-53.0852631578)"
    />
  
  <line
    x1="3.763239875389408"
    y1="33.23676012461059"
    x2="-0.6274509803921569"
    y2="41.15686274509804"
    stroke="hsla(0,50%,50%,0.6)"
    stroke-width="1"
    transform="translate(-25.9170437405,-53.0852631578)"
    />
  
  <line
    x1="20.555555555555557"
    y1="33.888888888888886"
    x2="19.506577314470093"
    y2="36.94614048150906"
    stroke="hsla(0,50%,50%,0.6)"
    stroke-width="1"
    transform="translate(-25.9170437405,-53.0852631578)"
    />
  
  <line
    x1="15.469135802469136"
    y1="33.69135802469136"
    x2="8.8"
    y2="48.4"
    stroke="hsla(0,50%,50%,0.6)"
    stroke-width="1"
    transform="translate(-25.9170437405,-53.0852631578)"
    />
  
  <line
    x1="20.555555555555557"
    y1="33.888888888888886"
    x2="23.84313725490196"
    y2="36.03921568627451"
    stroke="hsla(0,50%,50%,0.6)"
    stroke-width="1"
    transform="translate(-25.9170437405,-53.0852631578)"
    />
  
  <line
    x1="20.555555555555557"
    y1="33.888888888888886"
    x2="50"
    y2="46.62162162162162"
    stroke="hsla(0,50%,50%,0.6)"
    stroke-width="1"
    transform="translate(-25.9170437405,-53.0852631578)"
    />
  
  <line
    x1="32"
    y1="34.333333333333336"
    x2="50"
    y2="39.583333333333336"
    stroke="hsla(0,50%,50%,0.6)"
    stroke-width="1"
    transform="translate(-25.9170437405,-53.0852631578)"
    />
  
  <line
    x1="16.55638166047088"
    y1="33.73358116480793"
    x2="7.743589743589744"
    y2="41.94871794871795"
    stroke="hsla(0,50%,50%,0.6)"
    stroke-width="1"
    transform="translate(-25.9170437405,-53.0852631578)"
    />
  
  <line
    x1="3.087719298245614"
    y1="33.21052631578947"
    x2="32"
    y2="34.333333333333336"
    stroke="hsla(0,50%,50%,0.6)"
    stroke-width="1"
    transform="translate(-25.9170437405,-53.0852631578)"
    />
  
  <line
    x1="50"
    y1="39.583333333333336"
    x2="28.72"
    y2="72.96"
    stroke="hsla(0,50%,50%,0.6)"
    stroke-width="1"
    transform="translate(-25.9170437405,-53.0852631578)"
    />
  
  <line
    x1="20.555555555555557"
    y1="33.888888888888886"
    x2="6.285714285714286"
    y2="41.714285714285715"
    stroke="hsla(0,50%,50%,0.6)"
    stroke-width="1"
    transform="translate(-25.9170437405,-53.0852631578)"
    />
  
  <line
    x1="20.555555555555557"
    y1="33.888888888888886"
    x2="-0.6274509803921569"
    y2="41.15686274509804"
    stroke="hsla(0,50%,50%,0.6)"
    stroke-width="1"
    transform="translate(-25.9170437405,-53.0852631578)"
    />
  
  <line
    x1="17.306184012066364"
    y1="36.09653092006033"
    x2="-0.6274509803921569"
    y2="41.15686274509804"
    stroke="hsla(0,50%,50%,0.6)"
    stroke-width="1"
    transform="translate(-25.9170437405,-53.0852631578)"
    />
  
  <line
    x1="14.666666666666666"
    y1="64"
    x2="28.72"
    y2="72.96"
    stroke="hsla(0,50%,50%,0.6)"
    stroke-width="1"
    transform="translate(-25.9170437405,-53.0852631578)"
    />
  
  <line
    x1="32"
    y1="34.333333333333336"
    x2="-0.6274509803921569"
    y2="41.15686274509804"
    stroke="hsla(0,50%,50%,0.6)"
    stroke-width="1"
    transform="translate(-25.9170437405,-53.0852631578)"
    />
  
  <line
    x1="35.294117647058826"
    y1="35.294117647058826"
    x2="6.285714285714286"
    y2="41.714285714285715"
    stroke="hsla(0,50%,50%,0.6)"
    stroke-width="1"
    transform="translate(-25.9170437405,-53.0852631578)"
    />
  
  <line
    x1="44.57142857142857"
    y1="38"
    x2="7.743589743589744"
    y2="41.94871794871795"
    stroke="hsla(0,50%,50%,0.6)"
    stroke-width="1"
    transform="translate(-25.9170437405,-53.0852631578)"
    />
  
  <line
    x1="44.04761904761905"
    y1="44.04761904761905"
    x2="52.46153846153846"
    y2="44.30769230769231"
    stroke="hsla(0,50%,50%,0.6)"
    stroke-width="1"
    transform="translate(-25.9170437405,-53.0852631578)"
    />
  
  <line
    x1="40"
    y1="36.666666666666664"
    x2="8.8"
    y2="48.4"
    stroke="hsla(0,50%,50%,0.6)"
    stroke-width="1"
    transform="translate(-25.9170437405,-53.0852631578)"
    />
  
  <line
    x1="52.46153846153846"
    y1="44.30769230769231"
    x2="46.25"
    y2="45"
    stroke="hsla(0,50%,50%,0.6)"
    stroke-width="1"
    transform="translate(-25.9170437405,-53.0852631578)"
    />
  
  <line
    x1="52.46153846153846"
    y1="44.30769230769231"
    x2="50"
    y2="46.62162162162162"
    stroke="hsla(0,50%,50%,0.6)"
    stroke-width="1"
    transform="translate(-25.9170437405,-53.0852631578)"
    />
  
</svg>
