<?xml version="1.0"?>
<!DOCTYPE svg PUBLIC "-//W3C//DTD SVG 1.1//EN"
  "http://www.w3.org/Graphics/SVG/1.1/DTD/svg11.dtd">
<svg
  width="240"
  height="240"
  viewBox="-50 -50 200 200" xmlns="http://www.w3.org/2000/svg" version="1.1">
  <rect
    x="0"
    y="0"
    width="100"
    height="100"
    fill="hsla(206,100%,53%,0.3)"
    stroke="hsl(206,100%,53%)"
    stroke-width="3"
    transform="" />
  
  <path
    d="M 
      289.1691964888
      26.4512353564
      L
    
      296.0501802224
      33.5351024689
      L
    
      297.7926550334
      32.6263105072
      L
    
      301.0689516721
      34.3778719713
      L
    
      308.4510494397
      32.5585840084
      L
    
      324.1082469530
      27.0753742323
      L
    
      331.0950911388
      47.0261701856
      L
    
      328.9429635869
      48.7392149996
      L
    
      329.4946640814
      49.5747201007
      L
    
      327.7578164493
      53.4822477855
      L
    
      331.5314643083
      54.3192896794
      L
    
      331.7340861370
      57.1715083387
      L
    
      338.2307825838
      61.4670462024
      L
    
      336.4309766566
      72.2112787429
      L
    
      318.1315427612
      69.1458732369
      L
    
      315.3841964792
      72.4655864781
      L
    
      305.1767663996
      71.6829289711
      L
    
      302.4136065731
      77.5962777384
      L
    
      291.1178663243
      78.8226354784
      L
    
      288.5867887316
      55.5093769535
      L
    
      290.7527301030
      54.2952769627
      L
    
      287.5023356173
      51.8975036044
      L
    
      288.1882260214
      41.4267129641
      L
    
      284.7518269643
      39.4277859995
      L
    
      284.2862852648
      26.6288436879
      z
    "
    fill="hsla(0,0%,50%,0.3)"
    stroke="hsla(0,0%,50%,1)"
    stroke-width="1"
    transform="translate(-285.5975439775,-35.3526177884) scale(1,-1) translate(50,-110)"
    />
  
  
  <line
    x1="321.30370647324946"
    y1="37.17018732857278"
    x2="329.4946640814654"
    y2="49.57472010072827"
    stroke="hsla(0,50%,50%,0.6)"
    stroke-width="1"
    transform="translate(-285.5975439775,-35.3526177884) scale(1,-1) translate(50,-110)"
    />
  
  <line
    x1="289.16919648884556"
    y1="26.45123535640258"
    x2="323.88640779185977"
    y2="62.19207139254075"
    stroke="hsla(0,50%,50%,0.6)"
    stroke-width="1"
    transform="translate(-285.5975439775,-35.3526177884) scale(1,-1) translate(50,-110)"
    />
  
  <line
    x1="292.222359331158"
    y1="59.9049219316498"
    x2="300.5628354653362"
    y2="71.32915454853558"
    stroke="hsla(0,50%,50%,0.6)"
    stroke-width="1"
    transform="translate(-285.5975439775,-35.3526177884) scale(1,-1) translate(50,-110)"
    />
  
  <line
    x1="321.75985507951367"
    y1="41.133237088560236"
    x2="331.0950911388361"
    y2="47.02617018566548"
    stroke="hsla(0,50%,50%,0.6)"
    stroke-width="1"
    transform="translate(-285.5975439775,-35.3526177884) scale(1,-1) translate(50,-110)"
    />
  
  <line
    x1="293.4439782900058"
    y1="64.15337305995014"
    x2="302.4136065731921"
    y2="77.5962777384958"
    stroke="hsla(0,50%,50%,0.6)"
    stroke-width="1"
    transform="translate(-285.5975439775,-35.3526177884) scale(1,-1) translate(50,-110)"
    />
  
  <line
    x1="298.2944666445979"
    y1="35.06163251915256"
    x2="338.2307825838146"
    y2="61.467046202403296"
    stroke="hsla(0,50%,50%,0.6)"
    stroke-width="1"
    transform="translate(-285.5975439775,-35.3526177884) scale(1,-1) translate(50,-110)"
    />
  
  <line
    x1="288.58678873164973"
    y1="55.50937695351838"
    x2="301.3457688169946"
    y2="65.35334362709656"
    stroke="hsla(0,50%,50%,0.6)"
    stroke-width="1"
    transform="translate(-285.5975439775,-35.3526177884) scale(1,-1) translate(50,-110)"
    />
  
  <line
    x1="287.50233561730863"
    y1="51.89750360448243"
    x2="315.38419647923956"
    y2="72.46558647813613"
    stroke="hsla(0,50%,50%,0.6)"
    stroke-width="1"
    transform="translate(-285.5975439775,-35.3526177884) scale(1,-1) translate(50,-110)"
    />
  
  <line
    x1="297.7926550334703"
    y1="32.62631050722229"
    x2="329.4946640814654"
    y2="49.57472010072827"
    stroke="hsla(0,50%,50%,0.6)"
    stroke-width="1"
    transform="translate(-285.5975439775,-35.3526177884) scale(1,-1) translate(50,-110)"
    />
  
  <line
    x1="324.108246953"
    y1="27.07537423239816"
    x2="331.0950911388361"
    y2="47.02617018566548"
    stroke="hsla(0,50%,50%,0.6)"
    stroke-width="1"
    transform="translate(-285.5975439775,-35.3526177884) scale(1,-1) translate(50,-110)"
    />
  
  <line
    x1="284.7518269643045"
    y1="39.4277859995981"
    x2="323.88640779185977"
    y2="62.19207139254075"
    stroke="hsla(0,50%,50%,0.6)"
    stroke-width="1"
    transform="translate(-285.5975439775,-35.3526177884) scale(1,-1) translate(50,-110)"
    />
  
  <line
    x1="293.9982074032914"
    y1="45.993947830953054"
    x2="332.3079663788627"
    y2="65.24976893034874"
    stroke="hsla(0,50%,50%,0.6)"
    stroke-width="1"
    transform="translate(-285.5975439775,-35.3526177884) scale(1,-1) translate(50,-110)"
    />
  
  <line
    x1="301.83429342944197"
    y1="34.8757969842618"
    x2="316.03778977316995"
    y2="40.991516662568095"
    stroke="hsla(0,50%,50%,0.6)"
    stroke-width="1"
    transform="translate(-285.5975439775,-35.3526177884) scale(1,-1) translate(50,-110)"
    />
  
  <line
    x1="308.9149740691699"
    y1="32.44425167092279"
    x2="321.30370647324946"
    y2="37.17018732857278"
    stroke="hsla(0,50%,50%,0.6)"
    stroke-width="1"
    transform="translate(-285.5975439775,-35.3526177884) scale(1,-1) translate(50,-110)"
    />
  
  <line
    x1="308.9149740691699"
    y1="32.44425167092279"
    x2="313.5465135024963"
    y2="62.65194361606701"
    stroke="hsla(0,50%,50%,0.6)"
    stroke-width="1"
    transform="translate(-285.5975439775,-35.3526177884) scale(1,-1) translate(50,-110)"
    />
  
  <line
    x1="321.75985507951367"
    y1="41.133237088560236"
    x2="324.90307735670405"
    y2="66.23973685923288"
    stroke="hsla(0,50%,50%,0.6)"
    stroke-width="1"
    transform="translate(-285.5975439775,-35.3526177884) scale(1,-1) translate(50,-110)"
    />
  
  <line
    x1="297.7926550334703"
    y1="32.62631050722229"
    x2="301.3457688169946"
    y2="65.35334362709656"
    stroke="hsla(0,50%,50%,0.6)"
    stroke-width="1"
    transform="translate(-285.5975439775,-35.3526177884) scale(1,-1) translate(50,-110)"
    />
  
  <line
    x1="288.58678873164973"
    y1="55.50937695351838"
    x2="291.1178663243087"
    y2="78.82263547848432"
    stroke="hsla(0,50%,50%,0.6)"
    stroke-width="1"
    transform="translate(-285.5975439775,-35.3526177884) scale(1,-1) translate(50,-110)"
    />
  
  <line
    x1="331.5314643083597"
    y1="54.31928967941743"
    x2="332.3079663788627"
    y2="65.24976893034874"
    stroke="hsla(0,50%,50%,0.6)"
    stroke-width="1"
    transform="translate(-285.5975439775,-35.3526177884) scale(1,-1) translate(50,-110)"
    />
  
  <line
    x1="293.9982074032914"
    y1="45.993947830953054"
    x2="331.5314643083597"
    y2="54.31928967941743"
    stroke="hsla(0,50%,50%,0.6)"
    stroke-width="1"
    transform="translate(-285.5975439775,-35.3526177884) scale(1,-1) translate(50,-110)"
    />
  
  <line
    x1="284.28628526483715"
    y1="26.628843687952354"
    x2="284.7518269643045"
    y2="39.4277859995981"
    stroke="hsla(0,50%,50%,0.6)"
    stroke-width="1"
    transform="translate(-285.5975439775,-35.3526177884) scale(1,-1) translate(50,-110)"
    />
  
  <line
    x1="298.2944666445979"
    y1="35.06163251915256"
    x2="299.28064316343364"
    y2="65.98808968199776"
    stroke="hsla(0,50%,50%,0.6)"
    stroke-width="1"
    transform="translate(-285.5975439775,-35.3526177884) scale(1,-1) translate(50,-110)"
    />
  
  <line
    x1="292.222359331158"
    y1="59.9049219316498"
    x2="324.90307735670405"
    y2="66.23973685923288"
    stroke="hsla(0,50%,50%,0.6)"
    stroke-width="1"
    transform="translate(-285.5975439775,-35.3526177884) scale(1,-1) translate(50,-110)"
    />
  
  <line
    x1="316.03778977316995"
    y1="40.991516662568095"
    x2="315.38419647923956"
    y2="72.46558647813613"
    stroke="hsla(0,50%,50%,0.6)"
    stroke-width="1"
    transform="translate(-285.5975439775,-35.3526177884) scale(1,-1) translate(50,-110)"
    />
  
  <line
    x1="301.83429342944197"
    y1="34.8757969842618"
    x2="300.5628354653362"
    y2="71.32915454853558"
    stroke="hsla(0,50%,50%,0.6)"
    stroke-width="1"
    transform="translate(-285.5975439775,-35.3526177884) scale(1,-1) translate(50,-110)"
    />
  
  <line
    x1="299.28064316343364"
    y1="65.98808968199776"
    x2="336.43097665669916"
    y2="72.21127874299924"
    stroke="hsla(0,50%,50%,0.6)"
    stroke-width="1"
    transform="translate(-285.5975439775,-35.3526177884) scale(1,-1) translate(50,-110)"
    />
  
  <line
    x1="289.16919648884556"
    y1="26.45123535640258"
    x2="287.50233561730863"
    y2="51.89750360448243"
    stroke="hsla(0,50%,50%,0.6)"
    stroke-width="1"
    transform="translate(-285.5975439775,-35.3526177884) scale(1,-1) translate(50,-110)"
    />
  
  <line
    x1="289.16919648884556"
    y1="26.45123535640258"
    x2="284.28628526483715"
    y2="26.628843687952354"
    stroke="hsla(0,50%,50%,0.6)"
    stroke-width="1"
    transform="translate(-285.5975439775,-35.3526177884) scale(1,-1) translate(50,-110)"
    />
  
  <line
    x1="293.9982074032914"
    y1="45.993947830953054"
    x2="292.222359331158"
    y2="59.9049219316498"
    stroke="hsla(0,50%,50%,0.6)"
    stroke-width="1"
    transform="translate(-285.5975439775,-35.3526177884) scale(1,-1) translate(50,-110)"
    />
  
  <line
    x1="300.5628354653362"
    y1="71.32915454853558"
    x2="315.38419647923956"
    y2="72.46558647813613"
    stroke="hsla(0,50%,50%,0.6)"
    stroke-width="1"
    transform="translate(-285.5975439775,-35.3526177884) scale(1,-1) translate(50,-110)"
    />
  
  <line
    x1="338.2307825838146"
    y1="61.467046202403296"
    x2="336.43097665669916"
    y2="72.21127874299924"
    stroke="hsla(0,50%,50%,0.6)"
    stroke-width="1"
    transform="translate(-285.5975439775,-35.3526177884) scale(1,-1) translate(50,-110)"
    />
  
  <line
    x1="313.5465135024963"
    y1="62.65194361606701"
    x2="293.4439782900058"
    y2="64.15337305995014"
    stroke="hsla(0,50%,50%,0.6)"
    stroke-width="1"
    transform="translate(-285.5975439775,-35.3526177884) scale(1,-1) translate(50,-110)"
    />
  
  <line
    x1="308.9149740691699"
    y1="32.44425167092279"
    x2="298.2944666445979"
    y2="35.06163251915256"
    stroke="hsla(0,50%,50%,0.6)"
    stroke-width="1"
    transform="translate(-285.5975439775,-35.3526177884) scale(1,-1) translate(50,-110)"
    />
  
  <line
    x1="298.2944666445979"
    y1="35.06163251915256"
    x2="293.9982074032914"
    y2="45.993947830953054"
    stroke="hsla(0,50%,50%,0.6)"
    stroke-width="1"
    transform="translate(-285.5975439775,-35.3526177884) scale(1,-1) translate(50,-110)"
    />
  
  <line
    x1="302.4136065731921"
    y1="77.5962777384958"
    x2="291.1178663243087"
    y2="78.82263547848432"
    stroke="hsla(0,50%,50%,0.6)"
    stroke-width="1"
    transform="translate(-285.5975439775,-35.3526177884) scale(1,-1) translate(50,-110)"
    />
  
  <line
    x1="324.108246953"
    y1="27.07537423239816"
    x2="301.83429342944197"
    y2="34.8757969842618"
    stroke="hsla(0,50%,50%,0.6)"
    stroke-width="1"
    transform="translate(-285.5975439775,-35.3526177884) scale(1,-1) translate(50,-110)"
    />
  
  <line
    x1="308.9149740691699"
    y1="32.44425167092279"
    x2="293.4439782900058"
    y2="64.15337305995014"
    stroke="hsla(0,50%,50%,0.6)"
    stroke-width="1"
    transform="translate(-285.5975439775,-35.3526177884) scale(1,-1) translate(50,-110)"
    />
  
  <line
    x1="313.5465135024963"
    y1="62.65194361606701"
    x2="299.28064316343364"
    y2="65.98808968199776"
    stroke="hsla(0,50%,50%,0.6)"
    stroke-width="1"
    transform="translate(-285.5975439775,-35.3526177884) scale(1,-1) translate(50,-110)"
    />
  
  <line
    x1="321.30370647324946"
    y1="37.17018732857278"
    x2="302.4136065731921"
    y2="77.5962777384958"
    stroke="hsla(0,50%,50%,0.6)"
    stroke-width="1"
    transform="translate(-285.5975439775,-35.3526177884) scale(1,-1) translate(50,-110)"
    />
  
  <line
    x1="329.4946640814654"
    y1="49.57472010072827"
    x2="323.88640779185977"
    y2="62.19207139254075"
    stroke="hsla(0,50%,50%,0.6)"
    stroke-width="1"
    transform="translate(-285.5975439775,-35.3526177884) scale(1,-1) translate(50,-110)"
    />
  
  <line
    x1="316.03778977316995"
    y1="40.991516662568095"
    x2="287.50233561730863"
    y2="51.89750360448243"
    stroke="hsla(0,50%,50%,0.6)"
    stroke-width="1"
    transform="translate(-285.5975439775,-35.3526177884) scale(1,-1) translate(50,-110)"
    />
  
  <line
    x1="297.7926550334703"
    y1="32.62631050722229"
    x2="284.7518269643045"
    y2="39.4277859995981"
    stroke="hsla(0,50%,50%,0.6)"
    stroke-width="1"
    transform="translate(-285.5975439775,-35.3526177884) scale(1,-1) translate(50,-110)"
    />
  
  <line
    x1="331.5314643083597"
    y1="54.31928967941743"
    x2="324.90307735670405"
    y2="66.23973685923288"
    stroke="hsla(0,50%,50%,0.6)"
    stroke-width="1"
    transform="translate(-285.5975439775,-35.3526177884) scale(1,-1) translate(50,-110)"
    />
  
  <line
    x1="321.30370647324946"
    y1="37.17018732857278"
    x2="288.58678873164973"
    y2="55.50937695351838"
    stroke="hsla(0,50%,50%,0.6)"
    stroke-width="1"
    transform="translate(-285.5975439775,-35.3526177884) scale(1,-1) translate(50,-110)"
    />
  
  <line
    x1="321.75985507951367"
    y1="41.133237088560236"
    x2="292.222359331158"
    y2="59.9049219316498"
    stroke="hsla(0,50%,50%,0.6)"
    stroke-width="1"
    transform="translate(-285.5975439775,-35.3526177884) scale(1,-1) translate(50,-110)"
    />
  
  <line
    x1="329.4946640814654"
    y1="49.57472010072827"
    x2="301.3457688169946"
    y2="65.35334362709656"
    stroke="hsla(0,50%,50%,0.6)"
    stroke-width="1"
    transform="translate(-285.5975439775,-35.3526177884) scale(1,-1) translate(50,-110)"
    />
  
  <line
    x1="323.88640779185977"
    y1="62.19207139254075"
    x2="315.38419647923956"
    y2="72.46558647813613"
    stroke="hsla(0,50%,50%,0.6)"
    stroke-width="1"
    transform="translate(-285.5975439775,-35.3526177884) scale(1,-1) translate(50,-110)"
    />
  
  <line
    x1="331.0950911388361"
    y1="47.02617018566548"
    x2="300.5628354653362"
    y2="71.32915454853558"
    stroke="hsla(0,50%,50%,0.6)"
    stroke-width="1"
    transform="translate(-285.5975439775,-35.3526177884) scale(1,-1) translate(50,-110)"
    />
  
  <line
    x1="338.2307825838146"
    y1="61.467046202403296"
    x2="332.3079663788627"
    y2="65.24976893034874"
    stroke="hsla(0,50%,50%,0.6)"
    stroke-width="1"
    transform="translate(-285.5975439775,-35.3526177884) scale(1,-1) translate(50,-110)"
    />
  
</svg>
