<?xml version="1.0"?>
<!DOCTYPE svg PUBLIC "-//W3C//DTD SVG 1.1//EN"
  "http://www.w3.org/Graphics/SVG/1.1/DTD/svg11.dtd">
<svg
  width="240"
  height="240"
  viewBox="-50 -50 200 200" xmlns="http://www.w3.org/2000/svg" version="1.1">
  <rect
    x="0"
    y="0"
    width="100"
    height="100"
    fill="hsla(206,100%,53%,0.3)"
    stroke="hsl(206,100%,53%)"
    stroke-width="3"
    transform="" />
  
  <path
    d="M 
      254.1746195987
      144.0866124791
      L
    
      280.2917854337
      150.6429135279
      L
    
      289.7641324863
      148.5695461032
      L
    
      290.4972255372
      149.2153280643
      L
    
      295.4045183879
      145.1175089563
      L
    
      302.1033006490
      147.1951387929
      L
    
      299.1207039416
      156.8117536315
      L
    
      301.2292270864
      158.6691525111
      L
    
      295.7223910141
      176.4245269990
      L
    
      294.2285937649
      177.9116353101
      L
    
      294.6368380354
      180.5947675080
      L
    
      290.7337323718
      184.0998230600
      L
    
      291.0561466189
      184.5793060270
      L
    
      278.4681229522
      203.4396378622
      L
    
      273.1501101384
      199.8902161582
      L
    
      272.2472656939
      187.3008845720
      L
    
      270.2010541822
      187.3012475256
      L
    
      268.1690546367
      184.8678514729
      L
    
      261.2135677499
      183.1580160451
      L
    
      262.4707448123
      178.0439106582
      L
    
      259.8016503245
      174.8475693964
      L
    
      259.9580266562
      163.6765276935
      L
    
      251.3191088406
      155.4616008238
      z
    "
    fill="hsla(0,0%,50%,0.3)"
    stroke="hsla(0,0%,50%,1)"
    stroke-width="1"
    transform="translate(-256.1467874655,-163.2079885044) scale(1,-1) translate(50,-110)"
    />
  
  
  <line
    x1="269.7832942042996"
    y1="152.94307876444321"
    x2="291.05614661893014"
    y2="184.5793060270957"
    stroke="hsla(0,50%,50%,0.6)"
    stroke-width="1"
    transform="translate(-256.1467874655,-163.2079885044) scale(1,-1) translate(50,-110)"
    />
  
  <line
    x1="269.29947884242904"
    y1="168.98278904571154"
    x2="277.58499412552743"
    y2="187.18252867465367"
    stroke="hsla(0,50%,50%,0.6)"
    stroke-width="1"
    transform="translate(-256.1467874655,-163.2079885044) scale(1,-1) translate(50,-110)"
    />
  
  <line
    x1="259.98406067301937"
    y1="161.81673801961054"
    x2="276.65439462293546"
    y2="187.52400828328183"
    stroke="hsla(0,50%,50%,0.6)"
    stroke-width="1"
    transform="translate(-256.1467874655,-163.2079885044) scale(1,-1) translate(50,-110)"
    />
  
  <line
    x1="291.14174930501594"
    y1="167.31190504594844"
    x2="293.3811004111204"
    y2="175.3176268329562"
    stroke="hsla(0,50%,50%,0.6)"
    stroke-width="1"
    transform="translate(-256.1467874655,-163.2079885044) scale(1,-1) translate(50,-110)"
    />
  
  <line
    x1="289.76413248630485"
    y1="148.56954610320858"
    x2="301.22922708649816"
    y2="158.66915251116328"
    stroke="hsla(0,50%,50%,0.6)"
    stroke-width="1"
    transform="translate(-256.1467874655,-163.2079885044) scale(1,-1) translate(50,-110)"
    />
  
  <line
    x1="259.8016503245408"
    y1="174.8475693964922"
    x2="270.2010541822032"
    y2="187.30124752566405"
    stroke="hsla(0,50%,50%,0.6)"
    stroke-width="1"
    transform="translate(-256.1467874655,-163.2079885044) scale(1,-1) translate(50,-110)"
    />
  
  <line
    x1="251.31910884060014"
    y1="155.46160082389207"
    x2="284.79934861667357"
    y2="187.2986581043134"
    stroke="hsla(0,50%,50%,0.6)"
    stroke-width="1"
    transform="translate(-256.1467874655,-163.2079885044) scale(1,-1) translate(50,-110)"
    />
  
  <line
    x1="264.9528622258522"
    y1="157.38354005560558"
    x2="270.2010541822032"
    y2="187.30124752566405"
    stroke="hsla(0,50%,50%,0.6)"
    stroke-width="1"
    transform="translate(-256.1467874655,-163.2079885044) scale(1,-1) translate(50,-110)"
    />
  
  <line
    x1="289.76413248630485"
    y1="148.56954610320858"
    x2="294.6368380354296"
    y2="180.59476750809245"
    stroke="hsla(0,50%,50%,0.6)"
    stroke-width="1"
    transform="translate(-256.1467874655,-163.2079885044) scale(1,-1) translate(50,-110)"
    />
  
  <line
    x1="264.58059817872766"
    y1="151.41369522952044"
    x2="295.7223910141325"
    y2="176.42452699903328"
    stroke="hsla(0,50%,50%,0.6)"
    stroke-width="1"
    transform="translate(-256.1467874655,-163.2079885044) scale(1,-1) translate(50,-110)"
    />
  
  <line
    x1="295.40451838793797"
    y1="145.1175089563515"
    x2="296.7222204207254"
    y2="155.91441629418588"
    stroke="hsla(0,50%,50%,0.6)"
    stroke-width="1"
    transform="translate(-256.1467874655,-163.2079885044) scale(1,-1) translate(50,-110)"
    />
  
  <line
    x1="269.7832942042996"
    y1="152.94307876444321"
    x2="273.15011013849636"
    y2="199.8902161582798"
    stroke="hsla(0,50%,50%,0.6)"
    stroke-width="1"
    transform="translate(-256.1467874655,-163.2079885044) scale(1,-1) translate(50,-110)"
    />
  
  <line
    x1="283.81276380146596"
    y1="151.52679941013247"
    x2="284.79934861667357"
    y2="187.2986581043134"
    stroke="hsla(0,50%,50%,0.6)"
    stroke-width="1"
    transform="translate(-256.1467874655,-163.2079885044) scale(1,-1) translate(50,-110)"
    />
  
  <line
    x1="259.98406067301937"
    y1="161.81673801961054"
    x2="259.8016503245408"
    y2="174.8475693964922"
    stroke="hsla(0,50%,50%,0.6)"
    stroke-width="1"
    transform="translate(-256.1467874655,-163.2079885044) scale(1,-1) translate(50,-110)"
    />
  
  <line
    x1="273.15011013849636"
    y1="199.8902161582798"
    x2="278.46812295226727"
    y2="203.43963786223162"
    stroke="hsla(0,50%,50%,0.6)"
    stroke-width="1"
    transform="translate(-256.1467874655,-163.2079885044) scale(1,-1) translate(50,-110)"
    />
  
  <line
    x1="264.58059817872766"
    y1="151.41369522952044"
    x2="263.1013329382662"
    y2="170.15944742763836"
    stroke="hsla(0,50%,50%,0.6)"
    stroke-width="1"
    transform="translate(-256.1467874655,-163.2079885044) scale(1,-1) translate(50,-110)"
    />
  
  <line
    x1="269.29947884242904"
    y1="168.98278904571154"
    x2="294.6368380354296"
    y2="180.59476750809245"
    stroke="hsla(0,50%,50%,0.6)"
    stroke-width="1"
    transform="translate(-256.1467874655,-163.2079885044) scale(1,-1) translate(50,-110)"
    />
  
  <line
    x1="295.40451838793797"
    y1="145.1175089563515"
    x2="302.10330064908163"
    y2="147.19513879298438"
    stroke="hsla(0,50%,50%,0.6)"
    stroke-width="1"
    transform="translate(-256.1467874655,-163.2079885044) scale(1,-1) translate(50,-110)"
    />
  
  <line
    x1="254.174619598722"
    y1="144.08661247919923"
    x2="251.31910884060014"
    y2="155.46160082389207"
    stroke="hsla(0,50%,50%,0.6)"
    stroke-width="1"
    transform="translate(-256.1467874655,-163.2079885044) scale(1,-1) translate(50,-110)"
    />
  
  <line
    x1="269.40614413836244"
    y1="149.8312076794493"
    x2="301.22922708649816"
    y2="158.66915251116328"
    stroke="hsla(0,50%,50%,0.6)"
    stroke-width="1"
    transform="translate(-256.1467874655,-163.2079885044) scale(1,-1) translate(50,-110)"
    />
  
  <line
    x1="269.40614413836244"
    y1="149.8312076794493"
    x2="261.21356774998736"
    y2="183.15801604516844"
    stroke="hsla(0,50%,50%,0.6)"
    stroke-width="1"
    transform="translate(-256.1467874655,-163.2079885044) scale(1,-1) translate(50,-110)"
    />
  
  <line
    x1="254.174619598722"
    y1="144.08661247919923"
    x2="283.81276380146596"
    y2="151.52679941013247"
    stroke="hsla(0,50%,50%,0.6)"
    stroke-width="1"
    transform="translate(-256.1467874655,-163.2079885044) scale(1,-1) translate(50,-110)"
    />
  
  <line
    x1="269.40614413836244"
    y1="149.8312076794493"
    x2="263.1013329382662"
    y2="170.15944742763836"
    stroke="hsla(0,50%,50%,0.6)"
    stroke-width="1"
    transform="translate(-256.1467874655,-163.2079885044) scale(1,-1) translate(50,-110)"
    />
  
  <line
    x1="302.10330064908163"
    y1="147.19513879298438"
    x2="293.3811004111204"
    y2="175.3176268329562"
    stroke="hsla(0,50%,50%,0.6)"
    stroke-width="1"
    transform="translate(-256.1467874655,-163.2079885044) scale(1,-1) translate(50,-110)"
    />
  
  <line
    x1="301.22922708649816"
    y1="158.66915251116328"
    x2="295.7223910141325"
    y2="176.42452699903328"
    stroke="hsla(0,50%,50%,0.6)"
    stroke-width="1"
    transform="translate(-256.1467874655,-163.2079885044) scale(1,-1) translate(50,-110)"
    />
  
  <line
    x1="261.21356774998736"
    y1="183.15801604516844"
    x2="277.58499412552743"
    y2="187.18252867465367"
    stroke="hsla(0,50%,50%,0.6)"
    stroke-width="1"
    transform="translate(-256.1467874655,-163.2079885044) scale(1,-1) translate(50,-110)"
    />
  
  <line
    x1="259.98406067301937"
    y1="161.81673801961054"
    x2="291.14174930501594"
    y2="167.31190504594844"
    stroke="hsla(0,50%,50%,0.6)"
    stroke-width="1"
    transform="translate(-256.1467874655,-163.2079885044) scale(1,-1) translate(50,-110)"
    />
  
  <line
    x1="263.1013329382662"
    y1="170.15944742763836"
    x2="295.7223910141325"
    y2="176.42452699903328"
    stroke="hsla(0,50%,50%,0.6)"
    stroke-width="1"
    transform="translate(-256.1467874655,-163.2079885044) scale(1,-1) translate(50,-110)"
    />
  
  <line
    x1="296.7222204207254"
    y1="155.91441629418588"
    x2="264.9528622258522"
    y2="157.38354005560558"
    stroke="hsla(0,50%,50%,0.6)"
    stroke-width="1"
    transform="translate(-256.1467874655,-163.2079885044) scale(1,-1) translate(50,-110)"
    />
  
  <line
    x1="259.8016503245408"
    y1="174.8475693964922"
    x2="293.3811004111204"
    y2="175.3176268329562"
    stroke="hsla(0,50%,50%,0.6)"
    stroke-width="1"
    transform="translate(-256.1467874655,-163.2079885044) scale(1,-1) translate(50,-110)"
    />
  
  <line
    x1="284.79934861667357"
    y1="187.2986581043134"
    x2="270.2010541822032"
    y2="187.30124752566405"
    stroke="hsla(0,50%,50%,0.6)"
    stroke-width="1"
    transform="translate(-256.1467874655,-163.2079885044) scale(1,-1) translate(50,-110)"
    />
  
  <line
    x1="291.05614661893014"
    y1="184.5793060270957"
    x2="278.46812295226727"
    y2="203.43963786223162"
    stroke="hsla(0,50%,50%,0.6)"
    stroke-width="1"
    transform="translate(-256.1467874655,-163.2079885044) scale(1,-1) translate(50,-110)"
    />
  
  <line
    x1="291.14174930501594"
    y1="167.31190504594844"
    x2="276.65439462293546"
    y2="187.52400828328183"
    stroke="hsla(0,50%,50%,0.6)"
    stroke-width="1"
    transform="translate(-256.1467874655,-163.2079885044) scale(1,-1) translate(50,-110)"
    />
  
  <line
    x1="289.76413248630485"
    y1="148.56954610320858"
    x2="269.7832942042996"
    y2="152.94307876444321"
    stroke="hsla(0,50%,50%,0.6)"
    stroke-width="1"
    transform="translate(-256.1467874655,-163.2079885044) scale(1,-1) translate(50,-110)"
    />
  
  <line
    x1="296.7222204207254"
    y1="155.91441629418588"
    x2="270.2010541822032"
    y2="187.30124752566405"
    stroke="hsla(0,50%,50%,0.6)"
    stroke-width="1"
    transform="translate(-256.1467874655,-163.2079885044) scale(1,-1) translate(50,-110)"
    />
  
  <line
    x1="264.58059817872766"
    y1="151.41369522952044"
    x2="251.31910884060014"
    y2="155.46160082389207"
    stroke="hsla(0,50%,50%,0.6)"
    stroke-width="1"
    transform="translate(-256.1467874655,-163.2079885044) scale(1,-1) translate(50,-110)"
    />
  
  <line
    x1="301.22922708649816"
    y1="158.66915251116328"
    x2="277.58499412552743"
    y2="187.18252867465367"
    stroke="hsla(0,50%,50%,0.6)"
    stroke-width="1"
    transform="translate(-256.1467874655,-163.2079885044) scale(1,-1) translate(50,-110)"
    />
  
  <line
    x1="269.7832942042996"
    y1="152.94307876444321"
    x2="259.98406067301937"
    y2="161.81673801961054"
    stroke="hsla(0,50%,50%,0.6)"
    stroke-width="1"
    transform="translate(-256.1467874655,-163.2079885044) scale(1,-1) translate(50,-110)"
    />
  
  <line
    x1="283.81276380146596"
    y1="151.52679941013247"
    x2="264.9528622258522"
    y2="157.38354005560558"
    stroke="hsla(0,50%,50%,0.6)"
    stroke-width="1"
    transform="translate(-256.1467874655,-163.2079885044) scale(1,-1) translate(50,-110)"
    />
  
  <line
    x1="289.76413248630485"
    y1="148.56954610320858"
    x2="269.29947884242904"
    y2="168.98278904571154"
    stroke="hsla(0,50%,50%,0.6)"
    stroke-width="1"
    transform="translate(-256.1467874655,-163.2079885044) scale(1,-1) translate(50,-110)"
    />
  
  <line
    x1="295.40451838793797"
    y1="145.1175089563515"
    x2="259.8016503245408"
    y2="174.8475693964922"
    stroke="hsla(0,50%,50%,0.6)"
    stroke-width="1"
    transform="translate(-256.1467874655,-163.2079885044) scale(1,-1) translate(50,-110)"
    />
  
  <line
    x1="291.05614661893014"
    y1="184.5793060270957"
    x2="276.65439462293546"
    y2="187.52400828328183"
    stroke="hsla(0,50%,50%,0.6)"
    stroke-width="1"
    transform="translate(-256.1467874655,-163.2079885044) scale(1,-1) translate(50,-110)"
    />
  
  <line
    x1="295.7223910141325"
    y1="176.42452699903328"
    x2="284.79934861667357"
    y2="187.2986581043134"
    stroke="hsla(0,50%,50%,0.6)"
    stroke-width="1"
    transform="translate(-256.1467874655,-163.2079885044) scale(1,-1) translate(50,-110)"
    />
  
  <line
    x1="294.6368380354296"
    y1="180.59476750809245"
    x2="273.15011013849636"
    y2="199.8902161582798"
    stroke="hsla(0,50%,50%,0.6)"
    stroke-width="1"
    transform="translate(-256.1467874655,-163.2079885044) scale(1,-1) translate(50,-110)"
    />
  
</svg>
