<?xml version="1.0"?>
<!DOCTYPE svg PUBLIC "-//W3C//DTD SVG 1.1//EN"
  "http://www.w3.org/Graphics/SVG/1.1/DTD/svg11.dtd">
<svg
  width="240"
  height="240"
  viewBox="-50 -50 200 200" xmlns="http://www.w3.org/2000/svg" version="1.1">
  <rect
    x="0"
    y="0"
    width="100"
    height="100"
    fill="hsla(206,100%,53%,0.3)"
    stroke="hsl(206,100%,53%)"
    stroke-width="3"
    transform="" />
  
  <path
    d="M 
      0
      -62.5
      L
    
      37.5
      -62.5
      L
    
      37.5
      -37.5
      L
    
      0
      -37.5
      L
    
      0
      0
      L
    
      -25
      0
      L
    
      -25
      -37.5
      z
    "
    fill="hsla(0,0%,50%,0.3)"
    stroke="hsla(0,0%,50%,1)"
    stroke-width="1"
    transform="translate(16.9921875,24.21875) scale(1,-1) translate(50,-110)"
    />
  
  
  <line
    x1="0"
    y1="-62.5"
    x2="37.5"
    y2="-62.5"
    stroke="hsla(0,50%,50%,0.6)"
    stroke-width="1"
    transform="translate(16.9921875,24.21875) scale(1,-1) translate(50,-110)"
    />
  
  <line
    x1="-25"
    y1="-37.5"
    x2="37.5"
    y2="-37.5"
    stroke="hsla(0,50%,50%,0.6)"
    stroke-width="1"
    transform="translate(16.9921875,24.21875) scale(1,-1) translate(50,-110)"
    />
  
  <line
    x1="0"
    y1="-62.5"
    x2="-25"
    y2="-37.5"
    stroke="hsla(0,50%,50%,0.6)"
    stroke-width="1"
    transform="translate(16.9921875,24.21875) scale(1,-1) translate(50,-110)"
    />
  
  <line
    x1="-25"
    y1="-37.5"
    x2="-25"
    y2="0"
    stroke="hsla(0,50%,50%,0.6)"
    stroke-width="1"
    transform="translate(16.9921875,24.21875) scale(1,-1) translate(50,-110)"
    />
  
  <line
    x1="-25"
    y1="0"
    x2="0"
    y2="0"
    stroke="hsla(0,50%,50%,0.6)"
    stroke-width="1"
    transform="translate(16.9921875,24.21875) scale(1,-1) translate(50,-110)"
    />
  
  <line
    x1="0"
    y1="-62.5"
    x2="0"
    y2="0"
    stroke="hsla(0,50%,50%,0.6)"
    stroke-width="1"
    transform="translate(16.9921875,24.21875) scale(1,-1) translate(50,-110)"
    />
  
  <line
    x1="37.5"
    y1="-62.5"
    x2="37.5"
    y2="-37.5"
    stroke="hsla(0,50%,50%,0.6)"
    stroke-width="1"
    transform="translate(16.9921875,24.21875) scale(1,-1) translate(50,-110)"
    />
  
</svg>
