<?xml version="1.0"?>
<!DOCTYPE svg PUBLIC "-//W3C//DTD SVG 1.1//EN"
  "http://www.w3.org/Graphics/SVG/1.1/DTD/svg11.dtd">
<svg
  width="240"
  height="240"
  viewBox="-500 -500 1000 1000" xmlns="http://www.w3.org/2000/svg" version="1.1">
  <rect
    x="0"
    y="0"
    width="100"
    height="100"
    fill="hsla(206,100%,53%,0.3)"
    stroke="hsl(206,100%,53%)"
    stroke-width="3"
    transform="" />
  
  <path
    d="M 
      16
      49.8571428571
      L
    
      47
      66.8571428571
      L
    
      54
      90.8571428571
      L
    
      37
      121.8571428571
      L
    
      30
      97.8571428571
      L
    
      38.5
      82.3571428571
      L
    
      7.5
      65.3571428571
      L
    
      -1
      80.8571428571
      L
    
      -25
      87.8571428571
      L
    
      -8
      56.8571428571
      z
    "
    fill="hsla(0,0%,50%,0.3)"
    stroke="hsla(0,0%,50%,1)"
    stroke-width="1"
    transform="translate(-14.5,-85.8571428571)"
    />
  
  
  <line
    x1="47"
    y1="66.85714285714286"
    x2="54"
    y2="90.85714285714286"
    stroke="hsla(0,50%,50%,0.6)"
    stroke-width="1"
    transform="translate(-14.5,-85.8571428571)"
    />
  
  <line
    x1="16"
    y1="49.857142857142854"
    x2="23"
    y2="73.85714285714286"
    stroke="hsla(0,50%,50%,0.6)"
    stroke-width="1"
    transform="translate(-14.5,-85.8571428571)"
    />
  
  <line
    x1="30"
    y1="97.85714285714286"
    x2="37"
    y2="121.85714285714286"
    stroke="hsla(0,50%,50%,0.6)"
    stroke-width="1"
    transform="translate(-14.5,-85.8571428571)"
    />
  
  <line
    x1="-8"
    y1="56.857142857142854"
    x2="-1"
    y2="80.85714285714286"
    stroke="hsla(0,50%,50%,0.6)"
    stroke-width="1"
    transform="translate(-14.5,-85.8571428571)"
    />
  
  <line
    x1="-8"
    y1="56.857142857142854"
    x2="-25"
    y2="87.85714285714286"
    stroke="hsla(0,50%,50%,0.6)"
    stroke-width="1"
    transform="translate(-14.5,-85.8571428571)"
    />
  
  <line
    x1="16"
    y1="49.857142857142854"
    x2="-1"
    y2="80.85714285714286"
    stroke="hsla(0,50%,50%,0.6)"
    stroke-width="1"
    transform="translate(-14.5,-85.8571428571)"
    />
  
  <line
    x1="16"
    y1="49.857142857142854"
    x2="47"
    y2="66.85714285714286"
    stroke="hsla(0,50%,50%,0.6)"
    stroke-width="1"
    transform="translate(-14.5,-85.8571428571)"
    />
  
  <line
    x1="47"
    y1="66.85714285714286"
    x2="30"
    y2="97.85714285714286"
    stroke="hsla(0,50%,50%,0.6)"
    stroke-width="1"
    transform="translate(-14.5,-85.8571428571)"
    />
  
  <line
    x1="54"
    y1="90.85714285714286"
    x2="37"
    y2="121.85714285714286"
    stroke="hsla(0,50%,50%,0.6)"
    stroke-width="1"
    transform="translate(-14.5,-85.8571428571)"
    />
  
  <line
    x1="-8"
    y1="56.857142857142854"
    x2="54"
    y2="90.85714285714286"
    stroke="hsla(0,50%,50%,0.6)"
    stroke-width="1"
    transform="translate(-14.5,-85.8571428571)"
    />
  
  <line
    x1="16"
    y1="49.857142857142854"
    x2="-8"
    y2="56.857142857142854"
    stroke="hsla(0,50%,50%,0.6)"
    stroke-width="1"
    transform="translate(-14.5,-85.8571428571)"
    />
  
  <line
    x1="47"
    y1="66.85714285714286"
    x2="23"
    y2="73.85714285714286"
    stroke="hsla(0,50%,50%,0.6)"
    stroke-width="1"
    transform="translate(-14.5,-85.8571428571)"
    />
  
  <line
    x1="-1"
    y1="80.85714285714286"
    x2="-25"
    y2="87.85714285714286"
    stroke="hsla(0,50%,50%,0.6)"
    stroke-width="1"
    transform="translate(-14.5,-85.8571428571)"
    />
  
  <line
    x1="54"
    y1="90.85714285714286"
    x2="30"
    y2="97.85714285714286"
    stroke="hsla(0,50%,50%,0.6)"
    stroke-width="1"
    transform="translate(-14.5,-85.8571428571)"
    />
  
</svg>
