<?xml version="1.0"?>
<!DOCTYPE svg PUBLIC "-//W3C//DTD SVG 1.1//EN"
  "http://www.w3.org/Graphics/SVG/1.1/DTD/svg11.dtd">
<svg
  width="240"
  height="240"
  viewBox="-50 -50 200 200" xmlns="http://www.w3.org/2000/svg" version="1.1">
  <rect
    x="0"
    y="0"
    width="100"
    height="100"
    fill="hsla(206,100%,53%,0.3)"
    stroke="hsl(206,100%,53%)"
    stroke-width="3"
    transform="" />
  
  <path
    d="M 
      88.2169335740
      94.1453972986
      L
    
      92.8412827337
      96.3973127056
      L
    
      92.8991385261
      97.6426552029
      L
    
      95.2653726021
      100.6850855205
      L
    
      101.4516129032
      104.3010752688
      L
    
      107.0430107526
      117.2311827956
      L
    
      105.5663338485
      122.2065771375
      L
    
      105.8209977893
      122.3589454716
      L
    
      105.2259192725
      123.3535421576
      L
    
      102.3118279569
      133.1720430107
      L
    
      94.9731182795
      142.2849462365
      L
    
      83.9516129032
      141.7473118279
      L
    
      75.3698785869
      140.0999253297
      L
    
      72.9667854396
      142.2250121099
      L
    
      72.4514653350
      141.6422772195
      L
    
      72.6768920312
      139.5829680891
      L
    
      71.9086021505
      139.4354838709
      L
    
      59.3817204301
      129.0322580645
      L
    
      59.4892473118
      117.6881720430
      L
    
      64.4892473118
      104.9731182795
      L
    
      77.3924731182
      96.5053763440
      L
    
      87.0328359808
      96.5769631970
      z
    "
    fill="hsla(0,0%,50%,0.3)"
    stroke="hsla(0,0%,50%,1)"
    stroke-width="1"
    transform="translate(-78.7794302611,-101.2962978335) scale(1,-1) translate(50,-110)"
    />
  
  
  <line
    x1="101.45161290322581"
    y1="104.3010752688172"
    x2="107.04301075268818"
    y2="117.23118279569893"
    stroke="hsla(0,50%,50%,0.6)"
    stroke-width="1"
    transform="translate(-78.7794302611,-101.2962978335) scale(1,-1) translate(50,-110)"
    />
  
  <line
    x1="77.39247311827957"
    y1="96.50537634408602"
    x2="92.274633632481"
    y2="125.15082878355744"
    stroke="hsla(0,50%,50%,0.6)"
    stroke-width="1"
    transform="translate(-78.7794302611,-101.2962978335) scale(1,-1) translate(50,-110)"
    />
  
  <line
    x1="92.22284581396576"
    y1="96.77309902843889"
    x2="96.95845734499794"
    y2="102.86200132279109"
    stroke="hsla(0,50%,50%,0.6)"
    stroke-width="1"
    transform="translate(-78.7794302611,-101.2962978335) scale(1,-1) translate(50,-110)"
    />
  
  <line
    x1="98.17190985588147"
    y1="120.5548425141023"
    x2="102.9413878548185"
    y2="127.17184060596348"
    stroke="hsla(0,50%,50%,0.6)"
    stroke-width="1"
    transform="translate(-78.7794302611,-101.2962978335) scale(1,-1) translate(50,-110)"
    />
  
  <line
    x1="73.57139942009248"
    y1="104.12106450812021"
    x2="75.42063756901528"
    y2="131.90001947549175"
    stroke="hsla(0,50%,50%,0.6)"
    stroke-width="1"
    transform="translate(-78.7794302611,-101.2962978335) scale(1,-1) translate(50,-110)"
    />
  
  <line
    x1="92.84128273371871"
    y1="96.39731270567233"
    x2="94.97311827956989"
    y2="142.28494623655914"
    stroke="hsla(0,50%,50%,0.6)"
    stroke-width="1"
    transform="translate(-78.7794302611,-101.2962978335) scale(1,-1) translate(50,-110)"
    />
  
  <line
    x1="59.48924731182796"
    y1="117.68817204301075"
    x2="59.38172043010753"
    y2="129.03225806451613"
    stroke="hsla(0,50%,50%,0.6)"
    stroke-width="1"
    transform="translate(-78.7794302611,-101.2962978335) scale(1,-1) translate(50,-110)"
    />
  
  <line
    x1="81.45362429772884"
    y1="107.05620994380166"
    x2="92.36503046897464"
    y2="119.16884127920461"
    stroke="hsla(0,50%,50%,0.6)"
    stroke-width="1"
    transform="translate(-78.7794302611,-101.2962978335) scale(1,-1) translate(50,-110)"
    />
  
  <line
    x1="88.25268817204301"
    y1="96.58602150537635"
    x2="84.84229926440254"
    y2="132.633534644872"
    stroke="hsla(0,50%,50%,0.6)"
    stroke-width="1"
    transform="translate(-78.7794302611,-101.2962978335) scale(1,-1) translate(50,-110)"
    />
  
  <line
    x1="77.39247311827957"
    y1="96.50537634408602"
    x2="72.45146533509096"
    y2="141.64227721951954"
    stroke="hsla(0,50%,50%,0.6)"
    stroke-width="1"
    transform="translate(-78.7794302611,-101.2962978335) scale(1,-1) translate(50,-110)"
    />
  
  <line
    x1="74.81562141804487"
    y1="113.95043256372469"
    x2="73.18538037192381"
    y2="128.5773175053108"
    stroke="hsla(0,50%,50%,0.6)"
    stroke-width="1"
    transform="translate(-78.7794302611,-101.2962978335) scale(1,-1) translate(50,-110)"
    />
  
  <line
    x1="90.26600765938322"
    y1="109.16441822915039"
    x2="87.94103406216466"
    y2="131.05333952852757"
    stroke="hsla(0,50%,50%,0.6)"
    stroke-width="1"
    transform="translate(-78.7794302611,-101.2962978335) scale(1,-1) translate(50,-110)"
    />
  
  <line
    x1="77.1235984092448"
    y1="121.41459989426099"
    x2="75.42063756901528"
    y2="131.90001947549175"
    stroke="hsla(0,50%,50%,0.6)"
    stroke-width="1"
    transform="translate(-78.7794302611,-101.2962978335) scale(1,-1) translate(50,-110)"
    />
  
  <line
    x1="77.15355587772802"
    y1="105.20688871111066"
    x2="92.36503046897464"
    y2="119.16884127920461"
    stroke="hsla(0,50%,50%,0.6)"
    stroke-width="1"
    transform="translate(-78.7794302611,-101.2962978335) scale(1,-1) translate(50,-110)"
    />
  
  <line
    x1="92.22284581396576"
    y1="96.77309902843889"
    x2="83.95161290322581"
    y2="141.747311827957"
    stroke="hsla(0,50%,50%,0.6)"
    stroke-width="1"
    transform="translate(-78.7794302611,-101.2962978335) scale(1,-1) translate(50,-110)"
    />
  
  <line
    x1="72.24515113219438"
    y1="119.205739051158"
    x2="84.84229926440254"
    y2="132.633534644872"
    stroke="hsla(0,50%,50%,0.6)"
    stroke-width="1"
    transform="translate(-78.7794302611,-101.2962978335) scale(1,-1) translate(50,-110)"
    />
  
  <line
    x1="64.48924731182795"
    y1="104.97311827956989"
    x2="86.44272550288763"
    y2="126.54230160044288"
    stroke="hsla(0,50%,50%,0.6)"
    stroke-width="1"
    transform="translate(-78.7794302611,-101.2962978335) scale(1,-1) translate(50,-110)"
    />
  
  <line
    x1="74.81562141804487"
    y1="113.95043256372469"
    x2="87.10840137544501"
    y2="125.74402294240319"
    stroke="hsla(0,50%,50%,0.6)"
    stroke-width="1"
    transform="translate(-78.7794302611,-101.2962978335) scale(1,-1) translate(50,-110)"
    />
  
  <line
    x1="90.26600765938322"
    y1="109.16441822915039"
    x2="86.44272550288763"
    y2="126.54230160044288"
    stroke="hsla(0,50%,50%,0.6)"
    stroke-width="1"
    transform="translate(-78.7794302611,-101.2962978335) scale(1,-1) translate(50,-110)"
    />
  
  <line
    x1="61.15833465088012"
    y1="115.86485625878328"
    x2="73.18538037192381"
    y2="128.5773175053108"
    stroke="hsla(0,50%,50%,0.6)"
    stroke-width="1"
    transform="translate(-78.7794302611,-101.2962978335) scale(1,-1) translate(50,-110)"
    />
  
  <line
    x1="72.45146533509096"
    y1="141.64227721951954"
    x2="72.96678543963787"
    y2="142.225012109917"
    stroke="hsla(0,50%,50%,0.6)"
    stroke-width="1"
    transform="translate(-78.7794302611,-101.2962978335) scale(1,-1) translate(50,-110)"
    />
  
  <line
    x1="81.45362429772884"
    y1="107.05620994380166"
    x2="71.90860215053763"
    y2="139.43548387096774"
    stroke="hsla(0,50%,50%,0.6)"
    stroke-width="1"
    transform="translate(-78.7794302611,-101.2962978335) scale(1,-1) translate(50,-110)"
    />
  
  <line
    x1="88.25268817204301"
    y1="96.58602150537635"
    x2="101.45161290322581"
    y2="104.3010752688172"
    stroke="hsla(0,50%,50%,0.6)"
    stroke-width="1"
    transform="translate(-78.7794302611,-101.2962978335) scale(1,-1) translate(50,-110)"
    />
  
  <line
    x1="64.48924731182795"
    y1="104.97311827956989"
    x2="59.48924731182796"
    y2="117.68817204301075"
    stroke="hsla(0,50%,50%,0.6)"
    stroke-width="1"
    transform="translate(-78.7794302611,-101.2962978335) scale(1,-1) translate(50,-110)"
    />
  
  <line
    x1="107.04301075268818"
    y1="117.23118279569893"
    x2="102.31182795698925"
    y2="133.1720430107527"
    stroke="hsla(0,50%,50%,0.6)"
    stroke-width="1"
    transform="translate(-78.7794302611,-101.2962978335) scale(1,-1) translate(50,-110)"
    />
  
  <line
    x1="96.95845734499794"
    y1="102.86200132279109"
    x2="83.95161290322581"
    y2="141.747311827957"
    stroke="hsla(0,50%,50%,0.6)"
    stroke-width="1"
    transform="translate(-78.7794302611,-101.2962978335) scale(1,-1) translate(50,-110)"
    />
  
  <line
    x1="88.21693357400896"
    y1="94.14539729862955"
    x2="92.84128273371871"
    y2="96.39731270567233"
    stroke="hsla(0,50%,50%,0.6)"
    stroke-width="1"
    transform="translate(-78.7794302611,-101.2962978335) scale(1,-1) translate(50,-110)"
    />
  
  <line
    x1="77.15355587772802"
    y1="105.20688871111066"
    x2="105.82099778934925"
    y2="122.35894547164845"
    stroke="hsla(0,50%,50%,0.6)"
    stroke-width="1"
    transform="translate(-78.7794302611,-101.2962978335) scale(1,-1) translate(50,-110)"
    />
  
  <line
    x1="59.38172043010753"
    y1="129.03225806451613"
    x2="71.90860215053763"
    y2="139.43548387096774"
    stroke="hsla(0,50%,50%,0.6)"
    stroke-width="1"
    transform="translate(-78.7794302611,-101.2962978335) scale(1,-1) translate(50,-110)"
    />
  
  <line
    x1="88.21693357400896"
    y1="94.14539729862955"
    x2="72.1126986220529"
    y2="127.21573605777604"
    stroke="hsla(0,50%,50%,0.6)"
    stroke-width="1"
    transform="translate(-78.7794302611,-101.2962978335) scale(1,-1) translate(50,-110)"
    />
  
  <line
    x1="72.1126986220529"
    y1="127.21573605777604"
    x2="94.97311827956989"
    y2="142.28494623655914"
    stroke="hsla(0,50%,50%,0.6)"
    stroke-width="1"
    transform="translate(-78.7794302611,-101.2962978335) scale(1,-1) translate(50,-110)"
    />
  
  <line
    x1="73.57139942009248"
    y1="104.12106450812021"
    x2="107.04301075268818"
    y2="117.23118279569893"
    stroke="hsla(0,50%,50%,0.6)"
    stroke-width="1"
    transform="translate(-78.7794302611,-101.2962978335) scale(1,-1) translate(50,-110)"
    />
  
  <line
    x1="77.1235984092448"
    y1="121.41459989426099"
    x2="102.31182795698925"
    y2="133.1720430107527"
    stroke="hsla(0,50%,50%,0.6)"
    stroke-width="1"
    transform="translate(-78.7794302611,-101.2962978335) scale(1,-1) translate(50,-110)"
    />
  
  <line
    x1="72.24515113219438"
    y1="119.205739051158"
    x2="87.10840137544501"
    y2="125.74402294240319"
    stroke="hsla(0,50%,50%,0.6)"
    stroke-width="1"
    transform="translate(-78.7794302611,-101.2962978335) scale(1,-1) translate(50,-110)"
    />
  
  <line
    x1="59.48924731182796"
    y1="117.68817204301075"
    x2="87.94103406216466"
    y2="131.05333952852757"
    stroke="hsla(0,50%,50%,0.6)"
    stroke-width="1"
    transform="translate(-78.7794302611,-101.2962978335) scale(1,-1) translate(50,-110)"
    />
  
  <line
    x1="88.25268817204301"
    y1="96.58602150537635"
    x2="72.24515113219438"
    y2="119.205739051158"
    stroke="hsla(0,50%,50%,0.6)"
    stroke-width="1"
    transform="translate(-78.7794302611,-101.2962978335) scale(1,-1) translate(50,-110)"
    />
  
  <line
    x1="77.15355587772802"
    y1="105.20688871111066"
    x2="59.38172043010753"
    y2="129.03225806451613"
    stroke="hsla(0,50%,50%,0.6)"
    stroke-width="1"
    transform="translate(-78.7794302611,-101.2962978335) scale(1,-1) translate(50,-110)"
    />
  
  <line
    x1="105.82099778934925"
    y1="122.35894547164845"
    x2="102.9413878548185"
    y2="127.17184060596348"
    stroke="hsla(0,50%,50%,0.6)"
    stroke-width="1"
    transform="translate(-78.7794302611,-101.2962978335) scale(1,-1) translate(50,-110)"
    />
  
  <line
    x1="101.45161290322581"
    y1="104.3010752688172"
    x2="87.10840137544501"
    y2="125.74402294240319"
    stroke="hsla(0,50%,50%,0.6)"
    stroke-width="1"
    transform="translate(-78.7794302611,-101.2962978335) scale(1,-1) translate(50,-110)"
    />
  
  <line
    x1="77.1235984092448"
    y1="121.41459989426099"
    x2="72.1126986220529"
    y2="127.21573605777604"
    stroke="hsla(0,50%,50%,0.6)"
    stroke-width="1"
    transform="translate(-78.7794302611,-101.2962978335) scale(1,-1) translate(50,-110)"
    />
  
  <line
    x1="73.57139942009248"
    y1="104.12106450812021"
    x2="61.15833465088012"
    y2="115.86485625878328"
    stroke="hsla(0,50%,50%,0.6)"
    stroke-width="1"
    transform="translate(-78.7794302611,-101.2962978335) scale(1,-1) translate(50,-110)"
    />
  
  <line
    x1="64.48924731182795"
    y1="104.97311827956989"
    x2="90.26600765938322"
    y2="109.16441822915039"
    stroke="hsla(0,50%,50%,0.6)"
    stroke-width="1"
    transform="translate(-78.7794302611,-101.2962978335) scale(1,-1) translate(50,-110)"
    />
  
  <line
    x1="77.39247311827957"
    y1="96.50537634408602"
    x2="88.25268817204301"
    y2="96.58602150537635"
    stroke="hsla(0,50%,50%,0.6)"
    stroke-width="1"
    transform="translate(-78.7794302611,-101.2962978335) scale(1,-1) translate(50,-110)"
    />
  
  <line
    x1="102.31182795698925"
    y1="133.1720430107527"
    x2="94.97311827956989"
    y2="142.28494623655914"
    stroke="hsla(0,50%,50%,0.6)"
    stroke-width="1"
    transform="translate(-78.7794302611,-101.2962978335) scale(1,-1) translate(50,-110)"
    />
  
  <line
    x1="77.39247311827957"
    y1="96.50537634408602"
    x2="64.48924731182795"
    y2="104.97311827956989"
    stroke="hsla(0,50%,50%,0.6)"
    stroke-width="1"
    transform="translate(-78.7794302611,-101.2962978335) scale(1,-1) translate(50,-110)"
    />
  
  <line
    x1="92.36503046897464"
    y1="119.16884127920461"
    x2="71.90860215053763"
    y2="139.43548387096774"
    stroke="hsla(0,50%,50%,0.6)"
    stroke-width="1"
    transform="translate(-78.7794302611,-101.2962978335) scale(1,-1) translate(50,-110)"
    />
  
  <line
    x1="98.17190985588147"
    y1="120.5548425141023"
    x2="87.94103406216466"
    y2="131.05333952852757"
    stroke="hsla(0,50%,50%,0.6)"
    stroke-width="1"
    transform="translate(-78.7794302611,-101.2962978335) scale(1,-1) translate(50,-110)"
    />
  
  <line
    x1="92.84128273371871"
    y1="96.39731270567233"
    x2="92.22284581396576"
    y2="96.77309902843889"
    stroke="hsla(0,50%,50%,0.6)"
    stroke-width="1"
    transform="translate(-78.7794302611,-101.2962978335) scale(1,-1) translate(50,-110)"
    />
  
  <line
    x1="59.48924731182796"
    y1="117.68817204301075"
    x2="98.17190985588147"
    y2="120.5548425141023"
    stroke="hsla(0,50%,50%,0.6)"
    stroke-width="1"
    transform="translate(-78.7794302611,-101.2962978335) scale(1,-1) translate(50,-110)"
    />
  
  <line
    x1="92.274633632481"
    y1="125.15082878355744"
    x2="72.96678543963787"
    y2="142.225012109917"
    stroke="hsla(0,50%,50%,0.6)"
    stroke-width="1"
    transform="translate(-78.7794302611,-101.2962978335) scale(1,-1) translate(50,-110)"
    />
  
  <line
    x1="96.95845734499794"
    y1="102.86200132279109"
    x2="81.45362429772884"
    y2="107.05620994380166"
    stroke="hsla(0,50%,50%,0.6)"
    stroke-width="1"
    transform="translate(-78.7794302611,-101.2962978335) scale(1,-1) translate(50,-110)"
    />
  
  <line
    x1="71.90860215053763"
    y1="139.43548387096774"
    x2="83.95161290322581"
    y2="141.747311827957"
    stroke="hsla(0,50%,50%,0.6)"
    stroke-width="1"
    transform="translate(-78.7794302611,-101.2962978335) scale(1,-1) translate(50,-110)"
    />
  
  <line
    x1="101.45161290322581"
    y1="104.3010752688172"
    x2="74.81562141804487"
    y2="113.95043256372469"
    stroke="hsla(0,50%,50%,0.6)"
    stroke-width="1"
    transform="translate(-78.7794302611,-101.2962978335) scale(1,-1) translate(50,-110)"
    />
  
  <line
    x1="84.84229926440254"
    y1="132.633534644872"
    x2="72.45146533509096"
    y2="141.64227721951954"
    stroke="hsla(0,50%,50%,0.6)"
    stroke-width="1"
    transform="translate(-78.7794302611,-101.2962978335) scale(1,-1) translate(50,-110)"
    />
  
  <line
    x1="75.42063756901528"
    y1="131.90001947549175"
    x2="102.31182795698925"
    y2="133.1720430107527"
    stroke="hsla(0,50%,50%,0.6)"
    stroke-width="1"
    transform="translate(-78.7794302611,-101.2962978335) scale(1,-1) translate(50,-110)"
    />
  
  <line
    x1="102.9413878548185"
    y1="127.17184060596348"
    x2="59.38172043010753"
    y2="129.03225806451613"
    stroke="hsla(0,50%,50%,0.6)"
    stroke-width="1"
    transform="translate(-78.7794302611,-101.2962978335) scale(1,-1) translate(50,-110)"
    />
  
  <line
    x1="83.95161290322581"
    y1="141.747311827957"
    x2="94.97311827956989"
    y2="142.28494623655914"
    stroke="hsla(0,50%,50%,0.6)"
    stroke-width="1"
    transform="translate(-78.7794302611,-101.2962978335) scale(1,-1) translate(50,-110)"
    />
  
  <line
    x1="107.04301075268818"
    y1="117.23118279569893"
    x2="73.18538037192381"
    y2="128.5773175053108"
    stroke="hsla(0,50%,50%,0.6)"
    stroke-width="1"
    transform="translate(-78.7794302611,-101.2962978335) scale(1,-1) translate(50,-110)"
    />
  
  <line
    x1="92.274633632481"
    y1="125.15082878355744"
    x2="86.44272550288763"
    y2="126.54230160044288"
    stroke="hsla(0,50%,50%,0.6)"
    stroke-width="1"
    transform="translate(-78.7794302611,-101.2962978335) scale(1,-1) translate(50,-110)"
    />
  
</svg>
