<?xml version="1.0"?>
<!DOCTYPE svg PUBLIC "-//W3C//DTD SVG 1.1//EN"
  "http://www.w3.org/Graphics/SVG/1.1/DTD/svg11.dtd">
<svg
  width="240"
  height="240"
  viewBox="-500 -500 1000 1000" xmlns="http://www.w3.org/2000/svg" version="1.1">
  <rect
    x="0"
    y="0"
    width="100"
    height="100"
    fill="hsla(206,100%,53%,0.3)"
    stroke="hsl(206,100%,53%)"
    stroke-width="3"
    transform="" />
  
  <path
    d="M 
      68.1481223690
      -4.7425486554
      L
    
      114.1338582677
      23.4422572178
      L
    
      137.9499993404
      63.3854217012
      L
    
      136.8655198125
      73.0804663835
      L
    
      66.9214325177
      65.2565797223
      L
    
      61.3386970115
      72.0444476370
      L
    
      50.9075666313
      63.4652821795
      L
    
      63.6343278323
      33.3502972554
      L
    
      54.2805376465
      29.5699068401
      L
    
      59.4030613406
      16.8952868686
      L
    
      55.1489150653
      10.2101998645
      z
    "
    fill="hsla(0,0%,50%,0.3)"
    stroke="hsla(0,0%,50%,1)"
    stroke-width="1"
    transform="translate(-94.4287829858,-34.1689588640)"
    />
  
  
  <line
    x1="114.13385826771653"
    y1="23.442257217847768"
    x2="137.9499993404597"
    y2="63.385421701216394"
    stroke="hsla(0,50%,50%,0.6)"
    stroke-width="1"
    transform="translate(-94.4287829858,-34.1689588640)"
    />
  
  <line
    x1="92.92592592592592"
    y1="11.444444444444445"
    x2="102.26470588235294"
    y2="22.650980392156864"
    stroke="hsla(0,50%,50%,0.6)"
    stroke-width="1"
    transform="translate(-94.4287829858,-34.1689588640)"
    />
  
  <line
    x1="92.43820224719101"
    y1="11.07865168539326"
    x2="93.50623885918003"
    y2="12.140819964349376"
    stroke="hsla(0,50%,50%,0.6)"
    stroke-width="1"
    transform="translate(-94.4287829858,-34.1689588640)"
    />
  
  <line
    x1="93.50623885918003"
    y1="12.140819964349376"
    x2="98.68744370383715"
    y2="19.692698012370144"
    stroke="hsla(0,50%,50%,0.6)"
    stroke-width="1"
    transform="translate(-94.4287829858,-34.1689588640)"
    />
  
  <line
    x1="92.43820224719101"
    y1="11.07865168539326"
    x2="92.92592592592592"
    y2="11.444444444444445"
    stroke="hsla(0,50%,50%,0.6)"
    stroke-width="1"
    transform="translate(-94.4287829858,-34.1689588640)"
    />
  
  <line
    x1="92.92592592592592"
    y1="11.444444444444445"
    x2="98.23287870644091"
    y2="22.097371717095868"
    stroke="hsla(0,50%,50%,0.6)"
    stroke-width="1"
    transform="translate(-94.4287829858,-34.1689588640)"
    />
  
  <line
    x1="68.1481223690974"
    y1="-4.742548655499448"
    x2="114.13385826771653"
    y2="23.442257217847768"
    stroke="hsla(0,50%,50%,0.6)"
    stroke-width="1"
    transform="translate(-94.4287829858,-34.1689588640)"
    />
  
  <line
    x1="78.6835359116022"
    y1="3.4864088397790054"
    x2="92.43820224719101"
    y2="11.07865168539326"
    stroke="hsla(0,50%,50%,0.6)"
    stroke-width="1"
    transform="translate(-94.4287829858,-34.1689588640)"
    />
  
  <line
    x1="55.148915065327955"
    y1="10.210199864562977"
    x2="61.32911392405063"
    y2="19.921940928270043"
    stroke="hsla(0,50%,50%,0.6)"
    stroke-width="1"
    transform="translate(-94.4287829858,-34.1689588640)"
    />
  
  <line
    x1="98.23287870644091"
    y1="22.097371717095868"
    x2="98.8978969288755"
    y2="22.426526461925032"
    stroke="hsla(0,50%,50%,0.6)"
    stroke-width="1"
    transform="translate(-94.4287829858,-34.1689588640)"
    />
  
  <line
    x1="78.6835359116022"
    y1="3.4864088397790054"
    x2="83.91643059490085"
    y2="21.427762039660056"
    stroke="hsla(0,50%,50%,0.6)"
    stroke-width="1"
    transform="translate(-94.4287829858,-34.1689588640)"
    />
  
  <line
    x1="83.92159292035399"
    y1="21.416106194690265"
    x2="83.95348837209302"
    y2="21.430232558139537"
    stroke="hsla(0,50%,50%,0.6)"
    stroke-width="1"
    transform="translate(-94.4287829858,-34.1689588640)"
    />
  
  <line
    x1="96.8688524590164"
    y1="19.35928961748634"
    x2="98.68744370383715"
    y2="19.692698012370144"
    stroke="hsla(0,50%,50%,0.6)"
    stroke-width="1"
    transform="translate(-94.4287829858,-34.1689588640)"
    />
  
  <line
    x1="54.28053764652363"
    y1="29.569906840178625"
    x2="137.9499993404597"
    y2="63.385421701216394"
    stroke="hsla(0,50%,50%,0.6)"
    stroke-width="1"
    transform="translate(-94.4287829858,-34.1689588640)"
    />
  
  <line
    x1="50.90756663133543"
    y1="63.465282179586055"
    x2="61.33869701155721"
    y2="72.04444763703715"
    stroke="hsla(0,50%,50%,0.6)"
    stroke-width="1"
    transform="translate(-94.4287829858,-34.1689588640)"
    />
  
  <line
    x1="61.32911392405063"
    y1="19.921940928270043"
    x2="114.13385826771653"
    y2="23.442257217847768"
    stroke="hsla(0,50%,50%,0.6)"
    stroke-width="1"
    transform="translate(-94.4287829858,-34.1689588640)"
    />
  
  <line
    x1="137.9499993404597"
    y1="63.385421701216394"
    x2="136.86551981254246"
    y2="73.08046638357014"
    stroke="hsla(0,50%,50%,0.6)"
    stroke-width="1"
    transform="translate(-94.4287829858,-34.1689588640)"
    />
  
  <line
    x1="98.68744370383715"
    y1="19.692698012370144"
    x2="98.23287870644091"
    y2="22.097371717095868"
    stroke="hsla(0,50%,50%,0.6)"
    stroke-width="1"
    transform="translate(-94.4287829858,-34.1689588640)"
    />
  
  <line
    x1="68.1481223690974"
    y1="-4.742548655499448"
    x2="54.28053764652363"
    y2="29.569906840178625"
    stroke="hsla(0,50%,50%,0.6)"
    stroke-width="1"
    transform="translate(-94.4287829858,-34.1689588640)"
    />
  
  <line
    x1="78.6835359116022"
    y1="3.4864088397790054"
    x2="55.148915065327955"
    y2="10.210199864562977"
    stroke="hsla(0,50%,50%,0.6)"
    stroke-width="1"
    transform="translate(-94.4287829858,-34.1689588640)"
    />
  
  <line
    x1="77.34931782711574"
    y1="0.8968937219956703"
    x2="50.90756663133543"
    y2="63.465282179586055"
    stroke="hsla(0,50%,50%,0.6)"
    stroke-width="1"
    transform="translate(-94.4287829858,-34.1689588640)"
    />
  
  <line
    x1="68.1481223690974"
    y1="-4.742548655499448"
    x2="55.148915065327955"
    y2="10.210199864562977"
    stroke="hsla(0,50%,50%,0.6)"
    stroke-width="1"
    transform="translate(-94.4287829858,-34.1689588640)"
    />
  
  <line
    x1="83.92159292035399"
    y1="21.416106194690265"
    x2="83.91643059490085"
    y2="21.427762039660056"
    stroke="hsla(0,50%,50%,0.6)"
    stroke-width="1"
    transform="translate(-94.4287829858,-34.1689588640)"
    />
  
  <line
    x1="77.34931782711574"
    y1="0.8968937219956703"
    x2="61.32911392405063"
    y2="19.921940928270043"
    stroke="hsla(0,50%,50%,0.6)"
    stroke-width="1"
    transform="translate(-94.4287829858,-34.1689588640)"
    />
  
  <line
    x1="105.60914819086354"
    y1="18.2174349126798"
    x2="104.61761083587574"
    y2="20.489927688690535"
    stroke="hsla(0,50%,50%,0.6)"
    stroke-width="1"
    transform="translate(-94.4287829858,-34.1689588640)"
    />
  
  <line
    x1="97.8659217877095"
    y1="17.37243947858473"
    x2="83.95348837209302"
    y2="21.430232558139537"
    stroke="hsla(0,50%,50%,0.6)"
    stroke-width="1"
    transform="translate(-94.4287829858,-34.1689588640)"
    />
  
  <line
    x1="97.8659217877095"
    y1="17.37243947858473"
    x2="96.8688524590164"
    y2="19.35928961748634"
    stroke="hsla(0,50%,50%,0.6)"
    stroke-width="1"
    transform="translate(-94.4287829858,-34.1689588640)"
    />
  
  <line
    x1="104.61761083587574"
    y1="20.489927688690535"
    x2="98.8978969288755"
    y2="22.426526461925032"
    stroke="hsla(0,50%,50%,0.6)"
    stroke-width="1"
    transform="translate(-94.4287829858,-34.1689588640)"
    />
  
  <line
    x1="50.90756663133543"
    y1="63.465282179586055"
    x2="136.86551981254246"
    y2="73.08046638357014"
    stroke="hsla(0,50%,50%,0.6)"
    stroke-width="1"
    transform="translate(-94.4287829858,-34.1689588640)"
    />
  
  <line
    x1="105.60914819086354"
    y1="18.2174349126798"
    x2="61.33869701155721"
    y2="72.04444763703715"
    stroke="hsla(0,50%,50%,0.6)"
    stroke-width="1"
    transform="translate(-94.4287829858,-34.1689588640)"
    />
  
  <line
    x1="104.61761083587574"
    y1="20.489927688690535"
    x2="102.26470588235294"
    y2="22.650980392156864"
    stroke="hsla(0,50%,50%,0.6)"
    stroke-width="1"
    transform="translate(-94.4287829858,-34.1689588640)"
    />
  
</svg>
