<?xml version="1.0"?>
<!DOCTYPE svg PUBLIC "-//W3C//DTD SVG 1.1//EN"
  "http://www.w3.org/Graphics/SVG/1.1/DTD/svg11.dtd">
<svg
  width="240"
  height="240"
  viewBox="-50 -50 200 200" xmlns="http://www.w3.org/2000/svg" version="1.1">
  <rect
    x="0"
    y="0"
    width="100"
    height="100"
    fill="hsla(206,100%,53%,0.3)"
    stroke="hsl(206,100%,53%)"
    stroke-width="3"
    transform="" />
  
  <path
    d="M 
      16.9886638133
      -111.0803776797
      L
    
      53.2852155226
      -101.9312660461
      L
    
      59.7796535680
      -110.3314439749
      L
    
      75.6649410426
      -106.2464266412
      L
    
      71.5630660125
      -90.2955851354
      L
    
      94.0246047343
      -46.7300151322
      L
    
      90.9963151923
      -42.3901639205
      L
    
      84.6493542958
      -46.8189874835
      L
    
      60.4418198037
      -47.0487201481
      L
    
      53.6706285554
      -55.8675739754
      L
    
      23.4678459430
      -55.1820817639
      L
    
      19.1386728708
      -92.5314559006
      L
    
      8.9879328625
      -99.6145051369
      z
    "
    fill="hsla(0,0%,50%,0.3)"
    stroke="hsla(0,0%,50%,1)"
    stroke-width="1"
    transform="translate(-20.1161841810,86.4311240108) scale(1,-1) translate(50,-110)"
    />
  
  
  <line
    x1="59.77965356805456"
    y1="-110.33144397495329"
    x2="75.66494104263163"
    y2="-106.24642664125464"
    stroke="hsla(0,50%,50%,0.6)"
    stroke-width="1"
    transform="translate(-20.1161841810,86.4311240108) scale(1,-1) translate(50,-110)"
    />
  
  <line
    x1="16.988663813397952"
    y1="-111.08037767978047"
    x2="67.39804411152726"
    y2="-98.37390761548065"
    stroke="hsla(0,50%,50%,0.6)"
    stroke-width="1"
    transform="translate(-20.1161841810,86.4311240108) scale(1,-1) translate(50,-110)"
    />
  
  <line
    x1="25.54868189629467"
    y1="-84.8553250616287"
    x2="75.85964696179347"
    y2="-81.32726903141563"
    stroke="hsla(0,50%,50%,0.6)"
    stroke-width="1"
    transform="translate(-20.1161841810,86.4311240108) scale(1,-1) translate(50,-110)"
    />
  
  <line
    x1="8.987932862565252"
    y1="-99.61450513698261"
    x2="90.99631519232027"
    y2="-42.39016392053237"
    stroke="hsla(0,50%,50%,0.6)"
    stroke-width="1"
    transform="translate(-20.1161841810,86.4311240108) scale(1,-1) translate(50,-110)"
    />
  
  <line
    x1="35.7334581772784"
    y1="-79.229088639201"
    x2="59.725343320848935"
    y2="-56.004993757802744"
    stroke="hsla(0,50%,50%,0.6)"
    stroke-width="1"
    transform="translate(-20.1161841810,86.4311240108) scale(1,-1) translate(50,-110)"
    />
  
  <line
    x1="59.725343320848935"
    y1="-56.004993757802744"
    x2="23.46784594301524"
    y2="-55.18208176391594"
    stroke="hsla(0,50%,50%,0.6)"
    stroke-width="1"
    transform="translate(-20.1161841810,86.4311240108) scale(1,-1) translate(50,-110)"
    />
  
  <line
    x1="59.77965356805456"
    y1="-110.33144397495329"
    x2="75.85964696179347"
    y2="-81.32726903141563"
    stroke="hsla(0,50%,50%,0.6)"
    stroke-width="1"
    transform="translate(-20.1161841810,86.4311240108) scale(1,-1) translate(50,-110)"
    />
  
  <line
    x1="67.39804411152726"
    y1="-98.37390761548065"
    x2="94.02460473432355"
    y2="-46.73001513221241"
    stroke="hsla(0,50%,50%,0.6)"
    stroke-width="1"
    transform="translate(-20.1161841810,86.4311240108) scale(1,-1) translate(50,-110)"
    />
  
  <line
    x1="60.44181980377061"
    y1="-47.04872014812308"
    x2="94.02460473432355"
    y2="-46.73001513221241"
    stroke="hsla(0,50%,50%,0.6)"
    stroke-width="1"
    transform="translate(-20.1161841810,86.4311240108) scale(1,-1) translate(50,-110)"
    />
  
  <line
    x1="35.7334581772784"
    y1="-79.229088639201"
    x2="60.44181980377061"
    y2="-47.04872014812308"
    stroke="hsla(0,50%,50%,0.6)"
    stroke-width="1"
    transform="translate(-20.1161841810,86.4311240108) scale(1,-1) translate(50,-110)"
    />
  
  <line
    x1="67.39804411152726"
    y1="-98.37390761548065"
    x2="35.7334581772784"
    y2="-79.229088639201"
    stroke="hsla(0,50%,50%,0.6)"
    stroke-width="1"
    transform="translate(-20.1161841810,86.4311240108) scale(1,-1) translate(50,-110)"
    />
  
  <line
    x1="16.988663813397952"
    y1="-111.08037767978047"
    x2="8.987932862565252"
    y2="-99.61450513698261"
    stroke="hsla(0,50%,50%,0.6)"
    stroke-width="1"
    transform="translate(-20.1161841810,86.4311240108) scale(1,-1) translate(50,-110)"
    />
  
  <line
    x1="59.77965356805456"
    y1="-110.33144397495329"
    x2="35.7334581772784"
    y2="-79.229088639201"
    stroke="hsla(0,50%,50%,0.6)"
    stroke-width="1"
    transform="translate(-20.1161841810,86.4311240108) scale(1,-1) translate(50,-110)"
    />
  
  <line
    x1="16.988663813397952"
    y1="-111.08037767978047"
    x2="23.46784594301524"
    y2="-55.18208176391594"
    stroke="hsla(0,50%,50%,0.6)"
    stroke-width="1"
    transform="translate(-20.1161841810,86.4311240108) scale(1,-1) translate(50,-110)"
    />
  
  <line
    x1="25.54868189629467"
    y1="-84.8553250616287"
    x2="23.46784594301524"
    y2="-55.18208176391594"
    stroke="hsla(0,50%,50%,0.6)"
    stroke-width="1"
    transform="translate(-20.1161841810,86.4311240108) scale(1,-1) translate(50,-110)"
    />
  
  <line
    x1="67.39804411152726"
    y1="-98.37390761548065"
    x2="59.725343320848935"
    y2="-56.004993757802744"
    stroke="hsla(0,50%,50%,0.6)"
    stroke-width="1"
    transform="translate(-20.1161841810,86.4311240108) scale(1,-1) translate(50,-110)"
    />
  
  <line
    x1="75.85964696179347"
    y1="-81.32726903141563"
    x2="59.725343320848935"
    y2="-56.004993757802744"
    stroke="hsla(0,50%,50%,0.6)"
    stroke-width="1"
    transform="translate(-20.1161841810,86.4311240108) scale(1,-1) translate(50,-110)"
    />
  
  <line
    x1="75.66494104263163"
    y1="-106.24642664125464"
    x2="60.44181980377061"
    y2="-47.04872014812308"
    stroke="hsla(0,50%,50%,0.6)"
    stroke-width="1"
    transform="translate(-20.1161841810,86.4311240108) scale(1,-1) translate(50,-110)"
    />
  
  <line
    x1="94.02460473432355"
    y1="-46.73001513221241"
    x2="90.99631519232027"
    y2="-42.39016392053237"
    stroke="hsla(0,50%,50%,0.6)"
    stroke-width="1"
    transform="translate(-20.1161841810,86.4311240108) scale(1,-1) translate(50,-110)"
    />
  
</svg>
