<?xml version="1.0"?>
<!DOCTYPE svg PUBLIC "-//W3C//DTD SVG 1.1//EN"
  "http://www.w3.org/Graphics/SVG/1.1/DTD/svg11.dtd">
<svg
  width="240"
  height="240"
  viewBox="-50 -50 200 200" xmlns="http://www.w3.org/2000/svg" version="1.1">
  <rect
    x="0"
    y="0"
    width="100"
    height="100"
    fill="hsla(206,100%,53%,0.3)"
    stroke="hsl(206,100%,53%)"
    stroke-width="3"
    transform="" />
  
  <path
    d="M 
      9.1483333333
      34.44875
      L
    
      69.7885480572
      96.7734151329
      L
    
      62.4345889257
      108.5057776494
      L
    
      56.3505439490
      104.6922389824
      L
    
      -4.4358974358
      140.5128205128
      L
    
      -28.3095238095
      100
      L
    
      -7.9572358480
      64.3834960675
      L
    
      -11.8461153605
      61.9459085005
      L
    
      3.4894308943
      37.4798780487
      z
    "
    fill="hsla(0,0%,50%,0.3)"
    stroke="hsla(0,0%,50%,1)"
    stroke-width="1"
    transform="translate(2.4428402388,-55.9114830035) scale(1,-1) translate(50,-110)"
    />
  
  
  <line
    x1="0"
    y1="50.458333333333336"
    x2="0"
    y2="100"
    stroke="hsla(0,50%,50%,0.6)"
    stroke-width="1"
    transform="translate(2.4428402388,-55.9114830035) scale(1,-1) translate(50,-110)"
    />
  
  <line
    x1="12.333333333333334"
    y1="37.72222222222222"
    x2="12.333333333333334"
    y2="100"
    stroke="hsla(0,50%,50%,0.6)"
    stroke-width="1"
    transform="translate(2.4428402388,-55.9114830035) scale(1,-1) translate(50,-110)"
    />
  
  <line
    x1="3.489430894308943"
    y1="37.479878048780485"
    x2="-11.846115360561889"
    y2="61.945908500505126"
    stroke="hsla(0,50%,50%,0.6)"
    stroke-width="1"
    transform="translate(2.4428402388,-55.9114830035) scale(1,-1) translate(50,-110)"
    />
  
  <line
    x1="9.148333333333333"
    y1="34.44875"
    x2="69.78854805725972"
    y2="96.77341513292434"
    stroke="hsla(0,50%,50%,0.6)"
    stroke-width="1"
    transform="translate(2.4428402388,-55.9114830035) scale(1,-1) translate(50,-110)"
    />
  
  <line
    x1="9.148333333333333"
    y1="34.44875"
    x2="-28.30952380952381"
    y2="100"
    stroke="hsla(0,50%,50%,0.6)"
    stroke-width="1"
    transform="translate(2.4428402388,-55.9114830035) scale(1,-1) translate(50,-110)"
    />
  
  <line
    x1="15.714928425357874"
    y1="41.19775051124744"
    x2="-1.3959782556405447"
    y2="68.49615625150334"
    stroke="hsla(0,50%,50%,0.6)"
    stroke-width="1"
    transform="translate(2.4428402388,-55.9114830035) scale(1,-1) translate(50,-110)"
    />
  
  <line
    x1="9.148333333333333"
    y1="34.44875"
    x2="3.489430894308943"
    y2="37.479878048780485"
    stroke="hsla(0,50%,50%,0.6)"
    stroke-width="1"
    transform="translate(2.4428402388,-55.9114830035) scale(1,-1) translate(50,-110)"
    />
  
  <line
    x1="3.489430894308943"
    y1="37.479878048780485"
    x2="12.333333333333334"
    y2="37.72222222222222"
    stroke="hsla(0,50%,50%,0.6)"
    stroke-width="1"
    transform="translate(2.4428402388,-55.9114830035) scale(1,-1) translate(50,-110)"
    />
  
  <line
    x1="15.714928425357874"
    y1="41.19775051124744"
    x2="0"
    y2="50.458333333333336"
    stroke="hsla(0,50%,50%,0.6)"
    stroke-width="1"
    transform="translate(2.4428402388,-55.9114830035) scale(1,-1) translate(50,-110)"
    />
  
  <line
    x1="-28.30952380952381"
    y1="100"
    x2="-4.435897435897436"
    y2="140.51282051282053"
    stroke="hsla(0,50%,50%,0.6)"
    stroke-width="1"
    transform="translate(2.4428402388,-55.9114830035) scale(1,-1) translate(50,-110)"
    />
  
  <line
    x1="-11.846115360561889"
    y1="61.945908500505126"
    x2="62.43458892577092"
    y2="108.50577764949247"
    stroke="hsla(0,50%,50%,0.6)"
    stroke-width="1"
    transform="translate(2.4428402388,-55.9114830035) scale(1,-1) translate(50,-110)"
    />
  
  <line
    x1="69.78854805725972"
    y1="96.77341513292434"
    x2="62.43458892577092"
    y2="108.50577764949247"
    stroke="hsla(0,50%,50%,0.6)"
    stroke-width="1"
    transform="translate(2.4428402388,-55.9114830035) scale(1,-1) translate(50,-110)"
    />
  
  <line
    x1="-28.30952380952381"
    y1="100"
    x2="12.333333333333334"
    y2="100"
    stroke="hsla(0,50%,50%,0.6)"
    stroke-width="1"
    transform="translate(2.4428402388,-55.9114830035) scale(1,-1) translate(50,-110)"
    />
  
  <line
    x1="69.78854805725972"
    y1="96.77341513292434"
    x2="-4.435897435897436"
    y2="140.51282051282053"
    stroke="hsla(0,50%,50%,0.6)"
    stroke-width="1"
    transform="translate(2.4428402388,-55.9114830035) scale(1,-1) translate(50,-110)"
    />
  
</svg>
