<?xml version="1.0"?>
<!DOCTYPE svg PUBLIC "-//W3C//DTD SVG 1.1//EN"
  "http://www.w3.org/Graphics/SVG/1.1/DTD/svg11.dtd">
<svg
  width="240"
  height="240"
  viewBox="-500 -500 1000 1000" xmlns="http://www.w3.org/2000/svg" version="1.1">
  <rect
    x="0"
    y="0"
    width="100"
    height="100"
    fill="hsla(206,100%,53%,0.3)"
    stroke="hsl(206,100%,53%)"
    stroke-width="3"
    transform="" />
  
  <path
    d="M 
      10.1666666666
      16.6049382716
      L
    
      11.7558698551
      16.7273657764
      L
    
      25.5234823559
      33.4451809560
      L
    
      25.5064007877
      33.6669128508
      L
    
      10.1666666666
      32.4851851851
      L
    
      10.1666666666
      49.9236111111
      L
    
      33.4914361001
      43.1205533596
      L
    
      41.0215053763
      52.2642089093
      L
    
      42.4066666666
      57.0133333333
      L
    
      10.1666666666
      66.4166666666
      L
    
      -5.6666666666
      54.5416666666
      L
    
      -5.6666666666
      31.2654320987
      z
    "
    fill="hsla(0,0%,50%,0.3)"
    stroke="hsla(0,0%,50%,1)"
    stroke-width="1"
    transform="translate(-18.37,-41.5108024691)"
    />
  
  
  <line
    x1="41.02150537634409"
    y1="52.2642089093702"
    x2="42.406666666666666"
    y2="57.013333333333335"
    stroke="hsla(0,50%,50%,0.6)"
    stroke-width="1"
    transform="translate(-18.37,-41.5108024691)"
    />
  
  <line
    x1="-5.666666666666667"
    y1="31.265432098765434"
    x2="-5.666666666666667"
    y2="54.541666666666664"
    stroke="hsla(0,50%,50%,0.6)"
    stroke-width="1"
    transform="translate(-18.37,-41.5108024691)"
    />
  
  <line
    x1="0"
    y1="26.01851851851852"
    x2="0"
    y2="58.791666666666664"
    stroke="hsla(0,50%,50%,0.6)"
    stroke-width="1"
    transform="translate(-18.37,-41.5108024691)"
    />
  
  <line
    x1="2.1666666666666665"
    y1="24.012345679012345"
    x2="2.1666666666666665"
    y2="60.416666666666664"
    stroke="hsla(0,50%,50%,0.6)"
    stroke-width="1"
    transform="translate(-18.37,-41.5108024691)"
    />
  
  <line
    x1="3.3333333333333335"
    y1="22.932098765432098"
    x2="3.3333333333333335"
    y2="61.291666666666664"
    stroke="hsla(0,50%,50%,0.6)"
    stroke-width="1"
    transform="translate(-18.37,-41.5108024691)"
    />
  
  <line
    x1="3.8333333333333335"
    y1="22.469135802469136"
    x2="3.8333333333333335"
    y2="61.666666666666664"
    stroke="hsla(0,50%,50%,0.6)"
    stroke-width="1"
    transform="translate(-18.37,-41.5108024691)"
    />
  
  <line
    x1="10.166666666666666"
    y1="16.604938271604937"
    x2="10.166666666666666"
    y2="66.41666666666667"
    stroke="hsla(0,50%,50%,0.6)"
    stroke-width="1"
    transform="translate(-18.37,-41.5108024691)"
    />
  
  <line
    x1="11.755869855153376"
    y1="16.727365776495766"
    x2="25.523482355977034"
    y2="33.445180956067354"
    stroke="hsla(0,50%,50%,0.6)"
    stroke-width="1"
    transform="translate(-18.37,-41.5108024691)"
    />
  
  <line
    x1="33.49143610013175"
    y1="43.1205533596838"
    x2="41.02150537634409"
    y2="52.2642089093702"
    stroke="hsla(0,50%,50%,0.6)"
    stroke-width="1"
    transform="translate(-18.37,-41.5108024691)"
    />
  
  <line
    x1="11.755869855153376"
    y1="16.727365776495766"
    x2="10.017563335312959"
    y2="31.637402731882624"
    stroke="hsla(0,50%,50%,0.6)"
    stroke-width="1"
    transform="translate(-18.37,-41.5108024691)"
    />
  
  <line
    x1="25.523482355977034"
    y1="33.445180956067354"
    x2="25.506400787789268"
    y2="33.66691285081241"
    stroke="hsla(0,50%,50%,0.6)"
    stroke-width="1"
    transform="translate(-18.37,-41.5108024691)"
    />
  
  <line
    x1="17.341366582922365"
    y1="23.509754660215254"
    x2="16.308288030374555"
    y2="32.370815250219536"
    stroke="hsla(0,50%,50%,0.6)"
    stroke-width="1"
    transform="translate(-18.37,-41.5108024691)"
    />
  
  <line
    x1="17.782326850904127"
    y1="24.045206414193107"
    x2="16.804924190511"
    y2="32.42871623850929"
    stroke="hsla(0,50%,50%,0.6)"
    stroke-width="1"
    transform="translate(-18.37,-41.5108024691)"
    />
  
  <line
    x1="18.811234142861572"
    y1="25.294593840141435"
    x2="17.96374189749603"
    y2="32.563818544518725"
    stroke="hsla(0,50%,50%,0.6)"
    stroke-width="1"
    transform="translate(-18.37,-41.5108024691)"
    />
  
  <line
    x1="20.722061970782544"
    y1="27.61488477404547"
    x2="20.11583192475394"
    y2="32.814722827107666"
    stroke="hsla(0,50%,50%,0.6)"
    stroke-width="1"
    transform="translate(-18.37,-41.5108024691)"
    />
  
  <line
    x1="10.166666666666666"
    y1="16.604938271604937"
    x2="-5.666666666666667"
    y2="31.265432098765434"
    stroke="hsla(0,50%,50%,0.6)"
    stroke-width="1"
    transform="translate(-18.37,-41.5108024691)"
    />
  
  <line
    x1="10.166666666666666"
    y1="16.604938271604937"
    x2="11.755869855153376"
    y2="16.727365776495766"
    stroke="hsla(0,50%,50%,0.6)"
    stroke-width="1"
    transform="translate(-18.37,-41.5108024691)"
    />
  
  <line
    x1="3.8333333333333335"
    y1="22.469135802469136"
    x2="17.341366582922365"
    y2="23.509754660215254"
    stroke="hsla(0,50%,50%,0.6)"
    stroke-width="1"
    transform="translate(-18.37,-41.5108024691)"
    />
  
  <line
    x1="3.3333333333333335"
    y1="22.932098765432098"
    x2="17.782326850904127"
    y2="24.045206414193107"
    stroke="hsla(0,50%,50%,0.6)"
    stroke-width="1"
    transform="translate(-18.37,-41.5108024691)"
    />
  
  <line
    x1="33.49143610013175"
    y1="43.1205533596838"
    x2="31.349058419243985"
    y2="47.26861855670103"
    stroke="hsla(0,50%,50%,0.6)"
    stroke-width="1"
    transform="translate(-18.37,-41.5108024691)"
    />
  
  <line
    x1="2.1666666666666665"
    y1="24.012345679012345"
    x2="18.811234142861572"
    y2="25.294593840141435"
    stroke="hsla(0,50%,50%,0.6)"
    stroke-width="1"
    transform="translate(-18.37,-41.5108024691)"
    />
  
  <line
    x1="31.349058419243985"
    y1="47.26861855670103"
    x2="41.02150537634409"
    y2="52.2642089093702"
    stroke="hsla(0,50%,50%,0.6)"
    stroke-width="1"
    transform="translate(-18.37,-41.5108024691)"
    />
  
  <line
    x1="37.41106719367589"
    y1="47.88010540184453"
    x2="36.38386254295533"
    y2="49.86897594501718"
    stroke="hsla(0,50%,50%,0.6)"
    stroke-width="1"
    transform="translate(-18.37,-41.5108024691)"
    />
  
  <line
    x1="0"
    y1="26.01851851851852"
    x2="20.722061970782544"
    y2="27.61488477404547"
    stroke="hsla(0,50%,50%,0.6)"
    stroke-width="1"
    transform="translate(-18.37,-41.5108024691)"
    />
  
  <line
    x1="38.909749670619235"
    y1="49.699934123847164"
    x2="38.30893470790378"
    y2="50.863230240549825"
    stroke="hsla(0,50%,50%,0.6)"
    stroke-width="1"
    transform="translate(-18.37,-41.5108024691)"
    />
  
  <line
    x1="39.7167325428195"
    y1="50.6798418972332"
    x2="39.34551202749141"
    y2="51.39859793814433"
    stroke="hsla(0,50%,50%,0.6)"
    stroke-width="1"
    transform="translate(-18.37,-41.5108024691)"
    />
  
  <line
    x1="40.06258234519104"
    y1="51.0998023715415"
    x2="39.78975945017182"
    y2="51.6280412371134"
    stroke="hsla(0,50%,50%,0.6)"
    stroke-width="1"
    transform="translate(-18.37,-41.5108024691)"
    />
  
  <line
    x1="10.017563335312959"
    y1="31.637402731882624"
    x2="25.523482355977034"
    y2="33.445180956067354"
    stroke="hsla(0,50%,50%,0.6)"
    stroke-width="1"
    transform="translate(-18.37,-41.5108024691)"
    />
  
  <line
    x1="-5.666666666666667"
    y1="31.265432098765434"
    x2="25.506400787789268"
    y2="33.66691285081241"
    stroke="hsla(0,50%,50%,0.6)"
    stroke-width="1"
    transform="translate(-18.37,-41.5108024691)"
    />
  
  <line
    x1="-5.666666666666667"
    y1="54.541666666666664"
    x2="10.166666666666666"
    y2="66.41666666666667"
    stroke="hsla(0,50%,50%,0.6)"
    stroke-width="1"
    transform="translate(-18.37,-41.5108024691)"
    />
  
  <line
    x1="33.49143610013175"
    y1="43.1205533596838"
    x2="-5.666666666666667"
    y2="54.541666666666664"
    stroke="hsla(0,50%,50%,0.6)"
    stroke-width="1"
    transform="translate(-18.37,-41.5108024691)"
    />
  
  <line
    x1="37.41106719367589"
    y1="47.88010540184453"
    x2="0"
    y2="58.791666666666664"
    stroke="hsla(0,50%,50%,0.6)"
    stroke-width="1"
    transform="translate(-18.37,-41.5108024691)"
    />
  
  <line
    x1="38.909749670619235"
    y1="49.699934123847164"
    x2="2.1666666666666665"
    y2="60.416666666666664"
    stroke="hsla(0,50%,50%,0.6)"
    stroke-width="1"
    transform="translate(-18.37,-41.5108024691)"
    />
  
  <line
    x1="39.7167325428195"
    y1="50.6798418972332"
    x2="3.3333333333333335"
    y2="61.291666666666664"
    stroke="hsla(0,50%,50%,0.6)"
    stroke-width="1"
    transform="translate(-18.37,-41.5108024691)"
    />
  
  <line
    x1="40.06258234519104"
    y1="51.0998023715415"
    x2="3.8333333333333335"
    y2="61.666666666666664"
    stroke="hsla(0,50%,50%,0.6)"
    stroke-width="1"
    transform="translate(-18.37,-41.5108024691)"
    />
  
  <line
    x1="42.406666666666666"
    y1="57.013333333333335"
    x2="10.166666666666666"
    y2="66.41666666666667"
    stroke="hsla(0,50%,50%,0.6)"
    stroke-width="1"
    transform="translate(-18.37,-41.5108024691)"
    />
  
</svg>
