<?xml version="1.0"?>
<!DOCTYPE svg PUBLIC "-//W3C//DTD SVG 1.1//EN"
  "http://www.w3.org/Graphics/SVG/1.1/DTD/svg11.dtd">
<svg
  width="240"
  height="240"
  viewBox="-50 -50 200 200" xmlns="http://www.w3.org/2000/svg" version="1.1">
  <rect
    x="0"
    y="0"
    width="100"
    height="100"
    fill="hsla(206,100%,53%,0.3)"
    stroke="hsl(206,100%,53%)"
    stroke-width="3"
    transform="" />
  
  <path
    d="M 
      31.7020997375
      16.0446194225
      L
    
      37.6716572018
      19.2291344002
      L
    
      38.3580922209
      22.0179460102
      L
    
      57.6181678214
      39.3026292414
      L
    
      56.6754650630
      51.5396362012
      L
    
      72.9531790405
      49.5593060214
      L
    
      74.3154686802
      56.3511979864
      L
    
      52.5505050505
      78.1161616161
      L
    
      26.6666666666
      55.1904761904
      L
    
      26.6666666666
      45.0913061370
      L
    
      22.9279763448
      45.7905313597
      L
    
      21.6381241401
      38.8938151115
      L
    
      18.0826656955
      39.2793153678
      L
    
      17.7279413985
      36.0077027639
      z
    "
    fill="hsla(0,0%,50%,0.3)"
    stroke="hsla(0,0%,50%,1)"
    stroke-width="1"
    transform="translate(-19.7170477099,-38.8251734956) scale(1,-1) translate(50,-110)"
    />
  
  
  <line
    x1="72.95317904058373"
    y1="49.559306021483515"
    x2="74.31546868021918"
    y2="56.35119798644748"
    stroke="hsla(0,50%,50%,0.6)"
    stroke-width="1"
    transform="translate(-19.7170477099,-38.8251734956) scale(1,-1) translate(50,-110)"
    />
  
  <line
    x1="71.14821591948765"
    y1="49.778896004879535"
    x2="72.20460147904684"
    y2="58.46206518761983"
    stroke="hsla(0,50%,50%,0.6)"
    stroke-width="1"
    transform="translate(-19.7170477099,-38.8251734956) scale(1,-1) translate(50,-110)"
    />
  
  <line
    x1="37.671657201858544"
    y1="19.22913440027534"
    x2="40.42634721074868"
    y2="30.420742149247797"
    stroke="hsla(0,50%,50%,0.6)"
    stroke-width="1"
    transform="translate(-19.7170477099,-38.8251734956) scale(1,-1) translate(50,-110)"
    />
  
  <line
    x1="31.70209973753281"
    y1="16.04461942257218"
    x2="57.61816782140108"
    y2="39.30262924142832"
    stroke="hsla(0,50%,50%,0.6)"
    stroke-width="1"
    transform="translate(-19.7170477099,-38.8251734956) scale(1,-1) translate(50,-110)"
    />
  
  <line
    x1="72.95317904058373"
    y1="49.559306021483515"
    x2="73.298394866128"
    y2="57.36827180053866"
    stroke="hsla(0,50%,50%,0.6)"
    stroke-width="1"
    transform="translate(-19.7170477099,-38.8251734956) scale(1,-1) translate(50,-110)"
    />
  
  <line
    x1="20.395957411870437"
    y1="32.196251316375566"
    x2="21.242512348494447"
    y2="35.14263014001499"
    stroke="hsla(0,50%,50%,0.6)"
    stroke-width="1"
    transform="translate(-19.7170477099,-38.8251734956) scale(1,-1) translate(50,-110)"
    />
  
  <line
    x1="20.3877192856904"
    y1="32.20802006806133"
    x2="22.92797634480555"
    y2="45.79053135970032"
    stroke="hsla(0,50%,50%,0.6)"
    stroke-width="1"
    transform="translate(-19.7170477099,-38.8251734956) scale(1,-1) translate(50,-110)"
    />
  
  <line
    x1="47.58852570650323"
    y1="30.301668369084098"
    x2="49.31740614334471"
    y2="75.25255972696246"
    stroke="hsla(0,50%,50%,0.6)"
    stroke-width="1"
    transform="translate(-19.7170477099,-38.8251734956) scale(1,-1) translate(50,-110)"
    />
  
  <line
    x1="17.727941398580274"
    y1="36.00770276393294"
    x2="18.082665695557175"
    y2="39.27931536780772"
    stroke="hsla(0,50%,50%,0.6)"
    stroke-width="1"
    transform="translate(-19.7170477099,-38.8251734956) scale(1,-1) translate(50,-110)"
    />
  
  <line
    x1="31.70209973753281"
    y1="16.04461942257218"
    x2="37.671657201858544"
    y2="19.22913440027534"
    stroke="hsla(0,50%,50%,0.6)"
    stroke-width="1"
    transform="translate(-19.7170477099,-38.8251734956) scale(1,-1) translate(50,-110)"
    />
  
  <line
    x1="26.666666666666668"
    y1="23.238095238095237"
    x2="26.666666666666668"
    y2="55.19047619047619"
    stroke="hsla(0,50%,50%,0.6)"
    stroke-width="1"
    transform="translate(-19.7170477099,-38.8251734956) scale(1,-1) translate(50,-110)"
    />
  
  <line
    x1="53.333333333333336"
    y1="35.457264957264954"
    x2="53.333333333333336"
    y2="77.33333333333333"
    stroke="hsla(0,50%,50%,0.6)"
    stroke-width="1"
    transform="translate(-19.7170477099,-38.8251734956) scale(1,-1) translate(50,-110)"
    />
  
  <line
    x1="57.61816782140108"
    y1="39.30262924142832"
    x2="54.80149812734082"
    y2="75.86516853932584"
    stroke="hsla(0,50%,50%,0.6)"
    stroke-width="1"
    transform="translate(-19.7170477099,-38.8251734956) scale(1,-1) translate(50,-110)"
    />
  
  <line
    x1="57.45796091678983"
    y1="56.66800384732681"
    x2="55.96455728665769"
    y2="74.70210938000898"
    stroke="hsla(0,50%,50%,0.6)"
    stroke-width="1"
    transform="translate(-19.7170477099,-38.8251734956) scale(1,-1) translate(50,-110)"
    />
  
  <line
    x1="54.41628545288198"
    y1="56.297956694114056"
    x2="51.857142857142854"
    y2="77.33333333333333"
    stroke="hsla(0,50%,50%,0.6)"
    stroke-width="1"
    transform="translate(-19.7170477099,-38.8251734956) scale(1,-1) translate(50,-110)"
    />
  
  <line
    x1="50.82789819180832"
    y1="76.17128290472982"
    x2="52.55050505050505"
    y2="78.11616161616162"
    stroke="hsla(0,50%,50%,0.6)"
    stroke-width="1"
    transform="translate(-19.7170477099,-38.8251734956) scale(1,-1) translate(50,-110)"
    />
  
  <line
    x1="55.55795643283903"
    y1="52.588893648899514"
    x2="50.82789819180832"
    y2="76.17128290472982"
    stroke="hsla(0,50%,50%,0.6)"
    stroke-width="1"
    transform="translate(-19.7170477099,-38.8251734956) scale(1,-1) translate(50,-110)"
    />
  
  <line
    x1="26.666666666666668"
    y1="55.19047619047619"
    x2="52.55050505050505"
    y2="78.11616161616162"
    stroke="hsla(0,50%,50%,0.6)"
    stroke-width="1"
    transform="translate(-19.7170477099,-38.8251734956) scale(1,-1) translate(50,-110)"
    />
  
  <line
    x1="31.70209973753281"
    y1="16.04461942257218"
    x2="17.727941398580274"
    y2="36.00770276393294"
    stroke="hsla(0,50%,50%,0.6)"
    stroke-width="1"
    transform="translate(-19.7170477099,-38.8251734956) scale(1,-1) translate(50,-110)"
    />
  
  <line
    x1="37.671657201858544"
    y1="19.22913440027534"
    x2="26.666666666666668"
    y2="23.238095238095237"
    stroke="hsla(0,50%,50%,0.6)"
    stroke-width="1"
    transform="translate(-19.7170477099,-38.8251734956) scale(1,-1) translate(50,-110)"
    />
  
  <line
    x1="47.58852570650323"
    y1="30.301668369084098"
    x2="20.395957411870437"
    y2="32.196251316375566"
    stroke="hsla(0,50%,50%,0.6)"
    stroke-width="1"
    transform="translate(-19.7170477099,-38.8251734956) scale(1,-1) translate(50,-110)"
    />
  
  <line
    x1="40.06258695071921"
    y1="28.942876352451915"
    x2="20.3877192856904"
    y2="32.20802006806133"
    stroke="hsla(0,50%,50%,0.6)"
    stroke-width="1"
    transform="translate(-19.7170477099,-38.8251734956) scale(1,-1) translate(50,-110)"
    />
  
  <line
    x1="40.06258695071921"
    y1="28.942876352451915"
    x2="21.242512348494447"
    y2="35.14263014001499"
    stroke="hsla(0,50%,50%,0.6)"
    stroke-width="1"
    transform="translate(-19.7170477099,-38.8251734956) scale(1,-1) translate(50,-110)"
    />
  
  <line
    x1="40.42634721074868"
    y1="30.420742149247797"
    x2="17.727941398580274"
    y2="36.00770276393294"
    stroke="hsla(0,50%,50%,0.6)"
    stroke-width="1"
    transform="translate(-19.7170477099,-38.8251734956) scale(1,-1) translate(50,-110)"
    />
  
  <line
    x1="55.55795643283903"
    y1="52.588893648899514"
    x2="74.31546868021918"
    y2="56.35119798644748"
    stroke="hsla(0,50%,50%,0.6)"
    stroke-width="1"
    transform="translate(-19.7170477099,-38.8251734956) scale(1,-1) translate(50,-110)"
    />
  
  <line
    x1="53.333333333333336"
    y1="35.457264957264954"
    x2="18.082665695557175"
    y2="39.27931536780772"
    stroke="hsla(0,50%,50%,0.6)"
    stroke-width="1"
    transform="translate(-19.7170477099,-38.8251734956) scale(1,-1) translate(50,-110)"
    />
  
  <line
    x1="57.61816782140108"
    y1="39.30262924142832"
    x2="22.92797634480555"
    y2="45.79053135970032"
    stroke="hsla(0,50%,50%,0.6)"
    stroke-width="1"
    transform="translate(-19.7170477099,-38.8251734956) scale(1,-1) translate(50,-110)"
    />
  
  <line
    x1="54.41628545288198"
    y1="56.297956694114056"
    x2="72.20460147904684"
    y2="58.46206518761983"
    stroke="hsla(0,50%,50%,0.6)"
    stroke-width="1"
    transform="translate(-19.7170477099,-38.8251734956) scale(1,-1) translate(50,-110)"
    />
  
  <line
    x1="57.45796091678983"
    y1="56.66800384732681"
    x2="73.298394866128"
    y2="57.36827180053866"
    stroke="hsla(0,50%,50%,0.6)"
    stroke-width="1"
    transform="translate(-19.7170477099,-38.8251734956) scale(1,-1) translate(50,-110)"
    />
  
  <line
    x1="72.95317904058373"
    y1="49.559306021483515"
    x2="26.666666666666668"
    y2="55.19047619047619"
    stroke="hsla(0,50%,50%,0.6)"
    stroke-width="1"
    transform="translate(-19.7170477099,-38.8251734956) scale(1,-1) translate(50,-110)"
    />
  
  <line
    x1="74.31546868021918"
    y1="56.35119798644748"
    x2="52.55050505050505"
    y2="78.11616161616162"
    stroke="hsla(0,50%,50%,0.6)"
    stroke-width="1"
    transform="translate(-19.7170477099,-38.8251734956) scale(1,-1) translate(50,-110)"
    />
  
  <line
    x1="51.857142857142854"
    y1="77.33333333333333"
    x2="53.333333333333336"
    y2="77.33333333333333"
    stroke="hsla(0,50%,50%,0.6)"
    stroke-width="1"
    transform="translate(-19.7170477099,-38.8251734956) scale(1,-1) translate(50,-110)"
    />
  
  <line
    x1="55.96455728665769"
    y1="74.70210938000898"
    x2="49.31740614334471"
    y2="75.25255972696246"
    stroke="hsla(0,50%,50%,0.6)"
    stroke-width="1"
    transform="translate(-19.7170477099,-38.8251734956) scale(1,-1) translate(50,-110)"
    />
  
  <line
    x1="54.80149812734082"
    y1="75.86516853932584"
    x2="50.82789819180832"
    y2="76.17128290472982"
    stroke="hsla(0,50%,50%,0.6)"
    stroke-width="1"
    transform="translate(-19.7170477099,-38.8251734956) scale(1,-1) translate(50,-110)"
    />
  
</svg>
