<?xml version="1.0"?>
<!DOCTYPE svg PUBLIC "-//W3C//DTD SVG 1.1//EN"
  "http://www.w3.org/Graphics/SVG/1.1/DTD/svg11.dtd">
<svg
  width="240"
  height="240"
  viewBox="-500 -500 1000 1000" xmlns="http://www.w3.org/2000/svg" version="1.1">
  <rect
    x="0"
    y="0"
    width="100"
    height="100"
    fill="hsla(206,100%,53%,0.3)"
    stroke="hsl(206,100%,53%)"
    stroke-width="3"
    transform="" />
  
  <path
    d="M 
      20
      20
      L
    
      60
      20
      L
    
      70
      30
      L
    
      70
      80
      L
    
      60
      80
      L
    
      60
      30
      L
    
      20
      30
      z
    "
    fill="hsla(0,0%,50%,0.3)"
    stroke="hsla(0,0%,50%,1)"
    stroke-width="1"
    transform="translate(-45,-50)"
    />
  
  
  <line
    x1="60"
    y1="20"
    x2="70"
    y2="30"
    stroke="hsla(0,50%,50%,0.6)"
    stroke-width="1"
    transform="translate(-45,-50)"
    />
  
  <line
    x1="20"
    y1="20"
    x2="20"
    y2="30"
    stroke="hsla(0,50%,50%,0.6)"
    stroke-width="1"
    transform="translate(-45,-50)"
    />
  
  <line
    x1="60"
    y1="20"
    x2="60"
    y2="80"
    stroke="hsla(0,50%,50%,0.6)"
    stroke-width="1"
    transform="translate(-45,-50)"
    />
  
  <line
    x1="70"
    y1="30"
    x2="70"
    y2="80"
    stroke="hsla(0,50%,50%,0.6)"
    stroke-width="1"
    transform="translate(-45,-50)"
    />
  
  <line
    x1="20"
    y1="20"
    x2="60"
    y2="20"
    stroke="hsla(0,50%,50%,0.6)"
    stroke-width="1"
    transform="translate(-45,-50)"
    />
  
  <line
    x1="20"
    y1="30"
    x2="70"
    y2="30"
    stroke="hsla(0,50%,50%,0.6)"
    stroke-width="1"
    transform="translate(-45,-50)"
    />
  
  <line
    x1="60"
    y1="80"
    x2="70"
    y2="80"
    stroke="hsla(0,50%,50%,0.6)"
    stroke-width="1"
    transform="translate(-45,-50)"
    />
  
</svg>
