<?xml version="1.0"?>
<!DOCTYPE svg PUBLIC "-//W3C//DTD SVG 1.1//EN"
  "http://www.w3.org/Graphics/SVG/1.1/DTD/svg11.dtd">
<svg
  width="240"
  height="240"
  viewBox="-500 -500 1000 1000" xmlns="http://www.w3.org/2000/svg" version="1.1">
  <rect
    x="0"
    y="0"
    width="100"
    height="100"
    fill="hsla(206,100%,53%,0.3)"
    stroke="hsl(206,100%,53%)"
    stroke-width="3"
    transform="" />
  
  <path
    d="M 
      120.4804624496
      15.3284671532
      L
    
      138.6275006631
      34.8278145077
      L
    
      137.9709239013
      35.4388566810
      L
    
      101.7727471987
      35.5110616421
      L
    
      70.6082932424
      69.1324594577
      L
    
      34.4810607921
      35.6452892204
      L
    
      3.8367136363
      35.7064158874
      L
    
      2.1634912654
      34.9798628068
      L
    
      -2.7027027027
      29.7510422488
      L
    
      12.6788012216
      15.4362688145
      z
    "
    fill="hsla(0,0%,50%,0.3)"
    stroke="hsla(0,0%,50%,1)"
    stroke-width="1"
    transform="translate(-67.9623989802,-42.2304633055)"
    />
  
  
  <line
    x1="120.48046244960172"
    y1="15.328467153284672"
    x2="138.62750066314177"
    y2="34.827814507751235"
    stroke="hsla(0,50%,50%,0.6)"
    stroke-width="1"
    transform="translate(-67.9623989802,-42.2304633055)"
    />
  
  <line
    x1="116.19295574768307"
    y1="15.33275465998659"
    x2="137.9709239013629"
    y2="35.438856681088076"
    stroke="hsla(0,50%,50%,0.6)"
    stroke-width="1"
    transform="translate(-67.9623989802,-42.2304633055)"
    />
  
  <line
    x1="50.09817413413274"
    y1="15.39884944160014"
    x2="94.98156028300129"
    y2="34.99450659599181"
    stroke="hsla(0,50%,50%,0.6)"
    stroke-width="1"
    transform="translate(-67.9623989802,-42.2304633055)"
    />
  
  <line
    x1="94.98156028300129"
    y1="15.353966055451268"
    x2="95.02190144651077"
    y2="35.524527639602475"
    stroke="hsla(0,50%,50%,0.6)"
    stroke-width="1"
    transform="translate(-67.9623989802,-42.2304633055)"
    />
  
  <line
    x1="95.02045036785343"
    y1="34.79513100832061"
    x2="95.02190144651077"
    y2="35.524527639602475"
    stroke="hsla(0,50%,50%,0.6)"
    stroke-width="1"
    transform="translate(-67.9623989802,-42.2304633055)"
    />
  
  <line
    x1="94.98156028300129"
    y1="15.353966055451268"
    x2="94.98156028300129"
    y2="34.99450659599181"
    stroke="hsla(0,50%,50%,0.6)"
    stroke-width="1"
    transform="translate(-67.9623989802,-42.2304633055)"
    />
  
  <line
    x1="12.678801221602138"
    y1="15.43626881451267"
    x2="70.60829324244685"
    y2="69.13245945775235"
    stroke="hsla(0,50%,50%,0.6)"
    stroke-width="1"
    transform="translate(-67.9623989802,-42.2304633055)"
    />
  
  <line
    x1="12.678801221602138"
    y1="15.43626881451267"
    x2="-2.7027027027027026"
    y2="29.751042248821413"
    stroke="hsla(0,50%,50%,0.6)"
    stroke-width="1"
    transform="translate(-67.9623989802,-42.2304633055)"
    />
  
  <line
    x1="-2.7027027027027026"
    y1="29.751042248821413"
    x2="2.1634912654013925"
    y2="34.97986280684907"
    stroke="hsla(0,50%,50%,0.6)"
    stroke-width="1"
    transform="translate(-67.9623989802,-42.2304633055)"
    />
  
  <line
    x1="120.48046244960172"
    y1="15.328467153284672"
    x2="12.678801221602138"
    y2="15.43626881451267"
    stroke="hsla(0,50%,50%,0.6)"
    stroke-width="1"
    transform="translate(-67.9623989802,-42.2304633055)"
    />
  
  <line
    x1="2.1634912654013925"
    y1="34.97986280684907"
    x2="3.8367136363928998"
    y2="35.706415887471685"
    stroke="hsla(0,50%,50%,0.6)"
    stroke-width="1"
    transform="translate(-67.9623989802,-42.2304633055)"
    />
  
  <line
    x1="50.09817413413274"
    y1="15.39884944160014"
    x2="3.8367136363928998"
    y2="35.706415887471685"
    stroke="hsla(0,50%,50%,0.6)"
    stroke-width="1"
    transform="translate(-67.9623989802,-42.2304633055)"
    />
  
  <line
    x1="95.02045036785343"
    y1="34.79513100832061"
    x2="2.1634912654013925"
    y2="34.97986280684907"
    stroke="hsla(0,50%,50%,0.6)"
    stroke-width="1"
    transform="translate(-67.9623989802,-42.2304633055)"
    />
  
  <line
    x1="137.9709239013629"
    y1="35.438856681088076"
    x2="3.8367136363928998"
    y2="35.706415887471685"
    stroke="hsla(0,50%,50%,0.6)"
    stroke-width="1"
    transform="translate(-67.9623989802,-42.2304633055)"
    />
  
  <line
    x1="116.19295574768307"
    y1="15.33275465998659"
    x2="94.98156028300129"
    y2="34.99450659599181"
    stroke="hsla(0,50%,50%,0.6)"
    stroke-width="1"
    transform="translate(-67.9623989802,-42.2304633055)"
    />
  
  <line
    x1="120.48046244960172"
    y1="15.328467153284672"
    x2="70.60829324244685"
    y2="69.13245945775235"
    stroke="hsla(0,50%,50%,0.6)"
    stroke-width="1"
    transform="translate(-67.9623989802,-42.2304633055)"
    />
  
  <line
    x1="138.62750066314177"
    y1="34.827814507751235"
    x2="137.9709239013629"
    y2="35.438856681088076"
    stroke="hsla(0,50%,50%,0.6)"
    stroke-width="1"
    transform="translate(-67.9623989802,-42.2304633055)"
    />
  
</svg>
