<?xml version="1.0"?>
<!DOCTYPE svg PUBLIC "-//W3C//DTD SVG 1.1//EN"
  "http://www.w3.org/Graphics/SVG/1.1/DTD/svg11.dtd">
<svg
  width="240"
  height="240"
  viewBox="-50 -50 200 200" xmlns="http://www.w3.org/2000/svg" version="1.1">
  <rect
    x="0"
    y="0"
    width="100"
    height="100"
    fill="hsla(206,100%,53%,0.3)"
    stroke="hsl(206,100%,53%)"
    stroke-width="3"
    transform="" />
  
  <path
    d="M 
      9.6031357177
      -8.0352768250
      L
    
      54.4444444444
      0
      L
    
      90
      0
      L
    
      96.6666666666
      3.3333333333
      L
    
      96.0770990778
      7.4603064549
      L
    
      108.0352768250
      9.6031357177
      L
    
      50
      50
      L
    
      0
      0
      L
    
      15.1962853524
      0
      z
    "
    fill="hsla(0,0%,50%,0.3)"
    stroke="hsla(0,0%,50%,1)"
    stroke-width="1"
    transform="translate(-60.3337159417,-6.9717807978) scale(1,-1) translate(50,-110)"
    />
  
  <path
    d="M 
      94.2857142857
      5.7142857142
      L
    
      93.0772477838
      6.9227522161
      L
    
      95.5204140310
      7.3605520414
      z
    "
    fill="hsla(0,0%,50%,0.3)"
    stroke="hsla(0,0%,50%,1)"
    stroke-width="1"
    transform="translate(-60.3337159417,-6.9717807978) scale(1,-1) translate(50,-110)"
    />
  
  
  <line
    x1="90"
    y1="0"
    x2="96"
    y2="8"
    stroke="hsla(0,50%,50%,0.6)"
    stroke-width="1"
    transform="translate(-60.3337159417,-6.9717807978) scale(1,-1) translate(50,-110)"
    />
  
  <line
    x1="90"
    y1="0"
    x2="96.66666666666667"
    y2="3.3333333333333335"
    stroke="hsla(0,50%,50%,0.6)"
    stroke-width="1"
    transform="translate(-60.3337159417,-6.9717807978) scale(1,-1) translate(50,-110)"
    />
  
  <line
    x1="9.603135717785399"
    y1="-8.035276825085742"
    x2="108.03527682508575"
    y2="9.603135717785399"
    stroke="hsla(0,50%,50%,0.6)"
    stroke-width="1"
    transform="translate(-60.3337159417,-6.9717807978) scale(1,-1) translate(50,-110)"
    />
  
  <line
    x1="9.603135717785399"
    y1="-8.035276825085742"
    x2="50"
    y2="50"
    stroke="hsla(0,50%,50%,0.6)"
    stroke-width="1"
    transform="translate(-60.3337159417,-6.9717807978) scale(1,-1) translate(50,-110)"
    />
  
  <line
    x1="0"
    y1="0"
    x2="90"
    y2="0"
    stroke="hsla(0,50%,50%,0.6)"
    stroke-width="1"
    transform="translate(-60.3337159417,-6.9717807978) scale(1,-1) translate(50,-110)"
    />
  
  <line
    x1="0"
    y1="0"
    x2="50"
    y2="50"
    stroke="hsla(0,50%,50%,0.6)"
    stroke-width="1"
    transform="translate(-60.3337159417,-6.9717807978) scale(1,-1) translate(50,-110)"
    />
  
  <line
    x1="54.44444444444444"
    y1="0"
    x2="50"
    y2="50"
    stroke="hsla(0,50%,50%,0.6)"
    stroke-width="1"
    transform="translate(-60.3337159417,-6.9717807978) scale(1,-1) translate(50,-110)"
    />
  
  <line
    x1="96.66666666666667"
    y1="3.3333333333333335"
    x2="96"
    y2="8"
    stroke="hsla(0,50%,50%,0.6)"
    stroke-width="1"
    transform="translate(-60.3337159417,-6.9717807978) scale(1,-1) translate(50,-110)"
    />
  
  <line
    x1="96.66666666666667"
    y1="3.3333333333333335"
    x2="50"
    y2="50"
    stroke="hsla(0,50%,50%,0.6)"
    stroke-width="1"
    transform="translate(-60.3337159417,-6.9717807978) scale(1,-1) translate(50,-110)"
    />
  
  <line
    x1="108.03527682508575"
    y1="9.603135717785399"
    x2="50"
    y2="50"
    stroke="hsla(0,50%,50%,0.6)"
    stroke-width="1"
    transform="translate(-60.3337159417,-6.9717807978) scale(1,-1) translate(50,-110)"
    />
  
</svg>
