<?xml version="1.0"?>
<!DOCTYPE svg PUBLIC "-//W3C//DTD SVG 1.1//EN"
  "http://www.w3.org/Graphics/SVG/1.1/DTD/svg11.dtd">
<svg
  width="240"
  height="240"
  viewBox="-50 -50 200 200" xmlns="http://www.w3.org/2000/svg" version="1.1">
  <rect
    x="0"
    y="0"
    width="100"
    height="100"
    fill="hsla(206,100%,53%,0.3)"
    stroke="hsl(206,100%,53%)"
    stroke-width="3"
    transform="" />
  
  <path
    d="M 
      53.125
      364.1592653500
      L
    
      78.125
      389.1592653500
      L
    
      78.125
      414.1592653500
      L
    
      103.125
      414.1592653500
      L
    
      78.125
      439.1592653500
      L
    
      53.125
      439.1592653500
      L
    
      53.125
      464.1592653500
      L
    
      28.125
      439.1592653500
      L
    
      28.125
      414.1592653500
      L
    
      3.125
      414.1592653500
      L
    
      28.125
      389.1592653500
      L
    
      53.125
      389.1592653500
      z
    "
    fill="hsla(0,0%,50%,0.3)"
    stroke="hsla(0,0%,50%,1)"
    stroke-width="1"
    transform="translate(-38.5131835937,-397.2281130062) scale(1,-1) translate(50,-110)"
    />
  
  
  <line
    x1="28.125"
    y1="389.15926535"
    x2="28.125"
    y2="439.15926535"
    stroke="hsla(0,50%,50%,0.6)"
    stroke-width="1"
    transform="translate(-38.5131835937,-397.2281130062) scale(1,-1) translate(50,-110)"
    />
  
  <line
    x1="53.125"
    y1="364.15926535"
    x2="53.125"
    y2="464.15926535"
    stroke="hsla(0,50%,50%,0.6)"
    stroke-width="1"
    transform="translate(-38.5131835937,-397.2281130062) scale(1,-1) translate(50,-110)"
    />
  
  <line
    x1="78.125"
    y1="389.15926535"
    x2="78.125"
    y2="439.15926535"
    stroke="hsla(0,50%,50%,0.6)"
    stroke-width="1"
    transform="translate(-38.5131835937,-397.2281130062) scale(1,-1) translate(50,-110)"
    />
  
  <line
    x1="53.125"
    y1="364.15926535"
    x2="78.125"
    y2="389.15926535"
    stroke="hsla(0,50%,50%,0.6)"
    stroke-width="1"
    transform="translate(-38.5131835937,-397.2281130062) scale(1,-1) translate(50,-110)"
    />
  
  <line
    x1="28.125"
    y1="389.15926535"
    x2="78.125"
    y2="439.15926535"
    stroke="hsla(0,50%,50%,0.6)"
    stroke-width="1"
    transform="translate(-38.5131835937,-397.2281130062) scale(1,-1) translate(50,-110)"
    />
  
  <line
    x1="28.125"
    y1="439.15926535"
    x2="53.125"
    y2="464.15926535"
    stroke="hsla(0,50%,50%,0.6)"
    stroke-width="1"
    transform="translate(-38.5131835937,-397.2281130062) scale(1,-1) translate(50,-110)"
    />
  
  <line
    x1="28.125"
    y1="389.15926535"
    x2="3.125"
    y2="414.15926535"
    stroke="hsla(0,50%,50%,0.6)"
    stroke-width="1"
    transform="translate(-38.5131835937,-397.2281130062) scale(1,-1) translate(50,-110)"
    />
  
  <line
    x1="78.125"
    y1="389.15926535"
    x2="28.125"
    y2="439.15926535"
    stroke="hsla(0,50%,50%,0.6)"
    stroke-width="1"
    transform="translate(-38.5131835937,-397.2281130062) scale(1,-1) translate(50,-110)"
    />
  
  <line
    x1="103.125"
    y1="414.15926535"
    x2="78.125"
    y2="439.15926535"
    stroke="hsla(0,50%,50%,0.6)"
    stroke-width="1"
    transform="translate(-38.5131835937,-397.2281130062) scale(1,-1) translate(50,-110)"
    />
  
  <line
    x1="28.125"
    y1="389.15926535"
    x2="78.125"
    y2="389.15926535"
    stroke="hsla(0,50%,50%,0.6)"
    stroke-width="1"
    transform="translate(-38.5131835937,-397.2281130062) scale(1,-1) translate(50,-110)"
    />
  
  <line
    x1="3.125"
    y1="414.15926535"
    x2="103.125"
    y2="414.15926535"
    stroke="hsla(0,50%,50%,0.6)"
    stroke-width="1"
    transform="translate(-38.5131835937,-397.2281130062) scale(1,-1) translate(50,-110)"
    />
  
  <line
    x1="28.125"
    y1="439.15926535"
    x2="78.125"
    y2="439.15926535"
    stroke="hsla(0,50%,50%,0.6)"
    stroke-width="1"
    transform="translate(-38.5131835937,-397.2281130062) scale(1,-1) translate(50,-110)"
    />
  
</svg>
