<?xml version="1.0"?>
<!DOCTYPE svg PUBLIC "-//W3C//DTD SVG 1.1//EN"
  "http://www.w3.org/Graphics/SVG/1.1/DTD/svg11.dtd">
<svg
  width="240"
  height="240"
  viewBox="-50 -50 200 200" xmlns="http://www.w3.org/2000/svg" version="1.1">
  <rect
    x="0"
    y="0"
    width="100"
    height="100"
    fill="hsla(206,100%,53%,0.3)"
    stroke="hsl(206,100%,53%)"
    stroke-width="3"
    transform="" />
  
  <path
    d="M 
      61.7639433065
      -2.2544033619
      L
    
      80.8155116812
      0
      L
    
      74.9194974033
      100
      L
    
      0
      100
      L
    
      0
      0
      L
    
      61.4971760557
      0
      z
    "
    fill="hsla(0,0%,50%,0.3)"
    stroke="hsla(0,0%,50%,1)"
    stroke-width="1"
    transform="translate(-39.8866645839,-18.6795498949) scale(1,-1) translate(50,-110)"
    />
  
  
  <line
    x1="61.76394330657384"
    y1="-2.254403361957635"
    x2="80.81551168123546"
    y2="0"
    stroke="hsla(0,50%,50%,0.6)"
    stroke-width="1"
    transform="translate(-39.8866645839,-18.6795498949) scale(1,-1) translate(50,-110)"
    />
  
  <line
    x1="0"
    y1="0"
    x2="80.81551168123546"
    y2="0"
    stroke="hsla(0,50%,50%,0.6)"
    stroke-width="1"
    transform="translate(-39.8866645839,-18.6795498949) scale(1,-1) translate(50,-110)"
    />
  
  <line
    x1="0"
    y1="0"
    x2="0"
    y2="100"
    stroke="hsla(0,50%,50%,0.6)"
    stroke-width="1"
    transform="translate(-39.8866645839,-18.6795498949) scale(1,-1) translate(50,-110)"
    />
  
  <line
    x1="80.81551168123546"
    y1="0"
    x2="74.9194974033164"
    y2="100"
    stroke="hsla(0,50%,50%,0.6)"
    stroke-width="1"
    transform="translate(-39.8866645839,-18.6795498949) scale(1,-1) translate(50,-110)"
    />
  
  <line
    x1="61.76394330657384"
    y1="-2.254403361957635"
    x2="50.01276535228573"
    y2="97.05274550803387"
    stroke="hsla(0,50%,50%,0.6)"
    stroke-width="1"
    transform="translate(-39.8866645839,-18.6795498949) scale(1,-1) translate(50,-110)"
    />
  
  <line
    x1="50.01276535228573"
    y1="97.05274550803387"
    x2="74.9194974033164"
    y2="100"
    stroke="hsla(0,50%,50%,0.6)"
    stroke-width="1"
    transform="translate(-39.8866645839,-18.6795498949) scale(1,-1) translate(50,-110)"
    />
  
  <line
    x1="0"
    y1="100"
    x2="74.9194974033164"
    y2="100"
    stroke="hsla(0,50%,50%,0.6)"
    stroke-width="1"
    transform="translate(-39.8866645839,-18.6795498949) scale(1,-1) translate(50,-110)"
    />
  
</svg>
