<?xml version="1.0"?>
<!DOCTYPE svg PUBLIC "-//W3C//DTD SVG 1.1//EN"
  "http://www.w3.org/Graphics/SVG/1.1/DTD/svg11.dtd">
<svg
  width="240"
  height="240"
  viewBox="-50 -50 200 200" xmlns="http://www.w3.org/2000/svg" version="1.1">
  <rect
    x="0"
    y="0"
    width="100"
    height="100"
    fill="hsla(206,100%,53%,0.3)"
    stroke="hsl(206,100%,53%)"
    stroke-width="3"
    transform="" />
  
  <path
    d="M 
      100
      17.3721690671
      L
    
      115.3350463926
      25.5348040724
      L
    
      100
      54.3445753917
      L
    
      100
      100
      L
    
      75.6982432561
      100
      L
    
      68.3481964846
      113.8084464336
      L
    
      42.4064305557
      100
      L
    
      0
      100
      L
    
      0
      77.4276382580
      z
    "
    fill="hsla(0,0%,50%,0.3)"
    stroke="hsla(0,0%,50%,1)"
    stroke-width="1"
    transform="translate(-15.1230387264,-88.6065193902) scale(1,-1) translate(50,-110)"
    />
  
  
  <line
    x1="100"
    y1="17.372169067115685"
    x2="115.33504639269685"
    y2="25.53480407244858"
    stroke="hsla(0,50%,50%,0.6)"
    stroke-width="1"
    transform="translate(-15.1230387264,-88.6065193902) scale(1,-1) translate(50,-110)"
    />
  
  <line
    x1="0"
    y1="77.42763825805808"
    x2="0"
    y2="100"
    stroke="hsla(0,50%,50%,0.6)"
    stroke-width="1"
    transform="translate(-15.1230387264,-88.6065193902) scale(1,-1) translate(50,-110)"
    />
  
  <line
    x1="100"
    y1="17.372169067115685"
    x2="100"
    y2="100"
    stroke="hsla(0,50%,50%,0.6)"
    stroke-width="1"
    transform="translate(-15.1230387264,-88.6065193902) scale(1,-1) translate(50,-110)"
    />
  
  <line
    x1="115.33504639269685"
    y1="25.53480407244858"
    x2="68.34819648467817"
    y2="113.80844643369548"
    stroke="hsla(0,50%,50%,0.6)"
    stroke-width="1"
    transform="translate(-15.1230387264,-88.6065193902) scale(1,-1) translate(50,-110)"
    />
  
  <line
    x1="100"
    y1="17.372169067115685"
    x2="0"
    y2="77.42763825805808"
    stroke="hsla(0,50%,50%,0.6)"
    stroke-width="1"
    transform="translate(-15.1230387264,-88.6065193902) scale(1,-1) translate(50,-110)"
    />
  
  <line
    x1="0"
    y1="77.42763825805808"
    x2="68.34819648467817"
    y2="113.80844643369548"
    stroke="hsla(0,50%,50%,0.6)"
    stroke-width="1"
    transform="translate(-15.1230387264,-88.6065193902) scale(1,-1) translate(50,-110)"
    />
  
  <line
    x1="0"
    y1="100"
    x2="100"
    y2="100"
    stroke="hsla(0,50%,50%,0.6)"
    stroke-width="1"
    transform="translate(-15.1230387264,-88.6065193902) scale(1,-1) translate(50,-110)"
    />
  
</svg>
