<?xml version="1.0"?>
<!DOCTYPE svg PUBLIC "-//W3C//DTD SVG 1.1//EN"
  "http://www.w3.org/Graphics/SVG/1.1/DTD/svg11.dtd">
<svg
  width="240"
  height="240"
  viewBox="-50 -50 200 200" xmlns="http://www.w3.org/2000/svg" version="1.1">
  <rect
    x="0"
    y="0"
    width="100"
    height="100"
    fill="hsla(206,100%,53%,0.3)"
    stroke="hsl(206,100%,53%)"
    stroke-width="3"
    transform="" />
  
  <path
    d="M 
      0
      0
      L
    
      100
      0
      L
    
      100
      100
      L
    
      83.6921043733
      100
      L
    
      0
      62.3237819282
      z
    "
    fill="hsla(0,0%,50%,0.3)"
    stroke="hsla(0,0%,50%,1)"
    stroke-width="1"
    transform="translate(-39.6730260933,-68.6618909641) scale(1,-1) translate(50,-110)"
    />
  
  
  <line
    x1="0"
    y1="0"
    x2="100"
    y2="0"
    stroke="hsla(0,50%,50%,0.6)"
    stroke-width="1"
    transform="translate(-39.6730260933,-68.6618909641) scale(1,-1) translate(50,-110)"
    />
  
  <line
    x1="0"
    y1="0"
    x2="0"
    y2="62.32378192829264"
    stroke="hsla(0,50%,50%,0.6)"
    stroke-width="1"
    transform="translate(-39.6730260933,-68.6618909641) scale(1,-1) translate(50,-110)"
    />
  
  <line
    x1="100"
    y1="0"
    x2="100"
    y2="100"
    stroke="hsla(0,50%,50%,0.6)"
    stroke-width="1"
    transform="translate(-39.6730260933,-68.6618909641) scale(1,-1) translate(50,-110)"
    />
  
  <line
    x1="28.20574991895292"
    y1="37.34512944869848"
    x2="83.69210437334345"
    y2="100"
    stroke="hsla(0,50%,50%,0.6)"
    stroke-width="1"
    transform="translate(-39.6730260933,-68.6618909641) scale(1,-1) translate(50,-110)"
    />
  
  <line
    x1="28.20574991895292"
    y1="37.34512944869848"
    x2="0"
    y2="62.32378192829264"
    stroke="hsla(0,50%,50%,0.6)"
    stroke-width="1"
    transform="translate(-39.6730260933,-68.6618909641) scale(1,-1) translate(50,-110)"
    />
  
  <line
    x1="0"
    y1="62.32378192829264"
    x2="83.69210437334345"
    y2="100"
    stroke="hsla(0,50%,50%,0.6)"
    stroke-width="1"
    transform="translate(-39.6730260933,-68.6618909641) scale(1,-1) translate(50,-110)"
    />
  
  <line
    x1="83.69210437334345"
    y1="100"
    x2="100"
    y2="100"
    stroke="hsla(0,50%,50%,0.6)"
    stroke-width="1"
    transform="translate(-39.6730260933,-68.6618909641) scale(1,-1) translate(50,-110)"
    />
  
</svg>
