<?xml version="1.0"?>
<!DOCTYPE svg PUBLIC "-//W3C//DTD SVG 1.1//EN"
  "http://www.w3.org/Graphics/SVG/1.1/DTD/svg11.dtd">
<svg
  width="240"
  height="240"
  viewBox="-500 -500 1000 1000" xmlns="http://www.w3.org/2000/svg" version="1.1">
  <rect
    x="0"
    y="0"
    width="100"
    height="100"
    fill="hsla(206,100%,53%,0.3)"
    stroke="hsl(206,100%,53%)"
    stroke-width="3"
    transform="" />
  
  <path
    d="M 
      100
      16.2386355999
      L
    
      108.8879842382
      29.8289638641
      L
    
      100
      35.6416464045
      L
    
      100
      100
      L
    
      0
      100
      L
    
      0
      46.0351256112
      z
    "
    fill="hsla(0,0%,50%,0.3)"
    stroke="hsla(0,0%,50%,1)"
    stroke-width="1"
    transform="translate(-54.4439921191,-58.1193177999)"
    />
  
  
  <line
    x1="100"
    y1="16.238635599979606"
    x2="108.8879842382687"
    y2="29.828963864197963"
    stroke="hsla(0,50%,50%,0.6)"
    stroke-width="1"
    transform="translate(-54.4439921191,-58.1193177999)"
    />
  
  <line
    x1="0"
    y1="46.035125611275134"
    x2="0"
    y2="100"
    stroke="hsla(0,50%,50%,0.6)"
    stroke-width="1"
    transform="translate(-54.4439921191,-58.1193177999)"
    />
  
  <line
    x1="100"
    y1="16.238635599979606"
    x2="100"
    y2="100"
    stroke="hsla(0,50%,50%,0.6)"
    stroke-width="1"
    transform="translate(-54.4439921191,-58.1193177999)"
    />
  
  <line
    x1="0"
    y1="46.035125611275134"
    x2="25.19666558933356"
    y2="84.56252927704496"
    stroke="hsla(0,50%,50%,0.6)"
    stroke-width="1"
    transform="translate(-54.4439921191,-58.1193177999)"
    />
  
  <line
    x1="100"
    y1="16.238635599979606"
    x2="0"
    y2="46.035125611275134"
    stroke="hsla(0,50%,50%,0.6)"
    stroke-width="1"
    transform="translate(-54.4439921191,-58.1193177999)"
    />
  
  <line
    x1="108.8879842382687"
    y1="29.828963864197963"
    x2="25.19666558933356"
    y2="84.56252927704496"
    stroke="hsla(0,50%,50%,0.6)"
    stroke-width="1"
    transform="translate(-54.4439921191,-58.1193177999)"
    />
  
  <line
    x1="0"
    y1="100"
    x2="100"
    y2="100"
    stroke="hsla(0,50%,50%,0.6)"
    stroke-width="1"
    transform="translate(-54.4439921191,-58.1193177999)"
    />
  
</svg>
