<?xml version="1.0"?>
<!DOCTYPE svg PUBLIC "-//W3C//DTD SVG 1.1//EN"
  "http://www.w3.org/Graphics/SVG/1.1/DTD/svg11.dtd">
<svg
  width="240"
  height="240"
  viewBox="-50 -50 200 200" xmlns="http://www.w3.org/2000/svg" version="1.1">
  <rect
    x="0"
    y="0"
    width="100"
    height="100"
    fill="hsla(206,100%,53%,0.3)"
    stroke="hsl(206,100%,53%)"
    stroke-width="3"
    transform="" />
  
  <path
    d="M 
      100
      23.8304175807
      L
    
      115.1637486063
      42.2138212448
      L
    
      100
      54.7218026827
      L
    
      100
      100
      L
    
      45.1080732032
      100
      L
    
      38.0211488101
      105.8457259521
      L
    
      33.1992387667
      100
      L
    
      0
      100
      L
    
      0
      59.7517062942
      z
    "
    fill="hsla(0,0%,50%,0.3)"
    stroke="hsla(0,0%,50%,1)"
    stroke-width="1"
    transform="translate(-11.1200873270,-79.3642104104) scale(1,-1) translate(50,-110)"
    />
  
  
  <line
    x1="100"
    y1="23.83041758074035"
    x2="115.1637486063421"
    y2="42.21382124480965"
    stroke="hsla(0,50%,50%,0.6)"
    stroke-width="1"
    transform="translate(-11.1200873270,-79.3642104104) scale(1,-1) translate(50,-110)"
    />
  
  <line
    x1="0"
    y1="59.7517062942243"
    x2="0"
    y2="100"
    stroke="hsla(0,50%,50%,0.6)"
    stroke-width="1"
    transform="translate(-11.1200873270,-79.3642104104) scale(1,-1) translate(50,-110)"
    />
  
  <line
    x1="100"
    y1="23.83041758074035"
    x2="100"
    y2="100"
    stroke="hsla(0,50%,50%,0.6)"
    stroke-width="1"
    transform="translate(-11.1200873270,-79.3642104104) scale(1,-1) translate(50,-110)"
    />
  
  <line
    x1="0"
    y1="59.7517062942243"
    x2="38.02114881016103"
    y2="105.8457259521673"
    stroke="hsla(0,50%,50%,0.6)"
    stroke-width="1"
    transform="translate(-11.1200873270,-79.3642104104) scale(1,-1) translate(50,-110)"
    />
  
  <line
    x1="100"
    y1="23.83041758074035"
    x2="0"
    y2="59.7517062942243"
    stroke="hsla(0,50%,50%,0.6)"
    stroke-width="1"
    transform="translate(-11.1200873270,-79.3642104104) scale(1,-1) translate(50,-110)"
    />
  
  <line
    x1="115.1637486063421"
    y1="42.21382124480965"
    x2="38.02114881016103"
    y2="105.8457259521673"
    stroke="hsla(0,50%,50%,0.6)"
    stroke-width="1"
    transform="translate(-11.1200873270,-79.3642104104) scale(1,-1) translate(50,-110)"
    />
  
  <line
    x1="0"
    y1="100"
    x2="100"
    y2="100"
    stroke="hsla(0,50%,50%,0.6)"
    stroke-width="1"
    transform="translate(-11.1200873270,-79.3642104104) scale(1,-1) translate(50,-110)"
    />
  
</svg>
