<?xml version="1.0"?>
<!DOCTYPE svg PUBLIC "-//W3C//DTD SVG 1.1//EN"
  "http://www.w3.org/Graphics/SVG/1.1/DTD/svg11.dtd">
<svg
  width="240"
  height="240"
  viewBox="-500 -500 1000 1000" xmlns="http://www.w3.org/2000/svg" version="1.1">
  <rect
    x="0"
    y="0"
    width="100"
    height="100"
    fill="hsla(206,100%,53%,0.3)"
    stroke="hsl(206,100%,53%)"
    stroke-width="3"
    transform="" />
  
  <path
    d="M 
      90.8832959590
      -6.3381722931
      L
    
      93.2384159870
      0
      L
    
      23.7157873627
      100
      L
    
      0
      100
      L
    
      0
      36.1753351905
      L
    
      -2.8546843874
      28.4927197506
      L
    
      0
      27.4319842478
      L
    
      0
      0
      L
    
      73.8258094869
      0
      z
    "
    fill="hsla(0,0%,50%,0.3)"
    stroke="hsla(0,0%,50%,1)"
    stroke-width="1"
    transform="translate(-45.1918657998,-46.8309138534)"
    />
  
  
  <line
    x1="90.88329595905398"
    y1="-6.338172293164967"
    x2="93.23841598705378"
    y2="0"
    stroke="hsla(0,50%,50%,0.6)"
    stroke-width="1"
    transform="translate(-45.1918657998,-46.8309138534)"
    />
  
  <line
    x1="0"
    y1="0"
    x2="93.23841598705378"
    y2="0"
    stroke="hsla(0,50%,50%,0.6)"
    stroke-width="1"
    transform="translate(-45.1918657998,-46.8309138534)"
    />
  
  <line
    x1="0"
    y1="0"
    x2="0"
    y2="100"
    stroke="hsla(0,50%,50%,0.6)"
    stroke-width="1"
    transform="translate(-45.1918657998,-46.8309138534)"
    />
  
  <line
    x1="-2.8546843874069343"
    y1="28.492719750630112"
    x2="23.715787362737167"
    y2="100"
    stroke="hsla(0,50%,50%,0.6)"
    stroke-width="1"
    transform="translate(-45.1918657998,-46.8309138534)"
    />
  
  <line
    x1="90.88329595905398"
    y1="-6.338172293164967"
    x2="-2.8546843874069343"
    y2="28.492719750630112"
    stroke="hsla(0,50%,50%,0.6)"
    stroke-width="1"
    transform="translate(-45.1918657998,-46.8309138534)"
    />
  
  <line
    x1="93.23841598705378"
    y1="0"
    x2="23.715787362737167"
    y2="100"
    stroke="hsla(0,50%,50%,0.6)"
    stroke-width="1"
    transform="translate(-45.1918657998,-46.8309138534)"
    />
  
  <line
    x1="0"
    y1="100"
    x2="23.715787362737167"
    y2="100"
    stroke="hsla(0,50%,50%,0.6)"
    stroke-width="1"
    transform="translate(-45.1918657998,-46.8309138534)"
    />
  
</svg>
