<?xml version="1.0"?>
<!DOCTYPE svg PUBLIC "-//W3C//DTD SVG 1.1//EN"
  "http://www.w3.org/Graphics/SVG/1.1/DTD/svg11.dtd">
<svg
  width="240"
  height="240"
  viewBox="-50 -50 200 200" xmlns="http://www.w3.org/2000/svg" version="1.1">
  <rect
    x="0"
    y="0"
    width="100"
    height="100"
    fill="hsla(206,100%,53%,0.3)"
    stroke="hsl(206,100%,53%)"
    stroke-width="3"
    transform="" />
  
  <path
    d="M 
      24.8387951317
      2.9454802041
      L
    
      50
      19.1027158012
      L
    
      75.1612048682
      2.9454802041
      L
    
      88.6695982432
      23.9817181859
      L
    
      52.7060139074
      47.0756879728
      L
    
      51.8479342956
      50
      L
    
      48.1520657043
      50
      L
    
      47.2939860925
      47.0756879728
      L
    
      11.3304017567
      23.9817181859
      z
    "
    fill="hsla(0,0%,50%,0.3)"
    stroke="hsla(0,0%,50%,1)"
    stroke-width="1"
    transform="translate(-30.6602628717,-35.0897480117) scale(1,-1) translate(50,-110)"
    />
  
  
  <line
    x1="75.16120486826868"
    y1="2.94548020415909"
    x2="88.66959824322124"
    y2="23.98171818597366"
    stroke="hsla(0,50%,50%,0.6)"
    stroke-width="1"
    transform="translate(-30.6602628717,-35.0897480117) scale(1,-1) translate(50,-110)"
    />
  
  <line
    x1="24.838795131731317"
    y1="2.94548020415909"
    x2="59.183673469387756"
    y2="25"
    stroke="hsla(0,50%,50%,0.6)"
    stroke-width="1"
    transform="translate(-30.6602628717,-35.0897480117) scale(1,-1) translate(50,-110)"
    />
  
  <line
    x1="40.816326530612244"
    y1="25"
    x2="48.15206570433051"
    y2="50"
    stroke="hsla(0,50%,50%,0.6)"
    stroke-width="1"
    transform="translate(-30.6602628717,-35.0897480117) scale(1,-1) translate(50,-110)"
    />
  
  <line
    x1="11.33040175677876"
    y1="23.98171818597366"
    x2="51.84793429566949"
    y2="50"
    stroke="hsla(0,50%,50%,0.6)"
    stroke-width="1"
    transform="translate(-30.6602628717,-35.0897480117) scale(1,-1) translate(50,-110)"
    />
  
  <line
    x1="24.838795131731317"
    y1="2.94548020415909"
    x2="11.33040175677876"
    y2="23.98171818597366"
    stroke="hsla(0,50%,50%,0.6)"
    stroke-width="1"
    transform="translate(-30.6602628717,-35.0897480117) scale(1,-1) translate(50,-110)"
    />
  
  <line
    x1="59.183673469387756"
    y1="25"
    x2="51.84793429566949"
    y2="50"
    stroke="hsla(0,50%,50%,0.6)"
    stroke-width="1"
    transform="translate(-30.6602628717,-35.0897480117) scale(1,-1) translate(50,-110)"
    />
  
  <line
    x1="40.816326530612244"
    y1="25"
    x2="59.183673469387756"
    y2="25"
    stroke="hsla(0,50%,50%,0.6)"
    stroke-width="1"
    transform="translate(-30.6602628717,-35.0897480117) scale(1,-1) translate(50,-110)"
    />
  
  <line
    x1="75.16120486826868"
    y1="2.94548020415909"
    x2="40.816326530612244"
    y2="25"
    stroke="hsla(0,50%,50%,0.6)"
    stroke-width="1"
    transform="translate(-30.6602628717,-35.0897480117) scale(1,-1) translate(50,-110)"
    />
  
  <line
    x1="48.15206570433051"
    y1="50"
    x2="51.84793429566949"
    y2="50"
    stroke="hsla(0,50%,50%,0.6)"
    stroke-width="1"
    transform="translate(-30.6602628717,-35.0897480117) scale(1,-1) translate(50,-110)"
    />
  
  <line
    x1="88.66959824322124"
    y1="23.98171818597366"
    x2="48.15206570433051"
    y2="50"
    stroke="hsla(0,50%,50%,0.6)"
    stroke-width="1"
    transform="translate(-30.6602628717,-35.0897480117) scale(1,-1) translate(50,-110)"
    />
  
</svg>
