<?xml version="1.0"?>
<!DOCTYPE svg PUBLIC "-//W3C//DTD SVG 1.1//EN"
  "http://www.w3.org/Graphics/SVG/1.1/DTD/svg11.dtd">
<svg
  width="240"
  height="240"
  viewBox="-50 -50 200 200" xmlns="http://www.w3.org/2000/svg" version="1.1">
  <rect
    x="0"
    y="0"
    width="100"
    height="100"
    fill="hsla(206,100%,53%,0.3)"
    stroke="hsl(206,100%,53%)"
    stroke-width="3"
    transform="" />
  
  <path
    d="M 
      11.2501551627
      0
      L
    
      100
      0
      L
    
      100
      100
      L
    
      6.3287350485
      100
      L
    
      6.2460974182
      100.5063450597
      L
    
      3.1435723499
      100
      z
    "
    fill="hsla(0,0%,50%,0.3)"
    stroke="hsla(0,0%,50%,1)"
    stroke-width="1"
    transform="translate(-13.6509697594,-93.8765862649) scale(1,-1) translate(50,-110)"
    />
  
  
  <line
    x1="11.250155162743662"
    y1="0"
    x2="22.35341111799666"
    y2="1.812097783770716"
    stroke="hsla(0,50%,50%,0.6)"
    stroke-width="1"
    transform="translate(-13.6509697594,-93.8765862649) scale(1,-1) translate(50,-110)"
    />
  
  <line
    x1="11.250155162743662"
    y1="0"
    x2="100"
    y2="0"
    stroke="hsla(0,50%,50%,0.6)"
    stroke-width="1"
    transform="translate(-13.6509697594,-93.8765862649) scale(1,-1) translate(50,-110)"
    />
  
  <line
    x1="100"
    y1="0"
    x2="100"
    y2="100"
    stroke="hsla(0,50%,50%,0.6)"
    stroke-width="1"
    transform="translate(-13.6509697594,-93.8765862649) scale(1,-1) translate(50,-110)"
    />
  
  <line
    x1="11.250155162743662"
    y1="0"
    x2="3.1435723499227497"
    y2="100"
    stroke="hsla(0,50%,50%,0.6)"
    stroke-width="1"
    transform="translate(-13.6509697594,-93.8765862649) scale(1,-1) translate(50,-110)"
    />
  
  <line
    x1="22.35341111799666"
    y1="1.812097783770716"
    x2="6.2460974182557765"
    y2="100.50634505978037"
    stroke="hsla(0,50%,50%,0.6)"
    stroke-width="1"
    transform="translate(-13.6509697594,-93.8765862649) scale(1,-1) translate(50,-110)"
    />
  
  <line
    x1="3.1435723499227497"
    y1="100"
    x2="6.2460974182557765"
    y2="100.50634505978037"
    stroke="hsla(0,50%,50%,0.6)"
    stroke-width="1"
    transform="translate(-13.6509697594,-93.8765862649) scale(1,-1) translate(50,-110)"
    />
  
  <line
    x1="3.1435723499227497"
    y1="100"
    x2="100"
    y2="100"
    stroke="hsla(0,50%,50%,0.6)"
    stroke-width="1"
    transform="translate(-13.6509697594,-93.8765862649) scale(1,-1) translate(50,-110)"
    />
  
</svg>
