<?xml version="1.0"?>
<!DOCTYPE svg PUBLIC "-//W3C//DTD SVG 1.1//EN"
  "http://www.w3.org/Graphics/SVG/1.1/DTD/svg11.dtd">
<svg
  width="240"
  height="240"
  viewBox="-500 -500 1000 1000" xmlns="http://www.w3.org/2000/svg" version="1.1">
  <rect
    x="0"
    y="0"
    width="100"
    height="100"
    fill="hsla(206,100%,53%,0.3)"
    stroke="hsl(206,100%,53%)"
    stroke-width="3"
    transform="" />
  
  <path
    d="M 
      53.7560454806
      -16.6316183346
      L
    
      69.4049256763
      0
      L
    
      100
      0
      L
    
      100
      32.5164224345
      L
    
      0
      72.1660090386
      L
    
      -19.0735858789
      51.8946160287
      L
    
      0
      33.9480605994
      L
    
      0
      0
      L
    
      36.0799737764
      0
      z
    "
    fill="hsla(0,0%,50%,0.3)"
    stroke="hsla(0,0%,50%,1)"
    stroke-width="1"
    transform="translate(-40.4632070605,-27.7671953519)"
    />
  
  
  <line
    x1="53.75604548063781"
    y1="-16.631618334665426"
    x2="100"
    y2="32.51642243451059"
    stroke="hsla(0,50%,50%,0.6)"
    stroke-width="1"
    transform="translate(-40.4632070605,-27.7671953519)"
    />
  
  <line
    x1="0"
    y1="0"
    x2="100"
    y2="0"
    stroke="hsla(0,50%,50%,0.6)"
    stroke-width="1"
    transform="translate(-40.4632070605,-27.7671953519)"
    />
  
  <line
    x1="0"
    y1="0"
    x2="0"
    y2="72.16600903860686"
    stroke="hsla(0,50%,50%,0.6)"
    stroke-width="1"
    transform="translate(-40.4632070605,-27.7671953519)"
    />
  
  <line
    x1="100"
    y1="0"
    x2="100"
    y2="32.51642243451059"
    stroke="hsla(0,50%,50%,0.6)"
    stroke-width="1"
    transform="translate(-40.4632070605,-27.7671953519)"
    />
  
  <line
    x1="53.75604548063781"
    y1="-16.631618334665426"
    x2="-19.073585878903426"
    y2="51.894616028776205"
    stroke="hsla(0,50%,50%,0.6)"
    stroke-width="1"
    transform="translate(-40.4632070605,-27.7671953519)"
    />
  
  <line
    x1="-19.073585878903426"
    y1="51.894616028776205"
    x2="0"
    y2="72.16600903860686"
    stroke="hsla(0,50%,50%,0.6)"
    stroke-width="1"
    transform="translate(-40.4632070605,-27.7671953519)"
    />
  
  <line
    x1="100"
    y1="32.51642243451059"
    x2="0"
    y2="72.16600903860686"
    stroke="hsla(0,50%,50%,0.6)"
    stroke-width="1"
    transform="translate(-40.4632070605,-27.7671953519)"
    />
  
</svg>
