<?xml version="1.0"?>
<!DOCTYPE svg PUBLIC "-//W3C//DTD SVG 1.1//EN"
  "http://www.w3.org/Graphics/SVG/1.1/DTD/svg11.dtd">
<svg
  width="240"
  height="240"
  viewBox="-500 -500 1000 1000" xmlns="http://www.w3.org/2000/svg" version="1.1">
  <rect
    x="0"
    y="0"
    width="100"
    height="100"
    fill="hsla(206,100%,53%,0.3)"
    stroke="hsl(206,100%,53%)"
    stroke-width="3"
    transform="" />
  
  <path
    d="M 
      100
      10
      L
    
      107.0199469223
      17.1218217618
      L
    
      100
      24.0413511239
      L
    
      100
      46.6666666666
      L
    
      111.7647058823
      52.9411764705
      L
    
      100
      75
      L
    
      58.7611566429
      64.6902891607
      L
    
      35.8017293039
      87.3212909853
      L
    
      0.7019946922
      51.7121821761
      L
    
      1.5151515151
      50.3787878787
      z
    "
    fill="hsla(0,0%,50%,0.3)"
    stroke="hsla(0,0%,50%,1)"
    stroke-width="1"
    transform="translate(-56.2333502872,-48.6606454926)"
    />
  
  
  <line
    x1="100"
    y1="10"
    x2="107.01994692235253"
    y2="17.12182176183546"
    stroke="hsla(0,50%,50%,0.6)"
    stroke-width="1"
    transform="translate(-56.2333502872,-48.6606454926)"
    />
  
  <line
    x1="61.130742049469966"
    y1="25.936395759717314"
    x2="111.76470588235294"
    y2="52.94117647058823"
    stroke="hsla(0,50%,50%,0.6)"
    stroke-width="1"
    transform="translate(-56.2333502872,-48.6606454926)"
    />
  
  <line
    x1="100"
    y1="10"
    x2="100"
    y2="75"
    stroke="hsla(0,50%,50%,0.6)"
    stroke-width="1"
    transform="translate(-56.2333502872,-48.6606454926)"
    />
  
  <line
    x1="1.5151515151515151"
    y1="50.378787878787875"
    x2="0.7019946922352538"
    y2="51.712182176183546"
    stroke="hsla(0,50%,50%,0.6)"
    stroke-width="1"
    transform="translate(-56.2333502872,-48.6606454926)"
    />
  
  <line
    x1="61.130742049469966"
    y1="25.936395759717314"
    x2="48.42957643634459"
    y2="66.61446189639284"
    stroke="hsla(0,50%,50%,0.6)"
    stroke-width="1"
    transform="translate(-56.2333502872,-48.6606454926)"
    />
  
  <line
    x1="0.7019946922352538"
    y1="51.712182176183546"
    x2="35.801729303997945"
    y2="87.32129098536085"
    stroke="hsla(0,50%,50%,0.6)"
    stroke-width="1"
    transform="translate(-56.2333502872,-48.6606454926)"
    />
  
  <line
    x1="100"
    y1="10"
    x2="1.5151515151515151"
    y2="50.378787878787875"
    stroke="hsla(0,50%,50%,0.6)"
    stroke-width="1"
    transform="translate(-56.2333502872,-48.6606454926)"
    />
  
  <line
    x1="0.7019946922352538"
    y1="51.712182176183546"
    x2="48.42957643634459"
    y2="66.61446189639284"
    stroke="hsla(0,50%,50%,0.6)"
    stroke-width="1"
    transform="translate(-56.2333502872,-48.6606454926)"
    />
  
  <line
    x1="1.5151515151515151"
    y1="50.378787878787875"
    x2="100"
    y2="75"
    stroke="hsla(0,50%,50%,0.6)"
    stroke-width="1"
    transform="translate(-56.2333502872,-48.6606454926)"
    />
  
  <line
    x1="111.76470588235294"
    y1="52.94117647058823"
    x2="100"
    y2="75"
    stroke="hsla(0,50%,50%,0.6)"
    stroke-width="1"
    transform="translate(-56.2333502872,-48.6606454926)"
    />
  
  <line
    x1="107.01994692235253"
    y1="17.12182176183546"
    x2="35.801729303997945"
    y2="87.32129098536085"
    stroke="hsla(0,50%,50%,0.6)"
    stroke-width="1"
    transform="translate(-56.2333502872,-48.6606454926)"
    />
  
</svg>
