<?xml version="1.0"?>
<!DOCTYPE svg PUBLIC "-//W3C//DTD SVG 1.1//EN"
  "http://www.w3.org/Graphics/SVG/1.1/DTD/svg11.dtd">
<svg
  width="240"
  height="240"
  viewBox="-500 -500 1000 1000" xmlns="http://www.w3.org/2000/svg" version="1.1">
  <rect
    x="0"
    y="0"
    width="100"
    height="100"
    fill="hsla(206,100%,53%,0.3)"
    stroke="hsl(206,100%,53%)"
    stroke-width="3"
    transform="" />
  
  <path
    d="M 
      -31.9223731848
      -37.2531032075
      L
    
      33.3465372424
      -34.6669281558
      L
    
      32.6918422568
      31.4572653916
      L
    
      32.2643710333
      32.2300964237
      L
    
      31.3599947722
      32.6405280010
      L
    
      -34.6141279487
      30.6803881721
      L
    
      -33.9802653074
      -1.3265372802
      L
    
      -33.3464026661
      -1.3139843142
      z
    "
    fill="hsla(0,0%,50%,0.3)"
    stroke="hsla(0,0%,50%,1)"
    stroke-width="1"
    transform="translate(0.6337953531,2.3062876032)"
    />
  
  
  <line
    x1="-31.922373184844602"
    y1="-37.25310320751686"
    x2="33.346537242467136"
    y2="-34.66692815584755"
    stroke="hsla(0,50%,50%,0.6)"
    stroke-width="1"
    transform="translate(0.6337953531,2.3062876032)"
    />
  
  <line
    x1="33.346537242467136"
    y1="-34.66692815584755"
    x2="-1.326537280271842"
    y2="-33.98026530745605"
    stroke="hsla(0,50%,50%,0.6)"
    stroke-width="1"
    transform="translate(0.6337953531,2.3062876032)"
    />
  
  <line
    x1="-1.3069332810560021"
    y1="-32.9903603965572"
    x2="33.086969540055456"
    y2="-8.450590212267779"
    stroke="hsla(0,50%,50%,0.6)"
    stroke-width="1"
    transform="translate(0.6337953531,2.3062876032)"
    />
  
  <line
    x1="-1.3069332810560021"
    y1="-32.9903603965572"
    x2="32.69184225684814"
    y2="31.457265391671385"
    stroke="hsla(0,50%,50%,0.6)"
    stroke-width="1"
    transform="translate(0.6337953531,2.3062876032)"
    />
  
  <line
    x1="-31.922373184844602"
    y1="-37.25310320751686"
    x2="-34.614127948768214"
    y2="30.680388172124406"
    stroke="hsla(0,50%,50%,0.6)"
    stroke-width="1"
    transform="translate(0.6337953531,2.3062876032)"
    />
  
  <line
    x1="-33.98026530745605"
    y1="-1.326537280271842"
    x2="-34.614127948768214"
    y2="30.680388172124406"
    stroke="hsla(0,50%,50%,0.6)"
    stroke-width="1"
    transform="translate(0.6337953531,2.3062876032)"
    />
  
  <line
    x1="-33.98026530745605"
    y1="-1.326537280271842"
    x2="-32.9903603965572"
    y2="-1.3069332810560021"
    stroke="hsla(0,50%,50%,0.6)"
    stroke-width="1"
    transform="translate(0.6337953531,2.3062876032)"
    />
  
  <line
    x1="-1.326537280271842"
    y1="-33.98026530745605"
    x2="-1.3069332810560021"
    y2="-32.9903603965572"
    stroke="hsla(0,50%,50%,0.6)"
    stroke-width="1"
    transform="translate(0.6337953531,2.3062876032)"
    />
  
  <line
    x1="33.346537242467136"
    y1="-34.66692815584755"
    x2="32.69184225684814"
    y2="31.457265391671385"
    stroke="hsla(0,50%,50%,0.6)"
    stroke-width="1"
    transform="translate(0.6337953531,2.3062876032)"
    />
  
  <line
    x1="2.502852909485865"
    y1="17.417197787423486"
    x2="-2.0796435324617066"
    y2="31.647011691886398"
    stroke="hsla(0,50%,50%,0.6)"
    stroke-width="1"
    transform="translate(0.6337953531,2.3062876032)"
    />
  
  <line
    x1="-3.9522071747892578"
    y1="24.378495235865714"
    x2="-2.0796435324617066"
    y2="31.647011691886398"
    stroke="hsla(0,50%,50%,0.6)"
    stroke-width="1"
    transform="translate(0.6337953531,2.3062876032)"
    />
  
  <line
    x1="-3.9522071747892578"
    y1="24.378495235865714"
    x2="-9.638217889278467"
    y2="31.42244087479034"
    stroke="hsla(0,50%,50%,0.6)"
    stroke-width="1"
    transform="translate(0.6337953531,2.3062876032)"
    />
  
  <line
    x1="2.502852909485865"
    y1="17.417197787423486"
    x2="-8.380534608245924"
    y2="31.45980757236272"
    stroke="hsla(0,50%,50%,0.6)"
    stroke-width="1"
    transform="translate(0.6337953531,2.3062876032)"
    />
  
  <line
    x1="33.086969540055456"
    y1="-8.450590212267779"
    x2="-13.760722656577608"
    y2="23.59429722788083"
    stroke="hsla(0,50%,50%,0.6)"
    stroke-width="1"
    transform="translate(0.6337953531,2.3062876032)"
    />
  
  <line
    x1="-32.9903603965572"
    y1="-1.3069332810560021"
    x2="31.359994772266877"
    y2="32.640528001045546"
    stroke="hsla(0,50%,50%,0.6)"
    stroke-width="1"
    transform="translate(0.6337953531,2.3062876032)"
    />
  
  <line
    x1="-13.760722656577608"
    y1="23.59429722788083"
    x2="-8.380534608245924"
    y2="31.45980757236272"
    stroke="hsla(0,50%,50%,0.6)"
    stroke-width="1"
    transform="translate(0.6337953531,2.3062876032)"
    />
  
  <line
    x1="-32.9903603965572"
    y1="-1.3069332810560021"
    x2="-9.638217889278467"
    y2="31.42244087479034"
    stroke="hsla(0,50%,50%,0.6)"
    stroke-width="1"
    transform="translate(0.6337953531,2.3062876032)"
    />
  
  <line
    x1="32.69184225684814"
    y1="31.457265391671385"
    x2="32.26437103333862"
    y2="32.23009642379273"
    stroke="hsla(0,50%,50%,0.6)"
    stroke-width="1"
    transform="translate(0.6337953531,2.3062876032)"
    />
  
  <line
    x1="-3.9522071747892578"
    y1="24.378495235865714"
    x2="32.26437103333862"
    y2="32.23009642379273"
    stroke="hsla(0,50%,50%,0.6)"
    stroke-width="1"
    transform="translate(0.6337953531,2.3062876032)"
    />
  
  <line
    x1="-34.614127948768214"
    y1="30.680388172124406"
    x2="31.359994772266877"
    y2="32.640528001045546"
    stroke="hsla(0,50%,50%,0.6)"
    stroke-width="1"
    transform="translate(0.6337953531,2.3062876032)"
    />
  
  <line
    x1="32.26437103333862"
    y1="32.23009642379273"
    x2="31.359994772266877"
    y2="32.640528001045546"
    stroke="hsla(0,50%,50%,0.6)"
    stroke-width="1"
    transform="translate(0.6337953531,2.3062876032)"
    />
  
</svg>
