<?xml version="1.0"?>
<!DOCTYPE svg PUBLIC "-//W3C//DTD SVG 1.1//EN"
  "http://www.w3.org/Graphics/SVG/1.1/DTD/svg11.dtd">
<svg
  width="240"
  height="240"
  viewBox="-50 -50 200 200" xmlns="http://www.w3.org/2000/svg" version="1.1">
  <rect
    x="0"
    y="0"
    width="100"
    height="100"
    fill="hsla(206,100%,53%,0.3)"
    stroke="hsl(206,100%,53%)"
    stroke-width="3"
    transform="" />
  
  <path
    d="M 
      564
      718.6666666666
      L
    
      630.2068965517
      726.4827586206
      L
    
      623.2052085845
      785.7911743428
      L
    
      626.4275862068
      786.7310344827
      L
    
      620.8275862068
      805.9310344827
      L
    
      549.2137931034
      791.3655172413
      z
    "
    fill="hsla(0,0%,50%,0.3)"
    stroke="hsla(0,0%,50%,1)"
    stroke-width="1"
    transform="translate(-584.3865324330,-789.7797644883) scale(1,-1) translate(50,-110)"
    />
  
  
  <line
    x1="579.255172413793"
    y1="768.6620689655173"
    x2="575.9333333333333"
    y2="796.8"
    stroke="hsla(0,50%,50%,0.6)"
    stroke-width="1"
    transform="translate(-584.3865324330,-789.7797644883) scale(1,-1) translate(50,-110)"
    />
  
  <line
    x1="630.2068965517242"
    y1="726.4827586206897"
    x2="620.8275862068965"
    y2="805.9310344827586"
    stroke="hsla(0,50%,50%,0.6)"
    stroke-width="1"
    transform="translate(-584.3865324330,-789.7797644883) scale(1,-1) translate(50,-110)"
    />
  
  <line
    x1="564"
    y1="718.6666666666666"
    x2="549.2137931034483"
    y2="791.3655172413793"
    stroke="hsla(0,50%,50%,0.6)"
    stroke-width="1"
    transform="translate(-584.3865324330,-789.7797644883) scale(1,-1) translate(50,-110)"
    />
  
  <line
    x1="596"
    y1="728"
    x2="575.9333333333333"
    y2="796.8"
    stroke="hsla(0,50%,50%,0.6)"
    stroke-width="1"
    transform="translate(-584.3865324330,-789.7797644883) scale(1,-1) translate(50,-110)"
    />
  
  <line
    x1="626.4275862068965"
    y1="786.7310344827587"
    x2="620.8275862068965"
    y2="805.9310344827586"
    stroke="hsla(0,50%,50%,0.6)"
    stroke-width="1"
    transform="translate(-584.3865324330,-789.7797644883) scale(1,-1) translate(50,-110)"
    />
  
  <line
    x1="564"
    y1="718.6666666666666"
    x2="596"
    y2="728"
    stroke="hsla(0,50%,50%,0.6)"
    stroke-width="1"
    transform="translate(-584.3865324330,-789.7797644883) scale(1,-1) translate(50,-110)"
    />
  
  <line
    x1="554.4275862068965"
    y1="765.7310344827587"
    x2="626.4275862068965"
    y2="786.7310344827587"
    stroke="hsla(0,50%,50%,0.6)"
    stroke-width="1"
    transform="translate(-584.3865324330,-789.7797644883) scale(1,-1) translate(50,-110)"
    />
  
  <line
    x1="564"
    y1="718.6666666666666"
    x2="630.2068965517242"
    y2="726.4827586206897"
    stroke="hsla(0,50%,50%,0.6)"
    stroke-width="1"
    transform="translate(-584.3865324330,-789.7797644883) scale(1,-1) translate(50,-110)"
    />
  
  <line
    x1="549.2137931034483"
    y1="791.3655172413793"
    x2="620.8275862068965"
    y2="805.9310344827586"
    stroke="hsla(0,50%,50%,0.6)"
    stroke-width="1"
    transform="translate(-584.3865324330,-789.7797644883) scale(1,-1) translate(50,-110)"
    />
  
  <line
    x1="554.4275862068965"
    y1="765.7310344827587"
    x2="579.255172413793"
    y2="768.6620689655173"
    stroke="hsla(0,50%,50%,0.6)"
    stroke-width="1"
    transform="translate(-584.3865324330,-789.7797644883) scale(1,-1) translate(50,-110)"
    />
  
</svg>
