<?xml version="1.0"?>
<!DOCTYPE svg PUBLIC "-//W3C//DTD SVG 1.1//EN"
  "http://www.w3.org/Graphics/SVG/1.1/DTD/svg11.dtd">
<svg
  width="240"
  height="240"
  viewBox="-500 -500 1000 1000" xmlns="http://www.w3.org/2000/svg" version="1.1">
  <rect
    x="0"
    y="0"
    width="100"
    height="100"
    fill="hsla(206,100%,53%,0.3)"
    stroke="hsl(206,100%,53%)"
    stroke-width="3"
    transform="" />
  
  <path
    d="M 
      625.2528161543
      707.2167392256
      L
    
      630.6929175554
      735.4743531065
      L
    
      647.8751913294
      740.8893727201
      L
    
      637.8559235066
      772.6812802346
      L
    
      558.9086939306
      768.1325476317
      L
    
      562.0370410404
      713.8373495987
      L
    
      571.8567221917
      711.9468834959
      L
    
      572.8784446576
      717.2540343751
      L
    
      572.9684992534
      717.2824152174
      z
    "
    fill="hsla(0,0%,50%,0.3)"
    stroke="hsla(0,0%,50%,1)"
    stroke-width="1"
    transform="translate(-603.3919426300,-739.9490097301)"
    />
  
  
  <line
    x1="625.2528161543671"
    y1="707.216739225694"
    x2="637.8559235066999"
    y2="772.6812802346252"
    stroke="hsla(0,50%,50%,0.6)"
    stroke-width="1"
    transform="translate(-603.3919426300,-739.9490097301)"
    />
  
  <line
    x1="571.8567221917582"
    y1="711.9468834959371"
    x2="582.9400430692508"
    y2="769.5171710302618"
    stroke="hsla(0,50%,50%,0.6)"
    stroke-width="1"
    transform="translate(-603.3919426300,-739.9490097301)"
    />
  
  <line
    x1="562.0370410404186"
    y1="713.837349598787"
    x2="558.9086939306139"
    y2="768.1325476317635"
    stroke="hsla(0,50%,50%,0.6)"
    stroke-width="1"
    transform="translate(-603.3919426300,-739.9490097301)"
    />
  
  <line
    x1="595.3757225433526"
    y1="730.0578034682081"
    x2="582.9400430692508"
    y2="769.5171710302618"
    stroke="hsla(0,50%,50%,0.6)"
    stroke-width="1"
    transform="translate(-603.3919426300,-739.9490097301)"
    />
  
  <line
    x1="647.8751913294359"
    y1="740.8893727201743"
    x2="637.8559235066999"
    y2="772.6812802346252"
    stroke="hsla(0,50%,50%,0.6)"
    stroke-width="1"
    transform="translate(-603.3919426300,-739.9490097301)"
    />
  
  <line
    x1="562.0370410404186"
    y1="713.837349598787"
    x2="647.8751913294359"
    y2="740.8893727201743"
    stroke="hsla(0,50%,50%,0.6)"
    stroke-width="1"
    transform="translate(-603.3919426300,-739.9490097301)"
    />
  
  <line
    x1="561.7137028221694"
    y1="719.449166950017"
    x2="595.3757225433526"
    y2="730.0578034682081"
    stroke="hsla(0,50%,50%,0.6)"
    stroke-width="1"
    transform="translate(-603.3919426300,-739.9490097301)"
    />
  
  <line
    x1="558.9086939306139"
    y1="768.1325476317635"
    x2="637.8559235066999"
    y2="772.6812802346252"
    stroke="hsla(0,50%,50%,0.6)"
    stroke-width="1"
    transform="translate(-603.3919426300,-739.9490097301)"
    />
  
  <line
    x1="571.8567221917582"
    y1="711.9468834959371"
    x2="562.0370410404186"
    y2="713.837349598787"
    stroke="hsla(0,50%,50%,0.6)"
    stroke-width="1"
    transform="translate(-603.3919426300,-739.9490097301)"
    />
  
  <line
    x1="625.2528161543671"
    y1="707.216739225694"
    x2="561.7137028221694"
    y2="719.449166950017"
    stroke="hsla(0,50%,50%,0.6)"
    stroke-width="1"
    transform="translate(-603.3919426300,-739.9490097301)"
    />
  
</svg>
