<?xml version="1.0"?>
<!DOCTYPE svg PUBLIC "-//W3C//DTD SVG 1.1//EN"
  "http://www.w3.org/Graphics/SVG/1.1/DTD/svg11.dtd">
<svg
  width="240"
  height="240"
  viewBox="-50 -50 200 200" xmlns="http://www.w3.org/2000/svg" version="1.1">
  <rect
    x="0"
    y="0"
    width="100"
    height="100"
    fill="hsla(206,100%,53%,0.3)"
    stroke="hsl(206,100%,53%)"
    stroke-width="3"
    transform="" />
  
  <path
    d="M 
      589.8925132028
      678.8033550792
      L
    
      653.3159366262
      699.3438956197
      L
    
      634.9156342259
      756.1588644347
      L
    
      637.8937558247
      757.7073625349
      L
    
      628.6672879776
      775.4520037278
      L
    
      561.2525629077
      747.2395153774
      z
    "
    fill="hsla(0,0%,50%,0.3)"
    stroke="hsla(0,0%,50%,1)"
    stroke-width="1"
    transform="translate(-596.0623141226,-752.5232095490) scale(1,-1) translate(50,-110)"
    />
  
  
  <line
    x1="595.1351351351351"
    y1="730.8108108108108"
    x2="586.4054054054054"
    y2="757.7657657657658"
    stroke="hsla(0,50%,50%,0.6)"
    stroke-width="1"
    transform="translate(-596.0623141226,-752.5232095490) scale(1,-1) translate(50,-110)"
    />
  
  <line
    x1="653.3159366262814"
    y1="699.3438956197577"
    x2="628.6672879776328"
    y2="775.4520037278658"
    stroke="hsla(0,50%,50%,0.6)"
    stroke-width="1"
    transform="translate(-596.0623141226,-752.5232095490) scale(1,-1) translate(50,-110)"
    />
  
  <line
    x1="589.892513202858"
    y1="678.8033550792171"
    x2="619.4669151910531"
    y2="694.1808014911463"
    stroke="hsla(0,50%,50%,0.6)"
    stroke-width="1"
    transform="translate(-596.0623141226,-752.5232095490) scale(1,-1) translate(50,-110)"
    />
  
  <line
    x1="589.892513202858"
    y1="678.8033550792171"
    x2="561.2525629077353"
    y2="747.2395153774464"
    stroke="hsla(0,50%,50%,0.6)"
    stroke-width="1"
    transform="translate(-596.0623141226,-752.5232095490) scale(1,-1) translate(50,-110)"
    />
  
  <line
    x1="571.3513513513514"
    y1="723.1081081081081"
    x2="637.8937558247903"
    y2="757.7073625349487"
    stroke="hsla(0,50%,50%,0.6)"
    stroke-width="1"
    transform="translate(-596.0623141226,-752.5232095490) scale(1,-1) translate(50,-110)"
    />
  
  <line
    x1="619.4669151910531"
    y1="694.1808014911463"
    x2="586.4054054054054"
    y2="757.7657657657658"
    stroke="hsla(0,50%,50%,0.6)"
    stroke-width="1"
    transform="translate(-596.0623141226,-752.5232095490) scale(1,-1) translate(50,-110)"
    />
  
  <line
    x1="637.8937558247903"
    y1="757.7073625349487"
    x2="628.6672879776328"
    y2="775.4520037278658"
    stroke="hsla(0,50%,50%,0.6)"
    stroke-width="1"
    transform="translate(-596.0623141226,-752.5232095490) scale(1,-1) translate(50,-110)"
    />
  
  <line
    x1="561.2525629077353"
    y1="747.2395153774464"
    x2="628.6672879776328"
    y2="775.4520037278658"
    stroke="hsla(0,50%,50%,0.6)"
    stroke-width="1"
    transform="translate(-596.0623141226,-752.5232095490) scale(1,-1) translate(50,-110)"
    />
  
  <line
    x1="589.892513202858"
    y1="678.8033550792171"
    x2="653.3159366262814"
    y2="699.3438956197577"
    stroke="hsla(0,50%,50%,0.6)"
    stroke-width="1"
    transform="translate(-596.0623141226,-752.5232095490) scale(1,-1) translate(50,-110)"
    />
  
  <line
    x1="571.3513513513514"
    y1="723.1081081081081"
    x2="595.1351351351351"
    y2="730.8108108108108"
    stroke="hsla(0,50%,50%,0.6)"
    stroke-width="1"
    transform="translate(-596.0623141226,-752.5232095490) scale(1,-1) translate(50,-110)"
    />
  
</svg>
