<?xml version="1.0"?>
<!DOCTYPE svg PUBLIC "-//W3C//DTD SVG 1.1//EN"
  "http://www.w3.org/Graphics/SVG/1.1/DTD/svg11.dtd">
<svg
  width="240"
  height="240"
  viewBox="-50 -50 200 200" xmlns="http://www.w3.org/2000/svg" version="1.1">
  <rect
    x="0"
    y="0"
    width="100"
    height="100"
    fill="hsla(206,100%,53%,0.3)"
    stroke="hsl(206,100%,53%)"
    stroke-width="3"
    transform="" />
  
  <path
    d="M 
      534.0809797110
      614.6576265439
      L
    
      537.1324182463
      615.7038340417
      L
    
      537.1178593094
      615.7462976076
      L
    
      625.1785474437
      647.3145965523
      L
    
      593.0451692446
      736.9515897030
      L
    
      502.3499929069
      705.1492143181
      z
    "
    fill="hsla(0,0%,50%,0.3)"
    stroke="hsla(0,0%,50%,1)"
    stroke-width="1"
    transform="translate(-544.6288920881,-694.6597683976) scale(1,-1) translate(50,-110)"
    />
  
  
  <line
    x1="537.1324182463588"
    y1="615.7038340417552"
    x2="506.02375856627054"
    y2="706.4374247753459"
    stroke="hsla(0,50%,50%,0.6)"
    stroke-width="1"
    transform="translate(-544.6288920881,-694.6597683976) scale(1,-1) translate(50,-110)"
    />
  
  <line
    x1="534.0809797110493"
    y1="614.6576265439348"
    x2="502.34999290696317"
    y2="705.1492143181749"
    stroke="hsla(0,50%,50%,0.6)"
    stroke-width="1"
    transform="translate(-544.6288920881,-694.6597683976) scale(1,-1) translate(50,-110)"
    />
  
  <line
    x1="507.4011273693473"
    y1="702.5952144356005"
    x2="506.02375856627054"
    y2="706.4374247753459"
    stroke="hsla(0,50%,50%,0.6)"
    stroke-width="1"
    transform="translate(-544.6288920881,-694.6597683976) scale(1,-1) translate(50,-110)"
    />
  
  <line
    x1="594.5945945945946"
    y1="732.4324324324324"
    x2="593.0451692446813"
    y2="736.9515897030128"
    stroke="hsla(0,50%,50%,0.6)"
    stroke-width="1"
    transform="translate(-544.6288920881,-694.6597683976) scale(1,-1) translate(50,-110)"
    />
  
  <line
    x1="625.1785474437224"
    y1="647.3145965523681"
    x2="593.0451692446813"
    y2="736.9515897030128"
    stroke="hsla(0,50%,50%,0.6)"
    stroke-width="1"
    transform="translate(-544.6288920881,-694.6597683976) scale(1,-1) translate(50,-110)"
    />
  
  <line
    x1="534.0809797110493"
    y1="614.6576265439348"
    x2="625.1785474437224"
    y2="647.3145965523681"
    stroke="hsla(0,50%,50%,0.6)"
    stroke-width="1"
    transform="translate(-544.6288920881,-694.6597683976) scale(1,-1) translate(50,-110)"
    />
  
  <line
    x1="534.0809797110493"
    y1="614.6576265439348"
    x2="537.1324182463588"
    y2="615.7038340417552"
    stroke="hsla(0,50%,50%,0.6)"
    stroke-width="1"
    transform="translate(-544.6288920881,-694.6597683976) scale(1,-1) translate(50,-110)"
    />
  
  <line
    x1="503.7095919448861"
    y1="701.2718600953895"
    x2="507.4011273693473"
    y2="702.5952144356005"
    stroke="hsla(0,50%,50%,0.6)"
    stroke-width="1"
    transform="translate(-544.6288920881,-694.6597683976) scale(1,-1) translate(50,-110)"
    />
  
  <line
    x1="502.34999290696317"
    y1="705.1492143181749"
    x2="593.0451692446813"
    y2="736.9515897030128"
    stroke="hsla(0,50%,50%,0.6)"
    stroke-width="1"
    transform="translate(-544.6288920881,-694.6597683976) scale(1,-1) translate(50,-110)"
    />
  
  <line
    x1="503.7095919448861"
    y1="701.2718600953895"
    x2="594.5945945945946"
    y2="732.4324324324324"
    stroke="hsla(0,50%,50%,0.6)"
    stroke-width="1"
    transform="translate(-544.6288920881,-694.6597683976) scale(1,-1) translate(50,-110)"
    />
  
</svg>
