<?xml version="1.0"?>
<!DOCTYPE svg PUBLIC "-//W3C//DTD SVG 1.1//EN"
  "http://www.w3.org/Graphics/SVG/1.1/DTD/svg11.dtd">
<svg
  width="240"
  height="240"
  viewBox="-500 -500 1000 1000" xmlns="http://www.w3.org/2000/svg" version="1.1">
  <rect
    x="0"
    y="0"
    width="100"
    height="100"
    fill="hsla(206,100%,53%,0.3)"
    stroke="hsl(206,100%,53%)"
    stroke-width="3"
    transform="" />
  
  <path
    d="M 
      0
      0
      L
    
      46.0317460317
      0
      L
    
      48.4707704219
      2.4390243902
      L
    
      48.4707704219
      53.9682539682
      L
    
      46.0317460317
      53.9682539682
      L
    
      46.0317460317
      2.4390243902
      L
    
      0
      2.4390243902
      z
    "
    fill="hsla(0,0%,50%,0.3)"
    stroke="hsla(0,0%,50%,1)"
    stroke-width="1"
    transform="translate(-24.2353852109,-26.9841269841)"
    />
  
  
  <line
    x1="46.03174603174603"
    y1="0"
    x2="48.47077042198993"
    y2="2.4390243902439024"
    stroke="hsla(0,50%,50%,0.6)"
    stroke-width="1"
    transform="translate(-24.2353852109,-26.9841269841)"
    />
  
  <line
    x1="0"
    y1="0"
    x2="46.03174603174603"
    y2="0"
    stroke="hsla(0,50%,50%,0.6)"
    stroke-width="1"
    transform="translate(-24.2353852109,-26.9841269841)"
    />
  
  <line
    x1="0"
    y1="0"
    x2="0"
    y2="2.4390243902439024"
    stroke="hsla(0,50%,50%,0.6)"
    stroke-width="1"
    transform="translate(-24.2353852109,-26.9841269841)"
    />
  
  <line
    x1="46.03174603174603"
    y1="0"
    x2="46.03174603174603"
    y2="53.96825396825397"
    stroke="hsla(0,50%,50%,0.6)"
    stroke-width="1"
    transform="translate(-24.2353852109,-26.9841269841)"
    />
  
  <line
    x1="48.47077042198993"
    y1="2.4390243902439024"
    x2="48.47077042198993"
    y2="53.96825396825397"
    stroke="hsla(0,50%,50%,0.6)"
    stroke-width="1"
    transform="translate(-24.2353852109,-26.9841269841)"
    />
  
  <line
    x1="0"
    y1="2.4390243902439024"
    x2="48.47077042198993"
    y2="2.4390243902439024"
    stroke="hsla(0,50%,50%,0.6)"
    stroke-width="1"
    transform="translate(-24.2353852109,-26.9841269841)"
    />
  
  <line
    x1="46.03174603174603"
    y1="53.96825396825397"
    x2="48.47077042198993"
    y2="53.96825396825397"
    stroke="hsla(0,50%,50%,0.6)"
    stroke-width="1"
    transform="translate(-24.2353852109,-26.9841269841)"
    />
  
</svg>
