<?xml version="1.0"?>
<!DOCTYPE svg PUBLIC "-//W3C//DTD SVG 1.1//EN"
  "http://www.w3.org/Graphics/SVG/1.1/DTD/svg11.dtd">
<svg
  width="240"
  height="240"
  viewBox="-500 -500 1000 1000" xmlns="http://www.w3.org/2000/svg" version="1.1">
  <rect
    x="0"
    y="0"
    width="100"
    height="100"
    fill="hsla(206,100%,53%,0.3)"
    stroke="hsl(206,100%,53%)"
    stroke-width="3"
    transform="" />
  
  <path
    d="M 
      30.6016517294
      25.0259317616
      L
    
      65.8731506227
      29.4580546016
      L
    
      66.7948413896
      30.1664552023
      L
    
      87.6627161453
      90.4216048183
      L
    
      80
      100
      L
    
      66.5080134940
      100
      L
    
      64.3294044511
      97.2980976085
      L
    
      19.6100895930
      100
      L
    
      15.3846153846
      100
      L
    
      10.0614664137
      96.8898455450
      L
    
      10.7268011559
      40.4635156413
      z
    "
    fill="hsla(0,0%,50%,0.3)"
    stroke="hsla(0,0%,50%,1)"
    stroke-width="1"
    transform="translate(-48.8620912795,-62.5129658808)"
    />
  
  
  <line
    x1="66.79484138968441"
    y1="30.166455202368482"
    x2="87.66271614532738"
    y2="90.42160481834078"
    stroke="hsla(0,50%,50%,0.6)"
    stroke-width="1"
    transform="translate(-48.8620912795,-62.5129658808)"
    />
  
  <line
    x1="51.28154665019178"
    y1="27.624512414070534"
    x2="53.93278546597554"
    y2="33.803982703874716"
    stroke="hsla(0,50%,50%,0.6)"
    stroke-width="1"
    transform="translate(-48.8620912795,-62.5129658808)"
    />
  
  <line
    x1="65.87315062271378"
    y1="29.45805460161782"
    x2="66.79484138968441"
    y2="30.166455202368482"
    stroke="hsla(0,50%,50%,0.6)"
    stroke-width="1"
    transform="translate(-48.8620912795,-62.5129658808)"
    />
  
  <line
    x1="79.2475106743498"
    y1="96.65560299711022"
    x2="80"
    y2="100"
    stroke="hsla(0,50%,50%,0.6)"
    stroke-width="1"
    transform="translate(-48.8620912795,-62.5129658808)"
    />
  
  <line
    x1="82.03157238822202"
    y1="89.7877939117196"
    x2="83.06722002348151"
    y2="96.16597497064811"
    stroke="hsla(0,50%,50%,0.6)"
    stroke-width="1"
    transform="translate(-48.8620912795,-62.5129658808)"
    />
  
  <line
    x1="34.931425202593154"
    y1="25.56999959271466"
    x2="50.257291811346164"
    y2="80.51791843939999"
    stroke="hsla(0,50%,50%,0.6)"
    stroke-width="1"
    transform="translate(-48.8620912795,-62.5129658808)"
    />
  
  <line
    x1="87.31069568316639"
    y1="90.38198331018981"
    x2="87.34913648952971"
    y2="90.81357938808786"
    stroke="hsla(0,50%,50%,0.6)"
    stroke-width="1"
    transform="translate(-48.8620912795,-62.5129658808)"
    />
  
  <line
    x1="30.60165172946866"
    y1="25.025931761621738"
    x2="42.00002829757195"
    y2="39.70057468732823"
    stroke="hsla(0,50%,50%,0.6)"
    stroke-width="1"
    transform="translate(-48.8620912795,-62.5129658808)"
    />
  
  <line
    x1="10.726801155982203"
    y1="40.463515641399574"
    x2="10.061466413720174"
    y2="96.88984554509493"
    stroke="hsla(0,50%,50%,0.6)"
    stroke-width="1"
    transform="translate(-48.8620912795,-62.5129658808)"
    />
  
  <line
    x1="40.9286339028516"
    y1="26.32359290433117"
    x2="53.93278546597554"
    y2="33.803982703874716"
    stroke="hsla(0,50%,50%,0.6)"
    stroke-width="1"
    transform="translate(-48.8620912795,-62.5129658808)"
    />
  
  <line
    x1="53.238760351745924"
    y1="83.54352428925127"
    x2="66.50801349400973"
    y2="100"
    stroke="hsla(0,50%,50%,0.6)"
    stroke-width="1"
    transform="translate(-48.8620912795,-62.5129658808)"
    />
  
  <line
    x1="79.2475106743498"
    y1="96.65560299711022"
    x2="81.22338289664961"
    y2="98.47077137918798"
    stroke="hsla(0,50%,50%,0.6)"
    stroke-width="1"
    transform="translate(-48.8620912795,-62.5129658808)"
    />
  
  <line
    x1="53.93278546597554"
    y1="33.803982703874716"
    x2="50"
    y2="50"
    stroke="hsla(0,50%,50%,0.6)"
    stroke-width="1"
    transform="translate(-48.8620912795,-62.5129658808)"
    />
  
  <line
    x1="66.79484138968441"
    y1="30.166455202368482"
    x2="53.238760351745924"
    y2="83.54352428925127"
    stroke="hsla(0,50%,50%,0.6)"
    stroke-width="1"
    transform="translate(-48.8620912795,-62.5129658808)"
    />
  
  <line
    x1="12.791745722450168"
    y1="95.30826181065784"
    x2="15.509554403332903"
    y2="100"
    stroke="hsla(0,50%,50%,0.6)"
    stroke-width="1"
    transform="translate(-48.8620912795,-62.5129658808)"
    />
  
  <line
    x1="30.60165172946866"
    y1="25.025931761621738"
    x2="65.87315062271378"
    y2="29.45805460161782"
    stroke="hsla(0,50%,50%,0.6)"
    stroke-width="1"
    transform="translate(-48.8620912795,-62.5129658808)"
    />
  
  <line
    x1="34.931425202593154"
    y1="25.56999959271466"
    x2="33.26901656939838"
    y2="28.459984527353996"
    stroke="hsla(0,50%,50%,0.6)"
    stroke-width="1"
    transform="translate(-48.8620912795,-62.5129658808)"
    />
  
  <line
    x1="72.57701250788531"
    y1="92.47325122298764"
    x2="81.22338289664961"
    y2="98.47077137918798"
    stroke="hsla(0,50%,50%,0.6)"
    stroke-width="1"
    transform="translate(-48.8620912795,-62.5129658808)"
    />
  
  <line
    x1="30.60165172946866"
    y1="25.025931761621738"
    x2="10.726801155982203"
    y2="40.463515641399574"
    stroke="hsla(0,50%,50%,0.6)"
    stroke-width="1"
    transform="translate(-48.8620912795,-62.5129658808)"
    />
  
  <line
    x1="15.573474272421297"
    y1="99.88965548128193"
    x2="15.509554403332903"
    y2="100"
    stroke="hsla(0,50%,50%,0.6)"
    stroke-width="1"
    transform="translate(-48.8620912795,-62.5129658808)"
    />
  
  <line
    x1="87.31069568316639"
    y1="90.38198331018981"
    x2="87.05000220913668"
    y2="91.18749723857916"
    stroke="hsla(0,50%,50%,0.6)"
    stroke-width="1"
    transform="translate(-48.8620912795,-62.5129658808)"
    />
  
  <line
    x1="40.9286339028516"
    y1="26.32359290433117"
    x2="33.26901656939838"
    y2="28.459984527353996"
    stroke="hsla(0,50%,50%,0.6)"
    stroke-width="1"
    transform="translate(-48.8620912795,-62.5129658808)"
    />
  
  <line
    x1="51.28154665019178"
    y1="27.624512414070534"
    x2="42.00002829757195"
    y2="39.70057468732823"
    stroke="hsla(0,50%,50%,0.6)"
    stroke-width="1"
    transform="translate(-48.8620912795,-62.5129658808)"
    />
  
  <line
    x1="10.726801155982203"
    y1="40.463515641399574"
    x2="50"
    y2="50"
    stroke="hsla(0,50%,50%,0.6)"
    stroke-width="1"
    transform="translate(-48.8620912795,-62.5129658808)"
    />
  
  <line
    x1="82.03157238822202"
    y1="89.7877939117196"
    x2="79.2475106743498"
    y2="96.65560299711022"
    stroke="hsla(0,50%,50%,0.6)"
    stroke-width="1"
    transform="translate(-48.8620912795,-62.5129658808)"
    />
  
  <line
    x1="69.16936536076054"
    y1="98.23209204453573"
    x2="72.15708681873416"
    y2="100"
    stroke="hsla(0,50%,50%,0.6)"
    stroke-width="1"
    transform="translate(-48.8620912795,-62.5129658808)"
    />
  
  <line
    x1="65.87315062271378"
    y1="29.45805460161782"
    x2="42.00002829757195"
    y2="39.70057468732823"
    stroke="hsla(0,50%,50%,0.6)"
    stroke-width="1"
    transform="translate(-48.8620912795,-62.5129658808)"
    />
  
  <line
    x1="72.57701250788531"
    y1="92.47325122298764"
    x2="69.16936536076054"
    y2="98.23209204453573"
    stroke="hsla(0,50%,50%,0.6)"
    stroke-width="1"
    transform="translate(-48.8620912795,-62.5129658808)"
    />
  
  <line
    x1="10.061466413720174"
    y1="96.88984554509493"
    x2="15.384615384615385"
    y2="100"
    stroke="hsla(0,50%,50%,0.6)"
    stroke-width="1"
    transform="translate(-48.8620912795,-62.5129658808)"
    />
  
  <line
    x1="72.57701250788531"
    y1="92.47325122298764"
    x2="66.50801349400973"
    y2="100"
    stroke="hsla(0,50%,50%,0.6)"
    stroke-width="1"
    transform="translate(-48.8620912795,-62.5129658808)"
    />
  
  <line
    x1="12.791745722450168"
    y1="95.30826181065784"
    x2="10.061466413720174"
    y2="96.88984554509493"
    stroke="hsla(0,50%,50%,0.6)"
    stroke-width="1"
    transform="translate(-48.8620912795,-62.5129658808)"
    />
  
  <line
    x1="87.66271614532738"
    y1="90.42160481834078"
    x2="80"
    y2="100"
    stroke="hsla(0,50%,50%,0.6)"
    stroke-width="1"
    transform="translate(-48.8620912795,-62.5129658808)"
    />
  
  <line
    x1="82.03157238822202"
    y1="89.7877939117196"
    x2="87.66271614532738"
    y2="90.42160481834078"
    stroke="hsla(0,50%,50%,0.6)"
    stroke-width="1"
    transform="translate(-48.8620912795,-62.5129658808)"
    />
  
  <line
    x1="15.573474272421297"
    y1="99.88965548128193"
    x2="15.384615384615385"
    y2="100"
    stroke="hsla(0,50%,50%,0.6)"
    stroke-width="1"
    transform="translate(-48.8620912795,-62.5129658808)"
    />
  
  <line
    x1="81.24002149010224"
    y1="71.87633214826947"
    x2="50.257291811346164"
    y2="80.51791843939999"
    stroke="hsla(0,50%,50%,0.6)"
    stroke-width="1"
    transform="translate(-48.8620912795,-62.5129658808)"
    />
  
  <line
    x1="81.24002149010224"
    y1="71.87633214826947"
    x2="53.238760351745924"
    y2="83.54352428925127"
    stroke="hsla(0,50%,50%,0.6)"
    stroke-width="1"
    transform="translate(-48.8620912795,-62.5129658808)"
    />
  
  <line
    x1="17.422853187456045"
    y1="99.86784906491782"
    x2="18.41450986773035"
    y2="100"
    stroke="hsla(0,50%,50%,0.6)"
    stroke-width="1"
    transform="translate(-48.8620912795,-62.5129658808)"
    />
  
  <line
    x1="17.422853187456045"
    y1="99.86784906491782"
    x2="19.610089593013928"
    y2="100"
    stroke="hsla(0,50%,50%,0.6)"
    stroke-width="1"
    transform="translate(-48.8620912795,-62.5129658808)"
    />
  
  <line
    x1="15.384615384615385"
    y1="100"
    x2="19.610089593013928"
    y2="100"
    stroke="hsla(0,50%,50%,0.6)"
    stroke-width="1"
    transform="translate(-48.8620912795,-62.5129658808)"
    />
  
  <line
    x1="66.50801349400973"
    y1="100"
    x2="80"
    y2="100"
    stroke="hsla(0,50%,50%,0.6)"
    stroke-width="1"
    transform="translate(-48.8620912795,-62.5129658808)"
    />
  
  <line
    x1="17.422853187456045"
    y1="99.86784906491782"
    x2="15.573474272421297"
    y2="99.88965548128193"
    stroke="hsla(0,50%,50%,0.6)"
    stroke-width="1"
    transform="translate(-48.8620912795,-62.5129658808)"
    />
  
  <line
    x1="87.34913648952971"
    y1="90.81357938808786"
    x2="18.41450986773035"
    y2="100"
    stroke="hsla(0,50%,50%,0.6)"
    stroke-width="1"
    transform="translate(-48.8620912795,-62.5129658808)"
    />
  
  <line
    x1="83.06722002348151"
    y1="96.16597497064811"
    x2="19.610089593013928"
    y2="100"
    stroke="hsla(0,50%,50%,0.6)"
    stroke-width="1"
    transform="translate(-48.8620912795,-62.5129658808)"
    />
  
  <line
    x1="87.05000220913668"
    y1="91.18749723857916"
    x2="72.15708681873416"
    y2="100"
    stroke="hsla(0,50%,50%,0.6)"
    stroke-width="1"
    transform="translate(-48.8620912795,-62.5129658808)"
    />
  
</svg>
