<?xml version="1.0"?>
<!DOCTYPE svg PUBLIC "-//W3C//DTD SVG 1.1//EN"
  "http://www.w3.org/Graphics/SVG/1.1/DTD/svg11.dtd">
<svg
  width="240"
  height="240"
  viewBox="-50 -50 200 200" xmlns="http://www.w3.org/2000/svg" version="1.1">
  <rect
    x="0"
    y="0"
    width="100"
    height="100"
    fill="hsla(206,100%,53%,0.3)"
    stroke="hsl(206,100%,53%)"
    stroke-width="3"
    transform="" />
  
  <path
    d="M 
      15.2397260273
      -36.4726027397
      L
    
      16.4383561643
      -18.8356164383
      L
    
      35.2739726027
      -2.3972602739
      L
    
      37.6712328767
      32.8767123287
      L
    
      18.8356164383
      16.4383561643
      L
    
      20.0342465753
      34.0753424657
      L
    
      2.3972602739
      35.2739726027
      L
    
      -16.4383561643
      18.8356164383
      L
    
      0
      0
      L
    
      -18.8356164383
      -16.4383561643
      L
    
      -2.3972602739
      -35.2739726027
      z
    "
    fill="hsla(0,0%,50%,0.3)"
    stroke="hsla(0,0%,50%,1)"
    stroke-width="1"
    transform="translate(6.1528454088,18.7364552119) scale(1,-1) translate(50,-110)"
    />
  
  
  <line
    x1="15.23972602739726"
    y1="-36.47260273972603"
    x2="-2.3972602739726026"
    y2="-35.273972602739725"
    stroke="hsla(0,50%,50%,0.6)"
    stroke-width="1"
    transform="translate(6.1528454088,18.7364552119) scale(1,-1) translate(50,-110)"
    />
  
  <line
    x1="-2.3972602739726026"
    y1="-35.273972602739725"
    x2="35.273972602739725"
    y2="-2.3972602739726026"
    stroke="hsla(0,50%,50%,0.6)"
    stroke-width="1"
    transform="translate(6.1528454088,18.7364552119) scale(1,-1) translate(50,-110)"
    />
  
  <line
    x1="-2.3972602739726026"
    y1="-35.273972602739725"
    x2="-18.835616438356166"
    y2="-16.438356164383563"
    stroke="hsla(0,50%,50%,0.6)"
    stroke-width="1"
    transform="translate(6.1528454088,18.7364552119) scale(1,-1) translate(50,-110)"
    />
  
  <line
    x1="35.273972602739725"
    y1="-2.3972602739726026"
    x2="37.67123287671233"
    y2="32.87671232876713"
    stroke="hsla(0,50%,50%,0.6)"
    stroke-width="1"
    transform="translate(6.1528454088,18.7364552119) scale(1,-1) translate(50,-110)"
    />
  
  <line
    x1="15.23972602739726"
    y1="-36.47260273972603"
    x2="20.034246575342465"
    y2="34.07534246575342"
    stroke="hsla(0,50%,50%,0.6)"
    stroke-width="1"
    transform="translate(6.1528454088,18.7364552119) scale(1,-1) translate(50,-110)"
    />
  
  <line
    x1="-18.835616438356166"
    y1="-16.438356164383563"
    x2="37.67123287671233"
    y2="32.87671232876713"
    stroke="hsla(0,50%,50%,0.6)"
    stroke-width="1"
    transform="translate(6.1528454088,18.7364552119) scale(1,-1) translate(50,-110)"
    />
  
  <line
    x1="-2.3972602739726026"
    y1="-35.273972602739725"
    x2="2.3972602739726026"
    y2="35.273972602739725"
    stroke="hsla(0,50%,50%,0.6)"
    stroke-width="1"
    transform="translate(6.1528454088,18.7364552119) scale(1,-1) translate(50,-110)"
    />
  
  <line
    x1="16.438356164383563"
    y1="-18.835616438356166"
    x2="-16.438356164383563"
    y2="18.835616438356166"
    stroke="hsla(0,50%,50%,0.6)"
    stroke-width="1"
    transform="translate(6.1528454088,18.7364552119) scale(1,-1) translate(50,-110)"
    />
  
  <line
    x1="35.273972602739725"
    y1="-2.3972602739726026"
    x2="0"
    y2="0"
    stroke="hsla(0,50%,50%,0.6)"
    stroke-width="1"
    transform="translate(6.1528454088,18.7364552119) scale(1,-1) translate(50,-110)"
    />
  
  <line
    x1="35.273972602739725"
    y1="-2.3972602739726026"
    x2="2.3972602739726026"
    y2="35.273972602739725"
    stroke="hsla(0,50%,50%,0.6)"
    stroke-width="1"
    transform="translate(6.1528454088,18.7364552119) scale(1,-1) translate(50,-110)"
    />
  
  <line
    x1="-16.438356164383563"
    y1="18.835616438356166"
    x2="2.3972602739726026"
    y2="35.273972602739725"
    stroke="hsla(0,50%,50%,0.6)"
    stroke-width="1"
    transform="translate(6.1528454088,18.7364552119) scale(1,-1) translate(50,-110)"
    />
  
  <line
    x1="20.034246575342465"
    y1="34.07534246575342"
    x2="2.3972602739726026"
    y2="35.273972602739725"
    stroke="hsla(0,50%,50%,0.6)"
    stroke-width="1"
    transform="translate(6.1528454088,18.7364552119) scale(1,-1) translate(50,-110)"
    />
  
</svg>
