<?xml version="1.0"?>
<!DOCTYPE svg PUBLIC "-//W3C//DTD SVG 1.1//EN"
  "http://www.w3.org/Graphics/SVG/1.1/DTD/svg11.dtd">
<svg
  width="240"
  height="240"
  viewBox="-500 -500 1000 1000" xmlns="http://www.w3.org/2000/svg" version="1.1">
  <rect
    x="0"
    y="0"
    width="100"
    height="100"
    fill="hsla(206,100%,53%,0.3)"
    stroke="hsl(206,100%,53%)"
    stroke-width="3"
    transform="" />
  
  <path
    d="M 
      0
      0
      L
    
      74.6031746031
      0
      L
    
      76.2980898574
      1.6949152542
      L
    
      76.2980898574
      25.3968253968
      L
    
      74.6031746031
      25.3968253968
      L
    
      74.6031746031
      1.6949152542
      L
    
      0
      1.6949152542
      z
    "
    fill="hsla(0,0%,50%,0.3)"
    stroke="hsla(0,0%,50%,1)"
    stroke-width="1"
    transform="translate(-38.1490449287,-12.6984126984)"
    />
  
  
  <line
    x1="74.60317460317461"
    y1="0"
    x2="76.2980898574119"
    y2="1.694915254237288"
    stroke="hsla(0,50%,50%,0.6)"
    stroke-width="1"
    transform="translate(-38.1490449287,-12.6984126984)"
    />
  
  <line
    x1="0"
    y1="0"
    x2="74.60317460317461"
    y2="0"
    stroke="hsla(0,50%,50%,0.6)"
    stroke-width="1"
    transform="translate(-38.1490449287,-12.6984126984)"
    />
  
  <line
    x1="0"
    y1="0"
    x2="0"
    y2="1.694915254237288"
    stroke="hsla(0,50%,50%,0.6)"
    stroke-width="1"
    transform="translate(-38.1490449287,-12.6984126984)"
    />
  
  <line
    x1="74.60317460317461"
    y1="0"
    x2="74.60317460317461"
    y2="25.396825396825395"
    stroke="hsla(0,50%,50%,0.6)"
    stroke-width="1"
    transform="translate(-38.1490449287,-12.6984126984)"
    />
  
  <line
    x1="76.2980898574119"
    y1="1.694915254237288"
    x2="76.2980898574119"
    y2="25.396825396825395"
    stroke="hsla(0,50%,50%,0.6)"
    stroke-width="1"
    transform="translate(-38.1490449287,-12.6984126984)"
    />
  
  <line
    x1="0"
    y1="1.694915254237288"
    x2="76.2980898574119"
    y2="1.694915254237288"
    stroke="hsla(0,50%,50%,0.6)"
    stroke-width="1"
    transform="translate(-38.1490449287,-12.6984126984)"
    />
  
  <line
    x1="74.60317460317461"
    y1="25.396825396825395"
    x2="76.2980898574119"
    y2="25.396825396825395"
    stroke="hsla(0,50%,50%,0.6)"
    stroke-width="1"
    transform="translate(-38.1490449287,-12.6984126984)"
    />
  
</svg>
