<?xml version="1.0"?>
<!DOCTYPE svg PUBLIC "-//W3C//DTD SVG 1.1//EN"
  "http://www.w3.org/Graphics/SVG/1.1/DTD/svg11.dtd">
<svg
  width="240"
  height="240"
  viewBox="-50 -50 200 200" xmlns="http://www.w3.org/2000/svg" version="1.1">
  <rect
    x="0"
    y="0"
    width="100"
    height="100"
    fill="hsla(206,100%,53%,0.3)"
    stroke="hsl(206,100%,53%)"
    stroke-width="3"
    transform="" />
  
  <path
    d="M 
      15.8468418110
      14.3865287870
      L
    
      27.9974846282
      17.3211291224
      L
    
      13.6105520414
      26.1105520414
      L
    
      18.75
      31.25
      L
    
      19.375
      30.625
      L
    
      18.9024390243
      29.8780487804
      L
    
      22.2222222222
      27.7777777777
      L
    
      40
      50
      L
    
      37.8048780487
      59.7560975609
      L
    
      22.8658536585
      69.2073170731
      L
    
      27.1875
      50
      L
    
      7.2455434157
      50
      L
    
      7.0430408049
      50.8384572386
      L
    
      3.5714285714
      50
      L
    
      7.1808510638
      19.6808510638
      z
    "
    fill="hsla(0,0%,50%,0.3)"
    stroke="hsla(0,0%,50%,1)"
    stroke-width="1"
    transform="translate(-7.5552359535,-35.2373908953) scale(1,-1) translate(50,-110)"
    />
  
  
  <line
    x1="22.22222222222222"
    y1="27.77777777777778"
    x2="40"
    y2="50"
    stroke="hsla(0,50%,50%,0.6)"
    stroke-width="1"
    transform="translate(-7.5552359535,-35.2373908953) scale(1,-1) translate(50,-110)"
    />
  
  <line
    x1="18.902439024390244"
    y1="29.878048780487806"
    x2="37.80487804878049"
    y2="59.75609756097561"
    stroke="hsla(0,50%,50%,0.6)"
    stroke-width="1"
    transform="translate(-7.5552359535,-35.2373908953) scale(1,-1) translate(50,-110)"
    />
  
  <line
    x1="7.180851063829787"
    y1="19.680851063829788"
    x2="3.5714285714285716"
    y2="50"
    stroke="hsla(0,50%,50%,0.6)"
    stroke-width="1"
    transform="translate(-7.5552359535,-35.2373908953) scale(1,-1) translate(50,-110)"
    />
  
  <line
    x1="15.846841811067636"
    y1="14.386528787031862"
    x2="7.043040804918949"
    y2="50.838457238680824"
    stroke="hsla(0,50%,50%,0.6)"
    stroke-width="1"
    transform="translate(-7.5552359535,-35.2373908953) scale(1,-1) translate(50,-110)"
    />
  
  <line
    x1="7.180851063829787"
    y1="19.680851063829788"
    x2="37.5"
    y2="50"
    stroke="hsla(0,50%,50%,0.6)"
    stroke-width="1"
    transform="translate(-7.5552359535,-35.2373908953) scale(1,-1) translate(50,-110)"
    />
  
  <line
    x1="30"
    y1="37.5"
    x2="22.865853658536587"
    y2="69.20731707317073"
    stroke="hsla(0,50%,50%,0.6)"
    stroke-width="1"
    transform="translate(-7.5552359535,-35.2373908953) scale(1,-1) translate(50,-110)"
    />
  
  <line
    x1="15.846841811067636"
    y1="14.386528787031862"
    x2="27.997484628283956"
    y2="17.321129122414757"
    stroke="hsla(0,50%,50%,0.6)"
    stroke-width="1"
    transform="translate(-7.5552359535,-35.2373908953) scale(1,-1) translate(50,-110)"
    />
  
  <line
    x1="4.054054054054054"
    y1="45.945945945945944"
    x2="7.043040804918949"
    y2="50.838457238680824"
    stroke="hsla(0,50%,50%,0.6)"
    stroke-width="1"
    transform="translate(-7.5552359535,-35.2373908953) scale(1,-1) translate(50,-110)"
    />
  
  <line
    x1="40"
    y1="50"
    x2="37.80487804878049"
    y2="59.75609756097561"
    stroke="hsla(0,50%,50%,0.6)"
    stroke-width="1"
    transform="translate(-7.5552359535,-35.2373908953) scale(1,-1) translate(50,-110)"
    />
  
  <line
    x1="5.851063829787234"
    y1="30.851063829787233"
    x2="25"
    y2="50"
    stroke="hsla(0,50%,50%,0.6)"
    stroke-width="1"
    transform="translate(-7.5552359535,-35.2373908953) scale(1,-1) translate(50,-110)"
    />
  
  <line
    x1="15.846841811067636"
    y1="14.386528787031862"
    x2="7.180851063829787"
    y2="19.680851063829788"
    stroke="hsla(0,50%,50%,0.6)"
    stroke-width="1"
    transform="translate(-7.5552359535,-35.2373908953) scale(1,-1) translate(50,-110)"
    />
  
  <line
    x1="4.5212765957446805"
    y1="42.02127659574468"
    x2="12.5"
    y2="50"
    stroke="hsla(0,50%,50%,0.6)"
    stroke-width="1"
    transform="translate(-7.5552359535,-35.2373908953) scale(1,-1) translate(50,-110)"
    />
  
  <line
    x1="22.22222222222222"
    y1="27.77777777777778"
    x2="4.054054054054054"
    y2="45.945945945945944"
    stroke="hsla(0,50%,50%,0.6)"
    stroke-width="1"
    transform="translate(-7.5552359535,-35.2373908953) scale(1,-1) translate(50,-110)"
    />
  
  <line
    x1="27.997484628283956"
    y1="17.321129122414757"
    x2="5.851063829787234"
    y2="30.851063829787233"
    stroke="hsla(0,50%,50%,0.6)"
    stroke-width="1"
    transform="translate(-7.5552359535,-35.2373908953) scale(1,-1) translate(50,-110)"
    />
  
  <line
    x1="22.22222222222222"
    y1="27.77777777777778"
    x2="18.902439024390244"
    y2="29.878048780487806"
    stroke="hsla(0,50%,50%,0.6)"
    stroke-width="1"
    transform="translate(-7.5552359535,-35.2373908953) scale(1,-1) translate(50,-110)"
    />
  
  <line
    x1="27.77777777777778"
    y1="34.72222222222222"
    x2="12.5"
    y2="50"
    stroke="hsla(0,50%,50%,0.6)"
    stroke-width="1"
    transform="translate(-7.5552359535,-35.2373908953) scale(1,-1) translate(50,-110)"
    />
  
  <line
    x1="9.977641140301845"
    y1="38.6878144214645"
    x2="4.5212765957446805"
    y2="42.02127659574468"
    stroke="hsla(0,50%,50%,0.6)"
    stroke-width="1"
    transform="translate(-7.5552359535,-35.2373908953) scale(1,-1) translate(50,-110)"
    />
  
  <line
    x1="5.059523809523809"
    y1="37.5"
    x2="9.977641140301845"
    y2="38.6878144214645"
    stroke="hsla(0,50%,50%,0.6)"
    stroke-width="1"
    transform="translate(-7.5552359535,-35.2373908953) scale(1,-1) translate(50,-110)"
    />
  
  <line
    x1="27.77777777777778"
    y1="34.72222222222222"
    x2="23.628048780487806"
    y2="37.34756097560975"
    stroke="hsla(0,50%,50%,0.6)"
    stroke-width="1"
    transform="translate(-7.5552359535,-35.2373908953) scale(1,-1) translate(50,-110)"
    />
  
  <line
    x1="5.059523809523809"
    y1="37.5"
    x2="30"
    y2="37.5"
    stroke="hsla(0,50%,50%,0.6)"
    stroke-width="1"
    transform="translate(-7.5552359535,-35.2373908953) scale(1,-1) translate(50,-110)"
    />
  
  <line
    x1="33.333333333333336"
    y1="41.666666666666664"
    x2="25"
    y2="50"
    stroke="hsla(0,50%,50%,0.6)"
    stroke-width="1"
    transform="translate(-7.5552359535,-35.2373908953) scale(1,-1) translate(50,-110)"
    />
  
  <line
    x1="38.888888888888886"
    y1="48.611111111111114"
    x2="37.5"
    y2="50"
    stroke="hsla(0,50%,50%,0.6)"
    stroke-width="1"
    transform="translate(-7.5552359535,-35.2373908953) scale(1,-1) translate(50,-110)"
    />
  
  <line
    x1="33.333333333333336"
    y1="41.666666666666664"
    x2="28.353658536585368"
    y2="44.81707317073171"
    stroke="hsla(0,50%,50%,0.6)"
    stroke-width="1"
    transform="translate(-7.5552359535,-35.2373908953) scale(1,-1) translate(50,-110)"
    />
  
  <line
    x1="3.5714285714285716"
    y1="50"
    x2="7.043040804918949"
    y2="50.838457238680824"
    stroke="hsla(0,50%,50%,0.6)"
    stroke-width="1"
    transform="translate(-7.5552359535,-35.2373908953) scale(1,-1) translate(50,-110)"
    />
  
  <line
    x1="3.5714285714285716"
    y1="50"
    x2="40"
    y2="50"
    stroke="hsla(0,50%,50%,0.6)"
    stroke-width="1"
    transform="translate(-7.5552359535,-35.2373908953) scale(1,-1) translate(50,-110)"
    />
  
  <line
    x1="38.888888888888886"
    y1="48.611111111111114"
    x2="33.079268292682926"
    y2="52.28658536585366"
    stroke="hsla(0,50%,50%,0.6)"
    stroke-width="1"
    transform="translate(-7.5552359535,-35.2373908953) scale(1,-1) translate(50,-110)"
    />
  
  <line
    x1="37.80487804878049"
    y1="59.75609756097561"
    x2="22.865853658536587"
    y2="69.20731707317073"
    stroke="hsla(0,50%,50%,0.6)"
    stroke-width="1"
    transform="translate(-7.5552359535,-35.2373908953) scale(1,-1) translate(50,-110)"
    />
  
</svg>
