<?xml version="1.0"?>
<!DOCTYPE svg PUBLIC "-//W3C//DTD SVG 1.1//EN"
  "http://www.w3.org/Graphics/SVG/1.1/DTD/svg11.dtd">
<svg
  width="240"
  height="240"
  viewBox="-50 -50 200 200" xmlns="http://www.w3.org/2000/svg" version="1.1">
  <rect
    x="0"
    y="0"
    width="100"
    height="100"
    fill="hsla(206,100%,53%,0.3)"
    stroke="hsl(206,100%,53%)"
    stroke-width="3"
    transform="" />
  
  <path
    d="M 
      59.5848595848
      -86.6666666666
      L
    
      106.5079365079
      -86.6666666666
      L
    
      106.5079365079
      6.6666666666
      L
    
      59.5848595848
      6.6666666666
      z
    "
    fill="hsla(0,0%,50%,0.3)"
    stroke="hsla(0,0%,50%,1)"
    stroke-width="1"
    transform="translate(-77.1810134310,16.6666666666) scale(1,-1) translate(50,-110)"
    />
  
  
  <line
    x1="59.584859584859586"
    y1="-86.66666666666667"
    x2="106.5079365079365"
    y2="-86.66666666666667"
    stroke="hsla(0,50%,50%,0.6)"
    stroke-width="1"
    transform="translate(-77.1810134310,16.6666666666) scale(1,-1) translate(50,-110)"
    />
  
  <line
    x1="59.584859584859586"
    y1="0"
    x2="106.5079365079365"
    y2="0"
    stroke="hsla(0,50%,50%,0.6)"
    stroke-width="1"
    transform="translate(-77.1810134310,16.6666666666) scale(1,-1) translate(50,-110)"
    />
  
  <line
    x1="59.584859584859586"
    y1="-86.66666666666667"
    x2="59.584859584859586"
    y2="6.666666666666667"
    stroke="hsla(0,50%,50%,0.6)"
    stroke-width="1"
    transform="translate(-77.1810134310,16.6666666666) scale(1,-1) translate(50,-110)"
    />
  
  <line
    x1="67.27716727716728"
    y1="-86.66666666666667"
    x2="67.27716727716728"
    y2="6.666666666666667"
    stroke="hsla(0,50%,50%,0.6)"
    stroke-width="1"
    transform="translate(-77.1810134310,16.6666666666) scale(1,-1) translate(50,-110)"
    />
  
  <line
    x1="74.96947496947497"
    y1="-86.66666666666667"
    x2="74.96947496947497"
    y2="6.666666666666667"
    stroke="hsla(0,50%,50%,0.6)"
    stroke-width="1"
    transform="translate(-77.1810134310,16.6666666666) scale(1,-1) translate(50,-110)"
    />
  
  <line
    x1="76.5079365079365"
    y1="-86.66666666666667"
    x2="76.5079365079365"
    y2="6.666666666666667"
    stroke="hsla(0,50%,50%,0.6)"
    stroke-width="1"
    transform="translate(-77.1810134310,16.6666666666) scale(1,-1) translate(50,-110)"
    />
  
  <line
    x1="106.5079365079365"
    y1="-86.66666666666667"
    x2="106.5079365079365"
    y2="6.666666666666667"
    stroke="hsla(0,50%,50%,0.6)"
    stroke-width="1"
    transform="translate(-77.1810134310,16.6666666666) scale(1,-1) translate(50,-110)"
    />
  
  <line
    x1="59.584859584859586"
    y1="6.666666666666667"
    x2="106.5079365079365"
    y2="6.666666666666667"
    stroke="hsla(0,50%,50%,0.6)"
    stroke-width="1"
    transform="translate(-77.1810134310,16.6666666666) scale(1,-1) translate(50,-110)"
    />
  
</svg>
