<?xml version="1.0"?>
<!DOCTYPE svg PUBLIC "-//W3C//DTD SVG 1.1//EN"
  "http://www.w3.org/Graphics/SVG/1.1/DTD/svg11.dtd">
<svg
  width="240"
  height="240"
  viewBox="-50 -50 200 200" xmlns="http://www.w3.org/2000/svg" version="1.1">
  <rect
    x="0"
    y="0"
    width="100"
    height="100"
    fill="hsla(206,100%,53%,0.3)"
    stroke="hsl(206,100%,53%)"
    stroke-width="3"
    transform="" />
  
  <path
    d="M 
      60
      32.6923076923
      L
    
      82.5
      32.6923076923
      L
    
      82.5
      44.4444444444
      L
    
      60
      44.4444444444
      z
    "
    fill="hsla(0,0%,50%,0.3)"
    stroke="hsla(0,0%,50%,1)"
    stroke-width="1"
    transform="translate(-68.4375,-41.5064102564) scale(1,-1) translate(50,-110)"
    />
  
  
  <line
    x1="60"
    y1="32.69230769230769"
    x2="60"
    y2="44.44444444444444"
    stroke="hsla(0,50%,50%,0.6)"
    stroke-width="1"
    transform="translate(-68.4375,-41.5064102564) scale(1,-1) translate(50,-110)"
    />
  
  <line
    x1="66.66666666666667"
    y1="32.69230769230769"
    x2="66.66666666666667"
    y2="44.44444444444444"
    stroke="hsla(0,50%,50%,0.6)"
    stroke-width="1"
    transform="translate(-68.4375,-41.5064102564) scale(1,-1) translate(50,-110)"
    />
  
  <line
    x1="75"
    y1="32.69230769230769"
    x2="75"
    y2="44.44444444444444"
    stroke="hsla(0,50%,50%,0.6)"
    stroke-width="1"
    transform="translate(-68.4375,-41.5064102564) scale(1,-1) translate(50,-110)"
    />
  
  <line
    x1="78.33333333333333"
    y1="32.69230769230769"
    x2="78.33333333333333"
    y2="44.44444444444444"
    stroke="hsla(0,50%,50%,0.6)"
    stroke-width="1"
    transform="translate(-68.4375,-41.5064102564) scale(1,-1) translate(50,-110)"
    />
  
  <line
    x1="82.5"
    y1="32.69230769230769"
    x2="82.5"
    y2="44.44444444444444"
    stroke="hsla(0,50%,50%,0.6)"
    stroke-width="1"
    transform="translate(-68.4375,-41.5064102564) scale(1,-1) translate(50,-110)"
    />
  
  <line
    x1="60"
    y1="32.69230769230769"
    x2="82.5"
    y2="32.69230769230769"
    stroke="hsla(0,50%,50%,0.6)"
    stroke-width="1"
    transform="translate(-68.4375,-41.5064102564) scale(1,-1) translate(50,-110)"
    />
  
  <line
    x1="60"
    y1="35.042735042735046"
    x2="82.5"
    y2="35.042735042735046"
    stroke="hsla(0,50%,50%,0.6)"
    stroke-width="1"
    transform="translate(-68.4375,-41.5064102564) scale(1,-1) translate(50,-110)"
    />
  
  <line
    x1="60"
    y1="38.888888888888886"
    x2="82.5"
    y2="38.888888888888886"
    stroke="hsla(0,50%,50%,0.6)"
    stroke-width="1"
    transform="translate(-68.4375,-41.5064102564) scale(1,-1) translate(50,-110)"
    />
  
  <line
    x1="60"
    y1="44.44444444444444"
    x2="82.5"
    y2="44.44444444444444"
    stroke="hsla(0,50%,50%,0.6)"
    stroke-width="1"
    transform="translate(-68.4375,-41.5064102564) scale(1,-1) translate(50,-110)"
    />
  
</svg>
