<?xml version="1.0"?>
<!DOCTYPE svg PUBLIC "-//W3C//DTD SVG 1.1//EN"
  "http://www.w3.org/Graphics/SVG/1.1/DTD/svg11.dtd">
<svg
  width="240"
  height="240"
  viewBox="-50 -50 200 200" xmlns="http://www.w3.org/2000/svg" version="1.1">
  <rect
    x="0"
    y="0"
    width="100"
    height="100"
    fill="hsla(206,100%,53%,0.3)"
    stroke="hsl(206,100%,53%)"
    stroke-width="3"
    transform="" />
  
  <path
    d="M 
      20
      0
      L
    
      70
      0
      L
    
      100
      30
      L
    
      100
      50
      L
    
      50
      50
      L
    
      20
      20
      z
    "
    fill="hsla(0,0%,50%,0.3)"
    stroke="hsla(0,0%,50%,1)"
    stroke-width="1"
    transform="translate(-44.0625,-30.625) scale(1,-1) translate(50,-110)"
    />
  
  
  <line
    x1="70"
    y1="0"
    x2="100"
    y2="30"
    stroke="hsla(0,50%,50%,0.6)"
    stroke-width="1"
    transform="translate(-44.0625,-30.625) scale(1,-1) translate(50,-110)"
    />
  
  <line
    x1="30"
    y1="0"
    x2="80"
    y2="50"
    stroke="hsla(0,50%,50%,0.6)"
    stroke-width="1"
    transform="translate(-44.0625,-30.625) scale(1,-1) translate(50,-110)"
    />
  
  <line
    x1="20"
    y1="0"
    x2="30"
    y2="10"
    stroke="hsla(0,50%,50%,0.6)"
    stroke-width="1"
    transform="translate(-44.0625,-30.625) scale(1,-1) translate(50,-110)"
    />
  
  <line
    x1="20"
    y1="0"
    x2="70"
    y2="0"
    stroke="hsla(0,50%,50%,0.6)"
    stroke-width="1"
    transform="translate(-44.0625,-30.625) scale(1,-1) translate(50,-110)"
    />
  
  <line
    x1="20"
    y1="20"
    x2="50"
    y2="50"
    stroke="hsla(0,50%,50%,0.6)"
    stroke-width="1"
    transform="translate(-44.0625,-30.625) scale(1,-1) translate(50,-110)"
    />
  
  <line
    x1="20"
    y1="0"
    x2="20"
    y2="20"
    stroke="hsla(0,50%,50%,0.6)"
    stroke-width="1"
    transform="translate(-44.0625,-30.625) scale(1,-1) translate(50,-110)"
    />
  
  <line
    x1="30"
    y1="0"
    x2="30"
    y2="30"
    stroke="hsla(0,50%,50%,0.6)"
    stroke-width="1"
    transform="translate(-44.0625,-30.625) scale(1,-1) translate(50,-110)"
    />
  
  <line
    x1="70"
    y1="0"
    x2="70"
    y2="50"
    stroke="hsla(0,50%,50%,0.6)"
    stroke-width="1"
    transform="translate(-44.0625,-30.625) scale(1,-1) translate(50,-110)"
    />
  
  <line
    x1="100"
    y1="30"
    x2="100"
    y2="50"
    stroke="hsla(0,50%,50%,0.6)"
    stroke-width="1"
    transform="translate(-44.0625,-30.625) scale(1,-1) translate(50,-110)"
    />
  
  <line
    x1="30"
    y1="10"
    x2="20"
    y2="20"
    stroke="hsla(0,50%,50%,0.6)"
    stroke-width="1"
    transform="translate(-44.0625,-30.625) scale(1,-1) translate(50,-110)"
    />
  
  <line
    x1="30"
    y1="30"
    x2="100"
    y2="30"
    stroke="hsla(0,50%,50%,0.6)"
    stroke-width="1"
    transform="translate(-44.0625,-30.625) scale(1,-1) translate(50,-110)"
    />
  
  <line
    x1="50"
    y1="50"
    x2="100"
    y2="50"
    stroke="hsla(0,50%,50%,0.6)"
    stroke-width="1"
    transform="translate(-44.0625,-30.625) scale(1,-1) translate(50,-110)"
    />
  
  <line
    x1="85"
    y1="15"
    x2="50"
    y2="50"
    stroke="hsla(0,50%,50%,0.6)"
    stroke-width="1"
    transform="translate(-44.0625,-30.625) scale(1,-1) translate(50,-110)"
    />
  
  <line
    x1="100"
    y1="30"
    x2="80"
    y2="50"
    stroke="hsla(0,50%,50%,0.6)"
    stroke-width="1"
    transform="translate(-44.0625,-30.625) scale(1,-1) translate(50,-110)"
    />
  
</svg>
