<?xml version="1.0"?>
<!DOCTYPE svg PUBLIC "-//W3C//DTD SVG 1.1//EN"
  "http://www.w3.org/Graphics/SVG/1.1/DTD/svg11.dtd">
<svg
  width="240"
  height="240"
  viewBox="-50 -50 200 200" xmlns="http://www.w3.org/2000/svg" version="1.1">
  <rect
    x="0"
    y="0"
    width="100"
    height="100"
    fill="hsla(206,100%,53%,0.3)"
    stroke="hsl(206,100%,53%)"
    stroke-width="3"
    transform="" />
  
  <path
    d="M 
      14.2857142857
      28.5714285714
      L
    
      57.1428571428
      28.5714285714
      L
    
      71.4285714285
      42.8571428571
      L
    
      71.4285714285
      85.7142857142
      L
    
      57.1428571428
      85.7142857142
      L
    
      57.1428571428
      42.8571428571
      L
    
      14.2857142857
      42.8571428571
      z
    "
    fill="hsla(0,0%,50%,0.3)"
    stroke="hsla(0,0%,50%,1)"
    stroke-width="1"
    transform="translate(-36.3839285714,-50.4464285714) scale(1,-1) translate(50,-110)"
    />
  
  
  <line
    x1="57.142857142857146"
    y1="28.571428571428573"
    x2="71.42857142857143"
    y2="42.857142857142854"
    stroke="hsla(0,50%,50%,0.6)"
    stroke-width="1"
    transform="translate(-36.3839285714,-50.4464285714) scale(1,-1) translate(50,-110)"
    />
  
  <line
    x1="14.285714285714286"
    y1="28.571428571428573"
    x2="14.285714285714286"
    y2="42.857142857142854"
    stroke="hsla(0,50%,50%,0.6)"
    stroke-width="1"
    transform="translate(-36.3839285714,-50.4464285714) scale(1,-1) translate(50,-110)"
    />
  
  <line
    x1="57.142857142857146"
    y1="28.571428571428573"
    x2="57.142857142857146"
    y2="85.71428571428571"
    stroke="hsla(0,50%,50%,0.6)"
    stroke-width="1"
    transform="translate(-36.3839285714,-50.4464285714) scale(1,-1) translate(50,-110)"
    />
  
  <line
    x1="71.42857142857143"
    y1="42.857142857142854"
    x2="71.42857142857143"
    y2="85.71428571428571"
    stroke="hsla(0,50%,50%,0.6)"
    stroke-width="1"
    transform="translate(-36.3839285714,-50.4464285714) scale(1,-1) translate(50,-110)"
    />
  
  <line
    x1="14.285714285714286"
    y1="28.571428571428573"
    x2="57.142857142857146"
    y2="28.571428571428573"
    stroke="hsla(0,50%,50%,0.6)"
    stroke-width="1"
    transform="translate(-36.3839285714,-50.4464285714) scale(1,-1) translate(50,-110)"
    />
  
  <line
    x1="14.285714285714286"
    y1="42.857142857142854"
    x2="71.42857142857143"
    y2="42.857142857142854"
    stroke="hsla(0,50%,50%,0.6)"
    stroke-width="1"
    transform="translate(-36.3839285714,-50.4464285714) scale(1,-1) translate(50,-110)"
    />
  
  <line
    x1="57.142857142857146"
    y1="85.71428571428571"
    x2="71.42857142857143"
    y2="85.71428571428571"
    stroke="hsla(0,50%,50%,0.6)"
    stroke-width="1"
    transform="translate(-36.3839285714,-50.4464285714) scale(1,-1) translate(50,-110)"
    />
  
</svg>
