<?xml version="1.0"?>
<!DOCTYPE svg PUBLIC "-//W3C//DTD SVG 1.1//EN"
  "http://www.w3.org/Graphics/SVG/1.1/DTD/svg11.dtd">
<svg
  width="240"
  height="240"
  viewBox="-50 -50 200 200" xmlns="http://www.w3.org/2000/svg" version="1.1">
  <rect
    x="0"
    y="0"
    width="100"
    height="100"
    fill="hsla(206,100%,53%,0.3)"
    stroke="hsl(206,100%,53%)"
    stroke-width="3"
    transform="" />
  
  <path
    d="M 
      146.8737049671
      -73.8398911871
      L
    
      157.8305224142
      -11.4063413006
      L
    
      100
      8.6963707095
      L
    
      100
      10
      L
    
      81.1787533349
      15.2389037108
      L
    
      57.5462774540
      -60.3509567962
      L
    
      57.0526440293
      -68.1674127161
      z
    "
    fill="hsla(0,0%,50%,0.3)"
    stroke="hsla(0,0%,50%,1)"
    stroke-width="1"
    transform="translate(-67.1962390978,47.7017933912) scale(1,-1) translate(50,-110)"
    />
  
  
  <line
    x1="139.22085732389397"
    y1="-43.52612282584453"
    x2="144.91691648875891"
    y2="-35.306943427001954"
    stroke="hsla(0,50%,50%,0.6)"
    stroke-width="1"
    transform="translate(-67.1962390978,47.7017933912) scale(1,-1) translate(50,-110)"
    />
  
  <line
    x1="144.91691648875891"
    y1="-35.306943427001954"
    x2="157.83052241424144"
    y2="-11.406341300667508"
    stroke="hsla(0,50%,50%,0.6)"
    stroke-width="1"
    transform="translate(-67.1962390978,47.7017933912) scale(1,-1) translate(50,-110)"
    />
  
  <line
    x1="146.87370496715434"
    y1="-73.8398911871765"
    x2="57.05264402933181"
    y2="-68.1674127161752"
    stroke="hsla(0,50%,50%,0.6)"
    stroke-width="1"
    transform="translate(-67.1962390978,47.7017933912) scale(1,-1) translate(50,-110)"
    />
  
  <line
    x1="144.91691648875891"
    y1="-35.306943427001954"
    x2="154.99327667341902"
    y2="-10.42007433213859"
    stroke="hsla(0,50%,50%,0.6)"
    stroke-width="1"
    transform="translate(-67.1962390978,47.7017933912) scale(1,-1) translate(50,-110)"
    />
  
  <line
    x1="137.27535772792967"
    y1="-71.03423078804248"
    x2="154.99327667341902"
    y2="-10.42007433213859"
    stroke="hsla(0,50%,50%,0.6)"
    stroke-width="1"
    transform="translate(-67.1962390978,47.7017933912) scale(1,-1) translate(50,-110)"
    />
  
  <line
    x1="57.54627745408296"
    y1="-60.35095679621227"
    x2="100"
    y2="10"
    stroke="hsla(0,50%,50%,0.6)"
    stroke-width="1"
    transform="translate(-67.1962390978,47.7017933912) scale(1,-1) translate(50,-110)"
    />
  
  <line
    x1="146.87370496715434"
    y1="-73.8398911871765"
    x2="137.27535772792967"
    y2="-71.03423078804248"
    stroke="hsla(0,50%,50%,0.6)"
    stroke-width="1"
    transform="translate(-67.1962390978,47.7017933912) scale(1,-1) translate(50,-110)"
    />
  
  <line
    x1="146.87370496715434"
    y1="-73.8398911871765"
    x2="157.83052241424144"
    y2="-11.406341300667508"
    stroke="hsla(0,50%,50%,0.6)"
    stroke-width="1"
    transform="translate(-67.1962390978,47.7017933912) scale(1,-1) translate(50,-110)"
    />
  
  <line
    x1="57.54627745408296"
    y1="-60.35095679621227"
    x2="81.17875333495027"
    y2="15.238903710890128"
    stroke="hsla(0,50%,50%,0.6)"
    stroke-width="1"
    transform="translate(-67.1962390978,47.7017933912) scale(1,-1) translate(50,-110)"
    />
  
  <line
    x1="57.05264402933181"
    y1="-68.1674127161752"
    x2="57.54627745408296"
    y2="-60.35095679621227"
    stroke="hsla(0,50%,50%,0.6)"
    stroke-width="1"
    transform="translate(-67.1962390978,47.7017933912) scale(1,-1) translate(50,-110)"
    />
  
  <line
    x1="76.4144500013751"
    y1="0"
    x2="100"
    y2="0"
    stroke="hsla(0,50%,50%,0.6)"
    stroke-width="1"
    transform="translate(-67.1962390978,47.7017933912) scale(1,-1) translate(50,-110)"
    />
  
  <line
    x1="100"
    y1="0"
    x2="100"
    y2="10"
    stroke="hsla(0,50%,50%,0.6)"
    stroke-width="1"
    transform="translate(-67.1962390978,47.7017933912) scale(1,-1) translate(50,-110)"
    />
  
  <line
    x1="100"
    y1="10"
    x2="81.17875333495027"
    y2="15.238903710890128"
    stroke="hsla(0,50%,50%,0.6)"
    stroke-width="1"
    transform="translate(-67.1962390978,47.7017933912) scale(1,-1) translate(50,-110)"
    />
  
  <line
    x1="139.22085732389397"
    y1="-43.52612282584453"
    x2="76.4144500013751"
    y2="0"
    stroke="hsla(0,50%,50%,0.6)"
    stroke-width="1"
    transform="translate(-67.1962390978,47.7017933912) scale(1,-1) translate(50,-110)"
    />
  
  <line
    x1="157.83052241424144"
    y1="-11.406341300667508"
    x2="81.17875333495027"
    y2="15.238903710890128"
    stroke="hsla(0,50%,50%,0.6)"
    stroke-width="1"
    transform="translate(-67.1962390978,47.7017933912) scale(1,-1) translate(50,-110)"
    />
  
</svg>
