<?xml version="1.0"?>
<!DOCTYPE svg PUBLIC "-//W3C//DTD SVG 1.1//EN"
  "http://www.w3.org/Graphics/SVG/1.1/DTD/svg11.dtd">
<svg
  width="240"
  height="240"
  viewBox="-50 -50 200 200" xmlns="http://www.w3.org/2000/svg" version="1.1">
  <rect
    x="0"
    y="0"
    width="100"
    height="100"
    fill="hsla(206,100%,53%,0.3)"
    stroke="hsl(206,100%,53%)"
    stroke-width="3"
    transform="" />
  
  <path
    d="M 
      50
      -50
      L
    
      50
      -46.875
      L
    
      -46.875
      50
      L
    
      -50
      50
      z
    "
    fill="hsla(0,0%,50%,0.3)"
    stroke="hsla(0,0%,50%,1)"
    stroke-width="1"
    transform="translate(24.21875,-25.390625) scale(1,-1) translate(50,-110)"
    />
  
  
  <line
    x1="46.875"
    y1="-46.875"
    x2="50"
    y2="-46.875"
    stroke="hsla(0,50%,50%,0.6)"
    stroke-width="1"
    transform="translate(24.21875,-25.390625) scale(1,-1) translate(50,-110)"
    />
  
  <line
    x1="43.75"
    y1="-43.75"
    x2="46.875"
    y2="-43.75"
    stroke="hsla(0,50%,50%,0.6)"
    stroke-width="1"
    transform="translate(24.21875,-25.390625) scale(1,-1) translate(50,-110)"
    />
  
  <line
    x1="40.625"
    y1="-40.625"
    x2="43.75"
    y2="-40.625"
    stroke="hsla(0,50%,50%,0.6)"
    stroke-width="1"
    transform="translate(24.21875,-25.390625) scale(1,-1) translate(50,-110)"
    />
  
  <line
    x1="37.5"
    y1="-37.5"
    x2="40.625"
    y2="-37.5"
    stroke="hsla(0,50%,50%,0.6)"
    stroke-width="1"
    transform="translate(24.21875,-25.390625) scale(1,-1) translate(50,-110)"
    />
  
  <line
    x1="34.375"
    y1="-34.375"
    x2="37.5"
    y2="-34.375"
    stroke="hsla(0,50%,50%,0.6)"
    stroke-width="1"
    transform="translate(24.21875,-25.390625) scale(1,-1) translate(50,-110)"
    />
  
  <line
    x1="31.25"
    y1="-31.25"
    x2="34.375"
    y2="-31.25"
    stroke="hsla(0,50%,50%,0.6)"
    stroke-width="1"
    transform="translate(24.21875,-25.390625) scale(1,-1) translate(50,-110)"
    />
  
  <line
    x1="28.125"
    y1="-28.125"
    x2="31.25"
    y2="-28.125"
    stroke="hsla(0,50%,50%,0.6)"
    stroke-width="1"
    transform="translate(24.21875,-25.390625) scale(1,-1) translate(50,-110)"
    />
  
  <line
    x1="25"
    y1="-25"
    x2="28.125"
    y2="-25"
    stroke="hsla(0,50%,50%,0.6)"
    stroke-width="1"
    transform="translate(24.21875,-25.390625) scale(1,-1) translate(50,-110)"
    />
  
  <line
    x1="21.875"
    y1="-21.875"
    x2="25"
    y2="-21.875"
    stroke="hsla(0,50%,50%,0.6)"
    stroke-width="1"
    transform="translate(24.21875,-25.390625) scale(1,-1) translate(50,-110)"
    />
  
  <line
    x1="18.75"
    y1="-18.75"
    x2="21.875"
    y2="-18.75"
    stroke="hsla(0,50%,50%,0.6)"
    stroke-width="1"
    transform="translate(24.21875,-25.390625) scale(1,-1) translate(50,-110)"
    />
  
  <line
    x1="15.625"
    y1="-15.625"
    x2="18.75"
    y2="-15.625"
    stroke="hsla(0,50%,50%,0.6)"
    stroke-width="1"
    transform="translate(24.21875,-25.390625) scale(1,-1) translate(50,-110)"
    />
  
  <line
    x1="12.5"
    y1="-12.5"
    x2="15.625"
    y2="-12.5"
    stroke="hsla(0,50%,50%,0.6)"
    stroke-width="1"
    transform="translate(24.21875,-25.390625) scale(1,-1) translate(50,-110)"
    />
  
  <line
    x1="9.375"
    y1="-9.375"
    x2="12.5"
    y2="-9.375"
    stroke="hsla(0,50%,50%,0.6)"
    stroke-width="1"
    transform="translate(24.21875,-25.390625) scale(1,-1) translate(50,-110)"
    />
  
  <line
    x1="6.25"
    y1="-6.25"
    x2="9.375"
    y2="-6.25"
    stroke="hsla(0,50%,50%,0.6)"
    stroke-width="1"
    transform="translate(24.21875,-25.390625) scale(1,-1) translate(50,-110)"
    />
  
  <line
    x1="3.125"
    y1="-3.125"
    x2="6.25"
    y2="-3.125"
    stroke="hsla(0,50%,50%,0.6)"
    stroke-width="1"
    transform="translate(24.21875,-25.390625) scale(1,-1) translate(50,-110)"
    />
  
  <line
    x1="-46.875"
    y1="46.875"
    x2="-46.875"
    y2="50"
    stroke="hsla(0,50%,50%,0.6)"
    stroke-width="1"
    transform="translate(24.21875,-25.390625) scale(1,-1) translate(50,-110)"
    />
  
  <line
    x1="-43.75"
    y1="43.75"
    x2="-43.75"
    y2="46.875"
    stroke="hsla(0,50%,50%,0.6)"
    stroke-width="1"
    transform="translate(24.21875,-25.390625) scale(1,-1) translate(50,-110)"
    />
  
  <line
    x1="-40.625"
    y1="40.625"
    x2="-40.625"
    y2="43.75"
    stroke="hsla(0,50%,50%,0.6)"
    stroke-width="1"
    transform="translate(24.21875,-25.390625) scale(1,-1) translate(50,-110)"
    />
  
  <line
    x1="-37.5"
    y1="37.5"
    x2="-37.5"
    y2="40.625"
    stroke="hsla(0,50%,50%,0.6)"
    stroke-width="1"
    transform="translate(24.21875,-25.390625) scale(1,-1) translate(50,-110)"
    />
  
  <line
    x1="-34.375"
    y1="34.375"
    x2="-34.375"
    y2="37.5"
    stroke="hsla(0,50%,50%,0.6)"
    stroke-width="1"
    transform="translate(24.21875,-25.390625) scale(1,-1) translate(50,-110)"
    />
  
  <line
    x1="-31.25"
    y1="31.25"
    x2="-31.25"
    y2="34.375"
    stroke="hsla(0,50%,50%,0.6)"
    stroke-width="1"
    transform="translate(24.21875,-25.390625) scale(1,-1) translate(50,-110)"
    />
  
  <line
    x1="-28.125"
    y1="28.125"
    x2="-28.125"
    y2="31.25"
    stroke="hsla(0,50%,50%,0.6)"
    stroke-width="1"
    transform="translate(24.21875,-25.390625) scale(1,-1) translate(50,-110)"
    />
  
  <line
    x1="-25"
    y1="25"
    x2="-25"
    y2="28.125"
    stroke="hsla(0,50%,50%,0.6)"
    stroke-width="1"
    transform="translate(24.21875,-25.390625) scale(1,-1) translate(50,-110)"
    />
  
  <line
    x1="-21.875"
    y1="21.875"
    x2="-21.875"
    y2="25"
    stroke="hsla(0,50%,50%,0.6)"
    stroke-width="1"
    transform="translate(24.21875,-25.390625) scale(1,-1) translate(50,-110)"
    />
  
  <line
    x1="-18.75"
    y1="18.75"
    x2="-18.75"
    y2="21.875"
    stroke="hsla(0,50%,50%,0.6)"
    stroke-width="1"
    transform="translate(24.21875,-25.390625) scale(1,-1) translate(50,-110)"
    />
  
  <line
    x1="-15.625"
    y1="15.625"
    x2="-15.625"
    y2="18.75"
    stroke="hsla(0,50%,50%,0.6)"
    stroke-width="1"
    transform="translate(24.21875,-25.390625) scale(1,-1) translate(50,-110)"
    />
  
  <line
    x1="-12.5"
    y1="12.5"
    x2="-12.5"
    y2="15.625"
    stroke="hsla(0,50%,50%,0.6)"
    stroke-width="1"
    transform="translate(24.21875,-25.390625) scale(1,-1) translate(50,-110)"
    />
  
  <line
    x1="-9.375"
    y1="9.375"
    x2="-9.375"
    y2="12.5"
    stroke="hsla(0,50%,50%,0.6)"
    stroke-width="1"
    transform="translate(24.21875,-25.390625) scale(1,-1) translate(50,-110)"
    />
  
  <line
    x1="-6.25"
    y1="6.25"
    x2="-6.25"
    y2="9.375"
    stroke="hsla(0,50%,50%,0.6)"
    stroke-width="1"
    transform="translate(24.21875,-25.390625) scale(1,-1) translate(50,-110)"
    />
  
  <line
    x1="-3.125"
    y1="3.125"
    x2="-3.125"
    y2="6.25"
    stroke="hsla(0,50%,50%,0.6)"
    stroke-width="1"
    transform="translate(24.21875,-25.390625) scale(1,-1) translate(50,-110)"
    />
  
  <line
    x1="0"
    y1="0"
    x2="3.125"
    y2="0"
    stroke="hsla(0,50%,50%,0.6)"
    stroke-width="1"
    transform="translate(24.21875,-25.390625) scale(1,-1) translate(50,-110)"
    />
  
  <line
    x1="0"
    y1="0"
    x2="0"
    y2="3.125"
    stroke="hsla(0,50%,50%,0.6)"
    stroke-width="1"
    transform="translate(24.21875,-25.390625) scale(1,-1) translate(50,-110)"
    />
  
  <line
    x1="50"
    y1="-50"
    x2="-50"
    y2="50"
    stroke="hsla(0,50%,50%,0.6)"
    stroke-width="1"
    transform="translate(24.21875,-25.390625) scale(1,-1) translate(50,-110)"
    />
  
  <line
    x1="3.125"
    y1="-3.125"
    x2="3.125"
    y2="0"
    stroke="hsla(0,50%,50%,0.6)"
    stroke-width="1"
    transform="translate(24.21875,-25.390625) scale(1,-1) translate(50,-110)"
    />
  
  <line
    x1="6.25"
    y1="-6.25"
    x2="6.25"
    y2="-3.125"
    stroke="hsla(0,50%,50%,0.6)"
    stroke-width="1"
    transform="translate(24.21875,-25.390625) scale(1,-1) translate(50,-110)"
    />
  
  <line
    x1="9.375"
    y1="-9.375"
    x2="9.375"
    y2="-6.25"
    stroke="hsla(0,50%,50%,0.6)"
    stroke-width="1"
    transform="translate(24.21875,-25.390625) scale(1,-1) translate(50,-110)"
    />
  
  <line
    x1="12.5"
    y1="-12.5"
    x2="12.5"
    y2="-9.375"
    stroke="hsla(0,50%,50%,0.6)"
    stroke-width="1"
    transform="translate(24.21875,-25.390625) scale(1,-1) translate(50,-110)"
    />
  
  <line
    x1="15.625"
    y1="-15.625"
    x2="15.625"
    y2="-12.5"
    stroke="hsla(0,50%,50%,0.6)"
    stroke-width="1"
    transform="translate(24.21875,-25.390625) scale(1,-1) translate(50,-110)"
    />
  
  <line
    x1="18.75"
    y1="-18.75"
    x2="18.75"
    y2="-15.625"
    stroke="hsla(0,50%,50%,0.6)"
    stroke-width="1"
    transform="translate(24.21875,-25.390625) scale(1,-1) translate(50,-110)"
    />
  
  <line
    x1="21.875"
    y1="-21.875"
    x2="21.875"
    y2="-18.75"
    stroke="hsla(0,50%,50%,0.6)"
    stroke-width="1"
    transform="translate(24.21875,-25.390625) scale(1,-1) translate(50,-110)"
    />
  
  <line
    x1="25"
    y1="-25"
    x2="25"
    y2="-21.875"
    stroke="hsla(0,50%,50%,0.6)"
    stroke-width="1"
    transform="translate(24.21875,-25.390625) scale(1,-1) translate(50,-110)"
    />
  
  <line
    x1="28.125"
    y1="-28.125"
    x2="28.125"
    y2="-25"
    stroke="hsla(0,50%,50%,0.6)"
    stroke-width="1"
    transform="translate(24.21875,-25.390625) scale(1,-1) translate(50,-110)"
    />
  
  <line
    x1="31.25"
    y1="-31.25"
    x2="31.25"
    y2="-28.125"
    stroke="hsla(0,50%,50%,0.6)"
    stroke-width="1"
    transform="translate(24.21875,-25.390625) scale(1,-1) translate(50,-110)"
    />
  
  <line
    x1="34.375"
    y1="-34.375"
    x2="34.375"
    y2="-31.25"
    stroke="hsla(0,50%,50%,0.6)"
    stroke-width="1"
    transform="translate(24.21875,-25.390625) scale(1,-1) translate(50,-110)"
    />
  
  <line
    x1="37.5"
    y1="-37.5"
    x2="37.5"
    y2="-34.375"
    stroke="hsla(0,50%,50%,0.6)"
    stroke-width="1"
    transform="translate(24.21875,-25.390625) scale(1,-1) translate(50,-110)"
    />
  
  <line
    x1="40.625"
    y1="-40.625"
    x2="40.625"
    y2="-37.5"
    stroke="hsla(0,50%,50%,0.6)"
    stroke-width="1"
    transform="translate(24.21875,-25.390625) scale(1,-1) translate(50,-110)"
    />
  
  <line
    x1="43.75"
    y1="-43.75"
    x2="43.75"
    y2="-40.625"
    stroke="hsla(0,50%,50%,0.6)"
    stroke-width="1"
    transform="translate(24.21875,-25.390625) scale(1,-1) translate(50,-110)"
    />
  
  <line
    x1="46.875"
    y1="-46.875"
    x2="46.875"
    y2="-43.75"
    stroke="hsla(0,50%,50%,0.6)"
    stroke-width="1"
    transform="translate(24.21875,-25.390625) scale(1,-1) translate(50,-110)"
    />
  
  <line
    x1="50"
    y1="-50"
    x2="50"
    y2="-46.875"
    stroke="hsla(0,50%,50%,0.6)"
    stroke-width="1"
    transform="translate(24.21875,-25.390625) scale(1,-1) translate(50,-110)"
    />
  
  <line
    x1="50"
    y1="-46.875"
    x2="-46.875"
    y2="50"
    stroke="hsla(0,50%,50%,0.6)"
    stroke-width="1"
    transform="translate(24.21875,-25.390625) scale(1,-1) translate(50,-110)"
    />
  
  <line
    x1="-3.125"
    y1="3.125"
    x2="0"
    y2="3.125"
    stroke="hsla(0,50%,50%,0.6)"
    stroke-width="1"
    transform="translate(24.21875,-25.390625) scale(1,-1) translate(50,-110)"
    />
  
  <line
    x1="-6.25"
    y1="6.25"
    x2="-3.125"
    y2="6.25"
    stroke="hsla(0,50%,50%,0.6)"
    stroke-width="1"
    transform="translate(24.21875,-25.390625) scale(1,-1) translate(50,-110)"
    />
  
  <line
    x1="-9.375"
    y1="9.375"
    x2="-6.25"
    y2="9.375"
    stroke="hsla(0,50%,50%,0.6)"
    stroke-width="1"
    transform="translate(24.21875,-25.390625) scale(1,-1) translate(50,-110)"
    />
  
  <line
    x1="-12.5"
    y1="12.5"
    x2="-9.375"
    y2="12.5"
    stroke="hsla(0,50%,50%,0.6)"
    stroke-width="1"
    transform="translate(24.21875,-25.390625) scale(1,-1) translate(50,-110)"
    />
  
  <line
    x1="-15.625"
    y1="15.625"
    x2="-12.5"
    y2="15.625"
    stroke="hsla(0,50%,50%,0.6)"
    stroke-width="1"
    transform="translate(24.21875,-25.390625) scale(1,-1) translate(50,-110)"
    />
  
  <line
    x1="-18.75"
    y1="18.75"
    x2="-15.625"
    y2="18.75"
    stroke="hsla(0,50%,50%,0.6)"
    stroke-width="1"
    transform="translate(24.21875,-25.390625) scale(1,-1) translate(50,-110)"
    />
  
  <line
    x1="-21.875"
    y1="21.875"
    x2="-18.75"
    y2="21.875"
    stroke="hsla(0,50%,50%,0.6)"
    stroke-width="1"
    transform="translate(24.21875,-25.390625) scale(1,-1) translate(50,-110)"
    />
  
  <line
    x1="-25"
    y1="25"
    x2="-21.875"
    y2="25"
    stroke="hsla(0,50%,50%,0.6)"
    stroke-width="1"
    transform="translate(24.21875,-25.390625) scale(1,-1) translate(50,-110)"
    />
  
  <line
    x1="-28.125"
    y1="28.125"
    x2="-25"
    y2="28.125"
    stroke="hsla(0,50%,50%,0.6)"
    stroke-width="1"
    transform="translate(24.21875,-25.390625) scale(1,-1) translate(50,-110)"
    />
  
  <line
    x1="-31.25"
    y1="31.25"
    x2="-28.125"
    y2="31.25"
    stroke="hsla(0,50%,50%,0.6)"
    stroke-width="1"
    transform="translate(24.21875,-25.390625) scale(1,-1) translate(50,-110)"
    />
  
  <line
    x1="-34.375"
    y1="34.375"
    x2="-31.25"
    y2="34.375"
    stroke="hsla(0,50%,50%,0.6)"
    stroke-width="1"
    transform="translate(24.21875,-25.390625) scale(1,-1) translate(50,-110)"
    />
  
  <line
    x1="-37.5"
    y1="37.5"
    x2="-34.375"
    y2="37.5"
    stroke="hsla(0,50%,50%,0.6)"
    stroke-width="1"
    transform="translate(24.21875,-25.390625) scale(1,-1) translate(50,-110)"
    />
  
  <line
    x1="-40.625"
    y1="40.625"
    x2="-37.5"
    y2="40.625"
    stroke="hsla(0,50%,50%,0.6)"
    stroke-width="1"
    transform="translate(24.21875,-25.390625) scale(1,-1) translate(50,-110)"
    />
  
  <line
    x1="-43.75"
    y1="43.75"
    x2="-40.625"
    y2="43.75"
    stroke="hsla(0,50%,50%,0.6)"
    stroke-width="1"
    transform="translate(24.21875,-25.390625) scale(1,-1) translate(50,-110)"
    />
  
  <line
    x1="-46.875"
    y1="46.875"
    x2="-43.75"
    y2="46.875"
    stroke="hsla(0,50%,50%,0.6)"
    stroke-width="1"
    transform="translate(24.21875,-25.390625) scale(1,-1) translate(50,-110)"
    />
  
  <line
    x1="-50"
    y1="50"
    x2="-46.875"
    y2="50"
    stroke="hsla(0,50%,50%,0.6)"
    stroke-width="1"
    transform="translate(24.21875,-25.390625) scale(1,-1) translate(50,-110)"
    />
  
</svg>
