<?xml version="1.0"?>
<!DOCTYPE svg PUBLIC "-//W3C//DTD SVG 1.1//EN"
  "http://www.w3.org/Graphics/SVG/1.1/DTD/svg11.dtd">
<svg
  width="240"
  height="240"
  viewBox="-50 -50 200 200" xmlns="http://www.w3.org/2000/svg" version="1.1">
  <rect
    x="0"
    y="0"
    width="100"
    height="100"
    fill="hsla(206,100%,53%,0.3)"
    stroke="hsl(206,100%,53%)"
    stroke-width="3"
    transform="" />
  
  <path
    d="M 
      99973974522.3538923206
      -79427747246.6238588532
      L
    
      99973974531.7250217253
      -79427747228.1336672698
      L
    
      99973974546.2805429864
      -79427747205.1855203619
      L
    
      99973974544.0883606582
      -79427747203.7395419078
      L
    
      99973974545.5948866273
      -79427747200.7670129211
      L
    
      99973974503.6141332350
      -79427747170.6551636293
      L
    
      99973974474.5994874800
      -79427747199.2191434637
      L
    
      99973974492.0193705086
      -79427747217.5575753122
      L
    
      99973974490.2234629491
      -79427747221.1340753299
      L
    
      99973974500.1530243259
      -79427747226.1201159424
      L
    
      99973974500.9497119302
      -79427747225.0460947280
      L
    
      99973974511.5828914417
      -79427747235.4681163524
      L
    
      99973974516.4013863344
      -79427747230.5519951798
      L
    
      99973974520.5704098549
      -79427747245.7199609730
      z
    "
    fill="hsla(0,0%,50%,0.3)"
    stroke="hsla(0,0%,50%,1)"
    stroke-width="1"
    transform="translate(-99973974515.6742371567,79427747237.7331191540) scale(1,-1) translate(50,-110)"
    />
  
  
  <line
    x1="99973974535.18399"
    y1="-79427747204.6038"
    x2="99973974539.87778"
    y2="-79427747200.96222"
    stroke="hsla(0,50%,50%,0.6)"
    stroke-width="1"
    transform="translate(-99973974515.6742371567,79427747237.7331191540) scale(1,-1) translate(50,-110)"
    />
  
  <line
    x1="99973974474.59949"
    y1="-79427747199.21913"
    x2="99973974503.61414"
    y2="-79427747170.65517"
    stroke="hsla(0,50%,50%,0.6)"
    stroke-width="1"
    transform="translate(-99973974515.6742371567,79427747237.7331191540) scale(1,-1) translate(50,-110)"
    />
  
  <line
    x1="99973974504.00847"
    y1="-79427747185.46338"
    x2="99973974512.40483"
    y2="-79427747176.96053"
    stroke="hsla(0,50%,50%,0.6)"
    stroke-width="1"
    transform="translate(-99973974515.6742371567,79427747237.7331191540) scale(1,-1) translate(50,-110)"
    />
  
  <line
    x1="99973974511.5829"
    y1="-79427747235.46812"
    x2="99973974545.59488"
    y2="-79427747200.76701"
    stroke="hsla(0,50%,50%,0.6)"
    stroke-width="1"
    transform="translate(-99973974515.6742371567,79427747237.7331191540) scale(1,-1) translate(50,-110)"
    />
  
  <line
    x1="99973974500.15302"
    y1="-79427747226.12012"
    x2="99973974528.20953"
    y2="-79427747188.29689"
    stroke="hsla(0,50%,50%,0.6)"
    stroke-width="1"
    transform="translate(-99973974515.6742371567,79427747237.7331191540) scale(1,-1) translate(50,-110)"
    />
  
  <line
    x1="99973974511.43657"
    y1="-79427747212.48877"
    x2="99973974528.20953"
    y2="-79427747188.29689"
    stroke="hsla(0,50%,50%,0.6)"
    stroke-width="1"
    transform="translate(-99973974515.6742371567,79427747237.7331191540) scale(1,-1) translate(50,-110)"
    />
  
  <line
    x1="99973974534.16418"
    y1="-79427747222.85973"
    x2="99973974546.28055"
    y2="-79427747205.18552"
    stroke="hsla(0,50%,50%,0.6)"
    stroke-width="1"
    transform="translate(-99973974515.6742371567,79427747237.7331191540) scale(1,-1) translate(50,-110)"
    />
  
  <line
    x1="99973974520.5704"
    y1="-79427747245.71997"
    x2="99973974546.28055"
    y2="-79427747205.18552"
    stroke="hsla(0,50%,50%,0.6)"
    stroke-width="1"
    transform="translate(-99973974515.6742371567,79427747237.7331191540) scale(1,-1) translate(50,-110)"
    />
  
  <line
    x1="99973974522.3539"
    y1="-79427747246.62386"
    x2="99973974545.59488"
    y2="-79427747200.76701"
    stroke="hsla(0,50%,50%,0.6)"
    stroke-width="1"
    transform="translate(-99973974515.6742371567,79427747237.7331191540) scale(1,-1) translate(50,-110)"
    />
  
  <line
    x1="99973974490.22346"
    y1="-79427747221.13406"
    x2="99973974512.40483"
    y2="-79427747176.96053"
    stroke="hsla(0,50%,50%,0.6)"
    stroke-width="1"
    transform="translate(-99973974515.6742371567,79427747237.7331191540) scale(1,-1) translate(50,-110)"
    />
  
  <line
    x1="99973974501.26869"
    y1="-79427747175.49539"
    x2="99973974503.61414"
    y2="-79427747170.65517"
    stroke="hsla(0,50%,50%,0.6)"
    stroke-width="1"
    transform="translate(-99973974515.6742371567,79427747237.7331191540) scale(1,-1) translate(50,-110)"
    />
  
  <line
    x1="99973974524.47789"
    y1="-79427747190.80434"
    x2="99973974504.00847"
    y2="-79427747185.46338"
    stroke="hsla(0,50%,50%,0.6)"
    stroke-width="1"
    transform="translate(-99973974515.6742371567,79427747237.7331191540) scale(1,-1) translate(50,-110)"
    />
  
  <line
    x1="99973974534.16418"
    y1="-79427747222.85973"
    x2="99973974539.87778"
    y2="-79427747200.96222"
    stroke="hsla(0,50%,50%,0.6)"
    stroke-width="1"
    transform="translate(-99973974515.6742371567,79427747237.7331191540) scale(1,-1) translate(50,-110)"
    />
  
  <line
    x1="99973974534.16418"
    y1="-79427747222.85973"
    x2="99973974511.43657"
    y2="-79427747212.48877"
    stroke="hsla(0,50%,50%,0.6)"
    stroke-width="1"
    transform="translate(-99973974515.6742371567,79427747237.7331191540) scale(1,-1) translate(50,-110)"
    />
  
  <line
    x1="99973974500.15302"
    y1="-79427747226.12012"
    x2="99973974490.22346"
    y2="-79427747221.13406"
    stroke="hsla(0,50%,50%,0.6)"
    stroke-width="1"
    transform="translate(-99973974515.6742371567,79427747237.7331191540) scale(1,-1) translate(50,-110)"
    />
  
  <line
    x1="99973974522.3539"
    y1="-79427747246.62386"
    x2="99973974520.5704"
    y2="-79427747245.71997"
    stroke="hsla(0,50%,50%,0.6)"
    stroke-width="1"
    transform="translate(-99973974515.6742371567,79427747237.7331191540) scale(1,-1) translate(50,-110)"
    />
  
  <line
    x1="99973974546.28055"
    y1="-79427747205.18552"
    x2="99973974501.26869"
    y2="-79427747175.49539"
    stroke="hsla(0,50%,50%,0.6)"
    stroke-width="1"
    transform="translate(-99973974515.6742371567,79427747237.7331191540) scale(1,-1) translate(50,-110)"
    />
  
  <line
    x1="99973974545.59488"
    y1="-79427747200.76701"
    x2="99973974503.61414"
    y2="-79427747170.65517"
    stroke="hsla(0,50%,50%,0.6)"
    stroke-width="1"
    transform="translate(-99973974515.6742371567,79427747237.7331191540) scale(1,-1) translate(50,-110)"
    />
  
  <line
    x1="99973974511.5829"
    y1="-79427747235.46812"
    x2="99973974474.59949"
    y2="-79427747199.21913"
    stroke="hsla(0,50%,50%,0.6)"
    stroke-width="1"
    transform="translate(-99973974515.6742371567,79427747237.7331191540) scale(1,-1) translate(50,-110)"
    />
  
  <line
    x1="99973974500.15302"
    y1="-79427747226.12012"
    x2="99973974474.59949"
    y2="-79427747199.21913"
    stroke="hsla(0,50%,50%,0.6)"
    stroke-width="1"
    transform="translate(-99973974515.6742371567,79427747237.7331191540) scale(1,-1) translate(50,-110)"
    />
  
  <line
    x1="99973974535.18399"
    y1="-79427747204.6038"
    x2="99973974524.47789"
    y2="-79427747190.80434"
    stroke="hsla(0,50%,50%,0.6)"
    stroke-width="1"
    transform="translate(-99973974515.6742371567,79427747237.7331191540) scale(1,-1) translate(50,-110)"
    />
  
  <line
    x1="99973974520.5704"
    y1="-79427747245.71997"
    x2="99973974501.26869"
    y2="-79427747175.49539"
    stroke="hsla(0,50%,50%,0.6)"
    stroke-width="1"
    transform="translate(-99973974515.6742371567,79427747237.7331191540) scale(1,-1) translate(50,-110)"
    />
  
</svg>
