<?xml version="1.0"?>
<!DOCTYPE svg PUBLIC "-//W3C//DTD SVG 1.1//EN"
  "http://www.w3.org/Graphics/SVG/1.1/DTD/svg11.dtd">
<svg
  width="240"
  height="240"
  viewBox="-500 -500 1000 1000" xmlns="http://www.w3.org/2000/svg" version="1.1">
  <rect
    x="0"
    y="0"
    width="100"
    height="100"
    fill="hsla(206,100%,53%,0.3)"
    stroke="hsl(206,100%,53%)"
    stroke-width="3"
    transform="" />
  
  <path
    d="M 
      9
      -13
      L
    
      81
      8
      L
    
      74
      32
      L
    
      98
      39
      L
    
      91
      63
      L
    
      19
      42
      L
    
      26
      18
      L
    
      2
      11
      z
    "
    fill="hsla(0,0%,50%,0.3)"
    stroke="hsla(0,0%,50%,1)"
    stroke-width="1"
    transform="translate(-50,-25)"
    />
  
  
  <line
    x1="57"
    y1="1"
    x2="91"
    y2="63"
    stroke="hsla(0,50%,50%,0.6)"
    stroke-width="1"
    transform="translate(-50,-25)"
    />
  
  <line
    x1="9"
    y1="-13"
    x2="81"
    y2="8"
    stroke="hsla(0,50%,50%,0.6)"
    stroke-width="1"
    transform="translate(-50,-25)"
    />
  
  <line
    x1="9"
    y1="-13"
    x2="43"
    y2="49"
    stroke="hsla(0,50%,50%,0.6)"
    stroke-width="1"
    transform="translate(-50,-25)"
    />
  
  <line
    x1="9"
    y1="-13"
    x2="2"
    y2="11"
    stroke="hsla(0,50%,50%,0.6)"
    stroke-width="1"
    transform="translate(-50,-25)"
    />
  
  <line
    x1="26"
    y1="18"
    x2="19"
    y2="42"
    stroke="hsla(0,50%,50%,0.6)"
    stroke-width="1"
    transform="translate(-50,-25)"
    />
  
  <line
    x1="2"
    y1="11"
    x2="98"
    y2="39"
    stroke="hsla(0,50%,50%,0.6)"
    stroke-width="1"
    transform="translate(-50,-25)"
    />
  
  <line
    x1="57"
    y1="1"
    x2="43"
    y2="49"
    stroke="hsla(0,50%,50%,0.6)"
    stroke-width="1"
    transform="translate(-50,-25)"
    />
  
  <line
    x1="81"
    y1="8"
    x2="74"
    y2="32"
    stroke="hsla(0,50%,50%,0.6)"
    stroke-width="1"
    transform="translate(-50,-25)"
    />
  
  <line
    x1="57"
    y1="1"
    x2="26"
    y2="18"
    stroke="hsla(0,50%,50%,0.6)"
    stroke-width="1"
    transform="translate(-50,-25)"
    />
  
  <line
    x1="98"
    y1="39"
    x2="91"
    y2="63"
    stroke="hsla(0,50%,50%,0.6)"
    stroke-width="1"
    transform="translate(-50,-25)"
    />
  
  <line
    x1="19"
    y1="42"
    x2="91"
    y2="63"
    stroke="hsla(0,50%,50%,0.6)"
    stroke-width="1"
    transform="translate(-50,-25)"
    />
  
  <line
    x1="74"
    y1="32"
    x2="43"
    y2="49"
    stroke="hsla(0,50%,50%,0.6)"
    stroke-width="1"
    transform="translate(-50,-25)"
    />
  
</svg>
