<?xml version="1.0"?>
<!DOCTYPE svg PUBLIC "-//W3C//DTD SVG 1.1//EN"
  "http://www.w3.org/Graphics/SVG/1.1/DTD/svg11.dtd">
<svg
  width="240"
  height="240"
  viewBox="-50 -50 200 200" xmlns="http://www.w3.org/2000/svg" version="1.1">
  <rect
    x="0"
    y="0"
    width="100"
    height="100"
    fill="hsla(206,100%,53%,0.3)"
    stroke="hsl(206,100%,53%)"
    stroke-width="3"
    transform="" />
  
  <path
    d="M 
      52.9891304347
      39.9456521739
      L
    
      89.9752981630
      45.7855733941
      L
    
      97.5062549204
      73.9410609185
      L
    
      85.3034217539
      88.9222847519
      L
    
      70.0771557749
      76.5198545128
      L
    
      38.7565139238
      124.8971046447
      L
    
      30.3738947074
      125.3277548066
      L
    
      29.0700547096
      99.9484674204
      L
    
      28.9367277566
      99.6050678656
      L
    
      34.4594594594
      60.9459459459
      z
    "
    fill="hsla(0,0%,50%,0.3)"
    stroke="hsla(0,0%,50%,1)"
    stroke-width="1"
    transform="translate(-33.6286777362,-81.9504217080) scale(1,-1) translate(50,-110)"
    />
  
  
  <line
    x1="89.97529816305658"
    y1="45.785573394166825"
    x2="97.50625492048685"
    y2="73.94106091859186"
    stroke="hsla(0,50%,50%,0.6)"
    stroke-width="1"
    transform="translate(-33.6286777362,-81.9504217080) scale(1,-1) translate(50,-110)"
    />
  
  <line
    x1="52.98913043478261"
    y1="39.94565217391305"
    x2="57.259422961528706"
    y2="54.71595021434802"
    stroke="hsla(0,50%,50%,0.6)"
    stroke-width="1"
    transform="translate(-33.6286777362,-81.9504217080) scale(1,-1) translate(50,-110)"
    />
  
  <line
    x1="41.76196101343945"
    y1="52.66977751810195"
    x2="44.865680971636806"
    y2="58.49748706405293"
    stroke="hsla(0,50%,50%,0.6)"
    stroke-width="1"
    transform="translate(-33.6286777362,-81.9504217080) scale(1,-1) translate(50,-110)"
    />
  
  <line
    x1="39.69318513167738"
    y1="55.01439018409896"
    x2="48.81343811549206"
    y2="73.68176126681412"
    stroke="hsla(0,50%,50%,0.6)"
    stroke-width="1"
    transform="translate(-33.6286777362,-81.9504217080) scale(1,-1) translate(50,-110)"
    />
  
  <line
    x1="44.00161581154455"
    y1="50.13150208024951"
    x2="44.865680971636806"
    y2="58.49748706405293"
    stroke="hsla(0,50%,50%,0.6)"
    stroke-width="1"
    transform="translate(-33.6286777362,-81.9504217080) scale(1,-1) translate(50,-110)"
    />
  
  <line
    x1="50.784030396983205"
    y1="42.4447655500857"
    x2="51.489434645752546"
    y2="43.12558213672489"
    stroke="hsla(0,50%,50%,0.6)"
    stroke-width="1"
    transform="translate(-33.6286777362,-81.9504217080) scale(1,-1) translate(50,-110)"
    />
  
  <line
    x1="29.02181413990565"
    y1="99.00946318282263"
    x2="30.373894707483608"
    y2="125.32775480664402"
    stroke="hsla(0,50%,50%,0.6)"
    stroke-width="1"
    transform="translate(-33.6286777362,-81.9504217080) scale(1,-1) translate(50,-110)"
    />
  
  <line
    x1="49.85739049028784"
    y1="43.49495744434045"
    x2="50"
    y2="50"
    stroke="hsla(0,50%,50%,0.6)"
    stroke-width="1"
    transform="translate(-33.6286777362,-81.9504217080) scale(1,-1) translate(50,-110)"
    />
  
  <line
    x1="50.784030396983205"
    y1="42.4447655500857"
    x2="54.60092162598793"
    y2="45.520594902998305"
    stroke="hsla(0,50%,50%,0.6)"
    stroke-width="1"
    transform="translate(-33.6286777362,-81.9504217080) scale(1,-1) translate(50,-110)"
    />
  
  <line
    x1="28.936727756651024"
    y1="99.605067865605"
    x2="38.75651392383808"
    y2="124.89710464477791"
    stroke="hsla(0,50%,50%,0.6)"
    stroke-width="1"
    transform="translate(-33.6286777362,-81.9504217080) scale(1,-1) translate(50,-110)"
    />
  
  <line
    x1="52.09084804346183"
    y1="40.963705550743256"
    x2="48.81343811549206"
    y2="73.68176126681412"
    stroke="hsla(0,50%,50%,0.6)"
    stroke-width="1"
    transform="translate(-33.6286777362,-81.9504217080) scale(1,-1) translate(50,-110)"
    />
  
  <line
    x1="34.45945945945946"
    y1="60.945945945945944"
    x2="28.936727756651024"
    y2="99.605067865605"
    stroke="hsla(0,50%,50%,0.6)"
    stroke-width="1"
    transform="translate(-33.6286777362,-81.9504217080) scale(1,-1) translate(50,-110)"
    />
  
  <line
    x1="41.35835864374749"
    y1="53.12719353708617"
    x2="46.469116425271906"
    y2="58.00825223416946"
    stroke="hsla(0,50%,50%,0.6)"
    stroke-width="1"
    transform="translate(-33.6286777362,-81.9504217080) scale(1,-1) translate(50,-110)"
    />
  
  <line
    x1="49.15421679674211"
    y1="55.0089645615799"
    x2="50.856654829346915"
    y2="56.46548012610789"
    stroke="hsla(0,50%,50%,0.6)"
    stroke-width="1"
    transform="translate(-33.6286777362,-81.9504217080) scale(1,-1) translate(50,-110)"
    />
  
  <line
    x1="41.35835864374749"
    y1="53.12719353708617"
    x2="85.3034217539804"
    y2="88.92228475195832"
    stroke="hsla(0,50%,50%,0.6)"
    stroke-width="1"
    transform="translate(-33.6286777362,-81.9504217080) scale(1,-1) translate(50,-110)"
    />
  
  <line
    x1="49.588106381052135"
    y1="43.80014610147426"
    x2="46.469116425271906"
    y2="58.00825223416946"
    stroke="hsla(0,50%,50%,0.6)"
    stroke-width="1"
    transform="translate(-33.6286777362,-81.9504217080) scale(1,-1) translate(50,-110)"
    />
  
  <line
    x1="51.91454183106714"
    y1="41.16351925812391"
    x2="51.489434645752546"
    y2="43.12558213672489"
    stroke="hsla(0,50%,50%,0.6)"
    stroke-width="1"
    transform="translate(-33.6286777362,-81.9504217080) scale(1,-1) translate(50,-110)"
    />
  
  <line
    x1="47.37577283001596"
    y1="46.30745745931523"
    x2="29.02181413990565"
    y2="99.00946318282263"
    stroke="hsla(0,50%,50%,0.6)"
    stroke-width="1"
    transform="translate(-33.6286777362,-81.9504217080) scale(1,-1) translate(50,-110)"
    />
  
  <line
    x1="54.60092162598793"
    y1="45.520594902998305"
    x2="50.856654829346915"
    y2="56.46548012610789"
    stroke="hsla(0,50%,50%,0.6)"
    stroke-width="1"
    transform="translate(-33.6286777362,-81.9504217080) scale(1,-1) translate(50,-110)"
    />
  
  <line
    x1="52.98913043478261"
    y1="39.94565217391305"
    x2="89.97529816305658"
    y2="45.785573394166825"
    stroke="hsla(0,50%,50%,0.6)"
    stroke-width="1"
    transform="translate(-33.6286777362,-81.9504217080) scale(1,-1) translate(50,-110)"
    />
  
  <line
    x1="41.76196101343945"
    y1="52.66977751810195"
    x2="97.50625492048685"
    y2="73.94106091859186"
    stroke="hsla(0,50%,50%,0.6)"
    stroke-width="1"
    transform="translate(-33.6286777362,-81.9504217080) scale(1,-1) translate(50,-110)"
    />
  
  <line
    x1="39.69318513167738"
    y1="55.01439018409896"
    x2="47.00849789740095"
    y2="57.51697309268069"
    stroke="hsla(0,50%,50%,0.6)"
    stroke-width="1"
    transform="translate(-33.6286777362,-81.9504217080) scale(1,-1) translate(50,-110)"
    />
  
  <line
    x1="52.98913043478261"
    y1="39.94565217391305"
    x2="34.45945945945946"
    y2="60.945945945945944"
    stroke="hsla(0,50%,50%,0.6)"
    stroke-width="1"
    transform="translate(-33.6286777362,-81.9504217080) scale(1,-1) translate(50,-110)"
    />
  
  <line
    x1="49.15421679674211"
    y1="55.0089645615799"
    x2="47.00849789740095"
    y2="57.51697309268069"
    stroke="hsla(0,50%,50%,0.6)"
    stroke-width="1"
    transform="translate(-33.6286777362,-81.9504217080) scale(1,-1) translate(50,-110)"
    />
  
  <line
    x1="53.894725458751175"
    y1="43.07796883001409"
    x2="49.85739049028784"
    y2="43.49495744434045"
    stroke="hsla(0,50%,50%,0.6)"
    stroke-width="1"
    transform="translate(-33.6286777362,-81.9504217080) scale(1,-1) translate(50,-110)"
    />
  
  <line
    x1="53.20954825990884"
    y1="40.70804419978667"
    x2="52.09084804346183"
    y2="40.963705550743256"
    stroke="hsla(0,50%,50%,0.6)"
    stroke-width="1"
    transform="translate(-33.6286777362,-81.9504217080) scale(1,-1) translate(50,-110)"
    />
  
  <line
    x1="48.81343811549206"
    y1="73.68176126681412"
    x2="28.936727756651024"
    y2="99.605067865605"
    stroke="hsla(0,50%,50%,0.6)"
    stroke-width="1"
    transform="translate(-33.6286777362,-81.9504217080) scale(1,-1) translate(50,-110)"
    />
  
  <line
    x1="50"
    y1="50"
    x2="44.00161581154455"
    y2="50.13150208024951"
    stroke="hsla(0,50%,50%,0.6)"
    stroke-width="1"
    transform="translate(-33.6286777362,-81.9504217080) scale(1,-1) translate(50,-110)"
    />
  
  <line
    x1="53.20954825990884"
    y1="40.70804419978667"
    x2="51.91454183106714"
    y2="41.16351925812391"
    stroke="hsla(0,50%,50%,0.6)"
    stroke-width="1"
    transform="translate(-33.6286777362,-81.9504217080) scale(1,-1) translate(50,-110)"
    />
  
  <line
    x1="51.489434645752546"
    y1="43.12558213672489"
    x2="49.588106381052135"
    y2="43.80014610147426"
    stroke="hsla(0,50%,50%,0.6)"
    stroke-width="1"
    transform="translate(-33.6286777362,-81.9504217080) scale(1,-1) translate(50,-110)"
    />
  
  <line
    x1="89.97529816305658"
    y1="45.785573394166825"
    x2="38.75651392383808"
    y2="124.89710464477791"
    stroke="hsla(0,50%,50%,0.6)"
    stroke-width="1"
    transform="translate(-33.6286777362,-81.9504217080) scale(1,-1) translate(50,-110)"
    />
  
  <line
    x1="53.894725458751175"
    y1="43.07796883001409"
    x2="47.37577283001596"
    y2="46.30745745931523"
    stroke="hsla(0,50%,50%,0.6)"
    stroke-width="1"
    transform="translate(-33.6286777362,-81.9504217080) scale(1,-1) translate(50,-110)"
    />
  
  <line
    x1="57.259422961528706"
    y1="54.71595021434802"
    x2="34.45945945945946"
    y2="60.945945945945944"
    stroke="hsla(0,50%,50%,0.6)"
    stroke-width="1"
    transform="translate(-33.6286777362,-81.9504217080) scale(1,-1) translate(50,-110)"
    />
  
  <line
    x1="57.259422961528706"
    y1="54.71595021434802"
    x2="44.865680971636806"
    y2="58.49748706405293"
    stroke="hsla(0,50%,50%,0.6)"
    stroke-width="1"
    transform="translate(-33.6286777362,-81.9504217080) scale(1,-1) translate(50,-110)"
    />
  
  <line
    x1="97.50625492048685"
    y1="73.94106091859186"
    x2="85.3034217539804"
    y2="88.92228475195832"
    stroke="hsla(0,50%,50%,0.6)"
    stroke-width="1"
    transform="translate(-33.6286777362,-81.9504217080) scale(1,-1) translate(50,-110)"
    />
  
  <line
    x1="38.75651392383808"
    y1="124.89710464477791"
    x2="30.373894707483608"
    y2="125.32775480664402"
    stroke="hsla(0,50%,50%,0.6)"
    stroke-width="1"
    transform="translate(-33.6286777362,-81.9504217080) scale(1,-1) translate(50,-110)"
    />
  
</svg>
