<?xml version="1.0"?>
<!DOCTYPE svg PUBLIC "-//W3C//DTD SVG 1.1//EN"
  "http://www.w3.org/Graphics/SVG/1.1/DTD/svg11.dtd">
<svg
  width="240"
  height="240"
  viewBox="-500 -500 1000 1000" xmlns="http://www.w3.org/2000/svg" version="1.1">
  <rect
    x="0"
    y="0"
    width="100"
    height="100"
    fill="hsla(206,100%,53%,0.3)"
    stroke="hsl(206,100%,53%)"
    stroke-width="3"
    transform="" />
  
  <path
    d="M 
      0.8620689655
      -35.3448275862
      L
    
      18.1034482758
      -17.2413793103
      L
    
      36.2068965517
      -34.4827586206
      L
    
      53.4482758620
      -16.3793103448
      L
    
      -0.8620689655
      35.3448275862
      L
    
      -18.1034482758
      17.2413793103
      L
    
      -36.2068965517
      34.4827586206
      L
    
      -53.4482758620
      16.3793103448
      z
    "
    fill="hsla(0,0%,50%,0.3)"
    stroke="hsla(0,0%,50%,1)"
    stroke-width="1"
    transform="translate(0,0)"
    />
  
  
  <line
    x1="36.206896551724135"
    y1="-34.48275862068966"
    x2="53.44827586206897"
    y2="-16.379310344827587"
    stroke="hsla(0,50%,50%,0.6)"
    stroke-width="1"
    transform="translate(0,0)"
    />
  
  <line
    x1="0.8620689655172413"
    y1="-35.3448275862069"
    x2="-53.44827586206897"
    y2="16.379310344827587"
    stroke="hsla(0,50%,50%,0.6)"
    stroke-width="1"
    transform="translate(0,0)"
    />
  
  <line
    x1="-17.24137931034483"
    y1="-18.103448275862068"
    x2="53.44827586206897"
    y2="-16.379310344827587"
    stroke="hsla(0,50%,50%,0.6)"
    stroke-width="1"
    transform="translate(0,0)"
    />
  
  <line
    x1="0.8620689655172413"
    y1="-35.3448275862069"
    x2="18.103448275862068"
    y2="-17.24137931034483"
    stroke="hsla(0,50%,50%,0.6)"
    stroke-width="1"
    transform="translate(0,0)"
    />
  
  <line
    x1="-17.24137931034483"
    y1="-18.103448275862068"
    x2="-18.103448275862068"
    y2="17.24137931034483"
    stroke="hsla(0,50%,50%,0.6)"
    stroke-width="1"
    transform="translate(0,0)"
    />
  
  <line
    x1="-17.24137931034483"
    y1="-18.103448275862068"
    x2="17.24137931034483"
    y2="18.103448275862068"
    stroke="hsla(0,50%,50%,0.6)"
    stroke-width="1"
    transform="translate(0,0)"
    />
  
  <line
    x1="36.206896551724135"
    y1="-34.48275862068966"
    x2="-36.206896551724135"
    y2="34.48275862068966"
    stroke="hsla(0,50%,50%,0.6)"
    stroke-width="1"
    transform="translate(0,0)"
    />
  
  <line
    x1="18.103448275862068"
    y1="-17.24137931034483"
    x2="17.24137931034483"
    y2="18.103448275862068"
    stroke="hsla(0,50%,50%,0.6)"
    stroke-width="1"
    transform="translate(0,0)"
    />
  
  <line
    x1="-18.103448275862068"
    y1="17.24137931034483"
    x2="-0.8620689655172413"
    y2="35.3448275862069"
    stroke="hsla(0,50%,50%,0.6)"
    stroke-width="1"
    transform="translate(0,0)"
    />
  
  <line
    x1="-53.44827586206897"
    y1="16.379310344827587"
    x2="17.24137931034483"
    y2="18.103448275862068"
    stroke="hsla(0,50%,50%,0.6)"
    stroke-width="1"
    transform="translate(0,0)"
    />
  
  <line
    x1="53.44827586206897"
    y1="-16.379310344827587"
    x2="-0.8620689655172413"
    y2="35.3448275862069"
    stroke="hsla(0,50%,50%,0.6)"
    stroke-width="1"
    transform="translate(0,0)"
    />
  
  <line
    x1="-53.44827586206897"
    y1="16.379310344827587"
    x2="-36.206896551724135"
    y2="34.48275862068966"
    stroke="hsla(0,50%,50%,0.6)"
    stroke-width="1"
    transform="translate(0,0)"
    />
  
</svg>
