<?xml version="1.0"?>
<!DOCTYPE svg PUBLIC "-//W3C//DTD SVG 1.1//EN"
  "http://www.w3.org/Graphics/SVG/1.1/DTD/svg11.dtd">
<svg
  width="240"
  height="240"
  viewBox="-50 -50 200 200" xmlns="http://www.w3.org/2000/svg" version="1.1">
  <rect
    x="0"
    y="0"
    width="100"
    height="100"
    fill="hsla(206,100%,53%,0.3)"
    stroke="hsl(206,100%,53%)"
    stroke-width="3"
    transform="" />
  
  <path
    d="M 
      60.9605911330
      57.2413793103
      L
    
      97.1674876847
      91.7241379310
      L
    
      79.9261083743
      109.8275862068
      L
    
      61.8226600985
      92.5862068965
      L
    
      26.4778325123
      93.4482758620
      L
    
      9.2364532019
      111.5517241379
      L
    
      -8.8669950738
      94.3103448275
      L
    
      25.6157635467
      58.1034482758
      z
    "
    fill="hsla(0,0%,50%,0.3)"
    stroke="hsla(0,0%,50%,1)"
    stroke-width="1"
    transform="translate(-17.8167333743,-78.1869612068) scale(1,-1) translate(50,-110)"
    />
  
  
  <line
    x1="60.960591133004925"
    y1="57.241379310344826"
    x2="61.82266009852217"
    y2="92.58620689655173"
    stroke="hsla(0,50%,50%,0.6)"
    stroke-width="1"
    transform="translate(-17.8167333743,-78.1869612068) scale(1,-1) translate(50,-110)"
    />
  
  <line
    x1="25.61576354679803"
    y1="58.10344827586207"
    x2="26.47783251231527"
    y2="93.44827586206897"
    stroke="hsla(0,50%,50%,0.6)"
    stroke-width="1"
    transform="translate(-17.8167333743,-78.1869612068) scale(1,-1) translate(50,-110)"
    />
  
  <line
    x1="60.960591133004925"
    y1="57.241379310344826"
    x2="97.16748768472907"
    y2="91.72413793103448"
    stroke="hsla(0,50%,50%,0.6)"
    stroke-width="1"
    transform="translate(-17.8167333743,-78.1869612068) scale(1,-1) translate(50,-110)"
    />
  
  <line
    x1="25.61576354679803"
    y1="58.10344827586207"
    x2="79.92610837438424"
    y2="109.82758620689656"
    stroke="hsla(0,50%,50%,0.6)"
    stroke-width="1"
    transform="translate(-17.8167333743,-78.1869612068) scale(1,-1) translate(50,-110)"
    />
  
  <line
    x1="8.374384236453203"
    y1="76.20689655172414"
    x2="26.47783251231527"
    y2="93.44827586206897"
    stroke="hsla(0,50%,50%,0.6)"
    stroke-width="1"
    transform="translate(-17.8167333743,-78.1869612068) scale(1,-1) translate(50,-110)"
    />
  
  <line
    x1="25.61576354679803"
    y1="58.10344827586207"
    x2="-8.866995073891626"
    y2="94.3103448275862"
    stroke="hsla(0,50%,50%,0.6)"
    stroke-width="1"
    transform="translate(-17.8167333743,-78.1869612068) scale(1,-1) translate(50,-110)"
    />
  
  <line
    x1="-8.866995073891626"
    y1="94.3103448275862"
    x2="9.236453201970443"
    y2="111.55172413793103"
    stroke="hsla(0,50%,50%,0.6)"
    stroke-width="1"
    transform="translate(-17.8167333743,-78.1869612068) scale(1,-1) translate(50,-110)"
    />
  
  <line
    x1="60.960591133004925"
    y1="57.241379310344826"
    x2="9.236453201970443"
    y2="111.55172413793103"
    stroke="hsla(0,50%,50%,0.6)"
    stroke-width="1"
    transform="translate(-17.8167333743,-78.1869612068) scale(1,-1) translate(50,-110)"
    />
  
  <line
    x1="60.960591133004925"
    y1="57.241379310344826"
    x2="25.61576354679803"
    y2="58.10344827586207"
    stroke="hsla(0,50%,50%,0.6)"
    stroke-width="1"
    transform="translate(-17.8167333743,-78.1869612068) scale(1,-1) translate(50,-110)"
    />
  
  <line
    x1="79.06403940886699"
    y1="74.48275862068965"
    x2="61.82266009852217"
    y2="92.58620689655173"
    stroke="hsla(0,50%,50%,0.6)"
    stroke-width="1"
    transform="translate(-17.8167333743,-78.1869612068) scale(1,-1) translate(50,-110)"
    />
  
  <line
    x1="97.16748768472907"
    y1="91.72413793103448"
    x2="79.92610837438424"
    y2="109.82758620689656"
    stroke="hsla(0,50%,50%,0.6)"
    stroke-width="1"
    transform="translate(-17.8167333743,-78.1869612068) scale(1,-1) translate(50,-110)"
    />
  
  <line
    x1="97.16748768472907"
    y1="91.72413793103448"
    x2="-8.866995073891626"
    y2="94.3103448275862"
    stroke="hsla(0,50%,50%,0.6)"
    stroke-width="1"
    transform="translate(-17.8167333743,-78.1869612068) scale(1,-1) translate(50,-110)"
    />
  
</svg>
