<?xml version="1.0"?>
<!DOCTYPE svg PUBLIC "-//W3C//DTD SVG 1.1//EN"
  "http://www.w3.org/Graphics/SVG/1.1/DTD/svg11.dtd">
<svg
  width="240"
  height="240"
  viewBox="-50 -50 200 200" xmlns="http://www.w3.org/2000/svg" version="1.1">
  <rect
    x="0"
    y="0"
    width="100"
    height="100"
    fill="hsla(206,100%,53%,0.3)"
    stroke="hsl(206,100%,53%)"
    stroke-width="3"
    transform="" />
  
  <path
    d="M 
      188.7254901960
      361.7647058823
      L
    
      232.8431372549
      385.2941176470
      L
    
      221.0784313725
      407.3529411764
      L
    
      199.0196078431
      395.5882352941
      L
    
      165.1960784313
      405.8823529411
      L
    
      153.4313725490
      427.9411764705
      L
    
      131.3725490196
      416.1764705882
      L
    
      154.9019607843
      372.0588235294
      z
    "
    fill="hsla(0,0%,50%,0.3)"
    stroke="hsla(0,0%,50%,1)"
    stroke-width="1"
    transform="translate(-152.7650122549,-393.4972426470) scale(1,-1) translate(50,-110)"
    />
  
  
  <line
    x1="188.72549019607843"
    y1="361.7647058823529"
    x2="199.01960784313727"
    y2="395.5882352941176"
    stroke="hsla(0,50%,50%,0.6)"
    stroke-width="1"
    transform="translate(-152.7650122549,-393.4972426470) scale(1,-1) translate(50,-110)"
    />
  
  <line
    x1="154.90196078431373"
    y1="372.05882352941177"
    x2="165.19607843137254"
    y2="405.88235294117646"
    stroke="hsla(0,50%,50%,0.6)"
    stroke-width="1"
    transform="translate(-152.7650122549,-393.4972426470) scale(1,-1) translate(50,-110)"
    />
  
  <line
    x1="154.90196078431373"
    y1="372.05882352941177"
    x2="131.37254901960785"
    y2="416.1764705882353"
    stroke="hsla(0,50%,50%,0.6)"
    stroke-width="1"
    transform="translate(-152.7650122549,-393.4972426470) scale(1,-1) translate(50,-110)"
    />
  
  <line
    x1="188.72549019607843"
    y1="361.7647058823529"
    x2="153.4313725490196"
    y2="427.94117647058823"
    stroke="hsla(0,50%,50%,0.6)"
    stroke-width="1"
    transform="translate(-152.7650122549,-393.4972426470) scale(1,-1) translate(50,-110)"
    />
  
  <line
    x1="210.7843137254902"
    y1="373.52941176470586"
    x2="199.01960784313727"
    y2="395.5882352941176"
    stroke="hsla(0,50%,50%,0.6)"
    stroke-width="1"
    transform="translate(-152.7650122549,-393.4972426470) scale(1,-1) translate(50,-110)"
    />
  
  <line
    x1="232.84313725490196"
    y1="385.29411764705884"
    x2="221.07843137254903"
    y2="407.3529411764706"
    stroke="hsla(0,50%,50%,0.6)"
    stroke-width="1"
    transform="translate(-152.7650122549,-393.4972426470) scale(1,-1) translate(50,-110)"
    />
  
  <line
    x1="188.72549019607843"
    y1="361.7647058823529"
    x2="232.84313725490196"
    y2="385.29411764705884"
    stroke="hsla(0,50%,50%,0.6)"
    stroke-width="1"
    transform="translate(-152.7650122549,-393.4972426470) scale(1,-1) translate(50,-110)"
    />
  
  <line
    x1="154.90196078431373"
    y1="372.05882352941177"
    x2="221.07843137254903"
    y2="407.3529411764706"
    stroke="hsla(0,50%,50%,0.6)"
    stroke-width="1"
    transform="translate(-152.7650122549,-393.4972426470) scale(1,-1) translate(50,-110)"
    />
  
  <line
    x1="143.13725490196077"
    y1="394.11764705882354"
    x2="165.19607843137254"
    y2="405.88235294117646"
    stroke="hsla(0,50%,50%,0.6)"
    stroke-width="1"
    transform="translate(-152.7650122549,-393.4972426470) scale(1,-1) translate(50,-110)"
    />
  
  <line
    x1="131.37254901960785"
    y1="416.1764705882353"
    x2="153.4313725490196"
    y2="427.94117647058823"
    stroke="hsla(0,50%,50%,0.6)"
    stroke-width="1"
    transform="translate(-152.7650122549,-393.4972426470) scale(1,-1) translate(50,-110)"
    />
  
  <line
    x1="188.72549019607843"
    y1="361.7647058823529"
    x2="154.90196078431373"
    y2="372.05882352941177"
    stroke="hsla(0,50%,50%,0.6)"
    stroke-width="1"
    transform="translate(-152.7650122549,-393.4972426470) scale(1,-1) translate(50,-110)"
    />
  
  <line
    x1="232.84313725490196"
    y1="385.29411764705884"
    x2="131.37254901960785"
    y2="416.1764705882353"
    stroke="hsla(0,50%,50%,0.6)"
    stroke-width="1"
    transform="translate(-152.7650122549,-393.4972426470) scale(1,-1) translate(50,-110)"
    />
  
</svg>
