<?xml version="1.0"?>
<!DOCTYPE svg PUBLIC "-//W3C//DTD SVG 1.1//EN"
  "http://www.w3.org/Graphics/SVG/1.1/DTD/svg11.dtd">
<svg
  width="240"
  height="240"
  viewBox="-50 -50 200 200" xmlns="http://www.w3.org/2000/svg" version="1.1">
  <rect
    x="0"
    y="0"
    width="100"
    height="100"
    fill="hsla(206,100%,53%,0.3)"
    stroke="hsl(206,100%,53%)"
    stroke-width="3"
    transform="" />
  
  <path
    d="M 
      143.5897435897
      359.6153846153
      L
    
      176.2820512820
      373.0769230769
      L
    
      195.5128205128
      419.2307692307
      L
    
      172.4358974358
      428.8461538461
      L
    
      162.8205128205
      405.7692307692
      L
    
      130.1282051282
      392.3076923076
      L
    
      107.0512820512
      401.9230769230
      L
    
      97.4358974358
      378.8461538461
      z
    "
    fill="hsla(0,0%,50%,0.3)"
    stroke="hsla(0,0%,50%,1)"
    stroke-width="1"
    transform="translate(-112.8655849358,-389.9789663461) scale(1,-1) translate(50,-110)"
    />
  
  
  <line
    x1="176.28205128205127"
    y1="373.0769230769231"
    x2="195.51282051282053"
    y2="419.2307692307692"
    stroke="hsla(0,50%,50%,0.6)"
    stroke-width="1"
    transform="translate(-112.8655849358,-389.9789663461) scale(1,-1) translate(50,-110)"
    />
  
  <line
    x1="143.5897435897436"
    y1="359.61538461538464"
    x2="172.43589743589743"
    y2="428.84615384615387"
    stroke="hsla(0,50%,50%,0.6)"
    stroke-width="1"
    transform="translate(-112.8655849358,-389.9789663461) scale(1,-1) translate(50,-110)"
    />
  
  <line
    x1="120.51282051282051"
    y1="369.2307692307692"
    x2="130.12820512820514"
    y2="392.3076923076923"
    stroke="hsla(0,50%,50%,0.6)"
    stroke-width="1"
    transform="translate(-112.8655849358,-389.9789663461) scale(1,-1) translate(50,-110)"
    />
  
  <line
    x1="97.43589743589743"
    y1="378.84615384615387"
    x2="107.05128205128206"
    y2="401.9230769230769"
    stroke="hsla(0,50%,50%,0.6)"
    stroke-width="1"
    transform="translate(-112.8655849358,-389.9789663461) scale(1,-1) translate(50,-110)"
    />
  
  <line
    x1="143.5897435897436"
    y1="359.61538461538464"
    x2="130.12820512820514"
    y2="392.3076923076923"
    stroke="hsla(0,50%,50%,0.6)"
    stroke-width="1"
    transform="translate(-112.8655849358,-389.9789663461) scale(1,-1) translate(50,-110)"
    />
  
  <line
    x1="176.28205128205127"
    y1="373.0769230769231"
    x2="162.82051282051282"
    y2="405.7692307692308"
    stroke="hsla(0,50%,50%,0.6)"
    stroke-width="1"
    transform="translate(-112.8655849358,-389.9789663461) scale(1,-1) translate(50,-110)"
    />
  
  <line
    x1="143.5897435897436"
    y1="359.61538461538464"
    x2="176.28205128205127"
    y2="373.0769230769231"
    stroke="hsla(0,50%,50%,0.6)"
    stroke-width="1"
    transform="translate(-112.8655849358,-389.9789663461) scale(1,-1) translate(50,-110)"
    />
  
  <line
    x1="97.43589743589743"
    y1="378.84615384615387"
    x2="195.51282051282053"
    y2="419.2307692307692"
    stroke="hsla(0,50%,50%,0.6)"
    stroke-width="1"
    transform="translate(-112.8655849358,-389.9789663461) scale(1,-1) translate(50,-110)"
    />
  
  <line
    x1="143.5897435897436"
    y1="359.61538461538464"
    x2="97.43589743589743"
    y2="378.84615384615387"
    stroke="hsla(0,50%,50%,0.6)"
    stroke-width="1"
    transform="translate(-112.8655849358,-389.9789663461) scale(1,-1) translate(50,-110)"
    />
  
  <line
    x1="176.28205128205127"
    y1="373.0769230769231"
    x2="107.05128205128206"
    y2="401.9230769230769"
    stroke="hsla(0,50%,50%,0.6)"
    stroke-width="1"
    transform="translate(-112.8655849358,-389.9789663461) scale(1,-1) translate(50,-110)"
    />
  
  <line
    x1="185.89743589743588"
    y1="396.15384615384613"
    x2="162.82051282051282"
    y2="405.7692307692308"
    stroke="hsla(0,50%,50%,0.6)"
    stroke-width="1"
    transform="translate(-112.8655849358,-389.9789663461) scale(1,-1) translate(50,-110)"
    />
  
  <line
    x1="195.51282051282053"
    y1="419.2307692307692"
    x2="172.43589743589743"
    y2="428.84615384615387"
    stroke="hsla(0,50%,50%,0.6)"
    stroke-width="1"
    transform="translate(-112.8655849358,-389.9789663461) scale(1,-1) translate(50,-110)"
    />
  
</svg>
