<?xml version="1.0"?>
<!DOCTYPE svg PUBLIC "-//W3C//DTD SVG 1.1//EN"
  "http://www.w3.org/Graphics/SVG/1.1/DTD/svg11.dtd">
<svg
  width="240"
  height="240"
  viewBox="-500 -500 1000 1000" xmlns="http://www.w3.org/2000/svg" version="1.1">
  <rect
    x="0"
    y="0"
    width="100"
    height="100"
    fill="hsla(206,100%,53%,0.3)"
    stroke="hsl(206,100%,53%)"
    stroke-width="3"
    transform="" />
  
  <path
    d="M 
      20
      57.8571428571
      L
    
      55
      62.8571428571
      L
    
      85
      102.8571428571
      L
    
      65
      117.8571428571
      L
    
      50
      97.8571428571
      L
    
      15
      92.8571428571
      L
    
      -5
      107.8571428571
      L
    
      -20
      87.8571428571
      z
    "
    fill="hsla(0,0%,50%,0.3)"
    stroke="hsla(0,0%,50%,1)"
    stroke-width="1"
    transform="translate(-32.5,-87.8571428571)"
    />
  
  
  <line
    x1="55"
    y1="62.857142857142854"
    x2="85"
    y2="102.85714285714286"
    stroke="hsla(0,50%,50%,0.6)"
    stroke-width="1"
    transform="translate(-32.5,-87.8571428571)"
    />
  
  <line
    x1="20"
    y1="57.857142857142854"
    x2="15"
    y2="92.85714285714286"
    stroke="hsla(0,50%,50%,0.6)"
    stroke-width="1"
    transform="translate(-32.5,-87.8571428571)"
    />
  
  <line
    x1="55"
    y1="62.857142857142854"
    x2="50"
    y2="97.85714285714286"
    stroke="hsla(0,50%,50%,0.6)"
    stroke-width="1"
    transform="translate(-32.5,-87.8571428571)"
    />
  
  <line
    x1="20"
    y1="57.857142857142854"
    x2="65"
    y2="117.85714285714286"
    stroke="hsla(0,50%,50%,0.6)"
    stroke-width="1"
    transform="translate(-32.5,-87.8571428571)"
    />
  
  <line
    x1="0"
    y1="72.85714285714286"
    x2="15"
    y2="92.85714285714286"
    stroke="hsla(0,50%,50%,0.6)"
    stroke-width="1"
    transform="translate(-32.5,-87.8571428571)"
    />
  
  <line
    x1="-20"
    y1="87.85714285714286"
    x2="-5"
    y2="107.85714285714286"
    stroke="hsla(0,50%,50%,0.6)"
    stroke-width="1"
    transform="translate(-32.5,-87.8571428571)"
    />
  
  <line
    x1="20"
    y1="57.857142857142854"
    x2="-20"
    y2="87.85714285714286"
    stroke="hsla(0,50%,50%,0.6)"
    stroke-width="1"
    transform="translate(-32.5,-87.8571428571)"
    />
  
  <line
    x1="20"
    y1="57.857142857142854"
    x2="55"
    y2="62.857142857142854"
    stroke="hsla(0,50%,50%,0.6)"
    stroke-width="1"
    transform="translate(-32.5,-87.8571428571)"
    />
  
  <line
    x1="55"
    y1="62.857142857142854"
    x2="-5"
    y2="107.85714285714286"
    stroke="hsla(0,50%,50%,0.6)"
    stroke-width="1"
    transform="translate(-32.5,-87.8571428571)"
    />
  
  <line
    x1="70"
    y1="82.85714285714286"
    x2="50"
    y2="97.85714285714286"
    stroke="hsla(0,50%,50%,0.6)"
    stroke-width="1"
    transform="translate(-32.5,-87.8571428571)"
    />
  
  <line
    x1="-20"
    y1="87.85714285714286"
    x2="85"
    y2="102.85714285714286"
    stroke="hsla(0,50%,50%,0.6)"
    stroke-width="1"
    transform="translate(-32.5,-87.8571428571)"
    />
  
  <line
    x1="85"
    y1="102.85714285714286"
    x2="65"
    y2="117.85714285714286"
    stroke="hsla(0,50%,50%,0.6)"
    stroke-width="1"
    transform="translate(-32.5,-87.8571428571)"
    />
  
</svg>
