<?xml version="1.0"?>
<!DOCTYPE svg PUBLIC "-//W3C//DTD SVG 1.1//EN"
  "http://www.w3.org/Graphics/SVG/1.1/DTD/svg11.dtd">
<svg
  width="240"
  height="240"
  viewBox="-500 -500 1000 1000" xmlns="http://www.w3.org/2000/svg" version="1.1">
  <rect
    x="0"
    y="0"
    width="100"
    height="100"
    fill="hsla(206,100%,53%,0.3)"
    stroke="hsl(206,100%,53%)"
    stroke-width="3"
    transform="" />
  
  <path
    d="M 
      16.9230769230
      52.4725274725
      L
    
      49.6153846153
      65.9340659340
      L
    
      68.8461538461
      112.0879120879
      L
    
      45.7692307692
      121.7032967032
      L
    
      36.1538461538
      98.6263736263
      L
    
      3.4615384615
      85.1648351648
      L
    
      -19.6153846153
      94.7802197802
      L
    
      -29.2307692307
      71.7032967032
      z
    "
    fill="hsla(0,0%,50%,0.3)"
    stroke="hsla(0,0%,50%,1)"
    stroke-width="1"
    transform="translate(-19.8076923076,-87.0879120879)"
    />
  
  
  <line
    x1="49.61538461538461"
    y1="65.93406593406593"
    x2="68.84615384615384"
    y2="112.08791208791209"
    stroke="hsla(0,50%,50%,0.6)"
    stroke-width="1"
    transform="translate(-19.8076923076,-87.0879120879)"
    />
  
  <line
    x1="16.923076923076923"
    y1="52.472527472527474"
    x2="45.76923076923077"
    y2="121.7032967032967"
    stroke="hsla(0,50%,50%,0.6)"
    stroke-width="1"
    transform="translate(-19.8076923076,-87.0879120879)"
    />
  
  <line
    x1="-6.153846153846154"
    y1="62.08791208791209"
    x2="3.4615384615384617"
    y2="85.16483516483517"
    stroke="hsla(0,50%,50%,0.6)"
    stroke-width="1"
    transform="translate(-19.8076923076,-87.0879120879)"
    />
  
  <line
    x1="16.923076923076923"
    y1="52.472527472527474"
    x2="3.4615384615384617"
    y2="85.16483516483517"
    stroke="hsla(0,50%,50%,0.6)"
    stroke-width="1"
    transform="translate(-19.8076923076,-87.0879120879)"
    />
  
  <line
    x1="-29.23076923076923"
    y1="71.7032967032967"
    x2="-19.615384615384617"
    y2="94.78021978021978"
    stroke="hsla(0,50%,50%,0.6)"
    stroke-width="1"
    transform="translate(-19.8076923076,-87.0879120879)"
    />
  
  <line
    x1="49.61538461538461"
    y1="65.93406593406593"
    x2="36.15384615384615"
    y2="98.62637362637362"
    stroke="hsla(0,50%,50%,0.6)"
    stroke-width="1"
    transform="translate(-19.8076923076,-87.0879120879)"
    />
  
  <line
    x1="16.923076923076923"
    y1="52.472527472527474"
    x2="49.61538461538461"
    y2="65.93406593406593"
    stroke="hsla(0,50%,50%,0.6)"
    stroke-width="1"
    transform="translate(-19.8076923076,-87.0879120879)"
    />
  
  <line
    x1="16.923076923076923"
    y1="52.472527472527474"
    x2="-29.23076923076923"
    y2="71.7032967032967"
    stroke="hsla(0,50%,50%,0.6)"
    stroke-width="1"
    transform="translate(-19.8076923076,-87.0879120879)"
    />
  
  <line
    x1="-29.23076923076923"
    y1="71.7032967032967"
    x2="68.84615384615384"
    y2="112.08791208791209"
    stroke="hsla(0,50%,50%,0.6)"
    stroke-width="1"
    transform="translate(-19.8076923076,-87.0879120879)"
    />
  
  <line
    x1="49.61538461538461"
    y1="65.93406593406593"
    x2="-19.615384615384617"
    y2="94.78021978021978"
    stroke="hsla(0,50%,50%,0.6)"
    stroke-width="1"
    transform="translate(-19.8076923076,-87.0879120879)"
    />
  
  <line
    x1="59.23076923076923"
    y1="89.01098901098901"
    x2="36.15384615384615"
    y2="98.62637362637362"
    stroke="hsla(0,50%,50%,0.6)"
    stroke-width="1"
    transform="translate(-19.8076923076,-87.0879120879)"
    />
  
  <line
    x1="68.84615384615384"
    y1="112.08791208791209"
    x2="45.76923076923077"
    y2="121.7032967032967"
    stroke="hsla(0,50%,50%,0.6)"
    stroke-width="1"
    transform="translate(-19.8076923076,-87.0879120879)"
    />
  
</svg>
