<?xml version="1.0"?>
<!DOCTYPE svg PUBLIC "-//W3C//DTD SVG 1.1//EN"
  "http://www.w3.org/Graphics/SVG/1.1/DTD/svg11.dtd">
<svg
  width="240"
  height="240"
  viewBox="-50 -50 200 200" xmlns="http://www.w3.org/2000/svg" version="1.1">
  <rect
    x="0"
    y="0"
    width="100"
    height="100"
    fill="hsla(206,100%,53%,0.3)"
    stroke="hsl(206,100%,53%)"
    stroke-width="3"
    transform="" />
  
  <path
    d="M 
      -23.9288955128
      26
      L
    
      74.7114198806
      26
      L
    
      79.3257776809
      30.9781446350
      L
    
      96.4839090494
      31.0385765764
      L
    
      97.1395517803
      31.6506208486
      L
    
      88.5139341134
      40.8906771324
      L
    
      60.9539602853
      40.8420704766
      L
    
      29.1267329594
      75.1784934023
      L
    
      -8.0479964696
      40.7203739039
      L
    
      -39.7494757533
      40.6644630057
      L
    
      -44.1982406647
      36.5115288636
      L
    
      -39.3240662208
      31.2901467043
      L
    
      -37.6497361127
      30.5661500393
      L
    
      -28.8883227924
      30.5970082490
      z
    "
    fill="hsla(0,0%,50%,0.3)"
    stroke="hsla(0,0%,50%,1)"
    stroke-width="1"
    transform="translate(32.0963422086,-31.9270118030) scale(1,-1) translate(50,-110)"
    />
  
  
  <line
    x1="96.48390904946898"
    y1="31.038576576476014"
    x2="97.13955178038916"
    y2="31.650620848645733"
    stroke="hsla(0,50%,50%,0.6)"
    stroke-width="1"
    transform="translate(32.0963422086,-31.9270118030) scale(1,-1) translate(50,-110)"
    />
  
  <line
    x1="74.71141988069566"
    y1="26"
    x2="88.513934113422"
    y2="40.890677132475176"
    stroke="hsla(0,50%,50%,0.6)"
    stroke-width="1"
    transform="translate(32.0963422086,-31.9270118030) scale(1,-1) translate(50,-110)"
    />
  
  <line
    x1="69.72596269378033"
    y1="26"
    x2="85.7850583194803"
    y2="40.88586430038709"
    stroke="hsla(0,50%,50%,0.6)"
    stroke-width="1"
    transform="translate(32.0963422086,-31.9270118030) scale(1,-1) translate(50,-110)"
    />
  
  <line
    x1="-39.32406622083166"
    y1="31.290146704331132"
    x2="-44.198240664766665"
    y2="36.51152886362155"
    stroke="hsla(0,50%,50%,0.6)"
    stroke-width="1"
    transform="translate(32.0963422086,-31.9270118030) scale(1,-1) translate(50,-110)"
    />
  
  <line
    x1="53.5"
    y1="26"
    x2="53.5"
    y2="41.04054054054054"
    stroke="hsla(0,50%,50%,0.6)"
    stroke-width="1"
    transform="translate(32.0963422086,-31.9270118030) scale(1,-1) translate(50,-110)"
    />
  
  <line
    x1="53.53506753735204"
    y1="30.887308246708834"
    x2="53.53250242864069"
    y2="31.616701810960603"
    stroke="hsla(0,50%,50%,0.6)"
    stroke-width="1"
    transform="translate(32.0963422086,-31.9270118030) scale(1,-1) translate(50,-110)"
    />
  
  <line
    x1="53.53506753735204"
    y1="30.887308246708834"
    x2="53.5"
    y2="40.82892416225749"
    stroke="hsla(0,50%,50%,0.6)"
    stroke-width="1"
    transform="translate(32.0963422086,-31.9270118030) scale(1,-1) translate(50,-110)"
    />
  
  <line
    x1="-23.928895512859057"
    y1="26"
    x2="-39.749475753351966"
    y2="40.664463005726006"
    stroke="hsla(0,50%,50%,0.6)"
    stroke-width="1"
    transform="translate(32.0963422086,-31.9270118030) scale(1,-1) translate(50,-110)"
    />
  
  <line
    x1="-37.64973611274649"
    y1="30.566150039347008"
    x2="-39.32406622083166"
    y2="31.290146704331132"
    stroke="hsla(0,50%,50%,0.6)"
    stroke-width="1"
    transform="translate(32.0963422086,-31.9270118030) scale(1,-1) translate(50,-110)"
    />
  
  <line
    x1="19.05"
    y1="26"
    x2="53.5"
    y2="41.04054054054054"
    stroke="hsla(0,50%,50%,0.6)"
    stroke-width="1"
    transform="translate(32.0963422086,-31.9270118030) scale(1,-1) translate(50,-110)"
    />
  
  <line
    x1="-23.928895512859057"
    y1="26"
    x2="29.12673295944556"
    y2="75.17849340230107"
    stroke="hsla(0,50%,50%,0.6)"
    stroke-width="1"
    transform="translate(32.0963422086,-31.9270118030) scale(1,-1) translate(50,-110)"
    />
  
  <line
    x1="-23.928895512859057"
    y1="26"
    x2="74.71141988069566"
    y2="26"
    stroke="hsla(0,50%,50%,0.6)"
    stroke-width="1"
    transform="translate(32.0963422086,-31.9270118030) scale(1,-1) translate(50,-110)"
    />
  
  <line
    x1="19.05"
    y1="26"
    x2="-14.640036469791136"
    y2="40.708747731093844"
    stroke="hsla(0,50%,50%,0.6)"
    stroke-width="1"
    transform="translate(32.0963422086,-31.9270118030) scale(1,-1) translate(50,-110)"
    />
  
  <line
    x1="-37.64973611274649"
    y1="30.566150039347008"
    x2="96.48390904946898"
    y2="31.038576576476014"
    stroke="hsla(0,50%,50%,0.6)"
    stroke-width="1"
    transform="translate(32.0963422086,-31.9270118030) scale(1,-1) translate(50,-110)"
    />
  
  <line
    x1="-39.32406622083166"
    y1="31.290146704331132"
    x2="53.53250242864069"
    y2="31.616701810960603"
    stroke="hsla(0,50%,50%,0.6)"
    stroke-width="1"
    transform="translate(32.0963422086,-31.9270118030) scale(1,-1) translate(50,-110)"
    />
  
  <line
    x1="-37.64973611274649"
    y1="30.566150039347008"
    x2="-14.640036469791136"
    y2="40.708747731093844"
    stroke="hsla(0,50%,50%,0.6)"
    stroke-width="1"
    transform="translate(32.0963422086,-31.9270118030) scale(1,-1) translate(50,-110)"
    />
  
  <line
    x1="-39.749475753351966"
    y1="40.664463005726006"
    x2="88.513934113422"
    y2="40.890677132475176"
    stroke="hsla(0,50%,50%,0.6)"
    stroke-width="1"
    transform="translate(32.0963422086,-31.9270118030) scale(1,-1) translate(50,-110)"
    />
  
  <line
    x1="-44.198240664766665"
    y1="36.51152886362155"
    x2="-39.749475753351966"
    y2="40.664463005726006"
    stroke="hsla(0,50%,50%,0.6)"
    stroke-width="1"
    transform="translate(32.0963422086,-31.9270118030) scale(1,-1) translate(50,-110)"
    />
  
  <line
    x1="69.72596269378033"
    y1="26"
    x2="53.5"
    y2="41.04054054054054"
    stroke="hsla(0,50%,50%,0.6)"
    stroke-width="1"
    transform="translate(32.0963422086,-31.9270118030) scale(1,-1) translate(50,-110)"
    />
  
  <line
    x1="74.71141988069566"
    y1="26"
    x2="29.12673295944556"
    y2="75.17849340230107"
    stroke="hsla(0,50%,50%,0.6)"
    stroke-width="1"
    transform="translate(32.0963422086,-31.9270118030) scale(1,-1) translate(50,-110)"
    />
  
  <line
    x1="97.13955178038916"
    y1="31.650620848645733"
    x2="88.513934113422"
    y2="40.890677132475176"
    stroke="hsla(0,50%,50%,0.6)"
    stroke-width="1"
    transform="translate(32.0963422086,-31.9270118030) scale(1,-1) translate(50,-110)"
    />
  
  <line
    x1="96.48390904946898"
    y1="31.038576576476014"
    x2="85.7850583194803"
    y2="40.88586430038709"
    stroke="hsla(0,50%,50%,0.6)"
    stroke-width="1"
    transform="translate(32.0963422086,-31.9270118030) scale(1,-1) translate(50,-110)"
    />
  
</svg>
