<?xml version="1.0"?>
<!DOCTYPE svg PUBLIC "-//W3C//DTD SVG 1.1//EN"
  "http://www.w3.org/Graphics/SVG/1.1/DTD/svg11.dtd">
<svg
  width="240"
  height="240"
  viewBox="-50 -50 200 200" xmlns="http://www.w3.org/2000/svg" version="1.1">
  <rect
    x="0"
    y="0"
    width="100"
    height="100"
    fill="hsla(206,100%,53%,0.3)"
    stroke="hsl(206,100%,53%)"
    stroke-width="3"
    transform="" />
  
  <path
    d="M 
      94.9605537531
      -0.4724405659
      L
    
      105.3075250249
      6.9410326782
      L
    
      74.7474688884
      49.5936480575
      L
    
      75.1245017445
      49.8752497490
      L
    
      60.9050103924
      68.9135424809
      L
    
      20.1125081466
      39.0706440382
      L
    
      33.2781456953
      -0.1655629139
      z
    "
    fill="hsla(0,0%,50%,0.3)"
    stroke="hsla(0,0%,50%,1)"
    stroke-width="1"
    transform="translate(-39.4406546761,-23.0671487255) scale(1,-1) translate(50,-110)"
    />
  
  
  <line
    x1="94.96055375314049"
    y1="-0.47244056593602235"
    x2="105.30752502494316"
    y2="6.941032678253763"
    stroke="hsla(0,50%,50%,0.6)"
    stroke-width="1"
    transform="translate(-39.4406546761,-23.0671487255) scale(1,-1) translate(50,-110)"
    />
  
  <line
    x1="33.27814569536424"
    y1="-0.16556291390728478"
    x2="59.72103728100633"
    y2="20.03928493482272"
    stroke="hsla(0,50%,50%,0.6)"
    stroke-width="1"
    transform="translate(-39.4406546761,-23.0671487255) scale(1,-1) translate(50,-110)"
    />
  
  <line
    x1="54.74844861418407"
    y1="16.278795679597263"
    x2="59.72103728100633"
    y2="20.03928493482272"
    stroke="hsla(0,50%,50%,0.6)"
    stroke-width="1"
    transform="translate(-39.4406546761,-23.0671487255) scale(1,-1) translate(50,-110)"
    />
  
  <line
    x1="32.83988038576303"
    y1="1.1405544939141306"
    x2="59.81449082148899"
    y2="20.71261011204655"
    stroke="hsla(0,50%,50%,0.6)"
    stroke-width="1"
    transform="translate(-39.4406546761,-23.0671487255) scale(1,-1) translate(50,-110)"
    />
  
  <line
    x1="53.13224067792724"
    y1="15.004826716050372"
    x2="54.71516339723161"
    y2="20.683370085633907"
    stroke="hsla(0,50%,50%,0.6)"
    stroke-width="1"
    transform="translate(-39.4406546761,-23.0671487255) scale(1,-1) translate(50,-110)"
    />
  
  <line
    x1="52.12357237336123"
    y1="30.474554732679923"
    x2="55.64334044314758"
    y2="41.788639210710016"
    stroke="hsla(0,50%,50%,0.6)"
    stroke-width="1"
    transform="translate(-39.4406546761,-23.0671487255) scale(1,-1) translate(50,-110)"
    />
  
  <line
    x1="52.2187676723227"
    y1="29.959723021368625"
    x2="55.64334044314758"
    y2="41.788639210710016"
    stroke="hsla(0,50%,50%,0.6)"
    stroke-width="1"
    transform="translate(-39.4406546761,-23.0671487255) scale(1,-1) translate(50,-110)"
    />
  
  <line
    x1="59.72103728100633"
    y1="20.03928493482272"
    x2="62.45580421778716"
    y2="39.74305884069717"
    stroke="hsla(0,50%,50%,0.6)"
    stroke-width="1"
    transform="translate(-39.4406546761,-23.0671487255) scale(1,-1) translate(50,-110)"
    />
  
  <line
    x1="28.23768656252784"
    y1="14.856003412664556"
    x2="75.12450174451546"
    y2="49.87524974900846"
    stroke="hsla(0,50%,50%,0.6)"
    stroke-width="1"
    transform="translate(-39.4406546761,-23.0671487255) scale(1,-1) translate(50,-110)"
    />
  
  <line
    x1="50.51478099003023"
    y1="-0.25131731835835935"
    x2="51.455489552741504"
    y2="31.358214801167694"
    stroke="hsla(0,50%,50%,0.6)"
    stroke-width="1"
    transform="translate(-39.4406546761,-23.0671487255) scale(1,-1) translate(50,-110)"
    />
  
  <line
    x1="94.96055375314049"
    y1="-0.47244056593602235"
    x2="33.27814569536424"
    y2="-0.16556291390728478"
    stroke="hsla(0,50%,50%,0.6)"
    stroke-width="1"
    transform="translate(-39.4406546761,-23.0671487255) scale(1,-1) translate(50,-110)"
    />
  
  <line
    x1="32.83988038576303"
    y1="1.1405544939141306"
    x2="50.48029798078808"
    y2="1.4899039404038423"
    stroke="hsla(0,50%,50%,0.6)"
    stroke-width="1"
    transform="translate(-39.4406546761,-23.0671487255) scale(1,-1) translate(50,-110)"
    />
  
  <line
    x1="54.78549731937775"
    y1="16.268069761434536"
    x2="54.71516339723161"
    y2="20.683370085633907"
    stroke="hsla(0,50%,50%,0.6)"
    stroke-width="1"
    transform="translate(-39.4406546761,-23.0671487255) scale(1,-1) translate(50,-110)"
    />
  
  <line
    x1="50.51478099003023"
    y1="-0.25131731835835935"
    x2="50.48029798078808"
    y2="1.4899039404038423"
    stroke="hsla(0,50%,50%,0.6)"
    stroke-width="1"
    transform="translate(-39.4406546761,-23.0671487255) scale(1,-1) translate(50,-110)"
    />
  
  <line
    x1="26.752556498698365"
    y1="19.281985088037544"
    x2="51.455489552741504"
    y2="31.358214801167694"
    stroke="hsla(0,50%,50%,0.6)"
    stroke-width="1"
    transform="translate(-39.4406546761,-23.0671487255) scale(1,-1) translate(50,-110)"
    />
  
  <line
    x1="33.27814569536424"
    y1="-0.16556291390728478"
    x2="20.112508146630205"
    y2="39.07064403826048"
    stroke="hsla(0,50%,50%,0.6)"
    stroke-width="1"
    transform="translate(-39.4406546761,-23.0671487255) scale(1,-1) translate(50,-110)"
    />
  
  <line
    x1="54.754772816538726"
    y1="16.24459336124283"
    x2="52.12357237336123"
    y2="30.474554732679923"
    stroke="hsla(0,50%,50%,0.6)"
    stroke-width="1"
    transform="translate(-39.4406546761,-23.0671487255) scale(1,-1) translate(50,-110)"
    />
  
  <line
    x1="26.752556498698365"
    y1="19.281985088037544"
    x2="42.18790174097241"
    y2="22.295201186548237"
    stroke="hsla(0,50%,50%,0.6)"
    stroke-width="1"
    transform="translate(-39.4406546761,-23.0671487255) scale(1,-1) translate(50,-110)"
    />
  
  <line
    x1="28.23768656252784"
    y1="14.856003412664556"
    x2="53.13224067792724"
    y2="15.004826716050372"
    stroke="hsla(0,50%,50%,0.6)"
    stroke-width="1"
    transform="translate(-39.4406546761,-23.0671487255) scale(1,-1) translate(50,-110)"
    />
  
  <line
    x1="20.112508146630205"
    y1="39.07064403826048"
    x2="60.90501039249162"
    y2="68.91354248097646"
    stroke="hsla(0,50%,50%,0.6)"
    stroke-width="1"
    transform="translate(-39.4406546761,-23.0671487255) scale(1,-1) translate(50,-110)"
    />
  
  <line
    x1="59.72103728100633"
    y1="20.03928493482272"
    x2="42.18790174097241"
    y2="22.295201186548237"
    stroke="hsla(0,50%,50%,0.6)"
    stroke-width="1"
    transform="translate(-39.4406546761,-23.0671487255) scale(1,-1) translate(50,-110)"
    />
  
  <line
    x1="54.78549731937775"
    y1="16.268069761434536"
    x2="54.74844861418407"
    y2="16.278795679597263"
    stroke="hsla(0,50%,50%,0.6)"
    stroke-width="1"
    transform="translate(-39.4406546761,-23.0671487255) scale(1,-1) translate(50,-110)"
    />
  
  <line
    x1="54.754772816538726"
    y1="16.24459336124283"
    x2="42.18790174097241"
    y2="22.295201186548237"
    stroke="hsla(0,50%,50%,0.6)"
    stroke-width="1"
    transform="translate(-39.4406546761,-23.0671487255) scale(1,-1) translate(50,-110)"
    />
  
  <line
    x1="59.72103728100633"
    y1="20.03928493482272"
    x2="52.2187676723227"
    y2="29.959723021368625"
    stroke="hsla(0,50%,50%,0.6)"
    stroke-width="1"
    transform="translate(-39.4406546761,-23.0671487255) scale(1,-1) translate(50,-110)"
    />
  
  <line
    x1="59.81449082148899"
    y1="20.71261011204655"
    x2="52.12357237336123"
    y2="30.474554732679923"
    stroke="hsla(0,50%,50%,0.6)"
    stroke-width="1"
    transform="translate(-39.4406546761,-23.0671487255) scale(1,-1) translate(50,-110)"
    />
  
  <line
    x1="20.112508146630205"
    y1="39.07064403826048"
    x2="62.45580421778716"
    y2="39.74305884069717"
    stroke="hsla(0,50%,50%,0.6)"
    stroke-width="1"
    transform="translate(-39.4406546761,-23.0671487255) scale(1,-1) translate(50,-110)"
    />
  
  <line
    x1="94.96055375314049"
    y1="-0.47244056593602235"
    x2="51.455489552741504"
    y2="31.358214801167694"
    stroke="hsla(0,50%,50%,0.6)"
    stroke-width="1"
    transform="translate(-39.4406546761,-23.0671487255) scale(1,-1) translate(50,-110)"
    />
  
  <line
    x1="105.30752502494316"
    y1="6.941032678253763"
    x2="60.90501039249162"
    y2="68.91354248097646"
    stroke="hsla(0,50%,50%,0.6)"
    stroke-width="1"
    transform="translate(-39.4406546761,-23.0671487255) scale(1,-1) translate(50,-110)"
    />
  
  <line
    x1="62.45580421778716"
    y1="39.74305884069717"
    x2="55.64334044314758"
    y2="41.788639210710016"
    stroke="hsla(0,50%,50%,0.6)"
    stroke-width="1"
    transform="translate(-39.4406546761,-23.0671487255) scale(1,-1) translate(50,-110)"
    />
  
  <line
    x1="75.12450174451546"
    y1="49.87524974900846"
    x2="60.90501039249162"
    y2="68.91354248097646"
    stroke="hsla(0,50%,50%,0.6)"
    stroke-width="1"
    transform="translate(-39.4406546761,-23.0671487255) scale(1,-1) translate(50,-110)"
    />
  
</svg>
