<?xml version="1.0"?>
<!DOCTYPE svg PUBLIC "-//W3C//DTD SVG 1.1//EN"
  "http://www.w3.org/Graphics/SVG/1.1/DTD/svg11.dtd">
<svg
  width="240"
  height="240"
  viewBox="-50 -50 200 200" xmlns="http://www.w3.org/2000/svg" version="1.1">
  <rect
    x="0"
    y="0"
    width="100"
    height="100"
    fill="hsla(206,100%,53%,0.3)"
    stroke="hsl(206,100%,53%)"
    stroke-width="3"
    transform="" />
  
  <path
    d="M 
      8.2352941176
      -7.0588235294
      L
    
      53.8461538461
      0
      L
    
      90
      0
      L
    
      96.6666666666
      3.3333333333
      L
    
      96.2063227953
      6.5557404326
      L
    
      107.0588235294
      8.2352941176
      L
    
      50
      50
      L
    
      0
      0
      L
    
      13.4020618556
      0
      z
    "
    fill="hsla(0,0%,50%,0.3)"
    stroke="hsla(0,0%,50%,1)"
    stroke-width="1"
    transform="translate(-59.7517382505,-6.5670144604) scale(1,-1) translate(50,-110)"
    />
  
  <path
    d="M 
      94.2857142857
      5.7142857142
      L
    
      93.8144329896
      6.1855670103
      L
    
      94.7474747474
      6.3299663299
      z
    "
    fill="hsla(0,0%,50%,0.3)"
    stroke="hsla(0,0%,50%,1)"
    stroke-width="1"
    transform="translate(-59.7517382505,-6.5670144604) scale(1,-1) translate(50,-110)"
    />
  
  
  <line
    x1="90"
    y1="0"
    x2="96"
    y2="8"
    stroke="hsla(0,50%,50%,0.6)"
    stroke-width="1"
    transform="translate(-59.7517382505,-6.5670144604) scale(1,-1) translate(50,-110)"
    />
  
  <line
    x1="90"
    y1="0"
    x2="96.66666666666667"
    y2="3.3333333333333335"
    stroke="hsla(0,50%,50%,0.6)"
    stroke-width="1"
    transform="translate(-59.7517382505,-6.5670144604) scale(1,-1) translate(50,-110)"
    />
  
  <line
    x1="8.235294117647058"
    y1="-7.0588235294117645"
    x2="107.05882352941177"
    y2="8.235294117647058"
    stroke="hsla(0,50%,50%,0.6)"
    stroke-width="1"
    transform="translate(-59.7517382505,-6.5670144604) scale(1,-1) translate(50,-110)"
    />
  
  <line
    x1="8.235294117647058"
    y1="-7.0588235294117645"
    x2="50"
    y2="50"
    stroke="hsla(0,50%,50%,0.6)"
    stroke-width="1"
    transform="translate(-59.7517382505,-6.5670144604) scale(1,-1) translate(50,-110)"
    />
  
  <line
    x1="0"
    y1="0"
    x2="90"
    y2="0"
    stroke="hsla(0,50%,50%,0.6)"
    stroke-width="1"
    transform="translate(-59.7517382505,-6.5670144604) scale(1,-1) translate(50,-110)"
    />
  
  <line
    x1="0"
    y1="0"
    x2="50"
    y2="50"
    stroke="hsla(0,50%,50%,0.6)"
    stroke-width="1"
    transform="translate(-59.7517382505,-6.5670144604) scale(1,-1) translate(50,-110)"
    />
  
  <line
    x1="53.84615384615385"
    y1="0"
    x2="50"
    y2="50"
    stroke="hsla(0,50%,50%,0.6)"
    stroke-width="1"
    transform="translate(-59.7517382505,-6.5670144604) scale(1,-1) translate(50,-110)"
    />
  
  <line
    x1="96.66666666666667"
    y1="3.3333333333333335"
    x2="96"
    y2="8"
    stroke="hsla(0,50%,50%,0.6)"
    stroke-width="1"
    transform="translate(-59.7517382505,-6.5670144604) scale(1,-1) translate(50,-110)"
    />
  
  <line
    x1="96.66666666666667"
    y1="3.3333333333333335"
    x2="50"
    y2="50"
    stroke="hsla(0,50%,50%,0.6)"
    stroke-width="1"
    transform="translate(-59.7517382505,-6.5670144604) scale(1,-1) translate(50,-110)"
    />
  
  <line
    x1="107.05882352941177"
    y1="8.235294117647058"
    x2="50"
    y2="50"
    stroke="hsla(0,50%,50%,0.6)"
    stroke-width="1"
    transform="translate(-59.7517382505,-6.5670144604) scale(1,-1) translate(50,-110)"
    />
  
</svg>
