<?xml version="1.0"?>
<!DOCTYPE svg PUBLIC "-//W3C//DTD SVG 1.1//EN"
  "http://www.w3.org/Graphics/SVG/1.1/DTD/svg11.dtd">
<svg
  width="240"
  height="240"
  viewBox="-50 -50 200 200" xmlns="http://www.w3.org/2000/svg" version="1.1">
  <rect
    x="0"
    y="0"
    width="100"
    height="100"
    fill="hsla(206,100%,53%,0.3)"
    stroke="hsl(206,100%,53%)"
    stroke-width="3"
    transform="" />
  
  <path
    d="M 
      14142135623730950487987.5
      114.4736842105
      L
    
      14142135623730950488012.5
      114.4736842105
      L
    
      14142135623730950488012.5
      126.9736842105
      L
    
      14142135623730950488025
      139.4736842105
      L
    
      14142135623730950488025
      189.4736842105
      L
    
      14142135623730950487975
      189.4736842105
      L
    
      14142135623730950487975
      139.4736842105
      L
    
      14142135623730950487987.5
      126.9736842105
      z
    "
    fill="hsla(0,0%,50%,0.3)"
    stroke="hsla(0,0%,50%,1)"
    stroke-width="1"
    transform="translate(-14142135623730950487986.9140625,-142.0127467105) scale(1,-1) translate(50,-110)"
    />
  
  
  <line
    x1="1.414213562373095e+22"
    y1="114.47368421052632"
    x2="1.414213562373095e+22"
    y2="139.47368421052633"
    stroke="hsla(0,50%,50%,0.6)"
    stroke-width="1"
    transform="translate(-14142135623730950487986.9140625,-142.0127467105) scale(1,-1) translate(50,-110)"
    />
  
  <line
    x1="1.414213562373095e+22"
    y1="139.47368421052633"
    x2="1.414213562373095e+22"
    y2="189.47368421052633"
    stroke="hsla(0,50%,50%,0.6)"
    stroke-width="1"
    transform="translate(-14142135623730950487986.9140625,-142.0127467105) scale(1,-1) translate(50,-110)"
    />
  
  <line
    x1="1.414213562373095e+22"
    y1="114.47368421052632"
    x2="1.414213562373095e+22"
    y2="189.47368421052633"
    stroke="hsla(0,50%,50%,0.6)"
    stroke-width="1"
    transform="translate(-14142135623730950487986.9140625,-142.0127467105) scale(1,-1) translate(50,-110)"
    />
  
  <line
    x1="1.414213562373095e+22"
    y1="114.47368421052632"
    x2="1.414213562373095e+22"
    y2="189.47368421052633"
    stroke="hsla(0,50%,50%,0.6)"
    stroke-width="1"
    transform="translate(-14142135623730950487986.9140625,-142.0127467105) scale(1,-1) translate(50,-110)"
    />
  
  <line
    x1="1.414213562373095e+22"
    y1="114.47368421052632"
    x2="1.414213562373095e+22"
    y2="189.47368421052633"
    stroke="hsla(0,50%,50%,0.6)"
    stroke-width="1"
    transform="translate(-14142135623730950487986.9140625,-142.0127467105) scale(1,-1) translate(50,-110)"
    />
  
  <line
    x1="1.414213562373095e+22"
    y1="139.47368421052633"
    x2="1.414213562373095e+22"
    y2="189.47368421052633"
    stroke="hsla(0,50%,50%,0.6)"
    stroke-width="1"
    transform="translate(-14142135623730950487986.9140625,-142.0127467105) scale(1,-1) translate(50,-110)"
    />
  
  <line
    x1="1.414213562373095e+22"
    y1="114.47368421052632"
    x2="1.414213562373095e+22"
    y2="114.47368421052632"
    stroke="hsla(0,50%,50%,0.6)"
    stroke-width="1"
    transform="translate(-14142135623730950487986.9140625,-142.0127467105) scale(1,-1) translate(50,-110)"
    />
  
  <line
    x1="1.414213562373095e+22"
    y1="139.47368421052633"
    x2="1.414213562373095e+22"
    y2="139.47368421052633"
    stroke="hsla(0,50%,50%,0.6)"
    stroke-width="1"
    transform="translate(-14142135623730950487986.9140625,-142.0127467105) scale(1,-1) translate(50,-110)"
    />
  
  <line
    x1="1.414213562373095e+22"
    y1="189.47368421052633"
    x2="1.414213562373095e+22"
    y2="189.47368421052633"
    stroke="hsla(0,50%,50%,0.6)"
    stroke-width="1"
    transform="translate(-14142135623730950487986.9140625,-142.0127467105) scale(1,-1) translate(50,-110)"
    />
  
  <line
    x1="1.414213562373095e+22"
    y1="114.47368421052632"
    x2="1.414213562373095e+22"
    y2="139.47368421052633"
    stroke="hsla(0,50%,50%,0.6)"
    stroke-width="1"
    transform="translate(-14142135623730950487986.9140625,-142.0127467105) scale(1,-1) translate(50,-110)"
    />
  
</svg>
