<?xml version="1.0"?>
<!DOCTYPE svg PUBLIC "-//W3C//DTD SVG 1.1//EN"
  "http://www.w3.org/Graphics/SVG/1.1/DTD/svg11.dtd">
<svg
  width="240"
  height="240"
  viewBox="-50 -50 200 200" xmlns="http://www.w3.org/2000/svg" version="1.1">
  <rect
    x="0"
    y="0"
    width="100"
    height="100"
    fill="hsla(206,100%,53%,0.3)"
    stroke="hsl(206,100%,53%)"
    stroke-width="3"
    transform="" />
  
  <path
    d="M 
      -19.0476190476
      50
      L
    
      7.5
      50
      L
    
      30
      87.5
      L
    
      17.6470588235
      110.6617647058
      L
    
      39.9684873949
      122.5665266106
      L
    
      40.6059837728
      124.8605476673
      L
    
      -2.1341463414
      136.7378048780
      L
    
      -15.4411764705
      93.0147058823
      L
    
      -2.0299145299
      67.8685897435
      L
    
      -7.1428571428
      62.5
      L
    
      -9.375
      62.5
      L
    
      -20.6896551724
      51.7241379310
      z
    "
    fill="hsla(0,0%,50%,0.3)"
    stroke="hsla(0,0%,50%,1)"
    stroke-width="1"
    transform="translate(13.6927007354,-60.3892557106) scale(1,-1) translate(50,-110)"
    />
  
  
  <line
    x1="39.96848739495798"
    y1="122.56652661064426"
    x2="40.60598377281947"
    y2="124.8605476673428"
    stroke="hsla(0,50%,50%,0.6)"
    stroke-width="1"
    transform="translate(13.6927007354,-60.3892557106) scale(1,-1) translate(50,-110)"
    />
  
  <line
    x1="12.5"
    y1="58.333333333333336"
    x2="23.823529411764707"
    y2="99.08088235294117"
    stroke="hsla(0,50%,50%,0.6)"
    stroke-width="1"
    transform="translate(13.6927007354,-60.3892557106) scale(1,-1) translate(50,-110)"
    />
  
  <line
    x1="18.960084033613445"
    y1="111.36204481792717"
    x2="23.581932773109244"
    y2="127.99369747899159"
    stroke="hsla(0,50%,50%,0.6)"
    stroke-width="1"
    transform="translate(13.6927007354,-60.3892557106) scale(1,-1) translate(50,-110)"
    />
  
  <line
    x1="12.550709939148073"
    y1="102.81440162271805"
    x2="16.106442577030812"
    y2="113.55042016806723"
    stroke="hsla(0,50%,50%,0.6)"
    stroke-width="1"
    transform="translate(13.6927007354,-60.3892557106) scale(1,-1) translate(50,-110)"
    />
  
  <line
    x1="-7.885395537525355"
    y1="88.00709939148074"
    x2="5"
    y2="134.375"
    stroke="hsla(0,50%,50%,0.6)"
    stroke-width="1"
    transform="translate(13.6927007354,-60.3892557106) scale(1,-1) translate(50,-110)"
    />
  
  <line
    x1="7.5"
    y1="50"
    x2="30"
    y2="87.5"
    stroke="hsla(0,50%,50%,0.6)"
    stroke-width="1"
    transform="translate(13.6927007354,-60.3892557106) scale(1,-1) translate(50,-110)"
    />
  
  <line
    x1="-15.441176470588236"
    y1="93.01470588235294"
    x2="-2.1341463414634148"
    y2="136.7378048780488"
    stroke="hsla(0,50%,50%,0.6)"
    stroke-width="1"
    transform="translate(13.6927007354,-60.3892557106) scale(1,-1) translate(50,-110)"
    />
  
  <line
    x1="7.5"
    y1="50"
    x2="-15.441176470588236"
    y2="93.01470588235294"
    stroke="hsla(0,50%,50%,0.6)"
    stroke-width="1"
    transform="translate(13.6927007354,-60.3892557106) scale(1,-1) translate(50,-110)"
    />
  
  <line
    x1="-19.047619047619047"
    y1="50"
    x2="-20.689655172413794"
    y2="51.724137931034484"
    stroke="hsla(0,50%,50%,0.6)"
    stroke-width="1"
    transform="translate(13.6927007354,-60.3892557106) scale(1,-1) translate(50,-110)"
    />
  
  <line
    x1="15"
    y1="62.5"
    x2="-10.294117647058824"
    y2="109.92647058823529"
    stroke="hsla(0,50%,50%,0.6)"
    stroke-width="1"
    transform="translate(13.6927007354,-60.3892557106) scale(1,-1) translate(50,-110)"
    />
  
  <line
    x1="3.75"
    y1="50"
    x2="12.5"
    y2="58.333333333333336"
    stroke="hsla(0,50%,50%,0.6)"
    stroke-width="1"
    transform="translate(13.6927007354,-60.3892557106) scale(1,-1) translate(50,-110)"
    />
  
  <line
    x1="3.75"
    y1="50"
    x2="-9.375"
    y2="62.5"
    stroke="hsla(0,50%,50%,0.6)"
    stroke-width="1"
    transform="translate(13.6927007354,-60.3892557106) scale(1,-1) translate(50,-110)"
    />
  
  <line
    x1="30"
    y1="87.5"
    x2="5"
    y2="134.375"
    stroke="hsla(0,50%,50%,0.6)"
    stroke-width="1"
    transform="translate(13.6927007354,-60.3892557106) scale(1,-1) translate(50,-110)"
    />
  
  <line
    x1="-19.047619047619047"
    y1="50"
    x2="16.666666666666668"
    y2="87.5"
    stroke="hsla(0,50%,50%,0.6)"
    stroke-width="1"
    transform="translate(13.6927007354,-60.3892557106) scale(1,-1) translate(50,-110)"
    />
  
  <line
    x1="-20.689655172413794"
    y1="51.724137931034484"
    x2="-9.375"
    y2="62.5"
    stroke="hsla(0,50%,50%,0.6)"
    stroke-width="1"
    transform="translate(13.6927007354,-60.3892557106) scale(1,-1) translate(50,-110)"
    />
  
  <line
    x1="24.846625766871167"
    y1="78.91104294478528"
    x2="16.666666666666668"
    y2="87.5"
    stroke="hsla(0,50%,50%,0.6)"
    stroke-width="1"
    transform="translate(13.6927007354,-60.3892557106) scale(1,-1) translate(50,-110)"
    />
  
  <line
    x1="-19.047619047619047"
    y1="50"
    x2="7.5"
    y2="50"
    stroke="hsla(0,50%,50%,0.6)"
    stroke-width="1"
    transform="translate(13.6927007354,-60.3892557106) scale(1,-1) translate(50,-110)"
    />
  
  <line
    x1="-9.375"
    y1="62.5"
    x2="15"
    y2="62.5"
    stroke="hsla(0,50%,50%,0.6)"
    stroke-width="1"
    transform="translate(13.6927007354,-60.3892557106) scale(1,-1) translate(50,-110)"
    />
  
  <line
    x1="-15.441176470588236"
    y1="93.01470588235294"
    x2="39.96848739495798"
    y2="122.56652661064426"
    stroke="hsla(0,50%,50%,0.6)"
    stroke-width="1"
    transform="translate(13.6927007354,-60.3892557106) scale(1,-1) translate(50,-110)"
    />
  
  <line
    x1="24.846625766871167"
    y1="78.91104294478528"
    x2="-7.885395537525355"
    y2="88.00709939148074"
    stroke="hsla(0,50%,50%,0.6)"
    stroke-width="1"
    transform="translate(13.6927007354,-60.3892557106) scale(1,-1) translate(50,-110)"
    />
  
  <line
    x1="16.666666666666668"
    y1="87.5"
    x2="30"
    y2="87.5"
    stroke="hsla(0,50%,50%,0.6)"
    stroke-width="1"
    transform="translate(13.6927007354,-60.3892557106) scale(1,-1) translate(50,-110)"
    />
  
  <line
    x1="-10.294117647058824"
    y1="109.92647058823529"
    x2="23.581932773109244"
    y2="127.99369747899159"
    stroke="hsla(0,50%,50%,0.6)"
    stroke-width="1"
    transform="translate(13.6927007354,-60.3892557106) scale(1,-1) translate(50,-110)"
    />
  
  <line
    x1="23.823529411764707"
    y1="99.08088235294117"
    x2="12.550709939148073"
    y2="102.81440162271805"
    stroke="hsla(0,50%,50%,0.6)"
    stroke-width="1"
    transform="translate(13.6927007354,-60.3892557106) scale(1,-1) translate(50,-110)"
    />
  
  <line
    x1="18.960084033613445"
    y1="111.36204481792717"
    x2="-7.218436154949785"
    y2="120.03228120516499"
    stroke="hsla(0,50%,50%,0.6)"
    stroke-width="1"
    transform="translate(13.6927007354,-60.3892557106) scale(1,-1) translate(50,-110)"
    />
  
  <line
    x1="16.106442577030812"
    y1="113.55042016806723"
    x2="-7.218436154949785"
    y2="120.03228120516499"
    stroke="hsla(0,50%,50%,0.6)"
    stroke-width="1"
    transform="translate(13.6927007354,-60.3892557106) scale(1,-1) translate(50,-110)"
    />
  
  <line
    x1="39.96848739495798"
    y1="122.56652661064426"
    x2="23.581932773109244"
    y2="127.99369747899159"
    stroke="hsla(0,50%,50%,0.6)"
    stroke-width="1"
    transform="translate(13.6927007354,-60.3892557106) scale(1,-1) translate(50,-110)"
    />
  
  <line
    x1="5"
    y1="134.375"
    x2="-2.1341463414634148"
    y2="136.7378048780488"
    stroke="hsla(0,50%,50%,0.6)"
    stroke-width="1"
    transform="translate(13.6927007354,-60.3892557106) scale(1,-1) translate(50,-110)"
    />
  
  <line
    x1="40.60598377281947"
    y1="124.8605476673428"
    x2="-2.1341463414634148"
    y2="136.7378048780488"
    stroke="hsla(0,50%,50%,0.6)"
    stroke-width="1"
    transform="translate(13.6927007354,-60.3892557106) scale(1,-1) translate(50,-110)"
    />
  
</svg>
