<?xml version="1.0"?>
<!DOCTYPE svg PUBLIC "-//W3C//DTD SVG 1.1//EN"
  "http://www.w3.org/Graphics/SVG/1.1/DTD/svg11.dtd">
<svg
  width="240"
  height="240"
  viewBox="-50 -50 200 200" xmlns="http://www.w3.org/2000/svg" version="1.1">
  <rect
    x="0"
    y="0"
    width="100"
    height="100"
    fill="hsla(206,100%,53%,0.3)"
    stroke="hsl(206,100%,53%)"
    stroke-width="3"
    transform="" />
  
  <path
    d="M 
      60.6879939847
      5.1745995663
      L
    
      98.7647182506
      27.9331370899
      L
    
      76.2804259634
      67.7231237322
      L
    
      48.8220232832
      75.3536693191
      L
    
      48.4605911330
      82.7586206896
      L
    
      50
      84.375
      L
    
      50
      100
      L
    
      47.6190476190
      100
      L
    
      29.3103448275
      80.7758620689
      L
    
      40.9482758620
      38.6206896551
      L
    
      66.2398580121
      31.5922920892
      L
    
      59.4664589973
      7.2183183618
      z
    "
    fill="hsla(0,0%,50%,0.3)"
    stroke="hsla(0,0%,50%,1)"
    stroke-width="1"
    transform="translate(-56.3406003457,-27.2827422244) scale(1,-1) translate(50,-110)"
    />
  
  
  <line
    x1="60.68799398475205"
    y1="5.174599566342589"
    x2="98.76471825063078"
    y2="27.93313708999159"
    stroke="hsla(0,50%,50%,0.6)"
    stroke-width="1"
    transform="translate(-56.3406003457,-27.2827422244) scale(1,-1) translate(50,-110)"
    />
  
  <line
    x1="92.13362068965517"
    y1="24.396551724137932"
    x2="98.76471825063078"
    y2="27.93313708999159"
    stroke="hsla(0,50%,50%,0.6)"
    stroke-width="1"
    transform="translate(-56.3406003457,-27.2827422244) scale(1,-1) translate(50,-110)"
    />
  
  <line
    x1="59.46645899739206"
    y1="7.21831836182749"
    x2="74.69755143436684"
    y2="15.341567661547378"
    stroke="hsla(0,50%,50%,0.6)"
    stroke-width="1"
    transform="translate(-56.3406003457,-27.2827422244) scale(1,-1) translate(50,-110)"
    />
  
  <line
    x1="74.69755143436684"
    y1="15.341567661547378"
    x2="84.97718052738337"
    y2="52.33265720081136"
    stroke="hsla(0,50%,50%,0.6)"
    stroke-width="1"
    transform="translate(-56.3406003457,-27.2827422244) scale(1,-1) translate(50,-110)"
    />
  
  <line
    x1="59.46645899739206"
    y1="7.21831836182749"
    x2="76.28042596348884"
    y2="67.72312373225152"
    stroke="hsla(0,50%,50%,0.6)"
    stroke-width="1"
    transform="translate(-56.3406003457,-27.2827422244) scale(1,-1) translate(50,-110)"
    />
  
  <line
    x1="69.39413696513088"
    y1="30.715734569689946"
    x2="90.17402166922278"
    y2="43.135915005194676"
    stroke="hsla(0,50%,50%,0.6)"
    stroke-width="1"
    transform="translate(-56.3406003457,-27.2827422244) scale(1,-1) translate(50,-110)"
    />
  
  <line
    x1="65.84142277600695"
    y1="30.158528928812906"
    x2="90.17402166922278"
    y2="43.135915005194676"
    stroke="hsla(0,50%,50%,0.6)"
    stroke-width="1"
    transform="translate(-56.3406003457,-27.2827422244) scale(1,-1) translate(50,-110)"
    />
  
  <line
    x1="40.94827586206897"
    y1="38.62068965517241"
    x2="50.14367816091954"
    y2="48.275862068965516"
    stroke="hsla(0,50%,50%,0.6)"
    stroke-width="1"
    transform="translate(-56.3406003457,-27.2827422244) scale(1,-1) translate(50,-110)"
    />
  
  <line
    x1="31.896551724137932"
    y1="71.4080459770115"
    x2="31.896551724137932"
    y2="83.49137931034483"
    stroke="hsla(0,50%,50%,0.6)"
    stroke-width="1"
    transform="translate(-56.3406003457,-27.2827422244) scale(1,-1) translate(50,-110)"
    />
  
  <line
    x1="50"
    y1="84.375"
    x2="50"
    y2="100"
    stroke="hsla(0,50%,50%,0.6)"
    stroke-width="1"
    transform="translate(-56.3406003457,-27.2827422244) scale(1,-1) translate(50,-110)"
    />
  
  <line
    x1="50.14367816091954"
    y1="48.275862068965516"
    x2="47.61904761904762"
    y2="100"
    stroke="hsla(0,50%,50%,0.6)"
    stroke-width="1"
    transform="translate(-56.3406003457,-27.2827422244) scale(1,-1) translate(50,-110)"
    />
  
  <line
    x1="53.59406693711968"
    y1="35.106490872210955"
    x2="64.07200811359026"
    y2="40.6947261663286"
    stroke="hsla(0,50%,50%,0.6)"
    stroke-width="1"
    transform="translate(-56.3406003457,-27.2827422244) scale(1,-1) translate(50,-110)"
    />
  
  <line
    x1="40.94827586206897"
    y1="38.62068965517241"
    x2="29.310344827586206"
    y2="80.77586206896552"
    stroke="hsla(0,50%,50%,0.6)"
    stroke-width="1"
    transform="translate(-56.3406003457,-27.2827422244) scale(1,-1) translate(50,-110)"
    />
  
  <line
    x1="33.189655172413794"
    y1="66.72413793103448"
    x2="50"
    y2="84.375"
    stroke="hsla(0,50%,50%,0.6)"
    stroke-width="1"
    transform="translate(-56.3406003457,-27.2827422244) scale(1,-1) translate(50,-110)"
    />
  
  <line
    x1="38.282737465623015"
    y1="48.275862068965516"
    x2="67.44334475764147"
    y2="65.70521787787648"
    stroke="hsla(0,50%,50%,0.6)"
    stroke-width="1"
    transform="translate(-56.3406003457,-27.2827422244) scale(1,-1) translate(50,-110)"
    />
  
  <line
    x1="29.310344827586206"
    y1="80.77586206896552"
    x2="47.61904761904762"
    y2="100"
    stroke="hsla(0,50%,50%,0.6)"
    stroke-width="1"
    transform="translate(-56.3406003457,-27.2827422244) scale(1,-1) translate(50,-110)"
    />
  
  <line
    x1="60.68799398475205"
    y1="5.174599566342589"
    x2="59.46645899739206"
    y2="7.21831836182749"
    stroke="hsla(0,50%,50%,0.6)"
    stroke-width="1"
    transform="translate(-56.3406003457,-27.2827422244) scale(1,-1) translate(50,-110)"
    />
  
  <line
    x1="53.59406693711968"
    y1="35.106490872210955"
    x2="31.896551724137932"
    y2="71.4080459770115"
    stroke="hsla(0,50%,50%,0.6)"
    stroke-width="1"
    transform="translate(-56.3406003457,-27.2827422244) scale(1,-1) translate(50,-110)"
    />
  
  <line
    x1="69.39413696513088"
    y1="30.715734569689946"
    x2="64.07200811359026"
    y2="40.6947261663286"
    stroke="hsla(0,50%,50%,0.6)"
    stroke-width="1"
    transform="translate(-56.3406003457,-27.2827422244) scale(1,-1) translate(50,-110)"
    />
  
  <line
    x1="74.69755143436684"
    y1="15.341567661547378"
    x2="65.84142277600695"
    y2="30.158528928812906"
    stroke="hsla(0,50%,50%,0.6)"
    stroke-width="1"
    transform="translate(-56.3406003457,-27.2827422244) scale(1,-1) translate(50,-110)"
    />
  
  <line
    x1="92.13362068965517"
    y1="24.396551724137932"
    x2="40.94827586206897"
    y2="38.62068965517241"
    stroke="hsla(0,50%,50%,0.6)"
    stroke-width="1"
    transform="translate(-56.3406003457,-27.2827422244) scale(1,-1) translate(50,-110)"
    />
  
  <line
    x1="92.13362068965517"
    y1="24.396551724137932"
    x2="67.44334475764147"
    y2="65.70521787787648"
    stroke="hsla(0,50%,50%,0.6)"
    stroke-width="1"
    transform="translate(-56.3406003457,-27.2827422244) scale(1,-1) translate(50,-110)"
    />
  
  <line
    x1="38.282737465623015"
    y1="48.275862068965516"
    x2="50.14367816091954"
    y2="48.275862068965516"
    stroke="hsla(0,50%,50%,0.6)"
    stroke-width="1"
    transform="translate(-56.3406003457,-27.2827422244) scale(1,-1) translate(50,-110)"
    />
  
  <line
    x1="98.76471825063078"
    y1="27.93313708999159"
    x2="76.28042596348884"
    y2="67.72312373225152"
    stroke="hsla(0,50%,50%,0.6)"
    stroke-width="1"
    transform="translate(-56.3406003457,-27.2827422244) scale(1,-1) translate(50,-110)"
    />
  
  <line
    x1="84.97718052738337"
    y1="52.33265720081136"
    x2="33.189655172413794"
    y2="66.72413793103448"
    stroke="hsla(0,50%,50%,0.6)"
    stroke-width="1"
    transform="translate(-56.3406003457,-27.2827422244) scale(1,-1) translate(50,-110)"
    />
  
  <line
    x1="31.896551724137932"
    y1="83.49137931034483"
    x2="50"
    y2="84.375"
    stroke="hsla(0,50%,50%,0.6)"
    stroke-width="1"
    transform="translate(-56.3406003457,-27.2827422244) scale(1,-1) translate(50,-110)"
    />
  
  <line
    x1="76.28042596348884"
    y1="67.72312373225152"
    x2="29.310344827586206"
    y2="80.77586206896552"
    stroke="hsla(0,50%,50%,0.6)"
    stroke-width="1"
    transform="translate(-56.3406003457,-27.2827422244) scale(1,-1) translate(50,-110)"
    />
  
  <line
    x1="47.61904761904762"
    y1="100"
    x2="50"
    y2="100"
    stroke="hsla(0,50%,50%,0.6)"
    stroke-width="1"
    transform="translate(-56.3406003457,-27.2827422244) scale(1,-1) translate(50,-110)"
    />
  
</svg>
