<?xml version="1.0"?>
<!DOCTYPE svg PUBLIC "-//W3C//DTD SVG 1.1//EN"
  "http://www.w3.org/Graphics/SVG/1.1/DTD/svg11.dtd">
<svg
  width="240"
  height="240"
  viewBox="-500 -500 1000 1000" xmlns="http://www.w3.org/2000/svg" version="1.1">
  <rect
    x="0"
    y="0"
    width="100"
    height="100"
    fill="hsla(206,100%,53%,0.3)"
    stroke="hsl(206,100%,53%)"
    stroke-width="3"
    transform="" />
  
  <path
    d="M 
      19.6359324586
      74.1737835298
      L
    
      31.3744519361
      77.4915476588
      L
    
      65.2968988792
      109.7543619460
      L
    
      72.3076923076
      121.5384615384
      L
    
      48.1778203222
      100.6990266419
      L
    
      33.4000497717
      92.8821533835
      L
    
      18.0116964262
      99.3753104548
      L
    
      18.9237006156
      85.2247204702
      L
    
      14.9126926542
      83.1030512532
      z
    "
    fill="hsla(0,0%,50%,0.3)"
    stroke="hsla(0,0%,50%,1)"
    stroke-width="1"
    transform="translate(-43.6101924809,-97.8561225341)"
    />
  
  
  <line
    x1="31.37445193613758"
    y1="77.4915476588208"
    x2="35.51839464882943"
    y2="89.76588628762542"
    stroke="hsla(0,50%,50%,0.6)"
    stroke-width="1"
    transform="translate(-43.6101924809,-97.8561225341)"
    />
  
  <line
    x1="65.29689887926642"
    y1="109.75436194600101"
    x2="72.3076923076923"
    y2="121.53846153846153"
    stroke="hsla(0,50%,50%,0.6)"
    stroke-width="1"
    transform="translate(-43.6101924809,-97.8561225341)"
    />
  
  <line
    x1="32.88789399900511"
    y1="78.93094559761226"
    x2="38.46153846153846"
    y2="92.3076923076923"
    stroke="hsla(0,50%,50%,0.6)"
    stroke-width="1"
    transform="translate(-43.6101924809,-97.8561225341)"
    />
  
  <line
    x1="19.635932458697248"
    y1="74.1737835298454"
    x2="18.01169642628828"
    y2="99.37531045485215"
    stroke="hsla(0,50%,50%,0.6)"
    stroke-width="1"
    transform="translate(-43.6101924809,-97.8561225341)"
    />
  
  <line
    x1="37.12250712250712"
    y1="90.05698005698005"
    x2="38.46153846153846"
    y2="92.3076923076923"
    stroke="hsla(0,50%,50%,0.6)"
    stroke-width="1"
    transform="translate(-43.6101924809,-97.8561225341)"
    />
  
  <line
    x1="54.611588916559434"
    y1="99.59182350926243"
    x2="72.3076923076923"
    y2="121.53846153846153"
    stroke="hsla(0,50%,50%,0.6)"
    stroke-width="1"
    transform="translate(-43.6101924809,-97.8561225341)"
    />
  
  <line
    x1="46.34615384615385"
    y1="91.73076923076923"
    x2="72.3076923076923"
    y2="121.53846153846153"
    stroke="hsla(0,50%,50%,0.6)"
    stroke-width="1"
    transform="translate(-43.6101924809,-97.8561225341)"
    />
  
  <line
    x1="43.20619012064146"
    y1="88.74442609595572"
    x2="41.08430315072381"
    y2="94.5728072665342"
    stroke="hsla(0,50%,50%,0.6)"
    stroke-width="1"
    transform="translate(-43.6101924809,-97.8561225341)"
    />
  
  <line
    x1="19.635932458697248"
    y1="74.1737835298454"
    x2="14.912692654285454"
    y2="83.10305125326767"
    stroke="hsla(0,50%,50%,0.6)"
    stroke-width="1"
    transform="translate(-43.6101924809,-97.8561225341)"
    />
  
  <line
    x1="31.37445193613758"
    y1="77.4915476588208"
    x2="65.29689887926642"
    y2="109.75436194600101"
    stroke="hsla(0,50%,50%,0.6)"
    stroke-width="1"
    transform="translate(-43.6101924809,-97.8561225341)"
    />
  
  <line
    x1="35.51839464882943"
    y1="89.76588628762542"
    x2="72.3076923076923"
    y2="121.53846153846153"
    stroke="hsla(0,50%,50%,0.6)"
    stroke-width="1"
    transform="translate(-43.6101924809,-97.8561225341)"
    />
  
  <line
    x1="39.56459993844067"
    y1="85.2809982378377"
    x2="36.46496584682967"
    y2="90.58337959498925"
    stroke="hsla(0,50%,50%,0.6)"
    stroke-width="1"
    transform="translate(-43.6101924809,-97.8561225341)"
    />
  
  <line
    x1="19.635932458697248"
    y1="74.1737835298454"
    x2="54.611588916559434"
    y2="99.59182350926243"
    stroke="hsla(0,50%,50%,0.6)"
    stroke-width="1"
    transform="translate(-43.6101924809,-97.8561225341)"
    />
  
  <line
    x1="14.912692654285454"
    y1="83.10305125326767"
    x2="65.29689887926642"
    y2="109.75436194600101"
    stroke="hsla(0,50%,50%,0.6)"
    stroke-width="1"
    transform="translate(-43.6101924809,-97.8561225341)"
    />
  
  <line
    x1="19.635932458697248"
    y1="74.1737835298454"
    x2="32.88789399900511"
    y2="78.93094559761226"
    stroke="hsla(0,50%,50%,0.6)"
    stroke-width="1"
    transform="translate(-43.6101924809,-97.8561225341)"
    />
  
  <line
    x1="19.635932458697248"
    y1="74.1737835298454"
    x2="31.37445193613758"
    y2="77.4915476588208"
    stroke="hsla(0,50%,50%,0.6)"
    stroke-width="1"
    transform="translate(-43.6101924809,-97.8561225341)"
    />
  
  <line
    x1="37.12250712250712"
    y1="90.05698005698005"
    x2="36.46496584682967"
    y2="90.58337959498925"
    stroke="hsla(0,50%,50%,0.6)"
    stroke-width="1"
    transform="translate(-43.6101924809,-97.8561225341)"
    />
  
  <line
    x1="39.56459993844067"
    y1="85.2809982378377"
    x2="18.01169642628828"
    y2="99.37531045485215"
    stroke="hsla(0,50%,50%,0.6)"
    stroke-width="1"
    transform="translate(-43.6101924809,-97.8561225341)"
    />
  
  <line
    x1="35.51839464882943"
    y1="89.76588628762542"
    x2="46.34615384615385"
    y2="91.73076923076923"
    stroke="hsla(0,50%,50%,0.6)"
    stroke-width="1"
    transform="translate(-43.6101924809,-97.8561225341)"
    />
  
  <line
    x1="46.34615384615385"
    y1="91.73076923076923"
    x2="41.08430315072381"
    y2="94.5728072665342"
    stroke="hsla(0,50%,50%,0.6)"
    stroke-width="1"
    transform="translate(-43.6101924809,-97.8561225341)"
    />
  
  <line
    x1="43.20619012064146"
    y1="88.74442609595572"
    x2="18.01169642628828"
    y2="99.37531045485215"
    stroke="hsla(0,50%,50%,0.6)"
    stroke-width="1"
    transform="translate(-43.6101924809,-97.8561225341)"
    />
  
</svg>
