<?xml version="1.0"?>
<!DOCTYPE svg PUBLIC "-//W3C//DTD SVG 1.1//EN"
  "http://www.w3.org/Graphics/SVG/1.1/DTD/svg11.dtd">
<svg
  width="240"
  height="240"
  viewBox="-50 -50 200 200" xmlns="http://www.w3.org/2000/svg" version="1.1">
  <rect
    x="0"
    y="0"
    width="100"
    height="100"
    fill="hsla(206,100%,53%,0.3)"
    stroke="hsl(206,100%,53%)"
    stroke-width="3"
    transform="" />
  
  <path
    d="M 
      105.0325192206
      4.7287454246
      L
    
      109.3576582637
      74.1520128350
      L
    
      85.1670767923
      82.7166533812
      L
    
      67.5944691422
      100
      L
    
      36.3507601907
      100
      L
    
      11.3261140770
      108.8599399320
      L
    
      10.2264574085
      107.3141669879
      L
    
      11.1872288309
      106.6306780541
      L
    
      10.7741309517
      100
      L
    
      100
      5.0422764090
      z
    "
    fill="hsla(0,0%,50%,0.3)"
    stroke="hsla(0,0%,50%,1)"
    stroke-width="1"
    transform="translate(-56.9325081220,-53.7799074291) scale(1,-1) translate(50,-110)"
    />
  
  
  <line
    x1="91.71102525596842"
    y1="49.34637245752135"
    x2="109.3576582637473"
    y2="74.15201283503711"
    stroke="hsla(0,50%,50%,0.6)"
    stroke-width="1"
    transform="translate(-56.9325081220,-53.7799074291) scale(1,-1) translate(50,-110)"
    />
  
  <line
    x1="105.03251922069312"
    y1="4.728745424675427"
    x2="109.3576582637473"
    y2="74.15201283503711"
    stroke="hsla(0,50%,50%,0.6)"
    stroke-width="1"
    transform="translate(-56.9325081220,-53.7799074291) scale(1,-1) translate(50,-110)"
    />
  
  <line
    x1="10.774130951718215"
    y1="100"
    x2="11.32611407709943"
    y2="108.85993993207848"
    stroke="hsla(0,50%,50%,0.6)"
    stroke-width="1"
    transform="translate(-56.9325081220,-53.7799074291) scale(1,-1) translate(50,-110)"
    />
  
  <line
    x1="100"
    y1="5.0422764090020395"
    x2="100"
    y2="68.12789351851852"
    stroke="hsla(0,50%,50%,0.6)"
    stroke-width="1"
    transform="translate(-56.9325081220,-53.7799074291) scale(1,-1) translate(50,-110)"
    />
  
  <line
    x1="68.13228323792717"
    y1="67.59893232977532"
    x2="67.59446914225941"
    y2="100"
    stroke="hsla(0,50%,50%,0.6)"
    stroke-width="1"
    transform="translate(-56.9325081220,-53.7799074291) scale(1,-1) translate(50,-110)"
    />
  
  <line
    x1="105.03251922069312"
    y1="4.728745424675427"
    x2="100"
    y2="5.0422764090020395"
    stroke="hsla(0,50%,50%,0.6)"
    stroke-width="1"
    transform="translate(-56.9325081220,-53.7799074291) scale(1,-1) translate(50,-110)"
    />
  
  <line
    x1="10.22645740858529"
    y1="107.31416698797779"
    x2="11.32611407709943"
    y2="108.85993993207848"
    stroke="hsla(0,50%,50%,0.6)"
    stroke-width="1"
    transform="translate(-56.9325081220,-53.7799074291) scale(1,-1) translate(50,-110)"
    />
  
  <line
    x1="100"
    y1="5.0422764090020395"
    x2="10.774130951718215"
    y2="100"
    stroke="hsla(0,50%,50%,0.6)"
    stroke-width="1"
    transform="translate(-56.9325081220,-53.7799074291) scale(1,-1) translate(50,-110)"
    />
  
  <line
    x1="68.13228323792717"
    y1="67.59893232977532"
    x2="100"
    y2="68.12789351851852"
    stroke="hsla(0,50%,50%,0.6)"
    stroke-width="1"
    transform="translate(-56.9325081220,-53.7799074291) scale(1,-1) translate(50,-110)"
    />
  
  <line
    x1="91.71102525596842"
    y1="49.34637245752135"
    x2="10.22645740858529"
    y2="107.31416698797779"
    stroke="hsla(0,50%,50%,0.6)"
    stroke-width="1"
    transform="translate(-56.9325081220,-53.7799074291) scale(1,-1) translate(50,-110)"
    />
  
  <line
    x1="100"
    y1="68.12789351851852"
    x2="67.59446914225941"
    y2="100"
    stroke="hsla(0,50%,50%,0.6)"
    stroke-width="1"
    transform="translate(-56.9325081220,-53.7799074291) scale(1,-1) translate(50,-110)"
    />
  
  <line
    x1="10.774130951718215"
    y1="100"
    x2="67.59446914225941"
    y2="100"
    stroke="hsla(0,50%,50%,0.6)"
    stroke-width="1"
    transform="translate(-56.9325081220,-53.7799074291) scale(1,-1) translate(50,-110)"
    />
  
  <line
    x1="109.3576582637473"
    y1="74.15201283503711"
    x2="11.32611407709943"
    y2="108.85993993207848"
    stroke="hsla(0,50%,50%,0.6)"
    stroke-width="1"
    transform="translate(-56.9325081220,-53.7799074291) scale(1,-1) translate(50,-110)"
    />
  
</svg>
