<?xml version="1.0"?>
<!DOCTYPE svg PUBLIC "-//W3C//DTD SVG 1.1//EN"
  "http://www.w3.org/Graphics/SVG/1.1/DTD/svg11.dtd">
<svg
  width="240"
  height="240"
  viewBox="-500 -500 1000 1000" xmlns="http://www.w3.org/2000/svg" version="1.1">
  <rect
    x="0"
    y="0"
    width="100"
    height="100"
    fill="hsla(206,100%,53%,0.3)"
    stroke="hsl(206,100%,53%)"
    stroke-width="3"
    transform="" />
  
  <path
    d="M 
      35.7647058823
      34.9411764705
      L
    
      18.2941176470
      52.8235294117
      L
    
      36.1764705882
      70.2941176470
      L
    
      36.5882352941
      105.6470588235
      L
    
      18.7058823529
      88.1764705882
      L
    
      1.2352941176
      106.0588235294
      L
    
      -34.1176470588
      106.4705882352
      L
    
      -16.6470588235
      88.5882352941
      L
    
      -34.5294117647
      71.1176470588
      L
    
      -34.9411764705
      35.7647058823
      L
    
      -17.0588235294
      53.2352941176
      L
    
      0.4117647058
      35.3529411764
      z
    "
    fill="hsla(0,0%,50%,0.3)"
    stroke="hsla(0,0%,50%,1)"
    stroke-width="1"
    transform="translate(-0.8235294117,-70.7058823529)"
    />
  
  
  <line
    x1="36.1764705882353"
    y1="70.29411764705883"
    x2="36.588235294117645"
    y2="105.6470588235294"
    stroke="hsla(0,50%,50%,0.6)"
    stroke-width="1"
    transform="translate(-0.8235294117,-70.7058823529)"
    />
  
  <line
    x1="0.4117647058823529"
    y1="35.35294117647059"
    x2="1.2352941176470589"
    y2="106.05882352941177"
    stroke="hsla(0,50%,50%,0.6)"
    stroke-width="1"
    transform="translate(-0.8235294117,-70.7058823529)"
    />
  
  <line
    x1="-34.94117647058823"
    y1="35.76470588235294"
    x2="-34.529411764705884"
    y2="71.11764705882354"
    stroke="hsla(0,50%,50%,0.6)"
    stroke-width="1"
    transform="translate(-0.8235294117,-70.7058823529)"
    />
  
  <line
    x1="0.4117647058823529"
    y1="35.35294117647059"
    x2="-34.529411764705884"
    y2="71.11764705882354"
    stroke="hsla(0,50%,50%,0.6)"
    stroke-width="1"
    transform="translate(-0.8235294117,-70.7058823529)"
    />
  
  <line
    x1="0.4117647058823529"
    y1="35.35294117647059"
    x2="36.1764705882353"
    y2="70.29411764705883"
    stroke="hsla(0,50%,50%,0.6)"
    stroke-width="1"
    transform="translate(-0.8235294117,-70.7058823529)"
    />
  
  <line
    x1="35.76470588235294"
    y1="34.94117647058823"
    x2="-34.11764705882353"
    y2="106.47058823529412"
    stroke="hsla(0,50%,50%,0.6)"
    stroke-width="1"
    transform="translate(-0.8235294117,-70.7058823529)"
    />
  
  <line
    x1="35.76470588235294"
    y1="34.94117647058823"
    x2="0.4117647058823529"
    y2="35.35294117647059"
    stroke="hsla(0,50%,50%,0.6)"
    stroke-width="1"
    transform="translate(-0.8235294117,-70.7058823529)"
    />
  
  <line
    x1="-34.94117647058823"
    y1="35.76470588235294"
    x2="36.588235294117645"
    y2="105.6470588235294"
    stroke="hsla(0,50%,50%,0.6)"
    stroke-width="1"
    transform="translate(-0.8235294117,-70.7058823529)"
    />
  
  <line
    x1="36.1764705882353"
    y1="70.29411764705883"
    x2="1.2352941176470589"
    y2="106.05882352941177"
    stroke="hsla(0,50%,50%,0.6)"
    stroke-width="1"
    transform="translate(-0.8235294117,-70.7058823529)"
    />
  
  <line
    x1="-34.529411764705884"
    y1="71.11764705882354"
    x2="1.2352941176470589"
    y2="106.05882352941177"
    stroke="hsla(0,50%,50%,0.6)"
    stroke-width="1"
    transform="translate(-0.8235294117,-70.7058823529)"
    />
  
  <line
    x1="36.1764705882353"
    y1="70.29411764705883"
    x2="-34.529411764705884"
    y2="71.11764705882354"
    stroke="hsla(0,50%,50%,0.6)"
    stroke-width="1"
    transform="translate(-0.8235294117,-70.7058823529)"
    />
  
  <line
    x1="1.2352941176470589"
    y1="106.05882352941177"
    x2="-34.11764705882353"
    y2="106.47058823529412"
    stroke="hsla(0,50%,50%,0.6)"
    stroke-width="1"
    transform="translate(-0.8235294117,-70.7058823529)"
    />
  
</svg>
