<?xml version="1.0"?>
<!DOCTYPE svg PUBLIC "-//W3C//DTD SVG 1.1//EN"
  "http://www.w3.org/Graphics/SVG/1.1/DTD/svg11.dtd">
<svg
  width="240"
  height="240"
  viewBox="-50 -50 200 200" xmlns="http://www.w3.org/2000/svg" version="1.1">
  <rect
    x="0"
    y="0"
    width="100"
    height="100"
    fill="hsla(206,100%,53%,0.3)"
    stroke="hsl(206,100%,53%)"
    stroke-width="3"
    transform="" />
  
  <path
    d="M 
      -76.5
      60.5
      L
    
      -72.3333333333
      60.5
      L
    
      -55
      72.5
      L
    
      -10.7465753424
      134.8150684931
      L
    
      -7.5
      177.5
      L
    
      -28.5833333333
      121.4375
      L
    
      -56.5
      100.5
      L
    
      -50.2410071942
      92.1546762589
      L
    
      -58.5
      84.5
      L
    
      -57.5
      81.0714285714
      L
    
      -65
      80
      L
    
      -69.8219178082
      67.1780821917
      z
    "
    fill="hsla(0,0%,50%,0.3)"
    stroke="hsla(0,0%,50%,1)"
    stroke-width="1"
    transform="translate(64.8575299141,-75.4896491373) scale(1,-1) translate(50,-110)"
    />
  
  
  <line
    x1="-55"
    y1="72.5"
    x2="-58.5"
    y2="84.5"
    stroke="hsla(0,50%,50%,0.6)"
    stroke-width="1"
    transform="translate(64.8575299141,-75.4896491373) scale(1,-1) translate(50,-110)"
    />
  
  <line
    x1="-49.67382941305782"
    y1="80"
    x2="-51.48845549593683"
    y2="85.19961284083475"
    stroke="hsla(0,50%,50%,0.6)"
    stroke-width="1"
    transform="translate(64.8575299141,-75.4896491373) scale(1,-1) translate(50,-110)"
    />
  
  <line
    x1="-47.9434250764526"
    y1="82.43665356050677"
    x2="-49.73268324390526"
    y2="91.54941926125213"
    stroke="hsla(0,50%,50%,0.6)"
    stroke-width="1"
    transform="translate(64.8575299141,-75.4896491373) scale(1,-1) translate(50,-110)"
    />
  
  <line
    x1="-10.746575342465754"
    y1="134.81506849315068"
    x2="-7.5"
    y2="177.5"
    stroke="hsla(0,50%,50%,0.6)"
    stroke-width="1"
    transform="translate(64.8575299141,-75.4896491373) scale(1,-1) translate(50,-110)"
    />
  
  <line
    x1="-16.814420803782507"
    y1="126.27068557919621"
    x2="-7.5"
    y2="177.5"
    stroke="hsla(0,50%,50%,0.6)"
    stroke-width="1"
    transform="translate(64.8575299141,-75.4896491373) scale(1,-1) translate(50,-110)"
    />
  
  <line
    x1="-45.516052542436675"
    y1="85.8547367232489"
    x2="-56.5"
    y2="100.5"
    stroke="hsla(0,50%,50%,0.6)"
    stroke-width="1"
    transform="translate(64.8575299141,-75.4896491373) scale(1,-1) translate(50,-110)"
    />
  
  <line
    x1="-49.01204819277108"
    y1="80.9318813716404"
    x2="-51.75857430394169"
    y2="84.22271954538593"
    stroke="hsla(0,50%,50%,0.6)"
    stroke-width="1"
    transform="translate(64.8575299141,-75.4896491373) scale(1,-1) translate(50,-110)"
    />
  
  <line
    x1="-19.754355968083374"
    y1="122.13084188242958"
    x2="-7.5"
    y2="177.5"
    stroke="hsla(0,50%,50%,0.6)"
    stroke-width="1"
    transform="translate(64.8575299141,-75.4896491373) scale(1,-1) translate(50,-110)"
    />
  
  <line
    x1="-55"
    y1="72.5"
    x2="-49.73268324390526"
    y2="91.54941926125213"
    stroke="hsla(0,50%,50%,0.6)"
    stroke-width="1"
    transform="translate(64.8575299141,-75.4896491373) scale(1,-1) translate(50,-110)"
    />
  
  <line
    x1="-55"
    y1="72.5"
    x2="-65"
    y2="80"
    stroke="hsla(0,50%,50%,0.6)"
    stroke-width="1"
    transform="translate(64.8575299141,-75.4896491373) scale(1,-1) translate(50,-110)"
    />
  
  <line
    x1="-37.96748681898067"
    y1="96.4841827768014"
    x2="-7.5"
    y2="177.5"
    stroke="hsla(0,50%,50%,0.6)"
    stroke-width="1"
    transform="translate(64.8575299141,-75.4896491373) scale(1,-1) translate(50,-110)"
    />
  
  <line
    x1="-23.32843137254902"
    y1="117.09803921568627"
    x2="-20.148630470463637"
    y2="124.38094102766163"
    stroke="hsla(0,50%,50%,0.6)"
    stroke-width="1"
    transform="translate(64.8575299141,-75.4896491373) scale(1,-1) translate(50,-110)"
    />
  
  <line
    x1="-72.33333333333333"
    y1="60.5"
    x2="-65"
    y2="80"
    stroke="hsla(0,50%,50%,0.6)"
    stroke-width="1"
    transform="translate(64.8575299141,-75.4896491373) scale(1,-1) translate(50,-110)"
    />
  
  <line
    x1="-31.723739097459234"
    y1="105.27626090254077"
    x2="-25.2201823744822"
    y2="118.75268015342"
    stroke="hsla(0,50%,50%,0.6)"
    stroke-width="1"
    transform="translate(64.8575299141,-75.4896491373) scale(1,-1) translate(50,-110)"
    />
  
  <line
    x1="-55"
    y1="72.5"
    x2="-10.746575342465754"
    y2="134.81506849315068"
    stroke="hsla(0,50%,50%,0.6)"
    stroke-width="1"
    transform="translate(64.8575299141,-75.4896491373) scale(1,-1) translate(50,-110)"
    />
  
  <line
    x1="-49.01204819277108"
    y1="80.9318813716404"
    x2="-58.5"
    y2="84.5"
    stroke="hsla(0,50%,50%,0.6)"
    stroke-width="1"
    transform="translate(64.8575299141,-75.4896491373) scale(1,-1) translate(50,-110)"
    />
  
  <line
    x1="-76.5"
    y1="60.5"
    x2="-72.33333333333333"
    y2="60.5"
    stroke="hsla(0,50%,50%,0.6)"
    stroke-width="1"
    transform="translate(64.8575299141,-75.4896491373) scale(1,-1) translate(50,-110)"
    />
  
  <line
    x1="-45.516052542436675"
    y1="85.8547367232489"
    x2="-50.83948651164162"
    y2="87.54662989749535"
    stroke="hsla(0,50%,50%,0.6)"
    stroke-width="1"
    transform="translate(64.8575299141,-75.4896491373) scale(1,-1) translate(50,-110)"
    />
  
  <line
    x1="-49.73268324390526"
    y1="91.54941926125213"
    x2="-10.746575342465754"
    y2="134.81506849315068"
    stroke="hsla(0,50%,50%,0.6)"
    stroke-width="1"
    transform="translate(64.8575299141,-75.4896491373) scale(1,-1) translate(50,-110)"
    />
  
  <line
    x1="-76.5"
    y1="60.5"
    x2="-31.723739097459234"
    y2="105.27626090254077"
    stroke="hsla(0,50%,50%,0.6)"
    stroke-width="1"
    transform="translate(64.8575299141,-75.4896491373) scale(1,-1) translate(50,-110)"
    />
  
  <line
    x1="-48.85476123499569"
    y1="87.07812623252701"
    x2="-50.83948651164162"
    y2="87.54662989749535"
    stroke="hsla(0,50%,50%,0.6)"
    stroke-width="1"
    transform="translate(64.8575299141,-75.4896491373) scale(1,-1) translate(50,-110)"
    />
  
  <line
    x1="-58.5"
    y1="84.5"
    x2="-23.32843137254902"
    y2="117.09803921568627"
    stroke="hsla(0,50%,50%,0.6)"
    stroke-width="1"
    transform="translate(64.8575299141,-75.4896491373) scale(1,-1) translate(50,-110)"
    />
  
  <line
    x1="-72.33333333333333"
    y1="60.5"
    x2="-55"
    y2="72.5"
    stroke="hsla(0,50%,50%,0.6)"
    stroke-width="1"
    transform="translate(64.8575299141,-75.4896491373) scale(1,-1) translate(50,-110)"
    />
  
  <line
    x1="-51.48845549593683"
    y1="85.19961284083475"
    x2="-37.96748681898067"
    y2="96.4841827768014"
    stroke="hsla(0,50%,50%,0.6)"
    stroke-width="1"
    transform="translate(64.8575299141,-75.4896491373) scale(1,-1) translate(50,-110)"
    />
  
  <line
    x1="-65"
    y1="80"
    x2="-49.67382941305782"
    y2="80"
    stroke="hsla(0,50%,50%,0.6)"
    stroke-width="1"
    transform="translate(64.8575299141,-75.4896491373) scale(1,-1) translate(50,-110)"
    />
  
  <line
    x1="-51.48845549593683"
    y1="85.19961284083475"
    x2="-48.85476123499569"
    y2="87.07812623252701"
    stroke="hsla(0,50%,50%,0.6)"
    stroke-width="1"
    transform="translate(64.8575299141,-75.4896491373) scale(1,-1) translate(50,-110)"
    />
  
  <line
    x1="-65"
    y1="80"
    x2="-47.9434250764526"
    y2="82.43665356050677"
    stroke="hsla(0,50%,50%,0.6)"
    stroke-width="1"
    transform="translate(64.8575299141,-75.4896491373) scale(1,-1) translate(50,-110)"
    />
  
  <line
    x1="-51.48845549593683"
    y1="85.19961284083475"
    x2="-48.51628527975345"
    y2="85.35425422145227"
    stroke="hsla(0,50%,50%,0.6)"
    stroke-width="1"
    transform="translate(64.8575299141,-75.4896491373) scale(1,-1) translate(50,-110)"
    />
  
  <line
    x1="-51.75857430394169"
    y1="84.22271954538593"
    x2="-48.51628527975345"
    y2="85.35425422145227"
    stroke="hsla(0,50%,50%,0.6)"
    stroke-width="1"
    transform="translate(64.8575299141,-75.4896491373) scale(1,-1) translate(50,-110)"
    />
  
  <line
    x1="-56.5"
    y1="100.5"
    x2="-10.746575342465754"
    y2="134.81506849315068"
    stroke="hsla(0,50%,50%,0.6)"
    stroke-width="1"
    transform="translate(64.8575299141,-75.4896491373) scale(1,-1) translate(50,-110)"
    />
  
  <line
    x1="-25.2201823744822"
    y1="118.75268015342"
    x2="-19.754355968083374"
    y2="122.13084188242958"
    stroke="hsla(0,50%,50%,0.6)"
    stroke-width="1"
    transform="translate(64.8575299141,-75.4896491373) scale(1,-1) translate(50,-110)"
    />
  
  <line
    x1="-20.148630470463637"
    y1="124.38094102766163"
    x2="-16.814420803782507"
    y2="126.27068557919621"
    stroke="hsla(0,50%,50%,0.6)"
    stroke-width="1"
    transform="translate(64.8575299141,-75.4896491373) scale(1,-1) translate(50,-110)"
    />
  
</svg>
