<?xml version="1.0"?>
<!DOCTYPE svg PUBLIC "-//W3C//DTD SVG 1.1//EN"
  "http://www.w3.org/Graphics/SVG/1.1/DTD/svg11.dtd">
<svg
  width="240"
  height="240"
  viewBox="-50 -50 200 200" xmlns="http://www.w3.org/2000/svg" version="1.1">
  <rect
    x="0"
    y="0"
    width="100"
    height="100"
    fill="hsla(206,100%,53%,0.3)"
    stroke="hsl(206,100%,53%)"
    stroke-width="3"
    transform="" />
  
  <path
    d="M 
      41.9742173112
      47.5340699815
      L
    
      51.1548293855
      55.1845800434
      L
    
      54.2564429110
      50.2807249095
      L
    
      57.0922366768
      49.2865445310
      L
    
      75.2089967554
      67.8996542008
      L
    
      72.2838633686
      72.7921083627
      L
    
      63.9858624243
      74.2045340554
      L
    
      48.7239871296
      82.7782788979
      L
    
      44.8825560249
      81.3138193948
      L
    
      46.4552540019
      77.1884674039
      L
    
      36.1256528417
      78.9466973886
      L
    
      21.1010973643
      67.0522576356
      L
    
      2.2067404319
      84.7201292881
      L
    
      1.6997662007
      84.8064227743
      L
    
      -10.3932375934
      83.2967935175
      L
    
      -7.2694533783
      58.2734745831
      L
    
      0.1587002352
      51.5083203046
      L
    
      0.0966745109
      50.4237562100
      L
    
      0
      50.3472222222
      L
    
      0
      48.7333333333
      z
    "
    fill="hsla(0,0%,50%,0.3)"
    stroke="hsla(0,0%,50%,1)"
    stroke-width="1"
    transform="translate(0.2215024034,-50.8760130563) scale(1,-1) translate(50,-110)"
    />
  
  
  <line
    x1="61.5899146598499"
    y1="53.90744656833894"
    x2="67.89787648088729"
    y2="73.53865932240217"
    stroke="hsla(0,50%,50%,0.6)"
    stroke-width="1"
    transform="translate(0.2215024034,-50.8760130563) scale(1,-1) translate(50,-110)"
    />
  
  <line
    x1="54.889174724031925"
    y1="66.78570859682378"
    x2="56.92159743405706"
    y2="75.4069621388839"
    stroke="hsla(0,50%,50%,0.6)"
    stroke-width="1"
    transform="translate(0.2215024034,-50.8760130563) scale(1,-1) translate(50,-110)"
    />
  
  <line
    x1="54.2564429110612"
    y1="50.28072490950209"
    x2="56.92159743405706"
    y2="75.4069621388839"
    stroke="hsla(0,50%,50%,0.6)"
    stroke-width="1"
    transform="translate(0.2215024034,-50.8760130563) scale(1,-1) translate(50,-110)"
    />
  
  <line
    x1="57.092236676847214"
    y1="49.28654453100741"
    x2="75.2089967554992"
    y2="67.89965420085534"
    stroke="hsla(0,50%,50%,0.6)"
    stroke-width="1"
    transform="translate(0.2215024034,-50.8760130563) scale(1,-1) translate(50,-110)"
    />
  
  <line
    x1="34.94014670915536"
    y1="47.73504342735747"
    x2="35.52902235448317"
    y2="53.56088940067869"
    stroke="hsla(0,50%,50%,0.6)"
    stroke-width="1"
    transform="translate(0.2215024034,-50.8760130563) scale(1,-1) translate(50,-110)"
    />
  
  <line
    x1="22.915129251898296"
    y1="48.078615354707665"
    x2="26.6580889501498"
    y2="71.33024280305366"
    stroke="hsla(0,50%,50%,0.6)"
    stroke-width="1"
    transform="translate(0.2215024034,-50.8760130563) scale(1,-1) translate(50,-110)"
    />
  
  <line
    x1="67.84582321121388"
    y1="71.5592421214088"
    x2="67.89787648088729"
    y2="73.53865932240217"
    stroke="hsla(0,50%,50%,0.6)"
    stroke-width="1"
    transform="translate(0.2215024034,-50.8760130563) scale(1,-1) translate(50,-110)"
    />
  
  <line
    x1="0"
    y1="48.733333333333334"
    x2="0"
    y2="50.34722222222222"
    stroke="hsla(0,50%,50%,0.6)"
    stroke-width="1"
    transform="translate(0.2215024034,-50.8760130563) scale(1,-1) translate(50,-110)"
    />
  
  <line
    x1="-7.269453378317829"
    y1="58.27347458314977"
    x2="-10.393237593488978"
    y2="83.29679351750327"
    stroke="hsla(0,50%,50%,0.6)"
    stroke-width="1"
    transform="translate(0.2215024034,-50.8760130563) scale(1,-1) translate(50,-110)"
    />
  
  <line
    x1="0"
    y1="48.733333333333334"
    x2="2.0595016756186015"
    y2="84.74519120415003"
    stroke="hsla(0,50%,50%,0.6)"
    stroke-width="1"
    transform="translate(0.2215024034,-50.8760130563) scale(1,-1) translate(50,-110)"
    />
  
  <line
    x1="54.45637408943288"
    y1="57.93586729674962"
    x2="67.84582321121388"
    y2="71.5592421214088"
    stroke="hsla(0,50%,50%,0.6)"
    stroke-width="1"
    transform="translate(0.2215024034,-50.8760130563) scale(1,-1) translate(50,-110)"
    />
  
  <line
    x1="34.94014670915536"
    y1="47.73504342735747"
    x2="33.965023644360826"
    y2="70.08075009601885"
    stroke="hsla(0,50%,50%,0.6)"
    stroke-width="1"
    transform="translate(0.2215024034,-50.8760130563) scale(1,-1) translate(50,-110)"
    />
  
  <line
    x1="22.915129251898296"
    y1="48.078615354707665"
    x2="22.60231183576239"
    y2="51.12040444892463"
    stroke="hsla(0,50%,50%,0.6)"
    stroke-width="1"
    transform="translate(0.2215024034,-50.8760130563) scale(1,-1) translate(50,-110)"
    />
  
  <line
    x1="32.17764921358398"
    y1="52.99318096587968"
    x2="31.777337577594977"
    y2="57.069041880067985"
    stroke="hsla(0,50%,50%,0.6)"
    stroke-width="1"
    transform="translate(0.2215024034,-50.8760130563) scale(1,-1) translate(50,-110)"
    />
  
  <line
    x1="2.0299034915157654"
    y1="84.64228623904627"
    x2="2.0595016756186015"
    y2="84.74519120415003"
    stroke="hsla(0,50%,50%,0.6)"
    stroke-width="1"
    transform="translate(0.2215024034,-50.8760130563) scale(1,-1) translate(50,-110)"
    />
  
  <line
    x1="41.974217311233886"
    y1="47.53406998158379"
    x2="72.28386336866902"
    y2="72.79210836277974"
    stroke="hsla(0,50%,50%,0.6)"
    stroke-width="1"
    transform="translate(0.2215024034,-50.8760130563) scale(1,-1) translate(50,-110)"
    />
  
  <line
    x1="54.52343856712858"
    y1="51.42423479271872"
    x2="48.723987129618614"
    y2="82.77827889793265"
    stroke="hsla(0,50%,50%,0.6)"
    stroke-width="1"
    transform="translate(0.2215024034,-50.8760130563) scale(1,-1) translate(50,-110)"
    />
  
  <line
    x1="39.21788637405531"
    y1="47.61282229407461"
    x2="54.45637408943288"
    y2="57.93586729674962"
    stroke="hsla(0,50%,50%,0.6)"
    stroke-width="1"
    transform="translate(0.2215024034,-50.8760130563) scale(1,-1) translate(50,-110)"
    />
  
  <line
    x1="26.774899246197442"
    y1="47.968336212013405"
    x2="54.889174724031925"
    y2="66.78570859682378"
    stroke="hsla(0,50%,50%,0.6)"
    stroke-width="1"
    transform="translate(0.2215024034,-50.8760130563) scale(1,-1) translate(50,-110)"
    />
  
  <line
    x1="57.092236676847214"
    y1="49.28654453100741"
    x2="44.882556024991445"
    y2="81.3138193948039"
    stroke="hsla(0,50%,50%,0.6)"
    stroke-width="1"
    transform="translate(0.2215024034,-50.8760130563) scale(1,-1) translate(50,-110)"
    />
  
  <line
    x1="3.3094645917508005"
    y1="48.63877720214045"
    x2="39.87923135790791"
    y2="78.30779040716462"
    stroke="hsla(0,50%,50%,0.6)"
    stroke-width="1"
    transform="translate(0.2215024034,-50.8760130563) scale(1,-1) translate(50,-110)"
    />
  
  <line
    x1="3.3094645917508005"
    y1="48.63877720214045"
    x2="-7.269453378317829"
    y2="58.27347458314977"
    stroke="hsla(0,50%,50%,0.6)"
    stroke-width="1"
    transform="translate(0.2215024034,-50.8760130563) scale(1,-1) translate(50,-110)"
    />
  
  <line
    x1="54.52343856712858"
    y1="51.42423479271872"
    x2="61.5899146598499"
    y2="53.90744656833894"
    stroke="hsla(0,50%,50%,0.6)"
    stroke-width="1"
    transform="translate(0.2215024034,-50.8760130563) scale(1,-1) translate(50,-110)"
    />
  
  <line
    x1="0"
    y1="50.34722222222222"
    x2="36.12565284178187"
    y2="78.94669738863287"
    stroke="hsla(0,50%,50%,0.6)"
    stroke-width="1"
    transform="translate(0.2215024034,-50.8760130563) scale(1,-1) translate(50,-110)"
    />
  
  <line
    x1="54.2564429110612"
    y1="50.28072490950209"
    x2="36.12565284178187"
    y2="78.94669738863287"
    stroke="hsla(0,50%,50%,0.6)"
    stroke-width="1"
    transform="translate(0.2215024034,-50.8760130563) scale(1,-1) translate(50,-110)"
    />
  
  <line
    x1="57.49672177494615"
    y1="49.70211141261591"
    x2="39.87923135790791"
    y2="78.30779040716462"
    stroke="hsla(0,50%,50%,0.6)"
    stroke-width="1"
    transform="translate(0.2215024034,-50.8760130563) scale(1,-1) translate(50,-110)"
    />
  
  <line
    x1="26.774899246197442"
    y1="47.968336212013405"
    x2="22.60231183576239"
    y2="51.12040444892463"
    stroke="hsla(0,50%,50%,0.6)"
    stroke-width="1"
    transform="translate(0.2215024034,-50.8760130563) scale(1,-1) translate(50,-110)"
    />
  
  <line
    x1="7.79000957709562"
    y1="48.5107616311306"
    x2="22.60231183576239"
    y2="51.12040444892463"
    stroke="hsla(0,50%,50%,0.6)"
    stroke-width="1"
    transform="translate(0.2215024034,-50.8760130563) scale(1,-1) translate(50,-110)"
    />
  
  <line
    x1="32.17764921358398"
    y1="52.99318096587968"
    x2="35.52902235448317"
    y2="53.56088940067869"
    stroke="hsla(0,50%,50%,0.6)"
    stroke-width="1"
    transform="translate(0.2215024034,-50.8760130563) scale(1,-1) translate(50,-110)"
    />
  
  <line
    x1="41.974217311233886"
    y1="47.53406998158379"
    x2="2.20674043198583"
    y2="84.72012928817263"
    stroke="hsla(0,50%,50%,0.6)"
    stroke-width="1"
    transform="translate(0.2215024034,-50.8760130563) scale(1,-1) translate(50,-110)"
    />
  
  <line
    x1="7.79000957709562"
    y1="48.5107616311306"
    x2="0"
    y2="50.34722222222222"
    stroke="hsla(0,50%,50%,0.6)"
    stroke-width="1"
    transform="translate(0.2215024034,-50.8760130563) scale(1,-1) translate(50,-110)"
    />
  
  <line
    x1="41.974217311233886"
    y1="47.53406998158379"
    x2="0"
    y2="48.733333333333334"
    stroke="hsla(0,50%,50%,0.6)"
    stroke-width="1"
    transform="translate(0.2215024034,-50.8760130563) scale(1,-1) translate(50,-110)"
    />
  
  <line
    x1="39.21788637405531"
    y1="47.61282229407461"
    x2="32.17764921358398"
    y2="52.99318096587968"
    stroke="hsla(0,50%,50%,0.6)"
    stroke-width="1"
    transform="translate(0.2215024034,-50.8760130563) scale(1,-1) translate(50,-110)"
    />
  
  <line
    x1="75.2089967554992"
    y1="67.89965420085534"
    x2="72.28386336866902"
    y2="72.79210836277974"
    stroke="hsla(0,50%,50%,0.6)"
    stroke-width="1"
    transform="translate(0.2215024034,-50.8760130563) scale(1,-1) translate(50,-110)"
    />
  
  <line
    x1="44.882556024991445"
    y1="81.3138193948039"
    x2="48.723987129618614"
    y2="82.77827889793265"
    stroke="hsla(0,50%,50%,0.6)"
    stroke-width="1"
    transform="translate(0.2215024034,-50.8760130563) scale(1,-1) translate(50,-110)"
    />
  
  <line
    x1="31.777337577594977"
    y1="57.069041880067985"
    x2="-7.269453378317829"
    y2="58.27347458314977"
    stroke="hsla(0,50%,50%,0.6)"
    stroke-width="1"
    transform="translate(0.2215024034,-50.8760130563) scale(1,-1) translate(50,-110)"
    />
  
  <line
    x1="57.092236676847214"
    y1="49.28654453100741"
    x2="54.2564429110612"
    y2="50.28072490950209"
    stroke="hsla(0,50%,50%,0.6)"
    stroke-width="1"
    transform="translate(0.2215024034,-50.8760130563) scale(1,-1) translate(50,-110)"
    />
  
  <line
    x1="57.49672177494615"
    y1="49.70211141261591"
    x2="54.52343856712858"
    y2="51.42423479271872"
    stroke="hsla(0,50%,50%,0.6)"
    stroke-width="1"
    transform="translate(0.2215024034,-50.8760130563) scale(1,-1) translate(50,-110)"
    />
  
  <line
    x1="33.965023644360826"
    y1="70.08075009601885"
    x2="67.84582321121388"
    y2="71.5592421214088"
    stroke="hsla(0,50%,50%,0.6)"
    stroke-width="1"
    transform="translate(0.2215024034,-50.8760130563) scale(1,-1) translate(50,-110)"
    />
  
  <line
    x1="2.0299034915157654"
    y1="84.64228623904627"
    x2="1.699766200752511"
    y2="84.80642277433999"
    stroke="hsla(0,50%,50%,0.6)"
    stroke-width="1"
    transform="translate(0.2215024034,-50.8760130563) scale(1,-1) translate(50,-110)"
    />
  
  <line
    x1="2.0299034915157654"
    y1="84.64228623904627"
    x2="2.20674043198583"
    y2="84.72012928817263"
    stroke="hsla(0,50%,50%,0.6)"
    stroke-width="1"
    transform="translate(0.2215024034,-50.8760130563) scale(1,-1) translate(50,-110)"
    />
  
  <line
    x1="54.889174724031925"
    y1="66.78570859682378"
    x2="26.6580889501498"
    y2="71.33024280305366"
    stroke="hsla(0,50%,50%,0.6)"
    stroke-width="1"
    transform="translate(0.2215024034,-50.8760130563) scale(1,-1) translate(50,-110)"
    />
  
  <line
    x1="72.28386336866902"
    y1="72.79210836277974"
    x2="36.12565284178187"
    y2="78.94669738863287"
    stroke="hsla(0,50%,50%,0.6)"
    stroke-width="1"
    transform="translate(0.2215024034,-50.8760130563) scale(1,-1) translate(50,-110)"
    />
  
  <line
    x1="2.20674043198583"
    y1="84.72012928817263"
    x2="1.699766200752511"
    y2="84.80642277433999"
    stroke="hsla(0,50%,50%,0.6)"
    stroke-width="1"
    transform="translate(0.2215024034,-50.8760130563) scale(1,-1) translate(50,-110)"
    />
  
  <line
    x1="-10.393237593488978"
    y1="83.29679351750327"
    x2="1.699766200752511"
    y2="84.80642277433999"
    stroke="hsla(0,50%,50%,0.6)"
    stroke-width="1"
    transform="translate(0.2215024034,-50.8760130563) scale(1,-1) translate(50,-110)"
    />
  
  <line
    x1="75.2089967554992"
    y1="67.89965420085534"
    x2="48.723987129618614"
    y2="82.77827889793265"
    stroke="hsla(0,50%,50%,0.6)"
    stroke-width="1"
    transform="translate(0.2215024034,-50.8760130563) scale(1,-1) translate(50,-110)"
    />
  
</svg>
