<?xml version="1.0"?>
<!DOCTYPE svg PUBLIC "-//W3C//DTD SVG 1.1//EN"
  "http://www.w3.org/Graphics/SVG/1.1/DTD/svg11.dtd">
<svg
  width="240"
  height="240"
  viewBox="-500 -500 1000 1000" xmlns="http://www.w3.org/2000/svg" version="1.1">
  <rect
    x="0"
    y="0"
    width="100"
    height="100"
    fill="hsla(206,100%,53%,0.3)"
    stroke="hsl(206,100%,53%)"
    stroke-width="3"
    transform="" />
  
  <path
    d="M 
      -20.0295891658
      70.1234778650
      L
    
      -11.9059405940
      71.5594059405
      L
    
      -9.9628712871
      80.8787128712
      L
    
      -14.5783543871
      106.9904404233
      L
    
      -41.2171389552
      156.1369067941
      L
    
      -39.5646978490
      106.1642198702
      L
    
      -17.7232975286
      85.7210389473
      L
    
      -17.8490952543
      84.8702628883
      L
    
      -28.9091840218
      86.5056333219
      z
    "
    fill="hsla(0,0%,50%,0.3)"
    stroke="hsla(0,0%,50%,1)"
    stroke-width="1"
    transform="translate(25.5900051212,-113.1301923295)"
    />
  
  
  <line
    x1="-30.960509844087856"
    y1="98.11084556731535"
    x2="-41.21713895527484"
    y2="156.1369067941277"
    stroke="hsla(0,50%,50%,0.6)"
    stroke-width="1"
    transform="translate(25.5900051212,-113.1301923295)"
    />
  
  <line
    x1="-39.56469784909525"
    y1="106.16421987026288"
    x2="-41.21713895527484"
    y2="156.1369067941277"
    stroke="hsla(0,50%,50%,0.6)"
    stroke-width="1"
    transform="translate(25.5900051212,-113.1301923295)"
    />
  
  <line
    x1="-11.350777934936351"
    y1="74.22206506364923"
    x2="-11.592409240924093"
    y2="78.42409240924093"
    stroke="hsla(0,50%,50%,0.6)"
    stroke-width="1"
    transform="translate(25.5900051212,-113.1301923295)"
    />
  
  <line
    x1="-13.752133834073062"
    y1="82.00409696142027"
    x2="-14.578354387162854"
    y2="106.99044042335268"
    stroke="hsla(0,50%,50%,0.6)"
    stroke-width="1"
    transform="translate(25.5900051212,-113.1301923295)"
    />
  
  <line
    x1="-9.962871287128714"
    y1="80.87871287128714"
    x2="-14.578354387162854"
    y2="106.99044042335268"
    stroke="hsla(0,50%,50%,0.6)"
    stroke-width="1"
    transform="translate(25.5900051212,-113.1301923295)"
    />
  
  <line
    x1="-20.02958916581313"
    y1="70.12347786502788"
    x2="-14.578354387162854"
    y2="106.99044042335268"
    stroke="hsla(0,50%,50%,0.6)"
    stroke-width="1"
    transform="translate(25.5900051212,-113.1301923295)"
    />
  
  <line
    x1="-11.350777934936351"
    y1="74.22206506364923"
    x2="-12.407178217821782"
    y2="77.19678217821782"
    stroke="hsla(0,50%,50%,0.6)"
    stroke-width="1"
    transform="translate(25.5900051212,-113.1301923295)"
    />
  
  <line
    x1="-11.905940594059405"
    y1="71.55940594059406"
    x2="-9.962871287128714"
    y2="80.87871287128714"
    stroke="hsla(0,50%,50%,0.6)"
    stroke-width="1"
    transform="translate(25.5900051212,-113.1301923295)"
    />
  
  <line
    x1="-20.02958916581313"
    y1="70.12347786502788"
    x2="-28.90918402185046"
    y2="86.50563332195289"
    stroke="hsla(0,50%,50%,0.6)"
    stroke-width="1"
    transform="translate(25.5900051212,-113.1301923295)"
    />
  
  <line
    x1="-14.578354387162854"
    y1="106.99044042335268"
    x2="-41.21713895527484"
    y2="156.1369067941277"
    stroke="hsla(0,50%,50%,0.6)"
    stroke-width="1"
    transform="translate(25.5900051212,-113.1301923295)"
    />
  
  <line
    x1="-17.20357996390772"
    y1="78.31658781641711"
    x2="-11.50136565380676"
    y2="89.58262205530897"
    stroke="hsla(0,50%,50%,0.6)"
    stroke-width="1"
    transform="translate(25.5900051212,-113.1301923295)"
    />
  
  <line
    x1="-14.851485148514852"
    y1="73.51485148514851"
    x2="-9.962871287128714"
    y2="80.87871287128714"
    stroke="hsla(0,50%,50%,0.6)"
    stroke-width="1"
    transform="translate(25.5900051212,-113.1301923295)"
    />
  
  <line
    x1="-10.385277658200602"
    y1="78.85277658200603"
    x2="-39.56469784909525"
    y2="106.16421987026288"
    stroke="hsla(0,50%,50%,0.6)"
    stroke-width="1"
    transform="translate(25.5900051212,-113.1301923295)"
    />
  
  <line
    x1="-11.50136565380676"
    y1="89.58262205530897"
    x2="-16.46532027208026"
    y2="94.22879953777871"
    stroke="hsla(0,50%,50%,0.6)"
    stroke-width="1"
    transform="translate(25.5900051212,-113.1301923295)"
    />
  
  <line
    x1="-11.905940594059405"
    y1="71.55940594059406"
    x2="-14.851485148514852"
    y2="73.51485148514851"
    stroke="hsla(0,50%,50%,0.6)"
    stroke-width="1"
    transform="translate(25.5900051212,-113.1301923295)"
    />
  
  <line
    x1="-11.350777934936351"
    y1="74.22206506364923"
    x2="-28.90918402185046"
    y2="86.50563332195289"
    stroke="hsla(0,50%,50%,0.6)"
    stroke-width="1"
    transform="translate(25.5900051212,-113.1301923295)"
    />
  
  <line
    x1="-17.20357996390772"
    y1="78.31658781641711"
    x2="-13.752133834073062"
    y2="82.00409696142027"
    stroke="hsla(0,50%,50%,0.6)"
    stroke-width="1"
    transform="translate(25.5900051212,-113.1301923295)"
    />
  
  <line
    x1="-10.71020563594821"
    y1="77.2943640517898"
    x2="-28.90918402185046"
    y2="86.50563332195289"
    stroke="hsla(0,50%,50%,0.6)"
    stroke-width="1"
    transform="translate(25.5900051212,-113.1301923295)"
    />
  
  <line
    x1="-18.666780471150563"
    y1="79.34021850460908"
    x2="-10.475702742688062"
    y2="83.78001593262775"
    stroke="hsla(0,50%,50%,0.6)"
    stroke-width="1"
    transform="translate(25.5900051212,-113.1301923295)"
    />
  
  <line
    x1="-20.02958916581313"
    y1="70.12347786502788"
    x2="-11.905940594059405"
    y2="71.55940594059406"
    stroke="hsla(0,50%,50%,0.6)"
    stroke-width="1"
    transform="translate(25.5900051212,-113.1301923295)"
    />
  
  <line
    x1="-11.592409240924093"
    y1="78.42409240924093"
    x2="-10.385277658200602"
    y2="78.85277658200603"
    stroke="hsla(0,50%,50%,0.6)"
    stroke-width="1"
    transform="translate(25.5900051212,-113.1301923295)"
    />
  
  <line
    x1="-14.851485148514852"
    y1="73.51485148514851"
    x2="-11.350777934936351"
    y2="74.22206506364923"
    stroke="hsla(0,50%,50%,0.6)"
    stroke-width="1"
    transform="translate(25.5900051212,-113.1301923295)"
    />
  
  <line
    x1="-18.666780471150563"
    y1="79.34021850460908"
    x2="-10.182656196654149"
    y2="82.12212846900454"
    stroke="hsla(0,50%,50%,0.6)"
    stroke-width="1"
    transform="translate(25.5900051212,-113.1301923295)"
    />
  
  <line
    x1="-12.407178217821782"
    y1="77.19678217821782"
    x2="-10.71020563594821"
    y2="77.2943640517898"
    stroke="hsla(0,50%,50%,0.6)"
    stroke-width="1"
    transform="translate(25.5900051212,-113.1301923295)"
    />
  
  <line
    x1="-10.475702742688062"
    y1="83.78001593262775"
    x2="-28.90918402185046"
    y2="86.50563332195289"
    stroke="hsla(0,50%,50%,0.6)"
    stroke-width="1"
    transform="translate(25.5900051212,-113.1301923295)"
    />
  
  <line
    x1="-18.39421873221805"
    y1="81.18356663252533"
    x2="-10.270570160464322"
    y2="82.6194947080915"
    stroke="hsla(0,50%,50%,0.6)"
    stroke-width="1"
    transform="translate(25.5900051212,-113.1301923295)"
    />
  
  <line
    x1="-16.46532027208026"
    y1="94.22879953777871"
    x2="-12.655236428815295"
    y2="96.11055394332537"
    stroke="hsla(0,50%,50%,0.6)"
    stroke-width="1"
    transform="translate(25.5900051212,-113.1301923295)"
    />
  
  <line
    x1="-13.752133834073062"
    y1="82.00409696142027"
    x2="-10.182656196654149"
    y2="82.12212846900454"
    stroke="hsla(0,50%,50%,0.6)"
    stroke-width="1"
    transform="translate(25.5900051212,-113.1301923295)"
    />
  
  <line
    x1="-12.655236428815295"
    y1="96.11055394332537"
    x2="-30.960509844087856"
    y2="98.11084556731535"
    stroke="hsla(0,50%,50%,0.6)"
    stroke-width="1"
    transform="translate(25.5900051212,-113.1301923295)"
    />
  
  <line
    x1="-39.56469784909525"
    y1="106.16421987026288"
    x2="-14.578354387162854"
    y2="106.99044042335268"
    stroke="hsla(0,50%,50%,0.6)"
    stroke-width="1"
    transform="translate(25.5900051212,-113.1301923295)"
    />
  
</svg>
