<?xml version="1.0"?>
<!DOCTYPE svg PUBLIC "-//W3C//DTD SVG 1.1//EN"
  "http://www.w3.org/Graphics/SVG/1.1/DTD/svg11.dtd">
<svg
  width="240"
  height="240"
  viewBox="-500 -500 1000 1000" xmlns="http://www.w3.org/2000/svg" version="1.1">
  <rect
    x="0"
    y="0"
    width="100"
    height="100"
    fill="hsla(206,100%,53%,0.3)"
    stroke="hsl(206,100%,53%)"
    stroke-width="3"
    transform="" />
  
  <path
    d="M 
      36.6177644710
      30.2944111776
      L
    
      48.7163951362
      30.3008210481
      L
    
      77.2601468219
      53.4926192928
      L
    
      77.0603843249
      54.6303152359
      L
    
      75.2204406683
      54.3072484785
      L
    
      56.6638135996
      61.7184973846
      L
    
      56.2943180935
      62.6408187729
      L
    
      58.1506346025
      65.3810955243
      L
    
      53.8779937604
      69.2264722822
      L
    
      70.0841804084
      81.6966654216
      L
    
      71.4790474376
      81.1523515590
      L
    
      72.3811633180
      83.4641275114
      L
    
      50.8686868686
      99.5984848484
      L
    
      35.5
      85.7666666666
      L
    
      35.5
      31.9444444444
      z
    "
    fill="hsla(0,0%,50%,0.3)"
    stroke="hsla(0,0%,50%,1)"
    stroke-width="1"
    transform="translate(-56.3800734109,-64.9464480130)"
    />
  
  
  <line
    x1="71.47904743760716"
    y1="81.15235155902711"
    x2="72.3811633180404"
    y2="83.4641275114697"
    stroke="hsla(0,50%,50%,0.6)"
    stroke-width="1"
    transform="translate(-56.3800734109,-64.9464480130)"
    />
  
  <line
    x1="48.71639513624098"
    y1="30.3008210481958"
    x2="52.929539313585636"
    y2="50.393297530139016"
    stroke="hsla(0,50%,50%,0.6)"
    stroke-width="1"
    transform="translate(-56.3800734109,-64.9464480130)"
    />
  
  <line
    x1="36.61776447105788"
    y1="30.29441117764471"
    x2="61.23076923076923"
    y2="91.82692307692308"
    stroke="hsla(0,50%,50%,0.6)"
    stroke-width="1"
    transform="translate(-56.3800734109,-64.9464480130)"
    />
  
  <line
    x1="40.636148382004734"
    y1="50.61159344032272"
    x2="47.50232493990622"
    y2="74.96457422075108"
    stroke="hsla(0,50%,50%,0.6)"
    stroke-width="1"
    transform="translate(-56.3800734109,-64.9464480130)"
    />
  
  <line
    x1="35.5"
    y1="31.944444444444443"
    x2="58.15063460253841"
    y2="65.3810955243821"
    stroke="hsla(0,50%,50%,0.6)"
    stroke-width="1"
    transform="translate(-56.3800734109,-64.9464480130)"
    />
  
  <line
    x1="48.71639513624098"
    y1="30.3008210481958"
    x2="77.26014682193879"
    y2="53.49261929282527"
    stroke="hsla(0,50%,50%,0.6)"
    stroke-width="1"
    transform="translate(-56.3800734109,-64.9464480130)"
    />
  
  <line
    x1="45.92817679558011"
    y1="48.96869244935543"
    x2="51.24281424281424"
    y2="99.31788931788932"
    stroke="hsla(0,50%,50%,0.6)"
    stroke-width="1"
    transform="translate(-56.3800734109,-64.9464480130)"
    />
  
  <line
    x1="35.5"
    y1="61.213959663415245"
    x2="50.64438377275766"
    y2="89.86829373201263"
    stroke="hsla(0,50%,50%,0.6)"
    stroke-width="1"
    transform="translate(-56.3800734109,-64.9464480130)"
    />
  
  <line
    x1="46.649203084832905"
    y1="90.84161096829477"
    x2="50.86868686868687"
    y2="99.59848484848484"
    stroke="hsla(0,50%,50%,0.6)"
    stroke-width="1"
    transform="translate(-56.3800734109,-64.9464480130)"
    />
  
  <line
    x1="35.5"
    y1="31.944444444444443"
    x2="35.5"
    y2="85.76666666666667"
    stroke="hsla(0,50%,50%,0.6)"
    stroke-width="1"
    transform="translate(-56.3800734109,-64.9464480130)"
    />
  
  <line
    x1="40.636148382004734"
    y1="50.61159344032272"
    x2="58.15063460253841"
    y2="65.3810955243821"
    stroke="hsla(0,50%,50%,0.6)"
    stroke-width="1"
    transform="translate(-56.3800734109,-64.9464480130)"
    />
  
  <line
    x1="77.26014682193879"
    y1="53.49261929282527"
    x2="77.06038432491398"
    y2="54.63031523593746"
    stroke="hsla(0,50%,50%,0.6)"
    stroke-width="1"
    transform="translate(-56.3800734109,-64.9464480130)"
    />
  
  <line
    x1="35.5"
    y1="55.085136217948715"
    x2="72.3811633180404"
    y2="83.4641275114697"
    stroke="hsla(0,50%,50%,0.6)"
    stroke-width="1"
    transform="translate(-56.3800734109,-64.9464480130)"
    />
  
  <line
    x1="54.3"
    y1="86.4"
    x2="50.608148148148146"
    y2="99.05777777777777"
    stroke="hsla(0,50%,50%,0.6)"
    stroke-width="1"
    transform="translate(-56.3800734109,-64.9464480130)"
    />
  
  <line
    x1="36.61776447105788"
    y1="30.29441117764471"
    x2="35.5"
    y2="31.944444444444443"
    stroke="hsla(0,50%,50%,0.6)"
    stroke-width="1"
    transform="translate(-56.3800734109,-64.9464480130)"
    />
  
  <line
    x1="54.3"
    y1="86.4"
    x2="61.23076923076923"
    y2="91.82692307692308"
    stroke="hsla(0,50%,50%,0.6)"
    stroke-width="1"
    transform="translate(-56.3800734109,-64.9464480130)"
    />
  
  <line
    x1="40.95946351733918"
    y1="50.88423652588076"
    x2="35.5"
    y2="61.213959663415245"
    stroke="hsla(0,50%,50%,0.6)"
    stroke-width="1"
    transform="translate(-56.3800734109,-64.9464480130)"
    />
  
  <line
    x1="64.20776447385079"
    y1="42.887558635003764"
    x2="43.974320025965596"
    y2="93.3935546900357"
    stroke="hsla(0,50%,50%,0.6)"
    stroke-width="1"
    transform="translate(-56.3800734109,-64.9464480130)"
    />
  
  <line
    x1="35.5"
    y1="85.76666666666667"
    x2="50.86868686868687"
    y2="99.59848484848484"
    stroke="hsla(0,50%,50%,0.6)"
    stroke-width="1"
    transform="translate(-56.3800734109,-64.9464480130)"
    />
  
  <line
    x1="36.61776447105788"
    y1="30.29441117764471"
    x2="48.71639513624098"
    y2="30.3008210481958"
    stroke="hsla(0,50%,50%,0.6)"
    stroke-width="1"
    transform="translate(-56.3800734109,-64.9464480130)"
    />
  
  <line
    x1="52.929539313585636"
    y1="50.393297530139016"
    x2="77.06038432491398"
    y2="54.63031523593746"
    stroke="hsla(0,50%,50%,0.6)"
    stroke-width="1"
    transform="translate(-56.3800734109,-64.9464480130)"
    />
  
  <line
    x1="35.5"
    y1="50.06944444444444"
    x2="40.636148382004734"
    y2="50.61159344032272"
    stroke="hsla(0,50%,50%,0.6)"
    stroke-width="1"
    transform="translate(-56.3800734109,-64.9464480130)"
    />
  
  <line
    x1="35.5"
    y1="70.1710189452125"
    x2="47.50232493990622"
    y2="74.96457422075108"
    stroke="hsla(0,50%,50%,0.6)"
    stroke-width="1"
    transform="translate(-56.3800734109,-64.9464480130)"
    />
  
  <line
    x1="40.95946351733918"
    y1="50.88423652588076"
    x2="35.5"
    y2="55.085136217948715"
    stroke="hsla(0,50%,50%,0.6)"
    stroke-width="1"
    transform="translate(-56.3800734109,-64.9464480130)"
    />
  
  <line
    x1="45.92817679558011"
    y1="48.96869244935543"
    x2="35.5"
    y2="50.06944444444444"
    stroke="hsla(0,50%,50%,0.6)"
    stroke-width="1"
    transform="translate(-56.3800734109,-64.9464480130)"
    />
  
  <line
    x1="64.20776447385079"
    y1="42.887558635003764"
    x2="52.929539313585636"
    y2="50.393297530139016"
    stroke="hsla(0,50%,50%,0.6)"
    stroke-width="1"
    transform="translate(-56.3800734109,-64.9464480130)"
    />
  
  <line
    x1="58.15063460253841"
    y1="65.3810955243821"
    x2="35.5"
    y2="85.76666666666667"
    stroke="hsla(0,50%,50%,0.6)"
    stroke-width="1"
    transform="translate(-56.3800734109,-64.9464480130)"
    />
  
  <line
    x1="50.608148148148146"
    y1="99.05777777777777"
    x2="51.24281424281424"
    y2="99.31788931788932"
    stroke="hsla(0,50%,50%,0.6)"
    stroke-width="1"
    transform="translate(-56.3800734109,-64.9464480130)"
    />
  
  <line
    x1="77.26014682193879"
    y1="53.49261929282527"
    x2="35.5"
    y2="70.1710189452125"
    stroke="hsla(0,50%,50%,0.6)"
    stroke-width="1"
    transform="translate(-56.3800734109,-64.9464480130)"
    />
  
  <line
    x1="72.3811633180404"
    y1="83.4641275114697"
    x2="50.86868686868687"
    y2="99.59848484848484"
    stroke="hsla(0,50%,50%,0.6)"
    stroke-width="1"
    transform="translate(-56.3800734109,-64.9464480130)"
    />
  
  <line
    x1="54.3"
    y1="86.4"
    x2="46.649203084832905"
    y2="90.84161096829477"
    stroke="hsla(0,50%,50%,0.6)"
    stroke-width="1"
    transform="translate(-56.3800734109,-64.9464480130)"
    />
  
  <line
    x1="50.64438377275766"
    y1="89.86829373201263"
    x2="43.974320025965596"
    y2="93.3935546900357"
    stroke="hsla(0,50%,50%,0.6)"
    stroke-width="1"
    transform="translate(-56.3800734109,-64.9464480130)"
    />
  
  <line
    x1="71.47904743760716"
    y1="81.15235155902711"
    x2="46.649203084832905"
    y2="90.84161096829477"
    stroke="hsla(0,50%,50%,0.6)"
    stroke-width="1"
    transform="translate(-56.3800734109,-64.9464480130)"
    />
  
</svg>
