<?xml version="1.0"?>
<!DOCTYPE svg PUBLIC "-//W3C//DTD SVG 1.1//EN"
  "http://www.w3.org/Graphics/SVG/1.1/DTD/svg11.dtd">
<svg
  width="240"
  height="240"
  viewBox="-50 -50 200 200" xmlns="http://www.w3.org/2000/svg" version="1.1">
  <rect
    x="0"
    y="0"
    width="100"
    height="100"
    fill="hsla(206,100%,53%,0.3)"
    stroke="hsl(206,100%,53%)"
    stroke-width="3"
    transform="" />
  
  <path
    d="M 
      20.4721311475
      76.3908785203
      L
    
      26.7134086926
      78.8427526757
      L
    
      26.5141778012
      79.4008358277
      L
    
      30.2606557377
      81.2672131147
      L
    
      29.7654252584
      82.2613154738
      L
    
      31.9799157224
      83.5441516336
      L
    
      35.5295237971
      85.4282991612
      L
    
      35.4596514500
      85.5599339956
      L
    
      39.6189363903
      87.9693736420
      L
    
      38.0629036719
      90.7371972310
      L
    
      71.2919008159
      92.1978124900
      L
    
      87.0586591351
      107.1023262137
      L
    
      87.0900340602
      112.1300988403
      L
    
      88.3855118133
      119.4357200046
      L
    
      87.1370503056
      119.6643635687
      L
    
      87.1501982261
      121.7712930506
      L
    
      74.2880059365
      122.0175408842
      L
    
      72.8607581192
      107.8123843396
      L
    
      27.1790905407
      110.0969924119
      L
    
      14.5547785547
      89.7038730500
      z
    "
    fill="hsla(0,0%,50%,0.3)"
    stroke="hsla(0,0%,50%,1)"
    stroke-width="1"
    transform="translate(-33.2146891132,-100.9107228776) scale(1,-1) translate(50,-110)"
    />
  
  
  <line
    x1="86.02524937419551"
    y1="106.1254310490442"
    x2="88.38551181333001"
    y2="119.43572000469628"
    stroke="hsla(0,50%,50%,0.6)"
    stroke-width="1"
    transform="translate(-33.2146891132,-100.9107228776) scale(1,-1) translate(50,-110)"
    />
  
  <line
    x1="71.29190081595073"
    y1="92.19781249007842"
    x2="74.28800593655448"
    y2="122.01754088425982"
    stroke="hsla(0,50%,50%,0.6)"
    stroke-width="1"
    transform="translate(-33.2146891132,-100.9107228776) scale(1,-1) translate(50,-110)"
    />
  
  <line
    x1="79.54545454545455"
    y1="100"
    x2="80.69460112812249"
    y2="120.42224012892828"
    stroke="hsla(0,50%,50%,0.6)"
    stroke-width="1"
    transform="translate(-33.2146891132,-100.9107228776) scale(1,-1) translate(50,-110)"
    />
  
  <line
    x1="84.23473461890845"
    y1="104.43283506943689"
    x2="84.75496999635602"
    y2="121.53771139575761"
    stroke="hsla(0,50%,50%,0.6)"
    stroke-width="1"
    transform="translate(-33.2146891132,-100.9107228776) scale(1,-1) translate(50,-110)"
    />
  
  <line
    x1="87.05865913518011"
    y1="107.10232621372495"
    x2="87.15019822613223"
    y2="121.77129305062115"
    stroke="hsla(0,50%,50%,0.6)"
    stroke-width="1"
    transform="translate(-33.2146891132,-100.9107228776) scale(1,-1) translate(50,-110)"
    />
  
  <line
    x1="71.29190081595073"
    y1="92.19781249007842"
    x2="87.05865913518011"
    y2="107.10232621372495"
    stroke="hsla(0,50%,50%,0.6)"
    stroke-width="1"
    transform="translate(-33.2146891132,-100.9107228776) scale(1,-1) translate(50,-110)"
    />
  
  <line
    x1="26.71340869264537"
    y1="78.84275267571499"
    x2="19.807151705349508"
    y2="98.18847583171843"
    stroke="hsla(0,50%,50%,0.6)"
    stroke-width="1"
    transform="translate(-33.2146891132,-100.9107228776) scale(1,-1) translate(50,-110)"
    />
  
  <line
    x1="14.554778554778554"
    y1="89.7038730500269"
    x2="27.17909054071274"
    y2="110.09699241192058"
    stroke="hsla(0,50%,50%,0.6)"
    stroke-width="1"
    transform="translate(-33.2146891132,-100.9107228776) scale(1,-1) translate(50,-110)"
    />
  
  <line
    x1="20.472131147540985"
    y1="76.39087852038672"
    x2="14.554778554778554"
    y2="89.7038730500269"
    stroke="hsla(0,50%,50%,0.6)"
    stroke-width="1"
    transform="translate(-33.2146891132,-100.9107228776) scale(1,-1) translate(50,-110)"
    />
  
  <line
    x1="30.26065573770492"
    y1="81.2672131147541"
    x2="20.928571428571427"
    y2="100"
    stroke="hsla(0,50%,50%,0.6)"
    stroke-width="1"
    transform="translate(-33.2146891132,-100.9107228776) scale(1,-1) translate(50,-110)"
    />
  
  <line
    x1="35.52952379717859"
    y1="85.42829916128213"
    x2="24.625154227341344"
    y2="105.97140298262832"
    stroke="hsla(0,50%,50%,0.6)"
    stroke-width="1"
    transform="translate(-33.2146891132,-100.9107228776) scale(1,-1) translate(50,-110)"
    />
  
  <line
    x1="39.61893639034317"
    y1="87.96937364201396"
    x2="27.17909054071274"
    y2="110.09699241192058"
    stroke="hsla(0,50%,50%,0.6)"
    stroke-width="1"
    transform="translate(-33.2146891132,-100.9107228776) scale(1,-1) translate(50,-110)"
    />
  
  <line
    x1="20.30002503431561"
    y1="76.77808677069268"
    x2="39.61893639034317"
    y2="87.96937364201396"
    stroke="hsla(0,50%,50%,0.6)"
    stroke-width="1"
    transform="translate(-33.2146891132,-100.9107228776) scale(1,-1) translate(50,-110)"
    />
  
  <line
    x1="20.06527686460961"
    y1="77.30622854526962"
    x2="39.61893639034317"
    y2="87.96937364201396"
    stroke="hsla(0,50%,50%,0.6)"
    stroke-width="1"
    transform="translate(-33.2146891132,-100.9107228776) scale(1,-1) translate(50,-110)"
    />
  
  <line
    x1="20.09635598705905"
    y1="77.23630602828771"
    x2="35.52952379717859"
    y2="85.42829916128213"
    stroke="hsla(0,50%,50%,0.6)"
    stroke-width="1"
    transform="translate(-33.2146891132,-100.9107228776) scale(1,-1) translate(50,-110)"
    />
  
  <line
    x1="20.472131147540985"
    y1="76.39087852038672"
    x2="30.26065573770492"
    y2="81.2672131147541"
    stroke="hsla(0,50%,50%,0.6)"
    stroke-width="1"
    transform="translate(-33.2146891132,-100.9107228776) scale(1,-1) translate(50,-110)"
    />
  
  <line
    x1="20.472131147540985"
    y1="76.39087852038672"
    x2="26.71340869264537"
    y2="78.84275267571499"
    stroke="hsla(0,50%,50%,0.6)"
    stroke-width="1"
    transform="translate(-33.2146891132,-100.9107228776) scale(1,-1) translate(50,-110)"
    />
  
  <line
    x1="20.09635598705905"
    y1="77.23630602828771"
    x2="26.461277389463394"
    y2="79.54901981858173"
    stroke="hsla(0,50%,50%,0.6)"
    stroke-width="1"
    transform="translate(-33.2146891132,-100.9107228776) scale(1,-1) translate(50,-110)"
    />
  
  <line
    x1="20.06527686460961"
    y1="77.30622854526962"
    x2="26.461277389463394"
    y2="79.54901981858173"
    stroke="hsla(0,50%,50%,0.6)"
    stroke-width="1"
    transform="translate(-33.2146891132,-100.9107228776) scale(1,-1) translate(50,-110)"
    />
  
  <line
    x1="20.30002503431561"
    y1="76.77808677069268"
    x2="26.71340869264537"
    y2="78.84275267571499"
    stroke="hsla(0,50%,50%,0.6)"
    stroke-width="1"
    transform="translate(-33.2146891132,-100.9107228776) scale(1,-1) translate(50,-110)"
    />
  
  <line
    x1="14.554778554778554"
    y1="89.7038730500269"
    x2="71.29190081595073"
    y2="92.19781249007842"
    stroke="hsla(0,50%,50%,0.6)"
    stroke-width="1"
    transform="translate(-33.2146891132,-100.9107228776) scale(1,-1) translate(50,-110)"
    />
  
  <line
    x1="19.807151705349508"
    y1="98.18847583171843"
    x2="86.02524937419551"
    y2="106.1254310490442"
    stroke="hsla(0,50%,50%,0.6)"
    stroke-width="1"
    transform="translate(-33.2146891132,-100.9107228776) scale(1,-1) translate(50,-110)"
    />
  
  <line
    x1="20.928571428571427"
    y1="100"
    x2="79.54545454545455"
    y2="100"
    stroke="hsla(0,50%,50%,0.6)"
    stroke-width="1"
    transform="translate(-33.2146891132,-100.9107228776) scale(1,-1) translate(50,-110)"
    />
  
  <line
    x1="84.23473461890845"
    y1="104.43283506943689"
    x2="24.625154227341344"
    y2="105.97140298262832"
    stroke="hsla(0,50%,50%,0.6)"
    stroke-width="1"
    transform="translate(-33.2146891132,-100.9107228776) scale(1,-1) translate(50,-110)"
    />
  
  <line
    x1="87.05865913518011"
    y1="107.10232621372495"
    x2="27.17909054071274"
    y2="110.09699241192058"
    stroke="hsla(0,50%,50%,0.6)"
    stroke-width="1"
    transform="translate(-33.2146891132,-100.9107228776) scale(1,-1) translate(50,-110)"
    />
  
  <line
    x1="74.25463223479112"
    y1="121.6853780655229"
    x2="87.15019822613223"
    y2="121.77129305062115"
    stroke="hsla(0,50%,50%,0.6)"
    stroke-width="1"
    transform="translate(-33.2146891132,-100.9107228776) scale(1,-1) translate(50,-110)"
    />
  
  <line
    x1="87.15019822613223"
    y1="121.77129305062115"
    x2="74.28800593655448"
    y2="122.01754088425982"
    stroke="hsla(0,50%,50%,0.6)"
    stroke-width="1"
    transform="translate(-33.2146891132,-100.9107228776) scale(1,-1) translate(50,-110)"
    />
  
  <line
    x1="84.75496999635602"
    y1="121.53771139575761"
    x2="74.27183058064564"
    y2="121.85655029799368"
    stroke="hsla(0,50%,50%,0.6)"
    stroke-width="1"
    transform="translate(-33.2146891132,-100.9107228776) scale(1,-1) translate(50,-110)"
    />
  
  <line
    x1="80.69460112812249"
    y1="120.42224012892828"
    x2="74.16463764009292"
    y2="120.78967705944338"
    stroke="hsla(0,50%,50%,0.6)"
    stroke-width="1"
    transform="translate(-33.2146891132,-100.9107228776) scale(1,-1) translate(50,-110)"
    />
  
  <line
    x1="88.26292779056635"
    y1="118.74442875789369"
    x2="74.16463764009292"
    y2="120.78967705944338"
    stroke="hsla(0,50%,50%,0.6)"
    stroke-width="1"
    transform="translate(-33.2146891132,-100.9107228776) scale(1,-1) translate(50,-110)"
    />
  
  <line
    x1="88.38551181333001"
    y1="119.43572000469628"
    x2="74.27183058064564"
    y2="121.85655029799368"
    stroke="hsla(0,50%,50%,0.6)"
    stroke-width="1"
    transform="translate(-33.2146891132,-100.9107228776) scale(1,-1) translate(50,-110)"
    />
  
  <line
    x1="88.38551181333001"
    y1="119.43572000469628"
    x2="74.28800593655448"
    y2="122.01754088425982"
    stroke="hsla(0,50%,50%,0.6)"
    stroke-width="1"
    transform="translate(-33.2146891132,-100.9107228776) scale(1,-1) translate(50,-110)"
    />
  
  <line
    x1="88.26292779056635"
    y1="118.74442875789369"
    x2="74.25463223479112"
    y2="121.6853780655229"
    stroke="hsla(0,50%,50%,0.6)"
    stroke-width="1"
    transform="translate(-33.2146891132,-100.9107228776) scale(1,-1) translate(50,-110)"
    />
  
</svg>
