<?xml version="1.0"?>
<!DOCTYPE svg PUBLIC "-//W3C//DTD SVG 1.1//EN"
  "http://www.w3.org/Graphics/SVG/1.1/DTD/svg11.dtd">
<svg
  width="240"
  height="240"
  viewBox="-50 -50 200 200" xmlns="http://www.w3.org/2000/svg" version="1.1">
  <rect
    x="0"
    y="0"
    width="100"
    height="100"
    fill="hsla(206,100%,53%,0.3)"
    stroke="hsl(206,100%,53%)"
    stroke-width="3"
    transform="" />
  
  <path
    d="M 
      113.4647527283
      4.6996362206
      L
    
      115.3523029273
      5.6565690878
      L
    
      116.3779511414
      26.6315076036
      L
    
      116.2311478097
      26.6386861025
      L
    
      123.6154115586
      85.1999999999
      L
    
      132.4000000000
      85.1999999999
      L
    
      132.4000000000
      107.1999999999
      L
    
      126.7925233644
      110.3962616822
      L
    
      59.7169774288
      76.8584887144
      L
    
      63.4263157894
      67.9017543859
      L
    
      50
      50
      L
    
      63.3333333333
      40.0000000000
      z
    "
    fill="hsla(0,0%,50%,0.3)"
    stroke="hsla(0,0%,50%,1)"
    stroke-width="1"
    transform="translate(-63.8279226676,-51.9977882767) scale(1,-1) translate(50,-110)"
    />
  
  
  <line
    x1="113.4647527283453"
    y1="4.6996362206272755"
    x2="115.35230292736537"
    y2="5.656569087820965"
    stroke="hsla(0,50%,50%,0.6)"
    stroke-width="1"
    transform="translate(-63.8279226676,-51.9977882767) scale(1,-1) translate(50,-110)"
    />
  
  <line
    x1="113.4647527283453"
    y1="4.6996362206272755"
    x2="126.79252336448597"
    y2="110.39626168224298"
    stroke="hsla(0,50%,50%,0.6)"
    stroke-width="1"
    transform="translate(-63.8279226676,-51.9977882767) scale(1,-1) translate(50,-110)"
    />
  
  <line
    x1="50"
    y1="50"
    x2="76.4"
    y2="85.2"
    stroke="hsla(0,50%,50%,0.6)"
    stroke-width="1"
    transform="translate(-63.8279226676,-51.9977882767) scale(1,-1) translate(50,-110)"
    />
  
  <line
    x1="115.35230292736537"
    y1="5.656569087820965"
    x2="116.37795114142914"
    y2="26.6315076036066"
    stroke="hsla(0,50%,50%,0.6)"
    stroke-width="1"
    transform="translate(-63.8279226676,-51.9977882767) scale(1,-1) translate(50,-110)"
    />
  
  <line
    x1="132.4"
    y1="85.2"
    x2="132.4"
    y2="107.2"
    stroke="hsla(0,50%,50%,0.6)"
    stroke-width="1"
    transform="translate(-63.8279226676,-51.9977882767) scale(1,-1) translate(50,-110)"
    />
  
  <line
    x1="65.28550079251265"
    y1="67.45526454826779"
    x2="132.4"
    y2="107.2"
    stroke="hsla(0,50%,50%,0.6)"
    stroke-width="1"
    transform="translate(-63.8279226676,-51.9977882767) scale(1,-1) translate(50,-110)"
    />
  
  <line
    x1="116.37795114142914"
    y1="26.6315076036066"
    x2="79.77675172705486"
    y2="28.421260397575075"
    stroke="hsla(0,50%,50%,0.6)"
    stroke-width="1"
    transform="translate(-63.8279226676,-51.9977882767) scale(1,-1) translate(50,-110)"
    />
  
  <line
    x1="79.77675172705486"
    y1="28.421260397575075"
    x2="59.71697742885181"
    y2="76.85848871442592"
    stroke="hsla(0,50%,50%,0.6)"
    stroke-width="1"
    transform="translate(-63.8279226676,-51.9977882767) scale(1,-1) translate(50,-110)"
    />
  
  <line
    x1="59.71697742885181"
    y1="76.85848871442592"
    x2="126.79252336448597"
    y2="110.39626168224298"
    stroke="hsla(0,50%,50%,0.6)"
    stroke-width="1"
    transform="translate(-63.8279226676,-51.9977882767) scale(1,-1) translate(50,-110)"
    />
  
  <line
    x1="65.28550079251265"
    y1="67.45526454826779"
    x2="59.71697742885181"
    y2="76.85848871442592"
    stroke="hsla(0,50%,50%,0.6)"
    stroke-width="1"
    transform="translate(-63.8279226676,-51.9977882767) scale(1,-1) translate(50,-110)"
    />
  
  <line
    x1="63.333333333333336"
    y1="40"
    x2="50"
    y2="50"
    stroke="hsla(0,50%,50%,0.6)"
    stroke-width="1"
    transform="translate(-63.8279226676,-51.9977882767) scale(1,-1) translate(50,-110)"
    />
  
  <line
    x1="113.4647527283453"
    y1="4.6996362206272755"
    x2="63.333333333333336"
    y2="40"
    stroke="hsla(0,50%,50%,0.6)"
    stroke-width="1"
    transform="translate(-63.8279226676,-51.9977882767) scale(1,-1) translate(50,-110)"
    />
  
  <line
    x1="115.35230292736537"
    y1="5.656569087820965"
    x2="63.333333333333336"
    y2="40"
    stroke="hsla(0,50%,50%,0.6)"
    stroke-width="1"
    transform="translate(-63.8279226676,-51.9977882767) scale(1,-1) translate(50,-110)"
    />
  
  <line
    x1="76.4"
    y1="85.2"
    x2="132.4"
    y2="85.2"
    stroke="hsla(0,50%,50%,0.6)"
    stroke-width="1"
    transform="translate(-63.8279226676,-51.9977882767) scale(1,-1) translate(50,-110)"
    />
  
  <line
    x1="132.4"
    y1="107.2"
    x2="126.79252336448597"
    y2="110.39626168224298"
    stroke="hsla(0,50%,50%,0.6)"
    stroke-width="1"
    transform="translate(-63.8279226676,-51.9977882767) scale(1,-1) translate(50,-110)"
    />
  
</svg>
