<?xml version="1.0"?>
<!DOCTYPE svg PUBLIC "-//W3C//DTD SVG 1.1//EN"
  "http://www.w3.org/Graphics/SVG/1.1/DTD/svg11.dtd">
<svg
  width="240"
  height="240"
  viewBox="-50 -50 200 200" xmlns="http://www.w3.org/2000/svg" version="1.1">
  <rect
    x="0"
    y="0"
    width="100"
    height="100"
    fill="hsla(206,100%,53%,0.3)"
    stroke="hsl(206,100%,53%)"
    stroke-width="3"
    transform="" />
  
  <path
    d="M 
      199147920181.0512224917
      10251061843.0730399978
      L
    
      199147920247.9249737508
      10251061886.2857324669
      L
    
      199147920251.2455516014
      10251061883.9857651245
      L
    
      199147920256.8195908949
      10251061892.0332843545
      L
    
      199147920188.9061154913
      10251061962.1612997124
      L
    
      199147920185.2523760343
      10251061964.8487763315
      L
    
      199147920133.7771585417
      10251061931.5863571998
      L
    
      199147920144.8690385137
      10251061899.0667361343
      z
    "
    fill="hsla(0,0%,50%,0.3)"
    stroke="hsla(0,0%,50%,1)"
    stroke-width="1"
    transform="translate(-199147920156.1446886072,-10251061918.3700687666) scale(1,-1) translate(50,-110)"
    />
  
  
  <line
    x1="199147920181.13147"
    y1="10251061950.031395"
    x2="199147920189.87634"
    y2="10251061961.15942"
    stroke="hsla(0,50%,50%,0.6)"
    stroke-width="1"
    transform="translate(-199147920156.1446886072,-10251061918.3700687666) scale(1,-1) translate(50,-110)"
    />
  
  <line
    x1="199147920251.24554"
    y1="10251061883.985765"
    x2="199147920256.8196"
    y2="10251061892.033285"
    stroke="hsla(0,50%,50%,0.6)"
    stroke-width="1"
    transform="translate(-199147920156.1446886072,-10251061918.3700687666) scale(1,-1) translate(50,-110)"
    />
  
  <line
    x1="199147920189.6716"
    y1="10251061960.835499"
    x2="199147920189.88687"
    y2="10251061961.148579"
    stroke="hsla(0,50%,50%,0.6)"
    stroke-width="1"
    transform="translate(-199147920156.1446886072,-10251061918.3700687666) scale(1,-1) translate(50,-110)"
    />
  
  <line
    x1="199147920189.6892"
    y1="10251061961.021818"
    x2="199147920189.87634"
    y2="10251061961.15942"
    stroke="hsla(0,50%,50%,0.6)"
    stroke-width="1"
    transform="translate(-199147920156.1446886072,-10251061918.3700687666) scale(1,-1) translate(50,-110)"
    />
  
  <line
    x1="199147920181.05124"
    y1="10251061843.07304"
    x2="199147920256.8196"
    y2="10251061892.033285"
    stroke="hsla(0,50%,50%,0.6)"
    stroke-width="1"
    transform="translate(-199147920156.1446886072,-10251061918.3700687666) scale(1,-1) translate(50,-110)"
    />
  
  <line
    x1="199147920133.77716"
    y1="10251061931.586357"
    x2="199147920185.25238"
    y2="10251061964.848778"
    stroke="hsla(0,50%,50%,0.6)"
    stroke-width="1"
    transform="translate(-199147920156.1446886072,-10251061918.3700687666) scale(1,-1) translate(50,-110)"
    />
  
  <line
    x1="199147920189.6892"
    y1="10251061961.021818"
    x2="199147920189.88687"
    y2="10251061961.148579"
    stroke="hsla(0,50%,50%,0.6)"
    stroke-width="1"
    transform="translate(-199147920156.1446886072,-10251061918.3700687666) scale(1,-1) translate(50,-110)"
    />
  
  <line
    x1="199147920181.13147"
    y1="10251061950.031395"
    x2="199147920185.25238"
    y2="10251061964.848778"
    stroke="hsla(0,50%,50%,0.6)"
    stroke-width="1"
    transform="translate(-199147920156.1446886072,-10251061918.3700687666) scale(1,-1) translate(50,-110)"
    />
  
  <line
    x1="199147920133.77716"
    y1="10251061931.586357"
    x2="199147920142.0813"
    y2="10251061932.283293"
    stroke="hsla(0,50%,50%,0.6)"
    stroke-width="1"
    transform="translate(-199147920156.1446886072,-10251061918.3700687666) scale(1,-1) translate(50,-110)"
    />
  
  <line
    x1="199147920144.86902"
    y1="10251061899.066736"
    x2="199147920142.0813"
    y2="10251061932.283293"
    stroke="hsla(0,50%,50%,0.6)"
    stroke-width="1"
    transform="translate(-199147920156.1446886072,-10251061918.3700687666) scale(1,-1) translate(50,-110)"
    />
  
  <line
    x1="199147920234.80426"
    y1="10251061895.373665"
    x2="199147920233.61975"
    y2="10251061900.231335"
    stroke="hsla(0,50%,50%,0.6)"
    stroke-width="1"
    transform="translate(-199147920156.1446886072,-10251061918.3700687666) scale(1,-1) translate(50,-110)"
    />
  
  <line
    x1="199147920144.86902"
    y1="10251061899.066736"
    x2="199147920133.77716"
    y2="10251061931.586357"
    stroke="hsla(0,50%,50%,0.6)"
    stroke-width="1"
    transform="translate(-199147920156.1446886072,-10251061918.3700687666) scale(1,-1) translate(50,-110)"
    />
  
  <line
    x1="199147920233.61975"
    y1="10251061900.231335"
    x2="199147920219.43036"
    y2="10251061930.641735"
    stroke="hsla(0,50%,50%,0.6)"
    stroke-width="1"
    transform="translate(-199147920156.1446886072,-10251061918.3700687666) scale(1,-1) translate(50,-110)"
    />
  
  <line
    x1="199147920219.43036"
    y1="10251061930.641735"
    x2="199147920181.13147"
    y2="10251061950.031395"
    stroke="hsla(0,50%,50%,0.6)"
    stroke-width="1"
    transform="translate(-199147920156.1446886072,-10251061918.3700687666) scale(1,-1) translate(50,-110)"
    />
  
  <line
    x1="199147920200.6177"
    y1="10251061945.11947"
    x2="199147920191.22305"
    y2="10251061959.768795"
    stroke="hsla(0,50%,50%,0.6)"
    stroke-width="1"
    transform="translate(-199147920156.1446886072,-10251061918.3700687666) scale(1,-1) translate(50,-110)"
    />
  
  <line
    x1="199147920181.05124"
    y1="10251061843.07304"
    x2="199147920144.86902"
    y2="10251061899.066736"
    stroke="hsla(0,50%,50%,0.6)"
    stroke-width="1"
    transform="translate(-199147920156.1446886072,-10251061918.3700687666) scale(1,-1) translate(50,-110)"
    />
  
  <line
    x1="199147920234.80426"
    y1="10251061895.373665"
    x2="199147920188.90613"
    y2="10251061962.1613"
    stroke="hsla(0,50%,50%,0.6)"
    stroke-width="1"
    transform="translate(-199147920156.1446886072,-10251061918.3700687666) scale(1,-1) translate(50,-110)"
    />
  
  <line
    x1="199147920233.61975"
    y1="10251061900.231335"
    x2="199147920200.6177"
    y2="10251061945.11947"
    stroke="hsla(0,50%,50%,0.6)"
    stroke-width="1"
    transform="translate(-199147920156.1446886072,-10251061918.3700687666) scale(1,-1) translate(50,-110)"
    />
  
  <line
    x1="199147920191.22305"
    y1="10251061959.768795"
    x2="199147920189.6716"
    y2="10251061960.835499"
    stroke="hsla(0,50%,50%,0.6)"
    stroke-width="1"
    transform="translate(-199147920156.1446886072,-10251061918.3700687666) scale(1,-1) translate(50,-110)"
    />
  
  <line
    x1="199147920251.24554"
    y1="10251061883.985765"
    x2="199147920234.80426"
    y2="10251061895.373665"
    stroke="hsla(0,50%,50%,0.6)"
    stroke-width="1"
    transform="translate(-199147920156.1446886072,-10251061918.3700687666) scale(1,-1) translate(50,-110)"
    />
  
  <line
    x1="199147920188.90613"
    y1="10251061962.1613"
    x2="199147920185.25238"
    y2="10251061964.848778"
    stroke="hsla(0,50%,50%,0.6)"
    stroke-width="1"
    transform="translate(-199147920156.1446886072,-10251061918.3700687666) scale(1,-1) translate(50,-110)"
    />
  
  <line
    x1="199147920256.8196"
    y1="10251061892.033285"
    x2="199147920188.90613"
    y2="10251061962.1613"
    stroke="hsla(0,50%,50%,0.6)"
    stroke-width="1"
    transform="translate(-199147920156.1446886072,-10251061918.3700687666) scale(1,-1) translate(50,-110)"
    />
  
</svg>
