<?xml version="1.0"?>
<!DOCTYPE svg PUBLIC "-//W3C//DTD SVG 1.1//EN"
  "http://www.w3.org/Graphics/SVG/1.1/DTD/svg11.dtd">
<svg
  width="240"
  height="240"
  viewBox="-500 -500 1000 1000" xmlns="http://www.w3.org/2000/svg" version="1.1">
  <rect
    x="0"
    y="0"
    width="100"
    height="100"
    fill="hsla(206,100%,53%,0.3)"
    stroke="hsl(206,100%,53%)"
    stroke-width="3"
    transform="" />
  
  <path
    d="M 
      167349837213.0794927542
      -103857353393.1649330536
      L
    
      167349837224.3724104077
      -103857353375.7817439912
      L
    
      167349837241.2963189433
      -103857353354.5199951082
      L
    
      167349837239.2711661994
      -103857353352.8480879895
      L
    
      167349837241.0866436063
      -103857353350.0535234693
      L
    
      167349837202.5631986157
      -103857353315.6289492641
      L
    
      167349837170.6629459924
      -103857353340.9296309711
      L
    
      167349837186.0239193245
      -103857353361.0241801247
      L
    
      167349837183.8561905663
      -103857353364.3883424825
      L
    
      167349837193.1962315136
      -103857353370.4066832195
      L
    
      167349837194.1031037765
      -103857353369.4239241409
      L
    
      167349837203.5619759757
      -103857353380.9223056784
      L
    
      167349837208.8781127781
      -103857353376.5491112037
      L
    
      167349837211.4027868774
      -103857353392.0756679408
      z
    "
    fill="hsla(0,0%,50%,0.3)"
    stroke="hsla(0,0%,50%,1)"
    stroke-width="1"
    transform="translate(-167349837205.9796324679,103857353354.3969411589)"
    />
  
  
  <line
    x1="167349837230.3254"
    y1="-103857353352.75609"
    x2="167349837235.3814"
    y2="-103857353349.6368"
    stroke="hsla(0,50%,50%,0.6)"
    stroke-width="1"
    transform="translate(-167349837205.9796324679,103857353354.3969411589)"
    />
  
  <line
    x1="167349837170.66296"
    y1="-103857353340.92963"
    x2="167349837202.5632"
    y2="-103857353315.62894"
    stroke="hsla(0,50%,50%,0.6)"
    stroke-width="1"
    transform="translate(-167349837205.9796324679,103857353354.3969411589)"
    />
  
  <line
    x1="167349837201.3732"
    y1="-103857353330.39455"
    x2="167349837210.62994"
    y2="-103857353322.83739"
    stroke="hsla(0,50%,50%,0.6)"
    stroke-width="1"
    transform="translate(-167349837205.9796324679,103857353354.3969411589)"
    />
  
  <line
    x1="167349837203.56198"
    y1="-103857353380.9223"
    x2="167349837241.08664"
    y2="-103857353350.05353"
    stroke="hsla(0,50%,50%,0.6)"
    stroke-width="1"
    transform="translate(-167349837205.9796324679,103857353354.3969411589)"
    />
  
  <line
    x1="167349837193.19623"
    y1="-103857353370.4067"
    x2="167349837225.13306"
    y2="-103857353335.79738"
    stroke="hsla(0,50%,50%,0.6)"
    stroke-width="1"
    transform="translate(-167349837205.9796324679,103857353354.3969411589)"
    />
  
  <line
    x1="167349837205.87155"
    y1="-103857353358.05884"
    x2="167349837225.13306"
    y2="-103857353335.79738"
    stroke="hsla(0,50%,50%,0.6)"
    stroke-width="1"
    transform="translate(-167349837205.9796324679,103857353354.3969411589)"
    />
  
  <line
    x1="167349837227.36105"
    y1="-103857353370.79858"
    x2="167349837241.29633"
    y2="-103857353354.51999"
    stroke="hsla(0,50%,50%,0.6)"
    stroke-width="1"
    transform="translate(-167349837205.9796324679,103857353354.3969411589)"
    />
  
  <line
    x1="167349837211.40277"
    y1="-103857353392.07567"
    x2="167349837241.29633"
    y2="-103857353354.51999"
    stroke="hsla(0,50%,50%,0.6)"
    stroke-width="1"
    transform="translate(-167349837205.9796324679,103857353354.3969411589)"
    />
  
  <line
    x1="167349837213.0795"
    y1="-103857353393.16493"
    x2="167349837241.08664"
    y2="-103857353350.05353"
    stroke="hsla(0,50%,50%,0.6)"
    stroke-width="1"
    transform="translate(-167349837205.9796324679,103857353354.3969411589)"
    />
  
  <line
    x1="167349837183.8562"
    y1="-103857353364.38834"
    x2="167349837210.62994"
    y2="-103857353322.83739"
    stroke="hsla(0,50%,50%,0.6)"
    stroke-width="1"
    transform="translate(-167349837205.9796324679,103857353354.3969411589)"
    />
  
  <line
    x1="167349837199.71408"
    y1="-103857353320.19089"
    x2="167349837202.5632"
    y2="-103857353315.62894"
    stroke="hsla(0,50%,50%,0.6)"
    stroke-width="1"
    transform="translate(-167349837205.9796324679,103857353354.3969411589)"
    />
  
  <line
    x1="167349837227.36105"
    y1="-103857353370.79858"
    x2="167349837235.3814"
    y2="-103857353349.6368"
    stroke="hsla(0,50%,50%,0.6)"
    stroke-width="1"
    transform="translate(-167349837205.9796324679,103857353354.3969411589)"
    />
  
  <line
    x1="167349837221.15488"
    y1="-103857353337.8918"
    x2="167349837201.3732"
    y2="-103857353330.39455"
    stroke="hsla(0,50%,50%,0.6)"
    stroke-width="1"
    transform="translate(-167349837205.9796324679,103857353354.3969411589)"
    />
  
  <line
    x1="167349837227.36105"
    y1="-103857353370.79858"
    x2="167349837205.87155"
    y2="-103857353358.05884"
    stroke="hsla(0,50%,50%,0.6)"
    stroke-width="1"
    transform="translate(-167349837205.9796324679,103857353354.3969411589)"
    />
  
  <line
    x1="167349837193.19623"
    y1="-103857353370.4067"
    x2="167349837183.8562"
    y2="-103857353364.38834"
    stroke="hsla(0,50%,50%,0.6)"
    stroke-width="1"
    transform="translate(-167349837205.9796324679,103857353354.3969411589)"
    />
  
  <line
    x1="167349837213.0795"
    y1="-103857353393.16493"
    x2="167349837211.40277"
    y2="-103857353392.07567"
    stroke="hsla(0,50%,50%,0.6)"
    stroke-width="1"
    transform="translate(-167349837205.9796324679,103857353354.3969411589)"
    />
  
  <line
    x1="167349837241.29633"
    y1="-103857353354.51999"
    x2="167349837199.71408"
    y2="-103857353320.19089"
    stroke="hsla(0,50%,50%,0.6)"
    stroke-width="1"
    transform="translate(-167349837205.9796324679,103857353354.3969411589)"
    />
  
  <line
    x1="167349837211.40277"
    y1="-103857353392.07567"
    x2="167349837199.71408"
    y2="-103857353320.19089"
    stroke="hsla(0,50%,50%,0.6)"
    stroke-width="1"
    transform="translate(-167349837205.9796324679,103857353354.3969411589)"
    />
  
  <line
    x1="167349837241.08664"
    y1="-103857353350.05353"
    x2="167349837202.5632"
    y2="-103857353315.62894"
    stroke="hsla(0,50%,50%,0.6)"
    stroke-width="1"
    transform="translate(-167349837205.9796324679,103857353354.3969411589)"
    />
  
  <line
    x1="167349837203.56198"
    y1="-103857353380.9223"
    x2="167349837170.66296"
    y2="-103857353340.92963"
    stroke="hsla(0,50%,50%,0.6)"
    stroke-width="1"
    transform="translate(-167349837205.9796324679,103857353354.3969411589)"
    />
  
  <line
    x1="167349837193.19623"
    y1="-103857353370.4067"
    x2="167349837170.66296"
    y2="-103857353340.92963"
    stroke="hsla(0,50%,50%,0.6)"
    stroke-width="1"
    transform="translate(-167349837205.9796324679,103857353354.3969411589)"
    />
  
  <line
    x1="167349837230.3254"
    y1="-103857353352.75609"
    x2="167349837221.15488"
    y2="-103857353337.8918"
    stroke="hsla(0,50%,50%,0.6)"
    stroke-width="1"
    transform="translate(-167349837205.9796324679,103857353354.3969411589)"
    />
  
</svg>
