<?xml version="1.0"?>
<!DOCTYPE svg PUBLIC "-//W3C//DTD SVG 1.1//EN"
  "http://www.w3.org/Graphics/SVG/1.1/DTD/svg11.dtd">
<svg
  width="240"
  height="240"
  viewBox="-50 -50 200 200" xmlns="http://www.w3.org/2000/svg" version="1.1">
  <rect
    x="0"
    y="0"
    width="100"
    height="100"
    fill="hsla(206,100%,53%,0.3)"
    stroke="hsl(206,100%,53%)"
    stroke-width="3"
    transform="" />
  
  <path
    d="M 
      104379586193.9325842696
      -38736526888.7078651685
      L
    
      104379586216.4044943820
      -38736526877.7528089887
      L
    
      104379586201.7977528089
      -38736526847.7902621722
      L
    
      104379586208.0898876404
      -38736526815.0561797752
      L
    
      104379586183.5393258426
      -38736526810.3370786516
      L
    
      104379586172.5842696629
      -38736526787.8651685393
      L
    
      104379586158.3914843287
      -38736526794.7841513897
      L
    
      104379586163.3319461783
      -38736526884.3972811763
      z
    "
    fill="hsla(0,0%,50%,0.3)"
    stroke="hsla(0,0%,50%,1)"
    stroke-width="1"
    transform="translate(-104379586167.1697430477,38736526842.5415944000) scale(1,-1) translate(50,-110)"
    />
  
  
  <line
    x1="104379586193.93259"
    y1="-38736526888.70786"
    x2="104379586216.4045"
    y2="-38736526877.75281"
    stroke="hsla(0,50%,50%,0.6)"
    stroke-width="1"
    transform="translate(-104379586167.1697430477,38736526842.5415944000) scale(1,-1) translate(50,-110)"
    />
  
  <line
    x1="104379586158.39148"
    y1="-38736526794.78415"
    x2="104379586172.58427"
    y2="-38736526787.865166"
    stroke="hsla(0,50%,50%,0.6)"
    stroke-width="1"
    transform="translate(-104379586167.1697430477,38736526842.5415944000) scale(1,-1) translate(50,-110)"
    />
  
  <line
    x1="104379586164.5033"
    y1="-38736526881.032135"
    x2="104379586178.88853"
    y2="-38736526866.26512"
    stroke="hsla(0,50%,50%,0.6)"
    stroke-width="1"
    transform="translate(-104379586167.1697430477,38736526842.5415944000) scale(1,-1) translate(50,-110)"
    />
  
  <line
    x1="104379586158.98877"
    y1="-38736526805.61798"
    x2="104379586174.91077"
    y2="-38736526800.69178"
    stroke="hsla(0,50%,50%,0.6)"
    stroke-width="1"
    transform="translate(-104379586167.1697430477,38736526842.5415944000) scale(1,-1) translate(50,-110)"
    />
  
  <line
    x1="104379586164.5033"
    y1="-38736526881.032135"
    x2="104379586176.26013"
    y2="-38736526862.01171"
    stroke="hsla(0,50%,50%,0.6)"
    stroke-width="1"
    transform="translate(-104379586167.1697430477,38736526842.5415944000) scale(1,-1) translate(50,-110)"
    />
  
  <line
    x1="104379586173.52951"
    y1="-38736526866.42936"
    x2="104379586178.25114"
    y2="-38736526866.12886"
    stroke="hsla(0,50%,50%,0.6)"
    stroke-width="1"
    transform="translate(-104379586167.1697430477,38736526842.5415944000) scale(1,-1) translate(50,-110)"
    />
  
  <line
    x1="104379586163.33194"
    y1="-38736526884.39728"
    x2="104379586164.5033"
    y2="-38736526881.032135"
    stroke="hsla(0,50%,50%,0.6)"
    stroke-width="1"
    transform="translate(-104379586167.1697430477,38736526842.5415944000) scale(1,-1) translate(50,-110)"
    />
  
  <line
    x1="104379586196.17921"
    y1="-38736526863.80901"
    x2="104379586176.26013"
    y2="-38736526862.01171"
    stroke="hsla(0,50%,50%,0.6)"
    stroke-width="1"
    transform="translate(-104379586167.1697430477,38736526842.5415944000) scale(1,-1) translate(50,-110)"
    />
  
  <line
    x1="104379586173.0646"
    y1="-38736526885.76828"
    x2="104379586178.25114"
    y2="-38736526866.12886"
    stroke="hsla(0,50%,50%,0.6)"
    stroke-width="1"
    transform="translate(-104379586167.1697430477,38736526842.5415944000) scale(1,-1) translate(50,-110)"
    />
  
  <line
    x1="104379586193.93259"
    y1="-38736526888.70786"
    x2="104379586163.33194"
    y2="-38736526884.39728"
    stroke="hsla(0,50%,50%,0.6)"
    stroke-width="1"
    transform="translate(-104379586167.1697430477,38736526842.5415944000) scale(1,-1) translate(50,-110)"
    />
  
  <line
    x1="104379586193.93259"
    y1="-38736526888.70786"
    x2="104379586208.08989"
    y2="-38736526815.05618"
    stroke="hsla(0,50%,50%,0.6)"
    stroke-width="1"
    transform="translate(-104379586167.1697430477,38736526842.5415944000) scale(1,-1) translate(50,-110)"
    />
  
  <line
    x1="104379586208.08989"
    y1="-38736526815.05618"
    x2="104379586158.98877"
    y2="-38736526805.61798"
    stroke="hsla(0,50%,50%,0.6)"
    stroke-width="1"
    transform="translate(-104379586167.1697430477,38736526842.5415944000) scale(1,-1) translate(50,-110)"
    />
  
  <line
    x1="104379586193.93259"
    y1="-38736526888.70786"
    x2="104379586196.17921"
    y2="-38736526863.80901"
    stroke="hsla(0,50%,50%,0.6)"
    stroke-width="1"
    transform="translate(-104379586167.1697430477,38736526842.5415944000) scale(1,-1) translate(50,-110)"
    />
  
  <line
    x1="104379586173.0646"
    y1="-38736526885.76828"
    x2="104379586174.91077"
    y2="-38736526800.69178"
    stroke="hsla(0,50%,50%,0.6)"
    stroke-width="1"
    transform="translate(-104379586167.1697430477,38736526842.5415944000) scale(1,-1) translate(50,-110)"
    />
  
  <line
    x1="104379586174.91077"
    y1="-38736526800.69178"
    x2="104379586158.39148"
    y2="-38736526794.78415"
    stroke="hsla(0,50%,50%,0.6)"
    stroke-width="1"
    transform="translate(-104379586167.1697430477,38736526842.5415944000) scale(1,-1) translate(50,-110)"
    />
  
  <line
    x1="104379586175.10294"
    y1="-38736526870.151184"
    x2="104379586171.98491"
    y2="-38736526868.92823"
    stroke="hsla(0,50%,50%,0.6)"
    stroke-width="1"
    transform="translate(-104379586167.1697430477,38736526842.5415944000) scale(1,-1) translate(50,-110)"
    />
  
  <line
    x1="104379586163.33194"
    y1="-38736526884.39728"
    x2="104379586158.39148"
    y2="-38736526794.78415"
    stroke="hsla(0,50%,50%,0.6)"
    stroke-width="1"
    transform="translate(-104379586167.1697430477,38736526842.5415944000) scale(1,-1) translate(50,-110)"
    />
  
  <line
    x1="104379586178.88853"
    y1="-38736526866.26512"
    x2="104379586175.02257"
    y2="-38736526864.01386"
    stroke="hsla(0,50%,50%,0.6)"
    stroke-width="1"
    transform="translate(-104379586167.1697430477,38736526842.5415944000) scale(1,-1) translate(50,-110)"
    />
  
  <line
    x1="104379586178.25114"
    y1="-38736526866.12886"
    x2="104379586175.02257"
    y2="-38736526864.01386"
    stroke="hsla(0,50%,50%,0.6)"
    stroke-width="1"
    transform="translate(-104379586167.1697430477,38736526842.5415944000) scale(1,-1) translate(50,-110)"
    />
  
  <line
    x1="104379586193.93259"
    y1="-38736526888.70786"
    x2="104379586171.98491"
    y2="-38736526868.92823"
    stroke="hsla(0,50%,50%,0.6)"
    stroke-width="1"
    transform="translate(-104379586167.1697430477,38736526842.5415944000) scale(1,-1) translate(50,-110)"
    />
  
  <line
    x1="104379586175.10294"
    y1="-38736526870.151184"
    x2="104379586173.52951"
    y2="-38736526866.42936"
    stroke="hsla(0,50%,50%,0.6)"
    stroke-width="1"
    transform="translate(-104379586167.1697430477,38736526842.5415944000) scale(1,-1) translate(50,-110)"
    />
  
  <line
    x1="104379586216.4045"
    y1="-38736526877.75281"
    x2="104379586172.58427"
    y2="-38736526787.865166"
    stroke="hsla(0,50%,50%,0.6)"
    stroke-width="1"
    transform="translate(-104379586167.1697430477,38736526842.5415944000) scale(1,-1) translate(50,-110)"
    />
  
  <line
    x1="104379586178.88853"
    y1="-38736526866.26512"
    x2="104379586176.26013"
    y2="-38736526862.01171"
    stroke="hsla(0,50%,50%,0.6)"
    stroke-width="1"
    transform="translate(-104379586167.1697430477,38736526842.5415944000) scale(1,-1) translate(50,-110)"
    />
  
</svg>
