<?xml version="1.0"?>
<!DOCTYPE svg PUBLIC "-//W3C//DTD SVG 1.1//EN"
  "http://www.w3.org/Graphics/SVG/1.1/DTD/svg11.dtd">
<svg
  width="240"
  height="240"
  viewBox="-500 -500 1000 1000" xmlns="http://www.w3.org/2000/svg" version="1.1">
  <rect
    x="0"
    y="0"
    width="100"
    height="100"
    fill="hsla(206,100%,53%,0.3)"
    stroke="hsl(206,100%,53%)"
    stroke-width="3"
    transform="" />
  
  <path
    d="M 
      40490816470.6075717914
      87245418603.6990114826
      L
    
      40490816523.2060508762
      87245418663.4722111281
      L
    
      40490816527.0270270270
      87245418662.1621621621
      L
    
      40490816530.2019696786
      87245418671.4224115628
      L
    
      40490816445.7741204101
      87245418720.4338076592
      L
    
      40490816441.5271407865
      87245418722.0261350988
      L
    
      40490816401.0401320620
      87245418676.0164766895
      L
    
      40490816420.5591998212
      87245418647.7399572897
      z
    "
    fill="hsla(0,0%,50%,0.3)"
    stroke="hsla(0,0%,50%,1)"
    stroke-width="1"
    transform="translate(-40490816465.6210508703,-87245418662.8625732907)"
    />
  
  
  <line
    x1="40490816446.87136"
    y1="87245418719.36621"
    x2="40490816446.99335"
    y2="87245418719.72603"
    stroke="hsla(0,50%,50%,0.6)"
    stroke-width="1"
    transform="translate(-40490816465.6210508703,-87245418662.8625732907)"
    />
  
  <line
    x1="40490816527.02702"
    y1="87245418662.16216"
    x2="40490816530.20197"
    y2="87245418671.42241"
    stroke="hsla(0,50%,50%,0.6)"
    stroke-width="1"
    transform="translate(-40490816465.6210508703,-87245418662.8625732907)"
    />
  
  <line
    x1="40490816441.591965"
    y1="87245418706.64653"
    x2="40490816446.98029"
    y2="87245418719.73361"
    stroke="hsla(0,50%,50%,0.6)"
    stroke-width="1"
    transform="translate(-40490816465.6210508703,-87245418662.8625732907)"
    />
  
  <line
    x1="40490816441.591965"
    y1="87245418706.64653"
    x2="40490816441.52714"
    y2="87245418722.02614"
    stroke="hsla(0,50%,50%,0.6)"
    stroke-width="1"
    transform="translate(-40490816465.6210508703,-87245418662.8625732907)"
    />
  
  <line
    x1="40490816446.837616"
    y1="87245418719.5503"
    x2="40490816446.98029"
    y2="87245418719.73361"
    stroke="hsla(0,50%,50%,0.6)"
    stroke-width="1"
    transform="translate(-40490816465.6210508703,-87245418662.8625732907)"
    />
  
  <line
    x1="40490816470.60757"
    y1="87245418603.699"
    x2="40490816530.20197"
    y2="87245418671.42241"
    stroke="hsla(0,50%,50%,0.6)"
    stroke-width="1"
    transform="translate(-40490816465.6210508703,-87245418662.8625732907)"
    />
  
  <line
    x1="40490816401.04013"
    y1="87245418676.01648"
    x2="40490816441.52714"
    y2="87245418722.02614"
    stroke="hsla(0,50%,50%,0.6)"
    stroke-width="1"
    transform="translate(-40490816465.6210508703,-87245418662.8625732907)"
    />
  
  <line
    x1="40490816446.837616"
    y1="87245418719.5503"
    x2="40490816446.99335"
    y2="87245418719.72603"
    stroke="hsla(0,50%,50%,0.6)"
    stroke-width="1"
    transform="translate(-40490816465.6210508703,-87245418662.8625732907)"
    />
  
  <line
    x1="40490816420.559204"
    y1="87245418647.73994"
    x2="40490816408.84161"
    y2="87245418678.94588"
    stroke="hsla(0,50%,50%,0.6)"
    stroke-width="1"
    transform="translate(-40490816465.6210508703,-87245418662.8625732907)"
    />
  
  <line
    x1="40490816508.10811"
    y1="87245418668.64865"
    x2="40490816505.646965"
    y2="87245418673.00098"
    stroke="hsla(0,50%,50%,0.6)"
    stroke-width="1"
    transform="translate(-40490816465.6210508703,-87245418662.8625732907)"
    />
  
  <line
    x1="40490816420.559204"
    y1="87245418647.73994"
    x2="40490816401.04013"
    y2="87245418676.01648"
    stroke="hsla(0,50%,50%,0.6)"
    stroke-width="1"
    transform="translate(-40490816465.6210508703,-87245418662.8625732907)"
    />
  
  <line
    x1="40490816505.646965"
    y1="87245418673.00098"
    x2="40490816483.720856"
    y2="87245418698.40527"
    stroke="hsla(0,50%,50%,0.6)"
    stroke-width="1"
    transform="translate(-40490816465.6210508703,-87245418662.8625732907)"
    />
  
  <line
    x1="40490816401.04013"
    y1="87245418676.01648"
    x2="40490816408.84161"
    y2="87245418678.94588"
    stroke="hsla(0,50%,50%,0.6)"
    stroke-width="1"
    transform="translate(-40490816465.6210508703,-87245418662.8625732907)"
    />
  
  <line
    x1="40490816461.679535"
    y1="87245418707.22008"
    x2="40490816448.65449"
    y2="87245418718.76172"
    stroke="hsla(0,50%,50%,0.6)"
    stroke-width="1"
    transform="translate(-40490816465.6210508703,-87245418662.8625732907)"
    />
  
  <line
    x1="40490816470.60757"
    y1="87245418603.699"
    x2="40490816420.559204"
    y2="87245418647.73994"
    stroke="hsla(0,50%,50%,0.6)"
    stroke-width="1"
    transform="translate(-40490816465.6210508703,-87245418662.8625732907)"
    />
  
  <line
    x1="40490816508.10811"
    y1="87245418668.64865"
    x2="40490816445.774124"
    y2="87245418720.4338"
    stroke="hsla(0,50%,50%,0.6)"
    stroke-width="1"
    transform="translate(-40490816465.6210508703,-87245418662.8625732907)"
    />
  
  <line
    x1="40490816505.646965"
    y1="87245418673.00098"
    x2="40490816461.679535"
    y2="87245418707.22008"
    stroke="hsla(0,50%,50%,0.6)"
    stroke-width="1"
    transform="translate(-40490816465.6210508703,-87245418662.8625732907)"
    />
  
  <line
    x1="40490816530.20197"
    y1="87245418671.42241"
    x2="40490816445.774124"
    y2="87245418720.4338"
    stroke="hsla(0,50%,50%,0.6)"
    stroke-width="1"
    transform="translate(-40490816465.6210508703,-87245418662.8625732907)"
    />
  
  <line
    x1="40490816445.774124"
    y1="87245418720.4338"
    x2="40490816441.52714"
    y2="87245418722.02614"
    stroke="hsla(0,50%,50%,0.6)"
    stroke-width="1"
    transform="translate(-40490816465.6210508703,-87245418662.8625732907)"
    />
  
  <line
    x1="40490816527.02702"
    y1="87245418662.16216"
    x2="40490816508.10811"
    y2="87245418668.64865"
    stroke="hsla(0,50%,50%,0.6)"
    stroke-width="1"
    transform="translate(-40490816465.6210508703,-87245418662.8625732907)"
    />
  
  <line
    x1="40490816448.65449"
    y1="87245418718.76172"
    x2="40490816446.87136"
    y2="87245418719.36621"
    stroke="hsla(0,50%,50%,0.6)"
    stroke-width="1"
    transform="translate(-40490816465.6210508703,-87245418662.8625732907)"
    />
  
  <line
    x1="40490816483.720856"
    y1="87245418698.40527"
    x2="40490816441.591965"
    y2="87245418706.64653"
    stroke="hsla(0,50%,50%,0.6)"
    stroke-width="1"
    transform="translate(-40490816465.6210508703,-87245418662.8625732907)"
    />
  
</svg>
