<?xml version="1.0"?>
<!DOCTYPE svg PUBLIC "-//W3C//DTD SVG 1.1//EN"
  "http://www.w3.org/Graphics/SVG/1.1/DTD/svg11.dtd">
<svg
  width="240"
  height="240"
  viewBox="-500 -500 1000 1000" xmlns="http://www.w3.org/2000/svg" version="1.1">
  <rect
    x="0"
    y="0"
    width="100"
    height="100"
    fill="hsla(206,100%,53%,0.3)"
    stroke="hsl(206,100%,53%)"
    stroke-width="3"
    transform="" />
  
  <path
    d="M 
      7282602402.3538923206
      181913728793.3761411467
      L
    
      7282602411.7250217253
      181913728811.8663327301
      L
    
      7282602426.2805429864
      181913728834.8144796380
      L
    
      7282602424.0883606582
      181913728836.2604580921
      L
    
      7282602425.5948866273
      181913728839.2329870788
      L
    
      7282602383.6141332350
      181913728869.3448363706
      L
    
      7282602354.5994874800
      181913728840.7808565362
      L
    
      7282602372.0193705086
      181913728822.4424246877
      L
    
      7282602370.2234629491
      181913728818.8659246700
      L
    
      7282602380.1530243259
      181913728813.8798840575
      L
    
      7282602380.9497119302
      181913728814.9539052719
      L
    
      7282602391.5828914417
      181913728804.5318836475
      L
    
      7282602396.4013863344
      181913728809.4480048201
      L
    
      7282602400.5704098549
      181913728794.2800390269
      z
    "
    fill="hsla(0,0%,50%,0.3)"
    stroke="hsla(0,0%,50%,1)"
    stroke-width="1"
    transform="translate(-7282602390.4400152332,-181913728831.3604887587)"
    />
  
  
  <line
    x1="7282602414.164188"
    y1="181913728817.14026"
    x2="7282602419.877772"
    y2="181913728839.0378"
    stroke="hsla(0,50%,50%,0.6)"
    stroke-width="1"
    transform="translate(-7282602390.4400152332,-181913728831.3604887587)"
    />
  
  <line
    x1="7282602400.57041"
    y1="181913728794.28006"
    x2="7282602381.268686"
    y2="181913728864.5046"
    stroke="hsla(0,50%,50%,0.6)"
    stroke-width="1"
    transform="translate(-7282602390.4400152332,-181913728831.3604887587)"
    />
  
  <line
    x1="7282602381.268686"
    y1="181913728864.5046"
    x2="7282602383.614133"
    y2="181913728869.34485"
    stroke="hsla(0,50%,50%,0.6)"
    stroke-width="1"
    transform="translate(-7282602390.4400152332,-181913728831.3604887587)"
    />
  
  <line
    x1="7282602370.223463"
    y1="181913728818.86594"
    x2="7282602392.404818"
    y2="181913728863.03946"
    stroke="hsla(0,50%,50%,0.6)"
    stroke-width="1"
    transform="translate(-7282602390.4400152332,-181913728831.3604887587)"
    />
  
  <line
    x1="7282602402.353892"
    y1="181913728793.37616"
    x2="7282602425.594887"
    y2="181913728839.233"
    stroke="hsla(0,50%,50%,0.6)"
    stroke-width="1"
    transform="translate(-7282602390.4400152332,-181913728831.3604887587)"
    />
  
  <line
    x1="7282602400.57041"
    y1="181913728794.28006"
    x2="7282602426.280543"
    y2="181913728834.81448"
    stroke="hsla(0,50%,50%,0.6)"
    stroke-width="1"
    transform="translate(-7282602390.4400152332,-181913728831.3604887587)"
    />
  
  <line
    x1="7282602414.164188"
    y1="181913728817.14026"
    x2="7282602426.280543"
    y2="181913728834.81448"
    stroke="hsla(0,50%,50%,0.6)"
    stroke-width="1"
    transform="translate(-7282602390.4400152332,-181913728831.3604887587)"
    />
  
  <line
    x1="7282602391.436578"
    y1="181913728827.51123"
    x2="7282602408.209538"
    y2="181913728851.7031"
    stroke="hsla(0,50%,50%,0.6)"
    stroke-width="1"
    transform="translate(-7282602390.4400152332,-181913728831.3604887587)"
    />
  
  <line
    x1="7282602380.153025"
    y1="181913728813.87988"
    x2="7282602408.209538"
    y2="181913728851.7031"
    stroke="hsla(0,50%,50%,0.6)"
    stroke-width="1"
    transform="translate(-7282602390.4400152332,-181913728831.3604887587)"
    />
  
  <line
    x1="7282602415.18399"
    y1="181913728835.39618"
    x2="7282602404.477884"
    y2="181913728849.19568"
    stroke="hsla(0,50%,50%,0.6)"
    stroke-width="1"
    transform="translate(-7282602390.4400152332,-181913728831.3604887587)"
    />
  
  <line
    x1="7282602391.582891"
    y1="181913728804.5319"
    x2="7282602425.594887"
    y2="181913728839.233"
    stroke="hsla(0,50%,50%,0.6)"
    stroke-width="1"
    transform="translate(-7282602390.4400152332,-181913728831.3604887587)"
    />
  
  <line
    x1="7282602384.008459"
    y1="181913728854.53662"
    x2="7282602392.404818"
    y2="181913728863.03946"
    stroke="hsla(0,50%,50%,0.6)"
    stroke-width="1"
    transform="translate(-7282602390.4400152332,-181913728831.3604887587)"
    />
  
  <line
    x1="7282602354.599487"
    y1="181913728840.78085"
    x2="7282602383.614133"
    y2="181913728869.34485"
    stroke="hsla(0,50%,50%,0.6)"
    stroke-width="1"
    transform="translate(-7282602390.4400152332,-181913728831.3604887587)"
    />
  
  <line
    x1="7282602380.153025"
    y1="181913728813.87988"
    x2="7282602354.599487"
    y2="181913728840.78085"
    stroke="hsla(0,50%,50%,0.6)"
    stroke-width="1"
    transform="translate(-7282602390.4400152332,-181913728831.3604887587)"
    />
  
  <line
    x1="7282602391.582891"
    y1="181913728804.5319"
    x2="7282602354.599487"
    y2="181913728840.78085"
    stroke="hsla(0,50%,50%,0.6)"
    stroke-width="1"
    transform="translate(-7282602390.4400152332,-181913728831.3604887587)"
    />
  
  <line
    x1="7282602415.18399"
    y1="181913728835.39618"
    x2="7282602419.877772"
    y2="181913728839.0378"
    stroke="hsla(0,50%,50%,0.6)"
    stroke-width="1"
    transform="translate(-7282602390.4400152332,-181913728831.3604887587)"
    />
  
  <line
    x1="7282602425.594887"
    y1="181913728839.233"
    x2="7282602383.614133"
    y2="181913728869.34485"
    stroke="hsla(0,50%,50%,0.6)"
    stroke-width="1"
    transform="translate(-7282602390.4400152332,-181913728831.3604887587)"
    />
  
  <line
    x1="7282602426.280543"
    y1="181913728834.81448"
    x2="7282602381.268686"
    y2="181913728864.5046"
    stroke="hsla(0,50%,50%,0.6)"
    stroke-width="1"
    transform="translate(-7282602390.4400152332,-181913728831.3604887587)"
    />
  
  <line
    x1="7282602402.353892"
    y1="181913728793.37616"
    x2="7282602400.57041"
    y2="181913728794.28006"
    stroke="hsla(0,50%,50%,0.6)"
    stroke-width="1"
    transform="translate(-7282602390.4400152332,-181913728831.3604887587)"
    />
  
  <line
    x1="7282602380.153025"
    y1="181913728813.87988"
    x2="7282602370.223463"
    y2="181913728818.86594"
    stroke="hsla(0,50%,50%,0.6)"
    stroke-width="1"
    transform="translate(-7282602390.4400152332,-181913728831.3604887587)"
    />
  
  <line
    x1="7282602414.164188"
    y1="181913728817.14026"
    x2="7282602391.436578"
    y2="181913728827.51123"
    stroke="hsla(0,50%,50%,0.6)"
    stroke-width="1"
    transform="translate(-7282602390.4400152332,-181913728831.3604887587)"
    />
  
  <line
    x1="0"
    y1="181913728849.19568"
    x2="7282602384.008459"
    y2="181913728854.53662"
    stroke="hsla(0,50%,50%,0.6)"
    stroke-width="1"
    transform="translate(-7282602390.4400152332,-181913728831.3604887587)"
    />
  
</svg>
