<?xml version="1.0"?>
<!DOCTYPE svg PUBLIC "-//W3C//DTD SVG 1.1//EN"
  "http://www.w3.org/Graphics/SVG/1.1/DTD/svg11.dtd">
<svg
  width="240"
  height="240"
  viewBox="-50 -50 200 200" xmlns="http://www.w3.org/2000/svg" version="1.1">
  <rect
    x="0"
    y="0"
    width="100"
    height="100"
    fill="hsla(206,100%,53%,0.3)"
    stroke="hsl(206,100%,53%)"
    stroke-width="3"
    transform="" />
  
  <path
    d="M 
      38292214451.2
      107508519606.6
      L
    
      38292214475.2
      107508519613.6
      L
    
      38292214465.8666666666
      107508519645.6
      L
    
      38292214477.6
      107508519676.8
      L
    
      38292214454.2
      107508519685.6
      L
    
      38292214447.2
      107508519709.6
      L
    
      38292214432.0421052631
      107508519705.1789473684
      L
    
      38292214421.7679012345
      107508519616.0197530864
      z
    "
    fill="hsla(0,0%,50%,0.3)"
    stroke="hsla(0,0%,50%,1)"
    stroke-width="1"
    transform="translate(-38292214432.6236435997,-107508519656.6249258853) scale(1,-1) translate(50,-110)"
    />
  
  
  <line
    x1="38292214431.12891"
    y1="107508519613.02376"
    x2="38292214447.32549"
    y2="107508519696.56471"
    stroke="hsla(0,50%,50%,0.6)"
    stroke-width="1"
    transform="translate(-38292214432.6236435997,-107508519656.6249258853) scale(1,-1) translate(50,-110)"
    />
  
  <line
    x1="38292214421.7679"
    y1="107508519616.01976"
    x2="38292214432.04211"
    y2="107508519705.17894"
    stroke="hsla(0,50%,50%,0.6)"
    stroke-width="1"
    transform="translate(-38292214432.6236435997,-107508519656.6249258853) scale(1,-1) translate(50,-110)"
    />
  
  <line
    x1="38292214451.2"
    y1="107508519606.6"
    x2="38292214457.62195"
    y2="107508519630.7611"
    stroke="hsla(0,50%,50%,0.6)"
    stroke-width="1"
    transform="translate(-38292214432.6236435997,-107508519656.6249258853) scale(1,-1) translate(50,-110)"
    />
  
  <line
    x1="38292214451.2"
    y1="107508519606.6"
    x2="38292214477.6"
    y2="107508519676.8"
    stroke="hsla(0,50%,50%,0.6)"
    stroke-width="1"
    transform="translate(-38292214432.6236435997,-107508519656.6249258853) scale(1,-1) translate(50,-110)"
    />
  
  <line
    x1="38292214431.12891"
    y1="107508519613.02376"
    x2="38292214439.55969"
    y2="107508519631.50426"
    stroke="hsla(0,50%,50%,0.6)"
    stroke-width="1"
    transform="translate(-38292214432.6236435997,-107508519656.6249258853) scale(1,-1) translate(50,-110)"
    />
  
  <line
    x1="38292214421.7679"
    y1="107508519616.01976"
    x2="38292214423.49107"
    y2="107508519619.13855"
    stroke="hsla(0,50%,50%,0.6)"
    stroke-width="1"
    transform="translate(-38292214432.6236435997,-107508519656.6249258853) scale(1,-1) translate(50,-110)"
    />
  
  <line
    x1="38292214435.77704"
    y1="107508519628.0718"
    x2="38292214434.85519"
    y2="107508519632.00598"
    stroke="hsla(0,50%,50%,0.6)"
    stroke-width="1"
    transform="translate(-38292214432.6236435997,-107508519656.6249258853) scale(1,-1) translate(50,-110)"
    />
  
  <line
    x1="38292214475.2"
    y1="107508519613.6"
    x2="38292214447.2"
    y2="107508519709.6"
    stroke="hsla(0,50%,50%,0.6)"
    stroke-width="1"
    transform="translate(-38292214432.6236435997,-107508519656.6249258853) scale(1,-1) translate(50,-110)"
    />
  
  <line
    x1="38292214423.49107"
    y1="107508519619.13855"
    x2="38292214438.29307"
    y2="107508519635.89865"
    stroke="hsla(0,50%,50%,0.6)"
    stroke-width="1"
    transform="translate(-38292214432.6236435997,-107508519656.6249258853) scale(1,-1) translate(50,-110)"
    />
  
  <line
    x1="38292214440.16489"
    y1="107508519631.26224"
    x2="38292214438.29307"
    y2="107508519635.89865"
    stroke="hsla(0,50%,50%,0.6)"
    stroke-width="1"
    transform="translate(-38292214432.6236435997,-107508519656.6249258853) scale(1,-1) translate(50,-110)"
    />
  
  <line
    x1="38292214423.49107"
    y1="107508519619.13855"
    x2="38292214440.16489"
    y2="107508519631.26224"
    stroke="hsla(0,50%,50%,0.6)"
    stroke-width="1"
    transform="translate(-38292214432.6236435997,-107508519656.6249258853) scale(1,-1) translate(50,-110)"
    />
  
  <line
    x1="38292214451.2"
    y1="107508519606.6"
    x2="38292214432.91052"
    y2="107508519629.80408"
    stroke="hsla(0,50%,50%,0.6)"
    stroke-width="1"
    transform="translate(-38292214432.6236435997,-107508519656.6249258853) scale(1,-1) translate(50,-110)"
    />
  
  <line
    x1="38292214439.55969"
    y1="107508519631.50426"
    x2="38292214436.73496"
    y2="107508519634.13443"
    stroke="hsla(0,50%,50%,0.6)"
    stroke-width="1"
    transform="translate(-38292214432.6236435997,-107508519656.6249258853) scale(1,-1) translate(50,-110)"
    />
  
  <line
    x1="38292214440.16489"
    y1="107508519631.26224"
    x2="38292214436.73496"
    y2="107508519634.13443"
    stroke="hsla(0,50%,50%,0.6)"
    stroke-width="1"
    transform="translate(-38292214432.6236435997,-107508519656.6249258853) scale(1,-1) translate(50,-110)"
    />
  
  <line
    x1="38292214451.2"
    y1="107508519606.6"
    x2="38292214475.2"
    y2="107508519613.6"
    stroke="hsla(0,50%,50%,0.6)"
    stroke-width="1"
    transform="translate(-38292214432.6236435997,-107508519656.6249258853) scale(1,-1) translate(50,-110)"
    />
  
  <line
    x1="38292214432.04211"
    y1="107508519705.17894"
    x2="38292214447.2"
    y2="107508519709.6"
    stroke="hsla(0,50%,50%,0.6)"
    stroke-width="1"
    transform="translate(-38292214432.6236435997,-107508519656.6249258853) scale(1,-1) translate(50,-110)"
    />
  
  <line
    x1="38292214435.77704"
    y1="107508519628.0718"
    x2="38292214432.91052"
    y2="107508519629.80408"
    stroke="hsla(0,50%,50%,0.6)"
    stroke-width="1"
    transform="translate(-38292214432.6236435997,-107508519656.6249258853) scale(1,-1) translate(50,-110)"
    />
  
  <line
    x1="38292214447.32549"
    y1="107508519696.56471"
    x2="38292214432.04211"
    y2="107508519705.17894"
    stroke="hsla(0,50%,50%,0.6)"
    stroke-width="1"
    transform="translate(-38292214432.6236435997,-107508519656.6249258853) scale(1,-1) translate(50,-110)"
    />
  
  <line
    x1="38292214430.8"
    y1="107508519694.4"
    x2="38292214447.32549"
    y2="107508519696.56471"
    stroke="hsla(0,50%,50%,0.6)"
    stroke-width="1"
    transform="translate(-38292214432.6236435997,-107508519656.6249258853) scale(1,-1) translate(50,-110)"
    />
  
  <line
    x1="38292214477.6"
    y1="107508519676.8"
    x2="38292214430.8"
    y2="107508519694.4"
    stroke="hsla(0,50%,50%,0.6)"
    stroke-width="1"
    transform="translate(-38292214432.6236435997,-107508519656.6249258853) scale(1,-1) translate(50,-110)"
    />
  
  <line
    x1="38292214451.2"
    y1="107508519606.6"
    x2="38292214421.7679"
    y2="107508519616.01976"
    stroke="hsla(0,50%,50%,0.6)"
    stroke-width="1"
    transform="translate(-38292214432.6236435997,-107508519656.6249258853) scale(1,-1) translate(50,-110)"
    />
  
  <line
    x1="38292214457.62195"
    y1="107508519630.7611"
    x2="38292214438.29307"
    y2="107508519635.89865"
    stroke="hsla(0,50%,50%,0.6)"
    stroke-width="1"
    transform="translate(-38292214432.6236435997,-107508519656.6249258853) scale(1,-1) translate(50,-110)"
    />
  
  <line
    x1="38292214439.55969"
    y1="107508519631.50426"
    x2="38292214434.85519"
    y2="107508519632.00598"
    stroke="hsla(0,50%,50%,0.6)"
    stroke-width="1"
    transform="translate(-38292214432.6236435997,-107508519656.6249258853) scale(1,-1) translate(50,-110)"
    />
  
</svg>
