<?xml version="1.0"?>
<!DOCTYPE svg PUBLIC "-//W3C//DTD SVG 1.1//EN"
  "http://www.w3.org/Graphics/SVG/1.1/DTD/svg11.dtd">
<svg
  width="240"
  height="240"
  viewBox="-500 -500 1000 1000" xmlns="http://www.w3.org/2000/svg" version="1.1">
  <rect
    x="0"
    y="0"
    width="100"
    height="100"
    fill="hsla(206,100%,53%,0.3)"
    stroke="hsl(206,100%,53%)"
    stroke-width="3"
    transform="" />
  
  <path
    d="M 
      71840424733.9992076352
      311068859019.5587524778
      L
    
      71840424783.1593499915
      311068859082.1903403660
      L
    
      71840424787.0478413068
      311068859081.0968494749
      L
    
      71840424789.6979490200
      311068859090.5207238858
      L
    
      71840424702.6519505639
      311068859134.7154388663
      L
    
      71840424698.3222816767
      311068859136.0668492129
      L
    
      71840424660.4818888153
      311068859087.8569828939
      L
    
      71840424681.5574941867
      311068859060.7207633011
      z
    "
    fill="hsla(0,0%,50%,0.3)"
    stroke="hsla(0,0%,50%,1)"
    stroke-width="1"
    transform="translate(-71840424725.0899189176,-311068859077.8128008453)"
    />
  
  
  <line
    x1="71840424703.80739"
    y1="311068859133.7111"
    x2="71840424703.90898"
    y2="311068859134.0772"
    stroke="hsla(0,50%,50%,0.6)"
    stroke-width="1"
    transform="translate(-71840424725.0899189176,-311068859077.8128008453)"
    />
  
  <line
    x1="71840424787.04784"
    y1="311068859081.09686"
    x2="71840424789.69795"
    y2="311068859090.5207"
    stroke="hsla(0,50%,50%,0.6)"
    stroke-width="1"
    transform="translate(-71840424725.0899189176,-311068859077.8128008453)"
    />
  
  <line
    x1="71840424699.25035"
    y1="311068859120.71515"
    x2="71840424698.32228"
    y2="311068859136.06683"
    stroke="hsla(0,50%,50%,0.6)"
    stroke-width="1"
    transform="translate(-71840424725.0899189176,-311068859077.8128008453)"
    />
  
  <line
    x1="71840424699.25035"
    y1="311068859120.71515"
    x2="71840424703.89552"
    y2="311068859134.08405"
    stroke="hsla(0,50%,50%,0.6)"
    stroke-width="1"
    transform="translate(-71840424725.0899189176,-311068859077.8128008453)"
    />
  
  <line
    x1="71840424703.76337"
    y1="311068859133.893"
    x2="71840424703.89552"
    y2="311068859134.08405"
    stroke="hsla(0,50%,50%,0.6)"
    stroke-width="1"
    transform="translate(-71840424725.0899189176,-311068859077.8128008453)"
    />
  
  <line
    x1="71840424681.5575"
    y1="311068859060.72076"
    x2="71840424668.10661"
    y2="311068859091.21967"
    stroke="hsla(0,50%,50%,0.6)"
    stroke-width="1"
    transform="translate(-71840424725.0899189176,-311068859077.8128008453)"
    />
  
  <line
    x1="71840424733.9992"
    y1="311068859019.5588"
    x2="71840424789.69795"
    y2="311068859090.5207"
    stroke="hsla(0,50%,50%,0.6)"
    stroke-width="1"
    transform="translate(-71840424725.0899189176,-311068859077.8128008453)"
    />
  
  <line
    x1="71840424660.48189"
    y1="311068859087.857"
    x2="71840424698.32228"
    y2="311068859136.06683"
    stroke="hsla(0,50%,50%,0.6)"
    stroke-width="1"
    transform="translate(-71840424725.0899189176,-311068859077.8128008453)"
    />
  
  <line
    x1="71840424703.76337"
    y1="311068859133.893"
    x2="71840424703.90898"
    y2="311068859134.0772"
    stroke="hsla(0,50%,50%,0.6)"
    stroke-width="1"
    transform="translate(-71840424725.0899189176,-311068859077.8128008453)"
    />
  
  <line
    x1="71840424767.79463"
    y1="311068859086.5111"
    x2="71840424765.09306"
    y2="311068859090.7184"
    stroke="hsla(0,50%,50%,0.6)"
    stroke-width="1"
    transform="translate(-71840424725.0899189176,-311068859077.8128008453)"
    />
  
  <line
    x1="71840424681.5575"
    y1="311068859060.72076"
    x2="71840424660.48189"
    y2="311068859087.857"
    stroke="hsla(0,50%,50%,0.6)"
    stroke-width="1"
    transform="translate(-71840424725.0899189176,-311068859077.8128008453)"
    />
  
  <line
    x1="71840424765.09306"
    y1="311068859090.7184"
    x2="71840424741.77542"
    y2="311068859114.8518"
    stroke="hsla(0,50%,50%,0.6)"
    stroke-width="1"
    transform="translate(-71840424725.0899189176,-311068859077.8128008453)"
    />
  
  <line
    x1="71840424719.27405"
    y1="311068859122.4154"
    x2="71840424705.62164"
    y2="311068859133.2077"
    stroke="hsla(0,50%,50%,0.6)"
    stroke-width="1"
    transform="translate(-71840424725.0899189176,-311068859077.8128008453)"
    />
  
  <line
    x1="71840424733.9992"
    y1="311068859019.5588"
    x2="71840424681.5575"
    y2="311068859060.72076"
    stroke="hsla(0,50%,50%,0.6)"
    stroke-width="1"
    transform="translate(-71840424725.0899189176,-311068859077.8128008453)"
    />
  
  <line
    x1="71840424660.48189"
    y1="311068859087.857"
    x2="71840424668.10661"
    y2="311068859091.21967"
    stroke="hsla(0,50%,50%,0.6)"
    stroke-width="1"
    transform="translate(-71840424725.0899189176,-311068859077.8128008453)"
    />
  
  <line
    x1="71840424767.79463"
    y1="311068859086.5111"
    x2="71840424702.65195"
    y2="311068859134.7154"
    stroke="hsla(0,50%,50%,0.6)"
    stroke-width="1"
    transform="translate(-71840424725.0899189176,-311068859077.8128008453)"
    />
  
  <line
    x1="71840424765.09306"
    y1="311068859090.7184"
    x2="71840424719.27405"
    y2="311068859122.4154"
    stroke="hsla(0,50%,50%,0.6)"
    stroke-width="1"
    transform="translate(-71840424725.0899189176,-311068859077.8128008453)"
    />
  
  <line
    x1="71840424789.69795"
    y1="311068859090.5207"
    x2="71840424702.65195"
    y2="311068859134.7154"
    stroke="hsla(0,50%,50%,0.6)"
    stroke-width="1"
    transform="translate(-71840424725.0899189176,-311068859077.8128008453)"
    />
  
  <line
    x1="71840424702.65195"
    y1="311068859134.7154"
    x2="71840424698.32228"
    y2="311068859136.06683"
    stroke="hsla(0,50%,50%,0.6)"
    stroke-width="1"
    transform="translate(-71840424725.0899189176,-311068859077.8128008453)"
    />
  
  <line
    x1="71840424787.04784"
    y1="311068859081.09686"
    x2="71840424767.79463"
    y2="311068859086.5111"
    stroke="hsla(0,50%,50%,0.6)"
    stroke-width="1"
    transform="translate(-71840424725.0899189176,-311068859077.8128008453)"
    />
  
  <line
    x1="71840424705.62164"
    y1="311068859133.2077"
    x2="71840424703.80739"
    y2="311068859133.7111"
    stroke="hsla(0,50%,50%,0.6)"
    stroke-width="1"
    transform="translate(-71840424725.0899189176,-311068859077.8128008453)"
    />
  
  <line
    x1="71840424741.77542"
    y1="311068859114.8518"
    x2="71840424699.25035"
    y2="311068859120.71515"
    stroke="hsla(0,50%,50%,0.6)"
    stroke-width="1"
    transform="translate(-71840424725.0899189176,-311068859077.8128008453)"
    />
  
</svg>
