<?xml version="1.0"?>
<!DOCTYPE svg PUBLIC "-//W3C//DTD SVG 1.1//EN"
  "http://www.w3.org/Graphics/SVG/1.1/DTD/svg11.dtd">
<svg
  width="240"
  height="240"
  viewBox="-500 -500 1000 1000" xmlns="http://www.w3.org/2000/svg" version="1.1">
  <rect
    x="0"
    y="0"
    width="100"
    height="100"
    fill="hsla(206,100%,53%,0.3)"
    stroke="hsl(206,100%,53%)"
    stroke-width="3"
    transform="" />
  
  <path
    d="M 
      153457327344.5157308238
      132305914758.5199583117
      L
    
      153457327350.9486999933
      132305914778.2258497854
      L
    
      153457327361.8232632419
      132305914803.1301570401
      L
    
      153457327359.4357216481
      132305914804.2238490387
      L
    
      153457327360.4699017019
      132305914807.3918169503
      L
    
      153457327314.3776978696
      132305914830.7288233787
      L
    
      153457327290.0730095688
      132305914798.0633563092
      L
    
      153457327310.0926541386
      132305914782.6048881221
      L
    
      153457327308.8648690237
      132305914778.7957963602
      L
    
      153457327319.4401829485
      132305914775.3870538479
      L
    
      153457327320.0632356894
      132305914776.5702858580
      L
    
      153457327332.1652752198
      132305914767.8971272368
      L
    
      153457327336.1752045815
      132305914773.4923579675
      L
    
      153457327342.6149872996
      132305914759.1404541927
      z
    "
    fill="hsla(0,0%,50%,0.3)"
    stroke="hsla(0,0%,50%,1)"
    stroke-width="1"
    transform="translate(-153457327325.9481364053,-132305914794.6243908452)"
    />
  
  
  <line
    x1="153457327352.55258"
    y1="132305914783.81079"
    x2="153457327361.82327"
    y2="132305914803.13016"
    stroke="hsla(0,50%,50%,0.6)"
    stroke-width="1"
    transform="translate(-153457327325.9481364053,-132305914794.6243908452)"
    />
  
  <line
    x1="153457327342.615"
    y1="132305914759.14046"
    x2="153457327361.82327"
    y2="132305914803.13016"
    stroke="hsla(0,50%,50%,0.6)"
    stroke-width="1"
    transform="translate(-153457327325.9481364053,-132305914794.6243908452)"
    />
  
  <line
    x1="153457327328.5062"
    y1="132305914790.58377"
    x2="153457327341.3819"
    y2="132305914817.05629"
    stroke="hsla(0,50%,50%,0.6)"
    stroke-width="1"
    transform="translate(-153457327325.9481364053,-132305914794.6243908452)"
    />
  
  <line
    x1="153457327319.4402"
    y1="132305914775.38704"
    x2="153457327341.3819"
    y2="132305914817.05629"
    stroke="hsla(0,50%,50%,0.6)"
    stroke-width="1"
    transform="translate(-153457327325.9481364053,-132305914794.6243908452)"
    />
  
  <line
    x1="153457327344.51575"
    y1="132305914758.51996"
    x2="153457327360.4699"
    y2="132305914807.39183"
    stroke="hsla(0,50%,50%,0.6)"
    stroke-width="1"
    transform="translate(-153457327325.9481364053,-132305914794.6243908452)"
    />
  
  <line
    x1="153457327308.86487"
    y1="132305914778.7958"
    x2="153457327324.02933"
    y2="132305914825.8421"
    stroke="hsla(0,50%,50%,0.6)"
    stroke-width="1"
    transform="translate(-153457327325.9481364053,-132305914794.6243908452)"
    />
  
  <line
    x1="153457327312.8001"
    y1="132305914825.58682"
    x2="153457327314.37772"
    y2="132305914830.72882"
    stroke="hsla(0,50%,50%,0.6)"
    stroke-width="1"
    transform="translate(-153457327325.9481364053,-132305914794.6243908452)"
    />
  
  <line
    x1="153457327332.16528"
    y1="132305914767.89713"
    x2="153457327360.4699"
    y2="132305914807.39183"
    stroke="hsla(0,50%,50%,0.6)"
    stroke-width="1"
    transform="translate(-153457327325.9481364053,-132305914794.6243908452)"
    />
  
  <line
    x1="153457327317.03217"
    y1="132305914816.15514"
    x2="153457327324.02933"
    y2="132305914825.8421"
    stroke="hsla(0,50%,50%,0.6)"
    stroke-width="1"
    transform="translate(-153457327325.9481364053,-132305914794.6243908452)"
    />
  
  <line
    x1="153457327290.073"
    y1="132305914798.06335"
    x2="153457327314.37772"
    y2="132305914830.72882"
    stroke="hsla(0,50%,50%,0.6)"
    stroke-width="1"
    transform="translate(-153457327325.9481364053,-132305914794.6243908452)"
    />
  
  <line
    x1="153457327350.76828"
    y1="132305914802.0079"
    x2="153457327354.8499"
    y2="132305914806.32454"
    stroke="hsla(0,50%,50%,0.6)"
    stroke-width="1"
    transform="translate(-153457327325.9481364053,-132305914794.6243908452)"
    />
  
  <line
    x1="153457327352.55258"
    y1="132305914783.81079"
    x2="153457327354.8499"
    y2="132305914806.32454"
    stroke="hsla(0,50%,50%,0.6)"
    stroke-width="1"
    transform="translate(-153457327325.9481364053,-132305914794.6243908452)"
    />
  
  <line
    x1="153457327342.615"
    y1="132305914759.14046"
    x2="153457327312.8001"
    y2="132305914825.58682"
    stroke="hsla(0,50%,50%,0.6)"
    stroke-width="1"
    transform="translate(-153457327325.9481364053,-132305914794.6243908452)"
    />
  
  <line
    x1="153457327338.07764"
    y1="132305914814.00761"
    x2="153457327317.03217"
    y2="132305914816.15514"
    stroke="hsla(0,50%,50%,0.6)"
    stroke-width="1"
    transform="translate(-153457327325.9481364053,-132305914794.6243908452)"
    />
  
  <line
    x1="153457327350.76828"
    y1="132305914802.0079"
    x2="153457327338.07764"
    y2="132305914814.00761"
    stroke="hsla(0,50%,50%,0.6)"
    stroke-width="1"
    transform="translate(-153457327325.9481364053,-132305914794.6243908452)"
    />
  
  <line
    x1="153457327319.4402"
    y1="132305914775.38704"
    x2="153457327290.073"
    y2="132305914798.06335"
    stroke="hsla(0,50%,50%,0.6)"
    stroke-width="1"
    transform="translate(-153457327325.9481364053,-132305914794.6243908452)"
    />
  
  <line
    x1="153457327332.16528"
    y1="132305914767.89713"
    x2="153457327290.073"
    y2="132305914798.06335"
    stroke="hsla(0,50%,50%,0.6)"
    stroke-width="1"
    transform="translate(-153457327325.9481364053,-132305914794.6243908452)"
    />
  
  <line
    x1="153457327352.55258"
    y1="132305914783.81079"
    x2="153457327328.5062"
    y2="132305914790.58377"
    stroke="hsla(0,50%,50%,0.6)"
    stroke-width="1"
    transform="translate(-153457327325.9481364053,-132305914794.6243908452)"
    />
  
  <line
    x1="153457327319.4402"
    y1="132305914775.38704"
    x2="153457327308.86487"
    y2="132305914778.7958"
    stroke="hsla(0,50%,50%,0.6)"
    stroke-width="1"
    transform="translate(-153457327325.9481364053,-132305914794.6243908452)"
    />
  
  <line
    x1="153457327344.51575"
    y1="132305914758.51996"
    x2="153457327342.615"
    y2="132305914759.14046"
    stroke="hsla(0,50%,50%,0.6)"
    stroke-width="1"
    transform="translate(-153457327325.9481364053,-132305914794.6243908452)"
    />
  
  <line
    x1="153457327360.4699"
    y1="132305914807.39183"
    x2="153457327314.37772"
    y2="132305914830.72882"
    stroke="hsla(0,50%,50%,0.6)"
    stroke-width="1"
    transform="translate(-153457327325.9481364053,-132305914794.6243908452)"
    />
  
  <line
    x1="153457327361.82327"
    y1="132305914803.13016"
    x2="153457327312.8001"
    y2="132305914825.58682"
    stroke="hsla(0,50%,50%,0.6)"
    stroke-width="1"
    transform="translate(-153457327325.9481364053,-132305914794.6243908452)"
    />
  
</svg>
