<?xml version="1.0"?>
<!DOCTYPE svg PUBLIC "-//W3C//DTD SVG 1.1//EN"
  "http://www.w3.org/Graphics/SVG/1.1/DTD/svg11.dtd">
<svg
  width="240"
  height="240"
  viewBox="-50 -50 200 200" xmlns="http://www.w3.org/2000/svg" version="1.1">
  <rect
    x="0"
    y="0"
    width="100"
    height="100"
    fill="hsla(206,100%,53%,0.3)"
    stroke="hsl(206,100%,53%)"
    stroke-width="3"
    transform="" />
  
  <path
    d="M 
      61402808311.6042608900
      -11957823667.3790897018
      L
    
      61402808316.1356160771
      -11957823647.1510875445
      L
    
      61402808324.5945005221
      -11957823621.3261399234
      L
    
      61402808322.1138367999
      -11957823620.4642672256
      L
    
      61402808322.8423086809
      -11957823617.2123635076
      L
    
      61402808274.7411232596
      -11957823598.3607565674
      L
    
      61402808253.6503693332
      -11957823633.1879113620
      L
    
      61402808275.0483314929
      -11957823646.6741125620
      L
    
      61402808274.1880518627
      -11957823650.5826359784
      L
    
      61402808285.0394213478
      -11957823652.9710602332
      L
    
      61402808285.5472210346
      -11957823651.7339781074
      L
    
      61402808298.4186464994
      -11957823659.2179241098
      L
    
      61402808301.8787578761
      -11957823653.2669771535
      L
    
      61402808309.6531568681
      -11957823666.9420151326
      z
    "
    fill="hsla(0,0%,50%,0.3)"
    stroke="hsla(0,0%,50%,1)"
    stroke-width="1"
    transform="translate(-61402808302.9416438051,11957823660.4061340337) scale(1,-1) translate(50,-110)"
    />
  
  
  <line
    x1="61402808313.69619"
    y1="-11957823623.493784"
    x2="61402808317.34915"
    y2="-11957823618.808844"
    stroke="hsla(0,50%,50%,0.6)"
    stroke-width="1"
    transform="translate(-61402808302.9416438051,11957823660.4061340337) scale(1,-1) translate(50,-110)"
    />
  
  <line
    x1="61402808253.65037"
    y1="-11957823633.187912"
    x2="61402808274.74112"
    y2="-11957823598.360758"
    stroke="hsla(0,50%,50%,0.6)"
    stroke-width="1"
    transform="translate(-61402808302.9416438051,11957823660.4061340337) scale(1,-1) translate(50,-110)"
    />
  
  <line
    x1="61402808278.76842"
    y1="-11957823612.616268"
    x2="61402808284.813416"
    y2="-11957823602.308245"
    stroke="hsla(0,50%,50%,0.6)"
    stroke-width="1"
    transform="translate(-61402808302.9416438051,11957823660.4061340337) scale(1,-1) translate(50,-110)"
    />
  
  <line
    x1="61402808298.41864"
    y1="-11957823659.217922"
    x2="61402808322.84231"
    y2="-11957823617.212362"
    stroke="hsla(0,50%,50%,0.6)"
    stroke-width="1"
    transform="translate(-61402808302.9416438051,11957823660.4061340337) scale(1,-1) translate(50,-110)"
    />
  
  <line
    x1="61402808285.03942"
    y1="-11957823652.97106"
    x2="61402808302.922325"
    y2="-11957823609.40541"
    stroke="hsla(0,50%,50%,0.6)"
    stroke-width="1"
    transform="translate(-61402808302.9416438051,11957823660.4061340337) scale(1,-1) translate(50,-110)"
    />
  
  <line
    x1="61402808292.62038"
    y1="-11957823636.98164"
    x2="61402808302.922325"
    y2="-11957823609.40541"
    stroke="hsla(0,50%,50%,0.6)"
    stroke-width="1"
    transform="translate(-61402808302.9416438051,11957823660.4061340337) scale(1,-1) translate(50,-110)"
    />
  
  <line
    x1="61402808317.20153"
    y1="-11957823641.439013"
    x2="61402808324.5945"
    y2="-11957823621.32614"
    stroke="hsla(0,50%,50%,0.6)"
    stroke-width="1"
    transform="translate(-61402808302.9416438051,11957823660.4061340337) scale(1,-1) translate(50,-110)"
    />
  
  <line
    x1="61402808309.65316"
    y1="-11957823666.942015"
    x2="61402808324.5945"
    y2="-11957823621.32614"
    stroke="hsla(0,50%,50%,0.6)"
    stroke-width="1"
    transform="translate(-61402808302.9416438051,11957823660.4061340337) scale(1,-1) translate(50,-110)"
    />
  
  <line
    x1="61402808311.60426"
    y1="-11957823667.37909"
    x2="61402808322.84231"
    y2="-11957823617.212362"
    stroke="hsla(0,50%,50%,0.6)"
    stroke-width="1"
    transform="translate(-61402808302.9416438051,11957823660.4061340337) scale(1,-1) translate(50,-110)"
    />
  
  <line
    x1="61402808274.18805"
    y1="-11957823650.582636"
    x2="61402808284.813416"
    y2="-11957823602.308245"
    stroke="hsla(0,50%,50%,0.6)"
    stroke-width="1"
    transform="translate(-61402808302.9416438051,11957823660.4061340337) scale(1,-1) translate(50,-110)"
    />
  
  <line
    x1="61402808273.65928"
    y1="-11957823603.629396"
    x2="61402808274.74112"
    y2="-11957823598.360758"
    stroke="hsla(0,50%,50%,0.6)"
    stroke-width="1"
    transform="translate(-61402808302.9416438051,11957823660.4061340337) scale(1,-1) translate(50,-110)"
    />
  
  <line
    x1="61402808299.92271"
    y1="-11957823612.754263"
    x2="61402808278.76842"
    y2="-11957823612.616268"
    stroke="hsla(0,50%,50%,0.6)"
    stroke-width="1"
    transform="translate(-61402808302.9416438051,11957823660.4061340337) scale(1,-1) translate(50,-110)"
    />
  
  <line
    x1="61402808317.20153"
    y1="-11957823641.439013"
    x2="61402808292.62038"
    y2="-11957823636.98164"
    stroke="hsla(0,50%,50%,0.6)"
    stroke-width="1"
    transform="translate(-61402808302.9416438051,11957823660.4061340337) scale(1,-1) translate(50,-110)"
    />
  
  <line
    x1="61402808317.20153"
    y1="-11957823641.439013"
    x2="61402808317.34915"
    y2="-11957823618.808844"
    stroke="hsla(0,50%,50%,0.6)"
    stroke-width="1"
    transform="translate(-61402808302.9416438051,11957823660.4061340337) scale(1,-1) translate(50,-110)"
    />
  
  <line
    x1="61402808285.03942"
    y1="-11957823652.97106"
    x2="61402808274.18805"
    y2="-11957823650.582636"
    stroke="hsla(0,50%,50%,0.6)"
    stroke-width="1"
    transform="translate(-61402808302.9416438051,11957823660.4061340337) scale(1,-1) translate(50,-110)"
    />
  
  <line
    x1="61402808311.60426"
    y1="-11957823667.37909"
    x2="61402808309.65316"
    y2="-11957823666.942015"
    stroke="hsla(0,50%,50%,0.6)"
    stroke-width="1"
    transform="translate(-61402808302.9416438051,11957823660.4061340337) scale(1,-1) translate(50,-110)"
    />
  
  <line
    x1="61402808324.5945"
    y1="-11957823621.32614"
    x2="61402808273.65928"
    y2="-11957823603.629396"
    stroke="hsla(0,50%,50%,0.6)"
    stroke-width="1"
    transform="translate(-61402808302.9416438051,11957823660.4061340337) scale(1,-1) translate(50,-110)"
    />
  
  <line
    x1="61402808322.84231"
    y1="-11957823617.212362"
    x2="61402808274.74112"
    y2="-11957823598.360758"
    stroke="hsla(0,50%,50%,0.6)"
    stroke-width="1"
    transform="translate(-61402808302.9416438051,11957823660.4061340337) scale(1,-1) translate(50,-110)"
    />
  
  <line
    x1="61402808298.41864"
    y1="-11957823659.217922"
    x2="61402808253.65037"
    y2="-11957823633.187912"
    stroke="hsla(0,50%,50%,0.6)"
    stroke-width="1"
    transform="translate(-61402808302.9416438051,11957823660.4061340337) scale(1,-1) translate(50,-110)"
    />
  
  <line
    x1="61402808285.03942"
    y1="-11957823652.97106"
    x2="61402808253.65037"
    y2="-11957823633.187912"
    stroke="hsla(0,50%,50%,0.6)"
    stroke-width="1"
    transform="translate(-61402808302.9416438051,11957823660.4061340337) scale(1,-1) translate(50,-110)"
    />
  
  <line
    x1="61402808313.69619"
    y1="-11957823623.493784"
    x2="61402808299.92271"
    y2="-11957823612.754263"
    stroke="hsla(0,50%,50%,0.6)"
    stroke-width="1"
    transform="translate(-61402808302.9416438051,11957823660.4061340337) scale(1,-1) translate(50,-110)"
    />
  
  <line
    x1="61402808309.65316"
    y1="-11957823666.942015"
    x2="61402808273.65928"
    y2="-11957823603.629396"
    stroke="hsla(0,50%,50%,0.6)"
    stroke-width="1"
    transform="translate(-61402808302.9416438051,11957823660.4061340337) scale(1,-1) translate(50,-110)"
    />
  
</svg>
