<?xml version="1.0"?>
<!DOCTYPE svg PUBLIC "-//W3C//DTD SVG 1.1//EN"
  "http://www.w3.org/Graphics/SVG/1.1/DTD/svg11.dtd">
<svg
  width="240"
  height="240"
  viewBox="-50 -50 200 200" xmlns="http://www.w3.org/2000/svg" version="1.1">
  <rect
    x="0"
    y="0"
    width="100"
    height="100"
    fill="hsla(206,100%,53%,0.3)"
    stroke="hsl(206,100%,53%)"
    stroke-width="3"
    transform="" />
  
  <path
    d="M 
      178864976095
      22571289660
      L
    
      178864976120
      22571289660
      L
    
      178864976120
      22571289693.3333333333
      L
    
      178864976140
      22571289720
      L
    
      178864976120
      22571289735
      L
    
      178864976120
      22571289760
      L
    
      178864976104.2105263157
      22571289760
      L
    
      178864976069.3827160493
      22571289677.2839506172
      z
    "
    fill="hsla(0,0%,50%,0.3)"
    stroke="hsla(0,0%,50%,1)"
    stroke-width="1"
    transform="translate(-178864976091.1736771036,-22571289713.2253086419) scale(1,-1) translate(50,-110)"
    />
  
  
  <line
    x1="178864976077.5304"
    y1="22571289671.786716"
    x2="178864976090.7985"
    y2="22571289687.167377"
    stroke="hsla(0,50%,50%,0.6)"
    stroke-width="1"
    transform="translate(-178864976091.1736771036,-22571289713.2253086419) scale(1,-1) translate(50,-110)"
    />
  
  <line
    x1="178864976069.38272"
    y1="22571289677.28395"
    x2="178864976071.91022"
    y2="22571289679.79551"
    stroke="hsla(0,50%,50%,0.6)"
    stroke-width="1"
    transform="translate(-178864976091.1736771036,-22571289713.2253086419) scale(1,-1) translate(50,-110)"
    />
  
  <line
    x1="178864976095"
    y1="22571289660"
    x2="178864976140"
    y2="22571289720"
    stroke="hsla(0,50%,50%,0.6)"
    stroke-width="1"
    transform="translate(-178864976091.1736771036,-22571289713.2253086419) scale(1,-1) translate(50,-110)"
    />
  
  <line
    x1="178864976095"
    y1="22571289660"
    x2="178864976107.93018"
    y2="22571289681.396507"
    stroke="hsla(0,50%,50%,0.6)"
    stroke-width="1"
    transform="translate(-178864976091.1736771036,-22571289713.2253086419) scale(1,-1) translate(50,-110)"
    />
  
  <line
    x1="178864976077.5304"
    y1="22571289671.786716"
    x2="178864976116.47058"
    y2="22571289747.45098"
    stroke="hsla(0,50%,50%,0.6)"
    stroke-width="1"
    transform="translate(-178864976091.1736771036,-22571289713.2253086419) scale(1,-1) translate(50,-110)"
    />
  
  <line
    x1="178864976071.91022"
    y1="22571289679.79551"
    x2="178864976090.81296"
    y2="22571289691.74065"
    stroke="hsla(0,50%,50%,0.6)"
    stroke-width="1"
    transform="translate(-178864976091.1736771036,-22571289713.2253086419) scale(1,-1) translate(50,-110)"
    />
  
  <line
    x1="178864976069.38272"
    y1="22571289677.28395"
    x2="178864976104.21054"
    y2="22571289760"
    stroke="hsla(0,50%,50%,0.6)"
    stroke-width="1"
    transform="translate(-178864976091.1736771036,-22571289713.2253086419) scale(1,-1) translate(50,-110)"
    />
  
  <line
    x1="178864976071.91022"
    y1="22571289679.79551"
    x2="178864976091.3117"
    y2="22571289686.765587"
    stroke="hsla(0,50%,50%,0.6)"
    stroke-width="1"
    transform="translate(-178864976091.1736771036,-22571289713.2253086419) scale(1,-1) translate(50,-110)"
    />
  
  <line
    x1="178864976086.20605"
    y1="22571289684.931355"
    x2="178864976086.42264"
    y2="22571289688.966293"
    stroke="hsla(0,50%,50%,0.6)"
    stroke-width="1"
    transform="translate(-178864976091.1736771036,-22571289713.2253086419) scale(1,-1) translate(50,-110)"
    />
  
  <line
    x1="178864976120"
    y1="22571289660"
    x2="178864976120"
    y2="22571289760"
    stroke="hsla(0,50%,50%,0.6)"
    stroke-width="1"
    transform="translate(-178864976091.1736771036,-22571289713.2253086419) scale(1,-1) translate(50,-110)"
    />
  
  <line
    x1="178864976091.3117"
    y1="22571289686.765587"
    x2="178864976090.81296"
    y2="22571289691.74065"
    stroke="hsla(0,50%,50%,0.6)"
    stroke-width="1"
    transform="translate(-178864976091.1736771036,-22571289713.2253086419) scale(1,-1) translate(50,-110)"
    />
  
  <line
    x1="178864976095"
    y1="22571289660"
    x2="178864976120"
    y2="22571289660"
    stroke="hsla(0,50%,50%,0.6)"
    stroke-width="1"
    transform="translate(-178864976091.1736771036,-22571289713.2253086419) scale(1,-1) translate(50,-110)"
    />
  
  <line
    x1="178864976104.21054"
    y1="22571289760"
    x2="178864976120"
    y2="22571289760"
    stroke="hsla(0,50%,50%,0.6)"
    stroke-width="1"
    transform="translate(-178864976091.1736771036,-22571289713.2253086419) scale(1,-1) translate(50,-110)"
    />
  
  <line
    x1="178864976116.47058"
    y1="22571289747.45098"
    x2="178864976100"
    y2="22571289750"
    stroke="hsla(0,50%,50%,0.6)"
    stroke-width="1"
    transform="translate(-178864976091.1736771036,-22571289713.2253086419) scale(1,-1) translate(50,-110)"
    />
  
  <line
    x1="178864976095"
    y1="22571289660"
    x2="178864976083.93924"
    y2="22571289687.39696"
    stroke="hsla(0,50%,50%,0.6)"
    stroke-width="1"
    transform="translate(-178864976091.1736771036,-22571289713.2253086419) scale(1,-1) translate(50,-110)"
    />
  
  <line
    x1="178864976090.7985"
    y1="22571289687.167377"
    x2="178864976086.42264"
    y2="22571289688.966293"
    stroke="hsla(0,50%,50%,0.6)"
    stroke-width="1"
    transform="translate(-178864976091.1736771036,-22571289713.2253086419) scale(1,-1) translate(50,-110)"
    />
  
  <line
    x1="178864976090.7985"
    y1="22571289687.167377"
    x2="178864976088.8232"
    y2="22571289690.483265"
    stroke="hsla(0,50%,50%,0.6)"
    stroke-width="1"
    transform="translate(-178864976091.1736771036,-22571289713.2253086419) scale(1,-1) translate(50,-110)"
    />
  
  <line
    x1="178864976091.3117"
    y1="22571289686.765587"
    x2="178864976088.8232"
    y2="22571289690.483265"
    stroke="hsla(0,50%,50%,0.6)"
    stroke-width="1"
    transform="translate(-178864976091.1736771036,-22571289713.2253086419) scale(1,-1) translate(50,-110)"
    />
  
  <line
    x1="178864976107.93018"
    y1="22571289681.396507"
    x2="178864976090.81296"
    y2="22571289691.74065"
    stroke="hsla(0,50%,50%,0.6)"
    stroke-width="1"
    transform="translate(-178864976091.1736771036,-22571289713.2253086419) scale(1,-1) translate(50,-110)"
    />
  
  <line
    x1="178864976095"
    y1="22571289660"
    x2="178864976069.38272"
    y2="22571289677.28395"
    stroke="hsla(0,50%,50%,0.6)"
    stroke-width="1"
    transform="translate(-178864976091.1736771036,-22571289713.2253086419) scale(1,-1) translate(50,-110)"
    />
  
  <line
    x1="178864976086.20605"
    y1="22571289684.931355"
    x2="178864976083.93924"
    y2="22571289687.39696"
    stroke="hsla(0,50%,50%,0.6)"
    stroke-width="1"
    transform="translate(-178864976091.1736771036,-22571289713.2253086419) scale(1,-1) translate(50,-110)"
    />
  
  <line
    x1="178864976140"
    y1="22571289720"
    x2="178864976100"
    y2="22571289750"
    stroke="hsla(0,50%,50%,0.6)"
    stroke-width="1"
    transform="translate(-178864976091.1736771036,-22571289713.2253086419) scale(1,-1) translate(50,-110)"
    />
  
  <line
    x1="178864976116.47058"
    y1="22571289747.45098"
    x2="178864976104.21054"
    y2="22571289760"
    stroke="hsla(0,50%,50%,0.6)"
    stroke-width="1"
    transform="translate(-178864976091.1736771036,-22571289713.2253086419) scale(1,-1) translate(50,-110)"
    />
  
</svg>
