<?xml version="1.0"?>
<!DOCTYPE svg PUBLIC "-//W3C//DTD SVG 1.1//EN"
  "http://www.w3.org/Graphics/SVG/1.1/DTD/svg11.dtd">
<svg
  width="240"
  height="240"
  viewBox="-50 -50 200 200" xmlns="http://www.w3.org/2000/svg" version="1.1">
  <rect
    x="0"
    y="0"
    width="100"
    height="100"
    fill="hsla(206,100%,53%,0.3)"
    stroke="hsl(206,100%,53%)"
    stroke-width="3"
    transform="" />
  
  <path
    d="M 
      -199.9999999999
      -200.0000000000
      L
    
      -99.9999999999
      -200.0000000000
      L
    
      -99.9999999999
      -100.0000000000
      L
    
      -199.9999999999
      -100.0000000000
      z
    "
    fill="hsla(0,0%,50%,0.3)"
    stroke="hsla(0,0%,50%,1)"
    stroke-width="1"
    transform="translate(162.4999999999,125.0000000000) scale(1,-1) translate(50,-110)"
    />
  
  
  <line
    x1="-199.99999999999991"
    y1="-200.00000000000006"
    x2="-99.99999999999991"
    y2="-200.00000000000003"
    stroke="hsla(0,50%,50%,0.6)"
    stroke-width="1"
    transform="translate(162.4999999999,125.0000000000) scale(1,-1) translate(50,-110)"
    />
  
  <line
    x1="-199.99999999999994"
    y1="-100.00000000000009"
    x2="-99.99999999999996"
    y2="-100.00000000000003"
    stroke="hsla(0,50%,50%,0.6)"
    stroke-width="1"
    transform="translate(162.4999999999,125.0000000000) scale(1,-1) translate(50,-110)"
    />
  
  <line
    x1="-199.99999999999991"
    y1="-200.00000000000006"
    x2="-199.99999999999994"
    y2="-100.00000000000009"
    stroke="hsla(0,50%,50%,0.6)"
    stroke-width="1"
    transform="translate(162.4999999999,125.0000000000) scale(1,-1) translate(50,-110)"
    />
  
  <line
    x1="-99.99999999999991"
    y1="-200.00000000000003"
    x2="-99.99999999999996"
    y2="-100.00000000000003"
    stroke="hsla(0,50%,50%,0.6)"
    stroke-width="1"
    transform="translate(162.4999999999,125.0000000000) scale(1,-1) translate(50,-110)"
    />
  
</svg>
