<?xml version="1.0"?>
<!DOCTYPE svg PUBLIC "-//W3C//DTD SVG 1.1//EN"
  "http://www.w3.org/Graphics/SVG/1.1/DTD/svg11.dtd">
<svg
  width="240"
  height="240"
  viewBox="-500 -500 1000 1000" xmlns="http://www.w3.org/2000/svg" version="1.1">
  <rect
    x="0"
    y="0"
    width="100"
    height="100"
    fill="hsla(206,100%,53%,0.3)"
    stroke="hsl(206,100%,53%)"
    stroke-width="3"
    transform="" />
  
  <path
    d="M 
      100
      40
      L
    
      114.4632768361
      65.1902071563
      L
    
      120
      66.6666666666
      L
    
      120
      100
      L
    
      100.8612440191
      100
      L
    
      86.8049792531
      124.4813278008
      L
    
      60
      109.0909090909
      L
    
      60
      50.6666666666
      z
    "
    fill="hsla(0,0%,50%,0.3)"
    stroke="hsla(0,0%,50%,1)"
    stroke-width="1"
    transform="translate(-90,-82.2406639004)"
    />
  
  
  <line
    x1="100"
    y1="40"
    x2="119.91701244813278"
    y2="74.68879668049793"
    stroke="hsla(0,50%,50%,0.6)"
    stroke-width="1"
    transform="translate(-90,-82.2406639004)"
    />
  
  <line
    x1="60"
    y1="50.666666666666664"
    x2="60"
    y2="109.0909090909091"
    stroke="hsla(0,50%,50%,0.6)"
    stroke-width="1"
    transform="translate(-90,-82.2406639004)"
    />
  
  <line
    x1="100"
    y1="40"
    x2="100"
    y2="100"
    stroke="hsla(0,50%,50%,0.6)"
    stroke-width="1"
    transform="translate(-90,-82.2406639004)"
    />
  
  <line
    x1="120"
    y1="66.66666666666667"
    x2="120"
    y2="100"
    stroke="hsla(0,50%,50%,0.6)"
    stroke-width="1"
    transform="translate(-90,-82.2406639004)"
    />
  
  <line
    x1="60"
    y1="50.666666666666664"
    x2="120"
    y2="66.66666666666667"
    stroke="hsla(0,50%,50%,0.6)"
    stroke-width="1"
    transform="translate(-90,-82.2406639004)"
    />
  
  <line
    x1="60"
    y1="109.0909090909091"
    x2="86.80497925311204"
    y2="124.48132780082987"
    stroke="hsla(0,50%,50%,0.6)"
    stroke-width="1"
    transform="translate(-90,-82.2406639004)"
    />
  
  <line
    x1="100"
    y1="40"
    x2="60"
    y2="50.666666666666664"
    stroke="hsla(0,50%,50%,0.6)"
    stroke-width="1"
    transform="translate(-90,-82.2406639004)"
    />
  
  <line
    x1="120"
    y1="66.66666666666667"
    x2="86.80497925311204"
    y2="124.48132780082987"
    stroke="hsla(0,50%,50%,0.6)"
    stroke-width="1"
    transform="translate(-90,-82.2406639004)"
    />
  
  <line
    x1="60"
    y1="100"
    x2="120"
    y2="100"
    stroke="hsla(0,50%,50%,0.6)"
    stroke-width="1"
    transform="translate(-90,-82.2406639004)"
    />
  
  <line
    x1="119.91701244813278"
    y1="74.68879668049793"
    x2="60"
    y2="109.0909090909091"
    stroke="hsla(0,50%,50%,0.6)"
    stroke-width="1"
    transform="translate(-90,-82.2406639004)"
    />
  
</svg>
