<?xml version="1.0"?>
<!DOCTYPE svg PUBLIC "-//W3C//DTD SVG 1.1//EN"
  "http://www.w3.org/Graphics/SVG/1.1/DTD/svg11.dtd">
<svg
  width="240"
  height="240"
  viewBox="-500 -500 1000 1000" xmlns="http://www.w3.org/2000/svg" version="1.1">
  <rect
    x="0"
    y="0"
    width="100"
    height="100"
    fill="hsla(206,100%,53%,0.3)"
    stroke="hsl(206,100%,53%)"
    stroke-width="3"
    transform="" />
  
  <path
    d="M 
      9.7435897435
      -20.5128205128
      L
    
      28.2051282051
      -20.5128205128
      L
    
      28.2051282051
      23.0769230769
      L
    
      9.7435897435
      23.0769230769
      z
    "
    fill="hsla(0,0%,50%,0.3)"
    stroke="hsla(0,0%,50%,1)"
    stroke-width="1"
    transform="translate(-18.9743589743,-1.2820512820)"
    />
  
  
  <line
    x1="9.743589743589743"
    y1="-20.512820512820515"
    x2="28.205128205128204"
    y2="-20.512820512820515"
    stroke="hsla(0,50%,50%,0.6)"
    stroke-width="1"
    transform="translate(-18.9743589743,-1.2820512820)"
    />
  
  <line
    x1="9.743589743589743"
    y1="-12.179487179487179"
    x2="28.205128205128204"
    y2="-12.179487179487179"
    stroke="hsla(0,50%,50%,0.6)"
    stroke-width="1"
    transform="translate(-18.9743589743,-1.2820512820)"
    />
  
  <line
    x1="9.743589743589743"
    y1="-3.8461538461538463"
    x2="28.205128205128204"
    y2="-3.8461538461538463"
    stroke="hsla(0,50%,50%,0.6)"
    stroke-width="1"
    transform="translate(-18.9743589743,-1.2820512820)"
    />
  
  <line
    x1="9.743589743589743"
    y1="-20.512820512820515"
    x2="9.743589743589743"
    y2="23.076923076923077"
    stroke="hsla(0,50%,50%,0.6)"
    stroke-width="1"
    transform="translate(-18.9743589743,-1.2820512820)"
    />
  
  <line
    x1="11.965811965811966"
    y1="-20.512820512820515"
    x2="11.965811965811966"
    y2="23.076923076923077"
    stroke="hsla(0,50%,50%,0.6)"
    stroke-width="1"
    transform="translate(-18.9743589743,-1.2820512820)"
    />
  
  <line
    x1="16.666666666666668"
    y1="-20.512820512820515"
    x2="16.666666666666668"
    y2="23.076923076923077"
    stroke="hsla(0,50%,50%,0.6)"
    stroke-width="1"
    transform="translate(-18.9743589743,-1.2820512820)"
    />
  
  <line
    x1="22.22222222222222"
    y1="-20.512820512820515"
    x2="22.22222222222222"
    y2="23.076923076923077"
    stroke="hsla(0,50%,50%,0.6)"
    stroke-width="1"
    transform="translate(-18.9743589743,-1.2820512820)"
    />
  
  <line
    x1="26.666666666666668"
    y1="-20.512820512820515"
    x2="26.666666666666668"
    y2="23.076923076923077"
    stroke="hsla(0,50%,50%,0.6)"
    stroke-width="1"
    transform="translate(-18.9743589743,-1.2820512820)"
    />
  
  <line
    x1="28.205128205128204"
    y1="-20.512820512820515"
    x2="28.205128205128204"
    y2="23.076923076923077"
    stroke="hsla(0,50%,50%,0.6)"
    stroke-width="1"
    transform="translate(-18.9743589743,-1.2820512820)"
    />
  
  <line
    x1="9.743589743589743"
    y1="12.820512820512821"
    x2="28.205128205128204"
    y2="12.820512820512821"
    stroke="hsla(0,50%,50%,0.6)"
    stroke-width="1"
    transform="translate(-18.9743589743,-1.2820512820)"
    />
  
  <line
    x1="9.743589743589743"
    y1="16.666666666666668"
    x2="28.205128205128204"
    y2="16.666666666666668"
    stroke="hsla(0,50%,50%,0.6)"
    stroke-width="1"
    transform="translate(-18.9743589743,-1.2820512820)"
    />
  
  <line
    x1="9.743589743589743"
    y1="23.076923076923077"
    x2="28.205128205128204"
    y2="23.076923076923077"
    stroke="hsla(0,50%,50%,0.6)"
    stroke-width="1"
    transform="translate(-18.9743589743,-1.2820512820)"
    />
  
</svg>
