<?xml version="1.0"?>
<!DOCTYPE svg PUBLIC "-//W3C//DTD SVG 1.1//EN"
  "http://www.w3.org/Graphics/SVG/1.1/DTD/svg11.dtd">
<svg
  width="240"
  height="240"
  viewBox="-50 -50 200 200" xmlns="http://www.w3.org/2000/svg" version="1.1">
  <rect
    x="0"
    y="0"
    width="100"
    height="100"
    fill="hsla(206,100%,53%,0.3)"
    stroke="hsl(206,100%,53%)"
    stroke-width="3"
    transform="" />
  
  <path
    d="M 
      43.1670024345
      23.2753272683
      L
    
      59.2600182804
      30.1502702487
      L
    
      54.5766161444
      41.1132796878
      L
    
      56.1666666666
      41.0574712643
      L
    
      73.6666666666
      57.9540229885
      L
    
      73.6666666666
      79.0451388888
      L
    
      82.0198963538
      82.2720710716
      L
    
      75.7136775865
      98.5963353692
      L
    
      73.6666666666
      97.8055555555
      L
    
      56.1666666666
      72.2847222222
      L
    
      56.1666666666
      58.5682471264
      L
    
      46.9821330401
      58.8906106835
      L
    
      35.2569406267
      41.7913717472
      z
    "
    fill="hsla(0,0%,50%,0.3)"
    stroke="hsla(0,0%,50%,1)"
    stroke-width="1"
    transform="translate(-44.5692897799,-53.1920813948) scale(1,-1) translate(50,-110)"
    />
  
  
  <line
    x1="56.166666666666664"
    y1="41.05747126436781"
    x2="73.66666666666667"
    y2="57.95402298850575"
    stroke="hsla(0,50%,50%,0.6)"
    stroke-width="1"
    transform="translate(-44.5692897799,-53.1920813948) scale(1,-1) translate(50,-110)"
    />
  
  <line
    x1="35.25694062671798"
    y1="41.79137174729705"
    x2="46.98213304013194"
    y2="58.89061068352574"
    stroke="hsla(0,50%,50%,0.6)"
    stroke-width="1"
    transform="translate(-44.5692897799,-53.1920813948) scale(1,-1) translate(50,-110)"
    />
  
  <line
    x1="56.166666666666664"
    y1="72.28472222222223"
    x2="73.66666666666667"
    y2="97.80555555555556"
    stroke="hsla(0,50%,50%,0.6)"
    stroke-width="1"
    transform="translate(-44.5692897799,-53.1920813948) scale(1,-1) translate(50,-110)"
    />
  
  <line
    x1="56.166666666666664"
    y1="41.05747126436781"
    x2="56.166666666666664"
    y2="72.28472222222223"
    stroke="hsla(0,50%,50%,0.6)"
    stroke-width="1"
    transform="translate(-44.5692897799,-53.1920813948) scale(1,-1) translate(50,-110)"
    />
  
  <line
    x1="65"
    y1="49.58620689655172"
    x2="65"
    y2="85.16666666666667"
    stroke="hsla(0,50%,50%,0.6)"
    stroke-width="1"
    transform="translate(-44.5692897799,-53.1920813948) scale(1,-1) translate(50,-110)"
    />
  
  <line
    x1="68.33333333333333"
    y1="52.804597701149426"
    x2="68.33333333333333"
    y2="90.02777777777777"
    stroke="hsla(0,50%,50%,0.6)"
    stroke-width="1"
    transform="translate(-44.5692897799,-53.1920813948) scale(1,-1) translate(50,-110)"
    />
  
  <line
    x1="69.33333333333333"
    y1="53.770114942528735"
    x2="69.33333333333333"
    y2="91.48611111111111"
    stroke="hsla(0,50%,50%,0.6)"
    stroke-width="1"
    transform="translate(-44.5692897799,-53.1920813948) scale(1,-1) translate(50,-110)"
    />
  
  <line
    x1="73.66666666666667"
    y1="57.95402298850575"
    x2="73.66666666666667"
    y2="97.80555555555556"
    stroke="hsla(0,50%,50%,0.6)"
    stroke-width="1"
    transform="translate(-44.5692897799,-53.1920813948) scale(1,-1) translate(50,-110)"
    />
  
  <line
    x1="43.16700243454491"
    y1="23.275327268326713"
    x2="59.26001828044249"
    y2="30.15027024872222"
    stroke="hsla(0,50%,50%,0.6)"
    stroke-width="1"
    transform="translate(-44.5692897799,-53.1920813948) scale(1,-1) translate(50,-110)"
    />
  
  <line
    x1="43.16700243454491"
    y1="23.275327268326713"
    x2="35.25694062671798"
    y2="41.79137174729705"
    stroke="hsla(0,50%,50%,0.6)"
    stroke-width="1"
    transform="translate(-44.5692897799,-53.1920813948) scale(1,-1) translate(50,-110)"
    />
  
  <line
    x1="51.29014376628369"
    y1="26.745536582240636"
    x2="41.17537108301264"
    y2="50.422416162726776"
    stroke="hsla(0,50%,50%,0.6)"
    stroke-width="1"
    transform="translate(-44.5692897799,-53.1920813948) scale(1,-1) translate(50,-110)"
    />
  
  <line
    x1="54.355480117883225"
    y1="28.0550495308874"
    x2="43.408741066520065"
    y2="53.679414055341766"
    stroke="hsla(0,50%,50%,0.6)"
    stroke-width="1"
    transform="translate(-44.5692897799,-53.1920813948) scale(1,-1) translate(50,-110)"
    />
  
  <line
    x1="55.275081023363086"
    y1="28.447903415481427"
    x2="44.078752061572295"
    y2="54.65651342312626"
    stroke="hsla(0,50%,50%,0.6)"
    stroke-width="1"
    transform="translate(-44.5692897799,-53.1920813948) scale(1,-1) translate(50,-110)"
    />
  
  <line
    x1="59.26001828044249"
    y1="30.15027024872222"
    x2="46.98213304013194"
    y2="58.89061068352574"
    stroke="hsla(0,50%,50%,0.6)"
    stroke-width="1"
    transform="translate(-44.5692897799,-53.1920813948) scale(1,-1) translate(50,-110)"
    />
  
  <line
    x1="82.01989635387747"
    y1="82.27207107162687"
    x2="75.713677586526"
    y2="98.59633536923931"
    stroke="hsla(0,50%,50%,0.6)"
    stroke-width="1"
    transform="translate(-44.5692897799,-53.1920813948) scale(1,-1) translate(50,-110)"
    />
  
  <line
    x1="56.166666666666664"
    y1="41.05747126436781"
    x2="35.25694062671798"
    y2="41.79137174729705"
    stroke="hsla(0,50%,50%,0.6)"
    stroke-width="1"
    transform="translate(-44.5692897799,-53.1920813948) scale(1,-1) translate(50,-110)"
    />
  
  <line
    x1="56.166666666666664"
    y1="72.28472222222223"
    x2="82.01989635387747"
    y2="82.27207107162687"
    stroke="hsla(0,50%,50%,0.6)"
    stroke-width="1"
    transform="translate(-44.5692897799,-53.1920813948) scale(1,-1) translate(50,-110)"
    />
  
  <line
    x1="65"
    y1="49.58620689655172"
    x2="41.17537108301264"
    y2="50.422416162726776"
    stroke="hsla(0,50%,50%,0.6)"
    stroke-width="1"
    transform="translate(-44.5692897799,-53.1920813948) scale(1,-1) translate(50,-110)"
    />
  
  <line
    x1="65"
    y1="85.16666666666667"
    x2="78.83675735702387"
    y2="90.51193781232648"
    stroke="hsla(0,50%,50%,0.6)"
    stroke-width="1"
    transform="translate(-44.5692897799,-53.1920813948) scale(1,-1) translate(50,-110)"
    />
  
  <line
    x1="68.33333333333333"
    y1="52.804597701149426"
    x2="43.408741066520065"
    y2="53.679414055341766"
    stroke="hsla(0,50%,50%,0.6)"
    stroke-width="1"
    transform="translate(-44.5692897799,-53.1920813948) scale(1,-1) translate(50,-110)"
    />
  
  <line
    x1="68.33333333333333"
    y1="90.02777777777777"
    x2="77.63557282990931"
    y2="93.6213214880622"
    stroke="hsla(0,50%,50%,0.6)"
    stroke-width="1"
    transform="translate(-44.5692897799,-53.1920813948) scale(1,-1) translate(50,-110)"
    />
  
  <line
    x1="69.33333333333333"
    y1="53.770114942528735"
    x2="44.078752061572295"
    y2="54.65651342312626"
    stroke="hsla(0,50%,50%,0.6)"
    stroke-width="1"
    transform="translate(-44.5692897799,-53.1920813948) scale(1,-1) translate(50,-110)"
    />
  
  <line
    x1="69.33333333333333"
    y1="91.48611111111111"
    x2="77.27521747177494"
    y2="94.5541365907829"
    stroke="hsla(0,50%,50%,0.6)"
    stroke-width="1"
    transform="translate(-44.5692897799,-53.1920813948) scale(1,-1) translate(50,-110)"
    />
  
  <line
    x1="73.66666666666667"
    y1="97.80555555555556"
    x2="75.713677586526"
    y2="98.59633536923931"
    stroke="hsla(0,50%,50%,0.6)"
    stroke-width="1"
    transform="translate(-44.5692897799,-53.1920813948) scale(1,-1) translate(50,-110)"
    />
  
  <line
    x1="73.66666666666667"
    y1="57.95402298850575"
    x2="46.98213304013194"
    y2="58.89061068352574"
    stroke="hsla(0,50%,50%,0.6)"
    stroke-width="1"
    transform="translate(-44.5692897799,-53.1920813948) scale(1,-1) translate(50,-110)"
    />
  
</svg>
