<?xml version="1.0"?>
<!DOCTYPE svg PUBLIC "-//W3C//DTD SVG 1.1//EN"
  "http://www.w3.org/Graphics/SVG/1.1/DTD/svg11.dtd">
<svg
  width="240"
  height="240"
  viewBox="-500 -500 1000 1000" xmlns="http://www.w3.org/2000/svg" version="1.1">
  <rect
    x="0"
    y="0"
    width="100"
    height="100"
    fill="hsla(206,100%,53%,0.3)"
    stroke="hsl(206,100%,53%)"
    stroke-width="3"
    transform="" />
  
  <path
    d="M 
      34.6518936757
      6.3470766013
      L
    
      36.1090673020
      11.3565642880
      L
    
      77.0830015270
      13.7318648228
      L
    
      88.3287672781
      28.8645899973
      L
    
      86.5704401949
      38.7066808991
      L
    
      58.3326357133
      33.6618894128
      L
    
      36.9220548160
      56.4194936115
      L
    
      38.6097577272
      93.6447647393
      L
    
      34.2786658704
      93.8411258701
      L
    
      16.2680625479
      78.3729092343
      L
    
      13.5176572694
      26.6652899982
      L
    
      31.7253094622
      6.8319545738
      z
    "
    fill="hsla(0,0%,50%,0.3)"
    stroke="hsla(0,0%,50%,1)"
    stroke-width="1"
    transform="translate(-50.9232122737,-50.0941012357)"
    />
  
  
  <line
    x1="77.08300152702259"
    y1="13.731864822822565"
    x2="88.3287672781333"
    y2="28.864589997371883"
    stroke="hsla(0,50%,50%,0.6)"
    stroke-width="1"
    transform="translate(-50.9232122737,-50.0941012357)"
    />
  
  <line
    x1="34.6518936757038"
    y1="6.347076601396802"
    x2="38.17468209285233"
    y2="18.45775777136453"
    stroke="hsla(0,50%,50%,0.6)"
    stroke-width="1"
    transform="translate(-50.9232122737,-50.0941012357)"
    />
  
  <line
    x1="26.21984193379343"
    y1="12.828981703070253"
    x2="27.153444024829284"
    y2="16.963248818140748"
    stroke="hsla(0,50%,50%,0.6)"
    stroke-width="1"
    transform="translate(-50.9232122737,-50.0941012357)"
    />
  
  <line
    x1="28.00297014813144"
    y1="10.886645612452064"
    x2="30.2023031087566"
    y2="26.126577557771704"
    stroke="hsla(0,50%,50%,0.6)"
    stroke-width="1"
    transform="translate(-50.9232122737,-50.0941012357)"
    />
  
  <line
    x1="18.912148530129407"
    y1="20.78914773206142"
    x2="20.067689745206398"
    y2="26.45380310097404"
    stroke="hsla(0,50%,50%,0.6)"
    stroke-width="1"
    transform="translate(-50.9232122737,-50.0941012357)"
    />
  
  <line
    x1="25.69669448297734"
    y1="13.39883874770921"
    x2="34.27866587045996"
    y2="93.841125870166"
    stroke="hsla(0,50%,50%,0.6)"
    stroke-width="1"
    transform="translate(-50.9232122737,-50.0941012357)"
    />
  
  <line
    x1="14.314041806838835"
    y1="25.797799698502935"
    x2="14.538021886801362"
    y2="26.63234455132703"
    stroke="hsla(0,50%,50%,0.6)"
    stroke-width="1"
    transform="translate(-50.9232122737,-50.0941012357)"
    />
  
  <line
    x1="34.6518936757038"
    y1="6.347076601396802"
    x2="38.60975772721437"
    y2="93.6447647393127"
    stroke="hsla(0,50%,50%,0.6)"
    stroke-width="1"
    transform="translate(-50.9232122737,-50.0941012357)"
    />
  
  <line
    x1="13.517657269408032"
    y1="26.665289998204347"
    x2="16.26806254792785"
    y2="78.3729092343769"
    stroke="hsla(0,50%,50%,0.6)"
    stroke-width="1"
    transform="translate(-50.9232122737,-50.0941012357)"
    />
  
  <line
    x1="31.725309462213954"
    y1="6.831954573897895"
    x2="30.2023031087566"
    y2="26.126577557771704"
    stroke="hsla(0,50%,50%,0.6)"
    stroke-width="1"
    transform="translate(-50.9232122737,-50.0941012357)"
    />
  
  <line
    x1="21.18768397284761"
    y1="18.310439481957665"
    x2="20.067689745206398"
    y2="26.45380310097404"
    stroke="hsla(0,50%,50%,0.6)"
    stroke-width="1"
    transform="translate(-50.9232122737,-50.0941012357)"
    />
  
  <line
    x1="14.814281593151387"
    y1="25.252895645555334"
    x2="14.538021886801362"
    y2="26.63234455132703"
    stroke="hsla(0,50%,50%,0.6)"
    stroke-width="1"
    transform="translate(-50.9232122737,-50.0941012357)"
    />
  
  <line
    x1="26.21984193379343"
    y1="12.828981703070253"
    x2="31.197896005081382"
    y2="13.513636359987292"
    stroke="hsla(0,50%,50%,0.6)"
    stroke-width="1"
    transform="translate(-50.9232122737,-50.0941012357)"
    />
  
  <line
    x1="28.00297014813144"
    y1="10.886645612452064"
    x2="77.08300152702259"
    y2="13.731864822822565"
    stroke="hsla(0,50%,50%,0.6)"
    stroke-width="1"
    transform="translate(-50.9232122737,-50.0941012357)"
    />
  
  <line
    x1="34.6518936757038"
    y1="6.347076601396802"
    x2="31.725309462213954"
    y2="6.831954573897895"
    stroke="hsla(0,50%,50%,0.6)"
    stroke-width="1"
    transform="translate(-50.9232122737,-50.0941012357)"
    />
  
  <line
    x1="25.69669448297734"
    y1="13.39883874770921"
    x2="31.197896005081382"
    y2="13.513636359987292"
    stroke="hsla(0,50%,50%,0.6)"
    stroke-width="1"
    transform="translate(-50.9232122737,-50.0941012357)"
    />
  
  <line
    x1="88.3287672781333"
    y1="28.864589997371883"
    x2="86.57044019499347"
    y2="38.70668089910652"
    stroke="hsla(0,50%,50%,0.6)"
    stroke-width="1"
    transform="translate(-50.9232122737,-50.0941012357)"
    />
  
  <line
    x1="18.912148530129407"
    y1="20.78914773206142"
    x2="88.3287672781333"
    y2="28.864589997371883"
    stroke="hsla(0,50%,50%,0.6)"
    stroke-width="1"
    transform="translate(-50.9232122737,-50.0941012357)"
    />
  
  <line
    x1="31.725309462213954"
    y1="6.831954573897895"
    x2="13.517657269408032"
    y2="26.665289998204347"
    stroke="hsla(0,50%,50%,0.6)"
    stroke-width="1"
    transform="translate(-50.9232122737,-50.0941012357)"
    />
  
  <line
    x1="27.153444024829284"
    y1="16.963248818140748"
    x2="21.18768397284761"
    y2="18.310439481957665"
    stroke="hsla(0,50%,50%,0.6)"
    stroke-width="1"
    transform="translate(-50.9232122737,-50.0941012357)"
    />
  
  <line
    x1="14.314041806838835"
    y1="25.797799698502935"
    x2="86.57044019499347"
    y2="38.70668089910652"
    stroke="hsla(0,50%,50%,0.6)"
    stroke-width="1"
    transform="translate(-50.9232122737,-50.0941012357)"
    />
  
  <line
    x1="30.2023031087566"
    y1="26.126577557771704"
    x2="13.517657269408032"
    y2="26.665289998204347"
    stroke="hsla(0,50%,50%,0.6)"
    stroke-width="1"
    transform="translate(-50.9232122737,-50.0941012357)"
    />
  
  <line
    x1="38.17468209285233"
    y1="18.45775777136453"
    x2="14.814281593151387"
    y2="25.252895645555334"
    stroke="hsla(0,50%,50%,0.6)"
    stroke-width="1"
    transform="translate(-50.9232122737,-50.0941012357)"
    />
  
  <line
    x1="16.26806254792785"
    y1="78.3729092343769"
    x2="34.27866587045996"
    y2="93.841125870166"
    stroke="hsla(0,50%,50%,0.6)"
    stroke-width="1"
    transform="translate(-50.9232122737,-50.0941012357)"
    />
  
  <line
    x1="77.08300152702259"
    y1="13.731864822822565"
    x2="16.26806254792785"
    y2="78.3729092343769"
    stroke="hsla(0,50%,50%,0.6)"
    stroke-width="1"
    transform="translate(-50.9232122737,-50.0941012357)"
    />
  
  <line
    x1="38.60975772721437"
    y1="93.6447647393127"
    x2="34.27866587045996"
    y2="93.841125870166"
    stroke="hsla(0,50%,50%,0.6)"
    stroke-width="1"
    transform="translate(-50.9232122737,-50.0941012357)"
    />
  
</svg>
