<?xml version="1.0"?>
<!DOCTYPE svg PUBLIC "-//W3C//DTD SVG 1.1//EN"
  "http://www.w3.org/Graphics/SVG/1.1/DTD/svg11.dtd">
<svg
  width="240"
  height="240"
  viewBox="-500 -500 1000 1000" xmlns="http://www.w3.org/2000/svg" version="1.1">
  <rect
    x="0"
    y="0"
    width="100"
    height="100"
    fill="hsla(206,100%,53%,0.3)"
    stroke="hsl(206,100%,53%)"
    stroke-width="3"
    transform="" />
  
  <path
    d="M 
      100
      53.8461538461
      L
    
      101.9758940920
      61.4254809275
      L
    
      142.8571428571
      66.6666666666
      L
    
      142.8571428571
      100
      L
    
      134.1673032849
      100
      L
    
      126.0395490667
      131.1772315653
      L
    
      71.4285714285
      116.9404125286
      L
    
      71.4285714285
      57.5091575091
      z
    "
    fill="hsla(0,0%,50%,0.3)"
    stroke="hsla(0,0%,50%,1)"
    stroke-width="1"
    transform="translate(-107.1428571428,-92.5116927057)"
    />
  
  
  <line
    x1="100"
    y1="53.84615384615385"
    x2="113.58344113842173"
    y2="105.95084087968952"
    stroke="hsla(0,50%,50%,0.6)"
    stroke-width="1"
    transform="translate(-107.1428571428,-92.5116927057)"
    />
  
  <line
    x1="71.42857142857143"
    y1="57.50915750915751"
    x2="71.42857142857143"
    y2="116.94041252864783"
    stroke="hsla(0,50%,50%,0.6)"
    stroke-width="1"
    transform="translate(-107.1428571428,-92.5116927057)"
    />
  
  <line
    x1="100"
    y1="53.84615384615385"
    x2="100"
    y2="100"
    stroke="hsla(0,50%,50%,0.6)"
    stroke-width="1"
    transform="translate(-107.1428571428,-92.5116927057)"
    />
  
  <line
    x1="142.85714285714286"
    y1="66.66666666666667"
    x2="142.85714285714286"
    y2="100"
    stroke="hsla(0,50%,50%,0.6)"
    stroke-width="1"
    transform="translate(-107.1428571428,-92.5116927057)"
    />
  
  <line
    x1="142.85714285714286"
    y1="66.66666666666667"
    x2="126.03954906671595"
    y2="131.1772315653299"
    stroke="hsla(0,50%,50%,0.6)"
    stroke-width="1"
    transform="translate(-107.1428571428,-92.5116927057)"
    />
  
  <line
    x1="71.42857142857143"
    y1="57.50915750915751"
    x2="142.85714285714286"
    y2="66.66666666666667"
    stroke="hsla(0,50%,50%,0.6)"
    stroke-width="1"
    transform="translate(-107.1428571428,-92.5116927057)"
    />
  
  <line
    x1="100"
    y1="53.84615384615385"
    x2="71.42857142857143"
    y2="57.50915750915751"
    stroke="hsla(0,50%,50%,0.6)"
    stroke-width="1"
    transform="translate(-107.1428571428,-92.5116927057)"
    />
  
  <line
    x1="71.42857142857143"
    y1="116.94041252864783"
    x2="126.03954906671595"
    y2="131.1772315653299"
    stroke="hsla(0,50%,50%,0.6)"
    stroke-width="1"
    transform="translate(-107.1428571428,-92.5116927057)"
    />
  
  <line
    x1="71.42857142857143"
    y1="100"
    x2="142.85714285714286"
    y2="100"
    stroke="hsla(0,50%,50%,0.6)"
    stroke-width="1"
    transform="translate(-107.1428571428,-92.5116927057)"
    />
  
  <line
    x1="113.58344113842173"
    y1="105.95084087968952"
    x2="71.42857142857143"
    y2="116.94041252864783"
    stroke="hsla(0,50%,50%,0.6)"
    stroke-width="1"
    transform="translate(-107.1428571428,-92.5116927057)"
    />
  
</svg>
