<?xml version="1.0"?>
<!DOCTYPE svg PUBLIC "-//W3C//DTD SVG 1.1//EN"
  "http://www.w3.org/Graphics/SVG/1.1/DTD/svg11.dtd">
<svg
  width="240"
  height="240"
  viewBox="-500 -500 1000 1000" xmlns="http://www.w3.org/2000/svg" version="1.1">
  <rect
    x="0"
    y="0"
    width="100"
    height="100"
    fill="hsla(206,100%,53%,0.3)"
    stroke="hsl(206,100%,53%)"
    stroke-width="3"
    transform="" />
  
  <path
    d="M 
      73.3070329108
      -1.5086611512
      L
    
      94.7622971614
      10.5047722034
      L
    
      75.6721155215
      44.5986802133
      L
    
      98.1535679540
      107.1178434772
      L
    
      96.9677222960
      108.8387035659
      L
    
      91.8830626371
      105.3348617261
      L
    
      48.5614855943
      93.0166230206
      L
    
      45.9066494421
      97.7579995702
      L
    
      25.9626776218
      86.5907832874
      L
    
      56.8962675714
      12.1284537081
      z
    "
    fill="hsla(0,0%,50%,0.3)"
    stroke="hsla(0,0%,50%,1)"
    stroke-width="1"
    transform="translate(-62.0581227879,-53.6650212073)"
    />
  
  
  <line
    x1="73.3070329108344"
    y1="-1.5086611512567492"
    x2="94.76229716149453"
    y2="10.504772203467345"
    stroke="hsla(0,50%,50%,0.6)"
    stroke-width="1"
    transform="translate(-62.0581227879,-53.6650212073)"
    />
  
  <line
    x1="73.3070329108344"
    y1="-1.5086611512567492"
    x2="73.8176265270506"
    y2="0"
    stroke="hsla(0,50%,50%,0.6)"
    stroke-width="1"
    transform="translate(-62.0581227879,-53.6650212073)"
    />
  
  <line
    x1="62.362614214359134"
    y1="7.585996638771988"
    x2="66.5989001358398"
    y2="10.06406380088515"
    stroke="hsla(0,50%,50%,0.6)"
    stroke-width="1"
    transform="translate(-62.0581227879,-53.6650212073)"
    />
  
  <line
    x1="62.362614214359134"
    y1="7.585996638771988"
    x2="98.1535679540156"
    y2="107.1178434772851"
    stroke="hsla(0,50%,50%,0.6)"
    stroke-width="1"
    transform="translate(-62.0581227879,-53.6650212073)"
    />
  
  <line
    x1="71.49152542372882"
    y1="0"
    x2="73.8176265270506"
    y2="0"
    stroke="hsla(0,50%,50%,0.6)"
    stroke-width="1"
    transform="translate(-62.0581227879,-53.6650212073)"
    />
  
  <line
    x1="71.49152542372882"
    y1="0"
    x2="58.40459985918798"
    y2="70.2835015254635"
    stroke="hsla(0,50%,50%,0.6)"
    stroke-width="1"
    transform="translate(-62.0581227879,-53.6650212073)"
    />
  
  <line
    x1="56.896267571497816"
    y1="12.128453708191953"
    x2="25.962677621835077"
    y2="86.59078328746732"
    stroke="hsla(0,50%,50%,0.6)"
    stroke-width="1"
    transform="translate(-62.0581227879,-53.6650212073)"
    />
  
  <line
    x1="66.5989001358398"
    y1="10.06406380088515"
    x2="56.896267571497816"
    y2="12.128453708191953"
    stroke="hsla(0,50%,50%,0.6)"
    stroke-width="1"
    transform="translate(-62.0581227879,-53.6650212073)"
    />
  
  <line
    x1="34.58005063240574"
    y1="65.8473238226967"
    x2="96.9677222960185"
    y2="108.83870356590626"
    stroke="hsla(0,50%,50%,0.6)"
    stroke-width="1"
    transform="translate(-62.0581227879,-53.6650212073)"
    />
  
  <line
    x1="73.8176265270506"
    y1="0"
    x2="66.5989001358398"
    y2="10.06406380088515"
    stroke="hsla(0,50%,50%,0.6)"
    stroke-width="1"
    transform="translate(-62.0581227879,-53.6650212073)"
    />
  
  <line
    x1="73.3070329108344"
    y1="-1.5086611512567492"
    x2="56.896267571497816"
    y2="12.128453708191953"
    stroke="hsla(0,50%,50%,0.6)"
    stroke-width="1"
    transform="translate(-62.0581227879,-53.6650212073)"
    />
  
  <line
    x1="94.76229716149453"
    y1="10.504772203467345"
    x2="45.90664944215008"
    y2="97.75799957027203"
    stroke="hsla(0,50%,50%,0.6)"
    stroke-width="1"
    transform="translate(-62.0581227879,-53.6650212073)"
    />
  
  <line
    x1="25.962677621835077"
    y1="86.59078328746732"
    x2="45.90664944215008"
    y2="97.75799957027203"
    stroke="hsla(0,50%,50%,0.6)"
    stroke-width="1"
    transform="translate(-62.0581227879,-53.6650212073)"
    />
  
  <line
    x1="34.58005063240574"
    y1="65.8473238226967"
    x2="58.40459985918798"
    y2="70.2835015254635"
    stroke="hsla(0,50%,50%,0.6)"
    stroke-width="1"
    transform="translate(-62.0581227879,-53.6650212073)"
    />
  
  <line
    x1="25.962677621835077"
    y1="86.59078328746732"
    x2="98.1535679540156"
    y2="107.1178434772851"
    stroke="hsla(0,50%,50%,0.6)"
    stroke-width="1"
    transform="translate(-62.0581227879,-53.6650212073)"
    />
  
  <line
    x1="98.1535679540156"
    y1="107.1178434772851"
    x2="96.9677222960185"
    y2="108.83870356590626"
    stroke="hsla(0,50%,50%,0.6)"
    stroke-width="1"
    transform="translate(-62.0581227879,-53.6650212073)"
    />
  
</svg>
