<?xml version="1.0"?>
<!DOCTYPE svg PUBLIC "-//W3C//DTD SVG 1.1//EN"
  "http://www.w3.org/Graphics/SVG/1.1/DTD/svg11.dtd">
<svg
  width="240"
  height="240"
  viewBox="-50 -50 200 200" xmlns="http://www.w3.org/2000/svg" version="1.1">
  <rect
    x="0"
    y="0"
    width="100"
    height="100"
    fill="hsla(206,100%,53%,0.3)"
    stroke="hsl(206,100%,53%)"
    stroke-width="3"
    transform="" />
  
  <path
    d="M 
      30.1616407473
      -21.5045053841
      L
    
      46.8520812685
      -8.5718017013
      L
    
      45.9235699976
      17.1937376659
      L
    
      66.8979933110
      23.4860646599
      L
    
      62.0783035570
      48.4399071072
      L
    
      52.0439165918
      50.4878124599
      L
    
      14.4423407917
      30.3441111384
      L
    
      18.7679680890
      -6.8002779861
      z
    "
    fill="hsla(0,0%,50%,0.3)"
    stroke="hsla(0,0%,50%,1)"
    stroke-width="1"
    transform="translate(-26.7897405641,-14.2919800657) scale(1,-1) translate(50,-110)"
    />
  
  
  <line
    x1="30.161640747332815"
    y1="-21.504505384146245"
    x2="46.85208126858276"
    y2="-8.571801701354476"
    stroke="hsla(0,50%,50%,0.6)"
    stroke-width="1"
    transform="translate(-26.7897405641,-14.2919800657) scale(1,-1) translate(50,-110)"
    />
  
  <line
    x1="49.459091008389"
    y1="44.12464256960495"
    x2="52.043916591816824"
    y2="50.48781245990187"
    stroke="hsla(0,50%,50%,0.6)"
    stroke-width="1"
    transform="translate(-26.7897405641,-14.2919800657) scale(1,-1) translate(50,-110)"
    />
  
  <line
    x1="37.72137633581551"
    y1="14.733079567411322"
    x2="51.17388189655104"
    y2="49.6005547756635"
    stroke="hsla(0,50%,50%,0.6)"
    stroke-width="1"
    transform="translate(-26.7897405641,-14.2919800657) scale(1,-1) translate(50,-110)"
    />
  
  <line
    x1="49.459091008389"
    y1="44.12464256960495"
    x2="50.71685223339259"
    y2="49.77688512503175"
    stroke="hsla(0,50%,50%,0.6)"
    stroke-width="1"
    transform="translate(-26.7897405641,-14.2919800657) scale(1,-1) translate(50,-110)"
    />
  
  <line
    x1="18.767968089017764"
    y1="-6.8002779861867"
    x2="25.6709078906108"
    y2="8.356856595179917"
    stroke="hsla(0,50%,50%,0.6)"
    stroke-width="1"
    transform="translate(-26.7897405641,-14.2919800657) scale(1,-1) translate(50,-110)"
    />
  
  <line
    x1="34.13070539419087"
    y1="13.655878284923928"
    x2="43.58612666092067"
    y2="45.95685356835036"
    stroke="hsla(0,50%,50%,0.6)"
    stroke-width="1"
    transform="translate(-26.7897405641,-14.2919800657) scale(1,-1) translate(50,-110)"
    />
  
  <line
    x1="20.502428435350232"
    y1="-3.741128833131599"
    x2="46.488770636213935"
    y2="1.5098146383380926"
    stroke="hsla(0,50%,50%,0.6)"
    stroke-width="1"
    transform="translate(-26.7897405641,-14.2919800657) scale(1,-1) translate(50,-110)"
    />
  
  <line
    x1="16.63230921704658"
    y1="11.538737080560669"
    x2="45.71499034813565"
    y2="42.647268377487656"
    stroke="hsla(0,50%,50%,0.6)"
    stroke-width="1"
    transform="translate(-26.7897405641,-14.2919800657) scale(1,-1) translate(50,-110)"
    />
  
  <line
    x1="15.76824348331343"
    y1="18.958514984962907"
    x2="25.739935845640346"
    y2="36.396394203021615"
    stroke="hsla(0,50%,50%,0.6)"
    stroke-width="1"
    transform="translate(-26.7897405641,-14.2919800657) scale(1,-1) translate(50,-110)"
    />
  
  <line
    x1="17.366007933893123"
    y1="5.238427607314639"
    x2="25.6709078906108"
    y2="8.356856595179917"
    stroke="hsla(0,50%,50%,0.6)"
    stroke-width="1"
    transform="translate(-26.7897405641,-14.2919800657) scale(1,-1) translate(50,-110)"
    />
  
  <line
    x1="15.567780403467466"
    y1="20.679901995721096"
    x2="15.23985878141943"
    y2="30.771352918617552"
    stroke="hsla(0,50%,50%,0.6)"
    stroke-width="1"
    transform="translate(-26.7897405641,-14.2919800657) scale(1,-1) translate(50,-110)"
    />
  
  <line
    x1="46.85208126858276"
    y1="-8.571801701354476"
    x2="44.86239620403322"
    y2="46.64056939501779"
    stroke="hsla(0,50%,50%,0.6)"
    stroke-width="1"
    transform="translate(-26.7897405641,-14.2919800657) scale(1,-1) translate(50,-110)"
    />
  
  <line
    x1="18.767968089017764"
    y1="-6.8002779861867"
    x2="14.442340791738381"
    y2="30.344111138431277"
    stroke="hsla(0,50%,50%,0.6)"
    stroke-width="1"
    transform="translate(-26.7897405641,-14.2919800657) scale(1,-1) translate(50,-110)"
    />
  
  <line
    x1="34.13070539419087"
    y1="13.655878284923928"
    x2="66.89799331103679"
    y2="23.486064659977703"
    stroke="hsla(0,50%,50%,0.6)"
    stroke-width="1"
    transform="translate(-26.7897405641,-14.2919800657) scale(1,-1) translate(50,-110)"
    />
  
  <line
    x1="20.502428435350232"
    y1="-3.741128833131599"
    x2="15.567780403467466"
    y2="20.679901995721096"
    stroke="hsla(0,50%,50%,0.6)"
    stroke-width="1"
    transform="translate(-26.7897405641,-14.2919800657) scale(1,-1) translate(50,-110)"
    />
  
  <line
    x1="40.06406556025152"
    y1="33.92502491152115"
    x2="62.07830355705778"
    y2="48.439907107217586"
    stroke="hsla(0,50%,50%,0.6)"
    stroke-width="1"
    transform="translate(-26.7897405641,-14.2919800657) scale(1,-1) translate(50,-110)"
    />
  
  <line
    x1="30.161640747332815"
    y1="-21.504505384146245"
    x2="18.767968089017764"
    y2="-6.8002779861867"
    stroke="hsla(0,50%,50%,0.6)"
    stroke-width="1"
    transform="translate(-26.7897405641,-14.2919800657) scale(1,-1) translate(50,-110)"
    />
  
  <line
    x1="46.488770636213935"
    y1="1.5098146383380926"
    x2="17.366007933893123"
    y2="5.238427607314639"
    stroke="hsla(0,50%,50%,0.6)"
    stroke-width="1"
    transform="translate(-26.7897405641,-14.2919800657) scale(1,-1) translate(50,-110)"
    />
  
  <line
    x1="47.31666089060132"
    y1="17.611664933847063"
    x2="42.688966098125924"
    y2="45.47623183828174"
    stroke="hsla(0,50%,50%,0.6)"
    stroke-width="1"
    transform="translate(-26.7897405641,-14.2919800657) scale(1,-1) translate(50,-110)"
    />
  
  <line
    x1="66.89799331103679"
    y1="23.486064659977703"
    x2="62.07830355705778"
    y2="48.439907107217586"
    stroke="hsla(0,50%,50%,0.6)"
    stroke-width="1"
    transform="translate(-26.7897405641,-14.2919800657) scale(1,-1) translate(50,-110)"
    />
  
  <line
    x1="46.85208126858276"
    y1="-8.571801701354476"
    x2="16.63230921704658"
    y2="11.538737080560669"
    stroke="hsla(0,50%,50%,0.6)"
    stroke-width="1"
    transform="translate(-26.7897405641,-14.2919800657) scale(1,-1) translate(50,-110)"
    />
  
  <line
    x1="25.6709078906108"
    y1="8.356856595179917"
    x2="15.76824348331343"
    y2="18.958514984962907"
    stroke="hsla(0,50%,50%,0.6)"
    stroke-width="1"
    transform="translate(-26.7897405641,-14.2919800657) scale(1,-1) translate(50,-110)"
    />
  
  <line
    x1="14.442340791738381"
    y1="30.344111138431277"
    x2="52.043916591816824"
    y2="50.48781245990187"
    stroke="hsla(0,50%,50%,0.6)"
    stroke-width="1"
    transform="translate(-26.7897405641,-14.2919800657) scale(1,-1) translate(50,-110)"
    />
  
  <line
    x1="47.31666089060132"
    y1="17.611664933847063"
    x2="40.06406556025152"
    y2="33.92502491152115"
    stroke="hsla(0,50%,50%,0.6)"
    stroke-width="1"
    transform="translate(-26.7897405641,-14.2919800657) scale(1,-1) translate(50,-110)"
    />
  
  <line
    x1="34.13070539419087"
    y1="13.655878284923928"
    x2="14.442340791738381"
    y2="30.344111138431277"
    stroke="hsla(0,50%,50%,0.6)"
    stroke-width="1"
    transform="translate(-26.7897405641,-14.2919800657) scale(1,-1) translate(50,-110)"
    />
  
  <line
    x1="66.89799331103679"
    y1="23.486064659977703"
    x2="62.592778335005015"
    y2="33.89685723838181"
    stroke="hsla(0,50%,50%,0.6)"
    stroke-width="1"
    transform="translate(-26.7897405641,-14.2919800657) scale(1,-1) translate(50,-110)"
    />
  
  <line
    x1="37.72137633581551"
    y1="14.733079567411322"
    x2="15.23985878141943"
    y2="30.771352918617552"
    stroke="hsla(0,50%,50%,0.6)"
    stroke-width="1"
    transform="translate(-26.7897405641,-14.2919800657) scale(1,-1) translate(50,-110)"
    />
  
  <line
    x1="62.592778335005015"
    y1="33.89685723838181"
    x2="25.739935845640346"
    y2="36.396394203021615"
    stroke="hsla(0,50%,50%,0.6)"
    stroke-width="1"
    transform="translate(-26.7897405641,-14.2919800657) scale(1,-1) translate(50,-110)"
    />
  
  <line
    x1="45.71499034813565"
    y1="42.647268377487656"
    x2="42.688966098125924"
    y2="45.47623183828174"
    stroke="hsla(0,50%,50%,0.6)"
    stroke-width="1"
    transform="translate(-26.7897405641,-14.2919800657) scale(1,-1) translate(50,-110)"
    />
  
  <line
    x1="62.592778335005015"
    y1="33.89685723838181"
    x2="44.86239620403322"
    y2="46.64056939501779"
    stroke="hsla(0,50%,50%,0.6)"
    stroke-width="1"
    transform="translate(-26.7897405641,-14.2919800657) scale(1,-1) translate(50,-110)"
    />
  
  <line
    x1="49.459091008389"
    y1="44.12464256960495"
    x2="43.58612666092067"
    y2="45.95685356835036"
    stroke="hsla(0,50%,50%,0.6)"
    stroke-width="1"
    transform="translate(-26.7897405641,-14.2919800657) scale(1,-1) translate(50,-110)"
    />
  
  <line
    x1="62.07830355705778"
    y1="48.439907107217586"
    x2="52.043916591816824"
    y2="50.48781245990187"
    stroke="hsla(0,50%,50%,0.6)"
    stroke-width="1"
    transform="translate(-26.7897405641,-14.2919800657) scale(1,-1) translate(50,-110)"
    />
  
  <line
    x1="51.17388189655104"
    y1="49.6005547756635"
    x2="50.71685223339259"
    y2="49.77688512503175"
    stroke="hsla(0,50%,50%,0.6)"
    stroke-width="1"
    transform="translate(-26.7897405641,-14.2919800657) scale(1,-1) translate(50,-110)"
    />
  
</svg>
