<?xml version="1.0"?>
<!DOCTYPE svg PUBLIC "-//W3C//DTD SVG 1.1//EN"
  "http://www.w3.org/Graphics/SVG/1.1/DTD/svg11.dtd">
<svg
  width="240"
  height="240"
  viewBox="-500 -500 1000 1000" xmlns="http://www.w3.org/2000/svg" version="1.1">
  <rect
    x="0"
    y="0"
    width="100"
    height="100"
    fill="hsla(206,100%,53%,0.3)"
    stroke="hsl(206,100%,53%)"
    stroke-width="3"
    transform="" />
  
  <path
    d="M 
      31.7778013579
      -36.6234279698
      L
    
      67.5555733434
      7.1049600123
      L
    
      57.7008058222
      31.1153344457
      L
    
      21.0217162731
      16.0608461703
      L
    
      9.6622590241
      18.2470824366
      L
    
      2.7022673156
      13.0995427439
      L
    
      2.3787872392
      8.4090816361
      L
    
      -34.8101592916
      -6.8546712652
      L
    
      -34.4462253268
      -7.7413680588
      z
    "
    fill="hsla(0,0%,50%,0.3)"
    stroke="hsla(0,0%,50%,1)"
    stroke-width="1"
    transform="translate(-16.3727070258,2.7540467620)"
    />
  
  
  <line
    x1="31.777801357996395"
    y1="-36.62342796985626"
    x2="67.5555733434486"
    y2="7.104960012363106"
    stroke="hsla(0,50%,50%,0.6)"
    stroke-width="1"
    transform="translate(-16.3727070258,2.7540467620)"
    />
  
  <line
    x1="31.777801357996395"
    y1="-36.62342796985626"
    x2="-34.44622532687687"
    y2="-7.741368058894981"
    stroke="hsla(0,50%,50%,0.6)"
    stroke-width="1"
    transform="translate(-16.3727070258,2.7540467620)"
    />
  
  <line
    x1="-34.44622532687687"
    y1="-7.741368058894981"
    x2="-34.81015929164989"
    y2="-6.854671265242555"
    stroke="hsla(0,50%,50%,0.6)"
    stroke-width="1"
    transform="translate(-16.3727070258,2.7540467620)"
    />
  
  <line
    x1="8.049927693274856"
    y1="3.2433199938994224"
    x2="9.662259024197974"
    y2="18.24708243661678"
    stroke="hsla(0,50%,50%,0.6)"
    stroke-width="1"
    transform="translate(-16.3727070258,2.7540467620)"
    />
  
  <line
    x1="4.122873065671207"
    y1="3.6653283560356353"
    x2="5.741927689451399"
    y2="15.3476449086565"
    stroke="hsla(0,50%,50%,0.6)"
    stroke-width="1"
    transform="translate(-16.3727070258,2.7540467620)"
    />
  
  <line
    x1="2.189060263929206"
    y1="5.658040493640152"
    x2="2.702267315675243"
    y2="13.099542743957688"
    stroke="hsla(0,50%,50%,0.6)"
    stroke-width="1"
    transform="translate(-16.3727070258,2.7540467620)"
    />
  
  <line
    x1="2.189060263929206"
    y1="5.658040493640152"
    x2="6.053556200472564"
    y2="9.820395107169702"
    stroke="hsla(0,50%,50%,0.6)"
    stroke-width="1"
    transform="translate(-16.3727070258,2.7540467620)"
    />
  
  <line
    x1="2.2197007275132274"
    y1="6.102327215608466"
    x2="6.053556200472564"
    y2="9.820395107169702"
    stroke="hsla(0,50%,50%,0.6)"
    stroke-width="1"
    transform="translate(-16.3727070258,2.7540467620)"
    />
  
  <line
    x1="31.777801357996395"
    y1="-36.62342796985626"
    x2="2.189060263929206"
    y2="5.658040493640152"
    stroke="hsla(0,50%,50%,0.6)"
    stroke-width="1"
    transform="translate(-16.3727070258,2.7540467620)"
    />
  
  <line
    x1="4.122873065671207"
    y1="3.6653283560356353"
    x2="2.2197007275132274"
    y2="6.102327215608466"
    stroke="hsla(0,50%,50%,0.6)"
    stroke-width="1"
    transform="translate(-16.3727070258,2.7540467620)"
    />
  
  <line
    x1="8.049927693274856"
    y1="3.2433199938994224"
    x2="4.122873065671207"
    y2="3.6653283560356353"
    stroke="hsla(0,50%,50%,0.6)"
    stroke-width="1"
    transform="translate(-16.3727070258,2.7540467620)"
    />
  
  <line
    x1="-34.44622532687687"
    y1="-7.741368058894981"
    x2="58.287872160956645"
    y2="27.03808479076145"
    stroke="hsla(0,50%,50%,0.6)"
    stroke-width="1"
    transform="translate(-16.3727070258,2.7540467620)"
    />
  
  <line
    x1="-34.81015929164989"
    y1="-6.854671265242555"
    x2="57.700805822267505"
    y2="31.115334445733552"
    stroke="hsla(0,50%,50%,0.6)"
    stroke-width="1"
    transform="translate(-16.3727070258,2.7540467620)"
    />
  
  <line
    x1="2.702267315675243"
    y1="13.099542743957688"
    x2="9.662259024197974"
    y2="18.24708243661678"
    stroke="hsla(0,50%,50%,0.6)"
    stroke-width="1"
    transform="translate(-16.3727070258,2.7540467620)"
    />
  
  <line
    x1="6.053556200472564"
    y1="9.820395107169702"
    x2="2.702267315675243"
    y2="13.099542743957688"
    stroke="hsla(0,50%,50%,0.6)"
    stroke-width="1"
    transform="translate(-16.3727070258,2.7540467620)"
    />
  
  <line
    x1="66.32689925332988"
    y1="5.603247235551343"
    x2="5.741927689451399"
    y2="15.3476449086565"
    stroke="hsla(0,50%,50%,0.6)"
    stroke-width="1"
    transform="translate(-16.3727070258,2.7540467620)"
    />
  
  <line
    x1="67.5555733434486"
    y1="7.104960012363106"
    x2="9.662259024197974"
    y2="18.24708243661678"
    stroke="hsla(0,50%,50%,0.6)"
    stroke-width="1"
    transform="translate(-16.3727070258,2.7540467620)"
    />
  
  <line
    x1="66.32689925332988"
    y1="5.603247235551343"
    x2="58.287872160956645"
    y2="27.03808479076145"
    stroke="hsla(0,50%,50%,0.6)"
    stroke-width="1"
    transform="translate(-16.3727070258,2.7540467620)"
    />
  
  <line
    x1="67.5555733434486"
    y1="7.104960012363106"
    x2="57.700805822267505"
    y2="31.115334445733552"
    stroke="hsla(0,50%,50%,0.6)"
    stroke-width="1"
    transform="translate(-16.3727070258,2.7540467620)"
    />
  
</svg>
