<?xml version="1.0"?>
<!DOCTYPE svg PUBLIC "-//W3C//DTD SVG 1.1//EN"
  "http://www.w3.org/Graphics/SVG/1.1/DTD/svg11.dtd">
<svg
  width="240"
  height="240"
  viewBox="-50 -50 200 200" xmlns="http://www.w3.org/2000/svg" version="1.1">
  <rect
    x="0"
    y="0"
    width="100"
    height="100"
    fill="hsla(206,100%,53%,0.3)"
    stroke="hsl(206,100%,53%)"
    stroke-width="3"
    transform="" />
  
  <path
    d="M 
      142.8571428571
      33.3333333333
      L
    
      155.9801712483
      63.9747634069
      L
    
      142.8571428571
      69.5950583390
      L
    
      142.8571428571
      100
      L
    
      80.2333562113
      100
      L
    
      78.8012618296
      103.3438485804
      L
    
      71.4285714285
      100.1862927738
      L
    
      71.4285714285
      47.9853479853
      z
    "
    fill="hsla(0,0%,50%,0.3)"
    stroke="hsla(0,0%,50%,1)"
    stroke-width="1"
    transform="translate(-77.4672661512,-73.1798705510) scale(1,-1) translate(50,-110)"
    />
  
  
  <line
    x1="142.85714285714286"
    y1="33.333333333333336"
    x2="155.98017124831006"
    y2="63.97476340694006"
    stroke="hsla(0,50%,50%,0.6)"
    stroke-width="1"
    transform="translate(-77.4672661512,-73.1798705510) scale(1,-1) translate(50,-110)"
    />
  
  <line
    x1="71.42857142857143"
    y1="47.985347985347985"
    x2="71.42857142857143"
    y2="100.18629277380136"
    stroke="hsla(0,50%,50%,0.6)"
    stroke-width="1"
    transform="translate(-77.4672661512,-73.1798705510) scale(1,-1) translate(50,-110)"
    />
  
  <line
    x1="100"
    y1="53.84615384615385"
    x2="100"
    y2="100"
    stroke="hsla(0,50%,50%,0.6)"
    stroke-width="1"
    transform="translate(-77.4672661512,-73.1798705510) scale(1,-1) translate(50,-110)"
    />
  
  <line
    x1="142.85714285714286"
    y1="33.333333333333336"
    x2="142.85714285714286"
    y2="100"
    stroke="hsla(0,50%,50%,0.6)"
    stroke-width="1"
    transform="translate(-77.4672661512,-73.1798705510) scale(1,-1) translate(50,-110)"
    />
  
  <line
    x1="71.42857142857143"
    y1="47.985347985347985"
    x2="100"
    y2="53.84615384615385"
    stroke="hsla(0,50%,50%,0.6)"
    stroke-width="1"
    transform="translate(-77.4672661512,-73.1798705510) scale(1,-1) translate(50,-110)"
    />
  
  <line
    x1="100"
    y1="53.84615384615385"
    x2="78.801261829653"
    y2="103.34384858044164"
    stroke="hsla(0,50%,50%,0.6)"
    stroke-width="1"
    transform="translate(-77.4672661512,-73.1798705510) scale(1,-1) translate(50,-110)"
    />
  
  <line
    x1="71.42857142857143"
    y1="100.18629277380136"
    x2="78.801261829653"
    y2="103.34384858044164"
    stroke="hsla(0,50%,50%,0.6)"
    stroke-width="1"
    transform="translate(-77.4672661512,-73.1798705510) scale(1,-1) translate(50,-110)"
    />
  
  <line
    x1="142.85714285714286"
    y1="33.333333333333336"
    x2="71.42857142857143"
    y2="47.985347985347985"
    stroke="hsla(0,50%,50%,0.6)"
    stroke-width="1"
    transform="translate(-77.4672661512,-73.1798705510) scale(1,-1) translate(50,-110)"
    />
  
  <line
    x1="71.42857142857143"
    y1="100"
    x2="142.85714285714286"
    y2="100"
    stroke="hsla(0,50%,50%,0.6)"
    stroke-width="1"
    transform="translate(-77.4672661512,-73.1798705510) scale(1,-1) translate(50,-110)"
    />
  
  <line
    x1="155.98017124831006"
    y1="63.97476340694006"
    x2="71.42857142857143"
    y2="100.18629277380136"
    stroke="hsla(0,50%,50%,0.6)"
    stroke-width="1"
    transform="translate(-77.4672661512,-73.1798705510) scale(1,-1) translate(50,-110)"
    />
  
</svg>
