<?xml version="1.0"?>
<!DOCTYPE svg PUBLIC "-//W3C//DTD SVG 1.1//EN"
  "http://www.w3.org/Graphics/SVG/1.1/DTD/svg11.dtd">
<svg
  width="240"
  height="240"
  viewBox="-500 -500 1000 1000" xmlns="http://www.w3.org/2000/svg" version="1.1">
  <rect
    x="0"
    y="0"
    width="100"
    height="100"
    fill="hsla(206,100%,53%,0.3)"
    stroke="hsl(206,100%,53%)"
    stroke-width="3"
    transform="" />
  
  <path
    d="M 
      100.6743835142
      -4.4092099257
      L
    
      111.8846421513
      0.3500992039
      L
    
      114.2593072840
      16.7332601094
      L
    
      99.3201129536
      39.9112674746
      L
    
      104.0061954476
      48.8906722674
      L
    
      77.6457939943
      66.8592220317
      L
    
      68.9562611578
      57.0382396072
      L
    
      82.2893652613
      7.2771903640
      z
    "
    fill="hsla(0,0%,50%,0.3)"
    stroke="hsla(0,0%,50%,1)"
    stroke-width="1"
    transform="translate(-91.6077842209,-31.2250060529)"
    />
  
  
  <line
    x1="100.6743835142536"
    y1="-4.409209925785871"
    x2="111.88464215132782"
    y2="0.3500992039134555"
    stroke="hsla(0,50%,50%,0.6)"
    stroke-width="1"
    transform="translate(-91.6077842209,-31.2250060529)"
    />
  
  <line
    x1="82.28936526131508"
    y1="7.277190364020487"
    x2="104.00619544760464"
    y2="48.89067226748011"
    stroke="hsla(0,50%,50%,0.6)"
    stroke-width="1"
    transform="translate(-91.6077842209,-31.2250060529)"
    />
  
  <line
    x1="93.40466859538782"
    y1="36.69579991800439"
    x2="104.00619544760464"
    y2="48.89067226748011"
    stroke="hsla(0,50%,50%,0.6)"
    stroke-width="1"
    transform="translate(-91.6077842209,-31.2250060529)"
    />
  
  <line
    x1="81.26841462225276"
    y1="25.5866248936309"
    x2="96.58011740739022"
    y2="44.16234256931501"
    stroke="hsla(0,50%,50%,0.6)"
    stroke-width="1"
    transform="translate(-91.6077842209,-31.2250060529)"
    />
  
  <line
    x1="76.85419012303645"
    y1="27.562040433667537"
    x2="91.39275324995232"
    y2="42.693622603314395"
    stroke="hsla(0,50%,50%,0.6)"
    stroke-width="1"
    transform="translate(-91.6077842209,-31.2250060529)"
    />
  
  <line
    x1="92.09970696582197"
    y1="43.429412526186105"
    x2="93.36517990392899"
    y2="44.74650332665043"
    stroke="hsla(0,50%,50%,0.6)"
    stroke-width="1"
    transform="translate(-91.6077842209,-31.2250060529)"
    />
  
  <line
    x1="94.49668463440246"
    y1="37.951939376499375"
    x2="96.94580227459463"
    y2="49.521357140446305"
    stroke="hsla(0,50%,50%,0.6)"
    stroke-width="1"
    transform="translate(-91.6077842209,-31.2250060529)"
    />
  
  <line
    x1="91.39275324995232"
    y1="42.693622603314395"
    x2="94.26338505042835"
    y2="55.53185236392488"
    stroke="hsla(0,50%,50%,0.6)"
    stroke-width="1"
    transform="translate(-91.6077842209,-31.2250060529)"
    />
  
  <line
    x1="111.88464215132782"
    y1="0.3500992039134555"
    x2="114.25930728401954"
    y2="16.733260109419515"
    stroke="hsla(0,50%,50%,0.6)"
    stroke-width="1"
    transform="translate(-91.6077842209,-31.2250060529)"
    />
  
  <line
    x1="93.36517990392899"
    y1="44.74650332665043"
    x2="94.67356457842259"
    y2="55.252253766986776"
    stroke="hsla(0,50%,50%,0.6)"
    stroke-width="1"
    transform="translate(-91.6077842209,-31.2250060529)"
    />
  
  <line
    x1="93.40466859538782"
    y1="36.69579991800439"
    x2="95.44244581037144"
    y2="54.72814639693793"
    stroke="hsla(0,50%,50%,0.6)"
    stroke-width="1"
    transform="translate(-91.6077842209,-31.2250060529)"
    />
  
  <line
    x1="68.95626115786789"
    y1="57.03823960724305"
    x2="77.6457939943255"
    y2="66.85922203178107"
    stroke="hsla(0,50%,50%,0.6)"
    stroke-width="1"
    transform="translate(-91.6077842209,-31.2250060529)"
    />
  
  <line
    x1="90.44916037719739"
    y1="52.95491145700285"
    x2="94.26338505042835"
    y2="55.53185236392488"
    stroke="hsla(0,50%,50%,0.6)"
    stroke-width="1"
    transform="translate(-91.6077842209,-31.2250060529)"
    />
  
  <line
    x1="71.92957768316988"
    y1="45.94139757531237"
    x2="81.19059899361301"
    y2="52.94503368351651"
    stroke="hsla(0,50%,50%,0.6)"
    stroke-width="1"
    transform="translate(-91.6077842209,-31.2250060529)"
    />
  
  <line
    x1="90.44916037719739"
    y1="52.95491145700285"
    x2="94.67356457842259"
    y2="55.252253766986776"
    stroke="hsla(0,50%,50%,0.6)"
    stroke-width="1"
    transform="translate(-91.6077842209,-31.2250060529)"
    />
  
  <line
    x1="85.24629067472598"
    y1="34.59443743785128"
    x2="94.49668463440246"
    y2="37.951939376499375"
    stroke="hsla(0,50%,50%,0.6)"
    stroke-width="1"
    transform="translate(-91.6077842209,-31.2250060529)"
    />
  
  <line
    x1="72.78748006325108"
    y1="42.73958333536652"
    x2="95.44244581037144"
    y2="54.72814639693793"
    stroke="hsla(0,50%,50%,0.6)"
    stroke-width="1"
    transform="translate(-91.6077842209,-31.2250060529)"
    />
  
  <line
    x1="100.6743835142536"
    y1="-4.409209925785871"
    x2="98.89978991682644"
    y2="43.702727624285735"
    stroke="hsla(0,50%,50%,0.6)"
    stroke-width="1"
    transform="translate(-91.6077842209,-31.2250060529)"
    />
  
  <line
    x1="81.09052160092472"
    y1="42.650484034099115"
    x2="80.05880333075801"
    y2="64.11022405356682"
    stroke="hsla(0,50%,50%,0.6)"
    stroke-width="1"
    transform="translate(-91.6077842209,-31.2250060529)"
    />
  
  <line
    x1="71.1419574881152"
    y1="48.88090866042722"
    x2="79.60262249312076"
    y2="53.476318245527104"
    stroke="hsla(0,50%,50%,0.6)"
    stroke-width="1"
    transform="translate(-91.6077842209,-31.2250060529)"
    />
  
  <line
    x1="85.24629067472598"
    y1="34.59443743785128"
    x2="93.40466859538782"
    y2="36.69579991800439"
    stroke="hsla(0,50%,50%,0.6)"
    stroke-width="1"
    transform="translate(-91.6077842209,-31.2250060529)"
    />
  
  <line
    x1="73.17757268368393"
    y1="41.28370194839389"
    x2="93.59400691730552"
    y2="48.79526248467642"
    stroke="hsla(0,50%,50%,0.6)"
    stroke-width="1"
    transform="translate(-91.6077842209,-31.2250060529)"
    />
  
  <line
    x1="92.09970696582197"
    y1="43.429412526186105"
    x2="91.92139700441228"
    y2="44.50776880177783"
    stroke="hsla(0,50%,50%,0.6)"
    stroke-width="1"
    transform="translate(-91.6077842209,-31.2250060529)"
    />
  
  <line
    x1="74.0366647332015"
    y1="38.077447692158664"
    x2="96.58011740739022"
    y2="44.16234256931501"
    stroke="hsla(0,50%,50%,0.6)"
    stroke-width="1"
    transform="translate(-91.6077842209,-31.2250060529)"
    />
  
  <line
    x1="74.0366647332015"
    y1="38.077447692158664"
    x2="91.39275324995232"
    y2="42.693622603314395"
    stroke="hsla(0,50%,50%,0.6)"
    stroke-width="1"
    transform="translate(-91.6077842209,-31.2250060529)"
    />
  
  <line
    x1="82.28936526131508"
    y1="7.277190364020487"
    x2="68.95626115786789"
    y2="57.03823960724305"
    stroke="hsla(0,50%,50%,0.6)"
    stroke-width="1"
    transform="translate(-91.6077842209,-31.2250060529)"
    />
  
  <line
    x1="83.43778490069855"
    y1="45.05861211641395"
    x2="81.19059899361301"
    y2="52.94503368351651"
    stroke="hsla(0,50%,50%,0.6)"
    stroke-width="1"
    transform="translate(-91.6077842209,-31.2250060529)"
    />
  
  <line
    x1="81.09052160092472"
    y1="42.650484034099115"
    x2="74.75057816142336"
    y2="63.58702497063647"
    stroke="hsla(0,50%,50%,0.6)"
    stroke-width="1"
    transform="translate(-91.6077842209,-31.2250060529)"
    />
  
  <line
    x1="85.24629067472598"
    y1="34.59443743785128"
    x2="75.87896788861293"
    y2="64.86234044355385"
    stroke="hsla(0,50%,50%,0.6)"
    stroke-width="1"
    transform="translate(-91.6077842209,-31.2250060529)"
    />
  
  <line
    x1="73.17757268368393"
    y1="41.28370194839389"
    x2="81.09052160092472"
    y2="42.650484034099115"
    stroke="hsla(0,50%,50%,0.6)"
    stroke-width="1"
    transform="translate(-91.6077842209,-31.2250060529)"
    />
  
  <line
    x1="91.92139700441228"
    y1="44.50776880177783"
    x2="93.36517990392899"
    y2="44.74650332665043"
    stroke="hsla(0,50%,50%,0.6)"
    stroke-width="1"
    transform="translate(-91.6077842209,-31.2250060529)"
    />
  
  <line
    x1="103.37188337812378"
    y1="48.161026922533104"
    x2="102.81146478747041"
    y2="49.70505961129986"
    stroke="hsla(0,50%,50%,0.6)"
    stroke-width="1"
    transform="translate(-91.6077842209,-31.2250060529)"
    />
  
  <line
    x1="83.43778490069855"
    y1="45.05861211641395"
    x2="79.60262249312076"
    y2="53.476318245527104"
    stroke="hsla(0,50%,50%,0.6)"
    stroke-width="1"
    transform="translate(-91.6077842209,-31.2250060529)"
    />
  
  <line
    x1="72.78748006325108"
    y1="42.73958333536652"
    x2="98.89978991682644"
    y2="43.702727624285735"
    stroke="hsla(0,50%,50%,0.6)"
    stroke-width="1"
    transform="translate(-91.6077842209,-31.2250060529)"
    />
  
  <line
    x1="100.6743835142536"
    y1="-4.409209925785871"
    x2="82.28936526131508"
    y2="7.277190364020487"
    stroke="hsla(0,50%,50%,0.6)"
    stroke-width="1"
    transform="translate(-91.6077842209,-31.2250060529)"
    />
  
  <line
    x1="114.25930728401954"
    y1="16.733260109419515"
    x2="76.85419012303645"
    y2="27.562040433667537"
    stroke="hsla(0,50%,50%,0.6)"
    stroke-width="1"
    transform="translate(-91.6077842209,-31.2250060529)"
    />
  
  <line
    x1="71.1419574881152"
    y1="48.88090866042722"
    x2="102.81146478747041"
    y2="49.70505961129986"
    stroke="hsla(0,50%,50%,0.6)"
    stroke-width="1"
    transform="translate(-91.6077842209,-31.2250060529)"
    />
  
  <line
    x1="92.09970696582197"
    y1="43.429412526186105"
    x2="71.92957768316988"
    y2="45.94139757531237"
    stroke="hsla(0,50%,50%,0.6)"
    stroke-width="1"
    transform="translate(-91.6077842209,-31.2250060529)"
    />
  
  <line
    x1="90.44916037719739"
    y1="52.95491145700285"
    x2="85.07694352422357"
    y2="61.793783996984956"
    stroke="hsla(0,50%,50%,0.6)"
    stroke-width="1"
    transform="translate(-91.6077842209,-31.2250060529)"
    />
  
  <line
    x1="111.88464215132782"
    y1="0.3500992039134555"
    x2="81.26841462225276"
    y2="25.5866248936309"
    stroke="hsla(0,50%,50%,0.6)"
    stroke-width="1"
    transform="translate(-91.6077842209,-31.2250060529)"
    />
  
  <line
    x1="114.25930728401954"
    y1="16.733260109419515"
    x2="93.59400691730552"
    y2="48.79526248467642"
    stroke="hsla(0,50%,50%,0.6)"
    stroke-width="1"
    transform="translate(-91.6077842209,-31.2250060529)"
    />
  
  <line
    x1="103.37188337812378"
    y1="48.161026922533104"
    x2="96.94580227459463"
    y2="49.521357140446305"
    stroke="hsla(0,50%,50%,0.6)"
    stroke-width="1"
    transform="translate(-91.6077842209,-31.2250060529)"
    />
  
  <line
    x1="80.05880333075801"
    y1="64.11022405356682"
    x2="77.6457939943255"
    y2="66.85922203178107"
    stroke="hsla(0,50%,50%,0.6)"
    stroke-width="1"
    transform="translate(-91.6077842209,-31.2250060529)"
    />
  
  <line
    x1="93.59400691730552"
    y1="48.79526248467642"
    x2="68.95626115786789"
    y2="57.03823960724305"
    stroke="hsla(0,50%,50%,0.6)"
    stroke-width="1"
    transform="translate(-91.6077842209,-31.2250060529)"
    />
  
  <line
    x1="85.07694352422357"
    y1="61.793783996984956"
    x2="74.75057816142336"
    y2="63.58702497063647"
    stroke="hsla(0,50%,50%,0.6)"
    stroke-width="1"
    transform="translate(-91.6077842209,-31.2250060529)"
    />
  
  <line
    x1="80.05880333075801"
    y1="64.11022405356682"
    x2="75.87896788861293"
    y2="64.86234044355385"
    stroke="hsla(0,50%,50%,0.6)"
    stroke-width="1"
    transform="translate(-91.6077842209,-31.2250060529)"
    />
  
  <line
    x1="104.00619544760464"
    y1="48.89067226748011"
    x2="77.6457939943255"
    y2="66.85922203178107"
    stroke="hsla(0,50%,50%,0.6)"
    stroke-width="1"
    transform="translate(-91.6077842209,-31.2250060529)"
    />
  
</svg>
