<?xml version="1.0"?>
<!DOCTYPE svg PUBLIC "-//W3C//DTD SVG 1.1//EN"
  "http://www.w3.org/Graphics/SVG/1.1/DTD/svg11.dtd">
<svg
  width="240"
  height="240"
  viewBox="-50 -50 200 200" xmlns="http://www.w3.org/2000/svg" version="1.1">
  <rect
    x="0"
    y="0"
    width="100"
    height="100"
    fill="hsla(206,100%,53%,0.3)"
    stroke="hsl(206,100%,53%)"
    stroke-width="3"
    transform="" />
  
  <path
    d="M 
      78.4530146438
      -0.1886934341
      L
    
      79.6841269841
      0
      L
    
      78.6071893876
      14.1348059536
      L
    
      93.2780548628
      15.6055694098
      L
    
      91.2834141087
      35.5021109316
      L
    
      62.4298948029
      75.2558486418
      L
    
      47.9707975994
      68.7933208383
      L
    
      43.6352384535
      56.4976317573
      L
    
      44.9385730246
      55.9233350973
      L
    
      4.3709597215
      11.0854467097
      L
    
      0.8941176470
      11.6235294117
      L
    
      0.0762156714
      6.3386243386
      L
    
      0
      6.2543859649
      L
    
      0
      5.8461538461
      z
    "
    fill="hsla(0,0%,50%,0.3)"
    stroke="hsla(0,0%,50%,1)"
    stroke-width="1"
    transform="translate(-1.7275715664,-8.1285078860) scale(1,-1) translate(50,-110)"
    />
  
  
  <line
    x1="58.92975080425813"
    y1="1.313096091980144"
    x2="60.26640355483884"
    y2="5.5494878337303"
    stroke="hsla(0,50%,50%,0.6)"
    stroke-width="1"
    transform="translate(-1.7275715664,-8.1285078860) scale(1,-1) translate(50,-110)"
    />
  
  <line
    x1="70.60994244240254"
    y1="49.23642417244365"
    x2="73.50608465519178"
    y2="59.99532040099502"
    stroke="hsla(0,50%,50%,0.6)"
    stroke-width="1"
    transform="translate(-1.7275715664,-8.1285078860) scale(1,-1) translate(50,-110)"
    />
  
  <line
    x1="78.45301464386249"
    y1="-0.188693434143268"
    x2="79.68412698412699"
    y2="0"
    stroke="hsla(0,50%,50%,0.6)"
    stroke-width="1"
    transform="translate(-1.7275715664,-8.1285078860) scale(1,-1) translate(50,-110)"
    />
  
  <line
    x1="43.635238453506936"
    y1="56.49763175732747"
    x2="47.970797599439614"
    y2="68.79332083830295"
    stroke="hsla(0,50%,50%,0.6)"
    stroke-width="1"
    transform="translate(-1.7275715664,-8.1285078860) scale(1,-1) translate(50,-110)"
    />
  
  <line
    x1="76"
    y1="0"
    x2="79.68412698412699"
    y2="0"
    stroke="hsla(0,50%,50%,0.6)"
    stroke-width="1"
    transform="translate(-1.7275715664,-8.1285078860) scale(1,-1) translate(50,-110)"
    />
  
  <line
    x1="0"
    y1="5.846153846153846"
    x2="0"
    y2="6.254385964912281"
    stroke="hsla(0,50%,50%,0.6)"
    stroke-width="1"
    transform="translate(-1.7275715664,-8.1285078860) scale(1,-1) translate(50,-110)"
    />
  
  <line
    x1="0"
    y1="5.846153846153846"
    x2="0.8941176470588236"
    y2="11.623529411764705"
    stroke="hsla(0,50%,50%,0.6)"
    stroke-width="1"
    transform="translate(-1.7275715664,-8.1285078860) scale(1,-1) translate(50,-110)"
    />
  
  <line
    x1="0"
    y1="6.254385964912281"
    x2="62.4298948029518"
    y2="75.255848641859"
    stroke="hsla(0,50%,50%,0.6)"
    stroke-width="1"
    transform="translate(-1.7275715664,-8.1285078860) scale(1,-1) translate(50,-110)"
    />
  
  <line
    x1="78.45301464386249"
    y1="-0.188693434143268"
    x2="0"
    y2="5.846153846153846"
    stroke="hsla(0,50%,50%,0.6)"
    stroke-width="1"
    transform="translate(-1.7275715664,-8.1285078860) scale(1,-1) translate(50,-110)"
    />
  
  <line
    x1="79.68412698412699"
    y1="0"
    x2="75.30152912430046"
    y2="57.52159691022306"
    stroke="hsla(0,50%,50%,0.6)"
    stroke-width="1"
    transform="translate(-1.7275715664,-8.1285078860) scale(1,-1) translate(50,-110)"
    />
  
  <line
    x1="0"
    y1="6.254385964912281"
    x2="93.2780548628429"
    y2="15.605569409808812"
    stroke="hsla(0,50%,50%,0.6)"
    stroke-width="1"
    transform="translate(-1.7275715664,-8.1285078860) scale(1,-1) translate(50,-110)"
    />
  
  <line
    x1="58.92975080425813"
    y1="1.313096091980144"
    x2="49.74531799834934"
    y2="61.236053226245765"
    stroke="hsla(0,50%,50%,0.6)"
    stroke-width="1"
    transform="translate(-1.7275715664,-8.1285078860) scale(1,-1) translate(50,-110)"
    />
  
  <line
    x1="93.2780548628429"
    y1="15.605569409808812"
    x2="91.28341410877759"
    y2="35.502110931610126"
    stroke="hsla(0,50%,50%,0.6)"
    stroke-width="1"
    transform="translate(-1.7275715664,-8.1285078860) scale(1,-1) translate(50,-110)"
    />
  
  <line
    x1="76"
    y1="0"
    x2="0.8941176470588236"
    y2="11.623529411764705"
    stroke="hsla(0,50%,50%,0.6)"
    stroke-width="1"
    transform="translate(-1.7275715664,-8.1285078860) scale(1,-1) translate(50,-110)"
    />
  
  <line
    x1="78.45301464386249"
    y1="-0.188693434143268"
    x2="60.26640355483884"
    y2="5.5494878337303"
    stroke="hsla(0,50%,50%,0.6)"
    stroke-width="1"
    transform="translate(-1.7275715664,-8.1285078860) scale(1,-1) translate(50,-110)"
    />
  
  <line
    x1="47.970797599439614"
    y1="68.79332083830295"
    x2="62.4298948029518"
    y2="75.255848641859"
    stroke="hsla(0,50%,50%,0.6)"
    stroke-width="1"
    transform="translate(-1.7275715664,-8.1285078860) scale(1,-1) translate(50,-110)"
    />
  
  <line
    x1="91.28341410877759"
    y1="35.502110931610126"
    x2="62.4298948029518"
    y2="75.255848641859"
    stroke="hsla(0,50%,50%,0.6)"
    stroke-width="1"
    transform="translate(-1.7275715664,-8.1285078860) scale(1,-1) translate(50,-110)"
    />
  
  <line
    x1="91.28341410877759"
    y1="35.502110931610126"
    x2="43.635238453506936"
    y2="56.49763175732747"
    stroke="hsla(0,50%,50%,0.6)"
    stroke-width="1"
    transform="translate(-1.7275715664,-8.1285078860) scale(1,-1) translate(50,-110)"
    />
  
  <line
    x1="70.60994244240254"
    y1="49.23642417244365"
    x2="43.635238453506936"
    y2="56.49763175732747"
    stroke="hsla(0,50%,50%,0.6)"
    stroke-width="1"
    transform="translate(-1.7275715664,-8.1285078860) scale(1,-1) translate(50,-110)"
    />
  
  <line
    x1="73.50608465519178"
    y1="59.99532040099502"
    x2="49.74531799834934"
    y2="61.236053226245765"
    stroke="hsla(0,50%,50%,0.6)"
    stroke-width="1"
    transform="translate(-1.7275715664,-8.1285078860) scale(1,-1) translate(50,-110)"
    />
  
  <line
    x1="75.30152912430046"
    y1="57.52159691022306"
    x2="47.970797599439614"
    y2="68.79332083830295"
    stroke="hsla(0,50%,50%,0.6)"
    stroke-width="1"
    transform="translate(-1.7275715664,-8.1285078860) scale(1,-1) translate(50,-110)"
    />
  
</svg>
