<?xml version="1.0"?>
<!DOCTYPE svg PUBLIC "-//W3C//DTD SVG 1.1//EN"
  "http://www.w3.org/Graphics/SVG/1.1/DTD/svg11.dtd">
<svg
  width="240"
  height="240"
  viewBox="-50 -50 200 200" xmlns="http://www.w3.org/2000/svg" version="1.1">
  <rect
    x="0"
    y="0"
    width="100"
    height="100"
    fill="hsla(206,100%,53%,0.3)"
    stroke="hsl(206,100%,53%)"
    stroke-width="3"
    transform="" />
  
  <path
    d="M 
      705.3333333333
      546
      L
    
      723.3333333333
      570
      L
    
      722.3333333333
      577
      L
    
      729.3333333333
      578
      L
    
      705.3333333333
      596
      L
    
      698.3333333333
      595
      L
    
      697.3333333333
      602
      L
    
      679.3333333333
      578
      L
    
      680.3333333333
      571
      L
    
      673.3333333333
      570
      L
    
      697.3333333333
      552
      L
    
      704.3333333333
      553
      z
    "
    fill="hsla(0,0%,50%,0.3)"
    stroke="hsla(0,0%,50%,1)"
    stroke-width="1"
    transform="translate(-696.3509114583,-558.1201171875) scale(1,-1) translate(50,-110)"
    />
  
  
  <line
    x1="705.3333333333334"
    y1="546"
    x2="723.3333333333334"
    y2="570"
    stroke="hsla(0,50%,50%,0.6)"
    stroke-width="1"
    transform="translate(-696.3509114583,-558.1201171875) scale(1,-1) translate(50,-110)"
    />
  
  <line
    x1="697.3333333333334"
    y1="552"
    x2="709.3333333333334"
    y2="568"
    stroke="hsla(0,50%,50%,0.6)"
    stroke-width="1"
    transform="translate(-696.3509114583,-558.1201171875) scale(1,-1) translate(50,-110)"
    />
  
  <line
    x1="689.3333333333334"
    y1="558"
    x2="713.3333333333334"
    y2="590"
    stroke="hsla(0,50%,50%,0.6)"
    stroke-width="1"
    transform="translate(-696.3509114583,-558.1201171875) scale(1,-1) translate(50,-110)"
    />
  
  <line
    x1="693.3333333333334"
    y1="580"
    x2="705.3333333333334"
    y2="596"
    stroke="hsla(0,50%,50%,0.6)"
    stroke-width="1"
    transform="translate(-696.3509114583,-558.1201171875) scale(1,-1) translate(50,-110)"
    />
  
  <line
    x1="679.3333333333334"
    y1="578"
    x2="697.3333333333334"
    y2="602"
    stroke="hsla(0,50%,50%,0.6)"
    stroke-width="1"
    transform="translate(-696.3509114583,-558.1201171875) scale(1,-1) translate(50,-110)"
    />
  
  <line
    x1="717.3333333333334"
    y1="562"
    x2="721.3333333333334"
    y2="584"
    stroke="hsla(0,50%,50%,0.6)"
    stroke-width="1"
    transform="translate(-696.3509114583,-558.1201171875) scale(1,-1) translate(50,-110)"
    />
  
  <line
    x1="711.3333333333334"
    y1="554"
    x2="715.3333333333334"
    y2="576"
    stroke="hsla(0,50%,50%,0.6)"
    stroke-width="1"
    transform="translate(-696.3509114583,-558.1201171875) scale(1,-1) translate(50,-110)"
    />
  
  <line
    x1="709.3333333333334"
    y1="568"
    x2="713.3333333333334"
    y2="590"
    stroke="hsla(0,50%,50%,0.6)"
    stroke-width="1"
    transform="translate(-696.3509114583,-558.1201171875) scale(1,-1) translate(50,-110)"
    />
  
  <line
    x1="703.3333333333334"
    y1="560"
    x2="707.3333333333334"
    y2="582"
    stroke="hsla(0,50%,50%,0.6)"
    stroke-width="1"
    transform="translate(-696.3509114583,-558.1201171875) scale(1,-1) translate(50,-110)"
    />
  
  <line
    x1="695.3333333333334"
    y1="566"
    x2="699.3333333333334"
    y2="588"
    stroke="hsla(0,50%,50%,0.6)"
    stroke-width="1"
    transform="translate(-696.3509114583,-558.1201171875) scale(1,-1) translate(50,-110)"
    />
  
  <line
    x1="689.3333333333334"
    y1="558"
    x2="693.3333333333334"
    y2="580"
    stroke="hsla(0,50%,50%,0.6)"
    stroke-width="1"
    transform="translate(-696.3509114583,-558.1201171875) scale(1,-1) translate(50,-110)"
    />
  
  <line
    x1="687.3333333333334"
    y1="572"
    x2="691.3333333333334"
    y2="594"
    stroke="hsla(0,50%,50%,0.6)"
    stroke-width="1"
    transform="translate(-696.3509114583,-558.1201171875) scale(1,-1) translate(50,-110)"
    />
  
  <line
    x1="681.3333333333334"
    y1="564"
    x2="685.3333333333334"
    y2="586"
    stroke="hsla(0,50%,50%,0.6)"
    stroke-width="1"
    transform="translate(-696.3509114583,-558.1201171875) scale(1,-1) translate(50,-110)"
    />
  
  <line
    x1="681.3333333333334"
    y1="564"
    x2="679.3333333333334"
    y2="578"
    stroke="hsla(0,50%,50%,0.6)"
    stroke-width="1"
    transform="translate(-696.3509114583,-558.1201171875) scale(1,-1) translate(50,-110)"
    />
  
  <line
    x1="689.3333333333334"
    y1="558"
    x2="685.3333333333334"
    y2="586"
    stroke="hsla(0,50%,50%,0.6)"
    stroke-width="1"
    transform="translate(-696.3509114583,-558.1201171875) scale(1,-1) translate(50,-110)"
    />
  
  <line
    x1="695.3333333333334"
    y1="566"
    x2="691.3333333333334"
    y2="594"
    stroke="hsla(0,50%,50%,0.6)"
    stroke-width="1"
    transform="translate(-696.3509114583,-558.1201171875) scale(1,-1) translate(50,-110)"
    />
  
  <line
    x1="705.3333333333334"
    y1="546"
    x2="697.3333333333334"
    y2="602"
    stroke="hsla(0,50%,50%,0.6)"
    stroke-width="1"
    transform="translate(-696.3509114583,-558.1201171875) scale(1,-1) translate(50,-110)"
    />
  
  <line
    x1="711.3333333333334"
    y1="554"
    x2="707.3333333333334"
    y2="582"
    stroke="hsla(0,50%,50%,0.6)"
    stroke-width="1"
    transform="translate(-696.3509114583,-558.1201171875) scale(1,-1) translate(50,-110)"
    />
  
  <line
    x1="717.3333333333334"
    y1="562"
    x2="713.3333333333334"
    y2="590"
    stroke="hsla(0,50%,50%,0.6)"
    stroke-width="1"
    transform="translate(-696.3509114583,-558.1201171875) scale(1,-1) translate(50,-110)"
    />
  
  <line
    x1="723.3333333333334"
    y1="570"
    x2="721.3333333333334"
    y2="584"
    stroke="hsla(0,50%,50%,0.6)"
    stroke-width="1"
    transform="translate(-696.3509114583,-558.1201171875) scale(1,-1) translate(50,-110)"
    />
  
  <line
    x1="697.3333333333334"
    y1="552"
    x2="711.3333333333334"
    y2="554"
    stroke="hsla(0,50%,50%,0.6)"
    stroke-width="1"
    transform="translate(-696.3509114583,-558.1201171875) scale(1,-1) translate(50,-110)"
    />
  
  <line
    x1="689.3333333333334"
    y1="558"
    x2="717.3333333333334"
    y2="562"
    stroke="hsla(0,50%,50%,0.6)"
    stroke-width="1"
    transform="translate(-696.3509114583,-558.1201171875) scale(1,-1) translate(50,-110)"
    />
  
  <line
    x1="681.3333333333334"
    y1="564"
    x2="709.3333333333334"
    y2="568"
    stroke="hsla(0,50%,50%,0.6)"
    stroke-width="1"
    transform="translate(-696.3509114583,-558.1201171875) scale(1,-1) translate(50,-110)"
    />
  
  <line
    x1="673.3333333333334"
    y1="570"
    x2="729.3333333333334"
    y2="578"
    stroke="hsla(0,50%,50%,0.6)"
    stroke-width="1"
    transform="translate(-696.3509114583,-558.1201171875) scale(1,-1) translate(50,-110)"
    />
  
  <line
    x1="693.3333333333334"
    y1="580"
    x2="721.3333333333334"
    y2="584"
    stroke="hsla(0,50%,50%,0.6)"
    stroke-width="1"
    transform="translate(-696.3509114583,-558.1201171875) scale(1,-1) translate(50,-110)"
    />
  
  <line
    x1="685.3333333333334"
    y1="586"
    x2="713.3333333333334"
    y2="590"
    stroke="hsla(0,50%,50%,0.6)"
    stroke-width="1"
    transform="translate(-696.3509114583,-558.1201171875) scale(1,-1) translate(50,-110)"
    />
  
  <line
    x1="691.3333333333334"
    y1="594"
    x2="705.3333333333334"
    y2="596"
    stroke="hsla(0,50%,50%,0.6)"
    stroke-width="1"
    transform="translate(-696.3509114583,-558.1201171875) scale(1,-1) translate(50,-110)"
    />
  
  <line
    x1="711.3333333333334"
    y1="554"
    x2="689.3333333333334"
    y2="558"
    stroke="hsla(0,50%,50%,0.6)"
    stroke-width="1"
    transform="translate(-696.3509114583,-558.1201171875) scale(1,-1) translate(50,-110)"
    />
  
  <line
    x1="703.3333333333334"
    y1="560"
    x2="681.3333333333334"
    y2="564"
    stroke="hsla(0,50%,50%,0.6)"
    stroke-width="1"
    transform="translate(-696.3509114583,-558.1201171875) scale(1,-1) translate(50,-110)"
    />
  
  <line
    x1="717.3333333333334"
    y1="562"
    x2="695.3333333333334"
    y2="566"
    stroke="hsla(0,50%,50%,0.6)"
    stroke-width="1"
    transform="translate(-696.3509114583,-558.1201171875) scale(1,-1) translate(50,-110)"
    />
  
  <line
    x1="709.3333333333334"
    y1="568"
    x2="687.3333333333334"
    y2="572"
    stroke="hsla(0,50%,50%,0.6)"
    stroke-width="1"
    transform="translate(-696.3509114583,-558.1201171875) scale(1,-1) translate(50,-110)"
    />
  
  <line
    x1="715.3333333333334"
    y1="576"
    x2="693.3333333333334"
    y2="580"
    stroke="hsla(0,50%,50%,0.6)"
    stroke-width="1"
    transform="translate(-696.3509114583,-558.1201171875) scale(1,-1) translate(50,-110)"
    />
  
  <line
    x1="707.3333333333334"
    y1="582"
    x2="685.3333333333334"
    y2="586"
    stroke="hsla(0,50%,50%,0.6)"
    stroke-width="1"
    transform="translate(-696.3509114583,-558.1201171875) scale(1,-1) translate(50,-110)"
    />
  
  <line
    x1="697.3333333333334"
    y1="552"
    x2="673.3333333333334"
    y2="570"
    stroke="hsla(0,50%,50%,0.6)"
    stroke-width="1"
    transform="translate(-696.3509114583,-558.1201171875) scale(1,-1) translate(50,-110)"
    />
  
  <line
    x1="721.3333333333334"
    y1="584"
    x2="699.3333333333334"
    y2="588"
    stroke="hsla(0,50%,50%,0.6)"
    stroke-width="1"
    transform="translate(-696.3509114583,-558.1201171875) scale(1,-1) translate(50,-110)"
    />
  
  <line
    x1="695.3333333333334"
    y1="566"
    x2="679.3333333333334"
    y2="578"
    stroke="hsla(0,50%,50%,0.6)"
    stroke-width="1"
    transform="translate(-696.3509114583,-558.1201171875) scale(1,-1) translate(50,-110)"
    />
  
  <line
    x1="713.3333333333334"
    y1="590"
    x2="691.3333333333334"
    y2="594"
    stroke="hsla(0,50%,50%,0.6)"
    stroke-width="1"
    transform="translate(-696.3509114583,-558.1201171875) scale(1,-1) translate(50,-110)"
    />
  
  <line
    x1="717.3333333333334"
    y1="562"
    x2="685.3333333333334"
    y2="586"
    stroke="hsla(0,50%,50%,0.6)"
    stroke-width="1"
    transform="translate(-696.3509114583,-558.1201171875) scale(1,-1) translate(50,-110)"
    />
  
  <line
    x1="723.3333333333334"
    y1="570"
    x2="707.3333333333334"
    y2="582"
    stroke="hsla(0,50%,50%,0.6)"
    stroke-width="1"
    transform="translate(-696.3509114583,-558.1201171875) scale(1,-1) translate(50,-110)"
    />
  
  <line
    x1="729.3333333333334"
    y1="578"
    x2="705.3333333333334"
    y2="596"
    stroke="hsla(0,50%,50%,0.6)"
    stroke-width="1"
    transform="translate(-696.3509114583,-558.1201171875) scale(1,-1) translate(50,-110)"
    />
  
</svg>
