<?xml version="1.0"?>
<!DOCTYPE svg PUBLIC "-//W3C//DTD SVG 1.1//EN"
  "http://www.w3.org/Graphics/SVG/1.1/DTD/svg11.dtd">
<svg
  width="240"
  height="240"
  viewBox="-50 -50 200 200" xmlns="http://www.w3.org/2000/svg" version="1.1">
  <rect
    x="0"
    y="0"
    width="100"
    height="100"
    fill="hsla(206,100%,53%,0.3)"
    stroke="hsl(206,100%,53%)"
    stroke-width="3"
    transform="" />
  
  <path
    d="M 
      142.8571428571
      33.3333333333
      L
    
      146.2669789227
      66.4918032786
      L
    
      142.8571428571
      66.8424522083
      L
    
      142.8571428571
      100
      L
    
      71.4285714285
      100
      L
    
      71.4285714285
      36.9963369963
      z
    "
    fill="hsla(0,0%,50%,0.3)"
    stroke="hsla(0,0%,50%,1)"
    stroke-width="1"
    transform="translate(-89.3922716627,-63.2953572803) scale(1,-1) translate(50,-110)"
    />
  
  
  <line
    x1="142.85714285714286"
    y1="33.333333333333336"
    x2="146.26697892271662"
    y2="66.49180327868852"
    stroke="hsla(0,50%,50%,0.6)"
    stroke-width="1"
    transform="translate(-89.3922716627,-63.2953572803) scale(1,-1) translate(50,-110)"
    />
  
  <line
    x1="71.42857142857143"
    y1="36.99633699633699"
    x2="71.42857142857143"
    y2="100"
    stroke="hsla(0,50%,50%,0.6)"
    stroke-width="1"
    transform="translate(-89.3922716627,-63.2953572803) scale(1,-1) translate(50,-110)"
    />
  
  <line
    x1="100"
    y1="38.46153846153846"
    x2="100"
    y2="100"
    stroke="hsla(0,50%,50%,0.6)"
    stroke-width="1"
    transform="translate(-89.3922716627,-63.2953572803) scale(1,-1) translate(50,-110)"
    />
  
  <line
    x1="142.85714285714286"
    y1="33.333333333333336"
    x2="142.85714285714286"
    y2="100"
    stroke="hsla(0,50%,50%,0.6)"
    stroke-width="1"
    transform="translate(-89.3922716627,-63.2953572803) scale(1,-1) translate(50,-110)"
    />
  
  <line
    x1="100"
    y1="38.46153846153846"
    x2="96.06557377049181"
    y2="76.72131147540983"
    stroke="hsla(0,50%,50%,0.6)"
    stroke-width="1"
    transform="translate(-89.3922716627,-63.2953572803) scale(1,-1) translate(50,-110)"
    />
  
  <line
    x1="71.42857142857143"
    y1="36.99633699633699"
    x2="100"
    y2="38.46153846153846"
    stroke="hsla(0,50%,50%,0.6)"
    stroke-width="1"
    transform="translate(-89.3922716627,-63.2953572803) scale(1,-1) translate(50,-110)"
    />
  
  <line
    x1="142.85714285714286"
    y1="33.333333333333336"
    x2="71.42857142857143"
    y2="36.99633699633699"
    stroke="hsla(0,50%,50%,0.6)"
    stroke-width="1"
    transform="translate(-89.3922716627,-63.2953572803) scale(1,-1) translate(50,-110)"
    />
  
  <line
    x1="71.42857142857143"
    y1="74.18777662680101"
    x2="96.06557377049181"
    y2="76.72131147540983"
    stroke="hsla(0,50%,50%,0.6)"
    stroke-width="1"
    transform="translate(-89.3922716627,-63.2953572803) scale(1,-1) translate(50,-110)"
    />
  
  <line
    x1="146.26697892271662"
    y1="66.49180327868852"
    x2="71.42857142857143"
    y2="74.18777662680101"
    stroke="hsla(0,50%,50%,0.6)"
    stroke-width="1"
    transform="translate(-89.3922716627,-63.2953572803) scale(1,-1) translate(50,-110)"
    />
  
  <line
    x1="71.42857142857143"
    y1="100"
    x2="142.85714285714286"
    y2="100"
    stroke="hsla(0,50%,50%,0.6)"
    stroke-width="1"
    transform="translate(-89.3922716627,-63.2953572803) scale(1,-1) translate(50,-110)"
    />
  
</svg>
