<?xml version="1.0"?>
<!DOCTYPE svg PUBLIC "-//W3C//DTD SVG 1.1//EN"
  "http://www.w3.org/Graphics/SVG/1.1/DTD/svg11.dtd">
<svg
  width="240"
  height="240"
  viewBox="-500 -500 1000 1000" xmlns="http://www.w3.org/2000/svg" version="1.1">
  <rect
    x="0"
    y="0"
    width="100"
    height="100"
    fill="hsla(206,100%,53%,0.3)"
    stroke="hsl(206,100%,53%)"
    stroke-width="3"
    transform="" />
  
  <path
    d="M 
      805.3333333333
      621
      L
    
      823.3333333333
      645
      L
    
      822.3333333333
      652
      L
    
      829.3333333333
      653
      L
    
      805.3333333333
      671
      L
    
      798.3333333333
      670
      L
    
      797.3333333333
      677
      L
    
      779.3333333333
      653
      L
    
      780.3333333333
      646
      L
    
      773.3333333333
      645
      L
    
      797.3333333333
      627
      L
    
      804.3333333333
      628
      z
    "
    fill="hsla(0,0%,50%,0.3)"
    stroke="hsla(0,0%,50%,1)"
    stroke-width="1"
    transform="translate(-801.3333333333,-649)"
    />
  
  
  <line
    x1="805.3333333333334"
    y1="621"
    x2="823.3333333333334"
    y2="645"
    stroke="hsla(0,50%,50%,0.6)"
    stroke-width="1"
    transform="translate(-801.3333333333,-649)"
    />
  
  <line
    x1="797.3333333333334"
    y1="627"
    x2="809.3333333333334"
    y2="643"
    stroke="hsla(0,50%,50%,0.6)"
    stroke-width="1"
    transform="translate(-801.3333333333,-649)"
    />
  
  <line
    x1="789.3333333333334"
    y1="633"
    x2="813.3333333333334"
    y2="665"
    stroke="hsla(0,50%,50%,0.6)"
    stroke-width="1"
    transform="translate(-801.3333333333,-649)"
    />
  
  <line
    x1="793.3333333333334"
    y1="655"
    x2="805.3333333333334"
    y2="671"
    stroke="hsla(0,50%,50%,0.6)"
    stroke-width="1"
    transform="translate(-801.3333333333,-649)"
    />
  
  <line
    x1="779.3333333333334"
    y1="653"
    x2="797.3333333333334"
    y2="677"
    stroke="hsla(0,50%,50%,0.6)"
    stroke-width="1"
    transform="translate(-801.3333333333,-649)"
    />
  
  <line
    x1="817.3333333333334"
    y1="637"
    x2="821.3333333333334"
    y2="659"
    stroke="hsla(0,50%,50%,0.6)"
    stroke-width="1"
    transform="translate(-801.3333333333,-649)"
    />
  
  <line
    x1="811.3333333333334"
    y1="629"
    x2="815.3333333333334"
    y2="651"
    stroke="hsla(0,50%,50%,0.6)"
    stroke-width="1"
    transform="translate(-801.3333333333,-649)"
    />
  
  <line
    x1="809.3333333333334"
    y1="643"
    x2="813.3333333333334"
    y2="665"
    stroke="hsla(0,50%,50%,0.6)"
    stroke-width="1"
    transform="translate(-801.3333333333,-649)"
    />
  
  <line
    x1="803.3333333333334"
    y1="635"
    x2="807.3333333333334"
    y2="657"
    stroke="hsla(0,50%,50%,0.6)"
    stroke-width="1"
    transform="translate(-801.3333333333,-649)"
    />
  
  <line
    x1="795.3333333333334"
    y1="641"
    x2="799.3333333333334"
    y2="663"
    stroke="hsla(0,50%,50%,0.6)"
    stroke-width="1"
    transform="translate(-801.3333333333,-649)"
    />
  
  <line
    x1="789.3333333333334"
    y1="633"
    x2="793.3333333333334"
    y2="655"
    stroke="hsla(0,50%,50%,0.6)"
    stroke-width="1"
    transform="translate(-801.3333333333,-649)"
    />
  
  <line
    x1="787.3333333333334"
    y1="647"
    x2="791.3333333333334"
    y2="669"
    stroke="hsla(0,50%,50%,0.6)"
    stroke-width="1"
    transform="translate(-801.3333333333,-649)"
    />
  
  <line
    x1="781.3333333333334"
    y1="639"
    x2="785.3333333333334"
    y2="661"
    stroke="hsla(0,50%,50%,0.6)"
    stroke-width="1"
    transform="translate(-801.3333333333,-649)"
    />
  
  <line
    x1="781.3333333333334"
    y1="639"
    x2="779.3333333333334"
    y2="653"
    stroke="hsla(0,50%,50%,0.6)"
    stroke-width="1"
    transform="translate(-801.3333333333,-649)"
    />
  
  <line
    x1="789.3333333333334"
    y1="633"
    x2="785.3333333333334"
    y2="661"
    stroke="hsla(0,50%,50%,0.6)"
    stroke-width="1"
    transform="translate(-801.3333333333,-649)"
    />
  
  <line
    x1="795.3333333333334"
    y1="641"
    x2="791.3333333333334"
    y2="669"
    stroke="hsla(0,50%,50%,0.6)"
    stroke-width="1"
    transform="translate(-801.3333333333,-649)"
    />
  
  <line
    x1="805.3333333333334"
    y1="621"
    x2="797.3333333333334"
    y2="677"
    stroke="hsla(0,50%,50%,0.6)"
    stroke-width="1"
    transform="translate(-801.3333333333,-649)"
    />
  
  <line
    x1="811.3333333333334"
    y1="629"
    x2="807.3333333333334"
    y2="657"
    stroke="hsla(0,50%,50%,0.6)"
    stroke-width="1"
    transform="translate(-801.3333333333,-649)"
    />
  
  <line
    x1="817.3333333333334"
    y1="637"
    x2="813.3333333333334"
    y2="665"
    stroke="hsla(0,50%,50%,0.6)"
    stroke-width="1"
    transform="translate(-801.3333333333,-649)"
    />
  
  <line
    x1="823.3333333333334"
    y1="645"
    x2="821.3333333333334"
    y2="659"
    stroke="hsla(0,50%,50%,0.6)"
    stroke-width="1"
    transform="translate(-801.3333333333,-649)"
    />
  
  <line
    x1="797.3333333333334"
    y1="627"
    x2="811.3333333333334"
    y2="629"
    stroke="hsla(0,50%,50%,0.6)"
    stroke-width="1"
    transform="translate(-801.3333333333,-649)"
    />
  
  <line
    x1="789.3333333333334"
    y1="633"
    x2="817.3333333333334"
    y2="637"
    stroke="hsla(0,50%,50%,0.6)"
    stroke-width="1"
    transform="translate(-801.3333333333,-649)"
    />
  
  <line
    x1="781.3333333333334"
    y1="639"
    x2="809.3333333333334"
    y2="643"
    stroke="hsla(0,50%,50%,0.6)"
    stroke-width="1"
    transform="translate(-801.3333333333,-649)"
    />
  
  <line
    x1="773.3333333333334"
    y1="645"
    x2="829.3333333333334"
    y2="653"
    stroke="hsla(0,50%,50%,0.6)"
    stroke-width="1"
    transform="translate(-801.3333333333,-649)"
    />
  
  <line
    x1="793.3333333333334"
    y1="655"
    x2="821.3333333333334"
    y2="659"
    stroke="hsla(0,50%,50%,0.6)"
    stroke-width="1"
    transform="translate(-801.3333333333,-649)"
    />
  
  <line
    x1="785.3333333333334"
    y1="661"
    x2="813.3333333333334"
    y2="665"
    stroke="hsla(0,50%,50%,0.6)"
    stroke-width="1"
    transform="translate(-801.3333333333,-649)"
    />
  
  <line
    x1="791.3333333333334"
    y1="669"
    x2="805.3333333333334"
    y2="671"
    stroke="hsla(0,50%,50%,0.6)"
    stroke-width="1"
    transform="translate(-801.3333333333,-649)"
    />
  
  <line
    x1="811.3333333333334"
    y1="629"
    x2="789.3333333333334"
    y2="633"
    stroke="hsla(0,50%,50%,0.6)"
    stroke-width="1"
    transform="translate(-801.3333333333,-649)"
    />
  
  <line
    x1="803.3333333333334"
    y1="635"
    x2="781.3333333333334"
    y2="639"
    stroke="hsla(0,50%,50%,0.6)"
    stroke-width="1"
    transform="translate(-801.3333333333,-649)"
    />
  
  <line
    x1="817.3333333333334"
    y1="637"
    x2="795.3333333333334"
    y2="641"
    stroke="hsla(0,50%,50%,0.6)"
    stroke-width="1"
    transform="translate(-801.3333333333,-649)"
    />
  
  <line
    x1="809.3333333333334"
    y1="643"
    x2="787.3333333333334"
    y2="647"
    stroke="hsla(0,50%,50%,0.6)"
    stroke-width="1"
    transform="translate(-801.3333333333,-649)"
    />
  
  <line
    x1="815.3333333333334"
    y1="651"
    x2="793.3333333333334"
    y2="655"
    stroke="hsla(0,50%,50%,0.6)"
    stroke-width="1"
    transform="translate(-801.3333333333,-649)"
    />
  
  <line
    x1="807.3333333333334"
    y1="657"
    x2="785.3333333333334"
    y2="661"
    stroke="hsla(0,50%,50%,0.6)"
    stroke-width="1"
    transform="translate(-801.3333333333,-649)"
    />
  
  <line
    x1="821.3333333333334"
    y1="659"
    x2="799.3333333333334"
    y2="663"
    stroke="hsla(0,50%,50%,0.6)"
    stroke-width="1"
    transform="translate(-801.3333333333,-649)"
    />
  
  <line
    x1="797.3333333333334"
    y1="627"
    x2="773.3333333333334"
    y2="645"
    stroke="hsla(0,50%,50%,0.6)"
    stroke-width="1"
    transform="translate(-801.3333333333,-649)"
    />
  
  <line
    x1="813.3333333333334"
    y1="665"
    x2="791.3333333333334"
    y2="669"
    stroke="hsla(0,50%,50%,0.6)"
    stroke-width="1"
    transform="translate(-801.3333333333,-649)"
    />
  
  <line
    x1="795.3333333333334"
    y1="641"
    x2="779.3333333333334"
    y2="653"
    stroke="hsla(0,50%,50%,0.6)"
    stroke-width="1"
    transform="translate(-801.3333333333,-649)"
    />
  
  <line
    x1="817.3333333333334"
    y1="637"
    x2="785.3333333333334"
    y2="661"
    stroke="hsla(0,50%,50%,0.6)"
    stroke-width="1"
    transform="translate(-801.3333333333,-649)"
    />
  
  <line
    x1="823.3333333333334"
    y1="645"
    x2="807.3333333333334"
    y2="657"
    stroke="hsla(0,50%,50%,0.6)"
    stroke-width="1"
    transform="translate(-801.3333333333,-649)"
    />
  
  <line
    x1="829.3333333333334"
    y1="653"
    x2="805.3333333333334"
    y2="671"
    stroke="hsla(0,50%,50%,0.6)"
    stroke-width="1"
    transform="translate(-801.3333333333,-649)"
    />
  
</svg>
