<?xml version="1.0"?>
<!DOCTYPE svg PUBLIC "-//W3C//DTD SVG 1.1//EN"
  "http://www.w3.org/Graphics/SVG/1.1/DTD/svg11.dtd">
<svg
  width="240"
  height="240"
  viewBox="-500 -500 1000 1000" xmlns="http://www.w3.org/2000/svg" version="1.1">
  <rect
    x="0"
    y="0"
    width="100"
    height="100"
    fill="hsla(206,100%,53%,0.3)"
    stroke="hsl(206,100%,53%)"
    stroke-width="3"
    transform="" />
  
  <path
    d="M 
      905.3333333333
      696
      L
    
      923.3333333333
      720
      L
    
      922.3333333333
      727
      L
    
      929.3333333333
      728
      L
    
      905.3333333333
      746
      L
    
      898.3333333333
      745
      L
    
      897.3333333333
      752
      L
    
      879.3333333333
      728
      L
    
      880.3333333333
      721
      L
    
      873.3333333333
      720
      L
    
      897.3333333333
      702
      L
    
      904.3333333333
      703
      z
    "
    fill="hsla(0,0%,50%,0.3)"
    stroke="hsla(0,0%,50%,1)"
    stroke-width="1"
    transform="translate(-901.3333333333,-724)"
    />
  
  
  <line
    x1="905.3333333333334"
    y1="696"
    x2="923.3333333333334"
    y2="720"
    stroke="hsla(0,50%,50%,0.6)"
    stroke-width="1"
    transform="translate(-901.3333333333,-724)"
    />
  
  <line
    x1="897.3333333333334"
    y1="702"
    x2="909.3333333333334"
    y2="718"
    stroke="hsla(0,50%,50%,0.6)"
    stroke-width="1"
    transform="translate(-901.3333333333,-724)"
    />
  
  <line
    x1="889.3333333333334"
    y1="708"
    x2="913.3333333333334"
    y2="740"
    stroke="hsla(0,50%,50%,0.6)"
    stroke-width="1"
    transform="translate(-901.3333333333,-724)"
    />
  
  <line
    x1="893.3333333333334"
    y1="730"
    x2="905.3333333333334"
    y2="746"
    stroke="hsla(0,50%,50%,0.6)"
    stroke-width="1"
    transform="translate(-901.3333333333,-724)"
    />
  
  <line
    x1="879.3333333333334"
    y1="728"
    x2="897.3333333333334"
    y2="752"
    stroke="hsla(0,50%,50%,0.6)"
    stroke-width="1"
    transform="translate(-901.3333333333,-724)"
    />
  
  <line
    x1="917.3333333333334"
    y1="712"
    x2="921.3333333333334"
    y2="734"
    stroke="hsla(0,50%,50%,0.6)"
    stroke-width="1"
    transform="translate(-901.3333333333,-724)"
    />
  
  <line
    x1="911.3333333333334"
    y1="704"
    x2="915.3333333333334"
    y2="726"
    stroke="hsla(0,50%,50%,0.6)"
    stroke-width="1"
    transform="translate(-901.3333333333,-724)"
    />
  
  <line
    x1="909.3333333333334"
    y1="718"
    x2="913.3333333333334"
    y2="740"
    stroke="hsla(0,50%,50%,0.6)"
    stroke-width="1"
    transform="translate(-901.3333333333,-724)"
    />
  
  <line
    x1="903.3333333333334"
    y1="710"
    x2="907.3333333333334"
    y2="732"
    stroke="hsla(0,50%,50%,0.6)"
    stroke-width="1"
    transform="translate(-901.3333333333,-724)"
    />
  
  <line
    x1="895.3333333333334"
    y1="716"
    x2="899.3333333333334"
    y2="738"
    stroke="hsla(0,50%,50%,0.6)"
    stroke-width="1"
    transform="translate(-901.3333333333,-724)"
    />
  
  <line
    x1="889.3333333333334"
    y1="708"
    x2="893.3333333333334"
    y2="730"
    stroke="hsla(0,50%,50%,0.6)"
    stroke-width="1"
    transform="translate(-901.3333333333,-724)"
    />
  
  <line
    x1="887.3333333333334"
    y1="722"
    x2="891.3333333333334"
    y2="744"
    stroke="hsla(0,50%,50%,0.6)"
    stroke-width="1"
    transform="translate(-901.3333333333,-724)"
    />
  
  <line
    x1="881.3333333333334"
    y1="714"
    x2="885.3333333333334"
    y2="736"
    stroke="hsla(0,50%,50%,0.6)"
    stroke-width="1"
    transform="translate(-901.3333333333,-724)"
    />
  
  <line
    x1="881.3333333333334"
    y1="714"
    x2="879.3333333333334"
    y2="728"
    stroke="hsla(0,50%,50%,0.6)"
    stroke-width="1"
    transform="translate(-901.3333333333,-724)"
    />
  
  <line
    x1="889.3333333333334"
    y1="708"
    x2="885.3333333333334"
    y2="736"
    stroke="hsla(0,50%,50%,0.6)"
    stroke-width="1"
    transform="translate(-901.3333333333,-724)"
    />
  
  <line
    x1="895.3333333333334"
    y1="716"
    x2="891.3333333333334"
    y2="744"
    stroke="hsla(0,50%,50%,0.6)"
    stroke-width="1"
    transform="translate(-901.3333333333,-724)"
    />
  
  <line
    x1="905.3333333333334"
    y1="696"
    x2="897.3333333333334"
    y2="752"
    stroke="hsla(0,50%,50%,0.6)"
    stroke-width="1"
    transform="translate(-901.3333333333,-724)"
    />
  
  <line
    x1="911.3333333333334"
    y1="704"
    x2="907.3333333333334"
    y2="732"
    stroke="hsla(0,50%,50%,0.6)"
    stroke-width="1"
    transform="translate(-901.3333333333,-724)"
    />
  
  <line
    x1="917.3333333333334"
    y1="712"
    x2="913.3333333333334"
    y2="740"
    stroke="hsla(0,50%,50%,0.6)"
    stroke-width="1"
    transform="translate(-901.3333333333,-724)"
    />
  
  <line
    x1="923.3333333333334"
    y1="720"
    x2="921.3333333333334"
    y2="734"
    stroke="hsla(0,50%,50%,0.6)"
    stroke-width="1"
    transform="translate(-901.3333333333,-724)"
    />
  
  <line
    x1="897.3333333333334"
    y1="702"
    x2="911.3333333333334"
    y2="704"
    stroke="hsla(0,50%,50%,0.6)"
    stroke-width="1"
    transform="translate(-901.3333333333,-724)"
    />
  
  <line
    x1="889.3333333333334"
    y1="708"
    x2="917.3333333333334"
    y2="712"
    stroke="hsla(0,50%,50%,0.6)"
    stroke-width="1"
    transform="translate(-901.3333333333,-724)"
    />
  
  <line
    x1="881.3333333333334"
    y1="714"
    x2="909.3333333333334"
    y2="718"
    stroke="hsla(0,50%,50%,0.6)"
    stroke-width="1"
    transform="translate(-901.3333333333,-724)"
    />
  
  <line
    x1="873.3333333333334"
    y1="720"
    x2="929.3333333333334"
    y2="728"
    stroke="hsla(0,50%,50%,0.6)"
    stroke-width="1"
    transform="translate(-901.3333333333,-724)"
    />
  
  <line
    x1="893.3333333333334"
    y1="730"
    x2="921.3333333333334"
    y2="734"
    stroke="hsla(0,50%,50%,0.6)"
    stroke-width="1"
    transform="translate(-901.3333333333,-724)"
    />
  
  <line
    x1="885.3333333333334"
    y1="736"
    x2="913.3333333333334"
    y2="740"
    stroke="hsla(0,50%,50%,0.6)"
    stroke-width="1"
    transform="translate(-901.3333333333,-724)"
    />
  
  <line
    x1="891.3333333333334"
    y1="744"
    x2="905.3333333333334"
    y2="746"
    stroke="hsla(0,50%,50%,0.6)"
    stroke-width="1"
    transform="translate(-901.3333333333,-724)"
    />
  
  <line
    x1="911.3333333333334"
    y1="704"
    x2="889.3333333333334"
    y2="708"
    stroke="hsla(0,50%,50%,0.6)"
    stroke-width="1"
    transform="translate(-901.3333333333,-724)"
    />
  
  <line
    x1="903.3333333333334"
    y1="710"
    x2="881.3333333333334"
    y2="714"
    stroke="hsla(0,50%,50%,0.6)"
    stroke-width="1"
    transform="translate(-901.3333333333,-724)"
    />
  
  <line
    x1="917.3333333333334"
    y1="712"
    x2="895.3333333333334"
    y2="716"
    stroke="hsla(0,50%,50%,0.6)"
    stroke-width="1"
    transform="translate(-901.3333333333,-724)"
    />
  
  <line
    x1="909.3333333333334"
    y1="718"
    x2="887.3333333333334"
    y2="722"
    stroke="hsla(0,50%,50%,0.6)"
    stroke-width="1"
    transform="translate(-901.3333333333,-724)"
    />
  
  <line
    x1="915.3333333333334"
    y1="726"
    x2="893.3333333333334"
    y2="730"
    stroke="hsla(0,50%,50%,0.6)"
    stroke-width="1"
    transform="translate(-901.3333333333,-724)"
    />
  
  <line
    x1="907.3333333333334"
    y1="732"
    x2="885.3333333333334"
    y2="736"
    stroke="hsla(0,50%,50%,0.6)"
    stroke-width="1"
    transform="translate(-901.3333333333,-724)"
    />
  
  <line
    x1="921.3333333333334"
    y1="734"
    x2="899.3333333333334"
    y2="738"
    stroke="hsla(0,50%,50%,0.6)"
    stroke-width="1"
    transform="translate(-901.3333333333,-724)"
    />
  
  <line
    x1="913.3333333333334"
    y1="740"
    x2="891.3333333333334"
    y2="744"
    stroke="hsla(0,50%,50%,0.6)"
    stroke-width="1"
    transform="translate(-901.3333333333,-724)"
    />
  
  <line
    x1="897.3333333333334"
    y1="702"
    x2="873.3333333333334"
    y2="720"
    stroke="hsla(0,50%,50%,0.6)"
    stroke-width="1"
    transform="translate(-901.3333333333,-724)"
    />
  
  <line
    x1="895.3333333333334"
    y1="716"
    x2="879.3333333333334"
    y2="728"
    stroke="hsla(0,50%,50%,0.6)"
    stroke-width="1"
    transform="translate(-901.3333333333,-724)"
    />
  
  <line
    x1="917.3333333333334"
    y1="712"
    x2="885.3333333333334"
    y2="736"
    stroke="hsla(0,50%,50%,0.6)"
    stroke-width="1"
    transform="translate(-901.3333333333,-724)"
    />
  
  <line
    x1="923.3333333333334"
    y1="720"
    x2="907.3333333333334"
    y2="732"
    stroke="hsla(0,50%,50%,0.6)"
    stroke-width="1"
    transform="translate(-901.3333333333,-724)"
    />
  
  <line
    x1="929.3333333333334"
    y1="728"
    x2="905.3333333333334"
    y2="746"
    stroke="hsla(0,50%,50%,0.6)"
    stroke-width="1"
    transform="translate(-901.3333333333,-724)"
    />
  
</svg>
