<?xml version="1.0"?>
<!DOCTYPE svg PUBLIC "-//W3C//DTD SVG 1.1//EN"
  "http://www.w3.org/Graphics/SVG/1.1/DTD/svg11.dtd">
<svg
  width="240"
  height="240"
  viewBox="-50 -50 200 200" xmlns="http://www.w3.org/2000/svg" version="1.1">
  <rect
    x="0"
    y="0"
    width="100"
    height="100"
    fill="hsla(206,100%,53%,0.3)"
    stroke="hsl(206,100%,53%)"
    stroke-width="3"
    transform="" />
  
  <path
    d="M 
      938.6666666666
      721
      L
    
      956.6666666666
      745
      L
    
      955.6666666666
      752
      L
    
      962.6666666666
      753
      L
    
      938.6666666666
      771
      L
    
      931.6666666666
      770
      L
    
      930.6666666666
      777
      L
    
      912.6666666666
      753
      L
    
      913.6666666666
      746
      L
    
      906.6666666666
      745
      L
    
      930.6666666666
      727
      L
    
      937.6666666666
      728
      z
    "
    fill="hsla(0,0%,50%,0.3)"
    stroke="hsla(0,0%,50%,1)"
    stroke-width="1"
    transform="translate(-929.6842447916,-733.1201171875) scale(1,-1) translate(50,-110)"
    />
  
  
  <line
    x1="938.6666666666666"
    y1="721"
    x2="956.6666666666666"
    y2="745"
    stroke="hsla(0,50%,50%,0.6)"
    stroke-width="1"
    transform="translate(-929.6842447916,-733.1201171875) scale(1,-1) translate(50,-110)"
    />
  
  <line
    x1="930.6666666666666"
    y1="727"
    x2="942.6666666666666"
    y2="743"
    stroke="hsla(0,50%,50%,0.6)"
    stroke-width="1"
    transform="translate(-929.6842447916,-733.1201171875) scale(1,-1) translate(50,-110)"
    />
  
  <line
    x1="922.6666666666666"
    y1="733"
    x2="946.6666666666666"
    y2="765"
    stroke="hsla(0,50%,50%,0.6)"
    stroke-width="1"
    transform="translate(-929.6842447916,-733.1201171875) scale(1,-1) translate(50,-110)"
    />
  
  <line
    x1="926.6666666666666"
    y1="755"
    x2="938.6666666666666"
    y2="771"
    stroke="hsla(0,50%,50%,0.6)"
    stroke-width="1"
    transform="translate(-929.6842447916,-733.1201171875) scale(1,-1) translate(50,-110)"
    />
  
  <line
    x1="912.6666666666666"
    y1="753"
    x2="930.6666666666666"
    y2="777"
    stroke="hsla(0,50%,50%,0.6)"
    stroke-width="1"
    transform="translate(-929.6842447916,-733.1201171875) scale(1,-1) translate(50,-110)"
    />
  
  <line
    x1="950.6666666666666"
    y1="737"
    x2="954.6666666666666"
    y2="759"
    stroke="hsla(0,50%,50%,0.6)"
    stroke-width="1"
    transform="translate(-929.6842447916,-733.1201171875) scale(1,-1) translate(50,-110)"
    />
  
  <line
    x1="944.6666666666666"
    y1="729"
    x2="948.6666666666666"
    y2="751"
    stroke="hsla(0,50%,50%,0.6)"
    stroke-width="1"
    transform="translate(-929.6842447916,-733.1201171875) scale(1,-1) translate(50,-110)"
    />
  
  <line
    x1="942.6666666666666"
    y1="743"
    x2="946.6666666666666"
    y2="765"
    stroke="hsla(0,50%,50%,0.6)"
    stroke-width="1"
    transform="translate(-929.6842447916,-733.1201171875) scale(1,-1) translate(50,-110)"
    />
  
  <line
    x1="936.6666666666666"
    y1="735"
    x2="940.6666666666666"
    y2="757"
    stroke="hsla(0,50%,50%,0.6)"
    stroke-width="1"
    transform="translate(-929.6842447916,-733.1201171875) scale(1,-1) translate(50,-110)"
    />
  
  <line
    x1="928.6666666666666"
    y1="741"
    x2="932.6666666666666"
    y2="763"
    stroke="hsla(0,50%,50%,0.6)"
    stroke-width="1"
    transform="translate(-929.6842447916,-733.1201171875) scale(1,-1) translate(50,-110)"
    />
  
  <line
    x1="922.6666666666666"
    y1="733"
    x2="926.6666666666666"
    y2="755"
    stroke="hsla(0,50%,50%,0.6)"
    stroke-width="1"
    transform="translate(-929.6842447916,-733.1201171875) scale(1,-1) translate(50,-110)"
    />
  
  <line
    x1="920.6666666666666"
    y1="747"
    x2="924.6666666666666"
    y2="769"
    stroke="hsla(0,50%,50%,0.6)"
    stroke-width="1"
    transform="translate(-929.6842447916,-733.1201171875) scale(1,-1) translate(50,-110)"
    />
  
  <line
    x1="914.6666666666666"
    y1="739"
    x2="918.6666666666666"
    y2="761"
    stroke="hsla(0,50%,50%,0.6)"
    stroke-width="1"
    transform="translate(-929.6842447916,-733.1201171875) scale(1,-1) translate(50,-110)"
    />
  
  <line
    x1="914.6666666666666"
    y1="739"
    x2="912.6666666666666"
    y2="753"
    stroke="hsla(0,50%,50%,0.6)"
    stroke-width="1"
    transform="translate(-929.6842447916,-733.1201171875) scale(1,-1) translate(50,-110)"
    />
  
  <line
    x1="922.6666666666666"
    y1="733"
    x2="918.6666666666666"
    y2="761"
    stroke="hsla(0,50%,50%,0.6)"
    stroke-width="1"
    transform="translate(-929.6842447916,-733.1201171875) scale(1,-1) translate(50,-110)"
    />
  
  <line
    x1="928.6666666666666"
    y1="741"
    x2="924.6666666666666"
    y2="769"
    stroke="hsla(0,50%,50%,0.6)"
    stroke-width="1"
    transform="translate(-929.6842447916,-733.1201171875) scale(1,-1) translate(50,-110)"
    />
  
  <line
    x1="938.6666666666666"
    y1="721"
    x2="930.6666666666666"
    y2="777"
    stroke="hsla(0,50%,50%,0.6)"
    stroke-width="1"
    transform="translate(-929.6842447916,-733.1201171875) scale(1,-1) translate(50,-110)"
    />
  
  <line
    x1="944.6666666666666"
    y1="729"
    x2="940.6666666666666"
    y2="757"
    stroke="hsla(0,50%,50%,0.6)"
    stroke-width="1"
    transform="translate(-929.6842447916,-733.1201171875) scale(1,-1) translate(50,-110)"
    />
  
  <line
    x1="950.6666666666666"
    y1="737"
    x2="946.6666666666666"
    y2="765"
    stroke="hsla(0,50%,50%,0.6)"
    stroke-width="1"
    transform="translate(-929.6842447916,-733.1201171875) scale(1,-1) translate(50,-110)"
    />
  
  <line
    x1="956.6666666666666"
    y1="745"
    x2="954.6666666666666"
    y2="759"
    stroke="hsla(0,50%,50%,0.6)"
    stroke-width="1"
    transform="translate(-929.6842447916,-733.1201171875) scale(1,-1) translate(50,-110)"
    />
  
  <line
    x1="930.6666666666666"
    y1="727"
    x2="944.6666666666666"
    y2="729"
    stroke="hsla(0,50%,50%,0.6)"
    stroke-width="1"
    transform="translate(-929.6842447916,-733.1201171875) scale(1,-1) translate(50,-110)"
    />
  
  <line
    x1="922.6666666666666"
    y1="733"
    x2="950.6666666666666"
    y2="737"
    stroke="hsla(0,50%,50%,0.6)"
    stroke-width="1"
    transform="translate(-929.6842447916,-733.1201171875) scale(1,-1) translate(50,-110)"
    />
  
  <line
    x1="914.6666666666666"
    y1="739"
    x2="942.6666666666666"
    y2="743"
    stroke="hsla(0,50%,50%,0.6)"
    stroke-width="1"
    transform="translate(-929.6842447916,-733.1201171875) scale(1,-1) translate(50,-110)"
    />
  
  <line
    x1="906.6666666666666"
    y1="745"
    x2="962.6666666666666"
    y2="753"
    stroke="hsla(0,50%,50%,0.6)"
    stroke-width="1"
    transform="translate(-929.6842447916,-733.1201171875) scale(1,-1) translate(50,-110)"
    />
  
  <line
    x1="926.6666666666666"
    y1="755"
    x2="954.6666666666666"
    y2="759"
    stroke="hsla(0,50%,50%,0.6)"
    stroke-width="1"
    transform="translate(-929.6842447916,-733.1201171875) scale(1,-1) translate(50,-110)"
    />
  
  <line
    x1="918.6666666666666"
    y1="761"
    x2="946.6666666666666"
    y2="765"
    stroke="hsla(0,50%,50%,0.6)"
    stroke-width="1"
    transform="translate(-929.6842447916,-733.1201171875) scale(1,-1) translate(50,-110)"
    />
  
  <line
    x1="924.6666666666666"
    y1="769"
    x2="938.6666666666666"
    y2="771"
    stroke="hsla(0,50%,50%,0.6)"
    stroke-width="1"
    transform="translate(-929.6842447916,-733.1201171875) scale(1,-1) translate(50,-110)"
    />
  
  <line
    x1="944.6666666666666"
    y1="729"
    x2="922.6666666666666"
    y2="733"
    stroke="hsla(0,50%,50%,0.6)"
    stroke-width="1"
    transform="translate(-929.6842447916,-733.1201171875) scale(1,-1) translate(50,-110)"
    />
  
  <line
    x1="936.6666666666666"
    y1="735"
    x2="914.6666666666666"
    y2="739"
    stroke="hsla(0,50%,50%,0.6)"
    stroke-width="1"
    transform="translate(-929.6842447916,-733.1201171875) scale(1,-1) translate(50,-110)"
    />
  
  <line
    x1="950.6666666666666"
    y1="737"
    x2="928.6666666666666"
    y2="741"
    stroke="hsla(0,50%,50%,0.6)"
    stroke-width="1"
    transform="translate(-929.6842447916,-733.1201171875) scale(1,-1) translate(50,-110)"
    />
  
  <line
    x1="942.6666666666666"
    y1="743"
    x2="920.6666666666666"
    y2="747"
    stroke="hsla(0,50%,50%,0.6)"
    stroke-width="1"
    transform="translate(-929.6842447916,-733.1201171875) scale(1,-1) translate(50,-110)"
    />
  
  <line
    x1="948.6666666666666"
    y1="751"
    x2="926.6666666666666"
    y2="755"
    stroke="hsla(0,50%,50%,0.6)"
    stroke-width="1"
    transform="translate(-929.6842447916,-733.1201171875) scale(1,-1) translate(50,-110)"
    />
  
  <line
    x1="940.6666666666666"
    y1="757"
    x2="918.6666666666666"
    y2="761"
    stroke="hsla(0,50%,50%,0.6)"
    stroke-width="1"
    transform="translate(-929.6842447916,-733.1201171875) scale(1,-1) translate(50,-110)"
    />
  
  <line
    x1="954.6666666666666"
    y1="759"
    x2="932.6666666666666"
    y2="763"
    stroke="hsla(0,50%,50%,0.6)"
    stroke-width="1"
    transform="translate(-929.6842447916,-733.1201171875) scale(1,-1) translate(50,-110)"
    />
  
  <line
    x1="946.6666666666666"
    y1="765"
    x2="924.6666666666666"
    y2="769"
    stroke="hsla(0,50%,50%,0.6)"
    stroke-width="1"
    transform="translate(-929.6842447916,-733.1201171875) scale(1,-1) translate(50,-110)"
    />
  
  <line
    x1="930.6666666666666"
    y1="727"
    x2="906.6666666666666"
    y2="745"
    stroke="hsla(0,50%,50%,0.6)"
    stroke-width="1"
    transform="translate(-929.6842447916,-733.1201171875) scale(1,-1) translate(50,-110)"
    />
  
  <line
    x1="928.6666666666666"
    y1="741"
    x2="912.6666666666666"
    y2="753"
    stroke="hsla(0,50%,50%,0.6)"
    stroke-width="1"
    transform="translate(-929.6842447916,-733.1201171875) scale(1,-1) translate(50,-110)"
    />
  
  <line
    x1="950.6666666666666"
    y1="737"
    x2="918.6666666666666"
    y2="761"
    stroke="hsla(0,50%,50%,0.6)"
    stroke-width="1"
    transform="translate(-929.6842447916,-733.1201171875) scale(1,-1) translate(50,-110)"
    />
  
  <line
    x1="956.6666666666666"
    y1="745"
    x2="940.6666666666666"
    y2="757"
    stroke="hsla(0,50%,50%,0.6)"
    stroke-width="1"
    transform="translate(-929.6842447916,-733.1201171875) scale(1,-1) translate(50,-110)"
    />
  
  <line
    x1="962.6666666666666"
    y1="753"
    x2="938.6666666666666"
    y2="771"
    stroke="hsla(0,50%,50%,0.6)"
    stroke-width="1"
    transform="translate(-929.6842447916,-733.1201171875) scale(1,-1) translate(50,-110)"
    />
  
</svg>
