<?xml version="1.0"?>
<!DOCTYPE svg PUBLIC "-//W3C//DTD SVG 1.1//EN"
  "http://www.w3.org/Graphics/SVG/1.1/DTD/svg11.dtd">
<svg
  width="240"
  height="240"
  viewBox="-500 -500 1000 1000" xmlns="http://www.w3.org/2000/svg" version="1.1">
  <rect
    x="0"
    y="0"
    width="100"
    height="100"
    fill="hsla(206,100%,53%,0.3)"
    stroke="hsl(206,100%,53%)"
    stroke-width="3"
    transform="" />
  
  <path
    d="M 
      73.0769230769
      35.7142857142
      L
    
      108.7912087912
      35.7142857142
      L
    
      108.7912087912
      66.6666666666
      L
    
      73.0769230769
      66.6666666666
      z
    "
    fill="hsla(0,0%,50%,0.3)"
    stroke="hsla(0,0%,50%,1)"
    stroke-width="1"
    transform="translate(-90.9340659340,-51.1904761904)"
    />
  
  
  <line
    x1="73.07692307692308"
    y1="35.714285714285715"
    x2="73.07692307692308"
    y2="66.66666666666667"
    stroke="hsla(0,50%,50%,0.6)"
    stroke-width="1"
    transform="translate(-90.9340659340,-51.1904761904)"
    />
  
  <line
    x1="78.63247863247864"
    y1="35.714285714285715"
    x2="78.63247863247864"
    y2="66.66666666666667"
    stroke="hsla(0,50%,50%,0.6)"
    stroke-width="1"
    transform="translate(-90.9340659340,-51.1904761904)"
    />
  
  <line
    x1="80.21978021978022"
    y1="35.714285714285715"
    x2="80.21978021978022"
    y2="66.66666666666667"
    stroke="hsla(0,50%,50%,0.6)"
    stroke-width="1"
    transform="translate(-90.9340659340,-51.1904761904)"
    />
  
  <line
    x1="97.68009768009767"
    y1="35.714285714285715"
    x2="97.68009768009767"
    y2="66.66666666666667"
    stroke="hsla(0,50%,50%,0.6)"
    stroke-width="1"
    transform="translate(-90.9340659340,-51.1904761904)"
    />
  
  <line
    x1="108.79120879120879"
    y1="35.714285714285715"
    x2="108.79120879120879"
    y2="66.66666666666667"
    stroke="hsla(0,50%,50%,0.6)"
    stroke-width="1"
    transform="translate(-90.9340659340,-51.1904761904)"
    />
  
  <line
    x1="73.07692307692308"
    y1="35.714285714285715"
    x2="108.79120879120879"
    y2="35.714285714285715"
    stroke="hsla(0,50%,50%,0.6)"
    stroke-width="1"
    transform="translate(-90.9340659340,-51.1904761904)"
    />
  
  <line
    x1="73.07692307692308"
    y1="39.92673992673993"
    x2="108.79120879120879"
    y2="39.92673992673993"
    stroke="hsla(0,50%,50%,0.6)"
    stroke-width="1"
    transform="translate(-90.9340659340,-51.1904761904)"
    />
  
  <line
    x1="73.07692307692308"
    y1="41.02564102564103"
    x2="108.79120879120879"
    y2="41.02564102564103"
    stroke="hsla(0,50%,50%,0.6)"
    stroke-width="1"
    transform="translate(-90.9340659340,-51.1904761904)"
    />
  
  <line
    x1="73.07692307692308"
    y1="55.311355311355314"
    x2="108.79120879120879"
    y2="55.311355311355314"
    stroke="hsla(0,50%,50%,0.6)"
    stroke-width="1"
    transform="translate(-90.9340659340,-51.1904761904)"
    />
  
  <line
    x1="73.07692307692308"
    y1="63.73626373626374"
    x2="108.79120879120879"
    y2="63.73626373626374"
    stroke="hsla(0,50%,50%,0.6)"
    stroke-width="1"
    transform="translate(-90.9340659340,-51.1904761904)"
    />
  
  <line
    x1="73.07692307692308"
    y1="66.66666666666667"
    x2="108.79120879120879"
    y2="66.66666666666667"
    stroke="hsla(0,50%,50%,0.6)"
    stroke-width="1"
    transform="translate(-90.9340659340,-51.1904761904)"
    />
  
</svg>
