<?xml version="1.0"?>
<!DOCTYPE svg PUBLIC "-//W3C//DTD SVG 1.1//EN"
  "http://www.w3.org/Graphics/SVG/1.1/DTD/svg11.dtd">
<svg
  width="240"
  height="240"
  viewBox="-500 -500 1000 1000" xmlns="http://www.w3.org/2000/svg" version="1.1">
  <rect
    x="0"
    y="0"
    width="100"
    height="100"
    fill="hsla(206,100%,53%,0.3)"
    stroke="hsl(206,100%,53%)"
    stroke-width="3"
    transform="" />
  
  <path
    d="M 
      76.9230769230
      33.3333333333
      L
    
      77.3308864760
      37.2990198192
      L
    
      100
      38.4615384615
      L
    
      100
      100
      L
    
      38.4615384615
      100
      L
    
      38.4615384615
      35.3057199211
      z
    "
    fill="hsla(0,0%,50%,0.3)"
    stroke="hsla(0,0%,50%,1)"
    stroke-width="1"
    transform="translate(-69.2307692307,-66.6666666666)"
    />
  
  
  <line
    x1="76.92307692307692"
    y1="33.333333333333336"
    x2="80.33291298865069"
    y2="66.49180327868852"
    stroke="hsla(0,50%,50%,0.6)"
    stroke-width="1"
    transform="translate(-69.2307692307,-66.6666666666)"
    />
  
  <line
    x1="38.46153846153846"
    y1="35.30571992110453"
    x2="38.46153846153846"
    y2="100"
    stroke="hsla(0,50%,50%,0.6)"
    stroke-width="1"
    transform="translate(-69.2307692307,-66.6666666666)"
    />
  
  <line
    x1="76.92307692307692"
    y1="33.333333333333336"
    x2="76.92307692307692"
    y2="100"
    stroke="hsla(0,50%,50%,0.6)"
    stroke-width="1"
    transform="translate(-69.2307692307,-66.6666666666)"
    />
  
  <line
    x1="100"
    y1="38.46153846153846"
    x2="100"
    y2="100"
    stroke="hsla(0,50%,50%,0.6)"
    stroke-width="1"
    transform="translate(-69.2307692307,-66.6666666666)"
    />
  
  <line
    x1="100"
    y1="38.46153846153846"
    x2="96.06557377049181"
    y2="76.72131147540983"
    stroke="hsla(0,50%,50%,0.6)"
    stroke-width="1"
    transform="translate(-69.2307692307,-66.6666666666)"
    />
  
  <line
    x1="38.46153846153846"
    y1="35.30571992110453"
    x2="100"
    y2="38.46153846153846"
    stroke="hsla(0,50%,50%,0.6)"
    stroke-width="1"
    transform="translate(-69.2307692307,-66.6666666666)"
    />
  
  <line
    x1="76.92307692307692"
    y1="33.333333333333336"
    x2="38.46153846153846"
    y2="35.30571992110453"
    stroke="hsla(0,50%,50%,0.6)"
    stroke-width="1"
    transform="translate(-69.2307692307,-66.6666666666)"
    />
  
  <line
    x1="38.46153846153846"
    y1="70.79762689518788"
    x2="96.06557377049181"
    y2="76.72131147540983"
    stroke="hsla(0,50%,50%,0.6)"
    stroke-width="1"
    transform="translate(-69.2307692307,-66.6666666666)"
    />
  
  <line
    x1="80.33291298865069"
    y1="66.49180327868852"
    x2="38.46153846153846"
    y2="70.79762689518788"
    stroke="hsla(0,50%,50%,0.6)"
    stroke-width="1"
    transform="translate(-69.2307692307,-66.6666666666)"
    />
  
  <line
    x1="38.46153846153846"
    y1="100"
    x2="100"
    y2="100"
    stroke="hsla(0,50%,50%,0.6)"
    stroke-width="1"
    transform="translate(-69.2307692307,-66.6666666666)"
    />
  
</svg>
