<?xml version="1.0"?>
<!DOCTYPE svg PUBLIC "-//W3C//DTD SVG 1.1//EN"
  "http://www.w3.org/Graphics/SVG/1.1/DTD/svg11.dtd">
<svg
  width="240"
  height="240"
  viewBox="-50 -50 200 200" xmlns="http://www.w3.org/2000/svg" version="1.1">
  <rect
    x="0"
    y="0"
    width="100"
    height="100"
    fill="hsla(206,100%,53%,0.3)"
    stroke="hsl(206,100%,53%)"
    stroke-width="3"
    transform="" />
  
  <path
    d="M 
      31.4315621702
      -31.4315621702
      L
    
      36.9780474503
      -27.6072546537
      L
    
      36.9894952250
      -27.6231736978
      L
    
      37.7933281457
      -27.0451177446
      L
    
      28.3842201255
      -13.6838838646
      L
    
      -0.0255348090
      99.1112817666
      L
    
      -0.0655656270
      99.1318014793
      L
    
      -0.4690003625
      99.8818727266
      L
    
      -0.9861752875
      99.6037040461
      L
    
      -0.9677696620
      97.7447358704
      L
    
      -40.4633478196
      40.4633478196
      z
    "
    fill="hsla(0,0%,50%,0.3)"
    stroke="hsla(0,0%,50%,1)"
    stroke-width="1"
    transform="translate(20.1202153911,-67.6832635628) scale(1,-1) translate(50,-110)"
    />
  
  
  <line
    x1="31.431562170246305"
    y1="-31.431562170246305"
    x2="37.79332814577446"
    y2="-27.045117744636087"
    stroke="hsla(0,50%,50%,0.6)"
    stroke-width="1"
    transform="translate(20.1202153911,-67.6832635628) scale(1,-1) translate(50,-110)"
    />
  
  <line
    x1="36.98949522509232"
    y1="-27.623173697840045"
    x2="37.79332814577446"
    y2="-27.045117744636087"
    stroke="hsla(0,50%,50%,0.6)"
    stroke-width="1"
    transform="translate(20.1202153911,-67.6832635628) scale(1,-1) translate(50,-110)"
    />
  
  <line
    x1="31.431562170246305"
    y1="-31.431562170246305"
    x2="32.47366142837436"
    y2="-29.920180522555654"
    stroke="hsla(0,50%,50%,0.6)"
    stroke-width="1"
    transform="translate(20.1202153911,-67.6832635628) scale(1,-1) translate(50,-110)"
    />
  
  <line
    x1="32.47366142837436"
    y1="-29.920180522555654"
    x2="27.234699926020824"
    y2="-27.234699926020824"
    stroke="hsla(0,50%,50%,0.6)"
    stroke-width="1"
    transform="translate(20.1202153911,-67.6832635628) scale(1,-1) translate(50,-110)"
    />
  
  <line
    x1="6.974147031935486"
    y1="-6.974147031935486"
    x2="24.518153325943736"
    y2="1.6655496663025882"
    stroke="hsla(0,50%,50%,0.6)"
    stroke-width="1"
    transform="translate(20.1202153911,-67.6832635628) scale(1,-1) translate(50,-110)"
    />
  
  <line
    x1="11.753957548778487"
    y1="-3.084541037924493"
    x2="13.341963778549822"
    y2="-0.1320986512727705"
    stroke="hsla(0,50%,50%,0.6)"
    stroke-width="1"
    transform="translate(20.1202153911,-67.6832635628) scale(1,-1) translate(50,-110)"
    />
  
  <line
    x1="6.974147031935486"
    y1="-6.974147031935486"
    x2="10.358121269418467"
    y2="-0.10255565613285611"
    stroke="hsla(0,50%,50%,0.6)"
    stroke-width="1"
    transform="translate(20.1202153911,-67.6832635628) scale(1,-1) translate(50,-110)"
    />
  
  <line
    x1="11.753957548778487"
    y1="-3.084541037924493"
    x2="2.8362002086621545"
    y2="-2.8362002086621545"
    stroke="hsla(0,50%,50%,0.6)"
    stroke-width="1"
    transform="translate(20.1202153911,-67.6832635628) scale(1,-1) translate(50,-110)"
    />
  
  <line
    x1="0"
    y1="0"
    x2="-0.9861752875859573"
    y2="99.60370404618169"
    stroke="hsla(0,50%,50%,0.6)"
    stroke-width="1"
    transform="translate(20.1202153911,-67.6832635628) scale(1,-1) translate(50,-110)"
    />
  
  <line
    x1="31.431562170246305"
    y1="-31.431562170246305"
    x2="-40.46334781963616"
    y2="40.46334781963616"
    stroke="hsla(0,50%,50%,0.6)"
    stroke-width="1"
    transform="translate(20.1202153911,-67.6832635628) scale(1,-1) translate(50,-110)"
    />
  
  <line
    x1="13.341963778549822"
    y1="-0.1320986512727705"
    x2="0"
    y2="0"
    stroke="hsla(0,50%,50%,0.6)"
    stroke-width="1"
    transform="translate(20.1202153911,-67.6832635628) scale(1,-1) translate(50,-110)"
    />
  
  <line
    x1="2.8362002086621545"
    y1="-2.8362002086621545"
    x2="0"
    y2="99.00990099009901"
    stroke="hsla(0,50%,50%,0.6)"
    stroke-width="1"
    transform="translate(20.1202153911,-67.6832635628) scale(1,-1) translate(50,-110)"
    />
  
  <line
    x1="5.287422658390494"
    y1="0.9752532743175817"
    x2="2.0623369620405416"
    y2="90.8218106754628"
    stroke="hsla(0,50%,50%,0.6)"
    stroke-width="1"
    transform="translate(20.1202153911,-67.6832635628) scale(1,-1) translate(50,-110)"
    />
  
  <line
    x1="5.287422658390494"
    y1="0.9752532743175817"
    x2="24.518153325943736"
    y2="1.6655496663025882"
    stroke="hsla(0,50%,50%,0.6)"
    stroke-width="1"
    transform="translate(20.1202153911,-67.6832635628) scale(1,-1) translate(50,-110)"
    />
  
  <line
    x1="11.753957548778487"
    y1="-3.084541037924493"
    x2="10.358121269418467"
    y2="-0.10255565613285611"
    stroke="hsla(0,50%,50%,0.6)"
    stroke-width="1"
    transform="translate(20.1202153911,-67.6832635628) scale(1,-1) translate(50,-110)"
    />
  
  <line
    x1="27.234699926020824"
    y1="-27.234699926020824"
    x2="13.341963778549822"
    y2="-0.1320986512727705"
    stroke="hsla(0,50%,50%,0.6)"
    stroke-width="1"
    transform="translate(20.1202153911,-67.6832635628) scale(1,-1) translate(50,-110)"
    />
  
  <line
    x1="32.47366142837436"
    y1="-29.920180522555654"
    x2="-0.025534809058187124"
    y2="99.11128176665676"
    stroke="hsla(0,50%,50%,0.6)"
    stroke-width="1"
    transform="translate(20.1202153911,-67.6832635628) scale(1,-1) translate(50,-110)"
    />
  
  <line
    x1="36.98949522509232"
    y1="-27.623173697840045"
    x2="-21.39415604850783"
    y2="53.56395129105611"
    stroke="hsla(0,50%,50%,0.6)"
    stroke-width="1"
    transform="translate(20.1202153911,-67.6832635628) scale(1,-1) translate(50,-110)"
    />
  
  <line
    x1="37.79332814577446"
    y1="-27.045117744636087"
    x2="-19.78649020714355"
    y2="54.720063197464036"
    stroke="hsla(0,50%,50%,0.6)"
    stroke-width="1"
    transform="translate(20.1202153911,-67.6832635628) scale(1,-1) translate(50,-110)"
    />
  
  <line
    x1="-0.9599904155213246"
    y1="96.95903196765379"
    x2="0"
    y2="99.00990099009901"
    stroke="hsla(0,50%,50%,0.6)"
    stroke-width="1"
    transform="translate(20.1202153911,-67.6832635628) scale(1,-1) translate(50,-110)"
    />
  
  <line
    x1="2.0623369620405416"
    y1="90.8218106754628"
    x2="-0.9599904155213246"
    y2="96.95903196765379"
    stroke="hsla(0,50%,50%,0.6)"
    stroke-width="1"
    transform="translate(20.1202153911,-67.6832635628) scale(1,-1) translate(50,-110)"
    />
  
  <line
    x1="0"
    y1="99.00990099009901"
    x2="-0.46900036256885885"
    y2="99.88187272663478"
    stroke="hsla(0,50%,50%,0.6)"
    stroke-width="1"
    transform="translate(20.1202153911,-67.6832635628) scale(1,-1) translate(50,-110)"
    />
  
  <line
    x1="-40.46334781963616"
    y1="40.46334781963616"
    x2="-0.025534809058187124"
    y2="99.11128176665676"
    stroke="hsla(0,50%,50%,0.6)"
    stroke-width="1"
    transform="translate(20.1202153911,-67.6832635628) scale(1,-1) translate(50,-110)"
    />
  
  <line
    x1="-21.39415604850783"
    y1="53.56395129105611"
    x2="-19.78649020714355"
    y2="54.720063197464036"
    stroke="hsla(0,50%,50%,0.6)"
    stroke-width="1"
    transform="translate(20.1202153911,-67.6832635628) scale(1,-1) translate(50,-110)"
    />
  
  <line
    x1="-40.46334781963616"
    y1="40.46334781963616"
    x2="-19.78649020714355"
    y2="54.720063197464036"
    stroke="hsla(0,50%,50%,0.6)"
    stroke-width="1"
    transform="translate(20.1202153911,-67.6832635628) scale(1,-1) translate(50,-110)"
    />
  
  <line
    x1="-0.9861752875859573"
    y1="99.60370404618169"
    x2="-0.46900036256885885"
    y2="99.88187272663478"
    stroke="hsla(0,50%,50%,0.6)"
    stroke-width="1"
    transform="translate(20.1202153911,-67.6832635628) scale(1,-1) translate(50,-110)"
    />
  
  <line
    x1="-0.025534809058187124"
    y1="99.11128176665676"
    x2="-0.9861752875859573"
    y2="99.60370404618169"
    stroke="hsla(0,50%,50%,0.6)"
    stroke-width="1"
    transform="translate(20.1202153911,-67.6832635628) scale(1,-1) translate(50,-110)"
    />
  
</svg>
