<?xml version="1.0"?>
<!DOCTYPE svg PUBLIC "-//W3C//DTD SVG 1.1//EN"
  "http://www.w3.org/Graphics/SVG/1.1/DTD/svg11.dtd">
<svg
  width="240"
  height="240"
  viewBox="-50 -50 200 200" xmlns="http://www.w3.org/2000/svg" version="1.1">
  <rect
    x="0"
    y="0"
    width="100"
    height="100"
    fill="hsla(206,100%,53%,0.3)"
    stroke="hsl(206,100%,53%)"
    stroke-width="3"
    transform="" />
  
  <path
    d="M 
      89.2862490981
      6.8911063615
      L
    
      100.2704530087
      32.0486815415
      L
    
      125.7703081232
      58.8235294117
      L
    
      135.2941176470
      58.8235294117
      L
    
      135.2941176470
      68.8235294117
      L
    
      67.5521821631
      95.9203036053
      L
    
      45.2941176470
      58.8235294117
      L
    
      50
      50
      L
    
      66.5441176470
      58.8235294117
      L
    
      70.4526190879
      58.8235294117
      L
    
      80.1217038539
      10.8924949290
      z
    "
    fill="hsla(0,0%,50%,0.3)"
    stroke="hsla(0,0%,50%,1)"
    stroke-width="1"
    transform="translate(-73.6042024687,-34.8874411096) scale(1,-1) translate(50,-110)"
    />
  
  
  <line
    x1="80.1217038539554"
    y1="10.89249492900609"
    x2="135.2941176470588"
    y2="68.82352941176472"
    stroke="hsla(0,50%,50%,0.6)"
    stroke-width="1"
    transform="translate(-73.6042024687,-34.8874411096) scale(1,-1) translate(50,-110)"
    />
  
  <line
    x1="89.28624909811182"
    y1="6.891106361544858"
    x2="119.14698547748276"
    y2="75.28238227959513"
    stroke="hsla(0,50%,50%,0.6)"
    stroke-width="1"
    transform="translate(-73.6042024687,-34.8874411096) scale(1,-1) translate(50,-110)"
    />
  
  <line
    x1="110.46190288195814"
    y1="51.44097907619424"
    x2="119.14698547748276"
    y2="75.28238227959513"
    stroke="hsla(0,50%,50%,0.6)"
    stroke-width="1"
    transform="translate(-73.6042024687,-34.8874411096) scale(1,-1) translate(50,-110)"
    />
  
  <line
    x1="67.6470588235294"
    y1="59.41176470588235"
    x2="71.65775401069519"
    y2="92.45989304812834"
    stroke="hsla(0,50%,50%,0.6)"
    stroke-width="1"
    transform="translate(-73.6042024687,-34.8874411096) scale(1,-1) translate(50,-110)"
    />
  
  <line
    x1="45.29411764705882"
    y1="58.8235294117647"
    x2="67.55218216318787"
    y2="95.9203036053131"
    stroke="hsla(0,50%,50%,0.6)"
    stroke-width="1"
    transform="translate(-73.6042024687,-34.8874411096) scale(1,-1) translate(50,-110)"
    />
  
  <line
    x1="135.2941176470588"
    y1="58.8235294117647"
    x2="135.2941176470588"
    y2="68.82352941176472"
    stroke="hsla(0,50%,50%,0.6)"
    stroke-width="1"
    transform="translate(-73.6042024687,-34.8874411096) scale(1,-1) translate(50,-110)"
    />
  
  <line
    x1="80.1217038539554"
    y1="10.89249492900609"
    x2="64.1222988116886"
    y2="90.2038313528143"
    stroke="hsla(0,50%,50%,0.6)"
    stroke-width="1"
    transform="translate(-73.6042024687,-34.8874411096) scale(1,-1) translate(50,-110)"
    />
  
  <line
    x1="50"
    y1="50"
    x2="67.6470588235294"
    y2="59.41176470588235"
    stroke="hsla(0,50%,50%,0.6)"
    stroke-width="1"
    transform="translate(-73.6042024687,-34.8874411096) scale(1,-1) translate(50,-110)"
    />
  
  <line
    x1="50"
    y1="50"
    x2="45.29411764705882"
    y2="58.8235294117647"
    stroke="hsla(0,50%,50%,0.6)"
    stroke-width="1"
    transform="translate(-73.6042024687,-34.8874411096) scale(1,-1) translate(50,-110)"
    />
  
  <line
    x1="89.28624909811182"
    y1="6.891106361544858"
    x2="80.1217038539554"
    y2="10.89249492900609"
    stroke="hsla(0,50%,50%,0.6)"
    stroke-width="1"
    transform="translate(-73.6042024687,-34.8874411096) scale(1,-1) translate(50,-110)"
    />
  
  <line
    x1="45.29411764705882"
    y1="58.8235294117647"
    x2="135.2941176470588"
    y2="58.8235294117647"
    stroke="hsla(0,50%,50%,0.6)"
    stroke-width="1"
    transform="translate(-73.6042024687,-34.8874411096) scale(1,-1) translate(50,-110)"
    />
  
  <line
    x1="64.1222988116886"
    y1="90.2038313528143"
    x2="71.65775401069519"
    y2="92.45989304812834"
    stroke="hsla(0,50%,50%,0.6)"
    stroke-width="1"
    transform="translate(-73.6042024687,-34.8874411096) scale(1,-1) translate(50,-110)"
    />
  
  <line
    x1="67.6470588235294"
    y1="59.41176470588235"
    x2="53.34804496241639"
    y2="72.24674160402732"
    stroke="hsla(0,50%,50%,0.6)"
    stroke-width="1"
    transform="translate(-73.6042024687,-34.8874411096) scale(1,-1) translate(50,-110)"
    />
  
  <line
    x1="110.46190288195814"
    y1="51.44097907619424"
    x2="53.34804496241639"
    y2="72.24674160402732"
    stroke="hsla(0,50%,50%,0.6)"
    stroke-width="1"
    transform="translate(-73.6042024687,-34.8874411096) scale(1,-1) translate(50,-110)"
    />
  
  <line
    x1="71.65775401069519"
    y1="92.45989304812834"
    x2="67.55218216318787"
    y2="95.9203036053131"
    stroke="hsla(0,50%,50%,0.6)"
    stroke-width="1"
    transform="translate(-73.6042024687,-34.8874411096) scale(1,-1) translate(50,-110)"
    />
  
  <line
    x1="135.2941176470588"
    y1="68.82352941176472"
    x2="67.55218216318787"
    y2="95.9203036053131"
    stroke="hsla(0,50%,50%,0.6)"
    stroke-width="1"
    transform="translate(-73.6042024687,-34.8874411096) scale(1,-1) translate(50,-110)"
    />
  
</svg>
