<?xml version="1.0"?>
<!DOCTYPE svg PUBLIC "-//W3C//DTD SVG 1.1//EN"
  "http://www.w3.org/Graphics/SVG/1.1/DTD/svg11.dtd">
<svg
  width="240"
  height="240"
  viewBox="-500 -500 1000 1000" xmlns="http://www.w3.org/2000/svg" version="1.1">
  <rect
    x="0"
    y="0"
    width="100"
    height="100"
    fill="hsla(206,100%,53%,0.3)"
    stroke="hsl(206,100%,53%)"
    stroke-width="3"
    transform="" />
  
  <path
    d="M 
      100
      30.7692307692
      L
    
      104.7058823529
      61.1764705882
      L
    
      100
      61.9047619047
      L
    
      100
      100
      L
    
      38.4615384615
      100
      L
    
      38.4615384615
      35.5029585798
      z
    "
    fill="hsla(0,0%,50%,0.3)"
    stroke="hsla(0,0%,50%,1)"
    stroke-width="1"
    transform="translate(-71.5837104072,-65.3846153846)"
    />
  
  
  <line
    x1="100"
    y1="30.76923076923077"
    x2="104.70588235294117"
    y2="61.1764705882353"
    stroke="hsla(0,50%,50%,0.6)"
    stroke-width="1"
    transform="translate(-71.5837104072,-65.3846153846)"
    />
  
  <line
    x1="38.46153846153846"
    y1="35.50295857988166"
    x2="38.46153846153846"
    y2="100"
    stroke="hsla(0,50%,50%,0.6)"
    stroke-width="1"
    transform="translate(-71.5837104072,-65.3846153846)"
    />
  
  <line
    x1="76.92307692307692"
    y1="38.46153846153846"
    x2="76.92307692307692"
    y2="100"
    stroke="hsla(0,50%,50%,0.6)"
    stroke-width="1"
    transform="translate(-71.5837104072,-65.3846153846)"
    />
  
  <line
    x1="100"
    y1="30.76923076923077"
    x2="100"
    y2="100"
    stroke="hsla(0,50%,50%,0.6)"
    stroke-width="1"
    transform="translate(-71.5837104072,-65.3846153846)"
    />
  
  <line
    x1="76.92307692307692"
    y1="38.46153846153846"
    x2="71.04072398190046"
    y2="76.47058823529412"
    stroke="hsla(0,50%,50%,0.6)"
    stroke-width="1"
    transform="translate(-71.5837104072,-65.3846153846)"
    />
  
  <line
    x1="38.46153846153846"
    y1="35.50295857988166"
    x2="76.92307692307692"
    y2="38.46153846153846"
    stroke="hsla(0,50%,50%,0.6)"
    stroke-width="1"
    transform="translate(-71.5837104072,-65.3846153846)"
    />
  
  <line
    x1="100"
    y1="30.76923076923077"
    x2="38.46153846153846"
    y2="35.50295857988166"
    stroke="hsla(0,50%,50%,0.6)"
    stroke-width="1"
    transform="translate(-71.5837104072,-65.3846153846)"
    />
  
  <line
    x1="38.46153846153846"
    y1="71.42857142857143"
    x2="71.04072398190046"
    y2="76.47058823529412"
    stroke="hsla(0,50%,50%,0.6)"
    stroke-width="1"
    transform="translate(-71.5837104072,-65.3846153846)"
    />
  
  <line
    x1="104.70588235294117"
    y1="61.1764705882353"
    x2="38.46153846153846"
    y2="71.42857142857143"
    stroke="hsla(0,50%,50%,0.6)"
    stroke-width="1"
    transform="translate(-71.5837104072,-65.3846153846)"
    />
  
  <line
    x1="38.46153846153846"
    y1="100"
    x2="100"
    y2="100"
    stroke="hsla(0,50%,50%,0.6)"
    stroke-width="1"
    transform="translate(-71.5837104072,-65.3846153846)"
    />
  
</svg>
