<?xml version="1.0"?>
<!DOCTYPE svg PUBLIC "-//W3C//DTD SVG 1.1//EN"
  "http://www.w3.org/Graphics/SVG/1.1/DTD/svg11.dtd">
<svg
  width="240"
  height="240"
  viewBox="-500 -500 1000 1000" xmlns="http://www.w3.org/2000/svg" version="1.1">
  <rect
    x="0"
    y="0"
    width="100"
    height="100"
    fill="hsla(206,100%,53%,0.3)"
    stroke="hsl(206,100%,53%)"
    stroke-width="3"
    transform="" />
  
  <path
    d="M 
      100
      30.7692307692
      L
    
      114.3702684101
      57.9766001376
      L
    
      100
      65.5666251556
      L
    
      100
      100
      L
    
      68.8332215729
      100
      L
    
      66.3613743448
      104.6799724707
      L
    
      57.5007368110
      100
      L
    
      46.1538461538
      100
      L
    
      46.1538461538
      44.1157133464
      z
    "
    fill="hsla(0,0%,50%,0.3)"
    stroke="hsla(0,0%,50%,1)"
    stroke-width="1"
    transform="translate(-80.2620572820,-67.7246016199)"
    />
  
  
  <line
    x1="100"
    y1="30.76923076923077"
    x2="114.37026841018582"
    y2="57.97660013764625"
    stroke="hsla(0,50%,50%,0.6)"
    stroke-width="1"
    transform="translate(-80.2620572820,-67.7246016199)"
    />
  
  <line
    x1="46.15384615384615"
    y1="44.11571334648258"
    x2="46.15384615384615"
    y2="100"
    stroke="hsla(0,50%,50%,0.6)"
    stroke-width="1"
    transform="translate(-80.2620572820,-67.7246016199)"
    />
  
  <line
    x1="92.3076923076923"
    y1="55.55555555555556"
    x2="92.3076923076923"
    y2="100"
    stroke="hsla(0,50%,50%,0.6)"
    stroke-width="1"
    transform="translate(-80.2620572820,-67.7246016199)"
    />
  
  <line
    x1="100"
    y1="30.76923076923077"
    x2="100"
    y2="100"
    stroke="hsla(0,50%,50%,0.6)"
    stroke-width="1"
    transform="translate(-80.2620572820,-67.7246016199)"
    />
  
  <line
    x1="46.15384615384615"
    y1="44.11571334648258"
    x2="92.3076923076923"
    y2="55.55555555555556"
    stroke="hsla(0,50%,50%,0.6)"
    stroke-width="1"
    transform="translate(-80.2620572820,-67.7246016199)"
    />
  
  <line
    x1="92.3076923076923"
    y1="55.55555555555556"
    x2="66.3613743448568"
    y2="104.67997247075017"
    stroke="hsla(0,50%,50%,0.6)"
    stroke-width="1"
    transform="translate(-80.2620572820,-67.7246016199)"
    />
  
  <line
    x1="100"
    y1="30.76923076923077"
    x2="46.15384615384615"
    y2="44.11571334648258"
    stroke="hsla(0,50%,50%,0.6)"
    stroke-width="1"
    transform="translate(-80.2620572820,-67.7246016199)"
    />
  
  <line
    x1="46.15384615384615"
    y1="94.0068493150685"
    x2="66.3613743448568"
    y2="104.67997247075017"
    stroke="hsla(0,50%,50%,0.6)"
    stroke-width="1"
    transform="translate(-80.2620572820,-67.7246016199)"
    />
  
  <line
    x1="114.37026841018582"
    y1="57.97660013764625"
    x2="46.15384615384615"
    y2="94.0068493150685"
    stroke="hsla(0,50%,50%,0.6)"
    stroke-width="1"
    transform="translate(-80.2620572820,-67.7246016199)"
    />
  
  <line
    x1="46.15384615384615"
    y1="100"
    x2="100"
    y2="100"
    stroke="hsla(0,50%,50%,0.6)"
    stroke-width="1"
    transform="translate(-80.2620572820,-67.7246016199)"
    />
  
</svg>
