<?xml version="1.0"?>
<!DOCTYPE svg PUBLIC "-//W3C//DTD SVG 1.1//EN"
  "http://www.w3.org/Graphics/SVG/1.1/DTD/svg11.dtd">
<svg
  width="240"
  height="240"
  viewBox="-50 -50 200 200" xmlns="http://www.w3.org/2000/svg" version="1.1">
  <rect
    x="0"
    y="0"
    width="100"
    height="100"
    fill="hsla(206,100%,53%,0.3)"
    stroke="hsl(206,100%,53%)"
    stroke-width="3"
    transform="" />
  
  <path
    d="M 
      45.2976190476
      0
      L
    
      66.6666666666
      0
      L
    
      66.6666666666
      21.4285714285
      L
    
      45.2976190476
      21.4285714285
      z
    "
    fill="hsla(0,0%,50%,0.3)"
    stroke="hsla(0,0%,50%,1)"
    stroke-width="1"
    transform="translate(-53.3110119047,-16.0714285714) scale(1,-1) translate(50,-110)"
    />
  
  
  <line
    x1="45.29761904761905"
    y1="0"
    x2="66.66666666666667"
    y2="0"
    stroke="hsla(0,50%,50%,0.6)"
    stroke-width="1"
    transform="translate(-53.3110119047,-16.0714285714) scale(1,-1) translate(50,-110)"
    />
  
  <line
    x1="45.29761904761905"
    y1="0"
    x2="45.29761904761905"
    y2="21.428571428571427"
    stroke="hsla(0,50%,50%,0.6)"
    stroke-width="1"
    transform="translate(-53.3110119047,-16.0714285714) scale(1,-1) translate(50,-110)"
    />
  
  <line
    x1="57.142857142857146"
    y1="0"
    x2="57.142857142857146"
    y2="21.428571428571427"
    stroke="hsla(0,50%,50%,0.6)"
    stroke-width="1"
    transform="translate(-53.3110119047,-16.0714285714) scale(1,-1) translate(50,-110)"
    />
  
  <line
    x1="58.333333333333336"
    y1="0"
    x2="58.333333333333336"
    y2="21.428571428571427"
    stroke="hsla(0,50%,50%,0.6)"
    stroke-width="1"
    transform="translate(-53.3110119047,-16.0714285714) scale(1,-1) translate(50,-110)"
    />
  
  <line
    x1="61.54761904761905"
    y1="0"
    x2="61.54761904761905"
    y2="21.428571428571427"
    stroke="hsla(0,50%,50%,0.6)"
    stroke-width="1"
    transform="translate(-53.3110119047,-16.0714285714) scale(1,-1) translate(50,-110)"
    />
  
  <line
    x1="64.04761904761905"
    y1="0"
    x2="64.04761904761905"
    y2="21.428571428571427"
    stroke="hsla(0,50%,50%,0.6)"
    stroke-width="1"
    transform="translate(-53.3110119047,-16.0714285714) scale(1,-1) translate(50,-110)"
    />
  
  <line
    x1="66.66666666666667"
    y1="0"
    x2="66.66666666666667"
    y2="21.428571428571427"
    stroke="hsla(0,50%,50%,0.6)"
    stroke-width="1"
    transform="translate(-53.3110119047,-16.0714285714) scale(1,-1) translate(50,-110)"
    />
  
  <line
    x1="45.29761904761905"
    y1="3.5714285714285716"
    x2="66.66666666666667"
    y2="3.5714285714285716"
    stroke="hsla(0,50%,50%,0.6)"
    stroke-width="1"
    transform="translate(-53.3110119047,-16.0714285714) scale(1,-1) translate(50,-110)"
    />
  
  <line
    x1="45.29761904761905"
    y1="7.142857142857143"
    x2="66.66666666666667"
    y2="7.142857142857143"
    stroke="hsla(0,50%,50%,0.6)"
    stroke-width="1"
    transform="translate(-53.3110119047,-16.0714285714) scale(1,-1) translate(50,-110)"
    />
  
  <line
    x1="45.29761904761905"
    y1="14.285714285714286"
    x2="66.66666666666667"
    y2="14.285714285714286"
    stroke="hsla(0,50%,50%,0.6)"
    stroke-width="1"
    transform="translate(-53.3110119047,-16.0714285714) scale(1,-1) translate(50,-110)"
    />
  
  <line
    x1="45.29761904761905"
    y1="21.428571428571427"
    x2="66.66666666666667"
    y2="21.428571428571427"
    stroke="hsla(0,50%,50%,0.6)"
    stroke-width="1"
    transform="translate(-53.3110119047,-16.0714285714) scale(1,-1) translate(50,-110)"
    />
  
</svg>
