<?xml version="1.0"?>
<!DOCTYPE svg PUBLIC "-//W3C//DTD SVG 1.1//EN"
  "http://www.w3.org/Graphics/SVG/1.1/DTD/svg11.dtd">
<svg
  width="240"
  height="240"
  viewBox="-50 -50 200 200" xmlns="http://www.w3.org/2000/svg" version="1.1">
  <rect
    x="0"
    y="0"
    width="100"
    height="100"
    fill="hsla(206,100%,53%,0.3)"
    stroke="hsl(206,100%,53%)"
    stroke-width="3"
    transform="" />
  
  <path
    d="M 
      12345679055.9082892428
      98765432155.2028217571
      L
    
      12345679070.1940035285
      98765432155.2028217571
      L
    
      12345679091.6225749571
      98765432169.4885360428
      L
    
      12345679113.0511463857
      98765432169.4885360428
      L
    
      12345679113.0511463857
      98765432183.7742503285
      L
    
      12345679098.7654321
      98765432205.2028217571
      L
    
      12345679098.7654321
      98765432226.6313931857
      L
    
      12345679084.4797178142
      98765432226.6313931857
      L
    
      12345679063.0511463857
      98765432212.3456789
      L
    
      12345679041.6225749571
      98765432212.3456789
      L
    
      12345679041.6225749571
      98765432198.0599646142
      L
    
      12345679055.9082892428
      98765432176.6313931857
      z
    "
    fill="hsla(0,0%,50%,0.3)"
    stroke="hsla(0,0%,50%,1)"
    stroke-width="1"
    transform="translate(-12345679053.2715704928,-98765432191.2379780071) scale(1,-1) translate(50,-110)"
    />
  
  
  <line
    x1="12345679041.622576"
    y1="98765432198.05995"
    x2="12345679041.622576"
    y2="98765432212.34567"
    stroke="hsla(0,50%,50%,0.6)"
    stroke-width="1"
    transform="translate(-12345679053.2715704928,-98765432191.2379780071) scale(1,-1) translate(50,-110)"
    />
  
  <line
    x1="12345679055.908289"
    y1="98765432155.20282"
    x2="12345679055.908289"
    y2="98765432183.77425"
    stroke="hsla(0,50%,50%,0.6)"
    stroke-width="1"
    transform="translate(-12345679053.2715704928,-98765432191.2379780071) scale(1,-1) translate(50,-110)"
    />
  
  <line
    x1="12345679070.194004"
    y1="98765432155.20282"
    x2="12345679070.194004"
    y2="98765432212.34567"
    stroke="hsla(0,50%,50%,0.6)"
    stroke-width="1"
    transform="translate(-12345679053.2715704928,-98765432191.2379780071) scale(1,-1) translate(50,-110)"
    />
  
  <line
    x1="12345679084.47972"
    y1="98765432169.48853"
    x2="12345679084.47972"
    y2="98765432226.6314"
    stroke="hsla(0,50%,50%,0.6)"
    stroke-width="1"
    transform="translate(-12345679053.2715704928,-98765432191.2379780071) scale(1,-1) translate(50,-110)"
    />
  
  <line
    x1="12345679098.765432"
    y1="98765432198.05995"
    x2="12345679098.765432"
    y2="98765432226.6314"
    stroke="hsla(0,50%,50%,0.6)"
    stroke-width="1"
    transform="translate(-12345679053.2715704928,-98765432191.2379780071) scale(1,-1) translate(50,-110)"
    />
  
  <line
    x1="12345679113.051147"
    y1="98765432169.48853"
    x2="12345679113.051147"
    y2="98765432183.77425"
    stroke="hsla(0,50%,50%,0.6)"
    stroke-width="1"
    transform="translate(-12345679053.2715704928,-98765432191.2379780071) scale(1,-1) translate(50,-110)"
    />
  
  <line
    x1="12345679070.194004"
    y1="98765432155.20282"
    x2="12345679086.67752"
    y2="98765432194.76326"
    stroke="hsla(0,50%,50%,0.6)"
    stroke-width="1"
    transform="translate(-12345679053.2715704928,-98765432191.2379780071) scale(1,-1) translate(50,-110)"
    />
  
  <line
    x1="12345679067.9962"
    y1="98765432187.07095"
    x2="12345679084.47972"
    y2="98765432226.6314"
    stroke="hsla(0,50%,50%,0.6)"
    stroke-width="1"
    transform="translate(-12345679053.2715704928,-98765432191.2379780071) scale(1,-1) translate(50,-110)"
    />
  
  <line
    x1="12345679084.47972"
    y1="98765432169.48853"
    x2="12345679098.765432"
    y2="98765432198.05995"
    stroke="hsla(0,50%,50%,0.6)"
    stroke-width="1"
    transform="translate(-12345679053.2715704928,-98765432191.2379780071) scale(1,-1) translate(50,-110)"
    />
  
  <line
    x1="12345679055.908289"
    y1="98765432183.77425"
    x2="12345679070.194004"
    y2="98765432212.34567"
    stroke="hsla(0,50%,50%,0.6)"
    stroke-width="1"
    transform="translate(-12345679053.2715704928,-98765432191.2379780071) scale(1,-1) translate(50,-110)"
    />
  
  <line
    x1="12345679070.194004"
    y1="98765432155.20282"
    x2="12345679041.622576"
    y2="98765432198.05995"
    stroke="hsla(0,50%,50%,0.6)"
    stroke-width="1"
    transform="translate(-12345679053.2715704928,-98765432191.2379780071) scale(1,-1) translate(50,-110)"
    />
  
  <line
    x1="12345679113.051147"
    y1="98765432183.77425"
    x2="12345679084.47972"
    y2="98765432226.6314"
    stroke="hsla(0,50%,50%,0.6)"
    stroke-width="1"
    transform="translate(-12345679053.2715704928,-98765432191.2379780071) scale(1,-1) translate(50,-110)"
    />
  
  <line
    x1="12345679070.194004"
    y1="98765432155.20282"
    x2="12345679113.051147"
    y2="98765432183.77425"
    stroke="hsla(0,50%,50%,0.6)"
    stroke-width="1"
    transform="translate(-12345679053.2715704928,-98765432191.2379780071) scale(1,-1) translate(50,-110)"
    />
  
  <line
    x1="12345679041.622576"
    y1="98765432198.05995"
    x2="12345679084.47972"
    y2="98765432226.6314"
    stroke="hsla(0,50%,50%,0.6)"
    stroke-width="1"
    transform="translate(-12345679053.2715704928,-98765432191.2379780071) scale(1,-1) translate(50,-110)"
    />
  
  <line
    x1="12345679084.47972"
    y1="98765432169.48853"
    x2="12345679055.908289"
    y2="98765432183.77425"
    stroke="hsla(0,50%,50%,0.6)"
    stroke-width="1"
    transform="translate(-12345679053.2715704928,-98765432191.2379780071) scale(1,-1) translate(50,-110)"
    />
  
  <line
    x1="12345679098.765432"
    y1="98765432198.05995"
    x2="12345679070.194004"
    y2="98765432212.34567"
    stroke="hsla(0,50%,50%,0.6)"
    stroke-width="1"
    transform="translate(-12345679053.2715704928,-98765432191.2379780071) scale(1,-1) translate(50,-110)"
    />
  
  <line
    x1="12345679081.183014"
    y1="98765432181.57645"
    x2="12345679041.622576"
    y2="98765432198.05995"
    stroke="hsla(0,50%,50%,0.6)"
    stroke-width="1"
    transform="translate(-12345679053.2715704928,-98765432191.2379780071) scale(1,-1) translate(50,-110)"
    />
  
  <line
    x1="12345679113.051147"
    y1="98765432183.77425"
    x2="12345679073.490707"
    y2="98765432200.25777"
    stroke="hsla(0,50%,50%,0.6)"
    stroke-width="1"
    transform="translate(-12345679053.2715704928,-98765432191.2379780071) scale(1,-1) translate(50,-110)"
    />
  
  <line
    x1="12345679055.908289"
    y1="98765432155.20282"
    x2="12345679070.194004"
    y2="98765432155.20282"
    stroke="hsla(0,50%,50%,0.6)"
    stroke-width="1"
    transform="translate(-12345679053.2715704928,-98765432191.2379780071) scale(1,-1) translate(50,-110)"
    />
  
  <line
    x1="12345679084.47972"
    y1="98765432169.48853"
    x2="12345679113.051147"
    y2="98765432169.48853"
    stroke="hsla(0,50%,50%,0.6)"
    stroke-width="1"
    transform="translate(-12345679053.2715704928,-98765432191.2379780071) scale(1,-1) translate(50,-110)"
    />
  
  <line
    x1="12345679055.908289"
    y1="98765432183.77425"
    x2="12345679113.051147"
    y2="98765432183.77425"
    stroke="hsla(0,50%,50%,0.6)"
    stroke-width="1"
    transform="translate(-12345679053.2715704928,-98765432191.2379780071) scale(1,-1) translate(50,-110)"
    />
  
  <line
    x1="12345679041.622576"
    y1="98765432198.05995"
    x2="12345679098.765432"
    y2="98765432198.05995"
    stroke="hsla(0,50%,50%,0.6)"
    stroke-width="1"
    transform="translate(-12345679053.2715704928,-98765432191.2379780071) scale(1,-1) translate(50,-110)"
    />
  
  <line
    x1="12345679041.622576"
    y1="98765432212.34567"
    x2="12345679070.194004"
    y2="98765432212.34567"
    stroke="hsla(0,50%,50%,0.6)"
    stroke-width="1"
    transform="translate(-12345679053.2715704928,-98765432191.2379780071) scale(1,-1) translate(50,-110)"
    />
  
  <line
    x1="12345679084.47972"
    y1="98765432226.6314"
    x2="12345679098.765432"
    y2="98765432226.6314"
    stroke="hsla(0,50%,50%,0.6)"
    stroke-width="1"
    transform="translate(-12345679053.2715704928,-98765432191.2379780071) scale(1,-1) translate(50,-110)"
    />
  
</svg>
