<?xml version="1.0"?>
<!DOCTYPE svg PUBLIC "-//W3C//DTD SVG 1.1//EN"
  "http://www.w3.org/Graphics/SVG/1.1/DTD/svg11.dtd">
<svg
  width="240"
  height="240"
  viewBox="-500 -500 1000 1000" xmlns="http://www.w3.org/2000/svg" version="1.1">
  <rect
    x="0"
    y="0"
    width="100"
    height="100"
    fill="hsla(206,100%,53%,0.3)"
    stroke="hsl(206,100%,53%)"
    stroke-width="3"
    transform="" />
  
  <path
    d="M 
      105.9401709401
      43.75
      L
    
      142.0512820512
      43.75
      L
    
      142.0512820512
      56.7307692307
      L
    
      105.9401709401
      56.7307692307
      z
    "
    fill="hsla(0,0%,50%,0.3)"
    stroke="hsla(0,0%,50%,1)"
    stroke-width="1"
    transform="translate(-123.9957264957,-50.2403846153)"
    />
  
  
  <line
    x1="105.94017094017094"
    y1="43.75"
    x2="105.94017094017094"
    y2="56.73076923076923"
    stroke="hsla(0,50%,50%,0.6)"
    stroke-width="1"
    transform="translate(-123.9957264957,-50.2403846153)"
    />
  
  <line
    x1="118.44017094017094"
    y1="43.75"
    x2="118.44017094017094"
    y2="56.73076923076923"
    stroke="hsla(0,50%,50%,0.6)"
    stroke-width="1"
    transform="translate(-123.9957264957,-50.2403846153)"
    />
  
  <line
    x1="123.30128205128206"
    y1="43.75"
    x2="123.30128205128206"
    y2="56.73076923076923"
    stroke="hsla(0,50%,50%,0.6)"
    stroke-width="1"
    transform="translate(-123.9957264957,-50.2403846153)"
    />
  
  <line
    x1="125.38461538461539"
    y1="43.75"
    x2="125.38461538461539"
    y2="56.73076923076923"
    stroke="hsla(0,50%,50%,0.6)"
    stroke-width="1"
    transform="translate(-123.9957264957,-50.2403846153)"
    />
  
  <line
    x1="133.71794871794873"
    y1="43.75"
    x2="133.71794871794873"
    y2="56.73076923076923"
    stroke="hsla(0,50%,50%,0.6)"
    stroke-width="1"
    transform="translate(-123.9957264957,-50.2403846153)"
    />
  
  <line
    x1="142.05128205128204"
    y1="43.75"
    x2="142.05128205128204"
    y2="56.73076923076923"
    stroke="hsla(0,50%,50%,0.6)"
    stroke-width="1"
    transform="translate(-123.9957264957,-50.2403846153)"
    />
  
  <line
    x1="105.94017094017094"
    y1="43.75"
    x2="142.05128205128204"
    y2="43.75"
    stroke="hsla(0,50%,50%,0.6)"
    stroke-width="1"
    transform="translate(-123.9957264957,-50.2403846153)"
    />
  
  <line
    x1="105.94017094017094"
    y1="44.52214452214452"
    x2="142.05128205128204"
    y2="44.52214452214452"
    stroke="hsla(0,50%,50%,0.6)"
    stroke-width="1"
    transform="translate(-123.9957264957,-50.2403846153)"
    />
  
  <line
    x1="105.94017094017094"
    y1="49.03846153846154"
    x2="142.05128205128204"
    y2="49.03846153846154"
    stroke="hsla(0,50%,50%,0.6)"
    stroke-width="1"
    transform="translate(-123.9957264957,-50.2403846153)"
    />
  
  <line
    x1="105.94017094017094"
    y1="49.28404928404928"
    x2="142.05128205128204"
    y2="49.28404928404928"
    stroke="hsla(0,50%,50%,0.6)"
    stroke-width="1"
    transform="translate(-123.9957264957,-50.2403846153)"
    />
  
  <line
    x1="105.94017094017094"
    y1="50"
    x2="142.05128205128204"
    y2="50"
    stroke="hsla(0,50%,50%,0.6)"
    stroke-width="1"
    transform="translate(-123.9957264957,-50.2403846153)"
    />
  
  <line
    x1="105.94017094017094"
    y1="51.06976356976357"
    x2="142.05128205128204"
    y2="51.06976356976357"
    stroke="hsla(0,50%,50%,0.6)"
    stroke-width="1"
    transform="translate(-123.9957264957,-50.2403846153)"
    />
  
  <line
    x1="105.94017094017094"
    y1="51.13636363636363"
    x2="142.05128205128204"
    y2="51.13636363636363"
    stroke="hsla(0,50%,50%,0.6)"
    stroke-width="1"
    transform="translate(-123.9957264957,-50.2403846153)"
    />
  
  <line
    x1="105.94017094017094"
    y1="56.73076923076923"
    x2="142.05128205128204"
    y2="56.73076923076923"
    stroke="hsla(0,50%,50%,0.6)"
    stroke-width="1"
    transform="translate(-123.9957264957,-50.2403846153)"
    />
  
</svg>
