<?xml version="1.0"?>
<!DOCTYPE svg PUBLIC "-//W3C//DTD SVG 1.1//EN"
  "http://www.w3.org/Graphics/SVG/1.1/DTD/svg11.dtd">
<svg
  width="240"
  height="240"
  viewBox="-50 -50 200 200" xmlns="http://www.w3.org/2000/svg" version="1.1">
  <rect
    x="0"
    y="0"
    width="100"
    height="100"
    fill="hsla(206,100%,53%,0.3)"
    stroke="hsl(206,100%,53%)"
    stroke-width="3"
    transform="" />
  
  <path
    d="M 
      83.3333333333
      0
      L
    
      100
      0
      L
    
      100
      60
      L
    
      83.3333333333
      60
      z
    "
    fill="hsla(0,0%,50%,0.3)"
    stroke="hsla(0,0%,50%,1)"
    stroke-width="1"
    transform="translate(-89.5833333333,-45) scale(1,-1) translate(50,-110)"
    />
  
  
  <line
    x1="83.33333333333333"
    y1="0"
    x2="100"
    y2="0"
    stroke="hsla(0,50%,50%,0.6)"
    stroke-width="1"
    transform="translate(-89.5833333333,-45) scale(1,-1) translate(50,-110)"
    />
  
  <line
    x1="83.33333333333333"
    y1="0"
    x2="83.33333333333333"
    y2="60"
    stroke="hsla(0,50%,50%,0.6)"
    stroke-width="1"
    transform="translate(-89.5833333333,-45) scale(1,-1) translate(50,-110)"
    />
  
  <line
    x1="87.61904761904762"
    y1="0"
    x2="87.61904761904762"
    y2="60"
    stroke="hsla(0,50%,50%,0.6)"
    stroke-width="1"
    transform="translate(-89.5833333333,-45) scale(1,-1) translate(50,-110)"
    />
  
  <line
    x1="96.66666666666667"
    y1="0"
    x2="96.66666666666667"
    y2="60"
    stroke="hsla(0,50%,50%,0.6)"
    stroke-width="1"
    transform="translate(-89.5833333333,-45) scale(1,-1) translate(50,-110)"
    />
  
  <line
    x1="97.5"
    y1="0"
    x2="97.5"
    y2="60"
    stroke="hsla(0,50%,50%,0.6)"
    stroke-width="1"
    transform="translate(-89.5833333333,-45) scale(1,-1) translate(50,-110)"
    />
  
  <line
    x1="97.91666666666667"
    y1="0"
    x2="97.91666666666667"
    y2="60"
    stroke="hsla(0,50%,50%,0.6)"
    stroke-width="1"
    transform="translate(-89.5833333333,-45) scale(1,-1) translate(50,-110)"
    />
  
  <line
    x1="98.0952380952381"
    y1="0"
    x2="98.0952380952381"
    y2="60"
    stroke="hsla(0,50%,50%,0.6)"
    stroke-width="1"
    transform="translate(-89.5833333333,-45) scale(1,-1) translate(50,-110)"
    />
  
  <line
    x1="100"
    y1="0"
    x2="100"
    y2="60"
    stroke="hsla(0,50%,50%,0.6)"
    stroke-width="1"
    transform="translate(-89.5833333333,-45) scale(1,-1) translate(50,-110)"
    />
  
  <line
    x1="83.33333333333333"
    y1="12.5"
    x2="100"
    y2="12.5"
    stroke="hsla(0,50%,50%,0.6)"
    stroke-width="1"
    transform="translate(-89.5833333333,-45) scale(1,-1) translate(50,-110)"
    />
  
  <line
    x1="83.33333333333333"
    y1="45"
    x2="100"
    y2="45"
    stroke="hsla(0,50%,50%,0.6)"
    stroke-width="1"
    transform="translate(-89.5833333333,-45) scale(1,-1) translate(50,-110)"
    />
  
  <line
    x1="83.33333333333333"
    y1="60"
    x2="100"
    y2="60"
    stroke="hsla(0,50%,50%,0.6)"
    stroke-width="1"
    transform="translate(-89.5833333333,-45) scale(1,-1) translate(50,-110)"
    />
  
</svg>
