<?xml version="1.0"?>
<!DOCTYPE svg PUBLIC "-//W3C//DTD SVG 1.1//EN"
  "http://www.w3.org/Graphics/SVG/1.1/DTD/svg11.dtd">
<svg
  width="240"
  height="240"
  viewBox="-500 -500 1000 1000" xmlns="http://www.w3.org/2000/svg" version="1.1">
  <rect
    x="0"
    y="0"
    width="100"
    height="100"
    fill="hsla(206,100%,53%,0.3)"
    stroke="hsl(206,100%,53%)"
    stroke-width="3"
    transform="" />
  
  <path
    d="M 
      16.6666666666
      10.4166666666
      L
    
      60
      10.4166666666
      L
    
      60
      33.3333333333
      L
    
      16.6666666666
      33.3333333333
      z
    "
    fill="hsla(0,0%,50%,0.3)"
    stroke="hsla(0,0%,50%,1)"
    stroke-width="1"
    transform="translate(-38.3333333333,-21.875)"
    />
  
  
  <line
    x1="16.666666666666668"
    y1="10.416666666666666"
    x2="16.666666666666668"
    y2="33.333333333333336"
    stroke="hsla(0,50%,50%,0.6)"
    stroke-width="1"
    transform="translate(-38.3333333333,-21.875)"
    />
  
  <line
    x1="20"
    y1="10.416666666666666"
    x2="20"
    y2="33.333333333333336"
    stroke="hsla(0,50%,50%,0.6)"
    stroke-width="1"
    transform="translate(-38.3333333333,-21.875)"
    />
  
  <line
    x1="23.333333333333332"
    y1="10.416666666666666"
    x2="23.333333333333332"
    y2="33.333333333333336"
    stroke="hsla(0,50%,50%,0.6)"
    stroke-width="1"
    transform="translate(-38.3333333333,-21.875)"
    />
  
  <line
    x1="41.42857142857143"
    y1="10.416666666666666"
    x2="41.42857142857143"
    y2="33.333333333333336"
    stroke="hsla(0,50%,50%,0.6)"
    stroke-width="1"
    transform="translate(-38.3333333333,-21.875)"
    />
  
  <line
    x1="57.142857142857146"
    y1="10.416666666666666"
    x2="57.142857142857146"
    y2="33.333333333333336"
    stroke="hsla(0,50%,50%,0.6)"
    stroke-width="1"
    transform="translate(-38.3333333333,-21.875)"
    />
  
  <line
    x1="60"
    y1="10.416666666666666"
    x2="60"
    y2="33.333333333333336"
    stroke="hsla(0,50%,50%,0.6)"
    stroke-width="1"
    transform="translate(-38.3333333333,-21.875)"
    />
  
  <line
    x1="16.666666666666668"
    y1="10.416666666666666"
    x2="60"
    y2="10.416666666666666"
    stroke="hsla(0,50%,50%,0.6)"
    stroke-width="1"
    transform="translate(-38.3333333333,-21.875)"
    />
  
  <line
    x1="16.666666666666668"
    y1="12.5"
    x2="60"
    y2="12.5"
    stroke="hsla(0,50%,50%,0.6)"
    stroke-width="1"
    transform="translate(-38.3333333333,-21.875)"
    />
  
  <line
    x1="16.666666666666668"
    y1="13.88888888888889"
    x2="60"
    y2="13.88888888888889"
    stroke="hsla(0,50%,50%,0.6)"
    stroke-width="1"
    transform="translate(-38.3333333333,-21.875)"
    />
  
  <line
    x1="16.666666666666668"
    y1="23.61111111111111"
    x2="60"
    y2="23.61111111111111"
    stroke="hsla(0,50%,50%,0.6)"
    stroke-width="1"
    transform="translate(-38.3333333333,-21.875)"
    />
  
  <line
    x1="16.666666666666668"
    y1="25"
    x2="60"
    y2="25"
    stroke="hsla(0,50%,50%,0.6)"
    stroke-width="1"
    transform="translate(-38.3333333333,-21.875)"
    />
  
  <line
    x1="16.666666666666668"
    y1="29.166666666666668"
    x2="60"
    y2="29.166666666666668"
    stroke="hsla(0,50%,50%,0.6)"
    stroke-width="1"
    transform="translate(-38.3333333333,-21.875)"
    />
  
  <line
    x1="16.666666666666668"
    y1="33.333333333333336"
    x2="60"
    y2="33.333333333333336"
    stroke="hsla(0,50%,50%,0.6)"
    stroke-width="1"
    transform="translate(-38.3333333333,-21.875)"
    />
  
</svg>
