<?xml version="1.0"?>
<!DOCTYPE svg PUBLIC "-//W3C//DTD SVG 1.1//EN"
  "http://www.w3.org/Graphics/SVG/1.1/DTD/svg11.dtd">
<svg
  width="240"
  height="240"
  viewBox="-500 -500 1000 1000" xmlns="http://www.w3.org/2000/svg" version="1.1">
  <rect
    x="0"
    y="0"
    width="100"
    height="100"
    fill="hsla(206,100%,53%,0.3)"
    stroke="hsl(206,100%,53%)"
    stroke-width="3"
    transform="" />
  
  <path
    d="M 
      5652525069576596010157.1428571428
      5652525069576596010171.4285714285
      L
    
      5652525069576596010200
      5652525069576596010171.4285714285
      L
    
      5652525069576596010214.2857142857
      5652525069576596010185.7142857142
      L
    
      5652525069576596010214.2857142857
      5652525069576596010228.5714285714
      L
    
      5652525069576596010200
      5652525069576596010228.5714285714
      L
    
      5652525069576596010200
      5652525069576596010185.7142857142
      L
    
      5652525069576596010157.1428571428
      5652525069576596010185.7142857142
      z
    "
    fill="hsla(0,0%,50%,0.3)"
    stroke="hsla(0,0%,50%,1)"
    stroke-width="1"
    transform="translate(-5652525069576596010185.7142857142,-5652525069576596010200)"
    />
  
  
  <line
    x1="5.652525069576596e+21"
    y1="5.652525069576596e+21"
    x2="5.652525069576596e+21"
    y2="5.652525069576596e+21"
    stroke="hsla(0,50%,50%,0.6)"
    stroke-width="1"
    transform="translate(-5652525069576596010185.7142857142,-5652525069576596010200)"
    />
  
  <line
    x1="5.652525069576596e+21"
    y1="5.652525069576596e+21"
    x2="5.652525069576596e+21"
    y2="5.652525069576596e+21"
    stroke="hsla(0,50%,50%,0.6)"
    stroke-width="1"
    transform="translate(-5652525069576596010185.7142857142,-5652525069576596010200)"
    />
  
  <line
    x1="5.652525069576596e+21"
    y1="5.652525069576596e+21"
    x2="5.652525069576596e+21"
    y2="5.652525069576596e+21"
    stroke="hsla(0,50%,50%,0.6)"
    stroke-width="1"
    transform="translate(-5652525069576596010185.7142857142,-5652525069576596010200)"
    />
  
  <line
    x1="5.652525069576596e+21"
    y1="5.652525069576596e+21"
    x2="5.652525069576596e+21"
    y2="5.652525069576596e+21"
    stroke="hsla(0,50%,50%,0.6)"
    stroke-width="1"
    transform="translate(-5652525069576596010185.7142857142,-5652525069576596010200)"
    />
  
  <line
    x1="5.652525069576596e+21"
    y1="5.652525069576596e+21"
    x2="5.652525069576596e+21"
    y2="5.652525069576596e+21"
    stroke="hsla(0,50%,50%,0.6)"
    stroke-width="1"
    transform="translate(-5652525069576596010185.7142857142,-5652525069576596010200)"
    />
  
  <line
    x1="5.652525069576596e+21"
    y1="5.652525069576596e+21"
    x2="5.652525069576596e+21"
    y2="5.652525069576596e+21"
    stroke="hsla(0,50%,50%,0.6)"
    stroke-width="1"
    transform="translate(-5652525069576596010185.7142857142,-5652525069576596010200)"
    />
  
  <line
    x1="5.652525069576596e+21"
    y1="5.652525069576596e+21"
    x2="5.652525069576596e+21"
    y2="5.652525069576596e+21"
    stroke="hsla(0,50%,50%,0.6)"
    stroke-width="1"
    transform="translate(-5652525069576596010185.7142857142,-5652525069576596010200)"
    />
  
</svg>
