<?xml version="1.0"?>
<!DOCTYPE svg PUBLIC "-//W3C//DTD SVG 1.1//EN"
  "http://www.w3.org/Graphics/SVG/1.1/DTD/svg11.dtd">
<svg
  width="240"
  height="240"
  viewBox="-500 -500 1000 1000" xmlns="http://www.w3.org/2000/svg" version="1.1">
  <rect
    x="0"
    y="0"
    width="100"
    height="100"
    fill="hsla(206,100%,53%,0.3)"
    stroke="hsl(206,100%,53%)"
    stroke-width="3"
    transform="" />
  
  <path
    d="M 
      2.2222222222
      33.3333333333
      L
    
      31.1111111111
      33.3333333333
      L
    
      31.1111111111
      50
      L
    
      2.2222222222
      50
      z
    "
    fill="hsla(0,0%,50%,0.3)"
    stroke="hsla(0,0%,50%,1)"
    stroke-width="1"
    transform="translate(-16.6666666666,-41.6666666666)"
    />
  
  
  <line
    x1="2.2222222222222223"
    y1="33.333333333333336"
    x2="2.2222222222222223"
    y2="50"
    stroke="hsla(0,50%,50%,0.6)"
    stroke-width="1"
    transform="translate(-16.6666666666,-41.6666666666)"
    />
  
  <line
    x1="6.666666666666667"
    y1="33.333333333333336"
    x2="6.666666666666667"
    y2="50"
    stroke="hsla(0,50%,50%,0.6)"
    stroke-width="1"
    transform="translate(-16.6666666666,-41.6666666666)"
    />
  
  <line
    x1="20"
    y1="33.333333333333336"
    x2="20"
    y2="50"
    stroke="hsla(0,50%,50%,0.6)"
    stroke-width="1"
    transform="translate(-16.6666666666,-41.6666666666)"
    />
  
  <line
    x1="21.58730158730159"
    y1="33.333333333333336"
    x2="21.58730158730159"
    y2="50"
    stroke="hsla(0,50%,50%,0.6)"
    stroke-width="1"
    transform="translate(-16.6666666666,-41.6666666666)"
    />
  
  <line
    x1="30.317460317460316"
    y1="33.333333333333336"
    x2="30.317460317460316"
    y2="50"
    stroke="hsla(0,50%,50%,0.6)"
    stroke-width="1"
    transform="translate(-16.6666666666,-41.6666666666)"
    />
  
  <line
    x1="31.11111111111111"
    y1="33.333333333333336"
    x2="31.11111111111111"
    y2="50"
    stroke="hsla(0,50%,50%,0.6)"
    stroke-width="1"
    transform="translate(-16.6666666666,-41.6666666666)"
    />
  
  <line
    x1="2.2222222222222223"
    y1="33.333333333333336"
    x2="31.11111111111111"
    y2="33.333333333333336"
    stroke="hsla(0,50%,50%,0.6)"
    stroke-width="1"
    transform="translate(-16.6666666666,-41.6666666666)"
    />
  
  <line
    x1="2.2222222222222223"
    y1="41.666666666666664"
    x2="31.11111111111111"
    y2="41.666666666666664"
    stroke="hsla(0,50%,50%,0.6)"
    stroke-width="1"
    transform="translate(-16.6666666666,-41.6666666666)"
    />
  
  <line
    x1="2.2222222222222223"
    y1="44.87179487179487"
    x2="31.11111111111111"
    y2="44.87179487179487"
    stroke="hsla(0,50%,50%,0.6)"
    stroke-width="1"
    transform="translate(-16.6666666666,-41.6666666666)"
    />
  
  <line
    x1="2.2222222222222223"
    y1="46.666666666666664"
    x2="31.11111111111111"
    y2="46.666666666666664"
    stroke="hsla(0,50%,50%,0.6)"
    stroke-width="1"
    transform="translate(-16.6666666666,-41.6666666666)"
    />
  
  <line
    x1="2.2222222222222223"
    y1="49.743589743589745"
    x2="31.11111111111111"
    y2="49.743589743589745"
    stroke="hsla(0,50%,50%,0.6)"
    stroke-width="1"
    transform="translate(-16.6666666666,-41.6666666666)"
    />
  
  <line
    x1="2.2222222222222223"
    y1="50"
    x2="31.11111111111111"
    y2="50"
    stroke="hsla(0,50%,50%,0.6)"
    stroke-width="1"
    transform="translate(-16.6666666666,-41.6666666666)"
    />
  
</svg>
