<?xml version="1.0"?>
<!DOCTYPE svg PUBLIC "-//W3C//DTD SVG 1.1//EN"
  "http://www.w3.org/Graphics/SVG/1.1/DTD/svg11.dtd">
<svg
  width="240"
  height="240"
  viewBox="-500 -500 1000 1000" xmlns="http://www.w3.org/2000/svg" version="1.1">
  <rect
    x="0"
    y="0"
    width="100"
    height="100"
    fill="hsla(206,100%,53%,0.3)"
    stroke="hsl(206,100%,53%)"
    stroke-width="3"
    transform="" />
  
  <path
    d="M 
      40.8730158730
      0
      L
    
      83.3333333333
      0
      L
    
      83.3333333333
      30
      L
    
      40.8730158730
      30
      z
    "
    fill="hsla(0,0%,50%,0.3)"
    stroke="hsla(0,0%,50%,1)"
    stroke-width="1"
    transform="translate(-62.1031746031,-15)"
    />
  
  
  <line
    x1="40.87301587301587"
    y1="0"
    x2="83.33333333333333"
    y2="0"
    stroke="hsla(0,50%,50%,0.6)"
    stroke-width="1"
    transform="translate(-62.1031746031,-15)"
    />
  
  <line
    x1="40.87301587301587"
    y1="0"
    x2="40.87301587301587"
    y2="30"
    stroke="hsla(0,50%,50%,0.6)"
    stroke-width="1"
    transform="translate(-62.1031746031,-15)"
    />
  
  <line
    x1="51.19047619047619"
    y1="0"
    x2="51.19047619047619"
    y2="30"
    stroke="hsla(0,50%,50%,0.6)"
    stroke-width="1"
    transform="translate(-62.1031746031,-15)"
    />
  
  <line
    x1="72.61904761904762"
    y1="0"
    x2="72.61904761904762"
    y2="30"
    stroke="hsla(0,50%,50%,0.6)"
    stroke-width="1"
    transform="translate(-62.1031746031,-15)"
    />
  
  <line
    x1="81.34920634920636"
    y1="0"
    x2="81.34920634920636"
    y2="30"
    stroke="hsla(0,50%,50%,0.6)"
    stroke-width="1"
    transform="translate(-62.1031746031,-15)"
    />
  
  <line
    x1="83.33333333333333"
    y1="0"
    x2="83.33333333333333"
    y2="30"
    stroke="hsla(0,50%,50%,0.6)"
    stroke-width="1"
    transform="translate(-62.1031746031,-15)"
    />
  
  <line
    x1="40.87301587301587"
    y1="5.555555555555555"
    x2="83.33333333333333"
    y2="5.555555555555555"
    stroke="hsla(0,50%,50%,0.6)"
    stroke-width="1"
    transform="translate(-62.1031746031,-15)"
    />
  
  <line
    x1="40.87301587301587"
    y1="7.222222222222222"
    x2="83.33333333333333"
    y2="7.222222222222222"
    stroke="hsla(0,50%,50%,0.6)"
    stroke-width="1"
    transform="translate(-62.1031746031,-15)"
    />
  
  <line
    x1="40.87301587301587"
    y1="11.11111111111111"
    x2="83.33333333333333"
    y2="11.11111111111111"
    stroke="hsla(0,50%,50%,0.6)"
    stroke-width="1"
    transform="translate(-62.1031746031,-15)"
    />
  
  <line
    x1="40.87301587301587"
    y1="30"
    x2="83.33333333333333"
    y2="30"
    stroke="hsla(0,50%,50%,0.6)"
    stroke-width="1"
    transform="translate(-62.1031746031,-15)"
    />
  
</svg>
