<?xml version="1.0"?>
<!DOCTYPE svg PUBLIC "-//W3C//DTD SVG 1.1//EN"
  "http://www.w3.org/Graphics/SVG/1.1/DTD/svg11.dtd">
<svg
  width="240"
  height="240"
  viewBox="-500 -500 1000 1000" xmlns="http://www.w3.org/2000/svg" version="1.1">
  <rect
    x="0"
    y="0"
    width="100"
    height="100"
    fill="hsla(206,100%,53%,0.3)"
    stroke="hsl(206,100%,53%)"
    stroke-width="3"
    transform="" />
  
  <path
    d="M 
      18.0005450581
      0
      L
    
      85.05859375
      0
      L
    
      100
      59.765625
      L
    
      100
      100
      L
    
      99.9425551470
      100
      L
    
      0
      29.2073567708
      L
    
      0
      27.6436941964
      z
    "
    fill="hsla(0,0%,50%,0.3)"
    stroke="hsla(0,0%,50%,1)"
    stroke-width="1"
    transform="translate(-50,-50)"
    />
  
  
  <line
    x1="71.875"
    y1="7.03125"
    x2="100"
    y2="59.765625"
    stroke="hsla(0,50%,50%,0.6)"
    stroke-width="1"
    transform="translate(-50,-50)"
    />
  
  <line
    x1="66.78242413294798"
    y1="5.71893063583815"
    x2="99.94255514705883"
    y2="100"
    stroke="hsla(0,50%,50%,0.6)"
    stroke-width="1"
    transform="translate(-50,-50)"
    />
  
  <line
    x1="85.05859375"
    y1="0"
    x2="100"
    y2="59.765625"
    stroke="hsla(0,50%,50%,0.6)"
    stroke-width="1"
    transform="translate(-50,-50)"
    />
  
  <line
    x1="18.000545058139537"
    y1="0"
    x2="25.281433963159895"
    y2="16.46232909229016"
    stroke="hsla(0,50%,50%,0.6)"
    stroke-width="1"
    transform="translate(-50,-50)"
    />
  
  <line
    x1="18.000545058139537"
    y1="0"
    x2="85.05859375"
    y2="0"
    stroke="hsla(0,50%,50%,0.6)"
    stroke-width="1"
    transform="translate(-50,-50)"
    />
  
  <line
    x1="0"
    y1="27.643694196428573"
    x2="0"
    y2="29.207356770833332"
    stroke="hsla(0,50%,50%,0.6)"
    stroke-width="1"
    transform="translate(-50,-50)"
    />
  
  <line
    x1="100"
    y1="59.765625"
    x2="100"
    y2="100"
    stroke="hsla(0,50%,50%,0.6)"
    stroke-width="1"
    transform="translate(-50,-50)"
    />
  
  <line
    x1="18.000545058139537"
    y1="0"
    x2="0"
    y2="27.643694196428573"
    stroke="hsla(0,50%,50%,0.6)"
    stroke-width="1"
    transform="translate(-50,-50)"
    />
  
  <line
    x1="0"
    y1="29.207356770833332"
    x2="99.94255514705883"
    y2="100"
    stroke="hsla(0,50%,50%,0.6)"
    stroke-width="1"
    transform="translate(-50,-50)"
    />
  
  <line
    x1="25.281433963159895"
    y1="16.46232909229016"
    x2="0"
    y2="27.643694196428573"
    stroke="hsla(0,50%,50%,0.6)"
    stroke-width="1"
    transform="translate(-50,-50)"
    />
  
  <line
    x1="66.78242413294798"
    y1="5.71893063583815"
    x2="0"
    y2="29.207356770833332"
    stroke="hsla(0,50%,50%,0.6)"
    stroke-width="1"
    transform="translate(-50,-50)"
    />
  
  <line
    x1="85.05859375"
    y1="0"
    x2="71.875"
    y2="7.03125"
    stroke="hsla(0,50%,50%,0.6)"
    stroke-width="1"
    transform="translate(-50,-50)"
    />
  
  <line
    x1="99.94255514705883"
    y1="100"
    x2="100"
    y2="100"
    stroke="hsla(0,50%,50%,0.6)"
    stroke-width="1"
    transform="translate(-50,-50)"
    />
  
</svg>
