<?xml version="1.0"?>
<!DOCTYPE svg PUBLIC "-//W3C//DTD SVG 1.1//EN"
  "http://www.w3.org/Graphics/SVG/1.1/DTD/svg11.dtd">
<svg
  width="240"
  height="240"
  viewBox="-500 -500 1000 1000" xmlns="http://www.w3.org/2000/svg" version="1.1">
  <rect
    x="0"
    y="0"
    width="100"
    height="100"
    fill="hsla(206,100%,53%,0.3)"
    stroke="hsl(206,100%,53%)"
    stroke-width="3"
    transform="" />
  
  <path
    d="M 
      37.4220374220
      33.1600831600
      L
    
      20.8419958419
      51.8711018711
      L
    
      39.5530145530
      68.4511434511
      L
    
      41.6839916839
      103.7422037422
      L
    
      22.9729729729
      87.1621621621
      L
    
      6.3929313929
      105.8731808731
      L
    
      -28.8981288981
      108.0041580041
      L
    
      -12.3180873180
      89.2931392931
      L
    
      -31.0291060291
      72.7130977130
      L
    
      -33.1600831600
      37.4220374220
      L
    
      -14.4490644490
      54.0020790020
      L
    
      2.1309771309
      35.2910602910
      z
    "
    fill="hsla(0,0%,50%,0.3)"
    stroke="hsla(0,0%,50%,1)"
    stroke-width="1"
    transform="translate(-4.2619542619,-70.5821205821)"
    />
  
  
  <line
    x1="39.553014553014556"
    y1="68.45114345114345"
    x2="41.683991683991685"
    y2="103.74220374220374"
    stroke="hsla(0,50%,50%,0.6)"
    stroke-width="1"
    transform="translate(-4.2619542619,-70.5821205821)"
    />
  
  <line
    x1="2.130977130977131"
    y1="35.29106029106029"
    x2="6.392931392931393"
    y2="105.87318087318087"
    stroke="hsla(0,50%,50%,0.6)"
    stroke-width="1"
    transform="translate(-4.2619542619,-70.5821205821)"
    />
  
  <line
    x1="-33.16008316008316"
    y1="37.42203742203742"
    x2="-31.02910602910603"
    y2="72.71309771309771"
    stroke="hsla(0,50%,50%,0.6)"
    stroke-width="1"
    transform="translate(-4.2619542619,-70.5821205821)"
    />
  
  <line
    x1="2.130977130977131"
    y1="35.29106029106029"
    x2="-31.02910602910603"
    y2="72.71309771309771"
    stroke="hsla(0,50%,50%,0.6)"
    stroke-width="1"
    transform="translate(-4.2619542619,-70.5821205821)"
    />
  
  <line
    x1="2.130977130977131"
    y1="35.29106029106029"
    x2="39.553014553014556"
    y2="68.45114345114345"
    stroke="hsla(0,50%,50%,0.6)"
    stroke-width="1"
    transform="translate(-4.2619542619,-70.5821205821)"
    />
  
  <line
    x1="37.42203742203742"
    y1="33.16008316008316"
    x2="-28.8981288981289"
    y2="108.004158004158"
    stroke="hsla(0,50%,50%,0.6)"
    stroke-width="1"
    transform="translate(-4.2619542619,-70.5821205821)"
    />
  
  <line
    x1="37.42203742203742"
    y1="33.16008316008316"
    x2="2.130977130977131"
    y2="35.29106029106029"
    stroke="hsla(0,50%,50%,0.6)"
    stroke-width="1"
    transform="translate(-4.2619542619,-70.5821205821)"
    />
  
  <line
    x1="-33.16008316008316"
    y1="37.42203742203742"
    x2="41.683991683991685"
    y2="103.74220374220374"
    stroke="hsla(0,50%,50%,0.6)"
    stroke-width="1"
    transform="translate(-4.2619542619,-70.5821205821)"
    />
  
  <line
    x1="39.553014553014556"
    y1="68.45114345114345"
    x2="6.392931392931393"
    y2="105.87318087318087"
    stroke="hsla(0,50%,50%,0.6)"
    stroke-width="1"
    transform="translate(-4.2619542619,-70.5821205821)"
    />
  
  <line
    x1="-31.02910602910603"
    y1="72.71309771309771"
    x2="6.392931392931393"
    y2="105.87318087318087"
    stroke="hsla(0,50%,50%,0.6)"
    stroke-width="1"
    transform="translate(-4.2619542619,-70.5821205821)"
    />
  
  <line
    x1="39.553014553014556"
    y1="68.45114345114345"
    x2="-31.02910602910603"
    y2="72.71309771309771"
    stroke="hsla(0,50%,50%,0.6)"
    stroke-width="1"
    transform="translate(-4.2619542619,-70.5821205821)"
    />
  
  <line
    x1="6.392931392931393"
    y1="105.87318087318087"
    x2="-28.8981288981289"
    y2="108.004158004158"
    stroke="hsla(0,50%,50%,0.6)"
    stroke-width="1"
    transform="translate(-4.2619542619,-70.5821205821)"
    />
  
</svg>
