<?xml version="1.0"?>
<!DOCTYPE svg PUBLIC "-//W3C//DTD SVG 1.1//EN"
  "http://www.w3.org/Graphics/SVG/1.1/DTD/svg11.dtd">
<svg
  width="240"
  height="240"
  viewBox="-50 -50 200 200" xmlns="http://www.w3.org/2000/svg" version="1.1">
  <rect
    x="0"
    y="0"
    width="100"
    height="100"
    fill="hsla(206,100%,53%,0.3)"
    stroke="hsl(206,100%,53%)"
    stroke-width="3"
    transform="" />
  
  <path
    d="M 
      100
      30.7692307692
      L
    
      126.7351062087
      46.0001092120
      L
    
      118.9498309080
      59.6657794363
      L
    
      169.2307692307
      88.8888888888
      L
    
      169.2307692307
      100
      L
    
      149.7271840128
      100
      L
    
      91.9960179611
      132.8892043903
      L
    
      84.6153846153
      119.9338113623
      L
    
      84.6153846153
      39.7107166337
      z
    "
    fill="hsla(0,0%,50%,0.3)"
    stroke="hsla(0,0%,50%,1)"
    stroke-width="1"
    transform="translate(-94.0666615777,-77.9798697313) scale(1,-1) translate(50,-110)"
    />
  
  
  <line
    x1="100"
    y1="30.76923076923077"
    x2="126.7351062087042"
    y2="46.00010921203516"
    stroke="hsla(0,50%,50%,0.6)"
    stroke-width="1"
    transform="translate(-94.0666615777,-77.9798697313) scale(1,-1) translate(50,-110)"
    />
  
  <line
    x1="84.61538461538461"
    y1="39.71071663379356"
    x2="169.23076923076923"
    y2="88.88888888888889"
    stroke="hsla(0,50%,50%,0.6)"
    stroke-width="1"
    transform="translate(-94.0666615777,-77.9798697313) scale(1,-1) translate(50,-110)"
    />
  
  <line
    x1="84.61538461538461"
    y1="119.9338113623828"
    x2="91.99601796117932"
    y2="132.8892043903238"
    stroke="hsla(0,50%,50%,0.6)"
    stroke-width="1"
    transform="translate(-94.0666615777,-77.9798697313) scale(1,-1) translate(50,-110)"
    />
  
  <line
    x1="84.61538461538461"
    y1="39.71071663379356"
    x2="84.61538461538461"
    y2="119.9338113623828"
    stroke="hsla(0,50%,50%,0.6)"
    stroke-width="1"
    transform="translate(-94.0666615777,-77.9798697313) scale(1,-1) translate(50,-110)"
    />
  
  <line
    x1="100"
    y1="30.76923076923077"
    x2="100"
    y2="100"
    stroke="hsla(0,50%,50%,0.6)"
    stroke-width="1"
    transform="translate(-94.0666615777,-77.9798697313) scale(1,-1) translate(50,-110)"
    />
  
  <line
    x1="169.23076923076923"
    y1="88.88888888888889"
    x2="169.23076923076923"
    y2="100"
    stroke="hsla(0,50%,50%,0.6)"
    stroke-width="1"
    transform="translate(-94.0666615777,-77.9798697313) scale(1,-1) translate(50,-110)"
    />
  
  <line
    x1="126.7351062087042"
    y1="46.00010921203516"
    x2="84.61538461538461"
    y2="119.9338113623828"
    stroke="hsla(0,50%,50%,0.6)"
    stroke-width="1"
    transform="translate(-94.0666615777,-77.9798697313) scale(1,-1) translate(50,-110)"
    />
  
  <line
    x1="100"
    y1="30.76923076923077"
    x2="84.61538461538461"
    y2="39.71071663379356"
    stroke="hsla(0,50%,50%,0.6)"
    stroke-width="1"
    transform="translate(-94.0666615777,-77.9798697313) scale(1,-1) translate(50,-110)"
    />
  
  <line
    x1="84.61538461538461"
    y1="100"
    x2="169.23076923076923"
    y2="100"
    stroke="hsla(0,50%,50%,0.6)"
    stroke-width="1"
    transform="translate(-94.0666615777,-77.9798697313) scale(1,-1) translate(50,-110)"
    />
  
  <line
    x1="169.23076923076923"
    y1="88.88888888888889"
    x2="91.99601796117932"
    y2="132.8892043903238"
    stroke="hsla(0,50%,50%,0.6)"
    stroke-width="1"
    transform="translate(-94.0666615777,-77.9798697313) scale(1,-1) translate(50,-110)"
    />
  
</svg>
