<?xml version="1.0"?>
<!DOCTYPE svg PUBLIC "-//W3C//DTD SVG 1.1//EN"
  "http://www.w3.org/Graphics/SVG/1.1/DTD/svg11.dtd">
<svg
  width="240"
  height="240"
  viewBox="-500 -500 1000 1000" xmlns="http://www.w3.org/2000/svg" version="1.1">
  <rect
    x="0"
    y="0"
    width="100"
    height="100"
    fill="hsla(206,100%,53%,0.3)"
    stroke="hsl(206,100%,53%)"
    stroke-width="3"
    transform="" />
  
  <path
    d="M 
      42.2264875239
      26.7754318618
      L
    
      28.8387715930
      47.8886756238
      L
    
      49.9520153550
      61.2763915547
      L
    
      57.6775431861
      95.7773512476
      L
    
      36.5642994241
      82.3896353166
      L
    
      23.1765834932
      103.5028790786
      L
    
      -11.3243761996
      111.2284069097
      L
    
      2.0633397312
      90.1151631477
      L
    
      -19.0499040307
      76.7274472168
      L
    
      -26.7754318618
      42.2264875239
      L
    
      -5.6621880998
      55.6142034548
      L
    
      7.7255278310
      34.5009596928
      z
    "
    fill="hsla(0,0%,50%,0.3)"
    stroke="hsla(0,0%,50%,1)"
    stroke-width="1"
    transform="translate(-15.4510556621,-69.0019193857)"
    />
  
  
  <line
    x1="49.952015355086374"
    y1="61.27639155470249"
    x2="57.67754318618042"
    y2="95.77735124760076"
    stroke="hsla(0,50%,50%,0.6)"
    stroke-width="1"
    transform="translate(-15.4510556621,-69.0019193857)"
    />
  
  <line
    x1="7.72552783109405"
    y1="34.50095969289827"
    x2="23.17658349328215"
    y2="103.50287907869482"
    stroke="hsla(0,50%,50%,0.6)"
    stroke-width="1"
    transform="translate(-15.4510556621,-69.0019193857)"
    />
  
  <line
    x1="-26.775431861804222"
    y1="42.226487523992326"
    x2="-19.049904030710174"
    y2="76.7274472168906"
    stroke="hsla(0,50%,50%,0.6)"
    stroke-width="1"
    transform="translate(-15.4510556621,-69.0019193857)"
    />
  
  <line
    x1="7.72552783109405"
    y1="34.50095969289827"
    x2="-19.049904030710174"
    y2="76.7274472168906"
    stroke="hsla(0,50%,50%,0.6)"
    stroke-width="1"
    transform="translate(-15.4510556621,-69.0019193857)"
    />
  
  <line
    x1="7.72552783109405"
    y1="34.50095969289827"
    x2="49.952015355086374"
    y2="61.27639155470249"
    stroke="hsla(0,50%,50%,0.6)"
    stroke-width="1"
    transform="translate(-15.4510556621,-69.0019193857)"
    />
  
  <line
    x1="42.226487523992326"
    y1="26.775431861804222"
    x2="-11.324376199616124"
    y2="111.22840690978887"
    stroke="hsla(0,50%,50%,0.6)"
    stroke-width="1"
    transform="translate(-15.4510556621,-69.0019193857)"
    />
  
  <line
    x1="42.226487523992326"
    y1="26.775431861804222"
    x2="7.72552783109405"
    y2="34.50095969289827"
    stroke="hsla(0,50%,50%,0.6)"
    stroke-width="1"
    transform="translate(-15.4510556621,-69.0019193857)"
    />
  
  <line
    x1="49.952015355086374"
    y1="61.27639155470249"
    x2="23.17658349328215"
    y2="103.50287907869482"
    stroke="hsla(0,50%,50%,0.6)"
    stroke-width="1"
    transform="translate(-15.4510556621,-69.0019193857)"
    />
  
  <line
    x1="-26.775431861804222"
    y1="42.226487523992326"
    x2="57.67754318618042"
    y2="95.77735124760076"
    stroke="hsla(0,50%,50%,0.6)"
    stroke-width="1"
    transform="translate(-15.4510556621,-69.0019193857)"
    />
  
  <line
    x1="-19.049904030710174"
    y1="76.7274472168906"
    x2="23.17658349328215"
    y2="103.50287907869482"
    stroke="hsla(0,50%,50%,0.6)"
    stroke-width="1"
    transform="translate(-15.4510556621,-69.0019193857)"
    />
  
  <line
    x1="49.952015355086374"
    y1="61.27639155470249"
    x2="-19.049904030710174"
    y2="76.7274472168906"
    stroke="hsla(0,50%,50%,0.6)"
    stroke-width="1"
    transform="translate(-15.4510556621,-69.0019193857)"
    />
  
  <line
    x1="23.17658349328215"
    y1="103.50287907869482"
    x2="-11.324376199616124"
    y2="111.22840690978887"
    stroke="hsla(0,50%,50%,0.6)"
    stroke-width="1"
    transform="translate(-15.4510556621,-69.0019193857)"
    />
  
</svg>
