<?xml version="1.0"?>
<!DOCTYPE svg PUBLIC "-//W3C//DTD SVG 1.1//EN"
  "http://www.w3.org/Graphics/SVG/1.1/DTD/svg11.dtd">
<svg
  width="240"
  height="240"
  viewBox="-50 -50 200 200" xmlns="http://www.w3.org/2000/svg" version="1.1">
  <rect
    x="0"
    y="0"
    width="100"
    height="100"
    fill="hsla(206,100%,53%,0.3)"
    stroke="hsl(206,100%,53%)"
    stroke-width="3"
    transform="" />
  
  <path
    d="M 
      -565252506957659601000
      -565252506957659600985.7142857142
      L
    
      -565252506957659600957.1428571428
      -565252506957659600985.7142857142
      L
    
      -565252506957659600942.8571428571
      -565252506957659600971.4285714285
      L
    
      -565252506957659600942.8571428571
      -565252506957659600928.5714285714
      L
    
      -565252506957659600957.1428571428
      -565252506957659600928.5714285714
      L
    
      -565252506957659600957.1428571428
      -565252506957659600971.4285714285
      L
    
      -565252506957659601000
      -565252506957659600971.4285714285
      z
    "
    fill="hsla(0,0%,50%,0.3)"
    stroke="hsla(0,0%,50%,1)"
    stroke-width="1"
    transform="translate(565252506957659600977.9017857142,565252506957659600963.8392857142) scale(1,-1) translate(50,-110)"
    />
  
  
  <line
    x1="-565252506957659600000"
    y1="-565252506957659600000"
    x2="-565252506957659600000"
    y2="-565252506957659600000"
    stroke="hsla(0,50%,50%,0.6)"
    stroke-width="1"
    transform="translate(565252506957659600977.9017857142,565252506957659600963.8392857142) scale(1,-1) translate(50,-110)"
    />
  
  <line
    x1="-565252506957659600000"
    y1="-565252506957659600000"
    x2="-565252506957659600000"
    y2="-565252506957659600000"
    stroke="hsla(0,50%,50%,0.6)"
    stroke-width="1"
    transform="translate(565252506957659600977.9017857142,565252506957659600963.8392857142) scale(1,-1) translate(50,-110)"
    />
  
  <line
    x1="-565252506957659600000"
    y1="-565252506957659600000"
    x2="-565252506957659600000"
    y2="-565252506957659600000"
    stroke="hsla(0,50%,50%,0.6)"
    stroke-width="1"
    transform="translate(565252506957659600977.9017857142,565252506957659600963.8392857142) scale(1,-1) translate(50,-110)"
    />
  
  <line
    x1="-565252506957659600000"
    y1="-565252506957659600000"
    x2="-565252506957659600000"
    y2="-565252506957659600000"
    stroke="hsla(0,50%,50%,0.6)"
    stroke-width="1"
    transform="translate(565252506957659600977.9017857142,565252506957659600963.8392857142) scale(1,-1) translate(50,-110)"
    />
  
  <line
    x1="-565252506957659600000"
    y1="-565252506957659600000"
    x2="-565252506957659600000"
    y2="-565252506957659600000"
    stroke="hsla(0,50%,50%,0.6)"
    stroke-width="1"
    transform="translate(565252506957659600977.9017857142,565252506957659600963.8392857142) scale(1,-1) translate(50,-110)"
    />
  
  <line
    x1="-565252506957659600000"
    y1="-565252506957659600000"
    x2="-565252506957659600000"
    y2="-565252506957659600000"
    stroke="hsla(0,50%,50%,0.6)"
    stroke-width="1"
    transform="translate(565252506957659600977.9017857142,565252506957659600963.8392857142) scale(1,-1) translate(50,-110)"
    />
  
  <line
    x1="-565252506957659600000"
    y1="-565252506957659600000"
    x2="-565252506957659600000"
    y2="-565252506957659600000"
    stroke="hsla(0,50%,50%,0.6)"
    stroke-width="1"
    transform="translate(565252506957659600977.9017857142,565252506957659600963.8392857142) scale(1,-1) translate(50,-110)"
    />
  
</svg>
