<?xml version="1.0"?>
<!DOCTYPE svg PUBLIC "-//W3C//DTD SVG 1.1//EN"
  "http://www.w3.org/Graphics/SVG/1.1/DTD/svg11.dtd">
<svg
  width="240"
  height="240"
  viewBox="-500 -500 1000 1000" xmlns="http://www.w3.org/2000/svg" version="1.1">
  <rect
    x="0"
    y="0"
    width="100"
    height="100"
    fill="hsla(206,100%,53%,0.3)"
    stroke="hsl(206,100%,53%)"
    stroke-width="3"
    transform="" />
  
  <path
    d="M 
      4.7371070333
      73.7033816867
      L
    
      8.5268611594
      119.3012835057
      L
    
      22.1978021978
      122.4175824175
      L
    
      11.5185696952
      138.8711807200
      L
    
      11.6950895838
      139.0464676973
      L
    
      8.9759492129
      142.7886210456
      L
    
      -10.9798909662
      129.0762438341
      L
    
      -11.2946139476
      127.2278435996
      L
    
      -9.4413699941
      127.7909762004
      z
    "
    fill="hsla(0,0%,50%,0.3)"
    stroke="hsla(0,0%,50%,1)"
    stroke-width="1"
    transform="translate(-5.4515941250,-108.2460013661)"
    />
  
  
  <line
    x1="4.737107033359264"
    y1="73.70338168672494"
    x2="9.79419430068207"
    y2="134.5496954674189"
    stroke="hsla(0,50%,50%,0.6)"
    stroke-width="1"
    transform="translate(-5.4515941250,-108.2460013661)"
    />
  
  <line
    x1="-2.813425057327496"
    y1="124.6392884441665"
    x2="-3.445885509838998"
    y2="134.25313059033988"
    stroke="hsla(0,50%,50%,0.6)"
    stroke-width="1"
    transform="translate(-5.4515941250,-108.2460013661)"
    />
  
  <line
    x1="4.737107033359264"
    y1="73.70338168672494"
    x2="0.9823707384682995"
    y2="137.29594510082316"
    stroke="hsla(0,50%,50%,0.6)"
    stroke-width="1"
    transform="translate(-5.4515941250,-108.2460013661)"
    />
  
  <line
    x1="4.737107033359264"
    y1="73.70338168672494"
    x2="-2.621379215668329"
    y2="129.11865647737153"
    stroke="hsla(0,50%,50%,0.6)"
    stroke-width="1"
    transform="translate(-5.4515941250,-108.2460013661)"
    />
  
  <line
    x1="-0.48437631292340005"
    y1="126.95206984046855"
    x2="-1.6433136323669972"
    y2="135.49174271154618"
    stroke="hsla(0,50%,50%,0.6)"
    stroke-width="1"
    transform="translate(-5.4515941250,-108.2460013661)"
    />
  
  <line
    x1="-11.294613947678055"
    y1="127.22784359963227"
    x2="-10.979890966298973"
    y2="129.07624383412758"
    stroke="hsla(0,50%,50%,0.6)"
    stroke-width="1"
    transform="translate(-5.4515941250,-108.2460013661)"
    />
  
  <line
    x1="4.737107033359264"
    y1="73.70338168672494"
    x2="-9.96169229562689"
    y2="129.77588484764394"
    stroke="hsla(0,50%,50%,0.6)"
    stroke-width="1"
    transform="translate(-5.4515941250,-108.2460013661)"
    />
  
  <line
    x1="8.26937610210765"
    y1="119.24258963808884"
    x2="3.724582300974012"
    y2="139.18021752439776"
    stroke="hsla(0,50%,50%,0.6)"
    stroke-width="1"
    transform="translate(-5.4515941250,-108.2460013661)"
    />
  
  <line
    x1="4.682271285342306"
    y1="132.08263075089508"
    x2="7.756533250494889"
    y2="141.95071637695364"
    stroke="hsla(0,50%,50%,0.6)"
    stroke-width="1"
    transform="translate(-5.4515941250,-108.2460013661)"
    />
  
  <line
    x1="9.79419430068207"
    y1="134.5496954674189"
    x2="7.756533250494889"
    y2="141.95071637695364"
    stroke="hsla(0,50%,50%,0.6)"
    stroke-width="1"
    transform="translate(-5.4515941250,-108.2460013661)"
    />
  
  <line
    x1="-2.813425057327496"
    y1="124.6392884441665"
    x2="-6.086401409307919"
    y2="132.43873692305"
    stroke="hsla(0,50%,50%,0.6)"
    stroke-width="1"
    transform="translate(-5.4515941250,-108.2460013661)"
    />
  
  <line
    x1="7.126714344066517"
    y1="134.51000048462024"
    x2="4.738480847674447"
    y2="139.87690376771016"
    stroke="hsla(0,50%,50%,0.6)"
    stroke-width="1"
    transform="translate(-5.4515941250,-108.2460013661)"
    />
  
  <line
    x1="-2.813425057327496"
    y1="124.6392884441665"
    x2="-5.0356472795497185"
    y2="127.60225140712946"
    stroke="hsla(0,50%,50%,0.6)"
    stroke-width="1"
    transform="translate(-5.4515941250,-108.2460013661)"
    />
  
  <line
    x1="8.562101037149453"
    y1="135.93536165331108"
    x2="5.57731250836214"
    y2="140.45329524233836"
    stroke="hsla(0,50%,50%,0.6)"
    stroke-width="1"
    transform="translate(-5.4515941250,-108.2460013661)"
    />
  
  <line
    x1="22.197802197802197"
    y1="122.41758241758242"
    x2="8.975949212904423"
    y2="142.78862104567128"
    stroke="hsla(0,50%,50%,0.6)"
    stroke-width="1"
    transform="translate(-5.4515941250,-108.2460013661)"
    />
  
  <line
    x1="9.79419430068207"
    y1="134.5496954674189"
    x2="5.57731250836214"
    y2="140.45329524233836"
    stroke="hsla(0,50%,50%,0.6)"
    stroke-width="1"
    transform="translate(-5.4515941250,-108.2460013661)"
    />
  
  <line
    x1="11.695089583815818"
    y1="139.04646769734163"
    x2="8.975949212904423"
    y2="142.78862104567128"
    stroke="hsla(0,50%,50%,0.6)"
    stroke-width="1"
    transform="translate(-5.4515941250,-108.2460013661)"
    />
  
  <line
    x1="-2.813425057327496"
    y1="124.6392884441665"
    x2="11.695089583815818"
    y2="139.04646769734163"
    stroke="hsla(0,50%,50%,0.6)"
    stroke-width="1"
    transform="translate(-5.4515941250,-108.2460013661)"
    />
  
  <line
    x1="-2.621379215668329"
    y1="129.11865647737153"
    x2="-6.086401409307919"
    y2="132.43873692305"
    stroke="hsla(0,50%,50%,0.6)"
    stroke-width="1"
    transform="translate(-5.4515941250,-108.2460013661)"
    />
  
  <line
    x1="22.197802197802197"
    y1="122.41758241758242"
    x2="4.738480847674447"
    y2="139.87690376771016"
    stroke="hsla(0,50%,50%,0.6)"
    stroke-width="1"
    transform="translate(-5.4515941250,-108.2460013661)"
    />
  
  <line
    x1="-2.813425057327496"
    y1="124.6392884441665"
    x2="-9.96169229562689"
    y2="129.77588484764394"
    stroke="hsla(0,50%,50%,0.6)"
    stroke-width="1"
    transform="translate(-5.4515941250,-108.2460013661)"
    />
  
  <line
    x1="-10.979890966298973"
    y1="129.07624383412758"
    x2="8.975949212904423"
    y2="142.78862104567128"
    stroke="hsla(0,50%,50%,0.6)"
    stroke-width="1"
    transform="translate(-5.4515941250,-108.2460013661)"
    />
  
  <line
    x1="11.695089583815818"
    y1="139.04646769734163"
    x2="7.756533250494889"
    y2="141.95071637695364"
    stroke="hsla(0,50%,50%,0.6)"
    stroke-width="1"
    transform="translate(-5.4515941250,-108.2460013661)"
    />
  
  <line
    x1="8.562101037149453"
    y1="135.93536165331108"
    x2="3.724582300974012"
    y2="139.18021752439776"
    stroke="hsla(0,50%,50%,0.6)"
    stroke-width="1"
    transform="translate(-5.4515941250,-108.2460013661)"
    />
  
  <line
    x1="22.197802197802197"
    y1="122.41758241758242"
    x2="-1.6433136323669972"
    y2="135.49174271154618"
    stroke="hsla(0,50%,50%,0.6)"
    stroke-width="1"
    transform="translate(-5.4515941250,-108.2460013661)"
    />
  
  <line
    x1="-11.294613947678055"
    y1="127.22784359963227"
    x2="11.695089583815818"
    y2="139.04646769734163"
    stroke="hsla(0,50%,50%,0.6)"
    stroke-width="1"
    transform="translate(-5.4515941250,-108.2460013661)"
    />
  
  <line
    x1="22.197802197802197"
    y1="122.41758241758242"
    x2="-3.445885509838998"
    y2="134.25313059033988"
    stroke="hsla(0,50%,50%,0.6)"
    stroke-width="1"
    transform="translate(-5.4515941250,-108.2460013661)"
    />
  
  <line
    x1="8.26937610210765"
    y1="119.24258963808884"
    x2="22.197802197802197"
    y2="122.41758241758242"
    stroke="hsla(0,50%,50%,0.6)"
    stroke-width="1"
    transform="translate(-5.4515941250,-108.2460013661)"
    />
  
  <line
    x1="7.126714344066517"
    y1="134.51000048462024"
    x2="0.9823707384682995"
    y2="137.29594510082316"
    stroke="hsla(0,50%,50%,0.6)"
    stroke-width="1"
    transform="translate(-5.4515941250,-108.2460013661)"
    />
  
  <line
    x1="-11.294613947678055"
    y1="127.22784359963227"
    x2="4.682271285342306"
    y2="132.08263075089508"
    stroke="hsla(0,50%,50%,0.6)"
    stroke-width="1"
    transform="translate(-5.4515941250,-108.2460013661)"
    />
  
  <line
    x1="22.197802197802197"
    y1="122.41758241758242"
    x2="-10.979890966298973"
    y2="129.07624383412758"
    stroke="hsla(0,50%,50%,0.6)"
    stroke-width="1"
    transform="translate(-5.4515941250,-108.2460013661)"
    />
  
  <line
    x1="-0.48437631292340005"
    y1="126.95206984046855"
    x2="-5.0356472795497185"
    y2="127.60225140712946"
    stroke="hsla(0,50%,50%,0.6)"
    stroke-width="1"
    transform="translate(-5.4515941250,-108.2460013661)"
    />
  
  <line
    x1="-2.621379215668329"
    y1="129.11865647737153"
    x2="-9.96169229562689"
    y2="129.77588484764394"
    stroke="hsla(0,50%,50%,0.6)"
    stroke-width="1"
    transform="translate(-5.4515941250,-108.2460013661)"
    />
  
</svg>
