<?xml version="1.0"?>
<!DOCTYPE svg PUBLIC "-//W3C//DTD SVG 1.1//EN"
  "http://www.w3.org/Graphics/SVG/1.1/DTD/svg11.dtd">
<svg
  width="240"
  height="240"
  viewBox="-500 -500 1000 1000" xmlns="http://www.w3.org/2000/svg" version="1.1">
  <rect
    x="0"
    y="0"
    width="100"
    height="100"
    fill="hsla(206,100%,53%,0.3)"
    stroke="hsl(206,100%,53%)"
    stroke-width="3"
    transform="" />
  
  <path
    d="M 
      45.6942003514
      20.2987697715
      L
    
      35.5448154657
      43.1458699472
      L
    
      58.3919156414
      53.2952548330
      L
    
      71.0896309314
      86.2917398945
      L
    
      48.2425307557
      76.1423550087
      L
    
      38.0931458699
      98.9894551845
      L
    
      5.0966608084
      111.6871704745
      L
    
      15.2460456942
      88.8400702987
      L
    
      -7.6010544815
      78.6906854130
      L
    
      -20.2987697715
      45.6942003514
      L
    
      2.5483304042
      55.8435852372
      L
    
      12.6977152899
      32.9964850615
      z
    "
    fill="hsla(0,0%,50%,0.3)"
    stroke="hsla(0,0%,50%,1)"
    stroke-width="1"
    transform="translate(-25.3954305799,-65.9929701230)"
    />
  
  
  <line
    x1="58.391915641476274"
    y1="53.295254833040424"
    x2="71.0896309314587"
    y2="86.29173989455184"
    stroke="hsla(0,50%,50%,0.6)"
    stroke-width="1"
    transform="translate(-25.3954305799,-65.9929701230)"
    />
  
  <line
    x1="12.697715289982426"
    y1="32.99648506151142"
    x2="38.09314586994728"
    y2="98.98945518453426"
    stroke="hsla(0,50%,50%,0.6)"
    stroke-width="1"
    transform="translate(-25.3954305799,-65.9929701230)"
    />
  
  <line
    x1="12.697715289982426"
    y1="32.99648506151142"
    x2="-7.601054481546573"
    y2="78.69068541300527"
    stroke="hsla(0,50%,50%,0.6)"
    stroke-width="1"
    transform="translate(-25.3954305799,-65.9929701230)"
    />
  
  <line
    x1="-20.298769771529"
    y1="45.69420035149385"
    x2="-7.601054481546573"
    y2="78.69068541300527"
    stroke="hsla(0,50%,50%,0.6)"
    stroke-width="1"
    transform="translate(-25.3954305799,-65.9929701230)"
    />
  
  <line
    x1="45.69420035149385"
    y1="20.298769771529"
    x2="5.0966608084358525"
    y2="111.68717047451669"
    stroke="hsla(0,50%,50%,0.6)"
    stroke-width="1"
    transform="translate(-25.3954305799,-65.9929701230)"
    />
  
  <line
    x1="12.697715289982426"
    y1="32.99648506151142"
    x2="58.391915641476274"
    y2="53.295254833040424"
    stroke="hsla(0,50%,50%,0.6)"
    stroke-width="1"
    transform="translate(-25.3954305799,-65.9929701230)"
    />
  
  <line
    x1="58.391915641476274"
    y1="53.295254833040424"
    x2="38.09314586994728"
    y2="98.98945518453426"
    stroke="hsla(0,50%,50%,0.6)"
    stroke-width="1"
    transform="translate(-25.3954305799,-65.9929701230)"
    />
  
  <line
    x1="45.69420035149385"
    y1="20.298769771529"
    x2="12.697715289982426"
    y2="32.99648506151142"
    stroke="hsla(0,50%,50%,0.6)"
    stroke-width="1"
    transform="translate(-25.3954305799,-65.9929701230)"
    />
  
  <line
    x1="-20.298769771529"
    y1="45.69420035149385"
    x2="71.0896309314587"
    y2="86.29173989455184"
    stroke="hsla(0,50%,50%,0.6)"
    stroke-width="1"
    transform="translate(-25.3954305799,-65.9929701230)"
    />
  
  <line
    x1="58.391915641476274"
    y1="53.295254833040424"
    x2="-7.601054481546573"
    y2="78.69068541300527"
    stroke="hsla(0,50%,50%,0.6)"
    stroke-width="1"
    transform="translate(-25.3954305799,-65.9929701230)"
    />
  
  <line
    x1="-7.601054481546573"
    y1="78.69068541300527"
    x2="38.09314586994728"
    y2="98.98945518453426"
    stroke="hsla(0,50%,50%,0.6)"
    stroke-width="1"
    transform="translate(-25.3954305799,-65.9929701230)"
    />
  
  <line
    x1="38.09314586994728"
    y1="98.98945518453426"
    x2="5.0966608084358525"
    y2="111.68717047451669"
    stroke="hsla(0,50%,50%,0.6)"
    stroke-width="1"
    transform="translate(-25.3954305799,-65.9929701230)"
    />
  
</svg>
