<?xml version="1.0"?>
<!DOCTYPE svg PUBLIC "-//W3C//DTD SVG 1.1//EN"
  "http://www.w3.org/Graphics/SVG/1.1/DTD/svg11.dtd">
<svg
  width="240"
  height="240"
  viewBox="-500 -500 1000 1000" xmlns="http://www.w3.org/2000/svg" version="1.1">
  <rect
    x="0"
    y="0"
    width="100"
    height="100"
    fill="hsla(206,100%,53%,0.3)"
    stroke="hsl(206,100%,53%)"
    stroke-width="3"
    transform="" />
  
  <path
    d="M 
      39.7959814430
      34.7154971078
      L
    
      55.4580835150
      36.7172908010
      L
    
      65.9029649595
      51.4824797843
      L
    
      75.6348910521
      103.3860856113
      L
    
      68.9270713689
      104.7032554107
      L
    
      67.4093333630
      116.0687795106
      L
    
      68.6843346747
      119.7213890555
      L
    
      66.8353816404
      120.3667954464
      L
    
      51.7547684116
      108.0752659759
      L
    
      51.8653678003
      107.6328684211
      L
    
      27.0547310948
      112.0656618072
      L
    
      17.8178480987
      79.1042545048
      L
    
      23.2797935237
      65.1997765050
      L
    
      22.0949278964
      50.4896586438
      z
    "
    fill="hsla(0,0%,50%,0.3)"
    stroke="hsla(0,0%,50%,1)"
    stroke-width="1"
    transform="translate(-46.7263695754,-77.5411462771)"
    />
  
  
  <line
    x1="55.458083515063265"
    y1="36.717290801008616"
    x2="65.90296495956873"
    y2="51.482479784366575"
    stroke="hsla(0,50%,50%,0.6)"
    stroke-width="1"
    transform="translate(-46.7263695754,-77.5411462771)"
    />
  
  <line
    x1="52.88364264884918"
    y1="48.65952912179005"
    x2="71.81997410039831"
    y2="83.03986186879104"
    stroke="hsla(0,50%,50%,0.6)"
    stroke-width="1"
    transform="translate(-46.7263695754,-77.5411462771)"
    />
  
  <line
    x1="65.90296495956873"
    y1="51.482479784366575"
    x2="75.63489105213253"
    y2="103.38608561137352"
    stroke="hsla(0,50%,50%,0.6)"
    stroke-width="1"
    transform="translate(-46.7263695754,-77.5411462771)"
    />
  
  <line
    x1="57.12325248647133"
    y1="86.60132967675622"
    x2="68.68433467473459"
    y2="119.72138905554667"
    stroke="hsla(0,50%,50%,0.6)"
    stroke-width="1"
    transform="translate(-46.7263695754,-77.5411462771)"
    />
  
  <line
    x1="39.79598144306377"
    y1="34.71549710789618"
    x2="50"
    y2="50"
    stroke="hsla(0,50%,50%,0.6)"
    stroke-width="1"
    transform="translate(-46.7263695754,-77.5411462771)"
    />
  
  <line
    x1="22.094927896404133"
    y1="50.48965864385107"
    x2="27.054731094829545"
    y2="112.06566180722486"
    stroke="hsla(0,50%,50%,0.6)"
    stroke-width="1"
    transform="translate(-46.7263695754,-77.5411462771)"
    />
  
  <line
    x1="17.817848098782033"
    y1="79.10425450487817"
    x2="27.054731094829545"
    y2="112.06566180722486"
    stroke="hsla(0,50%,50%,0.6)"
    stroke-width="1"
    transform="translate(-46.7263695754,-77.5411462771)"
    />
  
  <line
    x1="71.81997410039831"
    y1="83.03986186879104"
    x2="66.83538164049392"
    y2="120.36679544647795"
    stroke="hsla(0,50%,50%,0.6)"
    stroke-width="1"
    transform="translate(-46.7263695754,-77.5411462771)"
    />
  
  <line
    x1="55.458083515063265"
    y1="36.717290801008616"
    x2="52.88364264884918"
    y2="48.65952912179005"
    stroke="hsla(0,50%,50%,0.6)"
    stroke-width="1"
    transform="translate(-46.7263695754,-77.5411462771)"
    />
  
  <line
    x1="26.383326697972578"
    y1="57.299110096696296"
    x2="17.817848098782033"
    y2="79.10425450487817"
    stroke="hsla(0,50%,50%,0.6)"
    stroke-width="1"
    transform="translate(-46.7263695754,-77.5411462771)"
    />
  
  <line
    x1="65.90296495956873"
    y1="51.482479784366575"
    x2="51.75476841166608"
    y2="108.0752659759772"
    stroke="hsla(0,50%,50%,0.6)"
    stroke-width="1"
    transform="translate(-46.7263695754,-77.5411462771)"
    />
  
  <line
    x1="22.094927896404133"
    y1="50.48965864385107"
    x2="70.94043568257301"
    y2="81.60215600043426"
    stroke="hsla(0,50%,50%,0.6)"
    stroke-width="1"
    transform="translate(-46.7263695754,-77.5411462771)"
    />
  
  <line
    x1="39.79598144306377"
    y1="34.71549710789618"
    x2="55.458083515063265"
    y2="36.717290801008616"
    stroke="hsla(0,50%,50%,0.6)"
    stroke-width="1"
    transform="translate(-46.7263695754,-77.5411462771)"
    />
  
  <line
    x1="39.79598144306377"
    y1="34.71549710789618"
    x2="22.094927896404133"
    y2="50.48965864385107"
    stroke="hsla(0,50%,50%,0.6)"
    stroke-width="1"
    transform="translate(-46.7263695754,-77.5411462771)"
    />
  
  <line
    x1="51.75476841166608"
    y1="108.0752659759772"
    x2="66.83538164049392"
    y2="120.36679544647795"
    stroke="hsla(0,50%,50%,0.6)"
    stroke-width="1"
    transform="translate(-46.7263695754,-77.5411462771)"
    />
  
  <line
    x1="26.383326697972578"
    y1="57.299110096696296"
    x2="70.22249544731757"
    y2="74.51997571902707"
    stroke="hsla(0,50%,50%,0.6)"
    stroke-width="1"
    transform="translate(-46.7263695754,-77.5411462771)"
    />
  
  <line
    x1="17.817848098782033"
    y1="79.10425450487817"
    x2="54.68033511807387"
    y2="107.12993217424491"
    stroke="hsla(0,50%,50%,0.6)"
    stroke-width="1"
    transform="translate(-46.7263695754,-77.5411462771)"
    />
  
  <line
    x1="70.94043568257301"
    y1="81.60215600043426"
    x2="54.68033511807387"
    y2="107.12993217424491"
    stroke="hsla(0,50%,50%,0.6)"
    stroke-width="1"
    transform="translate(-46.7263695754,-77.5411462771)"
    />
  
  <line
    x1="60.089402881048876"
    y1="43.26425890633217"
    x2="52.88364264884918"
    y2="48.65952912179005"
    stroke="hsla(0,50%,50%,0.6)"
    stroke-width="1"
    transform="translate(-46.7263695754,-77.5411462771)"
    />
  
  <line
    x1="60.089402881048876"
    y1="43.26425890633217"
    x2="50"
    y2="50"
    stroke="hsla(0,50%,50%,0.6)"
    stroke-width="1"
    transform="translate(-46.7263695754,-77.5411462771)"
    />
  
  <line
    x1="70.22249544731757"
    y1="74.51997571902707"
    x2="57.12325248647133"
    y2="86.60132967675622"
    stroke="hsla(0,50%,50%,0.6)"
    stroke-width="1"
    transform="translate(-46.7263695754,-77.5411462771)"
    />
  
  <line
    x1="75.63489105213253"
    y1="103.38608561137352"
    x2="27.054731094829545"
    y2="112.06566180722486"
    stroke="hsla(0,50%,50%,0.6)"
    stroke-width="1"
    transform="translate(-46.7263695754,-77.5411462771)"
    />
  
  <line
    x1="75.63489105213253"
    y1="103.38608561137352"
    x2="51.75476841166608"
    y2="108.0752659759772"
    stroke="hsla(0,50%,50%,0.6)"
    stroke-width="1"
    transform="translate(-46.7263695754,-77.5411462771)"
    />
  
  <line
    x1="68.68433467473459"
    y1="119.72138905554667"
    x2="66.83538164049392"
    y2="120.36679544647795"
    stroke="hsla(0,50%,50%,0.6)"
    stroke-width="1"
    transform="translate(-46.7263695754,-77.5411462771)"
    />
  
</svg>
