<?xml version="1.0"?>
<!DOCTYPE svg PUBLIC "-//W3C//DTD SVG 1.1//EN"
  "http://www.w3.org/Graphics/SVG/1.1/DTD/svg11.dtd">
<svg
  width="240"
  height="240"
  viewBox="-500 -500 1000 1000" xmlns="http://www.w3.org/2000/svg" version="1.1">
  <rect
    x="0"
    y="0"
    width="100"
    height="100"
    fill="hsla(206,100%,53%,0.3)"
    stroke="hsl(206,100%,53%)"
    stroke-width="3"
    transform="" />
  
  <path
    d="M 
      271828182845904523536028727135225
      27257.8182799999
      L
    
      271828182845904523536028727135275
      27257.8182799999
      L
    
      271828182845904523536028727135300
      27282.8182799999
      L
    
      271828182845904523536028727135250
      27282.8182799999
      L
    
      271828182845904523536028727135250
      27332.8182799999
      L
    
      271828182845904523536028727135225
      27307.8182799999
      L
    
      271828182845904523536028727135225
      27282.8182799999
      L
    
      271828182845904523536028727135200
      27282.8182799999
      z
    "
    fill="hsla(0,0%,50%,0.3)"
    stroke="hsla(0,0%,50%,1)"
    stroke-width="1"
    transform="translate(-271828182845904523536028727135250,-27295.3182799999)"
    />
  
  
  <line
    x1="2.718281828459045e+32"
    y1="27257.81828"
    x2="2.718281828459045e+32"
    y2="27282.81828"
    stroke="hsla(0,50%,50%,0.6)"
    stroke-width="1"
    transform="translate(-271828182845904523536028727135250,-27295.3182799999)"
    />
  
  <line
    x1="2.718281828459045e+32"
    y1="27257.81828"
    x2="2.718281828459045e+32"
    y2="27282.81828"
    stroke="hsla(0,50%,50%,0.6)"
    stroke-width="1"
    transform="translate(-271828182845904523536028727135250,-27295.3182799999)"
    />
  
  <line
    x1="2.718281828459045e+32"
    y1="27307.81828"
    x2="2.718281828459045e+32"
    y2="27332.81828"
    stroke="hsla(0,50%,50%,0.6)"
    stroke-width="1"
    transform="translate(-271828182845904523536028727135250,-27295.3182799999)"
    />
  
  <line
    x1="2.718281828459045e+32"
    y1="27257.81828"
    x2="2.718281828459045e+32"
    y2="27307.81828"
    stroke="hsla(0,50%,50%,0.6)"
    stroke-width="1"
    transform="translate(-271828182845904523536028727135250,-27295.3182799999)"
    />
  
  <line
    x1="2.718281828459045e+32"
    y1="27282.81828"
    x2="2.718281828459045e+32"
    y2="27332.81828"
    stroke="hsla(0,50%,50%,0.6)"
    stroke-width="1"
    transform="translate(-271828182845904523536028727135250,-27295.3182799999)"
    />
  
  <line
    x1="2.718281828459045e+32"
    y1="27257.81828"
    x2="2.718281828459045e+32"
    y2="27257.81828"
    stroke="hsla(0,50%,50%,0.6)"
    stroke-width="1"
    transform="translate(-271828182845904523536028727135250,-27295.3182799999)"
    />
  
  <line
    x1="2.718281828459045e+32"
    y1="27282.81828"
    x2="2.718281828459045e+32"
    y2="27282.81828"
    stroke="hsla(0,50%,50%,0.6)"
    stroke-width="1"
    transform="translate(-271828182845904523536028727135250,-27295.3182799999)"
    />
  
  <line
    x1="2.718281828459045e+32"
    y1="27257.81828"
    x2="2.718281828459045e+32"
    y2="27282.81828"
    stroke="hsla(0,50%,50%,0.6)"
    stroke-width="1"
    transform="translate(-271828182845904523536028727135250,-27295.3182799999)"
    />
  
  <line
    x1="2.718281828459045e+32"
    y1="27257.81828"
    x2="2.718281828459045e+32"
    y2="27307.81828"
    stroke="hsla(0,50%,50%,0.6)"
    stroke-width="1"
    transform="translate(-271828182845904523536028727135250,-27295.3182799999)"
    />
  
</svg>
