<?xml version="1.0"?>
<!DOCTYPE svg PUBLIC "-//W3C//DTD SVG 1.1//EN"
  "http://www.w3.org/Graphics/SVG/1.1/DTD/svg11.dtd">
<svg
  width="240"
  height="240"
  viewBox="-50 -50 200 200" xmlns="http://www.w3.org/2000/svg" version="1.1">
  <rect
    x="0"
    y="0"
    width="100"
    height="100"
    fill="hsla(206,100%,53%,0.3)"
    stroke="hsl(206,100%,53%)"
    stroke-width="3"
    transform="" />
  
  <path
    d="M 
      49.3468795355
      8.0551523947
      L
    
      45.3193033381
      32.7285921625
      L
    
      69.9927431059
      36.7561683599
      L
    
      90.6386066763
      65.4571843251
      L
    
      65.9651669085
      61.4296081277
      L
    
      61.9375907111
      86.1030478955
      L
    
      33.2365747460
      106.7489114658
      L
    
      37.2641509433
      82.0754716981
      L
    
      12.5907111756
      78.0478955007
      L
    
      -8.0551523947
      49.3468795355
      L
    
      16.6182873730
      53.3744557329
      L
    
      20.6458635703
      28.7010159651
      z
    "
    fill="hsla(0,0%,50%,0.3)"
    stroke="hsla(0,0%,50%,1)"
    stroke-width="1"
    transform="translate(-16.9745236245,-44.0695797237) scale(1,-1) translate(50,-110)"
    />
  
  
  <line
    x1="69.99274310595065"
    y1="36.756168359941945"
    x2="90.63860667634252"
    y2="65.45718432510886"
    stroke="hsla(0,50%,50%,0.6)"
    stroke-width="1"
    transform="translate(-16.9745236245,-44.0695797237) scale(1,-1) translate(50,-110)"
    />
  
  <line
    x1="20.64586357039187"
    y1="28.70101596516691"
    x2="61.937590711175616"
    y2="86.10304789550072"
    stroke="hsla(0,50%,50%,0.6)"
    stroke-width="1"
    transform="translate(-16.9745236245,-44.0695797237) scale(1,-1) translate(50,-110)"
    />
  
  <line
    x1="20.64586357039187"
    y1="28.70101596516691"
    x2="12.590711175616836"
    y2="78.04789550072569"
    stroke="hsla(0,50%,50%,0.6)"
    stroke-width="1"
    transform="translate(-16.9745236245,-44.0695797237) scale(1,-1) translate(50,-110)"
    />
  
  <line
    x1="49.346879535558784"
    y1="8.055152394775035"
    x2="33.236574746008706"
    y2="106.7489114658926"
    stroke="hsla(0,50%,50%,0.6)"
    stroke-width="1"
    transform="translate(-16.9745236245,-44.0695797237) scale(1,-1) translate(50,-110)"
    />
  
  <line
    x1="69.99274310595065"
    y1="36.756168359941945"
    x2="61.937590711175616"
    y2="86.10304789550072"
    stroke="hsla(0,50%,50%,0.6)"
    stroke-width="1"
    transform="translate(-16.9745236245,-44.0695797237) scale(1,-1) translate(50,-110)"
    />
  
  <line
    x1="-8.055152394775035"
    y1="49.346879535558784"
    x2="12.590711175616836"
    y2="78.04789550072569"
    stroke="hsla(0,50%,50%,0.6)"
    stroke-width="1"
    transform="translate(-16.9745236245,-44.0695797237) scale(1,-1) translate(50,-110)"
    />
  
  <line
    x1="20.64586357039187"
    y1="28.70101596516691"
    x2="69.99274310595065"
    y2="36.756168359941945"
    stroke="hsla(0,50%,50%,0.6)"
    stroke-width="1"
    transform="translate(-16.9745236245,-44.0695797237) scale(1,-1) translate(50,-110)"
    />
  
  <line
    x1="49.346879535558784"
    y1="8.055152394775035"
    x2="20.64586357039187"
    y2="28.70101596516691"
    stroke="hsla(0,50%,50%,0.6)"
    stroke-width="1"
    transform="translate(-16.9745236245,-44.0695797237) scale(1,-1) translate(50,-110)"
    />
  
  <line
    x1="-8.055152394775035"
    y1="49.346879535558784"
    x2="90.63860667634252"
    y2="65.45718432510886"
    stroke="hsla(0,50%,50%,0.6)"
    stroke-width="1"
    transform="translate(-16.9745236245,-44.0695797237) scale(1,-1) translate(50,-110)"
    />
  
  <line
    x1="69.99274310595065"
    y1="36.756168359941945"
    x2="12.590711175616836"
    y2="78.04789550072569"
    stroke="hsla(0,50%,50%,0.6)"
    stroke-width="1"
    transform="translate(-16.9745236245,-44.0695797237) scale(1,-1) translate(50,-110)"
    />
  
  <line
    x1="12.590711175616836"
    y1="78.04789550072569"
    x2="61.937590711175616"
    y2="86.10304789550072"
    stroke="hsla(0,50%,50%,0.6)"
    stroke-width="1"
    transform="translate(-16.9745236245,-44.0695797237) scale(1,-1) translate(50,-110)"
    />
  
  <line
    x1="61.937590711175616"
    y1="86.10304789550072"
    x2="33.236574746008706"
    y2="106.7489114658926"
    stroke="hsla(0,50%,50%,0.6)"
    stroke-width="1"
    transform="translate(-16.9745236245,-44.0695797237) scale(1,-1) translate(50,-110)"
    />
  
</svg>
