<?xml version="1.0"?>
<!DOCTYPE svg PUBLIC "-//W3C//DTD SVG 1.1//EN"
  "http://www.w3.org/Graphics/SVG/1.1/DTD/svg11.dtd">
<svg
  width="240"
  height="240"
  viewBox="-50 -50 200 200" xmlns="http://www.w3.org/2000/svg" version="1.1">
  <rect
    x="0"
    y="0"
    width="100"
    height="100"
    fill="hsla(206,100%,53%,0.3)"
    stroke="hsl(206,100%,53%)"
    stroke-width="3"
    transform="" />
  
  <path
    d="M 
      100
      30.7692307692
      L
    
      126.7351062087
      46.0001092120
      L
    
      122.7766711369
      52.9484400296
      L
    
      184.6153846153
      88.8888888888
      L
    
      184.6153846153
      100
      L
    
      165.1117993975
      100
      L
    
      107.3806333457
      132.8892043903
      L
    
      92.3076923076
      106.4313292884
      L
    
      92.3076923076
      35.2399737015
      z
    "
    fill="hsla(0,0%,50%,0.3)"
    stroke="hsla(0,0%,50%,1)"
    stroke-width="1"
    transform="translate(-103.4715587670,-72.3163985325) scale(1,-1) translate(50,-110)"
    />
  
  
  <line
    x1="100"
    y1="30.76923076923077"
    x2="126.7351062087042"
    y2="46.00010921203516"
    stroke="hsla(0,50%,50%,0.6)"
    stroke-width="1"
    transform="translate(-103.4715587670,-72.3163985325) scale(1,-1) translate(50,-110)"
    />
  
  <line
    x1="92.3076923076923"
    y1="35.23997370151216"
    x2="184.6153846153846"
    y2="88.88888888888889"
    stroke="hsla(0,50%,50%,0.6)"
    stroke-width="1"
    transform="translate(-103.4715587670,-72.3163985325) scale(1,-1) translate(50,-110)"
    />
  
  <line
    x1="92.3076923076923"
    y1="106.43132928847214"
    x2="107.3806333457947"
    y2="132.8892043903238"
    stroke="hsla(0,50%,50%,0.6)"
    stroke-width="1"
    transform="translate(-103.4715587670,-72.3163985325) scale(1,-1) translate(50,-110)"
    />
  
  <line
    x1="92.3076923076923"
    y1="35.23997370151216"
    x2="92.3076923076923"
    y2="106.43132928847214"
    stroke="hsla(0,50%,50%,0.6)"
    stroke-width="1"
    transform="translate(-103.4715587670,-72.3163985325) scale(1,-1) translate(50,-110)"
    />
  
  <line
    x1="100"
    y1="30.76923076923077"
    x2="100"
    y2="100"
    stroke="hsla(0,50%,50%,0.6)"
    stroke-width="1"
    transform="translate(-103.4715587670,-72.3163985325) scale(1,-1) translate(50,-110)"
    />
  
  <line
    x1="184.6153846153846"
    y1="88.88888888888889"
    x2="184.6153846153846"
    y2="100"
    stroke="hsla(0,50%,50%,0.6)"
    stroke-width="1"
    transform="translate(-103.4715587670,-72.3163985325) scale(1,-1) translate(50,-110)"
    />
  
  <line
    x1="126.7351062087042"
    y1="46.00010921203516"
    x2="92.3076923076923"
    y2="106.43132928847214"
    stroke="hsla(0,50%,50%,0.6)"
    stroke-width="1"
    transform="translate(-103.4715587670,-72.3163985325) scale(1,-1) translate(50,-110)"
    />
  
  <line
    x1="100"
    y1="30.76923076923077"
    x2="92.3076923076923"
    y2="35.23997370151216"
    stroke="hsla(0,50%,50%,0.6)"
    stroke-width="1"
    transform="translate(-103.4715587670,-72.3163985325) scale(1,-1) translate(50,-110)"
    />
  
  <line
    x1="92.3076923076923"
    y1="100"
    x2="184.6153846153846"
    y2="100"
    stroke="hsla(0,50%,50%,0.6)"
    stroke-width="1"
    transform="translate(-103.4715587670,-72.3163985325) scale(1,-1) translate(50,-110)"
    />
  
  <line
    x1="184.6153846153846"
    y1="88.88888888888889"
    x2="107.3806333457947"
    y2="132.8892043903238"
    stroke="hsla(0,50%,50%,0.6)"
    stroke-width="1"
    transform="translate(-103.4715587670,-72.3163985325) scale(1,-1) translate(50,-110)"
    />
  
</svg>
