<?xml version="1.0"?>
<!DOCTYPE svg PUBLIC "-//W3C//DTD SVG 1.1//EN"
  "http://www.w3.org/Graphics/SVG/1.1/DTD/svg11.dtd">
<svg
  width="240"
  height="240"
  viewBox="-500 -500 1000 1000" xmlns="http://www.w3.org/2000/svg" version="1.1">
  <rect
    x="0"
    y="0"
    width="100"
    height="100"
    fill="hsla(206,100%,53%,0.3)"
    stroke="hsl(206,100%,53%)"
    stroke-width="3"
    transform="" />
  
  <path
    d="M 
      8.3333333333
      10
      L
    
      50
      10
      L
    
      50
      30
      L
    
      8.3333333333
      30
      z
    "
    fill="hsla(0,0%,50%,0.3)"
    stroke="hsla(0,0%,50%,1)"
    stroke-width="1"
    transform="translate(-29.1666666666,-20)"
    />
  
  
  <line
    x1="8.333333333333334"
    y1="10"
    x2="8.333333333333334"
    y2="30"
    stroke="hsla(0,50%,50%,0.6)"
    stroke-width="1"
    transform="translate(-29.1666666666,-20)"
    />
  
  <line
    x1="16.666666666666668"
    y1="10"
    x2="16.666666666666668"
    y2="30"
    stroke="hsla(0,50%,50%,0.6)"
    stroke-width="1"
    transform="translate(-29.1666666666,-20)"
    />
  
  <line
    x1="25"
    y1="10"
    x2="25"
    y2="30"
    stroke="hsla(0,50%,50%,0.6)"
    stroke-width="1"
    transform="translate(-29.1666666666,-20)"
    />
  
  <line
    x1="28.571428571428573"
    y1="10"
    x2="28.571428571428573"
    y2="30"
    stroke="hsla(0,50%,50%,0.6)"
    stroke-width="1"
    transform="translate(-29.1666666666,-20)"
    />
  
  <line
    x1="35.714285714285715"
    y1="10"
    x2="35.714285714285715"
    y2="30"
    stroke="hsla(0,50%,50%,0.6)"
    stroke-width="1"
    transform="translate(-29.1666666666,-20)"
    />
  
  <line
    x1="50"
    y1="10"
    x2="50"
    y2="30"
    stroke="hsla(0,50%,50%,0.6)"
    stroke-width="1"
    transform="translate(-29.1666666666,-20)"
    />
  
  <line
    x1="8.333333333333334"
    y1="10"
    x2="50"
    y2="10"
    stroke="hsla(0,50%,50%,0.6)"
    stroke-width="1"
    transform="translate(-29.1666666666,-20)"
    />
  
  <line
    x1="8.333333333333334"
    y1="13.333333333333334"
    x2="50"
    y2="13.333333333333334"
    stroke="hsla(0,50%,50%,0.6)"
    stroke-width="1"
    transform="translate(-29.1666666666,-20)"
    />
  
  <line
    x1="8.333333333333334"
    y1="20"
    x2="50"
    y2="20"
    stroke="hsla(0,50%,50%,0.6)"
    stroke-width="1"
    transform="translate(-29.1666666666,-20)"
    />
  
  <line
    x1="8.333333333333334"
    y1="25"
    x2="50"
    y2="25"
    stroke="hsla(0,50%,50%,0.6)"
    stroke-width="1"
    transform="translate(-29.1666666666,-20)"
    />
  
  <line
    x1="8.333333333333334"
    y1="26.666666666666668"
    x2="50"
    y2="26.666666666666668"
    stroke="hsla(0,50%,50%,0.6)"
    stroke-width="1"
    transform="translate(-29.1666666666,-20)"
    />
  
  <line
    x1="8.333333333333334"
    y1="30"
    x2="50"
    y2="30"
    stroke="hsla(0,50%,50%,0.6)"
    stroke-width="1"
    transform="translate(-29.1666666666,-20)"
    />
  
</svg>
