<?xml version="1.0"?>
<!DOCTYPE svg PUBLIC "-//W3C//DTD SVG 1.1//EN"
  "http://www.w3.org/Graphics/SVG/1.1/DTD/svg11.dtd">
<svg
  width="240"
  height="240"
  viewBox="-50 -50 200 200" xmlns="http://www.w3.org/2000/svg" version="1.1">
  <rect
    x="0"
    y="0"
    width="100"
    height="100"
    fill="hsla(206,100%,53%,0.3)"
    stroke="hsl(206,100%,53%)"
    stroke-width="3"
    transform="" />
  
  <path
    d="M 
      49.9342969776
      2.5624178712
      L
    
      48.6530880420
      27.5295663600
      L
    
      73.6202365308
      28.8107752956
      L
    
      97.3061760840
      55.0591327201
      L
    
      72.3390275952
      53.7779237844
      L
    
      71.0578186596
      78.7450722733
      L
    
      44.8094612352
      102.4310118265
      L
    
      46.0906701708
      77.4638633377
      L
    
      21.1235216819
      76.1826544021
      L
    
      -2.5624178712
      49.9342969776
      L
    
      22.4047306176
      51.2155059132
      L
    
      23.6859395532
      26.2483574244
      z
    "
    fill="hsla(0,0%,50%,0.3)"
    stroke="hsla(0,0%,50%,1)"
    stroke-width="1"
    transform="translate(-21.7323493706,-41.9281206369) scale(1,-1) translate(50,-110)"
    />
  
  
  <line
    x1="73.62023653088042"
    y1="28.8107752956636"
    x2="97.30617608409987"
    y2="55.059132720105126"
    stroke="hsla(0,50%,50%,0.6)"
    stroke-width="1"
    transform="translate(-21.7323493706,-41.9281206369) scale(1,-1) translate(50,-110)"
    />
  
  <line
    x1="23.68593955321945"
    y1="26.248357424441526"
    x2="71.05781865965834"
    y2="78.74507227332457"
    stroke="hsla(0,50%,50%,0.6)"
    stroke-width="1"
    transform="translate(-21.7323493706,-41.9281206369) scale(1,-1) translate(50,-110)"
    />
  
  <line
    x1="23.68593955321945"
    y1="26.248357424441526"
    x2="21.12352168199737"
    y2="76.1826544021025"
    stroke="hsla(0,50%,50%,0.6)"
    stroke-width="1"
    transform="translate(-21.7323493706,-41.9281206369) scale(1,-1) translate(50,-110)"
    />
  
  <line
    x1="49.93429697766097"
    y1="2.562417871222076"
    x2="44.80946123521682"
    y2="102.43101182654402"
    stroke="hsla(0,50%,50%,0.6)"
    stroke-width="1"
    transform="translate(-21.7323493706,-41.9281206369) scale(1,-1) translate(50,-110)"
    />
  
  <line
    x1="73.62023653088042"
    y1="28.8107752956636"
    x2="71.05781865965834"
    y2="78.74507227332457"
    stroke="hsla(0,50%,50%,0.6)"
    stroke-width="1"
    transform="translate(-21.7323493706,-41.9281206369) scale(1,-1) translate(50,-110)"
    />
  
  <line
    x1="-2.562417871222076"
    y1="49.93429697766097"
    x2="21.12352168199737"
    y2="76.1826544021025"
    stroke="hsla(0,50%,50%,0.6)"
    stroke-width="1"
    transform="translate(-21.7323493706,-41.9281206369) scale(1,-1) translate(50,-110)"
    />
  
  <line
    x1="23.68593955321945"
    y1="26.248357424441526"
    x2="73.62023653088042"
    y2="28.8107752956636"
    stroke="hsla(0,50%,50%,0.6)"
    stroke-width="1"
    transform="translate(-21.7323493706,-41.9281206369) scale(1,-1) translate(50,-110)"
    />
  
  <line
    x1="49.93429697766097"
    y1="2.562417871222076"
    x2="23.68593955321945"
    y2="26.248357424441526"
    stroke="hsla(0,50%,50%,0.6)"
    stroke-width="1"
    transform="translate(-21.7323493706,-41.9281206369) scale(1,-1) translate(50,-110)"
    />
  
  <line
    x1="-2.562417871222076"
    y1="49.93429697766097"
    x2="97.30617608409987"
    y2="55.059132720105126"
    stroke="hsla(0,50%,50%,0.6)"
    stroke-width="1"
    transform="translate(-21.7323493706,-41.9281206369) scale(1,-1) translate(50,-110)"
    />
  
  <line
    x1="73.62023653088042"
    y1="28.8107752956636"
    x2="21.12352168199737"
    y2="76.1826544021025"
    stroke="hsla(0,50%,50%,0.6)"
    stroke-width="1"
    transform="translate(-21.7323493706,-41.9281206369) scale(1,-1) translate(50,-110)"
    />
  
  <line
    x1="21.12352168199737"
    y1="76.1826544021025"
    x2="71.05781865965834"
    y2="78.74507227332457"
    stroke="hsla(0,50%,50%,0.6)"
    stroke-width="1"
    transform="translate(-21.7323493706,-41.9281206369) scale(1,-1) translate(50,-110)"
    />
  
  <line
    x1="71.05781865965834"
    y1="78.74507227332457"
    x2="44.80946123521682"
    y2="102.43101182654402"
    stroke="hsla(0,50%,50%,0.6)"
    stroke-width="1"
    transform="translate(-21.7323493706,-41.9281206369) scale(1,-1) translate(50,-110)"
    />
  
</svg>
