<?xml version="1.0"?>
<!DOCTYPE svg PUBLIC "-//W3C//DTD SVG 1.1//EN"
  "http://www.w3.org/Graphics/SVG/1.1/DTD/svg11.dtd">
<svg
  width="240"
  height="240"
  viewBox="-500 -500 1000 1000" xmlns="http://www.w3.org/2000/svg" version="1.1">
  <rect
    x="0"
    y="0"
    width="100"
    height="100"
    fill="hsla(206,100%,53%,0.3)"
    stroke="hsl(206,100%,53%)"
    stroke-width="3"
    transform="" />
  
  <path
    d="M 
      68
      -104
      L
    
      72
      -101
      L
    
      62.9144746378
      -53.3009918486
      L
    
      88.6573763576
      -46.5077265232
      L
    
      95.1381494437
      -27.5868496882
      L
    
      54.9126635085
      3.1037071864
      L
    
      52.6095238095
      0.8
      L
    
      33.5792637015
      -61.0422276049
      L
    
      49.5983854692
      -79.4645139589
      z
    "
    fill="hsla(0,0%,50%,0.3)"
    stroke="hsla(0,0%,50%,1)"
    stroke-width="1"
    transform="translate(-64.3587065726,50.4481464067)"
    />
  
  
  <line
    x1="68"
    y1="-104"
    x2="72"
    y2="-101"
    stroke="hsla(0,50%,50%,0.6)"
    stroke-width="1"
    transform="translate(-64.3587065726,50.4481464067)"
    />
  
  <line
    x1="72"
    y1="-101"
    x2="67.17724288840263"
    y2="-99.68052516411379"
    stroke="hsla(0,50%,50%,0.6)"
    stroke-width="1"
    transform="translate(-64.3587065726,50.4481464067)"
    />
  
  <line
    x1="33.57926370154144"
    y1="-61.04222760497284"
    x2="88.65737635766546"
    y2="-46.50772652325364"
    stroke="hsla(0,50%,50%,0.6)"
    stroke-width="1"
    transform="translate(-64.3587065726,50.4481464067)"
    />
  
  <line
    x1="34.220008862174716"
    y1="-58.96001181623296"
    x2="75.55864878781568"
    y2="-44.789332932641294"
    stroke="hsla(0,50%,50%,0.6)"
    stroke-width="1"
    transform="translate(-64.3587065726,50.4481464067)"
    />
  
  <line
    x1="78.60100487386954"
    y1="-38.83508730458213"
    x2="95.13814944377476"
    y2="-27.586849688223996"
    stroke="hsla(0,50%,50%,0.6)"
    stroke-width="1"
    transform="translate(-64.3587065726,50.4481464067)"
    />
  
  <line
    x1="88.65737635766546"
    y1="-46.50772652325364"
    x2="95.13814944377476"
    y2="-27.586849688223996"
    stroke="hsla(0,50%,50%,0.6)"
    stroke-width="1"
    transform="translate(-64.3587065726,50.4481464067)"
    />
  
  <line
    x1="52.60952380952381"
    y1="0.8"
    x2="54.912663508591066"
    y2="3.1037071864620325"
    stroke="hsla(0,50%,50%,0.6)"
    stroke-width="1"
    transform="translate(-64.3587065726,50.4481464067)"
    />
  
  <line
    x1="53.84615384615385"
    y1="-10.76923076923077"
    x2="54.768565248738284"
    y2="-10.53496755587599"
    stroke="hsla(0,50%,50%,0.6)"
    stroke-width="1"
    transform="translate(-64.3587065726,50.4481464067)"
    />
  
  <line
    x1="52.30815049351479"
    y1="-0.17936639315180136"
    x2="52.76190476190476"
    y2="0"
    stroke="hsla(0,50%,50%,0.6)"
    stroke-width="1"
    transform="translate(-64.3587065726,50.4481464067)"
    />
  
  <line
    x1="48.889132272081724"
    y1="-11.290076485165894"
    x2="54.768565248738284"
    y2="-10.53496755587599"
    stroke="hsla(0,50%,50%,0.6)"
    stroke-width="1"
    transform="translate(-64.3587065726,50.4481464067)"
    />
  
  <line
    x1="33.57926370154144"
    y1="-61.04222760497284"
    x2="52.60952380952381"
    y2="0.8"
    stroke="hsla(0,50%,50%,0.6)"
    stroke-width="1"
    transform="translate(-64.3587065726,50.4481464067)"
    />
  
  <line
    x1="67.17724288840263"
    y1="-99.68052516411379"
    x2="33.57926370154144"
    y2="-61.04222760497284"
    stroke="hsla(0,50%,50%,0.6)"
    stroke-width="1"
    transform="translate(-64.3587065726,50.4481464067)"
    />
  
  <line
    x1="68"
    y1="-104"
    x2="34.220008862174716"
    y2="-58.96001181623296"
    stroke="hsla(0,50%,50%,0.6)"
    stroke-width="1"
    transform="translate(-64.3587065726,50.4481464067)"
    />
  
  <line
    x1="52.363345612586386"
    y1="0"
    x2="52.76190476190476"
    y2="0"
    stroke="hsla(0,50%,50%,0.6)"
    stroke-width="1"
    transform="translate(-64.3587065726,50.4481464067)"
    />
  
  <line
    x1="67.17724288840263"
    y1="-99.68052516411379"
    x2="57.714285714285715"
    y2="-26"
    stroke="hsla(0,50%,50%,0.6)"
    stroke-width="1"
    transform="translate(-64.3587065726,50.4481464067)"
    />
  
  <line
    x1="72"
    y1="-101"
    x2="52.60952380952381"
    y2="0.8"
    stroke="hsla(0,50%,50%,0.6)"
    stroke-width="1"
    transform="translate(-64.3587065726,50.4481464067)"
    />
  
  <line
    x1="57.714285714285715"
    y1="-26"
    x2="53.84615384615385"
    y2="-10.76923076923077"
    stroke="hsla(0,50%,50%,0.6)"
    stroke-width="1"
    transform="translate(-64.3587065726,50.4481464067)"
    />
  
  <line
    x1="88.65737635766546"
    y1="-46.50772652325364"
    x2="48.889132272081724"
    y2="-11.290076485165894"
    stroke="hsla(0,50%,50%,0.6)"
    stroke-width="1"
    transform="translate(-64.3587065726,50.4481464067)"
    />
  
  <line
    x1="75.55864878781568"
    y1="-44.789332932641294"
    x2="62.58778005188529"
    y2="-6.950773707490242"
    stroke="hsla(0,50%,50%,0.6)"
    stroke-width="1"
    transform="translate(-64.3587065726,50.4481464067)"
    />
  
  <line
    x1="78.60100487386954"
    y1="-38.83508730458213"
    x2="52.30815049351479"
    y2="-0.17936639315180136"
    stroke="hsla(0,50%,50%,0.6)"
    stroke-width="1"
    transform="translate(-64.3587065726,50.4481464067)"
    />
  
  <line
    x1="62.58778005188529"
    y1="-6.950773707490242"
    x2="52.363345612586386"
    y2="0"
    stroke="hsla(0,50%,50%,0.6)"
    stroke-width="1"
    transform="translate(-64.3587065726,50.4481464067)"
    />
  
  <line
    x1="62.58778005188529"
    y1="-6.950773707490242"
    x2="54.912663508591066"
    y2="3.1037071864620325"
    stroke="hsla(0,50%,50%,0.6)"
    stroke-width="1"
    transform="translate(-64.3587065726,50.4481464067)"
    />
  
  <line
    x1="95.13814944377476"
    y1="-27.586849688223996"
    x2="54.912663508591066"
    y2="3.1037071864620325"
    stroke="hsla(0,50%,50%,0.6)"
    stroke-width="1"
    transform="translate(-64.3587065726,50.4481464067)"
    />
  
</svg>
