<?xml version="1.0"?>
<!DOCTYPE svg PUBLIC "-//W3C//DTD SVG 1.1//EN"
  "http://www.w3.org/Graphics/SVG/1.1/DTD/svg11.dtd">
<svg
  width="240"
  height="240"
  viewBox="-500 -500 1000 1000" xmlns="http://www.w3.org/2000/svg" version="1.1">
  <rect
    x="0"
    y="0"
    width="100"
    height="100"
    fill="hsla(206,100%,53%,0.3)"
    stroke="hsl(206,100%,53%)"
    stroke-width="3"
    transform="" />
  
  <path
    d="M 
      -17.7777777777
      0
      L
    
      11.1111111111
      0
      L
    
      11.1111111111
      33.3333333333
      L
    
      -17.7777777777
      33.3333333333
      z
    "
    fill="hsla(0,0%,50%,0.3)"
    stroke="hsla(0,0%,50%,1)"
    stroke-width="1"
    transform="translate(3.3333333333,-16.6666666666)"
    />
  
  
  <line
    x1="-17.77777777777778"
    y1="0"
    x2="-17.77777777777778"
    y2="33.333333333333336"
    stroke="hsla(0,50%,50%,0.6)"
    stroke-width="1"
    transform="translate(3.3333333333,-16.6666666666)"
    />
  
  <line
    x1="-11.623931623931623"
    y1="0"
    x2="-11.623931623931623"
    y2="33.333333333333336"
    stroke="hsla(0,50%,50%,0.6)"
    stroke-width="1"
    transform="translate(3.3333333333,-16.6666666666)"
    />
  
  <line
    x1="-17.77777777777778"
    y1="0"
    x2="11.11111111111111"
    y2="0"
    stroke="hsla(0,50%,50%,0.6)"
    stroke-width="1"
    transform="translate(3.3333333333,-16.6666666666)"
    />
  
  <line
    x1="0"
    y1="0"
    x2="0"
    y2="33.333333333333336"
    stroke="hsla(0,50%,50%,0.6)"
    stroke-width="1"
    transform="translate(3.3333333333,-16.6666666666)"
    />
  
  <line
    x1="7.6923076923076925"
    y1="0"
    x2="7.6923076923076925"
    y2="33.333333333333336"
    stroke="hsla(0,50%,50%,0.6)"
    stroke-width="1"
    transform="translate(3.3333333333,-16.6666666666)"
    />
  
  <line
    x1="11.11111111111111"
    y1="0"
    x2="11.11111111111111"
    y2="33.333333333333336"
    stroke="hsla(0,50%,50%,0.6)"
    stroke-width="1"
    transform="translate(3.3333333333,-16.6666666666)"
    />
  
  <line
    x1="-17.77777777777778"
    y1="1.6666666666666667"
    x2="11.11111111111111"
    y2="1.6666666666666667"
    stroke="hsla(0,50%,50%,0.6)"
    stroke-width="1"
    transform="translate(3.3333333333,-16.6666666666)"
    />
  
  <line
    x1="-17.77777777777778"
    y1="4.166666666666667"
    x2="11.11111111111111"
    y2="4.166666666666667"
    stroke="hsla(0,50%,50%,0.6)"
    stroke-width="1"
    transform="translate(3.3333333333,-16.6666666666)"
    />
  
  <line
    x1="-17.77777777777778"
    y1="11.666666666666666"
    x2="11.11111111111111"
    y2="11.666666666666666"
    stroke="hsla(0,50%,50%,0.6)"
    stroke-width="1"
    transform="translate(3.3333333333,-16.6666666666)"
    />
  
  <line
    x1="-17.77777777777778"
    y1="16.666666666666668"
    x2="11.11111111111111"
    y2="16.666666666666668"
    stroke="hsla(0,50%,50%,0.6)"
    stroke-width="1"
    transform="translate(3.3333333333,-16.6666666666)"
    />
  
  <line
    x1="-17.77777777777778"
    y1="33.333333333333336"
    x2="11.11111111111111"
    y2="33.333333333333336"
    stroke="hsla(0,50%,50%,0.6)"
    stroke-width="1"
    transform="translate(3.3333333333,-16.6666666666)"
    />
  
</svg>
