<?xml version="1.0"?>
<!DOCTYPE svg PUBLIC "-//W3C//DTD SVG 1.1//EN"
  "http://www.w3.org/Graphics/SVG/1.1/DTD/svg11.dtd">
<svg
  width="240"
  height="240"
  viewBox="-50 -50 200 200" xmlns="http://www.w3.org/2000/svg" version="1.1">
  <rect
    x="0"
    y="0"
    width="100"
    height="100"
    fill="hsla(206,100%,53%,0.3)"
    stroke="hsl(206,100%,53%)"
    stroke-width="3"
    transform="" />
  
  <path
    d="M 
      -7.6825831775
      34.1074332792
      L
    
      2.3165452353
      34.2394597208
      L
    
      100.8275862068
      87.5263114559
      L
    
      101.7591120183
      88.4004102662
      L
    
      100.1586221947
      95.2149852584
      L
    
      90.8870915930
      93.0374480834
      L
    
      84.5102945528
      97.2071418526
      L
    
      78.4766479780
      91.4700887403
      L
    
      52.5612611777
      108.9085197114
      L
    
      25.9441170964
      69.3525765459
      L
    
      -8.0390545700
      61.1050799941
      z
    "
    fill="hsla(0,0%,50%,0.3)"
    stroke="hsla(0,0%,50%,1)"
    stroke-width="1"
    transform="translate(-19.3741820209,-73.0394389676) scale(1,-1) translate(50,-110)"
    />
  
  
  <line
    x1="71.37283955604028"
    y1="71.59357232131624"
    x2="76.59476535001016"
    y2="89.68071303620818"
    stroke="hsla(0,50%,50%,0.6)"
    stroke-width="1"
    transform="translate(-19.3741820209,-73.0394389676) scale(1,-1) translate(50,-110)"
    />
  
  <line
    x1="94.94815742323755"
    y1="84.34599535335587"
    x2="98.88806917421799"
    y2="89.27053266405754"
    stroke="hsla(0,50%,50%,0.6)"
    stroke-width="1"
    transform="translate(-19.3741820209,-73.0394389676) scale(1,-1) translate(50,-110)"
    />
  
  <line
    x1="100.82758620689656"
    y1="87.52631145591383"
    x2="101.75911201836163"
    y2="88.40041026629297"
    stroke="hsla(0,50%,50%,0.6)"
    stroke-width="1"
    transform="translate(-19.3741820209,-73.0394389676) scale(1,-1) translate(50,-110)"
    />
  
  <line
    x1="-7.682583177564567"
    y1="34.1074332792298"
    x2="-8.039054570061385"
    y2="61.10507999419982"
    stroke="hsla(0,50%,50%,0.6)"
    stroke-width="1"
    transform="translate(-19.3741820209,-73.0394389676) scale(1,-1) translate(50,-110)"
    />
  
  <line
    x1="0"
    y1="45"
    x2="0"
    y2="50"
    stroke="hsla(0,50%,50%,0.6)"
    stroke-width="1"
    transform="translate(-19.3741820209,-73.0394389676) scale(1,-1) translate(50,-110)"
    />
  
  <line
    x1="100"
    y1="87.07865134523044"
    x2="100"
    y2="87.32546162192534"
    stroke="hsla(0,50%,50%,0.6)"
    stroke-width="1"
    transform="translate(-19.3741820209,-73.0394389676) scale(1,-1) translate(50,-110)"
    />
  
  <line
    x1="91.68609220348813"
    y1="82.58147044324939"
    x2="91.65021021641982"
    y2="85.29902150258145"
    stroke="hsla(0,50%,50%,0.6)"
    stroke-width="1"
    transform="translate(-19.3741820209,-73.0394389676) scale(1,-1) translate(50,-110)"
    />
  
  <line
    x1="3.888888888888889"
    y1="45.916666666666664"
    x2="9.891276304074522"
    y2="65.45665563600956"
    stroke="hsla(0,50%,50%,0.6)"
    stroke-width="1"
    transform="translate(-19.3741820209,-73.0394389676) scale(1,-1) translate(50,-110)"
    />
  
  <line
    x1="39.36200338761891"
    y1="54.27818651279589"
    x2="84.51029455282679"
    y2="97.20714185265268"
    stroke="hsla(0,50%,50%,0.6)"
    stroke-width="1"
    transform="translate(-19.3741820209,-73.0394389676) scale(1,-1) translate(50,-110)"
    />
  
  <line
    x1="0"
    y1="45"
    x2="-8.039054570061385"
    y2="61.10507999419982"
    stroke="hsla(0,50%,50%,0.6)"
    stroke-width="1"
    transform="translate(-19.3741820209,-73.0394389676) scale(1,-1) translate(50,-110)"
    />
  
  <line
    x1="2.3165452353872915"
    y1="34.23945972089529"
    x2="52.561261177736064"
    y2="108.90851971144748"
    stroke="hsla(0,50%,50%,0.6)"
    stroke-width="1"
    transform="translate(-19.3741820209,-73.0394389676) scale(1,-1) translate(50,-110)"
    />
  
  <line
    x1="26.615064533765306"
    y1="48.3545981304237"
    x2="55.397920218552805"
    y2="76.50082456902132"
    stroke="hsla(0,50%,50%,0.6)"
    stroke-width="1"
    transform="translate(-19.3741820209,-73.0394389676) scale(1,-1) translate(50,-110)"
    />
  
  <line
    x1="3.888888888888889"
    y1="45.916666666666664"
    x2="0"
    y2="50"
    stroke="hsla(0,50%,50%,0.6)"
    stroke-width="1"
    transform="translate(-19.3741820209,-73.0394389676) scale(1,-1) translate(50,-110)"
    />
  
  <line
    x1="2.3165452353872915"
    y1="34.23945972089529"
    x2="100.82758620689656"
    y2="87.52631145591383"
    stroke="hsla(0,50%,50%,0.6)"
    stroke-width="1"
    transform="translate(-19.3741820209,-73.0394389676) scale(1,-1) translate(50,-110)"
    />
  
  <line
    x1="101.75911201836163"
    y1="88.40041026629297"
    x2="100.15862219470412"
    y2="95.21498525849671"
    stroke="hsla(0,50%,50%,0.6)"
    stroke-width="1"
    transform="translate(-19.3741820209,-73.0394389676) scale(1,-1) translate(50,-110)"
    />
  
  <line
    x1="-7.682583177564567"
    y1="34.1074332792298"
    x2="2.3165452353872915"
    y2="34.23945972089529"
    stroke="hsla(0,50%,50%,0.6)"
    stroke-width="1"
    transform="translate(-19.3741820209,-73.0394389676) scale(1,-1) translate(50,-110)"
    />
  
  <line
    x1="26.615064533765306"
    y1="48.3545981304237"
    x2="9.891276304074522"
    y2="65.45665563600956"
    stroke="hsla(0,50%,50%,0.6)"
    stroke-width="1"
    transform="translate(-19.3741820209,-73.0394389676) scale(1,-1) translate(50,-110)"
    />
  
  <line
    x1="0"
    y1="45"
    x2="39.36200338761891"
    y2="54.27818651279589"
    stroke="hsla(0,50%,50%,0.6)"
    stroke-width="1"
    transform="translate(-19.3741820209,-73.0394389676) scale(1,-1) translate(50,-110)"
    />
  
  <line
    x1="0"
    y1="50"
    x2="82.99791033412714"
    y2="83.19916413365085"
    stroke="hsla(0,50%,50%,0.6)"
    stroke-width="1"
    transform="translate(-19.3741820209,-73.0394389676) scale(1,-1) translate(50,-110)"
    />
  
  <line
    x1="92.72594205687126"
    y1="83.14394876463808"
    x2="91.65021021641982"
    y2="85.29902150258145"
    stroke="hsla(0,50%,50%,0.6)"
    stroke-width="1"
    transform="translate(-19.3741820209,-73.0394389676) scale(1,-1) translate(50,-110)"
    />
  
  <line
    x1="100.09952881354765"
    y1="87.13248873318788"
    x2="100"
    y2="87.32546162192534"
    stroke="hsla(0,50%,50%,0.6)"
    stroke-width="1"
    transform="translate(-19.3741820209,-73.0394389676) scale(1,-1) translate(50,-110)"
    />
  
  <line
    x1="-8.039054570061385"
    y1="61.10507999419982"
    x2="100.82758620689656"
    y2="87.52631145591383"
    stroke="hsla(0,50%,50%,0.6)"
    stroke-width="1"
    transform="translate(-19.3741820209,-73.0394389676) scale(1,-1) translate(50,-110)"
    />
  
  <line
    x1="92.72594205687126"
    y1="83.14394876463808"
    x2="84.51029455282679"
    y2="97.20714185265268"
    stroke="hsla(0,50%,50%,0.6)"
    stroke-width="1"
    transform="translate(-19.3741820209,-73.0394389676) scale(1,-1) translate(50,-110)"
    />
  
  <line
    x1="100.09952881354765"
    y1="87.13248873318788"
    x2="98.88806917421799"
    y2="89.27053266405754"
    stroke="hsla(0,50%,50%,0.6)"
    stroke-width="1"
    transform="translate(-19.3741820209,-73.0394389676) scale(1,-1) translate(50,-110)"
    />
  
  <line
    x1="76.59476535001016"
    y1="89.68071303620818"
    x2="100.15862219470412"
    y2="95.21498525849671"
    stroke="hsla(0,50%,50%,0.6)"
    stroke-width="1"
    transform="translate(-19.3741820209,-73.0394389676) scale(1,-1) translate(50,-110)"
    />
  
  <line
    x1="82.99791033412714"
    y1="83.19916413365085"
    x2="94.94815742323755"
    y2="84.34599535335587"
    stroke="hsla(0,50%,50%,0.6)"
    stroke-width="1"
    transform="translate(-19.3741820209,-73.0394389676) scale(1,-1) translate(50,-110)"
    />
  
  <line
    x1="71.37283955604028"
    y1="71.59357232131624"
    x2="55.397920218552805"
    y2="76.50082456902132"
    stroke="hsla(0,50%,50%,0.6)"
    stroke-width="1"
    transform="translate(-19.3741820209,-73.0394389676) scale(1,-1) translate(50,-110)"
    />
  
  <line
    x1="91.68609220348813"
    y1="82.58147044324939"
    x2="52.561261177736064"
    y2="108.90851971144748"
    stroke="hsla(0,50%,50%,0.6)"
    stroke-width="1"
    transform="translate(-19.3741820209,-73.0394389676) scale(1,-1) translate(50,-110)"
    />
  
  <line
    x1="100"
    y1="87.07865134523044"
    x2="84.51029455282679"
    y2="97.20714185265268"
    stroke="hsla(0,50%,50%,0.6)"
    stroke-width="1"
    transform="translate(-19.3741820209,-73.0394389676) scale(1,-1) translate(50,-110)"
    />
  
  <line
    x1="101.75911201836163"
    y1="88.40041026629297"
    x2="98.88806917421799"
    y2="89.27053266405754"
    stroke="hsla(0,50%,50%,0.6)"
    stroke-width="1"
    transform="translate(-19.3741820209,-73.0394389676) scale(1,-1) translate(50,-110)"
    />
  
</svg>
