<?xml version="1.0"?>
<!DOCTYPE svg PUBLIC "-//W3C//DTD SVG 1.1//EN"
  "http://www.w3.org/Graphics/SVG/1.1/DTD/svg11.dtd">
<svg
  width="240"
  height="240"
  viewBox="-50 -50 200 200" xmlns="http://www.w3.org/2000/svg" version="1.1">
  <rect
    x="0"
    y="0"
    width="100"
    height="100"
    fill="hsla(206,100%,53%,0.3)"
    stroke="hsl(206,100%,53%)"
    stroke-width="3"
    transform="" />
  
  <path
    d="M 
      100
      38.4615384615
      L
    
      100.9854826093
      41.2598458109
      L
    
      184.6153846153
      55.5555555555
      L
    
      184.6153846153
      100
      L
    
      168.9633415722
      100
      L
    
      166.1612714774
      107.9565618567
      L
    
      143.5683760683
      100
      L
    
      92.3076923076
      100
      L
    
      92.3076923076
      39.7764628533
      z
    "
    fill="hsla(0,0%,50%,0.3)"
    stroke="hsla(0,0%,50%,1)"
    stroke-width="1"
    transform="translate(-107.9540227491,-69.5684559778) scale(1,-1) translate(50,-110)"
    />
  
  
  <line
    x1="100"
    y1="38.46153846153846"
    x2="112.77592448009085"
    y2="74.73915820853148"
    stroke="hsla(0,50%,50%,0.6)"
    stroke-width="1"
    transform="translate(-107.9540227491,-69.5684559778) scale(1,-1) translate(50,-110)"
    />
  
  <line
    x1="92.3076923076923"
    y1="39.77646285338593"
    x2="92.3076923076923"
    y2="100"
    stroke="hsla(0,50%,50%,0.6)"
    stroke-width="1"
    transform="translate(-107.9540227491,-69.5684559778) scale(1,-1) translate(50,-110)"
    />
  
  <line
    x1="100"
    y1="38.46153846153846"
    x2="100"
    y2="100"
    stroke="hsla(0,50%,50%,0.6)"
    stroke-width="1"
    transform="translate(-107.9540227491,-69.5684559778) scale(1,-1) translate(50,-110)"
    />
  
  <line
    x1="184.6153846153846"
    y1="55.55555555555556"
    x2="184.6153846153846"
    y2="100"
    stroke="hsla(0,50%,50%,0.6)"
    stroke-width="1"
    transform="translate(-107.9540227491,-69.5684559778) scale(1,-1) translate(50,-110)"
    />
  
  <line
    x1="92.3076923076923"
    y1="39.77646285338593"
    x2="184.6153846153846"
    y2="55.55555555555556"
    stroke="hsla(0,50%,50%,0.6)"
    stroke-width="1"
    transform="translate(-107.9540227491,-69.5684559778) scale(1,-1) translate(50,-110)"
    />
  
  <line
    x1="92.3076923076923"
    y1="81.94747535555723"
    x2="166.1612714774756"
    y2="107.95656185676769"
    stroke="hsla(0,50%,50%,0.6)"
    stroke-width="1"
    transform="translate(-107.9540227491,-69.5684559778) scale(1,-1) translate(50,-110)"
    />
  
  <line
    x1="100"
    y1="38.46153846153846"
    x2="92.3076923076923"
    y2="39.77646285338593"
    stroke="hsla(0,50%,50%,0.6)"
    stroke-width="1"
    transform="translate(-107.9540227491,-69.5684559778) scale(1,-1) translate(50,-110)"
    />
  
  <line
    x1="184.6153846153846"
    y1="55.55555555555556"
    x2="166.1612714774756"
    y2="107.95656185676769"
    stroke="hsla(0,50%,50%,0.6)"
    stroke-width="1"
    transform="translate(-107.9540227491,-69.5684559778) scale(1,-1) translate(50,-110)"
    />
  
  <line
    x1="92.3076923076923"
    y1="100"
    x2="184.6153846153846"
    y2="100"
    stroke="hsla(0,50%,50%,0.6)"
    stroke-width="1"
    transform="translate(-107.9540227491,-69.5684559778) scale(1,-1) translate(50,-110)"
    />
  
  <line
    x1="112.77592448009085"
    y1="74.73915820853148"
    x2="92.3076923076923"
    y2="81.94747535555723"
    stroke="hsla(0,50%,50%,0.6)"
    stroke-width="1"
    transform="translate(-107.9540227491,-69.5684559778) scale(1,-1) translate(50,-110)"
    />
  
</svg>
