<?xml version="1.0"?>
<!DOCTYPE svg PUBLIC "-//W3C//DTD SVG 1.1//EN"
  "http://www.w3.org/Graphics/SVG/1.1/DTD/svg11.dtd">
<svg
  width="240"
  height="240"
  viewBox="-500 -500 1000 1000" xmlns="http://www.w3.org/2000/svg" version="1.1">
  <rect
    x="0"
    y="0"
    width="100"
    height="100"
    fill="hsla(206,100%,53%,0.3)"
    stroke="hsl(206,100%,53%)"
    stroke-width="3"
    transform="" />
  
  <path
    d="M 
      -49.1011235955
      9.4382022471
      L
    
      -44.3820224719
      33.9887640449
      L
    
      -19.8314606741
      29.2696629213
      L
    
      9.4382022471
      49.1011235955
      L
    
      -15.1123595505
      53.8202247191
      L
    
      -10.3932584269
      78.3707865168
      L
    
      -30.2247191011
      107.6404494382
      L
    
      -34.9438202247
      83.0898876404
      L
    
      -59.4943820224
      87.8089887640
      L
    
      -88.7640449438
      67.9775280898
      L
    
      -64.2134831460
      63.2584269662
      L
    
      -68.9325842696
      38.7078651685
      z
    "
    fill="hsla(0,0%,50%,0.3)"
    stroke="hsla(0,0%,50%,1)"
    stroke-width="1"
    transform="translate(39.6629213483,-58.5393258426)"
    />
  
  
  <line
    x1="-49.10112359550562"
    y1="9.438202247191011"
    x2="-68.93258426966293"
    y2="38.70786516853933"
    stroke="hsla(0,50%,50%,0.6)"
    stroke-width="1"
    transform="translate(39.6629213483,-58.5393258426)"
    />
  
  <line
    x1="-19.831460674157302"
    y1="29.269662921348313"
    x2="-59.49438202247191"
    y2="87.80898876404494"
    stroke="hsla(0,50%,50%,0.6)"
    stroke-width="1"
    transform="translate(39.6629213483,-58.5393258426)"
    />
  
  <line
    x1="-19.831460674157302"
    y1="29.269662921348313"
    x2="-10.393258426966293"
    y2="78.37078651685393"
    stroke="hsla(0,50%,50%,0.6)"
    stroke-width="1"
    transform="translate(39.6629213483,-58.5393258426)"
    />
  
  <line
    x1="-49.10112359550562"
    y1="9.438202247191011"
    x2="-30.224719101123597"
    y2="107.64044943820225"
    stroke="hsla(0,50%,50%,0.6)"
    stroke-width="1"
    transform="translate(39.6629213483,-58.5393258426)"
    />
  
  <line
    x1="-68.93258426966293"
    y1="38.70786516853933"
    x2="-59.49438202247191"
    y2="87.80898876404494"
    stroke="hsla(0,50%,50%,0.6)"
    stroke-width="1"
    transform="translate(39.6629213483,-58.5393258426)"
    />
  
  <line
    x1="-10.393258426966293"
    y1="78.37078651685393"
    x2="-30.224719101123597"
    y2="107.64044943820225"
    stroke="hsla(0,50%,50%,0.6)"
    stroke-width="1"
    transform="translate(39.6629213483,-58.5393258426)"
    />
  
  <line
    x1="-19.831460674157302"
    y1="29.269662921348313"
    x2="-68.93258426966293"
    y2="38.70786516853933"
    stroke="hsla(0,50%,50%,0.6)"
    stroke-width="1"
    transform="translate(39.6629213483,-58.5393258426)"
    />
  
  <line
    x1="-19.831460674157302"
    y1="29.269662921348313"
    x2="9.438202247191011"
    y2="49.10112359550562"
    stroke="hsla(0,50%,50%,0.6)"
    stroke-width="1"
    transform="translate(39.6629213483,-58.5393258426)"
    />
  
  <line
    x1="9.438202247191011"
    y1="49.10112359550562"
    x2="-88.76404494382022"
    y2="67.97752808988764"
    stroke="hsla(0,50%,50%,0.6)"
    stroke-width="1"
    transform="translate(39.6629213483,-58.5393258426)"
    />
  
  <line
    x1="-68.93258426966293"
    y1="38.70786516853933"
    x2="-10.393258426966293"
    y2="78.37078651685393"
    stroke="hsla(0,50%,50%,0.6)"
    stroke-width="1"
    transform="translate(39.6629213483,-58.5393258426)"
    />
  
  <line
    x1="-10.393258426966293"
    y1="78.37078651685393"
    x2="-59.49438202247191"
    y2="87.80898876404494"
    stroke="hsla(0,50%,50%,0.6)"
    stroke-width="1"
    transform="translate(39.6629213483,-58.5393258426)"
    />
  
  <line
    x1="-88.76404494382022"
    y1="67.97752808988764"
    x2="-59.49438202247191"
    y2="87.80898876404494"
    stroke="hsla(0,50%,50%,0.6)"
    stroke-width="1"
    transform="translate(39.6629213483,-58.5393258426)"
    />
  
</svg>
