<?xml version="1.0"?>
<!DOCTYPE svg PUBLIC "-//W3C//DTD SVG 1.1//EN"
  "http://www.w3.org/Graphics/SVG/1.1/DTD/svg11.dtd">
<svg
  width="240"
  height="240"
  viewBox="-50 -50 200 200" xmlns="http://www.w3.org/2000/svg" version="1.1">
  <rect
    x="0"
    y="0"
    width="100"
    height="100"
    fill="hsla(206,100%,53%,0.3)"
    stroke="hsl(206,100%,53%)"
    stroke-width="3"
    transform="" />
  
  <path
    d="M 
      271828182845904523536028727135200
      27182.8182799999
      L
    
      271828182845904523536028727135233.3333333333
      27182.8182799999
      L
    
      271828182845904523536028727135300
      27216.1516133333
      L
    
      271828182845904523536028727135300
      27282.8182799999
      L
    
      271828182845904523536028727135266.6666666666
      27282.8182799999
      L
    
      271828182845904523536028727135200
      27249.4849466666
      z
    "
    fill="hsla(0,0%,50%,0.3)"
    stroke="hsla(0,0%,50%,1)"
    stroke-width="1"
    transform="translate(-271828182845904523536028727135236.4583333333,-27255.7349466666) scale(1,-1) translate(50,-110)"
    />
  
  
  <line
    x1="2.718281828459045e+32"
    y1="27182.81828"
    x2="2.718281828459045e+32"
    y2="27236.15161333333"
    stroke="hsla(0,50%,50%,0.6)"
    stroke-width="1"
    transform="translate(-271828182845904523536028727135236.4583333333,-27255.7349466666) scale(1,-1) translate(50,-110)"
    />
  
  <line
    x1="2.718281828459045e+32"
    y1="27229.484946666664"
    x2="2.718281828459045e+32"
    y2="27282.81828"
    stroke="hsla(0,50%,50%,0.6)"
    stroke-width="1"
    transform="translate(-271828182845904523536028727135236.4583333333,-27255.7349466666) scale(1,-1) translate(50,-110)"
    />
  
  <line
    x1="2.718281828459045e+32"
    y1="27182.81828"
    x2="2.718281828459045e+32"
    y2="27216.15161333333"
    stroke="hsla(0,50%,50%,0.6)"
    stroke-width="1"
    transform="translate(-271828182845904523536028727135236.4583333333,-27255.7349466666) scale(1,-1) translate(50,-110)"
    />
  
  <line
    x1="2.718281828459045e+32"
    y1="27249.484946666664"
    x2="2.718281828459045e+32"
    y2="27282.81828"
    stroke="hsla(0,50%,50%,0.6)"
    stroke-width="1"
    transform="translate(-271828182845904523536028727135236.4583333333,-27255.7349466666) scale(1,-1) translate(50,-110)"
    />
  
  <line
    x1="2.718281828459045e+32"
    y1="27182.81828"
    x2="2.718281828459045e+32"
    y2="27249.484946666664"
    stroke="hsla(0,50%,50%,0.6)"
    stroke-width="1"
    transform="translate(-271828182845904523536028727135236.4583333333,-27255.7349466666) scale(1,-1) translate(50,-110)"
    />
  
  <line
    x1="2.718281828459045e+32"
    y1="27216.15161333333"
    x2="2.718281828459045e+32"
    y2="27282.81828"
    stroke="hsla(0,50%,50%,0.6)"
    stroke-width="1"
    transform="translate(-271828182845904523536028727135236.4583333333,-27255.7349466666) scale(1,-1) translate(50,-110)"
    />
  
  <line
    x1="2.718281828459045e+32"
    y1="27182.81828"
    x2="2.718281828459045e+32"
    y2="27182.81828"
    stroke="hsla(0,50%,50%,0.6)"
    stroke-width="1"
    transform="translate(-271828182845904523536028727135236.4583333333,-27255.7349466666) scale(1,-1) translate(50,-110)"
    />
  
  <line
    x1="2.718281828459045e+32"
    y1="27282.81828"
    x2="2.718281828459045e+32"
    y2="27282.81828"
    stroke="hsla(0,50%,50%,0.6)"
    stroke-width="1"
    transform="translate(-271828182845904523536028727135236.4583333333,-27255.7349466666) scale(1,-1) translate(50,-110)"
    />
  
  <line
    x1="2.718281828459045e+32"
    y1="27229.484946666664"
    x2="2.718281828459045e+32"
    y2="27249.484946666664"
    stroke="hsla(0,50%,50%,0.6)"
    stroke-width="1"
    transform="translate(-271828182845904523536028727135236.4583333333,-27255.7349466666) scale(1,-1) translate(50,-110)"
    />
  
  <line
    x1="2.718281828459045e+32"
    y1="27216.15161333333"
    x2="2.718281828459045e+32"
    y2="27236.15161333333"
    stroke="hsla(0,50%,50%,0.6)"
    stroke-width="1"
    transform="translate(-271828182845904523536028727135236.4583333333,-27255.7349466666) scale(1,-1) translate(50,-110)"
    />
  
</svg>
