<?xml version="1.0"?>
<!DOCTYPE svg PUBLIC "-//W3C//DTD SVG 1.1//EN"
  "http://www.w3.org/Graphics/SVG/1.1/DTD/svg11.dtd">
<svg
  width="240"
  height="240"
  viewBox="-500 -500 1000 1000" xmlns="http://www.w3.org/2000/svg" version="1.1">
  <rect
    x="0"
    y="0"
    width="100"
    height="100"
    fill="hsla(206,100%,53%,0.3)"
    stroke="hsl(206,100%,53%)"
    stroke-width="3"
    transform="" />
  
  <path
    d="M 
      -46.4989059080
      18.3807439824
      L
    
      -37.3085339168
      41.6301969365
      L
    
      -14.0590809628
      32.4398249452
      L
    
      18.3807439824
      46.4989059080
      L
    
      -4.8687089715
      55.6892778993
      L
    
      4.3216630196
      78.9387308533
      L
    
      -9.7374179431
      111.3785557986
      L
    
      -18.9277899343
      88.1291028446
      L
    
      -42.1772428884
      97.3194748358
      L
    
      -74.6170678336
      83.2603938730
      L
    
      -51.3676148796
      74.0700218818
      L
    
      -60.5579868708
      50.8205689277
      z
    "
    fill="hsla(0,0%,50%,0.3)"
    stroke="hsla(0,0%,50%,1)"
    stroke-width="1"
    transform="translate(28.1181619256,-64.8796498905)"
    />
  
  
  <line
    x1="-46.49890590809628"
    y1="18.38074398249453"
    x2="-60.55798687089715"
    y2="50.820568927789935"
    stroke="hsla(0,50%,50%,0.6)"
    stroke-width="1"
    transform="translate(28.1181619256,-64.8796498905)"
    />
  
  <line
    x1="-14.059080962800875"
    y1="32.439824945295406"
    x2="-42.177242888402624"
    y2="97.31947483588621"
    stroke="hsla(0,50%,50%,0.6)"
    stroke-width="1"
    transform="translate(28.1181619256,-64.8796498905)"
    />
  
  <line
    x1="-14.059080962800875"
    y1="32.439824945295406"
    x2="4.321663019693654"
    y2="78.93873085339169"
    stroke="hsla(0,50%,50%,0.6)"
    stroke-width="1"
    transform="translate(28.1181619256,-64.8796498905)"
    />
  
  <line
    x1="4.321663019693654"
    y1="78.93873085339169"
    x2="-9.737417943107221"
    y2="111.37855579868709"
    stroke="hsla(0,50%,50%,0.6)"
    stroke-width="1"
    transform="translate(28.1181619256,-64.8796498905)"
    />
  
  <line
    x1="-46.49890590809628"
    y1="18.38074398249453"
    x2="-9.737417943107221"
    y2="111.37855579868709"
    stroke="hsla(0,50%,50%,0.6)"
    stroke-width="1"
    transform="translate(28.1181619256,-64.8796498905)"
    />
  
  <line
    x1="-14.059080962800875"
    y1="32.439824945295406"
    x2="-60.55798687089715"
    y2="50.820568927789935"
    stroke="hsla(0,50%,50%,0.6)"
    stroke-width="1"
    transform="translate(28.1181619256,-64.8796498905)"
    />
  
  <line
    x1="-60.55798687089715"
    y1="50.820568927789935"
    x2="-42.177242888402624"
    y2="97.31947483588621"
    stroke="hsla(0,50%,50%,0.6)"
    stroke-width="1"
    transform="translate(28.1181619256,-64.8796498905)"
    />
  
  <line
    x1="-14.059080962800875"
    y1="32.439824945295406"
    x2="18.38074398249453"
    y2="46.49890590809628"
    stroke="hsla(0,50%,50%,0.6)"
    stroke-width="1"
    transform="translate(28.1181619256,-64.8796498905)"
    />
  
  <line
    x1="18.38074398249453"
    y1="46.49890590809628"
    x2="-74.61706783369803"
    y2="83.26039387308533"
    stroke="hsla(0,50%,50%,0.6)"
    stroke-width="1"
    transform="translate(28.1181619256,-64.8796498905)"
    />
  
  <line
    x1="-60.55798687089715"
    y1="50.820568927789935"
    x2="4.321663019693654"
    y2="78.93873085339169"
    stroke="hsla(0,50%,50%,0.6)"
    stroke-width="1"
    transform="translate(28.1181619256,-64.8796498905)"
    />
  
  <line
    x1="4.321663019693654"
    y1="78.93873085339169"
    x2="-42.177242888402624"
    y2="97.31947483588621"
    stroke="hsla(0,50%,50%,0.6)"
    stroke-width="1"
    transform="translate(28.1181619256,-64.8796498905)"
    />
  
  <line
    x1="-74.61706783369803"
    y1="83.26039387308533"
    x2="-42.177242888402624"
    y2="97.31947483588621"
    stroke="hsla(0,50%,50%,0.6)"
    stroke-width="1"
    transform="translate(28.1181619256,-64.8796498905)"
    />
  
</svg>
