<?xml version="1.0"?>
<!DOCTYPE svg PUBLIC "-//W3C//DTD SVG 1.1//EN"
  "http://www.w3.org/Graphics/SVG/1.1/DTD/svg11.dtd">
<svg
  width="240"
  height="240"
  viewBox="-500 -500 1000 1000" xmlns="http://www.w3.org/2000/svg" version="1.1">
  <rect
    x="0"
    y="0"
    width="100"
    height="100"
    fill="hsla(206,100%,53%,0.3)"
    stroke="hsl(206,100%,53%)"
    stroke-width="3"
    transform="" />
  
  <path
    d="M 
      17.7670298380
      -12.3671470505
      L
    
      29.0203490906
      -8.2002770262
      L
    
      22.4297303527
      95.9945584727
      L
    
      -16.5324792327
      105.0469738531
      L
    
      -21.9042422057
      81.9265417914
      L
    
      6.9230769230
      -9
      z
    "
    fill="hsla(0,0%,50%,0.3)"
    stroke="hsla(0,0%,50%,1)"
    stroke-width="1"
    transform="translate(-3.5580534424,-46.3399134013)"
    />
  
  
  <line
    x1="17.767029838080298"
    y1="-12.367147050550363"
    x2="29.020349090655852"
    y2="-8.200277026226066"
    stroke="hsla(0,50%,50%,0.6)"
    stroke-width="1"
    transform="translate(-3.5580534424,-46.3399134013)"
    />
  
  <line
    x1="6.923076923076923"
    y1="-9"
    x2="13.846153846153847"
    y2="0"
    stroke="hsla(0,50%,50%,0.6)"
    stroke-width="1"
    transform="translate(-3.5580534424,-46.3399134013)"
    />
  
  <line
    x1="17.767029838080298"
    y1="-12.367147050550363"
    x2="6.923076923076923"
    y2="-9"
    stroke="hsla(0,50%,50%,0.6)"
    stroke-width="1"
    transform="translate(-3.5580534424,-46.3399134013)"
    />
  
  <line
    x1="4.892245620585309"
    y1="-2.5943933436072752"
    x2="12.32403284447894"
    y2="5.735528412108338"
    stroke="hsla(0,50%,50%,0.6)"
    stroke-width="1"
    transform="translate(-3.5580534424,-46.3399134013)"
    />
  
  <line
    x1="4.069720058870502"
    y1="0"
    x2="7.396034105262283"
    y2="2.344836075794992"
    stroke="hsla(0,50%,50%,0.6)"
    stroke-width="1"
    transform="translate(-3.5580534424,-46.3399134013)"
    />
  
  <line
    x1="29.020349090655852"
    y1="-8.200277026226066"
    x2="4.892245620585309"
    y2="-2.5943933436072752"
    stroke="hsla(0,50%,50%,0.6)"
    stroke-width="1"
    transform="translate(-3.5580534424,-46.3399134013)"
    />
  
  <line
    x1="4.069720058870502"
    y1="0"
    x2="13.846153846153847"
    y2="0"
    stroke="hsla(0,50%,50%,0.6)"
    stroke-width="1"
    transform="translate(-3.5580534424,-46.3399134013)"
    />
  
  <line
    x1="-9.04632720088937"
    y1="41.3703686414526"
    x2="-8.14906722144538"
    y2="51.83520343780908"
    stroke="hsla(0,50%,50%,0.6)"
    stroke-width="1"
    transform="translate(-3.5580534424,-46.3399134013)"
    />
  
  <line
    x1="6.923076923076923"
    y1="-9"
    x2="-21.904242205732604"
    y2="81.92654179148501"
    stroke="hsla(0,50%,50%,0.6)"
    stroke-width="1"
    transform="translate(-3.5580534424,-46.3399134013)"
    />
  
  <line
    x1="29.020349090655852"
    y1="-8.200277026226066"
    x2="22.429730352725578"
    y2="95.9945584727143"
    stroke="hsla(0,50%,50%,0.6)"
    stroke-width="1"
    transform="translate(-3.5580534424,-46.3399134013)"
    />
  
  <line
    x1="6.114175864314248"
    y1="16.408391296535843"
    x2="2.659657800030631"
    y2="32.123509036827194"
    stroke="hsla(0,50%,50%,0.6)"
    stroke-width="1"
    transform="translate(-3.5580534424,-46.3399134013)"
    />
  
  <line
    x1="1.053251509325247"
    y1="9.5144835496971"
    x2="6.114175864314248"
    y2="16.408391296535843"
    stroke="hsla(0,50%,50%,0.6)"
    stroke-width="1"
    transform="translate(-3.5580534424,-46.3399134013)"
    />
  
  <line
    x1="13.846153846153847"
    y1="0"
    x2="-4.534626520752701"
    y2="69.26091152747394"
    stroke="hsla(0,50%,50%,0.6)"
    stroke-width="1"
    transform="translate(-3.5580534424,-46.3399134013)"
    />
  
  <line
    x1="-9.816080234423397"
    y1="43.79830795346467"
    x2="-8.14906722144538"
    y2="51.83520343780908"
    stroke="hsla(0,50%,50%,0.6)"
    stroke-width="1"
    transform="translate(-3.5580534424,-46.3399134013)"
    />
  
  <line
    x1="17.767029838080298"
    y1="-12.367147050550363"
    x2="7.396034105262283"
    y2="2.344836075794992"
    stroke="hsla(0,50%,50%,0.6)"
    stroke-width="1"
    transform="translate(-3.5580534424,-46.3399134013)"
    />
  
  <line
    x1="-2.6713744558484147"
    y1="21.26262277023096"
    x2="-1.1038793678602705"
    y2="24.491193629138596"
    stroke="hsla(0,50%,50%,0.6)"
    stroke-width="1"
    transform="translate(-3.5580534424,-46.3399134013)"
    />
  
  <line
    x1="-8.14906722144538"
    y1="51.83520343780908"
    x2="-3.550185873605948"
    y2="65.55142503097893"
    stroke="hsla(0,50%,50%,0.6)"
    stroke-width="1"
    transform="translate(-3.5580534424,-46.3399134013)"
    />
  
  <line
    x1="-4.166350636310932"
    y1="25.978046134530224"
    x2="0.3983716798791531"
    y2="34.239621179679446"
    stroke="hsla(0,50%,50%,0.6)"
    stroke-width="1"
    transform="translate(-3.5580534424,-46.3399134013)"
    />
  
  <line
    x1="12.32403284447894"
    y1="5.735528412108338"
    x2="1.053251509325247"
    y2="9.5144835496971"
    stroke="hsla(0,50%,50%,0.6)"
    stroke-width="1"
    transform="translate(-3.5580534424,-46.3399134013)"
    />
  
  <line
    x1="-21.904242205732604"
    y1="81.92654179148501"
    x2="-16.53247923271275"
    y2="105.0469738531737"
    stroke="hsla(0,50%,50%,0.6)"
    stroke-width="1"
    transform="translate(-3.5580534424,-46.3399134013)"
    />
  
  <line
    x1="-1.8369229205902171"
    y1="32.80344703285257"
    x2="-9.04632720088937"
    y2="41.3703686414526"
    stroke="hsla(0,50%,50%,0.6)"
    stroke-width="1"
    transform="translate(-3.5580534424,-46.3399134013)"
    />
  
  <line
    x1="6.114175864314248"
    y1="16.408391296535843"
    x2="-2.6713744558484147"
    y2="21.26262277023096"
    stroke="hsla(0,50%,50%,0.6)"
    stroke-width="1"
    transform="translate(-3.5580534424,-46.3399134013)"
    />
  
  <line
    x1="-17.97690578327196"
    y1="74.68520443292329"
    x2="-15.262878385554966"
    y2="81.4110053515258"
    stroke="hsla(0,50%,50%,0.6)"
    stroke-width="1"
    transform="translate(-3.5580534424,-46.3399134013)"
    />
  
  <line
    x1="2.659657800030631"
    y1="32.123509036827194"
    x2="-9.816080234423397"
    y2="43.79830795346467"
    stroke="hsla(0,50%,50%,0.6)"
    stroke-width="1"
    transform="translate(-3.5580534424,-46.3399134013)"
    />
  
  <line
    x1="-1.1038793678602705"
    y1="24.491193629138596"
    x2="-4.166350636310932"
    y2="25.978046134530224"
    stroke="hsla(0,50%,50%,0.6)"
    stroke-width="1"
    transform="translate(-3.5580534424,-46.3399134013)"
    />
  
  <line
    x1="-1.8369229205902171"
    y1="32.80344703285257"
    x2="0.3983716798791531"
    y2="34.239621179679446"
    stroke="hsla(0,50%,50%,0.6)"
    stroke-width="1"
    transform="translate(-3.5580534424,-46.3399134013)"
    />
  
  <line
    x1="-4.534626520752701"
    y1="69.26091152747394"
    x2="-15.262878385554966"
    y2="81.4110053515258"
    stroke="hsla(0,50%,50%,0.6)"
    stroke-width="1"
    transform="translate(-3.5580534424,-46.3399134013)"
    />
  
  <line
    x1="2.659657800030631"
    y1="32.123509036827194"
    x2="-1.8369229205902171"
    y2="32.80344703285257"
    stroke="hsla(0,50%,50%,0.6)"
    stroke-width="1"
    transform="translate(-3.5580534424,-46.3399134013)"
    />
  
  <line
    x1="-3.550185873605948"
    y1="65.55142503097893"
    x2="-21.904242205732604"
    y2="81.92654179148501"
    stroke="hsla(0,50%,50%,0.6)"
    stroke-width="1"
    transform="translate(-3.5580534424,-46.3399134013)"
    />
  
  <line
    x1="-4.534626520752701"
    y1="69.26091152747394"
    x2="-17.97690578327196"
    y2="74.68520443292329"
    stroke="hsla(0,50%,50%,0.6)"
    stroke-width="1"
    transform="translate(-3.5580534424,-46.3399134013)"
    />
  
  <line
    x1="-21.238060177128162"
    y1="79.82528402991599"
    x2="22.429730352725578"
    y2="95.9945584727143"
    stroke="hsla(0,50%,50%,0.6)"
    stroke-width="1"
    transform="translate(-3.5580534424,-46.3399134013)"
    />
  
  <line
    x1="-21.238060177128162"
    y1="79.82528402991599"
    x2="-15.262878385554966"
    y2="81.4110053515258"
    stroke="hsla(0,50%,50%,0.6)"
    stroke-width="1"
    transform="translate(-3.5580534424,-46.3399134013)"
    />
  
  <line
    x1="22.429730352725578"
    y1="95.9945584727143"
    x2="-16.53247923271275"
    y2="105.0469738531737"
    stroke="hsla(0,50%,50%,0.6)"
    stroke-width="1"
    transform="translate(-3.5580534424,-46.3399134013)"
    />
  
</svg>
