<?xml version="1.0"?>
<!DOCTYPE svg PUBLIC "-//W3C//DTD SVG 1.1//EN"
  "http://www.w3.org/Graphics/SVG/1.1/DTD/svg11.dtd">
<svg
  width="240"
  height="240"
  viewBox="-500 -500 1000 1000" xmlns="http://www.w3.org/2000/svg" version="1.1">
  <rect
    x="0"
    y="0"
    width="100"
    height="100"
    fill="hsla(206,100%,53%,0.3)"
    stroke="hsl(206,100%,53%)"
    stroke-width="3"
    transform="" />
  
  <path
    d="M 
      271828182845904523536028727135200
      27193.9293911111
      L
    
      271828182845904523536028727135300
      27227.2627244444
      L
    
      271828182845904523536028727135300
      27282.8182799999
      L
    
      271828182845904523536028727135200
      27249.4849466666
      L
    
      271828182845904523536028727135200
      27207.8182799999
      L
    
      271828182845904523536028727135193.3333333333
      27202.8182799999
      z
    "
    fill="hsla(0,0%,50%,0.3)"
    stroke="hsla(0,0%,50%,1)"
    stroke-width="1"
    transform="translate(-271828182845904523536028727135246.6666666666,-27238.3738355555)"
    />
  
  
  <line
    x1="2.718281828459045e+32"
    y1="27202.81828"
    x2="2.718281828459045e+32"
    y2="27282.81828"
    stroke="hsla(0,50%,50%,0.6)"
    stroke-width="1"
    transform="translate(-271828182845904523536028727135246.6666666666,-27238.3738355555)"
    />
  
  <line
    x1="2.718281828459045e+32"
    y1="27193.92939111111"
    x2="2.718281828459045e+32"
    y2="27227.26272444444"
    stroke="hsla(0,50%,50%,0.6)"
    stroke-width="1"
    transform="translate(-271828182845904523536028727135246.6666666666,-27238.3738355555)"
    />
  
  <line
    x1="2.718281828459045e+32"
    y1="27249.484946666664"
    x2="2.718281828459045e+32"
    y2="27282.81828"
    stroke="hsla(0,50%,50%,0.6)"
    stroke-width="1"
    transform="translate(-271828182845904523536028727135246.6666666666,-27238.3738355555)"
    />
  
  <line
    x1="2.718281828459045e+32"
    y1="27193.92939111111"
    x2="2.718281828459045e+32"
    y2="27249.484946666664"
    stroke="hsla(0,50%,50%,0.6)"
    stroke-width="1"
    transform="translate(-271828182845904523536028727135246.6666666666,-27238.3738355555)"
    />
  
  <line
    x1="2.718281828459045e+32"
    y1="27227.26272444444"
    x2="2.718281828459045e+32"
    y2="27282.81828"
    stroke="hsla(0,50%,50%,0.6)"
    stroke-width="1"
    transform="translate(-271828182845904523536028727135246.6666666666,-27238.3738355555)"
    />
  
  <line
    x1="2.718281828459045e+32"
    y1="27193.92939111111"
    x2="2.718281828459045e+32"
    y2="27202.81828"
    stroke="hsla(0,50%,50%,0.6)"
    stroke-width="1"
    transform="translate(-271828182845904523536028727135246.6666666666,-27238.3738355555)"
    />
  
  <line
    x1="2.718281828459045e+32"
    y1="27222.81828"
    x2="2.718281828459045e+32"
    y2="27249.484946666664"
    stroke="hsla(0,50%,50%,0.6)"
    stroke-width="1"
    transform="translate(-271828182845904523536028727135246.6666666666,-27238.3738355555)"
    />
  
  <line
    x1="2.718281828459045e+32"
    y1="27227.26272444444"
    x2="2.718281828459045e+32"
    y2="27262.81828"
    stroke="hsla(0,50%,50%,0.6)"
    stroke-width="1"
    transform="translate(-271828182845904523536028727135246.6666666666,-27238.3738355555)"
    />
  
</svg>
