<?xml version="1.0"?>
<!DOCTYPE svg PUBLIC "-//W3C//DTD SVG 1.1//EN"
  "http://www.w3.org/Graphics/SVG/1.1/DTD/svg11.dtd">
<svg
  width="240"
  height="240"
  viewBox="-50 -50 200 200" xmlns="http://www.w3.org/2000/svg" version="1.1">
  <rect
    x="0"
    y="0"
    width="100"
    height="100"
    fill="hsla(206,100%,53%,0.3)"
    stroke="hsl(206,100%,53%)"
    stroke-width="3"
    transform="" />
  
  <path
    d="M 
      -37.3267326732
      33.2673267326
      L
    
      -20.6930693069
      51.9306930693
      L
    
      -2.0297029702
      35.2970297029
      L
    
      33.2673267326
      37.3267326732
      L
    
      14.6039603960
      53.9603960396
      L
    
      31.2376237623
      72.6237623762
      L
    
      29.2079207920
      107.9207920792
      L
    
      12.5742574257
      89.2574257425
      L
    
      -6.0891089108
      105.8910891089
      L
    
      -41.3861386138
      103.8613861386
      L
    
      -22.7227722772
      87.2277227722
      L
    
      -39.3564356435
      68.5643564356
      z
    "
    fill="hsla(0,0%,50%,0.3)"
    stroke="hsla(0,0%,50%,1)"
    stroke-width="1"
    transform="translate(29.7276744275,-81.0926622447) scale(1,-1) translate(50,-110)"
    />
  
  
  <line
    x1="-37.32673267326733"
    y1="33.26732673267327"
    x2="-39.35643564356435"
    y2="68.56435643564356"
    stroke="hsla(0,50%,50%,0.6)"
    stroke-width="1"
    transform="translate(29.7276744275,-81.0926622447) scale(1,-1) translate(50,-110)"
    />
  
  <line
    x1="-2.0297029702970297"
    y1="35.2970297029703"
    x2="-6.089108910891089"
    y2="105.89108910891089"
    stroke="hsla(0,50%,50%,0.6)"
    stroke-width="1"
    transform="translate(29.7276744275,-81.0926622447) scale(1,-1) translate(50,-110)"
    />
  
  <line
    x1="31.237623762376238"
    y1="72.62376237623762"
    x2="29.207920792079207"
    y2="107.92079207920793"
    stroke="hsla(0,50%,50%,0.6)"
    stroke-width="1"
    transform="translate(29.7276744275,-81.0926622447) scale(1,-1) translate(50,-110)"
    />
  
  <line
    x1="-2.0297029702970297"
    y1="35.2970297029703"
    x2="31.237623762376238"
    y2="72.62376237623762"
    stroke="hsla(0,50%,50%,0.6)"
    stroke-width="1"
    transform="translate(29.7276744275,-81.0926622447) scale(1,-1) translate(50,-110)"
    />
  
  <line
    x1="-2.0297029702970297"
    y1="35.2970297029703"
    x2="-39.35643564356435"
    y2="68.56435643564356"
    stroke="hsla(0,50%,50%,0.6)"
    stroke-width="1"
    transform="translate(29.7276744275,-81.0926622447) scale(1,-1) translate(50,-110)"
    />
  
  <line
    x1="-37.32673267326733"
    y1="33.26732673267327"
    x2="29.207920792079207"
    y2="107.92079207920793"
    stroke="hsla(0,50%,50%,0.6)"
    stroke-width="1"
    transform="translate(29.7276744275,-81.0926622447) scale(1,-1) translate(50,-110)"
    />
  
  <line
    x1="-2.0297029702970297"
    y1="35.2970297029703"
    x2="33.26732673267327"
    y2="37.32673267326733"
    stroke="hsla(0,50%,50%,0.6)"
    stroke-width="1"
    transform="translate(29.7276744275,-81.0926622447) scale(1,-1) translate(50,-110)"
    />
  
  <line
    x1="33.26732673267327"
    y1="37.32673267326733"
    x2="-41.386138613861384"
    y2="103.86138613861387"
    stroke="hsla(0,50%,50%,0.6)"
    stroke-width="1"
    transform="translate(29.7276744275,-81.0926622447) scale(1,-1) translate(50,-110)"
    />
  
  <line
    x1="-39.35643564356435"
    y1="68.56435643564356"
    x2="-6.089108910891089"
    y2="105.89108910891089"
    stroke="hsla(0,50%,50%,0.6)"
    stroke-width="1"
    transform="translate(29.7276744275,-81.0926622447) scale(1,-1) translate(50,-110)"
    />
  
  <line
    x1="31.237623762376238"
    y1="72.62376237623762"
    x2="-6.089108910891089"
    y2="105.89108910891089"
    stroke="hsla(0,50%,50%,0.6)"
    stroke-width="1"
    transform="translate(29.7276744275,-81.0926622447) scale(1,-1) translate(50,-110)"
    />
  
  <line
    x1="-39.35643564356435"
    y1="68.56435643564356"
    x2="31.237623762376238"
    y2="72.62376237623762"
    stroke="hsla(0,50%,50%,0.6)"
    stroke-width="1"
    transform="translate(29.7276744275,-81.0926622447) scale(1,-1) translate(50,-110)"
    />
  
  <line
    x1="-41.386138613861384"
    y1="103.86138613861387"
    x2="-6.089108910891089"
    y2="105.89108910891089"
    stroke="hsla(0,50%,50%,0.6)"
    stroke-width="1"
    transform="translate(29.7276744275,-81.0926622447) scale(1,-1) translate(50,-110)"
    />
  
</svg>
