<?xml version="1.0"?>
<!DOCTYPE svg PUBLIC "-//W3C//DTD SVG 1.1//EN"
  "http://www.w3.org/Graphics/SVG/1.1/DTD/svg11.dtd">
<svg
  width="240"
  height="240"
  viewBox="-50 -50 200 200" xmlns="http://www.w3.org/2000/svg" version="1.1">
  <rect
    x="0"
    y="0"
    width="100"
    height="100"
    fill="hsla(206,100%,53%,0.3)"
    stroke="hsl(206,100%,53%)"
    stroke-width="3"
    transform="" />
  
  <path
    d="M 
      38.8170055452
      31.5157116451
      L
    
      23.0591497227
      50.9242144177
      L
    
      42.4676524953
      66.6820702402
      L
    
      46.1182994454
      101.8484288354
      L
    
      26.7097966728
      86.0905730129
      L
    
      10.9519408502
      105.4990757855
      L
    
      -24.2144177449
      109.1497227356
      L
    
      -8.4565619223
      89.7412199630
      L
    
      -27.8650646950
      73.9833641404
      L
    
      -31.5157116451
      38.8170055452
      L
    
      -12.1072088724
      54.5748613678
      L
    
      3.6506469500
      35.1663585951
      z
    "
    fill="hsla(0,0%,50%,0.3)"
    stroke="hsla(0,0%,50%,1)"
    stroke-width="1"
    transform="translate(7.1734698114,-46.6776567554) scale(1,-1) translate(50,-110)"
    />
  
  
  <line
    x1="42.46765249537893"
    y1="66.68207024029574"
    x2="46.11829944547135"
    y2="101.84842883548983"
    stroke="hsla(0,50%,50%,0.6)"
    stroke-width="1"
    transform="translate(7.1734698114,-46.6776567554) scale(1,-1) translate(50,-110)"
    />
  
  <line
    x1="3.6506469500924212"
    y1="35.16635859519408"
    x2="10.951940850277264"
    y2="105.49907578558225"
    stroke="hsla(0,50%,50%,0.6)"
    stroke-width="1"
    transform="translate(7.1734698114,-46.6776567554) scale(1,-1) translate(50,-110)"
    />
  
  <line
    x1="-31.515711645101664"
    y1="38.817005545286506"
    x2="-27.86506469500924"
    y2="73.98336414048059"
    stroke="hsla(0,50%,50%,0.6)"
    stroke-width="1"
    transform="translate(7.1734698114,-46.6776567554) scale(1,-1) translate(50,-110)"
    />
  
  <line
    x1="3.6506469500924212"
    y1="35.16635859519408"
    x2="-27.86506469500924"
    y2="73.98336414048059"
    stroke="hsla(0,50%,50%,0.6)"
    stroke-width="1"
    transform="translate(7.1734698114,-46.6776567554) scale(1,-1) translate(50,-110)"
    />
  
  <line
    x1="3.6506469500924212"
    y1="35.16635859519408"
    x2="42.46765249537893"
    y2="66.68207024029574"
    stroke="hsla(0,50%,50%,0.6)"
    stroke-width="1"
    transform="translate(7.1734698114,-46.6776567554) scale(1,-1) translate(50,-110)"
    />
  
  <line
    x1="38.817005545286506"
    y1="31.515711645101664"
    x2="-24.21441774491682"
    y2="109.14972273567467"
    stroke="hsla(0,50%,50%,0.6)"
    stroke-width="1"
    transform="translate(7.1734698114,-46.6776567554) scale(1,-1) translate(50,-110)"
    />
  
  <line
    x1="38.817005545286506"
    y1="31.515711645101664"
    x2="3.6506469500924212"
    y2="35.16635859519408"
    stroke="hsla(0,50%,50%,0.6)"
    stroke-width="1"
    transform="translate(7.1734698114,-46.6776567554) scale(1,-1) translate(50,-110)"
    />
  
  <line
    x1="-31.515711645101664"
    y1="38.817005545286506"
    x2="46.11829944547135"
    y2="101.84842883548983"
    stroke="hsla(0,50%,50%,0.6)"
    stroke-width="1"
    transform="translate(7.1734698114,-46.6776567554) scale(1,-1) translate(50,-110)"
    />
  
  <line
    x1="42.46765249537893"
    y1="66.68207024029574"
    x2="10.951940850277264"
    y2="105.49907578558225"
    stroke="hsla(0,50%,50%,0.6)"
    stroke-width="1"
    transform="translate(7.1734698114,-46.6776567554) scale(1,-1) translate(50,-110)"
    />
  
  <line
    x1="-27.86506469500924"
    y1="73.98336414048059"
    x2="10.951940850277264"
    y2="105.49907578558225"
    stroke="hsla(0,50%,50%,0.6)"
    stroke-width="1"
    transform="translate(7.1734698114,-46.6776567554) scale(1,-1) translate(50,-110)"
    />
  
  <line
    x1="42.46765249537893"
    y1="66.68207024029574"
    x2="-27.86506469500924"
    y2="73.98336414048059"
    stroke="hsla(0,50%,50%,0.6)"
    stroke-width="1"
    transform="translate(7.1734698114,-46.6776567554) scale(1,-1) translate(50,-110)"
    />
  
  <line
    x1="10.951940850277264"
    y1="105.49907578558225"
    x2="-24.21441774491682"
    y2="109.14972273567467"
    stroke="hsla(0,50%,50%,0.6)"
    stroke-width="1"
    transform="translate(7.1734698114,-46.6776567554) scale(1,-1) translate(50,-110)"
    />
  
</svg>
