<?xml version="1.0"?>
<!DOCTYPE svg PUBLIC "-//W3C//DTD SVG 1.1//EN"
  "http://www.w3.org/Graphics/SVG/1.1/DTD/svg11.dtd">
<svg
  width="240"
  height="240"
  viewBox="-500 -500 1000 1000" xmlns="http://www.w3.org/2000/svg" version="1.1">
  <rect
    x="0"
    y="0"
    width="100"
    height="100"
    fill="hsla(206,100%,53%,0.3)"
    stroke="hsl(206,100%,53%)"
    stroke-width="3"
    transform="" />
  
  <path
    d="M 
      24.6392673019
      -10.7061797608
      L
    
      40.7401388083
      -0.2614825893
      L
    
      46.3932600177
      -6.0357080639
      L
    
      74.9756761166
      21.9472419226
      L
    
      56.1321448341
      45.4827752457
      L
    
      27.0090349747
      59.7277430071
      L
    
      29.5938671755
      69.9350430907
      L
    
      27.2295951859
      85.0401456792
      L
    
      18.5049913214
      87.2495092547
      L
    
      10.1279279279
      78.9232432432
      L
    
      20.1896637133
      -3.8469578554
      z
    "
    fill="hsla(0,0%,50%,0.3)"
    stroke="hsla(0,0%,50%,1)"
    stroke-width="1"
    transform="translate(-42.5518020222,-38.2716647469)"
    />
  
  
  <line
    x1="46.39326001770442"
    y1="-6.035708063915905"
    x2="74.9756761166163"
    y2="21.947241922614523"
    stroke="hsla(0,50%,50%,0.6)"
    stroke-width="1"
    transform="translate(-42.5518020222,-38.2716647469)"
    />
  
  <line
    x1="24.639267301919993"
    y1="-10.706179760874706"
    x2="74.9756761166163"
    y2="21.947241922614523"
    stroke="hsla(0,50%,50%,0.6)"
    stroke-width="1"
    transform="translate(-42.5518020222,-38.2716647469)"
    />
  
  <line
    x1="20.189663713360023"
    y1="-3.846957855491796"
    x2="24.2046396023198"
    y2="7.741300745650372"
    stroke="hsla(0,50%,50%,0.6)"
    stroke-width="1"
    transform="translate(-42.5518020222,-38.2716647469)"
    />
  
  <line
    x1="17.179802011615504"
    y1="20.912871228220936"
    x2="29.593867175579643"
    y2="69.93504309079037"
    stroke="hsla(0,50%,50%,0.6)"
    stroke-width="1"
    transform="translate(-42.5518020222,-38.2716647469)"
    />
  
  <line
    x1="16.778583306338636"
    y1="24.213390505264776"
    x2="22.19396975096415"
    y2="33.395595311330126"
    stroke="hsla(0,50%,50%,0.6)"
    stroke-width="1"
    transform="translate(-42.5518020222,-38.2716647469)"
    />
  
  <line
    x1="24.2046396023198"
    y1="7.741300745650372"
    x2="19.045045045045047"
    y2="73.57297297297298"
    stroke="hsla(0,50%,50%,0.6)"
    stroke-width="1"
    transform="translate(-42.5518020222,-38.2716647469)"
    />
  
  <line
    x1="14.532272787341915"
    y1="42.6920682754322"
    x2="29.104265006916037"
    y2="73.06306347829668"
    stroke="hsla(0,50%,50%,0.6)"
    stroke-width="1"
    transform="translate(-42.5518020222,-38.2716647469)"
    />
  
  <line
    x1="20.189663713360023"
    y1="-3.846957855491796"
    x2="10.127927927927928"
    y2="78.92324324324325"
    stroke="hsla(0,50%,50%,0.6)"
    stroke-width="1"
    transform="translate(-42.5518020222,-38.2716647469)"
    />
  
  <line
    x1="29.593867175579643"
    y1="69.93504309079037"
    x2="27.2295951859365"
    y2="85.04014567928637"
    stroke="hsla(0,50%,50%,0.6)"
    stroke-width="1"
    transform="translate(-42.5518020222,-38.2716647469)"
    />
  
  <line
    x1="24.639267301919993"
    y1="-10.706179760874706"
    x2="20.189663713360023"
    y2="-3.846957855491796"
    stroke="hsla(0,50%,50%,0.6)"
    stroke-width="1"
    transform="translate(-42.5518020222,-38.2716647469)"
    />
  
  <line
    x1="26.890437105342915"
    y1="53.26886330729085"
    x2="18.504991321494106"
    y2="87.24950925474353"
    stroke="hsla(0,50%,50%,0.6)"
    stroke-width="1"
    transform="translate(-42.5518020222,-38.2716647469)"
    />
  
  <line
    x1="24.2046396023198"
    y1="7.741300745650372"
    x2="17.179802011615504"
    y2="20.912871228220936"
    stroke="hsla(0,50%,50%,0.6)"
    stroke-width="1"
    transform="translate(-42.5518020222,-38.2716647469)"
    />
  
  <line
    x1="26.890437105342915"
    y1="53.26886330729085"
    x2="13.28888709137818"
    y2="82.06503477684795"
    stroke="hsla(0,50%,50%,0.6)"
    stroke-width="1"
    transform="translate(-42.5518020222,-38.2716647469)"
    />
  
  <line
    x1="46.39326001770442"
    y1="-6.035708063915905"
    x2="16.778583306338636"
    y2="24.213390505264776"
    stroke="hsla(0,50%,50%,0.6)"
    stroke-width="1"
    transform="translate(-42.5518020222,-38.2716647469)"
    />
  
  <line
    x1="22.19396975096415"
    y1="33.395595311330126"
    x2="14.532272787341915"
    y2="42.6920682754322"
    stroke="hsla(0,50%,50%,0.6)"
    stroke-width="1"
    transform="translate(-42.5518020222,-38.2716647469)"
    />
  
  <line
    x1="28.228101273627182"
    y1="73.98882456078965"
    x2="28.86501398299744"
    y2="74.59161487869567"
    stroke="hsla(0,50%,50%,0.6)"
    stroke-width="1"
    transform="translate(-42.5518020222,-38.2716647469)"
    />
  
  <line
    x1="29.593867175579643"
    y1="69.93504309079037"
    x2="22.14142678542577"
    y2="81.8604377794874"
    stroke="hsla(0,50%,50%,0.6)"
    stroke-width="1"
    transform="translate(-42.5518020222,-38.2716647469)"
    />
  
  <line
    x1="11.541693761063435"
    y1="67.29327354312737"
    x2="19.045045045045047"
    y2="73.57297297297298"
    stroke="hsla(0,50%,50%,0.6)"
    stroke-width="1"
    transform="translate(-42.5518020222,-38.2716647469)"
    />
  
  <line
    x1="10.127927927927928"
    y1="78.92324324324325"
    x2="18.504991321494106"
    y2="87.24950925474353"
    stroke="hsla(0,50%,50%,0.6)"
    stroke-width="1"
    transform="translate(-42.5518020222,-38.2716647469)"
    />
  
  <line
    x1="13.811803272539398"
    y1="48.61881967274606"
    x2="26.890437105342915"
    y2="53.26886330729085"
    stroke="hsla(0,50%,50%,0.6)"
    stroke-width="1"
    transform="translate(-42.5518020222,-38.2716647469)"
    />
  
  <line
    x1="14.12069528511011"
    y1="46.07780144850606"
    x2="21.057630509519225"
    y2="47.89423694904808"
    stroke="hsla(0,50%,50%,0.6)"
    stroke-width="1"
    transform="translate(-42.5518020222,-38.2716647469)"
    />
  
  <line
    x1="74.9756761166163"
    y1="21.947241922614523"
    x2="56.132144834136874"
    y2="45.48277524578822"
    stroke="hsla(0,50%,50%,0.6)"
    stroke-width="1"
    transform="translate(-42.5518020222,-38.2716647469)"
    />
  
  <line
    x1="56.132144834136874"
    y1="45.48277524578822"
    x2="14.12069528511011"
    y2="46.07780144850606"
    stroke="hsla(0,50%,50%,0.6)"
    stroke-width="1"
    transform="translate(-42.5518020222,-38.2716647469)"
    />
  
  <line
    x1="22.14142678542577"
    y1="81.8604377794874"
    x2="27.2295951859365"
    y2="85.04014567928637"
    stroke="hsla(0,50%,50%,0.6)"
    stroke-width="1"
    transform="translate(-42.5518020222,-38.2716647469)"
    />
  
  <line
    x1="29.104265006916037"
    y1="73.06306347829668"
    x2="28.228101273627182"
    y2="73.98882456078965"
    stroke="hsla(0,50%,50%,0.6)"
    stroke-width="1"
    transform="translate(-42.5518020222,-38.2716647469)"
    />
  
  <line
    x1="21.057630509519225"
    y1="47.89423694904808"
    x2="13.811803272539398"
    y2="48.61881967274606"
    stroke="hsla(0,50%,50%,0.6)"
    stroke-width="1"
    transform="translate(-42.5518020222,-38.2716647469)"
    />
  
  <line
    x1="56.132144834136874"
    y1="45.48277524578822"
    x2="11.541693761063435"
    y2="67.29327354312737"
    stroke="hsla(0,50%,50%,0.6)"
    stroke-width="1"
    transform="translate(-42.5518020222,-38.2716647469)"
    />
  
  <line
    x1="19.045045045045047"
    y1="73.57297297297298"
    x2="10.127927927927928"
    y2="78.92324324324325"
    stroke="hsla(0,50%,50%,0.6)"
    stroke-width="1"
    transform="translate(-42.5518020222,-38.2716647469)"
    />
  
  <line
    x1="28.86501398299744"
    y1="74.59161487869567"
    x2="13.28888709137818"
    y2="82.06503477684795"
    stroke="hsla(0,50%,50%,0.6)"
    stroke-width="1"
    transform="translate(-42.5518020222,-38.2716647469)"
    />
  
  <line
    x1="27.2295951859365"
    y1="85.04014567928637"
    x2="18.504991321494106"
    y2="87.24950925474353"
    stroke="hsla(0,50%,50%,0.6)"
    stroke-width="1"
    transform="translate(-42.5518020222,-38.2716647469)"
    />
  
</svg>
