<?xml version="1.0"?>
<!DOCTYPE svg PUBLIC "-//W3C//DTD SVG 1.1//EN"
  "http://www.w3.org/Graphics/SVG/1.1/DTD/svg11.dtd">
<svg
  width="240"
  height="240"
  viewBox="-500 -500 1000 1000" xmlns="http://www.w3.org/2000/svg" version="1.1">
  <rect
    x="0"
    y="0"
    width="100"
    height="100"
    fill="hsla(206,100%,53%,0.3)"
    stroke="hsl(206,100%,53%)"
    stroke-width="3"
    transform="" />
  
  <path
    d="M 
      48.2065997130
      13.2711621233
      L
    
      41.5710186513
      37.3744619799
      L
    
      65.6743185078
      44.0100430416
      L
    
      83.1420373027
      74.7489239598
      L
    
      59.0387374461
      68.1133428981
      L
    
      52.4031563845
      92.2166427546
      L
    
      21.6642754662
      109.6843615494
      L
    
      28.2998565279
      85.5810616929
      L
    
      4.1965566714
      78.9454806312
      L
    
      -13.2711621233
      48.2065997130
      L
    
      10.8321377331
      54.8421807747
      L
    
      17.4677187948
      30.7388809182
      z
    "
    fill="hsla(0,0%,50%,0.3)"
    stroke="hsla(0,0%,50%,1)"
    stroke-width="1"
    transform="translate(-34.9354375896,-61.4777618364)"
    />
  
  
  <line
    x1="65.67431850789096"
    y1="44.010043041606885"
    x2="83.14203730272597"
    y2="74.74892395982783"
    stroke="hsla(0,50%,50%,0.6)"
    stroke-width="1"
    transform="translate(-34.9354375896,-61.4777618364)"
    />
  
  <line
    x1="17.467718794835008"
    y1="30.738880918220946"
    x2="52.403156384505024"
    y2="92.21664275466284"
    stroke="hsla(0,50%,50%,0.6)"
    stroke-width="1"
    transform="translate(-34.9354375896,-61.4777618364)"
    />
  
  <line
    x1="17.467718794835008"
    y1="30.738880918220946"
    x2="4.196556671449067"
    y2="78.94548063127691"
    stroke="hsla(0,50%,50%,0.6)"
    stroke-width="1"
    transform="translate(-34.9354375896,-61.4777618364)"
    />
  
  <line
    x1="48.20659971305595"
    y1="13.27116212338594"
    x2="21.664275466284074"
    y2="109.68436154949785"
    stroke="hsla(0,50%,50%,0.6)"
    stroke-width="1"
    transform="translate(-34.9354375896,-61.4777618364)"
    />
  
  <line
    x1="-13.27116212338594"
    y1="48.20659971305595"
    x2="4.196556671449067"
    y2="78.94548063127691"
    stroke="hsla(0,50%,50%,0.6)"
    stroke-width="1"
    transform="translate(-34.9354375896,-61.4777618364)"
    />
  
  <line
    x1="65.67431850789096"
    y1="44.010043041606885"
    x2="52.403156384505024"
    y2="92.21664275466284"
    stroke="hsla(0,50%,50%,0.6)"
    stroke-width="1"
    transform="translate(-34.9354375896,-61.4777618364)"
    />
  
  <line
    x1="17.467718794835008"
    y1="30.738880918220946"
    x2="65.67431850789096"
    y2="44.010043041606885"
    stroke="hsla(0,50%,50%,0.6)"
    stroke-width="1"
    transform="translate(-34.9354375896,-61.4777618364)"
    />
  
  <line
    x1="48.20659971305595"
    y1="13.27116212338594"
    x2="17.467718794835008"
    y2="30.738880918220946"
    stroke="hsla(0,50%,50%,0.6)"
    stroke-width="1"
    transform="translate(-34.9354375896,-61.4777618364)"
    />
  
  <line
    x1="-13.27116212338594"
    y1="48.20659971305595"
    x2="83.14203730272597"
    y2="74.74892395982783"
    stroke="hsla(0,50%,50%,0.6)"
    stroke-width="1"
    transform="translate(-34.9354375896,-61.4777618364)"
    />
  
  <line
    x1="65.67431850789096"
    y1="44.010043041606885"
    x2="4.196556671449067"
    y2="78.94548063127691"
    stroke="hsla(0,50%,50%,0.6)"
    stroke-width="1"
    transform="translate(-34.9354375896,-61.4777618364)"
    />
  
  <line
    x1="4.196556671449067"
    y1="78.94548063127691"
    x2="52.403156384505024"
    y2="92.21664275466284"
    stroke="hsla(0,50%,50%,0.6)"
    stroke-width="1"
    transform="translate(-34.9354375896,-61.4777618364)"
    />
  
  <line
    x1="52.403156384505024"
    y1="92.21664275466284"
    x2="21.664275466284074"
    y2="109.68436154949785"
    stroke="hsla(0,50%,50%,0.6)"
    stroke-width="1"
    transform="translate(-34.9354375896,-61.4777618364)"
    />
  
</svg>
