<?xml version="1.0"?>
<!DOCTYPE svg PUBLIC "-//W3C//DTD SVG 1.1//EN"
  "http://www.w3.org/Graphics/SVG/1.1/DTD/svg11.dtd">
<svg
  width="240"
  height="240"
  viewBox="-500 -500 1000 1000" xmlns="http://www.w3.org/2000/svg" version="1.1">
  <rect
    x="0"
    y="0"
    width="100"
    height="100"
    fill="hsla(206,100%,53%,0.3)"
    stroke="hsl(206,100%,53%)"
    stroke-width="3"
    transform="" />
  
  <path
    d="M 
      33.3333333333
      0
      L
    
      44.4444444444
      0
      L
    
      44.4444444444
      47.6190476190
      L
    
      58.3333333333
      55.5555555555
      L
    
      66.6178146881
      69.6140693698
      L
    
      76.4102564102
      75.3846153846
      L
    
      73.2142857142
      80.8080808080
      L
    
      73.8461538461
      81.8803418803
      L
    
      71.9101123595
      83.0212234706
      L
    
      46.8599033816
      57.9710144927
      L
    
      45.4365079365
      55.5555555555
      L
    
      44.4444444444
      55.5555555555
      L
    
      33.3333333333
      44.4444444444
      z
    "
    fill="hsla(0,0%,50%,0.3)"
    stroke="hsla(0,0%,50%,1)"
    stroke-width="1"
    transform="translate(-54.8717948717,-41.5106117353)"
    />
  
  
  <line
    x1="58.333333333333336"
    y1="55.55555555555556"
    x2="73.84615384615384"
    y2="81.88034188034187"
    stroke="hsla(0,50%,50%,0.6)"
    stroke-width="1"
    transform="translate(-54.8717948717,-41.5106117353)"
    />
  
  <line
    x1="38.888888888888886"
    y1="44.44444444444444"
    x2="46.85990338164251"
    y2="57.971014492753625"
    stroke="hsla(0,50%,50%,0.6)"
    stroke-width="1"
    transform="translate(-54.8717948717,-41.5106117353)"
    />
  
  <line
    x1="33.333333333333336"
    y1="0"
    x2="44.44444444444444"
    y2="0"
    stroke="hsla(0,50%,50%,0.6)"
    stroke-width="1"
    transform="translate(-54.8717948717,-41.5106117353)"
    />
  
  <line
    x1="33.333333333333336"
    y1="0"
    x2="33.333333333333336"
    y2="44.44444444444444"
    stroke="hsla(0,50%,50%,0.6)"
    stroke-width="1"
    transform="translate(-54.8717948717,-41.5106117353)"
    />
  
  <line
    x1="44.44444444444444"
    y1="0"
    x2="44.44444444444444"
    y2="55.55555555555556"
    stroke="hsla(0,50%,50%,0.6)"
    stroke-width="1"
    transform="translate(-54.8717948717,-41.5106117353)"
    />
  
  <line
    x1="33.333333333333336"
    y1="44.44444444444444"
    x2="44.44444444444444"
    y2="55.55555555555556"
    stroke="hsla(0,50%,50%,0.6)"
    stroke-width="1"
    transform="translate(-54.8717948717,-41.5106117353)"
    />
  
  <line
    x1="46.85990338164251"
    y1="57.971014492753625"
    x2="71.91011235955057"
    y2="83.02122347066167"
    stroke="hsla(0,50%,50%,0.6)"
    stroke-width="1"
    transform="translate(-54.8717948717,-41.5106117353)"
    />
  
  <line
    x1="38.888888888888886"
    y1="44.44444444444444"
    x2="58.333333333333336"
    y2="55.55555555555556"
    stroke="hsla(0,50%,50%,0.6)"
    stroke-width="1"
    transform="translate(-54.8717948717,-41.5106117353)"
    />
  
  <line
    x1="46.85990338164251"
    y1="57.971014492753625"
    x2="76.41025641025641"
    y2="75.38461538461539"
    stroke="hsla(0,50%,50%,0.6)"
    stroke-width="1"
    transform="translate(-54.8717948717,-41.5106117353)"
    />
  
  <line
    x1="33.333333333333336"
    y1="44.44444444444444"
    x2="38.888888888888886"
    y2="44.44444444444444"
    stroke="hsla(0,50%,50%,0.6)"
    stroke-width="1"
    transform="translate(-54.8717948717,-41.5106117353)"
    />
  
  <line
    x1="76.41025641025641"
    y1="75.38461538461539"
    x2="71.91011235955057"
    y2="83.02122347066167"
    stroke="hsla(0,50%,50%,0.6)"
    stroke-width="1"
    transform="translate(-54.8717948717,-41.5106117353)"
    />
  
  <line
    x1="44.44444444444444"
    y1="55.55555555555556"
    x2="58.333333333333336"
    y2="55.55555555555556"
    stroke="hsla(0,50%,50%,0.6)"
    stroke-width="1"
    transform="translate(-54.8717948717,-41.5106117353)"
    />
  
  <line
    x1="73.84615384615384"
    y1="81.88034188034187"
    x2="71.91011235955057"
    y2="83.02122347066167"
    stroke="hsla(0,50%,50%,0.6)"
    stroke-width="1"
    transform="translate(-54.8717948717,-41.5106117353)"
    />
  
</svg>
