<?xml version="1.0"?>
<!DOCTYPE svg PUBLIC "-//W3C//DTD SVG 1.1//EN"
  "http://www.w3.org/Graphics/SVG/1.1/DTD/svg11.dtd">
<svg
  width="240"
  height="240"
  viewBox="-500 -500 1000 1000" xmlns="http://www.w3.org/2000/svg" version="1.1">
  <rect
    x="0"
    y="0"
    width="100"
    height="100"
    fill="hsla(206,100%,53%,0.3)"
    stroke="hsl(206,100%,53%)"
    stroke-width="3"
    transform="" />
  
  <path
    d="M 
      49.9405469678
      2.4375743162
      L
    
      48.7217598097
      27.4078478002
      L
    
      73.6920332936
      28.6266349583
      L
    
      97.4435196195
      54.8156956004
      L
    
      72.4732461355
      53.5969084423
      L
    
      71.2544589774
      78.5671819262
      L
    
      45.0653983353
      102.3186682520
      L
    
      46.2841854934
      77.3483947681
      L
    
      21.3139120095
      76.1296076099
      L
    
      -2.4375743162
      49.9405469678
      L
    
      22.5326991676
      51.1593341260
      L
    
      23.7514863258
      26.1890606420
      z
    "
    fill="hsla(0,0%,50%,0.3)"
    stroke="hsla(0,0%,50%,1)"
    stroke-width="1"
    transform="translate(-47.5029726516,-52.3781212841)"
    />
  
  
  <line
    x1="73.69203329369797"
    y1="28.626634958382876"
    x2="97.44351961950059"
    y2="54.81569560047562"
    stroke="hsla(0,50%,50%,0.6)"
    stroke-width="1"
    transform="translate(-47.5029726516,-52.3781212841)"
    />
  
  <line
    x1="23.751486325802617"
    y1="26.18906064209275"
    x2="71.25445897740785"
    y2="78.56718192627824"
    stroke="hsla(0,50%,50%,0.6)"
    stroke-width="1"
    transform="translate(-47.5029726516,-52.3781212841)"
    />
  
  <line
    x1="23.751486325802617"
    y1="26.18906064209275"
    x2="21.313912009512485"
    y2="76.12960760998811"
    stroke="hsla(0,50%,50%,0.6)"
    stroke-width="1"
    transform="translate(-47.5029726516,-52.3781212841)"
    />
  
  <line
    x1="49.940546967895365"
    y1="2.4375743162901307"
    x2="45.0653983353151"
    y2="102.31866825208085"
    stroke="hsla(0,50%,50%,0.6)"
    stroke-width="1"
    transform="translate(-47.5029726516,-52.3781212841)"
    />
  
  <line
    x1="73.69203329369797"
    y1="28.626634958382876"
    x2="71.25445897740785"
    y2="78.56718192627824"
    stroke="hsla(0,50%,50%,0.6)"
    stroke-width="1"
    transform="translate(-47.5029726516,-52.3781212841)"
    />
  
  <line
    x1="-2.4375743162901307"
    y1="49.940546967895365"
    x2="21.313912009512485"
    y2="76.12960760998811"
    stroke="hsla(0,50%,50%,0.6)"
    stroke-width="1"
    transform="translate(-47.5029726516,-52.3781212841)"
    />
  
  <line
    x1="23.751486325802617"
    y1="26.18906064209275"
    x2="73.69203329369797"
    y2="28.626634958382876"
    stroke="hsla(0,50%,50%,0.6)"
    stroke-width="1"
    transform="translate(-47.5029726516,-52.3781212841)"
    />
  
  <line
    x1="49.940546967895365"
    y1="2.4375743162901307"
    x2="23.751486325802617"
    y2="26.18906064209275"
    stroke="hsla(0,50%,50%,0.6)"
    stroke-width="1"
    transform="translate(-47.5029726516,-52.3781212841)"
    />
  
  <line
    x1="-2.4375743162901307"
    y1="49.940546967895365"
    x2="97.44351961950059"
    y2="54.81569560047562"
    stroke="hsla(0,50%,50%,0.6)"
    stroke-width="1"
    transform="translate(-47.5029726516,-52.3781212841)"
    />
  
  <line
    x1="73.69203329369797"
    y1="28.626634958382876"
    x2="21.313912009512485"
    y2="76.12960760998811"
    stroke="hsla(0,50%,50%,0.6)"
    stroke-width="1"
    transform="translate(-47.5029726516,-52.3781212841)"
    />
  
  <line
    x1="21.313912009512485"
    y1="76.12960760998811"
    x2="71.25445897740785"
    y2="78.56718192627824"
    stroke="hsla(0,50%,50%,0.6)"
    stroke-width="1"
    transform="translate(-47.5029726516,-52.3781212841)"
    />
  
  <line
    x1="71.25445897740785"
    y1="78.56718192627824"
    x2="45.0653983353151"
    y2="102.31866825208085"
    stroke="hsla(0,50%,50%,0.6)"
    stroke-width="1"
    transform="translate(-47.5029726516,-52.3781212841)"
    />
  
</svg>
