<?xml version="1.0"?>
<!DOCTYPE svg PUBLIC "-//W3C//DTD SVG 1.1//EN"
  "http://www.w3.org/Graphics/SVG/1.1/DTD/svg11.dtd">
<svg
  width="240"
  height="240"
  viewBox="-500 -500 1000 1000" xmlns="http://www.w3.org/2000/svg" version="1.1">
  <rect
    x="0"
    y="0"
    width="100"
    height="100"
    fill="hsla(206,100%,53%,0.3)"
    stroke="hsl(206,100%,53%)"
    stroke-width="3"
    transform="" />
  
  <path
    d="M 
      -38.4615384615
      46.1538461538
      L
    
      -30.7692307692
      51.9230769230
      L
    
      -30.7692307692
      71.1538461538
      L
    
      -38.4615384615
      76.9230769230
      L
    
      -46.1538461538
      73.0769230769
      L
    
      -55.3846153846
      80
      L
    
      -60
      73.8461538461
      L
    
      -46.1538461538
      63.4615384615
      L
    
      -46.1538461538
      50
      z
    "
    fill="hsla(0,0%,50%,0.3)"
    stroke="hsla(0,0%,50%,1)"
    stroke-width="1"
    transform="translate(41.6025641025,-59.9038461538)"
    />
  
  <path
    d="M 
      -38.4615384615
      55.7692307692
      L
    
      -38.4615384615
      57.6923076923
      L
    
      -37.1794871794
      56.7307692307
      z
    "
    fill="hsla(0,0%,50%,0.3)"
    stroke="hsla(0,0%,50%,1)"
    stroke-width="1"
    transform="translate(41.6025641025,-59.9038461538)"
    />
  
  
  <line
    x1="-46.15384615384615"
    y1="50"
    x2="-46.15384615384615"
    y2="73.07692307692308"
    stroke="hsla(0,50%,50%,0.6)"
    stroke-width="1"
    transform="translate(41.6025641025,-59.9038461538)"
    />
  
  <line
    x1="-38.46153846153846"
    y1="46.15384615384615"
    x2="-38.46153846153846"
    y2="76.92307692307692"
    stroke="hsla(0,50%,50%,0.6)"
    stroke-width="1"
    transform="translate(41.6025641025,-59.9038461538)"
    />
  
  <line
    x1="-30.76923076923077"
    y1="51.92307692307692"
    x2="-30.76923076923077"
    y2="71.15384615384616"
    stroke="hsla(0,50%,50%,0.6)"
    stroke-width="1"
    transform="translate(41.6025641025,-59.9038461538)"
    />
  
  <line
    x1="-36.92307692307692"
    y1="56.92307692307692"
    x2="-41.53846153846154"
    y2="63.07692307692308"
    stroke="hsla(0,50%,50%,0.6)"
    stroke-width="1"
    transform="translate(41.6025641025,-59.9038461538)"
    />
  
  <line
    x1="-30.76923076923077"
    y1="51.92307692307692"
    x2="-60"
    y2="73.84615384615384"
    stroke="hsla(0,50%,50%,0.6)"
    stroke-width="1"
    transform="translate(41.6025641025,-59.9038461538)"
    />
  
  <line
    x1="-38.46153846153846"
    y1="46.15384615384615"
    x2="-46.15384615384615"
    y2="50"
    stroke="hsla(0,50%,50%,0.6)"
    stroke-width="1"
    transform="translate(41.6025641025,-59.9038461538)"
    />
  
  <line
    x1="-30.76923076923077"
    y1="61.53846153846154"
    x2="-55.38461538461539"
    y2="80"
    stroke="hsla(0,50%,50%,0.6)"
    stroke-width="1"
    transform="translate(41.6025641025,-59.9038461538)"
    />
  
  <line
    x1="-30.76923076923077"
    y1="71.15384615384616"
    x2="-38.46153846153846"
    y2="76.92307692307692"
    stroke="hsla(0,50%,50%,0.6)"
    stroke-width="1"
    transform="translate(41.6025641025,-59.9038461538)"
    />
  
  <line
    x1="-38.46153846153846"
    y1="46.15384615384615"
    x2="-30.76923076923077"
    y2="51.92307692307692"
    stroke="hsla(0,50%,50%,0.6)"
    stroke-width="1"
    transform="translate(41.6025641025,-59.9038461538)"
    />
  
  <line
    x1="-46.15384615384615"
    y1="50"
    x2="-30.76923076923077"
    y2="61.53846153846154"
    stroke="hsla(0,50%,50%,0.6)"
    stroke-width="1"
    transform="translate(41.6025641025,-59.9038461538)"
    />
  
  <line
    x1="-60"
    y1="73.84615384615384"
    x2="-55.38461538461539"
    y2="80"
    stroke="hsla(0,50%,50%,0.6)"
    stroke-width="1"
    transform="translate(41.6025641025,-59.9038461538)"
    />
  
  <line
    x1="-41.53846153846154"
    y1="63.07692307692308"
    x2="-30.76923076923077"
    y2="71.15384615384616"
    stroke="hsla(0,50%,50%,0.6)"
    stroke-width="1"
    transform="translate(41.6025641025,-59.9038461538)"
    />
  
  <line
    x1="-46.15384615384615"
    y1="73.07692307692308"
    x2="-38.46153846153846"
    y2="76.92307692307692"
    stroke="hsla(0,50%,50%,0.6)"
    stroke-width="1"
    transform="translate(41.6025641025,-59.9038461538)"
    />
  
</svg>
