<?xml version="1.0"?>
<!DOCTYPE svg PUBLIC "-//W3C//DTD SVG 1.1//EN"
  "http://www.w3.org/Graphics/SVG/1.1/DTD/svg11.dtd">
<svg
  width="240"
  height="240"
  viewBox="-50 -50 200 200" xmlns="http://www.w3.org/2000/svg" version="1.1">
  <rect
    x="0"
    y="0"
    width="100"
    height="100"
    fill="hsla(206,100%,53%,0.3)"
    stroke="hsl(206,100%,53%)"
    stroke-width="3"
    transform="" />
  
  <path
    d="M 
      123.7869938012
      71.6336190351
      L
    
      152.7168644731
      93.0593648311
      L
    
      142.3557662660
      107.0493203735
      L
    
      174.3560289186
      144.1247889126
      L
    
      175.1021744531
      164.1108657372
      L
    
      107.9751188847
      166.6169379995
      L
    
      107.6923076923
      171.5384615384
      L
    
      98.0817230819
      174.3019129035
      L
    
      96.5340658286
      168.9195525811
      L
    
      113.1174699492
      77.1289598357
      L
    
      114.0183050706
      74.2175695086
      z
    "
    fill="hsla(0,0%,50%,0.3)"
    stroke="hsla(0,0%,50%,1)"
    stroke-width="1"
    transform="translate(-111.1350076727,-98.5788222128) scale(1,-1) translate(50,-110)"
    />
  
  
  <line
    x1="149.25351842716594"
    y1="115.04104831712209"
    x2="154.69362933817715"
    y2="140.4655481799689"
    stroke="hsla(0,50%,50%,0.6)"
    stroke-width="1"
    transform="translate(-111.1350076727,-98.5788222128) scale(1,-1) translate(50,-110)"
    />
  
  <line
    x1="114.01830507069049"
    y1="74.21756950862238"
    x2="174.3560289186042"
    y2="144.1247889126375"
    stroke="hsla(0,50%,50%,0.6)"
    stroke-width="1"
    transform="translate(-111.1350076727,-98.5788222128) scale(1,-1) translate(50,-110)"
    />
  
  <line
    x1="123.78699380129704"
    y1="71.633619035187"
    x2="152.7168644731036"
    y2="93.0593648311341"
    stroke="hsla(0,50%,50%,0.6)"
    stroke-width="1"
    transform="translate(-111.1350076727,-98.5788222128) scale(1,-1) translate(50,-110)"
    />
  
  <line
    x1="96.53406582866961"
    y1="168.9195525811017"
    x2="98.08172308195473"
    y2="174.3019129035568"
    stroke="hsla(0,50%,50%,0.6)"
    stroke-width="1"
    transform="translate(-111.1350076727,-98.5788222128) scale(1,-1) translate(50,-110)"
    />
  
  <line
    x1="110.77397213296891"
    y1="90.10042528951861"
    x2="114.08518899167713"
    y2="93.5852700764193"
    stroke="hsla(0,50%,50%,0.6)"
    stroke-width="1"
    transform="translate(-111.1350076727,-98.5788222128) scale(1,-1) translate(50,-110)"
    />
  
  <line
    x1="174.3560289186042"
    y1="144.1247889126375"
    x2="175.10217445316763"
    y2="164.1108657372985"
    stroke="hsla(0,50%,50%,0.6)"
    stroke-width="1"
    transform="translate(-111.1350076727,-98.5788222128) scale(1,-1) translate(50,-110)"
    />
  
  <line
    x1="109.6052551443831"
    y1="96.56937607632034"
    x2="154.69362933817715"
    y2="140.4655481799689"
    stroke="hsla(0,50%,50%,0.6)"
    stroke-width="1"
    transform="translate(-111.1350076727,-98.5788222128) scale(1,-1) translate(50,-110)"
    />
  
  <line
    x1="113.11746994927478"
    y1="77.12895983576125"
    x2="107.6923076923077"
    y2="171.53846153846155"
    stroke="hsla(0,50%,50%,0.6)"
    stroke-width="1"
    transform="translate(-111.1350076727,-98.5788222128) scale(1,-1) translate(50,-110)"
    />
  
  <line
    x1="111.07381038404158"
    y1="88.44079433597449"
    x2="112.41811897714314"
    y2="89.29917220304226"
    stroke="hsla(0,50%,50%,0.6)"
    stroke-width="1"
    transform="translate(-111.1350076727,-98.5788222128) scale(1,-1) translate(50,-110)"
    />
  
  <line
    x1="113.11746994927478"
    y1="77.12895983576125"
    x2="96.53406582866961"
    y2="168.9195525811017"
    stroke="hsla(0,50%,50%,0.6)"
    stroke-width="1"
    transform="translate(-111.1350076727,-98.5788222128) scale(1,-1) translate(50,-110)"
    />
  
  <line
    x1="110.01680745813816"
    y1="94.29139801159023"
    x2="112.06247497153998"
    y2="95.48814347471748"
    stroke="hsla(0,50%,50%,0.6)"
    stroke-width="1"
    transform="translate(-111.1350076727,-98.5788222128) scale(1,-1) translate(50,-110)"
    />
  
  <line
    x1="114.01830507069049"
    y1="74.21756950862238"
    x2="113.11746994927478"
    y2="77.12895983576125"
    stroke="hsla(0,50%,50%,0.6)"
    stroke-width="1"
    transform="translate(-111.1350076727,-98.5788222128) scale(1,-1) translate(50,-110)"
    />
  
  <line
    x1="123.921761264573"
    y1="85.69170278466133"
    x2="117.40288732971419"
    y2="103.14410338600477"
    stroke="hsla(0,50%,50%,0.6)"
    stroke-width="1"
    transform="translate(-111.1350076727,-98.5788222128) scale(1,-1) translate(50,-110)"
    />
  
  <line
    x1="117.40288732971419"
    y1="103.14410338600477"
    x2="149.25351842716594"
    y2="115.04104831712209"
    stroke="hsla(0,50%,50%,0.6)"
    stroke-width="1"
    transform="translate(-111.1350076727,-98.5788222128) scale(1,-1) translate(50,-110)"
    />
  
  <line
    x1="123.78699380129704"
    y1="71.633619035187"
    x2="114.08518899167713"
    y2="93.5852700764193"
    stroke="hsla(0,50%,50%,0.6)"
    stroke-width="1"
    transform="translate(-111.1350076727,-98.5788222128) scale(1,-1) translate(50,-110)"
    />
  
  <line
    x1="123.78699380129704"
    y1="71.633619035187"
    x2="114.01830507069049"
    y2="74.21756950862238"
    stroke="hsla(0,50%,50%,0.6)"
    stroke-width="1"
    transform="translate(-111.1350076727,-98.5788222128) scale(1,-1) translate(50,-110)"
    />
  
  <line
    x1="152.7168644731036"
    y1="93.0593648311341"
    x2="96.53406582866961"
    y2="168.9195525811017"
    stroke="hsla(0,50%,50%,0.6)"
    stroke-width="1"
    transform="translate(-111.1350076727,-98.5788222128) scale(1,-1) translate(50,-110)"
    />
  
  <line
    x1="123.921761264573"
    y1="85.69170278466133"
    x2="111.07381038404158"
    y2="88.44079433597449"
    stroke="hsla(0,50%,50%,0.6)"
    stroke-width="1"
    transform="translate(-111.1350076727,-98.5788222128) scale(1,-1) translate(50,-110)"
    />
  
  <line
    x1="96.87520197630455"
    y1="167.03133415679355"
    x2="107.6923076923077"
    y2="171.53846153846155"
    stroke="hsla(0,50%,50%,0.6)"
    stroke-width="1"
    transform="translate(-111.1350076727,-98.5788222128) scale(1,-1) translate(50,-110)"
    />
  
  <line
    x1="154.69362933817715"
    y1="140.4655481799689"
    x2="174.3560289186042"
    y2="144.1247889126375"
    stroke="hsla(0,50%,50%,0.6)"
    stroke-width="1"
    transform="translate(-111.1350076727,-98.5788222128) scale(1,-1) translate(50,-110)"
    />
  
  <line
    x1="114.08518899167713"
    y1="93.5852700764193"
    x2="110.01680745813816"
    y2="94.29139801159023"
    stroke="hsla(0,50%,50%,0.6)"
    stroke-width="1"
    transform="translate(-111.1350076727,-98.5788222128) scale(1,-1) translate(50,-110)"
    />
  
  <line
    x1="112.41811897714314"
    y1="89.29917220304226"
    x2="110.77397213296891"
    y2="90.10042528951861"
    stroke="hsla(0,50%,50%,0.6)"
    stroke-width="1"
    transform="translate(-111.1350076727,-98.5788222128) scale(1,-1) translate(50,-110)"
    />
  
  <line
    x1="112.06247497153998"
    y1="95.48814347471748"
    x2="109.6052551443831"
    y2="96.56937607632034"
    stroke="hsla(0,50%,50%,0.6)"
    stroke-width="1"
    transform="translate(-111.1350076727,-98.5788222128) scale(1,-1) translate(50,-110)"
    />
  
  <line
    x1="175.10217445316763"
    y1="164.1108657372985"
    x2="96.87520197630455"
    y2="167.03133415679355"
    stroke="hsla(0,50%,50%,0.6)"
    stroke-width="1"
    transform="translate(-111.1350076727,-98.5788222128) scale(1,-1) translate(50,-110)"
    />
  
  <line
    x1="107.6923076923077"
    y1="171.53846153846155"
    x2="98.08172308195473"
    y2="174.3019129035568"
    stroke="hsla(0,50%,50%,0.6)"
    stroke-width="1"
    transform="translate(-111.1350076727,-98.5788222128) scale(1,-1) translate(50,-110)"
    />
  
</svg>
