<?xml version="1.0"?>
<!DOCTYPE svg PUBLIC "-//W3C//DTD SVG 1.1//EN"
  "http://www.w3.org/Graphics/SVG/1.1/DTD/svg11.dtd">
<svg
  width="240"
  height="240"
  viewBox="-500 -500 1000 1000" xmlns="http://www.w3.org/2000/svg" version="1.1">
  <rect
    x="0"
    y="0"
    width="100"
    height="100"
    fill="hsla(206,100%,53%,0.3)"
    stroke="hsl(206,100%,53%)"
    stroke-width="3"
    transform="" />
  
  <path
    d="M 
      260
      -500
      L
    
      300
      -500
      L
    
      300
      -400
      L
    
      200
      -400
      L
    
      200
      -440
      z
    "
    fill="hsla(0,0%,50%,0.3)"
    stroke="hsla(0,0%,50%,1)"
    stroke-width="1"
    transform="translate(-250,450)"
    />
  
  
  <line
    x1="260"
    y1="-500"
    x2="300"
    y2="-500"
    stroke="hsla(0,50%,50%,0.6)"
    stroke-width="1"
    transform="translate(-250,450)"
    />
  
  <line
    x1="200"
    y1="-440"
    x2="260"
    y2="-440"
    stroke="hsla(0,50%,50%,0.6)"
    stroke-width="1"
    transform="translate(-250,450)"
    />
  
  <line
    x1="200"
    y1="-400"
    x2="300"
    y2="-400"
    stroke="hsla(0,50%,50%,0.6)"
    stroke-width="1"
    transform="translate(-250,450)"
    />
  
  <line
    x1="260"
    y1="-500"
    x2="200"
    y2="-440"
    stroke="hsla(0,50%,50%,0.6)"
    stroke-width="1"
    transform="translate(-250,450)"
    />
  
  <line
    x1="200"
    y1="-440"
    x2="200"
    y2="-400"
    stroke="hsla(0,50%,50%,0.6)"
    stroke-width="1"
    transform="translate(-250,450)"
    />
  
  <line
    x1="260"
    y1="-500"
    x2="260"
    y2="-440"
    stroke="hsla(0,50%,50%,0.6)"
    stroke-width="1"
    transform="translate(-250,450)"
    />
  
  <line
    x1="300"
    y1="-500"
    x2="300"
    y2="-400"
    stroke="hsla(0,50%,50%,0.6)"
    stroke-width="1"
    transform="translate(-250,450)"
    />
  
</svg>
