<?xml version="1.0"?>
<!DOCTYPE svg PUBLIC "-//W3C//DTD SVG 1.1//EN"
  "http://www.w3.org/Graphics/SVG/1.1/DTD/svg11.dtd">
<svg
  width="240"
  height="240"
  viewBox="-500 -500 1000 1000" xmlns="http://www.w3.org/2000/svg" version="1.1">
  <rect
    x="0"
    y="0"
    width="100"
    height="100"
    fill="hsla(206,100%,53%,0.3)"
    stroke="hsl(206,100%,53%)"
    stroke-width="3"
    transform="" />
  
  <path
    d="M 
      -106.8930763403
      1.4495008837
      L
    
      -5.4768069828
      11.1404052046
      L
    
      -3.6880733944
      11.7064220183
      L
    
      -5.5045871559
      41.6513761467
      L
    
      -11.9779816513
      49.2733944954
      L
    
      -51.1757033029
      32.1140511479
      L
    
      -83.8910937685
      35.1046168819
      L
    
      -85.2326762427
      20.4283320622
      L
    
      -91.9548874798
      21.2111635562
      L
    
      -94.7082002317
      16.3297171537
      L
    
      -107.8633084399
      15.4158407648
      L
    
      -107.3160297188
      7.5378488579
      L
    
      -107.6183486238
      7.4055045871
      z
    "
    fill="hsla(0,0%,50%,0.3)"
    stroke="hsla(0,0%,50%,1)"
    stroke-width="1"
    transform="translate(55.7756909172,-25.3614476895)"
    />
  
  
  <line
    x1="-102.8851679079566"
    y1="1.8324794471801957"
    x2="-107.61834862385321"
    y2="7.4055045871559635"
    stroke="hsla(0,50%,50%,0.6)"
    stroke-width="1"
    transform="translate(55.7756909172,-25.3614476895)"
    />
  
  <line
    x1="-86.79198024698091"
    y1="3.3702755308767074"
    x2="-91.95488747980836"
    y2="21.211163556262125"
    stroke="hsla(0,50%,50%,0.6)"
    stroke-width="1"
    transform="translate(55.7756909172,-25.3614476895)"
    />
  
  <line
    x1="-106.89307634037539"
    y1="1.4495008837639929"
    x2="-107.61834862385321"
    y2="7.4055045871559635"
    stroke="hsla(0,50%,50%,0.6)"
    stroke-width="1"
    transform="translate(55.7756909172,-25.3614476895)"
    />
  
  <line
    x1="-26.9762572608671"
    y1="9.08600982101823"
    x2="-27.670065077889532"
    y2="9.796603346988078"
    stroke="hsla(0,50%,50%,0.6)"
    stroke-width="1"
    transform="translate(55.7756909172,-25.3614476895)"
    />
  
  <line
    x1="-106.89307634037539"
    y1="1.4495008837639929"
    x2="-107.8633084399952"
    y2="15.415840764808966"
    stroke="hsla(0,50%,50%,0.6)"
    stroke-width="1"
    transform="translate(55.7756909172,-25.3614476895)"
    />
  
  <line
    x1="-21.716164532282985"
    y1="9.588641752510089"
    x2="-24.075455404515345"
    y2="13.306300803248433"
    stroke="hsla(0,50%,50%,0.6)"
    stroke-width="1"
    transform="translate(55.7756909172,-25.3614476895)"
    />
  
  <line
    x1="-34.7616028498909"
    y1="8.342075542164562"
    x2="-66.72855197025524"
    y2="18.27344422261621"
    stroke="hsla(0,50%,50%,0.6)"
    stroke-width="1"
    transform="translate(55.7756909172,-25.3614476895)"
    />
  
  <line
    x1="-7.313098320633743"
    y1="10.96493706951585"
    x2="-11.977981651376147"
    y2="49.273394495412845"
    stroke="hsla(0,50%,50%,0.6)"
    stroke-width="1"
    transform="translate(55.7756909172,-25.3614476895)"
    />
  
  <line
    x1="-7.4668656065827665"
    y1="10.950243726275565"
    x2="-12.466597643940494"
    y2="20.284283863631927"
    stroke="hsla(0,50%,50%,0.6)"
    stroke-width="1"
    transform="translate(55.7756909172,-25.3614476895)"
    />
  
  <line
    x1="-7.313098320633743"
    y1="10.96493706951585"
    x2="-7.340364172264498"
    y2="11.357424754854732"
    stroke="hsla(0,50%,50%,0.6)"
    stroke-width="1"
    transform="translate(55.7756909172,-25.3614476895)"
    />
  
  <line
    x1="-3.688073394495413"
    y1="11.706422018348624"
    x2="-5.504587155963303"
    y2="41.65137614678899"
    stroke="hsla(0,50%,50%,0.6)"
    stroke-width="1"
    transform="translate(55.7756909172,-25.3614476895)"
    />
  
  <line
    x1="-3.688073394495413"
    y1="11.706422018348624"
    x2="-14.181736290850985"
    y2="28.7323739452645"
    stroke="hsla(0,50%,50%,0.6)"
    stroke-width="1"
    transform="translate(55.7756909172,-25.3614476895)"
    />
  
  <line
    x1="-7.4668656065827665"
    y1="10.950243726275565"
    x2="-7.340364172264498"
    y2="11.357424754854732"
    stroke="hsla(0,50%,50%,0.6)"
    stroke-width="1"
    transform="translate(55.7756909172,-25.3614476895)"
    />
  
  <line
    x1="-86.79198024698091"
    y1="3.3702755308767074"
    x2="-83.89109376856213"
    y2="35.10461688199223"
    stroke="hsla(0,50%,50%,0.6)"
    stroke-width="1"
    transform="translate(55.7756909172,-25.3614476895)"
    />
  
  <line
    x1="-21.716164532282985"
    y1="9.588641752510089"
    x2="-14.181736290850985"
    y2="28.7323739452645"
    stroke="hsla(0,50%,50%,0.6)"
    stroke-width="1"
    transform="translate(55.7756909172,-25.3614476895)"
    />
  
  <line
    x1="-5.476806982838506"
    y1="11.140405204684301"
    x2="-91.95488747980836"
    y2="21.211163556262125"
    stroke="hsla(0,50%,50%,0.6)"
    stroke-width="1"
    transform="translate(55.7756909172,-25.3614476895)"
    />
  
  <line
    x1="-106.89307634037539"
    y1="1.4495008837639929"
    x2="-5.476806982838506"
    y2="11.140405204684301"
    stroke="hsla(0,50%,50%,0.6)"
    stroke-width="1"
    transform="translate(55.7756909172,-25.3614476895)"
    />
  
  <line
    x1="-5.476806982838506"
    y1="11.140405204684301"
    x2="-3.688073394495413"
    y2="11.706422018348624"
    stroke="hsla(0,50%,50%,0.6)"
    stroke-width="1"
    transform="translate(55.7756909172,-25.3614476895)"
    />
  
  <line
    x1="-5.504587155963303"
    y1="41.65137614678899"
    x2="-11.977981651376147"
    y2="49.273394495412845"
    stroke="hsla(0,50%,50%,0.6)"
    stroke-width="1"
    transform="translate(55.7756909172,-25.3614476895)"
    />
  
  <line
    x1="-26.9762572608671"
    y1="9.08600982101823"
    x2="-5.504587155963303"
    y2="41.65137614678899"
    stroke="hsla(0,50%,50%,0.6)"
    stroke-width="1"
    transform="translate(55.7756909172,-25.3614476895)"
    />
  
  <line
    x1="-27.670065077889532"
    y1="9.796603346988078"
    x2="-24.075455404515345"
    y2="13.306300803248433"
    stroke="hsla(0,50%,50%,0.6)"
    stroke-width="1"
    transform="translate(55.7756909172,-25.3614476895)"
    />
  
  <line
    x1="-34.7616028498909"
    y1="8.342075542164562"
    x2="-12.466597643940494"
    y2="20.284283863631927"
    stroke="hsla(0,50%,50%,0.6)"
    stroke-width="1"
    transform="translate(55.7756909172,-25.3614476895)"
    />
  
  <line
    x1="-107.8633084399952"
    y1="15.415840764808966"
    x2="-66.72855197025524"
    y2="18.27344422261621"
    stroke="hsla(0,50%,50%,0.6)"
    stroke-width="1"
    transform="translate(55.7756909172,-25.3614476895)"
    />
  
  <line
    x1="-14.181736290850985"
    y1="28.7323739452645"
    x2="-83.89109376856213"
    y2="35.10461688199223"
    stroke="hsla(0,50%,50%,0.6)"
    stroke-width="1"
    transform="translate(55.7756909172,-25.3614476895)"
    />
  
  <line
    x1="-102.8851679079566"
    y1="1.8324794471801957"
    x2="-91.95488747980836"
    y2="21.211163556262125"
    stroke="hsla(0,50%,50%,0.6)"
    stroke-width="1"
    transform="translate(55.7756909172,-25.3614476895)"
    />
  
  <line
    x1="-107.61834862385321"
    y1="7.4055045871559635"
    x2="-11.977981651376147"
    y2="49.273394495412845"
    stroke="hsla(0,50%,50%,0.6)"
    stroke-width="1"
    transform="translate(55.7756909172,-25.3614476895)"
    />
  
</svg>
