<?xml version="1.0"?>
<!DOCTYPE svg PUBLIC "-//W3C//DTD SVG 1.1//EN"
  "http://www.w3.org/Graphics/SVG/1.1/DTD/svg11.dtd">
<svg
  width="240"
  height="240"
  viewBox="-500 -500 1000 1000" xmlns="http://www.w3.org/2000/svg" version="1.1">
  <rect
    x="0"
    y="0"
    width="100"
    height="100"
    fill="hsla(206,100%,53%,0.3)"
    stroke="hsl(206,100%,53%)"
    stroke-width="3"
    transform="" />
  
  <path
    d="M 
      6.6995191133
      -56.7488677832
      L
    
      104.3349870935
      -30.8375377339
      L
    
      99.3103565517
      11.7240386206
      L
    
      86.8965634482
      10.2585213793
      L
    
      82.0138048275
      21.7654179310
      L
    
      42.5615880788
      5.0245312315
      L
    
      0.0000117241
      -0.0000993103
      L
    
      1.4655289655
      -12.4138924137
      L
    
      -10.0413675862
      -17.2966510344
      z
    "
    fill="hsla(0,0%,50%,0.3)"
    stroke="hsla(0,0%,50%,1)"
    stroke-width="1"
    transform="translate(-47.1468097536,17.4917249261)"
    />
  
  
  <line
    x1="6.699519113300493"
    y1="-56.74886778325123"
    x2="104.33498709359606"
    y2="-30.837537733990146"
    stroke="hsla(0,50%,50%,0.6)"
    stroke-width="1"
    transform="translate(-47.1468097536,17.4917249261)"
    />
  
  <line
    x1="-10.041367586206897"
    y1="-17.296651034482757"
    x2="82.01380482758621"
    y2="21.765417931034484"
    stroke="hsla(0,50%,50%,0.6)"
    stroke-width="1"
    transform="translate(-47.1468097536,17.4917249261)"
    />
  
  <line
    x1="6.699519113300493"
    y1="-56.74886778325123"
    x2="-10.041367586206897"
    y2="-17.296651034482757"
    stroke="hsla(0,50%,50%,0.6)"
    stroke-width="1"
    transform="translate(-47.1468097536,17.4917249261)"
    />
  
  <line
    x1="0.000011724137931034483"
    y1="-0.00009931034482758621"
    x2="99.31035655172414"
    y2="11.724038620689655"
    stroke="hsla(0,50%,50%,0.6)"
    stroke-width="1"
    transform="translate(-47.1468097536,17.4917249261)"
    />
  
  <line
    x1="6.699519113300493"
    y1="-56.74886778325123"
    x2="0.000011724137931034483"
    y2="-0.00009931034482758621"
    stroke="hsla(0,50%,50%,0.6)"
    stroke-width="1"
    transform="translate(-47.1468097536,17.4917249261)"
    />
  
  <line
    x1="104.33498709359606"
    y1="-30.837537733990146"
    x2="99.31035655172414"
    y2="11.724038620689655"
    stroke="hsla(0,50%,50%,0.6)"
    stroke-width="1"
    transform="translate(-47.1468097536,17.4917249261)"
    />
  
  <line
    x1="104.33498709359606"
    y1="-30.837537733990146"
    x2="82.01380482758621"
    y2="21.765417931034484"
    stroke="hsla(0,50%,50%,0.6)"
    stroke-width="1"
    transform="translate(-47.1468097536,17.4917249261)"
    />
  
</svg>
