<?xml version="1.0"?>
<!DOCTYPE svg PUBLIC "-//W3C//DTD SVG 1.1//EN"
  "http://www.w3.org/Graphics/SVG/1.1/DTD/svg11.dtd">
<svg
  width="240"
  height="240"
  viewBox="-500 -500 1000 1000" xmlns="http://www.w3.org/2000/svg" version="1.1">
  <rect
    x="0"
    y="0"
    width="100"
    height="100"
    fill="hsla(206,100%,53%,0.3)"
    stroke="hsl(206,100%,53%)"
    stroke-width="3"
    transform="" />
  
  <path
    d="M 
      14.2838921057
      0
      L
    
      14.2854865132
      0
      L
    
      14.2854865132
      14.2854865132
      L
    
      0
      14.2854865132
      L
    
      0
      14.2838921057
      L
    
      0.0015944074
      14.2838921057
      L
    
      14.2838921057
      0.0015944074
      z
    "
    fill="hsla(0,0%,50%,0.3)"
    stroke="hsla(0,0%,50%,1)"
    stroke-width="1"
    transform="translate(-7.1427432566,-7.1427432566)"
    />
  
  
  <line
    x1="14.283892105761504"
    y1="0"
    x2="14.285486513220189"
    y2="0"
    stroke="hsla(0,50%,50%,0.6)"
    stroke-width="1"
    transform="translate(-7.1427432566,-7.1427432566)"
    />
  
  <line
    x1="0"
    y1="14.283892105761504"
    x2="0"
    y2="14.285486513220189"
    stroke="hsla(0,50%,50%,0.6)"
    stroke-width="1"
    transform="translate(-7.1427432566,-7.1427432566)"
    />
  
  <line
    x1="14.283892105761504"
    y1="0"
    x2="14.283892105761504"
    y2="14.285486513220189"
    stroke="hsla(0,50%,50%,0.6)"
    stroke-width="1"
    transform="translate(-7.1427432566,-7.1427432566)"
    />
  
  <line
    x1="14.285486513220189"
    y1="0"
    x2="14.285486513220189"
    y2="14.285486513220189"
    stroke="hsla(0,50%,50%,0.6)"
    stroke-width="1"
    transform="translate(-7.1427432566,-7.1427432566)"
    />
  
  <line
    x1="14.285486513220189"
    y1="0"
    x2="0"
    y2="14.285486513220189"
    stroke="hsla(0,50%,50%,0.6)"
    stroke-width="1"
    transform="translate(-7.1427432566,-7.1427432566)"
    />
  
  <line
    x1="0"
    y1="14.283892105761504"
    x2="14.285486513220189"
    y2="14.283892105761504"
    stroke="hsla(0,50%,50%,0.6)"
    stroke-width="1"
    transform="translate(-7.1427432566,-7.1427432566)"
    />
  
  <line
    x1="0"
    y1="14.285486513220189"
    x2="14.285486513220189"
    y2="14.285486513220189"
    stroke="hsla(0,50%,50%,0.6)"
    stroke-width="1"
    transform="translate(-7.1427432566,-7.1427432566)"
    />
  
</svg>
