<?xml version="1.0"?>
<!DOCTYPE svg PUBLIC "-//W3C//DTD SVG 1.1//EN"
  "http://www.w3.org/Graphics/SVG/1.1/DTD/svg11.dtd">
<svg
  width="240"
  height="240"
  viewBox="-500 -500 1000 1000" xmlns="http://www.w3.org/2000/svg" version="1.1">
  <rect
    x="0"
    y="0"
    width="100"
    height="100"
    fill="hsla(206,100%,53%,0.3)"
    stroke="hsl(206,100%,53%)"
    stroke-width="3"
    transform="" />
  
  <path
    d="M 
      19.9999999999
      0
      L
    
      19.9999999999
      0
      L
    
      19.9999999999
      19.9999999999
      L
    
      0
      19.9999999999
      L
    
      0
      19.9999999999
      L
    
      0.0000000000
      19.9999999999
      L
    
      19.9999999999
      0.0000000000
      z
    "
    fill="hsla(0,0%,50%,0.3)"
    stroke="hsla(0,0%,50%,1)"
    stroke-width="1"
    transform="translate(-9.9999999999,-9.9999999999)"
    />
  
  
  <line
    x1="19.9999999999944"
    y1="0"
    x2="19.99999999999907"
    y2="0"
    stroke="hsla(0,50%,50%,0.6)"
    stroke-width="1"
    transform="translate(-9.9999999999,-9.9999999999)"
    />
  
  <line
    x1="0"
    y1="19.9999999999944"
    x2="0"
    y2="19.99999999999907"
    stroke="hsla(0,50%,50%,0.6)"
    stroke-width="1"
    transform="translate(-9.9999999999,-9.9999999999)"
    />
  
  <line
    x1="19.9999999999944"
    y1="0"
    x2="19.9999999999944"
    y2="19.99999999999907"
    stroke="hsla(0,50%,50%,0.6)"
    stroke-width="1"
    transform="translate(-9.9999999999,-9.9999999999)"
    />
  
  <line
    x1="19.99999999999907"
    y1="0"
    x2="19.99999999999907"
    y2="19.99999999999907"
    stroke="hsla(0,50%,50%,0.6)"
    stroke-width="1"
    transform="translate(-9.9999999999,-9.9999999999)"
    />
  
  <line
    x1="19.99999999999907"
    y1="0"
    x2="0"
    y2="19.99999999999907"
    stroke="hsla(0,50%,50%,0.6)"
    stroke-width="1"
    transform="translate(-9.9999999999,-9.9999999999)"
    />
  
  <line
    x1="0"
    y1="19.9999999999944"
    x2="19.99999999999907"
    y2="19.9999999999944"
    stroke="hsla(0,50%,50%,0.6)"
    stroke-width="1"
    transform="translate(-9.9999999999,-9.9999999999)"
    />
  
  <line
    x1="0"
    y1="19.99999999999907"
    x2="19.99999999999907"
    y2="19.99999999999907"
    stroke="hsla(0,50%,50%,0.6)"
    stroke-width="1"
    transform="translate(-9.9999999999,-9.9999999999)"
    />
  
</svg>
