<?xml version="1.0"?>
<!DOCTYPE svg PUBLIC "-//W3C//DTD SVG 1.1//EN"
  "http://www.w3.org/Graphics/SVG/1.1/DTD/svg11.dtd">
<svg
  width="240"
  height="240"
  viewBox="-50 -50 200 200" xmlns="http://www.w3.org/2000/svg" version="1.1">
  <rect
    x="0"
    y="0"
    width="100"
    height="100"
    fill="hsla(206,100%,53%,0.3)"
    stroke="hsl(206,100%,53%)"
    stroke-width="3"
    transform="" />
  
  <path
    d="M 
      50.6666666666
      -21.3333333333
      L
    
      61.3333333333
      -18.2222222222
      L
    
      57.8947368421
      -6.4327485380
      L
    
      61.0644257703
      -8.1232492997
      L
    
      67.6937441643
      0.9337068160
      L
    
      50.9850275807
      17.2576832151
      L
    
      33.3333333333
      6.6666666666
      L
    
      33.3333333333
      0
      L
    
      44.4444444444
      0
      z
    "
    fill="hsla(0,0%,50%,0.3)"
    stroke="hsla(0,0%,50%,1)"
    stroke-width="1"
    transform="translate(-41.8681502353,-1.6094213651) scale(1,-1) translate(50,-110)"
    />
  
  
  <line
    x1="50.666666666666664"
    y1="-21.333333333333332"
    x2="61.333333333333336"
    y2="-18.22222222222222"
    stroke="hsla(0,50%,50%,0.6)"
    stroke-width="1"
    transform="translate(-41.8681502353,-1.6094213651) scale(1,-1) translate(50,-110)"
    />
  
  <line
    x1="61.06442577030813"
    y1="-8.123249299719888"
    x2="67.6937441643324"
    y2="0.9337068160597572"
    stroke="hsla(0,50%,50%,0.6)"
    stroke-width="1"
    transform="translate(-41.8681502353,-1.6094213651) scale(1,-1) translate(50,-110)"
    />
  
  <line
    x1="33.333333333333336"
    y1="6.666666666666667"
    x2="50.98502758077226"
    y2="17.257683215130022"
    stroke="hsla(0,50%,50%,0.6)"
    stroke-width="1"
    transform="translate(-41.8681502353,-1.6094213651) scale(1,-1) translate(50,-110)"
    />
  
  <line
    x1="33.333333333333336"
    y1="0"
    x2="44.44444444444444"
    y2="0"
    stroke="hsla(0,50%,50%,0.6)"
    stroke-width="1"
    transform="translate(-41.8681502353,-1.6094213651) scale(1,-1) translate(50,-110)"
    />
  
  <line
    x1="33.333333333333336"
    y1="0"
    x2="33.333333333333336"
    y2="6.666666666666667"
    stroke="hsla(0,50%,50%,0.6)"
    stroke-width="1"
    transform="translate(-41.8681502353,-1.6094213651) scale(1,-1) translate(50,-110)"
    />
  
  <line
    x1="44.44444444444444"
    y1="0"
    x2="44.44444444444444"
    y2="13.333333333333334"
    stroke="hsla(0,50%,50%,0.6)"
    stroke-width="1"
    transform="translate(-41.8681502353,-1.6094213651) scale(1,-1) translate(50,-110)"
    />
  
  <line
    x1="50.666666666666664"
    y1="-21.333333333333332"
    x2="41.13475177304964"
    y2="11.347517730496454"
    stroke="hsla(0,50%,50%,0.6)"
    stroke-width="1"
    transform="translate(-41.8681502353,-1.6094213651) scale(1,-1) translate(50,-110)"
    />
  
  <line
    x1="61.333333333333336"
    y1="-18.22222222222222"
    x2="50.98502758077226"
    y2="17.257683215130022"
    stroke="hsla(0,50%,50%,0.6)"
    stroke-width="1"
    transform="translate(-41.8681502353,-1.6094213651) scale(1,-1) translate(50,-110)"
    />
  
  <line
    x1="61.06442577030813"
    y1="-8.123249299719888"
    x2="33.333333333333336"
    y2="6.666666666666667"
    stroke="hsla(0,50%,50%,0.6)"
    stroke-width="1"
    transform="translate(-41.8681502353,-1.6094213651) scale(1,-1) translate(50,-110)"
    />
  
  <line
    x1="61.06442577030813"
    y1="-8.123249299719888"
    x2="41.13475177304964"
    y2="11.347517730496454"
    stroke="hsla(0,50%,50%,0.6)"
    stroke-width="1"
    transform="translate(-41.8681502353,-1.6094213651) scale(1,-1) translate(50,-110)"
    />
  
  <line
    x1="67.6937441643324"
    y1="0.9337068160597572"
    x2="44.44444444444444"
    y2="13.333333333333334"
    stroke="hsla(0,50%,50%,0.6)"
    stroke-width="1"
    transform="translate(-41.8681502353,-1.6094213651) scale(1,-1) translate(50,-110)"
    />
  
  <line
    x1="67.6937441643324"
    y1="0.9337068160597572"
    x2="50.98502758077226"
    y2="17.257683215130022"
    stroke="hsla(0,50%,50%,0.6)"
    stroke-width="1"
    transform="translate(-41.8681502353,-1.6094213651) scale(1,-1) translate(50,-110)"
    />
  
</svg>
