<?xml version="1.0"?>
<!DOCTYPE svg PUBLIC "-//W3C//DTD SVG 1.1//EN"
  "http://www.w3.org/Graphics/SVG/1.1/DTD/svg11.dtd">
<svg
  width="240"
  height="240"
  viewBox="-500 -500 1000 1000" xmlns="http://www.w3.org/2000/svg" version="1.1">
  <rect
    x="0"
    y="0"
    width="100"
    height="100"
    fill="hsla(206,100%,53%,0.3)"
    stroke="hsl(206,100%,53%)"
    stroke-width="3"
    transform="" />
  
  <path
    d="M 
      18.8356164383
      -16.4383561643
      L
    
      39.3835616438
      7.1061643835
      L
    
      32.8767123287
      37.6712328767
      L
    
      -75.3424657534
      65.7534246575
      z
    "
    fill="hsla(0,0%,50%,0.3)"
    stroke="hsla(0,0%,50%,1)"
    stroke-width="1"
    transform="translate(17.9794520547,-24.6575342465)"
    />
  
  
  <line
    x1="18.835616438356166"
    y1="-16.438356164383563"
    x2="39.38356164383562"
    y2="7.1061643835616435"
    stroke="hsla(0,50%,50%,0.6)"
    stroke-width="1"
    transform="translate(17.9794520547,-24.6575342465)"
    />
  
  <line
    x1="15.397260273972602"
    y1="23.726027397260275"
    x2="23.038605230386054"
    y2="40.2241594022416"
    stroke="hsla(0,50%,50%,0.6)"
    stroke-width="1"
    transform="translate(17.9794520547,-24.6575342465)"
    />
  
  <line
    x1="18.835616438356166"
    y1="-16.438356164383563"
    x2="23.038605230386054"
    y2="40.2241594022416"
    stroke="hsla(0,50%,50%,0.6)"
    stroke-width="1"
    transform="translate(17.9794520547,-24.6575342465)"
    />
  
  <line
    x1="0"
    y1="0"
    x2="32.87671232876713"
    y2="37.67123287671233"
    stroke="hsla(0,50%,50%,0.6)"
    stroke-width="1"
    transform="translate(17.9794520547,-24.6575342465)"
    />
  
  <line
    x1="18.835616438356166"
    y1="-16.438356164383563"
    x2="-75.34246575342466"
    y2="65.75342465753425"
    stroke="hsla(0,50%,50%,0.6)"
    stroke-width="1"
    transform="translate(17.9794520547,-24.6575342465)"
    />
  
  <line
    x1="39.38356164383562"
    y1="7.1061643835616435"
    x2="32.87671232876713"
    y2="37.67123287671233"
    stroke="hsla(0,50%,50%,0.6)"
    stroke-width="1"
    transform="translate(17.9794520547,-24.6575342465)"
    />
  
  <line
    x1="39.38356164383562"
    y1="7.1061643835616435"
    x2="20.684931506849313"
    y2="8.493150684931507"
    stroke="hsla(0,50%,50%,0.6)"
    stroke-width="1"
    transform="translate(17.9794520547,-24.6575342465)"
    />
  
  <line
    x1="15.397260273972602"
    y1="23.726027397260275"
    x2="-75.34246575342466"
    y2="65.75342465753425"
    stroke="hsla(0,50%,50%,0.6)"
    stroke-width="1"
    transform="translate(17.9794520547,-24.6575342465)"
    />
  
  <line
    x1="32.87671232876713"
    y1="37.67123287671233"
    x2="-75.34246575342466"
    y2="65.75342465753425"
    stroke="hsla(0,50%,50%,0.6)"
    stroke-width="1"
    transform="translate(17.9794520547,-24.6575342465)"
    />
  
</svg>
