<?xml version="1.0"?>
<!DOCTYPE svg PUBLIC "-//W3C//DTD SVG 1.1//EN"
  "http://www.w3.org/Graphics/SVG/1.1/DTD/svg11.dtd">
<svg
  width="240"
  height="240"
  viewBox="-50 -50 200 200" xmlns="http://www.w3.org/2000/svg" version="1.1">
  <rect
    x="0"
    y="0"
    width="100"
    height="100"
    fill="hsla(206,100%,53%,0.3)"
    stroke="hsl(206,100%,53%)"
    stroke-width="3"
    transform="" />
  
  <path
    d="M 
      85296361.6654789308
      2288500408425480566022940992505649813725
      L
    
      85296386.6654789308
      2288500408425480566022940992505649813725
      L
    
      85296386.6654789308
      2288500408425480566022940992505649813737.5
      L
    
      85296399.1654789308
      2288500408425480566022940992505649813750
      L
    
      85296399.1654789308
      2288500408425480566022940992505649813800
      L
    
      85296349.1654789308
      2288500408425480566022940992505649813800
      L
    
      85296349.1654789308
      2288500408425480566022940992505649813750
      L
    
      85296361.6654789308
      2288500408425480566022940992505649813737.5
      z
    "
    fill="hsla(0,0%,50%,0.3)"
    stroke="hsla(0,0%,50%,1)"
    stroke-width="1"
    transform="translate(-85296361.0795414308,-2288500408425480566022940992505649813752.5390625) scale(1,-1) translate(50,-110)"
    />
  
  
  <line
    x1="85296349.16547893"
    y1="2.2885004084254805e+39"
    x2="85296349.16547893"
    y2="2.2885004084254805e+39"
    stroke="hsla(0,50%,50%,0.6)"
    stroke-width="1"
    transform="translate(-85296361.0795414308,-2288500408425480566022940992505649813752.5390625) scale(1,-1) translate(50,-110)"
    />
  
  <line
    x1="85296361.66547893"
    y1="2.2885004084254805e+39"
    x2="85296361.66547893"
    y2="2.2885004084254805e+39"
    stroke="hsla(0,50%,50%,0.6)"
    stroke-width="1"
    transform="translate(-85296361.0795414308,-2288500408425480566022940992505649813752.5390625) scale(1,-1) translate(50,-110)"
    />
  
  <line
    x1="85296374.16547893"
    y1="2.2885004084254805e+39"
    x2="85296374.16547893"
    y2="2.2885004084254805e+39"
    stroke="hsla(0,50%,50%,0.6)"
    stroke-width="1"
    transform="translate(-85296361.0795414308,-2288500408425480566022940992505649813752.5390625) scale(1,-1) translate(50,-110)"
    />
  
  <line
    x1="85296386.66547893"
    y1="2.2885004084254805e+39"
    x2="85296386.66547893"
    y2="2.2885004084254805e+39"
    stroke="hsla(0,50%,50%,0.6)"
    stroke-width="1"
    transform="translate(-85296361.0795414308,-2288500408425480566022940992505649813752.5390625) scale(1,-1) translate(50,-110)"
    />
  
  <line
    x1="85296399.16547893"
    y1="2.2885004084254805e+39"
    x2="85296399.16547893"
    y2="2.2885004084254805e+39"
    stroke="hsla(0,50%,50%,0.6)"
    stroke-width="1"
    transform="translate(-85296361.0795414308,-2288500408425480566022940992505649813752.5390625) scale(1,-1) translate(50,-110)"
    />
  
  <line
    x1="85296374.16547893"
    y1="2.2885004084254805e+39"
    x2="85296399.16547893"
    y2="2.2885004084254805e+39"
    stroke="hsla(0,50%,50%,0.6)"
    stroke-width="1"
    transform="translate(-85296361.0795414308,-2288500408425480566022940992505649813752.5390625) scale(1,-1) translate(50,-110)"
    />
  
  <line
    x1="85296374.16547893"
    y1="2.2885004084254805e+39"
    x2="85296349.16547893"
    y2="2.2885004084254805e+39"
    stroke="hsla(0,50%,50%,0.6)"
    stroke-width="1"
    transform="translate(-85296361.0795414308,-2288500408425480566022940992505649813752.5390625) scale(1,-1) translate(50,-110)"
    />
  
  <line
    x1="85296361.66547893"
    y1="2.2885004084254805e+39"
    x2="85296386.66547893"
    y2="2.2885004084254805e+39"
    stroke="hsla(0,50%,50%,0.6)"
    stroke-width="1"
    transform="translate(-85296361.0795414308,-2288500408425480566022940992505649813752.5390625) scale(1,-1) translate(50,-110)"
    />
  
  <line
    x1="85296349.16547893"
    y1="2.2885004084254805e+39"
    x2="85296399.16547893"
    y2="2.2885004084254805e+39"
    stroke="hsla(0,50%,50%,0.6)"
    stroke-width="1"
    transform="translate(-85296361.0795414308,-2288500408425480566022940992505649813752.5390625) scale(1,-1) translate(50,-110)"
    />
  
  <line
    x1="85296349.16547893"
    y1="2.2885004084254805e+39"
    x2="85296399.16547893"
    y2="2.2885004084254805e+39"
    stroke="hsla(0,50%,50%,0.6)"
    stroke-width="1"
    transform="translate(-85296361.0795414308,-2288500408425480566022940992505649813752.5390625) scale(1,-1) translate(50,-110)"
    />
  
</svg>
