<?xml version="1.0"?>
<!DOCTYPE svg PUBLIC "-//W3C//DTD SVG 1.1//EN"
  "http://www.w3.org/Graphics/SVG/1.1/DTD/svg11.dtd">
<svg
  width="240"
  height="240"
  viewBox="-500 -500 1000 1000" xmlns="http://www.w3.org/2000/svg" version="1.1">
  <rect
    x="0"
    y="0"
    width="100"
    height="100"
    fill="hsla(206,100%,53%,0.3)"
    stroke="hsl(206,100%,53%)"
    stroke-width="3"
    transform="" />
  
  <path
    d="M 
      52.8043577734
      -21.2962962962
      L
    
      78.7037037037
      -21.2962962962
      L
    
      78.7037037037
      0
      L
    
      1.7369406224
      76.9667630812
      L
    
      0.8086930034
      76.8189219896
      L
    
      0.6024989076
      76.1759889246
      L
    
      1.3328375157
      74.4295270356
      L
    
      -1.8144825597
      54.6684962261
      L
    
      10.4107858710
      52.7213896641
      L
    
      39.5667294157
      -16.9993448990
      L
    
      40.3094131025
      -18.0089763949
      L
    
      48.2041444660
      -12.2016217114
      z
    "
    fill="hsla(0,0%,50%,0.3)"
    stroke="hsla(0,0%,50%,1)"
    stroke-width="1"
    transform="translate(-38.4446105719,-27.8352333924)"
    />
  
  
  <line
    x1="52.804357773471146"
    y1="-21.296296296296298"
    x2="72.80728528279931"
    y2="5.8964184209043955"
    stroke="hsla(0,50%,50%,0.6)"
    stroke-width="1"
    transform="translate(-38.4446105719,-27.8352333924)"
    />
  
  <line
    x1="40.30941310257583"
    y1="-18.008976394907545"
    x2="72.80728528279931"
    y2="5.8964184209043955"
    stroke="hsla(0,50%,50%,0.6)"
    stroke-width="1"
    transform="translate(-38.4446105719,-27.8352333924)"
    />
  
  <line
    x1="52.804357773471146"
    y1="-21.296296296296298"
    x2="78.70370370370371"
    y2="-21.296296296296298"
    stroke="hsla(0,50%,50%,0.6)"
    stroke-width="1"
    transform="translate(-38.4446105719,-27.8352333924)"
    />
  
  <line
    x1="32.45791245791246"
    y1="0"
    x2="55.253340002917945"
    y2="23.10594218303841"
    stroke="hsla(0,50%,50%,0.6)"
    stroke-width="1"
    transform="translate(-38.4446105719,-27.8352333924)"
    />
  
  <line
    x1="32.45791245791246"
    y1="0"
    x2="78.70370370370371"
    y2="0"
    stroke="hsla(0,50%,50%,0.6)"
    stroke-width="1"
    transform="translate(-38.4446105719,-27.8352333924)"
    />
  
  <line
    x1="78.70370370370371"
    y1="-21.296296296296298"
    x2="78.70370370370371"
    y2="0"
    stroke="hsla(0,50%,50%,0.6)"
    stroke-width="1"
    transform="translate(-38.4446105719,-27.8352333924)"
    />
  
  <line
    x1="-1.8144825597340601"
    y1="54.66849622616057"
    x2="1.7369406224775308"
    y2="76.96676308122618"
    stroke="hsla(0,50%,50%,0.6)"
    stroke-width="1"
    transform="translate(-38.4446105719,-27.8352333924)"
    />
  
  <line
    x1="39.566729415714356"
    y1="-16.999344899091493"
    x2="28.932201875821704"
    y2="49.771501827882"
    stroke="hsla(0,50%,50%,0.6)"
    stroke-width="1"
    transform="translate(-38.4446105719,-27.8352333924)"
    />
  
  <line
    x1="0.6024989076085068"
    y1="76.17598892463988"
    x2="0.8086930034676023"
    y2="76.81892198961077"
    stroke="hsla(0,50%,50%,0.6)"
    stroke-width="1"
    transform="translate(-38.4446105719,-27.8352333924)"
    />
  
  <line
    x1="39.566729415714356"
    y1="-16.999344899091493"
    x2="0.6024989076085068"
    y2="76.17598892463988"
    stroke="hsla(0,50%,50%,0.6)"
    stroke-width="1"
    transform="translate(-38.4446105719,-27.8352333924)"
    />
  
  <line
    x1="40.30941310257583"
    y1="-18.008976394907545"
    x2="39.566729415714356"
    y2="-16.999344899091493"
    stroke="hsla(0,50%,50%,0.6)"
    stroke-width="1"
    transform="translate(-38.4446105719,-27.8352333924)"
    />
  
  <line
    x1="52.804357773471146"
    y1="-21.296296296296298"
    x2="4.498229847494553"
    y2="74.20547385620915"
    stroke="hsla(0,50%,50%,0.6)"
    stroke-width="1"
    transform="translate(-38.4446105719,-27.8352333924)"
    />
  
  <line
    x1="55.253340002917945"
    y1="23.10594218303841"
    x2="0.8086930034676023"
    y2="76.81892198961077"
    stroke="hsla(0,50%,50%,0.6)"
    stroke-width="1"
    transform="translate(-38.4446105719,-27.8352333924)"
    />
  
  <line
    x1="78.70370370370371"
    y1="0"
    x2="1.7369406224775308"
    y2="76.96676308122618"
    stroke="hsla(0,50%,50%,0.6)"
    stroke-width="1"
    transform="translate(-38.4446105719,-27.8352333924)"
    />
  
  <line
    x1="28.932201875821704"
    y1="49.771501827882"
    x2="-1.8144825597340601"
    y2="54.66849622616057"
    stroke="hsla(0,50%,50%,0.6)"
    stroke-width="1"
    transform="translate(-38.4446105719,-27.8352333924)"
    />
  
  <line
    x1="4.498229847494553"
    y1="74.20547385620915"
    x2="0.6024989076085068"
    y2="76.17598892463988"
    stroke="hsla(0,50%,50%,0.6)"
    stroke-width="1"
    transform="translate(-38.4446105719,-27.8352333924)"
    />
  
  <line
    x1="0.8086930034676023"
    y1="76.81892198961077"
    x2="1.7369406224775308"
    y2="76.96676308122618"
    stroke="hsla(0,50%,50%,0.6)"
    stroke-width="1"
    transform="translate(-38.4446105719,-27.8352333924)"
    />
  
</svg>
