<?xml version="1.0"?>
<!DOCTYPE svg PUBLIC "-//W3C//DTD SVG 1.1//EN"
  "http://www.w3.org/Graphics/SVG/1.1/DTD/svg11.dtd">
<svg
  width="240"
  height="240"
  viewBox="-500 -500 1000 1000" xmlns="http://www.w3.org/2000/svg" version="1.1">
  <rect
    x="0"
    y="0"
    width="100"
    height="100"
    fill="hsla(206,100%,53%,0.3)"
    stroke="hsl(206,100%,53%)"
    stroke-width="3"
    transform="" />
  
  <path
    d="M 
      68.8339636685
      69.0779346691
      L
    
      87.8491225036
      104.4957795283
      L
    
      86.5766900742
      107.5893200098
      L
    
      38.3044509985
      152.1017195511
      L
    
      7.1639581973
      136.1245574721
      L
    
      9.1061171202
      132.3391676978
      L
    
      27.6536711632
      126.4137030982
      L
    
      24.8992999534
      119.7705901947
      L
    
      63.2914843502
      71.3759605625
      z
    "
    fill="hsla(0,0%,50%,0.3)"
    stroke="hsla(0,0%,50%,1)"
    stroke-width="1"
    transform="translate(-47.5065403505,-110.5898271101)"
    />
  
  
  <line
    x1="68.83396366851208"
    y1="69.07793466912531"
    x2="87.84912250365863"
    y2="104.49577952837878"
    stroke="hsla(0,50%,50%,0.6)"
    stroke-width="1"
    transform="translate(-47.5065403505,-110.5898271101)"
    />
  
  <line
    x1="43.00030381094754"
    y1="121.38648612070935"
    x2="48.641902981081394"
    y2="142.56943346503837"
    stroke="hsla(0,50%,50%,0.6)"
    stroke-width="1"
    transform="translate(-47.5065403505,-110.5898271101)"
    />
  
  <line
    x1="43.00030381094754"
    y1="121.38648612070935"
    x2="44.524650977625534"
    y2="146.3659999740577"
    stroke="hsla(0,50%,50%,0.6)"
    stroke-width="1"
    transform="translate(-47.5065403505,-110.5898271101)"
    />
  
  <line
    x1="78.24109549808604"
    y1="107.44295055500544"
    x2="81.65490200223104"
    y2="112.1277586924516"
    stroke="hsla(0,50%,50%,0.6)"
    stroke-width="1"
    transform="translate(-47.5065403505,-110.5898271101)"
    />
  
  <line
    x1="43.05461504443004"
    y1="121.49349919658746"
    x2="39.60065996449665"
    y2="145.6623145204922"
    stroke="hsla(0,50%,50%,0.6)"
    stroke-width="1"
    transform="translate(-47.5065403505,-110.5898271101)"
    />
  
  <line
    x1="24.89929995342665"
    y1="119.7705901947767"
    x2="38.304450998544034"
    y2="152.10171955113523"
    stroke="hsla(0,50%,50%,0.6)"
    stroke-width="1"
    transform="translate(-47.5065403505,-110.5898271101)"
    />
  
  <line
    x1="41.04132164736062"
    y1="99.423033168119"
    x2="61.87009850756961"
    y2="130.3715587494586"
    stroke="hsla(0,50%,50%,0.6)"
    stroke-width="1"
    transform="translate(-47.5065403505,-110.5898271101)"
    />
  
  <line
    x1="63.29148435027919"
    y1="71.37596056257401"
    x2="54.4989503625817"
    y2="124.65533129905312"
    stroke="hsla(0,50%,50%,0.6)"
    stroke-width="1"
    transform="translate(-47.5065403505,-110.5898271101)"
    />
  
  <line
    x1="12.54898076382403"
    y1="131.66658414772212"
    x2="13.098799450858115"
    y2="132.9007150012099"
    stroke="hsla(0,50%,50%,0.6)"
    stroke-width="1"
    transform="translate(-47.5065403505,-110.5898271101)"
    />
  
  <line
    x1="48.54353083112883"
    y1="119.73993233225158"
    x2="46.88719213488806"
    y2="125.52264409537601"
    stroke="hsla(0,50%,50%,0.6)"
    stroke-width="1"
    transform="translate(-47.5065403505,-110.5898271101)"
    />
  
  <line
    x1="79.14186837845409"
    y1="109.96455356678057"
    x2="81.65490200223104"
    y2="112.1277586924516"
    stroke="hsla(0,50%,50%,0.6)"
    stroke-width="1"
    transform="translate(-47.5065403505,-110.5898271101)"
    />
  
  <line
    x1="79.14186837845409"
    y1="109.96455356678057"
    x2="77.71305186334223"
    y2="115.76258507867156"
    stroke="hsla(0,50%,50%,0.6)"
    stroke-width="1"
    transform="translate(-47.5065403505,-110.5898271101)"
    />
  
  <line
    x1="60.85388534095522"
    y1="74.44863545985672"
    x2="50.06932527731978"
    y2="102.85102148299808"
    stroke="hsla(0,50%,50%,0.6)"
    stroke-width="1"
    transform="translate(-47.5065403505,-110.5898271101)"
    />
  
  <line
    x1="9.106117120201718"
    y1="132.33916769785372"
    x2="7.163958197351041"
    y2="136.12455747212863"
    stroke="hsla(0,50%,50%,0.6)"
    stroke-width="1"
    transform="translate(-47.5065403505,-110.5898271101)"
    />
  
  <line
    x1="78.24109549808604"
    y1="107.44295055500544"
    x2="74.47209414957729"
    y2="118.75111031416843"
    stroke="hsla(0,50%,50%,0.6)"
    stroke-width="1"
    transform="translate(-47.5065403505,-110.5898271101)"
    />
  
  <line
    x1="43.05461504443004"
    y1="121.49349919658746"
    x2="46.88719213488806"
    y2="125.52264409537601"
    stroke="hsla(0,50%,50%,0.6)"
    stroke-width="1"
    transform="translate(-47.5065403505,-110.5898271101)"
    />
  
  <line
    x1="87.84912250365863"
    y1="104.49577952837878"
    x2="86.57669007424204"
    y2="107.58932000980512"
    stroke="hsla(0,50%,50%,0.6)"
    stroke-width="1"
    transform="translate(-47.5065403505,-110.5898271101)"
    />
  
  <line
    x1="48.54353083112883"
    y1="119.73993233225158"
    x2="61.87009850756961"
    y2="130.3715587494586"
    stroke="hsla(0,50%,50%,0.6)"
    stroke-width="1"
    transform="translate(-47.5065403505,-110.5898271101)"
    />
  
  <line
    x1="14.756709404181839"
    y1="130.53394936729177"
    x2="13.098799450858115"
    y2="132.9007150012099"
    stroke="hsla(0,50%,50%,0.6)"
    stroke-width="1"
    transform="translate(-47.5065403505,-110.5898271101)"
    />
  
  <line
    x1="63.29148435027919"
    y1="71.37596056257401"
    x2="24.89929995342665"
    y2="119.7705901947767"
    stroke="hsla(0,50%,50%,0.6)"
    stroke-width="1"
    transform="translate(-47.5065403505,-110.5898271101)"
    />
  
  <line
    x1="41.04132164736062"
    y1="99.423033168119"
    x2="50.06932527731978"
    y2="102.85102148299808"
    stroke="hsla(0,50%,50%,0.6)"
    stroke-width="1"
    transform="translate(-47.5065403505,-110.5898271101)"
    />
  
  <line
    x1="68.83396366851208"
    y1="69.07793466912531"
    x2="60.85388534095522"
    y2="74.44863545985672"
    stroke="hsla(0,50%,50%,0.6)"
    stroke-width="1"
    transform="translate(-47.5065403505,-110.5898271101)"
    />
  
  <line
    x1="68.83396366851208"
    y1="69.07793466912531"
    x2="63.29148435027919"
    y2="71.37596056257401"
    stroke="hsla(0,50%,50%,0.6)"
    stroke-width="1"
    transform="translate(-47.5065403505,-110.5898271101)"
    />
  
  <line
    x1="9.106117120201718"
    y1="132.33916769785372"
    x2="9.525794745183076"
    y2="132.55674932729465"
    stroke="hsla(0,50%,50%,0.6)"
    stroke-width="1"
    transform="translate(-47.5065403505,-110.5898271101)"
    />
  
  <line
    x1="86.57669007424204"
    y1="107.58932000980512"
    x2="38.304450998544034"
    y2="152.10171955113523"
    stroke="hsla(0,50%,50%,0.6)"
    stroke-width="1"
    transform="translate(-47.5065403505,-110.5898271101)"
    />
  
  <line
    x1="12.54898076382403"
    y1="131.66658414772212"
    x2="15.780000234041713"
    y2="133.1588285807484"
    stroke="hsla(0,50%,50%,0.6)"
    stroke-width="1"
    transform="translate(-47.5065403505,-110.5898271101)"
    />
  
  <line
    x1="7.163958197351041"
    y1="136.12455747212863"
    x2="38.304450998544034"
    y2="152.10171955113523"
    stroke="hsla(0,50%,50%,0.6)"
    stroke-width="1"
    transform="translate(-47.5065403505,-110.5898271101)"
    />
  
  <line
    x1="14.756709404181839"
    y1="130.53394936729177"
    x2="48.641902981081394"
    y2="142.56943346503837"
    stroke="hsla(0,50%,50%,0.6)"
    stroke-width="1"
    transform="translate(-47.5065403505,-110.5898271101)"
    />
  
  <line
    x1="24.89929995342665"
    y1="119.7705901947767"
    x2="54.4989503625817"
    y2="124.65533129905312"
    stroke="hsla(0,50%,50%,0.6)"
    stroke-width="1"
    transform="translate(-47.5065403505,-110.5898271101)"
    />
  
  <line
    x1="87.84912250365863"
    y1="104.49577952837878"
    x2="78.24109549808604"
    y2="107.44295055500544"
    stroke="hsla(0,50%,50%,0.6)"
    stroke-width="1"
    transform="translate(-47.5065403505,-110.5898271101)"
    />
  
  <line
    x1="86.57669007424204"
    y1="107.58932000980512"
    x2="9.106117120201718"
    y2="132.33916769785372"
    stroke="hsla(0,50%,50%,0.6)"
    stroke-width="1"
    transform="translate(-47.5065403505,-110.5898271101)"
    />
  
  <line
    x1="12.54898076382403"
    y1="131.66658414772212"
    x2="9.525794745183076"
    y2="132.55674932729465"
    stroke="hsla(0,50%,50%,0.6)"
    stroke-width="1"
    transform="translate(-47.5065403505,-110.5898271101)"
    />
  
  <line
    x1="77.71305186334223"
    y1="115.76258507867156"
    x2="43.00030381094754"
    y2="121.38648612070935"
    stroke="hsla(0,50%,50%,0.6)"
    stroke-width="1"
    transform="translate(-47.5065403505,-110.5898271101)"
    />
  
  <line
    x1="74.47209414957729"
    y1="118.75111031416843"
    x2="15.780000234041713"
    y2="133.1588285807484"
    stroke="hsla(0,50%,50%,0.6)"
    stroke-width="1"
    transform="translate(-47.5065403505,-110.5898271101)"
    />
  
  <line
    x1="9.525794745183076"
    y1="132.55674932729465"
    x2="15.780000234041713"
    y2="133.1588285807484"
    stroke="hsla(0,50%,50%,0.6)"
    stroke-width="1"
    transform="translate(-47.5065403505,-110.5898271101)"
    />
  
  <line
    x1="39.60065996449665"
    y1="145.6623145204922"
    x2="44.524650977625534"
    y2="146.3659999740577"
    stroke="hsla(0,50%,50%,0.6)"
    stroke-width="1"
    transform="translate(-47.5065403505,-110.5898271101)"
    />
  
</svg>
