<?xml version="1.0"?>
<!DOCTYPE svg PUBLIC "-//W3C//DTD SVG 1.1//EN"
  "http://www.w3.org/Graphics/SVG/1.1/DTD/svg11.dtd">
<svg
  width="240"
  height="240"
  viewBox="-50 -50 200 200" xmlns="http://www.w3.org/2000/svg" version="1.1">
  <rect
    x="0"
    y="0"
    width="100"
    height="100"
    fill="hsla(206,100%,53%,0.3)"
    stroke="hsl(206,100%,53%)"
    stroke-width="3"
    transform="" />
  
  <path
    d="M 
      0
      0
      L
    
      23.4693877551
      0
      L
    
      26.1720904578
      2.7027027027
      L
    
      26.1720904578
      61.6161616161
      L
    
      38.3838383838
      61.6161616161
      L
    
      38.3838383838
      64.3188643188
      L
    
      26.1720904578
      64.3188643188
      L
    
      23.4693877551
      61.6161616161
      L
    
      23.4693877551
      2.7027027027
      L
    
      0
      2.7027027027
      z
    "
    fill="hsla(0,0%,50%,0.3)"
    stroke="hsla(0,0%,50%,1)"
    stroke-width="1"
    transform="translate(-12.5885613190,-17.2136269792) scale(1,-1) translate(50,-110)"
    />
  
  
  <line
    x1="23.46938775510204"
    y1="0"
    x2="26.172090457804742"
    y2="2.7027027027027026"
    stroke="hsla(0,50%,50%,0.6)"
    stroke-width="1"
    transform="translate(-12.5885613190,-17.2136269792) scale(1,-1) translate(50,-110)"
    />
  
  <line
    x1="0"
    y1="0"
    x2="23.46938775510204"
    y2="0"
    stroke="hsla(0,50%,50%,0.6)"
    stroke-width="1"
    transform="translate(-12.5885613190,-17.2136269792) scale(1,-1) translate(50,-110)"
    />
  
  <line
    x1="0"
    y1="0"
    x2="0"
    y2="2.7027027027027026"
    stroke="hsla(0,50%,50%,0.6)"
    stroke-width="1"
    transform="translate(-12.5885613190,-17.2136269792) scale(1,-1) translate(50,-110)"
    />
  
  <line
    x1="23.46938775510204"
    y1="0"
    x2="23.46938775510204"
    y2="61.61616161616162"
    stroke="hsla(0,50%,50%,0.6)"
    stroke-width="1"
    transform="translate(-12.5885613190,-17.2136269792) scale(1,-1) translate(50,-110)"
    />
  
  <line
    x1="26.172090457804742"
    y1="2.7027027027027026"
    x2="26.172090457804742"
    y2="64.31886431886431"
    stroke="hsla(0,50%,50%,0.6)"
    stroke-width="1"
    transform="translate(-12.5885613190,-17.2136269792) scale(1,-1) translate(50,-110)"
    />
  
  <line
    x1="38.38383838383838"
    y1="61.61616161616162"
    x2="38.38383838383838"
    y2="64.31886431886431"
    stroke="hsla(0,50%,50%,0.6)"
    stroke-width="1"
    transform="translate(-12.5885613190,-17.2136269792) scale(1,-1) translate(50,-110)"
    />
  
  <line
    x1="0"
    y1="2.7027027027027026"
    x2="26.172090457804742"
    y2="2.7027027027027026"
    stroke="hsla(0,50%,50%,0.6)"
    stroke-width="1"
    transform="translate(-12.5885613190,-17.2136269792) scale(1,-1) translate(50,-110)"
    />
  
  <line
    x1="23.46938775510204"
    y1="61.61616161616162"
    x2="26.172090457804742"
    y2="64.31886431886431"
    stroke="hsla(0,50%,50%,0.6)"
    stroke-width="1"
    transform="translate(-12.5885613190,-17.2136269792) scale(1,-1) translate(50,-110)"
    />
  
  <line
    x1="23.46938775510204"
    y1="61.61616161616162"
    x2="38.38383838383838"
    y2="61.61616161616162"
    stroke="hsla(0,50%,50%,0.6)"
    stroke-width="1"
    transform="translate(-12.5885613190,-17.2136269792) scale(1,-1) translate(50,-110)"
    />
  
  <line
    x1="26.172090457804742"
    y1="64.31886431886431"
    x2="38.38383838383838"
    y2="64.31886431886431"
    stroke="hsla(0,50%,50%,0.6)"
    stroke-width="1"
    transform="translate(-12.5885613190,-17.2136269792) scale(1,-1) translate(50,-110)"
    />
  
</svg>
