<?xml version="1.0"?>
<!DOCTYPE svg PUBLIC "-//W3C//DTD SVG 1.1//EN"
  "http://www.w3.org/Graphics/SVG/1.1/DTD/svg11.dtd">
<svg
  width="240"
  height="240"
  viewBox="-50 -50 200 200" xmlns="http://www.w3.org/2000/svg" version="1.1">
  <rect
    x="0"
    y="0"
    width="100"
    height="100"
    fill="hsla(206,100%,53%,0.3)"
    stroke="hsl(206,100%,53%)"
    stroke-width="3"
    transform="" />
  
  <path
    d="M 
      85296431.3083360736
      2288500408425480566022940992505649813742.8571428571
      L
    
      85296445.5940503593
      2288500408425480566022940992505649813742.8571428571
      L
    
      85296467.0226217879
      2288500408425480566022940992505649813757.1428571428
      L
    
      85296488.4511932165
      2288500408425480566022940992505649813757.1428571428
      L
    
      85296488.4511932165
      2288500408425480566022940992505649813771.4285714285
      L
    
      85296474.1654789308
      2288500408425480566022940992505649813792.8571428571
      L
    
      85296474.1654789308
      2288500408425480566022940992505649813814.2857142857
      L
    
      85296459.8797646450
      2288500408425480566022940992505649813814.2857142857
      L
    
      85296438.4511932165
      2288500408425480566022940992505649813800
      L
    
      85296417.0226217879
      2288500408425480566022940992505649813800
      L
    
      85296417.0226217879
      2288500408425480566022940992505649813785.7142857142
      L
    
      85296431.3083360736
      2288500408425480566022940992505649813764.2857142857
      z
    "
    fill="hsla(0,0%,50%,0.3)"
    stroke="hsla(0,0%,50%,1)"
    stroke-width="1"
    transform="translate(-85296428.6716173236,-2288500408425480566022940992505649813778.8922991071) scale(1,-1) translate(50,-110)"
    />
  
  
  <line
    x1="85296417.02262178"
    y1="2.2885004084254808e+39"
    x2="85296417.02262178"
    y2="2.2885004084254805e+39"
    stroke="hsla(0,50%,50%,0.6)"
    stroke-width="1"
    transform="translate(-85296428.6716173236,-2288500408425480566022940992505649813778.8922991071) scale(1,-1) translate(50,-110)"
    />
  
  <line
    x1="85296431.30833606"
    y1="2.2885004084254808e+39"
    x2="85296431.30833606"
    y2="2.2885004084254808e+39"
    stroke="hsla(0,50%,50%,0.6)"
    stroke-width="1"
    transform="translate(-85296428.6716173236,-2288500408425480566022940992505649813778.8922991071) scale(1,-1) translate(50,-110)"
    />
  
  <line
    x1="85296445.59405036"
    y1="2.2885004084254808e+39"
    x2="85296445.59405036"
    y2="2.2885004084254805e+39"
    stroke="hsla(0,50%,50%,0.6)"
    stroke-width="1"
    transform="translate(-85296428.6716173236,-2288500408425480566022940992505649813778.8922991071) scale(1,-1) translate(50,-110)"
    />
  
  <line
    x1="85296459.87976465"
    y1="2.2885004084254808e+39"
    x2="85296459.87976465"
    y2="2.2885004084254808e+39"
    stroke="hsla(0,50%,50%,0.6)"
    stroke-width="1"
    transform="translate(-85296428.6716173236,-2288500408425480566022940992505649813778.8922991071) scale(1,-1) translate(50,-110)"
    />
  
  <line
    x1="85296474.16547893"
    y1="2.2885004084254808e+39"
    x2="85296474.16547893"
    y2="2.2885004084254808e+39"
    stroke="hsla(0,50%,50%,0.6)"
    stroke-width="1"
    transform="translate(-85296428.6716173236,-2288500408425480566022940992505649813778.8922991071) scale(1,-1) translate(50,-110)"
    />
  
  <line
    x1="85296488.45119321"
    y1="2.2885004084254808e+39"
    x2="85296488.45119321"
    y2="2.2885004084254808e+39"
    stroke="hsla(0,50%,50%,0.6)"
    stroke-width="1"
    transform="translate(-85296428.6716173236,-2288500408425480566022940992505649813778.8922991071) scale(1,-1) translate(50,-110)"
    />
  
  <line
    x1="85296445.59405036"
    y1="2.2885004084254808e+39"
    x2="85296462.07756683"
    y2="2.2885004084254805e+39"
    stroke="hsla(0,50%,50%,0.6)"
    stroke-width="1"
    transform="translate(-85296428.6716173236,-2288500408425480566022940992505649813778.8922991071) scale(1,-1) translate(50,-110)"
    />
  
  <line
    x1="85296443.39624816"
    y1="2.2885004084254805e+39"
    x2="85296459.87976465"
    y2="2.2885004084254808e+39"
    stroke="hsla(0,50%,50%,0.6)"
    stroke-width="1"
    transform="translate(-85296428.6716173236,-2288500408425480566022940992505649813778.8922991071) scale(1,-1) translate(50,-110)"
    />
  
  <line
    x1="85296459.87976465"
    y1="2.2885004084254808e+39"
    x2="85296474.16547893"
    y2="2.2885004084254808e+39"
    stroke="hsla(0,50%,50%,0.6)"
    stroke-width="1"
    transform="translate(-85296428.6716173236,-2288500408425480566022940992505649813778.8922991071) scale(1,-1) translate(50,-110)"
    />
  
  <line
    x1="85296431.30833606"
    y1="2.2885004084254808e+39"
    x2="85296445.59405036"
    y2="2.2885004084254805e+39"
    stroke="hsla(0,50%,50%,0.6)"
    stroke-width="1"
    transform="translate(-85296428.6716173236,-2288500408425480566022940992505649813778.8922991071) scale(1,-1) translate(50,-110)"
    />
  
  <line
    x1="85296445.59405036"
    y1="2.2885004084254808e+39"
    x2="85296417.02262178"
    y2="2.2885004084254808e+39"
    stroke="hsla(0,50%,50%,0.6)"
    stroke-width="1"
    transform="translate(-85296428.6716173236,-2288500408425480566022940992505649813778.8922991071) scale(1,-1) translate(50,-110)"
    />
  
  <line
    x1="85296488.45119321"
    y1="2.2885004084254808e+39"
    x2="85296459.87976465"
    y2="2.2885004084254808e+39"
    stroke="hsla(0,50%,50%,0.6)"
    stroke-width="1"
    transform="translate(-85296428.6716173236,-2288500408425480566022940992505649813778.8922991071) scale(1,-1) translate(50,-110)"
    />
  
  <line
    x1="85296445.59405036"
    y1="2.2885004084254808e+39"
    x2="85296488.45119321"
    y2="2.2885004084254808e+39"
    stroke="hsla(0,50%,50%,0.6)"
    stroke-width="1"
    transform="translate(-85296428.6716173236,-2288500408425480566022940992505649813778.8922991071) scale(1,-1) translate(50,-110)"
    />
  
  <line
    x1="85296417.02262178"
    y1="2.2885004084254808e+39"
    x2="85296459.87976465"
    y2="2.2885004084254808e+39"
    stroke="hsla(0,50%,50%,0.6)"
    stroke-width="1"
    transform="translate(-85296428.6716173236,-2288500408425480566022940992505649813778.8922991071) scale(1,-1) translate(50,-110)"
    />
  
  <line
    x1="85296459.87976465"
    y1="2.2885004084254808e+39"
    x2="85296431.30833606"
    y2="2.2885004084254808e+39"
    stroke="hsla(0,50%,50%,0.6)"
    stroke-width="1"
    transform="translate(-85296428.6716173236,-2288500408425480566022940992505649813778.8922991071) scale(1,-1) translate(50,-110)"
    />
  
  <line
    x1="85296474.16547893"
    y1="2.2885004084254808e+39"
    x2="85296445.59405036"
    y2="2.2885004084254805e+39"
    stroke="hsla(0,50%,50%,0.6)"
    stroke-width="1"
    transform="translate(-85296428.6716173236,-2288500408425480566022940992505649813778.8922991071) scale(1,-1) translate(50,-110)"
    />
  
  <line
    x1="85296456.58306134"
    y1="2.2885004084254805e+39"
    x2="85296417.02262178"
    y2="2.2885004084254808e+39"
    stroke="hsla(0,50%,50%,0.6)"
    stroke-width="1"
    transform="translate(-85296428.6716173236,-2288500408425480566022940992505649813778.8922991071) scale(1,-1) translate(50,-110)"
    />
  
  <line
    x1="85296488.45119321"
    y1="2.2885004084254808e+39"
    x2="85296448.89075366"
    y2="2.2885004084254805e+39"
    stroke="hsla(0,50%,50%,0.6)"
    stroke-width="1"
    transform="translate(-85296428.6716173236,-2288500408425480566022940992505649813778.8922991071) scale(1,-1) translate(50,-110)"
    />
  
  <line
    x1="85296431.30833606"
    y1="2.2885004084254808e+39"
    x2="85296445.59405036"
    y2="2.2885004084254808e+39"
    stroke="hsla(0,50%,50%,0.6)"
    stroke-width="1"
    transform="translate(-85296428.6716173236,-2288500408425480566022940992505649813778.8922991071) scale(1,-1) translate(50,-110)"
    />
  
  <line
    x1="85296459.87976465"
    y1="2.2885004084254808e+39"
    x2="85296488.45119321"
    y2="2.2885004084254808e+39"
    stroke="hsla(0,50%,50%,0.6)"
    stroke-width="1"
    transform="translate(-85296428.6716173236,-2288500408425480566022940992505649813778.8922991071) scale(1,-1) translate(50,-110)"
    />
  
  <line
    x1="85296431.30833606"
    y1="2.2885004084254808e+39"
    x2="85296488.45119321"
    y2="2.2885004084254808e+39"
    stroke="hsla(0,50%,50%,0.6)"
    stroke-width="1"
    transform="translate(-85296428.6716173236,-2288500408425480566022940992505649813778.8922991071) scale(1,-1) translate(50,-110)"
    />
  
  <line
    x1="85296417.02262178"
    y1="2.2885004084254808e+39"
    x2="85296474.16547893"
    y2="2.2885004084254808e+39"
    stroke="hsla(0,50%,50%,0.6)"
    stroke-width="1"
    transform="translate(-85296428.6716173236,-2288500408425480566022940992505649813778.8922991071) scale(1,-1) translate(50,-110)"
    />
  
  <line
    x1="85296417.02262178"
    y1="2.2885004084254805e+39"
    x2="85296445.59405036"
    y2="2.2885004084254805e+39"
    stroke="hsla(0,50%,50%,0.6)"
    stroke-width="1"
    transform="translate(-85296428.6716173236,-2288500408425480566022940992505649813778.8922991071) scale(1,-1) translate(50,-110)"
    />
  
  <line
    x1="85296459.87976465"
    y1="2.2885004084254808e+39"
    x2="85296474.16547893"
    y2="2.2885004084254808e+39"
    stroke="hsla(0,50%,50%,0.6)"
    stroke-width="1"
    transform="translate(-85296428.6716173236,-2288500408425480566022940992505649813778.8922991071) scale(1,-1) translate(50,-110)"
    />
  
</svg>
