<?xml version="1.0"?>
<!DOCTYPE svg PUBLIC "-//W3C//DTD SVG 1.1//EN"
  "http://www.w3.org/Graphics/SVG/1.1/DTD/svg11.dtd">
<svg
  width="240"
  height="240"
  viewBox="-50 -50 200 200" xmlns="http://www.w3.org/2000/svg" version="1.1">
  <rect
    x="0"
    y="0"
    width="100"
    height="100"
    fill="hsla(206,100%,53%,0.3)"
    stroke="hsl(206,100%,53%)"
    stroke-width="3"
    transform="" />
  
  <path
    d="M 
      85296404.1654789308
      2288500408425480566022940992505649813660
      L
    
      85296457.4988122641
      2288500408425480566022940992505649813700
      L
    
      85296474.1654789308
      2288500408425480566022940992505649813700
      L
    
      85296474.1654789308
      2288500408425480566022940992505649813712.5
      L
    
      85296374.1654789308
      2288500408425480566022940992505649813762.5
      L
    
      85296344.1654789308
      2288500408425480566022940992505649813740
      z
    "
    fill="hsla(0,0%,50%,0.3)"
    stroke="hsla(0,0%,50%,1)"
    stroke-width="1"
    transform="translate(-85296381.4571455974,-2288500408425480566022940992505649813735.9375) scale(1,-1) translate(50,-110)"
    />
  
  
  <line
    x1="85296374.16547893"
    y1="2.2885004084254805e+39"
    x2="85296374.16547893"
    y2="2.2885004084254805e+39"
    stroke="hsla(0,50%,50%,0.6)"
    stroke-width="1"
    transform="translate(-85296381.4571455974,-2288500408425480566022940992505649813735.9375) scale(1,-1) translate(50,-110)"
    />
  
  <line
    x1="85296474.16547893"
    y1="2.2885004084254805e+39"
    x2="85296474.16547893"
    y2="2.2885004084254805e+39"
    stroke="hsla(0,50%,50%,0.6)"
    stroke-width="1"
    transform="translate(-85296381.4571455974,-2288500408425480566022940992505649813735.9375) scale(1,-1) translate(50,-110)"
    />
  
  <line
    x1="85296404.16547893"
    y1="2.2885004084254805e+39"
    x2="85296344.16547893"
    y2="2.2885004084254805e+39"
    stroke="hsla(0,50%,50%,0.6)"
    stroke-width="1"
    transform="translate(-85296381.4571455974,-2288500408425480566022940992505649813735.9375) scale(1,-1) translate(50,-110)"
    />
  
  <line
    x1="85296404.16547893"
    y1="2.2885004084254805e+39"
    x2="85296474.16547893"
    y2="2.2885004084254805e+39"
    stroke="hsla(0,50%,50%,0.6)"
    stroke-width="1"
    transform="translate(-85296381.4571455974,-2288500408425480566022940992505649813735.9375) scale(1,-1) translate(50,-110)"
    />
  
  <line
    x1="85296344.16547893"
    y1="2.2885004084254805e+39"
    x2="85296374.16547893"
    y2="2.2885004084254805e+39"
    stroke="hsla(0,50%,50%,0.6)"
    stroke-width="1"
    transform="translate(-85296381.4571455974,-2288500408425480566022940992505649813735.9375) scale(1,-1) translate(50,-110)"
    />
  
  <line
    x1="85296474.16547893"
    y1="2.2885004084254805e+39"
    x2="85296374.16547893"
    y2="2.2885004084254805e+39"
    stroke="hsla(0,50%,50%,0.6)"
    stroke-width="1"
    transform="translate(-85296381.4571455974,-2288500408425480566022940992505649813735.9375) scale(1,-1) translate(50,-110)"
    />
  
  <line
    x1="85296374.16547893"
    y1="2.2885004084254805e+39"
    x2="85296474.16547893"
    y2="2.2885004084254805e+39"
    stroke="hsla(0,50%,50%,0.6)"
    stroke-width="1"
    transform="translate(-85296381.4571455974,-2288500408425480566022940992505649813735.9375) scale(1,-1) translate(50,-110)"
    />
  
</svg>
