<?xml version="1.0"?>
<!DOCTYPE svg PUBLIC "-//W3C//DTD SVG 1.1//EN"
  "http://www.w3.org/Graphics/SVG/1.1/DTD/svg11.dtd">
<svg
  width="240"
  height="240"
  viewBox="-50 -50 200 200" xmlns="http://www.w3.org/2000/svg" version="1.1">
  <rect
    x="0"
    y="0"
    width="100"
    height="100"
    fill="hsla(206,100%,53%,0.3)"
    stroke="hsl(206,100%,53%)"
    stroke-width="3"
    transform="" />
  
  <path
    d="M 
      15.4655140018
      13.3858267716
      L
    
      47.2773368877
      18.6295338407
      L
    
      49.1550565632
      53.6803011165
      L
    
      25.2075945469
      68.2899409631
      L
    
      11.5872739521
      59.3223917060
      L
    
      10.9222451148
      61.2840408894
      L
    
      9.1674457069
      57.7291891943
      L
    
      6.4465448430
      55.9377620138
      L
    
      8.1136232351
      55.5943682094
      L
    
      -2.5641025641
      33.9635587348
      z
    "
    fill="hsla(0,0%,50%,0.3)"
    stroke="hsla(0,0%,50%,1)"
    stroke-width="1"
    transform="translate(-12.0651038007,-45.6895456463) scale(1,-1) translate(50,-110)"
    />
  
  <path
    d="M 
      17.8401643131
      40.8781129273
      L
    
      13.2067979507
      54.5452485939
      L
    
      23.5028245143
      52.4244174752
      L
    
      22.4292619659
      42.4332564964
      z
    "
    fill="hsla(0,0%,50%,0.3)"
    stroke="hsla(0,0%,50%,1)"
    stroke-width="1"
    transform="translate(-12.0651038007,-45.6895456463) scale(1,-1) translate(50,-110)"
    />
  
  
  <line
    x1="15.46551400185668"
    y1="13.385826771653543"
    x2="26.54459017256784"
    y2="40.12842442509427"
    stroke="hsla(0,50%,50%,0.6)"
    stroke-width="1"
    transform="translate(-12.0651038007,-45.6895456463) scale(1,-1) translate(50,-110)"
    />
  
  <line
    x1="20.66419647459882"
    y1="26.006590450390856"
    x2="35.37921724664785"
    y2="57.77508923780225"
    stroke="hsla(0,50%,50%,0.6)"
    stroke-width="1"
    transform="translate(-12.0651038007,-45.6895456463) scale(1,-1) translate(50,-110)"
    />
  
  <line
    x1="47.277336887779995"
    y1="18.62953384076178"
    x2="49.155056563267"
    y2="53.68030111651933"
    stroke="hsla(0,50%,50%,0.6)"
    stroke-width="1"
    transform="translate(-12.0651038007,-45.6895456463) scale(1,-1) translate(50,-110)"
    />
  
  <line
    x1="20.66419647459882"
    y1="26.006590450390856"
    x2="25.207594546964707"
    y2="68.28994096315313"
    stroke="hsla(0,50%,50%,0.6)"
    stroke-width="1"
    transform="translate(-12.0651038007,-45.6895456463) scale(1,-1) translate(50,-110)"
    />
  
  <line
    x1="26.54152121306802"
    y1="15.211542246029039"
    x2="26.54459017256784"
    y2="40.12842442509427"
    stroke="hsla(0,50%,50%,0.6)"
    stroke-width="1"
    transform="translate(-12.0651038007,-45.6895456463) scale(1,-1) translate(50,-110)"
    />
  
  <line
    x1="26.54459017256784"
    y1="40.12842442509427"
    x2="32.00844034678387"
    y2="45.5922745993103"
    stroke="hsla(0,50%,50%,0.6)"
    stroke-width="1"
    transform="translate(-12.0651038007,-45.6895456463) scale(1,-1) translate(50,-110)"
    />
  
  <line
    x1="-2.5641025641025643"
    y1="33.96355873487847"
    x2="10.92224511483651"
    y2="61.28404088948778"
    stroke="hsla(0,50%,50%,0.6)"
    stroke-width="1"
    transform="translate(-12.0651038007,-45.6895456463) scale(1,-1) translate(50,-110)"
    />
  
  <line
    x1="26.54152121306802"
    y1="15.211542246029039"
    x2="10.92224511483651"
    y2="61.28404088948778"
    stroke="hsla(0,50%,50%,0.6)"
    stroke-width="1"
    transform="translate(-12.0651038007,-45.6895456463) scale(1,-1) translate(50,-110)"
    />
  
  <line
    x1="15.46551400185668"
    y1="13.385826771653543"
    x2="47.277336887779995"
    y2="18.62953384076178"
    stroke="hsla(0,50%,50%,0.6)"
    stroke-width="1"
    transform="translate(-12.0651038007,-45.6895456463) scale(1,-1) translate(50,-110)"
    />
  
  <line
    x1="15.46551400185668"
    y1="13.385826771653543"
    x2="-2.5641025641025643"
    y2="33.96355873487847"
    stroke="hsla(0,50%,50%,0.6)"
    stroke-width="1"
    transform="translate(-12.0651038007,-45.6895456463) scale(1,-1) translate(50,-110)"
    />
  
  <line
    x1="32.00844034678387"
    y1="45.5922745993103"
    x2="49.155056563267"
    y2="53.68030111651933"
    stroke="hsla(0,50%,50%,0.6)"
    stroke-width="1"
    transform="translate(-12.0651038007,-45.6895456463) scale(1,-1) translate(50,-110)"
    />
  
  <line
    x1="47.277336887779995"
    y1="18.62953384076178"
    x2="20.66419647459882"
    y2="26.006590450390856"
    stroke="hsla(0,50%,50%,0.6)"
    stroke-width="1"
    transform="translate(-12.0651038007,-45.6895456463) scale(1,-1) translate(50,-110)"
    />
  
  <line
    x1="-2.5641025641025643"
    y1="33.96355873487847"
    x2="49.035551439332394"
    y2="51.44953880307329"
    stroke="hsla(0,50%,50%,0.6)"
    stroke-width="1"
    transform="translate(-12.0651038007,-45.6895456463) scale(1,-1) translate(50,-110)"
    />
  
  <line
    x1="6.44654484309608"
    y1="55.93776201384513"
    x2="25.207594546964707"
    y2="68.28994096315313"
    stroke="hsla(0,50%,50%,0.6)"
    stroke-width="1"
    transform="translate(-12.0651038007,-45.6895456463) scale(1,-1) translate(50,-110)"
    />
  
  <line
    x1="32.00844034678387"
    y1="45.5922745993103"
    x2="48.80853034000454"
    y2="47.21181161561995"
    stroke="hsla(0,50%,50%,0.6)"
    stroke-width="1"
    transform="translate(-12.0651038007,-45.6895456463) scale(1,-1) translate(50,-110)"
    />
  
  <line
    x1="48.80853034000454"
    y1="47.21181161561995"
    x2="6.44654484309608"
    y2="55.93776201384513"
    stroke="hsla(0,50%,50%,0.6)"
    stroke-width="1"
    transform="translate(-12.0651038007,-45.6895456463) scale(1,-1) translate(50,-110)"
    />
  
  <line
    x1="49.155056563267"
    y1="53.68030111651933"
    x2="25.207594546964707"
    y2="68.28994096315313"
    stroke="hsla(0,50%,50%,0.6)"
    stroke-width="1"
    transform="translate(-12.0651038007,-45.6895456463) scale(1,-1) translate(50,-110)"
    />
  
  <line
    x1="49.035551439332394"
    y1="51.44953880307329"
    x2="35.37921724664785"
    y2="57.77508923780225"
    stroke="hsla(0,50%,50%,0.6)"
    stroke-width="1"
    transform="translate(-12.0651038007,-45.6895456463) scale(1,-1) translate(50,-110)"
    />
  
</svg>
