<?xml version="1.0"?>
<!DOCTYPE svg PUBLIC "-//W3C//DTD SVG 1.1//EN"
  "http://www.w3.org/Graphics/SVG/1.1/DTD/svg11.dtd">
<svg
  width="240"
  height="240"
  viewBox="-50 -50 200 200" xmlns="http://www.w3.org/2000/svg" version="1.1">
  <rect
    x="0"
    y="0"
    width="100"
    height="100"
    fill="hsla(206,100%,53%,0.3)"
    stroke="hsl(206,100%,53%)"
    stroke-width="3"
    transform="" />
  
  <path
    d="M 
      74165478932245.2905273437
      31348250312262834749278697033285297254199610103980
      L
    
      74165478932260.2905273437
      31348250312262834749278697033285297254199610104000
      L
    
      74165478932285.2905273437
      31348250312262834749278697033285297254199610104000
      L
    
      74165478932285.2905273437
      31348250312262834749278697033285297254199610104033.3333333333
      L
    
      74165478932185.2905273437
      31348250312262834749278697033285297254199610104066.6666666666
      L
    
      74165478932165.2905273437
      31348250312262834749278697033285297254199610104040
      L
    
      74165478932185.2905273437
      31348250312262834749278697033285297254199610104025
      L
    
      74165478932185.2905273437
      31348250312262834749278697033285297254199610104000
      L
    
      74165478932218.6238606770
      31348250312262834749278697033285297254199610104000
      z
    "
    fill="hsla(0,0%,50%,0.3)"
    stroke="hsla(0,0%,50%,1)"
    stroke-width="1"
    transform="translate(-74165478932203.5782877604,-31348250312262834749278697033285297254199610104008.1510416666) scale(1,-1) translate(50,-110)"
    />
  
  
  <line
    x1="74165478932185.3"
    y1="3.1348250312262835e+49"
    x2="74165478932185.3"
    y2="3.1348250312262835e+49"
    stroke="hsla(0,50%,50%,0.6)"
    stroke-width="1"
    transform="translate(-74165478932203.5782877604,-31348250312262834749278697033285297254199610104008.1510416666) scale(1,-1) translate(50,-110)"
    />
  
  <line
    x1="74165478932285.3"
    y1="3.1348250312262835e+49"
    x2="74165478932285.3"
    y2="3.1348250312262835e+49"
    stroke="hsla(0,50%,50%,0.6)"
    stroke-width="1"
    transform="translate(-74165478932203.5782877604,-31348250312262834749278697033285297254199610104008.1510416666) scale(1,-1) translate(50,-110)"
    />
  
  <line
    x1="74165478932245.3"
    y1="3.1348250312262835e+49"
    x2="74165478932285.3"
    y2="3.1348250312262835e+49"
    stroke="hsla(0,50%,50%,0.6)"
    stroke-width="1"
    transform="translate(-74165478932203.5782877604,-31348250312262834749278697033285297254199610104008.1510416666) scale(1,-1) translate(50,-110)"
    />
  
  <line
    x1="74165478932165.3"
    y1="3.1348250312262835e+49"
    x2="74165478932185.3"
    y2="3.1348250312262835e+49"
    stroke="hsla(0,50%,50%,0.6)"
    stroke-width="1"
    transform="translate(-74165478932203.5782877604,-31348250312262834749278697033285297254199610104008.1510416666) scale(1,-1) translate(50,-110)"
    />
  
  <line
    x1="74165478932245.3"
    y1="3.1348250312262835e+49"
    x2="74165478932165.3"
    y2="3.1348250312262835e+49"
    stroke="hsla(0,50%,50%,0.6)"
    stroke-width="1"
    transform="translate(-74165478932203.5782877604,-31348250312262834749278697033285297254199610104008.1510416666) scale(1,-1) translate(50,-110)"
    />
  
  <line
    x1="74165478932285.3"
    y1="3.1348250312262835e+49"
    x2="74165478932185.3"
    y2="3.1348250312262835e+49"
    stroke="hsla(0,50%,50%,0.6)"
    stroke-width="1"
    transform="translate(-74165478932203.5782877604,-31348250312262834749278697033285297254199610104008.1510416666) scale(1,-1) translate(50,-110)"
    />
  
  <line
    x1="74165478932185.3"
    y1="3.1348250312262835e+49"
    x2="74165478932285.3"
    y2="3.1348250312262835e+49"
    stroke="hsla(0,50%,50%,0.6)"
    stroke-width="1"
    transform="translate(-74165478932203.5782877604,-31348250312262834749278697033285297254199610104008.1510416666) scale(1,-1) translate(50,-110)"
    />
  
</svg>
