<?xml version="1.0"?>
<!DOCTYPE svg PUBLIC "-//W3C//DTD SVG 1.1//EN"
  "http://www.w3.org/Graphics/SVG/1.1/DTD/svg11.dtd">
<svg
  width="240"
  height="240"
  viewBox="-50 -50 200 200" xmlns="http://www.w3.org/2000/svg" version="1.1">
  <rect
    x="0"
    y="0"
    width="100"
    height="100"
    fill="hsla(206,100%,53%,0.3)"
    stroke="hsl(206,100%,53%)"
    stroke-width="3"
    transform="" />
  
  <path
    d="M 
      -49.7938144329
      4.5360824742
      L
    
      -47.5257731958
      29.4329896907
      L
    
      -22.6288659793
      27.1649484536
      L
    
      4.5360824742
      49.7938144329
      L
    
      -20.3608247422
      52.0618556701
      L
    
      -18.0927835051
      76.9587628865
      L
    
      -40.7216494845
      104.1237113402
      L
    
      -42.9896907216
      79.2268041237
      L
    
      -67.8865979381
      81.4948453608
      L
    
      -95.0515463917
      58.8659793814
      L
    
      -70.1546391752
      56.5979381443
      L
    
      -72.4226804123
      31.7010309278
      z
    "
    fill="hsla(0,0%,50%,0.3)"
    stroke="hsla(0,0%,50%,1)"
    stroke-width="1"
    transform="translate(72.1357019168,-47.4994211098) scale(1,-1) translate(50,-110)"
    />
  
  
  <line
    x1="-49.79381443298969"
    y1="4.536082474226804"
    x2="-72.42268041237114"
    y2="31.701030927835053"
    stroke="hsla(0,50%,50%,0.6)"
    stroke-width="1"
    transform="translate(72.1357019168,-47.4994211098) scale(1,-1) translate(50,-110)"
    />
  
  <line
    x1="-22.628865979381445"
    y1="27.164948453608247"
    x2="-67.88659793814433"
    y2="81.49484536082474"
    stroke="hsla(0,50%,50%,0.6)"
    stroke-width="1"
    transform="translate(72.1357019168,-47.4994211098) scale(1,-1) translate(50,-110)"
    />
  
  <line
    x1="-22.628865979381445"
    y1="27.164948453608247"
    x2="-18.09278350515464"
    y2="76.95876288659794"
    stroke="hsla(0,50%,50%,0.6)"
    stroke-width="1"
    transform="translate(72.1357019168,-47.4994211098) scale(1,-1) translate(50,-110)"
    />
  
  <line
    x1="-49.79381443298969"
    y1="4.536082474226804"
    x2="-40.72164948453608"
    y2="104.12371134020619"
    stroke="hsla(0,50%,50%,0.6)"
    stroke-width="1"
    transform="translate(72.1357019168,-47.4994211098) scale(1,-1) translate(50,-110)"
    />
  
  <line
    x1="-72.42268041237114"
    y1="31.701030927835053"
    x2="-67.88659793814433"
    y2="81.49484536082474"
    stroke="hsla(0,50%,50%,0.6)"
    stroke-width="1"
    transform="translate(72.1357019168,-47.4994211098) scale(1,-1) translate(50,-110)"
    />
  
  <line
    x1="-18.09278350515464"
    y1="76.95876288659794"
    x2="-40.72164948453608"
    y2="104.12371134020619"
    stroke="hsla(0,50%,50%,0.6)"
    stroke-width="1"
    transform="translate(72.1357019168,-47.4994211098) scale(1,-1) translate(50,-110)"
    />
  
  <line
    x1="-22.628865979381445"
    y1="27.164948453608247"
    x2="-72.42268041237114"
    y2="31.701030927835053"
    stroke="hsla(0,50%,50%,0.6)"
    stroke-width="1"
    transform="translate(72.1357019168,-47.4994211098) scale(1,-1) translate(50,-110)"
    />
  
  <line
    x1="-22.628865979381445"
    y1="27.164948453608247"
    x2="4.536082474226804"
    y2="49.79381443298969"
    stroke="hsla(0,50%,50%,0.6)"
    stroke-width="1"
    transform="translate(72.1357019168,-47.4994211098) scale(1,-1) translate(50,-110)"
    />
  
  <line
    x1="4.536082474226804"
    y1="49.79381443298969"
    x2="-95.05154639175258"
    y2="58.865979381443296"
    stroke="hsla(0,50%,50%,0.6)"
    stroke-width="1"
    transform="translate(72.1357019168,-47.4994211098) scale(1,-1) translate(50,-110)"
    />
  
  <line
    x1="-72.42268041237114"
    y1="31.701030927835053"
    x2="-18.09278350515464"
    y2="76.95876288659794"
    stroke="hsla(0,50%,50%,0.6)"
    stroke-width="1"
    transform="translate(72.1357019168,-47.4994211098) scale(1,-1) translate(50,-110)"
    />
  
  <line
    x1="-18.09278350515464"
    y1="76.95876288659794"
    x2="-67.88659793814433"
    y2="81.49484536082474"
    stroke="hsla(0,50%,50%,0.6)"
    stroke-width="1"
    transform="translate(72.1357019168,-47.4994211098) scale(1,-1) translate(50,-110)"
    />
  
  <line
    x1="-95.05154639175258"
    y1="58.865979381443296"
    x2="-67.88659793814433"
    y2="81.49484536082474"
    stroke="hsla(0,50%,50%,0.6)"
    stroke-width="1"
    transform="translate(72.1357019168,-47.4994211098) scale(1,-1) translate(50,-110)"
    />
  
</svg>
