<?xml version="1.0"?>
<!DOCTYPE svg PUBLIC "-//W3C//DTD SVG 1.1//EN"
  "http://www.w3.org/Graphics/SVG/1.1/DTD/svg11.dtd">
<svg
  width="240"
  height="240"
  viewBox="-50 -50 200 200" xmlns="http://www.w3.org/2000/svg" version="1.1">
  <rect
    x="0"
    y="0"
    width="100"
    height="100"
    fill="hsla(206,100%,53%,0.3)"
    stroke="hsl(206,100%,53%)"
    stroke-width="3"
    transform="" />
  
  <path
    d="M 
      74165478932242.4333844866
      31348250312262834749278697033285297254199610104042.8571428571
      L
    
      74165478932256.7190987723
      31348250312262834749278697033285297254199610104042.8571428571
      L
    
      74165478932278.1476702008
      31348250312262834749278697033285297254199610104057.1428571428
      L
    
      74165478932299.5762416294
      31348250312262834749278697033285297254199610104057.1428571428
      L
    
      74165478932299.5762416294
      31348250312262834749278697033285297254199610104071.4285714285
      L
    
      74165478932285.2905273437
      31348250312262834749278697033285297254199610104092.8571428571
      L
    
      74165478932285.2905273437
      31348250312262834749278697033285297254199610104114.2857142857
      L
    
      74165478932271.0048130580
      31348250312262834749278697033285297254199610104114.2857142857
      L
    
      74165478932249.5762416294
      31348250312262834749278697033285297254199610104100
      L
    
      74165478932228.1476702008
      31348250312262834749278697033285297254199610104100
      L
    
      74165478932228.1476702008
      31348250312262834749278697033285297254199610104085.7142857142
      L
    
      74165478932242.4333844866
      31348250312262834749278697033285297254199610104064.2857142857
      z
    "
    fill="hsla(0,0%,50%,0.3)"
    stroke="hsla(0,0%,50%,1)"
    stroke-width="1"
    transform="translate(-74165478932239.7966657366,-31348250312262834749278697033285297254199610104078.8922991071) scale(1,-1) translate(50,-110)"
    />
  
  
  <line
    x1="74165478932228.16"
    y1="3.1348250312262835e+49"
    x2="74165478932228.16"
    y2="3.1348250312262835e+49"
    stroke="hsla(0,50%,50%,0.6)"
    stroke-width="1"
    transform="translate(-74165478932239.7966657366,-31348250312262834749278697033285297254199610104078.8922991071) scale(1,-1) translate(50,-110)"
    />
  
  <line
    x1="74165478932242.44"
    y1="3.1348250312262835e+49"
    x2="74165478932242.44"
    y2="3.1348250312262835e+49"
    stroke="hsla(0,50%,50%,0.6)"
    stroke-width="1"
    transform="translate(-74165478932239.7966657366,-31348250312262834749278697033285297254199610104078.8922991071) scale(1,-1) translate(50,-110)"
    />
  
  <line
    x1="74165478932256.72"
    y1="3.1348250312262835e+49"
    x2="74165478932256.72"
    y2="3.1348250312262835e+49"
    stroke="hsla(0,50%,50%,0.6)"
    stroke-width="1"
    transform="translate(-74165478932239.7966657366,-31348250312262834749278697033285297254199610104078.8922991071) scale(1,-1) translate(50,-110)"
    />
  
  <line
    x1="74165478932271.02"
    y1="3.1348250312262835e+49"
    x2="74165478932271.02"
    y2="3.1348250312262835e+49"
    stroke="hsla(0,50%,50%,0.6)"
    stroke-width="1"
    transform="translate(-74165478932239.7966657366,-31348250312262834749278697033285297254199610104078.8922991071) scale(1,-1) translate(50,-110)"
    />
  
  <line
    x1="74165478932285.3"
    y1="3.1348250312262835e+49"
    x2="74165478932285.3"
    y2="3.1348250312262835e+49"
    stroke="hsla(0,50%,50%,0.6)"
    stroke-width="1"
    transform="translate(-74165478932239.7966657366,-31348250312262834749278697033285297254199610104078.8922991071) scale(1,-1) translate(50,-110)"
    />
  
  <line
    x1="74165478932299.58"
    y1="3.1348250312262835e+49"
    x2="74165478932299.58"
    y2="3.1348250312262835e+49"
    stroke="hsla(0,50%,50%,0.6)"
    stroke-width="1"
    transform="translate(-74165478932239.7966657366,-31348250312262834749278697033285297254199610104078.8922991071) scale(1,-1) translate(50,-110)"
    />
  
  <line
    x1="74165478932256.72"
    y1="3.1348250312262835e+49"
    x2="74165478932273.2"
    y2="3.1348250312262835e+49"
    stroke="hsla(0,50%,50%,0.6)"
    stroke-width="1"
    transform="translate(-74165478932239.7966657366,-31348250312262834749278697033285297254199610104078.8922991071) scale(1,-1) translate(50,-110)"
    />
  
  <line
    x1="74165478932254.52"
    y1="3.1348250312262835e+49"
    x2="74165478932271.02"
    y2="3.1348250312262835e+49"
    stroke="hsla(0,50%,50%,0.6)"
    stroke-width="1"
    transform="translate(-74165478932239.7966657366,-31348250312262834749278697033285297254199610104078.8922991071) scale(1,-1) translate(50,-110)"
    />
  
  <line
    x1="74165478932271.02"
    y1="3.1348250312262835e+49"
    x2="74165478932285.3"
    y2="3.1348250312262835e+49"
    stroke="hsla(0,50%,50%,0.6)"
    stroke-width="1"
    transform="translate(-74165478932239.7966657366,-31348250312262834749278697033285297254199610104078.8922991071) scale(1,-1) translate(50,-110)"
    />
  
  <line
    x1="74165478932242.44"
    y1="3.1348250312262835e+49"
    x2="74165478932256.72"
    y2="3.1348250312262835e+49"
    stroke="hsla(0,50%,50%,0.6)"
    stroke-width="1"
    transform="translate(-74165478932239.7966657366,-31348250312262834749278697033285297254199610104078.8922991071) scale(1,-1) translate(50,-110)"
    />
  
  <line
    x1="74165478932256.72"
    y1="3.1348250312262835e+49"
    x2="74165478932228.16"
    y2="3.1348250312262835e+49"
    stroke="hsla(0,50%,50%,0.6)"
    stroke-width="1"
    transform="translate(-74165478932239.7966657366,-31348250312262834749278697033285297254199610104078.8922991071) scale(1,-1) translate(50,-110)"
    />
  
  <line
    x1="74165478932299.58"
    y1="3.1348250312262835e+49"
    x2="74165478932271.02"
    y2="3.1348250312262835e+49"
    stroke="hsla(0,50%,50%,0.6)"
    stroke-width="1"
    transform="translate(-74165478932239.7966657366,-31348250312262834749278697033285297254199610104078.8922991071) scale(1,-1) translate(50,-110)"
    />
  
  <line
    x1="74165478932256.72"
    y1="3.1348250312262835e+49"
    x2="74165478932299.58"
    y2="3.1348250312262835e+49"
    stroke="hsla(0,50%,50%,0.6)"
    stroke-width="1"
    transform="translate(-74165478932239.7966657366,-31348250312262834749278697033285297254199610104078.8922991071) scale(1,-1) translate(50,-110)"
    />
  
  <line
    x1="74165478932228.16"
    y1="3.1348250312262835e+49"
    x2="74165478932271.02"
    y2="3.1348250312262835e+49"
    stroke="hsla(0,50%,50%,0.6)"
    stroke-width="1"
    transform="translate(-74165478932239.7966657366,-31348250312262834749278697033285297254199610104078.8922991071) scale(1,-1) translate(50,-110)"
    />
  
  <line
    x1="74165478932271.02"
    y1="3.1348250312262835e+49"
    x2="74165478932242.44"
    y2="3.1348250312262835e+49"
    stroke="hsla(0,50%,50%,0.6)"
    stroke-width="1"
    transform="translate(-74165478932239.7966657366,-31348250312262834749278697033285297254199610104078.8922991071) scale(1,-1) translate(50,-110)"
    />
  
  <line
    x1="74165478932285.3"
    y1="3.1348250312262835e+49"
    x2="74165478932256.72"
    y2="3.1348250312262835e+49"
    stroke="hsla(0,50%,50%,0.6)"
    stroke-width="1"
    transform="translate(-74165478932239.7966657366,-31348250312262834749278697033285297254199610104078.8922991071) scale(1,-1) translate(50,-110)"
    />
  
  <line
    x1="74165478932267.7"
    y1="3.1348250312262835e+49"
    x2="74165478932228.16"
    y2="3.1348250312262835e+49"
    stroke="hsla(0,50%,50%,0.6)"
    stroke-width="1"
    transform="translate(-74165478932239.7966657366,-31348250312262834749278697033285297254199610104078.8922991071) scale(1,-1) translate(50,-110)"
    />
  
  <line
    x1="74165478932299.58"
    y1="3.1348250312262835e+49"
    x2="74165478932260.02"
    y2="3.1348250312262835e+49"
    stroke="hsla(0,50%,50%,0.6)"
    stroke-width="1"
    transform="translate(-74165478932239.7966657366,-31348250312262834749278697033285297254199610104078.8922991071) scale(1,-1) translate(50,-110)"
    />
  
  <line
    x1="74165478932242.44"
    y1="3.1348250312262835e+49"
    x2="74165478932256.72"
    y2="3.1348250312262835e+49"
    stroke="hsla(0,50%,50%,0.6)"
    stroke-width="1"
    transform="translate(-74165478932239.7966657366,-31348250312262834749278697033285297254199610104078.8922991071) scale(1,-1) translate(50,-110)"
    />
  
  <line
    x1="74165478932271.02"
    y1="3.1348250312262835e+49"
    x2="74165478932299.58"
    y2="3.1348250312262835e+49"
    stroke="hsla(0,50%,50%,0.6)"
    stroke-width="1"
    transform="translate(-74165478932239.7966657366,-31348250312262834749278697033285297254199610104078.8922991071) scale(1,-1) translate(50,-110)"
    />
  
  <line
    x1="74165478932242.44"
    y1="3.1348250312262835e+49"
    x2="74165478932299.58"
    y2="3.1348250312262835e+49"
    stroke="hsla(0,50%,50%,0.6)"
    stroke-width="1"
    transform="translate(-74165478932239.7966657366,-31348250312262834749278697033285297254199610104078.8922991071) scale(1,-1) translate(50,-110)"
    />
  
  <line
    x1="74165478932228.16"
    y1="3.1348250312262835e+49"
    x2="74165478932285.3"
    y2="3.1348250312262835e+49"
    stroke="hsla(0,50%,50%,0.6)"
    stroke-width="1"
    transform="translate(-74165478932239.7966657366,-31348250312262834749278697033285297254199610104078.8922991071) scale(1,-1) translate(50,-110)"
    />
  
  <line
    x1="74165478932228.16"
    y1="3.1348250312262835e+49"
    x2="74165478932256.72"
    y2="3.1348250312262835e+49"
    stroke="hsla(0,50%,50%,0.6)"
    stroke-width="1"
    transform="translate(-74165478932239.7966657366,-31348250312262834749278697033285297254199610104078.8922991071) scale(1,-1) translate(50,-110)"
    />
  
  <line
    x1="74165478932271.02"
    y1="3.1348250312262835e+49"
    x2="74165478932285.3"
    y2="3.1348250312262835e+49"
    stroke="hsla(0,50%,50%,0.6)"
    stroke-width="1"
    transform="translate(-74165478932239.7966657366,-31348250312262834749278697033285297254199610104078.8922991071) scale(1,-1) translate(50,-110)"
    />
  
</svg>
