<?xml version="1.0"?>
<!DOCTYPE svg PUBLIC "-//W3C//DTD SVG 1.1//EN"
  "http://www.w3.org/Graphics/SVG/1.1/DTD/svg11.dtd">
<svg
  width="240"
  height="240"
  viewBox="-50 -50 200 200" xmlns="http://www.w3.org/2000/svg" version="1.1">
  <rect
    x="0"
    y="0"
    width="100"
    height="100"
    fill="hsla(206,100%,53%,0.3)"
    stroke="hsl(206,100%,53%)"
    stroke-width="3"
    transform="" />
  
  <path
    d="M 
      45.4545454545
      -50
      L
    
      50
      -50
      L
    
      -50
      50
      L
    
      -50
      45.4545454545
      z
    "
    fill="hsla(0,0%,50%,0.3)"
    stroke="hsla(0,0%,50%,1)"
    stroke-width="1"
    transform="translate(25.5681818181,-22.7272727272) scale(1,-1) translate(50,-110)"
    />
  
  
  <line
    x1="45.45454545454545"
    y1="-50"
    x2="50"
    y2="-50"
    stroke="hsla(0,50%,50%,0.6)"
    stroke-width="1"
    transform="translate(25.5681818181,-22.7272727272) scale(1,-1) translate(50,-110)"
    />
  
  <line
    x1="40.90909090909091"
    y1="-45.45454545454545"
    x2="45.45454545454545"
    y2="-45.45454545454545"
    stroke="hsla(0,50%,50%,0.6)"
    stroke-width="1"
    transform="translate(25.5681818181,-22.7272727272) scale(1,-1) translate(50,-110)"
    />
  
  <line
    x1="36.36363636363637"
    y1="-40.90909090909091"
    x2="40.90909090909091"
    y2="-40.90909090909091"
    stroke="hsla(0,50%,50%,0.6)"
    stroke-width="1"
    transform="translate(25.5681818181,-22.7272727272) scale(1,-1) translate(50,-110)"
    />
  
  <line
    x1="31.818181818181817"
    y1="-36.36363636363637"
    x2="36.36363636363637"
    y2="-36.36363636363637"
    stroke="hsla(0,50%,50%,0.6)"
    stroke-width="1"
    transform="translate(25.5681818181,-22.7272727272) scale(1,-1) translate(50,-110)"
    />
  
  <line
    x1="27.272727272727273"
    y1="-31.818181818181817"
    x2="31.818181818181817"
    y2="-31.818181818181817"
    stroke="hsla(0,50%,50%,0.6)"
    stroke-width="1"
    transform="translate(25.5681818181,-22.7272727272) scale(1,-1) translate(50,-110)"
    />
  
  <line
    x1="22.727272727272727"
    y1="-27.272727272727273"
    x2="27.272727272727273"
    y2="-27.272727272727273"
    stroke="hsla(0,50%,50%,0.6)"
    stroke-width="1"
    transform="translate(25.5681818181,-22.7272727272) scale(1,-1) translate(50,-110)"
    />
  
  <line
    x1="18.181818181818183"
    y1="-22.727272727272727"
    x2="22.727272727272727"
    y2="-22.727272727272727"
    stroke="hsla(0,50%,50%,0.6)"
    stroke-width="1"
    transform="translate(25.5681818181,-22.7272727272) scale(1,-1) translate(50,-110)"
    />
  
  <line
    x1="13.636363636363637"
    y1="-18.181818181818183"
    x2="18.181818181818183"
    y2="-18.181818181818183"
    stroke="hsla(0,50%,50%,0.6)"
    stroke-width="1"
    transform="translate(25.5681818181,-22.7272727272) scale(1,-1) translate(50,-110)"
    />
  
  <line
    x1="9.090909090909092"
    y1="-13.636363636363637"
    x2="13.636363636363637"
    y2="-13.636363636363637"
    stroke="hsla(0,50%,50%,0.6)"
    stroke-width="1"
    transform="translate(25.5681818181,-22.7272727272) scale(1,-1) translate(50,-110)"
    />
  
  <line
    x1="4.545454545454546"
    y1="-9.090909090909092"
    x2="9.090909090909092"
    y2="-9.090909090909092"
    stroke="hsla(0,50%,50%,0.6)"
    stroke-width="1"
    transform="translate(25.5681818181,-22.7272727272) scale(1,-1) translate(50,-110)"
    />
  
  <line
    x1="0"
    y1="-4.545454545454546"
    x2="4.545454545454546"
    y2="-4.545454545454546"
    stroke="hsla(0,50%,50%,0.6)"
    stroke-width="1"
    transform="translate(25.5681818181,-22.7272727272) scale(1,-1) translate(50,-110)"
    />
  
  <line
    x1="45.45454545454545"
    y1="-50"
    x2="-50"
    y2="45.45454545454545"
    stroke="hsla(0,50%,50%,0.6)"
    stroke-width="1"
    transform="translate(25.5681818181,-22.7272727272) scale(1,-1) translate(50,-110)"
    />
  
  <line
    x1="-50"
    y1="45.45454545454545"
    x2="-50"
    y2="50"
    stroke="hsla(0,50%,50%,0.6)"
    stroke-width="1"
    transform="translate(25.5681818181,-22.7272727272) scale(1,-1) translate(50,-110)"
    />
  
  <line
    x1="-45.45454545454545"
    y1="40.90909090909091"
    x2="-45.45454545454545"
    y2="45.45454545454545"
    stroke="hsla(0,50%,50%,0.6)"
    stroke-width="1"
    transform="translate(25.5681818181,-22.7272727272) scale(1,-1) translate(50,-110)"
    />
  
  <line
    x1="-40.90909090909091"
    y1="36.36363636363637"
    x2="-40.90909090909091"
    y2="40.90909090909091"
    stroke="hsla(0,50%,50%,0.6)"
    stroke-width="1"
    transform="translate(25.5681818181,-22.7272727272) scale(1,-1) translate(50,-110)"
    />
  
  <line
    x1="-36.36363636363637"
    y1="31.818181818181817"
    x2="-36.36363636363637"
    y2="36.36363636363637"
    stroke="hsla(0,50%,50%,0.6)"
    stroke-width="1"
    transform="translate(25.5681818181,-22.7272727272) scale(1,-1) translate(50,-110)"
    />
  
  <line
    x1="-31.818181818181817"
    y1="27.272727272727273"
    x2="-31.818181818181817"
    y2="31.818181818181817"
    stroke="hsla(0,50%,50%,0.6)"
    stroke-width="1"
    transform="translate(25.5681818181,-22.7272727272) scale(1,-1) translate(50,-110)"
    />
  
  <line
    x1="-27.272727272727273"
    y1="22.727272727272727"
    x2="-27.272727272727273"
    y2="27.272727272727273"
    stroke="hsla(0,50%,50%,0.6)"
    stroke-width="1"
    transform="translate(25.5681818181,-22.7272727272) scale(1,-1) translate(50,-110)"
    />
  
  <line
    x1="-22.727272727272727"
    y1="18.181818181818183"
    x2="-22.727272727272727"
    y2="22.727272727272727"
    stroke="hsla(0,50%,50%,0.6)"
    stroke-width="1"
    transform="translate(25.5681818181,-22.7272727272) scale(1,-1) translate(50,-110)"
    />
  
  <line
    x1="-18.181818181818183"
    y1="13.636363636363637"
    x2="-18.181818181818183"
    y2="18.181818181818183"
    stroke="hsla(0,50%,50%,0.6)"
    stroke-width="1"
    transform="translate(25.5681818181,-22.7272727272) scale(1,-1) translate(50,-110)"
    />
  
  <line
    x1="-13.636363636363637"
    y1="9.090909090909092"
    x2="-13.636363636363637"
    y2="13.636363636363637"
    stroke="hsla(0,50%,50%,0.6)"
    stroke-width="1"
    transform="translate(25.5681818181,-22.7272727272) scale(1,-1) translate(50,-110)"
    />
  
  <line
    x1="-9.090909090909092"
    y1="4.545454545454546"
    x2="-9.090909090909092"
    y2="9.090909090909092"
    stroke="hsla(0,50%,50%,0.6)"
    stroke-width="1"
    transform="translate(25.5681818181,-22.7272727272) scale(1,-1) translate(50,-110)"
    />
  
  <line
    x1="-4.545454545454546"
    y1="0"
    x2="-4.545454545454546"
    y2="4.545454545454546"
    stroke="hsla(0,50%,50%,0.6)"
    stroke-width="1"
    transform="translate(25.5681818181,-22.7272727272) scale(1,-1) translate(50,-110)"
    />
  
  <line
    x1="-4.545454545454546"
    y1="0"
    x2="0"
    y2="0"
    stroke="hsla(0,50%,50%,0.6)"
    stroke-width="1"
    transform="translate(25.5681818181,-22.7272727272) scale(1,-1) translate(50,-110)"
    />
  
  <line
    x1="0"
    y1="-4.545454545454546"
    x2="0"
    y2="0"
    stroke="hsla(0,50%,50%,0.6)"
    stroke-width="1"
    transform="translate(25.5681818181,-22.7272727272) scale(1,-1) translate(50,-110)"
    />
  
  <line
    x1="50"
    y1="-50"
    x2="-50"
    y2="50"
    stroke="hsla(0,50%,50%,0.6)"
    stroke-width="1"
    transform="translate(25.5681818181,-22.7272727272) scale(1,-1) translate(50,-110)"
    />
  
  <line
    x1="4.545454545454546"
    y1="-9.090909090909092"
    x2="4.545454545454546"
    y2="-4.545454545454546"
    stroke="hsla(0,50%,50%,0.6)"
    stroke-width="1"
    transform="translate(25.5681818181,-22.7272727272) scale(1,-1) translate(50,-110)"
    />
  
  <line
    x1="9.090909090909092"
    y1="-13.636363636363637"
    x2="9.090909090909092"
    y2="-9.090909090909092"
    stroke="hsla(0,50%,50%,0.6)"
    stroke-width="1"
    transform="translate(25.5681818181,-22.7272727272) scale(1,-1) translate(50,-110)"
    />
  
  <line
    x1="13.636363636363637"
    y1="-18.181818181818183"
    x2="13.636363636363637"
    y2="-13.636363636363637"
    stroke="hsla(0,50%,50%,0.6)"
    stroke-width="1"
    transform="translate(25.5681818181,-22.7272727272) scale(1,-1) translate(50,-110)"
    />
  
  <line
    x1="18.181818181818183"
    y1="-22.727272727272727"
    x2="18.181818181818183"
    y2="-18.181818181818183"
    stroke="hsla(0,50%,50%,0.6)"
    stroke-width="1"
    transform="translate(25.5681818181,-22.7272727272) scale(1,-1) translate(50,-110)"
    />
  
  <line
    x1="22.727272727272727"
    y1="-27.272727272727273"
    x2="22.727272727272727"
    y2="-22.727272727272727"
    stroke="hsla(0,50%,50%,0.6)"
    stroke-width="1"
    transform="translate(25.5681818181,-22.7272727272) scale(1,-1) translate(50,-110)"
    />
  
  <line
    x1="27.272727272727273"
    y1="-31.818181818181817"
    x2="27.272727272727273"
    y2="-27.272727272727273"
    stroke="hsla(0,50%,50%,0.6)"
    stroke-width="1"
    transform="translate(25.5681818181,-22.7272727272) scale(1,-1) translate(50,-110)"
    />
  
  <line
    x1="31.818181818181817"
    y1="-36.36363636363637"
    x2="31.818181818181817"
    y2="-31.818181818181817"
    stroke="hsla(0,50%,50%,0.6)"
    stroke-width="1"
    transform="translate(25.5681818181,-22.7272727272) scale(1,-1) translate(50,-110)"
    />
  
  <line
    x1="36.36363636363637"
    y1="-40.90909090909091"
    x2="36.36363636363637"
    y2="-36.36363636363637"
    stroke="hsla(0,50%,50%,0.6)"
    stroke-width="1"
    transform="translate(25.5681818181,-22.7272727272) scale(1,-1) translate(50,-110)"
    />
  
  <line
    x1="40.90909090909091"
    y1="-45.45454545454545"
    x2="40.90909090909091"
    y2="-40.90909090909091"
    stroke="hsla(0,50%,50%,0.6)"
    stroke-width="1"
    transform="translate(25.5681818181,-22.7272727272) scale(1,-1) translate(50,-110)"
    />
  
  <line
    x1="45.45454545454545"
    y1="-50"
    x2="45.45454545454545"
    y2="-45.45454545454545"
    stroke="hsla(0,50%,50%,0.6)"
    stroke-width="1"
    transform="translate(25.5681818181,-22.7272727272) scale(1,-1) translate(50,-110)"
    />
  
  <line
    x1="-9.090909090909092"
    y1="4.545454545454546"
    x2="-4.545454545454546"
    y2="4.545454545454546"
    stroke="hsla(0,50%,50%,0.6)"
    stroke-width="1"
    transform="translate(25.5681818181,-22.7272727272) scale(1,-1) translate(50,-110)"
    />
  
  <line
    x1="-13.636363636363637"
    y1="9.090909090909092"
    x2="-9.090909090909092"
    y2="9.090909090909092"
    stroke="hsla(0,50%,50%,0.6)"
    stroke-width="1"
    transform="translate(25.5681818181,-22.7272727272) scale(1,-1) translate(50,-110)"
    />
  
  <line
    x1="-18.181818181818183"
    y1="13.636363636363637"
    x2="-13.636363636363637"
    y2="13.636363636363637"
    stroke="hsla(0,50%,50%,0.6)"
    stroke-width="1"
    transform="translate(25.5681818181,-22.7272727272) scale(1,-1) translate(50,-110)"
    />
  
  <line
    x1="-22.727272727272727"
    y1="18.181818181818183"
    x2="-18.181818181818183"
    y2="18.181818181818183"
    stroke="hsla(0,50%,50%,0.6)"
    stroke-width="1"
    transform="translate(25.5681818181,-22.7272727272) scale(1,-1) translate(50,-110)"
    />
  
  <line
    x1="-27.272727272727273"
    y1="22.727272727272727"
    x2="-22.727272727272727"
    y2="22.727272727272727"
    stroke="hsla(0,50%,50%,0.6)"
    stroke-width="1"
    transform="translate(25.5681818181,-22.7272727272) scale(1,-1) translate(50,-110)"
    />
  
  <line
    x1="-31.818181818181817"
    y1="27.272727272727273"
    x2="-27.272727272727273"
    y2="27.272727272727273"
    stroke="hsla(0,50%,50%,0.6)"
    stroke-width="1"
    transform="translate(25.5681818181,-22.7272727272) scale(1,-1) translate(50,-110)"
    />
  
  <line
    x1="-36.36363636363637"
    y1="31.818181818181817"
    x2="-31.818181818181817"
    y2="31.818181818181817"
    stroke="hsla(0,50%,50%,0.6)"
    stroke-width="1"
    transform="translate(25.5681818181,-22.7272727272) scale(1,-1) translate(50,-110)"
    />
  
  <line
    x1="-40.90909090909091"
    y1="36.36363636363637"
    x2="-36.36363636363637"
    y2="36.36363636363637"
    stroke="hsla(0,50%,50%,0.6)"
    stroke-width="1"
    transform="translate(25.5681818181,-22.7272727272) scale(1,-1) translate(50,-110)"
    />
  
  <line
    x1="-45.45454545454545"
    y1="40.90909090909091"
    x2="-40.90909090909091"
    y2="40.90909090909091"
    stroke="hsla(0,50%,50%,0.6)"
    stroke-width="1"
    transform="translate(25.5681818181,-22.7272727272) scale(1,-1) translate(50,-110)"
    />
  
  <line
    x1="-50"
    y1="45.45454545454545"
    x2="-45.45454545454545"
    y2="45.45454545454545"
    stroke="hsla(0,50%,50%,0.6)"
    stroke-width="1"
    transform="translate(25.5681818181,-22.7272727272) scale(1,-1) translate(50,-110)"
    />
  
</svg>
