<?xml version="1.0"?>
<!DOCTYPE svg PUBLIC "-//W3C//DTD SVG 1.1//EN"
  "http://www.w3.org/Graphics/SVG/1.1/DTD/svg11.dtd">
<svg
  width="240"
  height="240"
  viewBox="-50 -50 200 200" xmlns="http://www.w3.org/2000/svg" version="1.1">
  <rect
    x="0"
    y="0"
    width="100"
    height="100"
    fill="hsla(206,100%,53%,0.3)"
    stroke="hsl(206,100%,53%)"
    stroke-width="3"
    transform="" />
  
  <path
    d="M 
      48
      -52
      L
    
      48
      -48
      L
    
      -48
      48
      L
    
      -52
      48
      z
    "
    fill="hsla(0,0%,50%,0.3)"
    stroke="hsla(0,0%,50%,1)"
    stroke-width="1"
    transform="translate(26,-23.5) scale(1,-1) translate(50,-110)"
    />
  
  
  <line
    x1="44"
    y1="-48"
    x2="48"
    y2="-48"
    stroke="hsla(0,50%,50%,0.6)"
    stroke-width="1"
    transform="translate(26,-23.5) scale(1,-1) translate(50,-110)"
    />
  
  <line
    x1="40"
    y1="-44"
    x2="44"
    y2="-44"
    stroke="hsla(0,50%,50%,0.6)"
    stroke-width="1"
    transform="translate(26,-23.5) scale(1,-1) translate(50,-110)"
    />
  
  <line
    x1="36"
    y1="-40"
    x2="40"
    y2="-40"
    stroke="hsla(0,50%,50%,0.6)"
    stroke-width="1"
    transform="translate(26,-23.5) scale(1,-1) translate(50,-110)"
    />
  
  <line
    x1="32"
    y1="-36"
    x2="36"
    y2="-36"
    stroke="hsla(0,50%,50%,0.6)"
    stroke-width="1"
    transform="translate(26,-23.5) scale(1,-1) translate(50,-110)"
    />
  
  <line
    x1="28"
    y1="-32"
    x2="32"
    y2="-32"
    stroke="hsla(0,50%,50%,0.6)"
    stroke-width="1"
    transform="translate(26,-23.5) scale(1,-1) translate(50,-110)"
    />
  
  <line
    x1="24"
    y1="-28"
    x2="28"
    y2="-28"
    stroke="hsla(0,50%,50%,0.6)"
    stroke-width="1"
    transform="translate(26,-23.5) scale(1,-1) translate(50,-110)"
    />
  
  <line
    x1="20"
    y1="-24"
    x2="24"
    y2="-24"
    stroke="hsla(0,50%,50%,0.6)"
    stroke-width="1"
    transform="translate(26,-23.5) scale(1,-1) translate(50,-110)"
    />
  
  <line
    x1="16"
    y1="-20"
    x2="20"
    y2="-20"
    stroke="hsla(0,50%,50%,0.6)"
    stroke-width="1"
    transform="translate(26,-23.5) scale(1,-1) translate(50,-110)"
    />
  
  <line
    x1="12"
    y1="-16"
    x2="16"
    y2="-16"
    stroke="hsla(0,50%,50%,0.6)"
    stroke-width="1"
    transform="translate(26,-23.5) scale(1,-1) translate(50,-110)"
    />
  
  <line
    x1="8"
    y1="-12"
    x2="12"
    y2="-12"
    stroke="hsla(0,50%,50%,0.6)"
    stroke-width="1"
    transform="translate(26,-23.5) scale(1,-1) translate(50,-110)"
    />
  
  <line
    x1="4"
    y1="-8"
    x2="8"
    y2="-8"
    stroke="hsla(0,50%,50%,0.6)"
    stroke-width="1"
    transform="translate(26,-23.5) scale(1,-1) translate(50,-110)"
    />
  
  <line
    x1="0"
    y1="-4"
    x2="4"
    y2="-4"
    stroke="hsla(0,50%,50%,0.6)"
    stroke-width="1"
    transform="translate(26,-23.5) scale(1,-1) translate(50,-110)"
    />
  
  <line
    x1="48"
    y1="-52"
    x2="-52"
    y2="48"
    stroke="hsla(0,50%,50%,0.6)"
    stroke-width="1"
    transform="translate(26,-23.5) scale(1,-1) translate(50,-110)"
    />
  
  <line
    x1="-48"
    y1="44"
    x2="-48"
    y2="48"
    stroke="hsla(0,50%,50%,0.6)"
    stroke-width="1"
    transform="translate(26,-23.5) scale(1,-1) translate(50,-110)"
    />
  
  <line
    x1="-44"
    y1="40"
    x2="-44"
    y2="44"
    stroke="hsla(0,50%,50%,0.6)"
    stroke-width="1"
    transform="translate(26,-23.5) scale(1,-1) translate(50,-110)"
    />
  
  <line
    x1="-40"
    y1="36"
    x2="-40"
    y2="40"
    stroke="hsla(0,50%,50%,0.6)"
    stroke-width="1"
    transform="translate(26,-23.5) scale(1,-1) translate(50,-110)"
    />
  
  <line
    x1="-36"
    y1="32"
    x2="-36"
    y2="36"
    stroke="hsla(0,50%,50%,0.6)"
    stroke-width="1"
    transform="translate(26,-23.5) scale(1,-1) translate(50,-110)"
    />
  
  <line
    x1="-32"
    y1="28"
    x2="-32"
    y2="32"
    stroke="hsla(0,50%,50%,0.6)"
    stroke-width="1"
    transform="translate(26,-23.5) scale(1,-1) translate(50,-110)"
    />
  
  <line
    x1="-28"
    y1="24"
    x2="-28"
    y2="28"
    stroke="hsla(0,50%,50%,0.6)"
    stroke-width="1"
    transform="translate(26,-23.5) scale(1,-1) translate(50,-110)"
    />
  
  <line
    x1="-24"
    y1="20"
    x2="-24"
    y2="24"
    stroke="hsla(0,50%,50%,0.6)"
    stroke-width="1"
    transform="translate(26,-23.5) scale(1,-1) translate(50,-110)"
    />
  
  <line
    x1="-20"
    y1="16"
    x2="-20"
    y2="20"
    stroke="hsla(0,50%,50%,0.6)"
    stroke-width="1"
    transform="translate(26,-23.5) scale(1,-1) translate(50,-110)"
    />
  
  <line
    x1="-16"
    y1="12"
    x2="-16"
    y2="16"
    stroke="hsla(0,50%,50%,0.6)"
    stroke-width="1"
    transform="translate(26,-23.5) scale(1,-1) translate(50,-110)"
    />
  
  <line
    x1="-12"
    y1="8"
    x2="-12"
    y2="12"
    stroke="hsla(0,50%,50%,0.6)"
    stroke-width="1"
    transform="translate(26,-23.5) scale(1,-1) translate(50,-110)"
    />
  
  <line
    x1="-8"
    y1="4"
    x2="-8"
    y2="8"
    stroke="hsla(0,50%,50%,0.6)"
    stroke-width="1"
    transform="translate(26,-23.5) scale(1,-1) translate(50,-110)"
    />
  
  <line
    x1="-4"
    y1="0"
    x2="-4"
    y2="4"
    stroke="hsla(0,50%,50%,0.6)"
    stroke-width="1"
    transform="translate(26,-23.5) scale(1,-1) translate(50,-110)"
    />
  
  <line
    x1="-4"
    y1="0"
    x2="0"
    y2="0"
    stroke="hsla(0,50%,50%,0.6)"
    stroke-width="1"
    transform="translate(26,-23.5) scale(1,-1) translate(50,-110)"
    />
  
  <line
    x1="0"
    y1="-4"
    x2="0"
    y2="0"
    stroke="hsla(0,50%,50%,0.6)"
    stroke-width="1"
    transform="translate(26,-23.5) scale(1,-1) translate(50,-110)"
    />
  
  <line
    x1="48"
    y1="-48"
    x2="-48"
    y2="48"
    stroke="hsla(0,50%,50%,0.6)"
    stroke-width="1"
    transform="translate(26,-23.5) scale(1,-1) translate(50,-110)"
    />
  
  <line
    x1="4"
    y1="-8"
    x2="4"
    y2="-4"
    stroke="hsla(0,50%,50%,0.6)"
    stroke-width="1"
    transform="translate(26,-23.5) scale(1,-1) translate(50,-110)"
    />
  
  <line
    x1="8"
    y1="-12"
    x2="8"
    y2="-8"
    stroke="hsla(0,50%,50%,0.6)"
    stroke-width="1"
    transform="translate(26,-23.5) scale(1,-1) translate(50,-110)"
    />
  
  <line
    x1="12"
    y1="-16"
    x2="12"
    y2="-12"
    stroke="hsla(0,50%,50%,0.6)"
    stroke-width="1"
    transform="translate(26,-23.5) scale(1,-1) translate(50,-110)"
    />
  
  <line
    x1="16"
    y1="-20"
    x2="16"
    y2="-16"
    stroke="hsla(0,50%,50%,0.6)"
    stroke-width="1"
    transform="translate(26,-23.5) scale(1,-1) translate(50,-110)"
    />
  
  <line
    x1="20"
    y1="-24"
    x2="20"
    y2="-20"
    stroke="hsla(0,50%,50%,0.6)"
    stroke-width="1"
    transform="translate(26,-23.5) scale(1,-1) translate(50,-110)"
    />
  
  <line
    x1="24"
    y1="-28"
    x2="24"
    y2="-24"
    stroke="hsla(0,50%,50%,0.6)"
    stroke-width="1"
    transform="translate(26,-23.5) scale(1,-1) translate(50,-110)"
    />
  
  <line
    x1="28"
    y1="-32"
    x2="28"
    y2="-28"
    stroke="hsla(0,50%,50%,0.6)"
    stroke-width="1"
    transform="translate(26,-23.5) scale(1,-1) translate(50,-110)"
    />
  
  <line
    x1="32"
    y1="-36"
    x2="32"
    y2="-32"
    stroke="hsla(0,50%,50%,0.6)"
    stroke-width="1"
    transform="translate(26,-23.5) scale(1,-1) translate(50,-110)"
    />
  
  <line
    x1="36"
    y1="-40"
    x2="36"
    y2="-36"
    stroke="hsla(0,50%,50%,0.6)"
    stroke-width="1"
    transform="translate(26,-23.5) scale(1,-1) translate(50,-110)"
    />
  
  <line
    x1="40"
    y1="-44"
    x2="40"
    y2="-40"
    stroke="hsla(0,50%,50%,0.6)"
    stroke-width="1"
    transform="translate(26,-23.5) scale(1,-1) translate(50,-110)"
    />
  
  <line
    x1="44"
    y1="-48"
    x2="44"
    y2="-44"
    stroke="hsla(0,50%,50%,0.6)"
    stroke-width="1"
    transform="translate(26,-23.5) scale(1,-1) translate(50,-110)"
    />
  
  <line
    x1="48"
    y1="-52"
    x2="48"
    y2="-48"
    stroke="hsla(0,50%,50%,0.6)"
    stroke-width="1"
    transform="translate(26,-23.5) scale(1,-1) translate(50,-110)"
    />
  
  <line
    x1="-8"
    y1="4"
    x2="-4"
    y2="4"
    stroke="hsla(0,50%,50%,0.6)"
    stroke-width="1"
    transform="translate(26,-23.5) scale(1,-1) translate(50,-110)"
    />
  
  <line
    x1="-12"
    y1="8"
    x2="-8"
    y2="8"
    stroke="hsla(0,50%,50%,0.6)"
    stroke-width="1"
    transform="translate(26,-23.5) scale(1,-1) translate(50,-110)"
    />
  
  <line
    x1="-16"
    y1="12"
    x2="-12"
    y2="12"
    stroke="hsla(0,50%,50%,0.6)"
    stroke-width="1"
    transform="translate(26,-23.5) scale(1,-1) translate(50,-110)"
    />
  
  <line
    x1="-20"
    y1="16"
    x2="-16"
    y2="16"
    stroke="hsla(0,50%,50%,0.6)"
    stroke-width="1"
    transform="translate(26,-23.5) scale(1,-1) translate(50,-110)"
    />
  
  <line
    x1="-24"
    y1="20"
    x2="-20"
    y2="20"
    stroke="hsla(0,50%,50%,0.6)"
    stroke-width="1"
    transform="translate(26,-23.5) scale(1,-1) translate(50,-110)"
    />
  
  <line
    x1="-28"
    y1="24"
    x2="-24"
    y2="24"
    stroke="hsla(0,50%,50%,0.6)"
    stroke-width="1"
    transform="translate(26,-23.5) scale(1,-1) translate(50,-110)"
    />
  
  <line
    x1="-32"
    y1="28"
    x2="-28"
    y2="28"
    stroke="hsla(0,50%,50%,0.6)"
    stroke-width="1"
    transform="translate(26,-23.5) scale(1,-1) translate(50,-110)"
    />
  
  <line
    x1="-36"
    y1="32"
    x2="-32"
    y2="32"
    stroke="hsla(0,50%,50%,0.6)"
    stroke-width="1"
    transform="translate(26,-23.5) scale(1,-1) translate(50,-110)"
    />
  
  <line
    x1="-40"
    y1="36"
    x2="-36"
    y2="36"
    stroke="hsla(0,50%,50%,0.6)"
    stroke-width="1"
    transform="translate(26,-23.5) scale(1,-1) translate(50,-110)"
    />
  
  <line
    x1="-44"
    y1="40"
    x2="-40"
    y2="40"
    stroke="hsla(0,50%,50%,0.6)"
    stroke-width="1"
    transform="translate(26,-23.5) scale(1,-1) translate(50,-110)"
    />
  
  <line
    x1="-48"
    y1="44"
    x2="-44"
    y2="44"
    stroke="hsla(0,50%,50%,0.6)"
    stroke-width="1"
    transform="translate(26,-23.5) scale(1,-1) translate(50,-110)"
    />
  
  <line
    x1="-52"
    y1="48"
    x2="-48"
    y2="48"
    stroke="hsla(0,50%,50%,0.6)"
    stroke-width="1"
    transform="translate(26,-23.5) scale(1,-1) translate(50,-110)"
    />
  
</svg>
