<?xml version="1.0"?>
<!DOCTYPE svg PUBLIC "-//W3C//DTD SVG 1.1//EN"
  "http://www.w3.org/Graphics/SVG/1.1/DTD/svg11.dtd">
<svg
  width="240"
  height="240"
  viewBox="-500 -500 1000 1000" xmlns="http://www.w3.org/2000/svg" version="1.1">
  <rect
    x="0"
    y="0"
    width="100"
    height="100"
    fill="hsla(206,100%,53%,0.3)"
    stroke="hsl(206,100%,53%)"
    stroke-width="3"
    transform="" />
  
  <path
    d="M 
      345.4545454545
      -50
      L
    
      350
      -50
      L
    
      250
      50
      L
    
      250
      45.4545454545
      z
    "
    fill="hsla(0,0%,50%,0.3)"
    stroke="hsla(0,0%,50%,1)"
    stroke-width="1"
    transform="translate(-300,0)"
    />
  
  
  <line
    x1="345.45454545454544"
    y1="-50"
    x2="350"
    y2="-50"
    stroke="hsla(0,50%,50%,0.6)"
    stroke-width="1"
    transform="translate(-300,0)"
    />
  
  <line
    x1="340.90909090909093"
    y1="-45.45454545454545"
    x2="345.45454545454544"
    y2="-45.45454545454545"
    stroke="hsla(0,50%,50%,0.6)"
    stroke-width="1"
    transform="translate(-300,0)"
    />
  
  <line
    x1="336.3636363636364"
    y1="-40.90909090909091"
    x2="340.90909090909093"
    y2="-40.90909090909091"
    stroke="hsla(0,50%,50%,0.6)"
    stroke-width="1"
    transform="translate(-300,0)"
    />
  
  <line
    x1="331.8181818181818"
    y1="-36.36363636363637"
    x2="336.3636363636364"
    y2="-36.36363636363637"
    stroke="hsla(0,50%,50%,0.6)"
    stroke-width="1"
    transform="translate(-300,0)"
    />
  
  <line
    x1="327.27272727272725"
    y1="-31.818181818181817"
    x2="331.8181818181818"
    y2="-31.818181818181817"
    stroke="hsla(0,50%,50%,0.6)"
    stroke-width="1"
    transform="translate(-300,0)"
    />
  
  <line
    x1="322.72727272727275"
    y1="-27.272727272727273"
    x2="327.27272727272725"
    y2="-27.272727272727273"
    stroke="hsla(0,50%,50%,0.6)"
    stroke-width="1"
    transform="translate(-300,0)"
    />
  
  <line
    x1="318.1818181818182"
    y1="-22.727272727272727"
    x2="322.72727272727275"
    y2="-22.727272727272727"
    stroke="hsla(0,50%,50%,0.6)"
    stroke-width="1"
    transform="translate(-300,0)"
    />
  
  <line
    x1="313.6363636363636"
    y1="-18.181818181818183"
    x2="318.1818181818182"
    y2="-18.181818181818183"
    stroke="hsla(0,50%,50%,0.6)"
    stroke-width="1"
    transform="translate(-300,0)"
    />
  
  <line
    x1="309.09090909090907"
    y1="-13.636363636363637"
    x2="313.6363636363636"
    y2="-13.636363636363637"
    stroke="hsla(0,50%,50%,0.6)"
    stroke-width="1"
    transform="translate(-300,0)"
    />
  
  <line
    x1="304.54545454545456"
    y1="-9.090909090909092"
    x2="309.09090909090907"
    y2="-9.090909090909092"
    stroke="hsla(0,50%,50%,0.6)"
    stroke-width="1"
    transform="translate(-300,0)"
    />
  
  <line
    x1="300"
    y1="-4.545454545454546"
    x2="304.54545454545456"
    y2="-4.545454545454546"
    stroke="hsla(0,50%,50%,0.6)"
    stroke-width="1"
    transform="translate(-300,0)"
    />
  
  <line
    x1="295.45454545454544"
    y1="0"
    x2="300"
    y2="0"
    stroke="hsla(0,50%,50%,0.6)"
    stroke-width="1"
    transform="translate(-300,0)"
    />
  
  <line
    x1="250"
    y1="45.45454545454545"
    x2="250"
    y2="50"
    stroke="hsla(0,50%,50%,0.6)"
    stroke-width="1"
    transform="translate(-300,0)"
    />
  
  <line
    x1="254.54545454545453"
    y1="40.90909090909091"
    x2="254.54545454545453"
    y2="45.45454545454545"
    stroke="hsla(0,50%,50%,0.6)"
    stroke-width="1"
    transform="translate(-300,0)"
    />
  
  <line
    x1="259.09090909090907"
    y1="36.36363636363637"
    x2="259.09090909090907"
    y2="40.90909090909091"
    stroke="hsla(0,50%,50%,0.6)"
    stroke-width="1"
    transform="translate(-300,0)"
    />
  
  <line
    x1="263.6363636363636"
    y1="31.818181818181817"
    x2="263.6363636363636"
    y2="36.36363636363637"
    stroke="hsla(0,50%,50%,0.6)"
    stroke-width="1"
    transform="translate(-300,0)"
    />
  
  <line
    x1="268.1818181818182"
    y1="27.272727272727273"
    x2="268.1818181818182"
    y2="31.818181818181817"
    stroke="hsla(0,50%,50%,0.6)"
    stroke-width="1"
    transform="translate(-300,0)"
    />
  
  <line
    x1="272.72727272727275"
    y1="22.727272727272727"
    x2="272.72727272727275"
    y2="27.272727272727273"
    stroke="hsla(0,50%,50%,0.6)"
    stroke-width="1"
    transform="translate(-300,0)"
    />
  
  <line
    x1="277.27272727272725"
    y1="18.181818181818183"
    x2="277.27272727272725"
    y2="22.727272727272727"
    stroke="hsla(0,50%,50%,0.6)"
    stroke-width="1"
    transform="translate(-300,0)"
    />
  
  <line
    x1="281.8181818181818"
    y1="13.636363636363637"
    x2="281.8181818181818"
    y2="18.181818181818183"
    stroke="hsla(0,50%,50%,0.6)"
    stroke-width="1"
    transform="translate(-300,0)"
    />
  
  <line
    x1="286.3636363636364"
    y1="9.090909090909092"
    x2="286.3636363636364"
    y2="13.636363636363637"
    stroke="hsla(0,50%,50%,0.6)"
    stroke-width="1"
    transform="translate(-300,0)"
    />
  
  <line
    x1="290.90909090909093"
    y1="4.545454545454546"
    x2="290.90909090909093"
    y2="9.090909090909092"
    stroke="hsla(0,50%,50%,0.6)"
    stroke-width="1"
    transform="translate(-300,0)"
    />
  
  <line
    x1="295.45454545454544"
    y1="0"
    x2="295.45454545454544"
    y2="4.545454545454546"
    stroke="hsla(0,50%,50%,0.6)"
    stroke-width="1"
    transform="translate(-300,0)"
    />
  
  <line
    x1="300"
    y1="-4.545454545454546"
    x2="300"
    y2="0"
    stroke="hsla(0,50%,50%,0.6)"
    stroke-width="1"
    transform="translate(-300,0)"
    />
  
  <line
    x1="304.54545454545456"
    y1="-9.090909090909092"
    x2="304.54545454545456"
    y2="-4.545454545454546"
    stroke="hsla(0,50%,50%,0.6)"
    stroke-width="1"
    transform="translate(-300,0)"
    />
  
  <line
    x1="309.09090909090907"
    y1="-13.636363636363637"
    x2="309.09090909090907"
    y2="-9.090909090909092"
    stroke="hsla(0,50%,50%,0.6)"
    stroke-width="1"
    transform="translate(-300,0)"
    />
  
  <line
    x1="313.6363636363636"
    y1="-18.181818181818183"
    x2="313.6363636363636"
    y2="-13.636363636363637"
    stroke="hsla(0,50%,50%,0.6)"
    stroke-width="1"
    transform="translate(-300,0)"
    />
  
  <line
    x1="318.1818181818182"
    y1="-22.727272727272727"
    x2="318.1818181818182"
    y2="-18.181818181818183"
    stroke="hsla(0,50%,50%,0.6)"
    stroke-width="1"
    transform="translate(-300,0)"
    />
  
  <line
    x1="322.72727272727275"
    y1="-27.272727272727273"
    x2="322.72727272727275"
    y2="-22.727272727272727"
    stroke="hsla(0,50%,50%,0.6)"
    stroke-width="1"
    transform="translate(-300,0)"
    />
  
  <line
    x1="327.27272727272725"
    y1="-31.818181818181817"
    x2="327.27272727272725"
    y2="-27.272727272727273"
    stroke="hsla(0,50%,50%,0.6)"
    stroke-width="1"
    transform="translate(-300,0)"
    />
  
  <line
    x1="331.8181818181818"
    y1="-36.36363636363637"
    x2="331.8181818181818"
    y2="-31.818181818181817"
    stroke="hsla(0,50%,50%,0.6)"
    stroke-width="1"
    transform="translate(-300,0)"
    />
  
  <line
    x1="336.3636363636364"
    y1="-40.90909090909091"
    x2="336.3636363636364"
    y2="-36.36363636363637"
    stroke="hsla(0,50%,50%,0.6)"
    stroke-width="1"
    transform="translate(-300,0)"
    />
  
  <line
    x1="340.90909090909093"
    y1="-45.45454545454545"
    x2="340.90909090909093"
    y2="-40.90909090909091"
    stroke="hsla(0,50%,50%,0.6)"
    stroke-width="1"
    transform="translate(-300,0)"
    />
  
  <line
    x1="345.45454545454544"
    y1="-50"
    x2="345.45454545454544"
    y2="-45.45454545454545"
    stroke="hsla(0,50%,50%,0.6)"
    stroke-width="1"
    transform="translate(-300,0)"
    />
  
  <line
    x1="290.90909090909093"
    y1="4.545454545454546"
    x2="295.45454545454544"
    y2="4.545454545454546"
    stroke="hsla(0,50%,50%,0.6)"
    stroke-width="1"
    transform="translate(-300,0)"
    />
  
  <line
    x1="286.3636363636364"
    y1="9.090909090909092"
    x2="290.90909090909093"
    y2="9.090909090909092"
    stroke="hsla(0,50%,50%,0.6)"
    stroke-width="1"
    transform="translate(-300,0)"
    />
  
  <line
    x1="281.8181818181818"
    y1="13.636363636363637"
    x2="286.3636363636364"
    y2="13.636363636363637"
    stroke="hsla(0,50%,50%,0.6)"
    stroke-width="1"
    transform="translate(-300,0)"
    />
  
  <line
    x1="277.27272727272725"
    y1="18.181818181818183"
    x2="281.8181818181818"
    y2="18.181818181818183"
    stroke="hsla(0,50%,50%,0.6)"
    stroke-width="1"
    transform="translate(-300,0)"
    />
  
  <line
    x1="272.72727272727275"
    y1="22.727272727272727"
    x2="277.27272727272725"
    y2="22.727272727272727"
    stroke="hsla(0,50%,50%,0.6)"
    stroke-width="1"
    transform="translate(-300,0)"
    />
  
  <line
    x1="268.1818181818182"
    y1="27.272727272727273"
    x2="272.72727272727275"
    y2="27.272727272727273"
    stroke="hsla(0,50%,50%,0.6)"
    stroke-width="1"
    transform="translate(-300,0)"
    />
  
  <line
    x1="263.6363636363636"
    y1="31.818181818181817"
    x2="268.1818181818182"
    y2="31.818181818181817"
    stroke="hsla(0,50%,50%,0.6)"
    stroke-width="1"
    transform="translate(-300,0)"
    />
  
  <line
    x1="259.09090909090907"
    y1="36.36363636363637"
    x2="263.6363636363636"
    y2="36.36363636363637"
    stroke="hsla(0,50%,50%,0.6)"
    stroke-width="1"
    transform="translate(-300,0)"
    />
  
  <line
    x1="254.54545454545453"
    y1="40.90909090909091"
    x2="259.09090909090907"
    y2="40.90909090909091"
    stroke="hsla(0,50%,50%,0.6)"
    stroke-width="1"
    transform="translate(-300,0)"
    />
  
  <line
    x1="250"
    y1="45.45454545454545"
    x2="254.54545454545453"
    y2="45.45454545454545"
    stroke="hsla(0,50%,50%,0.6)"
    stroke-width="1"
    transform="translate(-300,0)"
    />
  
  <line
    x1="345.45454545454544"
    y1="-50"
    x2="250"
    y2="45.45454545454545"
    stroke="hsla(0,50%,50%,0.6)"
    stroke-width="1"
    transform="translate(-300,0)"
    />
  
  <line
    x1="350"
    y1="-50"
    x2="250"
    y2="50"
    stroke="hsla(0,50%,50%,0.6)"
    stroke-width="1"
    transform="translate(-300,0)"
    />
  
</svg>
