<?xml version="1.0"?>
<!DOCTYPE svg PUBLIC "-//W3C//DTD SVG 1.1//EN"
  "http://www.w3.org/Graphics/SVG/1.1/DTD/svg11.dtd">
<svg
  width="240"
  height="240"
  viewBox="-50 -50 200 200" xmlns="http://www.w3.org/2000/svg" version="1.1">
  <rect
    x="0"
    y="0"
    width="100"
    height="100"
    fill="hsla(206,100%,53%,0.3)"
    stroke="hsl(206,100%,53%)"
    stroke-width="3"
    transform="" />
  
  <path
    d="M 
      347.8260869565
      -52.1739130434
      L
    
      347.8260869565
      -47.8260869565
      L
    
      252.1739130434
      47.8260869565
      L
    
      247.8260869565
      47.8260869565
      z
    "
    fill="hsla(0,0%,50%,0.3)"
    stroke="hsla(0,0%,50%,1)"
    stroke-width="1"
    transform="translate(-273.9130434782,-23.3695652173) scale(1,-1) translate(50,-110)"
    />
  
  
  <line
    x1="343.4782608695652"
    y1="-47.82608695652174"
    x2="347.82608695652175"
    y2="-47.82608695652174"
    stroke="hsla(0,50%,50%,0.6)"
    stroke-width="1"
    transform="translate(-273.9130434782,-23.3695652173) scale(1,-1) translate(50,-110)"
    />
  
  <line
    x1="339.1304347826087"
    y1="-43.47826086956522"
    x2="343.4782608695652"
    y2="-43.47826086956522"
    stroke="hsla(0,50%,50%,0.6)"
    stroke-width="1"
    transform="translate(-273.9130434782,-23.3695652173) scale(1,-1) translate(50,-110)"
    />
  
  <line
    x1="334.7826086956522"
    y1="-39.130434782608695"
    x2="339.1304347826087"
    y2="-39.130434782608695"
    stroke="hsla(0,50%,50%,0.6)"
    stroke-width="1"
    transform="translate(-273.9130434782,-23.3695652173) scale(1,-1) translate(50,-110)"
    />
  
  <line
    x1="330.4347826086956"
    y1="-34.78260869565217"
    x2="334.7826086956522"
    y2="-34.78260869565217"
    stroke="hsla(0,50%,50%,0.6)"
    stroke-width="1"
    transform="translate(-273.9130434782,-23.3695652173) scale(1,-1) translate(50,-110)"
    />
  
  <line
    x1="326.0869565217391"
    y1="-30.434782608695652"
    x2="330.4347826086956"
    y2="-30.434782608695652"
    stroke="hsla(0,50%,50%,0.6)"
    stroke-width="1"
    transform="translate(-273.9130434782,-23.3695652173) scale(1,-1) translate(50,-110)"
    />
  
  <line
    x1="321.7391304347826"
    y1="-26.08695652173913"
    x2="326.0869565217391"
    y2="-26.08695652173913"
    stroke="hsla(0,50%,50%,0.6)"
    stroke-width="1"
    transform="translate(-273.9130434782,-23.3695652173) scale(1,-1) translate(50,-110)"
    />
  
  <line
    x1="317.39130434782606"
    y1="-21.73913043478261"
    x2="321.7391304347826"
    y2="-21.73913043478261"
    stroke="hsla(0,50%,50%,0.6)"
    stroke-width="1"
    transform="translate(-273.9130434782,-23.3695652173) scale(1,-1) translate(50,-110)"
    />
  
  <line
    x1="313.04347826086956"
    y1="-17.391304347826086"
    x2="317.39130434782606"
    y2="-17.391304347826086"
    stroke="hsla(0,50%,50%,0.6)"
    stroke-width="1"
    transform="translate(-273.9130434782,-23.3695652173) scale(1,-1) translate(50,-110)"
    />
  
  <line
    x1="308.69565217391306"
    y1="-13.043478260869565"
    x2="313.04347826086956"
    y2="-13.043478260869565"
    stroke="hsla(0,50%,50%,0.6)"
    stroke-width="1"
    transform="translate(-273.9130434782,-23.3695652173) scale(1,-1) translate(50,-110)"
    />
  
  <line
    x1="304.3478260869565"
    y1="-8.695652173913043"
    x2="308.69565217391306"
    y2="-8.695652173913043"
    stroke="hsla(0,50%,50%,0.6)"
    stroke-width="1"
    transform="translate(-273.9130434782,-23.3695652173) scale(1,-1) translate(50,-110)"
    />
  
  <line
    x1="300"
    y1="-4.3478260869565215"
    x2="304.3478260869565"
    y2="-4.3478260869565215"
    stroke="hsla(0,50%,50%,0.6)"
    stroke-width="1"
    transform="translate(-273.9130434782,-23.3695652173) scale(1,-1) translate(50,-110)"
    />
  
  <line
    x1="295.6521739130435"
    y1="0"
    x2="300"
    y2="0"
    stroke="hsla(0,50%,50%,0.6)"
    stroke-width="1"
    transform="translate(-273.9130434782,-23.3695652173) scale(1,-1) translate(50,-110)"
    />
  
  <line
    x1="252.17391304347825"
    y1="43.47826086956522"
    x2="252.17391304347825"
    y2="47.82608695652174"
    stroke="hsla(0,50%,50%,0.6)"
    stroke-width="1"
    transform="translate(-273.9130434782,-23.3695652173) scale(1,-1) translate(50,-110)"
    />
  
  <line
    x1="256.5217391304348"
    y1="39.130434782608695"
    x2="256.5217391304348"
    y2="43.47826086956522"
    stroke="hsla(0,50%,50%,0.6)"
    stroke-width="1"
    transform="translate(-273.9130434782,-23.3695652173) scale(1,-1) translate(50,-110)"
    />
  
  <line
    x1="260.8695652173913"
    y1="34.78260869565217"
    x2="260.8695652173913"
    y2="39.130434782608695"
    stroke="hsla(0,50%,50%,0.6)"
    stroke-width="1"
    transform="translate(-273.9130434782,-23.3695652173) scale(1,-1) translate(50,-110)"
    />
  
  <line
    x1="265.2173913043478"
    y1="30.434782608695652"
    x2="265.2173913043478"
    y2="34.78260869565217"
    stroke="hsla(0,50%,50%,0.6)"
    stroke-width="1"
    transform="translate(-273.9130434782,-23.3695652173) scale(1,-1) translate(50,-110)"
    />
  
  <line
    x1="269.5652173913044"
    y1="26.08695652173913"
    x2="269.5652173913044"
    y2="30.434782608695652"
    stroke="hsla(0,50%,50%,0.6)"
    stroke-width="1"
    transform="translate(-273.9130434782,-23.3695652173) scale(1,-1) translate(50,-110)"
    />
  
  <line
    x1="273.9130434782609"
    y1="21.73913043478261"
    x2="273.9130434782609"
    y2="26.08695652173913"
    stroke="hsla(0,50%,50%,0.6)"
    stroke-width="1"
    transform="translate(-273.9130434782,-23.3695652173) scale(1,-1) translate(50,-110)"
    />
  
  <line
    x1="278.2608695652174"
    y1="17.391304347826086"
    x2="278.2608695652174"
    y2="21.73913043478261"
    stroke="hsla(0,50%,50%,0.6)"
    stroke-width="1"
    transform="translate(-273.9130434782,-23.3695652173) scale(1,-1) translate(50,-110)"
    />
  
  <line
    x1="282.60869565217394"
    y1="13.043478260869565"
    x2="282.60869565217394"
    y2="17.391304347826086"
    stroke="hsla(0,50%,50%,0.6)"
    stroke-width="1"
    transform="translate(-273.9130434782,-23.3695652173) scale(1,-1) translate(50,-110)"
    />
  
  <line
    x1="286.95652173913044"
    y1="8.695652173913043"
    x2="286.95652173913044"
    y2="13.043478260869565"
    stroke="hsla(0,50%,50%,0.6)"
    stroke-width="1"
    transform="translate(-273.9130434782,-23.3695652173) scale(1,-1) translate(50,-110)"
    />
  
  <line
    x1="291.30434782608694"
    y1="4.3478260869565215"
    x2="291.30434782608694"
    y2="8.695652173913043"
    stroke="hsla(0,50%,50%,0.6)"
    stroke-width="1"
    transform="translate(-273.9130434782,-23.3695652173) scale(1,-1) translate(50,-110)"
    />
  
  <line
    x1="295.6521739130435"
    y1="0"
    x2="295.6521739130435"
    y2="4.3478260869565215"
    stroke="hsla(0,50%,50%,0.6)"
    stroke-width="1"
    transform="translate(-273.9130434782,-23.3695652173) scale(1,-1) translate(50,-110)"
    />
  
  <line
    x1="300"
    y1="-4.3478260869565215"
    x2="300"
    y2="0"
    stroke="hsla(0,50%,50%,0.6)"
    stroke-width="1"
    transform="translate(-273.9130434782,-23.3695652173) scale(1,-1) translate(50,-110)"
    />
  
  <line
    x1="304.3478260869565"
    y1="-8.695652173913043"
    x2="304.3478260869565"
    y2="-4.3478260869565215"
    stroke="hsla(0,50%,50%,0.6)"
    stroke-width="1"
    transform="translate(-273.9130434782,-23.3695652173) scale(1,-1) translate(50,-110)"
    />
  
  <line
    x1="308.69565217391306"
    y1="-13.043478260869565"
    x2="308.69565217391306"
    y2="-8.695652173913043"
    stroke="hsla(0,50%,50%,0.6)"
    stroke-width="1"
    transform="translate(-273.9130434782,-23.3695652173) scale(1,-1) translate(50,-110)"
    />
  
  <line
    x1="313.04347826086956"
    y1="-17.391304347826086"
    x2="313.04347826086956"
    y2="-13.043478260869565"
    stroke="hsla(0,50%,50%,0.6)"
    stroke-width="1"
    transform="translate(-273.9130434782,-23.3695652173) scale(1,-1) translate(50,-110)"
    />
  
  <line
    x1="317.39130434782606"
    y1="-21.73913043478261"
    x2="317.39130434782606"
    y2="-17.391304347826086"
    stroke="hsla(0,50%,50%,0.6)"
    stroke-width="1"
    transform="translate(-273.9130434782,-23.3695652173) scale(1,-1) translate(50,-110)"
    />
  
  <line
    x1="321.7391304347826"
    y1="-26.08695652173913"
    x2="321.7391304347826"
    y2="-21.73913043478261"
    stroke="hsla(0,50%,50%,0.6)"
    stroke-width="1"
    transform="translate(-273.9130434782,-23.3695652173) scale(1,-1) translate(50,-110)"
    />
  
  <line
    x1="326.0869565217391"
    y1="-30.434782608695652"
    x2="326.0869565217391"
    y2="-26.08695652173913"
    stroke="hsla(0,50%,50%,0.6)"
    stroke-width="1"
    transform="translate(-273.9130434782,-23.3695652173) scale(1,-1) translate(50,-110)"
    />
  
  <line
    x1="330.4347826086956"
    y1="-34.78260869565217"
    x2="330.4347826086956"
    y2="-30.434782608695652"
    stroke="hsla(0,50%,50%,0.6)"
    stroke-width="1"
    transform="translate(-273.9130434782,-23.3695652173) scale(1,-1) translate(50,-110)"
    />
  
  <line
    x1="334.7826086956522"
    y1="-39.130434782608695"
    x2="334.7826086956522"
    y2="-34.78260869565217"
    stroke="hsla(0,50%,50%,0.6)"
    stroke-width="1"
    transform="translate(-273.9130434782,-23.3695652173) scale(1,-1) translate(50,-110)"
    />
  
  <line
    x1="339.1304347826087"
    y1="-43.47826086956522"
    x2="339.1304347826087"
    y2="-39.130434782608695"
    stroke="hsla(0,50%,50%,0.6)"
    stroke-width="1"
    transform="translate(-273.9130434782,-23.3695652173) scale(1,-1) translate(50,-110)"
    />
  
  <line
    x1="343.4782608695652"
    y1="-47.82608695652174"
    x2="343.4782608695652"
    y2="-43.47826086956522"
    stroke="hsla(0,50%,50%,0.6)"
    stroke-width="1"
    transform="translate(-273.9130434782,-23.3695652173) scale(1,-1) translate(50,-110)"
    />
  
  <line
    x1="347.82608695652175"
    y1="-52.17391304347826"
    x2="347.82608695652175"
    y2="-47.82608695652174"
    stroke="hsla(0,50%,50%,0.6)"
    stroke-width="1"
    transform="translate(-273.9130434782,-23.3695652173) scale(1,-1) translate(50,-110)"
    />
  
  <line
    x1="291.30434782608694"
    y1="4.3478260869565215"
    x2="295.6521739130435"
    y2="4.3478260869565215"
    stroke="hsla(0,50%,50%,0.6)"
    stroke-width="1"
    transform="translate(-273.9130434782,-23.3695652173) scale(1,-1) translate(50,-110)"
    />
  
  <line
    x1="286.95652173913044"
    y1="8.695652173913043"
    x2="291.30434782608694"
    y2="8.695652173913043"
    stroke="hsla(0,50%,50%,0.6)"
    stroke-width="1"
    transform="translate(-273.9130434782,-23.3695652173) scale(1,-1) translate(50,-110)"
    />
  
  <line
    x1="282.60869565217394"
    y1="13.043478260869565"
    x2="286.95652173913044"
    y2="13.043478260869565"
    stroke="hsla(0,50%,50%,0.6)"
    stroke-width="1"
    transform="translate(-273.9130434782,-23.3695652173) scale(1,-1) translate(50,-110)"
    />
  
  <line
    x1="278.2608695652174"
    y1="17.391304347826086"
    x2="282.60869565217394"
    y2="17.391304347826086"
    stroke="hsla(0,50%,50%,0.6)"
    stroke-width="1"
    transform="translate(-273.9130434782,-23.3695652173) scale(1,-1) translate(50,-110)"
    />
  
  <line
    x1="273.9130434782609"
    y1="21.73913043478261"
    x2="278.2608695652174"
    y2="21.73913043478261"
    stroke="hsla(0,50%,50%,0.6)"
    stroke-width="1"
    transform="translate(-273.9130434782,-23.3695652173) scale(1,-1) translate(50,-110)"
    />
  
  <line
    x1="269.5652173913044"
    y1="26.08695652173913"
    x2="273.9130434782609"
    y2="26.08695652173913"
    stroke="hsla(0,50%,50%,0.6)"
    stroke-width="1"
    transform="translate(-273.9130434782,-23.3695652173) scale(1,-1) translate(50,-110)"
    />
  
  <line
    x1="265.2173913043478"
    y1="30.434782608695652"
    x2="269.5652173913044"
    y2="30.434782608695652"
    stroke="hsla(0,50%,50%,0.6)"
    stroke-width="1"
    transform="translate(-273.9130434782,-23.3695652173) scale(1,-1) translate(50,-110)"
    />
  
  <line
    x1="260.8695652173913"
    y1="34.78260869565217"
    x2="265.2173913043478"
    y2="34.78260869565217"
    stroke="hsla(0,50%,50%,0.6)"
    stroke-width="1"
    transform="translate(-273.9130434782,-23.3695652173) scale(1,-1) translate(50,-110)"
    />
  
  <line
    x1="256.5217391304348"
    y1="39.130434782608695"
    x2="260.8695652173913"
    y2="39.130434782608695"
    stroke="hsla(0,50%,50%,0.6)"
    stroke-width="1"
    transform="translate(-273.9130434782,-23.3695652173) scale(1,-1) translate(50,-110)"
    />
  
  <line
    x1="252.17391304347825"
    y1="43.47826086956522"
    x2="256.5217391304348"
    y2="43.47826086956522"
    stroke="hsla(0,50%,50%,0.6)"
    stroke-width="1"
    transform="translate(-273.9130434782,-23.3695652173) scale(1,-1) translate(50,-110)"
    />
  
  <line
    x1="247.82608695652175"
    y1="47.82608695652174"
    x2="252.17391304347825"
    y2="47.82608695652174"
    stroke="hsla(0,50%,50%,0.6)"
    stroke-width="1"
    transform="translate(-273.9130434782,-23.3695652173) scale(1,-1) translate(50,-110)"
    />
  
  <line
    x1="347.82608695652175"
    y1="-52.17391304347826"
    x2="247.82608695652175"
    y2="47.82608695652174"
    stroke="hsla(0,50%,50%,0.6)"
    stroke-width="1"
    transform="translate(-273.9130434782,-23.3695652173) scale(1,-1) translate(50,-110)"
    />
  
  <line
    x1="347.82608695652175"
    y1="-47.82608695652174"
    x2="252.17391304347825"
    y2="47.82608695652174"
    stroke="hsla(0,50%,50%,0.6)"
    stroke-width="1"
    transform="translate(-273.9130434782,-23.3695652173) scale(1,-1) translate(50,-110)"
    />
  
</svg>
