<?xml version="1.0"?>
<!DOCTYPE svg PUBLIC "-//W3C//DTD SVG 1.1//EN"
  "http://www.w3.org/Graphics/SVG/1.1/DTD/svg11.dtd">
<svg
  width="240"
  height="240"
  viewBox="-50 -50 200 200" xmlns="http://www.w3.org/2000/svg" version="1.1">
  <rect
    x="0"
    y="0"
    width="100"
    height="100"
    fill="hsla(206,100%,53%,0.3)"
    stroke="hsl(206,100%,53%)"
    stroke-width="3"
    transform="" />
  
  <path
    d="M 
      345.8333333333
      -50
      L
    
      350
      -50
      L
    
      250
      50
      L
    
      250
      45.8333333333
      z
    "
    fill="hsla(0,0%,50%,0.3)"
    stroke="hsla(0,0%,50%,1)"
    stroke-width="1"
    transform="translate(-274.4791666666,-22.9166666666) scale(1,-1) translate(50,-110)"
    />
  
  
  <line
    x1="345.8333333333333"
    y1="-50"
    x2="350"
    y2="-50"
    stroke="hsla(0,50%,50%,0.6)"
    stroke-width="1"
    transform="translate(-274.4791666666,-22.9166666666) scale(1,-1) translate(50,-110)"
    />
  
  <line
    x1="341.6666666666667"
    y1="-45.833333333333336"
    x2="345.8333333333333"
    y2="-45.833333333333336"
    stroke="hsla(0,50%,50%,0.6)"
    stroke-width="1"
    transform="translate(-274.4791666666,-22.9166666666) scale(1,-1) translate(50,-110)"
    />
  
  <line
    x1="337.5"
    y1="-41.666666666666664"
    x2="341.6666666666667"
    y2="-41.666666666666664"
    stroke="hsla(0,50%,50%,0.6)"
    stroke-width="1"
    transform="translate(-274.4791666666,-22.9166666666) scale(1,-1) translate(50,-110)"
    />
  
  <line
    x1="333.3333333333333"
    y1="-37.5"
    x2="337.5"
    y2="-37.5"
    stroke="hsla(0,50%,50%,0.6)"
    stroke-width="1"
    transform="translate(-274.4791666666,-22.9166666666) scale(1,-1) translate(50,-110)"
    />
  
  <line
    x1="329.1666666666667"
    y1="-33.333333333333336"
    x2="333.3333333333333"
    y2="-33.333333333333336"
    stroke="hsla(0,50%,50%,0.6)"
    stroke-width="1"
    transform="translate(-274.4791666666,-22.9166666666) scale(1,-1) translate(50,-110)"
    />
  
  <line
    x1="325"
    y1="-29.166666666666668"
    x2="329.1666666666667"
    y2="-29.166666666666668"
    stroke="hsla(0,50%,50%,0.6)"
    stroke-width="1"
    transform="translate(-274.4791666666,-22.9166666666) scale(1,-1) translate(50,-110)"
    />
  
  <line
    x1="320.8333333333333"
    y1="-25"
    x2="325"
    y2="-25"
    stroke="hsla(0,50%,50%,0.6)"
    stroke-width="1"
    transform="translate(-274.4791666666,-22.9166666666) scale(1,-1) translate(50,-110)"
    />
  
  <line
    x1="316.6666666666667"
    y1="-20.833333333333332"
    x2="320.8333333333333"
    y2="-20.833333333333332"
    stroke="hsla(0,50%,50%,0.6)"
    stroke-width="1"
    transform="translate(-274.4791666666,-22.9166666666) scale(1,-1) translate(50,-110)"
    />
  
  <line
    x1="312.5"
    y1="-16.666666666666668"
    x2="316.6666666666667"
    y2="-16.666666666666668"
    stroke="hsla(0,50%,50%,0.6)"
    stroke-width="1"
    transform="translate(-274.4791666666,-22.9166666666) scale(1,-1) translate(50,-110)"
    />
  
  <line
    x1="308.3333333333333"
    y1="-12.5"
    x2="312.5"
    y2="-12.5"
    stroke="hsla(0,50%,50%,0.6)"
    stroke-width="1"
    transform="translate(-274.4791666666,-22.9166666666) scale(1,-1) translate(50,-110)"
    />
  
  <line
    x1="304.1666666666667"
    y1="-8.333333333333334"
    x2="308.3333333333333"
    y2="-8.333333333333334"
    stroke="hsla(0,50%,50%,0.6)"
    stroke-width="1"
    transform="translate(-274.4791666666,-22.9166666666) scale(1,-1) translate(50,-110)"
    />
  
  <line
    x1="300"
    y1="-4.166666666666667"
    x2="304.1666666666667"
    y2="-4.166666666666667"
    stroke="hsla(0,50%,50%,0.6)"
    stroke-width="1"
    transform="translate(-274.4791666666,-22.9166666666) scale(1,-1) translate(50,-110)"
    />
  
  <line
    x1="295.8333333333333"
    y1="0"
    x2="300"
    y2="0"
    stroke="hsla(0,50%,50%,0.6)"
    stroke-width="1"
    transform="translate(-274.4791666666,-22.9166666666) scale(1,-1) translate(50,-110)"
    />
  
  <line
    x1="250"
    y1="45.833333333333336"
    x2="250"
    y2="50"
    stroke="hsla(0,50%,50%,0.6)"
    stroke-width="1"
    transform="translate(-274.4791666666,-22.9166666666) scale(1,-1) translate(50,-110)"
    />
  
  <line
    x1="254.16666666666666"
    y1="41.666666666666664"
    x2="254.16666666666666"
    y2="45.833333333333336"
    stroke="hsla(0,50%,50%,0.6)"
    stroke-width="1"
    transform="translate(-274.4791666666,-22.9166666666) scale(1,-1) translate(50,-110)"
    />
  
  <line
    x1="258.3333333333333"
    y1="37.5"
    x2="258.3333333333333"
    y2="41.666666666666664"
    stroke="hsla(0,50%,50%,0.6)"
    stroke-width="1"
    transform="translate(-274.4791666666,-22.9166666666) scale(1,-1) translate(50,-110)"
    />
  
  <line
    x1="262.5"
    y1="33.333333333333336"
    x2="262.5"
    y2="37.5"
    stroke="hsla(0,50%,50%,0.6)"
    stroke-width="1"
    transform="translate(-274.4791666666,-22.9166666666) scale(1,-1) translate(50,-110)"
    />
  
  <line
    x1="266.6666666666667"
    y1="29.166666666666668"
    x2="266.6666666666667"
    y2="33.333333333333336"
    stroke="hsla(0,50%,50%,0.6)"
    stroke-width="1"
    transform="translate(-274.4791666666,-22.9166666666) scale(1,-1) translate(50,-110)"
    />
  
  <line
    x1="270.8333333333333"
    y1="25"
    x2="270.8333333333333"
    y2="29.166666666666668"
    stroke="hsla(0,50%,50%,0.6)"
    stroke-width="1"
    transform="translate(-274.4791666666,-22.9166666666) scale(1,-1) translate(50,-110)"
    />
  
  <line
    x1="275"
    y1="20.833333333333332"
    x2="275"
    y2="25"
    stroke="hsla(0,50%,50%,0.6)"
    stroke-width="1"
    transform="translate(-274.4791666666,-22.9166666666) scale(1,-1) translate(50,-110)"
    />
  
  <line
    x1="279.1666666666667"
    y1="16.666666666666668"
    x2="279.1666666666667"
    y2="20.833333333333332"
    stroke="hsla(0,50%,50%,0.6)"
    stroke-width="1"
    transform="translate(-274.4791666666,-22.9166666666) scale(1,-1) translate(50,-110)"
    />
  
  <line
    x1="283.3333333333333"
    y1="12.5"
    x2="283.3333333333333"
    y2="16.666666666666668"
    stroke="hsla(0,50%,50%,0.6)"
    stroke-width="1"
    transform="translate(-274.4791666666,-22.9166666666) scale(1,-1) translate(50,-110)"
    />
  
  <line
    x1="287.5"
    y1="8.333333333333334"
    x2="287.5"
    y2="12.5"
    stroke="hsla(0,50%,50%,0.6)"
    stroke-width="1"
    transform="translate(-274.4791666666,-22.9166666666) scale(1,-1) translate(50,-110)"
    />
  
  <line
    x1="291.6666666666667"
    y1="4.166666666666667"
    x2="291.6666666666667"
    y2="8.333333333333334"
    stroke="hsla(0,50%,50%,0.6)"
    stroke-width="1"
    transform="translate(-274.4791666666,-22.9166666666) scale(1,-1) translate(50,-110)"
    />
  
  <line
    x1="295.8333333333333"
    y1="0"
    x2="295.8333333333333"
    y2="4.166666666666667"
    stroke="hsla(0,50%,50%,0.6)"
    stroke-width="1"
    transform="translate(-274.4791666666,-22.9166666666) scale(1,-1) translate(50,-110)"
    />
  
  <line
    x1="300"
    y1="-4.166666666666667"
    x2="300"
    y2="0"
    stroke="hsla(0,50%,50%,0.6)"
    stroke-width="1"
    transform="translate(-274.4791666666,-22.9166666666) scale(1,-1) translate(50,-110)"
    />
  
  <line
    x1="304.1666666666667"
    y1="-8.333333333333334"
    x2="304.1666666666667"
    y2="-4.166666666666667"
    stroke="hsla(0,50%,50%,0.6)"
    stroke-width="1"
    transform="translate(-274.4791666666,-22.9166666666) scale(1,-1) translate(50,-110)"
    />
  
  <line
    x1="308.3333333333333"
    y1="-12.5"
    x2="308.3333333333333"
    y2="-8.333333333333334"
    stroke="hsla(0,50%,50%,0.6)"
    stroke-width="1"
    transform="translate(-274.4791666666,-22.9166666666) scale(1,-1) translate(50,-110)"
    />
  
  <line
    x1="312.5"
    y1="-16.666666666666668"
    x2="312.5"
    y2="-12.5"
    stroke="hsla(0,50%,50%,0.6)"
    stroke-width="1"
    transform="translate(-274.4791666666,-22.9166666666) scale(1,-1) translate(50,-110)"
    />
  
  <line
    x1="316.6666666666667"
    y1="-20.833333333333332"
    x2="316.6666666666667"
    y2="-16.666666666666668"
    stroke="hsla(0,50%,50%,0.6)"
    stroke-width="1"
    transform="translate(-274.4791666666,-22.9166666666) scale(1,-1) translate(50,-110)"
    />
  
  <line
    x1="320.8333333333333"
    y1="-25"
    x2="320.8333333333333"
    y2="-20.833333333333332"
    stroke="hsla(0,50%,50%,0.6)"
    stroke-width="1"
    transform="translate(-274.4791666666,-22.9166666666) scale(1,-1) translate(50,-110)"
    />
  
  <line
    x1="325"
    y1="-29.166666666666668"
    x2="325"
    y2="-25"
    stroke="hsla(0,50%,50%,0.6)"
    stroke-width="1"
    transform="translate(-274.4791666666,-22.9166666666) scale(1,-1) translate(50,-110)"
    />
  
  <line
    x1="329.1666666666667"
    y1="-33.333333333333336"
    x2="329.1666666666667"
    y2="-29.166666666666668"
    stroke="hsla(0,50%,50%,0.6)"
    stroke-width="1"
    transform="translate(-274.4791666666,-22.9166666666) scale(1,-1) translate(50,-110)"
    />
  
  <line
    x1="333.3333333333333"
    y1="-37.5"
    x2="333.3333333333333"
    y2="-33.333333333333336"
    stroke="hsla(0,50%,50%,0.6)"
    stroke-width="1"
    transform="translate(-274.4791666666,-22.9166666666) scale(1,-1) translate(50,-110)"
    />
  
  <line
    x1="337.5"
    y1="-41.666666666666664"
    x2="337.5"
    y2="-37.5"
    stroke="hsla(0,50%,50%,0.6)"
    stroke-width="1"
    transform="translate(-274.4791666666,-22.9166666666) scale(1,-1) translate(50,-110)"
    />
  
  <line
    x1="341.6666666666667"
    y1="-45.833333333333336"
    x2="341.6666666666667"
    y2="-41.666666666666664"
    stroke="hsla(0,50%,50%,0.6)"
    stroke-width="1"
    transform="translate(-274.4791666666,-22.9166666666) scale(1,-1) translate(50,-110)"
    />
  
  <line
    x1="345.8333333333333"
    y1="-50"
    x2="345.8333333333333"
    y2="-45.833333333333336"
    stroke="hsla(0,50%,50%,0.6)"
    stroke-width="1"
    transform="translate(-274.4791666666,-22.9166666666) scale(1,-1) translate(50,-110)"
    />
  
  <line
    x1="291.6666666666667"
    y1="4.166666666666667"
    x2="295.8333333333333"
    y2="4.166666666666667"
    stroke="hsla(0,50%,50%,0.6)"
    stroke-width="1"
    transform="translate(-274.4791666666,-22.9166666666) scale(1,-1) translate(50,-110)"
    />
  
  <line
    x1="287.5"
    y1="8.333333333333334"
    x2="291.6666666666667"
    y2="8.333333333333334"
    stroke="hsla(0,50%,50%,0.6)"
    stroke-width="1"
    transform="translate(-274.4791666666,-22.9166666666) scale(1,-1) translate(50,-110)"
    />
  
  <line
    x1="283.3333333333333"
    y1="12.5"
    x2="287.5"
    y2="12.5"
    stroke="hsla(0,50%,50%,0.6)"
    stroke-width="1"
    transform="translate(-274.4791666666,-22.9166666666) scale(1,-1) translate(50,-110)"
    />
  
  <line
    x1="279.1666666666667"
    y1="16.666666666666668"
    x2="283.3333333333333"
    y2="16.666666666666668"
    stroke="hsla(0,50%,50%,0.6)"
    stroke-width="1"
    transform="translate(-274.4791666666,-22.9166666666) scale(1,-1) translate(50,-110)"
    />
  
  <line
    x1="275"
    y1="20.833333333333332"
    x2="279.1666666666667"
    y2="20.833333333333332"
    stroke="hsla(0,50%,50%,0.6)"
    stroke-width="1"
    transform="translate(-274.4791666666,-22.9166666666) scale(1,-1) translate(50,-110)"
    />
  
  <line
    x1="270.8333333333333"
    y1="25"
    x2="275"
    y2="25"
    stroke="hsla(0,50%,50%,0.6)"
    stroke-width="1"
    transform="translate(-274.4791666666,-22.9166666666) scale(1,-1) translate(50,-110)"
    />
  
  <line
    x1="266.6666666666667"
    y1="29.166666666666668"
    x2="270.8333333333333"
    y2="29.166666666666668"
    stroke="hsla(0,50%,50%,0.6)"
    stroke-width="1"
    transform="translate(-274.4791666666,-22.9166666666) scale(1,-1) translate(50,-110)"
    />
  
  <line
    x1="262.5"
    y1="33.333333333333336"
    x2="266.6666666666667"
    y2="33.333333333333336"
    stroke="hsla(0,50%,50%,0.6)"
    stroke-width="1"
    transform="translate(-274.4791666666,-22.9166666666) scale(1,-1) translate(50,-110)"
    />
  
  <line
    x1="258.3333333333333"
    y1="37.5"
    x2="262.5"
    y2="37.5"
    stroke="hsla(0,50%,50%,0.6)"
    stroke-width="1"
    transform="translate(-274.4791666666,-22.9166666666) scale(1,-1) translate(50,-110)"
    />
  
  <line
    x1="254.16666666666666"
    y1="41.666666666666664"
    x2="258.3333333333333"
    y2="41.666666666666664"
    stroke="hsla(0,50%,50%,0.6)"
    stroke-width="1"
    transform="translate(-274.4791666666,-22.9166666666) scale(1,-1) translate(50,-110)"
    />
  
  <line
    x1="250"
    y1="45.833333333333336"
    x2="254.16666666666666"
    y2="45.833333333333336"
    stroke="hsla(0,50%,50%,0.6)"
    stroke-width="1"
    transform="translate(-274.4791666666,-22.9166666666) scale(1,-1) translate(50,-110)"
    />
  
  <line
    x1="345.8333333333333"
    y1="-50"
    x2="250"
    y2="45.833333333333336"
    stroke="hsla(0,50%,50%,0.6)"
    stroke-width="1"
    transform="translate(-274.4791666666,-22.9166666666) scale(1,-1) translate(50,-110)"
    />
  
  <line
    x1="350"
    y1="-50"
    x2="250"
    y2="50"
    stroke="hsla(0,50%,50%,0.6)"
    stroke-width="1"
    transform="translate(-274.4791666666,-22.9166666666) scale(1,-1) translate(50,-110)"
    />
  
</svg>
