<?xml version="1.0"?>
<!DOCTYPE svg PUBLIC "-//W3C//DTD SVG 1.1//EN"
  "http://www.w3.org/Graphics/SVG/1.1/DTD/svg11.dtd">
<svg
  width="240"
  height="240"
  viewBox="-500 -500 1000 1000" xmlns="http://www.w3.org/2000/svg" version="1.1">
  <rect
    x="0"
    y="0"
    width="100"
    height="100"
    fill="hsla(206,100%,53%,0.3)"
    stroke="hsl(206,100%,53%)"
    stroke-width="3"
    transform="" />
  
  <path
    d="M 
      348
      -52
      L
    
      348
      -48
      L
    
      252
      48
      L
    
      248
      48
      z
    "
    fill="hsla(0,0%,50%,0.3)"
    stroke="hsla(0,0%,50%,1)"
    stroke-width="1"
    transform="translate(-298,2)"
    />
  
  
  <line
    x1="344"
    y1="-48"
    x2="348"
    y2="-48"
    stroke="hsla(0,50%,50%,0.6)"
    stroke-width="1"
    transform="translate(-298,2)"
    />
  
  <line
    x1="340"
    y1="-44"
    x2="344"
    y2="-44"
    stroke="hsla(0,50%,50%,0.6)"
    stroke-width="1"
    transform="translate(-298,2)"
    />
  
  <line
    x1="336"
    y1="-40"
    x2="340"
    y2="-40"
    stroke="hsla(0,50%,50%,0.6)"
    stroke-width="1"
    transform="translate(-298,2)"
    />
  
  <line
    x1="332"
    y1="-36"
    x2="336"
    y2="-36"
    stroke="hsla(0,50%,50%,0.6)"
    stroke-width="1"
    transform="translate(-298,2)"
    />
  
  <line
    x1="328"
    y1="-32"
    x2="332"
    y2="-32"
    stroke="hsla(0,50%,50%,0.6)"
    stroke-width="1"
    transform="translate(-298,2)"
    />
  
  <line
    x1="324"
    y1="-28"
    x2="328"
    y2="-28"
    stroke="hsla(0,50%,50%,0.6)"
    stroke-width="1"
    transform="translate(-298,2)"
    />
  
  <line
    x1="320"
    y1="-24"
    x2="324"
    y2="-24"
    stroke="hsla(0,50%,50%,0.6)"
    stroke-width="1"
    transform="translate(-298,2)"
    />
  
  <line
    x1="316"
    y1="-20"
    x2="320"
    y2="-20"
    stroke="hsla(0,50%,50%,0.6)"
    stroke-width="1"
    transform="translate(-298,2)"
    />
  
  <line
    x1="312"
    y1="-16"
    x2="316"
    y2="-16"
    stroke="hsla(0,50%,50%,0.6)"
    stroke-width="1"
    transform="translate(-298,2)"
    />
  
  <line
    x1="308"
    y1="-12"
    x2="312"
    y2="-12"
    stroke="hsla(0,50%,50%,0.6)"
    stroke-width="1"
    transform="translate(-298,2)"
    />
  
  <line
    x1="304"
    y1="-8"
    x2="308"
    y2="-8"
    stroke="hsla(0,50%,50%,0.6)"
    stroke-width="1"
    transform="translate(-298,2)"
    />
  
  <line
    x1="300"
    y1="-4"
    x2="304"
    y2="-4"
    stroke="hsla(0,50%,50%,0.6)"
    stroke-width="1"
    transform="translate(-298,2)"
    />
  
  <line
    x1="296"
    y1="0"
    x2="300"
    y2="0"
    stroke="hsla(0,50%,50%,0.6)"
    stroke-width="1"
    transform="translate(-298,2)"
    />
  
  <line
    x1="252"
    y1="44"
    x2="252"
    y2="48"
    stroke="hsla(0,50%,50%,0.6)"
    stroke-width="1"
    transform="translate(-298,2)"
    />
  
  <line
    x1="256"
    y1="40"
    x2="256"
    y2="44"
    stroke="hsla(0,50%,50%,0.6)"
    stroke-width="1"
    transform="translate(-298,2)"
    />
  
  <line
    x1="260"
    y1="36"
    x2="260"
    y2="40"
    stroke="hsla(0,50%,50%,0.6)"
    stroke-width="1"
    transform="translate(-298,2)"
    />
  
  <line
    x1="264"
    y1="32"
    x2="264"
    y2="36"
    stroke="hsla(0,50%,50%,0.6)"
    stroke-width="1"
    transform="translate(-298,2)"
    />
  
  <line
    x1="268"
    y1="28"
    x2="268"
    y2="32"
    stroke="hsla(0,50%,50%,0.6)"
    stroke-width="1"
    transform="translate(-298,2)"
    />
  
  <line
    x1="272"
    y1="24"
    x2="272"
    y2="28"
    stroke="hsla(0,50%,50%,0.6)"
    stroke-width="1"
    transform="translate(-298,2)"
    />
  
  <line
    x1="276"
    y1="20"
    x2="276"
    y2="24"
    stroke="hsla(0,50%,50%,0.6)"
    stroke-width="1"
    transform="translate(-298,2)"
    />
  
  <line
    x1="280"
    y1="16"
    x2="280"
    y2="20"
    stroke="hsla(0,50%,50%,0.6)"
    stroke-width="1"
    transform="translate(-298,2)"
    />
  
  <line
    x1="284"
    y1="12"
    x2="284"
    y2="16"
    stroke="hsla(0,50%,50%,0.6)"
    stroke-width="1"
    transform="translate(-298,2)"
    />
  
  <line
    x1="288"
    y1="8"
    x2="288"
    y2="12"
    stroke="hsla(0,50%,50%,0.6)"
    stroke-width="1"
    transform="translate(-298,2)"
    />
  
  <line
    x1="292"
    y1="4"
    x2="292"
    y2="8"
    stroke="hsla(0,50%,50%,0.6)"
    stroke-width="1"
    transform="translate(-298,2)"
    />
  
  <line
    x1="296"
    y1="0"
    x2="296"
    y2="4"
    stroke="hsla(0,50%,50%,0.6)"
    stroke-width="1"
    transform="translate(-298,2)"
    />
  
  <line
    x1="300"
    y1="-4"
    x2="300"
    y2="0"
    stroke="hsla(0,50%,50%,0.6)"
    stroke-width="1"
    transform="translate(-298,2)"
    />
  
  <line
    x1="304"
    y1="-8"
    x2="304"
    y2="-4"
    stroke="hsla(0,50%,50%,0.6)"
    stroke-width="1"
    transform="translate(-298,2)"
    />
  
  <line
    x1="308"
    y1="-12"
    x2="308"
    y2="-8"
    stroke="hsla(0,50%,50%,0.6)"
    stroke-width="1"
    transform="translate(-298,2)"
    />
  
  <line
    x1="312"
    y1="-16"
    x2="312"
    y2="-12"
    stroke="hsla(0,50%,50%,0.6)"
    stroke-width="1"
    transform="translate(-298,2)"
    />
  
  <line
    x1="316"
    y1="-20"
    x2="316"
    y2="-16"
    stroke="hsla(0,50%,50%,0.6)"
    stroke-width="1"
    transform="translate(-298,2)"
    />
  
  <line
    x1="320"
    y1="-24"
    x2="320"
    y2="-20"
    stroke="hsla(0,50%,50%,0.6)"
    stroke-width="1"
    transform="translate(-298,2)"
    />
  
  <line
    x1="324"
    y1="-28"
    x2="324"
    y2="-24"
    stroke="hsla(0,50%,50%,0.6)"
    stroke-width="1"
    transform="translate(-298,2)"
    />
  
  <line
    x1="328"
    y1="-32"
    x2="328"
    y2="-28"
    stroke="hsla(0,50%,50%,0.6)"
    stroke-width="1"
    transform="translate(-298,2)"
    />
  
  <line
    x1="332"
    y1="-36"
    x2="332"
    y2="-32"
    stroke="hsla(0,50%,50%,0.6)"
    stroke-width="1"
    transform="translate(-298,2)"
    />
  
  <line
    x1="336"
    y1="-40"
    x2="336"
    y2="-36"
    stroke="hsla(0,50%,50%,0.6)"
    stroke-width="1"
    transform="translate(-298,2)"
    />
  
  <line
    x1="340"
    y1="-44"
    x2="340"
    y2="-40"
    stroke="hsla(0,50%,50%,0.6)"
    stroke-width="1"
    transform="translate(-298,2)"
    />
  
  <line
    x1="344"
    y1="-48"
    x2="344"
    y2="-44"
    stroke="hsla(0,50%,50%,0.6)"
    stroke-width="1"
    transform="translate(-298,2)"
    />
  
  <line
    x1="348"
    y1="-52"
    x2="348"
    y2="-48"
    stroke="hsla(0,50%,50%,0.6)"
    stroke-width="1"
    transform="translate(-298,2)"
    />
  
  <line
    x1="292"
    y1="4"
    x2="296"
    y2="4"
    stroke="hsla(0,50%,50%,0.6)"
    stroke-width="1"
    transform="translate(-298,2)"
    />
  
  <line
    x1="288"
    y1="8"
    x2="292"
    y2="8"
    stroke="hsla(0,50%,50%,0.6)"
    stroke-width="1"
    transform="translate(-298,2)"
    />
  
  <line
    x1="284"
    y1="12"
    x2="288"
    y2="12"
    stroke="hsla(0,50%,50%,0.6)"
    stroke-width="1"
    transform="translate(-298,2)"
    />
  
  <line
    x1="280"
    y1="16"
    x2="284"
    y2="16"
    stroke="hsla(0,50%,50%,0.6)"
    stroke-width="1"
    transform="translate(-298,2)"
    />
  
  <line
    x1="276"
    y1="20"
    x2="280"
    y2="20"
    stroke="hsla(0,50%,50%,0.6)"
    stroke-width="1"
    transform="translate(-298,2)"
    />
  
  <line
    x1="272"
    y1="24"
    x2="276"
    y2="24"
    stroke="hsla(0,50%,50%,0.6)"
    stroke-width="1"
    transform="translate(-298,2)"
    />
  
  <line
    x1="268"
    y1="28"
    x2="272"
    y2="28"
    stroke="hsla(0,50%,50%,0.6)"
    stroke-width="1"
    transform="translate(-298,2)"
    />
  
  <line
    x1="264"
    y1="32"
    x2="268"
    y2="32"
    stroke="hsla(0,50%,50%,0.6)"
    stroke-width="1"
    transform="translate(-298,2)"
    />
  
  <line
    x1="260"
    y1="36"
    x2="264"
    y2="36"
    stroke="hsla(0,50%,50%,0.6)"
    stroke-width="1"
    transform="translate(-298,2)"
    />
  
  <line
    x1="256"
    y1="40"
    x2="260"
    y2="40"
    stroke="hsla(0,50%,50%,0.6)"
    stroke-width="1"
    transform="translate(-298,2)"
    />
  
  <line
    x1="252"
    y1="44"
    x2="256"
    y2="44"
    stroke="hsla(0,50%,50%,0.6)"
    stroke-width="1"
    transform="translate(-298,2)"
    />
  
  <line
    x1="248"
    y1="48"
    x2="252"
    y2="48"
    stroke="hsla(0,50%,50%,0.6)"
    stroke-width="1"
    transform="translate(-298,2)"
    />
  
  <line
    x1="348"
    y1="-52"
    x2="248"
    y2="48"
    stroke="hsla(0,50%,50%,0.6)"
    stroke-width="1"
    transform="translate(-298,2)"
    />
  
  <line
    x1="348"
    y1="-48"
    x2="252"
    y2="48"
    stroke="hsla(0,50%,50%,0.6)"
    stroke-width="1"
    transform="translate(-298,2)"
    />
  
</svg>
