<?xml version="1.0"?>
<!DOCTYPE svg PUBLIC "-//W3C//DTD SVG 1.1//EN"
  "http://www.w3.org/Graphics/SVG/1.1/DTD/svg11.dtd">
<svg
  width="240"
  height="240"
  viewBox="-50 -50 200 200" xmlns="http://www.w3.org/2000/svg" version="1.1">
  <rect
    x="0"
    y="0"
    width="100"
    height="100"
    fill="hsla(206,100%,53%,0.3)"
    stroke="hsl(206,100%,53%)"
    stroke-width="3"
    transform="" />
  
  <path
    d="M 
      -52.1739130434
      -47.8260869565
      L
    
      -47.8260869565
      -47.8260869565
      L
    
      47.8260869565
      47.8260869565
      L
    
      47.8260869565
      52.1739130434
      z
    "
    fill="hsla(0,0%,50%,0.3)"
    stroke="hsla(0,0%,50%,1)"
    stroke-width="1"
    transform="translate(-23.3695652173,-26.0869565217) scale(1,-1) translate(50,-110)"
    />
  
  
  <line
    x1="-52.17391304347826"
    y1="-47.82608695652174"
    x2="-47.82608695652174"
    y2="-47.82608695652174"
    stroke="hsla(0,50%,50%,0.6)"
    stroke-width="1"
    transform="translate(-23.3695652173,-26.0869565217) scale(1,-1) translate(50,-110)"
    />
  
  <line
    x1="-47.82608695652174"
    y1="-43.47826086956522"
    x2="-43.47826086956522"
    y2="-43.47826086956522"
    stroke="hsla(0,50%,50%,0.6)"
    stroke-width="1"
    transform="translate(-23.3695652173,-26.0869565217) scale(1,-1) translate(50,-110)"
    />
  
  <line
    x1="-43.47826086956522"
    y1="-39.130434782608695"
    x2="-39.130434782608695"
    y2="-39.130434782608695"
    stroke="hsla(0,50%,50%,0.6)"
    stroke-width="1"
    transform="translate(-23.3695652173,-26.0869565217) scale(1,-1) translate(50,-110)"
    />
  
  <line
    x1="-39.130434782608695"
    y1="-34.78260869565217"
    x2="-34.78260869565217"
    y2="-34.78260869565217"
    stroke="hsla(0,50%,50%,0.6)"
    stroke-width="1"
    transform="translate(-23.3695652173,-26.0869565217) scale(1,-1) translate(50,-110)"
    />
  
  <line
    x1="-34.78260869565217"
    y1="-30.434782608695652"
    x2="-30.434782608695652"
    y2="-30.434782608695652"
    stroke="hsla(0,50%,50%,0.6)"
    stroke-width="1"
    transform="translate(-23.3695652173,-26.0869565217) scale(1,-1) translate(50,-110)"
    />
  
  <line
    x1="-30.434782608695652"
    y1="-26.08695652173913"
    x2="-26.08695652173913"
    y2="-26.08695652173913"
    stroke="hsla(0,50%,50%,0.6)"
    stroke-width="1"
    transform="translate(-23.3695652173,-26.0869565217) scale(1,-1) translate(50,-110)"
    />
  
  <line
    x1="-26.08695652173913"
    y1="-21.73913043478261"
    x2="-21.73913043478261"
    y2="-21.73913043478261"
    stroke="hsla(0,50%,50%,0.6)"
    stroke-width="1"
    transform="translate(-23.3695652173,-26.0869565217) scale(1,-1) translate(50,-110)"
    />
  
  <line
    x1="-21.73913043478261"
    y1="-17.391304347826086"
    x2="-17.391304347826086"
    y2="-17.391304347826086"
    stroke="hsla(0,50%,50%,0.6)"
    stroke-width="1"
    transform="translate(-23.3695652173,-26.0869565217) scale(1,-1) translate(50,-110)"
    />
  
  <line
    x1="-17.391304347826086"
    y1="-13.043478260869565"
    x2="-13.043478260869565"
    y2="-13.043478260869565"
    stroke="hsla(0,50%,50%,0.6)"
    stroke-width="1"
    transform="translate(-23.3695652173,-26.0869565217) scale(1,-1) translate(50,-110)"
    />
  
  <line
    x1="-13.043478260869565"
    y1="-8.695652173913043"
    x2="-8.695652173913043"
    y2="-8.695652173913043"
    stroke="hsla(0,50%,50%,0.6)"
    stroke-width="1"
    transform="translate(-23.3695652173,-26.0869565217) scale(1,-1) translate(50,-110)"
    />
  
  <line
    x1="-8.695652173913043"
    y1="-4.3478260869565215"
    x2="-4.3478260869565215"
    y2="-4.3478260869565215"
    stroke="hsla(0,50%,50%,0.6)"
    stroke-width="1"
    transform="translate(-23.3695652173,-26.0869565217) scale(1,-1) translate(50,-110)"
    />
  
  <line
    x1="-47.82608695652174"
    y1="-47.82608695652174"
    x2="-47.82608695652174"
    y2="-43.47826086956522"
    stroke="hsla(0,50%,50%,0.6)"
    stroke-width="1"
    transform="translate(-23.3695652173,-26.0869565217) scale(1,-1) translate(50,-110)"
    />
  
  <line
    x1="-43.47826086956522"
    y1="-43.47826086956522"
    x2="-43.47826086956522"
    y2="-39.130434782608695"
    stroke="hsla(0,50%,50%,0.6)"
    stroke-width="1"
    transform="translate(-23.3695652173,-26.0869565217) scale(1,-1) translate(50,-110)"
    />
  
  <line
    x1="-39.130434782608695"
    y1="-39.130434782608695"
    x2="-39.130434782608695"
    y2="-34.78260869565217"
    stroke="hsla(0,50%,50%,0.6)"
    stroke-width="1"
    transform="translate(-23.3695652173,-26.0869565217) scale(1,-1) translate(50,-110)"
    />
  
  <line
    x1="-34.78260869565217"
    y1="-34.78260869565217"
    x2="-34.78260869565217"
    y2="-30.434782608695652"
    stroke="hsla(0,50%,50%,0.6)"
    stroke-width="1"
    transform="translate(-23.3695652173,-26.0869565217) scale(1,-1) translate(50,-110)"
    />
  
  <line
    x1="-30.434782608695652"
    y1="-30.434782608695652"
    x2="-30.434782608695652"
    y2="-26.08695652173913"
    stroke="hsla(0,50%,50%,0.6)"
    stroke-width="1"
    transform="translate(-23.3695652173,-26.0869565217) scale(1,-1) translate(50,-110)"
    />
  
  <line
    x1="-26.08695652173913"
    y1="-26.08695652173913"
    x2="-26.08695652173913"
    y2="-21.73913043478261"
    stroke="hsla(0,50%,50%,0.6)"
    stroke-width="1"
    transform="translate(-23.3695652173,-26.0869565217) scale(1,-1) translate(50,-110)"
    />
  
  <line
    x1="-21.73913043478261"
    y1="-21.73913043478261"
    x2="-21.73913043478261"
    y2="-17.391304347826086"
    stroke="hsla(0,50%,50%,0.6)"
    stroke-width="1"
    transform="translate(-23.3695652173,-26.0869565217) scale(1,-1) translate(50,-110)"
    />
  
  <line
    x1="-17.391304347826086"
    y1="-17.391304347826086"
    x2="-17.391304347826086"
    y2="-13.043478260869565"
    stroke="hsla(0,50%,50%,0.6)"
    stroke-width="1"
    transform="translate(-23.3695652173,-26.0869565217) scale(1,-1) translate(50,-110)"
    />
  
  <line
    x1="-13.043478260869565"
    y1="-13.043478260869565"
    x2="-13.043478260869565"
    y2="-8.695652173913043"
    stroke="hsla(0,50%,50%,0.6)"
    stroke-width="1"
    transform="translate(-23.3695652173,-26.0869565217) scale(1,-1) translate(50,-110)"
    />
  
  <line
    x1="-8.695652173913043"
    y1="-8.695652173913043"
    x2="-8.695652173913043"
    y2="-4.3478260869565215"
    stroke="hsla(0,50%,50%,0.6)"
    stroke-width="1"
    transform="translate(-23.3695652173,-26.0869565217) scale(1,-1) translate(50,-110)"
    />
  
  <line
    x1="-4.3478260869565215"
    y1="-4.3478260869565215"
    x2="-4.3478260869565215"
    y2="0"
    stroke="hsla(0,50%,50%,0.6)"
    stroke-width="1"
    transform="translate(-23.3695652173,-26.0869565217) scale(1,-1) translate(50,-110)"
    />
  
  <line
    x1="-4.3478260869565215"
    y1="0"
    x2="0"
    y2="0"
    stroke="hsla(0,50%,50%,0.6)"
    stroke-width="1"
    transform="translate(-23.3695652173,-26.0869565217) scale(1,-1) translate(50,-110)"
    />
  
  <line
    x1="-47.82608695652174"
    y1="-47.82608695652174"
    x2="47.82608695652174"
    y2="47.82608695652174"
    stroke="hsla(0,50%,50%,0.6)"
    stroke-width="1"
    transform="translate(-23.3695652173,-26.0869565217) scale(1,-1) translate(50,-110)"
    />
  
  <line
    x1="0"
    y1="0"
    x2="0"
    y2="4.3478260869565215"
    stroke="hsla(0,50%,50%,0.6)"
    stroke-width="1"
    transform="translate(-23.3695652173,-26.0869565217) scale(1,-1) translate(50,-110)"
    />
  
  <line
    x1="4.3478260869565215"
    y1="4.3478260869565215"
    x2="4.3478260869565215"
    y2="8.695652173913043"
    stroke="hsla(0,50%,50%,0.6)"
    stroke-width="1"
    transform="translate(-23.3695652173,-26.0869565217) scale(1,-1) translate(50,-110)"
    />
  
  <line
    x1="8.695652173913043"
    y1="8.695652173913043"
    x2="8.695652173913043"
    y2="13.043478260869565"
    stroke="hsla(0,50%,50%,0.6)"
    stroke-width="1"
    transform="translate(-23.3695652173,-26.0869565217) scale(1,-1) translate(50,-110)"
    />
  
  <line
    x1="13.043478260869565"
    y1="13.043478260869565"
    x2="13.043478260869565"
    y2="17.391304347826086"
    stroke="hsla(0,50%,50%,0.6)"
    stroke-width="1"
    transform="translate(-23.3695652173,-26.0869565217) scale(1,-1) translate(50,-110)"
    />
  
  <line
    x1="17.391304347826086"
    y1="17.391304347826086"
    x2="17.391304347826086"
    y2="21.73913043478261"
    stroke="hsla(0,50%,50%,0.6)"
    stroke-width="1"
    transform="translate(-23.3695652173,-26.0869565217) scale(1,-1) translate(50,-110)"
    />
  
  <line
    x1="21.73913043478261"
    y1="21.73913043478261"
    x2="21.73913043478261"
    y2="26.08695652173913"
    stroke="hsla(0,50%,50%,0.6)"
    stroke-width="1"
    transform="translate(-23.3695652173,-26.0869565217) scale(1,-1) translate(50,-110)"
    />
  
  <line
    x1="26.08695652173913"
    y1="26.08695652173913"
    x2="26.08695652173913"
    y2="30.434782608695652"
    stroke="hsla(0,50%,50%,0.6)"
    stroke-width="1"
    transform="translate(-23.3695652173,-26.0869565217) scale(1,-1) translate(50,-110)"
    />
  
  <line
    x1="30.434782608695652"
    y1="30.434782608695652"
    x2="30.434782608695652"
    y2="34.78260869565217"
    stroke="hsla(0,50%,50%,0.6)"
    stroke-width="1"
    transform="translate(-23.3695652173,-26.0869565217) scale(1,-1) translate(50,-110)"
    />
  
  <line
    x1="34.78260869565217"
    y1="34.78260869565217"
    x2="34.78260869565217"
    y2="39.130434782608695"
    stroke="hsla(0,50%,50%,0.6)"
    stroke-width="1"
    transform="translate(-23.3695652173,-26.0869565217) scale(1,-1) translate(50,-110)"
    />
  
  <line
    x1="39.130434782608695"
    y1="39.130434782608695"
    x2="39.130434782608695"
    y2="43.47826086956522"
    stroke="hsla(0,50%,50%,0.6)"
    stroke-width="1"
    transform="translate(-23.3695652173,-26.0869565217) scale(1,-1) translate(50,-110)"
    />
  
  <line
    x1="43.47826086956522"
    y1="43.47826086956522"
    x2="43.47826086956522"
    y2="47.82608695652174"
    stroke="hsla(0,50%,50%,0.6)"
    stroke-width="1"
    transform="translate(-23.3695652173,-26.0869565217) scale(1,-1) translate(50,-110)"
    />
  
  <line
    x1="47.82608695652174"
    y1="47.82608695652174"
    x2="47.82608695652174"
    y2="52.17391304347826"
    stroke="hsla(0,50%,50%,0.6)"
    stroke-width="1"
    transform="translate(-23.3695652173,-26.0869565217) scale(1,-1) translate(50,-110)"
    />
  
  <line
    x1="-52.17391304347826"
    y1="-47.82608695652174"
    x2="47.82608695652174"
    y2="52.17391304347826"
    stroke="hsla(0,50%,50%,0.6)"
    stroke-width="1"
    transform="translate(-23.3695652173,-26.0869565217) scale(1,-1) translate(50,-110)"
    />
  
  <line
    x1="0"
    y1="4.3478260869565215"
    x2="4.3478260869565215"
    y2="4.3478260869565215"
    stroke="hsla(0,50%,50%,0.6)"
    stroke-width="1"
    transform="translate(-23.3695652173,-26.0869565217) scale(1,-1) translate(50,-110)"
    />
  
  <line
    x1="4.3478260869565215"
    y1="8.695652173913043"
    x2="8.695652173913043"
    y2="8.695652173913043"
    stroke="hsla(0,50%,50%,0.6)"
    stroke-width="1"
    transform="translate(-23.3695652173,-26.0869565217) scale(1,-1) translate(50,-110)"
    />
  
  <line
    x1="8.695652173913043"
    y1="13.043478260869565"
    x2="13.043478260869565"
    y2="13.043478260869565"
    stroke="hsla(0,50%,50%,0.6)"
    stroke-width="1"
    transform="translate(-23.3695652173,-26.0869565217) scale(1,-1) translate(50,-110)"
    />
  
  <line
    x1="13.043478260869565"
    y1="17.391304347826086"
    x2="17.391304347826086"
    y2="17.391304347826086"
    stroke="hsla(0,50%,50%,0.6)"
    stroke-width="1"
    transform="translate(-23.3695652173,-26.0869565217) scale(1,-1) translate(50,-110)"
    />
  
  <line
    x1="17.391304347826086"
    y1="21.73913043478261"
    x2="21.73913043478261"
    y2="21.73913043478261"
    stroke="hsla(0,50%,50%,0.6)"
    stroke-width="1"
    transform="translate(-23.3695652173,-26.0869565217) scale(1,-1) translate(50,-110)"
    />
  
  <line
    x1="21.73913043478261"
    y1="26.08695652173913"
    x2="26.08695652173913"
    y2="26.08695652173913"
    stroke="hsla(0,50%,50%,0.6)"
    stroke-width="1"
    transform="translate(-23.3695652173,-26.0869565217) scale(1,-1) translate(50,-110)"
    />
  
  <line
    x1="26.08695652173913"
    y1="30.434782608695652"
    x2="30.434782608695652"
    y2="30.434782608695652"
    stroke="hsla(0,50%,50%,0.6)"
    stroke-width="1"
    transform="translate(-23.3695652173,-26.0869565217) scale(1,-1) translate(50,-110)"
    />
  
  <line
    x1="30.434782608695652"
    y1="34.78260869565217"
    x2="34.78260869565217"
    y2="34.78260869565217"
    stroke="hsla(0,50%,50%,0.6)"
    stroke-width="1"
    transform="translate(-23.3695652173,-26.0869565217) scale(1,-1) translate(50,-110)"
    />
  
  <line
    x1="34.78260869565217"
    y1="39.130434782608695"
    x2="39.130434782608695"
    y2="39.130434782608695"
    stroke="hsla(0,50%,50%,0.6)"
    stroke-width="1"
    transform="translate(-23.3695652173,-26.0869565217) scale(1,-1) translate(50,-110)"
    />
  
  <line
    x1="39.130434782608695"
    y1="43.47826086956522"
    x2="43.47826086956522"
    y2="43.47826086956522"
    stroke="hsla(0,50%,50%,0.6)"
    stroke-width="1"
    transform="translate(-23.3695652173,-26.0869565217) scale(1,-1) translate(50,-110)"
    />
  
  <line
    x1="43.47826086956522"
    y1="47.82608695652174"
    x2="47.82608695652174"
    y2="47.82608695652174"
    stroke="hsla(0,50%,50%,0.6)"
    stroke-width="1"
    transform="translate(-23.3695652173,-26.0869565217) scale(1,-1) translate(50,-110)"
    />
  
</svg>
