<?xml version="1.0"?>
<!DOCTYPE svg PUBLIC "-//W3C//DTD SVG 1.1//EN"
  "http://www.w3.org/Graphics/SVG/1.1/DTD/svg11.dtd">
<svg
  width="240"
  height="240"
  viewBox="-500 -500 1000 1000" xmlns="http://www.w3.org/2000/svg" version="1.1">
  <rect
    x="0"
    y="0"
    width="100"
    height="100"
    fill="hsla(206,100%,53%,0.3)"
    stroke="hsl(206,100%,53%)"
    stroke-width="3"
    transform="" />
  
  <path
    d="M 
      29.6875
      0
      L
    
      40.234375
      0
      L
    
      52.734375
      12.5
      L
    
      52.734375
      30.078125
      L
    
      40.234375
      42.578125
      L
    
      23.046875
      42.578125
      L
    
      23.046875
      30.078125
      L
    
      40.234375
      30.078125
      L
    
      40.234375
      12.5
      L
    
      29.6875
      12.5
      L
    
      29.6875
      29.6875
      L
    
      17.1875
      29.6875
      L
    
      17.1875
      12.5
      z
    "
    fill="hsla(0,0%,50%,0.3)"
    stroke="hsla(0,0%,50%,1)"
    stroke-width="1"
    transform="translate(-34.9609375,-21.2890625)"
    />
  
  
  <line
    x1="40.234375"
    y1="0"
    x2="52.734375"
    y2="12.5"
    stroke="hsla(0,50%,50%,0.6)"
    stroke-width="1"
    transform="translate(-34.9609375,-21.2890625)"
    />
  
  <line
    x1="29.6875"
    y1="0"
    x2="40.234375"
    y2="0"
    stroke="hsla(0,50%,50%,0.6)"
    stroke-width="1"
    transform="translate(-34.9609375,-21.2890625)"
    />
  
  <line
    x1="17.1875"
    y1="12.5"
    x2="17.1875"
    y2="29.6875"
    stroke="hsla(0,50%,50%,0.6)"
    stroke-width="1"
    transform="translate(-34.9609375,-21.2890625)"
    />
  
  <line
    x1="23.046875"
    y1="30.078125"
    x2="23.046875"
    y2="42.578125"
    stroke="hsla(0,50%,50%,0.6)"
    stroke-width="1"
    transform="translate(-34.9609375,-21.2890625)"
    />
  
  <line
    x1="29.6875"
    y1="0"
    x2="29.6875"
    y2="29.6875"
    stroke="hsla(0,50%,50%,0.6)"
    stroke-width="1"
    transform="translate(-34.9609375,-21.2890625)"
    />
  
  <line
    x1="40.234375"
    y1="0"
    x2="40.234375"
    y2="42.578125"
    stroke="hsla(0,50%,50%,0.6)"
    stroke-width="1"
    transform="translate(-34.9609375,-21.2890625)"
    />
  
  <line
    x1="52.734375"
    y1="12.5"
    x2="52.734375"
    y2="30.078125"
    stroke="hsla(0,50%,50%,0.6)"
    stroke-width="1"
    transform="translate(-34.9609375,-21.2890625)"
    />
  
  <line
    x1="17.1875"
    y1="12.5"
    x2="52.734375"
    y2="12.5"
    stroke="hsla(0,50%,50%,0.6)"
    stroke-width="1"
    transform="translate(-34.9609375,-21.2890625)"
    />
  
  <line
    x1="29.6875"
    y1="0"
    x2="17.1875"
    y2="12.5"
    stroke="hsla(0,50%,50%,0.6)"
    stroke-width="1"
    transform="translate(-34.9609375,-21.2890625)"
    />
  
  <line
    x1="17.1875"
    y1="29.6875"
    x2="29.6875"
    y2="29.6875"
    stroke="hsla(0,50%,50%,0.6)"
    stroke-width="1"
    transform="translate(-34.9609375,-21.2890625)"
    />
  
  <line
    x1="23.046875"
    y1="30.078125"
    x2="52.734375"
    y2="30.078125"
    stroke="hsla(0,50%,50%,0.6)"
    stroke-width="1"
    transform="translate(-34.9609375,-21.2890625)"
    />
  
  <line
    x1="52.734375"
    y1="30.078125"
    x2="40.234375"
    y2="42.578125"
    stroke="hsla(0,50%,50%,0.6)"
    stroke-width="1"
    transform="translate(-34.9609375,-21.2890625)"
    />
  
  <line
    x1="23.046875"
    y1="42.578125"
    x2="40.234375"
    y2="42.578125"
    stroke="hsla(0,50%,50%,0.6)"
    stroke-width="1"
    transform="translate(-34.9609375,-21.2890625)"
    />
  
</svg>
