<?xml version="1.0"?>
<!DOCTYPE svg PUBLIC "-//W3C//DTD SVG 1.1//EN"
  "http://www.w3.org/Graphics/SVG/1.1/DTD/svg11.dtd">
<svg
  width="240"
  height="240"
  viewBox="-500 -500 1000 1000" xmlns="http://www.w3.org/2000/svg" version="1.1">
  <rect
    x="0"
    y="0"
    width="100"
    height="100"
    fill="hsla(206,100%,53%,0.3)"
    stroke="hsl(206,100%,53%)"
    stroke-width="3"
    transform="" />
  
  <path
    d="M 
      76.4755937412
      2.7368246582
      L
    
      97.0915569469
      19.0374890671
      L
    
      101.3978021380
      30.8672261980
      L
    
      107.6964783841
      31.0124599347
      L
    
      116.9269611108
      26.2239657536
      L
    
      115.3537568342
      31.1890200751
      L
    
      100.9806741170
      41.4598037702
      L
    
      94.7907944765
      56.7245985602
      L
    
      70.7209783933
      63.0829166105
      L
    
      65.8508220996
      52.7207158905
      L
    
      58.3365476780
      25.6778469900
      z
    "
    fill="hsla(0,0%,50%,0.3)"
    stroke="hsla(0,0%,50%,1)"
    stroke-width="1"
    transform="translate(-87.6317543944,-32.9098706344)"
    />
  
  
  <line
    x1="76.47559374122271"
    y1="2.7368246582729316"
    x2="97.09155694697462"
    y2="19.037489067112205"
    stroke="hsla(0,50%,50%,0.6)"
    stroke-width="1"
    transform="translate(-87.6317543944,-32.9098706344)"
    />
  
  <line
    x1="97.09155694697462"
    y1="19.037489067112205"
    x2="103.23235691470342"
    y2="35.90695333781377"
    stroke="hsla(0,50%,50%,0.6)"
    stroke-width="1"
    transform="translate(-87.6317543944,-32.9098706344)"
    />
  
  <line
    x1="94.26213489007293"
    y1="40.70327634868322"
    x2="97.84890543365053"
    y2="49.183024423652554"
    stroke="hsla(0,50%,50%,0.6)"
    stroke-width="1"
    transform="translate(-87.6317543944,-32.9098706344)"
    />
  
  <line
    x1="82.19561627152599"
    y1="35.810298817291475"
    x2="94.79079447653069"
    y2="56.724598560244395"
    stroke="hsla(0,50%,50%,0.6)"
    stroke-width="1"
    transform="translate(-87.6317543944,-32.9098706344)"
    />
  
  <line
    x1="65.85082209967321"
    y1="52.720715890522875"
    x2="70.72097839334683"
    y2="63.082916610547294"
    stroke="hsla(0,50%,50%,0.6)"
    stroke-width="1"
    transform="translate(-87.6317543944,-32.9098706344)"
    />
  
  <line
    x1="94.55845877231602"
    y1="31.309993317860787"
    x2="103.23235691470342"
    y2="35.90695333781377"
    stroke="hsla(0,50%,50%,0.6)"
    stroke-width="1"
    transform="translate(-87.6317543944,-32.9098706344)"
    />
  
  <line
    x1="58.33654767805194"
    y1="25.677846990036628"
    x2="65.85082209967321"
    y2="52.720715890522875"
    stroke="hsla(0,50%,50%,0.6)"
    stroke-width="1"
    transform="translate(-87.6317543944,-32.9098706344)"
    />
  
  <line
    x1="96.08613613805224"
    y1="18.242521253465025"
    x2="99.28801647229517"
    y2="45.63404835937404"
    stroke="hsla(0,50%,50%,0.6)"
    stroke-width="1"
    transform="translate(-87.6317543944,-32.9098706344)"
    />
  
  <line
    x1="63.25428115325077"
    y1="27.527251031991746"
    x2="65.85082209967321"
    y2="52.720715890522875"
    stroke="hsla(0,50%,50%,0.6)"
    stroke-width="1"
    transform="translate(-87.6317543944,-32.9098706344)"
    />
  
  <line
    x1="82.19561627152599"
    y1="35.810298817291475"
    x2="100.2953941993464"
    y2="43.149765114379086"
    stroke="hsla(0,50%,50%,0.6)"
    stroke-width="1"
    transform="translate(-87.6317543944,-32.9098706344)"
    />
  
  <line
    x1="58.33654767805194"
    y1="25.677846990036628"
    x2="63.25428115325077"
    y2="27.527251031991746"
    stroke="hsla(0,50%,50%,0.6)"
    stroke-width="1"
    transform="translate(-87.6317543944,-32.9098706344)"
    />
  
  <line
    x1="83.35601350243577"
    y1="24.410874224608094"
    x2="82.19561627152599"
    y2="35.810298817291475"
    stroke="hsla(0,50%,50%,0.6)"
    stroke-width="1"
    transform="translate(-87.6317543944,-32.9098706344)"
    />
  
  <line
    x1="83.35601350243577"
    y1="24.410874224608094"
    x2="99.65139568753037"
    y2="26.06965236822921"
    stroke="hsla(0,50%,50%,0.6)"
    stroke-width="1"
    transform="translate(-87.6317543944,-32.9098706344)"
    />
  
  <line
    x1="97.09155694697462"
    y1="19.037489067112205"
    x2="94.55845877231602"
    y2="31.309993317860787"
    stroke="hsla(0,50%,50%,0.6)"
    stroke-width="1"
    transform="translate(-87.6317543944,-32.9098706344)"
    />
  
  <line
    x1="59.510123006058905"
    y1="29.90138767532477"
    x2="115.35375683428516"
    y2="31.189020075108445"
    stroke="hsla(0,50%,50%,0.6)"
    stroke-width="1"
    transform="translate(-87.6317543944,-32.9098706344)"
    />
  
  <line
    x1="116.92696111080582"
    y1="26.223965753608205"
    x2="115.35375683428516"
    y2="31.189020075108445"
    stroke="hsla(0,50%,50%,0.6)"
    stroke-width="1"
    transform="translate(-87.6317543944,-32.9098706344)"
    />
  
  <line
    x1="76.47559374122271"
    y1="2.7368246582729316"
    x2="58.33654767805194"
    y2="25.677846990036628"
    stroke="hsla(0,50%,50%,0.6)"
    stroke-width="1"
    transform="translate(-87.6317543944,-32.9098706344)"
    />
  
  <line
    x1="103.23235691470342"
    y1="35.90695333781377"
    x2="94.79079447653069"
    y2="56.724598560244395"
    stroke="hsla(0,50%,50%,0.6)"
    stroke-width="1"
    transform="translate(-87.6317543944,-32.9098706344)"
    />
  
  <line
    x1="63.25428115325077"
    y1="27.527251031991746"
    x2="59.510123006058905"
    y2="29.90138767532477"
    stroke="hsla(0,50%,50%,0.6)"
    stroke-width="1"
    transform="translate(-87.6317543944,-32.9098706344)"
    />
  
  <line
    x1="99.65139568753037"
    y1="26.06965236822921"
    x2="94.55845877231602"
    y2="31.309993317860787"
    stroke="hsla(0,50%,50%,0.6)"
    stroke-width="1"
    transform="translate(-87.6317543944,-32.9098706344)"
    />
  
  <line
    x1="94.26213489007293"
    y1="40.70327634868322"
    x2="65.85082209967321"
    y2="52.720715890522875"
    stroke="hsla(0,50%,50%,0.6)"
    stroke-width="1"
    transform="translate(-87.6317543944,-32.9098706344)"
    />
  
  <line
    x1="116.92696111080582"
    y1="26.223965753608205"
    x2="65.85082209967321"
    y2="52.720715890522875"
    stroke="hsla(0,50%,50%,0.6)"
    stroke-width="1"
    transform="translate(-87.6317543944,-32.9098706344)"
    />
  
  <line
    x1="115.35375683428516"
    y1="31.189020075108445"
    x2="70.72097839334683"
    y2="63.082916610547294"
    stroke="hsla(0,50%,50%,0.6)"
    stroke-width="1"
    transform="translate(-87.6317543944,-32.9098706344)"
    />
  
  <line
    x1="99.28801647229517"
    y1="45.63404835937404"
    x2="91.79194252295815"
    y2="51.74500338335084"
    stroke="hsla(0,50%,50%,0.6)"
    stroke-width="1"
    transform="translate(-87.6317543944,-32.9098706344)"
    />
  
  <line
    x1="94.79079447653069"
    y1="56.724598560244395"
    x2="70.72097839334683"
    y2="63.082916610547294"
    stroke="hsla(0,50%,50%,0.6)"
    stroke-width="1"
    transform="translate(-87.6317543944,-32.9098706344)"
    />
  
  <line
    x1="97.84890543365053"
    y1="49.183024423652554"
    x2="91.79194252295815"
    y2="51.74500338335084"
    stroke="hsla(0,50%,50%,0.6)"
    stroke-width="1"
    transform="translate(-87.6317543944,-32.9098706344)"
    />
  
</svg>
