<?xml version="1.0"?>
<!DOCTYPE svg PUBLIC "-//W3C//DTD SVG 1.1//EN"
  "http://www.w3.org/Graphics/SVG/1.1/DTD/svg11.dtd">
<svg
  width="240"
  height="240"
  viewBox="-500 -500 1000 1000" xmlns="http://www.w3.org/2000/svg" version="1.1">
  <rect
    x="0"
    y="0"
    width="100"
    height="100"
    fill="hsla(206,100%,53%,0.3)"
    stroke="hsl(206,100%,53%)"
    stroke-width="3"
    transform="" />
  
  <path
    d="M 
      105
      28.75
      L
    
      108.0288461538
      29.5192307692
      L
    
      88.7281563545
      116.5213675213
      L
    
      39.9090826410
      123.4478656148
      L
    
      37.1590821509
      117.8353797748
      L
    
      42.0102611205
      111.4744540379
      L
    
      43.1499406659
      104.9800736715
      L
    
      46.5131078024
      105.5702658957
      L
    
      94.5577506649
      42.5735372198
      L
    
      92.7486891401
      33.9545266683
      L
    
      102.7285960944
      31.8598238501
      L
    
      104.8313049062
      29.1027261050
      z
    "
    fill="hsla(0,0%,50%,0.3)"
    stroke="hsla(0,0%,50%,1)"
    stroke-width="1"
    transform="translate(-72.5939641524,-76.0989328074)"
    />
  
  
  <line
    x1="104.95885167080904"
    y1="28.935485213254815"
    x2="107.16121104043901"
    y2="33.430288331029416"
    stroke="hsla(0,50%,50%,0.6)"
    stroke-width="1"
    transform="translate(-72.5939641524,-76.0989328074)"
    />
  
  <line
    x1="105"
    y1="28.75"
    x2="107.743094272364"
    y2="30.807320704273"
    stroke="hsla(0,50%,50%,0.6)"
    stroke-width="1"
    transform="translate(-72.5939641524,-76.0989328074)"
    />
  
  <line
    x1="92.74868914011782"
    y1="33.95452666834862"
    x2="99.69895539149718"
    y2="67.06805947800375"
    stroke="hsla(0,50%,50%,0.6)"
    stroke-width="1"
    transform="translate(-72.5939641524,-76.0989328074)"
    />
  
  <line
    x1="82.17015584254796"
    y1="90.43110312381512"
    x2="91.79091396779533"
    y2="102.71530880120231"
    stroke="hsla(0,50%,50%,0.6)"
    stroke-width="1"
    transform="translate(-72.5939641524,-76.0989328074)"
    />
  
  <line
    x1="100"
    y1="39.20454545454545"
    x2="100"
    y2="65.71103418669199"
    stroke="hsla(0,50%,50%,0.6)"
    stroke-width="1"
    transform="translate(-72.5939641524,-76.0989328074)"
    />
  
  <line
    x1="105"
    y1="28.75"
    x2="108.02884615384616"
    y2="29.51923076923077"
    stroke="hsla(0,50%,50%,0.6)"
    stroke-width="1"
    transform="translate(-72.5939641524,-76.0989328074)"
    />
  
  <line
    x1="70.92391304347827"
    y1="100"
    x2="79.28177257525084"
    y2="110.36538461538461"
    stroke="hsla(0,50%,50%,0.6)"
    stroke-width="1"
    transform="translate(-72.5939641524,-76.0989328074)"
    />
  
  <line
    x1="37.159082150984624"
    y1="117.8353797748272"
    x2="39.909082641067634"
    y2="123.44786561485773"
    stroke="hsla(0,50%,50%,0.6)"
    stroke-width="1"
    transform="translate(-72.5939641524,-76.0989328074)"
    />
  
  <line
    x1="104.95885167080904"
    y1="28.935485213254815"
    x2="108.02884615384616"
    y2="29.51923076923077"
    stroke="hsla(0,50%,50%,0.6)"
    stroke-width="1"
    transform="translate(-72.5939641524,-76.0989328074)"
    />
  
  <line
    x1="43.14994066599033"
    y1="104.98007367152314"
    x2="39.909082641067634"
    y2="123.44786561485773"
    stroke="hsla(0,50%,50%,0.6)"
    stroke-width="1"
    transform="translate(-72.5939641524,-76.0989328074)"
    />
  
  <line
    x1="108.02884615384616"
    y1="29.51923076923077"
    x2="88.72815635451505"
    y2="116.52136752136752"
    stroke="hsla(0,50%,50%,0.6)"
    stroke-width="1"
    transform="translate(-72.5939641524,-76.0989328074)"
    />
  
  <line
    x1="69.1304347826087"
    y1="103.75"
    x2="88.72815635451505"
    y2="116.52136752136752"
    stroke="hsla(0,50%,50%,0.6)"
    stroke-width="1"
    transform="translate(-72.5939641524,-76.0989328074)"
    />
  
  <line
    x1="105"
    y1="28.75"
    x2="69.1304347826087"
    y2="103.75"
    stroke="hsla(0,50%,50%,0.6)"
    stroke-width="1"
    transform="translate(-72.5939641524,-76.0989328074)"
    />
  
  <line
    x1="85.50015530828873"
    y1="96.7833318240161"
    x2="92.39328230997415"
    y2="100"
    stroke="hsla(0,50%,50%,0.6)"
    stroke-width="1"
    transform="translate(-72.5939641524,-76.0989328074)"
    />
  
  <line
    x1="100"
    y1="65.71103418669199"
    x2="85.50015530828873"
    y2="96.7833318240161"
    stroke="hsla(0,50%,50%,0.6)"
    stroke-width="1"
    transform="translate(-72.5939641524,-76.0989328074)"
    />
  
  <line
    x1="107.743094272364"
    y1="30.807320704273"
    x2="92.74868914011782"
    y2="33.95452666834862"
    stroke="hsla(0,50%,50%,0.6)"
    stroke-width="1"
    transform="translate(-72.5939641524,-76.0989328074)"
    />
  
  <line
    x1="77.24961697089752"
    y1="94.28477633421804"
    x2="71.18386929460581"
    y2="105.08817427385893"
    stroke="hsla(0,50%,50%,0.6)"
    stroke-width="1"
    transform="translate(-72.5939641524,-76.0989328074)"
    />
  
  <line
    x1="104.95885167080904"
    y1="28.935485213254815"
    x2="37.159082150984624"
    y2="117.8353797748272"
    stroke="hsla(0,50%,50%,0.6)"
    stroke-width="1"
    transform="translate(-72.5939641524,-76.0989328074)"
    />
  
  <line
    x1="99.69895539149718"
    y1="67.06805947800375"
    x2="71.18386929460581"
    y2="105.08817427385893"
    stroke="hsla(0,50%,50%,0.6)"
    stroke-width="1"
    transform="translate(-72.5939641524,-76.0989328074)"
    />
  
  <line
    x1="107.16121104043901"
    y1="33.430288331029416"
    x2="100"
    y2="39.20454545454545"
    stroke="hsla(0,50%,50%,0.6)"
    stroke-width="1"
    transform="translate(-72.5939641524,-76.0989328074)"
    />
  
  <line
    x1="77.24961697089752"
    y1="94.28477633421804"
    x2="69.1304347826087"
    y2="103.75"
    stroke="hsla(0,50%,50%,0.6)"
    stroke-width="1"
    transform="translate(-72.5939641524,-76.0989328074)"
    />
  
  <line
    x1="79.28177257525084"
    y1="110.36538461538461"
    x2="89.48466930159267"
    y2="113.11121775155513"
    stroke="hsla(0,50%,50%,0.6)"
    stroke-width="1"
    transform="translate(-72.5939641524,-76.0989328074)"
    />
  
  <line
    x1="43.14994066599033"
    y1="104.98007367152314"
    x2="89.48466930159267"
    y2="113.11121775155513"
    stroke="hsla(0,50%,50%,0.6)"
    stroke-width="1"
    transform="translate(-72.5939641524,-76.0989328074)"
    />
  
  <line
    x1="82.17015584254796"
    y1="90.43110312381512"
    x2="77.24961697089752"
    y2="94.28477633421804"
    stroke="hsla(0,50%,50%,0.6)"
    stroke-width="1"
    transform="translate(-72.5939641524,-76.0989328074)"
    />
  
  <line
    x1="70.92391304347827"
    y1="100"
    x2="92.39328230997415"
    y2="100"
    stroke="hsla(0,50%,50%,0.6)"
    stroke-width="1"
    transform="translate(-72.5939641524,-76.0989328074)"
    />
  
  <line
    x1="37.159082150984624"
    y1="117.8353797748272"
    x2="55.23793855109208"
    y2="121.27299249335228"
    stroke="hsla(0,50%,50%,0.6)"
    stroke-width="1"
    transform="translate(-72.5939641524,-76.0989328074)"
    />
  
  <line
    x1="91.79091396779533"
    y1="102.71530880120231"
    x2="55.23793855109208"
    y2="121.27299249335228"
    stroke="hsla(0,50%,50%,0.6)"
    stroke-width="1"
    transform="translate(-72.5939641524,-76.0989328074)"
    />
  
  <line
    x1="88.72815635451505"
    y1="116.52136752136752"
    x2="39.909082641067634"
    y2="123.44786561485773"
    stroke="hsla(0,50%,50%,0.6)"
    stroke-width="1"
    transform="translate(-72.5939641524,-76.0989328074)"
    />
  
</svg>
