<?xml version="1.0"?>
<!DOCTYPE svg PUBLIC "-//W3C//DTD SVG 1.1//EN"
  "http://www.w3.org/Graphics/SVG/1.1/DTD/svg11.dtd">
<svg
  width="240"
  height="240"
  viewBox="-500 -500 1000 1000" xmlns="http://www.w3.org/2000/svg" version="1.1">
  <rect
    x="0"
    y="0"
    width="100"
    height="100"
    fill="hsla(206,100%,53%,0.3)"
    stroke="hsl(206,100%,53%)"
    stroke-width="3"
    transform="" />
  
  <path
    d="M 
      80.8891369047
      107.890625
      L
    
      91.25
      113.4695512820
      L
    
      91.25
      115.3125
      L
    
      110
      129.375
      L
    
      99.7321428571
      143.0654761904
      L
    
      84.7395833333
      134.84375
      L
    
      82.3989994934
      118.4596631205
      L
    
      78.7738914373
      112.9615825688
      L
    
      80.5323012232
      108.0590596330
      z
    "
    fill="hsla(0,0%,50%,0.3)"
    stroke="hsla(0,0%,50%,1)"
    stroke-width="1"
    transform="translate(-94.3869457186,-125.4780505952)"
    />
  
  
  <line
    x1="86.10701837769328"
    y1="110.70025348542458"
    x2="91.25"
    y2="128.33333333333334"
    stroke="hsla(0,50%,50%,0.6)"
    stroke-width="1"
    transform="translate(-94.3869457186,-125.4780505952)"
    />
  
  <line
    x1="105.83333333333333"
    y1="126.25"
    x2="106.875"
    y2="133.54166666666666"
    stroke="hsla(0,50%,50%,0.6)"
    stroke-width="1"
    transform="translate(-94.3869457186,-125.4780505952)"
    />
  
  <line
    x1="80.8891369047619"
    y1="107.890625"
    x2="84.73958333333333"
    y2="134.84375"
    stroke="hsla(0,50%,50%,0.6)"
    stroke-width="1"
    transform="translate(-94.3869457186,-125.4780505952)"
    />
  
  <line
    x1="99.58333333333333"
    y1="134.58333333333334"
    x2="102.70833333333333"
    y2="139.09722222222223"
    stroke="hsla(0,50%,50%,0.6)"
    stroke-width="1"
    transform="translate(-94.3869457186,-125.4780505952)"
    />
  
  <line
    x1="78.77389143730886"
    y1="112.96158256880734"
    x2="82.78765290519878"
    y2="119.04912079510703"
    stroke="hsla(0,50%,50%,0.6)"
    stroke-width="1"
    transform="translate(-94.3869457186,-125.4780505952)"
    />
  
  <line
    x1="91.25"
    y1="113.46955128205128"
    x2="91.25"
    y2="128.33333333333334"
    stroke="hsla(0,50%,50%,0.6)"
    stroke-width="1"
    transform="translate(-94.3869457186,-125.4780505952)"
    />
  
  <line
    x1="82.56944444444444"
    y1="119.65277777777777"
    x2="91.25"
    y2="128.33333333333334"
    stroke="hsla(0,50%,50%,0.6)"
    stroke-width="1"
    transform="translate(-94.3869457186,-125.4780505952)"
    />
  
  <line
    x1="93.33333333333333"
    y1="136.66666666666666"
    x2="99.73214285714286"
    y2="143.0654761904762"
    stroke="hsla(0,50%,50%,0.6)"
    stroke-width="1"
    transform="translate(-94.3869457186,-125.4780505952)"
    />
  
  <line
    x1="82.53787878787878"
    y1="108.7784090909091"
    x2="110"
    y2="129.375"
    stroke="hsla(0,50%,50%,0.6)"
    stroke-width="1"
    transform="translate(-94.3869457186,-125.4780505952)"
    />
  
  <line
    x1="80.53230122324159"
    y1="108.05905963302752"
    x2="78.77389143730886"
    y2="112.96158256880734"
    stroke="hsla(0,50%,50%,0.6)"
    stroke-width="1"
    transform="translate(-94.3869457186,-125.4780505952)"
    />
  
  <line
    x1="82.91666666666667"
    y1="122.08333333333333"
    x2="91.25"
    y2="128.33333333333334"
    stroke="hsla(0,50%,50%,0.6)"
    stroke-width="1"
    transform="translate(-94.3869457186,-125.4780505952)"
    />
  
  <line
    x1="80.8891369047619"
    y1="107.890625"
    x2="91.25"
    y2="113.46955128205128"
    stroke="hsla(0,50%,50%,0.6)"
    stroke-width="1"
    transform="translate(-94.3869457186,-125.4780505952)"
    />
  
  <line
    x1="82.13541666666667"
    y1="116.61458333333333"
    x2="88.91666666666667"
    y2="120.33333333333333"
    stroke="hsla(0,50%,50%,0.6)"
    stroke-width="1"
    transform="translate(-94.3869457186,-125.4780505952)"
    />
  
  <line
    x1="86.78571428571429"
    y1="111.96428571428571"
    x2="82.56944444444444"
    y2="119.65277777777777"
    stroke="hsla(0,50%,50%,0.6)"
    stroke-width="1"
    transform="translate(-94.3869457186,-125.4780505952)"
    />
  
  <line
    x1="84.73958333333333"
    y1="134.84375"
    x2="99.73214285714286"
    y2="143.0654761904762"
    stroke="hsla(0,50%,50%,0.6)"
    stroke-width="1"
    transform="translate(-94.3869457186,-125.4780505952)"
    />
  
  <line
    x1="80.53230122324159"
    y1="108.05905963302752"
    x2="82.53787878787878"
    y2="108.7784090909091"
    stroke="hsla(0,50%,50%,0.6)"
    stroke-width="1"
    transform="translate(-94.3869457186,-125.4780505952)"
    />
  
  <line
    x1="104.64285714285714"
    y1="125.35714285714286"
    x2="99.58333333333333"
    y2="134.58333333333334"
    stroke="hsla(0,50%,50%,0.6)"
    stroke-width="1"
    transform="translate(-94.3869457186,-125.4780505952)"
    />
  
  <line
    x1="89.16666666666667"
    y1="113.75"
    x2="82.91666666666667"
    y2="122.08333333333333"
    stroke="hsla(0,50%,50%,0.6)"
    stroke-width="1"
    transform="translate(-94.3869457186,-125.4780505952)"
    />
  
  <line
    x1="84.47916666666667"
    y1="133.02083333333334"
    x2="102.70833333333333"
    y2="139.09722222222223"
    stroke="hsla(0,50%,50%,0.6)"
    stroke-width="1"
    transform="translate(-94.3869457186,-125.4780505952)"
    />
  
  <line
    x1="86.78571428571429"
    y1="111.96428571428571"
    x2="82.13541666666667"
    y2="116.61458333333333"
    stroke="hsla(0,50%,50%,0.6)"
    stroke-width="1"
    transform="translate(-94.3869457186,-125.4780505952)"
    />
  
  <line
    x1="110"
    y1="129.375"
    x2="99.73214285714286"
    y2="143.0654761904762"
    stroke="hsla(0,50%,50%,0.6)"
    stroke-width="1"
    transform="translate(-94.3869457186,-125.4780505952)"
    />
  
  <line
    x1="91.25"
    y1="128.33333333333334"
    x2="84.73958333333333"
    y2="134.84375"
    stroke="hsla(0,50%,50%,0.6)"
    stroke-width="1"
    transform="translate(-94.3869457186,-125.4780505952)"
    />
  
  <line
    x1="104.64285714285714"
    y1="125.35714285714286"
    x2="93.33333333333333"
    y2="136.66666666666666"
    stroke="hsla(0,50%,50%,0.6)"
    stroke-width="1"
    transform="translate(-94.3869457186,-125.4780505952)"
    />
  
  <line
    x1="80.8891369047619"
    y1="107.890625"
    x2="80.53230122324159"
    y2="108.05905963302752"
    stroke="hsla(0,50%,50%,0.6)"
    stroke-width="1"
    transform="translate(-94.3869457186,-125.4780505952)"
    />
  
  <line
    x1="91.25"
    y1="113.46955128205128"
    x2="82.78765290519878"
    y2="119.04912079510703"
    stroke="hsla(0,50%,50%,0.6)"
    stroke-width="1"
    transform="translate(-94.3869457186,-125.4780505952)"
    />
  
  <line
    x1="86.10701837769328"
    y1="110.70025348542458"
    x2="78.77389143730886"
    y2="112.96158256880734"
    stroke="hsla(0,50%,50%,0.6)"
    stroke-width="1"
    transform="translate(-94.3869457186,-125.4780505952)"
    />
  
  <line
    x1="91.25"
    y1="128.33333333333334"
    x2="84.47916666666667"
    y2="133.02083333333334"
    stroke="hsla(0,50%,50%,0.6)"
    stroke-width="1"
    transform="translate(-94.3869457186,-125.4780505952)"
    />
  
  <line
    x1="105.83333333333333"
    y1="126.25"
    x2="83.95833333333333"
    y2="129.375"
    stroke="hsla(0,50%,50%,0.6)"
    stroke-width="1"
    transform="translate(-94.3869457186,-125.4780505952)"
    />
  
  <line
    x1="106.875"
    y1="133.54166666666666"
    x2="99.58333333333333"
    y2="134.58333333333334"
    stroke="hsla(0,50%,50%,0.6)"
    stroke-width="1"
    transform="translate(-94.3869457186,-125.4780505952)"
    />
  
</svg>
