<?xml version="1.0"?>
<!DOCTYPE svg PUBLIC "-//W3C//DTD SVG 1.1//EN"
  "http://www.w3.org/Graphics/SVG/1.1/DTD/svg11.dtd">
<svg
  width="240"
  height="240"
  viewBox="-50 -50 200 200" xmlns="http://www.w3.org/2000/svg" version="1.1">
  <rect
    x="0"
    y="0"
    width="100"
    height="100"
    fill="hsla(206,100%,53%,0.3)"
    stroke="hsl(206,100%,53%)"
    stroke-width="3"
    transform="" />
  
  <path
    d="M 
      0
      0
      L
    
      50.4950495049
      0
      L
    
      53.1266284523
      2.6315789473
      L
    
      53.1266284523
      20.3883495145
      L
    
      79.6116504854
      20.3883495145
      L
    
      79.6116504854
      23.0199284619
      L
    
      53.1266284523
      23.0199284619
      L
    
      50.4950495049
      20.3883495145
      L
    
      50.4950495049
      2.6315789473
      L
    
      0
      2.6315789473
      z
    "
    fill="hsla(0,0%,50%,0.3)"
    stroke="hsla(0,0%,50%,1)"
    stroke-width="1"
    transform="translate(-26.7090547798,-7.1684777401) scale(1,-1) translate(50,-110)"
    />
  
  
  <line
    x1="50.495049504950494"
    y1="0"
    x2="53.12662845231892"
    y2="2.6315789473684212"
    stroke="hsla(0,50%,50%,0.6)"
    stroke-width="1"
    transform="translate(-26.7090547798,-7.1684777401) scale(1,-1) translate(50,-110)"
    />
  
  <line
    x1="50.495049504950494"
    y1="20.388349514563107"
    x2="53.12662845231892"
    y2="23.019928461931528"
    stroke="hsla(0,50%,50%,0.6)"
    stroke-width="1"
    transform="translate(-26.7090547798,-7.1684777401) scale(1,-1) translate(50,-110)"
    />
  
  <line
    x1="0"
    y1="0"
    x2="50.495049504950494"
    y2="0"
    stroke="hsla(0,50%,50%,0.6)"
    stroke-width="1"
    transform="translate(-26.7090547798,-7.1684777401) scale(1,-1) translate(50,-110)"
    />
  
  <line
    x1="0"
    y1="0"
    x2="0"
    y2="2.6315789473684212"
    stroke="hsla(0,50%,50%,0.6)"
    stroke-width="1"
    transform="translate(-26.7090547798,-7.1684777401) scale(1,-1) translate(50,-110)"
    />
  
  <line
    x1="50.495049504950494"
    y1="0"
    x2="50.495049504950494"
    y2="20.388349514563107"
    stroke="hsla(0,50%,50%,0.6)"
    stroke-width="1"
    transform="translate(-26.7090547798,-7.1684777401) scale(1,-1) translate(50,-110)"
    />
  
  <line
    x1="53.12662845231892"
    y1="2.6315789473684212"
    x2="53.12662845231892"
    y2="23.019928461931528"
    stroke="hsla(0,50%,50%,0.6)"
    stroke-width="1"
    transform="translate(-26.7090547798,-7.1684777401) scale(1,-1) translate(50,-110)"
    />
  
  <line
    x1="79.6116504854369"
    y1="20.388349514563107"
    x2="79.6116504854369"
    y2="23.019928461931528"
    stroke="hsla(0,50%,50%,0.6)"
    stroke-width="1"
    transform="translate(-26.7090547798,-7.1684777401) scale(1,-1) translate(50,-110)"
    />
  
  <line
    x1="0"
    y1="2.6315789473684212"
    x2="53.12662845231892"
    y2="2.6315789473684212"
    stroke="hsla(0,50%,50%,0.6)"
    stroke-width="1"
    transform="translate(-26.7090547798,-7.1684777401) scale(1,-1) translate(50,-110)"
    />
  
  <line
    x1="50.495049504950494"
    y1="20.388349514563107"
    x2="79.6116504854369"
    y2="20.388349514563107"
    stroke="hsla(0,50%,50%,0.6)"
    stroke-width="1"
    transform="translate(-26.7090547798,-7.1684777401) scale(1,-1) translate(50,-110)"
    />
  
  <line
    x1="53.12662845231892"
    y1="23.019928461931528"
    x2="79.6116504854369"
    y2="23.019928461931528"
    stroke="hsla(0,50%,50%,0.6)"
    stroke-width="1"
    transform="translate(-26.7090547798,-7.1684777401) scale(1,-1) translate(50,-110)"
    />
  
</svg>
