<?xml version="1.0"?>
<!DOCTYPE svg PUBLIC "-//W3C//DTD SVG 1.1//EN"
  "http://www.w3.org/Graphics/SVG/1.1/DTD/svg11.dtd">
<svg
  width="240"
  height="240"
  viewBox="-500 -500 1000 1000" xmlns="http://www.w3.org/2000/svg" version="1.1">
  <rect
    x="0"
    y="0"
    width="100"
    height="100"
    fill="hsla(206,100%,53%,0.3)"
    stroke="hsl(206,100%,53%)"
    stroke-width="3"
    transform="" />
  
  <path
    d="M 
      0
      0
      L
    
      28.4671532846
      0
      L
    
      31.0987322320
      2.6315789473
      L
    
      31.0987322320
      33.8842975206
      L
    
      66.1157024793
      33.8842975206
      L
    
      66.1157024793
      36.5158764680
      L
    
      31.0987322320
      36.5158764680
      L
    
      28.4671532846
      33.8842975206
      L
    
      28.4671532846
      2.6315789473
      L
    
      0
      2.6315789473
      z
    "
    fill="hsla(0,0%,50%,0.3)"
    stroke="hsla(0,0%,50%,1)"
    stroke-width="1"
    transform="translate(-33.0578512396,-18.2579382340)"
    />
  
  
  <line
    x1="28.467153284671532"
    y1="0"
    x2="31.098732232039954"
    y2="2.6315789473684212"
    stroke="hsla(0,50%,50%,0.6)"
    stroke-width="1"
    transform="translate(-33.0578512396,-18.2579382340)"
    />
  
  <line
    x1="0"
    y1="0"
    x2="28.467153284671532"
    y2="0"
    stroke="hsla(0,50%,50%,0.6)"
    stroke-width="1"
    transform="translate(-33.0578512396,-18.2579382340)"
    />
  
  <line
    x1="0"
    y1="0"
    x2="0"
    y2="2.6315789473684212"
    stroke="hsla(0,50%,50%,0.6)"
    stroke-width="1"
    transform="translate(-33.0578512396,-18.2579382340)"
    />
  
  <line
    x1="28.467153284671532"
    y1="0"
    x2="28.467153284671532"
    y2="33.88429752066116"
    stroke="hsla(0,50%,50%,0.6)"
    stroke-width="1"
    transform="translate(-33.0578512396,-18.2579382340)"
    />
  
  <line
    x1="31.098732232039954"
    y1="2.6315789473684212"
    x2="31.098732232039954"
    y2="36.515876468029575"
    stroke="hsla(0,50%,50%,0.6)"
    stroke-width="1"
    transform="translate(-33.0578512396,-18.2579382340)"
    />
  
  <line
    x1="66.11570247933884"
    y1="33.88429752066116"
    x2="66.11570247933884"
    y2="36.515876468029575"
    stroke="hsla(0,50%,50%,0.6)"
    stroke-width="1"
    transform="translate(-33.0578512396,-18.2579382340)"
    />
  
  <line
    x1="0"
    y1="2.6315789473684212"
    x2="31.098732232039954"
    y2="2.6315789473684212"
    stroke="hsla(0,50%,50%,0.6)"
    stroke-width="1"
    transform="translate(-33.0578512396,-18.2579382340)"
    />
  
  <line
    x1="28.467153284671532"
    y1="33.88429752066116"
    x2="31.098732232039954"
    y2="36.515876468029575"
    stroke="hsla(0,50%,50%,0.6)"
    stroke-width="1"
    transform="translate(-33.0578512396,-18.2579382340)"
    />
  
  <line
    x1="28.467153284671532"
    y1="33.88429752066116"
    x2="66.11570247933884"
    y2="33.88429752066116"
    stroke="hsla(0,50%,50%,0.6)"
    stroke-width="1"
    transform="translate(-33.0578512396,-18.2579382340)"
    />
  
  <line
    x1="31.098732232039954"
    y1="36.515876468029575"
    x2="66.11570247933884"
    y2="36.515876468029575"
    stroke="hsla(0,50%,50%,0.6)"
    stroke-width="1"
    transform="translate(-33.0578512396,-18.2579382340)"
    />
  
</svg>
