<?xml version="1.0"?>
<!DOCTYPE svg PUBLIC "-//W3C//DTD SVG 1.1//EN"
  "http://www.w3.org/Graphics/SVG/1.1/DTD/svg11.dtd">
<svg
  width="240"
  height="240"
  viewBox="-50 -50 200 200" xmlns="http://www.w3.org/2000/svg" version="1.1">
  <rect
    x="0"
    y="0"
    width="100"
    height="100"
    fill="hsla(206,100%,53%,0.3)"
    stroke="hsl(206,100%,53%)"
    stroke-width="3"
    transform="" />
  
  <path
    d="M 
      0
      0
      L
    
      15.1079136690
      0
      L
    
      17.6720162331
      2.5641025641
      L
    
      17.6720162331
      50.4065040650
      L
    
      49.5934959349
      50.4065040650
      L
    
      49.5934959349
      52.9706066291
      L
    
      17.6720162331
      52.9706066291
      L
    
      15.1079136690
      50.4065040650
      L
    
      15.1079136690
      2.5641025641
      L
    
      0
      2.5641025641
      z
    "
    fill="hsla(0,0%,50%,0.3)"
    stroke="hsla(0,0%,50%,1)"
    stroke-width="1"
    transform="translate(-9.3312653465,-14.3813027673) scale(1,-1) translate(50,-110)"
    />
  
  
  <line
    x1="15.107913669064748"
    y1="0"
    x2="17.672016233167312"
    y2="2.5641025641025643"
    stroke="hsla(0,50%,50%,0.6)"
    stroke-width="1"
    transform="translate(-9.3312653465,-14.3813027673) scale(1,-1) translate(50,-110)"
    />
  
  <line
    x1="0"
    y1="0"
    x2="15.107913669064748"
    y2="0"
    stroke="hsla(0,50%,50%,0.6)"
    stroke-width="1"
    transform="translate(-9.3312653465,-14.3813027673) scale(1,-1) translate(50,-110)"
    />
  
  <line
    x1="0"
    y1="0"
    x2="0"
    y2="2.5641025641025643"
    stroke="hsla(0,50%,50%,0.6)"
    stroke-width="1"
    transform="translate(-9.3312653465,-14.3813027673) scale(1,-1) translate(50,-110)"
    />
  
  <line
    x1="15.107913669064748"
    y1="0"
    x2="15.107913669064748"
    y2="50.40650406504065"
    stroke="hsla(0,50%,50%,0.6)"
    stroke-width="1"
    transform="translate(-9.3312653465,-14.3813027673) scale(1,-1) translate(50,-110)"
    />
  
  <line
    x1="17.672016233167312"
    y1="2.5641025641025643"
    x2="17.672016233167312"
    y2="52.97060662914321"
    stroke="hsla(0,50%,50%,0.6)"
    stroke-width="1"
    transform="translate(-9.3312653465,-14.3813027673) scale(1,-1) translate(50,-110)"
    />
  
  <line
    x1="49.59349593495935"
    y1="50.40650406504065"
    x2="49.59349593495935"
    y2="52.97060662914321"
    stroke="hsla(0,50%,50%,0.6)"
    stroke-width="1"
    transform="translate(-9.3312653465,-14.3813027673) scale(1,-1) translate(50,-110)"
    />
  
  <line
    x1="0"
    y1="2.5641025641025643"
    x2="17.672016233167312"
    y2="2.5641025641025643"
    stroke="hsla(0,50%,50%,0.6)"
    stroke-width="1"
    transform="translate(-9.3312653465,-14.3813027673) scale(1,-1) translate(50,-110)"
    />
  
  <line
    x1="15.107913669064748"
    y1="50.40650406504065"
    x2="17.672016233167312"
    y2="52.97060662914321"
    stroke="hsla(0,50%,50%,0.6)"
    stroke-width="1"
    transform="translate(-9.3312653465,-14.3813027673) scale(1,-1) translate(50,-110)"
    />
  
  <line
    x1="15.107913669064748"
    y1="50.40650406504065"
    x2="49.59349593495935"
    y2="50.40650406504065"
    stroke="hsla(0,50%,50%,0.6)"
    stroke-width="1"
    transform="translate(-9.3312653465,-14.3813027673) scale(1,-1) translate(50,-110)"
    />
  
  <line
    x1="17.672016233167312"
    y1="52.97060662914321"
    x2="49.59349593495935"
    y2="52.97060662914321"
    stroke="hsla(0,50%,50%,0.6)"
    stroke-width="1"
    transform="translate(-9.3312653465,-14.3813027673) scale(1,-1) translate(50,-110)"
    />
  
</svg>
