<?xml version="1.0"?>
<!DOCTYPE svg PUBLIC "-//W3C//DTD SVG 1.1//EN"
  "http://www.w3.org/Graphics/SVG/1.1/DTD/svg11.dtd">
<svg
  width="240"
  height="240"
  viewBox="-500 -500 1000 1000" xmlns="http://www.w3.org/2000/svg" version="1.1">
  <rect
    x="0"
    y="0"
    width="100"
    height="100"
    fill="hsla(206,100%,53%,0.3)"
    stroke="hsl(206,100%,53%)"
    stroke-width="3"
    transform="" />
  
  <path
    d="M 
      -40.3487948883
      -140.1022289897
      L
    
      -21.7158805137
      -123.4344606356
      L
    
      -30.7230353341
      -106.3345682882
      L
    
      -86.3006271386
      -44.0768554248
      L
    
      -88.6159888151
      -43.1883660339
      L
    
      -92.8705708341
      -47.8828333781
      L
    
      -90.9889860638
      -50.6440832758
      L
    
      -90.8713425136
      -51.1251722509
      L
    
      -116.9574226381
      -74.4600479468
      L
    
      -124.8352000137
      -83.1523162988
      L
    
      -91.9084546383
      -119.9611568213
      z
    "
    fill="hsla(0,0%,50%,0.3)"
    stroke="hsla(0,0%,50%,1)"
    stroke-width="1"
    transform="translate(73.2755402637,91.6452975118)"
    />
  
  
  <line
    x1="-40.34879488837389"
    y1="-140.10222898976417"
    x2="-91.9084546383822"
    y2="-119.96115682138448"
    stroke="hsla(0,50%,50%,0.6)"
    stroke-width="1"
    transform="translate(73.2755402637,91.6452975118)"
    />
  
  <line
    x1="-123.84544766545011"
    y1="-83.87632228085168"
    x2="-124.83520001376228"
    y2="-83.15231629884977"
    stroke="hsla(0,50%,50%,0.6)"
    stroke-width="1"
    transform="translate(73.2755402637,91.6452975118)"
    />
  
  <line
    x1="-59.41661756542128"
    y1="-132.65364623156984"
    x2="-21.71588051374564"
    y2="-123.43446063560913"
    stroke="hsla(0,50%,50%,0.6)"
    stroke-width="1"
    transform="translate(73.2755402637,91.6452975118)"
    />
  
  <line
    x1="-91.9084546383822"
    y1="-119.96115682138448"
    x2="-42.74991617525682"
    y2="-115.2178038092285"
    stroke="hsla(0,50%,50%,0.6)"
    stroke-width="1"
    transform="translate(73.2755402637,91.6452975118)"
    />
  
  <line
    x1="-91.9084546383822"
    y1="-119.96115682138448"
    x2="-124.83520001376228"
    y2="-83.15231629884977"
    stroke="hsla(0,50%,50%,0.6)"
    stroke-width="1"
    transform="translate(73.2755402637,91.6452975118)"
    />
  
  <line
    x1="-30.723035334119114"
    y1="-106.33456828823387"
    x2="-78.64013934563685"
    y2="-73.68847281880001"
    stroke="hsla(0,50%,50%,0.6)"
    stroke-width="1"
    transform="translate(73.2755402637,91.6452975118)"
    />
  
  <line
    x1="-87.99128558155523"
    y1="-50.5478965253455"
    x2="-92.87057083417348"
    y2="-47.88283337818049"
    stroke="hsla(0,50%,50%,0.6)"
    stroke-width="1"
    transform="translate(73.2755402637,91.6452975118)"
    />
  
  <line
    x1="-59.41661756542128"
    y1="-132.65364623156984"
    x2="-65.6055819247297"
    y2="-123.33284153347965"
    stroke="hsla(0,50%,50%,0.6)"
    stroke-width="1"
    transform="translate(73.2755402637,91.6452975118)"
    />
  
  <line
    x1="-86.30062713864916"
    y1="-44.07685542483852"
    x2="-88.61598881514183"
    y2="-43.18836603392477"
    stroke="hsla(0,50%,50%,0.6)"
    stroke-width="1"
    transform="translate(73.2755402637,91.6452975118)"
    />
  
  <line
    x1="-83.77439824114818"
    y1="-46.90672315068353"
    x2="-85.67950650678331"
    y2="-46.47779737570026"
    stroke="hsla(0,50%,50%,0.6)"
    stroke-width="1"
    transform="translate(73.2755402637,91.6452975118)"
    />
  
  <line
    x1="-30.723035334119114"
    y1="-106.33456828823387"
    x2="-86.30062713864916"
    y2="-44.07685542483852"
    stroke="hsla(0,50%,50%,0.6)"
    stroke-width="1"
    transform="translate(73.2755402637,91.6452975118)"
    />
  
  <line
    x1="-86.39343250258612"
    y1="-47.62249456165913"
    x2="-91.92054557090853"
    y2="-46.83458408960987"
    stroke="hsla(0,50%,50%,0.6)"
    stroke-width="1"
    transform="translate(73.2755402637,91.6452975118)"
    />
  
  <line
    x1="-81.92343200566437"
    y1="-63.9479006797215"
    x2="-92.87057083417348"
    y2="-47.88283337818049"
    stroke="hsla(0,50%,50%,0.6)"
    stroke-width="1"
    transform="translate(73.2755402637,91.6452975118)"
    />
  
  <line
    x1="-40.34879488837389"
    y1="-140.10222898976417"
    x2="-21.71588051374564"
    y2="-123.43446063560913"
    stroke="hsla(0,50%,50%,0.6)"
    stroke-width="1"
    transform="translate(73.2755402637,91.6452975118)"
    />
  
  <line
    x1="-72.15116192560798"
    y1="-127.67907156925523"
    x2="-65.6055819247297"
    y2="-123.33284153347965"
    stroke="hsla(0,50%,50%,0.6)"
    stroke-width="1"
    transform="translate(73.2755402637,91.6452975118)"
    />
  
  <line
    x1="-86.39343250258612"
    y1="-47.62249456165913"
    x2="-88.61598881514183"
    y2="-43.18836603392477"
    stroke="hsla(0,50%,50%,0.6)"
    stroke-width="1"
    transform="translate(73.2755402637,91.6452975118)"
    />
  
  <line
    x1="-21.71588051374564"
    y1="-123.43446063560913"
    x2="-30.723035334119114"
    y2="-106.33456828823387"
    stroke="hsla(0,50%,50%,0.6)"
    stroke-width="1"
    transform="translate(73.2755402637,91.6452975118)"
    />
  
  <line
    x1="-81.92343200566437"
    y1="-63.9479006797215"
    x2="-71.87002105014086"
    y2="-60.24194104896745"
    stroke="hsla(0,50%,50%,0.6)"
    stroke-width="1"
    transform="translate(73.2755402637,91.6452975118)"
    />
  
  <line
    x1="-72.15116192560798"
    y1="-127.67907156925523"
    x2="-91.92054557090853"
    y2="-46.83458408960987"
    stroke="hsla(0,50%,50%,0.6)"
    stroke-width="1"
    transform="translate(73.2755402637,91.6452975118)"
    />
  
  <line
    x1="-78.64013934563685"
    y1="-73.68847281880001"
    x2="-86.30062713864916"
    y2="-44.07685542483852"
    stroke="hsla(0,50%,50%,0.6)"
    stroke-width="1"
    transform="translate(73.2755402637,91.6452975118)"
    />
  
  <line
    x1="-81.92343200566437"
    y1="-63.9479006797215"
    x2="-83.77439824114818"
    y2="-46.90672315068353"
    stroke="hsla(0,50%,50%,0.6)"
    stroke-width="1"
    transform="translate(73.2755402637,91.6452975118)"
    />
  
  <line
    x1="-40.34879488837389"
    y1="-140.10222898976417"
    x2="-42.74991617525682"
    y2="-115.2178038092285"
    stroke="hsla(0,50%,50%,0.6)"
    stroke-width="1"
    transform="translate(73.2755402637,91.6452975118)"
    />
  
  <line
    x1="-85.67950650678331"
    y1="-46.47779737570026"
    x2="-84.83161590152503"
    y2="-45.72243373840844"
    stroke="hsla(0,50%,50%,0.6)"
    stroke-width="1"
    transform="translate(73.2755402637,91.6452975118)"
    />
  
  <line
    x1="-78.64013934563685"
    y1="-73.68847281880001"
    x2="-71.87002105014086"
    y2="-60.24194104896745"
    stroke="hsla(0,50%,50%,0.6)"
    stroke-width="1"
    transform="translate(73.2755402637,91.6452975118)"
    />
  
  <line
    x1="-116.95742263812909"
    y1="-74.46004794680051"
    x2="-84.83161590152503"
    y2="-45.72243373840844"
    stroke="hsla(0,50%,50%,0.6)"
    stroke-width="1"
    transform="translate(73.2755402637,91.6452975118)"
    />
  
  <line
    x1="-124.83520001376228"
    y1="-83.15231629884977"
    x2="-116.95742263812909"
    y2="-74.46004794680051"
    stroke="hsla(0,50%,50%,0.6)"
    stroke-width="1"
    transform="translate(73.2755402637,91.6452975118)"
    />
  
  <line
    x1="-92.87057083417348"
    y1="-47.88283337818049"
    x2="-88.61598881514183"
    y2="-43.18836603392477"
    stroke="hsla(0,50%,50%,0.6)"
    stroke-width="1"
    transform="translate(73.2755402637,91.6452975118)"
    />
  
  <line
    x1="-87.99128558155523"
    y1="-50.5478965253455"
    x2="-86.39343250258612"
    y2="-47.62249456165913"
    stroke="hsla(0,50%,50%,0.6)"
    stroke-width="1"
    transform="translate(73.2755402637,91.6452975118)"
    />
  
  <line
    x1="-123.84544766545011"
    y1="-83.87632228085168"
    x2="-116.95742263812909"
    y2="-74.46004794680051"
    stroke="hsla(0,50%,50%,0.6)"
    stroke-width="1"
    transform="translate(73.2755402637,91.6452975118)"
    />
  
</svg>
