<?xml version="1.0"?>
<!DOCTYPE svg PUBLIC "-//W3C//DTD SVG 1.1//EN"
  "http://www.w3.org/Graphics/SVG/1.1/DTD/svg11.dtd">
<svg
  width="240"
  height="240"
  viewBox="-500 -500 1000 1000" xmlns="http://www.w3.org/2000/svg" version="1.1">
  <rect
    x="0"
    y="0"
    width="100"
    height="100"
    fill="hsla(206,100%,53%,0.3)"
    stroke="hsl(206,100%,53%)"
    stroke-width="3"
    transform="" />
  
  <path
    d="M 
      412.8248543958
      -221.7371095552
      L
    
      445.3480387702
      -171.6798038579
      L
    
      380.5363385823
      -129.5704085264
      L
    
      330.9061891307
      -180.5286267552
      L
    
      325.7588891725
      -192.7963347727
      L
    
      322.5333810396
      -193.2308288310
      L
    
      322.1674559659
      -201.3559008173
      z
    "
    fill="hsla(0,0%,50%,0.3)"
    stroke="hsla(0,0%,50%,1)"
    stroke-width="1"
    transform="translate(-383.7577473681,175.6537590408)"
    />
  
  
  <line
    x1="376.27042476528925"
    y1="-160.0698358251103"
    x2="393.40767498367273"
    y2="-148.28053455450842"
    stroke="hsla(0,50%,50%,0.6)"
    stroke-width="1"
    transform="translate(-383.7577473681,175.6537590408)"
    />
  
  <line
    x1="330.9061891307736"
    y1="-180.52862675520552"
    x2="376.27042476528925"
    y2="-160.0698358251103"
    stroke="hsla(0,50%,50%,0.6)"
    stroke-width="1"
    transform="translate(-383.7577473681,175.6537590408)"
    />
  
  <line
    x1="412.8248543958438"
    y1="-221.73710955524425"
    x2="445.348038770293"
    y2="-171.67980385799686"
    stroke="hsla(0,50%,50%,0.6)"
    stroke-width="1"
    transform="translate(-383.7577473681,175.6537590408)"
    />
  
  <line
    x1="330.9061891307736"
    y1="-180.52862675520552"
    x2="380.53633858230427"
    y2="-129.57040852649016"
    stroke="hsla(0,50%,50%,0.6)"
    stroke-width="1"
    transform="translate(-383.7577473681,175.6537590408)"
    />
  
  <line
    x1="342.65391965822255"
    y1="-168.46653501207012"
    x2="376.27042476528925"
    y2="-160.0698358251103"
    stroke="hsla(0,50%,50%,0.6)"
    stroke-width="1"
    transform="translate(-383.7577473681,175.6537590408)"
    />
  
  <line
    x1="322.5333810396681"
    y1="-193.23082883109038"
    x2="407.444141371204"
    y2="-181.7928725986459"
    stroke="hsla(0,50%,50%,0.6)"
    stroke-width="1"
    transform="translate(-383.7577473681,175.6537590408)"
    />
  
  <line
    x1="322.1674559659621"
    y1="-201.35590081732246"
    x2="330.9061891307736"
    y2="-180.52862675520552"
    stroke="hsla(0,50%,50%,0.6)"
    stroke-width="1"
    transform="translate(-383.7577473681,175.6537590408)"
    />
  
  <line
    x1="412.8248543958438"
    y1="-221.73710955524425"
    x2="322.1674559659621"
    y2="-201.35590081732246"
    stroke="hsla(0,50%,50%,0.6)"
    stroke-width="1"
    transform="translate(-383.7577473681,175.6537590408)"
    />
  
  <line
    x1="336.49816748495954"
    y1="-196.4110365811493"
    x2="322.5333810396681"
    y2="-193.23082883109038"
    stroke="hsla(0,50%,50%,0.6)"
    stroke-width="1"
    transform="translate(-383.7577473681,175.6537590408)"
    />
  
  <line
    x1="334.72895504693173"
    y1="-204.1799233379827"
    x2="336.49816748495954"
    y2="-196.4110365811493"
    stroke="hsla(0,50%,50%,0.6)"
    stroke-width="1"
    transform="translate(-383.7577473681,175.6537590408)"
    />
  
  <line
    x1="334.72895504693173"
    y1="-204.1799233379827"
    x2="342.65391965822255"
    y2="-168.46653501207012"
    stroke="hsla(0,50%,50%,0.6)"
    stroke-width="1"
    transform="translate(-383.7577473681,175.6537590408)"
    />
  
  <line
    x1="322.1674559659621"
    y1="-201.35590081732246"
    x2="322.5333810396681"
    y2="-193.23082883109038"
    stroke="hsla(0,50%,50%,0.6)"
    stroke-width="1"
    transform="translate(-383.7577473681,175.6537590408)"
    />
  
  <line
    x1="412.8248543958438"
    y1="-221.73710955524425"
    x2="407.444141371204"
    y2="-181.7928725986459"
    stroke="hsla(0,50%,50%,0.6)"
    stroke-width="1"
    transform="translate(-383.7577473681,175.6537590408)"
    />
  
  <line
    x1="445.348038770293"
    y1="-171.67980385799686"
    x2="380.53633858230427"
    y2="-129.57040852649016"
    stroke="hsla(0,50%,50%,0.6)"
    stroke-width="1"
    transform="translate(-383.7577473681,175.6537590408)"
    />
  
  <line
    x1="393.40767498367273"
    y1="-148.28053455450842"
    x2="380.53633858230427"
    y2="-129.57040852649016"
    stroke="hsla(0,50%,50%,0.6)"
    stroke-width="1"
    transform="translate(-383.7577473681,175.6537590408)"
    />
  
</svg>
