<?xml version="1.0"?>
<!DOCTYPE svg PUBLIC "-//W3C//DTD SVG 1.1//EN"
  "http://www.w3.org/Graphics/SVG/1.1/DTD/svg11.dtd">
<svg
  width="240"
  height="240"
  viewBox="-50 -50 200 200" xmlns="http://www.w3.org/2000/svg" version="1.1">
  <rect
    x="0"
    y="0"
    width="100"
    height="100"
    fill="hsla(206,100%,53%,0.3)"
    stroke="hsl(206,100%,53%)"
    stroke-width="3"
    transform="" />
  
  <path
    d="M 
      -15.234375
      15.234375
      L
    
      0
      15.234375
      L
    
      34.765625
      50
      L
    
      50
      50
      L
    
      32.421875
      67.578125
      L
    
      14.84375
      50
      L
    
      14.84375
      45.3125
      z
    "
    fill="hsla(0,0%,50%,0.3)"
    stroke="hsla(0,0%,50%,1)"
    stroke-width="1"
    transform="translate(-19.1589355468,-48.7670898437) scale(1,-1) translate(50,-110)"
    />
  
  
  <line
    x1="0"
    y1="15.234375"
    x2="0"
    y2="30.078125"
    stroke="hsla(0,50%,50%,0.6)"
    stroke-width="1"
    transform="translate(-19.1589355468,-48.7670898437) scale(1,-1) translate(50,-110)"
    />
  
  <line
    x1="14.84375"
    y1="30.078125"
    x2="14.84375"
    y2="50"
    stroke="hsla(0,50%,50%,0.6)"
    stroke-width="1"
    transform="translate(-19.1589355468,-48.7670898437) scale(1,-1) translate(50,-110)"
    />
  
  <line
    x1="0"
    y1="15.234375"
    x2="42.3828125"
    y2="57.6171875"
    stroke="hsla(0,50%,50%,0.6)"
    stroke-width="1"
    transform="translate(-19.1589355468,-48.7670898437) scale(1,-1) translate(50,-110)"
    />
  
  <line
    x1="0"
    y1="30.078125"
    x2="34.9609375"
    y2="65.0390625"
    stroke="hsla(0,50%,50%,0.6)"
    stroke-width="1"
    transform="translate(-19.1589355468,-48.7670898437) scale(1,-1) translate(50,-110)"
    />
  
  <line
    x1="-15.234375"
    y1="15.234375"
    x2="34.765625"
    y2="65.234375"
    stroke="hsla(0,50%,50%,0.6)"
    stroke-width="1"
    transform="translate(-19.1589355468,-48.7670898437) scale(1,-1) translate(50,-110)"
    />
  
  <line
    x1="-15.234375"
    y1="15.234375"
    x2="0"
    y2="15.234375"
    stroke="hsla(0,50%,50%,0.6)"
    stroke-width="1"
    transform="translate(-19.1589355468,-48.7670898437) scale(1,-1) translate(50,-110)"
    />
  
  <line
    x1="14.84375"
    y1="50"
    x2="32.421875"
    y2="67.578125"
    stroke="hsla(0,50%,50%,0.6)"
    stroke-width="1"
    transform="translate(-19.1589355468,-48.7670898437) scale(1,-1) translate(50,-110)"
    />
  
  <line
    x1="0"
    y1="30.078125"
    x2="14.84375"
    y2="30.078125"
    stroke="hsla(0,50%,50%,0.6)"
    stroke-width="1"
    transform="translate(-19.1589355468,-48.7670898437) scale(1,-1) translate(50,-110)"
    />
  
  <line
    x1="14.84375"
    y1="50"
    x2="50"
    y2="50"
    stroke="hsla(0,50%,50%,0.6)"
    stroke-width="1"
    transform="translate(-19.1589355468,-48.7670898437) scale(1,-1) translate(50,-110)"
    />
  
  <line
    x1="50"
    y1="50"
    x2="32.421875"
    y2="67.578125"
    stroke="hsla(0,50%,50%,0.6)"
    stroke-width="1"
    transform="translate(-19.1589355468,-48.7670898437) scale(1,-1) translate(50,-110)"
    />
  
</svg>
