<?xml version="1.0"?>
<!DOCTYPE svg PUBLIC "-//W3C//DTD SVG 1.1//EN"
  "http://www.w3.org/Graphics/SVG/1.1/DTD/svg11.dtd">
<svg
  width="240"
  height="240"
  viewBox="-50 -50 200 200" xmlns="http://www.w3.org/2000/svg" version="1.1">
  <rect
    x="0"
    y="0"
    width="100"
    height="100"
    fill="hsla(206,100%,53%,0.3)"
    stroke="hsl(206,100%,53%)"
    stroke-width="3"
    transform="" />
  
  <path
    d="M 
      -7.2805477743
      -8.5298163689
      L
    
      8.4207993511
      81.7529296022
      L
    
      0
      91.4083828488
      L
    
      -5.0861029192
      92.1064268456
      L
    
      -10.0017149203
      71.4671585076
      L
    
      -86.2929098244
      28.8717909182
      L
    
      -90.4805921071
      9.0287502830
      L
    
      -21.9629448213
      -5.4312381262
      L
    
      -22.1088992028
      -6.4946940246
      z
    "
    fill="hsla(0,0%,50%,0.3)"
    stroke="hsla(0,0%,50%,1)"
    stroke-width="1"
    transform="translate(33.6361365258,-3.0005915737) scale(1,-1) translate(50,-110)"
    />
  
  
  <line
    x1="-7.280547774315603"
    y1="-8.529816368981386"
    x2="-90.48059210716441"
    y2="9.02875028301565"
    stroke="hsla(0,50%,50%,0.6)"
    stroke-width="1"
    transform="translate(33.6361365258,-3.0005915737) scale(1,-1) translate(50,-110)"
    />
  
  <line
    x1="-7.280547774315603"
    y1="-8.529816368981386"
    x2="-22.10889920285224"
    y2="-6.494694024672395"
    stroke="hsla(0,50%,50%,0.6)"
    stroke-width="1"
    transform="translate(33.6361365258,-3.0005915737) scale(1,-1) translate(50,-110)"
    />
  
  <line
    x1="-11.253822629969418"
    y1="1.9571865443425076"
    x2="-86.29290982448025"
    y2="28.871790918202144"
    stroke="hsla(0,50%,50%,0.6)"
    stroke-width="1"
    transform="translate(33.6361365258,-3.0005915737) scale(1,-1) translate(50,-110)"
    />
  
  <line
    x1="0"
    y1="33.333333333333336"
    x2="0"
    y2="91.40838284888389"
    stroke="hsla(0,50%,50%,0.6)"
    stroke-width="1"
    transform="translate(33.6361365258,-3.0005915737) scale(1,-1) translate(50,-110)"
    />
  
  <line
    x1="-7.280547774315603"
    y1="-8.529816368981386"
    x2="8.420799351111784"
    y2="81.75292960222609"
    stroke="hsla(0,50%,50%,0.6)"
    stroke-width="1"
    transform="translate(33.6361365258,-3.0005915737) scale(1,-1) translate(50,-110)"
    />
  
  <line
    x1="-22.10889920285224"
    y1="-6.494694024672395"
    x2="-13.322770419032166"
    y2="57.522983176499565"
    stroke="hsla(0,50%,50%,0.6)"
    stroke-width="1"
    transform="translate(33.6361365258,-3.0005915737) scale(1,-1) translate(50,-110)"
    />
  
  <line
    x1="-11.253822629969418"
    y1="1.9571865443425076"
    x2="0"
    y2="33.333333333333336"
    stroke="hsla(0,50%,50%,0.6)"
    stroke-width="1"
    transform="translate(33.6361365258,-3.0005915737) scale(1,-1) translate(50,-110)"
    />
  
  <line
    x1="-13.322770419032166"
    y1="57.522983176499565"
    x2="-5.08610291920865"
    y2="92.10642684563035"
    stroke="hsla(0,50%,50%,0.6)"
    stroke-width="1"
    transform="translate(33.6361365258,-3.0005915737) scale(1,-1) translate(50,-110)"
    />
  
  <line
    x1="-13.322770419032166"
    y1="57.522983176499565"
    x2="-1.8162250847124617"
    y2="90.9819139991268"
    stroke="hsla(0,50%,50%,0.6)"
    stroke-width="1"
    transform="translate(33.6361365258,-3.0005915737) scale(1,-1) translate(50,-110)"
    />
  
  <line
    x1="-90.48059210716441"
    y1="9.02875028301565"
    x2="-86.29290982448025"
    y2="28.871790918202144"
    stroke="hsla(0,50%,50%,0.6)"
    stroke-width="1"
    transform="translate(33.6361365258,-3.0005915737) scale(1,-1) translate(50,-110)"
    />
  
  <line
    x1="8.420799351111784"
    y1="81.75292960222609"
    x2="0"
    y2="91.40838284888389"
    stroke="hsla(0,50%,50%,0.6)"
    stroke-width="1"
    transform="translate(33.6361365258,-3.0005915737) scale(1,-1) translate(50,-110)"
    />
  
  <line
    x1="-86.29290982448025"
    y1="28.871790918202144"
    x2="8.420799351111784"
    y2="81.75292960222609"
    stroke="hsla(0,50%,50%,0.6)"
    stroke-width="1"
    transform="translate(33.6361365258,-3.0005915737) scale(1,-1) translate(50,-110)"
    />
  
  <line
    x1="-1.8162250847124617"
    y1="90.9819139991268"
    x2="-5.08610291920865"
    y2="92.10642684563035"
    stroke="hsla(0,50%,50%,0.6)"
    stroke-width="1"
    transform="translate(33.6361365258,-3.0005915737) scale(1,-1) translate(50,-110)"
    />
  
  <line
    x1="0"
    y1="91.40838284888389"
    x2="-5.08610291920865"
    y2="92.10642684563035"
    stroke="hsla(0,50%,50%,0.6)"
    stroke-width="1"
    transform="translate(33.6361365258,-3.0005915737) scale(1,-1) translate(50,-110)"
    />
  
</svg>
