<?xml version="1.0"?>
<!DOCTYPE svg PUBLIC "-//W3C//DTD SVG 1.1//EN"
  "http://www.w3.org/Graphics/SVG/1.1/DTD/svg11.dtd">
<svg
  width="240"
  height="240"
  viewBox="-500 -500 1000 1000" xmlns="http://www.w3.org/2000/svg" version="1.1">
  <rect
    x="0"
    y="0"
    width="100"
    height="100"
    fill="hsla(206,100%,53%,0.3)"
    stroke="hsl(206,100%,53%)"
    stroke-width="3"
    transform="" />
  
  <path
    d="M 
      206.7355462002
      -53.5042768122
      L
    
      208.6585358180
      -47.2773020515
      L
    
      207.7686107617
      -47.0024789295
      L
    
      221.4049346101
      38.8204452369
      L
    
      180.1098335330
      45.3817850783
      L
    
      119.6189084524
      0.7526721194
      L
    
      121.1733448963
      -4.9734379436
      L
    
      130.8408515825
      -6.3550649394
      L
    
      204.4378120188
      -52.9697944080
      z
    "
    fill="hsla(0,0%,50%,0.3)"
    stroke="hsla(0,0%,50%,1)"
    stroke-width="1"
    transform="translate(-170.5119215312,4.0612458669)"
    />
  
  
  <line
    x1="206.73554620026164"
    y1="-53.50427681220096"
    x2="208.65853581807917"
    y2="-47.277302051511136"
    stroke="hsla(0,50%,50%,0.6)"
    stroke-width="1"
    transform="translate(-170.5119215312,4.0612458669)"
    />
  
  <line
    x1="121.1733448963184"
    y1="-4.9734379436473155"
    x2="148.68152363716922"
    y2="16.91449229720269"
    stroke="hsla(0,50%,50%,0.6)"
    stroke-width="1"
    transform="translate(-170.5119215312,4.0612458669)"
    />
  
  <line
    x1="119.61890845241003"
    y1="0.7526721194942375"
    x2="180.10983353300549"
    y2="45.3817850783922"
    stroke="hsla(0,50%,50%,0.6)"
    stroke-width="1"
    transform="translate(-170.5119215312,4.0612458669)"
    />
  
  <line
    x1="136.92532468978706"
    y1="10.023920212505327"
    x2="148.68152363716922"
    y2="16.91449229720269"
    stroke="hsla(0,50%,50%,0.6)"
    stroke-width="1"
    transform="translate(-170.5119215312,4.0612458669)"
    />
  
  <line
    x1="206.73554620026164"
    y1="-53.50427681220096"
    x2="221.40493461016985"
    y2="38.820445236994644"
    stroke="hsla(0,50%,50%,0.6)"
    stroke-width="1"
    transform="translate(-170.5119215312,4.0612458669)"
    />
  
  <line
    x1="171.8777268610278"
    y1="-12.21982992494823"
    x2="180.10983353300549"
    y2="45.3817850783922"
    stroke="hsla(0,50%,50%,0.6)"
    stroke-width="1"
    transform="translate(-170.5119215312,4.0612458669)"
    />
  
  <line
    x1="206.73554620026164"
    y1="-53.50427681220096"
    x2="204.43781201885872"
    y2="-52.969794408083"
    stroke="hsla(0,50%,50%,0.6)"
    stroke-width="1"
    transform="translate(-170.5119215312,4.0612458669)"
    />
  
  <line
    x1="171.8777268610278"
    y1="-12.21982992494823"
    x2="121.1733448963184"
    y2="-4.9734379436473155"
    stroke="hsla(0,50%,50%,0.6)"
    stroke-width="1"
    transform="translate(-170.5119215312,4.0612458669)"
    />
  
  <line
    x1="208.65853581807917"
    y1="-47.277302051511136"
    x2="182.88288499199692"
    y2="-39.31736792042194"
    stroke="hsla(0,50%,50%,0.6)"
    stroke-width="1"
    transform="translate(-170.5119215312,4.0612458669)"
    />
  
  <line
    x1="121.1733448963184"
    y1="-4.9734379436473155"
    x2="119.61890845241003"
    y2="0.7526721194942375"
    stroke="hsla(0,50%,50%,0.6)"
    stroke-width="1"
    transform="translate(-170.5119215312,4.0612458669)"
    />
  
  <line
    x1="204.43781201885872"
    y1="-52.969794408083"
    x2="119.61890845241003"
    y2="0.7526721194942375"
    stroke="hsla(0,50%,50%,0.6)"
    stroke-width="1"
    transform="translate(-170.5119215312,4.0612458669)"
    />
  
  <line
    x1="136.92532468978706"
    y1="10.023920212505327"
    x2="135.49437454341583"
    y2="12.465304526862246"
    stroke="hsla(0,50%,50%,0.6)"
    stroke-width="1"
    transform="translate(-170.5119215312,4.0612458669)"
    />
  
  <line
    x1="221.40493461016985"
    y1="38.820445236994644"
    x2="180.10983353300549"
    y2="45.3817850783922"
    stroke="hsla(0,50%,50%,0.6)"
    stroke-width="1"
    transform="translate(-170.5119215312,4.0612458669)"
    />
  
  <line
    x1="182.88288499199692"
    y1="-39.31736792042194"
    x2="135.49437454341583"
    y2="12.465304526862246"
    stroke="hsla(0,50%,50%,0.6)"
    stroke-width="1"
    transform="translate(-170.5119215312,4.0612458669)"
    />
  
  <line
    x1="148.68152363716922"
    y1="16.91449229720269"
    x2="146.27706318602625"
    y2="20.42057763254757"
    stroke="hsla(0,50%,50%,0.6)"
    stroke-width="1"
    transform="translate(-170.5119215312,4.0612458669)"
    />
  
  <line
    x1="204.43781201885872"
    y1="-52.969794408083"
    x2="146.27706318602625"
    y2="20.42057763254757"
    stroke="hsla(0,50%,50%,0.6)"
    stroke-width="1"
    transform="translate(-170.5119215312,4.0612458669)"
    />
  
</svg>
