<?xml version="1.0"?>
<!DOCTYPE svg PUBLIC "-//W3C//DTD SVG 1.1//EN"
  "http://www.w3.org/Graphics/SVG/1.1/DTD/svg11.dtd">
<svg
  width="240"
  height="240"
  viewBox="-50 -50 200 200" xmlns="http://www.w3.org/2000/svg" version="1.1">
  <rect
    x="0"
    y="0"
    width="100"
    height="100"
    fill="hsla(206,100%,53%,0.3)"
    stroke="hsl(206,100%,53%)"
    stroke-width="3"
    transform="" />
  
  <path
    d="M 
      -47.1174335557
      218.4318580962
      L
    
      -1.9292694196
      252.8588231654
      L
    
      -20.8138195777
      277.7288867562
      L
    
      -89.0480744567
      296.9197709409
      L
    
      -109.4970586894
      273.9389060107
      z
    "
    fill="hsla(0,0%,50%,0.3)"
    stroke="hsla(0,0%,50%,1)"
    stroke-width="1"
    transform="translate(82.6776943420,-275.3711741640) scale(1,-1) translate(50,-110)"
    />
  
  
  <line
    x1="-81.30033307435747"
    y1="254.05822939200772"
    x2="-89.0480744567641"
    y2="296.9197709409649"
    stroke="hsla(0,50%,50%,0.6)"
    stroke-width="1"
    transform="translate(82.6776943420,-275.3711741640) scale(1,-1) translate(50,-110)"
    />
  
  <line
    x1="-47.117433555789724"
    y1="218.43185809624165"
    x2="-54.41985715958319"
    y2="233.22795925535652"
    stroke="hsla(0,50%,50%,0.6)"
    stroke-width="1"
    transform="translate(82.6776943420,-275.3711741640) scale(1,-1) translate(50,-110)"
    />
  
  <line
    x1="-39.19075442760917"
    y1="228.35186580186954"
    x2="-70.1577318760067"
    y2="291.6068620901269"
    stroke="hsla(0,50%,50%,0.6)"
    stroke-width="1"
    transform="translate(82.6776943420,-275.3711741640) scale(1,-1) translate(50,-110)"
    />
  
  <line
    x1="-81.30033307435747"
    y1="254.05822939200772"
    x2="-95.09870414099515"
    y2="275.71874814206694"
    stroke="hsla(0,50%,50%,0.6)"
    stroke-width="1"
    transform="translate(82.6776943420,-275.3711741640) scale(1,-1) translate(50,-110)"
    />
  
  <line
    x1="-1.9292694196813567"
    y1="252.85882316545505"
    x2="-20.813819577735124"
    y2="277.728886756238"
    stroke="hsla(0,50%,50%,0.6)"
    stroke-width="1"
    transform="translate(82.6776943420,-275.3711741640) scale(1,-1) translate(50,-110)"
    />
  
  <line
    x1="-47.117433555789724"
    y1="218.43185809624165"
    x2="-109.49705868942974"
    y2="273.9389060107772"
    stroke="hsla(0,50%,50%,0.6)"
    stroke-width="1"
    transform="translate(82.6776943420,-275.3711741640) scale(1,-1) translate(50,-110)"
    />
  
  <line
    x1="-25.3731056456839"
    y1="235.11640367757866"
    x2="-5.395283756108402"
    y2="257.4234008880938"
    stroke="hsla(0,50%,50%,0.6)"
    stroke-width="1"
    transform="translate(82.6776943420,-275.3711741640) scale(1,-1) translate(50,-110)"
    />
  
  <line
    x1="-47.117433555789724"
    y1="218.43185809624165"
    x2="-1.9292694196813567"
    y2="252.85882316545505"
    stroke="hsla(0,50%,50%,0.6)"
    stroke-width="1"
    transform="translate(82.6776943420,-275.3711741640) scale(1,-1) translate(50,-110)"
    />
  
  <line
    x1="-25.3731056456839"
    y1="235.11640367757866"
    x2="-1.9292694196813567"
    y2="252.85882316545505"
    stroke="hsla(0,50%,50%,0.6)"
    stroke-width="1"
    transform="translate(82.6776943420,-275.3711741640) scale(1,-1) translate(50,-110)"
    />
  
  <line
    x1="-109.49705868942974"
    y1="273.9389060107772"
    x2="-89.0480744567641"
    y2="296.9197709409649"
    stroke="hsla(0,50%,50%,0.6)"
    stroke-width="1"
    transform="translate(82.6776943420,-275.3711741640) scale(1,-1) translate(50,-110)"
    />
  
  <line
    x1="-39.19075442760917"
    y1="228.35186580186954"
    x2="-25.3731056456839"
    y2="235.11640367757866"
    stroke="hsla(0,50%,50%,0.6)"
    stroke-width="1"
    transform="translate(82.6776943420,-275.3711741640) scale(1,-1) translate(50,-110)"
    />
  
  <line
    x1="-54.41985715958319"
    y1="233.22795925535652"
    x2="-5.395283756108402"
    y2="257.4234008880938"
    stroke="hsla(0,50%,50%,0.6)"
    stroke-width="1"
    transform="translate(82.6776943420,-275.3711741640) scale(1,-1) translate(50,-110)"
    />
  
  <line
    x1="-95.09870414099515"
    y1="275.71874814206694"
    x2="-70.1577318760067"
    y2="291.6068620901269"
    stroke="hsla(0,50%,50%,0.6)"
    stroke-width="1"
    transform="translate(82.6776943420,-275.3711741640) scale(1,-1) translate(50,-110)"
    />
  
  <line
    x1="-81.30033307435747"
    y1="254.05822939200772"
    x2="-20.813819577735124"
    y2="277.728886756238"
    stroke="hsla(0,50%,50%,0.6)"
    stroke-width="1"
    transform="translate(82.6776943420,-275.3711741640) scale(1,-1) translate(50,-110)"
    />
  
  <line
    x1="-20.813819577735124"
    y1="277.728886756238"
    x2="-89.0480744567641"
    y2="296.9197709409649"
    stroke="hsla(0,50%,50%,0.6)"
    stroke-width="1"
    transform="translate(82.6776943420,-275.3711741640) scale(1,-1) translate(50,-110)"
    />
  
</svg>
