<?xml version="1.0"?>
<!DOCTYPE svg PUBLIC "-//W3C//DTD SVG 1.1//EN"
  "http://www.w3.org/Graphics/SVG/1.1/DTD/svg11.dtd">
<svg
  width="240"
  height="240"
  viewBox="-500 -500 1000 1000" xmlns="http://www.w3.org/2000/svg" version="1.1">
  <rect
    x="0"
    y="0"
    width="100"
    height="100"
    fill="hsla(206,100%,53%,0.3)"
    stroke="hsl(206,100%,53%)"
    stroke-width="3"
    transform="" />
  
  <path
    d="M 
      0
      0
      L
    
      25
      0
      L
    
      27.7027027027
      2.7027027027
      L
    
      27.7027027027
      34.7826086956
      L
    
      65.2173913043
      34.7826086956
      L
    
      65.2173913043
      37.4853113983
      L
    
      27.7027027027
      37.4853113983
      L
    
      25
      34.7826086956
      L
    
      25
      2.7027027027
      L
    
      0
      2.7027027027
      z
    "
    fill="hsla(0,0%,50%,0.3)"
    stroke="hsla(0,0%,50%,1)"
    stroke-width="1"
    transform="translate(-32.6086956521,-18.7426556991)"
    />
  
  
  <line
    x1="25"
    y1="0"
    x2="27.7027027027027"
    y2="2.7027027027027026"
    stroke="hsla(0,50%,50%,0.6)"
    stroke-width="1"
    transform="translate(-32.6086956521,-18.7426556991)"
    />
  
  <line
    x1="0"
    y1="0"
    x2="25"
    y2="0"
    stroke="hsla(0,50%,50%,0.6)"
    stroke-width="1"
    transform="translate(-32.6086956521,-18.7426556991)"
    />
  
  <line
    x1="0"
    y1="0"
    x2="0"
    y2="2.7027027027027026"
    stroke="hsla(0,50%,50%,0.6)"
    stroke-width="1"
    transform="translate(-32.6086956521,-18.7426556991)"
    />
  
  <line
    x1="25"
    y1="0"
    x2="25"
    y2="34.78260869565217"
    stroke="hsla(0,50%,50%,0.6)"
    stroke-width="1"
    transform="translate(-32.6086956521,-18.7426556991)"
    />
  
  <line
    x1="27.7027027027027"
    y1="2.7027027027027026"
    x2="27.7027027027027"
    y2="37.485311398354874"
    stroke="hsla(0,50%,50%,0.6)"
    stroke-width="1"
    transform="translate(-32.6086956521,-18.7426556991)"
    />
  
  <line
    x1="65.21739130434783"
    y1="34.78260869565217"
    x2="65.21739130434783"
    y2="37.485311398354874"
    stroke="hsla(0,50%,50%,0.6)"
    stroke-width="1"
    transform="translate(-32.6086956521,-18.7426556991)"
    />
  
  <line
    x1="0"
    y1="2.7027027027027026"
    x2="27.7027027027027"
    y2="2.7027027027027026"
    stroke="hsla(0,50%,50%,0.6)"
    stroke-width="1"
    transform="translate(-32.6086956521,-18.7426556991)"
    />
  
  <line
    x1="25"
    y1="34.78260869565217"
    x2="27.7027027027027"
    y2="37.485311398354874"
    stroke="hsla(0,50%,50%,0.6)"
    stroke-width="1"
    transform="translate(-32.6086956521,-18.7426556991)"
    />
  
  <line
    x1="25"
    y1="34.78260869565217"
    x2="65.21739130434783"
    y2="34.78260869565217"
    stroke="hsla(0,50%,50%,0.6)"
    stroke-width="1"
    transform="translate(-32.6086956521,-18.7426556991)"
    />
  
  <line
    x1="27.7027027027027"
    y1="37.485311398354874"
    x2="65.21739130434783"
    y2="37.485311398354874"
    stroke="hsla(0,50%,50%,0.6)"
    stroke-width="1"
    transform="translate(-32.6086956521,-18.7426556991)"
    />
  
</svg>
