<?xml version="1.0"?>
<!DOCTYPE svg PUBLIC "-//W3C//DTD SVG 1.1//EN"
  "http://www.w3.org/Graphics/SVG/1.1/DTD/svg11.dtd">
<svg
  width="240"
  height="240"
  viewBox="-50 -50 200 200" xmlns="http://www.w3.org/2000/svg" version="1.1">
  <rect
    x="0"
    y="0"
    width="100"
    height="100"
    fill="hsla(206,100%,53%,0.3)"
    stroke="hsl(206,100%,53%)"
    stroke-width="3"
    transform="" />
  
  <path
    d="M 
      109.7380956669
      255.5119970335
      L
    
      140.1435962435
      293.0936016320
      L
    
      70.5712043658
      349.3813366543
      L
    
      67.9860788331
      355.2466486011
      L
    
      64.9665507244
      353.9157970997
      L
    
      60.5128205128
      320.5128205128
      L
    
      63.0549518782
      256.9595363758
      z
    "
    fill="hsla(0,0%,50%,0.3)"
    stroke="hsla(0,0%,50%,1)"
    stroke-width="1"
    transform="translate(-65.1353814075,-294.5404927407) scale(1,-1) translate(50,-110)"
    />
  
  
  <line
    x1="60.51282051282051"
    y1="320.5128205128205"
    x2="64.9665507244113"
    y2="353.91579709975156"
    stroke="hsla(0,50%,50%,0.6)"
    stroke-width="1"
    transform="translate(-65.1353814075,-294.5404927407) scale(1,-1) translate(50,-110)"
    />
  
  <line
    x1="73.96327824357337"
    y1="258.1748632621842"
    x2="73.77843250573875"
    y2="277.8356249781043"
    stroke="hsla(0,50%,50%,0.6)"
    stroke-width="1"
    transform="translate(-65.1353814075,-294.5404927407) scale(1,-1) translate(50,-110)"
    />
  
  <line
    x1="63.05495187829867"
    y1="256.9595363758667"
    x2="60.51282051282051"
    y2="320.5128205128205"
    stroke="hsla(0,50%,50%,0.6)"
    stroke-width="1"
    transform="translate(-65.1353814075,-294.5404927407) scale(1,-1) translate(50,-110)"
    />
  
  <line
    x1="73.96327824357337"
    y1="258.1748632621842"
    x2="60.51282051282051"
    y2="320.5128205128205"
    stroke="hsla(0,50%,50%,0.6)"
    stroke-width="1"
    transform="translate(-65.1353814075,-294.5404927407) scale(1,-1) translate(50,-110)"
    />
  
  <line
    x1="109.73809566694631"
    y1="255.51199703358304"
    x2="140.14359624354333"
    y2="293.093601632093"
    stroke="hsla(0,50%,50%,0.6)"
    stroke-width="1"
    transform="translate(-65.1353814075,-294.5404927407) scale(1,-1) translate(50,-110)"
    />
  
  <line
    x1="108.31729045336603"
    y1="263.7404008950729"
    x2="67.98607883316622"
    y2="355.24664860115394"
    stroke="hsla(0,50%,50%,0.6)"
    stroke-width="1"
    transform="translate(-65.1353814075,-294.5404927407) scale(1,-1) translate(50,-110)"
    />
  
  <line
    x1="109.73809566694631"
    y1="255.51199703358304"
    x2="79.79651957557392"
    y2="297.60871658136364"
    stroke="hsla(0,50%,50%,0.6)"
    stroke-width="1"
    transform="translate(-65.1353814075,-294.5404927407) scale(1,-1) translate(50,-110)"
    />
  
  <line
    x1="61.93709025890186"
    y1="284.9060768607867"
    x2="79.79651957557392"
    y2="297.60871658136364"
    stroke="hsla(0,50%,50%,0.6)"
    stroke-width="1"
    transform="translate(-65.1353814075,-294.5404927407) scale(1,-1) translate(50,-110)"
    />
  
  <line
    x1="62.50089859269885"
    y1="270.81086851586207"
    x2="73.77843250573875"
    y2="277.8356249781043"
    stroke="hsla(0,50%,50%,0.6)"
    stroke-width="1"
    transform="translate(-65.1353814075,-294.5404927407) scale(1,-1) translate(50,-110)"
    />
  
  <line
    x1="90.96859925647841"
    y1="256.0939969222797"
    x2="108.31729045336603"
    y2="263.7404008950729"
    stroke="hsla(0,50%,50%,0.6)"
    stroke-width="1"
    transform="translate(-65.1353814075,-294.5404927407) scale(1,-1) translate(50,-110)"
    />
  
  <line
    x1="73.77843250573875"
    y1="277.8356249781043"
    x2="61.93709025890186"
    y2="284.9060768607867"
    stroke="hsla(0,50%,50%,0.6)"
    stroke-width="1"
    transform="translate(-65.1353814075,-294.5404927407) scale(1,-1) translate(50,-110)"
    />
  
  <line
    x1="90.96859925647841"
    y1="256.0939969222797"
    x2="62.50089859269885"
    y2="270.81086851586207"
    stroke="hsla(0,50%,50%,0.6)"
    stroke-width="1"
    transform="translate(-65.1353814075,-294.5404927407) scale(1,-1) translate(50,-110)"
    />
  
  <line
    x1="140.14359624354333"
    y1="293.093601632093"
    x2="64.9665507244113"
    y2="353.91579709975156"
    stroke="hsla(0,50%,50%,0.6)"
    stroke-width="1"
    transform="translate(-65.1353814075,-294.5404927407) scale(1,-1) translate(50,-110)"
    />
  
  <line
    x1="63.05495187829867"
    y1="256.9595363758667"
    x2="73.96327824357337"
    y2="258.1748632621842"
    stroke="hsla(0,50%,50%,0.6)"
    stroke-width="1"
    transform="translate(-65.1353814075,-294.5404927407) scale(1,-1) translate(50,-110)"
    />
  
  <line
    x1="109.73809566694631"
    y1="255.51199703358304"
    x2="63.05495187829867"
    y2="256.9595363758667"
    stroke="hsla(0,50%,50%,0.6)"
    stroke-width="1"
    transform="translate(-65.1353814075,-294.5404927407) scale(1,-1) translate(50,-110)"
    />
  
  <line
    x1="64.9665507244113"
    y1="353.91579709975156"
    x2="67.98607883316622"
    y2="355.24664860115394"
    stroke="hsla(0,50%,50%,0.6)"
    stroke-width="1"
    transform="translate(-65.1353814075,-294.5404927407) scale(1,-1) translate(50,-110)"
    />
  
</svg>
