<?xml version="1.0"?>
<!DOCTYPE svg PUBLIC "-//W3C//DTD SVG 1.1//EN"
  "http://www.w3.org/Graphics/SVG/1.1/DTD/svg11.dtd">
<svg
  width="240"
  height="240"
  viewBox="-50 -50 200 200" xmlns="http://www.w3.org/2000/svg" version="1.1">
  <rect
    x="0"
    y="0"
    width="100"
    height="100"
    fill="hsla(206,100%,53%,0.3)"
    stroke="hsl(206,100%,53%)"
    stroke-width="3"
    transform="" />
  
  <path
    d="M 
      0
      0
      L
    
      26.8907563025
      0
      L
    
      29.6685340802
      2.7777777777
      L
    
      29.6685340802
      35.0427350427
      L
    
      64.9572649572
      35.0427350427
      L
    
      64.9572649572
      37.8205128205
      L
    
      29.6685340802
      37.8205128205
      L
    
      26.8907563025
      35.0427350427
      L
    
      26.8907563025
      2.7777777777
      L
    
      0
      2.7777777777
      z
    "
    fill="hsla(0,0%,50%,0.3)"
    stroke="hsla(0,0%,50%,1)"
    stroke-width="1"
    transform="translate(-15.3833879304,-10.8415130876) scale(1,-1) translate(50,-110)"
    />
  
  
  <line
    x1="26.89075630252101"
    y1="0"
    x2="29.668534080298787"
    y2="2.7777777777777777"
    stroke="hsla(0,50%,50%,0.6)"
    stroke-width="1"
    transform="translate(-15.3833879304,-10.8415130876) scale(1,-1) translate(50,-110)"
    />
  
  <line
    x1="0"
    y1="0"
    x2="26.89075630252101"
    y2="0"
    stroke="hsla(0,50%,50%,0.6)"
    stroke-width="1"
    transform="translate(-15.3833879304,-10.8415130876) scale(1,-1) translate(50,-110)"
    />
  
  <line
    x1="0"
    y1="0"
    x2="0"
    y2="2.7777777777777777"
    stroke="hsla(0,50%,50%,0.6)"
    stroke-width="1"
    transform="translate(-15.3833879304,-10.8415130876) scale(1,-1) translate(50,-110)"
    />
  
  <line
    x1="26.89075630252101"
    y1="0"
    x2="26.89075630252101"
    y2="35.042735042735046"
    stroke="hsla(0,50%,50%,0.6)"
    stroke-width="1"
    transform="translate(-15.3833879304,-10.8415130876) scale(1,-1) translate(50,-110)"
    />
  
  <line
    x1="29.668534080298787"
    y1="2.7777777777777777"
    x2="29.668534080298787"
    y2="37.82051282051282"
    stroke="hsla(0,50%,50%,0.6)"
    stroke-width="1"
    transform="translate(-15.3833879304,-10.8415130876) scale(1,-1) translate(50,-110)"
    />
  
  <line
    x1="64.95726495726495"
    y1="35.042735042735046"
    x2="64.95726495726495"
    y2="37.82051282051282"
    stroke="hsla(0,50%,50%,0.6)"
    stroke-width="1"
    transform="translate(-15.3833879304,-10.8415130876) scale(1,-1) translate(50,-110)"
    />
  
  <line
    x1="0"
    y1="2.7777777777777777"
    x2="29.668534080298787"
    y2="2.7777777777777777"
    stroke="hsla(0,50%,50%,0.6)"
    stroke-width="1"
    transform="translate(-15.3833879304,-10.8415130876) scale(1,-1) translate(50,-110)"
    />
  
  <line
    x1="26.89075630252101"
    y1="35.042735042735046"
    x2="29.668534080298787"
    y2="37.82051282051282"
    stroke="hsla(0,50%,50%,0.6)"
    stroke-width="1"
    transform="translate(-15.3833879304,-10.8415130876) scale(1,-1) translate(50,-110)"
    />
  
  <line
    x1="26.89075630252101"
    y1="35.042735042735046"
    x2="64.95726495726495"
    y2="35.042735042735046"
    stroke="hsla(0,50%,50%,0.6)"
    stroke-width="1"
    transform="translate(-15.3833879304,-10.8415130876) scale(1,-1) translate(50,-110)"
    />
  
  <line
    x1="29.668534080298787"
    y1="37.82051282051282"
    x2="64.95726495726495"
    y2="37.82051282051282"
    stroke="hsla(0,50%,50%,0.6)"
    stroke-width="1"
    transform="translate(-15.3833879304,-10.8415130876) scale(1,-1) translate(50,-110)"
    />
  
</svg>
