<?xml version="1.0"?>
<!DOCTYPE svg PUBLIC "-//W3C//DTD SVG 1.1//EN"
  "http://www.w3.org/Graphics/SVG/1.1/DTD/svg11.dtd">
<svg
  width="240"
  height="240"
  viewBox="-50 -50 200 200" xmlns="http://www.w3.org/2000/svg" version="1.1">
  <rect
    x="0"
    y="0"
    width="100"
    height="100"
    fill="hsla(206,100%,53%,0.3)"
    stroke="hsl(206,100%,53%)"
    stroke-width="3"
    transform="" />
  
  <path
    d="M 
      0
      0
      L
    
      29.9145299145
      0
      L
    
      32.8557063851
      2.9411764705
      L
    
      32.8557063851
      29.5238095238
      L
    
      70.4761904761
      29.5238095238
      L
    
      70.4761904761
      32.4649859943
      L
    
      32.8557063851
      32.4649859943
      L
    
      29.9145299145
      29.5238095238
      L
    
      29.9145299145
      2.9411764705
      L
    
      0
      2.9411764705
      z
    "
    fill="hsla(0,0%,50%,0.3)"
    stroke="hsla(0,0%,50%,1)"
    stroke-width="1"
    transform="translate(-17.0184564210,-9.6434042366) scale(1,-1) translate(50,-110)"
    />
  
  
  <line
    x1="29.914529914529915"
    y1="0"
    x2="32.85570638511815"
    y2="2.9411764705882355"
    stroke="hsla(0,50%,50%,0.6)"
    stroke-width="1"
    transform="translate(-17.0184564210,-9.6434042366) scale(1,-1) translate(50,-110)"
    />
  
  <line
    x1="29.914529914529915"
    y1="29.523809523809526"
    x2="32.85570638511815"
    y2="32.46498599439776"
    stroke="hsla(0,50%,50%,0.6)"
    stroke-width="1"
    transform="translate(-17.0184564210,-9.6434042366) scale(1,-1) translate(50,-110)"
    />
  
  <line
    x1="0"
    y1="0"
    x2="29.914529914529915"
    y2="0"
    stroke="hsla(0,50%,50%,0.6)"
    stroke-width="1"
    transform="translate(-17.0184564210,-9.6434042366) scale(1,-1) translate(50,-110)"
    />
  
  <line
    x1="0"
    y1="0"
    x2="0"
    y2="2.9411764705882355"
    stroke="hsla(0,50%,50%,0.6)"
    stroke-width="1"
    transform="translate(-17.0184564210,-9.6434042366) scale(1,-1) translate(50,-110)"
    />
  
  <line
    x1="29.914529914529915"
    y1="0"
    x2="29.914529914529915"
    y2="29.523809523809526"
    stroke="hsla(0,50%,50%,0.6)"
    stroke-width="1"
    transform="translate(-17.0184564210,-9.6434042366) scale(1,-1) translate(50,-110)"
    />
  
  <line
    x1="32.85570638511815"
    y1="2.9411764705882355"
    x2="32.85570638511815"
    y2="32.46498599439776"
    stroke="hsla(0,50%,50%,0.6)"
    stroke-width="1"
    transform="translate(-17.0184564210,-9.6434042366) scale(1,-1) translate(50,-110)"
    />
  
  <line
    x1="70.47619047619048"
    y1="29.523809523809526"
    x2="70.47619047619048"
    y2="32.46498599439776"
    stroke="hsla(0,50%,50%,0.6)"
    stroke-width="1"
    transform="translate(-17.0184564210,-9.6434042366) scale(1,-1) translate(50,-110)"
    />
  
  <line
    x1="0"
    y1="2.9411764705882355"
    x2="32.85570638511815"
    y2="2.9411764705882355"
    stroke="hsla(0,50%,50%,0.6)"
    stroke-width="1"
    transform="translate(-17.0184564210,-9.6434042366) scale(1,-1) translate(50,-110)"
    />
  
  <line
    x1="29.914529914529915"
    y1="29.523809523809526"
    x2="70.47619047619048"
    y2="29.523809523809526"
    stroke="hsla(0,50%,50%,0.6)"
    stroke-width="1"
    transform="translate(-17.0184564210,-9.6434042366) scale(1,-1) translate(50,-110)"
    />
  
  <line
    x1="32.85570638511815"
    y1="32.46498599439776"
    x2="70.47619047619048"
    y2="32.46498599439776"
    stroke="hsla(0,50%,50%,0.6)"
    stroke-width="1"
    transform="translate(-17.0184564210,-9.6434042366) scale(1,-1) translate(50,-110)"
    />
  
</svg>
