<?xml version="1.0"?>
<!DOCTYPE svg PUBLIC "-//W3C//DTD SVG 1.1//EN"
  "http://www.w3.org/Graphics/SVG/1.1/DTD/svg11.dtd">
<svg
  width="240"
  height="240"
  viewBox="-50 -50 200 200" xmlns="http://www.w3.org/2000/svg" version="1.1">
  <rect
    x="0"
    y="0"
    width="100"
    height="100"
    fill="hsla(206,100%,53%,0.3)"
    stroke="hsl(206,100%,53%)"
    stroke-width="3"
    transform="" />
  
  <path
    d="M 
      0
      0
      L
    
      25.4716981132
      0
      L
    
      28.6975045648
      3.2258064516
      L
    
      28.6975045648
      44.3181818181
      L
    
      55.6818181818
      44.3181818181
      L
    
      55.6818181818
      47.5439882697
      L
    
      28.6975045648
      47.5439882697
      L
    
      25.4716981132
      44.3181818181
      L
    
      25.4716981132
      3.2258064516
      L
    
      0
      3.2258064516
      z
    "
    fill="hsla(0,0%,50%,0.3)"
    stroke="hsla(0,0%,50%,1)"
    stroke-width="1"
    transform="translate(-14.3416143470,-13.4676846590) scale(1,-1) translate(50,-110)"
    />
  
  
  <line
    x1="25.471698113207548"
    y1="0"
    x2="28.697504564820452"
    y2="3.225806451612903"
    stroke="hsla(0,50%,50%,0.6)"
    stroke-width="1"
    transform="translate(-14.3416143470,-13.4676846590) scale(1,-1) translate(50,-110)"
    />
  
  <line
    x1="0"
    y1="0"
    x2="25.471698113207548"
    y2="0"
    stroke="hsla(0,50%,50%,0.6)"
    stroke-width="1"
    transform="translate(-14.3416143470,-13.4676846590) scale(1,-1) translate(50,-110)"
    />
  
  <line
    x1="0"
    y1="0"
    x2="0"
    y2="3.225806451612903"
    stroke="hsla(0,50%,50%,0.6)"
    stroke-width="1"
    transform="translate(-14.3416143470,-13.4676846590) scale(1,-1) translate(50,-110)"
    />
  
  <line
    x1="25.471698113207548"
    y1="0"
    x2="25.471698113207548"
    y2="44.31818181818182"
    stroke="hsla(0,50%,50%,0.6)"
    stroke-width="1"
    transform="translate(-14.3416143470,-13.4676846590) scale(1,-1) translate(50,-110)"
    />
  
  <line
    x1="28.697504564820452"
    y1="3.225806451612903"
    x2="28.697504564820452"
    y2="47.543988269794724"
    stroke="hsla(0,50%,50%,0.6)"
    stroke-width="1"
    transform="translate(-14.3416143470,-13.4676846590) scale(1,-1) translate(50,-110)"
    />
  
  <line
    x1="55.68181818181818"
    y1="44.31818181818182"
    x2="55.68181818181818"
    y2="47.543988269794724"
    stroke="hsla(0,50%,50%,0.6)"
    stroke-width="1"
    transform="translate(-14.3416143470,-13.4676846590) scale(1,-1) translate(50,-110)"
    />
  
  <line
    x1="0"
    y1="3.225806451612903"
    x2="28.697504564820452"
    y2="3.225806451612903"
    stroke="hsla(0,50%,50%,0.6)"
    stroke-width="1"
    transform="translate(-14.3416143470,-13.4676846590) scale(1,-1) translate(50,-110)"
    />
  
  <line
    x1="25.471698113207548"
    y1="44.31818181818182"
    x2="28.697504564820452"
    y2="47.543988269794724"
    stroke="hsla(0,50%,50%,0.6)"
    stroke-width="1"
    transform="translate(-14.3416143470,-13.4676846590) scale(1,-1) translate(50,-110)"
    />
  
  <line
    x1="25.471698113207548"
    y1="44.31818181818182"
    x2="55.68181818181818"
    y2="44.31818181818182"
    stroke="hsla(0,50%,50%,0.6)"
    stroke-width="1"
    transform="translate(-14.3416143470,-13.4676846590) scale(1,-1) translate(50,-110)"
    />
  
  <line
    x1="28.697504564820452"
    y1="47.543988269794724"
    x2="55.68181818181818"
    y2="47.543988269794724"
    stroke="hsla(0,50%,50%,0.6)"
    stroke-width="1"
    transform="translate(-14.3416143470,-13.4676846590) scale(1,-1) translate(50,-110)"
    />
  
</svg>
