<?xml version="1.0"?>
<!DOCTYPE svg PUBLIC "-//W3C//DTD SVG 1.1//EN"
  "http://www.w3.org/Graphics/SVG/1.1/DTD/svg11.dtd">
<svg
  width="240"
  height="240"
  viewBox="-500 -500 1000 1000" xmlns="http://www.w3.org/2000/svg" version="1.1">
  <rect
    x="0"
    y="0"
    width="100"
    height="100"
    fill="hsla(206,100%,53%,0.3)"
    stroke="hsl(206,100%,53%)"
    stroke-width="3"
    transform="" />
  
  <path
    d="M 
      0
      0
      L
    
      34.9056603773
      0
      L
    
      38.2389937106
      3.3333333333
      L
    
      38.2389937106
      32.9545454545
      L
    
      67.0454545454
      32.9545454545
      L
    
      67.0454545454
      36.2878787878
      L
    
      38.2389937106
      36.2878787878
      L
    
      34.9056603773
      32.9545454545
      L
    
      34.9056603773
      3.3333333333
      L
    
      0
      3.3333333333
      z
    "
    fill="hsla(0,0%,50%,0.3)"
    stroke="hsla(0,0%,50%,1)"
    stroke-width="1"
    transform="translate(-33.5227272727,-18.1439393939)"
    />
  
  
  <line
    x1="34.905660377358494"
    y1="0"
    x2="38.23899371069182"
    y2="3.3333333333333335"
    stroke="hsla(0,50%,50%,0.6)"
    stroke-width="1"
    transform="translate(-33.5227272727,-18.1439393939)"
    />
  
  <line
    x1="34.905660377358494"
    y1="32.95454545454545"
    x2="38.23899371069182"
    y2="36.28787878787879"
    stroke="hsla(0,50%,50%,0.6)"
    stroke-width="1"
    transform="translate(-33.5227272727,-18.1439393939)"
    />
  
  <line
    x1="0"
    y1="0"
    x2="34.905660377358494"
    y2="0"
    stroke="hsla(0,50%,50%,0.6)"
    stroke-width="1"
    transform="translate(-33.5227272727,-18.1439393939)"
    />
  
  <line
    x1="0"
    y1="0"
    x2="0"
    y2="3.3333333333333335"
    stroke="hsla(0,50%,50%,0.6)"
    stroke-width="1"
    transform="translate(-33.5227272727,-18.1439393939)"
    />
  
  <line
    x1="34.905660377358494"
    y1="0"
    x2="34.905660377358494"
    y2="32.95454545454545"
    stroke="hsla(0,50%,50%,0.6)"
    stroke-width="1"
    transform="translate(-33.5227272727,-18.1439393939)"
    />
  
  <line
    x1="38.23899371069182"
    y1="3.3333333333333335"
    x2="38.23899371069182"
    y2="36.28787878787879"
    stroke="hsla(0,50%,50%,0.6)"
    stroke-width="1"
    transform="translate(-33.5227272727,-18.1439393939)"
    />
  
  <line
    x1="67.04545454545455"
    y1="32.95454545454545"
    x2="67.04545454545455"
    y2="36.28787878787879"
    stroke="hsla(0,50%,50%,0.6)"
    stroke-width="1"
    transform="translate(-33.5227272727,-18.1439393939)"
    />
  
  <line
    x1="0"
    y1="3.3333333333333335"
    x2="38.23899371069182"
    y2="3.3333333333333335"
    stroke="hsla(0,50%,50%,0.6)"
    stroke-width="1"
    transform="translate(-33.5227272727,-18.1439393939)"
    />
  
  <line
    x1="34.905660377358494"
    y1="32.95454545454545"
    x2="67.04545454545455"
    y2="32.95454545454545"
    stroke="hsla(0,50%,50%,0.6)"
    stroke-width="1"
    transform="translate(-33.5227272727,-18.1439393939)"
    />
  
  <line
    x1="38.23899371069182"
    y1="36.28787878787879"
    x2="67.04545454545455"
    y2="36.28787878787879"
    stroke="hsla(0,50%,50%,0.6)"
    stroke-width="1"
    transform="translate(-33.5227272727,-18.1439393939)"
    />
  
</svg>
