<?xml version="1.0"?>
<!DOCTYPE svg PUBLIC "-//W3C//DTD SVG 1.1//EN"
  "http://www.w3.org/Graphics/SVG/1.1/DTD/svg11.dtd">
<svg
  width="240"
  height="240"
  viewBox="-500 -500 1000 1000" xmlns="http://www.w3.org/2000/svg" version="1.1">
  <rect
    x="0"
    y="0"
    width="100"
    height="100"
    fill="hsla(206,100%,53%,0.3)"
    stroke="hsl(206,100%,53%)"
    stroke-width="3"
    transform="" />
  
  <path
    d="M 
      0
      0
      L
    
      34.0659340659
      0
      L
    
      36.6975130133
      2.6315789473
      L
    
      36.6975130133
      24.7311827956
      L
    
      75.2688172043
      24.7311827956
      L
    
      75.2688172043
      27.3627617430
      L
    
      36.6975130133
      27.3627617430
      L
    
      34.0659340659
      24.7311827956
      L
    
      34.0659340659
      2.6315789473
      L
    
      0
      2.6315789473
      z
    "
    fill="hsla(0,0%,50%,0.3)"
    stroke="hsla(0,0%,50%,1)"
    stroke-width="1"
    transform="translate(-37.6344086021,-13.6813808715)"
    />
  
  
  <line
    x1="34.065934065934066"
    y1="0"
    x2="36.69751301330249"
    y2="2.6315789473684212"
    stroke="hsla(0,50%,50%,0.6)"
    stroke-width="1"
    transform="translate(-37.6344086021,-13.6813808715)"
    />
  
  <line
    x1="34.065934065934066"
    y1="24.731182795698924"
    x2="36.69751301330249"
    y2="27.362761743067345"
    stroke="hsla(0,50%,50%,0.6)"
    stroke-width="1"
    transform="translate(-37.6344086021,-13.6813808715)"
    />
  
  <line
    x1="0"
    y1="0"
    x2="34.065934065934066"
    y2="0"
    stroke="hsla(0,50%,50%,0.6)"
    stroke-width="1"
    transform="translate(-37.6344086021,-13.6813808715)"
    />
  
  <line
    x1="0"
    y1="0"
    x2="0"
    y2="2.6315789473684212"
    stroke="hsla(0,50%,50%,0.6)"
    stroke-width="1"
    transform="translate(-37.6344086021,-13.6813808715)"
    />
  
  <line
    x1="34.065934065934066"
    y1="0"
    x2="34.065934065934066"
    y2="24.731182795698924"
    stroke="hsla(0,50%,50%,0.6)"
    stroke-width="1"
    transform="translate(-37.6344086021,-13.6813808715)"
    />
  
  <line
    x1="36.69751301330249"
    y1="2.6315789473684212"
    x2="36.69751301330249"
    y2="27.362761743067345"
    stroke="hsla(0,50%,50%,0.6)"
    stroke-width="1"
    transform="translate(-37.6344086021,-13.6813808715)"
    />
  
  <line
    x1="75.26881720430107"
    y1="24.731182795698924"
    x2="75.26881720430107"
    y2="27.362761743067345"
    stroke="hsla(0,50%,50%,0.6)"
    stroke-width="1"
    transform="translate(-37.6344086021,-13.6813808715)"
    />
  
  <line
    x1="0"
    y1="2.6315789473684212"
    x2="36.69751301330249"
    y2="2.6315789473684212"
    stroke="hsla(0,50%,50%,0.6)"
    stroke-width="1"
    transform="translate(-37.6344086021,-13.6813808715)"
    />
  
  <line
    x1="34.065934065934066"
    y1="24.731182795698924"
    x2="75.26881720430107"
    y2="24.731182795698924"
    stroke="hsla(0,50%,50%,0.6)"
    stroke-width="1"
    transform="translate(-37.6344086021,-13.6813808715)"
    />
  
  <line
    x1="36.69751301330249"
    y1="27.362761743067345"
    x2="75.26881720430107"
    y2="27.362761743067345"
    stroke="hsla(0,50%,50%,0.6)"
    stroke-width="1"
    transform="translate(-37.6344086021,-13.6813808715)"
    />
  
</svg>
