<?xml version="1.0"?>
<!DOCTYPE svg PUBLIC "-//W3C//DTD SVG 1.1//EN"
  "http://www.w3.org/Graphics/SVG/1.1/DTD/svg11.dtd">
<svg
  width="240"
  height="240"
  viewBox="-500 -500 1000 1000" xmlns="http://www.w3.org/2000/svg" version="1.1">
  <rect
    x="0"
    y="0"
    width="100"
    height="100"
    fill="hsla(206,100%,53%,0.3)"
    stroke="hsl(206,100%,53%)"
    stroke-width="3"
    transform="" />
  
  <path
    d="M 
      0
      0
      L
    
      38.4615384615
      0
      L
    
      41.2393162393
      2.7777777777
      L
    
      41.2393162393
      34.4086021505
      L
    
      65.5913978494
      34.4086021505
      L
    
      65.5913978494
      37.1863799283
      L
    
      41.2393162393
      37.1863799283
      L
    
      38.4615384615
      34.4086021505
      L
    
      38.4615384615
      2.7777777777
      L
    
      0
      2.7777777777
      z
    "
    fill="hsla(0,0%,50%,0.3)"
    stroke="hsla(0,0%,50%,1)"
    stroke-width="1"
    transform="translate(-32.7956989247,-18.5931899641)"
    />
  
  
  <line
    x1="38.46153846153846"
    y1="0"
    x2="41.23931623931624"
    y2="2.7777777777777777"
    stroke="hsla(0,50%,50%,0.6)"
    stroke-width="1"
    transform="translate(-32.7956989247,-18.5931899641)"
    />
  
  <line
    x1="38.46153846153846"
    y1="34.40860215053763"
    x2="41.23931623931624"
    y2="37.18637992831541"
    stroke="hsla(0,50%,50%,0.6)"
    stroke-width="1"
    transform="translate(-32.7956989247,-18.5931899641)"
    />
  
  <line
    x1="0"
    y1="0"
    x2="38.46153846153846"
    y2="0"
    stroke="hsla(0,50%,50%,0.6)"
    stroke-width="1"
    transform="translate(-32.7956989247,-18.5931899641)"
    />
  
  <line
    x1="0"
    y1="0"
    x2="0"
    y2="2.7777777777777777"
    stroke="hsla(0,50%,50%,0.6)"
    stroke-width="1"
    transform="translate(-32.7956989247,-18.5931899641)"
    />
  
  <line
    x1="38.46153846153846"
    y1="0"
    x2="38.46153846153846"
    y2="34.40860215053763"
    stroke="hsla(0,50%,50%,0.6)"
    stroke-width="1"
    transform="translate(-32.7956989247,-18.5931899641)"
    />
  
  <line
    x1="41.23931623931624"
    y1="2.7777777777777777"
    x2="41.23931623931624"
    y2="37.18637992831541"
    stroke="hsla(0,50%,50%,0.6)"
    stroke-width="1"
    transform="translate(-32.7956989247,-18.5931899641)"
    />
  
  <line
    x1="65.59139784946237"
    y1="34.40860215053763"
    x2="65.59139784946237"
    y2="37.18637992831541"
    stroke="hsla(0,50%,50%,0.6)"
    stroke-width="1"
    transform="translate(-32.7956989247,-18.5931899641)"
    />
  
  <line
    x1="0"
    y1="2.7777777777777777"
    x2="41.23931623931624"
    y2="2.7777777777777777"
    stroke="hsla(0,50%,50%,0.6)"
    stroke-width="1"
    transform="translate(-32.7956989247,-18.5931899641)"
    />
  
  <line
    x1="38.46153846153846"
    y1="34.40860215053763"
    x2="65.59139784946237"
    y2="34.40860215053763"
    stroke="hsla(0,50%,50%,0.6)"
    stroke-width="1"
    transform="translate(-32.7956989247,-18.5931899641)"
    />
  
  <line
    x1="41.23931623931624"
    y1="37.18637992831541"
    x2="65.59139784946237"
    y2="37.18637992831541"
    stroke="hsla(0,50%,50%,0.6)"
    stroke-width="1"
    transform="translate(-32.7956989247,-18.5931899641)"
    />
  
</svg>
