<?xml version="1.0"?>
<!DOCTYPE svg PUBLIC "-//W3C//DTD SVG 1.1//EN"
  "http://www.w3.org/Graphics/SVG/1.1/DTD/svg11.dtd">
<svg
  width="240"
  height="240"
  viewBox="-50 -50 200 200" xmlns="http://www.w3.org/2000/svg" version="1.1">
  <rect
    x="0"
    y="0"
    width="100"
    height="100"
    fill="hsla(206,100%,53%,0.3)"
    stroke="hsl(206,100%,53%)"
    stroke-width="3"
    transform="" />
  
  <path
    d="M 
      97.9705029906
      152.1818880936
      L
    
      105.9456448341
      152.8120567819
      L
    
      116.5993889976
      242.7370077869
      L
    
      110.1578073492
      244.2279070866
      L
    
      108.8329561271
      242.8022761142
      L
    
      83.2464877798
      243.0173022423
      L
    
      62.6444443595
      212.3385721969
      L
    
      70.3429279116
      201.3843603222
      L
    
      62.2682676077
      192.6954708611
      z
    "
    fill="hsla(0,0%,50%,0.3)"
    stroke="hsla(0,0%,50%,1)"
    stroke-width="1"
    transform="translate(-68.5830526107,-202.9161260731) scale(1,-1) translate(50,-110)"
    />
  
  
  <line
    x1="105.94564483419562"
    y1="152.8120567819004"
    x2="116.59938899769752"
    y2="242.73700778699654"
    stroke="hsla(0,50%,50%,0.6)"
    stroke-width="1"
    transform="translate(-68.5830526107,-202.9161260731) scale(1,-1) translate(50,-110)"
    />
  
  <line
    x1="82.14238613923439"
    y1="207.88545347439668"
    x2="90.15286406787355"
    y2="242.95926174481266"
    stroke="hsla(0,50%,50%,0.6)"
    stroke-width="1"
    transform="translate(-68.5830526107,-202.9161260731) scale(1,-1) translate(50,-110)"
    />
  
  <line
    x1="97.97050299067249"
    y1="152.18188809362198"
    x2="101.18121560729085"
    y2="157.25054910946113"
    stroke="hsla(0,50%,50%,0.6)"
    stroke-width="1"
    transform="translate(-68.5830526107,-202.9161260731) scale(1,-1) translate(50,-110)"
    />
  
  <line
    x1="97.0690556257264"
    y1="221.66721848213643"
    x2="96.9179790505687"
    y2="239.66658446731597"
    stroke="hsla(0,50%,50%,0.6)"
    stroke-width="1"
    transform="translate(-68.5830526107,-202.9161260731) scale(1,-1) translate(50,-110)"
    />
  
  <line
    x1="107.97632222336468"
    y1="216.66406593918472"
    x2="114.91412926348335"
    y2="228.5122529304602"
    stroke="hsla(0,50%,50%,0.6)"
    stroke-width="1"
    transform="translate(-68.5830526107,-202.9161260731) scale(1,-1) translate(50,-110)"
    />
  
  <line
    x1="85.47799089150385"
    y1="239.57056362789643"
    x2="87.04436623698342"
    y2="242.98538525055156"
    stroke="hsla(0,50%,50%,0.6)"
    stroke-width="1"
    transform="translate(-68.5830526107,-202.9161260731) scale(1,-1) translate(50,-110)"
    />
  
  <line
    x1="94.13326913512383"
    y1="168.51651973297265"
    x2="110.33601709005738"
    y2="189.86982764099812"
    stroke="hsla(0,50%,50%,0.6)"
    stroke-width="1"
    transform="translate(-68.5830526107,-202.9161260731) scale(1,-1) translate(50,-110)"
    />
  
  <line
    x1="93.46840827874806"
    y1="227.228712070451"
    x2="90.15286406787355"
    y2="242.95926174481266"
    stroke="hsla(0,50%,50%,0.6)"
    stroke-width="1"
    transform="translate(-68.5830526107,-202.9161260731) scale(1,-1) translate(50,-110)"
    />
  
  <line
    x1="62.644444359576106"
    y1="212.33857219693886"
    x2="83.24648777985485"
    y2="243.0173022423167"
    stroke="hsla(0,50%,50%,0.6)"
    stroke-width="1"
    transform="translate(-68.5830526107,-202.9161260731) scale(1,-1) translate(50,-110)"
    />
  
  <line
    x1="114.91412926348335"
    y1="228.5122529304602"
    x2="110.15780734925609"
    y2="244.2279070866846"
    stroke="hsla(0,50%,50%,0.6)"
    stroke-width="1"
    transform="translate(-68.5830526107,-202.9161260731) scale(1,-1) translate(50,-110)"
    />
  
  <line
    x1="62.26826760770039"
    y1="192.69547086111928"
    x2="110.15780734925609"
    y2="244.2279070866846"
    stroke="hsla(0,50%,50%,0.6)"
    stroke-width="1"
    transform="translate(-68.5830526107,-202.9161260731) scale(1,-1) translate(50,-110)"
    />
  
  <line
    x1="110.33601709005738"
    y1="189.86982764099812"
    x2="87.04436623698342"
    y2="242.98538525055156"
    stroke="hsla(0,50%,50%,0.6)"
    stroke-width="1"
    transform="translate(-68.5830526107,-202.9161260731) scale(1,-1) translate(50,-110)"
    />
  
  <line
    x1="104.04386681329757"
    y1="153.4311208813514"
    x2="62.644444359576106"
    y2="212.33857219693886"
    stroke="hsla(0,50%,50%,0.6)"
    stroke-width="1"
    transform="translate(-68.5830526107,-202.9161260731) scale(1,-1) translate(50,-110)"
    />
  
  <line
    x1="104.04386681329757"
    y1="153.4311208813514"
    x2="106.10218798374258"
    y2="154.13338896682566"
    stroke="hsla(0,50%,50%,0.6)"
    stroke-width="1"
    transform="translate(-68.5830526107,-202.9161260731) scale(1,-1) translate(50,-110)"
    />
  
  <line
    x1="97.0690556257264"
    y1="221.66721848213643"
    x2="83.24648777985485"
    y2="243.0173022423167"
    stroke="hsla(0,50%,50%,0.6)"
    stroke-width="1"
    transform="translate(-68.5830526107,-202.9161260731) scale(1,-1) translate(50,-110)"
    />
  
  <line
    x1="97.97050299067249"
    y1="152.18188809362198"
    x2="62.26826760770039"
    y2="192.69547086111928"
    stroke="hsla(0,50%,50%,0.6)"
    stroke-width="1"
    transform="translate(-68.5830526107,-202.9161260731) scale(1,-1) translate(50,-110)"
    />
  
  <line
    x1="97.97050299067249"
    y1="152.18188809362198"
    x2="105.94564483419562"
    y2="152.8120567819004"
    stroke="hsla(0,50%,50%,0.6)"
    stroke-width="1"
    transform="translate(-68.5830526107,-202.9161260731) scale(1,-1) translate(50,-110)"
    />
  
  <line
    x1="94.13326913512383"
    y1="168.51651973297265"
    x2="62.26826760770039"
    y2="192.69547086111928"
    stroke="hsla(0,50%,50%,0.6)"
    stroke-width="1"
    transform="translate(-68.5830526107,-202.9161260731) scale(1,-1) translate(50,-110)"
    />
  
  <line
    x1="106.10218798374258"
    y1="154.13338896682566"
    x2="101.18121560729085"
    y2="157.25054910946113"
    stroke="hsla(0,50%,50%,0.6)"
    stroke-width="1"
    transform="translate(-68.5830526107,-202.9161260731) scale(1,-1) translate(50,-110)"
    />
  
  <line
    x1="105.94564483419562"
    y1="152.8120567819004"
    x2="104.04386681329757"
    y2="153.4311208813514"
    stroke="hsla(0,50%,50%,0.6)"
    stroke-width="1"
    transform="translate(-68.5830526107,-202.9161260731) scale(1,-1) translate(50,-110)"
    />
  
  <line
    x1="107.97632222336468"
    y1="216.66406593918472"
    x2="93.46840827874806"
    y2="227.228712070451"
    stroke="hsla(0,50%,50%,0.6)"
    stroke-width="1"
    transform="translate(-68.5830526107,-202.9161260731) scale(1,-1) translate(50,-110)"
    />
  
  <line
    x1="82.14238613923439"
    y1="207.88545347439668"
    x2="62.644444359576106"
    y2="212.33857219693886"
    stroke="hsla(0,50%,50%,0.6)"
    stroke-width="1"
    transform="translate(-68.5830526107,-202.9161260731) scale(1,-1) translate(50,-110)"
    />
  
  <line
    x1="107.97632222336468"
    y1="216.66406593918472"
    x2="97.0690556257264"
    y2="221.66721848213643"
    stroke="hsla(0,50%,50%,0.6)"
    stroke-width="1"
    transform="translate(-68.5830526107,-202.9161260731) scale(1,-1) translate(50,-110)"
    />
  
  <line
    x1="85.47799089150385"
    y1="239.57056362789643"
    x2="96.9179790505687"
    y2="239.66658446731597"
    stroke="hsla(0,50%,50%,0.6)"
    stroke-width="1"
    transform="translate(-68.5830526107,-202.9161260731) scale(1,-1) translate(50,-110)"
    />
  
  <line
    x1="116.59938899769752"
    y1="242.73700778699654"
    x2="83.24648777985485"
    y2="243.0173022423167"
    stroke="hsla(0,50%,50%,0.6)"
    stroke-width="1"
    transform="translate(-68.5830526107,-202.9161260731) scale(1,-1) translate(50,-110)"
    />
  
  <line
    x1="116.59938899769752"
    y1="242.73700778699654"
    x2="110.15780734925609"
    y2="244.2279070866846"
    stroke="hsla(0,50%,50%,0.6)"
    stroke-width="1"
    transform="translate(-68.5830526107,-202.9161260731) scale(1,-1) translate(50,-110)"
    />
  
</svg>
