<?xml version="1.0"?>
<!DOCTYPE svg PUBLIC "-//W3C//DTD SVG 1.1//EN"
  "http://www.w3.org/Graphics/SVG/1.1/DTD/svg11.dtd">
<svg
  width="240"
  height="240"
  viewBox="-500 -500 1000 1000" xmlns="http://www.w3.org/2000/svg" version="1.1">
  <rect
    x="0"
    y="0"
    width="100"
    height="100"
    fill="hsla(206,100%,53%,0.3)"
    stroke="hsl(206,100%,53%)"
    stroke-width="3"
    transform="" />
  
  <path
    d="M 
      30.2734375
      12.5
      L
    
      69.921875
      12.5
      L
    
      69.921875
      39.84375
      L
    
      54.6875
      39.84375
      L
    
      54.6875
      25
      L
    
      45.703125
      25
      L
    
      45.703125
      39.84375
      L
    
      30.2734375
      39.84375
      z
    "
    fill="hsla(0,0%,50%,0.3)"
    stroke="hsla(0,0%,50%,1)"
    stroke-width="1"
    transform="translate(-50.09765625,-26.171875)"
    />
  
  
  <line
    x1="67.1875"
    y1="12.5"
    x2="69.921875"
    y2="15.234375"
    stroke="hsla(0,50%,50%,0.6)"
    stroke-width="1"
    transform="translate(-50.09765625,-26.171875)"
    />
  
  <line
    x1="33.203125"
    y1="12.5"
    x2="45.703125"
    y2="25"
    stroke="hsla(0,50%,50%,0.6)"
    stroke-width="1"
    transform="translate(-50.09765625,-26.171875)"
    />
  
  <line
    x1="30.2734375"
    y1="15.4296875"
    x2="39.84375"
    y2="25"
    stroke="hsla(0,50%,50%,0.6)"
    stroke-width="1"
    transform="translate(-50.09765625,-26.171875)"
    />
  
  <line
    x1="30.2734375"
    y1="12.5"
    x2="30.2734375"
    y2="39.84375"
    stroke="hsla(0,50%,50%,0.6)"
    stroke-width="1"
    transform="translate(-50.09765625,-26.171875)"
    />
  
  <line
    x1="39.84375"
    y1="12.5"
    x2="39.84375"
    y2="39.84375"
    stroke="hsla(0,50%,50%,0.6)"
    stroke-width="1"
    transform="translate(-50.09765625,-26.171875)"
    />
  
  <line
    x1="45.703125"
    y1="25"
    x2="45.703125"
    y2="39.84375"
    stroke="hsla(0,50%,50%,0.6)"
    stroke-width="1"
    transform="translate(-50.09765625,-26.171875)"
    />
  
  <line
    x1="54.6875"
    y1="25"
    x2="54.6875"
    y2="39.84375"
    stroke="hsla(0,50%,50%,0.6)"
    stroke-width="1"
    transform="translate(-50.09765625,-26.171875)"
    />
  
  <line
    x1="60.15625"
    y1="12.5"
    x2="60.15625"
    y2="39.84375"
    stroke="hsla(0,50%,50%,0.6)"
    stroke-width="1"
    transform="translate(-50.09765625,-26.171875)"
    />
  
  <line
    x1="69.921875"
    y1="12.5"
    x2="69.921875"
    y2="39.84375"
    stroke="hsla(0,50%,50%,0.6)"
    stroke-width="1"
    transform="translate(-50.09765625,-26.171875)"
    />
  
  <line
    x1="30.2734375"
    y1="12.5"
    x2="69.921875"
    y2="12.5"
    stroke="hsla(0,50%,50%,0.6)"
    stroke-width="1"
    transform="translate(-50.09765625,-26.171875)"
    />
  
  <line
    x1="33.203125"
    y1="12.5"
    x2="30.2734375"
    y2="15.4296875"
    stroke="hsla(0,50%,50%,0.6)"
    stroke-width="1"
    transform="translate(-50.09765625,-26.171875)"
    />
  
  <line
    x1="30.2734375"
    y1="25"
    x2="69.921875"
    y2="25"
    stroke="hsla(0,50%,50%,0.6)"
    stroke-width="1"
    transform="translate(-50.09765625,-26.171875)"
    />
  
  <line
    x1="30.2734375"
    y1="39.84375"
    x2="45.703125"
    y2="39.84375"
    stroke="hsla(0,50%,50%,0.6)"
    stroke-width="1"
    transform="translate(-50.09765625,-26.171875)"
    />
  
  <line
    x1="54.6875"
    y1="39.84375"
    x2="69.921875"
    y2="39.84375"
    stroke="hsla(0,50%,50%,0.6)"
    stroke-width="1"
    transform="translate(-50.09765625,-26.171875)"
    />
  
  <line
    x1="67.1875"
    y1="12.5"
    x2="54.6875"
    y2="25"
    stroke="hsla(0,50%,50%,0.6)"
    stroke-width="1"
    transform="translate(-50.09765625,-26.171875)"
    />
  
  <line
    x1="69.921875"
    y1="15.234375"
    x2="60.15625"
    y2="25"
    stroke="hsla(0,50%,50%,0.6)"
    stroke-width="1"
    transform="translate(-50.09765625,-26.171875)"
    />
  
</svg>
