<?xml version="1.0"?>
<!DOCTYPE svg PUBLIC "-//W3C//DTD SVG 1.1//EN"
  "http://www.w3.org/Graphics/SVG/1.1/DTD/svg11.dtd">
<svg
  width="240"
  height="240"
  viewBox="-50 -50 200 200" xmlns="http://www.w3.org/2000/svg" version="1.1">
  <rect
    x="0"
    y="0"
    width="100"
    height="100"
    fill="hsla(206,100%,53%,0.3)"
    stroke="hsl(206,100%,53%)"
    stroke-width="3"
    transform="" />
  
  <path
    d="M 
      -129.9436535714
      588.8607897917
      L
    
      -98.1331106877
      607.3010221882
      L
    
      -113.2060534490
      673.4981568796
      L
    
      -105.1580972862
      676.4376126932
      L
    
      -110.0591715976
      689.8562975486
      L
    
      -117.2912557527
      691.4394899971
      L
    
      -174.8520710059
      633.3949704142
      L
    
      -161.8906734291
      620.5415844838
      L
    
      -165.9144397186
      609.2320947213
      L
    
      -141.8537270113
      600.6716126196
      z
    "
    fill="hsla(0,0%,50%,0.3)"
    stroke="hsla(0,0%,50%,1)"
    stroke-width="1"
    transform="translate(150.6643095618,-612.4369769766) scale(1,-1) translate(50,-110)"
    />
  
  
  <line
    x1="-129.94365357148462"
    y1="588.8607897917223"
    x2="-137.81865497569893"
    y2="618.3307248830082"
    stroke="hsla(0,50%,50%,0.6)"
    stroke-width="1"
    transform="translate(150.6643095618,-612.4369769766) scale(1,-1) translate(50,-110)"
    />
  
  <line
    x1="-98.13311068773295"
    y1="607.3010221882329"
    x2="-117.29125575279421"
    y2="691.4394899971822"
    stroke="hsla(0,50%,50%,0.6)"
    stroke-width="1"
    transform="translate(150.6643095618,-612.4369769766) scale(1,-1) translate(50,-110)"
    />
  
  <line
    x1="-121.84790724200697"
    y1="593.5538075841039"
    x2="-116.34973607827905"
    y2="624.0676824277208"
    stroke="hsla(0,50%,50%,0.6)"
    stroke-width="1"
    transform="translate(150.6643095618,-612.4369769766) scale(1,-1) translate(50,-110)"
    />
  
  <line
    x1="-105.15809728622415"
    y1="676.4376126932586"
    x2="-110.05917159763314"
    y2="689.8562975486052"
    stroke="hsla(0,50%,50%,0.6)"
    stroke-width="1"
    transform="translate(150.6643095618,-612.4369769766) scale(1,-1) translate(50,-110)"
    />
  
  <line
    x1="-165.91443971860286"
    y1="609.232094721307"
    x2="-147.50675015798242"
    y2="660.9700838743034"
    stroke="hsla(0,50%,50%,0.6)"
    stroke-width="1"
    transform="translate(150.6643095618,-612.4369769766) scale(1,-1) translate(50,-110)"
    />
  
  <line
    x1="-129.94365357148462"
    y1="588.8607897917223"
    x2="-174.85207100591717"
    y2="633.3949704142012"
    stroke="hsla(0,50%,50%,0.6)"
    stroke-width="1"
    transform="translate(150.6643095618,-612.4369769766) scale(1,-1) translate(50,-110)"
    />
  
  <line
    x1="-98.13311068773295"
    y1="607.3010221882329"
    x2="-116.34973607827905"
    y2="624.0676824277208"
    stroke="hsla(0,50%,50%,0.6)"
    stroke-width="1"
    transform="translate(150.6643095618,-612.4369769766) scale(1,-1) translate(50,-110)"
    />
  
  <line
    x1="-170.41420118343194"
    y1="628.9940828402367"
    x2="-110.05917159763314"
    y2="689.8562975486052"
    stroke="hsla(0,50%,50%,0.6)"
    stroke-width="1"
    transform="translate(150.6643095618,-612.4369769766) scale(1,-1) translate(50,-110)"
    />
  
  <line
    x1="-174.85207100591717"
    y1="633.3949704142012"
    x2="-117.29125575279421"
    y2="691.4394899971822"
    stroke="hsla(0,50%,50%,0.6)"
    stroke-width="1"
    transform="translate(150.6643095618,-612.4369769766) scale(1,-1) translate(50,-110)"
    />
  
  <line
    x1="-121.84790724200697"
    y1="593.5538075841039"
    x2="-165.91443971860286"
    y2="609.232094721307"
    stroke="hsla(0,50%,50%,0.6)"
    stroke-width="1"
    transform="translate(150.6643095618,-612.4369769766) scale(1,-1) translate(50,-110)"
    />
  
  <line
    x1="-129.94365357148462"
    y1="588.8607897917223"
    x2="-98.13311068773295"
    y2="607.3010221882329"
    stroke="hsla(0,50%,50%,0.6)"
    stroke-width="1"
    transform="translate(150.6643095618,-612.4369769766) scale(1,-1) translate(50,-110)"
    />
  
  <line
    x1="-137.81865497569893"
    y1="618.3307248830082"
    x2="-116.34973607827905"
    y2="624.0676824277208"
    stroke="hsla(0,50%,50%,0.6)"
    stroke-width="1"
    transform="translate(150.6643095618,-612.4369769766) scale(1,-1) translate(50,-110)"
    />
  
  <line
    x1="-147.50675015798242"
    y1="660.9700838743034"
    x2="-105.15809728622415"
    y2="676.4376126932586"
    stroke="hsla(0,50%,50%,0.6)"
    stroke-width="1"
    transform="translate(150.6643095618,-612.4369769766) scale(1,-1) translate(50,-110)"
    />
  
  <line
    x1="-110.05917159763314"
    y1="689.8562975486052"
    x2="-117.29125575279421"
    y2="691.4394899971822"
    stroke="hsla(0,50%,50%,0.6)"
    stroke-width="1"
    transform="translate(150.6643095618,-612.4369769766) scale(1,-1) translate(50,-110)"
    />
  
</svg>
