<?xml version="1.0"?>
<!DOCTYPE svg PUBLIC "-//W3C//DTD SVG 1.1//EN"
  "http://www.w3.org/Graphics/SVG/1.1/DTD/svg11.dtd">
<svg
  width="240"
  height="240"
  viewBox="-50 -50 200 200" xmlns="http://www.w3.org/2000/svg" version="1.1">
  <rect
    x="0"
    y="0"
    width="100"
    height="100"
    fill="hsla(206,100%,53%,0.3)"
    stroke="hsl(206,100%,53%)"
    stroke-width="3"
    transform="" />
  
  <path
    d="M 
      101.8900676322
      23.8777602825
      L
    
      149.1038257732
      33.1524720134
      L
    
      138.9566657120
      102.6391264349
      L
    
      98.5213496248
      100
      L
    
      99.9729743742
      55.4706064785
      L
    
      92.5277700440
      54.2453598699
      L
    
      94.8011508685
      40.4311736968
      L
    
      99.2232495799
      28.5152434406
      z
    "
    fill="hsla(0,0%,50%,0.3)"
    stroke="hsla(0,0%,50%,1)"
    stroke-width="1"
    transform="translate(-98.3370745307,-39.7872830735) scale(1,-1) translate(50,-110)"
    />
  
  
  <line
    x1="107.35461612289782"
    y1="24.951220942855063"
    x2="138.09308688671828"
    y2="82.20628994673865"
    stroke="hsla(0,50%,50%,0.6)"
    stroke-width="1"
    transform="translate(-98.3370745307,-39.7872830735) scale(1,-1) translate(50,-110)"
    />
  
  <line
    x1="97.53837103721196"
    y1="33.05537167282499"
    x2="97.92499885519345"
    y2="35.30852069701719"
    stroke="hsla(0,50%,50%,0.6)"
    stroke-width="1"
    transform="translate(-98.3370745307,-39.7872830735) scale(1,-1) translate(50,-110)"
    />
  
  <line
    x1="101.8900676322364"
    y1="23.877760282526374"
    x2="111.66140274840966"
    y2="96.39664137341889"
    stroke="hsla(0,50%,50%,0.6)"
    stroke-width="1"
    transform="translate(-98.3370745307,-39.7872830735) scale(1,-1) translate(50,-110)"
    />
  
  <line
    x1="100"
    y1="54.641580432737534"
    x2="100"
    y2="100"
    stroke="hsla(0,50%,50%,0.6)"
    stroke-width="1"
    transform="translate(-98.3370745307,-39.7872830735) scale(1,-1) translate(50,-110)"
    />
  
  <line
    x1="100"
    y1="54.641580432737534"
    x2="98.52134962482037"
    y2="100"
    stroke="hsla(0,50%,50%,0.6)"
    stroke-width="1"
    transform="translate(-98.3370745307,-39.7872830735) scale(1,-1) translate(50,-110)"
    />
  
  <line
    x1="101.8900676322364"
    y1="23.877760282526374"
    x2="149.10382577323193"
    y2="33.152472013467126"
    stroke="hsla(0,50%,50%,0.6)"
    stroke-width="1"
    transform="translate(-98.3370745307,-39.7872830735) scale(1,-1) translate(50,-110)"
    />
  
  <line
    x1="102.00639712713541"
    y1="23.90061214972517"
    x2="100"
    y2="54.641580432737534"
    stroke="hsla(0,50%,50%,0.6)"
    stroke-width="1"
    transform="translate(-98.3370745307,-39.7872830735) scale(1,-1) translate(50,-110)"
    />
  
  <line
    x1="94.44607331359947"
    y1="46.505003461156875"
    x2="141.86414923390294"
    y2="62.36457710032948"
    stroke="hsla(0,50%,50%,0.6)"
    stroke-width="1"
    transform="translate(-98.3370745307,-39.7872830735) scale(1,-1) translate(50,-110)"
    />
  
  <line
    x1="94.80115086853746"
    y1="40.43117369680796"
    x2="92.52777004403696"
    y2="54.245359869970436"
    stroke="hsla(0,50%,50%,0.6)"
    stroke-width="1"
    transform="translate(-98.3370745307,-39.7872830735) scale(1,-1) translate(50,-110)"
    />
  
  <line
    x1="99.22324957990783"
    y1="28.515243440685175"
    x2="97.92499885519345"
    y2="35.30852069701719"
    stroke="hsla(0,50%,50%,0.6)"
    stroke-width="1"
    transform="translate(-98.3370745307,-39.7872830735) scale(1,-1) translate(50,-110)"
    />
  
  <line
    x1="149.10382577323193"
    y1="33.152472013467126"
    x2="138.95666571208707"
    y2="102.63912643497102"
    stroke="hsla(0,50%,50%,0.6)"
    stroke-width="1"
    transform="translate(-98.3370745307,-39.7872830735) scale(1,-1) translate(50,-110)"
    />
  
  <line
    x1="102.00639712713541"
    y1="23.90061214972517"
    x2="94.44607331359947"
    y2="46.505003461156875"
    stroke="hsla(0,50%,50%,0.6)"
    stroke-width="1"
    transform="translate(-98.3370745307,-39.7872830735) scale(1,-1) translate(50,-110)"
    />
  
  <line
    x1="99.22324957990783"
    y1="28.515243440685175"
    x2="94.80115086853746"
    y2="40.43117369680796"
    stroke="hsla(0,50%,50%,0.6)"
    stroke-width="1"
    transform="translate(-98.3370745307,-39.7872830735) scale(1,-1) translate(50,-110)"
    />
  
  <line
    x1="149.10382577323193"
    y1="33.152472013467126"
    x2="141.86414923390294"
    y2="62.36457710032948"
    stroke="hsla(0,50%,50%,0.6)"
    stroke-width="1"
    transform="translate(-98.3370745307,-39.7872830735) scale(1,-1) translate(50,-110)"
    />
  
  <line
    x1="92.52777004403696"
    y1="54.245359869970436"
    x2="141.86414923390294"
    y2="62.36457710032948"
    stroke="hsla(0,50%,50%,0.6)"
    stroke-width="1"
    transform="translate(-98.3370745307,-39.7872830735) scale(1,-1) translate(50,-110)"
    />
  
  <line
    x1="101.8900676322364"
    y1="23.877760282526374"
    x2="99.22324957990783"
    y2="28.515243440685175"
    stroke="hsla(0,50%,50%,0.6)"
    stroke-width="1"
    transform="translate(-98.3370745307,-39.7872830735) scale(1,-1) translate(50,-110)"
    />
  
  <line
    x1="97.92499885519345"
    y1="35.30852069701719"
    x2="94.80115086853746"
    y2="40.43117369680796"
    stroke="hsla(0,50%,50%,0.6)"
    stroke-width="1"
    transform="translate(-98.3370745307,-39.7872830735) scale(1,-1) translate(50,-110)"
    />
  
  <line
    x1="111.66140274840966"
    y1="96.39664137341889"
    x2="138.95666571208707"
    y2="102.63912643497102"
    stroke="hsla(0,50%,50%,0.6)"
    stroke-width="1"
    transform="translate(-98.3370745307,-39.7872830735) scale(1,-1) translate(50,-110)"
    />
  
  <line
    x1="107.35461612289782"
    y1="24.951220942855063"
    x2="97.53837103721196"
    y2="33.05537167282499"
    stroke="hsla(0,50%,50%,0.6)"
    stroke-width="1"
    transform="translate(-98.3370745307,-39.7872830735) scale(1,-1) translate(50,-110)"
    />
  
  <line
    x1="98.52134962482037"
    y1="100"
    x2="138.95666571208707"
    y2="102.63912643497102"
    stroke="hsla(0,50%,50%,0.6)"
    stroke-width="1"
    transform="translate(-98.3370745307,-39.7872830735) scale(1,-1) translate(50,-110)"
    />
  
  <line
    x1="98.52134962482037"
    y1="100"
    x2="100"
    y2="100"
    stroke="hsla(0,50%,50%,0.6)"
    stroke-width="1"
    transform="translate(-98.3370745307,-39.7872830735) scale(1,-1) translate(50,-110)"
    />
  
  <line
    x1="138.09308688671828"
    y1="82.20628994673865"
    x2="111.66140274840966"
    y2="96.39664137341889"
    stroke="hsla(0,50%,50%,0.6)"
    stroke-width="1"
    transform="translate(-98.3370745307,-39.7872830735) scale(1,-1) translate(50,-110)"
    />
  
</svg>
