<?xml version="1.0"?>
<!DOCTYPE svg PUBLIC "-//W3C//DTD SVG 1.1//EN"
  "http://www.w3.org/Graphics/SVG/1.1/DTD/svg11.dtd">
<svg
  width="240"
  height="240"
  viewBox="-50 -50 200 200" xmlns="http://www.w3.org/2000/svg" version="1.1">
  <rect
    x="0"
    y="0"
    width="100"
    height="100"
    fill="hsla(206,100%,53%,0.3)"
    stroke="hsl(206,100%,53%)"
    stroke-width="3"
    transform="" />
  
  <path
    d="M 
      131.4346080023
      -19.6517348294
      L
    
      146.6998375904
      -5.2304739406
      L
    
      119.2307692307
      23.8461538461
      L
    
      96.6269786082
      17.9748349727
      L
    
      64.7745649174
      77.5724576552
      L
    
      64.3009480708
      77.4121857531
      L
    
      64.3556764873
      77.2504587146
      L
    
      61.2068395730
      74.8299522556
      L
    
      70.9705093833
      11.3105849582
      L
    
      116.0426475458
      -18.3529523875
      z
    "
    fill="hsla(0,0%,50%,0.3)"
    stroke="hsla(0,0%,50%,1)"
    stroke-width="1"
    transform="translate(-92.2224178516,-11.6492475757) scale(1,-1) translate(50,-110)"
    />
  
  
  <line
    x1="131.43460800236232"
    y1="-19.651734829469955"
    x2="146.6998375904326"
    y2="-5.230473940646686"
    stroke="hsla(0,50%,50%,0.6)"
    stroke-width="1"
    transform="translate(-92.2224178516,-11.6492475757) scale(1,-1) translate(50,-110)"
    />
  
  <line
    x1="120.95674623874312"
    y1="-18.767606850722093"
    x2="126.0205317770751"
    y2="-12.46231352961697"
    stroke="hsla(0,50%,50%,0.6)"
    stroke-width="1"
    transform="translate(-92.2224178516,-11.6492475757) scale(1,-1) translate(50,-110)"
    />
  
  <line
    x1="109.59176988769562"
    y1="-14.107406067198495"
    x2="112.55583485372492"
    y2="-11.828933542123155"
    stroke="hsla(0,50%,50%,0.6)"
    stroke-width="1"
    transform="translate(-92.2224178516,-11.6492475757) scale(1,-1) translate(50,-110)"
    />
  
  <line
    x1="108.31190144958258"
    y1="-13.265080258851734"
    x2="112.55583485372492"
    y2="-11.828933542123155"
    stroke="hsla(0,50%,50%,0.6)"
    stroke-width="1"
    transform="translate(-92.2224178516,-11.6492475757) scale(1,-1) translate(50,-110)"
    />
  
  <line
    x1="109.59176988769562"
    y1="-14.107406067198495"
    x2="119.23076923076923"
    y2="23.846153846153847"
    stroke="hsla(0,50%,50%,0.6)"
    stroke-width="1"
    transform="translate(-92.2224178516,-11.6492475757) scale(1,-1) translate(50,-110)"
    />
  
  <line
    x1="126.0205317770751"
    y1="-12.46231352961697"
    x2="106.63297807540137"
    y2="-12.160122556797239"
    stroke="hsla(0,50%,50%,0.6)"
    stroke-width="1"
    transform="translate(-92.2224178516,-11.6492475757) scale(1,-1) translate(50,-110)"
    />
  
  <line
    x1="91.16795175477296"
    y1="-1.9820523671511305"
    x2="107.29879403432814"
    y2="-0.6831804787022624"
    stroke="hsla(0,50%,50%,0.6)"
    stroke-width="1"
    transform="translate(-92.2224178516,-11.6492475757) scale(1,-1) translate(50,-110)"
    />
  
  <line
    x1="131.43460800236232"
    y1="-19.651734829469955"
    x2="116.04264754588054"
    y2="-18.35295238755924"
    stroke="hsla(0,50%,50%,0.6)"
    stroke-width="1"
    transform="translate(-92.2224178516,-11.6492475757) scale(1,-1) translate(50,-110)"
    />
  
  <line
    x1="70.97050938337802"
    y1="11.31058495821727"
    x2="119.23076923076923"
    y2="23.846153846153847"
    stroke="hsla(0,50%,50%,0.6)"
    stroke-width="1"
    transform="translate(-92.2224178516,-11.6492475757) scale(1,-1) translate(50,-110)"
    />
  
  <line
    x1="64.13541609932406"
    y1="55.777553757333266"
    x2="65.90314528196735"
    y2="73.11393573816585"
    stroke="hsla(0,50%,50%,0.6)"
    stroke-width="1"
    transform="translate(-92.2224178516,-11.6492475757) scale(1,-1) translate(50,-110)"
    />
  
  <line
    x1="88.15633054803006"
    y1="0"
    x2="100"
    y2="0"
    stroke="hsla(0,50%,50%,0.6)"
    stroke-width="1"
    transform="translate(-92.2224178516,-11.6492475757) scale(1,-1) translate(50,-110)"
    />
  
  <line
    x1="100"
    y1="0"
    x2="100"
    y2="18.850974930362117"
    stroke="hsla(0,50%,50%,0.6)"
    stroke-width="1"
    transform="translate(-92.2224178516,-11.6492475757) scale(1,-1) translate(50,-110)"
    />
  
  <line
    x1="108.31190144958258"
    y1="-13.265080258851734"
    x2="107.29879403432814"
    y2="-0.6831804787022624"
    stroke="hsla(0,50%,50%,0.6)"
    stroke-width="1"
    transform="translate(-92.2224178516,-11.6492475757) scale(1,-1) translate(50,-110)"
    />
  
  <line
    x1="70.97050938337802"
    y1="11.31058495821727"
    x2="61.2068395730257"
    y2="74.82995225561608"
    stroke="hsla(0,50%,50%,0.6)"
    stroke-width="1"
    transform="translate(-92.2224178516,-11.6492475757) scale(1,-1) translate(50,-110)"
    />
  
  <line
    x1="61.2068395730257"
    y1="74.82995225561608"
    x2="64.77456491741253"
    y2="77.57245765524976"
    stroke="hsla(0,50%,50%,0.6)"
    stroke-width="1"
    transform="translate(-92.2224178516,-11.6492475757) scale(1,-1) translate(50,-110)"
    />
  
  <line
    x1="91.16795175477296"
    y1="-1.9820523671511305"
    x2="64.3009480708111"
    y2="77.41218575311055"
    stroke="hsla(0,50%,50%,0.6)"
    stroke-width="1"
    transform="translate(-92.2224178516,-11.6492475757) scale(1,-1) translate(50,-110)"
    />
  
  <line
    x1="88.15633054803006"
    y1="0"
    x2="64.13541609932406"
    y2="55.777553757333266"
    stroke="hsla(0,50%,50%,0.6)"
    stroke-width="1"
    transform="translate(-92.2224178516,-11.6492475757) scale(1,-1) translate(50,-110)"
    />
  
  <line
    x1="106.63297807540137"
    y1="-12.160122556797239"
    x2="74.46838763382645"
    y2="59.43478073659006"
    stroke="hsla(0,50%,50%,0.6)"
    stroke-width="1"
    transform="translate(-92.2224178516,-11.6492475757) scale(1,-1) translate(50,-110)"
    />
  
  <line
    x1="116.04264754588054"
    y1="-18.35295238755924"
    x2="70.97050938337802"
    y2="11.31058495821727"
    stroke="hsla(0,50%,50%,0.6)"
    stroke-width="1"
    transform="translate(-92.2224178516,-11.6492475757) scale(1,-1) translate(50,-110)"
    />
  
  <line
    x1="116.04264754588054"
    y1="-18.35295238755924"
    x2="64.77456491741253"
    y2="77.57245765524976"
    stroke="hsla(0,50%,50%,0.6)"
    stroke-width="1"
    transform="translate(-92.2224178516,-11.6492475757) scale(1,-1) translate(50,-110)"
    />
  
  <line
    x1="120.95674623874312"
    y1="-18.767606850722093"
    x2="100"
    y2="18.850974930362117"
    stroke="hsla(0,50%,50%,0.6)"
    stroke-width="1"
    transform="translate(-92.2224178516,-11.6492475757) scale(1,-1) translate(50,-110)"
    />
  
  <line
    x1="64.3009480708111"
    y1="77.41218575311055"
    x2="64.77456491741253"
    y2="77.57245765524976"
    stroke="hsla(0,50%,50%,0.6)"
    stroke-width="1"
    transform="translate(-92.2224178516,-11.6492475757) scale(1,-1) translate(50,-110)"
    />
  
  <line
    x1="74.46838763382645"
    y1="59.43478073659006"
    x2="65.90314528196735"
    y2="73.11393573816585"
    stroke="hsla(0,50%,50%,0.6)"
    stroke-width="1"
    transform="translate(-92.2224178516,-11.6492475757) scale(1,-1) translate(50,-110)"
    />
  
  <line
    x1="131.43460800236232"
    y1="-19.651734829469955"
    x2="126.0205317770751"
    y2="-12.46231352961697"
    stroke="hsla(0,50%,50%,0.6)"
    stroke-width="1"
    transform="translate(-92.2224178516,-11.6492475757) scale(1,-1) translate(50,-110)"
    />
  
  <line
    x1="146.6998375904326"
    y1="-5.230473940646686"
    x2="119.23076923076923"
    y2="23.846153846153847"
    stroke="hsla(0,50%,50%,0.6)"
    stroke-width="1"
    transform="translate(-92.2224178516,-11.6492475757) scale(1,-1) translate(50,-110)"
    />
  
  <line
    x1="65.90314528196735"
    y1="73.11393573816585"
    x2="61.2068395730257"
    y2="74.82995225561608"
    stroke="hsla(0,50%,50%,0.6)"
    stroke-width="1"
    transform="translate(-92.2224178516,-11.6492475757) scale(1,-1) translate(50,-110)"
    />
  
</svg>
