<?xml version="1.0"?>
<!DOCTYPE svg PUBLIC "-//W3C//DTD SVG 1.1//EN"
  "http://www.w3.org/Graphics/SVG/1.1/DTD/svg11.dtd">
<svg
  width="240"
  height="240"
  viewBox="-500 -500 1000 1000" xmlns="http://www.w3.org/2000/svg" version="1.1">
  <rect
    x="0"
    y="0"
    width="100"
    height="100"
    fill="hsla(206,100%,53%,0.3)"
    stroke="hsl(206,100%,53%)"
    stroke-width="3"
    transform="" />
  
  <path
    d="M 
      -110.0103626943
      586.3393782383
      L
    
      -86.4421052631
      591.8789473684
      L
    
      -72.7179487179
      587.8760683760
      L
    
      -52.8550368550
      620.2174447174
      L
    
      -97.7083177918
      667.5104438642
      L
    
      -93.0362694300
      672.0621761658
      L
    
      -104.6666666666
      684
      L
    
      -111.6875
      682.25
      L
    
      -134
      605.75
      L
    
      -113.1428571428
      599.6666666666
      z
    "
    fill="hsla(0,0%,50%,0.3)"
    stroke="hsla(0,0%,50%,1)"
    stroke-width="1"
    transform="translate(93.4275184275,-635.1696891191)"
    />
  
  
  <line
    x1="-110.01036269430051"
    y1="586.339378238342"
    x2="-123.2421052631579"
    y2="642.6342105263158"
    stroke="hsla(0,50%,50%,0.6)"
    stroke-width="1"
    transform="translate(93.4275184275,-635.1696891191)"
    />
  
  <line
    x1="-67.52936928261916"
    y1="596.3242657679345"
    x2="-74.93543125127438"
    y2="626.7985794875281"
    stroke="hsla(0,50%,50%,0.6)"
    stroke-width="1"
    transform="translate(93.4275184275,-635.1696891191)"
    />
  
  <line
    x1="-128"
    y1="604"
    x2="-104.66666666666667"
    y2="684"
    stroke="hsla(0,50%,50%,0.6)"
    stroke-width="1"
    transform="translate(93.4275184275,-635.1696891191)"
    />
  
  <line
    x1="-134"
    y1="605.75"
    x2="-111.6875"
    y2="682.25"
    stroke="hsla(0,50%,50%,0.6)"
    stroke-width="1"
    transform="translate(93.4275184275,-635.1696891191)"
    />
  
  <line
    x1="-72.71794871794872"
    y1="587.8760683760684"
    x2="-52.85503685503686"
    y2="620.2174447174447"
    stroke="hsla(0,50%,50%,0.6)"
    stroke-width="1"
    transform="translate(93.4275184275,-635.1696891191)"
    />
  
  <line
    x1="-72.71794871794872"
    y1="587.8760683760684"
    x2="-93.17555902942975"
    y2="609.7018622986475"
    stroke="hsla(0,50%,50%,0.6)"
    stroke-width="1"
    transform="translate(93.4275184275,-635.1696891191)"
    />
  
  <line
    x1="-52.85503685503686"
    y1="620.2174447174447"
    x2="-111.6875"
    y2="682.25"
    stroke="hsla(0,50%,50%,0.6)"
    stroke-width="1"
    transform="translate(93.4275184275,-635.1696891191)"
    />
  
  <line
    x1="-93.03626943005182"
    y1="672.0621761658031"
    x2="-104.66666666666667"
    y2="684"
    stroke="hsla(0,50%,50%,0.6)"
    stroke-width="1"
    transform="translate(93.4275184275,-635.1696891191)"
    />
  
  <line
    x1="-93.17555902942975"
    y1="609.7018622986475"
    x2="-74.93543125127438"
    y2="626.7985794875281"
    stroke="hsla(0,50%,50%,0.6)"
    stroke-width="1"
    transform="translate(93.4275184275,-635.1696891191)"
    />
  
  <line
    x1="-123.2421052631579"
    y1="642.6342105263158"
    x2="-93.03626943005182"
    y2="672.0621761658031"
    stroke="hsla(0,50%,50%,0.6)"
    stroke-width="1"
    transform="translate(93.4275184275,-635.1696891191)"
    />
  
  <line
    x1="-72.71794871794872"
    y1="587.8760683760684"
    x2="-134"
    y2="605.75"
    stroke="hsla(0,50%,50%,0.6)"
    stroke-width="1"
    transform="translate(93.4275184275,-635.1696891191)"
    />
  
  <line
    x1="-52.85503685503686"
    y1="620.2174447174447"
    x2="-74.93543125127438"
    y2="626.7985794875281"
    stroke="hsla(0,50%,50%,0.6)"
    stroke-width="1"
    transform="translate(93.4275184275,-635.1696891191)"
    />
  
  <line
    x1="-110.01036269430051"
    y1="586.339378238342"
    x2="-67.52936928261916"
    y2="596.3242657679345"
    stroke="hsla(0,50%,50%,0.6)"
    stroke-width="1"
    transform="translate(93.4275184275,-635.1696891191)"
    />
  
  <line
    x1="-111.6875"
    y1="682.25"
    x2="-104.66666666666667"
    y2="684"
    stroke="hsla(0,50%,50%,0.6)"
    stroke-width="1"
    transform="translate(93.4275184275,-635.1696891191)"
    />
  
</svg>
