<?xml version="1.0"?>
<!DOCTYPE svg PUBLIC "-//W3C//DTD SVG 1.1//EN"
  "http://www.w3.org/Graphics/SVG/1.1/DTD/svg11.dtd">
<svg
  width="240"
  height="240"
  viewBox="-50 -50 200 200" xmlns="http://www.w3.org/2000/svg" version="1.1">
  <rect
    x="0"
    y="0"
    width="100"
    height="100"
    fill="hsla(206,100%,53%,0.3)"
    stroke="hsl(206,100%,53%)"
    stroke-width="3"
    transform="" />
  
  <path
    d="M 
      -19.04
      640.97
      L
    
      -12.7883636363
      650.7753939393
      L
    
      -4.3010404624
      648.4967630057
      L
    
      2.9292307692
      675.4276923076
      L
    
      15.4343698854
      695.0414075286
      L
    
      -6.7821156814
      719.6241187687
      L
    
      -76.7064719396
      692.4660846734
      L
    
      -83.9061271676
      701.0501734104
      L
    
      -91.568
      694.624
      L
    
      -91.0633333333
      686.89
      z
    "
    fill="hsla(0,0%,50%,0.3)"
    stroke="hsla(0,0%,50%,1)"
    stroke-width="1"
    transform="translate(83.7329472410,-691.6925872217) scale(1,-1) translate(50,-110)"
    />
  
  
  <line
    x1="-91.06333333333333"
    y1="686.89"
    x2="-91.568"
    y2="694.624"
    stroke="hsla(0,50%,50%,0.6)"
    stroke-width="1"
    transform="translate(83.7329472410,-691.6925872217) scale(1,-1) translate(50,-110)"
    />
  
  <line
    x1="-4.301040462427745"
    y1="648.4967630057804"
    x2="9.85305313915225"
    y2="701.2171772065292"
    stroke="hsla(0,50%,50%,0.6)"
    stroke-width="1"
    transform="translate(83.7329472410,-691.6925872217) scale(1,-1) translate(50,-110)"
    />
  
  <line
    x1="-11.02316861123909"
    y1="681.7164522531722"
    x2="-18.51998967322052"
    y2="696.6018629543389"
    stroke="hsla(0,50%,50%,0.6)"
    stroke-width="1"
    transform="translate(83.7329472410,-691.6925872217) scale(1,-1) translate(50,-110)"
    />
  
  <line
    x1="-18.51998967322052"
    y1="696.6018629543389"
    x2="-6.782115681467356"
    y2="719.6241187687278"
    stroke="hsla(0,50%,50%,0.6)"
    stroke-width="1"
    transform="translate(83.7329472410,-691.6925872217) scale(1,-1) translate(50,-110)"
    />
  
  <line
    x1="-19.04"
    y1="640.97"
    x2="15.434369885433716"
    y2="695.0414075286416"
    stroke="hsla(0,50%,50%,0.6)"
    stroke-width="1"
    transform="translate(83.7329472410,-691.6925872217) scale(1,-1) translate(50,-110)"
    />
  
  <line
    x1="-50.15326923076923"
    y1="660.8069230769231"
    x2="-83.90612716763006"
    y2="701.0501734104046"
    stroke="hsla(0,50%,50%,0.6)"
    stroke-width="1"
    transform="translate(83.7329472410,-691.6925872217) scale(1,-1) translate(50,-110)"
    />
  
  <line
    x1="15.434369885433716"
    y1="695.0414075286416"
    x2="-6.782115681467356"
    y2="719.6241187687278"
    stroke="hsla(0,50%,50%,0.6)"
    stroke-width="1"
    transform="translate(83.7329472410,-691.6925872217) scale(1,-1) translate(50,-110)"
    />
  
  <line
    x1="-19.04"
    y1="640.97"
    x2="-91.06333333333333"
    y2="686.89"
    stroke="hsla(0,50%,50%,0.6)"
    stroke-width="1"
    transform="translate(83.7329472410,-691.6925872217) scale(1,-1) translate(50,-110)"
    />
  
  <line
    x1="-15.68"
    y1="646.24"
    x2="-91.568"
    y2="694.624"
    stroke="hsla(0,50%,50%,0.6)"
    stroke-width="1"
    transform="translate(83.7329472410,-691.6925872217) scale(1,-1) translate(50,-110)"
    />
  
  <line
    x1="-91.568"
    y1="694.624"
    x2="-83.90612716763006"
    y2="701.0501734104046"
    stroke="hsla(0,50%,50%,0.6)"
    stroke-width="1"
    transform="translate(83.7329472410,-691.6925872217) scale(1,-1) translate(50,-110)"
    />
  
  <line
    x1="-11.02316861123909"
    y1="681.7164522531722"
    x2="15.434369885433716"
    y2="695.0414075286416"
    stroke="hsla(0,50%,50%,0.6)"
    stroke-width="1"
    transform="translate(83.7329472410,-691.6925872217) scale(1,-1) translate(50,-110)"
    />
  
  <line
    x1="-4.301040462427745"
    y1="648.4967630057804"
    x2="-50.15326923076923"
    y2="660.8069230769231"
    stroke="hsla(0,50%,50%,0.6)"
    stroke-width="1"
    transform="translate(83.7329472410,-691.6925872217) scale(1,-1) translate(50,-110)"
    />
  
  <line
    x1="-91.06333333333333"
    y1="686.89"
    x2="-6.782115681467356"
    y2="719.6241187687278"
    stroke="hsla(0,50%,50%,0.6)"
    stroke-width="1"
    transform="translate(83.7329472410,-691.6925872217) scale(1,-1) translate(50,-110)"
    />
  
  <line
    x1="-18.51998967322052"
    y1="696.6018629543389"
    x2="9.85305313915225"
    y2="701.2171772065292"
    stroke="hsla(0,50%,50%,0.6)"
    stroke-width="1"
    transform="translate(83.7329472410,-691.6925872217) scale(1,-1) translate(50,-110)"
    />
  
</svg>
