<?xml version="1.0"?>
<!DOCTYPE svg PUBLIC "-//W3C//DTD SVG 1.1//EN"
  "http://www.w3.org/Graphics/SVG/1.1/DTD/svg11.dtd">
<svg
  width="240"
  height="240"
  viewBox="-50 -50 200 200" xmlns="http://www.w3.org/2000/svg" version="1.1">
  <rect
    x="0"
    y="0"
    width="100"
    height="100"
    fill="hsla(206,100%,53%,0.3)"
    stroke="hsl(206,100%,53%)"
    stroke-width="3"
    transform="" />
  
  <path
    d="M 
      -143.3983255604
      592.8733213462
      L
    
      -112.0518140268
      605.8270694408
      L
    
      -115.3698074328
      679.2831907482
      L
    
      -105.2709701227
      682.6377945498
      L
    
      -108.7736385033
      693.1823715607
      L
    
      -116.0980698142
      695.4059864532
      L
    
      -182.7976625273
      643.5765157048
      L
    
      -174.5777718750
      632.9982992820
      L
    
      -179.7858843847
      624.8785798126
      L
    
      -156.8233641142
      610.1500673898
      z
    "
    fill="hsla(0,0%,50%,0.3)"
    stroke="hsla(0,0%,50%,1)"
    stroke-width="1"
    transform="translate(163.7049001472,-623.5331793567) scale(1,-1) translate(50,-110)"
    />
  
  
  <line
    x1="-143.39832556048773"
    y1="592.8733213462943"
    x2="-147.02671754554268"
    y2="622.1880869374083"
    stroke="hsla(0,50%,50%,0.6)"
    stroke-width="1"
    transform="translate(163.7049001472,-623.5331793567) scale(1,-1) translate(50,-110)"
    />
  
  <line
    x1="-112.05181402681191"
    y1="605.8270694408445"
    x2="-116.09806981428603"
    y2="695.4059864532837"
    stroke="hsla(0,50%,50%,0.6)"
    stroke-width="1"
    transform="translate(163.7049001472,-623.5331793567) scale(1,-1) translate(50,-110)"
    />
  
  <line
    x1="-105.270970122782"
    y1="682.6377945498358"
    x2="-108.77363850336823"
    y2="693.18237156075"
    stroke="hsla(0,50%,50%,0.6)"
    stroke-width="1"
    transform="translate(163.7049001472,-623.5331793567) scale(1,-1) translate(50,-110)"
    />
  
  <line
    x1="-135.1817167477934"
    y1="596.2687830912722"
    x2="-128.982590997982"
    y2="624.4214721554819"
    stroke="hsla(0,50%,50%,0.6)"
    stroke-width="1"
    transform="translate(163.7049001472,-623.5331793567) scale(1,-1) translate(50,-110)"
    />
  
  <line
    x1="-143.39832556048773"
    y1="592.8733213462943"
    x2="-182.79766252739225"
    y2="643.5765157048941"
    stroke="hsla(0,50%,50%,0.6)"
    stroke-width="1"
    transform="translate(163.7049001472,-623.5331793567) scale(1,-1) translate(50,-110)"
    />
  
  <line
    x1="-112.05181402681191"
    y1="605.8270694408445"
    x2="-128.982590997982"
    y2="624.4214721554819"
    stroke="hsla(0,50%,50%,0.6)"
    stroke-width="1"
    transform="translate(163.7049001472,-623.5331793567) scale(1,-1) translate(50,-110)"
    />
  
  <line
    x1="-179.78588438476257"
    y1="624.8785798126761"
    x2="-152.8825269183001"
    y2="666.8223195084439"
    stroke="hsla(0,50%,50%,0.6)"
    stroke-width="1"
    transform="translate(163.7049001472,-623.5331793567) scale(1,-1) translate(50,-110)"
    />
  
  <line
    x1="-135.1817167477934"
    y1="596.2687830912722"
    x2="-179.78588438476257"
    y2="624.8785798126761"
    stroke="hsla(0,50%,50%,0.6)"
    stroke-width="1"
    transform="translate(163.7049001472,-623.5331793567) scale(1,-1) translate(50,-110)"
    />
  
  <line
    x1="-178.9627465303141"
    y1="638.6413440467494"
    x2="-108.77363850336823"
    y2="693.18237156075"
    stroke="hsla(0,50%,50%,0.6)"
    stroke-width="1"
    transform="translate(163.7049001472,-623.5331793567) scale(1,-1) translate(50,-110)"
    />
  
  <line
    x1="-182.79766252739225"
    y1="643.5765157048941"
    x2="-116.09806981428603"
    y2="695.4059864532837"
    stroke="hsla(0,50%,50%,0.6)"
    stroke-width="1"
    transform="translate(163.7049001472,-623.5331793567) scale(1,-1) translate(50,-110)"
    />
  
  <line
    x1="-143.39832556048773"
    y1="592.8733213462943"
    x2="-112.05181402681191"
    y2="605.8270694408445"
    stroke="hsla(0,50%,50%,0.6)"
    stroke-width="1"
    transform="translate(163.7049001472,-623.5331793567) scale(1,-1) translate(50,-110)"
    />
  
  <line
    x1="-108.77363850336823"
    y1="693.18237156075"
    x2="-116.09806981428603"
    y2="695.4059864532837"
    stroke="hsla(0,50%,50%,0.6)"
    stroke-width="1"
    transform="translate(163.7049001472,-623.5331793567) scale(1,-1) translate(50,-110)"
    />
  
  <line
    x1="-147.02671754554268"
    y1="622.1880869374083"
    x2="-128.982590997982"
    y2="624.4214721554819"
    stroke="hsla(0,50%,50%,0.6)"
    stroke-width="1"
    transform="translate(163.7049001472,-623.5331793567) scale(1,-1) translate(50,-110)"
    />
  
  <line
    x1="-152.8825269183001"
    y1="666.8223195084439"
    x2="-105.270970122782"
    y2="682.6377945498358"
    stroke="hsla(0,50%,50%,0.6)"
    stroke-width="1"
    transform="translate(163.7049001472,-623.5331793567) scale(1,-1) translate(50,-110)"
    />
  
</svg>
