<?xml version="1.0"?>
<!DOCTYPE svg PUBLIC "-//W3C//DTD SVG 1.1//EN"
  "http://www.w3.org/Graphics/SVG/1.1/DTD/svg11.dtd">
<svg
  width="240"
  height="240"
  viewBox="-500 -500 1000 1000" xmlns="http://www.w3.org/2000/svg" version="1.1">
  <rect
    x="0"
    y="0"
    width="100"
    height="100"
    fill="hsla(206,100%,53%,0.3)"
    stroke="hsl(206,100%,53%)"
    stroke-width="3"
    transform="" />
  
  <path
    d="M 
      1.6949152542
      3.3898305084
      L
    
      50.8474576271
      3.3898305084
      L
    
      52.5423728813
      5.0847457627
      L
    
      52.5423728813
      54.2372881355
      L
    
      50.8474576271
      54.2372881355
      L
    
      50.8474576271
      5.0847457627
      L
    
      1.6949152542
      5.0847457627
      z
    "
    fill="hsla(0,0%,50%,0.3)"
    stroke="hsla(0,0%,50%,1)"
    stroke-width="1"
    transform="translate(-27.1186440677,-28.8135593220)"
    />
  
  
  <line
    x1="50.847457627118644"
    y1="3.389830508474576"
    x2="52.54237288135593"
    y2="5.084745762711864"
    stroke="hsla(0,50%,50%,0.6)"
    stroke-width="1"
    transform="translate(-27.1186440677,-28.8135593220)"
    />
  
  <line
    x1="1.694915254237288"
    y1="3.389830508474576"
    x2="1.694915254237288"
    y2="5.084745762711864"
    stroke="hsla(0,50%,50%,0.6)"
    stroke-width="1"
    transform="translate(-27.1186440677,-28.8135593220)"
    />
  
  <line
    x1="50.847457627118644"
    y1="3.389830508474576"
    x2="50.847457627118644"
    y2="54.23728813559322"
    stroke="hsla(0,50%,50%,0.6)"
    stroke-width="1"
    transform="translate(-27.1186440677,-28.8135593220)"
    />
  
  <line
    x1="52.54237288135593"
    y1="5.084745762711864"
    x2="52.54237288135593"
    y2="54.23728813559322"
    stroke="hsla(0,50%,50%,0.6)"
    stroke-width="1"
    transform="translate(-27.1186440677,-28.8135593220)"
    />
  
  <line
    x1="1.694915254237288"
    y1="3.389830508474576"
    x2="50.847457627118644"
    y2="3.389830508474576"
    stroke="hsla(0,50%,50%,0.6)"
    stroke-width="1"
    transform="translate(-27.1186440677,-28.8135593220)"
    />
  
  <line
    x1="1.694915254237288"
    y1="5.084745762711864"
    x2="52.54237288135593"
    y2="5.084745762711864"
    stroke="hsla(0,50%,50%,0.6)"
    stroke-width="1"
    transform="translate(-27.1186440677,-28.8135593220)"
    />
  
  <line
    x1="50.847457627118644"
    y1="54.23728813559322"
    x2="52.54237288135593"
    y2="54.23728813559322"
    stroke="hsla(0,50%,50%,0.6)"
    stroke-width="1"
    transform="translate(-27.1186440677,-28.8135593220)"
    />
  
</svg>
