<?xml version="1.0"?>
<!DOCTYPE svg PUBLIC "-//W3C//DTD SVG 1.1//EN"
  "http://www.w3.org/Graphics/SVG/1.1/DTD/svg11.dtd">
<svg
  width="240"
  height="240"
  viewBox="-50 -50 200 200" xmlns="http://www.w3.org/2000/svg" version="1.1">
  <rect
    x="0"
    y="0"
    width="100"
    height="100"
    fill="hsla(206,100%,53%,0.3)"
    stroke="hsl(206,100%,53%)"
    stroke-width="3"
    transform="" />
  
  <path
    d="M 
      0
      0
      L
    
      12.4999976227
      0
      L
    
      12.4999976227
      0.0000190177
      L
    
      12.4999786050
      0.0000190177
      L
    
      0.0000190177
      12.4999786050
      L
    
      0.0000190177
      12.4999976227
      L
    
      0
      12.4999976227
      z
    "
    fill="hsla(0,0%,50%,0.3)"
    stroke="hsla(0,0%,50%,1)"
    stroke-width="1"
    transform="translate(-1.3671931830,-10.9374973256) scale(1,-1) translate(50,-110)"
    />
  
  
  <line
    x1="0"
    y1="0"
    x2="12.499997622787049"
    y2="0"
    stroke="hsla(0,50%,50%,0.6)"
    stroke-width="1"
    transform="translate(-1.3671931830,-10.9374973256) scale(1,-1) translate(50,-110)"
    />
  
  <line
    x1="0"
    y1="0"
    x2="0"
    y2="12.499997622787049"
    stroke="hsla(0,50%,50%,0.6)"
    stroke-width="1"
    transform="translate(-1.3671931830,-10.9374973256) scale(1,-1) translate(50,-110)"
    />
  
  <line
    x1="0.00001901770361385479"
    y1="0"
    x2="0.00001901770361385479"
    y2="12.499997622787049"
    stroke="hsla(0,50%,50%,0.6)"
    stroke-width="1"
    transform="translate(-1.3671931830,-10.9374973256) scale(1,-1) translate(50,-110)"
    />
  
  <line
    x1="12.499997622787049"
    y1="0"
    x2="12.499997622787049"
    y2="0.00001901770361385479"
    stroke="hsla(0,50%,50%,0.6)"
    stroke-width="1"
    transform="translate(-1.3671931830,-10.9374973256) scale(1,-1) translate(50,-110)"
    />
  
  <line
    x1="0"
    y1="0.00001901770361385479"
    x2="12.499997622787049"
    y2="0.00001901770361385479"
    stroke="hsla(0,50%,50%,0.6)"
    stroke-width="1"
    transform="translate(-1.3671931830,-10.9374973256) scale(1,-1) translate(50,-110)"
    />
  
  <line
    x1="12.499997622787049"
    y1="0"
    x2="0"
    y2="12.499997622787049"
    stroke="hsla(0,50%,50%,0.6)"
    stroke-width="1"
    transform="translate(-1.3671931830,-10.9374973256) scale(1,-1) translate(50,-110)"
    />
  
  <line
    x1="0"
    y1="12.499997622787049"
    x2="0.00001901770361385479"
    y2="12.499997622787049"
    stroke="hsla(0,50%,50%,0.6)"
    stroke-width="1"
    transform="translate(-1.3671931830,-10.9374973256) scale(1,-1) translate(50,-110)"
    />
  
</svg>
