<?xml version="1.0"?>
<!DOCTYPE svg PUBLIC "-//W3C//DTD SVG 1.1//EN"
  "http://www.w3.org/Graphics/SVG/1.1/DTD/svg11.dtd">
<svg
  width="240"
  height="240"
  viewBox="-500 -500 1000 1000" xmlns="http://www.w3.org/2000/svg" version="1.1">
  <rect
    x="0"
    y="0"
    width="100"
    height="100"
    fill="hsla(206,100%,53%,0.3)"
    stroke="hsl(206,100%,53%)"
    stroke-width="3"
    transform="" />
  
  <path
    d="M 
      0
      0
      L
    
      16.6666666666
      0
      L
    
      16.6666666666
      0.0000000000
      L
    
      16.6666666665
      0.0000000000
      L
    
      0.0000000000
      16.6666666665
      L
    
      0.0000000000
      16.6666666666
      L
    
      0
      16.6666666666
      z
    "
    fill="hsla(0,0%,50%,0.3)"
    stroke="hsla(0,0%,50%,1)"
    stroke-width="1"
    transform="translate(-8.3333333333,-8.3333333333)"
    />
  
  
  <line
    x1="0"
    y1="0"
    x2="16.66666666665109"
    y2="0"
    stroke="hsla(0,50%,50%,0.6)"
    stroke-width="1"
    transform="translate(-8.3333333333,-8.3333333333)"
    />
  
  <line
    x1="0"
    y1="0"
    x2="0"
    y2="16.66666666665109"
    stroke="hsla(0,50%,50%,0.6)"
    stroke-width="1"
    transform="translate(-8.3333333333,-8.3333333333)"
    />
  
  <line
    x1="9.346091552581146e-11"
    y1="0"
    x2="9.346091552581146e-11"
    y2="16.66666666665109"
    stroke="hsla(0,50%,50%,0.6)"
    stroke-width="1"
    transform="translate(-8.3333333333,-8.3333333333)"
    />
  
  <line
    x1="16.66666666665109"
    y1="0"
    x2="16.66666666665109"
    y2="9.346091552581146e-11"
    stroke="hsla(0,50%,50%,0.6)"
    stroke-width="1"
    transform="translate(-8.3333333333,-8.3333333333)"
    />
  
  <line
    x1="0"
    y1="9.346091552581146e-11"
    x2="16.66666666665109"
    y2="9.346091552581146e-11"
    stroke="hsla(0,50%,50%,0.6)"
    stroke-width="1"
    transform="translate(-8.3333333333,-8.3333333333)"
    />
  
  <line
    x1="16.66666666665109"
    y1="0"
    x2="0"
    y2="16.66666666665109"
    stroke="hsla(0,50%,50%,0.6)"
    stroke-width="1"
    transform="translate(-8.3333333333,-8.3333333333)"
    />
  
  <line
    x1="0"
    y1="16.66666666665109"
    x2="9.346091552581146e-11"
    y2="16.66666666665109"
    stroke="hsla(0,50%,50%,0.6)"
    stroke-width="1"
    transform="translate(-8.3333333333,-8.3333333333)"
    />
  
</svg>
