<?xml version="1.0"?>
<!DOCTYPE svg PUBLIC "-//W3C//DTD SVG 1.1//EN"
  "http://www.w3.org/Graphics/SVG/1.1/DTD/svg11.dtd">
<svg
  width="240"
  height="240"
  viewBox="-50 -50 200 200" xmlns="http://www.w3.org/2000/svg" version="1.1">
  <rect
    x="0"
    y="0"
    width="100"
    height="100"
    fill="hsla(206,100%,53%,0.3)"
    stroke="hsl(206,100%,53%)"
    stroke-width="3"
    transform="" />
  
  <path
    d="M 
      -47.4264705882
      168.6121323529
      L
    
      -28.2973345588
      178.8143382352
      L
    
      -21.6624540441
      200.6146599264
      L
    
      -34.7426470588
      204.5955882352
      L
    
      -59.5588235294
      191.3602941176
      z
    "
    fill="hsla(0,0%,50%,0.3)"
    stroke="hsla(0,0%,50%,1)"
    stroke-width="1"
    transform="translate(45.9056181066,-193.6200310202) scale(1,-1) translate(50,-110)"
    />
  
  
  <line
    x1="-47.4264705882353"
    y1="168.6121323529412"
    x2="-59.55882352941177"
    y2="191.36029411764707"
    stroke="hsla(0,50%,50%,0.6)"
    stroke-width="1"
    transform="translate(45.9056181066,-193.6200310202) scale(1,-1) translate(50,-110)"
    />
  
  <line
    x1="-28.29733455882353"
    y1="178.81433823529412"
    x2="-21.66245404411765"
    y2="200.61465992647058"
    stroke="hsla(0,50%,50%,0.6)"
    stroke-width="1"
    transform="translate(45.9056181066,-193.6200310202) scale(1,-1) translate(50,-110)"
    />
  
  <line
    x1="-30.227481617647058"
    y1="182.43336397058823"
    x2="-25.281479779411764"
    y2="198.68451286764707"
    stroke="hsla(0,50%,50%,0.6)"
    stroke-width="1"
    transform="translate(45.9056181066,-193.6200310202) scale(1,-1) translate(50,-110)"
    />
  
  <line
    x1="-36.30514705882353"
    y1="184.28308823529412"
    x2="-30.514705882352942"
    y2="203.30882352941177"
    stroke="hsla(0,50%,50%,0.6)"
    stroke-width="1"
    transform="translate(45.9056181066,-193.6200310202) scale(1,-1) translate(50,-110)"
    />
  
  <line
    x1="-32.2610294117647"
    y1="176.7003676470588"
    x2="-36.30514705882353"
    y2="184.28308823529412"
    stroke="hsla(0,50%,50%,0.6)"
    stroke-width="1"
    transform="translate(45.9056181066,-193.6200310202) scale(1,-1) translate(50,-110)"
    />
  
  <line
    x1="-35.37454044117647"
    y1="192.08409926470588"
    x2="-34.93221507352941"
    y2="193.53745404411765"
    stroke="hsla(0,50%,50%,0.6)"
    stroke-width="1"
    transform="translate(45.9056181066,-193.6200310202) scale(1,-1) translate(50,-110)"
    />
  
  <line
    x1="-28.29733455882353"
    y1="178.81433823529412"
    x2="-35.880055147058826"
    y2="193.0319393382353"
    stroke="hsla(0,50%,50%,0.6)"
    stroke-width="1"
    transform="translate(45.9056181066,-193.6200310202) scale(1,-1) translate(50,-110)"
    />
  
  <line
    x1="-27.975643382352942"
    y1="179.87132352941177"
    x2="-35.1907169117647"
    y2="193.3995863970588"
    stroke="hsla(0,50%,50%,0.6)"
    stroke-width="1"
    transform="translate(45.9056181066,-193.6200310202) scale(1,-1) translate(50,-110)"
    />
  
  <line
    x1="-25.643382352941178"
    y1="187.5344669117647"
    x2="-34.74264705882353"
    y2="204.59558823529412"
    stroke="hsla(0,50%,50%,0.6)"
    stroke-width="1"
    transform="translate(45.9056181066,-193.6200310202) scale(1,-1) translate(50,-110)"
    />
  
  <line
    x1="-24.758731617647058"
    y1="190.44117647058823"
    x2="-28.29733455882353"
    y2="197.07605698529412"
    stroke="hsla(0,50%,50%,0.6)"
    stroke-width="1"
    transform="translate(45.9056181066,-193.6200310202) scale(1,-1) translate(50,-110)"
    />
  
  <line
    x1="-24.356617647058822"
    y1="191.7624080882353"
    x2="-30.514705882352942"
    y2="203.30882352941177"
    stroke="hsla(0,50%,50%,0.6)"
    stroke-width="1"
    transform="translate(45.9056181066,-193.6200310202) scale(1,-1) translate(50,-110)"
    />
  
  <line
    x1="-23.471966911764707"
    y1="194.6691176470588"
    x2="-25.539981617647058"
    y2="198.54664522058823"
    stroke="hsla(0,50%,50%,0.6)"
    stroke-width="1"
    transform="translate(45.9056181066,-193.6200310202) scale(1,-1) translate(50,-110)"
    />
  
  <line
    x1="-47.4264705882353"
    y1="168.6121323529412"
    x2="-28.29733455882353"
    y2="178.81433823529412"
    stroke="hsla(0,50%,50%,0.6)"
    stroke-width="1"
    transform="translate(45.9056181066,-193.6200310202) scale(1,-1) translate(50,-110)"
    />
  
  <line
    x1="-32.62867647058823"
    y1="177.38970588235293"
    x2="-27.975643382352942"
    y2="179.87132352941177"
    stroke="hsla(0,50%,50%,0.6)"
    stroke-width="1"
    transform="translate(45.9056181066,-193.6200310202) scale(1,-1) translate(50,-110)"
    />
  
  <line
    x1="-31.33042279411765"
    y1="184.50137867647058"
    x2="-25.643382352941178"
    y2="187.5344669117647"
    stroke="hsla(0,50%,50%,0.6)"
    stroke-width="1"
    transform="translate(45.9056181066,-193.6200310202) scale(1,-1) translate(50,-110)"
    />
  
  <line
    x1="-36.30514705882353"
    y1="184.28308823529412"
    x2="-24.758731617647058"
    y2="190.44117647058823"
    stroke="hsla(0,50%,50%,0.6)"
    stroke-width="1"
    transform="translate(45.9056181066,-193.6200310202) scale(1,-1) translate(50,-110)"
    />
  
  <line
    x1="-27.452895220588236"
    y1="181.58892463235293"
    x2="-59.55882352941177"
    y2="191.36029411764707"
    stroke="hsla(0,50%,50%,0.6)"
    stroke-width="1"
    transform="translate(45.9056181066,-193.6200310202) scale(1,-1) translate(50,-110)"
    />
  
  <line
    x1="-32.80101102941177"
    y1="187.25873161764707"
    x2="-24.356617647058822"
    y2="191.7624080882353"
    stroke="hsla(0,50%,50%,0.6)"
    stroke-width="1"
    transform="translate(45.9056181066,-193.6200310202) scale(1,-1) translate(50,-110)"
    />
  
  <line
    x1="-52.94117647058823"
    y1="178.95220588235293"
    x2="-23.471966911764707"
    y2="194.6691176470588"
    stroke="hsla(0,50%,50%,0.6)"
    stroke-width="1"
    transform="translate(45.9056181066,-193.6200310202) scale(1,-1) translate(50,-110)"
    />
  
  <line
    x1="-35.880055147058826"
    y1="193.0319393382353"
    x2="-21.66245404411765"
    y2="200.61465992647058"
    stroke="hsla(0,50%,50%,0.6)"
    stroke-width="1"
    transform="translate(45.9056181066,-193.6200310202) scale(1,-1) translate(50,-110)"
    />
  
  <line
    x1="-27.975643382352942"
    y1="189.83226102941177"
    x2="-35.37454044117647"
    y2="192.08409926470588"
    stroke="hsla(0,50%,50%,0.6)"
    stroke-width="1"
    transform="translate(45.9056181066,-193.6200310202) scale(1,-1) translate(50,-110)"
    />
  
  <line
    x1="-24.758731617647058"
    y1="190.44117647058823"
    x2="-34.93221507352941"
    y2="193.53745404411765"
    stroke="hsla(0,50%,50%,0.6)"
    stroke-width="1"
    transform="translate(45.9056181066,-193.6200310202) scale(1,-1) translate(50,-110)"
    />
  
  <line
    x1="-33.27205882352941"
    y1="201.83823529411765"
    x2="-30.514705882352942"
    y2="203.30882352941177"
    stroke="hsla(0,50%,50%,0.6)"
    stroke-width="1"
    transform="translate(45.9056181066,-193.6200310202) scale(1,-1) translate(50,-110)"
    />
  
  <line
    x1="-59.55882352941177"
    y1="191.36029411764707"
    x2="-34.74264705882353"
    y2="204.59558823529412"
    stroke="hsla(0,50%,50%,0.6)"
    stroke-width="1"
    transform="translate(45.9056181066,-193.6200310202) scale(1,-1) translate(50,-110)"
    />
  
  <line
    x1="-22.506893382352942"
    y1="197.84007352941177"
    x2="-25.281479779411764"
    y2="198.68451286764707"
    stroke="hsla(0,50%,50%,0.6)"
    stroke-width="1"
    transform="translate(45.9056181066,-193.6200310202) scale(1,-1) translate(50,-110)"
    />
  
  <line
    x1="-21.66245404411765"
    y1="200.61465992647058"
    x2="-34.74264705882353"
    y2="204.59558823529412"
    stroke="hsla(0,50%,50%,0.6)"
    stroke-width="1"
    transform="translate(45.9056181066,-193.6200310202) scale(1,-1) translate(50,-110)"
    />
  
</svg>
