<?xml version="1.0"?>
<!DOCTYPE svg PUBLIC "-//W3C//DTD SVG 1.1//EN"
  "http://www.w3.org/Graphics/SVG/1.1/DTD/svg11.dtd">
<svg
  width="240"
  height="240"
  viewBox="-500 -500 1000 1000" xmlns="http://www.w3.org/2000/svg" version="1.1">
  <rect
    x="0"
    y="0"
    width="100"
    height="100"
    fill="hsla(206,100%,53%,0.3)"
    stroke="hsl(206,100%,53%)"
    stroke-width="3"
    transform="" />
  
  <path
    d="M 
      19.8713362267
      19.4744658316
      L
    
      43.3750661904
      42.578125
      L
    
      81.4453125
      42.578125
      L
    
      81.4453125
      61.1328125
      L
    
      71.9305630387
      70.6475619612
      L
    
      0
      70.9562768240
      L
    
      -0.4404154770
      19.6488188432
      z
    "
    fill="hsla(0,0%,50%,0.3)"
    stroke="hsla(0,0%,50%,1)"
    stroke-width="1"
    transform="translate(-40.5024485114,-45.2153713278)"
    />
  
  
  <line
    x1="42.32725870326027"
    y1="41.54815285964266"
    x2="42.578125"
    y2="70.77353809012875"
    stroke="hsla(0,50%,50%,0.6)"
    stroke-width="1"
    transform="translate(-40.5024485114,-45.2153713278)"
    />
  
  <line
    x1="19.871336226745257"
    y1="19.47446583164487"
    x2="20.3125"
    y2="70.86909871244636"
    stroke="hsla(0,50%,50%,0.6)"
    stroke-width="1"
    transform="translate(-40.5024485114,-45.2153713278)"
    />
  
  <line
    x1="19.871336226745257"
    y1="19.47446583164487"
    x2="71.93056303879311"
    y2="70.64756196120689"
    stroke="hsla(0,50%,50%,0.6)"
    stroke-width="1"
    transform="translate(-40.5024485114,-45.2153713278)"
    />
  
  <line
    x1="0"
    y1="61.1328125"
    x2="0"
    y2="70.95627682403433"
    stroke="hsla(0,50%,50%,0.6)"
    stroke-width="1"
    transform="translate(-40.5024485114,-45.2153713278)"
    />
  
  <line
    x1="20.3125"
    y1="42.578125"
    x2="20.3125"
    y2="70.86909871244636"
    stroke="hsla(0,50%,50%,0.6)"
    stroke-width="1"
    transform="translate(-40.5024485114,-45.2153713278)"
    />
  
  <line
    x1="42.578125"
    y1="42.578125"
    x2="42.578125"
    y2="70.77353809012875"
    stroke="hsla(0,50%,50%,0.6)"
    stroke-width="1"
    transform="translate(-40.5024485114,-45.2153713278)"
    />
  
  <line
    x1="81.4453125"
    y1="42.578125"
    x2="81.4453125"
    y2="61.1328125"
    stroke="hsla(0,50%,50%,0.6)"
    stroke-width="1"
    transform="translate(-40.5024485114,-45.2153713278)"
    />
  
  <line
    x1="-0.4404154770675999"
    y1="19.648818843249217"
    x2="0"
    y2="70.95627682403433"
    stroke="hsla(0,50%,50%,0.6)"
    stroke-width="1"
    transform="translate(-40.5024485114,-45.2153713278)"
    />
  
  <line
    x1="19.871336226745257"
    y1="19.47446583164487"
    x2="-0.4404154770675999"
    y2="19.648818843249217"
    stroke="hsla(0,50%,50%,0.6)"
    stroke-width="1"
    transform="translate(-40.5024485114,-45.2153713278)"
    />
  
  <line
    x1="42.32725870326027"
    y1="41.54815285964266"
    x2="-0.24929775280898878"
    y2="41.91362359550562"
    stroke="hsla(0,50%,50%,0.6)"
    stroke-width="1"
    transform="translate(-40.5024485114,-45.2153713278)"
    />
  
  <line
    x1="20.3125"
    y1="42.578125"
    x2="81.4453125"
    y2="42.578125"
    stroke="hsla(0,50%,50%,0.6)"
    stroke-width="1"
    transform="translate(-40.5024485114,-45.2153713278)"
    />
  
  <line
    x1="0"
    y1="61.1328125"
    x2="81.4453125"
    y2="61.1328125"
    stroke="hsla(0,50%,50%,0.6)"
    stroke-width="1"
    transform="translate(-40.5024485114,-45.2153713278)"
    />
  
  <line
    x1="71.93056303879311"
    y1="70.64756196120689"
    x2="0"
    y2="70.95627682403433"
    stroke="hsla(0,50%,50%,0.6)"
    stroke-width="1"
    transform="translate(-40.5024485114,-45.2153713278)"
    />
  
  <line
    x1="81.4453125"
    y1="61.1328125"
    x2="71.93056303879311"
    y2="70.64756196120689"
    stroke="hsla(0,50%,50%,0.6)"
    stroke-width="1"
    transform="translate(-40.5024485114,-45.2153713278)"
    />
  
</svg>
