<?xml version="1.0"?>
<!DOCTYPE svg PUBLIC "-//W3C//DTD SVG 1.1//EN"
  "http://www.w3.org/Graphics/SVG/1.1/DTD/svg11.dtd">
<svg
  width="240"
  height="240"
  viewBox="-500 -500 1000 1000" xmlns="http://www.w3.org/2000/svg" version="1.1">
  <rect
    x="0"
    y="0"
    width="100"
    height="100"
    fill="hsla(206,100%,53%,0.3)"
    stroke="hsl(206,100%,53%)"
    stroke-width="3"
    transform="" />
  
  <path
    d="M 
      42.4018453630
      123.6607988330
      L
    
      85.4416251532
      137.6409333901
      L
    
      95.4902659151
      149.6820725997
      L
    
      92.3365185514
      153.1029948513
      L
    
      91.5248260099
      155.7593040218
      L
    
      90.2474989370
      155.3689891934
      L
    
      57.7952565831
      190.5704765603
      L
    
      46.7689148520
      188.9161929310
      L
    
      41.3659850382
      178.3147353862
      L
    
      23.9769459514
      129.0457913068
      L
    
      27.6963275971
      126.6074018198
      L
    
      28.9719988542
      128.5532387278
      L
    
      29.6810598157
      128.4833195874
      z
    "
    fill="hsla(0,0%,50%,0.3)"
    stroke="hsla(0,0%,50%,1)"
    stroke-width="1"
    transform="translate(-59.7336059332,-157.1156376967)"
    />
  
  
  <line
    x1="85.44162515322424"
    y1="137.64093339011126"
    x2="87.73049768984774"
    y2="154.59986519161473"
    stroke="hsla(0,50%,50%,0.6)"
    stroke-width="1"
    transform="translate(-59.7336059332,-157.1156376967)"
    />
  
  <line
    x1="30.863193314144443"
    y1="128.36675167219897"
    x2="41.36598503827278"
    y2="178.31473538621734"
    stroke="hsla(0,50%,50%,0.6)"
    stroke-width="1"
    transform="translate(-59.7336059332,-157.1156376967)"
    />
  
  <line
    x1="45.65175692640884"
    y1="124.7164315796821"
    x2="40.464218961411646"
    y2="175.75973150177745"
    stroke="hsla(0,50%,50%,0.6)"
    stroke-width="1"
    transform="translate(-59.7336059332,-157.1156376967)"
    />
  
  <line
    x1="23.976945951445025"
    y1="129.04579130687202"
    x2="41.36598503827278"
    y2="178.31473538621734"
    stroke="hsla(0,50%,50%,0.6)"
    stroke-width="1"
    transform="translate(-59.7336059332,-157.1156376967)"
    />
  
  <line
    x1="71.59922360111064"
    y1="133.144659542177"
    x2="67.87366125582366"
    y2="169.80270377280863"
    stroke="hsla(0,50%,50%,0.6)"
    stroke-width="1"
    transform="translate(-59.7336059332,-157.1156376967)"
    />
  
  <line
    x1="44.29602227446435"
    y1="162.4055469349024"
    x2="57.79525658314994"
    y2="190.57047656035564"
    stroke="hsla(0,50%,50%,0.6)"
    stroke-width="1"
    transform="translate(-59.7336059332,-157.1156376967)"
    />
  
  <line
    x1="85.44162515322424"
    y1="137.64093339011126"
    x2="95.49026591512362"
    y2="149.68207259972263"
    stroke="hsla(0,50%,50%,0.6)"
    stroke-width="1"
    transform="translate(-59.7336059332,-157.1156376967)"
    />
  
  <line
    x1="44.29602227446435"
    y1="162.4055469349024"
    x2="41.213881580466"
    y2="177.88377558909812"
    stroke="hsla(0,50%,50%,0.6)"
    stroke-width="1"
    transform="translate(-59.7336059332,-157.1156376967)"
    />
  
  <line
    x1="42.40184536304115"
    y1="123.66079883304803"
    x2="60.79548108756217"
    y2="151.71741221496507"
    stroke="hsla(0,50%,50%,0.6)"
    stroke-width="1"
    transform="translate(-59.7336059332,-157.1156376967)"
    />
  
  <line
    x1="41.36598503827278"
    y1="178.31473538621734"
    x2="46.76891485204654"
    y2="188.91619293100678"
    stroke="hsla(0,50%,50%,0.6)"
    stroke-width="1"
    transform="translate(-59.7336059332,-157.1156376967)"
    />
  
  <line
    x1="27.696327597115037"
    y1="126.60740181988507"
    x2="56.39733787461837"
    y2="170.38630236388326"
    stroke="hsla(0,50%,50%,0.6)"
    stroke-width="1"
    transform="translate(-59.7336059332,-157.1156376967)"
    />
  
  <line
    x1="40.9271601537245"
    y1="176.22782185289745"
    x2="40.77230437111215"
    y2="176.63264016259555"
    stroke="hsla(0,50%,50%,0.6)"
    stroke-width="1"
    transform="translate(-59.7336059332,-157.1156376967)"
    />
  
  <line
    x1="93.94695632634487"
    y1="147.83274729868555"
    x2="91.52482600995822"
    y2="155.7593040218021"
    stroke="hsla(0,50%,50%,0.6)"
    stroke-width="1"
    transform="translate(-59.7336059332,-157.1156376967)"
    />
  
  <line
    x1="50.01012046942515"
    y1="126.13211049525742"
    x2="52.02052775156051"
    y2="127.98550446324214"
    stroke="hsla(0,50%,50%,0.6)"
    stroke-width="1"
    transform="translate(-59.7336059332,-157.1156376967)"
    />
  
  <line
    x1="45.65175692640884"
    y1="124.7164315796821"
    x2="44.44921033348742"
    y2="126.78373375944291"
    stroke="hsla(0,50%,50%,0.6)"
    stroke-width="1"
    transform="translate(-59.7336059332,-157.1156376967)"
    />
  
  <line
    x1="41.28845733317906"
    y1="177.94603793385232"
    x2="41.257718871765356"
    y2="178.0079812477796"
    stroke="hsla(0,50%,50%,0.6)"
    stroke-width="1"
    transform="translate(-59.7336059332,-157.1156376967)"
    />
  
  <line
    x1="44.04259835118978"
    y1="151.5410802754072"
    x2="36.49556512109336"
    y2="164.51521228754228"
    stroke="hsla(0,50%,50%,0.6)"
    stroke-width="1"
    transform="translate(-59.7336059332,-157.1156376967)"
    />
  
  <line
    x1="56.39733787461837"
    y1="170.38630236388326"
    x2="46.76891485204654"
    y2="188.91619293100678"
    stroke="hsla(0,50%,50%,0.6)"
    stroke-width="1"
    transform="translate(-59.7336059332,-157.1156376967)"
    />
  
  <line
    x1="71.59922360111064"
    y1="133.144659542177"
    x2="60.79548108756217"
    y2="151.71741221496507"
    stroke="hsla(0,50%,50%,0.6)"
    stroke-width="1"
    transform="translate(-59.7336059332,-157.1156376967)"
    />
  
  <line
    x1="40.464218961411646"
    y1="175.75973150177745"
    x2="40.9271601537245"
    y2="176.22782185289745"
    stroke="hsla(0,50%,50%,0.6)"
    stroke-width="1"
    transform="translate(-59.7336059332,-157.1156376967)"
    />
  
  <line
    x1="44.29602227446435"
    y1="162.4055469349024"
    x2="38.42139524284743"
    y2="169.9717309658455"
    stroke="hsla(0,50%,50%,0.6)"
    stroke-width="1"
    transform="translate(-59.7336059332,-157.1156376967)"
    />
  
  <line
    x1="41.213881580466"
    y1="177.88377558909812"
    x2="41.28845733317906"
    y2="177.94603793385232"
    stroke="hsla(0,50%,50%,0.6)"
    stroke-width="1"
    transform="translate(-59.7336059332,-157.1156376967)"
    />
  
  <line
    x1="52.02052775156051"
    y1="127.98550446324214"
    x2="31.470227872511458"
    y2="150.27675674989356"
    stroke="hsla(0,50%,50%,0.6)"
    stroke-width="1"
    transform="translate(-59.7336059332,-157.1156376967)"
    />
  
  <line
    x1="42.40184536304115"
    y1="123.66079883304803"
    x2="85.44162515322424"
    y2="137.64093339011126"
    stroke="hsla(0,50%,50%,0.6)"
    stroke-width="1"
    transform="translate(-59.7336059332,-157.1156376967)"
    />
  
  <line
    x1="27.696327597115037"
    y1="126.60740181988507"
    x2="23.976945951445025"
    y2="129.04579130687202"
    stroke="hsla(0,50%,50%,0.6)"
    stroke-width="1"
    transform="translate(-59.7336059332,-157.1156376967)"
    />
  
  <line
    x1="38.63650616011654"
    y1="165.33418981939377"
    x2="37.26377853412016"
    y2="166.6918169577849"
    stroke="hsla(0,50%,50%,0.6)"
    stroke-width="1"
    transform="translate(-59.7336059332,-157.1156376967)"
    />
  
  <line
    x1="40.77230437111215"
    y1="176.63264016259555"
    x2="50.278348302970755"
    y2="182.16229173184047"
    stroke="hsla(0,50%,50%,0.6)"
    stroke-width="1"
    transform="translate(-59.7336059332,-157.1156376967)"
    />
  
  <line
    x1="95.49026591512362"
    y1="149.68207259972263"
    x2="57.79525658314994"
    y2="190.57047656035564"
    stroke="hsla(0,50%,50%,0.6)"
    stroke-width="1"
    transform="translate(-59.7336059332,-157.1156376967)"
    />
  
  <line
    x1="87.73049768984774"
    y1="154.59986519161473"
    x2="91.52482600995822"
    y2="155.7593040218021"
    stroke="hsla(0,50%,50%,0.6)"
    stroke-width="1"
    transform="translate(-59.7336059332,-157.1156376967)"
    />
  
  <line
    x1="42.40184536304115"
    y1="123.66079883304803"
    x2="24.475006679425682"
    y2="130.45696336948387"
    stroke="hsla(0,50%,50%,0.6)"
    stroke-width="1"
    transform="translate(-59.7336059332,-157.1156376967)"
    />
  
  <line
    x1="35.59924684181961"
    y1="150.88993700068562"
    x2="32.39804782260144"
    y2="152.9055799418152"
    stroke="hsla(0,50%,50%,0.6)"
    stroke-width="1"
    transform="translate(-59.7336059332,-157.1156376967)"
    />
  
  <line
    x1="30.863193314144443"
    y1="128.36675167219897"
    x2="24.475006679425682"
    y2="130.45696336948387"
    stroke="hsla(0,50%,50%,0.6)"
    stroke-width="1"
    transform="translate(-59.7336059332,-157.1156376967)"
    />
  
  <line
    x1="39.67388670852537"
    y1="170.26764638010306"
    x2="38.767320715307065"
    y2="170.95185313781445"
    stroke="hsla(0,50%,50%,0.6)"
    stroke-width="1"
    transform="translate(-59.7336059332,-157.1156376967)"
    />
  
  <line
    x1="30.863193314144443"
    y1="128.36675167219897"
    x2="23.976945951445025"
    y2="129.04579130687202"
    stroke="hsla(0,50%,50%,0.6)"
    stroke-width="1"
    transform="translate(-59.7336059332,-157.1156376967)"
    />
  
  <line
    x1="50.01012046942515"
    y1="126.13211049525742"
    x2="44.44921033348742"
    y2="126.78373375944291"
    stroke="hsla(0,50%,50%,0.6)"
    stroke-width="1"
    transform="translate(-59.7336059332,-157.1156376967)"
    />
  
  <line
    x1="41.257718871765356"
    y1="178.0079812477796"
    x2="50.278348302970755"
    y2="182.16229173184047"
    stroke="hsla(0,50%,50%,0.6)"
    stroke-width="1"
    transform="translate(-59.7336059332,-157.1156376967)"
    />
  
  <line
    x1="36.49556512109336"
    y1="164.51521228754228"
    x2="38.63650616011654"
    y2="165.33418981939377"
    stroke="hsla(0,50%,50%,0.6)"
    stroke-width="1"
    transform="translate(-59.7336059332,-157.1156376967)"
    />
  
  <line
    x1="31.470227872511458"
    y1="150.27675674989356"
    x2="35.59924684181961"
    y2="150.88993700068562"
    stroke="hsla(0,50%,50%,0.6)"
    stroke-width="1"
    transform="translate(-59.7336059332,-157.1156376967)"
    />
  
  <line
    x1="95.49026591512362"
    y1="149.68207259972263"
    x2="87.73049768984774"
    y2="154.59986519161473"
    stroke="hsla(0,50%,50%,0.6)"
    stroke-width="1"
    transform="translate(-59.7336059332,-157.1156376967)"
    />
  
  <line
    x1="38.42139524284743"
    y1="169.9717309658455"
    x2="39.67388670852537"
    y2="170.26764638010306"
    stroke="hsla(0,50%,50%,0.6)"
    stroke-width="1"
    transform="translate(-59.7336059332,-157.1156376967)"
    />
  
  <line
    x1="44.04259835118978"
    y1="151.5410802754072"
    x2="32.39804782260144"
    y2="152.9055799418152"
    stroke="hsla(0,50%,50%,0.6)"
    stroke-width="1"
    transform="translate(-59.7336059332,-157.1156376967)"
    />
  
  <line
    x1="93.94695632634487"
    y1="147.83274729868555"
    x2="60.79548108756217"
    y2="151.71741221496507"
    stroke="hsla(0,50%,50%,0.6)"
    stroke-width="1"
    transform="translate(-59.7336059332,-157.1156376967)"
    />
  
  <line
    x1="37.26377853412016"
    y1="166.6918169577849"
    x2="67.87366125582366"
    y2="169.80270377280863"
    stroke="hsla(0,50%,50%,0.6)"
    stroke-width="1"
    transform="translate(-59.7336059332,-157.1156376967)"
    />
  
  <line
    x1="56.39733787461837"
    y1="170.38630236388326"
    x2="38.767320715307065"
    y2="170.95185313781445"
    stroke="hsla(0,50%,50%,0.6)"
    stroke-width="1"
    transform="translate(-59.7336059332,-157.1156376967)"
    />
  
  <line
    x1="46.76891485204654"
    y1="188.91619293100678"
    x2="57.79525658314994"
    y2="190.57047656035564"
    stroke="hsla(0,50%,50%,0.6)"
    stroke-width="1"
    transform="translate(-59.7336059332,-157.1156376967)"
    />
  
</svg>
