<?xml version="1.0"?>
<!DOCTYPE svg PUBLIC "-//W3C//DTD SVG 1.1//EN"
  "http://www.w3.org/Graphics/SVG/1.1/DTD/svg11.dtd">
<svg
  width="240"
  height="240"
  viewBox="-50 -50 200 200" xmlns="http://www.w3.org/2000/svg" version="1.1">
  <rect
    x="0"
    y="0"
    width="100"
    height="100"
    fill="hsla(206,100%,53%,0.3)"
    stroke="hsl(206,100%,53%)"
    stroke-width="3"
    transform="" />
  
  <path
    d="M 
      -14.6806319523
      -17.0133412713
      L
    
      -12.4099532793
      -16.3068949565
      L
    
      -12.4507477771
      -16.0334228060
      L
    
      -9.2285488543
      -14.6174334652
      L
    
      12.4865338709
      -14.1083953450
      L
    
      23.6208811551
      18.9929655683
      L
    
      23.8565728376
      22.4610003254
      L
    
      9.9715921724
      64.5182317262
      L
    
      7.1434632309
      65.1787987116
      L
    
      -25.7126607045
      52.8577522357
      L
    
      -25.8615465013
      52.3494828372
      L
    
      -25.2272829572
      52.5478033732
      L
    
      -23.7407147626
      51.5985218633
      L
    
      -29.0466718138
      21.4054768438
      z
    "
    fill="hsla(0,0%,50%,0.3)"
    stroke="hsla(0,0%,50%,1)"
    stroke-width="1"
    transform="translate(25.7016072587,-36.7128961077) scale(1,-1) translate(50,-110)"
    />
  
  
  <line
    x1="-12.409953279347162"
    y1="-16.3068949565478"
    x2="-14.949984210845052"
    y2="-16.293017819119946"
    stroke="hsla(0,50%,50%,0.6)"
    stroke-width="1"
    transform="translate(25.7016072587,-36.7128961077) scale(1,-1) translate(50,-110)"
    />
  
  <line
    x1="-12.957112505904604"
    y1="-12.63892945971251"
    x2="-16.93900161377616"
    y2="-10.973827661781963"
    stroke="hsla(0,50%,50%,0.6)"
    stroke-width="1"
    transform="translate(25.7016072587,-36.7128961077) scale(1,-1) translate(50,-110)"
    />
  
  <line
    x1="-15.521378984196089"
    y1="-14.764948004404264"
    x2="12.486533870907602"
    y2="-14.108395345013335"
    stroke="hsla(0,50%,50%,0.6)"
    stroke-width="1"
    transform="translate(25.7016072587,-36.7128961077) scale(1,-1) translate(50,-110)"
    />
  
  <line
    x1="-16.903964957953676"
    y1="-9.94287072046943"
    x2="-17.36587552068649"
    y2="-9.832247160416948"
    stroke="hsla(0,50%,50%,0.6)"
    stroke-width="1"
    transform="translate(25.7016072587,-36.7128961077) scale(1,-1) translate(50,-110)"
    />
  
  <line
    x1="-12.38713708960929"
    y1="-14.040088927457179"
    x2="-18.313208550672346"
    y2="-7.298813053004833"
    stroke="hsla(0,50%,50%,0.6)"
    stroke-width="1"
    transform="translate(25.7016072587,-36.7128961077) scale(1,-1) translate(50,-110)"
    />
  
  <line
    x1="-14.680631952366852"
    y1="-17.013341271314303"
    x2="-12.409953279347162"
    y2="-16.3068949565478"
    stroke="hsla(0,50%,50%,0.6)"
    stroke-width="1"
    transform="translate(25.7016072587,-36.7128961077) scale(1,-1) translate(50,-110)"
    />
  
  <line
    x1="-11.912118630342738"
    y1="-6.658843542273817"
    x2="-20.46847783107438"
    y2="-1.5350187665229245"
    stroke="hsla(0,50%,50%,0.6)"
    stroke-width="1"
    transform="translate(25.7016072587,-36.7128961077) scale(1,-1) translate(50,-110)"
    />
  
  <line
    x1="5.771400292149136"
    y1="-8.762000743250951"
    x2="14.622776218946232"
    y2="-7.757548981440382"
    stroke="hsla(0,50%,50%,0.6)"
    stroke-width="1"
    transform="translate(25.7016072587,-36.7128961077) scale(1,-1) translate(50,-110)"
    />
  
  <line
    x1="-14.680631952366852"
    y1="-17.013341271314303"
    x2="16.052260024553473"
    y2="-3.5078288890723806"
    stroke="hsla(0,50%,50%,0.6)"
    stroke-width="1"
    transform="translate(25.7016072587,-36.7128961077) scale(1,-1) translate(50,-110)"
    />
  
  <line
    x1="-17.300615430621125"
    y1="-10.006770936946575"
    x2="-16.903964957953676"
    y2="-9.94287072046943"
    stroke="hsla(0,50%,50%,0.6)"
    stroke-width="1"
    transform="translate(25.7016072587,-36.7128961077) scale(1,-1) translate(50,-110)"
    />
  
  <line
    x1="-14.680631952366852"
    y1="-17.013341271314303"
    x2="-29.0466718138463"
    y2="21.405476843849915"
    stroke="hsla(0,50%,50%,0.6)"
    stroke-width="1"
    transform="translate(25.7016072587,-36.7128961077) scale(1,-1) translate(50,-110)"
    />
  
  <line
    x1="12.486533870907602"
    y1="-14.108395345013335"
    x2="23.62088115512773"
    y2="18.992965568308033"
    stroke="hsla(0,50%,50%,0.6)"
    stroke-width="1"
    transform="translate(25.7016072587,-36.7128961077) scale(1,-1) translate(50,-110)"
    />
  
  <line
    x1="23.210776309866016"
    y1="21.139626270382628"
    x2="23.856572837648635"
    y2="22.461000325401358"
    stroke="hsla(0,50%,50%,0.6)"
    stroke-width="1"
    transform="translate(25.7016072587,-36.7128961077) scale(1,-1) translate(50,-110)"
    />
  
  <line
    x1="-16.225049368448968"
    y1="8.07209732341917"
    x2="-16.94754010849707"
    y2="9.249626235442022"
    stroke="hsla(0,50%,50%,0.6)"
    stroke-width="1"
    transform="translate(25.7016072587,-36.7128961077) scale(1,-1) translate(50,-110)"
    />
  
  <line
    x1="-16.44973560248471"
    y1="10.774403241094928"
    x2="-17.13278659205203"
    y2="11.748111932598263"
    stroke="hsla(0,50%,50%,0.6)"
    stroke-width="1"
    transform="translate(25.7016072587,-36.7128961077) scale(1,-1) translate(50,-110)"
    />
  
  <line
    x1="-16.189064443210203"
    y1="9.026954286876162"
    x2="-17.13278659205203"
    y2="11.748111932598263"
    stroke="hsla(0,50%,50%,0.6)"
    stroke-width="1"
    transform="translate(25.7016072587,-36.7128961077) scale(1,-1) translate(50,-110)"
    />
  
  <line
    x1="12.486533870907602"
    y1="-14.108395345013335"
    x2="5.771400292149136"
    y2="-8.762000743250951"
    stroke="hsla(0,50%,50%,0.6)"
    stroke-width="1"
    transform="translate(25.7016072587,-36.7128961077) scale(1,-1) translate(50,-110)"
    />
  
  <line
    x1="12.113620653885354"
    y1="3.570230733285274"
    x2="19.888363892736123"
    y2="7.896544928300975"
    stroke="hsla(0,50%,50%,0.6)"
    stroke-width="1"
    transform="translate(25.7016072587,-36.7128961077) scale(1,-1) translate(50,-110)"
    />
  
  <line
    x1="-12.409953279347162"
    y1="-16.3068949565478"
    x2="-16.44973560248471"
    y2="10.774403241094928"
    stroke="hsla(0,50%,50%,0.6)"
    stroke-width="1"
    transform="translate(25.7016072587,-36.7128961077) scale(1,-1) translate(50,-110)"
    />
  
  <line
    x1="-14.949984210845052"
    y1="-16.293017819119946"
    x2="-12.38713708960929"
    y2="-14.040088927457179"
    stroke="hsla(0,50%,50%,0.6)"
    stroke-width="1"
    transform="translate(25.7016072587,-36.7128961077) scale(1,-1) translate(50,-110)"
    />
  
  <line
    x1="23.62088115512773"
    y1="18.992965568308033"
    x2="23.856572837648635"
    y2="22.461000325401358"
    stroke="hsla(0,50%,50%,0.6)"
    stroke-width="1"
    transform="translate(25.7016072587,-36.7128961077) scale(1,-1) translate(50,-110)"
    />
  
  <line
    x1="-17.13278659205203"
    y1="11.748111932598263"
    x2="-29.0466718138463"
    y2="21.405476843849915"
    stroke="hsla(0,50%,50%,0.6)"
    stroke-width="1"
    transform="translate(25.7016072587,-36.7128961077) scale(1,-1) translate(50,-110)"
    />
  
  <line
    x1="-15.521378984196089"
    y1="-14.764948004404264"
    x2="-12.957112505904604"
    y2="-12.63892945971251"
    stroke="hsla(0,50%,50%,0.6)"
    stroke-width="1"
    transform="translate(25.7016072587,-36.7128961077) scale(1,-1) translate(50,-110)"
    />
  
  <line
    x1="-14.331293997884105"
    y1="45.58992489204941"
    x2="-14.8969207352769"
    y2="51.560449596066036"
    stroke="hsla(0,50%,50%,0.6)"
    stroke-width="1"
    transform="translate(25.7016072587,-36.7128961077) scale(1,-1) translate(50,-110)"
    />
  
  <line
    x1="-13.729355612424106"
    y1="45.957715088564406"
    x2="-14.8969207352769"
    y2="51.560449596066036"
    stroke="hsla(0,50%,50%,0.6)"
    stroke-width="1"
    transform="translate(25.7016072587,-36.7128961077) scale(1,-1) translate(50,-110)"
    />
  
  <line
    x1="-18.313208550672346"
    y1="-7.298813053004833"
    x2="-18.24450203987026"
    y2="5.277027140254375"
    stroke="hsla(0,50%,50%,0.6)"
    stroke-width="1"
    transform="translate(25.7016072587,-36.7128961077) scale(1,-1) translate(50,-110)"
    />
  
  <line
    x1="-1.5193924324564876"
    y1="3.414302718905508"
    x2="8.798534346646763"
    y2="63.13561356492224"
    stroke="hsla(0,50%,50%,0.6)"
    stroke-width="1"
    transform="translate(25.7016072587,-36.7128961077) scale(1,-1) translate(50,-110)"
    />
  
  <line
    x1="5.771400292149136"
    y1="-8.762000743250951"
    x2="3.975977235767897"
    y2="7.05952999011488"
    stroke="hsla(0,50%,50%,0.6)"
    stroke-width="1"
    transform="translate(25.7016072587,-36.7128961077) scale(1,-1) translate(50,-110)"
    />
  
  <line
    x1="-17.300615430621125"
    y1="-10.006770936946575"
    x2="-11.912118630342738"
    y2="-6.658843542273817"
    stroke="hsla(0,50%,50%,0.6)"
    stroke-width="1"
    transform="translate(25.7016072587,-36.7128961077) scale(1,-1) translate(50,-110)"
    />
  
  <line
    x1="-16.903964957953676"
    y1="-9.94287072046943"
    x2="-16.189064443210203"
    y2="9.026954286876162"
    stroke="hsla(0,50%,50%,0.6)"
    stroke-width="1"
    transform="translate(25.7016072587,-36.7128961077) scale(1,-1) translate(50,-110)"
    />
  
  <line
    x1="-12.38713708960929"
    y1="-14.040088927457179"
    x2="-11.912118630342738"
    y2="-6.658843542273817"
    stroke="hsla(0,50%,50%,0.6)"
    stroke-width="1"
    transform="translate(25.7016072587,-36.7128961077) scale(1,-1) translate(50,-110)"
    />
  
  <line
    x1="3.975977235767897"
    y1="7.05952999011488"
    x2="23.73436638348796"
    y2="20.662819642751383"
    stroke="hsla(0,50%,50%,0.6)"
    stroke-width="1"
    transform="translate(25.7016072587,-36.7128961077) scale(1,-1) translate(50,-110)"
    />
  
  <line
    x1="17.287707369387327"
    y1="0.16503916568170288"
    x2="-1.5193924324564876"
    y2="3.414302718905508"
    stroke="hsla(0,50%,50%,0.6)"
    stroke-width="1"
    transform="translate(25.7016072587,-36.7128961077) scale(1,-1) translate(50,-110)"
    />
  
  <line
    x1="14.622776218946232"
    y1="-7.757548981440382"
    x2="-15.106485505898883"
    y2="20.60982962457902"
    stroke="hsla(0,50%,50%,0.6)"
    stroke-width="1"
    transform="translate(25.7016072587,-36.7128961077) scale(1,-1) translate(50,-110)"
    />
  
  <line
    x1="-1.1638918159466105"
    y1="53.63533544081489"
    x2="-3.5259681154140883"
    y2="61.17776195671971"
    stroke="hsla(0,50%,50%,0.6)"
    stroke-width="1"
    transform="translate(25.7016072587,-36.7128961077) scale(1,-1) translate(50,-110)"
    />
  
  <line
    x1="-16.93900161377616"
    y1="-10.973827661781963"
    x2="-14.145236091483941"
    y2="-5.321580542190928"
    stroke="hsla(0,50%,50%,0.6)"
    stroke-width="1"
    transform="translate(25.7016072587,-36.7128961077) scale(1,-1) translate(50,-110)"
    />
  
  <line
    x1="-17.36587552068649"
    y1="-9.832247160416948"
    x2="-14.145236091483941"
    y2="-5.321580542190928"
    stroke="hsla(0,50%,50%,0.6)"
    stroke-width="1"
    transform="translate(25.7016072587,-36.7128961077) scale(1,-1) translate(50,-110)"
    />
  
  <line
    x1="23.62088115512773"
    y1="18.992965568308033"
    x2="23.210776309866016"
    y2="21.139626270382628"
    stroke="hsla(0,50%,50%,0.6)"
    stroke-width="1"
    transform="translate(25.7016072587,-36.7128961077) scale(1,-1) translate(50,-110)"
    />
  
  <line
    x1="-29.0466718138463"
    y1="21.405476843849915"
    x2="-23.364692603268843"
    y2="53.73824027377418"
    stroke="hsla(0,50%,50%,0.6)"
    stroke-width="1"
    transform="translate(25.7016072587,-36.7128961077) scale(1,-1) translate(50,-110)"
    />
  
  <line
    x1="-20.46847783107438"
    y1="-1.5350187665229245"
    x2="-16.44973560248471"
    y2="10.774403241094928"
    stroke="hsla(0,50%,50%,0.6)"
    stroke-width="1"
    transform="translate(25.7016072587,-36.7128961077) scale(1,-1) translate(50,-110)"
    />
  
  <line
    x1="16.052260024553473"
    y1="-3.5078288890723806"
    x2="12.113620653885354"
    y2="3.570230733285274"
    stroke="hsla(0,50%,50%,0.6)"
    stroke-width="1"
    transform="translate(25.7016072587,-36.7128961077) scale(1,-1) translate(50,-110)"
    />
  
  <line
    x1="17.287707369387327"
    y1="0.16503916568170288"
    x2="3.975977235767897"
    y2="7.05952999011488"
    stroke="hsla(0,50%,50%,0.6)"
    stroke-width="1"
    transform="translate(25.7016072587,-36.7128961077) scale(1,-1) translate(50,-110)"
    />
  
  <line
    x1="-16.264107612921197"
    y1="9.530017643780335"
    x2="-24.908066701885897"
    y2="10.337686514711752"
    stroke="hsla(0,50%,50%,0.6)"
    stroke-width="1"
    transform="translate(25.7016072587,-36.7128961077) scale(1,-1) translate(50,-110)"
    />
  
  <line
    x1="19.888363892736123"
    y1="7.896544928300975"
    x2="-3.5259681154140883"
    y2="61.17776195671971"
    stroke="hsla(0,50%,50%,0.6)"
    stroke-width="1"
    transform="translate(25.7016072587,-36.7128961077) scale(1,-1) translate(50,-110)"
    />
  
  <line
    x1="23.856572837648635"
    y1="22.461000325401358"
    x2="9.97159217244548"
    y2="64.51823172627621"
    stroke="hsla(0,50%,50%,0.6)"
    stroke-width="1"
    transform="translate(25.7016072587,-36.7128961077) scale(1,-1) translate(50,-110)"
    />
  
  <line
    x1="-18.24450203987026"
    y1="5.277027140254375"
    x2="-16.225049368448968"
    y2="8.07209732341917"
    stroke="hsla(0,50%,50%,0.6)"
    stroke-width="1"
    transform="translate(25.7016072587,-36.7128961077) scale(1,-1) translate(50,-110)"
    />
  
  <line
    x1="-25.861546501373994"
    y1="52.3494828372487"
    x2="-25.71266070458134"
    y2="52.857752235781994"
    stroke="hsla(0,50%,50%,0.6)"
    stroke-width="1"
    transform="translate(25.7016072587,-36.7128961077) scale(1,-1) translate(50,-110)"
    />
  
  <line
    x1="-16.94754010849707"
    y1="9.249626235442022"
    x2="-16.264107612921197"
    y2="9.530017643780335"
    stroke="hsla(0,50%,50%,0.6)"
    stroke-width="1"
    transform="translate(25.7016072587,-36.7128961077) scale(1,-1) translate(50,-110)"
    />
  
  <line
    x1="-24.908066701885897"
    y1="10.337686514711752"
    x2="-15.106485505898883"
    y2="20.60982962457902"
    stroke="hsla(0,50%,50%,0.6)"
    stroke-width="1"
    transform="translate(25.7016072587,-36.7128961077) scale(1,-1) translate(50,-110)"
    />
  
  <line
    x1="-1.1638918159466105"
    y1="53.63533544081489"
    x2="7.143463230968851"
    y2="65.17879871161333"
    stroke="hsla(0,50%,50%,0.6)"
    stroke-width="1"
    transform="translate(25.7016072587,-36.7128961077) scale(1,-1) translate(50,-110)"
    />
  
  <line
    x1="-13.729355612424106"
    y1="45.957715088564406"
    x2="-23.364692603268843"
    y2="53.73824027377418"
    stroke="hsla(0,50%,50%,0.6)"
    stroke-width="1"
    transform="translate(25.7016072587,-36.7128961077) scale(1,-1) translate(50,-110)"
    />
  
  <line
    x1="8.798534346646763"
    y1="63.13561356492224"
    x2="9.97159217244548"
    y2="64.51823172627621"
    stroke="hsla(0,50%,50%,0.6)"
    stroke-width="1"
    transform="translate(25.7016072587,-36.7128961077) scale(1,-1) translate(50,-110)"
    />
  
  <line
    x1="23.73436638348796"
    y1="20.662819642751383"
    x2="23.210776309866016"
    y2="21.139626270382628"
    stroke="hsla(0,50%,50%,0.6)"
    stroke-width="1"
    transform="translate(25.7016072587,-36.7128961077) scale(1,-1) translate(50,-110)"
    />
  
  <line
    x1="-14.331293997884105"
    y1="45.58992489204941"
    x2="-25.71266070458134"
    y2="52.857752235781994"
    stroke="hsla(0,50%,50%,0.6)"
    stroke-width="1"
    transform="translate(25.7016072587,-36.7128961077) scale(1,-1) translate(50,-110)"
    />
  
  <line
    x1="-14.331293997884105"
    y1="45.58992489204941"
    x2="-1.1638918159466105"
    y2="53.63533544081489"
    stroke="hsla(0,50%,50%,0.6)"
    stroke-width="1"
    transform="translate(25.7016072587,-36.7128961077) scale(1,-1) translate(50,-110)"
    />
  
  <line
    x1="-25.861546501373994"
    y1="52.3494828372487"
    x2="-24.885625365697134"
    y2="53.16789048786357"
    stroke="hsla(0,50%,50%,0.6)"
    stroke-width="1"
    transform="translate(25.7016072587,-36.7128961077) scale(1,-1) translate(50,-110)"
    />
  
  <line
    x1="-14.8969207352769"
    y1="51.560449596066036"
    x2="-1.1638918159466105"
    y2="53.63533544081489"
    stroke="hsla(0,50%,50%,0.6)"
    stroke-width="1"
    transform="translate(25.7016072587,-36.7128961077) scale(1,-1) translate(50,-110)"
    />
  
  <line
    x1="8.798534346646763"
    y1="63.13561356492224"
    x2="10.260221606142599"
    y2="63.64398096750315"
    stroke="hsla(0,50%,50%,0.6)"
    stroke-width="1"
    transform="translate(25.7016072587,-36.7128961077) scale(1,-1) translate(50,-110)"
    />
  
  <line
    x1="-24.885625365697134"
    y1="53.16789048786357"
    x2="-1.1638918159466105"
    y2="53.63533544081489"
    stroke="hsla(0,50%,50%,0.6)"
    stroke-width="1"
    transform="translate(25.7016072587,-36.7128961077) scale(1,-1) translate(50,-110)"
    />
  
  <line
    x1="-25.71266070458134"
    y1="52.857752235781994"
    x2="7.143463230968851"
    y2="65.17879871161333"
    stroke="hsla(0,50%,50%,0.6)"
    stroke-width="1"
    transform="translate(25.7016072587,-36.7128961077) scale(1,-1) translate(50,-110)"
    />
  
  <line
    x1="-25.861546501373994"
    y1="52.3494828372487"
    x2="10.260221606142599"
    y2="63.64398096750315"
    stroke="hsla(0,50%,50%,0.6)"
    stroke-width="1"
    transform="translate(25.7016072587,-36.7128961077) scale(1,-1) translate(50,-110)"
    />
  
  <line
    x1="9.97159217244548"
    y1="64.51823172627621"
    x2="7.143463230968851"
    y2="65.17879871161333"
    stroke="hsla(0,50%,50%,0.6)"
    stroke-width="1"
    transform="translate(25.7016072587,-36.7128961077) scale(1,-1) translate(50,-110)"
    />
  
</svg>
