<?xml version="1.0"?>
<!DOCTYPE svg PUBLIC "-//W3C//DTD SVG 1.1//EN"
  "http://www.w3.org/Graphics/SVG/1.1/DTD/svg11.dtd">
<svg
  width="240"
  height="240"
  viewBox="-500 -500 1000 1000" xmlns="http://www.w3.org/2000/svg" version="1.1">
  <rect
    x="0"
    y="0"
    width="100"
    height="100"
    fill="hsla(206,100%,53%,0.3)"
    stroke="hsl(206,100%,53%)"
    stroke-width="3"
    transform="" />
  
  <path
    d="M 
      180.4536978232
      -147.1027993609
      L
    
      185.1079322070
      -140.1903072817
      L
    
      194.3677942712
      -136.9697743016
      L
    
      194.4041137781
      -129.0460022316
      L
    
      190.8235294117
      -122.0392156862
      L
    
      165.8636491543
      -85.3019428229
      L
    
      139.0529017287
      -102.9988072862
      L
    
      161.1983014270
      -112.3454136210
      L
    
      159.9306902859
      -118.5357876833
      L
    
      169.3661666979
      -145.6652133479
      L
    
      172.9988818153
      -144.4017734865
      z
    "
    fill="hsla(0,0%,50%,0.3)"
    stroke="hsla(0,0%,50%,1)"
    stroke-width="1"
    transform="translate(-166.7285077534,116.2023710919)"
    />
  
  
  <line
    x1="169.36616669790357"
    y1="-145.66521334797005"
    x2="194.36779427120658"
    y2="-136.9697743016455"
    stroke="hsla(0,50%,50%,0.6)"
    stroke-width="1"
    transform="translate(-166.7285077534,116.2023710919)"
    />
  
  <line
    x1="170.68918701208295"
    y1="-116.35110205028757"
    x2="180.843550295858"
    y2="-108.59518737672583"
    stroke="hsla(0,50%,50%,0.6)"
    stroke-width="1"
    transform="translate(-166.7285077534,116.2023710919)"
    />
  
  <line
    x1="161.71412587412587"
    y1="-109.82638694638695"
    x2="174.25628959276017"
    y2="-102.80458521870287"
    stroke="hsla(0,50%,50%,0.6)"
    stroke-width="1"
    transform="translate(-166.7285077534,116.2023710919)"
    />
  
  <line
    x1="161.1983014270797"
    y1="-112.34541362106972"
    x2="169.5441420118343"
    y2="-106.83660749506903"
    stroke="hsla(0,50%,50%,0.6)"
    stroke-width="1"
    transform="translate(-166.7285077534,116.2023710919)"
    />
  
  <line
    x1="176.98300352102402"
    y1="-103.31615351097705"
    x2="177.8413135535519"
    y2="-102.93130325100928"
    stroke="hsla(0,50%,50%,0.6)"
    stroke-width="1"
    transform="translate(-166.7285077534,116.2023710919)"
    />
  
  <line
    x1="157.7944339528608"
    y1="-110.9087897745433"
    x2="177.64254411656867"
    y2="-102.63874387299835"
    stroke="hsla(0,50%,50%,0.6)"
    stroke-width="1"
    transform="translate(-166.7285077534,116.2023710919)"
    />
  
  <line
    x1="184.94615535444947"
    y1="-114.70640692228308"
    x2="185.74471975196786"
    y2="-114.56395481288635"
    stroke="hsla(0,50%,50%,0.6)"
    stroke-width="1"
    transform="translate(-166.7285077534,116.2023710919)"
    />
  
  <line
    x1="160.40722949866006"
    y1="-119.90596069668815"
    x2="177.8413135535519"
    y2="-102.93130325100928"
    stroke="hsla(0,50%,50%,0.6)"
    stroke-width="1"
    transform="translate(-166.7285077534,116.2023710919)"
    />
  
  <line
    x1="170.4445765588612"
    y1="-116.24786265778195"
    x2="185.35924455602694"
    y2="-113.99659201670033"
    stroke="hsla(0,50%,50%,0.6)"
    stroke-width="1"
    transform="translate(-166.7285077534,116.2023710919)"
    />
  
  <line
    x1="176.98300352102402"
    y1="-103.31615351097705"
    x2="177.64254411656867"
    y2="-102.63874387299835"
    stroke="hsla(0,50%,50%,0.6)"
    stroke-width="1"
    transform="translate(-166.7285077534,116.2023710919)"
    />
  
  <line
    x1="166.27058146635764"
    y1="-87.99342647978516"
    x2="167.2827707190758"
    y2="-87.39068105456552"
    stroke="hsla(0,50%,50%,0.6)"
    stroke-width="1"
    transform="translate(-166.7285077534,116.2023710919)"
    />
  
  <line
    x1="139.05290172873885"
    y1="-102.9988072862281"
    x2="167.18604102089049"
    y2="-87.24830916497429"
    stroke="hsla(0,50%,50%,0.6)"
    stroke-width="1"
    transform="translate(-166.7285077534,116.2023710919)"
    />
  
  <line
    x1="166.12578232912597"
    y1="-88.2820798602842"
    x2="167.2827707190758"
    y2="-87.39068105456552"
    stroke="hsla(0,50%,50%,0.6)"
    stroke-width="1"
    transform="translate(-166.7285077534,116.2023710919)"
    />
  
  <line
    x1="139.05290172873885"
    y1="-102.9988072862281"
    x2="165.8636491543182"
    y2="-85.3019428229307"
    stroke="hsla(0,50%,50%,0.6)"
    stroke-width="1"
    transform="translate(-166.7285077534,116.2023710919)"
    />
  
  <line
    x1="164.87307390648567"
    y1="-85.99447360482655"
    x2="165.8636491543182"
    y2="-85.3019428229307"
    stroke="hsla(0,50%,50%,0.6)"
    stroke-width="1"
    transform="translate(-166.7285077534,116.2023710919)"
    />
  
  <line
    x1="166.27058146635764"
    y1="-87.99342647978516"
    x2="167.18604102089049"
    y2="-87.24830916497429"
    stroke="hsla(0,50%,50%,0.6)"
    stroke-width="1"
    transform="translate(-166.7285077534,116.2023710919)"
    />
  
  <line
    x1="159.93069028593433"
    y1="-118.5357876833221"
    x2="174.25628959276017"
    y2="-102.80458521870287"
    stroke="hsla(0,50%,50%,0.6)"
    stroke-width="1"
    transform="translate(-166.7285077534,116.2023710919)"
    />
  
  <line
    x1="180.4536978232349"
    y1="-147.10279936098243"
    x2="185.10793220702027"
    y2="-140.19030728176568"
    stroke="hsla(0,50%,50%,0.6)"
    stroke-width="1"
    transform="translate(-166.7285077534,116.2023710919)"
    />
  
  <line
    x1="156.4528586345781"
    y1="-110.34256940646081"
    x2="161.92821789070658"
    y2="-104.37486019259775"
    stroke="hsla(0,50%,50%,0.6)"
    stroke-width="1"
    transform="translate(-166.7285077534,116.2023710919)"
    />
  
  <line
    x1="145.56625458119203"
    y1="-105.74780914941681"
    x2="157.4480751827358"
    y2="-92.70016475229144"
    stroke="hsla(0,50%,50%,0.6)"
    stroke-width="1"
    transform="translate(-166.7285077534,116.2023710919)"
    />
  
  <line
    x1="168.33962181049023"
    y1="-142.71363231501067"
    x2="185.74471975196786"
    y2="-114.56395481288635"
    stroke="hsla(0,50%,50%,0.6)"
    stroke-width="1"
    transform="translate(-166.7285077534,116.2023710919)"
    />
  
  <line
    x1="184.94615535444947"
    y1="-114.70640692228308"
    x2="185.35924455602694"
    y2="-113.99659201670033"
    stroke="hsla(0,50%,50%,0.6)"
    stroke-width="1"
    transform="translate(-166.7285077534,116.2023710919)"
    />
  
  <line
    x1="181.63047450888732"
    y1="-135.6767515562364"
    x2="168.2794857410152"
    y2="-133.58721897691044"
    stroke="hsla(0,50%,50%,0.6)"
    stroke-width="1"
    transform="translate(-166.7285077534,116.2023710919)"
    />
  
  <line
    x1="170.26186280345266"
    y1="-120.92089629969841"
    x2="160.40722949866006"
    y2="-119.90596069668815"
    stroke="hsla(0,50%,50%,0.6)"
    stroke-width="1"
    transform="translate(-166.7285077534,116.2023710919)"
    />
  
  <line
    x1="180.27943056674724"
    y1="-106.51985291802124"
    x2="179.19752639517344"
    y2="-106.48374057315233"
    stroke="hsla(0,50%,50%,0.6)"
    stroke-width="1"
    transform="translate(-166.7285077534,116.2023710919)"
    />
  
  <line
    x1="179.54196078431372"
    y1="-105.43440585872904"
    x2="139.05290172873885"
    y2="-102.9988072862281"
    stroke="hsla(0,50%,50%,0.6)"
    stroke-width="1"
    transform="translate(-166.7285077534,116.2023710919)"
    />
  
  <line
    x1="152.4853572834702"
    y1="-108.6680603090009"
    x2="155.0413163307281"
    y2="-103.9605821629351"
    stroke="hsla(0,50%,50%,0.6)"
    stroke-width="1"
    transform="translate(-166.7285077534,116.2023710919)"
    />
  
  <line
    x1="157.50740147735624"
    y1="-110.78764589859612"
    x2="159.94822601229842"
    y2="-105.79699733147697"
    stroke="hsla(0,50%,50%,0.6)"
    stroke-width="1"
    transform="translate(-166.7285077534,116.2023710919)"
    />
  
  <line
    x1="180.843550295858"
    y1="-108.59518737672583"
    x2="159.94822601229842"
    y2="-105.79699733147697"
    stroke="hsla(0,50%,50%,0.6)"
    stroke-width="1"
    transform="translate(-166.7285077534,116.2023710919)"
    />
  
  <line
    x1="166.3680687617513"
    y1="-86.04437429955449"
    x2="164.87307390648567"
    y2="-85.99447360482655"
    stroke="hsla(0,50%,50%,0.6)"
    stroke-width="1"
    transform="translate(-166.7285077534,116.2023710919)"
    />
  
  <line
    x1="174.25628959276017"
    y1="-102.80458521870287"
    x2="163.4483632391949"
    y2="-101.35724554012586"
    stroke="hsla(0,50%,50%,0.6)"
    stroke-width="1"
    transform="translate(-166.7285077534,116.2023710919)"
    />
  
  <line
    x1="180.4536978232349"
    y1="-147.10279936098243"
    x2="168.33962181049023"
    y2="-142.71363231501067"
    stroke="hsla(0,50%,50%,0.6)"
    stroke-width="1"
    transform="translate(-166.7285077534,116.2023710919)"
    />
  
  <line
    x1="172.2159136790811"
    y1="-129.03709479057895"
    x2="180.27943056674724"
    y2="-106.51985291802124"
    stroke="hsla(0,50%,50%,0.6)"
    stroke-width="1"
    transform="translate(-166.7285077534,116.2023710919)"
    />
  
  <line
    x1="179.19752639517344"
    y1="-106.48374057315233"
    x2="179.54196078431372"
    y2="-105.43440585872904"
    stroke="hsla(0,50%,50%,0.6)"
    stroke-width="1"
    transform="translate(-166.7285077534,116.2023710919)"
    />
  
  <line
    x1="157.50740147735624"
    y1="-110.78764589859612"
    x2="166.3680687617513"
    y2="-86.04437429955449"
    stroke="hsla(0,50%,50%,0.6)"
    stroke-width="1"
    transform="translate(-166.7285077534,116.2023710919)"
    />
  
  <line
    x1="194.36779427120658"
    y1="-136.9697743016455"
    x2="172.2159136790811"
    y2="-129.03709479057895"
    stroke="hsla(0,50%,50%,0.6)"
    stroke-width="1"
    transform="translate(-166.7285077534,116.2023710919)"
    />
  
  <line
    x1="180.98282672344956"
    y1="-107.55514861148079"
    x2="179.72806167253225"
    y2="-107.24260231271995"
    stroke="hsla(0,50%,50%,0.6)"
    stroke-width="1"
    transform="translate(-166.7285077534,116.2023710919)"
    />
  
  <line
    x1="152.4853572834702"
    y1="-108.6680603090009"
    x2="157.4480751827358"
    y2="-92.70016475229144"
    stroke="hsla(0,50%,50%,0.6)"
    stroke-width="1"
    transform="translate(-166.7285077534,116.2023710919)"
    />
  
  <line
    x1="179.8696756704261"
    y1="-105.9167539737164"
    x2="163.4483632391949"
    y2="-101.35724554012586"
    stroke="hsla(0,50%,50%,0.6)"
    stroke-width="1"
    transform="translate(-166.7285077534,116.2023710919)"
    />
  
  <line
    x1="192.2244778280543"
    y1="-127.4854322775264"
    x2="192.65416757684505"
    y2="-125.62156134602382"
    stroke="hsla(0,50%,50%,0.6)"
    stroke-width="1"
    transform="translate(-166.7285077534,116.2023710919)"
    />
  
  <line
    x1="169.5441420118343"
    y1="-106.83660749506903"
    x2="146.00776888270101"
    y2="-98.40813551456085"
    stroke="hsla(0,50%,50%,0.6)"
    stroke-width="1"
    transform="translate(-166.7285077534,116.2023710919)"
    />
  
  <line
    x1="192.65416757684505"
    y1="-125.62156134602382"
    x2="139.05290172873885"
    y2="-102.9988072862281"
    stroke="hsla(0,50%,50%,0.6)"
    stroke-width="1"
    transform="translate(-166.7285077534,116.2023710919)"
    />
  
  <line
    x1="159.93069028593433"
    y1="-118.5357876833221"
    x2="166.12578232912597"
    y2="-88.2820798602842"
    stroke="hsla(0,50%,50%,0.6)"
    stroke-width="1"
    transform="translate(-166.7285077534,116.2023710919)"
    />
  
  <line
    x1="168.2794857410152"
    y1="-133.58721897691044"
    x2="170.26186280345266"
    y2="-120.92089629969841"
    stroke="hsla(0,50%,50%,0.6)"
    stroke-width="1"
    transform="translate(-166.7285077534,116.2023710919)"
    />
  
  <line
    x1="180.843550295858"
    y1="-108.59518737672583"
    x2="180.98282672344956"
    y2="-107.55514861148079"
    stroke="hsla(0,50%,50%,0.6)"
    stroke-width="1"
    transform="translate(-166.7285077534,116.2023710919)"
    />
  
  <line
    x1="179.72806167253225"
    y1="-107.24260231271995"
    x2="179.8696756704261"
    y2="-105.9167539737164"
    stroke="hsla(0,50%,50%,0.6)"
    stroke-width="1"
    transform="translate(-166.7285077534,116.2023710919)"
    />
  
  <line
    x1="180.4536978232349"
    y1="-147.10279936098243"
    x2="181.63047450888732"
    y2="-135.6767515562364"
    stroke="hsla(0,50%,50%,0.6)"
    stroke-width="1"
    transform="translate(-166.7285077534,116.2023710919)"
    />
  
  <line
    x1="156.4528586345781"
    y1="-110.34256940646081"
    x2="157.4480751827358"
    y2="-92.70016475229144"
    stroke="hsla(0,50%,50%,0.6)"
    stroke-width="1"
    transform="translate(-166.7285077534,116.2023710919)"
    />
  
  <line
    x1="145.56625458119203"
    y1="-105.74780914941681"
    x2="146.00776888270101"
    y2="-98.40813551456085"
    stroke="hsla(0,50%,50%,0.6)"
    stroke-width="1"
    transform="translate(-166.7285077534,116.2023710919)"
    />
  
  <line
    x1="194.36779427120658"
    y1="-136.9697743016455"
    x2="194.40411377819643"
    y2="-129.0460022316047"
    stroke="hsla(0,50%,50%,0.6)"
    stroke-width="1"
    transform="translate(-166.7285077534,116.2023710919)"
    />
  
  <line
    x1="167.186891172826"
    y1="-87.24956046359064"
    x2="164.87307390648567"
    y2="-85.99447360482655"
    stroke="hsla(0,50%,50%,0.6)"
    stroke-width="1"
    transform="translate(-166.7285077534,116.2023710919)"
    />
  
  <line
    x1="194.40411377819643"
    y1="-129.0460022316047"
    x2="192.2244778280543"
    y2="-127.4854322775264"
    stroke="hsla(0,50%,50%,0.6)"
    stroke-width="1"
    transform="translate(-166.7285077534,116.2023710919)"
    />
  
  <line
    x1="170.68918701208295"
    y1="-116.35110205028757"
    x2="167.186891172826"
    y2="-87.24956046359064"
    stroke="hsla(0,50%,50%,0.6)"
    stroke-width="1"
    transform="translate(-166.7285077534,116.2023710919)"
    />
  
  <line
    x1="161.1983014270797"
    y1="-112.34541362106972"
    x2="159.94822601229842"
    y2="-105.79699733147697"
    stroke="hsla(0,50%,50%,0.6)"
    stroke-width="1"
    transform="translate(-166.7285077534,116.2023710919)"
    />
  
  <line
    x1="189.34044478675267"
    y1="-119.85633323705915"
    x2="187.15555555555557"
    y2="-117.86666666666666"
    stroke="hsla(0,50%,50%,0.6)"
    stroke-width="1"
    transform="translate(-166.7285077534,116.2023710919)"
    />
  
  <line
    x1="169.36616669790357"
    y1="-145.66521334797005"
    x2="159.93069028593433"
    y2="-118.5357876833221"
    stroke="hsla(0,50%,50%,0.6)"
    stroke-width="1"
    transform="translate(-166.7285077534,116.2023710919)"
    />
  
  <line
    x1="185.10793220702027"
    y1="-140.19030728176568"
    x2="161.71412587412587"
    y2="-109.82638694638695"
    stroke="hsla(0,50%,50%,0.6)"
    stroke-width="1"
    transform="translate(-166.7285077534,116.2023710919)"
    />
  
  <line
    x1="157.7944339528608"
    y1="-110.9087897745433"
    x2="155.0413163307281"
    y2="-103.9605821629351"
    stroke="hsla(0,50%,50%,0.6)"
    stroke-width="1"
    transform="translate(-166.7285077534,116.2023710919)"
    />
  
  <line
    x1="170.4445765588612"
    y1="-116.24786265778195"
    x2="161.92821789070658"
    y2="-104.37486019259775"
    stroke="hsla(0,50%,50%,0.6)"
    stroke-width="1"
    transform="translate(-166.7285077534,116.2023710919)"
    />
  
  <line
    x1="190.8235294117647"
    y1="-122.03921568627452"
    x2="187.15555555555557"
    y2="-117.86666666666666"
    stroke="hsla(0,50%,50%,0.6)"
    stroke-width="1"
    transform="translate(-166.7285077534,116.2023710919)"
    />
  
  <line
    x1="192.2244778280543"
    y1="-127.4854322775264"
    x2="189.34044478675267"
    y2="-119.85633323705915"
    stroke="hsla(0,50%,50%,0.6)"
    stroke-width="1"
    transform="translate(-166.7285077534,116.2023710919)"
    />
  
  <line
    x1="187.15555555555557"
    y1="-117.86666666666666"
    x2="166.27058146635764"
    y2="-87.99342647978516"
    stroke="hsla(0,50%,50%,0.6)"
    stroke-width="1"
    transform="translate(-166.7285077534,116.2023710919)"
    />
  
  <line
    x1="174.25628959276017"
    y1="-102.80458521870287"
    x2="166.12578232912597"
    y2="-88.2820798602842"
    stroke="hsla(0,50%,50%,0.6)"
    stroke-width="1"
    transform="translate(-166.7285077534,116.2023710919)"
    />
  
  <line
    x1="190.8235294117647"
    y1="-122.03921568627452"
    x2="165.8636491543182"
    y2="-85.3019428229307"
    stroke="hsla(0,50%,50%,0.6)"
    stroke-width="1"
    transform="translate(-166.7285077534,116.2023710919)"
    />
  
  <line
    x1="194.40411377819643"
    y1="-129.0460022316047"
    x2="190.8235294117647"
    y2="-122.03921568627452"
    stroke="hsla(0,50%,50%,0.6)"
    stroke-width="1"
    transform="translate(-166.7285077534,116.2023710919)"
    />
  
</svg>
