<?xml version="1.0"?>
<!DOCTYPE svg PUBLIC "-//W3C//DTD SVG 1.1//EN"
  "http://www.w3.org/Graphics/SVG/1.1/DTD/svg11.dtd">
<svg
  width="240"
  height="240"
  viewBox="-50 -50 200 200" xmlns="http://www.w3.org/2000/svg" version="1.1">
  <rect
    x="0"
    y="0"
    width="100"
    height="100"
    fill="hsla(206,100%,53%,0.3)"
    stroke="hsl(206,100%,53%)"
    stroke-width="3"
    transform="" />
  
  <path
    d="M 
      -2.3900160918
      -13.6678130208
      L
    
      16.4830418560
      -5.1649061380
      L
    
      23.7756555009
      -4.7788389161
      L
    
      33.9047602972
      0.2857134819
      L
    
      34.0438378636
      7.1867370684
      L
    
      33.5628381728
      7.5735386453
      L
    
      -7.7945137611
      16.5340078410
      L
    
      -21.6051901828
      14.9856633115
      L
    
      -27.8032932755
      -7.5094019805
      L
    
      -2.0864119408
      -6.1479634873
      z
    "
    fill="hsla(0,0%,50%,0.3)"
    stroke="hsla(0,0%,50%,1)"
    stroke-width="1"
    transform="translate(9.2157814776,1.7490008429) scale(1,-1) translate(50,-110)"
    />
  
  
  <line
    x1="23.77565550094788"
    y1="-4.7788389161927265"
    x2="30.223418383515867"
    y2="2.932522953729507"
    stroke="hsla(0,50%,50%,0.6)"
    stroke-width="1"
    transform="translate(9.2157814776,1.7490008429) scale(1,-1) translate(50,-110)"
    />
  
  <line
    x1="28.433014352629492"
    y1="0.7912448659668415"
    x2="29.416726651619594"
    y2="1.6176904776428964"
    stroke="hsla(0,50%,50%,0.6)"
    stroke-width="1"
    transform="translate(9.2157814776,1.7490008429) scale(1,-1) translate(50,-110)"
    />
  
  <line
    x1="23.77565550094788"
    y1="-4.7788389161927265"
    x2="33.90476029728223"
    y2="0.28571348197444996"
    stroke="hsla(0,50%,50%,0.6)"
    stroke-width="1"
    transform="translate(9.2157814776,1.7490008429) scale(1,-1) translate(50,-110)"
    />
  
  <line
    x1="25.40739363200902"
    y1="-3.2946970977740206"
    x2="32.28171861973607"
    y2="7.851105553183269"
    stroke="hsla(0,50%,50%,0.6)"
    stroke-width="1"
    transform="translate(9.2157814776,1.7490008429) scale(1,-1) translate(50,-110)"
    />
  
  <line
    x1="25.826580077333464"
    y1="-3.7533766279999345"
    x2="28.433014352629492"
    y2="0.7912448659668415"
    stroke="hsla(0,50%,50%,0.6)"
    stroke-width="1"
    transform="translate(9.2157814776,1.7490008429) scale(1,-1) translate(50,-110)"
    />
  
  <line
    x1="25.40739363200902"
    y1="-3.2946970977740206"
    x2="31.89773988266096"
    y2="7.9342982501149795"
    stroke="hsla(0,50%,50%,0.6)"
    stroke-width="1"
    transform="translate(9.2157814776,1.7490008429) scale(1,-1) translate(50,-110)"
    />
  
  <line
    x1="33.77024782514167"
    y1="7.120828060975261"
    x2="33.95806362017511"
    y2="7.255713438435332"
    stroke="hsla(0,50%,50%,0.6)"
    stroke-width="1"
    transform="translate(9.2157814776,1.7490008429) scale(1,-1) translate(50,-110)"
    />
  
  <line
    x1="29.800185847994303"
    y1="0.8348865622154618"
    x2="32.99037499267382"
    y2="7.697568314867377"
    stroke="hsla(0,50%,50%,0.6)"
    stroke-width="1"
    transform="translate(9.2157814776,1.7490008429) scale(1,-1) translate(50,-110)"
    />
  
  <line
    x1="30.32411883120844"
    y1="-1.1842632017731145"
    x2="33.95806362017511"
    y2="7.255713438435332"
    stroke="hsla(0,50%,50%,0.6)"
    stroke-width="1"
    transform="translate(9.2157814776,1.7490008429) scale(1,-1) translate(50,-110)"
    />
  
  <line
    x1="21.173501697879175"
    y1="-0.7661497793773765"
    x2="30.47464486874479"
    y2="8.242625510888795"
    stroke="hsla(0,50%,50%,0.6)"
    stroke-width="1"
    transform="translate(9.2157814776,1.7490008429) scale(1,-1) translate(50,-110)"
    />
  
  <line
    x1="-2.390016091813789"
    y1="-13.66781302083662"
    x2="29.800185847994303"
    y2="0.8348865622154618"
    stroke="hsla(0,50%,50%,0.6)"
    stroke-width="1"
    transform="translate(9.2157814776,1.7490008429) scale(1,-1) translate(50,-110)"
    />
  
  <line
    x1="15.538103458753035"
    y1="-5.214930691625069"
    x2="27.509588012866153"
    y2="8.885033677224715"
    stroke="hsla(0,50%,50%,0.6)"
    stroke-width="1"
    transform="translate(9.2157814776,1.7490008429) scale(1,-1) translate(50,-110)"
    />
  
  <line
    x1="-12.576735537142522"
    y1="-6.703315832127048"
    x2="-17.322341649891214"
    y2="1.5712007157526586"
    stroke="hsla(0,50%,50%,0.6)"
    stroke-width="1"
    transform="translate(9.2157814776,1.7490008429) scale(1,-1) translate(50,-110)"
    />
  
  <line
    x1="-27.80329327558511"
    y1="-7.509401980520141"
    x2="23.77565550094788"
    y2="-4.7788389161927265"
    stroke="hsla(0,50%,50%,0.6)"
    stroke-width="1"
    transform="translate(9.2157814776,1.7490008429) scale(1,-1) translate(50,-110)"
    />
  
  <line
    x1="-10.048281475808682"
    y1="-6.569460772388646"
    x2="-21.605190182801604"
    y2="14.98566331157608"
    stroke="hsla(0,50%,50%,0.6)"
    stroke-width="1"
    transform="translate(9.2157814776,1.7490008429) scale(1,-1) translate(50,-110)"
    />
  
  <line
    x1="21.173501697879175"
    y1="-0.7661497793773765"
    x2="24.108675207816916"
    y2="9.62187423885793"
    stroke="hsla(0,50%,50%,0.6)"
    stroke-width="1"
    transform="translate(9.2157814776,1.7490008429) scale(1,-1) translate(50,-110)"
    />
  
  <line
    x1="-2.390016091813789"
    y1="-13.66781302083662"
    x2="17.720426913787044"
    y2="11.005949847570061"
    stroke="hsla(0,50%,50%,0.6)"
    stroke-width="1"
    transform="translate(9.2157814776,1.7490008429) scale(1,-1) translate(50,-110)"
    />
  
  <line
    x1="32.83209660492868"
    y1="-0.2506183642023266"
    x2="33.06670672441489"
    y2="1.6505980194798593"
    stroke="hsla(0,50%,50%,0.6)"
    stroke-width="1"
    transform="translate(9.2157814776,1.7490008429) scale(1,-1) translate(50,-110)"
    />
  
  <line
    x1="21.897182007403437"
    y1="-4.8782843384135886"
    x2="24.108675207816916"
    y2="9.62187423885793"
    stroke="hsla(0,50%,50%,0.6)"
    stroke-width="1"
    transform="translate(9.2157814776,1.7490008429) scale(1,-1) translate(50,-110)"
    />
  
  <line
    x1="33.77024782514167"
    y1="7.120828060975261"
    x2="34.04383786361295"
    y2="7.186737068484856"
    stroke="hsla(0,50%,50%,0.6)"
    stroke-width="1"
    transform="translate(9.2157814776,1.7490008429) scale(1,-1) translate(50,-110)"
    />
  
  <line
    x1="30.32411883120844"
    y1="-1.1842632017731145"
    x2="-3.0069008191426296"
    y2="-0.7915289671795498"
    stroke="hsla(0,50%,50%,0.6)"
    stroke-width="1"
    transform="translate(9.2157814776,1.7490008429) scale(1,-1) translate(50,-110)"
    />
  
  <line
    x1="-7.408663575212233"
    y1="16.30357199898406"
    x2="-7.4331706822750885"
    y2="16.455719377756534"
    stroke="hsla(0,50%,50%,0.6)"
    stroke-width="1"
    transform="translate(9.2157814776,1.7490008429) scale(1,-1) translate(50,-110)"
    />
  
  <line
    x1="33.90476029728223"
    y1="0.28571348197444996"
    x2="34.04383786361295"
    y2="7.186737068484856"
    stroke="hsla(0,50%,50%,0.6)"
    stroke-width="1"
    transform="translate(9.2157814776,1.7490008429) scale(1,-1) translate(50,-110)"
    />
  
  <line
    x1="25.826580077333464"
    y1="-3.7533766279999345"
    x2="-17.322341649891214"
    y2="1.5712007157526586"
    stroke="hsla(0,50%,50%,0.6)"
    stroke-width="1"
    transform="translate(9.2157814776,1.7490008429) scale(1,-1) translate(50,-110)"
    />
  
  <line
    x1="-3.0069008191426296"
    y1="-0.7915289671795498"
    x2="-2.8154675490141083"
    y2="15.455249455353385"
    stroke="hsla(0,50%,50%,0.6)"
    stroke-width="1"
    transform="translate(9.2157814776,1.7490008429) scale(1,-1) translate(50,-110)"
    />
  
  <line
    x1="-2.390016091813789"
    y1="-13.66781302083662"
    x2="-1.2280955976749883"
    y2="15.111330011606107"
    stroke="hsla(0,50%,50%,0.6)"
    stroke-width="1"
    transform="translate(9.2157814776,1.7490008429) scale(1,-1) translate(50,-110)"
    />
  
  <line
    x1="33.056348608976435"
    y1="-0.13849236217845026"
    x2="32.99037499267382"
    y2="7.697568314867377"
    stroke="hsla(0,50%,50%,0.6)"
    stroke-width="1"
    transform="translate(9.2157814776,1.7490008429) scale(1,-1) translate(50,-110)"
    />
  
  <line
    x1="-10.048281475808682"
    y1="-6.569460772388646"
    x2="-1.2280955976749883"
    y2="15.111330011606107"
    stroke="hsla(0,50%,50%,0.6)"
    stroke-width="1"
    transform="translate(9.2157814776,1.7490008429) scale(1,-1) translate(50,-110)"
    />
  
  <line
    x1="-27.80329327558511"
    y1="-7.509401980520141"
    x2="18.72866548730149"
    y2="10.787505235974704"
    stroke="hsla(0,50%,50%,0.6)"
    stroke-width="1"
    transform="translate(9.2157814776,1.7490008429) scale(1,-1) translate(50,-110)"
    />
  
  <line
    x1="32.70344346612643"
    y1="-0.31494493360345244"
    x2="31.89773988266096"
    y2="7.9342982501149795"
    stroke="hsla(0,50%,50%,0.6)"
    stroke-width="1"
    transform="translate(9.2157814776,1.7490008429) scale(1,-1) translate(50,-110)"
    />
  
  <line
    x1="-12.576735537142522"
    y1="-6.703315832127048"
    x2="-2.8154675490141083"
    y2="15.455249455353385"
    stroke="hsla(0,50%,50%,0.6)"
    stroke-width="1"
    transform="translate(9.2157814776,1.7490008429) scale(1,-1) translate(50,-110)"
    />
  
  <line
    x1="33.279106061927344"
    y1="-0.02711363570299493"
    x2="32.28171861973607"
    y2="7.851105553183269"
    stroke="hsla(0,50%,50%,0.6)"
    stroke-width="1"
    transform="translate(9.2157814776,1.7490008429) scale(1,-1) translate(50,-110)"
    />
  
  <line
    x1="15.538103458753035"
    y1="-5.214930691625069"
    x2="-7.1483390500636315"
    y2="16.394007857385297"
    stroke="hsla(0,50%,50%,0.6)"
    stroke-width="1"
    transform="translate(9.2157814776,1.7490008429) scale(1,-1) translate(50,-110)"
    />
  
  <line
    x1="21.897182007403437"
    y1="-4.8782843384135886"
    x2="17.720426913787044"
    y2="11.005949847570061"
    stroke="hsla(0,50%,50%,0.6)"
    stroke-width="1"
    transform="translate(9.2157814776,1.7490008429) scale(1,-1) translate(50,-110)"
    />
  
  <line
    x1="-27.80329327558511"
    y1="-7.509401980520141"
    x2="-21.605190182801604"
    y2="14.98566331157608"
    stroke="hsla(0,50%,50%,0.6)"
    stroke-width="1"
    transform="translate(9.2157814776,1.7490008429) scale(1,-1) translate(50,-110)"
    />
  
  <line
    x1="29.800185847994303"
    y1="0.8348865622154618"
    x2="27.509588012866153"
    y2="8.885033677224715"
    stroke="hsla(0,50%,50%,0.6)"
    stroke-width="1"
    transform="translate(9.2157814776,1.7490008429) scale(1,-1) translate(50,-110)"
    />
  
  <line
    x1="-17.322341649891214"
    y1="1.5712007157526586"
    x2="-7.4331706822750885"
    y2="16.455719377756534"
    stroke="hsla(0,50%,50%,0.6)"
    stroke-width="1"
    transform="translate(9.2157814776,1.7490008429) scale(1,-1) translate(50,-110)"
    />
  
  <line
    x1="25.40739363200902"
    y1="-3.2946970977740206"
    x2="-7.794513761118862"
    y2="16.534007841007405"
    stroke="hsla(0,50%,50%,0.6)"
    stroke-width="1"
    transform="translate(9.2157814776,1.7490008429) scale(1,-1) translate(50,-110)"
    />
  
  <line
    x1="33.06670672441489"
    y1="1.6505980194798593"
    x2="30.47464486874479"
    y2="8.242625510888795"
    stroke="hsla(0,50%,50%,0.6)"
    stroke-width="1"
    transform="translate(9.2157814776,1.7490008429) scale(1,-1) translate(50,-110)"
    />
  
  <line
    x1="32.83209660492868"
    y1="-0.2506183642023266"
    x2="29.27003334084319"
    y2="1.7922984759813145"
    stroke="hsla(0,50%,50%,0.6)"
    stroke-width="1"
    transform="translate(9.2157814776,1.7490008429) scale(1,-1) translate(50,-110)"
    />
  
  <line
    x1="33.77024782514167"
    y1="7.120828060975261"
    x2="33.562838172812974"
    y2="7.573538645379287"
    stroke="hsla(0,50%,50%,0.6)"
    stroke-width="1"
    transform="translate(9.2157814776,1.7490008429) scale(1,-1) translate(50,-110)"
    />
  
  <line
    x1="33.562838172812974"
    y1="7.573538645379287"
    x2="-7.794513761118862"
    y2="16.534007841007405"
    stroke="hsla(0,50%,50%,0.6)"
    stroke-width="1"
    transform="translate(9.2157814776,1.7490008429) scale(1,-1) translate(50,-110)"
    />
  
  <line
    x1="30.32411883120844"
    y1="-1.1842632017731145"
    x2="18.72866548730149"
    y2="10.787505235974704"
    stroke="hsla(0,50%,50%,0.6)"
    stroke-width="1"
    transform="translate(9.2157814776,1.7490008429) scale(1,-1) translate(50,-110)"
    />
  
  <line
    x1="29.416726651619594"
    y1="1.6176904776428964"
    x2="29.27003334084319"
    y2="1.7922984759813145"
    stroke="hsla(0,50%,50%,0.6)"
    stroke-width="1"
    transform="translate(9.2157814776,1.7490008429) scale(1,-1) translate(50,-110)"
    />
  
  <line
    x1="33.056348608976435"
    y1="-0.13849236217845026"
    x2="29.759551878793534"
    y2="2.3777503074027164"
    stroke="hsla(0,50%,50%,0.6)"
    stroke-width="1"
    transform="translate(9.2157814776,1.7490008429) scale(1,-1) translate(50,-110)"
    />
  
  <line
    x1="32.70344346612643"
    y1="-0.31494493360345244"
    x2="29.759551878793534"
    y2="2.3777503074027164"
    stroke="hsla(0,50%,50%,0.6)"
    stroke-width="1"
    transform="translate(9.2157814776,1.7490008429) scale(1,-1) translate(50,-110)"
    />
  
  <line
    x1="33.90476029728223"
    y1="0.28571348197444996"
    x2="30.223418383515867"
    y2="2.932522953729507"
    stroke="hsla(0,50%,50%,0.6)"
    stroke-width="1"
    transform="translate(9.2157814776,1.7490008429) scale(1,-1) translate(50,-110)"
    />
  
  <line
    x1="33.279106061927344"
    y1="-0.02711363570299493"
    x2="30.223418383515867"
    y2="2.932522953729507"
    stroke="hsla(0,50%,50%,0.6)"
    stroke-width="1"
    transform="translate(9.2157814776,1.7490008429) scale(1,-1) translate(50,-110)"
    />
  
  <line
    x1="-7.408663575212233"
    y1="16.30357199898406"
    x2="-7.1483390500636315"
    y2="16.394007857385297"
    stroke="hsla(0,50%,50%,0.6)"
    stroke-width="1"
    transform="translate(9.2157814776,1.7490008429) scale(1,-1) translate(50,-110)"
    />
  
  <line
    x1="-21.605190182801604"
    y1="14.98566331157608"
    x2="-7.794513761118862"
    y2="16.534007841007405"
    stroke="hsla(0,50%,50%,0.6)"
    stroke-width="1"
    transform="translate(9.2157814776,1.7490008429) scale(1,-1) translate(50,-110)"
    />
  
  <line
    x1="34.04383786361295"
    y1="7.186737068484856"
    x2="33.562838172812974"
    y2="7.573538645379287"
    stroke="hsla(0,50%,50%,0.6)"
    stroke-width="1"
    transform="translate(9.2157814776,1.7490008429) scale(1,-1) translate(50,-110)"
    />
  
</svg>
