<?xml version="1.0"?>
<!DOCTYPE svg PUBLIC "-//W3C//DTD SVG 1.1//EN"
  "http://www.w3.org/Graphics/SVG/1.1/DTD/svg11.dtd">
<svg
  width="240"
  height="240"
  viewBox="-500 -500 1000 1000" xmlns="http://www.w3.org/2000/svg" version="1.1">
  <rect
    x="0"
    y="0"
    width="100"
    height="100"
    fill="hsla(206,100%,53%,0.3)"
    stroke="hsl(206,100%,53%)"
    stroke-width="3"
    transform="" />
  
  <path
    d="M 
      96.9367091277
      626.4729471355
      L
    
      108.3067212793
      641.1391617682
      L
    
      109.5790544142
      641.1592747814
      L
    
      111.4518138827
      661.9099684938
      L
    
      103.9990684342
      664.2639999876
      L
    
      102.9141145368
      660.8290904541
      L
    
      82.7037139494
      658.2704411878
      L
    
      84.1104999801
      642.3208291339
      L
    
      82.8547009860
      642.1618442013
      L
    
      84.2781460825
      630.9182572068
      z
    "
    fill="hsla(0,0%,50%,0.3)"
    stroke="hsla(0,0%,50%,1)"
    stroke-width="1"
    transform="translate(-97.0777639160,-645.3684735616)"
    />
  
  
  <line
    x1="109.579054414212"
    y1="641.1592747814364"
    x2="111.45181388276886"
    y2="661.9099684938386"
    stroke="hsla(0,50%,50%,0.6)"
    stroke-width="1"
    transform="translate(-97.0777639160,-645.3684735616)"
    />
  
  <line
    x1="96.93670912771266"
    y1="626.472947135527"
    x2="97.20765599527809"
    y2="643.4413468183184"
    stroke="hsla(0,50%,50%,0.6)"
    stroke-width="1"
    transform="translate(-97.0777639160,-645.3684735616)"
    />
  
  <line
    x1="97.087235165249"
    y1="635.8998358481889"
    x2="101.01744928103012"
    y2="660.5889714548503"
    stroke="hsla(0,50%,50%,0.6)"
    stroke-width="1"
    transform="translate(-97.0777639160,-645.3684735616)"
    />
  
  <line
    x1="85.42892454116519"
    y1="630.5141381095015"
    x2="89.99432477666852"
    y2="659.1934370465324"
    stroke="hsla(0,50%,50%,0.6)"
    stroke-width="1"
    transform="translate(-97.0777639160,-645.3684735616)"
    />
  
  <line
    x1="85.14301684957394"
    y1="630.6145403697244"
    x2="82.70371394941668"
    y2="658.2704411878664"
    stroke="hsla(0,50%,50%,0.6)"
    stroke-width="1"
    transform="translate(-97.0777639160,-645.3684735616)"
    />
  
  <line
    x1="83.33676766326646"
    y1="651.0931157635999"
    x2="85.11871201512395"
    y2="658.5761814428533"
    stroke="hsla(0,50%,50%,0.6)"
    stroke-width="1"
    transform="translate(-97.0777639160,-645.3684735616)"
    />
  
  <line
    x1="84.27814608251043"
    y1="630.9182572068989"
    x2="82.85470098602616"
    y2="642.1618442013478"
    stroke="hsla(0,50%,50%,0.6)"
    stroke-width="1"
    transform="translate(-97.0777639160,-645.3684735616)"
    />
  
  <line
    x1="96.93670912771266"
    y1="626.472947135527"
    x2="94.42474719274041"
    y2="646.3145712433779"
    stroke="hsla(0,50%,50%,0.6)"
    stroke-width="1"
    transform="translate(-97.0777639160,-645.3684735616)"
    />
  
  <line
    x1="110.81514634685091"
    y1="654.8555158231793"
    x2="109.94618012956305"
    y2="661.7193543255878"
    stroke="hsla(0,50%,50%,0.6)"
    stroke-width="1"
    transform="translate(-97.0777639160,-645.3684735616)"
    />
  
  <line
    x1="106.47353194930834"
    y1="641.1101827530665"
    x2="110.81514634685091"
    y2="654.8555158231793"
    stroke="hsla(0,50%,50%,0.6)"
    stroke-width="1"
    transform="translate(-97.0777639160,-645.3684735616)"
    />
  
  <line
    x1="101.32179402108385"
    y1="655.7878836956825"
    x2="103.99906843422096"
    y2="664.2639999876982"
    stroke="hsla(0,50%,50%,0.6)"
    stroke-width="1"
    transform="translate(-97.0777639160,-645.3684735616)"
    />
  
  <line
    x1="85.39770304788183"
    y1="641.979798840523"
    x2="82.70371394941668"
    y2="658.2704411878664"
    stroke="hsla(0,50%,50%,0.6)"
    stroke-width="1"
    transform="translate(-97.0777639160,-645.3684735616)"
    />
  
  <line
    x1="106.47353194930834"
    y1="641.1101827530665"
    x2="101.32179402108385"
    y2="655.7878836956825"
    stroke="hsla(0,50%,50%,0.6)"
    stroke-width="1"
    transform="translate(-97.0777639160,-645.3684735616)"
    />
  
  <line
    x1="104.0657123921116"
    y1="660.0481564943206"
    x2="103.32974983093669"
    y2="662.1449709146942"
    stroke="hsla(0,50%,50%,0.6)"
    stroke-width="1"
    transform="translate(-97.0777639160,-645.3684735616)"
    />
  
  <line
    x1="110.38547239755735"
    y1="650.0946094346725"
    x2="105.5883402389739"
    y2="663.762011035235"
    stroke="hsla(0,50%,50%,0.6)"
    stroke-width="1"
    transform="translate(-97.0777639160,-645.3684735616)"
    />
  
  <line
    x1="96.93670912771266"
    y1="626.472947135527"
    x2="110.38547239755735"
    y2="650.0946094346725"
    stroke="hsla(0,50%,50%,0.6)"
    stroke-width="1"
    transform="translate(-97.0777639160,-645.3684735616)"
    />
  
  <line
    x1="85.42892454116519"
    y1="630.5141381095015"
    x2="94.42474719274041"
    y2="646.3145712433779"
    stroke="hsla(0,50%,50%,0.6)"
    stroke-width="1"
    transform="translate(-97.0777639160,-645.3684735616)"
    />
  
  <line
    x1="96.71872561442447"
    y1="643.7102727907863"
    x2="107.72288413832503"
    y2="661.437883672288"
    stroke="hsla(0,50%,50%,0.6)"
    stroke-width="1"
    transform="translate(-97.0777639160,-645.3684735616)"
    />
  
  <line
    x1="96.71872561442447"
    y1="643.7102727907863"
    x2="89.99432477666852"
    y2="659.1934370465324"
    stroke="hsla(0,50%,50%,0.6)"
    stroke-width="1"
    transform="translate(-97.0777639160,-645.3684735616)"
    />
  
  <line
    x1="109.04883860338055"
    y1="642.0964212514787"
    x2="101.01744928103012"
    y2="660.5889714548503"
    stroke="hsla(0,50%,50%,0.6)"
    stroke-width="1"
    transform="translate(-97.0777639160,-645.3684735616)"
    />
  
  <line
    x1="97.087235165249"
    y1="635.8998358481889"
    x2="85.11871201512395"
    y2="658.5761814428533"
    stroke="hsla(0,50%,50%,0.6)"
    stroke-width="1"
    transform="translate(-97.0777639160,-645.3684735616)"
    />
  
  <line
    x1="109.74463272042202"
    y1="642.9939282835384"
    x2="101.99111262436813"
    y2="657.9069127686864"
    stroke="hsla(0,50%,50%,0.6)"
    stroke-width="1"
    transform="translate(-97.0777639160,-645.3684735616)"
    />
  
  <line
    x1="96.93670912771266"
    y1="626.472947135527"
    x2="109.74463272042202"
    y2="642.9939282835384"
    stroke="hsla(0,50%,50%,0.6)"
    stroke-width="1"
    transform="translate(-97.0777639160,-645.3684735616)"
    />
  
  <line
    x1="85.14301684957394"
    y1="630.6145403697244"
    x2="97.20409090491538"
    y2="643.2180784014396"
    stroke="hsla(0,50%,50%,0.6)"
    stroke-width="1"
    transform="translate(-97.0777639160,-645.3684735616)"
    />
  
  <line
    x1="85.39770304788183"
    y1="641.979798840523"
    x2="103.50761294918411"
    y2="660.9042277217895"
    stroke="hsla(0,50%,50%,0.6)"
    stroke-width="1"
    transform="translate(-97.0777639160,-645.3684735616)"
    />
  
  <line
    x1="84.27814608251043"
    y1="630.9182572068989"
    x2="97.20765599527809"
    y2="643.4413468183184"
    stroke="hsla(0,50%,50%,0.6)"
    stroke-width="1"
    transform="translate(-97.0777639160,-645.3684735616)"
    />
  
  <line
    x1="97.20409090491538"
    y1="643.2180784014396"
    x2="94.42474719274041"
    y2="646.3145712433779"
    stroke="hsla(0,50%,50%,0.6)"
    stroke-width="1"
    transform="translate(-97.0777639160,-645.3684735616)"
    />
  
  <line
    x1="97.20765599527809"
    y1="643.4413468183184"
    x2="94.42474719274041"
    y2="646.3145712433779"
    stroke="hsla(0,50%,50%,0.6)"
    stroke-width="1"
    transform="translate(-97.0777639160,-645.3684735616)"
    />
  
  <line
    x1="101.32179402108385"
    y1="655.7878836956825"
    x2="110.35615565323272"
    y2="662.2560441778453"
    stroke="hsla(0,50%,50%,0.6)"
    stroke-width="1"
    transform="translate(-97.0777639160,-645.3684735616)"
    />
  
  <line
    x1="103.32974983093669"
    y1="662.1449709146942"
    x2="105.5883402389739"
    y2="663.762011035235"
    stroke="hsla(0,50%,50%,0.6)"
    stroke-width="1"
    transform="translate(-97.0777639160,-645.3684735616)"
    />
  
  <line
    x1="111.11614554388565"
    y1="658.1906703105626"
    x2="107.72288413832503"
    y2="661.437883672288"
    stroke="hsla(0,50%,50%,0.6)"
    stroke-width="1"
    transform="translate(-97.0777639160,-645.3684735616)"
    />
  
  <line
    x1="104.21261140170829"
    y1="653.6341210057412"
    x2="111.11614554388565"
    y2="658.1906703105626"
    stroke="hsla(0,50%,50%,0.6)"
    stroke-width="1"
    transform="translate(-97.0777639160,-645.3684735616)"
    />
  
  <line
    x1="101.99111262436813"
    y1="657.9069127686864"
    x2="110.35615565323272"
    y2="662.2560441778453"
    stroke="hsla(0,50%,50%,0.6)"
    stroke-width="1"
    transform="translate(-97.0777639160,-645.3684735616)"
    />
  
  <line
    x1="110.9444228541938"
    y1="656.2879353373355"
    x2="103.50761294918411"
    y2="660.9042277217895"
    stroke="hsla(0,50%,50%,0.6)"
    stroke-width="1"
    transform="translate(-97.0777639160,-645.3684735616)"
    />
  
  <line
    x1="104.21261140170829"
    y1="653.6341210057412"
    x2="110.9444228541938"
    y2="656.2879353373355"
    stroke="hsla(0,50%,50%,0.6)"
    stroke-width="1"
    transform="translate(-97.0777639160,-645.3684735616)"
    />
  
  <line
    x1="97.087235165249"
    y1="635.8998358481889"
    x2="85.39770304788183"
    y2="641.979798840523"
    stroke="hsla(0,50%,50%,0.6)"
    stroke-width="1"
    transform="translate(-97.0777639160,-645.3684735616)"
    />
  
  <line
    x1="104.0657123921116"
    y1="660.0481564943206"
    x2="110.35615565323272"
    y2="662.2560441778453"
    stroke="hsla(0,50%,50%,0.6)"
    stroke-width="1"
    transform="translate(-97.0777639160,-645.3684735616)"
    />
  
  <line
    x1="96.93670912771266"
    y1="626.472947135527"
    x2="84.27814608251043"
    y2="630.9182572068989"
    stroke="hsla(0,50%,50%,0.6)"
    stroke-width="1"
    transform="translate(-97.0777639160,-645.3684735616)"
    />
  
  <line
    x1="109.97945780388699"
    y1="645.5958552606987"
    x2="108.07989659719061"
    y2="646.195852528276"
    stroke="hsla(0,50%,50%,0.6)"
    stroke-width="1"
    transform="translate(-97.0777639160,-645.3684735616)"
    />
  
  <line
    x1="82.85470098602616"
    y1="642.1618442013478"
    x2="109.97945780388699"
    y2="645.5958552606987"
    stroke="hsla(0,50%,50%,0.6)"
    stroke-width="1"
    transform="translate(-97.0777639160,-645.3684735616)"
    />
  
  <line
    x1="111.45181388276886"
    y1="661.9099684938386"
    x2="103.99906843422096"
    y2="664.2639999876982"
    stroke="hsla(0,50%,50%,0.6)"
    stroke-width="1"
    transform="translate(-97.0777639160,-645.3684735616)"
    />
  
  <line
    x1="107.65673112083981"
    y1="645.3017966200631"
    x2="83.33676766326646"
    y2="651.0931157635999"
    stroke="hsla(0,50%,50%,0.6)"
    stroke-width="1"
    transform="translate(-97.0777639160,-645.3684735616)"
    />
  
  <line
    x1="82.70371394941668"
    y1="658.2704411878664"
    x2="111.45181388276886"
    y2="661.9099684938386"
    stroke="hsla(0,50%,50%,0.6)"
    stroke-width="1"
    transform="translate(-97.0777639160,-645.3684735616)"
    />
  
  <line
    x1="109.579054414212"
    y1="641.1592747814364"
    x2="96.71872561442447"
    y2="643.7102727907863"
    stroke="hsla(0,50%,50%,0.6)"
    stroke-width="1"
    transform="translate(-97.0777639160,-645.3684735616)"
    />
  
  <line
    x1="106.47353194930834"
    y1="641.1101827530665"
    x2="109.579054414212"
    y2="641.1592747814364"
    stroke="hsla(0,50%,50%,0.6)"
    stroke-width="1"
    transform="translate(-97.0777639160,-645.3684735616)"
    />
  
  <line
    x1="109.04883860338055"
    y1="642.0964212514787"
    x2="87.81087249012344"
    y2="645.4772505983872"
    stroke="hsla(0,50%,50%,0.6)"
    stroke-width="1"
    transform="translate(-97.0777639160,-645.3684735616)"
    />
  
</svg>
