<?xml version="1.0"?>
<!DOCTYPE svg PUBLIC "-//W3C//DTD SVG 1.1//EN"
  "http://www.w3.org/Graphics/SVG/1.1/DTD/svg11.dtd">
<svg
  width="240"
  height="240"
  viewBox="-500 -500 1000 1000" xmlns="http://www.w3.org/2000/svg" version="1.1">
  <rect
    x="0"
    y="0"
    width="100"
    height="100"
    fill="hsla(206,100%,53%,0.3)"
    stroke="hsl(206,100%,53%)"
    stroke-width="3"
    transform="" />
  
  <path
    d="M 
      598.6999811005
      61.2695915409
      L
    
      656.6154274988
      75.1373484522
      L
    
      657.4005649349
      75.7899669286
      L
    
      657.4122191982
      76.0057587363
      L
    
      617.8829746093
      94.7876539881
      L
    
      595.2698461822
      100.1732825132
      L
    
      589.1544251056
      90.3220861645
      L
    
      590.6686738256
      88.5003581554
      L
    
      589.0817087441
      85.2043032515
      z
    "
    fill="hsla(0,0%,50%,0.3)"
    stroke="hsla(0,0%,50%,1)"
    stroke-width="1"
    transform="translate(-623.2469639711,-80.7214370270)"
    />
  
  
  <line
    x1="652.0465063790659"
    y1="75.34346929609127"
    x2="654.1000420140973"
    y2="77.57950408808661"
    stroke="hsla(0,50%,50%,0.6)"
    stroke-width="1"
    transform="translate(-623.2469639711,-80.7214370270)"
    />
  
  <line
    x1="651.3773458873324"
    y1="73.88309855888932"
    x2="653.9198903655707"
    y2="76.33924928063692"
    stroke="hsla(0,50%,50%,0.6)"
    stroke-width="1"
    transform="translate(-623.2469639711,-80.7214370270)"
    />
  
  <line
    x1="656.399787291118"
    y1="75.08571376468647"
    x2="657.4122191982513"
    y2="76.00575873638532"
    stroke="hsla(0,50%,50%,0.6)"
    stroke-width="1"
    transform="translate(-623.2469639711,-80.7214370270)"
    />
  
  <line
    x1="631.8545143800687"
    y1="69.20838916095501"
    x2="643.9649476301621"
    y2="82.39508513612954"
    stroke="hsla(0,50%,50%,0.6)"
    stroke-width="1"
    transform="translate(-623.2469639711,-80.7214370270)"
    />
  
  <line
    x1="656.6154274988058"
    y1="75.13734845226118"
    x2="657.4005649349585"
    y2="75.7899669286365"
    stroke="hsla(0,50%,50%,0.6)"
    stroke-width="1"
    transform="translate(-623.2469639711,-80.7214370270)"
    />
  
  <line
    x1="621.9229938099517"
    y1="91.69522249884832"
    x2="622.5813265639803"
    y2="92.55528260879034"
    stroke="hsla(0,50%,50%,0.6)"
    stroke-width="1"
    transform="translate(-623.2469639711,-80.7214370270)"
    />
  
  <line
    x1="618.9768688636315"
    y1="93.95033295822566"
    x2="619.180281087833"
    y2="94.17125277325442"
    stroke="hsla(0,50%,50%,0.6)"
    stroke-width="1"
    transform="translate(-623.2469639711,-80.7214370270)"
    />
  
  <line
    x1="649.9054526056966"
    y1="73.53065617091609"
    x2="651.6319874436533"
    y2="76.66158470974655"
    stroke="hsla(0,50%,50%,0.6)"
    stroke-width="1"
    transform="translate(-623.2469639711,-80.7214370270)"
    />
  
  <line
    x1="618.9768688636315"
    y1="93.95033295822566"
    x2="619.1309203384182"
    y2="94.19470600224226"
    stroke="hsla(0,50%,50%,0.6)"
    stroke-width="1"
    transform="translate(-623.2469639711,-80.7214370270)"
    />
  
  <line
    x1="652.8411005682108"
    y1="74.23359217250407"
    x2="653.9198903655707"
    y2="76.33924928063692"
    stroke="hsla(0,50%,50%,0.6)"
    stroke-width="1"
    transform="translate(-623.2469639711,-80.7214370270)"
    />
  
  <line
    x1="614.2028644165981"
    y1="69.96487697795665"
    x2="619.3570084620856"
    y2="79.01704487315224"
    stroke="hsla(0,50%,50%,0.6)"
    stroke-width="1"
    transform="translate(-623.2469639711,-80.7214370270)"
    />
  
  <line
    x1="597.9546686814291"
    y1="69.72272960209696"
    x2="612.9016864133429"
    y2="95.9740164981642"
    stroke="hsla(0,50%,50%,0.6)"
    stroke-width="1"
    transform="translate(-623.2469639711,-80.7214370270)"
    />
  
  <line
    x1="589.1544251056769"
    y1="90.32208616450468"
    x2="595.2698461822466"
    y2="100.17328251320725"
    stroke="hsla(0,50%,50%,0.6)"
    stroke-width="1"
    transform="translate(-623.2469639711,-80.7214370270)"
    />
  
  <line
    x1="646.6667176379909"
    y1="72.75514649214233"
    x2="648.7867546227546"
    y2="77.17286455768915"
    stroke="hsla(0,50%,50%,0.6)"
    stroke-width="1"
    transform="translate(-623.2469639711,-80.7214370270)"
    />
  
  <line
    x1="589.0817087441163"
    y1="85.20430325152093"
    x2="592.7969567398271"
    y2="92.92070578496588"
    stroke="hsla(0,50%,50%,0.6)"
    stroke-width="1"
    transform="translate(-623.2469639711,-80.7214370270)"
    />
  
  <line
    x1="653.0634566706216"
    y1="74.28683496985349"
    x2="653.6426260530832"
    y2="75.84160323936513"
    stroke="hsla(0,50%,50%,0.6)"
    stroke-width="1"
    transform="translate(-623.2469639711,-80.7214370270)"
    />
  
  <line
    x1="615.699741504146"
    y1="83.99995282223097"
    x2="619.1309203384182"
    y2="94.19470600224226"
    stroke="hsla(0,50%,50%,0.6)"
    stroke-width="1"
    transform="translate(-623.2469639711,-80.7214370270)"
    />
  
  <line
    x1="606.5785851889455"
    y1="63.156110131281245"
    x2="617.2734563228594"
    y2="94.93281917752134"
    stroke="hsla(0,50%,50%,0.6)"
    stroke-width="1"
    transform="translate(-623.2469639711,-80.7214370270)"
    />
  
  <line
    x1="642.9751548090015"
    y1="75.5808521559503"
    x2="650.9988086178234"
    y2="79.05302176862504"
    stroke="hsla(0,50%,50%,0.6)"
    stroke-width="1"
    transform="translate(-623.2469639711,-80.7214370270)"
    />
  
  <line
    x1="604.0696229044738"
    y1="72.3782482509699"
    x2="619.3570084620856"
    y2="79.01704487315224"
    stroke="hsla(0,50%,50%,0.6)"
    stroke-width="1"
    transform="translate(-623.2469639711,-80.7214370270)"
    />
  
  <line
    x1="616.1238549339246"
    y1="65.44170902947747"
    x2="622.5813265639803"
    y2="92.55528260879034"
    stroke="hsla(0,50%,50%,0.6)"
    stroke-width="1"
    transform="translate(-623.2469639711,-80.7214370270)"
    />
  
  <line
    x1="603.9384247014782"
    y1="62.52392811207845"
    x2="609.2503603927116"
    y2="85.90034195997455"
    stroke="hsla(0,50%,50%,0.6)"
    stroke-width="1"
    transform="translate(-623.2469639711,-80.7214370270)"
    />
  
  <line
    x1="653.3754819223681"
    y1="74.36154889524845"
    x2="653.6426260530832"
    y2="75.84160323936513"
    stroke="hsla(0,50%,50%,0.6)"
    stroke-width="1"
    transform="translate(-623.2469639711,-80.7214370270)"
    />
  
  <line
    x1="653.9198903655707"
    y1="76.33924928063692"
    x2="654.1000420140973"
    y2="77.57950408808661"
    stroke="hsla(0,50%,50%,0.6)"
    stroke-width="1"
    transform="translate(-623.2469639711,-80.7214370270)"
    />
  
  <line
    x1="642.9751548090015"
    y1="75.5808521559503"
    x2="643.9649476301621"
    y2="82.39508513612954"
    stroke="hsla(0,50%,50%,0.6)"
    stroke-width="1"
    transform="translate(-623.2469639711,-80.7214370270)"
    />
  
  <line
    x1="617.9944778318547"
    y1="85.93327447685739"
    x2="619.180281087833"
    y2="94.17125277325442"
    stroke="hsla(0,50%,50%,0.6)"
    stroke-width="1"
    transform="translate(-623.2469639711,-80.7214370270)"
    />
  
  <line
    x1="615.699741504146"
    y1="83.99995282223097"
    x2="617.2734563228594"
    y2="94.93281917752134"
    stroke="hsla(0,50%,50%,0.6)"
    stroke-width="1"
    transform="translate(-623.2469639711,-80.7214370270)"
    />
  
  <line
    x1="598.6999811005999"
    y1="61.26959154094819"
    x2="656.6154274988058"
    y2="75.13734845226118"
    stroke="hsla(0,50%,50%,0.6)"
    stroke-width="1"
    transform="translate(-623.2469639711,-80.7214370270)"
    />
  
  <line
    x1="657.4005649349585"
    y1="75.7899669286365"
    x2="657.4122191982513"
    y2="76.00575873638532"
    stroke="hsla(0,50%,50%,0.6)"
    stroke-width="1"
    transform="translate(-623.2469639711,-80.7214370270)"
    />
  
  <line
    x1="592.3160843655573"
    y1="77.15568025627896"
    x2="592.7969567398271"
    y2="92.92070578496588"
    stroke="hsla(0,50%,50%,0.6)"
    stroke-width="1"
    transform="translate(-623.2469639711,-80.7214370270)"
    />
  
  <line
    x1="614.2028644165981"
    y1="69.96487697795665"
    x2="612.9016864133429"
    y2="95.9740164981642"
    stroke="hsla(0,50%,50%,0.6)"
    stroke-width="1"
    transform="translate(-623.2469639711,-80.7214370270)"
    />
  
  <line
    x1="598.6999811005999"
    y1="61.26959154094819"
    x2="595.2698461822466"
    y2="100.17328251320725"
    stroke="hsla(0,50%,50%,0.6)"
    stroke-width="1"
    transform="translate(-623.2469639711,-80.7214370270)"
    />
  
  <line
    x1="657.0034764121178"
    y1="76.19996847335122"
    x2="651.6319874436533"
    y2="76.66158470974655"
    stroke="hsla(0,50%,50%,0.6)"
    stroke-width="1"
    transform="translate(-623.2469639711,-80.7214370270)"
    />
  
  <line
    x1="644.5690931440282"
    y1="82.1080318955159"
    x2="617.9944778318547"
    y2="85.93327447685739"
    stroke="hsla(0,50%,50%,0.6)"
    stroke-width="1"
    transform="translate(-623.2469639711,-80.7214370270)"
    />
  
  <line
    x1="652.0465063790659"
    y1="75.34346929609127"
    x2="650.9988086178234"
    y2="79.05302176862504"
    stroke="hsla(0,50%,50%,0.6)"
    stroke-width="1"
    transform="translate(-623.2469639711,-80.7214370270)"
    />
  
  <line
    x1="617.0401720399929"
    y1="69.28913302151294"
    x2="604.0696229044738"
    y2="72.3782482509699"
    stroke="hsla(0,50%,50%,0.6)"
    stroke-width="1"
    transform="translate(-623.2469639711,-80.7214370270)"
    />
  
  <line
    x1="656.6154274988058"
    y1="75.13734845226118"
    x2="609.2503603927116"
    y2="85.90034195997455"
    stroke="hsla(0,50%,50%,0.6)"
    stroke-width="1"
    transform="translate(-623.2469639711,-80.7214370270)"
    />
  
  <line
    x1="598.6999811005999"
    y1="61.26959154094819"
    x2="589.0817087441163"
    y2="85.20430325152093"
    stroke="hsla(0,50%,50%,0.6)"
    stroke-width="1"
    transform="translate(-623.2469639711,-80.7214370270)"
    />
  
  <line
    x1="652.0465063790659"
    y1="75.34346929609127"
    x2="589.1544251056769"
    y2="90.32208616450468"
    stroke="hsla(0,50%,50%,0.6)"
    stroke-width="1"
    transform="translate(-623.2469639711,-80.7214370270)"
    />
  
  <line
    x1="617.8829746093029"
    y1="94.78765398816716"
    x2="595.2698461822466"
    y2="100.17328251320725"
    stroke="hsla(0,50%,50%,0.6)"
    stroke-width="1"
    transform="translate(-623.2469639711,-80.7214370270)"
    />
  
  <line
    x1="656.399787291118"
    y1="75.08571376468647"
    x2="648.7867546227546"
    y2="77.17286455768915"
    stroke="hsla(0,50%,50%,0.6)"
    stroke-width="1"
    transform="translate(-623.2469639711,-80.7214370270)"
    />
  
  <line
    x1="651.3773458873324"
    y1="73.88309855888932"
    x2="647.7437347024116"
    y2="74.9994270290329"
    stroke="hsla(0,50%,50%,0.6)"
    stroke-width="1"
    transform="translate(-623.2469639711,-80.7214370270)"
    />
  
  <line
    x1="631.8545143800687"
    y1="69.20838916095501"
    x2="589.0817087441163"
    y2="85.20430325152093"
    stroke="hsla(0,50%,50%,0.6)"
    stroke-width="1"
    transform="translate(-623.2469639711,-80.7214370270)"
    />
  
  <line
    x1="657.4122191982513"
    y1="76.00575873638532"
    x2="617.8829746093029"
    y2="94.78765398816716"
    stroke="hsla(0,50%,50%,0.6)"
    stroke-width="1"
    transform="translate(-623.2469639711,-80.7214370270)"
    />
  
  <line
    x1="603.9384247014782"
    y1="62.52392811207845"
    x2="597.9546686814291"
    y2="69.72272960209696"
    stroke="hsla(0,50%,50%,0.6)"
    stroke-width="1"
    transform="translate(-623.2469639711,-80.7214370270)"
    />
  
  <line
    x1="604.0696229044738"
    y1="72.3782482509699"
    x2="589.1544251056769"
    y2="90.32208616450468"
    stroke="hsla(0,50%,50%,0.6)"
    stroke-width="1"
    transform="translate(-623.2469639711,-80.7214370270)"
    />
  
  <line
    x1="616.1238549339246"
    y1="65.44170902947747"
    x2="592.7969567398271"
    y2="92.92070578496588"
    stroke="hsla(0,50%,50%,0.6)"
    stroke-width="1"
    transform="translate(-623.2469639711,-80.7214370270)"
    />
  
  <line
    x1="606.5785851889455"
    y1="63.156110131281245"
    x2="592.3160843655573"
    y2="77.15568025627896"
    stroke="hsla(0,50%,50%,0.6)"
    stroke-width="1"
    transform="translate(-623.2469639711,-80.7214370270)"
    />
  
  <line
    x1="653.3754819223681"
    y1="74.36154889524845"
    x2="651.6319874436533"
    y2="76.66158470974655"
    stroke="hsla(0,50%,50%,0.6)"
    stroke-width="1"
    transform="translate(-623.2469639711,-80.7214370270)"
    />
  
  <line
    x1="649.9054526056966"
    y1="73.53065617091609"
    x2="647.7437347024116"
    y2="74.9994270290329"
    stroke="hsla(0,50%,50%,0.6)"
    stroke-width="1"
    transform="translate(-623.2469639711,-80.7214370270)"
    />
  
  <line
    x1="646.6667176379909"
    y1="72.75514649214233"
    x2="617.8829746093029"
    y2="94.78765398816716"
    stroke="hsla(0,50%,50%,0.6)"
    stroke-width="1"
    transform="translate(-623.2469639711,-80.7214370270)"
    />
  
  <line
    x1="652.8411005682108"
    y1="74.23359217250407"
    x2="648.7867546227546"
    y2="77.17286455768915"
    stroke="hsla(0,50%,50%,0.6)"
    stroke-width="1"
    transform="translate(-623.2469639711,-80.7214370270)"
    />
  
  <line
    x1="657.4005649349585"
    y1="75.7899669286365"
    x2="657.0034764121178"
    y2="76.19996847335122"
    stroke="hsla(0,50%,50%,0.6)"
    stroke-width="1"
    transform="translate(-623.2469639711,-80.7214370270)"
    />
  
  <line
    x1="653.0634566706216"
    y1="74.28683496985349"
    x2="644.5690931440282"
    y2="82.1080318955159"
    stroke="hsla(0,50%,50%,0.6)"
    stroke-width="1"
    transform="translate(-623.2469639711,-80.7214370270)"
    />
  
</svg>
