<?xml version="1.0"?>
<!DOCTYPE svg PUBLIC "-//W3C//DTD SVG 1.1//EN"
  "http://www.w3.org/Graphics/SVG/1.1/DTD/svg11.dtd">
<svg
  width="240"
  height="240"
  viewBox="-50 -50 200 200" xmlns="http://www.w3.org/2000/svg" version="1.1">
  <rect
    x="0"
    y="0"
    width="100"
    height="100"
    fill="hsla(206,100%,53%,0.3)"
    stroke="hsl(206,100%,53%)"
    stroke-width="3"
    transform="" />
  
  <path
    d="M 
      -477.7186594656
      307.8600086879
      L
    
      -456.4756069743
      320.4117281750
      L
    
      -461.9849360449
      331.0414770310
      L
    
      -469.4833331840
      336.2231524125
      L
    
      -522.3409321589
      347.6764374749
      L
    
      -523.5950571926
      348.7359480565
      L
    
      -524.1973308565
      348.0786854749
      L
    
      -540.1494931851
      351.5352303436
      L
    
      -545.7159310956
      339.9858952280
      L
    
      -546.7717536864
      340.2784367166
      L
    
      -548.3901750381
      334.4373307835
      z
    "
    fill="hsla(0,0%,50%,0.3)"
    stroke="hsla(0,0%,50%,1)"
    stroke-width="1"
    transform="translate(545.1535212289,-338.3736273401) scale(1,-1) translate(50,-110)"
    />
  
  
  <line
    x1="-490.93943860638734"
    y1="312.8319256297525"
    x2="-497.3875969593039"
    y2="326.59534748671905"
    stroke="hsla(0,50%,50%,0.6)"
    stroke-width="1"
    transform="translate(545.1535212289,-338.3736273401) scale(1,-1) translate(50,-110)"
    />
  
  <line
    x1="-456.4756069743711"
    y1="320.4117281750896"
    x2="-461.984936044949"
    y2="331.04147703106145"
    stroke="hsla(0,50%,50%,0.6)"
    stroke-width="1"
    transform="translate(545.1535212289,-338.3736273401) scale(1,-1) translate(50,-110)"
    />
  
  <line
    x1="-466.46732344999043"
    y1="331.5671866205621"
    x2="-469.4833331840445"
    y2="336.2231524125591"
    stroke="hsla(0,50%,50%,0.6)"
    stroke-width="1"
    transform="translate(545.1535212289,-338.3736273401) scale(1,-1) translate(50,-110)"
    />
  
  <line
    x1="-456.4756069743711"
    y1="320.4117281750896"
    x2="-464.1932853665773"
    y2="331.95896484895985"
    stroke="hsla(0,50%,50%,0.6)"
    stroke-width="1"
    transform="translate(545.1535212289,-338.3736273401) scale(1,-1) translate(50,-110)"
    />
  
  <line
    x1="-477.7186594656816"
    y1="307.8600086879486"
    x2="-478.68338006400876"
    y2="310.7936409663676"
    stroke="hsla(0,50%,50%,0.6)"
    stroke-width="1"
    transform="translate(545.1535212289,-338.3736273401) scale(1,-1) translate(50,-110)"
    />
  
  <line
    x1="-535.4245049197315"
    y1="329.5613522775058"
    x2="-537.3717910460541"
    y2="338.047127358354"
    stroke="hsla(0,50%,50%,0.6)"
    stroke-width="1"
    transform="translate(545.1535212289,-338.3736273401) scale(1,-1) translate(50,-110)"
    />
  
  <line
    x1="-491.88915687616355"
    y1="313.1890846371897"
    x2="-493.8433418578044"
    y2="323.60108799643046"
    stroke="hsla(0,50%,50%,0.6)"
    stroke-width="1"
    transform="translate(545.1535212289,-338.3736273401) scale(1,-1) translate(50,-110)"
    />
  
  <line
    x1="-520.845931393493"
    y1="324.0788118060999"
    x2="-537.3717910460541"
    y2="338.047127358354"
    stroke="hsla(0,50%,50%,0.6)"
    stroke-width="1"
    transform="translate(545.1535212289,-338.3736273401) scale(1,-1) translate(50,-110)"
    />
  
  <line
    x1="-478.68338006400876"
    y1="310.7936409663676"
    x2="-523.5950571926103"
    y2="348.7359480565647"
    stroke="hsla(0,50%,50%,0.6)"
    stroke-width="1"
    transform="translate(545.1535212289,-338.3736273401) scale(1,-1) translate(50,-110)"
    />
  
  <line
    x1="-539.6941102676489"
    y1="331.16701582714995"
    x2="-540.1494931851435"
    y2="351.53523034366305"
    stroke="hsla(0,50%,50%,0.6)"
    stroke-width="1"
    transform="translate(545.1535212289,-338.3736273401) scale(1,-1) translate(50,-110)"
    />
  
  <line
    x1="-490.7322007526421"
    y1="312.75399002663465"
    x2="-490.7352922933483"
    y2="312.92144416750085"
    stroke="hsla(0,50%,50%,0.6)"
    stroke-width="1"
    transform="translate(545.1535212289,-338.3736273401) scale(1,-1) translate(50,-110)"
    />
  
  <line
    x1="-490.10600844158125"
    y1="312.5184989011075"
    x2="-490.7352922933483"
    y2="312.92144416750085"
    stroke="hsla(0,50%,50%,0.6)"
    stroke-width="1"
    transform="translate(545.1535212289,-338.3736273401) scale(1,-1) translate(50,-110)"
    />
  
  <line
    x1="-500.81113565487925"
    y1="316.5443587078178"
    x2="-520.8564224047558"
    y2="328.9472582890009"
    stroke="hsla(0,50%,50%,0.6)"
    stroke-width="1"
    transform="translate(545.1535212289,-338.3736273401) scale(1,-1) translate(50,-110)"
    />
  
  <line
    x1="-461.984936044949"
    y1="331.04147703106145"
    x2="-469.4833331840445"
    y2="336.2231524125591"
    stroke="hsla(0,50%,50%,0.6)"
    stroke-width="1"
    transform="translate(545.1535212289,-338.3736273401) scale(1,-1) translate(50,-110)"
    />
  
  <line
    x1="-490.2838128737914"
    y1="312.58536552518655"
    x2="-489.1563988405332"
    y2="333.3165235719629"
    stroke="hsla(0,50%,50%,0.6)"
    stroke-width="1"
    transform="translate(545.1535212289,-338.3736273401) scale(1,-1) translate(50,-110)"
    />
  
  <line
    x1="-537.8140370624657"
    y1="330.4599797499871"
    x2="-537.3717910460541"
    y2="338.047127358354"
    stroke="hsla(0,50%,50%,0.6)"
    stroke-width="1"
    transform="translate(545.1535212289,-338.3736273401) scale(1,-1) translate(50,-110)"
    />
  
  <line
    x1="-523.2981397147703"
    y1="325.00100980726404"
    x2="-519.613376916481"
    y2="347.0854256181327"
    stroke="hsla(0,50%,50%,0.6)"
    stroke-width="1"
    transform="translate(545.1535212289,-338.3736273401) scale(1,-1) translate(50,-110)"
    />
  
  <line
    x1="-477.7186594656816"
    y1="307.8600086879486"
    x2="-548.3901750381794"
    y2="334.43733078358883"
    stroke="hsla(0,50%,50%,0.6)"
    stroke-width="1"
    transform="translate(545.1535212289,-338.3736273401) scale(1,-1) translate(50,-110)"
    />
  
  <line
    x1="-525.3190323758344"
    y1="325.76100362851895"
    x2="-519.613376916481"
    y2="347.0854256181327"
    stroke="hsla(0,50%,50%,0.6)"
    stroke-width="1"
    transform="translate(545.1535212289,-338.3736273401) scale(1,-1) translate(50,-110)"
    />
  
  <line
    x1="-466.46732344999043"
    y1="331.5671866205621"
    x2="-465.8034229183499"
    y2="333.6801955544257"
    stroke="hsla(0,50%,50%,0.6)"
    stroke-width="1"
    transform="translate(545.1535212289,-338.3736273401) scale(1,-1) translate(50,-110)"
    />
  
  <line
    x1="-548.3901750381794"
    y1="334.43733078358883"
    x2="-546.7717536864832"
    y2="340.2784367166103"
    stroke="hsla(0,50%,50%,0.6)"
    stroke-width="1"
    transform="translate(545.1535212289,-338.3736273401) scale(1,-1) translate(50,-110)"
    />
  
  <line
    x1="-497.3875969593039"
    y1="326.59534748671905"
    x2="-546.7717536864832"
    y2="340.2784367166103"
    stroke="hsla(0,50%,50%,0.6)"
    stroke-width="1"
    transform="translate(545.1535212289,-338.3736273401) scale(1,-1) translate(50,-110)"
    />
  
  <line
    x1="-471.34236135518984"
    y1="311.6275230450316"
    x2="-464.1932853665773"
    y2="331.95896484895985"
    stroke="hsla(0,50%,50%,0.6)"
    stroke-width="1"
    transform="translate(545.1535212289,-338.3736273401) scale(1,-1) translate(50,-110)"
    />
  
  <line
    x1="-469.4833331840445"
    y1="336.2231524125591"
    x2="-540.1494931851435"
    y2="351.53523034366305"
    stroke="hsla(0,50%,50%,0.6)"
    stroke-width="1"
    transform="translate(545.1535212289,-338.3736273401) scale(1,-1) translate(50,-110)"
    />
  
  <line
    x1="-471.34236135518984"
    y1="311.6275230450316"
    x2="-500.81113565487925"
    y2="316.5443587078178"
    stroke="hsla(0,50%,50%,0.6)"
    stroke-width="1"
    transform="translate(545.1535212289,-338.3736273401) scale(1,-1) translate(50,-110)"
    />
  
  <line
    x1="-478.68338006400876"
    y1="310.7936409663676"
    x2="-490.10600844158125"
    y2="312.5184989011075"
    stroke="hsla(0,50%,50%,0.6)"
    stroke-width="1"
    transform="translate(545.1535212289,-338.3736273401) scale(1,-1) translate(50,-110)"
    />
  
  <line
    x1="-525.3190323758344"
    y1="325.76100362851895"
    x2="-516.8167676873567"
    y2="343.00950989176033"
    stroke="hsla(0,50%,50%,0.6)"
    stroke-width="1"
    transform="translate(545.1535212289,-338.3736273401) scale(1,-1) translate(50,-110)"
    />
  
  <line
    x1="-461.984936044949"
    y1="331.04147703106145"
    x2="-466.46732344999043"
    y2="331.5671866205621"
    stroke="hsla(0,50%,50%,0.6)"
    stroke-width="1"
    transform="translate(545.1535212289,-338.3736273401) scale(1,-1) translate(50,-110)"
    />
  
  <line
    x1="-548.3901750381794"
    y1="334.43733078358883"
    x2="-540.1494931851435"
    y2="351.53523034366305"
    stroke="hsla(0,50%,50%,0.6)"
    stroke-width="1"
    transform="translate(545.1535212289,-338.3736273401) scale(1,-1) translate(50,-110)"
    />
  
  <line
    x1="-464.1932853665773"
    y1="331.95896484895985"
    x2="-489.1563988405332"
    y2="333.3165235719629"
    stroke="hsla(0,50%,50%,0.6)"
    stroke-width="1"
    transform="translate(545.1535212289,-338.3736273401) scale(1,-1) translate(50,-110)"
    />
  
  <line
    x1="-493.8433418578044"
    y1="323.60108799643046"
    x2="-520.845931393493"
    y2="324.0788118060999"
    stroke="hsla(0,50%,50%,0.6)"
    stroke-width="1"
    transform="translate(545.1535212289,-338.3736273401) scale(1,-1) translate(50,-110)"
    />
  
  <line
    x1="-523.2981397147703"
    y1="325.00100980726404"
    x2="-520.8564224047558"
    y2="328.9472582890009"
    stroke="hsla(0,50%,50%,0.6)"
    stroke-width="1"
    transform="translate(545.1535212289,-338.3736273401) scale(1,-1) translate(50,-110)"
    />
  
  <line
    x1="-490.2838128737914"
    y1="312.58536552518655"
    x2="-486.50595385213757"
    y2="317.4023119375056"
    stroke="hsla(0,50%,50%,0.6)"
    stroke-width="1"
    transform="translate(545.1535212289,-338.3736273401) scale(1,-1) translate(50,-110)"
    />
  
  <line
    x1="-537.8140370624657"
    y1="330.4599797499871"
    x2="-523.5950571926103"
    y2="348.7359480565647"
    stroke="hsla(0,50%,50%,0.6)"
    stroke-width="1"
    transform="translate(545.1535212289,-338.3736273401) scale(1,-1) translate(50,-110)"
    />
  
  <line
    x1="-490.7322007526421"
    y1="312.75399002663465"
    x2="-486.50595385213757"
    y2="317.4023119375056"
    stroke="hsla(0,50%,50%,0.6)"
    stroke-width="1"
    transform="translate(545.1535212289,-338.3736273401) scale(1,-1) translate(50,-110)"
    />
  
  <line
    x1="-539.6941102676489"
    y1="331.16701582714995"
    x2="-523.5950571926103"
    y2="348.7359480565647"
    stroke="hsla(0,50%,50%,0.6)"
    stroke-width="1"
    transform="translate(545.1535212289,-338.3736273401) scale(1,-1) translate(50,-110)"
    />
  
  <line
    x1="-491.88915687616355"
    y1="313.1890846371897"
    x2="-465.8034229183499"
    y2="333.6801955544257"
    stroke="hsla(0,50%,50%,0.6)"
    stroke-width="1"
    transform="translate(545.1535212289,-338.3736273401) scale(1,-1) translate(50,-110)"
    />
  
  <line
    x1="-477.7186594656816"
    y1="307.8600086879486"
    x2="-456.4756069743711"
    y2="320.4117281750896"
    stroke="hsla(0,50%,50%,0.6)"
    stroke-width="1"
    transform="translate(545.1535212289,-338.3736273401) scale(1,-1) translate(50,-110)"
    />
  
  <line
    x1="-490.93943860638734"
    y1="312.8319256297525"
    x2="-490.7352922933483"
    y2="312.92144416750085"
    stroke="hsla(0,50%,50%,0.6)"
    stroke-width="1"
    transform="translate(545.1535212289,-338.3736273401) scale(1,-1) translate(50,-110)"
    />
  
  <line
    x1="-535.4245049197315"
    y1="329.5613522775058"
    x2="-516.8167676873567"
    y2="343.00950989176033"
    stroke="hsla(0,50%,50%,0.6)"
    stroke-width="1"
    transform="translate(545.1535212289,-338.3736273401) scale(1,-1) translate(50,-110)"
    />
  
</svg>
