<?xml version="1.0"?>
<!DOCTYPE svg PUBLIC "-//W3C//DTD SVG 1.1//EN"
  "http://www.w3.org/Graphics/SVG/1.1/DTD/svg11.dtd">
<svg
  width="240"
  height="240"
  viewBox="-50 -50 200 200" xmlns="http://www.w3.org/2000/svg" version="1.1">
  <rect
    x="0"
    y="0"
    width="100"
    height="100"
    fill="hsla(206,100%,53%,0.3)"
    stroke="hsl(206,100%,53%)"
    stroke-width="3"
    transform="" />
  
  <path
    d="M 
      -106.6666666666
      -86.6666666666
      L
    
      -85.4575313563
      -65.4575313563
      L
    
      -86.1413824335
      -63.8179662027
      L
    
      -88.0550099644
      -64.3741413245
      L
    
      -101.9873461710
      -58.5630620266
      L
    
      -104.0227547134
      -54.3564595523
      L
    
      -109.2510682726
      -55.5334147008
      L
    
      -114.5258669327
      -53.3333333333
      L
    
      -140.0938171131
      -53.3333333333
      L
    
      -140.4621993127
      -66.5816151202
      L
    
      -139.7724570404
      -70.1137714797
      z
    "
    fill="hsla(0,0%,50%,0.3)"
    stroke="hsla(0,0%,50%,1)"
    stroke-width="1"
    transform="translate(136.2074307961,65.2692170738) scale(1,-1) translate(50,-110)"
    />
  
  
  <line
    x1="-106.66666666666667"
    y1="-86.66666666666667"
    x2="-139.77245704047562"
    y2="-70.11377147976219"
    stroke="hsla(0,50%,50%,0.6)"
    stroke-width="1"
    transform="translate(136.2074307961,65.2692170738) scale(1,-1) translate(50,-110)"
    />
  
  <line
    x1="-100.63494026383064"
    y1="-79.53781323849036"
    x2="-111.33890020075587"
    y2="-75.08239153886845"
    stroke="hsla(0,50%,50%,0.6)"
    stroke-width="1"
    transform="translate(136.2074307961,65.2692170738) scale(1,-1) translate(50,-110)"
    />
  
  <line
    x1="-133.89796457837696"
    y1="-65.96034892942109"
    x2="-139.89320644990747"
    y2="-60.54797779540048"
    stroke="hsla(0,50%,50%,0.6)"
    stroke-width="1"
    transform="translate(136.2074307961,65.2692170738) scale(1,-1) translate(50,-110)"
    />
  
  <line
    x1="-133.89796457837696"
    y1="-65.96034892942109"
    x2="-139.80068728522338"
    y2="-63.875282876540105"
    stroke="hsla(0,50%,50%,0.6)"
    stroke-width="1"
    transform="translate(136.2074307961,65.2692170738) scale(1,-1) translate(50,-110)"
    />
  
  <line
    x1="-97.22047895637407"
    y1="-77.22047895637407"
    x2="-140.25887743413517"
    y2="-59.26946609672282"
    stroke="hsla(0,50%,50%,0.6)"
    stroke-width="1"
    transform="translate(136.2074307961,65.2692170738) scale(1,-1) translate(50,-110)"
    />
  
  <line
    x1="-105.27673919778088"
    y1="-85.27673919778088"
    x2="-111.60174902972943"
    y2="-84.19912548513528"
    stroke="hsla(0,50%,50%,0.6)"
    stroke-width="1"
    transform="translate(136.2074307961,65.2692170738) scale(1,-1) translate(50,-110)"
    />
  
  <line
    x1="-111.60174902972943"
    y1="-84.19912548513528"
    x2="-119.24932142951984"
    y2="-76.95167066277745"
    stroke="hsla(0,50%,50%,0.6)"
    stroke-width="1"
    transform="translate(136.2074307961,65.2692170738) scale(1,-1) translate(50,-110)"
    />
  
  <line
    x1="-100.03986051475167"
    y1="-73.76267914671398"
    x2="-108.08330037864297"
    y2="-70.19514707467769"
    stroke="hsla(0,50%,50%,0.6)"
    stroke-width="1"
    transform="translate(136.2074307961,65.2692170738) scale(1,-1) translate(50,-110)"
    />
  
  <line
    x1="-94.34910459792725"
    y1="-74.34910459792725"
    x2="-108.28756216385082"
    y2="-67.60483632648581"
    stroke="hsla(0,50%,50%,0.6)"
    stroke-width="1"
    transform="translate(136.2074307961,65.2692170738) scale(1,-1) translate(50,-110)"
    />
  
  <line
    x1="-130.1961377713955"
    y1="-59.86929292496303"
    x2="-136.7918105919246"
    y2="-53.333333333333336"
    stroke="hsla(0,50%,50%,0.6)"
    stroke-width="1"
    transform="translate(136.2074307961,65.2692170738) scale(1,-1) translate(50,-110)"
    />
  
  <line
    x1="-138.4446206714248"
    y1="-58.628601638910915"
    x2="-140.1873796306786"
    y2="-56.69816094558362"
    stroke="hsla(0,50%,50%,0.6)"
    stroke-width="1"
    transform="translate(136.2074307961,65.2692170738) scale(1,-1) translate(50,-110)"
    />
  
  <line
    x1="-103.17368440941013"
    y1="-83.17368440941013"
    x2="-111.33890020075587"
    y2="-75.08239153886845"
    stroke="hsla(0,50%,50%,0.6)"
    stroke-width="1"
    transform="translate(136.2074307961,65.2692170738) scale(1,-1) translate(50,-110)"
    />
  
  <line
    x1="-103.17368440941013"
    y1="-83.17368440941013"
    x2="-132.7438790112758"
    y2="-53.333333333333336"
    stroke="hsla(0,50%,50%,0.6)"
    stroke-width="1"
    transform="translate(136.2074307961,65.2692170738) scale(1,-1) translate(50,-110)"
    />
  
  <line
    x1="-85.45753135638901"
    y1="-65.45753135638901"
    x2="-114.52586693272994"
    y2="-53.333333333333336"
    stroke="hsla(0,50%,50%,0.6)"
    stroke-width="1"
    transform="translate(136.2074307961,65.2692170738) scale(1,-1) translate(50,-110)"
    />
  
  <line
    x1="-96.88668062742993"
    y1="-76.88668062742993"
    x2="-111.97862950513355"
    y2="-76.04274098973289"
    stroke="hsla(0,50%,50%,0.6)"
    stroke-width="1"
    transform="translate(136.2074307961,65.2692170738) scale(1,-1) translate(50,-110)"
    />
  
  <line
    x1="-85.80004422660885"
    y1="-65.80004422660885"
    x2="-116.42075357119123"
    y2="-60.526781571870075"
    stroke="hsla(0,50%,50%,0.6)"
    stroke-width="1"
    transform="translate(136.2074307961,65.2692170738) scale(1,-1) translate(50,-110)"
    />
  
  <line
    x1="-86.8556669053166"
    y1="-66.8556669053166"
    x2="-89.0639480082779"
    y2="-64.66737824263598"
    stroke="hsla(0,50%,50%,0.6)"
    stroke-width="1"
    transform="translate(136.2074307961,65.2692170738) scale(1,-1) translate(50,-110)"
    />
  
  <line
    x1="-86.8556669053166"
    y1="-66.8556669053166"
    x2="-90.20219331147166"
    y2="-63.478566274442564"
    stroke="hsla(0,50%,50%,0.6)"
    stroke-width="1"
    transform="translate(136.2074307961,65.2692170738) scale(1,-1) translate(50,-110)"
    />
  
  <line
    x1="-97.87470276564817"
    y1="-72.38910210819942"
    x2="-100.63911903167119"
    y2="-68.03157636898035"
    stroke="hsla(0,50%,50%,0.6)"
    stroke-width="1"
    transform="translate(136.2074307961,65.2692170738) scale(1,-1) translate(50,-110)"
    />
  
  <line
    x1="-90.20219331147166"
    y1="-63.478566274442564"
    x2="-130.2021906735626"
    y2="-63.46403930924153"
    stroke="hsla(0,50%,50%,0.6)"
    stroke-width="1"
    transform="translate(136.2074307961,65.2692170738) scale(1,-1) translate(50,-110)"
    />
  
  <line
    x1="-106.66666666666667"
    y1="-86.66666666666667"
    x2="-114.0372071888075"
    y2="-71.92558562238501"
    stroke="hsla(0,50%,50%,0.6)"
    stroke-width="1"
    transform="translate(136.2074307961,65.2692170738) scale(1,-1) translate(50,-110)"
    />
  
  <line
    x1="-104.03358660497483"
    y1="-55.743167738366154"
    x2="-109.9766216879619"
    y2="-55.69674534622988"
    stroke="hsla(0,50%,50%,0.6)"
    stroke-width="1"
    transform="translate(136.2074307961,65.2692170738) scale(1,-1) translate(50,-110)"
    />
  
  <line
    x1="-140.0938171131457"
    y1="-53.333333333333336"
    x2="-114.52586693272994"
    y2="-53.333333333333336"
    stroke="hsla(0,50%,50%,0.6)"
    stroke-width="1"
    transform="translate(136.2074307961,65.2692170738) scale(1,-1) translate(50,-110)"
    />
  
  <line
    x1="-94.34910459792725"
    y1="-74.34910459792725"
    x2="-104.02275471347636"
    y2="-54.35645955233584"
    stroke="hsla(0,50%,50%,0.6)"
    stroke-width="1"
    transform="translate(136.2074307961,65.2692170738) scale(1,-1) translate(50,-110)"
    />
  
  <line
    x1="-119.24932142951984"
    y1="-76.95167066277745"
    x2="-90.36306527976633"
    y2="-70.36306527976633"
    stroke="hsla(0,50%,50%,0.6)"
    stroke-width="1"
    transform="translate(136.2074307961,65.2692170738) scale(1,-1) translate(50,-110)"
    />
  
  <line
    x1="-97.22047895637407"
    y1="-77.22047895637407"
    x2="-101.00834644426614"
    y2="-68.13888831859532"
    stroke="hsla(0,50%,50%,0.6)"
    stroke-width="1"
    transform="translate(136.2074307961,65.2692170738) scale(1,-1) translate(50,-110)"
    />
  
  <line
    x1="-107.83063922561428"
    y1="-84.33872154877143"
    x2="-102.43744284810617"
    y2="-82.43744284810617"
    stroke="hsla(0,50%,50%,0.6)"
    stroke-width="1"
    transform="translate(136.2074307961,65.2692170738) scale(1,-1) translate(50,-110)"
    />
  
  <line
    x1="-85.45753135638901"
    y1="-65.45753135638901"
    x2="-86.14138243351482"
    y2="-63.81796620277358"
    stroke="hsla(0,50%,50%,0.6)"
    stroke-width="1"
    transform="translate(136.2074307961,65.2692170738) scale(1,-1) translate(50,-110)"
    />
  
  <line
    x1="-133.89796457837696"
    y1="-65.96034892942109"
    x2="-137.10127826941985"
    y2="-53.333333333333336"
    stroke="hsla(0,50%,50%,0.6)"
    stroke-width="1"
    transform="translate(136.2074307961,65.2692170738) scale(1,-1) translate(50,-110)"
    />
  
  <line
    x1="-114.0372071888075"
    y1="-71.92558562238501"
    x2="-86.14138243351482"
    y2="-63.81796620277358"
    stroke="hsla(0,50%,50%,0.6)"
    stroke-width="1"
    transform="translate(136.2074307961,65.2692170738) scale(1,-1) translate(50,-110)"
    />
  
  <line
    x1="-109.9766216879619"
    y1="-55.69674534622988"
    x2="-104.02275471347636"
    y2="-54.35645955233584"
    stroke="hsla(0,50%,50%,0.6)"
    stroke-width="1"
    transform="translate(136.2074307961,65.2692170738) scale(1,-1) translate(50,-110)"
    />
  
  <line
    x1="-139.77245704047562"
    y1="-70.11377147976219"
    x2="-140.46219931271477"
    y2="-66.58161512027492"
    stroke="hsla(0,50%,50%,0.6)"
    stroke-width="1"
    transform="translate(136.2074307961,65.2692170738) scale(1,-1) translate(50,-110)"
    />
  
  <line
    x1="-105.27673919778088"
    y1="-85.27673919778088"
    x2="-108.28756216385082"
    y2="-67.60483632648581"
    stroke="hsla(0,50%,50%,0.6)"
    stroke-width="1"
    transform="translate(136.2074307961,65.2692170738) scale(1,-1) translate(50,-110)"
    />
  
  <line
    x1="-100.03986051475167"
    y1="-73.76267914671398"
    x2="-101.00834644426614"
    y2="-68.13888831859532"
    stroke="hsla(0,50%,50%,0.6)"
    stroke-width="1"
    transform="translate(136.2074307961,65.2692170738) scale(1,-1) translate(50,-110)"
    />
  
  <line
    x1="-85.80004422660885"
    y1="-65.80004422660885"
    x2="-86.14138243351482"
    y2="-63.81796620277358"
    stroke="hsla(0,50%,50%,0.6)"
    stroke-width="1"
    transform="translate(136.2074307961,65.2692170738) scale(1,-1) translate(50,-110)"
    />
  
  <line
    x1="-140.25887743413517"
    y1="-59.26946609672282"
    x2="-138.4446206714248"
    y2="-58.628601638910915"
    stroke="hsla(0,50%,50%,0.6)"
    stroke-width="1"
    transform="translate(136.2074307961,65.2692170738) scale(1,-1) translate(50,-110)"
    />
  
  <line
    x1="-107.83063922561428"
    y1="-84.33872154877143"
    x2="-100.63494026383064"
    y2="-79.53781323849036"
    stroke="hsla(0,50%,50%,0.6)"
    stroke-width="1"
    transform="translate(136.2074307961,65.2692170738) scale(1,-1) translate(50,-110)"
    />
  
  <line
    x1="-100.03986051475167"
    y1="-73.76267914671398"
    x2="-97.87470276564817"
    y2="-72.38910210819942"
    stroke="hsla(0,50%,50%,0.6)"
    stroke-width="1"
    transform="translate(136.2074307961,65.2692170738) scale(1,-1) translate(50,-110)"
    />
  
  <line
    x1="-96.88668062742993"
    y1="-76.88668062742993"
    x2="-97.37871416221931"
    y2="-68.08777532488872"
    stroke="hsla(0,50%,50%,0.6)"
    stroke-width="1"
    transform="translate(136.2074307961,65.2692170738) scale(1,-1) translate(50,-110)"
    />
  
  <line
    x1="-139.80068728522338"
    y1="-63.875282876540105"
    x2="-114.52586693272994"
    y2="-53.333333333333336"
    stroke="hsla(0,50%,50%,0.6)"
    stroke-width="1"
    transform="translate(136.2074307961,65.2692170738) scale(1,-1) translate(50,-110)"
    />
  
  <line
    x1="-139.80068728522338"
    y1="-63.875282876540105"
    x2="-140.0938171131457"
    y2="-53.333333333333336"
    stroke="hsla(0,50%,50%,0.6)"
    stroke-width="1"
    transform="translate(136.2074307961,65.2692170738) scale(1,-1) translate(50,-110)"
    />
  
  <line
    x1="-139.77245704047562"
    y1="-70.11377147976219"
    x2="-109.9766216879619"
    y2="-55.69674534622988"
    stroke="hsla(0,50%,50%,0.6)"
    stroke-width="1"
    transform="translate(136.2074307961,65.2692170738) scale(1,-1) translate(50,-110)"
    />
  
  <line
    x1="-130.1961377713955"
    y1="-59.86929292496303"
    x2="-130.1985114629906"
    y2="-53.333333333333336"
    stroke="hsla(0,50%,50%,0.6)"
    stroke-width="1"
    transform="translate(136.2074307961,65.2692170738) scale(1,-1) translate(50,-110)"
    />
  
  <line
    x1="-100.63494026383064"
    y1="-79.53781323849036"
    x2="-100.63911903167119"
    y2="-68.03157636898035"
    stroke="hsla(0,50%,50%,0.6)"
    stroke-width="1"
    transform="translate(136.2074307961,65.2692170738) scale(1,-1) translate(50,-110)"
    />
  
  <line
    x1="-130.2021906735626"
    y1="-63.46403930924153"
    x2="-130.1985114629906"
    y2="-53.333333333333336"
    stroke="hsla(0,50%,50%,0.6)"
    stroke-width="1"
    transform="translate(136.2074307961,65.2692170738) scale(1,-1) translate(50,-110)"
    />
  
  <line
    x1="-104.03358660497483"
    y1="-55.743167738366154"
    x2="-104.02275471347636"
    y2="-54.35645955233584"
    stroke="hsla(0,50%,50%,0.6)"
    stroke-width="1"
    transform="translate(136.2074307961,65.2692170738) scale(1,-1) translate(50,-110)"
    />
  
  <line
    x1="-140.46219931271477"
    y1="-66.58161512027492"
    x2="-140.0938171131457"
    y2="-53.333333333333336"
    stroke="hsla(0,50%,50%,0.6)"
    stroke-width="1"
    transform="translate(136.2074307961,65.2692170738) scale(1,-1) translate(50,-110)"
    />
  
  <line
    x1="-114.0372071888075"
    y1="-71.92558562238501"
    x2="-108.28756216385082"
    y2="-67.60483632648581"
    stroke="hsla(0,50%,50%,0.6)"
    stroke-width="1"
    transform="translate(136.2074307961,65.2692170738) scale(1,-1) translate(50,-110)"
    />
  
  <line
    x1="-106.66666666666667"
    y1="-86.66666666666667"
    x2="-85.45753135638901"
    y2="-65.45753135638901"
    stroke="hsla(0,50%,50%,0.6)"
    stroke-width="1"
    transform="translate(136.2074307961,65.2692170738) scale(1,-1) translate(50,-110)"
    />
  
  <line
    x1="-90.36306527976633"
    y1="-70.36306527976633"
    x2="-89.0639480082779"
    y2="-64.66737824263598"
    stroke="hsla(0,50%,50%,0.6)"
    stroke-width="1"
    transform="translate(136.2074307961,65.2692170738) scale(1,-1) translate(50,-110)"
    />
  
  <line
    x1="-119.24932142951984"
    y1="-76.95167066277745"
    x2="-116.42075357119123"
    y2="-60.526781571870075"
    stroke="hsla(0,50%,50%,0.6)"
    stroke-width="1"
    transform="translate(136.2074307961,65.2692170738) scale(1,-1) translate(50,-110)"
    />
  
  <line
    x1="-102.43744284810617"
    y1="-82.43744284810617"
    x2="-97.37871416221931"
    y2="-68.08777532488872"
    stroke="hsla(0,50%,50%,0.6)"
    stroke-width="1"
    transform="translate(136.2074307961,65.2692170738) scale(1,-1) translate(50,-110)"
    />
  
  <line
    x1="-111.97862950513355"
    y1="-76.04274098973289"
    x2="-108.08330037864297"
    y2="-70.19514707467769"
    stroke="hsla(0,50%,50%,0.6)"
    stroke-width="1"
    transform="translate(136.2074307961,65.2692170738) scale(1,-1) translate(50,-110)"
    />
  
  <line
    x1="-140.46219931271477"
    y1="-66.58161512027492"
    x2="-137.10127826941985"
    y2="-53.333333333333336"
    stroke="hsla(0,50%,50%,0.6)"
    stroke-width="1"
    transform="translate(136.2074307961,65.2692170738) scale(1,-1) translate(50,-110)"
    />
  
  <line
    x1="-139.89320644990747"
    y1="-60.54797779540048"
    x2="-132.7438790112758"
    y2="-53.333333333333336"
    stroke="hsla(0,50%,50%,0.6)"
    stroke-width="1"
    transform="translate(136.2074307961,65.2692170738) scale(1,-1) translate(50,-110)"
    />
  
  <line
    x1="-140.1873796306786"
    y1="-56.69816094558362"
    x2="-136.7918105919246"
    y2="-53.333333333333336"
    stroke="hsla(0,50%,50%,0.6)"
    stroke-width="1"
    transform="translate(136.2074307961,65.2692170738) scale(1,-1) translate(50,-110)"
    />
  
</svg>
