<?xml version="1.0"?>
<!DOCTYPE svg PUBLIC "-//W3C//DTD SVG 1.1//EN"
  "http://www.w3.org/Graphics/SVG/1.1/DTD/svg11.dtd">
<svg
  width="240"
  height="240"
  viewBox="-50 -50 200 200" xmlns="http://www.w3.org/2000/svg" version="1.1">
  <rect
    x="0"
    y="0"
    width="100"
    height="100"
    fill="hsla(206,100%,53%,0.3)"
    stroke="hsl(206,100%,53%)"
    stroke-width="3"
    transform="" />
  
  <path
    d="M 
      -7.7943772974
      105.8457829731
      L
    
      0.1605477517
      114.6302215025
      L
    
      -42.5202538097
      166.8627159723
      L
    
      -66.4741424039
      159.7065143808
      L
    
      -62.6813799105
      147.0110349329
      z
    "
    fill="hsla(0,0%,50%,0.3)"
    stroke="hsla(0,0%,50%,1)"
    stroke-width="1"
    transform="translate(53.7513716290,-148.0697358379) scale(1,-1) translate(50,-110)"
    />
  
  
  <line
    x1="-62.68137991054923"
    y1="147.01103493291194"
    x2="-66.47414240391117"
    y2="159.70651438081865"
    stroke="hsla(0,50%,50%,0.6)"
    stroke-width="1"
    transform="translate(53.7513716290,-148.0697358379) scale(1,-1) translate(50,-110)"
    />
  
  <line
    x1="-42.42677824267783"
    y1="137.71269177126916"
    x2="-42.636392305266476"
    y2="142.63639230526647"
    stroke="hsla(0,50%,50%,0.6)"
    stroke-width="1"
    transform="translate(53.7513716290,-148.0697358379) scale(1,-1) translate(50,-110)"
    />
  
  <line
    x1="-46.874124742479786"
    y1="141.66588865998204"
    x2="-46.908277474977105"
    y2="146.9082774749771"
    stroke="hsla(0,50%,50%,0.6)"
    stroke-width="1"
    transform="translate(53.7513716290,-148.0697358379) scale(1,-1) translate(50,-110)"
    />
  
  <line
    x1="-28.04107115323805"
    y1="121.03080336492854"
    x2="-28.146049141706932"
    y2="137.14475362097903"
    stroke="hsla(0,50%,50%,0.6)"
    stroke-width="1"
    transform="translate(53.7513716290,-148.0697358379) scale(1,-1) translate(50,-110)"
    />
  
  <line
    x1="-10.679886685552407"
    y1="108.0099150141643"
    x2="-13.176689976689977"
    y2="129.85920745920745"
    stroke="hsla(0,50%,50%,0.6)"
    stroke-width="1"
    transform="translate(53.7513716290,-148.0697358379) scale(1,-1) translate(50,-110)"
    />
  
  <line
    x1="-58.881249469484764"
    y1="144.16093710211356"
    x2="-60.84360534664794"
    y2="148.61496853383264"
    stroke="hsla(0,50%,50%,0.6)"
    stroke-width="1"
    transform="translate(53.7513716290,-148.0697358379) scale(1,-1) translate(50,-110)"
    />
  
  <line
    x1="-48.081225262433314"
    y1="141.52469454482878"
    x2="-48.02413273001508"
    y2="142.8657616892911"
    stroke="hsla(0,50%,50%,0.6)"
    stroke-width="1"
    transform="translate(53.7513716290,-148.0697358379) scale(1,-1) translate(50,-110)"
    />
  
  <line
    x1="-38.718214585493506"
    y1="129.03866093912012"
    x2="-38.042012322320865"
    y2="138.04201232232086"
    stroke="hsla(0,50%,50%,0.6)"
    stroke-width="1"
    transform="translate(53.7513716290,-148.0697358379) scale(1,-1) translate(50,-110)"
    />
  
  <line
    x1="-8.540145985401459"
    y1="107.5912408759124"
    x2="-8.401114206128133"
    y2="108.40111420612813"
    stroke="hsla(0,50%,50%,0.6)"
    stroke-width="1"
    transform="translate(53.7513716290,-148.0697358379) scale(1,-1) translate(50,-110)"
    />
  
  <line
    x1="-20.377281947261665"
    y1="125.43340094658554"
    x2="-23.339563354417464"
    y2="134.8054501348931"
    stroke="hsla(0,50%,50%,0.6)"
    stroke-width="1"
    transform="translate(53.7513716290,-148.0697358379) scale(1,-1) translate(50,-110)"
    />
  
  <line
    x1="-42.77305668984292"
    y1="136.94036714122797"
    x2="-42.18816303037178"
    y2="142.18816303037178"
    stroke="hsla(0,50%,50%,0.6)"
    stroke-width="1"
    transform="translate(53.7513716290,-148.0697358379) scale(1,-1) translate(50,-110)"
    />
  
  <line
    x1="-8.058608058608058"
    y1="106.95970695970696"
    x2="-7.807807807807808"
    y2="107.8078078078078"
    stroke="hsla(0,50%,50%,0.6)"
    stroke-width="1"
    transform="translate(53.7513716290,-148.0697358379) scale(1,-1) translate(50,-110)"
    />
  
  <line
    x1="-35.89604391081675"
    y1="126.92203293311256"
    x2="-33.897812867321996"
    y2="137.24091829198522"
    stroke="hsla(0,50%,50%,0.6)"
    stroke-width="1"
    transform="translate(53.7513716290,-148.0697358379) scale(1,-1) translate(50,-110)"
    />
  
  <line
    x1="-43.34774465701633"
    y1="138.53132858401452"
    x2="-42.5756872453453"
    y2="142.5756872453453"
    stroke="hsla(0,50%,50%,0.6)"
    stroke-width="1"
    transform="translate(53.7513716290,-148.0697358379) scale(1,-1) translate(50,-110)"
    />
  
  <line
    x1="-27.81543682963045"
    y1="120.86157762222284"
    x2="-27.746096355691083"
    y2="121.11475647884704"
    stroke="hsla(0,50%,50%,0.6)"
    stroke-width="1"
    transform="translate(53.7513716290,-148.0697358379) scale(1,-1) translate(50,-110)"
    />
  
  <line
    x1="-39.05795583747232"
    y1="134.71818296664208"
    x2="-38.154550782077756"
    y2="138.15455078207776"
    stroke="hsla(0,50%,50%,0.6)"
    stroke-width="1"
    transform="translate(53.7513716290,-148.0697358379) scale(1,-1) translate(50,-110)"
    />
  
  <line
    x1="-7.573795960642155"
    y1="106.73226307612636"
    x2="-7.307476110174255"
    y2="107.30747611017425"
    stroke="hsla(0,50%,50%,0.6)"
    stroke-width="1"
    transform="translate(53.7513716290,-148.0697358379) scale(1,-1) translate(50,-110)"
    />
  
  <line
    x1="-42.223205804771446"
    y1="131.66740435357858"
    x2="-39.68806584444009"
    y2="139.6880658444401"
    stroke="hsla(0,50%,50%,0.6)"
    stroke-width="1"
    transform="translate(53.7513716290,-148.0697358379) scale(1,-1) translate(50,-110)"
    />
  
  <line
    x1="-38.67116953190581"
    y1="129.00337714892936"
    x2="-35.94288287300345"
    y2="135.94288287300344"
    stroke="hsla(0,50%,50%,0.6)"
    stroke-width="1"
    transform="translate(53.7513716290,-148.0697358379) scale(1,-1) translate(50,-110)"
    />
  
  <line
    x1="-7.794377297480576"
    y1="105.84578297311043"
    x2="-7.052608342655747"
    y2="107.05260834265574"
    stroke="hsla(0,50%,50%,0.6)"
    stroke-width="1"
    transform="translate(53.7513716290,-148.0697358379) scale(1,-1) translate(50,-110)"
    />
  
  <line
    x1="-33.03197371964731"
    y1="124.77398028973549"
    x2="-27.492370401152627"
    y2="136.8266099658781"
    stroke="hsla(0,50%,50%,0.6)"
    stroke-width="1"
    transform="translate(53.7513716290,-148.0697358379) scale(1,-1) translate(50,-110)"
    />
  
  <line
    x1="-31.145551423285404"
    y1="127.68493459847592"
    x2="-29.97012587946402"
    y2="129.97012587946404"
    stroke="hsla(0,50%,50%,0.6)"
    stroke-width="1"
    transform="translate(53.7513716290,-148.0697358379) scale(1,-1) translate(50,-110)"
    />
  
  <line
    x1="-33.508143489074655"
    y1="125.13110761680599"
    x2="-27.492370401152627"
    y2="136.8266099658781"
    stroke="hsla(0,50%,50%,0.6)"
    stroke-width="1"
    transform="translate(53.7513716290,-148.0697358379) scale(1,-1) translate(50,-110)"
    />
  
  <line
    x1="-27.746096355691083"
    y1="121.11475647884704"
    x2="-32.479676785880805"
    y2="126.10640300883588"
    stroke="hsla(0,50%,50%,0.6)"
    stroke-width="1"
    transform="translate(53.7513716290,-148.0697358379) scale(1,-1) translate(50,-110)"
    />
  
  <line
    x1="-54.19660481642321"
    y1="148.17475983682064"
    x2="-52.35491379650452"
    y2="152.35491379650452"
    stroke="hsla(0,50%,50%,0.6)"
    stroke-width="1"
    transform="translate(53.7513716290,-148.0697358379) scale(1,-1) translate(50,-110)"
    />
  
  <line
    x1="0.16054775173669888"
    y1="114.63022150258432"
    x2="-42.52025380974671"
    y2="166.8627159723306"
    stroke="hsla(0,50%,50%,0.6)"
    stroke-width="1"
    transform="translate(53.7513716290,-148.0697358379) scale(1,-1) translate(50,-110)"
    />
  
  <line
    x1="-7.052608342655747"
    y1="107.05260834265574"
    x2="-52.35491379650452"
    y2="152.35491379650452"
    stroke="hsla(0,50%,50%,0.6)"
    stroke-width="1"
    transform="translate(53.7513716290,-148.0697358379) scale(1,-1) translate(50,-110)"
    />
  
  <line
    x1="-7.794377297480576"
    y1="105.84578297311043"
    x2="0.16054775173669888"
    y2="114.63022150258432"
    stroke="hsla(0,50%,50%,0.6)"
    stroke-width="1"
    transform="translate(53.7513716290,-148.0697358379) scale(1,-1) translate(50,-110)"
    />
  
  <line
    x1="-30.765532273794793"
    y1="126.57023241827733"
    x2="-29.077422081140398"
    y2="129.07742208114038"
    stroke="hsla(0,50%,50%,0.6)"
    stroke-width="1"
    transform="translate(53.7513716290,-148.0697358379) scale(1,-1) translate(50,-110)"
    />
  
  <line
    x1="-20.377281947261665"
    y1="125.43340094658554"
    x2="-36.49151713735892"
    y2="141.20647006813334"
    stroke="hsla(0,50%,50%,0.6)"
    stroke-width="1"
    transform="translate(53.7513716290,-148.0697358379) scale(1,-1) translate(50,-110)"
    />
  
  <line
    x1="-55.8648446604206"
    y1="141.89863349531544"
    x2="-42.52025380974671"
    y2="166.8627159723306"
    stroke="hsla(0,50%,50%,0.6)"
    stroke-width="1"
    transform="translate(53.7513716290,-148.0697358379) scale(1,-1) translate(50,-110)"
    />
  
  <line
    x1="-7.573795960642155"
    y1="106.73226307612636"
    x2="-54.19660481642321"
    y2="148.17475983682064"
    stroke="hsla(0,50%,50%,0.6)"
    stroke-width="1"
    transform="translate(53.7513716290,-148.0697358379) scale(1,-1) translate(50,-110)"
    />
  
  <line
    x1="-8.058608058608058"
    y1="106.95970695970696"
    x2="-53.09200603318251"
    y2="145.85218702865762"
    stroke="hsla(0,50%,50%,0.6)"
    stroke-width="1"
    transform="translate(53.7513716290,-148.0697358379) scale(1,-1) translate(50,-110)"
    />
  
  <line
    x1="-53.09200603318251"
    y1="145.85218702865762"
    x2="-50.40757876184181"
    y2="150.40757876184182"
    stroke="hsla(0,50%,50%,0.6)"
    stroke-width="1"
    transform="translate(53.7513716290,-148.0697358379) scale(1,-1) translate(50,-110)"
    />
  
  <line
    x1="-7.794377297480576"
    y1="105.84578297311043"
    x2="-62.68137991054923"
    y2="147.01103493291194"
    stroke="hsla(0,50%,50%,0.6)"
    stroke-width="1"
    transform="translate(53.7513716290,-148.0697358379) scale(1,-1) translate(50,-110)"
    />
  
  <line
    x1="-30.167374902436908"
    y1="126.8154443577217"
    x2="-28.610234288809668"
    y2="128.61023428880966"
    stroke="hsla(0,50%,50%,0.6)"
    stroke-width="1"
    transform="translate(53.7513716290,-148.0697358379) scale(1,-1) translate(50,-110)"
    />
  
  <line
    x1="-30.167374902436908"
    y1="126.8154443577217"
    x2="-28.569785968889107"
    y2="128.5697859688891"
    stroke="hsla(0,50%,50%,0.6)"
    stroke-width="1"
    transform="translate(53.7513716290,-148.0697358379) scale(1,-1) translate(50,-110)"
    />
  
  <line
    x1="0.16054775173669888"
    y1="114.63022150258432"
    x2="-33.897812867321996"
    y2="137.24091829198522"
    stroke="hsla(0,50%,50%,0.6)"
    stroke-width="1"
    transform="translate(53.7513716290,-148.0697358379) scale(1,-1) translate(50,-110)"
    />
  
  <line
    x1="-7.573795960642155"
    y1="106.73226307612636"
    x2="-7.052608342655747"
    y2="107.05260834265574"
    stroke="hsla(0,50%,50%,0.6)"
    stroke-width="1"
    transform="translate(53.7513716290,-148.0697358379) scale(1,-1) translate(50,-110)"
    />
  
  <line
    x1="-33.508143489074655"
    y1="125.13110761680599"
    x2="-32.479676785880805"
    y2="126.10640300883588"
    stroke="hsla(0,50%,50%,0.6)"
    stroke-width="1"
    transform="translate(53.7513716290,-148.0697358379) scale(1,-1) translate(50,-110)"
    />
  
  <line
    x1="-51.64552390411268"
    y1="145.90713235921126"
    x2="-49.0839661904149"
    y2="149.08396619041488"
    stroke="hsla(0,50%,50%,0.6)"
    stroke-width="1"
    transform="translate(53.7513716290,-148.0697358379) scale(1,-1) translate(50,-110)"
    />
  
  <line
    x1="-30.765532273794793"
    y1="126.57023241827733"
    x2="-28.569785968889107"
    y2="128.5697859688891"
    stroke="hsla(0,50%,50%,0.6)"
    stroke-width="1"
    transform="translate(53.7513716290,-148.0697358379) scale(1,-1) translate(50,-110)"
    />
  
  <line
    x1="-33.03197371964731"
    y1="124.77398028973549"
    x2="-28.610234288809668"
    y2="128.61023428880966"
    stroke="hsla(0,50%,50%,0.6)"
    stroke-width="1"
    transform="translate(53.7513716290,-148.0697358379) scale(1,-1) translate(50,-110)"
    />
  
  <line
    x1="-8.058608058608058"
    y1="106.95970695970696"
    x2="-7.307476110174255"
    y2="107.30747611017425"
    stroke="hsla(0,50%,50%,0.6)"
    stroke-width="1"
    transform="translate(53.7513716290,-148.0697358379) scale(1,-1) translate(50,-110)"
    />
  
  <line
    x1="-51.64552390411268"
    y1="145.90713235921126"
    x2="-48.80702599912731"
    y2="148.80702599912732"
    stroke="hsla(0,50%,50%,0.6)"
    stroke-width="1"
    transform="translate(53.7513716290,-148.0697358379) scale(1,-1) translate(50,-110)"
    />
  
  <line
    x1="-38.67116953190581"
    y1="129.00337714892936"
    x2="-28.146049141706932"
    y2="137.14475362097903"
    stroke="hsla(0,50%,50%,0.6)"
    stroke-width="1"
    transform="translate(53.7513716290,-148.0697358379) scale(1,-1) translate(50,-110)"
    />
  
  <line
    x1="-13.176689976689977"
    y1="129.85920745920745"
    x2="-36.49151713735892"
    y2="141.20647006813334"
    stroke="hsla(0,50%,50%,0.6)"
    stroke-width="1"
    transform="translate(53.7513716290,-148.0697358379) scale(1,-1) translate(50,-110)"
    />
  
  <line
    x1="-27.81543682963045"
    y1="120.86157762222284"
    x2="-13.176689976689977"
    y2="129.85920745920745"
    stroke="hsla(0,50%,50%,0.6)"
    stroke-width="1"
    transform="translate(53.7513716290,-148.0697358379) scale(1,-1) translate(50,-110)"
    />
  
  <line
    x1="-55.8648446604206"
    y1="141.89863349531544"
    x2="-48.80702599912731"
    y2="148.80702599912732"
    stroke="hsla(0,50%,50%,0.6)"
    stroke-width="1"
    transform="translate(53.7513716290,-148.0697358379) scale(1,-1) translate(50,-110)"
    />
  
  <line
    x1="-8.540145985401459"
    y1="107.5912408759124"
    x2="-7.807807807807808"
    y2="107.8078078078078"
    stroke="hsla(0,50%,50%,0.6)"
    stroke-width="1"
    transform="translate(53.7513716290,-148.0697358379) scale(1,-1) translate(50,-110)"
    />
  
  <line
    x1="-31.145551423285404"
    y1="127.68493459847592"
    x2="-29.077422081140398"
    y2="129.07742208114038"
    stroke="hsla(0,50%,50%,0.6)"
    stroke-width="1"
    transform="translate(53.7513716290,-148.0697358379) scale(1,-1) translate(50,-110)"
    />
  
  <line
    x1="-10.679886685552407"
    y1="108.0099150141643"
    x2="-8.401114206128133"
    y2="108.40111420612813"
    stroke="hsla(0,50%,50%,0.6)"
    stroke-width="1"
    transform="translate(53.7513716290,-148.0697358379) scale(1,-1) translate(50,-110)"
    />
  
  <line
    x1="-42.223205804771446"
    y1="131.66740435357858"
    x2="-33.897812867321996"
    y2="137.24091829198522"
    stroke="hsla(0,50%,50%,0.6)"
    stroke-width="1"
    transform="translate(53.7513716290,-148.0697358379) scale(1,-1) translate(50,-110)"
    />
  
  <line
    x1="-53.09200603318251"
    y1="145.85218702865762"
    x2="-49.0839661904149"
    y2="149.08396619041488"
    stroke="hsla(0,50%,50%,0.6)"
    stroke-width="1"
    transform="translate(53.7513716290,-148.0697358379) scale(1,-1) translate(50,-110)"
    />
  
  <line
    x1="-35.89604391081675"
    y1="126.92203293311256"
    x2="-29.97012587946402"
    y2="129.97012587946404"
    stroke="hsla(0,50%,50%,0.6)"
    stroke-width="1"
    transform="translate(53.7513716290,-148.0697358379) scale(1,-1) translate(50,-110)"
    />
  
  <line
    x1="-28.04107115323805"
    y1="121.03080336492854"
    x2="-27.746096355691083"
    y2="121.11475647884704"
    stroke="hsla(0,50%,50%,0.6)"
    stroke-width="1"
    transform="translate(53.7513716290,-148.0697358379) scale(1,-1) translate(50,-110)"
    />
  
  <line
    x1="-38.718214585493506"
    y1="129.03866093912012"
    x2="-23.339563354417464"
    y2="134.8054501348931"
    stroke="hsla(0,50%,50%,0.6)"
    stroke-width="1"
    transform="translate(53.7513716290,-148.0697358379) scale(1,-1) translate(50,-110)"
    />
  
  <line
    x1="-39.05795583747232"
    y1="134.71818296664208"
    x2="-35.94288287300345"
    y2="135.94288287300344"
    stroke="hsla(0,50%,50%,0.6)"
    stroke-width="1"
    transform="translate(53.7513716290,-148.0697358379) scale(1,-1) translate(50,-110)"
    />
  
  <line
    x1="-54.19660481642321"
    y1="148.17475983682064"
    x2="-50.40757876184181"
    y2="150.40757876184182"
    stroke="hsla(0,50%,50%,0.6)"
    stroke-width="1"
    transform="translate(53.7513716290,-148.0697358379) scale(1,-1) translate(50,-110)"
    />
  
  <line
    x1="-36.49151713735892"
    y1="141.20647006813334"
    x2="-58.881249469484764"
    y2="144.16093710211356"
    stroke="hsla(0,50%,50%,0.6)"
    stroke-width="1"
    transform="translate(53.7513716290,-148.0697358379) scale(1,-1) translate(50,-110)"
    />
  
  <line
    x1="-43.34774465701633"
    y1="138.53132858401452"
    x2="-39.68806584444009"
    y2="139.6880658444401"
    stroke="hsla(0,50%,50%,0.6)"
    stroke-width="1"
    transform="translate(53.7513716290,-148.0697358379) scale(1,-1) translate(50,-110)"
    />
  
  <line
    x1="-42.77305668984292"
    y1="136.94036714122797"
    x2="-38.154550782077756"
    y2="138.15455078207776"
    stroke="hsla(0,50%,50%,0.6)"
    stroke-width="1"
    transform="translate(53.7513716290,-148.0697358379) scale(1,-1) translate(50,-110)"
    />
  
  <line
    x1="-42.42677824267783"
    y1="137.71269177126916"
    x2="-38.042012322320865"
    y2="138.04201232232086"
    stroke="hsla(0,50%,50%,0.6)"
    stroke-width="1"
    transform="translate(53.7513716290,-148.0697358379) scale(1,-1) translate(50,-110)"
    />
  
  <line
    x1="-42.636392305266476"
    y1="142.63639230526647"
    x2="-48.02413273001508"
    y2="142.8657616892911"
    stroke="hsla(0,50%,50%,0.6)"
    stroke-width="1"
    transform="translate(53.7513716290,-148.0697358379) scale(1,-1) translate(50,-110)"
    />
  
  <line
    x1="-46.874124742479786"
    y1="141.66588865998204"
    x2="-42.18816303037178"
    y2="142.18816303037178"
    stroke="hsla(0,50%,50%,0.6)"
    stroke-width="1"
    transform="translate(53.7513716290,-148.0697358379) scale(1,-1) translate(50,-110)"
    />
  
  <line
    x1="-48.081225262433314"
    y1="141.52469454482878"
    x2="-42.5756872453453"
    y2="142.5756872453453"
    stroke="hsla(0,50%,50%,0.6)"
    stroke-width="1"
    transform="translate(53.7513716290,-148.0697358379) scale(1,-1) translate(50,-110)"
    />
  
  <line
    x1="-46.908277474977105"
    y1="146.9082774749771"
    x2="-62.68137991054923"
    y2="147.01103493291194"
    stroke="hsla(0,50%,50%,0.6)"
    stroke-width="1"
    transform="translate(53.7513716290,-148.0697358379) scale(1,-1) translate(50,-110)"
    />
  
  <line
    x1="-60.84360534664794"
    y1="148.61496853383264"
    x2="-52.35491379650452"
    y2="152.35491379650452"
    stroke="hsla(0,50%,50%,0.6)"
    stroke-width="1"
    transform="translate(53.7513716290,-148.0697358379) scale(1,-1) translate(50,-110)"
    />
  
  <line
    x1="-66.47414240391117"
    y1="159.70651438081865"
    x2="-42.52025380974671"
    y2="166.8627159723306"
    stroke="hsla(0,50%,50%,0.6)"
    stroke-width="1"
    transform="translate(53.7513716290,-148.0697358379) scale(1,-1) translate(50,-110)"
    />
  
</svg>
