<?xml version="1.0"?>
<!DOCTYPE svg PUBLIC "-//W3C//DTD SVG 1.1//EN"
  "http://www.w3.org/Graphics/SVG/1.1/DTD/svg11.dtd">
<svg
  width="240"
  height="240"
  viewBox="-500 -500 1000 1000" xmlns="http://www.w3.org/2000/svg" version="1.1">
  <rect
    x="0"
    y="0"
    width="100"
    height="100"
    fill="hsla(206,100%,53%,0.3)"
    stroke="hsl(206,100%,53%)"
    stroke-width="3"
    transform="" />
  
  <path
    d="M 
      -86.4977314194
      -59.9155323763
      L
    
      -71.5945955969
      -52.4639644651
      L
    
      -67.7455972171
      -37.7446700614
      L
    
      -37.9044084494
      -33.1553541403
      L
    
      -36.1721963785
      -2.8827437568
      L
    
      -40.1833815868
      0.5003536711
      L
    
      -59.8445128205
      -7.5294358974
      L
    
      -89.2051794212
      -41.0449676144
      L
    
      -89.3339621241
      -47.2873542258
      L
    
      -90.5547892436
      -49.2133727427
      L
    
      -89.4346554676
      -52.1681865513
      L
    
      -89.4895264905
      -54.8279081648
      L
    
      -89.3204418788
      -55.0299144438
      L
    
      -89.5329805159
      -55.1270198423
      L
    
      -88.6025738912
      -58.2202298572
      L
    
      -87.5488745258
      -58.2572131477
      z
    "
    fill="hsla(0,0%,50%,0.3)"
    stroke="hsla(0,0%,50%,1)"
    stroke-width="1"
    transform="translate(63.3634928110,29.7075893526)"
    />
  
  
  <line
    x1="-81.58482910680246"
    y1="-55.9022068708975"
    x2="-86.85602256765436"
    y2="-53.9039618992914"
    stroke="hsla(0,50%,50%,0.6)"
    stroke-width="1"
    transform="translate(63.3634928110,29.7075893526)"
    />
  
  <line
    x1="-86.8915183649968"
    y1="-54.00080609772118"
    x2="-86.98943668346107"
    y2="-53.96491660878252"
    stroke="hsla(0,50%,50%,0.6)"
    stroke-width="1"
    transform="translate(63.3634928110,29.7075893526)"
    />
  
  <line
    x1="-80.35101400560224"
    y1="-56.84217366946779"
    x2="-82.0037399214785"
    y2="-56.29893785310735"
    stroke="hsla(0,50%,50%,0.6)"
    stroke-width="1"
    transform="translate(63.3634928110,29.7075893526)"
    />
  
  <line
    x1="-71.59459559697797"
    y1="-52.46396446515565"
    x2="-77.98861226611227"
    y2="-49.85258835758836"
    stroke="hsla(0,50%,50%,0.6)"
    stroke-width="1"
    transform="translate(63.3634928110,29.7075893526)"
    />
  
  <line
    x1="-85.60476740708303"
    y1="-59.46905037020818"
    x2="-89.48952649053935"
    y2="-54.827908164809905"
    stroke="hsla(0,50%,50%,0.6)"
    stroke-width="1"
    transform="translate(63.3634928110,29.7075893526)"
    />
  
  <line
    x1="-70.32824177604283"
    y1="-47.621189054447484"
    x2="-85.85636610740106"
    y2="-37.222259487256935"
    stroke="hsla(0,50%,50%,0.6)"
    stroke-width="1"
    transform="translate(63.3634928110,29.7075893526)"
    />
  
  <line
    x1="-81.22479058470581"
    y1="-57.27906195901957"
    x2="-82.0037399214785"
    y2="-56.29893785310735"
    stroke="hsla(0,50%,50%,0.6)"
    stroke-width="1"
    transform="translate(63.3634928110,29.7075893526)"
    />
  
  <line
    x1="-83.46758726505561"
    y1="-58.40046029919448"
    x2="-88.60257389129409"
    y2="-58.22022985726369"
    stroke="hsla(0,50%,50%,0.6)"
    stroke-width="1"
    transform="translate(63.3634928110,29.7075893526)"
    />
  
  <line
    x1="-83.66998727892594"
    y1="-58.39335635782095"
    x2="-86.9048068003829"
    y2="-53.92625061076496"
    stroke="hsla(0,50%,50%,0.6)"
    stroke-width="1"
    transform="translate(63.3634928110,29.7075893526)"
    />
  
  <line
    x1="-83.29074358939843"
    y1="-40.135378698959414"
    x2="-85.85636610740106"
    y2="-37.222259487256935"
    stroke="hsla(0,50%,50%,0.6)"
    stroke-width="1"
    transform="translate(63.3634928110,29.7075893526)"
    />
  
  <line
    x1="-86.49773141941125"
    y1="-59.91553237637229"
    x2="-89.53298051594282"
    y2="-55.127019842382346"
    stroke="hsla(0,50%,50%,0.6)"
    stroke-width="1"
    transform="translate(63.3634928110,29.7075893526)"
    />
  
  <line
    x1="-90.55478924360791"
    y1="-49.21337274275402"
    x2="-70.32824177604283"
    y2="-47.621189054447484"
    stroke="hsla(0,50%,50%,0.6)"
    stroke-width="1"
    transform="translate(63.3634928110,29.7075893526)"
    />
  
  <line
    x1="-88.87809592078533"
    y1="-40.67159811358806"
    x2="-86.74068453942043"
    y2="-40.66594968431277"
    stroke="hsla(0,50%,50%,0.6)"
    stroke-width="1"
    transform="translate(63.3634928110,29.7075893526)"
    />
  
  <line
    x1="-87.54546478196771"
    y1="-50.91854452436079"
    x2="-89.32511703744814"
    y2="-46.858613024229115"
    stroke="hsla(0,50%,50%,0.6)"
    stroke-width="1"
    transform="translate(63.3634928110,29.7075893526)"
    />
  
  <line
    x1="-86.49773141941125"
    y1="-59.91553237637229"
    x2="-90.55478924360791"
    y2="-49.21337274275402"
    stroke="hsla(0,50%,50%,0.6)"
    stroke-width="1"
    transform="translate(63.3634928110,29.7075893526)"
    />
  
  <line
    x1="-37.45389175520046"
    y1="-25.282001573064484"
    x2="-64.79146636241073"
    y2="-13.176439100420177"
    stroke="hsla(0,50%,50%,0.6)"
    stroke-width="1"
    transform="translate(63.3634928110,29.7075893526)"
    />
  
  <line
    x1="-62.36064677596814"
    y1="-17.151605821895778"
    x2="-64.79146636241073"
    y2="-13.176439100420177"
    stroke="hsla(0,50%,50%,0.6)"
    stroke-width="1"
    transform="translate(63.3634928110,29.7075893526)"
    />
  
  <line
    x1="-62.849543637470475"
    y1="-19.021239458336744"
    x2="-63.52983744098446"
    y2="-17.80626318714194"
    stroke="hsla(0,50%,50%,0.6)"
    stroke-width="1"
    transform="translate(63.3634928110,29.7075893526)"
    />
  
  <line
    x1="-88.60257389129409"
    y1="-58.22022985726369"
    x2="-89.53298051594282"
    y2="-55.127019842382346"
    stroke="hsla(0,50%,50%,0.6)"
    stroke-width="1"
    transform="translate(63.3634928110,29.7075893526)"
    />
  
  <line
    x1="-89.20517942120554"
    y1="-41.044967614407696"
    x2="-37.904408449427514"
    y2="-33.15535414038295"
    stroke="hsla(0,50%,50%,0.6)"
    stroke-width="1"
    transform="translate(63.3634928110,29.7075893526)"
    />
  
  <line
    x1="-81.22479058470581"
    y1="-57.27906195901957"
    x2="-81.58482910680246"
    y2="-55.9022068708975"
    stroke="hsla(0,50%,50%,0.6)"
    stroke-width="1"
    transform="translate(63.3634928110,29.7075893526)"
    />
  
  <line
    x1="-42.05052465554788"
    y1="-19.16382521526592"
    x2="-67.8874753743372"
    y2="-16.71056826875465"
    stroke="hsla(0,50%,50%,0.6)"
    stroke-width="1"
    transform="translate(63.3634928110,29.7075893526)"
    />
  
  <line
    x1="-85.60476740708303"
    y1="-59.46905037020818"
    x2="-86.9048068003829"
    y2="-53.92625061076496"
    stroke="hsla(0,50%,50%,0.6)"
    stroke-width="1"
    transform="translate(63.3634928110,29.7075893526)"
    />
  
  <line
    x1="-36.17219637852307"
    y1="-2.882743756888679"
    x2="-40.183381586861174"
    y2="0.5003536711693979"
    stroke="hsla(0,50%,50%,0.6)"
    stroke-width="1"
    transform="translate(63.3634928110,29.7075893526)"
    />
  
  <line
    x1="-49.19830324150043"
    y1="-3.3417964936351634"
    x2="-49.257927389670314"
    y2="-3.2057755622548965"
    stroke="hsla(0,50%,50%,0.6)"
    stroke-width="1"
    transform="translate(63.3634928110,29.7075893526)"
    />
  
  <line
    x1="-37.904408449427514"
    y1="-33.15535414038295"
    x2="-49.257927389670314"
    y2="-3.2057755622548965"
    stroke="hsla(0,50%,50%,0.6)"
    stroke-width="1"
    transform="translate(63.3634928110,29.7075893526)"
    />
  
  <line
    x1="-65.24351683951214"
    y1="-28.17624366417589"
    x2="-67.8874753743372"
    y2="-16.71056826875465"
    stroke="hsla(0,50%,50%,0.6)"
    stroke-width="1"
    transform="translate(63.3634928110,29.7075893526)"
    />
  
  <line
    x1="-86.49773141941125"
    y1="-59.91553237637229"
    x2="-71.59459559697797"
    y2="-52.46396446515565"
    stroke="hsla(0,50%,50%,0.6)"
    stroke-width="1"
    transform="translate(63.3634928110,29.7075893526)"
    />
  
  <line
    x1="-86.74068453942043"
    y1="-40.66594968431277"
    x2="-37.45389175520046"
    y2="-25.282001573064484"
    stroke="hsla(0,50%,50%,0.6)"
    stroke-width="1"
    transform="translate(63.3634928110,29.7075893526)"
    />
  
  <line
    x1="-87.54546478196771"
    y1="-50.91854452436079"
    x2="-88.87809592078533"
    y2="-40.67159811358806"
    stroke="hsla(0,50%,50%,0.6)"
    stroke-width="1"
    transform="translate(63.3634928110,29.7075893526)"
    />
  
  <line
    x1="-89.53298051594282"
    y1="-55.127019842382346"
    x2="-77.98861226611227"
    y2="-49.85258835758836"
    stroke="hsla(0,50%,50%,0.6)"
    stroke-width="1"
    transform="translate(63.3634928110,29.7075893526)"
    />
  
  <line
    x1="-89.48952649053935"
    y1="-54.827908164809905"
    x2="-89.20517942120554"
    y2="-41.044967614407696"
    stroke="hsla(0,50%,50%,0.6)"
    stroke-width="1"
    transform="translate(63.3634928110,29.7075893526)"
    />
  
  <line
    x1="-37.904408449427514"
    y1="-33.15535414038295"
    x2="-36.17219637852307"
    y2="-2.882743756888679"
    stroke="hsla(0,50%,50%,0.6)"
    stroke-width="1"
    transform="translate(63.3634928110,29.7075893526)"
    />
  
  <line
    x1="-49.77443938989562"
    y1="-3.41672388573538"
    x2="-49.19830324150043"
    y2="-3.3417964936351634"
    stroke="hsla(0,50%,50%,0.6)"
    stroke-width="1"
    transform="translate(63.3634928110,29.7075893526)"
    />
  
  <line
    x1="-42.05052465554788"
    y1="-19.16382521526592"
    x2="-40.183381586861174"
    y2="0.5003536711693979"
    stroke="hsla(0,50%,50%,0.6)"
    stroke-width="1"
    transform="translate(63.3634928110,29.7075893526)"
    />
  
  <line
    x1="-63.52983744098446"
    y1="-17.80626318714194"
    x2="-62.36064677596814"
    y2="-17.151605821895778"
    stroke="hsla(0,50%,50%,0.6)"
    stroke-width="1"
    transform="translate(63.3634928110,29.7075893526)"
    />
  
  <line
    x1="-78.05968574070795"
    y1="-28.322261007289555"
    x2="-62.849543637470475"
    y2="-19.021239458336744"
    stroke="hsla(0,50%,50%,0.6)"
    stroke-width="1"
    transform="translate(63.3634928110,29.7075893526)"
    />
  
  <line
    x1="-71.59459559697797"
    y1="-52.46396446515565"
    x2="-59.84451282051282"
    y2="-7.5294358974358975"
    stroke="hsla(0,50%,50%,0.6)"
    stroke-width="1"
    transform="translate(63.3634928110,29.7075893526)"
    />
  
  <line
    x1="-59.84451282051282"
    y1="-7.5294358974358975"
    x2="-40.183381586861174"
    y2="0.5003536711693979"
    stroke="hsla(0,50%,50%,0.6)"
    stroke-width="1"
    transform="translate(63.3634928110,29.7075893526)"
    />
  
  <line
    x1="-83.05754349378215"
    y1="-34.027371940844446"
    x2="-36.17219637852307"
    y2="-2.882743756888679"
    stroke="hsla(0,50%,50%,0.6)"
    stroke-width="1"
    transform="translate(63.3634928110,29.7075893526)"
    />
  
  <line
    x1="-83.66998727892594"
    y1="-58.39335635782095"
    x2="-81.58482910680246"
    y2="-55.9022068708975"
    stroke="hsla(0,50%,50%,0.6)"
    stroke-width="1"
    transform="translate(63.3634928110,29.7075893526)"
    />
  
  <line
    x1="-80.35101400560224"
    y1="-56.84217366946779"
    x2="-77.98861226611227"
    y2="-49.85258835758836"
    stroke="hsla(0,50%,50%,0.6)"
    stroke-width="1"
    transform="translate(63.3634928110,29.7075893526)"
    />
  
  <line
    x1="-89.48952649053935"
    y1="-54.827908164809905"
    x2="-65.24351683951214"
    y2="-28.17624366417589"
    stroke="hsla(0,50%,50%,0.6)"
    stroke-width="1"
    transform="translate(63.3634928110,29.7075893526)"
    />
  
  <line
    x1="-83.46758726505561"
    y1="-58.40046029919448"
    x2="-82.0037399214785"
    y2="-56.29893785310735"
    stroke="hsla(0,50%,50%,0.6)"
    stroke-width="1"
    transform="translate(63.3634928110,29.7075893526)"
    />
  
  <line
    x1="-86.8915183649968"
    y1="-54.00080609772118"
    x2="-86.85602256765436"
    y2="-53.9039618992914"
    stroke="hsla(0,50%,50%,0.6)"
    stroke-width="1"
    transform="translate(63.3634928110,29.7075893526)"
    />
  
  <line
    x1="-68.83196949419703"
    y1="-17.788718947728295"
    x2="-49.77443938989562"
    y2="-3.41672388573538"
    stroke="hsla(0,50%,50%,0.6)"
    stroke-width="1"
    transform="translate(63.3634928110,29.7075893526)"
    />
  
  <line
    x1="-88.60257389129409"
    y1="-58.22022985726369"
    x2="-86.98943668346107"
    y2="-53.96491660878252"
    stroke="hsla(0,50%,50%,0.6)"
    stroke-width="1"
    transform="translate(63.3634928110,29.7075893526)"
    />
  
  <line
    x1="-75.35767156295539"
    y1="-25.237881381111833"
    x2="-49.19830324150043"
    y2="-3.3417964936351634"
    stroke="hsla(0,50%,50%,0.6)"
    stroke-width="1"
    transform="translate(63.3634928110,29.7075893526)"
    />
  
  <line
    x1="-83.29074358939843"
    y1="-40.135378698959414"
    x2="-78.05968574070795"
    y2="-28.322261007289555"
    stroke="hsla(0,50%,50%,0.6)"
    stroke-width="1"
    transform="translate(63.3634928110,29.7075893526)"
    />
  
  <line
    x1="-87.54546478196771"
    y1="-50.91854452436079"
    x2="-68.83196949419703"
    y2="-17.788718947728295"
    stroke="hsla(0,50%,50%,0.6)"
    stroke-width="1"
    transform="translate(63.3634928110,29.7075893526)"
    />
  
  <line
    x1="-89.32511703744814"
    y1="-46.858613024229115"
    x2="-83.05754349378215"
    y2="-34.027371940844446"
    stroke="hsla(0,50%,50%,0.6)"
    stroke-width="1"
    transform="translate(63.3634928110,29.7075893526)"
    />
  
  <line
    x1="-89.20517942120554"
    y1="-41.044967614407696"
    x2="-59.84451282051282"
    y2="-7.5294358974358975"
    stroke="hsla(0,50%,50%,0.6)"
    stroke-width="1"
    transform="translate(63.3634928110,29.7075893526)"
    />
  
  <line
    x1="-90.55478924360791"
    y1="-49.21337274275402"
    x2="-75.35767156295539"
    y2="-25.237881381111833"
    stroke="hsla(0,50%,50%,0.6)"
    stroke-width="1"
    transform="translate(63.3634928110,29.7075893526)"
    />
  
</svg>
