<?xml version="1.0"?>
<!DOCTYPE svg PUBLIC "-//W3C//DTD SVG 1.1//EN"
  "http://www.w3.org/Graphics/SVG/1.1/DTD/svg11.dtd">
<svg
  width="240"
  height="240"
  viewBox="-50 -50 200 200" xmlns="http://www.w3.org/2000/svg" version="1.1">
  <rect
    x="0"
    y="0"
    width="100"
    height="100"
    fill="hsla(206,100%,53%,0.3)"
    stroke="hsl(206,100%,53%)"
    stroke-width="3"
    transform="" />
  
  <path
    d="M 
      -38.4843955863
      -246.4861455461
      L
    
      -32.4816257233
      -237.0240660372
      L
    
      -5.1719676511
      -244.9461308097
      L
    
      15
      -210
      L
    
      17.5486014135
      -194.7083915184
      L
    
      1.3539618676
      -180.4895712934
      L
    
      -0.5164033944
      -171.5732728591
      L
    
      -0.2141946193
      -170.5392027691
      L
    
      -0.7743715136
      -170.3435019775
      L
    
      -39.4549893941
      -204.3192638730
      L
    
      -54.7696800534
      -230.5586826337
      L
    
      -46.6230870983
      -238.5262780059
      L
    
      -47.5814297032
      -243.0996028102
      z
    "
    fill="hsla(0,0%,50%,0.3)"
    stroke="hsla(0,0%,50%,1)"
    stroke-width="1"
    transform="translate(44.7558528726,233.6275383304) scale(1,-1) translate(50,-110)"
    />
  
  
  <line
    x1="-39.81450850853254"
    y1="-243.5408431944553"
    x2="-47.5814297032101"
    y2="-243.09960281026912"
    stroke="hsla(0,50%,50%,0.6)"
    stroke-width="1"
    transform="translate(44.7558528726,233.6275383304) scale(1,-1) translate(50,-110)"
    />
  
  <line
    x1="-35.95645865830334"
    y1="-242.50139504719536"
    x2="-47.19269738539516"
    y2="-241.24452599097629"
    stroke="hsla(0,50%,50%,0.6)"
    stroke-width="1"
    transform="translate(44.7558528726,233.6275383304) scale(1,-1) translate(50,-110)"
    />
  
  <line
    x1="-39.81450850853254"
    y1="-243.5408431944553"
    x2="-47.19269738539516"
    y2="-241.24452599097629"
    stroke="hsla(0,50%,50%,0.6)"
    stroke-width="1"
    transform="translate(44.7558528726,233.6275383304) scale(1,-1) translate(50,-110)"
    />
  
  <line
    x1="-38.48439558632256"
    y1="-246.48614554611004"
    x2="-47.5814297032101"
    y2="-243.09960281026912"
    stroke="hsla(0,50%,50%,0.6)"
    stroke-width="1"
    transform="translate(44.7558528726,233.6275383304) scale(1,-1) translate(50,-110)"
    />
  
  <line
    x1="-5.171967651186316"
    y1="-244.94613080978297"
    x2="-54.769680053479085"
    y2="-230.55868263376496"
    stroke="hsla(0,50%,50%,0.6)"
    stroke-width="1"
    transform="translate(44.7558528726,233.6275383304) scale(1,-1) translate(50,-110)"
    />
  
  <line
    x1="6.4891184512702855"
    y1="-223.075413300858"
    x2="-49.18760050824192"
    y2="-220.99462900699822"
    stroke="hsla(0,50%,50%,0.6)"
    stroke-width="1"
    transform="translate(44.7558528726,233.6275383304) scale(1,-1) translate(50,-110)"
    />
  
  <line
    x1="-5.782640862992338"
    y1="-224.19379598179103"
    x2="9.107227019741615"
    y2="-220.20870244100126"
    stroke="hsla(0,50%,50%,0.6)"
    stroke-width="1"
    transform="translate(44.7558528726,233.6275383304) scale(1,-1) translate(50,-110)"
    />
  
  <line
    x1="0.09003719560577746"
    y1="-216.2880121467895"
    x2="13.438900431267284"
    y2="-212.70446545817364"
    stroke="hsla(0,50%,50%,0.6)"
    stroke-width="1"
    transform="translate(44.7558528726,233.6275383304) scale(1,-1) translate(50,-110)"
    />
  
  <line
    x1="16.514319546357115"
    y1="-195.13381225459915"
    x2="17.51010363972726"
    y2="-194.93937816163645"
    stroke="hsla(0,50%,50%,0.6)"
    stroke-width="1"
    transform="translate(44.7558528726,233.6275383304) scale(1,-1) translate(50,-110)"
    />
  
  <line
    x1="-8.848262236425986"
    y1="-191.41562253571735"
    x2="-23.281985055783753"
    y2="-190.11343742445547"
    stroke="hsla(0,50%,50%,0.6)"
    stroke-width="1"
    transform="translate(44.7558528726,233.6275383304) scale(1,-1) translate(50,-110)"
    />
  
  <line
    x1="-4.4561441706402665"
    y1="-180.9217762253412"
    x2="-7.991175371763885"
    y2="-180.4131934416188"
    stroke="hsla(0,50%,50%,0.6)"
    stroke-width="1"
    transform="translate(44.7558528726,233.6275383304) scale(1,-1) translate(50,-110)"
    />
  
  <line
    x1="16.514319546357115"
    y1="-195.13381225459915"
    x2="17.548601413584034"
    y2="-194.7083915184958"
    stroke="hsla(0,50%,50%,0.6)"
    stroke-width="1"
    transform="translate(44.7558528726,233.6275383304) scale(1,-1) translate(50,-110)"
    />
  
  <line
    x1="-46.05164032728888"
    y1="-235.79926610139057"
    x2="-24.642544861817207"
    y2="-224.66743600117158"
    stroke="hsla(0,50%,50%,0.6)"
    stroke-width="1"
    transform="translate(44.7558528726,233.6275383304) scale(1,-1) translate(50,-110)"
    />
  
  <line
    x1="-4.672735241520148"
    y1="-182.67652584304895"
    x2="-0.7795819269600738"
    y2="-181.49587097135156"
    stroke="hsla(0,50%,50%,0.6)"
    stroke-width="1"
    transform="translate(44.7558528726,233.6275383304) scale(1,-1) translate(50,-110)"
    />
  
  <line
    x1="-13.23200415091001"
    y1="-237.2132808642518"
    x2="6.4224284223102615"
    y2="-224.85987602040368"
    stroke="hsla(0,50%,50%,0.6)"
    stroke-width="1"
    transform="translate(44.7558528726,233.6275383304) scale(1,-1) translate(50,-110)"
    />
  
  <line
    x1="-39.45498939413747"
    y1="-204.3192638730164"
    x2="2.630735796898054"
    y2="-186.5761350344784"
    stroke="hsla(0,50%,50%,0.6)"
    stroke-width="1"
    transform="translate(44.7558528726,233.6275383304) scale(1,-1) translate(50,-110)"
    />
  
  <line
    x1="-0.008700394651657537"
    y1="-182.64423369372105"
    x2="-10.05543944427444"
    y2="-178.4956818398921"
    stroke="hsla(0,50%,50%,0.6)"
    stroke-width="1"
    transform="translate(44.7558528726,233.6275383304) scale(1,-1) translate(50,-110)"
    />
  
  <line
    x1="14.448867514088537"
    y1="-210.954787766827"
    x2="12.703316180959991"
    y2="-209.95603504077246"
    stroke="hsla(0,50%,50%,0.6)"
    stroke-width="1"
    transform="translate(44.7558528726,233.6275383304) scale(1,-1) translate(50,-110)"
    />
  
  <line
    x1="-0.21419461937628326"
    y1="-170.5392027691055"
    x2="-0.7743715136215376"
    y2="-170.34350197758332"
    stroke="hsla(0,50%,50%,0.6)"
    stroke-width="1"
    transform="translate(44.7558528726,233.6275383304) scale(1,-1) translate(50,-110)"
    />
  
  <line
    x1="14.448867514088537"
    y1="-210.954787766827"
    x2="5.172934076275457"
    y2="-205.55329454630385"
    stroke="hsla(0,50%,50%,0.6)"
    stroke-width="1"
    transform="translate(44.7558528726,233.6275383304) scale(1,-1) translate(50,-110)"
    />
  
  <line
    x1="-38.48439558632256"
    y1="-246.48614554611004"
    x2="-54.769680053479085"
    y2="-230.55868263376496"
    stroke="hsla(0,50%,50%,0.6)"
    stroke-width="1"
    transform="translate(44.7558528726,233.6275383304) scale(1,-1) translate(50,-110)"
    />
  
  <line
    x1="17.51010363972726"
    y1="-194.93937816163645"
    x2="-10.430676291261063"
    y2="-178.82527734446734"
    stroke="hsla(0,50%,50%,0.6)"
    stroke-width="1"
    transform="translate(44.7558528726,233.6275383304) scale(1,-1) translate(50,-110)"
    />
  
  <line
    x1="-5.782640862992338"
    y1="-224.19379598179103"
    x2="15.34663911122076"
    y2="-207.92016533267545"
    stroke="hsla(0,50%,50%,0.6)"
    stroke-width="1"
    transform="translate(44.7558528726,233.6275383304) scale(1,-1) translate(50,-110)"
    />
  
  <line
    x1="-7.991175371763885"
    y1="-180.4131934416188"
    x2="-10.53080721305239"
    y2="-178.9132289994192"
    stroke="hsla(0,50%,50%,0.6)"
    stroke-width="1"
    transform="translate(44.7558528726,233.6275383304) scale(1,-1) translate(50,-110)"
    />
  
  <line
    x1="5.172934076275457"
    y1="-205.55329454630385"
    x2="17.284895193268632"
    y2="-196.2906288403882"
    stroke="hsla(0,50%,50%,0.6)"
    stroke-width="1"
    transform="translate(44.7558528726,233.6275383304) scale(1,-1) translate(50,-110)"
    />
  
  <line
    x1="-5.171967651186316"
    y1="-244.94613080978297"
    x2="-13.23200415091001"
    y2="-237.2132808642518"
    stroke="hsla(0,50%,50%,0.6)"
    stroke-width="1"
    transform="translate(44.7558528726,233.6275383304) scale(1,-1) translate(50,-110)"
    />
  
  <line
    x1="-4.4561441706402665"
    y1="-180.9217762253412"
    x2="-9.012603840900004"
    y2="-177.5796899013513"
    stroke="hsla(0,50%,50%,0.6)"
    stroke-width="1"
    transform="translate(44.7558528726,233.6275383304) scale(1,-1) translate(50,-110)"
    />
  
  <line
    x1="-39.81450850853254"
    y1="-243.5408431944553"
    x2="-46.05164032728888"
    y2="-235.79926610139057"
    stroke="hsla(0,50%,50%,0.6)"
    stroke-width="1"
    transform="translate(44.7558528726,233.6275383304) scale(1,-1) translate(50,-110)"
    />
  
  <line
    x1="-45.22331086352384"
    y1="-231.8463794579413"
    x2="-8.679562560509998"
    y2="-199.50521736182404"
    stroke="hsla(0,50%,50%,0.6)"
    stroke-width="1"
    transform="translate(44.7558528726,233.6275383304) scale(1,-1) translate(50,-110)"
    />
  
  <line
    x1="17.548601413584034"
    y1="-194.7083915184958"
    x2="-5.487182427799341"
    y2="-174.48307756484297"
    stroke="hsla(0,50%,50%,0.6)"
    stroke-width="1"
    transform="translate(44.7558528726,233.6275383304) scale(1,-1) translate(50,-110)"
    />
  
  <line
    x1="-39.45498939413747"
    y1="-204.3192638730164"
    x2="-0.7743715136215376"
    y2="-170.34350197758332"
    stroke="hsla(0,50%,50%,0.6)"
    stroke-width="1"
    transform="translate(44.7558528726,233.6275383304) scale(1,-1) translate(50,-110)"
    />
  
  <line
    x1="0.00738169804997044"
    y1="-187.68212785160782"
    x2="-9.684735059868586"
    y2="-178.17006749895597"
    stroke="hsla(0,50%,50%,0.6)"
    stroke-width="1"
    transform="translate(44.7558528726,233.6275383304) scale(1,-1) translate(50,-110)"
    />
  
  <line
    x1="-35.95645865830334"
    y1="-242.50139504719536"
    x2="-49.18760050824192"
    y2="-220.99462900699822"
    stroke="hsla(0,50%,50%,0.6)"
    stroke-width="1"
    transform="translate(44.7558528726,233.6275383304) scale(1,-1) translate(50,-110)"
    />
  
  <line
    x1="-8.848262236425986"
    y1="-191.41562253571735"
    x2="-0.7795819269600738"
    y2="-181.49587097135156"
    stroke="hsla(0,50%,50%,0.6)"
    stroke-width="1"
    transform="translate(44.7558528726,233.6275383304) scale(1,-1) translate(50,-110)"
    />
  
  <line
    x1="-7.991175371763885"
    y1="-180.4131934416188"
    x2="-9.684735059868586"
    y2="-178.17006749895597"
    stroke="hsla(0,50%,50%,0.6)"
    stroke-width="1"
    transform="translate(44.7558528726,233.6275383304) scale(1,-1) translate(50,-110)"
    />
  
  <line
    x1="-5.171967651186316"
    y1="-244.94613080978297"
    x2="15"
    y2="-210"
    stroke="hsla(0,50%,50%,0.6)"
    stroke-width="1"
    transform="translate(44.7558528726,233.6275383304) scale(1,-1) translate(50,-110)"
    />
  
  <line
    x1="-39.81450850853254"
    y1="-243.5408431944553"
    x2="-45.22331086352384"
    y2="-231.8463794579413"
    stroke="hsla(0,50%,50%,0.6)"
    stroke-width="1"
    transform="translate(44.7558528726,233.6275383304) scale(1,-1) translate(50,-110)"
    />
  
  <line
    x1="2.630735796898054"
    y1="-186.5761350344784"
    x2="-5.487182427799341"
    y2="-174.48307756484297"
    stroke="hsla(0,50%,50%,0.6)"
    stroke-width="1"
    transform="translate(44.7558528726,233.6275383304) scale(1,-1) translate(50,-110)"
    />
  
  <line
    x1="15.34663911122076"
    y1="-207.92016533267545"
    x2="14.276372299740508"
    y2="-206.30145842089593"
    stroke="hsla(0,50%,50%,0.6)"
    stroke-width="1"
    transform="translate(44.7558528726,233.6275383304) scale(1,-1) translate(50,-110)"
    />
  
  <line
    x1="-38.48439558632256"
    y1="-246.48614554611004"
    x2="-8.679562560509998"
    y2="-199.50521736182404"
    stroke="hsla(0,50%,50%,0.6)"
    stroke-width="1"
    transform="translate(44.7558528726,233.6275383304) scale(1,-1) translate(50,-110)"
    />
  
  <line
    x1="-13.23200415091001"
    y1="-237.2132808642518"
    x2="-5.782640862992338"
    y2="-224.19379598179103"
    stroke="hsla(0,50%,50%,0.6)"
    stroke-width="1"
    transform="translate(44.7558528726,233.6275383304) scale(1,-1) translate(50,-110)"
    />
  
  <line
    x1="17.284895193268632"
    y1="-196.2906288403882"
    x2="16.514319546357115"
    y2="-195.13381225459915"
    stroke="hsla(0,50%,50%,0.6)"
    stroke-width="1"
    transform="translate(44.7558528726,233.6275383304) scale(1,-1) translate(50,-110)"
    />
  
  <line
    x1="-2.796255897152935"
    y1="-188.86412727878772"
    x2="-9.012603840900004"
    y2="-177.5796899013513"
    stroke="hsla(0,50%,50%,0.6)"
    stroke-width="1"
    transform="translate(44.7558528726,233.6275383304) scale(1,-1) translate(50,-110)"
    />
  
  <line
    x1="-54.769680053479085"
    y1="-230.55868263376496"
    x2="-39.45498939413747"
    y2="-204.3192638730164"
    stroke="hsla(0,50%,50%,0.6)"
    stroke-width="1"
    transform="translate(44.7558528726,233.6275383304) scale(1,-1) translate(50,-110)"
    />
  
  <line
    x1="-5.7432639608072105"
    y1="-190.10657097018847"
    x2="-10.53080721305239"
    y2="-178.9132289994192"
    stroke="hsla(0,50%,50%,0.6)"
    stroke-width="1"
    transform="translate(44.7558528726,233.6275383304) scale(1,-1) translate(50,-110)"
    />
  
  <line
    x1="-5.7432639608072105"
    y1="-190.10657097018847"
    x2="-10.430676291261063"
    y2="-178.82527734446734"
    stroke="hsla(0,50%,50%,0.6)"
    stroke-width="1"
    transform="translate(44.7558528726,233.6275383304) scale(1,-1) translate(50,-110)"
    />
  
  <line
    x1="-4.4561441706402665"
    y1="-180.9217762253412"
    x2="-0.21419461937628326"
    y2="-170.5392027691055"
    stroke="hsla(0,50%,50%,0.6)"
    stroke-width="1"
    transform="translate(44.7558528726,233.6275383304) scale(1,-1) translate(50,-110)"
    />
  
  <line
    x1="-2.796255897152935"
    y1="-188.86412727878772"
    x2="-4.672735241520148"
    y2="-182.67652584304895"
    stroke="hsla(0,50%,50%,0.6)"
    stroke-width="1"
    transform="translate(44.7558528726,233.6275383304) scale(1,-1) translate(50,-110)"
    />
  
  <line
    x1="0.09003719560577746"
    y1="-216.2880121467895"
    x2="-10.05543944427444"
    y2="-178.4956818398921"
    stroke="hsla(0,50%,50%,0.6)"
    stroke-width="1"
    transform="translate(44.7558528726,233.6275383304) scale(1,-1) translate(50,-110)"
    />
  
  <line
    x1="-8.679562560509998"
    y1="-199.50521736182404"
    x2="-0.21419461937628326"
    y2="-170.5392027691055"
    stroke="hsla(0,50%,50%,0.6)"
    stroke-width="1"
    transform="translate(44.7558528726,233.6275383304) scale(1,-1) translate(50,-110)"
    />
  
  <line
    x1="9.107227019741615"
    y1="-220.20870244100126"
    x2="5.172934076275457"
    y2="-205.55329454630385"
    stroke="hsla(0,50%,50%,0.6)"
    stroke-width="1"
    transform="translate(44.7558528726,233.6275383304) scale(1,-1) translate(50,-110)"
    />
  
  <line
    x1="13.438900431267284"
    y1="-212.70446545817364"
    x2="12.703316180959991"
    y2="-209.95603504077246"
    stroke="hsla(0,50%,50%,0.6)"
    stroke-width="1"
    transform="translate(44.7558528726,233.6275383304) scale(1,-1) translate(50,-110)"
    />
  
  <line
    x1="14.276372299740508"
    y1="-206.30145842089593"
    x2="16.514319546357115"
    y2="-195.13381225459915"
    stroke="hsla(0,50%,50%,0.6)"
    stroke-width="1"
    transform="translate(44.7558528726,233.6275383304) scale(1,-1) translate(50,-110)"
    />
  
  <line
    x1="15"
    y1="-210"
    x2="17.548601413584034"
    y2="-194.7083915184958"
    stroke="hsla(0,50%,50%,0.6)"
    stroke-width="1"
    transform="translate(44.7558528726,233.6275383304) scale(1,-1) translate(50,-110)"
    />
  
  <line
    x1="2.630735796898054"
    y1="-186.5761350344784"
    x2="-0.7743715136215376"
    y2="-170.34350197758332"
    stroke="hsla(0,50%,50%,0.6)"
    stroke-width="1"
    transform="translate(44.7558528726,233.6275383304) scale(1,-1) translate(50,-110)"
    />
  
  <line
    x1="15"
    y1="-210"
    x2="14.276372299740508"
    y2="-206.30145842089593"
    stroke="hsla(0,50%,50%,0.6)"
    stroke-width="1"
    transform="translate(44.7558528726,233.6275383304) scale(1,-1) translate(50,-110)"
    />
  
  <line
    x1="-47.5814297032101"
    y1="-243.09960281026912"
    x2="-45.22331086352384"
    y2="-231.8463794579413"
    stroke="hsla(0,50%,50%,0.6)"
    stroke-width="1"
    transform="translate(44.7558528726,233.6275383304) scale(1,-1) translate(50,-110)"
    />
  
  <line
    x1="6.4224284223102615"
    y1="-224.85987602040368"
    x2="6.4891184512702855"
    y2="-223.075413300858"
    stroke="hsla(0,50%,50%,0.6)"
    stroke-width="1"
    transform="translate(44.7558528726,233.6275383304) scale(1,-1) translate(50,-110)"
    />
  
  <line
    x1="0.00738169804997044"
    y1="-187.68212785160782"
    x2="-0.008700394651657537"
    y2="-182.64423369372105"
    stroke="hsla(0,50%,50%,0.6)"
    stroke-width="1"
    transform="translate(44.7558528726,233.6275383304) scale(1,-1) translate(50,-110)"
    />
  
  <line
    x1="-24.642544861817207"
    y1="-224.66743600117158"
    x2="-23.281985055783753"
    y2="-190.11343742445547"
    stroke="hsla(0,50%,50%,0.6)"
    stroke-width="1"
    transform="translate(44.7558528726,233.6275383304) scale(1,-1) translate(50,-110)"
    />
  
</svg>
