<?xml version="1.0"?>
<!DOCTYPE svg PUBLIC "-//W3C//DTD SVG 1.1//EN"
  "http://www.w3.org/Graphics/SVG/1.1/DTD/svg11.dtd">
<svg
  width="240"
  height="240"
  viewBox="-50 -50 200 200" xmlns="http://www.w3.org/2000/svg" version="1.1">
  <rect
    x="0"
    y="0"
    width="100"
    height="100"
    fill="hsla(206,100%,53%,0.3)"
    stroke="hsl(206,100%,53%)"
    stroke-width="3"
    transform="" />
  
  <path
    d="M 
      -140031520710583628985770760254637938716018133849320918339041108597743994333.3333333333
      -140031520710583628985770760254637938716018133849320918339041108597743994300
      L
    
      -140031520710583628985770760254637938716018133849320918339041108597743994300
      -140031520710583628985770760254637938716018133849320918339041108597743994300
      L
    
      -140031520710583628985770760254637938716018133849320918339041108597743994266.6666666666
      -140031520710583628985770760254637938716018133849320918339041108597743994266.6666666666
      L
    
      -140031520710583628985770760254637938716018133849320918339041108597743994266.6666666666
      -140031520710583628985770760254637938716018133849320918339041108597743994233.3333333333
      L
    
      -140031520710583628985770760254637938716018133849320918339041108597743994300
      -140031520710583628985770760254637938716018133849320918339041108597743994233.3333333333
      L
    
      -140031520710583628985770760254637938716018133849320918339041108597743994300
      -140031520710583628985770760254637938716018133849320918339041108597743994266.6666666666
      L
    
      -140031520710583628985770760254637938716018133849320918339041108597743994333.3333333333
      -140031520710583628985770760254637938716018133849320918339041108597743994266.6666666666
      z
    "
    fill="hsla(0,0%,50%,0.3)"
    stroke="hsla(0,0%,50%,1)"
    stroke-width="1"
    transform="translate(140031520710583628985770760254637938716018133849320918339041108597743994314.0625,140031520710583628985770760254637938716018133849320918339041108597743994261.4583333333) scale(1,-1) translate(50,-110)"
    />
  
  
  <line
    x1="-1.4003152071058363e+74"
    y1="-1.4003152071058363e+74"
    x2="-1.4003152071058363e+74"
    y2="-1.4003152071058363e+74"
    stroke="hsla(0,50%,50%,0.6)"
    stroke-width="1"
    transform="translate(140031520710583628985770760254637938716018133849320918339041108597743994314.0625,140031520710583628985770760254637938716018133849320918339041108597743994261.4583333333) scale(1,-1) translate(50,-110)"
    />
  
  <line
    x1="-1.4003152071058363e+74"
    y1="-1.4003152071058363e+74"
    x2="-1.4003152071058363e+74"
    y2="-1.4003152071058363e+74"
    stroke="hsla(0,50%,50%,0.6)"
    stroke-width="1"
    transform="translate(140031520710583628985770760254637938716018133849320918339041108597743994314.0625,140031520710583628985770760254637938716018133849320918339041108597743994261.4583333333) scale(1,-1) translate(50,-110)"
    />
  
  <line
    x1="-1.4003152071058363e+74"
    y1="-1.4003152071058363e+74"
    x2="-1.4003152071058363e+74"
    y2="-1.4003152071058363e+74"
    stroke="hsla(0,50%,50%,0.6)"
    stroke-width="1"
    transform="translate(140031520710583628985770760254637938716018133849320918339041108597743994314.0625,140031520710583628985770760254637938716018133849320918339041108597743994261.4583333333) scale(1,-1) translate(50,-110)"
    />
  
  <line
    x1="-1.4003152071058363e+74"
    y1="-1.4003152071058363e+74"
    x2="-1.4003152071058363e+74"
    y2="-1.4003152071058363e+74"
    stroke="hsla(0,50%,50%,0.6)"
    stroke-width="1"
    transform="translate(140031520710583628985770760254637938716018133849320918339041108597743994314.0625,140031520710583628985770760254637938716018133849320918339041108597743994261.4583333333) scale(1,-1) translate(50,-110)"
    />
  
  <line
    x1="-1.4003152071058363e+74"
    y1="-1.4003152071058363e+74"
    x2="-1.4003152071058363e+74"
    y2="-1.4003152071058363e+74"
    stroke="hsla(0,50%,50%,0.6)"
    stroke-width="1"
    transform="translate(140031520710583628985770760254637938716018133849320918339041108597743994314.0625,140031520710583628985770760254637938716018133849320918339041108597743994261.4583333333) scale(1,-1) translate(50,-110)"
    />
  
  <line
    x1="-1.4003152071058363e+74"
    y1="-1.4003152071058363e+74"
    x2="-1.4003152071058363e+74"
    y2="-1.4003152071058363e+74"
    stroke="hsla(0,50%,50%,0.6)"
    stroke-width="1"
    transform="translate(140031520710583628985770760254637938716018133849320918339041108597743994314.0625,140031520710583628985770760254637938716018133849320918339041108597743994261.4583333333) scale(1,-1) translate(50,-110)"
    />
  
  <line
    x1="-1.4003152071058363e+74"
    y1="-1.4003152071058363e+74"
    x2="-1.4003152071058363e+74"
    y2="-1.4003152071058363e+74"
    stroke="hsla(0,50%,50%,0.6)"
    stroke-width="1"
    transform="translate(140031520710583628985770760254637938716018133849320918339041108597743994314.0625,140031520710583628985770760254637938716018133849320918339041108597743994261.4583333333) scale(1,-1) translate(50,-110)"
    />
  
</svg>
