<?xml version="1.0"?>
<!DOCTYPE svg PUBLIC "-//W3C//DTD SVG 1.1//EN"
  "http://www.w3.org/Graphics/SVG/1.1/DTD/svg11.dtd">
<svg
  width="240"
  height="240"
  viewBox="-50 -50 200 200" xmlns="http://www.w3.org/2000/svg" version="1.1">
  <rect
    x="0"
    y="0"
    width="100"
    height="100"
    fill="hsla(206,100%,53%,0.3)"
    stroke="hsl(206,100%,53%)"
    stroke-width="3"
    transform="" />
  
  <path
    d="M 
      110.1256148812
      86.5133530751
      L
    
      110.4618741469
      126.9779648566
      L
    
      106.8887178927
      135.7135354709
      L
    
      75.2483089066
      122.7714930735
      L
    
      45.9719691902
      152.0478327899
      L
    
      44.8987640100
      151.6025930414
      L
    
      44.8831683133
      151.6396614622
      L
    
      37.4509961575
      148.5127437315
      L
    
      40.9905775860
      140.0406944058
      L
    
      25.3603204742
      102.3655475722
      L
    
      14.3322168267
      97.8546645103
      L
    
      18.8781370162
      86.7409028952
      z
    "
    fill="hsla(0,0%,50%,0.3)"
    stroke="hsla(0,0%,50%,1)"
    stroke-width="1"
    transform="translate(-21.5151282083,-98.6476441085) scale(1,-1) translate(50,-110)"
    />
  
  
  <line
    x1="93.13811148657787"
    y1="86.55571592651677"
    x2="110.4618741469968"
    y2="126.97796485661388"
    stroke="hsla(0,50%,50%,0.6)"
    stroke-width="1"
    transform="translate(-21.5151282083,-98.6476441085) scale(1,-1) translate(50,-110)"
    />
  
  <line
    x1="71.64691541922805"
    y1="88.02661079819714"
    x2="74.00468241290679"
    y2="93.52808563399611"
    stroke="hsla(0,50%,50%,0.6)"
    stroke-width="1"
    transform="translate(-21.5151282083,-98.6476441085) scale(1,-1) translate(50,-110)"
    />
  
  <line
    x1="87.93619278562261"
    y1="98.86273720416345"
    x2="92.39020231914651"
    y2="105.6295996610515"
    stroke="hsla(0,50%,50%,0.6)"
    stroke-width="1"
    transform="translate(-21.5151282083,-98.6476441085) scale(1,-1) translate(50,-110)"
    />
  
  <line
    x1="110.1256148812893"
    y1="86.51335307515839"
    x2="110.4618741469968"
    y2="126.97796485661388"
    stroke="hsla(0,50%,50%,0.6)"
    stroke-width="1"
    transform="translate(-21.5151282083,-98.6476441085) scale(1,-1) translate(50,-110)"
    />
  
  <line
    x1="99.00990099009901"
    y1="87.93570386939027"
    x2="99.0829988022815"
    y2="98.93680317791653"
    stroke="hsla(0,50%,50%,0.6)"
    stroke-width="1"
    transform="translate(-21.5151282083,-98.6476441085) scale(1,-1) translate(50,-110)"
    />
  
  <line
    x1="98.9961273413122"
    y1="87.93574962902078"
    x2="99.00990099009901"
    y2="90.6973490366493"
    stroke="hsla(0,50%,50%,0.6)"
    stroke-width="1"
    transform="translate(-21.5151282083,-98.6476441085) scale(1,-1) translate(50,-110)"
    />
  
  <line
    x1="98.9961273413122"
    y1="87.93574962902078"
    x2="99.00532505864494"
    y2="93.48666020640428"
    stroke="hsla(0,50%,50%,0.6)"
    stroke-width="1"
    transform="translate(-21.5151282083,-98.6476441085) scale(1,-1) translate(50,-110)"
    />
  
  <line
    x1="99.00990099009901"
    y1="87.93570386939027"
    x2="99.00990099009901"
    y2="90.6973490366493"
    stroke="hsla(0,50%,50%,0.6)"
    stroke-width="1"
    transform="translate(-21.5151282083,-98.6476441085) scale(1,-1) translate(50,-110)"
    />
  
  <line
    x1="110.1256148812893"
    y1="86.51335307515839"
    x2="110.12101210121013"
    y2="87.8987898789879"
    stroke="hsla(0,50%,50%,0.6)"
    stroke-width="1"
    transform="translate(-21.5151282083,-98.6476441085) scale(1,-1) translate(50,-110)"
    />
  
  <line
    x1="18.87813701627722"
    y1="86.74090289527064"
    x2="45.971969190236855"
    y2="152.04783278996115"
    stroke="hsla(0,50%,50%,0.6)"
    stroke-width="1"
    transform="translate(-21.5151282083,-98.6476441085) scale(1,-1) translate(50,-110)"
    />
  
  <line
    x1="18.87813701627722"
    y1="86.74090289527064"
    x2="14.332216826716898"
    y2="97.85466451031428"
    stroke="hsla(0,50%,50%,0.6)"
    stroke-width="1"
    transform="translate(-21.5151282083,-98.6476441085) scale(1,-1) translate(50,-110)"
    />
  
  <line
    x1="65.67656765676567"
    y1="88.04644584059734"
    x2="92.39020231914651"
    y2="105.6295996610515"
    stroke="hsla(0,50%,50%,0.6)"
    stroke-width="1"
    transform="translate(-21.5151282083,-98.6476441085) scale(1,-1) translate(50,-110)"
    />
  
  <line
    x1="61.56697861566979"
    y1="90.79072290790722"
    x2="37.450996157555856"
    y2="148.51274373159364"
    stroke="hsla(0,50%,50%,0.6)"
    stroke-width="1"
    transform="translate(-21.5151282083,-98.6476441085) scale(1,-1) translate(50,-110)"
    />
  
  <line
    x1="71.64691541922805"
    y1="88.02661079819714"
    x2="44.88316831336011"
    y2="151.63966146228972"
    stroke="hsla(0,50%,50%,0.6)"
    stroke-width="1"
    transform="translate(-21.5151282083,-98.6476441085) scale(1,-1) translate(50,-110)"
    />
  
  <line
    x1="93.13811148657787"
    y1="86.55571592651677"
    x2="87.93619278562261"
    y2="98.86273720416345"
    stroke="hsla(0,50%,50%,0.6)"
    stroke-width="1"
    transform="translate(-21.5151282083,-98.6476441085) scale(1,-1) translate(50,-110)"
    />
  
  <line
    x1="110.4618741469968"
    y1="126.97796485661388"
    x2="106.88871789274894"
    y2="135.71353547094395"
    stroke="hsla(0,50%,50%,0.6)"
    stroke-width="1"
    transform="translate(-21.5151282083,-98.6476441085) scale(1,-1) translate(50,-110)"
    />
  
  <line
    x1="14.332216826716898"
    y1="97.85466451031428"
    x2="106.88871789274894"
    y2="135.71353547094395"
    stroke="hsla(0,50%,50%,0.6)"
    stroke-width="1"
    transform="translate(-21.5151282083,-98.6476441085) scale(1,-1) translate(50,-110)"
    />
  
  <line
    x1="110.1256148812893"
    y1="86.51335307515839"
    x2="18.87813701627722"
    y2="86.74090289527064"
    stroke="hsla(0,50%,50%,0.6)"
    stroke-width="1"
    transform="translate(-21.5151282083,-98.6476441085) scale(1,-1) translate(50,-110)"
    />
  
  <line
    x1="110.12101210121013"
    y1="87.8987898789879"
    x2="65.67656765676567"
    y2="88.04644584059734"
    stroke="hsla(0,50%,50%,0.6)"
    stroke-width="1"
    transform="translate(-21.5151282083,-98.6476441085) scale(1,-1) translate(50,-110)"
    />
  
  <line
    x1="99.00990099009901"
    y1="90.6973490366493"
    x2="61.56697861566979"
    y2="90.79072290790722"
    stroke="hsla(0,50%,50%,0.6)"
    stroke-width="1"
    transform="translate(-21.5151282083,-98.6476441085) scale(1,-1) translate(50,-110)"
    />
  
  <line
    x1="65.67656765676567"
    y1="88.04644584059734"
    x2="61.56697861566979"
    y2="90.79072290790722"
    stroke="hsla(0,50%,50%,0.6)"
    stroke-width="1"
    transform="translate(-21.5151282083,-98.6476441085) scale(1,-1) translate(50,-110)"
    />
  
  <line
    x1="99.00532505864494"
    y1="93.48666020640428"
    x2="74.00468241290679"
    y2="93.52808563399611"
    stroke="hsla(0,50%,50%,0.6)"
    stroke-width="1"
    transform="translate(-21.5151282083,-98.6476441085) scale(1,-1) translate(50,-110)"
    />
  
  <line
    x1="87.93619278562261"
    y1="98.86273720416345"
    x2="99.0829988022815"
    y2="98.93680317791653"
    stroke="hsla(0,50%,50%,0.6)"
    stroke-width="1"
    transform="translate(-21.5151282083,-98.6476441085) scale(1,-1) translate(50,-110)"
    />
  
  <line
    x1="110.12101210121013"
    y1="87.8987898789879"
    x2="45.971969190236855"
    y2="152.04783278996115"
    stroke="hsla(0,50%,50%,0.6)"
    stroke-width="1"
    transform="translate(-21.5151282083,-98.6476441085) scale(1,-1) translate(50,-110)"
    />
  
  <line
    x1="37.450996157555856"
    y1="148.51274373159364"
    x2="44.88316831336011"
    y2="151.63966146228972"
    stroke="hsla(0,50%,50%,0.6)"
    stroke-width="1"
    transform="translate(-21.5151282083,-98.6476441085) scale(1,-1) translate(50,-110)"
    />
  
  <line
    x1="37.450996157555856"
    y1="148.51274373159364"
    x2="45.971969190236855"
    y2="152.04783278996115"
    stroke="hsla(0,50%,50%,0.6)"
    stroke-width="1"
    transform="translate(-21.5151282083,-98.6476441085) scale(1,-1) translate(50,-110)"
    />
  
</svg>
