<?xml version="1.0"?>
<!DOCTYPE svg PUBLIC "-//W3C//DTD SVG 1.1//EN"
  "http://www.w3.org/Graphics/SVG/1.1/DTD/svg11.dtd">
<svg
  width="240"
  height="240"
  viewBox="-50 -50 200 200" xmlns="http://www.w3.org/2000/svg" version="1.1">
  <rect
    x="0"
    y="0"
    width="100"
    height="100"
    fill="hsla(206,100%,53%,0.3)"
    stroke="hsl(206,100%,53%)"
    stroke-width="3"
    transform="" />
  
  <path
    d="M 
      51.3333333333
      27.1666666666
      L
    
      59.5468420356
      33.5989325178
      L
    
      62.3521450637
      30.4901073494
      L
    
      72.6131260001
      32.4135086306
      L
    
      68.3667507383
      55.0671150491
      L
    
      68.6666666666
      56.6666666666
      L
    
      67.6854323718
      58.7018192781
      L
    
      67.1435458560
      61.5926810356
      L
    
      66.2763569419
      61.6243460956
      L
    
      65.2016596083
      63.8533479728
      L
    
      64.9123988481
      66.6643643268
      L
    
      62.9340585963
      66.4607880636
      L
    
      46.3333333333
      72.6666666666
      L
    
      40.2237244924
      68.1037942411
      L
    
      35.0112923670
      74.3947114514
      L
    
      28.2937109567
      74.0242452845
      L
    
      29.9715474797
      43.6004051475
      L
    
      30.2715786682
      43.5526628397
      L
    
      31.6458682249
      28.8190176771
      L
    
      41.5173569577
      29.7397866874
      z
    "
    fill="hsla(0,0%,50%,0.3)"
    stroke="hsla(0,0%,50%,1)"
    stroke-width="1"
    transform="translate(-36.5045780190,-34.7906281809) scale(1,-1) translate(50,-110)"
    />
  
  
  <line
    x1="62.352145063767665"
    y1="30.490107349435576"
    x2="66.06543497965403"
    y2="43.03187857983145"
    stroke="hsla(0,50%,50%,0.6)"
    stroke-width="1"
    transform="translate(-36.5045780190,-34.7906281809) scale(1,-1) translate(50,-110)"
    />
  
  <line
    x1="51.333333333333336"
    y1="27.166666666666668"
    x2="61.194450123146716"
    y2="52.79097183688171"
    stroke="hsla(0,50%,50%,0.6)"
    stroke-width="1"
    transform="translate(-36.5045780190,-34.7906281809) scale(1,-1) translate(50,-110)"
    />
  
  <line
    x1="63.855244898697975"
    y1="49.146248386045784"
    x2="67.1435458560497"
    y2="61.59268103565824"
    stroke="hsla(0,50%,50%,0.6)"
    stroke-width="1"
    transform="translate(-36.5045780190,-34.7906281809) scale(1,-1) translate(50,-110)"
    />
  
  <line
    x1="52.84161622816047"
    y1="30.796063737802115"
    x2="64.16666666666667"
    y2="66"
    stroke="hsla(0,50%,50%,0.6)"
    stroke-width="1"
    transform="translate(-36.5045780190,-34.7906281809) scale(1,-1) translate(50,-110)"
    />
  
  <line
    x1="65.16666666666667"
    y1="38"
    x2="68.66666666666667"
    y2="56.666666666666664"
    stroke="hsla(0,50%,50%,0.6)"
    stroke-width="1"
    transform="translate(-36.5045780190,-34.7906281809) scale(1,-1) translate(50,-110)"
    />
  
  <line
    x1="51.333333333333336"
    y1="27.166666666666668"
    x2="65.16666666666667"
    y2="38"
    stroke="hsla(0,50%,50%,0.6)"
    stroke-width="1"
    transform="translate(-36.5045780190,-34.7906281809) scale(1,-1) translate(50,-110)"
    />
  
  <line
    x1="34.166666666666664"
    y1="31.666666666666668"
    x2="40.9336652552432"
    y2="64.19689141535127"
    stroke="hsla(0,50%,50%,0.6)"
    stroke-width="1"
    transform="translate(-36.5045780190,-34.7906281809) scale(1,-1) translate(50,-110)"
    />
  
  <line
    x1="34.86854699023232"
    y1="46.416885412760486"
    x2="46.333333333333336"
    y2="72.66666666666667"
    stroke="hsla(0,50%,50%,0.6)"
    stroke-width="1"
    transform="translate(-36.5045780190,-34.7906281809) scale(1,-1) translate(50,-110)"
    />
  
  <line
    x1="29.971547479733882"
    y1="43.60040514750975"
    x2="37.74304466959791"
    y2="63.59581979226407"
    stroke="hsla(0,50%,50%,0.6)"
    stroke-width="1"
    transform="translate(-36.5045780190,-34.7906281809) scale(1,-1) translate(50,-110)"
    />
  
  <line
    x1="31.34109144904437"
    y1="59.52929557126704"
    x2="35.011292367003136"
    y2="74.39471145143787"
    stroke="hsla(0,50%,50%,0.6)"
    stroke-width="1"
    transform="translate(-36.5045780190,-34.7906281809) scale(1,-1) translate(50,-110)"
    />
  
  <line
    x1="31.5"
    y1="50"
    x2="33.166666666666664"
    y2="62.833333333333336"
    stroke="hsla(0,50%,50%,0.6)"
    stroke-width="1"
    transform="translate(-36.5045780190,-34.7906281809) scale(1,-1) translate(50,-110)"
    />
  
  <line
    x1="36.25460171877039"
    y1="42.418157075480494"
    x2="37.74304466959791"
    y2="63.59581979226407"
    stroke="hsla(0,50%,50%,0.6)"
    stroke-width="1"
    transform="translate(-36.5045780190,-34.7906281809) scale(1,-1) translate(50,-110)"
    />
  
  <line
    x1="29.971547479733882"
    y1="43.60040514750975"
    x2="28.293710956731292"
    y2="74.02424528458931"
    stroke="hsla(0,50%,50%,0.6)"
    stroke-width="1"
    transform="translate(-36.5045780190,-34.7906281809) scale(1,-1) translate(50,-110)"
    />
  
  <line
    x1="31.64586822498174"
    y1="28.819017677136596"
    x2="29.906058028541725"
    y2="47.47137951674385"
    stroke="hsla(0,50%,50%,0.6)"
    stroke-width="1"
    transform="translate(-36.5045780190,-34.7906281809) scale(1,-1) translate(50,-110)"
    />
  
  <line
    x1="34.166666666666664"
    y1="31.666666666666668"
    x2="31.5"
    y2="50"
    stroke="hsla(0,50%,50%,0.6)"
    stroke-width="1"
    transform="translate(-36.5045780190,-34.7906281809) scale(1,-1) translate(50,-110)"
    />
  
  <line
    x1="67.82706433637284"
    y1="38.33984375"
    x2="64.91239884813939"
    y2="66.66436432685627"
    stroke="hsla(0,50%,50%,0.6)"
    stroke-width="1"
    transform="translate(-36.5045780190,-34.7906281809) scale(1,-1) translate(50,-110)"
    />
  
  <line
    x1="72.6131260001245"
    y1="32.413508630637445"
    x2="67.1435458560497"
    y2="61.59268103565824"
    stroke="hsla(0,50%,50%,0.6)"
    stroke-width="1"
    transform="translate(-36.5045780190,-34.7906281809) scale(1,-1) translate(50,-110)"
    />
  
  <line
    x1="63.855244898697975"
    y1="49.146248386045784"
    x2="62.06892183541334"
    y2="57.714684596978515"
    stroke="hsla(0,50%,50%,0.6)"
    stroke-width="1"
    transform="translate(-36.5045780190,-34.7906281809) scale(1,-1) translate(50,-110)"
    />
  
  <line
    x1="62.352145063767665"
    y1="30.490107349435576"
    x2="72.6131260001245"
    y2="32.413508630637445"
    stroke="hsla(0,50%,50%,0.6)"
    stroke-width="1"
    transform="translate(-36.5045780190,-34.7906281809) scale(1,-1) translate(50,-110)"
    />
  
  <line
    x1="67.82706433637284"
    y1="38.33984375"
    x2="62.06892183541334"
    y2="57.714684596978515"
    stroke="hsla(0,50%,50%,0.6)"
    stroke-width="1"
    transform="translate(-36.5045780190,-34.7906281809) scale(1,-1) translate(50,-110)"
    />
  
  <line
    x1="36.25460171877039"
    y1="42.418157075480494"
    x2="68.66666666666667"
    y2="56.666666666666664"
    stroke="hsla(0,50%,50%,0.6)"
    stroke-width="1"
    transform="translate(-36.5045780190,-34.7906281809) scale(1,-1) translate(50,-110)"
    />
  
  <line
    x1="34.166666666666664"
    y1="31.666666666666668"
    x2="67.82706433637284"
    y2="38.33984375"
    stroke="hsla(0,50%,50%,0.6)"
    stroke-width="1"
    transform="translate(-36.5045780190,-34.7906281809) scale(1,-1) translate(50,-110)"
    />
  
  <line
    x1="29.906058028541725"
    y1="47.47137951674385"
    x2="64.16666666666667"
    y2="66"
    stroke="hsla(0,50%,50%,0.6)"
    stroke-width="1"
    transform="translate(-36.5045780190,-34.7906281809) scale(1,-1) translate(50,-110)"
    />
  
  <line
    x1="33.166666666666664"
    y1="62.833333333333336"
    x2="46.333333333333336"
    y2="72.66666666666667"
    stroke="hsla(0,50%,50%,0.6)"
    stroke-width="1"
    transform="translate(-36.5045780190,-34.7906281809) scale(1,-1) translate(50,-110)"
    />
  
  <line
    x1="31.64586822498174"
    y1="28.819017677136596"
    x2="52.84161622816047"
    y2="30.796063737802115"
    stroke="hsla(0,50%,50%,0.6)"
    stroke-width="1"
    transform="translate(-36.5045780190,-34.7906281809) scale(1,-1) translate(50,-110)"
    />
  
  <line
    x1="51.333333333333336"
    y1="27.166666666666668"
    x2="31.34109144904437"
    y2="59.52929557126704"
    stroke="hsla(0,50%,50%,0.6)"
    stroke-width="1"
    transform="translate(-36.5045780190,-34.7906281809) scale(1,-1) translate(50,-110)"
    />
  
  <line
    x1="68.66666666666667"
    y1="56.666666666666664"
    x2="64.16666666666667"
    y2="66"
    stroke="hsla(0,50%,50%,0.6)"
    stroke-width="1"
    transform="translate(-36.5045780190,-34.7906281809) scale(1,-1) translate(50,-110)"
    />
  
  <line
    x1="51.333333333333336"
    y1="27.166666666666668"
    x2="34.166666666666664"
    y2="31.666666666666668"
    stroke="hsla(0,50%,50%,0.6)"
    stroke-width="1"
    transform="translate(-36.5045780190,-34.7906281809) scale(1,-1) translate(50,-110)"
    />
  
  <line
    x1="31.5"
    y1="50"
    x2="62.06892183541334"
    y2="57.714684596978515"
    stroke="hsla(0,50%,50%,0.6)"
    stroke-width="1"
    transform="translate(-36.5045780190,-34.7906281809) scale(1,-1) translate(50,-110)"
    />
  
  <line
    x1="36.25460171877039"
    y1="42.418157075480494"
    x2="29.906058028541725"
    y2="47.47137951674385"
    stroke="hsla(0,50%,50%,0.6)"
    stroke-width="1"
    transform="translate(-36.5045780190,-34.7906281809) scale(1,-1) translate(50,-110)"
    />
  
  <line
    x1="66.06543497965403"
    y1="43.03187857983145"
    x2="46.333333333333336"
    y2="72.66666666666667"
    stroke="hsla(0,50%,50%,0.6)"
    stroke-width="1"
    transform="translate(-36.5045780190,-34.7906281809) scale(1,-1) translate(50,-110)"
    />
  
  <line
    x1="52.84161622816047"
    y1="30.796063737802115"
    x2="34.86854699023232"
    y2="46.416885412760486"
    stroke="hsla(0,50%,50%,0.6)"
    stroke-width="1"
    transform="translate(-36.5045780190,-34.7906281809) scale(1,-1) translate(50,-110)"
    />
  
  <line
    x1="62.352145063767665"
    y1="30.490107349435576"
    x2="33.166666666666664"
    y2="62.833333333333336"
    stroke="hsla(0,50%,50%,0.6)"
    stroke-width="1"
    transform="translate(-36.5045780190,-34.7906281809) scale(1,-1) translate(50,-110)"
    />
  
  <line
    x1="65.16666666666667"
    y1="38"
    x2="29.971547479733882"
    y2="43.60040514750975"
    stroke="hsla(0,50%,50%,0.6)"
    stroke-width="1"
    transform="translate(-36.5045780190,-34.7906281809) scale(1,-1) translate(50,-110)"
    />
  
  <line
    x1="65.16666666666667"
    y1="38"
    x2="35.011292367003136"
    y2="74.39471145143787"
    stroke="hsla(0,50%,50%,0.6)"
    stroke-width="1"
    transform="translate(-36.5045780190,-34.7906281809) scale(1,-1) translate(50,-110)"
    />
  
  <line
    x1="66.06543497965403"
    y1="43.03187857983145"
    x2="34.86854699023232"
    y2="46.416885412760486"
    stroke="hsla(0,50%,50%,0.6)"
    stroke-width="1"
    transform="translate(-36.5045780190,-34.7906281809) scale(1,-1) translate(50,-110)"
    />
  
  <line
    x1="63.855244898697975"
    y1="49.146248386045784"
    x2="31.5"
    y2="50"
    stroke="hsla(0,50%,50%,0.6)"
    stroke-width="1"
    transform="translate(-36.5045780190,-34.7906281809) scale(1,-1) translate(50,-110)"
    />
  
  <line
    x1="40.9336652552432"
    y1="64.19689141535127"
    x2="64.91239884813939"
    y2="66.66436432685627"
    stroke="hsla(0,50%,50%,0.6)"
    stroke-width="1"
    transform="translate(-36.5045780190,-34.7906281809) scale(1,-1) translate(50,-110)"
    />
  
  <line
    x1="61.194450123146716"
    y1="52.79097183688171"
    x2="31.34109144904437"
    y2="59.52929557126704"
    stroke="hsla(0,50%,50%,0.6)"
    stroke-width="1"
    transform="translate(-36.5045780190,-34.7906281809) scale(1,-1) translate(50,-110)"
    />
  
  <line
    x1="67.1435458560497"
    y1="61.59268103565824"
    x2="33.166666666666664"
    y2="62.833333333333336"
    stroke="hsla(0,50%,50%,0.6)"
    stroke-width="1"
    transform="translate(-36.5045780190,-34.7906281809) scale(1,-1) translate(50,-110)"
    />
  
  <line
    x1="61.194450123146716"
    y1="52.79097183688171"
    x2="40.9336652552432"
    y2="64.19689141535127"
    stroke="hsla(0,50%,50%,0.6)"
    stroke-width="1"
    transform="translate(-36.5045780190,-34.7906281809) scale(1,-1) translate(50,-110)"
    />
  
  <line
    x1="68.66666666666667"
    y1="56.666666666666664"
    x2="37.74304466959791"
    y2="63.59581979226407"
    stroke="hsla(0,50%,50%,0.6)"
    stroke-width="1"
    transform="translate(-36.5045780190,-34.7906281809) scale(1,-1) translate(50,-110)"
    />
  
  <line
    x1="28.293710956731292"
    y1="74.02424528458931"
    x2="35.011292367003136"
    y2="74.39471145143787"
    stroke="hsla(0,50%,50%,0.6)"
    stroke-width="1"
    transform="translate(-36.5045780190,-34.7906281809) scale(1,-1) translate(50,-110)"
    />
  
  <line
    x1="64.16666666666667"
    y1="66"
    x2="46.333333333333336"
    y2="72.66666666666667"
    stroke="hsla(0,50%,50%,0.6)"
    stroke-width="1"
    transform="translate(-36.5045780190,-34.7906281809) scale(1,-1) translate(50,-110)"
    />
  
</svg>
