<?xml version="1.0"?>
<!DOCTYPE svg PUBLIC "-//W3C//DTD SVG 1.1//EN"
  "http://www.w3.org/Graphics/SVG/1.1/DTD/svg11.dtd">
<svg
  width="240"
  height="240"
  viewBox="-500 -500 1000 1000" xmlns="http://www.w3.org/2000/svg" version="1.1">
  <rect
    x="0"
    y="0"
    width="100"
    height="100"
    fill="hsla(206,100%,53%,0.3)"
    stroke="hsl(206,100%,53%)"
    stroke-width="3"
    transform="" />
  
  <path
    d="M 
      55
      0
      L
    
      70
      0
      L
    
      100
      30
      L
    
      100
      45
      L
    
      95
      50
      L
    
      80
      50
      L
    
      70
      40
      L
    
      70
      30
      L
    
      60
      30
      L
    
      50
      20
      L
    
      50
      5
      z
    "
    fill="hsla(0,0%,50%,0.3)"
    stroke="hsla(0,0%,50%,1)"
    stroke-width="1"
    transform="translate(-76.5625,-28.4375)"
    />
  
  <path
    d="M 
      62.5
      7.5
      L
    
      57.5
      12.5
      L
    
      70
      25
      L
    
      70
      15
      z
    "
    fill="hsla(0,0%,50%,0.3)"
    stroke="hsla(0,0%,50%,1)"
    stroke-width="1"
    transform="translate(-76.5625,-28.4375)"
    />
  
  <path
    d="M 
      75
      30
      L
    
      87.5
      42.5
      L
    
      92.5
      37.5
      L
    
      85
      30
      z
    "
    fill="hsla(0,0%,50%,0.3)"
    stroke="hsla(0,0%,50%,1)"
    stroke-width="1"
    transform="translate(-76.5625,-28.4375)"
    />
  
  
  <line
    x1="70"
    y1="0"
    x2="100"
    y2="30"
    stroke="hsla(0,50%,50%,0.6)"
    stroke-width="1"
    transform="translate(-76.5625,-28.4375)"
    />
  
  <line
    x1="60"
    y1="0"
    x2="100"
    y2="40"
    stroke="hsla(0,50%,50%,0.6)"
    stroke-width="1"
    transform="translate(-76.5625,-28.4375)"
    />
  
  <line
    x1="55"
    y1="0"
    x2="100"
    y2="45"
    stroke="hsla(0,50%,50%,0.6)"
    stroke-width="1"
    transform="translate(-76.5625,-28.4375)"
    />
  
  <line
    x1="50"
    y1="5"
    x2="70"
    y2="25"
    stroke="hsla(0,50%,50%,0.6)"
    stroke-width="1"
    transform="translate(-76.5625,-28.4375)"
    />
  
  <line
    x1="75"
    y1="30"
    x2="95"
    y2="50"
    stroke="hsla(0,50%,50%,0.6)"
    stroke-width="1"
    transform="translate(-76.5625,-28.4375)"
    />
  
  <line
    x1="50"
    y1="10"
    x2="60"
    y2="20"
    stroke="hsla(0,50%,50%,0.6)"
    stroke-width="1"
    transform="translate(-76.5625,-28.4375)"
    />
  
  <line
    x1="80"
    y1="40"
    x2="90"
    y2="50"
    stroke="hsla(0,50%,50%,0.6)"
    stroke-width="1"
    transform="translate(-76.5625,-28.4375)"
    />
  
  <line
    x1="50"
    y1="20"
    x2="60"
    y2="30"
    stroke="hsla(0,50%,50%,0.6)"
    stroke-width="1"
    transform="translate(-76.5625,-28.4375)"
    />
  
  <line
    x1="70"
    y1="40"
    x2="80"
    y2="50"
    stroke="hsla(0,50%,50%,0.6)"
    stroke-width="1"
    transform="translate(-76.5625,-28.4375)"
    />
  
  <line
    x1="55"
    y1="0"
    x2="70"
    y2="0"
    stroke="hsla(0,50%,50%,0.6)"
    stroke-width="1"
    transform="translate(-76.5625,-28.4375)"
    />
  
  <line
    x1="50"
    y1="5"
    x2="50"
    y2="20"
    stroke="hsla(0,50%,50%,0.6)"
    stroke-width="1"
    transform="translate(-76.5625,-28.4375)"
    />
  
  <line
    x1="55"
    y1="5"
    x2="55"
    y2="25"
    stroke="hsla(0,50%,50%,0.6)"
    stroke-width="1"
    transform="translate(-76.5625,-28.4375)"
    />
  
  <line
    x1="60"
    y1="0"
    x2="60"
    y2="10"
    stroke="hsla(0,50%,50%,0.6)"
    stroke-width="1"
    transform="translate(-76.5625,-28.4375)"
    />
  
  <line
    x1="60"
    y1="20"
    x2="60"
    y2="30"
    stroke="hsla(0,50%,50%,0.6)"
    stroke-width="1"
    transform="translate(-76.5625,-28.4375)"
    />
  
  <line
    x1="65"
    y1="0"
    x2="65"
    y2="5"
    stroke="hsla(0,50%,50%,0.6)"
    stroke-width="1"
    transform="translate(-76.5625,-28.4375)"
    />
  
  <line
    x1="70"
    y1="0"
    x2="70"
    y2="40"
    stroke="hsla(0,50%,50%,0.6)"
    stroke-width="1"
    transform="translate(-76.5625,-28.4375)"
    />
  
  <line
    x1="75"
    y1="5"
    x2="75"
    y2="25"
    stroke="hsla(0,50%,50%,0.6)"
    stroke-width="1"
    transform="translate(-76.5625,-28.4375)"
    />
  
  <line
    x1="75"
    y1="30"
    x2="75"
    y2="45"
    stroke="hsla(0,50%,50%,0.6)"
    stroke-width="1"
    transform="translate(-76.5625,-28.4375)"
    />
  
  <line
    x1="80"
    y1="40"
    x2="80"
    y2="50"
    stroke="hsla(0,50%,50%,0.6)"
    stroke-width="1"
    transform="translate(-76.5625,-28.4375)"
    />
  
  <line
    x1="85"
    y1="45"
    x2="85"
    y2="50"
    stroke="hsla(0,50%,50%,0.6)"
    stroke-width="1"
    transform="translate(-76.5625,-28.4375)"
    />
  
  <line
    x1="90"
    y1="40"
    x2="90"
    y2="50"
    stroke="hsla(0,50%,50%,0.6)"
    stroke-width="1"
    transform="translate(-76.5625,-28.4375)"
    />
  
  <line
    x1="95"
    y1="25"
    x2="95"
    y2="45"
    stroke="hsla(0,50%,50%,0.6)"
    stroke-width="1"
    transform="translate(-76.5625,-28.4375)"
    />
  
  <line
    x1="100"
    y1="30"
    x2="100"
    y2="45"
    stroke="hsla(0,50%,50%,0.6)"
    stroke-width="1"
    transform="translate(-76.5625,-28.4375)"
    />
  
  <line
    x1="55"
    y1="5"
    x2="75"
    y2="5"
    stroke="hsla(0,50%,50%,0.6)"
    stroke-width="1"
    transform="translate(-76.5625,-28.4375)"
    />
  
  <line
    x1="50"
    y1="10"
    x2="60"
    y2="10"
    stroke="hsla(0,50%,50%,0.6)"
    stroke-width="1"
    transform="translate(-76.5625,-28.4375)"
    />
  
  <line
    x1="50"
    y1="15"
    x2="55"
    y2="15"
    stroke="hsla(0,50%,50%,0.6)"
    stroke-width="1"
    transform="translate(-76.5625,-28.4375)"
    />
  
  <line
    x1="50"
    y1="20"
    x2="60"
    y2="20"
    stroke="hsla(0,50%,50%,0.6)"
    stroke-width="1"
    transform="translate(-76.5625,-28.4375)"
    />
  
  <line
    x1="55"
    y1="25"
    x2="70"
    y2="25"
    stroke="hsla(0,50%,50%,0.6)"
    stroke-width="1"
    transform="translate(-76.5625,-28.4375)"
    />
  
  <line
    x1="75"
    y1="25"
    x2="95"
    y2="25"
    stroke="hsla(0,50%,50%,0.6)"
    stroke-width="1"
    transform="translate(-76.5625,-28.4375)"
    />
  
  <line
    x1="55"
    y1="0"
    x2="50"
    y2="5"
    stroke="hsla(0,50%,50%,0.6)"
    stroke-width="1"
    transform="translate(-76.5625,-28.4375)"
    />
  
  <line
    x1="60"
    y1="30"
    x2="100"
    y2="30"
    stroke="hsla(0,50%,50%,0.6)"
    stroke-width="1"
    transform="translate(-76.5625,-28.4375)"
    />
  
  <line
    x1="60"
    y1="0"
    x2="50"
    y2="10"
    stroke="hsla(0,50%,50%,0.6)"
    stroke-width="1"
    transform="translate(-76.5625,-28.4375)"
    />
  
  <line
    x1="95"
    y1="35"
    x2="100"
    y2="35"
    stroke="hsla(0,50%,50%,0.6)"
    stroke-width="1"
    transform="translate(-76.5625,-28.4375)"
    />
  
  <line
    x1="70"
    y1="0"
    x2="50"
    y2="20"
    stroke="hsla(0,50%,50%,0.6)"
    stroke-width="1"
    transform="translate(-76.5625,-28.4375)"
    />
  
  <line
    x1="70"
    y1="40"
    x2="80"
    y2="40"
    stroke="hsla(0,50%,50%,0.6)"
    stroke-width="1"
    transform="translate(-76.5625,-28.4375)"
    />
  
  <line
    x1="90"
    y1="40"
    x2="100"
    y2="40"
    stroke="hsla(0,50%,50%,0.6)"
    stroke-width="1"
    transform="translate(-76.5625,-28.4375)"
    />
  
  <line
    x1="75"
    y1="45"
    x2="95"
    y2="45"
    stroke="hsla(0,50%,50%,0.6)"
    stroke-width="1"
    transform="translate(-76.5625,-28.4375)"
    />
  
  <line
    x1="80"
    y1="50"
    x2="95"
    y2="50"
    stroke="hsla(0,50%,50%,0.6)"
    stroke-width="1"
    transform="translate(-76.5625,-28.4375)"
    />
  
  <line
    x1="100"
    y1="30"
    x2="80"
    y2="50"
    stroke="hsla(0,50%,50%,0.6)"
    stroke-width="1"
    transform="translate(-76.5625,-28.4375)"
    />
  
  <line
    x1="100"
    y1="40"
    x2="90"
    y2="50"
    stroke="hsla(0,50%,50%,0.6)"
    stroke-width="1"
    transform="translate(-76.5625,-28.4375)"
    />
  
  <line
    x1="100"
    y1="45"
    x2="95"
    y2="50"
    stroke="hsla(0,50%,50%,0.6)"
    stroke-width="1"
    transform="translate(-76.5625,-28.4375)"
    />
  
</svg>
