<?xml version="1.0"?>
<!DOCTYPE svg PUBLIC "-//W3C//DTD SVG 1.1//EN"
  "http://www.w3.org/Graphics/SVG/1.1/DTD/svg11.dtd">
<svg
  width="240"
  height="240"
  viewBox="-50 -50 200 200" xmlns="http://www.w3.org/2000/svg" version="1.1">
  <rect
    x="0"
    y="0"
    width="100"
    height="100"
    fill="hsla(206,100%,53%,0.3)"
    stroke="hsl(206,100%,53%)"
    stroke-width="3"
    transform="" />
  
  <path
    d="M 
      -143.2656043644
      21.9190931805
      L
    
      -105.3066697354
      51.1628111320
      L
    
      -96.2597524966
      75.0872875942
      L
    
      -119.3488188604
      84.0805743756
      L
    
      -119.0624044257
      85.0963190890
      L
    
      -131.3958857465
      88.7729567211
      L
    
      -152.8968663616
      26.1174870867
      z
    "
    fill="hsla(0,0%,50%,0.3)"
    stroke="hsla(0,0%,50%,1)"
    stroke-width="1"
    transform="translate(138.5315653977,-54.6324410005) scale(1,-1) translate(50,-110)"
    />
  
  
  <line
    x1="-144.45565917904773"
    y1="38.72569955612073"
    x2="-147.66509913693903"
    y2="41.36324905227466"
    stroke="hsla(0,50%,50%,0.6)"
    stroke-width="1"
    transform="translate(138.5315653977,-54.6324410005) scale(1,-1) translate(50,-110)"
    />
  
  <line
    x1="-143.2656043644243"
    y1="21.919093180509797"
    x2="-152.89686636165817"
    y2="26.11748708679707"
    stroke="hsla(0,50%,50%,0.6)"
    stroke-width="1"
    transform="translate(138.5315653977,-54.6324410005) scale(1,-1) translate(50,-110)"
    />
  
  <line
    x1="-142.01750442109312"
    y1="22.880634463868034"
    x2="-152.6304437143743"
    y2="26.893862657084416"
    stroke="hsla(0,50%,50%,0.6)"
    stroke-width="1"
    transform="translate(138.5315653977,-54.6324410005) scale(1,-1) translate(50,-110)"
    />
  
  <line
    x1="-143.2656043644243"
    y1="21.919093180509797"
    x2="-146.42820255757314"
    y2="42.40824758508281"
    stroke="hsla(0,50%,50%,0.6)"
    stroke-width="1"
    transform="translate(138.5315653977,-54.6324410005) scale(1,-1) translate(50,-110)"
    />
  
  <line
    x1="-151.0520297784348"
    y1="26.40626702399393"
    x2="-152.6304437143743"
    y2="26.893862657084416"
    stroke="hsla(0,50%,50%,0.6)"
    stroke-width="1"
    transform="translate(138.5315653977,-54.6324410005) scale(1,-1) translate(50,-110)"
    />
  
  <line
    x1="-142.01750442109312"
    y1="22.880634463868034"
    x2="-144.53387424274237"
    y2="47.0845368011056"
    stroke="hsla(0,50%,50%,0.6)"
    stroke-width="1"
    transform="translate(138.5315653977,-54.6324410005) scale(1,-1) translate(50,-110)"
    />
  
  <line
    x1="-114.37819171425679"
    y1="44.174073625750566"
    x2="-114.88577226769381"
    y2="47.958012879539474"
    stroke="hsla(0,50%,50%,0.6)"
    stroke-width="1"
    transform="translate(138.5315653977,-54.6324410005) scale(1,-1) translate(50,-110)"
    />
  
  <line
    x1="-113.96237186793809"
    y1="44.49442293015639"
    x2="-114.5834279402276"
    y2="49.50194063091296"
    stroke="hsla(0,50%,50%,0.6)"
    stroke-width="1"
    transform="translate(138.5315653977,-54.6324410005) scale(1,-1) translate(50,-110)"
    />
  
  <line
    x1="-151.78722683319052"
    y1="25.834075606622736"
    x2="-152.89686636165817"
    y2="26.11748708679707"
    stroke="hsla(0,50%,50%,0.6)"
    stroke-width="1"
    transform="translate(138.5315653977,-54.6324410005) scale(1,-1) translate(50,-110)"
    />
  
  <line
    x1="-151.0520297784348"
    y1="26.40626702399393"
    x2="-151.28014361631364"
    y2="30.828738386976834"
    stroke="hsla(0,50%,50%,0.6)"
    stroke-width="1"
    transform="translate(138.5315653977,-54.6324410005) scale(1,-1) translate(50,-110)"
    />
  
  <line
    x1="-114.37819171425679"
    y1="44.174073625750566"
    x2="-142.69210813297602"
    y2="55.85491770768804"
    stroke="hsla(0,50%,50%,0.6)"
    stroke-width="1"
    transform="translate(138.5315653977,-54.6324410005) scale(1,-1) translate(50,-110)"
    />
  
  <line
    x1="-113.96237186793809"
    y1="44.49442293015639"
    x2="-142.6442253433806"
    y2="55.99445174677242"
    stroke="hsla(0,50%,50%,0.6)"
    stroke-width="1"
    transform="translate(138.5315653977,-54.6324410005) scale(1,-1) translate(50,-110)"
    />
  
  <line
    x1="-151.78722683319052"
    y1="25.834075606622736"
    x2="-151.7941578951439"
    y2="29.330862238191585"
    stroke="hsla(0,50%,50%,0.6)"
    stroke-width="1"
    transform="translate(138.5315653977,-54.6324410005) scale(1,-1) translate(50,-110)"
    />
  
  <line
    x1="-128.42086496197248"
    y1="51.90732558296403"
    x2="-142.6442253433806"
    y2="55.99445174677242"
    stroke="hsla(0,50%,50%,0.6)"
    stroke-width="1"
    transform="translate(138.5315653977,-54.6324410005) scale(1,-1) translate(50,-110)"
    />
  
  <line
    x1="-128.42086496197248"
    y1="51.90732558296403"
    x2="-142.69210813297602"
    y2="55.85491770768804"
    stroke="hsla(0,50%,50%,0.6)"
    stroke-width="1"
    transform="translate(138.5315653977,-54.6324410005) scale(1,-1) translate(50,-110)"
    />
  
  <line
    x1="-97.88488261592734"
    y1="74.14235332221931"
    x2="-131.52045930865907"
    y2="88.40994002074346"
    stroke="hsla(0,50%,50%,0.6)"
    stroke-width="1"
    transform="translate(138.5315653977,-54.6324410005) scale(1,-1) translate(50,-110)"
    />
  
  <line
    x1="-96.25975249667601"
    y1="75.08728759428095"
    x2="-131.39588574652888"
    y2="88.77295672119135"
    stroke="hsla(0,50%,50%,0.6)"
    stroke-width="1"
    transform="translate(138.5315653977,-54.6324410005) scale(1,-1) translate(50,-110)"
    />
  
  <line
    x1="-131.2702969170172"
    y1="41.80205471222624"
    x2="-119.0624044257027"
    y2="85.09631908908646"
    stroke="hsla(0,50%,50%,0.6)"
    stroke-width="1"
    transform="translate(138.5315653977,-54.6324410005) scale(1,-1) translate(50,-110)"
    />
  
  <line
    x1="-105.30666973543595"
    y1="51.162811132017296"
    x2="-96.25975249667601"
    y2="75.08728759428095"
    stroke="hsla(0,50%,50%,0.6)"
    stroke-width="1"
    transform="translate(138.5315653977,-54.6324410005) scale(1,-1) translate(50,-110)"
    />
  
  <line
    x1="-106.09617980019863"
    y1="50.55456936023258"
    x2="-96.25975249667601"
    y2="75.08728759428095"
    stroke="hsla(0,50%,50%,0.6)"
    stroke-width="1"
    transform="translate(138.5315653977,-54.6324410005) scale(1,-1) translate(50,-110)"
    />
  
  <line
    x1="-147.66509913693903"
    y1="41.36324905227466"
    x2="-131.2702969170172"
    y2="41.80205471222624"
    stroke="hsla(0,50%,50%,0.6)"
    stroke-width="1"
    transform="translate(138.5315653977,-54.6324410005) scale(1,-1) translate(50,-110)"
    />
  
  <line
    x1="-108.32405262753497"
    y1="48.83820705367044"
    x2="-97.88488261592734"
    y2="74.14235332221931"
    stroke="hsla(0,50%,50%,0.6)"
    stroke-width="1"
    transform="translate(138.5315653977,-54.6324410005) scale(1,-1) translate(50,-110)"
    />
  
  <line
    x1="-119.0624044257027"
    y1="85.09631908908646"
    x2="-131.39588574652888"
    y2="88.77295672119135"
    stroke="hsla(0,50%,50%,0.6)"
    stroke-width="1"
    transform="translate(138.5315653977,-54.6324410005) scale(1,-1) translate(50,-110)"
    />
  
  <line
    x1="-109.21424617837341"
    y1="48.152398313846376"
    x2="-97.88488261592734"
    y2="74.14235332221931"
    stroke="hsla(0,50%,50%,0.6)"
    stroke-width="1"
    transform="translate(138.5315653977,-54.6324410005) scale(1,-1) translate(50,-110)"
    />
  
  <line
    x1="-152.89686636165817"
    y1="26.11748708679707"
    x2="-131.39588574652888"
    y2="88.77295672119135"
    stroke="hsla(0,50%,50%,0.6)"
    stroke-width="1"
    transform="translate(138.5315653977,-54.6324410005) scale(1,-1) translate(50,-110)"
    />
  
  <line
    x1="-119.0624044257027"
    y1="85.09631908908646"
    x2="-131.52045930865907"
    y2="88.40994002074346"
    stroke="hsla(0,50%,50%,0.6)"
    stroke-width="1"
    transform="translate(138.5315653977,-54.6324410005) scale(1,-1) translate(50,-110)"
    />
  
  <line
    x1="-144.53387424274237"
    y1="47.0845368011056"
    x2="-105.30666973543595"
    y2="51.162811132017296"
    stroke="hsla(0,50%,50%,0.6)"
    stroke-width="1"
    transform="translate(138.5315653977,-54.6324410005) scale(1,-1) translate(50,-110)"
    />
  
  <line
    x1="-114.88577226769381"
    y1="47.958012879539474"
    x2="-108.32405262753497"
    y2="48.83820705367044"
    stroke="hsla(0,50%,50%,0.6)"
    stroke-width="1"
    transform="translate(138.5315653977,-54.6324410005) scale(1,-1) translate(50,-110)"
    />
  
  <line
    x1="-114.5834279402276"
    y1="49.50194063091296"
    x2="-106.09617980019863"
    y2="50.55456936023258"
    stroke="hsla(0,50%,50%,0.6)"
    stroke-width="1"
    transform="translate(138.5315653977,-54.6324410005) scale(1,-1) translate(50,-110)"
    />
  
  <line
    x1="-146.42820255757314"
    y1="42.40824758508281"
    x2="-109.21424617837341"
    y2="48.152398313846376"
    stroke="hsla(0,50%,50%,0.6)"
    stroke-width="1"
    transform="translate(138.5315653977,-54.6324410005) scale(1,-1) translate(50,-110)"
    />
  
  <line
    x1="-143.2656043644243"
    y1="21.919093180509797"
    x2="-105.30666973543595"
    y2="51.162811132017296"
    stroke="hsla(0,50%,50%,0.6)"
    stroke-width="1"
    transform="translate(138.5315653977,-54.6324410005) scale(1,-1) translate(50,-110)"
    />
  
  <line
    x1="-151.7941578951439"
    y1="29.330862238191585"
    x2="-144.45565917904773"
    y2="38.72569955612073"
    stroke="hsla(0,50%,50%,0.6)"
    stroke-width="1"
    transform="translate(138.5315653977,-54.6324410005) scale(1,-1) translate(50,-110)"
    />
  
  <line
    x1="-151.28014361631364"
    y1="30.828738386976834"
    x2="-144.45565917904773"
    y2="38.72569955612073"
    stroke="hsla(0,50%,50%,0.6)"
    stroke-width="1"
    transform="translate(138.5315653977,-54.6324410005) scale(1,-1) translate(50,-110)"
    />
  
  <line
    x1="-151.78722683319052"
    y1="25.834075606622736"
    x2="-131.2702969170172"
    y2="41.80205471222624"
    stroke="hsla(0,50%,50%,0.6)"
    stroke-width="1"
    transform="translate(138.5315653977,-54.6324410005) scale(1,-1) translate(50,-110)"
    />
  
</svg>
