<?xml version="1.0"?>
<!DOCTYPE svg PUBLIC "-//W3C//DTD SVG 1.1//EN"
  "http://www.w3.org/Graphics/SVG/1.1/DTD/svg11.dtd">
<svg
  width="240"
  height="240"
  viewBox="-50 -50 200 200" xmlns="http://www.w3.org/2000/svg" version="1.1">
  <rect
    x="0"
    y="0"
    width="100"
    height="100"
    fill="hsla(206,100%,53%,0.3)"
    stroke="hsl(206,100%,53%)"
    stroke-width="3"
    transform="" />
  
  <path
    d="M 
      190.0441231726
      75.1714342830
      L
    
      194.6521190800
      122.0041071267
      L
    
      189.3740344630
      128.4341907206
      L
    
      142.5413616192
      133.0421866281
      L
    
      141.9653621308
      127.1881025226
      L
    
      188.7980349746
      122.5801066151
      L
    
      184.1900390671
      75.7474337714
      z
    "
    fill="hsla(0,0%,50%,0.3)"
    stroke="hsla(0,0%,50%,1)"
    stroke-width="1"
    transform="translate(-177.8778510069,-99.8268293136) scale(1,-1) translate(50,-110)"
    />
  
  
  <line
    x1="190.04412317261256"
    y1="75.17143428301254"
    x2="194.6521190800685"
    y2="122.00410712675686"
    stroke="hsla(0,50%,50%,0.6)"
    stroke-width="1"
    transform="translate(-177.8778510069,-99.8268293136) scale(1,-1) translate(50,-110)"
    />
  
  <line
    x1="184.1900390671445"
    y1="75.74743377144453"
    x2="189.37403446303242"
    y2="128.43419072065691"
    stroke="hsla(0,50%,50%,0.6)"
    stroke-width="1"
    transform="translate(-177.8778510069,-99.8268293136) scale(1,-1) translate(50,-110)"
    />
  
  <line
    x1="141.9653621308561"
    y1="127.1881025226448"
    x2="142.5413616192881"
    y2="133.04218662811283"
    stroke="hsla(0,50%,50%,0.6)"
    stroke-width="1"
    transform="translate(-177.8778510069,-99.8268293136) scale(1,-1) translate(50,-110)"
    />
  
  <line
    x1="190.04412317261256"
    y1="75.17143428301254"
    x2="184.1900390671445"
    y2="75.74743377144453"
    stroke="hsla(0,50%,50%,0.6)"
    stroke-width="1"
    transform="translate(-177.8778510069,-99.8268293136) scale(1,-1) translate(50,-110)"
    />
  
  <line
    x1="194.6521190800685"
    y1="122.00410712675686"
    x2="141.9653621308561"
    y2="127.1881025226448"
    stroke="hsla(0,50%,50%,0.6)"
    stroke-width="1"
    transform="translate(-177.8778510069,-99.8268293136) scale(1,-1) translate(50,-110)"
    />
  
  <line
    x1="194.6521190800685"
    y1="122.00410712675686"
    x2="189.37403446303242"
    y2="128.43419072065691"
    stroke="hsla(0,50%,50%,0.6)"
    stroke-width="1"
    transform="translate(-177.8778510069,-99.8268293136) scale(1,-1) translate(50,-110)"
    />
  
  <line
    x1="189.37403446303242"
    y1="128.43419072065691"
    x2="142.5413616192881"
    y2="133.04218662811283"
    stroke="hsla(0,50%,50%,0.6)"
    stroke-width="1"
    transform="translate(-177.8778510069,-99.8268293136) scale(1,-1) translate(50,-110)"
    />
  
</svg>
