<?xml version="1.0"?>
<!DOCTYPE svg PUBLIC "-//W3C//DTD SVG 1.1//EN"
  "http://www.w3.org/Graphics/SVG/1.1/DTD/svg11.dtd">
<svg
  width="240"
  height="240"
  viewBox="-500 -500 1000 1000" xmlns="http://www.w3.org/2000/svg" version="1.1">
  <rect
    x="0"
    y="0"
    width="100"
    height="100"
    fill="hsla(206,100%,53%,0.3)"
    stroke="hsl(206,100%,53%)"
    stroke-width="3"
    transform="" />
  
  <path
    d="M 
      38.5147103126
      98.8345860370
      L
    
      44.1070249475
      102.4636990785
      L
    
      18.7032336568
      141.6099015232
      L
    
      57.8494361015
      167.0136928138
      L
    
      54.2203230599
      172.6060074488
      L
    
      15.0741206153
      147.2022161581
      L
    
      13.1109190219
      137.9807884816
      z
    "
    fill="hsla(0,0%,50%,0.3)"
    stroke="hsla(0,0%,50%,1)"
    stroke-width="1"
    transform="translate(-35.4801775617,-135.7202967429)"
    />
  
  
  <line
    x1="13.110919021921971"
    y1="137.98078848168083"
    x2="15.074120615345691"
    y2="147.2022161581563"
    stroke="hsla(0,50%,50%,0.6)"
    stroke-width="1"
    transform="translate(-35.4801775617,-135.7202967429)"
    />
  
  <line
    x1="38.51471031260303"
    y1="98.83458603703372"
    x2="13.110919021921971"
    y2="137.98078848168083"
    stroke="hsla(0,50%,50%,0.6)"
    stroke-width="1"
    transform="translate(-35.4801775617,-135.7202967429)"
    />
  
  <line
    x1="44.10702494755262"
    y1="102.46369907855959"
    x2="15.074120615345691"
    y2="147.2022161581563"
    stroke="hsla(0,50%,50%,0.6)"
    stroke-width="1"
    transform="translate(-35.4801775617,-135.7202967429)"
    />
  
  <line
    x1="38.51471031260303"
    y1="98.83458603703372"
    x2="44.10702494755262"
    y2="102.46369907855959"
    stroke="hsla(0,50%,50%,0.6)"
    stroke-width="1"
    transform="translate(-35.4801775617,-135.7202967429)"
    />
  
  <line
    x1="57.84943610151866"
    y1="167.01369281388776"
    x2="54.22032305999279"
    y2="172.60600744883735"
    stroke="hsla(0,50%,50%,0.6)"
    stroke-width="1"
    transform="translate(-35.4801775617,-135.7202967429)"
    />
  
  <line
    x1="13.110919021921971"
    y1="137.98078848168083"
    x2="57.84943610151866"
    y2="167.01369281388776"
    stroke="hsla(0,50%,50%,0.6)"
    stroke-width="1"
    transform="translate(-35.4801775617,-135.7202967429)"
    />
  
  <line
    x1="15.074120615345691"
    y1="147.2022161581563"
    x2="54.22032305999279"
    y2="172.60600744883735"
    stroke="hsla(0,50%,50%,0.6)"
    stroke-width="1"
    transform="translate(-35.4801775617,-135.7202967429)"
    />
  
</svg>
