<?xml version="1.0"?>
<!DOCTYPE svg PUBLIC "-//W3C//DTD SVG 1.1//EN"
  "http://www.w3.org/Graphics/SVG/1.1/DTD/svg11.dtd">
<svg
  width="240"
  height="240"
  viewBox="-50 -50 200 200" xmlns="http://www.w3.org/2000/svg" version="1.1">
  <rect
    x="0"
    y="0"
    width="100"
    height="100"
    fill="hsla(206,100%,53%,0.3)"
    stroke="hsl(206,100%,53%)"
    stroke-width="3"
    transform="" />
  
  <path
    d="M 
      92.7706101974
      2.7291715435
      L
    
      134.8073570928
      11.0746256552
      L
    
      129.3468797975
      111.9421864483
      L
    
      86.6548756266
      115.7008396319
      L
    
      85.5586017814
      103.2490050820
      L
    
      73.2978839369
      100.8149142995
      L
    
      81.6433380486
      58.7781674041
      L
    
      77.8846848650
      16.0861632332
      L
    
      90.3365194149
      14.9898893880
      z
    "
    fill="hsla(0,0%,50%,0.3)"
    stroke="hsla(0,0%,50%,1)"
    stroke-width="1"
    transform="translate(-85.3531535963,-31.1275150140) scale(1,-1) translate(50,-110)"
    />
  
  
  <line
    x1="92.770610197465"
    y1="2.7291715435747483"
    x2="134.80735709286716"
    y2="11.074625655212284"
    stroke="hsla(0,50%,50%,0.6)"
    stroke-width="1"
    transform="translate(-85.3531535963,-31.1275150140) scale(1,-1) translate(50,-110)"
    />
  
  <line
    x1="77.88468486507439"
    y1="16.08616323326638"
    x2="86.65487562666905"
    y2="115.70083963190375"
    stroke="hsla(0,50%,50%,0.6)"
    stroke-width="1"
    transform="translate(-85.3531535963,-31.1275150140) scale(1,-1) translate(50,-110)"
    />
  
  <line
    x1="134.80735709286716"
    y1="11.074625655212284"
    x2="129.34687979751362"
    y2="111.94218644836317"
    stroke="hsla(0,50%,50%,0.6)"
    stroke-width="1"
    transform="translate(-85.3531535963,-31.1275150140) scale(1,-1) translate(50,-110)"
    />
  
  <line
    x1="92.770610197465"
    y1="2.7291715435747483"
    x2="73.29788393697741"
    y2="100.81491429951312"
    stroke="hsla(0,50%,50%,0.6)"
    stroke-width="1"
    transform="translate(-85.3531535963,-31.1275150140) scale(1,-1) translate(50,-110)"
    />
  
  <line
    x1="134.80735709286716"
    y1="11.074625655212284"
    x2="77.88468486507439"
    y2="16.08616323326638"
    stroke="hsla(0,50%,50%,0.6)"
    stroke-width="1"
    transform="translate(-85.3531535963,-31.1275150140) scale(1,-1) translate(50,-110)"
    />
  
  <line
    x1="73.29788393697741"
    y1="100.81491429951312"
    x2="129.34687979751362"
    y2="111.94218644836317"
    stroke="hsla(0,50%,50%,0.6)"
    stroke-width="1"
    transform="translate(-85.3531535963,-31.1275150140) scale(1,-1) translate(50,-110)"
    />
  
  <line
    x1="129.34687979751362"
    y1="111.94218644836317"
    x2="86.65487562666905"
    y2="115.70083963190375"
    stroke="hsla(0,50%,50%,0.6)"
    stroke-width="1"
    transform="translate(-85.3531535963,-31.1275150140) scale(1,-1) translate(50,-110)"
    />
  
</svg>
