<?xml version="1.0"?>
<!DOCTYPE svg PUBLIC "-//W3C//DTD SVG 1.1//EN"
  "http://www.w3.org/Graphics/SVG/1.1/DTD/svg11.dtd">
<svg
  width="240"
  height="240"
  viewBox="-500 -500 1000 1000" xmlns="http://www.w3.org/2000/svg" version="1.1">
  <rect
    x="0"
    y="0"
    width="100"
    height="100"
    fill="hsla(206,100%,53%,0.3)"
    stroke="hsl(206,100%,53%)"
    stroke-width="3"
    transform="" />
  
  <path
    d="M 
      -139.8979591836
      -46.5306122448
      L
    
      -123.5714285714
      -46.5306122448
      L
    
      -123.5714285714
      -43.7755102040
      L
    
      -115
      -35.2040816326
      L
    
      -121.7857142857
      -28.4183673469
      L
    
      -128.8265306122
      -35.4591836734
      L
    
      -146.0204081632
      -18.2653061224
      L
    
      -150.9183673469
      -21.9387755102
      L
    
      -155.7142857142
      -17.1428571428
      L
    
      -161.4285714285
      -21.4285714285
      L
    
      -157.1428571428
      -25.7142857142
      L
    
      -158.6734693877
      -27.7551020408
      z
    "
    fill="hsla(0,0%,50%,0.3)"
    stroke="hsla(0,0%,50%,1)"
    stroke-width="1"
    transform="translate(138.2142857142,31.8367346938)"
    />
  
  
  <line
    x1="-139.89795918367346"
    y1="-46.53061224489796"
    x2="-158.6734693877551"
    y2="-27.755102040816325"
    stroke="hsla(0,50%,50%,0.6)"
    stroke-width="1"
    transform="translate(138.2142857142,31.8367346938)"
    />
  
  <line
    x1="-136.3265306122449"
    y1="-46.53061224489796"
    x2="-161.42857142857142"
    y2="-21.428571428571427"
    stroke="hsla(0,50%,50%,0.6)"
    stroke-width="1"
    transform="translate(138.2142857142,31.8367346938)"
    />
  
  <line
    x1="-127.95918367346938"
    y1="-46.53061224489796"
    x2="-161.42857142857142"
    y2="-21.428571428571427"
    stroke="hsla(0,50%,50%,0.6)"
    stroke-width="1"
    transform="translate(138.2142857142,31.8367346938)"
    />
  
  <line
    x1="-126.3265306122449"
    y1="-46.53061224489796"
    x2="-155.71428571428572"
    y2="-17.142857142857142"
    stroke="hsla(0,50%,50%,0.6)"
    stroke-width="1"
    transform="translate(138.2142857142,31.8367346938)"
    />
  
  <line
    x1="-145.71428571428572"
    y1="-25.714285714285715"
    x2="-146.9387755102041"
    y2="-24.489795918367346"
    stroke="hsla(0,50%,50%,0.6)"
    stroke-width="1"
    transform="translate(138.2142857142,31.8367346938)"
    />
  
  <line
    x1="-145.71428571428572"
    y1="-40.714285714285715"
    x2="-152.14285714285714"
    y2="-32.142857142857146"
    stroke="hsla(0,50%,50%,0.6)"
    stroke-width="1"
    transform="translate(138.2142857142,31.8367346938)"
    />
  
  <line
    x1="-137.24489795918367"
    y1="-46.53061224489796"
    x2="-148.57142857142858"
    y2="-31.428571428571427"
    stroke="hsla(0,50%,50%,0.6)"
    stroke-width="1"
    transform="translate(138.2142857142,31.8367346938)"
    />
  
  <line
    x1="-123.57142857142857"
    y1="-40.714285714285715"
    x2="-146.0204081632653"
    y2="-18.26530612244898"
    stroke="hsla(0,50%,50%,0.6)"
    stroke-width="1"
    transform="translate(138.2142857142,31.8367346938)"
    />
  
  <line
    x1="-118.36734693877551"
    y1="-38.57142857142857"
    x2="-120"
    y2="-37.3469387755102"
    stroke="hsla(0,50%,50%,0.6)"
    stroke-width="1"
    transform="translate(138.2142857142,31.8367346938)"
    />
  
  <line
    x1="-120"
    y1="-40.204081632653065"
    x2="-126.78571428571429"
    y2="-33.41836734693877"
    stroke="hsla(0,50%,50%,0.6)"
    stroke-width="1"
    transform="translate(138.2142857142,31.8367346938)"
    />
  
  <line
    x1="-116.93877551020408"
    y1="-37.142857142857146"
    x2="-122.65306122448979"
    y2="-32.857142857142854"
    stroke="hsla(0,50%,50%,0.6)"
    stroke-width="1"
    transform="translate(138.2142857142,31.8367346938)"
    />
  
  <line
    x1="-115"
    y1="-35.204081632653065"
    x2="-122.75510204081633"
    y2="-29.387755102040817"
    stroke="hsla(0,50%,50%,0.6)"
    stroke-width="1"
    transform="translate(138.2142857142,31.8367346938)"
    />
  
  <line
    x1="-115"
    y1="-35.204081632653065"
    x2="-121.78571428571429"
    y2="-28.418367346938776"
    stroke="hsla(0,50%,50%,0.6)"
    stroke-width="1"
    transform="translate(138.2142857142,31.8367346938)"
    />
  
  <line
    x1="-118.36734693877551"
    y1="-38.57142857142857"
    x2="-122.65306122448979"
    y2="-32.857142857142854"
    stroke="hsla(0,50%,50%,0.6)"
    stroke-width="1"
    transform="translate(138.2142857142,31.8367346938)"
    />
  
  <line
    x1="-116.93877551020408"
    y1="-37.142857142857146"
    x2="-122.75510204081633"
    y2="-29.387755102040817"
    stroke="hsla(0,50%,50%,0.6)"
    stroke-width="1"
    transform="translate(138.2142857142,31.8367346938)"
    />
  
  <line
    x1="-139.89795918367346"
    y1="-46.53061224489796"
    x2="-123.57142857142857"
    y2="-46.53061224489796"
    stroke="hsla(0,50%,50%,0.6)"
    stroke-width="1"
    transform="translate(138.2142857142,31.8367346938)"
    />
  
  <line
    x1="-145.71428571428572"
    y1="-40.714285714285715"
    x2="-123.57142857142857"
    y2="-40.714285714285715"
    stroke="hsla(0,50%,50%,0.6)"
    stroke-width="1"
    transform="translate(138.2142857142,31.8367346938)"
    />
  
  <line
    x1="-123.57142857142857"
    y1="-30.20408163265306"
    x2="-120"
    y2="-30.20408163265306"
    stroke="hsla(0,50%,50%,0.6)"
    stroke-width="1"
    transform="translate(138.2142857142,31.8367346938)"
    />
  
  <line
    x1="-145.71428571428572"
    y1="-40.714285714285715"
    x2="-145.71428571428572"
    y2="-25.714285714285715"
    stroke="hsla(0,50%,50%,0.6)"
    stroke-width="1"
    transform="translate(138.2142857142,31.8367346938)"
    />
  
  <line
    x1="-123.57142857142857"
    y1="-46.53061224489796"
    x2="-123.57142857142857"
    y2="-30.20408163265306"
    stroke="hsla(0,50%,50%,0.6)"
    stroke-width="1"
    transform="translate(138.2142857142,31.8367346938)"
    />
  
  <line
    x1="-120"
    y1="-40.204081632653065"
    x2="-120"
    y2="-30.20408163265306"
    stroke="hsla(0,50%,50%,0.6)"
    stroke-width="1"
    transform="translate(138.2142857142,31.8367346938)"
    />
  
  <line
    x1="-127.95918367346938"
    y1="-46.53061224489796"
    x2="-121.42857142857143"
    y2="-41.63265306122449"
    stroke="hsla(0,50%,50%,0.6)"
    stroke-width="1"
    transform="translate(138.2142857142,31.8367346938)"
    />
  
  <line
    x1="-120.71428571428571"
    y1="-39.48979591836735"
    x2="-115"
    y2="-35.204081632653065"
    stroke="hsla(0,50%,50%,0.6)"
    stroke-width="1"
    transform="translate(138.2142857142,31.8367346938)"
    />
  
  <line
    x1="-120"
    y1="-37.3469387755102"
    x2="-115.91836734693878"
    y2="-34.285714285714285"
    stroke="hsla(0,50%,50%,0.6)"
    stroke-width="1"
    transform="translate(138.2142857142,31.8367346938)"
    />
  
  <line
    x1="-122.14285714285714"
    y1="-38.06122448979592"
    x2="-116.42857142857143"
    y2="-33.775510204081634"
    stroke="hsla(0,50%,50%,0.6)"
    stroke-width="1"
    transform="translate(138.2142857142,31.8367346938)"
    />
  
  <line
    x1="-123.57142857142857"
    y1="-36.63265306122449"
    x2="-117.85714285714286"
    y2="-32.3469387755102"
    stroke="hsla(0,50%,50%,0.6)"
    stroke-width="1"
    transform="translate(138.2142857142,31.8367346938)"
    />
  
  <line
    x1="-125"
    y1="-35.204081632653065"
    x2="-119.28571428571429"
    y2="-30.918367346938776"
    stroke="hsla(0,50%,50%,0.6)"
    stroke-width="1"
    transform="translate(138.2142857142,31.8367346938)"
    />
  
  <line
    x1="-129.28571428571428"
    y1="-35.91836734693877"
    x2="-120.71428571428571"
    y2="-29.489795918367346"
    stroke="hsla(0,50%,50%,0.6)"
    stroke-width="1"
    transform="translate(138.2142857142,31.8367346938)"
    />
  
  <line
    x1="-126.3265306122449"
    y1="-46.53061224489796"
    x2="-115"
    y2="-35.204081632653065"
    stroke="hsla(0,50%,50%,0.6)"
    stroke-width="1"
    transform="translate(138.2142857142,31.8367346938)"
    />
  
  <line
    x1="-121.42857142857143"
    y1="-41.63265306122449"
    x2="-115.91836734693878"
    y2="-34.285714285714285"
    stroke="hsla(0,50%,50%,0.6)"
    stroke-width="1"
    transform="translate(138.2142857142,31.8367346938)"
    />
  
  <line
    x1="-120.71428571428571"
    y1="-39.48979591836735"
    x2="-116.42857142857143"
    y2="-33.775510204081634"
    stroke="hsla(0,50%,50%,0.6)"
    stroke-width="1"
    transform="translate(138.2142857142,31.8367346938)"
    />
  
  <line
    x1="-136.3265306122449"
    y1="-46.53061224489796"
    x2="-120"
    y2="-30.20408163265306"
    stroke="hsla(0,50%,50%,0.6)"
    stroke-width="1"
    transform="translate(138.2142857142,31.8367346938)"
    />
  
  <line
    x1="-122.14285714285714"
    y1="-38.06122448979592"
    x2="-117.85714285714286"
    y2="-32.3469387755102"
    stroke="hsla(0,50%,50%,0.6)"
    stroke-width="1"
    transform="translate(138.2142857142,31.8367346938)"
    />
  
  <line
    x1="-123.57142857142857"
    y1="-36.63265306122449"
    x2="-119.28571428571429"
    y2="-30.918367346938776"
    stroke="hsla(0,50%,50%,0.6)"
    stroke-width="1"
    transform="translate(138.2142857142,31.8367346938)"
    />
  
  <line
    x1="-139.89795918367346"
    y1="-46.53061224489796"
    x2="-121.78571428571429"
    y2="-28.418367346938776"
    stroke="hsla(0,50%,50%,0.6)"
    stroke-width="1"
    transform="translate(138.2142857142,31.8367346938)"
    />
  
  <line
    x1="-125"
    y1="-35.204081632653065"
    x2="-120.71428571428571"
    y2="-29.489795918367346"
    stroke="hsla(0,50%,50%,0.6)"
    stroke-width="1"
    transform="translate(138.2142857142,31.8367346938)"
    />
  
  <line
    x1="-148.87755102040816"
    y1="-37.55102040816327"
    x2="-136.22448979591837"
    y2="-28.06122448979592"
    stroke="hsla(0,50%,50%,0.6)"
    stroke-width="1"
    transform="translate(138.2142857142,31.8367346938)"
    />
  
  <line
    x1="-137.24489795918367"
    y1="-46.53061224489796"
    x2="-129.28571428571428"
    y2="-35.91836734693877"
    stroke="hsla(0,50%,50%,0.6)"
    stroke-width="1"
    transform="translate(138.2142857142,31.8367346938)"
    />
  
  <line
    x1="-148.77551020408163"
    y1="-34.08163265306123"
    x2="-143.0612244897959"
    y2="-29.79591836734694"
    stroke="hsla(0,50%,50%,0.6)"
    stroke-width="1"
    transform="translate(138.2142857142,31.8367346938)"
    />
  
  <line
    x1="-152.24489795918367"
    y1="-34.183673469387756"
    x2="-144.48979591836735"
    y2="-28.367346938775512"
    stroke="hsla(0,50%,50%,0.6)"
    stroke-width="1"
    transform="translate(138.2142857142,31.8367346938)"
    />
  
  <line
    x1="-153.3673469387755"
    y1="-33.06122448979592"
    x2="-152.14285714285714"
    y2="-32.142857142857146"
    stroke="hsla(0,50%,50%,0.6)"
    stroke-width="1"
    transform="translate(138.2142857142,31.8367346938)"
    />
  
  <line
    x1="-155.51020408163265"
    y1="-30.918367346938776"
    x2="-146.9387755102041"
    y2="-24.489795918367346"
    stroke="hsla(0,50%,50%,0.6)"
    stroke-width="1"
    transform="translate(138.2142857142,31.8367346938)"
    />
  
  <line
    x1="-145.71428571428572"
    y1="-40.714285714285715"
    x2="-136.22448979591837"
    y2="-28.06122448979592"
    stroke="hsla(0,50%,50%,0.6)"
    stroke-width="1"
    transform="translate(138.2142857142,31.8367346938)"
    />
  
  <line
    x1="-148.87755102040816"
    y1="-37.55102040816327"
    x2="-143.0612244897959"
    y2="-29.79591836734694"
    stroke="hsla(0,50%,50%,0.6)"
    stroke-width="1"
    transform="translate(138.2142857142,31.8367346938)"
    />
  
  <line
    x1="-158.6734693877551"
    y1="-27.755102040816325"
    x2="-146.0204081632653"
    y2="-18.26530612244898"
    stroke="hsla(0,50%,50%,0.6)"
    stroke-width="1"
    transform="translate(138.2142857142,31.8367346938)"
    />
  
  <line
    x1="-148.77551020408163"
    y1="-34.08163265306123"
    x2="-144.48979591836735"
    y2="-28.367346938775512"
    stroke="hsla(0,50%,50%,0.6)"
    stroke-width="1"
    transform="translate(138.2142857142,31.8367346938)"
    />
  
  <line
    x1="-153.21428571428572"
    y1="-33.214285714285715"
    x2="-142.14285714285714"
    y2="-22.142857142857142"
    stroke="hsla(0,50%,50%,0.6)"
    stroke-width="1"
    transform="translate(138.2142857142,31.8367346938)"
    />
  
  <line
    x1="-158.57142857142858"
    y1="-24.285714285714285"
    x2="-152.85714285714286"
    y2="-20"
    stroke="hsla(0,50%,50%,0.6)"
    stroke-width="1"
    transform="translate(138.2142857142,31.8367346938)"
    />
  
  <line
    x1="-152.24489795918367"
    y1="-34.183673469387756"
    x2="-146.42857142857142"
    y2="-26.428571428571427"
    stroke="hsla(0,50%,50%,0.6)"
    stroke-width="1"
    transform="translate(138.2142857142,31.8367346938)"
    />
  
  <line
    x1="-153.3673469387755"
    y1="-33.06122448979592"
    x2="-146.9387755102041"
    y2="-24.489795918367346"
    stroke="hsla(0,50%,50%,0.6)"
    stroke-width="1"
    transform="translate(138.2142857142,31.8367346938)"
    />
  
  <line
    x1="-160"
    y1="-22.857142857142858"
    x2="-154.28571428571428"
    y2="-18.571428571428573"
    stroke="hsla(0,50%,50%,0.6)"
    stroke-width="1"
    transform="translate(138.2142857142,31.8367346938)"
    />
  
  <line
    x1="-155.51020408163265"
    y1="-30.918367346938776"
    x2="-146.0204081632653"
    y2="-18.26530612244898"
    stroke="hsla(0,50%,50%,0.6)"
    stroke-width="1"
    transform="translate(138.2142857142,31.8367346938)"
    />
  
  <line
    x1="-161.42857142857142"
    y1="-21.428571428571427"
    x2="-155.71428571428572"
    y2="-17.142857142857142"
    stroke="hsla(0,50%,50%,0.6)"
    stroke-width="1"
    transform="translate(138.2142857142,31.8367346938)"
    />
  
  <line
    x1="-158.6734693877551"
    y1="-27.755102040816325"
    x2="-152.85714285714286"
    y2="-20"
    stroke="hsla(0,50%,50%,0.6)"
    stroke-width="1"
    transform="translate(138.2142857142,31.8367346938)"
    />
  
  <line
    x1="-158.57142857142858"
    y1="-24.285714285714285"
    x2="-154.28571428571428"
    y2="-18.571428571428573"
    stroke="hsla(0,50%,50%,0.6)"
    stroke-width="1"
    transform="translate(138.2142857142,31.8367346938)"
    />
  
  <line
    x1="-160"
    y1="-22.857142857142858"
    x2="-155.71428571428572"
    y2="-17.142857142857142"
    stroke="hsla(0,50%,50%,0.6)"
    stroke-width="1"
    transform="translate(138.2142857142,31.8367346938)"
    />
  
</svg>
