<?xml version="1.0"?>
<!DOCTYPE svg PUBLIC "-//W3C//DTD SVG 1.1//EN"
  "http://www.w3.org/Graphics/SVG/1.1/DTD/svg11.dtd">
<svg
  width="240"
  height="240"
  viewBox="-50 -50 200 200" xmlns="http://www.w3.org/2000/svg" version="1.1">
  <rect
    x="0"
    y="0"
    width="100"
    height="100"
    fill="hsla(206,100%,53%,0.3)"
    stroke="hsl(206,100%,53%)"
    stroke-width="3"
    transform="" />
  
  <path
    d="M 
      25
      2833.3333333333
      L
    
      75
      2833.3333333333
      L
    
      100
      2858.3333333333
      L
    
      100
      2883.3333333333
      L
    
      50
      2933.3333333333
      L
    
      0
      2883.3333333333
      L
    
      0
      2858.3333333333
      z
    "
    fill="hsla(0,0%,50%,0.3)"
    stroke="hsla(0,0%,50%,1)"
    stroke-width="1"
    transform="translate(-17.1875,-2874.7395833333) scale(1,-1) translate(50,-110)"
    />
  
  
  <line
    x1="0"
    y1="2858.3333333333335"
    x2="0"
    y2="2883.3333333333335"
    stroke="hsla(0,50%,50%,0.6)"
    stroke-width="1"
    transform="translate(-17.1875,-2874.7395833333) scale(1,-1) translate(50,-110)"
    />
  
  <line
    x1="25"
    y1="2833.3333333333335"
    x2="25"
    y2="2858.3333333333335"
    stroke="hsla(0,50%,50%,0.6)"
    stroke-width="1"
    transform="translate(-17.1875,-2874.7395833333) scale(1,-1) translate(50,-110)"
    />
  
  <line
    x1="50"
    y1="2883.3333333333335"
    x2="50"
    y2="2933.3333333333335"
    stroke="hsla(0,50%,50%,0.6)"
    stroke-width="1"
    transform="translate(-17.1875,-2874.7395833333) scale(1,-1) translate(50,-110)"
    />
  
  <line
    x1="75"
    y1="2833.3333333333335"
    x2="75"
    y2="2858.3333333333335"
    stroke="hsla(0,50%,50%,0.6)"
    stroke-width="1"
    transform="translate(-17.1875,-2874.7395833333) scale(1,-1) translate(50,-110)"
    />
  
  <line
    x1="100"
    y1="2858.3333333333335"
    x2="100"
    y2="2883.3333333333335"
    stroke="hsla(0,50%,50%,0.6)"
    stroke-width="1"
    transform="translate(-17.1875,-2874.7395833333) scale(1,-1) translate(50,-110)"
    />
  
  <line
    x1="75"
    y1="2833.3333333333335"
    x2="100"
    y2="2858.3333333333335"
    stroke="hsla(0,50%,50%,0.6)"
    stroke-width="1"
    transform="translate(-17.1875,-2874.7395833333) scale(1,-1) translate(50,-110)"
    />
  
  <line
    x1="25"
    y1="2833.3333333333335"
    x2="0"
    y2="2858.3333333333335"
    stroke="hsla(0,50%,50%,0.6)"
    stroke-width="1"
    transform="translate(-17.1875,-2874.7395833333) scale(1,-1) translate(50,-110)"
    />
  
  <line
    x1="0"
    y1="2883.3333333333335"
    x2="50"
    y2="2933.3333333333335"
    stroke="hsla(0,50%,50%,0.6)"
    stroke-width="1"
    transform="translate(-17.1875,-2874.7395833333) scale(1,-1) translate(50,-110)"
    />
  
  <line
    x1="100"
    y1="2883.3333333333335"
    x2="50"
    y2="2933.3333333333335"
    stroke="hsla(0,50%,50%,0.6)"
    stroke-width="1"
    transform="translate(-17.1875,-2874.7395833333) scale(1,-1) translate(50,-110)"
    />
  
  <line
    x1="25"
    y1="2833.3333333333335"
    x2="75"
    y2="2833.3333333333335"
    stroke="hsla(0,50%,50%,0.6)"
    stroke-width="1"
    transform="translate(-17.1875,-2874.7395833333) scale(1,-1) translate(50,-110)"
    />
  
  <line
    x1="0"
    y1="2858.3333333333335"
    x2="25"
    y2="2858.3333333333335"
    stroke="hsla(0,50%,50%,0.6)"
    stroke-width="1"
    transform="translate(-17.1875,-2874.7395833333) scale(1,-1) translate(50,-110)"
    />
  
  <line
    x1="75"
    y1="2858.3333333333335"
    x2="100"
    y2="2858.3333333333335"
    stroke="hsla(0,50%,50%,0.6)"
    stroke-width="1"
    transform="translate(-17.1875,-2874.7395833333) scale(1,-1) translate(50,-110)"
    />
  
  <line
    x1="0"
    y1="2883.3333333333335"
    x2="100"
    y2="2883.3333333333335"
    stroke="hsla(0,50%,50%,0.6)"
    stroke-width="1"
    transform="translate(-17.1875,-2874.7395833333) scale(1,-1) translate(50,-110)"
    />
  
</svg>
