<?xml version="1.0"?>
<!DOCTYPE svg PUBLIC "-//W3C//DTD SVG 1.1//EN"
  "http://www.w3.org/Graphics/SVG/1.1/DTD/svg11.dtd">
<svg
  width="240"
  height="240"
  viewBox="-500 -500 1000 1000" xmlns="http://www.w3.org/2000/svg" version="1.1">
  <rect
    x="0"
    y="0"
    width="100"
    height="100"
    fill="hsla(206,100%,53%,0.3)"
    stroke="hsl(206,100%,53%)"
    stroke-width="3"
    transform="" />
  
  <path
    d="M 
      93.5254146517
      -7.8108109642
      L
    
      95.3804862894
      -1.4902085697
      L
    
      154.9209624101
      33.8842296771
      L
    
      156.5706225564
      49.3050747606
      L
    
      152.0622885230
      53.5428822382
      L
    
      150.6931408266
      52.0863330227
      L
    
      150.9394280883
      45.9193377890
      L
    
      140.7010018287
      39.7635180042
      L
    
      132.7735054583
      43.0411668138
      L
    
      103.1819698764
      50.4574593140
      L
    
      105.0408453376
      70.3360458788
      L
    
      94.3024139404
      79.1610353820
      L
    
      94.0831460555
      79.1415786933
      L
    
      95.3365198762
      65.0166352729
      L
    
      79.5711244061
      56.3748587574
      L
    
      87.6083182481
      -6.1078417553
      z
    "
    fill="hsla(0,0%,50%,0.3)"
    stroke="hsla(0,0%,50%,1)"
    stroke-width="1"
    transform="translate(-118.0708734813,-35.6751122088)"
    />
  
  
  <line
    x1="150.6931408266523"
    y1="52.086333022783066"
    x2="152.0622885230877"
    y2="53.542882238212634"
    stroke="hsla(0,50%,50%,0.6)"
    stroke-width="1"
    transform="translate(-118.0708734813,-35.6751122088)"
    />
  
  <line
    x1="87.60831824810205"
    y1="-6.10784175538929"
    x2="154.92096241017302"
    y2="33.8842296771395"
    stroke="hsla(0,50%,50%,0.6)"
    stroke-width="1"
    transform="translate(-118.0708734813,-35.6751122088)"
    />
  
  <line
    x1="85.94278668084681"
    y1="6.840323009401577"
    x2="156.57062255648665"
    y2="49.305074760647244"
    stroke="hsla(0,50%,50%,0.6)"
    stroke-width="1"
    transform="translate(-118.0708734813,-35.6751122088)"
    />
  
  <line
    x1="85.9987874231124"
    y1="6.404962400175452"
    x2="156.32217816675504"
    y2="46.98264340745042"
    stroke="hsla(0,50%,50%,0.6)"
    stroke-width="1"
    transform="translate(-118.0708734813,-35.6751122088)"
    />
  
  <line
    x1="91.79131108770189"
    y1="-7.311727499469241"
    x2="100.47038277192362"
    y2="21.460078849535098"
    stroke="hsla(0,50%,50%,0.6)"
    stroke-width="1"
    transform="translate(-118.0708734813,-35.6751122088)"
    />
  
  <line
    x1="93.52541465173896"
    y1="-7.8108109642408845"
    x2="96.88306916043508"
    y2="3.6293936596519534"
    stroke="hsla(0,50%,50%,0.6)"
    stroke-width="1"
    transform="translate(-118.0708734813,-35.6751122088)"
    />
  
  <line
    x1="93.52541465173896"
    y1="-7.8108109642408845"
    x2="99.81931350562105"
    y2="14.497623838462744"
    stroke="hsla(0,50%,50%,0.6)"
    stroke-width="1"
    transform="translate(-118.0708734813,-35.6751122088)"
    />
  
  <line
    x1="91.79131108770189"
    y1="-7.311727499469241"
    x2="94.8831998044054"
    y2="3.970109402927798"
    stroke="hsla(0,50%,50%,0.6)"
    stroke-width="1"
    transform="translate(-118.0708734813,-35.6751122088)"
    />
  
  <line
    x1="154.92096241017302"
    y1="33.8842296771395"
    x2="156.57062255648665"
    y2="49.305074760647244"
    stroke="hsla(0,50%,50%,0.6)"
    stroke-width="1"
    transform="translate(-118.0708734813,-35.6751122088)"
    />
  
  <line
    x1="99.81931350562105"
    y1="14.497623838462744"
    x2="105.04084533764251"
    y2="70.33604587885537"
    stroke="hsla(0,50%,50%,0.6)"
    stroke-width="1"
    transform="translate(-118.0708734813,-35.6751122088)"
    />
  
  <line
    x1="151.50120738479416"
    y1="31.852470429539437"
    x2="150.6931408266523"
    y2="52.086333022783066"
    stroke="hsla(0,50%,50%,0.6)"
    stroke-width="1"
    transform="translate(-118.0708734813,-35.6751122088)"
    />
  
  <line
    x1="99.81931350562105"
    y1="14.497623838462744"
    x2="94.08314605559339"
    y2="79.14157869332985"
    stroke="hsla(0,50%,50%,0.6)"
    stroke-width="1"
    transform="translate(-118.0708734813,-35.6751122088)"
    />
  
  <line
    x1="79.57112440619663"
    y1="56.37485875748836"
    x2="105.04084533764251"
    y2="70.33604587885537"
    stroke="hsla(0,50%,50%,0.6)"
    stroke-width="1"
    transform="translate(-118.0708734813,-35.6751122088)"
    />
  
  <line
    x1="100.47038277192362"
    y1="21.460078849535098"
    x2="94.30241394047273"
    y2="79.16103538200097"
    stroke="hsla(0,50%,50%,0.6)"
    stroke-width="1"
    transform="translate(-118.0708734813,-35.6751122088)"
    />
  
  <line
    x1="87.60831824810205"
    y1="-6.10784175538929"
    x2="79.57112440619663"
    y2="56.37485875748836"
    stroke="hsla(0,50%,50%,0.6)"
    stroke-width="1"
    transform="translate(-118.0708734813,-35.6751122088)"
    />
  
  <line
    x1="93.52541465173896"
    y1="-7.8108109642408845"
    x2="87.60831824810205"
    y2="-6.10784175538929"
    stroke="hsla(0,50%,50%,0.6)"
    stroke-width="1"
    transform="translate(-118.0708734813,-35.6751122088)"
    />
  
  <line
    x1="94.8831998044054"
    y1="3.970109402927798"
    x2="85.9987874231124"
    y2="6.404962400175452"
    stroke="hsla(0,50%,50%,0.6)"
    stroke-width="1"
    transform="translate(-118.0708734813,-35.6751122088)"
    />
  
  <line
    x1="96.88306916043508"
    y1="3.6293936596519534"
    x2="85.94278668084681"
    y2="6.840323009401577"
    stroke="hsla(0,50%,50%,0.6)"
    stroke-width="1"
    transform="translate(-118.0708734813,-35.6751122088)"
    />
  
  <line
    x1="94.08314605559339"
    y1="79.14157869332985"
    x2="94.30241394047273"
    y2="79.16103538200097"
    stroke="hsla(0,50%,50%,0.6)"
    stroke-width="1"
    transform="translate(-118.0708734813,-35.6751122088)"
    />
  
  <line
    x1="132.77350545837194"
    y1="43.04116681387737"
    x2="79.57112440619663"
    y2="56.37485875748836"
    stroke="hsla(0,50%,50%,0.6)"
    stroke-width="1"
    transform="translate(-118.0708734813,-35.6751122088)"
    />
  
  <line
    x1="154.92096241017302"
    y1="33.8842296771395"
    x2="132.77350545837194"
    y2="43.04116681387737"
    stroke="hsla(0,50%,50%,0.6)"
    stroke-width="1"
    transform="translate(-118.0708734813,-35.6751122088)"
    />
  
  <line
    x1="151.50120738479416"
    y1="31.852470429539437"
    x2="132.77350545837194"
    y2="43.04116681387737"
    stroke="hsla(0,50%,50%,0.6)"
    stroke-width="1"
    transform="translate(-118.0708734813,-35.6751122088)"
    />
  
  <line
    x1="105.04084533764251"
    y1="70.33604587885537"
    x2="94.30241394047273"
    y2="79.16103538200097"
    stroke="hsla(0,50%,50%,0.6)"
    stroke-width="1"
    transform="translate(-118.0708734813,-35.6751122088)"
    />
  
  <line
    x1="156.32217816675504"
    y1="46.98264340745042"
    x2="150.6931408266523"
    y2="52.086333022783066"
    stroke="hsla(0,50%,50%,0.6)"
    stroke-width="1"
    transform="translate(-118.0708734813,-35.6751122088)"
    />
  
  <line
    x1="156.57062255648665"
    y1="49.305074760647244"
    x2="152.0622885230877"
    y2="53.542882238212634"
    stroke="hsla(0,50%,50%,0.6)"
    stroke-width="1"
    transform="translate(-118.0708734813,-35.6751122088)"
    />
  
</svg>
