<?xml version="1.0"?>
<!DOCTYPE svg PUBLIC "-//W3C//DTD SVG 1.1//EN"
  "http://www.w3.org/Graphics/SVG/1.1/DTD/svg11.dtd">
<svg
  width="240"
  height="240"
  viewBox="-500 -500 1000 1000" xmlns="http://www.w3.org/2000/svg" version="1.1">
  <rect
    x="0"
    y="0"
    width="100"
    height="100"
    fill="hsla(206,100%,53%,0.3)"
    stroke="hsl(206,100%,53%)"
    stroke-width="3"
    transform="" />
  
  <path
    d="M 
      72.5814519141
      -0.2707751245
      L
    
      75.8146796932
      0
      L
    
      100
      0
      L
    
      100
      2.0254629629
      L
    
      92.5454208452
      8.8818351484
      L
    
      136.6311765649
      29.0932340985
      L
    
      134.0587709321
      34.7042482900
      L
    
      135.6720918115
      35.6139241005
      L
    
      134.3460095340
      37.9657468064
      L
    
      135.6942929183
      38.3093564022
      L
    
      136.6951359419
      70.1623388833
      L
    
      132.7534077951
      70.2861907430
      L
    
      128.4301381906
      68.0344878239
      L
    
      122.0682758477
      61.5393455624
      L
    
      120.6387344347
      63.9764650344
      L
    
      63.5250613627
      34.2297603094
      z
    "
    fill="hsla(0,0%,50%,0.3)"
    stroke="hsla(0,0%,50%,1)"
    stroke-width="1"
    transform="translate(-100.1100986523,-35.0077078092)"
    />
  
  
  <line
    x1="131.6285726571418"
    y1="68.56571053214081"
    x2="132.75340779519402"
    y2="70.28619074300342"
    stroke="hsla(0,50%,50%,0.6)"
    stroke-width="1"
    transform="translate(-100.1100986523,-35.0077078092)"
    />
  
  <line
    x1="72.5103734439834"
    y1="0"
    x2="135.67209181157543"
    y2="35.613924100538554"
    stroke="hsla(0,50%,50%,0.6)"
    stroke-width="1"
    transform="translate(-100.1100986523,-35.0077078092)"
    />
  
  <line
    x1="87.21307371369245"
    y1="25.95393295630065"
    x2="128.430138190671"
    y2="68.03448782398101"
    stroke="hsla(0,50%,50%,0.6)"
    stroke-width="1"
    transform="translate(-100.1100986523,-35.0077078092)"
    />
  
  <line
    x1="72.58145191416821"
    y1="-0.27077512451358626"
    x2="136.6311765649164"
    y2="29.09323409857438"
    stroke="hsla(0,50%,50%,0.6)"
    stroke-width="1"
    transform="translate(-100.1100986523,-35.0077078092)"
    />
  
  <line
    x1="72.58145191416821"
    y1="-0.27077512451358626"
    x2="100"
    y2="2.025462962962963"
    stroke="hsla(0,50%,50%,0.6)"
    stroke-width="1"
    transform="translate(-100.1100986523,-35.0077078092)"
    />
  
  <line
    x1="135.6942929183569"
    y1="38.30935640227142"
    x2="136.6951359419567"
    y2="70.162338883324"
    stroke="hsla(0,50%,50%,0.6)"
    stroke-width="1"
    transform="translate(-100.1100986523,-35.0077078092)"
    />
  
  <line
    x1="72.5103734439834"
    y1="0"
    x2="100"
    y2="0"
    stroke="hsla(0,50%,50%,0.6)"
    stroke-width="1"
    transform="translate(-100.1100986523,-35.0077078092)"
    />
  
  <line
    x1="100"
    y1="0"
    x2="100"
    y2="2.025462962962963"
    stroke="hsla(0,50%,50%,0.6)"
    stroke-width="1"
    transform="translate(-100.1100986523,-35.0077078092)"
    />
  
  <line
    x1="63.525061362755025"
    y1="34.229760309441446"
    x2="120.63873443472922"
    y2="63.97646503442801"
    stroke="hsla(0,50%,50%,0.6)"
    stroke-width="1"
    transform="translate(-100.1100986523,-35.0077078092)"
    />
  
  <line
    x1="128.430138190671"
    y1="68.03448782398101"
    x2="132.75340779519402"
    y2="70.28619074300342"
    stroke="hsla(0,50%,50%,0.6)"
    stroke-width="1"
    transform="translate(-100.1100986523,-35.0077078092)"
    />
  
  <line
    x1="87.21307371369245"
    y1="25.95393295630065"
    x2="135.6942929183569"
    y2="38.30935640227142"
    stroke="hsla(0,50%,50%,0.6)"
    stroke-width="1"
    transform="translate(-100.1100986523,-35.0077078092)"
    />
  
  <line
    x1="132.41471362361762"
    y1="37.473556651855"
    x2="130.7565155375476"
    y2="69.24614269214592"
    stroke="hsla(0,50%,50%,0.6)"
    stroke-width="1"
    transform="translate(-100.1100986523,-35.0077078092)"
    />
  
  <line
    x1="64.70991170367192"
    y1="32.8334086530518"
    x2="64.45776489492422"
    y2="34.7155433991129"
    stroke="hsla(0,50%,50%,0.6)"
    stroke-width="1"
    transform="translate(-100.1100986523,-35.0077078092)"
    />
  
  <line
    x1="72.58145191416821"
    y1="-0.27077512451358626"
    x2="63.525061362755025"
    y2="34.229760309441446"
    stroke="hsla(0,50%,50%,0.6)"
    stroke-width="1"
    transform="translate(-100.1100986523,-35.0077078092)"
    />
  
  <line
    x1="128.430138190671"
    y1="68.03448782398101"
    x2="131.6285726571418"
    y2="68.56571053214081"
    stroke="hsla(0,50%,50%,0.6)"
    stroke-width="1"
    transform="translate(-100.1100986523,-35.0077078092)"
    />
  
  <line
    x1="64.70991170367192"
    y1="32.8334086530518"
    x2="63.525061362755025"
    y2="34.229760309441446"
    stroke="hsla(0,50%,50%,0.6)"
    stroke-width="1"
    transform="translate(-100.1100986523,-35.0077078092)"
    />
  
  <line
    x1="87.21307371369245"
    y1="25.95393295630065"
    x2="64.70991170367192"
    y2="32.8334086530518"
    stroke="hsla(0,50%,50%,0.6)"
    stroke-width="1"
    transform="translate(-100.1100986523,-35.0077078092)"
    />
  
  <line
    x1="100"
    y1="2.025462962962963"
    x2="64.45776489492422"
    y2="34.7155433991129"
    stroke="hsla(0,50%,50%,0.6)"
    stroke-width="1"
    transform="translate(-100.1100986523,-35.0077078092)"
    />
  
  <line
    x1="136.6311765649164"
    y1="29.09323409857438"
    x2="120.63873443472922"
    y2="63.97646503442801"
    stroke="hsla(0,50%,50%,0.6)"
    stroke-width="1"
    transform="translate(-100.1100986523,-35.0077078092)"
    />
  
  <line
    x1="132.41471362361762"
    y1="37.473556651855"
    x2="119.89747604463427"
    y2="63.59039295625355"
    stroke="hsla(0,50%,50%,0.6)"
    stroke-width="1"
    transform="translate(-100.1100986523,-35.0077078092)"
    />
  
  <line
    x1="135.67209181157543"
    y1="35.613924100538554"
    x2="119.89747604463427"
    y2="63.59039295625355"
    stroke="hsla(0,50%,50%,0.6)"
    stroke-width="1"
    transform="translate(-100.1100986523,-35.0077078092)"
    />
  
  <line
    x1="135.6942929183569"
    y1="38.30935640227142"
    x2="120.63873443472922"
    y2="63.97646503442801"
    stroke="hsla(0,50%,50%,0.6)"
    stroke-width="1"
    transform="translate(-100.1100986523,-35.0077078092)"
    />
  
  <line
    x1="136.6951359419567"
    y1="70.162338883324"
    x2="132.75340779519402"
    y2="70.28619074300342"
    stroke="hsla(0,50%,50%,0.6)"
    stroke-width="1"
    transform="translate(-100.1100986523,-35.0077078092)"
    />
  
  <line
    x1="131.6285726571418"
    y1="68.56571053214081"
    x2="130.7565155375476"
    y2="69.24614269214592"
    stroke="hsla(0,50%,50%,0.6)"
    stroke-width="1"
    transform="translate(-100.1100986523,-35.0077078092)"
    />
  
</svg>
