<?xml version="1.0"?>
<!DOCTYPE svg PUBLIC "-//W3C//DTD SVG 1.1//EN"
  "http://www.w3.org/Graphics/SVG/1.1/DTD/svg11.dtd">
<svg
  width="240"
  height="240"
  viewBox="-50 -50 200 200" xmlns="http://www.w3.org/2000/svg" version="1.1">
  <rect
    x="0"
    y="0"
    width="100"
    height="100"
    fill="hsla(206,100%,53%,0.3)"
    stroke="hsl(206,100%,53%)"
    stroke-width="3"
    transform="" />
  
  <path
    d="M 
      33.3333333333
      89.3333333333
      L
    
      50
      96
      L
    
      50
      96.3461538461
      L
    
      50.0696443786
      96.3649042557
      L
    
      52.0779467511
      98.7661597464
      L
    
      45.8861515789
      117.3415452632
      L
    
      25.0012227928
      122.2487160674
      L
    
      16.3560772805
      107.1594521887
      L
    
      28.4796805785
      94.4296687258
      L
    
      29.6688861637
      90.8723924287
      L
    
      31.4188532555
      91.3435374149
      z
    "
    fill="hsla(0,0%,50%,0.3)"
    stroke="hsla(0,0%,50%,1)"
    stroke-width="1"
    transform="translate(-29.9886023674,-94.0619768843) scale(1,-1) translate(50,-110)"
    />
  
  
  <line
    x1="37.984223498392424"
    y1="93.11113709572103"
    x2="38.09166121301684"
    y2="93.57199951058172"
    stroke="hsla(0,50%,50%,0.6)"
    stroke-width="1"
    transform="translate(-29.9886023674,-94.0619768843) scale(1,-1) translate(50,-110)"
    />
  
  <line
    x1="33.333333333333336"
    y1="89.33333333333333"
    x2="33.333333333333336"
    y2="100"
    stroke="hsla(0,50%,50%,0.6)"
    stroke-width="1"
    transform="translate(-29.9886023674,-94.0619768843) scale(1,-1) translate(50,-110)"
    />
  
  <line
    x1="50"
    y1="96"
    x2="50"
    y2="100"
    stroke="hsla(0,50%,50%,0.6)"
    stroke-width="1"
    transform="translate(-29.9886023674,-94.0619768843) scale(1,-1) translate(50,-110)"
    />
  
  <line
    x1="29.66888616378335"
    y1="90.8723924287109"
    x2="26.79341116264193"
    y2="104.81625886241271"
    stroke="hsla(0,50%,50%,0.6)"
    stroke-width="1"
    transform="translate(-29.9886023674,-94.0619768843) scale(1,-1) translate(50,-110)"
    />
  
  <line
    x1="50.06964437867169"
    y1="96.36490425579622"
    x2="52.077946751182964"
    y2="98.76615974645111"
    stroke="hsla(0,50%,50%,0.6)"
    stroke-width="1"
    transform="translate(-29.9886023674,-94.0619768843) scale(1,-1) translate(50,-110)"
    />
  
  <line
    x1="29.66888616378335"
    y1="90.8723924287109"
    x2="27.978224705015155"
    y2="95.92967605434448"
    stroke="hsla(0,50%,50%,0.6)"
    stroke-width="1"
    transform="translate(-29.9886023674,-94.0619768843) scale(1,-1) translate(50,-110)"
    />
  
  <line
    x1="16.356077280508682"
    y1="107.15945218879922"
    x2="25.00122279285889"
    y2="122.24871606749817"
    stroke="hsla(0,50%,50%,0.6)"
    stroke-width="1"
    transform="translate(-29.9886023674,-94.0619768843) scale(1,-1) translate(50,-110)"
    />
  
  <line
    x1="52.077946751182964"
    y1="98.76615974645111"
    x2="45.88615157890999"
    y2="117.34154526327004"
    stroke="hsla(0,50%,50%,0.6)"
    stroke-width="1"
    transform="translate(-29.9886023674,-94.0619768843) scale(1,-1) translate(50,-110)"
    />
  
  <line
    x1="27.978224705015155"
    y1="95.92967605434448"
    x2="45.88615157890999"
    y2="117.34154526327004"
    stroke="hsla(0,50%,50%,0.6)"
    stroke-width="1"
    transform="translate(-29.9886023674,-94.0619768843) scale(1,-1) translate(50,-110)"
    />
  
  <line
    x1="26.79341116264193"
    y1="104.81625886241271"
    x2="26.886777368322434"
    y2="104.90411844660771"
    stroke="hsla(0,50%,50%,0.6)"
    stroke-width="1"
    transform="translate(-29.9886023674,-94.0619768843) scale(1,-1) translate(50,-110)"
    />
  
  <line
    x1="33.333333333333336"
    y1="89.33333333333333"
    x2="16.356077280508682"
    y2="107.15945218879922"
    stroke="hsla(0,50%,50%,0.6)"
    stroke-width="1"
    transform="translate(-29.9886023674,-94.0619768843) scale(1,-1) translate(50,-110)"
    />
  
  <line
    x1="37.984223498392424"
    y1="93.11113709572103"
    x2="26.886777368322434"
    y2="104.90411844660771"
    stroke="hsla(0,50%,50%,0.6)"
    stroke-width="1"
    transform="translate(-29.9886023674,-94.0619768843) scale(1,-1) translate(50,-110)"
    />
  
  <line
    x1="33.333333333333336"
    y1="89.33333333333333"
    x2="50"
    y2="96"
    stroke="hsla(0,50%,50%,0.6)"
    stroke-width="1"
    transform="translate(-29.9886023674,-94.0619768843) scale(1,-1) translate(50,-110)"
    />
  
  <line
    x1="50"
    y1="96"
    x2="25.00122279285889"
    y2="122.24871606749817"
    stroke="hsla(0,50%,50%,0.6)"
    stroke-width="1"
    transform="translate(-29.9886023674,-94.0619768843) scale(1,-1) translate(50,-110)"
    />
  
  <line
    x1="29.66888616378335"
    y1="90.8723924287109"
    x2="50.06964437867169"
    y2="96.36490425579622"
    stroke="hsla(0,50%,50%,0.6)"
    stroke-width="1"
    transform="translate(-29.9886023674,-94.0619768843) scale(1,-1) translate(50,-110)"
    />
  
  <line
    x1="38.09166121301684"
    y1="93.57199951058172"
    x2="27.978224705015155"
    y2="95.92967605434448"
    stroke="hsla(0,50%,50%,0.6)"
    stroke-width="1"
    transform="translate(-29.9886023674,-94.0619768843) scale(1,-1) translate(50,-110)"
    />
  
  <line
    x1="33.333333333333336"
    y1="100"
    x2="50"
    y2="100"
    stroke="hsla(0,50%,50%,0.6)"
    stroke-width="1"
    transform="translate(-29.9886023674,-94.0619768843) scale(1,-1) translate(50,-110)"
    />
  
  <line
    x1="50.06964437867169"
    y1="96.36490425579622"
    x2="26.79341116264193"
    y2="104.81625886241271"
    stroke="hsla(0,50%,50%,0.6)"
    stroke-width="1"
    transform="translate(-29.9886023674,-94.0619768843) scale(1,-1) translate(50,-110)"
    />
  
  <line
    x1="52.077946751182964"
    y1="98.76615974645111"
    x2="16.356077280508682"
    y2="107.15945218879922"
    stroke="hsla(0,50%,50%,0.6)"
    stroke-width="1"
    transform="translate(-29.9886023674,-94.0619768843) scale(1,-1) translate(50,-110)"
    />
  
  <line
    x1="45.88615157890999"
    y1="117.34154526327004"
    x2="25.00122279285889"
    y2="122.24871606749817"
    stroke="hsla(0,50%,50%,0.6)"
    stroke-width="1"
    transform="translate(-29.9886023674,-94.0619768843) scale(1,-1) translate(50,-110)"
    />
  
</svg>
