<?xml version="1.0"?>
<!DOCTYPE svg PUBLIC "-//W3C//DTD SVG 1.1//EN"
  "http://www.w3.org/Graphics/SVG/1.1/DTD/svg11.dtd">
<svg
  width="240"
  height="240"
  viewBox="-50 -50 200 200" xmlns="http://www.w3.org/2000/svg" version="1.1">
  <rect
    x="0"
    y="0"
    width="100"
    height="100"
    fill="hsla(206,100%,53%,0.3)"
    stroke="hsl(206,100%,53%)"
    stroke-width="3"
    transform="" />
  
  <path
    d="M 
      106.8029745795
      -25.0749438016
      L
    
      115.7388105425
      -7.1477185968
      L
    
      113.2644331010
      12.4497781663
      L
    
      118.7762290656
      13.1456968217
      L
    
      112.5685144456
      17.9615741309
      L
    
      111.0086247687
      30.3161698283
      L
    
      111.4434947768
      31.0541310541
      L
    
      110.8730035396
      31.3903133903
      L
    
      74.6818613485
      7.5783475783
      L
    
      75.3004557089
      2.6789733875
      L
    
      98.0620759825
      -14.9792434129
      L
    
      94.8514911097
      -19.1177198262
      z
    "
    fill="hsla(0,0%,50%,0.3)"
    stroke="hsla(0,0%,50%,1)"
    stroke-width="1"
    transform="translate(-92.9857570568,10.6998773486) scale(1,-1) translate(50,-110)"
    />
  
  
  <line
    x1="100.8272328446365"
    y1="-22.096331813966337"
    x2="111.27089256107193"
    y2="-16.111331199237434"
    stroke="hsla(0,50%,50%,0.6)"
    stroke-width="1"
    transform="translate(-92.9857570568,10.6998773486) scale(1,-1) translate(50,-110)"
    />
  
  <line
    x1="94.85149110970457"
    y1="-19.117719826297343"
    x2="115.73881054257542"
    y2="-7.1477185968395345"
    stroke="hsla(0,50%,50%,0.6)"
    stroke-width="1"
    transform="translate(-92.9857570568,10.6998773486) scale(1,-1) translate(50,-110)"
    />
  
  <line
    x1="94.85149110970457"
    y1="-19.117719826297343"
    x2="109.29912303735782"
    y2="-0.4945759660730359"
    stroke="hsla(0,50%,50%,0.6)"
    stroke-width="1"
    transform="translate(-92.9857570568,10.6998773486) scale(1,-1) translate(50,-110)"
    />
  
  <line
    x1="106.80297457956844"
    y1="-25.07494380163533"
    x2="115.73881054257542"
    y2="-7.1477185968395345"
    stroke="hsla(0,50%,50%,0.6)"
    stroke-width="1"
    transform="translate(-92.9857570568,10.6998773486) scale(1,-1) translate(50,-110)"
    />
  
  <line
    x1="91.69990503323837"
    y1="-2.45014245014245"
    x2="111.4434947768281"
    y2="31.054131054131055"
    stroke="hsla(0,50%,50%,0.6)"
    stroke-width="1"
    transform="translate(-92.9857570568,10.6998773486) scale(1,-1) translate(50,-110)"
    />
  
  <line
    x1="75.30045570890891"
    y1="2.6789733875509048"
    x2="83.70913037579705"
    y2="13.51784018450685"
    stroke="hsla(0,50%,50%,0.6)"
    stroke-width="1"
    transform="translate(-92.9857570568,10.6998773486) scale(1,-1) translate(50,-110)"
    />
  
  <line
    x1="74.68186134852802"
    y1="7.578347578347579"
    x2="110.87300353967021"
    y2="31.39031339031339"
    stroke="hsla(0,50%,50%,0.6)"
    stroke-width="1"
    transform="translate(-92.9857570568,10.6998773486) scale(1,-1) translate(50,-110)"
    />
  
  <line
    x1="83.70913037579705"
    y1="13.51784018450685"
    x2="104.23551756885091"
    y2="18.82241215574549"
    stroke="hsla(0,50%,50%,0.6)"
    stroke-width="1"
    transform="translate(-92.9857570568,10.6998773486) scale(1,-1) translate(50,-110)"
    />
  
  <line
    x1="74.68186134852802"
    y1="7.578347578347579"
    x2="118.77622906569808"
    y2="13.14569682177567"
    stroke="hsla(0,50%,50%,0.6)"
    stroke-width="1"
    transform="translate(-92.9857570568,10.6998773486) scale(1,-1) translate(50,-110)"
    />
  
  <line
    x1="107.99441937463604"
    y1="-22.684647107662556"
    x2="94.85149110970457"
    y2="-19.117719826297343"
    stroke="hsla(0,50%,50%,0.6)"
    stroke-width="1"
    transform="translate(-92.9857570568,10.6998773486) scale(1,-1) translate(50,-110)"
    />
  
  <line
    x1="75.30045570890891"
    y1="2.6789733875509048"
    x2="74.68186134852802"
    y2="7.578347578347579"
    stroke="hsla(0,50%,50%,0.6)"
    stroke-width="1"
    transform="translate(-92.9857570568,10.6998773486) scale(1,-1) translate(50,-110)"
    />
  
  <line
    x1="100.8272328446365"
    y1="-22.096331813966337"
    x2="95.3625140291807"
    y2="21.185185185185187"
    stroke="hsla(0,50%,50%,0.6)"
    stroke-width="1"
    transform="translate(-92.9857570568,10.6998773486) scale(1,-1) translate(50,-110)"
    />
  
  <line
    x1="111.27089256107193"
    y1="-16.111331199237434"
    x2="109.29912303735782"
    y2="-0.4945759660730359"
    stroke="hsla(0,50%,50%,0.6)"
    stroke-width="1"
    transform="translate(-92.9857570568,10.6998773486) scale(1,-1) translate(50,-110)"
    />
  
  <line
    x1="115.73881054257542"
    y1="-7.1477185968395345"
    x2="110.87300353967021"
    y2="31.39031339031339"
    stroke="hsla(0,50%,50%,0.6)"
    stroke-width="1"
    transform="translate(-92.9857570568,10.6998773486) scale(1,-1) translate(50,-110)"
    />
  
  <line
    x1="106.80297457956844"
    y1="-25.07494380163533"
    x2="94.85149110970457"
    y2="-19.117719826297343"
    stroke="hsla(0,50%,50%,0.6)"
    stroke-width="1"
    transform="translate(-92.9857570568,10.6998773486) scale(1,-1) translate(50,-110)"
    />
  
  <line
    x1="104.23551756885091"
    y1="18.82241215574549"
    x2="102.42420031037918"
    y2="25.83142241678827"
    stroke="hsla(0,50%,50%,0.6)"
    stroke-width="1"
    transform="translate(-92.9857570568,10.6998773486) scale(1,-1) translate(50,-110)"
    />
  
  <line
    x1="107.99441937463604"
    y1="-22.684647107662556"
    x2="75.30045570890891"
    y2="2.6789733875509048"
    stroke="hsla(0,50%,50%,0.6)"
    stroke-width="1"
    transform="translate(-92.9857570568,10.6998773486) scale(1,-1) translate(50,-110)"
    />
  
  <line
    x1="91.69990503323837"
    y1="-2.45014245014245"
    x2="74.68186134852802"
    y2="7.578347578347579"
    stroke="hsla(0,50%,50%,0.6)"
    stroke-width="1"
    transform="translate(-92.9857570568,10.6998773486) scale(1,-1) translate(50,-110)"
    />
  
  <line
    x1="102.98195631528965"
    y1="16.695156695156694"
    x2="95.3625140291807"
    y2="21.185185185185187"
    stroke="hsla(0,50%,50%,0.6)"
    stroke-width="1"
    transform="translate(-92.9857570568,10.6998773486) scale(1,-1) translate(50,-110)"
    />
  
  <line
    x1="118.77622906569808"
    y1="13.14569682177567"
    x2="102.42420031037918"
    y2="25.83142241678827"
    stroke="hsla(0,50%,50%,0.6)"
    stroke-width="1"
    transform="translate(-92.9857570568,10.6998773486) scale(1,-1) translate(50,-110)"
    />
  
  <line
    x1="111.4434947768281"
    y1="31.054131054131055"
    x2="110.87300353967021"
    y2="31.39031339031339"
    stroke="hsla(0,50%,50%,0.6)"
    stroke-width="1"
    transform="translate(-92.9857570568,10.6998773486) scale(1,-1) translate(50,-110)"
    />
  
</svg>
