<?xml version="1.0"?>
<!DOCTYPE svg PUBLIC "-//W3C//DTD SVG 1.1//EN"
  "http://www.w3.org/Graphics/SVG/1.1/DTD/svg11.dtd">
<svg
  width="240"
  height="240"
  viewBox="-50 -50 200 200" xmlns="http://www.w3.org/2000/svg" version="1.1">
  <rect
    x="0"
    y="0"
    width="100"
    height="100"
    fill="hsla(206,100%,53%,0.3)"
    stroke="hsl(206,100%,53%)"
    stroke-width="3"
    transform="" />
  
  <path
    d="M 
      -75.2586595281
      93.9268070267
      L
    
      -42.2144071098
      120.2519880956
      L
    
      -42.1913705474
      148.4666969676
      L
    
      -40.8790610359
      149.5763235919
      L
    
      -42.1860707347
      154.9577988474
      L
    
      -109.8264258424
      146.8895149874
      L
    
      -111.3547405680
      142.5802110123
      L
    
      -100.9661566959
      130.2940625650
      L
    
      -105.5721263266
      129.1714182032
      L
    
      -108.1325514755
      129.8954204703
      L
    
      -108.5419575194
      128.4475610111
      z
    "
    fill="hsla(0,0%,50%,0.3)"
    stroke="hsla(0,0%,50%,1)"
    stroke-width="1"
    transform="translate(106.6932780815,-130.0322453893) scale(1,-1) translate(50,-110)"
    />
  
  
  <line
    x1="-75.25865952811588"
    y1="93.92680702678284"
    x2="-109.82642584245262"
    y2="146.88951498748338"
    stroke="hsla(0,50%,50%,0.6)"
    stroke-width="1"
    transform="translate(106.6932780815,-130.0322453893) scale(1,-1) translate(50,-110)"
    />
  
  <line
    x1="-61.142292616846156"
    y1="105.17281466129462"
    x2="-79.46455045543375"
    y2="141.89225087038383"
    stroke="hsla(0,50%,50%,0.6)"
    stroke-width="1"
    transform="translate(106.6932780815,-130.0322453893) scale(1,-1) translate(50,-110)"
    />
  
  <line
    x1="-50.548433783901665"
    y1="113.61256534665831"
    x2="-52.56285215165423"
    y2="153.7200345291856"
    stroke="hsla(0,50%,50%,0.6)"
    stroke-width="1"
    transform="translate(106.6932780815,-130.0322453893) scale(1,-1) translate(50,-110)"
    />
  
  <line
    x1="-40.87906103596192"
    y1="149.57632359193332"
    x2="-42.18607073475146"
    y2="154.95779884740372"
    stroke="hsla(0,50%,50%,0.6)"
    stroke-width="1"
    transform="translate(106.6932780815,-130.0322453893) scale(1,-1) translate(50,-110)"
    />
  
  <line
    x1="-42.21440710980217"
    y1="120.25198809560396"
    x2="-42.18607073475146"
    y2="154.95779884740372"
    stroke="hsla(0,50%,50%,0.6)"
    stroke-width="1"
    transform="translate(106.6932780815,-130.0322453893) scale(1,-1) translate(50,-110)"
    />
  
  <line
    x1="-85.42313281329002"
    y1="111.9119711180885"
    x2="-111.35474056809984"
    y2="142.5802110123997"
    stroke="hsla(0,50%,50%,0.6)"
    stroke-width="1"
    transform="translate(106.6932780815,-130.0322453893) scale(1,-1) translate(50,-110)"
    />
  
  <line
    x1="-75.25865952811588"
    y1="93.92680702678284"
    x2="-108.54195751944533"
    y2="128.4475610111397"
    stroke="hsla(0,50%,50%,0.6)"
    stroke-width="1"
    transform="translate(106.6932780815,-130.0322453893) scale(1,-1) translate(50,-110)"
    />
  
  <line
    x1="-61.142292616846156"
    y1="105.17281466129462"
    x2="-93.811168681635"
    y2="132.03799654576858"
    stroke="hsla(0,50%,50%,0.6)"
    stroke-width="1"
    transform="translate(106.6932780815,-130.0322453893) scale(1,-1) translate(50,-110)"
    />
  
  <line
    x1="-108.54195751944533"
    y1="128.4475610111397"
    x2="-108.13255147557923"
    y2="129.89542047034328"
    stroke="hsla(0,50%,50%,0.6)"
    stroke-width="1"
    transform="translate(106.6932780815,-130.0322453893) scale(1,-1) translate(50,-110)"
    />
  
  <line
    x1="-111.35474056809984"
    y1="142.5802110123997"
    x2="-109.82642584245262"
    y2="146.88951498748338"
    stroke="hsla(0,50%,50%,0.6)"
    stroke-width="1"
    transform="translate(106.6932780815,-130.0322453893) scale(1,-1) translate(50,-110)"
    />
  
  <line
    x1="-50.548433783901665"
    y1="113.61256534665831"
    x2="-108.13255147557923"
    y2="129.89542047034328"
    stroke="hsla(0,50%,50%,0.6)"
    stroke-width="1"
    transform="translate(106.6932780815,-130.0322453893) scale(1,-1) translate(50,-110)"
    />
  
  <line
    x1="-75.25865952811588"
    y1="93.92680702678284"
    x2="-42.21440710980217"
    y2="120.25198809560396"
    stroke="hsla(0,50%,50%,0.6)"
    stroke-width="1"
    transform="translate(106.6932780815,-130.0322453893) scale(1,-1) translate(50,-110)"
    />
  
  <line
    x1="-42.21440710980217"
    y1="120.25198809560396"
    x2="-93.811168681635"
    y2="132.03799654576858"
    stroke="hsla(0,50%,50%,0.6)"
    stroke-width="1"
    transform="translate(106.6932780815,-130.0322453893) scale(1,-1) translate(50,-110)"
    />
  
  <line
    x1="-85.42313281329002"
    y1="111.9119711180885"
    x2="-40.87906103596192"
    y2="149.57632359193332"
    stroke="hsla(0,50%,50%,0.6)"
    stroke-width="1"
    transform="translate(106.6932780815,-130.0322453893) scale(1,-1) translate(50,-110)"
    />
  
  <line
    x1="-40.87906103596192"
    y1="149.57632359193332"
    x2="-56.76519774036439"
    y2="153.218769906414"
    stroke="hsla(0,50%,50%,0.6)"
    stroke-width="1"
    transform="translate(106.6932780815,-130.0322453893) scale(1,-1) translate(50,-110)"
    />
  
  <line
    x1="-79.46455045543375"
    y1="141.89225087038383"
    x2="-56.76519774036439"
    y2="153.218769906414"
    stroke="hsla(0,50%,50%,0.6)"
    stroke-width="1"
    transform="translate(106.6932780815,-130.0322453893) scale(1,-1) translate(50,-110)"
    />
  
  <line
    x1="-108.54195751944533"
    y1="128.4475610111397"
    x2="-93.811168681635"
    y2="132.03799654576858"
    stroke="hsla(0,50%,50%,0.6)"
    stroke-width="1"
    transform="translate(106.6932780815,-130.0322453893) scale(1,-1) translate(50,-110)"
    />
  
  <line
    x1="-109.82642584245262"
    y1="146.88951498748338"
    x2="-42.18607073475146"
    y2="154.95779884740372"
    stroke="hsla(0,50%,50%,0.6)"
    stroke-width="1"
    transform="translate(106.6932780815,-130.0322453893) scale(1,-1) translate(50,-110)"
    />
  
  <line
    x1="-111.35474056809984"
    y1="142.5802110123997"
    x2="-52.56285215165423"
    y2="153.7200345291856"
    stroke="hsla(0,50%,50%,0.6)"
    stroke-width="1"
    transform="translate(106.6932780815,-130.0322453893) scale(1,-1) translate(50,-110)"
    />
  
</svg>
