<?xml version="1.0"?>
<!DOCTYPE svg PUBLIC "-//W3C//DTD SVG 1.1//EN"
  "http://www.w3.org/Graphics/SVG/1.1/DTD/svg11.dtd">
<svg
  width="240"
  height="240"
  viewBox="-50 -50 200 200" xmlns="http://www.w3.org/2000/svg" version="1.1">
  <rect
    x="0"
    y="0"
    width="100"
    height="100"
    fill="hsla(206,100%,53%,0.3)"
    stroke="hsl(206,100%,53%)"
    stroke-width="3"
    transform="" />
  
  <path
    d="M 
      -47814441155787295.2380952380
      -47814441155787290.4761904761
      L
    
      -47814441155787247.6190476190
      -47814441155787290.4761904761
      L
    
      -47814441155787242.8571428571
      -47814441155787285.7142857142
      L
    
      -47814441155787242.8571428571
      -47814441155787238.0952380952
      L
    
      -47814441155787247.6190476190
      -47814441155787238.0952380952
      L
    
      -47814441155787247.6190476190
      -47814441155787285.7142857142
      L
    
      -47814441155787295.2380952380
      -47814441155787285.7142857142
      z
    "
    fill="hsla(0,0%,50%,0.3)"
    stroke="hsla(0,0%,50%,1)"
    stroke-width="1"
    transform="translate(47814441155787271.7261904761,47814441155787276.9345238095) scale(1,-1) translate(50,-110)"
    />
  
  
  <line
    x1="-47814441155787300"
    y1="-47814441155787290"
    x2="-47814441155787250"
    y2="-47814441155787290"
    stroke="hsla(0,50%,50%,0.6)"
    stroke-width="1"
    transform="translate(47814441155787271.7261904761,47814441155787276.9345238095) scale(1,-1) translate(50,-110)"
    />
  
  <line
    x1="-47814441155787300"
    y1="-47814441155787280"
    x2="-47814441155787250"
    y2="-47814441155787280"
    stroke="hsla(0,50%,50%,0.6)"
    stroke-width="1"
    transform="translate(47814441155787271.7261904761,47814441155787276.9345238095) scale(1,-1) translate(50,-110)"
    />
  
  <line
    x1="-47814441155787250"
    y1="-47814441155787240"
    x2="-47814441155787250"
    y2="-47814441155787240"
    stroke="hsla(0,50%,50%,0.6)"
    stroke-width="1"
    transform="translate(47814441155787271.7261904761,47814441155787276.9345238095) scale(1,-1) translate(50,-110)"
    />
  
  <line
    x1="-47814441155787250"
    y1="-47814441155787290"
    x2="-47814441155787250"
    y2="-47814441155787280"
    stroke="hsla(0,50%,50%,0.6)"
    stroke-width="1"
    transform="translate(47814441155787271.7261904761,47814441155787276.9345238095) scale(1,-1) translate(50,-110)"
    />
  
  <line
    x1="-47814441155787300"
    y1="-47814441155787290"
    x2="-47814441155787300"
    y2="-47814441155787280"
    stroke="hsla(0,50%,50%,0.6)"
    stroke-width="1"
    transform="translate(47814441155787271.7261904761,47814441155787276.9345238095) scale(1,-1) translate(50,-110)"
    />
  
  <line
    x1="-47814441155787250"
    y1="-47814441155787290"
    x2="-47814441155787250"
    y2="-47814441155787240"
    stroke="hsla(0,50%,50%,0.6)"
    stroke-width="1"
    transform="translate(47814441155787271.7261904761,47814441155787276.9345238095) scale(1,-1) translate(50,-110)"
    />
  
  <line
    x1="-47814441155787250"
    y1="-47814441155787280"
    x2="-47814441155787250"
    y2="-47814441155787240"
    stroke="hsla(0,50%,50%,0.6)"
    stroke-width="1"
    transform="translate(47814441155787271.7261904761,47814441155787276.9345238095) scale(1,-1) translate(50,-110)"
    />
  
</svg>
