<?xml version="1.0"?>
<!DOCTYPE svg PUBLIC "-//W3C//DTD SVG 1.1//EN"
  "http://www.w3.org/Graphics/SVG/1.1/DTD/svg11.dtd">
<svg
  width="240"
  height="240"
  viewBox="-50 -50 200 200" xmlns="http://www.w3.org/2000/svg" version="1.1">
  <rect
    x="0"
    y="0"
    width="100"
    height="100"
    fill="hsla(206,100%,53%,0.3)"
    stroke="hsl(206,100%,53%)"
    stroke-width="3"
    transform="" />
  
  <path
    d="M 
      65.3492647058
      0
      L
    
      75.3771551724
      0
      L
    
      99.8514791464
      54.5965688651
      L
    
      22.9247370585
      89.8003321935
      L
    
      26.0083575581
      100
      L
    
      25.8722280723
      100.0905909316
      L
    
      25.8119419642
      100
      L
    
      25.5353009259
      100
      L
    
      13.0859375
      94.3028336864
      L
    
      13.0859375
      57.2566105769
      L
    
      23.1700187090
      23.9015727315
      z
    "
    fill="hsla(0,0%,50%,0.3)"
    stroke="hsla(0,0%,50%,1)"
    stroke-width="1"
    transform="translate(-19.9242595870,-50.2303751753) scale(1,-1) translate(50,-110)"
    />
  
  
  <line
    x1="75.3771551724138"
    y1="0"
    x2="99.85147914645975"
    y2="54.596568865179435"
    stroke="hsla(0,50%,50%,0.6)"
    stroke-width="1"
    transform="translate(-19.9242595870,-50.2303751753) scale(1,-1) translate(50,-110)"
    />
  
  <line
    x1="58.994430693069305"
    y1="18.38180693069307"
    x2="99.70192146333278"
    y2="54.66222310790401"
    stroke="hsla(0,50%,50%,0.6)"
    stroke-width="1"
    transform="translate(-19.9242595870,-50.2303751753) scale(1,-1) translate(50,-110)"
    />
  
  <line
    x1="65.58862826603325"
    y1="24.80478028503563"
    x2="99.70791091172418"
    y2="54.27630126461549"
    stroke="hsla(0,50%,50%,0.6)"
    stroke-width="1"
    transform="translate(-19.9242595870,-50.2303751753) scale(1,-1) translate(50,-110)"
    />
  
  <line
    x1="46.4711654589372"
    y1="10.697589573268921"
    x2="55.70103444003964"
    y2="16.839847621407333"
    stroke="hsla(0,50%,50%,0.6)"
    stroke-width="1"
    transform="translate(-19.9242595870,-50.2303751753) scale(1,-1) translate(50,-110)"
    />
  
  <line
    x1="46.4711654589372"
    y1="10.697589573268921"
    x2="47.38761747706691"
    y2="29.985073933538054"
    stroke="hsla(0,50%,50%,0.6)"
    stroke-width="1"
    transform="translate(-19.9242595870,-50.2303751753) scale(1,-1) translate(50,-110)"
    />
  
  <line
    x1="65.34926470588235"
    y1="0"
    x2="75.3771551724138"
    y2="0"
    stroke="hsla(0,50%,50%,0.6)"
    stroke-width="1"
    transform="translate(-19.9242595870,-50.2303751753) scale(1,-1) translate(50,-110)"
    />
  
  <line
    x1="13.0859375"
    y1="57.25661057692308"
    x2="13.0859375"
    y2="94.30283368644068"
    stroke="hsla(0,50%,50%,0.6)"
    stroke-width="1"
    transform="translate(-19.9242595870,-50.2303751753) scale(1,-1) translate(50,-110)"
    />
  
  <line
    x1="13.0859375"
    y1="57.25661057692308"
    x2="26.008357558139537"
    y2="100"
    stroke="hsla(0,50%,50%,0.6)"
    stroke-width="1"
    transform="translate(-19.9242595870,-50.2303751753) scale(1,-1) translate(50,-110)"
    />
  
  <line
    x1="99.70791091172418"
    y1="54.27630126461549"
    x2="99.70192146333278"
    y2="54.66222310790401"
    stroke="hsla(0,50%,50%,0.6)"
    stroke-width="1"
    transform="translate(-19.9242595870,-50.2303751753) scale(1,-1) translate(50,-110)"
    />
  
  <line
    x1="23.1700187090739"
    y1="23.90157273152479"
    x2="13.0859375"
    y2="57.25661057692308"
    stroke="hsla(0,50%,50%,0.6)"
    stroke-width="1"
    transform="translate(-19.9242595870,-50.2303751753) scale(1,-1) translate(50,-110)"
    />
  
  <line
    x1="23.1700187090739"
    y1="23.90157273152479"
    x2="47.38761747706691"
    y2="29.985073933538054"
    stroke="hsla(0,50%,50%,0.6)"
    stroke-width="1"
    transform="translate(-19.9242595870,-50.2303751753) scale(1,-1) translate(50,-110)"
    />
  
  <line
    x1="13.0859375"
    y1="80.87684481216458"
    x2="25.87222807234886"
    y2="100.09059093161547"
    stroke="hsla(0,50%,50%,0.6)"
    stroke-width="1"
    transform="translate(-19.9242595870,-50.2303751753) scale(1,-1) translate(50,-110)"
    />
  
  <line
    x1="65.34926470588235"
    y1="0"
    x2="23.1700187090739"
    y2="23.90157273152479"
    stroke="hsla(0,50%,50%,0.6)"
    stroke-width="1"
    transform="translate(-19.9242595870,-50.2303751753) scale(1,-1) translate(50,-110)"
    />
  
  <line
    x1="65.34926470588235"
    y1="0"
    x2="47.38761747706691"
    y2="29.985073933538054"
    stroke="hsla(0,50%,50%,0.6)"
    stroke-width="1"
    transform="translate(-19.9242595870,-50.2303751753) scale(1,-1) translate(50,-110)"
    />
  
  <line
    x1="13.0859375"
    y1="85.58732853379361"
    x2="25.535300925925927"
    y2="100"
    stroke="hsla(0,50%,50%,0.6)"
    stroke-width="1"
    transform="translate(-19.9242595870,-50.2303751753) scale(1,-1) translate(50,-110)"
    />
  
  <line
    x1="55.70103444003964"
    y1="16.839847621407333"
    x2="13.0859375"
    y2="80.87684481216458"
    stroke="hsla(0,50%,50%,0.6)"
    stroke-width="1"
    transform="translate(-19.9242595870,-50.2303751753) scale(1,-1) translate(50,-110)"
    />
  
  <line
    x1="75.3771551724138"
    y1="0"
    x2="58.994430693069305"
    y2="18.38180693069307"
    stroke="hsla(0,50%,50%,0.6)"
    stroke-width="1"
    transform="translate(-19.9242595870,-50.2303751753) scale(1,-1) translate(50,-110)"
    />
  
  <line
    x1="65.58862826603325"
    y1="24.80478028503563"
    x2="13.0859375"
    y2="85.58732853379361"
    stroke="hsla(0,50%,50%,0.6)"
    stroke-width="1"
    transform="translate(-19.9242595870,-50.2303751753) scale(1,-1) translate(50,-110)"
    />
  
  <line
    x1="13.0859375"
    y1="94.30283368644068"
    x2="25.535300925925927"
    y2="100"
    stroke="hsla(0,50%,50%,0.6)"
    stroke-width="1"
    transform="translate(-19.9242595870,-50.2303751753) scale(1,-1) translate(50,-110)"
    />
  
  <line
    x1="26.008357558139537"
    y1="100"
    x2="25.87222807234886"
    y2="100.09059093161547"
    stroke="hsla(0,50%,50%,0.6)"
    stroke-width="1"
    transform="translate(-19.9242595870,-50.2303751753) scale(1,-1) translate(50,-110)"
    />
  
  <line
    x1="99.85147914645975"
    y1="54.596568865179435"
    x2="99.70192146333278"
    y2="54.66222310790401"
    stroke="hsla(0,50%,50%,0.6)"
    stroke-width="1"
    transform="translate(-19.9242595870,-50.2303751753) scale(1,-1) translate(50,-110)"
    />
  
  <line
    x1="99.85147914645975"
    y1="54.596568865179435"
    x2="13.0859375"
    y2="94.30283368644068"
    stroke="hsla(0,50%,50%,0.6)"
    stroke-width="1"
    transform="translate(-19.9242595870,-50.2303751753) scale(1,-1) translate(50,-110)"
    />
  
  <line
    x1="25.535300925925927"
    y1="100"
    x2="26.008357558139537"
    y2="100"
    stroke="hsla(0,50%,50%,0.6)"
    stroke-width="1"
    transform="translate(-19.9242595870,-50.2303751753) scale(1,-1) translate(50,-110)"
    />
  
</svg>
