<?xml version="1.0"?>
<!DOCTYPE svg PUBLIC "-//W3C//DTD SVG 1.1//EN"
  "http://www.w3.org/Graphics/SVG/1.1/DTD/svg11.dtd">
<svg
  width="240"
  height="240"
  viewBox="-500 -500 1000 1000" xmlns="http://www.w3.org/2000/svg" version="1.1">
  <rect
    x="0"
    y="0"
    width="100"
    height="100"
    fill="hsla(206,100%,53%,0.3)"
    stroke="hsl(206,100%,53%)"
    stroke-width="3"
    transform="" />
  
  <path
    d="M 
      -369932781573722789.4736842105
      -369932781573722784.2105263157
      L
    
      -369932781573722742.1052631578
      -369932781573722784.2105263157
      L
    
      -369932781573722736.8421052631
      -369932781573722778.9473684210
      L
    
      -369932781573722736.8421052631
      -369932781573722731.5789473684
      L
    
      -369932781573722742.1052631578
      -369932781573722731.5789473684
      L
    
      -369932781573722742.1052631578
      -369932781573722778.9473684210
      L
    
      -369932781573722789.4736842105
      -369932781573722778.9473684210
      z
    "
    fill="hsla(0,0%,50%,0.3)"
    stroke="hsla(0,0%,50%,1)"
    stroke-width="1"
    transform="translate(369932781573722763.1578947368,369932781573722757.8947368421)"
    />
  
  
  <line
    x1="-369932781573722800"
    y1="-369932781573722750"
    x2="-369932781573722750"
    y2="-369932781573722750"
    stroke="hsla(0,50%,50%,0.6)"
    stroke-width="1"
    transform="translate(369932781573722763.1578947368,369932781573722757.8947368421)"
    />
  
  <line
    x1="-369932781573722800"
    y1="-369932781573722750"
    x2="-369932781573722750"
    y2="-369932781573722750"
    stroke="hsla(0,50%,50%,0.6)"
    stroke-width="1"
    transform="translate(369932781573722763.1578947368,369932781573722757.8947368421)"
    />
  
  <line
    x1="-369932781573722750"
    y1="-369932781573722700"
    x2="-369932781573722750"
    y2="-369932781573722700"
    stroke="hsla(0,50%,50%,0.6)"
    stroke-width="1"
    transform="translate(369932781573722763.1578947368,369932781573722757.8947368421)"
    />
  
  <line
    x1="-369932781573722750"
    y1="-369932781573722750"
    x2="-369932781573722750"
    y2="-369932781573722750"
    stroke="hsla(0,50%,50%,0.6)"
    stroke-width="1"
    transform="translate(369932781573722763.1578947368,369932781573722757.8947368421)"
    />
  
  <line
    x1="-369932781573722800"
    y1="-369932781573722750"
    x2="-369932781573722800"
    y2="-369932781573722750"
    stroke="hsla(0,50%,50%,0.6)"
    stroke-width="1"
    transform="translate(369932781573722763.1578947368,369932781573722757.8947368421)"
    />
  
  <line
    x1="-369932781573722750"
    y1="-369932781573722750"
    x2="-369932781573722750"
    y2="-369932781573722700"
    stroke="hsla(0,50%,50%,0.6)"
    stroke-width="1"
    transform="translate(369932781573722763.1578947368,369932781573722757.8947368421)"
    />
  
  <line
    x1="-369932781573722750"
    y1="-369932781573722750"
    x2="-369932781573722750"
    y2="-369932781573722700"
    stroke="hsla(0,50%,50%,0.6)"
    stroke-width="1"
    transform="translate(369932781573722763.1578947368,369932781573722757.8947368421)"
    />
  
</svg>
