<?xml version="1.0"?>
<!DOCTYPE svg PUBLIC "-//W3C//DTD SVG 1.1//EN"
  "http://www.w3.org/Graphics/SVG/1.1/DTD/svg11.dtd">
<svg
  width="240"
  height="240"
  viewBox="-50 -50 200 200" xmlns="http://www.w3.org/2000/svg" version="1.1">
  <rect
    x="0"
    y="0"
    width="100"
    height="100"
    fill="hsla(206,100%,53%,0.3)"
    stroke="hsl(206,100%,53%)"
    stroke-width="3"
    transform="" />
  
  <path
    d="M 
      63.7525635865
      7.0341773676
      L
    
      64.9237472766
      7.2944404099
      L
    
      64.9237472766
      7.8431372549
      L
    
      64.6672136868
      7.8431372549
      L
    
      64.4390064508
      8.3312471762
      L
    
      86.9236703170
      50.8171992804
      L
    
      83.8041576977
      53.4737801766
      L
    
      87.4226015777
      66.6462425607
      L
    
      59.2481681449
      74.3856919705
      L
    
      40.0550146201
      38.1192213559
      L
    
      52.5847330648
      21.6834773231
      L
    
      56.4890970518
      18.3585160085
      L
    
      55.9279011919
      17.2981069864
      z
    "
    fill="hsla(0,0%,50%,0.3)"
    stroke="hsla(0,0%,50%,1)"
    stroke-width="1"
    transform="translate(-55.6266290529,-22.3449966373) scale(1,-1) translate(50,-110)"
    />
  
  
  <line
    x1="63.75256358652943"
    y1="7.034177367651259"
    x2="86.92367031704333"
    y2="50.81719928042367"
    stroke="hsla(0,50%,50%,0.6)"
    stroke-width="1"
    transform="translate(-55.6266290529,-22.3449966373) scale(1,-1) translate(50,-110)"
    />
  
  <line
    x1="70.91571411605055"
    y1="26.294820932598594"
    x2="78.9201078598833"
    y2="35.69404808537895"
    stroke="hsla(0,50%,50%,0.6)"
    stroke-width="1"
    transform="translate(-55.6266290529,-22.3449966373) scale(1,-1) translate(50,-110)"
    />
  
  <line
    x1="55.92790119197456"
    y1="17.298106986419587"
    x2="75.34966597260792"
    y2="53.99655056379819"
    stroke="hsla(0,50%,50%,0.6)"
    stroke-width="1"
    transform="translate(-55.6266290529,-22.3449966373) scale(1,-1) translate(50,-110)"
    />
  
  <line
    x1="78.9201078598833"
    y1="35.69404808537895"
    x2="87.42260157770772"
    y2="66.64624256078336"
    stroke="hsla(0,50%,50%,0.6)"
    stroke-width="1"
    transform="translate(-55.6266290529,-22.3449966373) scale(1,-1) translate(50,-110)"
    />
  
  <line
    x1="63.135856511989545"
    y1="7.8431372549019605"
    x2="74.43495399451731"
    y2="48.97599477675846"
    stroke="hsla(0,50%,50%,0.6)"
    stroke-width="1"
    transform="translate(-55.6266290529,-22.3449966373) scale(1,-1) translate(50,-110)"
    />
  
  <line
    x1="40.05501462016326"
    y1="38.119221355921056"
    x2="59.24816814496782"
    y2="74.38569197059789"
    stroke="hsla(0,50%,50%,0.6)"
    stroke-width="1"
    transform="translate(-55.6266290529,-22.3449966373) scale(1,-1) translate(50,-110)"
    />
  
  <line
    x1="63.75256358652943"
    y1="7.034177367651259"
    x2="64.92374727668846"
    y2="7.29444040990882"
    stroke="hsla(0,50%,50%,0.6)"
    stroke-width="1"
    transform="translate(-55.6266290529,-22.3449966373) scale(1,-1) translate(50,-110)"
    />
  
  <line
    x1="44.44444444444444"
    y1="32.361426768604844"
    x2="44.44444444444444"
    y2="39.09465020576132"
    stroke="hsla(0,50%,50%,0.6)"
    stroke-width="1"
    transform="translate(-55.6266290529,-22.3449966373) scale(1,-1) translate(50,-110)"
    />
  
  <line
    x1="59.840232389251995"
    y1="12.166142177035423"
    x2="59.840232389251995"
    y2="18.167513919147908"
    stroke="hsla(0,50%,50%,0.6)"
    stroke-width="1"
    transform="translate(-55.6266290529,-22.3449966373) scale(1,-1) translate(50,-110)"
    />
  
  <line
    x1="64.92374727668846"
    y1="7.29444040990882"
    x2="64.92374727668846"
    y2="7.8431372549019605"
    stroke="hsla(0,50%,50%,0.6)"
    stroke-width="1"
    transform="translate(-55.6266290529,-22.3449966373) scale(1,-1) translate(50,-110)"
    />
  
  <line
    x1="55.92790119197456"
    y1="17.298106986419587"
    x2="59.840232389251995"
    y2="18.167513919147908"
    stroke="hsla(0,50%,50%,0.6)"
    stroke-width="1"
    transform="translate(-55.6266290529,-22.3449966373) scale(1,-1) translate(50,-110)"
    />
  
  <line
    x1="63.135856511989545"
    y1="7.8431372549019605"
    x2="64.92374727668846"
    y2="7.8431372549019605"
    stroke="hsla(0,50%,50%,0.6)"
    stroke-width="1"
    transform="translate(-55.6266290529,-22.3449966373) scale(1,-1) translate(50,-110)"
    />
  
  <line
    x1="52.5847330648653"
    y1="21.6834773231945"
    x2="44.44444444444444"
    y2="39.09465020576132"
    stroke="hsla(0,50%,50%,0.6)"
    stroke-width="1"
    transform="translate(-55.6266290529,-22.3449966373) scale(1,-1) translate(50,-110)"
    />
  
  <line
    x1="64.92374727668846"
    y1="7.29444040990882"
    x2="59.840232389251995"
    y2="18.167513919147908"
    stroke="hsla(0,50%,50%,0.6)"
    stroke-width="1"
    transform="translate(-55.6266290529,-22.3449966373) scale(1,-1) translate(50,-110)"
    />
  
  <line
    x1="65.6272345614697"
    y1="10.576466535348166"
    x2="59.840232389251995"
    y2="12.166142177035423"
    stroke="hsla(0,50%,50%,0.6)"
    stroke-width="1"
    transform="translate(-55.6266290529,-22.3449966373) scale(1,-1) translate(50,-110)"
    />
  
  <line
    x1="40.05501462016326"
    y1="38.119221355921056"
    x2="44.44444444444444"
    y2="39.09465020576132"
    stroke="hsla(0,50%,50%,0.6)"
    stroke-width="1"
    transform="translate(-55.6266290529,-22.3449966373) scale(1,-1) translate(50,-110)"
    />
  
  <line
    x1="68.51547666557528"
    y1="16.033951531820822"
    x2="65.6054412875458"
    y2="16.833331283069274"
    stroke="hsla(0,50%,50%,0.6)"
    stroke-width="1"
    transform="translate(-55.6266290529,-22.3449966373) scale(1,-1) translate(50,-110)"
    />
  
  <line
    x1="63.75256358652943"
    y1="7.034177367651259"
    x2="55.92790119197456"
    y2="17.298106986419587"
    stroke="hsla(0,50%,50%,0.6)"
    stroke-width="1"
    transform="translate(-55.6266290529,-22.3449966373) scale(1,-1) translate(50,-110)"
    />
  
  <line
    x1="52.5847330648653"
    y1="21.6834773231945"
    x2="40.05501462016326"
    y2="38.119221355921056"
    stroke="hsla(0,50%,50%,0.6)"
    stroke-width="1"
    transform="translate(-55.6266290529,-22.3449966373) scale(1,-1) translate(50,-110)"
    />
  
  <line
    x1="70.95134350036311"
    y1="20.63664972161704"
    x2="59.3773391559277"
    y2="23.81600100499156"
    stroke="hsla(0,50%,50%,0.6)"
    stroke-width="1"
    transform="translate(-55.6266290529,-22.3449966373) scale(1,-1) translate(50,-110)"
    />
  
  <line
    x1="65.6272345614697"
    y1="10.576466535348166"
    x2="52.5847330648653"
    y2="21.6834773231945"
    stroke="hsla(0,50%,50%,0.6)"
    stroke-width="1"
    transform="translate(-55.6266290529,-22.3449966373) scale(1,-1) translate(50,-110)"
    />
  
  <line
    x1="73.00443126111286"
    y1="24.516066767302426"
    x2="44.44444444444444"
    y2="32.361426768604844"
    stroke="hsla(0,50%,50%,0.6)"
    stroke-width="1"
    transform="translate(-55.6266290529,-22.3449966373) scale(1,-1) translate(50,-110)"
    />
  
  <line
    x1="68.51547666557528"
    y1="16.033951531820822"
    x2="59.3773391559277"
    y2="23.81600100499156"
    stroke="hsla(0,50%,50%,0.6)"
    stroke-width="1"
    transform="translate(-55.6266290529,-22.3449966373) scale(1,-1) translate(50,-110)"
    />
  
  <line
    x1="73.83958560446868"
    y1="26.094134718089702"
    x2="68.54861218986964"
    y2="27.547552447632338"
    stroke="hsla(0,50%,50%,0.6)"
    stroke-width="1"
    transform="translate(-55.6266290529,-22.3449966373) scale(1,-1) translate(50,-110)"
    />
  
  <line
    x1="70.95134350036311"
    y1="20.63664972161704"
    x2="43.2758413282876"
    y2="44.205142411791265"
    stroke="hsla(0,50%,50%,0.6)"
    stroke-width="1"
    transform="translate(-55.6266290529,-22.3449966373) scale(1,-1) translate(50,-110)"
    />
  
  <line
    x1="76.27545243925651"
    y1="30.69683290788592"
    x2="64.7014480948211"
    y2="33.876184191260435"
    stroke="hsla(0,50%,50%,0.6)"
    stroke-width="1"
    transform="translate(-55.6266290529,-22.3449966373) scale(1,-1) translate(50,-110)"
    />
  
  <line
    x1="73.00443126111286"
    y1="24.516066767302426"
    x2="70.91571411605055"
    y2="26.294820932598594"
    stroke="hsla(0,50%,50%,0.6)"
    stroke-width="1"
    transform="translate(-55.6266290529,-22.3449966373) scale(1,-1) translate(50,-110)"
    />
  
  <line
    x1="73.83958560446868"
    y1="26.094134718089702"
    x2="64.7014480948211"
    y2="33.876184191260435"
    stroke="hsla(0,50%,50%,0.6)"
    stroke-width="1"
    transform="translate(-55.6266290529,-22.3449966373) scale(1,-1) translate(50,-110)"
    />
  
  <line
    x1="78.32854020000626"
    y1="34.5762499535713"
    x2="43.2758413282876"
    y2="44.205142411791265"
    stroke="hsla(0,50%,50%,0.6)"
    stroke-width="1"
    transform="translate(-55.6266290529,-22.3449966373) scale(1,-1) translate(50,-110)"
    />
  
  <line
    x1="76.27545243925651"
    y1="30.69683290788592"
    x2="48.59995026718101"
    y2="54.265325598060144"
    stroke="hsla(0,50%,50%,0.6)"
    stroke-width="1"
    transform="translate(-55.6266290529,-22.3449966373) scale(1,-1) translate(50,-110)"
    />
  
  <line
    x1="78.32854020000626"
    y1="34.5762499535713"
    x2="78.11966848550003"
    y2="34.75412537010092"
    stroke="hsla(0,50%,50%,0.6)"
    stroke-width="1"
    transform="translate(-55.6266290529,-22.3449966373) scale(1,-1) translate(50,-110)"
    />
  
  <line
    x1="81.53625977306005"
    y1="45.217800231657236"
    x2="48.59995026718101"
    y2="54.265325598060144"
    stroke="hsla(0,50%,50%,0.6)"
    stroke-width="1"
    transform="translate(-55.6266290529,-22.3449966373) scale(1,-1) translate(50,-110)"
    />
  
  <line
    x1="84.4878034822555"
    y1="46.21450109062745"
    x2="74.43495399451731"
    y2="48.97599477675846"
    stroke="hsla(0,50%,50%,0.6)"
    stroke-width="1"
    transform="translate(-55.6266290529,-22.3449966373) scale(1,-1) translate(50,-110)"
    />
  
  <line
    x1="84.4878034822555"
    y1="46.21450109062745"
    x2="75.34966597260792"
    y2="53.99655056379819"
    stroke="hsla(0,50%,50%,0.6)"
    stroke-width="1"
    transform="translate(-55.6266290529,-22.3449966373) scale(1,-1) translate(50,-110)"
    />
  
  <line
    x1="86.92367031704333"
    y1="50.81719928042367"
    x2="75.34966597260792"
    y2="53.99655056379819"
    stroke="hsla(0,50%,50%,0.6)"
    stroke-width="1"
    transform="translate(-55.6266290529,-22.3449966373) scale(1,-1) translate(50,-110)"
    />
  
  <line
    x1="86.92367031704333"
    y1="50.81719928042367"
    x2="59.24816814496782"
    y2="74.38569197059789"
    stroke="hsla(0,50%,50%,0.6)"
    stroke-width="1"
    transform="translate(-55.6266290529,-22.3449966373) scale(1,-1) translate(50,-110)"
    />
  
  <line
    x1="87.42260157770772"
    y1="66.64624256078336"
    x2="59.24816814496782"
    y2="74.38569197059789"
    stroke="hsla(0,50%,50%,0.6)"
    stroke-width="1"
    transform="translate(-55.6266290529,-22.3449966373) scale(1,-1) translate(50,-110)"
    />
  
</svg>
