<?xml version="1.0"?>
<!DOCTYPE svg PUBLIC "-//W3C//DTD SVG 1.1//EN"
  "http://www.w3.org/Graphics/SVG/1.1/DTD/svg11.dtd">
<svg
  width="240"
  height="240"
  viewBox="-500 -500 1000 1000" xmlns="http://www.w3.org/2000/svg" version="1.1">
  <rect
    x="0"
    y="0"
    width="100"
    height="100"
    fill="hsla(206,100%,53%,0.3)"
    stroke="hsl(206,100%,53%)"
    stroke-width="3"
    transform="" />
  
  <path
    d="M 
      -20259259979125642211.7647058823
      -20259259979125642205.8823529411
      L
    
      -20259259979125642164.7058823529
      -20259259979125642205.8823529411
      L
    
      -20259259979125642158.8235294117
      -20259259979125642200
      L
    
      -20259259979125642158.8235294117
      -20259259979125642152.9411764705
      L
    
      -20259259979125642164.7058823529
      -20259259979125642152.9411764705
      L
    
      -20259259979125642164.7058823529
      -20259259979125642200
      L
    
      -20259259979125642211.7647058823
      -20259259979125642200
      z
    "
    fill="hsla(0,0%,50%,0.3)"
    stroke="hsla(0,0%,50%,1)"
    stroke-width="1"
    transform="translate(20259259979125642185.2941176470,20259259979125642179.4117647058)"
    />
  
  
  <line
    x1="-20259259979125645000"
    y1="-20259259979125645000"
    x2="-20259259979125645000"
    y2="-20259259979125645000"
    stroke="hsla(0,50%,50%,0.6)"
    stroke-width="1"
    transform="translate(20259259979125642185.2941176470,20259259979125642179.4117647058)"
    />
  
  <line
    x1="-20259259979125645000"
    y1="-20259259979125640000"
    x2="-20259259979125645000"
    y2="-20259259979125640000"
    stroke="hsla(0,50%,50%,0.6)"
    stroke-width="1"
    transform="translate(20259259979125642185.2941176470,20259259979125642179.4117647058)"
    />
  
  <line
    x1="-20259259979125645000"
    y1="-20259259979125645000"
    x2="-20259259979125645000"
    y2="-20259259979125645000"
    stroke="hsla(0,50%,50%,0.6)"
    stroke-width="1"
    transform="translate(20259259979125642185.2941176470,20259259979125642179.4117647058)"
    />
  
  <line
    x1="-20259259979125645000"
    y1="-20259259979125645000"
    x2="-20259259979125645000"
    y2="-20259259979125640000"
    stroke="hsla(0,50%,50%,0.6)"
    stroke-width="1"
    transform="translate(20259259979125642185.2941176470,20259259979125642179.4117647058)"
    />
  
  <line
    x1="-20259259979125645000"
    y1="-20259259979125645000"
    x2="-20259259979125645000"
    y2="-20259259979125640000"
    stroke="hsla(0,50%,50%,0.6)"
    stroke-width="1"
    transform="translate(20259259979125642185.2941176470,20259259979125642179.4117647058)"
    />
  
  <line
    x1="-20259259979125645000"
    y1="-20259259979125645000"
    x2="-20259259979125645000"
    y2="-20259259979125645000"
    stroke="hsla(0,50%,50%,0.6)"
    stroke-width="1"
    transform="translate(20259259979125642185.2941176470,20259259979125642179.4117647058)"
    />
  
  <line
    x1="-20259259979125645000"
    y1="-20259259979125640000"
    x2="-20259259979125645000"
    y2="-20259259979125645000"
    stroke="hsla(0,50%,50%,0.6)"
    stroke-width="1"
    transform="translate(20259259979125642185.2941176470,20259259979125642179.4117647058)"
    />
  
</svg>
