<?xml version="1.0"?>
<!DOCTYPE svg PUBLIC "-//W3C//DTD SVG 1.1//EN"
  "http://www.w3.org/Graphics/SVG/1.1/DTD/svg11.dtd">
<svg
  width="240"
  height="240"
  viewBox="-500 -500 1000 1000" xmlns="http://www.w3.org/2000/svg" version="1.1">
  <rect
    x="0"
    y="0"
    width="100"
    height="100"
    fill="hsla(206,100%,53%,0.3)"
    stroke="hsl(206,100%,53%)"
    stroke-width="3"
    transform="" />
  
  <path
    d="M 
      -445265807844292259136569.2307692307
      -445265807844292259136561.5384615384
      L
    
      -445265807844292259136523.0769230769
      -445265807844292259136561.5384615384
      L
    
      -445265807844292259136515.3846153846
      -445265807844292259136553.8461538461
      L
    
      -445265807844292259136515.3846153846
      -445265807844292259136507.6923076923
      L
    
      -445265807844292259136523.0769230769
      -445265807844292259136507.6923076923
      L
    
      -445265807844292259136523.0769230769
      -445265807844292259136553.8461538461
      L
    
      -445265807844292259136569.2307692307
      -445265807844292259136553.8461538461
      z
    "
    fill="hsla(0,0%,50%,0.3)"
    stroke="hsla(0,0%,50%,1)"
    stroke-width="1"
    transform="translate(445265807844292259136542.3076923076,445265807844292259136534.6153846153)"
    />
  
  
  <line
    x1="-4.452658078442923e+23"
    y1="-4.452658078442923e+23"
    x2="-4.452658078442923e+23"
    y2="-4.452658078442923e+23"
    stroke="hsla(0,50%,50%,0.6)"
    stroke-width="1"
    transform="translate(445265807844292259136542.3076923076,445265807844292259136534.6153846153)"
    />
  
  <line
    x1="-4.452658078442923e+23"
    y1="-4.452658078442923e+23"
    x2="-4.452658078442923e+23"
    y2="-4.452658078442923e+23"
    stroke="hsla(0,50%,50%,0.6)"
    stroke-width="1"
    transform="translate(445265807844292259136542.3076923076,445265807844292259136534.6153846153)"
    />
  
  <line
    x1="-4.452658078442923e+23"
    y1="-4.452658078442923e+23"
    x2="-4.452658078442923e+23"
    y2="-4.452658078442923e+23"
    stroke="hsla(0,50%,50%,0.6)"
    stroke-width="1"
    transform="translate(445265807844292259136542.3076923076,445265807844292259136534.6153846153)"
    />
  
  <line
    x1="-4.452658078442923e+23"
    y1="-4.452658078442923e+23"
    x2="-4.452658078442923e+23"
    y2="-4.452658078442923e+23"
    stroke="hsla(0,50%,50%,0.6)"
    stroke-width="1"
    transform="translate(445265807844292259136542.3076923076,445265807844292259136534.6153846153)"
    />
  
  <line
    x1="-4.452658078442923e+23"
    y1="-4.452658078442923e+23"
    x2="-4.452658078442923e+23"
    y2="-4.452658078442923e+23"
    stroke="hsla(0,50%,50%,0.6)"
    stroke-width="1"
    transform="translate(445265807844292259136542.3076923076,445265807844292259136534.6153846153)"
    />
  
  <line
    x1="-4.452658078442923e+23"
    y1="-4.452658078442923e+23"
    x2="-4.452658078442923e+23"
    y2="-4.452658078442923e+23"
    stroke="hsla(0,50%,50%,0.6)"
    stroke-width="1"
    transform="translate(445265807844292259136542.3076923076,445265807844292259136534.6153846153)"
    />
  
  <line
    x1="-4.452658078442923e+23"
    y1="-4.452658078442923e+23"
    x2="-4.452658078442923e+23"
    y2="-4.452658078442923e+23"
    stroke="hsla(0,50%,50%,0.6)"
    stroke-width="1"
    transform="translate(445265807844292259136542.3076923076,445265807844292259136534.6153846153)"
    />
  
</svg>
