<?xml version="1.0"?>
<!DOCTYPE svg PUBLIC "-//W3C//DTD SVG 1.1//EN"
  "http://www.w3.org/Graphics/SVG/1.1/DTD/svg11.dtd">
<svg
  width="240"
  height="240"
  viewBox="-50 -50 200 200" xmlns="http://www.w3.org/2000/svg" version="1.1">
  <rect
    x="0"
    y="0"
    width="100"
    height="100"
    fill="hsla(206,100%,53%,0.3)"
    stroke="hsl(206,100%,53%)"
    stroke-width="3"
    transform="" />
  
  <path
    d="M 
      93.0198767578
      -21.0045226240
      L
    
      101.6208129740
      -19.2006071064
      L
    
      131.8015869625
      4.5353440340
      L
    
      127.0851364381
      50
      L
    
      109.2868338557
      50
      L
    
      97.7390852390
      60.2325883575
      L
    
      88.671875
      50
      L
    
      91.9846791095
      42.6382130899
      L
    
      80.1905877139
      40.1645818538
      z
    "
    fill="hsla(0,0%,50%,0.3)"
    stroke="hsla(0,0%,50%,1)"
    stroke-width="1"
    transform="translate(-87.4750747440,-42.9785120590) scale(1,-1) translate(50,-110)"
    />
  
  
  <line
    x1="101.62081297400469"
    y1="-19.200607106458154"
    x2="131.80158696253721"
    y2="4.535344034059073"
    stroke="hsla(0,50%,50%,0.6)"
    stroke-width="1"
    transform="translate(-87.4750747440,-42.9785120590) scale(1,-1) translate(50,-110)"
    />
  
  <line
    x1="118.58108108108108"
    y1="8.361486486486486"
    x2="130.06072235544187"
    y2="21.31656754846104"
    stroke="hsla(0,50%,50%,0.6)"
    stroke-width="1"
    transform="translate(-87.4750747440,-42.9785120590) scale(1,-1) translate(50,-110)"
    />
  
  <line
    x1="111.70960874771878"
    y1="-6.031431200264811"
    x2="131.7149744840137"
    y2="4.56610938680373"
    stroke="hsla(0,50%,50%,0.6)"
    stroke-width="1"
    transform="translate(-87.4750747440,-42.9785120590) scale(1,-1) translate(50,-110)"
    />
  
  <line
    x1="116.43280934245824"
    y1="15.869101310986578"
    x2="128.88685108608357"
    y2="32.63220695427596"
    stroke="hsla(0,50%,50%,0.6)"
    stroke-width="1"
    transform="translate(-87.4750747440,-42.9785120590) scale(1,-1) translate(50,-110)"
    />
  
  <line
    x1="101.62081297400469"
    y1="-19.200607106458154"
    x2="115.66272334901706"
    y2="10.267980259602956"
    stroke="hsla(0,50%,50%,0.6)"
    stroke-width="1"
    transform="translate(-87.4750747440,-42.9785120590) scale(1,-1) translate(50,-110)"
    />
  
  <line
    x1="93.01987675785787"
    y1="-21.00452262405522"
    x2="101.62081297400469"
    y2="-19.200607106458154"
    stroke="hsla(0,50%,50%,0.6)"
    stroke-width="1"
    transform="translate(-87.4750747440,-42.9785120590) scale(1,-1) translate(50,-110)"
    />
  
  <line
    x1="99.94612068965517"
    y1="24.94612068965517"
    x2="100"
    y2="25"
    stroke="hsla(0,50%,50%,0.6)"
    stroke-width="1"
    transform="translate(-87.4750747440,-42.9785120590) scale(1,-1) translate(50,-110)"
    />
  
  <line
    x1="111.70960874771878"
    y1="-6.031431200264811"
    x2="115.66272334901706"
    y2="10.267980259602956"
    stroke="hsla(0,50%,50%,0.6)"
    stroke-width="1"
    transform="translate(-87.4750747440,-42.9785120590) scale(1,-1) translate(50,-110)"
    />
  
  <line
    x1="88.671875"
    y1="50"
    x2="97.73908523908524"
    y2="60.232588357588355"
    stroke="hsla(0,50%,50%,0.6)"
    stroke-width="1"
    transform="translate(-87.4750747440,-42.9785120590) scale(1,-1) translate(50,-110)"
    />
  
  <line
    x1="85.32230333151105"
    y1="15.696940062682478"
    x2="129.67860735756895"
    y2="25"
    stroke="hsla(0,50%,50%,0.6)"
    stroke-width="1"
    transform="translate(-87.4750747440,-42.9785120590) scale(1,-1) translate(50,-110)"
    />
  
  <line
    x1="100"
    y1="24.82638888888889"
    x2="100"
    y2="25"
    stroke="hsla(0,50%,50%,0.6)"
    stroke-width="1"
    transform="translate(-87.4750747440,-42.9785120590) scale(1,-1) translate(50,-110)"
    />
  
  <line
    x1="123.88741824351224"
    y1="25.902984215043524"
    x2="129.49907544568535"
    y2="26.730614275807216"
    stroke="hsla(0,50%,50%,0.6)"
    stroke-width="1"
    transform="translate(-87.4750747440,-42.9785120590) scale(1,-1) translate(50,-110)"
    />
  
  <line
    x1="131.80158696253721"
    y1="4.535344034059073"
    x2="127.08513643811946"
    y2="50"
    stroke="hsla(0,50%,50%,0.6)"
    stroke-width="1"
    transform="translate(-87.4750747440,-42.9785120590) scale(1,-1) translate(50,-110)"
    />
  
  <line
    x1="93.01987675785787"
    y1="-21.00452262405522"
    x2="80.19058771394651"
    y2="40.164581853840936"
    stroke="hsla(0,50%,50%,0.6)"
    stroke-width="1"
    transform="translate(-87.4750747440,-42.9785120590) scale(1,-1) translate(50,-110)"
    />
  
  <line
    x1="99.94612068965517"
    y1="24.94612068965517"
    x2="129.49907544568535"
    y2="26.730614275807216"
    stroke="hsla(0,50%,50%,0.6)"
    stroke-width="1"
    transform="translate(-87.4750747440,-42.9785120590) scale(1,-1) translate(50,-110)"
    />
  
  <line
    x1="80.19058771394651"
    y1="40.164581853840936"
    x2="127.08513643811946"
    y2="50"
    stroke="hsla(0,50%,50%,0.6)"
    stroke-width="1"
    transform="translate(-87.4750747440,-42.9785120590) scale(1,-1) translate(50,-110)"
    />
  
  <line
    x1="100"
    y1="25"
    x2="129.67860735756895"
    y2="25"
    stroke="hsla(0,50%,50%,0.6)"
    stroke-width="1"
    transform="translate(-87.4750747440,-42.9785120590) scale(1,-1) translate(50,-110)"
    />
  
  <line
    x1="115.05699382308607"
    y1="-8.633597384635713"
    x2="88.671875"
    y2="50"
    stroke="hsla(0,50%,50%,0.6)"
    stroke-width="1"
    transform="translate(-87.4750747440,-42.9785120590) scale(1,-1) translate(50,-110)"
    />
  
  <line
    x1="131.80158696253721"
    y1="4.535344034059073"
    x2="115.66272334901706"
    y2="10.267980259602956"
    stroke="hsla(0,50%,50%,0.6)"
    stroke-width="1"
    transform="translate(-87.4750747440,-42.9785120590) scale(1,-1) translate(50,-110)"
    />
  
  <line
    x1="131.74641679711374"
    y1="4.491954942997223"
    x2="131.7149744840137"
    y2="4.56610938680373"
    stroke="hsla(0,50%,50%,0.6)"
    stroke-width="1"
    transform="translate(-87.4750747440,-42.9785120590) scale(1,-1) translate(50,-110)"
    />
  
  <line
    x1="88.671875"
    y1="50"
    x2="127.08513643811946"
    y2="50"
    stroke="hsla(0,50%,50%,0.6)"
    stroke-width="1"
    transform="translate(-87.4750747440,-42.9785120590) scale(1,-1) translate(50,-110)"
    />
  
  <line
    x1="115.05699382308607"
    y1="-8.633597384635713"
    x2="111.70960874771878"
    y2="-6.031431200264811"
    stroke="hsla(0,50%,50%,0.6)"
    stroke-width="1"
    transform="translate(-87.4750747440,-42.9785120590) scale(1,-1) translate(50,-110)"
    />
  
  <line
    x1="118.58108108108108"
    y1="8.361486486486486"
    x2="100"
    y2="24.82638888888889"
    stroke="hsla(0,50%,50%,0.6)"
    stroke-width="1"
    transform="translate(-87.4750747440,-42.9785120590) scale(1,-1) translate(50,-110)"
    />
  
  <line
    x1="131.74641679711374"
    y1="4.491954942997223"
    x2="116.43280934245824"
    y2="15.869101310986578"
    stroke="hsla(0,50%,50%,0.6)"
    stroke-width="1"
    transform="translate(-87.4750747440,-42.9785120590) scale(1,-1) translate(50,-110)"
    />
  
  <line
    x1="130.06072235544187"
    y1="21.31656754846104"
    x2="123.88741824351224"
    y2="25.902984215043524"
    stroke="hsla(0,50%,50%,0.6)"
    stroke-width="1"
    transform="translate(-87.4750747440,-42.9785120590) scale(1,-1) translate(50,-110)"
    />
  
  <line
    x1="128.88685108608357"
    y1="32.63220695427596"
    x2="97.73908523908524"
    y2="60.232588357588355"
    stroke="hsla(0,50%,50%,0.6)"
    stroke-width="1"
    transform="translate(-87.4750747440,-42.9785120590) scale(1,-1) translate(50,-110)"
    />
  
</svg>
