<?xml version="1.0"?>
<!DOCTYPE svg PUBLIC "-//W3C//DTD SVG 1.1//EN"
  "http://www.w3.org/Graphics/SVG/1.1/DTD/svg11.dtd">
<svg
  width="240"
  height="240"
  viewBox="-500 -500 1000 1000" xmlns="http://www.w3.org/2000/svg" version="1.1">
  <rect
    x="0"
    y="0"
    width="100"
    height="100"
    fill="hsla(206,100%,53%,0.3)"
    stroke="hsl(206,100%,53%)"
    stroke-width="3"
    transform="" />
  
  <path
    d="M 
      47.2325106989
      44.6029666246
      L
    
      52.7443707119
      52.1685965650
      L
    
      48.5629518187
      80.6297406212
      L
    
      58.2277169023
      100.1050909760
      L
    
      48.5629650722
      112.9643111809
      L
    
      48.2973860817
      112.7647069286
      L
    
      40.2879387195
      136.8718251449
      L
    
      37.4494978637
      136.8240534857
      L
    
      37.4827360296
      134.8491468244
      L
    
      37.0709420829
      134.5522247191
      L
    
      37.2622001654
      57.8577336641
      L
    
      42.1319101167
      48.1665287115
      z
    "
    fill="hsla(0,0%,50%,0.3)"
    stroke="hsla(0,0%,50%,1)"
    stroke-width="1"
    transform="translate(-47.6493294926,-90.7373958847)"
    />
  
  
  <line
    x1="47.23251069897673"
    y1="44.602966624635215"
    x2="52.74437071195149"
    y2="52.168596565018866"
    stroke="hsla(0,50%,50%,0.6)"
    stroke-width="1"
    transform="translate(-47.6493294926,-90.7373958847)"
    />
  
  <line
    x1="37.26220016542597"
    y1="57.857733664185275"
    x2="58.22771690236025"
    y2="100.10509097609261"
    stroke="hsla(0,50%,50%,0.6)"
    stroke-width="1"
    transform="translate(-47.6493294926,-90.7373958847)"
    />
  
  <line
    x1="42.13191011672682"
    y1="48.166528711596456"
    x2="43.23106303738185"
    y2="85.16166987782204"
    stroke="hsla(0,50%,50%,0.6)"
    stroke-width="1"
    transform="translate(-47.6493294926,-90.7373958847)"
    />
  
  <line
    x1="42.142083639092384"
    y1="67.69112739062118"
    x2="42.300949165574885"
    y2="100.02565523153477"
    stroke="hsla(0,50%,50%,0.6)"
    stroke-width="1"
    transform="translate(-47.6493294926,-90.7373958847)"
    />
  
  <line
    x1="37.26220016542597"
    y1="57.857733664185275"
    x2="37.07094208299452"
    y2="134.55222471919737"
    stroke="hsla(0,50%,50%,0.6)"
    stroke-width="1"
    transform="translate(-47.6493294926,-90.7373958847)"
    />
  
  <line
    x1="41.88059701492537"
    y1="48.666666666666664"
    x2="41.62356534160879"
    y2="74.6268656716418"
    stroke="hsla(0,50%,50%,0.6)"
    stroke-width="1"
    transform="translate(-47.6493294926,-90.7373958847)"
    />
  
  <line
    x1="38.59357041950421"
    y1="68.84688163578699"
    x2="37.44949786379223"
    y2="136.82405348578504"
    stroke="hsla(0,50%,50%,0.6)"
    stroke-width="1"
    transform="translate(-47.6493294926,-90.7373958847)"
    />
  
  <line
    x1="38.59357041950421"
    y1="68.84688163578699"
    x2="37.42118936541321"
    y2="100.83860840111352"
    stroke="hsla(0,50%,50%,0.6)"
    stroke-width="1"
    transform="translate(-47.6493294926,-90.7373958847)"
    />
  
  <line
    x1="37.230469974405764"
    y1="70.58154026328766"
    x2="47.852080524745176"
    y2="85.46833986770883"
    stroke="hsla(0,50%,50%,0.6)"
    stroke-width="1"
    transform="translate(-47.6493294926,-90.7373958847)"
    />
  
  <line
    x1="37.21522337992107"
    y1="76.69542465165198"
    x2="43.23106303738185"
    y2="85.16166987782204"
    stroke="hsla(0,50%,50%,0.6)"
    stroke-width="1"
    transform="translate(-47.6493294926,-90.7373958847)"
    />
  
  <line
    x1="52.74437071195149"
    y1="52.168596565018866"
    x2="41.058865193419486"
    y2="131.7068739850441"
    stroke="hsla(0,50%,50%,0.6)"
    stroke-width="1"
    transform="translate(-47.6493294926,-90.7373958847)"
    />
  
  <line
    x1="37.231711925552105"
    y1="70.08351785360509"
    x2="48.129020720541874"
    y2="83.5833254721313"
    stroke="hsla(0,50%,50%,0.6)"
    stroke-width="1"
    transform="translate(-47.6493294926,-90.7373958847)"
    />
  
  <line
    x1="37.1923651357842"
    y1="85.86158055053625"
    x2="46.04561084542113"
    y2="97.76421241486335"
    stroke="hsla(0,50%,50%,0.6)"
    stroke-width="1"
    transform="translate(-47.6493294926,-90.7373958847)"
    />
  
  <line
    x1="37.19451753793518"
    y1="84.99846728799315"
    x2="41.421379712138744"
    y2="90.45230011626967"
    stroke="hsla(0,50%,50%,0.6)"
    stroke-width="1"
    transform="translate(-47.6493294926,-90.7373958847)"
    />
  
  <line
    x1="37.24704315670941"
    y1="63.93569415952634"
    x2="42.142083639092384"
    y2="67.69112739062118"
    stroke="hsla(0,50%,50%,0.6)"
    stroke-width="1"
    transform="translate(-47.6493294926,-90.7373958847)"
    />
  
  <line
    x1="54.79899877938704"
    y1="93.19592286539796"
    x2="40.28793871955581"
    y2="136.87182514494225"
    stroke="hsla(0,50%,50%,0.6)"
    stroke-width="1"
    transform="translate(-47.6493294926,-90.7373958847)"
    />
  
  <line
    x1="42.13191011672682"
    y1="48.166528711596456"
    x2="37.26220016542597"
    y2="57.857733664185275"
    stroke="hsla(0,50%,50%,0.6)"
    stroke-width="1"
    transform="translate(-47.6493294926,-90.7373958847)"
    />
  
  <line
    x1="37.09080556427139"
    y1="126.58696872717175"
    x2="41.058865193419486"
    y2="131.7068739850441"
    stroke="hsla(0,50%,50%,0.6)"
    stroke-width="1"
    transform="translate(-47.6493294926,-90.7373958847)"
    />
  
  <line
    x1="40.32162801668851"
    y1="66.2944893924854"
    x2="37.230469974405764"
    y2="70.58154026328766"
    stroke="hsla(0,50%,50%,0.6)"
    stroke-width="1"
    transform="translate(-47.6493294926,-90.7373958847)"
    />
  
  <line
    x1="42.77105985808719"
    y1="68.95856970544635"
    x2="37.21522337992107"
    y2="76.69542465165198"
    stroke="hsla(0,50%,50%,0.6)"
    stroke-width="1"
    transform="translate(-47.6493294926,-90.7373958847)"
    />
  
  <line
    x1="37.17936873671152"
    y1="91.0731365786827"
    x2="52.08126731960298"
    y2="101.37584722448386"
    stroke="hsla(0,50%,50%,0.6)"
    stroke-width="1"
    transform="translate(-47.6493294926,-90.7373958847)"
    />
  
  <line
    x1="40.32162801668851"
    y1="66.2944893924854"
    x2="37.231711925552105"
    y2="70.08351785360509"
    stroke="hsla(0,50%,50%,0.6)"
    stroke-width="1"
    transform="translate(-47.6493294926,-90.7373958847)"
    />
  
  <line
    x1="45.60473957620759"
    y1="74.66868317706133"
    x2="37.1923651357842"
    y2="85.86158055053625"
    stroke="hsla(0,50%,50%,0.6)"
    stroke-width="1"
    transform="translate(-47.6493294926,-90.7373958847)"
    />
  
  <line
    x1="37.14617540290251"
    y1="104.38366343609538"
    x2="48.56296507221578"
    y2="112.96431118092535"
    stroke="hsla(0,50%,50%,0.6)"
    stroke-width="1"
    transform="translate(-47.6493294926,-90.7373958847)"
    />
  
  <line
    x1="45.47999287577777"
    y1="74.41730762106295"
    x2="37.19451753793518"
    y2="84.99846728799315"
    stroke="hsla(0,50%,50%,0.6)"
    stroke-width="1"
    transform="translate(-47.6493294926,-90.7373958847)"
    />
  
  <line
    x1="47.23251069897673"
    y1="44.602966624635215"
    x2="41.88059701492537"
    y2="48.666666666666664"
    stroke="hsla(0,50%,50%,0.6)"
    stroke-width="1"
    transform="translate(-47.6493294926,-90.7373958847)"
    />
  
  <line
    x1="47.23251069897673"
    y1="44.602966624635215"
    x2="42.13191011672682"
    y2="48.166528711596456"
    stroke="hsla(0,50%,50%,0.6)"
    stroke-width="1"
    transform="translate(-47.6493294926,-90.7373958847)"
    />
  
  <line
    x1="52.74437071195149"
    y1="52.168596565018866"
    x2="37.24704315670941"
    y2="63.93569415952634"
    stroke="hsla(0,50%,50%,0.6)"
    stroke-width="1"
    transform="translate(-47.6493294926,-90.7373958847)"
    />
  
  <line
    x1="58.22771690236025"
    y1="100.10509097609261"
    x2="48.56296507221578"
    y2="112.96431118092535"
    stroke="hsla(0,50%,50%,0.6)"
    stroke-width="1"
    transform="translate(-47.6493294926,-90.7373958847)"
    />
  
  <line
    x1="58.072345341207814"
    y1="99.79200363641583"
    x2="37.09080556427139"
    y2="126.58696872717175"
    stroke="hsla(0,50%,50%,0.6)"
    stroke-width="1"
    transform="translate(-47.6493294926,-90.7373958847)"
    />
  
  <line
    x1="37.18905472636816"
    y1="87.18905472636816"
    x2="54.79899877938704"
    y2="93.19592286539796"
    stroke="hsla(0,50%,50%,0.6)"
    stroke-width="1"
    transform="translate(-47.6493294926,-90.7373958847)"
    />
  
  <line
    x1="38.59357041950421"
    y1="68.84688163578699"
    x2="42.77105985808719"
    y2="68.95856970544635"
    stroke="hsla(0,50%,50%,0.6)"
    stroke-width="1"
    transform="translate(-47.6493294926,-90.7373958847)"
    />
  
  <line
    x1="37.07094208299452"
    y1="134.55222471919737"
    x2="40.28793871955581"
    y2="136.87182514494225"
    stroke="hsla(0,50%,50%,0.6)"
    stroke-width="1"
    transform="translate(-47.6493294926,-90.7373958847)"
    />
  
  <line
    x1="37.22059932748621"
    y1="74.53966967802877"
    x2="41.62356534160879"
    y2="74.6268656716418"
    stroke="hsla(0,50%,50%,0.6)"
    stroke-width="1"
    transform="translate(-47.6493294926,-90.7373958847)"
    />
  
  <line
    x1="37.2203818811181"
    y1="74.6268656716418"
    x2="45.60473957620759"
    y2="74.66868317706133"
    stroke="hsla(0,50%,50%,0.6)"
    stroke-width="1"
    transform="translate(-47.6493294926,-90.7373958847)"
    />
  
  <line
    x1="37.2203818811181"
    y1="74.6268656716418"
    x2="41.62356534160879"
    y2="74.6268656716418"
    stroke="hsla(0,50%,50%,0.6)"
    stroke-width="1"
    transform="translate(-47.6493294926,-90.7373958847)"
    />
  
  <line
    x1="45.47999287577777"
    y1="74.41730762106295"
    x2="37.22059932748621"
    y2="74.53966967802877"
    stroke="hsla(0,50%,50%,0.6)"
    stroke-width="1"
    transform="translate(-47.6493294926,-90.7373958847)"
    />
  
  <line
    x1="47.852080524745176"
    y1="85.46833986770883"
    x2="41.421379712138744"
    y2="90.45230011626967"
    stroke="hsla(0,50%,50%,0.6)"
    stroke-width="1"
    transform="translate(-47.6493294926,-90.7373958847)"
    />
  
  <line
    x1="48.129020720541874"
    y1="83.5833254721313"
    x2="37.17936873671152"
    y2="91.0731365786827"
    stroke="hsla(0,50%,50%,0.6)"
    stroke-width="1"
    transform="translate(-47.6493294926,-90.7373958847)"
    />
  
  <line
    x1="46.04561084542113"
    y1="97.76421241486335"
    x2="37.14617540290251"
    y2="104.38366343609538"
    stroke="hsla(0,50%,50%,0.6)"
    stroke-width="1"
    transform="translate(-47.6493294926,-90.7373958847)"
    />
  
  <line
    x1="43.23106303738185"
    y1="85.16166987782204"
    x2="37.18905472636816"
    y2="87.18905472636816"
    stroke="hsla(0,50%,50%,0.6)"
    stroke-width="1"
    transform="translate(-47.6493294926,-90.7373958847)"
    />
  
  <line
    x1="37.42118936541321"
    y1="100.83860840111352"
    x2="52.08126731960298"
    y2="101.37584722448386"
    stroke="hsla(0,50%,50%,0.6)"
    stroke-width="1"
    transform="translate(-47.6493294926,-90.7373958847)"
    />
  
  <line
    x1="42.300949165574885"
    y1="100.02565523153477"
    x2="58.22771690236025"
    y2="100.10509097609261"
    stroke="hsla(0,50%,50%,0.6)"
    stroke-width="1"
    transform="translate(-47.6493294926,-90.7373958847)"
    />
  
  <line
    x1="58.072345341207814"
    y1="99.79200363641583"
    x2="42.300949165574885"
    y2="100.02565523153477"
    stroke="hsla(0,50%,50%,0.6)"
    stroke-width="1"
    transform="translate(-47.6493294926,-90.7373958847)"
    />
  
  <line
    x1="41.058865193419486"
    y1="131.7068739850441"
    x2="37.07094208299452"
    y2="134.55222471919737"
    stroke="hsla(0,50%,50%,0.6)"
    stroke-width="1"
    transform="translate(-47.6493294926,-90.7373958847)"
    />
  
  <line
    x1="37.44949786379223"
    y1="136.82405348578504"
    x2="40.28793871955581"
    y2="136.87182514494225"
    stroke="hsla(0,50%,50%,0.6)"
    stroke-width="1"
    transform="translate(-47.6493294926,-90.7373958847)"
    />
  
</svg>
