<?xml version="1.0"?>
<!DOCTYPE svg PUBLIC "-//W3C//DTD SVG 1.1//EN"
  "http://www.w3.org/Graphics/SVG/1.1/DTD/svg11.dtd">
<svg
  width="240"
  height="240"
  viewBox="-50 -50 200 200" xmlns="http://www.w3.org/2000/svg" version="1.1">
  <rect
    x="0"
    y="0"
    width="100"
    height="100"
    fill="hsla(206,100%,53%,0.3)"
    stroke="hsl(206,100%,53%)"
    stroke-width="3"
    transform="" />
  
  <path
    d="M 
      -16.5179831877
      16.5179831877
      L
    
      -11.7379294707
      18.8724319991
      L
    
      9.9727646957
      19.0452570385
      L
    
      16.8149109857
      32.9363327953
      L
    
      0
      49.7512437810
      L
    
      -49.7512437810
      49.9987624068
      L
    
      -49.7537312201
      49.7487809701
      L
    
      -49.7461932735
      49.7487059638
      L
    
      -32.0877892592
      40.8755775785
      L
    
      -35.8718369738
      35.8718369738
      z
    "
    fill="hsla(0,0%,50%,0.3)"
    stroke="hsla(0,0%,50%,1)"
    stroke-width="1"
    transform="translate(36.7253392555,-40.2233569869) scale(1,-1) translate(50,-110)"
    />
  
  
  <line
    x1="9.972764695796428"
    y1="19.045257038550822"
    x2="16.814910985732055"
    y2="32.936332795362475"
    stroke="hsla(0,50%,50%,0.6)"
    stroke-width="1"
    transform="translate(36.7253392555,-40.2233569869) scale(1,-1) translate(50,-110)"
    />
  
  <line
    x1="-49.75124378109453"
    y1="49.75124378109453"
    x2="-49.75124378109453"
    y2="49.998762406871116"
    stroke="hsla(0,50%,50%,0.6)"
    stroke-width="1"
    transform="translate(36.7253392555,-40.2233569869) scale(1,-1) translate(50,-110)"
    />
  
  <line
    x1="-9.989812369563712"
    y1="29.771619041967103"
    x2="-16.721854304635762"
    y2="49.83443708609271"
    stroke="hsla(0,50%,50%,0.6)"
    stroke-width="1"
    transform="translate(36.7253392555,-40.2233569869) scale(1,-1) translate(50,-110)"
    />
  
  <line
    x1="-16.51798318771414"
    y1="16.51798318771414"
    x2="-35.87183697382551"
    y2="35.87183697382551"
    stroke="hsla(0,50%,50%,0.6)"
    stroke-width="1"
    transform="translate(36.7253392555,-40.2233569869) scale(1,-1) translate(50,-110)"
    />
  
  <line
    x1="-18.8160872828602"
    y1="18.8160872828602"
    x2="-18.653191805263152"
    y2="39.27940618112231"
    stroke="hsla(0,50%,50%,0.6)"
    stroke-width="1"
    transform="translate(36.7253392555,-40.2233569869) scale(1,-1) translate(50,-110)"
    />
  
  <line
    x1="-19.309686255709426"
    y1="19.309686255709426"
    x2="-19.150688480787583"
    y2="39.28336643600401"
    stroke="hsla(0,50%,50%,0.6)"
    stroke-width="1"
    transform="translate(36.7253392555,-40.2233569869) scale(1,-1) translate(50,-110)"
    />
  
  <line
    x1="-49.75373122014304"
    y1="49.74878097015541"
    x2="-49.75124378109453"
    y2="49.998762406871116"
    stroke="hsla(0,50%,50%,0.6)"
    stroke-width="1"
    transform="translate(36.7253392555,-40.2233569869) scale(1,-1) translate(50,-110)"
    />
  
  <line
    x1="-14.591854223378581"
    y1="35.446920825683115"
    x2="-25.280506339789124"
    y2="49.877017444476564"
    stroke="hsla(0,50%,50%,0.6)"
    stroke-width="1"
    transform="translate(36.7253392555,-40.2233569869) scale(1,-1) translate(50,-110)"
    />
  
  <line
    x1="-14.233171192736037"
    y1="35.798536037183545"
    x2="-24.659085066569048"
    y2="49.87392579635109"
    stroke="hsla(0,50%,50%,0.6)"
    stroke-width="1"
    transform="translate(36.7253392555,-40.2233569869) scale(1,-1) translate(50,-110)"
    />
  
  <line
    x1="-16.51798318771414"
    y1="16.51798318771414"
    x2="-9.989812369563712"
    y2="29.771619041967103"
    stroke="hsla(0,50%,50%,0.6)"
    stroke-width="1"
    transform="translate(36.7253392555,-40.2233569869) scale(1,-1) translate(50,-110)"
    />
  
  <line
    x1="-16.864993926949595"
    y1="49.42152175253502"
    x2="-16.721854304635762"
    y2="49.83443708609271"
    stroke="hsla(0,50%,50%,0.6)"
    stroke-width="1"
    transform="translate(36.7253392555,-40.2233569869) scale(1,-1) translate(50,-110)"
    />
  
  <line
    x1="9.972764695796428"
    y1="19.045257038550822"
    x2="-13.298481117354607"
    y2="49.81740537869331"
    stroke="hsla(0,50%,50%,0.6)"
    stroke-width="1"
    transform="translate(36.7253392555,-40.2233569869) scale(1,-1) translate(50,-110)"
    />
  
  <line
    x1="10.218790332596166"
    y1="19.544743692896404"
    x2="-12.672366105041878"
    y2="49.81429037863205"
    stroke="hsla(0,50%,50%,0.6)"
    stroke-width="1"
    transform="translate(36.7253392555,-40.2233569869) scale(1,-1) translate(50,-110)"
    />
  
  <line
    x1="-14.591854223378581"
    y1="35.446920825683115"
    x2="-20.732679310179968"
    y2="40.1876599196743"
    stroke="hsla(0,50%,50%,0.6)"
    stroke-width="1"
    transform="translate(36.7253392555,-40.2233569869) scale(1,-1) translate(50,-110)"
    />
  
  <line
    x1="-14.233171192736037"
    y1="35.798536037183545"
    x2="-20.034843069780607"
    y2="40.277447631185765"
    stroke="hsla(0,50%,50%,0.6)"
    stroke-width="1"
    transform="translate(36.7253392555,-40.2233569869) scale(1,-1) translate(50,-110)"
    />
  
  <line
    x1="-18.8160872828602"
    y1="18.8160872828602"
    x2="9.972764695796428"
    y2="19.045257038550822"
    stroke="hsla(0,50%,50%,0.6)"
    stroke-width="1"
    transform="translate(36.7253392555,-40.2233569869) scale(1,-1) translate(50,-110)"
    />
  
  <line
    x1="-4.665292230358533"
    y1="45.17788074423652"
    x2="-9.121483029403487"
    y2="49.796624293678626"
    stroke="hsla(0,50%,50%,0.6)"
    stroke-width="1"
    transform="translate(36.7253392555,-40.2233569869) scale(1,-1) translate(50,-110)"
    />
  
  <line
    x1="-19.309686255709426"
    y1="19.309686255709426"
    x2="10.218790332596166"
    y2="19.544743692896404"
    stroke="hsla(0,50%,50%,0.6)"
    stroke-width="1"
    transform="translate(36.7253392555,-40.2233569869) scale(1,-1) translate(50,-110)"
    />
  
  <line
    x1="-9.989812369563712"
    y1="29.771619041967103"
    x2="-49.75124378109453"
    y2="49.75124378109453"
    stroke="hsla(0,50%,50%,0.6)"
    stroke-width="1"
    transform="translate(36.7253392555,-40.2233569869) scale(1,-1) translate(50,-110)"
    />
  
  <line
    x1="-16.51798318771414"
    y1="16.51798318771414"
    x2="16.814910985732055"
    y2="32.936332795362475"
    stroke="hsla(0,50%,50%,0.6)"
    stroke-width="1"
    transform="translate(36.7253392555,-40.2233569869) scale(1,-1) translate(50,-110)"
    />
  
  <line
    x1="-4.665292230358533"
    y1="45.17788074423652"
    x2="-9.266408094742635"
    y2="49.797345313904195"
    stroke="hsla(0,50%,50%,0.6)"
    stroke-width="1"
    transform="translate(36.7253392555,-40.2233569869) scale(1,-1) translate(50,-110)"
    />
  
  <line
    x1="-16.864993926949595"
    y1="49.42152175253502"
    x2="-17.404253527304817"
    y2="49.83783210710102"
    stroke="hsla(0,50%,50%,0.6)"
    stroke-width="1"
    transform="translate(36.7253392555,-40.2233569869) scale(1,-1) translate(50,-110)"
    />
  
  <line
    x1="-20.034843069780607"
    y1="40.277447631185765"
    x2="-12.672366105041878"
    y2="49.81429037863205"
    stroke="hsla(0,50%,50%,0.6)"
    stroke-width="1"
    transform="translate(36.7253392555,-40.2233569869) scale(1,-1) translate(50,-110)"
    />
  
  <line
    x1="16.814910985732055"
    y1="32.936332795362475"
    x2="0"
    y2="49.75124378109453"
    stroke="hsla(0,50%,50%,0.6)"
    stroke-width="1"
    transform="translate(36.7253392555,-40.2233569869) scale(1,-1) translate(50,-110)"
    />
  
  <line
    x1="-20.732679310179968"
    y1="40.1876599196743"
    x2="-13.298481117354607"
    y2="49.81740537869331"
    stroke="hsla(0,50%,50%,0.6)"
    stroke-width="1"
    transform="translate(36.7253392555,-40.2233569869) scale(1,-1) translate(50,-110)"
    />
  
  <line
    x1="-14.591854223378581"
    y1="35.446920825683115"
    x2="0"
    y2="49.75124378109453"
    stroke="hsla(0,50%,50%,0.6)"
    stroke-width="1"
    transform="translate(36.7253392555,-40.2233569869) scale(1,-1) translate(50,-110)"
    />
  
  <line
    x1="-29.297159185979364"
    y1="29.297159185979364"
    x2="-9.121483029403487"
    y2="49.796624293678626"
    stroke="hsla(0,50%,50%,0.6)"
    stroke-width="1"
    transform="translate(36.7253392555,-40.2233569869) scale(1,-1) translate(50,-110)"
    />
  
  <line
    x1="-29.693197221503354"
    y1="29.693197221503354"
    x2="-14.97978794332845"
    y2="44.64273436576102"
    stroke="hsla(0,50%,50%,0.6)"
    stroke-width="1"
    transform="translate(36.7253392555,-40.2233569869) scale(1,-1) translate(50,-110)"
    />
  
  <line
    x1="-29.297159185979364"
    y1="29.297159185979364"
    x2="-19.150688480787583"
    y2="39.28336643600401"
    stroke="hsla(0,50%,50%,0.6)"
    stroke-width="1"
    transform="translate(36.7253392555,-40.2233569869) scale(1,-1) translate(50,-110)"
    />
  
  <line
    x1="-29.693197221503354"
    y1="29.693197221503354"
    x2="-9.266408094742635"
    y2="49.797345313904195"
    stroke="hsla(0,50%,50%,0.6)"
    stroke-width="1"
    transform="translate(36.7253392555,-40.2233569869) scale(1,-1) translate(50,-110)"
    />
  
  <line
    x1="-35.516670271114364"
    y1="35.516670271114364"
    x2="-24.659085066569048"
    y2="49.87392579635109"
    stroke="hsla(0,50%,50%,0.6)"
    stroke-width="1"
    transform="translate(36.7253392555,-40.2233569869) scale(1,-1) translate(50,-110)"
    />
  
  <line
    x1="-35.87183697382551"
    y1="35.87183697382551"
    x2="-25.280506339789124"
    y2="49.877017444476564"
    stroke="hsla(0,50%,50%,0.6)"
    stroke-width="1"
    transform="translate(36.7253392555,-40.2233569869) scale(1,-1) translate(50,-110)"
    />
  
  <line
    x1="-18.653191805263152"
    y1="39.27940618112231"
    x2="-19.150688480787583"
    y2="39.28336643600401"
    stroke="hsla(0,50%,50%,0.6)"
    stroke-width="1"
    transform="translate(36.7253392555,-40.2233569869) scale(1,-1) translate(50,-110)"
    />
  
  <line
    x1="-35.516670271114364"
    y1="35.516670271114364"
    x2="-16.693938943157963"
    y2="49.75124378109453"
    stroke="hsla(0,50%,50%,0.6)"
    stroke-width="1"
    transform="translate(36.7253392555,-40.2233569869) scale(1,-1) translate(50,-110)"
    />
  
  <line
    x1="-35.87183697382551"
    y1="35.87183697382551"
    x2="-17.404253527304817"
    y2="49.83783210710102"
    stroke="hsla(0,50%,50%,0.6)"
    stroke-width="1"
    transform="translate(36.7253392555,-40.2233569869) scale(1,-1) translate(50,-110)"
    />
  
  <line
    x1="-14.97978794332845"
    y1="44.64273436576102"
    x2="-49.75124378109453"
    y2="49.75124378109453"
    stroke="hsla(0,50%,50%,0.6)"
    stroke-width="1"
    transform="translate(36.7253392555,-40.2233569869) scale(1,-1) translate(50,-110)"
    />
  
  <line
    x1="-16.864993926949595"
    y1="49.42152175253502"
    x2="-49.75373122014304"
    y2="49.74878097015541"
    stroke="hsla(0,50%,50%,0.6)"
    stroke-width="1"
    transform="translate(36.7253392555,-40.2233569869) scale(1,-1) translate(50,-110)"
    />
  
  <line
    x1="0"
    y1="49.75124378109453"
    x2="-49.75124378109453"
    y2="49.998762406871116"
    stroke="hsla(0,50%,50%,0.6)"
    stroke-width="1"
    transform="translate(36.7253392555,-40.2233569869) scale(1,-1) translate(50,-110)"
    />
  
  <line
    x1="-49.75124378109453"
    y1="49.75124378109453"
    x2="-16.693938943157963"
    y2="49.75124378109453"
    stroke="hsla(0,50%,50%,0.6)"
    stroke-width="1"
    transform="translate(36.7253392555,-40.2233569869) scale(1,-1) translate(50,-110)"
    />
  
</svg>
