<?xml version="1.0"?>
<!DOCTYPE svg PUBLIC "-//W3C//DTD SVG 1.1//EN"
  "http://www.w3.org/Graphics/SVG/1.1/DTD/svg11.dtd">
<svg
  width="240"
  height="240"
  viewBox="-50 -50 200 200" xmlns="http://www.w3.org/2000/svg" version="1.1">
  <rect
    x="0"
    y="0"
    width="100"
    height="100"
    fill="hsla(206,100%,53%,0.3)"
    stroke="hsl(206,100%,53%)"
    stroke-width="3"
    transform="" />
  
  <path
    d="M 
      -6236666237711382.6086956521
      -6236666237711378.2608695652
      L
    
      -6236666237711334.7826086956
      -6236666237711378.2608695652
      L
    
      -6236666237711330.4347826086
      -6236666237711373.9130434782
      L
    
      -6236666237711330.4347826086
      -6236666237711326.0869565217
      L
    
      -6236666237711334.7826086956
      -6236666237711326.0869565217
      L
    
      -6236666237711334.7826086956
      -6236666237711373.9130434782
      L
    
      -6236666237711382.6086956521
      -6236666237711373.9130434782
      z
    "
    fill="hsla(0,0%,50%,0.3)"
    stroke="hsla(0,0%,50%,1)"
    stroke-width="1"
    transform="translate(6236666237711359.0353260869,6236666237711365.0815217391) scale(1,-1) translate(50,-110)"
    />
  
  
  <line
    x1="-6236666237711382"
    y1="-6236666237711378"
    x2="-6236666237711335"
    y2="-6236666237711378"
    stroke="hsla(0,50%,50%,0.6)"
    stroke-width="1"
    transform="translate(6236666237711359.0353260869,6236666237711365.0815217391) scale(1,-1) translate(50,-110)"
    />
  
  <line
    x1="-6236666237711382"
    y1="-6236666237711374"
    x2="-6236666237711331"
    y2="-6236666237711374"
    stroke="hsla(0,50%,50%,0.6)"
    stroke-width="1"
    transform="translate(6236666237711359.0353260869,6236666237711365.0815217391) scale(1,-1) translate(50,-110)"
    />
  
  <line
    x1="-6236666237711335"
    y1="-6236666237711326"
    x2="-6236666237711331"
    y2="-6236666237711326"
    stroke="hsla(0,50%,50%,0.6)"
    stroke-width="1"
    transform="translate(6236666237711359.0353260869,6236666237711365.0815217391) scale(1,-1) translate(50,-110)"
    />
  
  <line
    x1="-6236666237711335"
    y1="-6236666237711378"
    x2="-6236666237711331"
    y2="-6236666237711374"
    stroke="hsla(0,50%,50%,0.6)"
    stroke-width="1"
    transform="translate(6236666237711359.0353260869,6236666237711365.0815217391) scale(1,-1) translate(50,-110)"
    />
  
  <line
    x1="-6236666237711382"
    y1="-6236666237711378"
    x2="-6236666237711382"
    y2="-6236666237711374"
    stroke="hsla(0,50%,50%,0.6)"
    stroke-width="1"
    transform="translate(6236666237711359.0353260869,6236666237711365.0815217391) scale(1,-1) translate(50,-110)"
    />
  
  <line
    x1="-6236666237711335"
    y1="-6236666237711378"
    x2="-6236666237711335"
    y2="-6236666237711326"
    stroke="hsla(0,50%,50%,0.6)"
    stroke-width="1"
    transform="translate(6236666237711359.0353260869,6236666237711365.0815217391) scale(1,-1) translate(50,-110)"
    />
  
  <line
    x1="-6236666237711331"
    y1="-6236666237711374"
    x2="-6236666237711331"
    y2="-6236666237711326"
    stroke="hsla(0,50%,50%,0.6)"
    stroke-width="1"
    transform="translate(6236666237711359.0353260869,6236666237711365.0815217391) scale(1,-1) translate(50,-110)"
    />
  
</svg>
