<?xml version="1.0"?>
<!DOCTYPE svg PUBLIC "-//W3C//DTD SVG 1.1//EN"
  "http://www.w3.org/Graphics/SVG/1.1/DTD/svg11.dtd">
<svg
  width="240"
  height="240"
  viewBox="-500 -500 1000 1000" xmlns="http://www.w3.org/2000/svg" version="1.1">
  <rect
    x="0"
    y="0"
    width="100"
    height="100"
    fill="hsla(206,100%,53%,0.3)"
    stroke="hsl(206,100%,53%)"
    stroke-width="3"
    transform="" />
  
  <path
    d="M 
      -95.4475308641
      113.9660493827
      L
    
      -87.1913580246
      122.2222222222
      L
    
      -87.1913580246
      191.8209876543
      L
    
      -145.5246913580
      191.8209876543
      L
    
      -148.3024691358
      189.0432098765
      L
    
      -142.7469135802
      189.0432098765
      L
    
      -139.9691358024
      186.2654320987
      L
    
      -128.8580246913
      186.2654320987
      L
    
      -97.3765432098
      154.7839506172
      L
    
      -97.3765432098
      115.8950617283
      z
    "
    fill="hsla(0,0%,50%,0.3)"
    stroke="hsla(0,0%,50%,1)"
    stroke-width="1"
    transform="translate(117.7469135802,-152.8935185185)"
    />
  
  
  <line
    x1="-97.37654320987654"
    y1="115.89506172839506"
    x2="-97.37654320987654"
    y2="191.820987654321"
    stroke="hsla(0,50%,50%,0.6)"
    stroke-width="1"
    transform="translate(117.7469135802,-152.8935185185)"
    />
  
  <line
    x1="-96.45061728395062"
    y1="175.15432098765433"
    x2="-96.45061728395062"
    y2="177.9320987654321"
    stroke="hsla(0,50%,50%,0.6)"
    stroke-width="1"
    transform="translate(117.7469135802,-152.8935185185)"
    />
  
  <line
    x1="-94.59876543209876"
    y1="186.26543209876544"
    x2="-94.59876543209876"
    y2="191.820987654321"
    stroke="hsla(0,50%,50%,0.6)"
    stroke-width="1"
    transform="translate(117.7469135802,-152.8935185185)"
    />
  
  <line
    x1="-93.67283950617283"
    y1="177.9320987654321"
    x2="-93.67283950617283"
    y2="189.04320987654322"
    stroke="hsla(0,50%,50%,0.6)"
    stroke-width="1"
    transform="translate(117.7469135802,-152.8935185185)"
    />
  
  <line
    x1="-92.74691358024691"
    y1="120.5246913580247"
    x2="-92.74691358024691"
    y2="191.820987654321"
    stroke="hsla(0,50%,50%,0.6)"
    stroke-width="1"
    transform="translate(117.7469135802,-152.8935185185)"
    />
  
  <line
    x1="-87.19135802469135"
    y1="122.22222222222223"
    x2="-87.19135802469135"
    y2="191.820987654321"
    stroke="hsla(0,50%,50%,0.6)"
    stroke-width="1"
    transform="translate(117.7469135802,-152.8935185185)"
    />
  
  <line
    x1="-95.44753086419753"
    y1="113.96604938271605"
    x2="-97.37654320987654"
    y2="115.89506172839506"
    stroke="hsla(0,50%,50%,0.6)"
    stroke-width="1"
    transform="translate(117.7469135802,-152.8935185185)"
    />
  
  <line
    x1="-92.74691358024691"
    y1="120.5246913580247"
    x2="-97.37654320987654"
    y2="125.15432098765432"
    stroke="hsla(0,50%,50%,0.6)"
    stroke-width="1"
    transform="translate(117.7469135802,-152.8935185185)"
    />
  
  <line
    x1="-92.74691358024691"
    y1="129.78395061728395"
    x2="-97.37654320987654"
    y2="134.41358024691357"
    stroke="hsla(0,50%,50%,0.6)"
    stroke-width="1"
    transform="translate(117.7469135802,-152.8935185185)"
    />
  
  <line
    x1="-139.96913580246914"
    y1="186.26543209876544"
    x2="-145.52469135802468"
    y2="191.820987654321"
    stroke="hsla(0,50%,50%,0.6)"
    stroke-width="1"
    transform="translate(117.7469135802,-152.8935185185)"
    />
  
  <line
    x1="-87.19135802469135"
    y1="144.59876543209876"
    x2="-134.41358024691357"
    y2="191.820987654321"
    stroke="hsla(0,50%,50%,0.6)"
    stroke-width="1"
    transform="translate(117.7469135802,-152.8935185185)"
    />
  
  <line
    x1="-92.74691358024691"
    y1="178.85802469135803"
    x2="-97.37654320987654"
    y2="183.48765432098764"
    stroke="hsla(0,50%,50%,0.6)"
    stroke-width="1"
    transform="translate(117.7469135802,-152.8935185185)"
    />
  
  <line
    x1="-87.19135802469135"
    y1="175.15432098765433"
    x2="-97.37654320987654"
    y2="185.3395061728395"
    stroke="hsla(0,50%,50%,0.6)"
    stroke-width="1"
    transform="translate(117.7469135802,-152.8935185185)"
    />
  
  <line
    x1="-92.74691358024691"
    y1="181.6358024691358"
    x2="-97.37654320987654"
    y2="186.26543209876544"
    stroke="hsla(0,50%,50%,0.6)"
    stroke-width="1"
    transform="translate(117.7469135802,-152.8935185185)"
    />
  
  <line
    x1="-94.59876543209876"
    y1="186.26543209876544"
    x2="-97.37654320987654"
    y2="189.04320987654322"
    stroke="hsla(0,50%,50%,0.6)"
    stroke-width="1"
    transform="translate(117.7469135802,-152.8935185185)"
    />
  
  <line
    x1="-94.59876543209876"
    y1="189.04320987654322"
    x2="-97.37654320987654"
    y2="191.820987654321"
    stroke="hsla(0,50%,50%,0.6)"
    stroke-width="1"
    transform="translate(117.7469135802,-152.8935185185)"
    />
  
  <line
    x1="-92.74691358024691"
    y1="189.96913580246914"
    x2="-94.59876543209876"
    y2="191.820987654321"
    stroke="hsla(0,50%,50%,0.6)"
    stroke-width="1"
    transform="translate(117.7469135802,-152.8935185185)"
    />
  
  <line
    x1="-95.44753086419753"
    y1="113.96604938271605"
    x2="-87.19135802469135"
    y2="122.22222222222223"
    stroke="hsla(0,50%,50%,0.6)"
    stroke-width="1"
    transform="translate(117.7469135802,-152.8935185185)"
    />
  
  <line
    x1="-97.37654320987654"
    y1="115.89506172839506"
    x2="-91.04938271604938"
    y2="122.22222222222223"
    stroke="hsla(0,50%,50%,0.6)"
    stroke-width="1"
    transform="translate(117.7469135802,-152.8935185185)"
    />
  
  <line
    x1="-97.37654320987654"
    y1="125.15432098765432"
    x2="-92.74691358024691"
    y2="129.78395061728395"
    stroke="hsla(0,50%,50%,0.6)"
    stroke-width="1"
    transform="translate(117.7469135802,-152.8935185185)"
    />
  
  <line
    x1="-97.37654320987654"
    y1="134.41358024691357"
    x2="-87.19135802469135"
    y2="144.59876543209876"
    stroke="hsla(0,50%,50%,0.6)"
    stroke-width="1"
    transform="translate(117.7469135802,-152.8935185185)"
    />
  
  <line
    x1="-97.37654320987654"
    y1="122.22222222222223"
    x2="-87.19135802469135"
    y2="122.22222222222223"
    stroke="hsla(0,50%,50%,0.6)"
    stroke-width="1"
    transform="translate(117.7469135802,-152.8935185185)"
    />
  
  <line
    x1="-96.45061728395062"
    y1="175.15432098765433"
    x2="-92.74691358024691"
    y2="178.85802469135803"
    stroke="hsla(0,50%,50%,0.6)"
    stroke-width="1"
    transform="translate(117.7469135802,-152.8935185185)"
    />
  
  <line
    x1="-96.45061728395062"
    y1="177.9320987654321"
    x2="-92.74691358024691"
    y2="181.6358024691358"
    stroke="hsla(0,50%,50%,0.6)"
    stroke-width="1"
    transform="translate(117.7469135802,-152.8935185185)"
    />
  
  <line
    x1="-97.37654320987654"
    y1="183.48765432098764"
    x2="-94.59876543209876"
    y2="186.26543209876544"
    stroke="hsla(0,50%,50%,0.6)"
    stroke-width="1"
    transform="translate(117.7469135802,-152.8935185185)"
    />
  
  <line
    x1="-97.37654320987654"
    y1="185.3395061728395"
    x2="-92.74691358024691"
    y2="189.96913580246914"
    stroke="hsla(0,50%,50%,0.6)"
    stroke-width="1"
    transform="translate(117.7469135802,-152.8935185185)"
    />
  
  <line
    x1="-97.37654320987654"
    y1="186.26543209876544"
    x2="-94.59876543209876"
    y2="189.04320987654322"
    stroke="hsla(0,50%,50%,0.6)"
    stroke-width="1"
    transform="translate(117.7469135802,-152.8935185185)"
    />
  
  <line
    x1="-97.37654320987654"
    y1="189.04320987654322"
    x2="-94.59876543209876"
    y2="191.820987654321"
    stroke="hsla(0,50%,50%,0.6)"
    stroke-width="1"
    transform="translate(117.7469135802,-152.8935185185)"
    />
  
  <line
    x1="-139.96913580246914"
    y1="186.26543209876544"
    x2="-134.41358024691357"
    y2="191.820987654321"
    stroke="hsla(0,50%,50%,0.6)"
    stroke-width="1"
    transform="translate(117.7469135802,-152.8935185185)"
    />
  
  <line
    x1="-148.30246913580248"
    y1="189.04320987654322"
    x2="-145.52469135802468"
    y2="191.820987654321"
    stroke="hsla(0,50%,50%,0.6)"
    stroke-width="1"
    transform="translate(117.7469135802,-152.8935185185)"
    />
  
  <line
    x1="-97.37654320987654"
    y1="175.15432098765433"
    x2="-87.19135802469135"
    y2="175.15432098765433"
    stroke="hsla(0,50%,50%,0.6)"
    stroke-width="1"
    transform="translate(117.7469135802,-152.8935185185)"
    />
  
  <line
    x1="-96.45061728395062"
    y1="177.9320987654321"
    x2="-93.67283950617283"
    y2="177.9320987654321"
    stroke="hsla(0,50%,50%,0.6)"
    stroke-width="1"
    transform="translate(117.7469135802,-152.8935185185)"
    />
  
  <line
    x1="-139.96913580246914"
    y1="186.26543209876544"
    x2="-87.19135802469135"
    y2="186.26543209876544"
    stroke="hsla(0,50%,50%,0.6)"
    stroke-width="1"
    transform="translate(117.7469135802,-152.8935185185)"
    />
  
  <line
    x1="-148.30246913580248"
    y1="189.04320987654322"
    x2="-87.19135802469135"
    y2="189.04320987654322"
    stroke="hsla(0,50%,50%,0.6)"
    stroke-width="1"
    transform="translate(117.7469135802,-152.8935185185)"
    />
  
  <line
    x1="-145.52469135802468"
    y1="191.820987654321"
    x2="-87.19135802469135"
    y2="191.820987654321"
    stroke="hsla(0,50%,50%,0.6)"
    stroke-width="1"
    transform="translate(117.7469135802,-152.8935185185)"
    />
  
</svg>
