<?xml version="1.0"?>
<!DOCTYPE svg PUBLIC "-//W3C//DTD SVG 1.1//EN"
  "http://www.w3.org/Graphics/SVG/1.1/DTD/svg11.dtd">
<svg
  width="240"
  height="240"
  viewBox="-500 -500 1000 1000" xmlns="http://www.w3.org/2000/svg" version="1.1">
  <rect
    x="0"
    y="0"
    width="100"
    height="100"
    fill="hsla(206,100%,53%,0.3)"
    stroke="hsl(206,100%,53%)"
    stroke-width="3"
    transform="" />
  
  <path
    d="M 
      70.6074622403
      43.5181784361
      L
    
      87.2960921682
      47.9846069789
      L
    
      68.1167481636
      121.5976222145
      L
    
      47.7992783664
      145.0976595294
      L
    
      44.4116470450
      142.3539761189
      L
    
      44.5882402148
      142.1359361837
      L
    
      42.0215685791
      139.7685487701
      L
    
      42.2027353938
      139.4355749914
      L
    
      28.8692547524
      135.8670952079
      L
    
      42.1993735101
      86.0596446439
      z
    "
    fill="hsla(0,0%,50%,0.3)"
    stroke="hsla(0,0%,50%,1)"
    stroke-width="1"
    transform="translate(-58.0826734603,-94.3079189827)"
    />
  
  
  <line
    x1="70.60746224033936"
    y1="43.51817843610871"
    x2="80.62129714811317"
    y2="56.56131853666759"
    stroke="hsla(0,50%,50%,0.6)"
    stroke-width="1"
    transform="translate(-58.0826734603,-94.3079189827)"
    />
  
  <line
    x1="78.78358442477068"
    y1="64.04908247167963"
    x2="80.84118523227755"
    y2="72.7594461240257"
    stroke="hsla(0,50%,50%,0.6)"
    stroke-width="1"
    transform="translate(-58.0826734603,-94.3079189827)"
    />
  
  <line
    x1="57.10904092299097"
    y1="98.66061737521287"
    x2="63.80339044110957"
    y2="126.58663258068692"
    stroke="hsla(0,50%,50%,0.6)"
    stroke-width="1"
    transform="translate(-58.0826734603,-94.3079189827)"
    />
  
  <line
    x1="69.61485625346768"
    y1="50.33429846366737"
    x2="83.39438729128803"
    y2="62.959898129893176"
    stroke="hsla(0,50%,50%,0.6)"
    stroke-width="1"
    transform="translate(-58.0826734603,-94.3079189827)"
    />
  
  <line
    x1="83.20942398541003"
    y1="47.0754451229473"
    x2="83.01048454075853"
    y2="64.4333707896917"
    stroke="hsla(0,50%,50%,0.6)"
    stroke-width="1"
    transform="translate(-58.0826734603,-94.3079189827)"
    />
  
  <line
    x1="46.073151915798164"
    y1="130.91455547523555"
    x2="50.60901716554464"
    y2="141.84779784475396"
    stroke="hsla(0,50%,50%,0.6)"
    stroke-width="1"
    transform="translate(-58.0826734603,-94.3079189827)"
    />
  
  <line
    x1="45.92317838968319"
    y1="130.9779431964572"
    x2="50.51867655080024"
    y2="141.95228958701995"
    stroke="hsla(0,50%,50%,0.6)"
    stroke-width="1"
    transform="translate(-58.0826734603,-94.3079189827)"
    />
  
  <line
    x1="45.92317838968319"
    y1="130.9779431964572"
    x2="50.5762269174107"
    y2="141.88572442037605"
    stroke="hsla(0,50%,50%,0.6)"
    stroke-width="1"
    transform="translate(-58.0826734603,-94.3079189827)"
    />
  
  <line
    x1="46.073151915798164"
    y1="130.91455547523555"
    x2="50.72305709701428"
    y2="141.71589447924254"
    stroke="hsla(0,50%,50%,0.6)"
    stroke-width="1"
    transform="translate(-58.0826734603,-94.3079189827)"
    />
  
  <line
    x1="42.19937351018256"
    y1="86.05964464395548"
    x2="28.869254752412186"
    y2="135.8670952079783"
    stroke="hsla(0,50%,50%,0.6)"
    stroke-width="1"
    transform="translate(-58.0826734603,-94.3079189827)"
    />
  
  <line
    x1="71.27387442031467"
    y1="43.92334172934637"
    x2="46.22095680704579"
    y2="140.7355250416162"
    stroke="hsla(0,50%,50%,0.6)"
    stroke-width="1"
    transform="translate(-58.0826734603,-94.3079189827)"
    />
  
  <line
    x1="70.60746224033936"
    y1="43.51817843610871"
    x2="87.296092168272"
    y2="47.98460697892018"
    stroke="hsla(0,50%,50%,0.6)"
    stroke-width="1"
    transform="translate(-58.0826734603,-94.3079189827)"
    />
  
  <line
    x1="71.27387442031467"
    y1="43.92334172934637"
    x2="83.20942398541003"
    y2="47.0754451229473"
    stroke="hsla(0,50%,50%,0.6)"
    stroke-width="1"
    transform="translate(-58.0826734603,-94.3079189827)"
    />
  
  <line
    x1="71.27387442031467"
    y1="43.92334172934637"
    x2="87.296092168272"
    y2="47.98460697892018"
    stroke="hsla(0,50%,50%,0.6)"
    stroke-width="1"
    transform="translate(-58.0826734603,-94.3079189827)"
    />
  
  <line
    x1="87.296092168272"
    y1="47.98460697892018"
    x2="68.1167481636123"
    y2="121.59762221457422"
    stroke="hsla(0,50%,50%,0.6)"
    stroke-width="1"
    transform="translate(-58.0826734603,-94.3079189827)"
    />
  
  <line
    x1="70.60746224033936"
    y1="43.51817843610871"
    x2="42.19937351018256"
    y2="86.05964464395548"
    stroke="hsla(0,50%,50%,0.6)"
    stroke-width="1"
    transform="translate(-58.0826734603,-94.3079189827)"
    />
  
  <line
    x1="83.01048454075853"
    y1="64.4333707896917"
    x2="42.021568579127944"
    y2="139.76854877019372"
    stroke="hsla(0,50%,50%,0.6)"
    stroke-width="1"
    transform="translate(-58.0826734603,-94.3079189827)"
    />
  
  <line
    x1="42.021568579127944"
    y1="139.76854877019372"
    x2="47.799278366427345"
    y2="145.09765952947686"
    stroke="hsla(0,50%,50%,0.6)"
    stroke-width="1"
    transform="translate(-58.0826734603,-94.3079189827)"
    />
  
  <line
    x1="83.20942398541003"
    y1="47.0754451229473"
    x2="69.61485625346768"
    y2="50.33429846366737"
    stroke="hsla(0,50%,50%,0.6)"
    stroke-width="1"
    transform="translate(-58.0826734603,-94.3079189827)"
    />
  
  <line
    x1="44.41164704506127"
    y1="142.35397611890807"
    x2="47.799278366427345"
    y2="145.09765952947686"
    stroke="hsla(0,50%,50%,0.6)"
    stroke-width="1"
    transform="translate(-58.0826734603,-94.3079189827)"
    />
  
  <line
    x1="80.84118523227755"
    y1="72.7594461240257"
    x2="57.10904092299097"
    y2="98.66061737521287"
    stroke="hsla(0,50%,50%,0.6)"
    stroke-width="1"
    transform="translate(-58.0826734603,-94.3079189827)"
    />
  
  <line
    x1="80.62129714811317"
    y1="56.56131853666759"
    x2="42.19937351018256"
    y2="86.05964464395548"
    stroke="hsla(0,50%,50%,0.6)"
    stroke-width="1"
    transform="translate(-58.0826734603,-94.3079189827)"
    />
  
  <line
    x1="57.63406960587528"
    y1="126.02822489017377"
    x2="44.41164704506127"
    y2="142.35397611890807"
    stroke="hsla(0,50%,50%,0.6)"
    stroke-width="1"
    transform="translate(-58.0826734603,-94.3079189827)"
    />
  
  <line
    x1="83.39438729128803"
    y1="62.959898129893176"
    x2="78.78358442477068"
    y2="64.04908247167963"
    stroke="hsla(0,50%,50%,0.6)"
    stroke-width="1"
    transform="translate(-58.0826734603,-94.3079189827)"
    />
  
  <line
    x1="68.1167481636123"
    y1="121.59762221457422"
    x2="47.799278366427345"
    y2="145.09765952947686"
    stroke="hsla(0,50%,50%,0.6)"
    stroke-width="1"
    transform="translate(-58.0826734603,-94.3079189827)"
    />
  
  <line
    x1="28.869254752412186"
    y1="135.8670952079783"
    x2="50.72305709701428"
    y2="141.71589447924254"
    stroke="hsla(0,50%,50%,0.6)"
    stroke-width="1"
    transform="translate(-58.0826734603,-94.3079189827)"
    />
  
  <line
    x1="57.63406960587528"
    y1="126.02822489017377"
    x2="63.80339044110957"
    y2="126.58663258068692"
    stroke="hsla(0,50%,50%,0.6)"
    stroke-width="1"
    transform="translate(-58.0826734603,-94.3079189827)"
    />
  
  <line
    x1="46.22095680704579"
    y1="140.7355250416162"
    x2="50.5762269174107"
    y2="141.88572442037605"
    stroke="hsla(0,50%,50%,0.6)"
    stroke-width="1"
    transform="translate(-58.0826734603,-94.3079189827)"
    />
  
  <line
    x1="42.021568579127944"
    y1="139.76854877019372"
    x2="50.51867655080024"
    y2="141.95228958701995"
    stroke="hsla(0,50%,50%,0.6)"
    stroke-width="1"
    transform="translate(-58.0826734603,-94.3079189827)"
    />
  
  <line
    x1="46.22095680704579"
    y1="140.7355250416162"
    x2="50.60901716554464"
    y2="141.84779784475396"
    stroke="hsla(0,50%,50%,0.6)"
    stroke-width="1"
    transform="translate(-58.0826734603,-94.3079189827)"
    />
  
  <line
    x1="68.1167481636123"
    y1="121.59762221457422"
    x2="45.92317838968319"
    y2="130.9779431964572"
    stroke="hsla(0,50%,50%,0.6)"
    stroke-width="1"
    transform="translate(-58.0826734603,-94.3079189827)"
    />
  
</svg>
