<?xml version="1.0"?>
<!DOCTYPE svg PUBLIC "-//W3C//DTD SVG 1.1//EN"
  "http://www.w3.org/Graphics/SVG/1.1/DTD/svg11.dtd">
<svg
  width="240"
  height="240"
  viewBox="-50 -50 200 200" xmlns="http://www.w3.org/2000/svg" version="1.1">
  <rect
    x="0"
    y="0"
    width="100"
    height="100"
    fill="hsla(206,100%,53%,0.3)"
    stroke="hsl(206,100%,53%)"
    stroke-width="3"
    transform="" />
  
  <path
    d="M 
      32.9470198675
      82.9470198675
      L
    
      48.3178149243
      85.6471061779
      L
    
      46.3066697082
      120.9071695600
      L
    
      46.5709169545
      121.6631119706
      L
    
      46.2572997497
      121.7727400079
      L
    
      29.8254805070
      109.3911764616
      L
    
      16.2251655629
      116.2251655629
      L
    
      15.8711648312
      116.9296620684
      L
    
      14.9193707758
      116.8813112021
      L
    
      -27.8085441460
      138.3515570086
      L
    
      -37.7561404228
      126.1519171386
      L
    
      -30.0403146120
      114.5973720190
      z
    "
    fill="hsla(0,0%,50%,0.3)"
    stroke="hsla(0,0%,50%,1)"
    stroke-width="1"
    transform="translate(25.6637432255,-120.6740733776) scale(1,-1) translate(50,-110)"
    />
  
  
  <line
    x1="33.043226473666614"
    y1="82.96391984827194"
    x2="46.57091695455527"
    y2="121.66311197065028"
    stroke="hsla(0,50%,50%,0.6)"
    stroke-width="1"
    transform="translate(25.6637432255,-120.6740733776) scale(1,-1) translate(50,-110)"
    />
  
  <line
    x1="-24.17152608601888"
    y1="111.64837877954183"
    x2="-24.645622482164836"
    y2="114.87142083919086"
    stroke="hsla(0,50%,50%,0.6)"
    stroke-width="1"
    transform="translate(25.6637432255,-120.6740733776) scale(1,-1) translate(50,-110)"
    />
  
  <line
    x1="10.020033107563737"
    y1="94.46754555291574"
    x2="10.116398567645271"
    y2="109.96101892658007"
    stroke="hsla(0,50%,50%,0.6)"
    stroke-width="1"
    transform="translate(25.6637432255,-120.6740733776) scale(1,-1) translate(50,-110)"
    />
  
  <line
    x1="-5.995492256446383"
    y1="125.20847292773348"
    x2="-5.90036648889341"
    y2="127.34297022576236"
    stroke="hsla(0,50%,50%,0.6)"
    stroke-width="1"
    transform="translate(25.6637432255,-120.6740733776) scale(1,-1) translate(50,-110)"
    />
  
  <line
    x1="3.2800740228981753"
    y1="97.85429116262331"
    x2="5.54877276835704"
    y2="121.58992015122358"
    stroke="hsla(0,50%,50%,0.6)"
    stroke-width="1"
    transform="translate(25.6637432255,-120.6740733776) scale(1,-1) translate(50,-110)"
    />
  
  <line
    x1="-24.775729793994216"
    y1="111.95198362782793"
    x2="-24.645622482164836"
    y2="114.87142083919086"
    stroke="hsla(0,50%,50%,0.6)"
    stroke-width="1"
    transform="translate(25.6637432255,-120.6740733776) scale(1,-1) translate(50,-110)"
    />
  
  <line
    x1="0.7999258159492957"
    y1="117.2987155853028"
    x2="-0.260693106902468"
    y2="124.50910449650323"
    stroke="hsla(0,50%,50%,0.6)"
    stroke-width="1"
    transform="translate(25.6637432255,-120.6740733776) scale(1,-1) translate(50,-110)"
    />
  
  <line
    x1="48.31781492430703"
    y1="85.64710617793706"
    x2="46.257299749782376"
    y2="121.7727400079032"
    stroke="hsla(0,50%,50%,0.6)"
    stroke-width="1"
    transform="translate(25.6637432255,-120.6740733776) scale(1,-1) translate(50,-110)"
    />
  
  <line
    x1="-5.239992759063391"
    y1="102.1355187495791"
    x2="-16.306000823838527"
    y2="132.57167205575968"
    stroke="hsla(0,50%,50%,0.6)"
    stroke-width="1"
    transform="translate(25.6637432255,-120.6740733776) scale(1,-1) translate(50,-110)"
    />
  
  <line
    x1="14.504474310244783"
    y1="92.21416962520038"
    x2="10.156070203627161"
    y2="106.74336526040096"
    stroke="hsla(0,50%,50%,0.6)"
    stroke-width="1"
    transform="translate(25.6637432255,-120.6740733776) scale(1,-1) translate(50,-110)"
    />
  
  <line
    x1="-31.090536838955035"
    y1="125.3469781923729"
    x2="-27.808544146008856"
    y2="138.351557008691"
    stroke="hsla(0,50%,50%,0.6)"
    stroke-width="1"
    transform="translate(25.6637432255,-120.6740733776) scale(1,-1) translate(50,-110)"
    />
  
  <line
    x1="48.31781492430703"
    y1="85.64710617793706"
    x2="43.226935814856276"
    y2="102.65711185422646"
    stroke="hsla(0,50%,50%,0.6)"
    stroke-width="1"
    transform="translate(25.6637432255,-120.6740733776) scale(1,-1) translate(50,-110)"
    />
  
  <line
    x1="-30.04031461207067"
    y1="114.59737201900069"
    x2="-37.75614042289677"
    y2="126.15191713869548"
    stroke="hsla(0,50%,50%,0.6)"
    stroke-width="1"
    transform="translate(25.6637432255,-120.6740733776) scale(1,-1) translate(50,-110)"
    />
  
  <line
    x1="32.94701986754967"
    y1="82.94701986754967"
    x2="15.871164831257031"
    y2="116.92966206848848"
    stroke="hsla(0,50%,50%,0.6)"
    stroke-width="1"
    transform="translate(25.6637432255,-120.6740733776) scale(1,-1) translate(50,-110)"
    />
  
  <line
    x1="10.116398567645271"
    y1="109.96101892658007"
    x2="15.871164831257031"
    y2="116.92966206848848"
    stroke="hsla(0,50%,50%,0.6)"
    stroke-width="1"
    transform="translate(25.6637432255,-120.6740733776) scale(1,-1) translate(50,-110)"
    />
  
  <line
    x1="33.043226473666614"
    y1="82.96391984827194"
    x2="-1.229837044764908"
    y2="124.99608727125003"
    stroke="hsla(0,50%,50%,0.6)"
    stroke-width="1"
    transform="translate(25.6637432255,-120.6740733776) scale(1,-1) translate(50,-110)"
    />
  
  <line
    x1="3.2800740228981753"
    y1="97.85429116262331"
    x2="18.531286309245544"
    y2="111.63575694892718"
    stroke="hsla(0,50%,50%,0.6)"
    stroke-width="1"
    transform="translate(25.6637432255,-120.6740733776) scale(1,-1) translate(50,-110)"
    />
  
  <line
    x1="10.020033107563737"
    y1="94.46754555291574"
    x2="46.257299749782376"
    y2="121.7727400079032"
    stroke="hsla(0,50%,50%,0.6)"
    stroke-width="1"
    transform="translate(25.6637432255,-120.6740733776) scale(1,-1) translate(50,-110)"
    />
  
  <line
    x1="0.7999258159492957"
    y1="117.2987155853028"
    x2="5.54877276835704"
    y2="121.58992015122358"
    stroke="hsla(0,50%,50%,0.6)"
    stroke-width="1"
    transform="translate(25.6637432255,-120.6740733776) scale(1,-1) translate(50,-110)"
    />
  
  <line
    x1="-37.75614042289677"
    y1="126.15191713869548"
    x2="-27.808544146008856"
    y2="138.351557008691"
    stroke="hsla(0,50%,50%,0.6)"
    stroke-width="1"
    transform="translate(25.6637432255,-120.6740733776) scale(1,-1) translate(50,-110)"
    />
  
  <line
    x1="32.94701986754967"
    y1="82.94701986754967"
    x2="48.31781492430703"
    y2="85.64710617793706"
    stroke="hsla(0,50%,50%,0.6)"
    stroke-width="1"
    transform="translate(25.6637432255,-120.6740733776) scale(1,-1) translate(50,-110)"
    />
  
  <line
    x1="14.504474310244783"
    y1="92.21416962520038"
    x2="43.226935814856276"
    y2="102.65711185422646"
    stroke="hsla(0,50%,50%,0.6)"
    stroke-width="1"
    transform="translate(25.6637432255,-120.6740733776) scale(1,-1) translate(50,-110)"
    />
  
  <line
    x1="-24.775729793994216"
    y1="111.95198362782793"
    x2="-5.90036648889341"
    y2="127.34297022576236"
    stroke="hsla(0,50%,50%,0.6)"
    stroke-width="1"
    transform="translate(25.6637432255,-120.6740733776) scale(1,-1) translate(50,-110)"
    />
  
  <line
    x1="32.94701986754967"
    y1="82.94701986754967"
    x2="-30.04031461207067"
    y2="114.59737201900069"
    stroke="hsla(0,50%,50%,0.6)"
    stroke-width="1"
    transform="translate(25.6637432255,-120.6740733776) scale(1,-1) translate(50,-110)"
    />
  
  <line
    x1="-5.239992759063391"
    y1="102.1355187495791"
    x2="10.156070203627161"
    y2="106.74336526040096"
    stroke="hsla(0,50%,50%,0.6)"
    stroke-width="1"
    transform="translate(25.6637432255,-120.6740733776) scale(1,-1) translate(50,-110)"
    />
  
  <line
    x1="-24.17152608601888"
    y1="111.64837877954183"
    x2="-0.260693106902468"
    y2="124.50910449650323"
    stroke="hsla(0,50%,50%,0.6)"
    stroke-width="1"
    transform="translate(25.6637432255,-120.6740733776) scale(1,-1) translate(50,-110)"
    />
  
  <line
    x1="43.226935814856276"
    y1="102.65711185422646"
    x2="-27.808544146008856"
    y2="138.351557008691"
    stroke="hsla(0,50%,50%,0.6)"
    stroke-width="1"
    transform="translate(25.6637432255,-120.6740733776) scale(1,-1) translate(50,-110)"
    />
  
  <line
    x1="10.116398567645271"
    y1="109.96101892658007"
    x2="18.531286309245544"
    y2="111.63575694892718"
    stroke="hsla(0,50%,50%,0.6)"
    stroke-width="1"
    transform="translate(25.6637432255,-120.6740733776) scale(1,-1) translate(50,-110)"
    />
  
  <line
    x1="0.7999258159492957"
    y1="117.2987155853028"
    x2="-31.090536838955035"
    y2="125.3469781923729"
    stroke="hsla(0,50%,50%,0.6)"
    stroke-width="1"
    transform="translate(25.6637432255,-120.6740733776) scale(1,-1) translate(50,-110)"
    />
  
  <line
    x1="-30.04031461207067"
    y1="114.59737201900069"
    x2="15.871164831257031"
    y2="116.92966206848848"
    stroke="hsla(0,50%,50%,0.6)"
    stroke-width="1"
    transform="translate(25.6637432255,-120.6740733776) scale(1,-1) translate(50,-110)"
    />
  
  <line
    x1="46.57091695455527"
    y1="121.66311197065028"
    x2="46.257299749782376"
    y2="121.7727400079032"
    stroke="hsla(0,50%,50%,0.6)"
    stroke-width="1"
    transform="translate(25.6637432255,-120.6740733776) scale(1,-1) translate(50,-110)"
    />
  
  <line
    x1="-1.229837044764908"
    y1="124.99608727125003"
    x2="-5.995492256446383"
    y2="125.20847292773348"
    stroke="hsla(0,50%,50%,0.6)"
    stroke-width="1"
    transform="translate(25.6637432255,-120.6740733776) scale(1,-1) translate(50,-110)"
    />
  
  <line
    x1="-37.75614042289677"
    y1="126.15191713869548"
    x2="-16.306000823838527"
    y2="132.57167205575968"
    stroke="hsla(0,50%,50%,0.6)"
    stroke-width="1"
    transform="translate(25.6637432255,-120.6740733776) scale(1,-1) translate(50,-110)"
    />
  
</svg>
