<?xml version="1.0"?>
<!DOCTYPE svg PUBLIC "-//W3C//DTD SVG 1.1//EN"
  "http://www.w3.org/Graphics/SVG/1.1/DTD/svg11.dtd">
<svg
  width="240"
  height="240"
  viewBox="-500 -500 1000 1000" xmlns="http://www.w3.org/2000/svg" version="1.1">
  <rect
    x="0"
    y="0"
    width="100"
    height="100"
    fill="hsla(206,100%,53%,0.3)"
    stroke="hsl(206,100%,53%)"
    stroke-width="3"
    transform="" />
  
  <path
    d="M 
      58.3039224031
      -54.1433531178
      L
    
      58.5285389702
      -54.0821385273
      L
    
      58.4824459254
      -53.9130079100
      L
    
      72.7932085357
      -35.4481269402
      L
    
      98.6538587205
      -35.9602692282
      L
    
      99.3036585755
      -3.1485933798
      L
    
      104.6679363097
      -4.6444399258
      L
    
      109.1646060655
      11.4811349289
      L
    
      76.0424876646
      28.1245874587
      L
    
      31.6883769995
      6.9265304656
      L
    
      31.2641778498
      7.4462635378
      L
    
      25.0976320628
      4.1931567943
      L
    
      24.4531417969
      4.9400962013
      L
    
      20.8460522007
      1.9502734042
      z
    "
    fill="hsla(0,0%,50%,0.3)"
    stroke="hsla(0,0%,50%,1)"
    stroke-width="1"
    transform="translate(-65.0053291331,13.0093828295)"
    />
  
  
  <line
    x1="58.303922403189404"
    y1="-54.14335311787733"
    x2="58.52853897021094"
    y2="-54.08213852737156"
    stroke="hsla(0,50%,50%,0.6)"
    stroke-width="1"
    transform="translate(-65.0053291331,13.0093828295)"
    />
  
  <line
    x1="58.303922403189404"
    y1="-54.14335311787733"
    x2="109.16460606556443"
    y2="11.481134928912068"
    stroke="hsla(0,50%,50%,0.6)"
    stroke-width="1"
    transform="translate(-65.0053291331,13.0093828295)"
    />
  
  <line
    x1="87.22053146779442"
    y1="6.580793647128833"
    x2="99.68769147008132"
    y2="16.243166641070246"
    stroke="hsla(0,50%,50%,0.6)"
    stroke-width="1"
    transform="translate(-65.0053291331,13.0093828295)"
    />
  
  <line
    x1="87.22053146779442"
    y1="6.580793647128833"
    x2="93.34677153735689"
    y2="11.137526076585178"
    stroke="hsla(0,50%,50%,0.6)"
    stroke-width="1"
    transform="translate(-65.0053291331,13.0093828295)"
    />
  
  <line
    x1="98.65385872051232"
    y1="-35.960269228255896"
    x2="45.45824231465693"
    y2="-34.90678741315955"
    stroke="hsla(0,50%,50%,0.6)"
    stroke-width="1"
    transform="translate(-65.0053291331,13.0093828295)"
    />
  
  <line
    x1="39.845401345847684"
    y1="-26.501488250912868"
    x2="49.63577964572812"
    y2="-24.245611603503562"
    stroke="hsla(0,50%,50%,0.6)"
    stroke-width="1"
    transform="translate(-65.0053291331,13.0093828295)"
    />
  
  <line
    x1="39.68544712975865"
    y1="-18.03146118097242"
    x2="48.766612767233184"
    y2="-13.997896066901253"
    stroke="hsla(0,50%,50%,0.6)"
    stroke-width="1"
    transform="translate(-65.0053291331,13.0093828295)"
    />
  
  <line
    x1="39.845401345847684"
    y1="-26.501488250912868"
    x2="48.766612767233184"
    y2="-13.997896066901253"
    stroke="hsla(0,50%,50%,0.6)"
    stroke-width="1"
    transform="translate(-65.0053291331,13.0093828295)"
    />
  
  <line
    x1="104.66793630978201"
    y1="-4.644439925884795"
    x2="109.16460606556443"
    y2="11.481134928912068"
    stroke="hsla(0,50%,50%,0.6)"
    stroke-width="1"
    transform="translate(-65.0053291331,13.0093828295)"
    />
  
  <line
    x1="45.45824231465693"
    y1="-34.90678741315955"
    x2="49.63577964572812"
    y2="-24.245611603503562"
    stroke="hsla(0,50%,50%,0.6)"
    stroke-width="1"
    transform="translate(-65.0053291331,13.0093828295)"
    />
  
  <line
    x1="29.385790412381795"
    y1="5.157178648674846"
    x2="31.26417784983267"
    y2="7.446263537861003"
    stroke="hsla(0,50%,50%,0.6)"
    stroke-width="1"
    transform="translate(-65.0053291331,13.0093828295)"
    />
  
  <line
    x1="20.950125222928925"
    y1="1.794422759030152"
    x2="24.4531417969412"
    y2="4.940096201375333"
    stroke="hsla(0,50%,50%,0.6)"
    stroke-width="1"
    transform="translate(-65.0053291331,13.0093828295)"
    />
  
  <line
    x1="20.84605220073322"
    y1="1.9502734042087932"
    x2="24.4531417969412"
    y2="4.940096201375333"
    stroke="hsla(0,50%,50%,0.6)"
    stroke-width="1"
    transform="translate(-65.0053291331,13.0093828295)"
    />
  
  <line
    x1="20.84605220073322"
    y1="1.9502734042087932"
    x2="31.26417784983267"
    y2="7.446263537861003"
    stroke="hsla(0,50%,50%,0.6)"
    stroke-width="1"
    transform="translate(-65.0053291331,13.0093828295)"
    />
  
  <line
    x1="20.950125222928925"
    y1="1.794422759030152"
    x2="76.04248766460805"
    y2="28.124587458745875"
    stroke="hsla(0,50%,50%,0.6)"
    stroke-width="1"
    transform="translate(-65.0053291331,13.0093828295)"
    />
  
  <line
    x1="50.74874211588661"
    y1="-25.535492260442236"
    x2="34.42202724457587"
    y2="-18.379918079356575"
    stroke="hsla(0,50%,50%,0.6)"
    stroke-width="1"
    transform="translate(-65.0053291331,13.0093828295)"
    />
  
  <line
    x1="98.65385872051232"
    y1="-35.960269228255896"
    x2="99.68769147008132"
    y2="16.243166641070246"
    stroke="hsla(0,50%,50%,0.6)"
    stroke-width="1"
    transform="translate(-65.0053291331,13.0093828295)"
    />
  
  <line
    x1="93.34677153735689"
    y1="-1.4874957740767705"
    x2="93.34677153735689"
    y2="11.137526076585178"
    stroke="hsla(0,50%,50%,0.6)"
    stroke-width="1"
    transform="translate(-65.0053291331,13.0093828295)"
    />
  
  <line
    x1="34.42202724457587"
    y1="-18.379918079356575"
    x2="33.97637625450945"
    y2="4.123250725977997"
    stroke="hsla(0,50%,50%,0.6)"
    stroke-width="1"
    transform="translate(-65.0053291331,13.0093828295)"
    />
  
  <line
    x1="58.303922403189404"
    y1="-54.14335311787733"
    x2="20.84605220073322"
    y2="1.9502734042087932"
    stroke="hsla(0,50%,50%,0.6)"
    stroke-width="1"
    transform="translate(-65.0053291331,13.0093828295)"
    />
  
  <line
    x1="58.52853897021094"
    y1="-54.08213852737156"
    x2="50.74874211588661"
    y2="-25.535492260442236"
    stroke="hsla(0,50%,50%,0.6)"
    stroke-width="1"
    transform="translate(-65.0053291331,13.0093828295)"
    />
  
  <line
    x1="33.97637625450945"
    y1="4.123250725977997"
    x2="29.385790412381795"
    y2="5.157178648674846"
    stroke="hsla(0,50%,50%,0.6)"
    stroke-width="1"
    transform="translate(-65.0053291331,13.0093828295)"
    />
  
  <line
    x1="39.68544712975865"
    y1="-18.03146118097242"
    x2="29.385790412381795"
    y2="5.157178648674846"
    stroke="hsla(0,50%,50%,0.6)"
    stroke-width="1"
    transform="translate(-65.0053291331,13.0093828295)"
    />
  
  <line
    x1="50.74874211588661"
    y1="-25.535492260442236"
    x2="24.4531417969412"
    y2="4.940096201375333"
    stroke="hsla(0,50%,50%,0.6)"
    stroke-width="1"
    transform="translate(-65.0053291331,13.0093828295)"
    />
  
  <line
    x1="77.84677153735689"
    y1="18.926083290515525"
    x2="76.04248766460805"
    y2="28.124587458745875"
    stroke="hsla(0,50%,50%,0.6)"
    stroke-width="1"
    transform="translate(-65.0053291331,13.0093828295)"
    />
  
  <line
    x1="48.766612767233184"
    y1="-13.997896066901253"
    x2="31.26417784983267"
    y2="7.446263537861003"
    stroke="hsla(0,50%,50%,0.6)"
    stroke-width="1"
    transform="translate(-65.0053291331,13.0093828295)"
    />
  
  <line
    x1="104.66793630978201"
    y1="-4.644439925884795"
    x2="93.34677153735689"
    y2="-1.4874957740767705"
    stroke="hsla(0,50%,50%,0.6)"
    stroke-width="1"
    transform="translate(-65.0053291331,13.0093828295)"
    />
  
  <line
    x1="93.34677153735689"
    y1="-1.4874957740767705"
    x2="77.84677153735689"
    y2="18.926083290515525"
    stroke="hsla(0,50%,50%,0.6)"
    stroke-width="1"
    transform="translate(-65.0053291331,13.0093828295)"
    />
  
  <line
    x1="93.34677153735689"
    y1="11.137526076585178"
    x2="77.84677153735689"
    y2="18.926083290515525"
    stroke="hsla(0,50%,50%,0.6)"
    stroke-width="1"
    transform="translate(-65.0053291331,13.0093828295)"
    />
  
  <line
    x1="109.16460606556443"
    y1="11.481134928912068"
    x2="76.04248766460805"
    y2="28.124587458745875"
    stroke="hsla(0,50%,50%,0.6)"
    stroke-width="1"
    transform="translate(-65.0053291331,13.0093828295)"
    />
  
</svg>
