<?xml version="1.0"?>
<!DOCTYPE svg PUBLIC "-//W3C//DTD SVG 1.1//EN"
  "http://www.w3.org/Graphics/SVG/1.1/DTD/svg11.dtd">
<svg
  width="240"
  height="240"
  viewBox="-500 -500 1000 1000" xmlns="http://www.w3.org/2000/svg" version="1.1">
  <rect
    x="0"
    y="0"
    width="100"
    height="100"
    fill="hsla(206,100%,53%,0.3)"
    stroke="hsl(206,100%,53%)"
    stroke-width="3"
    transform="" />
  
  <path
    d="M 
      99.0099009900
      0
      L
    
      100
      0
      L
    
      100
      49.2537313432
      L
    
      59.5423727524
      89.7113585908
      L
    
      65.2631838063
      112.9126448955
      L
    
      60.2268641772
      119.6136077625
      L
    
      59.4353861958
      119.0187475652
      L
    
      58.0867629209
      109.5096996212
      L
    
      50.8102030779
      106.0592700371
      L
    
      50.6718245774
      100.0052164385
      L
    
      49.9981343515
      100.0018563666
      L
    
      49.6268656716
      99.6268656716
      L
    
      49.7506234413
      50
      L
    
      50
      49.0099009900
      z
    "
    fill="hsla(0,0%,50%,0.3)"
    stroke="hsla(0,0%,50%,1)"
    stroke-width="1"
    transform="translate(-74.8134328358,-59.8068038812)"
    />
  
  
  <line
    x1="49.75003443590124"
    y1="50.23619120360271"
    x2="49.953731884431136"
    y2="50.671358868182175"
    stroke="hsla(0,50%,50%,0.6)"
    stroke-width="1"
    transform="translate(-74.8134328358,-59.8068038812)"
    />
  
  <line
    x1="49.74799534416209"
    y1="51.05386699100034"
    x2="50.23766997303878"
    y2="51.97526293351428"
    stroke="hsla(0,50%,50%,0.6)"
    stroke-width="1"
    transform="translate(-74.8134328358,-59.8068038812)"
    />
  
  <line
    x1="49.750623441396506"
    y1="50"
    x2="65.26318380636822"
    y2="112.91264489557523"
    stroke="hsla(0,50%,50%,0.6)"
    stroke-width="1"
    transform="translate(-74.8134328358,-59.8068038812)"
    />
  
  <line
    x1="49.92312821522591"
    y1="49.315104808855565"
    x2="50.249739406206"
    y2="49.754213006742106"
    stroke="hsla(0,50%,50%,0.6)"
    stroke-width="1"
    transform="translate(-74.8134328358,-59.8068038812)"
    />
  
  <line
    x1="49.748829141035266"
    y1="50.71951444485976"
    x2="59.435386195877605"
    y2="119.0187475652289"
    stroke="hsla(0,50%,50%,0.6)"
    stroke-width="1"
    transform="translate(-74.8134328358,-59.8068038812)"
    />
  
  <line
    x1="49.7288073509016"
    y1="58.74825228845976"
    x2="50.81020307798554"
    y2="106.05927003715338"
    stroke="hsla(0,50%,50%,0.6)"
    stroke-width="1"
    transform="translate(-74.8134328358,-59.8068038812)"
    />
  
  <line
    x1="49.71002348214083"
    y1="66.28058366152709"
    x2="55.807493638098755"
    y2="74.56420570805082"
    stroke="hsla(0,50%,50%,0.6)"
    stroke-width="1"
    transform="translate(-74.8134328358,-59.8068038812)"
    />
  
  <line
    x1="49.630248384639955"
    y1="98.27039775937891"
    x2="49.99814666607393"
    y2="99.01174510345828"
    stroke="hsla(0,50%,50%,0.6)"
    stroke-width="1"
    transform="translate(-74.8134328358,-59.8068038812)"
    />
  
  <line
    x1="99.00990099009901"
    y1="0"
    x2="100"
    y2="0"
    stroke="hsla(0,50%,50%,0.6)"
    stroke-width="1"
    transform="translate(-74.8134328358,-59.8068038812)"
    />
  
  <line
    x1="100"
    y1="0"
    x2="100"
    y2="49.25373134328358"
    stroke="hsla(0,50%,50%,0.6)"
    stroke-width="1"
    transform="translate(-74.8134328358,-59.8068038812)"
    />
  
  <line
    x1="49.750623441396506"
    y1="50"
    x2="49.62686567164179"
    y2="99.6268656716418"
    stroke="hsla(0,50%,50%,0.6)"
    stroke-width="1"
    transform="translate(-74.8134328358,-59.8068038812)"
    />
  
  <line
    x1="50.23766997303878"
    y1="51.97526293351428"
    x2="49.99813435156279"
    y2="100.00185636660419"
    stroke="hsla(0,50%,50%,0.6)"
    stroke-width="1"
    transform="translate(-74.8134328358,-59.8068038812)"
    />
  
  <line
    x1="50"
    y1="49.00990099009901"
    x2="49.7288073509016"
    y2="58.74825228845976"
    stroke="hsla(0,50%,50%,0.6)"
    stroke-width="1"
    transform="translate(-74.8134328358,-59.8068038812)"
    />
  
  <line
    x1="49.750309996357984"
    y1="50.12569146044907"
    x2="49.788736809289745"
    y2="50.15457234161396"
    stroke="hsla(0,50%,50%,0.6)"
    stroke-width="1"
    transform="translate(-74.8134328358,-59.8068038812)"
    />
  
  <line
    x1="50"
    y1="49.00990099009901"
    x2="49.748829141035266"
    y2="50.71951444485976"
    stroke="hsla(0,50%,50%,0.6)"
    stroke-width="1"
    transform="translate(-74.8134328358,-59.8068038812)"
    />
  
  <line
    x1="55.807493638098755"
    y1="74.56420570805082"
    x2="54.886804172885384"
    y2="80.61360618819026"
    stroke="hsla(0,50%,50%,0.6)"
    stroke-width="1"
    transform="translate(-74.8134328358,-59.8068038812)"
    />
  
  <line
    x1="50"
    y1="49.00990099009901"
    x2="49.750623441396506"
    y2="50"
    stroke="hsla(0,50%,50%,0.6)"
    stroke-width="1"
    transform="translate(-74.8134328358,-59.8068038812)"
    />
  
  <line
    x1="49.93858636989616"
    y1="49.25373134328358"
    x2="49.992403742220034"
    y2="49.28267765664998"
    stroke="hsla(0,50%,50%,0.6)"
    stroke-width="1"
    transform="translate(-74.8134328358,-59.8068038812)"
    />
  
  <line
    x1="49.62686567164179"
    y1="99.6268656716418"
    x2="49.99813435156279"
    y2="100.00185636660419"
    stroke="hsla(0,50%,50%,0.6)"
    stroke-width="1"
    transform="translate(-74.8134328358,-59.8068038812)"
    />
  
  <line
    x1="49.788736809289745"
    y1="50.15457234161396"
    x2="49.75003443590124"
    y2="50.23619120360271"
    stroke="hsla(0,50%,50%,0.6)"
    stroke-width="1"
    transform="translate(-74.8134328358,-59.8068038812)"
    />
  
  <line
    x1="49.953731884431136"
    y1="50.671358868182175"
    x2="49.74799534416209"
    y2="51.05386699100034"
    stroke="hsla(0,50%,50%,0.6)"
    stroke-width="1"
    transform="translate(-74.8134328358,-59.8068038812)"
    />
  
  <line
    x1="99.00990099009901"
    y1="0"
    x2="49.630248384639955"
    y2="98.27039775937891"
    stroke="hsla(0,50%,50%,0.6)"
    stroke-width="1"
    transform="translate(-74.8134328358,-59.8068038812)"
    />
  
  <line
    x1="99.00990099009901"
    y1="0"
    x2="49.71002348214083"
    y2="66.28058366152709"
    stroke="hsla(0,50%,50%,0.6)"
    stroke-width="1"
    transform="translate(-74.8134328358,-59.8068038812)"
    />
  
  <line
    x1="59.435386195877605"
    y1="119.0187475652289"
    x2="60.2268641772509"
    y2="119.6136077625931"
    stroke="hsla(0,50%,50%,0.6)"
    stroke-width="1"
    transform="translate(-74.8134328358,-59.8068038812)"
    />
  
  <line
    x1="50.2845435377577"
    y1="83.06168717768371"
    x2="58.91140466415701"
    y2="87.15240827265177"
    stroke="hsla(0,50%,50%,0.6)"
    stroke-width="1"
    transform="translate(-74.8134328358,-59.8068038812)"
    />
  
  <line
    x1="49.93858636989616"
    y1="49.25373134328358"
    x2="100"
    y2="49.25373134328358"
    stroke="hsla(0,50%,50%,0.6)"
    stroke-width="1"
    transform="translate(-74.8134328358,-59.8068038812)"
    />
  
  <line
    x1="99.00990099009901"
    y1="0"
    x2="50"
    y2="49.00990099009901"
    stroke="hsla(0,50%,50%,0.6)"
    stroke-width="1"
    transform="translate(-74.8134328358,-59.8068038812)"
    />
  
  <line
    x1="50.249739406206"
    y1="49.754213006742106"
    x2="49.750309996357984"
    y2="50.12569146044907"
    stroke="hsla(0,50%,50%,0.6)"
    stroke-width="1"
    transform="translate(-74.8134328358,-59.8068038812)"
    />
  
  <line
    x1="49.992403742220034"
    y1="49.28267765664998"
    x2="49.92312821522591"
    y2="49.315104808855565"
    stroke="hsla(0,50%,50%,0.6)"
    stroke-width="1"
    transform="translate(-74.8134328358,-59.8068038812)"
    />
  
  <line
    x1="58.91140466415701"
    y1="87.15240827265177"
    x2="49.99814666607393"
    y2="99.01174510345828"
    stroke="hsla(0,50%,50%,0.6)"
    stroke-width="1"
    transform="translate(-74.8134328358,-59.8068038812)"
    />
  
  <line
    x1="50.78488239886774"
    y1="104.95149138670352"
    x2="64.95722272475756"
    y2="111.67179100515601"
    stroke="hsla(0,50%,50%,0.6)"
    stroke-width="1"
    transform="translate(-74.8134328358,-59.8068038812)"
    />
  
  <line
    x1="50.81020307798554"
    y1="106.05927003715338"
    x2="65.26318380636822"
    y2="112.91264489557523"
    stroke="hsla(0,50%,50%,0.6)"
    stroke-width="1"
    transform="translate(-74.8134328358,-59.8068038812)"
    />
  
  <line
    x1="50.21232600721999"
    y1="79.90217324262358"
    x2="54.886804172885384"
    y2="80.61360618819026"
    stroke="hsla(0,50%,50%,0.6)"
    stroke-width="1"
    transform="translate(-74.8134328358,-59.8068038812)"
    />
  
  <line
    x1="64.95722272475756"
    y1="111.67179100515601"
    x2="59.435386195877605"
    y2="119.0187475652289"
    stroke="hsla(0,50%,50%,0.6)"
    stroke-width="1"
    transform="translate(-74.8134328358,-59.8068038812)"
    />
  
  <line
    x1="65.26318380636822"
    y1="112.91264489557523"
    x2="60.2268641772509"
    y2="119.6136077625931"
    stroke="hsla(0,50%,50%,0.6)"
    stroke-width="1"
    transform="translate(-74.8134328358,-59.8068038812)"
    />
  
  <line
    x1="100"
    y1="49.25373134328358"
    x2="49.62686567164179"
    y2="99.6268656716418"
    stroke="hsla(0,50%,50%,0.6)"
    stroke-width="1"
    transform="translate(-74.8134328358,-59.8068038812)"
    />
  
  <line
    x1="53.82582822154984"
    y1="79.46614847128038"
    x2="57.02010875200484"
    y2="79.48208014407533"
    stroke="hsla(0,50%,50%,0.6)"
    stroke-width="1"
    transform="translate(-74.8134328358,-59.8068038812)"
    />
  
  <line
    x1="57.02010875200484"
    y1="79.48208014407533"
    x2="50.2845435377577"
    y2="83.06168717768371"
    stroke="hsla(0,50%,50%,0.6)"
    stroke-width="1"
    transform="translate(-74.8134328358,-59.8068038812)"
    />
  
  <line
    x1="56.79993038721794"
    y1="78.58912611510627"
    x2="50.21232600721999"
    y2="79.90217324262358"
    stroke="hsla(0,50%,50%,0.6)"
    stroke-width="1"
    transform="translate(-74.8134328358,-59.8068038812)"
    />
  
  <line
    x1="56.79993038721794"
    y1="78.58912611510627"
    x2="53.82582822154984"
    y2="79.46614847128038"
    stroke="hsla(0,50%,50%,0.6)"
    stroke-width="1"
    transform="translate(-74.8134328358,-59.8068038812)"
    />
  
  <line
    x1="49.99814666607393"
    y1="99.01174510345828"
    x2="61.85017267129595"
    y2="99.07085782022563"
    stroke="hsla(0,50%,50%,0.6)"
    stroke-width="1"
    transform="translate(-74.8134328358,-59.8068038812)"
    />
  
  <line
    x1="49.99813435156279"
    y1="100.00185636660419"
    x2="62.09460800927371"
    y2="100.06218828124028"
    stroke="hsla(0,50%,50%,0.6)"
    stroke-width="1"
    transform="translate(-74.8134328358,-59.8068038812)"
    />
  
  <line
    x1="61.85017267129595"
    y1="99.07085782022563"
    x2="50.78488239886774"
    y2="104.95149138670352"
    stroke="hsla(0,50%,50%,0.6)"
    stroke-width="1"
    transform="translate(-74.8134328358,-59.8068038812)"
    />
  
  <line
    x1="62.09460800927371"
    y1="100.06218828124028"
    x2="50.81020307798554"
    y2="106.05927003715338"
    stroke="hsla(0,50%,50%,0.6)"
    stroke-width="1"
    transform="translate(-74.8134328358,-59.8068038812)"
    />
  
</svg>
