<?xml version="1.0"?>
<!DOCTYPE svg PUBLIC "-//W3C//DTD SVG 1.1//EN"
  "http://www.w3.org/Graphics/SVG/1.1/DTD/svg11.dtd">
<svg
  width="240"
  height="240"
  viewBox="-500 -500 1000 1000" xmlns="http://www.w3.org/2000/svg" version="1.1">
  <rect
    x="0"
    y="0"
    width="100"
    height="100"
    fill="hsla(206,100%,53%,0.3)"
    stroke="hsl(206,100%,53%)"
    stroke-width="3"
    transform="" />
  
  <path
    d="M 
      64.7183633187
      7.7322362444
      L
    
      64.9387671647
      7.8489016319
      L
    
      64.7825653891
      8.1439974856
      L
    
      74.3206406425
      69.3166307744
      L
    
      66.1849082408
      78.3426195114
      L
    
      66.0399451650
      121.9765053197
      L
    
      52.6397486621
      139.6713958859
      L
    
      24.2875596315
      118.2005140585
      L
    
      24.3718592964
      101.2562814070
      L
    
      44.2531868577
      22.3215056438
      z
    "
    fill="hsla(0,0%,50%,0.3)"
    stroke="hsla(0,0%,50%,1)"
    stroke-width="1"
    transform="translate(-49.3041001370,-73.7018160652)"
    />
  
  
  <line
    x1="64.7183633187645"
    y1="7.732236244473026"
    x2="64.9387671647925"
    y2="7.848901631957873"
    stroke="hsla(0,50%,50%,0.6)"
    stroke-width="1"
    transform="translate(-49.3041001370,-73.7018160652)"
    />
  
  <line
    x1="44.253186857791825"
    y1="22.321505643816614"
    x2="66.22296173044926"
    y2="66.88851913477538"
    stroke="hsla(0,50%,50%,0.6)"
    stroke-width="1"
    transform="translate(-49.3041001370,-73.7018160652)"
    />
  
  <line
    x1="64.7183633187645"
    y1="7.732236244473026"
    x2="74.3206406425716"
    y2="69.31663077445407"
    stroke="hsla(0,50%,50%,0.6)"
    stroke-width="1"
    transform="translate(-49.3041001370,-73.7018160652)"
    />
  
  <line
    x1="24.371859296482413"
    y1="101.25628140703517"
    x2="27.827179918336125"
    y2="115.57499384008077"
    stroke="hsla(0,50%,50%,0.6)"
    stroke-width="1"
    transform="translate(-49.3041001370,-73.7018160652)"
    />
  
  <line
    x1="24.371859296482413"
    y1="101.25628140703517"
    x2="24.28755963154974"
    y2="118.20051405850236"
    stroke="hsla(0,50%,50%,0.6)"
    stroke-width="1"
    transform="translate(-49.3041001370,-73.7018160652)"
    />
  
  <line
    x1="32.429383654959736"
    y1="69.2655163798133"
    x2="32.22666166309794"
    y2="99.7748394075186"
    stroke="hsla(0,50%,50%,0.6)"
    stroke-width="1"
    transform="translate(-49.3041001370,-73.7018160652)"
    />
  
  <line
    x1="66.22296173044926"
    y1="66.88851913477538"
    x2="66.0399451650507"
    y2="121.9765053197384"
    stroke="hsla(0,50%,50%,0.6)"
    stroke-width="1"
    transform="translate(-49.3041001370,-73.7018160652)"
    />
  
  <line
    x1="36.94720618426721"
    y1="67.40821793617866"
    x2="34.59951542972441"
    y2="113.38425875057729"
    stroke="hsla(0,50%,50%,0.6)"
    stroke-width="1"
    transform="translate(-49.3041001370,-73.7018160652)"
    />
  
  <line
    x1="44.253186857791825"
    y1="22.321505643816614"
    x2="24.371859296482413"
    y2="101.25628140703517"
    stroke="hsla(0,50%,50%,0.6)"
    stroke-width="1"
    transform="translate(-49.3041001370,-73.7018160652)"
    />
  
  <line
    x1="49.62593516209476"
    y1="100"
    x2="66.0399451650507"
    y2="121.9765053197384"
    stroke="hsla(0,50%,50%,0.6)"
    stroke-width="1"
    transform="translate(-49.3041001370,-73.7018160652)"
    />
  
  <line
    x1="64.9387671647925"
    y1="7.848901631957873"
    x2="32.429383654959736"
    y2="69.2655163798133"
    stroke="hsla(0,50%,50%,0.6)"
    stroke-width="1"
    transform="translate(-49.3041001370,-73.7018160652)"
    />
  
  <line
    x1="64.7183633187645"
    y1="7.732236244473026"
    x2="44.253186857791825"
    y2="22.321505643816614"
    stroke="hsla(0,50%,50%,0.6)"
    stroke-width="1"
    transform="translate(-49.3041001370,-73.7018160652)"
    />
  
  <line
    x1="66.22296173044926"
    y1="66.88851913477538"
    x2="49.62593516209476"
    y2="100"
    stroke="hsla(0,50%,50%,0.6)"
    stroke-width="1"
    transform="translate(-49.3041001370,-73.7018160652)"
    />
  
  <line
    x1="24.28755963154974"
    y1="118.20051405850236"
    x2="52.6397486621179"
    y2="139.67139588597968"
    stroke="hsla(0,50%,50%,0.6)"
    stroke-width="1"
    transform="translate(-49.3041001370,-73.7018160652)"
    />
  
  <line
    x1="36.94720618426721"
    y1="67.40821793617866"
    x2="74.3206406425716"
    y2="69.31663077445407"
    stroke="hsla(0,50%,50%,0.6)"
    stroke-width="1"
    transform="translate(-49.3041001370,-73.7018160652)"
    />
  
  <line
    x1="74.3206406425716"
    y1="69.31663077445407"
    x2="34.59951542972441"
    y2="113.38425875057729"
    stroke="hsla(0,50%,50%,0.6)"
    stroke-width="1"
    transform="translate(-49.3041001370,-73.7018160652)"
    />
  
  <line
    x1="66.0399451650507"
    y1="121.9765053197384"
    x2="52.6397486621179"
    y2="139.67139588597968"
    stroke="hsla(0,50%,50%,0.6)"
    stroke-width="1"
    transform="translate(-49.3041001370,-73.7018160652)"
    />
  
  <line
    x1="27.827179918336125"
    y1="115.57499384008077"
    x2="24.28755963154974"
    y2="118.20051405850236"
    stroke="hsla(0,50%,50%,0.6)"
    stroke-width="1"
    transform="translate(-49.3041001370,-73.7018160652)"
    />
  
  <line
    x1="32.22666166309794"
    y1="99.7748394075186"
    x2="66.11295681063123"
    y2="100"
    stroke="hsla(0,50%,50%,0.6)"
    stroke-width="1"
    transform="translate(-49.3041001370,-73.7018160652)"
    />
  
  <line
    x1="49.62593516209476"
    y1="100"
    x2="66.11295681063123"
    y2="100"
    stroke="hsla(0,50%,50%,0.6)"
    stroke-width="1"
    transform="translate(-49.3041001370,-73.7018160652)"
    />
  
  <line
    x1="24.303534255837683"
    y1="114.98961457662551"
    x2="27.827179918336125"
    y2="115.57499384008077"
    stroke="hsla(0,50%,50%,0.6)"
    stroke-width="1"
    transform="translate(-49.3041001370,-73.7018160652)"
    />
  
  <line
    x1="34.59951542972441"
    y1="113.38425875057729"
    x2="24.303534255837683"
    y2="114.98961457662551"
    stroke="hsla(0,50%,50%,0.6)"
    stroke-width="1"
    transform="translate(-49.3041001370,-73.7018160652)"
    />
  
</svg>
