<?xml version="1.0"?>
<!DOCTYPE svg PUBLIC "-//W3C//DTD SVG 1.1//EN"
  "http://www.w3.org/Graphics/SVG/1.1/DTD/svg11.dtd">
<svg
  width="240"
  height="240"
  viewBox="-500 -500 1000 1000" xmlns="http://www.w3.org/2000/svg" version="1.1">
  <rect
    x="0"
    y="0"
    width="100"
    height="100"
    fill="hsla(206,100%,53%,0.3)"
    stroke="hsl(206,100%,53%)"
    stroke-width="3"
    transform="" />
  
  <path
    d="M 
      -24.4519550246
      81.1745175839
      L
    
      37.1194971543
      115.0816411180
      L
    
      37.0778933538
      131.7647651256
      L
    
      34.8177883628
      131.7984273333
      L
    
      22.1890745176
      143.1862535868
      L
    
      -24.4739477870
      140.9614485227
      L
    
      -34.3868852491
      125.2850876052
      L
    
      -30.2541869006
      106.9361233188
      L
    
      -41.0892260356
      103.3504706645
      L
    
      -40.9025087166
      103.6959746527
      L
    
      -41.3401956883
      103.9325095140
      L
    
      -43.1497527574
      102.6685780551
      L
    
      -40.3451126987
      97.0732513707
      z
    "
    fill="hsla(0,0%,50%,0.3)"
    stroke="hsla(0,0%,50%,1)"
    stroke-width="1"
    transform="translate(3.0151278015,-112.1803855853)"
    />
  
  
  <line
    x1="-40.34511269871812"
    y1="97.07325137074278"
    x2="-41.34019568832459"
    y2="103.9325095140163"
    stroke="hsla(0,50%,50%,0.6)"
    stroke-width="1"
    transform="translate(3.0151278015,-112.1803855853)"
    />
  
  <line
    x1="-24.4519550246217"
    y1="81.17451758391819"
    x2="-34.38688524913209"
    y2="125.28508760528285"
    stroke="hsla(0,50%,50%,0.6)"
    stroke-width="1"
    transform="translate(3.0151278015,-112.1803855853)"
    />
  
  <line
    x1="27.011464953841053"
    y1="120.58256584086172"
    x2="28.890813219521473"
    y2="131.88670423597264"
    stroke="hsla(0,50%,50%,0.6)"
    stroke-width="1"
    transform="translate(3.0151278015,-112.1803855853)"
    />
  
  <line
    x1="37.119497154319134"
    y1="115.08164111802688"
    x2="37.07789335380125"
    y2="131.764765125699"
    stroke="hsla(0,50%,50%,0.6)"
    stroke-width="1"
    transform="translate(3.0151278015,-112.1803855853)"
    />
  
  <line
    x1="24.150873912093786"
    y1="107.93987825910493"
    x2="22.18907451764341"
    y2="143.18625358683553"
    stroke="hsla(0,50%,50%,0.6)"
    stroke-width="1"
    transform="translate(3.0151278015,-112.1803855853)"
    />
  
  <line
    x1="-40.34511269871812"
    y1="97.07325137074278"
    x2="-43.14975275746558"
    y2="102.6685780551096"
    stroke="hsla(0,50%,50%,0.6)"
    stroke-width="1"
    transform="translate(3.0151278015,-112.1803855853)"
    />
  
  <line
    x1="-14.287864229785606"
    y1="127.8137936213795"
    x2="-12.546958693616661"
    y2="141.5301049111434"
    stroke="hsla(0,50%,50%,0.6)"
    stroke-width="1"
    transform="translate(3.0151278015,-112.1803855853)"
    />
  
  <line
    x1="-10.119170742999268"
    y1="130.75085352510646"
    x2="-12.546958693616661"
    y2="141.5301049111434"
    stroke="hsla(0,50%,50%,0.6)"
    stroke-width="1"
    transform="translate(3.0151278015,-112.1803855853)"
    />
  
  <line
    x1="36.898236952108824"
    y1="115.20205384449807"
    x2="37.11814485581909"
    y2="115.62391281654513"
    stroke="hsla(0,50%,50%,0.6)"
    stroke-width="1"
    transform="translate(3.0151278015,-112.1803855853)"
    />
  
  <line
    x1="36.898236952108824"
    y1="115.20205384449807"
    x2="37.11823031572972"
    y2="115.5896433923836"
    stroke="hsla(0,50%,50%,0.6)"
    stroke-width="1"
    transform="translate(3.0151278015,-112.1803855853)"
    />
  
  <line
    x1="19.104987345452408"
    y1="111.53947445766099"
    x2="28.689550755347245"
    y2="131.59797862398145"
    stroke="hsla(0,50%,50%,0.6)"
    stroke-width="1"
    transform="translate(3.0151278015,-112.1803855853)"
    />
  
  <line
    x1="22.2875034847456"
    y1="141.4178442747424"
    x2="22.812012544643395"
    y2="142.62452496544722"
    stroke="hsla(0,50%,50%,0.6)"
    stroke-width="1"
    transform="translate(3.0151278015,-112.1803855853)"
    />
  
  <line
    x1="0.2533026794862504"
    y1="94.77959258654563"
    x2="21.74458990109063"
    y2="143.16506139702526"
    stroke="hsla(0,50%,50%,0.6)"
    stroke-width="1"
    transform="translate(3.0151278015,-112.1803855853)"
    />
  
  <line
    x1="-24.4519550246217"
    y1="81.17451758391819"
    x2="-40.34511269871812"
    y2="97.07325137074278"
    stroke="hsla(0,50%,50%,0.6)"
    stroke-width="1"
    transform="translate(3.0151278015,-112.1803855853)"
    />
  
  <line
    x1="27.93381050867627"
    y1="120.08061319914478"
    x2="27.189111679758398"
    y2="121.6510975291494"
    stroke="hsla(0,50%,50%,0.6)"
    stroke-width="1"
    transform="translate(3.0151278015,-112.1803855853)"
    />
  
  <line
    x1="37.11814485581909"
    y1="115.62391281654513"
    x2="28.689550755347245"
    y2="131.59797862398145"
    stroke="hsla(0,50%,50%,0.6)"
    stroke-width="1"
    transform="translate(3.0151278015,-112.1803855853)"
    />
  
  <line
    x1="-42.3355589478831"
    y1="101.0442411514152"
    x2="-40.90250871666078"
    y2="103.69597465271175"
    stroke="hsla(0,50%,50%,0.6)"
    stroke-width="1"
    transform="translate(3.0151278015,-112.1803855853)"
    />
  
  <line
    x1="-14.287864229785606"
    y1="127.8137936213795"
    x2="-24.47394778709828"
    y2="140.9614485227749"
    stroke="hsla(0,50%,50%,0.6)"
    stroke-width="1"
    transform="translate(3.0151278015,-112.1803855853)"
    />
  
  <line
    x1="22.233182169007314"
    y1="142.29825571012745"
    x2="21.74458990109063"
    y2="143.16506139702526"
    stroke="hsla(0,50%,50%,0.6)"
    stroke-width="1"
    transform="translate(3.0151278015,-112.1803855853)"
    />
  
  <line
    x1="37.11823031572972"
    y1="115.5896433923836"
    x2="22.2875034847456"
    y2="141.4178442747424"
    stroke="hsla(0,50%,50%,0.6)"
    stroke-width="1"
    transform="translate(3.0151278015,-112.1803855853)"
    />
  
  <line
    x1="27.189111679758398"
    y1="121.6510975291494"
    x2="35.794229807578"
    y2="130.48508410899845"
    stroke="hsla(0,50%,50%,0.6)"
    stroke-width="1"
    transform="translate(3.0151278015,-112.1803855853)"
    />
  
  <line
    x1="19.104987345452408"
    y1="111.53947445766099"
    x2="37.08421816356528"
    y2="129.2285164103217"
    stroke="hsla(0,50%,50%,0.6)"
    stroke-width="1"
    transform="translate(3.0151278015,-112.1803855853)"
    />
  
  <line
    x1="-34.38688524913209"
    y1="125.28508760528285"
    x2="-24.47394778709828"
    y2="140.9614485227749"
    stroke="hsla(0,50%,50%,0.6)"
    stroke-width="1"
    transform="translate(3.0151278015,-112.1803855853)"
    />
  
  <line
    x1="27.011464953841053"
    y1="120.58256584086172"
    x2="37.082903039747315"
    y2="129.75588106132642"
    stroke="hsla(0,50%,50%,0.6)"
    stroke-width="1"
    transform="translate(3.0151278015,-112.1803855853)"
    />
  
  <line
    x1="-40.90250871666078"
    y1="103.69597465271175"
    x2="-41.34019568832459"
    y2="103.9325095140163"
    stroke="hsla(0,50%,50%,0.6)"
    stroke-width="1"
    transform="translate(3.0151278015,-112.1803855853)"
    />
  
  <line
    x1="-24.4519550246217"
    y1="81.17451758391819"
    x2="37.119497154319134"
    y2="115.08164111802688"
    stroke="hsla(0,50%,50%,0.6)"
    stroke-width="1"
    transform="translate(3.0151278015,-112.1803855853)"
    />
  
  <line
    x1="24.150873912093786"
    y1="107.93987825910493"
    x2="19.104987345452408"
    y2="111.53947445766099"
    stroke="hsla(0,50%,50%,0.6)"
    stroke-width="1"
    transform="translate(3.0151278015,-112.1803855853)"
    />
  
  <line
    x1="37.08421816356528"
    y1="129.2285164103217"
    x2="35.794229807578"
    y2="130.48508410899845"
    stroke="hsla(0,50%,50%,0.6)"
    stroke-width="1"
    transform="translate(3.0151278015,-112.1803855853)"
    />
  
  <line
    x1="-43.14975275746558"
    y1="102.6685780551096"
    x2="-41.34019568832459"
    y2="103.9325095140163"
    stroke="hsla(0,50%,50%,0.6)"
    stroke-width="1"
    transform="translate(3.0151278015,-112.1803855853)"
    />
  
  <line
    x1="37.082903039747315"
    y1="129.75588106132642"
    x2="22.18907451764341"
    y2="143.18625358683553"
    stroke="hsla(0,50%,50%,0.6)"
    stroke-width="1"
    transform="translate(3.0151278015,-112.1803855853)"
    />
  
  <line
    x1="0.2533026794862504"
    y1="94.77959258654563"
    x2="-42.3355589478831"
    y2="101.0442411514152"
    stroke="hsla(0,50%,50%,0.6)"
    stroke-width="1"
    transform="translate(3.0151278015,-112.1803855853)"
    />
  
  <line
    x1="22.233182169007314"
    y1="142.29825571012745"
    x2="22.812012544643395"
    y2="142.62452496544722"
    stroke="hsla(0,50%,50%,0.6)"
    stroke-width="1"
    transform="translate(3.0151278015,-112.1803855853)"
    />
  
  <line
    x1="37.119497154319134"
    y1="115.08164111802688"
    x2="27.011464953841053"
    y2="120.58256584086172"
    stroke="hsla(0,50%,50%,0.6)"
    stroke-width="1"
    transform="translate(3.0151278015,-112.1803855853)"
    />
  
  <line
    x1="-43.14975275746558"
    y1="102.6685780551096"
    x2="37.084238129525104"
    y2="129.22051006043202"
    stroke="hsla(0,50%,50%,0.6)"
    stroke-width="1"
    transform="translate(3.0151278015,-112.1803855853)"
    />
  
  <line
    x1="27.93381050867627"
    y1="120.08061319914478"
    x2="37.104012420609145"
    y2="121.29101933573382"
    stroke="hsla(0,50%,50%,0.6)"
    stroke-width="1"
    transform="translate(3.0151278015,-112.1803855853)"
    />
  
  <line
    x1="37.104012420609145"
    y1="121.29101933573382"
    x2="-14.287864229785606"
    y2="127.8137936213795"
    stroke="hsla(0,50%,50%,0.6)"
    stroke-width="1"
    transform="translate(3.0151278015,-112.1803855853)"
    />
  
  <line
    x1="-34.38688524913209"
    y1="125.28508760528285"
    x2="-10.119170742999268"
    y2="130.75085352510646"
    stroke="hsla(0,50%,50%,0.6)"
    stroke-width="1"
    transform="translate(3.0151278015,-112.1803855853)"
    />
  
  <line
    x1="37.084238129525104"
    y1="129.22051006043202"
    x2="28.890813219521473"
    y2="131.88670423597264"
    stroke="hsla(0,50%,50%,0.6)"
    stroke-width="1"
    transform="translate(3.0151278015,-112.1803855853)"
    />
  
  <line
    x1="28.689550755347245"
    y1="131.59797862398145"
    x2="37.07789335380125"
    y2="131.764765125699"
    stroke="hsla(0,50%,50%,0.6)"
    stroke-width="1"
    transform="translate(3.0151278015,-112.1803855853)"
    />
  
  <line
    x1="37.07789335380125"
    y1="131.764765125699"
    x2="28.890813219521473"
    y2="131.88670423597264"
    stroke="hsla(0,50%,50%,0.6)"
    stroke-width="1"
    transform="translate(3.0151278015,-112.1803855853)"
    />
  
  <line
    x1="-24.47394778709828"
    y1="140.9614485227749"
    x2="22.18907451764341"
    y2="143.18625358683553"
    stroke="hsla(0,50%,50%,0.6)"
    stroke-width="1"
    transform="translate(3.0151278015,-112.1803855853)"
    />
  
</svg>
