<?xml version="1.0"?>
<!DOCTYPE svg PUBLIC "-//W3C//DTD SVG 1.1//EN"
  "http://www.w3.org/Graphics/SVG/1.1/DTD/svg11.dtd">
<svg
  width="240"
  height="240"
  viewBox="-50 -50 200 200" xmlns="http://www.w3.org/2000/svg" version="1.1">
  <rect
    x="0"
    y="0"
    width="100"
    height="100"
    fill="hsla(206,100%,53%,0.3)"
    stroke="hsl(206,100%,53%)"
    stroke-width="3"
    transform="" />
  
  <path
    d="M 
      50.4953100274
      74.1292223245
      L
    
      75.7107898642
      93.0144296959
      L
    
      97.3376032678
      93.0859211258
      L
    
      97.2844275329
      109.1720687242
      L
    
      63.7873126959
      125.8654925222
      L
    
      26.2475637053
      119.2327732373
      L
    
      5.2692524062
      103.7100928715
      L
    
      3.8251297973
      105.6650872308
      L
    
      -0.2559861175
      102.6504331301
      L
    
      -0.2484472049
      99.6273291925
      z
    "
    fill="hsla(0,0%,50%,0.3)"
    stroke="hsla(0,0%,50%,1)"
    stroke-width="1"
    transform="translate(-3.8229183865,-102.4019381831) scale(1,-1) translate(50,-110)"
    />
  
  
  <line
    x1="26.191190516969357"
    y1="119.12223721631442"
    x2="26.191904299347694"
    y2="119.19158864638791"
    stroke="hsla(0,50%,50%,0.6)"
    stroke-width="1"
    transform="translate(-3.8229183865,-102.4019381831) scale(1,-1) translate(50,-110)"
    />
  
  <line
    x1="50.495310027432026"
    y1="74.1292223245242"
    x2="50.579461559557174"
    y2="99.58583276328129"
    stroke="hsla(0,50%,50%,0.6)"
    stroke-width="1"
    transform="translate(-3.8229183865,-102.4019381831) scale(1,-1) translate(50,-110)"
    />
  
  <line
    x1="0"
    y1="99.50248756218906"
    x2="0"
    y2="100"
    stroke="hsla(0,50%,50%,0.6)"
    stroke-width="1"
    transform="translate(-3.8229183865,-102.4019381831) scale(1,-1) translate(50,-110)"
    />
  
  <line
    x1="-0.16583782047929396"
    y1="99.58581900432044"
    x2="-0.17083759405530044"
    y2="102.58818930178182"
    stroke="hsla(0,50%,50%,0.6)"
    stroke-width="1"
    transform="translate(-3.8229183865,-102.4019381831) scale(1,-1) translate(50,-110)"
    />
  
  <line
    x1="-0.2484472049689441"
    y1="99.62732919254658"
    x2="-0.2559861175314892"
    y2="102.65043313012718"
    stroke="hsla(0,50%,50%,0.6)"
    stroke-width="1"
    transform="translate(-3.8229183865,-102.4019381831) scale(1,-1) translate(50,-110)"
    />
  
  <line
    x1="26.61291385057244"
    y1="88.81909787203196"
    x2="26.61291385057244"
    y2="119.2973252127306"
    stroke="hsla(0,50%,50%,0.6)"
    stroke-width="1"
    transform="translate(-3.8229183865,-102.4019381831) scale(1,-1) translate(50,-110)"
    />
  
  <line
    x1="24.441687344913152"
    y1="87.22084367245658"
    x2="24.378109452736318"
    y2="100"
    stroke="hsla(0,50%,50%,0.6)"
    stroke-width="1"
    transform="translate(-3.8229183865,-102.4019381831) scale(1,-1) translate(50,-110)"
    />
  
  <line
    x1="97.33760326782377"
    y1="93.08592112589575"
    x2="97.28442753299255"
    y2="109.17206872424521"
    stroke="hsla(0,50%,50%,0.6)"
    stroke-width="1"
    transform="translate(-3.8229183865,-102.4019381831) scale(1,-1) translate(50,-110)"
    />
  
  <line
    x1="51.22002716736318"
    y1="106.9325568296666"
    x2="48.53389553941233"
    y2="123.17043896285925"
    stroke="hsla(0,50%,50%,0.6)"
    stroke-width="1"
    transform="translate(-3.8229183865,-102.4019381831) scale(1,-1) translate(50,-110)"
    />
  
  <line
    x1="49.73390200720158"
    y1="116.78709732730191"
    x2="48.53389553941233"
    y2="123.17043896285925"
    stroke="hsla(0,50%,50%,0.6)"
    stroke-width="1"
    transform="translate(-3.8229183865,-102.4019381831) scale(1,-1) translate(50,-110)"
    />
  
  <line
    x1="26.191190516969357"
    y1="119.12223721631442"
    x2="26.24756370538944"
    y2="119.23277323732157"
    stroke="hsla(0,50%,50%,0.6)"
    stroke-width="1"
    transform="translate(-3.8229183865,-102.4019381831) scale(1,-1) translate(50,-110)"
    />
  
  <line
    x1="50.495310027432026"
    y1="74.1292223245242"
    x2="97.28442753299255"
    y2="109.17206872424521"
    stroke="hsla(0,50%,50%,0.6)"
    stroke-width="1"
    transform="translate(-3.8229183865,-102.4019381831) scale(1,-1) translate(50,-110)"
    />
  
  <line
    x1="42.219457459242655"
    y1="114.47080014705014"
    x2="47.779253242944044"
    y2="121.25757776834081"
    stroke="hsla(0,50%,50%,0.6)"
    stroke-width="1"
    transform="translate(-3.8229183865,-102.4019381831) scale(1,-1) translate(50,-110)"
    />
  
  <line
    x1="57.42998258093813"
    y1="119.15938307885197"
    x2="63.787312695960445"
    y2="125.86549252223301"
    stroke="hsla(0,50%,50%,0.6)"
    stroke-width="1"
    transform="translate(-3.8229183865,-102.4019381831) scale(1,-1) translate(50,-110)"
    />
  
  <line
    x1="49.73390200720158"
    y1="116.78709732730191"
    x2="47.779253242944044"
    y2="121.25757776834081"
    stroke="hsla(0,50%,50%,0.6)"
    stroke-width="1"
    transform="translate(-3.8229183865,-102.4019381831) scale(1,-1) translate(50,-110)"
    />
  
  <line
    x1="13.322308904663567"
    y1="92.80819303795512"
    x2="3.825129797340159"
    y2="105.6650872308572"
    stroke="hsla(0,50%,50%,0.6)"
    stroke-width="1"
    transform="translate(-3.8229183865,-102.4019381831) scale(1,-1) translate(50,-110)"
    />
  
  <line
    x1="24.441687344913152"
    y1="87.22084367245658"
    x2="51.22002716736318"
    y2="106.9325568296666"
    stroke="hsla(0,50%,50%,0.6)"
    stroke-width="1"
    transform="translate(-3.8229183865,-102.4019381831) scale(1,-1) translate(50,-110)"
    />
  
  <line
    x1="0"
    y1="99.50248756218906"
    x2="26.61291385057244"
    y2="119.2973252127306"
    stroke="hsla(0,50%,50%,0.6)"
    stroke-width="1"
    transform="translate(-3.8229183865,-102.4019381831) scale(1,-1) translate(50,-110)"
    />
  
  <line
    x1="-0.16583782047929396"
    y1="99.58581900432044"
    x2="26.191190516969357"
    y2="119.12223721631442"
    stroke="hsla(0,50%,50%,0.6)"
    stroke-width="1"
    transform="translate(-3.8229183865,-102.4019381831) scale(1,-1) translate(50,-110)"
    />
  
  <line
    x1="-0.2484472049689441"
    y1="99.62732919254658"
    x2="26.24756370538944"
    y2="119.23277323732157"
    stroke="hsla(0,50%,50%,0.6)"
    stroke-width="1"
    transform="translate(-3.8229183865,-102.4019381831) scale(1,-1) translate(50,-110)"
    />
  
  <line
    x1="-0.2559861175314892"
    y1="102.65043313012718"
    x2="3.825129797340159"
    y2="105.6650872308572"
    stroke="hsla(0,50%,50%,0.6)"
    stroke-width="1"
    transform="translate(-3.8229183865,-102.4019381831) scale(1,-1) translate(50,-110)"
    />
  
  <line
    x1="-0.255675157563384"
    y1="102.52573818291698"
    x2="-0.17083759405530044"
    y2="102.58818930178182"
    stroke="hsla(0,50%,50%,0.6)"
    stroke-width="1"
    transform="translate(-3.8229183865,-102.4019381831) scale(1,-1) translate(50,-110)"
    />
  
  <line
    x1="-0.17083759405530044"
    y1="102.58818930178182"
    x2="-0.2559861175314892"
    y2="102.65043313012718"
    stroke="hsla(0,50%,50%,0.6)"
    stroke-width="1"
    transform="translate(-3.8229183865,-102.4019381831) scale(1,-1) translate(50,-110)"
    />
  
  <line
    x1="12.554425466532399"
    y1="93.194044914827"
    x2="-0.255675157563384"
    y2="102.52573818291698"
    stroke="hsla(0,50%,50%,0.6)"
    stroke-width="1"
    transform="translate(-3.8229183865,-102.4019381831) scale(1,-1) translate(50,-110)"
    />
  
  <line
    x1="50.495310027432026"
    y1="74.1292223245242"
    x2="-0.2484472049689441"
    y2="99.62732919254658"
    stroke="hsla(0,50%,50%,0.6)"
    stroke-width="1"
    transform="translate(-3.8229183865,-102.4019381831) scale(1,-1) translate(50,-110)"
    />
  
  <line
    x1="26.61291385057244"
    y1="88.81909787203196"
    x2="12.554425466532399"
    y2="93.194044914827"
    stroke="hsla(0,50%,50%,0.6)"
    stroke-width="1"
    transform="translate(-3.8229183865,-102.4019381831) scale(1,-1) translate(50,-110)"
    />
  
  <line
    x1="42.219457459242655"
    y1="114.47080014705014"
    x2="57.42998258093813"
    y2="119.15938307885197"
    stroke="hsla(0,50%,50%,0.6)"
    stroke-width="1"
    transform="translate(-3.8229183865,-102.4019381831) scale(1,-1) translate(50,-110)"
    />
  
  <line
    x1="13.322308904663567"
    y1="92.80819303795512"
    x2="97.33760326782377"
    y2="93.08592112589575"
    stroke="hsla(0,50%,50%,0.6)"
    stroke-width="1"
    transform="translate(-3.8229183865,-102.4019381831) scale(1,-1) translate(50,-110)"
    />
  
  <line
    x1="-0.24876546235180208"
    y1="99.75495040307264"
    x2="24.378109452736318"
    y2="100"
    stroke="hsla(0,50%,50%,0.6)"
    stroke-width="1"
    transform="translate(-3.8229183865,-102.4019381831) scale(1,-1) translate(50,-110)"
    />
  
  <line
    x1="-0.2487627303132102"
    y1="99.75385485559728"
    x2="-0.16611878783506195"
    y2="99.75454025353106"
    stroke="hsla(0,50%,50%,0.6)"
    stroke-width="1"
    transform="translate(-3.8229183865,-102.4019381831) scale(1,-1) translate(50,-110)"
    />
  
  <line
    x1="-0.16611878783506195"
    y1="99.75454025353106"
    x2="-0.24876546235180208"
    y2="99.75495040307264"
    stroke="hsla(0,50%,50%,0.6)"
    stroke-width="1"
    transform="translate(-3.8229183865,-102.4019381831) scale(1,-1) translate(50,-110)"
    />
  
  <line
    x1="50.579461559557174"
    y1="99.58583276328129"
    x2="-0.2487627303132102"
    y2="99.75385485559728"
    stroke="hsla(0,50%,50%,0.6)"
    stroke-width="1"
    transform="translate(-3.8229183865,-102.4019381831) scale(1,-1) translate(50,-110)"
    />
  
  <line
    x1="0"
    y1="100"
    x2="24.378109452736318"
    y2="100"
    stroke="hsla(0,50%,50%,0.6)"
    stroke-width="1"
    transform="translate(-3.8229183865,-102.4019381831) scale(1,-1) translate(50,-110)"
    />
  
  <line
    x1="51.22002716736318"
    y1="106.9325568296666"
    x2="26.61291385057244"
    y2="119.2973252127306"
    stroke="hsla(0,50%,50%,0.6)"
    stroke-width="1"
    transform="translate(-3.8229183865,-102.4019381831) scale(1,-1) translate(50,-110)"
    />
  
  <line
    x1="26.24756370538944"
    y1="119.23277323732157"
    x2="63.787312695960445"
    y2="125.86549252223301"
    stroke="hsla(0,50%,50%,0.6)"
    stroke-width="1"
    transform="translate(-3.8229183865,-102.4019381831) scale(1,-1) translate(50,-110)"
    />
  
  <line
    x1="42.219457459242655"
    y1="114.47080014705014"
    x2="26.191904299347694"
    y2="119.19158864638791"
    stroke="hsla(0,50%,50%,0.6)"
    stroke-width="1"
    transform="translate(-3.8229183865,-102.4019381831) scale(1,-1) translate(50,-110)"
    />
  
  <line
    x1="57.42998258093813"
    y1="119.15938307885197"
    x2="47.779253242944044"
    y2="121.25757776834081"
    stroke="hsla(0,50%,50%,0.6)"
    stroke-width="1"
    transform="translate(-3.8229183865,-102.4019381831) scale(1,-1) translate(50,-110)"
    />
  
  <line
    x1="97.28442753299255"
    y1="109.17206872424521"
    x2="63.787312695960445"
    y2="125.86549252223301"
    stroke="hsla(0,50%,50%,0.6)"
    stroke-width="1"
    transform="translate(-3.8229183865,-102.4019381831) scale(1,-1) translate(50,-110)"
    />
  
</svg>
