<?xml version="1.0"?>
<!DOCTYPE svg PUBLIC "-//W3C//DTD SVG 1.1//EN"
  "http://www.w3.org/Graphics/SVG/1.1/DTD/svg11.dtd">
<svg
  width="240"
  height="240"
  viewBox="-50 -50 200 200" xmlns="http://www.w3.org/2000/svg" version="1.1">
  <rect
    x="0"
    y="0"
    width="100"
    height="100"
    fill="hsla(206,100%,53%,0.3)"
    stroke="hsl(206,100%,53%)"
    stroke-width="3"
    transform="" />
  
  <path
    d="M 
      -129.3362255965
      26.1468856523
      L
    
      -114.4078091106
      75.5680198326
      L
    
      -125.4020323353
      82.2338414725
      L
    
      -131.7977682285
      71.6850821604
      L
    
      -200
      54.8405548405
      L
    
      -200
      29.0924880590
      z
    "
    fill="hsla(0,0%,50%,0.3)"
    stroke="hsla(0,0%,50%,1)"
    stroke-width="1"
    transform="translate(181.9293491341,-45.5352238981) scale(1,-1) translate(50,-110)"
    />
  
  
  <line
    x1="-189.96588286334057"
    y1="32.597622559652926"
    x2="-200"
    y2="49.88412866971969"
    stroke="hsla(0,50%,50%,0.6)"
    stroke-width="1"
    transform="translate(181.9293491341,-45.5352238981) scale(1,-1) translate(50,-110)"
    />
  
  <line
    x1="-129.3362255965293"
    y1="26.146885652308647"
    x2="-151.3246720459219"
    y2="39.47852893204399"
    stroke="hsla(0,50%,50%,0.6)"
    stroke-width="1"
    transform="translate(181.9293491341,-45.5352238981) scale(1,-1) translate(50,-110)"
    />
  
  <line
    x1="-196.44251626898048"
    y1="29.240780911062906"
    x2="-197.48373101952276"
    y2="54.219088937093275"
    stroke="hsla(0,50%,50%,0.6)"
    stroke-width="1"
    transform="translate(181.9293491341,-45.5352238981) scale(1,-1) translate(50,-110)"
    />
  
  <line
    x1="-200"
    y1="29.09248805905341"
    x2="-200"
    y2="54.84055484055484"
    stroke="hsla(0,50%,50%,0.6)"
    stroke-width="1"
    transform="translate(181.9293491341,-45.5352238981) scale(1,-1) translate(50,-110)"
    />
  
  <line
    x1="-114.40780911062907"
    y1="75.56801983266192"
    x2="-125.40203233532536"
    y2="82.23384147252959"
    stroke="hsla(0,50%,50%,0.6)"
    stroke-width="1"
    transform="translate(181.9293491341,-45.5352238981) scale(1,-1) translate(50,-110)"
    />
  
  <line
    x1="-197.48373101952276"
    y1="54.219088937093275"
    x2="-200"
    y2="54.84055484055484"
    stroke="hsla(0,50%,50%,0.6)"
    stroke-width="1"
    transform="translate(181.9293491341,-45.5352238981) scale(1,-1) translate(50,-110)"
    />
  
  <line
    x1="-129.3362255965293"
    y1="26.146885652308647"
    x2="-200"
    y2="29.09248805905341"
    stroke="hsla(0,50%,50%,0.6)"
    stroke-width="1"
    transform="translate(181.9293491341,-45.5352238981) scale(1,-1) translate(50,-110)"
    />
  
  <line
    x1="-200"
    y1="29.09248805905341"
    x2="-196.44251626898048"
    y2="29.240780911062906"
    stroke="hsla(0,50%,50%,0.6)"
    stroke-width="1"
    transform="translate(181.9293491341,-45.5352238981) scale(1,-1) translate(50,-110)"
    />
  
  <line
    x1="-129.3362255965293"
    y1="26.146885652308647"
    x2="-114.40780911062907"
    y2="75.56801983266192"
    stroke="hsla(0,50%,50%,0.6)"
    stroke-width="1"
    transform="translate(181.9293491341,-45.5352238981) scale(1,-1) translate(50,-110)"
    />
  
  <line
    x1="-114.40780911062907"
    y1="75.56801983266192"
    x2="-115.8351409978308"
    y2="75.62751781840718"
    stroke="hsla(0,50%,50%,0.6)"
    stroke-width="1"
    transform="translate(181.9293491341,-45.5352238981) scale(1,-1) translate(50,-110)"
    />
  
  <line
    x1="-151.3246720459219"
    y1="39.47852893204399"
    x2="-125.40203233532536"
    y2="82.23384147252959"
    stroke="hsla(0,50%,50%,0.6)"
    stroke-width="1"
    transform="translate(181.9293491341,-45.5352238981) scale(1,-1) translate(50,-110)"
    />
  
  <line
    x1="-200"
    y1="54.84055484055484"
    x2="-115.8351409978308"
    y2="75.62751781840718"
    stroke="hsla(0,50%,50%,0.6)"
    stroke-width="1"
    transform="translate(181.9293491341,-45.5352238981) scale(1,-1) translate(50,-110)"
    />
  
  <line
    x1="-200"
    y1="49.88412866971969"
    x2="-197.48373101952276"
    y2="54.219088937093275"
    stroke="hsla(0,50%,50%,0.6)"
    stroke-width="1"
    transform="translate(181.9293491341,-45.5352238981) scale(1,-1) translate(50,-110)"
    />
  
  <line
    x1="-189.96588286334057"
    y1="32.597622559652926"
    x2="-115.8351409978308"
    y2="75.62751781840718"
    stroke="hsla(0,50%,50%,0.6)"
    stroke-width="1"
    transform="translate(181.9293491341,-45.5352238981) scale(1,-1) translate(50,-110)"
    />
  
</svg>
