<?xml version="1.0"?>
<!DOCTYPE svg PUBLIC "-//W3C//DTD SVG 1.1//EN"
  "http://www.w3.org/Graphics/SVG/1.1/DTD/svg11.dtd">
<svg
  width="240"
  height="240"
  viewBox="-500 -500 1000 1000" xmlns="http://www.w3.org/2000/svg" version="1.1">
  <rect
    x="0"
    y="0"
    width="100"
    height="100"
    fill="hsla(206,100%,53%,0.3)"
    stroke="hsl(206,100%,53%)"
    stroke-width="3"
    transform="" />
  
  <path
    d="M 
      39.0291773092
      23.8007257332
      L
    
      46.5745348244
      32.0962897213
      L
    
      54.6666666666
      28.8333333333
      L
    
      64.9346373707
      40.1281011078
      L
    
      72.3736128236
      35.7615524631
      L
    
      80.0769230769
      37.7179487179
      L
    
      78.1503834879
      45.3036983495
      L
    
      69.6089691994
      50.8552877687
      L
    
      71.5
      59.5
      L
    
      67.3333333333
      62.7103825136
      L
    
      67.3333333333
      69.1857796580
      L
    
      68.7602805241
      71.4307882072
      L
    
      67.3333333333
      77.1528822055
      L
    
      67.3333333333
      82.6666666666
      L
    
      65.9583333333
      82.6666666666
      L
    
      55.0802684227
      68.7427435811
      L
    
      54.8406470639
      68.6956593460
      L
    
      54.7180187734
      68.2790640300
      L
    
      54.5752663270
      68.0963408985
      L
    
      40.6666666666
      69.6666666666
      L
    
      37.6466393056
      65.7837743453
      L
    
      29.2518514449
      71.9467676379
      L
    
      21.6561085972
      71.2217194570
      L
    
      22.95
      57.6666666666
      L
    
      33.2082204155
      48.3410117434
      L
    
      33.4215152138
      45.0806483983
      L
    
      33.4185022026
      45.0782462764
      L
    
      33.4227183795
      45.0622571505
      L
    
      33.6666666666
      41.3333333333
      L
    
      34.5978254900
      40.6058655025
      L
    
      37.6191910903
      29.1478560107
      L
    
      36.7992902866
      24.1678511071
      z
    "
    fill="hsla(0,0%,50%,0.3)"
    stroke="hsla(0,0%,50%,1)"
    stroke-width="1"
    transform="translate(-50.8665158371,-53.2336961999)"
    />
  
  
  <line
    x1="54.666666666666664"
    y1="28.833333333333332"
    x2="66.29301075268818"
    y2="57.666666666666664"
    stroke="hsla(0,50%,50%,0.6)"
    stroke-width="1"
    transform="translate(-50.8665158371,-53.2336961999)"
    />
  
  <line
    x1="54.666666666666664"
    y1="28.833333333333332"
    x2="68"
    y2="43.5"
    stroke="hsla(0,50%,50%,0.6)"
    stroke-width="1"
    transform="translate(-50.8665158371,-53.2336961999)"
    />
  
  <line
    x1="68"
    y1="43.5"
    x2="71.5"
    y2="59.5"
    stroke="hsla(0,50%,50%,0.6)"
    stroke-width="1"
    transform="translate(-50.8665158371,-53.2336961999)"
    />
  
  <line
    x1="49.92479597507825"
    y1="36.4324840826435"
    x2="61.333333333333336"
    y2="67.33333333333333"
    stroke="hsla(0,50%,50%,0.6)"
    stroke-width="1"
    transform="translate(-50.8665158371,-53.2336961999)"
    />
  
  <line
    x1="44.333333333333336"
    y1="33"
    x2="68.76028052415069"
    y2="71.43078820724872"
    stroke="hsla(0,50%,50%,0.6)"
    stroke-width="1"
    transform="translate(-50.8665158371,-53.2336961999)"
    />
  
  <line
    x1="44.333333333333336"
    y1="33"
    x2="54.84064706398629"
    y2="68.6956593460627"
    stroke="hsla(0,50%,50%,0.6)"
    stroke-width="1"
    transform="translate(-50.8665158371,-53.2336961999)"
    />
  
  <line
    x1="39.02917730925374"
    y1="23.800725733293014"
    x2="71.5"
    y2="59.5"
    stroke="hsla(0,50%,50%,0.6)"
    stroke-width="1"
    transform="translate(-50.8665158371,-53.2336961999)"
    />
  
  <line
    x1="36.799290286608375"
    y1="24.167851107144248"
    x2="44.0016394282494"
    y2="67.91428223781956"
    stroke="hsla(0,50%,50%,0.6)"
    stroke-width="1"
    transform="translate(-50.8665158371,-53.2336961999)"
    />
  
  <line
    x1="34.49660141905284"
    y1="47.22809460619757"
    x2="44.0016394282494"
    y2="67.91428223781956"
    stroke="hsla(0,50%,50%,0.6)"
    stroke-width="1"
    transform="translate(-50.8665158371,-53.2336961999)"
    />
  
  <line
    x1="39.80895934048681"
    y1="38.74619849603622"
    x2="40.666666666666664"
    y2="69.66666666666667"
    stroke="hsla(0,50%,50%,0.6)"
    stroke-width="1"
    transform="translate(-50.8665158371,-53.2336961999)"
    />
  
  <line
    x1="33.666666666666664"
    y1="41.333333333333336"
    x2="65.95833333333333"
    y2="82.66666666666667"
    stroke="hsla(0,50%,50%,0.6)"
    stroke-width="1"
    transform="translate(-50.8665158371,-53.2336961999)"
    />
  
  <line
    x1="67.33333333333333"
    y1="43.53582554517134"
    x2="67.33333333333333"
    y2="82.66666666666667"
    stroke="hsla(0,50%,50%,0.6)"
    stroke-width="1"
    transform="translate(-50.8665158371,-53.2336961999)"
    />
  
  <line
    x1="33.666666666666664"
    y1="41.333333333333336"
    x2="32.5"
    y2="59.166666666666664"
    stroke="hsla(0,50%,50%,0.6)"
    stroke-width="1"
    transform="translate(-50.8665158371,-53.2336961999)"
    />
  
  <line
    x1="22.95"
    y1="57.666666666666664"
    x2="21.65610859728507"
    y2="71.22171945701358"
    stroke="hsla(0,50%,50%,0.6)"
    stroke-width="1"
    transform="translate(-50.8665158371,-53.2336961999)"
    />
  
  <line
    x1="32.5"
    y1="59.166666666666664"
    x2="40.666666666666664"
    y2="69.66666666666667"
    stroke="hsla(0,50%,50%,0.6)"
    stroke-width="1"
    transform="translate(-50.8665158371,-53.2336961999)"
    />
  
  <line
    x1="34.49660141905284"
    y1="47.22809460619757"
    x2="29.251851444906062"
    y2="71.94676763792285"
    stroke="hsla(0,50%,50%,0.6)"
    stroke-width="1"
    transform="translate(-50.8665158371,-53.2336961999)"
    />
  
  <line
    x1="67.33333333333333"
    y1="43.53582554517134"
    x2="64.447711110427"
    y2="65.49583445113414"
    stroke="hsla(0,50%,50%,0.6)"
    stroke-width="1"
    transform="translate(-50.8665158371,-53.2336961999)"
    />
  
  <line
    x1="39.02917730925374"
    y1="23.800725733293014"
    x2="33.418502202643175"
    y2="45.078246276484165"
    stroke="hsla(0,50%,50%,0.6)"
    stroke-width="1"
    transform="translate(-50.8665158371,-53.2336961999)"
    />
  
  <line
    x1="33.418502202643175"
    y1="45.078246276484165"
    x2="61.333333333333336"
    y2="67.33333333333333"
    stroke="hsla(0,50%,50%,0.6)"
    stroke-width="1"
    transform="translate(-50.8665158371,-53.2336961999)"
    />
  
  <line
    x1="72.37361282367448"
    y1="35.761552463155425"
    x2="80.07692307692308"
    y2="37.717948717948715"
    stroke="hsla(0,50%,50%,0.6)"
    stroke-width="1"
    transform="translate(-50.8665158371,-53.2336961999)"
    />
  
  <line
    x1="68.76028052415069"
    y1="71.43078820724872"
    x2="65.95833333333333"
    y2="82.66666666666667"
    stroke="hsla(0,50%,50%,0.6)"
    stroke-width="1"
    transform="translate(-50.8665158371,-53.2336961999)"
    />
  
  <line
    x1="72.37361282367448"
    y1="35.761552463155425"
    x2="64.447711110427"
    y2="65.49583445113414"
    stroke="hsla(0,50%,50%,0.6)"
    stroke-width="1"
    transform="translate(-50.8665158371,-53.2336961999)"
    />
  
  <line
    x1="80.07692307692308"
    y1="37.717948717948715"
    x2="78.15038348793318"
    y2="45.30369834959643"
    stroke="hsla(0,50%,50%,0.6)"
    stroke-width="1"
    transform="translate(-50.8665158371,-53.2336961999)"
    />
  
  <line
    x1="39.02917730925374"
    y1="23.800725733293014"
    x2="36.799290286608375"
    y2="24.167851107144248"
    stroke="hsla(0,50%,50%,0.6)"
    stroke-width="1"
    transform="translate(-50.8665158371,-53.2336961999)"
    />
  
  <line
    x1="39.80895934048681"
    y1="38.74619849603622"
    x2="78.15038348793318"
    y2="45.30369834959643"
    stroke="hsla(0,50%,50%,0.6)"
    stroke-width="1"
    transform="translate(-50.8665158371,-53.2336961999)"
    />
  
  <line
    x1="33.666666666666664"
    y1="41.333333333333336"
    x2="67.33333333333333"
    y2="43.53582554517134"
    stroke="hsla(0,50%,50%,0.6)"
    stroke-width="1"
    transform="translate(-50.8665158371,-53.2336961999)"
    />
  
  <line
    x1="44.333333333333336"
    y1="33"
    x2="33.666666666666664"
    y2="41.333333333333336"
    stroke="hsla(0,50%,50%,0.6)"
    stroke-width="1"
    transform="translate(-50.8665158371,-53.2336961999)"
    />
  
  <line
    x1="54.666666666666664"
    y1="28.833333333333332"
    x2="22.95"
    y2="57.666666666666664"
    stroke="hsla(0,50%,50%,0.6)"
    stroke-width="1"
    transform="translate(-50.8665158371,-53.2336961999)"
    />
  
  <line
    x1="54.666666666666664"
    y1="28.833333333333332"
    x2="44.333333333333336"
    y2="33"
    stroke="hsla(0,50%,50%,0.6)"
    stroke-width="1"
    transform="translate(-50.8665158371,-53.2336961999)"
    />
  
  <line
    x1="49.92479597507825"
    y1="36.4324840826435"
    x2="39.80895934048681"
    y2="38.74619849603622"
    stroke="hsla(0,50%,50%,0.6)"
    stroke-width="1"
    transform="translate(-50.8665158371,-53.2336961999)"
    />
  
  <line
    x1="49.92479597507825"
    y1="36.4324840826435"
    x2="33.418502202643175"
    y2="45.078246276484165"
    stroke="hsla(0,50%,50%,0.6)"
    stroke-width="1"
    transform="translate(-50.8665158371,-53.2336961999)"
    />
  
  <line
    x1="68"
    y1="43.5"
    x2="34.49660141905284"
    y2="47.22809460619757"
    stroke="hsla(0,50%,50%,0.6)"
    stroke-width="1"
    transform="translate(-50.8665158371,-53.2336961999)"
    />
  
  <line
    x1="32.5"
    y1="59.166666666666664"
    x2="64.447711110427"
    y2="65.49583445113414"
    stroke="hsla(0,50%,50%,0.6)"
    stroke-width="1"
    transform="translate(-50.8665158371,-53.2336961999)"
    />
  
  <line
    x1="54.84064706398629"
    y1="68.6956593460627"
    x2="68.76028052415069"
    y2="71.43078820724872"
    stroke="hsla(0,50%,50%,0.6)"
    stroke-width="1"
    transform="translate(-50.8665158371,-53.2336961999)"
    />
  
  <line
    x1="22.95"
    y1="57.666666666666664"
    x2="66.29301075268818"
    y2="57.666666666666664"
    stroke="hsla(0,50%,50%,0.6)"
    stroke-width="1"
    transform="translate(-50.8665158371,-53.2336961999)"
    />
  
  <line
    x1="72.37361282367448"
    y1="35.761552463155425"
    x2="32.5"
    y2="59.166666666666664"
    stroke="hsla(0,50%,50%,0.6)"
    stroke-width="1"
    transform="translate(-50.8665158371,-53.2336961999)"
    />
  
  <line
    x1="68"
    y1="43.5"
    x2="29.251851444906062"
    y2="71.94676763792285"
    stroke="hsla(0,50%,50%,0.6)"
    stroke-width="1"
    transform="translate(-50.8665158371,-53.2336961999)"
    />
  
  <line
    x1="66.29301075268818"
    y1="57.666666666666664"
    x2="54.84064706398629"
    y2="68.6956593460627"
    stroke="hsla(0,50%,50%,0.6)"
    stroke-width="1"
    transform="translate(-50.8665158371,-53.2336961999)"
    />
  
  <line
    x1="78.15038348793318"
    y1="45.30369834959643"
    x2="40.666666666666664"
    y2="69.66666666666667"
    stroke="hsla(0,50%,50%,0.6)"
    stroke-width="1"
    transform="translate(-50.8665158371,-53.2336961999)"
    />
  
  <line
    x1="21.65610859728507"
    y1="71.22171945701358"
    x2="29.251851444906062"
    y2="71.94676763792285"
    stroke="hsla(0,50%,50%,0.6)"
    stroke-width="1"
    transform="translate(-50.8665158371,-53.2336961999)"
    />
  
  <line
    x1="71.5"
    y1="59.5"
    x2="61.333333333333336"
    y2="67.33333333333333"
    stroke="hsla(0,50%,50%,0.6)"
    stroke-width="1"
    transform="translate(-50.8665158371,-53.2336961999)"
    />
  
  <line
    x1="61.333333333333336"
    y1="67.33333333333333"
    x2="40.666666666666664"
    y2="69.66666666666667"
    stroke="hsla(0,50%,50%,0.6)"
    stroke-width="1"
    transform="translate(-50.8665158371,-53.2336961999)"
    />
  
  <line
    x1="71.5"
    y1="59.5"
    x2="44.0016394282494"
    y2="67.91428223781956"
    stroke="hsla(0,50%,50%,0.6)"
    stroke-width="1"
    transform="translate(-50.8665158371,-53.2336961999)"
    />
  
  <line
    x1="65.95833333333333"
    y1="82.66666666666667"
    x2="67.33333333333333"
    y2="82.66666666666667"
    stroke="hsla(0,50%,50%,0.6)"
    stroke-width="1"
    transform="translate(-50.8665158371,-53.2336961999)"
    />
  
</svg>
