<?xml version="1.0"?>
<!DOCTYPE svg PUBLIC "-//W3C//DTD SVG 1.1//EN"
  "http://www.w3.org/Graphics/SVG/1.1/DTD/svg11.dtd">
<svg
  width="240"
  height="240"
  viewBox="-50 -50 200 200" xmlns="http://www.w3.org/2000/svg" version="1.1">
  <rect
    x="0"
    y="0"
    width="100"
    height="100"
    fill="hsla(206,100%,53%,0.3)"
    stroke="hsl(206,100%,53%)"
    stroke-width="3"
    transform="" />
  
  <path
    d="M 
      467900
      217400
      L
    
      467927.6774969915
      217460.6498194945
      L
    
      467882.1901323706
      217481.4079422382
      L
    
      467854.5126353790
      217420.7581227436
      z
    "
    fill="hsla(0,0%,50%,0.3)"
    stroke="hsla(0,0%,50%,1)"
    stroke-width="1"
    transform="translate(-467876.2635379061,-217438.3122743682) scale(1,-1) translate(50,-110)"
    />
  
  
  <line
    x1="467900"
    y1="217400"
    x2="467927.6774969916"
    y2="217460.64981949457"
    stroke="hsla(0,50%,50%,0.6)"
    stroke-width="1"
    transform="translate(-467876.2635379061,-217438.3122743682) scale(1,-1) translate(50,-110)"
    />
  
  <line
    x1="467854.51263537904"
    y1="217420.7581227437"
    x2="467882.1901323706"
    y2="217481.40794223826"
    stroke="hsla(0,50%,50%,0.6)"
    stroke-width="1"
    transform="translate(-467876.2635379061,-217438.3122743682) scale(1,-1) translate(50,-110)"
    />
  
  <line
    x1="467900"
    y1="217400"
    x2="467854.51263537904"
    y2="217420.7581227437"
    stroke="hsla(0,50%,50%,0.6)"
    stroke-width="1"
    transform="translate(-467876.2635379061,-217438.3122743682) scale(1,-1) translate(50,-110)"
    />
  
  <line
    x1="467913.8387484958"
    y1="217430.3249097473"
    x2="467868.35138387483"
    y2="217451.08303249098"
    stroke="hsla(0,50%,50%,0.6)"
    stroke-width="1"
    transform="translate(-467876.2635379061,-217438.3122743682) scale(1,-1) translate(50,-110)"
    />
  
  <line
    x1="467927.6774969916"
    y1="217460.64981949457"
    x2="467882.1901323706"
    y2="217481.40794223826"
    stroke="hsla(0,50%,50%,0.6)"
    stroke-width="1"
    transform="translate(-467876.2635379061,-217438.3122743682) scale(1,-1) translate(50,-110)"
    />
  
</svg>
