<?xml version="1.0"?>
<!DOCTYPE svg PUBLIC "-//W3C//DTD SVG 1.1//EN"
  "http://www.w3.org/Graphics/SVG/1.1/DTD/svg11.dtd">
<svg
  width="240"
  height="240"
  viewBox="-50 -50 200 200" xmlns="http://www.w3.org/2000/svg" version="1.1">
  <rect
    x="0"
    y="0"
    width="100"
    height="100"
    fill="hsla(206,100%,53%,0.3)"
    stroke="hsl(206,100%,53%)"
    stroke-width="3"
    transform="" />
  
  <path
    d="M 
      549.7747348650
      712.9959751578
      L
    
      595.5708100037
      729.6139783224
      L
    
      595.5500245007
      729.6712592393
      L
    
      597.9592125797
      730.5488920395
      L
    
      580.0301617648
      779.7658942767
      L
    
      531.8655123301
      762.2543117916
      z
    "
    fill="hsla(0,0%,50%,0.3)"
    stroke="hsla(0,0%,50%,1)"
    stroke-width="1"
    transform="translate(-558.6991229871,-758.0732557186) scale(1,-1) translate(50,-110)"
    />
  
  
  <line
    x1="549.7747348650896"
    y1="712.9959751578193"
    x2="531.8655123301528"
    y2="762.2543117916097"
    stroke="hsla(0,50%,50%,0.6)"
    stroke-width="1"
    transform="translate(-558.6991229871,-758.0732557186) scale(1,-1) translate(50,-110)"
    />
  
  <line
    x1="595.5708100037298"
    y1="729.6139783224811"
    x2="577.6820004353152"
    y2="778.9121556677621"
    stroke="hsla(0,50%,50%,0.6)"
    stroke-width="1"
    transform="translate(-558.6991229871,-758.0732557186) scale(1,-1) translate(50,-110)"
    />
  
  <line
    x1="596.2733227528271"
    y1="735.0028133141511"
    x2="580.0301617648119"
    y2="779.7658942767317"
    stroke="hsla(0,50%,50%,0.6)"
    stroke-width="1"
    transform="translate(-558.6991229871,-758.0732557186) scale(1,-1) translate(50,-110)"
    />
  
  <line
    x1="593.9597315436241"
    y1="734.228187919463"
    x2="577.6820004353152"
    y2="778.9121556677621"
    stroke="hsla(0,50%,50%,0.6)"
    stroke-width="1"
    transform="translate(-558.6991229871,-758.0732557186) scale(1,-1) translate(50,-110)"
    />
  
  <line
    x1="597.9592125797687"
    y1="730.5488920395953"
    x2="580.0301617648119"
    y2="779.7658942767317"
    stroke="hsla(0,50%,50%,0.6)"
    stroke-width="1"
    transform="translate(-558.6991229871,-758.0732557186) scale(1,-1) translate(50,-110)"
    />
  
  <line
    x1="549.7747348650896"
    y1="712.9959751578193"
    x2="597.9592125797687"
    y2="730.5488920395953"
    stroke="hsla(0,50%,50%,0.6)"
    stroke-width="1"
    transform="translate(-558.6991229871,-758.0732557186) scale(1,-1) translate(50,-110)"
    />
  
  <line
    x1="549.7747348650896"
    y1="712.9959751578193"
    x2="595.5708100037298"
    y2="729.6139783224811"
    stroke="hsla(0,50%,50%,0.6)"
    stroke-width="1"
    transform="translate(-558.6991229871,-758.0732557186) scale(1,-1) translate(50,-110)"
    />
  
  <line
    x1="548.1257161564904"
    y1="717.5315108855787"
    x2="593.9597315436241"
    y2="734.228187919463"
    stroke="hsla(0,50%,50%,0.6)"
    stroke-width="1"
    transform="translate(-558.6991229871,-758.0732557186) scale(1,-1) translate(50,-110)"
    />
  
  <line
    x1="548.1257161564904"
    y1="717.5315108855787"
    x2="596.2733227528271"
    y2="735.0028133141511"
    stroke="hsla(0,50%,50%,0.6)"
    stroke-width="1"
    transform="translate(-558.6991229871,-758.0732557186) scale(1,-1) translate(50,-110)"
    />
  
  <line
    x1="531.8655123301528"
    y1="762.2543117916097"
    x2="580.0301617648119"
    y2="779.7658942767317"
    stroke="hsla(0,50%,50%,0.6)"
    stroke-width="1"
    transform="translate(-558.6991229871,-758.0732557186) scale(1,-1) translate(50,-110)"
    />
  
</svg>
