<?xml version="1.0"?>
<!DOCTYPE svg PUBLIC "-//W3C//DTD SVG 1.1//EN"
  "http://www.w3.org/Graphics/SVG/1.1/DTD/svg11.dtd">
<svg
  width="240"
  height="240"
  viewBox="-500 -500 1000 1000" xmlns="http://www.w3.org/2000/svg" version="1.1">
  <rect
    x="0"
    y="0"
    width="100"
    height="100"
    fill="hsla(206,100%,53%,0.3)"
    stroke="hsl(206,100%,53%)"
    stroke-width="3"
    transform="" />
  
  <path
    d="M 
      50.7246376811
      0
      L
    
      100
      0
      L
    
      100
      0.7246376811
      L
    
      150
      0.7246376811
      L
    
      150
      1.3547574039
      L
    
      150.0401899890
      1.3547574039
      L
    
      150.0419991600
      1.4171606927
      L
    
      150.0383777742
      1.4172656824
      L
    
      150
      2.7410207939
      L
    
      150
      50
      L
    
      100
      50
      L
    
      50.7246376811
      0.7246376811
      z
    "
    fill="hsla(0,0%,50%,0.3)"
    stroke="hsla(0,0%,50%,1)"
    stroke-width="1"
    transform="translate(-100.3833184205,-25)"
    />
  
  
  <line
    x1="50.72463768115942"
    y1="0.7246376811594203"
    x2="100"
    y2="50"
    stroke="hsla(0,50%,50%,0.6)"
    stroke-width="1"
    transform="translate(-100.3833184205,-25)"
    />
  
  <line
    x1="150.0401899890391"
    y1="1.3547574039067423"
    x2="150.0419991600168"
    y2="1.41716069270297"
    stroke="hsla(0,50%,50%,0.6)"
    stroke-width="1"
    transform="translate(-100.3833184205,-25)"
    />
  
  <line
    x1="51.54501068768795"
    y1="0.08399832003359933"
    x2="51.58863243297923"
    y2="1.5886324329792285"
    stroke="hsla(0,50%,50%,0.6)"
    stroke-width="1"
    transform="translate(-100.3833184205,-25)"
    />
  
  <line
    x1="51.417769376181475"
    y1="0"
    x2="52.93005671077505"
    y2="0.043843624406284254"
    stroke="hsla(0,50%,50%,0.6)"
    stroke-width="1"
    transform="translate(-100.3833184205,-25)"
    />
  
  <line
    x1="50.72463768115942"
    y1="0"
    x2="100"
    y2="0"
    stroke="hsla(0,50%,50%,0.6)"
    stroke-width="1"
    transform="translate(-100.3833184205,-25)"
    />
  
  <line
    x1="50.72463768115942"
    y1="0"
    x2="50.72463768115942"
    y2="0.7246376811594203"
    stroke="hsla(0,50%,50%,0.6)"
    stroke-width="1"
    transform="translate(-100.3833184205,-25)"
    />
  
  <line
    x1="50.78764965343415"
    y1="0"
    x2="50.78764965343415"
    y2="0.7876496534341525"
    stroke="hsla(0,50%,50%,0.6)"
    stroke-width="1"
    transform="translate(-100.3833184205,-25)"
    />
  
  <line
    x1="50.85066162570889"
    y1="0"
    x2="50.85066162570889"
    y2="0.8506616257088847"
    stroke="hsla(0,50%,50%,0.6)"
    stroke-width="1"
    transform="translate(-100.3833184205,-25)"
    />
  
  <line
    x1="50.91367359798362"
    y1="0"
    x2="50.91367359798362"
    y2="0.9136735979836169"
    stroke="hsla(0,50%,50%,0.6)"
    stroke-width="1"
    transform="translate(-100.3833184205,-25)"
    />
  
  <line
    x1="50.97668557025835"
    y1="0"
    x2="50.97668557025835"
    y2="0.9766855702583491"
    stroke="hsla(0,50%,50%,0.6)"
    stroke-width="1"
    transform="translate(-100.3833184205,-25)"
    />
  
  <line
    x1="51.039697542533084"
    y1="0"
    x2="51.039697542533084"
    y2="1.0396975425330812"
    stroke="hsla(0,50%,50%,0.6)"
    stroke-width="1"
    transform="translate(-100.3833184205,-25)"
    />
  
  <line
    x1="51.10270951480781"
    y1="0"
    x2="51.10270951480781"
    y2="1.1027095148078134"
    stroke="hsla(0,50%,50%,0.6)"
    stroke-width="1"
    transform="translate(-100.3833184205,-25)"
    />
  
  <line
    x1="51.16572148708254"
    y1="0"
    x2="51.16572148708254"
    y2="1.1657214870825456"
    stroke="hsla(0,50%,50%,0.6)"
    stroke-width="1"
    transform="translate(-100.3833184205,-25)"
    />
  
  <line
    x1="51.22873345935728"
    y1="0"
    x2="51.22873345935728"
    y2="1.2287334593572778"
    stroke="hsla(0,50%,50%,0.6)"
    stroke-width="1"
    transform="translate(-100.3833184205,-25)"
    />
  
  <line
    x1="51.29174543163201"
    y1="0"
    x2="51.29174543163201"
    y2="1.29174543163201"
    stroke="hsla(0,50%,50%,0.6)"
    stroke-width="1"
    transform="translate(-100.3833184205,-25)"
    />
  
  <line
    x1="51.354757403906746"
    y1="0"
    x2="51.354757403906746"
    y2="1.3547574039067423"
    stroke="hsla(0,50%,50%,0.6)"
    stroke-width="1"
    transform="translate(-100.3833184205,-25)"
    />
  
  <line
    x1="52.93005671077505"
    y1="0"
    x2="52.93005671077505"
    y2="2.9300567107750473"
    stroke="hsla(0,50%,50%,0.6)"
    stroke-width="1"
    transform="translate(-100.3833184205,-25)"
    />
  
  <line
    x1="52.99306868304978"
    y1="0"
    x2="52.99306868304978"
    y2="2.9930686830497795"
    stroke="hsla(0,50%,50%,0.6)"
    stroke-width="1"
    transform="translate(-100.3833184205,-25)"
    />
  
  <line
    x1="53.056080655324514"
    y1="0"
    x2="53.056080655324514"
    y2="3.0560806553245117"
    stroke="hsla(0,50%,50%,0.6)"
    stroke-width="1"
    transform="translate(-100.3833184205,-25)"
    />
  
  <line
    x1="53.119092627599244"
    y1="0"
    x2="53.119092627599244"
    y2="3.119092627599244"
    stroke="hsla(0,50%,50%,0.6)"
    stroke-width="1"
    transform="translate(-100.3833184205,-25)"
    />
  
  <line
    x1="53.18210459987397"
    y1="0"
    x2="53.18210459987397"
    y2="3.182104599873976"
    stroke="hsla(0,50%,50%,0.6)"
    stroke-width="1"
    transform="translate(-100.3833184205,-25)"
    />
  
  <line
    x1="53.24511657214871"
    y1="0"
    x2="53.24511657214871"
    y2="3.2451165721487083"
    stroke="hsla(0,50%,50%,0.6)"
    stroke-width="1"
    transform="translate(-100.3833184205,-25)"
    />
  
  <line
    x1="53.30812854442344"
    y1="0"
    x2="53.30812854442344"
    y2="3.3081285444234405"
    stroke="hsla(0,50%,50%,0.6)"
    stroke-width="1"
    transform="translate(-100.3833184205,-25)"
    />
  
  <line
    x1="53.37114051669817"
    y1="0"
    x2="53.37114051669817"
    y2="3.3711405166981727"
    stroke="hsla(0,50%,50%,0.6)"
    stroke-width="1"
    transform="translate(-100.3833184205,-25)"
    />
  
  <line
    x1="53.434152488972906"
    y1="0"
    x2="53.434152488972906"
    y2="3.434152488972905"
    stroke="hsla(0,50%,50%,0.6)"
    stroke-width="1"
    transform="translate(-100.3833184205,-25)"
    />
  
  <line
    x1="53.497164461247635"
    y1="0"
    x2="53.497164461247635"
    y2="3.497164461247637"
    stroke="hsla(0,50%,50%,0.6)"
    stroke-width="1"
    transform="translate(-100.3833184205,-25)"
    />
  
  <line
    x1="53.56017643352237"
    y1="0"
    x2="53.56017643352237"
    y2="3.5601764335223693"
    stroke="hsla(0,50%,50%,0.6)"
    stroke-width="1"
    transform="translate(-100.3833184205,-25)"
    />
  
  <line
    x1="100"
    y1="0"
    x2="100"
    y2="50"
    stroke="hsla(0,50%,50%,0.6)"
    stroke-width="1"
    transform="translate(-100.3833184205,-25)"
    />
  
  <line
    x1="150"
    y1="0.7246376811594203"
    x2="150"
    y2="50"
    stroke="hsla(0,50%,50%,0.6)"
    stroke-width="1"
    transform="translate(-100.3833184205,-25)"
    />
  
  <line
    x1="51.58863243297923"
    y1="1.5886324329792285"
    x2="97.85804955115385"
    y2="2.9300567107750473"
    stroke="hsla(0,50%,50%,0.6)"
    stroke-width="1"
    transform="translate(-100.3833184205,-25)"
    />
  
  <line
    x1="54.34782608695652"
    y1="1.3547574039067423"
    x2="150"
    y2="2.7410207939508506"
    stroke="hsla(0,50%,50%,0.6)"
    stroke-width="1"
    transform="translate(-100.3833184205,-25)"
    />
  
  <line
    x1="50.72463768115942"
    y1="0.7246376811594203"
    x2="150"
    y2="0.7246376811594203"
    stroke="hsla(0,50%,50%,0.6)"
    stroke-width="1"
    transform="translate(-100.3833184205,-25)"
    />
  
  <line
    x1="51.417769376181475"
    y1="0"
    x2="51.39751552795031"
    y2="1.3975155279503106"
    stroke="hsla(0,50%,50%,0.6)"
    stroke-width="1"
    transform="translate(-100.3833184205,-25)"
    />
  
  <line
    x1="50.78764965343415"
    y1="0.7876496534341525"
    x2="150"
    y2="0.7876496534341525"
    stroke="hsla(0,50%,50%,0.6)"
    stroke-width="1"
    transform="translate(-100.3833184205,-25)"
    />
  
  <line
    x1="50.85066162570889"
    y1="0.8506616257088847"
    x2="150"
    y2="0.8506616257088847"
    stroke="hsla(0,50%,50%,0.6)"
    stroke-width="1"
    transform="translate(-100.3833184205,-25)"
    />
  
  <line
    x1="50.91367359798362"
    y1="0.9136735979836169"
    x2="150"
    y2="0.9136735979836169"
    stroke="hsla(0,50%,50%,0.6)"
    stroke-width="1"
    transform="translate(-100.3833184205,-25)"
    />
  
  <line
    x1="50.97668557025835"
    y1="0.9766855702583491"
    x2="150"
    y2="0.9766855702583491"
    stroke="hsla(0,50%,50%,0.6)"
    stroke-width="1"
    transform="translate(-100.3833184205,-25)"
    />
  
  <line
    x1="51.039697542533084"
    y1="1.0396975425330812"
    x2="150"
    y2="1.0396975425330812"
    stroke="hsla(0,50%,50%,0.6)"
    stroke-width="1"
    transform="translate(-100.3833184205,-25)"
    />
  
  <line
    x1="51.10270951480781"
    y1="1.1027095148078134"
    x2="150"
    y2="1.1027095148078134"
    stroke="hsla(0,50%,50%,0.6)"
    stroke-width="1"
    transform="translate(-100.3833184205,-25)"
    />
  
  <line
    x1="51.16572148708254"
    y1="1.1657214870825456"
    x2="150"
    y2="1.1657214870825456"
    stroke="hsla(0,50%,50%,0.6)"
    stroke-width="1"
    transform="translate(-100.3833184205,-25)"
    />
  
  <line
    x1="51.22873345935728"
    y1="1.2287334593572778"
    x2="150"
    y2="1.2287334593572778"
    stroke="hsla(0,50%,50%,0.6)"
    stroke-width="1"
    transform="translate(-100.3833184205,-25)"
    />
  
  <line
    x1="51.29174543163201"
    y1="1.29174543163201"
    x2="150"
    y2="1.29174543163201"
    stroke="hsla(0,50%,50%,0.6)"
    stroke-width="1"
    transform="translate(-100.3833184205,-25)"
    />
  
  <line
    x1="51.354757403906746"
    y1="1.3547574039067423"
    x2="150.0401899890391"
    y2="1.3547574039067423"
    stroke="hsla(0,50%,50%,0.6)"
    stroke-width="1"
    transform="translate(-100.3833184205,-25)"
    />
  
  <line
    x1="52.93005671077505"
    y1="0.043843624406284254"
    x2="51.54501068768795"
    y2="0.08399832003359933"
    stroke="hsla(0,50%,50%,0.6)"
    stroke-width="1"
    transform="translate(-100.3833184205,-25)"
    />
  
  <line
    x1="54.34782608695652"
    y1="1.3547574039067423"
    x2="51.39751552795031"
    y2="1.3975155279503106"
    stroke="hsla(0,50%,50%,0.6)"
    stroke-width="1"
    transform="translate(-100.3833184205,-25)"
    />
  
  <line
    x1="52.93005671077505"
    y1="2.9300567107750473"
    x2="150"
    y2="2.9300567107750473"
    stroke="hsla(0,50%,50%,0.6)"
    stroke-width="1"
    transform="translate(-100.3833184205,-25)"
    />
  
  <line
    x1="52.99306868304978"
    y1="2.9930686830497795"
    x2="150"
    y2="2.9930686830497795"
    stroke="hsla(0,50%,50%,0.6)"
    stroke-width="1"
    transform="translate(-100.3833184205,-25)"
    />
  
  <line
    x1="53.056080655324514"
    y1="3.0560806553245117"
    x2="150"
    y2="3.0560806553245117"
    stroke="hsla(0,50%,50%,0.6)"
    stroke-width="1"
    transform="translate(-100.3833184205,-25)"
    />
  
  <line
    x1="53.119092627599244"
    y1="3.119092627599244"
    x2="150"
    y2="3.119092627599244"
    stroke="hsla(0,50%,50%,0.6)"
    stroke-width="1"
    transform="translate(-100.3833184205,-25)"
    />
  
  <line
    x1="53.18210459987397"
    y1="3.182104599873976"
    x2="150"
    y2="3.182104599873976"
    stroke="hsla(0,50%,50%,0.6)"
    stroke-width="1"
    transform="translate(-100.3833184205,-25)"
    />
  
  <line
    x1="53.24511657214871"
    y1="3.2451165721487083"
    x2="150"
    y2="3.2451165721487083"
    stroke="hsla(0,50%,50%,0.6)"
    stroke-width="1"
    transform="translate(-100.3833184205,-25)"
    />
  
  <line
    x1="53.30812854442344"
    y1="3.3081285444234405"
    x2="150"
    y2="3.3081285444234405"
    stroke="hsla(0,50%,50%,0.6)"
    stroke-width="1"
    transform="translate(-100.3833184205,-25)"
    />
  
  <line
    x1="53.37114051669817"
    y1="3.3711405166981727"
    x2="150"
    y2="3.3711405166981727"
    stroke="hsla(0,50%,50%,0.6)"
    stroke-width="1"
    transform="translate(-100.3833184205,-25)"
    />
  
  <line
    x1="53.434152488972906"
    y1="3.434152488972905"
    x2="150"
    y2="3.434152488972905"
    stroke="hsla(0,50%,50%,0.6)"
    stroke-width="1"
    transform="translate(-100.3833184205,-25)"
    />
  
  <line
    x1="53.497164461247635"
    y1="3.497164461247637"
    x2="150"
    y2="3.497164461247637"
    stroke="hsla(0,50%,50%,0.6)"
    stroke-width="1"
    transform="translate(-100.3833184205,-25)"
    />
  
  <line
    x1="53.56017643352237"
    y1="3.5601764335223693"
    x2="150"
    y2="3.5601764335223693"
    stroke="hsla(0,50%,50%,0.6)"
    stroke-width="1"
    transform="translate(-100.3833184205,-25)"
    />
  
  <line
    x1="150.0401899890391"
    y1="1.3547574039067423"
    x2="150"
    y2="2.7410207939508506"
    stroke="hsla(0,50%,50%,0.6)"
    stroke-width="1"
    transform="translate(-100.3833184205,-25)"
    />
  
  <line
    x1="150.0419991600168"
    y1="1.41716069270297"
    x2="97.85804955115385"
    y2="2.9300567107750473"
    stroke="hsla(0,50%,50%,0.6)"
    stroke-width="1"
    transform="translate(-100.3833184205,-25)"
    />
  
  <line
    x1="100"
    y1="50"
    x2="150"
    y2="50"
    stroke="hsla(0,50%,50%,0.6)"
    stroke-width="1"
    transform="translate(-100.3833184205,-25)"
    />
  
</svg>
