<?xml version="1.0"?>
<!DOCTYPE svg PUBLIC "-//W3C//DTD SVG 1.1//EN"
  "http://www.w3.org/Graphics/SVG/1.1/DTD/svg11.dtd">
<svg
  width="240"
  height="240"
  viewBox="-50 -50 200 200" xmlns="http://www.w3.org/2000/svg" version="1.1">
  <rect
    x="0"
    y="0"
    width="100"
    height="100"
    fill="hsla(206,100%,53%,0.3)"
    stroke="hsl(206,100%,53%)"
    stroke-width="3"
    transform="" />
  
  <path
    d="M 
      -18.8935802038
      -24.1399411219
      L
    
      21.6627382479
      -16.5853327829
      L
    
      21.8864974654
      -10.0280248184
      L
    
      26.2900825121
      -4.9033883081
      L
    
      0
      26.8370771638
      L
    
      -33.1770495255
      21.2226667579
      L
    
      -35.0874320103
      8.8493231189
      L
    
      -35.0406655782
      8.8421026153
      L
    
      -39.9449869640
      -0.2952216764
      z
    "
    fill="hsla(0,0%,50%,0.3)"
    stroke="hsla(0,0%,50%,1)"
    stroke-width="1"
    transform="translate(24.4217286677,-5.3499293644) scale(1,-1) translate(50,-110)"
    />
  
  <path
    d="M 
      -10.8774679861
      -2.5115628743
      L
    
      -17.1237288804
      4.8115397095
      L
    
      -12.9938030440
      5.4381771074
      L
    
      -9.5203688090
      4.9018962024
      L
    
      -8.6742676273
      3.4329211127
      z
    "
    fill="hsla(0,0%,50%,0.3)"
    stroke="hsla(0,0%,50%,1)"
    stroke-width="1"
    transform="translate(24.4217286677,-5.3499293644) scale(1,-1) translate(50,-110)"
    />
  
  <path
    d="M 
      -26.8101038163
      4.7740611156
      L
    
      -34.1263255147
      8.7009330743
      L
    
      -25.8432405002
      7.4220661007
      L
    
      -24.8400942385
      5.5343675104
      z
    "
    fill="hsla(0,0%,50%,0.3)"
    stroke="hsla(0,0%,50%,1)"
    stroke-width="1"
    transform="translate(24.4217286677,-5.3499293644) scale(1,-1) translate(50,-110)"
    />
  
  
  <line
    x1="-18.89358020382194"
    y1="-24.139941121967563"
    x2="-39.9449869640672"
    y2="-0.295221676443525"
    stroke="hsla(0,50%,50%,0.6)"
    stroke-width="1"
    transform="translate(24.4217286677,-5.3499293644) scale(1,-1) translate(50,-110)"
    />
  
  <line
    x1="-18.89358020382194"
    y1="-24.139941121967563"
    x2="21.662738247912635"
    y2="-16.585332782918968"
    stroke="hsla(0,50%,50%,0.6)"
    stroke-width="1"
    transform="translate(24.4217286677,-5.3499293644) scale(1,-1) translate(50,-110)"
    />
  
  <line
    x1="15.220671814161687"
    y1="-17.785325549990223"
    x2="26.290082512122172"
    y2="-4.90338830813622"
    stroke="hsla(0,50%,50%,0.6)"
    stroke-width="1"
    transform="translate(24.4217286677,-5.3499293644) scale(1,-1) translate(50,-110)"
    />
  
  <line
    x1="3.6411512026696387"
    y1="-17.948733788459037"
    x2="26.290082512122172"
    y2="-4.90338830813622"
    stroke="hsla(0,50%,50%,0.6)"
    stroke-width="1"
    transform="translate(24.4217286677,-5.3499293644) scale(1,-1) translate(50,-110)"
    />
  
  <line
    x1="-23.908876826855703"
    y1="3.782023049370688"
    x2="-33.17704952552869"
    y2="21.222666757974856"
    stroke="hsla(0,50%,50%,0.6)"
    stroke-width="1"
    transform="translate(24.4217286677,-5.3499293644) scale(1,-1) translate(50,-110)"
    />
  
  <line
    x1="15.220671814161687"
    y1="-17.785325549990223"
    x2="-34.89499461620795"
    y2="9.113504653526848"
    stroke="hsla(0,50%,50%,0.6)"
    stroke-width="1"
    transform="translate(24.4217286677,-5.3499293644) scale(1,-1) translate(50,-110)"
    />
  
  <line
    x1="3.942279646900293"
    y1="-19.886202522323227"
    x2="-19.498621065495076"
    y2="7.595858102792316"
    stroke="hsla(0,50%,50%,0.6)"
    stroke-width="1"
    transform="translate(24.4217286677,-5.3499293644) scale(1,-1) translate(50,-110)"
    />
  
  <line
    x1="3.942279646900293"
    y1="-19.886202522323227"
    x2="14.294814300884072"
    y2="9.578703800553681"
    stroke="hsla(0,50%,50%,0.6)"
    stroke-width="1"
    transform="translate(24.4217286677,-5.3499293644) scale(1,-1) translate(50,-110)"
    />
  
  <line
    x1="3.6411512026696387"
    y1="-17.948733788459037"
    x2="-20.186969097262647"
    y2="23.420922593625757"
    stroke="hsla(0,50%,50%,0.6)"
    stroke-width="1"
    transform="translate(24.4217286677,-5.3499293644) scale(1,-1) translate(50,-110)"
    />
  
  <line
    x1="21.662738247912635"
    y1="-16.585332782918968"
    x2="22.22869017609015"
    y2="0"
    stroke="hsla(0,50%,50%,0.6)"
    stroke-width="1"
    transform="translate(24.4217286677,-5.3499293644) scale(1,-1) translate(50,-110)"
    />
  
  <line
    x1="-30.384535306663068"
    y1="-11.124250355600587"
    x2="11.710677671501093"
    y2="6.794420639808307"
    stroke="hsla(0,50%,50%,0.6)"
    stroke-width="1"
    transform="translate(24.4217286677,-5.3499293644) scale(1,-1) translate(50,-110)"
    />
  
  <line
    x1="-18.89358020382194"
    y1="-24.139941121967563"
    x2="0"
    y2="26.837077163816158"
    stroke="hsla(0,50%,50%,0.6)"
    stroke-width="1"
    transform="translate(24.4217286677,-5.3499293644) scale(1,-1) translate(50,-110)"
    />
  
  <line
    x1="22.22869017609015"
    y1="0"
    x2="-35.087432010363656"
    y2="8.849323118986067"
    stroke="hsla(0,50%,50%,0.6)"
    stroke-width="1"
    transform="translate(24.4217286677,-5.3499293644) scale(1,-1) translate(50,-110)"
    />
  
  <line
    x1="-23.908876826855703"
    y1="3.782023049370688"
    x2="-20.186969097262647"
    y2="23.420922593625757"
    stroke="hsla(0,50%,50%,0.6)"
    stroke-width="1"
    transform="translate(24.4217286677,-5.3499293644) scale(1,-1) translate(50,-110)"
    />
  
  <line
    x1="21.662738247912635"
    y1="-16.585332782918968"
    x2="11.710677671501093"
    y2="6.794420639808307"
    stroke="hsla(0,50%,50%,0.6)"
    stroke-width="1"
    transform="translate(24.4217286677,-5.3499293644) scale(1,-1) translate(50,-110)"
    />
  
  <line
    x1="-35.087432010363656"
    y1="8.849323118986067"
    x2="-33.17704952552869"
    y2="21.222666757974856"
    stroke="hsla(0,50%,50%,0.6)"
    stroke-width="1"
    transform="translate(24.4217286677,-5.3499293644) scale(1,-1) translate(50,-110)"
    />
  
  <line
    x1="-23.908876826855703"
    y1="3.782023049370688"
    x2="14.294814300884072"
    y2="9.578703800553681"
    stroke="hsla(0,50%,50%,0.6)"
    stroke-width="1"
    transform="translate(24.4217286677,-5.3499293644) scale(1,-1) translate(50,-110)"
    />
  
  <line
    x1="-30.384535306663068"
    y1="-11.124250355600587"
    x2="-19.498621065495076"
    y2="7.595858102792316"
    stroke="hsla(0,50%,50%,0.6)"
    stroke-width="1"
    transform="translate(24.4217286677,-5.3499293644) scale(1,-1) translate(50,-110)"
    />
  
  <line
    x1="26.290082512122172"
    y1="-4.90338830813622"
    x2="0"
    y2="26.837077163816158"
    stroke="hsla(0,50%,50%,0.6)"
    stroke-width="1"
    transform="translate(24.4217286677,-5.3499293644) scale(1,-1) translate(50,-110)"
    />
  
  <line
    x1="-39.9449869640672"
    y1="-0.295221676443525"
    x2="-19.498621065495076"
    y2="7.595858102792316"
    stroke="hsla(0,50%,50%,0.6)"
    stroke-width="1"
    transform="translate(24.4217286677,-5.3499293644) scale(1,-1) translate(50,-110)"
    />
  
  <line
    x1="-39.9449869640672"
    y1="-0.295221676443525"
    x2="-34.89499461620795"
    y2="9.113504653526848"
    stroke="hsla(0,50%,50%,0.6)"
    stroke-width="1"
    transform="translate(24.4217286677,-5.3499293644) scale(1,-1) translate(50,-110)"
    />
  
  <line
    x1="-33.17704952552869"
    y1="21.222666757974856"
    x2="0"
    y2="26.837077163816158"
    stroke="hsla(0,50%,50%,0.6)"
    stroke-width="1"
    transform="translate(24.4217286677,-5.3499293644) scale(1,-1) translate(50,-110)"
    />
  
</svg>
