<?xml version="1.0"?>
<!DOCTYPE svg PUBLIC "-//W3C//DTD SVG 1.1//EN"
  "http://www.w3.org/Graphics/SVG/1.1/DTD/svg11.dtd">
<svg
  width="240"
  height="240"
  viewBox="-500 -500 1000 1000" xmlns="http://www.w3.org/2000/svg" version="1.1">
  <rect
    x="0"
    y="0"
    width="100"
    height="100"
    fill="hsla(206,100%,53%,0.3)"
    stroke="hsl(206,100%,53%)"
    stroke-width="3"
    transform="" />
  
  <path
    d="M 
      0
      9.5238095238
      L
    
      108.7082728592
      45.7599004768
      L
    
      120.0296735905
      64.3916913946
      L
    
      100
      76.5625
      L
    
      82.2213500784
      66.5620094191
      L
    
      74.2857142857
      77.1428571428
      L
    
      59.0079365079
      65.6845238095
      L
    
      36.1254768969
      74.8579906740
      L
    
      21.0285714285
      37.2
      L
    
      -5.7142857142
      17.1428571428
      z
    "
    fill="hsla(0,0%,50%,0.3)"
    stroke="hsla(0,0%,50%,1)"
    stroke-width="1"
    transform="translate(-57.1576939381,-43.3333333333)"
    />
  
  
  <line
    x1="108.70827285921625"
    y1="45.75990047688161"
    x2="120.02967359050444"
    y2="64.39169139465875"
    stroke="hsla(0,50%,50%,0.6)"
    stroke-width="1"
    transform="translate(-57.1576939381,-43.3333333333)"
    />
  
  <line
    x1="11.465471797575118"
    y1="13.345633456334564"
    x2="36.12547689699025"
    y2="74.85799067401442"
    stroke="hsla(0,50%,50%,0.6)"
    stroke-width="1"
    transform="translate(-57.1576939381,-43.3333333333)"
    />
  
  <line
    x1="0"
    y1="9.523809523809524"
    x2="0"
    y2="20.3125"
    stroke="hsla(0,50%,50%,0.6)"
    stroke-width="1"
    transform="translate(-57.1576939381,-43.3333333333)"
    />
  
  <line
    x1="100"
    y1="42.857142857142854"
    x2="100"
    y2="76.5625"
    stroke="hsla(0,50%,50%,0.6)"
    stroke-width="1"
    transform="translate(-57.1576939381,-43.3333333333)"
    />
  
  <line
    x1="0"
    y1="9.523809523809524"
    x2="-5.714285714285714"
    y2="17.142857142857142"
    stroke="hsla(0,50%,50%,0.6)"
    stroke-width="1"
    transform="translate(-57.1576939381,-43.3333333333)"
    />
  
  <line
    x1="0"
    y1="9.523809523809524"
    x2="108.70827285921625"
    y2="45.75990047688161"
    stroke="hsla(0,50%,50%,0.6)"
    stroke-width="1"
    transform="translate(-57.1576939381,-43.3333333333)"
    />
  
  <line
    x1="-5.714285714285714"
    y1="17.142857142857142"
    x2="74.28571428571429"
    y2="77.14285714285714"
    stroke="hsla(0,50%,50%,0.6)"
    stroke-width="1"
    transform="translate(-57.1576939381,-43.3333333333)"
    />
  
  <line
    x1="11.465471797575118"
    y1="13.345633456334564"
    x2="0"
    y2="20.3125"
    stroke="hsla(0,50%,50%,0.6)"
    stroke-width="1"
    transform="translate(-57.1576939381,-43.3333333333)"
    />
  
  <line
    x1="0"
    y1="20.3125"
    x2="100"
    y2="76.5625"
    stroke="hsla(0,50%,50%,0.6)"
    stroke-width="1"
    transform="translate(-57.1576939381,-43.3333333333)"
    />
  
  <line
    x1="100"
    y1="42.857142857142854"
    x2="74.28571428571429"
    y2="77.14285714285714"
    stroke="hsla(0,50%,50%,0.6)"
    stroke-width="1"
    transform="translate(-57.1576939381,-43.3333333333)"
    />
  
  <line
    x1="108.70827285921625"
    y1="45.75990047688161"
    x2="36.12547689699025"
    y2="74.85799067401442"
    stroke="hsla(0,50%,50%,0.6)"
    stroke-width="1"
    transform="translate(-57.1576939381,-43.3333333333)"
    />
  
  <line
    x1="120.02967359050444"
    y1="64.39169139465875"
    x2="100"
    y2="76.5625"
    stroke="hsla(0,50%,50%,0.6)"
    stroke-width="1"
    transform="translate(-57.1576939381,-43.3333333333)"
    />
  
</svg>
