<?xml version="1.0"?>
<!DOCTYPE svg PUBLIC "-//W3C//DTD SVG 1.1//EN"
  "http://www.w3.org/Graphics/SVG/1.1/DTD/svg11.dtd">
<svg
  width="240"
  height="240"
  viewBox="-50 -50 200 200" xmlns="http://www.w3.org/2000/svg" version="1.1">
  <rect
    x="0"
    y="0"
    width="100"
    height="100"
    fill="hsla(206,100%,53%,0.3)"
    stroke="hsl(206,100%,53%)"
    stroke-width="3"
    transform="" />
  
  <path
    d="M 
      58.9370353159
      20.8528842828
      L
    
      70.0123863173
      48.7208582190
      L
    
      35.4287790697
      100
      L
    
      0
      100
      L
    
      0
      49.1279069767
      L
    
      14.8329499786
      49.0416688954
      L
    
      11.2325743494
      40.1335966542
      L
    
      13.9246987195
      39.0455207260
      L
    
      13.7192635123
      38.5197149084
      z
    "
    fill="hsla(0,0%,50%,0.3)"
    stroke="hsla(0,0%,50%,1)"
    stroke-width="1"
    transform="translate(-13.4524336181,-41.2538110481) scale(1,-1) translate(50,-110)"
    />
  
  
  <line
    x1="58.93703531598513"
    y1="20.852884282873692"
    x2="70.0123863173612"
    y2="48.72085821908511"
    stroke="hsla(0,50%,50%,0.6)"
    stroke-width="1"
    transform="translate(-13.4524336181,-41.2538110481) scale(1,-1) translate(50,-110)"
    />
  
  <line
    x1="0"
    y1="49.127906976744185"
    x2="0"
    y2="100"
    stroke="hsla(0,50%,50%,0.6)"
    stroke-width="1"
    transform="translate(-13.4524336181,-41.2538110481) scale(1,-1) translate(50,-110)"
    />
  
  <line
    x1="0"
    y1="49.127906976744185"
    x2="0.5712354233564306"
    y2="98.25249281730606"
    stroke="hsla(0,50%,50%,0.6)"
    stroke-width="1"
    transform="translate(-13.4524336181,-41.2538110481) scale(1,-1) translate(50,-110)"
    />
  
  <line
    x1="13.71926351235461"
    y1="38.51971490846424"
    x2="36.89217162483272"
    y2="97.8301420735239"
    stroke="hsla(0,50%,50%,0.6)"
    stroke-width="1"
    transform="translate(-13.4524336181,-41.2538110481) scale(1,-1) translate(50,-110)"
    />
  
  <line
    x1="11.232574349442379"
    y1="40.133596654275095"
    x2="35.428779069767444"
    y2="100"
    stroke="hsla(0,50%,50%,0.6)"
    stroke-width="1"
    transform="translate(-13.4524336181,-41.2538110481) scale(1,-1) translate(50,-110)"
    />
  
  <line
    x1="58.93703531598513"
    y1="20.852884282873692"
    x2="13.71926351235461"
    y2="38.51971490846424"
    stroke="hsla(0,50%,50%,0.6)"
    stroke-width="1"
    transform="translate(-13.4524336181,-41.2538110481) scale(1,-1) translate(50,-110)"
    />
  
  <line
    x1="58.93703531598513"
    y1="20.852884282873692"
    x2="11.232574349442379"
    y2="40.133596654275095"
    stroke="hsla(0,50%,50%,0.6)"
    stroke-width="1"
    transform="translate(-13.4524336181,-41.2538110481) scale(1,-1) translate(50,-110)"
    />
  
  <line
    x1="70.0123863173612"
    y1="48.72085821908511"
    x2="35.428779069767444"
    y2="100"
    stroke="hsla(0,50%,50%,0.6)"
    stroke-width="1"
    transform="translate(-13.4524336181,-41.2538110481) scale(1,-1) translate(50,-110)"
    />
  
  <line
    x1="70.0123863173612"
    y1="48.72085821908511"
    x2="0"
    y2="49.127906976744185"
    stroke="hsla(0,50%,50%,0.6)"
    stroke-width="1"
    transform="translate(-13.4524336181,-41.2538110481) scale(1,-1) translate(50,-110)"
    />
  
  <line
    x1="36.89217162483272"
    y1="97.8301420735239"
    x2="0.5712354233564306"
    y2="98.25249281730606"
    stroke="hsla(0,50%,50%,0.6)"
    stroke-width="1"
    transform="translate(-13.4524336181,-41.2538110481) scale(1,-1) translate(50,-110)"
    />
  
  <line
    x1="0"
    y1="100"
    x2="35.428779069767444"
    y2="100"
    stroke="hsla(0,50%,50%,0.6)"
    stroke-width="1"
    transform="translate(-13.4524336181,-41.2538110481) scale(1,-1) translate(50,-110)"
    />
  
</svg>
