<?xml version="1.0"?>
<!DOCTYPE svg PUBLIC "-//W3C//DTD SVG 1.1//EN"
  "http://www.w3.org/Graphics/SVG/1.1/DTD/svg11.dtd">
<svg
  width="240"
  height="240"
  viewBox="-50 -50 200 200" xmlns="http://www.w3.org/2000/svg" version="1.1">
  <rect
    x="0"
    y="0"
    width="100"
    height="100"
    fill="hsla(206,100%,53%,0.3)"
    stroke="hsl(206,100%,53%)"
    stroke-width="3"
    transform="" />
  
  <path
    d="M 
      0.0007808972
      -87.4999999965
      L
    
      10.0007139628
      -79.9999107514
      L
    
      0.0007012138
      -78.5714285682
      L
    
      -78.5714285682
      -0.0007012138
      L
    
      -99.9999999960
      -0.0008924540
      L
    
      -78.5712373281
      -21.4292726415
      L
    
      -78.5707273544
      -78.5721297821
      L
    
      -17.8564416425
      -78.5715879350
      z
    "
    fill="hsla(0,0%,50%,0.3)"
    stroke="hsla(0,0%,50%,1)"
    stroke-width="1"
    transform="translate(47.0195168333,64.1438348086) scale(1,-1) translate(50,-110)"
    />
  
  
  <line
    x1="-78.57072735441875"
    y1="-78.57212978218038"
    x2="0.0007012138808118764"
    y2="-78.57142856829957"
    stroke="hsla(0,50%,50%,0.6)"
    stroke-width="1"
    transform="translate(47.0195168333,64.1438348086) scale(1,-1) translate(50,-110)"
    />
  
  <line
    x1="10.000713962825861"
    y1="-79.9999107514111"
    x2="-24.999330658481814"
    y2="-75.00022311052075"
    stroke="hsla(0,50%,50%,0.6)"
    stroke-width="1"
    transform="translate(47.0195168333,64.1438348086) scale(1,-1) translate(50,-110)"
    />
  
  <line
    x1="0.0007808972763586804"
    y1="-87.49999999651541"
    x2="-24.999330658481814"
    y2="-75.00022311052075"
    stroke="hsla(0,50%,50%,0.6)"
    stroke-width="1"
    transform="translate(47.0195168333,64.1438348086) scale(1,-1) translate(50,-110)"
    />
  
  <line
    x1="0.0007808972763586804"
    y1="-87.49999999651541"
    x2="10.000713962825861"
    y2="-79.9999107514111"
    stroke="hsla(0,50%,50%,0.6)"
    stroke-width="1"
    transform="translate(47.0195168333,64.1438348086) scale(1,-1) translate(50,-110)"
    />
  
  <line
    x1="-24.999330658481814"
    y1="-75.00022311052075"
    x2="-99.99999999601762"
    y2="-0.0008924540301242062"
    stroke="hsla(0,50%,50%,0.6)"
    stroke-width="1"
    transform="translate(47.0195168333,64.1438348086) scale(1,-1) translate(50,-110)"
    />
  
  <line
    x1="0.0007012138808118764"
    y1="-78.57142856829957"
    x2="-78.57142856829957"
    y2="-0.0007012138808118764"
    stroke="hsla(0,50%,50%,0.6)"
    stroke-width="1"
    transform="translate(47.0195168333,64.1438348086) scale(1,-1) translate(50,-110)"
    />
  
  <line
    x1="-78.57072735441875"
    y1="-78.57212978218038"
    x2="-78.57142856829957"
    y2="-0.0007012138808118764"
    stroke="hsla(0,50%,50%,0.6)"
    stroke-width="1"
    transform="translate(47.0195168333,64.1438348086) scale(1,-1) translate(50,-110)"
    />
  
  <line
    x1="-99.99999999601762"
    y1="-0.0008924540301242062"
    x2="-78.57142856829957"
    y2="-0.0007012138808118764"
    stroke="hsla(0,50%,50%,0.6)"
    stroke-width="1"
    transform="translate(47.0195168333,64.1438348086) scale(1,-1) translate(50,-110)"
    />
  
  <line
    x1="0.0007808972763586804"
    y1="-87.49999999651541"
    x2="0.0007012138808118764"
    y2="-78.57142856829957"
    stroke="hsla(0,50%,50%,0.6)"
    stroke-width="1"
    transform="translate(47.0195168333,64.1438348086) scale(1,-1) translate(50,-110)"
    />
  
</svg>
