<?xml version="1.0"?>
<!DOCTYPE svg PUBLIC "-//W3C//DTD SVG 1.1//EN"
  "http://www.w3.org/Graphics/SVG/1.1/DTD/svg11.dtd">
<svg
  width="240"
  height="240"
  viewBox="-500 -500 1000 1000" xmlns="http://www.w3.org/2000/svg" version="1.1">
  <rect
    x="0"
    y="0"
    width="100"
    height="100"
    fill="hsla(206,100%,53%,0.3)"
    stroke="hsl(206,100%,53%)"
    stroke-width="3"
    transform="" />
  
  <path
    d="M 
      0.0000000001
      -50.00010101
      L
    
      50.0000000001
      -50.00010101
      L
    
      100.0000000001
      -0.00010101
      L
    
      75.0000000001
      -0.00010101
      L
    
      60.0000000001
      19.99989899
      L
    
      57.1428571429
      -0.00010101
      L
    
      0.0000000001
      -0.00010101
      z
    "
    fill="hsla(0,0%,50%,0.3)"
    stroke="hsla(0,0%,50%,1)"
    stroke-width="1"
    transform="translate(-50.0000000001,15.00010101)"
    />
  
  
  <line
    x1="1e-10"
    y1="-50.00010101"
    x2="50.0000000001"
    y2="-50.00010101"
    stroke="hsla(0,50%,50%,0.6)"
    stroke-width="1"
    transform="translate(-50.0000000001,15.00010101)"
    />
  
  <line
    x1="50.0000000001"
    y1="-50.00010101"
    x2="100.0000000001"
    y2="-0.00010101"
    stroke="hsla(0,50%,50%,0.6)"
    stroke-width="1"
    transform="translate(-50.0000000001,15.00010101)"
    />
  
  <line
    x1="50.0000000001"
    y1="-50.00010101"
    x2="75.0000000001"
    y2="-0.00010101"
    stroke="hsla(0,50%,50%,0.6)"
    stroke-width="1"
    transform="translate(-50.0000000001,15.00010101)"
    />
  
  <line
    x1="50.0000000001"
    y1="-50.00010101"
    x2="60.0000000001"
    y2="19.99989899"
    stroke="hsla(0,50%,50%,0.6)"
    stroke-width="1"
    transform="translate(-50.0000000001,15.00010101)"
    />
  
  <line
    x1="1e-10"
    y1="-0.00010101"
    x2="100.0000000001"
    y2="-0.00010101"
    stroke="hsla(0,50%,50%,0.6)"
    stroke-width="1"
    transform="translate(-50.0000000001,15.00010101)"
    />
  
  <line
    x1="1e-10"
    y1="-50.00010101"
    x2="1e-10"
    y2="-0.00010101"
    stroke="hsla(0,50%,50%,0.6)"
    stroke-width="1"
    transform="translate(-50.0000000001,15.00010101)"
    />
  
  <line
    x1="50.0000000001"
    y1="-50.00010101"
    x2="50.0000000001"
    y2="-0.00010101"
    stroke="hsla(0,50%,50%,0.6)"
    stroke-width="1"
    transform="translate(-50.0000000001,15.00010101)"
    />
  
  <line
    x1="75.0000000001"
    y1="-0.00010101"
    x2="60.0000000001"
    y2="19.99989899"
    stroke="hsla(0,50%,50%,0.6)"
    stroke-width="1"
    transform="translate(-50.0000000001,15.00010101)"
    />
  
</svg>
