<?xml version="1.0"?>
<!DOCTYPE svg PUBLIC "-//W3C//DTD SVG 1.1//EN"
  "http://www.w3.org/Graphics/SVG/1.1/DTD/svg11.dtd">
<svg
  width="240"
  height="240"
  viewBox="-50 -50 200 200" xmlns="http://www.w3.org/2000/svg" version="1.1">
  <rect
    x="0"
    y="0"
    width="100"
    height="100"
    fill="hsla(206,100%,53%,0.3)"
    stroke="hsl(206,100%,53%)"
    stroke-width="3"
    transform="" />
  
  <path
    d="M 
      -49.9991075439
      -100.0004462230
      L
    
      -37.4992191012
      -87.5003346667
      L
    
      -12.4992191022
      -87.5001115532
      L
    
      -12.4994422157
      -62.5001115542
      L
    
      0.0004462270
      -49.9999999980
      L
    
      -12.4996653292
      -37.5001115552
      L
    
      -12.4998884427
      -12.5001115562
      L
    
      -37.4998884417
      -12.5003346697
      L
    
      -49.9999999980
      -0.0004462270
      L
    
      -62.4998884407
      -12.5005577832
      L
    
      -87.4998884397
      -12.5007808967
      L
    
      -87.4996653262
      -37.5007808957
      L
    
      -99.9995537690
      -50.0008924520
      L
    
      -87.4994422127
      -62.5007808947
      L
    
      -87.4992190992
      -87.5007808937
      L
    
      -62.4992191002
      -87.5005577802
      z
    "
    fill="hsla(0,0%,50%,0.3)"
    stroke="hsla(0,0%,50%,1)"
    stroke-width="1"
    transform="translate(75.1934709636,78.1138455087) scale(1,-1) translate(50,-110)"
    />
  
  
  <line
    x1="-87.49921909923907"
    y1="-87.50078089379178"
    x2="-12.499219102225846"
    y2="-87.50011155326919"
    stroke="hsla(0,50%,50%,0.6)"
    stroke-width="1"
    transform="translate(75.1934709636,78.1138455087) scale(1,-1) translate(50,-110)"
    />
  
  <line
    x1="-49.99910754397869"
    y1="-100.0004462230327"
    x2="-99.99955376900256"
    y2="-50.00089245203893"
    stroke="hsla(0,50%,50%,0.6)"
    stroke-width="1"
    transform="translate(75.1934709636,78.1138455087) scale(1,-1) translate(50,-110)"
    />
  
  <line
    x1="-49.999219100732454"
    y1="-87.50044622353049"
    x2="-87.49955376950037"
    y2="-50.000780895285175"
    stroke="hsla(0,50%,50%,0.6)"
    stroke-width="1"
    transform="translate(75.1934709636,78.1138455087) scale(1,-1) translate(50,-110)"
    />
  
  <line
    x1="-99.99955376900256"
    y1="-50.00089245203893"
    x2="-87.49955376950037"
    y2="-50.000780895285175"
    stroke="hsla(0,50%,50%,0.6)"
    stroke-width="1"
    transform="translate(75.1934709636,78.1138455087) scale(1,-1) translate(50,-110)"
    />
  
  <line
    x1="-12.49955377248714"
    y1="-50.000111554762576"
    x2="0.0004462270150621031"
    y2="-49.99999999800881"
    stroke="hsla(0,50%,50%,0.6)"
    stroke-width="1"
    transform="translate(75.1934709636,78.1138455087) scale(1,-1) translate(50,-110)"
    />
  
  <line
    x1="-12.49955377248714"
    y1="-50.000111554762576"
    x2="-49.99988844125505"
    y2="-12.500446226517264"
    stroke="hsla(0,50%,50%,0.6)"
    stroke-width="1"
    transform="translate(75.1934709636,78.1138455087) scale(1,-1) translate(50,-110)"
    />
  
  <line
    x1="0.0004462270150621031"
    y1="-49.99999999800881"
    x2="-49.99999999800881"
    y2="-0.0004462270150621031"
    stroke="hsla(0,50%,50%,0.6)"
    stroke-width="1"
    transform="translate(75.1934709636,78.1138455087) scale(1,-1) translate(50,-110)"
    />
  
  <line
    x1="-49.99910754397869"
    y1="-100.0004462230327"
    x2="0.0004462270150621031"
    y2="-49.99999999800881"
    stroke="hsla(0,50%,50%,0.6)"
    stroke-width="1"
    transform="translate(75.1934709636,78.1138455087) scale(1,-1) translate(50,-110)"
    />
  
  <line
    x1="-49.999219100732454"
    y1="-87.50044622353049"
    x2="-12.49955377248714"
    y2="-50.000111554762576"
    stroke="hsla(0,50%,50%,0.6)"
    stroke-width="1"
    transform="translate(75.1934709636,78.1138455087) scale(1,-1) translate(50,-110)"
    />
  
  <line
    x1="-87.49988843976166"
    y1="-12.500780896778561"
    x2="-12.499888442748437"
    y2="-12.50011155625597"
    stroke="hsla(0,50%,50%,0.6)"
    stroke-width="1"
    transform="translate(75.1934709636,78.1138455087) scale(1,-1) translate(50,-110)"
    />
  
  <line
    x1="-87.49921909923907"
    y1="-87.50078089379178"
    x2="-87.49988843976166"
    y2="-12.500780896778561"
    stroke="hsla(0,50%,50%,0.6)"
    stroke-width="1"
    transform="translate(75.1934709636,78.1138455087) scale(1,-1) translate(50,-110)"
    />
  
  <line
    x1="-49.99910754397869"
    y1="-100.0004462230327"
    x2="-49.999219100732454"
    y2="-87.50044622353049"
    stroke="hsla(0,50%,50%,0.6)"
    stroke-width="1"
    transform="translate(75.1934709636,78.1138455087) scale(1,-1) translate(50,-110)"
    />
  
  <line
    x1="-49.99988844125505"
    y1="-12.500446226517264"
    x2="-49.99999999800881"
    y2="-0.0004462270150621031"
    stroke="hsla(0,50%,50%,0.6)"
    stroke-width="1"
    transform="translate(75.1934709636,78.1138455087) scale(1,-1) translate(50,-110)"
    />
  
  <line
    x1="-12.499219102225846"
    y1="-87.50011155326919"
    x2="-12.499888442748437"
    y2="-12.50011155625597"
    stroke="hsla(0,50%,50%,0.6)"
    stroke-width="1"
    transform="translate(75.1934709636,78.1138455087) scale(1,-1) translate(50,-110)"
    />
  
  <line
    x1="-87.49955376950037"
    y1="-50.000780895285175"
    x2="-49.99988844125505"
    y2="-12.500446226517264"
    stroke="hsla(0,50%,50%,0.6)"
    stroke-width="1"
    transform="translate(75.1934709636,78.1138455087) scale(1,-1) translate(50,-110)"
    />
  
  <line
    x1="-99.99955376900256"
    y1="-50.00089245203893"
    x2="-49.99999999800881"
    y2="-0.0004462270150621031"
    stroke="hsla(0,50%,50%,0.6)"
    stroke-width="1"
    transform="translate(75.1934709636,78.1138455087) scale(1,-1) translate(50,-110)"
    />
  
</svg>
