<?xml version="1.0"?>
<!DOCTYPE svg PUBLIC "-//W3C//DTD SVG 1.1//EN"
  "http://www.w3.org/Graphics/SVG/1.1/DTD/svg11.dtd">
<svg
  width="240"
  height="240"
  viewBox="-50 -50 200 200" xmlns="http://www.w3.org/2000/svg" version="1.1">
  <rect
    x="0"
    y="0"
    width="100"
    height="100"
    fill="hsla(206,100%,53%,0.3)"
    stroke="hsl(206,100%,53%)"
    stroke-width="3"
    transform="" />
  
  <path
    d="M 
      -5759249.9999999999
      5785079.2893218813
      L
    
      -5759179.2893218813
      5785150.0000000000
      L
    
      -5759250.0000000000
      5785220.7106781186
      L
    
      -5759320.7106781186
      5785149.9999999999
      z
    "
    fill="hsla(0,0%,50%,0.3)"
    stroke="hsla(0,0%,50%,1)"
    stroke-width="1"
    transform="translate(5759276.5165042944,-5785158.8388347648) scale(1,-1) translate(50,-110)"
    />
  
  
  <line
    x1="-5759250"
    y1="5785079.289321882"
    x2="-5759320.710678119"
    y2="5785150"
    stroke="hsla(0,50%,50%,0.6)"
    stroke-width="1"
    transform="translate(5759276.5165042944,-5785158.8388347648) scale(1,-1) translate(50,-110)"
    />
  
  <line
    x1="-5759179.289321882"
    y1="5785150"
    x2="-5759250"
    y2="5785220.710678119"
    stroke="hsla(0,50%,50%,0.6)"
    stroke-width="1"
    transform="translate(5759276.5165042944,-5785158.8388347648) scale(1,-1) translate(50,-110)"
    />
  
  <line
    x1="-5759250"
    y1="5785079.289321882"
    x2="-5759179.289321882"
    y2="5785150"
    stroke="hsla(0,50%,50%,0.6)"
    stroke-width="1"
    transform="translate(5759276.5165042944,-5785158.8388347648) scale(1,-1) translate(50,-110)"
    />
  
  <line
    x1="-5759320.710678119"
    y1="5785150"
    x2="-5759250"
    y2="5785220.710678119"
    stroke="hsla(0,50%,50%,0.6)"
    stroke-width="1"
    transform="translate(5759276.5165042944,-5785158.8388347648) scale(1,-1) translate(50,-110)"
    />
  
</svg>
