<?xml version="1.0"?>
<!DOCTYPE svg PUBLIC "-//W3C//DTD SVG 1.1//EN"
  "http://www.w3.org/Graphics/SVG/1.1/DTD/svg11.dtd">
<svg
  width="240"
  height="240"
  viewBox="-50 -50 200 200" xmlns="http://www.w3.org/2000/svg" version="1.1">
  <rect
    x="0"
    y="0"
    width="100"
    height="100"
    fill="hsla(206,100%,53%,0.3)"
    stroke="hsl(206,100%,53%)"
    stroke-width="3"
    transform="" />
  
  <path
    d="M 
      64.9705871620
      76.0752451023
      L
    
      86.2688661350
      82.6687272592
      L
    
      86.2755926142
      82.6417970060
      L
    
      96.9776248174
      85.3148872619
      L
    
      97.7573594332
      85.4987918433
      L
    
      97.7550277210
      85.5090623576
      L
    
      98.4855317322
      85.6915233255
      L
    
      98.4167024587
      85.9851689715
      L
    
      100
      85.9621670702
      L
    
      100.0280769607
      86.9282785210
      L
    
      49.9157194049
      125.0092550777
      L
    
      49.8078835064
      124.9808030729
      L
    
      49.9230472501
      124.4541708048
      L
    
      50.4216840506
      86.6824331614
      L
    
      58.2076921491
      86.5693192423
      L
    
      60.2326295522
      77.3094832597
      L
    
      64.3119090644
      78.1997356035
      z
    "
    fill="hsla(0,0%,50%,0.3)"
    stroke="hsla(0,0%,50%,1)"
    stroke-width="1"
    transform="translate(-61.1466434739,-82.1594427627) scale(1,-1) translate(50,-110)"
    />
  
  
  <line
    x1="99.96982277480924"
    y1="86.0161668831341"
    x2="99.99778893850015"
    y2="86.95129474937764"
    stroke="hsla(0,50%,50%,0.6)"
    stroke-width="1"
    transform="translate(-61.1466434739,-82.1594427627) scale(1,-1) translate(50,-110)"
    />
  
  <line
    x1="100"
    y1="85.96216707021792"
    x2="100.02807696076478"
    y2="86.92827852100474"
    stroke="hsla(0,50%,50%,0.6)"
    stroke-width="1"
    transform="translate(-61.1466434739,-82.1594427627) scale(1,-1) translate(50,-110)"
    />
  
  <line
    x1="99.96982277480924"
    y1="86.0161668831341"
    x2="99.98226947452093"
    y2="86.96308817464819"
    stroke="hsla(0,50%,50%,0.6)"
    stroke-width="1"
    transform="translate(-61.1466434739,-82.1594427627) scale(1,-1) translate(50,-110)"
    />
  
  <line
    x1="100"
    y1="85.96216707021792"
    x2="100"
    y2="86.94961453744493"
    stroke="hsla(0,50%,50%,0.6)"
    stroke-width="1"
    transform="translate(-61.1466434739,-82.1594427627) scale(1,-1) translate(50,-110)"
    />
  
  <line
    x1="50.42168405067338"
    y1="86.68243316149143"
    x2="49.915719404914014"
    y2="125.00925507776358"
    stroke="hsla(0,50%,50%,0.6)"
    stroke-width="1"
    transform="translate(-61.1466434739,-82.1594427627) scale(1,-1) translate(50,-110)"
    />
  
  <line
    x1="60.23262955223805"
    y1="77.30948325978497"
    x2="49.807883506444746"
    y2="124.98080307298254"
    stroke="hsla(0,50%,50%,0.6)"
    stroke-width="1"
    transform="translate(-61.1466434739,-82.1594427627) scale(1,-1) translate(50,-110)"
    />
  
  <line
    x1="88.17377962264342"
    y1="83.23845326445655"
    x2="84.52488933623127"
    y2="98.70933519603571"
    stroke="hsla(0,50%,50%,0.6)"
    stroke-width="1"
    transform="translate(-61.1466434739,-82.1594427627) scale(1,-1) translate(50,-110)"
    />
  
  <line
    x1="64.9705871620982"
    y1="76.07524510239983"
    x2="49.807883506444746"
    y2="124.98080307298254"
    stroke="hsla(0,50%,50%,0.6)"
    stroke-width="1"
    transform="translate(-61.1466434739,-82.1594427627) scale(1,-1) translate(50,-110)"
    />
  
  <line
    x1="86.27559261424886"
    y1="82.64179700608024"
    x2="81.73228395160059"
    y2="100.83146924382774"
    stroke="hsla(0,50%,50%,0.6)"
    stroke-width="1"
    transform="translate(-61.1466434739,-82.1594427627) scale(1,-1) translate(50,-110)"
    />
  
  <line
    x1="97.75735943326119"
    y1="85.49879184338651"
    x2="96.89173326184039"
    y2="89.31162340234597"
    stroke="hsla(0,50%,50%,0.6)"
    stroke-width="1"
    transform="translate(-61.1466434739,-82.1594427627) scale(1,-1) translate(50,-110)"
    />
  
  <line
    x1="98.4855317322438"
    y1="85.69152332550642"
    x2="97.79851123917473"
    y2="88.62255203190466"
    stroke="hsla(0,50%,50%,0.6)"
    stroke-width="1"
    transform="translate(-61.1466434739,-82.1594427627) scale(1,-1) translate(50,-110)"
    />
  
  <line
    x1="87.42648958451872"
    y1="83.45398919238116"
    x2="82.82644927536232"
    y2="100"
    stroke="hsla(0,50%,50%,0.6)"
    stroke-width="1"
    transform="translate(-61.1466434739,-82.1594427627) scale(1,-1) translate(50,-110)"
    />
  
  <line
    x1="90.63593785997585"
    y1="84.23183444036887"
    x2="86.9419701367622"
    y2="96.87256674629305"
    stroke="hsla(0,50%,50%,0.6)"
    stroke-width="1"
    transform="translate(-61.1466434739,-82.1594427627) scale(1,-1) translate(50,-110)"
    />
  
  <line
    x1="64.9705871620982"
    y1="76.07524510239983"
    x2="99.99778893850015"
    y2="86.95129474937764"
    stroke="hsla(0,50%,50%,0.6)"
    stroke-width="1"
    transform="translate(-61.1466434739,-82.1594427627) scale(1,-1) translate(50,-110)"
    />
  
  <line
    x1="64.9705871620982"
    y1="76.07524510239983"
    x2="100.02807696076478"
    y2="86.92827852100474"
    stroke="hsla(0,50%,50%,0.6)"
    stroke-width="1"
    transform="translate(-61.1466434739,-82.1594427627) scale(1,-1) translate(50,-110)"
    />
  
  <line
    x1="90.63593785997585"
    y1="84.23183444036887"
    x2="99.98226947452093"
    y2="86.96308817464819"
    stroke="hsla(0,50%,50%,0.6)"
    stroke-width="1"
    transform="translate(-61.1466434739,-82.1594427627) scale(1,-1) translate(50,-110)"
    />
  
  <line
    x1="87.42648958451872"
    y1="83.45398919238116"
    x2="100"
    y2="86.94961453744493"
    stroke="hsla(0,50%,50%,0.6)"
    stroke-width="1"
    transform="translate(-61.1466434739,-82.1594427627) scale(1,-1) translate(50,-110)"
    />
  
  <line
    x1="86.27559261424886"
    y1="82.64179700608024"
    x2="98.4855317322438"
    y2="85.69152332550642"
    stroke="hsla(0,50%,50%,0.6)"
    stroke-width="1"
    transform="translate(-61.1466434739,-82.1594427627) scale(1,-1) translate(50,-110)"
    />
  
  <line
    x1="88.17377962264342"
    y1="83.23845326445655"
    x2="97.75735943326119"
    y2="85.49879184338651"
    stroke="hsla(0,50%,50%,0.6)"
    stroke-width="1"
    transform="translate(-61.1466434739,-82.1594427627) scale(1,-1) translate(50,-110)"
    />
  
  <line
    x1="60.23262955223805"
    y1="77.30948325978497"
    x2="98.4855317322438"
    y2="85.69152332550642"
    stroke="hsla(0,50%,50%,0.6)"
    stroke-width="1"
    transform="translate(-61.1466434739,-82.1594427627) scale(1,-1) translate(50,-110)"
    />
  
  <line
    x1="60.23262955223805"
    y1="77.30948325978497"
    x2="97.75735943326119"
    y2="85.49879184338651"
    stroke="hsla(0,50%,50%,0.6)"
    stroke-width="1"
    transform="translate(-61.1466434739,-82.1594427627) scale(1,-1) translate(50,-110)"
    />
  
  <line
    x1="50.41639940449684"
    y1="87.08274510936387"
    x2="96.89173326184039"
    y2="89.31162340234597"
    stroke="hsla(0,50%,50%,0.6)"
    stroke-width="1"
    transform="translate(-61.1466434739,-82.1594427627) scale(1,-1) translate(50,-110)"
    />
  
  <line
    x1="50.42168405067338"
    y1="86.68243316149143"
    x2="97.79851123917473"
    y2="88.62255203190466"
    stroke="hsla(0,50%,50%,0.6)"
    stroke-width="1"
    transform="translate(-61.1466434739,-82.1594427627) scale(1,-1) translate(50,-110)"
    />
  
  <line
    x1="100"
    y1="85.96216707021792"
    x2="50.42168405067338"
    y2="86.68243316149143"
    stroke="hsla(0,50%,50%,0.6)"
    stroke-width="1"
    transform="translate(-61.1466434739,-82.1594427627) scale(1,-1) translate(50,-110)"
    />
  
  <line
    x1="99.96982277480924"
    y1="86.0161668831341"
    x2="50.41639940449684"
    y2="87.08274510936387"
    stroke="hsla(0,50%,50%,0.6)"
    stroke-width="1"
    transform="translate(-61.1466434739,-82.1594427627) scale(1,-1) translate(50,-110)"
    />
  
  <line
    x1="50.280799269224985"
    y1="97.35445535620786"
    x2="84.52488933623127"
    y2="98.70933519603571"
    stroke="hsla(0,50%,50%,0.6)"
    stroke-width="1"
    transform="translate(-61.1466434739,-82.1594427627) scale(1,-1) translate(50,-110)"
    />
  
  <line
    x1="86.9419701367622"
    y1="96.87256674629305"
    x2="50.280799269224985"
    y2="97.35445535620786"
    stroke="hsla(0,50%,50%,0.6)"
    stroke-width="1"
    transform="translate(-61.1466434739,-82.1594427627) scale(1,-1) translate(50,-110)"
    />
  
  <line
    x1="50.245874587458744"
    y1="100"
    x2="81.73228395160059"
    y2="100.83146924382774"
    stroke="hsla(0,50%,50%,0.6)"
    stroke-width="1"
    transform="translate(-61.1466434739,-82.1594427627) scale(1,-1) translate(50,-110)"
    />
  
  <line
    x1="50.245874587458744"
    y1="100"
    x2="82.82644927536232"
    y2="100"
    stroke="hsla(0,50%,50%,0.6)"
    stroke-width="1"
    transform="translate(-61.1466434739,-82.1594427627) scale(1,-1) translate(50,-110)"
    />
  
  <line
    x1="100.02807696076478"
    y1="86.92827852100474"
    x2="49.915719404914014"
    y2="125.00925507776358"
    stroke="hsla(0,50%,50%,0.6)"
    stroke-width="1"
    transform="translate(-61.1466434739,-82.1594427627) scale(1,-1) translate(50,-110)"
    />
  
  <line
    x1="49.807883506444746"
    y1="124.98080307298254"
    x2="49.915719404914014"
    y2="125.00925507776358"
    stroke="hsla(0,50%,50%,0.6)"
    stroke-width="1"
    transform="translate(-61.1466434739,-82.1594427627) scale(1,-1) translate(50,-110)"
    />
  
</svg>
