<?xml version="1.0"?>
<!DOCTYPE svg PUBLIC "-//W3C//DTD SVG 1.1//EN"
  "http://www.w3.org/Graphics/SVG/1.1/DTD/svg11.dtd">
<svg
  width="240"
  height="240"
  viewBox="-50 -50 200 200" xmlns="http://www.w3.org/2000/svg" version="1.1">
  <rect
    x="0"
    y="0"
    width="100"
    height="100"
    fill="hsla(206,100%,53%,0.3)"
    stroke="hsl(206,100%,53%)"
    stroke-width="3"
    transform="" />
  
  <path
    d="M 
      50.7743121413
      49.8478240864
      L
    
      51.1289246156
      50.2027190746
      L
    
      51.1281753858
      50.5031753858
      L
    
      100
      99.375
      L
    
      100
      100
      L
    
      99.8733439084
      100
      L
    
      99.9805722966
      100.1073192351
      L
    
      99.9798442357
      100.2518383985
      L
    
      99.8560791999
      100.2512148931
      L
    
      99.8512267646
      100.7769997279
      L
    
      50.4966879454
      100.3215097767
      L
    
      50.6228125
      49.9978125
      z
    "
    fill="hsla(0,0%,50%,0.3)"
    stroke="hsla(0,0%,50%,1)"
    stroke-width="1"
    transform="translate(-62.8104384043,-75.1032955123) scale(1,-1) translate(50,-110)"
    />
  
  
  <line
    x1="50.77431214136339"
    y1="49.847824086449556"
    x2="51.12890817027769"
    y2="50.209313986278126"
    stroke="hsla(0,50%,50%,0.6)"
    stroke-width="1"
    transform="translate(-62.8104384043,-75.1032955123) scale(1,-1) translate(50,-110)"
    />
  
  <line
    x1="50.77431214136339"
    y1="49.847824086449556"
    x2="51.12892461561088"
    y2="50.202719074603536"
    stroke="hsla(0,50%,50%,0.6)"
    stroke-width="1"
    transform="translate(-62.8104384043,-75.1032955123) scale(1,-1) translate(50,-110)"
    />
  
  <line
    x1="50.62099759509493"
    y1="50.72195955712288"
    x2="98.58389641130529"
    y2="99.61979794014628"
    stroke="hsla(0,50%,50%,0.6)"
    stroke-width="1"
    transform="translate(-62.8104384043,-75.1032955123) scale(1,-1) translate(50,-110)"
    />
  
  <line
    x1="50.6228125"
    y1="49.9978125"
    x2="100"
    y2="99.375"
    stroke="hsla(0,50%,50%,0.6)"
    stroke-width="1"
    transform="translate(-62.8104384043,-75.1032955123) scale(1,-1) translate(50,-110)"
    />
  
  <line
    x1="100"
    y1="99.375"
    x2="100"
    y2="100"
    stroke="hsla(0,50%,50%,0.6)"
    stroke-width="1"
    transform="translate(-62.8104384043,-75.1032955123) scale(1,-1) translate(50,-110)"
    />
  
  <line
    x1="50.62103767970229"
    y1="50.70596579878597"
    x2="99.98057229663038"
    y2="100.10731923510988"
    stroke="hsla(0,50%,50%,0.6)"
    stroke-width="1"
    transform="translate(-62.8104384043,-75.1032955123) scale(1,-1) translate(50,-110)"
    />
  
  <line
    x1="50.6228125"
    y1="49.9978125"
    x2="50.49668794542175"
    y2="100.3215097767225"
    stroke="hsla(0,50%,50%,0.6)"
    stroke-width="1"
    transform="translate(-62.8104384043,-75.1032955123) scale(1,-1) translate(50,-110)"
    />
  
  <line
    x1="51.12892461561088"
    y1="50.202719074603536"
    x2="51.00395174551911"
    y2="100.3193710614442"
    stroke="hsla(0,50%,50%,0.6)"
    stroke-width="1"
    transform="translate(-62.8104384043,-75.1032955123) scale(1,-1) translate(50,-110)"
    />
  
  <line
    x1="99.98057229663038"
    y1="100.10731923510988"
    x2="99.97984423577184"
    y2="100.25183839857877"
    stroke="hsla(0,50%,50%,0.6)"
    stroke-width="1"
    transform="translate(-62.8104384043,-75.1032955123) scale(1,-1) translate(50,-110)"
    />
  
  <line
    x1="99.86540787469247"
    y1="99.24040787469247"
    x2="99.8512267646039"
    y2="100.77699972798433"
    stroke="hsla(0,50%,50%,0.6)"
    stroke-width="1"
    transform="translate(-62.8104384043,-75.1032955123) scale(1,-1) translate(50,-110)"
    />
  
  <line
    x1="98.58389641130529"
    y1="99.61979794014628"
    x2="98.57285292621054"
    y2="100.39383333638472"
    stroke="hsla(0,50%,50%,0.6)"
    stroke-width="1"
    transform="translate(-62.8104384043,-75.1032955123) scale(1,-1) translate(50,-110)"
    />
  
  <line
    x1="51.12890817027769"
    y1="50.209313986278126"
    x2="50.62099759509493"
    y2="50.72195955712288"
    stroke="hsla(0,50%,50%,0.6)"
    stroke-width="1"
    transform="translate(-62.8104384043,-75.1032955123) scale(1,-1) translate(50,-110)"
    />
  
  <line
    x1="50.77431214136339"
    y1="49.847824086449556"
    x2="50.6228125"
    y2="49.9978125"
    stroke="hsla(0,50%,50%,0.6)"
    stroke-width="1"
    transform="translate(-62.8104384043,-75.1032955123) scale(1,-1) translate(50,-110)"
    />
  
  <line
    x1="51.12892461561088"
    y1="50.202719074603536"
    x2="50.62103767970229"
    y2="50.70596579878597"
    stroke="hsla(0,50%,50%,0.6)"
    stroke-width="1"
    transform="translate(-62.8104384043,-75.1032955123) scale(1,-1) translate(50,-110)"
    />
  
  <line
    x1="50.49825560342177"
    y1="99.69601423471455"
    x2="51.00548815854392"
    y2="99.70323832146923"
    stroke="hsla(0,50%,50%,0.6)"
    stroke-width="1"
    transform="translate(-62.8104384043,-75.1032955123) scale(1,-1) translate(50,-110)"
    />
  
  <line
    x1="50.49822573276919"
    y1="99.70793262509135"
    x2="98.57285292621054"
    y2="100.39383333638472"
    stroke="hsla(0,50%,50%,0.6)"
    stroke-width="1"
    transform="translate(-62.8104384043,-75.1032955123) scale(1,-1) translate(50,-110)"
    />
  
  <line
    x1="50.49906015037594"
    y1="99.375"
    x2="51.006300326372745"
    y2="99.377542573244"
    stroke="hsla(0,50%,50%,0.6)"
    stroke-width="1"
    transform="translate(-62.8104384043,-75.1032955123) scale(1,-1) translate(50,-110)"
    />
  
  <line
    x1="50.49905374590933"
    y1="99.37755538217763"
    x2="98.58389641130529"
    y2="99.61979794014628"
    stroke="hsla(0,50%,50%,0.6)"
    stroke-width="1"
    transform="translate(-62.8104384043,-75.1032955123) scale(1,-1) translate(50,-110)"
    />
  
  <line
    x1="50.49906015037594"
    y1="99.375"
    x2="100"
    y2="99.375"
    stroke="hsla(0,50%,50%,0.6)"
    stroke-width="1"
    transform="translate(-62.8104384043,-75.1032955123) scale(1,-1) translate(50,-110)"
    />
  
  <line
    x1="51.006300326372745"
    y1="99.377542573244"
    x2="50.49905374590933"
    y2="99.37755538217763"
    stroke="hsla(0,50%,50%,0.6)"
    stroke-width="1"
    transform="translate(-62.8104384043,-75.1032955123) scale(1,-1) translate(50,-110)"
    />
  
  <line
    x1="50.49749373433584"
    y1="100"
    x2="51.0047418014982"
    y2="100.00254261279896"
    stroke="hsla(0,50%,50%,0.6)"
    stroke-width="1"
    transform="translate(-62.8104384043,-75.1032955123) scale(1,-1) translate(50,-110)"
    />
  
  <line
    x1="50.4974873297696"
    y1="100.00255542193186"
    x2="99.97984423577184"
    y2="100.25183839857877"
    stroke="hsla(0,50%,50%,0.6)"
    stroke-width="1"
    transform="translate(-62.8104384043,-75.1032955123) scale(1,-1) translate(50,-110)"
    />
  
  <line
    x1="50.49670500620791"
    y1="100.31470252304484"
    x2="51.00395174551911"
    y2="100.3193710614442"
    stroke="hsla(0,50%,50%,0.6)"
    stroke-width="1"
    transform="translate(-62.8104384043,-75.1032955123) scale(1,-1) translate(50,-110)"
    />
  
  <line
    x1="50.49668794542175"
    y1="100.3215097767225"
    x2="99.8512267646039"
    y2="100.77699972798433"
    stroke="hsla(0,50%,50%,0.6)"
    stroke-width="1"
    transform="translate(-62.8104384043,-75.1032955123) scale(1,-1) translate(50,-110)"
    />
  
  <line
    x1="50.49749373433584"
    y1="100"
    x2="100"
    y2="100"
    stroke="hsla(0,50%,50%,0.6)"
    stroke-width="1"
    transform="translate(-62.8104384043,-75.1032955123) scale(1,-1) translate(50,-110)"
    />
  
  <line
    x1="51.0047418014982"
    y1="100.00254261279896"
    x2="50.4974873297696"
    y2="100.00255542193186"
    stroke="hsla(0,50%,50%,0.6)"
    stroke-width="1"
    transform="translate(-62.8104384043,-75.1032955123) scale(1,-1) translate(50,-110)"
    />
  
  <line
    x1="99.86540787469247"
    y1="99.24040787469247"
    x2="50.49825560342177"
    y2="99.69601423471455"
    stroke="hsla(0,50%,50%,0.6)"
    stroke-width="1"
    transform="translate(-62.8104384043,-75.1032955123) scale(1,-1) translate(50,-110)"
    />
  
  <line
    x1="51.00548815854392"
    y1="99.70323832146923"
    x2="50.49822573276919"
    y2="99.70793262509135"
    stroke="hsla(0,50%,50%,0.6)"
    stroke-width="1"
    transform="translate(-62.8104384043,-75.1032955123) scale(1,-1) translate(50,-110)"
    />
  
  <line
    x1="99.98057229663038"
    y1="100.10731923510988"
    x2="50.49670500620791"
    y2="100.31470252304484"
    stroke="hsla(0,50%,50%,0.6)"
    stroke-width="1"
    transform="translate(-62.8104384043,-75.1032955123) scale(1,-1) translate(50,-110)"
    />
  
  <line
    x1="51.00395174551911"
    y1="100.3193710614442"
    x2="50.49668794542175"
    y2="100.3215097767225"
    stroke="hsla(0,50%,50%,0.6)"
    stroke-width="1"
    transform="translate(-62.8104384043,-75.1032955123) scale(1,-1) translate(50,-110)"
    />
  
</svg>
