<?xml version="1.0"?>
<!DOCTYPE svg PUBLIC "-//W3C//DTD SVG 1.1//EN"
  "http://www.w3.org/Graphics/SVG/1.1/DTD/svg11.dtd">
<svg
  width="240"
  height="240"
  viewBox="-50 -50 200 200" xmlns="http://www.w3.org/2000/svg" version="1.1">
  <rect
    x="0"
    y="0"
    width="100"
    height="100"
    fill="hsla(206,100%,53%,0.3)"
    stroke="hsl(206,100%,53%)"
    stroke-width="3"
    transform="" />
  
  <path
    d="M 
      -26.4674492191
      89.7755231193
      L
    
      -16.3119768906
      95.6810606621
      L
    
      -6.6614173228
      121.0137795275
      L
    
      -18.5567010309
      131.7525773195
      L
    
      -28.3767160615
      120.8750222087
      L
    
      -35.2916299559
      120.8308370044
      L
    
      -41.7055524054
      100.7894447594
      z
    "
    fill="hsla(0,0%,50%,0.3)"
    stroke="hsla(0,0%,50%,1)"
    stroke-width="1"
    transform="translate(35.2591648381,-110.6257852212) scale(1,-1) translate(50,-110)"
    />
  
  
  <line
    x1="-26.46744921914872"
    y1="89.77552311932224"
    x2="-29.71579054812698"
    y2="119.59914259467183"
    stroke="hsla(0,50%,50%,0.6)"
    stroke-width="1"
    transform="translate(35.2591648381,-110.6257852212) scale(1,-1) translate(50,-110)"
    />
  
  <line
    x1="-9.064516129032258"
    y1="114.70564516129032"
    x2="-9.83337756456058"
    y2="121.76470348065735"
    stroke="hsla(0,50%,50%,0.6)"
    stroke-width="1"
    transform="translate(35.2591648381,-110.6257852212) scale(1,-1) translate(50,-110)"
    />
  
  <line
    x1="-16.311976890600697"
    y1="95.68106066217317"
    x2="-19.463917525773194"
    y2="105.31729667812142"
    stroke="hsla(0,50%,50%,0.6)"
    stroke-width="1"
    transform="translate(35.2591648381,-110.6257852212) scale(1,-1) translate(50,-110)"
    />
  
  <line
    x1="-16.311976890600697"
    y1="95.68106066217317"
    x2="-6.661417322834645"
    y2="121.01377952755905"
    stroke="hsla(0,50%,50%,0.6)"
    stroke-width="1"
    transform="translate(35.2591648381,-110.6257852212) scale(1,-1) translate(50,-110)"
    />
  
  <line
    x1="-41.70555240546081"
    y1="100.78944475945391"
    x2="-35.29162995594714"
    y2="120.83083700440528"
    stroke="hsla(0,50%,50%,0.6)"
    stroke-width="1"
    transform="translate(35.2591648381,-110.6257852212) scale(1,-1) translate(50,-110)"
    />
  
  <line
    x1="-26.46744921914872"
    y1="89.77552311932224"
    x2="-41.70555240546081"
    y2="100.78944475945391"
    stroke="hsla(0,50%,50%,0.6)"
    stroke-width="1"
    transform="translate(35.2591648381,-110.6257852212) scale(1,-1) translate(50,-110)"
    />
  
  <line
    x1="-14.299212598425196"
    y1="100.96456692913385"
    x2="-31.95876288659794"
    y2="116.90721649484536"
    stroke="hsla(0,50%,50%,0.6)"
    stroke-width="1"
    transform="translate(35.2591648381,-110.6257852212) scale(1,-1) translate(50,-110)"
    />
  
  <line
    x1="-12.89733244545419"
    y1="104.64450233068276"
    x2="-35.29162995594714"
    y2="120.83083700440528"
    stroke="hsla(0,50%,50%,0.6)"
    stroke-width="1"
    transform="translate(35.2591648381,-110.6257852212) scale(1,-1) translate(50,-110)"
    />
  
  <line
    x1="-6.661417322834645"
    y1="121.01377952755905"
    x2="-18.556701030927837"
    y2="131.75257731958763"
    stroke="hsla(0,50%,50%,0.6)"
    stroke-width="1"
    transform="translate(35.2591648381,-110.6257852212) scale(1,-1) translate(50,-110)"
    />
  
  <line
    x1="-19.463917525773194"
    y1="105.31729667812142"
    x2="-9.064516129032258"
    y2="114.70564516129032"
    stroke="hsla(0,50%,50%,0.6)"
    stroke-width="1"
    transform="translate(35.2591648381,-110.6257852212) scale(1,-1) translate(50,-110)"
    />
  
  <line
    x1="-31.95876288659794"
    y1="116.90721649484536"
    x2="-18.556701030927837"
    y2="131.75257731958763"
    stroke="hsla(0,50%,50%,0.6)"
    stroke-width="1"
    transform="translate(35.2591648381,-110.6257852212) scale(1,-1) translate(50,-110)"
    />
  
  <line
    x1="-26.46744921914872"
    y1="89.77552311932224"
    x2="-16.311976890600697"
    y2="95.68106066217317"
    stroke="hsla(0,50%,50%,0.6)"
    stroke-width="1"
    transform="translate(35.2591648381,-110.6257852212) scale(1,-1) translate(50,-110)"
    />
  
  <line
    x1="-41.70555240546081"
    y1="100.78944475945391"
    x2="-14.299212598425196"
    y2="100.96456692913385"
    stroke="hsla(0,50%,50%,0.6)"
    stroke-width="1"
    transform="translate(35.2591648381,-110.6257852212) scale(1,-1) translate(50,-110)"
    />
  
  <line
    x1="-12.89733244545419"
    y1="104.64450233068276"
    x2="-19.463917525773194"
    y2="105.31729667812142"
    stroke="hsla(0,50%,50%,0.6)"
    stroke-width="1"
    transform="translate(35.2591648381,-110.6257852212) scale(1,-1) translate(50,-110)"
    />
  
  <line
    x1="-35.29162995594714"
    y1="120.83083700440528"
    x2="-6.661417322834645"
    y2="121.01377952755905"
    stroke="hsla(0,50%,50%,0.6)"
    stroke-width="1"
    transform="translate(35.2591648381,-110.6257852212) scale(1,-1) translate(50,-110)"
    />
  
  <line
    x1="-29.71579054812698"
    y1="119.59914259467183"
    x2="-9.83337756456058"
    y2="121.76470348065735"
    stroke="hsla(0,50%,50%,0.6)"
    stroke-width="1"
    transform="translate(35.2591648381,-110.6257852212) scale(1,-1) translate(50,-110)"
    />
  
</svg>
