<?xml version="1.0"?>
<!DOCTYPE svg PUBLIC "-//W3C//DTD SVG 1.1//EN"
  "http://www.w3.org/Graphics/SVG/1.1/DTD/svg11.dtd">
<svg
  width="240"
  height="240"
  viewBox="-50 -50 200 200" xmlns="http://www.w3.org/2000/svg" version="1.1">
  <rect
    x="0"
    y="0"
    width="100"
    height="100"
    fill="hsla(206,100%,53%,0.3)"
    stroke="hsl(206,100%,53%)"
    stroke-width="3"
    transform="" />
  
  <path
    d="M 
      68.7109616978
      2.0587613041
      L
    
      74.6176734883
      5.9802995638
      L
    
      90.7749151800
      3.7199600525
      L
    
      98.9416093737
      22.3033560239
      L
    
      95.5056897430
      26.3448400340
      L
    
      96.4505193640
      28.3259565011
      L
    
      107.3933202996
      35.7397935392
      L
    
      108.4295887564
      45.3074154135
      L
    
      94.5348191321
      60.2067703272
      L
    
      46.9741393477
      33.7072647509
      L
    
      41.7414472086
      10.5795643801
      z
    "
    fill="hsla(0,0%,50%,0.3)"
    stroke="hsla(0,0%,50%,1)"
    stroke-width="1"
    transform="translate(-57.5209337437,-25.9416774900) scale(1,-1) translate(50,-110)"
    />
  
  
  <line
    x1="89.09001156890943"
    y1="3.9556719566810647"
    x2="90.59357133939577"
    y2="5.044475577154471"
    stroke="hsla(0,50%,50%,0.6)"
    stroke-width="1"
    transform="translate(-57.5209337437,-25.9416774900) scale(1,-1) translate(50,-110)"
    />
  
  <line
    x1="87.3781883699569"
    y1="6.133964530488235"
    x2="94.18734418608659"
    y2="11.484977076503169"
    stroke="hsla(0,50%,50%,0.6)"
    stroke-width="1"
    transform="translate(-57.5209337437,-25.9416774900) scale(1,-1) translate(50,-110)"
    />
  
  <line
    x1="93.62140766132221"
    y1="18.856032818032254"
    x2="98.25557035518969"
    y2="23.110306133933975"
    stroke="hsla(0,50%,50%,0.6)"
    stroke-width="1"
    transform="translate(-57.5209337437,-25.9416774900) scale(1,-1) translate(50,-110)"
    />
  
  <line
    x1="87.6165157133532"
    y1="6.146786940819265"
    x2="90.22373381969783"
    y2="7.745728262078565"
    stroke="hsla(0,50%,50%,0.6)"
    stroke-width="1"
    transform="translate(-57.5209337437,-25.9416774900) scale(1,-1) translate(50,-110)"
    />
  
  <line
    x1="96.39430417175184"
    y1="21.646305992989053"
    x2="98.25557035518969"
    y2="23.110306133933975"
    stroke="hsla(0,50%,50%,0.6)"
    stroke-width="1"
    transform="translate(-57.5209337437,-25.9416774900) scale(1,-1) translate(50,-110)"
    />
  
  <line
    x1="90.77491518003721"
    y1="3.7199600525336542"
    x2="98.94160937376117"
    y2="22.303356023966746"
    stroke="hsla(0,50%,50%,0.6)"
    stroke-width="1"
    transform="translate(-57.5209337437,-25.9416774900) scale(1,-1) translate(50,-110)"
    />
  
  <line
    x1="90.97166975112617"
    y1="16.83791786601149"
    x2="100.76159867799113"
    y2="37.36541719400003"
    stroke="hsla(0,50%,50%,0.6)"
    stroke-width="1"
    transform="translate(-57.5209337437,-25.9416774900) scale(1,-1) translate(50,-110)"
    />
  
  <line
    x1="68.71096169787118"
    y1="2.058761304180035"
    x2="90.97166975112617"
    y2="16.83791786601149"
    stroke="hsla(0,50%,50%,0.6)"
    stroke-width="1"
    transform="translate(-57.5209337437,-25.9416774900) scale(1,-1) translate(50,-110)"
    />
  
  <line
    x1="87.81388219996043"
    y1="4.13419782694854"
    x2="93.62140766132221"
    y2="18.856032818032254"
    stroke="hsla(0,50%,50%,0.6)"
    stroke-width="1"
    transform="translate(-57.5209337437,-25.9416774900) scale(1,-1) translate(50,-110)"
    />
  
  <line
    x1="85.04432803922228"
    y1="20.598168688348334"
    x2="107.3933202997"
    y2="35.739793539285806"
    stroke="hsla(0,50%,50%,0.6)"
    stroke-width="1"
    transform="translate(-57.5209337437,-25.9416774900) scale(1,-1) translate(50,-110)"
    />
  
  <line
    x1="53.98106868312228"
    y1="6.712553561311967"
    x2="62.55755730121083"
    y2="17.798961449947875"
    stroke="hsla(0,50%,50%,0.6)"
    stroke-width="1"
    transform="translate(-57.5209337437,-25.9416774900) scale(1,-1) translate(50,-110)"
    />
  
  <line
    x1="81.87235044759991"
    y1="44.29401642430045"
    x2="87.81755728446"
    y2="51.016707134234224"
    stroke="hsla(0,50%,50%,0.6)"
    stroke-width="1"
    transform="translate(-57.5209337437,-25.9416774900) scale(1,-1) translate(50,-110)"
    />
  
  <line
    x1="63.33644246877186"
    y1="24.826631638432456"
    x2="69.55890639136942"
    y2="46.29087715776924"
    stroke="hsla(0,50%,50%,0.6)"
    stroke-width="1"
    transform="translate(-57.5209337437,-25.9416774900) scale(1,-1) translate(50,-110)"
    />
  
  <line
    x1="57.20797188261573"
    y1="26.595110645201814"
    x2="61.614163031682"
    y2="41.86428418397251"
    stroke="hsla(0,50%,50%,0.6)"
    stroke-width="1"
    transform="translate(-57.5209337437,-25.9416774900) scale(1,-1) translate(50,-110)"
    />
  
  <line
    x1="107.3933202997"
    y1="35.739793539285806"
    x2="108.4295887564581"
    y2="45.30741541352712"
    stroke="hsla(0,50%,50%,0.6)"
    stroke-width="1"
    transform="translate(-57.5209337437,-25.9416774900) scale(1,-1) translate(50,-110)"
    />
  
  <line
    x1="100.39450619140582"
    y1="30.998039799604054"
    x2="102.59628157670157"
    y2="51.562467950709774"
    stroke="hsla(0,50%,50%,0.6)"
    stroke-width="1"
    transform="translate(-57.5209337437,-25.9416774900) scale(1,-1) translate(50,-110)"
    />
  
  <line
    x1="41.74144720863259"
    y1="10.579564380139482"
    x2="46.9741393477984"
    y2="33.70726475095628"
    stroke="hsla(0,50%,50%,0.6)"
    stroke-width="1"
    transform="translate(-57.5209337437,-25.9416774900) scale(1,-1) translate(50,-110)"
    />
  
  <line
    x1="96.39430417175184"
    y1="21.646305992989053"
    x2="98.94160937376117"
    y2="22.303356023966746"
    stroke="hsla(0,50%,50%,0.6)"
    stroke-width="1"
    transform="translate(-57.5209337437,-25.9416774900) scale(1,-1) translate(50,-110)"
    />
  
  <line
    x1="88.37368167468262"
    y1="44.54210104882091"
    x2="88.39121242622645"
    y2="46.40666803906551"
    stroke="hsla(0,50%,50%,0.6)"
    stroke-width="1"
    transform="translate(-57.5209337437,-25.9416774900) scale(1,-1) translate(50,-110)"
    />
  
  <line
    x1="53.98106868312228"
    y1="6.712553561311967"
    x2="53.591493994876295"
    y2="15.102153244785672"
    stroke="hsla(0,50%,50%,0.6)"
    stroke-width="1"
    transform="translate(-57.5209337437,-25.9416774900) scale(1,-1) translate(50,-110)"
    />
  
  <line
    x1="79.61035052533093"
    y1="46.48922613922005"
    x2="79.40213702555869"
    y2="51.77525514105972"
    stroke="hsla(0,50%,50%,0.6)"
    stroke-width="1"
    transform="translate(-57.5209337437,-25.9416774900) scale(1,-1) translate(50,-110)"
    />
  
  <line
    x1="46.9741393477984"
    y1="33.70726475095628"
    x2="94.53481913215293"
    y2="60.20677032727024"
    stroke="hsla(0,50%,50%,0.6)"
    stroke-width="1"
    transform="translate(-57.5209337437,-25.9416774900) scale(1,-1) translate(50,-110)"
    />
  
  <line
    x1="94.18734418608659"
    y1="11.484977076503169"
    x2="93.62140766132221"
    y2="18.856032818032254"
    stroke="hsla(0,50%,50%,0.6)"
    stroke-width="1"
    transform="translate(-57.5209337437,-25.9416774900) scale(1,-1) translate(50,-110)"
    />
  
  <line
    x1="88.37368167468262"
    y1="44.54210104882091"
    x2="87.81755728446"
    y2="51.016707134234224"
    stroke="hsla(0,50%,50%,0.6)"
    stroke-width="1"
    transform="translate(-57.5209337437,-25.9416774900) scale(1,-1) translate(50,-110)"
    />
  
  <line
    x1="87.81388219996043"
    y1="4.13419782694854"
    x2="87.6165157133532"
    y2="6.146786940819265"
    stroke="hsla(0,50%,50%,0.6)"
    stroke-width="1"
    transform="translate(-57.5209337437,-25.9416774900) scale(1,-1) translate(50,-110)"
    />
  
  <line
    x1="90.77491518003721"
    y1="3.7199600525336542"
    x2="90.22373381969783"
    y2="7.745728262078565"
    stroke="hsla(0,50%,50%,0.6)"
    stroke-width="1"
    transform="translate(-57.5209337437,-25.9416774900) scale(1,-1) translate(50,-110)"
    />
  
  <line
    x1="53.591493994876295"
    y1="15.102153244785672"
    x2="90.97166975112617"
    y2="16.83791786601149"
    stroke="hsla(0,50%,50%,0.6)"
    stroke-width="1"
    transform="translate(-57.5209337437,-25.9416774900) scale(1,-1) translate(50,-110)"
    />
  
  <line
    x1="90.77491518003721"
    y1="3.7199600525336542"
    x2="41.74144720863259"
    y2="10.579564380139482"
    stroke="hsla(0,50%,50%,0.6)"
    stroke-width="1"
    transform="translate(-57.5209337437,-25.9416774900) scale(1,-1) translate(50,-110)"
    />
  
  <line
    x1="68.71096169787118"
    y1="2.058761304180035"
    x2="41.74144720863259"
    y2="10.579564380139482"
    stroke="hsla(0,50%,50%,0.6)"
    stroke-width="1"
    transform="translate(-57.5209337437,-25.9416774900) scale(1,-1) translate(50,-110)"
    />
  
  <line
    x1="68.71096169787118"
    y1="2.058761304180035"
    x2="62.55755730121083"
    y2="17.798961449947875"
    stroke="hsla(0,50%,50%,0.6)"
    stroke-width="1"
    transform="translate(-57.5209337437,-25.9416774900) scale(1,-1) translate(50,-110)"
    />
  
  <line
    x1="85.04432803922228"
    y1="20.598168688348334"
    x2="75.65884532316247"
    y2="49.68959573099281"
    stroke="hsla(0,50%,50%,0.6)"
    stroke-width="1"
    transform="translate(-57.5209337437,-25.9416774900) scale(1,-1) translate(50,-110)"
    />
  
  <line
    x1="62.55755730121083"
    y1="17.798961449947875"
    x2="44.0796850912482"
    y2="20.914218838417614"
    stroke="hsla(0,50%,50%,0.6)"
    stroke-width="1"
    transform="translate(-57.5209337437,-25.9416774900) scale(1,-1) translate(50,-110)"
    />
  
  <line
    x1="100.76159867799113"
    y1="37.36541719400003"
    x2="94.53481913215293"
    y2="60.20677032727024"
    stroke="hsla(0,50%,50%,0.6)"
    stroke-width="1"
    transform="translate(-57.5209337437,-25.9416774900) scale(1,-1) translate(50,-110)"
    />
  
  <line
    x1="90.22373381969783"
    y1="7.745728262078565"
    x2="44.0796850912482"
    y2="20.914218838417614"
    stroke="hsla(0,50%,50%,0.6)"
    stroke-width="1"
    transform="translate(-57.5209337437,-25.9416774900) scale(1,-1) translate(50,-110)"
    />
  
  <line
    x1="90.59357133939577"
    y1="5.044475577154471"
    x2="87.6165157133532"
    y2="6.146786940819265"
    stroke="hsla(0,50%,50%,0.6)"
    stroke-width="1"
    transform="translate(-57.5209337437,-25.9416774900) scale(1,-1) translate(50,-110)"
    />
  
  <line
    x1="96.39430417175184"
    y1="21.646305992989053"
    x2="46.10057736665464"
    y2="29.846254162542262"
    stroke="hsla(0,50%,50%,0.6)"
    stroke-width="1"
    transform="translate(-57.5209337437,-25.9416774900) scale(1,-1) translate(50,-110)"
    />
  
  <line
    x1="63.33644246877186"
    y1="24.826631638432456"
    x2="57.20797188261573"
    y2="26.595110645201814"
    stroke="hsla(0,50%,50%,0.6)"
    stroke-width="1"
    transform="translate(-57.5209337437,-25.9416774900) scale(1,-1) translate(50,-110)"
    />
  
  <line
    x1="63.33644246877186"
    y1="24.826631638432456"
    x2="46.10057736665464"
    y2="29.846254162542262"
    stroke="hsla(0,50%,50%,0.6)"
    stroke-width="1"
    transform="translate(-57.5209337437,-25.9416774900) scale(1,-1) translate(50,-110)"
    />
  
  <line
    x1="81.87235044759991"
    y1="44.29401642430045"
    x2="108.4295887564581"
    y2="45.30741541352712"
    stroke="hsla(0,50%,50%,0.6)"
    stroke-width="1"
    transform="translate(-57.5209337437,-25.9416774900) scale(1,-1) translate(50,-110)"
    />
  
  <line
    x1="85.04432803922228"
    y1="20.598168688348334"
    x2="46.9741393477984"
    y2="33.70726475095628"
    stroke="hsla(0,50%,50%,0.6)"
    stroke-width="1"
    transform="translate(-57.5209337437,-25.9416774900) scale(1,-1) translate(50,-110)"
    />
  
  <line
    x1="89.09001156890943"
    y1="3.9556719566810647"
    x2="87.3781883699569"
    y2="6.133964530488235"
    stroke="hsla(0,50%,50%,0.6)"
    stroke-width="1"
    transform="translate(-57.5209337437,-25.9416774900) scale(1,-1) translate(50,-110)"
    />
  
  <line
    x1="88.39121242622645"
    y1="46.40666803906551"
    x2="79.61035052533093"
    y2="46.48922613922005"
    stroke="hsla(0,50%,50%,0.6)"
    stroke-width="1"
    transform="translate(-57.5209337437,-25.9416774900) scale(1,-1) translate(50,-110)"
    />
  
  <line
    x1="87.81755728446"
    y1="51.016707134234224"
    x2="102.59628157670157"
    y2="51.562467950709774"
    stroke="hsla(0,50%,50%,0.6)"
    stroke-width="1"
    transform="translate(-57.5209337437,-25.9416774900) scale(1,-1) translate(50,-110)"
    />
  
  <line
    x1="100.39450619140582"
    y1="30.998039799604054"
    x2="61.614163031682"
    y2="41.86428418397251"
    stroke="hsla(0,50%,50%,0.6)"
    stroke-width="1"
    transform="translate(-57.5209337437,-25.9416774900) scale(1,-1) translate(50,-110)"
    />
  
  <line
    x1="98.94160937376117"
    y1="22.303356023966746"
    x2="75.65884532316247"
    y2="49.68959573099281"
    stroke="hsla(0,50%,50%,0.6)"
    stroke-width="1"
    transform="translate(-57.5209337437,-25.9416774900) scale(1,-1) translate(50,-110)"
    />
  
  <line
    x1="107.3933202997"
    y1="35.739793539285806"
    x2="69.55890639136942"
    y2="46.29087715776924"
    stroke="hsla(0,50%,50%,0.6)"
    stroke-width="1"
    transform="translate(-57.5209337437,-25.9416774900) scale(1,-1) translate(50,-110)"
    />
  
  <line
    x1="81.87235044759991"
    y1="44.29401642430045"
    x2="79.61035052533093"
    y2="46.48922613922005"
    stroke="hsla(0,50%,50%,0.6)"
    stroke-width="1"
    transform="translate(-57.5209337437,-25.9416774900) scale(1,-1) translate(50,-110)"
    />
  
  <line
    x1="100.76159867799113"
    y1="37.36541719400003"
    x2="79.40213702555869"
    y2="51.77525514105972"
    stroke="hsla(0,50%,50%,0.6)"
    stroke-width="1"
    transform="translate(-57.5209337437,-25.9416774900) scale(1,-1) translate(50,-110)"
    />
  
  <line
    x1="108.4295887564581"
    y1="45.30741541352712"
    x2="94.53481913215293"
    y2="60.20677032727024"
    stroke="hsla(0,50%,50%,0.6)"
    stroke-width="1"
    transform="translate(-57.5209337437,-25.9416774900) scale(1,-1) translate(50,-110)"
    />
  
</svg>
