<?xml version="1.0"?>
<!DOCTYPE svg PUBLIC "-//W3C//DTD SVG 1.1//EN"
  "http://www.w3.org/Graphics/SVG/1.1/DTD/svg11.dtd">
<svg
  width="240"
  height="240"
  viewBox="-50 -50 200 200" xmlns="http://www.w3.org/2000/svg" version="1.1">
  <rect
    x="0"
    y="0"
    width="100"
    height="100"
    fill="hsla(206,100%,53%,0.3)"
    stroke="hsl(206,100%,53%)"
    stroke-width="3"
    transform="" />
  
  <path
    d="M 
      100.3740894218
      -5.5136443059
      L
    
      111.4243138862
      11.6020776784
      L
    
      108.7174254919
      20.8371194143
      L
    
      96.6389214499
      26.2055094945
      L
    
      95.9183374568
      27.2100787635
      L
    
      44.4698923740
      22.6388754548
      L
    
      41.7414472086
      10.5795643801
      L
    
      68.7109616978
      2.0587613041
      L
    
      71.9976449622
      4.2408305545
      z
    "
    fill="hsla(0,0%,50%,0.3)"
    stroke="hsla(0,0%,50%,1)"
    stroke-width="1"
    transform="translate(-67.3577356728,-6.8188298522) scale(1,-1) translate(50,-110)"
    />
  
  
  <line
    x1="100.37408942186151"
    y1="-5.513644305920524"
    x2="111.4243138862325"
    y2="11.602077678419258"
    stroke="hsla(0,50%,50%,0.6)"
    stroke-width="1"
    transform="translate(-67.3577356728,-6.8188298522) scale(1,-1) translate(50,-110)"
    />
  
  <line
    x1="83.99191355688066"
    y1="0.11777025912216889"
    x2="102.47620134409388"
    y2="18.06773228531414"
    stroke="hsla(0,50%,50%,0.6)"
    stroke-width="1"
    transform="translate(-67.3577356728,-6.8188298522) scale(1,-1) translate(50,-110)"
    />
  
  <line
    x1="89.09001156890943"
    y1="3.9556719566810647"
    x2="90.59357133939577"
    y2="5.044475577154471"
    stroke="hsla(0,50%,50%,0.6)"
    stroke-width="1"
    transform="translate(-67.3577356728,-6.8188298522) scale(1,-1) translate(50,-110)"
    />
  
  <line
    x1="87.3781883699569"
    y1="6.133964530488235"
    x2="94.18734418608659"
    y2="11.484977076503169"
    stroke="hsla(0,50%,50%,0.6)"
    stroke-width="1"
    transform="translate(-67.3577356728,-6.8188298522) scale(1,-1) translate(50,-110)"
    />
  
  <line
    x1="83.26489350351454"
    y1="5.357703208290607"
    x2="85.10442495616729"
    y2="7.9173347004245125"
    stroke="hsla(0,50%,50%,0.6)"
    stroke-width="1"
    transform="translate(-67.3577356728,-6.8188298522) scale(1,-1) translate(50,-110)"
    />
  
  <line
    x1="93.62140766132221"
    y1="18.856032818032254"
    x2="98.25557035518969"
    y2="23.110306133933975"
    stroke="hsla(0,50%,50%,0.6)"
    stroke-width="1"
    transform="translate(-67.3577356728,-6.8188298522) scale(1,-1) translate(50,-110)"
    />
  
  <line
    x1="87.6165157133532"
    y1="6.146786940819265"
    x2="90.22373381969783"
    y2="7.745728262078565"
    stroke="hsla(0,50%,50%,0.6)"
    stroke-width="1"
    transform="translate(-67.3577356728,-6.8188298522) scale(1,-1) translate(50,-110)"
    />
  
  <line
    x1="79.93954117830171"
    y1="1.5107835574648103"
    x2="94.85073920086109"
    y2="27.115222472550375"
    stroke="hsla(0,50%,50%,0.6)"
    stroke-width="1"
    transform="translate(-67.3577356728,-6.8188298522) scale(1,-1) translate(50,-110)"
    />
  
  <line
    x1="96.39430417175184"
    y1="21.646305992989053"
    x2="98.25557035518969"
    y2="23.110306133933975"
    stroke="hsla(0,50%,50%,0.6)"
    stroke-width="1"
    transform="translate(-67.3577356728,-6.8188298522) scale(1,-1) translate(50,-110)"
    />
  
  <line
    x1="90.77491518003721"
    y1="3.7199600525336542"
    x2="98.94160937376117"
    y2="22.303356023966746"
    stroke="hsla(0,50%,50%,0.6)"
    stroke-width="1"
    transform="translate(-67.3577356728,-6.8188298522) scale(1,-1) translate(50,-110)"
    />
  
  <line
    x1="90.97166975112617"
    y1="16.83791786601149"
    x2="95.91833745686274"
    y2="27.21007876358885"
    stroke="hsla(0,50%,50%,0.6)"
    stroke-width="1"
    transform="translate(-67.3577356728,-6.8188298522) scale(1,-1) translate(50,-110)"
    />
  
  <line
    x1="68.71096169787118"
    y1="2.058761304180035"
    x2="90.97166975112617"
    y2="16.83791786601149"
    stroke="hsla(0,50%,50%,0.6)"
    stroke-width="1"
    transform="translate(-67.3577356728,-6.8188298522) scale(1,-1) translate(50,-110)"
    />
  
  <line
    x1="87.81388219996043"
    y1="4.13419782694854"
    x2="93.62140766132221"
    y2="18.856032818032254"
    stroke="hsla(0,50%,50%,0.6)"
    stroke-width="1"
    transform="translate(-67.3577356728,-6.8188298522) scale(1,-1) translate(50,-110)"
    />
  
  <line
    x1="73.33593504672697"
    y1="3.7807899386469908"
    x2="108.71742549198693"
    y2="20.837119414330974"
    stroke="hsla(0,50%,50%,0.6)"
    stroke-width="1"
    transform="translate(-67.3577356728,-6.8188298522) scale(1,-1) translate(50,-110)"
    />
  
  <line
    x1="85.04432803922228"
    y1="20.598168688348334"
    x2="94.63521524897718"
    y2="27.096073131877763"
    stroke="hsla(0,50%,50%,0.6)"
    stroke-width="1"
    transform="translate(-67.3577356728,-6.8188298522) scale(1,-1) translate(50,-110)"
    />
  
  <line
    x1="53.98106868312228"
    y1="6.712553561311967"
    x2="62.55755730121083"
    y2="17.798961449947875"
    stroke="hsla(0,50%,50%,0.6)"
    stroke-width="1"
    transform="translate(-67.3577356728,-6.8188298522) scale(1,-1) translate(50,-110)"
    />
  
  <line
    x1="64.73520042455297"
    y1="6.73731431126788"
    x2="100.99223657616454"
    y2="24.27064292016265"
    stroke="hsla(0,50%,50%,0.6)"
    stroke-width="1"
    transform="translate(-67.3577356728,-6.8188298522) scale(1,-1) translate(50,-110)"
    />
  
  <line
    x1="48.886361403983386"
    y1="12.185392981344888"
    x2="72.01136864883112"
    y2="25.085940420018098"
    stroke="hsla(0,50%,50%,0.6)"
    stroke-width="1"
    transform="translate(-67.3577356728,-6.8188298522) scale(1,-1) translate(50,-110)"
    />
  
  <line
    x1="79.93954117830171"
    y1="1.5107835574648103"
    x2="83.27365035321395"
    y2="26.086596111522493"
    stroke="hsla(0,50%,50%,0.6)"
    stroke-width="1"
    transform="translate(-67.3577356728,-6.8188298522) scale(1,-1) translate(50,-110)"
    />
  
  <line
    x1="92.14176744144584"
    y1="2.34814575953093"
    x2="106.78520467832004"
    y2="4.416549120729428"
    stroke="hsla(0,50%,50%,0.6)"
    stroke-width="1"
    transform="translate(-67.3577356728,-6.8188298522) scale(1,-1) translate(50,-110)"
    />
  
  <line
    x1="83.26489350351454"
    y1="5.357703208290607"
    x2="91.89364714260242"
    y2="6.987108682206742"
    stroke="hsla(0,50%,50%,0.6)"
    stroke-width="1"
    transform="translate(-67.3577356728,-6.8188298522) scale(1,-1) translate(50,-110)"
    />
  
  <line
    x1="100.37408942186151"
    y1="-5.513644305920524"
    x2="102.47620134409388"
    y2="18.06773228531414"
    stroke="hsla(0,50%,50%,0.6)"
    stroke-width="1"
    transform="translate(-67.3577356728,-6.8188298522) scale(1,-1) translate(50,-110)"
    />
  
  <line
    x1="41.74144720863259"
    y1="10.579564380139482"
    x2="44.469892374065374"
    y2="22.638875454838562"
    stroke="hsla(0,50%,50%,0.6)"
    stroke-width="1"
    transform="translate(-67.3577356728,-6.8188298522) scale(1,-1) translate(50,-110)"
    />
  
  <line
    x1="47.345754796127885"
    y1="15.83190427003946"
    x2="63.426617203680905"
    y2="23.811723837691392"
    stroke="hsla(0,50%,50%,0.6)"
    stroke-width="1"
    transform="translate(-67.3577356728,-6.8188298522) scale(1,-1) translate(50,-110)"
    />
  
  <line
    x1="57.705947256766635"
    y1="20.990446630248538"
    x2="63.426617203680905"
    y2="23.811723837691392"
    stroke="hsla(0,50%,50%,0.6)"
    stroke-width="1"
    transform="translate(-67.3577356728,-6.8188298522) scale(1,-1) translate(50,-110)"
    />
  
  <line
    x1="85.10442495616729"
    y1="7.9173347004245125"
    x2="111.4243138862325"
    y2="11.602077678419258"
    stroke="hsla(0,50%,50%,0.6)"
    stroke-width="1"
    transform="translate(-67.3577356728,-6.8188298522) scale(1,-1) translate(50,-110)"
    />
  
  <line
    x1="96.39430417175184"
    y1="21.646305992989053"
    x2="98.94160937376117"
    y2="22.303356023966746"
    stroke="hsla(0,50%,50%,0.6)"
    stroke-width="1"
    transform="translate(-67.3577356728,-6.8188298522) scale(1,-1) translate(50,-110)"
    />
  
  <line
    x1="47.345754796127885"
    y1="15.83190427003946"
    x2="74.1384284648025"
    y2="25.274930055235064"
    stroke="hsla(0,50%,50%,0.6)"
    stroke-width="1"
    transform="translate(-67.3577356728,-6.8188298522) scale(1,-1) translate(50,-110)"
    />
  
  <line
    x1="53.98106868312228"
    y1="6.712553561311967"
    x2="53.591493994876295"
    y2="15.102153244785672"
    stroke="hsla(0,50%,50%,0.6)"
    stroke-width="1"
    transform="translate(-67.3577356728,-6.8188298522) scale(1,-1) translate(50,-110)"
    />
  
  <line
    x1="94.18734418608659"
    y1="11.484977076503169"
    x2="93.62140766132221"
    y2="18.856032818032254"
    stroke="hsla(0,50%,50%,0.6)"
    stroke-width="1"
    transform="translate(-67.3577356728,-6.8188298522) scale(1,-1) translate(50,-110)"
    />
  
  <line
    x1="92.14176744144584"
    y1="2.34814575953093"
    x2="91.54765198920202"
    y2="8.819376332465012"
    stroke="hsla(0,50%,50%,0.6)"
    stroke-width="1"
    transform="translate(-67.3577356728,-6.8188298522) scale(1,-1) translate(50,-110)"
    />
  
  <line
    x1="87.81388219996043"
    y1="4.13419782694854"
    x2="87.6165157133532"
    y2="6.146786940819265"
    stroke="hsla(0,50%,50%,0.6)"
    stroke-width="1"
    transform="translate(-67.3577356728,-6.8188298522) scale(1,-1) translate(50,-110)"
    />
  
  <line
    x1="83.99191355688066"
    y1="0.11777025912216889"
    x2="83.26489350351454"
    y2="5.357703208290607"
    stroke="hsla(0,50%,50%,0.6)"
    stroke-width="1"
    transform="translate(-67.3577356728,-6.8188298522) scale(1,-1) translate(50,-110)"
    />
  
  <line
    x1="90.77491518003721"
    y1="3.7199600525336542"
    x2="90.22373381969783"
    y2="7.745728262078565"
    stroke="hsla(0,50%,50%,0.6)"
    stroke-width="1"
    transform="translate(-67.3577356728,-6.8188298522) scale(1,-1) translate(50,-110)"
    />
  
  <line
    x1="53.591493994876295"
    y1="15.102153244785672"
    x2="90.97166975112617"
    y2="16.83791786601149"
    stroke="hsla(0,50%,50%,0.6)"
    stroke-width="1"
    transform="translate(-67.3577356728,-6.8188298522) scale(1,-1) translate(50,-110)"
    />
  
  <line
    x1="90.77491518003721"
    y1="3.7199600525336542"
    x2="41.74144720863259"
    y2="10.579564380139482"
    stroke="hsla(0,50%,50%,0.6)"
    stroke-width="1"
    transform="translate(-67.3577356728,-6.8188298522) scale(1,-1) translate(50,-110)"
    />
  
  <line
    x1="91.89364714260242"
    y1="6.987108682206742"
    x2="91.54765198920202"
    y2="8.819376332465012"
    stroke="hsla(0,50%,50%,0.6)"
    stroke-width="1"
    transform="translate(-67.3577356728,-6.8188298522) scale(1,-1) translate(50,-110)"
    />
  
  <line
    x1="44.469892374065374"
    y1="22.638875454838562"
    x2="95.91833745686274"
    y2="27.21007876358885"
    stroke="hsla(0,50%,50%,0.6)"
    stroke-width="1"
    transform="translate(-67.3577356728,-6.8188298522) scale(1,-1) translate(50,-110)"
    />
  
  <line
    x1="48.886361403983386"
    y1="12.185392981344888"
    x2="44.469892374065374"
    y2="22.638875454838562"
    stroke="hsla(0,50%,50%,0.6)"
    stroke-width="1"
    transform="translate(-67.3577356728,-6.8188298522) scale(1,-1) translate(50,-110)"
    />
  
  <line
    x1="68.71096169787118"
    y1="2.058761304180035"
    x2="41.74144720863259"
    y2="10.579564380139482"
    stroke="hsla(0,50%,50%,0.6)"
    stroke-width="1"
    transform="translate(-67.3577356728,-6.8188298522) scale(1,-1) translate(50,-110)"
    />
  
  <line
    x1="68.71096169787118"
    y1="2.058761304180035"
    x2="62.55755730121083"
    y2="17.798961449947875"
    stroke="hsla(0,50%,50%,0.6)"
    stroke-width="1"
    transform="translate(-67.3577356728,-6.8188298522) scale(1,-1) translate(50,-110)"
    />
  
  <line
    x1="100.37408942186151"
    y1="-5.513644305920524"
    x2="48.886361403983386"
    y2="12.185392981344888"
    stroke="hsla(0,50%,50%,0.6)"
    stroke-width="1"
    transform="translate(-67.3577356728,-6.8188298522) scale(1,-1) translate(50,-110)"
    />
  
  <line
    x1="85.04432803922228"
    y1="20.598168688348334"
    x2="83.27365035321395"
    y2="26.086596111522493"
    stroke="hsla(0,50%,50%,0.6)"
    stroke-width="1"
    transform="translate(-67.3577356728,-6.8188298522) scale(1,-1) translate(50,-110)"
    />
  
  <line
    x1="64.73520042455297"
    y1="6.73731431126788"
    x2="57.705947256766635"
    y2="20.990446630248538"
    stroke="hsla(0,50%,50%,0.6)"
    stroke-width="1"
    transform="translate(-67.3577356728,-6.8188298522) scale(1,-1) translate(50,-110)"
    />
  
  <line
    x1="62.55755730121083"
    y1="17.798961449947875"
    x2="44.0796850912482"
    y2="20.914218838417614"
    stroke="hsla(0,50%,50%,0.6)"
    stroke-width="1"
    transform="translate(-67.3577356728,-6.8188298522) scale(1,-1) translate(50,-110)"
    />
  
  <line
    x1="106.78520467832004"
    y1="4.416549120729428"
    x2="100.99223657616454"
    y2="24.27064292016265"
    stroke="hsla(0,50%,50%,0.6)"
    stroke-width="1"
    transform="translate(-67.3577356728,-6.8188298522) scale(1,-1) translate(50,-110)"
    />
  
  <line
    x1="73.33593504672697"
    y1="3.7807899386469908"
    x2="63.426617203680905"
    y2="23.811723837691392"
    stroke="hsla(0,50%,50%,0.6)"
    stroke-width="1"
    transform="translate(-67.3577356728,-6.8188298522) scale(1,-1) translate(50,-110)"
    />
  
  <line
    x1="90.22373381969783"
    y1="7.745728262078565"
    x2="44.0796850912482"
    y2="20.914218838417614"
    stroke="hsla(0,50%,50%,0.6)"
    stroke-width="1"
    transform="translate(-67.3577356728,-6.8188298522) scale(1,-1) translate(50,-110)"
    />
  
  <line
    x1="111.4243138862325"
    y1="11.602077678419258"
    x2="108.71742549198693"
    y2="20.837119414330974"
    stroke="hsla(0,50%,50%,0.6)"
    stroke-width="1"
    transform="translate(-67.3577356728,-6.8188298522) scale(1,-1) translate(50,-110)"
    />
  
  <line
    x1="90.59357133939577"
    y1="5.044475577154471"
    x2="87.6165157133532"
    y2="6.146786940819265"
    stroke="hsla(0,50%,50%,0.6)"
    stroke-width="1"
    transform="translate(-67.3577356728,-6.8188298522) scale(1,-1) translate(50,-110)"
    />
  
  <line
    x1="96.39430417175184"
    y1="21.646305992989053"
    x2="74.1384284648025"
    y2="25.274930055235064"
    stroke="hsla(0,50%,50%,0.6)"
    stroke-width="1"
    transform="translate(-67.3577356728,-6.8188298522) scale(1,-1) translate(50,-110)"
    />
  
  <line
    x1="85.04432803922228"
    y1="20.598168688348334"
    x2="72.01136864883112"
    y2="25.085940420018098"
    stroke="hsla(0,50%,50%,0.6)"
    stroke-width="1"
    transform="translate(-67.3577356728,-6.8188298522) scale(1,-1) translate(50,-110)"
    />
  
  <line
    x1="89.09001156890943"
    y1="3.9556719566810647"
    x2="87.3781883699569"
    y2="6.133964530488235"
    stroke="hsla(0,50%,50%,0.6)"
    stroke-width="1"
    transform="translate(-67.3577356728,-6.8188298522) scale(1,-1) translate(50,-110)"
    />
  
  <line
    x1="92.14176744144584"
    y1="2.34814575953093"
    x2="85.10442495616729"
    y2="7.9173347004245125"
    stroke="hsla(0,50%,50%,0.6)"
    stroke-width="1"
    transform="translate(-67.3577356728,-6.8188298522) scale(1,-1) translate(50,-110)"
    />
  
  <line
    x1="102.47620134409388"
    y1="18.06773228531414"
    x2="95.91833745686274"
    y2="27.21007876358885"
    stroke="hsla(0,50%,50%,0.6)"
    stroke-width="1"
    transform="translate(-67.3577356728,-6.8188298522) scale(1,-1) translate(50,-110)"
    />
  
  <line
    x1="108.71742549198693"
    y1="20.837119414330974"
    x2="94.63521524897718"
    y2="27.096073131877763"
    stroke="hsla(0,50%,50%,0.6)"
    stroke-width="1"
    transform="translate(-67.3577356728,-6.8188298522) scale(1,-1) translate(50,-110)"
    />
  
  <line
    x1="98.94160937376117"
    y1="22.303356023966746"
    x2="94.85073920086109"
    y2="27.115222472550375"
    stroke="hsla(0,50%,50%,0.6)"
    stroke-width="1"
    transform="translate(-67.3577356728,-6.8188298522) scale(1,-1) translate(50,-110)"
    />
  
</svg>
