<?xml version="1.0"?>
<!DOCTYPE svg PUBLIC "-//W3C//DTD SVG 1.1//EN"
  "http://www.w3.org/Graphics/SVG/1.1/DTD/svg11.dtd">
<svg
  width="240"
  height="240"
  viewBox="-500 -500 1000 1000" xmlns="http://www.w3.org/2000/svg" version="1.1">
  <rect
    x="0"
    y="0"
    width="100"
    height="100"
    fill="hsla(206,100%,53%,0.3)"
    stroke="hsl(206,100%,53%)"
    stroke-width="3"
    transform="" />
  
  <path
    d="M 
      97.6883332216
      79.9873795728
      L
    
      118.5313573212
      80.5897791133
      L
    
      118.0067567567
      100
      L
    
      95.3650255814
      100
      L
    
      93.8730936028
      87.1487237098
      L
    
      95.0603339780
      86.8786716523
      L
    
      95.1196359533
      87.1393832349
      L
    
      96.8595554554
      87.1263458322
      z
    "
    fill="hsla(0,0%,50%,0.3)"
    stroke="hsla(0,0%,50%,1)"
    stroke-width="1"
    transform="translate(-106.2022254620,-89.9936897864)"
    />
  
  
  <line
    x1="95.06033397808253"
    y1="86.87867165231562"
    x2="98.04493742687596"
    y2="100"
    stroke="hsla(0,50%,50%,0.6)"
    stroke-width="1"
    transform="translate(-106.2022254620,-89.9936897864)"
    />
  
  <line
    x1="102.56498852523102"
    y1="80.12832336778125"
    x2="105.89165167327623"
    y2="100"
    stroke="hsla(0,50%,50%,0.6)"
    stroke-width="1"
    transform="translate(-106.2022254620,-89.9936897864)"
    />
  
  <line
    x1="111.14644872232012"
    y1="89.60384542905251"
    x2="112.35336040244118"
    y2="100"
    stroke="hsla(0,50%,50%,0.6)"
    stroke-width="1"
    transform="translate(-106.2022254620,-89.9936897864)"
    />
  
  <line
    x1="109.18627863331245"
    y1="80.31969013391077"
    x2="111.32168340168107"
    y2="100"
    stroke="hsla(0,50%,50%,0.6)"
    stroke-width="1"
    transform="translate(-106.2022254620,-89.9936897864)"
    />
  
  <line
    x1="93.87309360287225"
    y1="87.14872370988985"
    x2="95.36502558148491"
    y2="100"
    stroke="hsla(0,50%,50%,0.6)"
    stroke-width="1"
    transform="translate(-106.2022254620,-89.9936897864)"
    />
  
  <line
    x1="114.45438360739954"
    y1="86.99450590571891"
    x2="115.6090961632912"
    y2="100"
    stroke="hsla(0,50%,50%,0.6)"
    stroke-width="1"
    transform="translate(-106.2022254620,-89.9936897864)"
    />
  
  <line
    x1="114.61985831044416"
    y1="80.47673000897237"
    x2="115.7493144729802"
    y2="100"
    stroke="hsla(0,50%,50%,0.6)"
    stroke-width="1"
    transform="translate(-106.2022254620,-89.9936897864)"
    />
  
  <line
    x1="97.68833322167883"
    y1="79.9873795728809"
    x2="98.84609918405565"
    y2="100"
    stroke="hsla(0,50%,50%,0.6)"
    stroke-width="1"
    transform="translate(-106.2022254620,-89.9936897864)"
    />
  
  <line
    x1="117.33553071184632"
    y1="80.55521765063139"
    x2="117.93397585947383"
    y2="100"
    stroke="hsla(0,50%,50%,0.6)"
    stroke-width="1"
    transform="translate(-106.2022254620,-89.9936897864)"
    />
  
  <line
    x1="117.69932432432432"
    y1="88.625"
    x2="118.00675675675676"
    y2="100"
    stroke="hsla(0,50%,50%,0.6)"
    stroke-width="1"
    transform="translate(-106.2022254620,-89.9936897864)"
    />
  
  <line
    x1="100"
    y1="80.05419075144509"
    x2="100"
    y2="100"
    stroke="hsla(0,50%,50%,0.6)"
    stroke-width="1"
    transform="translate(-106.2022254620,-89.9936897864)"
    />
  
  <line
    x1="116.875"
    y1="80.54190751445087"
    x2="116.875"
    y2="100"
    stroke="hsla(0,50%,50%,0.6)"
    stroke-width="1"
    transform="translate(-106.2022254620,-89.9936897864)"
    />
  
  <line
    x1="118.53135732126131"
    y1="80.58977911333125"
    x2="118.00675675675676"
    y2="100"
    stroke="hsla(0,50%,50%,0.6)"
    stroke-width="1"
    transform="translate(-106.2022254620,-89.9936897864)"
    />
  
  <line
    x1="118.53135732126131"
    y1="80.58977911333125"
    x2="117.93397585947383"
    y2="100"
    stroke="hsla(0,50%,50%,0.6)"
    stroke-width="1"
    transform="translate(-106.2022254620,-89.9936897864)"
    />
  
  <line
    x1="100"
    y1="80.05419075144509"
    x2="98.84609918405565"
    y2="100"
    stroke="hsla(0,50%,50%,0.6)"
    stroke-width="1"
    transform="translate(-106.2022254620,-89.9936897864)"
    />
  
  <line
    x1="116.875"
    y1="80.54190751445087"
    x2="115.7493144729802"
    y2="100"
    stroke="hsla(0,50%,50%,0.6)"
    stroke-width="1"
    transform="translate(-106.2022254620,-89.9936897864)"
    />
  
  <line
    x1="117.33553071184632"
    y1="80.55521765063139"
    x2="115.6090961632912"
    y2="100"
    stroke="hsla(0,50%,50%,0.6)"
    stroke-width="1"
    transform="translate(-106.2022254620,-89.9936897864)"
    />
  
  <line
    x1="97.68833322167883"
    y1="79.9873795728809"
    x2="95.36502558148491"
    y2="100"
    stroke="hsla(0,50%,50%,0.6)"
    stroke-width="1"
    transform="translate(-106.2022254620,-89.9936897864)"
    />
  
  <line
    x1="111.99761068783633"
    y1="93.77052133837711"
    x2="111.32168340168107"
    y2="100"
    stroke="hsla(0,50%,50%,0.6)"
    stroke-width="1"
    transform="translate(-106.2022254620,-89.9936897864)"
    />
  
  <line
    x1="114.61985831044416"
    y1="80.47673000897237"
    x2="112.35336040244118"
    y2="100"
    stroke="hsla(0,50%,50%,0.6)"
    stroke-width="1"
    transform="translate(-106.2022254620,-89.9936897864)"
    />
  
  <line
    x1="109.18627863331245"
    y1="80.31969013391077"
    x2="105.89165167327623"
    y2="100"
    stroke="hsla(0,50%,50%,0.6)"
    stroke-width="1"
    transform="translate(-106.2022254620,-89.9936897864)"
    />
  
  <line
    x1="102.56498852523102"
    y1="80.12832336778125"
    x2="98.04493742687596"
    y2="100"
    stroke="hsla(0,50%,50%,0.6)"
    stroke-width="1"
    transform="translate(-106.2022254620,-89.9936897864)"
    />
  
  <line
    x1="97.68833322167883"
    y1="79.9873795728809"
    x2="118.53135732126131"
    y2="80.58977911333125"
    stroke="hsla(0,50%,50%,0.6)"
    stroke-width="1"
    transform="translate(-106.2022254620,-89.9936897864)"
    />
  
  <line
    x1="100"
    y1="92.46872501270131"
    x2="111.99761068783633"
    y2="93.77052133837711"
    stroke="hsla(0,50%,50%,0.6)"
    stroke-width="1"
    transform="translate(-106.2022254620,-89.9936897864)"
    />
  
  <line
    x1="100"
    y1="89.58241959064327"
    x2="117.751152506826"
    y2="90.54264275256223"
    stroke="hsla(0,50%,50%,0.6)"
    stroke-width="1"
    transform="translate(-106.2022254620,-89.9936897864)"
    />
  
  <line
    x1="114.45438360739954"
    y1="86.99450590571891"
    x2="93.87309360287225"
    y2="87.14872370988985"
    stroke="hsla(0,50%,50%,0.6)"
    stroke-width="1"
    transform="translate(-106.2022254620,-89.9936897864)"
    />
  
  <line
    x1="100"
    y1="88.625"
    x2="117.69932432432432"
    y2="88.625"
    stroke="hsla(0,50%,50%,0.6)"
    stroke-width="1"
    transform="translate(-106.2022254620,-89.9936897864)"
    />
  
  <line
    x1="117.69932432432432"
    y1="88.625"
    x2="100"
    y2="89.58241959064327"
    stroke="hsla(0,50%,50%,0.6)"
    stroke-width="1"
    transform="translate(-106.2022254620,-89.9936897864)"
    />
  
  <line
    x1="114.64994578123498"
    y1="89.19711700915285"
    x2="94.25676078137808"
    y2="90.45357472528953"
    stroke="hsla(0,50%,50%,0.6)"
    stroke-width="1"
    transform="translate(-106.2022254620,-89.9936897864)"
    />
  
  <line
    x1="95.36502558148491"
    y1="100"
    x2="118.00675675675676"
    y2="100"
    stroke="hsla(0,50%,50%,0.6)"
    stroke-width="1"
    transform="translate(-106.2022254620,-89.9936897864)"
    />
  
  <line
    x1="114.64994578123498"
    y1="89.19711700915285"
    x2="94.38402744906371"
    y2="91.54983054150347"
    stroke="hsla(0,50%,50%,0.6)"
    stroke-width="1"
    transform="translate(-106.2022254620,-89.9936897864)"
    />
  
  <line
    x1="117.751152506826"
    y1="90.54264275256223"
    x2="100"
    y2="92.46872501270131"
    stroke="hsla(0,50%,50%,0.6)"
    stroke-width="1"
    transform="translate(-106.2022254620,-89.9936897864)"
    />
  
  <line
    x1="95.06033397808253"
    y1="86.87867165231562"
    x2="93.87309360287225"
    y2="87.14872370988985"
    stroke="hsla(0,50%,50%,0.6)"
    stroke-width="1"
    transform="translate(-106.2022254620,-89.9936897864)"
    />
  
  <line
    x1="114.45438360739954"
    y1="86.99450590571891"
    x2="94.25676078137808"
    y2="90.45357472528953"
    stroke="hsla(0,50%,50%,0.6)"
    stroke-width="1"
    transform="translate(-106.2022254620,-89.9936897864)"
    />
  
</svg>
