<?xml version="1.0"?>
<!DOCTYPE svg PUBLIC "-//W3C//DTD SVG 1.1//EN"
  "http://www.w3.org/Graphics/SVG/1.1/DTD/svg11.dtd">
<svg
  width="240"
  height="240"
  viewBox="-500 -500 1000 1000" xmlns="http://www.w3.org/2000/svg" version="1.1">
  <rect
    x="0"
    y="0"
    width="100"
    height="100"
    fill="hsla(206,100%,53%,0.3)"
    stroke="hsl(206,100%,53%)"
    stroke-width="3"
    transform="" />
  
  <path
    d="M 
      5.1695102050
      -7.2808823282
      L
    
      28.8321516220
      -4.3544620944
      L
    
      42.2908186595
      -0.9897953351
      L
    
      43.4429505694
      0
      L
    
      46.25
      0
      L
    
      54.8710325142
      2.1552581285
      L
    
      58.7013464168
      2.7911991713
      L
    
      59.0537015529
      3.3328919135
      L
    
      -1.0295868513
      42.8441848315
      L
    
      -48.5353838504
      28.9603067995
      L
    
      -46.5273067998
      22.0893662378
      L
    
      0
      0.2115469724
      L
    
      0
      0
      L
    
      0.4498945151
      0
      L
    
      4.5048723514
      -1.9067098082
      z
    "
    fill="hsla(0,0%,50%,0.3)"
    stroke="hsla(0,0%,50%,1)"
    stroke-width="1"
    transform="translate(-5.2591588512,-17.7816512516)"
    />
  
  
  <line
    x1="58.94848399775407"
    y1="3.1746209994385177"
    x2="59.053701552995165"
    y2="3.332891913519485"
    stroke="hsla(0,50%,50%,0.6)"
    stroke-width="1"
    transform="translate(-5.2591588512,-17.7816512516)"
    />
  
  <line
    x1="58.701346416857"
    y1="2.791199171346547"
    x2="59.053701552995165"
    y2="3.332891913519485"
    stroke="hsla(0,50%,50%,0.6)"
    stroke-width="1"
    transform="translate(-5.2591588512,-17.7816512516)"
    />
  
  <line
    x1="42.29081865954748"
    y1="-0.9897953351131301"
    x2="52.40885601677217"
    y2="7.70260011940526"
    stroke="hsla(0,50%,50%,0.6)"
    stroke-width="1"
    transform="translate(-5.2591588512,-17.7816512516)"
    />
  
  <line
    x1="46.25"
    y1="0"
    x2="55.592366159947126"
    y2="4.982595285305133"
    stroke="hsla(0,50%,50%,0.6)"
    stroke-width="1"
    transform="translate(-5.2591588512,-17.7816512516)"
    />
  
  <line
    x1="50.44947106772116"
    y1="1.4211531782798432"
    x2="52.40885601677217"
    y2="7.70260011940526"
    stroke="hsla(0,50%,50%,0.6)"
    stroke-width="1"
    transform="translate(-5.2591588512,-17.7816512516)"
    />
  
  <line
    x1="25.081145024155546"
    y1="-2.790710425602213"
    x2="44.456110441638664"
    y2="12.932394763922401"
    stroke="hsla(0,50%,50%,0.6)"
    stroke-width="1"
    transform="translate(-5.2591588512,-17.7816512516)"
    />
  
  <line
    x1="28.832151622008727"
    y1="-4.354462094497818"
    x2="39.31630666405734"
    y2="-0.3252753688792048"
    stroke="hsla(0,50%,50%,0.6)"
    stroke-width="1"
    transform="translate(-5.2591588512,-17.7816512516)"
    />
  
  <line
    x1="28.832151622008727"
    y1="-4.354462094497818"
    x2="42.29081865954748"
    y2="-0.9897953351131301"
    stroke="hsla(0,50%,50%,0.6)"
    stroke-width="1"
    transform="translate(-5.2591588512,-17.7816512516)"
    />
  
  <line
    x1="46.25"
    y1="0"
    x2="58.94848399775407"
    y2="3.1746209994385177"
    stroke="hsla(0,50%,50%,0.6)"
    stroke-width="1"
    transform="translate(-5.2591588512,-17.7816512516)"
    />
  
  <line
    x1="-46.52730679985031"
    y1="22.08936623789248"
    x2="-48.535383850425646"
    y2="28.960306799511287"
    stroke="hsla(0,50%,50%,0.6)"
    stroke-width="1"
    transform="translate(-5.2591588512,-17.7816512516)"
    />
  
  <line
    x1="40.405259577659045"
    y1="-1.461185105585238"
    x2="44.456110441638664"
    y2="12.932394763922401"
    stroke="hsla(0,50%,50%,0.6)"
    stroke-width="1"
    transform="translate(-5.2591588512,-17.7816512516)"
    />
  
  <line
    x1="35.19327058536233"
    y1="17.050458099859913"
    x2="35.79038780264606"
    y2="18.63104932543384"
    stroke="hsla(0,50%,50%,0.6)"
    stroke-width="1"
    transform="translate(-5.2591588512,-17.7816512516)"
    />
  
  <line
    x1="11.263684248560825"
    y1="-5.084801885907943"
    x2="35.79038780264606"
    y2="18.63104932543384"
    stroke="hsla(0,50%,50%,0.6)"
    stroke-width="1"
    transform="translate(-5.2591588512,-17.7816512516)"
    />
  
  <line
    x1="5.169510205024594"
    y1="-7.280882328232571"
    x2="28.832151622008727"
    y2="-4.354462094497818"
    stroke="hsla(0,50%,50%,0.6)"
    stroke-width="1"
    transform="translate(-5.2591588512,-17.7816512516)"
    />
  
  <line
    x1="11.263684248560825"
    y1="-5.084801885907943"
    x2="58.701346416857"
    y2="2.791199171346547"
    stroke="hsla(0,50%,50%,0.6)"
    stroke-width="1"
    transform="translate(-5.2591588512,-17.7816512516)"
    />
  
  <line
    x1="0"
    y1="0"
    x2="46.25"
    y2="0"
    stroke="hsla(0,50%,50%,0.6)"
    stroke-width="1"
    transform="translate(-5.2591588512,-17.7816512516)"
    />
  
  <line
    x1="0"
    y1="0"
    x2="0"
    y2="42.16711956521739"
    stroke="hsla(0,50%,50%,0.6)"
    stroke-width="1"
    transform="translate(-5.2591588512,-17.7816512516)"
    />
  
  <line
    x1="11.263684248560825"
    y1="-5.084801885907943"
    x2="-46.52730679985031"
    y2="22.08936623789248"
    stroke="hsla(0,50%,50%,0.6)"
    stroke-width="1"
    transform="translate(-5.2591588512,-17.7816512516)"
    />
  
  <line
    x1="18.17804933845023"
    y1="-3.936820634955659"
    x2="18.0761245609131"
    y2="6.256196358215752"
    stroke="hsla(0,50%,50%,0.6)"
    stroke-width="1"
    transform="translate(-5.2591588512,-17.7816512516)"
    />
  
  <line
    x1="5.169510205024594"
    y1="-7.280882328232571"
    x2="-1.0295868513388142"
    y2="42.84418483158694"
    stroke="hsla(0,50%,50%,0.6)"
    stroke-width="1"
    transform="translate(-5.2591588512,-17.7816512516)"
    />
  
  <line
    x1="18.17804933845023"
    y1="-3.936820634955659"
    x2="16.79155683270624"
    y2="0.2603193380574371"
    stroke="hsla(0,50%,50%,0.6)"
    stroke-width="1"
    transform="translate(-5.2591588512,-17.7816512516)"
    />
  
  <line
    x1="55.83253043072977"
    y1="2.3956326076824426"
    x2="55.592366159947126"
    y2="4.982595285305133"
    stroke="hsla(0,50%,50%,0.6)"
    stroke-width="1"
    transform="translate(-5.2591588512,-17.7816512516)"
    />
  
  <line
    x1="25.081145024155546"
    y1="-2.790710425602213"
    x2="16.79155683270624"
    y2="0.2603193380574371"
    stroke="hsla(0,50%,50%,0.6)"
    stroke-width="1"
    transform="translate(-5.2591588512,-17.7816512516)"
    />
  
  <line
    x1="18.0761245609131"
    y1="6.256196358215752"
    x2="54.061164458708014"
    y2="6.61602772008875"
    stroke="hsla(0,50%,50%,0.6)"
    stroke-width="1"
    transform="translate(-5.2591588512,-17.7816512516)"
    />
  
  <line
    x1="42.29081865954748"
    y1="-0.9897953351131301"
    x2="39.31630666405734"
    y2="-0.3252753688792048"
    stroke="hsla(0,50%,50%,0.6)"
    stroke-width="1"
    transform="translate(-5.2591588512,-17.7816512516)"
    />
  
  <line
    x1="40.405259577659045"
    y1="-1.461185105585238"
    x2="39.31630666405734"
    y2="-0.3252753688792048"
    stroke="hsla(0,50%,50%,0.6)"
    stroke-width="1"
    transform="translate(-5.2591588512,-17.7816512516)"
    />
  
  <line
    x1="55.83253043072977"
    y1="2.3956326076824426"
    x2="54.061164458708014"
    y2="6.61602772008875"
    stroke="hsla(0,50%,50%,0.6)"
    stroke-width="1"
    transform="translate(-5.2591588512,-17.7816512516)"
    />
  
  <line
    x1="39.784958461396286"
    y1="16.00418492484266"
    x2="35.19327058536233"
    y2="17.050458099859913"
    stroke="hsla(0,50%,50%,0.6)"
    stroke-width="1"
    transform="translate(-5.2591588512,-17.7816512516)"
    />
  
  <line
    x1="50.44947106772116"
    y1="1.4211531782798432"
    x2="39.784958461396286"
    y2="16.00418492484266"
    stroke="hsla(0,50%,50%,0.6)"
    stroke-width="1"
    transform="translate(-5.2591588512,-17.7816512516)"
    />
  
  <line
    x1="58.94848399775407"
    y1="3.1746209994385177"
    x2="55.592366159947126"
    y2="4.982595285305133"
    stroke="hsla(0,50%,50%,0.6)"
    stroke-width="1"
    transform="translate(-5.2591588512,-17.7816512516)"
    />
  
  <line
    x1="52.59211178685453"
    y1="7.582089531470661"
    x2="35.19327058536233"
    y2="17.050458099859913"
    stroke="hsla(0,50%,50%,0.6)"
    stroke-width="1"
    transform="translate(-5.2591588512,-17.7816512516)"
    />
  
  <line
    x1="59.053701552995165"
    y1="3.332891913519485"
    x2="-1.0295868513388142"
    y2="42.84418483158694"
    stroke="hsla(0,50%,50%,0.6)"
    stroke-width="1"
    transform="translate(-5.2591588512,-17.7816512516)"
    />
  
  <line
    x1="58.701346416857"
    y1="2.791199171346547"
    x2="52.59211178685453"
    y2="7.582089531470661"
    stroke="hsla(0,50%,50%,0.6)"
    stroke-width="1"
    transform="translate(-5.2591588512,-17.7816512516)"
    />
  
  <line
    x1="-46.52730679985031"
    y1="22.08936623789248"
    x2="0"
    y2="42.16711956521739"
    stroke="hsla(0,50%,50%,0.6)"
    stroke-width="1"
    transform="translate(-5.2591588512,-17.7816512516)"
    />
  
  <line
    x1="-48.535383850425646"
    y1="28.960306799511287"
    x2="-1.0295868513388142"
    y2="42.84418483158694"
    stroke="hsla(0,50%,50%,0.6)"
    stroke-width="1"
    transform="translate(-5.2591588512,-17.7816512516)"
    />
  
</svg>
