<?xml version="1.0"?>
<!DOCTYPE svg PUBLIC "-//W3C//DTD SVG 1.1//EN"
  "http://www.w3.org/Graphics/SVG/1.1/DTD/svg11.dtd">
<svg
  width="240"
  height="240"
  viewBox="-500 -500 1000 1000" xmlns="http://www.w3.org/2000/svg" version="1.1">
  <rect
    x="0"
    y="0"
    width="100"
    height="100"
    fill="hsla(206,100%,53%,0.3)"
    stroke="hsl(206,100%,53%)"
    stroke-width="3"
    transform="" />
  
  <path
    d="M 
      4.1724339436
      3.8383238518
      L
    
      36.0097601234
      8.1529234969
      L
    
      47.8609473834
      7.5608217186
      L
    
      48.0586219881
      9.7857872252
      L
    
      51.8745645580
      10.3029243856
      L
    
      50.0998922958
      32.7617078424
      L
    
      -2.0060304531
      33.0158830753
      L
    
      -3.3815025815
      17.2710037471
      L
    
      -1.6935759878
      13.9035418576
      L
    
      -0.5123837061
      13.7523554157
      L
    
      -0.3827591267
      12.0805902028
      L
    
      -0.2040209370
      12.0944491242
      L
    
      -0.2151472021
      10.9540340941
      L
    
      -0.0717995023
      10.6680513282
      L
    
      0
      9.1090333716
      L
    
      3.3220679160
      9.1854906309
      z
    "
    fill="hsla(0,0%,50%,0.3)"
    stroke="hsla(0,0%,50%,1)"
    stroke-width="1"
    transform="translate(-24.2465309882,-18.4271034636)"
    />
  
  
  <line
    x1="47.8609473834903"
    y1="7.560821718683899"
    x2="50.09989229582746"
    y2="32.76170784245938"
    stroke="hsla(0,50%,50%,0.6)"
    stroke-width="1"
    transform="translate(-24.2465309882,-18.4271034636)"
    />
  
  <line
    x1="0"
    y1="9.1090333716916"
    x2="0"
    y2="33.00609756097561"
    stroke="hsla(0,50%,50%,0.6)"
    stroke-width="1"
    transform="translate(-24.2465309882,-18.4271034636)"
    />
  
  <line
    x1="-0.21514720210796826"
    y1="10.954034094182298"
    x2="0"
    y2="33.00609756097561"
    stroke="hsla(0,50%,50%,0.6)"
    stroke-width="1"
    transform="translate(-24.2465309882,-18.4271034636)"
    />
  
  <line
    x1="0"
    y1="9.1090333716916"
    x2="-0.4190660979060592"
    y2="18.208421954018274"
    stroke="hsla(0,50%,50%,0.6)"
    stroke-width="1"
    transform="translate(-24.2465309882,-18.4271034636)"
    />
  
  <line
    x1="-0.3827591267137677"
    y1="12.080590202862988"
    x2="-2.0060304531205095"
    y2="33.015883075381076"
    stroke="hsla(0,50%,50%,0.6)"
    stroke-width="1"
    transform="translate(-24.2465309882,-18.4271034636)"
    />
  
  <line
    x1="-0.14750731857032878"
    y1="10.819090589604365"
    x2="1.8557876982770063"
    y2="32.997044938057186"
    stroke="hsla(0,50%,50%,0.6)"
    stroke-width="1"
    transform="translate(-24.2465309882,-18.4271034636)"
    />
  
  <line
    x1="3.526604815340401"
    y1="12.241795556721561"
    x2="1.8557876982770063"
    y2="32.997044938057186"
    stroke="hsla(0,50%,50%,0.6)"
    stroke-width="1"
    transform="translate(-24.2465309882,-18.4271034636)"
    />
  
  <line
    x1="-3.3815025815449817"
    y1="17.27100374719266"
    x2="-2.0060304531205095"
    y2="33.015883075381076"
    stroke="hsla(0,50%,50%,0.6)"
    stroke-width="1"
    transform="translate(-24.2465309882,-18.4271034636)"
    />
  
  <line
    x1="4.1724339436438305"
    y1="3.838323851882016"
    x2="2.900655300602719"
    y2="15.17775765587198"
    stroke="hsla(0,50%,50%,0.6)"
    stroke-width="1"
    transform="translate(-24.2465309882,-18.4271034636)"
    />
  
  <line
    x1="4.1724339436438305"
    y1="3.838323851882016"
    x2="-0.46651225707442756"
    y2="33.00837323052232"
    stroke="hsla(0,50%,50%,0.6)"
    stroke-width="1"
    transform="translate(-24.2465309882,-18.4271034636)"
    />
  
  <line
    x1="-3.1911192956927747"
    y1="16.89118364014497"
    x2="-0.46651225707442756"
    y2="33.00837323052232"
    stroke="hsla(0,50%,50%,0.6)"
    stroke-width="1"
    transform="translate(-24.2465309882,-18.4271034636)"
    />
  
  <line
    x1="0.29448243060737356"
    y1="9.937308383276774"
    x2="-0.21514720210796826"
    y2="10.954034094182298"
    stroke="hsla(0,50%,50%,0.6)"
    stroke-width="1"
    transform="translate(-24.2465309882,-18.4271034636)"
    />
  
  <line
    x1="-1.693575987852516"
    y1="13.903541857693606"
    x2="-3.3815025815449817"
    y2="17.27100374719266"
    stroke="hsla(0,50%,50%,0.6)"
    stroke-width="1"
    transform="translate(-24.2465309882,-18.4271034636)"
    />
  
  <line
    x1="0.29448243060737356"
    y1="9.937308383276774"
    x2="0.5844448866742588"
    y2="10.368890656913402"
    stroke="hsla(0,50%,50%,0.6)"
    stroke-width="1"
    transform="translate(-24.2465309882,-18.4271034636)"
    />
  
  <line
    x1="4.1724339436438305"
    y1="3.838323851882016"
    x2="51.874564558079264"
    y2="10.30292438568652"
    stroke="hsla(0,50%,50%,0.6)"
    stroke-width="1"
    transform="translate(-24.2465309882,-18.4271034636)"
    />
  
  <line
    x1="-1.693575987852516"
    y1="13.903541857693606"
    x2="-0.7216037578340492"
    y2="15.624170254287597"
    stroke="hsla(0,50%,50%,0.6)"
    stroke-width="1"
    transform="translate(-24.2465309882,-18.4271034636)"
    />
  
  <line
    x1="51.874564558079264"
    y1="10.30292438568652"
    x2="50.09989229582746"
    y2="32.76170784245938"
    stroke="hsla(0,50%,50%,0.6)"
    stroke-width="1"
    transform="translate(-24.2465309882,-18.4271034636)"
    />
  
  <line
    x1="0.5844448866742588"
    y1="10.368890656913402"
    x2="-0.21514720210796826"
    y2="10.954034094182298"
    stroke="hsla(0,50%,50%,0.6)"
    stroke-width="1"
    transform="translate(-24.2465309882,-18.4271034636)"
    />
  
  <line
    x1="0.5844448866742588"
    y1="10.368890656913402"
    x2="-0.14750731857032878"
    y2="10.819090589604365"
    stroke="hsla(0,50%,50%,0.6)"
    stroke-width="1"
    transform="translate(-24.2465309882,-18.4271034636)"
    />
  
  <line
    x1="0"
    y1="9.1090333716916"
    x2="51.874564558079264"
    y2="10.30292438568652"
    stroke="hsla(0,50%,50%,0.6)"
    stroke-width="1"
    transform="translate(-24.2465309882,-18.4271034636)"
    />
  
  <line
    x1="47.8609473834903"
    y1="7.560821718683899"
    x2="0.29448243060737356"
    y2="9.937308383276774"
    stroke="hsla(0,50%,50%,0.6)"
    stroke-width="1"
    transform="translate(-24.2465309882,-18.4271034636)"
    />
  
  <line
    x1="-0.7216037578340492"
    y1="15.624170254287597"
    x2="-3.3815025815449817"
    y2="17.27100374719266"
    stroke="hsla(0,50%,50%,0.6)"
    stroke-width="1"
    transform="translate(-24.2465309882,-18.4271034636)"
    />
  
  <line
    x1="3.526604815340401"
    y1="12.241795556721561"
    x2="51.416722456676055"
    y2="16.096995117237473"
    stroke="hsla(0,50%,50%,0.6)"
    stroke-width="1"
    transform="translate(-24.2465309882,-18.4271034636)"
    />
  
  <line
    x1="-0.3827591267137677"
    y1="12.080590202862988"
    x2="51.416722456676055"
    y2="16.096995117237473"
    stroke="hsla(0,50%,50%,0.6)"
    stroke-width="1"
    transform="translate(-24.2465309882,-18.4271034636)"
    />
  
  <line
    x1="-0.7216037578340492"
    y1="15.624170254287597"
    x2="-3.1911192956927747"
    y2="16.89118364014497"
    stroke="hsla(0,50%,50%,0.6)"
    stroke-width="1"
    transform="translate(-24.2465309882,-18.4271034636)"
    />
  
  <line
    x1="47.8609473834903"
    y1="7.560821718683899"
    x2="-1.693575987852516"
    y2="13.903541857693606"
    stroke="hsla(0,50%,50%,0.6)"
    stroke-width="1"
    transform="translate(-24.2465309882,-18.4271034636)"
    />
  
  <line
    x1="2.900655300602719"
    y1="15.17775765587198"
    x2="51.06252922718276"
    y2="20.579371504273368"
    stroke="hsla(0,50%,50%,0.6)"
    stroke-width="1"
    transform="translate(-24.2465309882,-18.4271034636)"
    />
  
  <line
    x1="-0.4190660979060592"
    y1="18.208421954018274"
    x2="51.06252922718276"
    y2="20.579371504273368"
    stroke="hsla(0,50%,50%,0.6)"
    stroke-width="1"
    transform="translate(-24.2465309882,-18.4271034636)"
    />
  
  <line
    x1="50.09989229582746"
    y1="32.76170784245938"
    x2="-2.0060304531205095"
    y2="33.015883075381076"
    stroke="hsla(0,50%,50%,0.6)"
    stroke-width="1"
    transform="translate(-24.2465309882,-18.4271034636)"
    />
  
</svg>
