<?xml version="1.0"?>
<!DOCTYPE svg PUBLIC "-//W3C//DTD SVG 1.1//EN"
  "http://www.w3.org/Graphics/SVG/1.1/DTD/svg11.dtd">
<svg
  width="240"
  height="240"
  viewBox="-50 -50 200 200" xmlns="http://www.w3.org/2000/svg" version="1.1">
  <rect
    x="0"
    y="0"
    width="100"
    height="100"
    fill="hsla(206,100%,53%,0.3)"
    stroke="hsl(206,100%,53%)"
    stroke-width="3"
    transform="" />
  
  <path
    d="M 
      55.0647824023
      53.8763874643
      L
    
      74.3845741414
      72.9942301608
      L
    
      66.5546777464
      85.4680651074
      L
    
      46.3360901990
      91.0140188570
      L
    
      34.4080035330
      98.6772352260
      L
    
      34.0876954683
      98.5267520175
      L
    
      34.3994492454
      97.8631746655
      L
    
      34.3619911541
      94.2985113737
      L
    
      20.1913074513
      98.1855265390
      L
    
      14.7137500631
      86.8377541046
      L
    
      18.5698141137
      79.3154961038
      L
    
      18.0397329879
      73.1467091302
      L
    
      21.9021998944
      72.8148090637
      L
    
      23.8986276250
      68.9202564131
      L
    
      34.0438526626
      64.0231673428
      L
    
      34.0339991929
      63.0854713560
      L
    
      31.6293800122
      62.1982095941
      L
    
      33.9583494420
      55.8863354637
      L
    
      46.4270949011
      58.0457898085
      z
    "
    fill="hsla(0,0%,50%,0.3)"
    stroke="hsla(0,0%,50%,1)"
    stroke-width="1"
    transform="translate(-39.5407219806,-58.9784707457) scale(1,-1) translate(50,-110)"
    />
  
  
  <line
    x1="62.004581510241024"
    y1="60.74364511814791"
    x2="66.55467774642602"
    y2="85.46806510741786"
    stroke="hsla(0,50%,50%,0.6)"
    stroke-width="1"
    transform="translate(-39.5407219806,-58.9784707457) scale(1,-1) translate(50,-110)"
    />
  
  <line
    x1="23.898627625038703"
    y1="68.92025641314746"
    x2="26.67431285756135"
    y2="84.739065270314"
    stroke="hsla(0,50%,50%,0.6)"
    stroke-width="1"
    transform="translate(-39.5407219806,-58.9784707457) scale(1,-1) translate(50,-110)"
    />
  
  <line
    x1="18.039732987910917"
    y1="73.14670913025321"
    x2="20.191307451345388"
    y2="98.1855265390162"
    stroke="hsla(0,50%,50%,0.6)"
    stroke-width="1"
    transform="translate(-39.5407219806,-58.9784707457) scale(1,-1) translate(50,-110)"
    />
  
  <line
    x1="33.958349442075246"
    y1="55.886335463711596"
    x2="34.408003533041104"
    y2="98.67723522605289"
    stroke="hsla(0,50%,50%,0.6)"
    stroke-width="1"
    transform="translate(-39.5407219806,-58.9784707457) scale(1,-1) translate(50,-110)"
    />
  
  <line
    x1="55.064782402360635"
    y1="53.87638746435687"
    x2="74.38457414144422"
    y2="72.99423016087162"
    stroke="hsla(0,50%,50%,0.6)"
    stroke-width="1"
    transform="translate(-39.5407219806,-58.9784707457) scale(1,-1) translate(50,-110)"
    />
  
  <line
    x1="70.02445301924642"
    y1="68.67968521765151"
    x2="69.46098229707684"
    y2="76.15739879573177"
    stroke="hsla(0,50%,50%,0.6)"
    stroke-width="1"
    transform="translate(-39.5407219806,-58.9784707457) scale(1,-1) translate(50,-110)"
    />
  
  <line
    x1="72.2409143104926"
    y1="70.87297792397177"
    x2="71.96388311819778"
    y2="74.549406577085"
    stroke="hsla(0,50%,50%,0.6)"
    stroke-width="1"
    transform="translate(-39.5407219806,-58.9784707457) scale(1,-1) translate(50,-110)"
    />
  
  <line
    x1="72.47422602536062"
    y1="71.10385084042653"
    x2="72.2273463625263"
    y2="74.38014423828007"
    stroke="hsla(0,50%,50%,0.6)"
    stroke-width="1"
    transform="translate(-39.5407219806,-58.9784707457) scale(1,-1) translate(50,-110)"
    />
  
  <line
    x1="14.713750063118354"
    y1="86.83775410466039"
    x2="20.191307451345388"
    y2="98.1855265390162"
    stroke="hsla(0,50%,50%,0.6)"
    stroke-width="1"
    transform="translate(-39.5407219806,-58.9784707457) scale(1,-1) translate(50,-110)"
    />
  
  <line
    x1="33.958349442075246"
    y1="55.886335463711596"
    x2="31.62938001223519"
    y2="62.19820959413749"
    stroke="hsla(0,50%,50%,0.6)"
    stroke-width="1"
    transform="translate(-39.5407219806,-58.9784707457) scale(1,-1) translate(50,-110)"
    />
  
  <line
    x1="23.898627625038703"
    y1="68.92025641314746"
    x2="14.713750063118354"
    y2="86.83775410466039"
    stroke="hsla(0,50%,50%,0.6)"
    stroke-width="1"
    transform="translate(-39.5407219806,-58.9784707457) scale(1,-1) translate(50,-110)"
    />
  
  <line
    x1="55.064782402360635"
    y1="53.87638746435687"
    x2="34.087695468342325"
    y2="98.52675201754853"
    stroke="hsla(0,50%,50%,0.6)"
    stroke-width="1"
    transform="translate(-39.5407219806,-58.9784707457) scale(1,-1) translate(50,-110)"
    />
  
  <line
    x1="32.53807332667109"
    y1="59.73550752927063"
    x2="72.2273463625263"
    y2="74.38014423828007"
    stroke="hsla(0,50%,50%,0.6)"
    stroke-width="1"
    transform="translate(-39.5407219806,-58.9784707457) scale(1,-1) translate(50,-110)"
    />
  
  <line
    x1="32.451531106248616"
    y1="59.97005058306747"
    x2="71.96388311819778"
    y2="74.549406577085"
    stroke="hsla(0,50%,50%,0.6)"
    stroke-width="1"
    transform="translate(-39.5407219806,-58.9784707457) scale(1,-1) translate(50,-110)"
    />
  
  <line
    x1="31.62938001223519"
    y1="62.19820959413749"
    x2="69.46098229707684"
    y2="76.15739879573177"
    stroke="hsla(0,50%,50%,0.6)"
    stroke-width="1"
    transform="translate(-39.5407219806,-58.9784707457) scale(1,-1) translate(50,-110)"
    />
  
  <line
    x1="33.958349442075246"
    y1="55.886335463711596"
    x2="62.004581510241024"
    y2="60.74364511814791"
    stroke="hsla(0,50%,50%,0.6)"
    stroke-width="1"
    transform="translate(-39.5407219806,-58.9784707457) scale(1,-1) translate(50,-110)"
    />
  
  <line
    x1="74.38457414144422"
    y1="72.99423016087162"
    x2="66.55467774642602"
    y2="85.46806510741786"
    stroke="hsla(0,50%,50%,0.6)"
    stroke-width="1"
    transform="translate(-39.5407219806,-58.9784707457) scale(1,-1) translate(50,-110)"
    />
  
  <line
    x1="55.064782402360635"
    y1="53.87638746435687"
    x2="23.898627625038703"
    y2="68.92025641314746"
    stroke="hsla(0,50%,50%,0.6)"
    stroke-width="1"
    transform="translate(-39.5407219806,-58.9784707457) scale(1,-1) translate(50,-110)"
    />
  
  <line
    x1="34.087695468342325"
    y1="98.52675201754853"
    x2="34.408003533041104"
    y2="98.67723522605289"
    stroke="hsla(0,50%,50%,0.6)"
    stroke-width="1"
    transform="translate(-39.5407219806,-58.9784707457) scale(1,-1) translate(50,-110)"
    />
  
  <line
    x1="70.02445301924642"
    y1="68.67968521765151"
    x2="18.039732987910917"
    y2="73.14670913025321"
    stroke="hsla(0,50%,50%,0.6)"
    stroke-width="1"
    transform="translate(-39.5407219806,-58.9784707457) scale(1,-1) translate(50,-110)"
    />
  
  <line
    x1="72.2409143104926"
    y1="70.87297792397177"
    x2="18.243066368635017"
    y2="75.51298902415489"
    stroke="hsla(0,50%,50%,0.6)"
    stroke-width="1"
    transform="translate(-39.5407219806,-58.9784707457) scale(1,-1) translate(50,-110)"
    />
  
  <line
    x1="72.47422602536062"
    y1="71.10385084042653"
    x2="18.26446988239545"
    y2="75.7620711182498"
    stroke="hsla(0,50%,50%,0.6)"
    stroke-width="1"
    transform="translate(-39.5407219806,-58.9784707457) scale(1,-1) translate(50,-110)"
    />
  
  <line
    x1="74.38457414144422"
    y1="72.99423016087162"
    x2="34.408003533041104"
    y2="98.67723522605289"
    stroke="hsla(0,50%,50%,0.6)"
    stroke-width="1"
    transform="translate(-39.5407219806,-58.9784707457) scale(1,-1) translate(50,-110)"
    />
  
  <line
    x1="26.67431285756135"
    y1="84.739065270314"
    x2="14.713750063118354"
    y2="86.83775410466039"
    stroke="hsla(0,50%,50%,0.6)"
    stroke-width="1"
    transform="translate(-39.5407219806,-58.9784707457) scale(1,-1) translate(50,-110)"
    />
  
  <line
    x1="66.55467774642602"
    y1="85.46806510741786"
    x2="20.191307451345388"
    y2="98.1855265390162"
    stroke="hsla(0,50%,50%,0.6)"
    stroke-width="1"
    transform="translate(-39.5407219806,-58.9784707457) scale(1,-1) translate(50,-110)"
    />
  
</svg>
