<?xml version="1.0"?>
<!DOCTYPE svg PUBLIC "-//W3C//DTD SVG 1.1//EN"
  "http://www.w3.org/Graphics/SVG/1.1/DTD/svg11.dtd">
<svg
  width="240"
  height="240"
  viewBox="-50 -50 200 200" xmlns="http://www.w3.org/2000/svg" version="1.1">
  <rect
    x="0"
    y="0"
    width="100"
    height="100"
    fill="hsla(206,100%,53%,0.3)"
    stroke="hsl(206,100%,53%)"
    stroke-width="3"
    transform="" />
  
  <path
    d="M 
      56.2966836841
      -12.1873240488
      L
    
      58.4263089803
      -11.7507533001
      L
    
      46.1229927784
      48.2657583248
      L
    
      50
      50
      L
    
      42.1867628801
      67.4669869668
      L
    
      -35.7706189012
      42.3740141692
      L
    
      -49.1355476998
      27.4367408060
      L
    
      -49.3043298132
      27.0982114872
      L
    
      -41.2836587566
      9.1674928029
      L
    
      -10.3806617673
      22.9908524728
      z
    "
    fill="hsla(0,0%,50%,0.3)"
    stroke="hsla(0,0%,50%,1)"
    stroke-width="1"
    transform="translate(24.4090609158,-21.8001408486) scale(1,-1) translate(50,-110)"
    />
  
  
  <line
    x1="56.29668368418303"
    y1="-12.187324048821822"
    x2="58.426308980343215"
    y2="-11.75075330019161"
    stroke="hsla(0,50%,50%,0.6)"
    stroke-width="1"
    transform="translate(24.4090609158,-21.8001408486) scale(1,-1) translate(50,-110)"
    />
  
  <line
    x1="-41.2836587566475"
    y1="9.167492802915799"
    x2="-49.304329813217606"
    y2="27.098211487257274"
    stroke="hsla(0,50%,50%,0.6)"
    stroke-width="1"
    transform="translate(24.4090609158,-21.8001408486) scale(1,-1) translate(50,-110)"
    />
  
  <line
    x1="-37.244735316122565"
    y1="35.117287252269186"
    x2="-39.410050822583216"
    y2="38.306413786524644"
    stroke="hsla(0,50%,50%,0.6)"
    stroke-width="1"
    transform="translate(24.4090609158,-21.8001408486) scale(1,-1) translate(50,-110)"
    />
  
  <line
    x1="8.221005703389975"
    y1="15.227798402642794"
    x2="32.93516601510873"
    y2="43.43170380750943"
    stroke="hsla(0,50%,50%,0.6)"
    stroke-width="1"
    transform="translate(24.4090609158,-21.8001408486) scale(1,-1) translate(50,-110)"
    />
  
  <line
    x1="-29.46105491552516"
    y1="31.643286474617902"
    x2="-26.254092438257107"
    y2="45.437199902333155"
    stroke="hsla(0,50%,50%,0.6)"
    stroke-width="1"
    transform="translate(24.4090609158,-21.8001408486) scale(1,-1) translate(50,-110)"
    />
  
  <line
    x1="-37.244735316122565"
    y1="35.117287252269186"
    x2="-35.770618901216416"
    y2="42.374014169228715"
    stroke="hsla(0,50%,50%,0.6)"
    stroke-width="1"
    transform="translate(24.4090609158,-21.8001408486) scale(1,-1) translate(50,-110)"
    />
  
  <line
    x1="58.426308980343215"
    y1="-11.75075330019161"
    x2="42.18676288013066"
    y2="67.46698696684133"
    stroke="hsla(0,50%,50%,0.6)"
    stroke-width="1"
    transform="translate(24.4090609158,-21.8001408486) scale(1,-1) translate(50,-110)"
    />
  
  <line
    x1="8.221005703389975"
    y1="15.227798402642794"
    x2="-26.254092438257107"
    y2="45.437199902333155"
    stroke="hsla(0,50%,50%,0.6)"
    stroke-width="1"
    transform="translate(24.4090609158,-21.8001408486) scale(1,-1) translate(50,-110)"
    />
  
  <line
    x1="56.29668368418303"
    y1="-12.187324048821822"
    x2="-39.410050822583216"
    y2="38.306413786524644"
    stroke="hsla(0,50%,50%,0.6)"
    stroke-width="1"
    transform="translate(24.4090609158,-21.8001408486) scale(1,-1) translate(50,-110)"
    />
  
  <line
    x1="56.29668368418303"
    y1="-12.187324048821822"
    x2="32.93516601510873"
    y2="43.43170380750943"
    stroke="hsla(0,50%,50%,0.6)"
    stroke-width="1"
    transform="translate(24.4090609158,-21.8001408486) scale(1,-1) translate(50,-110)"
    />
  
  <line
    x1="-41.2836587566475"
    y1="9.167492802915799"
    x2="50"
    y2="50"
    stroke="hsla(0,50%,50%,0.6)"
    stroke-width="1"
    transform="translate(24.4090609158,-21.8001408486) scale(1,-1) translate(50,-110)"
    />
  
  <line
    x1="-49.304329813217606"
    y1="27.098211487257274"
    x2="-49.13554769985243"
    y2="27.436740806047286"
    stroke="hsla(0,50%,50%,0.6)"
    stroke-width="1"
    transform="translate(24.4090609158,-21.8001408486) scale(1,-1) translate(50,-110)"
    />
  
  <line
    x1="50"
    y1="50"
    x2="42.18676288013066"
    y2="67.46698696684133"
    stroke="hsla(0,50%,50%,0.6)"
    stroke-width="1"
    transform="translate(24.4090609158,-21.8001408486) scale(1,-1) translate(50,-110)"
    />
  
  <line
    x1="-29.46105491552516"
    y1="31.643286474617902"
    x2="-10.550873200326276"
    y2="50.491762333348866"
    stroke="hsla(0,50%,50%,0.6)"
    stroke-width="1"
    transform="translate(24.4090609158,-21.8001408486) scale(1,-1) translate(50,-110)"
    />
  
  <line
    x1="-49.304329813217606"
    y1="27.098211487257274"
    x2="-29.46105491552516"
    y2="31.643286474617902"
    stroke="hsla(0,50%,50%,0.6)"
    stroke-width="1"
    transform="translate(24.4090609158,-21.8001408486) scale(1,-1) translate(50,-110)"
    />
  
  <line
    x1="-49.13554769985243"
    y1="27.436740806047286"
    x2="-35.770618901216416"
    y2="42.374014169228715"
    stroke="hsla(0,50%,50%,0.6)"
    stroke-width="1"
    transform="translate(24.4090609158,-21.8001408486) scale(1,-1) translate(50,-110)"
    />
  
  <line
    x1="-49.13554769985243"
    y1="27.436740806047286"
    x2="-37.244735316122565"
    y2="35.117287252269186"
    stroke="hsla(0,50%,50%,0.6)"
    stroke-width="1"
    transform="translate(24.4090609158,-21.8001408486) scale(1,-1) translate(50,-110)"
    />
  
  <line
    x1="32.93516601510873"
    y1="43.43170380750943"
    x2="-10.550873200326276"
    y2="50.491762333348866"
    stroke="hsla(0,50%,50%,0.6)"
    stroke-width="1"
    transform="translate(24.4090609158,-21.8001408486) scale(1,-1) translate(50,-110)"
    />
  
  <line
    x1="-35.770618901216416"
    y1="42.374014169228715"
    x2="42.18676288013066"
    y2="67.46698696684133"
    stroke="hsla(0,50%,50%,0.6)"
    stroke-width="1"
    transform="translate(24.4090609158,-21.8001408486) scale(1,-1) translate(50,-110)"
    />
  
</svg>
