<?xml version="1.0"?>
<!DOCTYPE svg PUBLIC "-//W3C//DTD SVG 1.1//EN"
  "http://www.w3.org/Graphics/SVG/1.1/DTD/svg11.dtd">
<svg
  width="240"
  height="240"
  viewBox="-50 -50 200 200" xmlns="http://www.w3.org/2000/svg" version="1.1">
  <rect
    x="0"
    y="0"
    width="100"
    height="100"
    fill="hsla(206,100%,53%,0.3)"
    stroke="hsl(206,100%,53%)"
    stroke-width="3"
    transform="" />
  
  <path
    d="M 
      -5.8055407280
      11.1756165261
      L
    
      36.1024627180
      17.4215208858
      L
    
      36.5124769623
      29.4370691130
      L
    
      40.9160620089
      34.5617056233
      L
    
      14.6259794968
      66.3021710952
      L
    
      7.0240192782
      65.0157238322
      L
    
      -12.9207202588
      47.1501656368
      L
    
      -12.5903154751
      39.5272425118
      L
    
      -0.0821074956
      40.0693930339
      L
    
      1.2796163239
      44.8497767703
      L
    
      1.6321764527
      44.9032710388
      L
    
      5.1056106877
      44.3669901338
      L
    
      5.9517118695
      42.8980150442
      L
    
      2.6027424345
      33.8621163800
      L
    
      -1.4313140726
      39.3512581547
      L
    
      -8.9278280822
      37.0659581838
      L
    
      -16.6774959717
      41.9790913050
      L
    
      -22.3951149359
      32.9604779279
      z
    "
    fill="hsla(0,0%,50%,0.3)"
    stroke="hsla(0,0%,50%,1)"
    stroke-width="1"
    transform="translate(16.3548685834,-36.4894478474) scale(1,-1) translate(50,-110)"
    />
  
  
  <line
    x1="24.73126122538542"
    y1="15.726774509552635"
    x2="40.91606200897011"
    y2="34.56170562331658"
    stroke="hsla(0,50%,50%,0.6)"
    stroke-width="1"
    transform="translate(16.3548685834,-36.4894478474) scale(1,-1) translate(50,-110)"
    />
  
  <line
    x1="16.799465240641712"
    y1="14.544631838749487"
    x2="28.920793797732006"
    y2="49.04379773200648"
    stroke="hsla(0,50%,50%,0.6)"
    stroke-width="1"
    transform="translate(16.3548685834,-36.4894478474) scale(1,-1) translate(50,-110)"
    />
  
  <line
    x1="36.10246271801192"
    y1="17.421520885857547"
    x2="36.85466967293809"
    y2="39.4650939314528"
    stroke="hsla(0,50%,50%,0.6)"
    stroke-width="1"
    transform="translate(16.3548685834,-36.4894478474) scale(1,-1) translate(50,-110)"
    />
  
  <line
    x1="-12.590315475109687"
    y1="39.5272425118735"
    x2="-12.920720258831272"
    y2="47.150165636877006"
    stroke="hsla(0,50%,50%,0.6)"
    stroke-width="1"
    transform="translate(16.3548685834,-36.4894478474) scale(1,-1) translate(50,-110)"
    />
  
  <line
    x1="-5.805540728087968"
    y1="11.175616526102274"
    x2="-22.39511493594026"
    y2="32.960477927951075"
    stroke="hsla(0,50%,50%,0.6)"
    stroke-width="1"
    transform="translate(16.3548685834,-36.4894478474) scale(1,-1) translate(50,-110)"
    />
  
  <line
    x1="-0.08210749561691272"
    y1="40.06939303398139"
    x2="7.024019278287867"
    y2="65.01572383228874"
    stroke="hsla(0,50%,50%,0.6)"
    stroke-width="1"
    transform="translate(16.3548685834,-36.4894478474) scale(1,-1) translate(50,-110)"
    />
  
  <line
    x1="-9.282897330007769"
    y1="43.247116980823485"
    x2="-7.6481241729347"
    y2="51.873108848954246"
    stroke="hsla(0,50%,50%,0.6)"
    stroke-width="1"
    transform="translate(16.3548685834,-36.4894478474) scale(1,-1) translate(50,-110)"
    />
  
  <line
    x1="-5.805540728087968"
    y1="11.175616526102274"
    x2="14.625979496847934"
    y2="66.30217109526896"
    stroke="hsla(0,50%,50%,0.6)"
    stroke-width="1"
    transform="translate(16.3548685834,-36.4894478474) scale(1,-1) translate(50,-110)"
    />
  
  <line
    x1="-9.282897330007769"
    y1="43.247116980823485"
    x2="-11.861316539459521"
    y2="48.099129586275644"
    stroke="hsla(0,50%,50%,0.6)"
    stroke-width="1"
    transform="translate(16.3548685834,-36.4894478474) scale(1,-1) translate(50,-110)"
    />
  
  <line
    x1="18.267130699517573"
    y1="21.51636014299376"
    x2="40.91606200897011"
    y2="34.56170562331658"
    stroke="hsla(0,50%,50%,0.6)"
    stroke-width="1"
    transform="translate(16.3548685834,-36.4894478474) scale(1,-1) translate(50,-110)"
    />
  
  <line
    x1="-5.805540728087968"
    y1="11.175616526102274"
    x2="36.10246271801192"
    y2="17.421520885857547"
    stroke="hsla(0,50%,50%,0.6)"
    stroke-width="1"
    transform="translate(16.3548685834,-36.4894478474) scale(1,-1) translate(50,-110)"
    />
  
  <line
    x1="36.10246271801192"
    y1="17.421520885857547"
    x2="29.638163220650608"
    y2="36.2934467837211"
    stroke="hsla(0,50%,50%,0.6)"
    stroke-width="1"
    transform="translate(16.3548685834,-36.4894478474) scale(1,-1) translate(50,-110)"
    />
  
  <line
    x1="16.799465240641712"
    y1="14.544631838749487"
    x2="-1.431314072693383"
    y2="39.35125815470643"
    stroke="hsla(0,50%,50%,0.6)"
    stroke-width="1"
    transform="translate(16.3548685834,-36.4894478474) scale(1,-1) translate(50,-110)"
    />
  
  <line
    x1="-13.643376625860865"
    y1="21.46799453316402"
    x2="-1.431314072693383"
    y2="39.35125815470643"
    stroke="hsla(0,50%,50%,0.6)"
    stroke-width="1"
    transform="translate(16.3548685834,-36.4894478474) scale(1,-1) translate(50,-110)"
    />
  
  <line
    x1="18.267130699517573"
    y1="21.51636014299376"
    x2="-2.086969714682218"
    y2="56.85452905866303"
    stroke="hsla(0,50%,50%,0.6)"
    stroke-width="1"
    transform="translate(16.3548685834,-36.4894478474) scale(1,-1) translate(50,-110)"
    />
  
  <line
    x1="-22.39511493594026"
    y1="32.960477927951075"
    x2="-16.677495971772096"
    y2="41.979091305089455"
    stroke="hsla(0,50%,50%,0.6)"
    stroke-width="1"
    transform="translate(16.3548685834,-36.4894478474) scale(1,-1) translate(50,-110)"
    />
  
  <line
    x1="24.73126122538542"
    y1="15.726774509552635"
    x2="-16.677495971772096"
    y2="41.979091305089455"
    stroke="hsla(0,50%,50%,0.6)"
    stroke-width="1"
    transform="translate(16.3548685834,-36.4894478474) scale(1,-1) translate(50,-110)"
    />
  
  <line
    x1="-13.643376625860865"
    y1="21.46799453316402"
    x2="29.638163220650608"
    y2="36.2934467837211"
    stroke="hsla(0,50%,50%,0.6)"
    stroke-width="1"
    transform="translate(16.3548685834,-36.4894478474) scale(1,-1) translate(50,-110)"
    />
  
  <line
    x1="-0.08210749561691272"
    y1="40.06939303398139"
    x2="-11.861316539459521"
    y2="48.099129586275644"
    stroke="hsla(0,50%,50%,0.6)"
    stroke-width="1"
    transform="translate(16.3548685834,-36.4894478474) scale(1,-1) translate(50,-110)"
    />
  
  <line
    x1="-12.920720258831272"
    y1="47.150165636877006"
    x2="7.024019278287867"
    y2="65.01572383228874"
    stroke="hsla(0,50%,50%,0.6)"
    stroke-width="1"
    transform="translate(16.3548685834,-36.4894478474) scale(1,-1) translate(50,-110)"
    />
  
  <line
    x1="40.91606200897011"
    y1="34.56170562331658"
    x2="14.625979496847934"
    y2="66.30217109526896"
    stroke="hsla(0,50%,50%,0.6)"
    stroke-width="1"
    transform="translate(16.3548685834,-36.4894478474) scale(1,-1) translate(50,-110)"
    />
  
  <line
    x1="3.5272311549161923"
    y1="52.74011490598069"
    x2="-2.086969714682218"
    y2="56.85452905866303"
    stroke="hsla(0,50%,50%,0.6)"
    stroke-width="1"
    transform="translate(16.3548685834,-36.4894478474) scale(1,-1) translate(50,-110)"
    />
  
  <line
    x1="-22.39511493594026"
    y1="32.960477927951075"
    x2="-1.431314072693383"
    y2="39.35125815470643"
    stroke="hsla(0,50%,50%,0.6)"
    stroke-width="1"
    transform="translate(16.3548685834,-36.4894478474) scale(1,-1) translate(50,-110)"
    />
  
  <line
    x1="-12.590315475109687"
    y1="39.5272425118735"
    x2="-0.08210749561691272"
    y2="40.06939303398139"
    stroke="hsla(0,50%,50%,0.6)"
    stroke-width="1"
    transform="translate(16.3548685834,-36.4894478474) scale(1,-1) translate(50,-110)"
    />
  
  <line
    x1="-9.282897330007769"
    y1="43.247116980823485"
    x2="28.920793797732006"
    y2="49.04379773200648"
    stroke="hsla(0,50%,50%,0.6)"
    stroke-width="1"
    transform="translate(16.3548685834,-36.4894478474) scale(1,-1) translate(50,-110)"
    />
  
  <line
    x1="36.85466967293809"
    y1="39.4650939314528"
    x2="-12.920720258831272"
    y2="47.150165636877006"
    stroke="hsla(0,50%,50%,0.6)"
    stroke-width="1"
    transform="translate(16.3548685834,-36.4894478474) scale(1,-1) translate(50,-110)"
    />
  
  <line
    x1="-7.6481241729347"
    y1="51.873108848954246"
    x2="3.5272311549161923"
    y2="52.74011490598069"
    stroke="hsla(0,50%,50%,0.6)"
    stroke-width="1"
    transform="translate(16.3548685834,-36.4894478474) scale(1,-1) translate(50,-110)"
    />
  
  <line
    x1="7.024019278287867"
    y1="65.01572383228874"
    x2="14.625979496847934"
    y2="66.30217109526896"
    stroke="hsla(0,50%,50%,0.6)"
    stroke-width="1"
    transform="translate(16.3548685834,-36.4894478474) scale(1,-1) translate(50,-110)"
    />
  
</svg>
