<?xml version="1.0"?>
<!DOCTYPE svg PUBLIC "-//W3C//DTD SVG 1.1//EN"
  "http://www.w3.org/Graphics/SVG/1.1/DTD/svg11.dtd">
<svg
  width="240"
  height="240"
  viewBox="-50 -50 200 200" xmlns="http://www.w3.org/2000/svg" version="1.1">
  <rect
    x="0"
    y="0"
    width="100"
    height="100"
    fill="hsla(206,100%,53%,0.3)"
    stroke="hsl(206,100%,53%)"
    stroke-width="3"
    transform="" />
  
  <path
    d="M 
      -0.0000000000
      0.0000000000
      L
    
      8.1081081081
      23.6486486486
      L
    
      -12.5596184419
      54.0540540540
      L
    
      -28.6742273930
      54.8039763320
      L
    
      -54.4235809736
      26.5586731405
      L
    
      -52.7067984729
      14.2774505094
      L
    
      -24.8628119715
      18.1697395926
      L
    
      -27.8219395866
      9.5389507154
      z
    "
    fill="hsla(0,0%,50%,0.3)"
    stroke="hsla(0,0%,50%,1)"
    stroke-width="1"
    transform="translate(27.2547206185,-19.7738099035) scale(1,-1) translate(50,-110)"
    />
  
  <path
    d="M 
      -23.9324726911
      20.8832291605
      L
    
      -24.5313795593
      25.1675858452
      L
    
      -22.4960254372
      25.0728669846
      z
    "
    fill="hsla(0,0%,50%,0.3)"
    stroke="hsla(0,0%,50%,1)"
    stroke-width="1"
    transform="translate(27.2547206185,-19.7738099035) scale(1,-1) translate(50,-110)"
    />
  
  
  <line
    x1="-52.70679847293505"
    y1="14.277450509443026"
    x2="-54.423580973660464"
    y2="26.558673140549136"
    stroke="hsla(0,50%,50%,0.6)"
    stroke-width="1"
    transform="translate(27.2547206185,-19.7738099035) scale(1,-1) translate(50,-110)"
    />
  
  <line
    x1="-46.88109030176933"
    y1="15.091821695684569"
    x2="-49.27371025753145"
    y2="32.20773377885507"
    stroke="hsla(0,50%,50%,0.6)"
    stroke-width="1"
    transform="translate(27.2547206185,-19.7738099035) scale(1,-1) translate(50,-110)"
    />
  
  <line
    x1="-23.57825761710646"
    y1="18.349306440650743"
    x2="-28.674227393015386"
    y2="54.80397633207883"
    stroke="hsla(0,50%,50%,0.6)"
    stroke-width="1"
    transform="translate(27.2547206185,-19.7738099035) scale(1,-1) translate(50,-110)"
    />
  
  <line
    x1="-1.5399349093820572e-20"
    y1="5.279776832167054e-21"
    x2="-3.0798698187641145e-20"
    y2="1.0559553664334107e-20"
    stroke="hsla(0,50%,50%,0.6)"
    stroke-width="1"
    transform="translate(27.2547206185,-19.7738099035) scale(1,-1) translate(50,-110)"
    />
  
  <line
    x1="-1.5399349093820572e-20"
    y1="5.279776832167054e-21"
    x2="-27.82193958664547"
    y2="9.538950715421304"
    stroke="hsla(0,50%,50%,0.6)"
    stroke-width="1"
    transform="translate(27.2547206185,-19.7738099035) scale(1,-1) translate(50,-110)"
    />
  
  <line
    x1="-1.5399349093820572e-20"
    y1="5.279776832167054e-21"
    x2="8.108108108108109"
    y2="23.64864864864865"
    stroke="hsla(0,50%,50%,0.6)"
    stroke-width="1"
    transform="translate(27.2547206185,-19.7738099035) scale(1,-1) translate(50,-110)"
    />
  
  <line
    x1="-3.0798698187641145e-20"
    y1="1.0559553664334107e-20"
    x2="8.108108108108109"
    y2="23.64864864864865"
    stroke="hsla(0,50%,50%,0.6)"
    stroke-width="1"
    transform="translate(27.2547206185,-19.7738099035) scale(1,-1) translate(50,-110)"
    />
  
  <line
    x1="-5.5643879173290935"
    y1="1.9077901430842608"
    x2="3.97456279809221"
    y2="29.72972972972973"
    stroke="hsla(0,50%,50%,0.6)"
    stroke-width="1"
    transform="translate(27.2547206185,-19.7738099035) scale(1,-1) translate(50,-110)"
    />
  
  <line
    x1="-27.82193958664547"
    y1="9.538950715421304"
    x2="-12.559618441971383"
    y2="54.054054054054056"
    stroke="hsla(0,50%,50%,0.6)"
    stroke-width="1"
    transform="translate(27.2547206185,-19.7738099035) scale(1,-1) translate(50,-110)"
    />
  
  <line
    x1="8.108108108108109"
    y1="23.64864864864865"
    x2="-12.559618441971383"
    y2="54.054054054054056"
    stroke="hsla(0,50%,50%,0.6)"
    stroke-width="1"
    transform="translate(27.2547206185,-19.7738099035) scale(1,-1) translate(50,-110)"
    />
  
  <line
    x1="-52.70679847293505"
    y1="14.277450509443026"
    x2="-23.57825761710646"
    y2="18.349306440650743"
    stroke="hsla(0,50%,50%,0.6)"
    stroke-width="1"
    transform="translate(27.2547206185,-19.7738099035) scale(1,-1) translate(50,-110)"
    />
  
  <line
    x1="8.108108108108109"
    y1="23.64864864864865"
    x2="-54.423580973660464"
    y2="26.558673140549136"
    stroke="hsla(0,50%,50%,0.6)"
    stroke-width="1"
    transform="translate(27.2547206185,-19.7738099035) scale(1,-1) translate(50,-110)"
    />
  
  <line
    x1="3.97456279809221"
    y1="29.72972972972973"
    x2="-49.27371025753145"
    y2="32.20773377885507"
    stroke="hsla(0,50%,50%,0.6)"
    stroke-width="1"
    transform="translate(27.2547206185,-19.7738099035) scale(1,-1) translate(50,-110)"
    />
  
  <line
    x1="-54.423580973660464"
    y1="26.558673140549136"
    x2="-28.674227393015386"
    y2="54.80397633207883"
    stroke="hsla(0,50%,50%,0.6)"
    stroke-width="1"
    transform="translate(27.2547206185,-19.7738099035) scale(1,-1) translate(50,-110)"
    />
  
  <line
    x1="-12.559618441971383"
    y1="54.054054054054056"
    x2="-28.674227393015386"
    y2="54.80397633207883"
    stroke="hsla(0,50%,50%,0.6)"
    stroke-width="1"
    transform="translate(27.2547206185,-19.7738099035) scale(1,-1) translate(50,-110)"
    />
  
</svg>
