<?xml version="1.0"?>
<!DOCTYPE svg PUBLIC "-//W3C//DTD SVG 1.1//EN"
  "http://www.w3.org/Graphics/SVG/1.1/DTD/svg11.dtd">
<svg
  width="240"
  height="240"
  viewBox="-50 -50 200 200" xmlns="http://www.w3.org/2000/svg" version="1.1">
  <rect
    x="0"
    y="0"
    width="100"
    height="100"
    fill="hsla(206,100%,53%,0.3)"
    stroke="hsl(206,100%,53%)"
    stroke-width="3"
    transform="" />
  
  <path
    d="M 
      76.9201514376
      -45.4145966779
      L
    
      86.1404331778
      -36.1422655488
      L
    
      95.9678827020
      -38.5407575493
      L
    
      99.8580301992
      -37.4966280010
      L
    
      101.7927596439
      -38.4484272997
      L
    
      102.6265659553
      -36.7535430691
      L
    
      110.4967055511
      -34.6411693592
      L
    
      108.9660508003
      -23.8672255322
      L
    
      119.3640868058
      -2.7310611588
      L
    
      104.4510385756
      7.9129574678
      L
    
      47.4777448071
      -26.7062314540
      L
    
      61.5633122825
      -30.1439617449
      z
    "
    fill="hsla(0,0%,50%,0.3)"
    stroke="hsla(0,0%,50%,1)"
    stroke-width="1"
    transform="translate(-69.8671989927,22.8052514151) scale(1,-1) translate(50,-110)"
    />
  
  
  <line
    x1="76.9201514376343"
    y1="-45.41459667792217"
    x2="119.36408680583415"
    y2="-2.7310611588473144"
    stroke="hsla(0,50%,50%,0.6)"
    stroke-width="1"
    transform="translate(-69.8671989927,22.8052514151) scale(1,-1) translate(50,-110)"
    />
  
  <line
    x1="95.96788270204225"
    y1="-38.54075754931053"
    x2="110.49670555110714"
    y2="-34.64116935927025"
    stroke="hsla(0,50%,50%,0.6)"
    stroke-width="1"
    transform="translate(-69.8671989927,22.8052514151) scale(1,-1) translate(50,-110)"
    />
  
  <line
    x1="101.79275964391691"
    y1="-38.44842729970326"
    x2="119.36408680583415"
    y2="-2.7310611588473144"
    stroke="hsla(0,50%,50%,0.6)"
    stroke-width="1"
    transform="translate(-69.8671989927,22.8052514151) scale(1,-1) translate(50,-110)"
    />
  
  <line
    x1="55.98249272134038"
    y1="-28.78190427108307"
    x2="61.08709369350933"
    y2="-23.648487329035778"
    stroke="hsla(0,50%,50%,0.6)"
    stroke-width="1"
    transform="translate(-69.8671989927,22.8052514151) scale(1,-1) translate(50,-110)"
    />
  
  <line
    x1="47.47774480712166"
    y1="-26.706231454005934"
    x2="104.45103857566765"
    y2="7.9129574678536105"
    stroke="hsla(0,50%,50%,0.6)"
    stroke-width="1"
    transform="translate(-69.8671989927,22.8052514151) scale(1,-1) translate(50,-110)"
    />
  
  <line
    x1="82.30378385290324"
    y1="-35.2058910915293"
    x2="110.49670555110714"
    y2="-34.64116935927025"
    stroke="hsla(0,50%,50%,0.6)"
    stroke-width="1"
    transform="translate(-69.8671989927,22.8052514151) scale(1,-1) translate(50,-110)"
    />
  
  <line
    x1="60.85045954523417"
    y1="-29.96998256719538"
    x2="68.8427299703264"
    y2="-13.724035608308606"
    stroke="hsla(0,50%,50%,0.6)"
    stroke-width="1"
    transform="translate(-69.8671989927,22.8052514151) scale(1,-1) translate(50,-110)"
    />
  
  <line
    x1="97.33960912718715"
    y1="-24.652955421399092"
    x2="104.45103857566765"
    y2="7.9129574678536105"
    stroke="hsla(0,50%,50%,0.6)"
    stroke-width="1"
    transform="translate(-69.8671989927,22.8052514151) scale(1,-1) translate(50,-110)"
    />
  
  <line
    x1="59.7645412655907"
    y1="-29.704952835878508"
    x2="63.14540059347181"
    y2="-17.18595450049456"
    stroke="hsla(0,50%,50%,0.6)"
    stroke-width="1"
    transform="translate(-69.8671989927,22.8052514151) scale(1,-1) translate(50,-110)"
    />
  
  <line
    x1="95.96788270204225"
    y1="-38.54075754931053"
    x2="47.47774480712166"
    y2="-26.706231454005934"
    stroke="hsla(0,50%,50%,0.6)"
    stroke-width="1"
    transform="translate(-69.8671989927,22.8052514151) scale(1,-1) translate(50,-110)"
    />
  
  <line
    x1="59.7645412655907"
    y1="-29.704952835878508"
    x2="61.08709369350933"
    y2="-23.648487329035778"
    stroke="hsla(0,50%,50%,0.6)"
    stroke-width="1"
    transform="translate(-69.8671989927,22.8052514151) scale(1,-1) translate(50,-110)"
    />
  
  <line
    x1="97.33960912718715"
    y1="-24.652955421399092"
    x2="63.14540059347181"
    y2="-17.18595450049456"
    stroke="hsla(0,50%,50%,0.6)"
    stroke-width="1"
    transform="translate(-69.8671989927,22.8052514151) scale(1,-1) translate(50,-110)"
    />
  
  <line
    x1="60.85045954523417"
    y1="-29.96998256719538"
    x2="61.099443127495086"
    y2="-18.429157821834583"
    stroke="hsla(0,50%,50%,0.6)"
    stroke-width="1"
    transform="translate(-69.8671989927,22.8052514151) scale(1,-1) translate(50,-110)"
    />
  
  <line
    x1="82.30378385290324"
    y1="-35.2058910915293"
    x2="61.08709369350933"
    y2="-23.648487329035778"
    stroke="hsla(0,50%,50%,0.6)"
    stroke-width="1"
    transform="translate(-69.8671989927,22.8052514151) scale(1,-1) translate(50,-110)"
    />
  
  <line
    x1="101.79275964391691"
    y1="-38.44842729970326"
    x2="61.099443127495086"
    y2="-18.429157821834583"
    stroke="hsla(0,50%,50%,0.6)"
    stroke-width="1"
    transform="translate(-69.8671989927,22.8052514151) scale(1,-1) translate(50,-110)"
    />
  
  <line
    x1="55.98249272134038"
    y1="-28.78190427108307"
    x2="54.07487404407395"
    y2="-22.697559174607843"
    stroke="hsla(0,50%,50%,0.6)"
    stroke-width="1"
    transform="translate(-69.8671989927,22.8052514151) scale(1,-1) translate(50,-110)"
    />
  
  <line
    x1="110.49670555110714"
    y1="-34.64116935927025"
    x2="104.45103857566765"
    y2="7.9129574678536105"
    stroke="hsla(0,50%,50%,0.6)"
    stroke-width="1"
    transform="translate(-69.8671989927,22.8052514151) scale(1,-1) translate(50,-110)"
    />
  
  <line
    x1="76.9201514376343"
    y1="-45.41459667792217"
    x2="54.07487404407395"
    y2="-22.697559174607843"
    stroke="hsla(0,50%,50%,0.6)"
    stroke-width="1"
    transform="translate(-69.8671989927,22.8052514151) scale(1,-1) translate(50,-110)"
    />
  
  <line
    x1="95.96788270204225"
    y1="-38.54075754931053"
    x2="68.8427299703264"
    y2="-13.724035608308606"
    stroke="hsla(0,50%,50%,0.6)"
    stroke-width="1"
    transform="translate(-69.8671989927,22.8052514151) scale(1,-1) translate(50,-110)"
    />
  
  <line
    x1="119.36408680583415"
    y1="-2.7310611588473144"
    x2="104.45103857566765"
    y2="7.9129574678536105"
    stroke="hsla(0,50%,50%,0.6)"
    stroke-width="1"
    transform="translate(-69.8671989927,22.8052514151) scale(1,-1) translate(50,-110)"
    />
  
</svg>
