<?xml version="1.0"?>
<!DOCTYPE svg PUBLIC "-//W3C//DTD SVG 1.1//EN"
  "http://www.w3.org/Graphics/SVG/1.1/DTD/svg11.dtd">
<svg
  width="240"
  height="240"
  viewBox="-500 -500 1000 1000" xmlns="http://www.w3.org/2000/svg" version="1.1">
  <rect
    x="0"
    y="0"
    width="100"
    height="100"
    fill="hsla(206,100%,53%,0.3)"
    stroke="hsl(206,100%,53%)"
    stroke-width="3"
    transform="" />
  
  <path
    d="M 
      83.7030830904
      -57.8882372449
      L
    
      101.1051269497
      -57.3858734932
      L
    
      102.9050137208
      -50.4792852576
      L
    
      113.2456262538
      -48.0345196605
      L
    
      115.1971954098
      -10.2714805968
      L
    
      116.1791604061
      -9.5055301450
      L
    
      116.1249456161
      -6.4087663372
      L
    
      115.4521772579
      -5.3375588534
      L
    
      57.0592651215
      -20.5327363115
      L
    
      53.0513669389
      -15.5505330095
      L
    
      51.7038164374
      -16.6345604726
      L
    
      49.9005660088
      -22.3955943093
      z
    "
    fill="hsla(0,0%,50%,0.3)"
    stroke="hsla(0,0%,50%,1)"
    stroke-width="1"
    transform="translate(-83.0398632074,31.6128980491)"
    />
  
  
  <line
    x1="88.91633795106902"
    y1="-53.78653936493263"
    x2="113.24562625386316"
    y2="-48.03451966055713"
    stroke="hsla(0,50%,50%,0.6)"
    stroke-width="1"
    transform="translate(-83.0398632074,31.6128980491)"
    />
  
  <line
    x1="71.10715311530753"
    y1="-44.6625107710729"
    x2="116.17916040611597"
    y2="-9.505530145012946"
    stroke="hsla(0,50%,50%,0.6)"
    stroke-width="1"
    transform="translate(-83.0398632074,31.6128980491)"
    />
  
  <line
    x1="114.87626981302625"
    y1="-8.560697739553943"
    x2="116.13789281096048"
    y2="-7.148313686042243"
    stroke="hsla(0,50%,50%,0.6)"
    stroke-width="1"
    transform="translate(-83.0398632074,31.6128980491)"
    />
  
  <line
    x1="83.70308309042142"
    y1="-57.88823724494249"
    x2="101.10512694970973"
    y2="-57.38587349327365"
    stroke="hsla(0,50%,50%,0.6)"
    stroke-width="1"
    transform="translate(-83.0398632074,31.6128980491)"
    />
  
  <line
    x1="71.10715311530753"
    y1="-44.6625107710729"
    x2="73.88076869769932"
    y2="-41.44348474905009"
    stroke="hsla(0,50%,50%,0.6)"
    stroke-width="1"
    transform="translate(-83.0398632074,31.6128980491)"
    />
  
  <line
    x1="114.87626981302625"
    y1="-8.560697739553943"
    x2="116.12494561619987"
    y2="-6.408766337275435"
    stroke="hsla(0,50%,50%,0.6)"
    stroke-width="1"
    transform="translate(-83.0398632074,31.6128980491)"
    />
  
  <line
    x1="55.43859649122807"
    y1="-28.210526315789473"
    x2="56.86274509803921"
    y2="-27.45098039215686"
    stroke="hsla(0,50%,50%,0.6)"
    stroke-width="1"
    transform="translate(-83.0398632074,31.6128980491)"
    />
  
  <line
    x1="51.70381643741069"
    y1="-16.63456047268793"
    x2="53.05136693893552"
    y2="-15.55053300958109"
    stroke="hsla(0,50%,50%,0.6)"
    stroke-width="1"
    transform="translate(-83.0398632074,31.6128980491)"
    />
  
  <line
    x1="49.90056600887257"
    y1="-22.3955943093162"
    x2="115.45217725798308"
    y2="-5.337558853452012"
    stroke="hsla(0,50%,50%,0.6)"
    stroke-width="1"
    transform="translate(-83.0398632074,31.6128980491)"
    />
  
  <line
    x1="55.43859649122807"
    y1="-28.210526315789473"
    x2="60.574349040228725"
    y2="-19.618030708245367"
    stroke="hsla(0,50%,50%,0.6)"
    stroke-width="1"
    transform="translate(-83.0398632074,31.6128980491)"
    />
  
  <line
    x1="101.10512694970973"
    y1="-57.38587349327365"
    x2="114.61217816405474"
    y2="-5.556145918729035"
    stroke="hsla(0,50%,50%,0.6)"
    stroke-width="1"
    transform="translate(-83.0398632074,31.6128980491)"
    />
  
  <line
    x1="85.90745098039216"
    y1="-29.54980392156863"
    x2="54.37832466714893"
    y2="-27.097240900506378"
    stroke="hsla(0,50%,50%,0.6)"
    stroke-width="1"
    transform="translate(-83.0398632074,31.6128980491)"
    />
  
  <line
    x1="49.90056600887257"
    y1="-22.3955943093162"
    x2="51.70381643741069"
    y2="-16.63456047268793"
    stroke="hsla(0,50%,50%,0.6)"
    stroke-width="1"
    transform="translate(-83.0398632074,31.6128980491)"
    />
  
  <line
    x1="113.24562625386316"
    y1="-48.03451966055713"
    x2="54.97157709407284"
    y2="-27.72015594877648"
    stroke="hsla(0,50%,50%,0.6)"
    stroke-width="1"
    transform="translate(-83.0398632074,31.6128980491)"
    />
  
  <line
    x1="83.70308309042142"
    y1="-57.88823724494249"
    x2="85.90745098039216"
    y2="-29.54980392156863"
    stroke="hsla(0,50%,50%,0.6)"
    stroke-width="1"
    transform="translate(-83.0398632074,31.6128980491)"
    />
  
  <line
    x1="113.24562625386316"
    y1="-48.03451966055713"
    x2="115.45217725798308"
    y2="-5.337558853452012"
    stroke="hsla(0,50%,50%,0.6)"
    stroke-width="1"
    transform="translate(-83.0398632074,31.6128980491)"
    />
  
  <line
    x1="73.88076869769932"
    y1="-41.44348474905009"
    x2="60.70473151787397"
    y2="-33.739968093767665"
    stroke="hsla(0,50%,50%,0.6)"
    stroke-width="1"
    transform="translate(-83.0398632074,31.6128980491)"
    />
  
  <line
    x1="54.37832466714893"
    y1="-27.097240900506378"
    x2="54.210222372385985"
    y2="-21.274122698617994"
    stroke="hsla(0,50%,50%,0.6)"
    stroke-width="1"
    transform="translate(-83.0398632074,31.6128980491)"
    />
  
  <line
    x1="116.17916040611597"
    y1="-9.505530145012946"
    x2="116.12494561619987"
    y2="-6.408766337275435"
    stroke="hsla(0,50%,50%,0.6)"
    stroke-width="1"
    transform="translate(-83.0398632074,31.6128980491)"
    />
  
  <line
    x1="101.10512694970973"
    y1="-57.38587349327365"
    x2="59.5959595959596"
    y2="-32.57575757575758"
    stroke="hsla(0,50%,50%,0.6)"
    stroke-width="1"
    transform="translate(-83.0398632074,31.6128980491)"
    />
  
  <line
    x1="85.09431394013534"
    y1="-33.75227242825256"
    x2="60.574349040228725"
    y2="-19.618030708245367"
    stroke="hsla(0,50%,50%,0.6)"
    stroke-width="1"
    transform="translate(-83.0398632074,31.6128980491)"
    />
  
  <line
    x1="54.97157709407284"
    y1="-27.72015594877648"
    x2="51.70381643741069"
    y2="-16.63456047268793"
    stroke="hsla(0,50%,50%,0.6)"
    stroke-width="1"
    transform="translate(-83.0398632074,31.6128980491)"
    />
  
  <line
    x1="83.70308309042142"
    y1="-57.88823724494249"
    x2="49.90056600887257"
    y2="-22.3955943093162"
    stroke="hsla(0,50%,50%,0.6)"
    stroke-width="1"
    transform="translate(-83.0398632074,31.6128980491)"
    />
  
  <line
    x1="88.91633795106902"
    y1="-53.78653936493263"
    x2="79.66366413797492"
    y2="-14.650552296035677"
    stroke="hsla(0,50%,50%,0.6)"
    stroke-width="1"
    transform="translate(-83.0398632074,31.6128980491)"
    />
  
  <line
    x1="59.5959595959596"
    y1="-32.57575757575758"
    x2="56.86274509803921"
    y2="-27.45098039215686"
    stroke="hsla(0,50%,50%,0.6)"
    stroke-width="1"
    transform="translate(-83.0398632074,31.6128980491)"
    />
  
  <line
    x1="60.70473151787397"
    y1="-33.739968093767665"
    x2="54.210222372385985"
    y2="-21.274122698617994"
    stroke="hsla(0,50%,50%,0.6)"
    stroke-width="1"
    transform="translate(-83.0398632074,31.6128980491)"
    />
  
  <line
    x1="73.88076869769932"
    y1="-41.44348474905009"
    x2="53.05136693893552"
    y2="-15.55053300958109"
    stroke="hsla(0,50%,50%,0.6)"
    stroke-width="1"
    transform="translate(-83.0398632074,31.6128980491)"
    />
  
  <line
    x1="85.09431394013534"
    y1="-33.75227242825256"
    x2="79.66366413797492"
    y2="-14.650552296035677"
    stroke="hsla(0,50%,50%,0.6)"
    stroke-width="1"
    transform="translate(-83.0398632074,31.6128980491)"
    />
  
  <line
    x1="116.17916040611597"
    y1="-9.505530145012946"
    x2="114.87626981302625"
    y2="-8.560697739553943"
    stroke="hsla(0,50%,50%,0.6)"
    stroke-width="1"
    transform="translate(-83.0398632074,31.6128980491)"
    />
  
  <line
    x1="116.12494561619987"
    y1="-6.408766337275435"
    x2="115.45217725798308"
    y2="-5.337558853452012"
    stroke="hsla(0,50%,50%,0.6)"
    stroke-width="1"
    transform="translate(-83.0398632074,31.6128980491)"
    />
  
  <line
    x1="116.13789281096048"
    y1="-7.148313686042243"
    x2="114.61217816405474"
    y2="-5.556145918729035"
    stroke="hsla(0,50%,50%,0.6)"
    stroke-width="1"
    transform="translate(-83.0398632074,31.6128980491)"
    />
  
</svg>
