<?xml version="1.0"?>
<!DOCTYPE svg PUBLIC "-//W3C//DTD SVG 1.1//EN"
  "http://www.w3.org/Graphics/SVG/1.1/DTD/svg11.dtd">
<svg
  width="240"
  height="240"
  viewBox="-500 -500 1000 1000" xmlns="http://www.w3.org/2000/svg" version="1.1">
  <rect
    x="0"
    y="0"
    width="100"
    height="100"
    fill="hsla(206,100%,53%,0.3)"
    stroke="hsl(206,100%,53%)"
    stroke-width="3"
    transform="" />
  
  <path
    d="M 
      120.7084034228
      -3.4194397718
      L
    
      127.3160730393
      -2.5344840196
      L
    
      127.2568321997
      -1.6458714254
      L
    
      127.2841366196
      -1.6422145834
      L
    
      127.2244082010
      -0.7462883054
      L
    
      127.2517126209
      -0.7426314634
      L
    
      127.1914966235
      0.1606084985
      L
    
      127.2188010434
      0.1642653404
      L
    
      127.1580974670
      1.0748189863
      L
    
      127.1854018869
      1.0784758282
      L
    
      127.1242107316
      1.9963431580
      L
    
      127.1515151515
      2
      L
    
      125.5194805194
      26.4805194805
      L
    
      102
      50
      L
    
      100
      50
      L
    
      79.5454545454
      29.5454545454
      L
    
      81.5151515151
      0
      L
    
      100
      0
      L
    
      100
      28.1818181818
      L
    
      102
      28.0484848484
      L
    
      102
      2
      L
    
      120.2093663911
      2
      L
    
      120.2708013359
      1.0784758282
      L
    
      120.2983495453
      1.0784758282
      L
    
      120.3592969111
      0.1642653404
      L
    
      120.3868451205
      0.1642653404
      L
    
      120.4473049074
      -0.7426314634
      L
    
      120.4748531168
      -0.7426314634
      L
    
      120.5348253248
      -1.6422145834
      L
    
      120.5623735342
      -1.6422145834
      L
    
      120.6535507935
      -3.0098734732
      z
    "
    fill="hsla(0,0%,50%,0.3)"
    stroke="hsla(0,0%,50%,1)"
    stroke-width="1"
    transform="translate(-103.4307637923,-23.2902801140)"
    />
  
  
  <line
    x1="79.54545454545455"
    y1="29.545454545454547"
    x2="100"
    y2="50"
    stroke="hsla(0,50%,50%,0.6)"
    stroke-width="1"
    transform="translate(-103.4307637923,-23.2902801140)"
    />
  
  <line
    x1="120.70840342280407"
    y1="-3.419439771813062"
    x2="127.31607303932324"
    y2="-2.534484019600673"
    stroke="hsla(0,50%,50%,0.6)"
    stroke-width="1"
    transform="translate(-103.4307637923,-23.2902801140)"
    />
  
  <line
    x1="120.62185816329018"
    y1="-2.534484019600673"
    x2="127.2841366196153"
    y2="-1.6422145834857018"
    stroke="hsla(0,50%,50%,0.6)"
    stroke-width="1"
    transform="translate(-103.4307637923,-23.2902801140)"
    />
  
  <line
    x1="120.53482532484946"
    y1="-1.6422145834857018"
    x2="127.25171262098053"
    y2="-0.7426314634681489"
    stroke="hsla(0,50%,50%,0.6)"
    stroke-width="1"
    transform="translate(-103.4307637923,-23.2902801140)"
    />
  
  <line
    x1="120.4473049074819"
    y1="-0.7426314634681489"
    x2="127.2188010434189"
    y2="0.16426534045198565"
    stroke="hsla(0,50%,50%,0.6)"
    stroke-width="1"
    transform="translate(-103.4307637923,-23.2902801140)"
    />
  
  <line
    x1="120.3592969111875"
    y1="0.16426534045198565"
    x2="127.18540188693045"
    y2="1.078475828274702"
    stroke="hsla(0,50%,50%,0.6)"
    stroke-width="1"
    transform="translate(-103.4307637923,-23.2902801140)"
    />
  
  <line
    x1="120.27080133596625"
    y1="1.078475828274702"
    x2="127.15151515151516"
    y2="2"
    stroke="hsla(0,50%,50%,0.6)"
    stroke-width="1"
    transform="translate(-103.4307637923,-23.2902801140)"
    />
  
  <line
    x1="81.51515151515152"
    y1="0"
    x2="88.3958653307004"
    y2="0.921524171725298"
    stroke="hsla(0,50%,50%,0.6)"
    stroke-width="1"
    transform="translate(-103.4307637923,-23.2902801140)"
    />
  
  <line
    x1="81.48126477973622"
    y1="0.921524171725298"
    x2="88.30736975547917"
    y2="1.8357346595480144"
    stroke="hsla(0,50%,50%,0.6)"
    stroke-width="1"
    transform="translate(-103.4307637923,-23.2902801140)"
    />
  
  <line
    x1="81.44786562324776"
    y1="1.8357346595480144"
    x2="88.21936175918476"
    y2="2.742631463468149"
    stroke="hsla(0,50%,50%,0.6)"
    stroke-width="1"
    transform="translate(-103.4307637923,-23.2902801140)"
    />
  
  <line
    x1="81.41495404568614"
    y1="2.742631463468149"
    x2="88.1318413418172"
    y2="3.6422145834857016"
    stroke="hsla(0,50%,50%,0.6)"
    stroke-width="1"
    transform="translate(-103.4307637923,-23.2902801140)"
    />
  
  <line
    x1="81.38253004705136"
    y1="3.6422145834857016"
    x2="88.04480850337649"
    y2="4.534484019600673"
    stroke="hsla(0,50%,50%,0.6)"
    stroke-width="1"
    transform="translate(-103.4307637923,-23.2902801140)"
    />
  
  <line
    x1="81.35059362734343"
    y1="4.534484019600673"
    x2="87.98556766376558"
    y2="5.423096613764353"
    stroke="hsla(0,50%,50%,0.6)"
    stroke-width="1"
    transform="translate(-103.4307637923,-23.2902801140)"
    />
  
  <line
    x1="120.62185816329018"
    y1="-2.534484019600673"
    x2="127.31607303932324"
    y2="-2.534484019600673"
    stroke="hsla(0,50%,50%,0.6)"
    stroke-width="1"
    transform="translate(-103.4307637923,-23.2902801140)"
    />
  
  <line
    x1="120.53482532484946"
    y1="-1.6422145834857018"
    x2="127.2841366196153"
    y2="-1.6422145834857018"
    stroke="hsla(0,50%,50%,0.6)"
    stroke-width="1"
    transform="translate(-103.4307637923,-23.2902801140)"
    />
  
  <line
    x1="120.4473049074819"
    y1="-0.7426314634681489"
    x2="127.25171262098053"
    y2="-0.7426314634681489"
    stroke="hsla(0,50%,50%,0.6)"
    stroke-width="1"
    transform="translate(-103.4307637923,-23.2902801140)"
    />
  
  <line
    x1="81.51515151515152"
    y1="0"
    x2="100"
    y2="0"
    stroke="hsla(0,50%,50%,0.6)"
    stroke-width="1"
    transform="translate(-103.4307637923,-23.2902801140)"
    />
  
  <line
    x1="81.3464492064653"
    y1="5.423096613764353"
    x2="81.3464492064653"
    y2="31.346449206465298"
    stroke="hsla(0,50%,50%,0.6)"
    stroke-width="1"
    transform="translate(-103.4307637923,-23.2902801140)"
    />
  
  <line
    x1="100"
    y1="0"
    x2="100"
    y2="50"
    stroke="hsla(0,50%,50%,0.6)"
    stroke-width="1"
    transform="translate(-103.4307637923,-23.2902801140)"
    />
  
  <line
    x1="102"
    y1="2"
    x2="102"
    y2="50"
    stroke="hsla(0,50%,50%,0.6)"
    stroke-width="1"
    transform="translate(-103.4307637923,-23.2902801140)"
    />
  
  <line
    x1="120.6535507935347"
    y1="-3.0098734732684855"
    x2="120.6535507935347"
    y2="31.346449206465298"
    stroke="hsla(0,50%,50%,0.6)"
    stroke-width="1"
    transform="translate(-103.4307637923,-23.2902801140)"
    />
  
  <line
    x1="120.3592969111875"
    y1="0.16426534045198565"
    x2="127.2188010434189"
    y2="0.16426534045198565"
    stroke="hsla(0,50%,50%,0.6)"
    stroke-width="1"
    transform="translate(-103.4307637923,-23.2902801140)"
    />
  
  <line
    x1="81.48126477973622"
    y1="0.921524171725298"
    x2="88.3958653307004"
    y2="0.921524171725298"
    stroke="hsla(0,50%,50%,0.6)"
    stroke-width="1"
    transform="translate(-103.4307637923,-23.2902801140)"
    />
  
  <line
    x1="120.27080133596625"
    y1="1.078475828274702"
    x2="127.18540188693045"
    y2="1.078475828274702"
    stroke="hsla(0,50%,50%,0.6)"
    stroke-width="1"
    transform="translate(-103.4307637923,-23.2902801140)"
    />
  
  <line
    x1="81.44786562324776"
    y1="1.8357346595480144"
    x2="88.30736975547917"
    y2="1.8357346595480144"
    stroke="hsla(0,50%,50%,0.6)"
    stroke-width="1"
    transform="translate(-103.4307637923,-23.2902801140)"
    />
  
  <line
    x1="102"
    y1="2"
    x2="127.15151515151516"
    y2="2"
    stroke="hsla(0,50%,50%,0.6)"
    stroke-width="1"
    transform="translate(-103.4307637923,-23.2902801140)"
    />
  
  <line
    x1="81.41495404568614"
    y1="2.742631463468149"
    x2="88.21936175918476"
    y2="2.742631463468149"
    stroke="hsla(0,50%,50%,0.6)"
    stroke-width="1"
    transform="translate(-103.4307637923,-23.2902801140)"
    />
  
  <line
    x1="81.38253004705136"
    y1="3.6422145834857016"
    x2="88.1318413418172"
    y2="3.6422145834857016"
    stroke="hsla(0,50%,50%,0.6)"
    stroke-width="1"
    transform="translate(-103.4307637923,-23.2902801140)"
    />
  
  <line
    x1="81.35059362734343"
    y1="4.534484019600673"
    x2="88.04480850337649"
    y2="4.534484019600673"
    stroke="hsla(0,50%,50%,0.6)"
    stroke-width="1"
    transform="translate(-103.4307637923,-23.2902801140)"
    />
  
  <line
    x1="81.51515151515152"
    y1="0"
    x2="79.54545454545455"
    y2="29.545454545454547"
    stroke="hsla(0,50%,50%,0.6)"
    stroke-width="1"
    transform="translate(-103.4307637923,-23.2902801140)"
    />
  
  <line
    x1="81.48126477973622"
    y1="0.921524171725298"
    x2="79.57128099173553"
    y2="29.571280991735538"
    stroke="hsla(0,50%,50%,0.6)"
    stroke-width="1"
    transform="translate(-103.4307637923,-23.2902801140)"
    />
  
  <line
    x1="81.44786562324776"
    y1="1.8357346595480144"
    x2="79.59710743801652"
    y2="29.59710743801653"
    stroke="hsla(0,50%,50%,0.6)"
    stroke-width="1"
    transform="translate(-103.4307637923,-23.2902801140)"
    />
  
  <line
    x1="81.41495404568614"
    y1="2.742631463468149"
    x2="79.62293388429752"
    y2="29.62293388429752"
    stroke="hsla(0,50%,50%,0.6)"
    stroke-width="1"
    transform="translate(-103.4307637923,-23.2902801140)"
    />
  
  <line
    x1="81.38253004705136"
    y1="3.6422145834857016"
    x2="79.64876033057851"
    y2="29.64876033057851"
    stroke="hsla(0,50%,50%,0.6)"
    stroke-width="1"
    transform="translate(-103.4307637923,-23.2902801140)"
    />
  
  <line
    x1="81.35059362734343"
    y1="4.534484019600673"
    x2="79.6745867768595"
    y2="29.674586776859503"
    stroke="hsla(0,50%,50%,0.6)"
    stroke-width="1"
    transform="translate(-103.4307637923,-23.2902801140)"
    />
  
  <line
    x1="81.3464492064653"
    y1="5.423096613764353"
    x2="87.98556766376558"
    y2="5.423096613764353"
    stroke="hsla(0,50%,50%,0.6)"
    stroke-width="1"
    transform="translate(-103.4307637923,-23.2902801140)"
    />
  
  <line
    x1="88.04480850337649"
    y1="4.534484019600673"
    x2="85.9504132231405"
    y2="35.950413223140494"
    stroke="hsla(0,50%,50%,0.6)"
    stroke-width="1"
    transform="translate(-103.4307637923,-23.2902801140)"
    />
  
  <line
    x1="88.1318413418172"
    y1="3.6422145834857016"
    x2="85.97623966942149"
    y2="35.97623966942149"
    stroke="hsla(0,50%,50%,0.6)"
    stroke-width="1"
    transform="translate(-103.4307637923,-23.2902801140)"
    />
  
  <line
    x1="88.21936175918476"
    y1="2.742631463468149"
    x2="86.00206611570248"
    y2="36.002066115702476"
    stroke="hsla(0,50%,50%,0.6)"
    stroke-width="1"
    transform="translate(-103.4307637923,-23.2902801140)"
    />
  
  <line
    x1="88.30736975547917"
    y1="1.8357346595480144"
    x2="86.02789256198348"
    y2="36.02789256198347"
    stroke="hsla(0,50%,50%,0.6)"
    stroke-width="1"
    transform="translate(-103.4307637923,-23.2902801140)"
    />
  
  <line
    x1="88.3958653307004"
    y1="0.921524171725298"
    x2="86.05371900826447"
    y2="36.053719008264466"
    stroke="hsla(0,50%,50%,0.6)"
    stroke-width="1"
    transform="translate(-103.4307637923,-23.2902801140)"
    />
  
  <line
    x1="120.27080133596625"
    y1="1.078475828274702"
    x2="118.0814639905549"
    y2="33.9185360094451"
    stroke="hsla(0,50%,50%,0.6)"
    stroke-width="1"
    transform="translate(-103.4307637923,-23.2902801140)"
    />
  
  <line
    x1="120.3592969111875"
    y1="0.16426534045198565"
    x2="118.11097992916174"
    y2="33.88902007083825"
    stroke="hsla(0,50%,50%,0.6)"
    stroke-width="1"
    transform="translate(-103.4307637923,-23.2902801140)"
    />
  
  <line
    x1="120.4473049074819"
    y1="-0.7426314634681489"
    x2="118.14049586776859"
    y2="33.85950413223141"
    stroke="hsla(0,50%,50%,0.6)"
    stroke-width="1"
    transform="translate(-103.4307637923,-23.2902801140)"
    />
  
  <line
    x1="120.53482532484946"
    y1="-1.6422145834857018"
    x2="118.17001180637544"
    y2="33.82998819362456"
    stroke="hsla(0,50%,50%,0.6)"
    stroke-width="1"
    transform="translate(-103.4307637923,-23.2902801140)"
    />
  
  <line
    x1="120.6535507935347"
    y1="-3.0098734732684855"
    x2="118.19952774498229"
    y2="33.80047225501771"
    stroke="hsla(0,50%,50%,0.6)"
    stroke-width="1"
    transform="translate(-103.4307637923,-23.2902801140)"
    />
  
  <line
    x1="127.31607303932324"
    y1="-2.534484019600673"
    x2="125.37190082644628"
    y2="26.628099173553718"
    stroke="hsla(0,50%,50%,0.6)"
    stroke-width="1"
    transform="translate(-103.4307637923,-23.2902801140)"
    />
  
  <line
    x1="127.2841366196153"
    y1="-1.6422145834857018"
    x2="125.40141676505313"
    y2="26.598583234946872"
    stroke="hsla(0,50%,50%,0.6)"
    stroke-width="1"
    transform="translate(-103.4307637923,-23.2902801140)"
    />
  
  <line
    x1="127.25171262098053"
    y1="-0.7426314634681489"
    x2="125.43093270365998"
    y2="26.569067296340023"
    stroke="hsla(0,50%,50%,0.6)"
    stroke-width="1"
    transform="translate(-103.4307637923,-23.2902801140)"
    />
  
  <line
    x1="127.2188010434189"
    y1="0.16426534045198565"
    x2="125.46044864226683"
    y2="26.539551357733178"
    stroke="hsla(0,50%,50%,0.6)"
    stroke-width="1"
    transform="translate(-103.4307637923,-23.2902801140)"
    />
  
  <line
    x1="127.18540188693045"
    y1="1.078475828274702"
    x2="125.48996458087368"
    y2="26.51003541912633"
    stroke="hsla(0,50%,50%,0.6)"
    stroke-width="1"
    transform="translate(-103.4307637923,-23.2902801140)"
    />
  
  <line
    x1="127.15151515151516"
    y1="2"
    x2="125.51948051948052"
    y2="26.48051948051948"
    stroke="hsla(0,50%,50%,0.6)"
    stroke-width="1"
    transform="translate(-103.4307637923,-23.2902801140)"
    />
  
  <line
    x1="120.70840342280407"
    y1="-3.419439771813062"
    x2="120.6535507935347"
    y2="-3.0098734732684855"
    stroke="hsla(0,50%,50%,0.6)"
    stroke-width="1"
    transform="translate(-103.4307637923,-23.2902801140)"
    />
  
  <line
    x1="81.3464492064653"
    y1="31.346449206465298"
    x2="120.6535507935347"
    y2="31.346449206465298"
    stroke="hsla(0,50%,50%,0.6)"
    stroke-width="1"
    transform="translate(-103.4307637923,-23.2902801140)"
    />
  
  <line
    x1="125.51948051948052"
    y1="26.48051948051948"
    x2="79.54545454545455"
    y2="29.545454545454547"
    stroke="hsla(0,50%,50%,0.6)"
    stroke-width="1"
    transform="translate(-103.4307637923,-23.2902801140)"
    />
  
  <line
    x1="125.48996458087368"
    y1="26.51003541912633"
    x2="79.57128099173553"
    y2="29.571280991735538"
    stroke="hsla(0,50%,50%,0.6)"
    stroke-width="1"
    transform="translate(-103.4307637923,-23.2902801140)"
    />
  
  <line
    x1="125.46044864226683"
    y1="26.539551357733178"
    x2="79.59710743801652"
    y2="29.59710743801653"
    stroke="hsla(0,50%,50%,0.6)"
    stroke-width="1"
    transform="translate(-103.4307637923,-23.2902801140)"
    />
  
  <line
    x1="125.43093270365998"
    y1="26.569067296340023"
    x2="79.62293388429752"
    y2="29.62293388429752"
    stroke="hsla(0,50%,50%,0.6)"
    stroke-width="1"
    transform="translate(-103.4307637923,-23.2902801140)"
    />
  
  <line
    x1="125.40141676505313"
    y1="26.598583234946872"
    x2="79.64876033057851"
    y2="29.64876033057851"
    stroke="hsla(0,50%,50%,0.6)"
    stroke-width="1"
    transform="translate(-103.4307637923,-23.2902801140)"
    />
  
  <line
    x1="125.37190082644628"
    y1="26.628099173553718"
    x2="79.6745867768595"
    y2="29.674586776859503"
    stroke="hsla(0,50%,50%,0.6)"
    stroke-width="1"
    transform="translate(-103.4307637923,-23.2902801140)"
    />
  
  <line
    x1="118.19952774498229"
    y1="33.80047225501771"
    x2="85.9504132231405"
    y2="35.950413223140494"
    stroke="hsla(0,50%,50%,0.6)"
    stroke-width="1"
    transform="translate(-103.4307637923,-23.2902801140)"
    />
  
  <line
    x1="118.17001180637544"
    y1="33.82998819362456"
    x2="85.97623966942149"
    y2="35.97623966942149"
    stroke="hsla(0,50%,50%,0.6)"
    stroke-width="1"
    transform="translate(-103.4307637923,-23.2902801140)"
    />
  
  <line
    x1="118.14049586776859"
    y1="33.85950413223141"
    x2="86.00206611570248"
    y2="36.002066115702476"
    stroke="hsla(0,50%,50%,0.6)"
    stroke-width="1"
    transform="translate(-103.4307637923,-23.2902801140)"
    />
  
  <line
    x1="118.11097992916174"
    y1="33.88902007083825"
    x2="86.02789256198348"
    y2="36.02789256198347"
    stroke="hsla(0,50%,50%,0.6)"
    stroke-width="1"
    transform="translate(-103.4307637923,-23.2902801140)"
    />
  
  <line
    x1="118.0814639905549"
    y1="33.9185360094451"
    x2="86.05371900826447"
    y2="36.053719008264466"
    stroke="hsla(0,50%,50%,0.6)"
    stroke-width="1"
    transform="translate(-103.4307637923,-23.2902801140)"
    />
  
  <line
    x1="100"
    y1="50"
    x2="102"
    y2="50"
    stroke="hsla(0,50%,50%,0.6)"
    stroke-width="1"
    transform="translate(-103.4307637923,-23.2902801140)"
    />
  
  <line
    x1="125.51948051948052"
    y1="26.48051948051948"
    x2="102"
    y2="50"
    stroke="hsla(0,50%,50%,0.6)"
    stroke-width="1"
    transform="translate(-103.4307637923,-23.2902801140)"
    />
  
</svg>
