<?xml version="1.0"?>
<!DOCTYPE svg PUBLIC "-//W3C//DTD SVG 1.1//EN"
  "http://www.w3.org/Graphics/SVG/1.1/DTD/svg11.dtd">
<svg
  width="240"
  height="240"
  viewBox="-500 -500 1000 1000" xmlns="http://www.w3.org/2000/svg" version="1.1">
  <rect
    x="0"
    y="0"
    width="100"
    height="100"
    fill="hsla(206,100%,53%,0.3)"
    stroke="hsl(206,100%,53%)"
    stroke-width="3"
    transform="" />
  
  <path
    d="M 
      45.9002019574
      25.0217857166
      L
    
      50.2221168199
      25.1067909791
      L
    
      54.5448391194
      25.1224720064
      L
    
      54.4763509607
      25.1904650683
      L
    
      69.1389507154
      25.4788553259
      L
    
      79.1182829888
      50.6799682034
      L
    
      71.0470588235
      58.5653418124
      L
    
      28.6235294117
      58.0712241653
      L
    
      20.7381558028
      50
      L
    
      31.3017488076
      25.0381558028
      L
    
      45.9670878864
      25.0913555150
      z
    "
    fill="hsla(0,0%,50%,0.3)"
    stroke="hsla(0,0%,50%,1)"
    stroke-width="1"
    transform="translate(-50.0066070000,-38.4336121266)"
    />
  
  <path
    d="M 
      50.1713634290
      29.4643321061
      L
    
      42.7876007263
      36.7947180361
      L
    
      46.5058823529
      40.6006359300
      L
    
      50.0823529411
      37.1065182829
      L
    
      53.5764705882
      40.6829888712
      L
    
      57.3823884821
      36.9647072446
      z
    "
    fill="hsla(0,0%,50%,0.3)"
    stroke="hsla(0,0%,50%,1)"
    stroke-width="1"
    transform="translate(-50.0066070000,-38.4336121266)"
    />
  
  
  <line
    x1="69.1389507154213"
    y1="25.47885532591415"
    x2="79.11828298887123"
    y2="50.679968203497616"
    stroke="hsla(0,50%,50%,0.6)"
    stroke-width="1"
    transform="translate(-50.0066070000,-38.4336121266)"
    />
  
  <line
    x1="45.90020195743359"
    y1="25.021785716667328"
    x2="74.70957215139158"
    y2="54.98716267300897"
    stroke="hsla(0,50%,50%,0.6)"
    stroke-width="1"
    transform="translate(-50.0066070000,-38.4336121266)"
    />
  
  <line
    x1="64.14117647058823"
    y1="44.34181240063593"
    x2="74.70957215139158"
    y2="54.98716267300897"
    stroke="hsla(0,50%,50%,0.6)"
    stroke-width="1"
    transform="translate(-50.0066070000,-38.4336121266)"
    />
  
  <line
    x1="50.082352941176474"
    y1="37.10651828298887"
    x2="71.04705882352941"
    y2="58.56534181240064"
    stroke="hsla(0,50%,50%,0.6)"
    stroke-width="1"
    transform="translate(-50.0066070000,-38.4336121266)"
    />
  
  <line
    x1="31.30174880763116"
    y1="25.038155802861684"
    x2="63.976470588235294"
    y2="58.482988871224165"
    stroke="hsla(0,50%,50%,0.6)"
    stroke-width="1"
    transform="translate(-50.0066070000,-38.4336121266)"
    />
  
  <line
    x1="32.2"
    y1="54.57710651828299"
    x2="35.694117647058825"
    y2="58.153577106518284"
    stroke="hsla(0,50%,50%,0.6)"
    stroke-width="1"
    transform="translate(-50.0066070000,-38.4336121266)"
    />
  
  <line
    x1="20.738155802861684"
    y1="50"
    x2="28.623529411764707"
    y2="58.07122416534181"
    stroke="hsla(0,50%,50%,0.6)"
    stroke-width="1"
    transform="translate(-50.0066070000,-38.4336121266)"
    />
  
  <line
    x1="64.14117647058823"
    y1="44.34181240063593"
    x2="79.11828298887123"
    y2="50.679968203497616"
    stroke="hsla(0,50%,50%,0.6)"
    stroke-width="1"
    transform="translate(-50.0066070000,-38.4336121266)"
    />
  
  <line
    x1="31.30174880763116"
    y1="25.038155802861684"
    x2="20.738155802861684"
    y2="50"
    stroke="hsla(0,50%,50%,0.6)"
    stroke-width="1"
    transform="translate(-50.0066070000,-38.4336121266)"
    />
  
  <line
    x1="45.90020195743359"
    y1="25.021785716667328"
    x2="69.1389507154213"
    y2="25.47885532591415"
    stroke="hsla(0,50%,50%,0.6)"
    stroke-width="1"
    transform="translate(-50.0066070000,-38.4336121266)"
    />
  
  <line
    x1="31.30174880763116"
    y1="25.038155802861684"
    x2="54.544839119429035"
    y2="25.12247200640771"
    stroke="hsla(0,50%,50%,0.6)"
    stroke-width="1"
    transform="translate(-50.0066070000,-38.4336121266)"
    />
  
  <line
    x1="54.544839119429035"
    y1="25.12247200640771"
    x2="25.04535027237304"
    y2="54.40871083747963"
    stroke="hsla(0,50%,50%,0.6)"
    stroke-width="1"
    transform="translate(-50.0066070000,-38.4336121266)"
    />
  
  <line
    x1="35.858823529411765"
    y1="44.01240063593005"
    x2="25.04535027237304"
    y2="54.40871083747963"
    stroke="hsla(0,50%,50%,0.6)"
    stroke-width="1"
    transform="translate(-50.0066070000,-38.4336121266)"
    />
  
  <line
    x1="35.858823529411765"
    y1="44.01240063593005"
    x2="64.14117647058823"
    y2="44.34181240063593"
    stroke="hsla(0,50%,50%,0.6)"
    stroke-width="1"
    transform="translate(-50.0066070000,-38.4336121266)"
    />
  
  <line
    x1="50.082352941176474"
    y1="37.10651828298887"
    x2="28.623529411764707"
    y2="58.07122416534181"
    stroke="hsla(0,50%,50%,0.6)"
    stroke-width="1"
    transform="translate(-50.0066070000,-38.4336121266)"
    />
  
  <line
    x1="69.1389507154213"
    y1="25.47885532591415"
    x2="35.694117647058825"
    y2="58.153577106518284"
    stroke="hsla(0,50%,50%,0.6)"
    stroke-width="1"
    transform="translate(-50.0066070000,-38.4336121266)"
    />
  
  <line
    x1="35.858823529411765"
    y1="44.01240063593005"
    x2="20.738155802861684"
    y2="50"
    stroke="hsla(0,50%,50%,0.6)"
    stroke-width="1"
    transform="translate(-50.0066070000,-38.4336121266)"
    />
  
  <line
    x1="28.623529411764707"
    y1="58.07122416534181"
    x2="71.04705882352941"
    y2="58.56534181240064"
    stroke="hsla(0,50%,50%,0.6)"
    stroke-width="1"
    transform="translate(-50.0066070000,-38.4336121266)"
    />
  
  <line
    x1="67.55294117647058"
    y1="54.988871224165344"
    x2="63.976470588235294"
    y2="58.482988871224165"
    stroke="hsla(0,50%,50%,0.6)"
    stroke-width="1"
    transform="translate(-50.0066070000,-38.4336121266)"
    />
  
  <line
    x1="79.11828298887123"
    y1="50.679968203497616"
    x2="71.04705882352941"
    y2="58.56534181240064"
    stroke="hsla(0,50%,50%,0.6)"
    stroke-width="1"
    transform="translate(-50.0066070000,-38.4336121266)"
    />
  
</svg>
