<?xml version="1.0"?>
<!DOCTYPE svg PUBLIC "-//W3C//DTD SVG 1.1//EN"
  "http://www.w3.org/Graphics/SVG/1.1/DTD/svg11.dtd">
<svg
  width="240"
  height="240"
  viewBox="-500 -500 1000 1000" xmlns="http://www.w3.org/2000/svg" version="1.1">
  <rect
    x="0"
    y="0"
    width="100"
    height="100"
    fill="hsla(206,100%,53%,0.3)"
    stroke="hsl(206,100%,53%)"
    stroke-width="3"
    transform="" />
  
  <path
    d="M 
      9.5587966349
      60.2190014630
      L
    
      100
      78.6962365591
      L
    
      100
      100
      L
    
      90.9160834942
      100
      L
    
      82.7033950372
      119.2605438401
      L
    
      32.0028671846
      135.2540579911
      L
    
      3.6007294632
      123.1433974328
      L
    
      5.7920880668
      100
      L
    
      0
      100
      L
    
      0
      90.1988636363
      z
    "
    fill="hsla(0,0%,50%,0.3)"
    stroke="hsla(0,0%,50%,1)"
    stroke-width="1"
    transform="translate(-50,-97.7365297270)"
    />
  
  
  <line
    x1="19.796339294536114"
    y1="62.31054243651813"
    x2="31.70226731446576"
    y2="117.02890761139248"
    stroke="hsla(0,50%,50%,0.6)"
    stroke-width="1"
    transform="translate(-50,-97.7365297270)"
    />
  
  <line
    x1="0"
    y1="90.19886363636364"
    x2="0"
    y2="100"
    stroke="hsla(0,50%,50%,0.6)"
    stroke-width="1"
    transform="translate(-50,-97.7365297270)"
    />
  
  <line
    x1="100"
    y1="78.69623655913979"
    x2="100"
    y2="100"
    stroke="hsla(0,50%,50%,0.6)"
    stroke-width="1"
    transform="translate(-50,-97.7365297270)"
    />
  
  <line
    x1="9.55879663496708"
    y1="60.21900146305779"
    x2="3.600729463237305"
    y2="123.14339743280414"
    stroke="hsla(0,50%,50%,0.6)"
    stroke-width="1"
    transform="translate(-50,-97.7365297270)"
    />
  
  <line
    x1="9.55879663496708"
    y1="60.21900146305779"
    x2="0"
    y2="90.19886363636364"
    stroke="hsla(0,50%,50%,0.6)"
    stroke-width="1"
    transform="translate(-50,-97.7365297270)"
    />
  
  <line
    x1="19.796339294536114"
    y1="62.31054243651813"
    x2="0"
    y2="90.19886363636364"
    stroke="hsla(0,50%,50%,0.6)"
    stroke-width="1"
    transform="translate(-50,-97.7365297270)"
    />
  
  <line
    x1="100"
    y1="78.69623655913979"
    x2="82.7033950372602"
    y2="119.26054384017758"
    stroke="hsla(0,50%,50%,0.6)"
    stroke-width="1"
    transform="translate(-50,-97.7365297270)"
    />
  
  <line
    x1="53.32755271920089"
    y1="100.98224195338513"
    x2="82.7033950372602"
    y2="119.26054384017758"
    stroke="hsla(0,50%,50%,0.6)"
    stroke-width="1"
    transform="translate(-50,-97.7365297270)"
    />
  
  <line
    x1="53.32755271920089"
    y1="100.98224195338513"
    x2="32.00286718460969"
    y2="135.254057991121"
    stroke="hsla(0,50%,50%,0.6)"
    stroke-width="1"
    transform="translate(-50,-97.7365297270)"
    />
  
  <line
    x1="9.55879663496708"
    y1="60.21900146305779"
    x2="100"
    y2="78.69623655913979"
    stroke="hsla(0,50%,50%,0.6)"
    stroke-width="1"
    transform="translate(-50,-97.7365297270)"
    />
  
  <line
    x1="0"
    y1="100"
    x2="100"
    y2="100"
    stroke="hsla(0,50%,50%,0.6)"
    stroke-width="1"
    transform="translate(-50,-97.7365297270)"
    />
  
  <line
    x1="3.600729463237305"
    y1="123.14339743280414"
    x2="32.00286718460969"
    y2="135.254057991121"
    stroke="hsla(0,50%,50%,0.6)"
    stroke-width="1"
    transform="translate(-50,-97.7365297270)"
    />
  
  <line
    x1="31.70226731446576"
    y1="117.02890761139248"
    x2="3.600729463237305"
    y2="123.14339743280414"
    stroke="hsla(0,50%,50%,0.6)"
    stroke-width="1"
    transform="translate(-50,-97.7365297270)"
    />
  
  <line
    x1="82.7033950372602"
    y1="119.26054384017758"
    x2="32.00286718460969"
    y2="135.254057991121"
    stroke="hsla(0,50%,50%,0.6)"
    stroke-width="1"
    transform="translate(-50,-97.7365297270)"
    />
  
</svg>
