<?xml version="1.0"?>
<!DOCTYPE svg PUBLIC "-//W3C//DTD SVG 1.1//EN"
  "http://www.w3.org/Graphics/SVG/1.1/DTD/svg11.dtd">
<svg
  width="240"
  height="240"
  viewBox="-500 -500 1000 1000" xmlns="http://www.w3.org/2000/svg" version="1.1">
  <rect
    x="0"
    y="0"
    width="100"
    height="100"
    fill="hsla(206,100%,53%,0.3)"
    stroke="hsl(206,100%,53%)"
    stroke-width="3"
    transform="" />
  
  <path
    d="M 
      -7.3204206625
      -2.2287414625
      L
    
      28.0502392344
      69.1824257613
      L
    
      17.3826173826
      100
      L
    
      0
      100
      L
    
      0
      97.6699738480
      L
    
      -40.6900086421
      98.2994702062
      L
    
      -41.3787335517
      53.7809878364
      L
    
      -47.5544270788
      48.9234675496
      L
    
      -41.5715575173
      41.3170415045
      L
    
      -42.2368774231
      -1.6885650628
      z
    "
    fill="hsla(0,0%,50%,0.3)"
    stroke="hsla(0,0%,50%,1)"
    stroke-width="1"
    transform="translate(9.7520939222,-48.8856292687)"
    />
  
  
  <line
    x1="-7.320420662560689"
    y1="-2.228741462559164"
    x2="-47.55442707886565"
    y2="48.923467549623425"
    stroke="hsla(0,50%,50%,0.6)"
    stroke-width="1"
    transform="translate(9.7520939222,-48.8856292687)"
    />
  
  <line
    x1="-7.320420662560689"
    y1="-2.228741462559164"
    x2="-42.23687742319758"
    y2="-1.6885650628145201"
    stroke="hsla(0,50%,50%,0.6)"
    stroke-width="1"
    transform="translate(9.7520939222,-48.8856292687)"
    />
  
  <line
    x1="0"
    y1="82.53968253968254"
    x2="0"
    y2="100"
    stroke="hsla(0,50%,50%,0.6)"
    stroke-width="1"
    transform="translate(9.7520939222,-48.8856292687)"
    />
  
  <line
    x1="-42.23687742319758"
    y1="-1.6885650628145201"
    x2="-40.69000864211065"
    y2="98.29947020628204"
    stroke="hsla(0,50%,50%,0.6)"
    stroke-width="1"
    transform="translate(9.7520939222,-48.8856292687)"
    />
  
  <line
    x1="-7.320420662560689"
    y1="-2.228741462559164"
    x2="28.050239234449762"
    y2="69.18242576137312"
    stroke="hsla(0,50%,50%,0.6)"
    stroke-width="1"
    transform="translate(9.7520939222,-48.8856292687)"
    />
  
  <line
    x1="28.050239234449762"
    y1="69.18242576137312"
    x2="17.382617382617383"
    y2="100"
    stroke="hsla(0,50%,50%,0.6)"
    stroke-width="1"
    transform="translate(9.7520939222,-48.8856292687)"
    />
  
  <line
    x1="0"
    y1="82.53968253968254"
    x2="18.287095705066967"
    y2="97.38706262403453"
    stroke="hsla(0,50%,50%,0.6)"
    stroke-width="1"
    transform="translate(9.7520939222,-48.8856292687)"
    />
  
  <line
    x1="-47.55442707886565"
    y1="48.923467549623425"
    x2="17.382617382617383"
    y2="100"
    stroke="hsla(0,50%,50%,0.6)"
    stroke-width="1"
    transform="translate(9.7520939222,-48.8856292687)"
    />
  
  <line
    x1="28.050239234449762"
    y1="69.18242576137312"
    x2="0"
    y2="82.53968253968254"
    stroke="hsla(0,50%,50%,0.6)"
    stroke-width="1"
    transform="translate(9.7520939222,-48.8856292687)"
    />
  
  <line
    x1="18.287095705066967"
    y1="97.38706262403453"
    x2="-40.69000864211065"
    y2="98.29947020628204"
    stroke="hsla(0,50%,50%,0.6)"
    stroke-width="1"
    transform="translate(9.7520939222,-48.8856292687)"
    />
  
  <line
    x1="0"
    y1="100"
    x2="17.382617382617383"
    y2="100"
    stroke="hsla(0,50%,50%,0.6)"
    stroke-width="1"
    transform="translate(9.7520939222,-48.8856292687)"
    />
  
</svg>
