<?xml version="1.0"?>
<!DOCTYPE svg PUBLIC "-//W3C//DTD SVG 1.1//EN"
  "http://www.w3.org/Graphics/SVG/1.1/DTD/svg11.dtd">
<svg
  width="240"
  height="240"
  viewBox="-50 -50 200 200" xmlns="http://www.w3.org/2000/svg" version="1.1">
  <rect
    x="0"
    y="0"
    width="100"
    height="100"
    fill="hsla(206,100%,53%,0.3)"
    stroke="hsl(206,100%,53%)"
    stroke-width="3"
    transform="" />
  
  <path
    d="M 
      522500
      -14600
      L
    
      522560
      -14520
      L
    
      522480
      -14460
      L
    
      522420
      -14540
      z
    "
    fill="hsla(0,0%,50%,0.3)"
    stroke="hsla(0,0%,50%,1)"
    stroke-width="1"
    transform="translate(-522462.5,14525) scale(1,-1) translate(50,-110)"
    />
  
  
  <line
    x1="522500"
    y1="-14600"
    x2="522560"
    y2="-14520"
    stroke="hsla(0,50%,50%,0.6)"
    stroke-width="1"
    transform="translate(-522462.5,14525) scale(1,-1) translate(50,-110)"
    />
  
  <line
    x1="522420"
    y1="-14540"
    x2="522480"
    y2="-14460"
    stroke="hsla(0,50%,50%,0.6)"
    stroke-width="1"
    transform="translate(-522462.5,14525) scale(1,-1) translate(50,-110)"
    />
  
  <line
    x1="522500"
    y1="-14600"
    x2="522420"
    y2="-14540"
    stroke="hsla(0,50%,50%,0.6)"
    stroke-width="1"
    transform="translate(-522462.5,14525) scale(1,-1) translate(50,-110)"
    />
  
  <line
    x1="522560"
    y1="-14520"
    x2="522480"
    y2="-14460"
    stroke="hsla(0,50%,50%,0.6)"
    stroke-width="1"
    transform="translate(-522462.5,14525) scale(1,-1) translate(50,-110)"
    />
  
</svg>
