<?xml version="1.0"?>
<!DOCTYPE svg PUBLIC "-//W3C//DTD SVG 1.1//EN"
  "http://www.w3.org/Graphics/SVG/1.1/DTD/svg11.dtd">
<svg
  width="240"
  height="240"
  viewBox="-50 -50 200 200" xmlns="http://www.w3.org/2000/svg" version="1.1">
  <rect
    x="0"
    y="0"
    width="100"
    height="100"
    fill="hsla(206,100%,53%,0.3)"
    stroke="hsl(206,100%,53%)"
    stroke-width="3"
    transform="" />
  
  <path
    d="M 
      -33.0316742081
      -52.4886877828
      L
    
      -36.3321799307
      -19.3771626297
      L
    
      0
      0
      L
    
      -47.0588235294
      88.2352941176
      L
    
      -58.8235294117
      -31.3725490196
      z
    "
    fill="hsla(0,0%,50%,0.3)"
    stroke="hsla(0,0%,50%,1)"
    stroke-width="1"
    transform="translate(45.5117114719,-1.8809333688) scale(1,-1) translate(50,-110)"
    />
  
  
  <line
    x1="-33.0316742081448"
    y1="-52.48868778280543"
    x2="-58.8235294117647"
    y2="-31.372549019607842"
    stroke="hsla(0,50%,50%,0.6)"
    stroke-width="1"
    transform="translate(45.5117114719,-1.8809333688) scale(1,-1) translate(50,-110)"
    />
  
  <line
    x1="-33.0316742081448"
    y1="-52.48868778280543"
    x2="-47.05882352941177"
    y2="88.23529411764706"
    stroke="hsla(0,50%,50%,0.6)"
    stroke-width="1"
    transform="translate(45.5117114719,-1.8809333688) scale(1,-1) translate(50,-110)"
    />
  
  <line
    x1="-58.8235294117647"
    y1="-31.372549019607842"
    x2="0"
    y2="0"
    stroke="hsla(0,50%,50%,0.6)"
    stroke-width="1"
    transform="translate(45.5117114719,-1.8809333688) scale(1,-1) translate(50,-110)"
    />
  
  <line
    x1="0"
    y1="0"
    x2="-47.05882352941177"
    y2="88.23529411764706"
    stroke="hsla(0,50%,50%,0.6)"
    stroke-width="1"
    transform="translate(45.5117114719,-1.8809333688) scale(1,-1) translate(50,-110)"
    />
  
  <line
    x1="-58.8235294117647"
    y1="-31.372549019607842"
    x2="-47.05882352941177"
    y2="88.23529411764706"
    stroke="hsla(0,50%,50%,0.6)"
    stroke-width="1"
    transform="translate(45.5117114719,-1.8809333688) scale(1,-1) translate(50,-110)"
    />
  
</svg>
