<?xml version="1.0"?>
<!DOCTYPE svg PUBLIC "-//W3C//DTD SVG 1.1//EN"
  "http://www.w3.org/Graphics/SVG/1.1/DTD/svg11.dtd">
<svg
  width="240"
  height="240"
  viewBox="-50 -50 200 200" xmlns="http://www.w3.org/2000/svg" version="1.1">
  <rect
    x="0"
    y="0"
    width="100"
    height="100"
    fill="hsla(206,100%,53%,0.3)"
    stroke="hsl(206,100%,53%)"
    stroke-width="3"
    transform="" />
  
  <path
    d="M 
      0
      -42
      L
    
      100
      -42
      L
    
      100
      3.3333333333
      L
    
      0
      3.3333333333
      z
    "
    fill="hsla(0,0%,50%,0.3)"
    stroke="hsla(0,0%,50%,1)"
    stroke-width="1"
    transform="translate(-37.5,8) scale(1,-1) translate(50,-110)"
    />
  
  
  <line
    x1="0"
    y1="-42"
    x2="100"
    y2="-42"
    stroke="hsla(0,50%,50%,0.6)"
    stroke-width="1"
    transform="translate(-37.5,8) scale(1,-1) translate(50,-110)"
    />
  
  <line
    x1="0"
    y1="-8"
    x2="100"
    y2="-8"
    stroke="hsla(0,50%,50%,0.6)"
    stroke-width="1"
    transform="translate(-37.5,8) scale(1,-1) translate(50,-110)"
    />
  
  <line
    x1="0"
    y1="0"
    x2="100"
    y2="0"
    stroke="hsla(0,50%,50%,0.6)"
    stroke-width="1"
    transform="translate(-37.5,8) scale(1,-1) translate(50,-110)"
    />
  
  <line
    x1="0"
    y1="-42"
    x2="0"
    y2="3.3333333333333335"
    stroke="hsla(0,50%,50%,0.6)"
    stroke-width="1"
    transform="translate(-37.5,8) scale(1,-1) translate(50,-110)"
    />
  
  <line
    x1="100"
    y1="-42"
    x2="100"
    y2="3.3333333333333335"
    stroke="hsla(0,50%,50%,0.6)"
    stroke-width="1"
    transform="translate(-37.5,8) scale(1,-1) translate(50,-110)"
    />
  
  <line
    x1="0"
    y1="0.6666666666666666"
    x2="100"
    y2="0.6666666666666666"
    stroke="hsla(0,50%,50%,0.6)"
    stroke-width="1"
    transform="translate(-37.5,8) scale(1,-1) translate(50,-110)"
    />
  
  <line
    x1="0"
    y1="3.3333333333333335"
    x2="100"
    y2="3.3333333333333335"
    stroke="hsla(0,50%,50%,0.6)"
    stroke-width="1"
    transform="translate(-37.5,8) scale(1,-1) translate(50,-110)"
    />
  
</svg>
