<?xml version="1.0"?>
<!DOCTYPE svg PUBLIC "-//W3C//DTD SVG 1.1//EN"
  "http://www.w3.org/Graphics/SVG/1.1/DTD/svg11.dtd">
<svg
  width="240"
  height="240"
  viewBox="-50 -50 200 200" xmlns="http://www.w3.org/2000/svg" version="1.1">
  <rect
    x="0"
    y="0"
    width="100"
    height="100"
    fill="hsla(206,100%,53%,0.3)"
    stroke="hsl(206,100%,53%)"
    stroke-width="3"
    transform="" />
  
  <path
    d="M 
      0
      -5.6153846153
      L
    
      100
      -5.6153846153
      L
    
      100
      46.7692307692
      L
    
      0
      46.7692307692
      z
    "
    fill="hsla(0,0%,50%,0.3)"
    stroke="hsla(0,0%,50%,1)"
    stroke-width="1"
    transform="translate(-37.5,-33.6730769230) scale(1,-1) translate(50,-110)"
    />
  
  
  <line
    x1="0"
    y1="-5.615384615384615"
    x2="100"
    y2="-5.615384615384615"
    stroke="hsla(0,50%,50%,0.6)"
    stroke-width="1"
    transform="translate(-37.5,-33.6730769230) scale(1,-1) translate(50,-110)"
    />
  
  <line
    x1="0"
    y1="-4.461538461538462"
    x2="100"
    y2="-4.461538461538462"
    stroke="hsla(0,50%,50%,0.6)"
    stroke-width="1"
    transform="translate(-37.5,-33.6730769230) scale(1,-1) translate(50,-110)"
    />
  
  <line
    x1="0"
    y1="-3.230769230769231"
    x2="100"
    y2="-3.230769230769231"
    stroke="hsla(0,50%,50%,0.6)"
    stroke-width="1"
    transform="translate(-37.5,-33.6730769230) scale(1,-1) translate(50,-110)"
    />
  
  <line
    x1="0"
    y1="-1.6923076923076923"
    x2="100"
    y2="-1.6923076923076923"
    stroke="hsla(0,50%,50%,0.6)"
    stroke-width="1"
    transform="translate(-37.5,-33.6730769230) scale(1,-1) translate(50,-110)"
    />
  
  <line
    x1="0"
    y1="-0.7692307692307693"
    x2="100"
    y2="-0.7692307692307693"
    stroke="hsla(0,50%,50%,0.6)"
    stroke-width="1"
    transform="translate(-37.5,-33.6730769230) scale(1,-1) translate(50,-110)"
    />
  
  <line
    x1="0"
    y1="0"
    x2="100"
    y2="0"
    stroke="hsla(0,50%,50%,0.6)"
    stroke-width="1"
    transform="translate(-37.5,-33.6730769230) scale(1,-1) translate(50,-110)"
    />
  
  <line
    x1="0"
    y1="-5.615384615384615"
    x2="0"
    y2="46.76923076923077"
    stroke="hsla(0,50%,50%,0.6)"
    stroke-width="1"
    transform="translate(-37.5,-33.6730769230) scale(1,-1) translate(50,-110)"
    />
  
  <line
    x1="100"
    y1="-5.615384615384615"
    x2="100"
    y2="46.76923076923077"
    stroke="hsla(0,50%,50%,0.6)"
    stroke-width="1"
    transform="translate(-37.5,-33.6730769230) scale(1,-1) translate(50,-110)"
    />
  
  <line
    x1="0"
    y1="1.7692307692307692"
    x2="100"
    y2="1.7692307692307692"
    stroke="hsla(0,50%,50%,0.6)"
    stroke-width="1"
    transform="translate(-37.5,-33.6730769230) scale(1,-1) translate(50,-110)"
    />
  
  <line
    x1="0"
    y1="10.923076923076923"
    x2="100"
    y2="10.923076923076923"
    stroke="hsla(0,50%,50%,0.6)"
    stroke-width="1"
    transform="translate(-37.5,-33.6730769230) scale(1,-1) translate(50,-110)"
    />
  
  <line
    x1="0"
    y1="15.076923076923077"
    x2="100"
    y2="15.076923076923077"
    stroke="hsla(0,50%,50%,0.6)"
    stroke-width="1"
    transform="translate(-37.5,-33.6730769230) scale(1,-1) translate(50,-110)"
    />
  
  <line
    x1="0"
    y1="22"
    x2="100"
    y2="22"
    stroke="hsla(0,50%,50%,0.6)"
    stroke-width="1"
    transform="translate(-37.5,-33.6730769230) scale(1,-1) translate(50,-110)"
    />
  
  <line
    x1="0"
    y1="22.384615384615383"
    x2="100"
    y2="22.384615384615383"
    stroke="hsla(0,50%,50%,0.6)"
    stroke-width="1"
    transform="translate(-37.5,-33.6730769230) scale(1,-1) translate(50,-110)"
    />
  
  <line
    x1="0"
    y1="36.07692307692308"
    x2="100"
    y2="36.07692307692308"
    stroke="hsla(0,50%,50%,0.6)"
    stroke-width="1"
    transform="translate(-37.5,-33.6730769230) scale(1,-1) translate(50,-110)"
    />
  
  <line
    x1="0"
    y1="38.46153846153846"
    x2="100"
    y2="38.46153846153846"
    stroke="hsla(0,50%,50%,0.6)"
    stroke-width="1"
    transform="translate(-37.5,-33.6730769230) scale(1,-1) translate(50,-110)"
    />
  
  <line
    x1="0"
    y1="44.46153846153846"
    x2="100"
    y2="44.46153846153846"
    stroke="hsla(0,50%,50%,0.6)"
    stroke-width="1"
    transform="translate(-37.5,-33.6730769230) scale(1,-1) translate(50,-110)"
    />
  
  <line
    x1="0"
    y1="46.76923076923077"
    x2="100"
    y2="46.76923076923077"
    stroke="hsla(0,50%,50%,0.6)"
    stroke-width="1"
    transform="translate(-37.5,-33.6730769230) scale(1,-1) translate(50,-110)"
    />
  
</svg>
