<?xml version="1.0"?>
<!DOCTYPE svg PUBLIC "-//W3C//DTD SVG 1.1//EN"
  "http://www.w3.org/Graphics/SVG/1.1/DTD/svg11.dtd">
<svg
  width="240"
  height="240"
  viewBox="-500 -500 1000 1000" xmlns="http://www.w3.org/2000/svg" version="1.1">
  <rect
    x="0"
    y="0"
    width="100"
    height="100"
    fill="hsla(206,100%,53%,0.3)"
    stroke="hsl(206,100%,53%)"
    stroke-width="3"
    transform="" />
  
  <path
    d="M 
      0
      0
      L
    
      100
      0
      L
    
      100
      42.2
      L
    
      0
      42.2
      z
    "
    fill="hsla(0,0%,50%,0.3)"
    stroke="hsla(0,0%,50%,1)"
    stroke-width="1"
    transform="translate(-50,-21.1)"
    />
  
  
  <line
    x1="0"
    y1="0"
    x2="100"
    y2="0"
    stroke="hsla(0,50%,50%,0.6)"
    stroke-width="1"
    transform="translate(-50,-21.1)"
    />
  
  <line
    x1="0"
    y1="0"
    x2="0"
    y2="42.2"
    stroke="hsla(0,50%,50%,0.6)"
    stroke-width="1"
    transform="translate(-50,-21.1)"
    />
  
  <line
    x1="100"
    y1="0"
    x2="100"
    y2="42.2"
    stroke="hsla(0,50%,50%,0.6)"
    stroke-width="1"
    transform="translate(-50,-21.1)"
    />
  
  <line
    x1="0"
    y1="11.8"
    x2="100"
    y2="11.8"
    stroke="hsla(0,50%,50%,0.6)"
    stroke-width="1"
    transform="translate(-50,-21.1)"
    />
  
  <line
    x1="0"
    y1="19"
    x2="100"
    y2="19"
    stroke="hsla(0,50%,50%,0.6)"
    stroke-width="1"
    transform="translate(-50,-21.1)"
    />
  
  <line
    x1="0"
    y1="19.2"
    x2="100"
    y2="19.2"
    stroke="hsla(0,50%,50%,0.6)"
    stroke-width="1"
    transform="translate(-50,-21.1)"
    />
  
  <line
    x1="0"
    y1="19.4"
    x2="100"
    y2="19.4"
    stroke="hsla(0,50%,50%,0.6)"
    stroke-width="1"
    transform="translate(-50,-21.1)"
    />
  
  <line
    x1="0"
    y1="42.2"
    x2="100"
    y2="42.2"
    stroke="hsla(0,50%,50%,0.6)"
    stroke-width="1"
    transform="translate(-50,-21.1)"
    />
  
</svg>
