<?xml version="1.0"?>
<!DOCTYPE svg PUBLIC "-//W3C//DTD SVG 1.1//EN"
  "http://www.w3.org/Graphics/SVG/1.1/DTD/svg11.dtd">
<svg
  width="240"
  height="240"
  viewBox="-500 -500 1000 1000" xmlns="http://www.w3.org/2000/svg" version="1.1">
  <rect
    x="0"
    y="0"
    width="100"
    height="100"
    fill="hsla(206,100%,53%,0.3)"
    stroke="hsl(206,100%,53%)"
    stroke-width="3"
    transform="" />
  
  <path
    d="M 
      -44.3678980531
      -31.8330303404
      L
    
      -29.7924672175
      -7.7915180221
      L
    
      -24.9722530521
      -15.5382907880
      L
    
      -0.0000000000
      -0.0000000000
      L
    
      -13.2075471698
      21.2264150943
      L
    
      -49.8335183129
      24.4173140954
      L
    
      -60.5963344032
      12.4004594788
      L
    
      -54.9719530851
      -25.4042055373
      z
    "
    fill="hsla(0,0%,50%,0.3)"
    stroke="hsla(0,0%,50%,1)"
    stroke-width="1"
    transform="translate(31.7278637827,3.5917814364)"
    />
  
  <path
    d="M 
      -31.3079255422
      -5.3559600003
      L
    
      -35.0071951855
      -3.1132371585
      L
    
      -33.6477987421
      -1.5954495005
      z
    "
    fill="hsla(0,0%,50%,0.3)"
    stroke="hsla(0,0%,50%,1)"
    stroke-width="1"
    transform="translate(31.7278637827,3.5917814364)"
    />
  
  
  <line
    x1="-44.36789805319731"
    y1="-31.833030340469843"
    x2="-54.971953085160635"
    y2="-25.404205537390887"
    stroke="hsla(0,50%,50%,0.6)"
    stroke-width="1"
    transform="translate(31.7278637827,3.5917814364)"
    />
  
  <line
    x1="-41.31832731327524"
    y1="-26.8029016714616"
    x2="-56.096829348771635"
    y2="-17.84327253413889"
    stroke="hsla(0,50%,50%,0.6)"
    stroke-width="1"
    transform="translate(31.7278637827,3.5917814364)"
    />
  
  <line
    x1="-29.120044353586962"
    y1="-6.682386995428632"
    x2="-60.59633440321564"
    y2="12.40045947886909"
    stroke="hsla(0,50%,50%,0.6)"
    stroke-width="1"
    transform="translate(31.7278637827,3.5917814364)"
    />
  
  <line
    x1="-24.972253052164262"
    y1="-15.538290788013319"
    x2="-49.833518312985575"
    y2="24.417314095449502"
    stroke="hsla(0,50%,50%,0.6)"
    stroke-width="1"
    transform="translate(31.7278637827,3.5917814364)"
    />
  
  <line
    x1="-54.971953085160635"
    y1="-25.404205537390887"
    x2="-60.59633440321564"
    y2="12.40045947886909"
    stroke="hsla(0,50%,50%,0.6)"
    stroke-width="1"
    transform="translate(31.7278637827,3.5917814364)"
    />
  
  <line
    x1="-4.994450610432852"
    y1="-3.1076581576026636"
    x2="-20.53274139844617"
    y2="21.8645948945616"
    stroke="hsla(0,50%,50%,0.6)"
    stroke-width="1"
    transform="translate(31.7278637827,3.5917814364)"
    />
  
  <line
    x1="-5.157137335431288e-20"
    y1="-3.208885453157246e-20"
    x2="-13.20754716981132"
    y2="21.22641509433962"
    stroke="hsla(0,50%,50%,0.6)"
    stroke-width="1"
    transform="translate(31.7278637827,3.5917814364)"
    />
  
  <line
    x1="-2.578568667715644e-20"
    y1="-1.604442726578623e-20"
    x2="-13.20754716981132"
    y2="21.22641509433962"
    stroke="hsla(0,50%,50%,0.6)"
    stroke-width="1"
    transform="translate(31.7278637827,3.5917814364)"
    />
  
  <line
    x1="-5.157137335431288e-20"
    y1="-3.208885453157246e-20"
    x2="-2.578568667715644e-20"
    y2="-1.604442726578623e-20"
    stroke="hsla(0,50%,50%,0.6)"
    stroke-width="1"
    transform="translate(31.7278637827,3.5917814364)"
    />
  
  <line
    x1="-24.972253052164262"
    y1="-15.538290788013319"
    x2="-2.578568667715644e-20"
    y2="-1.604442726578623e-20"
    stroke="hsla(0,50%,50%,0.6)"
    stroke-width="1"
    transform="translate(31.7278637827,3.5917814364)"
    />
  
  <line
    x1="-44.36789805319731"
    y1="-31.833030340469843"
    x2="-29.120044353586962"
    y2="-6.682386995428632"
    stroke="hsla(0,50%,50%,0.6)"
    stroke-width="1"
    transform="translate(31.7278637827,3.5917814364)"
    />
  
  <line
    x1="-54.971953085160635"
    y1="-25.404205537390887"
    x2="-13.20754716981132"
    y2="21.22641509433962"
    stroke="hsla(0,50%,50%,0.6)"
    stroke-width="1"
    transform="translate(31.7278637827,3.5917814364)"
    />
  
  <line
    x1="-13.20754716981132"
    y1="21.22641509433962"
    x2="-49.833518312985575"
    y2="24.417314095449502"
    stroke="hsla(0,50%,50%,0.6)"
    stroke-width="1"
    transform="translate(31.7278637827,3.5917814364)"
    />
  
  <line
    x1="-56.096829348771635"
    y1="-17.84327253413889"
    x2="-20.53274139844617"
    y2="21.8645948945616"
    stroke="hsla(0,50%,50%,0.6)"
    stroke-width="1"
    transform="translate(31.7278637827,3.5917814364)"
    />
  
  <line
    x1="-60.59633440321564"
    y1="12.40045947886909"
    x2="-49.833518312985575"
    y2="24.417314095449502"
    stroke="hsla(0,50%,50%,0.6)"
    stroke-width="1"
    transform="translate(31.7278637827,3.5917814364)"
    />
  
</svg>
