<?xml version="1.0"?>
<!DOCTYPE svg PUBLIC "-//W3C//DTD SVG 1.1//EN"
  "http://www.w3.org/Graphics/SVG/1.1/DTD/svg11.dtd">
<svg
  width="240"
  height="240"
  viewBox="-500 -500 1000 1000" xmlns="http://www.w3.org/2000/svg" version="1.1">
  <rect
    x="0"
    y="0"
    width="100"
    height="100"
    fill="hsla(206,100%,53%,0.3)"
    stroke="hsl(206,100%,53%)"
    stroke-width="3"
    transform="" />
  
  <path
    d="M 
      50
      16.6666666666
      L
    
      66.6666666666
      33.3333333333
      L
    
      66.6666666666
      66.6666666666
      L
    
      50
      83.3333333333
      L
    
      16.6666666666
      50
      z
    "
    fill="hsla(0,0%,50%,0.3)"
    stroke="hsla(0,0%,50%,1)"
    stroke-width="1"
    transform="translate(-41.6666666666,-50)"
    />
  
  
  <line
    x1="50"
    y1="16.666666666666668"
    x2="66.66666666666667"
    y2="33.333333333333336"
    stroke="hsla(0,50%,50%,0.6)"
    stroke-width="1"
    transform="translate(-41.6666666666,-50)"
    />
  
  <line
    x1="33.333333333333336"
    y1="33.333333333333336"
    x2="33.333333333333336"
    y2="66.66666666666667"
    stroke="hsla(0,50%,50%,0.6)"
    stroke-width="1"
    transform="translate(-41.6666666666,-50)"
    />
  
  <line
    x1="50"
    y1="16.666666666666668"
    x2="50"
    y2="83.33333333333333"
    stroke="hsla(0,50%,50%,0.6)"
    stroke-width="1"
    transform="translate(-41.6666666666,-50)"
    />
  
  <line
    x1="66.66666666666667"
    y1="33.333333333333336"
    x2="66.66666666666667"
    y2="66.66666666666667"
    stroke="hsla(0,50%,50%,0.6)"
    stroke-width="1"
    transform="translate(-41.6666666666,-50)"
    />
  
  <line
    x1="16.666666666666668"
    y1="50"
    x2="50"
    y2="83.33333333333333"
    stroke="hsla(0,50%,50%,0.6)"
    stroke-width="1"
    transform="translate(-41.6666666666,-50)"
    />
  
  <line
    x1="33.333333333333336"
    y1="33.333333333333336"
    x2="66.66666666666667"
    y2="33.333333333333336"
    stroke="hsla(0,50%,50%,0.6)"
    stroke-width="1"
    transform="translate(-41.6666666666,-50)"
    />
  
  <line
    x1="50"
    y1="16.666666666666668"
    x2="16.666666666666668"
    y2="50"
    stroke="hsla(0,50%,50%,0.6)"
    stroke-width="1"
    transform="translate(-41.6666666666,-50)"
    />
  
  <line
    x1="66.66666666666667"
    y1="33.333333333333336"
    x2="33.333333333333336"
    y2="66.66666666666667"
    stroke="hsla(0,50%,50%,0.6)"
    stroke-width="1"
    transform="translate(-41.6666666666,-50)"
    />
  
  <line
    x1="33.333333333333336"
    y1="66.66666666666667"
    x2="66.66666666666667"
    y2="66.66666666666667"
    stroke="hsla(0,50%,50%,0.6)"
    stroke-width="1"
    transform="translate(-41.6666666666,-50)"
    />
  
  <line
    x1="66.66666666666667"
    y1="66.66666666666667"
    x2="50"
    y2="83.33333333333333"
    stroke="hsla(0,50%,50%,0.6)"
    stroke-width="1"
    transform="translate(-41.6666666666,-50)"
    />
  
</svg>
