<?xml version="1.0"?>
<!DOCTYPE svg PUBLIC "-//W3C//DTD SVG 1.1//EN"
  "http://www.w3.org/Graphics/SVG/1.1/DTD/svg11.dtd">
<svg
  width="240"
  height="240"
  viewBox="-500 -500 1000 1000" xmlns="http://www.w3.org/2000/svg" version="1.1">
  <rect
    x="0"
    y="0"
    width="100"
    height="100"
    fill="hsla(206,100%,53%,0.3)"
    stroke="hsl(206,100%,53%)"
    stroke-width="3"
    transform="" />
  
  <path
    d="M 
      610.8666717662
      714.9101200948
      L
    
      614.4511809111
      742.8888300754
      L
    
      632.1589810276
      750.2670801240
      L
    
      619.3384682071
      781.0363108932
      L
    
      546.8487212830
      771.2873862158
      L
    
      554.0524721519
      717.7227014258
      L
    
      569.3123623361
      715.7676714779
      L
    
      569.8753126588
      720.1617525569
      z
    "
    fill="hsla(0,0%,50%,0.3)"
    stroke="hsla(0,0%,50%,1)"
    stroke-width="1"
    transform="translate(-589.5038511553,-747.9732154940)"
    />
  
  
  <line
    x1="610.8666717662358"
    y1="714.910120094852"
    x2="619.3384682071288"
    y2="781.036310893268"
    stroke="hsla(0,50%,50%,0.6)"
    stroke-width="1"
    transform="translate(-589.5038511553,-747.9732154940)"
    />
  
  <line
    x1="569.3123623361519"
    y1="715.767671477914"
    x2="576.9438388871587"
    y2="775.3347866708191"
    stroke="hsla(0,50%,50%,0.6)"
    stroke-width="1"
    transform="translate(-589.5038511553,-747.9732154940)"
    />
  
  <line
    x1="554.052472151902"
    y1="717.7227014258124"
    x2="546.8487212830515"
    y2="771.2873862158648"
    stroke="hsla(0,50%,50%,0.6)"
    stroke-width="1"
    transform="translate(-589.5038511553,-747.9732154940)"
    />
  
  <line
    x1="592.3076923076923"
    y1="738.4615384615385"
    x2="576.9438388871587"
    y2="775.3347866708191"
    stroke="hsla(0,50%,50%,0.6)"
    stroke-width="1"
    transform="translate(-589.5038511553,-747.9732154940)"
    />
  
  <line
    x1="632.1589810276416"
    y1="750.2670801240372"
    x2="619.3384682071288"
    y2="781.036310893268"
    stroke="hsla(0,50%,50%,0.6)"
    stroke-width="1"
    transform="translate(-589.5038511553,-747.9732154940)"
    />
  
  <line
    x1="554.052472151902"
    y1="717.7227014258124"
    x2="632.1589810276416"
    y2="750.2670801240372"
    stroke="hsla(0,50%,50%,0.6)"
    stroke-width="1"
    transform="translate(-589.5038511553,-747.9732154940)"
    />
  
  <line
    x1="553.4412955465586"
    y1="722.2672064777328"
    x2="592.3076923076923"
    y2="738.4615384615385"
    stroke="hsla(0,50%,50%,0.6)"
    stroke-width="1"
    transform="translate(-589.5038511553,-747.9732154940)"
    />
  
  <line
    x1="546.8487212830515"
    y1="771.2873862158648"
    x2="619.3384682071288"
    y2="781.036310893268"
    stroke="hsla(0,50%,50%,0.6)"
    stroke-width="1"
    transform="translate(-589.5038511553,-747.9732154940)"
    />
  
  <line
    x1="569.3123623361519"
    y1="715.767671477914"
    x2="554.052472151902"
    y2="717.7227014258124"
    stroke="hsla(0,50%,50%,0.6)"
    stroke-width="1"
    transform="translate(-589.5038511553,-747.9732154940)"
    />
  
  <line
    x1="610.8666717662358"
    y1="714.910120094852"
    x2="553.4412955465586"
    y2="722.2672064777328"
    stroke="hsla(0,50%,50%,0.6)"
    stroke-width="1"
    transform="translate(-589.5038511553,-747.9732154940)"
    />
  
</svg>
