<?xml version="1.0"?>
<!DOCTYPE svg PUBLIC "-//W3C//DTD SVG 1.1//EN"
  "http://www.w3.org/Graphics/SVG/1.1/DTD/svg11.dtd">
<svg
  width="240"
  height="240"
  viewBox="-500 -500 1000 1000" xmlns="http://www.w3.org/2000/svg" version="1.1">
  <rect
    x="0"
    y="0"
    width="100"
    height="100"
    fill="hsla(206,100%,53%,0.3)"
    stroke="hsl(206,100%,53%)"
    stroke-width="3"
    transform="" />
  
  <path
    d="M 
      78.2288263555
      114.6765111532
      L
    
      92.2648632789
      117.3357027856
      L
    
      84.2872883816
      159.4438135558
      L
    
      126.3953991518
      167.4213884531
      L
    
      123.7362075194
      181.4574253765
      L
    
      81.6280967492
      173.4798504792
      L
    
      70.2512514582
      156.7846219234
      z
    "
    fill="hsla(0,0%,50%,0.3)"
    stroke="hsla(0,0%,50%,1)"
    stroke-width="1"
    transform="translate(-98.3233253050,-148.0669682649)"
    />
  
  
  <line
    x1="70.25125145824883"
    y1="156.78462192346305"
    x2="81.62809674922451"
    y2="173.4798504792908"
    stroke="hsla(0,50%,50%,0.6)"
    stroke-width="1"
    transform="translate(-98.3233253050,-148.0669682649)"
    />
  
  <line
    x1="78.22882635552696"
    y1="114.67651115325788"
    x2="70.25125145824883"
    y2="156.78462192346305"
    stroke="hsla(0,50%,50%,0.6)"
    stroke-width="1"
    transform="translate(-98.3233253050,-148.0669682649)"
    />
  
  <line
    x1="92.26486327892869"
    y1="117.33570278568392"
    x2="81.62809674922451"
    y2="173.4798504792908"
    stroke="hsla(0,50%,50%,0.6)"
    stroke-width="1"
    transform="translate(-98.3233253050,-148.0669682649)"
    />
  
  <line
    x1="126.39539915185573"
    y1="167.42138845316722"
    x2="123.7362075194297"
    y2="181.45742537656895"
    stroke="hsla(0,50%,50%,0.6)"
    stroke-width="1"
    transform="translate(-98.3233253050,-148.0669682649)"
    />
  
  <line
    x1="78.22882635552696"
    y1="114.67651115325788"
    x2="92.26486327892869"
    y2="117.33570278568392"
    stroke="hsla(0,50%,50%,0.6)"
    stroke-width="1"
    transform="translate(-98.3233253050,-148.0669682649)"
    />
  
  <line
    x1="70.25125145824883"
    y1="156.78462192346305"
    x2="126.39539915185573"
    y2="167.42138845316722"
    stroke="hsla(0,50%,50%,0.6)"
    stroke-width="1"
    transform="translate(-98.3233253050,-148.0669682649)"
    />
  
  <line
    x1="81.62809674922451"
    y1="173.4798504792908"
    x2="123.7362075194297"
    y2="181.45742537656895"
    stroke="hsla(0,50%,50%,0.6)"
    stroke-width="1"
    transform="translate(-98.3233253050,-148.0669682649)"
    />
  
</svg>
