<?xml version="1.0"?>
<!DOCTYPE svg PUBLIC "-//W3C//DTD SVG 1.1//EN"
  "http://www.w3.org/Graphics/SVG/1.1/DTD/svg11.dtd">
<svg
  width="240"
  height="240"
  viewBox="-50 -50 200 200" xmlns="http://www.w3.org/2000/svg" version="1.1">
  <rect
    x="0"
    y="0"
    width="100"
    height="100"
    fill="hsla(206,100%,53%,0.3)"
    stroke="hsl(206,100%,53%)"
    stroke-width="3"
    transform="" />
  
  <path
    d="M 
      99.7921470959
      -5.2602773421
      L
    
      103.7373551025
      44.5838329797
      L
    
      80.7879039449
      71.4784921440
      L
    
      107.6825631091
      94.4279433016
      L
    
      57.8384527872
      98.3731513083
      L
    
      53.8932447806
      48.5290409863
      z
    "
    fill="hsla(0,0%,50%,0.3)"
    stroke="hsla(0,0%,50%,1)"
    stroke-width="1"
    transform="translate(-66.2760969160,-66.3575681056) scale(1,-1) translate(50,-110)"
    />
  
  
  <line
    x1="99.79214709590136"
    y1="-5.260277342188605"
    x2="103.73735510254282"
    y2="44.583832979737416"
    stroke="hsla(0,50%,50%,0.6)"
    stroke-width="1"
    transform="translate(-66.2760969160,-66.3575681056) scale(1,-1) translate(50,-110)"
    />
  
  <line
    x1="53.8932447806168"
    y1="48.529040986378874"
    x2="57.83845278725825"
    y2="98.3731513083049"
    stroke="hsla(0,50%,50%,0.6)"
    stroke-width="1"
    transform="translate(-66.2760969160,-66.3575681056) scale(1,-1) translate(50,-110)"
    />
  
  <line
    x1="53.8932447806168"
    y1="48.529040986378874"
    x2="107.68256310918427"
    y2="94.42794330166343"
    stroke="hsla(0,50%,50%,0.6)"
    stroke-width="1"
    transform="translate(-66.2760969160,-66.3575681056) scale(1,-1) translate(50,-110)"
    />
  
  <line
    x1="99.79214709590136"
    y1="-5.260277342188605"
    x2="53.8932447806168"
    y2="48.529040986378874"
    stroke="hsla(0,50%,50%,0.6)"
    stroke-width="1"
    transform="translate(-66.2760969160,-66.3575681056) scale(1,-1) translate(50,-110)"
    />
  
  <line
    x1="103.73735510254282"
    y1="44.583832979737416"
    x2="53.8932447806168"
    y2="48.529040986378874"
    stroke="hsla(0,50%,50%,0.6)"
    stroke-width="1"
    transform="translate(-66.2760969160,-66.3575681056) scale(1,-1) translate(50,-110)"
    />
  
  <line
    x1="103.73735510254282"
    y1="44.583832979737416"
    x2="57.83845278725825"
    y2="98.3731513083049"
    stroke="hsla(0,50%,50%,0.6)"
    stroke-width="1"
    transform="translate(-66.2760969160,-66.3575681056) scale(1,-1) translate(50,-110)"
    />
  
  <line
    x1="107.68256310918427"
    y1="94.42794330166343"
    x2="57.83845278725825"
    y2="98.3731513083049"
    stroke="hsla(0,50%,50%,0.6)"
    stroke-width="1"
    transform="translate(-66.2760969160,-66.3575681056) scale(1,-1) translate(50,-110)"
    />
  
</svg>
