<?xml version="1.0"?>
<!DOCTYPE svg PUBLIC "-//W3C//DTD SVG 1.1//EN"
  "http://www.w3.org/Graphics/SVG/1.1/DTD/svg11.dtd">
<svg
  width="240"
  height="240"
  viewBox="-50 -50 200 200" xmlns="http://www.w3.org/2000/svg" version="1.1">
  <rect
    x="0"
    y="0"
    width="100"
    height="100"
    fill="hsla(206,100%,53%,0.3)"
    stroke="hsl(206,100%,53%)"
    stroke-width="3"
    transform="" />
  
  <path
    d="M 
      -92.0530775924
      51.3244870679
      L
    
      -44.4418164616
      59.2596972563
      L
    
      -23.6806001682
      78.6217881039
      L
    
      -23.0664185515
      84.9108303148
      L
    
      -43.3917242185
      86.8957794811
      L
    
      -63.0306554249
      81.7373289063
      L
    
      -77.4082547153
      104.7111114040
      L
    
      -101.4661724213
      97.9128325298
      L
    
      -97.1317858905
      82.5741980911
      L
    
      -102.5970534493
      76.4401973836
      L
    
      -117.3258635568
      76.0330296244
      L
    
      -116.8935439266
      60.3943804574
      z
    "
    fill="hsla(0,0%,50%,0.3)"
    stroke="hsla(0,0%,50%,1)"
    stroke-width="1"
    transform="translate(111.8506790204,-69.8918730805) scale(1,-1) translate(50,-110)"
    />
  
  
  <line
    x1="-88.47000298979587"
    y1="51.92166616836735"
    x2="-101.46617242134678"
    y2="97.91283252984603"
    stroke="hsla(0,50%,50%,0.6)"
    stroke-width="1"
    transform="translate(111.8506790204,-69.8918730805) scale(1,-1) translate(50,-110)"
    />
  
  <line
    x1="-68.05833689566633"
    y1="55.32361051738894"
    x2="-74.02340528459922"
    y2="76.03867766624118"
    stroke="hsla(0,50%,50%,0.6)"
    stroke-width="1"
    transform="translate(111.8506790204,-69.8918730805) scale(1,-1) translate(50,-110)"
    />
  
  <line
    x1="-48.53647005026526"
    y1="58.57725499162246"
    x2="-77.40825471536179"
    y2="104.71111140409455"
    stroke="hsla(0,50%,50%,0.6)"
    stroke-width="1"
    transform="translate(111.8506790204,-69.8918730805) scale(1,-1) translate(50,-110)"
    />
  
  <line
    x1="-88.47000298979587"
    y1="51.92166616836735"
    x2="-88.59114994960078"
    y2="54.1262087783822"
    stroke="hsla(0,50%,50%,0.6)"
    stroke-width="1"
    transform="translate(111.8506790204,-69.8918730805) scale(1,-1) translate(50,-110)"
    />
  
  <line
    x1="-68.05833689566633"
    y1="55.32361051738894"
    x2="-68.79885510048503"
    y2="70.14401963380578"
    stroke="hsla(0,50%,50%,0.6)"
    stroke-width="1"
    transform="translate(111.8506790204,-69.8918730805) scale(1,-1) translate(50,-110)"
    />
  
  <line
    x1="-116.89354392662025"
    y1="60.394380457427644"
    x2="-117.32586355683713"
    y2="76.03302962442307"
    stroke="hsla(0,50%,50%,0.6)"
    stroke-width="1"
    transform="translate(111.8506790204,-69.8918730805) scale(1,-1) translate(50,-110)"
    />
  
  <line
    x1="-37.97581123055762"
    y1="65.28994996106691"
    x2="-46.46851016618663"
    y2="77.83177098228164"
    stroke="hsla(0,50%,50%,0.6)"
    stroke-width="1"
    transform="translate(111.8506790204,-69.8918730805) scale(1,-1) translate(50,-110)"
    />
  
  <line
    x1="-23.68060016823711"
    y1="78.62178810397018"
    x2="-23.066418551585542"
    y2="84.91083031485364"
    stroke="hsla(0,50%,50%,0.6)"
    stroke-width="1"
    transform="translate(111.8506790204,-69.8918730805) scale(1,-1) translate(50,-110)"
    />
  
  <line
    x1="-64.20441526355734"
    y1="72.31607557048203"
    x2="-72.76429107352023"
    y2="79.18064810335164"
    stroke="hsla(0,50%,50%,0.6)"
    stroke-width="1"
    transform="translate(111.8506790204,-69.8918730805) scale(1,-1) translate(50,-110)"
    />
  
  <line
    x1="-48.53647005026526"
    y1="58.57725499162246"
    x2="-48.0063684608359"
    y2="60.85257287912448"
    stroke="hsla(0,50%,50%,0.6)"
    stroke-width="1"
    transform="translate(111.8506790204,-69.8918730805) scale(1,-1) translate(50,-110)"
    />
  
  <line
    x1="-49.743059394307366"
    y1="58.37615676761544"
    x2="-74.02340528459922"
    y2="76.03867766624118"
    stroke="hsla(0,50%,50%,0.6)"
    stroke-width="1"
    transform="translate(111.8506790204,-69.8918730805) scale(1,-1) translate(50,-110)"
    />
  
  <line
    x1="-92.05307759246702"
    y1="51.32448706792216"
    x2="-116.89354392662025"
    y2="60.394380457427644"
    stroke="hsla(0,50%,50%,0.6)"
    stroke-width="1"
    transform="translate(111.8506790204,-69.8918730805) scale(1,-1) translate(50,-110)"
    />
  
  <line
    x1="-37.97581123055762"
    y1="65.28994996106691"
    x2="-59.97648831199405"
    y2="82.53955026624384"
    stroke="hsla(0,50%,50%,0.6)"
    stroke-width="1"
    transform="translate(111.8506790204,-69.8918730805) scale(1,-1) translate(50,-110)"
    />
  
  <line
    x1="-83.5115251017018"
    y1="52.74807914971637"
    x2="-88.59114994960078"
    y2="54.1262087783822"
    stroke="hsla(0,50%,50%,0.6)"
    stroke-width="1"
    transform="translate(111.8506790204,-69.8918730805) scale(1,-1) translate(50,-110)"
    />
  
  <line
    x1="-44.44181646168401"
    y1="59.259697256386"
    x2="-68.79885510048503"
    y2="70.14401963380578"
    stroke="hsla(0,50%,50%,0.6)"
    stroke-width="1"
    transform="translate(111.8506790204,-69.8918730805) scale(1,-1) translate(50,-110)"
    />
  
  <line
    x1="-64.20441526355734"
    y1="72.31607557048203"
    x2="-59.97648831199405"
    y2="82.53955026624384"
    stroke="hsla(0,50%,50%,0.6)"
    stroke-width="1"
    transform="translate(111.8506790204,-69.8918730805) scale(1,-1) translate(50,-110)"
    />
  
  <line
    x1="-74.02340528459922"
    y1="76.03867766624118"
    x2="-72.76429107352023"
    y2="79.18064810335164"
    stroke="hsla(0,50%,50%,0.6)"
    stroke-width="1"
    transform="translate(111.8506790204,-69.8918730805) scale(1,-1) translate(50,-110)"
    />
  
  <line
    x1="-49.743059394307366"
    y1="58.37615676761544"
    x2="-48.0063684608359"
    y2="60.85257287912448"
    stroke="hsla(0,50%,50%,0.6)"
    stroke-width="1"
    transform="translate(111.8506790204,-69.8918730805) scale(1,-1) translate(50,-110)"
    />
  
  <line
    x1="-44.44181646168401"
    y1="59.259697256386"
    x2="-23.68060016823711"
    y2="78.62178810397018"
    stroke="hsla(0,50%,50%,0.6)"
    stroke-width="1"
    transform="translate(111.8506790204,-69.8918730805) scale(1,-1) translate(50,-110)"
    />
  
  <line
    x1="-92.05307759246702"
    y1="51.32448706792216"
    x2="-44.44181646168401"
    y2="59.259697256386"
    stroke="hsla(0,50%,50%,0.6)"
    stroke-width="1"
    transform="translate(111.8506790204,-69.8918730805) scale(1,-1) translate(50,-110)"
    />
  
  <line
    x1="-83.5115251017018"
    y1="52.74807914971637"
    x2="-46.46851016618663"
    y2="77.83177098228164"
    stroke="hsla(0,50%,50%,0.6)"
    stroke-width="1"
    transform="translate(111.8506790204,-69.8918730805) scale(1,-1) translate(50,-110)"
    />
  
  <line
    x1="-92.05307759246702"
    y1="51.32448706792216"
    x2="-68.79885510048503"
    y2="70.14401963380578"
    stroke="hsla(0,50%,50%,0.6)"
    stroke-width="1"
    transform="translate(111.8506790204,-69.8918730805) scale(1,-1) translate(50,-110)"
    />
  
  <line
    x1="-64.20441526355734"
    y1="72.31607557048203"
    x2="-43.39172421853838"
    y2="86.89577948117714"
    stroke="hsla(0,50%,50%,0.6)"
    stroke-width="1"
    transform="translate(111.8506790204,-69.8918730805) scale(1,-1) translate(50,-110)"
    />
  
  <line
    x1="-117.32586355683713"
    y1="76.03302962442307"
    x2="-23.68060016823711"
    y2="78.62178810397018"
    stroke="hsla(0,50%,50%,0.6)"
    stroke-width="1"
    transform="translate(111.8506790204,-69.8918730805) scale(1,-1) translate(50,-110)"
    />
  
  <line
    x1="-23.066418551585542"
    y1="84.91083031485364"
    x2="-43.39172421853838"
    y2="86.89577948117714"
    stroke="hsla(0,50%,50%,0.6)"
    stroke-width="1"
    transform="translate(111.8506790204,-69.8918730805) scale(1,-1) translate(50,-110)"
    />
  
  <line
    x1="-116.89354392662025"
    y1="60.394380457427644"
    x2="-77.40825471536179"
    y2="104.71111140409455"
    stroke="hsla(0,50%,50%,0.6)"
    stroke-width="1"
    transform="translate(111.8506790204,-69.8918730805) scale(1,-1) translate(50,-110)"
    />
  
  <line
    x1="-72.76429107352023"
    y1="79.18064810335164"
    x2="-43.39172421853838"
    y2="86.89577948117714"
    stroke="hsla(0,50%,50%,0.6)"
    stroke-width="1"
    transform="translate(111.8506790204,-69.8918730805) scale(1,-1) translate(50,-110)"
    />
  
  <line
    x1="-101.46617242134678"
    y1="97.91283252984603"
    x2="-77.40825471536179"
    y2="104.71111140409455"
    stroke="hsla(0,50%,50%,0.6)"
    stroke-width="1"
    transform="translate(111.8506790204,-69.8918730805) scale(1,-1) translate(50,-110)"
    />
  
</svg>
