<?xml version="1.0"?>
<!DOCTYPE svg PUBLIC "-//W3C//DTD SVG 1.1//EN"
  "http://www.w3.org/Graphics/SVG/1.1/DTD/svg11.dtd">
<svg
  width="240"
  height="240"
  viewBox="-500 -500 1000 1000" xmlns="http://www.w3.org/2000/svg" version="1.1">
  <rect
    x="0"
    y="0"
    width="100"
    height="100"
    fill="hsla(206,100%,53%,0.3)"
    stroke="hsl(206,100%,53%)"
    stroke-width="3"
    transform="" />
  
  <path
    d="M 
      165.2120639965
      50.6657485547
      L
    
      197.9230841456
      145.2111808329
      L
    
      112.5149605943
      177.6353228101
      L
    
      83.0416666666
      100
      L
    
      100
      75.4227053140
      L
    
      159.9023522903
      52.6815151945
      L
    
      159.8015013439
      52.3593201585
      z
    "
    fill="hsla(0,0%,50%,0.3)"
    stroke="hsla(0,0%,50%,1)"
    stroke-width="1"
    transform="translate(-140.4823754061,-114.1505356824)"
    />
  
  
  <line
    x1="165.21206399655657"
    y1="50.66574855473721"
    x2="197.92308414566926"
    y2="145.21118083291103"
    stroke="hsla(0,50%,50%,0.6)"
    stroke-width="1"
    transform="translate(-140.4823754061,-114.1505356824)"
    />
  
  <line
    x1="159.8015013439952"
    y1="52.35932015856459"
    x2="189.67352159158386"
    y2="147.79339377133485"
    stroke="hsla(0,50%,50%,0.6)"
    stroke-width="1"
    transform="translate(-140.4823754061,-114.1505356824)"
    />
  
  <line
    x1="83.04166666666667"
    y1="100"
    x2="112.51496059435901"
    y2="177.6353228101077"
    stroke="hsla(0,50%,50%,0.6)"
    stroke-width="1"
    transform="translate(-140.4823754061,-114.1505356824)"
    />
  
  <line
    x1="100"
    y1="75.42270531400966"
    x2="100"
    y2="100"
    stroke="hsla(0,50%,50%,0.6)"
    stroke-width="1"
    transform="translate(-140.4823754061,-114.1505356824)"
    />
  
  <line
    x1="100"
    y1="75.42270531400966"
    x2="83.04166666666667"
    y2="100"
    stroke="hsla(0,50%,50%,0.6)"
    stroke-width="1"
    transform="translate(-140.4823754061,-114.1505356824)"
    />
  
  <line
    x1="165.21206399655657"
    y1="50.66574855473721"
    x2="159.8015013439952"
    y2="52.35932015856459"
    stroke="hsla(0,50%,50%,0.6)"
    stroke-width="1"
    transform="translate(-140.4823754061,-114.1505356824)"
    />
  
  <line
    x1="165.21206399655657"
    y1="50.66574855473721"
    x2="100"
    y2="75.42270531400966"
    stroke="hsla(0,50%,50%,0.6)"
    stroke-width="1"
    transform="translate(-140.4823754061,-114.1505356824)"
    />
  
  <line
    x1="83.04166666666667"
    y1="100"
    x2="100"
    y2="100"
    stroke="hsla(0,50%,50%,0.6)"
    stroke-width="1"
    transform="translate(-140.4823754061,-114.1505356824)"
    />
  
  <line
    x1="197.92308414566926"
    y1="145.21118083291103"
    x2="189.67352159158386"
    y2="147.79339377133485"
    stroke="hsla(0,50%,50%,0.6)"
    stroke-width="1"
    transform="translate(-140.4823754061,-114.1505356824)"
    />
  
  <line
    x1="197.92308414566926"
    y1="145.21118083291103"
    x2="112.51496059435901"
    y2="177.6353228101077"
    stroke="hsla(0,50%,50%,0.6)"
    stroke-width="1"
    transform="translate(-140.4823754061,-114.1505356824)"
    />
  
</svg>
