<?xml version="1.0"?>
<!DOCTYPE svg PUBLIC "-//W3C//DTD SVG 1.1//EN"
  "http://www.w3.org/Graphics/SVG/1.1/DTD/svg11.dtd">
<svg
  width="240"
  height="240"
  viewBox="-500 -500 1000 1000" xmlns="http://www.w3.org/2000/svg" version="1.1">
  <rect
    x="0"
    y="0"
    width="100"
    height="100"
    fill="hsla(206,100%,53%,0.3)"
    stroke="hsl(206,100%,53%)"
    stroke-width="3"
    transform="" />
  
  <path
    d="M 
      70
      10
      L
    
      130
      90
      L
    
      100
      85.7142857142
      L
    
      100
      100
      L
    
      75
      100
      L
    
      45
      60
      L
    
      52
      36
      L
    
      65.7142857142
      40
      z
    "
    fill="hsla(0,0%,50%,0.3)"
    stroke="hsla(0,0%,50%,1)"
    stroke-width="1"
    transform="translate(-87.5,-55)"
    />
  
  
  <line
    x1="70"
    y1="10"
    x2="130"
    y2="90"
    stroke="hsla(0,50%,50%,0.6)"
    stroke-width="1"
    transform="translate(-87.5,-55)"
    />
  
  <line
    x1="65"
    y1="45"
    x2="95"
    y2="85"
    stroke="hsla(0,50%,50%,0.6)"
    stroke-width="1"
    transform="translate(-87.5,-55)"
    />
  
  <line
    x1="45"
    y1="60"
    x2="75"
    y2="100"
    stroke="hsla(0,50%,50%,0.6)"
    stroke-width="1"
    transform="translate(-87.5,-55)"
    />
  
  <line
    x1="100"
    y1="50"
    x2="100"
    y2="100"
    stroke="hsla(0,50%,50%,0.6)"
    stroke-width="1"
    transform="translate(-87.5,-55)"
    />
  
  <line
    x1="70"
    y1="10"
    x2="65"
    y2="45"
    stroke="hsla(0,50%,50%,0.6)"
    stroke-width="1"
    transform="translate(-87.5,-55)"
    />
  
  <line
    x1="100"
    y1="50"
    x2="95"
    y2="85"
    stroke="hsla(0,50%,50%,0.6)"
    stroke-width="1"
    transform="translate(-87.5,-55)"
    />
  
  <line
    x1="52"
    y1="36"
    x2="45"
    y2="60"
    stroke="hsla(0,50%,50%,0.6)"
    stroke-width="1"
    transform="translate(-87.5,-55)"
    />
  
  <line
    x1="52"
    y1="36"
    x2="100"
    y2="50"
    stroke="hsla(0,50%,50%,0.6)"
    stroke-width="1"
    transform="translate(-87.5,-55)"
    />
  
  <line
    x1="65"
    y1="45"
    x2="100"
    y2="50"
    stroke="hsla(0,50%,50%,0.6)"
    stroke-width="1"
    transform="translate(-87.5,-55)"
    />
  
  <line
    x1="100"
    y1="50"
    x2="75"
    y2="100"
    stroke="hsla(0,50%,50%,0.6)"
    stroke-width="1"
    transform="translate(-87.5,-55)"
    />
  
  <line
    x1="85"
    y1="30"
    x2="45"
    y2="60"
    stroke="hsla(0,50%,50%,0.6)"
    stroke-width="1"
    transform="translate(-87.5,-55)"
    />
  
  <line
    x1="100"
    y1="50"
    x2="45"
    y2="60"
    stroke="hsla(0,50%,50%,0.6)"
    stroke-width="1"
    transform="translate(-87.5,-55)"
    />
  
  <line
    x1="95"
    y1="85"
    x2="130"
    y2="90"
    stroke="hsla(0,50%,50%,0.6)"
    stroke-width="1"
    transform="translate(-87.5,-55)"
    />
  
  <line
    x1="75"
    y1="100"
    x2="100"
    y2="100"
    stroke="hsla(0,50%,50%,0.6)"
    stroke-width="1"
    transform="translate(-87.5,-55)"
    />
  
  <line
    x1="115"
    y1="70"
    x2="75"
    y2="100"
    stroke="hsla(0,50%,50%,0.6)"
    stroke-width="1"
    transform="translate(-87.5,-55)"
    />
  
</svg>
