<?xml version="1.0"?>
<!DOCTYPE svg PUBLIC "-//W3C//DTD SVG 1.1//EN"
  "http://www.w3.org/Graphics/SVG/1.1/DTD/svg11.dtd">
<svg
  width="240"
  height="240"
  viewBox="-500 -500 1000 1000" xmlns="http://www.w3.org/2000/svg" version="1.1">
  <rect
    x="0"
    y="0"
    width="100"
    height="100"
    fill="hsla(206,100%,53%,0.3)"
    stroke="hsl(206,100%,53%)"
    stroke-width="3"
    transform="" />
  
  <path
    d="M 
      233.5600310534
      -130.9203278434
      L
    
      270.9273543407
      -103.3650126531
      L
    
      272.4368940480
      -93.3769144258
      L
    
      244.8815788577
      -56.0095911384
      L
    
      239.1327598904
      -60.2488703984
      L
    
      266.6880750807
      -97.6161936858
      L
    
      229.3207517933
      -125.1715088761
      z
    "
    fill="hsla(0,0%,50%,0.3)"
    stroke="hsla(0,0%,50%,1)"
    stroke-width="1"
    transform="translate(-250.8788229207,93.4649594909)"
    />
  
  
  <line
    x1="233.56003105342322"
    y1="-130.92032784342916"
    x2="270.9273543407846"
    y2="-103.36501265314726"
    stroke="hsla(0,50%,50%,0.6)"
    stroke-width="1"
    transform="translate(-250.8788229207,93.4649594909)"
    />
  
  <line
    x1="229.32075179337986"
    y1="-125.17150887614278"
    x2="272.43689404802757"
    y2="-93.37691442581752"
    stroke="hsla(0,50%,50%,0.6)"
    stroke-width="1"
    transform="translate(-250.8788229207,93.4649594909)"
    />
  
  <line
    x1="239.13275989045934"
    y1="-60.24887039849951"
    x2="244.8815788577457"
    y2="-56.00959113845615"
    stroke="hsla(0,50%,50%,0.6)"
    stroke-width="1"
    transform="translate(-250.8788229207,93.4649594909)"
    />
  
  <line
    x1="270.9273543407846"
    y1="-103.36501265314726"
    x2="272.43689404802757"
    y2="-93.37691442581752"
    stroke="hsla(0,50%,50%,0.6)"
    stroke-width="1"
    transform="translate(-250.8788229207,93.4649594909)"
    />
  
  <line
    x1="233.56003105342322"
    y1="-130.92032784342916"
    x2="229.32075179337986"
    y2="-125.17150887614278"
    stroke="hsla(0,50%,50%,0.6)"
    stroke-width="1"
    transform="translate(-250.8788229207,93.4649594909)"
    />
  
  <line
    x1="270.9273543407846"
    y1="-103.36501265314726"
    x2="239.13275989045934"
    y2="-60.24887039849951"
    stroke="hsla(0,50%,50%,0.6)"
    stroke-width="1"
    transform="translate(-250.8788229207,93.4649594909)"
    />
  
  <line
    x1="272.43689404802757"
    y1="-93.37691442581752"
    x2="244.8815788577457"
    y2="-56.00959113845615"
    stroke="hsla(0,50%,50%,0.6)"
    stroke-width="1"
    transform="translate(-250.8788229207,93.4649594909)"
    />
  
</svg>
