<?xml version="1.0"?>
<!DOCTYPE svg PUBLIC "-//W3C//DTD SVG 1.1//EN"
  "http://www.w3.org/Graphics/SVG/1.1/DTD/svg11.dtd">
<svg
  width="240"
  height="240"
  viewBox="-500 -500 1000 1000" xmlns="http://www.w3.org/2000/svg" version="1.1">
  <rect
    x="0"
    y="0"
    width="100"
    height="100"
    fill="hsla(206,100%,53%,0.3)"
    stroke="hsl(206,100%,53%)"
    stroke-width="3"
    transform="" />
  
  <path
    d="M 
      126.3530887287
      179.5148000654
      L
    
      132.5667284113
      187.3500206682
      L
    
      97.3082356987
      215.3113992401
      L
    
      125.2696142705
      250.5698919526
      L
    
      117.4343936677
      256.7835316353
      L
    
      89.4730150959
      221.5250389227
      L
    
      91.0945960161
      207.4761786373
      z
    "
    fill="hsla(0,0%,50%,0.3)"
    stroke="hsla(0,0%,50%,1)"
    stroke-width="1"
    transform="translate(-111.0198717536,-218.1491658504)"
    />
  
  
  <line
    x1="126.35308872871161"
    y1="179.5148000654994"
    x2="132.56672841133553"
    y2="187.35002066829807"
    stroke="hsla(0,50%,50%,0.6)"
    stroke-width="1"
    transform="translate(-111.0198717536,-218.1491658504)"
    />
  
  <line
    x1="91.09459601611748"
    y1="207.4761786373071"
    x2="89.47301509594271"
    y2="221.52503892272972"
    stroke="hsla(0,50%,50%,0.6)"
    stroke-width="1"
    transform="translate(-111.0198717536,-218.1491658504)"
    />
  
  <line
    x1="91.09459601611748"
    y1="207.4761786373071"
    x2="125.26961427054913"
    y2="250.56989195269992"
    stroke="hsla(0,50%,50%,0.6)"
    stroke-width="1"
    transform="translate(-111.0198717536,-218.1491658504)"
    />
  
  <line
    x1="89.47301509594271"
    y1="221.52503892272972"
    x2="117.43439366775043"
    y2="256.7835316353238"
    stroke="hsla(0,50%,50%,0.6)"
    stroke-width="1"
    transform="translate(-111.0198717536,-218.1491658504)"
    />
  
  <line
    x1="126.35308872871161"
    y1="179.5148000654994"
    x2="91.09459601611748"
    y2="207.4761786373071"
    stroke="hsla(0,50%,50%,0.6)"
    stroke-width="1"
    transform="translate(-111.0198717536,-218.1491658504)"
    />
  
  <line
    x1="132.56672841133553"
    y1="187.35002066829807"
    x2="89.47301509594271"
    y2="221.52503892272972"
    stroke="hsla(0,50%,50%,0.6)"
    stroke-width="1"
    transform="translate(-111.0198717536,-218.1491658504)"
    />
  
  <line
    x1="125.26961427054913"
    y1="250.56989195269992"
    x2="117.43439366775043"
    y2="256.7835316353238"
    stroke="hsla(0,50%,50%,0.6)"
    stroke-width="1"
    transform="translate(-111.0198717536,-218.1491658504)"
    />
  
</svg>
