<?xml version="1.0"?>
<!DOCTYPE svg PUBLIC "-//W3C//DTD SVG 1.1//EN"
  "http://www.w3.org/Graphics/SVG/1.1/DTD/svg11.dtd">
<svg
  width="240"
  height="240"
  viewBox="-50 -50 200 200" xmlns="http://www.w3.org/2000/svg" version="1.1">
  <rect
    x="0"
    y="0"
    width="100"
    height="100"
    fill="hsla(206,100%,53%,0.3)"
    stroke="hsl(206,100%,53%)"
    stroke-width="3"
    transform="" />
  
  <path
    d="M 
      67.8703338621
      -167.9654403555
      L
    
      76.2732045852
      -164.2765641393
      L
    
      75.3401881616
      -162.1512511903
      L
    
      120.9166451272
      -126.6766446383
      L
    
      117.6458860297
      -120.5109479472
      L
    
      25.9132874411
      -97.5777983000
      L
    
      9.7963197375
      -107.3112889308
      L
    
      14.7227099540
      -118.3595460035
      L
    
      30.3882794126
      -119.6953697557
      L
    
      31.1666045522
      -127.4831711763
      L
    
      29.1888857704
      -128.4310973898
      L
    
      31.8073240567
      -133.8941118144
      L
    
      45.3056217231
      -130.1106098418
      z
    "
    fill="hsla(0,0%,50%,0.3)"
    stroke="hsla(0,0%,50%,1)"
    stroke-width="1"
    transform="translate(-37.9784372604,129.8791689695) scale(1,-1) translate(50,-110)"
    />
  
  
  <line
    x1="67.87033386213048"
    y1="-167.96544035556707"
    x2="76.27320458523837"
    y2="-164.27656413937063"
    stroke="hsla(0,50%,50%,0.6)"
    stroke-width="1"
    transform="translate(-37.9784372604,129.8791689695) scale(1,-1) translate(50,-110)"
    />
  
  <line
    x1="98.46910711810717"
    y1="-133.96781732316296"
    x2="120.91664512722794"
    y2="-126.6766446383855"
    stroke="hsla(0,50%,50%,0.6)"
    stroke-width="1"
    transform="translate(-37.9784372604,129.8791689695) scale(1,-1) translate(50,-110)"
    />
  
  <line
    x1="67.87033386213048"
    y1="-167.96544035556707"
    x2="120.91664512722794"
    y2="-126.6766446383855"
    stroke="hsla(0,50%,50%,0.6)"
    stroke-width="1"
    transform="translate(-37.9784372604,129.8791689695) scale(1,-1) translate(50,-110)"
    />
  
  <line
    x1="108.92119110789885"
    y1="-126.3919746290299"
    x2="117.64588602971772"
    y2="-120.51094794722"
    stroke="hsla(0,50%,50%,0.6)"
    stroke-width="1"
    transform="translate(-37.9784372604,129.8791689695) scale(1,-1) translate(50,-110)"
    />
  
  <line
    x1="31.807324056703646"
    y1="-133.89411181440832"
    x2="97.51192389881336"
    y2="-115.47745741449391"
    stroke="hsla(0,50%,50%,0.6)"
    stroke-width="1"
    transform="translate(-37.9784372604,129.8791689695) scale(1,-1) translate(50,-110)"
    />
  
  <line
    x1="108.92119110789885"
    y1="-126.3919746290299"
    x2="14.722709954007057"
    y2="-118.35954600350426"
    stroke="hsla(0,50%,50%,0.6)"
    stroke-width="1"
    transform="translate(-37.9784372604,129.8791689695) scale(1,-1) translate(50,-110)"
    />
  
  <line
    x1="29.188885770418185"
    y1="-128.43109738984003"
    x2="70.37122893372576"
    y2="-108.69228367322202"
    stroke="hsla(0,50%,50%,0.6)"
    stroke-width="1"
    transform="translate(-37.9784372604,129.8791689695) scale(1,-1) translate(50,-110)"
    />
  
  <line
    x1="81.67408436488695"
    y1="-124.06857793001339"
    x2="92.01706802100385"
    y2="-114.10374344504154"
    stroke="hsla(0,50%,50%,0.6)"
    stroke-width="1"
    transform="translate(-37.9784372604,129.8791689695) scale(1,-1) translate(50,-110)"
    />
  
  <line
    x1="29.159021706367923"
    y1="-119.59054933122495"
    x2="49.590954878412724"
    y2="-103.49721515939376"
    stroke="hsla(0,50%,50%,0.6)"
    stroke-width="1"
    transform="translate(-37.9784372604,129.8791689695) scale(1,-1) translate(50,-110)"
    />
  
  <line
    x1="117.64588602971772"
    y1="-120.51094794722"
    x2="25.91328744115463"
    y2="-97.57779830007924"
    stroke="hsla(0,50%,50%,0.6)"
    stroke-width="1"
    transform="translate(-37.9784372604,129.8791689695) scale(1,-1) translate(50,-110)"
    />
  
  <line
    x1="9.796319737539001"
    y1="-107.31128893087326"
    x2="25.91328744115463"
    y2="-97.57779830007924"
    stroke="hsla(0,50%,50%,0.6)"
    stroke-width="1"
    transform="translate(-37.9784372604,129.8791689695) scale(1,-1) translate(50,-110)"
    />
  
  <line
    x1="18.770406777496014"
    y1="-118.70469844581727"
    x2="24.06239048047935"
    y2="-113.93538134472935"
    stroke="hsla(0,50%,50%,0.6)"
    stroke-width="1"
    transform="translate(-37.9784372604,129.8791689695) scale(1,-1) translate(50,-110)"
    />
  
  <line
    x1="14.722709954007057"
    y1="-118.35954600350426"
    x2="28.235844489097612"
    y2="-98.15843756206498"
    stroke="hsla(0,50%,50%,0.6)"
    stroke-width="1"
    transform="translate(-37.9784372604,129.8791689695) scale(1,-1) translate(50,-110)"
    />
  
  <line
    x1="29.159021706367923"
    y1="-119.59054933122495"
    x2="24.06239048047935"
    y2="-113.93538134472935"
    stroke="hsla(0,50%,50%,0.6)"
    stroke-width="1"
    transform="translate(-37.9784372604,129.8791689695) scale(1,-1) translate(50,-110)"
    />
  
  <line
    x1="18.770406777496014"
    y1="-118.70469844581727"
    x2="9.796319737539001"
    y2="-107.31128893087326"
    stroke="hsla(0,50%,50%,0.6)"
    stroke-width="1"
    transform="translate(-37.9784372604,129.8791689695) scale(1,-1) translate(50,-110)"
    />
  
  <line
    x1="67.87033386213048"
    y1="-167.96544035556707"
    x2="25.91328744115463"
    y2="-97.57779830007924"
    stroke="hsla(0,50%,50%,0.6)"
    stroke-width="1"
    transform="translate(-37.9784372604,129.8791689695) scale(1,-1) translate(50,-110)"
    />
  
  <line
    x1="14.722709954007057"
    y1="-118.35954600350426"
    x2="9.796319737539001"
    y2="-107.31128893087326"
    stroke="hsla(0,50%,50%,0.6)"
    stroke-width="1"
    transform="translate(-37.9784372604,129.8791689695) scale(1,-1) translate(50,-110)"
    />
  
  <line
    x1="31.807324056703646"
    y1="-133.89411181440832"
    x2="29.188885770418185"
    y2="-128.43109738984003"
    stroke="hsla(0,50%,50%,0.6)"
    stroke-width="1"
    transform="translate(-37.9784372604,129.8791689695) scale(1,-1) translate(50,-110)"
    />
  
  <line
    x1="108.92119110789885"
    y1="-126.3919746290299"
    x2="97.51192389881336"
    y2="-115.47745741449391"
    stroke="hsla(0,50%,50%,0.6)"
    stroke-width="1"
    transform="translate(-37.9784372604,129.8791689695) scale(1,-1) translate(50,-110)"
    />
  
  <line
    x1="81.67408436488695"
    y1="-124.06857793001339"
    x2="70.37122893372576"
    y2="-108.69228367322202"
    stroke="hsla(0,50%,50%,0.6)"
    stroke-width="1"
    transform="translate(-37.9784372604,129.8791689695) scale(1,-1) translate(50,-110)"
    />
  
  <line
    x1="76.27320458523837"
    y1="-164.27656413937063"
    x2="49.590954878412724"
    y2="-103.49721515939376"
    stroke="hsla(0,50%,50%,0.6)"
    stroke-width="1"
    transform="translate(-37.9784372604,129.8791689695) scale(1,-1) translate(50,-110)"
    />
  
  <line
    x1="31.807324056703646"
    y1="-133.89411181440832"
    x2="28.235844489097612"
    y2="-98.15843756206498"
    stroke="hsla(0,50%,50%,0.6)"
    stroke-width="1"
    transform="translate(-37.9784372604,129.8791689695) scale(1,-1) translate(50,-110)"
    />
  
  <line
    x1="98.46910711810717"
    y1="-133.96781732316296"
    x2="92.01706802100385"
    y2="-114.10374344504154"
    stroke="hsla(0,50%,50%,0.6)"
    stroke-width="1"
    transform="translate(-37.9784372604,129.8791689695) scale(1,-1) translate(50,-110)"
    />
  
  <line
    x1="120.91664512722794"
    y1="-126.6766446383855"
    x2="117.64588602971772"
    y2="-120.51094794722"
    stroke="hsla(0,50%,50%,0.6)"
    stroke-width="1"
    transform="translate(-37.9784372604,129.8791689695) scale(1,-1) translate(50,-110)"
    />
  
</svg>
