<?xml version="1.0"?>
<!DOCTYPE svg PUBLIC "-//W3C//DTD SVG 1.1//EN"
  "http://www.w3.org/Graphics/SVG/1.1/DTD/svg11.dtd">
<svg
  width="240"
  height="240"
  viewBox="-50 -50 200 200" xmlns="http://www.w3.org/2000/svg" version="1.1">
  <rect
    x="0"
    y="0"
    width="100"
    height="100"
    fill="hsla(206,100%,53%,0.3)"
    stroke="hsl(206,100%,53%)"
    stroke-width="3"
    transform="" />
  
  <path
    d="M 
      0
      0
      L
    
      18.75
      0
      L
    
      31.25
      12.5
      L
    
      31.25
      81.25
      L
    
      18.75
      81.25
      L
    
      18.75
      12.5
      L
    
      0
      12.5
      z
    "
    fill="hsla(0,0%,50%,0.3)"
    stroke="hsla(0,0%,50%,1)"
    stroke-width="1"
    transform="translate(-10.25390625,-25) scale(1,-1) translate(50,-110)"
    />
  
  
  <line
    x1="18.75"
    y1="0"
    x2="31.25"
    y2="12.5"
    stroke="hsla(0,50%,50%,0.6)"
    stroke-width="1"
    transform="translate(-10.25390625,-25) scale(1,-1) translate(50,-110)"
    />
  
  <line
    x1="0"
    y1="0"
    x2="18.75"
    y2="0"
    stroke="hsla(0,50%,50%,0.6)"
    stroke-width="1"
    transform="translate(-10.25390625,-25) scale(1,-1) translate(50,-110)"
    />
  
  <line
    x1="0"
    y1="0"
    x2="0"
    y2="12.5"
    stroke="hsla(0,50%,50%,0.6)"
    stroke-width="1"
    transform="translate(-10.25390625,-25) scale(1,-1) translate(50,-110)"
    />
  
  <line
    x1="18.75"
    y1="0"
    x2="18.75"
    y2="81.25"
    stroke="hsla(0,50%,50%,0.6)"
    stroke-width="1"
    transform="translate(-10.25390625,-25) scale(1,-1) translate(50,-110)"
    />
  
  <line
    x1="31.25"
    y1="12.5"
    x2="31.25"
    y2="81.25"
    stroke="hsla(0,50%,50%,0.6)"
    stroke-width="1"
    transform="translate(-10.25390625,-25) scale(1,-1) translate(50,-110)"
    />
  
  <line
    x1="0"
    y1="12.5"
    x2="31.25"
    y2="12.5"
    stroke="hsla(0,50%,50%,0.6)"
    stroke-width="1"
    transform="translate(-10.25390625,-25) scale(1,-1) translate(50,-110)"
    />
  
  <line
    x1="18.75"
    y1="81.25"
    x2="31.25"
    y2="81.25"
    stroke="hsla(0,50%,50%,0.6)"
    stroke-width="1"
    transform="translate(-10.25390625,-25) scale(1,-1) translate(50,-110)"
    />
  
</svg>
