<?xml version="1.0"?>
<!DOCTYPE svg PUBLIC "-//W3C//DTD SVG 1.1//EN"
  "http://www.w3.org/Graphics/SVG/1.1/DTD/svg11.dtd">
<svg
  width="240"
  height="240"
  viewBox="-50 -50 200 200" xmlns="http://www.w3.org/2000/svg" version="1.1">
  <rect
    x="0"
    y="0"
    width="100"
    height="100"
    fill="hsla(206,100%,53%,0.3)"
    stroke="hsl(206,100%,53%)"
    stroke-width="3"
    transform="" />
  
  <path
    d="M 
      10.4128561297
      19.3747813343
      L
    
      10.4511913269
      20
      L
    
      12.3011363636
      20
      L
    
      23.5635413308
      49.1497540327
      L
    
      48.7575132053
      69.3633662520
      L
    
      25.2901058422
      98.6128242241
      L
    
      15.7678500465
      106.7107649846
      L
    
      2.7014966488
      101.1492516755
      L
    
      0.2160028734
      20
      z
    "
    fill="hsla(0,0%,50%,0.3)"
    stroke="hsla(0,0%,50%,1)"
    stroke-width="1"
    transform="translate(-6.4044439040,-58.0350878977) scale(1,-1) translate(50,-110)"
    />
  
  
  <line
    x1="12.301136363636363"
    y1="20"
    x2="37.023809523809526"
    y2="83.98809523809524"
    stroke="hsla(0,50%,50%,0.6)"
    stroke-width="1"
    transform="translate(-6.4044439040,-58.0350878977) scale(1,-1) translate(50,-110)"
    />
  
  <line
    x1="10.412856129796364"
    y1="19.37478133438834"
    x2="15.767850046553205"
    y2="106.71076498460836"
    stroke="hsla(0,50%,50%,0.6)"
    stroke-width="1"
    transform="translate(-6.4044439040,-58.0350878977) scale(1,-1) translate(50,-110)"
    />
  
  <line
    x1="9.758235909313443"
    y1="38.07348976802183"
    x2="25.290105842284905"
    y2="98.612824224103"
    stroke="hsla(0,50%,50%,0.6)"
    stroke-width="1"
    transform="translate(-6.4044439040,-58.0350878977) scale(1,-1) translate(50,-110)"
    />
  
  <line
    x1="0.21600287347331865"
    y1="20"
    x2="2.7014966488364403"
    y2="101.14925167558178"
    stroke="hsla(0,50%,50%,0.6)"
    stroke-width="1"
    transform="translate(-6.4044439040,-58.0350878977) scale(1,-1) translate(50,-110)"
    />
  
  <line
    x1="12.301136363636363"
    y1="20"
    x2="0.5431177520875792"
    y2="30.68002176252397"
    stroke="hsla(0,50%,50%,0.6)"
    stroke-width="1"
    transform="translate(-6.4044439040,-58.0350878977) scale(1,-1) translate(50,-110)"
    />
  
  <line
    x1="0.5431177520875792"
    y1="30.68002176252397"
    x2="48.75751320533414"
    y2="69.36336625208747"
    stroke="hsla(0,50%,50%,0.6)"
    stroke-width="1"
    transform="translate(-6.4044439040,-58.0350878977) scale(1,-1) translate(50,-110)"
    />
  
  <line
    x1="10.412856129796364"
    y1="19.37478133438834"
    x2="0.21600287347331865"
    y2="20"
    stroke="hsla(0,50%,50%,0.6)"
    stroke-width="1"
    transform="translate(-6.4044439040,-58.0350878977) scale(1,-1) translate(50,-110)"
    />
  
  <line
    x1="0.21600287347331865"
    y1="20"
    x2="12.301136363636363"
    y2="20"
    stroke="hsla(0,50%,50%,0.6)"
    stroke-width="1"
    transform="translate(-6.4044439040,-58.0350878977) scale(1,-1) translate(50,-110)"
    />
  
  <line
    x1="21.71875"
    y1="44.375"
    x2="1.7769639616282085"
    y2="70.9640480511624"
    stroke="hsla(0,50%,50%,0.6)"
    stroke-width="1"
    transform="translate(-6.4044439040,-58.0350878977) scale(1,-1) translate(50,-110)"
    />
  
  <line
    x1="1.7769639616282085"
    y1="70.9640480511624"
    x2="25.290105842284905"
    y2="98.612824224103"
    stroke="hsla(0,50%,50%,0.6)"
    stroke-width="1"
    transform="translate(-6.4044439040,-58.0350878977) scale(1,-1) translate(50,-110)"
    />
  
  <line
    x1="9.758235909313443"
    y1="38.07348976802183"
    x2="0.8396524453265043"
    y2="40.3616265569964"
    stroke="hsla(0,50%,50%,0.6)"
    stroke-width="1"
    transform="translate(-6.4044439040,-58.0350878977) scale(1,-1) translate(50,-110)"
    />
  
  <line
    x1="0.8396524453265043"
    y1="40.3616265569964"
    x2="21.71875"
    y2="44.375"
    stroke="hsla(0,50%,50%,0.6)"
    stroke-width="1"
    transform="translate(-6.4044439040,-58.0350878977) scale(1,-1) translate(50,-110)"
    />
  
  <line
    x1="48.75751320533414"
    y1="69.36336625208747"
    x2="25.290105842284905"
    y2="98.612824224103"
    stroke="hsla(0,50%,50%,0.6)"
    stroke-width="1"
    transform="translate(-6.4044439040,-58.0350878977) scale(1,-1) translate(50,-110)"
    />
  
  <line
    x1="25.290105842284905"
    y1="98.612824224103"
    x2="15.767850046553205"
    y2="106.71076498460836"
    stroke="hsla(0,50%,50%,0.6)"
    stroke-width="1"
    transform="translate(-6.4044439040,-58.0350878977) scale(1,-1) translate(50,-110)"
    />
  
  <line
    x1="37.023809523809526"
    y1="83.98809523809524"
    x2="2.7014966488364403"
    y2="101.14925167558178"
    stroke="hsla(0,50%,50%,0.6)"
    stroke-width="1"
    transform="translate(-6.4044439040,-58.0350878977) scale(1,-1) translate(50,-110)"
    />
  
  <line
    x1="2.7014966488364403"
    y1="101.14925167558178"
    x2="15.767850046553205"
    y2="106.71076498460836"
    stroke="hsla(0,50%,50%,0.6)"
    stroke-width="1"
    transform="translate(-6.4044439040,-58.0350878977) scale(1,-1) translate(50,-110)"
    />
  
  <line
    x1="37.023809523809526"
    y1="83.98809523809524"
    x2="2.4730212796434152"
    y2="93.68972575759491"
    stroke="hsla(0,50%,50%,0.6)"
    stroke-width="1"
    transform="translate(-6.4044439040,-58.0350878977) scale(1,-1) translate(50,-110)"
    />
  
  <line
    x1="2.4730212796434152"
    y1="93.68972575759491"
    x2="25.290105842284905"
    y2="98.612824224103"
    stroke="hsla(0,50%,50%,0.6)"
    stroke-width="1"
    transform="translate(-6.4044439040,-58.0350878977) scale(1,-1) translate(50,-110)"
    />
  
</svg>
