<?xml version="1.0"?>
<!DOCTYPE svg PUBLIC "-//W3C//DTD SVG 1.1//EN"
  "http://www.w3.org/Graphics/SVG/1.1/DTD/svg11.dtd">
<svg
  width="240"
  height="240"
  viewBox="-50 -50 200 200" xmlns="http://www.w3.org/2000/svg" version="1.1">
  <rect
    x="0"
    y="0"
    width="100"
    height="100"
    fill="hsla(206,100%,53%,0.3)"
    stroke="hsl(206,100%,53%)"
    stroke-width="3"
    transform="" />
  
  <path
    d="M 
      -69.746875
      26.5375
      L
    
      -64.1505208333
      45.725
      L
    
      -84.8328125
      100.72109375
      L
    
      -101.43115
      102.452575
      L
    
      -121.2728599570
      82.1445558739
      L
    
      -114.4389367674
      71.9558879198
      L
    
      -109.9816132310
      74.9455826293
      L
    
      -104.4989583333
      71.45
      L
    
      -89.809375
      32.3890625
      z
    "
    fill="hsla(0,0%,50%,0.3)"
    stroke="hsla(0,0%,50%,1)"
    stroke-width="1"
    transform="translate(98.4899939277,-53.1594698646) scale(1,-1) translate(50,-110)"
    />
  
  
  <line
    x1="-114.4389367674821"
    y1="71.95588791984582"
    x2="-121.27285995702006"
    y2="82.1445558739255"
    stroke="hsla(0,50%,50%,0.6)"
    stroke-width="1"
    transform="translate(98.4899939277,-53.1594698646) scale(1,-1) translate(50,-110)"
    />
  
  <line
    x1="-110.5375"
    y1="75.3"
    x2="-115.3797987616099"
    y2="88.17611261609908"
    stroke="hsla(0,50%,50%,0.6)"
    stroke-width="1"
    transform="translate(98.4899939277,-53.1594698646) scale(1,-1) translate(50,-110)"
    />
  
  <line
    x1="-89.809375"
    y1="32.3890625"
    x2="-106.653125"
    y2="77.178125"
    stroke="hsla(0,50%,50%,0.6)"
    stroke-width="1"
    transform="translate(98.4899939277,-53.1594698646) scale(1,-1) translate(50,-110)"
    />
  
  <line
    x1="-98.8673132325179"
    y1="82.40036208015417"
    x2="-107.88589720630372"
    y2="95.8461318051576"
    stroke="hsla(0,50%,50%,0.6)"
    stroke-width="1"
    transform="translate(98.4899939277,-53.1594698646) scale(1,-1) translate(50,-110)"
    />
  
  <line
    x1="-77.6"
    y1="54.3"
    x2="-82"
    y2="66"
    stroke="hsla(0,50%,50%,0.6)"
    stroke-width="1"
    transform="translate(98.4899939277,-53.1594698646) scale(1,-1) translate(50,-110)"
    />
  
  <line
    x1="-64.15052083333333"
    y1="45.725"
    x2="-84.8328125"
    y2="100.72109375"
    stroke="hsla(0,50%,50%,0.6)"
    stroke-width="1"
    transform="translate(98.4899939277,-53.1594698646) scale(1,-1) translate(50,-110)"
    />
  
  <line
    x1="-98.8673132325179"
    y1="82.40036208015417"
    x2="-101.43115"
    y2="102.452575"
    stroke="hsla(0,50%,50%,0.6)"
    stroke-width="1"
    transform="translate(98.4899939277,-53.1594698646) scale(1,-1) translate(50,-110)"
    />
  
  <line
    x1="-77.6"
    y1="54.3"
    x2="-79.3775"
    y2="77.67"
    stroke="hsla(0,50%,50%,0.6)"
    stroke-width="1"
    transform="translate(98.4899939277,-53.1594698646) scale(1,-1) translate(50,-110)"
    />
  
  <line
    x1="-64.15052083333333"
    y1="45.725"
    x2="-121.27285995702006"
    y2="82.1445558739255"
    stroke="hsla(0,50%,50%,0.6)"
    stroke-width="1"
    transform="translate(98.4899939277,-53.1594698646) scale(1,-1) translate(50,-110)"
    />
  
  <line
    x1="-69.746875"
    y1="26.5375"
    x2="-89.809375"
    y2="32.3890625"
    stroke="hsla(0,50%,50%,0.6)"
    stroke-width="1"
    transform="translate(98.4899939277,-53.1594698646) scale(1,-1) translate(50,-110)"
    />
  
  <line
    x1="-75.15052083333333"
    y1="74.975"
    x2="-107.88589720630372"
    y2="95.8461318051576"
    stroke="hsla(0,50%,50%,0.6)"
    stroke-width="1"
    transform="translate(98.4899939277,-53.1594698646) scale(1,-1) translate(50,-110)"
    />
  
  <line
    x1="-69.746875"
    y1="26.5375"
    x2="-64.15052083333333"
    y2="45.725"
    stroke="hsla(0,50%,50%,0.6)"
    stroke-width="1"
    transform="translate(98.4899939277,-53.1594698646) scale(1,-1) translate(50,-110)"
    />
  
  <line
    x1="-87.746875"
    y1="31.7875"
    x2="-75.15052083333333"
    y2="74.975"
    stroke="hsla(0,50%,50%,0.6)"
    stroke-width="1"
    transform="translate(98.4899939277,-53.1594698646) scale(1,-1) translate(50,-110)"
    />
  
  <line
    x1="-70.515625"
    y1="62.650390625"
    x2="-82"
    y2="66"
    stroke="hsla(0,50%,50%,0.6)"
    stroke-width="1"
    transform="translate(98.4899939277,-53.1594698646) scale(1,-1) translate(50,-110)"
    />
  
  <line
    x1="-98.8673132325179"
    y1="82.40036208015417"
    x2="-115.3797987616099"
    y2="88.17611261609908"
    stroke="hsla(0,50%,50%,0.6)"
    stroke-width="1"
    transform="translate(98.4899939277,-53.1594698646) scale(1,-1) translate(50,-110)"
    />
  
  <line
    x1="-89.809375"
    y1="32.3890625"
    x2="-70.515625"
    y2="62.650390625"
    stroke="hsla(0,50%,50%,0.6)"
    stroke-width="1"
    transform="translate(98.4899939277,-53.1594698646) scale(1,-1) translate(50,-110)"
    />
  
  <line
    x1="-74.7265625"
    y1="73.84765625"
    x2="-106.653125"
    y2="77.178125"
    stroke="hsla(0,50%,50%,0.6)"
    stroke-width="1"
    transform="translate(98.4899939277,-53.1594698646) scale(1,-1) translate(50,-110)"
    />
  
  <line
    x1="-82"
    y1="66"
    x2="-74.7265625"
    y2="73.84765625"
    stroke="hsla(0,50%,50%,0.6)"
    stroke-width="1"
    transform="translate(98.4899939277,-53.1594698646) scale(1,-1) translate(50,-110)"
    />
  
  <line
    x1="-95.515625"
    y1="47.5625"
    x2="-68.6421875"
    y2="57.66875"
    stroke="hsla(0,50%,50%,0.6)"
    stroke-width="1"
    transform="translate(98.4899939277,-53.1594698646) scale(1,-1) translate(50,-110)"
    />
  
  <line
    x1="-110.5375"
    y1="75.3"
    x2="-79.3775"
    y2="77.67"
    stroke="hsla(0,50%,50%,0.6)"
    stroke-width="1"
    transform="translate(98.4899939277,-53.1594698646) scale(1,-1) translate(50,-110)"
    />
  
  <line
    x1="-106.653125"
    y1="77.178125"
    x2="-84.8328125"
    y2="100.72109375"
    stroke="hsla(0,50%,50%,0.6)"
    stroke-width="1"
    transform="translate(98.4899939277,-53.1594698646) scale(1,-1) translate(50,-110)"
    />
  
  <line
    x1="-84.8328125"
    y1="100.72109375"
    x2="-101.43115"
    y2="102.452575"
    stroke="hsla(0,50%,50%,0.6)"
    stroke-width="1"
    transform="translate(98.4899939277,-53.1594698646) scale(1,-1) translate(50,-110)"
    />
  
  <line
    x1="-121.27285995702006"
    y1="82.1445558739255"
    x2="-101.43115"
    y2="102.452575"
    stroke="hsla(0,50%,50%,0.6)"
    stroke-width="1"
    transform="translate(98.4899939277,-53.1594698646) scale(1,-1) translate(50,-110)"
    />
  
  <line
    x1="-114.4389367674821"
    y1="71.95588791984582"
    x2="-98.8673132325179"
    y2="82.40036208015417"
    stroke="hsla(0,50%,50%,0.6)"
    stroke-width="1"
    transform="translate(98.4899939277,-53.1594698646) scale(1,-1) translate(50,-110)"
    />
  
</svg>
