<?xml version="1.0"?>
<!DOCTYPE svg PUBLIC "-//W3C//DTD SVG 1.1//EN"
  "http://www.w3.org/Graphics/SVG/1.1/DTD/svg11.dtd">
<svg
  width="240"
  height="240"
  viewBox="-500 -500 1000 1000" xmlns="http://www.w3.org/2000/svg" version="1.1">
  <rect
    x="0"
    y="0"
    width="100"
    height="100"
    fill="hsla(206,100%,53%,0.3)"
    stroke="hsl(206,100%,53%)"
    stroke-width="3"
    transform="" />
  
  <path
    d="M 
      142.7389417430
      107.6503684715
      L
    
      155
      128.6057692307
      L
    
      155
      150
      L
    
      141.0517132944
      150
      L
    
      116.8369641188
      187.1411875032
      L
    
      114.1376607666
      188.7205567568
      L
    
      110.8108108108
      193.6148648648
      L
    
      108.4802732188
      192.0307085932
      L
    
      111.0819441577
      115.0925212792
      z
    "
    fill="hsla(0,0%,50%,0.3)"
    stroke="hsla(0,0%,50%,1)"
    stroke-width="1"
    transform="translate(-131.7401366094,-150.6326166681)"
    />
  
  
  <line
    x1="142.73894174300335"
    y1="107.65036847152189"
    x2="155"
    y2="128.60576923076923"
    stroke="hsla(0,50%,50%,0.6)"
    stroke-width="1"
    transform="translate(-131.7401366094,-150.6326166681)"
    />
  
  <line
    x1="117.27641161245269"
    y1="113.63628168371729"
    x2="139.73478564754555"
    y2="152.01993653976442"
    stroke="hsla(0,50%,50%,0.6)"
    stroke-width="1"
    transform="translate(-131.7401366094,-150.6326166681)"
    />
  
  <line
    x1="155"
    y1="128.60576923076923"
    x2="155"
    y2="150"
    stroke="hsla(0,50%,50%,0.6)"
    stroke-width="1"
    transform="translate(-131.7401366094,-150.6326166681)"
    />
  
  <line
    x1="111.0819441577209"
    y1="115.09252127929874"
    x2="108.48027321885495"
    y2="192.0307085932086"
    stroke="hsla(0,50%,50%,0.6)"
    stroke-width="1"
    transform="translate(-131.7401366094,-150.6326166681)"
    />
  
  <line
    x1="117.27641161245269"
    y1="113.63628168371729"
    x2="114.79189332810111"
    y2="150.33111365366923"
    stroke="hsla(0,50%,50%,0.6)"
    stroke-width="1"
    transform="translate(-131.7401366094,-150.6326166681)"
    />
  
  <line
    x1="142.73894174300335"
    y1="107.65036847152189"
    x2="139.73478564754555"
    y2="152.01993653976442"
    stroke="hsla(0,50%,50%,0.6)"
    stroke-width="1"
    transform="translate(-131.7401366094,-150.6326166681)"
    />
  
  <line
    x1="123.95322551477759"
    y1="125.04763853281239"
    x2="116.83696411886389"
    y2="187.14118750325719"
    stroke="hsla(0,50%,50%,0.6)"
    stroke-width="1"
    transform="translate(-131.7401366094,-150.6326166681)"
    />
  
  <line
    x1="111.0819441577209"
    y1="115.09252127929874"
    x2="155"
    y2="128.60576923076923"
    stroke="hsla(0,50%,50%,0.6)"
    stroke-width="1"
    transform="translate(-131.7401366094,-150.6326166681)"
    />
  
  <line
    x1="108.48027321885495"
    y1="192.0307085932086"
    x2="110.8108108108108"
    y2="193.61486486486487"
    stroke="hsla(0,50%,50%,0.6)"
    stroke-width="1"
    transform="translate(-131.7401366094,-150.6326166681)"
    />
  
  <line
    x1="155"
    y1="128.60576923076923"
    x2="116.83696411886389"
    y2="187.14118750325719"
    stroke="hsla(0,50%,50%,0.6)"
    stroke-width="1"
    transform="translate(-131.7401366094,-150.6326166681)"
    />
  
  <line
    x1="123.95322551477759"
    y1="125.04763853281239"
    x2="155"
    y2="128.60576923076923"
    stroke="hsla(0,50%,50%,0.6)"
    stroke-width="1"
    transform="translate(-131.7401366094,-150.6326166681)"
    />
  
  <line
    x1="155"
    y1="128.60576923076923"
    x2="110.8108108108108"
    y2="193.61486486486487"
    stroke="hsla(0,50%,50%,0.6)"
    stroke-width="1"
    transform="translate(-131.7401366094,-150.6326166681)"
    />
  
  <line
    x1="142.73894174300335"
    y1="107.65036847152189"
    x2="111.0819441577209"
    y2="115.09252127929874"
    stroke="hsla(0,50%,50%,0.6)"
    stroke-width="1"
    transform="translate(-131.7401366094,-150.6326166681)"
    />
  
  <line
    x1="121.10672095641212"
    y1="149.8850581209903"
    x2="139.73478564754555"
    y2="152.01993653976442"
    stroke="hsla(0,50%,50%,0.6)"
    stroke-width="1"
    transform="translate(-131.7401366094,-150.6326166681)"
    />
  
  <line
    x1="109.90154498135102"
    y1="150"
    x2="139.73478564754555"
    y2="152.01993653976442"
    stroke="hsla(0,50%,50%,0.6)"
    stroke-width="1"
    transform="translate(-131.7401366094,-150.6326166681)"
    />
  
  <line
    x1="109.90154498135102"
    y1="150"
    x2="155"
    y2="150"
    stroke="hsla(0,50%,50%,0.6)"
    stroke-width="1"
    transform="translate(-131.7401366094,-150.6326166681)"
    />
  
  <line
    x1="116.83696411886389"
    y1="187.14118750325719"
    x2="108.48027321885495"
    y2="192.0307085932086"
    stroke="hsla(0,50%,50%,0.6)"
    stroke-width="1"
    transform="translate(-131.7401366094,-150.6326166681)"
    />
  
</svg>
