<?xml version="1.0"?>
<!DOCTYPE svg PUBLIC "-//W3C//DTD SVG 1.1//EN"
  "http://www.w3.org/Graphics/SVG/1.1/DTD/svg11.dtd">
<svg
  width="240"
  height="240"
  viewBox="-50 -50 200 200" xmlns="http://www.w3.org/2000/svg" version="1.1">
  <rect
    x="0"
    y="0"
    width="100"
    height="100"
    fill="hsla(206,100%,53%,0.3)"
    stroke="hsl(206,100%,53%)"
    stroke-width="3"
    transform="" />
  
  <path
    d="M 
      150.1835269671
      102.6376452253
      L
    
      158.2061702936
      108.6546277202
      L
    
      159.4084322294
      109.0650735448
      L
    
      159.2749097724
      109.4561823293
      L
    
      170
      117.5
      L
    
      145.2734375
      150.46875
      L
    
      102.5758961556
      135.8920366852
      L
    
      102.5902950911
      135.3405476272
      z
    "
    fill="hsla(0,0%,50%,0.3)"
    stroke="hsla(0,0%,50%,1)"
    stroke-width="1"
    transform="translate(-115.6006934658,-134.5709950892) scale(1,-1) translate(50,-110)"
    />
  
  
  <line
    x1="150.18352696713845"
    y1="102.63764522535384"
    x2="155.36986230673543"
    y2="120.89469538921088"
    stroke="hsla(0,50%,50%,0.6)"
    stroke-width="1"
    transform="translate(-115.6006934658,-134.5709950892) scale(1,-1) translate(50,-110)"
    />
  
  <line
    x1="150.18352696713845"
    y1="102.63764522535384"
    x2="170"
    y2="117.5"
    stroke="hsla(0,50%,50%,0.6)"
    stroke-width="1"
    transform="translate(-115.6006934658,-134.5709950892) scale(1,-1) translate(50,-110)"
    />
  
  <line
    x1="102.59029509112793"
    y1="135.34054762723522"
    x2="102.5758961556732"
    y2="135.8920366852757"
    stroke="hsla(0,50%,50%,0.6)"
    stroke-width="1"
    transform="translate(-115.6006934658,-134.5709950892) scale(1,-1) translate(50,-110)"
    />
  
  <line
    x1="121.31233738775552"
    y1="122.47600580360837"
    x2="120.5859375"
    y2="141.71875"
    stroke="hsla(0,50%,50%,0.6)"
    stroke-width="1"
    transform="translate(-115.6006934658,-134.5709950892) scale(1,-1) translate(50,-110)"
    />
  
  <line
    x1="134.15434682249855"
    y1="113.65183134362327"
    x2="132.9296875"
    y2="146.09375"
    stroke="hsla(0,50%,50%,0.6)"
    stroke-width="1"
    transform="translate(-115.6006934658,-134.5709950892) scale(1,-1) translate(50,-110)"
    />
  
  <line
    x1="146.9963562572416"
    y1="104.82765688363817"
    x2="145.2734375"
    y2="150.46875"
    stroke="hsla(0,50%,50%,0.6)"
    stroke-width="1"
    transform="translate(-115.6006934658,-134.5709950892) scale(1,-1) translate(50,-110)"
    />
  
  <line
    x1="146.9963562572416"
    y1="104.82765688363817"
    x2="159.4084322294296"
    y2="109.06507354489523"
    stroke="hsla(0,50%,50%,0.6)"
    stroke-width="1"
    transform="translate(-115.6006934658,-134.5709950892) scale(1,-1) translate(50,-110)"
    />
  
  <line
    x1="159.4084322294296"
    y1="109.06507354489523"
    x2="145.2734375"
    y2="150.46875"
    stroke="hsla(0,50%,50%,0.6)"
    stroke-width="1"
    transform="translate(-115.6006934658,-134.5709950892) scale(1,-1) translate(50,-110)"
    />
  
  <line
    x1="134.15434682249855"
    y1="113.65183134362327"
    x2="155.36986230673543"
    y2="120.89469538921088"
    stroke="hsla(0,50%,50%,0.6)"
    stroke-width="1"
    transform="translate(-115.6006934658,-134.5709950892) scale(1,-1) translate(50,-110)"
    />
  
  <line
    x1="121.31233738775552"
    y1="122.47600580360837"
    x2="151.33129238404126"
    y2="132.72431723352653"
    stroke="hsla(0,50%,50%,0.6)"
    stroke-width="1"
    transform="translate(-115.6006934658,-134.5709950892) scale(1,-1) translate(50,-110)"
    />
  
  <line
    x1="102.59029509112793"
    y1="135.34054762723522"
    x2="145.2734375"
    y2="150.46875"
    stroke="hsla(0,50%,50%,0.6)"
    stroke-width="1"
    transform="translate(-115.6006934658,-134.5709950892) scale(1,-1) translate(50,-110)"
    />
  
  <line
    x1="102.5758961556732"
    y1="135.8920366852757"
    x2="145.2734375"
    y2="150.46875"
    stroke="hsla(0,50%,50%,0.6)"
    stroke-width="1"
    transform="translate(-115.6006934658,-134.5709950892) scale(1,-1) translate(50,-110)"
    />
  
  <line
    x1="149.59184029581343"
    y1="103.04421293891544"
    x2="120.5859375"
    y2="141.71875"
    stroke="hsla(0,50%,50%,0.6)"
    stroke-width="1"
    transform="translate(-115.6006934658,-134.5709950892) scale(1,-1) translate(50,-110)"
    />
  
  <line
    x1="160"
    y1="110"
    x2="132.9296875"
    y2="146.09375"
    stroke="hsla(0,50%,50%,0.6)"
    stroke-width="1"
    transform="translate(-115.6006934658,-134.5709950892) scale(1,-1) translate(50,-110)"
    />
  
  <line
    x1="170"
    y1="117.5"
    x2="145.2734375"
    y2="150.46875"
    stroke="hsla(0,50%,50%,0.6)"
    stroke-width="1"
    transform="translate(-115.6006934658,-134.5709950892) scale(1,-1) translate(50,-110)"
    />
  
  <line
    x1="150.24621545825775"
    y1="102.85832261162378"
    x2="149.59184029581343"
    y2="103.04421293891544"
    stroke="hsla(0,50%,50%,0.6)"
    stroke-width="1"
    transform="translate(-115.6006934658,-134.5709950892) scale(1,-1) translate(50,-110)"
    />
  
  <line
    x1="150.18352696713845"
    y1="102.63764522535384"
    x2="102.59029509112793"
    y2="135.34054762723522"
    stroke="hsla(0,50%,50%,0.6)"
    stroke-width="1"
    transform="translate(-115.6006934658,-134.5709950892) scale(1,-1) translate(50,-110)"
    />
  
  <line
    x1="155.36986230673543"
    y1="120.89469538921088"
    x2="102.5758961556732"
    y2="135.8920366852757"
    stroke="hsla(0,50%,50%,0.6)"
    stroke-width="1"
    transform="translate(-115.6006934658,-134.5709950892) scale(1,-1) translate(50,-110)"
    />
  
</svg>
