<?xml version="1.0"?>
<!DOCTYPE svg PUBLIC "-//W3C//DTD SVG 1.1//EN"
  "http://www.w3.org/Graphics/SVG/1.1/DTD/svg11.dtd">
<svg
  width="240"
  height="240"
  viewBox="-50 -50 200 200" xmlns="http://www.w3.org/2000/svg" version="1.1">
  <rect
    x="0"
    y="0"
    width="100"
    height="100"
    fill="hsla(206,100%,53%,0.3)"
    stroke="hsl(206,100%,53%)"
    stroke-width="3"
    transform="" />
  
  <path
    d="M 
      70
      -20
      L
    
      91.3333333333
      -4
      L
    
      107.9411764705
      -11.7647058823
      L
    
      122.5
      19.375
      L
    
      98.5204081632
      38.8584183673
      L
    
      25.9924316406
      38.6767578125
      L
    
      25.0066410500
      37.3485607790
      L
    
      29.4770263293
      34.0306315608
      z
    "
    fill="hsla(0,0%,50%,0.3)"
    stroke="hsla(0,0%,50%,1)"
    stroke-width="1"
    transform="translate(-37.1718754414,-33.8498470702) scale(1,-1) translate(50,-110)"
    />
  
  
  <line
    x1="70"
    y1="-20"
    x2="122.5"
    y2="19.375"
    stroke="hsla(0,50%,50%,0.6)"
    stroke-width="1"
    transform="translate(-37.1718754414,-33.8498470702) scale(1,-1) translate(50,-110)"
    />
  
  <line
    x1="107.94117647058823"
    y1="-11.764705882352942"
    x2="122.5"
    y2="19.375"
    stroke="hsla(0,50%,50%,0.6)"
    stroke-width="1"
    transform="translate(-37.1718754414,-33.8498470702) scale(1,-1) translate(50,-110)"
    />
  
  <line
    x1="62.64705882352941"
    y1="9.411764705882353"
    x2="98.5204081632653"
    y2="38.858418367346935"
    stroke="hsla(0,50%,50%,0.6)"
    stroke-width="1"
    transform="translate(-37.1718754414,-33.8498470702) scale(1,-1) translate(50,-110)"
    />
  
  <line
    x1="62.64705882352941"
    y1="9.411764705882353"
    x2="76.38840830449827"
    y2="38.802984429065745"
    stroke="hsla(0,50%,50%,0.6)"
    stroke-width="1"
    transform="translate(-37.1718754414,-33.8498470702) scale(1,-1) translate(50,-110)"
    />
  
  <line
    x1="40"
    y1="20"
    x2="48.75865051903114"
    y2="38.73378027681661"
    stroke="hsla(0,50%,50%,0.6)"
    stroke-width="1"
    transform="translate(-37.1718754414,-33.8498470702) scale(1,-1) translate(50,-110)"
    />
  
  <line
    x1="40"
    y1="20"
    x2="65.032722513089"
    y2="38.774541884816756"
    stroke="hsla(0,50%,50%,0.6)"
    stroke-width="1"
    transform="translate(-37.1718754414,-33.8498470702) scale(1,-1) translate(50,-110)"
    />
  
  <line
    x1="25.006641050021074"
    y1="37.34856077908584"
    x2="25.992431640625"
    y2="38.6767578125"
    stroke="hsla(0,50%,50%,0.6)"
    stroke-width="1"
    transform="translate(-37.1718754414,-33.8498470702) scale(1,-1) translate(50,-110)"
    />
  
  <line
    x1="62.64705882352941"
    y1="9.411764705882353"
    x2="48.75865051903114"
    y2="38.73378027681661"
    stroke="hsla(0,50%,50%,0.6)"
    stroke-width="1"
    transform="translate(-37.1718754414,-33.8498470702) scale(1,-1) translate(50,-110)"
    />
  
  <line
    x1="70"
    y1="-20"
    x2="25.992431640625"
    y2="38.6767578125"
    stroke="hsla(0,50%,50%,0.6)"
    stroke-width="1"
    transform="translate(-37.1718754414,-33.8498470702) scale(1,-1) translate(50,-110)"
    />
  
  <line
    x1="107.94117647058823"
    y1="-11.764705882352942"
    x2="40"
    y2="20"
    stroke="hsla(0,50%,50%,0.6)"
    stroke-width="1"
    transform="translate(-37.1718754414,-33.8498470702) scale(1,-1) translate(50,-110)"
    />
  
  <line
    x1="62.64705882352941"
    y1="9.411764705882353"
    x2="25.006641050021074"
    y2="37.34856077908584"
    stroke="hsla(0,50%,50%,0.6)"
    stroke-width="1"
    transform="translate(-37.1718754414,-33.8498470702) scale(1,-1) translate(50,-110)"
    />
  
  <line
    x1="82.56540576570572"
    y1="25.761748041993002"
    x2="76.38840830449827"
    y2="38.802984429065745"
    stroke="hsla(0,50%,50%,0.6)"
    stroke-width="1"
    transform="translate(-37.1718754414,-33.8498470702) scale(1,-1) translate(50,-110)"
    />
  
  <line
    x1="25.992431640625"
    y1="38.6767578125"
    x2="98.5204081632653"
    y2="38.858418367346935"
    stroke="hsla(0,50%,50%,0.6)"
    stroke-width="1"
    transform="translate(-37.1718754414,-33.8498470702) scale(1,-1) translate(50,-110)"
    />
  
  <line
    x1="82.56540576570572"
    y1="25.761748041993002"
    x2="65.032722513089"
    y2="38.774541884816756"
    stroke="hsla(0,50%,50%,0.6)"
    stroke-width="1"
    transform="translate(-37.1718754414,-33.8498470702) scale(1,-1) translate(50,-110)"
    />
  
  <line
    x1="122.5"
    y1="19.375"
    x2="98.5204081632653"
    y2="38.858418367346935"
    stroke="hsla(0,50%,50%,0.6)"
    stroke-width="1"
    transform="translate(-37.1718754414,-33.8498470702) scale(1,-1) translate(50,-110)"
    />
  
</svg>
