<?xml version="1.0"?>
<!DOCTYPE svg PUBLIC "-//W3C//DTD SVG 1.1//EN"
  "http://www.w3.org/Graphics/SVG/1.1/DTD/svg11.dtd">
<svg
  width="240"
  height="240"
  viewBox="-500 -500 1000 1000" xmlns="http://www.w3.org/2000/svg" version="1.1">
  <rect
    x="0"
    y="0"
    width="100"
    height="100"
    fill="hsla(206,100%,53%,0.3)"
    stroke="hsl(206,100%,53%)"
    stroke-width="3"
    transform="" />
  
  <path
    d="M 
      -645209.2975120888
      2496979.8411604511
      L
    
      -645212.0915898767
      2497004.6845323904
      L
    
      -645187.2482179374
      2497007.4786101783
      L
    
      -645165.1989237859
      2497035.1160599055
      L
    
      -645190.0422957253
      2497032.3219821176
      L
    
      -645192.8363735131
      2497057.1653540569
      L
    
      -645220.4738232403
      2497079.2146482084
      L
    
      -645217.6797454525
      2497054.3712762690
      L
    
      -645242.5231173918
      2497051.5771984812
      L
    
      -645264.5724115432
      2497023.9397487540
      L
    
      -645239.7290396039
      2497026.7338265418
      L
    
      -645236.9349618160
      2497001.8904546025
      z
    "
    fill="hsla(0,0%,50%,0.3)"
    stroke="hsla(0,0%,50%,1)"
    stroke-width="1"
    transform="translate(645214.8856676646,-2497029.5279043297)"
    />
  
  
  <line
    x1="-645236.9349618161"
    y1="2497001.8904546024"
    x2="-645242.5231173919"
    y2="2497051.577198481"
    stroke="hsla(0,50%,50%,0.6)"
    stroke-width="1"
    transform="translate(645214.8856676646,-2497029.5279043297)"
    />
  
  <line
    x1="-645209.2975120889"
    y1="2496979.841160451"
    x2="-645220.4738232404"
    y2="2497079.214648208"
    stroke="hsla(0,50%,50%,0.6)"
    stroke-width="1"
    transform="translate(645214.8856676646,-2497029.5279043297)"
    />
  
  <line
    x1="-645187.2482179374"
    y1="2497007.4786101785"
    x2="-645192.8363735132"
    y2="2497057.1653540567"
    stroke="hsla(0,50%,50%,0.6)"
    stroke-width="1"
    transform="translate(645214.8856676646,-2497029.5279043297)"
    />
  
  <line
    x1="-645209.2975120889"
    y1="2496979.841160451"
    x2="-645236.9349618161"
    y2="2497001.8904546024"
    stroke="hsla(0,50%,50%,0.6)"
    stroke-width="1"
    transform="translate(645214.8856676646,-2497029.5279043297)"
    />
  
  <line
    x1="-645187.2482179374"
    y1="2497007.4786101785"
    x2="-645242.5231173919"
    y2="2497051.577198481"
    stroke="hsla(0,50%,50%,0.6)"
    stroke-width="1"
    transform="translate(645214.8856676646,-2497029.5279043297)"
    />
  
  <line
    x1="-645192.8363735132"
    y1="2497057.1653540567"
    x2="-645220.4738232404"
    y2="2497079.214648208"
    stroke="hsla(0,50%,50%,0.6)"
    stroke-width="1"
    transform="translate(645214.8856676646,-2497029.5279043297)"
    />
  
  <line
    x1="-645187.2482179374"
    y1="2497007.4786101785"
    x2="-645165.198923786"
    y2="2497035.1160599054"
    stroke="hsla(0,50%,50%,0.6)"
    stroke-width="1"
    transform="translate(645214.8856676646,-2497029.5279043297)"
    />
  
  <line
    x1="-645236.9349618161"
    y1="2497001.8904546024"
    x2="-645192.8363735132"
    y2="2497057.1653540567"
    stroke="hsla(0,50%,50%,0.6)"
    stroke-width="1"
    transform="translate(645214.8856676646,-2497029.5279043297)"
    />
  
  <line
    x1="-645264.5724115432"
    y1="2497023.939748754"
    x2="-645242.5231173919"
    y2="2497051.577198481"
    stroke="hsla(0,50%,50%,0.6)"
    stroke-width="1"
    transform="translate(645214.8856676646,-2497029.5279043297)"
    />
  
  <line
    x1="-645236.9349618161"
    y1="2497001.8904546024"
    x2="-645187.2482179374"
    y2="2497007.4786101785"
    stroke="hsla(0,50%,50%,0.6)"
    stroke-width="1"
    transform="translate(645214.8856676646,-2497029.5279043297)"
    />
  
  <line
    x1="-645264.5724115432"
    y1="2497023.939748754"
    x2="-645165.198923786"
    y2="2497035.1160599054"
    stroke="hsla(0,50%,50%,0.6)"
    stroke-width="1"
    transform="translate(645214.8856676646,-2497029.5279043297)"
    />
  
  <line
    x1="-645242.5231173919"
    y1="2497051.577198481"
    x2="-645192.8363735132"
    y2="2497057.1653540567"
    stroke="hsla(0,50%,50%,0.6)"
    stroke-width="1"
    transform="translate(645214.8856676646,-2497029.5279043297)"
    />
  
</svg>
