<?xml version="1.0"?>
<!DOCTYPE svg PUBLIC "-//W3C//DTD SVG 1.1//EN"
  "http://www.w3.org/Graphics/SVG/1.1/DTD/svg11.dtd">
<svg
  width="240"
  height="240"
  viewBox="-500 -500 1000 1000" xmlns="http://www.w3.org/2000/svg" version="1.1">
  <rect
    x="0"
    y="0"
    width="100"
    height="100"
    fill="hsla(206,100%,53%,0.3)"
    stroke="hsl(206,100%,53%)"
    stroke-width="3"
    transform="" />
  
  <path
    d="M 
      2706695.6510510585
      -2874255.1528094105
      L
    
      2706679.7074412677
      -2874235.8966076345
      L
    
      2706698.9636430437
      -2874219.9529978437
      L
    
      2706702.2762350288
      -2874184.7531862768
      L
    
      2706683.0200332528
      -2874200.6967960677
      L
    
      2706667.0764234620
      -2874181.4405942917
      L
    
      2706631.8766118952
      -2874178.1280023066
      L
    
      2706647.8202216860
      -2874197.3842040825
      L
    
      2706628.5640199100
      -2874213.3278138734
      L
    
      2706625.2514279249
      -2874248.5276254402
      L
    
      2706644.5076297009
      -2874232.5840156494
      L
    
      2706660.4512394917
      -2874251.8402174254
      z
    "
    fill="hsla(0,0%,50%,0.3)"
    stroke="hsla(0,0%,50%,1)"
    stroke-width="1"
    transform="translate(-2706663.7638314769,2874216.6404058585)"
    />
  
  
  <line
    x1="2706660.451239492"
    y1="-2874251.8402174255"
    x2="2706698.963643044"
    y2="-2874219.9529978437"
    stroke="hsla(0,50%,50%,0.6)"
    stroke-width="1"
    transform="translate(-2706663.7638314769,2874216.6404058585)"
    />
  
  <line
    x1="2706625.251427925"
    y1="-2874248.52762544"
    x2="2706702.2762350286"
    y2="-2874184.7531862766"
    stroke="hsla(0,50%,50%,0.6)"
    stroke-width="1"
    transform="translate(-2706663.7638314769,2874216.6404058585)"
    />
  
  <line
    x1="2706628.56401991"
    y1="-2874213.3278138735"
    x2="2706667.076423462"
    y2="-2874181.440594292"
    stroke="hsla(0,50%,50%,0.6)"
    stroke-width="1"
    transform="translate(-2706663.7638314769,2874216.6404058585)"
    />
  
  <line
    x1="2706695.6510510584"
    y1="-2874255.1528094104"
    x2="2706660.451239492"
    y2="-2874251.8402174255"
    stroke="hsla(0,50%,50%,0.6)"
    stroke-width="1"
    transform="translate(-2706663.7638314769,2874216.6404058585)"
    />
  
  <line
    x1="2706698.963643044"
    y1="-2874219.9529978437"
    x2="2706628.56401991"
    y2="-2874213.3278138735"
    stroke="hsla(0,50%,50%,0.6)"
    stroke-width="1"
    transform="translate(-2706663.7638314769,2874216.6404058585)"
    />
  
  <line
    x1="2706667.076423462"
    y1="-2874181.440594292"
    x2="2706631.8766118954"
    y2="-2874178.1280023064"
    stroke="hsla(0,50%,50%,0.6)"
    stroke-width="1"
    transform="translate(-2706663.7638314769,2874216.6404058585)"
    />
  
  <line
    x1="2706698.963643044"
    y1="-2874219.9529978437"
    x2="2706702.2762350286"
    y2="-2874184.7531862766"
    stroke="hsla(0,50%,50%,0.6)"
    stroke-width="1"
    transform="translate(-2706663.7638314769,2874216.6404058585)"
    />
  
  <line
    x1="2706660.451239492"
    y1="-2874251.8402174255"
    x2="2706667.076423462"
    y2="-2874181.440594292"
    stroke="hsla(0,50%,50%,0.6)"
    stroke-width="1"
    transform="translate(-2706663.7638314769,2874216.6404058585)"
    />
  
  <line
    x1="2706625.251427925"
    y1="-2874248.52762544"
    x2="2706628.56401991"
    y2="-2874213.3278138735"
    stroke="hsla(0,50%,50%,0.6)"
    stroke-width="1"
    transform="translate(-2706663.7638314769,2874216.6404058585)"
    />
  
  <line
    x1="2706660.451239492"
    y1="-2874251.8402174255"
    x2="2706628.56401991"
    y2="-2874213.3278138735"
    stroke="hsla(0,50%,50%,0.6)"
    stroke-width="1"
    transform="translate(-2706663.7638314769,2874216.6404058585)"
    />
  
  <line
    x1="2706695.6510510584"
    y1="-2874255.1528094104"
    x2="2706631.8766118954"
    y2="-2874178.1280023064"
    stroke="hsla(0,50%,50%,0.6)"
    stroke-width="1"
    transform="translate(-2706663.7638314769,2874216.6404058585)"
    />
  
  <line
    x1="2706698.963643044"
    y1="-2874219.9529978437"
    x2="2706667.076423462"
    y2="-2874181.440594292"
    stroke="hsla(0,50%,50%,0.6)"
    stroke-width="1"
    transform="translate(-2706663.7638314769,2874216.6404058585)"
    />
  
</svg>
