<?xml version="1.0"?>
<!DOCTYPE svg PUBLIC "-//W3C//DTD SVG 1.1//EN"
  "http://www.w3.org/Graphics/SVG/1.1/DTD/svg11.dtd">
<svg
  width="240"
  height="240"
  viewBox="-50 -50 200 200" xmlns="http://www.w3.org/2000/svg" version="1.1">
  <rect
    x="0"
    y="0"
    width="100"
    height="100"
    fill="hsla(206,100%,53%,0.3)"
    stroke="hsl(206,100%,53%)"
    stroke-width="3"
    transform="" />
  
  <path
    d="M 
      61107.0474969431
      25366.7152414333
      L
    
      61100.0225205909
      25390.7079425578
      L
    
      61124.0152217154
      25397.7329189100
      L
    
      61140.9829464878
      25428.7505963867
      L
    
      61116.9902453633
      25421.7256200345
      L
    
      61109.9652690111
      25445.7183211591
      L
    
      61078.9475915344
      25462.6860459314
      L
    
      61085.9725678865
      25438.6933448069
      L
    
      61061.9798667620
      25431.6683684547
      L
    
      61045.0121419896
      25400.6506909780
      L
    
      61069.0048431142
      25407.6756673302
      L
    
      61076.0298194664
      25383.6829662056
      z
    "
    fill="hsla(0,0%,50%,0.3)"
    stroke="hsla(0,0%,50%,1)"
    stroke-width="1"
    transform="translate(-61070.5002499466,-25398.4848360175) scale(1,-1) translate(50,-110)"
    />
  
  
  <line
    x1="61124.01522171548"
    y1="25397.732918910046"
    x2="61140.98294648784"
    y2="25428.750596386755"
    stroke="hsla(0,50%,50%,0.6)"
    stroke-width="1"
    transform="translate(-61070.5002499466,-25398.4848360175) scale(1,-1) translate(50,-110)"
    />
  
  <line
    x1="61076.02981946641"
    y1="25383.68296620569"
    x2="61109.965269011125"
    y2="25445.71832115912"
    stroke="hsla(0,50%,50%,0.6)"
    stroke-width="1"
    transform="translate(-61070.5002499466,-25398.4848360175) scale(1,-1) translate(50,-110)"
    />
  
  <line
    x1="61045.01214198969"
    y1="25400.650690978055"
    x2="61061.97986676205"
    y2="25431.668368454768"
    stroke="hsla(0,50%,50%,0.6)"
    stroke-width="1"
    transform="translate(-61070.5002499466,-25398.4848360175) scale(1,-1) translate(50,-110)"
    />
  
  <line
    x1="61076.02981946641"
    y1="25383.68296620569"
    x2="61124.01522171548"
    y2="25397.732918910046"
    stroke="hsla(0,50%,50%,0.6)"
    stroke-width="1"
    transform="translate(-61070.5002499466,-25398.4848360175) scale(1,-1) translate(50,-110)"
    />
  
  <line
    x1="61045.01214198969"
    y1="25400.650690978055"
    x2="61140.98294648784"
    y2="25428.750596386755"
    stroke="hsla(0,50%,50%,0.6)"
    stroke-width="1"
    transform="translate(-61070.5002499466,-25398.4848360175) scale(1,-1) translate(50,-110)"
    />
  
  <line
    x1="61061.97986676205"
    y1="25431.668368454768"
    x2="61109.965269011125"
    y2="25445.71832115912"
    stroke="hsla(0,50%,50%,0.6)"
    stroke-width="1"
    transform="translate(-61070.5002499466,-25398.4848360175) scale(1,-1) translate(50,-110)"
    />
  
  <line
    x1="61076.02981946641"
    y1="25383.68296620569"
    x2="61061.97986676205"
    y2="25431.668368454768"
    stroke="hsla(0,50%,50%,0.6)"
    stroke-width="1"
    transform="translate(-61070.5002499466,-25398.4848360175) scale(1,-1) translate(50,-110)"
    />
  
  <line
    x1="61107.047496943116"
    y1="25366.715241433332"
    x2="61078.947591534416"
    y2="25462.68604593148"
    stroke="hsla(0,50%,50%,0.6)"
    stroke-width="1"
    transform="translate(-61070.5002499466,-25398.4848360175) scale(1,-1) translate(50,-110)"
    />
  
  <line
    x1="61124.01522171548"
    y1="25397.732918910046"
    x2="61109.965269011125"
    y2="25445.71832115912"
    stroke="hsla(0,50%,50%,0.6)"
    stroke-width="1"
    transform="translate(-61070.5002499466,-25398.4848360175) scale(1,-1) translate(50,-110)"
    />
  
  <line
    x1="61107.047496943116"
    y1="25366.715241433332"
    x2="61076.02981946641"
    y2="25383.68296620569"
    stroke="hsla(0,50%,50%,0.6)"
    stroke-width="1"
    transform="translate(-61070.5002499466,-25398.4848360175) scale(1,-1) translate(50,-110)"
    />
  
  <line
    x1="61124.01522171548"
    y1="25397.732918910046"
    x2="61061.97986676205"
    y2="25431.668368454768"
    stroke="hsla(0,50%,50%,0.6)"
    stroke-width="1"
    transform="translate(-61070.5002499466,-25398.4848360175) scale(1,-1) translate(50,-110)"
    />
  
  <line
    x1="61109.965269011125"
    y1="25445.71832115912"
    x2="61078.947591534416"
    y2="25462.68604593148"
    stroke="hsla(0,50%,50%,0.6)"
    stroke-width="1"
    transform="translate(-61070.5002499466,-25398.4848360175) scale(1,-1) translate(50,-110)"
    />
  
</svg>
