<?xml version="1.0"?>
<!DOCTYPE svg PUBLIC "-//W3C//DTD SVG 1.1//EN"
  "http://www.w3.org/Graphics/SVG/1.1/DTD/svg11.dtd">
<svg
  width="240"
  height="240"
  viewBox="-50 -50 200 200" xmlns="http://www.w3.org/2000/svg" version="1.1">
  <rect
    x="0"
    y="0"
    width="100"
    height="100"
    fill="hsla(206,100%,53%,0.3)"
    stroke="hsl(206,100%,53%)"
    stroke-width="3"
    transform="" />
  
  <path
    d="M 
      -295679.1211325503
      1701.8429129088
      L
    
      -295692.6073620171
      1722.8933669364
      L
    
      -295671.5569079894
      1736.3795964032
      L
    
      -295663.9926834285
      1770.9162798976
      L
    
      -295685.0431374562
      1757.4300504308
      L
    
      -295698.5293669229
      1778.4805044585
      L
    
      -295733.0660504173
      1786.0447290194
      L
    
      -295719.5798209506
      1764.9942749917
      L
    
      -295740.6302749782
      1751.5080455250
      L
    
      -295748.1944995391
      1716.9713620306
      L
    
      -295727.1440455115
      1730.4575914973
      L
    
      -295713.6578160447
      1709.4071374697
      z
    "
    fill="hsla(0,0%,50%,0.3)"
    stroke="hsla(0,0%,50%,1)"
    stroke-width="1"
    transform="translate(295723.1253282128,-1722.0577383387) scale(1,-1) translate(50,-110)"
    />
  
  
  <line
    x1="-295713.65781604475"
    y1="1709.4071374697328"
    x2="-295740.6302749783"
    y2="1751.5080455250363"
    stroke="hsla(0,50%,50%,0.6)"
    stroke-width="1"
    transform="translate(295723.1253282128,-1722.0577383387) scale(1,-1) translate(50,-110)"
    />
  
  <line
    x1="-295679.1211325504"
    y1="1701.842912908827"
    x2="-295733.06605041743"
    y2="1786.0447290194338"
    stroke="hsla(0,50%,50%,0.6)"
    stroke-width="1"
    transform="translate(295723.1253282128,-1722.0577383387) scale(1,-1) translate(50,-110)"
    />
  
  <line
    x1="-295671.5569079895"
    y1="1736.3795964032245"
    x2="-295698.52936692303"
    y2="1778.4805044585278"
    stroke="hsla(0,50%,50%,0.6)"
    stroke-width="1"
    transform="translate(295723.1253282128,-1722.0577383387) scale(1,-1) translate(50,-110)"
    />
  
  <line
    x1="-295679.1211325504"
    y1="1701.842912908827"
    x2="-295713.65781604475"
    y2="1709.4071374697328"
    stroke="hsla(0,50%,50%,0.6)"
    stroke-width="1"
    transform="translate(295723.1253282128,-1722.0577383387) scale(1,-1) translate(50,-110)"
    />
  
  <line
    x1="-295671.5569079895"
    y1="1736.3795964032245"
    x2="-295740.6302749783"
    y2="1751.5080455250363"
    stroke="hsla(0,50%,50%,0.6)"
    stroke-width="1"
    transform="translate(295723.1253282128,-1722.0577383387) scale(1,-1) translate(50,-110)"
    />
  
  <line
    x1="-295698.52936692303"
    y1="1778.4805044585278"
    x2="-295733.06605041743"
    y2="1786.0447290194338"
    stroke="hsla(0,50%,50%,0.6)"
    stroke-width="1"
    transform="translate(295723.1253282128,-1722.0577383387) scale(1,-1) translate(50,-110)"
    />
  
  <line
    x1="-295671.5569079895"
    y1="1736.3795964032245"
    x2="-295663.9926834286"
    y2="1770.916279897622"
    stroke="hsla(0,50%,50%,0.6)"
    stroke-width="1"
    transform="translate(295723.1253282128,-1722.0577383387) scale(1,-1) translate(50,-110)"
    />
  
  <line
    x1="-295713.65781604475"
    y1="1709.4071374697328"
    x2="-295698.52936692303"
    y2="1778.4805044585278"
    stroke="hsla(0,50%,50%,0.6)"
    stroke-width="1"
    transform="translate(295723.1253282128,-1722.0577383387) scale(1,-1) translate(50,-110)"
    />
  
  <line
    x1="-295748.1944995392"
    y1="1716.9713620306388"
    x2="-295740.6302749783"
    y2="1751.5080455250363"
    stroke="hsla(0,50%,50%,0.6)"
    stroke-width="1"
    transform="translate(295723.1253282128,-1722.0577383387) scale(1,-1) translate(50,-110)"
    />
  
  <line
    x1="-295713.65781604475"
    y1="1709.4071374697328"
    x2="-295671.5569079895"
    y2="1736.3795964032245"
    stroke="hsla(0,50%,50%,0.6)"
    stroke-width="1"
    transform="translate(295723.1253282128,-1722.0577383387) scale(1,-1) translate(50,-110)"
    />
  
  <line
    x1="-295748.1944995392"
    y1="1716.9713620306388"
    x2="-295663.9926834286"
    y2="1770.916279897622"
    stroke="hsla(0,50%,50%,0.6)"
    stroke-width="1"
    transform="translate(295723.1253282128,-1722.0577383387) scale(1,-1) translate(50,-110)"
    />
  
  <line
    x1="-295740.6302749783"
    y1="1751.5080455250363"
    x2="-295698.52936692303"
    y2="1778.4805044585278"
    stroke="hsla(0,50%,50%,0.6)"
    stroke-width="1"
    transform="translate(295723.1253282128,-1722.0577383387) scale(1,-1) translate(50,-110)"
    />
  
</svg>
