<?xml version="1.0"?>
<!DOCTYPE svg PUBLIC "-//W3C//DTD SVG 1.1//EN"
  "http://www.w3.org/Graphics/SVG/1.1/DTD/svg11.dtd">
<svg
  width="240"
  height="240"
  viewBox="-500 -500 1000 1000" xmlns="http://www.w3.org/2000/svg" version="1.1">
  <rect
    x="0"
    y="0"
    width="100"
    height="100"
    fill="hsla(206,100%,53%,0.3)"
    stroke="hsl(206,100%,53%)"
    stroke-width="3"
    transform="" />
  
  <path
    d="M 
      3854326.3627168714
      2737056.7091309402
      L
    
      3854334.8130142921
      2737080.2376768685
      L
    
      3854358.3415602204
      2737071.7873794479
      L
    
      3854390.3204035694
      2737086.8656279556
      L
    
      3854366.7918576411
      2737095.3159253762
      L
    
      3854375.2421550617
      2737118.8444713046
      L
    
      3854360.1639065540
      2737150.8233146536
      L
    
      3854351.7136091334
      2737127.2947687252
      L
    
      3854328.1850632050
      2737135.7450661459
      L
    
      3854296.2062198560
      2737120.6668176382
      L
    
      3854319.7347657844
      2737112.2165202175
      L
    
      3854311.2844683637
      2737088.6879742892
      z
    "
    fill="hsla(0,0%,50%,0.3)"
    stroke="hsla(0,0%,50%,1)"
    stroke-width="1"
    transform="translate(-3854343.2633117127,-2737103.7662227969)"
    />
  
  
  <line
    x1="3854358.34156022"
    y1="2737071.787379448"
    x2="3854375.2421550616"
    y2="2737118.8444713047"
    stroke="hsla(0,50%,50%,0.6)"
    stroke-width="1"
    transform="translate(-3854343.2633117127,-2737103.7662227969)"
    />
  
  <line
    x1="3854326.3627168713"
    y1="2737056.7091309405"
    x2="3854360.1639065538"
    y2="2737150.8233146537"
    stroke="hsla(0,50%,50%,0.6)"
    stroke-width="1"
    transform="translate(-3854343.2633117127,-2737103.7662227969)"
    />
  
  <line
    x1="3854311.2844683635"
    y1="2737088.687974289"
    x2="3854328.185063205"
    y2="2737135.745066146"
    stroke="hsla(0,50%,50%,0.6)"
    stroke-width="1"
    transform="translate(-3854343.2633117127,-2737103.7662227969)"
    />
  
  <line
    x1="3854358.34156022"
    y1="2737071.787379448"
    x2="3854390.32040357"
    y2="2737086.8656279556"
    stroke="hsla(0,50%,50%,0.6)"
    stroke-width="1"
    transform="translate(-3854343.2633117127,-2737103.7662227969)"
    />
  
  <line
    x1="3854311.2844683635"
    y1="2737088.687974289"
    x2="3854375.2421550616"
    y2="2737118.8444713047"
    stroke="hsla(0,50%,50%,0.6)"
    stroke-width="1"
    transform="translate(-3854343.2633117127,-2737103.7662227969)"
    />
  
  <line
    x1="3854296.206219856"
    y1="2737120.6668176386"
    x2="3854328.185063205"
    y2="2737135.745066146"
    stroke="hsla(0,50%,50%,0.6)"
    stroke-width="1"
    transform="translate(-3854343.2633117127,-2737103.7662227969)"
    />
  
  <line
    x1="3854326.3627168713"
    y1="2737056.7091309405"
    x2="3854311.2844683635"
    y2="2737088.687974289"
    stroke="hsla(0,50%,50%,0.6)"
    stroke-width="1"
    transform="translate(-3854343.2633117127,-2737103.7662227969)"
    />
  
  <line
    x1="3854358.34156022"
    y1="2737071.787379448"
    x2="3854328.185063205"
    y2="2737135.745066146"
    stroke="hsla(0,50%,50%,0.6)"
    stroke-width="1"
    transform="translate(-3854343.2633117127,-2737103.7662227969)"
    />
  
  <line
    x1="3854375.2421550616"
    y1="2737118.8444713047"
    x2="3854360.1639065538"
    y2="2737150.8233146537"
    stroke="hsla(0,50%,50%,0.6)"
    stroke-width="1"
    transform="translate(-3854343.2633117127,-2737103.7662227969)"
    />
  
  <line
    x1="3854358.34156022"
    y1="2737071.787379448"
    x2="3854311.2844683635"
    y2="2737088.687974289"
    stroke="hsla(0,50%,50%,0.6)"
    stroke-width="1"
    transform="translate(-3854343.2633117127,-2737103.7662227969)"
    />
  
  <line
    x1="3854390.32040357"
    y1="2737086.8656279556"
    x2="3854296.206219856"
    y2="2737120.6668176386"
    stroke="hsla(0,50%,50%,0.6)"
    stroke-width="1"
    transform="translate(-3854343.2633117127,-2737103.7662227969)"
    />
  
  <line
    x1="3854375.2421550616"
    y1="2737118.8444713047"
    x2="3854328.185063205"
    y2="2737135.745066146"
    stroke="hsla(0,50%,50%,0.6)"
    stroke-width="1"
    transform="translate(-3854343.2633117127,-2737103.7662227969)"
    />
  
</svg>
