<?xml version="1.0"?>
<!DOCTYPE svg PUBLIC "-//W3C//DTD SVG 1.1//EN"
  "http://www.w3.org/Graphics/SVG/1.1/DTD/svg11.dtd">
<svg
  width="240"
  height="240"
  viewBox="-500 -500 1000 1000" xmlns="http://www.w3.org/2000/svg" version="1.1">
  <rect
    x="0"
    y="0"
    width="100"
    height="100"
    fill="hsla(206,100%,53%,0.3)"
    stroke="hsl(206,100%,53%)"
    stroke-width="3"
    transform="" />
  
  <path
    d="M 
      -322650.0500566938
      203893.1492401370
      L
    
      -322651.8245215430
      203918.0861861107
      L
    
      -322626.8875755692
      203919.8606509600
      L
    
      -322603.7250944447
      203946.5720617830
      L
    
      -322628.6620404185
      203944.7975969337
      L
    
      -322630.4365052678
      203969.7345429075
      L
    
      -322657.1479160908
      203992.8970240320
      L
    
      -322655.3734512415
      203967.9600780583
      L
    
      -322680.3103972153
      203966.1856132090
      L
    
      -322703.4728783398
      203939.4742023860
      L
    
      -322678.5359323660
      203941.2486672352
      L
    
      -322676.7614675168
      203916.3117212615
      z
    "
    fill="hsla(0,0%,50%,0.3)"
    stroke="hsla(0,0%,50%,1)"
    stroke-width="1"
    transform="translate(322653.5989863923,-203943.0231320845)"
    />
  
  
  <line
    x1="-322650.0500566938"
    y1="203893.149240137"
    x2="-322676.76146751683"
    y2="203916.31172126153"
    stroke="hsla(0,50%,50%,0.6)"
    stroke-width="1"
    transform="translate(322653.5989863923,-203943.0231320845)"
    />
  
  <line
    x1="-322626.88757556933"
    y1="203919.86065096004"
    x2="-322680.3103972153"
    y2="203966.18561320906"
    stroke="hsla(0,50%,50%,0.6)"
    stroke-width="1"
    transform="translate(322653.5989863923,-203943.0231320845)"
    />
  
  <line
    x1="-322630.4365052678"
    y1="203969.73454290756"
    x2="-322657.14791609085"
    y2="203992.89702403208"
    stroke="hsla(0,50%,50%,0.6)"
    stroke-width="1"
    transform="translate(322653.5989863923,-203943.0231320845)"
    />
  
  <line
    x1="-322676.76146751683"
    y1="203916.31172126153"
    x2="-322680.3103972153"
    y2="203966.18561320906"
    stroke="hsla(0,50%,50%,0.6)"
    stroke-width="1"
    transform="translate(322653.5989863923,-203943.0231320845)"
    />
  
  <line
    x1="-322650.0500566938"
    y1="203893.149240137"
    x2="-322657.14791609085"
    y2="203992.89702403208"
    stroke="hsla(0,50%,50%,0.6)"
    stroke-width="1"
    transform="translate(322653.5989863923,-203943.0231320845)"
    />
  
  <line
    x1="-322626.88757556933"
    y1="203919.86065096004"
    x2="-322630.4365052678"
    y2="203969.73454290756"
    stroke="hsla(0,50%,50%,0.6)"
    stroke-width="1"
    transform="translate(322653.5989863923,-203943.0231320845)"
    />
  
  <line
    x1="-322676.76146751683"
    y1="203916.31172126153"
    x2="-322626.88757556933"
    y2="203919.86065096004"
    stroke="hsla(0,50%,50%,0.6)"
    stroke-width="1"
    transform="translate(322653.5989863923,-203943.0231320845)"
    />
  
  <line
    x1="-322703.4728783399"
    y1="203939.47420238605"
    x2="-322603.72509444476"
    y2="203946.57206178305"
    stroke="hsla(0,50%,50%,0.6)"
    stroke-width="1"
    transform="translate(322653.5989863923,-203943.0231320845)"
    />
  
  <line
    x1="-322680.3103972153"
    y1="203966.18561320906"
    x2="-322630.4365052678"
    y2="203969.73454290756"
    stroke="hsla(0,50%,50%,0.6)"
    stroke-width="1"
    transform="translate(322653.5989863923,-203943.0231320845)"
    />
  
  <line
    x1="-322626.88757556933"
    y1="203919.86065096004"
    x2="-322603.72509444476"
    y2="203946.57206178305"
    stroke="hsla(0,50%,50%,0.6)"
    stroke-width="1"
    transform="translate(322653.5989863923,-203943.0231320845)"
    />
  
  <line
    x1="-322676.76146751683"
    y1="203916.31172126153"
    x2="-322630.4365052678"
    y2="203969.73454290756"
    stroke="hsla(0,50%,50%,0.6)"
    stroke-width="1"
    transform="translate(322653.5989863923,-203943.0231320845)"
    />
  
  <line
    x1="-322703.4728783399"
    y1="203939.47420238605"
    x2="-322680.3103972153"
    y2="203966.18561320906"
    stroke="hsla(0,50%,50%,0.6)"
    stroke-width="1"
    transform="translate(322653.5989863923,-203943.0231320845)"
    />
  
</svg>
