<?xml version="1.0"?>
<!DOCTYPE svg PUBLIC "-//W3C//DTD SVG 1.1//EN"
  "http://www.w3.org/Graphics/SVG/1.1/DTD/svg11.dtd">
<svg
  width="240"
  height="240"
  viewBox="-500 -500 1000 1000" xmlns="http://www.w3.org/2000/svg" version="1.1">
  <rect
    x="0"
    y="0"
    width="100"
    height="100"
    fill="hsla(206,100%,53%,0.3)"
    stroke="hsl(206,100%,53%)"
    stroke-width="3"
    transform="" />
  
  <path
    d="M 
      3436638.9172415459
      -432365.5699368897
      L
    
      3436624.2327863420
      -432345.3371225683
      L
    
      3436644.4656006634
      -432330.6526673643
      L
    
      3436650.0139597808
      -432295.7353978390
      L
    
      3436629.7811454594
      -432310.4198530430
      L
    
      3436615.0966902555
      -432290.1870387216
      L
    
      3436580.1794207302
      -432284.6386796041
      L
    
      3436594.8638759341
      -432304.8714939255
      L
    
      3436574.6310616127
      -432319.5559491295
      L
    
      3436569.0827024953
      -432354.4732186548
      L
    
      3436589.3155168167
      -432339.7887634508
      L
    
      3436603.9999720206
      -432360.0215777722
      z
    "
    fill="hsla(0,0%,50%,0.3)"
    stroke="hsla(0,0%,50%,1)"
    stroke-width="1"
    transform="translate(-3436609.5483311381,432325.1043082469)"
    />
  
  
  <line
    x1="3436603.9999720207"
    y1="-432360.0215777723"
    x2="3436644.465600664"
    y2="-432330.6526673644"
    stroke="hsla(0,50%,50%,0.6)"
    stroke-width="1"
    transform="translate(-3436609.5483311381,432325.1043082469)"
    />
  
  <line
    x1="3436569.082702495"
    y1="-432354.4732186548"
    x2="3436650.013959781"
    y2="-432295.7353978391"
    stroke="hsla(0,50%,50%,0.6)"
    stroke-width="1"
    transform="translate(-3436609.5483311381,432325.1043082469)"
    />
  
  <line
    x1="3436574.6310616126"
    y1="-432319.5559491296"
    x2="3436615.0966902557"
    y2="-432290.18703872163"
    stroke="hsla(0,50%,50%,0.6)"
    stroke-width="1"
    transform="translate(-3436609.5483311381,432325.1043082469)"
    />
  
  <line
    x1="3436644.465600664"
    y1="-432330.6526673644"
    x2="3436650.013959781"
    y2="-432295.7353978391"
    stroke="hsla(0,50%,50%,0.6)"
    stroke-width="1"
    transform="translate(-3436609.5483311381,432325.1043082469)"
    />
  
  <line
    x1="3436603.9999720207"
    y1="-432360.0215777723"
    x2="3436615.0966902557"
    y2="-432290.18703872163"
    stroke="hsla(0,50%,50%,0.6)"
    stroke-width="1"
    transform="translate(-3436609.5483311381,432325.1043082469)"
    />
  
  <line
    x1="3436569.082702495"
    y1="-432354.4732186548"
    x2="3436574.6310616126"
    y2="-432319.5559491296"
    stroke="hsla(0,50%,50%,0.6)"
    stroke-width="1"
    transform="translate(-3436609.5483311381,432325.1043082469)"
    />
  
  <line
    x1="3436638.917241546"
    y1="-432365.56993688975"
    x2="3436603.9999720207"
    y2="-432360.0215777723"
    stroke="hsla(0,50%,50%,0.6)"
    stroke-width="1"
    transform="translate(-3436609.5483311381,432325.1043082469)"
    />
  
  <line
    x1="3436644.465600664"
    y1="-432330.6526673644"
    x2="3436574.6310616126"
    y2="-432319.5559491296"
    stroke="hsla(0,50%,50%,0.6)"
    stroke-width="1"
    transform="translate(-3436609.5483311381,432325.1043082469)"
    />
  
  <line
    x1="3436615.0966902557"
    y1="-432290.18703872163"
    x2="3436580.17942073"
    y2="-432284.6386796042"
    stroke="hsla(0,50%,50%,0.6)"
    stroke-width="1"
    transform="translate(-3436609.5483311381,432325.1043082469)"
    />
  
  <line
    x1="3436603.9999720207"
    y1="-432360.0215777723"
    x2="3436574.6310616126"
    y2="-432319.5559491296"
    stroke="hsla(0,50%,50%,0.6)"
    stroke-width="1"
    transform="translate(-3436609.5483311381,432325.1043082469)"
    />
  
  <line
    x1="3436638.917241546"
    y1="-432365.56993688975"
    x2="3436580.17942073"
    y2="-432284.6386796042"
    stroke="hsla(0,50%,50%,0.6)"
    stroke-width="1"
    transform="translate(-3436609.5483311381,432325.1043082469)"
    />
  
  <line
    x1="3436644.465600664"
    y1="-432330.6526673644"
    x2="3436615.0966902557"
    y2="-432290.18703872163"
    stroke="hsla(0,50%,50%,0.6)"
    stroke-width="1"
    transform="translate(-3436609.5483311381,432325.1043082469)"
    />
  
</svg>
