<?xml version="1.0"?>
<!DOCTYPE svg PUBLIC "-//W3C//DTD SVG 1.1//EN"
  "http://www.w3.org/Graphics/SVG/1.1/DTD/svg11.dtd">
<svg
  width="240"
  height="240"
  viewBox="-50 -50 200 200" xmlns="http://www.w3.org/2000/svg" version="1.1">
  <rect
    x="0"
    y="0"
    width="100"
    height="100"
    fill="hsla(206,100%,53%,0.3)"
    stroke="hsl(206,100%,53%)"
    stroke-width="3"
    transform="" />
  
  <path
    d="M 
      51.25
      -57.5
      L
    
      55.7954545454
      -48.4090909090
      L
    
      74.8295454545
      -34.1335227272
      L
    
      74.8295454545
      -14.6022727272
      L
    
      53.6647727272
      -4.0198863636
      L
    
      31.7897727272
      -47.7698863636
      z
    "
    fill="hsla(0,0%,50%,0.3)"
    stroke="hsla(0,0%,50%,1)"
    stroke-width="1"
    transform="translate(-46.6867897727,32.158203125) scale(1,-1) translate(50,-110)"
    />
  
  
  <line
    x1="46.70454545454545"
    y1="-55.22727272727273"
    x2="74.82954545454545"
    y2="-34.13352272727273"
    stroke="hsla(0,50%,50%,0.6)"
    stroke-width="1"
    transform="translate(-46.6867897727,32.158203125) scale(1,-1) translate(50,-110)"
    />
  
  <line
    x1="43.57954545454545"
    y1="-53.66477272727273"
    x2="71.07954545454545"
    y2="-33.03977272727273"
    stroke="hsla(0,50%,50%,0.6)"
    stroke-width="1"
    transform="translate(-46.6867897727,32.158203125) scale(1,-1) translate(50,-110)"
    />
  
  <line
    x1="53.57954545454545"
    y1="-30.539772727272727"
    x2="74.82954545454545"
    y2="-14.602272727272727"
    stroke="hsla(0,50%,50%,0.6)"
    stroke-width="1"
    transform="translate(-46.6867897727,32.158203125) scale(1,-1) translate(50,-110)"
    />
  
  <line
    x1="46.70454545454545"
    y1="-55.22727272727273"
    x2="60"
    y2="-37.5"
    stroke="hsla(0,50%,50%,0.6)"
    stroke-width="1"
    transform="translate(-46.6867897727,32.158203125) scale(1,-1) translate(50,-110)"
    />
  
  <line
    x1="43.57954545454545"
    y1="-24.19034090909091"
    x2="63.75"
    y2="-9.0625"
    stroke="hsla(0,50%,50%,0.6)"
    stroke-width="1"
    transform="translate(-46.6867897727,32.158203125) scale(1,-1) translate(50,-110)"
    />
  
  <line
    x1="46.70454545454545"
    y1="-17.94034090909091"
    x2="60.625"
    y2="-7.5"
    stroke="hsla(0,50%,50%,0.6)"
    stroke-width="1"
    transform="translate(-46.6867897727,32.158203125) scale(1,-1) translate(50,-110)"
    />
  
  <line
    x1="51.25"
    y1="-57.5"
    x2="73.125"
    y2="-13.75"
    stroke="hsla(0,50%,50%,0.6)"
    stroke-width="1"
    transform="translate(-46.6867897727,32.158203125) scale(1,-1) translate(50,-110)"
    />
  
  <line
    x1="46.70454545454545"
    y1="-21.373106060606062"
    x2="58.06818181818182"
    y2="-6.221590909090909"
    stroke="hsla(0,50%,50%,0.6)"
    stroke-width="1"
    transform="translate(-46.6867897727,32.158203125) scale(1,-1) translate(50,-110)"
    />
  
  <line
    x1="51.25"
    y1="-57.5"
    x2="31.789772727272727"
    y2="-47.76988636363637"
    stroke="hsla(0,50%,50%,0.6)"
    stroke-width="1"
    transform="translate(-46.6867897727,32.158203125) scale(1,-1) translate(50,-110)"
    />
  
  <line
    x1="48.46235795454545"
    y1="-14.424715909090908"
    x2="56.07954545454545"
    y2="-13.039772727272727"
    stroke="hsla(0,50%,50%,0.6)"
    stroke-width="1"
    transform="translate(-46.6867897727,32.158203125) scale(1,-1) translate(50,-110)"
    />
  
  <line
    x1="31.789772727272727"
    y1="-47.76988636363637"
    x2="53.66477272727273"
    y2="-4.019886363636363"
    stroke="hsla(0,50%,50%,0.6)"
    stroke-width="1"
    transform="translate(-46.6867897727,32.158203125) scale(1,-1) translate(50,-110)"
    />
  
  <line
    x1="60.625"
    y1="-20"
    x2="70"
    y2="-20"
    stroke="hsla(0,50%,50%,0.6)"
    stroke-width="1"
    transform="translate(-46.6867897727,32.158203125) scale(1,-1) translate(50,-110)"
    />
  
  <line
    x1="46.70454545454545"
    y1="-55.22727272727273"
    x2="60.625"
    y2="-7.5"
    stroke="hsla(0,50%,50%,0.6)"
    stroke-width="1"
    transform="translate(-46.6867897727,32.158203125) scale(1,-1) translate(50,-110)"
    />
  
  <line
    x1="56.07954545454545"
    y1="-13.039772727272727"
    x2="58.06818181818182"
    y2="-6.221590909090909"
    stroke="hsla(0,50%,50%,0.6)"
    stroke-width="1"
    transform="translate(-46.6867897727,32.158203125) scale(1,-1) translate(50,-110)"
    />
  
  <line
    x1="74.82954545454545"
    y1="-34.13352272727273"
    x2="43.21797520661157"
    y2="-24.913481404958677"
    stroke="hsla(0,50%,50%,0.6)"
    stroke-width="1"
    transform="translate(-46.6867897727,32.158203125) scale(1,-1) translate(50,-110)"
    />
  
  <line
    x1="51.92471590909091"
    y1="-7.5"
    x2="60.625"
    y2="-7.5"
    stroke="hsla(0,50%,50%,0.6)"
    stroke-width="1"
    transform="translate(-46.6867897727,32.158203125) scale(1,-1) translate(50,-110)"
    />
  
  <line
    x1="43.57954545454545"
    y1="-53.66477272727273"
    x2="43.57954545454545"
    y2="-24.19034090909091"
    stroke="hsla(0,50%,50%,0.6)"
    stroke-width="1"
    transform="translate(-46.6867897727,32.158203125) scale(1,-1) translate(50,-110)"
    />
  
  <line
    x1="46.70454545454545"
    y1="-55.22727272727273"
    x2="46.70454545454545"
    y2="-17.94034090909091"
    stroke="hsla(0,50%,50%,0.6)"
    stroke-width="1"
    transform="translate(-46.6867897727,32.158203125) scale(1,-1) translate(50,-110)"
    />
  
  <line
    x1="60.625"
    y1="-38.75"
    x2="60.625"
    y2="-7.5"
    stroke="hsla(0,50%,50%,0.6)"
    stroke-width="1"
    transform="translate(-46.6867897727,32.158203125) scale(1,-1) translate(50,-110)"
    />
  
  <line
    x1="63.75"
    y1="-20"
    x2="63.75"
    y2="-9.0625"
    stroke="hsla(0,50%,50%,0.6)"
    stroke-width="1"
    transform="translate(-46.6867897727,32.158203125) scale(1,-1) translate(50,-110)"
    />
  
  <line
    x1="74.82954545454545"
    y1="-34.13352272727273"
    x2="74.82954545454545"
    y2="-14.602272727272727"
    stroke="hsla(0,50%,50%,0.6)"
    stroke-width="1"
    transform="translate(-46.6867897727,32.158203125) scale(1,-1) translate(50,-110)"
    />
  
  <line
    x1="60"
    y1="-37.5"
    x2="43.21797520661157"
    y2="-24.913481404958677"
    stroke="hsla(0,50%,50%,0.6)"
    stroke-width="1"
    transform="translate(-46.6867897727,32.158203125) scale(1,-1) translate(50,-110)"
    />
  
  <line
    x1="53.57954545454545"
    y1="-30.539772727272727"
    x2="46.70454545454545"
    y2="-21.373106060606062"
    stroke="hsla(0,50%,50%,0.6)"
    stroke-width="1"
    transform="translate(-46.6867897727,32.158203125) scale(1,-1) translate(50,-110)"
    />
  
  <line
    x1="60.625"
    y1="-38.75"
    x2="48.46235795454545"
    y2="-14.424715909090908"
    stroke="hsla(0,50%,50%,0.6)"
    stroke-width="1"
    transform="translate(-46.6867897727,32.158203125) scale(1,-1) translate(50,-110)"
    />
  
  <line
    x1="74.82954545454545"
    y1="-14.602272727272727"
    x2="53.66477272727273"
    y2="-4.019886363636363"
    stroke="hsla(0,50%,50%,0.6)"
    stroke-width="1"
    transform="translate(-46.6867897727,32.158203125) scale(1,-1) translate(50,-110)"
    />
  
  <line
    x1="72.95454545454545"
    y1="-35.53977272727273"
    x2="51.92471590909091"
    y2="-7.5"
    stroke="hsla(0,50%,50%,0.6)"
    stroke-width="1"
    transform="translate(-46.6867897727,32.158203125) scale(1,-1) translate(50,-110)"
    />
  
  <line
    x1="70"
    y1="-20"
    x2="60.625"
    y2="-7.5"
    stroke="hsla(0,50%,50%,0.6)"
    stroke-width="1"
    transform="translate(-46.6867897727,32.158203125) scale(1,-1) translate(50,-110)"
    />
  
</svg>
