<?xml version="1.0"?>
<!DOCTYPE svg PUBLIC "-//W3C//DTD SVG 1.1//EN"
  "http://www.w3.org/Graphics/SVG/1.1/DTD/svg11.dtd">
<svg
  width="240"
  height="240"
  viewBox="-50 -50 200 200" xmlns="http://www.w3.org/2000/svg" version="1.1">
  <rect
    x="0"
    y="0"
    width="100"
    height="100"
    fill="hsla(206,100%,53%,0.3)"
    stroke="hsl(206,100%,53%)"
    stroke-width="3"
    transform="" />
  
  <path
    d="M 
      55.7111775381
      -5.2285196012
      L
    
      64.2178658463
      5.2452949940
      L
    
      81.9262003647
      50.4066066121
      L
    
      60.8822449814
      70.1565735721
      L
    
      51.3875557086
      71.0387391750
      L
    
      51.3345726265
      71.6728638711
      L
    
      38.6850470676
      70.6159568371
      L
    
      17.5005704552
      50
      L
    
      40.0942274040
      -5.1131613135
      L
    
      47.9488457862
      1.0759395961
      z
    "
    fill="hsla(0,0%,50%,0.3)"
    stroke="hsla(0,0%,50%,1)"
    stroke-width="1"
    transform="translate(-47.6718932475,-33.3936256340) scale(1,-1) translate(50,-110)"
    />
  
  <path
    d="M 
      39.9519790117
      50.1416965760
      L
    
      50.7685256446
      60.3832614180
      L
    
      61.2465094275
      50.2760917986
      z
    "
    fill="hsla(0,0%,50%,0.3)"
    stroke="hsla(0,0%,50%,1)"
    stroke-width="1"
    transform="translate(-47.6718932475,-33.3936256340) scale(1,-1) translate(50,-110)"
    />
  
  
  <line
    x1="55.71117753815796"
    y1="-5.22851960128582"
    x2="64.21786584631758"
    y2="5.245294994055237"
    stroke="hsla(0,50%,50%,0.6)"
    stroke-width="1"
    transform="translate(-47.6718932475,-33.3936256340) scale(1,-1) translate(50,-110)"
    />
  
  <line
    x1="40.094227404093836"
    y1="-5.113161313570296"
    x2="69.12610534723099"
    y2="17.762707818302555"
    stroke="hsla(0,50%,50%,0.6)"
    stroke-width="1"
    transform="translate(-47.6718932475,-33.3936256340) scale(1,-1) translate(50,-110)"
    />
  
  <line
    x1="64.21786584631758"
    y1="5.245294994055237"
    x2="81.9262003647333"
    y2="50.40660661212676"
    stroke="hsla(0,50%,50%,0.6)"
    stroke-width="1"
    transform="translate(-47.6718932475,-33.3936256340) scale(1,-1) translate(50,-110)"
    />
  
  <line
    x1="64.21786584631758"
    y1="5.245294994055237"
    x2="68.02152961458788"
    y2="63.45628206071839"
    stroke="hsla(0,50%,50%,0.6)"
    stroke-width="1"
    transform="translate(-47.6718932475,-33.3936256340) scale(1,-1) translate(50,-110)"
    />
  
  <line
    x1="50"
    y1="61.12458906363364"
    x2="50.92513023646239"
    y2="71.08170380865808"
    stroke="hsla(0,50%,50%,0.6)"
    stroke-width="1"
    transform="translate(-47.6718932475,-33.3936256340) scale(1,-1) translate(50,-110)"
    />
  
  <line
    x1="32.369900242097"
    y1="13.72894511841955"
    x2="38.68504706766675"
    y2="70.61595683711228"
    stroke="hsla(0,50%,50%,0.6)"
    stroke-width="1"
    transform="translate(-47.6718932475,-33.3936256340) scale(1,-1) translate(50,-110)"
    />
  
  <line
    x1="40.094227404093836"
    y1="-5.113161313570296"
    x2="32.3572163912315"
    y2="64.45794375589692"
    stroke="hsla(0,50%,50%,0.6)"
    stroke-width="1"
    transform="translate(-47.6718932475,-33.3936256340) scale(1,-1) translate(50,-110)"
    />
  
  <line
    x1="52.16720230587868"
    y1="61.70758776776"
    x2="51.334572626532974"
    y2="71.6728638711639"
    stroke="hsla(0,50%,50%,0.6)"
    stroke-width="1"
    transform="translate(-47.6718932475,-33.3936256340) scale(1,-1) translate(50,-110)"
    />
  
  <line
    x1="23.73661165132379"
    y1="34.78829942512922"
    x2="52.16720230587868"
    y2="61.70758776776"
    stroke="hsla(0,50%,50%,0.6)"
    stroke-width="1"
    transform="translate(-47.6718932475,-33.3936256340) scale(1,-1) translate(50,-110)"
    />
  
  <line
    x1="69.12610534723099"
    y1="17.762707818302555"
    x2="60.88224498148682"
    y2="70.1565735721957"
    stroke="hsla(0,50%,50%,0.6)"
    stroke-width="1"
    transform="translate(-47.6718932475,-33.3936256340) scale(1,-1) translate(50,-110)"
    />
  
  <line
    x1="40.094227404093836"
    y1="-5.113161313570296"
    x2="17.5005704552531"
    y2="50"
    stroke="hsla(0,50%,50%,0.6)"
    stroke-width="1"
    transform="translate(-47.6718932475,-33.3936256340) scale(1,-1) translate(50,-110)"
    />
  
  <line
    x1="17.5005704552531"
    y1="50"
    x2="38.68504706766675"
    y2="70.61595683711228"
    stroke="hsla(0,50%,50%,0.6)"
    stroke-width="1"
    transform="translate(-47.6718932475,-33.3936256340) scale(1,-1) translate(50,-110)"
    />
  
  <line
    x1="55.71117753815796"
    y1="-5.22851960128582"
    x2="32.369900242097"
    y2="13.72894511841955"
    stroke="hsla(0,50%,50%,0.6)"
    stroke-width="1"
    transform="translate(-47.6718932475,-33.3936256340) scale(1,-1) translate(50,-110)"
    />
  
  <line
    x1="23.73661165132379"
    y1="34.78829942512922"
    x2="76.21383908190145"
    y2="35.83845353704829"
    stroke="hsla(0,50%,50%,0.6)"
    stroke-width="1"
    transform="translate(-47.6718932475,-33.3936256340) scale(1,-1) translate(50,-110)"
    />
  
  <line
    x1="17.5005704552531"
    y1="50"
    x2="81.9262003647333"
    y2="50.40660661212676"
    stroke="hsla(0,50%,50%,0.6)"
    stroke-width="1"
    transform="translate(-47.6718932475,-33.3936256340) scale(1,-1) translate(50,-110)"
    />
  
  <line
    x1="50"
    y1="61.12458906363364"
    x2="68.02152961458788"
    y2="63.45628206071839"
    stroke="hsla(0,50%,50%,0.6)"
    stroke-width="1"
    transform="translate(-47.6718932475,-33.3936256340) scale(1,-1) translate(50,-110)"
    />
  
  <line
    x1="76.21383908190145"
    y1="35.83845353704829"
    x2="50"
    y2="61.12458906363364"
    stroke="hsla(0,50%,50%,0.6)"
    stroke-width="1"
    transform="translate(-47.6718932475,-33.3936256340) scale(1,-1) translate(50,-110)"
    />
  
  <line
    x1="38.68504706766675"
    y1="70.61595683711228"
    x2="51.334572626532974"
    y2="71.6728638711639"
    stroke="hsla(0,50%,50%,0.6)"
    stroke-width="1"
    transform="translate(-47.6718932475,-33.3936256340) scale(1,-1) translate(50,-110)"
    />
  
  <line
    x1="52.16720230587868"
    y1="61.70758776776"
    x2="32.3572163912315"
    y2="64.45794375589692"
    stroke="hsla(0,50%,50%,0.6)"
    stroke-width="1"
    transform="translate(-47.6718932475,-33.3936256340) scale(1,-1) translate(50,-110)"
    />
  
  <line
    x1="81.9262003647333"
    y1="50.40660661212676"
    x2="60.88224498148682"
    y2="70.1565735721957"
    stroke="hsla(0,50%,50%,0.6)"
    stroke-width="1"
    transform="translate(-47.6718932475,-33.3936256340) scale(1,-1) translate(50,-110)"
    />
  
  <line
    x1="60.88224498148682"
    y1="70.1565735721957"
    x2="50.92513023646239"
    y2="71.08170380865808"
    stroke="hsla(0,50%,50%,0.6)"
    stroke-width="1"
    transform="translate(-47.6718932475,-33.3936256340) scale(1,-1) translate(50,-110)"
    />
  
</svg>
