<?xml version="1.0"?>
<!DOCTYPE svg PUBLIC "-//W3C//DTD SVG 1.1//EN"
  "http://www.w3.org/Graphics/SVG/1.1/DTD/svg11.dtd">
<svg
  width="240"
  height="240"
  viewBox="-50 -50 200 200" xmlns="http://www.w3.org/2000/svg" version="1.1">
  <rect
    x="0"
    y="0"
    width="100"
    height="100"
    fill="hsla(206,100%,53%,0.3)"
    stroke="hsl(206,100%,53%)"
    stroke-width="3"
    transform="" />
  
  <path
    d="M 
      -61.9537572254
      598.1994219653
      L
    
      -38.7692307692
      613.6923076923
      L
    
      -17.2102564102
      619.9803418803
      L
    
      -17.8572990445
      653.6654703617
      L
    
      -87.4432228421
      678.9839186084
      L
    
      -87.2023121387
      690.1849710982
      L
    
      -97.2
      690.4
      L
    
      -101.9166666666
      684.25
      L
    
      -78
      602.25
      L
    
      -66.8363636363
      605.5060606060
      z
    "
    fill="hsla(0,0%,50%,0.3)"
    stroke="hsla(0,0%,50%,1)"
    stroke-width="1"
    transform="translate(76.2276000615,-624.0697201102) scale(1,-1) translate(50,-110)"
    />
  
  
  <line
    x1="-17.21025641025641"
    y1="619.9803418803418"
    x2="-17.85729904454057"
    y2="653.6654703617436"
    stroke="hsla(0,50%,50%,0.6)"
    stroke-width="1"
    transform="translate(76.2276000615,-624.0697201102) scale(1,-1) translate(50,-110)"
    />
  
  <line
    x1="-88.33173076923077"
    y1="637.6730769230769"
    x2="-87.20231213872832"
    y2="690.1849710982659"
    stroke="hsla(0,50%,50%,0.6)"
    stroke-width="1"
    transform="translate(76.2276000615,-624.0697201102) scale(1,-1) translate(50,-110)"
    />
  
  <line
    x1="-78"
    y1="602.25"
    x2="-101.91666666666667"
    y2="684.25"
    stroke="hsla(0,50%,50%,0.6)"
    stroke-width="1"
    transform="translate(76.2276000615,-624.0697201102) scale(1,-1) translate(50,-110)"
    />
  
  <line
    x1="-72"
    y1="604"
    x2="-97.2"
    y2="690.4"
    stroke="hsla(0,50%,50%,0.6)"
    stroke-width="1"
    transform="translate(76.2276000615,-624.0697201102) scale(1,-1) translate(50,-110)"
    />
  
  <line
    x1="-46.72614535701574"
    y1="627.3719556223709"
    x2="-42.677368166859374"
    y2="643.5393667027588"
    stroke="hsla(0,50%,50%,0.6)"
    stroke-width="1"
    transform="translate(76.2276000615,-624.0697201102) scale(1,-1) translate(50,-110)"
    />
  
  <line
    x1="-61.95375722543353"
    y1="598.1994219653179"
    x2="-88.33173076923077"
    y2="637.6730769230769"
    stroke="hsla(0,50%,50%,0.6)"
    stroke-width="1"
    transform="translate(76.2276000615,-624.0697201102) scale(1,-1) translate(50,-110)"
    />
  
  <line
    x1="-101.91666666666667"
    y1="684.25"
    x2="-97.2"
    y2="690.4"
    stroke="hsla(0,50%,50%,0.6)"
    stroke-width="1"
    transform="translate(76.2276000615,-624.0697201102) scale(1,-1) translate(50,-110)"
    />
  
  <line
    x1="-61.95375722543353"
    y1="598.1994219653179"
    x2="-17.36422640825527"
    y2="627.9960411404234"
    stroke="hsla(0,50%,50%,0.6)"
    stroke-width="1"
    transform="translate(76.2276000615,-624.0697201102) scale(1,-1) translate(50,-110)"
    />
  
  <line
    x1="-17.36422640825527"
    y1="627.9960411404234"
    x2="-42.677368166859374"
    y2="643.5393667027588"
    stroke="hsla(0,50%,50%,0.6)"
    stroke-width="1"
    transform="translate(76.2276000615,-624.0697201102) scale(1,-1) translate(50,-110)"
    />
  
  <line
    x1="-42.677368166859374"
    y1="643.5393667027588"
    x2="-17.85729904454057"
    y2="653.6654703617436"
    stroke="hsla(0,50%,50%,0.6)"
    stroke-width="1"
    transform="translate(76.2276000615,-624.0697201102) scale(1,-1) translate(50,-110)"
    />
  
  <line
    x1="-17.85729904454057"
    y1="653.6654703617436"
    x2="-101.91666666666667"
    y2="684.25"
    stroke="hsla(0,50%,50%,0.6)"
    stroke-width="1"
    transform="translate(76.2276000615,-624.0697201102) scale(1,-1) translate(50,-110)"
    />
  
  <line
    x1="-78"
    y1="602.25"
    x2="-17.21025641025641"
    y2="619.9803418803418"
    stroke="hsla(0,50%,50%,0.6)"
    stroke-width="1"
    transform="translate(76.2276000615,-624.0697201102) scale(1,-1) translate(50,-110)"
    />
  
  <line
    x1="-17.21025641025641"
    y1="619.9803418803418"
    x2="-46.72614535701574"
    y2="627.3719556223709"
    stroke="hsla(0,50%,50%,0.6)"
    stroke-width="1"
    transform="translate(76.2276000615,-624.0697201102) scale(1,-1) translate(50,-110)"
    />
  
  <line
    x1="-87.20231213872832"
    y1="690.1849710982659"
    x2="-97.2"
    y2="690.4"
    stroke="hsla(0,50%,50%,0.6)"
    stroke-width="1"
    transform="translate(76.2276000615,-624.0697201102) scale(1,-1) translate(50,-110)"
    />
  
</svg>
