<?xml version="1.0"?>
<!DOCTYPE svg PUBLIC "-//W3C//DTD SVG 1.1//EN"
  "http://www.w3.org/Graphics/SVG/1.1/DTD/svg11.dtd">
<svg
  width="240"
  height="240"
  viewBox="-500 -500 1000 1000" xmlns="http://www.w3.org/2000/svg" version="1.1">
  <rect
    x="0"
    y="0"
    width="100"
    height="100"
    fill="hsla(206,100%,53%,0.3)"
    stroke="hsl(206,100%,53%)"
    stroke-width="3"
    transform="" />
  
  <path
    d="M 
      80.1785714285
      0
      L
    
      100
      0
      L
    
      100
      43.25
      L
    
      108.5365853658
      41.3292682926
      L
    
      108.3776331381
      40.2775959956
      L
    
      108.4124763437
      40.2697562744
      L
    
      108.2550451900
      39.2281478271
      L
    
      108.2898883956
      39.2203081059
      L
    
      108.1339783158
      38.1887635083
      L
    
      108.1688215214
      38.1809237871
      L
    
      108.0144325156
      37.1594430393
      L
    
      108.0492757211
      37.1516033180
      L
    
      107.8964077893
      36.1401864199
      L
    
      114.8650489042
      34.5722421691
      L
    
      114.9748050018
      35.0600470471
      L
    
      115.2063885105
      36.5922681688
      L
    
      115.2419922531
      36.5894603724
      L
    
      115.3971417959
      37.6159730451
      L
    
      115.4327455384
      37.6131652487
      L
    
      115.5894161552
      38.6497417711
      L
    
      115.6250198977
      38.6469339747
      L
    
      115.7832115884
      39.6935743469
      L
    
      115.8188153310
      39.6907665505
      L
    
      117.7213740458
      52.2786259541
      L
    
      97.7777777777
      72.2222222222
      L
    
      95
      70
      L
    
      94.6086956521
      68.2608695652
      L
    
      76.8852459016
      46.1065573770
      z
    "
    fill="hsla(0,0%,50%,0.3)"
    stroke="hsla(0,0%,50%,1)"
    stroke-width="1"
    transform="translate(-97.3033099737,-36.1111111111)"
    />
  
  
  <line
    x1="114.86504890429615"
    y1="34.5722421691222"
    x2="114.97480500185712"
    y2="35.06004704717098"
    stroke="hsla(0,50%,50%,0.6)"
    stroke-width="1"
    transform="translate(-97.3033099737,-36.1111111111)"
    />
  
  <line
    x1="76.88524590163935"
    y1="46.10655737704918"
    x2="97.77777777777777"
    y2="72.22222222222223"
    stroke="hsla(0,50%,50%,0.6)"
    stroke-width="1"
    transform="translate(-97.3033099737,-36.1111111111)"
    />
  
  <line
    x1="89.51219512195122"
    y1="45.609756097560975"
    x2="95"
    y2="70"
    stroke="hsla(0,50%,50%,0.6)"
    stroke-width="1"
    transform="translate(-97.3033099737,-36.1111111111)"
    />
  
  <line
    x1="115.81881533101046"
    y1="39.690766550522646"
    x2="117.72137404580153"
    y2="52.278625954198475"
    stroke="hsla(0,50%,50%,0.6)"
    stroke-width="1"
    transform="translate(-97.3033099737,-36.1111111111)"
    />
  
  <line
    x1="115.62501989776968"
    y1="38.64693397477847"
    x2="117.69007633587786"
    y2="52.30992366412214"
    stroke="hsla(0,50%,50%,0.6)"
    stroke-width="1"
    transform="translate(-97.3033099737,-36.1111111111)"
    />
  
  <line
    x1="115.43274553847786"
    y1="37.613165248766336"
    x2="117.6587786259542"
    y2="52.3412213740458"
    stroke="hsla(0,50%,50%,0.6)"
    stroke-width="1"
    transform="translate(-97.3033099737,-36.1111111111)"
    />
  
  <line
    x1="115.24199225313501"
    y1="36.58946037248625"
    x2="117.62748091603054"
    y2="52.372519083969465"
    stroke="hsla(0,50%,50%,0.6)"
    stroke-width="1"
    transform="translate(-97.3033099737,-36.1111111111)"
    />
  
  <line
    x1="114.97480500185712"
    y1="35.06004704717098"
    x2="117.59618320610687"
    y2="52.40381679389313"
    stroke="hsla(0,50%,50%,0.6)"
    stroke-width="1"
    transform="translate(-97.3033099737,-36.1111111111)"
    />
  
  <line
    x1="107.89640778931357"
    y1="36.14018641999328"
    x2="111.30534351145039"
    y2="58.69465648854962"
    stroke="hsla(0,50%,50%,0.6)"
    stroke-width="1"
    transform="translate(-97.3033099737,-36.1111111111)"
    />
  
  <line
    x1="108.01443251560869"
    y1="37.15944303931799"
    x2="111.27404580152671"
    y2="58.72595419847328"
    stroke="hsla(0,50%,50%,0.6)"
    stroke-width="1"
    transform="translate(-97.3033099737,-36.1111111111)"
    />
  
  <line
    x1="108.13397831585277"
    y1="38.18876350837475"
    x2="111.24274809160305"
    y2="58.757251908396945"
    stroke="hsla(0,50%,50%,0.6)"
    stroke-width="1"
    transform="translate(-97.3033099737,-36.1111111111)"
    />
  
  <line
    x1="108.2550451900458"
    y1="39.22814782716355"
    x2="111.21145038167938"
    y2="58.78854961832061"
    stroke="hsla(0,50%,50%,0.6)"
    stroke-width="1"
    transform="translate(-97.3033099737,-36.1111111111)"
    />
  
  <line
    x1="108.3776331381878"
    y1="40.27759599568439"
    x2="111.18015267175572"
    y2="58.81984732824427"
    stroke="hsla(0,50%,50%,0.6)"
    stroke-width="1"
    transform="translate(-97.3033099737,-36.1111111111)"
    />
  
  <line
    x1="80.17857142857143"
    y1="0"
    x2="87.5670775924583"
    y2="1.0609137055837563"
    stroke="hsla(0,50%,50%,0.6)"
    stroke-width="1"
    transform="translate(-97.3033099737,-36.1111111111)"
    />
  
  <line
    x1="80.13850616388687"
    y1="1.0609137055837563"
    x2="87.4563089195069"
    y2="2.1116751269035534"
    stroke="hsla(0,50%,50%,0.6)"
    stroke-width="1"
    transform="translate(-97.3033099737,-36.1111111111)"
    />
  
  <line
    x1="80.09916606236403"
    y1="2.1116751269035534"
    x2="87.34626540971719"
    y2="3.1522842639593907"
    stroke="hsla(0,50%,50%,0.6)"
    stroke-width="1"
    transform="translate(-97.3033099737,-36.1111111111)"
    />
  
  <line
    x1="114.97480500185712"
    y1="35.06004704717098"
    x2="116.43421204098078"
    y2="53.565787959019225"
    stroke="hsla(0,50%,50%,0.6)"
    stroke-width="1"
    transform="translate(-97.3033099737,-36.1111111111)"
    />
  
  <line
    x1="80.0605511240029"
    y1="3.1522842639593907"
    x2="87.23694706308919"
    y2="4.182741116751269"
    stroke="hsla(0,50%,50%,0.6)"
    stroke-width="1"
    transform="translate(-97.3033099737,-36.1111111111)"
    />
  
  <line
    x1="80.02266134880348"
    y1="4.182741116751269"
    x2="87.12835387962292"
    y2="5.2030456852791875"
    stroke="hsla(0,50%,50%,0.6)"
    stroke-width="1"
    transform="translate(-97.3033099737,-36.1111111111)"
    />
  
  <line
    x1="79.94978245105149"
    y1="5.2030456852791875"
    x2="86.98477157360406"
    y2="6.213197969543147"
    stroke="hsla(0,50%,50%,0.6)"
    stroke-width="1"
    transform="translate(-97.3033099737,-36.1111111111)"
    />
  
  <line
    x1="95"
    y1="70"
    x2="97.77777777777777"
    y2="72.22222222222223"
    stroke="hsla(0,50%,50%,0.6)"
    stroke-width="1"
    transform="translate(-97.3033099737,-36.1111111111)"
    />
  
  <line
    x1="80.17857142857143"
    y1="0"
    x2="100"
    y2="0"
    stroke="hsla(0,50%,50%,0.6)"
    stroke-width="1"
    transform="translate(-97.3033099737,-36.1111111111)"
    />
  
  <line
    x1="100"
    y1="0"
    x2="100"
    y2="70"
    stroke="hsla(0,50%,50%,0.6)"
    stroke-width="1"
    transform="translate(-97.3033099737,-36.1111111111)"
    />
  
  <line
    x1="80.13850616388687"
    y1="1.0609137055837563"
    x2="87.5670775924583"
    y2="1.0609137055837563"
    stroke="hsla(0,50%,50%,0.6)"
    stroke-width="1"
    transform="translate(-97.3033099737,-36.1111111111)"
    />
  
  <line
    x1="80.09916606236403"
    y1="2.1116751269035534"
    x2="87.4563089195069"
    y2="2.1116751269035534"
    stroke="hsla(0,50%,50%,0.6)"
    stroke-width="1"
    transform="translate(-97.3033099737,-36.1111111111)"
    />
  
  <line
    x1="80.0605511240029"
    y1="3.1522842639593907"
    x2="87.34626540971719"
    y2="3.1522842639593907"
    stroke="hsla(0,50%,50%,0.6)"
    stroke-width="1"
    transform="translate(-97.3033099737,-36.1111111111)"
    />
  
  <line
    x1="80.02266134880348"
    y1="4.182741116751269"
    x2="87.23694706308919"
    y2="4.182741116751269"
    stroke="hsla(0,50%,50%,0.6)"
    stroke-width="1"
    transform="translate(-97.3033099737,-36.1111111111)"
    />
  
  <line
    x1="79.94978245105149"
    y1="5.2030456852791875"
    x2="87.12835387962292"
    y2="5.2030456852791875"
    stroke="hsla(0,50%,50%,0.6)"
    stroke-width="1"
    transform="translate(-97.3033099737,-36.1111111111)"
    />
  
  <line
    x1="80.17857142857143"
    y1="0"
    x2="76.88524590163935"
    y2="46.10655737704918"
    stroke="hsla(0,50%,50%,0.6)"
    stroke-width="1"
    transform="translate(-97.3033099737,-36.1111111111)"
    />
  
  <line
    x1="80.13850616388687"
    y1="1.0609137055837563"
    x2="76.91803278688525"
    y2="46.14754098360656"
    stroke="hsla(0,50%,50%,0.6)"
    stroke-width="1"
    transform="translate(-97.3033099737,-36.1111111111)"
    />
  
  <line
    x1="80.09916606236403"
    y1="2.1116751269035534"
    x2="76.95081967213115"
    y2="46.18852459016394"
    stroke="hsla(0,50%,50%,0.6)"
    stroke-width="1"
    transform="translate(-97.3033099737,-36.1111111111)"
    />
  
  <line
    x1="80.0605511240029"
    y1="3.1522842639593907"
    x2="76.98360655737704"
    y2="46.22950819672131"
    stroke="hsla(0,50%,50%,0.6)"
    stroke-width="1"
    transform="translate(-97.3033099737,-36.1111111111)"
    />
  
  <line
    x1="80.02266134880348"
    y1="4.182741116751269"
    x2="77.01639344262296"
    y2="46.27049180327869"
    stroke="hsla(0,50%,50%,0.6)"
    stroke-width="1"
    transform="translate(-97.3033099737,-36.1111111111)"
    />
  
  <line
    x1="87.12835387962292"
    y1="5.2030456852791875"
    x2="83.60655737704919"
    y2="54.50819672131148"
    stroke="hsla(0,50%,50%,0.6)"
    stroke-width="1"
    transform="translate(-97.3033099737,-36.1111111111)"
    />
  
  <line
    x1="87.23694706308919"
    y1="4.182741116751269"
    x2="83.63934426229508"
    y2="54.549180327868854"
    stroke="hsla(0,50%,50%,0.6)"
    stroke-width="1"
    transform="translate(-97.3033099737,-36.1111111111)"
    />
  
  <line
    x1="87.34626540971719"
    y1="3.1522842639593907"
    x2="83.67213114754098"
    y2="54.59016393442623"
    stroke="hsla(0,50%,50%,0.6)"
    stroke-width="1"
    transform="translate(-97.3033099737,-36.1111111111)"
    />
  
  <line
    x1="87.4563089195069"
    y1="2.1116751269035534"
    x2="83.70491803278688"
    y2="54.631147540983605"
    stroke="hsla(0,50%,50%,0.6)"
    stroke-width="1"
    transform="translate(-97.3033099737,-36.1111111111)"
    />
  
  <line
    x1="87.5670775924583"
    y1="1.0609137055837563"
    x2="83.73770491803279"
    y2="54.67213114754098"
    stroke="hsla(0,50%,50%,0.6)"
    stroke-width="1"
    transform="translate(-97.3033099737,-36.1111111111)"
    />
  
  <line
    x1="86.98477157360406"
    y1="6.213197969543147"
    x2="80.59130434782608"
    y2="50.73913043478261"
    stroke="hsla(0,50%,50%,0.6)"
    stroke-width="1"
    transform="translate(-97.3033099737,-36.1111111111)"
    />
  
  <line
    x1="76.88524590163935"
    y1="46.10655737704918"
    x2="117.72137404580153"
    y2="52.278625954198475"
    stroke="hsla(0,50%,50%,0.6)"
    stroke-width="1"
    transform="translate(-97.3033099737,-36.1111111111)"
    />
  
  <line
    x1="76.91803278688525"
    y1="46.14754098360656"
    x2="117.69007633587786"
    y2="52.30992366412214"
    stroke="hsla(0,50%,50%,0.6)"
    stroke-width="1"
    transform="translate(-97.3033099737,-36.1111111111)"
    />
  
  <line
    x1="76.95081967213115"
    y1="46.18852459016394"
    x2="117.6587786259542"
    y2="52.3412213740458"
    stroke="hsla(0,50%,50%,0.6)"
    stroke-width="1"
    transform="translate(-97.3033099737,-36.1111111111)"
    />
  
  <line
    x1="76.98360655737704"
    y1="46.22950819672131"
    x2="117.62748091603054"
    y2="52.372519083969465"
    stroke="hsla(0,50%,50%,0.6)"
    stroke-width="1"
    transform="translate(-97.3033099737,-36.1111111111)"
    />
  
  <line
    x1="77.01639344262296"
    y1="46.27049180327869"
    x2="117.59618320610687"
    y2="52.40381679389313"
    stroke="hsla(0,50%,50%,0.6)"
    stroke-width="1"
    transform="translate(-97.3033099737,-36.1111111111)"
    />
  
  <line
    x1="83.60655737704919"
    y1="54.50819672131148"
    x2="111.30534351145039"
    y2="58.69465648854962"
    stroke="hsla(0,50%,50%,0.6)"
    stroke-width="1"
    transform="translate(-97.3033099737,-36.1111111111)"
    />
  
  <line
    x1="83.63934426229508"
    y1="54.549180327868854"
    x2="111.27404580152671"
    y2="58.72595419847328"
    stroke="hsla(0,50%,50%,0.6)"
    stroke-width="1"
    transform="translate(-97.3033099737,-36.1111111111)"
    />
  
  <line
    x1="83.67213114754098"
    y1="54.59016393442623"
    x2="111.24274809160305"
    y2="58.757251908396945"
    stroke="hsla(0,50%,50%,0.6)"
    stroke-width="1"
    transform="translate(-97.3033099737,-36.1111111111)"
    />
  
  <line
    x1="83.70491803278688"
    y1="54.631147540983605"
    x2="111.21145038167938"
    y2="58.78854961832061"
    stroke="hsla(0,50%,50%,0.6)"
    stroke-width="1"
    transform="translate(-97.3033099737,-36.1111111111)"
    />
  
  <line
    x1="83.73770491803279"
    y1="54.67213114754098"
    x2="111.18015267175572"
    y2="58.81984732824427"
    stroke="hsla(0,50%,50%,0.6)"
    stroke-width="1"
    transform="translate(-97.3033099737,-36.1111111111)"
    />
  
  <line
    x1="80.59130434782608"
    y1="50.73913043478261"
    x2="116.43421204098078"
    y2="53.565787959019225"
    stroke="hsla(0,50%,50%,0.6)"
    stroke-width="1"
    transform="translate(-97.3033099737,-36.1111111111)"
    />
  
  <line
    x1="115.0527600417411"
    y1="35.5758193459382"
    x2="107.89640778931357"
    y2="36.14018641999328"
    stroke="hsla(0,50%,50%,0.6)"
    stroke-width="1"
    transform="translate(-97.3033099737,-36.1111111111)"
    />
  
  <line
    x1="115.24199225313501"
    y1="36.58946037248625"
    x2="108.01443251560869"
    y2="37.15944303931799"
    stroke="hsla(0,50%,50%,0.6)"
    stroke-width="1"
    transform="translate(-97.3033099737,-36.1111111111)"
    />
  
  <line
    x1="115.43274553847786"
    y1="37.613165248766336"
    x2="108.13397831585277"
    y2="38.18876350837475"
    stroke="hsla(0,50%,50%,0.6)"
    stroke-width="1"
    transform="translate(-97.3033099737,-36.1111111111)"
    />
  
  <line
    x1="115.62501989776968"
    y1="38.64693397477847"
    x2="108.2550451900458"
    y2="39.22814782716355"
    stroke="hsla(0,50%,50%,0.6)"
    stroke-width="1"
    transform="translate(-97.3033099737,-36.1111111111)"
    />
  
  <line
    x1="115.81881533101046"
    y1="39.690766550522646"
    x2="108.3776331381878"
    y2="40.27759599568439"
    stroke="hsla(0,50%,50%,0.6)"
    stroke-width="1"
    transform="translate(-97.3033099737,-36.1111111111)"
    />
  
  <line
    x1="114.86504890429615"
    y1="34.5722421691222"
    x2="107.89640778931357"
    y2="36.14018641999328"
    stroke="hsla(0,50%,50%,0.6)"
    stroke-width="1"
    transform="translate(-97.3033099737,-36.1111111111)"
    />
  
  <line
    x1="115.0527600417411"
    y1="35.5758193459382"
    x2="108.01443251560869"
    y2="37.15944303931799"
    stroke="hsla(0,50%,50%,0.6)"
    stroke-width="1"
    transform="translate(-97.3033099737,-36.1111111111)"
    />
  
  <line
    x1="115.24199225313501"
    y1="36.58946037248625"
    x2="108.13397831585277"
    y2="38.18876350837475"
    stroke="hsla(0,50%,50%,0.6)"
    stroke-width="1"
    transform="translate(-97.3033099737,-36.1111111111)"
    />
  
  <line
    x1="115.43274553847786"
    y1="37.613165248766336"
    x2="108.2550451900458"
    y2="39.22814782716355"
    stroke="hsla(0,50%,50%,0.6)"
    stroke-width="1"
    transform="translate(-97.3033099737,-36.1111111111)"
    />
  
  <line
    x1="115.62501989776968"
    y1="38.64693397477847"
    x2="108.3776331381878"
    y2="40.27759599568439"
    stroke="hsla(0,50%,50%,0.6)"
    stroke-width="1"
    transform="translate(-97.3033099737,-36.1111111111)"
    />
  
  <line
    x1="115.81881533101046"
    y1="39.690766550522646"
    x2="89.51219512195122"
    y2="45.609756097560975"
    stroke="hsla(0,50%,50%,0.6)"
    stroke-width="1"
    transform="translate(-97.3033099737,-36.1111111111)"
    />
  
  <line
    x1="95"
    y1="70"
    x2="100"
    y2="70"
    stroke="hsla(0,50%,50%,0.6)"
    stroke-width="1"
    transform="translate(-97.3033099737,-36.1111111111)"
    />
  
  <line
    x1="117.72137404580153"
    y1="52.278625954198475"
    x2="97.77777777777777"
    y2="72.22222222222223"
    stroke="hsla(0,50%,50%,0.6)"
    stroke-width="1"
    transform="translate(-97.3033099737,-36.1111111111)"
    />
  
</svg>
