<?xml version="1.0"?>
<!DOCTYPE svg PUBLIC "-//W3C//DTD SVG 1.1//EN"
  "http://www.w3.org/Graphics/SVG/1.1/DTD/svg11.dtd">
<svg
  width="240"
  height="240"
  viewBox="-50 -50 200 200" xmlns="http://www.w3.org/2000/svg" version="1.1">
  <rect
    x="0"
    y="0"
    width="100"
    height="100"
    fill="hsla(206,100%,53%,0.3)"
    stroke="hsl(206,100%,53%)"
    stroke-width="3"
    transform="" />
  
  <path
    d="M 
      -34.9796458178
      -41.9318086513
      L
    
      -26.8909933514
      -15.0057766400
      L
    
      -20.2839756592
      -21.2981744421
      L
    
      -0.0000000000
      -0.0000000000
      L
    
      -18.1034482758
      17.2413793103
      L
    
      -54.3610547667
      11.1561866125
      L
    
      -61.7706717575
      -3.1735231234
      L
    
      -46.8559837728
      -38.3641247738
      z
    "
    fill="hsla(0,0%,50%,0.3)"
    stroke="hsla(0,0%,50%,1)"
    stroke-width="1"
    transform="translate(39.6025864040,14.7350019565) scale(1,-1) translate(50,-110)"
    />
  
  <path
    d="M 
      -28.9682164000
      -13.0274689747
      L
    
      -33.1113273455
      -11.7828672988
      L
    
      -32.1754563894
      -9.9729546991
      z
    "
    fill="hsla(0,0%,50%,0.3)"
    stroke="hsla(0,0%,50%,1)"
    stroke-width="1"
    transform="translate(39.6025864040,14.7350019565) scale(1,-1) translate(50,-110)"
    />
  
  
  <line
    x1="-34.97964581787684"
    y1="-41.931808651333824"
    x2="-46.85598377281947"
    y2="-38.36412477386108"
    stroke="hsla(0,50%,50%,0.6)"
    stroke-width="1"
    transform="translate(39.6025864040,14.7350019565) scale(1,-1) translate(50,-110)"
    />
  
  <line
    x1="-33.28728295292182"
    y1="-36.29816115988668"
    x2="-49.83892136976495"
    y2="-31.32600444377082"
    stroke="hsla(0,50%,50%,0.6)"
    stroke-width="1"
    transform="translate(39.6025864040,14.7350019565) scale(1,-1) translate(50,-110)"
    />
  
  <line
    x1="-46.85598377281947"
    y1="-38.36412477386108"
    x2="-61.77067175754683"
    y2="-3.1735231234097716"
    stroke="hsla(0,50%,50%,0.6)"
    stroke-width="1"
    transform="translate(39.6025864040,14.7350019565) scale(1,-1) translate(50,-110)"
    />
  
  <line
    x1="-20.28397565922921"
    y1="-21.29817444219067"
    x2="-54.36105476673428"
    y2="11.156186612576064"
    stroke="hsla(0,50%,50%,0.6)"
    stroke-width="1"
    transform="translate(39.6025864040,14.7350019565) scale(1,-1) translate(50,-110)"
    />
  
  <line
    x1="-26.517831493101742"
    y1="-13.763571194098104"
    x2="-61.77067175754683"
    y2="-3.1735231234097716"
    stroke="hsla(0,50%,50%,0.6)"
    stroke-width="1"
    transform="translate(39.6025864040,14.7350019565) scale(1,-1) translate(50,-110)"
    />
  
  <line
    x1="-4.056795131845842"
    y1="-4.259634888438134"
    x2="-25.35496957403651"
    y2="16.024340770791074"
    stroke="hsla(0,50%,50%,0.6)"
    stroke-width="1"
    transform="translate(39.6025864040,14.7350019565) scale(1,-1) translate(50,-110)"
    />
  
  <line
    x1="-8.448877245162707e-20"
    y1="-8.871321107420843e-20"
    x2="-18.103448275862068"
    y2="17.24137931034483"
    stroke="hsla(0,50%,50%,0.6)"
    stroke-width="1"
    transform="translate(39.6025864040,14.7350019565) scale(1,-1) translate(50,-110)"
    />
  
  <line
    x1="-4.2244386225813535e-20"
    y1="-4.4356605537104214e-20"
    x2="-18.103448275862068"
    y2="17.24137931034483"
    stroke="hsla(0,50%,50%,0.6)"
    stroke-width="1"
    transform="translate(39.6025864040,14.7350019565) scale(1,-1) translate(50,-110)"
    />
  
  <line
    x1="-8.448877245162707e-20"
    y1="-8.871321107420843e-20"
    x2="-4.2244386225813535e-20"
    y2="-4.4356605537104214e-20"
    stroke="hsla(0,50%,50%,0.6)"
    stroke-width="1"
    transform="translate(39.6025864040,14.7350019565) scale(1,-1) translate(50,-110)"
    />
  
  <line
    x1="-20.28397565922921"
    y1="-21.29817444219067"
    x2="-4.2244386225813535e-20"
    y2="-4.4356605537104214e-20"
    stroke="hsla(0,50%,50%,0.6)"
    stroke-width="1"
    transform="translate(39.6025864040,14.7350019565) scale(1,-1) translate(50,-110)"
    />
  
  <line
    x1="-34.97964581787684"
    y1="-41.931808651333824"
    x2="-26.517831493101742"
    y2="-13.763571194098104"
    stroke="hsla(0,50%,50%,0.6)"
    stroke-width="1"
    transform="translate(39.6025864040,14.7350019565) scale(1,-1) translate(50,-110)"
    />
  
  <line
    x1="-46.85598377281947"
    y1="-38.36412477386108"
    x2="-18.103448275862068"
    y2="17.24137931034483"
    stroke="hsla(0,50%,50%,0.6)"
    stroke-width="1"
    transform="translate(39.6025864040,14.7350019565) scale(1,-1) translate(50,-110)"
    />
  
  <line
    x1="-49.83892136976495"
    y1="-31.32600444377082"
    x2="-25.35496957403651"
    y2="16.024340770791074"
    stroke="hsla(0,50%,50%,0.6)"
    stroke-width="1"
    transform="translate(39.6025864040,14.7350019565) scale(1,-1) translate(50,-110)"
    />
  
  <line
    x1="-54.36105476673428"
    y1="11.156186612576064"
    x2="-18.103448275862068"
    y2="17.24137931034483"
    stroke="hsla(0,50%,50%,0.6)"
    stroke-width="1"
    transform="translate(39.6025864040,14.7350019565) scale(1,-1) translate(50,-110)"
    />
  
  <line
    x1="-61.77067175754683"
    y1="-3.1735231234097716"
    x2="-54.36105476673428"
    y2="11.156186612576064"
    stroke="hsla(0,50%,50%,0.6)"
    stroke-width="1"
    transform="translate(39.6025864040,14.7350019565) scale(1,-1) translate(50,-110)"
    />
  
</svg>
