<?xml version="1.0"?>
<!DOCTYPE svg PUBLIC "-//W3C//DTD SVG 1.1//EN"
  "http://www.w3.org/Graphics/SVG/1.1/DTD/svg11.dtd">
<svg
  width="240"
  height="240"
  viewBox="-500 -500 1000 1000" xmlns="http://www.w3.org/2000/svg" version="1.1">
  <rect
    x="0"
    y="0"
    width="100"
    height="100"
    fill="hsla(206,100%,53%,0.3)"
    stroke="hsl(206,100%,53%)"
    stroke-width="3"
    transform="" />
  
  <path
    d="M 
      95.3547267266
      -99.9282218409
      L
    
      99.9991604397
      -0.0361338885
      L
    
      99.2219958167
      0
      L
    
      37.1052101896
      1.4432651951
      L
    
      -0.0155921367
      1.9700394515
      L
    
      -4.5373612257
      -95.2837881278
      z
    "
    fill="hsla(0,0%,50%,0.3)"
    stroke="hsla(0,0%,50%,1)"
    stroke-width="1"
    transform="translate(-47.7308996070,48.9790911947)"
    />
  
  
  <line
    x1="95.35472672662252"
    y1="-99.92822184094577"
    x2="-4.53736122574896"
    y2="-95.28378812781301"
    stroke="hsla(0,50%,50%,0.6)"
    stroke-width="1"
    transform="translate(-47.7308996070,48.9790911947)"
    />
  
  <line
    x1="95.35472672662252"
    y1="-99.92822184094577"
    x2="99.99916043975527"
    y2="-0.03613388857430823"
    stroke="hsla(0,50%,50%,0.6)"
    stroke-width="1"
    transform="translate(-47.7308996070,48.9790911947)"
    />
  
  <line
    x1="0.032160065123361906"
    y1="-0.6706392743170033"
    x2="72.04157596766247"
    y2="0.6315290393809772"
    stroke="hsla(0,50%,50%,0.6)"
    stroke-width="1"
    transform="translate(-47.7308996070,48.9790911947)"
    />
  
  <line
    x1="81.81270327503452"
    y1="0"
    x2="99.22199581679604"
    y2="0"
    stroke="hsla(0,50%,50%,0.6)"
    stroke-width="1"
    transform="translate(-47.7308996070,48.9790911947)"
    />
  
  <line
    x1="0.032160065123361906"
    y1="-0.6706392743170033"
    x2="-0.015592136729040558"
    y2="1.970039451527945"
    stroke="hsla(0,50%,50%,0.6)"
    stroke-width="1"
    transform="translate(-47.7308996070,48.9790911947)"
    />
  
  <line
    x1="-4.53736122574896"
    y1="-95.28378812781301"
    x2="-0.015592136729040558"
    y2="1.970039451527945"
    stroke="hsla(0,50%,50%,0.6)"
    stroke-width="1"
    transform="translate(-47.7308996070,48.9790911947)"
    />
  
  <line
    x1="37.10521018961617"
    y1="1.4432651951039484"
    x2="-0.015592136729040558"
    y2="1.970039451527945"
    stroke="hsla(0,50%,50%,0.6)"
    stroke-width="1"
    transform="translate(-47.7308996070,48.9790911947)"
    />
  
  <line
    x1="99.22199581679604"
    y1="0"
    x2="37.10521018961617"
    y2="1.4432651951039484"
    stroke="hsla(0,50%,50%,0.6)"
    stroke-width="1"
    transform="translate(-47.7308996070,48.9790911947)"
    />
  
  <line
    x1="81.81270327503452"
    y1="0"
    x2="37.10521018961617"
    y2="1.4432651951039484"
    stroke="hsla(0,50%,50%,0.6)"
    stroke-width="1"
    transform="translate(-47.7308996070,48.9790911947)"
    />
  
  <line
    x1="99.99916043975527"
    y1="-0.03613388857430823"
    x2="99.22199581679604"
    y2="0"
    stroke="hsla(0,50%,50%,0.6)"
    stroke-width="1"
    transform="translate(-47.7308996070,48.9790911947)"
    />
  
  <line
    x1="81.81270327503452"
    y1="0"
    x2="72.04157596766247"
    y2="0.6315290393809772"
    stroke="hsla(0,50%,50%,0.6)"
    stroke-width="1"
    transform="translate(-47.7308996070,48.9790911947)"
    />
  
</svg>
