<?xml version="1.0"?>
<!DOCTYPE svg PUBLIC "-//W3C//DTD SVG 1.1//EN"
  "http://www.w3.org/Graphics/SVG/1.1/DTD/svg11.dtd">
<svg
  width="240"
  height="240"
  viewBox="-50 -50 200 200" xmlns="http://www.w3.org/2000/svg" version="1.1">
  <rect
    x="0"
    y="0"
    width="100"
    height="100"
    fill="hsla(206,100%,53%,0.3)"
    stroke="hsl(206,100%,53%)"
    stroke-width="3"
    transform="" />
  
  <path
    d="M 
      30.9474502834
      0
      L
    
      100
      0
      L
    
      100
      11.7115629891
      L
    
      87.0421013734
      100
      L
    
      0
      100
      L
    
      0
      64.7485451608
      z
    "
    fill="hsla(0,0%,50%,0.3)"
    stroke="hsla(0,0%,50%,1)"
    stroke-width="1"
    transform="translate(-21.2223704930,-70.6062452672) scale(1,-1) translate(50,-110)"
    />
  
  
  <line
    x1="30.947450283424672"
    y1="0"
    x2="50.38458124878702"
    y2="24.081997817465098"
    stroke="hsla(0,50%,50%,0.6)"
    stroke-width="1"
    transform="translate(-21.2223704930,-70.6062452672) scale(1,-1) translate(50,-110)"
    />
  
  <line
    x1="30.947450283424672"
    y1="0"
    x2="100"
    y2="0"
    stroke="hsla(0,50%,50%,0.6)"
    stroke-width="1"
    transform="translate(-21.2223704930,-70.6062452672) scale(1,-1) translate(50,-110)"
    />
  
  <line
    x1="0"
    y1="64.74854516086566"
    x2="0"
    y2="100"
    stroke="hsla(0,50%,50%,0.6)"
    stroke-width="1"
    transform="translate(-21.2223704930,-70.6062452672) scale(1,-1) translate(50,-110)"
    />
  
  <line
    x1="100"
    y1="0"
    x2="100"
    y2="11.711562989145314"
    stroke="hsla(0,50%,50%,0.6)"
    stroke-width="1"
    transform="translate(-21.2223704930,-70.6062452672) scale(1,-1) translate(50,-110)"
    />
  
  <line
    x1="30.947450283424672"
    y1="0"
    x2="0"
    y2="64.74854516086566"
    stroke="hsla(0,50%,50%,0.6)"
    stroke-width="1"
    transform="translate(-21.2223704930,-70.6062452672) scale(1,-1) translate(50,-110)"
    />
  
  <line
    x1="100"
    y1="11.711562989145314"
    x2="87.04210137344995"
    y2="100"
    stroke="hsla(0,50%,50%,0.6)"
    stroke-width="1"
    transform="translate(-21.2223704930,-70.6062452672) scale(1,-1) translate(50,-110)"
    />
  
  <line
    x1="100"
    y1="11.711562989145314"
    x2="74.63067782748324"
    y2="96.27660069579277"
    stroke="hsla(0,50%,50%,0.6)"
    stroke-width="1"
    transform="translate(-21.2223704930,-70.6062452672) scale(1,-1) translate(50,-110)"
    />
  
  <line
    x1="50.38458124878702"
    y1="24.081997817465098"
    x2="0"
    y2="64.74854516086566"
    stroke="hsla(0,50%,50%,0.6)"
    stroke-width="1"
    transform="translate(-21.2223704930,-70.6062452672) scale(1,-1) translate(50,-110)"
    />
  
  <line
    x1="74.63067782748324"
    y1="96.27660069579277"
    x2="87.04210137344995"
    y2="100"
    stroke="hsla(0,50%,50%,0.6)"
    stroke-width="1"
    transform="translate(-21.2223704930,-70.6062452672) scale(1,-1) translate(50,-110)"
    />
  
  <line
    x1="0"
    y1="100"
    x2="87.04210137344995"
    y2="100"
    stroke="hsla(0,50%,50%,0.6)"
    stroke-width="1"
    transform="translate(-21.2223704930,-70.6062452672) scale(1,-1) translate(50,-110)"
    />
  
</svg>
