<?xml version="1.0"?>
<!DOCTYPE svg PUBLIC "-//W3C//DTD SVG 1.1//EN"
  "http://www.w3.org/Graphics/SVG/1.1/DTD/svg11.dtd">
<svg
  width="240"
  height="240"
  viewBox="-500 -500 1000 1000" xmlns="http://www.w3.org/2000/svg" version="1.1">
  <rect
    x="0"
    y="0"
    width="100"
    height="100"
    fill="hsla(206,100%,53%,0.3)"
    stroke="hsl(206,100%,53%)"
    stroke-width="3"
    transform="" />
  
  <path
    d="M 
      70.0756439275
      -41.5861160183
      L
    
      102.6829818341
      -29.3447915123
      L
    
      107.8157706208
      -7.2856327351
      L
    
      140.5298481624
      6.3645925393
      L
    
      121.5666907621
      51.8116228375
      L
    
      129.3191988381
      85.1295351219
      L
    
      128.5492369057
      87.1804903833
      L
    
      109.7530689724
      80.1241035112
      L
    
      64.0538046495
      -25.5456828069
      z
    "
    fill="hsla(0,0%,50%,0.3)"
    stroke="hsla(0,0%,50%,1)"
    stroke-width="1"
    transform="translate(-102.2918264060,-22.7971871825)"
    />
  
  
  <line
    x1="70.0756439275892"
    y1="-41.58611601835651"
    x2="102.6829818341667"
    y2="-29.34479151238104"
    stroke="hsla(0,50%,50%,0.6)"
    stroke-width="1"
    transform="translate(-102.2918264060,-22.7971871825)"
    />
  
  <line
    x1="64.05380464958822"
    y1="-25.545682806980594"
    x2="140.52984816245257"
    y2="6.364592539303637"
    stroke="hsla(0,50%,50%,0.6)"
    stroke-width="1"
    transform="translate(-102.2918264060,-22.7971871825)"
    />
  
  <line
    x1="64.05380464958822"
    y1="-25.545682806980594"
    x2="109.75306897244793"
    y2="80.12410351120397"
    stroke="hsla(0,50%,50%,0.6)"
    stroke-width="1"
    transform="translate(-102.2918264060,-22.7971871825)"
    />
  
  <line
    x1="102.6829818341667"
    y1="-29.34479151238104"
    x2="129.3191988381087"
    y2="85.1295351219347"
    stroke="hsla(0,50%,50%,0.6)"
    stroke-width="1"
    transform="translate(-102.2918264060,-22.7971871825)"
    />
  
  <line
    x1="100"
    y1="57.57221499536282"
    x2="129.3191988381087"
    y2="85.1295351219347"
    stroke="hsla(0,50%,50%,0.6)"
    stroke-width="1"
    transform="translate(-102.2918264060,-22.7971871825)"
    />
  
  <line
    x1="75.1016069739811"
    y1="0"
    x2="100"
    y2="0"
    stroke="hsla(0,50%,50%,0.6)"
    stroke-width="1"
    transform="translate(-102.2918264060,-22.7971871825)"
    />
  
  <line
    x1="100"
    y1="0"
    x2="100"
    y2="57.57221499536282"
    stroke="hsla(0,50%,50%,0.6)"
    stroke-width="1"
    transform="translate(-102.2918264060,-22.7971871825)"
    />
  
  <line
    x1="70.0756439275892"
    y1="-41.58611601835651"
    x2="64.05380464958822"
    y2="-25.545682806980594"
    stroke="hsla(0,50%,50%,0.6)"
    stroke-width="1"
    transform="translate(-102.2918264060,-22.7971871825)"
    />
  
  <line
    x1="109.75306897244793"
    y1="80.12410351120397"
    x2="128.54923690577994"
    y2="87.1804903833845"
    stroke="hsla(0,50%,50%,0.6)"
    stroke-width="1"
    transform="translate(-102.2918264060,-22.7971871825)"
    />
  
  <line
    x1="102.6829818341667"
    y1="-29.34479151238104"
    x2="75.1016069739811"
    y2="0"
    stroke="hsla(0,50%,50%,0.6)"
    stroke-width="1"
    transform="translate(-102.2918264060,-22.7971871825)"
    />
  
  <line
    x1="140.52984816245257"
    y1="6.364592539303637"
    x2="109.75306897244793"
    y2="80.12410351120397"
    stroke="hsla(0,50%,50%,0.6)"
    stroke-width="1"
    transform="translate(-102.2918264060,-22.7971871825)"
    />
  
  <line
    x1="129.3191988381087"
    y1="85.1295351219347"
    x2="128.54923690577994"
    y2="87.1804903833845"
    stroke="hsla(0,50%,50%,0.6)"
    stroke-width="1"
    transform="translate(-102.2918264060,-22.7971871825)"
    />
  
</svg>
