<?xml version="1.0"?>
<!DOCTYPE svg PUBLIC "-//W3C//DTD SVG 1.1//EN"
  "http://www.w3.org/Graphics/SVG/1.1/DTD/svg11.dtd">
<svg
  width="240"
  height="240"
  viewBox="-500 -500 1000 1000" xmlns="http://www.w3.org/2000/svg" version="1.1">
  <rect
    x="0"
    y="0"
    width="100"
    height="100"
    fill="hsla(206,100%,53%,0.3)"
    stroke="hsl(206,100%,53%)"
    stroke-width="3"
    transform="" />
  
  <path
    d="M 
      115.9850033565
      27.7668516656
      L
    
      165.0893266382
      44.2683203077
      L
    
      133.2349489036
      139.0591353645
      L
    
      121.8629028164
      135.2375683545
      L
    
      77.9877288040
      58.6355314604
      z
    "
    fill="hsla(0,0%,50%,0.3)"
    stroke="hsla(0,0%,50%,1)"
    stroke-width="1"
    transform="translate(-121.5385277211,-83.4129935151)"
    />
  
  
  <line
    x1="77.98772880404121"
    y1="58.63553146045023"
    x2="121.86290281646828"
    y2="135.2375683545272"
    stroke="hsla(0,50%,50%,0.6)"
    stroke-width="1"
    transform="translate(-121.5385277211,-83.4129935151)"
    />
  
  <line
    x1="115.98500335650796"
    y1="27.76685166566041"
    x2="121.65426766674368"
    y2="75.62943402919332"
    stroke="hsla(0,50%,50%,0.6)"
    stroke-width="1"
    transform="translate(-121.5385277211,-83.4129935151)"
    />
  
  <line
    x1="115.98500335650796"
    y1="27.76685166566041"
    x2="165.0893266382049"
    y2="44.2683203077006"
    stroke="hsla(0,50%,50%,0.6)"
    stroke-width="1"
    transform="translate(-121.5385277211,-83.4129935151)"
    />
  
  <line
    x1="77.98772880404121"
    y1="58.63553146045023"
    x2="100"
    y2="78.19435553541145"
    stroke="hsla(0,50%,50%,0.6)"
    stroke-width="1"
    transform="translate(-121.5385277211,-83.4129935151)"
    />
  
  <line
    x1="100"
    y1="40.75293964018992"
    x2="100"
    y2="78.19435553541145"
    stroke="hsla(0,50%,50%,0.6)"
    stroke-width="1"
    transform="translate(-121.5385277211,-83.4129935151)"
    />
  
  <line
    x1="100"
    y1="40.75293964018992"
    x2="139.88884985808576"
    y2="49.10049894312719"
    stroke="hsla(0,50%,50%,0.6)"
    stroke-width="1"
    transform="translate(-121.5385277211,-83.4129935151)"
    />
  
  <line
    x1="139.88884985808576"
    y1="49.10049894312719"
    x2="121.86290281646828"
    y2="135.2375683545272"
    stroke="hsla(0,50%,50%,0.6)"
    stroke-width="1"
    transform="translate(-121.5385277211,-83.4129935151)"
    />
  
  <line
    x1="165.0893266382049"
    y1="44.2683203077006"
    x2="133.23494890366146"
    y2="139.05913536456686"
    stroke="hsla(0,50%,50%,0.6)"
    stroke-width="1"
    transform="translate(-121.5385277211,-83.4129935151)"
    />
  
  <line
    x1="115.98500335650796"
    y1="27.76685166566041"
    x2="77.98772880404121"
    y2="58.63553146045023"
    stroke="hsla(0,50%,50%,0.6)"
    stroke-width="1"
    transform="translate(-121.5385277211,-83.4129935151)"
    />
  
  <line
    x1="121.86290281646828"
    y1="135.2375683545272"
    x2="133.23494890366146"
    y2="139.05913536456686"
    stroke="hsla(0,50%,50%,0.6)"
    stroke-width="1"
    transform="translate(-121.5385277211,-83.4129935151)"
    />
  
  <line
    x1="121.65426766674368"
    y1="75.62943402919332"
    x2="100"
    y2="78.19435553541145"
    stroke="hsla(0,50%,50%,0.6)"
    stroke-width="1"
    transform="translate(-121.5385277211,-83.4129935151)"
    />
  
</svg>
