<?xml version="1.0"?>
<!DOCTYPE svg PUBLIC "-//W3C//DTD SVG 1.1//EN"
  "http://www.w3.org/Graphics/SVG/1.1/DTD/svg11.dtd">
<svg
  width="240"
  height="240"
  viewBox="-500 -500 1000 1000" xmlns="http://www.w3.org/2000/svg" version="1.1">
  <rect
    x="0"
    y="0"
    width="100"
    height="100"
    fill="hsla(206,100%,53%,0.3)"
    stroke="hsl(206,100%,53%)"
    stroke-width="3"
    transform="" />
  
  <path
    d="M 
      36.9025150049
      -26.5095147479
      L
    
      91.5343153986
      -8.1072884771
      L
    
      85.6328751741
      80.2652741224
      L
    
      68.9579646032
      97.9397533618
      L
    
      68.7692876147
      97.9144411241
      L
    
      68.8444335833
      97.3543043548
      L
    
      58.0973567700
      41.9345128567
      L
    
      27.9730254914
      0
      z
    "
    fill="hsla(0,0%,50%,0.3)"
    stroke="hsla(0,0%,50%,1)"
    stroke-width="1"
    transform="translate(-59.7536704450,-35.7151193069)"
    />
  
  
  <line
    x1="36.90251500498998"
    y1="-26.50951474796903"
    x2="91.53431539861451"
    y2="-8.107288477187119"
    stroke="hsla(0,50%,50%,0.6)"
    stroke-width="1"
    transform="translate(-59.7536704450,-35.7151193069)"
    />
  
  <line
    x1="27.973025491448595"
    y1="0"
    x2="85.63287517410473"
    y2="80.2652741224809"
    stroke="hsla(0,50%,50%,0.6)"
    stroke-width="1"
    transform="translate(-59.7536704450,-35.7151193069)"
    />
  
  <line
    x1="82.06581251676944"
    y1="-1.1976289053298794"
    x2="90.99291796796948"
    y2="0"
    stroke="hsla(0,50%,50%,0.6)"
    stroke-width="1"
    transform="translate(-59.7536704450,-35.7151193069)"
    />
  
  <line
    x1="49.95673096410257"
    y1="-0.0445101528597531"
    x2="68.95796460325347"
    y2="97.93975336186277"
    stroke="hsla(0,50%,50%,0.6)"
    stroke-width="1"
    transform="translate(-59.7536704450,-35.7151193069)"
    />
  
  <line
    x1="27.973025491448595"
    y1="0"
    x2="90.99291796796948"
    y2="0"
    stroke="hsla(0,50%,50%,0.6)"
    stroke-width="1"
    transform="translate(-59.7536704450,-35.7151193069)"
    />
  
  <line
    x1="91.53431539861451"
    y1="-8.107288477187119"
    x2="85.63287517410473"
    y2="80.2652741224809"
    stroke="hsla(0,50%,50%,0.6)"
    stroke-width="1"
    transform="translate(-59.7536704450,-35.7151193069)"
    />
  
  <line
    x1="36.90251500498998"
    y1="-26.50951474796903"
    x2="27.973025491448595"
    y2="0"
    stroke="hsla(0,50%,50%,0.6)"
    stroke-width="1"
    transform="translate(-59.7536704450,-35.7151193069)"
    />
  
  <line
    x1="91.53431539861451"
    y1="-8.107288477187119"
    x2="49.95673096410257"
    y2="-0.0445101528597531"
    stroke="hsla(0,50%,50%,0.6)"
    stroke-width="1"
    transform="translate(-59.7536704450,-35.7151193069)"
    />
  
  <line
    x1="82.06581251676944"
    y1="-1.1976289053298794"
    x2="68.7692876147986"
    y2="97.91444112416384"
    stroke="hsla(0,50%,50%,0.6)"
    stroke-width="1"
    transform="translate(-59.7536704450,-35.7151193069)"
    />
  
  <line
    x1="85.63287517410473"
    y1="80.2652741224809"
    x2="68.95796460325347"
    y2="97.93975336186277"
    stroke="hsla(0,50%,50%,0.6)"
    stroke-width="1"
    transform="translate(-59.7536704450,-35.7151193069)"
    />
  
  <line
    x1="68.7692876147986"
    y1="97.91444112416384"
    x2="68.95796460325347"
    y2="97.93975336186277"
    stroke="hsla(0,50%,50%,0.6)"
    stroke-width="1"
    transform="translate(-59.7536704450,-35.7151193069)"
    />
  
</svg>
