<?xml version="1.0"?>
<!DOCTYPE svg PUBLIC "-//W3C//DTD SVG 1.1//EN"
  "http://www.w3.org/Graphics/SVG/1.1/DTD/svg11.dtd">
<svg
  width="240"
  height="240"
  viewBox="-500 -500 1000 1000" xmlns="http://www.w3.org/2000/svg" version="1.1">
  <rect
    x="0"
    y="0"
    width="100"
    height="100"
    fill="hsla(206,100%,53%,0.3)"
    stroke="hsl(206,100%,53%)"
    stroke-width="3"
    transform="" />
  
  <path
    d="M 
      19.3652668206
      -8.9507561018
      L
    
      99.6457318891
      -1.9918491038
      L
    
      105.7956170061
      98.9162272035
      L
    
      101.3171712495
      99.8623806344
      L
    
      101.0300052273
      98.5031323225
      L
    
      10.7294058688
      90.6756555850
      z
    "
    fill="hsla(0,0%,50%,0.3)"
    stroke="hsla(0,0%,50%,1)"
    stroke-width="1"
    transform="translate(-58.2625114375,-45.4558122662)"
    />
  
  
  <line
    x1="100"
    y1="93.62778928765458"
    x2="101.31717124957609"
    y2="99.86238063447276"
    stroke="hsla(0,50%,50%,0.6)"
    stroke-width="1"
    transform="translate(-58.2625114375,-45.4558122662)"
    />
  
  <line
    x1="99.53597548642018"
    y1="0.028280168985946246"
    x2="100"
    y2="3.8210259151606887"
    stroke="hsla(0,50%,50%,0.6)"
    stroke-width="1"
    transform="translate(-58.2625114375,-45.4558122662)"
    />
  
  <line
    x1="19.365266820609207"
    y1="-8.95075610189569"
    x2="99.64573188911017"
    y2="-1.9918491038741255"
    stroke="hsla(0,50%,50%,0.6)"
    stroke-width="1"
    transform="translate(-58.2625114375,-45.4558122662)"
    />
  
  <line
    x1="90.21767521752868"
    y1="0"
    x2="100"
    y2="93.62778928765458"
    stroke="hsla(0,50%,50%,0.6)"
    stroke-width="1"
    transform="translate(-58.2625114375,-45.4558122662)"
    />
  
  <line
    x1="99.64573188911017"
    y1="-1.9918491038741255"
    x2="105.79561700617965"
    y2="98.91622720351936"
    stroke="hsla(0,50%,50%,0.6)"
    stroke-width="1"
    transform="translate(-58.2625114375,-45.4558122662)"
    />
  
  <line
    x1="90.21767521752868"
    y1="0"
    x2="99.76712596981832"
    y2="0"
    stroke="hsla(0,50%,50%,0.6)"
    stroke-width="1"
    transform="translate(-58.2625114375,-45.4558122662)"
    />
  
  <line
    x1="100"
    y1="3.8210259151606887"
    x2="100"
    y2="93.62778928765458"
    stroke="hsla(0,50%,50%,0.6)"
    stroke-width="1"
    transform="translate(-58.2625114375,-45.4558122662)"
    />
  
  <line
    x1="19.365266820609207"
    y1="-8.95075610189569"
    x2="10.729405868823974"
    y2="90.6756555850733"
    stroke="hsla(0,50%,50%,0.6)"
    stroke-width="1"
    transform="translate(-58.2625114375,-45.4558122662)"
    />
  
  <line
    x1="99.76712596981832"
    y1="0"
    x2="99.53597548642018"
    y2="0.028280168985946246"
    stroke="hsla(0,50%,50%,0.6)"
    stroke-width="1"
    transform="translate(-58.2625114375,-45.4558122662)"
    />
  
  <line
    x1="99.64573188911017"
    y1="-1.9918491038741255"
    x2="90.21767521752868"
    y2="0"
    stroke="hsla(0,50%,50%,0.6)"
    stroke-width="1"
    transform="translate(-58.2625114375,-45.4558122662)"
    />
  
  <line
    x1="10.729405868823974"
    y1="90.6756555850733"
    x2="105.79561700617965"
    y2="98.91622720351936"
    stroke="hsla(0,50%,50%,0.6)"
    stroke-width="1"
    transform="translate(-58.2625114375,-45.4558122662)"
    />
  
  <line
    x1="105.79561700617965"
    y1="98.91622720351936"
    x2="101.31717124957609"
    y2="99.86238063447276"
    stroke="hsla(0,50%,50%,0.6)"
    stroke-width="1"
    transform="translate(-58.2625114375,-45.4558122662)"
    />
  
</svg>
