<?xml version="1.0"?>
<!DOCTYPE svg PUBLIC "-//W3C//DTD SVG 1.1//EN"
  "http://www.w3.org/Graphics/SVG/1.1/DTD/svg11.dtd">
<svg
  width="240"
  height="240"
  viewBox="-500 -500 1000 1000" xmlns="http://www.w3.org/2000/svg" version="1.1">
  <rect
    x="0"
    y="0"
    width="100"
    height="100"
    fill="hsla(206,100%,53%,0.3)"
    stroke="hsl(206,100%,53%)"
    stroke-width="3"
    transform="" />
  
  <path
    d="M 
      83.4824016563
      0
      L
    
      100
      0
      L
    
      100
      65.8004428400
      L
    
      103.8080100177
      80.9702478138
      L
    
      100
      81.9261559696
      L
    
      100
      100
      L
    
      28.0000084592
      100
      L
    
      23.2372618186
      101.1955715285
      L
    
      23.5597669500
      101.8488214504
      L
    
      21.1761949572
      106.7859575106
      L
    
      14.2629538494
      103.4483529392
      L
    
      15.9938795264
      86.5237463203
      z
    "
    fill="hsla(0,0%,50%,0.3)"
    stroke="hsla(0,0%,50%,1)"
    stroke-width="1"
    transform="translate(-59.0354819336,-53.3929787553)"
    />
  
  
  <line
    x1="83.4824016563147"
    y1="0"
    x2="103.80801001779993"
    y2="80.97024781388394"
    stroke="hsla(0,50%,50%,0.6)"
    stroke-width="1"
    transform="translate(-59.0354819336,-53.3929787553)"
    />
  
  <line
    x1="83.4824016563147"
    y1="0"
    x2="100"
    y2="0"
    stroke="hsla(0,50%,50%,0.6)"
    stroke-width="1"
    transform="translate(-59.0354819336,-53.3929787553)"
    />
  
  <line
    x1="100"
    y1="0"
    x2="100"
    y2="100"
    stroke="hsla(0,50%,50%,0.6)"
    stroke-width="1"
    transform="translate(-59.0354819336,-53.3929787553)"
    />
  
  <line
    x1="15.99387952640709"
    y1="86.52374632039437"
    x2="14.262953849482471"
    y2="103.44835293921287"
    stroke="hsla(0,50%,50%,0.6)"
    stroke-width="1"
    transform="translate(-59.0354819336,-53.3929787553)"
    />
  
  <line
    x1="15.99387952640709"
    y1="86.52374632039437"
    x2="23.55976695005216"
    y2="101.84882145049588"
    stroke="hsla(0,50%,50%,0.6)"
    stroke-width="1"
    transform="translate(-59.0354819336,-53.3929787553)"
    />
  
  <line
    x1="23.55976695005216"
    y1="101.84882145049588"
    x2="21.17619495724284"
    y2="106.78595751062802"
    stroke="hsla(0,50%,50%,0.6)"
    stroke-width="1"
    transform="translate(-59.0354819336,-53.3929787553)"
    />
  
  <line
    x1="83.4824016563147"
    y1="0"
    x2="15.99387952640709"
    y2="86.52374632039437"
    stroke="hsla(0,50%,50%,0.6)"
    stroke-width="1"
    transform="translate(-59.0354819336,-53.3929787553)"
    />
  
  <line
    x1="14.262953849482471"
    y1="103.44835293921287"
    x2="21.17619495724284"
    y2="106.78595751062802"
    stroke="hsla(0,50%,50%,0.6)"
    stroke-width="1"
    transform="translate(-59.0354819336,-53.3929787553)"
    />
  
  <line
    x1="14.615626309174695"
    y1="100"
    x2="23.55976695005216"
    y2="101.84882145049588"
    stroke="hsla(0,50%,50%,0.6)"
    stroke-width="1"
    transform="translate(-59.0354819336,-53.3929787553)"
    />
  
  <line
    x1="14.615626309174695"
    y1="100"
    x2="100"
    y2="100"
    stroke="hsla(0,50%,50%,0.6)"
    stroke-width="1"
    transform="translate(-59.0354819336,-53.3929787553)"
    />
  
  <line
    x1="103.80801001779993"
    y1="80.97024781388394"
    x2="14.262953849482471"
    y2="103.44835293921287"
    stroke="hsla(0,50%,50%,0.6)"
    stroke-width="1"
    transform="translate(-59.0354819336,-53.3929787553)"
    />
  
</svg>
