<?xml version="1.0"?>
<!DOCTYPE svg PUBLIC "-//W3C//DTD SVG 1.1//EN"
  "http://www.w3.org/Graphics/SVG/1.1/DTD/svg11.dtd">
<svg
  width="240"
  height="240"
  viewBox="-500 -500 1000 1000" xmlns="http://www.w3.org/2000/svg" version="1.1">
  <rect
    x="0"
    y="0"
    width="100"
    height="100"
    fill="hsla(206,100%,53%,0.3)"
    stroke="hsl(206,100%,53%)"
    stroke-width="3"
    transform="" />
  
  <path
    d="M 
      80.1785714285
      0
      L
    
      100
      0
      L
    
      100
      39.1666666666
      L
    
      105.2032520325
      37.9959349593
      L
    
      105.0442998048
      36.9442626623
      L
    
      105.0791430104
      36.9364229410
      L
    
      104.9217118567
      35.8948144938
      L
    
      104.9565550622
      35.8869747725
      L
    
      104.8006449825
      34.8554301750
      L
    
      104.8354881880
      34.8475904537
      L
    
      104.6810991822
      33.8261097059
      L
    
      104.7159423878
      33.8182699847
      L
    
      104.5630744559
      32.8068530866
      L
    
      111.5317155709
      31.2389088357
      L
    
      111.6414716685
      31.7267137138
      L
    
      111.8730551772
      33.2589348355
      L
    
      111.9086589198
      33.2561270391
      L
    
      112.0638084625
      34.2826397118
      L
    
      112.0994122051
      34.2798319154
      L
    
      112.2560828218
      35.3164084378
      L
    
      112.2916865644
      35.3136006414
      L
    
      112.4498782551
      36.3602410135
      L
    
      112.4854819976
      36.3574332171
      L
    
      114.8256997455
      51.8409669211
      L
    
      96.2962962962
      70.3703703703
      L
    
      91.6666666666
      66.6666666666
      L
    
      91.0144927536
      63.7681159420
      L
    
      76.8852459016
      46.1065573770
      z
    "
    fill="hsla(0,0%,50%,0.3)"
    stroke="hsla(0,0%,50%,1)"
    stroke-width="1"
    transform="translate(-95.8554728235,-35.1851851851)"
    />
  
  
  <line
    x1="111.53171557096282"
    y1="31.238908835788866"
    x2="111.64147166852379"
    y2="31.726713713837647"
    stroke="hsla(0,50%,50%,0.6)"
    stroke-width="1"
    transform="translate(-95.8554728235,-35.1851851851)"
    />
  
  <line
    x1="76.88524590163935"
    y1="46.10655737704918"
    x2="96.29629629629629"
    y2="70.37037037037037"
    stroke="hsla(0,50%,50%,0.6)"
    stroke-width="1"
    transform="translate(-95.8554728235,-35.1851851851)"
    />
  
  <line
    x1="86.17886178861788"
    y1="42.27642276422764"
    x2="91.66666666666667"
    y2="66.66666666666667"
    stroke="hsla(0,50%,50%,0.6)"
    stroke-width="1"
    transform="translate(-95.8554728235,-35.1851851851)"
    />
  
  <line
    x1="112.48548199767711"
    y1="36.35743321718932"
    x2="114.82569974554707"
    y2="51.840966921119595"
    stroke="hsla(0,50%,50%,0.6)"
    stroke-width="1"
    transform="translate(-95.8554728235,-35.1851851851)"
    />
  
  <line
    x1="112.29168656443635"
    y1="35.31360064144514"
    x2="114.7944020356234"
    y2="51.87226463104326"
    stroke="hsla(0,50%,50%,0.6)"
    stroke-width="1"
    transform="translate(-95.8554728235,-35.1851851851)"
    />
  
  <line
    x1="112.09941220514453"
    y1="34.27983191543301"
    x2="114.76310432569974"
    y2="51.90356234096692"
    stroke="hsla(0,50%,50%,0.6)"
    stroke-width="1"
    transform="translate(-95.8554728235,-35.1851851851)"
    />
  
  <line
    x1="111.90865891980167"
    y1="33.256127039152915"
    x2="114.73180661577608"
    y2="51.934860050890585"
    stroke="hsla(0,50%,50%,0.6)"
    stroke-width="1"
    transform="translate(-95.8554728235,-35.1851851851)"
    />
  
  <line
    x1="111.64147166852379"
    y1="31.726713713837647"
    x2="114.70050890585242"
    y2="51.96615776081425"
    stroke="hsla(0,50%,50%,0.6)"
    stroke-width="1"
    transform="translate(-95.8554728235,-35.1851851851)"
    />
  
  <line
    x1="104.56307445598024"
    y1="32.80685308665995"
    x2="108.40966921119593"
    y2="58.25699745547074"
    stroke="hsla(0,50%,50%,0.6)"
    stroke-width="1"
    transform="translate(-95.8554728235,-35.1851851851)"
    />
  
  <line
    x1="104.68109918227536"
    y1="33.826109705984656"
    x2="108.37837150127227"
    y2="58.2882951653944"
    stroke="hsla(0,50%,50%,0.6)"
    stroke-width="1"
    transform="translate(-95.8554728235,-35.1851851851)"
    />
  
  <line
    x1="104.80064498251944"
    y1="34.85543017504142"
    x2="108.3470737913486"
    y2="58.319592875318065"
    stroke="hsla(0,50%,50%,0.6)"
    stroke-width="1"
    transform="translate(-95.8554728235,-35.1851851851)"
    />
  
  <line
    x1="104.92171185671248"
    y1="35.89481449383022"
    x2="108.31577608142494"
    y2="58.35089058524173"
    stroke="hsla(0,50%,50%,0.6)"
    stroke-width="1"
    transform="translate(-95.8554728235,-35.1851851851)"
    />
  
  <line
    x1="105.04429980485446"
    y1="36.944262662351065"
    x2="108.28447837150127"
    y2="58.38218829516539"
    stroke="hsla(0,50%,50%,0.6)"
    stroke-width="1"
    transform="translate(-95.8554728235,-35.1851851851)"
    />
  
  <line
    x1="80.17857142857143"
    y1="0"
    x2="87.5670775924583"
    y2="1.0609137055837563"
    stroke="hsla(0,50%,50%,0.6)"
    stroke-width="1"
    transform="translate(-95.8554728235,-35.1851851851)"
    />
  
  <line
    x1="80.13850616388687"
    y1="1.0609137055837563"
    x2="87.4563089195069"
    y2="2.1116751269035534"
    stroke="hsla(0,50%,50%,0.6)"
    stroke-width="1"
    transform="translate(-95.8554728235,-35.1851851851)"
    />
  
  <line
    x1="80.09916606236403"
    y1="2.1116751269035534"
    x2="87.34626540971719"
    y2="3.1522842639593907"
    stroke="hsla(0,50%,50%,0.6)"
    stroke-width="1"
    transform="translate(-95.8554728235,-35.1851851851)"
    />
  
  <line
    x1="111.64147166852379"
    y1="31.726713713837647"
    x2="113.34453781512605"
    y2="53.32212885154062"
    stroke="hsla(0,50%,50%,0.6)"
    stroke-width="1"
    transform="translate(-95.8554728235,-35.1851851851)"
    />
  
  <line
    x1="80.0605511240029"
    y1="3.1522842639593907"
    x2="87.23694706308919"
    y2="4.182741116751269"
    stroke="hsla(0,50%,50%,0.6)"
    stroke-width="1"
    transform="translate(-95.8554728235,-35.1851851851)"
    />
  
  <line
    x1="80.02266134880348"
    y1="4.182741116751269"
    x2="87.12835387962292"
    y2="5.2030456852791875"
    stroke="hsla(0,50%,50%,0.6)"
    stroke-width="1"
    transform="translate(-95.8554728235,-35.1851851851)"
    />
  
  <line
    x1="79.94978245105149"
    y1="5.2030456852791875"
    x2="86.98477157360406"
    y2="6.213197969543147"
    stroke="hsla(0,50%,50%,0.6)"
    stroke-width="1"
    transform="translate(-95.8554728235,-35.1851851851)"
    />
  
  <line
    x1="91.66666666666667"
    y1="66.66666666666667"
    x2="96.29629629629629"
    y2="70.37037037037037"
    stroke="hsla(0,50%,50%,0.6)"
    stroke-width="1"
    transform="translate(-95.8554728235,-35.1851851851)"
    />
  
  <line
    x1="80.17857142857143"
    y1="0"
    x2="100"
    y2="0"
    stroke="hsla(0,50%,50%,0.6)"
    stroke-width="1"
    transform="translate(-95.8554728235,-35.1851851851)"
    />
  
  <line
    x1="100"
    y1="0"
    x2="100"
    y2="66.66666666666667"
    stroke="hsla(0,50%,50%,0.6)"
    stroke-width="1"
    transform="translate(-95.8554728235,-35.1851851851)"
    />
  
  <line
    x1="80.13850616388687"
    y1="1.0609137055837563"
    x2="87.5670775924583"
    y2="1.0609137055837563"
    stroke="hsla(0,50%,50%,0.6)"
    stroke-width="1"
    transform="translate(-95.8554728235,-35.1851851851)"
    />
  
  <line
    x1="80.09916606236403"
    y1="2.1116751269035534"
    x2="87.4563089195069"
    y2="2.1116751269035534"
    stroke="hsla(0,50%,50%,0.6)"
    stroke-width="1"
    transform="translate(-95.8554728235,-35.1851851851)"
    />
  
  <line
    x1="80.0605511240029"
    y1="3.1522842639593907"
    x2="87.34626540971719"
    y2="3.1522842639593907"
    stroke="hsla(0,50%,50%,0.6)"
    stroke-width="1"
    transform="translate(-95.8554728235,-35.1851851851)"
    />
  
  <line
    x1="80.02266134880348"
    y1="4.182741116751269"
    x2="87.23694706308919"
    y2="4.182741116751269"
    stroke="hsla(0,50%,50%,0.6)"
    stroke-width="1"
    transform="translate(-95.8554728235,-35.1851851851)"
    />
  
  <line
    x1="79.94978245105149"
    y1="5.2030456852791875"
    x2="87.12835387962292"
    y2="5.2030456852791875"
    stroke="hsla(0,50%,50%,0.6)"
    stroke-width="1"
    transform="translate(-95.8554728235,-35.1851851851)"
    />
  
  <line
    x1="80.17857142857143"
    y1="0"
    x2="76.88524590163935"
    y2="46.10655737704918"
    stroke="hsla(0,50%,50%,0.6)"
    stroke-width="1"
    transform="translate(-95.8554728235,-35.1851851851)"
    />
  
  <line
    x1="80.13850616388687"
    y1="1.0609137055837563"
    x2="76.91803278688525"
    y2="46.14754098360656"
    stroke="hsla(0,50%,50%,0.6)"
    stroke-width="1"
    transform="translate(-95.8554728235,-35.1851851851)"
    />
  
  <line
    x1="80.09916606236403"
    y1="2.1116751269035534"
    x2="76.95081967213115"
    y2="46.18852459016394"
    stroke="hsla(0,50%,50%,0.6)"
    stroke-width="1"
    transform="translate(-95.8554728235,-35.1851851851)"
    />
  
  <line
    x1="80.0605511240029"
    y1="3.1522842639593907"
    x2="76.98360655737704"
    y2="46.22950819672131"
    stroke="hsla(0,50%,50%,0.6)"
    stroke-width="1"
    transform="translate(-95.8554728235,-35.1851851851)"
    />
  
  <line
    x1="80.02266134880348"
    y1="4.182741116751269"
    x2="77.01639344262296"
    y2="46.27049180327869"
    stroke="hsla(0,50%,50%,0.6)"
    stroke-width="1"
    transform="translate(-95.8554728235,-35.1851851851)"
    />
  
  <line
    x1="87.12835387962292"
    y1="5.2030456852791875"
    x2="83.60655737704919"
    y2="54.50819672131148"
    stroke="hsla(0,50%,50%,0.6)"
    stroke-width="1"
    transform="translate(-95.8554728235,-35.1851851851)"
    />
  
  <line
    x1="87.23694706308919"
    y1="4.182741116751269"
    x2="83.63934426229508"
    y2="54.549180327868854"
    stroke="hsla(0,50%,50%,0.6)"
    stroke-width="1"
    transform="translate(-95.8554728235,-35.1851851851)"
    />
  
  <line
    x1="87.34626540971719"
    y1="3.1522842639593907"
    x2="83.67213114754098"
    y2="54.59016393442623"
    stroke="hsla(0,50%,50%,0.6)"
    stroke-width="1"
    transform="translate(-95.8554728235,-35.1851851851)"
    />
  
  <line
    x1="87.4563089195069"
    y1="2.1116751269035534"
    x2="83.70491803278688"
    y2="54.631147540983605"
    stroke="hsla(0,50%,50%,0.6)"
    stroke-width="1"
    transform="translate(-95.8554728235,-35.1851851851)"
    />
  
  <line
    x1="87.5670775924583"
    y1="1.0609137055837563"
    x2="83.73770491803279"
    y2="54.67213114754098"
    stroke="hsla(0,50%,50%,0.6)"
    stroke-width="1"
    transform="translate(-95.8554728235,-35.1851851851)"
    />
  
  <line
    x1="86.98477157360406"
    y1="6.213197969543147"
    x2="80.59130434782608"
    y2="50.73913043478261"
    stroke="hsla(0,50%,50%,0.6)"
    stroke-width="1"
    transform="translate(-95.8554728235,-35.1851851851)"
    />
  
  <line
    x1="76.88524590163935"
    y1="46.10655737704918"
    x2="114.82569974554707"
    y2="51.840966921119595"
    stroke="hsla(0,50%,50%,0.6)"
    stroke-width="1"
    transform="translate(-95.8554728235,-35.1851851851)"
    />
  
  <line
    x1="76.91803278688525"
    y1="46.14754098360656"
    x2="114.7944020356234"
    y2="51.87226463104326"
    stroke="hsla(0,50%,50%,0.6)"
    stroke-width="1"
    transform="translate(-95.8554728235,-35.1851851851)"
    />
  
  <line
    x1="76.95081967213115"
    y1="46.18852459016394"
    x2="114.76310432569974"
    y2="51.90356234096692"
    stroke="hsla(0,50%,50%,0.6)"
    stroke-width="1"
    transform="translate(-95.8554728235,-35.1851851851)"
    />
  
  <line
    x1="76.98360655737704"
    y1="46.22950819672131"
    x2="114.73180661577608"
    y2="51.934860050890585"
    stroke="hsla(0,50%,50%,0.6)"
    stroke-width="1"
    transform="translate(-95.8554728235,-35.1851851851)"
    />
  
  <line
    x1="77.01639344262296"
    y1="46.27049180327869"
    x2="114.70050890585242"
    y2="51.96615776081425"
    stroke="hsla(0,50%,50%,0.6)"
    stroke-width="1"
    transform="translate(-95.8554728235,-35.1851851851)"
    />
  
  <line
    x1="111.71942670840777"
    y1="32.24248601260487"
    x2="104.56307445598024"
    y2="32.80685308665995"
    stroke="hsla(0,50%,50%,0.6)"
    stroke-width="1"
    transform="translate(-95.8554728235,-35.1851851851)"
    />
  
  <line
    x1="83.60655737704919"
    y1="54.50819672131148"
    x2="108.40966921119593"
    y2="58.25699745547074"
    stroke="hsla(0,50%,50%,0.6)"
    stroke-width="1"
    transform="translate(-95.8554728235,-35.1851851851)"
    />
  
  <line
    x1="83.63934426229508"
    y1="54.549180327868854"
    x2="108.37837150127227"
    y2="58.2882951653944"
    stroke="hsla(0,50%,50%,0.6)"
    stroke-width="1"
    transform="translate(-95.8554728235,-35.1851851851)"
    />
  
  <line
    x1="83.67213114754098"
    y1="54.59016393442623"
    x2="108.3470737913486"
    y2="58.319592875318065"
    stroke="hsla(0,50%,50%,0.6)"
    stroke-width="1"
    transform="translate(-95.8554728235,-35.1851851851)"
    />
  
  <line
    x1="83.70491803278688"
    y1="54.631147540983605"
    x2="108.31577608142494"
    y2="58.35089058524173"
    stroke="hsla(0,50%,50%,0.6)"
    stroke-width="1"
    transform="translate(-95.8554728235,-35.1851851851)"
    />
  
  <line
    x1="83.73770491803279"
    y1="54.67213114754098"
    x2="108.28447837150127"
    y2="58.38218829516539"
    stroke="hsla(0,50%,50%,0.6)"
    stroke-width="1"
    transform="translate(-95.8554728235,-35.1851851851)"
    />
  
  <line
    x1="111.90865891980167"
    y1="33.256127039152915"
    x2="104.68109918227536"
    y2="33.826109705984656"
    stroke="hsla(0,50%,50%,0.6)"
    stroke-width="1"
    transform="translate(-95.8554728235,-35.1851851851)"
    />
  
  <line
    x1="112.09941220514453"
    y1="34.27983191543301"
    x2="104.80064498251944"
    y2="34.85543017504142"
    stroke="hsla(0,50%,50%,0.6)"
    stroke-width="1"
    transform="translate(-95.8554728235,-35.1851851851)"
    />
  
  <line
    x1="112.29168656443635"
    y1="35.31360064144514"
    x2="104.92171185671248"
    y2="35.89481449383022"
    stroke="hsla(0,50%,50%,0.6)"
    stroke-width="1"
    transform="translate(-95.8554728235,-35.1851851851)"
    />
  
  <line
    x1="80.59130434782608"
    y1="50.73913043478261"
    x2="113.34453781512605"
    y2="53.32212885154062"
    stroke="hsla(0,50%,50%,0.6)"
    stroke-width="1"
    transform="translate(-95.8554728235,-35.1851851851)"
    />
  
  <line
    x1="112.48548199767711"
    y1="36.35743321718932"
    x2="105.04429980485446"
    y2="36.944262662351065"
    stroke="hsla(0,50%,50%,0.6)"
    stroke-width="1"
    transform="translate(-95.8554728235,-35.1851851851)"
    />
  
  <line
    x1="111.53171557096282"
    y1="31.238908835788866"
    x2="104.56307445598024"
    y2="32.80685308665995"
    stroke="hsla(0,50%,50%,0.6)"
    stroke-width="1"
    transform="translate(-95.8554728235,-35.1851851851)"
    />
  
  <line
    x1="111.71942670840777"
    y1="32.24248601260487"
    x2="104.68109918227536"
    y2="33.826109705984656"
    stroke="hsla(0,50%,50%,0.6)"
    stroke-width="1"
    transform="translate(-95.8554728235,-35.1851851851)"
    />
  
  <line
    x1="111.90865891980167"
    y1="33.256127039152915"
    x2="104.80064498251944"
    y2="34.85543017504142"
    stroke="hsla(0,50%,50%,0.6)"
    stroke-width="1"
    transform="translate(-95.8554728235,-35.1851851851)"
    />
  
  <line
    x1="112.09941220514453"
    y1="34.27983191543301"
    x2="104.92171185671248"
    y2="35.89481449383022"
    stroke="hsla(0,50%,50%,0.6)"
    stroke-width="1"
    transform="translate(-95.8554728235,-35.1851851851)"
    />
  
  <line
    x1="112.29168656443635"
    y1="35.31360064144514"
    x2="105.04429980485446"
    y2="36.944262662351065"
    stroke="hsla(0,50%,50%,0.6)"
    stroke-width="1"
    transform="translate(-95.8554728235,-35.1851851851)"
    />
  
  <line
    x1="112.48548199767711"
    y1="36.35743321718932"
    x2="86.17886178861788"
    y2="42.27642276422764"
    stroke="hsla(0,50%,50%,0.6)"
    stroke-width="1"
    transform="translate(-95.8554728235,-35.1851851851)"
    />
  
  <line
    x1="91.66666666666667"
    y1="66.66666666666667"
    x2="100"
    y2="66.66666666666667"
    stroke="hsla(0,50%,50%,0.6)"
    stroke-width="1"
    transform="translate(-95.8554728235,-35.1851851851)"
    />
  
  <line
    x1="114.82569974554707"
    y1="51.840966921119595"
    x2="96.29629629629629"
    y2="70.37037037037037"
    stroke="hsla(0,50%,50%,0.6)"
    stroke-width="1"
    transform="translate(-95.8554728235,-35.1851851851)"
    />
  
</svg>
