<?xml version="1.0"?>
<!DOCTYPE svg PUBLIC "-//W3C//DTD SVG 1.1//EN"
  "http://www.w3.org/Graphics/SVG/1.1/DTD/svg11.dtd">
<svg
  width="240"
  height="240"
  viewBox="-50 -50 200 200" xmlns="http://www.w3.org/2000/svg" version="1.1">
  <rect
    x="0"
    y="0"
    width="100"
    height="100"
    fill="hsla(206,100%,53%,0.3)"
    stroke="hsl(206,100%,53%)"
    stroke-width="3"
    transform="" />
  
  <path
    d="M 
      55.3638344226
      5.0849673202
      L
    
      68.0043572984
      16.0359477124
      L
    
      53.9456094114
      35.2870402200
      L
    
      23.2084930698
      22.3450964972
      L
    
      18.6908666812
      14.3504142673
      L
    
      33.2011079524
      6.1509828218
      L
    
      39.9356166591
      18.0688025911
      L
    
      40.3831417624
      15.4022988505
      L
    
      44.1553193436
      16.0353915914
      z
    "
    fill="hsla(0,0%,50%,0.3)"
    stroke="hsla(0,0%,50%,1)"
    stroke-width="1"
    transform="translate(-41.0905458023,-15.6670834133) scale(1,-1) translate(50,-110)"
    />
  
  
  <line
    x1="55.36383442265795"
    y1="5.084967320261438"
    x2="68.00435729847494"
    y2="16.035947712418302"
    stroke="hsla(0,50%,50%,0.6)"
    stroke-width="1"
    transform="translate(-41.0905458023,-15.6670834133) scale(1,-1) translate(50,-110)"
    />
  
  <line
    x1="33.20110795247467"
    y1="6.150982821877202"
    x2="48.32890985943183"
    y2="32.922114092860184"
    stroke="hsla(0,50%,50%,0.6)"
    stroke-width="1"
    transform="translate(-41.0905458023,-15.6670834133) scale(1,-1) translate(50,-110)"
    />
  
  <line
    x1="18.690866681244987"
    y1="14.350414267317833"
    x2="23.20849306989089"
    y2="22.345096497264"
    stroke="hsla(0,50%,50%,0.6)"
    stroke-width="1"
    transform="translate(-41.0905458023,-15.6670834133) scale(1,-1) translate(50,-110)"
    />
  
  <line
    x1="33.333333333333336"
    y1="19.65811965811966"
    x2="50"
    y2="32.47863247863248"
    stroke="hsla(0,50%,50%,0.6)"
    stroke-width="1"
    transform="translate(-41.0905458023,-15.6670834133) scale(1,-1) translate(50,-110)"
    />
  
  <line
    x1="33.333333333333336"
    y1="19.65811965811966"
    x2="33.333333333333336"
    y2="26.608187134502923"
    stroke="hsla(0,50%,50%,0.6)"
    stroke-width="1"
    transform="translate(-41.0905458023,-15.6670834133) scale(1,-1) translate(50,-110)"
    />
  
  <line
    x1="50"
    y1="32.47863247863248"
    x2="50"
    y2="33.62573099415204"
    stroke="hsla(0,50%,50%,0.6)"
    stroke-width="1"
    transform="translate(-41.0905458023,-15.6670834133) scale(1,-1) translate(50,-110)"
    />
  
  <line
    x1="40.383141762452105"
    y1="15.402298850574713"
    x2="38.16126198388144"
    y2="28.640999197891603"
    stroke="hsla(0,50%,50%,0.6)"
    stroke-width="1"
    transform="translate(-41.0905458023,-15.6670834133) scale(1,-1) translate(50,-110)"
    />
  
  <line
    x1="40.383141762452105"
    y1="15.402298850574713"
    x2="56.81992337164751"
    y2="18.160919540229884"
    stroke="hsla(0,50%,50%,0.6)"
    stroke-width="1"
    transform="translate(-41.0905458023,-15.6670834133) scale(1,-1) translate(50,-110)"
    />
  
  <line
    x1="56.81992337164751"
    y1="18.160919540229884"
    x2="53.945609411405215"
    y2="35.28704022000687"
    stroke="hsla(0,50%,50%,0.6)"
    stroke-width="1"
    transform="translate(-41.0905458023,-15.6670834133) scale(1,-1) translate(50,-110)"
    />
  
  <line
    x1="23.20849306989089"
    y1="22.345096497264"
    x2="53.945609411405215"
    y2="35.28704022000687"
    stroke="hsla(0,50%,50%,0.6)"
    stroke-width="1"
    transform="translate(-41.0905458023,-15.6670834133) scale(1,-1) translate(50,-110)"
    />
  
  <line
    x1="33.20110795247467"
    y1="6.150982821877202"
    x2="18.690866681244987"
    y2="14.350414267317833"
    stroke="hsla(0,50%,50%,0.6)"
    stroke-width="1"
    transform="translate(-41.0905458023,-15.6670834133) scale(1,-1) translate(50,-110)"
    />
  
  <line
    x1="33.333333333333336"
    y1="19.65811965811966"
    x2="23.20849306989089"
    y2="22.345096497264"
    stroke="hsla(0,50%,50%,0.6)"
    stroke-width="1"
    transform="translate(-41.0905458023,-15.6670834133) scale(1,-1) translate(50,-110)"
    />
  
  <line
    x1="55.36383442265795"
    y1="5.084967320261438"
    x2="38.16126198388144"
    y2="28.640999197891603"
    stroke="hsla(0,50%,50%,0.6)"
    stroke-width="1"
    transform="translate(-41.0905458023,-15.6670834133) scale(1,-1) translate(50,-110)"
    />
  
  <line
    x1="55.36383442265795"
    y1="5.084967320261438"
    x2="33.333333333333336"
    y2="26.608187134502923"
    stroke="hsla(0,50%,50%,0.6)"
    stroke-width="1"
    transform="translate(-41.0905458023,-15.6670834133) scale(1,-1) translate(50,-110)"
    />
  
  <line
    x1="68.00435729847494"
    y1="16.035947712418302"
    x2="53.945609411405215"
    y2="35.28704022000687"
    stroke="hsla(0,50%,50%,0.6)"
    stroke-width="1"
    transform="translate(-41.0905458023,-15.6670834133) scale(1,-1) translate(50,-110)"
    />
  
  <line
    x1="68.00435729847494"
    y1="16.035947712418302"
    x2="50"
    y2="33.62573099415204"
    stroke="hsla(0,50%,50%,0.6)"
    stroke-width="1"
    transform="translate(-41.0905458023,-15.6670834133) scale(1,-1) translate(50,-110)"
    />
  
  <line
    x1="50"
    y1="32.47863247863248"
    x2="48.32890985943183"
    y2="32.922114092860184"
    stroke="hsla(0,50%,50%,0.6)"
    stroke-width="1"
    transform="translate(-41.0905458023,-15.6670834133) scale(1,-1) translate(50,-110)"
    />
  
</svg>
