<?xml version="1.0"?>
<!DOCTYPE svg PUBLIC "-//W3C//DTD SVG 1.1//EN"
  "http://www.w3.org/Graphics/SVG/1.1/DTD/svg11.dtd">
<svg
  width="240"
  height="240"
  viewBox="-50 -50 200 200" xmlns="http://www.w3.org/2000/svg" version="1.1">
  <rect
    x="0"
    y="0"
    width="100"
    height="100"
    fill="hsla(206,100%,53%,0.3)"
    stroke="hsl(206,100%,53%)"
    stroke-width="3"
    transform="" />
  
  <path
    d="M 
      39.7058823529
      18.3098591549
      L
    
      60.2941176470
      18.3098591549
      L
    
      77.0270270270
      30.3797468354
      L
    
      83.0769230769
      50
      L
    
      77.0270270270
      69.6202531645
      L
    
      60.2941176470
      81.6901408450
      L
    
      39.7058823529
      81.6901408450
      L
    
      22.9729729729
      69.6202531645
      L
    
      16.9230769230
      50
      L
    
      22.9729729729
      30.3797468354
      z
    "
    fill="hsla(0,0%,50%,0.3)"
    stroke="hsla(0,0%,50%,1)"
    stroke-width="1"
    transform="translate(-25.3034712455,-45.7194909966) scale(1,-1) translate(50,-110)"
    />
  
  
  <line
    x1="74.48526449326339"
    y1="37.39292997085704"
    x2="83.07692307692308"
    y2="50"
    stroke="hsla(0,50%,50%,0.6)"
    stroke-width="1"
    transform="translate(-25.3034712455,-45.7194909966) scale(1,-1) translate(50,-110)"
    />
  
  <line
    x1="77.02702702702703"
    y1="30.379746835443036"
    x2="83.07692307692308"
    y2="50"
    stroke="hsla(0,50%,50%,0.6)"
    stroke-width="1"
    transform="translate(-25.3034712455,-45.7194909966) scale(1,-1) translate(50,-110)"
    />
  
  <line
    x1="60.294117647058826"
    y1="18.309859154929576"
    x2="77.02702702702703"
    y2="30.379746835443036"
    stroke="hsla(0,50%,50%,0.6)"
    stroke-width="1"
    transform="translate(-25.3034712455,-45.7194909966) scale(1,-1) translate(50,-110)"
    />
  
  <line
    x1="60.294117647058826"
    y1="18.309859154929576"
    x2="67.4825429501519"
    y2="39.928896249973924"
    stroke="hsla(0,50%,50%,0.6)"
    stroke-width="1"
    transform="translate(-25.3034712455,-45.7194909966) scale(1,-1) translate(50,-110)"
    />
  
  <line
    x1="64.39939732462722"
    y1="69.34359902363784"
    x2="66.61498382337885"
    y2="77.13073380716031"
    stroke="hsla(0,50%,50%,0.6)"
    stroke-width="1"
    transform="translate(-25.3034712455,-45.7194909966) scale(1,-1) translate(50,-110)"
    />
  
  <line
    x1="37.41237947858207"
    y1="19.96422310681885"
    x2="39.73463036916685"
    y2="23.371804927926473"
    stroke="hsla(0,50%,50%,0.6)"
    stroke-width="1"
    transform="translate(-25.3034712455,-45.7194909966) scale(1,-1) translate(50,-110)"
    />
  
  <line
    x1="37.41237947858207"
    y1="19.96422310681885"
    x2="45.73691802452966"
    y2="30.87847381830441"
    stroke="hsla(0,50%,50%,0.6)"
    stroke-width="1"
    transform="translate(-25.3034712455,-45.7194909966) scale(1,-1) translate(50,-110)"
    />
  
  <line
    x1="38.781701401187114"
    y1="18.97649518521224"
    x2="42.84433707249517"
    y2="29.315748633466896"
    stroke="hsla(0,50%,50%,0.6)"
    stroke-width="1"
    transform="translate(-25.3034712455,-45.7194909966) scale(1,-1) translate(50,-110)"
    />
  
  <line
    x1="38.781701401187114"
    y1="18.97649518521224"
    x2="48.7367210814227"
    y2="27.283577746399654"
    stroke="hsla(0,50%,50%,0.6)"
    stroke-width="1"
    transform="translate(-25.3034712455,-45.7194909966) scale(1,-1) translate(50,-110)"
    />
  
  <line
    x1="33.38501617662115"
    y1="22.869266192839703"
    x2="35.600602675372784"
    y2="30.65640097636216"
    stroke="hsla(0,50%,50%,0.6)"
    stroke-width="1"
    transform="translate(-25.3034712455,-45.7194909966) scale(1,-1) translate(50,-110)"
    />
  
  <line
    x1="26.382323754113713"
    y1="27.920492436975852"
    x2="31.529490873774368"
    y2="46.01127071924853"
    stroke="hsla(0,50%,50%,0.6)"
    stroke-width="1"
    transform="translate(-25.3034712455,-45.7194909966) scale(1,-1) translate(50,-110)"
    />
  
  <line
    x1="22.815143242657975"
    y1="30.89160013674516"
    x2="39.705882352941174"
    y2="81.69014084507042"
    stroke="hsla(0,50%,50%,0.6)"
    stroke-width="1"
    transform="translate(-25.3034712455,-45.7194909966) scale(1,-1) translate(50,-110)"
    />
  
  <line
    x1="24.723837460061866"
    y1="29.11680222592631"
    x2="25.54063135039666"
    y2="30.43600072784574"
    stroke="hsla(0,50%,50%,0.6)"
    stroke-width="1"
    transform="translate(-25.3034712455,-45.7194909966) scale(1,-1) translate(50,-110)"
    />
  
  <line
    x1="25.276747507808864"
    y1="29.01408054041106"
    x2="32.06649985040777"
    y2="37.91608260659111"
    stroke="hsla(0,50%,50%,0.6)"
    stroke-width="1"
    transform="translate(-25.3034712455,-45.7194909966) scale(1,-1) translate(50,-110)"
    />
  
  <line
    x1="80.30080859197305"
    y1="54.07356383868027"
    x2="81.55689013026587"
    y2="54.929577464788736"
    stroke="hsla(0,50%,50%,0.6)"
    stroke-width="1"
    transform="translate(-25.3034712455,-45.7194909966) scale(1,-1) translate(50,-110)"
    />
  
  <line
    x1="16.923076923076923"
    y1="50"
    x2="22.972972972972972"
    y2="69.62025316455696"
    stroke="hsla(0,50%,50%,0.6)"
    stroke-width="1"
    transform="translate(-25.3034712455,-45.7194909966) scale(1,-1) translate(50,-110)"
    />
  
  <line
    x1="24.723837460061866"
    y1="29.11680222592631"
    x2="32.06649985040777"
    y2="37.91608260659111"
    stroke="hsla(0,50%,50%,0.6)"
    stroke-width="1"
    transform="translate(-25.3034712455,-45.7194909966) scale(1,-1) translate(50,-110)"
    />
  
  <line
    x1="33.38501617662115"
    y1="22.869266192839703"
    x2="42.84433707249517"
    y2="29.315748633466896"
    stroke="hsla(0,50%,50%,0.6)"
    stroke-width="1"
    transform="translate(-25.3034712455,-45.7194909966) scale(1,-1) translate(50,-110)"
    />
  
  <line
    x1="26.382323754113713"
    y1="27.920492436975852"
    x2="26.978194597363363"
    y2="28.326575597720094"
    stroke="hsla(0,50%,50%,0.6)"
    stroke-width="1"
    transform="translate(-25.3034712455,-45.7194909966) scale(1,-1) translate(50,-110)"
    />
  
  <line
    x1="22.972972972972972"
    y1="30.379746835443036"
    x2="16.923076923076923"
    y2="50"
    stroke="hsla(0,50%,50%,0.6)"
    stroke-width="1"
    transform="translate(-25.3034712455,-45.7194909966) scale(1,-1) translate(50,-110)"
    />
  
  <line
    x1="39.705882352941174"
    y1="18.309859154929576"
    x2="35.600602675372784"
    y2="30.65640097636216"
    stroke="hsla(0,50%,50%,0.6)"
    stroke-width="1"
    transform="translate(-25.3034712455,-45.7194909966) scale(1,-1) translate(50,-110)"
    />
  
  <line
    x1="39.73463036916685"
    y1="23.371804927926473"
    x2="22.972972972972972"
    y2="69.62025316455696"
    stroke="hsla(0,50%,50%,0.6)"
    stroke-width="1"
    transform="translate(-25.3034712455,-45.7194909966) scale(1,-1) translate(50,-110)"
    />
  
  <line
    x1="39.705882352941174"
    y1="18.309859154929576"
    x2="60.294117647058826"
    y2="18.309859154929576"
    stroke="hsla(0,50%,50%,0.6)"
    stroke-width="1"
    transform="translate(-25.3034712455,-45.7194909966) scale(1,-1) translate(50,-110)"
    />
  
  <line
    x1="28.098651578169566"
    y1="26.682460030961977"
    x2="25.54063135039666"
    y2="30.43600072784574"
    stroke="hsla(0,50%,50%,0.6)"
    stroke-width="1"
    transform="translate(-25.3034712455,-45.7194909966) scale(1,-1) translate(50,-110)"
    />
  
  <line
    x1="65.23047281653007"
    y1="76.18719610580176"
    x2="66.61498382337885"
    y2="77.13073380716031"
    stroke="hsla(0,50%,50%,0.6)"
    stroke-width="1"
    transform="translate(-25.3034712455,-45.7194909966) scale(1,-1) translate(50,-110)"
    />
  
  <line
    x1="64.39939732462722"
    y1="69.34359902363784"
    x2="60.294117647058826"
    y2="81.69014084507042"
    stroke="hsla(0,50%,50%,0.6)"
    stroke-width="1"
    transform="translate(-25.3034712455,-45.7194909966) scale(1,-1) translate(50,-110)"
    />
  
  <line
    x1="83.07692307692308"
    y1="50"
    x2="77.02702702702703"
    y2="69.62025316455696"
    stroke="hsla(0,50%,50%,0.6)"
    stroke-width="1"
    transform="translate(-25.3034712455,-45.7194909966) scale(1,-1) translate(50,-110)"
    />
  
  <line
    x1="77.02702702702703"
    y1="30.379746835443036"
    x2="74.48526449326339"
    y2="37.39292997085704"
    stroke="hsla(0,50%,50%,0.6)"
    stroke-width="1"
    transform="translate(-25.3034712455,-45.7194909966) scale(1,-1) translate(50,-110)"
    />
  
  <line
    x1="22.972972972972972"
    y1="30.379746835443036"
    x2="45.73691802452966"
    y2="30.87847381830441"
    stroke="hsla(0,50%,50%,0.6)"
    stroke-width="1"
    transform="translate(-25.3034712455,-45.7194909966) scale(1,-1) translate(50,-110)"
    />
  
  <line
    x1="25.276747507808864"
    y1="29.01408054041106"
    x2="22.815143242657975"
    y2="30.89160013674516"
    stroke="hsla(0,50%,50%,0.6)"
    stroke-width="1"
    transform="translate(-25.3034712455,-45.7194909966) scale(1,-1) translate(50,-110)"
    />
  
  <line
    x1="39.705882352941174"
    y1="18.309859154929576"
    x2="22.972972972972972"
    y2="30.379746835443036"
    stroke="hsla(0,50%,50%,0.6)"
    stroke-width="1"
    transform="translate(-25.3034712455,-45.7194909966) scale(1,-1) translate(50,-110)"
    />
  
  <line
    x1="39.73463036916685"
    y1="23.371804927926473"
    x2="28.098651578169566"
    y2="26.682460030961977"
    stroke="hsla(0,50%,50%,0.6)"
    stroke-width="1"
    transform="translate(-25.3034712455,-45.7194909966) scale(1,-1) translate(50,-110)"
    />
  
  <line
    x1="22.972972972972972"
    y1="69.62025316455696"
    x2="39.705882352941174"
    y2="81.69014084507042"
    stroke="hsla(0,50%,50%,0.6)"
    stroke-width="1"
    transform="translate(-25.3034712455,-45.7194909966) scale(1,-1) translate(50,-110)"
    />
  
  <line
    x1="48.7367210814227"
    y1="27.283577746399654"
    x2="45.73691802452966"
    y2="30.87847381830441"
    stroke="hsla(0,50%,50%,0.6)"
    stroke-width="1"
    transform="translate(-25.3034712455,-45.7194909966) scale(1,-1) translate(50,-110)"
    />
  
  <line
    x1="42.84433707249517"
    y1="29.315748633466896"
    x2="16.923076923076923"
    y2="50"
    stroke="hsla(0,50%,50%,0.6)"
    stroke-width="1"
    transform="translate(-25.3034712455,-45.7194909966) scale(1,-1) translate(50,-110)"
    />
  
  <line
    x1="31.529490873774368"
    y1="46.01127071924853"
    x2="18.44310986973413"
    y2="54.929577464788736"
    stroke="hsla(0,50%,50%,0.6)"
    stroke-width="1"
    transform="translate(-25.3034712455,-45.7194909966) scale(1,-1) translate(50,-110)"
    />
  
  <line
    x1="78.81011433635125"
    y1="36.16242874186211"
    x2="74.48526449326339"
    y2="37.39292997085704"
    stroke="hsla(0,50%,50%,0.6)"
    stroke-width="1"
    transform="translate(-25.3034712455,-45.7194909966) scale(1,-1) translate(50,-110)"
    />
  
  <line
    x1="83.07692307692308"
    y1="50"
    x2="65.23047281653007"
    y2="76.18719610580176"
    stroke="hsla(0,50%,50%,0.6)"
    stroke-width="1"
    transform="translate(-25.3034712455,-45.7194909966) scale(1,-1) translate(50,-110)"
    />
  
  <line
    x1="18.44310986973413"
    y1="54.929577464788736"
    x2="81.55689013026587"
    y2="54.929577464788736"
    stroke="hsla(0,50%,50%,0.6)"
    stroke-width="1"
    transform="translate(-25.3034712455,-45.7194909966) scale(1,-1) translate(50,-110)"
    />
  
  <line
    x1="78.81011433635125"
    y1="36.16242874186211"
    x2="67.4825429501519"
    y2="39.928896249973924"
    stroke="hsla(0,50%,50%,0.6)"
    stroke-width="1"
    transform="translate(-25.3034712455,-45.7194909966) scale(1,-1) translate(50,-110)"
    />
  
  <line
    x1="64.39939732462722"
    y1="69.34359902363784"
    x2="77.02702702702703"
    y2="69.62025316455696"
    stroke="hsla(0,50%,50%,0.6)"
    stroke-width="1"
    transform="translate(-25.3034712455,-45.7194909966) scale(1,-1) translate(50,-110)"
    />
  
  <line
    x1="39.705882352941174"
    y1="81.69014084507042"
    x2="60.294117647058826"
    y2="81.69014084507042"
    stroke="hsla(0,50%,50%,0.6)"
    stroke-width="1"
    transform="translate(-25.3034712455,-45.7194909966) scale(1,-1) translate(50,-110)"
    />
  
  <line
    x1="77.02702702702703"
    y1="69.62025316455696"
    x2="60.294117647058826"
    y2="81.69014084507042"
    stroke="hsla(0,50%,50%,0.6)"
    stroke-width="1"
    transform="translate(-25.3034712455,-45.7194909966) scale(1,-1) translate(50,-110)"
    />
  
</svg>
