<?xml version="1.0"?>
<!DOCTYPE svg PUBLIC "-//W3C//DTD SVG 1.1//EN"
  "http://www.w3.org/Graphics/SVG/1.1/DTD/svg11.dtd">
<svg
  width="240"
  height="240"
  viewBox="-500 -500 1000 1000" xmlns="http://www.w3.org/2000/svg" version="1.1">
  <rect
    x="0"
    y="0"
    width="100"
    height="100"
    fill="hsla(206,100%,53%,0.3)"
    stroke="hsl(206,100%,53%)"
    stroke-width="3"
    transform="" />
  
  <path
    d="M 
      80.1785714285
      0
      L
    
      100
      0
      L
    
      100
      36.25
      L
    
      102.8222996515
      35.6149825783
      L
    
      102.6633474239
      34.5633102813
      L
    
      102.6981906294
      34.5554705601
      L
    
      102.5407594757
      33.5138621128
      L
    
      102.5756026813
      33.5060223916
      L
    
      102.4196926015
      32.4744777940
      L
    
      102.4545358071
      32.4666380728
      L
    
      102.3001468013
      31.4451573250
      L
    
      102.3349900068
      31.4373176037
      L
    
      102.1821220750
      30.4259007057
      L
    
      109.1507631900
      28.8579564548
      L
    
      109.2605192875
      29.3457613328
      L
    
      109.4921027962
      30.8779824545
      L
    
      109.5277065388
      30.8751746582
      L
    
      109.6828560816
      31.9016873308
      L
    
      109.7184598241
      31.8988795344
      L
    
      109.8751304409
      32.9354560568
      L
    
      109.9107341834
      32.9326482604
      L
    
      110.0689258741
      33.9792886326
      L
    
      110.1045296167
      33.9764808362
      L
    
      112.7573609596
      51.5283533260
      L
    
      95.2380952380
      69.0476190476
      L
    
      89.2857142857
      64.2857142857
      L
    
      88.4472049689
      60.5590062111
      L
    
      76.8852459016
      46.1065573770
      z
    "
    fill="hsla(0,0%,50%,0.3)"
    stroke="hsla(0,0%,50%,1)"
    stroke-width="1"
    transform="translate(-94.8213034306,-34.5238095238)"
    />
  
  
  <line
    x1="109.15076319001044"
    y1="28.857956454836483"
    x2="109.26051928757141"
    y2="29.345761332885264"
    stroke="hsla(0,50%,50%,0.6)"
    stroke-width="1"
    transform="translate(-94.8213034306,-34.5238095238)"
    />
  
  <line
    x1="76.88524590163935"
    y1="46.10655737704918"
    x2="95.23809523809524"
    y2="69.04761904761905"
    stroke="hsla(0,50%,50%,0.6)"
    stroke-width="1"
    transform="translate(-94.8213034306,-34.5238095238)"
    />
  
  <line
    x1="83.7979094076655"
    y1="39.89547038327526"
    x2="89.28571428571429"
    y2="64.28571428571429"
    stroke="hsla(0,50%,50%,0.6)"
    stroke-width="1"
    transform="translate(-94.8213034306,-34.5238095238)"
    />
  
  <line
    x1="110.10452961672473"
    y1="33.97648083623693"
    x2="112.75736095965104"
    y2="51.52835332606325"
    stroke="hsla(0,50%,50%,0.6)"
    stroke-width="1"
    transform="translate(-94.8213034306,-34.5238095238)"
    />
  
  <line
    x1="109.91073418348397"
    y1="32.932648260492755"
    x2="112.72606324972737"
    y2="51.55965103598692"
    stroke="hsla(0,50%,50%,0.6)"
    stroke-width="1"
    transform="translate(-94.8213034306,-34.5238095238)"
    />
  
  <line
    x1="109.71845982419215"
    y1="31.898879534480624"
    x2="112.69476553980371"
    y2="51.59094874591058"
    stroke="hsla(0,50%,50%,0.6)"
    stroke-width="1"
    transform="translate(-94.8213034306,-34.5238095238)"
    />
  
  <line
    x1="109.52770653884929"
    y1="30.875174658200535"
    x2="112.66346782988005"
    y2="51.622246455834244"
    stroke="hsla(0,50%,50%,0.6)"
    stroke-width="1"
    transform="translate(-94.8213034306,-34.5238095238)"
    />
  
  <line
    x1="109.26051928757141"
    y1="29.345761332885264"
    x2="112.63217011995638"
    y2="51.65354416575791"
    stroke="hsla(0,50%,50%,0.6)"
    stroke-width="1"
    transform="translate(-94.8213034306,-34.5238095238)"
    />
  
  <line
    x1="102.18212207502786"
    y1="30.425900705707566"
    x2="106.34133042529989"
    y2="57.9443838604144"
    stroke="hsla(0,50%,50%,0.6)"
    stroke-width="1"
    transform="translate(-94.8213034306,-34.5238095238)"
    />
  
  <line
    x1="102.30014680132298"
    y1="31.44515732503228"
    x2="106.31003271537622"
    y2="57.97568157033806"
    stroke="hsla(0,50%,50%,0.6)"
    stroke-width="1"
    transform="translate(-94.8213034306,-34.5238095238)"
    />
  
  <line
    x1="102.41969260156706"
    y1="32.47447779408903"
    x2="106.27873500545256"
    y2="58.006979280261724"
    stroke="hsla(0,50%,50%,0.6)"
    stroke-width="1"
    transform="translate(-94.8213034306,-34.5238095238)"
    />
  
  <line
    x1="102.5407594757601"
    y1="33.51386211287784"
    x2="106.2474372955289"
    y2="58.03827699018539"
    stroke="hsla(0,50%,50%,0.6)"
    stroke-width="1"
    transform="translate(-94.8213034306,-34.5238095238)"
    />
  
  <line
    x1="102.66334742390208"
    y1="34.56331028139868"
    x2="106.21613958560523"
    y2="58.06957470010905"
    stroke="hsla(0,50%,50%,0.6)"
    stroke-width="1"
    transform="translate(-94.8213034306,-34.5238095238)"
    />
  
  <line
    x1="80.17857142857143"
    y1="0"
    x2="87.5670775924583"
    y2="1.0609137055837563"
    stroke="hsla(0,50%,50%,0.6)"
    stroke-width="1"
    transform="translate(-94.8213034306,-34.5238095238)"
    />
  
  <line
    x1="80.13850616388687"
    y1="1.0609137055837563"
    x2="87.4563089195069"
    y2="2.1116751269035534"
    stroke="hsla(0,50%,50%,0.6)"
    stroke-width="1"
    transform="translate(-94.8213034306,-34.5238095238)"
    />
  
  <line
    x1="80.09916606236403"
    y1="2.1116751269035534"
    x2="87.34626540971719"
    y2="3.1522842639593907"
    stroke="hsla(0,50%,50%,0.6)"
    stroke-width="1"
    transform="translate(-94.8213034306,-34.5238095238)"
    />
  
  <line
    x1="109.26051928757141"
    y1="29.345761332885264"
    x2="111.13762765380125"
    y2="53.14808663191304"
    stroke="hsla(0,50%,50%,0.6)"
    stroke-width="1"
    transform="translate(-94.8213034306,-34.5238095238)"
    />
  
  <line
    x1="80.0605511240029"
    y1="3.1522842639593907"
    x2="87.23694706308919"
    y2="4.182741116751269"
    stroke="hsla(0,50%,50%,0.6)"
    stroke-width="1"
    transform="translate(-94.8213034306,-34.5238095238)"
    />
  
  <line
    x1="80.02266134880348"
    y1="4.182741116751269"
    x2="87.12835387962292"
    y2="5.2030456852791875"
    stroke="hsla(0,50%,50%,0.6)"
    stroke-width="1"
    transform="translate(-94.8213034306,-34.5238095238)"
    />
  
  <line
    x1="79.94978245105149"
    y1="5.2030456852791875"
    x2="86.98477157360406"
    y2="6.213197969543147"
    stroke="hsla(0,50%,50%,0.6)"
    stroke-width="1"
    transform="translate(-94.8213034306,-34.5238095238)"
    />
  
  <line
    x1="89.28571428571429"
    y1="64.28571428571429"
    x2="95.23809523809524"
    y2="69.04761904761905"
    stroke="hsla(0,50%,50%,0.6)"
    stroke-width="1"
    transform="translate(-94.8213034306,-34.5238095238)"
    />
  
  <line
    x1="80.17857142857143"
    y1="0"
    x2="100"
    y2="0"
    stroke="hsla(0,50%,50%,0.6)"
    stroke-width="1"
    transform="translate(-94.8213034306,-34.5238095238)"
    />
  
  <line
    x1="100"
    y1="0"
    x2="100"
    y2="64.28571428571429"
    stroke="hsla(0,50%,50%,0.6)"
    stroke-width="1"
    transform="translate(-94.8213034306,-34.5238095238)"
    />
  
  <line
    x1="80.13850616388687"
    y1="1.0609137055837563"
    x2="87.5670775924583"
    y2="1.0609137055837563"
    stroke="hsla(0,50%,50%,0.6)"
    stroke-width="1"
    transform="translate(-94.8213034306,-34.5238095238)"
    />
  
  <line
    x1="80.09916606236403"
    y1="2.1116751269035534"
    x2="87.4563089195069"
    y2="2.1116751269035534"
    stroke="hsla(0,50%,50%,0.6)"
    stroke-width="1"
    transform="translate(-94.8213034306,-34.5238095238)"
    />
  
  <line
    x1="80.0605511240029"
    y1="3.1522842639593907"
    x2="87.34626540971719"
    y2="3.1522842639593907"
    stroke="hsla(0,50%,50%,0.6)"
    stroke-width="1"
    transform="translate(-94.8213034306,-34.5238095238)"
    />
  
  <line
    x1="80.02266134880348"
    y1="4.182741116751269"
    x2="87.23694706308919"
    y2="4.182741116751269"
    stroke="hsla(0,50%,50%,0.6)"
    stroke-width="1"
    transform="translate(-94.8213034306,-34.5238095238)"
    />
  
  <line
    x1="79.94978245105149"
    y1="5.2030456852791875"
    x2="87.12835387962292"
    y2="5.2030456852791875"
    stroke="hsla(0,50%,50%,0.6)"
    stroke-width="1"
    transform="translate(-94.8213034306,-34.5238095238)"
    />
  
  <line
    x1="80.17857142857143"
    y1="0"
    x2="76.88524590163935"
    y2="46.10655737704918"
    stroke="hsla(0,50%,50%,0.6)"
    stroke-width="1"
    transform="translate(-94.8213034306,-34.5238095238)"
    />
  
  <line
    x1="80.13850616388687"
    y1="1.0609137055837563"
    x2="76.91803278688525"
    y2="46.14754098360656"
    stroke="hsla(0,50%,50%,0.6)"
    stroke-width="1"
    transform="translate(-94.8213034306,-34.5238095238)"
    />
  
  <line
    x1="80.09916606236403"
    y1="2.1116751269035534"
    x2="76.95081967213115"
    y2="46.18852459016394"
    stroke="hsla(0,50%,50%,0.6)"
    stroke-width="1"
    transform="translate(-94.8213034306,-34.5238095238)"
    />
  
  <line
    x1="80.0605511240029"
    y1="3.1522842639593907"
    x2="76.98360655737704"
    y2="46.22950819672131"
    stroke="hsla(0,50%,50%,0.6)"
    stroke-width="1"
    transform="translate(-94.8213034306,-34.5238095238)"
    />
  
  <line
    x1="80.02266134880348"
    y1="4.182741116751269"
    x2="77.01639344262296"
    y2="46.27049180327869"
    stroke="hsla(0,50%,50%,0.6)"
    stroke-width="1"
    transform="translate(-94.8213034306,-34.5238095238)"
    />
  
  <line
    x1="87.12835387962292"
    y1="5.2030456852791875"
    x2="83.60655737704919"
    y2="54.50819672131148"
    stroke="hsla(0,50%,50%,0.6)"
    stroke-width="1"
    transform="translate(-94.8213034306,-34.5238095238)"
    />
  
  <line
    x1="87.23694706308919"
    y1="4.182741116751269"
    x2="83.63934426229508"
    y2="54.549180327868854"
    stroke="hsla(0,50%,50%,0.6)"
    stroke-width="1"
    transform="translate(-94.8213034306,-34.5238095238)"
    />
  
  <line
    x1="87.34626540971719"
    y1="3.1522842639593907"
    x2="83.67213114754098"
    y2="54.59016393442623"
    stroke="hsla(0,50%,50%,0.6)"
    stroke-width="1"
    transform="translate(-94.8213034306,-34.5238095238)"
    />
  
  <line
    x1="87.4563089195069"
    y1="2.1116751269035534"
    x2="83.70491803278688"
    y2="54.631147540983605"
    stroke="hsla(0,50%,50%,0.6)"
    stroke-width="1"
    transform="translate(-94.8213034306,-34.5238095238)"
    />
  
  <line
    x1="87.5670775924583"
    y1="1.0609137055837563"
    x2="83.73770491803279"
    y2="54.67213114754098"
    stroke="hsla(0,50%,50%,0.6)"
    stroke-width="1"
    transform="translate(-94.8213034306,-34.5238095238)"
    />
  
  <line
    x1="86.98477157360406"
    y1="6.213197969543147"
    x2="80.59130434782608"
    y2="50.73913043478261"
    stroke="hsla(0,50%,50%,0.6)"
    stroke-width="1"
    transform="translate(-94.8213034306,-34.5238095238)"
    />
  
  <line
    x1="76.88524590163935"
    y1="46.10655737704918"
    x2="112.75736095965104"
    y2="51.52835332606325"
    stroke="hsla(0,50%,50%,0.6)"
    stroke-width="1"
    transform="translate(-94.8213034306,-34.5238095238)"
    />
  
  <line
    x1="76.91803278688525"
    y1="46.14754098360656"
    x2="112.72606324972737"
    y2="51.55965103598692"
    stroke="hsla(0,50%,50%,0.6)"
    stroke-width="1"
    transform="translate(-94.8213034306,-34.5238095238)"
    />
  
  <line
    x1="76.95081967213115"
    y1="46.18852459016394"
    x2="112.69476553980371"
    y2="51.59094874591058"
    stroke="hsla(0,50%,50%,0.6)"
    stroke-width="1"
    transform="translate(-94.8213034306,-34.5238095238)"
    />
  
  <line
    x1="76.98360655737704"
    y1="46.22950819672131"
    x2="112.66346782988005"
    y2="51.622246455834244"
    stroke="hsla(0,50%,50%,0.6)"
    stroke-width="1"
    transform="translate(-94.8213034306,-34.5238095238)"
    />
  
  <line
    x1="77.01639344262296"
    y1="46.27049180327869"
    x2="112.63217011995638"
    y2="51.65354416575791"
    stroke="hsla(0,50%,50%,0.6)"
    stroke-width="1"
    transform="translate(-94.8213034306,-34.5238095238)"
    />
  
  <line
    x1="109.33847432745539"
    y1="29.861533631652488"
    x2="102.18212207502786"
    y2="30.425900705707566"
    stroke="hsla(0,50%,50%,0.6)"
    stroke-width="1"
    transform="translate(-94.8213034306,-34.5238095238)"
    />
  
  <line
    x1="109.52770653884929"
    y1="30.875174658200535"
    x2="102.30014680132298"
    y2="31.44515732503228"
    stroke="hsla(0,50%,50%,0.6)"
    stroke-width="1"
    transform="translate(-94.8213034306,-34.5238095238)"
    />
  
  <line
    x1="109.71845982419215"
    y1="31.898879534480624"
    x2="102.41969260156706"
    y2="32.47447779408903"
    stroke="hsla(0,50%,50%,0.6)"
    stroke-width="1"
    transform="translate(-94.8213034306,-34.5238095238)"
    />
  
  <line
    x1="83.60655737704919"
    y1="54.50819672131148"
    x2="106.34133042529989"
    y2="57.9443838604144"
    stroke="hsla(0,50%,50%,0.6)"
    stroke-width="1"
    transform="translate(-94.8213034306,-34.5238095238)"
    />
  
  <line
    x1="83.63934426229508"
    y1="54.549180327868854"
    x2="106.31003271537622"
    y2="57.97568157033806"
    stroke="hsla(0,50%,50%,0.6)"
    stroke-width="1"
    transform="translate(-94.8213034306,-34.5238095238)"
    />
  
  <line
    x1="83.67213114754098"
    y1="54.59016393442623"
    x2="106.27873500545256"
    y2="58.006979280261724"
    stroke="hsla(0,50%,50%,0.6)"
    stroke-width="1"
    transform="translate(-94.8213034306,-34.5238095238)"
    />
  
  <line
    x1="83.70491803278688"
    y1="54.631147540983605"
    x2="106.2474372955289"
    y2="58.03827699018539"
    stroke="hsla(0,50%,50%,0.6)"
    stroke-width="1"
    transform="translate(-94.8213034306,-34.5238095238)"
    />
  
  <line
    x1="83.73770491803279"
    y1="54.67213114754098"
    x2="106.21613958560523"
    y2="58.06957470010905"
    stroke="hsla(0,50%,50%,0.6)"
    stroke-width="1"
    transform="translate(-94.8213034306,-34.5238095238)"
    />
  
  <line
    x1="109.91073418348397"
    y1="32.932648260492755"
    x2="102.5407594757601"
    y2="33.51386211287784"
    stroke="hsla(0,50%,50%,0.6)"
    stroke-width="1"
    transform="translate(-94.8213034306,-34.5238095238)"
    />
  
  <line
    x1="110.10452961672473"
    y1="33.97648083623693"
    x2="102.66334742390208"
    y2="34.56331028139868"
    stroke="hsla(0,50%,50%,0.6)"
    stroke-width="1"
    transform="translate(-94.8213034306,-34.5238095238)"
    />
  
  <line
    x1="80.59130434782608"
    y1="50.73913043478261"
    x2="111.13762765380125"
    y2="53.14808663191304"
    stroke="hsla(0,50%,50%,0.6)"
    stroke-width="1"
    transform="translate(-94.8213034306,-34.5238095238)"
    />
  
  <line
    x1="109.15076319001044"
    y1="28.857956454836483"
    x2="102.18212207502786"
    y2="30.425900705707566"
    stroke="hsla(0,50%,50%,0.6)"
    stroke-width="1"
    transform="translate(-94.8213034306,-34.5238095238)"
    />
  
  <line
    x1="109.33847432745539"
    y1="29.861533631652488"
    x2="102.30014680132298"
    y2="31.44515732503228"
    stroke="hsla(0,50%,50%,0.6)"
    stroke-width="1"
    transform="translate(-94.8213034306,-34.5238095238)"
    />
  
  <line
    x1="109.52770653884929"
    y1="30.875174658200535"
    x2="102.41969260156706"
    y2="32.47447779408903"
    stroke="hsla(0,50%,50%,0.6)"
    stroke-width="1"
    transform="translate(-94.8213034306,-34.5238095238)"
    />
  
  <line
    x1="109.71845982419215"
    y1="31.898879534480624"
    x2="102.5407594757601"
    y2="33.51386211287784"
    stroke="hsla(0,50%,50%,0.6)"
    stroke-width="1"
    transform="translate(-94.8213034306,-34.5238095238)"
    />
  
  <line
    x1="109.91073418348397"
    y1="32.932648260492755"
    x2="102.66334742390208"
    y2="34.56331028139868"
    stroke="hsla(0,50%,50%,0.6)"
    stroke-width="1"
    transform="translate(-94.8213034306,-34.5238095238)"
    />
  
  <line
    x1="110.10452961672473"
    y1="33.97648083623693"
    x2="83.7979094076655"
    y2="39.89547038327526"
    stroke="hsla(0,50%,50%,0.6)"
    stroke-width="1"
    transform="translate(-94.8213034306,-34.5238095238)"
    />
  
  <line
    x1="89.28571428571429"
    y1="64.28571428571429"
    x2="100"
    y2="64.28571428571429"
    stroke="hsla(0,50%,50%,0.6)"
    stroke-width="1"
    transform="translate(-94.8213034306,-34.5238095238)"
    />
  
  <line
    x1="112.75736095965104"
    y1="51.52835332606325"
    x2="95.23809523809524"
    y2="69.04761904761905"
    stroke="hsla(0,50%,50%,0.6)"
    stroke-width="1"
    transform="translate(-94.8213034306,-34.5238095238)"
    />
  
</svg>
