<?xml version="1.0"?>
<!DOCTYPE svg PUBLIC "-//W3C//DTD SVG 1.1//EN"
  "http://www.w3.org/Graphics/SVG/1.1/DTD/svg11.dtd">
<svg
  width="240"
  height="240"
  viewBox="-500 -500 1000 1000" xmlns="http://www.w3.org/2000/svg" version="1.1">
  <rect
    x="0"
    y="0"
    width="100"
    height="100"
    fill="hsla(206,100%,53%,0.3)"
    stroke="hsl(206,100%,53%)"
    stroke-width="3"
    transform="" />
  
  <path
    d="M 
      34.7236351305
      75.9749067480
      L
    
      71.5773248130
      145.9969171448
      L
    
      62.5058968173
      154.7534776136
      L
    
      56.9360976455
      148.9834001593
      L
    
      -14.0512033412
      163.4632225278
      L
    
      -23.9662418655
      114.8547654555
      L
    
      0
      98.9780223922
      L
    
      0
      90
      z
    "
    fill="hsla(0,0%,50%,0.3)"
    stroke="hsla(0,0%,50%,1)"
    stroke-width="1"
    transform="translate(-23.8055414737,-119.7190646379)"
    />
  
  
  <line
    x1="0"
    y1="90"
    x2="0"
    y2="100"
    stroke="hsla(0,50%,50%,0.6)"
    stroke-width="1"
    transform="translate(-23.8055414737,-119.7190646379)"
    />
  
  <line
    x1="34.72363513055273"
    y1="75.97490674805019"
    x2="71.57732481307929"
    y2="145.99691714485064"
    stroke="hsla(0,50%,50%,0.6)"
    stroke-width="1"
    transform="translate(-23.8055414737,-119.7190646379)"
    />
  
  <line
    x1="-23.96624186550976"
    y1="114.85476545553145"
    x2="-14.051203341285817"
    y2="163.4632225278741"
    stroke="hsla(0,50%,50%,0.6)"
    stroke-width="1"
    transform="translate(-23.8055414737,-119.7190646379)"
    />
  
  <line
    x1="0"
    y1="90"
    x2="62.505896817371564"
    y2="154.7534776136085"
    stroke="hsla(0,50%,50%,0.6)"
    stroke-width="1"
    transform="translate(-23.8055414737,-119.7190646379)"
    />
  
  <line
    x1="47.36842105263158"
    y1="100"
    x2="17.570498915401302"
    y2="143.38394793926247"
    stroke="hsla(0,50%,50%,0.6)"
    stroke-width="1"
    transform="translate(-23.8055414737,-119.7190646379)"
    />
  
  <line
    x1="34.72363513055273"
    y1="75.97490674805019"
    x2="-23.96624186550976"
    y2="114.85476545553145"
    stroke="hsla(0,50%,50%,0.6)"
    stroke-width="1"
    transform="translate(-23.8055414737,-119.7190646379)"
    />
  
  <line
    x1="34.72363513055273"
    y1="75.97490674805019"
    x2="0"
    y2="90"
    stroke="hsla(0,50%,50%,0.6)"
    stroke-width="1"
    transform="translate(-23.8055414737,-119.7190646379)"
    />
  
  <line
    x1="-23.96624186550976"
    y1="114.85476545553145"
    x2="17.570498915401302"
    y2="143.38394793926247"
    stroke="hsla(0,50%,50%,0.6)"
    stroke-width="1"
    transform="translate(-23.8055414737,-119.7190646379)"
    />
  
  <line
    x1="0"
    y1="100"
    x2="47.36842105263158"
    y2="100"
    stroke="hsla(0,50%,50%,0.6)"
    stroke-width="1"
    transform="translate(-23.8055414737,-119.7190646379)"
    />
  
  <line
    x1="71.57732481307929"
    y1="145.99691714485064"
    x2="62.505896817371564"
    y2="154.7534776136085"
    stroke="hsla(0,50%,50%,0.6)"
    stroke-width="1"
    transform="translate(-23.8055414737,-119.7190646379)"
    />
  
  <line
    x1="71.57732481307929"
    y1="145.99691714485064"
    x2="-14.051203341285817"
    y2="163.4632225278741"
    stroke="hsla(0,50%,50%,0.6)"
    stroke-width="1"
    transform="translate(-23.8055414737,-119.7190646379)"
    />
  
</svg>
