<?xml version="1.0"?>
<!DOCTYPE svg PUBLIC "-//W3C//DTD SVG 1.1//EN"
  "http://www.w3.org/Graphics/SVG/1.1/DTD/svg11.dtd">
<svg
  width="240"
  height="240"
  viewBox="-500 -500 1000 1000" xmlns="http://www.w3.org/2000/svg" version="1.1">
  <rect
    x="0"
    y="0"
    width="100"
    height="100"
    fill="hsla(206,100%,53%,0.3)"
    stroke="hsl(206,100%,53%)"
    stroke-width="3"
    transform="" />
  
  <path
    d="M 
      534.6673888676
      644.0074634365
      L
    
      602.5665712223
      650.7177348338
      L
    
      595.4455688863
      722.7729778395
      L
    
      597.2696245733
      723.2081911262
      L
    
      594.0824092432
      736.5663730244
      L
    
      521.1809008074
      724.3251704319
      z
    "
    fill="hsla(0,0%,50%,0.3)"
    stroke="hsla(0,0%,50%,1)"
    stroke-width="1"
    transform="translate(-561.8737360149,-690.2869182304)"
    />
  
  
  <line
    x1="549.1452280201454"
    y1="708.2521844273784"
    x2="547.1262345022574"
    y2="728.681761851022"
    stroke="hsla(0,50%,50%,0.6)"
    stroke-width="1"
    transform="translate(-561.8737360149,-690.2869182304)"
    />
  
  <line
    x1="602.5665712223756"
    y1="650.7177348338138"
    x2="594.0824092432944"
    y2="736.5663730244282"
    stroke="hsla(0,50%,50%,0.6)"
    stroke-width="1"
    transform="translate(-561.8737360149,-690.2869182304)"
    />
  
  <line
    x1="534.667388867698"
    y1="644.0074634365532"
    x2="521.1809008074788"
    y2="724.3251704319847"
    stroke="hsla(0,50%,50%,0.6)"
    stroke-width="1"
    transform="translate(-561.8737360149,-690.2869182304)"
    />
  
  <line
    x1="565.5699927412375"
    y1="651.3807162905907"
    x2="547.1262345022574"
    y2="728.681761851022"
    stroke="hsla(0,50%,50%,0.6)"
    stroke-width="1"
    transform="translate(-561.8737360149,-690.2869182304)"
    />
  
  <line
    x1="597.2696245733788"
    y1="723.2081911262799"
    x2="594.0824092432944"
    y2="736.5663730244282"
    stroke="hsla(0,50%,50%,0.6)"
    stroke-width="1"
    transform="translate(-561.8737360149,-690.2869182304)"
    />
  
  <line
    x1="534.667388867698"
    y1="644.0074634365532"
    x2="565.5699927412375"
    y2="651.3807162905907"
    stroke="hsla(0,50%,50%,0.6)"
    stroke-width="1"
    transform="translate(-561.8737360149,-690.2869182304)"
    />
  
  <line
    x1="524.2922067587402"
    y1="705.7960352968222"
    x2="597.2696245733788"
    y2="723.2081911262799"
    stroke="hsla(0,50%,50%,0.6)"
    stroke-width="1"
    transform="translate(-561.8737360149,-690.2869182304)"
    />
  
  <line
    x1="534.667388867698"
    y1="644.0074634365532"
    x2="602.5665712223756"
    y2="650.7177348338138"
    stroke="hsla(0,50%,50%,0.6)"
    stroke-width="1"
    transform="translate(-561.8737360149,-690.2869182304)"
    />
  
  <line
    x1="521.1809008074788"
    y1="724.3251704319847"
    x2="594.0824092432944"
    y2="736.5663730244282"
    stroke="hsla(0,50%,50%,0.6)"
    stroke-width="1"
    transform="translate(-561.8737360149,-690.2869182304)"
    />
  
  <line
    x1="524.2922067587402"
    y1="705.7960352968222"
    x2="549.1452280201454"
    y2="708.2521844273784"
    stroke="hsla(0,50%,50%,0.6)"
    stroke-width="1"
    transform="translate(-561.8737360149,-690.2869182304)"
    />
  
</svg>
