<?xml version="1.0"?>
<!DOCTYPE svg PUBLIC "-//W3C//DTD SVG 1.1//EN"
  "http://www.w3.org/Graphics/SVG/1.1/DTD/svg11.dtd">
<svg
  width="240"
  height="240"
  viewBox="-500 -500 1000 1000" xmlns="http://www.w3.org/2000/svg" version="1.1">
  <rect
    x="0"
    y="0"
    width="100"
    height="100"
    fill="hsla(206,100%,53%,0.3)"
    stroke="hsl(206,100%,53%)"
    stroke-width="3"
    transform="" />
  
  <path
    d="M 
      514.1375322320
      703.4425809006
      L
    
      528.5154141532
      705.6781328073
      L
    
      528.3258170860
      706.8975203943
      L
    
      597.1608832807
      723.6593059936
      L
    
      581.2990799478
      788.7984450142
      L
    
      500.3507088833
      772.6795978894
      z
    "
    fill="hsla(0,0%,50%,0.3)"
    stroke="hsla(0,0%,50%,1)"
    stroke-width="1"
    transform="translate(-548.7557960820,-746.1205129574)"
    />
  
  
  <line
    x1="528.5154141532519"
    y1="705.678132807302"
    x2="517.5646958866034"
    y2="776.107333633405"
    stroke="hsla(0,50%,50%,0.6)"
    stroke-width="1"
    transform="translate(-548.7557960820,-746.1205129574)"
    />
  
  <line
    x1="586.3626419797395"
    y1="756.2323047340011"
    x2="581.2990799478175"
    y2="788.7984450142962"
    stroke="hsla(0,50%,50%,0.6)"
    stroke-width="1"
    transform="translate(-548.7557960820,-746.1205129574)"
    />
  
  <line
    x1="514.1375322320074"
    y1="703.4425809006511"
    x2="500.3507088833851"
    y2="772.6795978894268"
    stroke="hsla(0,50%,50%,0.6)"
    stroke-width="1"
    transform="translate(-548.7557960820,-746.1205129574)"
    />
  
  <line
    x1="524.360723760461"
    y1="748.1983124980964"
    x2="517.5646958866034"
    y2="776.107333633405"
    stroke="hsla(0,50%,50%,0.6)"
    stroke-width="1"
    transform="translate(-548.7557960820,-746.1205129574)"
    />
  
  <line
    x1="597.160883280757"
    y1="723.6593059936909"
    x2="581.2990799478175"
    y2="788.7984450142962"
    stroke="hsla(0,50%,50%,0.6)"
    stroke-width="1"
    transform="translate(-548.7557960820,-746.1205129574)"
    />
  
  <line
    x1="514.1375322320074"
    y1="703.4425809006511"
    x2="597.160883280757"
    y2="723.6593059936909"
    stroke="hsla(0,50%,50%,0.6)"
    stroke-width="1"
    transform="translate(-548.7557960820,-746.1205129574)"
    />
  
  <line
    x1="506.11046840361047"
    y1="743.7542568105515"
    x2="524.360723760461"
    y2="748.1983124980964"
    stroke="hsla(0,50%,50%,0.6)"
    stroke-width="1"
    transform="translate(-548.7557960820,-746.1205129574)"
    />
  
  <line
    x1="514.1375322320074"
    y1="703.4425809006511"
    x2="528.5154141532519"
    y2="705.678132807302"
    stroke="hsla(0,50%,50%,0.6)"
    stroke-width="1"
    transform="translate(-548.7557960820,-746.1205129574)"
    />
  
  <line
    x1="500.3507088833851"
    y1="772.6795978894268"
    x2="581.2990799478175"
    y2="788.7984450142962"
    stroke="hsla(0,50%,50%,0.6)"
    stroke-width="1"
    transform="translate(-548.7557960820,-746.1205129574)"
    />
  
  <line
    x1="506.11046840361047"
    y1="743.7542568105515"
    x2="586.3626419797395"
    y2="756.2323047340011"
    stroke="hsla(0,50%,50%,0.6)"
    stroke-width="1"
    transform="translate(-548.7557960820,-746.1205129574)"
    />
  
</svg>
