<?xml version="1.0"?>
<!DOCTYPE svg PUBLIC "-//W3C//DTD SVG 1.1//EN"
  "http://www.w3.org/Graphics/SVG/1.1/DTD/svg11.dtd">
<svg
  width="240"
  height="240"
  viewBox="-500 -500 1000 1000" xmlns="http://www.w3.org/2000/svg" version="1.1">
  <rect
    x="0"
    y="0"
    width="100"
    height="100"
    fill="hsla(206,100%,53%,0.3)"
    stroke="hsl(206,100%,53%)"
    stroke-width="3"
    transform="" />
  
  <path
    d="M 
      587.9213153258
      722.3292229399
      L
    
      596.9230769230
      724.6153846153
      L
    
      595.4404894547
      730.4530727717
      L
    
      649.5392585968
      788.9023477937
      L
    
      606.1224740327
      829.0875272358
      L
    
      545.7800476175
      793.2134468758
      z
    "
    fill="hsla(0,0%,50%,0.3)"
    stroke="hsla(0,0%,50%,1)"
    stroke-width="1"
    transform="translate(-597.6596531071,-775.7083750878)"
    />
  
  
  <line
    x1="587.9213153258955"
    y1="722.32922293991"
    x2="649.5392585968052"
    y2="788.9023477937029"
    stroke="hsla(0,50%,50%,0.6)"
    stroke-width="1"
    transform="translate(-597.6596531071,-775.7083750878)"
    />
  
  <line
    x1="556.930614767861"
    y1="774.4575018870304"
    x2="583.3366564783677"
    y2="802.9870602976234"
    stroke="hsla(0,50%,50%,0.6)"
    stroke-width="1"
    transform="translate(-597.6596531071,-775.7083750878)"
    />
  
  <line
    x1="596.9230769230769"
    y1="724.6153846153846"
    x2="575.0777901270969"
    y2="810.6312013745558"
    stroke="hsla(0,50%,50%,0.6)"
    stroke-width="1"
    transform="translate(-597.6596531071,-775.7083750878)"
    />
  
  <line
    x1="616.1754798504224"
    y1="789.5038168286334"
    x2="606.1224740327108"
    y2="829.0875272358732"
    stroke="hsla(0,50%,50%,0.6)"
    stroke-width="1"
    transform="translate(-597.6596531071,-775.7083750878)"
    />
  
  <line
    x1="545.7800476175189"
    y1="793.2134468758552"
    x2="606.1224740327108"
    y2="829.0875272358732"
    stroke="hsla(0,50%,50%,0.6)"
    stroke-width="1"
    transform="translate(-597.6596531071,-775.7083750878)"
    />
  
  <line
    x1="587.9213153258955"
    y1="722.32922293991"
    x2="545.7800476175189"
    y2="793.2134468758552"
    stroke="hsla(0,50%,50%,0.6)"
    stroke-width="1"
    transform="translate(-597.6596531071,-775.7083750878)"
    />
  
  <line
    x1="587.9213153258955"
    y1="722.32922293991"
    x2="596.9230769230769"
    y2="724.6153846153846"
    stroke="hsla(0,50%,50%,0.6)"
    stroke-width="1"
    transform="translate(-597.6596531071,-775.7083750878)"
    />
  
  <line
    x1="556.930614767861"
    y1="774.4575018870304"
    x2="616.1754798504224"
    y2="789.5038168286334"
    stroke="hsla(0,50%,50%,0.6)"
    stroke-width="1"
    transform="translate(-597.6596531071,-775.7083750878)"
    />
  
  <line
    x1="583.3366564783677"
    y1="802.9870602976234"
    x2="575.0777901270969"
    y2="810.6312013745558"
    stroke="hsla(0,50%,50%,0.6)"
    stroke-width="1"
    transform="translate(-597.6596531071,-775.7083750878)"
    />
  
  <line
    x1="649.5392585968052"
    y1="788.9023477937029"
    x2="606.1224740327108"
    y2="829.0875272358732"
    stroke="hsla(0,50%,50%,0.6)"
    stroke-width="1"
    transform="translate(-597.6596531071,-775.7083750878)"
    />
  
</svg>
