<?xml version="1.0"?>
<!DOCTYPE svg PUBLIC "-//W3C//DTD SVG 1.1//EN"
  "http://www.w3.org/Graphics/SVG/1.1/DTD/svg11.dtd">
<svg
  width="240"
  height="240"
  viewBox="-50 -50 200 200" xmlns="http://www.w3.org/2000/svg" version="1.1">
  <rect
    x="0"
    y="0"
    width="100"
    height="100"
    fill="hsla(206,100%,53%,0.3)"
    stroke="hsl(206,100%,53%)"
    stroke-width="3"
    transform="" />
  
  <path
    d="M 
      583.0640982313
      722.0439337614
      L
    
      667.6903110718
      737.0100131061
      L
    
      664.1577021326
      756.9852724297
      L
    
      667.4097247198
      757.8483091932
      L
    
      657.2042959201
      796.3035481488
      L
    
      570.8795835495
      777.2512921431
      z
    "
    fill="hsla(0,0%,50%,0.3)"
    stroke="hsla(0,0%,50%,1)"
    stroke-width="1"
    transform="translate(-613.7630130187,-775.3395871243) scale(1,-1) translate(50,-110)"
    />
  
  
  <line
    x1="589.9555147758091"
    y1="736.4352931349829"
    x2="582.291802218923"
    y2="779.7700206243484"
    stroke="hsla(0,50%,50%,0.6)"
    stroke-width="1"
    transform="translate(-613.7630130187,-775.3395871243) scale(1,-1) translate(50,-110)"
    />
  
  <line
    x1="667.690311071841"
    y1="737.0100131061133"
    x2="657.2042959201258"
    y2="796.303548148818"
    stroke="hsla(0,50%,50%,0.6)"
    stroke-width="1"
    transform="translate(-613.7630130187,-775.3395871243) scale(1,-1) translate(50,-110)"
    />
  
  <line
    x1="583.0640982313845"
    y1="722.0439337614059"
    x2="570.879583549523"
    y2="777.2512921431104"
    stroke="hsla(0,50%,50%,0.6)"
    stroke-width="1"
    transform="translate(-613.7630130187,-775.3395871243) scale(1,-1) translate(50,-110)"
    />
  
  <line
    x1="596.6542750929368"
    y1="725.6505576208178"
    x2="582.291802218923"
    y2="779.7700206243484"
    stroke="hsla(0,50%,50%,0.6)"
    stroke-width="1"
    transform="translate(-613.7630130187,-775.3395871243) scale(1,-1) translate(50,-110)"
    />
  
  <line
    x1="667.4097247198638"
    y1="757.8483091932837"
    x2="657.2042959201258"
    y2="796.303548148818"
    stroke="hsla(0,50%,50%,0.6)"
    stroke-width="1"
    transform="translate(-613.7630130187,-775.3395871243) scale(1,-1) translate(50,-110)"
    />
  
  <line
    x1="583.0640982313845"
    y1="722.0439337614059"
    x2="596.6542750929368"
    y2="725.6505576208178"
    stroke="hsla(0,50%,50%,0.6)"
    stroke-width="1"
    transform="translate(-613.7630130187,-775.3395871243) scale(1,-1) translate(50,-110)"
    />
  
  <line
    x1="580.2660533546073"
    y1="734.7217194848116"
    x2="667.4097247198638"
    y2="757.8483091932837"
    stroke="hsla(0,50%,50%,0.6)"
    stroke-width="1"
    transform="translate(-613.7630130187,-775.3395871243) scale(1,-1) translate(50,-110)"
    />
  
  <line
    x1="583.0640982313845"
    y1="722.0439337614059"
    x2="667.690311071841"
    y2="737.0100131061133"
    stroke="hsla(0,50%,50%,0.6)"
    stroke-width="1"
    transform="translate(-613.7630130187,-775.3395871243) scale(1,-1) translate(50,-110)"
    />
  
  <line
    x1="580.2660533546073"
    y1="734.7217194848116"
    x2="589.9555147758091"
    y2="736.4352931349829"
    stroke="hsla(0,50%,50%,0.6)"
    stroke-width="1"
    transform="translate(-613.7630130187,-775.3395871243) scale(1,-1) translate(50,-110)"
    />
  
  <line
    x1="570.879583549523"
    y1="777.2512921431104"
    x2="657.2042959201258"
    y2="796.303548148818"
    stroke="hsla(0,50%,50%,0.6)"
    stroke-width="1"
    transform="translate(-613.7630130187,-775.3395871243) scale(1,-1) translate(50,-110)"
    />
  
</svg>
