<?xml version="1.0"?>
<!DOCTYPE svg PUBLIC "-//W3C//DTD SVG 1.1//EN"
  "http://www.w3.org/Graphics/SVG/1.1/DTD/svg11.dtd">
<svg
  width="240"
  height="240"
  viewBox="-500 -500 1000 1000" xmlns="http://www.w3.org/2000/svg" version="1.1">
  <rect
    x="0"
    y="0"
    width="100"
    height="100"
    fill="hsla(206,100%,53%,0.3)"
    stroke="hsl(206,100%,53%)"
    stroke-width="3"
    transform="" />
  
  <path
    d="M 
      588.9667118430
      676.2600342029
      L
    
      589.0920616030
      687.0474815434
      L
    
      610.8322048739
      692.9497828839
      L
    
      594.9537130129
      751.4355612387
      L
    
      542.3156657557
      744.7281665511
      L
    
      550.9839664909
      676.7013923727
      z
    "
    fill="hsla(0,0%,50%,0.3)"
    stroke="hsla(0,0%,50%,1)"
    stroke-width="1"
    transform="translate(-576.5739353148,-713.8477977208)"
    />
  
  
  <line
    x1="594.4959511182789"
    y1="712.041131340434"
    x2="594.9537130129427"
    y2="751.4355612387084"
    stroke="hsla(0,50%,50%,0.6)"
    stroke-width="1"
    transform="translate(-576.5739353148,-713.8477977208)"
    />
  
  <line
    x1="588.9667118430408"
    y1="676.2600342029849"
    x2="589.8326662409428"
    y2="750.7830126791941"
    stroke="hsla(0,50%,50%,0.6)"
    stroke-width="1"
    transform="translate(-576.5739353148,-713.8477977208)"
    />
  
  <line
    x1="550.9839664909249"
    y1="676.7013923727011"
    x2="542.315665755761"
    y2="744.7281665511375"
    stroke="hsla(0,50%,50%,0.6)"
    stroke-width="1"
    transform="translate(-576.5739353148,-713.8477977208)"
    />
  
  <line
    x1="596.5065502183406"
    y1="726.2008733624455"
    x2="589.8326662409428"
    y2="750.7830126791941"
    stroke="hsla(0,50%,50%,0.6)"
    stroke-width="1"
    transform="translate(-576.5739353148,-713.8477977208)"
    />
  
  <line
    x1="610.8322048739673"
    y1="692.9497828839344"
    x2="594.9537130129427"
    y2="751.4355612387084"
    stroke="hsla(0,50%,50%,0.6)"
    stroke-width="1"
    transform="translate(-576.5739353148,-713.8477977208)"
    />
  
  <line
    x1="550.9839664909249"
    y1="676.7013923727011"
    x2="610.8322048739673"
    y2="692.9497828839344"
    stroke="hsla(0,50%,50%,0.6)"
    stroke-width="1"
    transform="translate(-576.5739353148,-713.8477977208)"
    />
  
  <line
    x1="546.4096058362244"
    y1="712.5998929872103"
    x2="596.5065502183406"
    y2="726.2008733624455"
    stroke="hsla(0,50%,50%,0.6)"
    stroke-width="1"
    transform="translate(-576.5739353148,-713.8477977208)"
    />
  
  <line
    x1="542.315665755761"
    y1="744.7281665511375"
    x2="594.9537130129427"
    y2="751.4355612387084"
    stroke="hsla(0,50%,50%,0.6)"
    stroke-width="1"
    transform="translate(-576.5739353148,-713.8477977208)"
    />
  
  <line
    x1="588.9667118430408"
    y1="676.2600342029849"
    x2="550.9839664909249"
    y2="676.7013923727011"
    stroke="hsla(0,50%,50%,0.6)"
    stroke-width="1"
    transform="translate(-576.5739353148,-713.8477977208)"
    />
  
  <line
    x1="594.4959511182789"
    y1="712.041131340434"
    x2="546.4096058362244"
    y2="712.5998929872103"
    stroke="hsla(0,50%,50%,0.6)"
    stroke-width="1"
    transform="translate(-576.5739353148,-713.8477977208)"
    />
  
</svg>
