<?xml version="1.0"?>
<!DOCTYPE svg PUBLIC "-//W3C//DTD SVG 1.1//EN"
  "http://www.w3.org/Graphics/SVG/1.1/DTD/svg11.dtd">
<svg
  width="240"
  height="240"
  viewBox="-500 -500 1000 1000" xmlns="http://www.w3.org/2000/svg" version="1.1">
  <rect
    x="0"
    y="0"
    width="100"
    height="100"
    fill="hsla(206,100%,53%,0.3)"
    stroke="hsl(206,100%,53%)"
    stroke-width="3"
    transform="" />
  
  <path
    d="M 
      593.2008409762
      639.5840257339
      L
    
      594.2709716779
      727.4957000727
      L
    
      596
      728
      L
    
      594.3461349602
      733.6703944220
      L
    
      512.3886160888
      722.4707225491
      L
    
      523.5994845522
      640.4312687075
      z
    "
    fill="hsla(0,0%,50%,0.3)"
    stroke="hsla(0,0%,50%,1)"
    stroke-width="1"
    transform="translate(-554.1943080444,-686.6272100779)"
    />
  
  
  <line
    x1="593.2008409762881"
    y1="639.5840257339269"
    x2="594.3461349602477"
    y2="733.6703944220079"
    stroke="hsla(0,50%,50%,0.6)"
    stroke-width="1"
    transform="translate(-554.1943080444,-686.6272100779)"
    />
  
  <line
    x1="530.3517939557115"
    y1="704.1476381634889"
    x2="530.6051391545276"
    y2="724.9600497495198"
    stroke="hsla(0,50%,50%,0.6)"
    stroke-width="1"
    transform="translate(-554.1943080444,-686.6272100779)"
    />
  
  <line
    x1="523.5994845522747"
    y1="640.4312687075835"
    x2="512.3886160888917"
    y2="722.4707225491785"
    stroke="hsla(0,50%,50%,0.6)"
    stroke-width="1"
    transform="translate(-554.1943080444,-686.6272100779)"
    />
  
  <line
    x1="552.7772321777835"
    y1="648.941445098357"
    x2="530.6051391545276"
    y2="724.9600497495198"
    stroke="hsla(0,50%,50%,0.6)"
    stroke-width="1"
    transform="translate(-554.1943080444,-686.6272100779)"
    />
  
  <line
    x1="596"
    y1="728"
    x2="594.3461349602477"
    y2="733.6703944220079"
    stroke="hsla(0,50%,50%,0.6)"
    stroke-width="1"
    transform="translate(-554.1943080444,-686.6272100779)"
    />
  
  <line
    x1="523.5994845522747"
    y1="640.4312687075835"
    x2="552.7772321777835"
    y2="648.941445098357"
    stroke="hsla(0,50%,50%,0.6)"
    stroke-width="1"
    transform="translate(-554.1943080444,-686.6272100779)"
    />
  
  <line
    x1="514.8667466986794"
    y1="704.3361344537815"
    x2="596"
    y2="728"
    stroke="hsla(0,50%,50%,0.6)"
    stroke-width="1"
    transform="translate(-554.1943080444,-686.6272100779)"
    />
  
  <line
    x1="512.3886160888917"
    y1="722.4707225491785"
    x2="594.3461349602477"
    y2="733.6703944220079"
    stroke="hsla(0,50%,50%,0.6)"
    stroke-width="1"
    transform="translate(-554.1943080444,-686.6272100779)"
    />
  
  <line
    x1="593.2008409762881"
    y1="639.5840257339269"
    x2="523.5994845522747"
    y2="640.4312687075835"
    stroke="hsla(0,50%,50%,0.6)"
    stroke-width="1"
    transform="translate(-554.1943080444,-686.6272100779)"
    />
  
  <line
    x1="530.3517939557115"
    y1="704.1476381634889"
    x2="514.8667466986794"
    y2="704.3361344537815"
    stroke="hsla(0,50%,50%,0.6)"
    stroke-width="1"
    transform="translate(-554.1943080444,-686.6272100779)"
    />
  
</svg>
