<?xml version="1.0"?>
<!DOCTYPE svg PUBLIC "-//W3C//DTD SVG 1.1//EN"
  "http://www.w3.org/Graphics/SVG/1.1/DTD/svg11.dtd">
<svg
  width="240"
  height="240"
  viewBox="-50 -50 200 200" xmlns="http://www.w3.org/2000/svg" version="1.1">
  <rect
    x="0"
    y="0"
    width="100"
    height="100"
    fill="hsla(206,100%,53%,0.3)"
    stroke="hsl(206,100%,53%)"
    stroke-width="3"
    transform="" />
  
  <path
    d="M 
      583.2035367891
      686.5268096479
      L
    
      583.4502761178
      691.0787214845
      L
    
      654.5394982261
      712.8963855586
      L
    
      638.9788974576
      763.5980097291
      L
    
      562.5998224626
      754.2477037817
      L
    
      570.8079410218
      687.1987209435
      z
    "
    fill="hsla(0,0%,50%,0.3)"
    stroke="hsla(0,0%,50%,1)"
    stroke-width="1"
    transform="translate(-583.2929386012,-715.2172345786) scale(1,-1) translate(50,-110)"
    />
  
  
  <line
    x1="636.4368997139381"
    y1="716.7025687980241"
    x2="638.9788974576802"
    y2="763.598009729141"
    stroke="hsla(0,50%,50%,0.6)"
    stroke-width="1"
    transform="translate(-583.2929386012,-715.2172345786) scale(1,-1) translate(50,-110)"
    />
  
  <line
    x1="583.2035367891134"
    y1="686.5268096479859"
    x2="587.0365499450419"
    y2="757.2392414290717"
    stroke="hsla(0,50%,50%,0.6)"
    stroke-width="1"
    transform="translate(-583.2929386012,-715.2172345786) scale(1,-1) translate(50,-110)"
    />
  
  <line
    x1="570.807941021822"
    y1="687.1987209435653"
    x2="562.5998224626858"
    y2="754.2477037817903"
    stroke="hsla(0,50%,50%,0.6)"
    stroke-width="1"
    transform="translate(-583.2929386012,-715.2172345786) scale(1,-1) translate(50,-110)"
    />
  
  <line
    x1="595.59902200489"
    y1="729.3398533007335"
    x2="587.0365499450419"
    y2="757.2392414290717"
    stroke="hsla(0,50%,50%,0.6)"
    stroke-width="1"
    transform="translate(-583.2929386012,-715.2172345786) scale(1,-1) translate(50,-110)"
    />
  
  <line
    x1="654.539498226105"
    y1="712.8963855586904"
    x2="638.9788974576802"
    y2="763.598009729141"
    stroke="hsla(0,50%,50%,0.6)"
    stroke-width="1"
    transform="translate(-583.2929386012,-715.2172345786) scale(1,-1) translate(50,-110)"
    />
  
  <line
    x1="570.807941021822"
    y1="687.1987209435653"
    x2="654.539498226105"
    y2="712.8963855586904"
    stroke="hsla(0,50%,50%,0.6)"
    stroke-width="1"
    transform="translate(-583.2929386012,-715.2172345786) scale(1,-1) translate(50,-110)"
    />
  
  <line
    x1="566.7335474981818"
    y1="720.4808841426645"
    x2="595.59902200489"
    y2="729.3398533007335"
    stroke="hsla(0,50%,50%,0.6)"
    stroke-width="1"
    transform="translate(-583.2929386012,-715.2172345786) scale(1,-1) translate(50,-110)"
    />
  
  <line
    x1="562.5998224626858"
    y1="754.2477037817903"
    x2="638.9788974576802"
    y2="763.598009729141"
    stroke="hsla(0,50%,50%,0.6)"
    stroke-width="1"
    transform="translate(-583.2929386012,-715.2172345786) scale(1,-1) translate(50,-110)"
    />
  
  <line
    x1="583.2035367891134"
    y1="686.5268096479859"
    x2="570.807941021822"
    y2="687.1987209435653"
    stroke="hsla(0,50%,50%,0.6)"
    stroke-width="1"
    transform="translate(-583.2929386012,-715.2172345786) scale(1,-1) translate(50,-110)"
    />
  
  <line
    x1="636.4368997139381"
    y1="716.7025687980241"
    x2="566.7335474981818"
    y2="720.4808841426645"
    stroke="hsla(0,50%,50%,0.6)"
    stroke-width="1"
    transform="translate(-583.2929386012,-715.2172345786) scale(1,-1) translate(50,-110)"
    />
  
</svg>
