<?xml version="1.0"?>
<!DOCTYPE svg PUBLIC "-//W3C//DTD SVG 1.1//EN"
  "http://www.w3.org/Graphics/SVG/1.1/DTD/svg11.dtd">
<svg
  width="240"
  height="240"
  viewBox="-500 -500 1000 1000" xmlns="http://www.w3.org/2000/svg" version="1.1">
  <rect
    x="0"
    y="0"
    width="100"
    height="100"
    fill="hsla(206,100%,53%,0.3)"
    stroke="hsl(206,100%,53%)"
    stroke-width="3"
    transform="" />
  
  <path
    d="M 
      80.1785714285
      0
      L
    
      100
      0
      L
    
      100
      34.0625
      L
    
      101.0365853658
      33.8292682926
      L
    
      100.8776331381
      32.7775959956
      L
    
      100.9124763437
      32.7697562744
      L
    
      100.7550451900
      31.7281478271
      L
    
      100.7898883956
      31.7203081059
      L
    
      100.6339783158
      30.6887635083
      L
    
      100.6688215214
      30.6809237871
      L
    
      100.5144325156
      29.6594430393
      L
    
      100.5492757211
      29.6516033180
      L
    
      100.3964077893
      28.6401864199
      L
    
      107.3650489042
      27.0722421691
      L
    
      107.4748050018
      27.5600470471
      L
    
      107.7063885105
      29.0922681688
      L
    
      107.7419922531
      29.0894603724
      L
    
      107.8971417959
      30.1159730451
      L
    
      107.9327455384
      30.1131652487
      L
    
      108.0894161552
      31.1497417711
      L
    
      108.1250198977
      31.1469339747
      L
    
      108.2832115884
      32.1935743469
      L
    
      108.3188153310
      32.1907665505
      L
    
      111.2061068702
      51.2938931297
      L
    
      94.4444444444
      68.0555555555
      L
    
      87.5
      62.5
      L
    
      86.5217391304
      58.1521739130
      L
    
      76.8852459016
      46.1065573770
      z
    "
    fill="hsla(0,0%,50%,0.3)"
    stroke="hsla(0,0%,50%,1)"
    stroke-width="1"
    transform="translate(-94.0456763859,-34.0277777777)"
    />
  
  
  <line
    x1="107.36504890429615"
    y1="27.072242169122198"
    x2="107.47480500185712"
    y2="27.56004704717098"
    stroke="hsla(0,50%,50%,0.6)"
    stroke-width="1"
    transform="translate(-94.0456763859,-34.0277777777)"
    />
  
  <line
    x1="76.88524590163935"
    y1="46.10655737704918"
    x2="94.44444444444444"
    y2="68.05555555555556"
    stroke="hsla(0,50%,50%,0.6)"
    stroke-width="1"
    transform="translate(-94.0456763859,-34.0277777777)"
    />
  
  <line
    x1="82.01219512195122"
    y1="38.109756097560975"
    x2="87.5"
    y2="62.5"
    stroke="hsla(0,50%,50%,0.6)"
    stroke-width="1"
    transform="translate(-94.0456763859,-34.0277777777)"
    />
  
  <line
    x1="108.31881533101046"
    y1="32.190766550522646"
    x2="111.20610687022901"
    y2="51.29389312977099"
    stroke="hsla(0,50%,50%,0.6)"
    stroke-width="1"
    transform="translate(-94.0456763859,-34.0277777777)"
    />
  
  <line
    x1="108.12501989776968"
    y1="31.14693397477847"
    x2="111.17480916030534"
    y2="51.325190839694656"
    stroke="hsla(0,50%,50%,0.6)"
    stroke-width="1"
    transform="translate(-94.0456763859,-34.0277777777)"
    />
  
  <line
    x1="107.93274553847786"
    y1="30.11316524876634"
    x2="111.14351145038168"
    y2="51.35648854961832"
    stroke="hsla(0,50%,50%,0.6)"
    stroke-width="1"
    transform="translate(-94.0456763859,-34.0277777777)"
    />
  
  <line
    x1="107.74199225313501"
    y1="29.089460372486247"
    x2="111.11221374045802"
    y2="51.38778625954198"
    stroke="hsla(0,50%,50%,0.6)"
    stroke-width="1"
    transform="translate(-94.0456763859,-34.0277777777)"
    />
  
  <line
    x1="107.47480500185712"
    y1="27.56004704717098"
    x2="111.08091603053435"
    y2="51.419083969465646"
    stroke="hsla(0,50%,50%,0.6)"
    stroke-width="1"
    transform="translate(-94.0456763859,-34.0277777777)"
    />
  
  <line
    x1="100.39640778931357"
    y1="28.640186419993277"
    x2="104.79007633587786"
    y2="57.70992366412214"
    stroke="hsla(0,50%,50%,0.6)"
    stroke-width="1"
    transform="translate(-94.0456763859,-34.0277777777)"
    />
  
  <line
    x1="100.51443251560869"
    y1="29.659443039317992"
    x2="104.75877862595419"
    y2="57.7412213740458"
    stroke="hsla(0,50%,50%,0.6)"
    stroke-width="1"
    transform="translate(-94.0456763859,-34.0277777777)"
    />
  
  <line
    x1="100.63397831585277"
    y1="30.688763508374752"
    x2="104.72748091603053"
    y2="57.77251908396946"
    stroke="hsla(0,50%,50%,0.6)"
    stroke-width="1"
    transform="translate(-94.0456763859,-34.0277777777)"
    />
  
  <line
    x1="100.7550451900458"
    y1="31.72814782716355"
    x2="104.69618320610687"
    y2="57.80381679389313"
    stroke="hsla(0,50%,50%,0.6)"
    stroke-width="1"
    transform="translate(-94.0456763859,-34.0277777777)"
    />
  
  <line
    x1="100.8776331381878"
    y1="32.77759599568439"
    x2="104.6648854961832"
    y2="57.8351145038168"
    stroke="hsla(0,50%,50%,0.6)"
    stroke-width="1"
    transform="translate(-94.0456763859,-34.0277777777)"
    />
  
  <line
    x1="80.17857142857143"
    y1="0"
    x2="87.5670775924583"
    y2="1.0609137055837563"
    stroke="hsla(0,50%,50%,0.6)"
    stroke-width="1"
    transform="translate(-94.0456763859,-34.0277777777)"
    />
  
  <line
    x1="80.13850616388687"
    y1="1.0609137055837563"
    x2="87.4563089195069"
    y2="2.1116751269035534"
    stroke="hsla(0,50%,50%,0.6)"
    stroke-width="1"
    transform="translate(-94.0456763859,-34.0277777777)"
    />
  
  <line
    x1="80.09916606236403"
    y1="2.1116751269035534"
    x2="87.34626540971719"
    y2="3.1522842639593907"
    stroke="hsla(0,50%,50%,0.6)"
    stroke-width="1"
    transform="translate(-94.0456763859,-34.0277777777)"
    />
  
  <line
    x1="107.47480500185712"
    y1="27.56004704717098"
    x2="109.48244503280765"
    y2="53.01755496719235"
    stroke="hsla(0,50%,50%,0.6)"
    stroke-width="1"
    transform="translate(-94.0456763859,-34.0277777777)"
    />
  
  <line
    x1="80.0605511240029"
    y1="3.1522842639593907"
    x2="87.23694706308919"
    y2="4.182741116751269"
    stroke="hsla(0,50%,50%,0.6)"
    stroke-width="1"
    transform="translate(-94.0456763859,-34.0277777777)"
    />
  
  <line
    x1="80.02266134880348"
    y1="4.182741116751269"
    x2="87.12835387962292"
    y2="5.2030456852791875"
    stroke="hsla(0,50%,50%,0.6)"
    stroke-width="1"
    transform="translate(-94.0456763859,-34.0277777777)"
    />
  
  <line
    x1="79.94978245105149"
    y1="5.2030456852791875"
    x2="86.98477157360406"
    y2="6.213197969543147"
    stroke="hsla(0,50%,50%,0.6)"
    stroke-width="1"
    transform="translate(-94.0456763859,-34.0277777777)"
    />
  
  <line
    x1="87.5"
    y1="62.5"
    x2="94.44444444444444"
    y2="68.05555555555556"
    stroke="hsla(0,50%,50%,0.6)"
    stroke-width="1"
    transform="translate(-94.0456763859,-34.0277777777)"
    />
  
  <line
    x1="80.17857142857143"
    y1="0"
    x2="100"
    y2="0"
    stroke="hsla(0,50%,50%,0.6)"
    stroke-width="1"
    transform="translate(-94.0456763859,-34.0277777777)"
    />
  
  <line
    x1="100"
    y1="0"
    x2="100"
    y2="62.5"
    stroke="hsla(0,50%,50%,0.6)"
    stroke-width="1"
    transform="translate(-94.0456763859,-34.0277777777)"
    />
  
  <line
    x1="80.13850616388687"
    y1="1.0609137055837563"
    x2="87.5670775924583"
    y2="1.0609137055837563"
    stroke="hsla(0,50%,50%,0.6)"
    stroke-width="1"
    transform="translate(-94.0456763859,-34.0277777777)"
    />
  
  <line
    x1="80.09916606236403"
    y1="2.1116751269035534"
    x2="87.4563089195069"
    y2="2.1116751269035534"
    stroke="hsla(0,50%,50%,0.6)"
    stroke-width="1"
    transform="translate(-94.0456763859,-34.0277777777)"
    />
  
  <line
    x1="80.0605511240029"
    y1="3.1522842639593907"
    x2="87.34626540971719"
    y2="3.1522842639593907"
    stroke="hsla(0,50%,50%,0.6)"
    stroke-width="1"
    transform="translate(-94.0456763859,-34.0277777777)"
    />
  
  <line
    x1="80.02266134880348"
    y1="4.182741116751269"
    x2="87.23694706308919"
    y2="4.182741116751269"
    stroke="hsla(0,50%,50%,0.6)"
    stroke-width="1"
    transform="translate(-94.0456763859,-34.0277777777)"
    />
  
  <line
    x1="79.94978245105149"
    y1="5.2030456852791875"
    x2="87.12835387962292"
    y2="5.2030456852791875"
    stroke="hsla(0,50%,50%,0.6)"
    stroke-width="1"
    transform="translate(-94.0456763859,-34.0277777777)"
    />
  
  <line
    x1="80.17857142857143"
    y1="0"
    x2="76.88524590163935"
    y2="46.10655737704918"
    stroke="hsla(0,50%,50%,0.6)"
    stroke-width="1"
    transform="translate(-94.0456763859,-34.0277777777)"
    />
  
  <line
    x1="80.13850616388687"
    y1="1.0609137055837563"
    x2="76.91803278688525"
    y2="46.14754098360656"
    stroke="hsla(0,50%,50%,0.6)"
    stroke-width="1"
    transform="translate(-94.0456763859,-34.0277777777)"
    />
  
  <line
    x1="80.09916606236403"
    y1="2.1116751269035534"
    x2="76.95081967213115"
    y2="46.18852459016394"
    stroke="hsla(0,50%,50%,0.6)"
    stroke-width="1"
    transform="translate(-94.0456763859,-34.0277777777)"
    />
  
  <line
    x1="80.0605511240029"
    y1="3.1522842639593907"
    x2="76.98360655737704"
    y2="46.22950819672131"
    stroke="hsla(0,50%,50%,0.6)"
    stroke-width="1"
    transform="translate(-94.0456763859,-34.0277777777)"
    />
  
  <line
    x1="80.02266134880348"
    y1="4.182741116751269"
    x2="77.01639344262296"
    y2="46.27049180327869"
    stroke="hsla(0,50%,50%,0.6)"
    stroke-width="1"
    transform="translate(-94.0456763859,-34.0277777777)"
    />
  
  <line
    x1="87.12835387962292"
    y1="5.2030456852791875"
    x2="83.60655737704919"
    y2="54.50819672131148"
    stroke="hsla(0,50%,50%,0.6)"
    stroke-width="1"
    transform="translate(-94.0456763859,-34.0277777777)"
    />
  
  <line
    x1="87.23694706308919"
    y1="4.182741116751269"
    x2="83.63934426229508"
    y2="54.549180327868854"
    stroke="hsla(0,50%,50%,0.6)"
    stroke-width="1"
    transform="translate(-94.0456763859,-34.0277777777)"
    />
  
  <line
    x1="87.34626540971719"
    y1="3.1522842639593907"
    x2="83.67213114754098"
    y2="54.59016393442623"
    stroke="hsla(0,50%,50%,0.6)"
    stroke-width="1"
    transform="translate(-94.0456763859,-34.0277777777)"
    />
  
  <line
    x1="87.4563089195069"
    y1="2.1116751269035534"
    x2="83.70491803278688"
    y2="54.631147540983605"
    stroke="hsla(0,50%,50%,0.6)"
    stroke-width="1"
    transform="translate(-94.0456763859,-34.0277777777)"
    />
  
  <line
    x1="87.5670775924583"
    y1="1.0609137055837563"
    x2="83.73770491803279"
    y2="54.67213114754098"
    stroke="hsla(0,50%,50%,0.6)"
    stroke-width="1"
    transform="translate(-94.0456763859,-34.0277777777)"
    />
  
  <line
    x1="86.98477157360406"
    y1="6.213197969543147"
    x2="80.59130434782608"
    y2="50.73913043478261"
    stroke="hsla(0,50%,50%,0.6)"
    stroke-width="1"
    transform="translate(-94.0456763859,-34.0277777777)"
    />
  
  <line
    x1="76.88524590163935"
    y1="46.10655737704918"
    x2="111.20610687022901"
    y2="51.29389312977099"
    stroke="hsla(0,50%,50%,0.6)"
    stroke-width="1"
    transform="translate(-94.0456763859,-34.0277777777)"
    />
  
  <line
    x1="76.91803278688525"
    y1="46.14754098360656"
    x2="111.17480916030534"
    y2="51.325190839694656"
    stroke="hsla(0,50%,50%,0.6)"
    stroke-width="1"
    transform="translate(-94.0456763859,-34.0277777777)"
    />
  
  <line
    x1="76.95081967213115"
    y1="46.18852459016394"
    x2="111.14351145038168"
    y2="51.35648854961832"
    stroke="hsla(0,50%,50%,0.6)"
    stroke-width="1"
    transform="translate(-94.0456763859,-34.0277777777)"
    />
  
  <line
    x1="76.98360655737704"
    y1="46.22950819672131"
    x2="111.11221374045802"
    y2="51.38778625954198"
    stroke="hsla(0,50%,50%,0.6)"
    stroke-width="1"
    transform="translate(-94.0456763859,-34.0277777777)"
    />
  
  <line
    x1="77.01639344262296"
    y1="46.27049180327869"
    x2="111.08091603053435"
    y2="51.419083969465646"
    stroke="hsla(0,50%,50%,0.6)"
    stroke-width="1"
    transform="translate(-94.0456763859,-34.0277777777)"
    />
  
  <line
    x1="107.5527600417411"
    y1="28.075819345938203"
    x2="100.39640778931357"
    y2="28.640186419993277"
    stroke="hsla(0,50%,50%,0.6)"
    stroke-width="1"
    transform="translate(-94.0456763859,-34.0277777777)"
    />
  
  <line
    x1="107.74199225313501"
    y1="29.089460372486247"
    x2="100.51443251560869"
    y2="29.659443039317992"
    stroke="hsla(0,50%,50%,0.6)"
    stroke-width="1"
    transform="translate(-94.0456763859,-34.0277777777)"
    />
  
  <line
    x1="107.93274553847786"
    y1="30.11316524876634"
    x2="100.63397831585277"
    y2="30.688763508374752"
    stroke="hsla(0,50%,50%,0.6)"
    stroke-width="1"
    transform="translate(-94.0456763859,-34.0277777777)"
    />
  
  <line
    x1="108.12501989776968"
    y1="31.14693397477847"
    x2="100.7550451900458"
    y2="31.72814782716355"
    stroke="hsla(0,50%,50%,0.6)"
    stroke-width="1"
    transform="translate(-94.0456763859,-34.0277777777)"
    />
  
  <line
    x1="108.31881533101046"
    y1="32.190766550522646"
    x2="100.8776331381878"
    y2="32.77759599568439"
    stroke="hsla(0,50%,50%,0.6)"
    stroke-width="1"
    transform="translate(-94.0456763859,-34.0277777777)"
    />
  
  <line
    x1="83.60655737704919"
    y1="54.50819672131148"
    x2="104.79007633587786"
    y2="57.70992366412214"
    stroke="hsla(0,50%,50%,0.6)"
    stroke-width="1"
    transform="translate(-94.0456763859,-34.0277777777)"
    />
  
  <line
    x1="83.63934426229508"
    y1="54.549180327868854"
    x2="104.75877862595419"
    y2="57.7412213740458"
    stroke="hsla(0,50%,50%,0.6)"
    stroke-width="1"
    transform="translate(-94.0456763859,-34.0277777777)"
    />
  
  <line
    x1="83.67213114754098"
    y1="54.59016393442623"
    x2="104.72748091603053"
    y2="57.77251908396946"
    stroke="hsla(0,50%,50%,0.6)"
    stroke-width="1"
    transform="translate(-94.0456763859,-34.0277777777)"
    />
  
  <line
    x1="83.70491803278688"
    y1="54.631147540983605"
    x2="104.69618320610687"
    y2="57.80381679389313"
    stroke="hsla(0,50%,50%,0.6)"
    stroke-width="1"
    transform="translate(-94.0456763859,-34.0277777777)"
    />
  
  <line
    x1="83.73770491803279"
    y1="54.67213114754098"
    x2="104.6648854961832"
    y2="57.8351145038168"
    stroke="hsla(0,50%,50%,0.6)"
    stroke-width="1"
    transform="translate(-94.0456763859,-34.0277777777)"
    />
  
  <line
    x1="80.59130434782608"
    y1="50.73913043478261"
    x2="109.48244503280765"
    y2="53.01755496719235"
    stroke="hsla(0,50%,50%,0.6)"
    stroke-width="1"
    transform="translate(-94.0456763859,-34.0277777777)"
    />
  
  <line
    x1="107.36504890429615"
    y1="27.072242169122198"
    x2="100.39640778931357"
    y2="28.640186419993277"
    stroke="hsla(0,50%,50%,0.6)"
    stroke-width="1"
    transform="translate(-94.0456763859,-34.0277777777)"
    />
  
  <line
    x1="107.5527600417411"
    y1="28.075819345938203"
    x2="100.51443251560869"
    y2="29.659443039317992"
    stroke="hsla(0,50%,50%,0.6)"
    stroke-width="1"
    transform="translate(-94.0456763859,-34.0277777777)"
    />
  
  <line
    x1="107.74199225313501"
    y1="29.089460372486247"
    x2="100.63397831585277"
    y2="30.688763508374752"
    stroke="hsla(0,50%,50%,0.6)"
    stroke-width="1"
    transform="translate(-94.0456763859,-34.0277777777)"
    />
  
  <line
    x1="107.93274553847786"
    y1="30.11316524876634"
    x2="100.7550451900458"
    y2="31.72814782716355"
    stroke="hsla(0,50%,50%,0.6)"
    stroke-width="1"
    transform="translate(-94.0456763859,-34.0277777777)"
    />
  
  <line
    x1="108.12501989776968"
    y1="31.14693397477847"
    x2="100.8776331381878"
    y2="32.77759599568439"
    stroke="hsla(0,50%,50%,0.6)"
    stroke-width="1"
    transform="translate(-94.0456763859,-34.0277777777)"
    />
  
  <line
    x1="108.31881533101046"
    y1="32.190766550522646"
    x2="82.01219512195122"
    y2="38.109756097560975"
    stroke="hsla(0,50%,50%,0.6)"
    stroke-width="1"
    transform="translate(-94.0456763859,-34.0277777777)"
    />
  
  <line
    x1="87.5"
    y1="62.5"
    x2="100"
    y2="62.5"
    stroke="hsla(0,50%,50%,0.6)"
    stroke-width="1"
    transform="translate(-94.0456763859,-34.0277777777)"
    />
  
  <line
    x1="111.20610687022901"
    y1="51.29389312977099"
    x2="94.44444444444444"
    y2="68.05555555555556"
    stroke="hsla(0,50%,50%,0.6)"
    stroke-width="1"
    transform="translate(-94.0456763859,-34.0277777777)"
    />
  
</svg>
