<?xml version="1.0"?>
<!DOCTYPE svg PUBLIC "-//W3C//DTD SVG 1.1//EN"
  "http://www.w3.org/Graphics/SVG/1.1/DTD/svg11.dtd">
<svg
  width="240"
  height="240"
  viewBox="-50 -50 200 200" xmlns="http://www.w3.org/2000/svg" version="1.1">
  <rect
    x="0"
    y="0"
    width="100"
    height="100"
    fill="hsla(206,100%,53%,0.3)"
    stroke="hsl(206,100%,53%)"
    stroke-width="3"
    transform="" />
  
  <path
    d="M 
      31234132400
      9382932700
      L
    
      31234132419.2
      9382932705.6
      L
    
      31234132413.6
      9382932724.8
      L
    
      31234132394.4
      9382932719.2
      z
    "
    fill="hsla(0,0%,50%,0.3)"
    stroke="hsla(0,0%,50%,1)"
    stroke-width="1"
    transform="translate(-31234132403,-9382932716.5) scale(1,-1) translate(50,-110)"
    />
  
  
  <line
    x1="31234132400"
    y1="9382932700"
    x2="31234132419.2"
    y2="9382932705.6"
    stroke="hsla(0,50%,50%,0.6)"
    stroke-width="1"
    transform="translate(-31234132403,-9382932716.5) scale(1,-1) translate(50,-110)"
    />
  
  <line
    x1="31234132394.4"
    y1="9382932719.2"
    x2="31234132413.6"
    y2="9382932724.8"
    stroke="hsla(0,50%,50%,0.6)"
    stroke-width="1"
    transform="translate(-31234132403,-9382932716.5) scale(1,-1) translate(50,-110)"
    />
  
  <line
    x1="31234132400"
    y1="9382932700"
    x2="31234132394.4"
    y2="9382932719.2"
    stroke="hsla(0,50%,50%,0.6)"
    stroke-width="1"
    transform="translate(-31234132403,-9382932716.5) scale(1,-1) translate(50,-110)"
    />
  
  <line
    x1="31234132419.2"
    y1="9382932705.6"
    x2="31234132413.6"
    y2="9382932724.8"
    stroke="hsla(0,50%,50%,0.6)"
    stroke-width="1"
    transform="translate(-31234132403,-9382932716.5) scale(1,-1) translate(50,-110)"
    />
  
</svg>
