<?xml version="1.0"?>
<!DOCTYPE svg PUBLIC "-//W3C//DTD SVG 1.1//EN"
  "http://www.w3.org/Graphics/SVG/1.1/DTD/svg11.dtd">
<svg
  width="240"
  height="240"
  viewBox="-50 -50 200 200" xmlns="http://www.w3.org/2000/svg" version="1.1">
  <rect
    x="0"
    y="0"
    width="100"
    height="100"
    fill="hsla(206,100%,53%,0.3)"
    stroke="hsl(206,100%,53%)"
    stroke-width="3"
    transform="" />
  
  <path
    d="M 
      80.1785714285
      0
      L
    
      100
      0
      L
    
      100
      33.603125
      L
    
      100.6615853658
      33.4542682926
      L
    
      100.5026331381
      32.4025959956
      L
    
      100.5374763437
      32.3947562744
      L
    
      100.3800451900
      31.3531478271
      L
    
      100.4148883956
      31.3453081059
      L
    
      100.2589783158
      30.3137635083
      L
    
      100.2938215214
      30.3059237871
      L
    
      100.1394325156
      29.2844430393
      L
    
      100.1742757211
      29.2766033180
      L
    
      100.0214077893
      28.2651864199
      L
    
      106.9900489042
      26.6972421691
      L
    
      107.0998050018
      27.1850470471
      L
    
      107.3313885105
      28.7172681688
      L
    
      107.3669922531
      28.7144603724
      L
    
      107.5221417959
      29.7409730451
      L
    
      107.5577455384
      29.7381652487
      L
    
      107.7144161552
      30.7747417711
      L
    
      107.7500198977
      30.7719339747
      L
    
      107.9082115884
      31.8185743469
      L
    
      107.9438153310
      31.8157665505
      L
    
      110.8803435114
      51.2446564885
      L
    
      94.2777777777
      67.8472222222
      L
    
      87.125
      62.125
      L
    
      86.1173913043
      57.6467391304
      L
    
      76.8852459016
      46.1065573770
      z
    "
    fill="hsla(0,0%,50%,0.3)"
    stroke="hsla(0,0%,50%,1)"
    stroke-width="1"
    transform="translate(-83.5906103404,-52.0558849244) scale(1,-1) translate(50,-110)"
    />
  
  
  <line
    x1="106.99004890429615"
    y1="26.697242169122198"
    x2="107.09980500185712"
    y2="27.18504704717098"
    stroke="hsla(0,50%,50%,0.6)"
    stroke-width="1"
    transform="translate(-83.5906103404,-52.0558849244) scale(1,-1) translate(50,-110)"
    />
  
  <line
    x1="76.88524590163935"
    y1="46.10655737704918"
    x2="94.27777777777777"
    y2="67.84722222222223"
    stroke="hsla(0,50%,50%,0.6)"
    stroke-width="1"
    transform="translate(-83.5906103404,-52.0558849244) scale(1,-1) translate(50,-110)"
    />
  
  <line
    x1="81.63719512195122"
    y1="37.734756097560975"
    x2="87.125"
    y2="62.125"
    stroke="hsla(0,50%,50%,0.6)"
    stroke-width="1"
    transform="translate(-83.5906103404,-52.0558849244) scale(1,-1) translate(50,-110)"
    />
  
  <line
    x1="107.94381533101046"
    y1="31.81576655052265"
    x2="110.88034351145038"
    y2="51.244656488549616"
    stroke="hsla(0,50%,50%,0.6)"
    stroke-width="1"
    transform="translate(-83.5906103404,-52.0558849244) scale(1,-1) translate(50,-110)"
    />
  
  <line
    x1="107.75001989776968"
    y1="30.77193397477847"
    x2="110.84904580152671"
    y2="51.27595419847328"
    stroke="hsla(0,50%,50%,0.6)"
    stroke-width="1"
    transform="translate(-83.5906103404,-52.0558849244) scale(1,-1) translate(50,-110)"
    />
  
  <line
    x1="107.55774553847786"
    y1="29.73816524876634"
    x2="110.81774809160305"
    y2="51.30725190839695"
    stroke="hsla(0,50%,50%,0.6)"
    stroke-width="1"
    transform="translate(-83.5906103404,-52.0558849244) scale(1,-1) translate(50,-110)"
    />
  
  <line
    x1="107.36699225313501"
    y1="28.714460372486247"
    x2="110.78645038167939"
    y2="51.33854961832061"
    stroke="hsla(0,50%,50%,0.6)"
    stroke-width="1"
    transform="translate(-83.5906103404,-52.0558849244) scale(1,-1) translate(50,-110)"
    />
  
  <line
    x1="107.09980500185712"
    y1="27.18504704717098"
    x2="110.75515267175572"
    y2="51.369847328244276"
    stroke="hsla(0,50%,50%,0.6)"
    stroke-width="1"
    transform="translate(-83.5906103404,-52.0558849244) scale(1,-1) translate(50,-110)"
    />
  
  <line
    x1="100.02140778931357"
    y1="28.265186419993277"
    x2="104.46431297709924"
    y2="57.66068702290077"
    stroke="hsla(0,50%,50%,0.6)"
    stroke-width="1"
    transform="translate(-83.5906103404,-52.0558849244) scale(1,-1) translate(50,-110)"
    />
  
  <line
    x1="100.13943251560869"
    y1="29.284443039317992"
    x2="104.43301526717558"
    y2="57.69198473282443"
    stroke="hsla(0,50%,50%,0.6)"
    stroke-width="1"
    transform="translate(-83.5906103404,-52.0558849244) scale(1,-1) translate(50,-110)"
    />
  
  <line
    x1="100.25897831585277"
    y1="30.313763508374752"
    x2="104.40171755725191"
    y2="57.72328244274809"
    stroke="hsla(0,50%,50%,0.6)"
    stroke-width="1"
    transform="translate(-83.5906103404,-52.0558849244) scale(1,-1) translate(50,-110)"
    />
  
  <line
    x1="100.3800451900458"
    y1="31.35314782716355"
    x2="104.37041984732825"
    y2="57.75458015267176"
    stroke="hsla(0,50%,50%,0.6)"
    stroke-width="1"
    transform="translate(-83.5906103404,-52.0558849244) scale(1,-1) translate(50,-110)"
    />
  
  <line
    x1="100.5026331381878"
    y1="32.40259599568439"
    x2="104.33912213740459"
    y2="57.78587786259542"
    stroke="hsla(0,50%,50%,0.6)"
    stroke-width="1"
    transform="translate(-83.5906103404,-52.0558849244) scale(1,-1) translate(50,-110)"
    />
  
  <line
    x1="80.17857142857143"
    y1="0"
    x2="87.5670775924583"
    y2="1.0609137055837563"
    stroke="hsla(0,50%,50%,0.6)"
    stroke-width="1"
    transform="translate(-83.5906103404,-52.0558849244) scale(1,-1) translate(50,-110)"
    />
  
  <line
    x1="80.13850616388687"
    y1="1.0609137055837563"
    x2="87.4563089195069"
    y2="2.1116751269035534"
    stroke="hsla(0,50%,50%,0.6)"
    stroke-width="1"
    transform="translate(-83.5906103404,-52.0558849244) scale(1,-1) translate(50,-110)"
    />
  
  <line
    x1="80.09916606236403"
    y1="2.1116751269035534"
    x2="87.34626540971719"
    y2="3.1522842639593907"
    stroke="hsla(0,50%,50%,0.6)"
    stroke-width="1"
    transform="translate(-83.5906103404,-52.0558849244) scale(1,-1) translate(50,-110)"
    />
  
  <line
    x1="107.09980500185712"
    y1="27.18504704717098"
    x2="109.13485668239899"
    y2="52.99014331760101"
    stroke="hsla(0,50%,50%,0.6)"
    stroke-width="1"
    transform="translate(-83.5906103404,-52.0558849244) scale(1,-1) translate(50,-110)"
    />
  
  <line
    x1="80.0605511240029"
    y1="3.1522842639593907"
    x2="87.23694706308919"
    y2="4.182741116751269"
    stroke="hsla(0,50%,50%,0.6)"
    stroke-width="1"
    transform="translate(-83.5906103404,-52.0558849244) scale(1,-1) translate(50,-110)"
    />
  
  <line
    x1="80.02266134880348"
    y1="4.182741116751269"
    x2="87.12835387962292"
    y2="5.2030456852791875"
    stroke="hsla(0,50%,50%,0.6)"
    stroke-width="1"
    transform="translate(-83.5906103404,-52.0558849244) scale(1,-1) translate(50,-110)"
    />
  
  <line
    x1="79.94978245105149"
    y1="5.2030456852791875"
    x2="86.98477157360406"
    y2="6.213197969543147"
    stroke="hsla(0,50%,50%,0.6)"
    stroke-width="1"
    transform="translate(-83.5906103404,-52.0558849244) scale(1,-1) translate(50,-110)"
    />
  
  <line
    x1="87.125"
    y1="62.125"
    x2="94.27777777777777"
    y2="67.84722222222223"
    stroke="hsla(0,50%,50%,0.6)"
    stroke-width="1"
    transform="translate(-83.5906103404,-52.0558849244) scale(1,-1) translate(50,-110)"
    />
  
  <line
    x1="80.17857142857143"
    y1="0"
    x2="100"
    y2="0"
    stroke="hsla(0,50%,50%,0.6)"
    stroke-width="1"
    transform="translate(-83.5906103404,-52.0558849244) scale(1,-1) translate(50,-110)"
    />
  
  <line
    x1="100"
    y1="0"
    x2="100"
    y2="62.125"
    stroke="hsla(0,50%,50%,0.6)"
    stroke-width="1"
    transform="translate(-83.5906103404,-52.0558849244) scale(1,-1) translate(50,-110)"
    />
  
  <line
    x1="80.13850616388687"
    y1="1.0609137055837563"
    x2="87.5670775924583"
    y2="1.0609137055837563"
    stroke="hsla(0,50%,50%,0.6)"
    stroke-width="1"
    transform="translate(-83.5906103404,-52.0558849244) scale(1,-1) translate(50,-110)"
    />
  
  <line
    x1="80.09916606236403"
    y1="2.1116751269035534"
    x2="87.4563089195069"
    y2="2.1116751269035534"
    stroke="hsla(0,50%,50%,0.6)"
    stroke-width="1"
    transform="translate(-83.5906103404,-52.0558849244) scale(1,-1) translate(50,-110)"
    />
  
  <line
    x1="80.0605511240029"
    y1="3.1522842639593907"
    x2="87.34626540971719"
    y2="3.1522842639593907"
    stroke="hsla(0,50%,50%,0.6)"
    stroke-width="1"
    transform="translate(-83.5906103404,-52.0558849244) scale(1,-1) translate(50,-110)"
    />
  
  <line
    x1="80.02266134880348"
    y1="4.182741116751269"
    x2="87.23694706308919"
    y2="4.182741116751269"
    stroke="hsla(0,50%,50%,0.6)"
    stroke-width="1"
    transform="translate(-83.5906103404,-52.0558849244) scale(1,-1) translate(50,-110)"
    />
  
  <line
    x1="79.94978245105149"
    y1="5.2030456852791875"
    x2="87.12835387962292"
    y2="5.2030456852791875"
    stroke="hsla(0,50%,50%,0.6)"
    stroke-width="1"
    transform="translate(-83.5906103404,-52.0558849244) scale(1,-1) translate(50,-110)"
    />
  
  <line
    x1="80.17857142857143"
    y1="0"
    x2="76.88524590163935"
    y2="46.10655737704918"
    stroke="hsla(0,50%,50%,0.6)"
    stroke-width="1"
    transform="translate(-83.5906103404,-52.0558849244) scale(1,-1) translate(50,-110)"
    />
  
  <line
    x1="80.13850616388687"
    y1="1.0609137055837563"
    x2="76.91803278688525"
    y2="46.14754098360656"
    stroke="hsla(0,50%,50%,0.6)"
    stroke-width="1"
    transform="translate(-83.5906103404,-52.0558849244) scale(1,-1) translate(50,-110)"
    />
  
  <line
    x1="80.09916606236403"
    y1="2.1116751269035534"
    x2="76.95081967213115"
    y2="46.18852459016394"
    stroke="hsla(0,50%,50%,0.6)"
    stroke-width="1"
    transform="translate(-83.5906103404,-52.0558849244) scale(1,-1) translate(50,-110)"
    />
  
  <line
    x1="80.0605511240029"
    y1="3.1522842639593907"
    x2="76.98360655737704"
    y2="46.22950819672131"
    stroke="hsla(0,50%,50%,0.6)"
    stroke-width="1"
    transform="translate(-83.5906103404,-52.0558849244) scale(1,-1) translate(50,-110)"
    />
  
  <line
    x1="80.02266134880348"
    y1="4.182741116751269"
    x2="77.01639344262296"
    y2="46.27049180327869"
    stroke="hsla(0,50%,50%,0.6)"
    stroke-width="1"
    transform="translate(-83.5906103404,-52.0558849244) scale(1,-1) translate(50,-110)"
    />
  
  <line
    x1="87.12835387962292"
    y1="5.2030456852791875"
    x2="83.60655737704919"
    y2="54.50819672131148"
    stroke="hsla(0,50%,50%,0.6)"
    stroke-width="1"
    transform="translate(-83.5906103404,-52.0558849244) scale(1,-1) translate(50,-110)"
    />
  
  <line
    x1="87.23694706308919"
    y1="4.182741116751269"
    x2="83.63934426229508"
    y2="54.549180327868854"
    stroke="hsla(0,50%,50%,0.6)"
    stroke-width="1"
    transform="translate(-83.5906103404,-52.0558849244) scale(1,-1) translate(50,-110)"
    />
  
  <line
    x1="87.34626540971719"
    y1="3.1522842639593907"
    x2="83.67213114754098"
    y2="54.59016393442623"
    stroke="hsla(0,50%,50%,0.6)"
    stroke-width="1"
    transform="translate(-83.5906103404,-52.0558849244) scale(1,-1) translate(50,-110)"
    />
  
  <line
    x1="87.4563089195069"
    y1="2.1116751269035534"
    x2="83.70491803278688"
    y2="54.631147540983605"
    stroke="hsla(0,50%,50%,0.6)"
    stroke-width="1"
    transform="translate(-83.5906103404,-52.0558849244) scale(1,-1) translate(50,-110)"
    />
  
  <line
    x1="87.5670775924583"
    y1="1.0609137055837563"
    x2="83.73770491803279"
    y2="54.67213114754098"
    stroke="hsla(0,50%,50%,0.6)"
    stroke-width="1"
    transform="translate(-83.5906103404,-52.0558849244) scale(1,-1) translate(50,-110)"
    />
  
  <line
    x1="86.98477157360406"
    y1="6.213197969543147"
    x2="80.59130434782608"
    y2="50.73913043478261"
    stroke="hsla(0,50%,50%,0.6)"
    stroke-width="1"
    transform="translate(-83.5906103404,-52.0558849244) scale(1,-1) translate(50,-110)"
    />
  
  <line
    x1="76.88524590163935"
    y1="46.10655737704918"
    x2="110.88034351145038"
    y2="51.244656488549616"
    stroke="hsla(0,50%,50%,0.6)"
    stroke-width="1"
    transform="translate(-83.5906103404,-52.0558849244) scale(1,-1) translate(50,-110)"
    />
  
  <line
    x1="76.91803278688525"
    y1="46.14754098360656"
    x2="110.84904580152671"
    y2="51.27595419847328"
    stroke="hsla(0,50%,50%,0.6)"
    stroke-width="1"
    transform="translate(-83.5906103404,-52.0558849244) scale(1,-1) translate(50,-110)"
    />
  
  <line
    x1="76.95081967213115"
    y1="46.18852459016394"
    x2="110.81774809160305"
    y2="51.30725190839695"
    stroke="hsla(0,50%,50%,0.6)"
    stroke-width="1"
    transform="translate(-83.5906103404,-52.0558849244) scale(1,-1) translate(50,-110)"
    />
  
  <line
    x1="76.98360655737704"
    y1="46.22950819672131"
    x2="110.78645038167939"
    y2="51.33854961832061"
    stroke="hsla(0,50%,50%,0.6)"
    stroke-width="1"
    transform="translate(-83.5906103404,-52.0558849244) scale(1,-1) translate(50,-110)"
    />
  
  <line
    x1="77.01639344262296"
    y1="46.27049180327869"
    x2="110.75515267175572"
    y2="51.369847328244276"
    stroke="hsla(0,50%,50%,0.6)"
    stroke-width="1"
    transform="translate(-83.5906103404,-52.0558849244) scale(1,-1) translate(50,-110)"
    />
  
  <line
    x1="107.1777600417411"
    y1="27.700819345938203"
    x2="100.02140778931357"
    y2="28.265186419993277"
    stroke="hsla(0,50%,50%,0.6)"
    stroke-width="1"
    transform="translate(-83.5906103404,-52.0558849244) scale(1,-1) translate(50,-110)"
    />
  
  <line
    x1="107.36699225313501"
    y1="28.714460372486247"
    x2="100.13943251560869"
    y2="29.284443039317992"
    stroke="hsla(0,50%,50%,0.6)"
    stroke-width="1"
    transform="translate(-83.5906103404,-52.0558849244) scale(1,-1) translate(50,-110)"
    />
  
  <line
    x1="107.55774553847786"
    y1="29.73816524876634"
    x2="100.25897831585277"
    y2="30.313763508374752"
    stroke="hsla(0,50%,50%,0.6)"
    stroke-width="1"
    transform="translate(-83.5906103404,-52.0558849244) scale(1,-1) translate(50,-110)"
    />
  
  <line
    x1="107.75001989776968"
    y1="30.77193397477847"
    x2="100.3800451900458"
    y2="31.35314782716355"
    stroke="hsla(0,50%,50%,0.6)"
    stroke-width="1"
    transform="translate(-83.5906103404,-52.0558849244) scale(1,-1) translate(50,-110)"
    />
  
  <line
    x1="107.94381533101046"
    y1="31.81576655052265"
    x2="100.5026331381878"
    y2="32.40259599568439"
    stroke="hsla(0,50%,50%,0.6)"
    stroke-width="1"
    transform="translate(-83.5906103404,-52.0558849244) scale(1,-1) translate(50,-110)"
    />
  
  <line
    x1="83.60655737704919"
    y1="54.50819672131148"
    x2="104.46431297709924"
    y2="57.66068702290077"
    stroke="hsla(0,50%,50%,0.6)"
    stroke-width="1"
    transform="translate(-83.5906103404,-52.0558849244) scale(1,-1) translate(50,-110)"
    />
  
  <line
    x1="83.63934426229508"
    y1="54.549180327868854"
    x2="104.43301526717558"
    y2="57.69198473282443"
    stroke="hsla(0,50%,50%,0.6)"
    stroke-width="1"
    transform="translate(-83.5906103404,-52.0558849244) scale(1,-1) translate(50,-110)"
    />
  
  <line
    x1="83.67213114754098"
    y1="54.59016393442623"
    x2="104.40171755725191"
    y2="57.72328244274809"
    stroke="hsla(0,50%,50%,0.6)"
    stroke-width="1"
    transform="translate(-83.5906103404,-52.0558849244) scale(1,-1) translate(50,-110)"
    />
  
  <line
    x1="83.70491803278688"
    y1="54.631147540983605"
    x2="104.37041984732825"
    y2="57.75458015267176"
    stroke="hsla(0,50%,50%,0.6)"
    stroke-width="1"
    transform="translate(-83.5906103404,-52.0558849244) scale(1,-1) translate(50,-110)"
    />
  
  <line
    x1="83.73770491803279"
    y1="54.67213114754098"
    x2="104.33912213740459"
    y2="57.78587786259542"
    stroke="hsla(0,50%,50%,0.6)"
    stroke-width="1"
    transform="translate(-83.5906103404,-52.0558849244) scale(1,-1) translate(50,-110)"
    />
  
  <line
    x1="80.59130434782608"
    y1="50.73913043478261"
    x2="109.13485668239899"
    y2="52.99014331760101"
    stroke="hsla(0,50%,50%,0.6)"
    stroke-width="1"
    transform="translate(-83.5906103404,-52.0558849244) scale(1,-1) translate(50,-110)"
    />
  
  <line
    x1="106.99004890429615"
    y1="26.697242169122198"
    x2="100.02140778931357"
    y2="28.265186419993277"
    stroke="hsla(0,50%,50%,0.6)"
    stroke-width="1"
    transform="translate(-83.5906103404,-52.0558849244) scale(1,-1) translate(50,-110)"
    />
  
  <line
    x1="107.1777600417411"
    y1="27.700819345938203"
    x2="100.13943251560869"
    y2="29.284443039317992"
    stroke="hsla(0,50%,50%,0.6)"
    stroke-width="1"
    transform="translate(-83.5906103404,-52.0558849244) scale(1,-1) translate(50,-110)"
    />
  
  <line
    x1="107.36699225313501"
    y1="28.714460372486247"
    x2="100.25897831585277"
    y2="30.313763508374752"
    stroke="hsla(0,50%,50%,0.6)"
    stroke-width="1"
    transform="translate(-83.5906103404,-52.0558849244) scale(1,-1) translate(50,-110)"
    />
  
  <line
    x1="107.55774553847786"
    y1="29.73816524876634"
    x2="100.3800451900458"
    y2="31.35314782716355"
    stroke="hsla(0,50%,50%,0.6)"
    stroke-width="1"
    transform="translate(-83.5906103404,-52.0558849244) scale(1,-1) translate(50,-110)"
    />
  
  <line
    x1="107.75001989776968"
    y1="30.77193397477847"
    x2="100.5026331381878"
    y2="32.40259599568439"
    stroke="hsla(0,50%,50%,0.6)"
    stroke-width="1"
    transform="translate(-83.5906103404,-52.0558849244) scale(1,-1) translate(50,-110)"
    />
  
  <line
    x1="107.94381533101046"
    y1="31.81576655052265"
    x2="81.63719512195122"
    y2="37.734756097560975"
    stroke="hsla(0,50%,50%,0.6)"
    stroke-width="1"
    transform="translate(-83.5906103404,-52.0558849244) scale(1,-1) translate(50,-110)"
    />
  
  <line
    x1="87.125"
    y1="62.125"
    x2="100"
    y2="62.125"
    stroke="hsla(0,50%,50%,0.6)"
    stroke-width="1"
    transform="translate(-83.5906103404,-52.0558849244) scale(1,-1) translate(50,-110)"
    />
  
  <line
    x1="110.88034351145038"
    y1="51.244656488549616"
    x2="94.27777777777777"
    y2="67.84722222222223"
    stroke="hsla(0,50%,50%,0.6)"
    stroke-width="1"
    transform="translate(-83.5906103404,-52.0558849244) scale(1,-1) translate(50,-110)"
    />
  
</svg>
