<?xml version="1.0"?>
<!DOCTYPE svg PUBLIC "-//W3C//DTD SVG 1.1//EN"
  "http://www.w3.org/Graphics/SVG/1.1/DTD/svg11.dtd">
<svg
  width="240"
  height="240"
  viewBox="-500 -500 1000 1000" xmlns="http://www.w3.org/2000/svg" version="1.1">
  <rect
    x="0"
    y="0"
    width="100"
    height="100"
    fill="hsla(206,100%,53%,0.3)"
    stroke="hsl(206,100%,53%)"
    stroke-width="3"
    transform="" />
  
  <path
    d="M 
      80.1785714285
      0
      L
    
      100
      0
      L
    
      100
      28.1168781725
      L
    
      106.8650489042
      26.5722421691
      L
    
      106.9748050018
      27.0600470471
      L
    
      107.2063885105
      28.5922681688
      L
    
      107.2419922531
      28.5894603724
      L
    
      107.3971417959
      29.6159730451
      L
    
      107.4327455384
      29.6131652487
      L
    
      107.5894161552
      30.6497417711
      L
    
      107.6250198977
      30.6469339747
      L
    
      107.7832115884
      31.6935743469
      L
    
      107.8188153310
      31.6907665505
      L
    
      110.7717557251
      51.2282442748
      L
    
      94.2222222222
      67.7777777777
      L
    
      87
      62
      L
    
      85.9826086956
      57.4782608695
      L
    
      76.8852459016
      46.1065573770
      z
    "
    fill="hsla(0,0%,50%,0.3)"
    stroke="hsla(0,0%,50%,1)"
    stroke-width="1"
    transform="translate(-97.0483967481,-32.5133397932)"
    />
  
  <path
    d="M 
      100
      28.8255813953
      L
    
      100
      33.45
      L
    
      100.5365853658
      33.3292682926
      L
    
      100.3776331381
      32.2775959956
      L
    
      100.4124763437
      32.2697562744
      L
    
      100.2550451900
      31.2281478271
      L
    
      100.2898883956
      31.2203081059
      L
    
      100.1339783158
      30.1887635083
      L
    
      100.1688215214
      30.1809237871
      L
    
      100.0144325156
      29.1594430393
      L
    
      100.0492757211
      29.1516033180
      z
    "
    fill="hsla(0,0%,50%,0.3)"
    stroke="hsla(0,0%,50%,1)"
    stroke-width="1"
    transform="translate(-97.0483967481,-32.5133397932)"
    />
  
  
  <line
    x1="106.86504890429615"
    y1="26.572242169122198"
    x2="106.97480500185712"
    y2="27.06004704717098"
    stroke="hsla(0,50%,50%,0.6)"
    stroke-width="1"
    transform="translate(-97.0483967481,-32.5133397932)"
    />
  
  <line
    x1="76.88524590163935"
    y1="46.10655737704918"
    x2="94.22222222222223"
    y2="67.77777777777777"
    stroke="hsla(0,50%,50%,0.6)"
    stroke-width="1"
    transform="translate(-97.0483967481,-32.5133397932)"
    />
  
  <line
    x1="81.51219512195122"
    y1="37.609756097560975"
    x2="87"
    y2="62"
    stroke="hsla(0,50%,50%,0.6)"
    stroke-width="1"
    transform="translate(-97.0483967481,-32.5133397932)"
    />
  
  <line
    x1="107.81881533101046"
    y1="31.69076655052265"
    x2="110.77175572519084"
    y2="51.22824427480916"
    stroke="hsla(0,50%,50%,0.6)"
    stroke-width="1"
    transform="translate(-97.0483967481,-32.5133397932)"
    />
  
  <line
    x1="107.62501989776968"
    y1="30.64693397477847"
    x2="110.74045801526718"
    y2="51.25954198473283"
    stroke="hsla(0,50%,50%,0.6)"
    stroke-width="1"
    transform="translate(-97.0483967481,-32.5133397932)"
    />
  
  <line
    x1="107.43274553847786"
    y1="29.61316524876634"
    x2="110.70916030534352"
    y2="51.29083969465649"
    stroke="hsla(0,50%,50%,0.6)"
    stroke-width="1"
    transform="translate(-97.0483967481,-32.5133397932)"
    />
  
  <line
    x1="107.24199225313501"
    y1="28.589460372486247"
    x2="110.67786259541985"
    y2="51.322137404580154"
    stroke="hsla(0,50%,50%,0.6)"
    stroke-width="1"
    transform="translate(-97.0483967481,-32.5133397932)"
    />
  
  <line
    x1="106.97480500185712"
    y1="27.06004704717098"
    x2="110.64656488549619"
    y2="51.35343511450382"
    stroke="hsla(0,50%,50%,0.6)"
    stroke-width="1"
    transform="translate(-97.0483967481,-32.5133397932)"
    />
  
  <line
    x1="99.89640778931357"
    y1="28.140186419993277"
    x2="104.35572519083969"
    y2="57.64427480916031"
    stroke="hsla(0,50%,50%,0.6)"
    stroke-width="1"
    transform="translate(-97.0483967481,-32.5133397932)"
    />
  
  <line
    x1="100.01443251560869"
    y1="29.159443039317992"
    x2="104.32442748091603"
    y2="57.67557251908397"
    stroke="hsla(0,50%,50%,0.6)"
    stroke-width="1"
    transform="translate(-97.0483967481,-32.5133397932)"
    />
  
  <line
    x1="100.13397831585277"
    y1="30.188763508374752"
    x2="104.29312977099237"
    y2="57.706870229007635"
    stroke="hsla(0,50%,50%,0.6)"
    stroke-width="1"
    transform="translate(-97.0483967481,-32.5133397932)"
    />
  
  <line
    x1="100.2550451900458"
    y1="31.22814782716355"
    x2="104.2618320610687"
    y2="57.7381679389313"
    stroke="hsla(0,50%,50%,0.6)"
    stroke-width="1"
    transform="translate(-97.0483967481,-32.5133397932)"
    />
  
  <line
    x1="100.3776331381878"
    y1="32.27759599568439"
    x2="104.23053435114504"
    y2="57.76946564885496"
    stroke="hsla(0,50%,50%,0.6)"
    stroke-width="1"
    transform="translate(-97.0483967481,-32.5133397932)"
    />
  
  <line
    x1="80.17857142857143"
    y1="0"
    x2="87.5670775924583"
    y2="1.0609137055837563"
    stroke="hsla(0,50%,50%,0.6)"
    stroke-width="1"
    transform="translate(-97.0483967481,-32.5133397932)"
    />
  
  <line
    x1="80.13850616388687"
    y1="1.0609137055837563"
    x2="87.4563089195069"
    y2="2.1116751269035534"
    stroke="hsla(0,50%,50%,0.6)"
    stroke-width="1"
    transform="translate(-97.0483967481,-32.5133397932)"
    />
  
  <line
    x1="80.09916606236403"
    y1="2.1116751269035534"
    x2="87.34626540971719"
    y2="3.1522842639593907"
    stroke="hsla(0,50%,50%,0.6)"
    stroke-width="1"
    transform="translate(-97.0483967481,-32.5133397932)"
    />
  
  <line
    x1="106.97480500185712"
    y1="27.06004704717098"
    x2="109.01899389892944"
    y2="52.98100610107056"
    stroke="hsla(0,50%,50%,0.6)"
    stroke-width="1"
    transform="translate(-97.0483967481,-32.5133397932)"
    />
  
  <line
    x1="80.0605511240029"
    y1="3.1522842639593907"
    x2="87.23694706308919"
    y2="4.182741116751269"
    stroke="hsla(0,50%,50%,0.6)"
    stroke-width="1"
    transform="translate(-97.0483967481,-32.5133397932)"
    />
  
  <line
    x1="80.02266134880348"
    y1="4.182741116751269"
    x2="87.12835387962292"
    y2="5.2030456852791875"
    stroke="hsla(0,50%,50%,0.6)"
    stroke-width="1"
    transform="translate(-97.0483967481,-32.5133397932)"
    />
  
  <line
    x1="79.94978245105149"
    y1="5.2030456852791875"
    x2="86.98477157360406"
    y2="6.213197969543147"
    stroke="hsla(0,50%,50%,0.6)"
    stroke-width="1"
    transform="translate(-97.0483967481,-32.5133397932)"
    />
  
  <line
    x1="87"
    y1="62"
    x2="94.22222222222223"
    y2="67.77777777777777"
    stroke="hsla(0,50%,50%,0.6)"
    stroke-width="1"
    transform="translate(-97.0483967481,-32.5133397932)"
    />
  
  <line
    x1="80.17857142857143"
    y1="0"
    x2="100"
    y2="0"
    stroke="hsla(0,50%,50%,0.6)"
    stroke-width="1"
    transform="translate(-97.0483967481,-32.5133397932)"
    />
  
  <line
    x1="100"
    y1="0"
    x2="100"
    y2="62"
    stroke="hsla(0,50%,50%,0.6)"
    stroke-width="1"
    transform="translate(-97.0483967481,-32.5133397932)"
    />
  
  <line
    x1="80.13850616388687"
    y1="1.0609137055837563"
    x2="87.5670775924583"
    y2="1.0609137055837563"
    stroke="hsla(0,50%,50%,0.6)"
    stroke-width="1"
    transform="translate(-97.0483967481,-32.5133397932)"
    />
  
  <line
    x1="80.09916606236403"
    y1="2.1116751269035534"
    x2="87.4563089195069"
    y2="2.1116751269035534"
    stroke="hsla(0,50%,50%,0.6)"
    stroke-width="1"
    transform="translate(-97.0483967481,-32.5133397932)"
    />
  
  <line
    x1="80.0605511240029"
    y1="3.1522842639593907"
    x2="87.34626540971719"
    y2="3.1522842639593907"
    stroke="hsla(0,50%,50%,0.6)"
    stroke-width="1"
    transform="translate(-97.0483967481,-32.5133397932)"
    />
  
  <line
    x1="80.02266134880348"
    y1="4.182741116751269"
    x2="87.23694706308919"
    y2="4.182741116751269"
    stroke="hsla(0,50%,50%,0.6)"
    stroke-width="1"
    transform="translate(-97.0483967481,-32.5133397932)"
    />
  
  <line
    x1="79.94978245105149"
    y1="5.2030456852791875"
    x2="87.12835387962292"
    y2="5.2030456852791875"
    stroke="hsla(0,50%,50%,0.6)"
    stroke-width="1"
    transform="translate(-97.0483967481,-32.5133397932)"
    />
  
  <line
    x1="80.17857142857143"
    y1="0"
    x2="76.88524590163935"
    y2="46.10655737704918"
    stroke="hsla(0,50%,50%,0.6)"
    stroke-width="1"
    transform="translate(-97.0483967481,-32.5133397932)"
    />
  
  <line
    x1="80.13850616388687"
    y1="1.0609137055837563"
    x2="76.91803278688525"
    y2="46.14754098360656"
    stroke="hsla(0,50%,50%,0.6)"
    stroke-width="1"
    transform="translate(-97.0483967481,-32.5133397932)"
    />
  
  <line
    x1="80.09916606236403"
    y1="2.1116751269035534"
    x2="76.95081967213115"
    y2="46.18852459016394"
    stroke="hsla(0,50%,50%,0.6)"
    stroke-width="1"
    transform="translate(-97.0483967481,-32.5133397932)"
    />
  
  <line
    x1="80.0605511240029"
    y1="3.1522842639593907"
    x2="76.98360655737704"
    y2="46.22950819672131"
    stroke="hsla(0,50%,50%,0.6)"
    stroke-width="1"
    transform="translate(-97.0483967481,-32.5133397932)"
    />
  
  <line
    x1="80.02266134880348"
    y1="4.182741116751269"
    x2="77.01639344262296"
    y2="46.27049180327869"
    stroke="hsla(0,50%,50%,0.6)"
    stroke-width="1"
    transform="translate(-97.0483967481,-32.5133397932)"
    />
  
  <line
    x1="87.12835387962292"
    y1="5.2030456852791875"
    x2="83.60655737704919"
    y2="54.50819672131148"
    stroke="hsla(0,50%,50%,0.6)"
    stroke-width="1"
    transform="translate(-97.0483967481,-32.5133397932)"
    />
  
  <line
    x1="87.23694706308919"
    y1="4.182741116751269"
    x2="83.63934426229508"
    y2="54.549180327868854"
    stroke="hsla(0,50%,50%,0.6)"
    stroke-width="1"
    transform="translate(-97.0483967481,-32.5133397932)"
    />
  
  <line
    x1="87.34626540971719"
    y1="3.1522842639593907"
    x2="83.67213114754098"
    y2="54.59016393442623"
    stroke="hsla(0,50%,50%,0.6)"
    stroke-width="1"
    transform="translate(-97.0483967481,-32.5133397932)"
    />
  
  <line
    x1="87.4563089195069"
    y1="2.1116751269035534"
    x2="83.70491803278688"
    y2="54.631147540983605"
    stroke="hsla(0,50%,50%,0.6)"
    stroke-width="1"
    transform="translate(-97.0483967481,-32.5133397932)"
    />
  
  <line
    x1="87.5670775924583"
    y1="1.0609137055837563"
    x2="83.73770491803279"
    y2="54.67213114754098"
    stroke="hsla(0,50%,50%,0.6)"
    stroke-width="1"
    transform="translate(-97.0483967481,-32.5133397932)"
    />
  
  <line
    x1="86.98477157360406"
    y1="6.213197969543147"
    x2="80.59130434782608"
    y2="50.73913043478261"
    stroke="hsla(0,50%,50%,0.6)"
    stroke-width="1"
    transform="translate(-97.0483967481,-32.5133397932)"
    />
  
  <line
    x1="76.88524590163935"
    y1="46.10655737704918"
    x2="110.77175572519084"
    y2="51.22824427480916"
    stroke="hsla(0,50%,50%,0.6)"
    stroke-width="1"
    transform="translate(-97.0483967481,-32.5133397932)"
    />
  
  <line
    x1="76.91803278688525"
    y1="46.14754098360656"
    x2="110.74045801526718"
    y2="51.25954198473283"
    stroke="hsla(0,50%,50%,0.6)"
    stroke-width="1"
    transform="translate(-97.0483967481,-32.5133397932)"
    />
  
  <line
    x1="76.95081967213115"
    y1="46.18852459016394"
    x2="110.70916030534352"
    y2="51.29083969465649"
    stroke="hsla(0,50%,50%,0.6)"
    stroke-width="1"
    transform="translate(-97.0483967481,-32.5133397932)"
    />
  
  <line
    x1="76.98360655737704"
    y1="46.22950819672131"
    x2="110.67786259541985"
    y2="51.322137404580154"
    stroke="hsla(0,50%,50%,0.6)"
    stroke-width="1"
    transform="translate(-97.0483967481,-32.5133397932)"
    />
  
  <line
    x1="77.01639344262296"
    y1="46.27049180327869"
    x2="110.64656488549619"
    y2="51.35343511450382"
    stroke="hsla(0,50%,50%,0.6)"
    stroke-width="1"
    transform="translate(-97.0483967481,-32.5133397932)"
    />
  
  <line
    x1="107.0527600417411"
    y1="27.575819345938203"
    x2="99.89640778931357"
    y2="28.140186419993277"
    stroke="hsla(0,50%,50%,0.6)"
    stroke-width="1"
    transform="translate(-97.0483967481,-32.5133397932)"
    />
  
  <line
    x1="107.24199225313501"
    y1="28.589460372486247"
    x2="100.01443251560869"
    y2="29.159443039317992"
    stroke="hsla(0,50%,50%,0.6)"
    stroke-width="1"
    transform="translate(-97.0483967481,-32.5133397932)"
    />
  
  <line
    x1="107.43274553847786"
    y1="29.61316524876634"
    x2="100.13397831585277"
    y2="30.188763508374752"
    stroke="hsla(0,50%,50%,0.6)"
    stroke-width="1"
    transform="translate(-97.0483967481,-32.5133397932)"
    />
  
  <line
    x1="107.62501989776968"
    y1="30.64693397477847"
    x2="100.2550451900458"
    y2="31.22814782716355"
    stroke="hsla(0,50%,50%,0.6)"
    stroke-width="1"
    transform="translate(-97.0483967481,-32.5133397932)"
    />
  
  <line
    x1="107.81881533101046"
    y1="31.69076655052265"
    x2="100.3776331381878"
    y2="32.27759599568439"
    stroke="hsla(0,50%,50%,0.6)"
    stroke-width="1"
    transform="translate(-97.0483967481,-32.5133397932)"
    />
  
  <line
    x1="83.60655737704919"
    y1="54.50819672131148"
    x2="104.35572519083969"
    y2="57.64427480916031"
    stroke="hsla(0,50%,50%,0.6)"
    stroke-width="1"
    transform="translate(-97.0483967481,-32.5133397932)"
    />
  
  <line
    x1="83.63934426229508"
    y1="54.549180327868854"
    x2="104.32442748091603"
    y2="57.67557251908397"
    stroke="hsla(0,50%,50%,0.6)"
    stroke-width="1"
    transform="translate(-97.0483967481,-32.5133397932)"
    />
  
  <line
    x1="83.67213114754098"
    y1="54.59016393442623"
    x2="104.29312977099237"
    y2="57.706870229007635"
    stroke="hsla(0,50%,50%,0.6)"
    stroke-width="1"
    transform="translate(-97.0483967481,-32.5133397932)"
    />
  
  <line
    x1="83.70491803278688"
    y1="54.631147540983605"
    x2="104.2618320610687"
    y2="57.7381679389313"
    stroke="hsla(0,50%,50%,0.6)"
    stroke-width="1"
    transform="translate(-97.0483967481,-32.5133397932)"
    />
  
  <line
    x1="83.73770491803279"
    y1="54.67213114754098"
    x2="104.23053435114504"
    y2="57.76946564885496"
    stroke="hsla(0,50%,50%,0.6)"
    stroke-width="1"
    transform="translate(-97.0483967481,-32.5133397932)"
    />
  
  <line
    x1="80.59130434782608"
    y1="50.73913043478261"
    x2="109.01899389892944"
    y2="52.98100610107056"
    stroke="hsla(0,50%,50%,0.6)"
    stroke-width="1"
    transform="translate(-97.0483967481,-32.5133397932)"
    />
  
  <line
    x1="106.86504890429615"
    y1="26.572242169122198"
    x2="99.89640778931357"
    y2="28.140186419993277"
    stroke="hsla(0,50%,50%,0.6)"
    stroke-width="1"
    transform="translate(-97.0483967481,-32.5133397932)"
    />
  
  <line
    x1="107.0527600417411"
    y1="27.575819345938203"
    x2="100.01443251560869"
    y2="29.159443039317992"
    stroke="hsla(0,50%,50%,0.6)"
    stroke-width="1"
    transform="translate(-97.0483967481,-32.5133397932)"
    />
  
  <line
    x1="107.24199225313501"
    y1="28.589460372486247"
    x2="100.13397831585277"
    y2="30.188763508374752"
    stroke="hsla(0,50%,50%,0.6)"
    stroke-width="1"
    transform="translate(-97.0483967481,-32.5133397932)"
    />
  
  <line
    x1="107.43274553847786"
    y1="29.61316524876634"
    x2="100.2550451900458"
    y2="31.22814782716355"
    stroke="hsla(0,50%,50%,0.6)"
    stroke-width="1"
    transform="translate(-97.0483967481,-32.5133397932)"
    />
  
  <line
    x1="107.62501989776968"
    y1="30.64693397477847"
    x2="100.3776331381878"
    y2="32.27759599568439"
    stroke="hsla(0,50%,50%,0.6)"
    stroke-width="1"
    transform="translate(-97.0483967481,-32.5133397932)"
    />
  
  <line
    x1="107.81881533101046"
    y1="31.69076655052265"
    x2="81.51219512195122"
    y2="37.609756097560975"
    stroke="hsla(0,50%,50%,0.6)"
    stroke-width="1"
    transform="translate(-97.0483967481,-32.5133397932)"
    />
  
  <line
    x1="87"
    y1="62"
    x2="100"
    y2="62"
    stroke="hsla(0,50%,50%,0.6)"
    stroke-width="1"
    transform="translate(-97.0483967481,-32.5133397932)"
    />
  
  <line
    x1="110.77175572519084"
    y1="51.22824427480916"
    x2="94.22222222222223"
    y2="67.77777777777777"
    stroke="hsla(0,50%,50%,0.6)"
    stroke-width="1"
    transform="translate(-97.0483967481,-32.5133397932)"
    />
  
</svg>
