<?xml version="1.0"?>
<!DOCTYPE svg PUBLIC "-//W3C//DTD SVG 1.1//EN"
  "http://www.w3.org/Graphics/SVG/1.1/DTD/svg11.dtd">
<svg
  width="240"
  height="240"
  viewBox="-500 -500 1000 1000" xmlns="http://www.w3.org/2000/svg" version="1.1">
  <rect
    x="0"
    y="0"
    width="100"
    height="100"
    fill="hsla(206,100%,53%,0.3)"
    stroke="hsl(206,100%,53%)"
    stroke-width="3"
    transform="" />
  
  <path
    d="M 
      16.0935158429
      -42.4886887561
      L
    
      16.9766154303
      -42.2770324262
      L
    
      16.4227280805
      -20.2739389246
      L
    
      11.7775362173
      -20.3908730734
      L
    
      -3.3323346594
      56.9716658157
      L
    
      -9.4911600716
      57.0775150337
      L
    
      -11.1662123185
      53.6322478051
      L
    
      -43.1933177028
      39.9797634034
      L
    
      -17.1481836584
      -21.1190247909
      z
    "
    fill="hsla(0,0%,50%,0.3)"
    stroke="hsla(0,0%,50%,1)"
    stroke-width="1"
    transform="translate(13.1083511362,-7.2944131388)"
    />
  
  
  <line
    x1="16.09351584291174"
    y1="-42.48868875615755"
    x2="16.97661543033073"
    y2="-42.27703242624755"
    stroke="hsla(0,50%,50%,0.6)"
    stroke-width="1"
    transform="translate(13.1083511362,-7.2944131388)"
    />
  
  <line
    x1="8.034188034188034"
    y1="-37.30769230769231"
    x2="14.57396044951065"
    y2="-37.242965821177016"
    stroke="hsla(0,50%,50%,0.6)"
    stroke-width="1"
    transform="translate(13.1083511362,-7.2944131388)"
    />
  
  <line
    x1="15.23175248311204"
    y1="-38.07646035398307"
    x2="-4.731398886609103"
    y2="-27.989422775820966"
    stroke="hsla(0,50%,50%,0.6)"
    stroke-width="1"
    transform="translate(13.1083511362,-7.2944131388)"
    />
  
  <line
    x1="13.075790279200902"
    y1="-40.54872232234344"
    x2="15.23175248311204"
    y2="-38.07646035398307"
    stroke="hsla(0,50%,50%,0.6)"
    stroke-width="1"
    transform="translate(13.1083511362,-7.2944131388)"
    />
  
  <line
    x1="16.09351584291174"
    y1="-42.48868875615755"
    x2="-17.148183658458272"
    y2="-21.119024790991116"
    stroke="hsla(0,50%,50%,0.6)"
    stroke-width="1"
    transform="translate(13.1083511362,-7.2944131388)"
    />
  
  <line
    x1="-17.148183658458272"
    y1="-21.119024790991116"
    x2="16.422728080511455"
    y2="-20.273938924644195"
    stroke="hsla(0,50%,50%,0.6)"
    stroke-width="1"
    transform="translate(13.1083511362,-7.2944131388)"
    />
  
  <line
    x1="13.075790279200902"
    y1="-40.54872232234344"
    x2="14.57396044951065"
    y2="-37.242965821177016"
    stroke="hsla(0,50%,50%,0.6)"
    stroke-width="1"
    transform="translate(13.1083511362,-7.2944131388)"
    />
  
  <line
    x1="-17.148183658458272"
    y1="-21.119024790991116"
    x2="-43.19331770283639"
    y2="39.97976340345246"
    stroke="hsla(0,50%,50%,0.6)"
    stroke-width="1"
    transform="translate(13.1083511362,-7.2944131388)"
    />
  
  <line
    x1="-11.203273412903345"
    y1="-7.715501636653316"
    x2="8.396566472804343"
    y2="-3.080307981207676"
    stroke="hsla(0,50%,50%,0.6)"
    stroke-width="1"
    transform="translate(13.1083511362,-7.2944131388)"
    />
  
  <line
    x1="-6.175660301072842"
    y1="-5.335533553355336"
    x2="8.396566472804343"
    y2="-3.080307981207676"
    stroke="hsla(0,50%,50%,0.6)"
    stroke-width="1"
    transform="translate(13.1083511362,-7.2944131388)"
    />
  
  <line
    x1="-4.731398886609103"
    y1="-27.989422775820966"
    x2="8.395682341374258"
    y2="-3.0757812282856394"
    stroke="hsla(0,50%,50%,0.6)"
    stroke-width="1"
    transform="translate(13.1083511362,-7.2944131388)"
    />
  
  <line
    x1="-4.731398886609103"
    y1="-27.989422775820966"
    x2="-16.256288216106427"
    y2="8.113671691564022"
    stroke="hsla(0,50%,50%,0.6)"
    stroke-width="1"
    transform="translate(13.1083511362,-7.2944131388)"
    />
  
  <line
    x1="8.034188034188034"
    y1="-37.30769230769231"
    x2="-22.250755020784222"
    y2="30.833429565995267"
    stroke="hsla(0,50%,50%,0.6)"
    stroke-width="1"
    transform="translate(13.1083511362,-7.2944131388)"
    />
  
  <line
    x1="-11.203273412903345"
    y1="-7.715501636653316"
    x2="7.794943820224719"
    y2="0"
    stroke="hsla(0,50%,50%,0.6)"
    stroke-width="1"
    transform="translate(13.1083511362,-7.2944131388)"
    />
  
  <line
    x1="16.97661543033073"
    y1="-42.27703242624755"
    x2="14.57396044951065"
    y2="-37.242965821177016"
    stroke="hsla(0,50%,50%,0.6)"
    stroke-width="1"
    transform="translate(13.1083511362,-7.2944131388)"
    />
  
  <line
    x1="-6.175660301072842"
    y1="-5.335533553355336"
    x2="6.778805421176419"
    y2="5.2026286031272955"
    stroke="hsla(0,50%,50%,0.6)"
    stroke-width="1"
    transform="translate(13.1083511362,-7.2944131388)"
    />
  
  <line
    x1="0"
    y1="0"
    x2="7.794943820224719"
    y2="0"
    stroke="hsla(0,50%,50%,0.6)"
    stroke-width="1"
    transform="translate(13.1083511362,-7.2944131388)"
    />
  
  <line
    x1="0"
    y1="0"
    x2="0"
    y2="3.997093023255814"
    stroke="hsla(0,50%,50%,0.6)"
    stroke-width="1"
    transform="translate(13.1083511362,-7.2944131388)"
    />
  
  <line
    x1="16.97661543033073"
    y1="-42.27703242624755"
    x2="16.422728080511455"
    y2="-20.273938924644195"
    stroke="hsla(0,50%,50%,0.6)"
    stroke-width="1"
    transform="translate(13.1083511362,-7.2944131388)"
    />
  
  <line
    x1="16.09351584291174"
    y1="-42.48868875615755"
    x2="-3.3323346594050958"
    y2="56.971665815704654"
    stroke="hsla(0,50%,50%,0.6)"
    stroke-width="1"
    transform="translate(13.1083511362,-7.2944131388)"
    />
  
  <line
    x1="8.395682341374258"
    y1="-3.0757812282856394"
    x2="0"
    y2="3.997093023255814"
    stroke="hsla(0,50%,50%,0.6)"
    stroke-width="1"
    transform="translate(13.1083511362,-7.2944131388)"
    />
  
  <line
    x1="0"
    y1="3.997093023255814"
    x2="6.430129211611734"
    y2="6.987850796098481"
    stroke="hsla(0,50%,50%,0.6)"
    stroke-width="1"
    transform="translate(13.1083511362,-7.2944131388)"
    />
  
  <line
    x1="-12.454055175934398"
    y1="11.091754393521226"
    x2="-1.413625815844932"
    y2="47.14787653667661"
    stroke="hsla(0,50%,50%,0.6)"
    stroke-width="1"
    transform="translate(13.1083511362,-7.2944131388)"
    />
  
  <line
    x1="6.778805421176419"
    y1="5.2026286031272955"
    x2="-12.454055175934398"
    y2="11.091754393521226"
    stroke="hsla(0,50%,50%,0.6)"
    stroke-width="1"
    transform="translate(13.1083511362,-7.2944131388)"
    />
  
  <line
    x1="6.430129211611734"
    y1="6.987850796098481"
    x2="-16.256288216106427"
    y2="8.113671691564022"
    stroke="hsla(0,50%,50%,0.6)"
    stroke-width="1"
    transform="translate(13.1083511362,-7.2944131388)"
    />
  
  <line
    x1="-16.256288216106427"
    y1="8.113671691564022"
    x2="3.2126373344945267"
    y2="23.461409206938587"
    stroke="hsla(0,50%,50%,0.6)"
    stroke-width="1"
    transform="translate(13.1083511362,-7.2944131388)"
    />
  
  <line
    x1="-22.250755020784222"
    y1="30.833429565995267"
    x2="-9.491160071688675"
    y2="57.07751503376994"
    stroke="hsla(0,50%,50%,0.6)"
    stroke-width="1"
    transform="translate(13.1083511362,-7.2944131388)"
    />
  
  <line
    x1="-1.413625815844932"
    y1="47.14787653667661"
    x2="-9.491160071688675"
    y2="57.07751503376994"
    stroke="hsla(0,50%,50%,0.6)"
    stroke-width="1"
    transform="translate(13.1083511362,-7.2944131388)"
    />
  
  <line
    x1="3.2126373344945267"
    y1="23.461409206938587"
    x2="-22.250755020784222"
    y2="30.833429565995267"
    stroke="hsla(0,50%,50%,0.6)"
    stroke-width="1"
    transform="translate(13.1083511362,-7.2944131388)"
    />
  
  <line
    x1="-43.19331770283639"
    y1="39.97976340345246"
    x2="-3.3323346594050958"
    y2="56.971665815704654"
    stroke="hsla(0,50%,50%,0.6)"
    stroke-width="1"
    transform="translate(13.1083511362,-7.2944131388)"
    />
  
  <line
    x1="-3.3323346594050958"
    y1="56.971665815704654"
    x2="-9.491160071688675"
    y2="57.07751503376994"
    stroke="hsla(0,50%,50%,0.6)"
    stroke-width="1"
    transform="translate(13.1083511362,-7.2944131388)"
    />
  
</svg>
