<?xml version="1.0"?>
<!DOCTYPE svg PUBLIC "-//W3C//DTD SVG 1.1//EN"
  "http://www.w3.org/Graphics/SVG/1.1/DTD/svg11.dtd">
<svg
  width="240"
  height="240"
  viewBox="-50 -50 200 200" xmlns="http://www.w3.org/2000/svg" version="1.1">
  <rect
    x="0"
    y="0"
    width="100"
    height="100"
    fill="hsla(206,100%,53%,0.3)"
    stroke="hsl(206,100%,53%)"
    stroke-width="3"
    transform="" />
  
  <path
    d="M 
      54.4766030239
      0
      L
    
      73.3099363572
      6.8333333333
      L
    
      72.6236618474
      32.9117647058
      L
    
      70.3589559651
      33.9705882352
      L
    
      68.9471912592
      30.9509803921
      L
    
      52.7707206710
      22.3235294117
      L
    
      42.1580392347
      42.2223071046
      L
    
      42.3173490784
      43.4784791965
      L
    
      41.4279214823
      43.5912778904
      L
    
      26.0133677298
      21.2279411764
      L
    
      37.5993267851
      6.2764595519
      L
    
      43.7208351735
      5.5001196294
      L
    
      43.1530736121
      5.2941176470
      z
    "
    fill="hsla(0,0%,50%,0.3)"
    stroke="hsla(0,0%,50%,1)"
    stroke-width="1"
    transform="translate(-46.6994731917,-10.1170929530) scale(1,-1) translate(50,-110)"
    />
  
  <path
    d="M 
      48.1403327649
      7.1036541538
      L
    
      40.6464368665
      16.7743983957
      L
    
      59.2167991023
      11.1225490196
      z
    "
    fill="hsla(0,0%,50%,0.3)"
    stroke="hsla(0,0%,50%,1)"
    stroke-width="1"
    transform="translate(-46.6994731917,-10.1170929530) scale(1,-1) translate(50,-110)"
    />
  
  
  <line
    x1="71.09425008277232"
    y1="6.029411764705882"
    x2="73.21189714159586"
    y2="10.558823529411764"
    stroke="hsla(0,50%,50%,0.6)"
    stroke-width="1"
    transform="translate(-46.6994731917,-10.1170929530) scale(1,-1) translate(50,-110)"
    />
  
  <line
    x1="54.47660302394879"
    y1="0"
    x2="70.35895596512526"
    y2="33.970588235294116"
    stroke="hsla(0,50%,50%,0.6)"
    stroke-width="1"
    transform="translate(-46.6994731917,-10.1170929530) scale(1,-1) translate(50,-110)"
    />
  
  <line
    x1="54.47660302394879"
    y1="0"
    x2="73.30993635728213"
    y2="6.833333333333333"
    stroke="hsla(0,50%,50%,0.6)"
    stroke-width="1"
    transform="translate(-46.6994731917,-10.1170929530) scale(1,-1) translate(50,-110)"
    />
  
  <line
    x1="58.65307361218409"
    y1="11.294117647058824"
    x2="69.68248537688997"
    y2="17.176470588235293"
    stroke="hsla(0,50%,50%,0.6)"
    stroke-width="1"
    transform="translate(-46.6994731917,-10.1170929530) scale(1,-1) translate(50,-110)"
    />
  
  <line
    x1="43.15307361218409"
    y1="5.294117647058823"
    x2="73.06483831806644"
    y2="16.147058823529413"
    stroke="hsla(0,50%,50%,0.6)"
    stroke-width="1"
    transform="translate(-46.6994731917,-10.1170929530) scale(1,-1) translate(50,-110)"
    />
  
  <line
    x1="26.013367729831145"
    y1="21.227941176470587"
    x2="41.42792148236664"
    y2="43.59127789046653"
    stroke="hsla(0,50%,50%,0.6)"
    stroke-width="1"
    transform="translate(-46.6994731917,-10.1170929530) scale(1,-1) translate(50,-110)"
    />
  
  <line
    x1="37.599326785123054"
    y1="6.276459551925836"
    x2="42.31734907846816"
    y2="43.47847919655667"
    stroke="hsla(0,50%,50%,0.6)"
    stroke-width="1"
    transform="translate(-46.6994731917,-10.1170929530) scale(1,-1) translate(50,-110)"
    />
  
  <line
    x1="41.74130890630173"
    y1="16.441176470588236"
    x2="72.6236618474782"
    y2="32.911764705882355"
    stroke="hsla(0,50%,50%,0.6)"
    stroke-width="1"
    transform="translate(-46.6994731917,-10.1170929530) scale(1,-1) translate(50,-110)"
    />
  
  <line
    x1="26.771327668027812"
    y1="20.24980686458448"
    x2="27.09425008277232"
    y2="22.79607843137255"
    stroke="hsla(0,50%,50%,0.6)"
    stroke-width="1"
    transform="translate(-46.6994731917,-10.1170929530) scale(1,-1) translate(50,-110)"
    />
  
  <line
    x1="73.30993635728213"
    y1="6.833333333333333"
    x2="72.6236618474782"
    y2="32.911764705882355"
    stroke="hsla(0,50%,50%,0.6)"
    stroke-width="1"
    transform="translate(-46.6994731917,-10.1170929530) scale(1,-1) translate(50,-110)"
    />
  
  <line
    x1="27.09425008277232"
    y1="22.79607843137255"
    x2="35.85895596512526"
    y2="27.470588235294116"
    stroke="hsla(0,50%,50%,0.6)"
    stroke-width="1"
    transform="translate(-46.6994731917,-10.1170929530) scale(1,-1) translate(50,-110)"
    />
  
  <line
    x1="50"
    y1="4.703785454144135"
    x2="37.599326785123054"
    y2="6.276459551925836"
    stroke="hsla(0,50%,50%,0.6)"
    stroke-width="1"
    transform="translate(-46.6994731917,-10.1170929530) scale(1,-1) translate(50,-110)"
    />
  
  <line
    x1="37.599326785123054"
    y1="6.276459551925836"
    x2="26.013367729831145"
    y2="21.227941176470587"
    stroke="hsla(0,50%,50%,0.6)"
    stroke-width="1"
    transform="translate(-46.6994731917,-10.1170929530) scale(1,-1) translate(50,-110)"
    />
  
  <line
    x1="54.47660302394879"
    y1="0"
    x2="43.15307361218409"
    y2="5.294117647058823"
    stroke="hsla(0,50%,50%,0.6)"
    stroke-width="1"
    transform="translate(-46.6994731917,-10.1170929530) scale(1,-1) translate(50,-110)"
    />
  
  <line
    x1="41.74130890630173"
    y1="16.441176470588236"
    x2="35.85895596512526"
    y2="27.470588235294116"
    stroke="hsla(0,50%,50%,0.6)"
    stroke-width="1"
    transform="translate(-46.6994731917,-10.1170929530) scale(1,-1) translate(50,-110)"
    />
  
  <line
    x1="39.172000882904754"
    y1="18.67713276680278"
    x2="26.771327668027812"
    y2="20.24980686458448"
    stroke="hsla(0,50%,50%,0.6)"
    stroke-width="1"
    transform="translate(-46.6994731917,-10.1170929530) scale(1,-1) translate(50,-110)"
    />
  
  <line
    x1="50"
    y1="4.703785454144135"
    x2="31.277405162986224"
    y2="28.864973262032084"
    stroke="hsla(0,50%,50%,0.6)"
    stroke-width="1"
    transform="translate(-46.6994731917,-10.1170929530) scale(1,-1) translate(50,-110)"
    />
  
  <line
    x1="73.30993635728213"
    y1="6.833333333333333"
    x2="26.013367729831145"
    y2="21.227941176470587"
    stroke="hsla(0,50%,50%,0.6)"
    stroke-width="1"
    transform="translate(-46.6994731917,-10.1170929530) scale(1,-1) translate(50,-110)"
    />
  
  <line
    x1="58.65307361218409"
    y1="11.294117647058824"
    x2="41.42792148236664"
    y2="43.59127789046653"
    stroke="hsla(0,50%,50%,0.6)"
    stroke-width="1"
    transform="translate(-46.6994731917,-10.1170929530) scale(1,-1) translate(50,-110)"
    />
  
  <line
    x1="71.09425008277232"
    y1="6.029411764705882"
    x2="59.770720671007616"
    y2="11.323529411764707"
    stroke="hsla(0,50%,50%,0.6)"
    stroke-width="1"
    transform="translate(-46.6994731917,-10.1170929530) scale(1,-1) translate(50,-110)"
    />
  
  <line
    x1="73.21189714159586"
    y1="10.558823529411764"
    x2="69.68248537688997"
    y2="17.176470588235293"
    stroke="hsla(0,50%,50%,0.6)"
    stroke-width="1"
    transform="translate(-46.6994731917,-10.1170929530) scale(1,-1) translate(50,-110)"
    />
  
  <line
    x1="73.06483831806644"
    y1="16.147058823529413"
    x2="31.277405162986224"
    y2="28.864973262032084"
    stroke="hsla(0,50%,50%,0.6)"
    stroke-width="1"
    transform="translate(-46.6994731917,-10.1170929530) scale(1,-1) translate(50,-110)"
    />
  
  <line
    x1="42.31734907846816"
    y1="43.47847919655667"
    x2="41.42792148236664"
    y2="43.59127789046653"
    stroke="hsla(0,50%,50%,0.6)"
    stroke-width="1"
    transform="translate(-46.6994731917,-10.1170929530) scale(1,-1) translate(50,-110)"
    />
  
  <line
    x1="72.6236618474782"
    y1="32.911764705882355"
    x2="70.35895596512526"
    y2="33.970588235294116"
    stroke="hsla(0,50%,50%,0.6)"
    stroke-width="1"
    transform="translate(-46.6994731917,-10.1170929530) scale(1,-1) translate(50,-110)"
    />
  
</svg>
