<?xml version="1.0"?>
<!DOCTYPE svg PUBLIC "-//W3C//DTD SVG 1.1//EN"
  "http://www.w3.org/Graphics/SVG/1.1/DTD/svg11.dtd">
<svg
  width="240"
  height="240"
  viewBox="-500 -500 1000 1000" xmlns="http://www.w3.org/2000/svg" version="1.1">
  <rect
    x="0"
    y="0"
    width="100"
    height="100"
    fill="hsla(206,100%,53%,0.3)"
    stroke="hsl(206,100%,53%)"
    stroke-width="3"
    transform="" />
  
  <path
    d="M 
      7.3713815191
      27.7080192058
      L
    
      13.4054951071
      35.0226132635
      L
    
      17.4167024167
      37.1619238285
      L
    
      20.3699554565
      36.5332201002
      L
    
      20.3757338551
      36.4305283757
      L
    
      20.7526979415
      36.4517399073
      L
    
      22.0179160773
      52.8995756718
      L
    
      19.3650793650
      54.3915343915
      L
    
      15.2801120448
      52.2128851540
      L
    
      15.9173669467
      56.3305322128
      L
    
      2.6190476190
      63.8095238095
      L
    
      -5.5776831280
      56.9095583438
      L
    
      -5.4852077817
      38.3139557192
      z
    "
    fill="hsla(0,0%,50%,0.3)"
    stroke="hsla(0,0%,50%,1)"
    stroke-width="1"
    transform="translate(-8.2201164746,-45.7587715077)"
    />
  
  
  <line
    x1="20.752697941589187"
    y1="36.451739907326086"
    x2="22.017916077322017"
    y2="52.8995756718529"
    stroke="hsla(0,50%,50%,0.6)"
    stroke-width="1"
    transform="translate(-8.2201164746,-45.7587715077)"
    />
  
  <line
    x1="12.549019607843137"
    y1="34.56582633053221"
    x2="15.917366946778712"
    y2="56.33053221288515"
    stroke="hsla(0,50%,50%,0.6)"
    stroke-width="1"
    transform="translate(-8.2201164746,-45.7587715077)"
    />
  
  <line
    x1="-5.485207781742834"
    y1="38.31395571927401"
    x2="-5.577683128045739"
    y2="56.9095583438855"
    stroke="hsla(0,50%,50%,0.6)"
    stroke-width="1"
    transform="translate(-8.2201164746,-45.7587715077)"
    />
  
  <line
    x1="7.149380300065231"
    y1="39.34768427919113"
    x2="8.994708994708995"
    y2="48.01587301587302"
    stroke="hsla(0,50%,50%,0.6)"
    stroke-width="1"
    transform="translate(-8.2201164746,-45.7587715077)"
    />
  
  <line
    x1="-0.47619047619047616"
    y1="43.80952380952381"
    x2="2.619047619047619"
    y2="63.80952380952381"
    stroke="hsla(0,50%,50%,0.6)"
    stroke-width="1"
    transform="translate(-8.2201164746,-45.7587715077)"
    />
  
  <line
    x1="20.37573385518591"
    y1="36.43052837573386"
    x2="19.365079365079364"
    y2="54.39153439153439"
    stroke="hsla(0,50%,50%,0.6)"
    stroke-width="1"
    transform="translate(-8.2201164746,-45.7587715077)"
    />
  
  <line
    x1="7.371381519147071"
    y1="27.70801920588581"
    x2="16.462184244908382"
    y2="38.72795289236287"
    stroke="hsla(0,50%,50%,0.6)"
    stroke-width="1"
    transform="translate(-8.2201164746,-45.7587715077)"
    />
  
  <line
    x1="7.371381519147071"
    y1="27.70801920588581"
    x2="-5.485207781742834"
    y2="38.31395571927401"
    stroke="hsla(0,50%,50%,0.6)"
    stroke-width="1"
    transform="translate(-8.2201164746,-45.7587715077)"
    />
  
  <line
    x1="12.549019607843137"
    y1="34.56582633053221"
    x2="20.952380952380953"
    y2="39.04761904761905"
    stroke="hsla(0,50%,50%,0.6)"
    stroke-width="1"
    transform="translate(-8.2201164746,-45.7587715077)"
    />
  
  <line
    x1="-5.485207781742834"
    y1="38.31395571927401"
    x2="15.917366946778712"
    y2="56.33053221288515"
    stroke="hsla(0,50%,50%,0.6)"
    stroke-width="1"
    transform="translate(-8.2201164746,-45.7587715077)"
    />
  
  <line
    x1="12.549019607843137"
    y1="34.56582633053221"
    x2="-0.47619047619047616"
    y2="43.80952380952381"
    stroke="hsla(0,50%,50%,0.6)"
    stroke-width="1"
    transform="translate(-8.2201164746,-45.7587715077)"
    />
  
  <line
    x1="16.462184244908382"
    y1="38.72795289236287"
    x2="-5.577683128045739"
    y2="56.9095583438855"
    stroke="hsla(0,50%,50%,0.6)"
    stroke-width="1"
    transform="translate(-8.2201164746,-45.7587715077)"
    />
  
  <line
    x1="-0.47619047619047616"
    y1="43.80952380952381"
    x2="19.365079365079364"
    y2="54.39153439153439"
    stroke="hsla(0,50%,50%,0.6)"
    stroke-width="1"
    transform="translate(-8.2201164746,-45.7587715077)"
    />
  
  <line
    x1="20.952380952380953"
    y1="39.04761904761905"
    x2="8.994708994708995"
    y2="48.01587301587302"
    stroke="hsla(0,50%,50%,0.6)"
    stroke-width="1"
    transform="translate(-8.2201164746,-45.7587715077)"
    />
  
  <line
    x1="20.37573385518591"
    y1="36.43052837573386"
    x2="20.752697941589187"
    y2="36.451739907326086"
    stroke="hsla(0,50%,50%,0.6)"
    stroke-width="1"
    transform="translate(-8.2201164746,-45.7587715077)"
    />
  
  <line
    x1="-5.577683128045739"
    y1="56.9095583438855"
    x2="2.619047619047619"
    y2="63.80952380952381"
    stroke="hsla(0,50%,50%,0.6)"
    stroke-width="1"
    transform="translate(-8.2201164746,-45.7587715077)"
    />
  
  <line
    x1="20.752697941589187"
    y1="36.451739907326086"
    x2="7.149380300065231"
    y2="39.34768427919113"
    stroke="hsla(0,50%,50%,0.6)"
    stroke-width="1"
    transform="translate(-8.2201164746,-45.7587715077)"
    />
  
  <line
    x1="8.994708994708995"
    y1="48.01587301587302"
    x2="22.017916077322017"
    y2="52.8995756718529"
    stroke="hsla(0,50%,50%,0.6)"
    stroke-width="1"
    transform="translate(-8.2201164746,-45.7587715077)"
    />
  
  <line
    x1="22.017916077322017"
    y1="52.8995756718529"
    x2="19.365079365079364"
    y2="54.39153439153439"
    stroke="hsla(0,50%,50%,0.6)"
    stroke-width="1"
    transform="translate(-8.2201164746,-45.7587715077)"
    />
  
  <line
    x1="15.917366946778712"
    y1="56.33053221288515"
    x2="2.619047619047619"
    y2="63.80952380952381"
    stroke="hsla(0,50%,50%,0.6)"
    stroke-width="1"
    transform="translate(-8.2201164746,-45.7587715077)"
    />
  
</svg>
