<?xml version="1.0"?>
<!DOCTYPE svg PUBLIC "-//W3C//DTD SVG 1.1//EN"
  "http://www.w3.org/Graphics/SVG/1.1/DTD/svg11.dtd">
<svg
  width="240"
  height="240"
  viewBox="-50 -50 200 200" xmlns="http://www.w3.org/2000/svg" version="1.1">
  <rect
    x="0"
    y="0"
    width="100"
    height="100"
    fill="hsla(206,100%,53%,0.3)"
    stroke="hsl(206,100%,53%)"
    stroke-width="3"
    transform="" />
  
  <path
    d="M 
      49.2009132420
      -11.7579908675
      L
    
      68.0365296803
      4.6803652968
      L
    
      70.8333333333
      45.8333333333
      L
    
      25
      66.6666666666
      L
    
      18.7214611872
      61.1872146118
      L
    
      25
      53.9930555555
      L
    
      25
      25
      L
    
      0
      0
      L
    
      25
      0
      L
    
      50.1618122977
      25.1618122977
      L
    
      51.5981735159
      23.5159817351
      z
    "
    fill="hsla(0,0%,50%,0.3)"
    stroke="hsla(0,0%,50%,1)"
    stroke-width="1"
    transform="translate(-43.1331685424,-20.4943837013) scale(1,-1) translate(50,-110)"
    />
  
  
  <line
    x1="49.20091324200913"
    y1="-11.757990867579908"
    x2="68.03652968036529"
    y2="4.680365296803653"
    stroke="hsla(0,50%,50%,0.6)"
    stroke-width="1"
    transform="translate(-43.1331685424,-20.4943837013) scale(1,-1) translate(50,-110)"
    />
  
  <line
    x1="25"
    y1="0"
    x2="70.83333333333333"
    y2="45.833333333333336"
    stroke="hsla(0,50%,50%,0.6)"
    stroke-width="1"
    transform="translate(-43.1331685424,-20.4943837013) scale(1,-1) translate(50,-110)"
    />
  
  <line
    x1="68.03652968036529"
    y1="4.680365296803653"
    x2="70.83333333333333"
    y2="45.833333333333336"
    stroke="hsla(0,50%,50%,0.6)"
    stroke-width="1"
    transform="translate(-43.1331685424,-20.4943837013) scale(1,-1) translate(50,-110)"
    />
  
  <line
    x1="49.20091324200913"
    y1="-11.757990867579908"
    x2="53.645833333333336"
    y2="53.645833333333336"
    stroke="hsla(0,50%,50%,0.6)"
    stroke-width="1"
    transform="translate(-43.1331685424,-20.4943837013) scale(1,-1) translate(50,-110)"
    />
  
  <line
    x1="0"
    y1="0"
    x2="25"
    y2="0"
    stroke="hsla(0,50%,50%,0.6)"
    stroke-width="1"
    transform="translate(-43.1331685424,-20.4943837013) scale(1,-1) translate(50,-110)"
    />
  
  <line
    x1="0"
    y1="0"
    x2="53.645833333333336"
    y2="53.645833333333336"
    stroke="hsla(0,50%,50%,0.6)"
    stroke-width="1"
    transform="translate(-43.1331685424,-20.4943837013) scale(1,-1) translate(50,-110)"
    />
  
  <line
    x1="25"
    y1="0"
    x2="25"
    y2="66.66666666666667"
    stroke="hsla(0,50%,50%,0.6)"
    stroke-width="1"
    transform="translate(-43.1331685424,-20.4943837013) scale(1,-1) translate(50,-110)"
    />
  
  <line
    x1="18.72146118721461"
    y1="61.18721461187214"
    x2="25"
    y2="66.66666666666667"
    stroke="hsla(0,50%,50%,0.6)"
    stroke-width="1"
    transform="translate(-43.1331685424,-20.4943837013) scale(1,-1) translate(50,-110)"
    />
  
  <line
    x1="68.03652968036529"
    y1="4.680365296803653"
    x2="18.72146118721461"
    y2="61.18721461187214"
    stroke="hsla(0,50%,50%,0.6)"
    stroke-width="1"
    transform="translate(-43.1331685424,-20.4943837013) scale(1,-1) translate(50,-110)"
    />
  
  <line
    x1="70.83333333333333"
    y1="45.833333333333336"
    x2="25"
    y2="66.66666666666667"
    stroke="hsla(0,50%,50%,0.6)"
    stroke-width="1"
    transform="translate(-43.1331685424,-20.4943837013) scale(1,-1) translate(50,-110)"
    />
  
</svg>
