<?xml version="1.0"?>
<!DOCTYPE svg PUBLIC "-//W3C//DTD SVG 1.1//EN"
  "http://www.w3.org/Graphics/SVG/1.1/DTD/svg11.dtd">
<svg
  width="240"
  height="240"
  viewBox="-50 -50 200 200" xmlns="http://www.w3.org/2000/svg" version="1.1">
  <rect
    x="0"
    y="0"
    width="100"
    height="100"
    fill="hsla(206,100%,53%,0.3)"
    stroke="hsl(206,100%,53%)"
    stroke-width="3"
    transform="" />
  
  <path
    d="M 
      61.5384615384
      41.0256410256
      L
    
      78.9915966386
      58.3333333333
      L
    
      102.1527777777
      58.3333333333
      L
    
      117.7514792899
      74.0631163708
      L
    
      100
      91.6666666666
      L
    
      100
      100
      L
    
      61.5384615384
      100
      L
    
      61.5384615384
      107.6923076923
      L
    
      53.2051282051
      107.6923076923
      L
    
      32.6388888888
      58.3333333333
      L
    
      41.5384615384
      49.3589743589
      z
    "
    fill="hsla(0,0%,50%,0.3)"
    stroke="hsla(0,0%,50%,1)"
    stroke-width="1"
    transform="translate(-44.4892950313,-65.3590456268) scale(1,-1) translate(50,-110)"
    />
  
  
  <line
    x1="102.15277777777777"
    y1="58.333333333333336"
    x2="117.75147928994083"
    y2="74.06311637080867"
    stroke="hsla(0,50%,50%,0.6)"
    stroke-width="1"
    transform="translate(-44.4892950313,-65.3590456268) scale(1,-1) translate(50,-110)"
    />
  
  <line
    x1="61.53846153846154"
    y1="41.02564102564103"
    x2="85.20710059171597"
    y2="64.49704142011835"
    stroke="hsla(0,50%,50%,0.6)"
    stroke-width="1"
    transform="translate(-44.4892950313,-65.3590456268) scale(1,-1) translate(50,-110)"
    />
  
  <line
    x1="32.638888888888886"
    y1="58.333333333333336"
    x2="53.205128205128204"
    y2="107.6923076923077"
    stroke="hsla(0,50%,50%,0.6)"
    stroke-width="1"
    transform="translate(-44.4892950313,-65.3590456268) scale(1,-1) translate(50,-110)"
    />
  
  <line
    x1="61.53846153846154"
    y1="41.02564102564103"
    x2="61.53846153846154"
    y2="107.6923076923077"
    stroke="hsla(0,50%,50%,0.6)"
    stroke-width="1"
    transform="translate(-44.4892950313,-65.3590456268) scale(1,-1) translate(50,-110)"
    />
  
  <line
    x1="100"
    y1="58.333333333333336"
    x2="100"
    y2="100"
    stroke="hsla(0,50%,50%,0.6)"
    stroke-width="1"
    transform="translate(-44.4892950313,-65.3590456268) scale(1,-1) translate(50,-110)"
    />
  
  <line
    x1="41.53846153846154"
    y1="49.35897435897436"
    x2="35.294117647058826"
    y2="64.70588235294117"
    stroke="hsla(0,50%,50%,0.6)"
    stroke-width="1"
    transform="translate(-44.4892950313,-65.3590456268) scale(1,-1) translate(50,-110)"
    />
  
  <line
    x1="35.294117647058826"
    y1="64.70588235294117"
    x2="100"
    y2="91.66666666666667"
    stroke="hsla(0,50%,50%,0.6)"
    stroke-width="1"
    transform="translate(-44.4892950313,-65.3590456268) scale(1,-1) translate(50,-110)"
    />
  
  <line
    x1="41.53846153846154"
    y1="49.35897435897436"
    x2="32.638888888888886"
    y2="58.333333333333336"
    stroke="hsla(0,50%,50%,0.6)"
    stroke-width="1"
    transform="translate(-44.4892950313,-65.3590456268) scale(1,-1) translate(50,-110)"
    />
  
  <line
    x1="61.53846153846154"
    y1="41.02564102564103"
    x2="41.53846153846154"
    y2="49.35897435897436"
    stroke="hsla(0,50%,50%,0.6)"
    stroke-width="1"
    transform="translate(-44.4892950313,-65.3590456268) scale(1,-1) translate(50,-110)"
    />
  
  <line
    x1="32.638888888888886"
    y1="58.333333333333336"
    x2="102.15277777777777"
    y2="58.333333333333336"
    stroke="hsla(0,50%,50%,0.6)"
    stroke-width="1"
    transform="translate(-44.4892950313,-65.3590456268) scale(1,-1) translate(50,-110)"
    />
  
  <line
    x1="85.20710059171597"
    y1="64.49704142011835"
    x2="50"
    y2="100"
    stroke="hsla(0,50%,50%,0.6)"
    stroke-width="1"
    transform="translate(-44.4892950313,-65.3590456268) scale(1,-1) translate(50,-110)"
    />
  
  <line
    x1="102.15277777777777"
    y1="58.333333333333336"
    x2="53.205128205128204"
    y2="107.6923076923077"
    stroke="hsla(0,50%,50%,0.6)"
    stroke-width="1"
    transform="translate(-44.4892950313,-65.3590456268) scale(1,-1) translate(50,-110)"
    />
  
  <line
    x1="117.75147928994083"
    y1="74.06311637080867"
    x2="100"
    y2="91.66666666666667"
    stroke="hsla(0,50%,50%,0.6)"
    stroke-width="1"
    transform="translate(-44.4892950313,-65.3590456268) scale(1,-1) translate(50,-110)"
    />
  
  <line
    x1="50"
    y1="100"
    x2="100"
    y2="100"
    stroke="hsla(0,50%,50%,0.6)"
    stroke-width="1"
    transform="translate(-44.4892950313,-65.3590456268) scale(1,-1) translate(50,-110)"
    />
  
  <line
    x1="53.205128205128204"
    y1="107.6923076923077"
    x2="61.53846153846154"
    y2="107.6923076923077"
    stroke="hsla(0,50%,50%,0.6)"
    stroke-width="1"
    transform="translate(-44.4892950313,-65.3590456268) scale(1,-1) translate(50,-110)"
    />
  
</svg>
