<?xml version="1.0"?>
<!DOCTYPE svg PUBLIC "-//W3C//DTD SVG 1.1//EN"
  "http://www.w3.org/Graphics/SVG/1.1/DTD/svg11.dtd">
<svg
  width="240"
  height="240"
  viewBox="-50 -50 200 200" xmlns="http://www.w3.org/2000/svg" version="1.1">
  <rect
    x="0"
    y="0"
    width="100"
    height="100"
    fill="hsla(206,100%,53%,0.3)"
    stroke="hsl(206,100%,53%)"
    stroke-width="3"
    transform="" />
  
  <path
    d="M 
      0
      0
      L
    
      12.5
      0
      L
    
      12.5
      25
      L
    
      25
      25
      L
    
      31.5966719492
      31.5966719492
      L
    
      37.5278396436
      26.8652561247
      L
    
      45.3229398663
      36.6369710467
      L
    
      37.5
      42.8774928774
      L
    
      37.5
      46.875
      L
    
      25.9259259259
      50.9259259259
      L
    
      25
      50
      L
    
      25
      37.5
      L
    
      12.5
      37.5
      L
    
      0
      25
      z
    "
    fill="hsla(0,0%,50%,0.3)"
    stroke="hsla(0,0%,50%,1)"
    stroke-width="1"
    transform="translate(-9.7995715237,-32.5910885166) scale(1,-1) translate(50,-110)"
    />
  
  
  <line
    x1="37.52783964365256"
    y1="26.865256124721604"
    x2="45.32293986636971"
    y2="36.636971046770604"
    stroke="hsla(0,50%,50%,0.6)"
    stroke-width="1"
    transform="translate(-9.7995715237,-32.5910885166) scale(1,-1) translate(50,-110)"
    />
  
  <line
    x1="27.756124721603562"
    y1="34.66035634743875"
    x2="37.5"
    y2="46.875"
    stroke="hsla(0,50%,50%,0.6)"
    stroke-width="1"
    transform="translate(-9.7995715237,-32.5910885166) scale(1,-1) translate(50,-110)"
    />
  
  <line
    x1="0"
    y1="0"
    x2="12.5"
    y2="0"
    stroke="hsla(0,50%,50%,0.6)"
    stroke-width="1"
    transform="translate(-9.7995715237,-32.5910885166) scale(1,-1) translate(50,-110)"
    />
  
  <line
    x1="25"
    y1="25"
    x2="37.5"
    y2="37.5"
    stroke="hsla(0,50%,50%,0.6)"
    stroke-width="1"
    transform="translate(-9.7995715237,-32.5910885166) scale(1,-1) translate(50,-110)"
    />
  
  <line
    x1="0"
    y1="0"
    x2="0"
    y2="25"
    stroke="hsla(0,50%,50%,0.6)"
    stroke-width="1"
    transform="translate(-9.7995715237,-32.5910885166) scale(1,-1) translate(50,-110)"
    />
  
  <line
    x1="12.5"
    y1="0"
    x2="12.5"
    y2="37.5"
    stroke="hsla(0,50%,50%,0.6)"
    stroke-width="1"
    transform="translate(-9.7995715237,-32.5910885166) scale(1,-1) translate(50,-110)"
    />
  
  <line
    x1="25"
    y1="25"
    x2="25"
    y2="50"
    stroke="hsla(0,50%,50%,0.6)"
    stroke-width="1"
    transform="translate(-9.7995715237,-32.5910885166) scale(1,-1) translate(50,-110)"
    />
  
  <line
    x1="37.5"
    y1="37.5"
    x2="37.5"
    y2="46.875"
    stroke="hsla(0,50%,50%,0.6)"
    stroke-width="1"
    transform="translate(-9.7995715237,-32.5910885166) scale(1,-1) translate(50,-110)"
    />
  
  <line
    x1="27.756124721603562"
    y1="34.66035634743875"
    x2="25.925925925925927"
    y2="50.925925925925924"
    stroke="hsla(0,50%,50%,0.6)"
    stroke-width="1"
    transform="translate(-9.7995715237,-32.5910885166) scale(1,-1) translate(50,-110)"
    />
  
  <line
    x1="0"
    y1="25"
    x2="12.5"
    y2="37.5"
    stroke="hsla(0,50%,50%,0.6)"
    stroke-width="1"
    transform="translate(-9.7995715237,-32.5910885166) scale(1,-1) translate(50,-110)"
    />
  
  <line
    x1="25"
    y1="50"
    x2="25.925925925925927"
    y2="50.925925925925924"
    stroke="hsla(0,50%,50%,0.6)"
    stroke-width="1"
    transform="translate(-9.7995715237,-32.5910885166) scale(1,-1) translate(50,-110)"
    />
  
  <line
    x1="0"
    y1="25"
    x2="25"
    y2="25"
    stroke="hsla(0,50%,50%,0.6)"
    stroke-width="1"
    transform="translate(-9.7995715237,-32.5910885166) scale(1,-1) translate(50,-110)"
    />
  
  <line
    x1="37.52783964365256"
    y1="26.865256124721604"
    x2="27.756124721603562"
    y2="34.66035634743875"
    stroke="hsla(0,50%,50%,0.6)"
    stroke-width="1"
    transform="translate(-9.7995715237,-32.5910885166) scale(1,-1) translate(50,-110)"
    />
  
  <line
    x1="12.5"
    y1="37.5"
    x2="37.5"
    y2="37.5"
    stroke="hsla(0,50%,50%,0.6)"
    stroke-width="1"
    transform="translate(-9.7995715237,-32.5910885166) scale(1,-1) translate(50,-110)"
    />
  
  <line
    x1="45.32293986636971"
    y1="36.636971046770604"
    x2="28.571428571428573"
    y2="50"
    stroke="hsla(0,50%,50%,0.6)"
    stroke-width="1"
    transform="translate(-9.7995715237,-32.5910885166) scale(1,-1) translate(50,-110)"
    />
  
  <line
    x1="25"
    y1="50"
    x2="28.571428571428573"
    y2="50"
    stroke="hsla(0,50%,50%,0.6)"
    stroke-width="1"
    transform="translate(-9.7995715237,-32.5910885166) scale(1,-1) translate(50,-110)"
    />
  
  <line
    x1="37.5"
    y1="46.875"
    x2="25.925925925925927"
    y2="50.925925925925924"
    stroke="hsla(0,50%,50%,0.6)"
    stroke-width="1"
    transform="translate(-9.7995715237,-32.5910885166) scale(1,-1) translate(50,-110)"
    />
  
</svg>
