<?xml version="1.0"?>
<!DOCTYPE svg PUBLIC "-//W3C//DTD SVG 1.1//EN"
  "http://www.w3.org/Graphics/SVG/1.1/DTD/svg11.dtd">
<svg
  width="240"
  height="240"
  viewBox="-50 -50 200 200" xmlns="http://www.w3.org/2000/svg" version="1.1">
  <rect
    x="0"
    y="0"
    width="100"
    height="100"
    fill="hsla(206,100%,53%,0.3)"
    stroke="hsl(206,100%,53%)"
    stroke-width="3"
    transform="" />
  
  <path
    d="M 
      9.4021215043
      -223.0472516875
      L
    
      30.1350048216
      -196.9463195114
      L
    
      10.5593056894
      -181.3966570234
      L
    
      10.7907425265
      -173.0665380906
      L
    
      -0.3160827172
      -172.7579556412
      L
    
      -17.7167041680
      -158.9360334297
      L
    
      -20.5303760848
      -148.1870781099
      L
    
      -28.5920925747
      -150.2973320475
      L
    
      -48.1677917068
      -134.7476695596
      L
    
      -68.9006750241
      -160.8486017357
      L
    
      -40.1157184185
      -204.9983927997
      z
    "
    fill="hsla(0,0%,50%,0.3)"
    stroke="hsla(0,0%,50%,1)"
    stroke-width="1"
    transform="translate(45.9104894092,178.8527635055) scale(1,-1) translate(50,-110)"
    />
  
  
  <line
    x1="9.40212150433944"
    y1="-223.04725168756028"
    x2="-40.115718418514945"
    y2="-204.99839279974285"
    stroke="hsla(0,50%,50%,0.6)"
    stroke-width="1"
    transform="translate(45.9104894092,178.8527635055) scale(1,-1) translate(50,-110)"
    />
  
  <line
    x1="10.790742526518804"
    y1="-173.0665380906461"
    x2="-28.083145826636667"
    y2="-171.98649951783992"
    stroke="hsla(0,50%,50%,0.6)"
    stroke-width="1"
    transform="translate(45.9104894092,178.8527635055) scale(1,-1) translate(50,-110)"
    />
  
  <line
    x1="-68.900675024108"
    y1="-160.84860173577627"
    x2="-20.530376084860173"
    y2="-148.1870781099325"
    stroke="hsla(0,50%,50%,0.6)"
    stroke-width="1"
    transform="translate(45.9104894092,178.8527635055) scale(1,-1) translate(50,-110)"
    />
  
  <line
    x1="-40.115718418514945"
    y1="-204.99839279974285"
    x2="-10.682524375870567"
    y2="-185.8084217293475"
    stroke="hsla(0,50%,50%,0.6)"
    stroke-width="1"
    transform="translate(45.9104894092,178.8527635055) scale(1,-1) translate(50,-110)"
    />
  
  <line
    x1="19.768563162970107"
    y1="-209.9967855994857"
    x2="-58.53423336547734"
    y2="-147.7981356477017"
    stroke="hsla(0,50%,50%,0.6)"
    stroke-width="1"
    transform="translate(45.9104894092,178.8527635055) scale(1,-1) translate(50,-110)"
    />
  
  <line
    x1="30.13500482160077"
    y1="-196.94631951141113"
    x2="-48.16779170684667"
    y2="-134.74766955962713"
    stroke="hsla(0,50%,50%,0.6)"
    stroke-width="1"
    transform="translate(45.9104894092,178.8527635055) scale(1,-1) translate(50,-110)"
    />
  
  <line
    x1="9.40212150433944"
    y1="-223.04725168756028"
    x2="30.13500482160077"
    y2="-196.94631951141113"
    stroke="hsla(0,50%,50%,0.6)"
    stroke-width="1"
    transform="translate(45.9104894092,178.8527635055) scale(1,-1) translate(50,-110)"
    />
  
  <line
    x1="-40.115718418514945"
    y1="-204.99839279974285"
    x2="-68.900675024108"
    y2="-160.84860173577627"
    stroke="hsla(0,50%,50%,0.6)"
    stroke-width="1"
    transform="translate(45.9104894092,178.8527635055) scale(1,-1) translate(50,-110)"
    />
  
  <line
    x1="-68.900675024108"
    y1="-160.84860173577627"
    x2="-48.16779170684667"
    y2="-134.74766955962713"
    stroke="hsla(0,50%,50%,0.6)"
    stroke-width="1"
    transform="translate(45.9104894092,178.8527635055) scale(1,-1) translate(50,-110)"
    />
  
  <line
    x1="-10.682524375870567"
    y1="-185.8084217293475"
    x2="-20.530376084860173"
    y2="-148.1870781099325"
    stroke="hsla(0,50%,50%,0.6)"
    stroke-width="1"
    transform="translate(45.9104894092,178.8527635055) scale(1,-1) translate(50,-110)"
    />
  
  <line
    x1="-40.115718418514945"
    y1="-204.99839279974285"
    x2="-28.083145826636667"
    y2="-171.98649951783992"
    stroke="hsla(0,50%,50%,0.6)"
    stroke-width="1"
    transform="translate(45.9104894092,178.8527635055) scale(1,-1) translate(50,-110)"
    />
  
  <line
    x1="9.40212150433944"
    y1="-223.04725168756028"
    x2="10.790742526518804"
    y2="-173.0665380906461"
    stroke="hsla(0,50%,50%,0.6)"
    stroke-width="1"
    transform="translate(45.9104894092,178.8527635055) scale(1,-1) translate(50,-110)"
    />
  
</svg>
