<?xml version="1.0"?>
<!DOCTYPE svg PUBLIC "-//W3C//DTD SVG 1.1//EN"
  "http://www.w3.org/Graphics/SVG/1.1/DTD/svg11.dtd">
<svg
  width="240"
  height="240"
  viewBox="-500 -500 1000 1000" xmlns="http://www.w3.org/2000/svg" version="1.1">
  <rect
    x="0"
    y="0"
    width="100"
    height="100"
    fill="hsla(206,100%,53%,0.3)"
    stroke="hsl(206,100%,53%)"
    stroke-width="3"
    transform="" />
  
  <path
    d="M 
      0.1583375524
      -61.8519366520
      L
    
      36.0342086508
      -48.6705772709
      L
    
      40.1766394632
      -36.9822908938
      L
    
      13.6769579669
      -27.5905722443
      L
    
      20.2839756592
      -21.2981744421
      L
    
      0.0000000000
      -0.0000000000
      L
    
      -18.1034482758
      -17.2413793103
      L
    
      -13.7931034482
      -53.7525354969
      z
    "
    fill="hsla(0,0%,50%,0.3)"
    stroke="hsla(0,0%,50%,1)"
    stroke-width="1"
    transform="translate(-10.5163552587,31.2668012062)"
    />
  
  <path
    d="M 
      10.1546303327
      -33.6463882633
      L
    
      8.3924949290
      -32.6233941852
      L
    
      11.5997349184
      -29.5688799095
      z
    "
    fill="hsla(0,0%,50%,0.3)"
    stroke="hsla(0,0%,50%,1)"
    stroke-width="1"
    transform="translate(-10.5163552587,31.2668012062)"
    />
  
  
  <line
    x1="0.15833755244326775"
    y1="-61.851936652079836"
    x2="36.034208650841514"
    y2="-48.67057727098295"
    stroke="hsla(0,50%,50%,0.6)"
    stroke-width="1"
    transform="translate(-10.5163552587,31.2668012062)"
    />
  
  <line
    x1="0.15833755244326775"
    y1="-61.851936652079836"
    x2="-13.793103448275861"
    y2="-53.75253549695741"
    stroke="hsla(0,50%,50%,0.6)"
    stroke-width="1"
    transform="translate(-10.5163552587,31.2668012062)"
    />
  
  <line
    x1="28.859034431161863"
    y1="-51.30684914720233"
    x2="-17.24137931034483"
    y2="-24.543610547667342"
    stroke="hsla(0,50%,50%,0.6)"
    stroke-width="1"
    transform="translate(-10.5163552587,31.2668012062)"
    />
  
  <line
    x1="-13.793103448275861"
    y1="-53.75253549695741"
    x2="20.28397565922921"
    y2="-21.29817444219067"
    stroke="hsla(0,50%,50%,0.6)"
    stroke-width="1"
    transform="translate(-10.5163552587,31.2668012062)"
    />
  
  <line
    x1="36.034208650841514"
    y1="-48.67057727098295"
    x2="-18.103448275862068"
    y2="-17.24137931034483"
    stroke="hsla(0,50%,50%,0.6)"
    stroke-width="1"
    transform="translate(-10.5163552587,31.2668012062)"
    />
  
  <line
    x1="40.17663946324312"
    y1="-36.98229089384213"
    x2="12.454421773870672"
    y2="-27.15729473622293"
    stroke="hsla(0,50%,50%,0.6)"
    stroke-width="1"
    transform="translate(-10.5163552587,31.2668012062)"
    />
  
  <line
    x1="36.034208650841514"
    y1="-48.67057727098295"
    x2="40.17663946324312"
    y2="-36.98229089384213"
    stroke="hsla(0,50%,50%,0.6)"
    stroke-width="1"
    transform="translate(-10.5163552587,31.2668012062)"
    />
  
  <line
    x1="28.859034431161863"
    y1="-51.30684914720233"
    x2="34.632195925368634"
    y2="-35.01729166231829"
    stroke="hsla(0,50%,50%,0.6)"
    stroke-width="1"
    transform="translate(-10.5163552587,31.2668012062)"
    />
  
  <line
    x1="0.15833755244326775"
    y1="-61.851936652079836"
    x2="12.454421773870672"
    y2="-27.15729473622293"
    stroke="hsla(0,50%,50%,0.6)"
    stroke-width="1"
    transform="translate(-10.5163552587,31.2668012062)"
    />
  
  <line
    x1="-17.24137931034483"
    y1="-24.543610547667342"
    x2="4.056795131845842"
    y2="-4.259634888438134"
    stroke="hsla(0,50%,50%,0.6)"
    stroke-width="1"
    transform="translate(-10.5163552587,31.2668012062)"
    />
  
  <line
    x1="-13.793103448275861"
    y1="-53.75253549695741"
    x2="-18.103448275862068"
    y2="-17.24137931034483"
    stroke="hsla(0,50%,50%,0.6)"
    stroke-width="1"
    transform="translate(-10.5163552587,31.2668012062)"
    />
  
  <line
    x1="-18.103448275862068"
    y1="-17.24137931034483"
    x2="8.545435842250282e-20"
    y2="-8.972707634362795e-20"
    stroke="hsla(0,50%,50%,0.6)"
    stroke-width="1"
    transform="translate(-10.5163552587,31.2668012062)"
    />
  
  <line
    x1="-18.103448275862068"
    y1="-17.24137931034483"
    x2="4.272717921125141e-20"
    y2="-4.4863538171813976e-20"
    stroke="hsla(0,50%,50%,0.6)"
    stroke-width="1"
    transform="translate(-10.5163552587,31.2668012062)"
    />
  
  <line
    x1="20.28397565922921"
    y1="-21.29817444219067"
    x2="4.272717921125141e-20"
    y2="-4.4863538171813976e-20"
    stroke="hsla(0,50%,50%,0.6)"
    stroke-width="1"
    transform="translate(-10.5163552587,31.2668012062)"
    />
  
  <line
    x1="8.545435842250282e-20"
    y1="-8.972707634362795e-20"
    x2="4.272717921125141e-20"
    y2="-4.4863538171813976e-20"
    stroke="hsla(0,50%,50%,0.6)"
    stroke-width="1"
    transform="translate(-10.5163552587,31.2668012062)"
    />
  
</svg>
