<?xml version="1.0"?>
<!DOCTYPE svg PUBLIC "-//W3C//DTD SVG 1.1//EN"
  "http://www.w3.org/Graphics/SVG/1.1/DTD/svg11.dtd">
<svg
  width="240"
  height="240"
  viewBox="-500 -500 1000 1000" xmlns="http://www.w3.org/2000/svg" version="1.1">
  <rect
    x="0"
    y="0"
    width="100"
    height="100"
    fill="hsla(206,100%,53%,0.3)"
    stroke="hsl(206,100%,53%)"
    stroke-width="3"
    transform="" />
  
  <path
    d="M 
      27.7876367938
      27.4327122153
      L
    
      44.0012368583
      40.0432900432
      L
    
      44.2787114845
      49.7549019607
      L
    
      26.7545787545
      63.5897435897
      L
    
      -8.9029741589
      56.1514708272
      L
    
      -8.4029324639
      53.3573944176
      L
    
      -9.0386816441
      53.2057068939
      L
    
      -8.3647733210
      50.3812381869
      L
    
      -9.1527548333
      50.1692698080
      L
    
      -7.1215178128
      41.6559970016
      L
    
      0.3268984958
      37.9317888473
      L
    
      2.2841953922
      38.4583050710
      L
    
      1.9450033534
      37.1227364185
      L
    
      12.7859415240
      31.7022673332
      z
    "
    fill="hsla(0,0%,50%,0.3)"
    stroke="hsla(0,0%,50%,1)"
    stroke-width="1"
    transform="translate(-21.7228347452,-44.9951896895)"
    />
  
  <path
    d="M 
      27.3206872018
      43.7759479358
      L
    
      24.4446951277
      44.4195175264
      L
    
      27.2805041423
      45.1823550175
      z
    "
    fill="hsla(0,0%,50%,0.3)"
    stroke="hsla(0,0%,50%,1)"
    stroke-width="1"
    transform="translate(-21.7228347452,-44.9951896895)"
    />
  
  
  <line
    x1="44.00123685837971"
    y1="40.04329004329004"
    x2="44.278711484593835"
    y2="49.754901960784316"
    stroke="hsla(0,50%,50%,0.6)"
    stroke-width="1"
    transform="translate(-21.7228347452,-44.9951896895)"
    />
  
  <line
    x1="29.390847247990106"
    y1="28.67965367965368"
    x2="30.30812324929972"
    y2="60.78431372549019"
    stroke="hsla(0,50%,50%,0.6)"
    stroke-width="1"
    transform="translate(-21.7228347452,-44.9951896895)"
    />
  
  <line
    x1="28.548123980424144"
    y1="28.0242022493246"
    x2="28.548123980424144"
    y2="62.17378683249723"
    stroke="hsla(0,50%,50%,0.6)"
    stroke-width="1"
    transform="translate(-21.7228347452,-44.9951896895)"
    />
  
  <line
    x1="42.90375203915171"
    y1="39.18969073944604"
    x2="42.90375203915171"
    y2="50.84039625981757"
    stroke="hsla(0,50%,50%,0.6)"
    stroke-width="1"
    transform="translate(-21.7228347452,-44.9951896895)"
    />
  
  <line
    x1="-6.386316944028417"
    y1="42.089178371324586"
    x2="-8.902974158946856"
    y2="56.15147082723875"
    stroke="hsla(0,50%,50%,0.6)"
    stroke-width="1"
    transform="translate(-21.7228347452,-44.9951896895)"
    />
  
  <line
    x1="-7.121517812847112"
    y1="41.65599700166165"
    x2="-9.152754833316498"
    y2="50.169269808040696"
    stroke="hsla(0,50%,50%,0.6)"
    stroke-width="1"
    transform="translate(-21.7228347452,-44.9951896895)"
    />
  
  <line
    x1="3.3406965601467986"
    y1="36.4248898151647"
    x2="5.7047248564377435"
    y2="48.61301830306724"
    stroke="hsla(0,50%,50%,0.6)"
    stroke-width="1"
    transform="translate(-21.7228347452,-44.9951896895)"
    />
  
  <line
    x1="27.787636793847973"
    y1="27.43271221532091"
    x2="26.754578754578755"
    y2="63.58974358974359"
    stroke="hsla(0,50%,50%,0.6)"
    stroke-width="1"
    transform="translate(-21.7228347452,-44.9951896895)"
    />
  
  <line
    x1="-6.169372072805647"
    y1="41.17992413164092"
    x2="-9.038681644174687"
    y2="53.20570689399646"
    stroke="hsla(0,50%,50%,0.6)"
    stroke-width="1"
    transform="translate(-21.7228347452,-44.9951896895)"
    />
  
  <line
    x1="2.5832885269606742"
    y1="36.80359383175776"
    x2="4.908424908424909"
    y2="48.79120879120879"
    stroke="hsla(0,50%,50%,0.6)"
    stroke-width="1"
    transform="translate(-21.7228347452,-44.9951896895)"
    />
  
  <line
    x1="-5.217226332764182"
    y1="40.70385126162019"
    x2="-8.902974158946856"
    y2="56.15147082723875"
    stroke="hsla(0,50%,50%,0.6)"
    stroke-width="1"
    transform="translate(-21.7228347452,-44.9951896895)"
    />
  
  <line
    x1="41.76279207335108"
    y1="38.302277432712216"
    x2="41.36996336996337"
    y2="52.05128205128205"
    stroke="hsla(0,50%,50%,0.6)"
    stroke-width="1"
    transform="translate(-21.7228347452,-44.9951896895)"
    />
  
  <line
    x1="3.4384665797941536"
    y1="36.37600480534102"
    x2="6.501024804450579"
    y2="48.4348278149257"
    stroke="hsla(0,50%,50%,0.6)"
    stroke-width="1"
    transform="translate(-21.7228347452,-44.9951896895)"
    />
  
  <line
    x1="2.6917349666241055"
    y1="36.74937061192604"
    x2="5.7047248564377435"
    y2="48.61301830306724"
    stroke="hsla(0,50%,50%,0.6)"
    stroke-width="1"
    transform="translate(-21.7228347452,-44.9951896895)"
    />
  
  <line
    x1="-6.507790524967239"
    y1="41.34913335772171"
    x2="-9.152754833316498"
    y2="50.169269808040696"
    stroke="hsla(0,50%,50%,0.6)"
    stroke-width="1"
    transform="translate(-21.7228347452,-44.9951896895)"
    />
  
  <line
    x1="1.9450033534540576"
    y1="37.12273641851107"
    x2="4.908424908424909"
    y2="48.79120879120879"
    stroke="hsla(0,50%,50%,0.6)"
    stroke-width="1"
    transform="translate(-21.7228347452,-44.9951896895)"
    />
  
  <line
    x1="-5.506043450718293"
    y1="40.84825982059724"
    x2="-8.36477332109511"
    y2="50.38123818697175"
    stroke="hsla(0,50%,50%,0.6)"
    stroke-width="1"
    transform="translate(-21.7228347452,-44.9951896895)"
    />
  
  <line
    x1="2.061188384478796"
    y1="37.0646439029987"
    x2="5.6932518270201795"
    y2="48.56784324973558"
    stroke="hsla(0,50%,50%,0.6)"
    stroke-width="1"
    transform="translate(-21.7228347452,-44.9951896895)"
    />
  
  <line
    x1="27.787636793847973"
    y1="27.43271221532091"
    x2="44.00123685837971"
    y2="40.04329004329004"
    stroke="hsla(0,50%,50%,0.6)"
    stroke-width="1"
    transform="translate(-21.7228347452,-44.9951896895)"
    />
  
  <line
    x1="-3.3962704904647687"
    y1="39.79337334047048"
    x2="-4.666236632006721"
    y2="42.72104828769584"
    stroke="hsla(0,50%,50%,0.6)"
    stroke-width="1"
    transform="translate(-21.7228347452,-44.9951896895)"
    />
  
  <line
    x1="0.32689849582938774"
    y1="37.9317888473234"
    x2="-1.7418620182624214"
    y2="43.100488388931616"
    stroke="hsla(0,50%,50%,0.6)"
    stroke-width="1"
    transform="translate(-21.7228347452,-44.9951896895)"
    />
  
  <line
    x1="2.061188384478796"
    y1="37.0646439029987"
    x2="3.3553113553113554"
    y2="38.87179487179487"
    stroke="hsla(0,50%,50%,0.6)"
    stroke-width="1"
    transform="translate(-21.7228347452,-44.9951896895)"
    />
  
  <line
    x1="3.4384665797941536"
    y1="36.37600480534102"
    x2="4.595976073953236"
    y2="37.811543540744196"
    stroke="hsla(0,50%,50%,0.6)"
    stroke-width="1"
    transform="translate(-21.7228347452,-44.9951896895)"
    />
  
  <line
    x1="2.6917349666241055"
    y1="36.74937061192604"
    x2="4.004899939647085"
    y2="38.37795266180258"
    stroke="hsla(0,50%,50%,0.6)"
    stroke-width="1"
    transform="translate(-21.7228347452,-44.9951896895)"
    />
  
  <line
    x1="1.9450033534540576"
    y1="37.12273641851107"
    x2="3.3553113553113554"
    y2="38.87179487179487"
    stroke="hsla(0,50%,50%,0.6)"
    stroke-width="1"
    transform="translate(-21.7228347452,-44.9951896895)"
    />
  
  <line
    x1="3.3406965601467986"
    y1="36.4248898151647"
    x2="4.595976073953236"
    y2="37.811543540744196"
    stroke="hsla(0,50%,50%,0.6)"
    stroke-width="1"
    transform="translate(-21.7228347452,-44.9951896895)"
    />
  
  <line
    x1="2.5832885269606742"
    y1="36.80359383175776"
    x2="3.9756437146322954"
    y2="38.34166920626953"
    stroke="hsla(0,50%,50%,0.6)"
    stroke-width="1"
    transform="translate(-21.7228347452,-44.9951896895)"
    />
  
  <line
    x1="10.2767105212093"
    y1="32.95688283463345"
    x2="3.9756437146322954"
    y2="38.34166920626953"
    stroke="hsla(0,50%,50%,0.6)"
    stroke-width="1"
    transform="translate(-21.7228347452,-44.9951896895)"
    />
  
  <line
    x1="11.464856426178322"
    y1="32.36280988214894"
    x2="4.004899939647085"
    y2="38.37795266180258"
    stroke="hsla(0,50%,50%,0.6)"
    stroke-width="1"
    transform="translate(-21.7228347452,-44.9951896895)"
    />
  
  <line
    x1="12.785941524011513"
    y1="31.70226733323234"
    x2="3.3553113553113554"
    y2="38.87179487179487"
    stroke="hsla(0,50%,50%,0.6)"
    stroke-width="1"
    transform="translate(-21.7228347452,-44.9951896895)"
    />
  
  <line
    x1="12.785941524011513"
    y1="31.70226733323234"
    x2="1.9450033534540576"
    y2="37.12273641851107"
    stroke="hsla(0,50%,50%,0.6)"
    stroke-width="1"
    transform="translate(-21.7228347452,-44.9951896895)"
    />
  
  <line
    x1="0.32689849582938774"
    y1="37.9317888473234"
    x2="-7.121517812847112"
    y2="41.65599700166165"
    stroke="hsla(0,50%,50%,0.6)"
    stroke-width="1"
    transform="translate(-21.7228347452,-44.9951896895)"
    />
  
  <line
    x1="27.787636793847973"
    y1="27.43271221532091"
    x2="12.785941524011513"
    y2="31.70226733323234"
    stroke="hsla(0,50%,50%,0.6)"
    stroke-width="1"
    transform="translate(-21.7228347452,-44.9951896895)"
    />
  
  <line
    x1="28.548123980424144"
    y1="28.0242022493246"
    x2="11.464856426178322"
    y2="32.36280988214894"
    stroke="hsla(0,50%,50%,0.6)"
    stroke-width="1"
    transform="translate(-21.7228347452,-44.9951896895)"
    />
  
  <line
    x1="29.390847247990106"
    y1="28.67965367965368"
    x2="10.2767105212093"
    y2="32.95688283463345"
    stroke="hsla(0,50%,50%,0.6)"
    stroke-width="1"
    transform="translate(-21.7228347452,-44.9951896895)"
    />
  
  <line
    x1="0.32689849582938774"
    y1="37.9317888473234"
    x2="44.278711484593835"
    y2="49.754901960784316"
    stroke="hsla(0,50%,50%,0.6)"
    stroke-width="1"
    transform="translate(-21.7228347452,-44.9951896895)"
    />
  
  <line
    x1="-5.217226332764182"
    y1="40.70385126162019"
    x2="-1.4386478140744352"
    y2="42.342922151795875"
    stroke="hsla(0,50%,50%,0.6)"
    stroke-width="1"
    transform="translate(-21.7228347452,-44.9951896895)"
    />
  
  <line
    x1="-6.169372072805647"
    y1="41.17992413164092"
    x2="-1.7418620182624214"
    y2="43.100488388931616"
    stroke="hsla(0,50%,50%,0.6)"
    stroke-width="1"
    transform="translate(-21.7228347452,-44.9951896895)"
    />
  
  <line
    x1="-7.121517812847112"
    y1="41.65599700166165"
    x2="-4.666236632006721"
    y2="42.72104828769584"
    stroke="hsla(0,50%,50%,0.6)"
    stroke-width="1"
    transform="translate(-21.7228347452,-44.9951896895)"
    />
  
  <line
    x1="-5.506043450718293"
    y1="40.84825982059724"
    x2="-1.4386478140744352"
    y2="42.342922151795875"
    stroke="hsla(0,50%,50%,0.6)"
    stroke-width="1"
    transform="translate(-21.7228347452,-44.9951896895)"
    />
  
  <line
    x1="-3.3962704904647687"
    y1="39.79337334047048"
    x2="42.90375203915171"
    y2="50.84039625981757"
    stroke="hsla(0,50%,50%,0.6)"
    stroke-width="1"
    transform="translate(-21.7228347452,-44.9951896895)"
    />
  
  <line
    x1="-6.507790524967239"
    y1="41.34913335772171"
    x2="-1.7418620182624214"
    y2="43.100488388931616"
    stroke="hsla(0,50%,50%,0.6)"
    stroke-width="1"
    transform="translate(-21.7228347452,-44.9951896895)"
    />
  
  <line
    x1="-6.386316944028417"
    y1="42.089178371324586"
    x2="41.36996336996337"
    y2="52.05128205128205"
    stroke="hsla(0,50%,50%,0.6)"
    stroke-width="1"
    transform="translate(-21.7228347452,-44.9951896895)"
    />
  
  <line
    x1="41.76279207335108"
    y1="38.302277432712216"
    x2="5.6932518270201795"
    y2="48.56784324973558"
    stroke="hsla(0,50%,50%,0.6)"
    stroke-width="1"
    transform="translate(-21.7228347452,-44.9951896895)"
    />
  
  <line
    x1="42.90375203915171"
    y1="39.18969073944604"
    x2="6.501024804450579"
    y2="48.4348278149257"
    stroke="hsla(0,50%,50%,0.6)"
    stroke-width="1"
    transform="translate(-21.7228347452,-44.9951896895)"
    />
  
  <line
    x1="44.00123685837971"
    y1="40.04329004329004"
    x2="4.908424908424909"
    y2="48.79120879120879"
    stroke="hsla(0,50%,50%,0.6)"
    stroke-width="1"
    transform="translate(-21.7228347452,-44.9951896895)"
    />
  
  <line
    x1="-9.152754833316498"
    y1="50.169269808040696"
    x2="30.30812324929972"
    y2="60.78431372549019"
    stroke="hsla(0,50%,50%,0.6)"
    stroke-width="1"
    transform="translate(-21.7228347452,-44.9951896895)"
    />
  
  <line
    x1="44.278711484593835"
    y1="49.754901960784316"
    x2="26.754578754578755"
    y2="63.58974358974359"
    stroke="hsla(0,50%,50%,0.6)"
    stroke-width="1"
    transform="translate(-21.7228347452,-44.9951896895)"
    />
  
  <line
    x1="-9.038681644174687"
    y1="53.20570689399646"
    x2="28.548123980424144"
    y2="62.17378683249723"
    stroke="hsla(0,50%,50%,0.6)"
    stroke-width="1"
    transform="translate(-21.7228347452,-44.9951896895)"
    />
  
  <line
    x1="-8.902974158946856"
    y1="56.15147082723875"
    x2="26.754578754578755"
    y2="63.58974358974359"
    stroke="hsla(0,50%,50%,0.6)"
    stroke-width="1"
    transform="translate(-21.7228347452,-44.9951896895)"
    />
  
</svg>
