<?xml version="1.0"?>
<!DOCTYPE svg PUBLIC "-//W3C//DTD SVG 1.1//EN"
  "http://www.w3.org/Graphics/SVG/1.1/DTD/svg11.dtd">
<svg
  width="240"
  height="240"
  viewBox="-50 -50 200 200" xmlns="http://www.w3.org/2000/svg" version="1.1">
  <rect
    x="0"
    y="0"
    width="100"
    height="100"
    fill="hsla(206,100%,53%,0.3)"
    stroke="hsl(206,100%,53%)"
    stroke-width="3"
    transform="" />
  
  <path
    d="M 
      -36.0550458715
      -230.1834862385
      L
    
      11.0091743119
      -213.3027522935
      L
    
      20.3599153140
      -164.1848976711
      L
    
      -12.3853211009
      -157.9510703363
      L
    
      -31.0162314749
      -130.3105151729
      L
    
      -72.4770642201
      -158.2568807339
      L
    
      -69.4495412844
      -208.1651376146
      L
    
      -44.4954128440
      -206.6513761467
      z
    "
    fill="hsla(0,0%,50%,0.3)"
    stroke="hsla(0,0%,50%,1)"
    stroke-width="1"
    transform="translate(50.8728277170,194.2595859797) scale(1,-1) translate(50,-110)"
    />
  
  
  <line
    x1="-69.44954128440367"
    y1="-208.1651376146789"
    x2="-30.632008154943936"
    y2="-205.81039755351682"
    stroke="hsla(0,50%,50%,0.6)"
    stroke-width="1"
    transform="translate(50.8728277170,194.2595859797) scale(1,-1) translate(50,-110)"
    />
  
  <line
    x1="-36.055045871559635"
    y1="-230.1834862385321"
    x2="11.009174311926605"
    y2="-213.30275229357798"
    stroke="hsla(0,50%,50%,0.6)"
    stroke-width="1"
    transform="translate(50.8728277170,194.2595859797) scale(1,-1) translate(50,-110)"
    />
  
  <line
    x1="11.009174311926605"
    y1="-213.30275229357798"
    x2="-36.23853211009175"
    y2="-194.12844036697248"
    stroke="hsla(0,50%,50%,0.6)"
    stroke-width="1"
    transform="translate(50.8728277170,194.2595859797) scale(1,-1) translate(50,-110)"
    />
  
  <line
    x1="-21.559633027522935"
    y1="-171.86544342507645"
    x2="-72.4770642201835"
    y2="-158.25688073394497"
    stroke="hsla(0,50%,50%,0.6)"
    stroke-width="1"
    transform="translate(50.8728277170,194.2595859797) scale(1,-1) translate(50,-110)"
    />
  
  <line
    x1="-30.632008154943936"
    y1="-205.81039755351682"
    x2="-49.184505606523956"
    y2="-193.57798165137615"
    stroke="hsla(0,50%,50%,0.6)"
    stroke-width="1"
    transform="translate(50.8728277170,194.2595859797) scale(1,-1) translate(50,-110)"
    />
  
  <line
    x1="20.359915314043754"
    y1="-164.1848976711362"
    x2="-20.89908256880734"
    y2="-156.3302752293578"
    stroke="hsla(0,50%,50%,0.6)"
    stroke-width="1"
    transform="translate(50.8728277170,194.2595859797) scale(1,-1) translate(50,-110)"
    />
  
  <line
    x1="-7.541284403669724"
    y1="-165.13761467889907"
    x2="-20.89908256880734"
    y2="-156.3302752293578"
    stroke="hsla(0,50%,50%,0.6)"
    stroke-width="1"
    transform="translate(50.8728277170,194.2595859797) scale(1,-1) translate(50,-110)"
    />
  
  <line
    x1="-36.23853211009175"
    y1="-194.12844036697248"
    x2="-72.4770642201835"
    y2="-158.25688073394497"
    stroke="hsla(0,50%,50%,0.6)"
    stroke-width="1"
    transform="translate(50.8728277170,194.2595859797) scale(1,-1) translate(50,-110)"
    />
  
  <line
    x1="-49.184505606523956"
    y1="-193.57798165137615"
    x2="-21.559633027522935"
    y2="-171.86544342507645"
    stroke="hsla(0,50%,50%,0.6)"
    stroke-width="1"
    transform="translate(50.8728277170,194.2595859797) scale(1,-1) translate(50,-110)"
    />
  
  <line
    x1="-36.23853211009175"
    y1="-194.12844036697248"
    x2="-7.541284403669724"
    y2="-165.13761467889907"
    stroke="hsla(0,50%,50%,0.6)"
    stroke-width="1"
    transform="translate(50.8728277170,194.2595859797) scale(1,-1) translate(50,-110)"
    />
  
  <line
    x1="11.009174311926605"
    y1="-213.30275229357798"
    x2="-21.559633027522935"
    y2="-171.86544342507645"
    stroke="hsla(0,50%,50%,0.6)"
    stroke-width="1"
    transform="translate(50.8728277170,194.2595859797) scale(1,-1) translate(50,-110)"
    />
  
  <line
    x1="-72.4770642201835"
    y1="-158.25688073394497"
    x2="-31.01623147494707"
    y2="-130.3105151729005"
    stroke="hsla(0,50%,50%,0.6)"
    stroke-width="1"
    transform="translate(50.8728277170,194.2595859797) scale(1,-1) translate(50,-110)"
    />
  
  <line
    x1="-7.541284403669724"
    y1="-165.13761467889907"
    x2="-31.01623147494707"
    y2="-130.3105151729005"
    stroke="hsla(0,50%,50%,0.6)"
    stroke-width="1"
    transform="translate(50.8728277170,194.2595859797) scale(1,-1) translate(50,-110)"
    />
  
  <line
    x1="-36.055045871559635"
    y1="-230.1834862385321"
    x2="-49.184505606523956"
    y2="-193.57798165137615"
    stroke="hsla(0,50%,50%,0.6)"
    stroke-width="1"
    transform="translate(50.8728277170,194.2595859797) scale(1,-1) translate(50,-110)"
    />
  
  <line
    x1="-36.23853211009175"
    y1="-194.12844036697248"
    x2="-20.89908256880734"
    y2="-156.3302752293578"
    stroke="hsla(0,50%,50%,0.6)"
    stroke-width="1"
    transform="translate(50.8728277170,194.2595859797) scale(1,-1) translate(50,-110)"
    />
  
  <line
    x1="11.009174311926605"
    y1="-213.30275229357798"
    x2="20.359915314043754"
    y2="-164.1848976711362"
    stroke="hsla(0,50%,50%,0.6)"
    stroke-width="1"
    transform="translate(50.8728277170,194.2595859797) scale(1,-1) translate(50,-110)"
    />
  
  <line
    x1="-30.632008154943936"
    y1="-205.81039755351682"
    x2="-21.559633027522935"
    y2="-171.86544342507645"
    stroke="hsla(0,50%,50%,0.6)"
    stroke-width="1"
    transform="translate(50.8728277170,194.2595859797) scale(1,-1) translate(50,-110)"
    />
  
  <line
    x1="-69.44954128440367"
    y1="-208.1651376146789"
    x2="-72.4770642201835"
    y2="-158.25688073394497"
    stroke="hsla(0,50%,50%,0.6)"
    stroke-width="1"
    transform="translate(50.8728277170,194.2595859797) scale(1,-1) translate(50,-110)"
    />
  
</svg>
