<?xml version="1.0"?>
<!DOCTYPE svg PUBLIC "-//W3C//DTD SVG 1.1//EN"
  "http://www.w3.org/Graphics/SVG/1.1/DTD/svg11.dtd">
<svg
  width="240"
  height="240"
  viewBox="-500 -500 1000 1000" xmlns="http://www.w3.org/2000/svg" version="1.1">
  <rect
    x="0"
    y="0"
    width="100"
    height="100"
    fill="hsla(206,100%,53%,0.3)"
    stroke="hsl(206,100%,53%)"
    stroke-width="3"
    transform="" />
  
  <path
    d="M 
      42.8571428571
      32.1428571428
      L
    
      54.2385861561
      38.5787923416
      L
    
      55.3755522827
      55.6332842415
      L
    
      54.0670984074
      56.6234086161
      L
    
      55.4584458922
      56.8766883839
      L
    
      56.4383706764
      71.5755601461
      L
    
      42.8571428571
      75.9740259740
      L
    
      28.5714285714
      65.5844155844
      L
    
      28.5714285714
      40.4761904761
      z
    "
    fill="hsla(0,0%,50%,0.3)"
    stroke="hsla(0,0%,50%,1)"
    stroke-width="1"
    transform="translate(-43.5653521690,-56.0530668989)"
    />
  
  <path
    d="M 
      42.8571428571
      55.1375922709
      L
    
      42.8571428571
      60.9577922077
      L
    
      46.3944665712
      59.8121816867
      z
    "
    fill="hsla(0,0%,50%,0.3)"
    stroke="hsla(0,0%,50%,1)"
    stroke-width="1"
    transform="translate(-43.5653521690,-56.0530668989)"
    />
  
  
  <line
    x1="54.23858615611193"
    y1="38.57879234167894"
    x2="55.37555228276878"
    y2="55.63328424153166"
    stroke="hsla(0,50%,50%,0.6)"
    stroke-width="1"
    transform="translate(-43.5653521690,-56.0530668989)"
    />
  
  <line
    x1="55.458445892261246"
    y1="56.87668838391864"
    x2="56.438370676412944"
    y2="71.57556014619418"
    stroke="hsla(0,50%,50%,0.6)"
    stroke-width="1"
    transform="translate(-43.5653521690,-56.0530668989)"
    />
  
  <line
    x1="39.03352482264858"
    y1="50.08466360545777"
    x2="47.65381919653092"
    y2="61.47642192279727"
    stroke="hsla(0,50%,50%,0.6)"
    stroke-width="1"
    transform="translate(-43.5653521690,-56.0530668989)"
    />
  
  <line
    x1="28.571428571428573"
    y1="40.476190476190474"
    x2="28.571428571428573"
    y2="65.58441558441558"
    stroke="hsla(0,50%,50%,0.6)"
    stroke-width="1"
    transform="translate(-43.5653521690,-56.0530668989)"
    />
  
  <line
    x1="42.857142857142854"
    y1="32.142857142857146"
    x2="42.857142857142854"
    y2="75.97402597402598"
    stroke="hsla(0,50%,50%,0.6)"
    stroke-width="1"
    transform="translate(-43.5653521690,-56.0530668989)"
    />
  
  <line
    x1="42.857142857142854"
    y1="32.142857142857146"
    x2="54.23858615611193"
    y2="38.57879234167894"
    stroke="hsla(0,50%,50%,0.6)"
    stroke-width="1"
    transform="translate(-43.5653521690,-56.0530668989)"
    />
  
  <line
    x1="49.40427785560529"
    y1="55.774592544504046"
    x2="46.845764854614416"
    y2="69.82932996207333"
    stroke="hsla(0,50%,50%,0.6)"
    stroke-width="1"
    transform="translate(-43.5653521690,-56.0530668989)"
    />
  
  <line
    x1="28.571428571428573"
    y1="40.476190476190474"
    x2="55.37555228276878"
    y2="55.63328424153166"
    stroke="hsla(0,50%,50%,0.6)"
    stroke-width="1"
    transform="translate(-43.5653521690,-56.0530668989)"
    />
  
  <line
    x1="28.571428571428573"
    y1="65.58441558441558"
    x2="42.857142857142854"
    y2="75.97402597402598"
    stroke="hsla(0,50%,50%,0.6)"
    stroke-width="1"
    transform="translate(-43.5653521690,-56.0530668989)"
    />
  
  <line
    x1="42.857142857142854"
    y1="32.142857142857146"
    x2="28.571428571428573"
    y2="40.476190476190474"
    stroke="hsla(0,50%,50%,0.6)"
    stroke-width="1"
    transform="translate(-43.5653521690,-56.0530668989)"
    />
  
  <line
    x1="49.40427785560529"
    y1="55.774592544504046"
    x2="55.458445892261246"
    y2="56.87668838391864"
    stroke="hsla(0,50%,50%,0.6)"
    stroke-width="1"
    transform="translate(-43.5653521690,-56.0530668989)"
    />
  
  <line
    x1="54.23858615611193"
    y1="38.57879234167894"
    x2="39.03352482264858"
    y2="50.08466360545777"
    stroke="hsla(0,50%,50%,0.6)"
    stroke-width="1"
    transform="translate(-43.5653521690,-56.0530668989)"
    />
  
  <line
    x1="46.845764854614416"
    y1="69.82932996207333"
    x2="56.438370676412944"
    y2="71.57556014619418"
    stroke="hsla(0,50%,50%,0.6)"
    stroke-width="1"
    transform="translate(-43.5653521690,-56.0530668989)"
    />
  
  <line
    x1="55.37555228276878"
    y1="55.63328424153166"
    x2="47.65381919653092"
    y2="61.47642192279727"
    stroke="hsla(0,50%,50%,0.6)"
    stroke-width="1"
    transform="translate(-43.5653521690,-56.0530668989)"
    />
  
  <line
    x1="55.458445892261246"
    y1="56.87668838391864"
    x2="28.571428571428573"
    y2="65.58441558441558"
    stroke="hsla(0,50%,50%,0.6)"
    stroke-width="1"
    transform="translate(-43.5653521690,-56.0530668989)"
    />
  
  <line
    x1="56.438370676412944"
    y1="71.57556014619418"
    x2="42.857142857142854"
    y2="75.97402597402598"
    stroke="hsla(0,50%,50%,0.6)"
    stroke-width="1"
    transform="translate(-43.5653521690,-56.0530668989)"
    />
  
</svg>
