<?xml version="1.0"?>
<!DOCTYPE svg PUBLIC "-//W3C//DTD SVG 1.1//EN"
  "http://www.w3.org/Graphics/SVG/1.1/DTD/svg11.dtd">
<svg
  width="240"
  height="240"
  viewBox="-50 -50 200 200" xmlns="http://www.w3.org/2000/svg" version="1.1">
  <rect
    x="0"
    y="0"
    width="100"
    height="100"
    fill="hsla(206,100%,53%,0.3)"
    stroke="hsl(206,100%,53%)"
    stroke-width="3"
    transform="" />
  
  <path
    d="M 
      0
      0
      L
    
      20
      0
      L
    
      20
      110
      L
    
      0
      110
      z
    "
    fill="hsla(0,0%,50%,0.3)"
    stroke="hsla(0,0%,50%,1)"
    stroke-width="1"
    transform="translate(-7.5,-82.5) scale(1,-1) translate(50,-110)"
    />
  
  
  <line
    x1="0"
    y1="0"
    x2="20"
    y2="0"
    stroke="hsla(0,50%,50%,0.6)"
    stroke-width="1"
    transform="translate(-7.5,-82.5) scale(1,-1) translate(50,-110)"
    />
  
  <line
    x1="0"
    y1="0"
    x2="20"
    y2="26.666666666666668"
    stroke="hsla(0,50%,50%,0.6)"
    stroke-width="1"
    transform="translate(-7.5,-82.5) scale(1,-1) translate(50,-110)"
    />
  
  <line
    x1="0"
    y1="0"
    x2="0"
    y2="110"
    stroke="hsla(0,50%,50%,0.6)"
    stroke-width="1"
    transform="translate(-7.5,-82.5) scale(1,-1) translate(50,-110)"
    />
  
  <line
    x1="20"
    y1="0"
    x2="20"
    y2="110"
    stroke="hsla(0,50%,50%,0.6)"
    stroke-width="1"
    transform="translate(-7.5,-82.5) scale(1,-1) translate(50,-110)"
    />
  
  <line
    x1="0"
    y1="15"
    x2="20"
    y2="30"
    stroke="hsla(0,50%,50%,0.6)"
    stroke-width="1"
    transform="translate(-7.5,-82.5) scale(1,-1) translate(50,-110)"
    />
  
  <line
    x1="20"
    y1="0"
    x2="0"
    y2="15"
    stroke="hsla(0,50%,50%,0.6)"
    stroke-width="1"
    transform="translate(-7.5,-82.5) scale(1,-1) translate(50,-110)"
    />
  
  <line
    x1="0"
    y1="53.333333333333336"
    x2="12.8"
    y2="70.4"
    stroke="hsla(0,50%,50%,0.6)"
    stroke-width="1"
    transform="translate(-7.5,-82.5) scale(1,-1) translate(50,-110)"
    />
  
  <line
    x1="20"
    y1="26.666666666666668"
    x2="0"
    y2="53.333333333333336"
    stroke="hsla(0,50%,50%,0.6)"
    stroke-width="1"
    transform="translate(-7.5,-82.5) scale(1,-1) translate(50,-110)"
    />
  
  <line
    x1="0"
    y1="60"
    x2="20"
    y2="86.66666666666667"
    stroke="hsla(0,50%,50%,0.6)"
    stroke-width="1"
    transform="translate(-7.5,-82.5) scale(1,-1) translate(50,-110)"
    />
  
  <line
    x1="7.2"
    y1="50.4"
    x2="0"
    y2="60"
    stroke="hsla(0,50%,50%,0.6)"
    stroke-width="1"
    transform="translate(-7.5,-82.5) scale(1,-1) translate(50,-110)"
    />
  
  <line
    x1="0"
    y1="45"
    x2="7.2"
    y2="50.4"
    stroke="hsla(0,50%,50%,0.6)"
    stroke-width="1"
    transform="translate(-7.5,-82.5) scale(1,-1) translate(50,-110)"
    />
  
  <line
    x1="20"
    y1="30"
    x2="0"
    y2="45"
    stroke="hsla(0,50%,50%,0.6)"
    stroke-width="1"
    transform="translate(-7.5,-82.5) scale(1,-1) translate(50,-110)"
    />
  
  <line
    x1="0"
    y1="106.66666666666667"
    x2="2.5"
    y2="110"
    stroke="hsla(0,50%,50%,0.6)"
    stroke-width="1"
    transform="translate(-7.5,-82.5) scale(1,-1) translate(50,-110)"
    />
  
  <line
    x1="12.8"
    y1="89.6"
    x2="0"
    y2="106.66666666666667"
    stroke="hsla(0,50%,50%,0.6)"
    stroke-width="1"
    transform="translate(-7.5,-82.5) scale(1,-1) translate(50,-110)"
    />
  
  <line
    x1="20"
    y1="86.66666666666667"
    x2="2.5"
    y2="110"
    stroke="hsla(0,50%,50%,0.6)"
    stroke-width="1"
    transform="translate(-7.5,-82.5) scale(1,-1) translate(50,-110)"
    />
  
  <line
    x1="0"
    y1="80"
    x2="20"
    y2="95"
    stroke="hsla(0,50%,50%,0.6)"
    stroke-width="1"
    transform="translate(-7.5,-82.5) scale(1,-1) translate(50,-110)"
    />
  
  <line
    x1="12.8"
    y1="70.4"
    x2="0"
    y2="80"
    stroke="hsla(0,50%,50%,0.6)"
    stroke-width="1"
    transform="translate(-7.5,-82.5) scale(1,-1) translate(50,-110)"
    />
  
  <line
    x1="20"
    y1="95"
    x2="0"
    y2="110"
    stroke="hsla(0,50%,50%,0.6)"
    stroke-width="1"
    transform="translate(-7.5,-82.5) scale(1,-1) translate(50,-110)"
    />
  
  <line
    x1="0"
    y1="110"
    x2="20"
    y2="110"
    stroke="hsla(0,50%,50%,0.6)"
    stroke-width="1"
    transform="translate(-7.5,-82.5) scale(1,-1) translate(50,-110)"
    />
  
</svg>
