<?xml version="1.0"?>
<!DOCTYPE svg PUBLIC "-//W3C//DTD SVG 1.1//EN"
  "http://www.w3.org/Graphics/SVG/1.1/DTD/svg11.dtd">
<svg
  width="240"
  height="240"
  viewBox="-500 -500 1000 1000" xmlns="http://www.w3.org/2000/svg" version="1.1">
  <rect
    x="0"
    y="0"
    width="100"
    height="100"
    fill="hsla(206,100%,53%,0.3)"
    stroke="hsl(206,100%,53%)"
    stroke-width="3"
    transform="" />
  
  <path
    d="M 
      47.0607239018
      -21.6241383311
      L
    
      77.4979896059
      2.3668138955
      L
    
      69.1374865238
      15.6657561796
      L
    
      69.9450752724
      16.8288795924
      L
    
      67.5850864835
      20.0678166633
      L
    
      67.0048915794
      32.5642860483
      L
    
      62.1698132494
      32.3397996176
      L
    
      60.0636411001
      30.3905302257
      L
    
      54.6495992922
      37.8209641318
      L
    
      33.3409455626
      27.0096115174
      L
    
      29.9974290481
      27.3857942212
      L
    
      27.8305557555
      8.1265976499
      L
    
      26.4131755567
      7.3303206801
      L
    
      23.8735659292
      -0.2165589357
      L
    
      31.1878850474
      -2.6779093476
      L
    
      38.0657534269
      -10.8875100644
      L
    
      37.8435885615
      -11.6650870932
      z
    "
    fill="hsla(0,0%,50%,0.3)"
    stroke="hsla(0,0%,50%,1)"
    stroke-width="1"
    transform="translate(-50.6857777675,-8.0984129003)"
    />
  
  
  <line
    x1="47.06072390188477"
    y1="-21.6241383311129"
    x2="77.49798960596277"
    y2="2.3668138955235225"
    stroke="hsla(0,50%,50%,0.6)"
    stroke-width="1"
    transform="translate(-50.6857777675,-8.0984129003)"
    />
  
  <line
    x1="47.06072390188477"
    y1="-21.6241383311129"
    x2="68.5409338173166"
    y2="-0.5196046623953657"
    stroke="hsla(0,50%,50%,0.6)"
    stroke-width="1"
    transform="translate(-50.6857777675,-8.0984129003)"
    />
  
  <line
    x1="55.258975397380254"
    y1="-10.778101202876595"
    x2="77.49798960596277"
    y2="2.3668138955235225"
    stroke="hsla(0,50%,50%,0.6)"
    stroke-width="1"
    transform="translate(-50.6857777675,-8.0984129003)"
    />
  
  <line
    x1="53.05525260309511"
    y1="-7.496556117451851"
    x2="69.94507527248926"
    y2="16.828879592475598"
    stroke="hsla(0,50%,50%,0.6)"
    stroke-width="1"
    transform="translate(-50.6857777675,-8.0984129003)"
    />
  
  <line
    x1="47.37494868080468"
    y1="-3.8568308131542812"
    x2="69.94507527248926"
    y2="16.828879592475598"
    stroke="hsla(0,50%,50%,0.6)"
    stroke-width="1"
    transform="translate(-50.6857777675,-8.0984129003)"
    />
  
  <line
    x1="37.84358856159602"
    y1="-11.665087093237455"
    x2="53.05525260309511"
    y2="-7.496556117451851"
    stroke="hsla(0,50%,50%,0.6)"
    stroke-width="1"
    transform="translate(-50.6857777675,-8.0984129003)"
    />
  
  <line
    x1="46.191194754150956"
    y1="17.551534580704825"
    x2="62.169813249498596"
    y2="32.33979961767422"
    stroke="hsla(0,50%,50%,0.6)"
    stroke-width="1"
    transform="translate(-50.6857777675,-8.0984129003)"
    />
  
  <line
    x1="37.84358856159602"
    y1="-11.665087093237455"
    x2="50.902222352418335"
    y2="34.040131174640635"
    stroke="hsla(0,50%,50%,0.6)"
    stroke-width="1"
    transform="translate(-50.6857777675,-8.0984129003)"
    />
  
  <line
    x1="55.258975397380254"
    y1="-10.778101202876595"
    x2="61.505874742285364"
    y2="23.84074449843588"
    stroke="hsla(0,50%,50%,0.6)"
    stroke-width="1"
    transform="translate(-50.6857777675,-8.0984129003)"
    />
  
  <line
    x1="50.902222352418335"
    y1="34.040131174640635"
    x2="54.649599292206496"
    y2="37.82096413180825"
    stroke="hsla(0,50%,50%,0.6)"
    stroke-width="1"
    transform="translate(-50.6857777675,-8.0984129003)"
    />
  
  <line
    x1="23.87356592921362"
    y1="-0.21655893573581825"
    x2="26.4131755567068"
    y2="7.330320680147202"
    stroke="hsla(0,50%,50%,0.6)"
    stroke-width="1"
    transform="translate(-50.6857777675,-8.0984129003)"
    />
  
  <line
    x1="58.33195229341874"
    y1="1.4816508431256923"
    x2="62.169813249498596"
    y2="32.33979961767422"
    stroke="hsla(0,50%,50%,0.6)"
    stroke-width="1"
    transform="translate(-50.6857777675,-8.0984129003)"
    />
  
  <line
    x1="58.81582017121694"
    y1="0"
    x2="61.85897435897436"
    y2="27.243589743589745"
    stroke="hsla(0,50%,50%,0.6)"
    stroke-width="1"
    transform="translate(-50.6857777675,-8.0984129003)"
    />
  
  <line
    x1="26.4131755567068"
    y1="7.330320680147202"
    x2="61.85897435897436"
    y2="27.243589743589745"
    stroke="hsla(0,50%,50%,0.6)"
    stroke-width="1"
    transform="translate(-50.6857777675,-8.0984129003)"
    />
  
  <line
    x1="27.15634861861959"
    y1="2.134236295372569"
    x2="29.997429048107655"
    y2="27.385794221234697"
    stroke="hsla(0,50%,50%,0.6)"
    stroke-width="1"
    transform="translate(-50.6857777675,-8.0984129003)"
    />
  
  <line
    x1="41.355572168803725"
    y1="0.6268555319895199"
    x2="58.33195229341874"
    y2="1.4816508431256923"
    stroke="hsla(0,50%,50%,0.6)"
    stroke-width="1"
    transform="translate(-50.6857777675,-8.0984129003)"
    />
  
  <line
    x1="41.1764705882353"
    y1="0"
    x2="58.81582017121694"
    y2="0"
    stroke="hsla(0,50%,50%,0.6)"
    stroke-width="1"
    transform="translate(-50.6857777675,-8.0984129003)"
    />
  
  <line
    x1="68.5409338173166"
    y1="-0.5196046623953657"
    x2="67.00489157943923"
    y2="32.56428604834134"
    stroke="hsla(0,50%,50%,0.6)"
    stroke-width="1"
    transform="translate(-50.6857777675,-8.0984129003)"
    />
  
  <line
    x1="68.5409338173166"
    y1="-0.5196046623953657"
    x2="27.15634861861959"
    y2="2.134236295372569"
    stroke="hsla(0,50%,50%,0.6)"
    stroke-width="1"
    transform="translate(-50.6857777675,-8.0984129003)"
    />
  
  <line
    x1="55.258975397380254"
    y1="-10.778101202876595"
    x2="23.87356592921362"
    y2="-0.21655893573581825"
    stroke="hsla(0,50%,50%,0.6)"
    stroke-width="1"
    transform="translate(-50.6857777675,-8.0984129003)"
    />
  
  <line
    x1="32.04728731692511"
    y1="26.35324928857465"
    x2="54.649599292206496"
    y2="37.82096413180825"
    stroke="hsla(0,50%,50%,0.6)"
    stroke-width="1"
    transform="translate(-50.6857777675,-8.0984129003)"
    />
  
  <line
    x1="58.81582017121694"
    y1="0"
    x2="26.4131755567068"
    y2="7.330320680147202"
    stroke="hsla(0,50%,50%,0.6)"
    stroke-width="1"
    transform="translate(-50.6857777675,-8.0984129003)"
    />
  
  <line
    x1="58.33195229341874"
    y1="1.4816508431256923"
    x2="50.902222352418335"
    y2="34.040131174640635"
    stroke="hsla(0,50%,50%,0.6)"
    stroke-width="1"
    transform="translate(-50.6857777675,-8.0984129003)"
    />
  
  <line
    x1="53.05525260309511"
    y1="-7.496556117451851"
    x2="46.191194754150956"
    y2="17.551534580704825"
    stroke="hsla(0,50%,50%,0.6)"
    stroke-width="1"
    transform="translate(-50.6857777675,-8.0984129003)"
    />
  
  <line
    x1="47.06072390188477"
    y1="-21.6241383311129"
    x2="37.84358856159602"
    y2="-11.665087093237455"
    stroke="hsla(0,50%,50%,0.6)"
    stroke-width="1"
    transform="translate(-50.6857777675,-8.0984129003)"
    />
  
  <line
    x1="47.06072390188477"
    y1="-21.6241383311129"
    x2="27.15634861861959"
    y2="2.134236295372569"
    stroke="hsla(0,50%,50%,0.6)"
    stroke-width="1"
    transform="translate(-50.6857777675,-8.0984129003)"
    />
  
  <line
    x1="47.37494868080468"
    y1="-3.8568308131542812"
    x2="32.04728731692511"
    y2="26.35324928857465"
    stroke="hsla(0,50%,50%,0.6)"
    stroke-width="1"
    transform="translate(-50.6857777675,-8.0984129003)"
    />
  
  <line
    x1="47.37494868080468"
    y1="-3.8568308131542812"
    x2="41.1764705882353"
    y2="0"
    stroke="hsla(0,50%,50%,0.6)"
    stroke-width="1"
    transform="translate(-50.6857777675,-8.0984129003)"
    />
  
  <line
    x1="53.05525260309511"
    y1="-7.496556117451851"
    x2="41.355572168803725"
    y2="0.6268555319895199"
    stroke="hsla(0,50%,50%,0.6)"
    stroke-width="1"
    transform="translate(-50.6857777675,-8.0984129003)"
    />
  
  <line
    x1="62.169813249498596"
    y1="32.33979961767422"
    x2="67.00489157943923"
    y2="32.56428604834134"
    stroke="hsla(0,50%,50%,0.6)"
    stroke-width="1"
    transform="translate(-50.6857777675,-8.0984129003)"
    />
  
  <line
    x1="61.505874742285364"
    y1="23.84074449843588"
    x2="29.997429048107655"
    y2="27.385794221234697"
    stroke="hsla(0,50%,50%,0.6)"
    stroke-width="1"
    transform="translate(-50.6857777675,-8.0984129003)"
    />
  
  <line
    x1="61.85897435897436"
    y1="27.243589743589745"
    x2="49.18467721536775"
    y2="28.028723194963604"
    stroke="hsla(0,50%,50%,0.6)"
    stroke-width="1"
    transform="translate(-50.6857777675,-8.0984129003)"
    />
  
  <line
    x1="77.49798960596277"
    y1="2.3668138955235225"
    x2="61.85897435897436"
    y2="27.243589743589745"
    stroke="hsla(0,50%,50%,0.6)"
    stroke-width="1"
    transform="translate(-50.6857777675,-8.0984129003)"
    />
  
  <line
    x1="77.49798960596277"
    y1="2.3668138955235225"
    x2="61.505874742285364"
    y2="23.84074449843588"
    stroke="hsla(0,50%,50%,0.6)"
    stroke-width="1"
    transform="translate(-50.6857777675,-8.0984129003)"
    />
  
  <line
    x1="69.94507527248926"
    y1="16.828879592475598"
    x2="54.649599292206496"
    y2="37.82096413180825"
    stroke="hsla(0,50%,50%,0.6)"
    stroke-width="1"
    transform="translate(-50.6857777675,-8.0984129003)"
    />
  
  <line
    x1="69.94507527248926"
    y1="16.828879592475598"
    x2="49.18467721536775"
    y2="28.028723194963604"
    stroke="hsla(0,50%,50%,0.6)"
    stroke-width="1"
    transform="translate(-50.6857777675,-8.0984129003)"
    />
  
</svg>
