<?xml version="1.0"?>
<!DOCTYPE svg PUBLIC "-//W3C//DTD SVG 1.1//EN"
  "http://www.w3.org/Graphics/SVG/1.1/DTD/svg11.dtd">
<svg
  width="240"
  height="240"
  viewBox="-500 -500 1000 1000" xmlns="http://www.w3.org/2000/svg" version="1.1">
  <rect
    x="0"
    y="0"
    width="100"
    height="100"
    fill="hsla(206,100%,53%,0.3)"
    stroke="hsl(206,100%,53%)"
    stroke-width="3"
    transform="" />
  
  <path
    d="M 
      49.6923488920
      -42.9780595558
      L
    
      50.9417944682
      -35.0761276147
      L
    
      64.0900884398
      -29.3071883141
      L
    
      68.5895539761
      42.6842602667
      L
    
      72.0187656407
      43.9762474975
      L
    
      79.4153727155
      57.4038469052
      L
    
      88.0305226504
      61.5471306309
      L
    
      85.0786929329
      67.6848844712
      L
    
      70.1778132482
      68.0964086193
      L
    
      28.2364712749
      29.7706995747
      L
    
      28.7996755335
      25.4058665702
      L
    
      13.9920319793
      0.6077430969
      L
    
      33.5027058596
      -11.0426184569
      L
    
      37.3720435024
      -41.0299851885
      z
    "
    fill="hsla(0,0%,50%,0.3)"
    stroke="hsla(0,0%,50%,1)"
    stroke-width="1"
    transform="translate(-51.0112773148,-12.5591745317)"
    />
  
  
  <line
    x1="37.37204350243136"
    y1="-41.02998518853579"
    x2="64.09008843986295"
    y2="-29.307188314148167"
    stroke="hsla(0,50%,50%,0.6)"
    stroke-width="1"
    transform="translate(-51.0112773148,-12.5591745317)"
    />
  
  <line
    x1="49.692348892044016"
    y1="-42.978059555803455"
    x2="37.37204350243136"
    y2="-41.02998518853579"
    stroke="hsla(0,50%,50%,0.6)"
    stroke-width="1"
    transform="translate(-51.0112773148,-12.5591745317)"
    />
  
  <line
    x1="72.01876564074287"
    y1="43.97624749754035"
    x2="85.07869293292009"
    y2="67.68488447125259"
    stroke="hsla(0,50%,50%,0.6)"
    stroke-width="1"
    transform="translate(-51.0112773148,-12.5591745317)"
    />
  
  <line
    x1="49.692348892044016"
    y1="-42.978059555803455"
    x2="56.487996688741724"
    y2="0"
    stroke="hsla(0,50%,50%,0.6)"
    stroke-width="1"
    transform="translate(-51.0112773148,-12.5591745317)"
    />
  
  <line
    x1="32.077851865200934"
    y1="0"
    x2="63.1050473745304"
    y2="8.142586758003922"
    stroke="hsla(0,50%,50%,0.6)"
    stroke-width="1"
    transform="translate(-51.0112773148,-12.5591745317)"
    />
  
  <line
    x1="13.992031979338591"
    y1="0.6077430969221089"
    x2="35.212533551263206"
    y2="36.145377172108844"
    stroke="hsla(0,50%,50%,0.6)"
    stroke-width="1"
    transform="translate(-51.0112773148,-12.5591745317)"
    />
  
  <line
    x1="64.09008843986295"
    y1="-29.307188314148167"
    x2="70.17781324820432"
    y2="68.09640861931365"
    stroke="hsla(0,50%,50%,0.6)"
    stroke-width="1"
    transform="translate(-51.0112773148,-12.5591745317)"
    />
  
  <line
    x1="32.077851865200934"
    y1="0"
    x2="56.487996688741724"
    y2="0"
    stroke="hsla(0,50%,50%,0.6)"
    stroke-width="1"
    transform="translate(-51.0112773148,-12.5591745317)"
    />
  
  <line
    x1="28.236471274910365"
    y1="29.770699574751937"
    x2="70.17781324820432"
    y2="68.09640861931365"
    stroke="hsla(0,50%,50%,0.6)"
    stroke-width="1"
    transform="translate(-51.0112773148,-12.5591745317)"
    />
  
  <line
    x1="37.37204350243136"
    y1="-41.02998518853579"
    x2="28.236471274910365"
    y2="29.770699574751937"
    stroke="hsla(0,50%,50%,0.6)"
    stroke-width="1"
    transform="translate(-51.0112773148,-12.5591745317)"
    />
  
  <line
    x1="64.09008843986295"
    y1="-29.307188314148167"
    x2="13.992031979338591"
    y2="0.6077430969221089"
    stroke="hsla(0,50%,50%,0.6)"
    stroke-width="1"
    transform="translate(-51.0112773148,-12.5591745317)"
    />
  
  <line
    x1="32.06147590813037"
    y1="28.921968799595348"
    x2="72.01876564074287"
    y2="43.97624749754035"
    stroke="hsla(0,50%,50%,0.6)"
    stroke-width="1"
    transform="translate(-51.0112773148,-12.5591745317)"
    />
  
  <line
    x1="35.212533551263206"
    y1="36.145377172108844"
    x2="88.03052265043878"
    y2="61.54713063094465"
    stroke="hsla(0,50%,50%,0.6)"
    stroke-width="1"
    transform="translate(-51.0112773148,-12.5591745317)"
    />
  
  <line
    x1="63.1050473745304"
    y1="8.142586758003922"
    x2="51.782515382160426"
    y2="51.28691229344596"
    stroke="hsla(0,50%,50%,0.6)"
    stroke-width="1"
    transform="translate(-51.0112773148,-12.5591745317)"
    />
  
  <line
    x1="56.487996688741724"
    y1="0"
    x2="29.819189156028738"
    y2="31.216976259222175"
    stroke="hsla(0,50%,50%,0.6)"
    stroke-width="1"
    transform="translate(-51.0112773148,-12.5591745317)"
    />
  
  <line
    x1="32.06147590813037"
    y1="28.921968799595348"
    x2="29.819189156028738"
    y2="31.216976259222175"
    stroke="hsla(0,50%,50%,0.6)"
    stroke-width="1"
    transform="translate(-51.0112773148,-12.5591745317)"
    />
  
  <line
    x1="32.06147590813037"
    y1="28.921968799595348"
    x2="28.236471274910365"
    y2="29.770699574751937"
    stroke="hsla(0,50%,50%,0.6)"
    stroke-width="1"
    transform="translate(-51.0112773148,-12.5591745317)"
    />
  
  <line
    x1="88.03052265043878"
    y1="61.54713063094465"
    x2="85.07869293292009"
    y2="67.68488447125259"
    stroke="hsla(0,50%,50%,0.6)"
    stroke-width="1"
    transform="translate(-51.0112773148,-12.5591745317)"
    />
  
  <line
    x1="72.01876564074287"
    y1="43.97624749754035"
    x2="51.782515382160426"
    y2="51.28691229344596"
    stroke="hsla(0,50%,50%,0.6)"
    stroke-width="1"
    transform="translate(-51.0112773148,-12.5591745317)"
    />
  
  <line
    x1="85.07869293292009"
    y1="67.68488447125259"
    x2="70.17781324820432"
    y2="68.09640861931365"
    stroke="hsla(0,50%,50%,0.6)"
    stroke-width="1"
    transform="translate(-51.0112773148,-12.5591745317)"
    />
  
</svg>
