<?xml version="1.0"?>
<!DOCTYPE svg PUBLIC "-//W3C//DTD SVG 1.1//EN"
  "http://www.w3.org/Graphics/SVG/1.1/DTD/svg11.dtd">
<svg
  width="240"
  height="240"
  viewBox="-50 -50 200 200" xmlns="http://www.w3.org/2000/svg" version="1.1">
  <rect
    x="0"
    y="0"
    width="100"
    height="100"
    fill="hsla(206,100%,53%,0.3)"
    stroke="hsl(206,100%,53%)"
    stroke-width="3"
    transform="" />
  
  <path
    d="M 
      78.5040474061
      -92.5102807752
      L
    
      80.7952886966
      -85.6515589292
      L
    
      83.8192414164
      -41.0557372915
      L
    
      65.7998113022
      -39.0381844481
      L
    
      65.2000998427
      -40.6105122300
      L
    
      28.7806087455
      -39.7396412448
      L
    
      -7.7519249032
      -63.6954010144
      L
    
      -8.5443588551
      -72.7189879210
      L
    
      6.8598688914
      -74.0717574124
      L
    
      9.7153564244
      -86.3237671694
      L
    
      39.3264602805
      -79.4225207962
      z
    "
    fill="hsla(0,0%,50%,0.3)"
    stroke="hsla(0,0%,50%,1)"
    stroke-width="1"
    transform="translate(-23.7086612945,78.4314574815) scale(1,-1) translate(50,-110)"
    />
  
  
  <line
    x1="9.71535642442501"
    y1="-86.3237671694393"
    x2="81.8903260051436"
    y2="-69.5024676503431"
    stroke="hsla(0,50%,50%,0.6)"
    stroke-width="1"
    transform="translate(-23.7086612945,78.4314574815) scale(1,-1) translate(50,-110)"
    />
  
  <line
    x1="14.550273078277757"
    y1="-74.74711383610556"
    x2="-8.544358855148921"
    y2="-72.71898792108675"
    stroke="hsla(0,50%,50%,0.6)"
    stroke-width="1"
    transform="translate(-23.7086612945,78.4314574815) scale(1,-1) translate(50,-110)"
    />
  
  <line
    x1="17.446351835073866"
    y1="-67.62258774820337"
    x2="3.539245700618873"
    y2="-65.75899614919695"
    stroke="hsla(0,50%,50%,0.6)"
    stroke-width="1"
    transform="translate(-23.7086612945,78.4314574815) scale(1,-1) translate(50,-110)"
    />
  
  <line
    x1="78.50404740619071"
    y1="-92.51028077529173"
    x2="-7.751924903201649"
    y2="-63.69540101445067"
    stroke="hsla(0,50%,50%,0.6)"
    stroke-width="1"
    transform="translate(-23.7086612945,78.4314574815) scale(1,-1) translate(50,-110)"
    />
  
  <line
    x1="83.03546936751934"
    y1="-52.61443603396207"
    x2="9.270254638980582"
    y2="-52.5333160687574"
    stroke="hsla(0,50%,50%,0.6)"
    stroke-width="1"
    transform="translate(-23.7086612945,78.4314574815) scale(1,-1) translate(50,-110)"
    />
  
  <line
    x1="-7.751924903201649"
    y1="-63.69540101445067"
    x2="28.780608745508186"
    y2="-39.73964124480487"
    stroke="hsla(0,50%,50%,0.6)"
    stroke-width="1"
    transform="translate(-23.7086612945,78.4314574815) scale(1,-1) translate(50,-110)"
    />
  
  <line
    x1="83.03546936751934"
    y1="-52.61443603396207"
    x2="67.43205299825128"
    y2="-50.50606421049109"
    stroke="hsla(0,50%,50%,0.6)"
    stroke-width="1"
    transform="translate(-23.7086612945,78.4314574815) scale(1,-1) translate(50,-110)"
    />
  
  <line
    x1="83.81924141645962"
    y1="-41.05573729158063"
    x2="28.780608745508186"
    y2="-39.73964124480487"
    stroke="hsla(0,50%,50%,0.6)"
    stroke-width="1"
    transform="translate(-23.7086612945,78.4314574815) scale(1,-1) translate(50,-110)"
    />
  
  <line
    x1="14.550273078277757"
    y1="-74.74711383610556"
    x2="3.539245700618873"
    y2="-65.75899614919695"
    stroke="hsla(0,50%,50%,0.6)"
    stroke-width="1"
    transform="translate(-23.7086612945,78.4314574815) scale(1,-1) translate(50,-110)"
    />
  
  <line
    x1="17.446351835073866"
    y1="-67.62258774820337"
    x2="2.8250654722092596"
    y2="-56.75966962073859"
    stroke="hsla(0,50%,50%,0.6)"
    stroke-width="1"
    transform="translate(-23.7086612945,78.4314574815) scale(1,-1) translate(50,-110)"
    />
  
  <line
    x1="81.8903260051436"
    y1="-69.5024676503431"
    x2="57.6994821251478"
    y2="-60.275685260507416"
    stroke="hsla(0,50%,50%,0.6)"
    stroke-width="1"
    transform="translate(-23.7086612945,78.4314574815) scale(1,-1) translate(50,-110)"
    />
  
  <line
    x1="78.50404740619071"
    y1="-92.51028077529173"
    x2="80.79528869668022"
    y2="-85.65155892925512"
    stroke="hsla(0,50%,50%,0.6)"
    stroke-width="1"
    transform="translate(-23.7086612945,78.4314574815) scale(1,-1) translate(50,-110)"
    />
  
  <line
    x1="67.43205299825128"
    y1="-50.50606421049109"
    x2="72.10930759632323"
    y2="-39.74462977456881"
    stroke="hsla(0,50%,50%,0.6)"
    stroke-width="1"
    transform="translate(-23.7086612945,78.4314574815) scale(1,-1) translate(50,-110)"
    />
  
  <line
    x1="83.81924141645962"
    y1="-41.05573729158063"
    x2="65.79981130223318"
    y2="-39.03818444816444"
    stroke="hsla(0,50%,50%,0.6)"
    stroke-width="1"
    transform="translate(-23.7086612945,78.4314574815) scale(1,-1) translate(50,-110)"
    />
  
  <line
    x1="57.6994821251478"
    y1="-60.275685260507416"
    x2="65.79981130223318"
    y2="-39.03818444816444"
    stroke="hsla(0,50%,50%,0.6)"
    stroke-width="1"
    transform="translate(-23.7086612945,78.4314574815) scale(1,-1) translate(50,-110)"
    />
  
  <line
    x1="14.550273078277757"
    y1="-74.74711383610556"
    x2="28.780608745508186"
    y2="-39.73964124480487"
    stroke="hsla(0,50%,50%,0.6)"
    stroke-width="1"
    transform="translate(-23.7086612945,78.4314574815) scale(1,-1) translate(50,-110)"
    />
  
  <line
    x1="3.539245700618873"
    y1="-65.75899614919695"
    x2="9.270254638980582"
    y2="-52.5333160687574"
    stroke="hsla(0,50%,50%,0.6)"
    stroke-width="1"
    transform="translate(-23.7086612945,78.4314574815) scale(1,-1) translate(50,-110)"
    />
  
  <line
    x1="80.79528869668022"
    y1="-85.65155892925512"
    x2="83.81924141645962"
    y2="-41.05573729158063"
    stroke="hsla(0,50%,50%,0.6)"
    stroke-width="1"
    transform="translate(-23.7086612945,78.4314574815) scale(1,-1) translate(50,-110)"
    />
  
  <line
    x1="9.71535642442501"
    y1="-86.3237671694393"
    x2="2.8250654722092596"
    y2="-56.75966962073859"
    stroke="hsla(0,50%,50%,0.6)"
    stroke-width="1"
    transform="translate(-23.7086612945,78.4314574815) scale(1,-1) translate(50,-110)"
    />
  
  <line
    x1="-8.544358855148921"
    y1="-72.71898792108675"
    x2="-7.751924903201649"
    y2="-63.69540101445067"
    stroke="hsla(0,50%,50%,0.6)"
    stroke-width="1"
    transform="translate(-23.7086612945,78.4314574815) scale(1,-1) translate(50,-110)"
    />
  
  <line
    x1="67.43205299825128"
    y1="-50.50606421049109"
    x2="65.79981130223318"
    y2="-39.03818444816444"
    stroke="hsla(0,50%,50%,0.6)"
    stroke-width="1"
    transform="translate(-23.7086612945,78.4314574815) scale(1,-1) translate(50,-110)"
    />
  
  <line
    x1="80.79528869668022"
    y1="-85.65155892925512"
    x2="72.10930759632323"
    y2="-39.74462977456881"
    stroke="hsla(0,50%,50%,0.6)"
    stroke-width="1"
    transform="translate(-23.7086612945,78.4314574815) scale(1,-1) translate(50,-110)"
    />
  
</svg>
