<?xml version="1.0"?>
<!DOCTYPE svg PUBLIC "-//W3C//DTD SVG 1.1//EN"
  "http://www.w3.org/Graphics/SVG/1.1/DTD/svg11.dtd">
<svg
  width="240"
  height="240"
  viewBox="-500 -500 1000 1000" xmlns="http://www.w3.org/2000/svg" version="1.1">
  <rect
    x="0"
    y="0"
    width="100"
    height="100"
    fill="hsla(206,100%,53%,0.3)"
    stroke="hsl(206,100%,53%)"
    stroke-width="3"
    transform="" />
  
  <path
    d="M 
      -86.8633952254
      -109.5623342175
      L
    
      -76.2798408488
      -102.9111405835
      L
    
      -78.9403183023
      -98.6777188328
      L
    
      -75.0095622609
      -95.5875478113
      L
    
      -102.5719355457
      -60.5276871922
      L
    
      -116.3186813186
      -62.6923076923
      L
    
      -121.1538461538
      -81.7307692307
      L
    
      -110.6089743589
      -99.4551282051
      L
    
      -100.6477732793
      -102.5506072874
      L
    
      -99.7307692307
      -100.0683760683
      L
    
      -97.1730769230
      -100.7179487179
      L
    
      -95.4140162721
      -95.9563609467
      z
    "
    fill="hsla(0,0%,50%,0.3)"
    stroke="hsla(0,0%,50%,1)"
    stroke-width="1"
    transform="translate(101.2725069619,83.8309334019)"
    />
  
  <path
    d="M 
      -101.1634615384
      -86.8076923076
      L
    
      -107.7631578947
      -85.1315789473
      L
    
      -106.4308910087
      -78.4260198903
      z
    "
    fill="hsla(0,0%,50%,0.3)"
    stroke="hsla(0,0%,50%,1)"
    stroke-width="1"
    transform="translate(101.2725069619,83.8309334019)"
    />
  
  
  <line
    x1="-100.64777327935222"
    y1="-102.5506072874494"
    x2="-110.60897435897436"
    y2="-99.4551282051282"
    stroke="hsla(0,50%,50%,0.6)"
    stroke-width="1"
    transform="translate(101.2725069619,83.8309334019)"
    />
  
  <line
    x1="-97.17307692307692"
    y1="-100.71794871794872"
    x2="-112.11538461538461"
    y2="-96.92307692307692"
    stroke="hsla(0,50%,50%,0.6)"
    stroke-width="1"
    transform="translate(101.2725069619,83.8309334019)"
    />
  
  <line
    x1="-93.82065448363791"
    y1="-95.86910327241819"
    x2="-114.52261306532664"
    y2="-92.87688442211055"
    stroke="hsla(0,50%,50%,0.6)"
    stroke-width="1"
    transform="translate(101.2725069619,83.8309334019)"
    />
  
  <line
    x1="-92.8173076923077"
    y1="-88.92735042735043"
    x2="-121.15384615384616"
    y2="-81.73076923076923"
    stroke="hsla(0,50%,50%,0.6)"
    stroke-width="1"
    transform="translate(101.2725069619,83.8309334019)"
    />
  
  <line
    x1="-110.60897435897436"
    y1="-99.4551282051282"
    x2="-121.15384615384616"
    y2="-81.73076923076923"
    stroke="hsla(0,50%,50%,0.6)"
    stroke-width="1"
    transform="translate(101.2725069619,83.8309334019)"
    />
  
  <line
    x1="-75.00956226094348"
    y1="-95.58754781130472"
    x2="-102.571935545751"
    y2="-60.52768719227572"
    stroke="hsla(0,50%,50%,0.6)"
    stroke-width="1"
    transform="translate(101.2725069619,83.8309334019)"
    />
  
  <line
    x1="-86.86339522546419"
    y1="-109.56233421750663"
    x2="-116.31868131868131"
    y2="-62.69230769230769"
    stroke="hsla(0,50%,50%,0.6)"
    stroke-width="1"
    transform="translate(101.2725069619,83.8309334019)"
    />
  
  <line
    x1="-76.27984084880637"
    y1="-102.91114058355437"
    x2="-102.88461538461539"
    y2="-60.57692307692308"
    stroke="hsla(0,50%,50%,0.6)"
    stroke-width="1"
    transform="translate(101.2725069619,83.8309334019)"
    />
  
  <line
    x1="-78.5079575596817"
    y1="-104.31139187491274"
    x2="-102.88461538461539"
    y2="-60.57692307692308"
    stroke="hsla(0,50%,50%,0.6)"
    stroke-width="1"
    transform="translate(101.2725069619,83.8309334019)"
    />
  
  <line
    x1="-87.41766136162688"
    y1="-108.68037135278514"
    x2="-78.5079575596817"
    y2="-104.31139187491274"
    stroke="hsla(0,50%,50%,0.6)"
    stroke-width="1"
    transform="translate(101.2725069619,83.8309334019)"
    />
  
  <line
    x1="-88.8218022399057"
    y1="-106.44606542882406"
    x2="-77.53617742410846"
    y2="-100.91202475685235"
    stroke="hsla(0,50%,50%,0.6)"
    stroke-width="1"
    transform="translate(101.2725069619,83.8309334019)"
    />
  
  <line
    x1="-116.31868131868131"
    y1="-62.69230769230769"
    x2="-102.571935545751"
    y2="-60.52768719227572"
    stroke="hsla(0,50%,50%,0.6)"
    stroke-width="1"
    transform="translate(101.2725069619,83.8309334019)"
    />
  
  <line
    x1="-86.86339522546419"
    y1="-109.56233421750663"
    x2="-76.27984084880637"
    y2="-102.91114058355437"
    stroke="hsla(0,50%,50%,0.6)"
    stroke-width="1"
    transform="translate(101.2725069619,83.8309334019)"
    />
  
  <line
    x1="-87.41766136162688"
    y1="-108.68037135278514"
    x2="-77.53617742410846"
    y2="-100.91202475685235"
    stroke="hsla(0,50%,50%,0.6)"
    stroke-width="1"
    transform="translate(101.2725069619,83.8309334019)"
    />
  
  <line
    x1="-88.8218022399057"
    y1="-106.44606542882406"
    x2="-75.00956226094348"
    y2="-95.58754781130472"
    stroke="hsla(0,50%,50%,0.6)"
    stroke-width="1"
    transform="translate(101.2725069619,83.8309334019)"
    />
  
  <line
    x1="-93.82065448363791"
    y1="-95.86910327241819"
    x2="-92.8173076923077"
    y2="-88.92735042735043"
    stroke="hsla(0,50%,50%,0.6)"
    stroke-width="1"
    transform="translate(101.2725069619,83.8309334019)"
    />
  
  <line
    x1="-97.17307692307692"
    y1="-100.71794871794872"
    x2="-95.375"
    y2="-88.27777777777777"
    stroke="hsla(0,50%,50%,0.6)"
    stroke-width="1"
    transform="translate(101.2725069619,83.8309334019)"
    />
  
  <line
    x1="-110.60897435897436"
    y1="-99.4551282051282"
    x2="-102.88461538461539"
    y2="-60.57692307692308"
    stroke="hsla(0,50%,50%,0.6)"
    stroke-width="1"
    transform="translate(101.2725069619,83.8309334019)"
    />
  
  <line
    x1="-100.64777327935222"
    y1="-102.5506072874494"
    x2="-96.92307692307692"
    y2="-87.88461538461539"
    stroke="hsla(0,50%,50%,0.6)"
    stroke-width="1"
    transform="translate(101.2725069619,83.8309334019)"
    />
  
  <line
    x1="-97.17307692307692"
    y1="-100.71794871794872"
    x2="-92.8173076923077"
    y2="-88.92735042735043"
    stroke="hsla(0,50%,50%,0.6)"
    stroke-width="1"
    transform="translate(101.2725069619,83.8309334019)"
    />
  
  <line
    x1="-100.64777327935222"
    y1="-102.5506072874494"
    x2="-95.375"
    y2="-88.27777777777777"
    stroke="hsla(0,50%,50%,0.6)"
    stroke-width="1"
    transform="translate(101.2725069619,83.8309334019)"
    />
  
  <line
    x1="-112.11538461538461"
    y1="-96.92307692307692"
    x2="-102.88461538461539"
    y2="-60.57692307692308"
    stroke="hsla(0,50%,50%,0.6)"
    stroke-width="1"
    transform="translate(101.2725069619,83.8309334019)"
    />
  
  <line
    x1="-121.15384615384616"
    y1="-81.73076923076923"
    x2="-116.31868131868131"
    y2="-62.69230769230769"
    stroke="hsla(0,50%,50%,0.6)"
    stroke-width="1"
    transform="translate(101.2725069619,83.8309334019)"
    />
  
  <line
    x1="-114.52261306532664"
    y1="-92.87688442211055"
    x2="-102.571935545751"
    y2="-60.52768719227572"
    stroke="hsla(0,50%,50%,0.6)"
    stroke-width="1"
    transform="translate(101.2725069619,83.8309334019)"
    />
  
</svg>
