<?xml version="1.0"?>
<!DOCTYPE svg PUBLIC "-//W3C//DTD SVG 1.1//EN"
  "http://www.w3.org/Graphics/SVG/1.1/DTD/svg11.dtd">
<svg
  width="240"
  height="240"
  viewBox="-50 -50 200 200" xmlns="http://www.w3.org/2000/svg" version="1.1">
  <rect
    x="0"
    y="0"
    width="100"
    height="100"
    fill="hsla(206,100%,53%,0.3)"
    stroke="hsl(206,100%,53%)"
    stroke-width="3"
    transform="" />
  
  <path
    d="M 
      -16.2882608849
      -32.0698585579
      L
    
      -11.3708850342
      -28.5843350860
      L
    
      9.3914490575
      -25.5717786557
      L
    
      11.5890797318
      -12.3099036541
      L
    
      12.6699274470
      -11.5437795678
      L
    
      15.8408330038
      13.3478290530
      L
    
      -67.9170824511
      25.6180969222
      L
    
      -68.9769244692
      21.5257228623
      L
    
      -68.0793912496
      21.2932799319
      L
    
      -68.3469427141
      14.1642078797
      L
    
      -38.1014909447
      -1.2957577418
      z
    "
    fill="hsla(0,0%,50%,0.3)"
    stroke="hsla(0,0%,50%,1)"
    stroke-width="1"
    transform="translate(50.6977732072,-7.6618672970) scale(1,-1) translate(50,-110)"
    />
  
  
  <line
    x1="-13.335505847627697"
    y1="-28.869396054522564"
    x2="9.391449057564495"
    y2="-25.57177865573779"
    stroke="hsla(0,50%,50%,0.6)"
    stroke-width="1"
    transform="translate(50.6977732072,-7.6618672970) scale(1,-1) translate(50,-110)"
    />
  
  <line
    x1="-16.2882608849849"
    y1="-32.069858557946795"
    x2="-55.93421424218837"
    y2="23.862644891616366"
    stroke="hsla(0,50%,50%,0.6)"
    stroke-width="1"
    transform="translate(50.6977732072,-7.6618672970) scale(1,-1) translate(50,-110)"
    />
  
  <line
    x1="9.391449057564495"
    y1="-25.57177865573779"
    x2="-68.346942714195"
    y2="14.164207879775091"
    stroke="hsla(0,50%,50%,0.6)"
    stroke-width="1"
    transform="translate(50.6977732072,-7.6618672970) scale(1,-1) translate(50,-110)"
    />
  
  <line
    x1="-13.335505847627697"
    y1="-28.869396054522564"
    x2="-34.04451222955533"
    y2="2.8009089548165376"
    stroke="hsla(0,50%,50%,0.6)"
    stroke-width="1"
    transform="translate(50.6977732072,-7.6618672970) scale(1,-1) translate(50,-110)"
    />
  
  <line
    x1="-16.2882608849849"
    y1="-32.069858557946795"
    x2="12.669927447040527"
    y2="-11.543779567832143"
    stroke="hsla(0,50%,50%,0.6)"
    stroke-width="1"
    transform="translate(50.6977732072,-7.6618672970) scale(1,-1) translate(50,-110)"
    />
  
  <line
    x1="9.391449057564495"
    y1="-25.57177865573779"
    x2="15.84083300383781"
    y2="13.347829053026542"
    stroke="hsla(0,50%,50%,0.6)"
    stroke-width="1"
    transform="translate(50.6977732072,-7.6618672970) scale(1,-1) translate(50,-110)"
    />
  
  <line
    x1="12.669927447040527"
    y1="-11.543779567832143"
    x2="15.84083300383781"
    y2="13.347829053026542"
    stroke="hsla(0,50%,50%,0.6)"
    stroke-width="1"
    transform="translate(50.6977732072,-7.6618672970) scale(1,-1) translate(50,-110)"
    />
  
  <line
    x1="0"
    y1="0"
    x2="14.140472614917233"
    y2="0"
    stroke="hsla(0,50%,50%,0.6)"
    stroke-width="1"
    transform="translate(50.6977732072,-7.6618672970) scale(1,-1) translate(50,-110)"
    />
  
  <line
    x1="0"
    y1="0"
    x2="0"
    y2="15.668460639576029"
    stroke="hsla(0,50%,50%,0.6)"
    stroke-width="1"
    transform="translate(50.6977732072,-7.6618672970) scale(1,-1) translate(50,-110)"
    />
  
  <line
    x1="-13.335505847627697"
    y1="-28.869396054522564"
    x2="0"
    y2="15.668460639576029"
    stroke="hsla(0,50%,50%,0.6)"
    stroke-width="1"
    transform="translate(50.6977732072,-7.6618672970) scale(1,-1) translate(50,-110)"
    />
  
  <line
    x1="12.669927447040527"
    y1="-11.543779567832143"
    x2="-11.73669052187488"
    y2="17.387848423035408"
    stroke="hsla(0,50%,50%,0.6)"
    stroke-width="1"
    transform="translate(50.6977732072,-7.6618672970) scale(1,-1) translate(50,-110)"
    />
  
  <line
    x1="-68.346942714195"
    y1="14.164207879775091"
    x2="-67.91708245116106"
    y2="25.618096922230198"
    stroke="hsla(0,50%,50%,0.6)"
    stroke-width="1"
    transform="translate(50.6977732072,-7.6618672970) scale(1,-1) translate(50,-110)"
    />
  
  <line
    x1="14.140472614917233"
    y1="0"
    x2="-68.97692446923271"
    y2="21.525722862322638"
    stroke="hsla(0,50%,50%,0.6)"
    stroke-width="1"
    transform="translate(50.6977732072,-7.6618672970) scale(1,-1) translate(50,-110)"
    />
  
  <line
    x1="15.84083300383781"
    y1="13.347829053026542"
    x2="-67.91708245116106"
    y2="25.618096922230198"
    stroke="hsla(0,50%,50%,0.6)"
    stroke-width="1"
    transform="translate(50.6977732072,-7.6618672970) scale(1,-1) translate(50,-110)"
    />
  
  <line
    x1="-34.04451222955533"
    y1="2.8009089548165376"
    x2="-11.73669052187488"
    y2="17.387848423035408"
    stroke="hsla(0,50%,50%,0.6)"
    stroke-width="1"
    transform="translate(50.6977732072,-7.6618672970) scale(1,-1) translate(50,-110)"
    />
  
  <line
    x1="-68.97692446923271"
    y1="21.525722862322638"
    x2="-67.91708245116106"
    y2="25.618096922230198"
    stroke="hsla(0,50%,50%,0.6)"
    stroke-width="1"
    transform="translate(50.6977732072,-7.6618672970) scale(1,-1) translate(50,-110)"
    />
  
  <line
    x1="-68.346942714195"
    y1="14.164207879775091"
    x2="-55.93421424218837"
    y2="23.862644891616366"
    stroke="hsla(0,50%,50%,0.6)"
    stroke-width="1"
    transform="translate(50.6977732072,-7.6618672970) scale(1,-1) translate(50,-110)"
    />
  
</svg>
