<?xml version="1.0"?>
<!DOCTYPE svg PUBLIC "-//W3C//DTD SVG 1.1//EN"
  "http://www.w3.org/Graphics/SVG/1.1/DTD/svg11.dtd">
<svg
  width="240"
  height="240"
  viewBox="-50 -50 200 200" xmlns="http://www.w3.org/2000/svg" version="1.1">
  <rect
    x="0"
    y="0"
    width="100"
    height="100"
    fill="hsla(206,100%,53%,0.3)"
    stroke="hsl(206,100%,53%)"
    stroke-width="3"
    transform="" />
  
  <path
    d="M 
      78.3990294018
      -103.4091397988
      L
    
      78.4692327446
      -103.0823266713
      L
    
      82.7894227580
      -103.0859619715
      L
    
      167.0367698329
      -9.9704730992
      L
    
      165.3216011337
      -1.7508200948
      L
    
      126.5483598335
      -5.6708189400
      L
    
      102.3623826200
      -3.1023965810
      L
    
      87.5324440734
      -3.0899176672
      L
    
      86.8291196121
      -9.6864588654
      L
    
      73.4830890819
      -11.0357508645
      L
    
      79.9087692096
      -74.5930262476
      L
    
      76.8713780040
      -103.0809821282
      z
    "
    fill="hsla(0,0%,50%,0.3)"
    stroke="hsla(0,0%,50%,1)"
    stroke-width="1"
    transform="translate(-79.4780236546,72.5907668272) scale(1,-1) translate(50,-110)"
    />
  
  
  <line
    x1="82.7894227580221"
    y1="-103.0859619715801"
    x2="76.87137800407858"
    y2="-103.08098212826006"
    stroke="hsla(0,50%,50%,0.6)"
    stroke-width="1"
    transform="translate(-79.4780236546,72.5907668272) scale(1,-1) translate(50,-110)"
    />
  
  <line
    x1="82.7894227580221"
    y1="-103.0859619715801"
    x2="167.03676983296683"
    y2="-9.970473099272779"
    stroke="hsla(0,50%,50%,0.6)"
    stroke-width="1"
    transform="translate(-79.4780236546,72.5907668272) scale(1,-1) translate(50,-110)"
    />
  
  <line
    x1="78.39902940189474"
    y1="-103.40913979882461"
    x2="76.87137800407858"
    y2="-103.08098212826006"
    stroke="hsla(0,50%,50%,0.6)"
    stroke-width="1"
    transform="translate(-79.4780236546,72.5907668272) scale(1,-1) translate(50,-110)"
    />
  
  <line
    x1="157.99656740334967"
    y1="-4.102655886824846"
    x2="165.32160113375923"
    y2="-1.7508200948085269"
    stroke="hsla(0,50%,50%,0.6)"
    stroke-width="1"
    transform="translate(-79.4780236546,72.5907668272) scale(1,-1) translate(50,-110)"
    />
  
  <line
    x1="78.39902940189474"
    y1="-103.40913979882461"
    x2="99.40112031802576"
    y2="-5.6394503385907395"
    stroke="hsla(0,50%,50%,0.6)"
    stroke-width="1"
    transform="translate(-79.4780236546,72.5907668272) scale(1,-1) translate(50,-110)"
    />
  
  <line
    x1="73.48308908192492"
    y1="-11.035750864571504"
    x2="165.32160113375923"
    y2="-1.7508200948085269"
    stroke="hsla(0,50%,50%,0.6)"
    stroke-width="1"
    transform="translate(-79.4780236546,72.5907668272) scale(1,-1) translate(50,-110)"
    />
  
  <line
    x1="76.87137800407858"
    y1="-103.08098212826006"
    x2="87.5324440734541"
    y2="-3.089917667281564"
    stroke="hsla(0,50%,50%,0.6)"
    stroke-width="1"
    transform="translate(-79.4780236546,72.5907668272) scale(1,-1) translate(50,-110)"
    />
  
  <line
    x1="102.3623826200936"
    y1="-3.102396581091552"
    x2="87.5324440734541"
    y2="-3.089917667281564"
    stroke="hsla(0,50%,50%,0.6)"
    stroke-width="1"
    transform="translate(-79.4780236546,72.5907668272) scale(1,-1) translate(50,-110)"
    />
  
  <line
    x1="82.7894227580221"
    y1="-103.0859619715801"
    x2="73.48308908192492"
    y2="-11.035750864571504"
    stroke="hsla(0,50%,50%,0.6)"
    stroke-width="1"
    transform="translate(-79.4780236546,72.5907668272) scale(1,-1) translate(50,-110)"
    />
  
  <line
    x1="167.03676983296683"
    y1="-9.970473099272779"
    x2="102.3623826200936"
    y2="-3.102396581091552"
    stroke="hsla(0,50%,50%,0.6)"
    stroke-width="1"
    transform="translate(-79.4780236546,72.5907668272) scale(1,-1) translate(50,-110)"
    />
  
  <line
    x1="99.40112031802576"
    y1="-5.6394503385907395"
    x2="87.5324440734541"
    y2="-3.089917667281564"
    stroke="hsla(0,50%,50%,0.6)"
    stroke-width="1"
    transform="translate(-79.4780236546,72.5907668272) scale(1,-1) translate(50,-110)"
    />
  
  <line
    x1="161.75489078018893"
    y1="-15.808339420764122"
    x2="102.3623826200936"
    y2="-3.102396581091552"
    stroke="hsla(0,50%,50%,0.6)"
    stroke-width="1"
    transform="translate(-79.4780236546,72.5907668272) scale(1,-1) translate(50,-110)"
    />
  
  <line
    x1="167.03676983296683"
    y1="-9.970473099272779"
    x2="165.32160113375923"
    y2="-1.7508200948085269"
    stroke="hsla(0,50%,50%,0.6)"
    stroke-width="1"
    transform="translate(-79.4780236546,72.5907668272) scale(1,-1) translate(50,-110)"
    />
  
  <line
    x1="161.75489078018893"
    y1="-15.808339420764122"
    x2="157.99656740334967"
    y2="-4.102655886824846"
    stroke="hsla(0,50%,50%,0.6)"
    stroke-width="1"
    transform="translate(-79.4780236546,72.5907668272) scale(1,-1) translate(50,-110)"
    />
  
</svg>
