<?xml version="1.0"?>
<!DOCTYPE svg PUBLIC "-//W3C//DTD SVG 1.1//EN"
  "http://www.w3.org/Graphics/SVG/1.1/DTD/svg11.dtd">
<svg
  width="240"
  height="240"
  viewBox="-50 -50 200 200" xmlns="http://www.w3.org/2000/svg" version="1.1">
  <rect
    x="0"
    y="0"
    width="100"
    height="100"
    fill="hsla(206,100%,53%,0.3)"
    stroke="hsl(206,100%,53%)"
    stroke-width="3"
    transform="" />
  
  <path
    d="M 
      51.6255109284
      -10.0369005917
      L
    
      70.5964686834
      1.8869081520
      L
    
      90.1401514341
      2.6934877043
      L
    
      93.4954510754
      9.5580920532
      L
    
      87.4796712887
      12.4985009587
      L
    
      89.2189203590
      13.5916705045
      L
    
      88.4217202467
      20.3085931157
      L
    
      76.9111347802
      26.1487365021
      L
    
      70.6682953317
      43.3053396853
      L
    
      58.2923562527
      38.8020589443
      L
    
      56.7067551413
      28.2652342238
      L
    
      48.125
      24.7916666666
      L
    
      44.9376928072
      0.8279550251
      L
    
      45.8354308181
      -0.6304868304
      L
    
      43.6576752640
      -4.3223579215
      L
    
      50.1631317964
      -8.1597871670
      L
    
      50.3967347416
      -8.1219255694
      z
    "
    fill="hsla(0,0%,50%,0.3)"
    stroke="hsla(0,0%,50%,1)"
    stroke-width="1"
    transform="translate(-49.1871463947,5.7695555557) scale(1,-1) translate(50,-110)"
    />
  
  
  <line
    x1="78.44715009761654"
    y1="7.955777273381957"
    x2="88.42172024679331"
    y2="20.308593115765547"
    stroke="hsla(0,50%,50%,0.6)"
    stroke-width="1"
    transform="translate(-49.1871463947,5.7695555557) scale(1,-1) translate(50,-110)"
    />
  
  <line
    x1="90.14015143412404"
    y1="2.6934877043302574"
    x2="93.49545107540297"
    y2="9.558092053271924"
    stroke="hsla(0,50%,50%,0.6)"
    stroke-width="1"
    transform="translate(-49.1871463947,5.7695555557) scale(1,-1) translate(50,-110)"
    />
  
  <line
    x1="51.625510928480374"
    y1="-10.036900591765034"
    x2="89.21892035902631"
    y2="13.591670504507407"
    stroke="hsla(0,50%,50%,0.6)"
    stroke-width="1"
    transform="translate(-49.1871463947,5.7695555557) scale(1,-1) translate(50,-110)"
    />
  
  <line
    x1="56.15786784716005"
    y1="-7.188180049815782"
    x2="76.36386775771516"
    y2="21.770947411108413"
    stroke="hsla(0,50%,50%,0.6)"
    stroke-width="1"
    transform="translate(-49.1871463947,5.7695555557) scale(1,-1) translate(50,-110)"
    />
  
  <line
    x1="69.26453841464202"
    y1="11.758118115404939"
    x2="77.63155078251434"
    y2="23.69755618396836"
    stroke="hsla(0,50%,50%,0.6)"
    stroke-width="1"
    transform="translate(-49.1871463947,5.7695555557) scale(1,-1) translate(50,-110)"
    />
  
  <line
    x1="61.55228415966355"
    y1="4.8986270385725765"
    x2="71.05448981048966"
    y2="15.828927228275699"
    stroke="hsla(0,50%,50%,0.6)"
    stroke-width="1"
    transform="translate(-49.1871463947,5.7695555557) scale(1,-1) translate(50,-110)"
    />
  
  <line
    x1="50.163131796457904"
    y1="-8.159787167068554"
    x2="71.05448981048966"
    y2="15.828927228275699"
    stroke="hsla(0,50%,50%,0.6)"
    stroke-width="1"
    transform="translate(-49.1871463947,5.7695555557) scale(1,-1) translate(50,-110)"
    />
  
  <line
    x1="48.60636800450235"
    y1="-5.331744884540247"
    x2="70.1341822076324"
    y2="8.809241440166668"
    stroke="hsla(0,50%,50%,0.6)"
    stroke-width="1"
    transform="translate(-49.1871463947,5.7695555557) scale(1,-1) translate(50,-110)"
    />
  
  <line
    x1="70.17141190983028"
    y1="11.382599445079824"
    x2="80.00437758038107"
    y2="17.647870877092185"
    stroke="hsla(0,50%,50%,0.6)"
    stroke-width="1"
    transform="translate(-49.1871463947,5.7695555557) scale(1,-1) translate(50,-110)"
    />
  
  <line
    x1="44.937692807273905"
    y1="0.8279550251664232"
    x2="68.5450254502852"
    y2="21.75342770471721"
    stroke="hsla(0,50%,50%,0.6)"
    stroke-width="1"
    transform="translate(-49.1871463947,5.7695555557) scale(1,-1) translate(50,-110)"
    />
  
  <line
    x1="61.55228415966355"
    y1="4.8986270385725765"
    x2="83.51807834794928"
    y2="16.251942982872176"
    stroke="hsla(0,50%,50%,0.6)"
    stroke-width="1"
    transform="translate(-49.1871463947,5.7695555557) scale(1,-1) translate(50,-110)"
    />
  
  <line
    x1="43.65767526403954"
    y1="-4.322357921582138"
    x2="59.741338350983455"
    y2="22.943700786143367"
    stroke="hsla(0,50%,50%,0.6)"
    stroke-width="1"
    transform="translate(-49.1871463947,5.7695555557) scale(1,-1) translate(50,-110)"
    />
  
  <line
    x1="55.1050349407594"
    y1="17.621293018176168"
    x2="65.625"
    y2="31.875"
    stroke="hsla(0,50%,50%,0.6)"
    stroke-width="1"
    transform="translate(-49.1871463947,5.7695555557) scale(1,-1) translate(50,-110)"
    />
  
  <line
    x1="48.60636800450235"
    y1="-5.331744884540247"
    x2="57.89577884665265"
    y2="15.853620192039452"
    stroke="hsla(0,50%,50%,0.6)"
    stroke-width="1"
    transform="translate(-49.1871463947,5.7695555557) scale(1,-1) translate(50,-110)"
    />
  
  <line
    x1="56.18137901679201"
    y1="20.518727658032127"
    x2="69.21315288223265"
    y2="32.20452186298233"
    stroke="hsla(0,50%,50%,0.6)"
    stroke-width="1"
    transform="translate(-49.1871463947,5.7695555557) scale(1,-1) translate(50,-110)"
    />
  
  <line
    x1="50.163131796457904"
    y1="-8.159787167068554"
    x2="56.15786784716005"
    y2="-7.188180049815782"
    stroke="hsla(0,50%,50%,0.6)"
    stroke-width="1"
    transform="translate(-49.1871463947,5.7695555557) scale(1,-1) translate(50,-110)"
    />
  
  <line
    x1="82.22391551886875"
    y1="9.19510281649837"
    x2="83.51807834794928"
    y2="16.251942982872176"
    stroke="hsla(0,50%,50%,0.6)"
    stroke-width="1"
    transform="translate(-49.1871463947,5.7695555557) scale(1,-1) translate(50,-110)"
    />
  
  <line
    x1="62.85229249948478"
    y1="14.413304392910627"
    x2="79.98156888388036"
    y2="22.39229500136462"
    stroke="hsla(0,50%,50%,0.6)"
    stroke-width="1"
    transform="translate(-49.1871463947,5.7695555557) scale(1,-1) translate(50,-110)"
    />
  
  <line
    x1="69.26453841464202"
    y1="11.758118115404939"
    x2="71.74905083719882"
    y2="25.8994491156837"
    stroke="hsla(0,50%,50%,0.6)"
    stroke-width="1"
    transform="translate(-49.1871463947,5.7695555557) scale(1,-1) translate(50,-110)"
    />
  
  <line
    x1="78.44715009761654"
    y1="7.955777273381957"
    x2="79.98156888388036"
    y2="22.39229500136462"
    stroke="hsla(0,50%,50%,0.6)"
    stroke-width="1"
    transform="translate(-49.1871463947,5.7695555557) scale(1,-1) translate(50,-110)"
    />
  
  <line
    x1="55.1050349407594"
    y1="17.621293018176168"
    x2="58.29235625270935"
    y2="38.80205894434699"
    stroke="hsla(0,50%,50%,0.6)"
    stroke-width="1"
    transform="translate(-49.1871463947,5.7695555557) scale(1,-1) translate(50,-110)"
    />
  
  <line
    x1="44.937692807273905"
    y1="0.8279550251664232"
    x2="48.125"
    y2="24.791666666666668"
    stroke="hsla(0,50%,50%,0.6)"
    stroke-width="1"
    transform="translate(-49.1871463947,5.7695555557) scale(1,-1) translate(50,-110)"
    />
  
  <line
    x1="54.86896215621703"
    y1="-7.99829544547052"
    x2="56.18137901679201"
    y2="20.518727658032127"
    stroke="hsla(0,50%,50%,0.6)"
    stroke-width="1"
    transform="translate(-49.1871463947,5.7695555557) scale(1,-1) translate(50,-110)"
    />
  
  <line
    x1="57.89577884665265"
    y1="15.853620192039452"
    x2="76.36386775771516"
    y2="21.770947411108413"
    stroke="hsla(0,50%,50%,0.6)"
    stroke-width="1"
    transform="translate(-49.1871463947,5.7695555557) scale(1,-1) translate(50,-110)"
    />
  
  <line
    x1="44.937692807273905"
    y1="0.8279550251664232"
    x2="90.14015143412404"
    y2="2.6934877043302574"
    stroke="hsla(0,50%,50%,0.6)"
    stroke-width="1"
    transform="translate(-49.1871463947,5.7695555557) scale(1,-1) translate(50,-110)"
    />
  
  <line
    x1="50.963596062709165"
    y1="19.336182282191228"
    x2="71.74905083719882"
    y2="25.8994491156837"
    stroke="hsla(0,50%,50%,0.6)"
    stroke-width="1"
    transform="translate(-49.1871463947,5.7695555557) scale(1,-1) translate(50,-110)"
    />
  
  <line
    x1="48.125"
    y1="24.791666666666668"
    x2="65.625"
    y2="31.875"
    stroke="hsla(0,50%,50%,0.6)"
    stroke-width="1"
    transform="translate(-49.1871463947,5.7695555557) scale(1,-1) translate(50,-110)"
    />
  
  <line
    x1="89.21892035902631"
    y1="13.591670504507407"
    x2="88.42172024679331"
    y2="20.308593115765547"
    stroke="hsla(0,50%,50%,0.6)"
    stroke-width="1"
    transform="translate(-49.1871463947,5.7695555557) scale(1,-1) translate(50,-110)"
    />
  
  <line
    x1="54.86896215621703"
    y1="-7.99829544547052"
    x2="48.60636800450235"
    y2="-5.331744884540247"
    stroke="hsla(0,50%,50%,0.6)"
    stroke-width="1"
    transform="translate(-49.1871463947,5.7695555557) scale(1,-1) translate(50,-110)"
    />
  
  <line
    x1="70.17141190983028"
    y1="11.382599445079824"
    x2="65.625"
    y2="31.875"
    stroke="hsla(0,50%,50%,0.6)"
    stroke-width="1"
    transform="translate(-49.1871463947,5.7695555557) scale(1,-1) translate(50,-110)"
    />
  
  <line
    x1="58.29235625270935"
    y1="38.80205894434699"
    x2="70.66829533178309"
    y2="43.30533968530881"
    stroke="hsla(0,50%,50%,0.6)"
    stroke-width="1"
    transform="translate(-49.1871463947,5.7695555557) scale(1,-1) translate(50,-110)"
    />
  
  <line
    x1="50.163131796457904"
    y1="-8.159787167068554"
    x2="43.65767526403954"
    y2="-4.322357921582138"
    stroke="hsla(0,50%,50%,0.6)"
    stroke-width="1"
    transform="translate(-49.1871463947,5.7695555557) scale(1,-1) translate(50,-110)"
    />
  
  <line
    x1="51.625510928480374"
    y1="-10.036900591765034"
    x2="44.937692807273905"
    y2="0.8279550251664232"
    stroke="hsla(0,50%,50%,0.6)"
    stroke-width="1"
    transform="translate(-49.1871463947,5.7695555557) scale(1,-1) translate(50,-110)"
    />
  
  <line
    x1="51.625510928480374"
    y1="-10.036900591765034"
    x2="48.60636800450235"
    y2="-5.331744884540247"
    stroke="hsla(0,50%,50%,0.6)"
    stroke-width="1"
    transform="translate(-49.1871463947,5.7695555557) scale(1,-1) translate(50,-110)"
    />
  
  <line
    x1="80.16548940629718"
    y1="7.901321047723724"
    x2="76.36386775771516"
    y2="21.770947411108413"
    stroke="hsla(0,50%,50%,0.6)"
    stroke-width="1"
    transform="translate(-49.1871463947,5.7695555557) scale(1,-1) translate(50,-110)"
    />
  
  <line
    x1="62.85229249948478"
    y1="14.413304392910627"
    x2="59.741338350983455"
    y2="22.943700786143367"
    stroke="hsla(0,50%,50%,0.6)"
    stroke-width="1"
    transform="translate(-49.1871463947,5.7695555557) scale(1,-1) translate(50,-110)"
    />
  
  <line
    x1="74.57705797144214"
    y1="4.388826398387033"
    x2="68.5450254502852"
    y2="21.75342770471721"
    stroke="hsla(0,50%,50%,0.6)"
    stroke-width="1"
    transform="translate(-49.1871463947,5.7695555557) scale(1,-1) translate(50,-110)"
    />
  
  <line
    x1="50.963596062709165"
    y1="19.336182282191228"
    x2="48.125"
    y2="24.791666666666668"
    stroke="hsla(0,50%,50%,0.6)"
    stroke-width="1"
    transform="translate(-49.1871463947,5.7695555557) scale(1,-1) translate(50,-110)"
    />
  
  <line
    x1="72.40729741798323"
    y1="3.025067636521871"
    x2="70.1341822076324"
    y2="8.809241440166668"
    stroke="hsla(0,50%,50%,0.6)"
    stroke-width="1"
    transform="translate(-49.1871463947,5.7695555557) scale(1,-1) translate(50,-110)"
    />
  
  <line
    x1="66.12713893053079"
    y1="-0.9221979497714549"
    x2="57.89577884665265"
    y2="15.853620192039452"
    stroke="hsla(0,50%,50%,0.6)"
    stroke-width="1"
    transform="translate(-49.1871463947,5.7695555557) scale(1,-1) translate(50,-110)"
    />
  
  <line
    x1="77.63155078251434"
    y1="23.69755618396836"
    x2="48.125"
    y2="24.791666666666668"
    stroke="hsla(0,50%,50%,0.6)"
    stroke-width="1"
    transform="translate(-49.1871463947,5.7695555557) scale(1,-1) translate(50,-110)"
    />
  
  <line
    x1="80.00437758038107"
    y1="17.647870877092185"
    x2="70.66829533178309"
    y2="43.30533968530881"
    stroke="hsla(0,50%,50%,0.6)"
    stroke-width="1"
    transform="translate(-49.1871463947,5.7695555557) scale(1,-1) translate(50,-110)"
    />
  
  <line
    x1="88.42172024679331"
    y1="20.308593115765547"
    x2="59.741338350983455"
    y2="22.943700786143367"
    stroke="hsla(0,50%,50%,0.6)"
    stroke-width="1"
    transform="translate(-49.1871463947,5.7695555557) scale(1,-1) translate(50,-110)"
    />
  
  <line
    x1="82.22391551886875"
    y1="9.19510281649837"
    x2="57.89577884665265"
    y2="15.853620192039452"
    stroke="hsla(0,50%,50%,0.6)"
    stroke-width="1"
    transform="translate(-49.1871463947,5.7695555557) scale(1,-1) translate(50,-110)"
    />
  
  <line
    x1="66.12713893053079"
    y1="-0.9221979497714549"
    x2="61.55228415966355"
    y2="4.8986270385725765"
    stroke="hsla(0,50%,50%,0.6)"
    stroke-width="1"
    transform="translate(-49.1871463947,5.7695555557) scale(1,-1) translate(50,-110)"
    />
  
  <line
    x1="78.44715009761654"
    y1="7.955777273381957"
    x2="50.963596062709165"
    y2="19.336182282191228"
    stroke="hsla(0,50%,50%,0.6)"
    stroke-width="1"
    transform="translate(-49.1871463947,5.7695555557) scale(1,-1) translate(50,-110)"
    />
  
  <line
    x1="72.40729741798323"
    y1="3.025067636521871"
    x2="56.18137901679201"
    y2="20.518727658032127"
    stroke="hsla(0,50%,50%,0.6)"
    stroke-width="1"
    transform="translate(-49.1871463947,5.7695555557) scale(1,-1) translate(50,-110)"
    />
  
  <line
    x1="74.57705797144214"
    y1="4.388826398387033"
    x2="70.1341822076324"
    y2="8.809241440166668"
    stroke="hsla(0,50%,50%,0.6)"
    stroke-width="1"
    transform="translate(-49.1871463947,5.7695555557) scale(1,-1) translate(50,-110)"
    />
  
  <line
    x1="90.14015143412404"
    y1="2.6934877043302574"
    x2="77.63155078251434"
    y2="23.69755618396836"
    stroke="hsla(0,50%,50%,0.6)"
    stroke-width="1"
    transform="translate(-49.1871463947,5.7695555557) scale(1,-1) translate(50,-110)"
    />
  
  <line
    x1="80.16548940629718"
    y1="7.901321047723724"
    x2="71.05448981048966"
    y2="15.828927228275699"
    stroke="hsla(0,50%,50%,0.6)"
    stroke-width="1"
    transform="translate(-49.1871463947,5.7695555557) scale(1,-1) translate(50,-110)"
    />
  
  <line
    x1="93.49545107540297"
    y1="9.558092053271924"
    x2="68.5450254502852"
    y2="21.75342770471721"
    stroke="hsla(0,50%,50%,0.6)"
    stroke-width="1"
    transform="translate(-49.1871463947,5.7695555557) scale(1,-1) translate(50,-110)"
    />
  
  <line
    x1="83.51807834794928"
    y1="16.251942982872176"
    x2="69.21315288223265"
    y2="32.20452186298233"
    stroke="hsla(0,50%,50%,0.6)"
    stroke-width="1"
    transform="translate(-49.1871463947,5.7695555557) scale(1,-1) translate(50,-110)"
    />
  
  <line
    x1="80.00437758038107"
    y1="17.647870877092185"
    x2="71.74905083719882"
    y2="25.8994491156837"
    stroke="hsla(0,50%,50%,0.6)"
    stroke-width="1"
    transform="translate(-49.1871463947,5.7695555557) scale(1,-1) translate(50,-110)"
    />
  
  <line
    x1="89.21892035902631"
    y1="13.591670504507407"
    x2="76.36386775771516"
    y2="21.770947411108413"
    stroke="hsla(0,50%,50%,0.6)"
    stroke-width="1"
    transform="translate(-49.1871463947,5.7695555557) scale(1,-1) translate(50,-110)"
    />
  
  <line
    x1="88.42172024679331"
    y1="20.308593115765547"
    x2="65.625"
    y2="31.875"
    stroke="hsla(0,50%,50%,0.6)"
    stroke-width="1"
    transform="translate(-49.1871463947,5.7695555557) scale(1,-1) translate(50,-110)"
    />
  
  <line
    x1="79.98156888388036"
    y1="22.39229500136462"
    x2="58.29235625270935"
    y2="38.80205894434699"
    stroke="hsla(0,50%,50%,0.6)"
    stroke-width="1"
    transform="translate(-49.1871463947,5.7695555557) scale(1,-1) translate(50,-110)"
    />
  
</svg>
