<?xml version="1.0"?>
<!DOCTYPE svg PUBLIC "-//W3C//DTD SVG 1.1//EN"
  "http://www.w3.org/Graphics/SVG/1.1/DTD/svg11.dtd">
<svg
  width="240"
  height="240"
  viewBox="-50 -50 200 200" xmlns="http://www.w3.org/2000/svg" version="1.1">
  <rect
    x="0"
    y="0"
    width="100"
    height="100"
    fill="hsla(206,100%,53%,0.3)"
    stroke="hsl(206,100%,53%)"
    stroke-width="3"
    transform="" />
  
  <path
    d="M 
      29.1119681469
      93.5538016663
      L
    
      39.5158532612
      96.1140932309
      L
    
      30.3079995763
      139.4080155364
      L
    
      17.5936883629
      137.3307034845
      L
    
      19.2543674274
      126.0434864281
      L
    
      19.8543731561
      118.7969373450
      L
    
      -4.3096646942
      114.4543063773
      L
    
      -2.6923076923
      103.4615384615
      L
    
      -1.9936500593
      103.5643313907
      L
    
      -1.4204757855
      100.8692475988
      L
    
      20.9449288203
      105.6257878523
      L
    
      22.8349178910
      108.1678629138
      L
    
      25.4554126361
      93.5871104288
      L
    
      28.9492459592
      94.2150321957
      z
    "
    fill="hsla(0,0%,50%,0.3)"
    stroke="hsla(0,0%,50%,1)"
    stroke-width="1"
    transform="translate(-24.9704386617,-97.1319839762) scale(1,-1) translate(50,-110)"
    />
  
  
  <line
    x1="-2.6923076923076925"
    y1="103.46153846153847"
    x2="-4.3096646942800785"
    y2="114.4543063773833"
    stroke="hsla(0,50%,50%,0.6)"
    stroke-width="1"
    transform="translate(-24.9704386617,-97.1319839762) scale(1,-1) translate(50,-110)"
    />
  
  <line
    x1="20.94492882037683"
    y1="105.6257878523722"
    x2="18.310107444455802"
    y2="137.4477547323371"
    stroke="hsla(0,50%,50%,0.6)"
    stroke-width="1"
    transform="translate(-24.9704386617,-97.1319839762) scale(1,-1) translate(50,-110)"
    />
  
  <line
    x1="-1.420475785516735"
    y1="100.86924759880674"
    x2="-4.3096646942800785"
    y2="114.4543063773833"
    stroke="hsla(0,50%,50%,0.6)"
    stroke-width="1"
    transform="translate(-24.9704386617,-97.1319839762) scale(1,-1) translate(50,-110)"
    />
  
  <line
    x1="32.415850227956156"
    y1="121.05441846929867"
    x2="30.307999576386848"
    y2="139.40801553645983"
    stroke="hsla(0,50%,50%,0.6)"
    stroke-width="1"
    transform="translate(-24.9704386617,-97.1319839762) scale(1,-1) translate(50,-110)"
    />
  
  <line
    x1="22.041420118343197"
    y1="107.10059171597634"
    x2="17.59368836291913"
    y2="137.33070348454964"
    stroke="hsla(0,50%,50%,0.6)"
    stroke-width="1"
    transform="translate(-24.9704386617,-97.1319839762) scale(1,-1) translate(50,-110)"
    />
  
  <line
    x1="25.455412636191554"
    y1="93.58711042880778"
    x2="17.59368836291913"
    y2="137.33070348454964"
    stroke="hsla(0,50%,50%,0.6)"
    stroke-width="1"
    transform="translate(-24.9704386617,-97.1319839762) scale(1,-1) translate(50,-110)"
    />
  
  <line
    x1="29.111968146937187"
    y1="93.55380166638275"
    x2="18.310107444455802"
    y2="137.4477547323371"
    stroke="hsla(0,50%,50%,0.6)"
    stroke-width="1"
    transform="translate(-24.9704386617,-97.1319839762) scale(1,-1) translate(50,-110)"
    />
  
  <line
    x1="39.515853261251436"
    y1="96.11409323093105"
    x2="30.307999576386848"
    y2="139.40801553645983"
    stroke="hsla(0,50%,50%,0.6)"
    stroke-width="1"
    transform="translate(-24.9704386617,-97.1319839762) scale(1,-1) translate(50,-110)"
    />
  
  <line
    x1="20.94492882037683"
    y1="105.6257878523722"
    x2="32.415850227956156"
    y2="121.05441846929867"
    stroke="hsla(0,50%,50%,0.6)"
    stroke-width="1"
    transform="translate(-24.9704386617,-97.1319839762) scale(1,-1) translate(50,-110)"
    />
  
  <line
    x1="29.111968146937187"
    y1="93.55380166638275"
    x2="39.515853261251436"
    y2="96.11409323093105"
    stroke="hsla(0,50%,50%,0.6)"
    stroke-width="1"
    transform="translate(-24.9704386617,-97.1319839762) scale(1,-1) translate(50,-110)"
    />
  
  <line
    x1="25.455412636191554"
    y1="93.58711042880778"
    x2="39.515853261251436"
    y2="96.11409323093105"
    stroke="hsla(0,50%,50%,0.6)"
    stroke-width="1"
    transform="translate(-24.9704386617,-97.1319839762) scale(1,-1) translate(50,-110)"
    />
  
  <line
    x1="-1.420475785516735"
    y1="100.86924759880674"
    x2="20.94492882037683"
    y2="105.6257878523722"
    stroke="hsla(0,50%,50%,0.6)"
    stroke-width="1"
    transform="translate(-24.9704386617,-97.1319839762) scale(1,-1) translate(50,-110)"
    />
  
  <line
    x1="-2.6923076923076925"
    y1="103.46153846153847"
    x2="22.041420118343197"
    y2="107.10059171597634"
    stroke="hsla(0,50%,50%,0.6)"
    stroke-width="1"
    transform="translate(-24.9704386617,-97.1319839762) scale(1,-1) translate(50,-110)"
    />
  
  <line
    x1="-4.3096646942800785"
    y1="114.4543063773833"
    x2="32.415850227956156"
    y2="121.05441846929867"
    stroke="hsla(0,50%,50%,0.6)"
    stroke-width="1"
    transform="translate(-24.9704386617,-97.1319839762) scale(1,-1) translate(50,-110)"
    />
  
  <line
    x1="17.59368836291913"
    y1="137.33070348454964"
    x2="30.307999576386848"
    y2="139.40801553645983"
    stroke="hsla(0,50%,50%,0.6)"
    stroke-width="1"
    transform="translate(-24.9704386617,-97.1319839762) scale(1,-1) translate(50,-110)"
    />
  
</svg>
