<?xml version="1.0"?>
<!DOCTYPE svg PUBLIC "-//W3C//DTD SVG 1.1//EN"
  "http://www.w3.org/Graphics/SVG/1.1/DTD/svg11.dtd">
<svg
  width="240"
  height="240"
  viewBox="-50 -50 200 200" xmlns="http://www.w3.org/2000/svg" version="1.1">
  <rect
    x="0"
    y="0"
    width="100"
    height="100"
    fill="hsla(206,100%,53%,0.3)"
    stroke="hsl(206,100%,53%)"
    stroke-width="3"
    transform="" />
  
  <path
    d="M 
      0
      20
      L
    
      80
      20
      L
    
      100
      40
      L
    
      60
      40
      L
    
      40
      60
      L
    
      20
      60
      L
    
      0
      80
      z
    "
    fill="hsla(0,0%,50%,0.3)"
    stroke="hsla(0,0%,50%,1)"
    stroke-width="1"
    transform="translate(-18.125,-66.875) scale(1,-1) translate(50,-110)"
    />
  
  
  <line
    x1="80"
    y1="20"
    x2="100"
    y2="40"
    stroke="hsla(0,50%,50%,0.6)"
    stroke-width="1"
    transform="translate(-18.125,-66.875) scale(1,-1) translate(50,-110)"
    />
  
  <line
    x1="0"
    y1="20"
    x2="0"
    y2="80"
    stroke="hsla(0,50%,50%,0.6)"
    stroke-width="1"
    transform="translate(-18.125,-66.875) scale(1,-1) translate(50,-110)"
    />
  
  <line
    x1="30"
    y1="50"
    x2="40"
    y2="60"
    stroke="hsla(0,50%,50%,0.6)"
    stroke-width="1"
    transform="translate(-18.125,-66.875) scale(1,-1) translate(50,-110)"
    />
  
  <line
    x1="0"
    y1="20"
    x2="80"
    y2="20"
    stroke="hsla(0,50%,50%,0.6)"
    stroke-width="1"
    transform="translate(-18.125,-66.875) scale(1,-1) translate(50,-110)"
    />
  
  <line
    x1="0"
    y1="40"
    x2="100"
    y2="40"
    stroke="hsla(0,50%,50%,0.6)"
    stroke-width="1"
    transform="translate(-18.125,-66.875) scale(1,-1) translate(50,-110)"
    />
  
  <line
    x1="30"
    y1="50"
    x2="0"
    y2="80"
    stroke="hsla(0,50%,50%,0.6)"
    stroke-width="1"
    transform="translate(-18.125,-66.875) scale(1,-1) translate(50,-110)"
    />
  
  <line
    x1="0"
    y1="50"
    x2="30"
    y2="50"
    stroke="hsla(0,50%,50%,0.6)"
    stroke-width="1"
    transform="translate(-18.125,-66.875) scale(1,-1) translate(50,-110)"
    />
  
  <line
    x1="80"
    y1="20"
    x2="40"
    y2="60"
    stroke="hsla(0,50%,50%,0.6)"
    stroke-width="1"
    transform="translate(-18.125,-66.875) scale(1,-1) translate(50,-110)"
    />
  
  <line
    x1="0"
    y1="60"
    x2="40"
    y2="60"
    stroke="hsla(0,50%,50%,0.6)"
    stroke-width="1"
    transform="translate(-18.125,-66.875) scale(1,-1) translate(50,-110)"
    />
  
</svg>
