<?xml version="1.0"?>
<!DOCTYPE svg PUBLIC "-//W3C//DTD SVG 1.1//EN"
  "http://www.w3.org/Graphics/SVG/1.1/DTD/svg11.dtd">
<svg
  width="240"
  height="240"
  viewBox="-500 -500 1000 1000" xmlns="http://www.w3.org/2000/svg" version="1.1">
  <rect
    x="0"
    y="0"
    width="100"
    height="100"
    fill="hsla(206,100%,53%,0.3)"
    stroke="hsl(206,100%,53%)"
    stroke-width="3"
    transform="" />
  
  <path
    d="M 
      37.8501348259
      -17.4748014368
      L
    
      57.1816099353
      -1.0014879051
      L
    
      53.8957510041
      4.9106916718
      L
    
      60.7843137254
      25.9803921568
      L
    
      48.4599955242
      31.9203974560
      L
    
      45.5467166498
      30.7835477567
      L
    
      38.2352941176
      33.0882352941
      L
    
      37.1753089132
      32.3081567020
      L
    
      10.7066620307
      36.5014592618
      L
    
      10.6474411425
      36.1276496556
      L
    
      14.3548362583
      29.2868759197
      L
    
      21.8474948465
      21.5353932404
      L
    
      21.4620668227
      21.3849875457
      L
    
      21.2405019839
      10.9633857470
      L
    
      26.9637506204
      8.6742559646
      L
    
      22.9589854777
      0
      z
    "
    fill="hsla(0,0%,50%,0.3)"
    stroke="hsla(0,0%,50%,1)"
    stroke-width="1"
    transform="translate(-35.7158774340,-9.5133289124)"
    />
  
  
  <line
    x1="37.85013482591457"
    y1="-17.47480143689625"
    x2="57.181609935351105"
    y2="-1.0014879051643006"
    stroke="hsla(0,50%,50%,0.6)"
    stroke-width="1"
    transform="translate(-35.7158774340,-9.5133289124)"
    />
  
  <line
    x1="45.40219267660454"
    y1="-2.8329708180410647"
    x2="54.68483485383339"
    y2="3.205871433878832"
    stroke="hsla(0,50%,50%,0.6)"
    stroke-width="1"
    transform="translate(-35.7158774340,-9.5133289124)"
    />
  
  <line
    x1="45.40219267660454"
    y1="-2.8329708180410647"
    x2="55.56384402229457"
    y2="11.683946012580206"
    stroke="hsla(0,50%,50%,0.6)"
    stroke-width="1"
    transform="translate(-35.7158774340,-9.5133289124)"
    />
  
  <line
    x1="42.125527852682765"
    y1="-5.8043851608348875"
    x2="48.78249447728223"
    y2="3.705745382516252"
    stroke="hsla(0,50%,50%,0.6)"
    stroke-width="1"
    transform="translate(-35.7158774340,-9.5133289124)"
    />
  
  <line
    x1="44.979380787774666"
    y1="-2.3955534455230745"
    x2="54.68483485383339"
    y2="3.205871433878832"
    stroke="hsla(0,50%,50%,0.6)"
    stroke-width="1"
    transform="translate(-35.7158774340,-9.5133289124)"
    />
  
  <line
    x1="44.979380787774666"
    y1="-2.3955534455230745"
    x2="48.78249447728223"
    y2="3.705745382516252"
    stroke="hsla(0,50%,50%,0.6)"
    stroke-width="1"
    transform="translate(-35.7158774340,-9.5133289124)"
    />
  
  <line
    x1="46.22453161104178"
    y1="-3.6837163754005338"
    x2="51.869382895554786"
    y2="-1.2872585896260706"
    stroke="hsla(0,50%,50%,0.6)"
    stroke-width="1"
    transform="translate(-35.7158774340,-9.5133289124)"
    />
  
  <line
    x1="48.60098665061323"
    y1="0"
    x2="60.78431372549019"
    y2="25.980392156862745"
    stroke="hsla(0,50%,50%,0.6)"
    stroke-width="1"
    transform="translate(-35.7158774340,-9.5133289124)"
    />
  
  <line
    x1="46.22453161104178"
    y1="-3.6837163754005338"
    x2="51.440353602907635"
    y2="7.5279405044735865"
    stroke="hsla(0,50%,50%,0.6)"
    stroke-width="1"
    transform="translate(-35.7158774340,-9.5133289124)"
    />
  
  <line
    x1="42.125527852682765"
    y1="-5.8043851608348875"
    x2="57.181609935351105"
    y2="-1.0014879051643006"
    stroke="hsla(0,50%,50%,0.6)"
    stroke-width="1"
    transform="translate(-35.7158774340,-9.5133289124)"
    />
  
  <line
    x1="40.3734422392219"
    y1="2.3694912259098113"
    x2="48.84930826965947"
    y2="19.0501123031553"
    stroke="hsla(0,50%,50%,0.6)"
    stroke-width="1"
    transform="translate(-35.7158774340,-9.5133289124)"
    />
  
  <line
    x1="51.869382895554786"
    y1="-1.2872585896260706"
    x2="60.78431372549019"
    y2="25.980392156862745"
    stroke="hsla(0,50%,50%,0.6)"
    stroke-width="1"
    transform="translate(-35.7158774340,-9.5133289124)"
    />
  
  <line
    x1="40.3734422392219"
    y1="2.3694912259098113"
    x2="51.440353602907635"
    y2="7.5279405044735865"
    stroke="hsla(0,50%,50%,0.6)"
    stroke-width="1"
    transform="translate(-35.7158774340,-9.5133289124)"
    />
  
  <line
    x1="37.614176581989824"
    y1="4.572532338527527"
    x2="48.45999552422356"
    y2="31.920397456013223"
    stroke="hsla(0,50%,50%,0.6)"
    stroke-width="1"
    transform="translate(-35.7158774340,-9.5133289124)"
    />
  
  <line
    x1="22.958985477760013"
    y1="0"
    x2="38.23529411764706"
    y2="33.088235294117645"
    stroke="hsla(0,50%,50%,0.6)"
    stroke-width="1"
    transform="translate(-35.7158774340,-9.5133289124)"
    />
  
  <line
    x1="21.24050198397136"
    y1="10.963385747077133"
    x2="40.27107622028985"
    y2="31.81770892694162"
    stroke="hsla(0,50%,50%,0.6)"
    stroke-width="1"
    transform="translate(-35.7158774340,-9.5133289124)"
    />
  
  <line
    x1="21.90611362904194"
    y1="21.4747495488173"
    x2="27.954754980982184"
    y2="31.00994616008682"
    stroke="hsla(0,50%,50%,0.6)"
    stroke-width="1"
    transform="translate(-35.7158774340,-9.5133289124)"
    />
  
  <line
    x1="22.151815423316414"
    y1="21.2205603074222"
    x2="22.19210628904974"
    y2="21.28151636796578"
    stroke="hsla(0,50%,50%,0.6)"
    stroke-width="1"
    transform="translate(-35.7158774340,-9.5133289124)"
    />
  
  <line
    x1="10.647441142518808"
    y1="36.12764965564452"
    x2="10.706662030744592"
    y2="36.501459261834775"
    stroke="hsla(0,50%,50%,0.6)"
    stroke-width="1"
    transform="translate(-35.7158774340,-9.5133289124)"
    />
  
  <line
    x1="21.24050198397136"
    y1="10.963385747077133"
    x2="21.462066822756526"
    y2="21.384987545762442"
    stroke="hsla(0,50%,50%,0.6)"
    stroke-width="1"
    transform="translate(-35.7158774340,-9.5133289124)"
    />
  
  <line
    x1="22.958985477760013"
    y1="0"
    x2="48.60098665061323"
    y2="0"
    stroke="hsla(0,50%,50%,0.6)"
    stroke-width="1"
    transform="translate(-35.7158774340,-9.5133289124)"
    />
  
  <line
    x1="29.52799608112941"
    y1="4.165410288431766"
    x2="28.522312321483312"
    y2="24.14010928930745"
    stroke="hsla(0,50%,50%,0.6)"
    stroke-width="1"
    transform="translate(-35.7158774340,-9.5133289124)"
    />
  
  <line
    x1="29.52799608112941"
    y1="4.165410288431766"
    x2="37.614176581989824"
    y2="4.572532338527527"
    stroke="hsla(0,50%,50%,0.6)"
    stroke-width="1"
    transform="translate(-35.7158774340,-9.5133289124)"
    />
  
  <line
    x1="22.19210628904974"
    y1="21.28151636796578"
    x2="38.23529411764706"
    y2="33.088235294117645"
    stroke="hsla(0,50%,50%,0.6)"
    stroke-width="1"
    transform="translate(-35.7158774340,-9.5133289124)"
    />
  
  <line
    x1="22.151815423316414"
    y1="21.2205603074222"
    x2="37.76551546639729"
    y2="30.795611616386637"
    stroke="hsla(0,50%,50%,0.6)"
    stroke-width="1"
    transform="translate(-35.7158774340,-9.5133289124)"
    />
  
  <line
    x1="21.90611362904194"
    y1="21.4747495488173"
    x2="37.76551546639729"
    y2="30.795611616386637"
    stroke="hsla(0,50%,50%,0.6)"
    stroke-width="1"
    transform="translate(-35.7158774340,-9.5133289124)"
    />
  
  <line
    x1="21.462066822756526"
    y1="21.384987545762442"
    x2="48.45999552422356"
    y2="31.920397456013223"
    stroke="hsla(0,50%,50%,0.6)"
    stroke-width="1"
    transform="translate(-35.7158774340,-9.5133289124)"
    />
  
  <line
    x1="37.85013482591457"
    y1="-17.47480143689625"
    x2="22.958985477760013"
    y2="0"
    stroke="hsla(0,50%,50%,0.6)"
    stroke-width="1"
    transform="translate(-35.7158774340,-9.5133289124)"
    />
  
  <line
    x1="14.354836258313505"
    y1="29.2868759197189"
    x2="10.647441142518808"
    y2="36.12764965564452"
    stroke="hsla(0,50%,50%,0.6)"
    stroke-width="1"
    transform="translate(-35.7158774340,-9.5133289124)"
    />
  
  <line
    x1="51.869382895554786"
    y1="-1.2872585896260706"
    x2="40.27107622028985"
    y2="31.81770892694162"
    stroke="hsla(0,50%,50%,0.6)"
    stroke-width="1"
    transform="translate(-35.7158774340,-9.5133289124)"
    />
  
  <line
    x1="51.869382895554786"
    y1="-1.2872585896260706"
    x2="21.24050198397136"
    y2="10.963385747077133"
    stroke="hsla(0,50%,50%,0.6)"
    stroke-width="1"
    transform="translate(-35.7158774340,-9.5133289124)"
    />
  
  <line
    x1="42.125527852682765"
    y1="-5.8043851608348875"
    x2="22.19210628904974"
    y2="21.28151636796578"
    stroke="hsla(0,50%,50%,0.6)"
    stroke-width="1"
    transform="translate(-35.7158774340,-9.5133289124)"
    />
  
  <line
    x1="37.614176581989824"
    y1="4.572532338527527"
    x2="21.462066822756526"
    y2="21.384987545762442"
    stroke="hsla(0,50%,50%,0.6)"
    stroke-width="1"
    transform="translate(-35.7158774340,-9.5133289124)"
    />
  
  <line
    x1="46.22453161104178"
    y1="-3.6837163754005338"
    x2="14.354836258313505"
    y2="29.2868759197189"
    stroke="hsla(0,50%,50%,0.6)"
    stroke-width="1"
    transform="translate(-35.7158774340,-9.5133289124)"
    />
  
  <line
    x1="48.60098665061323"
    y1="0"
    x2="28.522312321483312"
    y2="24.14010928930745"
    stroke="hsla(0,50%,50%,0.6)"
    stroke-width="1"
    transform="translate(-35.7158774340,-9.5133289124)"
    />
  
  <line
    x1="57.181609935351105"
    y1="-1.0014879051643006"
    x2="38.23529411764706"
    y2="33.088235294117645"
    stroke="hsla(0,50%,50%,0.6)"
    stroke-width="1"
    transform="translate(-35.7158774340,-9.5133289124)"
    />
  
  <line
    x1="51.440353602907635"
    y1="7.5279405044735865"
    x2="37.76551546639729"
    y2="30.795611616386637"
    stroke="hsla(0,50%,50%,0.6)"
    stroke-width="1"
    transform="translate(-35.7158774340,-9.5133289124)"
    />
  
  <line
    x1="48.78249447728223"
    y1="3.705745382516252"
    x2="22.19210628904974"
    y2="21.28151636796578"
    stroke="hsla(0,50%,50%,0.6)"
    stroke-width="1"
    transform="translate(-35.7158774340,-9.5133289124)"
    />
  
  <line
    x1="54.68483485383339"
    y1="3.205871433878832"
    x2="37.76551546639729"
    y2="30.795611616386637"
    stroke="hsla(0,50%,50%,0.6)"
    stroke-width="1"
    transform="translate(-35.7158774340,-9.5133289124)"
    />
  
  <line
    x1="51.440353602907635"
    y1="7.5279405044735865"
    x2="14.354836258313505"
    y2="29.2868759197189"
    stroke="hsla(0,50%,50%,0.6)"
    stroke-width="1"
    transform="translate(-35.7158774340,-9.5133289124)"
    />
  
  <line
    x1="55.56384402229457"
    y1="11.683946012580206"
    x2="27.954754980982184"
    y2="31.00994616008682"
    stroke="hsla(0,50%,50%,0.6)"
    stroke-width="1"
    transform="translate(-35.7158774340,-9.5133289124)"
    />
  
  <line
    x1="48.84930826965947"
    y1="19.0501123031553"
    x2="10.647441142518808"
    y2="36.12764965564452"
    stroke="hsla(0,50%,50%,0.6)"
    stroke-width="1"
    transform="translate(-35.7158774340,-9.5133289124)"
    />
  
  <line
    x1="48.84930826965947"
    y1="19.0501123031553"
    x2="27.954754980982184"
    y2="31.00994616008682"
    stroke="hsla(0,50%,50%,0.6)"
    stroke-width="1"
    transform="translate(-35.7158774340,-9.5133289124)"
    />
  
  <line
    x1="40.27107622028985"
    y1="31.81770892694162"
    x2="10.706662030744592"
    y2="36.501459261834775"
    stroke="hsla(0,50%,50%,0.6)"
    stroke-width="1"
    transform="translate(-35.7158774340,-9.5133289124)"
    />
  
  <line
    x1="60.78431372549019"
    y1="25.980392156862745"
    x2="38.23529411764706"
    y2="33.088235294117645"
    stroke="hsla(0,50%,50%,0.6)"
    stroke-width="1"
    transform="translate(-35.7158774340,-9.5133289124)"
    />
  
  <line
    x1="60.78431372549019"
    y1="25.980392156862745"
    x2="48.45999552422356"
    y2="31.920397456013223"
    stroke="hsla(0,50%,50%,0.6)"
    stroke-width="1"
    transform="translate(-35.7158774340,-9.5133289124)"
    />
  
</svg>
