<?xml version="1.0"?>
<!DOCTYPE svg PUBLIC "-//W3C//DTD SVG 1.1//EN"
  "http://www.w3.org/Graphics/SVG/1.1/DTD/svg11.dtd">
<svg
  width="240"
  height="240"
  viewBox="-500 -500 1000 1000" xmlns="http://www.w3.org/2000/svg" version="1.1">
  <rect
    x="0"
    y="0"
    width="100"
    height="100"
    fill="hsla(206,100%,53%,0.3)"
    stroke="hsl(206,100%,53%)"
    stroke-width="3"
    transform="" />
  
  <path
    d="M 
      40.6007865414
      106.0557733295
      L
    
      69.7112121749
      139.3984096607
      L
    
      60.4207758053
      148.3234714003
      L
    
      52.3874095989
      140.2225979149
      L
    
      46.9501737697
      135.3946638821
      L
    
      28.9776462853
      152.1203155818
      L
    
      21.1538461538
      144.2307692307
      L
    
      21.6552750770
      143.7335188819
      L
    
      19.8431126077
      141.6579291876
      L
    
      37.0675875741
      126.6195296551
      L
    
      40.2352410657
      126.6327834354
      L
    
      30.1429359247
      115.7879361483
      L
    
      32.7415733321
      113.3696225500
      L
    
      32.3102222212
      112.8427064822
      z
    "
    fill="hsla(0,0%,50%,0.3)"
    stroke="hsla(0,0%,50%,1)"
    stroke-width="1"
    transform="translate(-44.7771623913,-129.0880444557)"
    />
  
  
  <line
    x1="40.60078654149571"
    y1="106.05577332955748"
    x2="69.71121217499996"
    y2="139.39840966076642"
    stroke="hsla(0,50%,50%,0.6)"
    stroke-width="1"
    transform="translate(-44.7771623913,-129.0880444557)"
    />
  
  <line
    x1="32.31022222126851"
    y1="112.8427064822799"
    x2="60.94426825254316"
    y2="147.8205668838376"
    stroke="hsla(0,50%,50%,0.6)"
    stroke-width="1"
    transform="translate(-44.7771623913,-129.0880444557)"
    />
  
  <line
    x1="30.14293592476115"
    y1="115.78793614833143"
    x2="60.42077580539119"
    y2="148.32347140039448"
    stroke="hsla(0,50%,50%,0.6)"
    stroke-width="1"
    transform="translate(-44.7771623913,-129.0880444557)"
    />
  
  <line
    x1="56.29304491221263"
    y1="126.69997089921428"
    x2="69.71121217499996"
    y2="139.39840966076642"
    stroke="hsla(0,50%,50%,0.6)"
    stroke-width="1"
    transform="translate(-44.7771623913,-129.0880444557)"
    />
  
  <line
    x1="38.905325443786985"
    y1="126.62721893491124"
    x2="60.42077580539119"
    y2="148.32347140039448"
    stroke="hsla(0,50%,50%,0.6)"
    stroke-width="1"
    transform="translate(-44.7771623913,-129.0880444557)"
    />
  
  <line
    x1="19.84311260773535"
    y1="141.65792918769742"
    x2="28.977646285338594"
    y2="152.12031558185404"
    stroke="hsla(0,50%,50%,0.6)"
    stroke-width="1"
    transform="translate(-44.7771623913,-129.0880444557)"
    />
  
  <line
    x1="37.06758757412386"
    y1="126.61952965512185"
    x2="60.94426825254316"
    y2="147.8205668838376"
    stroke="hsla(0,50%,50%,0.6)"
    stroke-width="1"
    transform="translate(-44.7771623913,-129.0880444557)"
    />
  
  <line
    x1="21.153846153846153"
    y1="144.23076923076923"
    x2="28.977646285338594"
    y2="152.12031558185404"
    stroke="hsla(0,50%,50%,0.6)"
    stroke-width="1"
    transform="translate(-44.7771623913,-129.0880444557)"
    />
  
  <line
    x1="40.60078654149571"
    y1="106.05577332955748"
    x2="30.14293592476115"
    y2="115.78793614833143"
    stroke="hsla(0,50%,50%,0.6)"
    stroke-width="1"
    transform="translate(-44.7771623913,-129.0880444557)"
    />
  
  <line
    x1="38.905325443786985"
    y1="126.62721893491124"
    x2="21.153846153846153"
    y2="144.23076923076923"
    stroke="hsla(0,50%,50%,0.6)"
    stroke-width="1"
    transform="translate(-44.7771623913,-129.0880444557)"
    />
  
  <line
    x1="40.60078654149571"
    y1="106.05577332955748"
    x2="32.31022222126851"
    y2="112.8427064822799"
    stroke="hsla(0,50%,50%,0.6)"
    stroke-width="1"
    transform="translate(-44.7771623913,-129.0880444557)"
    />
  
  <line
    x1="37.06758757412386"
    y1="126.61952965512185"
    x2="19.84311260773535"
    y2="141.65792918769742"
    stroke="hsla(0,50%,50%,0.6)"
    stroke-width="1"
    transform="translate(-44.7771623913,-129.0880444557)"
    />
  
  <line
    x1="56.29304491221263"
    y1="126.69997089921428"
    x2="28.977646285338594"
    y2="152.12031558185404"
    stroke="hsla(0,50%,50%,0.6)"
    stroke-width="1"
    transform="translate(-44.7771623913,-129.0880444557)"
    />
  
  <line
    x1="69.71121217499996"
    y1="139.39840966076642"
    x2="60.42077580539119"
    y2="148.32347140039448"
    stroke="hsla(0,50%,50%,0.6)"
    stroke-width="1"
    transform="translate(-44.7771623913,-129.0880444557)"
    />
  
  <line
    x1="37.06758757412386"
    y1="126.61952965512185"
    x2="56.29304491221263"
    y2="126.69997089921428"
    stroke="hsla(0,50%,50%,0.6)"
    stroke-width="1"
    transform="translate(-44.7771623913,-129.0880444557)"
    />
  
</svg>
