<?xml version="1.0"?>
<!DOCTYPE svg PUBLIC "-//W3C//DTD SVG 1.1//EN"
  "http://www.w3.org/Graphics/SVG/1.1/DTD/svg11.dtd">
<svg
  width="240"
  height="240"
  viewBox="-500 -500 1000 1000" xmlns="http://www.w3.org/2000/svg" version="1.1">
  <rect
    x="0"
    y="0"
    width="100"
    height="100"
    fill="hsla(206,100%,53%,0.3)"
    stroke="hsl(206,100%,53%)"
    stroke-width="3"
    transform="" />
  
  <path
    d="M 
      14.8559975018
      -7.7863075373
      L
    
      26.1091424808
      0
      L
    
      36.7606537631
      0
      L
    
      42.1756246576
      11.1167652691
      L
    
      48.3004715176
      15.3546864334
      L
    
      50.0712986959
      12.8357852198
      L
    
      51.8633210120
      2.4044670476
      L
    
      61.3761554801
      -6.5465243426
      L
    
      62.7047310392
      -5.1345556767
      L
    
      64.9035707149
      25.7325611971
      L
    
      61.8600584929
      28.4048007492
      L
    
      66.4268058104
      29.1488438193
      L
    
      75.1648670990
      29.3682744840
      L
    
      75.1347496586
      30.5675965605
      L
    
      52.6407570658
      49.2119189629
      L
    
      37.1026630076
      43.6718183516
      L
    
      32.4561403508
      43.8596491228
      L
    
      31.2671956855
      41.5911850411
      L
    
      10.1050078886
      34.0458162776
      L
    
      10.5199202363
      14.0501205472
      L
    
      16.9018124209
      14.1825453402
      L
    
      9.4684738202
      0
      z
    "
    fill="hsla(0,0%,50%,0.3)"
    stroke="hsla(0,0%,50%,1)"
    stroke-width="1"
    transform="translate(-42.3166704596,-20.7128057128)"
    />
  
  
  <line
    x1="61.376155480165274"
    y1="-6.546524342655062"
    x2="62.70473103923291"
    y2="-5.134555676767037"
    stroke="hsla(0,50%,50%,0.6)"
    stroke-width="1"
    transform="translate(-42.3166704596,-20.7128057128)"
    />
  
  <line
    x1="51.863321012041744"
    y1="2.404467047693107"
    x2="64.19641509275138"
    y2="26.353452156444323"
    stroke="hsla(0,50%,50%,0.6)"
    stroke-width="1"
    transform="translate(-42.3166704596,-20.7128057128)"
    />
  
  <line
    x1="36.76065376310377"
    y1="0"
    x2="54.3859649122807"
    y2="36.18421052631579"
    stroke="hsla(0,50%,50%,0.6)"
    stroke-width="1"
    transform="translate(-42.3166704596,-20.7128057128)"
    />
  
  <line
    x1="46.669987887312935"
    y1="18.77515336224749"
    x2="54.3859649122807"
    y2="36.18421052631579"
    stroke="hsla(0,50%,50%,0.6)"
    stroke-width="1"
    transform="translate(-42.3166704596,-20.7128057128)"
    />
  
  <line
    x1="47.62793688992812"
    y1="26.086014375636886"
    x2="52.22166387356415"
    y2="36.86742466609946"
    stroke="hsla(0,50%,50%,0.6)"
    stroke-width="1"
    transform="translate(-42.3166704596,-20.7128057128)"
    />
  
  <line
    x1="14.855997501800617"
    y1="-7.786307537358391"
    x2="64.19641509275138"
    y2="26.353452156444323"
    stroke="hsla(0,50%,50%,0.6)"
    stroke-width="1"
    transform="translate(-42.3166704596,-20.7128057128)"
    />
  
  <line
    x1="46.669987887312935"
    y1="18.77515336224749"
    x2="52.64075706588724"
    y2="49.211918962968795"
    stroke="hsla(0,50%,50%,0.6)"
    stroke-width="1"
    transform="translate(-42.3166704596,-20.7128057128)"
    />
  
  <line
    x1="28.86368189523289"
    y1="14.43075512567074"
    x2="39.98087626327561"
    y2="44.69804402364776"
    stroke="hsla(0,50%,50%,0.6)"
    stroke-width="1"
    transform="translate(-42.3166704596,-20.7128057128)"
    />
  
  <line
    x1="38.755516564756554"
    y1="28.931843431247934"
    x2="42.3436071886013"
    y2="45.54047469724354"
    stroke="hsla(0,50%,50%,0.6)"
    stroke-width="1"
    transform="translate(-42.3166704596,-20.7128057128)"
    />
  
  <line
    x1="62.70473103923291"
    y1="-5.134555676767037"
    x2="64.9035707149961"
    y2="25.732561197105145"
    stroke="hsla(0,50%,50%,0.6)"
    stroke-width="1"
    transform="translate(-42.3166704596,-20.7128057128)"
    />
  
  <line
    x1="9.468473820278042"
    y1="0"
    x2="32.45614035087719"
    y2="43.85964912280702"
    stroke="hsla(0,50%,50%,0.6)"
    stroke-width="1"
    transform="translate(-42.3166704596,-20.7128057128)"
    />
  
  <line
    x1="13.736951175157335"
    y1="27.825693358182676"
    x2="16.88864232095877"
    y2="36.46451815477388"
    stroke="hsla(0,50%,50%,0.6)"
    stroke-width="1"
    transform="translate(-42.3166704596,-20.7128057128)"
    />
  
  <line
    x1="9.468473820278042"
    y1="0"
    x2="36.76065376310377"
    y2="0"
    stroke="hsla(0,50%,50%,0.6)"
    stroke-width="1"
    transform="translate(-42.3166704596,-20.7128057128)"
    />
  
  <line
    x1="10.519920236357265"
    y1="14.050120547233563"
    x2="10.105007888691325"
    y2="34.04581627765901"
    stroke="hsla(0,50%,50%,0.6)"
    stroke-width="1"
    transform="translate(-42.3166704596,-20.7128057128)"
    />
  
  <line
    x1="35.024225374125734"
    y1="19.6494158558981"
    x2="34.5564280716416"
    y2="42.763959403608446"
    stroke="hsla(0,50%,50%,0.6)"
    stroke-width="1"
    transform="translate(-42.3166704596,-20.7128057128)"
    />
  
  <line
    x1="75.16486709905216"
    y1="29.36827448400141"
    x2="75.13474965861484"
    y2="30.56759656052732"
    stroke="hsla(0,50%,50%,0.6)"
    stroke-width="1"
    transform="translate(-42.3166704596,-20.7128057128)"
    />
  
  <line
    x1="35.024225374125734"
    y1="19.6494158558981"
    x2="32.45614035087719"
    y2="43.85964912280702"
    stroke="hsla(0,50%,50%,0.6)"
    stroke-width="1"
    transform="translate(-42.3166704596,-20.7128057128)"
    />
  
  <line
    x1="14.855997501800617"
    y1="-7.786307537358391"
    x2="9.468473820278042"
    y2="0"
    stroke="hsla(0,50%,50%,0.6)"
    stroke-width="1"
    transform="translate(-42.3166704596,-20.7128057128)"
    />
  
  <line
    x1="38.755516564756554"
    y1="28.931843431247934"
    x2="52.22166387356415"
    y2="36.86742466609946"
    stroke="hsla(0,50%,50%,0.6)"
    stroke-width="1"
    transform="translate(-42.3166704596,-20.7128057128)"
    />
  
  <line
    x1="51.863321012041744"
    y1="2.404467047693107"
    x2="44.82754489049047"
    y2="43.35954815978756"
    stroke="hsla(0,50%,50%,0.6)"
    stroke-width="1"
    transform="translate(-42.3166704596,-20.7128057128)"
    />
  
  <line
    x1="35.024225374125734"
    y1="19.6494158558981"
    x2="64.9035707149961"
    y2="25.732561197105145"
    stroke="hsla(0,50%,50%,0.6)"
    stroke-width="1"
    transform="translate(-42.3166704596,-20.7128057128)"
    />
  
  <line
    x1="10.519920236357265"
    y1="14.050120547233563"
    x2="28.86368189523289"
    y2="14.43075512567074"
    stroke="hsla(0,50%,50%,0.6)"
    stroke-width="1"
    transform="translate(-42.3166704596,-20.7128057128)"
    />
  
  <line
    x1="36.76065376310377"
    y1="0"
    x2="10.105007888691325"
    y2="34.04581627765901"
    stroke="hsla(0,50%,50%,0.6)"
    stroke-width="1"
    transform="translate(-42.3166704596,-20.7128057128)"
    />
  
  <line
    x1="47.62793688992812"
    y1="26.086014375636886"
    x2="75.13474965861484"
    y2="30.56759656052732"
    stroke="hsla(0,50%,50%,0.6)"
    stroke-width="1"
    transform="translate(-42.3166704596,-20.7128057128)"
    />
  
  <line
    x1="46.669987887312935"
    y1="18.77515336224749"
    x2="35.024225374125734"
    y2="19.6494158558981"
    stroke="hsla(0,50%,50%,0.6)"
    stroke-width="1"
    transform="translate(-42.3166704596,-20.7128057128)"
    />
  
  <line
    x1="28.86368189523289"
    y1="14.43075512567074"
    x2="13.736951175157335"
    y2="27.825693358182676"
    stroke="hsla(0,50%,50%,0.6)"
    stroke-width="1"
    transform="translate(-42.3166704596,-20.7128057128)"
    />
  
  <line
    x1="10.105007888691325"
    y1="34.04581627765901"
    x2="52.64075706588724"
    y2="49.211918962968795"
    stroke="hsla(0,50%,50%,0.6)"
    stroke-width="1"
    transform="translate(-42.3166704596,-20.7128057128)"
    />
  
  <line
    x1="61.376155480165274"
    y1="-6.546524342655062"
    x2="51.863321012041744"
    y2="2.404467047693107"
    stroke="hsla(0,50%,50%,0.6)"
    stroke-width="1"
    transform="translate(-42.3166704596,-20.7128057128)"
    />
  
  <line
    x1="13.736951175157335"
    y1="27.825693358182676"
    x2="75.16486709905216"
    y2="29.36827448400141"
    stroke="hsla(0,50%,50%,0.6)"
    stroke-width="1"
    transform="translate(-42.3166704596,-20.7128057128)"
    />
  
  <line
    x1="62.70473103923291"
    y1="-5.134555676767037"
    x2="38.755516564756554"
    y2="28.931843431247934"
    stroke="hsla(0,50%,50%,0.6)"
    stroke-width="1"
    transform="translate(-42.3166704596,-20.7128057128)"
    />
  
  <line
    x1="47.62793688992812"
    y1="26.086014375636886"
    x2="34.5564280716416"
    y2="42.763959403608446"
    stroke="hsla(0,50%,50%,0.6)"
    stroke-width="1"
    transform="translate(-42.3166704596,-20.7128057128)"
    />
  
  <line
    x1="46.669987887312935"
    y1="18.77515336224749"
    x2="16.88864232095877"
    y2="36.46451815477388"
    stroke="hsla(0,50%,50%,0.6)"
    stroke-width="1"
    transform="translate(-42.3166704596,-20.7128057128)"
    />
  
  <line
    x1="44.82754489049047"
    y1="43.35954815978756"
    x2="32.45614035087719"
    y2="43.85964912280702"
    stroke="hsla(0,50%,50%,0.6)"
    stroke-width="1"
    transform="translate(-42.3166704596,-20.7128057128)"
    />
  
  <line
    x1="64.9035707149961"
    y1="25.732561197105145"
    x2="42.3436071886013"
    y2="45.54047469724354"
    stroke="hsla(0,50%,50%,0.6)"
    stroke-width="1"
    transform="translate(-42.3166704596,-20.7128057128)"
    />
  
  <line
    x1="54.3859649122807"
    y1="36.18421052631579"
    x2="32.45614035087719"
    y2="43.85964912280702"
    stroke="hsla(0,50%,50%,0.6)"
    stroke-width="1"
    transform="translate(-42.3166704596,-20.7128057128)"
    />
  
  <line
    x1="54.3859649122807"
    y1="36.18421052631579"
    x2="39.98087626327561"
    y2="44.69804402364776"
    stroke="hsla(0,50%,50%,0.6)"
    stroke-width="1"
    transform="translate(-42.3166704596,-20.7128057128)"
    />
  
  <line
    x1="75.13474965861484"
    y1="30.56759656052732"
    x2="52.64075706588724"
    y2="49.211918962968795"
    stroke="hsla(0,50%,50%,0.6)"
    stroke-width="1"
    transform="translate(-42.3166704596,-20.7128057128)"
    />
  
</svg>
