<?xml version="1.0"?>
<!DOCTYPE svg PUBLIC "-//W3C//DTD SVG 1.1//EN"
  "http://www.w3.org/Graphics/SVG/1.1/DTD/svg11.dtd">
<svg
  width="240"
  height="240"
  viewBox="-50 -50 200 200" xmlns="http://www.w3.org/2000/svg" version="1.1">
  <rect
    x="0"
    y="0"
    width="100"
    height="100"
    fill="hsla(206,100%,53%,0.3)"
    stroke="hsl(206,100%,53%)"
    stroke-width="3"
    transform="" />
  
  <path
    d="M 
      122.7312607068
      -109.8910033041
      L
    
      149.2231035502
      -74.2049989784
      L
    
      146.9245631796
      -58.6605371861
      L
    
      111.2385588539
      -32.1686943427
      L
    
      104.6155981430
      -41.0901954242
      L
    
      140.3016024688
      -67.5820382676
      L
    
      113.8097596254
      -103.2680425933
      z
    "
    fill="hsla(0,0%,50%,0.3)"
    stroke="hsla(0,0%,50%,1)"
    stroke-width="1"
    transform="translate(-120.8503196670,80.3859905107) scale(1,-1) translate(50,-110)"
    />
  
  
  <line
    x1="122.73126070685467"
    y1="-109.89100330419764"
    x2="149.22310355025763"
    y2="-74.20499897847144"
    stroke="hsla(0,50%,50%,0.6)"
    stroke-width="1"
    transform="translate(-120.8503196670,80.3859905107) scale(1,-1) translate(50,-110)"
    />
  
  <line
    x1="113.80975962542314"
    y1="-103.2680425933469"
    x2="146.92456317967682"
    y2="-58.66053718618915"
    stroke="hsla(0,50%,50%,0.6)"
    stroke-width="1"
    transform="translate(-120.8503196670,80.3859905107) scale(1,-1) translate(50,-110)"
    />
  
  <line
    x1="104.61559814309987"
    y1="-41.09019542421776"
    x2="111.23855885395061"
    y2="-32.16869434278621"
    stroke="hsla(0,50%,50%,0.6)"
    stroke-width="1"
    transform="translate(-120.8503196670,80.3859905107) scale(1,-1) translate(50,-110)"
    />
  
  <line
    x1="122.73126070685467"
    y1="-109.89100330419764"
    x2="113.80975962542314"
    y2="-103.2680425933469"
    stroke="hsla(0,50%,50%,0.6)"
    stroke-width="1"
    transform="translate(-120.8503196670,80.3859905107) scale(1,-1) translate(50,-110)"
    />
  
  <line
    x1="149.22310355025763"
    y1="-74.20499897847144"
    x2="146.92456317967682"
    y2="-58.66053718618915"
    stroke="hsla(0,50%,50%,0.6)"
    stroke-width="1"
    transform="translate(-120.8503196670,80.3859905107) scale(1,-1) translate(50,-110)"
    />
  
  <line
    x1="149.22310355025763"
    y1="-74.20499897847144"
    x2="104.61559814309987"
    y2="-41.09019542421776"
    stroke="hsla(0,50%,50%,0.6)"
    stroke-width="1"
    transform="translate(-120.8503196670,80.3859905107) scale(1,-1) translate(50,-110)"
    />
  
  <line
    x1="146.92456317967682"
    y1="-58.66053718618915"
    x2="111.23855885395061"
    y2="-32.16869434278621"
    stroke="hsla(0,50%,50%,0.6)"
    stroke-width="1"
    transform="translate(-120.8503196670,80.3859905107) scale(1,-1) translate(50,-110)"
    />
  
</svg>
