<?xml version="1.0"?>
<!DOCTYPE svg PUBLIC "-//W3C//DTD SVG 1.1//EN"
  "http://www.w3.org/Graphics/SVG/1.1/DTD/svg11.dtd">
<svg
  width="240"
  height="240"
  viewBox="-500 -500 1000 1000" xmlns="http://www.w3.org/2000/svg" version="1.1">
  <rect
    x="0"
    y="0"
    width="100"
    height="100"
    fill="hsla(206,100%,53%,0.3)"
    stroke="hsl(206,100%,53%)"
    stroke-width="3"
    transform="" />
  
  <path
    d="M 
      25.0825486119
      -56.5380658806
      L
    
      52.5987525987
      -30.0110064815
      L
    
      51.6770526012
      -17.6446715118
      L
    
      23.6400994157
      -19.7343496374
      L
    
      27.1493212669
      -11.3122171945
      L
    
      0.0000000000
      -0.0000000000
      L
    
      -9.6153846153
      -23.0769230769
      L
    
      9.0497737556
      -54.7511312217
      z
    "
    fill="hsla(0,0%,50%,0.3)"
    stroke="hsla(0,0%,50%,1)"
    stroke-width="1"
    transform="translate(-21.6687631811,26.4041477708)"
    />
  
  <path
    d="M 
      22.8583514080
      -26.6962868442
      L
    
      20.8333333333
      -26.4705882352
      L
    
      22.5368124486
      -22.3822383586
      z
    "
    fill="hsla(0,0%,50%,0.3)"
    stroke="hsla(0,0%,50%,1)"
    stroke-width="1"
    transform="translate(-21.6687631811,26.4041477708)"
    />
  
  
  <line
    x1="25.082548611960377"
    y1="-56.538065880626434"
    x2="9.049773755656108"
    y2="-54.751131221719454"
    stroke="hsla(0,50%,50%,0.6)"
    stroke-width="1"
    transform="translate(-21.6687631811,26.4041477708)"
    />
  
  <line
    x1="25.082548611960377"
    y1="-56.538065880626434"
    x2="52.5987525987526"
    y2="-30.011006481594716"
    stroke="hsla(0,50%,50%,0.6)"
    stroke-width="1"
    transform="translate(-21.6687631811,26.4041477708)"
    />
  
  <line
    x1="47.09551180139415"
    y1="-35.31641836140106"
    x2="-5.882352941176471"
    y2="-29.41176470588235"
    stroke="hsla(0,50%,50%,0.6)"
    stroke-width="1"
    transform="translate(-21.6687631811,26.4041477708)"
    />
  
  <line
    x1="52.5987525987526"
    y1="-30.011006481594716"
    x2="-9.615384615384615"
    y2="-23.076923076923077"
    stroke="hsla(0,50%,50%,0.6)"
    stroke-width="1"
    transform="translate(-21.6687631811,26.4041477708)"
    />
  
  <line
    x1="22.346642737112116"
    y1="-19.830754839173924"
    x2="51.67705260128085"
    y2="-17.644671511837085"
    stroke="hsla(0,50%,50%,0.6)"
    stroke-width="1"
    transform="translate(-21.6687631811,26.4041477708)"
    />
  
  <line
    x1="9.049773755656108"
    y1="-54.751131221719454"
    x2="27.149321266968325"
    y2="-11.312217194570136"
    stroke="hsla(0,50%,50%,0.6)"
    stroke-width="1"
    transform="translate(-21.6687631811,26.4041477708)"
    />
  
  <line
    x1="9.049773755656108"
    y1="-54.751131221719454"
    x2="-9.615384615384615"
    y2="-23.076923076923077"
    stroke="hsla(0,50%,50%,0.6)"
    stroke-width="1"
    transform="translate(-21.6687631811,26.4041477708)"
    />
  
  <line
    x1="-5.882352941176471"
    y1="-29.41176470588235"
    x2="5.429864253393665"
    y2="-2.262443438914027"
    stroke="hsla(0,50%,50%,0.6)"
    stroke-width="1"
    transform="translate(-21.6687631811,26.4041477708)"
    />
  
  <line
    x1="-9.615384615384615"
    y1="-23.076923076923077"
    x2="1.6273203339369672e-19"
    y2="-6.78050139140403e-20"
    stroke="hsla(0,50%,50%,0.6)"
    stroke-width="1"
    transform="translate(-21.6687631811,26.4041477708)"
    />
  
  <line
    x1="-9.615384615384615"
    y1="-23.076923076923077"
    x2="8.136601669684836e-20"
    y2="-3.390250695702015e-20"
    stroke="hsla(0,50%,50%,0.6)"
    stroke-width="1"
    transform="translate(-21.6687631811,26.4041477708)"
    />
  
  <line
    x1="27.149321266968325"
    y1="-11.312217194570136"
    x2="8.136601669684836e-20"
    y2="-3.390250695702015e-20"
    stroke="hsla(0,50%,50%,0.6)"
    stroke-width="1"
    transform="translate(-21.6687631811,26.4041477708)"
    />
  
  <line
    x1="1.6273203339369672e-19"
    y1="-6.78050139140403e-20"
    x2="8.136601669684836e-20"
    y2="-3.390250695702015e-20"
    stroke="hsla(0,50%,50%,0.6)"
    stroke-width="1"
    transform="translate(-21.6687631811,26.4041477708)"
    />
  
  <line
    x1="25.082548611960377"
    y1="-56.538065880626434"
    x2="22.346642737112116"
    y2="-19.830754839173924"
    stroke="hsla(0,50%,50%,0.6)"
    stroke-width="1"
    transform="translate(-21.6687631811,26.4041477708)"
    />
  
  <line
    x1="47.09551180139415"
    y1="-35.31641836140106"
    x2="45.8109706284471"
    y2="-18.081888177304453"
    stroke="hsla(0,50%,50%,0.6)"
    stroke-width="1"
    transform="translate(-21.6687631811,26.4041477708)"
    />
  
  <line
    x1="52.5987525987526"
    y1="-30.011006481594716"
    x2="51.67705260128085"
    y2="-17.644671511837085"
    stroke="hsla(0,50%,50%,0.6)"
    stroke-width="1"
    transform="translate(-21.6687631811,26.4041477708)"
    />
  
</svg>
