<?xml version="1.0"?>
<!DOCTYPE svg PUBLIC "-//W3C//DTD SVG 1.1//EN"
  "http://www.w3.org/Graphics/SVG/1.1/DTD/svg11.dtd">
<svg
  width="240"
  height="240"
  viewBox="-50 -50 200 200" xmlns="http://www.w3.org/2000/svg" version="1.1">
  <rect
    x="0"
    y="0"
    width="100"
    height="100"
    fill="hsla(206,100%,53%,0.3)"
    stroke="hsl(206,100%,53%)"
    stroke-width="3"
    transform="" />
  
  <path
    d="M 
      281.7549561260
      -310.9912252193
      L
    
      281.4087104920
      -306.6094931090
      L
    
      356.2040948976
      -310.2307442313
      L
    
      359.6071209330
      -239.9427051360
      L
    
      320.4419889502
      -221.7311233885
      L
    
      305.5160643276
      -217.8625470668
      L
    
      278.2320441988
      -266.4088397790
      L
    
      269.5131866986
      -306.0335661419
      z
    "
    fill="hsla(0,0%,50%,0.3)"
    stroke="hsla(0,0%,50%,1)"
    stroke-width="1"
    transform="translate(-283.7348644067,277.8805771369) scale(1,-1) translate(50,-110)"
    />
  
  
  <line
    x1="271.98745707033"
    y1="-294.788711363297"
    x2="339.1290217744556"
    y2="-249.3337666558336"
    stroke="hsla(0,50%,50%,0.6)"
    stroke-width="1"
    transform="translate(-283.7348644067,277.8805771369) scale(1,-1) translate(50,-110)"
    />
  
  <line
    x1="337.90055248618785"
    y1="-260.11049723756906"
    x2="359.6071209330878"
    y2="-239.9427051360753"
    stroke="hsla(0,50%,50%,0.6)"
    stroke-width="1"
    transform="translate(-283.7348644067,277.8805771369) scale(1,-1) translate(50,-110)"
    />
  
  <line
    x1="356.20409489762756"
    y1="-310.2307442313942"
    x2="269.5131866986344"
    y2="-306.03356614197855"
    stroke="hsla(0,50%,50%,0.6)"
    stroke-width="1"
    transform="translate(-283.7348644067,277.8805771369) scale(1,-1) translate(50,-110)"
    />
  
  <line
    x1="303.8674033149171"
    y1="-223.48066298342542"
    x2="320.44198895027625"
    y2="-221.73112338858195"
    stroke="hsla(0,50%,50%,0.6)"
    stroke-width="1"
    transform="translate(-283.7348644067,277.8805771369) scale(1,-1) translate(50,-110)"
    />
  
  <line
    x1="320.44198895027625"
    y1="-221.73112338858195"
    x2="305.52951929626414"
    y2="-220.6562301695882"
    stroke="hsla(0,50%,50%,0.6)"
    stroke-width="1"
    transform="translate(-283.7348644067,277.8805771369) scale(1,-1) translate(50,-110)"
    />
  
  <line
    x1="278.23204419889504"
    y1="-266.4088397790055"
    x2="305.5160643276912"
    y2="-217.86254706689658"
    stroke="hsla(0,50%,50%,0.6)"
    stroke-width="1"
    transform="translate(-283.7348644067,277.8805771369) scale(1,-1) translate(50,-110)"
    />
  
  <line
    x1="281.75495612609683"
    y1="-310.99122521936954"
    x2="269.5131866986344"
    y2="-306.03356614197855"
    stroke="hsla(0,50%,50%,0.6)"
    stroke-width="1"
    transform="translate(-283.7348644067,277.8805771369) scale(1,-1) translate(50,-110)"
    />
  
  <line
    x1="320.44198895027625"
    y1="-221.73112338858195"
    x2="305.5160643276912"
    y2="-217.86254706689658"
    stroke="hsla(0,50%,50%,0.6)"
    stroke-width="1"
    transform="translate(-283.7348644067,277.8805771369) scale(1,-1) translate(50,-110)"
    />
  
  <line
    x1="303.8674033149171"
    y1="-223.48066298342542"
    x2="305.9319569642338"
    y2="-217.97034021517882"
    stroke="hsla(0,50%,50%,0.6)"
    stroke-width="1"
    transform="translate(-283.7348644067,277.8805771369) scale(1,-1) translate(50,-110)"
    />
  
  <line
    x1="269.5131866986344"
    y1="-306.03356614197855"
    x2="278.23204419889504"
    y2="-266.4088397790055"
    stroke="hsla(0,50%,50%,0.6)"
    stroke-width="1"
    transform="translate(-283.7348644067,277.8805771369) scale(1,-1) translate(50,-110)"
    />
  
  <line
    x1="359.6071209330878"
    y1="-239.9427051360753"
    x2="320.44198895027625"
    y2="-221.73112338858195"
    stroke="hsla(0,50%,50%,0.6)"
    stroke-width="1"
    transform="translate(-283.7348644067,277.8805771369) scale(1,-1) translate(50,-110)"
    />
  
  <line
    x1="305.52951929626414"
    y1="-220.6562301695882"
    x2="305.9319569642338"
    y2="-217.97034021517882"
    stroke="hsla(0,50%,50%,0.6)"
    stroke-width="1"
    transform="translate(-283.7348644067,277.8805771369) scale(1,-1) translate(50,-110)"
    />
  
  <line
    x1="356.20409489762756"
    y1="-310.2307442313942"
    x2="359.6071209330878"
    y2="-239.9427051360753"
    stroke="hsla(0,50%,50%,0.6)"
    stroke-width="1"
    transform="translate(-283.7348644067,277.8805771369) scale(1,-1) translate(50,-110)"
    />
  
  <line
    x1="305.52951929626414"
    y1="-220.6562301695882"
    x2="305.5160643276912"
    y2="-217.86254706689658"
    stroke="hsla(0,50%,50%,0.6)"
    stroke-width="1"
    transform="translate(-283.7348644067,277.8805771369) scale(1,-1) translate(50,-110)"
    />
  
  <line
    x1="281.75495612609683"
    y1="-310.99122521936954"
    x2="278.23204419889504"
    y2="-266.4088397790055"
    stroke="hsla(0,50%,50%,0.6)"
    stroke-width="1"
    transform="translate(-283.7348644067,277.8805771369) scale(1,-1) translate(50,-110)"
    />
  
  <line
    x1="281.75495612609683"
    y1="-310.99122521936954"
    x2="271.98745707033"
    y2="-294.788711363297"
    stroke="hsla(0,50%,50%,0.6)"
    stroke-width="1"
    transform="translate(-283.7348644067,277.8805771369) scale(1,-1) translate(50,-110)"
    />
  
  <line
    x1="337.90055248618785"
    y1="-260.11049723756906"
    x2="303.8674033149171"
    y2="-223.48066298342542"
    stroke="hsla(0,50%,50%,0.6)"
    stroke-width="1"
    transform="translate(-283.7348644067,277.8805771369) scale(1,-1) translate(50,-110)"
    />
  
  <line
    x1="339.1290217744556"
    y1="-249.3337666558336"
    x2="320.44198895027625"
    y2="-221.73112338858195"
    stroke="hsla(0,50%,50%,0.6)"
    stroke-width="1"
    transform="translate(-283.7348644067,277.8805771369) scale(1,-1) translate(50,-110)"
    />
  
</svg>
