<?xml version="1.0"?>
<!DOCTYPE svg PUBLIC "-//W3C//DTD SVG 1.1//EN"
  "http://www.w3.org/Graphics/SVG/1.1/DTD/svg11.dtd">
<svg
  width="240"
  height="240"
  viewBox="-50 -50 200 200" xmlns="http://www.w3.org/2000/svg" version="1.1">
  <rect
    x="0"
    y="0"
    width="100"
    height="100"
    fill="hsla(206,100%,53%,0.3)"
    stroke="hsl(206,100%,53%)"
    stroke-width="3"
    transform="" />
  
  <path
    d="M 
      15.0850907053
      0
      L
    
      33.4996610167
      0
      L
    
      49.4181102145
      33.1363636363
      L
    
      43.8657295565
      38.2111201517
      L
    
      28.0893151648
      23.9391213598
      L
    
      16.3982588231
      35.5988372191
      L
    
      13.7766423386
      41.0560796972
      L
    
      10.4444662614
      41.5366693129
      L
    
      0
      20.6477367900
      L
    
      0.9891788897
      19.3251371124
      L
    
      0.7875138775
      18.9824287387
      z
    "
    fill="hsla(0,0%,50%,0.3)"
    stroke="hsla(0,0%,50%,1)"
    stroke-width="1"
    transform="translate(-25.7013416540,-21.4100742962) scale(1,-1) translate(50,-110)"
    />
  
  <path
    d="M 
      26.3285625663
      14.9275926925
      L
    
      24.6700316321
      18.3800448413
      L
    
      28.5374538746
      20.6860386313
      L
    
      30.6679813209
      20.6888981409
      z
    "
    fill="hsla(0,0%,50%,0.3)"
    stroke="hsla(0,0%,50%,1)"
    stroke-width="1"
    transform="translate(-25.7013416540,-21.4100742962) scale(1,-1) translate(50,-110)"
    />
  
  <path
    d="M 
      23.8443034127
      20.0989076653
      L
    
      23.5654560635
      20.6793654126
      L
    
      24.4873150873
      20.6806026953
      z
    "
    fill="hsla(0,0%,50%,0.3)"
    stroke="hsla(0,0%,50%,1)"
    stroke-width="1"
    transform="translate(-25.7013416540,-21.4100742962) scale(1,-1) translate(50,-110)"
    />
  
  <path
    d="M 
      30.9597979220
      21.0763335715
      L
    
      30.2983598418
      21.7359985194
      L
    
      32.4009322478
      22.9896808451
      z
    "
    fill="hsla(0,0%,50%,0.3)"
    stroke="hsla(0,0%,50%,1)"
    stroke-width="1"
    transform="translate(-25.7013416540,-21.4100742962) scale(1,-1) translate(50,-110)"
    />
  
  
  <line
    x1="33.49966101672347"
    y1="0"
    x2="49.41811021458443"
    y2="33.13636363636363"
    stroke="hsla(0,50%,50%,0.6)"
    stroke-width="1"
    transform="translate(-25.7013416540,-21.4100742962) scale(1,-1) translate(50,-110)"
    />
  
  <line
    x1="15.44254523753896"
    y1="0"
    x2="43.95785696590738"
    y2="38.12691768085342"
    stroke="hsla(0,50%,50%,0.6)"
    stroke-width="1"
    transform="translate(-25.7013416540,-21.4100742962) scale(1,-1) translate(50,-110)"
    />
  
  <line
    x1="15.301131604958766"
    y1="0"
    x2="43.92134691596355"
    y2="38.16028708133971"
    stroke="hsla(0,50%,50%,0.6)"
    stroke-width="1"
    transform="translate(-25.7013416540,-21.4100742962) scale(1,-1) translate(50,-110)"
    />
  
  <line
    x1="15.085090705380244"
    y1="0"
    x2="43.86572955655845"
    y2="38.21112015176373"
    stroke="hsla(0,50%,50%,0.6)"
    stroke-width="1"
    transform="translate(-25.7013416540,-21.4100742962) scale(1,-1) translate(50,-110)"
    />
  
  <line
    x1="16.673895243613167"
    y1="13.612259039939524"
    x2="43.86572955655845"
    y2="38.21112015176373"
    stroke="hsla(0,50%,50%,0.6)"
    stroke-width="1"
    transform="translate(-25.7013416540,-21.4100742962) scale(1,-1) translate(50,-110)"
    />
  
  <line
    x1="16.673895243613167"
    y1="13.612259039939524"
    x2="43.92134691596355"
    y2="38.16028708133971"
    stroke="hsla(0,50%,50%,0.6)"
    stroke-width="1"
    transform="translate(-25.7013416540,-21.4100742962) scale(1,-1) translate(50,-110)"
    />
  
  <line
    x1="16.673895243613167"
    y1="13.612259039939524"
    x2="43.95785696590738"
    y2="38.12691768085342"
    stroke="hsla(0,50%,50%,0.6)"
    stroke-width="1"
    transform="translate(-25.7013416540,-21.4100742962) scale(1,-1) translate(50,-110)"
    />
  
  <line
    x1="15.085090705380244"
    y1="0"
    x2="33.49966101672347"
    y2="0"
    stroke="hsla(0,50%,50%,0.6)"
    stroke-width="1"
    transform="translate(-25.7013416540,-21.4100742962) scale(1,-1) translate(50,-110)"
    />
  
  <line
    x1="16.673895243613167"
    y1="13.612259039939524"
    x2="49.41811021458443"
    y2="33.13636363636363"
    stroke="hsla(0,50%,50%,0.6)"
    stroke-width="1"
    transform="translate(-25.7013416540,-21.4100742962) scale(1,-1) translate(50,-110)"
    />
  
  <line
    x1="0"
    y1="20.64773679008247"
    x2="10.444466261428904"
    y2="41.536669312940276"
    stroke="hsla(0,50%,50%,0.6)"
    stroke-width="1"
    transform="translate(-25.7013416540,-21.4100742962) scale(1,-1) translate(50,-110)"
    />
  
  <line
    x1="0.7875138775085502"
    y1="18.982428738773915"
    x2="13.776642338616208"
    y2="41.05607969728451"
    stroke="hsla(0,50%,50%,0.6)"
    stroke-width="1"
    transform="translate(-25.7013416540,-21.4100742962) scale(1,-1) translate(50,-110)"
    />
  
  <line
    x1="5.926131604958765"
    y1="12.5"
    x2="21.78198746081462"
    y2="24.39189189189189"
    stroke="hsla(0,50%,50%,0.6)"
    stroke-width="1"
    transform="translate(-25.7013416540,-21.4100742962) scale(1,-1) translate(50,-110)"
    />
  
  <line
    x1="15.085090705380244"
    y1="0"
    x2="0.7875138775085502"
    y2="18.982428738773915"
    stroke="hsla(0,50%,50%,0.6)"
    stroke-width="1"
    transform="translate(-25.7013416540,-21.4100742962) scale(1,-1) translate(50,-110)"
    />
  
  <line
    x1="15.301131604958766"
    y1="0"
    x2="5.926131604958765"
    y2="12.5"
    stroke="hsla(0,50%,50%,0.6)"
    stroke-width="1"
    transform="translate(-25.7013416540,-21.4100742962) scale(1,-1) translate(50,-110)"
    />
  
  <line
    x1="15.44254523753896"
    y1="0"
    x2="0"
    y2="20.64773679008247"
    stroke="hsla(0,50%,50%,0.6)"
    stroke-width="1"
    transform="translate(-25.7013416540,-21.4100742962) scale(1,-1) translate(50,-110)"
    />
  
  <line
    x1="33.49966101672347"
    y1="0"
    x2="13.776642338616208"
    y2="41.05607969728451"
    stroke="hsla(0,50%,50%,0.6)"
    stroke-width="1"
    transform="translate(-25.7013416540,-21.4100742962) scale(1,-1) translate(50,-110)"
    />
  
  <line
    x1="0.7875138775085502"
    y1="18.982428738773915"
    x2="21.78198746081462"
    y2="24.39189189189189"
    stroke="hsla(0,50%,50%,0.6)"
    stroke-width="1"
    transform="translate(-25.7013416540,-21.4100742962) scale(1,-1) translate(50,-110)"
    />
  
  <line
    x1="0"
    y1="20.64773679008247"
    x2="31.347360464606016"
    y2="20.689809976753608"
    stroke="hsla(0,50%,50%,0.6)"
    stroke-width="1"
    transform="translate(-25.7013416540,-21.4100742962) scale(1,-1) translate(50,-110)"
    />
  
  <line
    x1="31.347360464606016"
    y1="20.689809976753608"
    x2="10.444466261428904"
    y2="41.536669312940276"
    stroke="hsla(0,50%,50%,0.6)"
    stroke-width="1"
    transform="translate(-25.7013416540,-21.4100742962) scale(1,-1) translate(50,-110)"
    />
  
  <line
    x1="13.776642338616208"
    y1="41.05607969728451"
    x2="10.444466261428904"
    y2="41.536669312940276"
    stroke="hsla(0,50%,50%,0.6)"
    stroke-width="1"
    transform="translate(-25.7013416540,-21.4100742962) scale(1,-1) translate(50,-110)"
    />
  
  <line
    x1="49.41811021458443"
    y1="33.13636363636363"
    x2="43.86572955655845"
    y2="38.21112015176373"
    stroke="hsla(0,50%,50%,0.6)"
    stroke-width="1"
    transform="translate(-25.7013416540,-21.4100742962) scale(1,-1) translate(50,-110)"
    />
  
</svg>
