<?xml version="1.0"?>
<!DOCTYPE svg PUBLIC "-//W3C//DTD SVG 1.1//EN"
  "http://www.w3.org/Graphics/SVG/1.1/DTD/svg11.dtd">
<svg
  width="240"
  height="240"
  viewBox="-500 -500 1000 1000" xmlns="http://www.w3.org/2000/svg" version="1.1">
  <rect
    x="0"
    y="0"
    width="100"
    height="100"
    fill="hsla(206,100%,53%,0.3)"
    stroke="hsl(206,100%,53%)"
    stroke-width="3"
    transform="" />
  
  <path
    d="M 
      142.3293169148
      -14.9260934154
      L
    
      144.2318950951
      -13.9307338921
      L
    
      143.0962655310
      -11.7600367930
      L
    
      143.3474125690
      -10.7232714529
      L
    
      186.6224240981
      -11.8000507283
      L
    
      187.7505105456
      33.5369604270
      L
    
      201.3995008165
      41.7689515365
      L
    
      188.4880147607
      63.1767428246
      L
    
      124.6402013450
      46.2658682403
      L
    
      119.0094539742
      21.0189022871
      L
    
      133.3126255269
      -7.8814627273
      z
    "
    fill="hsla(0,0%,50%,0.3)"
    stroke="hsla(0,0%,50%,1)"
    stroke-width="1"
    transform="translate(-160.2044773954,-24.1253247045)"
    />
  
  
  <line
    x1="138.89968213192992"
    y1="-12.246561711242439"
    x2="142.06855306531227"
    y2="-9.795617638715683"
    stroke="hsla(0,50%,50%,0.6)"
    stroke-width="1"
    transform="translate(-160.2044773954,-24.1253247045)"
    />
  
  <line
    x1="135.3559674124707"
    y1="-9.477900748088347"
    x2="136.17333133958758"
    y2="-8.506848679559837"
    stroke="hsla(0,50%,50%,0.6)"
    stroke-width="1"
    transform="translate(-160.2044773954,-24.1253247045)"
    />
  
  <line
    x1="142.3293169148368"
    y1="-14.926093415408127"
    x2="144.2318950951597"
    y2="-13.93073389217297"
    stroke="hsla(0,50%,50%,0.6)"
    stroke-width="1"
    transform="translate(-160.2044773954,-24.1253247045)"
    />
  
  <line
    x1="135.3559674124707"
    y1="-9.477900748088347"
    x2="147.8174155577402"
    y2="7.7294413694062465"
    stroke="hsla(0,50%,50%,0.6)"
    stroke-width="1"
    transform="translate(-160.2044773954,-24.1253247045)"
    />
  
  <line
    x1="130.04019652319016"
    y1="-1.2693353160291279"
    x2="201.39950081657523"
    y2="41.7689515365922"
    stroke="hsla(0,50%,50%,0.6)"
    stroke-width="1"
    transform="translate(-160.2044773954,-24.1253247045)"
    />
  
  <line
    x1="127.38853612696334"
    y1="4.088494104066784"
    x2="153.84815768974727"
    y2="21.77459179467187"
    stroke="hsla(0,50%,50%,0.6)"
    stroke-width="1"
    transform="translate(-160.2044773954,-24.1253247045)"
    />
  
  <line
    x1="138.89968213192992"
    y1="-12.246561711242439"
    x2="153.84815768974727"
    y2="21.77459179467187"
    stroke="hsla(0,50%,50%,0.6)"
    stroke-width="1"
    transform="translate(-160.2044773954,-24.1253247045)"
    />
  
  <line
    x1="130.04019652319016"
    y1="-1.2693353160291279"
    x2="145.5399198313515"
    y2="4.857356707258607"
    stroke="hsla(0,50%,50%,0.6)"
    stroke-width="1"
    transform="translate(-160.2044773954,-24.1253247045)"
    />
  
  <line
    x1="127.38853612696334"
    y1="4.088494104066784"
    x2="143.64356277652436"
    y2="9.654890112165692"
    stroke="hsla(0,50%,50%,0.6)"
    stroke-width="1"
    transform="translate(-160.2044773954,-24.1253247045)"
    />
  
  <line
    x1="142.3293169148368"
    y1="-14.926093415408127"
    x2="147.8174155577402"
    y2="7.7294413694062465"
    stroke="hsla(0,50%,50%,0.6)"
    stroke-width="1"
    transform="translate(-160.2044773954,-24.1253247045)"
    />
  
  <line
    x1="119.00945397429014"
    y1="21.018902287133834"
    x2="124.64020134507734"
    y2="46.26586824037479"
    stroke="hsla(0,50%,50%,0.6)"
    stroke-width="1"
    transform="translate(-160.2044773954,-24.1253247045)"
    />
  
  <line
    x1="186.6224240981947"
    y1="-11.800050728328651"
    x2="136.7395184336353"
    y2="-10.558852237156005"
    stroke="hsla(0,50%,50%,0.6)"
    stroke-width="1"
    transform="translate(-160.2044773954,-24.1253247045)"
    />
  
  <line
    x1="186.6224240981947"
    y1="-11.800050728328651"
    x2="188.48801476078884"
    y2="63.17674282460772"
    stroke="hsla(0,50%,50%,0.6)"
    stroke-width="1"
    transform="translate(-160.2044773954,-24.1253247045)"
    />
  
  <line
    x1="124.64020134507734"
    y1="46.26586824037479"
    x2="188.48801476078884"
    y2="63.17674282460772"
    stroke="hsla(0,50%,50%,0.6)"
    stroke-width="1"
    transform="translate(-160.2044773954,-24.1253247045)"
    />
  
  <line
    x1="142.06855306531227"
    y1="-9.795617638715683"
    x2="133.3126255269097"
    y2="-7.881462727311751"
    stroke="hsla(0,50%,50%,0.6)"
    stroke-width="1"
    transform="translate(-160.2044773954,-24.1253247045)"
    />
  
  <line
    x1="136.7395184336353"
    y1="-10.558852237156005"
    x2="136.17333133958758"
    y2="-8.506848679559837"
    stroke="hsla(0,50%,50%,0.6)"
    stroke-width="1"
    transform="translate(-160.2044773954,-24.1253247045)"
    />
  
  <line
    x1="145.5399198313515"
    y1="4.857356707258607"
    x2="143.64356277652436"
    y2="9.654890112165692"
    stroke="hsla(0,50%,50%,0.6)"
    stroke-width="1"
    transform="translate(-160.2044773954,-24.1253247045)"
    />
  
  <line
    x1="133.3126255269097"
    y1="-7.881462727311751"
    x2="119.00945397429014"
    y2="21.018902287133834"
    stroke="hsla(0,50%,50%,0.6)"
    stroke-width="1"
    transform="translate(-160.2044773954,-24.1253247045)"
    />
  
  <line
    x1="144.2318950951597"
    y1="-13.93073389217297"
    x2="142.06855306531227"
    y2="-9.795617638715683"
    stroke="hsla(0,50%,50%,0.6)"
    stroke-width="1"
    transform="translate(-160.2044773954,-24.1253247045)"
    />
  
  <line
    x1="142.3293169148368"
    y1="-14.926093415408127"
    x2="133.3126255269097"
    y2="-7.881462727311751"
    stroke="hsla(0,50%,50%,0.6)"
    stroke-width="1"
    transform="translate(-160.2044773954,-24.1253247045)"
    />
  
  <line
    x1="147.8174155577402"
    y1="7.7294413694062465"
    x2="119.00945397429014"
    y2="21.018902287133834"
    stroke="hsla(0,50%,50%,0.6)"
    stroke-width="1"
    transform="translate(-160.2044773954,-24.1253247045)"
    />
  
  <line
    x1="153.84815768974727"
    y1="21.77459179467187"
    x2="124.64020134507734"
    y2="46.26586824037479"
    stroke="hsla(0,50%,50%,0.6)"
    stroke-width="1"
    transform="translate(-160.2044773954,-24.1253247045)"
    />
  
  <line
    x1="201.39950081657523"
    y1="41.7689515365922"
    x2="188.48801476078884"
    y2="63.17674282460772"
    stroke="hsla(0,50%,50%,0.6)"
    stroke-width="1"
    transform="translate(-160.2044773954,-24.1253247045)"
    />
  
</svg>
