<?xml version="1.0"?>
<!DOCTYPE svg PUBLIC "-//W3C//DTD SVG 1.1//EN"
  "http://www.w3.org/Graphics/SVG/1.1/DTD/svg11.dtd">
<svg
  width="240"
  height="240"
  viewBox="-500 -500 1000 1000" xmlns="http://www.w3.org/2000/svg" version="1.1">
  <rect
    x="0"
    y="0"
    width="100"
    height="100"
    fill="hsla(206,100%,53%,0.3)"
    stroke="hsl(206,100%,53%)"
    stroke-width="3"
    transform="" />
  
  <path
    d="M 
      350
      166.6666666666
      L
    
      438.2352941176
      213.7254901960
      L
    
      404.4117647058
      224.0196078431
      L
    
      392.6470588235
      246.0784313725
      L
    
      348.5294117647
      222.5490196078
      L
    
      360.2941176470
      200.4901960784
      z
    "
    fill="hsla(0,0%,50%,0.3)"
    stroke="hsla(0,0%,50%,1)"
    stroke-width="1"
    transform="translate(-393.3823529411,-206.3725490196)"
    />
  
  
  <line
    x1="394.11764705882354"
    y1="190.19607843137254"
    x2="404.4117647058824"
    y2="224.01960784313727"
    stroke="hsla(0,50%,50%,0.6)"
    stroke-width="1"
    transform="translate(-393.3823529411,-206.3725490196)"
    />
  
  <line
    x1="382.3529411764706"
    y1="212.2549019607843"
    x2="392.6470588235294"
    y2="246.07843137254903"
    stroke="hsla(0,50%,50%,0.6)"
    stroke-width="1"
    transform="translate(-393.3823529411,-206.3725490196)"
    />
  
  <line
    x1="350"
    y1="166.66666666666666"
    x2="360.29411764705884"
    y2="200.49019607843138"
    stroke="hsla(0,50%,50%,0.6)"
    stroke-width="1"
    transform="translate(-393.3823529411,-206.3725490196)"
    />
  
  <line
    x1="350"
    y1="166.66666666666666"
    x2="438.2352941176471"
    y2="213.72549019607843"
    stroke="hsla(0,50%,50%,0.6)"
    stroke-width="1"
    transform="translate(-393.3823529411,-206.3725490196)"
    />
  
  <line
    x1="360.29411764705884"
    y1="200.49019607843138"
    x2="404.4117647058824"
    y2="224.01960784313727"
    stroke="hsla(0,50%,50%,0.6)"
    stroke-width="1"
    transform="translate(-393.3823529411,-206.3725490196)"
    />
  
  <line
    x1="348.52941176470586"
    y1="222.54901960784315"
    x2="392.6470588235294"
    y2="246.07843137254903"
    stroke="hsla(0,50%,50%,0.6)"
    stroke-width="1"
    transform="translate(-393.3823529411,-206.3725490196)"
    />
  
  <line
    x1="372.05882352941177"
    y1="178.4313725490196"
    x2="348.52941176470586"
    y2="222.54901960784315"
    stroke="hsla(0,50%,50%,0.6)"
    stroke-width="1"
    transform="translate(-393.3823529411,-206.3725490196)"
    />
  
  <line
    x1="394.11764705882354"
    y1="190.19607843137254"
    x2="382.3529411764706"
    y2="212.2549019607843"
    stroke="hsla(0,50%,50%,0.6)"
    stroke-width="1"
    transform="translate(-393.3823529411,-206.3725490196)"
    />
  
  <line
    x1="416.1764705882353"
    y1="201.9607843137255"
    x2="392.6470588235294"
    y2="246.07843137254903"
    stroke="hsla(0,50%,50%,0.6)"
    stroke-width="1"
    transform="translate(-393.3823529411,-206.3725490196)"
    />
  
  <line
    x1="394.11764705882354"
    y1="190.19607843137254"
    x2="360.29411764705884"
    y2="200.49019607843138"
    stroke="hsla(0,50%,50%,0.6)"
    stroke-width="1"
    transform="translate(-393.3823529411,-206.3725490196)"
    />
  
  <line
    x1="382.3529411764706"
    y1="212.2549019607843"
    x2="348.52941176470586"
    y2="222.54901960784315"
    stroke="hsla(0,50%,50%,0.6)"
    stroke-width="1"
    transform="translate(-393.3823529411,-206.3725490196)"
    />
  
  <line
    x1="438.2352941176471"
    y1="213.72549019607843"
    x2="404.4117647058824"
    y2="224.01960784313727"
    stroke="hsla(0,50%,50%,0.6)"
    stroke-width="1"
    transform="translate(-393.3823529411,-206.3725490196)"
    />
  
</svg>
