<?xml version="1.0"?>
<!DOCTYPE svg PUBLIC "-//W3C//DTD SVG 1.1//EN"
  "http://www.w3.org/Graphics/SVG/1.1/DTD/svg11.dtd">
<svg
  width="240"
  height="240"
  viewBox="-50 -50 200 200" xmlns="http://www.w3.org/2000/svg" version="1.1">
  <rect
    x="0"
    y="0"
    width="100"
    height="100"
    fill="hsla(206,100%,53%,0.3)"
    stroke="hsl(206,100%,53%)"
    stroke-width="3"
    transform="" />
  
  <path
    d="M 
      42.8571428571
      40
      L
    
      131.0924369747
      87.0588235294
      L
    
      97.2689075630
      97.3529411764
      L
    
      85.5042016806
      119.4117647058
      L
    
      41.3865546218
      95.8823529411
      L
    
      53.1512605042
      73.8235294117
      z
    "
    fill="hsla(0,0%,50%,0.3)"
    stroke="hsla(0,0%,50%,1)"
    stroke-width="1"
    transform="translate(-59.1255252100,-85.8639705882) scale(1,-1) translate(50,-110)"
    />
  
  
  <line
    x1="86.97478991596638"
    y1="63.529411764705884"
    x2="97.26890756302521"
    y2="97.3529411764706"
    stroke="hsla(0,50%,50%,0.6)"
    stroke-width="1"
    transform="translate(-59.1255252100,-85.8639705882) scale(1,-1) translate(50,-110)"
    />
  
  <line
    x1="75.21008403361344"
    y1="85.58823529411765"
    x2="85.50420168067227"
    y2="119.41176470588235"
    stroke="hsla(0,50%,50%,0.6)"
    stroke-width="1"
    transform="translate(-59.1255252100,-85.8639705882) scale(1,-1) translate(50,-110)"
    />
  
  <line
    x1="42.857142857142854"
    y1="40"
    x2="53.15126050420168"
    y2="73.82352941176471"
    stroke="hsla(0,50%,50%,0.6)"
    stroke-width="1"
    transform="translate(-59.1255252100,-85.8639705882) scale(1,-1) translate(50,-110)"
    />
  
  <line
    x1="42.857142857142854"
    y1="40"
    x2="131.0924369747899"
    y2="87.05882352941177"
    stroke="hsla(0,50%,50%,0.6)"
    stroke-width="1"
    transform="translate(-59.1255252100,-85.8639705882) scale(1,-1) translate(50,-110)"
    />
  
  <line
    x1="53.15126050420168"
    y1="73.82352941176471"
    x2="97.26890756302521"
    y2="97.3529411764706"
    stroke="hsla(0,50%,50%,0.6)"
    stroke-width="1"
    transform="translate(-59.1255252100,-85.8639705882) scale(1,-1) translate(50,-110)"
    />
  
  <line
    x1="64.91596638655462"
    y1="51.76470588235294"
    x2="41.38655462184874"
    y2="95.88235294117646"
    stroke="hsla(0,50%,50%,0.6)"
    stroke-width="1"
    transform="translate(-59.1255252100,-85.8639705882) scale(1,-1) translate(50,-110)"
    />
  
  <line
    x1="86.97478991596638"
    y1="63.529411764705884"
    x2="75.21008403361344"
    y2="85.58823529411765"
    stroke="hsla(0,50%,50%,0.6)"
    stroke-width="1"
    transform="translate(-59.1255252100,-85.8639705882) scale(1,-1) translate(50,-110)"
    />
  
  <line
    x1="41.38655462184874"
    y1="95.88235294117646"
    x2="85.50420168067227"
    y2="119.41176470588235"
    stroke="hsla(0,50%,50%,0.6)"
    stroke-width="1"
    transform="translate(-59.1255252100,-85.8639705882) scale(1,-1) translate(50,-110)"
    />
  
  <line
    x1="109.03361344537815"
    y1="75.29411764705883"
    x2="85.50420168067227"
    y2="119.41176470588235"
    stroke="hsla(0,50%,50%,0.6)"
    stroke-width="1"
    transform="translate(-59.1255252100,-85.8639705882) scale(1,-1) translate(50,-110)"
    />
  
  <line
    x1="86.97478991596638"
    y1="63.529411764705884"
    x2="53.15126050420168"
    y2="73.82352941176471"
    stroke="hsla(0,50%,50%,0.6)"
    stroke-width="1"
    transform="translate(-59.1255252100,-85.8639705882) scale(1,-1) translate(50,-110)"
    />
  
  <line
    x1="75.21008403361344"
    y1="85.58823529411765"
    x2="41.38655462184874"
    y2="95.88235294117646"
    stroke="hsla(0,50%,50%,0.6)"
    stroke-width="1"
    transform="translate(-59.1255252100,-85.8639705882) scale(1,-1) translate(50,-110)"
    />
  
  <line
    x1="131.0924369747899"
    y1="87.05882352941177"
    x2="97.26890756302521"
    y2="97.3529411764706"
    stroke="hsla(0,50%,50%,0.6)"
    stroke-width="1"
    transform="translate(-59.1255252100,-85.8639705882) scale(1,-1) translate(50,-110)"
    />
  
</svg>
