<?xml version="1.0"?>
<!DOCTYPE svg PUBLIC "-//W3C//DTD SVG 1.1//EN"
  "http://www.w3.org/Graphics/SVG/1.1/DTD/svg11.dtd">
<svg
  width="240"
  height="240"
  viewBox="-50 -50 200 200" xmlns="http://www.w3.org/2000/svg" version="1.1">
  <rect
    x="0"
    y="0"
    width="100"
    height="100"
    fill="hsla(206,100%,53%,0.3)"
    stroke="hsl(206,100%,53%)"
    stroke-width="3"
    transform="" />
  
  <path
    d="M 
      40
      42.8571428571
      L
    
      100
      122.8571428571
      L
    
      65
      117.8571428571
      L
    
      45
      132.8571428571
      L
    
      15
      92.8571428571
      L
    
      35
      77.8571428571
      z
    "
    fill="hsla(0,0%,50%,0.3)"
    stroke="hsla(0,0%,50%,1)"
    stroke-width="1"
    transform="translate(-35.3125,-91.2946428571) scale(1,-1) translate(50,-110)"
    />
  
  
  <line
    x1="40"
    y1="42.857142857142854"
    x2="100"
    y2="122.85714285714286"
    stroke="hsla(0,50%,50%,0.6)"
    stroke-width="1"
    transform="translate(-35.3125,-91.2946428571) scale(1,-1) translate(50,-110)"
    />
  
  <line
    x1="40"
    y1="42.857142857142854"
    x2="35"
    y2="77.85714285714286"
    stroke="hsla(0,50%,50%,0.6)"
    stroke-width="1"
    transform="translate(-35.3125,-91.2946428571) scale(1,-1) translate(50,-110)"
    />
  
  <line
    x1="50"
    y1="97.85714285714286"
    x2="45"
    y2="132.85714285714286"
    stroke="hsla(0,50%,50%,0.6)"
    stroke-width="1"
    transform="translate(-35.3125,-91.2946428571) scale(1,-1) translate(50,-110)"
    />
  
  <line
    x1="35"
    y1="77.85714285714286"
    x2="65"
    y2="117.85714285714286"
    stroke="hsla(0,50%,50%,0.6)"
    stroke-width="1"
    transform="translate(-35.3125,-91.2946428571) scale(1,-1) translate(50,-110)"
    />
  
  <line
    x1="70"
    y1="82.85714285714286"
    x2="65"
    y2="117.85714285714286"
    stroke="hsla(0,50%,50%,0.6)"
    stroke-width="1"
    transform="translate(-35.3125,-91.2946428571) scale(1,-1) translate(50,-110)"
    />
  
  <line
    x1="15"
    y1="92.85714285714286"
    x2="45"
    y2="132.85714285714286"
    stroke="hsla(0,50%,50%,0.6)"
    stroke-width="1"
    transform="translate(-35.3125,-91.2946428571) scale(1,-1) translate(50,-110)"
    />
  
  <line
    x1="55"
    y1="62.857142857142854"
    x2="15"
    y2="92.85714285714286"
    stroke="hsla(0,50%,50%,0.6)"
    stroke-width="1"
    transform="translate(-35.3125,-91.2946428571) scale(1,-1) translate(50,-110)"
    />
  
  <line
    x1="35"
    y1="77.85714285714286"
    x2="70"
    y2="82.85714285714286"
    stroke="hsla(0,50%,50%,0.6)"
    stroke-width="1"
    transform="translate(-35.3125,-91.2946428571) scale(1,-1) translate(50,-110)"
    />
  
  <line
    x1="70"
    y1="82.85714285714286"
    x2="50"
    y2="97.85714285714286"
    stroke="hsla(0,50%,50%,0.6)"
    stroke-width="1"
    transform="translate(-35.3125,-91.2946428571) scale(1,-1) translate(50,-110)"
    />
  
  <line
    x1="15"
    y1="92.85714285714286"
    x2="50"
    y2="97.85714285714286"
    stroke="hsla(0,50%,50%,0.6)"
    stroke-width="1"
    transform="translate(-35.3125,-91.2946428571) scale(1,-1) translate(50,-110)"
    />
  
  <line
    x1="65"
    y1="117.85714285714286"
    x2="100"
    y2="122.85714285714286"
    stroke="hsla(0,50%,50%,0.6)"
    stroke-width="1"
    transform="translate(-35.3125,-91.2946428571) scale(1,-1) translate(50,-110)"
    />
  
  <line
    x1="85"
    y1="102.85714285714286"
    x2="45"
    y2="132.85714285714286"
    stroke="hsla(0,50%,50%,0.6)"
    stroke-width="1"
    transform="translate(-35.3125,-91.2946428571) scale(1,-1) translate(50,-110)"
    />
  
</svg>
