<?xml version="1.0"?>
<!DOCTYPE svg PUBLIC "-//W3C//DTD SVG 1.1//EN"
  "http://www.w3.org/Graphics/SVG/1.1/DTD/svg11.dtd">
<svg
  width="240"
  height="240"
  viewBox="-500 -500 1000 1000" xmlns="http://www.w3.org/2000/svg" version="1.1">
  <rect
    x="0"
    y="0"
    width="100"
    height="100"
    fill="hsla(206,100%,53%,0.3)"
    stroke="hsl(206,100%,53%)"
    stroke-width="3"
    transform="" />
  
  <path
    d="M 
      42.8571428571
      40
      L
    
      115.2709359605
      108.9655172413
      L
    
      79.9261083743
      109.8275862068
      L
    
      62.6847290640
      127.9310344827
      L
    
      26.4778325123
      93.4482758620
      L
    
      43.7192118226
      75.3448275862
      z
    "
    fill="hsla(0,0%,50%,0.3)"
    stroke="hsla(0,0%,50%,1)"
    stroke-width="1"
    transform="translate(-70.8743842364,-83.9655172413)"
    />
  
  
  <line
    x1="79.06403940886699"
    y1="74.48275862068965"
    x2="79.92610837438424"
    y2="109.82758620689656"
    stroke="hsla(0,50%,50%,0.6)"
    stroke-width="1"
    transform="translate(-70.8743842364,-83.9655172413)"
    />
  
  <line
    x1="61.82266009852217"
    y1="92.58620689655173"
    x2="62.68472906403941"
    y2="127.93103448275862"
    stroke="hsla(0,50%,50%,0.6)"
    stroke-width="1"
    transform="translate(-70.8743842364,-83.9655172413)"
    />
  
  <line
    x1="42.857142857142854"
    y1="40"
    x2="43.7192118226601"
    y2="75.34482758620689"
    stroke="hsla(0,50%,50%,0.6)"
    stroke-width="1"
    transform="translate(-70.8743842364,-83.9655172413)"
    />
  
  <line
    x1="42.857142857142854"
    y1="40"
    x2="115.27093596059113"
    y2="108.96551724137932"
    stroke="hsla(0,50%,50%,0.6)"
    stroke-width="1"
    transform="translate(-70.8743842364,-83.9655172413)"
    />
  
  <line
    x1="43.7192118226601"
    y1="75.34482758620689"
    x2="79.92610837438424"
    y2="109.82758620689656"
    stroke="hsla(0,50%,50%,0.6)"
    stroke-width="1"
    transform="translate(-70.8743842364,-83.9655172413)"
    />
  
  <line
    x1="26.47783251231527"
    y1="93.44827586206897"
    x2="62.68472906403941"
    y2="127.93103448275862"
    stroke="hsla(0,50%,50%,0.6)"
    stroke-width="1"
    transform="translate(-70.8743842364,-83.9655172413)"
    />
  
  <line
    x1="60.960591133004925"
    y1="57.241379310344826"
    x2="26.47783251231527"
    y2="93.44827586206897"
    stroke="hsla(0,50%,50%,0.6)"
    stroke-width="1"
    transform="translate(-70.8743842364,-83.9655172413)"
    />
  
  <line
    x1="79.06403940886699"
    y1="74.48275862068965"
    x2="61.82266009852217"
    y2="92.58620689655173"
    stroke="hsla(0,50%,50%,0.6)"
    stroke-width="1"
    transform="translate(-70.8743842364,-83.9655172413)"
    />
  
  <line
    x1="79.06403940886699"
    y1="74.48275862068965"
    x2="43.7192118226601"
    y2="75.34482758620689"
    stroke="hsla(0,50%,50%,0.6)"
    stroke-width="1"
    transform="translate(-70.8743842364,-83.9655172413)"
    />
  
  <line
    x1="97.16748768472907"
    y1="91.72413793103448"
    x2="62.68472906403941"
    y2="127.93103448275862"
    stroke="hsla(0,50%,50%,0.6)"
    stroke-width="1"
    transform="translate(-70.8743842364,-83.9655172413)"
    />
  
  <line
    x1="61.82266009852217"
    y1="92.58620689655173"
    x2="26.47783251231527"
    y2="93.44827586206897"
    stroke="hsla(0,50%,50%,0.6)"
    stroke-width="1"
    transform="translate(-70.8743842364,-83.9655172413)"
    />
  
  <line
    x1="115.27093596059113"
    y1="108.96551724137932"
    x2="79.92610837438424"
    y2="109.82758620689656"
    stroke="hsla(0,50%,50%,0.6)"
    stroke-width="1"
    transform="translate(-70.8743842364,-83.9655172413)"
    />
  
</svg>
