<?xml version="1.0"?>
<!DOCTYPE svg PUBLIC "-//W3C//DTD SVG 1.1//EN"
  "http://www.w3.org/Graphics/SVG/1.1/DTD/svg11.dtd">
<svg
  width="240"
  height="240"
  viewBox="-500 -500 1000 1000" xmlns="http://www.w3.org/2000/svg" version="1.1">
  <rect
    x="0"
    y="0"
    width="100"
    height="100"
    fill="hsla(206,100%,53%,0.3)"
    stroke="hsl(206,100%,53%)"
    stroke-width="3"
    transform="" />
  
  <path
    d="M 
      42.8571428571
      40
      L
    
      81.3186813186
      132.3076923076
      L
    
      48.6263736263
      118.8461538461
      L
    
      25.5494505494
      128.4615384615
      L
    
      6.3186813186
      82.3076923076
      L
    
      29.3956043956
      72.6923076923
      z
    "
    fill="hsla(0,0%,50%,0.3)"
    stroke="hsla(0,0%,50%,1)"
    stroke-width="1"
    transform="translate(-43.8186813186,-86.1538461538)"
    />
  
  
  <line
    x1="42.857142857142854"
    y1="40"
    x2="81.31868131868131"
    y2="132.30769230769232"
    stroke="hsla(0,50%,50%,0.6)"
    stroke-width="1"
    transform="translate(-43.8186813186,-86.1538461538)"
    />
  
  <line
    x1="29.395604395604394"
    y1="72.6923076923077"
    x2="48.62637362637363"
    y2="118.84615384615384"
    stroke="hsla(0,50%,50%,0.6)"
    stroke-width="1"
    transform="translate(-43.8186813186,-86.1538461538)"
    />
  
  <line
    x1="6.318681318681318"
    y1="82.3076923076923"
    x2="25.54945054945055"
    y2="128.46153846153845"
    stroke="hsla(0,50%,50%,0.6)"
    stroke-width="1"
    transform="translate(-43.8186813186,-86.1538461538)"
    />
  
  <line
    x1="42.857142857142854"
    y1="40"
    x2="29.395604395604394"
    y2="72.6923076923077"
    stroke="hsla(0,50%,50%,0.6)"
    stroke-width="1"
    transform="translate(-43.8186813186,-86.1538461538)"
    />
  
  <line
    x1="39.010989010989015"
    y1="95.76923076923077"
    x2="25.54945054945055"
    y2="128.46153846153845"
    stroke="hsla(0,50%,50%,0.6)"
    stroke-width="1"
    transform="translate(-43.8186813186,-86.1538461538)"
    />
  
  <line
    x1="62.08791208791209"
    y1="86.15384615384616"
    x2="48.62637362637363"
    y2="118.84615384615384"
    stroke="hsla(0,50%,50%,0.6)"
    stroke-width="1"
    transform="translate(-43.8186813186,-86.1538461538)"
    />
  
  <line
    x1="29.395604395604394"
    y1="72.6923076923077"
    x2="62.08791208791209"
    y2="86.15384615384616"
    stroke="hsla(0,50%,50%,0.6)"
    stroke-width="1"
    transform="translate(-43.8186813186,-86.1538461538)"
    />
  
  <line
    x1="6.318681318681318"
    y1="82.3076923076923"
    x2="39.010989010989015"
    y2="95.76923076923077"
    stroke="hsla(0,50%,50%,0.6)"
    stroke-width="1"
    transform="translate(-43.8186813186,-86.1538461538)"
    />
  
  <line
    x1="52.472527472527474"
    y1="63.07692307692308"
    x2="6.318681318681318"
    y2="82.3076923076923"
    stroke="hsla(0,50%,50%,0.6)"
    stroke-width="1"
    transform="translate(-43.8186813186,-86.1538461538)"
    />
  
  <line
    x1="48.62637362637363"
    y1="118.84615384615384"
    x2="81.31868131868131"
    y2="132.30769230769232"
    stroke="hsla(0,50%,50%,0.6)"
    stroke-width="1"
    transform="translate(-43.8186813186,-86.1538461538)"
    />
  
  <line
    x1="62.08791208791209"
    y1="86.15384615384616"
    x2="39.010989010989015"
    y2="95.76923076923077"
    stroke="hsla(0,50%,50%,0.6)"
    stroke-width="1"
    transform="translate(-43.8186813186,-86.1538461538)"
    />
  
  <line
    x1="71.7032967032967"
    y1="109.23076923076923"
    x2="25.54945054945055"
    y2="128.46153846153845"
    stroke="hsla(0,50%,50%,0.6)"
    stroke-width="1"
    transform="translate(-43.8186813186,-86.1538461538)"
    />
  
</svg>
