<?xml version="1.0"?>
<!DOCTYPE svg PUBLIC "-//W3C//DTD SVG 1.1//EN"
  "http://www.w3.org/Graphics/SVG/1.1/DTD/svg11.dtd">
<svg
  width="240"
  height="240"
  viewBox="-50 -50 200 200" xmlns="http://www.w3.org/2000/svg" version="1.1">
  <rect
    x="0"
    y="0"
    width="100"
    height="100"
    fill="hsla(206,100%,53%,0.3)"
    stroke="hsl(206,100%,53%)"
    stroke-width="3"
    transform="" />
  
  <path
    d="M 
      41.7668173309
      -1.1182879812
      L
    
      42.2846401247
      0
      L
    
      48.7463924963
      0
      L
    
      50.2944011035
      9.1689740576
      L
    
      59.2678197670
      13.4699590379
      L
    
      53.8021892387
      24.8732518220
      L
    
      84.8571818987
      91.9394865839
      L
    
      78.1769469411
      97.0933913016
      L
    
      75.7066658128
      93.8915357664
      L
    
      64.9843859156
      96.1788840985
      L
    
      65.6295093795
      100
      L
    
      63.9733374570
      100.5756347549
      L
    
      63.0287257963
      108.1339613147
      L
    
      47.7286018418
      106.2218084879
      L
    
      36.5246788370
      0
      z
    "
    fill="hsla(0,0%,50%,0.3)"
    stroke="hsla(0,0%,50%,1)"
    stroke-width="1"
    transform="translate(-46.3051311549,-52.3113751928) scale(1,-1) translate(50,-110)"
    />
  
  
  <line
    x1="41.76681733096459"
    y1="-1.118287981276429"
    x2="84.85718189878824"
    y2="91.93948658394667"
    stroke="hsla(0,50%,50%,0.6)"
    stroke-width="1"
    transform="translate(-46.3051311549,-52.3113751928) scale(1,-1) translate(50,-110)"
    />
  
  <line
    x1="36.810088687219306"
    y1="2.7059049256240746"
    x2="59.26781976706858"
    y2="13.469959037970133"
    stroke="hsla(0,50%,50%,0.6)"
    stroke-width="1"
    transform="translate(-46.3051311549,-52.3113751928) scale(1,-1) translate(50,-110)"
    />
  
  <line
    x1="38.109060365508746"
    y1="15.021155644791277"
    x2="51.69405362876536"
    y2="28.499597281663387"
    stroke="hsla(0,50%,50%,0.6)"
    stroke-width="1"
    transform="translate(-46.3051311549,-52.3113751928) scale(1,-1) translate(50,-110)"
    />
  
  <line
    x1="48.746392496392495"
    y1="0"
    x2="65.62950937950939"
    y2="100"
    stroke="hsla(0,50%,50%,0.6)"
    stroke-width="1"
    transform="translate(-46.3051311549,-52.3113751928) scale(1,-1) translate(50,-110)"
    />
  
  <line
    x1="36.524678837052065"
    y1="0"
    x2="47.72860184186219"
    y2="106.2218084879114"
    stroke="hsla(0,50%,50%,0.6)"
    stroke-width="1"
    transform="translate(-46.3051311549,-52.3113751928) scale(1,-1) translate(50,-110)"
    />
  
  <line
    x1="41.79136176970435"
    y1="49.932205496107315"
    x2="78.17694694113445"
    y2="97.09339130167308"
    stroke="hsla(0,50%,50%,0.6)"
    stroke-width="1"
    transform="translate(-46.3051311549,-52.3113751928) scale(1,-1) translate(50,-110)"
    />
  
  <line
    x1="36.95688761282908"
    y1="4.097671662655201"
    x2="44.62587110281769"
    y2="5.056112816660337"
    stroke="hsla(0,50%,50%,0.6)"
    stroke-width="1"
    transform="translate(-46.3051311549,-52.3113751928) scale(1,-1) translate(50,-110)"
    />
  
  <line
    x1="36.524678837052065"
    y1="0"
    x2="48.746392496392495"
    y2="0"
    stroke="hsla(0,50%,50%,0.6)"
    stroke-width="1"
    transform="translate(-46.3051311549,-52.3113751928) scale(1,-1) translate(50,-110)"
    />
  
  <line
    x1="41.76681733096459"
    y1="-1.118287981276429"
    x2="36.524678837052065"
    y2="0"
    stroke="hsla(0,50%,50%,0.6)"
    stroke-width="1"
    transform="translate(-46.3051311549,-52.3113751928) scale(1,-1) translate(50,-110)"
    />
  
  <line
    x1="40.69955248888595"
    y1="39.58101366065587"
    x2="69.26181440158895"
    y2="58.25979490874861"
    stroke="hsla(0,50%,50%,0.6)"
    stroke-width="1"
    transform="translate(-46.3051311549,-52.3113751928) scale(1,-1) translate(50,-110)"
    />
  
  <line
    x1="69.26181440158895"
    y1="58.25979490874861"
    x2="63.02872579635017"
    y2="108.13396131475011"
    stroke="hsla(0,50%,50%,0.6)"
    stroke-width="1"
    transform="translate(-46.3051311549,-52.3113751928) scale(1,-1) translate(50,-110)"
    />
  
  <line
    x1="48.746392496392495"
    y1="0"
    x2="36.95688761282908"
    y2="4.097671662655201"
    stroke="hsla(0,50%,50%,0.6)"
    stroke-width="1"
    transform="translate(-46.3051311549,-52.3113751928) scale(1,-1) translate(50,-110)"
    />
  
  <line
    x1="41.76681733096459"
    y1="-1.118287981276429"
    x2="36.810088687219306"
    y2="2.7059049256240746"
    stroke="hsla(0,50%,50%,0.6)"
    stroke-width="1"
    transform="translate(-46.3051311549,-52.3113751928) scale(1,-1) translate(50,-110)"
    />
  
  <line
    x1="44.62587110281769"
    y1="5.056112816660337"
    x2="38.109060365508746"
    y2="15.021155644791277"
    stroke="hsla(0,50%,50%,0.6)"
    stroke-width="1"
    transform="translate(-46.3051311549,-52.3113751928) scale(1,-1) translate(50,-110)"
    />
  
  <line
    x1="59.26781976706858"
    y1="13.469959037970133"
    x2="41.79136176970435"
    y2="49.932205496107315"
    stroke="hsla(0,50%,50%,0.6)"
    stroke-width="1"
    transform="translate(-46.3051311549,-52.3113751928) scale(1,-1) translate(50,-110)"
    />
  
  <line
    x1="51.69405362876536"
    y1="28.499597281663387"
    x2="40.69955248888595"
    y2="39.58101366065587"
    stroke="hsla(0,50%,50%,0.6)"
    stroke-width="1"
    transform="translate(-46.3051311549,-52.3113751928) scale(1,-1) translate(50,-110)"
    />
  
  <line
    x1="84.85718189878824"
    y1="91.93948658394667"
    x2="78.17694694113445"
    y2="97.09339130167308"
    stroke="hsla(0,50%,50%,0.6)"
    stroke-width="1"
    transform="translate(-46.3051311549,-52.3113751928) scale(1,-1) translate(50,-110)"
    />
  
  <line
    x1="47.72860184186219"
    y1="106.2218084879114"
    x2="63.02872579635017"
    y2="108.13396131475011"
    stroke="hsla(0,50%,50%,0.6)"
    stroke-width="1"
    transform="translate(-46.3051311549,-52.3113751928) scale(1,-1) translate(50,-110)"
    />
  
  <line
    x1="47.07234617985125"
    y1="100"
    x2="65.62950937950939"
    y2="100"
    stroke="hsla(0,50%,50%,0.6)"
    stroke-width="1"
    transform="translate(-46.3051311549,-52.3113751928) scale(1,-1) translate(50,-110)"
    />
  
  <line
    x1="84.85718189878824"
    y1="91.93948658394667"
    x2="47.07234617985125"
    y2="100"
    stroke="hsla(0,50%,50%,0.6)"
    stroke-width="1"
    transform="translate(-46.3051311549,-52.3113751928) scale(1,-1) translate(50,-110)"
    />
  
  <line
    x1="65.62950937950939"
    y1="100"
    x2="47.72860184186219"
    y2="106.2218084879114"
    stroke="hsla(0,50%,50%,0.6)"
    stroke-width="1"
    transform="translate(-46.3051311549,-52.3113751928) scale(1,-1) translate(50,-110)"
    />
  
</svg>
