<?xml version="1.0"?>
<!DOCTYPE svg PUBLIC "-//W3C//DTD SVG 1.1//EN"
  "http://www.w3.org/Graphics/SVG/1.1/DTD/svg11.dtd">
<svg
  width="240"
  height="240"
  viewBox="-500 -500 1000 1000" xmlns="http://www.w3.org/2000/svg" version="1.1">
  <rect
    x="0"
    y="0"
    width="100"
    height="100"
    fill="hsla(206,100%,53%,0.3)"
    stroke="hsl(206,100%,53%)"
    stroke-width="3"
    transform="" />
  
  <path
    d="M 
      -25
      75
      L
    
      8.3333333333
      75
      L
    
      50
      116.6666666666
      L
    
      50
      150
      L
    
      -8.3333333333
      91.6666666666
      L
    
      -16.6666666666
      100
      L
    
      -50
      100
      z
    "
    fill="hsla(0,0%,50%,0.3)"
    stroke="hsla(0,0%,50%,1)"
    stroke-width="1"
    transform="translate(0,-112.5)"
    />
  
  
  <line
    x1="-16.666666666666668"
    y1="83.33333333333333"
    x2="-16.666666666666668"
    y2="100"
    stroke="hsla(0,50%,50%,0.6)"
    stroke-width="1"
    transform="translate(0,-112.5)"
    />
  
  <line
    x1="0"
    y1="75"
    x2="0"
    y2="100"
    stroke="hsla(0,50%,50%,0.6)"
    stroke-width="1"
    transform="translate(0,-112.5)"
    />
  
  <line
    x1="33.333333333333336"
    y1="100"
    x2="33.333333333333336"
    y2="116.66666666666667"
    stroke="hsla(0,50%,50%,0.6)"
    stroke-width="1"
    transform="translate(0,-112.5)"
    />
  
  <line
    x1="50"
    y1="116.66666666666667"
    x2="50"
    y2="150"
    stroke="hsla(0,50%,50%,0.6)"
    stroke-width="1"
    transform="translate(0,-112.5)"
    />
  
  <line
    x1="-25"
    y1="75"
    x2="-50"
    y2="100"
    stroke="hsla(0,50%,50%,0.6)"
    stroke-width="1"
    transform="translate(0,-112.5)"
    />
  
  <line
    x1="8.333333333333334"
    y1="75"
    x2="50"
    y2="116.66666666666667"
    stroke="hsla(0,50%,50%,0.6)"
    stroke-width="1"
    transform="translate(0,-112.5)"
    />
  
  <line
    x1="-8.333333333333334"
    y1="75"
    x2="-16.666666666666668"
    y2="83.33333333333333"
    stroke="hsla(0,50%,50%,0.6)"
    stroke-width="1"
    transform="translate(0,-112.5)"
    />
  
  <line
    x1="-8.333333333333334"
    y1="75"
    x2="33.333333333333336"
    y2="116.66666666666667"
    stroke="hsla(0,50%,50%,0.6)"
    stroke-width="1"
    transform="translate(0,-112.5)"
    />
  
  <line
    x1="8.333333333333334"
    y1="75"
    x2="-16.666666666666668"
    y2="100"
    stroke="hsla(0,50%,50%,0.6)"
    stroke-width="1"
    transform="translate(0,-112.5)"
    />
  
  <line
    x1="-25"
    y1="75"
    x2="50"
    y2="150"
    stroke="hsla(0,50%,50%,0.6)"
    stroke-width="1"
    transform="translate(0,-112.5)"
    />
  
  <line
    x1="-25"
    y1="75"
    x2="8.333333333333334"
    y2="75"
    stroke="hsla(0,50%,50%,0.6)"
    stroke-width="1"
    transform="translate(0,-112.5)"
    />
  
  <line
    x1="-16.666666666666668"
    y1="83.33333333333333"
    x2="0"
    y2="83.33333333333333"
    stroke="hsla(0,50%,50%,0.6)"
    stroke-width="1"
    transform="translate(0,-112.5)"
    />
  
  <line
    x1="-50"
    y1="100"
    x2="-16.666666666666668"
    y2="100"
    stroke="hsla(0,50%,50%,0.6)"
    stroke-width="1"
    transform="translate(0,-112.5)"
    />
  
  <line
    x1="0"
    y1="100"
    x2="33.333333333333336"
    y2="100"
    stroke="hsla(0,50%,50%,0.6)"
    stroke-width="1"
    transform="translate(0,-112.5)"
    />
  
  <line
    x1="33.333333333333336"
    y1="116.66666666666667"
    x2="50"
    y2="116.66666666666667"
    stroke="hsla(0,50%,50%,0.6)"
    stroke-width="1"
    transform="translate(0,-112.5)"
    />
  
</svg>
