<?xml version="1.0"?>
<!DOCTYPE svg PUBLIC "-//W3C//DTD SVG 1.1//EN"
  "http://www.w3.org/Graphics/SVG/1.1/DTD/svg11.dtd">
<svg
  width="240"
  height="240"
  viewBox="-500 -500 1000 1000" xmlns="http://www.w3.org/2000/svg" version="1.1">
  <rect
    x="0"
    y="0"
    width="100"
    height="100"
    fill="hsla(206,100%,53%,0.3)"
    stroke="hsl(206,100%,53%)"
    stroke-width="3"
    transform="" />
  
  <path
    d="M 
      1.8484288354
      -246.1182994454
      L
    
      36.4392212144
      -210.0146004301
      L
    
      4.5830162009
      -179.4933130368
      L
    
      -18.7439314714
      -142.0470809928
      L
    
      -61.1829944547
      -168.4842883548
      L
    
      -41.7966728280
      -214.5730129390
      L
    
      -35.2125693160
      -211.8035384209
      L
    
      -39.2754158964
      -217.6783733826
      z
    "
    fill="hsla(0,0%,50%,0.3)"
    stroke="hsla(0,0%,50%,1)"
    stroke-width="1"
    transform="translate(12.3718866201,194.0826902191)"
    />
  
  
  <line
    x1="-16.16797597042514"
    y1="-184.2652495378928"
    x2="-0.5545286506469501"
    y2="-183.66451016635858"
    stroke="hsla(0,50%,50%,0.6)"
    stroke-width="1"
    transform="translate(12.3718866201,194.0826902191)"
    />
  
  <line
    x1="-0.5545286506469501"
    y1="-183.66451016635858"
    x2="-61.182994454713494"
    y2="-168.48428835489833"
    stroke="hsla(0,50%,50%,0.6)"
    stroke-width="1"
    transform="translate(12.3718866201,194.0826902191)"
    />
  
  <line
    x1="-41.79667282809612"
    y1="-214.57301293900184"
    x2="-4.349584103512015"
    y2="-198.82162661737524"
    stroke="hsla(0,50%,50%,0.6)"
    stroke-width="1"
    transform="translate(12.3718866201,194.0826902191)"
    />
  
  <line
    x1="1.8484288354898337"
    y1="-246.11829944547134"
    x2="-39.275415896487985"
    y2="-217.67837338262476"
    stroke="hsla(0,50%,50%,0.6)"
    stroke-width="1"
    transform="translate(12.3718866201,194.0826902191)"
    />
  
  <line
    x1="-32.093345656192234"
    y1="-209.27102587800368"
    x2="6.144220771719039"
    y2="-181.99948012939"
    stroke="hsla(0,50%,50%,0.6)"
    stroke-width="1"
    transform="translate(12.3718866201,194.0826902191)"
    />
  
  <line
    x1="1.8484288354898337"
    y1="-246.11829944547134"
    x2="36.43922121449686"
    y2="-210.01460043010135"
    stroke="hsla(0,50%,50%,0.6)"
    stroke-width="1"
    transform="translate(12.3718866201,194.0826902191)"
    />
  
  <line
    x1="1.8484288354898337"
    y1="-246.11829944547134"
    x2="-32.093345656192234"
    y2="-209.27102587800368"
    stroke="hsla(0,50%,50%,0.6)"
    stroke-width="1"
    transform="translate(12.3718866201,194.0826902191)"
    />
  
  <line
    x1="-32.093345656192234"
    y1="-209.27102587800368"
    x2="2.4509733133086877"
    y2="-177.45061229205174"
    stroke="hsla(0,50%,50%,0.6)"
    stroke-width="1"
    transform="translate(12.3718866201,194.0826902191)"
    />
  
  <line
    x1="-61.182994454713494"
    y1="-168.48428835489833"
    x2="-18.743931471478813"
    y2="-142.04708099282925"
    stroke="hsla(0,50%,50%,0.6)"
    stroke-width="1"
    transform="translate(12.3718866201,194.0826902191)"
    />
  
  <line
    x1="36.43922121449686"
    y1="-210.01460043010135"
    x2="2.4509733133086877"
    y2="-177.45061229205174"
    stroke="hsla(0,50%,50%,0.6)"
    stroke-width="1"
    transform="translate(12.3718866201,194.0826902191)"
    />
  
  <line
    x1="-32.093345656192234"
    y1="-209.27102587800368"
    x2="-61.182994454713494"
    y2="-168.48428835489833"
    stroke="hsla(0,50%,50%,0.6)"
    stroke-width="1"
    transform="translate(12.3718866201,194.0826902191)"
    />
  
  <line
    x1="-4.349584103512015"
    y1="-198.82162661737524"
    x2="-16.16797597042514"
    y2="-184.2652495378928"
    stroke="hsla(0,50%,50%,0.6)"
    stroke-width="1"
    transform="translate(12.3718866201,194.0826902191)"
    />
  
  <line
    x1="6.144220771719039"
    y1="-181.99948012939"
    x2="2.4509733133086877"
    y2="-177.45061229205174"
    stroke="hsla(0,50%,50%,0.6)"
    stroke-width="1"
    transform="translate(12.3718866201,194.0826902191)"
    />
  
  <line
    x1="-39.275415896487985"
    y1="-217.67837338262476"
    x2="-16.16797597042514"
    y2="-184.2652495378928"
    stroke="hsla(0,50%,50%,0.6)"
    stroke-width="1"
    transform="translate(12.3718866201,194.0826902191)"
    />
  
  <line
    x1="6.144220771719039"
    y1="-181.99948012939"
    x2="-18.743931471478813"
    y2="-142.04708099282925"
    stroke="hsla(0,50%,50%,0.6)"
    stroke-width="1"
    transform="translate(12.3718866201,194.0826902191)"
    />
  
  <line
    x1="-41.79667282809612"
    y1="-214.57301293900184"
    x2="-61.182994454713494"
    y2="-168.48428835489833"
    stroke="hsla(0,50%,50%,0.6)"
    stroke-width="1"
    transform="translate(12.3718866201,194.0826902191)"
    />
  
  <line
    x1="-4.349584103512015"
    y1="-198.82162661737524"
    x2="-0.5545286506469501"
    y2="-183.66451016635858"
    stroke="hsla(0,50%,50%,0.6)"
    stroke-width="1"
    transform="translate(12.3718866201,194.0826902191)"
    />
  
  <line
    x1="1.8484288354898337"
    y1="-246.11829944547134"
    x2="-0.5545286506469501"
    y2="-183.66451016635858"
    stroke="hsla(0,50%,50%,0.6)"
    stroke-width="1"
    transform="translate(12.3718866201,194.0826902191)"
    />
  
</svg>
