<?xml version="1.0"?>
<!DOCTYPE svg PUBLIC "-//W3C//DTD SVG 1.1//EN"
  "http://www.w3.org/Graphics/SVG/1.1/DTD/svg11.dtd">
<svg
  width="240"
  height="240"
  viewBox="-500 -500 1000 1000" xmlns="http://www.w3.org/2000/svg" version="1.1">
  <rect
    x="0"
    y="0"
    width="100"
    height="100"
    fill="hsla(206,100%,53%,0.3)"
    stroke="hsl(206,100%,53%)"
    stroke-width="3"
    transform="" />
  
  <path
    d="M 
      21.5676977297
      0
      L
    
      53.0560975609
      19.2297879743
      L
    
      53.0560975609
      30.1249241519
      L
    
      24.6628087844
      40.3805969816
      L
    
      25.6829268292
      53.1986019800
      L
    
      14.8188176166
      43.9362524589
      L
    
      9.3871244635
      45.8981832633
      L
    
      13.8926835300
      43.1466637825
      L
    
      0
      31.3022605165
      L
    
      2.3668178218
      11.8159260971
      z
    "
    fill="hsla(0,0%,50%,0.3)"
    stroke="hsla(0,0%,50%,1)"
    stroke-width="1"
    transform="translate(-29.4710250078,-27.3017092144)"
    />
  
  <path
    d="M 
      22.9821043078
      19.2621798635
      L
    
      24.3735545793
      36.7460550141
      L
    
      41.8458981624
      26.0757934474
      z
    "
    fill="hsla(0,0%,50%,0.3)"
    stroke="hsla(0,0%,50%,1)"
    stroke-width="1"
    transform="translate(-29.4710250078,-27.3017092144)"
    />
  
  
  <line
    x1="21.5676977297151"
    y1="0"
    x2="53.05609756097561"
    y2="19.22978797431492"
    stroke="hsla(0,50%,50%,0.6)"
    stroke-width="1"
    transform="translate(-29.4710250078,-27.3017092144)"
    />
  
  <line
    x1="21.45466391469294"
    y1="0.06955927078286643"
    x2="53.05609756097561"
    y2="19.310191583732653"
    stroke="hsla(0,50%,50%,0.6)"
    stroke-width="1"
    transform="translate(-29.4710250078,-27.3017092144)"
    />
  
  <line
    x1="20.731486667192016"
    y1="0.5145914230911267"
    x2="53.05609756097561"
    y2="19.818944108558608"
    stroke="hsla(0,50%,50%,0.6)"
    stroke-width="1"
    transform="translate(-29.4710250078,-27.3017092144)"
    />
  
  <line
    x1="21.5676977297151"
    y1="0"
    x2="22.53059352939922"
    y2="11.897064201896983"
    stroke="hsla(0,50%,50%,0.6)"
    stroke-width="1"
    transform="translate(-29.4710250078,-27.3017092144)"
    />
  
  <line
    x1="21.45466391469294"
    y1="0.06955927078286643"
    x2="25.682926829268293"
    y2="53.19860198001229"
    stroke="hsla(0,50%,50%,0.6)"
    stroke-width="1"
    transform="translate(-29.4710250078,-27.3017092144)"
    />
  
  <line
    x1="20.731486667192016"
    y1="0.5145914230911267"
    x2="22.130466749124"
    y2="20.22052141725423"
    stroke="hsla(0,50%,50%,0.6)"
    stroke-width="1"
    transform="translate(-29.4710250078,-27.3017092144)"
    />
  
  <line
    x1="53.05609756097561"
    y1="19.22978797431492"
    x2="53.05609756097561"
    y2="30.124924151953426"
    stroke="hsla(0,50%,50%,0.6)"
    stroke-width="1"
    transform="translate(-29.4710250078,-27.3017092144)"
    />
  
  <line
    x1="2.366817821851468"
    y1="11.81592609714685"
    x2="0"
    y2="31.30226051659766"
    stroke="hsla(0,50%,50%,0.6)"
    stroke-width="1"
    transform="translate(-29.4710250078,-27.3017092144)"
    />
  
  <line
    x1="21.5676977297151"
    y1="0"
    x2="2.366817821851468"
    y2="11.81592609714685"
    stroke="hsla(0,50%,50%,0.6)"
    stroke-width="1"
    transform="translate(-29.4710250078,-27.3017092144)"
    />
  
  <line
    x1="2.366817821851468"
    y1="11.81592609714685"
    x2="53.05609756097561"
    y2="30.124924151953426"
    stroke="hsla(0,50%,50%,0.6)"
    stroke-width="1"
    transform="translate(-29.4710250078,-27.3017092144)"
    />
  
  <line
    x1="2.1566776403437102"
    y1="13.546038915302416"
    x2="22.130466749124"
    y2="20.22052141725423"
    stroke="hsla(0,50%,50%,0.6)"
    stroke-width="1"
    transform="translate(-29.4710250078,-27.3017092144)"
    />
  
  <line
    x1="22.53059352939922"
    y1="11.897064201896983"
    x2="2.1566776403437102"
    y2="13.546038915302416"
    stroke="hsla(0,50%,50%,0.6)"
    stroke-width="1"
    transform="translate(-29.4710250078,-27.3017092144)"
    />
  
  <line
    x1="0"
    y1="31.30226051659766"
    x2="25.682926829268293"
    y2="53.19860198001229"
    stroke="hsla(0,50%,50%,0.6)"
    stroke-width="1"
    transform="translate(-29.4710250078,-27.3017092144)"
    />
  
  <line
    x1="22.130466749124"
    y1="20.22052141725423"
    x2="0"
    y2="31.30226051659766"
    stroke="hsla(0,50%,50%,0.6)"
    stroke-width="1"
    transform="translate(-29.4710250078,-27.3017092144)"
    />
  
  <line
    x1="53.05609756097561"
    y1="19.22978797431492"
    x2="9.387124463519314"
    y2="45.898183263378776"
    stroke="hsla(0,50%,50%,0.6)"
    stroke-width="1"
    transform="translate(-29.4710250078,-27.3017092144)"
    />
  
  <line
    x1="53.05609756097561"
    y1="19.310191583732653"
    x2="9.387124463519314"
    y2="45.898183263378776"
    stroke="hsla(0,50%,50%,0.6)"
    stroke-width="1"
    transform="translate(-29.4710250078,-27.3017092144)"
    />
  
  <line
    x1="53.05609756097561"
    y1="19.818944108558608"
    x2="9.387124463519314"
    y2="45.898183263378776"
    stroke="hsla(0,50%,50%,0.6)"
    stroke-width="1"
    transform="translate(-29.4710250078,-27.3017092144)"
    />
  
  <line
    x1="53.05609756097561"
    y1="30.124924151953426"
    x2="9.387124463519314"
    y2="45.898183263378776"
    stroke="hsla(0,50%,50%,0.6)"
    stroke-width="1"
    transform="translate(-29.4710250078,-27.3017092144)"
    />
  
</svg>
