<?xml version="1.0"?>
<!DOCTYPE svg PUBLIC "-//W3C//DTD SVG 1.1//EN"
  "http://www.w3.org/Graphics/SVG/1.1/DTD/svg11.dtd">
<svg
  width="240"
  height="240"
  viewBox="-500 -500 1000 1000" xmlns="http://www.w3.org/2000/svg" version="1.1">
  <rect
    x="0"
    y="0"
    width="100"
    height="100"
    fill="hsla(206,100%,53%,0.3)"
    stroke="hsl(206,100%,53%)"
    stroke-width="3"
    transform="" />
  
  <path
    d="M 
      -91.1161234181
      78.5391247822
      L
    
      4.0503394726
      100.3082693075
      L
    
      5.9644702974
      101.5746401875
      L
    
      -40.4888164480
      183.2517854183
      L
    
      -41.7987186824
      185.2317142715
      L
    
      -41.8037263322
      185.2344820275
      L
    
      -50.5237222224
      184.1067999177
      L
    
      -127.3372574275
      133.2876903155
      z
    "
    fill="hsla(0,0%,50%,0.3)"
    stroke="hsla(0,0%,50%,1)"
    stroke-width="1"
    transform="translate(60.6863935650,-131.8868034049)"
    />
  
  
  <line
    x1="-91.1161234181112"
    y1="78.53912478225587"
    x2="-127.33725742751581"
    y2="133.287690315539"
    stroke="hsla(0,50%,50%,0.6)"
    stroke-width="1"
    transform="translate(60.6863935650,-131.8868034049)"
    />
  
  <line
    x1="-43.926832715289805"
    y1="183.90079377126244"
    x2="-43.92708442161592"
    y2="184.07121321974944"
    stroke="hsla(0,50%,50%,0.6)"
    stroke-width="1"
    transform="translate(60.6863935650,-131.8868034049)"
    />
  
  <line
    x1="0"
    y1="99.38176197836167"
    x2="0"
    y2="100"
    stroke="hsla(0,50%,50%,0.6)"
    stroke-width="1"
    transform="translate(60.6863935650,-131.8868034049)"
    />
  
  <line
    x1="-43.788169156379425"
    y1="183.9707550709684"
    x2="-43.77793486122565"
    y2="184.9791746091895"
    stroke="hsla(0,50%,50%,0.6)"
    stroke-width="1"
    transform="translate(60.6863935650,-131.8868034049)"
    />
  
  <line
    x1="-43.66548866808059"
    y1="184.56867022708738"
    x2="-43.77793486122565"
    y2="184.9791746091895"
    stroke="hsla(0,50%,50%,0.6)"
    stroke-width="1"
    transform="translate(60.6863935650,-131.8868034049)"
    />
  
  <line
    x1="-42.077167979603125"
    y1="184.97347645028555"
    x2="-42.12327443781067"
    y2="185.14509733101121"
    stroke="hsla(0,50%,50%,0.6)"
    stroke-width="1"
    transform="translate(60.6863935650,-131.8868034049)"
    />
  
  <line
    x1="-91.1161234181112"
    y1="78.53912478225587"
    x2="-86.5018472134484"
    y2="112.58199390898879"
    stroke="hsla(0,50%,50%,0.6)"
    stroke-width="1"
    transform="translate(60.6863935650,-131.8868034049)"
    />
  
  <line
    x1="0"
    y1="99.38176197836167"
    x2="-40.48881644809574"
    y2="183.2517854183645"
    stroke="hsla(0,50%,50%,0.6)"
    stroke-width="1"
    transform="translate(60.6863935650,-131.8868034049)"
    />
  
  <line
    x1="5.964470297462663"
    y1="101.57464018756423"
    x2="-40.48881644809574"
    y2="183.2517854183645"
    stroke="hsla(0,50%,50%,0.6)"
    stroke-width="1"
    transform="translate(60.6863935650,-131.8868034049)"
    />
  
  <line
    x1="-40.48881644809574"
    y1="183.2517854183645"
    x2="-41.79871868242806"
    y2="185.2317142715008"
    stroke="hsla(0,50%,50%,0.6)"
    stroke-width="1"
    transform="translate(60.6863935650,-131.8868034049)"
    />
  
  <line
    x1="-43.72709932627292"
    y1="184.40509423420775"
    x2="-43.66548866808059"
    y2="184.56867022708738"
    stroke="hsla(0,50%,50%,0.6)"
    stroke-width="1"
    transform="translate(60.6863935650,-131.8868034049)"
    />
  
  <line
    x1="-42.38707710084455"
    y1="184.6776619323182"
    x2="-42.12327443781067"
    y2="185.14509733101121"
    stroke="hsla(0,50%,50%,0.6)"
    stroke-width="1"
    transform="translate(60.6863935650,-131.8868034049)"
    />
  
  <line
    x1="4.05033947266722"
    y1="100.30826930750348"
    x2="5.964470297462663"
    y2="101.57464018756423"
    stroke="hsla(0,50%,50%,0.6)"
    stroke-width="1"
    transform="translate(60.6863935650,-131.8868034049)"
    />
  
  <line
    x1="2.7027027027027026"
    y1="100"
    x2="5.964470297462663"
    y2="101.57464018756423"
    stroke="hsla(0,50%,50%,0.6)"
    stroke-width="1"
    transform="translate(60.6863935650,-131.8868034049)"
    />
  
  <line
    x1="-45.75097122539285"
    y1="182.9804430892711"
    x2="-44.34352578360524"
    y2="184.90603159711716"
    stroke="hsla(0,50%,50%,0.6)"
    stroke-width="1"
    transform="translate(60.6863935650,-131.8868034049)"
    />
  
  <line
    x1="-44.54735946233282"
    y1="184.3606149025744"
    x2="-44.12196405843449"
    y2="184.93468427044994"
    stroke="hsla(0,50%,50%,0.6)"
    stroke-width="1"
    transform="translate(60.6863935650,-131.8868034049)"
    />
  
  <line
    x1="-43.72709932627292"
    y1="184.40509423420775"
    x2="-44.34352578360524"
    y2="184.90603159711716"
    stroke="hsla(0,50%,50%,0.6)"
    stroke-width="1"
    transform="translate(60.6863935650,-131.8868034049)"
    />
  
  <line
    x1="-43.66548866808059"
    y1="184.56867022708738"
    x2="-44.12196405843449"
    y2="184.93468427044994"
    stroke="hsla(0,50%,50%,0.6)"
    stroke-width="1"
    transform="translate(60.6863935650,-131.8868034049)"
    />
  
  <line
    x1="-91.1161234181112"
    y1="78.53912478225587"
    x2="4.05033947266722"
    y2="100.30826930750348"
    stroke="hsla(0,50%,50%,0.6)"
    stroke-width="1"
    transform="translate(60.6863935650,-131.8868034049)"
    />
  
  <line
    x1="-43.926832715289805"
    y1="183.90079377126244"
    x2="-44.54735946233282"
    y2="184.3606149025744"
    stroke="hsla(0,50%,50%,0.6)"
    stroke-width="1"
    transform="translate(60.6863935650,-131.8868034049)"
    />
  
  <line
    x1="4.05033947266722"
    y1="100.30826930750348"
    x2="-86.5018472134484"
    y2="112.58199390898879"
    stroke="hsla(0,50%,50%,0.6)"
    stroke-width="1"
    transform="translate(60.6863935650,-131.8868034049)"
    />
  
  <line
    x1="0"
    y1="100"
    x2="2.7027027027027026"
    y2="100"
    stroke="hsla(0,50%,50%,0.6)"
    stroke-width="1"
    transform="translate(60.6863935650,-131.8868034049)"
    />
  
  <line
    x1="-43.788169156379425"
    y1="183.9707550709684"
    x2="-43.92708442161592"
    y2="184.07121321974944"
    stroke="hsla(0,50%,50%,0.6)"
    stroke-width="1"
    transform="translate(60.6863935650,-131.8868034049)"
    />
  
  <line
    x1="-42.38707710084455"
    y1="184.6776619323182"
    x2="-41.80372633224947"
    y2="185.23448202759835"
    stroke="hsla(0,50%,50%,0.6)"
    stroke-width="1"
    transform="translate(60.6863935650,-131.8868034049)"
    />
  
  <line
    x1="-41.79871868242806"
    y1="185.2317142715008"
    x2="-41.80372633224947"
    y2="185.23448202759835"
    stroke="hsla(0,50%,50%,0.6)"
    stroke-width="1"
    transform="translate(60.6863935650,-131.8868034049)"
    />
  
  <line
    x1="-47.22783012071761"
    y1="182.9879377968023"
    x2="-50.52372222244291"
    y2="184.10679991773753"
    stroke="hsla(0,50%,50%,0.6)"
    stroke-width="1"
    transform="translate(60.6863935650,-131.8868034049)"
    />
  
  <line
    x1="-43.72709932627292"
    y1="184.40509423420775"
    x2="-42.580241000952306"
    y2="185.13406206055163"
    stroke="hsla(0,50%,50%,0.6)"
    stroke-width="1"
    transform="translate(60.6863935650,-131.8868034049)"
    />
  
  <line
    x1="-127.33725742751581"
    y1="133.287690315539"
    x2="-50.52372222244291"
    y2="184.10679991773753"
    stroke="hsla(0,50%,50%,0.6)"
    stroke-width="1"
    transform="translate(60.6863935650,-131.8868034049)"
    />
  
  <line
    x1="-42.077167979603125"
    y1="184.97347645028555"
    x2="-42.580241000952306"
    y2="185.13406206055163"
    stroke="hsla(0,50%,50%,0.6)"
    stroke-width="1"
    transform="translate(60.6863935650,-131.8868034049)"
    />
  
  <line
    x1="-45.75097122539285"
    y1="182.9804430892711"
    x2="-42.38707710084455"
    y2="184.6776619323182"
    stroke="hsla(0,50%,50%,0.6)"
    stroke-width="1"
    transform="translate(60.6863935650,-131.8868034049)"
    />
  
  <line
    x1="-47.22783012071761"
    y1="182.9879377968023"
    x2="-43.92708442161592"
    y2="184.07121321974944"
    stroke="hsla(0,50%,50%,0.6)"
    stroke-width="1"
    transform="translate(60.6863935650,-131.8868034049)"
    />
  
  <line
    x1="-42.12327443781067"
    y1="185.14509733101121"
    x2="-41.82106378241158"
    y2="185.23223992420463"
    stroke="hsla(0,50%,50%,0.6)"
    stroke-width="1"
    transform="translate(60.6863935650,-131.8868034049)"
    />
  
  <line
    x1="-45.75097122539285"
    y1="182.9804430892711"
    x2="-47.22783012071761"
    y2="182.9879377968023"
    stroke="hsla(0,50%,50%,0.6)"
    stroke-width="1"
    transform="translate(60.6863935650,-131.8868034049)"
    />
  
  <line
    x1="-41.79871868242806"
    y1="185.2317142715008"
    x2="-41.82106378241158"
    y2="185.23223992420463"
    stroke="hsla(0,50%,50%,0.6)"
    stroke-width="1"
    transform="translate(60.6863935650,-131.8868034049)"
    />
  
  <line
    x1="-50.52372222244291"
    y1="184.10679991773753"
    x2="-41.80372633224947"
    y2="185.23448202759835"
    stroke="hsla(0,50%,50%,0.6)"
    stroke-width="1"
    transform="translate(60.6863935650,-131.8868034049)"
    />
  
</svg>
