<?xml version="1.0"?>
<!DOCTYPE svg PUBLIC "-//W3C//DTD SVG 1.1//EN"
  "http://www.w3.org/Graphics/SVG/1.1/DTD/svg11.dtd">
<svg
  width="240"
  height="240"
  viewBox="-50 -50 200 200" xmlns="http://www.w3.org/2000/svg" version="1.1">
  <rect
    x="0"
    y="0"
    width="100"
    height="100"
    fill="hsla(206,100%,53%,0.3)"
    stroke="hsl(206,100%,53%)"
    stroke-width="3"
    transform="" />
  
  <path
    d="M 
      114.7058823529
      -108.8235294117
      L
    
      102.9411764705
      -86.7647058823
      L
    
      125
      -75
      L
    
      135.2941176470
      -41.1764705882
      L
    
      113.2352941176
      -52.9411764705
      L
    
      101.4705882352
      -30.8823529411
      L
    
      67.6470588235
      -20.5882352941
      L
    
      79.4117647058
      -42.6470588235
      L
    
      57.3529411764
      -54.4117647058
      L
    
      47.0588235294
      -88.2352941176
      L
    
      69.1176470588
      -76.4705882352
      L
    
      80.8823529411
      -98.5294117647
      z
    "
    fill="hsla(0,0%,50%,0.3)"
    stroke="hsla(0,0%,50%,1)"
    stroke-width="1"
    transform="translate(-72.4537568933,85.1641486672) scale(1,-1) translate(50,-110)"
    />
  
  
  <line
    x1="80.88235294117646"
    y1="-98.52941176470588"
    x2="125"
    y2="-75"
    stroke="hsla(0,50%,50%,0.6)"
    stroke-width="1"
    transform="translate(-72.4537568933,85.1641486672) scale(1,-1) translate(50,-110)"
    />
  
  <line
    x1="47.05882352941177"
    y1="-88.23529411764706"
    x2="135.2941176470588"
    y2="-41.1764705882353"
    stroke="hsla(0,50%,50%,0.6)"
    stroke-width="1"
    transform="translate(-72.4537568933,85.1641486672) scale(1,-1) translate(50,-110)"
    />
  
  <line
    x1="114.70588235294117"
    y1="-108.82352941176471"
    x2="80.88235294117646"
    y2="-98.52941176470588"
    stroke="hsla(0,50%,50%,0.6)"
    stroke-width="1"
    transform="translate(-72.4537568933,85.1641486672) scale(1,-1) translate(50,-110)"
    />
  
  <line
    x1="57.35294117647059"
    y1="-54.411764705882355"
    x2="101.47058823529412"
    y2="-30.88235294117647"
    stroke="hsla(0,50%,50%,0.6)"
    stroke-width="1"
    transform="translate(-72.4537568933,85.1641486672) scale(1,-1) translate(50,-110)"
    />
  
  <line
    x1="125"
    y1="-75"
    x2="135.2941176470588"
    y2="-41.1764705882353"
    stroke="hsla(0,50%,50%,0.6)"
    stroke-width="1"
    transform="translate(-72.4537568933,85.1641486672) scale(1,-1) translate(50,-110)"
    />
  
  <line
    x1="125"
    y1="-75"
    x2="57.35294117647059"
    y2="-54.411764705882355"
    stroke="hsla(0,50%,50%,0.6)"
    stroke-width="1"
    transform="translate(-72.4537568933,85.1641486672) scale(1,-1) translate(50,-110)"
    />
  
  <line
    x1="80.88235294117646"
    y1="-98.52941176470588"
    x2="101.47058823529412"
    y2="-30.88235294117647"
    stroke="hsla(0,50%,50%,0.6)"
    stroke-width="1"
    transform="translate(-72.4537568933,85.1641486672) scale(1,-1) translate(50,-110)"
    />
  
  <line
    x1="47.05882352941177"
    y1="-88.23529411764706"
    x2="57.35294117647059"
    y2="-54.411764705882355"
    stroke="hsla(0,50%,50%,0.6)"
    stroke-width="1"
    transform="translate(-72.4537568933,85.1641486672) scale(1,-1) translate(50,-110)"
    />
  
  <line
    x1="101.47058823529412"
    y1="-30.88235294117647"
    x2="67.6470588235294"
    y2="-20.58823529411765"
    stroke="hsla(0,50%,50%,0.6)"
    stroke-width="1"
    transform="translate(-72.4537568933,85.1641486672) scale(1,-1) translate(50,-110)"
    />
  
  <line
    x1="80.88235294117646"
    y1="-98.52941176470588"
    x2="57.35294117647059"
    y2="-54.411764705882355"
    stroke="hsla(0,50%,50%,0.6)"
    stroke-width="1"
    transform="translate(-72.4537568933,85.1641486672) scale(1,-1) translate(50,-110)"
    />
  
  <line
    x1="114.70588235294117"
    y1="-108.82352941176471"
    x2="67.6470588235294"
    y2="-20.58823529411765"
    stroke="hsla(0,50%,50%,0.6)"
    stroke-width="1"
    transform="translate(-72.4537568933,85.1641486672) scale(1,-1) translate(50,-110)"
    />
  
  <line
    x1="125"
    y1="-75"
    x2="101.47058823529412"
    y2="-30.88235294117647"
    stroke="hsla(0,50%,50%,0.6)"
    stroke-width="1"
    transform="translate(-72.4537568933,85.1641486672) scale(1,-1) translate(50,-110)"
    />
  
</svg>
