<?xml version="1.0"?>
<!DOCTYPE svg PUBLIC "-//W3C//DTD SVG 1.1//EN"
  "http://www.w3.org/Graphics/SVG/1.1/DTD/svg11.dtd">
<svg
  width="240"
  height="240"
  viewBox="-500 -500 1000 1000" xmlns="http://www.w3.org/2000/svg" version="1.1">
  <rect
    x="0"
    y="0"
    width="100"
    height="100"
    fill="hsla(206,100%,53%,0.3)"
    stroke="hsl(206,100%,53%)"
    stroke-width="3"
    transform="" />
  
  <path
    d="M 
      14554094114.0384615384
      122509595837.3076923076
      L
    
      14554094120.1923076923
      122509595861.5384615384
      L
    
      14554094111.1538461538
      122509595876.7307692307
      L
    
      14554094099.0384615384
      122509595879.8076923076
      L
    
      14554094083.8461538461
      122509595870.7692307692
      L
    
      14554094080.7692307692
      122509595858.6538461538
      L
    
      14554094089.8076923076
      122509595843.4615384615
      z
    "
    fill="hsla(0,0%,50%,0.3)"
    stroke="hsla(0,0%,50%,1)"
    stroke-width="1"
    transform="translate(-14554094100.4807692307,-122509595859.3269230769)"
    />
  
  <path
    d="M 
      14554094105
      122509595852.5
      L
    
      14554094092.8846153846
      122509595855.5769230769
      L
    
      14554094095.9615384615
      122509595867.6923076923
      L
    
      14554094108.0769230769
      122509595864.6153846153
      z
    "
    fill="hsla(0,0%,50%,0.3)"
    stroke="hsla(0,0%,50%,1)"
    stroke-width="1"
    transform="translate(-14554094100.4807692307,-122509595859.3269230769)"
    />
  
  
  <line
    x1="14554094114.038462"
    y1="122509595837.3077"
    x2="14554094120.192308"
    y2="122509595861.53847"
    stroke="hsla(0,50%,50%,0.6)"
    stroke-width="1"
    transform="translate(-14554094100.4807692307,-122509595859.3269230769)"
    />
  
  <line
    x1="14554094105"
    y1="122509595852.5"
    x2="14554094111.153847"
    y2="122509595876.73077"
    stroke="hsla(0,50%,50%,0.6)"
    stroke-width="1"
    transform="translate(-14554094100.4807692307,-122509595859.3269230769)"
    />
  
  <line
    x1="14554094089.807692"
    y1="122509595843.46153"
    x2="14554094099.038462"
    y2="122509595879.8077"
    stroke="hsla(0,50%,50%,0.6)"
    stroke-width="1"
    transform="translate(-14554094100.4807692307,-122509595859.3269230769)"
    />
  
  <line
    x1="14554094080.76923"
    y1="122509595858.65384"
    x2="14554094083.846153"
    y2="122509595870.76923"
    stroke="hsla(0,50%,50%,0.6)"
    stroke-width="1"
    transform="translate(-14554094100.4807692307,-122509595859.3269230769)"
    />
  
  <line
    x1="14554094089.807692"
    y1="122509595843.46153"
    x2="14554094080.76923"
    y2="122509595858.65384"
    stroke="hsla(0,50%,50%,0.6)"
    stroke-width="1"
    transform="translate(-14554094100.4807692307,-122509595859.3269230769)"
    />
  
  <line
    x1="14554094120.192308"
    y1="122509595861.53847"
    x2="14554094111.153847"
    y2="122509595876.73077"
    stroke="hsla(0,50%,50%,0.6)"
    stroke-width="1"
    transform="translate(-14554094100.4807692307,-122509595859.3269230769)"
    />
  
  <line
    x1="14554094083.846153"
    y1="122509595870.76923"
    x2="14554094099.038462"
    y2="122509595879.8077"
    stroke="hsla(0,50%,50%,0.6)"
    stroke-width="1"
    transform="translate(-14554094100.4807692307,-122509595859.3269230769)"
    />
  
  <line
    x1="14554094114.038462"
    y1="122509595837.3077"
    x2="14554094089.807692"
    y2="122509595843.46153"
    stroke="hsla(0,50%,50%,0.6)"
    stroke-width="1"
    transform="translate(-14554094100.4807692307,-122509595859.3269230769)"
    />
  
  <line
    x1="14554094117.115385"
    y1="122509595849.42308"
    x2="14554094080.76923"
    y2="122509595858.65384"
    stroke="hsla(0,50%,50%,0.6)"
    stroke-width="1"
    transform="translate(-14554094100.4807692307,-122509595859.3269230769)"
    />
  
  <line
    x1="14554094120.192308"
    y1="122509595861.53847"
    x2="14554094083.846153"
    y2="122509595870.76923"
    stroke="hsla(0,50%,50%,0.6)"
    stroke-width="1"
    transform="translate(-14554094100.4807692307,-122509595859.3269230769)"
    />
  
  <line
    x1="14554094111.153847"
    y1="122509595876.73077"
    x2="14554094099.038462"
    y2="122509595879.8077"
    stroke="hsla(0,50%,50%,0.6)"
    stroke-width="1"
    transform="translate(-14554094100.4807692307,-122509595859.3269230769)"
    />
  
</svg>
