<?xml version="1.0"?>
<!DOCTYPE svg PUBLIC "-//W3C//DTD SVG 1.1//EN"
  "http://www.w3.org/Graphics/SVG/1.1/DTD/svg11.dtd">
<svg
  width="240"
  height="240"
  viewBox="-50 -50 200 200" xmlns="http://www.w3.org/2000/svg" version="1.1">
  <rect
    x="0"
    y="0"
    width="100"
    height="100"
    fill="hsla(206,100%,53%,0.3)"
    stroke="hsl(206,100%,53%)"
    stroke-width="3"
    transform="" />
  
  <path
    d="M 
      78.8126196955
      -13.6982159056
      L
    
      123.6119540229
      -4.9232183908
      L
    
      120.1663547625
      12.6677328277
      L
    
      124.64
      15.52
      L
    
      117.3760567911
      26.9131490210
      L
    
      114.8945451372
      39.5821064799
      L
    
      126.4367816091
      50.5747126436
      L
    
      109.1954022988
      68.6781609195
      L
    
      95.7768924302
      61.7397078353
      L
    
      63.6363636363
      24.2424242424
      z
    "
    fill="hsla(0,0%,50%,0.3)"
    stroke="hsla(0,0%,50%,1)"
    stroke-width="1"
    transform="translate(-84.5770948054,-41.0936508586) scale(1,-1) translate(50,-110)"
    />
  
  
  <line
    x1="78.8126196955952"
    y1="-13.698215905654672"
    x2="124.64"
    y2="15.52"
    stroke="hsla(0,50%,50%,0.6)"
    stroke-width="1"
    transform="translate(-84.5770948054,-41.0936508586) scale(1,-1) translate(50,-110)"
    />
  
  <line
    x1="73.33333333333333"
    y1="0"
    x2="126.4367816091954"
    y2="50.57471264367816"
    stroke="hsla(0,50%,50%,0.6)"
    stroke-width="1"
    transform="translate(-84.5770948054,-41.0936508586) scale(1,-1) translate(50,-110)"
    />
  
  <line
    x1="78.8126196955952"
    y1="-13.698215905654672"
    x2="123.6119540229885"
    y2="-4.923218390804598"
    stroke="hsla(0,50%,50%,0.6)"
    stroke-width="1"
    transform="translate(-84.5770948054,-41.0936508586) scale(1,-1) translate(50,-110)"
    />
  
  <line
    x1="81.7910447761194"
    y1="20.049751243781095"
    x2="95.77689243027888"
    y2="61.73970783532536"
    stroke="hsla(0,50%,50%,0.6)"
    stroke-width="1"
    transform="translate(-84.5770948054,-41.0936508586) scale(1,-1) translate(50,-110)"
    />
  
  <line
    x1="63.63636363636363"
    y1="24.242424242424242"
    x2="95.77689243027888"
    y2="61.73970783532536"
    stroke="hsla(0,50%,50%,0.6)"
    stroke-width="1"
    transform="translate(-84.5770948054,-41.0936508586) scale(1,-1) translate(50,-110)"
    />
  
  <line
    x1="81.7910447761194"
    y1="20.049751243781095"
    x2="85.71428571428571"
    y2="50"
    stroke="hsla(0,50%,50%,0.6)"
    stroke-width="1"
    transform="translate(-84.5770948054,-41.0936508586) scale(1,-1) translate(50,-110)"
    />
  
  <line
    x1="73.33333333333333"
    y1="0"
    x2="100"
    y2="0"
    stroke="hsla(0,50%,50%,0.6)"
    stroke-width="1"
    transform="translate(-84.5770948054,-41.0936508586) scale(1,-1) translate(50,-110)"
    />
  
  <line
    x1="100"
    y1="0"
    x2="100"
    y2="54.166666666666664"
    stroke="hsla(0,50%,50%,0.6)"
    stroke-width="1"
    transform="translate(-84.5770948054,-41.0936508586) scale(1,-1) translate(50,-110)"
    />
  
  <line
    x1="95.77689243027888"
    y1="61.73970783532536"
    x2="109.19540229885058"
    y2="68.67816091954023"
    stroke="hsla(0,50%,50%,0.6)"
    stroke-width="1"
    transform="translate(-84.5770948054,-41.0936508586) scale(1,-1) translate(50,-110)"
    />
  
  <line
    x1="85.71428571428571"
    y1="50"
    x2="100"
    y2="54.166666666666664"
    stroke="hsla(0,50%,50%,0.6)"
    stroke-width="1"
    transform="translate(-84.5770948054,-41.0936508586) scale(1,-1) translate(50,-110)"
    />
  
  <line
    x1="123.6119540229885"
    y1="-4.923218390804598"
    x2="109.19540229885058"
    y2="68.67816091954023"
    stroke="hsla(0,50%,50%,0.6)"
    stroke-width="1"
    transform="translate(-84.5770948054,-41.0936508586) scale(1,-1) translate(50,-110)"
    />
  
  <line
    x1="78.8126196955952"
    y1="-13.698215905654672"
    x2="63.63636363636363"
    y2="24.242424242424242"
    stroke="hsla(0,50%,50%,0.6)"
    stroke-width="1"
    transform="translate(-84.5770948054,-41.0936508586) scale(1,-1) translate(50,-110)"
    />
  
  <line
    x1="81.7910447761194"
    y1="20.049751243781095"
    x2="63.63636363636363"
    y2="24.242424242424242"
    stroke="hsla(0,50%,50%,0.6)"
    stroke-width="1"
    transform="translate(-84.5770948054,-41.0936508586) scale(1,-1) translate(50,-110)"
    />
  
  <line
    x1="124.64"
    y1="15.52"
    x2="100"
    y2="54.166666666666664"
    stroke="hsla(0,50%,50%,0.6)"
    stroke-width="1"
    transform="translate(-84.5770948054,-41.0936508586) scale(1,-1) translate(50,-110)"
    />
  
  <line
    x1="126.4367816091954"
    y1="50.57471264367816"
    x2="109.19540229885058"
    y2="68.67816091954023"
    stroke="hsla(0,50%,50%,0.6)"
    stroke-width="1"
    transform="translate(-84.5770948054,-41.0936508586) scale(1,-1) translate(50,-110)"
    />
  
</svg>
