<?xml version="1.0"?>
<!DOCTYPE svg PUBLIC "-//W3C//DTD SVG 1.1//EN"
  "http://www.w3.org/Graphics/SVG/1.1/DTD/svg11.dtd">
<svg
  width="240"
  height="240"
  viewBox="-50 -50 200 200" xmlns="http://www.w3.org/2000/svg" version="1.1">
  <rect
    x="0"
    y="0"
    width="100"
    height="100"
    fill="hsla(206,100%,53%,0.3)"
    stroke="hsl(206,100%,53%)"
    stroke-width="3"
    transform="" />
  
  <path
    d="M 
      72.3529411764
      -140.5882352941
      L
    
      68.5294117647
      -115.8823529411
      L
    
      93.2352941176
      -112.0588235294
      L
    
      114.1176470588
      -83.5294117647
      L
    
      89.4117647058
      -87.3529411764
      L
    
      85.5882352941
      -62.6470588235
      L
    
      57.0588235294
      -41.7647058823
      L
    
      60.8823529411
      -66.4705882352
      L
    
      36.1764705882
      -70.2941176470
      L
    
      15.2941176470
      -98.8235294117
      L
    
      40
      -95
      L
    
      43.8235294117
      -119.7058823529
      z
    "
    fill="hsla(0,0%,50%,0.3)"
    stroke="hsla(0,0%,50%,1)"
    stroke-width="1"
    transform="translate(-40.2793255974,104.3075022977) scale(1,-1) translate(50,-110)"
    />
  
  
  <line
    x1="43.8235294117647"
    y1="-119.70588235294117"
    x2="93.23529411764706"
    y2="-112.05882352941177"
    stroke="hsla(0,50%,50%,0.6)"
    stroke-width="1"
    transform="translate(-40.2793255974,104.3075022977) scale(1,-1) translate(50,-110)"
    />
  
  <line
    x1="15.294117647058824"
    y1="-98.82352941176471"
    x2="114.11764705882354"
    y2="-83.52941176470588"
    stroke="hsla(0,50%,50%,0.6)"
    stroke-width="1"
    transform="translate(-40.2793255974,104.3075022977) scale(1,-1) translate(50,-110)"
    />
  
  <line
    x1="93.23529411764706"
    y1="-112.05882352941177"
    x2="114.11764705882354"
    y2="-83.52941176470588"
    stroke="hsla(0,50%,50%,0.6)"
    stroke-width="1"
    transform="translate(-40.2793255974,104.3075022977) scale(1,-1) translate(50,-110)"
    />
  
  <line
    x1="36.1764705882353"
    y1="-70.29411764705883"
    x2="85.58823529411765"
    y2="-62.64705882352941"
    stroke="hsla(0,50%,50%,0.6)"
    stroke-width="1"
    transform="translate(-40.2793255974,104.3075022977) scale(1,-1) translate(50,-110)"
    />
  
  <line
    x1="43.8235294117647"
    y1="-119.70588235294117"
    x2="85.58823529411765"
    y2="-62.64705882352941"
    stroke="hsla(0,50%,50%,0.6)"
    stroke-width="1"
    transform="translate(-40.2793255974,104.3075022977) scale(1,-1) translate(50,-110)"
    />
  
  <line
    x1="72.3529411764706"
    y1="-140.58823529411765"
    x2="43.8235294117647"
    y2="-119.70588235294117"
    stroke="hsla(0,50%,50%,0.6)"
    stroke-width="1"
    transform="translate(-40.2793255974,104.3075022977) scale(1,-1) translate(50,-110)"
    />
  
  <line
    x1="15.294117647058824"
    y1="-98.82352941176471"
    x2="36.1764705882353"
    y2="-70.29411764705883"
    stroke="hsla(0,50%,50%,0.6)"
    stroke-width="1"
    transform="translate(-40.2793255974,104.3075022977) scale(1,-1) translate(50,-110)"
    />
  
  <line
    x1="93.23529411764706"
    y1="-112.05882352941177"
    x2="36.1764705882353"
    y2="-70.29411764705883"
    stroke="hsla(0,50%,50%,0.6)"
    stroke-width="1"
    transform="translate(-40.2793255974,104.3075022977) scale(1,-1) translate(50,-110)"
    />
  
  <line
    x1="85.58823529411765"
    y1="-62.64705882352941"
    x2="57.05882352941177"
    y2="-41.76470588235294"
    stroke="hsla(0,50%,50%,0.6)"
    stroke-width="1"
    transform="translate(-40.2793255974,104.3075022977) scale(1,-1) translate(50,-110)"
    />
  
  <line
    x1="43.8235294117647"
    y1="-119.70588235294117"
    x2="36.1764705882353"
    y2="-70.29411764705883"
    stroke="hsla(0,50%,50%,0.6)"
    stroke-width="1"
    transform="translate(-40.2793255974,104.3075022977) scale(1,-1) translate(50,-110)"
    />
  
  <line
    x1="72.3529411764706"
    y1="-140.58823529411765"
    x2="57.05882352941177"
    y2="-41.76470588235294"
    stroke="hsla(0,50%,50%,0.6)"
    stroke-width="1"
    transform="translate(-40.2793255974,104.3075022977) scale(1,-1) translate(50,-110)"
    />
  
  <line
    x1="93.23529411764706"
    y1="-112.05882352941177"
    x2="85.58823529411765"
    y2="-62.64705882352941"
    stroke="hsla(0,50%,50%,0.6)"
    stroke-width="1"
    transform="translate(-40.2793255974,104.3075022977) scale(1,-1) translate(50,-110)"
    />
  
</svg>
