<?xml version="1.0"?>
<!DOCTYPE svg PUBLIC "-//W3C//DTD SVG 1.1//EN"
  "http://www.w3.org/Graphics/SVG/1.1/DTD/svg11.dtd">
<svg
  width="240"
  height="240"
  viewBox="-50 -50 200 200" xmlns="http://www.w3.org/2000/svg" version="1.1">
  <rect
    x="0"
    y="0"
    width="100"
    height="100"
    fill="hsla(206,100%,53%,0.3)"
    stroke="hsl(206,100%,53%)"
    stroke-width="3"
    transform="" />
  
  <path
    d="M 
      155.9025380710
      12.2355329949
      L
    
      177.9695431472
      52.4069373942
      L
    
      164.5715253839
      65.8242051830
      L
    
      176.7910659898
      80.0349238578
      L
    
      142.4045694911
      109.6032518132
      L
    
      144.6700507614
      125.3807106598
      L
    
      129.4416243654
      127.5673565013
      L
    
      116.6012031370
      121.6199287513
      L
    
      114.1793570219
      116.2887760857
      L
    
      130.4935597480
      26.1932240943
      z
    "
    fill="hsla(0,0%,50%,0.3)"
    stroke="hsla(0,0%,50%,1)"
    stroke-width="1"
    transform="translate(-125.8790131617,-71.9836084306) scale(1,-1) translate(50,-110)"
    />
  
  
  <line
    x1="155.90253807106598"
    y1="12.235532994923858"
    x2="177.96954314720813"
    y2="52.40693739424704"
    stroke="hsla(0,50%,50%,0.6)"
    stroke-width="1"
    transform="translate(-125.8790131617,-71.9836084306) scale(1,-1) translate(50,-110)"
    />
  
  <line
    x1="130.4935597480117"
    y1="26.193224094313727"
    x2="176.7910659898477"
    y2="80.03492385786802"
    stroke="hsla(0,50%,50%,0.6)"
    stroke-width="1"
    transform="translate(-125.8790131617,-71.9836084306) scale(1,-1) translate(50,-110)"
    />
  
  <line
    x1="130.45685279187816"
    y1="26.395939086294415"
    x2="177.96954314720813"
    y2="52.40693739424704"
    stroke="hsla(0,50%,50%,0.6)"
    stroke-width="1"
    transform="translate(-125.8790131617,-71.9836084306) scale(1,-1) translate(50,-110)"
    />
  
  <line
    x1="114.17935702199662"
    y1="116.2887760857304"
    x2="116.60120313702974"
    y2="121.61992875132123"
    stroke="hsla(0,50%,50%,0.6)"
    stroke-width="1"
    transform="translate(-125.8790131617,-71.9836084306) scale(1,-1) translate(50,-110)"
    />
  
  <line
    x1="124.32868243333661"
    y1="119.42404967303935"
    x2="129.44162436548223"
    y2="127.56735650136666"
    stroke="hsla(0,50%,50%,0.6)"
    stroke-width="1"
    transform="translate(-125.8790131617,-71.9836084306) scale(1,-1) translate(50,-110)"
    />
  
  <line
    x1="130.45685279187816"
    y1="26.395939086294415"
    x2="144.67005076142132"
    y2="125.38071065989848"
    stroke="hsla(0,50%,50%,0.6)"
    stroke-width="1"
    transform="translate(-125.8790131617,-71.9836084306) scale(1,-1) translate(50,-110)"
    />
  
  <line
    x1="124.32868243333661"
    y1="119.42404967303935"
    x2="124.28880334933366"
    y2="125.18067228305206"
    stroke="hsla(0,50%,50%,0.6)"
    stroke-width="1"
    transform="translate(-125.8790131617,-71.9836084306) scale(1,-1) translate(50,-110)"
    />
  
  <line
    x1="130.4935597480117"
    y1="26.193224094313727"
    x2="114.17935702199662"
    y2="116.2887760857304"
    stroke="hsla(0,50%,50%,0.6)"
    stroke-width="1"
    transform="translate(-125.8790131617,-71.9836084306) scale(1,-1) translate(50,-110)"
    />
  
  <line
    x1="116.60120313702974"
    y1="121.61992875132123"
    x2="129.44162436548223"
    y2="127.56735650136666"
    stroke="hsla(0,50%,50%,0.6)"
    stroke-width="1"
    transform="translate(-125.8790131617,-71.9836084306) scale(1,-1) translate(50,-110)"
    />
  
  <line
    x1="155.90253807106598"
    y1="12.235532994923858"
    x2="130.4935597480117"
    y2="26.193224094313727"
    stroke="hsla(0,50%,50%,0.6)"
    stroke-width="1"
    transform="translate(-125.8790131617,-71.9836084306) scale(1,-1) translate(50,-110)"
    />
  
  <line
    x1="177.96954314720813"
    y1="52.40693739424704"
    x2="114.17935702199662"
    y2="116.2887760857304"
    stroke="hsla(0,50%,50%,0.6)"
    stroke-width="1"
    transform="translate(-125.8790131617,-71.9836084306) scale(1,-1) translate(50,-110)"
    />
  
  <line
    x1="176.7910659898477"
    y1="80.03492385786802"
    x2="124.28880334933366"
    y2="125.18067228305206"
    stroke="hsla(0,50%,50%,0.6)"
    stroke-width="1"
    transform="translate(-125.8790131617,-71.9836084306) scale(1,-1) translate(50,-110)"
    />
  
  <line
    x1="124.32868243333661"
    y1="119.42404967303935"
    x2="116.60120313702974"
    y2="121.61992875132123"
    stroke="hsla(0,50%,50%,0.6)"
    stroke-width="1"
    transform="translate(-125.8790131617,-71.9836084306) scale(1,-1) translate(50,-110)"
    />
  
  <line
    x1="144.67005076142132"
    y1="125.38071065989848"
    x2="129.44162436548223"
    y2="127.56735650136666"
    stroke="hsla(0,50%,50%,0.6)"
    stroke-width="1"
    transform="translate(-125.8790131617,-71.9836084306) scale(1,-1) translate(50,-110)"
    />
  
</svg>
