<?xml version="1.0"?>
<!DOCTYPE svg PUBLIC "-//W3C//DTD SVG 1.1//EN"
  "http://www.w3.org/Graphics/SVG/1.1/DTD/svg11.dtd">
<svg
  width="240"
  height="240"
  viewBox="-50 -50 200 200" xmlns="http://www.w3.org/2000/svg" version="1.1">
  <rect
    x="0"
    y="0"
    width="100"
    height="100"
    fill="hsla(206,100%,53%,0.3)"
    stroke="hsl(206,100%,53%)"
    stroke-width="3"
    transform="" />
  
  <path
    d="M 
      27.1901430510
      -17.6464446068
      L
    
      96.3730569948
      53.1088082901
      L
    
      97.3491542539
      56.7586047294
      L
    
      58.1586064125
      80.5240292855
      L
    
      29.7503499494
      33.6771854019
      L
    
      0
      25
      L
    
      0
      0
      L
    
      9.3282672532
      0
      L
    
      6.3067710174
      -4.9826205503
      z
    "
    fill="hsla(0,0%,50%,0.3)"
    stroke="hsla(0,0%,50%,1)"
    stroke-width="1"
    transform="translate(-8.5670880009,-1.9637411838) scale(1,-1) translate(50,-110)"
    />
  
  
  <line
    x1="27.19014305105983"
    y1="-17.646444606870627"
    x2="96.37305699481865"
    y2="53.10880829015544"
    stroke="hsla(0,50%,50%,0.6)"
    stroke-width="1"
    transform="translate(-8.5670880009,-1.9637411838) scale(1,-1) translate(50,-110)"
    />
  
  <line
    x1="96.37305699481865"
    y1="53.10880829015544"
    x2="97.34915425397627"
    y2="56.75860472944542"
    stroke="hsla(0,50%,50%,0.6)"
    stroke-width="1"
    transform="translate(-8.5670880009,-1.9637411838) scale(1,-1) translate(50,-110)"
    />
  
  <line
    x1="6.306771017419844"
    y1="-4.982620550366069"
    x2="58.15860641252209"
    y2="80.52402928553396"
    stroke="hsla(0,50%,50%,0.6)"
    stroke-width="1"
    transform="translate(-8.5670880009,-1.9637411838) scale(1,-1) translate(50,-110)"
    />
  
  <line
    x1="27.19014305105983"
    y1="-17.646444606870627"
    x2="6.306771017419844"
    y2="-4.982620550366069"
    stroke="hsla(0,50%,50%,0.6)"
    stroke-width="1"
    transform="translate(-8.5670880009,-1.9637411838) scale(1,-1) translate(50,-110)"
    />
  
  <line
    x1="0"
    y1="0"
    x2="44.44444444444444"
    y2="0"
    stroke="hsla(0,50%,50%,0.6)"
    stroke-width="1"
    transform="translate(-8.5670880009,-1.9637411838) scale(1,-1) translate(50,-110)"
    />
  
  <line
    x1="0"
    y1="0"
    x2="0"
    y2="25"
    stroke="hsla(0,50%,50%,0.6)"
    stroke-width="1"
    transform="translate(-8.5670880009,-1.9637411838) scale(1,-1) translate(50,-110)"
    />
  
  <line
    x1="44.44444444444444"
    y1="0"
    x2="43.196162585205755"
    y2="55.54152991668771"
    stroke="hsla(0,50%,50%,0.6)"
    stroke-width="1"
    transform="translate(-8.5670880009,-1.9637411838) scale(1,-1) translate(50,-110)"
    />
  
  <line
    x1="27.19014305105983"
    y1="-17.646444606870627"
    x2="0"
    y2="25"
    stroke="hsla(0,50%,50%,0.6)"
    stroke-width="1"
    transform="translate(-8.5670880009,-1.9637411838) scale(1,-1) translate(50,-110)"
    />
  
  <line
    x1="0"
    y1="25"
    x2="96.37305699481865"
    y2="53.10880829015544"
    stroke="hsla(0,50%,50%,0.6)"
    stroke-width="1"
    transform="translate(-8.5670880009,-1.9637411838) scale(1,-1) translate(50,-110)"
    />
  
  <line
    x1="43.196162585205755"
    y1="55.54152991668771"
    x2="97.34915425397627"
    y2="56.75860472944542"
    stroke="hsla(0,50%,50%,0.6)"
    stroke-width="1"
    transform="translate(-8.5670880009,-1.9637411838) scale(1,-1) translate(50,-110)"
    />
  
  <line
    x1="97.34915425397627"
    y1="56.75860472944542"
    x2="58.15860641252209"
    y2="80.52402928553396"
    stroke="hsla(0,50%,50%,0.6)"
    stroke-width="1"
    transform="translate(-8.5670880009,-1.9637411838) scale(1,-1) translate(50,-110)"
    />
  
</svg>
