<?xml version="1.0"?>
<!DOCTYPE svg PUBLIC "-//W3C//DTD SVG 1.1//EN"
  "http://www.w3.org/Graphics/SVG/1.1/DTD/svg11.dtd">
<svg
  width="240"
  height="240"
  viewBox="-50 -50 200 200" xmlns="http://www.w3.org/2000/svg" version="1.1">
  <rect
    x="0"
    y="0"
    width="100"
    height="100"
    fill="hsla(206,100%,53%,0.3)"
    stroke="hsl(206,100%,53%)"
    stroke-width="3"
    transform="" />
  
  <path
    d="M 
      30.3896330759
      30.3896330759
      L
    
      130.3896330759
      30.3896330759
      L
    
      130.3896330759
      130.3896330759
      L
    
      30.3896330759
      130.3896330759
      z
    "
    fill="hsla(0,0%,50%,0.3)"
    stroke="hsla(0,0%,50%,1)"
    stroke-width="1"
    transform="translate(-67.8896330759,-105.3896330759) scale(1,-1) translate(50,-110)"
    />
  
  
  <line
    x1="30.389633075902676"
    y1="30.389633075902676"
    x2="30.389633075902676"
    y2="130.38963307590268"
    stroke="hsla(0,50%,50%,0.6)"
    stroke-width="1"
    transform="translate(-67.8896330759,-105.3896330759) scale(1,-1) translate(50,-110)"
    />
  
  <line
    x1="130.38963307590268"
    y1="30.389633075902676"
    x2="130.38963307590268"
    y2="130.38963307590268"
    stroke="hsla(0,50%,50%,0.6)"
    stroke-width="1"
    transform="translate(-67.8896330759,-105.3896330759) scale(1,-1) translate(50,-110)"
    />
  
  <line
    x1="30.389633075902676"
    y1="30.389633075902676"
    x2="130.38963307590268"
    y2="30.389633075902676"
    stroke="hsla(0,50%,50%,0.6)"
    stroke-width="1"
    transform="translate(-67.8896330759,-105.3896330759) scale(1,-1) translate(50,-110)"
    />
  
  <line
    x1="30.389633075902676"
    y1="130.38963307590268"
    x2="130.38963307590268"
    y2="130.38963307590268"
    stroke="hsla(0,50%,50%,0.6)"
    stroke-width="1"
    transform="translate(-67.8896330759,-105.3896330759) scale(1,-1) translate(50,-110)"
    />
  
</svg>
