<?xml version="1.0"?>
<!DOCTYPE svg PUBLIC "-//W3C//DTD SVG 1.1//EN"
  "http://www.w3.org/Graphics/SVG/1.1/DTD/svg11.dtd">
<svg
  width="240"
  height="240"
  viewBox="-500 -500 1000 1000" xmlns="http://www.w3.org/2000/svg" version="1.1">
  <rect
    x="0"
    y="0"
    width="100"
    height="100"
    fill="hsla(206,100%,53%,0.3)"
    stroke="hsl(206,100%,53%)"
    stroke-width="3"
    transform="" />
  
  <path
    d="M 
      0
      44.0551962930
      L
    
      45.1660078632
      61.6809554592
      L
    
      84.1246800650
      102.4104763974
      L
    
      81.5561263430
      105.9118936429
      L
    
      79.8031398199
      105.2944162981
      L
    
      77.5362699747
      106.8071909167
      L
    
      77.1026072329
      106.1573538687
      L
    
      77.4472506485
      104.4645706770
      L
    
      64.7725633995
      100
      L
    
      0
      100
      L
    
      0
      64.5520060192
      L
    
      -23.5186419398
      66.0470066470
      L
    
      -24.7084507088
      59.0971158826
      L
    
      -20.7717585645
      61.8598226804
      L
    
      -13.4141868297
      58.6247208604
      z
    "
    fill="hsla(0,0%,50%,0.3)"
    stroke="hsla(0,0%,50%,1)"
    stroke-width="1"
    transform="translate(-29.7081146780,-75.4311936049)"
    />
  
  
  <line
    x1="77.10260723296888"
    y1="106.15735386879732"
    x2="77.53626997476871"
    y2="106.80719091673676"
    stroke="hsla(0,50%,50%,0.6)"
    stroke-width="1"
    transform="translate(-29.7081146780,-75.4311936049)"
    />
  
  <line
    x1="-23.30820640205738"
    y1="62.97509104762301"
    x2="-23.463092162603136"
    y2="66.04347553532077"
    stroke="hsla(0,50%,50%,0.6)"
    stroke-width="1"
    transform="translate(-29.7081146780,-75.4311936049)"
    />
  
  <line
    x1="-23.389242116544565"
    y1="63.010722203779856"
    x2="-23.518641939876627"
    y2="66.04700664702828"
    stroke="hsla(0,50%,50%,0.6)"
    stroke-width="1"
    transform="translate(-29.7081146780,-75.4311936049)"
    />
  
  <line
    x1="0.3465971239963661"
    y1="44.190453707332765"
    x2="0.44482002616302085"
    y2="56.71368113965543"
    stroke="hsla(0,50%,50%,0.6)"
    stroke-width="1"
    transform="translate(-29.7081146780,-75.4311936049)"
    />
  
  <line
    x1="0"
    y1="44.055196293090276"
    x2="0"
    y2="100"
    stroke="hsla(0,50%,50%,0.6)"
    stroke-width="1"
    transform="translate(-29.7081146780,-75.4311936049)"
    />
  
  <line
    x1="81.81900698919851"
    y1="100"
    x2="81.55612634302183"
    y2="105.91189364290665"
    stroke="hsla(0,50%,50%,0.6)"
    stroke-width="1"
    transform="translate(-29.7081146780,-75.4311936049)"
    />
  
  <line
    x1="81.2126715526369"
    y1="99.3661038617765"
    x2="80.88255933154024"
    y2="105.67463433469796"
    stroke="hsla(0,50%,50%,0.6)"
    stroke-width="1"
    transform="translate(-29.7081146780,-75.4311936049)"
    />
  
  <line
    x1="-24.708450708887316"
    y1="59.097115882638974"
    x2="-23.518641939876627"
    y2="66.04700664702828"
    stroke="hsla(0,50%,50%,0.6)"
    stroke-width="1"
    transform="translate(-29.7081146780,-75.4311936049)"
    />
  
  <line
    x1="-24.708450708887316"
    y1="59.097115882638974"
    x2="-23.463092162603136"
    y2="66.04347553532077"
    stroke="hsla(0,50%,50%,0.6)"
    stroke-width="1"
    transform="translate(-29.7081146780,-75.4311936049)"
    />
  
  <line
    x1="45.16600786325149"
    y1="61.680955459237204"
    x2="84.12468006502532"
    y2="102.4104763974553"
    stroke="hsla(0,50%,50%,0.6)"
    stroke-width="1"
    transform="translate(-29.7081146780,-75.4311936049)"
    />
  
  <line
    x1="43.13101114163243"
    y1="63.886091817860176"
    x2="37.11130932242487"
    y2="99.71200221834343"
    stroke="hsla(0,50%,50%,0.6)"
    stroke-width="1"
    transform="translate(-29.7081146780,-75.4311936049)"
    />
  
  <line
    x1="20.125135806653276"
    y1="51.908907827393996"
    x2="63.307972826366836"
    y2="99.4841081284047"
    stroke="hsla(0,50%,50%,0.6)"
    stroke-width="1"
    transform="translate(-29.7081146780,-75.4311936049)"
    />
  
  <line
    x1="78.96392297707285"
    y1="97.01513944186863"
    x2="77.10260723296888"
    y2="106.15735386879732"
    stroke="hsla(0,50%,50%,0.6)"
    stroke-width="1"
    transform="translate(-29.7081146780,-75.4311936049)"
    />
  
  <line
    x1="0"
    y1="44.055196293090276"
    x2="-20.044575508279255"
    y2="65.82617197853078"
    stroke="hsla(0,50%,50%,0.6)"
    stroke-width="1"
    transform="translate(-29.7081146780,-75.4311936049)"
    />
  
  <line
    x1="0.3465971239963661"
    y1="44.190453707332765"
    x2="-19.879453317632585"
    y2="65.81567571861433"
    stroke="hsla(0,50%,50%,0.6)"
    stroke-width="1"
    transform="translate(-29.7081146780,-75.4311936049)"
    />
  
  <line
    x1="0.44482002616302085"
    y1="56.71368113965543"
    x2="37.11130932242487"
    y2="99.71200221834343"
    stroke="hsla(0,50%,50%,0.6)"
    stroke-width="1"
    transform="translate(-29.7081146780,-75.4311936049)"
    />
  
  <line
    x1="-2.8323354174977444"
    y1="53.97191311409947"
    x2="-15.52896556603792"
    y2="65.5391299071446"
    stroke="hsla(0,50%,50%,0.6)"
    stroke-width="1"
    transform="translate(-29.7081146780,-75.4311936049)"
    />
  
  <line
    x1="0"
    y1="44.055196293090276"
    x2="45.16600786325149"
    y2="61.680955459237204"
    stroke="hsla(0,50%,50%,0.6)"
    stroke-width="1"
    transform="translate(-29.7081146780,-75.4311936049)"
    />
  
  <line
    x1="-2.8323354174977444"
    y1="53.97191311409947"
    x2="-23.389242116544565"
    y2="63.010722203779856"
    stroke="hsla(0,50%,50%,0.6)"
    stroke-width="1"
    transform="translate(-29.7081146780,-75.4311936049)"
    />
  
  <line
    x1="-23.389242116544565"
    y1="63.010722203779856"
    x2="-20.044575508279255"
    y2="65.82617197853078"
    stroke="hsla(0,50%,50%,0.6)"
    stroke-width="1"
    transform="translate(-29.7081146780,-75.4311936049)"
    />
  
  <line
    x1="-23.30820640205738"
    y1="62.97509104762301"
    x2="-19.879453317632585"
    y2="65.81567571861433"
    stroke="hsla(0,50%,50%,0.6)"
    stroke-width="1"
    transform="translate(-29.7081146780,-75.4311936049)"
    />
  
  <line
    x1="-24.708450708887316"
    y1="59.097115882638974"
    x2="-15.52896556603792"
    y2="65.5391299071446"
    stroke="hsla(0,50%,50%,0.6)"
    stroke-width="1"
    transform="translate(-29.7081146780,-75.4311936049)"
    />
  
  <line
    x1="20.125135806653276"
    y1="51.908907827393996"
    x2="-2.8323354174977444"
    y2="53.97191311409947"
    stroke="hsla(0,50%,50%,0.6)"
    stroke-width="1"
    transform="translate(-29.7081146780,-75.4311936049)"
    />
  
  <line
    x1="0.44482002616302085"
    y1="56.71368113965543"
    x2="43.13101114163243"
    y2="63.886091817860176"
    stroke="hsla(0,50%,50%,0.6)"
    stroke-width="1"
    transform="translate(-29.7081146780,-75.4311936049)"
    />
  
  <line
    x1="45.16600786325149"
    y1="61.680955459237204"
    x2="-23.518641939876627"
    y2="66.04700664702828"
    stroke="hsla(0,50%,50%,0.6)"
    stroke-width="1"
    transform="translate(-29.7081146780,-75.4311936049)"
    />
  
  <line
    x1="63.307972826366836"
    y1="99.4841081284047"
    x2="81.55612634302183"
    y2="105.91189364290665"
    stroke="hsla(0,50%,50%,0.6)"
    stroke-width="1"
    transform="translate(-29.7081146780,-75.4311936049)"
    />
  
  <line
    x1="83.61922044052365"
    y1="101.88204133547629"
    x2="80.88255933154024"
    y2="105.67463433469796"
    stroke="hsla(0,50%,50%,0.6)"
    stroke-width="1"
    transform="translate(-29.7081146780,-75.4311936049)"
    />
  
  <line
    x1="84.12468006502532"
    y1="102.4104763974553"
    x2="81.55612634302183"
    y2="105.91189364290665"
    stroke="hsla(0,50%,50%,0.6)"
    stroke-width="1"
    transform="translate(-29.7081146780,-75.4311936049)"
    />
  
  <line
    x1="81.2126715526369"
    y1="99.3661038617765"
    x2="37.11130932242487"
    y2="99.71200221834343"
    stroke="hsla(0,50%,50%,0.6)"
    stroke-width="1"
    transform="translate(-29.7081146780,-75.4311936049)"
    />
  
  <line
    x1="0"
    y1="100"
    x2="81.81900698919851"
    y2="100"
    stroke="hsla(0,50%,50%,0.6)"
    stroke-width="1"
    transform="translate(-29.7081146780,-75.4311936049)"
    />
  
  <line
    x1="78.96392297707285"
    y1="97.01513944186863"
    x2="63.307972826366836"
    y2="99.4841081284047"
    stroke="hsla(0,50%,50%,0.6)"
    stroke-width="1"
    transform="translate(-29.7081146780,-75.4311936049)"
    />
  
  <line
    x1="83.61922044052365"
    y1="101.88204133547629"
    x2="77.10260723296888"
    y2="106.15735386879732"
    stroke="hsla(0,50%,50%,0.6)"
    stroke-width="1"
    transform="translate(-29.7081146780,-75.4311936049)"
    />
  
  <line
    x1="84.12468006502532"
    y1="102.4104763974553"
    x2="77.53626997476871"
    y2="106.80719091673676"
    stroke="hsla(0,50%,50%,0.6)"
    stroke-width="1"
    transform="translate(-29.7081146780,-75.4311936049)"
    />
  
</svg>
