<?xml version="1.0"?>
<!DOCTYPE svg PUBLIC "-//W3C//DTD SVG 1.1//EN"
  "http://www.w3.org/Graphics/SVG/1.1/DTD/svg11.dtd">
<svg
  width="240"
  height="240"
  viewBox="-500 -500 1000 1000" xmlns="http://www.w3.org/2000/svg" version="1.1">
  <rect
    x="0"
    y="0"
    width="100"
    height="100"
    fill="hsla(206,100%,53%,0.3)"
    stroke="hsl(206,100%,53%)"
    stroke-width="3"
    transform="" />
  
  <path
    d="M 
      58.0804516584
      -93.5779816513
      L
    
      83.4862385321
      -55.0458715596
      L
    
      77.5229357798
      -51.1140235910
      L
    
      80.4964921748
      -44.6195358877
      L
    
      50
      -30.6564577397
      L
    
      50
      0
      L
    
      27.3753444138
      0
      L
    
      28.2471626733
      3.0264817150
      L
    
      14.2857142857
      0
      L
    
      17.8343949044
      -33.1210191082
      L
    
      47.1153846153
      -87.5
      z
    "
    fill="hsla(0,0%,50%,0.3)"
    stroke="hsla(0,0%,50%,1)"
    stroke-width="1"
    transform="translate(-48.8859764089,45.2757499681)"
    />
  
  
  <line
    x1="58.08045165843331"
    y1="-93.57798165137615"
    x2="83.4862385321101"
    y2="-55.04587155963303"
    stroke="hsla(0,50%,50%,0.6)"
    stroke-width="1"
    transform="translate(-48.8859764089,45.2757499681)"
    />
  
  <line
    x1="26.923076923076923"
    y1="-50"
    x2="50"
    y2="-50"
    stroke="hsla(0,50%,50%,0.6)"
    stroke-width="1"
    transform="translate(-48.8859764089,45.2757499681)"
    />
  
  <line
    x1="58.08045165843331"
    y1="-93.57798165137615"
    x2="47.11538461538461"
    y2="-87.5"
    stroke="hsla(0,50%,50%,0.6)"
    stroke-width="1"
    transform="translate(-48.8859764089,45.2757499681)"
    />
  
  <line
    x1="50"
    y1="-50"
    x2="25.925925925925927"
    y2="-48.148148148148145"
    stroke="hsla(0,50%,50%,0.6)"
    stroke-width="1"
    transform="translate(-48.8859764089,45.2757499681)"
    />
  
  <line
    x1="58.08045165843331"
    y1="-93.57798165137615"
    x2="80.4964921748516"
    y2="-44.61953588774959"
    stroke="hsla(0,50%,50%,0.6)"
    stroke-width="1"
    transform="translate(-48.8859764089,45.2757499681)"
    />
  
  <line
    x1="26.923076923076923"
    y1="-50"
    x2="41.74311926605505"
    y2="-27.522935779816514"
    stroke="hsla(0,50%,50%,0.6)"
    stroke-width="1"
    transform="translate(-48.8859764089,45.2757499681)"
    />
  
  <line
    x1="25.925925925925927"
    y1="-48.148148148148145"
    x2="38.53211009174312"
    y2="-25.40578687367678"
    stroke="hsla(0,50%,50%,0.6)"
    stroke-width="1"
    transform="translate(-48.8859764089,45.2757499681)"
    />
  
  <line
    x1="15.371621621621621"
    y1="-10.135135135135135"
    x2="28.247162673392182"
    y2="3.0264817150063053"
    stroke="hsla(0,50%,50%,0.6)"
    stroke-width="1"
    transform="translate(-48.8859764089,45.2757499681)"
    />
  
  <line
    x1="17.8343949044586"
    y1="-33.12101910828026"
    x2="28.247162673392182"
    y2="3.0264817150063053"
    stroke="hsla(0,50%,50%,0.6)"
    stroke-width="1"
    transform="translate(-48.8859764089,45.2757499681)"
    />
  
  <line
    x1="80.4964921748516"
    y1="-44.61953588774959"
    x2="38.53211009174312"
    y2="-25.40578687367678"
    stroke="hsla(0,50%,50%,0.6)"
    stroke-width="1"
    transform="translate(-48.8859764089,45.2757499681)"
    />
  
  <line
    x1="47.11538461538461"
    y1="-87.5"
    x2="50"
    y2="-50"
    stroke="hsla(0,50%,50%,0.6)"
    stroke-width="1"
    transform="translate(-48.8859764089,45.2757499681)"
    />
  
  <line
    x1="14.285714285714286"
    y1="0"
    x2="28.247162673392182"
    y2="3.0264817150063053"
    stroke="hsla(0,50%,50%,0.6)"
    stroke-width="1"
    transform="translate(-48.8859764089,45.2757499681)"
    />
  
  <line
    x1="14.285714285714286"
    y1="0"
    x2="50"
    y2="0"
    stroke="hsla(0,50%,50%,0.6)"
    stroke-width="1"
    transform="translate(-48.8859764089,45.2757499681)"
    />
  
  <line
    x1="47.11538461538461"
    y1="-87.5"
    x2="17.8343949044586"
    y2="-33.12101910828026"
    stroke="hsla(0,50%,50%,0.6)"
    stroke-width="1"
    transform="translate(-48.8859764089,45.2757499681)"
    />
  
  <line
    x1="83.4862385321101"
    y1="-55.04587155963303"
    x2="15.371621621621621"
    y2="-10.135135135135135"
    stroke="hsla(0,50%,50%,0.6)"
    stroke-width="1"
    transform="translate(-48.8859764089,45.2757499681)"
    />
  
  <line
    x1="50"
    y1="-50"
    x2="50"
    y2="0"
    stroke="hsla(0,50%,50%,0.6)"
    stroke-width="1"
    transform="translate(-48.8859764089,45.2757499681)"
    />
  
  <line
    x1="17.8343949044586"
    y1="-33.12101910828026"
    x2="14.285714285714286"
    y2="0"
    stroke="hsla(0,50%,50%,0.6)"
    stroke-width="1"
    transform="translate(-48.8859764089,45.2757499681)"
    />
  
</svg>
