<?xml version="1.0"?>
<!DOCTYPE svg PUBLIC "-//W3C//DTD SVG 1.1//EN"
  "http://www.w3.org/Graphics/SVG/1.1/DTD/svg11.dtd">
<svg
  width="240"
  height="240"
  viewBox="-500 -500 1000 1000" xmlns="http://www.w3.org/2000/svg" version="1.1">
  <rect
    x="0"
    y="0"
    width="100"
    height="100"
    fill="hsla(206,100%,53%,0.3)"
    stroke="hsl(206,100%,53%)"
    stroke-width="3"
    transform="" />
  
  <path
    d="M 
      25
      0
      L
    
      47.0588235294
      29.4117647058
      L
    
      42.5418498082
      44.8985317497
      L
    
      7.4721780604
      60.0953895071
      L
    
      -3.5884003741
      54.4883068288
      L
    
      9.1239768131
      29.4117647058
      L
    
      0
      29.4117647058
      L
    
      0
      0.0000000000
      z
    "
    fill="hsla(0,0%,50%,0.3)"
    stroke="hsla(0,0%,50%,1)"
    stroke-width="1"
    transform="translate(-17.9711286776,-30.2187433824)"
    />
  
  <path
    d="M 
      11.9925229277
      29.4117647058
      L
    
      15.8510526992
      31.3678193167
      L
    
      16.4215686274
      29.4117647058
      z
    "
    fill="hsla(0,0%,50%,0.3)"
    stroke="hsla(0,0%,50%,1)"
    stroke-width="1"
    transform="translate(-17.9711286776,-30.2187433824)"
    />
  
  
  <line
    x1="25"
    y1="0"
    x2="47.05882352941177"
    y2="29.41176470588235"
    stroke="hsla(0,50%,50%,0.6)"
    stroke-width="1"
    transform="translate(-17.9711286776,-30.2187433824)"
    />
  
  <line
    x1="0"
    y1="7.086288709055585e-20"
    x2="0"
    y2="29.41176470588235"
    stroke="hsla(0,50%,50%,0.6)"
    stroke-width="1"
    transform="translate(-17.9711286776,-30.2187433824)"
    />
  
  <line
    x1="0"
    y1="7.086288709055585e-20"
    x2="4.017239013447093e-40"
    y2="1.417257741811117e-19"
    stroke="hsla(0,50%,50%,0.6)"
    stroke-width="1"
    transform="translate(-17.9711286776,-30.2187433824)"
    />
  
  <line
    x1="25"
    y1="0"
    x2="0"
    y2="7.086288709055585e-20"
    stroke="hsla(0,50%,50%,0.6)"
    stroke-width="1"
    transform="translate(-17.9711286776,-30.2187433824)"
    />
  
  <line
    x1="25"
    y1="0"
    x2="4.017239013447093e-40"
    y2="1.417257741811117e-19"
    stroke="hsla(0,50%,50%,0.6)"
    stroke-width="1"
    transform="translate(-17.9711286776,-30.2187433824)"
    />
  
  <line
    x1="0"
    y1="5.882352941176471"
    x2="29.41176470588235"
    y2="5.882352941176471"
    stroke="hsla(0,50%,50%,0.6)"
    stroke-width="1"
    transform="translate(-17.9711286776,-30.2187433824)"
    />
  
  <line
    x1="25"
    y1="0"
    x2="7.472178060413355"
    y2="60.095389507154216"
    stroke="hsla(0,50%,50%,0.6)"
    stroke-width="1"
    transform="translate(-17.9711286776,-30.2187433824)"
    />
  
  <line
    x1="29.41176470588235"
    y1="5.882352941176471"
    x2="14.486112409987843"
    y2="57.05601795567193"
    stroke="hsla(0,50%,50%,0.6)"
    stroke-width="1"
    transform="translate(-17.9711286776,-30.2187433824)"
    />
  
  <line
    x1="9.7104495680405"
    y1="28.254883618555"
    x2="-3.588400374181478"
    y2="54.48830682881197"
    stroke="hsla(0,50%,50%,0.6)"
    stroke-width="1"
    transform="translate(-17.9711286776,-30.2187433824)"
    />
  
  <line
    x1="47.05882352941177"
    y1="29.41176470588235"
    x2="42.5418498082858"
    y2="44.89853174974282"
    stroke="hsla(0,50%,50%,0.6)"
    stroke-width="1"
    transform="translate(-17.9711286776,-30.2187433824)"
    />
  
  <line
    x1="9.7104495680405"
    y1="28.254883618555"
    x2="42.5418498082858"
    y2="44.89853174974282"
    stroke="hsla(0,50%,50%,0.6)"
    stroke-width="1"
    transform="translate(-17.9711286776,-30.2187433824)"
    />
  
  <line
    x1="0"
    y1="29.41176470588235"
    x2="47.05882352941177"
    y2="29.41176470588235"
    stroke="hsla(0,50%,50%,0.6)"
    stroke-width="1"
    transform="translate(-17.9711286776,-30.2187433824)"
    />
  
  <line
    x1="-0.9286303857370825"
    y1="49.24162218676058"
    x2="14.486112409987843"
    y2="57.05601795567193"
    stroke="hsla(0,50%,50%,0.6)"
    stroke-width="1"
    transform="translate(-17.9711286776,-30.2187433824)"
    />
  
  <line
    x1="-3.588400374181478"
    y1="54.48830682881197"
    x2="7.472178060413355"
    y2="60.095389507154216"
    stroke="hsla(0,50%,50%,0.6)"
    stroke-width="1"
    transform="translate(-17.9711286776,-30.2187433824)"
    />
  
  <line
    x1="42.5418498082858"
    y1="44.89853174974282"
    x2="7.472178060413355"
    y2="60.095389507154216"
    stroke="hsla(0,50%,50%,0.6)"
    stroke-width="1"
    transform="translate(-17.9711286776,-30.2187433824)"
    />
  
</svg>
