<?xml version="1.0"?>
<!DOCTYPE svg PUBLIC "-//W3C//DTD SVG 1.1//EN"
  "http://www.w3.org/Graphics/SVG/1.1/DTD/svg11.dtd">
<svg
  width="240"
  height="240"
  viewBox="-50 -50 200 200" xmlns="http://www.w3.org/2000/svg" version="1.1">
  <rect
    x="0"
    y="0"
    width="100"
    height="100"
    fill="hsla(206,100%,53%,0.3)"
    stroke="hsl(206,100%,53%)"
    stroke-width="3"
    transform="" />
  
  <path
    d="M 
      16.2507042779
      31.5153627683
      L
    
      47.0494217647
      41.8143928533
      L
    
      52.5880571406
      41.3149042050
      L
    
      54.6675831943
      38.1344525934
      L
    
      106.1136212398
      60.5596486646
      L
    
      106.6294048833
      61.7378211215
      L
    
      111.0886987898
      63.2290001656
      L
    
      109.4402768345
      68.1585208757
      L
    
      87.9103333128
      69.1273683342
      L
    
      57.5865077057
      97.3015411456
      L
    
      43.7021048158
      82.3577763469
      L
    
      46.5208494362
      70.9898951087
      L
    
      32.7809070923
      71.6081925141
      L
    
      11.7419659941
      44.9985117134
      z
    "
    fill="hsla(0,0%,50%,0.3)"
    stroke="hsla(0,0%,50%,1)"
    stroke-width="1"
    transform="translate(-27.4339634597,-59.5400472474) scale(1,-1) translate(50,-110)"
    />
  
  
  <line
    x1="106.11362123989402"
    y1="60.55964866462317"
    x2="109.44027683459576"
    y2="68.15852087577652"
    stroke="hsla(0,50%,50%,0.6)"
    stroke-width="1"
    transform="translate(-27.4339634597,-59.5400472474) scale(1,-1) translate(50,-110)"
    />
  
  <line
    x1="60.35666886033726"
    y1="40.614310447893295"
    x2="82.98702469749412"
    y2="69.84990511012718"
    stroke="hsla(0,50%,50%,0.6)"
    stroke-width="1"
    transform="translate(-27.4339634597,-59.5400472474) scale(1,-1) translate(50,-110)"
    />
  
  <line
    x1="98.99663157979192"
    y1="57.457371120476104"
    x2="100"
    y2="68.58333333333333"
    stroke="hsla(0,50%,50%,0.6)"
    stroke-width="1"
    transform="translate(-27.4339634597,-59.5400472474) scale(1,-1) translate(50,-110)"
    />
  
  <line
    x1="100"
    y1="57.89473684210526"
    x2="100"
    y2="68.58333333333333"
    stroke="hsla(0,50%,50%,0.6)"
    stroke-width="1"
    transform="translate(-27.4339634597,-59.5400472474) scale(1,-1) translate(50,-110)"
    />
  
  <line
    x1="16.25070427794523"
    y1="31.51536276838563"
    x2="11.7419659941366"
    y2="44.99851171341404"
    stroke="hsla(0,50%,50%,0.6)"
    stroke-width="1"
    transform="translate(-27.4339634597,-59.5400472474) scale(1,-1) translate(50,-110)"
    />
  
  <line
    x1="11.7419659941366"
    y1="44.99851171341404"
    x2="32.78090709237925"
    y2="71.60819251417627"
    stroke="hsla(0,50%,50%,0.6)"
    stroke-width="1"
    transform="translate(-27.4339634597,-59.5400472474) scale(1,-1) translate(50,-110)"
    />
  
  <line
    x1="54.6675831943635"
    y1="38.13445259349448"
    x2="106.11362123989402"
    y2="60.55964866462317"
    stroke="hsla(0,50%,50%,0.6)"
    stroke-width="1"
    transform="translate(-27.4339634597,-59.5400472474) scale(1,-1) translate(50,-110)"
    />
  
  <line
    x1="54.6675831943635"
    y1="38.13445259349448"
    x2="43.70210481580066"
    y2="82.3577763469447"
    stroke="hsla(0,50%,50%,0.6)"
    stroke-width="1"
    transform="translate(-27.4339634597,-59.5400472474) scale(1,-1) translate(50,-110)"
    />
  
  <line
    x1="43.70210481580066"
    y1="82.3577763469447"
    x2="57.58650770572841"
    y2="97.30154114568188"
    stroke="hsla(0,50%,50%,0.6)"
    stroke-width="1"
    transform="translate(-27.4339634597,-59.5400472474) scale(1,-1) translate(50,-110)"
    />
  
  <line
    x1="16.25070427794523"
    y1="31.51536276838563"
    x2="111.08869878983585"
    y2="63.22900016560962"
    stroke="hsla(0,50%,50%,0.6)"
    stroke-width="1"
    transform="translate(-27.4339634597,-59.5400472474) scale(1,-1) translate(50,-110)"
    />
  
  <line
    x1="54.6675831943635"
    y1="38.13445259349448"
    x2="32.78090709237925"
    y2="71.60819251417627"
    stroke="hsla(0,50%,50%,0.6)"
    stroke-width="1"
    transform="translate(-27.4339634597,-59.5400472474) scale(1,-1) translate(50,-110)"
    />
  
  <line
    x1="111.08869878983585"
    y1="63.22900016560962"
    x2="109.44027683459576"
    y2="68.15852087577652"
    stroke="hsla(0,50%,50%,0.6)"
    stroke-width="1"
    transform="translate(-27.4339634597,-59.5400472474) scale(1,-1) translate(50,-110)"
    />
  
  <line
    x1="60.35666886033726"
    y1="40.614310447893295"
    x2="11.7419659941366"
    y2="44.99851171341404"
    stroke="hsla(0,50%,50%,0.6)"
    stroke-width="1"
    transform="translate(-27.4339634597,-59.5400472474) scale(1,-1) translate(50,-110)"
    />
  
  <line
    x1="109.44027683459576"
    y1="68.15852087577652"
    x2="32.78090709237925"
    y2="71.60819251417627"
    stroke="hsla(0,50%,50%,0.6)"
    stroke-width="1"
    transform="translate(-27.4339634597,-59.5400472474) scale(1,-1) translate(50,-110)"
    />
  
  <line
    x1="100"
    y1="57.89473684210526"
    x2="57.58650770572841"
    y2="97.30154114568188"
    stroke="hsla(0,50%,50%,0.6)"
    stroke-width="1"
    transform="translate(-27.4339634597,-59.5400472474) scale(1,-1) translate(50,-110)"
    />
  
  <line
    x1="98.99663157979192"
    y1="57.457371120476104"
    x2="82.98702469749412"
    y2="69.84990511012718"
    stroke="hsla(0,50%,50%,0.6)"
    stroke-width="1"
    transform="translate(-27.4339634597,-59.5400472474) scale(1,-1) translate(50,-110)"
    />
  
  <line
    x1="106.11362123989402"
    y1="60.55964866462317"
    x2="43.70210481580066"
    y2="82.3577763469447"
    stroke="hsla(0,50%,50%,0.6)"
    stroke-width="1"
    transform="translate(-27.4339634597,-59.5400472474) scale(1,-1) translate(50,-110)"
    />
  
</svg>
