<?xml version="1.0"?>
<!DOCTYPE svg PUBLIC "-//W3C//DTD SVG 1.1//EN"
  "http://www.w3.org/Graphics/SVG/1.1/DTD/svg11.dtd">
<svg
  width="240"
  height="240"
  viewBox="-500 -500 1000 1000" xmlns="http://www.w3.org/2000/svg" version="1.1">
  <rect
    x="0"
    y="0"
    width="100"
    height="100"
    fill="hsla(206,100%,53%,0.3)"
    stroke="hsl(206,100%,53%)"
    stroke-width="3"
    transform="" />
  
  <path
    d="M 
      -1045.5695661173
      334.5736124751
      L
    
      -1034.7028080687
      335.2399767097
      L
    
      -1029.6781202987
      341.6799314102
      L
    
      -1020.0655076794
      345.9784887506
      L
    
      -1011.3392040103
      365.1842356695
      L
    
      -989.0046738636
      393.8095690207
      L
    
      -995.8915703723
      399.1829771066
      L
    
      -990.7331238957
      410.5362168380
      L
    
      -1037.9227791373
      431.9772606786
      L
    
      -1067.8458608674
      455.3243414891
      L
    
      -1073.4628759550
      448.1252229822
      z
    "
    fill="hsla(0,0%,50%,0.3)"
    stroke="hsla(0,0%,50%,1)"
    stroke-width="1"
    transform="translate(1031.2337749093,-394.9489769821)"
    />
  
  
  <line
    x1="-1034.7028080687037"
    y1="335.2399767097337"
    x2="-1049.328347251122"
    y2="349.8753337038391"
    stroke="hsla(0,50%,50%,0.6)"
    stroke-width="1"
    transform="translate(1031.2337749093,-394.9489769821)"
    />
  
  <line
    x1="-989.0046738636951"
    y1="393.80956902079794"
    x2="-1067.8458608674684"
    y2="455.32434148917343"
    stroke="hsla(0,50%,50%,0.6)"
    stroke-width="1"
    transform="translate(1031.2337749093,-394.9489769821)"
    />
  
  <line
    x1="-1045.5695661173518"
    y1="334.57361247510437"
    x2="-1073.462875955075"
    y2="448.1252229822706"
    stroke="hsla(0,50%,50%,0.6)"
    stroke-width="1"
    transform="translate(1031.2337749093,-394.9489769821)"
    />
  
  <line
    x1="-990.7331238957363"
    y1="410.5362168380541"
    x2="-1073.462875955075"
    y2="448.1252229822706"
    stroke="hsla(0,50%,50%,0.6)"
    stroke-width="1"
    transform="translate(1031.2337749093,-394.9489769821)"
    />
  
  <line
    x1="-1020.0655076794459"
    y1="345.9784887506081"
    x2="-1047.828552663187"
    y2="354.66747609662394"
    stroke="hsla(0,50%,50%,0.6)"
    stroke-width="1"
    transform="translate(1031.2337749093,-394.9489769821)"
    />
  
  <line
    x1="-1049.328347251122"
    y1="349.8753337038391"
    x2="-1047.828552663187"
    y2="354.66747609662394"
    stroke="hsla(0,50%,50%,0.6)"
    stroke-width="1"
    transform="translate(1031.2337749093,-394.9489769821)"
    />
  
  <line
    x1="-1045.5695661173518"
    y1="334.57361247510437"
    x2="-1034.7028080687037"
    y2="335.2399767097337"
    stroke="hsla(0,50%,50%,0.6)"
    stroke-width="1"
    transform="translate(1031.2337749093,-394.9489769821)"
    />
  
  <line
    x1="-1020.0655076794459"
    y1="345.9784887506081"
    x2="-990.7331238957363"
    y2="410.5362168380541"
    stroke="hsla(0,50%,50%,0.6)"
    stroke-width="1"
    transform="translate(1031.2337749093,-394.9489769821)"
    />
  
  <line
    x1="-1034.7028080687037"
    y1="335.2399767097337"
    x2="-989.0046738636951"
    y2="393.80956902079794"
    stroke="hsla(0,50%,50%,0.6)"
    stroke-width="1"
    transform="translate(1031.2337749093,-394.9489769821)"
    />
  
  <line
    x1="-1045.5695661173518"
    y1="334.57361247510437"
    x2="-1020.0655076794459"
    y2="345.9784887506081"
    stroke="hsla(0,50%,50%,0.6)"
    stroke-width="1"
    transform="translate(1031.2337749093,-394.9489769821)"
    />
  
  <line
    x1="-1073.462875955075"
    y1="448.1252229822706"
    x2="-1067.8458608674684"
    y2="455.32434148917343"
    stroke="hsla(0,50%,50%,0.6)"
    stroke-width="1"
    transform="translate(1031.2337749093,-394.9489769821)"
    />
  
</svg>
