<?xml version="1.0"?>
<!DOCTYPE svg PUBLIC "-//W3C//DTD SVG 1.1//EN"
  "http://www.w3.org/Graphics/SVG/1.1/DTD/svg11.dtd">
<svg
  width="240"
  height="240"
  viewBox="-500 -500 1000 1000" xmlns="http://www.w3.org/2000/svg" version="1.1">
  <rect
    x="0"
    y="0"
    width="100"
    height="100"
    fill="hsla(206,100%,53%,0.3)"
    stroke="hsl(206,100%,53%)"
    stroke-width="3"
    transform="" />
  
  <path
    d="M 
      16.2162162162
      -58.3465818759
      L
    
      24.2694106641
      -48.9167446211
      L
    
      2.8900847516
      -30.6585431181
      L
    
      11.3122171945
      -27.1493212669
      L
    
      0.0000000000
      -0.0000000000
      L
    
      -23.0769230769
      -9.6153846153
      L
    
      -32.1266968325
      -45.2488687782
      L
    
      -22.0007337654
      -57.8070484644
      z
    "
    fill="hsla(0,0%,50%,0.3)"
    stroke="hsla(0,0%,50%,1)"
    stroke-width="1"
    transform="translate(2.8653109960,31.2899702075)"
    />
  
  <path
    d="M 
      -2.5671950621
      -35.0514688690
      L
    
      -3.8461538461
      -33.4653092006
      L
    
      0.2421960305
      -31.7618300853
      z
    "
    fill="hsla(0,0%,50%,0.3)"
    stroke="hsla(0,0%,50%,1)"
    stroke-width="1"
    transform="translate(2.8653109960,31.2899702075)"
    />
  
  
  <line
    x1="16.216216216216218"
    y1="-58.34658187599364"
    x2="-22.000733765439648"
    y2="-57.80704846448791"
    stroke="hsla(0,50%,50%,0.6)"
    stroke-width="1"
    transform="translate(2.8653109960,31.2899702075)"
    />
  
  <line
    x1="-22.000733765439648"
    y1="-57.80704846448791"
    x2="-32.126696832579185"
    y2="-45.248868778280546"
    stroke="hsla(0,50%,50%,0.6)"
    stroke-width="1"
    transform="translate(2.8653109960,31.2899702075)"
    />
  
  <line
    x1="16.216216216216218"
    y1="-58.34658187599364"
    x2="24.269410664172124"
    y2="-48.916744621141255"
    stroke="hsla(0,50%,50%,0.6)"
    stroke-width="1"
    transform="translate(2.8653109960,31.2899702075)"
    />
  
  <line
    x1="8.572826219885043"
    y1="-58.238675193692494"
    x2="19.7962827355883"
    y2="-45.096639562495504"
    stroke="hsla(0,50%,50%,0.6)"
    stroke-width="1"
    transform="translate(2.8653109960,31.2899702075)"
    />
  
  <line
    x1="-32.126696832579185"
    y1="-45.248868778280546"
    x2="11.312217194570136"
    y2="-27.149321266968325"
    stroke="hsla(0,50%,50%,0.6)"
    stroke-width="1"
    transform="translate(2.8653109960,31.2899702075)"
    />
  
  <line
    x1="8.572826219885043"
    y1="-58.238675193692494"
    x2="-24.8868778280543"
    y2="-16.742081447963802"
    stroke="hsla(0,50%,50%,0.6)"
    stroke-width="1"
    transform="translate(2.8653109960,31.2899702075)"
    />
  
  <line
    x1="24.269410664172124"
    y1="-48.916744621141255"
    x2="1.903771021253"
    y2="-29.8162193279125"
    stroke="hsla(0,50%,50%,0.6)"
    stroke-width="1"
    transform="translate(2.8653109960,31.2899702075)"
    />
  
  <line
    x1="16.216216216216218"
    y1="-58.34658187599364"
    x2="-23.076923076923077"
    y2="-9.615384615384615"
    stroke="hsla(0,50%,50%,0.6)"
    stroke-width="1"
    transform="translate(2.8653109960,31.2899702075)"
    />
  
  <line
    x1="-22.000733765439648"
    y1="-57.80704846448791"
    x2="1.903771021253"
    y2="-29.8162193279125"
    stroke="hsla(0,50%,50%,0.6)"
    stroke-width="1"
    transform="translate(2.8653109960,31.2899702075)"
    />
  
  <line
    x1="-24.8868778280543"
    y1="-16.742081447963802"
    x2="2.262443438914027"
    y2="-5.429864253393665"
    stroke="hsla(0,50%,50%,0.6)"
    stroke-width="1"
    transform="translate(2.8653109960,31.2899702075)"
    />
  
  <line
    x1="-23.076923076923077"
    y1="-9.615384615384615"
    x2="6.950013926189132e-20"
    y2="-1.6680033422853915e-19"
    stroke="hsla(0,50%,50%,0.6)"
    stroke-width="1"
    transform="translate(2.8653109960,31.2899702075)"
    />
  
  <line
    x1="-23.076923076923077"
    y1="-9.615384615384615"
    x2="3.475006963094566e-20"
    y2="-8.340016711426958e-20"
    stroke="hsla(0,50%,50%,0.6)"
    stroke-width="1"
    transform="translate(2.8653109960,31.2899702075)"
    />
  
  <line
    x1="11.312217194570136"
    y1="-27.149321266968325"
    x2="3.475006963094566e-20"
    y2="-8.340016711426958e-20"
    stroke="hsla(0,50%,50%,0.6)"
    stroke-width="1"
    transform="translate(2.8653109960,31.2899702075)"
    />
  
  <line
    x1="6.950013926189132e-20"
    y1="-1.6680033422853915e-19"
    x2="3.475006963094566e-20"
    y2="-8.340016711426958e-20"
    stroke="hsla(0,50%,50%,0.6)"
    stroke-width="1"
    transform="translate(2.8653109960,31.2899702075)"
    />
  
  <line
    x1="-32.126696832579185"
    y1="-45.248868778280546"
    x2="-23.076923076923077"
    y2="-9.615384615384615"
    stroke="hsla(0,50%,50%,0.6)"
    stroke-width="1"
    transform="translate(2.8653109960,31.2899702075)"
    />
  
</svg>
