<?xml version="1.0"?>
<!DOCTYPE svg PUBLIC "-//W3C//DTD SVG 1.1//EN"
  "http://www.w3.org/Graphics/SVG/1.1/DTD/svg11.dtd">
<svg
  width="240"
  height="240"
  viewBox="-500 -500 1000 1000" xmlns="http://www.w3.org/2000/svg" version="1.1">
  <rect
    x="0"
    y="0"
    width="100"
    height="100"
    fill="hsla(206,100%,53%,0.3)"
    stroke="hsl(206,100%,53%)"
    stroke-width="3"
    transform="" />
  
  <path
    d="M 
      -29.8222637979
      -45.7436856875
      L
    
      -24.9462402740
      -18.0550256768
      L
    
      -17.6470588235
      -23.5294117647
      L
    
      -0.0000000000
      -0.0000000000
      L
    
      -20
      15
      L
    
      -55.2941176470
      4.7058823529
      L
    
      -60.9725988964
      -10.3937155148
      L
    
      -42.0349761526
      -43.5930047694
      z
    "
    fill="hsla(0,0%,50%,0.3)"
    stroke="hsla(0,0%,50%,1)"
    stroke-width="1"
    transform="translate(29.9288024529,15.1885135709)"
    />
  
  <path
    d="M 
      -27.2410771657
      -16.3338980080
      L
    
      -31.5015337494
      -15.5836238338
      L
    
      -30.7843137254
      -13.6764705882
      z
    "
    fill="hsla(0,0%,50%,0.3)"
    stroke="hsla(0,0%,50%,1)"
    stroke-width="1"
    transform="translate(29.9288024529,15.1885135709)"
    />
  
  
  <line
    x1="-29.822263797942004"
    y1="-45.74368568755847"
    x2="-42.03497615262321"
    y2="-43.59300476947536"
    stroke="hsla(0,50%,50%,0.6)"
    stroke-width="1"
    transform="translate(29.9288024529,15.1885135709)"
    />
  
  <line
    x1="-28.80206900346668"
    y1="-39.95047598085071"
    x2="-45.82250070139344"
    y2="-36.953146918544846"
    stroke="hsla(0,50%,50%,0.6)"
    stroke-width="1"
    transform="translate(29.9288024529,15.1885135709)"
    />
  
  <line
    x1="-42.03497615262321"
    y1="-43.59300476947536"
    x2="-60.97259889647433"
    y2="-10.393715514822782"
    stroke="hsla(0,50%,50%,0.6)"
    stroke-width="1"
    transform="translate(29.9288024529,15.1885135709)"
    />
  
  <line
    x1="-17.647058823529413"
    y1="-23.529411764705884"
    x2="-55.294117647058826"
    y2="4.705882352941177"
    stroke="hsla(0,50%,50%,0.6)"
    stroke-width="1"
    transform="translate(29.9288024529,15.1885135709)"
    />
  
  <line
    x1="-24.7212898255654"
    y1="-16.7776371540197"
    x2="-60.97259889647433"
    y2="-10.393715514822782"
    stroke="hsla(0,50%,50%,0.6)"
    stroke-width="1"
    transform="translate(29.9288024529,15.1885135709)"
    />
  
  <line
    x1="-3.5294117647058822"
    y1="-4.705882352941177"
    x2="-27.058823529411764"
    y2="12.941176470588236"
    stroke="hsla(0,50%,50%,0.6)"
    stroke-width="1"
    transform="translate(29.9288024529,15.1885135709)"
    />
  
  <line
    x1="-1.916115768751996e-20"
    y1="-2.5548210250026617e-20"
    x2="-20"
    y2="15"
    stroke="hsla(0,50%,50%,0.6)"
    stroke-width="1"
    transform="translate(29.9288024529,15.1885135709)"
    />
  
  <line
    x1="-9.580578843759981e-21"
    y1="-1.2774105125013307e-20"
    x2="-20"
    y2="15"
    stroke="hsla(0,50%,50%,0.6)"
    stroke-width="1"
    transform="translate(29.9288024529,15.1885135709)"
    />
  
  <line
    x1="-1.916115768751996e-20"
    y1="-2.5548210250026617e-20"
    x2="-9.580578843759981e-21"
    y2="-1.2774105125013307e-20"
    stroke="hsla(0,50%,50%,0.6)"
    stroke-width="1"
    transform="translate(29.9288024529,15.1885135709)"
    />
  
  <line
    x1="-17.647058823529413"
    y1="-23.529411764705884"
    x2="-9.580578843759981e-21"
    y2="-1.2774105125013307e-20"
    stroke="hsla(0,50%,50%,0.6)"
    stroke-width="1"
    transform="translate(29.9288024529,15.1885135709)"
    />
  
  <line
    x1="-29.822263797942004"
    y1="-45.74368568755847"
    x2="-24.7212898255654"
    y2="-16.7776371540197"
    stroke="hsla(0,50%,50%,0.6)"
    stroke-width="1"
    transform="translate(29.9288024529,15.1885135709)"
    />
  
  <line
    x1="-42.03497615262321"
    y1="-43.59300476947536"
    x2="-20"
    y2="15"
    stroke="hsla(0,50%,50%,0.6)"
    stroke-width="1"
    transform="translate(29.9288024529,15.1885135709)"
    />
  
  <line
    x1="-45.82250070139344"
    y1="-36.953146918544846"
    x2="-27.058823529411764"
    y2="12.941176470588236"
    stroke="hsla(0,50%,50%,0.6)"
    stroke-width="1"
    transform="translate(29.9288024529,15.1885135709)"
    />
  
  <line
    x1="-60.97259889647433"
    y1="-10.393715514822782"
    x2="-55.294117647058826"
    y2="4.705882352941177"
    stroke="hsla(0,50%,50%,0.6)"
    stroke-width="1"
    transform="translate(29.9288024529,15.1885135709)"
    />
  
  <line
    x1="-55.294117647058826"
    y1="4.705882352941177"
    x2="-20"
    y2="15"
    stroke="hsla(0,50%,50%,0.6)"
    stroke-width="1"
    transform="translate(29.9288024529,15.1885135709)"
    />
  
</svg>
