<?xml version="1.0"?>
<!DOCTYPE svg PUBLIC "-//W3C//DTD SVG 1.1//EN"
  "http://www.w3.org/Graphics/SVG/1.1/DTD/svg11.dtd">
<svg
  width="240"
  height="240"
  viewBox="-50 -50 200 200" xmlns="http://www.w3.org/2000/svg" version="1.1">
  <rect
    x="0"
    y="0"
    width="100"
    height="100"
    fill="hsla(206,100%,53%,0.3)"
    stroke="hsl(206,100%,53%)"
    stroke-width="3"
    transform="" />
  
  <path
    d="M 
      -19.5220622617
      -58.6905122097
      L
    
      18.6832507247
      -57.6040400261
      L
    
      26.3280691135
      -47.8402024982
      L
    
      4.1914978212
      -30.5078711485
      L
    
      12.4567474048
      -26.6435986159
      L
    
      0.0000000000
      -0.0000000000
      L
    
      -22.6470588235
      -10.5882352941
      L
    
      -30.1730103806
      -46.5743944636
      z
    "
    fill="hsla(0,0%,50%,0.3)"
    stroke="hsla(0,0%,50%,1)"
    stroke-width="1"
    transform="translate(9.7553819608,31.6260939610) scale(1,-1) translate(50,-110)"
    />
  
  <path
    d="M 
      -1.0739948522
      -35.1289409948
      L
    
      -2.4192618223
      -33.5986159169
      L
    
      1.5929325173
      -31.7227847970
      z
    "
    fill="hsla(0,0%,50%,0.3)"
    stroke="hsla(0,0%,50%,1)"
    stroke-width="1"
    transform="translate(9.7553819608,31.6260939610) scale(1,-1) translate(50,-110)"
    />
  
  
  <line
    x1="-19.522062261732525"
    y1="-58.69051220974689"
    x2="18.683250724773217"
    y2="-57.60404002618535"
    stroke="hsla(0,50%,50%,0.6)"
    stroke-width="1"
    transform="translate(9.7553819608,31.6260939610) scale(1,-1) translate(50,-110)"
    />
  
  <line
    x1="-19.522062261732525"
    y1="-58.69051220974689"
    x2="-30.173010380622838"
    y2="-46.57439446366782"
    stroke="hsla(0,50%,50%,0.6)"
    stroke-width="1"
    transform="translate(9.7553819608,31.6260939610) scale(1,-1) translate(50,-110)"
    />
  
  <line
    x1="18.683250724773217"
    y1="-57.60404002618535"
    x2="26.32806911352006"
    y2="-47.84020249821163"
    stroke="hsla(0,50%,50%,0.6)"
    stroke-width="1"
    transform="translate(9.7553819608,31.6260939610) scale(1,-1) translate(50,-110)"
    />
  
  <line
    x1="11.042188127472068"
    y1="-57.82133446289766"
    x2="21.696505157942777"
    y2="-44.213814288165054"
    stroke="hsla(0,50%,50%,0.6)"
    stroke-width="1"
    transform="translate(9.7553819608,31.6260939610) scale(1,-1) translate(50,-110)"
    />
  
  <line
    x1="-30.173010380622838"
    y1="-46.57439446366782"
    x2="12.456747404844291"
    y2="-26.643598615916954"
    stroke="hsla(0,50%,50%,0.6)"
    stroke-width="1"
    transform="translate(9.7553819608,31.6260939610) scale(1,-1) translate(50,-110)"
    />
  
  <line
    x1="11.042188127472068"
    y1="-57.82133446289766"
    x2="-24.152249134948097"
    y2="-17.785467128027683"
    stroke="hsla(0,50%,50%,0.6)"
    stroke-width="1"
    transform="translate(9.7553819608,31.6260939610) scale(1,-1) translate(50,-110)"
    />
  
  <line
    x1="26.32806911352006"
    y1="-47.84020249821163"
    x2="3.1702493356336645"
    y2="-29.70826144797874"
    stroke="hsla(0,50%,50%,0.6)"
    stroke-width="1"
    transform="translate(9.7553819608,31.6260939610) scale(1,-1) translate(50,-110)"
    />
  
  <line
    x1="18.683250724773217"
    y1="-57.60404002618535"
    x2="-22.647058823529413"
    y2="-10.588235294117647"
    stroke="hsla(0,50%,50%,0.6)"
    stroke-width="1"
    transform="translate(9.7553819608,31.6260939610) scale(1,-1) translate(50,-110)"
    />
  
  <line
    x1="-19.522062261732525"
    y1="-58.69051220974689"
    x2="3.1702493356336645"
    y2="-29.70826144797874"
    stroke="hsla(0,50%,50%,0.6)"
    stroke-width="1"
    transform="translate(9.7553819608,31.6260939610) scale(1,-1) translate(50,-110)"
    />
  
  <line
    x1="-24.152249134948097"
    y1="-17.785467128027683"
    x2="2.491349480968858"
    y2="-5.328719723183391"
    stroke="hsla(0,50%,50%,0.6)"
    stroke-width="1"
    transform="translate(9.7553819608,31.6260939610) scale(1,-1) translate(50,-110)"
    />
  
  <line
    x1="-22.647058823529413"
    y1="-10.588235294117647"
    x2="1.6820201770945124e-20"
    y2="-3.5976542676743735e-20"
    stroke="hsla(0,50%,50%,0.6)"
    stroke-width="1"
    transform="translate(9.7553819608,31.6260939610) scale(1,-1) translate(50,-110)"
    />
  
  <line
    x1="-22.647058823529413"
    y1="-10.588235294117647"
    x2="8.410100885472562e-21"
    y2="-1.7988271338371868e-20"
    stroke="hsla(0,50%,50%,0.6)"
    stroke-width="1"
    transform="translate(9.7553819608,31.6260939610) scale(1,-1) translate(50,-110)"
    />
  
  <line
    x1="12.456747404844291"
    y1="-26.643598615916954"
    x2="8.410100885472562e-21"
    y2="-1.7988271338371868e-20"
    stroke="hsla(0,50%,50%,0.6)"
    stroke-width="1"
    transform="translate(9.7553819608,31.6260939610) scale(1,-1) translate(50,-110)"
    />
  
  <line
    x1="1.6820201770945124e-20"
    y1="-3.5976542676743735e-20"
    x2="8.410100885472562e-21"
    y2="-1.7988271338371868e-20"
    stroke="hsla(0,50%,50%,0.6)"
    stroke-width="1"
    transform="translate(9.7553819608,31.6260939610) scale(1,-1) translate(50,-110)"
    />
  
  <line
    x1="-30.173010380622838"
    y1="-46.57439446366782"
    x2="-22.647058823529413"
    y2="-10.588235294117647"
    stroke="hsla(0,50%,50%,0.6)"
    stroke-width="1"
    transform="translate(9.7553819608,31.6260939610) scale(1,-1) translate(50,-110)"
    />
  
</svg>
