<?xml version="1.0"?>
<!DOCTYPE svg PUBLIC "-//W3C//DTD SVG 1.1//EN"
  "http://www.w3.org/Graphics/SVG/1.1/DTD/svg11.dtd">
<svg
  width="240"
  height="240"
  viewBox="-500 -500 1000 1000" xmlns="http://www.w3.org/2000/svg" version="1.1">
  <rect
    x="0"
    y="0"
    width="100"
    height="100"
    fill="hsla(206,100%,53%,0.3)"
    stroke="hsl(206,100%,53%)"
    stroke-width="3"
    transform="" />
  
  <path
    d="M 
      -6.0967813400
      17.3386713928
      L
    
      13.8174969283
      124.0223049733
      L
    
      -19.7192360596
      142.4068179467
      L
    
      -20.4699248795
      143.2804866259
      L
    
      -20.7982886764
      142.9983441649
      L
    
      -16.6415517891
      103.2470176403
      L
    
      -10.3817959764
      76.3980900463
      L
    
      -10.6513883655
      72.1561952239
      L
    
      -16.5663375872
      18.4926559113
      z
    "
    fill="hsla(0,0%,50%,0.3)"
    stroke="hsla(0,0%,50%,1)"
    stroke-width="1"
    transform="translate(3.4903958740,-80.3095790093)"
    />
  
  
  <line
    x1="-12.025425184676173"
    y1="18.911412701139554"
    x2="-13.812426608490785"
    y2="22.418916664366026"
    stroke="hsla(0,50%,50%,0.6)"
    stroke-width="1"
    transform="translate(3.4903958740,-80.3095790093)"
    />
  
  <line
    x1="-16.641551789123945"
    y1="103.24701764036217"
    x2="-20.79828867646347"
    y2="142.99834416493616"
    stroke="hsla(0,50%,50%,0.6)"
    stroke-width="1"
    transform="translate(3.4903958740,-80.3095790093)"
    />
  
  <line
    x1="0"
    y1="50"
    x2="0"
    y2="100"
    stroke="hsla(0,50%,50%,0.6)"
    stroke-width="1"
    transform="translate(3.4903958740,-80.3095790093)"
    />
  
  <line
    x1="-16.641551789123945"
    y1="103.24701764036217"
    x2="-15.923133824081233"
    y2="137.98882804516967"
    stroke="hsla(0,50%,50%,0.6)"
    stroke-width="1"
    transform="translate(3.4903958740,-80.3095790093)"
    />
  
  <line
    x1="-13.812426608490785"
    y1="22.418916664366026"
    x2="-7.535744789764475"
    y2="121.17921250950116"
    stroke="hsla(0,50%,50%,0.6)"
    stroke-width="1"
    transform="translate(3.4903958740,-80.3095790093)"
    />
  
  <line
    x1="-1.8795664935954075"
    y1="39.930893784310314"
    x2="-16.641551789123945"
    y2="103.24701764036217"
    stroke="hsla(0,50%,50%,0.6)"
    stroke-width="1"
    transform="translate(3.4903958740,-80.3095790093)"
    />
  
  <line
    x1="-6.096781340000633"
    y1="17.33867139285375"
    x2="13.817496928367705"
    y2="124.02230497339842"
    stroke="hsla(0,50%,50%,0.6)"
    stroke-width="1"
    transform="translate(3.4903958740,-80.3095790093)"
    />
  
  <line
    x1="-16.5663375872863"
    y1="18.492655911389356"
    x2="-5.610402118950157"
    y2="117.89068143510715"
    stroke="hsla(0,50%,50%,0.6)"
    stroke-width="1"
    transform="translate(3.4903958740,-80.3095790093)"
    />
  
  <line
    x1="-12.025425184676173"
    y1="18.911412701139554"
    x2="0"
    y2="50"
    stroke="hsla(0,50%,50%,0.6)"
    stroke-width="1"
    transform="translate(3.4903958740,-80.3095790093)"
    />
  
  <line
    x1="-13.812426608490785"
    y1="22.418916664366026"
    x2="-1.8795664935954075"
    y2="39.930893784310314"
    stroke="hsla(0,50%,50%,0.6)"
    stroke-width="1"
    transform="translate(3.4903958740,-80.3095790093)"
    />
  
  <line
    x1="-6.096781340000633"
    y1="17.33867139285375"
    x2="-12.025425184676173"
    y2="18.911412701139554"
    stroke="hsla(0,50%,50%,0.6)"
    stroke-width="1"
    transform="translate(3.4903958740,-80.3095790093)"
    />
  
  <line
    x1="-6.096781340000633"
    y1="17.33867139285375"
    x2="-16.5663375872863"
    y2="18.492655911389356"
    stroke="hsla(0,50%,50%,0.6)"
    stroke-width="1"
    transform="translate(3.4903958740,-80.3095790093)"
    />
  
  <line
    x1="-15.923133824081233"
    y1="137.98882804516967"
    x2="-20.469924879595386"
    y2="143.28048662590123"
    stroke="hsla(0,50%,50%,0.6)"
    stroke-width="1"
    transform="translate(3.4903958740,-80.3095790093)"
    />
  
  <line
    x1="-19.836257812725506"
    y1="133.79833848075583"
    x2="-15.923133824081233"
    y2="137.98882804516967"
    stroke="hsla(0,50%,50%,0.6)"
    stroke-width="1"
    transform="translate(3.4903958740,-80.3095790093)"
    />
  
  <line
    x1="11.538322894217826"
    y1="111.81244407616693"
    x2="-19.836257812725506"
    y2="133.79833848075583"
    stroke="hsla(0,50%,50%,0.6)"
    stroke-width="1"
    transform="translate(3.4903958740,-80.3095790093)"
    />
  
  <line
    x1="9.333333333333334"
    y1="100"
    x2="-8.444732884977975"
    y2="106.87676166116297"
    stroke="hsla(0,50%,50%,0.6)"
    stroke-width="1"
    transform="translate(3.4903958740,-80.3095790093)"
    />
  
  <line
    x1="-20.79828867646347"
    y1="142.99834416493616"
    x2="-20.469924879595386"
    y2="143.28048662590123"
    stroke="hsla(0,50%,50%,0.6)"
    stroke-width="1"
    transform="translate(3.4903958740,-80.3095790093)"
    />
  
  <line
    x1="0"
    y1="100"
    x2="9.333333333333334"
    y2="100"
    stroke="hsla(0,50%,50%,0.6)"
    stroke-width="1"
    transform="translate(3.4903958740,-80.3095790093)"
    />
  
  <line
    x1="13.817496928367705"
    y1="124.02230497339842"
    x2="-20.79828867646347"
    y2="142.99834416493616"
    stroke="hsla(0,50%,50%,0.6)"
    stroke-width="1"
    transform="translate(3.4903958740,-80.3095790093)"
    />
  
  <line
    x1="-8.444732884977975"
    y1="106.87676166116297"
    x2="11.538322894217826"
    y2="111.81244407616693"
    stroke="hsla(0,50%,50%,0.6)"
    stroke-width="1"
    transform="translate(3.4903958740,-80.3095790093)"
    />
  
  <line
    x1="12.304332689812323"
    y1="115.91606798113745"
    x2="-7.535744789764475"
    y2="121.17921250950116"
    stroke="hsla(0,50%,50%,0.6)"
    stroke-width="1"
    transform="translate(3.4903958740,-80.3095790093)"
    />
  
  <line
    x1="12.304332689812323"
    y1="115.91606798113745"
    x2="-5.610402118950157"
    y2="117.89068143510715"
    stroke="hsla(0,50%,50%,0.6)"
    stroke-width="1"
    transform="translate(3.4903958740,-80.3095790093)"
    />
  
  <line
    x1="-7.535744789764475"
    y1="121.17921250950116"
    x2="13.817496928367705"
    y2="124.02230497339842"
    stroke="hsla(0,50%,50%,0.6)"
    stroke-width="1"
    transform="translate(3.4903958740,-80.3095790093)"
    />
  
</svg>
