<?xml version="1.0"?>
<!DOCTYPE svg PUBLIC "-//W3C//DTD SVG 1.1//EN"
  "http://www.w3.org/Graphics/SVG/1.1/DTD/svg11.dtd">
<svg
  width="240"
  height="240"
  viewBox="-500 -500 1000 1000" xmlns="http://www.w3.org/2000/svg" version="1.1">
  <rect
    x="0"
    y="0"
    width="100"
    height="100"
    fill="hsla(206,100%,53%,0.3)"
    stroke="hsl(206,100%,53%)"
    stroke-width="3"
    transform="" />
  
  <path
    d="M 
      -252.4771769854
      -297.1702492660
      L
    
      -126.3587164463
      -269.9997357809
      L
    
      -121.0712757893
      -261.5742682423
      L
    
      -167.5722021327
      -232.3923994130
      L
    
      -192.5632882681
      -239.2093134781
      L
    
      -209.5250098495
      -232.4581691317
      L
    
      -218.7465550391
      -246.3514232108
      L
    
      -231.8156358975
      -249.9163263383
      L
    
      -258.9291174216
      -293.1213045608
      z
    "
    fill="hsla(0,0%,50%,0.3)"
    stroke="hsla(0,0%,50%,1)"
    stroke-width="1"
    transform="translate(190.0001966054,264.7813243395)"
    />
  
  
  <line
    x1="-252.47717698543286"
    y1="-297.1702492660639"
    x2="-258.92911742164813"
    y2="-293.12130456088636"
    stroke="hsla(0,50%,50%,0.6)"
    stroke-width="1"
    transform="translate(190.0001966054,264.7813243395)"
    />
  
  <line
    x1="-225.37306608174492"
    y1="-253.25216956126238"
    x2="-231.81563589758997"
    y2="-249.91632633830065"
    stroke="hsla(0,50%,50%,0.6)"
    stroke-width="1"
    transform="translate(190.0001966054,264.7813243395)"
    />
  
  <line
    x1="-143.06622043329855"
    y1="-258.9102529181346"
    x2="-212.03781676631573"
    y2="-246.95538364761"
    stroke="hsla(0,50%,50%,0.6)"
    stroke-width="1"
    transform="translate(190.0001966054,264.7813243395)"
    />
  
  <line
    x1="-193.43393876697553"
    y1="-267.22302225584593"
    x2="-222.6094403252692"
    y2="-247.40511719186597"
    stroke="hsla(0,50%,50%,0.6)"
    stroke-width="1"
    transform="translate(190.0001966054,264.7813243395)"
    />
  
  <line
    x1="-143.06622043329855"
    y1="-258.9102529181346"
    x2="-209.52500984958127"
    y2="-232.4581691317529"
    stroke="hsla(0,50%,50%,0.6)"
    stroke-width="1"
    transform="translate(190.0001966054,264.7813243395)"
    />
  
  <line
    x1="-168.4104787837829"
    y1="-234.0113771312994"
    x2="-170.2756090684572"
    y2="-233.12981805361994"
    stroke="hsla(0,50%,50%,0.6)"
    stroke-width="1"
    transform="translate(190.0001966054,264.7813243395)"
    />
  
  <line
    x1="-126.35871644639207"
    y1="-269.99973578097985"
    x2="-143.06622043329855"
    y2="-258.9102529181346"
    stroke="hsla(0,50%,50%,0.6)"
    stroke-width="1"
    transform="translate(190.0001966054,264.7813243395)"
    />
  
  <line
    x1="-121.07127578935021"
    y1="-261.574268242331"
    x2="-167.57220213271833"
    y2="-232.39239941307164"
    stroke="hsla(0,50%,50%,0.6)"
    stroke-width="1"
    transform="translate(190.0001966054,264.7813243395)"
    />
  
  <line
    x1="-252.47717698543286"
    y1="-297.1702492660639"
    x2="-126.35871644639207"
    y2="-269.99973578097985"
    stroke="hsla(0,50%,50%,0.6)"
    stroke-width="1"
    transform="translate(190.0001966054,264.7813243395)"
    />
  
  <line
    x1="-231.81563589758997"
    y1="-249.91632633830065"
    x2="-167.57220213271833"
    y2="-232.39239941307164"
    stroke="hsla(0,50%,50%,0.6)"
    stroke-width="1"
    transform="translate(190.0001966054,264.7813243395)"
    />
  
  <line
    x1="-225.37306608174492"
    y1="-253.25216956126238"
    x2="-168.4104787837829"
    y2="-234.0113771312994"
    stroke="hsla(0,50%,50%,0.6)"
    stroke-width="1"
    transform="translate(190.0001966054,264.7813243395)"
    />
  
  <line
    x1="-126.35871644639207"
    y1="-269.99973578097985"
    x2="-121.07127578935021"
    y2="-261.574268242331"
    stroke="hsla(0,50%,50%,0.6)"
    stroke-width="1"
    transform="translate(190.0001966054,264.7813243395)"
    />
  
  <line
    x1="-193.43393876697553"
    y1="-267.22302225584593"
    x2="-170.2756090684572"
    y2="-233.12981805361994"
    stroke="hsla(0,50%,50%,0.6)"
    stroke-width="1"
    transform="translate(190.0001966054,264.7813243395)"
    />
  
  <line
    x1="-168.4104787837829"
    y1="-234.0113771312994"
    x2="-167.57220213271833"
    y2="-232.39239941307164"
    stroke="hsla(0,50%,50%,0.6)"
    stroke-width="1"
    transform="translate(190.0001966054,264.7813243395)"
    />
  
  <line
    x1="-252.47717698543286"
    y1="-297.1702492660639"
    x2="-209.52500984958127"
    y2="-232.4581691317529"
    stroke="hsla(0,50%,50%,0.6)"
    stroke-width="1"
    transform="translate(190.0001966054,264.7813243395)"
    />
  
  <line
    x1="-212.03781676631573"
    y1="-246.95538364761"
    x2="-209.52500984958127"
    y2="-232.4581691317529"
    stroke="hsla(0,50%,50%,0.6)"
    stroke-width="1"
    transform="translate(190.0001966054,264.7813243395)"
    />
  
  <line
    x1="-258.92911742164813"
    y1="-293.12130456088636"
    x2="-231.81563589758997"
    y2="-249.91632633830065"
    stroke="hsla(0,50%,50%,0.6)"
    stroke-width="1"
    transform="translate(190.0001966054,264.7813243395)"
    />
  
  <line
    x1="-225.37306608174492"
    y1="-253.25216956126238"
    x2="-222.6094403252692"
    y2="-247.40511719186597"
    stroke="hsla(0,50%,50%,0.6)"
    stroke-width="1"
    transform="translate(190.0001966054,264.7813243395)"
    />
  
</svg>
