<?xml version="1.0"?>
<!DOCTYPE svg PUBLIC "-//W3C//DTD SVG 1.1//EN"
  "http://www.w3.org/Graphics/SVG/1.1/DTD/svg11.dtd">
<svg
  width="240"
  height="240"
  viewBox="-500 -500 1000 1000" xmlns="http://www.w3.org/2000/svg" version="1.1">
  <rect
    x="0"
    y="0"
    width="100"
    height="100"
    fill="hsla(206,100%,53%,0.3)"
    stroke="hsl(206,100%,53%)"
    stroke-width="3"
    transform="" />
  
  <path
    d="M 
      0
      0
      L
    
      100
      0
      L
    
      100
      90.6666666666
      L
    
      100.7100591715
      90.9625246548
      L
    
      100.7100591715
      98.2958579881
      L
    
      0.7100591715
      98.2958579881
      L
    
      0.7100591715
      50.2958579881
      L
    
      0
      50
      z
    "
    fill="hsla(0,0%,50%,0.3)"
    stroke="hsla(0,0%,50%,1)"
    stroke-width="1"
    transform="translate(-50.3550295857,-49.1479289940)"
    />
  
  
  <line
    x1="0"
    y1="0"
    x2="100"
    y2="0"
    stroke="hsla(0,50%,50%,0.6)"
    stroke-width="1"
    transform="translate(-50.3550295857,-49.1479289940)"
    />
  
  <line
    x1="0"
    y1="0"
    x2="0"
    y2="50"
    stroke="hsla(0,50%,50%,0.6)"
    stroke-width="1"
    transform="translate(-50.3550295857,-49.1479289940)"
    />
  
  <line
    x1="0.7100591715976331"
    y1="49.29585798816568"
    x2="0.7100591715976331"
    y2="98.29585798816568"
    stroke="hsla(0,50%,50%,0.6)"
    stroke-width="1"
    transform="translate(-50.3550295857,-49.1479289940)"
    />
  
  <line
    x1="100"
    y1="0"
    x2="100"
    y2="91.66666666666667"
    stroke="hsla(0,50%,50%,0.6)"
    stroke-width="1"
    transform="translate(-50.3550295857,-49.1479289940)"
    />
  
  <line
    x1="100.71005917159763"
    y1="90.96252465483235"
    x2="100.71005917159763"
    y2="98.29585798816568"
    stroke="hsla(0,50%,50%,0.6)"
    stroke-width="1"
    transform="translate(-50.3550295857,-49.1479289940)"
    />
  
  <line
    x1="0.7100591715976331"
    y1="49.29585798816568"
    x2="0"
    y2="50"
    stroke="hsla(0,50%,50%,0.6)"
    stroke-width="1"
    transform="translate(-50.3550295857,-49.1479289940)"
    />
  
  <line
    x1="0.7100591715976331"
    y1="49.29585798816568"
    x2="100.71005917159763"
    y2="90.96252465483235"
    stroke="hsla(0,50%,50%,0.6)"
    stroke-width="1"
    transform="translate(-50.3550295857,-49.1479289940)"
    />
  
  <line
    x1="0"
    y1="50"
    x2="100"
    y2="91.66666666666667"
    stroke="hsla(0,50%,50%,0.6)"
    stroke-width="1"
    transform="translate(-50.3550295857,-49.1479289940)"
    />
  
  <line
    x1="100.71005917159763"
    y1="90.96252465483235"
    x2="100"
    y2="91.66666666666667"
    stroke="hsla(0,50%,50%,0.6)"
    stroke-width="1"
    transform="translate(-50.3550295857,-49.1479289940)"
    />
  
  <line
    x1="0.7100591715976331"
    y1="98.29585798816568"
    x2="100.71005917159763"
    y2="98.29585798816568"
    stroke="hsla(0,50%,50%,0.6)"
    stroke-width="1"
    transform="translate(-50.3550295857,-49.1479289940)"
    />
  
</svg>
