<?xml version="1.0"?>
<!DOCTYPE svg PUBLIC "-//W3C//DTD SVG 1.1//EN"
  "http://www.w3.org/Graphics/SVG/1.1/DTD/svg11.dtd">
<svg
  width="240"
  height="240"
  viewBox="-500 -500 1000 1000" xmlns="http://www.w3.org/2000/svg" version="1.1">
  <rect
    x="0"
    y="0"
    width="100"
    height="100"
    fill="hsla(206,100%,53%,0.3)"
    stroke="hsl(206,100%,53%)"
    stroke-width="3"
    transform="" />
  
  <path
    d="M 
      25
      39.6484375
      L
    
      75
      39.6484375
      L
    
      75
      75.1702264908
      L
    
      49.9702980990
      99.9702980990
      L
    
      25
      75
      z
    "
    fill="hsla(0,0%,50%,0.3)"
    stroke="hsla(0,0%,50%,1)"
    stroke-width="1"
    transform="translate(-50,-69.8093677995)"
    />
  
  
  <line
    x1="25"
    y1="39.6484375"
    x2="25"
    y2="75"
    stroke="hsla(0,50%,50%,0.6)"
    stroke-width="1"
    transform="translate(-50,-69.8093677995)"
    />
  
  <line
    x1="50"
    y1="39.6484375"
    x2="50"
    y2="99.94086869266054"
    stroke="hsla(0,50%,50%,0.6)"
    stroke-width="1"
    transform="translate(-50,-69.8093677995)"
    />
  
  <line
    x1="75"
    y1="39.6484375"
    x2="75"
    y2="75.17022649082568"
    stroke="hsla(0,50%,50%,0.6)"
    stroke-width="1"
    transform="translate(-50,-69.8093677995)"
    />
  
  <line
    x1="50"
    y1="50.39958428899082"
    x2="75"
    y2="75.17022649082568"
    stroke="hsla(0,50%,50%,0.6)"
    stroke-width="1"
    transform="translate(-50,-69.8093677995)"
    />
  
  <line
    x1="50.40169091102145"
    y1="49.94244730834572"
    x2="49.9408712040773"
    y2="99.94032371522616"
    stroke="hsla(0,50%,50%,0.6)"
    stroke-width="1"
    transform="translate(-50,-69.8093677995)"
    />
  
  <line
    x1="49.9408712040773"
    y1="99.94032371522616"
    x2="49.97029809907834"
    y2="99.97029809907833"
    stroke="hsla(0,50%,50%,0.6)"
    stroke-width="1"
    transform="translate(-50,-69.8093677995)"
    />
  
  <line
    x1="25"
    y1="75"
    x2="49.97029809907834"
    y2="99.97029809907833"
    stroke="hsla(0,50%,50%,0.6)"
    stroke-width="1"
    transform="translate(-50,-69.8093677995)"
    />
  
  <line
    x1="25"
    y1="39.6484375"
    x2="75"
    y2="39.6484375"
    stroke="hsla(0,50%,50%,0.6)"
    stroke-width="1"
    transform="translate(-50,-69.8093677995)"
    />
  
  <line
    x1="50.40169091102145"
    y1="49.94244730834572"
    x2="75"
    y2="50.16916464916751"
    stroke="hsla(0,50%,50%,0.6)"
    stroke-width="1"
    transform="translate(-50,-69.8093677995)"
    />
  
  <line
    x1="25"
    y1="49.609375"
    x2="75"
    y2="49.609375"
    stroke="hsla(0,50%,50%,0.6)"
    stroke-width="1"
    transform="translate(-50,-69.8093677995)"
    />
  
  <line
    x1="25"
    y1="50"
    x2="50"
    y2="50"
    stroke="hsla(0,50%,50%,0.6)"
    stroke-width="1"
    transform="translate(-50,-69.8093677995)"
    />
  
  <line
    x1="50"
    y1="50"
    x2="25"
    y2="75"
    stroke="hsla(0,50%,50%,0.6)"
    stroke-width="1"
    transform="translate(-50,-69.8093677995)"
    />
  
  <line
    x1="75"
    y1="50.16916464916751"
    x2="50"
    y2="50.39958428899082"
    stroke="hsla(0,50%,50%,0.6)"
    stroke-width="1"
    transform="translate(-50,-69.8093677995)"
    />
  
  <line
    x1="25"
    y1="64.453125"
    x2="75"
    y2="64.453125"
    stroke="hsla(0,50%,50%,0.6)"
    stroke-width="1"
    transform="translate(-50,-69.8093677995)"
    />
  
  <line
    x1="75"
    y1="75.17022649082568"
    x2="49.97029809907834"
    y2="99.97029809907833"
    stroke="hsla(0,50%,50%,0.6)"
    stroke-width="1"
    transform="translate(-50,-69.8093677995)"
    />
  
  <line
    x1="49.9408712040773"
    y1="99.94032371522616"
    x2="50"
    y2="99.94086869266054"
    stroke="hsla(0,50%,50%,0.6)"
    stroke-width="1"
    transform="translate(-50,-69.8093677995)"
    />
  
</svg>
