<?xml version="1.0"?>
<!DOCTYPE svg PUBLIC "-//W3C//DTD SVG 1.1//EN"
  "http://www.w3.org/Graphics/SVG/1.1/DTD/svg11.dtd">
<svg
  width="240"
  height="240"
  viewBox="-50 -50 200 200" xmlns="http://www.w3.org/2000/svg" version="1.1">
  <rect
    x="0"
    y="0"
    width="100"
    height="100"
    fill="hsla(206,100%,53%,0.3)"
    stroke="hsl(206,100%,53%)"
    stroke-width="3"
    transform="" />
  
  <path
    d="M 
      47.9597273483
      -13.6373286258
      L
    
      58.0378718574
      1.0969094941
      L
    
      47.4285520104
      10.8901278145
      L
    
      42.8571428571
      7.1944586095
      L
    
      42.8571428571
      15.1098901098
      L
    
      32.9418191750
      24.2624965856
      L
    
      28.5714285714
      20.6521739130
      L
    
      28.5714285714
      18.0159323209
      L
    
      25.5690274442
      13.7246244518
      L
    
      28.5714285714
      2.8702809591
      L
    
      28.5714285714
      0
      L
    
      29.3653720091
      0
      L
    
      32.4218132855
      -11.0497105729
      z
    "
    fill="hsla(0,0%,50%,0.3)"
    stroke="hsla(0,0%,50%,1)"
    stroke-width="1"
    transform="translate(-30.6813412766,4.3401556218) scale(1,-1) translate(50,-110)"
    />
  
  
  <line
    x1="44.542064016617886"
    y1="-9.81352091398357"
    x2="58.0378718574967"
    y2="1.0969094941788713"
    stroke="hsla(0,50%,50%,0.6)"
    stroke-width="1"
    transform="translate(-30.6813412766,4.3401556218) scale(1,-1) translate(50,-110)"
    />
  
  <line
    x1="47.95972734833058"
    y1="-13.637328625846996"
    x2="58.0378718574967"
    y2="1.0969094941788713"
    stroke="hsla(0,50%,50%,0.6)"
    stroke-width="1"
    transform="translate(-30.6813412766,4.3401556218) scale(1,-1) translate(50,-110)"
    />
  
  <line
    x1="32.4218132855563"
    y1="-11.049710572973353"
    x2="47.428552010425385"
    y2="10.89012781455239"
    stroke="hsla(0,50%,50%,0.6)"
    stroke-width="1"
    transform="translate(-30.6813412766,4.3401556218) scale(1,-1) translate(50,-110)"
    />
  
  <line
    x1="35.56085355490511"
    y1="1.2959116230761967"
    x2="47.428552010425385"
    y2="10.89012781455239"
    stroke="hsla(0,50%,50%,0.6)"
    stroke-width="1"
    transform="translate(-30.6813412766,4.3401556218) scale(1,-1) translate(50,-110)"
    />
  
  <line
    x1="25.569027444287897"
    y1="13.724624451808783"
    x2="32.941819175088774"
    y2="24.26249658563234"
    stroke="hsla(0,50%,50%,0.6)"
    stroke-width="1"
    transform="translate(-30.6813412766,4.3401556218) scale(1,-1) translate(50,-110)"
    />
  
  <line
    x1="47.95972734833058"
    y1="-13.637328625846996"
    x2="32.4218132855563"
    y2="-11.049710572973353"
    stroke="hsla(0,50%,50%,0.6)"
    stroke-width="1"
    transform="translate(-30.6813412766,4.3401556218) scale(1,-1) translate(50,-110)"
    />
  
  <line
    x1="28.571428571428573"
    y1="20.652173913043477"
    x2="32.941819175088774"
    y2="24.26249658563234"
    stroke="hsla(0,50%,50%,0.6)"
    stroke-width="1"
    transform="translate(-30.6813412766,4.3401556218) scale(1,-1) translate(50,-110)"
    />
  
  <line
    x1="28.571428571428573"
    y1="0"
    x2="42.857142857142854"
    y2="0"
    stroke="hsla(0,50%,50%,0.6)"
    stroke-width="1"
    transform="translate(-30.6813412766,4.3401556218) scale(1,-1) translate(50,-110)"
    />
  
  <line
    x1="28.571428571428573"
    y1="0"
    x2="28.571428571428573"
    y2="20.652173913043477"
    stroke="hsla(0,50%,50%,0.6)"
    stroke-width="1"
    transform="translate(-30.6813412766,4.3401556218) scale(1,-1) translate(50,-110)"
    />
  
  <line
    x1="42.857142857142854"
    y1="0"
    x2="42.857142857142854"
    y2="15.10989010989011"
    stroke="hsla(0,50%,50%,0.6)"
    stroke-width="1"
    transform="translate(-30.6813412766,4.3401556218) scale(1,-1) translate(50,-110)"
    />
  
  <line
    x1="32.4218132855563"
    y1="-11.049710572973353"
    x2="25.569027444287897"
    y2="13.724624451808783"
    stroke="hsla(0,50%,50%,0.6)"
    stroke-width="1"
    transform="translate(-30.6813412766,4.3401556218) scale(1,-1) translate(50,-110)"
    />
  
  <line
    x1="47.95972734833058"
    y1="-13.637328625846996"
    x2="39.03110377098817"
    y2="18.641618497109828"
    stroke="hsla(0,50%,50%,0.6)"
    stroke-width="1"
    transform="translate(-30.6813412766,4.3401556218) scale(1,-1) translate(50,-110)"
    />
  
  <line
    x1="25.569027444287897"
    y1="13.724624451808783"
    x2="42.857142857142854"
    y2="15.10989010989011"
    stroke="hsla(0,50%,50%,0.6)"
    stroke-width="1"
    transform="translate(-30.6813412766,4.3401556218) scale(1,-1) translate(50,-110)"
    />
  
  <line
    x1="44.542064016617886"
    y1="-9.81352091398357"
    x2="35.56085355490511"
    y2="1.2959116230761967"
    stroke="hsla(0,50%,50%,0.6)"
    stroke-width="1"
    transform="translate(-30.6813412766,4.3401556218) scale(1,-1) translate(50,-110)"
    />
  
  <line
    x1="39.03110377098817"
    y1="18.641618497109828"
    x2="28.571428571428573"
    y2="20.652173913043477"
    stroke="hsla(0,50%,50%,0.6)"
    stroke-width="1"
    transform="translate(-30.6813412766,4.3401556218) scale(1,-1) translate(50,-110)"
    />
  
  <line
    x1="58.0378718574967"
    y1="1.0969094941788713"
    x2="47.428552010425385"
    y2="10.89012781455239"
    stroke="hsla(0,50%,50%,0.6)"
    stroke-width="1"
    transform="translate(-30.6813412766,4.3401556218) scale(1,-1) translate(50,-110)"
    />
  
  <line
    x1="42.857142857142854"
    y1="15.10989010989011"
    x2="32.941819175088774"
    y2="24.26249658563234"
    stroke="hsla(0,50%,50%,0.6)"
    stroke-width="1"
    transform="translate(-30.6813412766,4.3401556218) scale(1,-1) translate(50,-110)"
    />
  
</svg>
