<?xml version="1.0"?>
<!DOCTYPE svg PUBLIC "-//W3C//DTD SVG 1.1//EN"
  "http://www.w3.org/Graphics/SVG/1.1/DTD/svg11.dtd">
<svg
  width="240"
  height="240"
  viewBox="-500 -500 1000 1000" xmlns="http://www.w3.org/2000/svg" version="1.1">
  <rect
    x="0"
    y="0"
    width="100"
    height="100"
    fill="hsla(206,100%,53%,0.3)"
    stroke="hsl(206,100%,53%)"
    stroke-width="3"
    transform="" />
  
  <path
    d="M 
      11.6933737548
      -195.0411433521
      L
    
      9.9778103269
      -145.0705835981
      L
    
      -19.2468491681
      -146.0739095018
      L
    
      -20.4056590154
      -144.2399307059
      L
    
      -22.5442586144
      -144.6042248742
      L
    
      -41.3358085848
      -122.1996486635
      L
    
      -79.6448679081
      -154.3308791684
      L
    
      -45.3176533297
      -190.6852783422
      L
    
      -39.1522873880
      -184.8637039400
      L
    
      -38.6730852516
      -185.2250391444
      L
    
      -38.0840038598
      -185.3398473808
      L
    
      -38.2916347403
      -193.8168371256
      z
    "
    fill="hsla(0,0%,50%,0.3)"
    stroke="hsla(0,0%,50%,1)"
    stroke-width="1"
    transform="translate(33.9757470766,158.6203960078)"
    />
  
  
  <line
    x1="11.693373754872239"
    y1="-195.04114335210048"
    x2="-38.291634740313825"
    y2="-193.8168371256288"
    stroke="hsla(0,50%,50%,0.6)"
    stroke-width="1"
    transform="translate(33.9757470766,158.6203960078)"
    />
  
  <line
    x1="11.693373754872239"
    y1="-195.04114335210048"
    x2="-38.67308525169071"
    y2="-185.22503914448478"
    stroke="hsla(0,50%,50%,0.6)"
    stroke-width="1"
    transform="translate(33.9757470766,158.6203960078)"
    />
  
  <line
    x1="-31.122235861217106"
    y1="-146.48160913943636"
    x2="9.977810326957046"
    y2="-145.07058359813334"
    stroke="hsla(0,50%,50%,0.6)"
    stroke-width="1"
    transform="translate(33.9757470766,158.6203960078)"
    />
  
  <line
    x1="-17.04200952793417"
    y1="-163.9863336701795"
    x2="-37.33939656416919"
    y2="-154.93960829603967"
    stroke="hsla(0,50%,50%,0.6)"
    stroke-width="1"
    transform="translate(33.9757470766,158.6203960078)"
    />
  
  <line
    x1="-79.64486790818536"
    y1="-154.3308791684712"
    x2="-20.4056590154468"
    y2="-144.23993070593332"
    stroke="hsla(0,50%,50%,0.6)"
    stroke-width="1"
    transform="translate(33.9757470766,158.6203960078)"
    />
  
  <line
    x1="-38.67308525169071"
    y1="-185.22503914448478"
    x2="-79.64486790818536"
    y2="-154.3308791684712"
    stroke="hsla(0,50%,50%,0.6)"
    stroke-width="1"
    transform="translate(33.9757470766,158.6203960078)"
    />
  
  <line
    x1="-14.90834680860333"
    y1="-153.70828325487352"
    x2="-31.122235861217106"
    y2="-146.48160913943636"
    stroke="hsla(0,50%,50%,0.6)"
    stroke-width="1"
    transform="translate(33.9757470766,158.6203960078)"
    />
  
  <line
    x1="-45.317653329779795"
    y1="-190.6852783422727"
    x2="-79.64486790818536"
    y2="-154.3308791684712"
    stroke="hsla(0,50%,50%,0.6)"
    stroke-width="1"
    transform="translate(33.9757470766,158.6203960078)"
    />
  
  <line
    x1="-37.33939656416919"
    y1="-154.93960829603967"
    x2="-20.4056590154468"
    y2="-144.23993070593332"
    stroke="hsla(0,50%,50%,0.6)"
    stroke-width="1"
    transform="translate(33.9757470766,158.6203960078)"
    />
  
  <line
    x1="-45.317653329779795"
    y1="-190.6852783422727"
    x2="-17.04200952793417"
    y2="-163.9863336701795"
    stroke="hsla(0,50%,50%,0.6)"
    stroke-width="1"
    transform="translate(33.9757470766,158.6203960078)"
    />
  
  <line
    x1="-14.90834680860333"
    y1="-153.70828325487352"
    x2="-41.335808584873064"
    y2="-122.19964866351015"
    stroke="hsla(0,50%,50%,0.6)"
    stroke-width="1"
    transform="translate(33.9757470766,158.6203960078)"
    />
  
  <line
    x1="-79.64486790818536"
    y1="-154.3308791684712"
    x2="-41.335808584873064"
    y2="-122.19964866351015"
    stroke="hsla(0,50%,50%,0.6)"
    stroke-width="1"
    transform="translate(33.9757470766,158.6203960078)"
    />
  
  <line
    x1="11.693373754872239"
    y1="-195.04114335210048"
    x2="-20.4056590154468"
    y2="-144.23993070593332"
    stroke="hsla(0,50%,50%,0.6)"
    stroke-width="1"
    transform="translate(33.9757470766,158.6203960078)"
    />
  
  <line
    x1="-38.67308525169071"
    y1="-185.22503914448478"
    x2="-14.90834680860333"
    y2="-153.70828325487352"
    stroke="hsla(0,50%,50%,0.6)"
    stroke-width="1"
    transform="translate(33.9757470766,158.6203960078)"
    />
  
  <line
    x1="-17.04200952793417"
    y1="-163.9863336701795"
    x2="-20.4056590154468"
    y2="-144.23993070593332"
    stroke="hsla(0,50%,50%,0.6)"
    stroke-width="1"
    transform="translate(33.9757470766,158.6203960078)"
    />
  
  <line
    x1="11.693373754872239"
    y1="-195.04114335210048"
    x2="9.977810326957046"
    y2="-145.07058359813334"
    stroke="hsla(0,50%,50%,0.6)"
    stroke-width="1"
    transform="translate(33.9757470766,158.6203960078)"
    />
  
  <line
    x1="-38.67308525169071"
    y1="-185.22503914448478"
    x2="-31.122235861217106"
    y2="-146.48160913943636"
    stroke="hsla(0,50%,50%,0.6)"
    stroke-width="1"
    transform="translate(33.9757470766,158.6203960078)"
    />
  
  <line
    x1="-38.291634740313825"
    y1="-193.8168371256288"
    x2="-37.33939656416919"
    y2="-154.93960829603967"
    stroke="hsla(0,50%,50%,0.6)"
    stroke-width="1"
    transform="translate(33.9757470766,158.6203960078)"
    />
  
</svg>
