<?xml version="1.0"?>
<!DOCTYPE svg PUBLIC "-//W3C//DTD SVG 1.1//EN"
  "http://www.w3.org/Graphics/SVG/1.1/DTD/svg11.dtd">
<svg
  width="240"
  height="240"
  viewBox="-50 -50 200 200" xmlns="http://www.w3.org/2000/svg" version="1.1">
  <rect
    x="0"
    y="0"
    width="100"
    height="100"
    fill="hsla(206,100%,53%,0.3)"
    stroke="hsl(206,100%,53%)"
    stroke-width="3"
    transform="" />
  
  <path
    d="M 
      28.1213017751
      0
      L
    
      36.9970414201
      8.8017751479
      L
    
      37.0710059171
      26.4792899408
      L
    
      49.4970414201
      38.8017751479
      L
    
      0
      39.0088757396
      L
    
      12.3224852071
      26.5828402366
      L
    
      12.2485207100
      8.9053254437
      L
    
      21.0502958579
      0.0295857988
      z
    "
    fill="hsla(0,0%,50%,0.3)"
    stroke="hsla(0,0%,50%,1)"
    stroke-width="1"
    transform="translate(-21.6539154955,-13.9138198039) scale(1,-1) translate(50,-110)"
    />
  
  <path
    d="M 
      28.1582840236
      8.8387573964
      L
    
      21.0872781065
      8.8683431952
      L
    
      21.1390532544
      21.2426035502
      L
    
      28.2100591715
      21.2130177514
      z
    "
    fill="hsla(0,0%,50%,0.3)"
    stroke="hsla(0,0%,50%,1)"
    stroke-width="1"
    transform="translate(-21.6539154955,-13.9138198039) scale(1,-1) translate(50,-110)"
    />
  
  
  <line
    x1="28.12130177514793"
    y1="0"
    x2="36.99704142011834"
    y2="8.801775147928995"
    stroke="hsla(0,50%,50%,0.6)"
    stroke-width="1"
    transform="translate(-21.6539154955,-13.9138198039) scale(1,-1) translate(50,-110)"
    />
  
  <line
    x1="24.585798816568047"
    y1="0.014792899408284023"
    x2="33.46153846153846"
    y2="8.816568047337277"
    stroke="hsla(0,50%,50%,0.6)"
    stroke-width="1"
    transform="translate(-21.6539154955,-13.9138198039) scale(1,-1) translate(50,-110)"
    />
  
  <line
    x1="28.180473372781066"
    y1="14.142011834319527"
    x2="37.05621301775148"
    y2="22.943786982248522"
    stroke="hsla(0,50%,50%,0.6)"
    stroke-width="1"
    transform="translate(-21.6539154955,-13.9138198039) scale(1,-1) translate(50,-110)"
    />
  
  <line
    x1="31.745562130177515"
    y1="21.198224852071007"
    x2="49.49704142011834"
    y2="38.80177514792899"
    stroke="hsla(0,50%,50%,0.6)"
    stroke-width="1"
    transform="translate(-21.6539154955,-13.9138198039) scale(1,-1) translate(50,-110)"
    />
  
  <line
    x1="14.00887573964497"
    y1="7.1301775147929"
    x2="21.109467455621303"
    y2="14.171597633136095"
    stroke="hsla(0,50%,50%,0.6)"
    stroke-width="1"
    transform="translate(-21.6539154955,-13.9138198039) scale(1,-1) translate(50,-110)"
    />
  
  <line
    x1="28.21005917159763"
    y1="21.21301775147929"
    x2="37.085798816568044"
    y2="30.014792899408285"
    stroke="hsla(0,50%,50%,0.6)"
    stroke-width="1"
    transform="translate(-21.6539154955,-13.9138198039) scale(1,-1) translate(50,-110)"
    />
  
  <line
    x1="36.99704142011834"
    y1="8.801775147928995"
    x2="37.085798816568044"
    y2="30.014792899408285"
    stroke="hsla(0,50%,50%,0.6)"
    stroke-width="1"
    transform="translate(-21.6539154955,-13.9138198039) scale(1,-1) translate(50,-110)"
    />
  
  <line
    x1="28.12130177514793"
    y1="0"
    x2="28.284023668639055"
    y2="38.8905325443787"
    stroke="hsla(0,50%,50%,0.6)"
    stroke-width="1"
    transform="translate(-21.6539154955,-13.9138198039) scale(1,-1) translate(50,-110)"
    />
  
  <line
    x1="21.050295857988164"
    y1="0.029585798816568046"
    x2="21.21301775147929"
    y2="38.92011834319526"
    stroke="hsla(0,50%,50%,0.6)"
    stroke-width="1"
    transform="translate(-21.6539154955,-13.9138198039) scale(1,-1) translate(50,-110)"
    />
  
  <line
    x1="12.248520710059172"
    y1="8.905325443786982"
    x2="12.337278106508876"
    y2="30.118343195266274"
    stroke="hsla(0,50%,50%,0.6)"
    stroke-width="1"
    transform="translate(-21.6539154955,-13.9138198039) scale(1,-1) translate(50,-110)"
    />
  
  <line
    x1="28.12130177514793"
    y1="0"
    x2="21.050295857988164"
    y2="0.029585798816568046"
    stroke="hsla(0,50%,50%,0.6)"
    stroke-width="1"
    transform="translate(-21.6539154955,-13.9138198039) scale(1,-1) translate(50,-110)"
    />
  
  <line
    x1="17.60355029585799"
    y1="21.257396449704142"
    x2="31.80473372781065"
    y2="35.34023668639053"
    stroke="hsla(0,50%,50%,0.6)"
    stroke-width="1"
    transform="translate(-21.6539154955,-13.9138198039) scale(1,-1) translate(50,-110)"
    />
  
  <line
    x1="12.307692307692308"
    y1="23.047337278106507"
    x2="21.183431952662723"
    y2="31.849112426035504"
    stroke="hsla(0,50%,50%,0.6)"
    stroke-width="1"
    transform="translate(-21.6539154955,-13.9138198039) scale(1,-1) translate(50,-110)"
    />
  
  <line
    x1="36.99704142011834"
    y1="8.801775147928995"
    x2="12.248520710059172"
    y2="8.905325443786982"
    stroke="hsla(0,50%,50%,0.6)"
    stroke-width="1"
    transform="translate(-21.6539154955,-13.9138198039) scale(1,-1) translate(50,-110)"
    />
  
  <line
    x1="12.337278106508876"
    y1="30.118343195266274"
    x2="21.21301775147929"
    y2="38.92011834319526"
    stroke="hsla(0,50%,50%,0.6)"
    stroke-width="1"
    transform="translate(-21.6539154955,-13.9138198039) scale(1,-1) translate(50,-110)"
    />
  
  <line
    x1="21.050295857988164"
    y1="0.029585798816568046"
    x2="12.248520710059172"
    y2="8.905325443786982"
    stroke="hsla(0,50%,50%,0.6)"
    stroke-width="1"
    transform="translate(-21.6539154955,-13.9138198039) scale(1,-1) translate(50,-110)"
    />
  
  <line
    x1="24.585798816568047"
    y1="0.014792899408284023"
    x2="15.784023668639053"
    y2="8.890532544378699"
    stroke="hsla(0,50%,50%,0.6)"
    stroke-width="1"
    transform="translate(-21.6539154955,-13.9138198039) scale(1,-1) translate(50,-110)"
    />
  
  <line
    x1="21.109467455621303"
    y1="14.171597633136095"
    x2="12.307692307692308"
    y2="23.047337278106507"
    stroke="hsla(0,50%,50%,0.6)"
    stroke-width="1"
    transform="translate(-21.6539154955,-13.9138198039) scale(1,-1) translate(50,-110)"
    />
  
  <line
    x1="17.60355029585799"
    y1="21.257396449704142"
    x2="0"
    y2="39.00887573964497"
    stroke="hsla(0,50%,50%,0.6)"
    stroke-width="1"
    transform="translate(-21.6539154955,-13.9138198039) scale(1,-1) translate(50,-110)"
    />
  
  <line
    x1="35.22189349112426"
    y1="7.041420118343195"
    x2="28.180473372781066"
    y2="14.142011834319527"
    stroke="hsla(0,50%,50%,0.6)"
    stroke-width="1"
    transform="translate(-21.6539154955,-13.9138198039) scale(1,-1) translate(50,-110)"
    />
  
  <line
    x1="21.13905325443787"
    y1="21.242603550295858"
    x2="12.337278106508876"
    y2="30.118343195266274"
    stroke="hsla(0,50%,50%,0.6)"
    stroke-width="1"
    transform="translate(-21.6539154955,-13.9138198039) scale(1,-1) translate(50,-110)"
    />
  
  <line
    x1="37.048816568047336"
    y1="21.17603550295858"
    x2="12.300295857988166"
    y2="21.27958579881657"
    stroke="hsla(0,50%,50%,0.6)"
    stroke-width="1"
    transform="translate(-21.6539154955,-13.9138198039) scale(1,-1) translate(50,-110)"
    />
  
  <line
    x1="31.745562130177515"
    y1="21.198224852071007"
    x2="17.662721893491124"
    y2="35.39940828402367"
    stroke="hsla(0,50%,50%,0.6)"
    stroke-width="1"
    transform="translate(-21.6539154955,-13.9138198039) scale(1,-1) translate(50,-110)"
    />
  
  <line
    x1="37.05621301775148"
    y1="22.943786982248522"
    x2="28.254437869822485"
    y2="31.819526627218934"
    stroke="hsla(0,50%,50%,0.6)"
    stroke-width="1"
    transform="translate(-21.6539154955,-13.9138198039) scale(1,-1) translate(50,-110)"
    />
  
  <line
    x1="37.085798816568044"
    y1="30.014792899408285"
    x2="28.284023668639055"
    y2="38.8905325443787"
    stroke="hsla(0,50%,50%,0.6)"
    stroke-width="1"
    transform="translate(-21.6539154955,-13.9138198039) scale(1,-1) translate(50,-110)"
    />
  
  <line
    x1="49.49704142011834"
    y1="38.80177514792899"
    x2="0"
    y2="39.00887573964497"
    stroke="hsla(0,50%,50%,0.6)"
    stroke-width="1"
    transform="translate(-21.6539154955,-13.9138198039) scale(1,-1) translate(50,-110)"
    />
  
</svg>
