<?xml version="1.0"?>
<!DOCTYPE svg PUBLIC "-//W3C//DTD SVG 1.1//EN"
  "http://www.w3.org/Graphics/SVG/1.1/DTD/svg11.dtd">
<svg
  width="240"
  height="240"
  viewBox="-50 -50 200 200" xmlns="http://www.w3.org/2000/svg" version="1.1">
  <rect
    x="0"
    y="0"
    width="100"
    height="100"
    fill="hsla(206,100%,53%,0.3)"
    stroke="hsl(206,100%,53%)"
    stroke-width="3"
    transform="" />
  
  <path
    d="M 
      -9.1539773614
      -60.8367536814
      L
    
      10.1069257098
      -53.5798202801
      L
    
      20.0465204123
      -39.9933068922
      L
    
      16.6885552636
      -16.8177345725
      L
    
      16.6595748202
      -16.6525182565
      L
    
      -3.5802102030
      23.7263563419
      L
    
      -14.8400410073
      25.4980876548
      L
    
      -53.5549574206
      -29.6879009595
      z
    "
    fill="hsla(0,0%,50%,0.3)"
    stroke="hsla(0,0%,50%,1)"
    stroke-width="1"
    transform="translate(29.0516026688,8.5887455240) scale(1,-1) translate(50,-110)"
    />
  
  
  <line
    x1="-14.093696354089271"
    y1="-57.37136667457328"
    x2="-11.716145459141083"
    y2="-57.28164397905624"
    stroke="hsla(0,50%,50%,0.6)"
    stroke-width="1"
    transform="translate(29.0516026688,8.5887455240) scale(1,-1) translate(50,-110)"
    />
  
  <line
    x1="-9.153977361414807"
    y1="-60.83675368146122"
    x2="10.10692570981733"
    y2="-53.5798202801165"
    stroke="hsla(0,50%,50%,0.6)"
    stroke-width="1"
    transform="translate(29.0516026688,8.5887455240) scale(1,-1) translate(50,-110)"
    />
  
  <line
    x1="-9.153977361414807"
    y1="-60.83675368146122"
    x2="-53.55495742065782"
    y2="-29.687900959560935"
    stroke="hsla(0,50%,50%,0.6)"
    stroke-width="1"
    transform="translate(29.0516026688,8.5887455240) scale(1,-1) translate(50,-110)"
    />
  
  <line
    x1="10.548268653218136"
    y1="-45.21901810160439"
    x2="17.66333012883944"
    y2="-43.25090920516585"
    stroke="hsla(0,50%,50%,0.6)"
    stroke-width="1"
    transform="translate(29.0516026688,8.5887455240) scale(1,-1) translate(50,-110)"
    />
  
  <line
    x1="19.27819896917942"
    y1="-39.40751703648733"
    x2="19.946625705497606"
    y2="-39.30386644248331"
    stroke="hsla(0,50%,50%,0.6)"
    stroke-width="1"
    transform="translate(29.0516026688,8.5887455240) scale(1,-1) translate(50,-110)"
    />
  
  <line
    x1="10.795420642775836"
    y1="-40.53696999453627"
    x2="19.946625705497606"
    y2="-39.30386644248331"
    stroke="hsla(0,50%,50%,0.6)"
    stroke-width="1"
    transform="translate(29.0516026688,8.5887455240) scale(1,-1) translate(50,-110)"
    />
  
  <line
    x1="18.30732961019655"
    y1="-42.3706210407967"
    x2="10.795420642775836"
    y2="-40.53696999453627"
    stroke="hsla(0,50%,50%,0.6)"
    stroke-width="1"
    transform="translate(29.0516026688,8.5887455240) scale(1,-1) translate(50,-110)"
    />
  
  <line
    x1="14.953631836229127"
    y1="-46.954817989330635"
    x2="10.548268653218136"
    y2="-45.21901810160439"
    stroke="hsla(0,50%,50%,0.6)"
    stroke-width="1"
    transform="translate(29.0516026688,8.5887455240) scale(1,-1) translate(50,-110)"
    />
  
  <line
    x1="-4.398820994264148"
    y1="-41.26971987524798"
    x2="13.014316048001323"
    y2="-33.679104183494495"
    stroke="hsla(0,50%,50%,0.6)"
    stroke-width="1"
    transform="translate(29.0516026688,8.5887455240) scale(1,-1) translate(50,-110)"
    />
  
  <line
    x1="7.682379701051843"
    y1="-38.01668051304085"
    x2="13.014316048001323"
    y2="-33.679104183494495"
    stroke="hsla(0,50%,50%,0.6)"
    stroke-width="1"
    transform="translate(29.0516026688,8.5887455240) scale(1,-1) translate(50,-110)"
    />
  
  <line
    x1="10.10692570981733"
    y1="-53.5798202801165"
    x2="20.046520412321946"
    y2="-39.99330689224428"
    stroke="hsla(0,50%,50%,0.6)"
    stroke-width="1"
    transform="translate(29.0516026688,8.5887455240) scale(1,-1) translate(50,-110)"
    />
  
  <line
    x1="6.669226741372003"
    y1="-54.875042647189204"
    x2="-4.398820994264148"
    y2="-41.26971987524798"
    stroke="hsla(0,50%,50%,0.6)"
    stroke-width="1"
    transform="translate(29.0516026688,8.5887455240) scale(1,-1) translate(50,-110)"
    />
  
  <line
    x1="20.046520412321946"
    y1="-39.99330689224428"
    x2="19.27819896917942"
    y2="-39.40751703648733"
    stroke="hsla(0,50%,50%,0.6)"
    stroke-width="1"
    transform="translate(29.0516026688,8.5887455240) scale(1,-1) translate(50,-110)"
    />
  
  <line
    x1="14.953631836229127"
    y1="-46.954817989330635"
    x2="7.682379701051843"
    y2="-38.01668051304085"
    stroke="hsla(0,50%,50%,0.6)"
    stroke-width="1"
    transform="translate(29.0516026688,8.5887455240) scale(1,-1) translate(50,-110)"
    />
  
  <line
    x1="-14.093696354089271"
    y1="-57.37136667457328"
    x2="-32.532782919781525"
    y2="0.27805506292437043"
    stroke="hsla(0,50%,50%,0.6)"
    stroke-width="1"
    transform="translate(29.0516026688,8.5887455240) scale(1,-1) translate(50,-110)"
    />
  
  <line
    x1="18.30732961019655"
    y1="-42.3706210407967"
    x2="13.014316048001323"
    y2="-33.679104183494495"
    stroke="hsla(0,50%,50%,0.6)"
    stroke-width="1"
    transform="translate(29.0516026688,8.5887455240) scale(1,-1) translate(50,-110)"
    />
  
  <line
    x1="-9.153977361414807"
    y1="-60.83675368146122"
    x2="-4.398820994264148"
    y2="-41.26971987524798"
    stroke="hsla(0,50%,50%,0.6)"
    stroke-width="1"
    transform="translate(29.0516026688,8.5887455240) scale(1,-1) translate(50,-110)"
    />
  
  <line
    x1="10.10692570981733"
    y1="-53.5798202801165"
    x2="10.795420642775836"
    y2="-40.53696999453627"
    stroke="hsla(0,50%,50%,0.6)"
    stroke-width="1"
    transform="translate(29.0516026688,8.5887455240) scale(1,-1) translate(50,-110)"
    />
  
  <line
    x1="-11.716145459141083"
    y1="-57.28164397905624"
    x2="-14.840041007351038"
    y2="25.498087654841754"
    stroke="hsla(0,50%,50%,0.6)"
    stroke-width="1"
    transform="translate(29.0516026688,8.5887455240) scale(1,-1) translate(50,-110)"
    />
  
  <line
    x1="6.669226741372003"
    y1="-54.875042647189204"
    x2="4.5351008447551315"
    y2="1.6769022781547953"
    stroke="hsla(0,50%,50%,0.6)"
    stroke-width="1"
    transform="translate(29.0516026688,8.5887455240) scale(1,-1) translate(50,-110)"
    />
  
  <line
    x1="17.66333012883944"
    y1="-43.25090920516585"
    x2="16.659574820217628"
    y2="-16.652518256586745"
    stroke="hsla(0,50%,50%,0.6)"
    stroke-width="1"
    transform="translate(29.0516026688,8.5887455240) scale(1,-1) translate(50,-110)"
    />
  
  <line
    x1="-32.532782919781525"
    y1="0.27805506292437043"
    x2="4.5351008447551315"
    y2="1.6769022781547953"
    stroke="hsla(0,50%,50%,0.6)"
    stroke-width="1"
    transform="translate(29.0516026688,8.5887455240) scale(1,-1) translate(50,-110)"
    />
  
  <line
    x1="19.27819896917942"
    y1="-39.40751703648733"
    x2="16.688555263683607"
    y2="-16.817734572582175"
    stroke="hsla(0,50%,50%,0.6)"
    stroke-width="1"
    transform="translate(29.0516026688,8.5887455240) scale(1,-1) translate(50,-110)"
    />
  
  <line
    x1="20.046520412321946"
    y1="-39.99330689224428"
    x2="16.688555263683607"
    y2="-16.817734572582175"
    stroke="hsla(0,50%,50%,0.6)"
    stroke-width="1"
    transform="translate(29.0516026688,8.5887455240) scale(1,-1) translate(50,-110)"
    />
  
  <line
    x1="16.659574820217628"
    y1="-16.652518256586745"
    x2="-12.23179342037814"
    y2="23.840400143772357"
    stroke="hsla(0,50%,50%,0.6)"
    stroke-width="1"
    transform="translate(29.0516026688,8.5887455240) scale(1,-1) translate(50,-110)"
    />
  
  <line
    x1="16.688555263683607"
    y1="-16.817734572582175"
    x2="16.659574820217628"
    y2="-16.652518256586745"
    stroke="hsla(0,50%,50%,0.6)"
    stroke-width="1"
    transform="translate(29.0516026688,8.5887455240) scale(1,-1) translate(50,-110)"
    />
  
  <line
    x1="16.659574820217628"
    y1="-16.652518256586745"
    x2="-3.580210203001979"
    y2="23.726356341975755"
    stroke="hsla(0,50%,50%,0.6)"
    stroke-width="1"
    transform="translate(29.0516026688,8.5887455240) scale(1,-1) translate(50,-110)"
    />
  
  <line
    x1="-7.211287169312052"
    y1="20.03218261082795"
    x2="-10.79952323470549"
    y2="24.862313282883814"
    stroke="hsla(0,50%,50%,0.6)"
    stroke-width="1"
    transform="translate(29.0516026688,8.5887455240) scale(1,-1) translate(50,-110)"
    />
  
  <line
    x1="-7.211287169312052"
    y1="20.03218261082795"
    x2="-14.840041007351038"
    y2="25.498087654841754"
    stroke="hsla(0,50%,50%,0.6)"
    stroke-width="1"
    transform="translate(29.0516026688,8.5887455240) scale(1,-1) translate(50,-110)"
    />
  
  <line
    x1="-7.211287169312052"
    y1="20.03218261082795"
    x2="-3.580210203001979"
    y2="23.726356341975755"
    stroke="hsla(0,50%,50%,0.6)"
    stroke-width="1"
    transform="translate(29.0516026688,8.5887455240) scale(1,-1) translate(50,-110)"
    />
  
  <line
    x1="-53.55495742065782"
    y1="-29.687900959560935"
    x2="-14.840041007351038"
    y2="25.498087654841754"
    stroke="hsla(0,50%,50%,0.6)"
    stroke-width="1"
    transform="translate(29.0516026688,8.5887455240) scale(1,-1) translate(50,-110)"
    />
  
  <line
    x1="-12.23179342037814"
    y1="23.840400143772357"
    x2="-10.79952323470549"
    y2="24.862313282883814"
    stroke="hsla(0,50%,50%,0.6)"
    stroke-width="1"
    transform="translate(29.0516026688,8.5887455240) scale(1,-1) translate(50,-110)"
    />
  
  <line
    x1="-3.580210203001979"
    y1="23.726356341975755"
    x2="-14.840041007351038"
    y2="25.498087654841754"
    stroke="hsla(0,50%,50%,0.6)"
    stroke-width="1"
    transform="translate(29.0516026688,8.5887455240) scale(1,-1) translate(50,-110)"
    />
  
</svg>
