<?xml version="1.0"?>
<!DOCTYPE svg PUBLIC "-//W3C//DTD SVG 1.1//EN"
  "http://www.w3.org/Graphics/SVG/1.1/DTD/svg11.dtd">
<svg
  width="240"
  height="240"
  viewBox="-500 -500 1000 1000" xmlns="http://www.w3.org/2000/svg" version="1.1">
  <rect
    x="0"
    y="0"
    width="100"
    height="100"
    fill="hsla(206,100%,53%,0.3)"
    stroke="hsl(206,100%,53%)"
    stroke-width="3"
    transform="" />
  
  <path
    d="M 
      47.3047675169
      -25.8207761596
      L
    
      69.4537815126
      -13.7394957983
      L
    
      63.2494231735
      4.1842060699
      L
    
      60.2586644439
      6.1330283965
      L
    
      41.8487735745
      1.0782294682
      L
    
      36.1302566473
      -10.5410360050
      L
    
      33.9495798319
      -12.7731092436
      L
    
      34.6803503045
      -13.4870527646
      L
    
      31.7483355832
      -19.4445165359
      L
    
      44.5658186609
      -25.7527460976
      L
    
      45.4325481495
      -23.9916671065
      z
    "
    fill="hsla(0,0%,50%,0.3)"
    stroke="hsla(0,0%,50%,1)"
    stroke-width="1"
    transform="translate(-52.6676795347,9.7033750851)"
    />
  
  <path
    d="M 
      53.9571902948
      -12.3482136385
      L
    
      52.0702558334
      -10.5047283259
      L
    
      53.9046227001
      -6.7775389390
      L
    
      57.3983452095
      -9.0540998537
      z
    "
    fill="hsla(0,0%,50%,0.3)"
    stroke="hsla(0,0%,50%,1)"
    stroke-width="1"
    transform="translate(-52.6676795347,9.7033750851)"
    />
  
  
  <line
    x1="47.30476751690659"
    y1="-25.820776159609395"
    x2="69.45378151260505"
    y2="-13.739495798319327"
    stroke="hsla(0,50%,50%,0.6)"
    stroke-width="1"
    transform="translate(-52.6676795347,9.7033750851)"
    />
  
  <line
    x1="46.09013145243943"
    y1="-19.879111729617538"
    x2="58.28488168091015"
    y2="-8.205445235419008"
    stroke="hsla(0,50%,50%,0.6)"
    stroke-width="1"
    transform="translate(-52.6676795347,9.7033750851)"
    />
  
  <line
    x1="33.94957983193277"
    y1="-12.77310924369748"
    x2="43.9327731092437"
    y2="-2.5546218487394956"
    stroke="hsla(0,50%,50%,0.6)"
    stroke-width="1"
    transform="translate(-52.6676795347,9.7033750851)"
    />
  
  <line
    x1="44.565818660969875"
    y1="-25.752746097699422"
    x2="60.25866444393962"
    y2="6.133028396538068"
    stroke="hsla(0,50%,50%,0.6)"
    stroke-width="1"
    transform="translate(-52.6676795347,9.7033750851)"
    />
  
  <line
    x1="54.3889319461482"
    y1="-21.95668647093215"
    x2="63.24942317359705"
    y2="4.184206069925977"
    stroke="hsla(0,50%,50%,0.6)"
    stroke-width="1"
    transform="translate(-52.6676795347,9.7033750851)"
    />
  
  <line
    x1="31.7483355832049"
    y1="-19.444516535907173"
    x2="41.84877357457558"
    y2="1.078229468223082"
    stroke="hsla(0,50%,50%,0.6)"
    stroke-width="1"
    transform="translate(-52.6676795347,9.7033750851)"
    />
  
  <line
    x1="41.84877357457558"
    y1="1.078229468223082"
    x2="60.25866444393962"
    y2="6.133028396538068"
    stroke="hsla(0,50%,50%,0.6)"
    stroke-width="1"
    transform="translate(-52.6676795347,9.7033750851)"
    />
  
  <line
    x1="54.3889319461482"
    y1="-21.95668647093215"
    x2="46.09013145243943"
    y2="-19.879111729617538"
    stroke="hsla(0,50%,50%,0.6)"
    stroke-width="1"
    transform="translate(-52.6676795347,9.7033750851)"
    />
  
  <line
    x1="44.565818660969875"
    y1="-25.752746097699422"
    x2="31.7483355832049"
    y2="-19.444516535907173"
    stroke="hsla(0,50%,50%,0.6)"
    stroke-width="1"
    transform="translate(-52.6676795347,9.7033750851)"
    />
  
  <line
    x1="66.80556087177179"
    y1="-15.183979784228375"
    x2="66.77932785915657"
    y2="-10.331999167491462"
    stroke="hsla(0,50%,50%,0.6)"
    stroke-width="1"
    transform="translate(-52.6676795347,9.7033750851)"
    />
  
  <line
    x1="66.77932785915657"
    y1="-10.331999167491462"
    x2="58.28488168091015"
    y2="-8.205445235419008"
    stroke="hsla(0,50%,50%,0.6)"
    stroke-width="1"
    transform="translate(-52.6676795347,9.7033750851)"
    />
  
  <line
    x1="47.30476751690659"
    y1="-25.820776159609395"
    x2="46.09013145243943"
    y2="-19.879111729617538"
    stroke="hsla(0,50%,50%,0.6)"
    stroke-width="1"
    transform="translate(-52.6676795347,9.7033750851)"
    />
  
  <line
    x1="47.30476751690659"
    y1="-25.820776159609395"
    x2="33.94957983193277"
    y2="-12.77310924369748"
    stroke="hsla(0,50%,50%,0.6)"
    stroke-width="1"
    transform="translate(-52.6676795347,9.7033750851)"
    />
  
  <line
    x1="60.42315570895418"
    y1="-18.6652916912198"
    x2="58.28488168091015"
    y2="-8.205445235419008"
    stroke="hsla(0,50%,50%,0.6)"
    stroke-width="1"
    transform="translate(-52.6676795347,9.7033750851)"
    />
  
  <line
    x1="66.80556087177179"
    y1="-15.183979784228375"
    x2="41.84877357457558"
    y2="1.078229468223082"
    stroke="hsla(0,50%,50%,0.6)"
    stroke-width="1"
    transform="translate(-52.6676795347,9.7033750851)"
    />
  
  <line
    x1="69.45378151260505"
    y1="-13.739495798319327"
    x2="63.24942317359705"
    y2="4.184206069925977"
    stroke="hsla(0,50%,50%,0.6)"
    stroke-width="1"
    transform="translate(-52.6676795347,9.7033750851)"
    />
  
  <line
    x1="60.42315570895418"
    y1="-18.6652916912198"
    x2="43.9327731092437"
    y2="-2.5546218487394956"
    stroke="hsla(0,50%,50%,0.6)"
    stroke-width="1"
    transform="translate(-52.6676795347,9.7033750851)"
    />
  
  <line
    x1="69.45378151260505"
    y1="-13.739495798319327"
    x2="66.77932785915657"
    y2="-10.331999167491462"
    stroke="hsla(0,50%,50%,0.6)"
    stroke-width="1"
    transform="translate(-52.6676795347,9.7033750851)"
    />
  
  <line
    x1="63.24942317359705"
    y1="4.184206069925977"
    x2="60.25866444393962"
    y2="6.133028396538068"
    stroke="hsla(0,50%,50%,0.6)"
    stroke-width="1"
    transform="translate(-52.6676795347,9.7033750851)"
    />
  
</svg>
