<?xml version="1.0"?>
<!DOCTYPE svg PUBLIC "-//W3C//DTD SVG 1.1//EN"
  "http://www.w3.org/Graphics/SVG/1.1/DTD/svg11.dtd">
<svg
  width="240"
  height="240"
  viewBox="-500 -500 1000 1000" xmlns="http://www.w3.org/2000/svg" version="1.1">
  <rect
    x="0"
    y="0"
    width="100"
    height="100"
    fill="hsla(206,100%,53%,0.3)"
    stroke="hsl(206,100%,53%)"
    stroke-width="3"
    transform="" />
  
  <path
    d="M 
      1.2719208334
      -1.7629847742
      L
    
      19.7832609627
      11.5921839765
      L
    
      20.7653888443
      17.6619951918
      L
    
      8.6821409269
      34.4103505469
      L
    
      2.6123297116
      35.3924784285
      L
    
      -14.1360256434
      23.3092305111
      L
    
      -15.1181535250
      17.2394192959
      L
    
      -1.7629847742
      -1.2719208334
      L
    
      0
      0
      z
    "
    fill="hsla(0,0%,50%,0.3)"
    stroke="hsla(0,0%,50%,1)"
    stroke-width="1"
    transform="translate(-2.8236176596,-17.1327270355)"
    />
  
  <path
    d="M 
      0.4910639408
      3.0349056076
      L
    
      -11.5921839765
      19.7832609627
      L
    
      5.1561713785
      31.8665088801
      L
    
      17.2394192959
      15.1181535250
      z
    "
    fill="hsla(0,0%,50%,0.3)"
    stroke="hsla(0,0%,50%,1)"
    stroke-width="1"
    transform="translate(-2.8236176596,-17.1327270355)"
    />
  
  
  <line
    x1="19.78326096274623"
    y1="11.59218397659293"
    x2="20.76538884436907"
    y2="17.661995191859706"
    stroke="hsla(0,50%,50%,0.6)"
    stroke-width="1"
    transform="translate(-2.8236176596,-17.1327270355)"
    />
  
  <line
    x1="1.2719208334109842"
    y1="-1.7629847742224045"
    x2="19.78326096274623"
    y2="11.59218397659293"
    stroke="hsla(0,50%,50%,0.6)"
    stroke-width="1"
    transform="translate(-2.8236176596,-17.1327270355)"
    />
  
  <line
    x1="-1.7629847742224045"
    y1="-1.2719208334109842"
    x2="-15.118153525037739"
    y2="17.23941929592426"
    stroke="hsla(0,50%,50%,0.6)"
    stroke-width="1"
    transform="translate(-2.8236176596,-17.1327270355)"
    />
  
  <line
    x1="-1.7629847742224045"
    y1="-1.2719208334109842"
    x2="1.7629847742224045"
    y2="1.2719208334109842"
    stroke="hsla(0,50%,50%,0.6)"
    stroke-width="1"
    transform="translate(-2.8236176596,-17.1327270355)"
    />
  
  <line
    x1="1.2719208334109842"
    y1="-1.7629847742224045"
    x2="-1.2719208334109842"
    y2="1.7629847742224045"
    stroke="hsla(0,50%,50%,0.6)"
    stroke-width="1"
    transform="translate(-2.8236176596,-17.1327270355)"
    />
  
  <line
    x1="1.7629847742224045"
    y1="1.2719208334109842"
    x2="-14.136025643414898"
    y2="23.30923051119104"
    stroke="hsla(0,50%,50%,0.6)"
    stroke-width="1"
    transform="translate(-2.8236176596,-17.1327270355)"
    />
  
  <line
    x1="-1.2719208334109842"
    y1="1.7629847742224045"
    x2="20.76538884436907"
    y2="17.661995191859706"
    stroke="hsla(0,50%,50%,0.6)"
    stroke-width="1"
    transform="translate(-2.8236176596,-17.1327270355)"
    />
  
  <line
    x1="-15.118153525037739"
    y1="17.23941929592426"
    x2="-14.136025643414898"
    y2="23.30923051119104"
    stroke="hsla(0,50%,50%,0.6)"
    stroke-width="1"
    transform="translate(-2.8236176596,-17.1327270355)"
    />
  
  <line
    x1="19.78326096274623"
    y1="11.59218397659293"
    x2="2.6123297116979445"
    y2="35.39247842859539"
    stroke="hsla(0,50%,50%,0.6)"
    stroke-width="1"
    transform="translate(-2.8236176596,-17.1327270355)"
    />
  
  <line
    x1="20.76538884436907"
    y1="17.661995191859706"
    x2="8.682140926964722"
    y2="34.41035054697255"
    stroke="hsla(0,50%,50%,0.6)"
    stroke-width="1"
    transform="translate(-2.8236176596,-17.1327270355)"
    />
  
  <line
    x1="-15.118153525037739"
    y1="17.23941929592426"
    x2="8.682140926964722"
    y2="34.41035054697255"
    stroke="hsla(0,50%,50%,0.6)"
    stroke-width="1"
    transform="translate(-2.8236176596,-17.1327270355)"
    />
  
  <line
    x1="-14.136025643414898"
    y1="23.30923051119104"
    x2="2.6123297116979445"
    y2="35.39247842859539"
    stroke="hsla(0,50%,50%,0.6)"
    stroke-width="1"
    transform="translate(-2.8236176596,-17.1327270355)"
    />
  
  <line
    x1="8.682140926964722"
    y1="34.41035054697255"
    x2="2.6123297116979445"
    y2="35.39247842859539"
    stroke="hsla(0,50%,50%,0.6)"
    stroke-width="1"
    transform="translate(-2.8236176596,-17.1327270355)"
    />
  
</svg>
