<?xml version="1.0"?>
<!DOCTYPE svg PUBLIC "-//W3C//DTD SVG 1.1//EN"
  "http://www.w3.org/Graphics/SVG/1.1/DTD/svg11.dtd">
<svg
  width="240"
  height="240"
  viewBox="-50 -50 200 200" xmlns="http://www.w3.org/2000/svg" version="1.1">
  <rect
    x="0"
    y="0"
    width="100"
    height="100"
    fill="hsla(206,100%,53%,0.3)"
    stroke="hsl(206,100%,53%)"
    stroke-width="3"
    transform="" />
  
  <path
    d="M 
      1.1838590606
      -1.2534469791
      L
    
      24.1637203458
      20.4506358001
      L
    
      24.3028961828
      25.3252478799
      L
    
      3.7826724642
      47.0516621859
      L
    
      -1.0919396155
      47.1908380229
      L
    
      -24.0718009007
      25.4867552435
      L
    
      -21.7040827793
      22.9798612852
      L
    
      1.2757785058
      44.6839440645
      L
    
      21.7960022245
      22.9575297585
      L
    
      -1.1838590606
      1.2534469791
      z
    "
    fill="hsla(0,0%,50%,0.3)"
    stroke="hsla(0,0%,50%,1)"
    stroke-width="1"
    transform="translate(-3.0647251385,-15.4256705828) scale(1,-1) translate(50,-110)"
    />
  
  
  <line
    x1="1.1838590606927673"
    y1="-1.2534469791927803"
    x2="24.163720345893736"
    y2="20.450635800174616"
    stroke="hsla(0,50%,50%,0.6)"
    stroke-width="1"
    transform="translate(-3.0647251385,-15.4256705828) scale(1,-1) translate(50,-110)"
    />
  
  <line
    x1="24.163720345893736"
    y1="20.450635800174616"
    x2="24.30289618289376"
    y2="25.325247879945714"
    stroke="hsla(0,50%,50%,0.6)"
    stroke-width="1"
    transform="translate(-3.0647251385,-15.4256705828) scale(1,-1) translate(50,-110)"
    />
  
  <line
    x1="1.1838590606927673"
    y1="-1.2534469791927803"
    x2="-1.1838590606927673"
    y2="1.2534469791927803"
    stroke="hsla(0,50%,50%,0.6)"
    stroke-width="1"
    transform="translate(-3.0647251385,-15.4256705828) scale(1,-1) translate(50,-110)"
    />
  
  <line
    x1="-21.704082779367397"
    y1="22.97986128520097"
    x2="-24.071800900752933"
    y2="25.48675524358653"
    stroke="hsla(0,50%,50%,0.6)"
    stroke-width="1"
    transform="translate(-3.0647251385,-15.4256705828) scale(1,-1) translate(50,-110)"
    />
  
  <line
    x1="-1.1838590606927673"
    y1="1.2534469791927803"
    x2="24.30289618289376"
    y2="25.325247879945714"
    stroke="hsla(0,50%,50%,0.6)"
    stroke-width="1"
    transform="translate(-3.0647251385,-15.4256705828) scale(1,-1) translate(50,-110)"
    />
  
  <line
    x1="24.163720345893736"
    y1="20.450635800174616"
    x2="-1.0919396155519634"
    y2="47.190838022953926"
    stroke="hsla(0,50%,50%,0.6)"
    stroke-width="1"
    transform="translate(-3.0647251385,-15.4256705828) scale(1,-1) translate(50,-110)"
    />
  
  <line
    x1="-21.704082779367397"
    y1="22.97986128520097"
    x2="3.7826724642191314"
    y2="47.0516621859539"
    stroke="hsla(0,50%,50%,0.6)"
    stroke-width="1"
    transform="translate(-3.0647251385,-15.4256705828) scale(1,-1) translate(50,-110)"
    />
  
  <line
    x1="24.30289618289376"
    y1="25.325247879945714"
    x2="3.7826724642191314"
    y2="47.0516621859539"
    stroke="hsla(0,50%,50%,0.6)"
    stroke-width="1"
    transform="translate(-3.0647251385,-15.4256705828) scale(1,-1) translate(50,-110)"
    />
  
  <line
    x1="-24.071800900752933"
    y1="25.48675524358653"
    x2="-1.0919396155519634"
    y2="47.190838022953926"
    stroke="hsla(0,50%,50%,0.6)"
    stroke-width="1"
    transform="translate(-3.0647251385,-15.4256705828) scale(1,-1) translate(50,-110)"
    />
  
  <line
    x1="3.7826724642191314"
    y1="47.0516621859539"
    x2="-1.0919396155519634"
    y2="47.190838022953926"
    stroke="hsla(0,50%,50%,0.6)"
    stroke-width="1"
    transform="translate(-3.0647251385,-15.4256705828) scale(1,-1) translate(50,-110)"
    />
  
</svg>
