<?xml version="1.0"?>
<!DOCTYPE svg PUBLIC "-//W3C//DTD SVG 1.1//EN"
  "http://www.w3.org/Graphics/SVG/1.1/DTD/svg11.dtd">
<svg
  width="240"
  height="240"
  viewBox="-50 -50 200 200" xmlns="http://www.w3.org/2000/svg" version="1.1">
  <rect
    x="0"
    y="0"
    width="100"
    height="100"
    fill="hsla(206,100%,53%,0.3)"
    stroke="hsl(206,100%,53%)"
    stroke-width="3"
    transform="" />
  
  <path
    d="M 
      0.9176837661
      -2.7943470680
      L
    
      19.9192438285
      3.4459025419
      L
    
      19.0015600624
      6.2402496099
      L
    
      20.8782233642
      9.9522804441
      L
    
      16.4733412865
      23.3651463705
      L
    
      9.0492796182
      27.1184729742
      L
    
      -4.3635863081
      22.7135908965
      L
    
      -8.1169129118
      15.2895292282
      L
    
      -3.7120308341
      1.8766633018
      L
    
      0
      0
      z
    "
    fill="hsla(0,0%,50%,0.3)"
    stroke="hsla(0,0%,50%,1)"
    stroke-width="1"
    transform="translate(-4.4436775173,-8.5807034763) scale(1,-1) translate(50,-110)"
    />
  
  <path
    d="M 
      1.8766633018
      3.7120308341
      L
    
      -2.5282187758
      17.1248967605
      L
    
      10.8846471505
      21.5297788382
      L
    
      15.2895292282
      8.1169129118
      z
    "
    fill="hsla(0,0%,50%,0.3)"
    stroke="hsla(0,0%,50%,1)"
    stroke-width="1"
    transform="translate(-4.4436775173,-8.5807034763) scale(1,-1) translate(50,-110)"
    />
  
  
  <line
    x1="17.124896760576306"
    y1="2.5282187758098558"
    x2="20.87822336422869"
    y2="9.952280444158943"
    stroke="hsla(0,50%,50%,0.6)"
    stroke-width="1"
    transform="translate(-4.4436775173,-8.5807034763) scale(1,-1) translate(50,-110)"
    />
  
  <line
    x1="0.9176837661741764"
    y1="-2.7943470680003673"
    x2="19.919243828576672"
    y2="3.445902541984032"
    stroke="hsla(0,50%,50%,0.6)"
    stroke-width="1"
    transform="translate(-4.4436775173,-8.5807034763) scale(1,-1) translate(50,-110)"
    />
  
  <line
    x1="-3.7120308341745436"
    y1="1.8766633018261907"
    x2="-8.11691291181059"
    y2="15.289529228227952"
    stroke="hsla(0,50%,50%,0.6)"
    stroke-width="1"
    transform="translate(-4.4436775173,-8.5807034763) scale(1,-1) translate(50,-110)"
    />
  
  <line
    x1="0.9176837661741764"
    y1="-2.7943470680003673"
    x2="-0.9176837661741764"
    y2="2.7943470680003673"
    stroke="hsla(0,50%,50%,0.6)"
    stroke-width="1"
    transform="translate(-4.4436775173,-8.5807034763) scale(1,-1) translate(50,-110)"
    />
  
  <line
    x1="3.7120308341745436"
    y1="-1.8766633018261907"
    x2="-3.7120308341745436"
    y2="1.8766633018261907"
    stroke="hsla(0,50%,50%,0.6)"
    stroke-width="1"
    transform="translate(-4.4436775173,-8.5807034763) scale(1,-1) translate(50,-110)"
    />
  
  <line
    x1="3.7120308341745436"
    y1="-1.8766633018261907"
    x2="-4.363586308158209"
    y2="22.71359089657704"
    stroke="hsla(0,50%,50%,0.6)"
    stroke-width="1"
    transform="translate(-4.4436775173,-8.5807034763) scale(1,-1) translate(50,-110)"
    />
  
  <line
    x1="-3.7120308341745436"
    y1="1.8766633018261907"
    x2="20.87822336422869"
    y2="9.952280444158943"
    stroke="hsla(0,50%,50%,0.6)"
    stroke-width="1"
    transform="translate(-4.4436775173,-8.5807034763) scale(1,-1) translate(50,-110)"
    />
  
  <line
    x1="17.124896760576306"
    y1="2.5282187758098558"
    x2="9.049279618243553"
    y2="27.118472974213088"
    stroke="hsla(0,50%,50%,0.6)"
    stroke-width="1"
    transform="translate(-4.4436775173,-8.5807034763) scale(1,-1) translate(50,-110)"
    />
  
  <line
    x1="19.919243828576672"
    y1="3.445902541984032"
    x2="18.08387629622832"
    y2="9.034596677984766"
    stroke="hsla(0,50%,50%,0.6)"
    stroke-width="1"
    transform="translate(-4.4436775173,-8.5807034763) scale(1,-1) translate(50,-110)"
    />
  
  <line
    x1="-8.11691291181059"
    y1="15.289529228227952"
    x2="-4.363586308158209"
    y2="22.71359089657704"
    stroke="hsla(0,50%,50%,0.6)"
    stroke-width="1"
    transform="translate(-4.4436775173,-8.5807034763) scale(1,-1) translate(50,-110)"
    />
  
  <line
    x1="20.87822336422869"
    y1="9.952280444158943"
    x2="16.47334128659264"
    y2="23.365146370560705"
    stroke="hsla(0,50%,50%,0.6)"
    stroke-width="1"
    transform="translate(-4.4436775173,-8.5807034763) scale(1,-1) translate(50,-110)"
    />
  
  <line
    x1="-8.11691291181059"
    y1="15.289529228227952"
    x2="16.47334128659264"
    y2="23.365146370560705"
    stroke="hsla(0,50%,50%,0.6)"
    stroke-width="1"
    transform="translate(-4.4436775173,-8.5807034763) scale(1,-1) translate(50,-110)"
    />
  
  <line
    x1="-4.363586308158209"
    y1="22.71359089657704"
    x2="9.049279618243553"
    y2="27.118472974213088"
    stroke="hsla(0,50%,50%,0.6)"
    stroke-width="1"
    transform="translate(-4.4436775173,-8.5807034763) scale(1,-1) translate(50,-110)"
    />
  
  <line
    x1="16.47334128659264"
    y1="23.365146370560705"
    x2="9.049279618243553"
    y2="27.118472974213088"
    stroke="hsla(0,50%,50%,0.6)"
    stroke-width="1"
    transform="translate(-4.4436775173,-8.5807034763) scale(1,-1) translate(50,-110)"
    />
  
</svg>
