<?xml version="1.0"?>
<!DOCTYPE svg PUBLIC "-//W3C//DTD SVG 1.1//EN"
  "http://www.w3.org/Graphics/SVG/1.1/DTD/svg11.dtd">
<svg
  width="240"
  height="240"
  viewBox="-50 -50 200 200" xmlns="http://www.w3.org/2000/svg" version="1.1">
  <rect
    x="0"
    y="0"
    width="100"
    height="100"
    fill="hsla(206,100%,53%,0.3)"
    stroke="hsl(206,100%,53%)"
    stroke-width="3"
    transform="" />
  
  <path
    d="M 
      21.2027986056
      -26.3879863310
      L
    
      34.7045198732
      -9.1996369527
      L
    
      20.6432311144
      11.8922961854
      L
    
      19.0019936322
      11.8591364894
      L
    
      2.5210084033
      -4.6218487394
      L
    
      4.2943898207
      -8.8779641411
      L
    
      10.0966107063
      -7.7783496990
      L
    
      15.7910753214
      -10.1510432886
      L
    
      9.9685967020
      -17.5633424151
      z
    "
    fill="hsla(0,0%,50%,0.3)"
    stroke="hsla(0,0%,50%,1)"
    stroke-width="1"
    transform="translate(-11.2178937524,12.8518378559) scale(1,-1) translate(50,-110)"
    />
  
  
  <line
    x1="21.202798605669567"
    y1="-26.38798633103517"
    x2="34.704519873258775"
    y2="-9.199636952745301"
    stroke="hsla(0,50%,50%,0.6)"
    stroke-width="1"
    transform="translate(-11.2178937524,12.8518378559) scale(1,-1) translate(50,-110)"
    />
  
  <line
    x1="25.88101553618795"
    y1="-11.651642368520772"
    x2="34.704519873258775"
    y2="-9.199636952745301"
    stroke="hsla(0,50%,50%,0.6)"
    stroke-width="1"
    transform="translate(-11.2178937524,12.8518378559) scale(1,-1) translate(50,-110)"
    />
  
  <line
    x1="9.968596702096468"
    y1="-17.56334241511336"
    x2="26.36484297230301"
    y2="3.3098783986883453"
    stroke="hsla(0,50%,50%,0.6)"
    stroke-width="1"
    transform="translate(-11.2178937524,12.8518378559) scale(1,-1) translate(50,-110)"
    />
  
  <line
    x1="25.88101553618795"
    y1="-11.651642368520772"
    x2="30.042383445524806"
    y2="-2.206432311144353"
    stroke="hsla(0,50%,50%,0.6)"
    stroke-width="1"
    transform="translate(-11.2178937524,12.8518378559) scale(1,-1) translate(50,-110)"
    />
  
  <line
    x1="23.076923076923077"
    y1="-13.186813186813186"
    x2="28.571428571428573"
    y2="0"
    stroke="hsla(0,50%,50%,0.6)"
    stroke-width="1"
    transform="translate(-11.2178937524,12.8518378559) scale(1,-1) translate(50,-110)"
    />
  
  <line
    x1="4.29438982070561"
    y1="-8.877964141122035"
    x2="18.63794100636206"
    y2="-6.15962984384037"
    stroke="hsla(0,50%,50%,0.6)"
    stroke-width="1"
    transform="translate(-11.2178937524,12.8518378559) scale(1,-1) translate(50,-110)"
    />
  
  <line
    x1="21.202798605669567"
    y1="-26.38798633103517"
    x2="9.968596702096468"
    y2="-17.56334241511336"
    stroke="hsla(0,50%,50%,0.6)"
    stroke-width="1"
    transform="translate(-11.2178937524,12.8518378559) scale(1,-1) translate(50,-110)"
    />
  
  <line
    x1="15.536187949981054"
    y1="0.3006521609062444"
    x2="20.643231114435302"
    y2="11.892296185489903"
    stroke="hsla(0,50%,50%,0.6)"
    stroke-width="1"
    transform="translate(-11.2178937524,12.8518378559) scale(1,-1) translate(50,-110)"
    />
  
  <line
    x1="15.536187949981054"
    y1="0.3006521609062444"
    x2="26.36484297230301"
    y2="3.3098783986883453"
    stroke="hsla(0,50%,50%,0.6)"
    stroke-width="1"
    transform="translate(-11.2178937524,12.8518378559) scale(1,-1) translate(50,-110)"
    />
  
  <line
    x1="2.5210084033613445"
    y1="-4.621848739495798"
    x2="19.00199363227899"
    y2="11.859136489421847"
    stroke="hsla(0,50%,50%,0.6)"
    stroke-width="1"
    transform="translate(-11.2178937524,12.8518378559) scale(1,-1) translate(50,-110)"
    />
  
  <line
    x1="23.076923076923077"
    y1="-13.186813186813186"
    x2="2.5210084033613445"
    y2="-4.621848739495798"
    stroke="hsla(0,50%,50%,0.6)"
    stroke-width="1"
    transform="translate(-11.2178937524,12.8518378559) scale(1,-1) translate(50,-110)"
    />
  
  <line
    x1="4.418722289999107"
    y1="-2.7241348528580356"
    x2="30.042383445524806"
    y2="-2.206432311144353"
    stroke="hsla(0,50%,50%,0.6)"
    stroke-width="1"
    transform="translate(-11.2178937524,12.8518378559) scale(1,-1) translate(50,-110)"
    />
  
  <line
    x1="18.63794100636206"
    y1="-6.15962984384037"
    x2="19.00199363227899"
    y2="11.859136489421847"
    stroke="hsla(0,50%,50%,0.6)"
    stroke-width="1"
    transform="translate(-11.2178937524,12.8518378559) scale(1,-1) translate(50,-110)"
    />
  
  <line
    x1="4.29438982070561"
    y1="-8.877964141122035"
    x2="4.418722289999107"
    y2="-2.7241348528580356"
    stroke="hsla(0,50%,50%,0.6)"
    stroke-width="1"
    transform="translate(-11.2178937524,12.8518378559) scale(1,-1) translate(50,-110)"
    />
  
  <line
    x1="4.29438982070561"
    y1="-8.877964141122035"
    x2="2.5210084033613445"
    y2="-4.621848739495798"
    stroke="hsla(0,50%,50%,0.6)"
    stroke-width="1"
    transform="translate(-11.2178937524,12.8518378559) scale(1,-1) translate(50,-110)"
    />
  
  <line
    x1="18.63794100636206"
    y1="-6.15962984384037"
    x2="13.445378151260504"
    y2="6.302521008403361"
    stroke="hsla(0,50%,50%,0.6)"
    stroke-width="1"
    transform="translate(-11.2178937524,12.8518378559) scale(1,-1) translate(50,-110)"
    />
  
  <line
    x1="25.88101553618795"
    y1="-11.651642368520772"
    x2="15.536187949981054"
    y2="0.3006521609062444"
    stroke="hsla(0,50%,50%,0.6)"
    stroke-width="1"
    transform="translate(-11.2178937524,12.8518378559) scale(1,-1) translate(50,-110)"
    />
  
  <line
    x1="28.571428571428573"
    y1="0"
    x2="13.445378151260504"
    y2="6.302521008403361"
    stroke="hsla(0,50%,50%,0.6)"
    stroke-width="1"
    transform="translate(-11.2178937524,12.8518378559) scale(1,-1) translate(50,-110)"
    />
  
  <line
    x1="19.00199363227899"
    y1="11.859136489421847"
    x2="20.643231114435302"
    y2="11.892296185489903"
    stroke="hsla(0,50%,50%,0.6)"
    stroke-width="1"
    transform="translate(-11.2178937524,12.8518378559) scale(1,-1) translate(50,-110)"
    />
  
  <line
    x1="34.704519873258775"
    y1="-9.199636952745301"
    x2="20.643231114435302"
    y2="11.892296185489903"
    stroke="hsla(0,50%,50%,0.6)"
    stroke-width="1"
    transform="translate(-11.2178937524,12.8518378559) scale(1,-1) translate(50,-110)"
    />
  
</svg>
