<?xml version="1.0"?>
<!DOCTYPE svg PUBLIC "-//W3C//DTD SVG 1.1//EN"
  "http://www.w3.org/Graphics/SVG/1.1/DTD/svg11.dtd">
<svg
  width="240"
  height="240"
  viewBox="-50 -50 200 200" xmlns="http://www.w3.org/2000/svg" version="1.1">
  <rect
    x="0"
    y="0"
    width="100"
    height="100"
    fill="hsla(206,100%,53%,0.3)"
    stroke="hsl(206,100%,53%)"
    stroke-width="3"
    transform="" />
  
  <path
    d="M 
      0
      0
      L
    
      100
      0
      L
    
      100
      100
      L
    
      48.6724529305
      100
      L
    
      0
      16.3700556752
      z
    "
    fill="hsla(0,0%,50%,0.3)"
    stroke="hsla(0,0%,50%,1)"
    stroke-width="1"
    transform="translate(-30.9181132326,-45.6850278376) scale(1,-1) translate(50,-110)"
    />
  
  
  <line
    x1="0"
    y1="0"
    x2="100"
    y2="0"
    stroke="hsla(0,50%,50%,0.6)"
    stroke-width="1"
    transform="translate(-30.9181132326,-45.6850278376) scale(1,-1) translate(50,-110)"
    />
  
  <line
    x1="0"
    y1="0"
    x2="0"
    y2="16.370055675271367"
    stroke="hsla(0,50%,50%,0.6)"
    stroke-width="1"
    transform="translate(-30.9181132326,-45.6850278376) scale(1,-1) translate(50,-110)"
    />
  
  <line
    x1="100"
    y1="0"
    x2="100"
    y2="100"
    stroke="hsla(0,50%,50%,0.6)"
    stroke-width="1"
    transform="translate(-30.9181132326,-45.6850278376) scale(1,-1) translate(50,-110)"
    />
  
  <line
    x1="0"
    y1="16.370055675271367"
    x2="48.6724529305794"
    y2="100"
    stroke="hsla(0,50%,50%,0.6)"
    stroke-width="1"
    transform="translate(-30.9181132326,-45.6850278376) scale(1,-1) translate(50,-110)"
    />
  
  <line
    x1="0"
    y1="16.370055675271367"
    x2="72.71482593644329"
    y2="57.68012317448959"
    stroke="hsla(0,50%,50%,0.6)"
    stroke-width="1"
    transform="translate(-30.9181132326,-45.6850278376) scale(1,-1) translate(50,-110)"
    />
  
  <line
    x1="72.71482593644329"
    y1="57.68012317448959"
    x2="48.6724529305794"
    y2="100"
    stroke="hsla(0,50%,50%,0.6)"
    stroke-width="1"
    transform="translate(-30.9181132326,-45.6850278376) scale(1,-1) translate(50,-110)"
    />
  
  <line
    x1="48.6724529305794"
    y1="100"
    x2="100"
    y2="100"
    stroke="hsla(0,50%,50%,0.6)"
    stroke-width="1"
    transform="translate(-30.9181132326,-45.6850278376) scale(1,-1) translate(50,-110)"
    />
  
</svg>
