<?xml version="1.0"?>
<!DOCTYPE svg PUBLIC "-//W3C//DTD SVG 1.1//EN"
  "http://www.w3.org/Graphics/SVG/1.1/DTD/svg11.dtd">
<svg
  width="240"
  height="240"
  viewBox="-500 -500 1000 1000" xmlns="http://www.w3.org/2000/svg" version="1.1">
  <rect
    x="0"
    y="0"
    width="100"
    height="100"
    fill="hsla(206,100%,53%,0.3)"
    stroke="hsl(206,100%,53%)"
    stroke-width="3"
    transform="" />
  
  <path
    d="M 
      53.8461538461
      -85.8974358974
      L
    
      130.7692307692
      -53.8461538461
      L
    
      117.9487179487
      -23.0769230769
      L
    
      87.1794871794
      -35.8974358974
      L
    
      65.3846153846
      -26.9230769230
      L
    
      34.6153846153
      -39.7435897435
      L
    
      41.0256410256
      -55.1282051282
      L
    
      32.0512820512
      -76.9230769230
      L
    
      47.4358974358
      -70.5128205128
      z
    "
    fill="hsla(0,0%,50%,0.3)"
    stroke="hsla(0,0%,50%,1)"
    stroke-width="1"
    transform="translate(-81.4102564102,54.4871794871)"
    />
  
  
  <line
    x1="53.84615384615385"
    y1="-85.8974358974359"
    x2="130.76923076923077"
    y2="-53.84615384615385"
    stroke="hsla(0,50%,50%,0.6)"
    stroke-width="1"
    transform="translate(-81.4102564102,54.4871794871)"
    />
  
  <line
    x1="32.05128205128205"
    y1="-76.92307692307692"
    x2="124.35897435897436"
    y2="-38.46153846153846"
    stroke="hsla(0,50%,50%,0.6)"
    stroke-width="1"
    transform="translate(-81.4102564102,54.4871794871)"
    />
  
  <line
    x1="41.02564102564103"
    y1="-55.12820512820513"
    x2="117.94871794871794"
    y2="-23.076923076923077"
    stroke="hsla(0,50%,50%,0.6)"
    stroke-width="1"
    transform="translate(-81.4102564102,54.4871794871)"
    />
  
  <line
    x1="34.61538461538461"
    y1="-39.743589743589745"
    x2="65.38461538461539"
    y2="-26.923076923076923"
    stroke="hsla(0,50%,50%,0.6)"
    stroke-width="1"
    transform="translate(-81.4102564102,54.4871794871)"
    />
  
  <line
    x1="62.82051282051282"
    y1="-64.1025641025641"
    x2="41.02564102564103"
    y2="-55.12820512820513"
    stroke="hsla(0,50%,50%,0.6)"
    stroke-width="1"
    transform="translate(-81.4102564102,54.4871794871)"
    />
  
  <line
    x1="32.05128205128205"
    y1="-76.92307692307692"
    x2="41.02564102564103"
    y2="-55.12820512820513"
    stroke="hsla(0,50%,50%,0.6)"
    stroke-width="1"
    transform="translate(-81.4102564102,54.4871794871)"
    />
  
  <line
    x1="130.76923076923077"
    y1="-53.84615384615385"
    x2="65.38461538461539"
    y2="-26.923076923076923"
    stroke="hsla(0,50%,50%,0.6)"
    stroke-width="1"
    transform="translate(-81.4102564102,54.4871794871)"
    />
  
  <line
    x1="53.84615384615385"
    y1="-85.8974358974359"
    x2="34.61538461538461"
    y2="-39.743589743589745"
    stroke="hsla(0,50%,50%,0.6)"
    stroke-width="1"
    transform="translate(-81.4102564102,54.4871794871)"
    />
  
  <line
    x1="69.23076923076923"
    y1="-79.48717948717949"
    x2="50"
    y2="-33.333333333333336"
    stroke="hsla(0,50%,50%,0.6)"
    stroke-width="1"
    transform="translate(-81.4102564102,54.4871794871)"
    />
  
  <line
    x1="84.61538461538461"
    y1="-73.07692307692308"
    x2="65.38461538461539"
    y2="-26.923076923076923"
    stroke="hsla(0,50%,50%,0.6)"
    stroke-width="1"
    transform="translate(-81.4102564102,54.4871794871)"
    />
  
  <line
    x1="130.76923076923077"
    y1="-53.84615384615385"
    x2="117.94871794871794"
    y2="-23.076923076923077"
    stroke="hsla(0,50%,50%,0.6)"
    stroke-width="1"
    transform="translate(-81.4102564102,54.4871794871)"
    />
  
</svg>
