<?xml version="1.0"?>
<!DOCTYPE svg PUBLIC "-//W3C//DTD SVG 1.1//EN"
  "http://www.w3.org/Graphics/SVG/1.1/DTD/svg11.dtd">
<svg
  width="240"
  height="240"
  viewBox="-500 -500 1000 1000" xmlns="http://www.w3.org/2000/svg" version="1.1">
  <rect
    x="0"
    y="0"
    width="100"
    height="100"
    fill="hsla(206,100%,53%,0.3)"
    stroke="hsl(206,100%,53%)"
    stroke-width="3"
    transform="" />
  
  <path
    d="M 
      -2.3809523809
      0
      L
    
      2.3809523809
      0
      L
    
      4.9019607843
      5.0420168067
      L
    
      38.8888888888
      28.5714285714
      L
    
      29.3333333333
      61.3333333333
      L
    
      20.7570207570
      58.8319088319
      L
    
      13.8095238095
      68.0952380952
      L
    
      0
      57.7380952380
      L
    
      -13.8095238095
      68.0952380952
      L
    
      -20.7570207570
      58.8319088319
      L
    
      -29.3333333333
      61.3333333333
      L
    
      -38.8888888888
      28.5714285714
      L
    
      -4.9019607843
      5.0420168067
      z
    "
    fill="hsla(0,0%,50%,0.3)"
    stroke="hsla(0,0%,50%,1)"
    stroke-width="1"
    transform="translate(0,-34.0476190476)"
    />
  
  
  <line
    x1="-2.380952380952381"
    y1="0"
    x2="-27.38095238095238"
    y2="50"
    stroke="hsla(0,50%,50%,0.6)"
    stroke-width="1"
    transform="translate(0,-34.0476190476)"
    />
  
  <line
    x1="2.380952380952381"
    y1="0"
    x2="27.38095238095238"
    y2="50"
    stroke="hsla(0,50%,50%,0.6)"
    stroke-width="1"
    transform="translate(0,-34.0476190476)"
    />
  
  <line
    x1="-2.380952380952381"
    y1="0"
    x2="-9.523809523809524"
    y2="50"
    stroke="hsla(0,50%,50%,0.6)"
    stroke-width="1"
    transform="translate(0,-34.0476190476)"
    />
  
  <line
    x1="2.380952380952381"
    y1="0"
    x2="9.523809523809524"
    y2="50"
    stroke="hsla(0,50%,50%,0.6)"
    stroke-width="1"
    transform="translate(0,-34.0476190476)"
    />
  
  <line
    x1="-2.380952380952381"
    y1="0"
    x2="2.380952380952381"
    y2="0"
    stroke="hsla(0,50%,50%,0.6)"
    stroke-width="1"
    transform="translate(0,-34.0476190476)"
    />
  
  <line
    x1="-2.380952380952381"
    y1="0"
    x2="38.888888888888886"
    y2="28.571428571428573"
    stroke="hsla(0,50%,50%,0.6)"
    stroke-width="1"
    transform="translate(0,-34.0476190476)"
    />
  
  <line
    x1="2.380952380952381"
    y1="0"
    x2="-38.888888888888886"
    y2="28.571428571428573"
    stroke="hsla(0,50%,50%,0.6)"
    stroke-width="1"
    transform="translate(0,-34.0476190476)"
    />
  
  <line
    x1="-38.888888888888886"
    y1="28.571428571428573"
    x2="-29.333333333333332"
    y2="61.333333333333336"
    stroke="hsla(0,50%,50%,0.6)"
    stroke-width="1"
    transform="translate(0,-34.0476190476)"
    />
  
  <line
    x1="38.888888888888886"
    y1="28.571428571428573"
    x2="29.333333333333332"
    y2="61.333333333333336"
    stroke="hsla(0,50%,50%,0.6)"
    stroke-width="1"
    transform="translate(0,-34.0476190476)"
    />
  
  <line
    x1="-27.38095238095238"
    y1="50"
    x2="-13.80952380952381"
    y2="68.0952380952381"
    stroke="hsla(0,50%,50%,0.6)"
    stroke-width="1"
    transform="translate(0,-34.0476190476)"
    />
  
  <line
    x1="27.38095238095238"
    y1="50"
    x2="13.80952380952381"
    y2="68.0952380952381"
    stroke="hsla(0,50%,50%,0.6)"
    stroke-width="1"
    transform="translate(0,-34.0476190476)"
    />
  
  <line
    x1="-38.888888888888886"
    y1="28.571428571428573"
    x2="13.80952380952381"
    y2="68.0952380952381"
    stroke="hsla(0,50%,50%,0.6)"
    stroke-width="1"
    transform="translate(0,-34.0476190476)"
    />
  
  <line
    x1="38.888888888888886"
    y1="28.571428571428573"
    x2="-13.80952380952381"
    y2="68.0952380952381"
    stroke="hsla(0,50%,50%,0.6)"
    stroke-width="1"
    transform="translate(0,-34.0476190476)"
    />
  
  <line
    x1="-9.523809523809524"
    y1="50"
    x2="29.333333333333332"
    y2="61.333333333333336"
    stroke="hsla(0,50%,50%,0.6)"
    stroke-width="1"
    transform="translate(0,-34.0476190476)"
    />
  
  <line
    x1="9.523809523809524"
    y1="50"
    x2="-29.333333333333332"
    y2="61.333333333333336"
    stroke="hsla(0,50%,50%,0.6)"
    stroke-width="1"
    transform="translate(0,-34.0476190476)"
    />
  
  <line
    x1="-27.38095238095238"
    y1="50"
    x2="27.38095238095238"
    y2="50"
    stroke="hsla(0,50%,50%,0.6)"
    stroke-width="1"
    transform="translate(0,-34.0476190476)"
    />
  
</svg>
