<?xml version="1.0"?>
<!DOCTYPE svg PUBLIC "-//W3C//DTD SVG 1.1//EN"
  "http://www.w3.org/Graphics/SVG/1.1/DTD/svg11.dtd">
<svg
  width="240"
  height="240"
  viewBox="-500 -500 1000 1000" xmlns="http://www.w3.org/2000/svg" version="1.1">
  <rect
    x="0"
    y="0"
    width="100"
    height="100"
    fill="hsla(206,100%,53%,0.3)"
    stroke="hsl(206,100%,53%)"
    stroke-width="3"
    transform="" />
  
  <path
    d="M 
      29.0011833193
      -11.4073809134
      L
    
      61.9814441602
      -2.6305902246
      L
    
      58.4680636765
      95.2421518205
      L
    
      16.9221748272
      93.9453501225
      L
    
      16.8934274550
      90.8731156425
      L
    
      17.1431981190
      90.8707784999
      L
    
      17.2809832975
      88.9541008658
      L
    
      3.2840134311
      85.2291917334
      L
    
      22.8282221158
      11.7885545797
      L
    
      23.8721257832
      -2.7327954847
      L
    
      26.6397338426
      -2.5338390384
      z
    "
    fill="hsla(0,0%,50%,0.3)"
    stroke="hsla(0,0%,50%,1)"
    stroke-width="1"
    transform="translate(-32.6327287957,-41.9173854535)"
    />
  
  
  <line
    x1="29.00118331938357"
    y1="-11.407380913463719"
    x2="61.98144416024437"
    y2="-2.630590224693719"
    stroke="hsla(0,50%,50%,0.6)"
    stroke-width="1"
    transform="translate(-32.6327287957,-41.9173854535)"
    />
  
  <line
    x1="48.17901234567901"
    y1="0"
    x2="57.16912587632149"
    y2="95.18943738327326"
    stroke="hsla(0,50%,50%,0.6)"
    stroke-width="1"
    transform="translate(-32.6327287957,-41.9173854535)"
    />
  
  <line
    x1="23.87212578329492"
    y1="-2.7327954847022338"
    x2="61.887012716281006"
    y2="0"
    stroke="hsla(0,50%,50%,0.6)"
    stroke-width="1"
    transform="translate(-32.6327287957,-41.9173854535)"
    />
  
  <line
    x1="16.89342745509643"
    y1="90.87311564255599"
    x2="16.922174827224023"
    y2="93.94535012253158"
    stroke="hsla(0,50%,50%,0.6)"
    stroke-width="1"
    transform="translate(-32.6327287957,-41.9173854535)"
    />
  
  <line
    x1="48.17901234567901"
    y1="0"
    x2="61.887012716281006"
    y2="0"
    stroke="hsla(0,50%,50%,0.6)"
    stroke-width="1"
    transform="translate(-32.6327287957,-41.9173854535)"
    />
  
  <line
    x1="23.87212578329492"
    y1="-2.7327954847022338"
    x2="16.922174827224023"
    y2="93.94535012253158"
    stroke="hsla(0,50%,50%,0.6)"
    stroke-width="1"
    transform="translate(-32.6327287957,-41.9173854535)"
    />
  
  <line
    x1="61.98144416024437"
    y1="-2.630590224693719"
    x2="58.46806367656945"
    y2="95.2421518205362"
    stroke="hsla(0,50%,50%,0.6)"
    stroke-width="1"
    transform="translate(-32.6327287957,-41.9173854535)"
    />
  
  <line
    x1="29.00118331938357"
    y1="-11.407380913463719"
    x2="3.284013431170096"
    y2="85.2291917334424"
    stroke="hsla(0,50%,50%,0.6)"
    stroke-width="1"
    transform="translate(-32.6327287957,-41.9173854535)"
    />
  
  <line
    x1="61.98144416024437"
    y1="-2.630590224693719"
    x2="48.17901234567901"
    y2="0"
    stroke="hsla(0,50%,50%,0.6)"
    stroke-width="1"
    transform="translate(-32.6327287957,-41.9173854535)"
    />
  
  <line
    x1="58.011772215785015"
    y1="90.4315096394678"
    x2="57.16912587632149"
    y2="95.18943738327326"
    stroke="hsla(0,50%,50%,0.6)"
    stroke-width="1"
    transform="translate(-32.6327287957,-41.9173854535)"
    />
  
  <line
    x1="58.011772215785015"
    y1="90.4315096394678"
    x2="58.63457907480744"
    y2="90.60350858390662"
    stroke="hsla(0,50%,50%,0.6)"
    stroke-width="1"
    transform="translate(-32.6327287957,-41.9173854535)"
    />
  
  <line
    x1="3.284013431170096"
    y1="85.2291917334424"
    x2="38.57626307076609"
    y2="94.62125474704918"
    stroke="hsla(0,50%,50%,0.6)"
    stroke-width="1"
    transform="translate(-32.6327287957,-41.9173854535)"
    />
  
  <line
    x1="58.011772215785015"
    y1="90.4315096394678"
    x2="58.63892309482119"
    y2="90.48249659780923"
    stroke="hsla(0,50%,50%,0.6)"
    stroke-width="1"
    transform="translate(-32.6327287957,-41.9173854535)"
    />
  
  <line
    x1="58.63892309482119"
    y1="90.48249659780923"
    x2="16.89342745509643"
    y2="90.87311564255599"
    stroke="hsla(0,50%,50%,0.6)"
    stroke-width="1"
    transform="translate(-32.6327287957,-41.9173854535)"
    />
  
  <line
    x1="57.16912587632149"
    y1="95.18943738327326"
    x2="58.46806367656945"
    y2="95.2421518205362"
    stroke="hsla(0,50%,50%,0.6)"
    stroke-width="1"
    transform="translate(-32.6327287957,-41.9173854535)"
    />
  
  <line
    x1="16.922174827224023"
    y1="93.94535012253158"
    x2="58.46806367656945"
    y2="95.2421518205362"
    stroke="hsla(0,50%,50%,0.6)"
    stroke-width="1"
    transform="translate(-32.6327287957,-41.9173854535)"
    />
  
  <line
    x1="58.63457907480744"
    y1="90.60350858390662"
    x2="38.57626307076609"
    y2="94.62125474704918"
    stroke="hsla(0,50%,50%,0.6)"
    stroke-width="1"
    transform="translate(-32.6327287957,-41.9173854535)"
    />
  
</svg>
