<?xml version="1.0"?>
<!DOCTYPE svg PUBLIC "-//W3C//DTD SVG 1.1//EN"
  "http://www.w3.org/Graphics/SVG/1.1/DTD/svg11.dtd">
<svg
  width="240"
  height="240"
  viewBox="-500 -500 1000 1000" xmlns="http://www.w3.org/2000/svg" version="1.1">
  <rect
    x="0"
    y="0"
    width="100"
    height="100"
    fill="hsla(206,100%,53%,0.3)"
    stroke="hsl(206,100%,53%)"
    stroke-width="3"
    transform="" />
  
  <path
    d="M 
      -60.15625
      60.15625
      L
    
      -30.078125
      60.15625
      L
    
      -19.921875
      70.3125
      L
    
      10.15625
      70.3125
      L
    
      29.6875
      89.84375
      L
    
      29.6875
      119.921875
      L
    
      39.84375
      130.078125
      L
    
      39.84375
      160.15625
      L
    
      29.6875
      160.15625
      L
    
      -60.15625
      70.3125
      z
    "
    fill="hsla(0,0%,50%,0.3)"
    stroke="hsla(0,0%,50%,1)"
    stroke-width="1"
    transform="translate(10.15625,-110.15625)"
    />
  
  
  <line
    x1="-60.15625"
    y1="60.15625"
    x2="-60.15625"
    y2="70.3125"
    stroke="hsla(0,50%,50%,0.6)"
    stroke-width="1"
    transform="translate(10.15625,-110.15625)"
    />
  
  <line
    x1="-30.078125"
    y1="60.15625"
    x2="-30.078125"
    y2="100.390625"
    stroke="hsla(0,50%,50%,0.6)"
    stroke-width="1"
    transform="translate(10.15625,-110.15625)"
    />
  
  <line
    x1="-0.390625"
    y1="100.390625"
    x2="-0.390625"
    y2="130.078125"
    stroke="hsla(0,50%,50%,0.6)"
    stroke-width="1"
    transform="translate(10.15625,-110.15625)"
    />
  
  <line
    x1="10.15625"
    y1="70.3125"
    x2="10.15625"
    y2="89.84375"
    stroke="hsla(0,50%,50%,0.6)"
    stroke-width="1"
    transform="translate(10.15625,-110.15625)"
    />
  
  <line
    x1="29.6875"
    y1="89.84375"
    x2="29.6875"
    y2="160.15625"
    stroke="hsla(0,50%,50%,0.6)"
    stroke-width="1"
    transform="translate(10.15625,-110.15625)"
    />
  
  <line
    x1="39.84375"
    y1="130.078125"
    x2="39.84375"
    y2="160.15625"
    stroke="hsla(0,50%,50%,0.6)"
    stroke-width="1"
    transform="translate(10.15625,-110.15625)"
    />
  
  <line
    x1="10.15625"
    y1="70.3125"
    x2="29.6875"
    y2="89.84375"
    stroke="hsla(0,50%,50%,0.6)"
    stroke-width="1"
    transform="translate(10.15625,-110.15625)"
    />
  
  <line
    x1="-30.078125"
    y1="60.15625"
    x2="39.84375"
    y2="130.078125"
    stroke="hsla(0,50%,50%,0.6)"
    stroke-width="1"
    transform="translate(10.15625,-110.15625)"
    />
  
  <line
    x1="-60.15625"
    y1="60.15625"
    x2="-30.078125"
    y2="60.15625"
    stroke="hsla(0,50%,50%,0.6)"
    stroke-width="1"
    transform="translate(10.15625,-110.15625)"
    />
  
  <line
    x1="-60.15625"
    y1="70.3125"
    x2="29.6875"
    y2="160.15625"
    stroke="hsla(0,50%,50%,0.6)"
    stroke-width="1"
    transform="translate(10.15625,-110.15625)"
    />
  
  <line
    x1="-60.15625"
    y1="70.3125"
    x2="10.15625"
    y2="70.3125"
    stroke="hsla(0,50%,50%,0.6)"
    stroke-width="1"
    transform="translate(10.15625,-110.15625)"
    />
  
  <line
    x1="10.15625"
    y1="89.84375"
    x2="29.6875"
    y2="89.84375"
    stroke="hsla(0,50%,50%,0.6)"
    stroke-width="1"
    transform="translate(10.15625,-110.15625)"
    />
  
  <line
    x1="-30.078125"
    y1="100.390625"
    x2="-0.390625"
    y2="100.390625"
    stroke="hsla(0,50%,50%,0.6)"
    stroke-width="1"
    transform="translate(10.15625,-110.15625)"
    />
  
  <line
    x1="-0.390625"
    y1="130.078125"
    x2="39.84375"
    y2="130.078125"
    stroke="hsla(0,50%,50%,0.6)"
    stroke-width="1"
    transform="translate(10.15625,-110.15625)"
    />
  
  <line
    x1="29.6875"
    y1="160.15625"
    x2="39.84375"
    y2="160.15625"
    stroke="hsla(0,50%,50%,0.6)"
    stroke-width="1"
    transform="translate(10.15625,-110.15625)"
    />
  
</svg>
