<?xml version="1.0"?>
<!DOCTYPE svg PUBLIC "-//W3C//DTD SVG 1.1//EN"
  "http://www.w3.org/Graphics/SVG/1.1/DTD/svg11.dtd">
<svg
  width="240"
  height="240"
  viewBox="-50 -50 200 200" xmlns="http://www.w3.org/2000/svg" version="1.1">
  <rect
    x="0"
    y="0"
    width="100"
    height="100"
    fill="hsla(206,100%,53%,0.3)"
    stroke="hsl(206,100%,53%)"
    stroke-width="3"
    transform="" />
  
  <path
    d="M 
      0
      0
      L
    
      100
      0
      L
    
      100
      58.3333333333
      L
    
      107.6923076923
      61.5384615384
      L
    
      100
      80
      L
    
      0
      60
      z
    "
    fill="hsla(0,0%,50%,0.3)"
    stroke="hsla(0,0%,50%,1)"
    stroke-width="1"
    transform="translate(-47.8365384615,-61.3381410256) scale(1,-1) translate(50,-110)"
    />
  
  
  <line
    x1="0"
    y1="0"
    x2="100"
    y2="0"
    stroke="hsla(0,50%,50%,0.6)"
    stroke-width="1"
    transform="translate(-47.8365384615,-61.3381410256) scale(1,-1) translate(50,-110)"
    />
  
  <line
    x1="0"
    y1="0"
    x2="0"
    y2="60"
    stroke="hsla(0,50%,50%,0.6)"
    stroke-width="1"
    transform="translate(-47.8365384615,-61.3381410256) scale(1,-1) translate(50,-110)"
    />
  
  <line
    x1="100"
    y1="0"
    x2="100"
    y2="80"
    stroke="hsla(0,50%,50%,0.6)"
    stroke-width="1"
    transform="translate(-47.8365384615,-61.3381410256) scale(1,-1) translate(50,-110)"
    />
  
  <line
    x1="15.384615384615385"
    y1="23.076923076923077"
    x2="0"
    y2="60"
    stroke="hsla(0,50%,50%,0.6)"
    stroke-width="1"
    transform="translate(-47.8365384615,-61.3381410256) scale(1,-1) translate(50,-110)"
    />
  
  <line
    x1="15.384615384615385"
    y1="23.076923076923077"
    x2="107.6923076923077"
    y2="61.53846153846154"
    stroke="hsla(0,50%,50%,0.6)"
    stroke-width="1"
    transform="translate(-47.8365384615,-61.3381410256) scale(1,-1) translate(50,-110)"
    />
  
  <line
    x1="107.6923076923077"
    y1="61.53846153846154"
    x2="100"
    y2="80"
    stroke="hsla(0,50%,50%,0.6)"
    stroke-width="1"
    transform="translate(-47.8365384615,-61.3381410256) scale(1,-1) translate(50,-110)"
    />
  
  <line
    x1="0"
    y1="60"
    x2="100"
    y2="80"
    stroke="hsla(0,50%,50%,0.6)"
    stroke-width="1"
    transform="translate(-47.8365384615,-61.3381410256) scale(1,-1) translate(50,-110)"
    />
  
</svg>
