<?xml version="1.0"?>
<!DOCTYPE svg PUBLIC "-//W3C//DTD SVG 1.1//EN"
  "http://www.w3.org/Graphics/SVG/1.1/DTD/svg11.dtd">
<svg
  width="240"
  height="240"
  viewBox="-50 -50 200 200" xmlns="http://www.w3.org/2000/svg" version="1.1">
  <rect
    x="0"
    y="0"
    width="100"
    height="100"
    fill="hsla(206,100%,53%,0.3)"
    stroke="hsl(206,100%,53%)"
    stroke-width="3"
    transform="" />
  
  <path
    d="M 
      50
      19.921875
      L
    
      69.921875
      19.921875
      L
    
      84.9609375
      34.9609375
      L
    
      84.9609375
      104.8828125
      L
    
      69.921875
      119.921875
      L
    
      50
      119.921875
      L
    
      25
      94.921875
      L
    
      50
      69.921875
      z
    "
    fill="hsla(0,0%,50%,0.3)"
    stroke="hsla(0,0%,50%,1)"
    stroke-width="1"
    transform="translate(-46.7895507812,-85.3118896484) scale(1,-1) translate(50,-110)"
    />
  
  
  <line
    x1="69.921875"
    y1="19.921875"
    x2="84.9609375"
    y2="34.9609375"
    stroke="hsla(0,50%,50%,0.6)"
    stroke-width="1"
    transform="translate(-46.7895507812,-85.3118896484) scale(1,-1) translate(50,-110)"
    />
  
  <line
    x1="69.921875"
    y1="50"
    x2="84.9609375"
    y2="65.0390625"
    stroke="hsla(0,50%,50%,0.6)"
    stroke-width="1"
    transform="translate(-46.7895507812,-85.3118896484) scale(1,-1) translate(50,-110)"
    />
  
  <line
    x1="30.078125"
    y1="89.84375"
    x2="30.078125"
    y2="100"
    stroke="hsla(0,50%,50%,0.6)"
    stroke-width="1"
    transform="translate(-46.7895507812,-85.3118896484) scale(1,-1) translate(50,-110)"
    />
  
  <line
    x1="50"
    y1="19.921875"
    x2="50"
    y2="119.921875"
    stroke="hsla(0,50%,50%,0.6)"
    stroke-width="1"
    transform="translate(-46.7895507812,-85.3118896484) scale(1,-1) translate(50,-110)"
    />
  
  <line
    x1="69.921875"
    y1="19.921875"
    x2="69.921875"
    y2="119.921875"
    stroke="hsla(0,50%,50%,0.6)"
    stroke-width="1"
    transform="translate(-46.7895507812,-85.3118896484) scale(1,-1) translate(50,-110)"
    />
  
  <line
    x1="84.9609375"
    y1="34.9609375"
    x2="84.9609375"
    y2="104.8828125"
    stroke="hsla(0,50%,50%,0.6)"
    stroke-width="1"
    transform="translate(-46.7895507812,-85.3118896484) scale(1,-1) translate(50,-110)"
    />
  
  <line
    x1="50"
    y1="69.921875"
    x2="84.9609375"
    y2="104.8828125"
    stroke="hsla(0,50%,50%,0.6)"
    stroke-width="1"
    transform="translate(-46.7895507812,-85.3118896484) scale(1,-1) translate(50,-110)"
    />
  
  <line
    x1="50"
    y1="19.921875"
    x2="69.921875"
    y2="19.921875"
    stroke="hsla(0,50%,50%,0.6)"
    stroke-width="1"
    transform="translate(-46.7895507812,-85.3118896484) scale(1,-1) translate(50,-110)"
    />
  
  <line
    x1="25"
    y1="94.921875"
    x2="50"
    y2="119.921875"
    stroke="hsla(0,50%,50%,0.6)"
    stroke-width="1"
    transform="translate(-46.7895507812,-85.3118896484) scale(1,-1) translate(50,-110)"
    />
  
  <line
    x1="69.921875"
    y1="50"
    x2="84.9609375"
    y2="50"
    stroke="hsla(0,50%,50%,0.6)"
    stroke-width="1"
    transform="translate(-46.7895507812,-85.3118896484) scale(1,-1) translate(50,-110)"
    />
  
  <line
    x1="84.9609375"
    y1="34.9609375"
    x2="25"
    y2="94.921875"
    stroke="hsla(0,50%,50%,0.6)"
    stroke-width="1"
    transform="translate(-46.7895507812,-85.3118896484) scale(1,-1) translate(50,-110)"
    />
  
  <line
    x1="50"
    y1="69.921875"
    x2="84.9609375"
    y2="69.921875"
    stroke="hsla(0,50%,50%,0.6)"
    stroke-width="1"
    transform="translate(-46.7895507812,-85.3118896484) scale(1,-1) translate(50,-110)"
    />
  
  <line
    x1="84.9609375"
    y1="65.0390625"
    x2="50"
    y2="100"
    stroke="hsla(0,50%,50%,0.6)"
    stroke-width="1"
    transform="translate(-46.7895507812,-85.3118896484) scale(1,-1) translate(50,-110)"
    />
  
  <line
    x1="30.078125"
    y1="89.84375"
    x2="50"
    y2="89.84375"
    stroke="hsla(0,50%,50%,0.6)"
    stroke-width="1"
    transform="translate(-46.7895507812,-85.3118896484) scale(1,-1) translate(50,-110)"
    />
  
  <line
    x1="84.9609375"
    y1="104.8828125"
    x2="69.921875"
    y2="119.921875"
    stroke="hsla(0,50%,50%,0.6)"
    stroke-width="1"
    transform="translate(-46.7895507812,-85.3118896484) scale(1,-1) translate(50,-110)"
    />
  
  <line
    x1="30.078125"
    y1="100"
    x2="50"
    y2="100"
    stroke="hsla(0,50%,50%,0.6)"
    stroke-width="1"
    transform="translate(-46.7895507812,-85.3118896484) scale(1,-1) translate(50,-110)"
    />
  
  <line
    x1="50"
    y1="119.921875"
    x2="69.921875"
    y2="119.921875"
    stroke="hsla(0,50%,50%,0.6)"
    stroke-width="1"
    transform="translate(-46.7895507812,-85.3118896484) scale(1,-1) translate(50,-110)"
    />
  
</svg>
