<?xml version="1.0"?>
<!DOCTYPE svg PUBLIC "-//W3C//DTD SVG 1.1//EN"
  "http://www.w3.org/Graphics/SVG/1.1/DTD/svg11.dtd">
<svg
  width="240"
  height="240"
  viewBox="-50 -50 200 200" xmlns="http://www.w3.org/2000/svg" version="1.1">
  <rect
    x="0"
    y="0"
    width="100"
    height="100"
    fill="hsla(206,100%,53%,0.3)"
    stroke="hsl(206,100%,53%)"
    stroke-width="3"
    transform="" />
  
  <path
    d="M 
      99999999999998914337.5000000000
      100000000000004169966.7893218813
      L
    
      99999999999998914408.2106781186
      100000000000004170037.5000000000
      L
    
      99999999999998914337.4999999999
      100000000000004170108.2106781186
      L
    
      99999999999998914266.7893218813
      100000000000004170037.4999999999
      z
    "
    fill="hsla(0,0%,50%,0.3)"
    stroke="hsla(0,0%,50%,1)"
    stroke-width="1"
    transform="translate(-99999999999998914310.9834957055,-100000000000004170046.3388347648) scale(1,-1) translate(50,-110)"
    />
  
  
  <line
    x1="99999999999998920000"
    y1="100000000000004180000"
    x2="99999999999998920000"
    y2="100000000000004180000"
    stroke="hsla(0,50%,50%,0.6)"
    stroke-width="1"
    transform="translate(-99999999999998914310.9834957055,-100000000000004170046.3388347648) scale(1,-1) translate(50,-110)"
    />
  
  <line
    x1="99999999999998920000"
    y1="100000000000004180000"
    x2="99999999999998920000"
    y2="100000000000004180000"
    stroke="hsla(0,50%,50%,0.6)"
    stroke-width="1"
    transform="translate(-99999999999998914310.9834957055,-100000000000004170046.3388347648) scale(1,-1) translate(50,-110)"
    />
  
  <line
    x1="99999999999998920000"
    y1="100000000000004180000"
    x2="99999999999998920000"
    y2="100000000000004180000"
    stroke="hsla(0,50%,50%,0.6)"
    stroke-width="1"
    transform="translate(-99999999999998914310.9834957055,-100000000000004170046.3388347648) scale(1,-1) translate(50,-110)"
    />
  
  <line
    x1="99999999999998920000"
    y1="100000000000004180000"
    x2="99999999999998920000"
    y2="100000000000004180000"
    stroke="hsla(0,50%,50%,0.6)"
    stroke-width="1"
    transform="translate(-99999999999998914310.9834957055,-100000000000004170046.3388347648) scale(1,-1) translate(50,-110)"
    />
  
</svg>
