<?xml version="1.0"?>
<!DOCTYPE svg PUBLIC "-//W3C//DTD SVG 1.1//EN"
  "http://www.w3.org/Graphics/SVG/1.1/DTD/svg11.dtd">
<svg
  width="240"
  height="240"
  viewBox="-500 -500 1000 1000" xmlns="http://www.w3.org/2000/svg" version="1.1">
  <rect
    x="0"
    y="0"
    width="100"
    height="100"
    fill="hsla(206,100%,53%,0.3)"
    stroke="hsl(206,100%,53%)"
    stroke-width="3"
    transform="" />
  
  <path
    d="M 
      -38.1927836199
      -256.5424370846
      L
    
      -2.7275346539
      -246.9393465154
      L
    
      0.9610764055
      -248.0297933685
      L
    
      5.0550122630
      -244.8320300554
      L
    
      -11.7779688426
      -211.1764520525
      L
    
      -15.3739756094
      -200.7734067561
      L
    
      -16.7442012787
      -201.2470508322
      L
    
      -18.9334957477
      -196.8698124623
      L
    
      -18.7013779757
      -196.5135005259
      L
    
      -19.3100146255
      -196.1170069800
      L
    
      -40.5810698458
      -153.5880185808
      L
    
      -64.3290543806
      -160.0183709108
      L
    
      -60.3622927711
      -174.6680492678
      L
    
      -57.9632045033
      -230.6102835175
      L
    
      -44.1052545174
      -234.7070445228
      z
    "
    fill="hsla(0,0%,50%,0.3)"
    stroke="hsla(0,0%,50%,1)"
    stroke-width="1"
    transform="translate(29.6370210587,205.0652278327)"
    />
  
  
  <line
    x1="-38.19278361998048"
    y1="-256.5424370846204"
    x2="5.055012263085305"
    y2="-244.83203005548032"
    stroke="hsla(0,50%,50%,0.6)"
    stroke-width="1"
    transform="translate(29.6370210587,205.0652278327)"
    />
  
  <line
    x1="0.9610764055742431"
    y1="-248.0297933685728"
    x2="-57.96320450332944"
    y2="-230.61028351753964"
    stroke="hsla(0,50%,50%,0.6)"
    stroke-width="1"
    transform="translate(29.6370210587,205.0652278327)"
    />
  
  <line
    x1="-57.96320450332944"
    y1="-230.61028351753964"
    x2="-40.423560101599506"
    y2="-229.85809412664634"
    stroke="hsla(0,50%,50%,0.6)"
    stroke-width="1"
    transform="translate(29.6370210587,205.0652278327)"
    />
  
  <line
    x1="-52.986201688748544"
    y1="-213.7747746864243"
    x2="-15.373975609439329"
    y2="-200.7734067561074"
    stroke="hsla(0,50%,50%,0.6)"
    stroke-width="1"
    transform="translate(29.6370210587,205.0652278327)"
    />
  
  <line
    x1="0.9610764055742431"
    y1="-248.0297933685728"
    x2="5.055012263085305"
    y2="-244.83203005548032"
    stroke="hsla(0,50%,50%,0.6)"
    stroke-width="1"
    transform="translate(29.6370210587,205.0652278327)"
    />
  
  <line
    x1="-18.70137797576529"
    y1="-196.51350052599452"
    x2="-60.59586737145603"
    y2="-169.22152811148487"
    stroke="hsla(0,50%,50%,0.6)"
    stroke-width="1"
    transform="translate(29.6370210587,205.0652278327)"
    />
  
  <line
    x1="-64.32905438066996"
    y1="-160.0183709108214"
    x2="-40.58106984584639"
    y2="-153.5880185808105"
    stroke="hsla(0,50%,50%,0.6)"
    stroke-width="1"
    transform="translate(29.6370210587,205.0652278327)"
    />
  
  <line
    x1="-40.423560101599506"
    y1="-229.85809412664634"
    x2="-52.986201688748544"
    y2="-213.7747746864243"
    stroke="hsla(0,50%,50%,0.6)"
    stroke-width="1"
    transform="translate(29.6370210587,205.0652278327)"
    />
  
  <line
    x1="-60.59586737145603"
    y1="-169.22152811148487"
    x2="-40.58106984584639"
    y2="-153.5880185808105"
    stroke="hsla(0,50%,50%,0.6)"
    stroke-width="1"
    transform="translate(29.6370210587,205.0652278327)"
    />
  
  <line
    x1="-40.423560101599506"
    y1="-229.85809412664634"
    x2="-18.70137797576529"
    y2="-196.51350052599452"
    stroke="hsla(0,50%,50%,0.6)"
    stroke-width="1"
    transform="translate(29.6370210587,205.0652278327)"
    />
  
  <line
    x1="5.055012263085305"
    y1="-244.83203005548032"
    x2="-40.58106984584639"
    y2="-153.5880185808105"
    stroke="hsla(0,50%,50%,0.6)"
    stroke-width="1"
    transform="translate(29.6370210587,205.0652278327)"
    />
  
  <line
    x1="-38.19278361998048"
    y1="-256.5424370846204"
    x2="-64.32905438066996"
    y2="-160.0183709108214"
    stroke="hsla(0,50%,50%,0.6)"
    stroke-width="1"
    transform="translate(29.6370210587,205.0652278327)"
    />
  
  <line
    x1="0.9610764055742431"
    y1="-248.0297933685728"
    x2="-15.373975609439329"
    y2="-200.7734067561074"
    stroke="hsla(0,50%,50%,0.6)"
    stroke-width="1"
    transform="translate(29.6370210587,205.0652278327)"
    />
  
  <line
    x1="-57.96320450332944"
    y1="-230.61028351753964"
    x2="-60.59586737145603"
    y2="-169.22152811148487"
    stroke="hsla(0,50%,50%,0.6)"
    stroke-width="1"
    transform="translate(29.6370210587,205.0652278327)"
    />
  
  <line
    x1="-57.96320450332944"
    y1="-230.61028351753964"
    x2="-52.986201688748544"
    y2="-213.7747746864243"
    stroke="hsla(0,50%,50%,0.6)"
    stroke-width="1"
    transform="translate(29.6370210587,205.0652278327)"
    />
  
</svg>
