<?xml version="1.0"?>
<!DOCTYPE svg PUBLIC "-//W3C//DTD SVG 1.1//EN"
  "http://www.w3.org/Graphics/SVG/1.1/DTD/svg11.dtd">
<svg
  width="240"
  height="240"
  viewBox="-50 -50 200 200" xmlns="http://www.w3.org/2000/svg" version="1.1">
  <rect
    x="0"
    y="0"
    width="100"
    height="100"
    fill="hsla(206,100%,53%,0.3)"
    stroke="hsl(206,100%,53%)"
    stroke-width="3"
    transform="" />
  
  <path
    d="M 
      90.3928634736
      10.3928634736
      L
    
      150.3928634736
      90.3928634736
      L
    
      70.3928634736
      150.3928634736
      L
    
      10.3928634736
      70.3928634736
      z
    "
    fill="hsla(0,0%,50%,0.3)"
    stroke="hsla(0,0%,50%,1)"
    stroke-width="1"
    transform="translate(-52.8928634736,-85.3928634736) scale(1,-1) translate(50,-110)"
    />
  
  
  <line
    x1="90.39286347364421"
    y1="10.39286347364421"
    x2="150.39286347364424"
    y2="90.39286347364421"
    stroke="hsla(0,50%,50%,0.6)"
    stroke-width="1"
    transform="translate(-52.8928634736,-85.3928634736) scale(1,-1) translate(50,-110)"
    />
  
  <line
    x1="10.39286347364421"
    y1="70.39286347364421"
    x2="70.39286347364421"
    y2="150.39286347364424"
    stroke="hsla(0,50%,50%,0.6)"
    stroke-width="1"
    transform="translate(-52.8928634736,-85.3928634736) scale(1,-1) translate(50,-110)"
    />
  
  <line
    x1="90.39286347364421"
    y1="10.39286347364421"
    x2="10.39286347364421"
    y2="70.39286347364421"
    stroke="hsla(0,50%,50%,0.6)"
    stroke-width="1"
    transform="translate(-52.8928634736,-85.3928634736) scale(1,-1) translate(50,-110)"
    />
  
  <line
    x1="150.39286347364424"
    y1="90.39286347364421"
    x2="70.39286347364421"
    y2="150.39286347364424"
    stroke="hsla(0,50%,50%,0.6)"
    stroke-width="1"
    transform="translate(-52.8928634736,-85.3928634736) scale(1,-1) translate(50,-110)"
    />
  
</svg>
