<?xml version="1.0"?>
<!DOCTYPE svg PUBLIC "-//W3C//DTD SVG 1.1//EN"
  "http://www.w3.org/Graphics/SVG/1.1/DTD/svg11.dtd">
<svg
  width="240"
  height="240"
  viewBox="-500 -500 1000 1000" xmlns="http://www.w3.org/2000/svg" version="1.1">
  <rect
    x="0"
    y="0"
    width="100"
    height="100"
    fill="hsla(206,100%,53%,0.3)"
    stroke="hsl(206,100%,53%)"
    stroke-width="3"
    transform="" />
  
  <path
    d="M 
      -47.0553532037
      -254.0578669265
      L
    
      2.1840419336
      -245.3698311007
      L
    
      32.5396116580
      -205.6389943778
      L
    
      1.0072015604
      -181.5472723742
      L
    
      -16.6173686376
      -145.9933909970
      L
    
      -61.4152591729
      -168.2003494467
      L
    
      -79.3492988433
      -214.8733632887
      L
    
      -52.1233741021
      -225.3348864298
      z
    "
    fill="hsla(0,0%,50%,0.3)"
    stroke="hsla(0,0%,50%,1)"
    stroke-width="1"
    transform="translate(23.4048435926,200.0256289618)"
    />
  
  
  <line
    x1="-47.055353203714155"
    y1="-254.05786692658904"
    x2="2.1840419336051253"
    y2="-245.36983110075712"
    stroke="hsla(0,50%,50%,0.6)"
    stroke-width="1"
    transform="translate(23.4048435926,200.0256289618)"
    />
  
  <line
    x1="-41.726453890296966"
    y1="-229.3298883416124"
    x2="-79.34929884332536"
    y2="-214.8733632887824"
    stroke="hsla(0,50%,50%,0.6)"
    stroke-width="1"
    transform="translate(23.4048435926,200.0256289618)"
    />
  
  <line
    x1="-54.058728343096654"
    y1="-214.3662769405505"
    x2="-19.461729454679215"
    y2="-198.41676118076205"
    stroke="hsla(0,50%,50%,0.6)"
    stroke-width="1"
    transform="translate(23.4048435926,200.0256289618)"
    />
  
  <line
    x1="-19.461729454679215"
    y1="-198.41676118076205"
    x2="-61.41525917297612"
    y2="-168.20034944670937"
    stroke="hsla(0,50%,50%,0.6)"
    stroke-width="1"
    transform="translate(23.4048435926,200.0256289618)"
    />
  
  <line
    x1="-34.05456110421037"
    y1="-210.44345715154546"
    x2="3.3287200505118206"
    y2="-186.23045001104478"
    stroke="hsla(0,50%,50%,0.6)"
    stroke-width="1"
    transform="translate(23.4048435926,200.0256289618)"
    />
  
  <line
    x1="2.1840419336051253"
    y1="-245.36983110075712"
    x2="-34.05456110421037"
    y2="-210.44345715154546"
    stroke="hsla(0,50%,50%,0.6)"
    stroke-width="1"
    transform="translate(23.4048435926,200.0256289618)"
    />
  
  <line
    x1="32.539611658055044"
    y1="-205.63899437782794"
    x2="-3.146265573934543"
    y2="-178.37389694108927"
    stroke="hsla(0,50%,50%,0.6)"
    stroke-width="1"
    transform="translate(23.4048435926,200.0256289618)"
    />
  
  <line
    x1="-41.726453890296966"
    y1="-229.3298883416124"
    x2="-54.058728343096654"
    y2="-214.3662769405505"
    stroke="hsla(0,50%,50%,0.6)"
    stroke-width="1"
    transform="translate(23.4048435926,200.0256289618)"
    />
  
  <line
    x1="-61.41525917297612"
    y1="-168.20034944670937"
    x2="-16.617368637648504"
    y2="-145.9933909970521"
    stroke="hsla(0,50%,50%,0.6)"
    stroke-width="1"
    transform="translate(23.4048435926,200.0256289618)"
    />
  
  <line
    x1="2.1840419336051253"
    y1="-245.36983110075712"
    x2="32.539611658055044"
    y2="-205.63899437782794"
    stroke="hsla(0,50%,50%,0.6)"
    stroke-width="1"
    transform="translate(23.4048435926,200.0256289618)"
    />
  
  <line
    x1="-34.05456110421037"
    y1="-210.44345715154546"
    x2="-3.146265573934543"
    y2="-178.37389694108927"
    stroke="hsla(0,50%,50%,0.6)"
    stroke-width="1"
    transform="translate(23.4048435926,200.0256289618)"
    />
  
  <line
    x1="-34.05456110421037"
    y1="-210.44345715154546"
    x2="-61.41525917297612"
    y2="-168.20034944670937"
    stroke="hsla(0,50%,50%,0.6)"
    stroke-width="1"
    transform="translate(23.4048435926,200.0256289618)"
    />
  
  <line
    x1="3.3287200505118206"
    y1="-186.23045001104478"
    x2="-3.146265573934543"
    y2="-178.37389694108927"
    stroke="hsla(0,50%,50%,0.6)"
    stroke-width="1"
    transform="translate(23.4048435926,200.0256289618)"
    />
  
  <line
    x1="-41.726453890296966"
    y1="-229.3298883416124"
    x2="-19.461729454679215"
    y2="-198.41676118076205"
    stroke="hsla(0,50%,50%,0.6)"
    stroke-width="1"
    transform="translate(23.4048435926,200.0256289618)"
    />
  
  <line
    x1="2.1840419336051253"
    y1="-245.36983110075712"
    x2="-19.461729454679215"
    y2="-198.41676118076205"
    stroke="hsla(0,50%,50%,0.6)"
    stroke-width="1"
    transform="translate(23.4048435926,200.0256289618)"
    />
  
  <line
    x1="3.3287200505118206"
    y1="-186.23045001104478"
    x2="-16.617368637648504"
    y2="-145.9933909970521"
    stroke="hsla(0,50%,50%,0.6)"
    stroke-width="1"
    transform="translate(23.4048435926,200.0256289618)"
    />
  
  <line
    x1="-47.055353203714155"
    y1="-254.05786692658904"
    x2="-54.058728343096654"
    y2="-214.3662769405505"
    stroke="hsla(0,50%,50%,0.6)"
    stroke-width="1"
    transform="translate(23.4048435926,200.0256289618)"
    />
  
  <line
    x1="-79.34929884332536"
    y1="-214.8733632887824"
    x2="-61.41525917297612"
    y2="-168.20034944670937"
    stroke="hsla(0,50%,50%,0.6)"
    stroke-width="1"
    transform="translate(23.4048435926,200.0256289618)"
    />
  
</svg>
