<?xml version="1.0"?>
<!DOCTYPE svg PUBLIC "-//W3C//DTD SVG 1.1//EN"
  "http://www.w3.org/Graphics/SVG/1.1/DTD/svg11.dtd">
<svg
  width="240"
  height="240"
  viewBox="-50 -50 200 200" xmlns="http://www.w3.org/2000/svg" version="1.1">
  <rect
    x="0"
    y="0"
    width="100"
    height="100"
    fill="hsla(206,100%,53%,0.3)"
    stroke="hsl(206,100%,53%)"
    stroke-width="3"
    transform="" />
  
  <path
    d="M 
      11.7647058823
      0
      L
    
      51.9862513052
      0.1682909850
      L
    
      68.8052955553
      17.1286717414
      L
    
      60.5257419149
      36.8278613477
      L
    
      32.8197496677
      36.6565707326
      L
    
      41.1713935811
      28.4075593627
      L
    
      23.5838844413
      28.3339714584
      L
    
      23.5735294117
      28.3442401960
      L
    
      23.5735294117
      32.6559161352
      L
    
      31.5126157061
      32.6616154075
      L
    
      23.5735294117
      40.5893113342
      L
    
      4.4068627450
      32.6421568627
      L
    
      0
      28.2352941176
      z
    "
    fill="hsla(0,0%,50%,0.3)"
    stroke="hsla(0,0%,50%,1)"
    stroke-width="1"
    transform="translate(-7.6403981665,-31.3048677363) scale(1,-1) translate(50,-110)"
    />
  
  
  <line
    x1="51.98625130525583"
    y1="0.16829098503306647"
    x2="68.80529555532014"
    y2="17.128671741400446"
    stroke="hsla(0,50%,50%,0.6)"
    stroke-width="1"
    transform="translate(-7.6403981665,-31.3048677363) scale(1,-1) translate(50,-110)"
    />
  
  <line
    x1="52.69147307333279"
    y1="17.02904901213686"
    x2="64.02459905218346"
    y2="28.503179469329833"
    stroke="hsla(0,50%,50%,0.6)"
    stroke-width="1"
    transform="translate(-7.6403981665,-31.3048677363) scale(1,-1) translate(50,-110)"
    />
  
  <line
    x1="24.055777932474765"
    y1="0.0514270797076227"
    x2="60.52574191498056"
    y2="36.82786134778069"
    stroke="hsla(0,50%,50%,0.6)"
    stroke-width="1"
    transform="translate(-7.6403981665,-31.3048677363) scale(1,-1) translate(50,-110)"
    />
  
  <line
    x1="11.764705882352942"
    y1="0"
    x2="23.335955447267665"
    y2="28.439001044204662"
    stroke="hsla(0,50%,50%,0.6)"
    stroke-width="1"
    transform="translate(-7.6403981665,-31.3048677363) scale(1,-1) translate(50,-110)"
    />
  
  <line
    x1="11.764705882352942"
    y1="0"
    x2="51.98625130525583"
    y2="0.16829098503306647"
    stroke="hsla(0,50%,50%,0.6)"
    stroke-width="1"
    transform="translate(-7.6403981665,-31.3048677363) scale(1,-1) translate(50,-110)"
    />
  
  <line
    x1="23.573529411764707"
    y1="0.049409303470342114"
    x2="23.573529411764707"
    y2="40.58931133428981"
    stroke="hsla(0,50%,50%,0.6)"
    stroke-width="1"
    transform="translate(-7.6403981665,-31.3048677363) scale(1,-1) translate(50,-110)"
    />
  
  <line
    x1="23.573529411764707"
    y1="0.049409303470342114"
    x2="23.335955447267665"
    y2="28.439001044204662"
    stroke="hsla(0,50%,50%,0.6)"
    stroke-width="1"
    transform="translate(-7.6403981665,-31.3048677363) scale(1,-1) translate(50,-110)"
    />
  
  <line
    x1="23.335955447267665"
    y1="28.439001044204662"
    x2="23.406369648451097"
    y2="28.51000696136443"
    stroke="hsla(0,50%,50%,0.6)"
    stroke-width="1"
    transform="translate(-7.6403981665,-31.3048677363) scale(1,-1) translate(50,-110)"
    />
  
  <line
    x1="11.764705882352942"
    y1="0"
    x2="0"
    y2="28.235294117647058"
    stroke="hsla(0,50%,50%,0.6)"
    stroke-width="1"
    transform="translate(-7.6403981665,-31.3048677363) scale(1,-1) translate(50,-110)"
    />
  
  <line
    x1="15.313174382178907"
    y1="8.721175600417682"
    x2="23.500387715045402"
    y2="8.789689045325073"
    stroke="hsla(0,50%,50%,0.6)"
    stroke-width="1"
    transform="translate(-7.6403981665,-31.3048677363) scale(1,-1) translate(50,-110)"
    />
  
  <line
    x1="24.055777932474765"
    y1="0.0514270797076227"
    x2="15.313174382178907"
    y2="8.721175600417682"
    stroke="hsla(0,50%,50%,0.6)"
    stroke-width="1"
    transform="translate(-7.6403981665,-31.3048677363) scale(1,-1) translate(50,-110)"
    />
  
  <line
    x1="0"
    y1="28.235294117647058"
    x2="4.4068627450980395"
    y2="32.6421568627451"
    stroke="hsla(0,50%,50%,0.6)"
    stroke-width="1"
    transform="translate(-7.6403981665,-31.3048677363) scale(1,-1) translate(50,-110)"
    />
  
  <line
    x1="52.69147307333279"
    y1="17.02904901213686"
    x2="68.80529555532014"
    y2="17.128671741400446"
    stroke="hsla(0,50%,50%,0.6)"
    stroke-width="1"
    transform="translate(-7.6403981665,-31.3048677363) scale(1,-1) translate(50,-110)"
    />
  
  <line
    x1="51.98625130525583"
    y1="0.16829098503306647"
    x2="23.406369648451097"
    y2="28.51000696136443"
    stroke="hsla(0,50%,50%,0.6)"
    stroke-width="1"
    transform="translate(-7.6403981665,-31.3048677363) scale(1,-1) translate(50,-110)"
    />
  
  <line
    x1="4.4068627450980395"
    y1="32.6421568627451"
    x2="23.573529411764707"
    y2="40.58931133428981"
    stroke="hsla(0,50%,50%,0.6)"
    stroke-width="1"
    transform="translate(-7.6403981665,-31.3048677363) scale(1,-1) translate(50,-110)"
    />
  
  <line
    x1="68.80529555532014"
    y1="17.128671741400446"
    x2="60.52574191498056"
    y2="36.82786134778069"
    stroke="hsla(0,50%,50%,0.6)"
    stroke-width="1"
    transform="translate(-7.6403981665,-31.3048677363) scale(1,-1) translate(50,-110)"
    />
  
  <line
    x1="0"
    y1="28.235294117647058"
    x2="64.02459905218346"
    y2="28.503179469329833"
    stroke="hsla(0,50%,50%,0.6)"
    stroke-width="1"
    transform="translate(-7.6403981665,-31.3048677363) scale(1,-1) translate(50,-110)"
    />
  
  <line
    x1="31.51261570618095"
    y1="32.66161540758436"
    x2="23.573529411764707"
    y2="40.58931133428981"
    stroke="hsla(0,50%,50%,0.6)"
    stroke-width="1"
    transform="translate(-7.6403981665,-31.3048677363) scale(1,-1) translate(50,-110)"
    />
  
  <line
    x1="4.4068627450980395"
    y1="32.6421568627451"
    x2="31.51261570618095"
    y2="32.66161540758436"
    stroke="hsla(0,50%,50%,0.6)"
    stroke-width="1"
    transform="translate(-7.6403981665,-31.3048677363) scale(1,-1) translate(50,-110)"
    />
  
  <line
    x1="52.69147307333279"
    y1="17.02904901213686"
    x2="32.81974966770516"
    y2="36.656570732675874"
    stroke="hsla(0,50%,50%,0.6)"
    stroke-width="1"
    transform="translate(-7.6403981665,-31.3048677363) scale(1,-1) translate(50,-110)"
    />
  
  <line
    x1="32.81974966770516"
    y1="36.656570732675874"
    x2="60.52574191498056"
    y2="36.82786134778069"
    stroke="hsla(0,50%,50%,0.6)"
    stroke-width="1"
    transform="translate(-7.6403981665,-31.3048677363) scale(1,-1) translate(50,-110)"
    />
  
</svg>
