<?xml version="1.0"?>
<!DOCTYPE svg PUBLIC "-//W3C//DTD SVG 1.1//EN"
  "http://www.w3.org/Graphics/SVG/1.1/DTD/svg11.dtd">
<svg
  width="240"
  height="240"
  viewBox="-50 -50 200 200" xmlns="http://www.w3.org/2000/svg" version="1.1">
  <rect
    x="0"
    y="0"
    width="100"
    height="100"
    fill="hsla(206,100%,53%,0.3)"
    stroke="hsl(206,100%,53%)"
    stroke-width="3"
    transform="" />
  
  <path
    d="M 
      44.6576752640
      -9.0369005917
      L
    
      94.4954510754
      -9.0369005917
      L
    
      94.4954510754
      44.3053396853
      L
    
      44.6576752640
      44.3053396853
      z
    "
    fill="hsla(0,0%,50%,0.3)"
    stroke="hsla(0,0%,50%,1)"
    stroke-width="1"
    transform="translate(-63.3468411933,-30.9697796160) scale(1,-1) translate(50,-110)"
    />
  
  
  <line
    x1="44.65767526403954"
    y1="-9.036900591765034"
    x2="94.49545107540297"
    y2="-9.036900591765034"
    stroke="hsla(0,50%,50%,0.6)"
    stroke-width="1"
    transform="translate(-63.3468411933,-30.9697796160) scale(1,-1) translate(50,-110)"
    />
  
  <line
    x1="44.65767526403954"
    y1="-8.036900591765034"
    x2="94.49545107540297"
    y2="-8.036900591765034"
    stroke="hsla(0,50%,50%,0.6)"
    stroke-width="1"
    transform="translate(-63.3468411933,-30.9697796160) scale(1,-1) translate(50,-110)"
    />
  
  <line
    x1="44.65767526403954"
    y1="-1.3524200376173479"
    x2="94.49545107540297"
    y2="-1.3524200376173479"
    stroke="hsla(0,50%,50%,0.6)"
    stroke-width="1"
    transform="translate(-63.3468411933,-30.9697796160) scale(1,-1) translate(50,-110)"
    />
  
  <line
    x1="44.65767526403954"
    y1="-9.036900591765034"
    x2="44.65767526403954"
    y2="44.3053396853088"
    stroke="hsla(0,50%,50%,0.6)"
    stroke-width="1"
    transform="translate(-63.3468411933,-30.9697796160) scale(1,-1) translate(50,-110)"
    />
  
  <line
    x1="45.33322688676641"
    y1="-9.036900591765034"
    x2="45.33322688676641"
    y2="44.3053396853088"
    stroke="hsla(0,50%,50%,0.6)"
    stroke-width="1"
    transform="translate(-63.3468411933,-30.9697796160) scale(1,-1) translate(50,-110)"
    />
  
  <line
    x1="45.65767526403954"
    y1="-9.036900591765034"
    x2="45.65767526403954"
    y2="44.3053396853088"
    stroke="hsla(0,50%,50%,0.6)"
    stroke-width="1"
    transform="translate(-63.3468411933,-30.9697796160) scale(1,-1) translate(50,-110)"
    />
  
  <line
    x1="94.49545107540297"
    y1="-9.036900591765034"
    x2="94.49545107540297"
    y2="44.3053396853088"
    stroke="hsla(0,50%,50%,0.6)"
    stroke-width="1"
    transform="translate(-63.3468411933,-30.9697796160) scale(1,-1) translate(50,-110)"
    />
  
  <line
    x1="44.65767526403954"
    y1="44.3053396853088"
    x2="94.49545107540297"
    y2="44.3053396853088"
    stroke="hsla(0,50%,50%,0.6)"
    stroke-width="1"
    transform="translate(-63.3468411933,-30.9697796160) scale(1,-1) translate(50,-110)"
    />
  
</svg>
