<?xml version="1.0"?>
<!DOCTYPE svg PUBLIC "-//W3C//DTD SVG 1.1//EN"
  "http://www.w3.org/Graphics/SVG/1.1/DTD/svg11.dtd">
<svg
  width="240"
  height="240"
  viewBox="-50 -50 200 200" xmlns="http://www.w3.org/2000/svg" version="1.1">
  <rect
    x="0"
    y="0"
    width="100"
    height="100"
    fill="hsla(206,100%,53%,0.3)"
    stroke="hsl(206,100%,53%)"
    stroke-width="3"
    transform="" />
  
  <path
    d="M 
      -819676134099208
      -819676134099204
      L
    
      -819676134099160
      -819676134099204
      L
    
      -819676134099156
      -819676134099200
      L
    
      -819676134099156
      -819676134099152
      L
    
      -819676134099160
      -819676134099152
      L
    
      -819676134099160
      -819676134099200
      L
    
      -819676134099208
      -819676134099200
      z
    "
    fill="hsla(0,0%,50%,0.3)"
    stroke="hsla(0,0%,50%,1)"
    stroke-width="1"
    transform="translate(819676134099184.375,819676134099191.125) scale(1,-1) translate(50,-110)"
    />
  
  
  <line
    x1="-819676134099208"
    y1="-819676134099204"
    x2="-819676134099160"
    y2="-819676134099204"
    stroke="hsla(0,50%,50%,0.6)"
    stroke-width="1"
    transform="translate(819676134099184.375,819676134099191.125) scale(1,-1) translate(50,-110)"
    />
  
  <line
    x1="-819676134099208"
    y1="-819676134099200"
    x2="-819676134099156"
    y2="-819676134099200"
    stroke="hsla(0,50%,50%,0.6)"
    stroke-width="1"
    transform="translate(819676134099184.375,819676134099191.125) scale(1,-1) translate(50,-110)"
    />
  
  <line
    x1="-819676134099160"
    y1="-819676134099152"
    x2="-819676134099156"
    y2="-819676134099152"
    stroke="hsla(0,50%,50%,0.6)"
    stroke-width="1"
    transform="translate(819676134099184.375,819676134099191.125) scale(1,-1) translate(50,-110)"
    />
  
  <line
    x1="-819676134099160"
    y1="-819676134099204"
    x2="-819676134099156"
    y2="-819676134099200"
    stroke="hsla(0,50%,50%,0.6)"
    stroke-width="1"
    transform="translate(819676134099184.375,819676134099191.125) scale(1,-1) translate(50,-110)"
    />
  
  <line
    x1="-819676134099208"
    y1="-819676134099204"
    x2="-819676134099208"
    y2="-819676134099200"
    stroke="hsla(0,50%,50%,0.6)"
    stroke-width="1"
    transform="translate(819676134099184.375,819676134099191.125) scale(1,-1) translate(50,-110)"
    />
  
  <line
    x1="-819676134099160"
    y1="-819676134099204"
    x2="-819676134099160"
    y2="-819676134099152"
    stroke="hsla(0,50%,50%,0.6)"
    stroke-width="1"
    transform="translate(819676134099184.375,819676134099191.125) scale(1,-1) translate(50,-110)"
    />
  
  <line
    x1="-819676134099156"
    y1="-819676134099200"
    x2="-819676134099156"
    y2="-819676134099152"
    stroke="hsla(0,50%,50%,0.6)"
    stroke-width="1"
    transform="translate(819676134099184.375,819676134099191.125) scale(1,-1) translate(50,-110)"
    />
  
</svg>
