<?xml version="1.0"?>
<!DOCTYPE svg PUBLIC "-//W3C//DTD SVG 1.1//EN"
  "http://www.w3.org/Graphics/SVG/1.1/DTD/svg11.dtd">
<svg
  width="240"
  height="240"
  viewBox="-500 -500 1000 1000" xmlns="http://www.w3.org/2000/svg" version="1.1">
  <rect
    x="0"
    y="0"
    width="100"
    height="100"
    fill="hsla(206,100%,53%,0.3)"
    stroke="hsl(206,100%,53%)"
    stroke-width="3"
    transform="" />
  
  <path
    d="M 
      -108422769060740.7407407407
      -108422769060737.0370370370
      L
    
      -108422769060692.5925925925
      -108422769060737.0370370370
      L
    
      -108422769060688.8888888888
      -108422769060733.3333333333
      L
    
      -108422769060688.8888888888
      -108422769060685.1851851851
      L
    
      -108422769060692.5925925925
      -108422769060685.1851851851
      L
    
      -108422769060692.5925925925
      -108422769060733.3333333333
      L
    
      -108422769060740.7407407407
      -108422769060733.3333333333
      z
    "
    fill="hsla(0,0%,50%,0.3)"
    stroke="hsla(0,0%,50%,1)"
    stroke-width="1"
    transform="translate(108422769060714.8148148148,108422769060711.1111111111)"
    />
  
  
  <line
    x1="-108422769060740.73"
    y1="-108422769060737.03"
    x2="-108422769060692.6"
    y2="-108422769060737.03"
    stroke="hsla(0,50%,50%,0.6)"
    stroke-width="1"
    transform="translate(108422769060714.8148148148,108422769060711.1111111111)"
    />
  
  <line
    x1="-108422769060740.73"
    y1="-108422769060733.33"
    x2="-108422769060688.89"
    y2="-108422769060733.33"
    stroke="hsla(0,50%,50%,0.6)"
    stroke-width="1"
    transform="translate(108422769060714.8148148148,108422769060711.1111111111)"
    />
  
  <line
    x1="-108422769060692.6"
    y1="-108422769060685.19"
    x2="-108422769060688.89"
    y2="-108422769060685.19"
    stroke="hsla(0,50%,50%,0.6)"
    stroke-width="1"
    transform="translate(108422769060714.8148148148,108422769060711.1111111111)"
    />
  
  <line
    x1="-108422769060692.6"
    y1="-108422769060737.03"
    x2="-108422769060688.89"
    y2="-108422769060733.33"
    stroke="hsla(0,50%,50%,0.6)"
    stroke-width="1"
    transform="translate(108422769060714.8148148148,108422769060711.1111111111)"
    />
  
  <line
    x1="-108422769060740.73"
    y1="-108422769060737.03"
    x2="-108422769060740.73"
    y2="-108422769060733.33"
    stroke="hsla(0,50%,50%,0.6)"
    stroke-width="1"
    transform="translate(108422769060714.8148148148,108422769060711.1111111111)"
    />
  
  <line
    x1="-108422769060692.6"
    y1="-108422769060737.03"
    x2="-108422769060692.6"
    y2="-108422769060685.19"
    stroke="hsla(0,50%,50%,0.6)"
    stroke-width="1"
    transform="translate(108422769060714.8148148148,108422769060711.1111111111)"
    />
  
  <line
    x1="-108422769060688.89"
    y1="-108422769060733.33"
    x2="-108422769060688.89"
    y2="-108422769060685.19"
    stroke="hsla(0,50%,50%,0.6)"
    stroke-width="1"
    transform="translate(108422769060714.8148148148,108422769060711.1111111111)"
    />
  
</svg>
