<?xml version="1.0"?>
<!DOCTYPE svg PUBLIC "-//W3C//DTD SVG 1.1//EN"
  "http://www.w3.org/Graphics/SVG/1.1/DTD/svg11.dtd">
<svg
  width="240"
  height="240"
  viewBox="-50 -50 200 200" xmlns="http://www.w3.org/2000/svg" version="1.1">
  <rect
    x="0"
    y="0"
    width="100"
    height="100"
    fill="hsla(206,100%,53%,0.3)"
    stroke="hsl(206,100%,53%)"
    stroke-width="3"
    transform="" />
  
  <path
    d="M 
      50.1559814937
      28.5789821546
      L
    
      70.8697951090
      47.8387309980
      L
    
      71.2333113020
      57.8321216126
      L
    
      61.6034368803
      68.1890284203
      L
    
      51.2465300727
      58.5591539986
      L
    
      41.6166556510
      68.9160608063
      L
    
      31.2597488433
      59.2861863846
      L
    
      30.8962326503
      49.2927957699
      z
    "
    fill="hsla(0,0%,50%,0.3)"
    stroke="hsla(0,0%,50%,1)"
    stroke-width="1"
    transform="translate(-44.6528420356,-55.6719369629) scale(1,-1) translate(50,-110)"
    />
  
  <path
    d="M 
      60.8764044943
      48.2022471910
      L
    
      40.8896232650
      48.9292795769
      L
    
      41.2531394580
      58.9226701916
      L
    
      61.2399206873
      58.1956378056
      z
    "
    fill="hsla(0,0%,50%,0.3)"
    stroke="hsla(0,0%,50%,1)"
    stroke-width="1"
    transform="translate(-44.6528420356,-55.6719369629) scale(1,-1) translate(50,-110)"
    />
  
  
  <line
    x1="50.155981493721086"
    y1="28.578982154659617"
    x2="70.86979510905486"
    y2="47.83873099801718"
    stroke="hsla(0,50%,50%,0.6)"
    stroke-width="1"
    transform="translate(-44.6528420356,-55.6719369629) scale(1,-1) translate(50,-110)"
    />
  
  <line
    x1="45.34104428288169"
    y1="33.75743555849306"
    x2="71.2333113020489"
    y2="57.83212161269002"
    stroke="hsla(0,50%,50%,0.6)"
    stroke-width="1"
    transform="translate(-44.6528420356,-55.6719369629) scale(1,-1) translate(50,-110)"
    />
  
  <line
    x1="70.86979510905486"
    y1="47.83873099801718"
    x2="71.2333113020489"
    y2="57.83212161269002"
    stroke="hsla(0,50%,50%,0.6)"
    stroke-width="1"
    transform="translate(-44.6528420356,-55.6719369629) scale(1,-1) translate(50,-110)"
    />
  
  <line
    x1="60.512888301387974"
    y1="38.2088565763384"
    x2="61.603436880370126"
    y2="68.1890284203569"
    stroke="hsla(0,50%,50%,0.6)"
    stroke-width="1"
    transform="translate(-44.6528420356,-55.6719369629) scale(1,-1) translate(50,-110)"
    />
  
  <line
    x1="40.5261070720423"
    y1="38.9358889623265"
    x2="41.61665565102445"
    y2="68.91606080634502"
    stroke="hsla(0,50%,50%,0.6)"
    stroke-width="1"
    transform="translate(-44.6528420356,-55.6719369629) scale(1,-1) translate(50,-110)"
    />
  
  <line
    x1="30.896232650363515"
    y1="49.29279576999339"
    x2="31.259748843357567"
    y2="59.28618638466622"
    stroke="hsla(0,50%,50%,0.6)"
    stroke-width="1"
    transform="translate(-44.6528420356,-55.6719369629) scale(1,-1) translate(50,-110)"
    />
  
  <line
    x1="51.24653007270324"
    y1="58.55915399867812"
    x2="61.603436880370126"
    y2="68.1890284203569"
    stroke="hsla(0,50%,50%,0.6)"
    stroke-width="1"
    transform="translate(-44.6528420356,-55.6719369629) scale(1,-1) translate(50,-110)"
    />
  
  <line
    x1="31.259748843357567"
    y1="59.28618638466622"
    x2="41.61665565102445"
    y2="68.91606080634502"
    stroke="hsla(0,50%,50%,0.6)"
    stroke-width="1"
    transform="translate(-44.6528420356,-55.6719369629) scale(1,-1) translate(50,-110)"
    />
  
  <line
    x1="50.155981493721086"
    y1="28.578982154659617"
    x2="30.896232650363515"
    y2="49.29279576999339"
    stroke="hsla(0,50%,50%,0.6)"
    stroke-width="1"
    transform="translate(-44.6528420356,-55.6719369629) scale(1,-1) translate(50,-110)"
    />
  
  <line
    x1="60.512888301387974"
    y1="38.2088565763384"
    x2="40.5261070720423"
    y2="38.9358889623265"
    stroke="hsla(0,50%,50%,0.6)"
    stroke-width="1"
    transform="translate(-44.6528420356,-55.6719369629) scale(1,-1) translate(50,-110)"
    />
  
  <line
    x1="55.33443489755453"
    y1="33.39391936549901"
    x2="31.259748843357567"
    y2="59.28618638466622"
    stroke="hsla(0,50%,50%,0.6)"
    stroke-width="1"
    transform="translate(-44.6528420356,-55.6719369629) scale(1,-1) translate(50,-110)"
    />
  
  <line
    x1="70.86979510905486"
    y1="47.83873099801718"
    x2="30.896232650363515"
    y2="49.29279576999339"
    stroke="hsla(0,50%,50%,0.6)"
    stroke-width="1"
    transform="translate(-44.6528420356,-55.6719369629) scale(1,-1) translate(50,-110)"
    />
  
  <line
    x1="51.24653007270324"
    y1="58.55915399867812"
    x2="41.61665565102445"
    y2="68.91606080634502"
    stroke="hsla(0,50%,50%,0.6)"
    stroke-width="1"
    transform="translate(-44.6528420356,-55.6719369629) scale(1,-1) translate(50,-110)"
    />
  
  <line
    x1="71.2333113020489"
    y1="57.83212161269002"
    x2="31.259748843357567"
    y2="59.28618638466622"
    stroke="hsla(0,50%,50%,0.6)"
    stroke-width="1"
    transform="translate(-44.6528420356,-55.6719369629) scale(1,-1) translate(50,-110)"
    />
  
  <line
    x1="71.2333113020489"
    y1="57.83212161269002"
    x2="61.603436880370126"
    y2="68.1890284203569"
    stroke="hsla(0,50%,50%,0.6)"
    stroke-width="1"
    transform="translate(-44.6528420356,-55.6719369629) scale(1,-1) translate(50,-110)"
    />
  
</svg>
