<?xml version="1.0"?>
<!DOCTYPE svg PUBLIC "-//W3C//DTD SVG 1.1//EN"
  "http://www.w3.org/Graphics/SVG/1.1/DTD/svg11.dtd">
<svg
  width="240"
  height="240"
  viewBox="-50 -50 200 200" xmlns="http://www.w3.org/2000/svg" version="1.1">
  <rect
    x="0"
    y="0"
    width="100"
    height="100"
    fill="hsla(206,100%,53%,0.3)"
    stroke="hsl(206,100%,53%)"
    stroke-width="3"
    transform="" />
  
  <path
    d="M 
      100000000000005174487.5
      100000000000000728487.5
      L
    
      100000000000005174547.5
      100000000000000728567.5
      L
    
      100000000000005174467.5
      100000000000000728627.5
      L
    
      100000000000005174407.5
      100000000000000728547.5
      z
    "
    fill="hsla(0,0%,50%,0.3)"
    stroke="hsla(0,0%,50%,1)"
    stroke-width="1"
    transform="translate(-100000000000005174450,-100000000000000728562.5) scale(1,-1) translate(50,-110)"
    />
  
  
  <line
    x1="100000000000005180000"
    y1="100000000000000720000"
    x2="100000000000005180000"
    y2="100000000000000720000"
    stroke="hsla(0,50%,50%,0.6)"
    stroke-width="1"
    transform="translate(-100000000000005174450,-100000000000000728562.5) scale(1,-1) translate(50,-110)"
    />
  
  <line
    x1="100000000000005180000"
    y1="100000000000000720000"
    x2="100000000000005180000"
    y2="100000000000000720000"
    stroke="hsla(0,50%,50%,0.6)"
    stroke-width="1"
    transform="translate(-100000000000005174450,-100000000000000728562.5) scale(1,-1) translate(50,-110)"
    />
  
  <line
    x1="100000000000005180000"
    y1="100000000000000720000"
    x2="100000000000005180000"
    y2="100000000000000720000"
    stroke="hsla(0,50%,50%,0.6)"
    stroke-width="1"
    transform="translate(-100000000000005174450,-100000000000000728562.5) scale(1,-1) translate(50,-110)"
    />
  
  <line
    x1="100000000000005180000"
    y1="100000000000000720000"
    x2="100000000000005180000"
    y2="100000000000000720000"
    stroke="hsla(0,50%,50%,0.6)"
    stroke-width="1"
    transform="translate(-100000000000005174450,-100000000000000728562.5) scale(1,-1) translate(50,-110)"
    />
  
</svg>
