<?xml version="1.0"?>
<!DOCTYPE svg PUBLIC "-//W3C//DTD SVG 1.1//EN"
  "http://www.w3.org/Graphics/SVG/1.1/DTD/svg11.dtd">
<svg
  width="240"
  height="240"
  viewBox="-500 -500 1000 1000" xmlns="http://www.w3.org/2000/svg" version="1.1">
  <rect
    x="0"
    y="0"
    width="100"
    height="100"
    fill="hsla(206,100%,53%,0.3)"
    stroke="hsl(206,100%,53%)"
    stroke-width="3"
    transform="" />
  
  <path
    d="M 
      -75
      -50
      L
    
      -71.875
      -50
      L
    
      -71.875
      0
      L
    
      -75
      3.125
      L
    
      -121.875
      3.125
      L
    
      -121.875
      0
      L
    
      -75
      0
      z
    "
    fill="hsla(0,0%,50%,0.3)"
    stroke="hsla(0,0%,50%,1)"
    stroke-width="1"
    transform="translate(96.875,23.4375)"
    />
  
  
  <line
    x1="-75"
    y1="-50"
    x2="-71.875"
    y2="-50"
    stroke="hsla(0,50%,50%,0.6)"
    stroke-width="1"
    transform="translate(96.875,23.4375)"
    />
  
  <line
    x1="-71.875"
    y1="0"
    x2="-75"
    y2="3.125"
    stroke="hsla(0,50%,50%,0.6)"
    stroke-width="1"
    transform="translate(96.875,23.4375)"
    />
  
  <line
    x1="-121.875"
    y1="0"
    x2="-121.875"
    y2="3.125"
    stroke="hsla(0,50%,50%,0.6)"
    stroke-width="1"
    transform="translate(96.875,23.4375)"
    />
  
  <line
    x1="-75"
    y1="-50"
    x2="-75"
    y2="3.125"
    stroke="hsla(0,50%,50%,0.6)"
    stroke-width="1"
    transform="translate(96.875,23.4375)"
    />
  
  <line
    x1="-71.875"
    y1="-50"
    x2="-71.875"
    y2="0"
    stroke="hsla(0,50%,50%,0.6)"
    stroke-width="1"
    transform="translate(96.875,23.4375)"
    />
  
  <line
    x1="-121.875"
    y1="0"
    x2="-71.875"
    y2="0"
    stroke="hsla(0,50%,50%,0.6)"
    stroke-width="1"
    transform="translate(96.875,23.4375)"
    />
  
  <line
    x1="-121.875"
    y1="3.125"
    x2="-75"
    y2="3.125"
    stroke="hsla(0,50%,50%,0.6)"
    stroke-width="1"
    transform="translate(96.875,23.4375)"
    />
  
</svg>
