<?xml version="1.0"?>
<!DOCTYPE svg PUBLIC "-//W3C//DTD SVG 1.1//EN"
  "http://www.w3.org/Graphics/SVG/1.1/DTD/svg11.dtd">
<svg
  width="240"
  height="240"
  viewBox="-50 -50 200 200" xmlns="http://www.w3.org/2000/svg" version="1.1">
  <rect
    x="0"
    y="0"
    width="100"
    height="100"
    fill="hsla(206,100%,53%,0.3)"
    stroke="hsl(206,100%,53%)"
    stroke-width="3"
    transform="" />
  
  <path
    d="M 
      -88888888100
      0
      L
    
      -88888888000
      0
      L
    
      -88888888000
      6.25
      L
    
      -88888888100
      6.25
      z
    "
    fill="hsla(0,0%,50%,0.3)"
    stroke="hsla(0,0%,50%,1)"
    stroke-width="1"
    transform="translate(88888888062.5,-4.6875) scale(1,-1) translate(50,-110)"
    />
  
  
  <line
    x1="-88888888100"
    y1="0"
    x2="-88888888100"
    y2="6.25"
    stroke="hsla(0,50%,50%,0.6)"
    stroke-width="1"
    transform="translate(88888888062.5,-4.6875) scale(1,-1) translate(50,-110)"
    />
  
  <line
    x1="-88888888000"
    y1="0"
    x2="-88888888000"
    y2="6.25"
    stroke="hsla(0,50%,50%,0.6)"
    stroke-width="1"
    transform="translate(88888888062.5,-4.6875) scale(1,-1) translate(50,-110)"
    />
  
  <line
    x1="-88888888100"
    y1="0"
    x2="-88888888000"
    y2="0"
    stroke="hsla(0,50%,50%,0.6)"
    stroke-width="1"
    transform="translate(88888888062.5,-4.6875) scale(1,-1) translate(50,-110)"
    />
  
  <line
    x1="-88888888100"
    y1="6.25"
    x2="-88888888000"
    y2="6.25"
    stroke="hsla(0,50%,50%,0.6)"
    stroke-width="1"
    transform="translate(88888888062.5,-4.6875) scale(1,-1) translate(50,-110)"
    />
  
</svg>
