<?xml version="1.0"?>
<!DOCTYPE svg PUBLIC "-//W3C//DTD SVG 1.1//EN"
  "http://www.w3.org/Graphics/SVG/1.1/DTD/svg11.dtd">
<svg
  width="240"
  height="240"
  viewBox="-500 -500 1000 1000" xmlns="http://www.w3.org/2000/svg" version="1.1">
  <rect
    x="0"
    y="0"
    width="100"
    height="100"
    fill="hsla(206,100%,53%,0.3)"
    stroke="hsl(206,100%,53%)"
    stroke-width="3"
    transform="" />
  
  <path
    d="M 
      -52.5549574206
      -59.8367536814
      L
    
      21.0465204123
      -59.8367536814
      L
    
      21.0465204123
      26.4980876548
      L
    
      -52.5549574206
      26.4980876548
      z
    "
    fill="hsla(0,0%,50%,0.3)"
    stroke="hsla(0,0%,50%,1)"
    stroke-width="1"
    transform="translate(15.7542185041,16.6693330133)"
    />
  
  
  <line
    x1="-52.55495742065782"
    y1="-59.83675368146122"
    x2="21.046520412321946"
    y2="-59.83675368146122"
    stroke="hsla(0,50%,50%,0.6)"
    stroke-width="1"
    transform="translate(15.7542185041,16.6693330133)"
    />
  
  <line
    x1="-52.55495742065782"
    y1="-58.83675368146121"
    x2="21.046520412321946"
    y2="-58.83675368146121"
    stroke="hsla(0,50%,50%,0.6)"
    stroke-width="1"
    transform="translate(15.7542185041,16.6693330133)"
    />
  
  <line
    x1="-52.55495742065782"
    y1="-59.83675368146122"
    x2="-52.55495742065782"
    y2="26.49808765484175"
    stroke="hsla(0,50%,50%,0.6)"
    stroke-width="1"
    transform="translate(15.7542185041,16.6693330133)"
    />
  
  <line
    x1="-51.55495742065782"
    y1="-59.83675368146122"
    x2="-51.55495742065782"
    y2="26.49808765484175"
    stroke="hsla(0,50%,50%,0.6)"
    stroke-width="1"
    transform="translate(15.7542185041,16.6693330133)"
    />
  
  <line
    x1="-4.352001754698287"
    y1="-59.83675368146122"
    x2="-4.352001754698287"
    y2="26.49808765484175"
    stroke="hsla(0,50%,50%,0.6)"
    stroke-width="1"
    transform="translate(15.7542185041,16.6693330133)"
    />
  
  <line
    x1="21.046520412321946"
    y1="-59.83675368146122"
    x2="21.046520412321946"
    y2="26.49808765484175"
    stroke="hsla(0,50%,50%,0.6)"
    stroke-width="1"
    transform="translate(15.7542185041,16.6693330133)"
    />
  
  <line
    x1="-52.55495742065782"
    y1="13.832928991144714"
    x2="21.046520412321946"
    y2="13.832928991144714"
    stroke="hsla(0,50%,50%,0.6)"
    stroke-width="1"
    transform="translate(15.7542185041,16.6693330133)"
    />
  
  <line
    x1="-52.55495742065782"
    y1="26.49808765484175"
    x2="21.046520412321946"
    y2="26.49808765484175"
    stroke="hsla(0,50%,50%,0.6)"
    stroke-width="1"
    transform="translate(15.7542185041,16.6693330133)"
    />
  
</svg>
