<?xml version="1.0"?>
<!DOCTYPE svg PUBLIC "-//W3C//DTD SVG 1.1//EN"
  "http://www.w3.org/Graphics/SVG/1.1/DTD/svg11.dtd">
<svg
  width="240"
  height="240"
  viewBox="-500 -500 1000 1000" xmlns="http://www.w3.org/2000/svg" version="1.1">
  <rect
    x="0"
    y="0"
    width="100"
    height="100"
    fill="hsla(206,100%,53%,0.3)"
    stroke="hsl(206,100%,53%)"
    stroke-width="3"
    transform="" />
  
  <path
    d="M 
      0
      0
      L
    
      7.1428571428
      14.2857142857
      L
    
      8.3297469727
      25.8908592887
      L
    
      9.8400555000
      26.5472864171
      L
    
      20
      140
      L
    
      -35.5220397445
      56.8296741463
      L
    
      -3.2672578684
      35.2973395919
      L
    
      -6.8209083119
      19.3059125964
      L
    
      1.4243323442
      9.9703264094
      L
    
      1.2658227848
      8.8607594936
      L
    
      0
      7.6923076923
      z
    "
    fill="hsla(0,0%,50%,0.3)"
    stroke="hsla(0,0%,50%,1)"
    stroke-width="1"
    transform="translate(7.7610198722,-70)"
    />
  
  
  <line
    x1="9.84005550004137"
    y1="26.547286417128635"
    x2="20"
    y2="140"
    stroke="hsla(0,50%,50%,0.6)"
    stroke-width="1"
    transform="translate(7.7610198722,-70)"
    />
  
  <line
    x1="7.142857142857143"
    y1="14.285714285714286"
    x2="20"
    y2="140"
    stroke="hsla(0,50%,50%,0.6)"
    stroke-width="1"
    transform="translate(7.7610198722,-70)"
    />
  
  <line
    x1="0"
    y1="0"
    x2="7.142857142857143"
    y2="14.285714285714286"
    stroke="hsla(0,50%,50%,0.6)"
    stroke-width="1"
    transform="translate(7.7610198722,-70)"
    />
  
  <line
    x1="0"
    y1="0"
    x2="20"
    y2="140"
    stroke="hsla(0,50%,50%,0.6)"
    stroke-width="1"
    transform="translate(7.7610198722,-70)"
    />
  
  <line
    x1="0"
    y1="0"
    x2="0"
    y2="7.6923076923076925"
    stroke="hsla(0,50%,50%,0.6)"
    stroke-width="1"
    transform="translate(7.7610198722,-70)"
    />
  
  <line
    x1="-6.820908311910882"
    y1="19.30591259640103"
    x2="20"
    y2="140"
    stroke="hsla(0,50%,50%,0.6)"
    stroke-width="1"
    transform="translate(7.7610198722,-70)"
    />
  
  <line
    x1="0"
    y1="7.6923076923076925"
    x2="7.142857142857143"
    y2="14.285714285714286"
    stroke="hsla(0,50%,50%,0.6)"
    stroke-width="1"
    transform="translate(7.7610198722,-70)"
    />
  
  <line
    x1="3.6979969183359014"
    y1="7.395993836671803"
    x2="-6.820908311910882"
    y2="19.30591259640103"
    stroke="hsla(0,50%,50%,0.6)"
    stroke-width="1"
    transform="translate(7.7610198722,-70)"
    />
  
  <line
    x1="3.6979969183359014"
    y1="7.395993836671803"
    x2="0"
    y2="7.6923076923076925"
    stroke="hsla(0,50%,50%,0.6)"
    stroke-width="1"
    transform="translate(7.7610198722,-70)"
    />
  
  <line
    x1="-6.820908311910882"
    y1="19.30591259640103"
    x2="9.84005550004137"
    y2="26.547286417128635"
    stroke="hsla(0,50%,50%,0.6)"
    stroke-width="1"
    transform="translate(7.7610198722,-70)"
    />
  
  <line
    x1="9.84005550004137"
    y1="26.547286417128635"
    x2="-35.522039744533544"
    y2="56.82967414632525"
    stroke="hsla(0,50%,50%,0.6)"
    stroke-width="1"
    transform="translate(7.7610198722,-70)"
    />
  
  <line
    x1="-35.522039744533544"
    y1="56.82967414632525"
    x2="20"
    y2="140"
    stroke="hsla(0,50%,50%,0.6)"
    stroke-width="1"
    transform="translate(7.7610198722,-70)"
    />
  
</svg>
