<?xml version="1.0"?>
<!DOCTYPE svg PUBLIC "-//W3C//DTD SVG 1.1//EN"
  "http://www.w3.org/Graphics/SVG/1.1/DTD/svg11.dtd">
<svg
  width="240"
  height="240"
  viewBox="-500 -500 1000 1000" xmlns="http://www.w3.org/2000/svg" version="1.1">
  <rect
    x="0"
    y="0"
    width="100"
    height="100"
    fill="hsla(206,100%,53%,0.3)"
    stroke="hsl(206,100%,53%)"
    stroke-width="3"
    transform="" />
  
  <path
    d="M 
      38.4615384615
      -92.3076923076
      L
    
      -9.6153846153
      23.0769230769
      L
    
      -38.4615384615
      11.0576923076
      L
    
      -46.1538461538
      -19.2307692307
      z
    "
    fill="hsla(0,0%,50%,0.3)"
    stroke="hsla(0,0%,50%,1)"
    stroke-width="1"
    transform="translate(3.8461538461,34.6153846153)"
    />
  
  
  <line
    x1="38.46153846153846"
    y1="-92.3076923076923"
    x2="-46.15384615384615"
    y2="-19.23076923076923"
    stroke="hsla(0,50%,50%,0.6)"
    stroke-width="1"
    transform="translate(3.8461538461,34.6153846153)"
    />
  
  <line
    x1="38.46153846153846"
    y1="-92.3076923076923"
    x2="-30.76923076923077"
    y2="-12.820512820512821"
    stroke="hsla(0,50%,50%,0.6)"
    stroke-width="1"
    transform="translate(3.8461538461,34.6153846153)"
    />
  
  <line
    x1="-22.307692307692307"
    y1="1.5384615384615385"
    x2="-38.46153846153846"
    y2="11.057692307692308"
    stroke="hsla(0,50%,50%,0.6)"
    stroke-width="1"
    transform="translate(3.8461538461,34.6153846153)"
    />
  
  <line
    x1="-46.15384615384615"
    y1="-19.23076923076923"
    x2="0"
    y2="0"
    stroke="hsla(0,50%,50%,0.6)"
    stroke-width="1"
    transform="translate(3.8461538461,34.6153846153)"
    />
  
  <line
    x1="38.46153846153846"
    y1="-92.3076923076923"
    x2="-9.615384615384615"
    y2="23.076923076923077"
    stroke="hsla(0,50%,50%,0.6)"
    stroke-width="1"
    transform="translate(3.8461538461,34.6153846153)"
    />
  
  <line
    x1="-46.15384615384615"
    y1="-19.23076923076923"
    x2="-38.46153846153846"
    y2="11.057692307692308"
    stroke="hsla(0,50%,50%,0.6)"
    stroke-width="1"
    transform="translate(3.8461538461,34.6153846153)"
    />
  
  <line
    x1="-30.76923076923077"
    y1="-12.820512820512821"
    x2="-9.615384615384615"
    y2="23.076923076923077"
    stroke="hsla(0,50%,50%,0.6)"
    stroke-width="1"
    transform="translate(3.8461538461,34.6153846153)"
    />
  
  <line
    x1="-38.46153846153846"
    y1="11.057692307692308"
    x2="-9.615384615384615"
    y2="23.076923076923077"
    stroke="hsla(0,50%,50%,0.6)"
    stroke-width="1"
    transform="translate(3.8461538461,34.6153846153)"
    />
  
</svg>
