<?xml version="1.0"?>
<!DOCTYPE svg PUBLIC "-//W3C//DTD SVG 1.1//EN"
  "http://www.w3.org/Graphics/SVG/1.1/DTD/svg11.dtd">
<svg
  width="240"
  height="240"
  viewBox="-500 -500 1000 1000" xmlns="http://www.w3.org/2000/svg" version="1.1">
  <rect
    x="0"
    y="0"
    width="100"
    height="100"
    fill="hsla(206,100%,53%,0.3)"
    stroke="hsl(206,100%,53%)"
    stroke-width="3"
    transform="" />
  
  <path
    d="M 
      10.9550561797
      -22.4719101123
      L
    
      39.0449438202
      -8.7780898876
      L
    
      44.9438202247
      21.9101123595
      L
    
      -43.8202247191
      89.8876404494
      z
    "
    fill="hsla(0,0%,50%,0.3)"
    stroke="hsla(0,0%,50%,1)"
    stroke-width="1"
    transform="translate(-0.5617977528,-33.7078651685)"
    />
  
  
  <line
    x1="10.955056179775282"
    y1="-22.471910112359552"
    x2="39.04494382022472"
    y2="-8.77808988764045"
    stroke="hsla(0,50%,50%,0.6)"
    stroke-width="1"
    transform="translate(-0.5617977528,-33.7078651685)"
    />
  
  <line
    x1="10.955056179775282"
    y1="-22.471910112359552"
    x2="29.9625468164794"
    y2="14.606741573033707"
    stroke="hsla(0,50%,50%,0.6)"
    stroke-width="1"
    transform="translate(-0.5617977528,-33.7078651685)"
    />
  
  <line
    x1="39.04494382022472"
    y1="-8.77808988764045"
    x2="44.943820224719104"
    y2="21.910112359550563"
    stroke="hsla(0,50%,50%,0.6)"
    stroke-width="1"
    transform="translate(-0.5617977528,-33.7078651685)"
    />
  
  <line
    x1="0"
    y1="0"
    x2="44.943820224719104"
    y2="21.910112359550563"
    stroke="hsla(0,50%,50%,0.6)"
    stroke-width="1"
    transform="translate(-0.5617977528,-33.7078651685)"
    />
  
  <line
    x1="10.955056179775282"
    y1="-22.471910112359552"
    x2="-43.82022471910113"
    y2="89.88764044943821"
    stroke="hsla(0,50%,50%,0.6)"
    stroke-width="1"
    transform="translate(-0.5617977528,-33.7078651685)"
    />
  
  <line
    x1="39.04494382022472"
    y1="-8.77808988764045"
    x2="22.359550561797754"
    y2="-0.2247191011235955"
    stroke="hsla(0,50%,50%,0.6)"
    stroke-width="1"
    transform="translate(-0.5617977528,-33.7078651685)"
    />
  
  <line
    x1="29.9625468164794"
    y1="14.606741573033707"
    x2="-43.82022471910113"
    y2="89.88764044943821"
    stroke="hsla(0,50%,50%,0.6)"
    stroke-width="1"
    transform="translate(-0.5617977528,-33.7078651685)"
    />
  
  <line
    x1="44.943820224719104"
    y1="21.910112359550563"
    x2="-43.82022471910113"
    y2="89.88764044943821"
    stroke="hsla(0,50%,50%,0.6)"
    stroke-width="1"
    transform="translate(-0.5617977528,-33.7078651685)"
    />
  
</svg>
