<?xml version="1.0"?>
<!DOCTYPE svg PUBLIC "-//W3C//DTD SVG 1.1//EN"
  "http://www.w3.org/Graphics/SVG/1.1/DTD/svg11.dtd">
<svg
  width="240"
  height="240"
  viewBox="-500 -500 1000 1000" xmlns="http://www.w3.org/2000/svg" version="1.1">
  <rect
    x="0"
    y="0"
    width="100"
    height="100"
    fill="hsla(206,100%,53%,0.3)"
    stroke="hsl(206,100%,53%)"
    stroke-width="3"
    transform="" />
  
  <path
    d="M 
      22.6470588235
      -10.5882352941
      L
    
      35.8823529411
      17.7205882352
      L
    
      21.1764705882
      45.2941176470
      L
    
      -90.5882352941
      42.3529411764
      z
    "
    fill="hsla(0,0%,50%,0.3)"
    stroke="hsla(0,0%,50%,1)"
    stroke-width="1"
    transform="translate(27.3529411764,-17.3529411764)"
    />
  
  
  <line
    x1="22.647058823529413"
    y1="-10.588235294117647"
    x2="35.88235294117647"
    y2="17.720588235294116"
    stroke="hsla(0,50%,50%,0.6)"
    stroke-width="1"
    transform="translate(27.3529411764,-17.3529411764)"
    />
  
  <line
    x1="0"
    y1="0"
    x2="21.176470588235293"
    y2="45.294117647058826"
    stroke="hsla(0,50%,50%,0.6)"
    stroke-width="1"
    transform="translate(27.3529411764,-17.3529411764)"
    />
  
  <line
    x1="22.647058823529413"
    y1="-10.588235294117647"
    x2="-90.58823529411765"
    y2="42.35294117647059"
    stroke="hsla(0,50%,50%,0.6)"
    stroke-width="1"
    transform="translate(27.3529411764,-17.3529411764)"
    />
  
  <line
    x1="22.647058823529413"
    y1="-10.588235294117647"
    x2="14.117647058823529"
    y2="30.19607843137255"
    stroke="hsla(0,50%,50%,0.6)"
    stroke-width="1"
    transform="translate(27.3529411764,-17.3529411764)"
    />
  
  <line
    x1="17.529411764705884"
    y1="13.882352941176471"
    x2="35.88235294117647"
    y2="17.720588235294116"
    stroke="hsla(0,50%,50%,0.6)"
    stroke-width="1"
    transform="translate(27.3529411764,-17.3529411764)"
    />
  
  <line
    x1="35.88235294117647"
    y1="17.720588235294116"
    x2="21.176470588235293"
    y2="45.294117647058826"
    stroke="hsla(0,50%,50%,0.6)"
    stroke-width="1"
    transform="translate(27.3529411764,-17.3529411764)"
    />
  
  <line
    x1="14.117647058823529"
    y1="30.19607843137255"
    x2="-90.58823529411765"
    y2="42.35294117647059"
    stroke="hsla(0,50%,50%,0.6)"
    stroke-width="1"
    transform="translate(27.3529411764,-17.3529411764)"
    />
  
  <line
    x1="-90.58823529411765"
    y1="42.35294117647059"
    x2="21.176470588235293"
    y2="45.294117647058826"
    stroke="hsla(0,50%,50%,0.6)"
    stroke-width="1"
    transform="translate(27.3529411764,-17.3529411764)"
    />
  
</svg>
