<?xml version="1.0"?>
<!DOCTYPE svg PUBLIC "-//W3C//DTD SVG 1.1//EN"
  "http://www.w3.org/Graphics/SVG/1.1/DTD/svg11.dtd">
<svg
  width="240"
  height="240"
  viewBox="-500 -500 1000 1000" xmlns="http://www.w3.org/2000/svg" version="1.1">
  <rect
    x="0"
    y="0"
    width="100"
    height="100"
    fill="hsla(206,100%,53%,0.3)"
    stroke="hsl(206,100%,53%)"
    stroke-width="3"
    transform="" />
  
  <path
    d="M 
      24.2307692307
      -6.1538461538
      L
    
      31.9230769230
      24.1346153846
      L
    
      12.3076923076
      48.4615384615
      L
    
      -96.9230769230
      24.6153846153
      z
    "
    fill="hsla(0,0%,50%,0.3)"
    stroke="hsla(0,0%,50%,1)"
    stroke-width="1"
    transform="translate(32.5,-21.1538461538)"
    />
  
  
  <line
    x1="24.23076923076923"
    y1="-6.153846153846154"
    x2="31.923076923076923"
    y2="24.134615384615383"
    stroke="hsla(0,50%,50%,0.6)"
    stroke-width="1"
    transform="translate(32.5,-21.1538461538)"
    />
  
  <line
    x1="0"
    y1="0"
    x2="12.307692307692308"
    y2="48.46153846153846"
    stroke="hsla(0,50%,50%,0.6)"
    stroke-width="1"
    transform="translate(32.5,-21.1538461538)"
    />
  
  <line
    x1="24.23076923076923"
    y1="-6.153846153846154"
    x2="-96.92307692307692"
    y2="24.615384615384617"
    stroke="hsla(0,50%,50%,0.6)"
    stroke-width="1"
    transform="translate(32.5,-21.1538461538)"
    />
  
  <line
    x1="24.23076923076923"
    y1="-6.153846153846154"
    x2="8.205128205128204"
    y2="32.30769230769231"
    stroke="hsla(0,50%,50%,0.6)"
    stroke-width="1"
    transform="translate(32.5,-21.1538461538)"
    />
  
  <line
    x1="14.615384615384615"
    y1="16.923076923076923"
    x2="31.923076923076923"
    y2="24.134615384615383"
    stroke="hsla(0,50%,50%,0.6)"
    stroke-width="1"
    transform="translate(32.5,-21.1538461538)"
    />
  
  <line
    x1="31.923076923076923"
    y1="24.134615384615383"
    x2="12.307692307692308"
    y2="48.46153846153846"
    stroke="hsla(0,50%,50%,0.6)"
    stroke-width="1"
    transform="translate(32.5,-21.1538461538)"
    />
  
  <line
    x1="-96.92307692307692"
    y1="24.615384615384617"
    x2="8.205128205128204"
    y2="32.30769230769231"
    stroke="hsla(0,50%,50%,0.6)"
    stroke-width="1"
    transform="translate(32.5,-21.1538461538)"
    />
  
  <line
    x1="-96.92307692307692"
    y1="24.615384615384617"
    x2="12.307692307692308"
    y2="48.46153846153846"
    stroke="hsla(0,50%,50%,0.6)"
    stroke-width="1"
    transform="translate(32.5,-21.1538461538)"
    />
  
</svg>
