<?xml version="1.0"?>
<!DOCTYPE svg PUBLIC "-//W3C//DTD SVG 1.1//EN"
  "http://www.w3.org/Graphics/SVG/1.1/DTD/svg11.dtd">
<svg
  width="240"
  height="240"
  viewBox="-500 -500 1000 1000" xmlns="http://www.w3.org/2000/svg" version="1.1">
  <rect
    x="0"
    y="0"
    width="100"
    height="100"
    fill="hsla(206,100%,53%,0.3)"
    stroke="hsl(206,100%,53%)"
    stroke-width="3"
    transform="" />
  
  <path
    d="M 
      -1.9758742136
      62.3288168194
      L
    
      100
      97.5833333333
      L
    
      100
      100
      L
    
      98.1022291448
      100
      L
    
      92.1509323838
      107.5785232271
      L
    
      91.0900251466
      114.3446772841
      L
    
      87.3037759690
      113.7510078050
      L
    
      75.2560624952
      129.0928534669
      L
    
      41.4552994857
      106.5621409680
      L
    
      15.1805423131
      102.4423589169
      L
    
      -4.7025596426
      79.7188138245
      L
    
      -4.1454685712
      76.1658509633
      L
    
      -8.2047552032
      73.4600357119
      z
    "
    fill="hsla(0,0%,50%,0.3)"
    stroke="hsla(0,0%,50%,1)"
    stroke-width="1"
    transform="translate(-45.8976223983,-95.7108351432)"
    />
  
  
  <line
    x1="14.661882399156037"
    y1="79.28510269118273"
    x2="15.180542313168324"
    y2="102.44235891691287"
    stroke="hsla(0,50%,50%,0.6)"
    stroke-width="1"
    transform="translate(-45.8976223983,-95.7108351432)"
    />
  
  <line
    x1="0"
    y1="63.01190476190476"
    x2="0"
    y2="85.09316770186335"
    stroke="hsla(0,50%,50%,0.6)"
    stroke-width="1"
    transform="translate(-45.8976223983,-95.7108351432)"
    />
  
  <line
    x1="100"
    y1="97.58333333333333"
    x2="100"
    y2="100"
    stroke="hsla(0,50%,50%,0.6)"
    stroke-width="1"
    transform="translate(-45.8976223983,-95.7108351432)"
    />
  
  <line
    x1="-1.9758742136744982"
    y1="62.32881681946301"
    x2="-4.702559642613576"
    y2="79.7188138245907"
    stroke="hsla(0,50%,50%,0.6)"
    stroke-width="1"
    transform="translate(-45.8976223983,-95.7108351432)"
    />
  
  <line
    x1="14.774913428241632"
    y1="87.07195075028858"
    x2="13.043478260869565"
    y2="100"
    stroke="hsla(0,50%,50%,0.6)"
    stroke-width="1"
    transform="translate(-45.8976223983,-95.7108351432)"
    />
  
  <line
    x1="-1.9758742136744982"
    y1="62.32881681946301"
    x2="-8.204755203282266"
    y2="73.4600357119735"
    stroke="hsla(0,50%,50%,0.6)"
    stroke-width="1"
    transform="translate(-45.8976223983,-95.7108351432)"
    />
  
  <line
    x1="94.04114969319623"
    y1="95.52327365583831"
    x2="91.09002514668902"
    y2="114.34467728415758"
    stroke="hsla(0,50%,50%,0.6)"
    stroke-width="1"
    transform="translate(-45.8976223983,-95.7108351432)"
    />
  
  <line
    x1="0"
    y1="63.01190476190476"
    x2="-8.204755203282266"
    y2="73.4600357119735"
    stroke="hsla(0,50%,50%,0.6)"
    stroke-width="1"
    transform="translate(-45.8976223983,-95.7108351432)"
    />
  
  <line
    x1="-4.702559642613576"
    y1="79.7188138245907"
    x2="15.180542313168324"
    y2="102.44235891691287"
    stroke="hsla(0,50%,50%,0.6)"
    stroke-width="1"
    transform="translate(-45.8976223983,-95.7108351432)"
    />
  
  <line
    x1="-8.204755203282266"
    y1="73.4600357119735"
    x2="75.25606249529073"
    y2="129.09285346698667"
    stroke="hsla(0,50%,50%,0.6)"
    stroke-width="1"
    transform="translate(-45.8976223983,-95.7108351432)"
    />
  
  <line
    x1="-1.9758742136744982"
    y1="62.32881681946301"
    x2="100"
    y2="97.58333333333333"
    stroke="hsla(0,50%,50%,0.6)"
    stroke-width="1"
    transform="translate(-45.8976223983,-95.7108351432)"
    />
  
  <line
    x1="94.04114969319623"
    y1="95.52327365583831"
    x2="75.25606249529073"
    y2="129.09285346698667"
    stroke="hsla(0,50%,50%,0.6)"
    stroke-width="1"
    transform="translate(-45.8976223983,-95.7108351432)"
    />
  
  <line
    x1="14.661882399156037"
    y1="79.28510269118273"
    x2="-4.702559642613576"
    y2="79.7188138245907"
    stroke="hsla(0,50%,50%,0.6)"
    stroke-width="1"
    transform="translate(-45.8976223983,-95.7108351432)"
    />
  
  <line
    x1="0"
    y1="85.09316770186335"
    x2="14.774913428241632"
    y2="87.07195075028858"
    stroke="hsla(0,50%,50%,0.6)"
    stroke-width="1"
    transform="translate(-45.8976223983,-95.7108351432)"
    />
  
  <line
    x1="100"
    y1="97.58333333333333"
    x2="75.25606249529073"
    y2="129.09285346698667"
    stroke="hsla(0,50%,50%,0.6)"
    stroke-width="1"
    transform="translate(-45.8976223983,-95.7108351432)"
    />
  
  <line
    x1="15.180542313168324"
    y1="102.44235891691287"
    x2="91.09002514668902"
    y2="114.34467728415758"
    stroke="hsla(0,50%,50%,0.6)"
    stroke-width="1"
    transform="translate(-45.8976223983,-95.7108351432)"
    />
  
  <line
    x1="13.043478260869565"
    y1="100"
    x2="100"
    y2="100"
    stroke="hsla(0,50%,50%,0.6)"
    stroke-width="1"
    transform="translate(-45.8976223983,-95.7108351432)"
    />
  
</svg>
