<?xml version="1.0"?>
<!DOCTYPE svg PUBLIC "-//W3C//DTD SVG 1.1//EN"
  "http://www.w3.org/Graphics/SVG/1.1/DTD/svg11.dtd">
<svg
  width="240"
  height="240"
  viewBox="-500 -500 1000 1000" xmlns="http://www.w3.org/2000/svg" version="1.1">
  <rect
    x="0"
    y="0"
    width="100"
    height="100"
    fill="hsla(206,100%,53%,0.3)"
    stroke="hsl(206,100%,53%)"
    stroke-width="3"
    transform="" />
  
  <path
    d="M 
      6.1538461538
      -24.2307692307
      L
    
      36.4423076923
      -16.5384615384
      L
    
      48.4615384615
      12.3076923076
      L
    
      -24.6153846153
      96.9230769230
      z
    "
    fill="hsla(0,0%,50%,0.3)"
    stroke="hsla(0,0%,50%,1)"
    stroke-width="1"
    transform="translate(-11.9230769230,-36.3461538461)"
    />
  
  
  <line
    x1="6.153846153846154"
    y1="-24.23076923076923"
    x2="36.44230769230769"
    y2="-16.53846153846154"
    stroke="hsla(0,50%,50%,0.6)"
    stroke-width="1"
    transform="translate(-11.9230769230,-36.3461538461)"
    />
  
  <line
    x1="36.44230769230769"
    y1="-16.53846153846154"
    x2="48.46153846153846"
    y2="12.307692307692308"
    stroke="hsla(0,50%,50%,0.6)"
    stroke-width="1"
    transform="translate(-11.9230769230,-36.3461538461)"
    />
  
  <line
    x1="6.153846153846154"
    y1="-24.23076923076923"
    x2="32.30769230769231"
    y2="8.205128205128204"
    stroke="hsla(0,50%,50%,0.6)"
    stroke-width="1"
    transform="translate(-11.9230769230,-36.3461538461)"
    />
  
  <line
    x1="0"
    y1="0"
    x2="48.46153846153846"
    y2="12.307692307692308"
    stroke="hsla(0,50%,50%,0.6)"
    stroke-width="1"
    transform="translate(-11.9230769230,-36.3461538461)"
    />
  
  <line
    x1="6.153846153846154"
    y1="-24.23076923076923"
    x2="-24.615384615384617"
    y2="96.92307692307692"
    stroke="hsla(0,50%,50%,0.6)"
    stroke-width="1"
    transform="translate(-11.9230769230,-36.3461538461)"
    />
  
  <line
    x1="36.44230769230769"
    y1="-16.53846153846154"
    x2="21.846153846153847"
    y2="-4.769230769230769"
    stroke="hsla(0,50%,50%,0.6)"
    stroke-width="1"
    transform="translate(-11.9230769230,-36.3461538461)"
    />
  
  <line
    x1="32.30769230769231"
    y1="8.205128205128204"
    x2="-24.615384615384617"
    y2="96.92307692307692"
    stroke="hsla(0,50%,50%,0.6)"
    stroke-width="1"
    transform="translate(-11.9230769230,-36.3461538461)"
    />
  
  <line
    x1="48.46153846153846"
    y1="12.307692307692308"
    x2="-24.615384615384617"
    y2="96.92307692307692"
    stroke="hsla(0,50%,50%,0.6)"
    stroke-width="1"
    transform="translate(-11.9230769230,-36.3461538461)"
    />
  
</svg>
