<?xml version="1.0"?>
<!DOCTYPE svg PUBLIC "-//W3C//DTD SVG 1.1//EN"
  "http://www.w3.org/Graphics/SVG/1.1/DTD/svg11.dtd">
<svg
  width="240"
  height="240"
  viewBox="-500 -500 1000 1000" xmlns="http://www.w3.org/2000/svg" version="1.1">
  <rect
    x="0"
    y="0"
    width="100"
    height="100"
    fill="hsla(206,100%,53%,0.3)"
    stroke="hsl(206,100%,53%)"
    stroke-width="3"
    transform="" />
  
  <path
    d="M 
      13.9273356401
      -20.7612456747
      L
    
      39.8788927335
      -3.3520761245
      L
    
      41.5224913494
      27.8546712802
      L
    
      -55.7093425605
      83.0449826989
      z
    "
    fill="hsla(0,0%,50%,0.3)"
    stroke="hsla(0,0%,50%,1)"
    stroke-width="1"
    transform="translate(7.0934256055,-31.1418685121)"
    />
  
  
  <line
    x1="13.92733564013841"
    y1="-20.761245674740483"
    x2="39.878892733564015"
    y2="-3.352076124567474"
    stroke="hsla(0,50%,50%,0.6)"
    stroke-width="1"
    transform="translate(7.0934256055,-31.1418685121)"
    />
  
  <line
    x1="13.92733564013841"
    y1="-20.761245674740483"
    x2="27.68166089965398"
    y2="18.569780853517877"
    stroke="hsla(0,50%,50%,0.6)"
    stroke-width="1"
    transform="translate(7.0934256055,-31.1418685121)"
    />
  
  <line
    x1="39.878892733564015"
    y1="-3.352076124567474"
    x2="41.522491349480966"
    y2="27.85467128027682"
    stroke="hsla(0,50%,50%,0.6)"
    stroke-width="1"
    transform="translate(7.0934256055,-31.1418685121)"
    />
  
  <line
    x1="0"
    y1="0"
    x2="41.522491349480966"
    y2="27.85467128027682"
    stroke="hsla(0,50%,50%,0.6)"
    stroke-width="1"
    transform="translate(7.0934256055,-31.1418685121)"
    />
  
  <line
    x1="13.92733564013841"
    y1="-20.761245674740483"
    x2="-55.70934256055364"
    y2="83.04498269896193"
    stroke="hsla(0,50%,50%,0.6)"
    stroke-width="1"
    transform="translate(7.0934256055,-31.1418685121)"
    />
  
  <line
    x1="39.878892733564015"
    y1="-3.352076124567474"
    x2="22.17993079584775"
    y2="2.837370242214533"
    stroke="hsla(0,50%,50%,0.6)"
    stroke-width="1"
    transform="translate(7.0934256055,-31.1418685121)"
    />
  
  <line
    x1="27.68166089965398"
    y1="18.569780853517877"
    x2="-55.70934256055364"
    y2="83.04498269896193"
    stroke="hsla(0,50%,50%,0.6)"
    stroke-width="1"
    transform="translate(7.0934256055,-31.1418685121)"
    />
  
  <line
    x1="41.522491349480966"
    y1="27.85467128027682"
    x2="-55.70934256055364"
    y2="83.04498269896193"
    stroke="hsla(0,50%,50%,0.6)"
    stroke-width="1"
    transform="translate(7.0934256055,-31.1418685121)"
    />
  
</svg>
