<?xml version="1.0"?>
<!DOCTYPE svg PUBLIC "-//W3C//DTD SVG 1.1//EN"
  "http://www.w3.org/Graphics/SVG/1.1/DTD/svg11.dtd">
<svg
  width="240"
  height="240"
  viewBox="-50 -50 200 200" xmlns="http://www.w3.org/2000/svg" version="1.1">
  <rect
    x="0"
    y="0"
    width="100"
    height="100"
    fill="hsla(206,100%,53%,0.3)"
    stroke="hsl(206,100%,53%)"
    stroke-width="3"
    transform="" />
  
  <path
    d="M 
      0
      0
      L
    
      10.3761348897
      82.6848249027
      L
    
      -95.0713359273
      45.5252918287
      z
    "
    fill="hsla(0,0%,50%,0.3)"
    stroke="hsla(0,0%,50%,1)"
    stroke-width="1"
    transform="translate(44.9416342412,-43.4338521400) scale(1,-1) translate(50,-110)"
    />
  
  
  <line
    x1="0"
    y1="0"
    x2="10.376134889753567"
    y2="82.68482490272373"
    stroke="hsla(0,50%,50%,0.6)"
    stroke-width="1"
    transform="translate(44.9416342412,-43.4338521400) scale(1,-1) translate(50,-110)"
    />
  
  <line
    x1="0"
    y1="0"
    x2="-33.047989623865114"
    y2="57.8988326848249"
    stroke="hsla(0,50%,50%,0.6)"
    stroke-width="1"
    transform="translate(44.9416342412,-43.4338521400) scale(1,-1) translate(50,-110)"
    />
  
  <line
    x1="0"
    y1="0"
    x2="-95.07133592736706"
    y2="45.525291828793776"
    stroke="hsla(0,50%,50%,0.6)"
    stroke-width="1"
    transform="translate(44.9416342412,-43.4338521400) scale(1,-1) translate(50,-110)"
    />
  
  <line
    x1="4.150453955901427"
    y1="33.0739299610895"
    x2="-95.07133592736706"
    y2="45.525291828793776"
    stroke="hsla(0,50%,50%,0.6)"
    stroke-width="1"
    transform="translate(44.9416342412,-43.4338521400) scale(1,-1) translate(50,-110)"
    />
  
  <line
    x1="-33.047989623865114"
    y1="57.8988326848249"
    x2="10.376134889753567"
    y2="82.68482490272373"
    stroke="hsla(0,50%,50%,0.6)"
    stroke-width="1"
    transform="translate(44.9416342412,-43.4338521400) scale(1,-1) translate(50,-110)"
    />
  
  <line
    x1="-95.07133592736706"
    y1="45.525291828793776"
    x2="10.376134889753567"
    y2="82.68482490272373"
    stroke="hsla(0,50%,50%,0.6)"
    stroke-width="1"
    transform="translate(44.9416342412,-43.4338521400) scale(1,-1) translate(50,-110)"
    />
  
</svg>
