<?xml version="1.0"?>
<!DOCTYPE svg PUBLIC "-//W3C//DTD SVG 1.1//EN"
  "http://www.w3.org/Graphics/SVG/1.1/DTD/svg11.dtd">
<svg
  width="240"
  height="240"
  viewBox="-50 -50 200 200" xmlns="http://www.w3.org/2000/svg" version="1.1">
  <rect
    x="0"
    y="0"
    width="100"
    height="100"
    fill="hsla(206,100%,53%,0.3)"
    stroke="hsl(206,100%,53%)"
    stroke-width="3"
    transform="" />
  
  <path
    d="M 
      100
      36.4970414201
      L
    
      109.4683688736
      39.0098008519
      L
    
      104.0861472758
      141.0429805048
      L
    
      98.4229850183
      141.9220872643
      L
    
      98.0373301206
      139.4377174905
      L
    
      87.7949742320
      136.7195538124
      L
    
      44.6239772732
      79.0939819791
      L
    
      83.9715445348
      48.8266225471
      L
    
      83.0834554467
      43.1055965731
      L
    
      93.5137312439
      41.4864789247
      z
    "
    fill="hsla(0,0%,50%,0.3)"
    stroke="hsla(0,0%,50%,1)"
    stroke-width="1"
    transform="translate(-86.6732313491,-50.8247304408) scale(1,-1) translate(50,-110)"
    />
  
  
  <line
    x1="83.08345544674769"
    y1="43.10559657316404"
    x2="98.42298501834674"
    y2="141.92208726435405"
    stroke="hsla(0,50%,50%,0.6)"
    stroke-width="1"
    transform="translate(-86.6732313491,-50.8247304408) scale(1,-1) translate(50,-110)"
    />
  
  <line
    x1="100"
    y1="36.49704142011834"
    x2="100"
    y2="100"
    stroke="hsla(0,50%,50%,0.6)"
    stroke-width="1"
    transform="translate(-86.6732313491,-50.8247304408) scale(1,-1) translate(50,-110)"
    />
  
  <line
    x1="89.76569619843369"
    y1="59.330729472154665"
    x2="87.79497423200682"
    y2="136.71955381245863"
    stroke="hsla(0,50%,50%,0.6)"
    stroke-width="1"
    transform="translate(-86.6732313491,-50.8247304408) scale(1,-1) translate(50,-110)"
    />
  
  <line
    x1="109.46836887365431"
    y1="39.009800851972756"
    x2="104.08614727580328"
    y2="141.04298050485076"
    stroke="hsla(0,50%,50%,0.6)"
    stroke-width="1"
    transform="translate(-86.6732313491,-50.8247304408) scale(1,-1) translate(50,-110)"
    />
  
  <line
    x1="44.62397727326843"
    y1="79.09398197914263"
    x2="87.79497423200682"
    y2="136.71955381245863"
    stroke="hsla(0,50%,50%,0.6)"
    stroke-width="1"
    transform="translate(-86.6732313491,-50.8247304408) scale(1,-1) translate(50,-110)"
    />
  
  <line
    x1="100"
    y1="36.49704142011834"
    x2="109.46836887365431"
    y2="39.009800851972756"
    stroke="hsla(0,50%,50%,0.6)"
    stroke-width="1"
    transform="translate(-86.6732313491,-50.8247304408) scale(1,-1) translate(50,-110)"
    />
  
  <line
    x1="72.32519631264064"
    y1="58.88660363714702"
    x2="60.28601084073348"
    y2="100"
    stroke="hsla(0,50%,50%,0.6)"
    stroke-width="1"
    transform="translate(-86.6732313491,-50.8247304408) scale(1,-1) translate(50,-110)"
    />
  
  <line
    x1="109.46836887365431"
    y1="39.009800851972756"
    x2="83.08345544674769"
    y2="43.10559657316404"
    stroke="hsla(0,50%,50%,0.6)"
    stroke-width="1"
    transform="translate(-86.6732313491,-50.8247304408) scale(1,-1) translate(50,-110)"
    />
  
  <line
    x1="72.32519631264064"
    y1="58.88660363714702"
    x2="89.76569619843369"
    y2="59.330729472154665"
    stroke="hsla(0,50%,50%,0.6)"
    stroke-width="1"
    transform="translate(-86.6732313491,-50.8247304408) scale(1,-1) translate(50,-110)"
    />
  
  <line
    x1="100"
    y1="36.49704142011834"
    x2="44.62397727326843"
    y2="79.09398197914263"
    stroke="hsla(0,50%,50%,0.6)"
    stroke-width="1"
    transform="translate(-86.6732313491,-50.8247304408) scale(1,-1) translate(50,-110)"
    />
  
  <line
    x1="72.32519631264064"
    y1="58.88660363714702"
    x2="44.62397727326843"
    y2="79.09398197914263"
    stroke="hsla(0,50%,50%,0.6)"
    stroke-width="1"
    transform="translate(-86.6732313491,-50.8247304408) scale(1,-1) translate(50,-110)"
    />
  
  <line
    x1="60.28601084073348"
    y1="100"
    x2="100"
    y2="100"
    stroke="hsla(0,50%,50%,0.6)"
    stroke-width="1"
    transform="translate(-86.6732313491,-50.8247304408) scale(1,-1) translate(50,-110)"
    />
  
  <line
    x1="87.79497423200682"
    y1="136.71955381245863"
    x2="104.08614727580328"
    y2="141.04298050485076"
    stroke="hsla(0,50%,50%,0.6)"
    stroke-width="1"
    transform="translate(-86.6732313491,-50.8247304408) scale(1,-1) translate(50,-110)"
    />
  
  <line
    x1="104.08614727580328"
    y1="141.04298050485076"
    x2="98.42298501834674"
    y2="141.92208726435405"
    stroke="hsla(0,50%,50%,0.6)"
    stroke-width="1"
    transform="translate(-86.6732313491,-50.8247304408) scale(1,-1) translate(50,-110)"
    />
  
</svg>
