<?xml version="1.0"?>
<!DOCTYPE svg PUBLIC "-//W3C//DTD SVG 1.1//EN"
  "http://www.w3.org/Graphics/SVG/1.1/DTD/svg11.dtd">
<svg
  width="240"
  height="240"
  viewBox="-50 -50 200 200" xmlns="http://www.w3.org/2000/svg" version="1.1">
  <rect
    x="0"
    y="0"
    width="100"
    height="100"
    fill="hsla(206,100%,53%,0.3)"
    stroke="hsl(206,100%,53%)"
    stroke-width="3"
    transform="" />
  
  <path
    d="M 
      52.2222222222
      -23.8888888888
      L
    
      70.1388888888
      0
      L
    
      40.9474390530
      58.3828996716
      L
    
      15.7912084619
      66.6372878343
      L
    
      -7.0484747242
      20.5641338209
      L
    
      0
      15.2777777777
      L
    
      0
      0
      L
    
      20.3703703703
      0
      z
    "
    fill="hsla(0,0%,50%,0.3)"
    stroke="hsla(0,0%,50%,1)"
    stroke-width="1"
    transform="translate(-11.8338806951,-6.0029966937) scale(1,-1) translate(50,-110)"
    />
  
  
  <line
    x1="52.22222222222222"
    y1="-23.88888888888889"
    x2="70.13888888888889"
    y2="0"
    stroke="hsla(0,50%,50%,0.6)"
    stroke-width="1"
    transform="translate(-11.8338806951,-6.0029966937) scale(1,-1) translate(50,-110)"
    />
  
  <line
    x1="17.875798413074783"
    y1="13.479423768637194"
    x2="30.169433544906163"
    y2="56.7288888298598"
    stroke="hsla(0,50%,50%,0.6)"
    stroke-width="1"
    transform="translate(-11.8338806951,-6.0029966937) scale(1,-1) translate(50,-110)"
    />
  
  <line
    x1="21.516596713202805"
    y1="30.172883861365083"
    x2="29.47603889663683"
    y2="57.20672464081687"
    stroke="hsla(0,50%,50%,0.6)"
    stroke-width="1"
    transform="translate(-11.8338806951,-6.0029966937) scale(1,-1) translate(50,-110)"
    />
  
  <line
    x1="0"
    y1="0"
    x2="70.13888888888889"
    y2="0"
    stroke="hsla(0,50%,50%,0.6)"
    stroke-width="1"
    transform="translate(-11.8338806951,-6.0029966937) scale(1,-1) translate(50,-110)"
    />
  
  <line
    x1="0"
    y1="0"
    x2="0"
    y2="34.78260869565217"
    stroke="hsla(0,50%,50%,0.6)"
    stroke-width="1"
    transform="translate(-11.8338806951,-6.0029966937) scale(1,-1) translate(50,-110)"
    />
  
  <line
    x1="2.1976502941786653"
    y1="35.860867241956726"
    x2="1.756081142580254"
    y2="38.32504824189165"
    stroke="hsla(0,50%,50%,0.6)"
    stroke-width="1"
    transform="translate(-11.8338806951,-6.0029966937) scale(1,-1) translate(50,-110)"
    />
  
  <line
    x1="-7.048474724216293"
    y1="20.564133820939997"
    x2="15.791208461930303"
    y2="66.63728783437365"
    stroke="hsla(0,50%,50%,0.6)"
    stroke-width="1"
    transform="translate(-11.8338806951,-6.0029966937) scale(1,-1) translate(50,-110)"
    />
  
  <line
    x1="52.22222222222222"
    y1="-23.88888888888889"
    x2="-7.048474724216293"
    y2="20.564133820939997"
    stroke="hsla(0,50%,50%,0.6)"
    stroke-width="1"
    transform="translate(-11.8338806951,-6.0029966937) scale(1,-1) translate(50,-110)"
    />
  
  <line
    x1="17.875798413074783"
    y1="13.479423768637194"
    x2="-7.048474724216293"
    y2="20.564133820939997"
    stroke="hsla(0,50%,50%,0.6)"
    stroke-width="1"
    transform="translate(-11.8338806951,-6.0029966937) scale(1,-1) translate(50,-110)"
    />
  
  <line
    x1="2.1976502941786653"
    y1="35.860867241956726"
    x2="30.169433544906163"
    y2="56.7288888298598"
    stroke="hsla(0,50%,50%,0.6)"
    stroke-width="1"
    transform="translate(-11.8338806951,-6.0029966937) scale(1,-1) translate(50,-110)"
    />
  
  <line
    x1="0"
    y1="34.78260869565217"
    x2="29.47603889663683"
    y2="57.20672464081687"
    stroke="hsla(0,50%,50%,0.6)"
    stroke-width="1"
    transform="translate(-11.8338806951,-6.0029966937) scale(1,-1) translate(50,-110)"
    />
  
  <line
    x1="70.13888888888889"
    y1="0"
    x2="40.94743905305914"
    y2="58.382899671659494"
    stroke="hsla(0,50%,50%,0.6)"
    stroke-width="1"
    transform="translate(-11.8338806951,-6.0029966937) scale(1,-1) translate(50,-110)"
    />
  
  <line
    x1="1.756081142580254"
    y1="38.32504824189165"
    x2="40.94743905305914"
    y2="58.382899671659494"
    stroke="hsla(0,50%,50%,0.6)"
    stroke-width="1"
    transform="translate(-11.8338806951,-6.0029966937) scale(1,-1) translate(50,-110)"
    />
  
  <line
    x1="21.516596713202805"
    y1="30.172883861365083"
    x2="2.1976502941786653"
    y2="35.860867241956726"
    stroke="hsla(0,50%,50%,0.6)"
    stroke-width="1"
    transform="translate(-11.8338806951,-6.0029966937) scale(1,-1) translate(50,-110)"
    />
  
  <line
    x1="30.169433544906163"
    y1="56.7288888298598"
    x2="15.791208461930303"
    y2="66.63728783437365"
    stroke="hsla(0,50%,50%,0.6)"
    stroke-width="1"
    transform="translate(-11.8338806951,-6.0029966937) scale(1,-1) translate(50,-110)"
    />
  
  <line
    x1="40.94743905305914"
    y1="58.382899671659494"
    x2="15.791208461930303"
    y2="66.63728783437365"
    stroke="hsla(0,50%,50%,0.6)"
    stroke-width="1"
    transform="translate(-11.8338806951,-6.0029966937) scale(1,-1) translate(50,-110)"
    />
  
</svg>
