<?xml version="1.0"?>
<!DOCTYPE svg PUBLIC "-//W3C//DTD SVG 1.1//EN"
  "http://www.w3.org/Graphics/SVG/1.1/DTD/svg11.dtd">
<svg
  width="240"
  height="240"
  viewBox="-500 -500 1000 1000" xmlns="http://www.w3.org/2000/svg" version="1.1">
  <rect
    x="0"
    y="0"
    width="100"
    height="100"
    fill="hsla(206,100%,53%,0.3)"
    stroke="hsl(206,100%,53%)"
    stroke-width="3"
    transform="" />
  
  <path
    d="M 
      127.6226012793
      -178.5401237461
      L
    
      165.1226012793
      -178.5401237461
      L
    
      165.1226012793
      -166.0401237461
      L
    
      127.6226012793
      -166.0401237461
      L
    
      127.6226012793
      -116.0401237461
      L
    
      115.1226012793
      -116.0401237461
      L
    
      115.1226012793
      -166.0401237461
      z
    "
    fill="hsla(0,0%,50%,0.3)"
    stroke="hsla(0,0%,50%,1)"
    stroke-width="1"
    transform="translate(-140.1226012793,147.2901237461)"
    />
  
  
  <line
    x1="127.62260127931769"
    y1="-178.54012374613293"
    x2="165.1226012793177"
    y2="-178.54012374613293"
    stroke="hsla(0,50%,50%,0.6)"
    stroke-width="1"
    transform="translate(-140.1226012793,147.2901237461)"
    />
  
  <line
    x1="115.12260127931769"
    y1="-166.04012374613293"
    x2="165.1226012793177"
    y2="-166.04012374613293"
    stroke="hsla(0,50%,50%,0.6)"
    stroke-width="1"
    transform="translate(-140.1226012793,147.2901237461)"
    />
  
  <line
    x1="115.12260127931769"
    y1="-116.04012374613293"
    x2="127.62260127931769"
    y2="-116.04012374613293"
    stroke="hsla(0,50%,50%,0.6)"
    stroke-width="1"
    transform="translate(-140.1226012793,147.2901237461)"
    />
  
  <line
    x1="127.62260127931769"
    y1="-178.54012374613293"
    x2="115.12260127931769"
    y2="-166.04012374613293"
    stroke="hsla(0,50%,50%,0.6)"
    stroke-width="1"
    transform="translate(-140.1226012793,147.2901237461)"
    />
  
  <line
    x1="115.12260127931769"
    y1="-166.04012374613293"
    x2="115.12260127931769"
    y2="-116.04012374613293"
    stroke="hsla(0,50%,50%,0.6)"
    stroke-width="1"
    transform="translate(-140.1226012793,147.2901237461)"
    />
  
  <line
    x1="127.62260127931769"
    y1="-178.54012374613293"
    x2="127.62260127931769"
    y2="-116.04012374613293"
    stroke="hsla(0,50%,50%,0.6)"
    stroke-width="1"
    transform="translate(-140.1226012793,147.2901237461)"
    />
  
  <line
    x1="165.1226012793177"
    y1="-178.54012374613293"
    x2="165.1226012793177"
    y2="-166.04012374613293"
    stroke="hsla(0,50%,50%,0.6)"
    stroke-width="1"
    transform="translate(-140.1226012793,147.2901237461)"
    />
  
</svg>
