<?xml version="1.0"?>
<!DOCTYPE svg PUBLIC "-//W3C//DTD SVG 1.1//EN"
  "http://www.w3.org/Graphics/SVG/1.1/DTD/svg11.dtd">
<svg
  width="240"
  height="240"
  viewBox="-50 -50 200 200" xmlns="http://www.w3.org/2000/svg" version="1.1">
  <rect
    x="0"
    y="0"
    width="100"
    height="100"
    fill="hsla(206,100%,53%,0.3)"
    stroke="hsl(206,100%,53%)"
    stroke-width="3"
    transform="" />
  
  <path
    d="M 
      -28.8887868557
      -30.5359722907
      L
    
      -17.8869601987
      -11.4150653644
      L
    
      9.2264333809
      0
      L
    
      2.9924451941
      30.8730843538
      L
    
      -105.0781064896
      37.5621707249
      L
    
      -115.5651037515
      19.3360247554
      L
    
      -91.5990843807
      5.5464073597
      L
    
      -83.0916890603
      -14.6606041899
      L
    
      -47.2442076153
      -19.9745926349
      z
    "
    fill="hsla(0,0%,50%,0.3)"
    stroke="hsla(0,0%,50%,1)"
    stroke-width="1"
    transform="translate(66.4153007276,10.2583063604) scale(1,-1) translate(50,-110)"
    />
  
  
  <line
    x1="-28.88878685571777"
    y1="-30.53597229074664"
    x2="-115.5651037515134"
    y2="19.33602475548775"
    stroke="hsla(0,50%,50%,0.6)"
    stroke-width="1"
    transform="translate(66.4153007276,10.2583063604) scale(1,-1) translate(50,-110)"
    />
  
  <line
    x1="-40.568367861315714"
    y1="-20.964211260355142"
    x2="-68.84214871367693"
    y2="2.5056198989353224"
    stroke="hsla(0,50%,50%,0.6)"
    stroke-width="1"
    transform="translate(66.4153007276,10.2583063604) scale(1,-1) translate(50,-110)"
    />
  
  <line
    x1="-83.091689060389"
    y1="-14.66060418999827"
    x2="-105.07810648965166"
    y2="37.562170724974294"
    stroke="hsla(0,50%,50%,0.6)"
    stroke-width="1"
    transform="translate(66.4153007276,10.2583063604) scale(1,-1) translate(50,-110)"
    />
  
  <line
    x1="-40.568367861315714"
    y1="-20.964211260355142"
    x2="-83.091689060389"
    y2="-14.66060418999827"
    stroke="hsla(0,50%,50%,0.6)"
    stroke-width="1"
    transform="translate(66.4153007276,10.2583063604) scale(1,-1) translate(50,-110)"
    />
  
  <line
    x1="-40.568367861315714"
    y1="-20.964211260355142"
    x2="9.226433380942664"
    y2="0"
    stroke="hsla(0,50%,50%,0.6)"
    stroke-width="1"
    transform="translate(66.4153007276,10.2583063604) scale(1,-1) translate(50,-110)"
    />
  
  <line
    x1="0"
    y1="0"
    x2="9.226433380942664"
    y2="0"
    stroke="hsla(0,50%,50%,0.6)"
    stroke-width="1"
    transform="translate(66.4153007276,10.2583063604) scale(1,-1) translate(50,-110)"
    />
  
  <line
    x1="0"
    y1="0"
    x2="0"
    y2="31.05830339872893"
    stroke="hsla(0,50%,50%,0.6)"
    stroke-width="1"
    transform="translate(66.4153007276,10.2583063604) scale(1,-1) translate(50,-110)"
    />
  
  <line
    x1="-1.8047081263651412"
    y1="16.535497267605432"
    x2="0"
    y2="31.05830339872893"
    stroke="hsla(0,50%,50%,0.6)"
    stroke-width="1"
    transform="translate(66.4153007276,10.2583063604) scale(1,-1) translate(50,-110)"
    />
  
  <line
    x1="9.226433380942664"
    y1="0"
    x2="2.992445194111142"
    y2="30.873084353832304"
    stroke="hsla(0,50%,50%,0.6)"
    stroke-width="1"
    transform="translate(66.4153007276,10.2583063604) scale(1,-1) translate(50,-110)"
    />
  
  <line
    x1="-1.8047081263651412"
    y1="16.535497267605432"
    x2="2.992445194111142"
    y2="30.873084353832304"
    stroke="hsla(0,50%,50%,0.6)"
    stroke-width="1"
    transform="translate(66.4153007276,10.2583063604) scale(1,-1) translate(50,-110)"
    />
  
  <line
    x1="-28.88878685571777"
    y1="-30.53597229074664"
    x2="-1.8047081263651412"
    y2="16.535497267605432"
    stroke="hsla(0,50%,50%,0.6)"
    stroke-width="1"
    transform="translate(66.4153007276,10.2583063604) scale(1,-1) translate(50,-110)"
    />
  
  <line
    x1="2.992445194111142"
    y1="30.873084353832304"
    x2="-105.07810648965166"
    y2="37.562170724974294"
    stroke="hsla(0,50%,50%,0.6)"
    stroke-width="1"
    transform="translate(66.4153007276,10.2583063604) scale(1,-1) translate(50,-110)"
    />
  
  <line
    x1="-83.091689060389"
    y1="-14.66060418999827"
    x2="-68.84214871367693"
    y2="2.5056198989353224"
    stroke="hsla(0,50%,50%,0.6)"
    stroke-width="1"
    transform="translate(66.4153007276,10.2583063604) scale(1,-1) translate(50,-110)"
    />
  
  <line
    x1="-115.5651037515134"
    y1="19.33602475548775"
    x2="-105.07810648965166"
    y2="37.562170724974294"
    stroke="hsla(0,50%,50%,0.6)"
    stroke-width="1"
    transform="translate(66.4153007276,10.2583063604) scale(1,-1) translate(50,-110)"
    />
  
</svg>
