<?xml version="1.0"?>
<!DOCTYPE svg PUBLIC "-//W3C//DTD SVG 1.1//EN"
  "http://www.w3.org/Graphics/SVG/1.1/DTD/svg11.dtd">
<svg
  width="240"
  height="240"
  viewBox="-50 -50 200 200" xmlns="http://www.w3.org/2000/svg" version="1.1">
  <rect
    x="0"
    y="0"
    width="100"
    height="100"
    fill="hsla(206,100%,53%,0.3)"
    stroke="hsl(206,100%,53%)"
    stroke-width="3"
    transform="" />
  
  <path
    d="M 
      29.3859939036
      -53.3701741551
      L
    
      39.9819643584
      -44.7113317530
      L
    
      59.9646366657
      -43.8789811890
      L
    
      59.3403737427
      -28.8919769586
      L
    
      86.4421468808
      -6.7448802465
      L
    
      58.0368358339
      28.0151745775
      L
    
      56.6782196504
      35.0197390474
      L
    
      25.0974967021
      31.3204521178
      L
    
      23.2821351069
      27.2772877152
      L
    
      8.5449119685
      -36.8296329368
      z
    "
    fill="hsla(0,0%,50%,0.3)"
    stroke="hsla(0,0%,50%,1)"
    stroke-width="1"
    transform="translate(-20.7701930670,5.3103051642) scale(1,-1) translate(50,-110)"
    />
  
  
  <line
    x1="21.067487481822123"
    y1="-46.76818493153731"
    x2="27.94467667897912"
    y2="-44.946200535171236"
    stroke="hsla(0,50%,50%,0.6)"
    stroke-width="1"
    transform="translate(-20.7701930670,5.3103051642) scale(1,-1) translate(50,-110)"
    />
  
  <line
    x1="29.385993903621447"
    y1="-53.37017415518757"
    x2="86.44214688080696"
    y2="-6.744880246571904"
    stroke="hsla(0,50%,50%,0.6)"
    stroke-width="1"
    transform="translate(-20.7701930670,5.3103051642) scale(1,-1) translate(50,-110)"
    />
  
  <line
    x1="19.548284659330665"
    y1="-45.562468405750444"
    x2="59.96463666570976"
    y2="-43.87898118909404"
    stroke="hsla(0,50%,50%,0.6)"
    stroke-width="1"
    transform="translate(-20.7701930670,5.3103051642) scale(1,-1) translate(50,-110)"
    />
  
  <line
    x1="8.544911968536507"
    y1="-36.82963293686619"
    x2="32.01291809371515"
    y2="-25.34704048122786"
    stroke="hsla(0,50%,50%,0.6)"
    stroke-width="1"
    transform="translate(-20.7701930670,5.3103051642) scale(1,-1) translate(50,-110)"
    />
  
  <line
    x1="29.385993903621447"
    y1="-53.37017415518757"
    x2="40.97570860057472"
    y2="-29.74362836013973"
    stroke="hsla(0,50%,50%,0.6)"
    stroke-width="1"
    transform="translate(-20.7701930670,5.3103051642) scale(1,-1) translate(50,-110)"
    />
  
  <line
    x1="29.385993903621447"
    y1="-53.37017415518757"
    x2="8.544911968536507"
    y2="-36.82963293686619"
    stroke="hsla(0,50%,50%,0.6)"
    stroke-width="1"
    transform="translate(-20.7701930670,5.3103051642) scale(1,-1) translate(50,-110)"
    />
  
  <line
    x1="41.04906512736855"
    y1="10.563433304053206"
    x2="52.69418998619651"
    y2="34.55305977328816"
    stroke="hsla(0,50%,50%,0.6)"
    stroke-width="1"
    transform="translate(-20.7701930670,5.3103051642) scale(1,-1) translate(50,-110)"
    />
  
  <line
    x1="40.97570860057472"
    y1="-29.74362836013973"
    x2="32.01291809371515"
    y2="-25.34704048122786"
    stroke="hsla(0,50%,50%,0.6)"
    stroke-width="1"
    transform="translate(-20.7701930670,5.3103051642) scale(1,-1) translate(50,-110)"
    />
  
  <line
    x1="27.94467667897912"
    y1="-44.946200535171236"
    x2="32.01291809371515"
    y2="-25.34704048122786"
    stroke="hsla(0,50%,50%,0.6)"
    stroke-width="1"
    transform="translate(-20.7701930670,5.3103051642) scale(1,-1) translate(50,-110)"
    />
  
  <line
    x1="27.94467667897912"
    y1="-44.946200535171236"
    x2="17.09805689816216"
    y2="-32.64468953276807"
    stroke="hsla(0,50%,50%,0.6)"
    stroke-width="1"
    transform="translate(-20.7701930670,5.3103051642) scale(1,-1) translate(50,-110)"
    />
  
  <line
    x1="23.282135106952627"
    y1="27.27728771524392"
    x2="25.097496702159894"
    y2="31.320452117810174"
    stroke="hsla(0,50%,50%,0.6)"
    stroke-width="1"
    transform="translate(-20.7701930670,5.3103051642) scale(1,-1) translate(50,-110)"
    />
  
  <line
    x1="8.544911968536507"
    y1="-36.82963293686619"
    x2="23.282135106952627"
    y2="27.27728771524392"
    stroke="hsla(0,50%,50%,0.6)"
    stroke-width="1"
    transform="translate(-20.7701930670,5.3103051642) scale(1,-1) translate(50,-110)"
    />
  
  <line
    x1="21.067487481822123"
    y1="-46.76818493153731"
    x2="23.282135106952627"
    y2="27.27728771524392"
    stroke="hsla(0,50%,50%,0.6)"
    stroke-width="1"
    transform="translate(-20.7701930670,5.3103051642) scale(1,-1) translate(50,-110)"
    />
  
  <line
    x1="19.548284659330665"
    y1="-45.562468405750444"
    x2="17.09805689816216"
    y2="-32.64468953276807"
    stroke="hsla(0,50%,50%,0.6)"
    stroke-width="1"
    transform="translate(-20.7701930670,5.3103051642) scale(1,-1) translate(50,-110)"
    />
  
  <line
    x1="59.96463666570976"
    y1="-43.87898118909404"
    x2="56.678219650441235"
    y2="35.01973904749449"
    stroke="hsla(0,50%,50%,0.6)"
    stroke-width="1"
    transform="translate(-20.7701930670,5.3103051642) scale(1,-1) translate(50,-110)"
    />
  
  <line
    x1="41.04906512736855"
    y1="10.563433304053206"
    x2="60.683147195382105"
    y2="14.37169029991216"
    stroke="hsla(0,50%,50%,0.6)"
    stroke-width="1"
    transform="translate(-20.7701930670,5.3103051642) scale(1,-1) translate(50,-110)"
    />
  
  <line
    x1="60.683147195382105"
    y1="14.37169029991216"
    x2="56.678219650441235"
    y2="35.01973904749449"
    stroke="hsla(0,50%,50%,0.6)"
    stroke-width="1"
    transform="translate(-20.7701930670,5.3103051642) scale(1,-1) translate(50,-110)"
    />
  
  <line
    x1="41.04906512736855"
    y1="10.563433304053206"
    x2="25.097496702159894"
    y2="31.320452117810174"
    stroke="hsla(0,50%,50%,0.6)"
    stroke-width="1"
    transform="translate(-20.7701930670,5.3103051642) scale(1,-1) translate(50,-110)"
    />
  
  <line
    x1="25.097496702159894"
    y1="31.320452117810174"
    x2="56.678219650441235"
    y2="35.01973904749449"
    stroke="hsla(0,50%,50%,0.6)"
    stroke-width="1"
    transform="translate(-20.7701930670,5.3103051642) scale(1,-1) translate(50,-110)"
    />
  
  <line
    x1="86.44214688080696"
    y1="-6.744880246571904"
    x2="52.69418998619651"
    y2="34.55305977328816"
    stroke="hsla(0,50%,50%,0.6)"
    stroke-width="1"
    transform="translate(-20.7701930670,5.3103051642) scale(1,-1) translate(50,-110)"
    />
  
</svg>
