<?xml version="1.0"?>
<!DOCTYPE svg PUBLIC "-//W3C//DTD SVG 1.1//EN"
  "http://www.w3.org/Graphics/SVG/1.1/DTD/svg11.dtd">
<svg
  width="240"
  height="240"
  viewBox="-50 -50 200 200" xmlns="http://www.w3.org/2000/svg" version="1.1">
  <rect
    x="0"
    y="0"
    width="100"
    height="100"
    fill="hsla(206,100%,53%,0.3)"
    stroke="hsl(206,100%,53%)"
    stroke-width="3"
    transform="" />
  
  <path
    d="M 
      119.0172619825
      14.5449177414
      L
    
      132.7081903327
      31.4685535884
      L
    
      100
      57.9289131920
      L
    
      52.7264066000
      35.3665163420
      L
    
      2.6863299374
      41.2369580907
      L
    
      1.9948186604
      36.6745464382
      L
    
      2.2894896517
      36.4747958778
      L
    
      2.2223523985
      35.6691355107
      L
    
      3.6539878355
      35.5498345314
      L
    
      24.0879225784
      21.6981489681
      z
    "
    fill="hsla(0,0%,50%,0.3)"
    stroke="hsla(0,0%,50%,1)"
    stroke-width="1"
    transform="translate(-14.7768587151,-28.8577126317) scale(1,-1) translate(50,-110)"
    />
  
  
  <line
    x1="119.01726198256364"
    y1="14.544917741456096"
    x2="132.70819033279454"
    y2="31.468553588430478"
    stroke="hsla(0,50%,50%,0.6)"
    stroke-width="1"
    transform="translate(-14.7768587151,-28.8577126317) scale(1,-1) translate(50,-110)"
    />
  
  <line
    x1="107.8317659872133"
    y1="15.38778086198485"
    x2="115.27368585936503"
    y2="20.937517706340913"
    stroke="hsla(0,50%,50%,0.6)"
    stroke-width="1"
    transform="translate(-14.7768587151,-28.8577126317) scale(1,-1) translate(50,-110)"
    />
  
  <line
    x1="100"
    y1="15.977929633391819"
    x2="102.06144174345654"
    y2="29.57878640052441"
    stroke="hsla(0,50%,50%,0.6)"
    stroke-width="1"
    transform="translate(-14.7768587151,-28.8577126317) scale(1,-1) translate(50,-110)"
    />
  
  <line
    x1="101.8769395930337"
    y1="27.364723966497753"
    x2="102.06144174345654"
    y2="29.57878640052441"
    stroke="hsla(0,50%,50%,0.6)"
    stroke-width="1"
    transform="translate(-14.7768587151,-28.8577126317) scale(1,-1) translate(50,-110)"
    />
  
  <line
    x1="26.49252725269344"
    y1="21.51695426741178"
    x2="29.09195389940015"
    y2="24.08643664405752"
    stroke="hsla(0,50%,50%,0.6)"
    stroke-width="1"
    transform="translate(-14.7768587151,-28.8577126317) scale(1,-1) translate(50,-110)"
    />
  
  <line
    x1="100"
    y1="15.977929633391819"
    x2="100"
    y2="57.928913192071086"
    stroke="hsla(0,50%,50%,0.6)"
    stroke-width="1"
    transform="translate(-14.7768587151,-28.8577126317) scale(1,-1) translate(50,-110)"
    />
  
  <line
    x1="2.22235239854845"
    y1="35.66913551077572"
    x2="2.686329937480647"
    y2="41.236958090770635"
    stroke="hsla(0,50%,50%,0.6)"
    stroke-width="1"
    transform="translate(-14.7768587151,-28.8577126317) scale(1,-1) translate(50,-110)"
    />
  
  <line
    x1="1.9948186604794416"
    y1="36.674546438244285"
    x2="2.686329937480647"
    y2="41.236958090770635"
    stroke="hsla(0,50%,50%,0.6)"
    stroke-width="1"
    transform="translate(-14.7768587151,-28.8577126317) scale(1,-1) translate(50,-110)"
    />
  
  <line
    x1="24.087922578432273"
    y1="21.698148968141034"
    x2="100"
    y2="57.928913192071086"
    stroke="hsla(0,50%,50%,0.6)"
    stroke-width="1"
    transform="translate(-14.7768587151,-28.8577126317) scale(1,-1) translate(50,-110)"
    />
  
  <line
    x1="78.66889632107024"
    y1="29.612040133779264"
    x2="76.74962771183297"
    y2="46.832144599991366"
    stroke="hsla(0,50%,50%,0.6)"
    stroke-width="1"
    transform="translate(-14.7768587151,-28.8577126317) scale(1,-1) translate(50,-110)"
    />
  
  <line
    x1="10.75900901624995"
    y1="38.4781172176919"
    x2="12.659005718548768"
    y2="40.06701559356017"
    stroke="hsla(0,50%,50%,0.6)"
    stroke-width="1"
    transform="translate(-14.7768587151,-28.8577126317) scale(1,-1) translate(50,-110)"
    />
  
  <line
    x1="26.49252725269344"
    y1="21.51695426741178"
    x2="12.659005718548768"
    y2="40.06701559356017"
    stroke="hsla(0,50%,50%,0.6)"
    stroke-width="1"
    transform="translate(-14.7768587151,-28.8577126317) scale(1,-1) translate(50,-110)"
    />
  
  <line
    x1="29.09195389940015"
    y1="24.08643664405752"
    x2="78.66889632107024"
    y2="29.612040133779264"
    stroke="hsla(0,50%,50%,0.6)"
    stroke-width="1"
    transform="translate(-14.7768587151,-28.8577126317) scale(1,-1) translate(50,-110)"
    />
  
  <line
    x1="119.01726198256364"
    y1="14.544917741456096"
    x2="24.087922578432273"
    y2="21.698148968141034"
    stroke="hsla(0,50%,50%,0.6)"
    stroke-width="1"
    transform="translate(-14.7768587151,-28.8577126317) scale(1,-1) translate(50,-110)"
    />
  
  <line
    x1="10.75900901624995"
    y1="38.4781172176919"
    x2="8.600831556558225"
    y2="0"
    stroke="hsla(0,50%,50%,0.6)"
    stroke-width="1"
    transform="translate(-14.7768587151,-28.8577126317) scale(1,-1) translate(50,-110)"
    />
  
  <line
    x1="24.087922578432273"
    y1="21.698148968141034"
    x2="1.9948186604794416"
    y2="36.674546438244285"
    stroke="hsla(0,50%,50%,0.6)"
    stroke-width="1"
    transform="translate(-14.7768587151,-28.8577126317) scale(1,-1) translate(50,-110)"
    />
  
  <line
    x1="1.9948186604794416"
    y1="36.674546438244285"
    x2="8.600831556558225"
    y2="0"
    stroke="hsla(0,50%,50%,0.6)"
    stroke-width="1"
    transform="translate(-14.7768587151,-28.8577126317) scale(1,-1) translate(50,-110)"
    />
  
  <line
    x1="101.8769395930337"
    y1="27.364723966497753"
    x2="2.22235239854845"
    y2="35.66913551077572"
    stroke="hsla(0,50%,50%,0.6)"
    stroke-width="1"
    transform="translate(-14.7768587151,-28.8577126317) scale(1,-1) translate(50,-110)"
    />
  
  <line
    x1="32.36198474356538"
    y1="37.755564485646545"
    x2="10.75900901624995"
    y2="38.4781172176919"
    stroke="hsla(0,50%,50%,0.6)"
    stroke-width="1"
    transform="translate(-14.7768587151,-28.8577126317) scale(1,-1) translate(50,-110)"
    />
  
  <line
    x1="102.06144174345654"
    y1="29.57878640052441"
    x2="2.686329937480647"
    y2="41.236958090770635"
    stroke="hsla(0,50%,50%,0.6)"
    stroke-width="1"
    transform="translate(-14.7768587151,-28.8577126317) scale(1,-1) translate(50,-110)"
    />
  
  <line
    x1="115.27368585936503"
    y1="20.937517706340913"
    x2="32.36198474356538"
    y2="37.755564485646545"
    stroke="hsla(0,50%,50%,0.6)"
    stroke-width="1"
    transform="translate(-14.7768587151,-28.8577126317) scale(1,-1) translate(50,-110)"
    />
  
  <line
    x1="119.01726198256364"
    y1="14.544917741456096"
    x2="115.27368585936503"
    y2="20.937517706340913"
    stroke="hsla(0,50%,50%,0.6)"
    stroke-width="1"
    transform="translate(-14.7768587151,-28.8577126317) scale(1,-1) translate(50,-110)"
    />
  
  <line
    x1="107.8317659872133"
    y1="15.38778086198485"
    x2="76.74962771183297"
    y2="46.832144599991366"
    stroke="hsla(0,50%,50%,0.6)"
    stroke-width="1"
    transform="translate(-14.7768587151,-28.8577126317) scale(1,-1) translate(50,-110)"
    />
  
  <line
    x1="132.70819033279454"
    y1="31.468553588430478"
    x2="100"
    y2="57.928913192071086"
    stroke="hsla(0,50%,50%,0.6)"
    stroke-width="1"
    transform="translate(-14.7768587151,-28.8577126317) scale(1,-1) translate(50,-110)"
    />
  
</svg>
