<?xml version="1.0"?>
<!DOCTYPE svg PUBLIC "-//W3C//DTD SVG 1.1//EN"
  "http://www.w3.org/Graphics/SVG/1.1/DTD/svg11.dtd">
<svg
  width="240"
  height="240"
  viewBox="-500 -500 1000 1000" xmlns="http://www.w3.org/2000/svg" version="1.1">
  <rect
    x="0"
    y="0"
    width="100"
    height="100"
    fill="hsla(206,100%,53%,0.3)"
    stroke="hsl(206,100%,53%)"
    stroke-width="3"
    transform="" />
  
  <path
    d="M 
      52428900
      -0.0000476837
      L
    
      52429000
      -0.0000476837
      L
    
      52429000
      33.3332856495
      L
    
      52428933.3333333333
      99.9999523162
      L
    
      52428900
      99.9999523162
      z
    "
    fill="hsla(0,0%,50%,0.3)"
    stroke="hsla(0,0%,50%,1)"
    stroke-width="1"
    transform="translate(-52428950,-49.9999523162)"
    />
  
  
  <line
    x1="52428900"
    y1="-0.00004768378403251271"
    x2="52429000"
    y2="-0.00004768378403251271"
    stroke="hsla(0,50%,50%,0.6)"
    stroke-width="1"
    transform="translate(-52428950,-49.9999523162)"
    />
  
  <line
    x1="52428900"
    y1="-0.00004768378403251271"
    x2="52428900"
    y2="99.99995231621597"
    stroke="hsla(0,50%,50%,0.6)"
    stroke-width="1"
    transform="translate(-52428950,-49.9999523162)"
    />
  
  <line
    x1="52428933.333333336"
    y1="33.3332856495493"
    x2="52428933.333333336"
    y2="99.99995231621597"
    stroke="hsla(0,50%,50%,0.6)"
    stroke-width="1"
    transform="translate(-52428950,-49.9999523162)"
    />
  
  <line
    x1="52429000"
    y1="-0.00004768378403251271"
    x2="52429000"
    y2="33.3332856495493"
    stroke="hsla(0,50%,50%,0.6)"
    stroke-width="1"
    transform="translate(-52428950,-49.9999523162)"
    />
  
  <line
    x1="52428933.333333336"
    y1="33.3332856495493"
    x2="52429000"
    y2="33.3332856495493"
    stroke="hsla(0,50%,50%,0.6)"
    stroke-width="1"
    transform="translate(-52428950,-49.9999523162)"
    />
  
  <line
    x1="52428900"
    y1="99.99995231621597"
    x2="52428933.333333336"
    y2="99.99995231621597"
    stroke="hsla(0,50%,50%,0.6)"
    stroke-width="1"
    transform="translate(-52428950,-49.9999523162)"
    />
  
  <line
    x1="52429000"
    y1="33.3332856495493"
    x2="52428933.333333336"
    y2="99.99995231621597"
    stroke="hsla(0,50%,50%,0.6)"
    stroke-width="1"
    transform="translate(-52428950,-49.9999523162)"
    />
  
</svg>
