<?xml version="1.0"?>
<!DOCTYPE svg PUBLIC "-//W3C//DTD SVG 1.1//EN"
  "http://www.w3.org/Graphics/SVG/1.1/DTD/svg11.dtd">
<svg
  width="240"
  height="240"
  viewBox="-50 -50 200 200" xmlns="http://www.w3.org/2000/svg" version="1.1">
  <rect
    x="0"
    y="0"
    width="100"
    height="100"
    fill="hsla(206,100%,53%,0.3)"
    stroke="hsl(206,100%,53%)"
    stroke-width="3"
    transform="" />
  
  <path
    d="M 
      49344858.8235294117
      1750
      L
    
      49344882.3529411764
      1794.1176470588
      L
    
      49344794.1176470588
      1841.1764705882
      L
    
      49344772.1568627450
      1800
      L
    
      49344758.8235294117
      1800
      L
    
      49344758.8235294117
      1775
      z
    "
    fill="hsla(0,0%,50%,0.3)"
    stroke="hsla(0,0%,50%,1)"
    stroke-width="1"
    transform="translate(-49344769.6813725490,-1788.3272058823) scale(1,-1) translate(50,-110)"
    />
  
  
  <line
    x1="49344858.823529415"
    y1="1750"
    x2="49344882.35294118"
    y2="1794.1176470588234"
    stroke="hsla(0,50%,50%,0.6)"
    stroke-width="1"
    transform="translate(-49344769.6813725490,-1788.3272058823) scale(1,-1) translate(50,-110)"
    />
  
  <line
    x1="49344758.823529415"
    y1="1775"
    x2="49344794.11764706"
    y2="1841.1764705882354"
    stroke="hsla(0,50%,50%,0.6)"
    stroke-width="1"
    transform="translate(-49344769.6813725490,-1788.3272058823) scale(1,-1) translate(50,-110)"
    />
  
  <line
    x1="49344758.823529415"
    y1="1775"
    x2="49344758.823529415"
    y2="1800"
    stroke="hsla(0,50%,50%,0.6)"
    stroke-width="1"
    transform="translate(-49344769.6813725490,-1788.3272058823) scale(1,-1) translate(50,-110)"
    />
  
  <line
    x1="49344858.823529415"
    y1="1750"
    x2="49344858.823529415"
    y2="1800"
    stroke="hsla(0,50%,50%,0.6)"
    stroke-width="1"
    transform="translate(-49344769.6813725490,-1788.3272058823) scale(1,-1) translate(50,-110)"
    />
  
  <line
    x1="49344758.823529415"
    y1="1800"
    x2="49344858.823529415"
    y2="1800"
    stroke="hsla(0,50%,50%,0.6)"
    stroke-width="1"
    transform="translate(-49344769.6813725490,-1788.3272058823) scale(1,-1) translate(50,-110)"
    />
  
  <line
    x1="49344858.823529415"
    y1="1750"
    x2="49344758.823529415"
    y2="1775"
    stroke="hsla(0,50%,50%,0.6)"
    stroke-width="1"
    transform="translate(-49344769.6813725490,-1788.3272058823) scale(1,-1) translate(50,-110)"
    />
  
  <line
    x1="49344882.35294118"
    y1="1794.1176470588234"
    x2="49344794.11764706"
    y2="1841.1764705882354"
    stroke="hsla(0,50%,50%,0.6)"
    stroke-width="1"
    transform="translate(-49344769.6813725490,-1788.3272058823) scale(1,-1) translate(50,-110)"
    />
  
</svg>
