<?xml version="1.0"?>
<!DOCTYPE svg PUBLIC "-//W3C//DTD SVG 1.1//EN"
  "http://www.w3.org/Graphics/SVG/1.1/DTD/svg11.dtd">
<svg
  width="240"
  height="240"
  viewBox="-500 -500 1000 1000" xmlns="http://www.w3.org/2000/svg" version="1.1">
  <rect
    x="0"
    y="0"
    width="100"
    height="100"
    fill="hsla(206,100%,53%,0.3)"
    stroke="hsl(206,100%,53%)"
    stroke-width="3"
    transform="" />
  
  <path
    d="M 
      31.2888888888
      -5.6888888888
      L
    
      33.4283000949
      0
      L
    
      54.2857142857
      0
      L
    
      57.3292413641
      5.3261723873
      L
    
      63.1942323683
      2.9687632749
      L
    
      88.0929212085
      38.4594680401
      L
    
      102.9891116501
      39.9460295739
      L
    
      101.0030816677
      59.8471774028
      L
    
      98.2826666339
      63.6689782169
      L
    
      19.8677380202
      20.3836702226
      L
    
      16.1616161616
      0
      z
    "
    fill="hsla(0,0%,50%,0.3)"
    stroke="hsla(0,0%,50%,1)"
    stroke-width="1"
    transform="translate(-59.5753639058,-28.9900446640)"
    />
  
  
  <line
    x1="63.19423236831725"
    y1="2.9687632749019652"
    x2="101.05285234422627"
    y2="56.932613058658376"
    stroke="hsla(0,50%,50%,0.6)"
    stroke-width="1"
    transform="translate(-59.5753639058,-28.9900446640)"
    />
  
  <line
    x1="54.285714285714285"
    y1="0"
    x2="87.15935584629203"
    y2="57.528872731011056"
    stroke="hsla(0,50%,50%,0.6)"
    stroke-width="1"
    transform="translate(-59.5753639058,-28.9900446640)"
    />
  
  <line
    x1="93.70286456958604"
    y1="46.455906923159375"
    x2="95.75469318476738"
    y2="62.27352825246271"
    stroke="hsla(0,50%,50%,0.6)"
    stroke-width="1"
    transform="translate(-59.5753639058,-28.9900446640)"
    />
  
  <line
    x1="31.288888888888888"
    y1="-5.688888888888889"
    x2="46.65468331018028"
    y2="35.17015536772686"
    stroke="hsla(0,50%,50%,0.6)"
    stroke-width="1"
    transform="translate(-59.5753639058,-28.9900446640)"
    />
  
  <line
    x1="40.384100541615396"
    y1="28.48597512195303"
    x2="44.783852876703"
    y2="34.13745058880398"
    stroke="hsla(0,50%,50%,0.6)"
    stroke-width="1"
    transform="translate(-59.5753639058,-28.9900446640)"
    />
  
  <line
    x1="16.161616161616163"
    y1="0"
    x2="19.8677380202737"
    y2="20.38367022261645"
    stroke="hsla(0,50%,50%,0.6)"
    stroke-width="1"
    transform="translate(-59.5753639058,-28.9900446640)"
    />
  
  <line
    x1="41.91929098816975"
    y1="19.742765871268126"
    x2="93.70286456958604"
    y2="46.455906923159375"
    stroke="hsla(0,50%,50%,0.6)"
    stroke-width="1"
    transform="translate(-59.5753639058,-28.9900446640)"
    />
  
  <line
    x1="16.161616161616163"
    y1="0"
    x2="54.285714285714285"
    y2="0"
    stroke="hsla(0,50%,50%,0.6)"
    stroke-width="1"
    transform="translate(-59.5753639058,-28.9900446640)"
    />
  
  <line
    x1="40.384100541615396"
    y1="28.48597512195303"
    x2="69.67012009846526"
    y2="46.424774998689294"
    stroke="hsla(0,50%,50%,0.6)"
    stroke-width="1"
    transform="translate(-59.5753639058,-28.9900446640)"
    />
  
  <line
    x1="31.288888888888888"
    y1="-5.688888888888889"
    x2="16.161616161616163"
    y2="0"
    stroke="hsla(0,50%,50%,0.6)"
    stroke-width="1"
    transform="translate(-59.5753639058,-28.9900446640)"
    />
  
  <line
    x1="19.8677380202737"
    y1="20.38367022261645"
    x2="98.28266663393158"
    y2="63.66897821694167"
    stroke="hsla(0,50%,50%,0.6)"
    stroke-width="1"
    transform="translate(-59.5753639058,-28.9900446640)"
    />
  
  <line
    x1="102.98911165016511"
    y1="39.946029573955315"
    x2="101.00308166772976"
    y2="59.84717740288387"
    stroke="hsla(0,50%,50%,0.6)"
    stroke-width="1"
    transform="translate(-59.5753639058,-28.9900446640)"
    />
  
  <line
    x1="41.91929098816975"
    y1="19.742765871268126"
    x2="36.77438417447419"
    y2="29.716196552407432"
    stroke="hsla(0,50%,50%,0.6)"
    stroke-width="1"
    transform="translate(-59.5753639058,-28.9900446640)"
    />
  
  <line
    x1="54.285714285714285"
    y1="0"
    x2="36.77438417447419"
    y2="29.716196552407432"
    stroke="hsla(0,50%,50%,0.6)"
    stroke-width="1"
    transform="translate(-59.5753639058,-28.9900446640)"
    />
  
  <line
    x1="63.19423236831725"
    y1="2.9687632749019652"
    x2="19.8677380202737"
    y2="20.38367022261645"
    stroke="hsla(0,50%,50%,0.6)"
    stroke-width="1"
    transform="translate(-59.5753639058,-28.9900446640)"
    />
  
  <line
    x1="44.783852876703"
    y1="34.13745058880398"
    x2="102.98911165016511"
    y2="39.946029573955315"
    stroke="hsla(0,50%,50%,0.6)"
    stroke-width="1"
    transform="translate(-59.5753639058,-28.9900446640)"
    />
  
  <line
    x1="63.19423236831725"
    y1="2.9687632749019652"
    x2="40.384100541615396"
    y2="28.48597512195303"
    stroke="hsla(0,50%,50%,0.6)"
    stroke-width="1"
    transform="translate(-59.5753639058,-28.9900446640)"
    />
  
  <line
    x1="80.86231775557862"
    y1="28.15293286194623"
    x2="46.65468331018028"
    y2="35.17015536772686"
    stroke="hsla(0,50%,50%,0.6)"
    stroke-width="1"
    transform="translate(-59.5753639058,-28.9900446640)"
    />
  
  <line
    x1="80.86231775557862"
    y1="28.15293286194623"
    x2="69.67012009846526"
    y2="46.424774998689294"
    stroke="hsla(0,50%,50%,0.6)"
    stroke-width="1"
    transform="translate(-59.5753639058,-28.9900446640)"
    />
  
  <line
    x1="101.05285234422627"
    y1="56.932613058658376"
    x2="98.28266663393158"
    y2="63.66897821694167"
    stroke="hsla(0,50%,50%,0.6)"
    stroke-width="1"
    transform="translate(-59.5753639058,-28.9900446640)"
    />
  
  <line
    x1="101.05285234422627"
    y1="56.932613058658376"
    x2="87.15935584629203"
    y2="57.528872731011056"
    stroke="hsla(0,50%,50%,0.6)"
    stroke-width="1"
    transform="translate(-59.5753639058,-28.9900446640)"
    />
  
  <line
    x1="101.00308166772976"
    y1="59.84717740288387"
    x2="98.28266663393158"
    y2="63.66897821694167"
    stroke="hsla(0,50%,50%,0.6)"
    stroke-width="1"
    transform="translate(-59.5753639058,-28.9900446640)"
    />
  
  <line
    x1="101.00308166772976"
    y1="59.84717740288387"
    x2="95.75469318476738"
    y2="62.27352825246271"
    stroke="hsla(0,50%,50%,0.6)"
    stroke-width="1"
    transform="translate(-59.5753639058,-28.9900446640)"
    />
  
</svg>
