<?xml version="1.0"?>
<!DOCTYPE svg PUBLIC "-//W3C//DTD SVG 1.1//EN"
  "http://www.w3.org/Graphics/SVG/1.1/DTD/svg11.dtd">
<svg
  width="240"
  height="240"
  viewBox="-500 -500 1000 1000" xmlns="http://www.w3.org/2000/svg" version="1.1">
  <rect
    x="0"
    y="0"
    width="100"
    height="100"
    fill="hsla(206,100%,53%,0.3)"
    stroke="hsl(206,100%,53%)"
    stroke-width="3"
    transform="" />
  
  <path
    d="M 
      0
      31.25
      L
    
      81.25
      31.25
      L
    
      100
      50
      L
    
      100
      75
      L
    
      25
      75
      L
    
      12.5
      62.5
      L
    
      0
      62.5
      z
    "
    fill="hsla(0,0%,50%,0.3)"
    stroke="hsla(0,0%,50%,1)"
    stroke-width="1"
    transform="translate(-50,-53.125)"
    />
  
  
  <line
    x1="81.25"
    y1="31.25"
    x2="100"
    y2="50"
    stroke="hsla(0,50%,50%,0.6)"
    stroke-width="1"
    transform="translate(-50,-53.125)"
    />
  
  <line
    x1="0"
    y1="31.25"
    x2="0"
    y2="62.5"
    stroke="hsla(0,50%,50%,0.6)"
    stroke-width="1"
    transform="translate(-50,-53.125)"
    />
  
  <line
    x1="50"
    y1="31.25"
    x2="50"
    y2="75"
    stroke="hsla(0,50%,50%,0.6)"
    stroke-width="1"
    transform="translate(-50,-53.125)"
    />
  
  <line
    x1="100"
    y1="50"
    x2="100"
    y2="75"
    stroke="hsla(0,50%,50%,0.6)"
    stroke-width="1"
    transform="translate(-50,-53.125)"
    />
  
  <line
    x1="0"
    y1="50"
    x2="25"
    y2="75"
    stroke="hsla(0,50%,50%,0.6)"
    stroke-width="1"
    transform="translate(-50,-53.125)"
    />
  
  <line
    x1="0"
    y1="31.25"
    x2="81.25"
    y2="31.25"
    stroke="hsla(0,50%,50%,0.6)"
    stroke-width="1"
    transform="translate(-50,-53.125)"
    />
  
  <line
    x1="0"
    y1="50"
    x2="100"
    y2="50"
    stroke="hsla(0,50%,50%,0.6)"
    stroke-width="1"
    transform="translate(-50,-53.125)"
    />
  
  <line
    x1="50"
    y1="50"
    x2="25"
    y2="75"
    stroke="hsla(0,50%,50%,0.6)"
    stroke-width="1"
    transform="translate(-50,-53.125)"
    />
  
  <line
    x1="81.25"
    y1="31.25"
    x2="50"
    y2="62.5"
    stroke="hsla(0,50%,50%,0.6)"
    stroke-width="1"
    transform="translate(-50,-53.125)"
    />
  
  <line
    x1="0"
    y1="62.5"
    x2="50"
    y2="62.5"
    stroke="hsla(0,50%,50%,0.6)"
    stroke-width="1"
    transform="translate(-50,-53.125)"
    />
  
  <line
    x1="25"
    y1="75"
    x2="100"
    y2="75"
    stroke="hsla(0,50%,50%,0.6)"
    stroke-width="1"
    transform="translate(-50,-53.125)"
    />
  
</svg>
