<?xml version="1.0"?>
<!DOCTYPE svg PUBLIC "-//W3C//DTD SVG 1.1//EN"
  "http://www.w3.org/Graphics/SVG/1.1/DTD/svg11.dtd">
<svg
  width="240"
  height="240"
  viewBox="-500 -500 1000 1000" xmlns="http://www.w3.org/2000/svg" version="1.1">
  <rect
    x="0"
    y="0"
    width="100"
    height="100"
    fill="hsla(206,100%,53%,0.3)"
    stroke="hsl(206,100%,53%)"
    stroke-width="3"
    transform="" />
  
  <path
    d="M 
      25.1030168822
      5.9607109020
      L
    
      44.0013677843
      29.5836495297
      L
    
      57.2044334975
      100
      L
    
      33.7108733367
      109.1311003054
      L
    
      18.6325842767
      110.4341623229
      L
    
      16.3832541639
      106.0759651445
      L
    
      16.4656069995
      105.6660964559
      L
    
      19.9114367145
      106.3584495338
      L
    
      21.9065524422
      100
      L
    
      0
      100
      L
    
      0
      30.3030303030
      L
    
      17.2882476471
      13.5386689481
      L
    
      17.9383514152
      10.6493188677
      z
    "
    fill="hsla(0,0%,50%,0.3)"
    stroke="hsla(0,0%,50%,1)"
    stroke-width="1"
    transform="translate(-28.6022167487,-58.1974366125)"
    />
  
  
  <line
    x1="25.103016882212607"
    y1="5.9607109020968645"
    x2="44.00136778437424"
    y2="29.583649529798905"
    stroke="hsla(0,50%,50%,0.6)"
    stroke-width="1"
    transform="translate(-28.6022167487,-58.1974366125)"
    />
  
  <line
    x1="44.00136778437424"
    y1="29.583649529798905"
    x2="57.20443349753695"
    y2="100"
    stroke="hsla(0,50%,50%,0.6)"
    stroke-width="1"
    transform="translate(-28.6022167487,-58.1974366125)"
    />
  
  <line
    x1="0"
    y1="30.303030303030305"
    x2="0"
    y2="100"
    stroke="hsla(0,50%,50%,0.6)"
    stroke-width="1"
    transform="translate(-28.6022167487,-58.1974366125)"
    />
  
  <line
    x1="30.845628137715025"
    y1="13.138974971474886"
    x2="30.28868906767629"
    y2="31.235210601041175"
    stroke="hsla(0,50%,50%,0.6)"
    stroke-width="1"
    transform="translate(-28.6022167487,-58.1974366125)"
    />
  
  <line
    x1="17.93835141528673"
    y1="10.649318867770617"
    x2="2.846888000652582"
    y2="77.72248959947794"
    stroke="hsla(0,50%,50%,0.6)"
    stroke-width="1"
    transform="translate(-28.6022167487,-58.1974366125)"
    />
  
  <line
    x1="17.93835141528673"
    y1="10.649318867770617"
    x2="30.845628137715025"
    y2="13.138974971474886"
    stroke="hsla(0,50%,50%,0.6)"
    stroke-width="1"
    transform="translate(-28.6022167487,-58.1974366125)"
    />
  
  <line
    x1="16.46560699958383"
    y1="105.66609645599455"
    x2="16.383254163982194"
    y2="106.0759651445421"
    stroke="hsla(0,50%,50%,0.6)"
    stroke-width="1"
    transform="translate(-28.6022167487,-58.1974366125)"
    />
  
  <line
    x1="44.00136778437424"
    y1="29.583649529798905"
    x2="18.632584276704872"
    y2="110.43416232294203"
    stroke="hsla(0,50%,50%,0.6)"
    stroke-width="1"
    transform="translate(-28.6022167487,-58.1974366125)"
    />
  
  <line
    x1="25.103016882212607"
    y1="5.9607109020968645"
    x2="0"
    y2="30.303030303030305"
    stroke="hsla(0,50%,50%,0.6)"
    stroke-width="1"
    transform="translate(-28.6022167487,-58.1974366125)"
    />
  
  <line
    x1="16.383254163982194"
    y1="106.0759651445421"
    x2="18.632584276704872"
    y2="110.43416232294203"
    stroke="hsla(0,50%,50%,0.6)"
    stroke-width="1"
    transform="translate(-28.6022167487,-58.1974366125)"
    />
  
  <line
    x1="25.103016882212607"
    y1="5.9607109020968645"
    x2="17.93835141528673"
    y2="10.649318867770617"
    stroke="hsla(0,50%,50%,0.6)"
    stroke-width="1"
    transform="translate(-28.6022167487,-58.1974366125)"
    />
  
  <line
    x1="0"
    y1="30.303030303030305"
    x2="30.28868906767629"
    y2="31.235210601041175"
    stroke="hsla(0,50%,50%,0.6)"
    stroke-width="1"
    transform="translate(-28.6022167487,-58.1974366125)"
    />
  
  <line
    x1="2.846888000652582"
    y1="77.72248959947794"
    x2="55.237634933675984"
    y2="89.5104076594082"
    stroke="hsla(0,50%,50%,0.6)"
    stroke-width="1"
    transform="translate(-28.6022167487,-58.1974366125)"
    />
  
  <line
    x1="16.383254163982194"
    y1="106.0759651445421"
    x2="24.932520156268662"
    y2="109.88972341976985"
    stroke="hsla(0,50%,50%,0.6)"
    stroke-width="1"
    transform="translate(-28.6022167487,-58.1974366125)"
    />
  
  <line
    x1="55.237634933675984"
    y1="89.5104076594082"
    x2="24.932520156268662"
    y2="109.88972341976985"
    stroke="hsla(0,50%,50%,0.6)"
    stroke-width="1"
    transform="translate(-28.6022167487,-58.1974366125)"
    />
  
  <line
    x1="16.46560699958383"
    y1="105.66609645599455"
    x2="33.71087333674938"
    y2="109.13110030540732"
    stroke="hsla(0,50%,50%,0.6)"
    stroke-width="1"
    transform="translate(-28.6022167487,-58.1974366125)"
    />
  
  <line
    x1="0"
    y1="100"
    x2="57.20443349753695"
    y2="100"
    stroke="hsla(0,50%,50%,0.6)"
    stroke-width="1"
    transform="translate(-28.6022167487,-58.1974366125)"
    />
  
  <line
    x1="57.20443349753695"
    y1="100"
    x2="33.71087333674938"
    y2="109.13110030540732"
    stroke="hsla(0,50%,50%,0.6)"
    stroke-width="1"
    transform="translate(-28.6022167487,-58.1974366125)"
    />
  
  <line
    x1="33.71087333674938"
    y1="109.13110030540732"
    x2="18.632584276704872"
    y2="110.43416232294203"
    stroke="hsla(0,50%,50%,0.6)"
    stroke-width="1"
    transform="translate(-28.6022167487,-58.1974366125)"
    />
  
</svg>
