<?xml version="1.0"?>
<!DOCTYPE svg PUBLIC "-//W3C//DTD SVG 1.1//EN"
  "http://www.w3.org/Graphics/SVG/1.1/DTD/svg11.dtd">
<svg
  width="240"
  height="240"
  viewBox="-500 -500 1000 1000" xmlns="http://www.w3.org/2000/svg" version="1.1">
  <rect
    x="0"
    y="0"
    width="100"
    height="100"
    fill="hsla(206,100%,53%,0.3)"
    stroke="hsl(206,100%,53%)"
    stroke-width="3"
    transform="" />
  
  <path
    d="M 
      -65.4427359577
      -15.4730990282
      L
    
      -12.3959768794
      31.8255592210
      L
    
      -11.5992628034
      46.9511763657
      L
    
      -41.6349311908
      56.1519085443
      L
    
      -52.9930053126
      34.3383346753
      L
    
      -103.9697105097
      37.4935659447
      L
    
      -115.6238284906
      15.6049880134
      L
    
      -90.4611032674
      2.2076184176
      L
    
      -85.0591809538
      -11.9027886648
      z
    "
    fill="hsla(0,0%,50%,0.3)"
    stroke="hsla(0,0%,50%,1)"
    stroke-width="1"
    transform="translate(63.6115456470,-20.3394047580)"
    />
  
  
  <line
    x1="-62.380942632161286"
    y1="-12.743078973267744"
    x2="-115.62382849069277"
    y2="15.604988013433559"
    stroke="hsla(0,50%,50%,0.6)"
    stroke-width="1"
    transform="translate(63.6115456470,-20.3394047580)"
    />
  
  <line
    x1="-56.45299185079879"
    y1="-7.457475799792824"
    x2="-70.25321556029968"
    y2="4.785891280843565"
    stroke="hsla(0,50%,50%,0.6)"
    stroke-width="1"
    transform="translate(63.6115456470,-20.3394047580)"
    />
  
  <line
    x1="-85.05918095384939"
    y1="-11.90278866482821"
    x2="-103.96971050974194"
    y2="37.49356594478646"
    stroke="hsla(0,50%,50%,0.6)"
    stroke-width="1"
    transform="translate(63.6115456470,-20.3394047580)"
    />
  
  <line
    x1="-56.45299185079879"
    y1="-7.457475799792824"
    x2="-66.95354899313581"
    y2="7.526628081246702"
    stroke="hsla(0,50%,50%,0.6)"
    stroke-width="1"
    transform="translate(63.6115456470,-20.3394047580)"
    />
  
  <line
    x1="-65.44273595773313"
    y1="-15.473099028266795"
    x2="-85.05918095384939"
    y2="-11.90278866482821"
    stroke="hsla(0,50%,50%,0.6)"
    stroke-width="1"
    transform="translate(63.6115456470,-20.3394047580)"
    />
  
  <line
    x1="-62.380942632161286"
    y1="-12.743078973267744"
    x2="-76.90794905130493"
    y2="24.182848769352635"
    stroke="hsla(0,50%,50%,0.6)"
    stroke-width="1"
    transform="translate(63.6115456470,-20.3394047580)"
    />
  
  <line
    x1="-65.44273595773313"
    y1="-15.473099028266795"
    x2="-66.95354899313581"
    y2="7.526628081246702"
    stroke="hsla(0,50%,50%,0.6)"
    stroke-width="1"
    transform="translate(63.6115456470,-20.3394047580)"
    />
  
  <line
    x1="-12.39597687949778"
    y1="31.825559221057613"
    x2="-11.59926280347561"
    y2="46.95117636577171"
    stroke="hsla(0,50%,50%,0.6)"
    stroke-width="1"
    transform="translate(63.6115456470,-20.3394047580)"
    />
  
  <line
    x1="-42.59784087693076"
    y1="47.77466181683554"
    x2="-41.63493119089507"
    y2="56.15190854433468"
    stroke="hsla(0,50%,50%,0.6)"
    stroke-width="1"
    transform="translate(63.6115456470,-20.3394047580)"
    />
  
  <line
    x1="-65.44273595773313"
    y1="-15.473099028266795"
    x2="-12.39597687949778"
    y2="31.825559221057613"
    stroke="hsla(0,50%,50%,0.6)"
    stroke-width="1"
    transform="translate(63.6115456470,-20.3394047580)"
    />
  
  <line
    x1="-66.95354899313581"
    y1="7.526628081246702"
    x2="-41.63493119089507"
    y2="56.15190854433468"
    stroke="hsla(0,50%,50%,0.6)"
    stroke-width="1"
    transform="translate(63.6115456470,-20.3394047580)"
    />
  
  <line
    x1="-12.39597687949778"
    y1="31.825559221057613"
    x2="-103.96971050974194"
    y2="37.49356594478646"
    stroke="hsla(0,50%,50%,0.6)"
    stroke-width="1"
    transform="translate(63.6115456470,-20.3394047580)"
    />
  
  <line
    x1="-85.05918095384939"
    y1="-11.90278866482821"
    x2="-70.25321556029968"
    y2="4.785891280843565"
    stroke="hsla(0,50%,50%,0.6)"
    stroke-width="1"
    transform="translate(63.6115456470,-20.3394047580)"
    />
  
  <line
    x1="-11.59926280347561"
    y1="46.95117636577171"
    x2="-41.63493119089507"
    y2="56.15190854433468"
    stroke="hsla(0,50%,50%,0.6)"
    stroke-width="1"
    transform="translate(63.6115456470,-20.3394047580)"
    />
  
  <line
    x1="-11.742697686365544"
    y1="44.22806504003473"
    x2="-42.59784087693076"
    y2="47.77466181683554"
    stroke="hsla(0,50%,50%,0.6)"
    stroke-width="1"
    transform="translate(63.6115456470,-20.3394047580)"
    />
  
  <line
    x1="-26.295425861667916"
    y1="44.09429024726789"
    x2="-11.742697686365544"
    y2="44.22806504003473"
    stroke="hsla(0,50%,50%,0.6)"
    stroke-width="1"
    transform="translate(63.6115456470,-20.3394047580)"
    />
  
  <line
    x1="-76.90794905130493"
    y1="24.182848769352635"
    x2="-26.295425861667916"
    y2="44.09429024726789"
    stroke="hsla(0,50%,50%,0.6)"
    stroke-width="1"
    transform="translate(63.6115456470,-20.3394047580)"
    />
  
  <line
    x1="-26.295425861667916"
    y1="44.09429024726789"
    x2="-11.59926280347561"
    y2="46.95117636577171"
    stroke="hsla(0,50%,50%,0.6)"
    stroke-width="1"
    transform="translate(63.6115456470,-20.3394047580)"
    />
  
  <line
    x1="-115.62382849069277"
    y1="15.604988013433559"
    x2="-103.96971050974194"
    y2="37.49356594478646"
    stroke="hsla(0,50%,50%,0.6)"
    stroke-width="1"
    transform="translate(63.6115456470,-20.3394047580)"
    />
  
</svg>
