<?xml version="1.0"?>
<!DOCTYPE svg PUBLIC "-//W3C//DTD SVG 1.1//EN"
  "http://www.w3.org/Graphics/SVG/1.1/DTD/svg11.dtd">
<svg
  width="240"
  height="240"
  viewBox="-500 -500 1000 1000" xmlns="http://www.w3.org/2000/svg" version="1.1">
  <rect
    x="0"
    y="0"
    width="100"
    height="100"
    fill="hsla(206,100%,53%,0.3)"
    stroke="hsl(206,100%,53%)"
    stroke-width="3"
    transform="" />
  
  <path
    d="M 
      50
      12345678901234567890123456789012345678901234567890123456789050
      L
    
      75
      12345678901234567890123456789012345678901234567890123456789075
      L
    
      75
      12345678901234567890123456789012345678901234567890123456789100
      L
    
      100
      12345678901234567890123456789012345678901234567890123456789100
      L
    
      75
      12345678901234567890123456789012345678901234567890123456789125
      L
    
      50
      12345678901234567890123456789012345678901234567890123456789125
      L
    
      50
      12345678901234567890123456789012345678901234567890123456789150
      L
    
      25
      12345678901234567890123456789012345678901234567890123456789125
      L
    
      25
      12345678901234567890123456789012345678901234567890123456789100
      L
    
      0
      12345678901234567890123456789012345678901234567890123456789100
      L
    
      25
      12345678901234567890123456789012345678901234567890123456789075
      L
    
      50
      12345678901234567890123456789012345678901234567890123456789075
      z
    "
    fill="hsla(0,0%,50%,0.3)"
    stroke="hsla(0,0%,50%,1)"
    stroke-width="1"
    transform="translate(-50,-12345678901234567890123456789012345678901234567890123456789100)"
    />
  
  
  <line
    x1="25"
    y1="1.2345678901234567e+61"
    x2="25"
    y2="1.2345678901234567e+61"
    stroke="hsla(0,50%,50%,0.6)"
    stroke-width="1"
    transform="translate(-50,-12345678901234567890123456789012345678901234567890123456789100)"
    />
  
  <line
    x1="50"
    y1="1.2345678901234567e+61"
    x2="50"
    y2="1.2345678901234567e+61"
    stroke="hsla(0,50%,50%,0.6)"
    stroke-width="1"
    transform="translate(-50,-12345678901234567890123456789012345678901234567890123456789100)"
    />
  
  <line
    x1="75"
    y1="1.2345678901234567e+61"
    x2="75"
    y2="1.2345678901234567e+61"
    stroke="hsla(0,50%,50%,0.6)"
    stroke-width="1"
    transform="translate(-50,-12345678901234567890123456789012345678901234567890123456789100)"
    />
  
  <line
    x1="50"
    y1="1.2345678901234567e+61"
    x2="75"
    y2="1.2345678901234567e+61"
    stroke="hsla(0,50%,50%,0.6)"
    stroke-width="1"
    transform="translate(-50,-12345678901234567890123456789012345678901234567890123456789100)"
    />
  
  <line
    x1="25"
    y1="1.2345678901234567e+61"
    x2="75"
    y2="1.2345678901234567e+61"
    stroke="hsla(0,50%,50%,0.6)"
    stroke-width="1"
    transform="translate(-50,-12345678901234567890123456789012345678901234567890123456789100)"
    />
  
  <line
    x1="25"
    y1="1.2345678901234567e+61"
    x2="50"
    y2="1.2345678901234567e+61"
    stroke="hsla(0,50%,50%,0.6)"
    stroke-width="1"
    transform="translate(-50,-12345678901234567890123456789012345678901234567890123456789100)"
    />
  
  <line
    x1="25"
    y1="1.2345678901234567e+61"
    x2="0"
    y2="1.2345678901234567e+61"
    stroke="hsla(0,50%,50%,0.6)"
    stroke-width="1"
    transform="translate(-50,-12345678901234567890123456789012345678901234567890123456789100)"
    />
  
  <line
    x1="75"
    y1="1.2345678901234567e+61"
    x2="25"
    y2="1.2345678901234567e+61"
    stroke="hsla(0,50%,50%,0.6)"
    stroke-width="1"
    transform="translate(-50,-12345678901234567890123456789012345678901234567890123456789100)"
    />
  
  <line
    x1="100"
    y1="1.2345678901234567e+61"
    x2="75"
    y2="1.2345678901234567e+61"
    stroke="hsla(0,50%,50%,0.6)"
    stroke-width="1"
    transform="translate(-50,-12345678901234567890123456789012345678901234567890123456789100)"
    />
  
  <line
    x1="25"
    y1="1.2345678901234567e+61"
    x2="75"
    y2="1.2345678901234567e+61"
    stroke="hsla(0,50%,50%,0.6)"
    stroke-width="1"
    transform="translate(-50,-12345678901234567890123456789012345678901234567890123456789100)"
    />
  
  <line
    x1="0"
    y1="1.2345678901234567e+61"
    x2="100"
    y2="1.2345678901234567e+61"
    stroke="hsla(0,50%,50%,0.6)"
    stroke-width="1"
    transform="translate(-50,-12345678901234567890123456789012345678901234567890123456789100)"
    />
  
  <line
    x1="25"
    y1="1.2345678901234567e+61"
    x2="75"
    y2="1.2345678901234567e+61"
    stroke="hsla(0,50%,50%,0.6)"
    stroke-width="1"
    transform="translate(-50,-12345678901234567890123456789012345678901234567890123456789100)"
    />
  
</svg>
