<?xml version="1.0"?>
<!DOCTYPE svg PUBLIC "-//W3C//DTD SVG 1.1//EN"
  "http://www.w3.org/Graphics/SVG/1.1/DTD/svg11.dtd">
<svg
  width="240"
  height="240"
  viewBox="-500 -500 1000 1000" xmlns="http://www.w3.org/2000/svg" version="1.1">
  <rect
    x="0"
    y="0"
    width="100"
    height="100"
    fill="hsla(206,100%,53%,0.3)"
    stroke="hsl(206,100%,53%)"
    stroke-width="3"
    transform="" />
  
  <path
    d="M 
      3.4392280251
      48.3110523735
      L
    
      55.1875706369
      52.2495872214
      L
    
      58.0912464806
      68.2198043616
      L
    
      41.0898404342
      73.3724679541
      L
    
      10.4622558698
      87.0590714080
      L
    
      -9.4679431742
      75.8681757488
      L
    
      2.3467564681
      54.8270256310
      L
    
      -1.4042630560
      54.8651951993
      L
    
      -1.4333352223
      52.0082002544
      z
    "
    fill="hsla(0,0%,50%,0.3)"
    stroke="hsla(0,0%,50%,1)"
    stroke-width="1"
    transform="translate(-24.3116516532,-67.6850618908)"
    />
  
  
  <line
    x1="55.1875706369958"
    y1="52.24958722142562"
    x2="58.09124648067571"
    y2="68.21980436166513"
    stroke="hsla(0,50%,50%,0.6)"
    stroke-width="1"
    transform="translate(-24.3116516532,-67.6850618908)"
    />
  
  <line
    x1="39.231035128440446"
    y1="51.03514501940709"
    x2="49.15157081114196"
    y2="69.7699080922352"
    stroke="hsla(0,50%,50%,0.6)"
    stroke-width="1"
    transform="translate(-24.3116516532,-67.6850618908)"
    />
  
  <line
    x1="18.812737276241855"
    y1="49.48112080206999"
    x2="20.82018228414827"
    y2="79.51564983561447"
    stroke="hsla(0,50%,50%,0.6)"
    stroke-width="1"
    transform="translate(-24.3116516532,-67.6850618908)"
    />
  
  <line
    x1="-1.4333352223787867"
    y1="52.00820025446178"
    x2="-1.4042630560188412"
    y2="54.86519519937603"
    stroke="hsla(0,50%,50%,0.6)"
    stroke-width="1"
    transform="translate(-24.3116516532,-67.6850618908)"
    />
  
  <line
    x1="10.549595932186206"
    y1="48.852218145595174"
    x2="17.898005698005697"
    y2="80.40128205128205"
    stroke="hsla(0,50%,50%,0.6)"
    stroke-width="1"
    transform="translate(-24.3116516532,-67.6850618908)"
    />
  
  <line
    x1="5.900327550824402"
    y1="48.498365159913604"
    x2="17.898005698005697"
    y2="80.40128205128205"
    stroke="hsla(0,50%,50%,0.6)"
    stroke-width="1"
    transform="translate(-24.3116516532,-67.6850618908)"
    />
  
  <line
    x1="18.812737276241855"
    y1="49.48112080206999"
    x2="10.462255869830392"
    y2="87.05907140809228"
    stroke="hsla(0,50%,50%,0.6)"
    stroke-width="1"
    transform="translate(-24.3116516532,-67.6850618908)"
    />
  
  <line
    x1="51.573945328196395"
    y1="51.97455639941947"
    x2="54.48237842399018"
    y2="54.296504750239016"
    stroke="hsla(0,50%,50%,0.6)"
    stroke-width="1"
    transform="translate(-24.3116516532,-67.6850618908)"
    />
  
  <line
    x1="10.549595932186206"
    y1="48.852218145595174"
    x2="9.756981638071368"
    y2="50.832263836311654"
    stroke="hsla(0,50%,50%,0.6)"
    stroke-width="1"
    transform="translate(-24.3116516532,-67.6850618908)"
    />
  
  <line
    x1="16.56007490822357"
    y1="72.10632228364446"
    x2="20.82018228414827"
    y2="79.51564983561447"
    stroke="hsla(0,50%,50%,0.6)"
    stroke-width="1"
    transform="translate(-24.3116516532,-67.6850618908)"
    />
  
  <line
    x1="5.900327550824402"
    y1="48.498365159913604"
    x2="-9.467943174239604"
    y2="75.86817574887053"
    stroke="hsla(0,50%,50%,0.6)"
    stroke-width="1"
    transform="translate(-24.3116516532,-67.6850618908)"
    />
  
  <line
    x1="3.439228025196646"
    y1="48.31105237352037"
    x2="24.847052280311456"
    y2="70.39819885342689"
    stroke="hsla(0,50%,50%,0.6)"
    stroke-width="1"
    transform="translate(-24.3116516532,-67.6850618908)"
    />
  
  <line
    x1="55.1875706369958"
    y1="52.24958722142562"
    x2="49.15157081114196"
    y2="69.7699080922352"
    stroke="hsla(0,50%,50%,0.6)"
    stroke-width="1"
    transform="translate(-24.3116516532,-67.6850618908)"
    />
  
  <line
    x1="3.439228025196646"
    y1="48.31105237352037"
    x2="-1.4333352223787867"
    y2="52.00820025446178"
    stroke="hsla(0,50%,50%,0.6)"
    stroke-width="1"
    transform="translate(-24.3116516532,-67.6850618908)"
    />
  
  <line
    x1="39.231035128440446"
    y1="51.03514501940709"
    x2="24.847052280311456"
    y2="70.39819885342689"
    stroke="hsla(0,50%,50%,0.6)"
    stroke-width="1"
    transform="translate(-24.3116516532,-67.6850618908)"
    />
  
  <line
    x1="9.756981638071368"
    y1="50.832263836311654"
    x2="50.11070162694542"
    y2="66.98589879223807"
    stroke="hsla(0,50%,50%,0.6)"
    stroke-width="1"
    transform="translate(-24.3116516532,-67.6850618908)"
    />
  
  <line
    x1="3.439228025196646"
    y1="48.31105237352037"
    x2="55.1875706369958"
    y2="52.24958722142562"
    stroke="hsla(0,50%,50%,0.6)"
    stroke-width="1"
    transform="translate(-24.3116516532,-67.6850618908)"
    />
  
  <line
    x1="-1.4333352223787867"
    y1="52.00820025446178"
    x2="50.11070162694542"
    y2="66.98589879223807"
    stroke="hsla(0,50%,50%,0.6)"
    stroke-width="1"
    transform="translate(-24.3116516532,-67.6850618908)"
    />
  
  <line
    x1="54.48237842399018"
    y1="54.296504750239016"
    x2="-1.4042630560188412"
    y2="54.86519519937603"
    stroke="hsla(0,50%,50%,0.6)"
    stroke-width="1"
    transform="translate(-24.3116516532,-67.6850618908)"
    />
  
  <line
    x1="51.573945328196395"
    y1="51.97455639941947"
    x2="16.56007490822357"
    y2="72.10632228364446"
    stroke="hsla(0,50%,50%,0.6)"
    stroke-width="1"
    transform="translate(-24.3116516532,-67.6850618908)"
    />
  
  <line
    x1="-9.467943174239604"
    y1="75.86817574887053"
    x2="10.462255869830392"
    y2="87.05907140809228"
    stroke="hsla(0,50%,50%,0.6)"
    stroke-width="1"
    transform="translate(-24.3116516532,-67.6850618908)"
    />
  
  <line
    x1="58.09124648067571"
    y1="68.21980436166513"
    x2="24.847052280311456"
    y2="70.39819885342689"
    stroke="hsla(0,50%,50%,0.6)"
    stroke-width="1"
    transform="translate(-24.3116516532,-67.6850618908)"
    />
  
  <line
    x1="49.15157081114196"
    y1="69.7699080922352"
    x2="10.462255869830392"
    y2="87.05907140809228"
    stroke="hsla(0,50%,50%,0.6)"
    stroke-width="1"
    transform="translate(-24.3116516532,-67.6850618908)"
    />
  
  <line
    x1="58.09124648067571"
    y1="68.21980436166513"
    x2="17.898005698005697"
    y2="80.40128205128205"
    stroke="hsla(0,50%,50%,0.6)"
    stroke-width="1"
    transform="translate(-24.3116516532,-67.6850618908)"
    />
  
</svg>
