<?xml version="1.0"?>
<!DOCTYPE svg PUBLIC "-//W3C//DTD SVG 1.1//EN"
  "http://www.w3.org/Graphics/SVG/1.1/DTD/svg11.dtd">
<svg
  width="240"
  height="240"
  viewBox="-50 -50 200 200" xmlns="http://www.w3.org/2000/svg" version="1.1">
  <rect
    x="0"
    y="0"
    width="100"
    height="100"
    fill="hsla(206,100%,53%,0.3)"
    stroke="hsl(206,100%,53%)"
    stroke-width="3"
    transform="" />
  
  <path
    d="M 
      31.0056321851
      32.3382492171
      L
    
      95.0761115439
      43.6911807524
      L
    
      102.8190494113
      49.5456246142
      L
    
      94.0732885178
      75.2518714261
      L
    
      70.8154301341
      67.3390994914
      L
    
      68.6643636795
      68.8968103019
      L
    
      68.8828100685
      69.2247530108
      L
    
      60.5078638028
      74.8034004989
      L
    
      48.7340650315
      57.8563385796
      L
    
      0
      72.7526535826
      L
    
      -8.5135245955
      60.1275802821
      z
    "
    fill="hsla(0,0%,50%,0.3)"
    stroke="hsla(0,0%,50%,1)"
    stroke-width="1"
    transform="translate(-10.0868703059,-64.3900502087) scale(1,-1) translate(50,-110)"
    />
  
  
  <line
    x1="95.07611154391365"
    y1="43.69118075240593"
    x2="102.81904941134788"
    y2="49.54562461424139"
    stroke="hsla(0,50%,50%,0.6)"
    stroke-width="1"
    transform="translate(-10.0868703059,-64.3900502087) scale(1,-1) translate(50,-110)"
    />
  
  <line
    x1="80.08241851501609"
    y1="41.03438198764639"
    x2="96.6097978979122"
    y2="53.82963804162259"
    stroke="hsla(0,50%,50%,0.6)"
    stroke-width="1"
    transform="translate(-10.0868703059,-64.3900502087) scale(1,-1) translate(50,-110)"
    />
  
  <line
    x1="46.09307781348843"
    y1="35.01166041953321"
    x2="68.88281006850451"
    y2="69.224753010887"
    stroke="hsla(0,50%,50%,0.6)"
    stroke-width="1"
    transform="translate(-10.0868703059,-64.3900502087) scale(1,-1) translate(50,-110)"
    />
  
  <line
    x1="31.005632185107892"
    y1="32.33824921712944"
    x2="60.507863802832375"
    y2="74.80340049898483"
    stroke="hsla(0,50%,50%,0.6)"
    stroke-width="1"
    transform="translate(-10.0868703059,-64.3900502087) scale(1,-1) translate(50,-110)"
    />
  
  <line
    x1="0"
    y1="66.51515151515152"
    x2="0"
    y2="72.75265358269311"
    stroke="hsla(0,50%,50%,0.6)"
    stroke-width="1"
    transform="translate(-10.0868703059,-64.3900502087) scale(1,-1) translate(50,-110)"
    />
  
  <line
    x1="4.09572661535691"
    y1="51.26092712138309"
    x2="3.63067004298414"
    y2="71.64288355637912"
    stroke="hsla(0,50%,50%,0.6)"
    stroke-width="1"
    transform="translate(-10.0868703059,-64.3900502087) scale(1,-1) translate(50,-110)"
    />
  
  <line
    x1="51.22513087567645"
    y1="35.921031593801146"
    x2="50.52656064154565"
    y2="60.43643483258233"
    stroke="hsla(0,50%,50%,0.6)"
    stroke-width="1"
    transform="translate(-10.0868703059,-64.3900502087) scale(1,-1) translate(50,-110)"
    />
  
  <line
    x1="39.69127587388458"
    y1="56.68859461948326"
    x2="43.35157982758295"
    y2="59.50157779876789"
    stroke="hsla(0,50%,50%,0.6)"
    stroke-width="1"
    transform="translate(-10.0868703059,-64.3900502087) scale(1,-1) translate(50,-110)"
    />
  
  <line
    x1="51.22513087567645"
    y1="35.921031593801146"
    x2="43.35157982758295"
    y2="59.50157779876789"
    stroke="hsla(0,50%,50%,0.6)"
    stroke-width="1"
    transform="translate(-10.0868703059,-64.3900502087) scale(1,-1) translate(50,-110)"
    />
  
  <line
    x1="0"
    y1="66.51515151515152"
    x2="3.63067004298414"
    y2="71.64288355637912"
    stroke="hsla(0,50%,50%,0.6)"
    stroke-width="1"
    transform="translate(-10.0868703059,-64.3900502087) scale(1,-1) translate(50,-110)"
    />
  
  <line
    x1="-8.513524595510814"
    y1="60.12758028219083"
    x2="0"
    y2="72.75265358269311"
    stroke="hsla(0,50%,50%,0.6)"
    stroke-width="1"
    transform="translate(-10.0868703059,-64.3900502087) scale(1,-1) translate(50,-110)"
    />
  
  <line
    x1="-8.513524595510814"
    y1="60.12758028219083"
    x2="-1.4084334362223137"
    y2="69.82282068856676"
    stroke="hsla(0,50%,50%,0.6)"
    stroke-width="1"
    transform="translate(-10.0868703059,-64.3900502087) scale(1,-1) translate(50,-110)"
    />
  
  <line
    x1="31.005632185107892"
    y1="32.33824921712944"
    x2="95.07611154391365"
    y2="43.69118075240593"
    stroke="hsla(0,50%,50%,0.6)"
    stroke-width="1"
    transform="translate(-10.0868703059,-64.3900502087) scale(1,-1) translate(50,-110)"
    />
  
  <line
    x1="31.005632185107892"
    y1="32.33824921712944"
    x2="-8.513524595510814"
    y2="60.12758028219083"
    stroke="hsla(0,50%,50%,0.6)"
    stroke-width="1"
    transform="translate(-10.0868703059,-64.3900502087) scale(1,-1) translate(50,-110)"
    />
  
  <line
    x1="102.81904941134788"
    y1="49.54562461424139"
    x2="94.07328851788459"
    y2="75.25187142611888"
    stroke="hsla(0,50%,50%,0.6)"
    stroke-width="1"
    transform="translate(-10.0868703059,-64.3900502087) scale(1,-1) translate(50,-110)"
    />
  
  <line
    x1="99.18307338781686"
    y1="46.79645913245822"
    x2="96.6097978979122"
    y2="53.82963804162259"
    stroke="hsla(0,50%,50%,0.6)"
    stroke-width="1"
    transform="translate(-10.0868703059,-64.3900502087) scale(1,-1) translate(50,-110)"
    />
  
  <line
    x1="50.52656064154565"
    y1="60.43643483258233"
    x2="94.07328851788459"
    y2="75.25187142611888"
    stroke="hsla(0,50%,50%,0.6)"
    stroke-width="1"
    transform="translate(-10.0868703059,-64.3900502087) scale(1,-1) translate(50,-110)"
    />
  
  <line
    x1="39.69127587388458"
    y1="56.68859461948326"
    x2="35.74189980273134"
    y2="61.8275933004353"
    stroke="hsla(0,50%,50%,0.6)"
    stroke-width="1"
    transform="translate(-10.0868703059,-64.3900502087) scale(1,-1) translate(50,-110)"
    />
  
  <line
    x1="46.09307781348843"
    y1="35.01166041953321"
    x2="-1.4084334362223137"
    y2="69.82282068856676"
    stroke="hsla(0,50%,50%,0.6)"
    stroke-width="1"
    transform="translate(-10.0868703059,-64.3900502087) scale(1,-1) translate(50,-110)"
    />
  
  <line
    x1="4.09572661535691"
    y1="51.26092712138309"
    x2="35.74189980273134"
    y2="61.8275933004353"
    stroke="hsla(0,50%,50%,0.6)"
    stroke-width="1"
    transform="translate(-10.0868703059,-64.3900502087) scale(1,-1) translate(50,-110)"
    />
  
  <line
    x1="80.08241851501609"
    y1="41.03438198764639"
    x2="0"
    y2="66.51515151515152"
    stroke="hsla(0,50%,50%,0.6)"
    stroke-width="1"
    transform="translate(-10.0868703059,-64.3900502087) scale(1,-1) translate(50,-110)"
    />
  
  <line
    x1="95.07611154391365"
    y1="43.69118075240593"
    x2="0"
    y2="72.75265358269311"
    stroke="hsla(0,50%,50%,0.6)"
    stroke-width="1"
    transform="translate(-10.0868703059,-64.3900502087) scale(1,-1) translate(50,-110)"
    />
  
  <line
    x1="99.18307338781686"
    y1="46.79645913245822"
    x2="60.507863802832375"
    y2="74.80340049898483"
    stroke="hsla(0,50%,50%,0.6)"
    stroke-width="1"
    transform="translate(-10.0868703059,-64.3900502087) scale(1,-1) translate(50,-110)"
    />
  
  <line
    x1="68.88281006850451"
    y1="69.224753010887"
    x2="60.507863802832375"
    y2="74.80340049898483"
    stroke="hsla(0,50%,50%,0.6)"
    stroke-width="1"
    transform="translate(-10.0868703059,-64.3900502087) scale(1,-1) translate(50,-110)"
    />
  
  <line
    x1="102.81904941134788"
    y1="49.54562461424139"
    x2="96.6097978979122"
    y2="53.82963804162259"
    stroke="hsla(0,50%,50%,0.6)"
    stroke-width="1"
    transform="translate(-10.0868703059,-64.3900502087) scale(1,-1) translate(50,-110)"
    />
  
</svg>
