<?xml version="1.0"?>
<!DOCTYPE svg PUBLIC "-//W3C//DTD SVG 1.1//EN"
  "http://www.w3.org/Graphics/SVG/1.1/DTD/svg11.dtd">
<svg
  width="240"
  height="240"
  viewBox="-500 -500 1000 1000" xmlns="http://www.w3.org/2000/svg" version="1.1">
  <rect
    x="0"
    y="0"
    width="100"
    height="100"
    fill="hsla(206,100%,53%,0.3)"
    stroke="hsl(206,100%,53%)"
    stroke-width="3"
    transform="" />
  
  <path
    d="M 
      21.2300205362
      85.1738486685
      L
    
      68.7593163916
      87.5503134613
      L
    
      105.8739829971
      108.4267600539
      L
    
      78.0694764530
      157.8583041597
      L
    
      83.7328017362
      161.8135687022
      L
    
      83.5645808805
      167.3302605192
      L
    
      89.9957203793
      177.6684384174
      L
    
      89.6030845991
      178.7182760846
      L
    
      85.6242154274
      177.2301923070
      L
    
      83.2698986194
      176.9941705718
      L
    
      48.1381915956
      136.9543045148
      L
    
      31.0413643462
      104.0542048929
      L
    
      16.1576178415
      110.5667466161
      L
    
      11.5340253748
      100
      z
    "
    fill="hsla(0,0%,50%,0.3)"
    stroke="hsla(0,0%,50%,1)"
    stroke-width="1"
    transform="translate(-58.7040041860,-131.9460623765)"
    />
  
  
  <line
    x1="78.24948023581474"
    y1="157.98401874327033"
    x2="82.42821668753474"
    y2="176.034899455503"
    stroke="hsla(0,50%,50%,0.6)"
    stroke-width="1"
    transform="translate(-58.7040041860,-131.9460623765)"
    />
  
  <line
    x1="18.878797026991343"
    y1="88.76910578059702"
    x2="21.842105263157894"
    y2="100"
    stroke="hsla(0,50%,50%,0.6)"
    stroke-width="1"
    transform="translate(-58.7040041860,-131.9460623765)"
    />
  
  <line
    x1="83.73280173626013"
    y1="161.81356870225585"
    x2="83.26989861947534"
    y2="176.9941705718961"
    stroke="hsla(0,50%,50%,0.6)"
    stroke-width="1"
    transform="translate(-58.7040041860,-131.9460623765)"
    />
  
  <line
    x1="32.817404106871166"
    y1="85.75321784710296"
    x2="89.9957203793202"
    y2="177.66843841749457"
    stroke="hsla(0,50%,50%,0.6)"
    stroke-width="1"
    transform="translate(-58.7040041860,-131.9460623765)"
    />
  
  <line
    x1="21.230020536239923"
    y1="85.17384866857141"
    x2="48.13819159564586"
    y2="136.95430451484268"
    stroke="hsla(0,50%,50%,0.6)"
    stroke-width="1"
    transform="translate(-58.7040041860,-131.9460623765)"
    />
  
  <line
    x1="11.534025374855824"
    y1="100"
    x2="16.157617841588255"
    y2="110.56674661612519"
    stroke="hsla(0,50%,50%,0.6)"
    stroke-width="1"
    transform="translate(-58.7040041860,-131.9460623765)"
    />
  
  <line
    x1="83.65001105019695"
    y1="98.10869408443449"
    x2="67.73946591996742"
    y2="159.29402168147655"
    stroke="hsla(0,50%,50%,0.6)"
    stroke-width="1"
    transform="translate(-58.7040041860,-131.9460623765)"
    />
  
  <line
    x1="21.230020536239923"
    y1="85.17384866857141"
    x2="11.534025374855824"
    y2="100"
    stroke="hsla(0,50%,50%,0.6)"
    stroke-width="1"
    transform="translate(-58.7040041860,-131.9460623765)"
    />
  
  <line
    x1="48.13819159564586"
    y1="136.95430451484268"
    x2="83.26989861947534"
    y2="176.9941705718961"
    stroke="hsla(0,50%,50%,0.6)"
    stroke-width="1"
    transform="translate(-58.7040041860,-131.9460623765)"
    />
  
  <line
    x1="68.75931639168537"
    y1="87.55031346134368"
    x2="105.87398299717181"
    y2="108.42676005399207"
    stroke="hsla(0,50%,50%,0.6)"
    stroke-width="1"
    transform="translate(-58.7040041860,-131.9460623765)"
    />
  
  <line
    x1="32.817404106871166"
    y1="85.75321784710296"
    x2="21.842105263157894"
    y2="100"
    stroke="hsla(0,50%,50%,0.6)"
    stroke-width="1"
    transform="translate(-58.7040041860,-131.9460623765)"
    />
  
  <line
    x1="89.9957203793202"
    y1="177.66843841749457"
    x2="89.60308459911528"
    y2="178.7182760846199"
    stroke="hsla(0,50%,50%,0.6)"
    stroke-width="1"
    transform="translate(-58.7040041860,-131.9460623765)"
    />
  
  <line
    x1="48.13819159564586"
    y1="136.95430451484268"
    x2="83.73280173626013"
    y2="161.81356870225585"
    stroke="hsla(0,50%,50%,0.6)"
    stroke-width="1"
    transform="translate(-58.7040041860,-131.9460623765)"
    />
  
  <line
    x1="105.87398299717181"
    y1="108.42676005399207"
    x2="73.54205206298037"
    y2="165.907271979652"
    stroke="hsla(0,50%,50%,0.6)"
    stroke-width="1"
    transform="translate(-58.7040041860,-131.9460623765)"
    />
  
  <line
    x1="36.9259933520352"
    y1="85.95864730936117"
    x2="83.65001105019695"
    y2="98.10869408443449"
    stroke="hsla(0,50%,50%,0.6)"
    stroke-width="1"
    transform="translate(-58.7040041860,-131.9460623765)"
    />
  
  <line
    x1="21.230020536239923"
    y1="85.17384866857141"
    x2="68.75931639168537"
    y2="87.55031346134368"
    stroke="hsla(0,50%,50%,0.6)"
    stroke-width="1"
    transform="translate(-58.7040041860,-131.9460623765)"
    />
  
  <line
    x1="36.9259933520352"
    y1="85.95864730936117"
    x2="18.878797026991343"
    y2="88.76910578059702"
    stroke="hsla(0,50%,50%,0.6)"
    stroke-width="1"
    transform="translate(-58.7040041860,-131.9460623765)"
    />
  
  <line
    x1="68.75931639168537"
    y1="87.55031346134368"
    x2="16.157617841588255"
    y2="110.56674661612519"
    stroke="hsla(0,50%,50%,0.6)"
    stroke-width="1"
    transform="translate(-58.7040041860,-131.9460623765)"
    />
  
  <line
    x1="11.534025374855824"
    y1="100"
    x2="21.842105263157894"
    y2="100"
    stroke="hsla(0,50%,50%,0.6)"
    stroke-width="1"
    transform="translate(-58.7040041860,-131.9460623765)"
    />
  
  <line
    x1="82.42821668753474"
    y1="176.034899455503"
    x2="89.60308459911528"
    y2="178.7182760846199"
    stroke="hsla(0,50%,50%,0.6)"
    stroke-width="1"
    transform="translate(-58.7040041860,-131.9460623765)"
    />
  
  <line
    x1="78.24948023581474"
    y1="157.98401874327033"
    x2="67.73946591996742"
    y2="159.29402168147655"
    stroke="hsla(0,50%,50%,0.6)"
    stroke-width="1"
    transform="translate(-58.7040041860,-131.9460623765)"
    />
  
  <line
    x1="83.26989861947534"
    y1="176.9941705718961"
    x2="89.9957203793202"
    y2="177.66843841749457"
    stroke="hsla(0,50%,50%,0.6)"
    stroke-width="1"
    transform="translate(-58.7040041860,-131.9460623765)"
    />
  
  <line
    x1="83.73280173626013"
    y1="161.81356870225585"
    x2="73.54205206298037"
    y2="165.907271979652"
    stroke="hsla(0,50%,50%,0.6)"
    stroke-width="1"
    transform="translate(-58.7040041860,-131.9460623765)"
    />
  
</svg>
