<?xml version="1.0"?>
<!DOCTYPE svg PUBLIC "-//W3C//DTD SVG 1.1//EN"
  "http://www.w3.org/Graphics/SVG/1.1/DTD/svg11.dtd">
<svg
  width="240"
  height="240"
  viewBox="-500 -500 1000 1000" xmlns="http://www.w3.org/2000/svg" version="1.1">
  <rect
    x="0"
    y="0"
    width="100"
    height="100"
    fill="hsla(206,100%,53%,0.3)"
    stroke="hsl(206,100%,53%)"
    stroke-width="3"
    transform="" />
  
  <path
    d="M 
      12345678901234567890123456789012345678901234567890123456789025
      0
      L
    
      12345678901234567890123456789012345678901234567890123456789075
      0
      L
    
      12345678901234567890123456789012345678901234567890123456789062.5
      12.5
      L
    
      12345678901234567890123456789012345678901234567890123456789062.5
      37.5
      L
    
      12345678901234567890123456789012345678901234567890123456789075
      50
      L
    
      12345678901234567890123456789012345678901234567890123456789025
      50
      L
    
      12345678901234567890123456789012345678901234567890123456789037.5
      37.5
      L
    
      12345678901234567890123456789012345678901234567890123456789037.5
      12.5
      z
    "
    fill="hsla(0,0%,50%,0.3)"
    stroke="hsla(0,0%,50%,1)"
    stroke-width="1"
    transform="translate(-12345678901234567890123456789012345678901234567890123456789050,-25)"
    />
  
  
  <line
    x1="1.2345678901234567e+61"
    y1="0"
    x2="1.2345678901234567e+61"
    y2="12.5"
    stroke="hsla(0,50%,50%,0.6)"
    stroke-width="1"
    transform="translate(-12345678901234567890123456789012345678901234567890123456789050,-25)"
    />
  
  <line
    x1="1.2345678901234567e+61"
    y1="0"
    x2="1.2345678901234567e+61"
    y2="50"
    stroke="hsla(0,50%,50%,0.6)"
    stroke-width="1"
    transform="translate(-12345678901234567890123456789012345678901234567890123456789050,-25)"
    />
  
  <line
    x1="1.2345678901234567e+61"
    y1="37.5"
    x2="1.2345678901234567e+61"
    y2="50"
    stroke="hsla(0,50%,50%,0.6)"
    stroke-width="1"
    transform="translate(-12345678901234567890123456789012345678901234567890123456789050,-25)"
    />
  
  <line
    x1="1.2345678901234567e+61"
    y1="0"
    x2="1.2345678901234567e+61"
    y2="0"
    stroke="hsla(0,50%,50%,0.6)"
    stroke-width="1"
    transform="translate(-12345678901234567890123456789012345678901234567890123456789050,-25)"
    />
  
  <line
    x1="1.2345678901234567e+61"
    y1="0"
    x2="1.2345678901234567e+61"
    y2="50"
    stroke="hsla(0,50%,50%,0.6)"
    stroke-width="1"
    transform="translate(-12345678901234567890123456789012345678901234567890123456789050,-25)"
    />
  
  <line
    x1="1.2345678901234567e+61"
    y1="0"
    x2="1.2345678901234567e+61"
    y2="50"
    stroke="hsla(0,50%,50%,0.6)"
    stroke-width="1"
    transform="translate(-12345678901234567890123456789012345678901234567890123456789050,-25)"
    />
  
  <line
    x1="1.2345678901234567e+61"
    y1="0"
    x2="1.2345678901234567e+61"
    y2="50"
    stroke="hsla(0,50%,50%,0.6)"
    stroke-width="1"
    transform="translate(-12345678901234567890123456789012345678901234567890123456789050,-25)"
    />
  
  <line
    x1="1.2345678901234567e+61"
    y1="25"
    x2="1.2345678901234567e+61"
    y2="25"
    stroke="hsla(0,50%,50%,0.6)"
    stroke-width="1"
    transform="translate(-12345678901234567890123456789012345678901234567890123456789050,-25)"
    />
  
  <line
    x1="1.2345678901234567e+61"
    y1="50"
    x2="1.2345678901234567e+61"
    y2="50"
    stroke="hsla(0,50%,50%,0.6)"
    stroke-width="1"
    transform="translate(-12345678901234567890123456789012345678901234567890123456789050,-25)"
    />
  
  <line
    x1="1.2345678901234567e+61"
    y1="0"
    x2="1.2345678901234567e+61"
    y2="12.5"
    stroke="hsla(0,50%,50%,0.6)"
    stroke-width="1"
    transform="translate(-12345678901234567890123456789012345678901234567890123456789050,-25)"
    />
  
  <line
    x1="1.2345678901234567e+61"
    y1="0"
    x2="1.2345678901234567e+61"
    y2="50"
    stroke="hsla(0,50%,50%,0.6)"
    stroke-width="1"
    transform="translate(-12345678901234567890123456789012345678901234567890123456789050,-25)"
    />
  
  <line
    x1="1.2345678901234567e+61"
    y1="37.5"
    x2="1.2345678901234567e+61"
    y2="50"
    stroke="hsla(0,50%,50%,0.6)"
    stroke-width="1"
    transform="translate(-12345678901234567890123456789012345678901234567890123456789050,-25)"
    />
  
</svg>
