<?xml version="1.0"?>
<!DOCTYPE svg PUBLIC "-//W3C//DTD SVG 1.1//EN"
  "http://www.w3.org/Graphics/SVG/1.1/DTD/svg11.dtd">
<svg
  width="240"
  height="240"
  viewBox="-500 -500 1000 1000" xmlns="http://www.w3.org/2000/svg" version="1.1">
  <rect
    x="0"
    y="0"
    width="100"
    height="100"
    fill="hsla(206,100%,53%,0.3)"
    stroke="hsl(206,100%,53%)"
    stroke-width="3"
    transform="" />
  
  <path
    d="M 
      -72.3201607042
      -23.4109087997
      L
    
      -63.0453482356
      -22.4831175624
      L
    
      -45.7629983542
      6.3812347122
      L
    
      -34.2710881516
      -0.7051970762
      L
    
      -30.7435093596
      0.5572018626
      L
    
      -22.0875666516
      34.6680279413
      L
    
      -19.6069472396
      35.4938593485
      L
    
      -21.1442936096
      40.1117162317
      L
    
      -63.2196904013
      36.8391853702
      L
    
      -78.0866426434
      13.8909805113
      L
    
      -75.4022070548
      7.3992570781
      z
    "
    fill="hsla(0,0%,50%,0.3)"
    stroke="hsla(0,0%,50%,1)"
    stroke-width="1"
    transform="translate(48.8467949415,-8.3504037160)"
    />
  
  
  <line
    x1="-63.04534823561077"
    y1="-22.483117562451728"
    x2="-78.08664264344249"
    y2="13.890980511380455"
    stroke="hsla(0,50%,50%,0.6)"
    stroke-width="1"
    transform="translate(48.8467949415,-8.3504037160)"
    />
  
  <line
    x1="-72.32016070424949"
    y1="-23.41090879975303"
    x2="-63.04534823561077"
    y2="-22.483117562451728"
    stroke="hsla(0,50%,50%,0.6)"
    stroke-width="1"
    transform="translate(48.8467949415,-8.3504037160)"
    />
  
  <line
    x1="-34.271088151649344"
    y1="-0.7051970762783653"
    x2="-64.78278082318108"
    y2="18.109693142723437"
    stroke="hsla(0,50%,50%,0.6)"
    stroke-width="1"
    transform="translate(48.8467949415,-8.3504037160)"
    />
  
  <line
    x1="-30.743509359600708"
    y1="0.5572018626789167"
    x2="-63.21969040131601"
    y2="36.83918537022022"
    stroke="hsla(0,50%,50%,0.6)"
    stroke-width="1"
    transform="translate(48.8467949415,-8.3504037160)"
    />
  
  <line
    x1="-58.0328514336594"
    y1="14.726381472827104"
    x2="-64.48707475615448"
    y2="18.227469611540595"
    stroke="hsla(0,50%,50%,0.6)"
    stroke-width="1"
    transform="translate(48.8467949415,-8.3504037160)"
    />
  
  <line
    x1="-72.32016070424949"
    y1="-23.41090879975303"
    x2="-76.32379540464939"
    y2="16.612061396811328"
    stroke="hsla(0,50%,50%,0.6)"
    stroke-width="1"
    transform="translate(48.8467949415,-8.3504037160)"
    />
  
  <line
    x1="-30.06400489954159"
    y1="3.234952771948924"
    x2="-65.91588064771419"
    y2="13.853117287548116"
    stroke="hsla(0,50%,50%,0.6)"
    stroke-width="1"
    transform="translate(48.8467949415,-8.3504037160)"
    />
  
  <line
    x1="-45.08739512434129"
    y1="14.338163715341974"
    x2="-47.09974181023342"
    y2="38.09295914952665"
    stroke="hsla(0,50%,50%,0.6)"
    stroke-width="1"
    transform="translate(48.8467949415,-8.3504037160)"
    />
  
  <line
    x1="-33.861685356288454"
    y1="4.040789108978505"
    x2="-37.30209400142586"
    y2="38.85499842354501"
    stroke="hsla(0,50%,50%,0.6)"
    stroke-width="1"
    transform="translate(48.8467949415,-8.3504037160)"
    />
  
  <line
    x1="-45.61767011571808"
    y1="17.174428332403792"
    x2="-47.09974181023342"
    y2="38.09295914952665"
    stroke="hsla(0,50%,50%,0.6)"
    stroke-width="1"
    transform="translate(48.8467949415,-8.3504037160)"
    />
  
  <line
    x1="-30.06400489954159"
    y1="3.234952771948924"
    x2="-33.861685356288454"
    y2="4.040789108978505"
    stroke="hsla(0,50%,50%,0.6)"
    stroke-width="1"
    transform="translate(48.8467949415,-8.3504037160)"
    />
  
  <line
    x1="-19.606947239697146"
    y1="35.49385934855976"
    x2="-21.144293609611637"
    y2="40.11171623179723"
    stroke="hsla(0,50%,50%,0.6)"
    stroke-width="1"
    transform="translate(48.8467949415,-8.3504037160)"
    />
  
  <line
    x1="-35.9534440380561"
    y1="15.111930690036095"
    x2="-37.30209400142586"
    y2="38.85499842354501"
    stroke="hsla(0,50%,50%,0.6)"
    stroke-width="1"
    transform="translate(48.8467949415,-8.3504037160)"
    />
  
  <line
    x1="-21.961467926885796"
    y1="35.16495032345176"
    x2="-25.783108896713383"
    y2="39.75091948724487"
    stroke="hsla(0,50%,50%,0.6)"
    stroke-width="1"
    transform="translate(48.8467949415,-8.3504037160)"
    />
  
  <line
    x1="-27.375408605763344"
    y1="13.830013722245424"
    x2="-53.831545667203216"
    y2="22.471449459821205"
    stroke="hsla(0,50%,50%,0.6)"
    stroke-width="1"
    transform="translate(48.8467949415,-8.3504037160)"
    />
  
  <line
    x1="-21.997650186357564"
    y1="35.022365419459305"
    x2="-21.144293609611637"
    y2="40.11171623179723"
    stroke="hsla(0,50%,50%,0.6)"
    stroke-width="1"
    transform="translate(48.8467949415,-8.3504037160)"
    />
  
  <line
    x1="-30.743509359600708"
    y1="0.5572018626789167"
    x2="-21.961467926885796"
    y2="35.16495032345176"
    stroke="hsla(0,50%,50%,0.6)"
    stroke-width="1"
    transform="translate(48.8467949415,-8.3504037160)"
    />
  
  <line
    x1="-27.375408605763344"
    y1="13.830013722245424"
    x2="-45.61767011571808"
    y2="17.174428332403792"
    stroke="hsla(0,50%,50%,0.6)"
    stroke-width="1"
    transform="translate(48.8467949415,-8.3504037160)"
    />
  
  <line
    x1="-34.271088151649344"
    y1="-0.7051970762783653"
    x2="-30.743509359600708"
    y2="0.5572018626789167"
    stroke="hsla(0,50%,50%,0.6)"
    stroke-width="1"
    transform="translate(48.8467949415,-8.3504037160)"
    />
  
  <line
    x1="-34.271088151649344"
    y1="-0.7051970762783653"
    x2="-21.997650186357564"
    y2="35.022365419459305"
    stroke="hsla(0,50%,50%,0.6)"
    stroke-width="1"
    transform="translate(48.8467949415,-8.3504037160)"
    />
  
  <line
    x1="-78.08664264344249"
    y1="13.890980511380455"
    x2="-35.9534440380561"
    y2="15.111930690036095"
    stroke="hsla(0,50%,50%,0.6)"
    stroke-width="1"
    transform="translate(48.8467949415,-8.3504037160)"
    />
  
  <line
    x1="-65.91588064771419"
    y1="13.853117287548116"
    x2="-64.78278082318108"
    y2="18.109693142723437"
    stroke="hsla(0,50%,50%,0.6)"
    stroke-width="1"
    transform="translate(48.8467949415,-8.3504037160)"
    />
  
  <line
    x1="-45.08739512434129"
    y1="14.338163715341974"
    x2="-35.9534440380561"
    y2="15.111930690036095"
    stroke="hsla(0,50%,50%,0.6)"
    stroke-width="1"
    transform="translate(48.8467949415,-8.3504037160)"
    />
  
  <line
    x1="-65.91588064771419"
    y1="13.853117287548116"
    x2="-64.48707475615448"
    y2="18.227469611540595"
    stroke="hsla(0,50%,50%,0.6)"
    stroke-width="1"
    transform="translate(48.8467949415,-8.3504037160)"
    />
  
  <line
    x1="-63.04534823561077"
    y1="-22.483117562451728"
    x2="-25.783108896713383"
    y2="39.75091948724487"
    stroke="hsla(0,50%,50%,0.6)"
    stroke-width="1"
    transform="translate(48.8467949415,-8.3504037160)"
    />
  
  <line
    x1="-58.0328514336594"
    y1="14.726381472827104"
    x2="-53.831545667203216"
    y2="22.471449459821205"
    stroke="hsla(0,50%,50%,0.6)"
    stroke-width="1"
    transform="translate(48.8467949415,-8.3504037160)"
    />
  
  <line
    x1="-76.32379540464939"
    y1="16.612061396811328"
    x2="-19.606947239697146"
    y2="35.49385934855976"
    stroke="hsla(0,50%,50%,0.6)"
    stroke-width="1"
    transform="translate(48.8467949415,-8.3504037160)"
    />
  
  <line
    x1="-64.78278082318108"
    y1="18.109693142723437"
    x2="-21.961467926885796"
    y2="35.16495032345176"
    stroke="hsla(0,50%,50%,0.6)"
    stroke-width="1"
    transform="translate(48.8467949415,-8.3504037160)"
    />
  
  <line
    x1="-78.08664264344249"
    y1="13.890980511380455"
    x2="-63.21969040131601"
    y2="36.83918537022022"
    stroke="hsla(0,50%,50%,0.6)"
    stroke-width="1"
    transform="translate(48.8467949415,-8.3504037160)"
    />
  
  <line
    x1="-63.21969040131601"
    y1="36.83918537022022"
    x2="-21.144293609611637"
    y2="40.11171623179723"
    stroke="hsla(0,50%,50%,0.6)"
    stroke-width="1"
    transform="translate(48.8467949415,-8.3504037160)"
    />
  
</svg>
