<?xml version="1.0"?>
<!DOCTYPE svg PUBLIC "-//W3C//DTD SVG 1.1//EN"
  "http://www.w3.org/Graphics/SVG/1.1/DTD/svg11.dtd">
<svg
  width="240"
  height="240"
  viewBox="-50 -50 200 200" xmlns="http://www.w3.org/2000/svg" version="1.1">
  <rect
    x="0"
    y="0"
    width="100"
    height="100"
    fill="hsla(206,100%,53%,0.3)"
    stroke="hsl(206,100%,53%)"
    stroke-width="3"
    transform="" />
  
  <path
    d="M 
      100
      12345678901234567890123456789012345678901234567890123456789000
      L
    
      100
      12345678901234567890123456789012345678901234567890123456789025
      L
    
      125
      12345678901234567890123456789012345678901234567890123456789025
      L
    
      150
      12345678901234567890123456789012345678901234567890123456789050
      L
    
      125
      12345678901234567890123456789012345678901234567890123456789050
      L
    
      125
      12345678901234567890123456789012345678901234567890123456789075
      L
    
      100
      12345678901234567890123456789012345678901234567890123456789100
      L
    
      100
      12345678901234567890123456789012345678901234567890123456789075
      L
    
      75
      12345678901234567890123456789012345678901234567890123456789075
      L
    
      50
      12345678901234567890123456789012345678901234567890123456789050
      L
    
      75
      12345678901234567890123456789012345678901234567890123456789050
      L
    
      75
      12345678901234567890123456789012345678901234567890123456789025
      z
    "
    fill="hsla(0,0%,50%,0.3)"
    stroke="hsla(0,0%,50%,1)"
    stroke-width="1"
    transform="translate(-73.8525390625,-12345678901234567890123456789012345678901234567890123456789040.7592773437) scale(1,-1) translate(50,-110)"
    />
  
  
  <line
    x1="75"
    y1="1.2345678901234567e+61"
    x2="75"
    y2="1.2345678901234567e+61"
    stroke="hsla(0,50%,50%,0.6)"
    stroke-width="1"
    transform="translate(-73.8525390625,-12345678901234567890123456789012345678901234567890123456789040.7592773437) scale(1,-1) translate(50,-110)"
    />
  
  <line
    x1="100"
    y1="1.2345678901234567e+61"
    x2="100"
    y2="1.2345678901234567e+61"
    stroke="hsla(0,50%,50%,0.6)"
    stroke-width="1"
    transform="translate(-73.8525390625,-12345678901234567890123456789012345678901234567890123456789040.7592773437) scale(1,-1) translate(50,-110)"
    />
  
  <line
    x1="125"
    y1="1.2345678901234567e+61"
    x2="125"
    y2="1.2345678901234567e+61"
    stroke="hsla(0,50%,50%,0.6)"
    stroke-width="1"
    transform="translate(-73.8525390625,-12345678901234567890123456789012345678901234567890123456789040.7592773437) scale(1,-1) translate(50,-110)"
    />
  
  <line
    x1="125"
    y1="1.2345678901234567e+61"
    x2="150"
    y2="1.2345678901234567e+61"
    stroke="hsla(0,50%,50%,0.6)"
    stroke-width="1"
    transform="translate(-73.8525390625,-12345678901234567890123456789012345678901234567890123456789040.7592773437) scale(1,-1) translate(50,-110)"
    />
  
  <line
    x1="75"
    y1="1.2345678901234567e+61"
    x2="125"
    y2="1.2345678901234567e+61"
    stroke="hsla(0,50%,50%,0.6)"
    stroke-width="1"
    transform="translate(-73.8525390625,-12345678901234567890123456789012345678901234567890123456789040.7592773437) scale(1,-1) translate(50,-110)"
    />
  
  <line
    x1="50"
    y1="1.2345678901234567e+61"
    x2="75"
    y2="1.2345678901234567e+61"
    stroke="hsla(0,50%,50%,0.6)"
    stroke-width="1"
    transform="translate(-73.8525390625,-12345678901234567890123456789012345678901234567890123456789040.7592773437) scale(1,-1) translate(50,-110)"
    />
  
  <line
    x1="100"
    y1="1.2345678901234567e+61"
    x2="75"
    y2="1.2345678901234567e+61"
    stroke="hsla(0,50%,50%,0.6)"
    stroke-width="1"
    transform="translate(-73.8525390625,-12345678901234567890123456789012345678901234567890123456789040.7592773437) scale(1,-1) translate(50,-110)"
    />
  
  <line
    x1="125"
    y1="1.2345678901234567e+61"
    x2="75"
    y2="1.2345678901234567e+61"
    stroke="hsla(0,50%,50%,0.6)"
    stroke-width="1"
    transform="translate(-73.8525390625,-12345678901234567890123456789012345678901234567890123456789040.7592773437) scale(1,-1) translate(50,-110)"
    />
  
  <line
    x1="125"
    y1="1.2345678901234567e+61"
    x2="100"
    y2="1.2345678901234567e+61"
    stroke="hsla(0,50%,50%,0.6)"
    stroke-width="1"
    transform="translate(-73.8525390625,-12345678901234567890123456789012345678901234567890123456789040.7592773437) scale(1,-1) translate(50,-110)"
    />
  
  <line
    x1="75"
    y1="1.2345678901234567e+61"
    x2="125"
    y2="1.2345678901234567e+61"
    stroke="hsla(0,50%,50%,0.6)"
    stroke-width="1"
    transform="translate(-73.8525390625,-12345678901234567890123456789012345678901234567890123456789040.7592773437) scale(1,-1) translate(50,-110)"
    />
  
  <line
    x1="50"
    y1="1.2345678901234567e+61"
    x2="150"
    y2="1.2345678901234567e+61"
    stroke="hsla(0,50%,50%,0.6)"
    stroke-width="1"
    transform="translate(-73.8525390625,-12345678901234567890123456789012345678901234567890123456789040.7592773437) scale(1,-1) translate(50,-110)"
    />
  
  <line
    x1="75"
    y1="1.2345678901234567e+61"
    x2="125"
    y2="1.2345678901234567e+61"
    stroke="hsla(0,50%,50%,0.6)"
    stroke-width="1"
    transform="translate(-73.8525390625,-12345678901234567890123456789012345678901234567890123456789040.7592773437) scale(1,-1) translate(50,-110)"
    />
  
</svg>
