<?xml version="1.0"?>
<!DOCTYPE svg PUBLIC "-//W3C//DTD SVG 1.1//EN"
  "http://www.w3.org/Graphics/SVG/1.1/DTD/svg11.dtd">
<svg
  width="240"
  height="240"
  viewBox="-50 -50 200 200" xmlns="http://www.w3.org/2000/svg" version="1.1">
  <rect
    x="0"
    y="0"
    width="100"
    height="100"
    fill="hsla(206,100%,53%,0.3)"
    stroke="hsl(206,100%,53%)"
    stroke-width="3"
    transform="" />
  
  <path
    d="M 
      19.2360791532
      -13.6677404509
      L
    
      25.8402602096
      0
      L
    
      74.1597397903
      0
      L
    
      80.7639208467
      -13.6677404509
      L
    
      85.5263157894
      0
      L
    
      74.6736292428
      15.2741514360
      L
    
      80.8823529411
      19.1176470588
      L
    
      72.2950819672
      44.7540983606
      L
    
      66.6259168704
      33.3740831295
      L
    
      50
      50
      L
    
      33.3740831295
      33.3740831295
      L
    
      27.7049180327
      44.7540983606
      L
    
      19.1176470588
      19.1176470588
      L
    
      25.3263707571
      15.2741514360
      L
    
      14.4736842105
      0
      z
    "
    fill="hsla(0,0%,50%,0.3)"
    stroke="hsla(0,0%,50%,1)"
    stroke-width="1"
    transform="translate(-20.6209851974,-11.3132049624) scale(1,-1) translate(50,-110)"
    />
  
  
  <line
    x1="80.76392084675564"
    y1="-13.667740450989415"
    x2="85.52631578947368"
    y2="0"
    stroke="hsla(0,50%,50%,0.6)"
    stroke-width="1"
    transform="translate(-20.6209851974,-11.3132049624) scale(1,-1) translate(50,-110)"
    />
  
  <line
    x1="50"
    y1="0"
    x2="80.88235294117646"
    y2="19.11764705882353"
    stroke="hsla(0,50%,50%,0.6)"
    stroke-width="1"
    transform="translate(-20.6209851974,-11.3132049624) scale(1,-1) translate(50,-110)"
    />
  
  <line
    x1="50"
    y1="0"
    x2="72.29508196721312"
    y2="44.75409836065574"
    stroke="hsla(0,50%,50%,0.6)"
    stroke-width="1"
    transform="translate(-20.6209851974,-11.3132049624) scale(1,-1) translate(50,-110)"
    />
  
  <line
    x1="19.23607915324436"
    y1="-13.667740450989415"
    x2="50"
    y2="50"
    stroke="hsla(0,50%,50%,0.6)"
    stroke-width="1"
    transform="translate(-20.6209851974,-11.3132049624) scale(1,-1) translate(50,-110)"
    />
  
  <line
    x1="14.473684210526315"
    y1="0"
    x2="50"
    y2="50"
    stroke="hsla(0,50%,50%,0.6)"
    stroke-width="1"
    transform="translate(-20.6209851974,-11.3132049624) scale(1,-1) translate(50,-110)"
    />
  
  <line
    x1="19.11764705882353"
    y1="19.11764705882353"
    x2="27.704918032786885"
    y2="44.75409836065574"
    stroke="hsla(0,50%,50%,0.6)"
    stroke-width="1"
    transform="translate(-20.6209851974,-11.3132049624) scale(1,-1) translate(50,-110)"
    />
  
  <line
    x1="14.473684210526315"
    y1="0"
    x2="85.52631578947368"
    y2="0"
    stroke="hsla(0,50%,50%,0.6)"
    stroke-width="1"
    transform="translate(-20.6209851974,-11.3132049624) scale(1,-1) translate(50,-110)"
    />
  
  <line
    x1="19.11764705882353"
    y1="19.11764705882353"
    x2="50"
    y2="50"
    stroke="hsla(0,50%,50%,0.6)"
    stroke-width="1"
    transform="translate(-20.6209851974,-11.3132049624) scale(1,-1) translate(50,-110)"
    />
  
  <line
    x1="50"
    y1="0"
    x2="50"
    y2="50"
    stroke="hsla(0,50%,50%,0.6)"
    stroke-width="1"
    transform="translate(-20.6209851974,-11.3132049624) scale(1,-1) translate(50,-110)"
    />
  
  <line
    x1="19.23607915324436"
    y1="-13.667740450989415"
    x2="14.473684210526315"
    y2="0"
    stroke="hsla(0,50%,50%,0.6)"
    stroke-width="1"
    transform="translate(-20.6209851974,-11.3132049624) scale(1,-1) translate(50,-110)"
    />
  
  <line
    x1="50"
    y1="0"
    x2="27.704918032786885"
    y2="44.75409836065574"
    stroke="hsla(0,50%,50%,0.6)"
    stroke-width="1"
    transform="translate(-20.6209851974,-11.3132049624) scale(1,-1) translate(50,-110)"
    />
  
  <line
    x1="50"
    y1="0"
    x2="19.11764705882353"
    y2="19.11764705882353"
    stroke="hsla(0,50%,50%,0.6)"
    stroke-width="1"
    transform="translate(-20.6209851974,-11.3132049624) scale(1,-1) translate(50,-110)"
    />
  
  <line
    x1="80.88235294117646"
    y1="19.11764705882353"
    x2="72.29508196721312"
    y2="44.75409836065574"
    stroke="hsla(0,50%,50%,0.6)"
    stroke-width="1"
    transform="translate(-20.6209851974,-11.3132049624) scale(1,-1) translate(50,-110)"
    />
  
  <line
    x1="80.76392084675564"
    y1="-13.667740450989415"
    x2="50"
    y2="50"
    stroke="hsla(0,50%,50%,0.6)"
    stroke-width="1"
    transform="translate(-20.6209851974,-11.3132049624) scale(1,-1) translate(50,-110)"
    />
  
  <line
    x1="85.52631578947368"
    y1="0"
    x2="50"
    y2="50"
    stroke="hsla(0,50%,50%,0.6)"
    stroke-width="1"
    transform="translate(-20.6209851974,-11.3132049624) scale(1,-1) translate(50,-110)"
    />
  
  <line
    x1="80.88235294117646"
    y1="19.11764705882353"
    x2="50"
    y2="50"
    stroke="hsla(0,50%,50%,0.6)"
    stroke-width="1"
    transform="translate(-20.6209851974,-11.3132049624) scale(1,-1) translate(50,-110)"
    />
  
</svg>
