<?xml version="1.0"?>
<!DOCTYPE svg PUBLIC "-//W3C//DTD SVG 1.1//EN"
  "http://www.w3.org/Graphics/SVG/1.1/DTD/svg11.dtd">
<svg
  width="240"
  height="240"
  viewBox="-500 -500 1000 1000" xmlns="http://www.w3.org/2000/svg" version="1.1">
  <rect
    x="0"
    y="0"
    width="100"
    height="100"
    fill="hsla(206,100%,53%,0.3)"
    stroke="hsl(206,100%,53%)"
    stroke-width="3"
    transform="" />
  
  <path
    d="M 
      4.2712626451
      -3.9340576995
      L
    
      7.6068079194
      0
      L
    
      92.3931920805
      0
      L
    
      95.7287373548
      -3.9340576995
      L
    
      96.0526315789
      0
      L
    
      79.3296089385
      18.1564245810
      L
    
      80.8823529411
      19.1176470588
      L
    
      72.2950819672
      44.7540983606
      L
    
      66.6259168704
      33.3740831295
      L
    
      50
      50
      L
    
      33.3740831295
      33.3740831295
      L
    
      27.7049180327
      44.7540983606
      L
    
      19.1176470588
      19.1176470588
      L
    
      20.6703910614
      18.1564245810
      L
    
      3.9473684210
      0
      z
    "
    fill="hsla(0,0%,50%,0.3)"
    stroke="hsla(0,0%,50%,1)"
    stroke-width="1"
    transform="translate(-50,-23.0329711502)"
    />
  
  
  <line
    x1="50"
    y1="0"
    x2="80.88235294117646"
    y2="19.11764705882353"
    stroke="hsla(0,50%,50%,0.6)"
    stroke-width="1"
    transform="translate(-50,-23.0329711502)"
    />
  
  <line
    x1="50"
    y1="0"
    x2="72.29508196721312"
    y2="44.75409836065574"
    stroke="hsla(0,50%,50%,0.6)"
    stroke-width="1"
    transform="translate(-50,-23.0329711502)"
    />
  
  <line
    x1="95.72873735481454"
    y1="-3.9340576995129264"
    x2="96.05263157894737"
    y2="0"
    stroke="hsla(0,50%,50%,0.6)"
    stroke-width="1"
    transform="translate(-50,-23.0329711502)"
    />
  
  <line
    x1="19.11764705882353"
    y1="19.11764705882353"
    x2="27.704918032786885"
    y2="44.75409836065574"
    stroke="hsla(0,50%,50%,0.6)"
    stroke-width="1"
    transform="translate(-50,-23.0329711502)"
    />
  
  <line
    x1="4.2712626451854625"
    y1="-3.9340576995129264"
    x2="50"
    y2="50"
    stroke="hsla(0,50%,50%,0.6)"
    stroke-width="1"
    transform="translate(-50,-23.0329711502)"
    />
  
  <line
    x1="3.9473684210526314"
    y1="0"
    x2="50"
    y2="50"
    stroke="hsla(0,50%,50%,0.6)"
    stroke-width="1"
    transform="translate(-50,-23.0329711502)"
    />
  
  <line
    x1="3.9473684210526314"
    y1="0"
    x2="96.05263157894737"
    y2="0"
    stroke="hsla(0,50%,50%,0.6)"
    stroke-width="1"
    transform="translate(-50,-23.0329711502)"
    />
  
  <line
    x1="19.11764705882353"
    y1="19.11764705882353"
    x2="50"
    y2="50"
    stroke="hsla(0,50%,50%,0.6)"
    stroke-width="1"
    transform="translate(-50,-23.0329711502)"
    />
  
  <line
    x1="50"
    y1="0"
    x2="50"
    y2="50"
    stroke="hsla(0,50%,50%,0.6)"
    stroke-width="1"
    transform="translate(-50,-23.0329711502)"
    />
  
  <line
    x1="4.2712626451854625"
    y1="-3.9340576995129264"
    x2="3.9473684210526314"
    y2="0"
    stroke="hsla(0,50%,50%,0.6)"
    stroke-width="1"
    transform="translate(-50,-23.0329711502)"
    />
  
  <line
    x1="50"
    y1="0"
    x2="27.704918032786885"
    y2="44.75409836065574"
    stroke="hsla(0,50%,50%,0.6)"
    stroke-width="1"
    transform="translate(-50,-23.0329711502)"
    />
  
  <line
    x1="50"
    y1="0"
    x2="19.11764705882353"
    y2="19.11764705882353"
    stroke="hsla(0,50%,50%,0.6)"
    stroke-width="1"
    transform="translate(-50,-23.0329711502)"
    />
  
  <line
    x1="80.88235294117646"
    y1="19.11764705882353"
    x2="72.29508196721312"
    y2="44.75409836065574"
    stroke="hsla(0,50%,50%,0.6)"
    stroke-width="1"
    transform="translate(-50,-23.0329711502)"
    />
  
  <line
    x1="95.72873735481454"
    y1="-3.9340576995129264"
    x2="50"
    y2="50"
    stroke="hsla(0,50%,50%,0.6)"
    stroke-width="1"
    transform="translate(-50,-23.0329711502)"
    />
  
  <line
    x1="96.05263157894737"
    y1="0"
    x2="50"
    y2="50"
    stroke="hsla(0,50%,50%,0.6)"
    stroke-width="1"
    transform="translate(-50,-23.0329711502)"
    />
  
  <line
    x1="80.88235294117646"
    y1="19.11764705882353"
    x2="50"
    y2="50"
    stroke="hsla(0,50%,50%,0.6)"
    stroke-width="1"
    transform="translate(-50,-23.0329711502)"
    />
  
</svg>
