<?xml version="1.0"?>
<!DOCTYPE svg PUBLIC "-//W3C//DTD SVG 1.1//EN"
  "http://www.w3.org/Graphics/SVG/1.1/DTD/svg11.dtd">
<svg
  width="240"
  height="240"
  viewBox="-50 -50 200 200" xmlns="http://www.w3.org/2000/svg" version="1.1">
  <rect
    x="0"
    y="0"
    width="100"
    height="100"
    fill="hsla(206,100%,53%,0.3)"
    stroke="hsl(206,100%,53%)"
    stroke-width="3"
    transform="" />
  
  <path
    d="M 
      28.8900152052
      -17.4860618347
      L
    
      34.3597446488
      0
      L
    
      65.6402553511
      0
      L
    
      71.1099847947
      -17.4860618347
      L
    
      80.2631578947
      0
      L
    
      74.8487467588
      8.9455488331
      L
    
      86.7647058823
      13.2352941176
      L
    
      88.5269121813
      31.8696883852
      L
    
      77.3641851106
      22.6358148893
      L
    
      50
      50
      L
    
      22.6358148893
      22.6358148893
      L
    
      11.4730878186
      31.8696883852
      L
    
      13.2352941176
      13.2352941176
      L
    
      25.1512532411
      8.9455488331
      L
    
      19.7368421052
      0
      z
    "
    fill="hsla(0,0%,50%,0.3)"
    stroke="hsla(0,0%,50%,1)"
    stroke-width="1"
    transform="translate(-21.2775310905,-7.7018567352) scale(1,-1) translate(50,-110)"
    />
  
  
  <line
    x1="71.10998479472885"
    y1="-17.486061834769387"
    x2="80.26315789473684"
    y2="0"
    stroke="hsla(0,50%,50%,0.6)"
    stroke-width="1"
    transform="translate(-21.2775310905,-7.7018567352) scale(1,-1) translate(50,-110)"
    />
  
  <line
    x1="50"
    y1="0"
    x2="88.52691218130312"
    y2="31.86968838526912"
    stroke="hsla(0,50%,50%,0.6)"
    stroke-width="1"
    transform="translate(-21.2775310905,-7.7018567352) scale(1,-1) translate(50,-110)"
    />
  
  <line
    x1="50"
    y1="0"
    x2="86.76470588235294"
    y2="13.235294117647058"
    stroke="hsla(0,50%,50%,0.6)"
    stroke-width="1"
    transform="translate(-21.2775310905,-7.7018567352) scale(1,-1) translate(50,-110)"
    />
  
  <line
    x1="28.890015205271162"
    y1="-17.486061834769387"
    x2="50"
    y2="50"
    stroke="hsla(0,50%,50%,0.6)"
    stroke-width="1"
    transform="translate(-21.2775310905,-7.7018567352) scale(1,-1) translate(50,-110)"
    />
  
  <line
    x1="19.736842105263158"
    y1="0"
    x2="50"
    y2="50"
    stroke="hsla(0,50%,50%,0.6)"
    stroke-width="1"
    transform="translate(-21.2775310905,-7.7018567352) scale(1,-1) translate(50,-110)"
    />
  
  <line
    x1="86.76470588235294"
    y1="13.235294117647058"
    x2="88.52691218130312"
    y2="31.86968838526912"
    stroke="hsla(0,50%,50%,0.6)"
    stroke-width="1"
    transform="translate(-21.2775310905,-7.7018567352) scale(1,-1) translate(50,-110)"
    />
  
  <line
    x1="19.736842105263158"
    y1="0"
    x2="80.26315789473684"
    y2="0"
    stroke="hsla(0,50%,50%,0.6)"
    stroke-width="1"
    transform="translate(-21.2775310905,-7.7018567352) scale(1,-1) translate(50,-110)"
    />
  
  <line
    x1="13.235294117647058"
    y1="13.235294117647058"
    x2="50"
    y2="50"
    stroke="hsla(0,50%,50%,0.6)"
    stroke-width="1"
    transform="translate(-21.2775310905,-7.7018567352) scale(1,-1) translate(50,-110)"
    />
  
  <line
    x1="50"
    y1="0"
    x2="50"
    y2="50"
    stroke="hsla(0,50%,50%,0.6)"
    stroke-width="1"
    transform="translate(-21.2775310905,-7.7018567352) scale(1,-1) translate(50,-110)"
    />
  
  <line
    x1="13.235294117647058"
    y1="13.235294117647058"
    x2="11.473087818696884"
    y2="31.86968838526912"
    stroke="hsla(0,50%,50%,0.6)"
    stroke-width="1"
    transform="translate(-21.2775310905,-7.7018567352) scale(1,-1) translate(50,-110)"
    />
  
  <line
    x1="28.890015205271162"
    y1="-17.486061834769387"
    x2="19.736842105263158"
    y2="0"
    stroke="hsla(0,50%,50%,0.6)"
    stroke-width="1"
    transform="translate(-21.2775310905,-7.7018567352) scale(1,-1) translate(50,-110)"
    />
  
  <line
    x1="50"
    y1="0"
    x2="13.235294117647058"
    y2="13.235294117647058"
    stroke="hsla(0,50%,50%,0.6)"
    stroke-width="1"
    transform="translate(-21.2775310905,-7.7018567352) scale(1,-1) translate(50,-110)"
    />
  
  <line
    x1="71.10998479472885"
    y1="-17.486061834769387"
    x2="50"
    y2="50"
    stroke="hsla(0,50%,50%,0.6)"
    stroke-width="1"
    transform="translate(-21.2775310905,-7.7018567352) scale(1,-1) translate(50,-110)"
    />
  
  <line
    x1="50"
    y1="0"
    x2="11.473087818696884"
    y2="31.86968838526912"
    stroke="hsla(0,50%,50%,0.6)"
    stroke-width="1"
    transform="translate(-21.2775310905,-7.7018567352) scale(1,-1) translate(50,-110)"
    />
  
  <line
    x1="80.26315789473684"
    y1="0"
    x2="50"
    y2="50"
    stroke="hsla(0,50%,50%,0.6)"
    stroke-width="1"
    transform="translate(-21.2775310905,-7.7018567352) scale(1,-1) translate(50,-110)"
    />
  
  <line
    x1="86.76470588235294"
    y1="13.235294117647058"
    x2="50"
    y2="50"
    stroke="hsla(0,50%,50%,0.6)"
    stroke-width="1"
    transform="translate(-21.2775310905,-7.7018567352) scale(1,-1) translate(50,-110)"
    />
  
</svg>
