<?xml version="1.0"?>
<!DOCTYPE svg PUBLIC "-//W3C//DTD SVG 1.1//EN"
  "http://www.w3.org/Graphics/SVG/1.1/DTD/svg11.dtd">
<svg
  width="240"
  height="240"
  viewBox="-500 -500 1000 1000" xmlns="http://www.w3.org/2000/svg" version="1.1">
  <rect
    x="0"
    y="0"
    width="100"
    height="100"
    fill="hsla(206,100%,53%,0.3)"
    stroke="hsl(206,100%,53%)"
    stroke-width="3"
    transform="" />
  
  <path
    d="M 
      79.6402090677
      -12.8236295125
      L
    
      84.1797182242
      -0.0503899549
      L
    
      93.1521794983
      5.0986618158
      L
    
      93.6997441932
      4.6829769773
      L
    
      134.6968344290
      12.1227150986
      L
    
      131.9328450341
      27.3538322140
      L
    
      122.6954182891
      31.6479878745
      L
    
      64.8400817897
      33.9317511574
      L
    
      63.8194666174
      27.9380877297
      L
    
      65.8431230497
      22.7868482684
      L
    
      68.6980787950
      -8.9348822343
      z
    "
    fill="hsla(0,0%,50%,0.3)"
    stroke="hsla(0,0%,50%,1)"
    stroke-width="1"
    transform="translate(-99.2581505232,-10.5540608224)"
    />
  
  
  <line
    x1="68.69807879502645"
    y1="-8.934882234300549"
    x2="131.93284503412406"
    y2="27.353832214061878"
    stroke="hsla(0,50%,50%,0.6)"
    stroke-width="1"
    transform="translate(-99.2581505232,-10.5540608224)"
    />
  
  <line
    x1="80.36852161228973"
    y1="15.897454865726024"
    x2="93.24260749769161"
    y2="32.810598826845506"
    stroke="hsla(0,50%,50%,0.6)"
    stroke-width="1"
    transform="translate(-99.2581505232,-10.5540608224)"
    />
  
  <line
    x1="101.85902256680973"
    y1="19.418456839961152"
    x2="123.96006347057896"
    y2="31.060098691307875"
    stroke="hsla(0,50%,50%,0.6)"
    stroke-width="1"
    transform="translate(-99.2581505232,-10.5540608224)"
    />
  
  <line
    x1="79.6402090677039"
    y1="-12.823629512580528"
    x2="86.43334664606088"
    y2="6.290854156175659"
    stroke="hsla(0,50%,50%,0.6)"
    stroke-width="1"
    transform="translate(-99.2581505232,-10.5540608224)"
    />
  
  <line
    x1="67.7743413206868"
    y1="18.55144578441066"
    x2="76.38839166743973"
    y2="29.056871279819152"
    stroke="hsla(0,50%,50%,0.6)"
    stroke-width="1"
    transform="translate(-99.2581505232,-10.5540608224)"
    />
  
  <line
    x1="65.5491169977925"
    y1="26.053582179409993"
    x2="70.52910052910053"
    y2="31.486291486291485"
    stroke="hsla(0,50%,50%,0.6)"
    stroke-width="1"
    transform="translate(-99.2581505232,-10.5540608224)"
    />
  
  <line
    x1="64.0328165209142"
    y1="29.19100611484208"
    x2="67.73948932430953"
    y2="33.817300860005325"
    stroke="hsla(0,50%,50%,0.6)"
    stroke-width="1"
    transform="translate(-99.2581505232,-10.5540608224)"
    />
  
  <line
    x1="63.81946661748723"
    y1="27.938087729739358"
    x2="68.85189486815503"
    y2="33.77339011485353"
    stroke="hsla(0,50%,50%,0.6)"
    stroke-width="1"
    transform="translate(-99.2581505232,-10.5540608224)"
    />
  
  <line
    x1="88.66987178496981"
    y1="18.98652352367283"
    x2="91.07931177854404"
    y2="32.895992078917125"
    stroke="hsla(0,50%,50%,0.6)"
    stroke-width="1"
    transform="translate(-99.2581505232,-10.5540608224)"
    />
  
  <line
    x1="70.05700350765886"
    y1="12.060369725323788"
    x2="122.69541828914166"
    y2="31.647987874551426"
    stroke="hsla(0,50%,50%,0.6)"
    stroke-width="1"
    transform="translate(-99.2581505232,-10.5540608224)"
    />
  
  <line
    x1="93.69974419324681"
    y1="4.682976977392214"
    x2="134.69683442900384"
    y2="12.122715098610348"
    stroke="hsla(0,50%,50%,0.6)"
    stroke-width="1"
    transform="translate(-99.2581505232,-10.5540608224)"
    />
  
  <line
    x1="63.81946661748723"
    y1="27.938087729739358"
    x2="64.84008178977147"
    y2="33.9317511574213"
    stroke="hsla(0,50%,50%,0.6)"
    stroke-width="1"
    transform="translate(-99.2581505232,-10.5540608224)"
    />
  
  <line
    x1="67.2653346142802"
    y1="6.984497551768683"
    x2="126.39645630014304"
    y2="19.939904615645364"
    stroke="hsla(0,50%,50%,0.6)"
    stroke-width="1"
    transform="translate(-99.2581505232,-10.5540608224)"
    />
  
  <line
    x1="65.28062161427961"
    y1="29.036864218442066"
    x2="70.52910052910053"
    y2="31.486291486291485"
    stroke="hsla(0,50%,50%,0.6)"
    stroke-width="1"
    transform="translate(-99.2581505232,-10.5540608224)"
    />
  
  <line
    x1="68.69807879502645"
    y1="-8.934882234300549"
    x2="64.84008178977147"
    y2="33.9317511574213"
    stroke="hsla(0,50%,50%,0.6)"
    stroke-width="1"
    transform="translate(-99.2581505232,-10.5540608224)"
    />
  
  <line
    x1="93.69974419324681"
    y1="4.682976977392214"
    x2="91.07931177854404"
    y2="32.895992078917125"
    stroke="hsla(0,50%,50%,0.6)"
    stroke-width="1"
    transform="translate(-99.2581505232,-10.5540608224)"
    />
  
  <line
    x1="86.43334664606088"
    y1="6.290854156175659"
    x2="67.2653346142802"
    y2="6.984497551768683"
    stroke="hsla(0,50%,50%,0.6)"
    stroke-width="1"
    transform="translate(-99.2581505232,-10.5540608224)"
    />
  
  <line
    x1="79.6402090677039"
    y1="-12.823629512580528"
    x2="68.69807879502645"
    y2="-8.934882234300549"
    stroke="hsla(0,50%,50%,0.6)"
    stroke-width="1"
    transform="translate(-99.2581505232,-10.5540608224)"
    />
  
  <line
    x1="70.05700350765886"
    y1="12.060369725323788"
    x2="64.0328165209142"
    y2="29.19100611484208"
    stroke="hsla(0,50%,50%,0.6)"
    stroke-width="1"
    transform="translate(-99.2581505232,-10.5540608224)"
    />
  
  <line
    x1="134.69683442900384"
    y1="12.122715098610348"
    x2="131.93284503412406"
    y2="27.353832214061878"
    stroke="hsla(0,50%,50%,0.6)"
    stroke-width="1"
    transform="translate(-99.2581505232,-10.5540608224)"
    />
  
  <line
    x1="70.05700350765886"
    y1="12.060369725323788"
    x2="63.81946661748723"
    y2="27.938087729739358"
    stroke="hsla(0,50%,50%,0.6)"
    stroke-width="1"
    transform="translate(-99.2581505232,-10.5540608224)"
    />
  
  <line
    x1="126.39645630014304"
    y1="19.939904615645364"
    x2="123.96006347057896"
    y2="31.060098691307875"
    stroke="hsla(0,50%,50%,0.6)"
    stroke-width="1"
    transform="translate(-99.2581505232,-10.5540608224)"
    />
  
  <line
    x1="80.36852161228973"
    y1="15.897454865726024"
    x2="67.7743413206868"
    y2="18.55144578441066"
    stroke="hsla(0,50%,50%,0.6)"
    stroke-width="1"
    transform="translate(-99.2581505232,-10.5540608224)"
    />
  
  <line
    x1="122.69541828914166"
    y1="31.647987874551426"
    x2="64.84008178977147"
    y2="33.9317511574213"
    stroke="hsla(0,50%,50%,0.6)"
    stroke-width="1"
    transform="translate(-99.2581505232,-10.5540608224)"
    />
  
  <line
    x1="86.43334664606088"
    y1="6.290854156175659"
    x2="67.73948932430953"
    y2="33.817300860005325"
    stroke="hsla(0,50%,50%,0.6)"
    stroke-width="1"
    transform="translate(-99.2581505232,-10.5540608224)"
    />
  
  <line
    x1="101.85902256680973"
    y1="19.418456839961152"
    x2="65.28062161427961"
    y2="29.036864218442066"
    stroke="hsla(0,50%,50%,0.6)"
    stroke-width="1"
    transform="translate(-99.2581505232,-10.5540608224)"
    />
  
  <line
    x1="70.52910052910053"
    y1="31.486291486291485"
    x2="68.85189486815503"
    y2="33.77339011485353"
    stroke="hsla(0,50%,50%,0.6)"
    stroke-width="1"
    transform="translate(-99.2581505232,-10.5540608224)"
    />
  
  <line
    x1="93.69974419324681"
    y1="4.682976977392214"
    x2="65.5491169977925"
    y2="26.053582179409993"
    stroke="hsla(0,50%,50%,0.6)"
    stroke-width="1"
    transform="translate(-99.2581505232,-10.5540608224)"
    />
  
  <line
    x1="101.85902256680973"
    y1="19.418456839961152"
    x2="93.24260749769161"
    y2="32.810598826845506"
    stroke="hsla(0,50%,50%,0.6)"
    stroke-width="1"
    transform="translate(-99.2581505232,-10.5540608224)"
    />
  
  <line
    x1="88.66987178496981"
    y1="18.98652352367283"
    x2="76.38839166743973"
    y2="29.056871279819152"
    stroke="hsla(0,50%,50%,0.6)"
    stroke-width="1"
    transform="translate(-99.2581505232,-10.5540608224)"
    />
  
  <line
    x1="131.93284503412406"
    y1="27.353832214061878"
    x2="122.69541828914166"
    y2="31.647987874551426"
    stroke="hsla(0,50%,50%,0.6)"
    stroke-width="1"
    transform="translate(-99.2581505232,-10.5540608224)"
    />
  
</svg>
