<?xml version="1.0"?>
<!DOCTYPE svg PUBLIC "-//W3C//DTD SVG 1.1//EN"
  "http://www.w3.org/Graphics/SVG/1.1/DTD/svg11.dtd">
<svg
  width="240"
  height="240"
  viewBox="-50 -50 200 200" xmlns="http://www.w3.org/2000/svg" version="1.1">
  <rect
    x="0"
    y="0"
    width="100"
    height="100"
    fill="hsla(206,100%,53%,0.3)"
    stroke="hsl(206,100%,53%)"
    stroke-width="3"
    transform="" />
  
  <path
    d="M 
      19.2360791532
      -13.6677404509
      L
    
      25.8402602096
      0
      L
    
      74.1597397903
      0
      L
    
      80.7639208467
      -13.6677404509
      L
    
      85.5263157894
      0
      L
    
      78.2900251466
      10.1844090528
      L
    
      86.7647058823
      13.2352941176
      L
    
      88.5269121813
      31.8696883852
      L
    
      77.3641851106
      22.6358148893
      L
    
      50
      50
      L
    
      22.6358148893
      22.6358148893
      L
    
      11.4730878186
      31.8696883852
      L
    
      13.2352941176
      13.2352941176
      L
    
      21.7099748533
      10.1844090528
      L
    
      14.4736842105
      0
      z
    "
    fill="hsla(0,0%,50%,0.3)"
    stroke="hsla(0,0%,50%,1)"
    stroke-width="1"
    transform="translate(-17.7938507475,-8.0139468737) scale(1,-1) translate(50,-110)"
    />
  
  
  <line
    x1="80.76392084675564"
    y1="-13.667740450989415"
    x2="85.52631578947368"
    y2="0"
    stroke="hsla(0,50%,50%,0.6)"
    stroke-width="1"
    transform="translate(-17.7938507475,-8.0139468737) scale(1,-1) translate(50,-110)"
    />
  
  <line
    x1="50"
    y1="0"
    x2="88.52691218130312"
    y2="31.86968838526912"
    stroke="hsla(0,50%,50%,0.6)"
    stroke-width="1"
    transform="translate(-17.7938507475,-8.0139468737) scale(1,-1) translate(50,-110)"
    />
  
  <line
    x1="50"
    y1="0"
    x2="86.76470588235294"
    y2="13.235294117647058"
    stroke="hsla(0,50%,50%,0.6)"
    stroke-width="1"
    transform="translate(-17.7938507475,-8.0139468737) scale(1,-1) translate(50,-110)"
    />
  
  <line
    x1="19.23607915324436"
    y1="-13.667740450989415"
    x2="50"
    y2="50"
    stroke="hsla(0,50%,50%,0.6)"
    stroke-width="1"
    transform="translate(-17.7938507475,-8.0139468737) scale(1,-1) translate(50,-110)"
    />
  
  <line
    x1="86.76470588235294"
    y1="13.235294117647058"
    x2="88.52691218130312"
    y2="31.86968838526912"
    stroke="hsla(0,50%,50%,0.6)"
    stroke-width="1"
    transform="translate(-17.7938507475,-8.0139468737) scale(1,-1) translate(50,-110)"
    />
  
  <line
    x1="14.473684210526315"
    y1="0"
    x2="50"
    y2="50"
    stroke="hsla(0,50%,50%,0.6)"
    stroke-width="1"
    transform="translate(-17.7938507475,-8.0139468737) scale(1,-1) translate(50,-110)"
    />
  
  <line
    x1="14.473684210526315"
    y1="0"
    x2="85.52631578947368"
    y2="0"
    stroke="hsla(0,50%,50%,0.6)"
    stroke-width="1"
    transform="translate(-17.7938507475,-8.0139468737) scale(1,-1) translate(50,-110)"
    />
  
  <line
    x1="13.235294117647058"
    y1="13.235294117647058"
    x2="50"
    y2="50"
    stroke="hsla(0,50%,50%,0.6)"
    stroke-width="1"
    transform="translate(-17.7938507475,-8.0139468737) scale(1,-1) translate(50,-110)"
    />
  
  <line
    x1="50"
    y1="0"
    x2="50"
    y2="50"
    stroke="hsla(0,50%,50%,0.6)"
    stroke-width="1"
    transform="translate(-17.7938507475,-8.0139468737) scale(1,-1) translate(50,-110)"
    />
  
  <line
    x1="13.235294117647058"
    y1="13.235294117647058"
    x2="11.473087818696884"
    y2="31.86968838526912"
    stroke="hsla(0,50%,50%,0.6)"
    stroke-width="1"
    transform="translate(-17.7938507475,-8.0139468737) scale(1,-1) translate(50,-110)"
    />
  
  <line
    x1="19.23607915324436"
    y1="-13.667740450989415"
    x2="14.473684210526315"
    y2="0"
    stroke="hsla(0,50%,50%,0.6)"
    stroke-width="1"
    transform="translate(-17.7938507475,-8.0139468737) scale(1,-1) translate(50,-110)"
    />
  
  <line
    x1="50"
    y1="0"
    x2="13.235294117647058"
    y2="13.235294117647058"
    stroke="hsla(0,50%,50%,0.6)"
    stroke-width="1"
    transform="translate(-17.7938507475,-8.0139468737) scale(1,-1) translate(50,-110)"
    />
  
  <line
    x1="50"
    y1="0"
    x2="11.473087818696884"
    y2="31.86968838526912"
    stroke="hsla(0,50%,50%,0.6)"
    stroke-width="1"
    transform="translate(-17.7938507475,-8.0139468737) scale(1,-1) translate(50,-110)"
    />
  
  <line
    x1="80.76392084675564"
    y1="-13.667740450989415"
    x2="50"
    y2="50"
    stroke="hsla(0,50%,50%,0.6)"
    stroke-width="1"
    transform="translate(-17.7938507475,-8.0139468737) scale(1,-1) translate(50,-110)"
    />
  
  <line
    x1="85.52631578947368"
    y1="0"
    x2="50"
    y2="50"
    stroke="hsla(0,50%,50%,0.6)"
    stroke-width="1"
    transform="translate(-17.7938507475,-8.0139468737) scale(1,-1) translate(50,-110)"
    />
  
  <line
    x1="86.76470588235294"
    y1="13.235294117647058"
    x2="50"
    y2="50"
    stroke="hsla(0,50%,50%,0.6)"
    stroke-width="1"
    transform="translate(-17.7938507475,-8.0139468737) scale(1,-1) translate(50,-110)"
    />
  
</svg>
