<?xml version="1.0"?>
<!DOCTYPE svg PUBLIC "-//W3C//DTD SVG 1.1//EN"
  "http://www.w3.org/Graphics/SVG/1.1/DTD/svg11.dtd">
<svg
  width="240"
  height="240"
  viewBox="-500 -500 1000 1000" xmlns="http://www.w3.org/2000/svg" version="1.1">
  <rect
    x="0"
    y="0"
    width="100"
    height="100"
    fill="hsla(206,100%,53%,0.3)"
    stroke="hsl(206,100%,53%)"
    stroke-width="3"
    transform="" />
  
  <path
    d="M 
      4.2712626451
      -3.9340576995
      L
    
      7.6068079194
      0
      L
    
      92.3931920805
      0
      L
    
      95.7287373548
      -3.9340576995
      L
    
      96.0526315789
      0
      L
    
      84.5849802371
      12.4505928853
      L
    
      86.7647058823
      13.2352941176
      L
    
      88.5269121813
      31.8696883852
      L
    
      77.3641851106
      22.6358148893
      L
    
      50
      50
      L
    
      22.6358148893
      22.6358148893
      L
    
      11.4730878186
      31.8696883852
      L
    
      13.2352941176
      13.2352941176
      L
    
      15.4150197628
      12.4505928853
      L
    
      3.9473684210
      0
      z
    "
    fill="hsla(0,0%,50%,0.3)"
    stroke="hsla(0,0%,50%,1)"
    stroke-width="1"
    transform="translate(-50,-23.0329711502)"
    />
  
  
  <line
    x1="50"
    y1="0"
    x2="88.52691218130312"
    y2="31.86968838526912"
    stroke="hsla(0,50%,50%,0.6)"
    stroke-width="1"
    transform="translate(-50,-23.0329711502)"
    />
  
  <line
    x1="50"
    y1="0"
    x2="86.76470588235294"
    y2="13.235294117647058"
    stroke="hsla(0,50%,50%,0.6)"
    stroke-width="1"
    transform="translate(-50,-23.0329711502)"
    />
  
  <line
    x1="86.76470588235294"
    y1="13.235294117647058"
    x2="88.52691218130312"
    y2="31.86968838526912"
    stroke="hsla(0,50%,50%,0.6)"
    stroke-width="1"
    transform="translate(-50,-23.0329711502)"
    />
  
  <line
    x1="95.72873735481454"
    y1="-3.9340576995129264"
    x2="96.05263157894737"
    y2="0"
    stroke="hsla(0,50%,50%,0.6)"
    stroke-width="1"
    transform="translate(-50,-23.0329711502)"
    />
  
  <line
    x1="4.2712626451854625"
    y1="-3.9340576995129264"
    x2="50"
    y2="50"
    stroke="hsla(0,50%,50%,0.6)"
    stroke-width="1"
    transform="translate(-50,-23.0329711502)"
    />
  
  <line
    x1="3.9473684210526314"
    y1="0"
    x2="50"
    y2="50"
    stroke="hsla(0,50%,50%,0.6)"
    stroke-width="1"
    transform="translate(-50,-23.0329711502)"
    />
  
  <line
    x1="3.9473684210526314"
    y1="0"
    x2="96.05263157894737"
    y2="0"
    stroke="hsla(0,50%,50%,0.6)"
    stroke-width="1"
    transform="translate(-50,-23.0329711502)"
    />
  
  <line
    x1="13.235294117647058"
    y1="13.235294117647058"
    x2="50"
    y2="50"
    stroke="hsla(0,50%,50%,0.6)"
    stroke-width="1"
    transform="translate(-50,-23.0329711502)"
    />
  
  <line
    x1="50"
    y1="0"
    x2="50"
    y2="50"
    stroke="hsla(0,50%,50%,0.6)"
    stroke-width="1"
    transform="translate(-50,-23.0329711502)"
    />
  
  <line
    x1="4.2712626451854625"
    y1="-3.9340576995129264"
    x2="3.9473684210526314"
    y2="0"
    stroke="hsla(0,50%,50%,0.6)"
    stroke-width="1"
    transform="translate(-50,-23.0329711502)"
    />
  
  <line
    x1="13.235294117647058"
    y1="13.235294117647058"
    x2="11.473087818696884"
    y2="31.86968838526912"
    stroke="hsla(0,50%,50%,0.6)"
    stroke-width="1"
    transform="translate(-50,-23.0329711502)"
    />
  
  <line
    x1="50"
    y1="0"
    x2="13.235294117647058"
    y2="13.235294117647058"
    stroke="hsla(0,50%,50%,0.6)"
    stroke-width="1"
    transform="translate(-50,-23.0329711502)"
    />
  
  <line
    x1="50"
    y1="0"
    x2="11.473087818696884"
    y2="31.86968838526912"
    stroke="hsla(0,50%,50%,0.6)"
    stroke-width="1"
    transform="translate(-50,-23.0329711502)"
    />
  
  <line
    x1="95.72873735481454"
    y1="-3.9340576995129264"
    x2="50"
    y2="50"
    stroke="hsla(0,50%,50%,0.6)"
    stroke-width="1"
    transform="translate(-50,-23.0329711502)"
    />
  
  <line
    x1="96.05263157894737"
    y1="0"
    x2="50"
    y2="50"
    stroke="hsla(0,50%,50%,0.6)"
    stroke-width="1"
    transform="translate(-50,-23.0329711502)"
    />
  
  <line
    x1="86.76470588235294"
    y1="13.235294117647058"
    x2="50"
    y2="50"
    stroke="hsla(0,50%,50%,0.6)"
    stroke-width="1"
    transform="translate(-50,-23.0329711502)"
    />
  
</svg>
