<?xml version="1.0"?>
<!DOCTYPE svg PUBLIC "-//W3C//DTD SVG 1.1//EN"
  "http://www.w3.org/Graphics/SVG/1.1/DTD/svg11.dtd">
<svg
  width="240"
  height="240"
  viewBox="-50 -50 200 200" xmlns="http://www.w3.org/2000/svg" version="1.1">
  <rect
    x="0"
    y="0"
    width="100"
    height="100"
    fill="hsla(206,100%,53%,0.3)"
    stroke="hsl(206,100%,53%)"
    stroke-width="3"
    transform="" />
  
  <path
    d="M 
      11.0602910602
      -9.0228690228
      L
    
      17.0130327580
      0
      L
    
      82.9869672419
      0
      L
    
      88.9397089397
      -9.0228690228
      L
    
      90.7894736842
      0
      L
    
      85.7597454256
      6.1654733492
      L
    
      92.6470588235
      7.3529411764
      L
    
      97.1131639722
      16.7436489607
      L
    
      86.8896925858
      13.1103074141
      L
    
      50
      50
      L
    
      13.1103074141
      13.1103074141
      L
    
      2.8868360277
      16.7436489607
      L
    
      7.3529411764
      7.3529411764
      L
    
      14.2402545743
      6.1654733492
      L
    
      9.2105263157
      0
      z
    "
    fill="hsla(0,0%,50%,0.3)"
    stroke="hsla(0,0%,50%,1)"
    stroke-width="1"
    transform="translate(-11.8565821637,-4.8833689287) scale(1,-1) translate(50,-110)"
    />
  
  
  <line
    x1="92.6470588235294"
    y1="7.352941176470588"
    x2="97.11316397228637"
    y2="16.74364896073903"
    stroke="hsla(0,50%,50%,0.6)"
    stroke-width="1"
    transform="translate(-11.8565821637,-4.8833689287) scale(1,-1) translate(50,-110)"
    />
  
  <line
    x1="88.93970893970894"
    y1="-9.022869022869022"
    x2="90.78947368421052"
    y2="0"
    stroke="hsla(0,50%,50%,0.6)"
    stroke-width="1"
    transform="translate(-11.8565821637,-4.8833689287) scale(1,-1) translate(50,-110)"
    />
  
  <line
    x1="50"
    y1="0"
    x2="97.11316397228637"
    y2="16.74364896073903"
    stroke="hsla(0,50%,50%,0.6)"
    stroke-width="1"
    transform="translate(-11.8565821637,-4.8833689287) scale(1,-1) translate(50,-110)"
    />
  
  <line
    x1="50"
    y1="0"
    x2="92.6470588235294"
    y2="7.352941176470588"
    stroke="hsla(0,50%,50%,0.6)"
    stroke-width="1"
    transform="translate(-11.8565821637,-4.8833689287) scale(1,-1) translate(50,-110)"
    />
  
  <line
    x1="11.06029106029106"
    y1="-9.022869022869022"
    x2="50"
    y2="50"
    stroke="hsla(0,50%,50%,0.6)"
    stroke-width="1"
    transform="translate(-11.8565821637,-4.8833689287) scale(1,-1) translate(50,-110)"
    />
  
  <line
    x1="9.210526315789474"
    y1="0"
    x2="50"
    y2="50"
    stroke="hsla(0,50%,50%,0.6)"
    stroke-width="1"
    transform="translate(-11.8565821637,-4.8833689287) scale(1,-1) translate(50,-110)"
    />
  
  <line
    x1="9.210526315789474"
    y1="0"
    x2="90.78947368421052"
    y2="0"
    stroke="hsla(0,50%,50%,0.6)"
    stroke-width="1"
    transform="translate(-11.8565821637,-4.8833689287) scale(1,-1) translate(50,-110)"
    />
  
  <line
    x1="7.352941176470588"
    y1="7.352941176470588"
    x2="50"
    y2="50"
    stroke="hsla(0,50%,50%,0.6)"
    stroke-width="1"
    transform="translate(-11.8565821637,-4.8833689287) scale(1,-1) translate(50,-110)"
    />
  
  <line
    x1="50"
    y1="0"
    x2="50"
    y2="50"
    stroke="hsla(0,50%,50%,0.6)"
    stroke-width="1"
    transform="translate(-11.8565821637,-4.8833689287) scale(1,-1) translate(50,-110)"
    />
  
  <line
    x1="11.06029106029106"
    y1="-9.022869022869022"
    x2="9.210526315789474"
    y2="0"
    stroke="hsla(0,50%,50%,0.6)"
    stroke-width="1"
    transform="translate(-11.8565821637,-4.8833689287) scale(1,-1) translate(50,-110)"
    />
  
  <line
    x1="7.352941176470588"
    y1="7.352941176470588"
    x2="2.886836027713626"
    y2="16.74364896073903"
    stroke="hsla(0,50%,50%,0.6)"
    stroke-width="1"
    transform="translate(-11.8565821637,-4.8833689287) scale(1,-1) translate(50,-110)"
    />
  
  <line
    x1="50"
    y1="0"
    x2="7.352941176470588"
    y2="7.352941176470588"
    stroke="hsla(0,50%,50%,0.6)"
    stroke-width="1"
    transform="translate(-11.8565821637,-4.8833689287) scale(1,-1) translate(50,-110)"
    />
  
  <line
    x1="50"
    y1="0"
    x2="2.886836027713626"
    y2="16.74364896073903"
    stroke="hsla(0,50%,50%,0.6)"
    stroke-width="1"
    transform="translate(-11.8565821637,-4.8833689287) scale(1,-1) translate(50,-110)"
    />
  
  <line
    x1="88.93970893970894"
    y1="-9.022869022869022"
    x2="50"
    y2="50"
    stroke="hsla(0,50%,50%,0.6)"
    stroke-width="1"
    transform="translate(-11.8565821637,-4.8833689287) scale(1,-1) translate(50,-110)"
    />
  
  <line
    x1="90.78947368421052"
    y1="0"
    x2="50"
    y2="50"
    stroke="hsla(0,50%,50%,0.6)"
    stroke-width="1"
    transform="translate(-11.8565821637,-4.8833689287) scale(1,-1) translate(50,-110)"
    />
  
  <line
    x1="92.6470588235294"
    y1="7.352941176470588"
    x2="50"
    y2="50"
    stroke="hsla(0,50%,50%,0.6)"
    stroke-width="1"
    transform="translate(-11.8565821637,-4.8833689287) scale(1,-1) translate(50,-110)"
    />
  
</svg>
