<?xml version="1.0"?>
<!DOCTYPE svg PUBLIC "-//W3C//DTD SVG 1.1//EN"
  "http://www.w3.org/Graphics/SVG/1.1/DTD/svg11.dtd">
<svg
  width="240"
  height="240"
  viewBox="-500 -500 1000 1000" xmlns="http://www.w3.org/2000/svg" version="1.1">
  <rect
    x="0"
    y="0"
    width="100"
    height="100"
    fill="hsla(206,100%,53%,0.3)"
    stroke="hsl(206,100%,53%)"
    stroke-width="3"
    transform="" />
  
  <path
    d="M 
      19.2360791532
      -13.6677404509
      L
    
      25.8402602096
      0
      L
    
      74.1597397903
      0
      L
    
      80.7639208467
      -13.6677404509
      L
    
      85.5263157894
      0
      L
    
      84.7775175644
      1.0538641686
      L
    
      98.5294117647
      1.4705882352
      L
    
      99.9082568807
      3.0275229357
      L
    
      97.1403812824
      2.8596187175
      L
    
      50
      50
      L
    
      2.8596187175
      2.8596187175
      L
    
      0.0917431192
      3.0275229357
      L
    
      1.4705882352
      1.4705882352
      L
    
      15.2224824355
      1.0538641686
      L
    
      14.4736842105
      0
      z
    "
    fill="hsla(0,0%,50%,0.3)"
    stroke="hsla(0,0%,50%,1)"
    stroke-width="1"
    transform="translate(-50,-18.1661297745)"
    />
  
  
  <line
    x1="98.52941176470588"
    y1="1.4705882352941178"
    x2="99.90825688073394"
    y2="3.0275229357798166"
    stroke="hsla(0,50%,50%,0.6)"
    stroke-width="1"
    transform="translate(-50,-18.1661297745)"
    />
  
  <line
    x1="80.76392084675564"
    y1="-13.667740450989415"
    x2="85.52631578947368"
    y2="0"
    stroke="hsla(0,50%,50%,0.6)"
    stroke-width="1"
    transform="translate(-50,-18.1661297745)"
    />
  
  <line
    x1="19.23607915324436"
    y1="-13.667740450989415"
    x2="50"
    y2="50"
    stroke="hsla(0,50%,50%,0.6)"
    stroke-width="1"
    transform="translate(-50,-18.1661297745)"
    />
  
  <line
    x1="14.473684210526315"
    y1="0"
    x2="50"
    y2="50"
    stroke="hsla(0,50%,50%,0.6)"
    stroke-width="1"
    transform="translate(-50,-18.1661297745)"
    />
  
  <line
    x1="50"
    y1="0"
    x2="99.90825688073394"
    y2="3.0275229357798166"
    stroke="hsla(0,50%,50%,0.6)"
    stroke-width="1"
    transform="translate(-50,-18.1661297745)"
    />
  
  <line
    x1="50"
    y1="0"
    x2="98.52941176470588"
    y2="1.4705882352941178"
    stroke="hsla(0,50%,50%,0.6)"
    stroke-width="1"
    transform="translate(-50,-18.1661297745)"
    />
  
  <line
    x1="14.473684210526315"
    y1="0"
    x2="85.52631578947368"
    y2="0"
    stroke="hsla(0,50%,50%,0.6)"
    stroke-width="1"
    transform="translate(-50,-18.1661297745)"
    />
  
  <line
    x1="1.4705882352941178"
    y1="1.4705882352941178"
    x2="50"
    y2="50"
    stroke="hsla(0,50%,50%,0.6)"
    stroke-width="1"
    transform="translate(-50,-18.1661297745)"
    />
  
  <line
    x1="50"
    y1="0"
    x2="50"
    y2="50"
    stroke="hsla(0,50%,50%,0.6)"
    stroke-width="1"
    transform="translate(-50,-18.1661297745)"
    />
  
  <line
    x1="1.4705882352941178"
    y1="1.4705882352941178"
    x2="0.09174311926605505"
    y2="3.0275229357798166"
    stroke="hsla(0,50%,50%,0.6)"
    stroke-width="1"
    transform="translate(-50,-18.1661297745)"
    />
  
  <line
    x1="50"
    y1="0"
    x2="1.4705882352941178"
    y2="1.4705882352941178"
    stroke="hsla(0,50%,50%,0.6)"
    stroke-width="1"
    transform="translate(-50,-18.1661297745)"
    />
  
  <line
    x1="50"
    y1="0"
    x2="0.09174311926605505"
    y2="3.0275229357798166"
    stroke="hsla(0,50%,50%,0.6)"
    stroke-width="1"
    transform="translate(-50,-18.1661297745)"
    />
  
  <line
    x1="19.23607915324436"
    y1="-13.667740450989415"
    x2="14.473684210526315"
    y2="0"
    stroke="hsla(0,50%,50%,0.6)"
    stroke-width="1"
    transform="translate(-50,-18.1661297745)"
    />
  
  <line
    x1="80.76392084675564"
    y1="-13.667740450989415"
    x2="50"
    y2="50"
    stroke="hsla(0,50%,50%,0.6)"
    stroke-width="1"
    transform="translate(-50,-18.1661297745)"
    />
  
  <line
    x1="85.52631578947368"
    y1="0"
    x2="50"
    y2="50"
    stroke="hsla(0,50%,50%,0.6)"
    stroke-width="1"
    transform="translate(-50,-18.1661297745)"
    />
  
  <line
    x1="98.52941176470588"
    y1="1.4705882352941178"
    x2="50"
    y2="50"
    stroke="hsla(0,50%,50%,0.6)"
    stroke-width="1"
    transform="translate(-50,-18.1661297745)"
    />
  
</svg>
