<?xml version="1.0"?>
<!DOCTYPE svg PUBLIC "-//W3C//DTD SVG 1.1//EN"
  "http://www.w3.org/Graphics/SVG/1.1/DTD/svg11.dtd">
<svg
  width="240"
  height="240"
  viewBox="-500 -500 1000 1000" xmlns="http://www.w3.org/2000/svg" version="1.1">
  <rect
    x="0"
    y="0"
    width="100"
    height="100"
    fill="hsla(206,100%,53%,0.3)"
    stroke="hsl(206,100%,53%)"
    stroke-width="3"
    transform="" />
  
  <path
    d="M 
      104.7415755913
      55.8607095442
      L
    
      105.9057464659
      56.9234188320
      L
    
      105.2573569114
      59.5788173303
      L
    
      106.8406704813
      70.9924344620
      L
    
      102.3171813353
      71.6199394559
      L
    
      96.4036303648
      95.8381494195
      L
    
      108.1852892635
      107.3441636731
      L
    
      105.1370739231
      110.4654038000
      L
    
      67.0108862934
      112.6886260942
      L
    
      64.3350660391
      77.1225152142
      z
    "
    fill="hsla(0,0%,50%,0.3)"
    stroke="hsla(0,0%,50%,1)"
    stroke-width="1"
    transform="translate(-86.2601776513,-84.2746678192)"
    />
  
  
  <line
    x1="104.74157559134527"
    y1="55.86070954429114"
    x2="105.9057464659072"
    y2="56.92341883200955"
    stroke="hsla(0,50%,50%,0.6)"
    stroke-width="1"
    transform="translate(-86.2601776513,-84.2746678192)"
    />
  
  <line
    x1="104.74157559134527"
    y1="55.86070954429114"
    x2="106.84067048139163"
    y2="70.99243446207669"
    stroke="hsla(0,50%,50%,0.6)"
    stroke-width="1"
    transform="translate(-86.2601776513,-84.2746678192)"
    />
  
  <line
    x1="77.90487755197894"
    y1="81.83425532283219"
    x2="80.8263440272943"
    y2="97.77230711542964"
    stroke="hsla(0,50%,50%,0.6)"
    stroke-width="1"
    transform="translate(-86.2601776513,-84.2746678192)"
    />
  
  <line
    x1="66.22842746712006"
    y1="102.28844419390974"
    x2="66.34478880920946"
    y2="102.9018769691087"
    stroke="hsla(0,50%,50%,0.6)"
    stroke-width="1"
    transform="translate(-86.2601776513,-84.2746678192)"
    />
  
  <line
    x1="64.33506603918116"
    y1="77.12251521422185"
    x2="67.01088629348135"
    y2="112.6886260942951"
    stroke="hsla(0,50%,50%,0.6)"
    stroke-width="1"
    transform="translate(-86.2601776513,-84.2746678192)"
    />
  
  <line
    x1="87.89300133553809"
    y1="64.8945297643129"
    x2="101.5109060167548"
    y2="74.92193939678664"
    stroke="hsla(0,50%,50%,0.6)"
    stroke-width="1"
    transform="translate(-86.2601776513,-84.2746678192)"
    />
  
  <line
    x1="95.61112936909116"
    y1="95.0641898412599"
    x2="108.18528926351709"
    y2="107.34416367312168"
    stroke="hsla(0,50%,50%,0.6)"
    stroke-width="1"
    transform="translate(-86.2601776513,-84.2746678192)"
    />
  
  <line
    x1="67.22358569893102"
    y1="75.6025832933493"
    x2="66.22842746712006"
    y2="102.28844419390974"
    stroke="hsla(0,50%,50%,0.6)"
    stroke-width="1"
    transform="translate(-86.2601776513,-84.2746678192)"
    />
  
  <line
    x1="74.84658463219036"
    y1="80.77234805901672"
    x2="78.18846684676824"
    y2="83.38137588929014"
    stroke="hsla(0,50%,50%,0.6)"
    stroke-width="1"
    transform="translate(-86.2601776513,-84.2746678192)"
    />
  
  <line
    x1="65.68425728803537"
    y1="95.05551556357571"
    x2="82.40278495055566"
    y2="111.79109045351083"
    stroke="hsla(0,50%,50%,0.6)"
    stroke-width="1"
    transform="translate(-86.2601776513,-84.2746678192)"
    />
  
  <line
    x1="64.35892514269283"
    y1="77.43964246506432"
    x2="105.13707392319482"
    y2="110.46540380006772"
    stroke="hsla(0,50%,50%,0.6)"
    stroke-width="1"
    transform="translate(-86.2601776513,-84.2746678192)"
    />
  
  <line
    x1="67.22358569893102"
    y1="75.6025832933493"
    x2="96.77314695523957"
    y2="94.32484034079874"
    stroke="hsla(0,50%,50%,0.6)"
    stroke-width="1"
    transform="translate(-86.2601776513,-84.2746678192)"
    />
  
  <line
    x1="105.9057464659072"
    y1="56.92341883200955"
    x2="92.87132414031258"
    y2="110.30426871529743"
    stroke="hsla(0,50%,50%,0.6)"
    stroke-width="1"
    transform="translate(-86.2601776513,-84.2746678192)"
    />
  
  <line
    x1="66.34478880920946"
    y1="102.9018769691087"
    x2="73.04318290581303"
    y2="107.99952000147294"
    stroke="hsla(0,50%,50%,0.6)"
    stroke-width="1"
    transform="translate(-86.2601776513,-84.2746678192)"
    />
  
  <line
    x1="65.1531466479841"
    y1="87.99616997289428"
    x2="80.8263440272943"
    y2="97.77230711542964"
    stroke="hsla(0,50%,50%,0.6)"
    stroke-width="1"
    transform="translate(-86.2601776513,-84.2746678192)"
    />
  
  <line
    x1="65.50932644182132"
    y1="92.73039306598058"
    x2="92.87132414031258"
    y2="110.30426871529743"
    stroke="hsla(0,50%,50%,0.6)"
    stroke-width="1"
    transform="translate(-86.2601776513,-84.2746678192)"
    />
  
  <line
    x1="64.33506603918116"
    y1="77.12251521422185"
    x2="77.90487755197894"
    y2="81.83425532283219"
    stroke="hsla(0,50%,50%,0.6)"
    stroke-width="1"
    transform="translate(-86.2601776513,-84.2746678192)"
    />
  
  <line
    x1="78.18846684676824"
    y1="83.38137588929014"
    x2="66.34478880920946"
    y2="102.9018769691087"
    stroke="hsla(0,50%,50%,0.6)"
    stroke-width="1"
    transform="translate(-86.2601776513,-84.2746678192)"
    />
  
  <line
    x1="87.89300133553809"
    y1="64.8945297643129"
    x2="65.68425728803537"
    y2="95.05551556357571"
    stroke="hsla(0,50%,50%,0.6)"
    stroke-width="1"
    transform="translate(-86.2601776513,-84.2746678192)"
    />
  
  <line
    x1="64.93804901309952"
    y1="76.80522706051043"
    x2="64.35892514269283"
    y2="77.43964246506432"
    stroke="hsla(0,50%,50%,0.6)"
    stroke-width="1"
    transform="translate(-86.2601776513,-84.2746678192)"
    />
  
  <line
    x1="80.8263440272943"
    y1="97.77230711542964"
    x2="73.04318290581303"
    y2="107.99952000147294"
    stroke="hsla(0,50%,50%,0.6)"
    stroke-width="1"
    transform="translate(-86.2601776513,-84.2746678192)"
    />
  
  <line
    x1="105.9057464659072"
    y1="56.92341883200955"
    x2="99.44314350572282"
    y2="58.64873143998087"
    stroke="hsla(0,50%,50%,0.6)"
    stroke-width="1"
    transform="translate(-86.2601776513,-84.2746678192)"
    />
  
  <line
    x1="64.60540000158491"
    y1="80.7157041311718"
    x2="74.84658463219036"
    y2="80.77234805901672"
    stroke="hsla(0,50%,50%,0.6)"
    stroke-width="1"
    transform="translate(-86.2601776513,-84.2746678192)"
    />
  
  <line
    x1="99.44314350572282"
    y1="58.64873143998087"
    x2="65.1531466479841"
    y2="87.99616997289428"
    stroke="hsla(0,50%,50%,0.6)"
    stroke-width="1"
    transform="translate(-86.2601776513,-84.2746678192)"
    />
  
  <line
    x1="95.61112936909116"
    y1="95.0641898412599"
    x2="82.40278495055566"
    y2="111.79109045351083"
    stroke="hsla(0,50%,50%,0.6)"
    stroke-width="1"
    transform="translate(-86.2601776513,-84.2746678192)"
    />
  
  <line
    x1="106.84067048139163"
    y1="70.99243446207669"
    x2="64.93804901309952"
    y2="76.80522706051043"
    stroke="hsla(0,50%,50%,0.6)"
    stroke-width="1"
    transform="translate(-86.2601776513,-84.2746678192)"
    />
  
  <line
    x1="77.90487755197894"
    y1="81.83425532283219"
    x2="65.50932644182132"
    y2="92.73039306598058"
    stroke="hsla(0,50%,50%,0.6)"
    stroke-width="1"
    transform="translate(-86.2601776513,-84.2746678192)"
    />
  
  <line
    x1="104.74157559134527"
    y1="55.86070954429114"
    x2="64.33506603918116"
    y2="77.12251521422185"
    stroke="hsla(0,50%,50%,0.6)"
    stroke-width="1"
    transform="translate(-86.2601776513,-84.2746678192)"
    />
  
  <line
    x1="101.5109060167548"
    y1="74.92193939678664"
    x2="64.60540000158491"
    y2="80.7157041311718"
    stroke="hsla(0,50%,50%,0.6)"
    stroke-width="1"
    transform="translate(-86.2601776513,-84.2746678192)"
    />
  
  <line
    x1="95.61112936909116"
    y1="95.0641898412599"
    x2="65.82944893459647"
    y2="96.98535453245034"
    stroke="hsla(0,50%,50%,0.6)"
    stroke-width="1"
    transform="translate(-86.2601776513,-84.2746678192)"
    />
  
  <line
    x1="96.77314695523957"
    y1="94.32484034079874"
    x2="65.82944893459647"
    y2="96.98535453245034"
    stroke="hsla(0,50%,50%,0.6)"
    stroke-width="1"
    transform="translate(-86.2601776513,-84.2746678192)"
    />
  
  <line
    x1="108.18528926351709"
    y1="107.34416367312168"
    x2="105.13707392319482"
    y2="110.46540380006772"
    stroke="hsla(0,50%,50%,0.6)"
    stroke-width="1"
    transform="translate(-86.2601776513,-84.2746678192)"
    />
  
  <line
    x1="105.13707392319482"
    y1="110.46540380006772"
    x2="67.01088629348135"
    y2="112.6886260942951"
    stroke="hsla(0,50%,50%,0.6)"
    stroke-width="1"
    transform="translate(-86.2601776513,-84.2746678192)"
    />
  
  <line
    x1="92.87132414031258"
    y1="110.30426871529743"
    x2="67.01088629348135"
    y2="112.6886260942951"
    stroke="hsla(0,50%,50%,0.6)"
    stroke-width="1"
    transform="translate(-86.2601776513,-84.2746678192)"
    />
  
</svg>
