<?xml version="1.0"?>
<!DOCTYPE svg PUBLIC "-//W3C//DTD SVG 1.1//EN"
  "http://www.w3.org/Graphics/SVG/1.1/DTD/svg11.dtd">
<svg
  width="240"
  height="240"
  viewBox="-500 -500 1000 1000" xmlns="http://www.w3.org/2000/svg" version="1.1">
  <rect
    x="0"
    y="0"
    width="100"
    height="100"
    fill="hsla(206,100%,53%,0.3)"
    stroke="hsl(206,100%,53%)"
    stroke-width="3"
    transform="" />
  
  <path
    d="M 
      4.2712626451
      -3.9340576995
      L
    
      7.6068079194
      0
      L
    
      92.3931920805
      0
      L
    
      95.7287373548
      -3.9340576995
      L
    
      96.0526315789
      0
      L
    
      94.8021722265
      1.3576415826
      L
    
      98.5294117647
      1.4705882352
      L
    
      99.9082568807
      3.0275229357
      L
    
      97.1403812824
      2.8596187175
      L
    
      50
      50
      L
    
      2.8596187175
      2.8596187175
      L
    
      0.0917431192
      3.0275229357
      L
    
      1.4705882352
      1.4705882352
      L
    
      5.1978277734
      1.3576415826
      L
    
      3.9473684210
      0
      z
    "
    fill="hsla(0,0%,50%,0.3)"
    stroke="hsla(0,0%,50%,1)"
    stroke-width="1"
    transform="translate(-50,-23.0329711502)"
    />
  
  
  <line
    x1="98.52941176470588"
    y1="1.4705882352941178"
    x2="99.90825688073394"
    y2="3.0275229357798166"
    stroke="hsla(0,50%,50%,0.6)"
    stroke-width="1"
    transform="translate(-50,-23.0329711502)"
    />
  
  <line
    x1="95.72873735481454"
    y1="-3.9340576995129264"
    x2="96.05263157894737"
    y2="0"
    stroke="hsla(0,50%,50%,0.6)"
    stroke-width="1"
    transform="translate(-50,-23.0329711502)"
    />
  
  <line
    x1="4.2712626451854625"
    y1="-3.9340576995129264"
    x2="50"
    y2="50"
    stroke="hsla(0,50%,50%,0.6)"
    stroke-width="1"
    transform="translate(-50,-23.0329711502)"
    />
  
  <line
    x1="50"
    y1="0"
    x2="99.90825688073394"
    y2="3.0275229357798166"
    stroke="hsla(0,50%,50%,0.6)"
    stroke-width="1"
    transform="translate(-50,-23.0329711502)"
    />
  
  <line
    x1="3.9473684210526314"
    y1="0"
    x2="50"
    y2="50"
    stroke="hsla(0,50%,50%,0.6)"
    stroke-width="1"
    transform="translate(-50,-23.0329711502)"
    />
  
  <line
    x1="50"
    y1="0"
    x2="98.52941176470588"
    y2="1.4705882352941178"
    stroke="hsla(0,50%,50%,0.6)"
    stroke-width="1"
    transform="translate(-50,-23.0329711502)"
    />
  
  <line
    x1="3.9473684210526314"
    y1="0"
    x2="96.05263157894737"
    y2="0"
    stroke="hsla(0,50%,50%,0.6)"
    stroke-width="1"
    transform="translate(-50,-23.0329711502)"
    />
  
  <line
    x1="1.4705882352941178"
    y1="1.4705882352941178"
    x2="50"
    y2="50"
    stroke="hsla(0,50%,50%,0.6)"
    stroke-width="1"
    transform="translate(-50,-23.0329711502)"
    />
  
  <line
    x1="50"
    y1="0"
    x2="50"
    y2="50"
    stroke="hsla(0,50%,50%,0.6)"
    stroke-width="1"
    transform="translate(-50,-23.0329711502)"
    />
  
  <line
    x1="4.2712626451854625"
    y1="-3.9340576995129264"
    x2="3.9473684210526314"
    y2="0"
    stroke="hsla(0,50%,50%,0.6)"
    stroke-width="1"
    transform="translate(-50,-23.0329711502)"
    />
  
  <line
    x1="1.4705882352941178"
    y1="1.4705882352941178"
    x2="0.09174311926605505"
    y2="3.0275229357798166"
    stroke="hsla(0,50%,50%,0.6)"
    stroke-width="1"
    transform="translate(-50,-23.0329711502)"
    />
  
  <line
    x1="50"
    y1="0"
    x2="1.4705882352941178"
    y2="1.4705882352941178"
    stroke="hsla(0,50%,50%,0.6)"
    stroke-width="1"
    transform="translate(-50,-23.0329711502)"
    />
  
  <line
    x1="50"
    y1="0"
    x2="0.09174311926605505"
    y2="3.0275229357798166"
    stroke="hsla(0,50%,50%,0.6)"
    stroke-width="1"
    transform="translate(-50,-23.0329711502)"
    />
  
  <line
    x1="95.72873735481454"
    y1="-3.9340576995129264"
    x2="50"
    y2="50"
    stroke="hsla(0,50%,50%,0.6)"
    stroke-width="1"
    transform="translate(-50,-23.0329711502)"
    />
  
  <line
    x1="96.05263157894737"
    y1="0"
    x2="50"
    y2="50"
    stroke="hsla(0,50%,50%,0.6)"
    stroke-width="1"
    transform="translate(-50,-23.0329711502)"
    />
  
  <line
    x1="98.52941176470588"
    y1="1.4705882352941178"
    x2="50"
    y2="50"
    stroke="hsla(0,50%,50%,0.6)"
    stroke-width="1"
    transform="translate(-50,-23.0329711502)"
    />
  
</svg>
