<?xml version="1.0"?>
<!DOCTYPE svg PUBLIC "-//W3C//DTD SVG 1.1//EN"
  "http://www.w3.org/Graphics/SVG/1.1/DTD/svg11.dtd">
<svg
  width="240"
  height="240"
  viewBox="-50 -50 200 200" xmlns="http://www.w3.org/2000/svg" version="1.1">
  <rect
    x="0"
    y="0"
    width="100"
    height="100"
    fill="hsla(206,100%,53%,0.3)"
    stroke="hsl(206,100%,53%)"
    stroke-width="3"
    transform="" />
  
  <path
    d="M 
      12345678901234567890123456789012345678901234567890123456789050
      50
      L
    
      12345678901234567890123456789012345678901234567890123456789075
      75
      L
    
      12345678901234567890123456789012345678901234567890123456789075
      100
      L
    
      12345678901234567890123456789012345678901234567890123456789100
      100
      L
    
      12345678901234567890123456789012345678901234567890123456789075
      125
      L
    
      12345678901234567890123456789012345678901234567890123456789050
      125
      L
    
      12345678901234567890123456789012345678901234567890123456789050
      150
      L
    
      12345678901234567890123456789012345678901234567890123456789025
      125
      L
    
      12345678901234567890123456789012345678901234567890123456789025
      100
      L
    
      12345678901234567890123456789012345678901234567890123456789000
      100
      L
    
      12345678901234567890123456789012345678901234567890123456789025
      75
      L
    
      12345678901234567890123456789012345678901234567890123456789050
      75
      z
    "
    fill="hsla(0,0%,50%,0.3)"
    stroke="hsla(0,0%,50%,1)"
    stroke-width="1"
    transform="translate(-12345678901234567890123456789012345678901234567890123456789035.3881835937,-83.0688476562) scale(1,-1) translate(50,-110)"
    />
  
  
  <line
    x1="1.2345678901234567e+61"
    y1="50"
    x2="1.2345678901234567e+61"
    y2="75"
    stroke="hsla(0,50%,50%,0.6)"
    stroke-width="1"
    transform="translate(-12345678901234567890123456789012345678901234567890123456789035.3881835937,-83.0688476562) scale(1,-1) translate(50,-110)"
    />
  
  <line
    x1="1.2345678901234567e+61"
    y1="75"
    x2="1.2345678901234567e+61"
    y2="125"
    stroke="hsla(0,50%,50%,0.6)"
    stroke-width="1"
    transform="translate(-12345678901234567890123456789012345678901234567890123456789035.3881835937,-83.0688476562) scale(1,-1) translate(50,-110)"
    />
  
  <line
    x1="1.2345678901234567e+61"
    y1="125"
    x2="1.2345678901234567e+61"
    y2="150"
    stroke="hsla(0,50%,50%,0.6)"
    stroke-width="1"
    transform="translate(-12345678901234567890123456789012345678901234567890123456789035.3881835937,-83.0688476562) scale(1,-1) translate(50,-110)"
    />
  
  <line
    x1="1.2345678901234567e+61"
    y1="75"
    x2="1.2345678901234567e+61"
    y2="125"
    stroke="hsla(0,50%,50%,0.6)"
    stroke-width="1"
    transform="translate(-12345678901234567890123456789012345678901234567890123456789035.3881835937,-83.0688476562) scale(1,-1) translate(50,-110)"
    />
  
  <line
    x1="1.2345678901234567e+61"
    y1="50"
    x2="1.2345678901234567e+61"
    y2="150"
    stroke="hsla(0,50%,50%,0.6)"
    stroke-width="1"
    transform="translate(-12345678901234567890123456789012345678901234567890123456789035.3881835937,-83.0688476562) scale(1,-1) translate(50,-110)"
    />
  
  <line
    x1="1.2345678901234567e+61"
    y1="75"
    x2="1.2345678901234567e+61"
    y2="125"
    stroke="hsla(0,50%,50%,0.6)"
    stroke-width="1"
    transform="translate(-12345678901234567890123456789012345678901234567890123456789035.3881835937,-83.0688476562) scale(1,-1) translate(50,-110)"
    />
  
  <line
    x1="1.2345678901234567e+61"
    y1="75"
    x2="1.2345678901234567e+61"
    y2="75"
    stroke="hsla(0,50%,50%,0.6)"
    stroke-width="1"
    transform="translate(-12345678901234567890123456789012345678901234567890123456789035.3881835937,-83.0688476562) scale(1,-1) translate(50,-110)"
    />
  
  <line
    x1="1.2345678901234567e+61"
    y1="100"
    x2="1.2345678901234567e+61"
    y2="100"
    stroke="hsla(0,50%,50%,0.6)"
    stroke-width="1"
    transform="translate(-12345678901234567890123456789012345678901234567890123456789035.3881835937,-83.0688476562) scale(1,-1) translate(50,-110)"
    />
  
  <line
    x1="1.2345678901234567e+61"
    y1="125"
    x2="1.2345678901234567e+61"
    y2="125"
    stroke="hsla(0,50%,50%,0.6)"
    stroke-width="1"
    transform="translate(-12345678901234567890123456789012345678901234567890123456789035.3881835937,-83.0688476562) scale(1,-1) translate(50,-110)"
    />
  
  <line
    x1="1.2345678901234567e+61"
    y1="75"
    x2="1.2345678901234567e+61"
    y2="100"
    stroke="hsla(0,50%,50%,0.6)"
    stroke-width="1"
    transform="translate(-12345678901234567890123456789012345678901234567890123456789035.3881835937,-83.0688476562) scale(1,-1) translate(50,-110)"
    />
  
  <line
    x1="1.2345678901234567e+61"
    y1="75"
    x2="1.2345678901234567e+61"
    y2="125"
    stroke="hsla(0,50%,50%,0.6)"
    stroke-width="1"
    transform="translate(-12345678901234567890123456789012345678901234567890123456789035.3881835937,-83.0688476562) scale(1,-1) translate(50,-110)"
    />
  
  <line
    x1="1.2345678901234567e+61"
    y1="100"
    x2="1.2345678901234567e+61"
    y2="125"
    stroke="hsla(0,50%,50%,0.6)"
    stroke-width="1"
    transform="translate(-12345678901234567890123456789012345678901234567890123456789035.3881835937,-83.0688476562) scale(1,-1) translate(50,-110)"
    />
  
</svg>
