<?xml version="1.0"?>
<!DOCTYPE svg PUBLIC "-//W3C//DTD SVG 1.1//EN"
  "http://www.w3.org/Graphics/SVG/1.1/DTD/svg11.dtd">
<svg
  width="240"
  height="240"
  viewBox="-50 -50 200 200" xmlns="http://www.w3.org/2000/svg" version="1.1">
  <rect
    x="0"
    y="0"
    width="100"
    height="100"
    fill="hsla(206,100%,53%,0.3)"
    stroke="hsl(206,100%,53%)"
    stroke-width="3"
    transform="" />
  
  <path
    d="M 
      125.9822606453
      -101.1069414678
      L
    
      137.5199164613
      -99.8461994957
      L
    
      162.1419971068
      -23.4789758803
      L
    
      156.4785424440
      -13.0266229880
      L
    
      106.2045496288
      -15.5158385413
      L
    
      88.0530345671
      -25.3509717091
      L
    
      108.2107214619
      -73.4778667834
      L
    
      116.0166668205
      -80.5005695344
      z
    "
    fill="hsla(0,0%,50%,0.3)"
    stroke="hsla(0,0%,50%,1)"
    stroke-width="1"
    transform="translate(-112.1874613633,65.1022502158) scale(1,-1) translate(50,-110)"
    />
  
  
  <line
    x1="125.98226064532398"
    y1="-101.10694146787264"
    x2="137.51991646136216"
    y2="-99.84619949578946"
    stroke="hsla(0,50%,50%,0.6)"
    stroke-width="1"
    transform="translate(-112.1874613633,65.1022502158) scale(1,-1) translate(50,-110)"
    />
  
  <line
    x1="102.41040282022753"
    y1="-52.36619625500624"
    x2="162.141997106847"
    y2="-23.47897588031938"
    stroke="hsla(0,50%,50%,0.6)"
    stroke-width="1"
    transform="translate(-112.1874613633,65.1022502158) scale(1,-1) translate(50,-110)"
    />
  
  <line
    x1="96.20967377669373"
    y1="-44.82511680547324"
    x2="102.58083298300528"
    y2="-41.82133420619098"
    stroke="hsla(0,50%,50%,0.6)"
    stroke-width="1"
    transform="translate(-112.1874613633,65.1022502158) scale(1,-1) translate(50,-110)"
    />
  
  <line
    x1="96.20967377669373"
    y1="-44.82511680547324"
    x2="109.72082494406308"
    y2="-39.85131802779372"
    stroke="hsla(0,50%,50%,0.6)"
    stroke-width="1"
    transform="translate(-112.1874613633,65.1022502158) scale(1,-1) translate(50,-110)"
    />
  
  <line
    x1="91.09263835122633"
    y1="-32.60808871596387"
    x2="95.17239403698642"
    y2="-29.211006028787494"
    stroke="hsla(0,50%,50%,0.6)"
    stroke-width="1"
    transform="translate(-112.1874613633,65.1022502158) scale(1,-1) translate(50,-110)"
    />
  
  <line
    x1="148.05205612747264"
    y1="-33.09080805573298"
    x2="156.4785424440907"
    y2="-13.026622988018755"
    stroke="hsla(0,50%,50%,0.6)"
    stroke-width="1"
    transform="translate(-112.1874613633,65.1022502158) scale(1,-1) translate(50,-110)"
    />
  
  <line
    x1="88.05303456716678"
    y1="-25.350971709109775"
    x2="106.20454962881075"
    y2="-15.515838541372714"
    stroke="hsla(0,50%,50%,0.6)"
    stroke-width="1"
    transform="translate(-112.1874613633,65.1022502158) scale(1,-1) translate(50,-110)"
    />
  
  <line
    x1="137.51991646136216"
    y1="-99.84619949578946"
    x2="162.141997106847"
    y2="-23.47897588031938"
    stroke="hsla(0,50%,50%,0.6)"
    stroke-width="1"
    transform="translate(-112.1874613633,65.1022502158) scale(1,-1) translate(50,-110)"
    />
  
  <line
    x1="88.05303456716678"
    y1="-25.350971709109775"
    x2="89.35167143645006"
    y2="-24.953893703413108"
    stroke="hsla(0,50%,50%,0.6)"
    stroke-width="1"
    transform="translate(-112.1874613633,65.1022502158) scale(1,-1) translate(50,-110)"
    />
  
  <line
    x1="91.09263835122633"
    y1="-32.60808871596387"
    x2="101.56306047764613"
    y2="-31.5686968600007"
    stroke="hsla(0,50%,50%,0.6)"
    stroke-width="1"
    transform="translate(-112.1874613633,65.1022502158) scale(1,-1) translate(50,-110)"
    />
  
  <line
    x1="92.46068090887849"
    y1="-35.8743186645193"
    x2="95.17239403698642"
    y2="-29.211006028787494"
    stroke="hsla(0,50%,50%,0.6)"
    stroke-width="1"
    transform="translate(-112.1874613633,65.1022502158) scale(1,-1) translate(50,-110)"
    />
  
  <line
    x1="125.98226064532398"
    y1="-101.10694146787264"
    x2="136.56087052996898"
    y2="-56.48516528339316"
    stroke="hsla(0,50%,50%,0.6)"
    stroke-width="1"
    transform="translate(-112.1874613633,65.1022502158) scale(1,-1) translate(50,-110)"
    />
  
  <line
    x1="150.43942045860305"
    y1="-59.775392119111395"
    x2="136.56087052996898"
    y2="-56.48516528339316"
    stroke="hsla(0,50%,50%,0.6)"
    stroke-width="1"
    transform="translate(-112.1874613633,65.1022502158) scale(1,-1) translate(50,-110)"
    />
  
  <line
    x1="106.20454962881075"
    y1="-15.515838541372714"
    x2="156.4785424440907"
    y2="-13.026622988018755"
    stroke="hsla(0,50%,50%,0.6)"
    stroke-width="1"
    transform="translate(-112.1874613633,65.1022502158) scale(1,-1) translate(50,-110)"
    />
  
  <line
    x1="108.21072146197062"
    y1="-73.47786678348936"
    x2="109.72082494406308"
    y2="-39.85131802779372"
    stroke="hsla(0,50%,50%,0.6)"
    stroke-width="1"
    transform="translate(-112.1874613633,65.1022502158) scale(1,-1) translate(50,-110)"
    />
  
  <line
    x1="89.39160729474366"
    y1="-28.54684182782492"
    x2="89.35167143645006"
    y2="-24.953893703413108"
    stroke="hsla(0,50%,50%,0.6)"
    stroke-width="1"
    transform="translate(-112.1874613633,65.1022502158) scale(1,-1) translate(50,-110)"
    />
  
  <line
    x1="150.43942045860305"
    y1="-59.775392119111395"
    x2="92.46068090887849"
    y2="-35.8743186645193"
    stroke="hsla(0,50%,50%,0.6)"
    stroke-width="1"
    transform="translate(-112.1874613633,65.1022502158) scale(1,-1) translate(50,-110)"
    />
  
  <line
    x1="102.58083298300528"
    y1="-41.82133420619098"
    x2="101.56306047764613"
    y2="-31.5686968600007"
    stroke="hsla(0,50%,50%,0.6)"
    stroke-width="1"
    transform="translate(-112.1874613633,65.1022502158) scale(1,-1) translate(50,-110)"
    />
  
  <line
    x1="137.51991646136216"
    y1="-99.84619949578946"
    x2="108.21072146197062"
    y2="-73.47786678348936"
    stroke="hsla(0,50%,50%,0.6)"
    stroke-width="1"
    transform="translate(-112.1874613633,65.1022502158) scale(1,-1) translate(50,-110)"
    />
  
  <line
    x1="148.05205612747264"
    y1="-33.09080805573298"
    x2="106.20454962881075"
    y2="-15.515838541372714"
    stroke="hsla(0,50%,50%,0.6)"
    stroke-width="1"
    transform="translate(-112.1874613633,65.1022502158) scale(1,-1) translate(50,-110)"
    />
  
  <line
    x1="109.72082494406308"
    y1="-39.85131802779372"
    x2="89.35167143645006"
    y2="-24.953893703413108"
    stroke="hsla(0,50%,50%,0.6)"
    stroke-width="1"
    transform="translate(-112.1874613633,65.1022502158) scale(1,-1) translate(50,-110)"
    />
  
  <line
    x1="108.21072146197062"
    y1="-73.47786678348936"
    x2="88.05303456716678"
    y2="-25.350971709109775"
    stroke="hsla(0,50%,50%,0.6)"
    stroke-width="1"
    transform="translate(-112.1874613633,65.1022502158) scale(1,-1) translate(50,-110)"
    />
  
  <line
    x1="125.98226064532398"
    y1="-101.10694146787264"
    x2="102.41040282022753"
    y2="-52.36619625500624"
    stroke="hsla(0,50%,50%,0.6)"
    stroke-width="1"
    transform="translate(-112.1874613633,65.1022502158) scale(1,-1) translate(50,-110)"
    />
  
  <line
    x1="102.58083298300528"
    y1="-41.82133420619098"
    x2="89.39160729474366"
    y2="-28.54684182782492"
    stroke="hsla(0,50%,50%,0.6)"
    stroke-width="1"
    transform="translate(-112.1874613633,65.1022502158) scale(1,-1) translate(50,-110)"
    />
  
  <line
    x1="162.141997106847"
    y1="-23.47897588031938"
    x2="156.4785424440907"
    y2="-13.026622988018755"
    stroke="hsla(0,50%,50%,0.6)"
    stroke-width="1"
    transform="translate(-112.1874613633,65.1022502158) scale(1,-1) translate(50,-110)"
    />
  
</svg>
