<?xml version="1.0"?>
<!DOCTYPE svg PUBLIC "-//W3C//DTD SVG 1.1//EN"
  "http://www.w3.org/Graphics/SVG/1.1/DTD/svg11.dtd">
<svg
  width="240"
  height="240"
  viewBox="-50 -50 200 200" xmlns="http://www.w3.org/2000/svg" version="1.1">
  <rect
    x="0"
    y="0"
    width="100"
    height="100"
    fill="hsla(206,100%,53%,0.3)"
    stroke="hsl(206,100%,53%)"
    stroke-width="3"
    transform="" />
  
  <path
    d="M 
      29.6398279293
      16.7395288167
      L
    
      100.4761072538
      33.4826493843
      L
    
      99.8162356890
      39.4363777886
      L
    
      97.5071508910
      41.5205620299
      L
    
      79.9529022825
      89.0455168062
      L
    
      66.9247568795
      92.4447018417
      L
    
      47.9933469464
      57.0209742623
      L
    
      55.0462865490
      53.2516902266
      L
    
      51.5675959161
      48.2523900177
      L
    
      37.8263459232
      51.9531475407
      L
    
      28.5086121106
      17.3555526187
      z
    "
    fill="hsla(0,0%,50%,0.3)"
    stroke="hsla(0,0%,50%,1)"
    stroke-width="1"
    transform="translate(-37.4702656388,-35.2361235646) scale(1,-1) translate(50,-110)"
    />
  
  
  <line
    x1="94.62510597118516"
    y1="32.09968544480886"
    x2="99.81623568908469"
    y2="39.436377788686485"
    stroke="hsla(0,50%,50%,0.6)"
    stroke-width="1"
    transform="translate(-37.4702656388,-35.2361235646) scale(1,-1) translate(50,-110)"
    />
  
  <line
    x1="75.38772575424012"
    y1="33.63328536299038"
    x2="87.6402323071756"
    y2="66.39229255037064"
    stroke="hsla(0,50%,50%,0.6)"
    stroke-width="1"
    transform="translate(-37.4702656388,-35.2361235646) scale(1,-1) translate(50,-110)"
    />
  
  <line
    x1="79.87216813984305"
    y1="28.612627411946182"
    x2="82.90938454486493"
    y2="39.811501444069584"
    stroke="hsla(0,50%,50%,0.6)"
    stroke-width="1"
    transform="translate(-37.4702656388,-35.2361235646) scale(1,-1) translate(50,-110)"
    />
  
  <line
    x1="69.85968720315701"
    y1="72.39527630164258"
    x2="71.79202695729698"
    y2="77.31734950904014"
    stroke="hsla(0,50%,50%,0.6)"
    stroke-width="1"
    transform="translate(-37.4702656388,-35.2361235646) scale(1,-1) translate(50,-110)"
    />
  
  <line
    x1="29.639827929339507"
    y1="16.739528816736257"
    x2="79.95290228251405"
    y2="89.04551680620432"
    stroke="hsla(0,50%,50%,0.6)"
    stroke-width="1"
    transform="translate(-37.4702656388,-35.2361235646) scale(1,-1) translate(50,-110)"
    />
  
  <line
    x1="47.993346946436596"
    y1="57.020974262352645"
    x2="66.92475687957361"
    y2="92.44470184177504"
    stroke="hsla(0,50%,50%,0.6)"
    stroke-width="1"
    transform="translate(-37.4702656388,-35.2361235646) scale(1,-1) translate(50,-110)"
    />
  
  <line
    x1="28.508612110693996"
    y1="17.355552618785755"
    x2="71.5042782016218"
    y2="64.99080337194542"
    stroke="hsla(0,50%,50%,0.6)"
    stroke-width="1"
    transform="translate(-37.4702656388,-35.2361235646) scale(1,-1) translate(50,-110)"
    />
  
  <line
    x1="28.508612110693996"
    y1="17.355552618785755"
    x2="37.82634592329677"
    y2="51.95314754075567"
    stroke="hsla(0,50%,50%,0.6)"
    stroke-width="1"
    transform="translate(-37.4702656388,-35.2361235646) scale(1,-1) translate(50,-110)"
    />
  
  <line
    x1="88.2106468063246"
    y1="30.58354055129637"
    x2="90.0015774666936"
    y2="61.84054527265175"
    stroke="hsla(0,50%,50%,0.6)"
    stroke-width="1"
    transform="translate(-37.4702656388,-35.2361235646) scale(1,-1) translate(50,-110)"
    />
  
  <line
    x1="66.79851637808787"
    y1="86.01566322732428"
    x2="66.92475687957361"
    y2="92.44470184177504"
    stroke="hsla(0,50%,50%,0.6)"
    stroke-width="1"
    transform="translate(-37.4702656388,-35.2361235646) scale(1,-1) translate(50,-110)"
    />
  
  <line
    x1="71.79202695729698"
    y1="77.31734950904014"
    x2="81.18574970536831"
    y2="85.70780527416395"
    stroke="hsla(0,50%,50%,0.6)"
    stroke-width="1"
    transform="translate(-37.4702656388,-35.2361235646) scale(1,-1) translate(50,-110)"
    />
  
  <line
    x1="29.639827929339507"
    y1="16.739528816736257"
    x2="100.47610725389765"
    y2="33.482649384359085"
    stroke="hsla(0,50%,50%,0.6)"
    stroke-width="1"
    transform="translate(-37.4702656388,-35.2361235646) scale(1,-1) translate(50,-110)"
    />
  
  <line
    x1="100.47610725389765"
    y1="33.482649384359085"
    x2="99.81623568908469"
    y2="39.436377788686485"
    stroke="hsla(0,50%,50%,0.6)"
    stroke-width="1"
    transform="translate(-37.4702656388,-35.2361235646) scale(1,-1) translate(50,-110)"
    />
  
  <line
    x1="75.38772575424012"
    y1="33.63328536299038"
    x2="68.16546124639882"
    y2="72.1055348841866"
    stroke="hsla(0,50%,50%,0.6)"
    stroke-width="1"
    transform="translate(-37.4702656388,-35.2361235646) scale(1,-1) translate(50,-110)"
    />
  
  <line
    x1="29.639827929339507"
    y1="16.739528816736257"
    x2="28.508612110693996"
    y2="17.355552618785755"
    stroke="hsla(0,50%,50%,0.6)"
    stroke-width="1"
    transform="translate(-37.4702656388,-35.2361235646) scale(1,-1) translate(50,-110)"
    />
  
  <line
    x1="100.47610725389765"
    y1="33.482649384359085"
    x2="79.95290228251405"
    y2="89.04551680620432"
    stroke="hsla(0,50%,50%,0.6)"
    stroke-width="1"
    transform="translate(-37.4702656388,-35.2361235646) scale(1,-1) translate(50,-110)"
    />
  
  <line
    x1="88.2106468063246"
    y1="30.58354055129637"
    x2="82.90938454486493"
    y2="39.811501444069584"
    stroke="hsla(0,50%,50%,0.6)"
    stroke-width="1"
    transform="translate(-37.4702656388,-35.2361235646) scale(1,-1) translate(50,-110)"
    />
  
  <line
    x1="79.87216813984305"
    y1="28.612627411946182"
    x2="75.38772575424012"
    y2="33.63328536299038"
    stroke="hsla(0,50%,50%,0.6)"
    stroke-width="1"
    transform="translate(-37.4702656388,-35.2361235646) scale(1,-1) translate(50,-110)"
    />
  
  <line
    x1="82.90938454486493"
    y1="39.811501444069584"
    x2="37.82634592329677"
    y2="51.95314754075567"
    stroke="hsla(0,50%,50%,0.6)"
    stroke-width="1"
    transform="translate(-37.4702656388,-35.2361235646) scale(1,-1) translate(50,-110)"
    />
  
  <line
    x1="68.16546124639882"
    y1="72.1055348841866"
    x2="69.85968720315701"
    y2="72.39527630164258"
    stroke="hsla(0,50%,50%,0.6)"
    stroke-width="1"
    transform="translate(-37.4702656388,-35.2361235646) scale(1,-1) translate(50,-110)"
    />
  
  <line
    x1="94.62510597118516"
    y1="32.09968544480886"
    x2="47.993346946436596"
    y2="57.020974262352645"
    stroke="hsla(0,50%,50%,0.6)"
    stroke-width="1"
    transform="translate(-37.4702656388,-35.2361235646) scale(1,-1) translate(50,-110)"
    />
  
  <line
    x1="69.85968720315701"
    y1="72.39527630164258"
    x2="69.03270542654599"
    y2="73.35186991896272"
    stroke="hsla(0,50%,50%,0.6)"
    stroke-width="1"
    transform="translate(-37.4702656388,-35.2361235646) scale(1,-1) translate(50,-110)"
    />
  
  <line
    x1="99.81623568908469"
    y1="39.436377788686485"
    x2="71.5042782016218"
    y2="64.99080337194542"
    stroke="hsla(0,50%,50%,0.6)"
    stroke-width="1"
    transform="translate(-37.4702656388,-35.2361235646) scale(1,-1) translate(50,-110)"
    />
  
  <line
    x1="90.0015774666936"
    y1="61.84054527265175"
    x2="66.79851637808787"
    y2="86.01566322732428"
    stroke="hsla(0,50%,50%,0.6)"
    stroke-width="1"
    transform="translate(-37.4702656388,-35.2361235646) scale(1,-1) translate(50,-110)"
    />
  
  <line
    x1="87.6402323071756"
    y1="66.39229255037064"
    x2="69.03270542654599"
    y2="73.35186991896272"
    stroke="hsla(0,50%,50%,0.6)"
    stroke-width="1"
    transform="translate(-37.4702656388,-35.2361235646) scale(1,-1) translate(50,-110)"
    />
  
  <line
    x1="81.18574970536831"
    y1="85.70780527416395"
    x2="66.79851637808787"
    y2="86.01566322732428"
    stroke="hsla(0,50%,50%,0.6)"
    stroke-width="1"
    transform="translate(-37.4702656388,-35.2361235646) scale(1,-1) translate(50,-110)"
    />
  
  <line
    x1="79.95290228251405"
    y1="89.04551680620432"
    x2="66.92475687957361"
    y2="92.44470184177504"
    stroke="hsla(0,50%,50%,0.6)"
    stroke-width="1"
    transform="translate(-37.4702656388,-35.2361235646) scale(1,-1) translate(50,-110)"
    />
  
</svg>
