<?xml version="1.0"?>
<!DOCTYPE svg PUBLIC "-//W3C//DTD SVG 1.1//EN"
  "http://www.w3.org/Graphics/SVG/1.1/DTD/svg11.dtd">
<svg
  width="240"
  height="240"
  viewBox="-50 -50 200 200" xmlns="http://www.w3.org/2000/svg" version="1.1">
  <rect
    x="0"
    y="0"
    width="100"
    height="100"
    fill="hsla(206,100%,53%,0.3)"
    stroke="hsl(206,100%,53%)"
    stroke-width="3"
    transform="" />
  
  <path
    d="M 
      43.3902460264
      -123.6903820513
      L
    
      91.6446719683
      -104.2382087660
      L
    
      132.8064444164
      -93.0144990519
      L
    
      131.4873730160
      -88.1769437150
      L
    
      11.6134580760
      -28.6806991676
      L
    
      6.0021030042
      -30.9427310764
      L
    
      25.2492715051
      -78.6886077656
      L
    
      31.7936444812
      -102.6894059082
      L
    
      39.5549164200
      -118.4416859386
      L
    
      41.1041208405
      -118.0192595058
      z
    "
    fill="hsla(0,0%,50%,0.3)"
    stroke="hsla(0,0%,50%,1)"
    stroke-width="1"
    transform="translate(-38.1718609052,109.2867545207) scale(1,-1) translate(50,-110)"
    />
  
  
  <line
    x1="43.39024602643076"
    y1="-123.6903820513344"
    x2="131.48737301604893"
    y2="-88.1769437150733"
    stroke="hsla(0,50%,50%,0.6)"
    stroke-width="1"
    transform="translate(-38.1718609052,109.2867545207) scale(1,-1) translate(50,-110)"
    />
  
  <line
    x1="39.55491642002963"
    y1="-118.44168593866515"
    x2="132.8064444164669"
    y2="-93.01449905193957"
    stroke="hsla(0,50%,50%,0.6)"
    stroke-width="1"
    transform="translate(-38.1718609052,109.2867545207) scale(1,-1) translate(50,-110)"
    />
  
  <line
    x1="39.55491642002963"
    y1="-118.44168593866515"
    x2="42.21822164864601"
    y2="-116.41958304865396"
    stroke="hsla(0,50%,50%,0.6)"
    stroke-width="1"
    transform="translate(-38.1718609052,109.2867545207) scale(1,-1) translate(50,-110)"
    />
  
  <line
    x1="6.002103004275346"
    y1="-30.942731076472217"
    x2="11.613458076074943"
    y2="-28.680699167659746"
    stroke="hsla(0,50%,50%,0.6)"
    stroke-width="1"
    transform="translate(-38.1718609052,109.2867545207) scale(1,-1) translate(50,-110)"
    />
  
  <line
    x1="42.21822164864601"
    y1="-116.41958304865396"
    x2="31.793644481275766"
    y2="-102.68940590825204"
    stroke="hsla(0,50%,50%,0.6)"
    stroke-width="1"
    transform="translate(-38.1718609052,109.2867545207) scale(1,-1) translate(50,-110)"
    />
  
  <line
    x1="131.48737301604893"
    y1="-88.1769437150733"
    x2="11.613458076074943"
    y2="-28.680699167659746"
    stroke="hsla(0,50%,50%,0.6)"
    stroke-width="1"
    transform="translate(-38.1718609052,109.2867545207) scale(1,-1) translate(50,-110)"
    />
  
  <line
    x1="39.55491642002963"
    y1="-118.44168593866515"
    x2="31.793644481275766"
    y2="-102.68940590825204"
    stroke="hsla(0,50%,50%,0.6)"
    stroke-width="1"
    transform="translate(-38.1718609052,109.2867545207) scale(1,-1) translate(50,-110)"
    />
  
  <line
    x1="43.39024602643076"
    y1="-123.6903820513344"
    x2="6.002103004275346"
    y2="-30.942731076472217"
    stroke="hsla(0,50%,50%,0.6)"
    stroke-width="1"
    transform="translate(-38.1718609052,109.2867545207) scale(1,-1) translate(50,-110)"
    />
  
  <line
    x1="31.793644481275766"
    y1="-102.68940590825204"
    x2="11.613458076074943"
    y2="-28.680699167659746"
    stroke="hsla(0,50%,50%,0.6)"
    stroke-width="1"
    transform="translate(-38.1718609052,109.2867545207) scale(1,-1) translate(50,-110)"
    />
  
  <line
    x1="132.8064444164669"
    y1="-93.01449905193957"
    x2="131.48737301604893"
    y2="-88.1769437150733"
    stroke="hsla(0,50%,50%,0.6)"
    stroke-width="1"
    transform="translate(-38.1718609052,109.2867545207) scale(1,-1) translate(50,-110)"
    />
  
</svg>
