<?xml version="1.0"?>
<!DOCTYPE svg PUBLIC "-//W3C//DTD SVG 1.1//EN"
  "http://www.w3.org/Graphics/SVG/1.1/DTD/svg11.dtd">
<svg
  width="240"
  height="240"
  viewBox="-50 -50 200 200" xmlns="http://www.w3.org/2000/svg" version="1.1">
  <rect
    x="0"
    y="0"
    width="100"
    height="100"
    fill="hsla(206,100%,53%,0.3)"
    stroke="hsl(206,100%,53%)"
    stroke-width="3"
    transform="" />
  
  <path
    d="M 
      67.1801287564
      0
      L
    
      100
      0
      L
    
      100
      5.3873117834
      L
    
      133.4730780487
      10.8818460691
      L
    
      130.3198946403
      30.0912547001
      L
    
      160.5755231015
      46.1182757282
      L
    
      162.9621200985
      57.4339729817
      L
    
      130.1035561650
      64.3641822524
      L
    
      76.7995898124
      21.9234728678
      L
    
      67.0044274610
      2.1550932232
      z
    "
    fill="hsla(0,0%,50%,0.3)"
    stroke="hsla(0,0%,50%,1)"
    stroke-width="1"
    transform="translate(-87.9643287723,-20.2109915017) scale(1,-1) translate(50,-110)"
    />
  
  
  <line
    x1="134.70965390137107"
    y1="32.41659935710657"
    x2="143.39711701192147"
    y2="54.77766230510606"
    stroke="hsla(0,50%,50%,0.6)"
    stroke-width="1"
    transform="translate(-87.9643287723,-20.2109915017) scale(1,-1) translate(50,-110)"
    />
  
  <line
    x1="160.57552310157038"
    y1="46.11827572829049"
    x2="162.96212009858968"
    y2="57.433972981781835"
    stroke="hsla(0,50%,50%,0.6)"
    stroke-width="1"
    transform="translate(-87.9643287723,-20.2109915017) scale(1,-1) translate(50,-110)"
    />
  
  <line
    x1="86.54497633194828"
    y1="6.902791200465669"
    x2="160.57552310157038"
    y2="46.11827572829049"
    stroke="hsla(0,50%,50%,0.6)"
    stroke-width="1"
    transform="translate(-87.9643287723,-20.2109915017) scale(1,-1) translate(50,-110)"
    />
  
  <line
    x1="67.00442746104011"
    y1="2.1550932232334903"
    x2="76.50248299111193"
    y2="8.234626114273405"
    stroke="hsla(0,50%,50%,0.6)"
    stroke-width="1"
    transform="translate(-87.9643287723,-20.2109915017) scale(1,-1) translate(50,-110)"
    />
  
  <line
    x1="67.00442746104011"
    y1="2.1550932232334903"
    x2="76.79958981244854"
    y2="21.9234728678721"
    stroke="hsla(0,50%,50%,0.6)"
    stroke-width="1"
    transform="translate(-87.9643287723,-20.2109915017) scale(1,-1) translate(50,-110)"
    />
  
  <line
    x1="76.79958981244854"
    y1="21.9234728678721"
    x2="130.10355616502898"
    y2="64.36418225244836"
    stroke="hsla(0,50%,50%,0.6)"
    stroke-width="1"
    transform="translate(-87.9643287723,-20.2109915017) scale(1,-1) translate(50,-110)"
    />
  
  <line
    x1="86.54497633194828"
    y1="6.902791200465669"
    x2="95.42772318255581"
    y2="36.755224589844616"
    stroke="hsla(0,50%,50%,0.6)"
    stroke-width="1"
    transform="translate(-87.9643287723,-20.2109915017) scale(1,-1) translate(50,-110)"
    />
  
  <line
    x1="67.18012875648344"
    y1="0"
    x2="133.4730780487291"
    y2="10.881846069185096"
    stroke="hsla(0,50%,50%,0.6)"
    stroke-width="1"
    transform="translate(-87.9643287723,-20.2109915017) scale(1,-1) translate(50,-110)"
    />
  
  <line
    x1="129.64323501926273"
    y1="38.92249586036409"
    x2="130.10355616502898"
    y2="64.36418225244836"
    stroke="hsla(0,50%,50%,0.6)"
    stroke-width="1"
    transform="translate(-87.9643287723,-20.2109915017) scale(1,-1) translate(50,-110)"
    />
  
  <line
    x1="76.50248299111193"
    y1="8.234626114273405"
    x2="76.79958981244854"
    y2="21.9234728678721"
    stroke="hsla(0,50%,50%,0.6)"
    stroke-width="1"
    transform="translate(-87.9643287723,-20.2109915017) scale(1,-1) translate(50,-110)"
    />
  
  <line
    x1="67.18012875648344"
    y1="0"
    x2="100"
    y2="0"
    stroke="hsla(0,50%,50%,0.6)"
    stroke-width="1"
    transform="translate(-87.9643287723,-20.2109915017) scale(1,-1) translate(50,-110)"
    />
  
  <line
    x1="100"
    y1="0"
    x2="100"
    y2="40.395679229775745"
    stroke="hsla(0,50%,50%,0.6)"
    stroke-width="1"
    transform="translate(-87.9643287723,-20.2109915017) scale(1,-1) translate(50,-110)"
    />
  
  <line
    x1="67.18012875648344"
    y1="0"
    x2="67.00442746104011"
    y2="2.1550932232334903"
    stroke="hsla(0,50%,50%,0.6)"
    stroke-width="1"
    transform="translate(-87.9643287723,-20.2109915017) scale(1,-1) translate(50,-110)"
    />
  
  <line
    x1="129.64323501926273"
    y1="38.92249586036409"
    x2="126.37111725774169"
    y2="61.39240799624995"
    stroke="hsla(0,50%,50%,0.6)"
    stroke-width="1"
    transform="translate(-87.9643287723,-20.2109915017) scale(1,-1) translate(50,-110)"
    />
  
  <line
    x1="133.4730780487291"
    y1="10.881846069185096"
    x2="125.3193391112919"
    y2="60.55498043306894"
    stroke="hsla(0,50%,50%,0.6)"
    stroke-width="1"
    transform="translate(-87.9643287723,-20.2109915017) scale(1,-1) translate(50,-110)"
    />
  
  <line
    x1="95.42772318255581"
    y1="36.755224589844616"
    x2="129.64323501926273"
    y2="38.92249586036409"
    stroke="hsla(0,50%,50%,0.6)"
    stroke-width="1"
    transform="translate(-87.9643287723,-20.2109915017) scale(1,-1) translate(50,-110)"
    />
  
  <line
    x1="86.54497633194828"
    y1="6.902791200465669"
    x2="71.69244451572709"
    y2="11.616345379433563"
    stroke="hsla(0,50%,50%,0.6)"
    stroke-width="1"
    transform="translate(-87.9643287723,-20.2109915017) scale(1,-1) translate(50,-110)"
    />
  
  <line
    x1="76.50248299111193"
    y1="8.234626114273405"
    x2="71.69244451572709"
    y2="11.616345379433563"
    stroke="hsla(0,50%,50%,0.6)"
    stroke-width="1"
    transform="translate(-87.9643287723,-20.2109915017) scale(1,-1) translate(50,-110)"
    />
  
  <line
    x1="134.70965390137107"
    y1="32.41659935710657"
    x2="100"
    y2="40.395679229775745"
    stroke="hsla(0,50%,50%,0.6)"
    stroke-width="1"
    transform="translate(-87.9643287723,-20.2109915017) scale(1,-1) translate(50,-110)"
    />
  
  <line
    x1="162.96212009858968"
    y1="57.433972981781835"
    x2="130.10355616502898"
    y2="64.36418225244836"
    stroke="hsla(0,50%,50%,0.6)"
    stroke-width="1"
    transform="translate(-87.9643287723,-20.2109915017) scale(1,-1) translate(50,-110)"
    />
  
  <line
    x1="160.57552310157038"
    y1="46.11827572829049"
    x2="125.3193391112919"
    y2="60.55498043306894"
    stroke="hsla(0,50%,50%,0.6)"
    stroke-width="1"
    transform="translate(-87.9643287723,-20.2109915017) scale(1,-1) translate(50,-110)"
    />
  
  <line
    x1="143.39711701192147"
    y1="54.77766230510606"
    x2="126.37111725774169"
    y2="61.39240799624995"
    stroke="hsla(0,50%,50%,0.6)"
    stroke-width="1"
    transform="translate(-87.9643287723,-20.2109915017) scale(1,-1) translate(50,-110)"
    />
  
</svg>
