<?xml version="1.0"?>
<!DOCTYPE svg PUBLIC "-//W3C//DTD SVG 1.1//EN"
  "http://www.w3.org/Graphics/SVG/1.1/DTD/svg11.dtd">
<svg
  width="240"
  height="240"
  viewBox="-500 -500 1000 1000" xmlns="http://www.w3.org/2000/svg" version="1.1">
  <rect
    x="0"
    y="0"
    width="100"
    height="100"
    fill="hsla(206,100%,53%,0.3)"
    stroke="hsl(206,100%,53%)"
    stroke-width="3"
    transform="" />
  
  <path
    d="M 
      8.1615577712
      -6.1159461551
      L
    
      29.0667849667
      0
      L
    
      100
      0
      L
    
      100
      90.0411368026
      L
    
      102.7570534200
      95.5297058852
      L
    
      100
      96.9146467407
      L
    
      60.9474414940
      72.8289854340
      L
    
      6.3723020495
      0
      z
    "
    fill="hsla(0,0%,50%,0.3)"
    stroke="hsla(0,0%,50%,1)"
    stroke-width="1"
    transform="translate(-54.5646777347,-45.3993502928)"
    />
  
  
  <line
    x1="94.36680659558225"
    y1="78.8269285717972"
    x2="102.75705342002381"
    y2="95.52970588525461"
    stroke="hsla(0,50%,50%,0.6)"
    stroke-width="1"
    transform="translate(-54.5646777347,-45.3993502928)"
    />
  
  <line
    x1="58.63555208011383"
    y1="8.650515292138245"
    x2="87.50648646374009"
    y2="78.81372127134927"
    stroke="hsla(0,50%,50%,0.6)"
    stroke-width="1"
    transform="translate(-54.5646777347,-45.3993502928)"
    />
  
  <line
    x1="46.25894136032296"
    y1="42.20454938872974"
    x2="49.79210513218336"
    y2="57.94250346288916"
    stroke="hsla(0,50%,50%,0.6)"
    stroke-width="1"
    transform="translate(-54.5646777347,-45.3993502928)"
    />
  
  <line
    x1="8.16155777123207"
    y1="-6.115946155166024"
    x2="58.63555208011383"
    y2="8.650515292138245"
    stroke="hsla(0,50%,50%,0.6)"
    stroke-width="1"
    transform="translate(-54.5646777347,-45.3993502928)"
    />
  
  <line
    x1="6.372302049535479"
    y1="0"
    x2="60.947441494093034"
    y2="72.82898543401437"
    stroke="hsla(0,50%,50%,0.6)"
    stroke-width="1"
    transform="translate(-54.5646777347,-45.3993502928)"
    />
  
  <line
    x1="6.372302049535479"
    y1="0"
    x2="100"
    y2="0"
    stroke="hsla(0,50%,50%,0.6)"
    stroke-width="1"
    transform="translate(-54.5646777347,-45.3993502928)"
    />
  
  <line
    x1="100"
    y1="0"
    x2="100"
    y2="96.91464674078124"
    stroke="hsla(0,50%,50%,0.6)"
    stroke-width="1"
    transform="translate(-54.5646777347,-45.3993502928)"
    />
  
  <line
    x1="8.16155777123207"
    y1="-6.115946155166024"
    x2="6.372302049535479"
    y2="0"
    stroke="hsla(0,50%,50%,0.6)"
    stroke-width="1"
    transform="translate(-54.5646777347,-45.3993502928)"
    />
  
  <line
    x1="49.79210513218336"
    y1="57.94250346288916"
    x2="87.50648646374009"
    y2="78.81372127134927"
    stroke="hsla(0,50%,50%,0.6)"
    stroke-width="1"
    transform="translate(-54.5646777347,-45.3993502928)"
    />
  
  <line
    x1="60.947441494093034"
    y1="72.82898543401437"
    x2="100"
    y2="96.91464674078124"
    stroke="hsla(0,50%,50%,0.6)"
    stroke-width="1"
    transform="translate(-54.5646777347,-45.3993502928)"
    />
  
  <line
    x1="58.63555208011383"
    y1="8.650515292138245"
    x2="39.18822359882737"
    y2="43.79192241817483"
    stroke="hsla(0,50%,50%,0.6)"
    stroke-width="1"
    transform="translate(-54.5646777347,-45.3993502928)"
    />
  
  <line
    x1="87.50648646374009"
    y1="78.81372127134927"
    x2="84.93007809285115"
    y2="87.62027400665905"
    stroke="hsla(0,50%,50%,0.6)"
    stroke-width="1"
    transform="translate(-54.5646777347,-45.3993502928)"
    />
  
  <line
    x1="46.25894136032296"
    y1="42.20454938872974"
    x2="39.18822359882737"
    y2="43.79192241817483"
    stroke="hsla(0,50%,50%,0.6)"
    stroke-width="1"
    transform="translate(-54.5646777347,-45.3993502928)"
    />
  
  <line
    x1="60.947441494093034"
    y1="72.82898543401437"
    x2="94.36680659558225"
    y2="78.8269285717972"
    stroke="hsla(0,50%,50%,0.6)"
    stroke-width="1"
    transform="translate(-54.5646777347,-45.3993502928)"
    />
  
  <line
    x1="94.36680659558225"
    y1="78.8269285717972"
    x2="84.93007809285115"
    y2="87.62027400665905"
    stroke="hsla(0,50%,50%,0.6)"
    stroke-width="1"
    transform="translate(-54.5646777347,-45.3993502928)"
    />
  
  <line
    x1="102.75705342002381"
    y1="95.52970588525461"
    x2="100"
    y2="96.91464674078124"
    stroke="hsla(0,50%,50%,0.6)"
    stroke-width="1"
    transform="translate(-54.5646777347,-45.3993502928)"
    />
  
</svg>
