<?xml version="1.0"?>
<!DOCTYPE svg PUBLIC "-//W3C//DTD SVG 1.1//EN"
  "http://www.w3.org/Graphics/SVG/1.1/DTD/svg11.dtd">
<svg
  width="240"
  height="240"
  viewBox="-50 -50 200 200" xmlns="http://www.w3.org/2000/svg" version="1.1">
  <rect
    x="0"
    y="0"
    width="100"
    height="100"
    fill="hsla(206,100%,53%,0.3)"
    stroke="hsl(206,100%,53%)"
    stroke-width="3"
    transform="" />
  
  <path
    d="M 
      68.4192985953
      -0.8444022655
      L
    
      68.7551399599
      0
      L
    
      100
      0
      L
    
      100
      78.5586094551
      L
    
      102.0151597334
      83.6253035060
      L
    
      104.7123360357
      84.4749162895
      L
    
      106.3721467117
      90.0175408586
      L
    
      104.7506508211
      90.5031187931
      L
    
      69.1202338933
      73.2633744463
      L
    
      58.8077485300
      66.2667241664
      L
    
      0
      3.6400150621
      L
    
      0
      0
      L
    
      66.2962272257
      0
      z
    "
    fill="hsla(0,0%,50%,0.3)"
    stroke="hsla(0,0%,50%,1)"
    stroke-width="1"
    transform="translate(-42.2396216700,-9.5733479155) scale(1,-1) translate(50,-110)"
    />
  
  
  <line
    x1="68.41929859536293"
    y1="-0.8444022655094011"
    x2="104.75065082112447"
    y2="90.50311879318917"
    stroke="hsla(0,50%,50%,0.6)"
    stroke-width="1"
    transform="translate(-42.2396216700,-9.5733479155) scale(1,-1) translate(50,-110)"
    />
  
  <line
    x1="104.71233603576474"
    y1="84.47491628954374"
    x2="106.37214671170484"
    y2="90.01754085865284"
    stroke="hsla(0,50%,50%,0.6)"
    stroke-width="1"
    transform="translate(-42.2396216700,-9.5733479155) scale(1,-1) translate(50,-110)"
    />
  
  <line
    x1="22.682855447034676"
    y1="5.068121898321372"
    x2="58.80774853002364"
    y2="66.26672416648918"
    stroke="hsla(0,50%,50%,0.6)"
    stroke-width="1"
    transform="translate(-42.2396216700,-9.5733479155) scale(1,-1) translate(50,-110)"
    />
  
  <line
    x1="0"
    y1="0"
    x2="100"
    y2="0"
    stroke="hsla(0,50%,50%,0.6)"
    stroke-width="1"
    transform="translate(-42.2396216700,-9.5733479155) scale(1,-1) translate(50,-110)"
    />
  
  <line
    x1="0"
    y1="0"
    x2="0"
    y2="3.6400150621312917"
    stroke="hsla(0,50%,50%,0.6)"
    stroke-width="1"
    transform="translate(-42.2396216700,-9.5733479155) scale(1,-1) translate(50,-110)"
    />
  
  <line
    x1="100"
    y1="0"
    x2="100"
    y2="88.20452077781069"
    stroke="hsla(0,50%,50%,0.6)"
    stroke-width="1"
    transform="translate(-42.2396216700,-9.5733479155) scale(1,-1) translate(50,-110)"
    />
  
  <line
    x1="0"
    y1="3.6400150621312917"
    x2="58.80774853002364"
    y2="66.26672416648918"
    stroke="hsla(0,50%,50%,0.6)"
    stroke-width="1"
    transform="translate(-42.2396216700,-9.5733479155) scale(1,-1) translate(50,-110)"
    />
  
  <line
    x1="0"
    y1="3.6400150621312917"
    x2="22.682855447034676"
    y2="5.068121898321372"
    stroke="hsla(0,50%,50%,0.6)"
    stroke-width="1"
    transform="translate(-42.2396216700,-9.5733479155) scale(1,-1) translate(50,-110)"
    />
  
  <line
    x1="22.682855447034676"
    y1="5.068121898321372"
    x2="15.538584946858524"
    y2="20.1876718537094"
    stroke="hsla(0,50%,50%,0.6)"
    stroke-width="1"
    transform="translate(-42.2396216700,-9.5733479155) scale(1,-1) translate(50,-110)"
    />
  
  <line
    x1="58.80774853002364"
    y1="66.26672416648918"
    x2="69.12023389332806"
    y2="73.26337444633872"
    stroke="hsla(0,50%,50%,0.6)"
    stroke-width="1"
    transform="translate(-42.2396216700,-9.5733479155) scale(1,-1) translate(50,-110)"
    />
  
  <line
    x1="68.41929859536293"
    y1="-0.8444022655094011"
    x2="15.538584946858524"
    y2="20.1876718537094"
    stroke="hsla(0,50%,50%,0.6)"
    stroke-width="1"
    transform="translate(-42.2396216700,-9.5733479155) scale(1,-1) translate(50,-110)"
    />
  
  <line
    x1="69.12023389332806"
    y1="73.26337444633872"
    x2="104.75065082112447"
    y2="90.50311879318917"
    stroke="hsla(0,50%,50%,0.6)"
    stroke-width="1"
    transform="translate(-42.2396216700,-9.5733479155) scale(1,-1) translate(50,-110)"
    />
  
  <line
    x1="69.12023389332806"
    y1="73.26337444633872"
    x2="104.71233603576474"
    y2="84.47491628954374"
    stroke="hsla(0,50%,50%,0.6)"
    stroke-width="1"
    transform="translate(-42.2396216700,-9.5733479155) scale(1,-1) translate(50,-110)"
    />
  
  <line
    x1="104.71233603576474"
    y1="84.47491628954374"
    x2="100"
    y2="88.20452077781069"
    stroke="hsla(0,50%,50%,0.6)"
    stroke-width="1"
    transform="translate(-42.2396216700,-9.5733479155) scale(1,-1) translate(50,-110)"
    />
  
  <line
    x1="106.37214671170484"
    y1="90.01754085865284"
    x2="104.75065082112447"
    y2="90.50311879318917"
    stroke="hsla(0,50%,50%,0.6)"
    stroke-width="1"
    transform="translate(-42.2396216700,-9.5733479155) scale(1,-1) translate(50,-110)"
    />
  
</svg>
