<?xml version="1.0"?>
<!DOCTYPE svg PUBLIC "-//W3C//DTD SVG 1.1//EN"
  "http://www.w3.org/Graphics/SVG/1.1/DTD/svg11.dtd">
<svg
  width="240"
  height="240"
  viewBox="-50 -50 200 200" xmlns="http://www.w3.org/2000/svg" version="1.1">
  <rect
    x="0"
    y="0"
    width="100"
    height="100"
    fill="hsla(206,100%,53%,0.3)"
    stroke="hsl(206,100%,53%)"
    stroke-width="3"
    transform="" />
  
  <path
    d="M 
      87.1371845420
      -8.9244342631
      L
    
      88.9846122386
      0
      L
    
      100
      0
      L
    
      100
      53.2124229492
      L
    
      107.4081935469
      88.9994453266
      L
    
      100
      90.5329993354
      L
    
      100
      100
      L
    
      85.0380388841
      100
      L
    
      63.4072762326
      65.4200105179
      L
    
      47.8989502508
      37.8189170326
      L
    
      47.0230781654
      29.2669993099
      L
    
      47.9675045866
      -0.8160041395
      z
    "
    fill="hsla(0,0%,50%,0.3)"
    stroke="hsla(0,0%,50%,1)"
    stroke-width="1"
    transform="translate(-51.4895630728,-21.5668790644) scale(1,-1) translate(50,-110)"
    />
  
  
  <line
    x1="87.13718454203403"
    y1="-8.92443426319552"
    x2="107.40819354696602"
    y2="88.99944532662653"
    stroke="hsla(0,50%,50%,0.6)"
    stroke-width="1"
    transform="translate(-51.4895630728,-21.5668790644) scale(1,-1) translate(50,-110)"
    />
  
  <line
    x1="47.96750458669552"
    y1="-0.816004139502808"
    x2="50.54697538874293"
    y2="-0.11073798565951545"
    stroke="hsla(0,50%,50%,0.6)"
    stroke-width="1"
    transform="translate(-51.4895630728,-21.5668790644) scale(1,-1) translate(50,-110)"
    />
  
  <line
    x1="49.28603041267287"
    y1="0.3751608982215984"
    x2="50.86435890471864"
    y2="6.173901788335338"
    stroke="hsla(0,50%,50%,0.6)"
    stroke-width="1"
    transform="translate(-51.4895630728,-21.5668790644) scale(1,-1) translate(50,-110)"
    />
  
  <line
    x1="47.8989502508499"
    y1="37.81891703260391"
    x2="63.407276232692304"
    y2="65.42001051793919"
    stroke="hsla(0,50%,50%,0.6)"
    stroke-width="1"
    transform="translate(-51.4895630728,-21.5668790644) scale(1,-1) translate(50,-110)"
    />
  
  <line
    x1="63.407276232692304"
    y1="65.42001051793919"
    x2="85.03803888419273"
    y2="100"
    stroke="hsla(0,50%,50%,0.6)"
    stroke-width="1"
    transform="translate(-51.4895630728,-21.5668790644) scale(1,-1) translate(50,-110)"
    />
  
  <line
    x1="63.407276232692304"
    y1="65.42001051793919"
    x2="86.00109724675266"
    y2="98.02067980276252"
    stroke="hsla(0,50%,50%,0.6)"
    stroke-width="1"
    transform="translate(-51.4895630728,-21.5668790644) scale(1,-1) translate(50,-110)"
    />
  
  <line
    x1="47.023078165452915"
    y1="29.266999309908336"
    x2="47.8989502508499"
    y2="37.81891703260391"
    stroke="hsla(0,50%,50%,0.6)"
    stroke-width="1"
    transform="translate(-51.4895630728,-21.5668790644) scale(1,-1) translate(50,-110)"
    />
  
  <line
    x1="47.94188693616785"
    y1="0"
    x2="50.56088054767164"
    y2="0.16460370812190184"
    stroke="hsla(0,50%,50%,0.6)"
    stroke-width="1"
    transform="translate(-51.4895630728,-21.5668790644) scale(1,-1) translate(50,-110)"
    />
  
  <line
    x1="50.54697538874293"
    y1="-0.11073798565951545"
    x2="50.86435890471864"
    y2="6.173901788335338"
    stroke="hsla(0,50%,50%,0.6)"
    stroke-width="1"
    transform="translate(-51.4895630728,-21.5668790644) scale(1,-1) translate(50,-110)"
    />
  
  <line
    x1="47.94188693616785"
    y1="0"
    x2="100"
    y2="0"
    stroke="hsla(0,50%,50%,0.6)"
    stroke-width="1"
    transform="translate(-51.4895630728,-21.5668790644) scale(1,-1) translate(50,-110)"
    />
  
  <line
    x1="100"
    y1="0"
    x2="100"
    y2="100"
    stroke="hsla(0,50%,50%,0.6)"
    stroke-width="1"
    transform="translate(-51.4895630728,-21.5668790644) scale(1,-1) translate(50,-110)"
    />
  
  <line
    x1="47.8989502508499"
    y1="37.81891703260391"
    x2="97.69585428608883"
    y2="75.59871192631014"
    stroke="hsla(0,50%,50%,0.6)"
    stroke-width="1"
    transform="translate(-51.4895630728,-21.5668790644) scale(1,-1) translate(50,-110)"
    />
  
  <line
    x1="47.96750458669552"
    y1="-0.816004139502808"
    x2="47.023078165452915"
    y2="29.266999309908336"
    stroke="hsla(0,50%,50%,0.6)"
    stroke-width="1"
    transform="translate(-51.4895630728,-21.5668790644) scale(1,-1) translate(50,-110)"
    />
  
  <line
    x1="50.56088054767164"
    y1="0.16460370812190184"
    x2="49.28603041267287"
    y2="0.3751608982215984"
    stroke="hsla(0,50%,50%,0.6)"
    stroke-width="1"
    transform="translate(-51.4895630728,-21.5668790644) scale(1,-1) translate(50,-110)"
    />
  
  <line
    x1="50.86435890471864"
    y1="6.173901788335338"
    x2="47.023078165452915"
    y2="29.266999309908336"
    stroke="hsla(0,50%,50%,0.6)"
    stroke-width="1"
    transform="translate(-51.4895630728,-21.5668790644) scale(1,-1) translate(50,-110)"
    />
  
  <line
    x1="87.13718454203403"
    y1="-8.92443426319552"
    x2="47.96750458669552"
    y2="-0.816004139502808"
    stroke="hsla(0,50%,50%,0.6)"
    stroke-width="1"
    transform="translate(-51.4895630728,-21.5668790644) scale(1,-1) translate(50,-110)"
    />
  
  <line
    x1="50.54697538874293"
    y1="-0.11073798565951545"
    x2="49.28603041267287"
    y2="0.3751608982215984"
    stroke="hsla(0,50%,50%,0.6)"
    stroke-width="1"
    transform="translate(-51.4895630728,-21.5668790644) scale(1,-1) translate(50,-110)"
    />
  
  <line
    x1="86.00109724675266"
    y1="98.02067980276252"
    x2="85.03803888419273"
    y2="100"
    stroke="hsla(0,50%,50%,0.6)"
    stroke-width="1"
    transform="translate(-51.4895630728,-21.5668790644) scale(1,-1) translate(50,-110)"
    />
  
  <line
    x1="97.69585428608883"
    y1="75.59871192631014"
    x2="83.92266272878935"
    y2="98.21690541642946"
    stroke="hsla(0,50%,50%,0.6)"
    stroke-width="1"
    transform="translate(-51.4895630728,-21.5668790644) scale(1,-1) translate(50,-110)"
    />
  
  <line
    x1="82.53957169960107"
    y1="93.0260377051098"
    x2="81.51037025480326"
    y2="94.36049731274629"
    stroke="hsla(0,50%,50%,0.6)"
    stroke-width="1"
    transform="translate(-51.4895630728,-21.5668790644) scale(1,-1) translate(50,-110)"
    />
  
  <line
    x1="97.69585428608883"
    y1="75.59871192631014"
    x2="80.97625907994629"
    y2="93.50664120483306"
    stroke="hsla(0,50%,50%,0.6)"
    stroke-width="1"
    transform="translate(-51.4895630728,-21.5668790644) scale(1,-1) translate(50,-110)"
    />
  
  <line
    x1="85.03803888419273"
    y1="100"
    x2="100"
    y2="100"
    stroke="hsla(0,50%,50%,0.6)"
    stroke-width="1"
    transform="translate(-51.4895630728,-21.5668790644) scale(1,-1) translate(50,-110)"
    />
  
  <line
    x1="86.00109724675266"
    y1="98.02067980276252"
    x2="83.92266272878935"
    y2="98.21690541642946"
    stroke="hsla(0,50%,50%,0.6)"
    stroke-width="1"
    transform="translate(-51.4895630728,-21.5668790644) scale(1,-1) translate(50,-110)"
    />
  
  <line
    x1="107.40819354696602"
    y1="88.99944532662653"
    x2="81.51037025480326"
    y2="94.36049731274629"
    stroke="hsla(0,50%,50%,0.6)"
    stroke-width="1"
    transform="translate(-51.4895630728,-21.5668790644) scale(1,-1) translate(50,-110)"
    />
  
  <line
    x1="82.53957169960107"
    y1="93.0260377051098"
    x2="80.97625907994629"
    y2="93.50664120483306"
    stroke="hsla(0,50%,50%,0.6)"
    stroke-width="1"
    transform="translate(-51.4895630728,-21.5668790644) scale(1,-1) translate(50,-110)"
    />
  
</svg>
