<?xml version="1.0"?>
<!DOCTYPE svg PUBLIC "-//W3C//DTD SVG 1.1//EN"
  "http://www.w3.org/Graphics/SVG/1.1/DTD/svg11.dtd">
<svg
  width="240"
  height="240"
  viewBox="-500 -500 1000 1000" xmlns="http://www.w3.org/2000/svg" version="1.1">
  <rect
    x="0"
    y="0"
    width="100"
    height="100"
    fill="hsla(206,100%,53%,0.3)"
    stroke="hsl(206,100%,53%)"
    stroke-width="3"
    transform="" />
  
  <path
    d="M 
      92.2366701226
      -69.9273474313
      L
    
      94.1636074519
      -48.8825178158
      L
    
      102.1949219910
      -43.0028431943
      L
    
      96.2696987640
      -34.0819012470
      L
    
      44.0621086242
      -16.2354981318
      L
    
      -3.8843017632
      -22.9943604461
      L
    
      -7.3467541184
      -60.8091449532
      L
    
      11.5161591937
      -62.5362984852
      L
    
      11.5757896483
      -62.6894045350
      L
    
      11.9196815210
      -62.5732463841
      z
    "
    fill="hsla(0,0%,50%,0.3)"
    stroke="hsla(0,0%,50%,1)"
    stroke-width="1"
    transform="translate(-47.4240839363,43.0814227816)"
    />
  
  
  <line
    x1="81.95131274946748"
    y1="-55.154897763262795"
    x2="102.19492199107307"
    y2="-43.00284319430348"
    stroke="hsla(0,50%,50%,0.6)"
    stroke-width="1"
    transform="translate(-47.4240839363,43.0814227816)"
    />
  
  <line
    x1="90.2054761058919"
    y1="-51.78024076154023"
    x2="102.19492199107307"
    y2="-43.00284319430348"
    stroke="hsla(0,50%,50%,0.6)"
    stroke-width="1"
    transform="translate(-47.4240839363,43.0814227816)"
    />
  
  <line
    x1="92.23667012262271"
    y1="-69.92734743136214"
    x2="-7.346754118407531"
    y2="-60.80914495329714"
    stroke="hsla(0,50%,50%,0.6)"
    stroke-width="1"
    transform="translate(-47.4240839363,43.0814227816)"
    />
  
  <line
    x1="11.57578964835747"
    y1="-62.68940453505835"
    x2="96.26969876403898"
    y2="-34.08190124707126"
    stroke="hsla(0,50%,50%,0.6)"
    stroke-width="1"
    transform="translate(-47.4240839363,43.0814227816)"
    />
  
  <line
    x1="81.95131274946748"
    y1="-55.154897763262795"
    x2="95.54159251258336"
    y2="-33.83300874620348"
    stroke="hsla(0,50%,50%,0.6)"
    stroke-width="1"
    transform="translate(-47.4240839363,43.0814227816)"
    />
  
  <line
    x1="6.205209268291874"
    y1="-44.01887422545632"
    x2="70.89963426045347"
    y2="-25.409514780329005"
    stroke="hsla(0,50%,50%,0.6)"
    stroke-width="1"
    transform="translate(-47.4240839363,43.0814227816)"
    />
  
  <line
    x1="-3.8843017632201957"
    y1="-22.994360446104817"
    x2="44.062108624232465"
    y2="-16.235498131868457"
    stroke="hsla(0,50%,50%,0.6)"
    stroke-width="1"
    transform="translate(-47.4240839363,43.0814227816)"
    />
  
  <line
    x1="92.23667012262271"
    y1="-69.92734743136214"
    x2="95.54159251258336"
    y2="-33.83300874620348"
    stroke="hsla(0,50%,50%,0.6)"
    stroke-width="1"
    transform="translate(-47.4240839363,43.0814227816)"
    />
  
  <line
    x1="11.57578964835747"
    y1="-62.68940453505835"
    x2="-3.8843017632201957"
    y2="-22.994360446104817"
    stroke="hsla(0,50%,50%,0.6)"
    stroke-width="1"
    transform="translate(-47.4240839363,43.0814227816)"
    />
  
  <line
    x1="11.57578964835747"
    y1="-62.68940453505835"
    x2="6.205209268291874"
    y2="-44.01887422545632"
    stroke="hsla(0,50%,50%,0.6)"
    stroke-width="1"
    transform="translate(-47.4240839363,43.0814227816)"
    />
  
  <line
    x1="96.26969876403898"
    y1="-34.08190124707126"
    x2="44.062108624232465"
    y2="-16.235498131868457"
    stroke="hsla(0,50%,50%,0.6)"
    stroke-width="1"
    transform="translate(-47.4240839363,43.0814227816)"
    />
  
  <line
    x1="-7.346754118407531"
    y1="-60.80914495329714"
    x2="-3.8843017632201957"
    y2="-22.994360446104817"
    stroke="hsla(0,50%,50%,0.6)"
    stroke-width="1"
    transform="translate(-47.4240839363,43.0814227816)"
    />
  
  <line
    x1="81.95131274946748"
    y1="-55.154897763262795"
    x2="44.062108624232465"
    y2="-16.235498131868457"
    stroke="hsla(0,50%,50%,0.6)"
    stroke-width="1"
    transform="translate(-47.4240839363,43.0814227816)"
    />
  
  <line
    x1="90.2054761058919"
    y1="-51.78024076154023"
    x2="70.89963426045347"
    y2="-25.409514780329005"
    stroke="hsla(0,50%,50%,0.6)"
    stroke-width="1"
    transform="translate(-47.4240839363,43.0814227816)"
    />
  
  <line
    x1="102.19492199107307"
    y1="-43.00284319430348"
    x2="96.26969876403898"
    y2="-34.08190124707126"
    stroke="hsla(0,50%,50%,0.6)"
    stroke-width="1"
    transform="translate(-47.4240839363,43.0814227816)"
    />
  
</svg>
