<?xml version="1.0"?>
<!DOCTYPE svg PUBLIC "-//W3C//DTD SVG 1.1//EN"
  "http://www.w3.org/Graphics/SVG/1.1/DTD/svg11.dtd">
<svg
  width="240"
  height="240"
  viewBox="-50 -50 200 200" xmlns="http://www.w3.org/2000/svg" version="1.1">
  <rect
    x="0"
    y="0"
    width="100"
    height="100"
    fill="hsla(206,100%,53%,0.3)"
    stroke="hsl(206,100%,53%)"
    stroke-width="3"
    transform="" />
  
  <path
    d="M 
      -42.6910491904
      -41.0502428807
      L
    
      -30.1875404530
      -35.8545686399
      L
    
      -31.8284656534
      -26.0136975865
      L
    
      -25.9896963762
      -17.9313736716
      L
    
      -28.4205820749
      -12.6192507342
      L
    
      -34.0175656143
      -12.8853414409
      L
    
      -38.8452184191
      16.0668062445
      L
    
      -81.1434665909
      36.9462115687
      L
    
      -89.8100956998
      33.0170551789
      L
    
      -77.9810672702
      6.9254996520
      L
    
      -79.1941891645
      5.0714480186
      L
    
      -74.3865582799
      -1.0029901193
      L
    
      -74.3054724607
      -1.1818429447
      L
    
      -74.2470404266
      -1.1792708258
      L
    
      -73.0429323147
      -2.7006605525
      L
    
      -71.7432891810
      -3.5510282077
      L
    
      -71.4832481138
      -4.6713204099
      z
    "
    fill="hsla(0,0%,50%,0.3)"
    stroke="hsla(0,0%,50%,1)"
    stroke-width="1"
    transform="translate(72.1449704851,3.5199713684) scale(1,-1) translate(50,-110)"
    />
  
  
  <line
    x1="-38.19523406915167"
    y1="-39.18206401127554"
    x2="-44.81281433424934"
    y2="-38.36939415942398"
    stroke="hsla(0,50%,50%,0.6)"
    stroke-width="1"
    transform="translate(72.1449704851,3.5199713684) scale(1,-1) translate(50,-110)"
    />
  
  <line
    x1="-42.69104919047421"
    y1="-41.05024288070459"
    x2="-71.48324811385629"
    y2="-4.671320409921148"
    stroke="hsla(0,50%,50%,0.6)"
    stroke-width="1"
    transform="translate(72.1449704851,3.5199713684) scale(1,-1) translate(50,-110)"
    />
  
  <line
    x1="-73.04293231478177"
    y1="-2.7006605525284693"
    x2="-79.19418916450815"
    y2="5.071448018600613"
    stroke="hsla(0,50%,50%,0.6)"
    stroke-width="1"
    transform="translate(72.1449704851,3.5199713684) scale(1,-1) translate(50,-110)"
    />
  
  <line
    x1="-31.144570444618665"
    y1="-30.11511827438615"
    x2="-73.04293231478177"
    y2="-2.7006605525284693"
    stroke="hsla(0,50%,50%,0.6)"
    stroke-width="1"
    transform="translate(72.1449704851,3.5199713684) scale(1,-1) translate(50,-110)"
    />
  
  <line
    x1="-30.92275454330647"
    y1="-24.759965812313407"
    x2="-71.48324811385629"
    y2="-4.671320409921148"
    stroke="hsla(0,50%,50%,0.6)"
    stroke-width="1"
    transform="translate(72.1449704851,3.5199713684) scale(1,-1) translate(50,-110)"
    />
  
  <line
    x1="-74.30547246071718"
    y1="-1.1818429447359078"
    x2="-89.81009569986627"
    y2="33.017055178914966"
    stroke="hsla(0,50%,50%,0.6)"
    stroke-width="1"
    transform="translate(72.1449704851,3.5199713684) scale(1,-1) translate(50,-110)"
    />
  
  <line
    x1="-30.92275454330647"
    y1="-24.759965812313407"
    x2="-32.678308145452895"
    y2="-22.98335964317337"
    stroke="hsla(0,50%,50%,0.6)"
    stroke-width="1"
    transform="translate(72.1449704851,3.5199713684) scale(1,-1) translate(50,-110)"
    />
  
  <line
    x1="-30.187540453061477"
    y1="-35.85456863997105"
    x2="-34.88852967986508"
    y2="-29.303447867278145"
    stroke="hsla(0,50%,50%,0.6)"
    stroke-width="1"
    transform="translate(72.1449704851,3.5199713684) scale(1,-1) translate(50,-110)"
    />
  
  <line
    x1="-73.04293231478177"
    y1="-2.7006605525284693"
    x2="-76.24604184330751"
    y2="6.139650154174356"
    stroke="hsla(0,50%,50%,0.6)"
    stroke-width="1"
    transform="translate(72.1449704851,3.5199713684) scale(1,-1) translate(50,-110)"
    />
  
  <line
    x1="-25.989696376235187"
    y1="-17.93137367169926"
    x2="-42.3657748714865"
    y2="-16.129523684806685"
    stroke="hsla(0,50%,50%,0.6)"
    stroke-width="1"
    transform="translate(72.1449704851,3.5199713684) scale(1,-1) translate(50,-110)"
    />
  
  <line
    x1="-42.69104919047421"
    y1="-41.05024288070459"
    x2="-30.187540453061477"
    y2="-35.85456863997105"
    stroke="hsla(0,50%,50%,0.6)"
    stroke-width="1"
    transform="translate(72.1449704851,3.5199713684) scale(1,-1) translate(50,-110)"
    />
  
  <line
    x1="-71.48324811385629"
    y1="-4.671320409921148"
    x2="-81.14346659095402"
    y2="36.94621156872856"
    stroke="hsla(0,50%,50%,0.6)"
    stroke-width="1"
    transform="translate(72.1449704851,3.5199713684) scale(1,-1) translate(50,-110)"
    />
  
  <line
    x1="-25.989696376235187"
    y1="-17.93137367169926"
    x2="-28.42058207499839"
    y2="-12.6192507342744"
    stroke="hsla(0,50%,50%,0.6)"
    stroke-width="1"
    transform="translate(72.1449704851,3.5199713684) scale(1,-1) translate(50,-110)"
    />
  
  <line
    x1="-63.85937774914298"
    y1="-14.304075089869384"
    x2="-28.42058207499839"
    y2="-12.6192507342744"
    stroke="hsla(0,50%,50%,0.6)"
    stroke-width="1"
    transform="translate(72.1449704851,3.5199713684) scale(1,-1) translate(50,-110)"
    />
  
  <line
    x1="-30.187540453061477"
    y1="-35.85456863997105"
    x2="-38.84521841912098"
    y2="16.066806244597924"
    stroke="hsla(0,50%,50%,0.6)"
    stroke-width="1"
    transform="translate(72.1449704851,3.5199713684) scale(1,-1) translate(50,-110)"
    />
  
  <line
    x1="-46.32074037038043"
    y1="-36.46413070573409"
    x2="-34.88852967986508"
    y2="-29.303447867278145"
    stroke="hsla(0,50%,50%,0.6)"
    stroke-width="1"
    transform="translate(72.1449704851,3.5199713684) scale(1,-1) translate(50,-110)"
    />
  
  <line
    x1="-38.84521841912098"
    y1="16.066806244597924"
    x2="-81.14346659095402"
    y2="36.94621156872856"
    stroke="hsla(0,50%,50%,0.6)"
    stroke-width="1"
    transform="translate(72.1449704851,3.5199713684) scale(1,-1) translate(50,-110)"
    />
  
  <line
    x1="-45.270989644659785"
    y1="-37.79048998681099"
    x2="-34.22012274589489"
    y2="-29.324352006501357"
    stroke="hsla(0,50%,50%,0.6)"
    stroke-width="1"
    transform="translate(72.1449704851,3.5199713684) scale(1,-1) translate(50,-110)"
    />
  
  <line
    x1="-45.270989644659785"
    y1="-37.79048998681099"
    x2="-34.88852967986508"
    y2="-29.303447867278145"
    stroke="hsla(0,50%,50%,0.6)"
    stroke-width="1"
    transform="translate(72.1449704851,3.5199713684) scale(1,-1) translate(50,-110)"
    />
  
  <line
    x1="-74.30547246071718"
    y1="-1.1818429447359078"
    x2="-71.0285402718083"
    y2="-1.0375957142234637"
    stroke="hsla(0,50%,50%,0.6)"
    stroke-width="1"
    transform="translate(72.1449704851,3.5199713684) scale(1,-1) translate(50,-110)"
    />
  
  <line
    x1="-38.19523406915167"
    y1="-39.18206401127554"
    x2="-31.144570444618665"
    y2="-30.11511827438615"
    stroke="hsla(0,50%,50%,0.6)"
    stroke-width="1"
    transform="translate(72.1449704851,3.5199713684) scale(1,-1) translate(50,-110)"
    />
  
  <line
    x1="-44.81281433424934"
    y1="-38.36939415942398"
    x2="-42.3657748714865"
    y2="-16.129523684806685"
    stroke="hsla(0,50%,50%,0.6)"
    stroke-width="1"
    transform="translate(72.1449704851,3.5199713684) scale(1,-1) translate(50,-110)"
    />
  
  <line
    x1="-46.32074037038043"
    y1="-36.46413070573409"
    x2="-32.678308145452895"
    y2="-22.98335964317337"
    stroke="hsla(0,50%,50%,0.6)"
    stroke-width="1"
    transform="translate(72.1449704851,3.5199713684) scale(1,-1) translate(50,-110)"
    />
  
  <line
    x1="-42.69104919047421"
    y1="-41.05024288070459"
    x2="-25.989696376235187"
    y2="-17.93137367169926"
    stroke="hsla(0,50%,50%,0.6)"
    stroke-width="1"
    transform="translate(72.1449704851,3.5199713684) scale(1,-1) translate(50,-110)"
    />
  
  <line
    x1="-34.22012274589489"
    y1="-29.324352006501357"
    x2="-28.42058207499839"
    y2="-12.6192507342744"
    stroke="hsla(0,50%,50%,0.6)"
    stroke-width="1"
    transform="translate(72.1449704851,3.5199713684) scale(1,-1) translate(50,-110)"
    />
  
  <line
    x1="-63.85937774914298"
    y1="-14.304075089869384"
    x2="-53.127661063064075"
    y2="23.11695422637928"
    stroke="hsla(0,50%,50%,0.6)"
    stroke-width="1"
    transform="translate(72.1449704851,3.5199713684) scale(1,-1) translate(50,-110)"
    />
  
  <line
    x1="-74.30547246071718"
    y1="-1.1818429447359078"
    x2="-63.90573529537792"
    y2="28.43726393745393"
    stroke="hsla(0,50%,50%,0.6)"
    stroke-width="1"
    transform="translate(72.1449704851,3.5199713684) scale(1,-1) translate(50,-110)"
    />
  
  <line
    x1="-71.0285402718083"
    y1="-1.0375957142234637"
    x2="-38.84521841912098"
    y2="16.066806244597924"
    stroke="hsla(0,50%,50%,0.6)"
    stroke-width="1"
    transform="translate(72.1449704851,3.5199713684) scale(1,-1) translate(50,-110)"
    />
  
  <line
    x1="-79.19418916450815"
    y1="5.071448018600613"
    x2="-76.24604184330751"
    y2="6.139650154174356"
    stroke="hsla(0,50%,50%,0.6)"
    stroke-width="1"
    transform="translate(72.1449704851,3.5199713684) scale(1,-1) translate(50,-110)"
    />
  
  <line
    x1="-71.0285402718083"
    y1="-1.0375957142234637"
    x2="-53.127661063064075"
    y2="23.11695422637928"
    stroke="hsla(0,50%,50%,0.6)"
    stroke-width="1"
    transform="translate(72.1449704851,3.5199713684) scale(1,-1) translate(50,-110)"
    />
  
  <line
    x1="-79.19418916450815"
    y1="5.071448018600613"
    x2="-63.90573529537792"
    y2="28.43726393745393"
    stroke="hsla(0,50%,50%,0.6)"
    stroke-width="1"
    transform="translate(72.1449704851,3.5199713684) scale(1,-1) translate(50,-110)"
    />
  
  <line
    x1="-89.81009569986627"
    y1="33.017055178914966"
    x2="-81.14346659095402"
    y2="36.94621156872856"
    stroke="hsla(0,50%,50%,0.6)"
    stroke-width="1"
    transform="translate(72.1449704851,3.5199713684) scale(1,-1) translate(50,-110)"
    />
  
</svg>
