<?xml version="1.0"?>
<!DOCTYPE svg PUBLIC "-//W3C//DTD SVG 1.1//EN"
  "http://www.w3.org/Graphics/SVG/1.1/DTD/svg11.dtd">
<svg
  width="240"
  height="240"
  viewBox="-500 -500 1000 1000" xmlns="http://www.w3.org/2000/svg" version="1.1">
  <rect
    x="0"
    y="0"
    width="100"
    height="100"
    fill="hsla(206,100%,53%,0.3)"
    stroke="hsl(206,100%,53%)"
    stroke-width="3"
    transform="" />
  
  <path
    d="M 
      54.7709710094
      -27.9583524969
      L
    
      77.3576176064
      0
      L
    
      100
      0
      L
    
      100
      28.02734375
      L
    
      39.7224739445
      49.3334478083
      L
    
      -19.8075084845
      32.2911833170
      L
    
      -21.1584468237
      28.3933443303
      L
    
      -10.3424424595
      24.6446633246
      L
    
      0
      16.2893393545
      L
    
      0
      0
      L
    
      20.1633779349
      0
      z
    "
    fill="hsla(0,0%,50%,0.3)"
    stroke="hsla(0,0%,50%,1)"
    stroke-width="1"
    transform="translate(-39.4207765881,-10.6875476557)"
    />
  
  
  <line
    x1="54.770971009497224"
    y1="-27.95835249696047"
    x2="100"
    y2="28.02734375"
    stroke="hsla(0,50%,50%,0.6)"
    stroke-width="1"
    transform="translate(-39.4207765881,-10.6875476557)"
    />
  
  <line
    x1="13.447960208714651"
    y1="16.399231130030458"
    x2="39.72247394450968"
    y2="49.33344780838352"
    stroke="hsla(0,50%,50%,0.6)"
    stroke-width="1"
    transform="translate(-39.4207765881,-10.6875476557)"
    />
  
  <line
    x1="0"
    y1="0"
    x2="100"
    y2="0"
    stroke="hsla(0,50%,50%,0.6)"
    stroke-width="1"
    transform="translate(-39.4207765881,-10.6875476557)"
    />
  
  <line
    x1="0"
    y1="0"
    x2="0"
    y2="37.96168387378217"
    stroke="hsla(0,50%,50%,0.6)"
    stroke-width="1"
    transform="translate(-39.4207765881,-10.6875476557)"
    />
  
  <line
    x1="100"
    y1="0"
    x2="100"
    y2="28.02734375"
    stroke="hsla(0,50%,50%,0.6)"
    stroke-width="1"
    transform="translate(-39.4207765881,-10.6875476557)"
    />
  
  <line
    x1="-21.158446823720602"
    y1="28.393344330355664"
    x2="-19.80750848450345"
    y2="32.29118331701815"
    stroke="hsla(0,50%,50%,0.6)"
    stroke-width="1"
    transform="translate(-39.4207765881,-10.6875476557)"
    />
  
  <line
    x1="54.770971009497224"
    y1="-27.95835249696047"
    x2="-19.80750848450345"
    y2="32.29118331701815"
    stroke="hsla(0,50%,50%,0.6)"
    stroke-width="1"
    transform="translate(-39.4207765881,-10.6875476557)"
    />
  
  <line
    x1="13.447960208714651"
    y1="16.399231130030458"
    x2="0"
    y2="37.96168387378217"
    stroke="hsla(0,50%,50%,0.6)"
    stroke-width="1"
    transform="translate(-39.4207765881,-10.6875476557)"
    />
  
  <line
    x1="13.447960208714651"
    y1="16.399231130030458"
    x2="-21.158446823720602"
    y2="28.393344330355664"
    stroke="hsla(0,50%,50%,0.6)"
    stroke-width="1"
    transform="translate(-39.4207765881,-10.6875476557)"
    />
  
  <line
    x1="-19.80750848450345"
    y1="32.29118331701815"
    x2="39.72247394450968"
    y2="49.33344780838352"
    stroke="hsla(0,50%,50%,0.6)"
    stroke-width="1"
    transform="translate(-39.4207765881,-10.6875476557)"
    />
  
  <line
    x1="100"
    y1="28.02734375"
    x2="39.72247394450968"
    y2="49.33344780838352"
    stroke="hsla(0,50%,50%,0.6)"
    stroke-width="1"
    transform="translate(-39.4207765881,-10.6875476557)"
    />
  
</svg>
