<?xml version="1.0"?>
<!DOCTYPE svg PUBLIC "-//W3C//DTD SVG 1.1//EN"
  "http://www.w3.org/Graphics/SVG/1.1/DTD/svg11.dtd">
<svg
  width="240"
  height="240"
  viewBox="-500 -500 1000 1000" xmlns="http://www.w3.org/2000/svg" version="1.1">
  <rect
    x="0"
    y="0"
    width="100"
    height="100"
    fill="hsla(206,100%,53%,0.3)"
    stroke="hsl(206,100%,53%)"
    stroke-width="3"
    transform="" />
  
  <path
    d="M 
      -19.3157393107
      -22.1704838115
      L
    
      14.3682094049
      18.2502546473
      L
    
      16.3634304015
      21.5526894002
      L
    
      -4.5228612294
      76.7772129362
      L
    
      -23.6570697227
      80.2427726309
      L
    
      -29.2052194067
      49.6100719539
      L
    
      -53.4300379948
      30.6916757370
      L
    
      -36.5471735117
      9.0733353312
      L
    
      -41.4789672822
      -18.1563125648
      z
    "
    fill="hsla(0,0%,50%,0.3)"
    stroke="hsla(0,0%,50%,1)"
    stroke-width="1"
    transform="translate(18.5333037966,-29.0361444097)"
    />
  
  
  <line
    x1="-19.31573931076137"
    y1="-22.170483811569106"
    x2="-41.478967282229775"
    y2="-18.156312564865953"
    stroke="hsla(0,50%,50%,0.6)"
    stroke-width="1"
    transform="translate(18.5333037966,-29.0361444097)"
    />
  
  <line
    x1="-15.61520498259058"
    y1="-17.72984261776416"
    x2="-22.308824154238852"
    y2="-14.230616931091449"
    stroke="hsla(0,50%,50%,0.6)"
    stroke-width="1"
    transform="translate(18.5333037966,-29.0361444097)"
    />
  
  <line
    x1="-15.61520498259058"
    y1="-17.72984261776416"
    x2="-53.43003799485414"
    y2="30.69167573701451"
    stroke="hsla(0,50%,50%,0.6)"
    stroke-width="1"
    transform="translate(18.5333037966,-29.0361444097)"
    />
  
  <line
    x1="-19.31573931076137"
    y1="-22.170483811569106"
    x2="-22.308824154238852"
    y2="-14.230616931091449"
    stroke="hsla(0,50%,50%,0.6)"
    stroke-width="1"
    transform="translate(18.5333037966,-29.0361444097)"
    />
  
  <line
    x1="14.368209404974111"
    y1="18.250254647313472"
    x2="16.36343040152305"
    y2="21.552689400222057"
    stroke="hsla(0,50%,50%,0.6)"
    stroke-width="1"
    transform="translate(18.5333037966,-29.0361444097)"
    />
  
  <line
    x1="-0.9918721586995454"
    y1="0.8265601322496211"
    x2="-1.5945304009581975"
    y2="4.113786908205905"
    stroke="hsla(0,50%,50%,0.6)"
    stroke-width="1"
    transform="translate(18.5333037966,-29.0361444097)"
    />
  
  <line
    x1="-6.152992867148086"
    y1="28.620609514714968"
    x2="-7.371645023424003"
    y2="73.17003251486499"
    stroke="hsla(0,50%,50%,0.6)"
    stroke-width="1"
    transform="translate(18.5333037966,-29.0361444097)"
    />
  
  <line
    x1="0"
    y1="1.0084033613445378"
    x2="0"
    y2="64.81851481851481"
    stroke="hsla(0,50%,50%,0.6)"
    stroke-width="1"
    transform="translate(18.5333037966,-29.0361444097)"
    />
  
  <line
    x1="-19.31573931076137"
    y1="-22.170483811569106"
    x2="14.368209404974111"
    y2="18.250254647313472"
    stroke="hsla(0,50%,50%,0.6)"
    stroke-width="1"
    transform="translate(18.5333037966,-29.0361444097)"
    />
  
  <line
    x1="-0.9918721586995454"
    y1="0.8265601322496211"
    x2="0"
    y2="1.0084033613445378"
    stroke="hsla(0,50%,50%,0.6)"
    stroke-width="1"
    transform="translate(18.5333037966,-29.0361444097)"
    />
  
  <line
    x1="1.724573211080185"
    y1="3.07789121464076"
    x2="-24.612880568118733"
    y2="53.196463546349435"
    stroke="hsla(0,50%,50%,0.6)"
    stroke-width="1"
    transform="translate(18.5333037966,-29.0361444097)"
    />
  
  <line
    x1="-22.308824154238852"
    y1="-14.230616931091449"
    x2="14.368209404974111"
    y2="18.250254647313472"
    stroke="hsla(0,50%,50%,0.6)"
    stroke-width="1"
    transform="translate(18.5333037966,-29.0361444097)"
    />
  
  <line
    x1="1.724573211080185"
    y1="3.07789121464076"
    x2="-1.5945304009581975"
    y2="4.113786908205905"
    stroke="hsla(0,50%,50%,0.6)"
    stroke-width="1"
    transform="translate(18.5333037966,-29.0361444097)"
    />
  
  <line
    x1="-41.478967282229775"
    y1="-18.156312564865953"
    x2="-23.657069722743305"
    y2="80.24277263097909"
    stroke="hsla(0,50%,50%,0.6)"
    stroke-width="1"
    transform="translate(18.5333037966,-29.0361444097)"
    />
  
  <line
    x1="16.36343040152305"
    y1="21.552689400222057"
    x2="-4.522861229411172"
    y2="76.7772129362796"
    stroke="hsla(0,50%,50%,0.6)"
    stroke-width="1"
    transform="translate(18.5333037966,-29.0361444097)"
    />
  
  <line
    x1="-6.152992867148086"
    y1="28.620609514714968"
    x2="6.965747477066485"
    y2="46.40068879698448"
    stroke="hsla(0,50%,50%,0.6)"
    stroke-width="1"
    transform="translate(18.5333037966,-29.0361444097)"
    />
  
  <line
    x1="16.36343040152305"
    y1="21.552689400222057"
    x2="-6.152992867148086"
    y2="28.620609514714968"
    stroke="hsla(0,50%,50%,0.6)"
    stroke-width="1"
    transform="translate(18.5333037966,-29.0361444097)"
    />
  
  <line
    x1="0"
    y1="64.81851481851481"
    x2="-7.371645023424003"
    y2="73.17003251486499"
    stroke="hsla(0,50%,50%,0.6)"
    stroke-width="1"
    transform="translate(18.5333037966,-29.0361444097)"
    />
  
  <line
    x1="-7.371645023424003"
    y1="73.17003251486499"
    x2="-4.522861229411172"
    y2="76.7772129362796"
    stroke="hsla(0,50%,50%,0.6)"
    stroke-width="1"
    transform="translate(18.5333037966,-29.0361444097)"
    />
  
  <line
    x1="-53.43003799485414"
    y1="30.69167573701451"
    x2="-24.612880568118733"
    y2="53.196463546349435"
    stroke="hsla(0,50%,50%,0.6)"
    stroke-width="1"
    transform="translate(18.5333037966,-29.0361444097)"
    />
  
  <line
    x1="6.965747477066485"
    y1="46.40068879698448"
    x2="-24.612880568118733"
    y2="53.196463546349435"
    stroke="hsla(0,50%,50%,0.6)"
    stroke-width="1"
    transform="translate(18.5333037966,-29.0361444097)"
    />
  
  <line
    x1="-4.522861229411172"
    y1="76.7772129362796"
    x2="-23.657069722743305"
    y2="80.24277263097909"
    stroke="hsla(0,50%,50%,0.6)"
    stroke-width="1"
    transform="translate(18.5333037966,-29.0361444097)"
    />
  
</svg>
