<?xml version="1.0"?>
<!DOCTYPE svg PUBLIC "-//W3C//DTD SVG 1.1//EN"
  "http://www.w3.org/Graphics/SVG/1.1/DTD/svg11.dtd">
<svg
  width="240"
  height="240"
  viewBox="-50 -50 200 200" xmlns="http://www.w3.org/2000/svg" version="1.1">
  <rect
    x="0"
    y="0"
    width="100"
    height="100"
    fill="hsla(206,100%,53%,0.3)"
    stroke="hsl(206,100%,53%)"
    stroke-width="3"
    transform="" />
  
  <path
    d="M 
      41.0632908303
      -108.5315131056
      L
    
      109.5952153394
      -80.7932606102
      L
    
      108.4111523192
      -77.8678377657
      L
    
      2.2495018555
      -15.9279551371
      L
    
      -1.2130682883
      -17.7622582103
      L
    
      1.9670298633
      -24.5900727557
      L
    
      2.5942218512
      -28.5471390676
      L
    
      3.7598339173
      -28.4393041357
      L
    
      4.4942789139
      -30.0161907574
      L
    
      12.3828059610
      -90.4107301409
      L
    
      31.4626866396
      -87.9185817393
      z
    "
    fill="hsla(0,0%,50%,0.3)"
    stroke="hsla(0,0%,50%,1)"
    stroke-width="1"
    transform="translate(-20.0938015685,73.9057310527) scale(1,-1) translate(50,-110)"
    />
  
  
  <line
    x1="41.06329083032939"
    y1="-108.53151310563011"
    x2="109.59521533949253"
    y2="-80.79326061026687"
    stroke="hsla(0,50%,50%,0.6)"
    stroke-width="1"
    transform="translate(-20.0938015685,73.9057310527) scale(1,-1) translate(50,-110)"
    />
  
  <line
    x1="44.26319887462989"
    y1="-105.23947247664488"
    x2="54.47037314702497"
    y2="-101.42908592771772"
    stroke="hsla(0,50%,50%,0.6)"
    stroke-width="1"
    transform="translate(-20.0938015685,73.9057310527) scale(1,-1) translate(50,-110)"
    />
  
  <line
    x1="41.06329083032939"
    y1="-108.53151310563011"
    x2="54.47037314702497"
    y2="-101.42908592771772"
    stroke="hsla(0,50%,50%,0.6)"
    stroke-width="1"
    transform="translate(-20.0938015685,73.9057310527) scale(1,-1) translate(50,-110)"
    />
  
  <line
    x1="12.382805961042555"
    y1="-90.41073014090806"
    x2="108.41115231925365"
    y2="-77.86783776574315"
    stroke="hsla(0,50%,50%,0.6)"
    stroke-width="1"
    transform="translate(-20.0938015685,73.9057310527) scale(1,-1) translate(50,-110)"
    />
  
  <line
    x1="2.5942218512974278"
    y1="-28.54713906769549"
    x2="20.96515329560589"
    y2="-26.847578640103787"
    stroke="hsla(0,50%,50%,0.6)"
    stroke-width="1"
    transform="translate(-20.0938015685,73.9057310527) scale(1,-1) translate(50,-110)"
    />
  
  <line
    x1="1.9066766693098152"
    y1="-24.209293671380877"
    x2="13.337881524866445"
    y2="-22.39745643314535"
    stroke="hsla(0,50%,50%,0.6)"
    stroke-width="1"
    transform="translate(-20.0938015685,73.9057310527) scale(1,-1) translate(50,-110)"
    />
  
  <line
    x1="-1.2130682883061283"
    y1="-17.762258210331847"
    x2="2.687501101524812"
    y2="-16.183505251244153"
    stroke="hsla(0,50%,50%,0.6)"
    stroke-width="1"
    transform="translate(-20.0938015685,73.9057310527) scale(1,-1) translate(50,-110)"
    />
  
  <line
    x1="-1.2130682883061283"
    y1="-17.762258210331847"
    x2="2.2495018555899393"
    y2="-15.927955137185892"
    stroke="hsla(0,50%,50%,0.6)"
    stroke-width="1"
    transform="translate(-20.0938015685,73.9057310527) scale(1,-1) translate(50,-110)"
    />
  
  <line
    x1="108.41115231925365"
    y1="-77.86783776574315"
    x2="2.2495018555899393"
    y2="-15.927955137185892"
    stroke="hsla(0,50%,50%,0.6)"
    stroke-width="1"
    transform="translate(-20.0938015685,73.9057310527) scale(1,-1) translate(50,-110)"
    />
  
  <line
    x1="41.06329083032939"
    y1="-108.53151310563011"
    x2="-1.2130682883061283"
    y2="-17.762258210331847"
    stroke="hsla(0,50%,50%,0.6)"
    stroke-width="1"
    transform="translate(-20.0938015685,73.9057310527) scale(1,-1) translate(50,-110)"
    />
  
  <line
    x1="2.5942218512974278"
    y1="-28.54713906769549"
    x2="1.9066766693098152"
    y2="-24.209293671380877"
    stroke="hsla(0,50%,50%,0.6)"
    stroke-width="1"
    transform="translate(-20.0938015685,73.9057310527) scale(1,-1) translate(50,-110)"
    />
  
  <line
    x1="2.5942218512974278"
    y1="-28.54713906769549"
    x2="2.2495018555899393"
    y2="-15.927955137185892"
    stroke="hsla(0,50%,50%,0.6)"
    stroke-width="1"
    transform="translate(-20.0938015685,73.9057310527) scale(1,-1) translate(50,-110)"
    />
  
  <line
    x1="12.382805961042555"
    y1="-90.41073014090806"
    x2="2.687501101524812"
    y2="-16.183505251244153"
    stroke="hsla(0,50%,50%,0.6)"
    stroke-width="1"
    transform="translate(-20.0938015685,73.9057310527) scale(1,-1) translate(50,-110)"
    />
  
  <line
    x1="44.26319887462989"
    y1="-105.23947247664488"
    x2="13.337881524866445"
    y2="-22.39745643314535"
    stroke="hsla(0,50%,50%,0.6)"
    stroke-width="1"
    transform="translate(-20.0938015685,73.9057310527) scale(1,-1) translate(50,-110)"
    />
  
  <line
    x1="54.47037314702497"
    y1="-101.42908592771772"
    x2="20.96515329560589"
    y2="-26.847578640103787"
    stroke="hsla(0,50%,50%,0.6)"
    stroke-width="1"
    transform="translate(-20.0938015685,73.9057310527) scale(1,-1) translate(50,-110)"
    />
  
  <line
    x1="109.59521533949253"
    y1="-80.79326061026687"
    x2="108.41115231925365"
    y2="-77.86783776574315"
    stroke="hsla(0,50%,50%,0.6)"
    stroke-width="1"
    transform="translate(-20.0938015685,73.9057310527) scale(1,-1) translate(50,-110)"
    />
  
</svg>
