<?xml version="1.0"?>
<!DOCTYPE svg PUBLIC "-//W3C//DTD SVG 1.1//EN"
  "http://www.w3.org/Graphics/SVG/1.1/DTD/svg11.dtd">
<svg
  width="240"
  height="240"
  viewBox="-500 -500 1000 1000" xmlns="http://www.w3.org/2000/svg" version="1.1">
  <rect
    x="0"
    y="0"
    width="100"
    height="100"
    fill="hsla(206,100%,53%,0.3)"
    stroke="hsl(206,100%,53%)"
    stroke-width="3"
    transform="" />
  
  <path
    d="M 
      37.0318612242
      -62.0315758909
      L
    
      45.2669878581
      -36.3669165205
      L
    
      -25.0513075141
      46.6510820367
      L
    
      -33.2608001502
      53.2117078760
      L
    
      -41.4823182464
      52.0092490631
      L
    
      -38.3247284628
      30.4200010421
      L
    
      -40.4422539614
      23.8207618264
      L
    
      -36.3866540736
      17.1688913225
      L
    
      -27.0105325144
      -46.9380470986
      L
    
      0.2665496357
      -42.9485688249
      L
    
      5.7891711622
      -52.0066032103
      z
    "
    fill="hsla(0,0%,50%,0.3)"
    stroke="hsla(0,0%,50%,1)"
    stroke-width="1"
    transform="translate(-1.8923348058,4.4099340074)"
    />
  
  
  <line
    x1="37.031861224288825"
    y1="-62.031575890926966"
    x2="5.789171162284091"
    y2="-52.00660321036718"
    stroke="hsla(0,50%,50%,0.6)"
    stroke-width="1"
    transform="translate(-1.8923348058,4.4099340074)"
    />
  
  <line
    x1="-27.010532514440904"
    y1="-46.938047098603185"
    x2="45.26698785817857"
    y2="-36.366916520542425"
    stroke="hsla(0,50%,50%,0.6)"
    stroke-width="1"
    transform="translate(-1.8923348058,4.4099340074)"
    />
  
  <line
    x1="37.031861224288825"
    y1="-62.031575890926966"
    x2="45.26698785817857"
    y2="-36.366916520542425"
    stroke="hsla(0,50%,50%,0.6)"
    stroke-width="1"
    transform="translate(-1.8923348058,4.4099340074)"
    />
  
  <line
    x1="5.789171162284091"
    y1="-52.00660321036718"
    x2="-40.442253961402635"
    y2="23.820761826430772"
    stroke="hsla(0,50%,50%,0.6)"
    stroke-width="1"
    transform="translate(-1.8923348058,4.4099340074)"
    />
  
  <line
    x1="-27.010532514440904"
    y1="-46.938047098603185"
    x2="-41.48231824643301"
    y2="52.009249063178366"
    stroke="hsla(0,50%,50%,0.6)"
    stroke-width="1"
    transform="translate(-1.8923348058,4.4099340074)"
    />
  
  <line
    x1="5.789171162284091"
    y1="-52.00660321036718"
    x2="14.463311280664477"
    y2="0"
    stroke="hsla(0,50%,50%,0.6)"
    stroke-width="1"
    transform="translate(-1.8923348058,4.4099340074)"
    />
  
  <line
    x1="-33.07702974609481"
    y1="50.83358633068752"
    x2="-33.260800150261"
    y2="53.211707876049424"
    stroke="hsla(0,50%,50%,0.6)"
    stroke-width="1"
    transform="translate(-1.8923348058,4.4099340074)"
    />
  
  <line
    x1="0"
    y1="0"
    x2="14.463311280664477"
    y2="0"
    stroke="hsla(0,50%,50%,0.6)"
    stroke-width="1"
    transform="translate(-1.8923348058,4.4099340074)"
    />
  
  <line
    x1="0"
    y1="0"
    x2="0"
    y2="17.075430351015346"
    stroke="hsla(0,50%,50%,0.6)"
    stroke-width="1"
    transform="translate(-1.8923348058,4.4099340074)"
    />
  
  <line
    x1="45.26698785817857"
    y1="-36.366916520542425"
    x2="-25.05130751412724"
    y2="46.65108203675399"
    stroke="hsla(0,50%,50%,0.6)"
    stroke-width="1"
    transform="translate(-1.8923348058,4.4099340074)"
    />
  
  <line
    x1="-40.442253961402635"
    y1="23.820761826430772"
    x2="-31.47053136156714"
    y2="51.78101243663912"
    stroke="hsla(0,50%,50%,0.6)"
    stroke-width="1"
    transform="translate(-1.8923348058,4.4099340074)"
    />
  
  <line
    x1="-25.05130751412724"
    y1="46.65108203675399"
    x2="-33.260800150261"
    y2="53.211707876049424"
    stroke="hsla(0,50%,50%,0.6)"
    stroke-width="1"
    transform="translate(-1.8923348058,4.4099340074)"
    />
  
  <line
    x1="0"
    y1="17.075430351015346"
    x2="-40.442253961402635"
    y2="23.820761826430772"
    stroke="hsla(0,50%,50%,0.6)"
    stroke-width="1"
    transform="translate(-1.8923348058,4.4099340074)"
    />
  
  <line
    x1="-25.05130751412724"
    y1="46.65108203675399"
    x2="-33.07702974609481"
    y2="50.83358633068752"
    stroke="hsla(0,50%,50%,0.6)"
    stroke-width="1"
    transform="translate(-1.8923348058,4.4099340074)"
    />
  
  <line
    x1="-33.07702974609481"
    y1="50.83358633068752"
    x2="-31.47053136156714"
    y2="51.78101243663912"
    stroke="hsla(0,50%,50%,0.6)"
    stroke-width="1"
    transform="translate(-1.8923348058,4.4099340074)"
    />
  
  <line
    x1="-41.48231824643301"
    y1="52.009249063178366"
    x2="-33.260800150261"
    y2="53.211707876049424"
    stroke="hsla(0,50%,50%,0.6)"
    stroke-width="1"
    transform="translate(-1.8923348058,4.4099340074)"
    />
  
</svg>
