<?xml version="1.0"?>
<!DOCTYPE svg PUBLIC "-//W3C//DTD SVG 1.1//EN"
  "http://www.w3.org/Graphics/SVG/1.1/DTD/svg11.dtd">
<svg
  width="240"
  height="240"
  viewBox="-50 -50 200 200" xmlns="http://www.w3.org/2000/svg" version="1.1">
  <rect
    x="0"
    y="0"
    width="100"
    height="100"
    fill="hsla(206,100%,53%,0.3)"
    stroke="hsl(206,100%,53%)"
    stroke-width="3"
    transform="" />
  
  <path
    d="M 
      53.8960012572
      -1.1922180634
      L
    
      55.3774784435
      0
      L
    
      100
      0
      L
    
      100
      7.7320509575
      L
    
      101.6376044376
      7.9911630024
      L
    
      100.2195177796
      16.9535599651
      L
    
      141.9913435683
      43.4264129897
      L
    
      143.0150820185
      50.4692970324
      L
    
      136.2397488095
      51.4541448699
      L
    
      136.0772318314
      64.3737335664
      L
    
      100
      63.9199139571
      L
    
      65.1049080945
      28.5831120276
      L
    
      52.7716890300
      0
      z
    "
    fill="hsla(0,0%,50%,0.3)"
    stroke="hsla(0,0%,50%,1)"
    stroke-width="1"
    transform="translate(-72.0314646147,-21.9840115902) scale(1,-1) translate(50,-110)"
    />
  
  
  <line
    x1="90.37022348887017"
    y1="10.711579509823478"
    x2="141.99134356831524"
    y2="43.42641298978434"
    stroke="hsla(0,50%,50%,0.6)"
    stroke-width="1"
    transform="translate(-72.0314646147,-21.9840115902) scale(1,-1) translate(50,-110)"
    />
  
  <line
    x1="90.37022348887017"
    y1="10.711579509823478"
    x2="107.4175629743531"
    y2="53.99711143996653"
    stroke="hsla(0,50%,50%,0.6)"
    stroke-width="1"
    transform="translate(-72.0314646147,-21.9840115902) scale(1,-1) translate(50,-110)"
    />
  
  <line
    x1="53.896001257276616"
    y1="-1.1922180634777766"
    x2="64.34403043939136"
    y2="7.215828468533004"
    stroke="hsla(0,50%,50%,0.6)"
    stroke-width="1"
    transform="translate(-72.0314646147,-21.9840115902) scale(1,-1) translate(50,-110)"
    />
  
  <line
    x1="141.99134356831524"
    y1="43.42641298978434"
    x2="143.0150820185528"
    y2="50.46929703243914"
    stroke="hsla(0,50%,50%,0.6)"
    stroke-width="1"
    transform="translate(-72.0314646147,-21.9840115902) scale(1,-1) translate(50,-110)"
    />
  
  <line
    x1="52.77168903001127"
    y1="0"
    x2="65.10490809459881"
    y2="28.58311202762385"
    stroke="hsla(0,50%,50%,0.6)"
    stroke-width="1"
    transform="translate(-72.0314646147,-21.9840115902) scale(1,-1) translate(50,-110)"
    />
  
  <line
    x1="65.10490809459881"
    y1="28.58311202762385"
    x2="100"
    y2="63.91991395714404"
    stroke="hsla(0,50%,50%,0.6)"
    stroke-width="1"
    transform="translate(-72.0314646147,-21.9840115902) scale(1,-1) translate(50,-110)"
    />
  
  <line
    x1="52.89176776177642"
    y1="0.2782909980114872"
    x2="101.63760443769803"
    y2="7.991163002472573"
    stroke="hsla(0,50%,50%,0.6)"
    stroke-width="1"
    transform="translate(-72.0314646147,-21.9840115902) scale(1,-1) translate(50,-110)"
    />
  
  <line
    x1="64.34403043939136"
    y1="7.215828468533004"
    x2="65.10490809459881"
    y2="28.58311202762385"
    stroke="hsla(0,50%,50%,0.6)"
    stroke-width="1"
    transform="translate(-72.0314646147,-21.9840115902) scale(1,-1) translate(50,-110)"
    />
  
  <line
    x1="52.77168903001127"
    y1="0"
    x2="100"
    y2="0"
    stroke="hsla(0,50%,50%,0.6)"
    stroke-width="1"
    transform="translate(-72.0314646147,-21.9840115902) scale(1,-1) translate(50,-110)"
    />
  
  <line
    x1="100"
    y1="0"
    x2="100"
    y2="63.91991395714404"
    stroke="hsla(0,50%,50%,0.6)"
    stroke-width="1"
    transform="translate(-72.0314646147,-21.9840115902) scale(1,-1) translate(50,-110)"
    />
  
  <line
    x1="136.38542098348134"
    y1="39.87366513033951"
    x2="136.0772318314769"
    y2="64.37373356641658"
    stroke="hsla(0,50%,50%,0.6)"
    stroke-width="1"
    transform="translate(-72.0314646147,-21.9840115902) scale(1,-1) translate(50,-110)"
    />
  
  <line
    x1="101.63760443769803"
    y1="7.991163002472573"
    x2="93.78416461886266"
    y2="57.625397115485974"
    stroke="hsla(0,50%,50%,0.6)"
    stroke-width="1"
    transform="translate(-72.0314646147,-21.9840115902) scale(1,-1) translate(50,-110)"
    />
  
  <line
    x1="90.37022348887017"
    y1="10.711579509823478"
    x2="58.30642311455567"
    y2="12.827139739687365"
    stroke="hsla(0,50%,50%,0.6)"
    stroke-width="1"
    transform="translate(-72.0314646147,-21.9840115902) scale(1,-1) translate(50,-110)"
    />
  
  <line
    x1="53.896001257276616"
    y1="-1.1922180634777766"
    x2="52.89176776177642"
    y2="0.2782909980114872"
    stroke="hsla(0,50%,50%,0.6)"
    stroke-width="1"
    transform="translate(-72.0314646147,-21.9840115902) scale(1,-1) translate(50,-110)"
    />
  
  <line
    x1="53.896001257276616"
    y1="-1.1922180634777766"
    x2="52.77168903001127"
    y2="0"
    stroke="hsla(0,50%,50%,0.6)"
    stroke-width="1"
    transform="translate(-72.0314646147,-21.9840115902) scale(1,-1) translate(50,-110)"
    />
  
  <line
    x1="64.34403043939136"
    y1="7.215828468533004"
    x2="58.30642311455567"
    y2="12.827139739687365"
    stroke="hsla(0,50%,50%,0.6)"
    stroke-width="1"
    transform="translate(-72.0314646147,-21.9840115902) scale(1,-1) translate(50,-110)"
    />
  
  <line
    x1="100"
    y1="63.91991395714404"
    x2="136.0772318314769"
    y2="64.37373356641658"
    stroke="hsla(0,50%,50%,0.6)"
    stroke-width="1"
    transform="translate(-72.0314646147,-21.9840115902) scale(1,-1) translate(50,-110)"
    />
  
  <line
    x1="143.0150820185528"
    y1="50.46929703243914"
    x2="93.78416461886266"
    y2="57.625397115485974"
    stroke="hsla(0,50%,50%,0.6)"
    stroke-width="1"
    transform="translate(-72.0314646147,-21.9840115902) scale(1,-1) translate(50,-110)"
    />
  
  <line
    x1="141.99134356831524"
    y1="43.42641298978434"
    x2="107.4175629743531"
    y2="53.99711143996653"
    stroke="hsla(0,50%,50%,0.6)"
    stroke-width="1"
    transform="translate(-72.0314646147,-21.9840115902) scale(1,-1) translate(50,-110)"
    />
  
  <line
    x1="136.38542098348134"
    y1="39.87366513033951"
    x2="107.4175629743531"
    y2="53.99711143996653"
    stroke="hsla(0,50%,50%,0.6)"
    stroke-width="1"
    transform="translate(-72.0314646147,-21.9840115902) scale(1,-1) translate(50,-110)"
    />
  
</svg>
