<?xml version="1.0"?>
<!DOCTYPE svg PUBLIC "-//W3C//DTD SVG 1.1//EN"
  "http://www.w3.org/Graphics/SVG/1.1/DTD/svg11.dtd">
<svg
  width="240"
  height="240"
  viewBox="-500 -500 1000 1000" xmlns="http://www.w3.org/2000/svg" version="1.1">
  <rect
    x="0"
    y="0"
    width="100"
    height="100"
    fill="hsla(206,100%,53%,0.3)"
    stroke="hsl(206,100%,53%)"
    stroke-width="3"
    transform="" />
  
  <path
    d="M 
      52.6252006921
      -9.0257455639
      L
    
      59.7964003047
      0
      L
    
      100
      0
      L
    
      100
      8.7735342366
      L
    
      109.2106694714
      13.4590890690
      L
    
      100
      31.5650413300
      L
    
      100
      42.5754985754
      L
    
      65.9902392669
      46.0016670641
      L
    
      0
      14.5324553151
      L
    
      0
      0
      L
    
      41.2653045262
      0
      z
    "
    fill="hsla(0,0%,50%,0.3)"
    stroke="hsla(0,0%,50%,1)"
    stroke-width="1"
    transform="translate(-54.6053347357,-18.4879607501)"
    />
  
  
  <line
    x1="92.32498381739953"
    y1="4.8691807828080025"
    x2="109.21066947141782"
    y2="13.459089069063022"
    stroke="hsla(0,50%,50%,0.6)"
    stroke-width="1"
    transform="translate(-54.6053347357,-18.4879607501)"
    />
  
  <line
    x1="52.62520069218787"
    y1="-9.025745563916763"
    x2="94.0963259476147"
    y2="43.17023907262776"
    stroke="hsla(0,50%,50%,0.6)"
    stroke-width="1"
    transform="translate(-54.6053347357,-18.4879607501)"
    />
  
  <line
    x1="92.32498381739953"
    y1="4.8691807828080025"
    x2="100"
    y2="42.57549857549858"
    stroke="hsla(0,50%,50%,0.6)"
    stroke-width="1"
    transform="translate(-54.6053347357,-18.4879607501)"
    />
  
  <line
    x1="48.38351228991514"
    y1="19.15370052694314"
    x2="65.99023926695206"
    y2="46.00166706416118"
    stroke="hsla(0,50%,50%,0.6)"
    stroke-width="1"
    transform="translate(-54.6053347357,-18.4879607501)"
    />
  
  <line
    x1="14.18413319674905"
    y1="3.042590680250945"
    x2="48.38351228991514"
    y2="19.15370052694314"
    stroke="hsla(0,50%,50%,0.6)"
    stroke-width="1"
    transform="translate(-54.6053347357,-18.4879607501)"
    />
  
  <line
    x1="48.38351228991514"
    y1="19.15370052694314"
    x2="48.951630961582765"
    y2="37.87635067454895"
    stroke="hsla(0,50%,50%,0.6)"
    stroke-width="1"
    transform="translate(-54.6053347357,-18.4879607501)"
    />
  
  <line
    x1="14.18413319674905"
    y1="3.042590680250945"
    x2="14.35731668696178"
    y2="21.379126034764504"
    stroke="hsla(0,50%,50%,0.6)"
    stroke-width="1"
    transform="translate(-54.6053347357,-18.4879607501)"
    />
  
  <line
    x1="0"
    y1="0"
    x2="100"
    y2="0"
    stroke="hsla(0,50%,50%,0.6)"
    stroke-width="1"
    transform="translate(-54.6053347357,-18.4879607501)"
    />
  
  <line
    x1="0"
    y1="0"
    x2="0"
    y2="14.532455315145814"
    stroke="hsla(0,50%,50%,0.6)"
    stroke-width="1"
    transform="translate(-54.6053347357,-18.4879607501)"
    />
  
  <line
    x1="100"
    y1="0"
    x2="100"
    y2="42.57549857549858"
    stroke="hsla(0,50%,50%,0.6)"
    stroke-width="1"
    transform="translate(-54.6053347357,-18.4879607501)"
    />
  
  <line
    x1="14.18413319674905"
    y1="3.042590680250945"
    x2="0"
    y2="14.532455315145814"
    stroke="hsla(0,50%,50%,0.6)"
    stroke-width="1"
    transform="translate(-54.6053347357,-18.4879607501)"
    />
  
  <line
    x1="0"
    y1="14.532455315145814"
    x2="65.99023926695206"
    y2="46.00166706416118"
    stroke="hsla(0,50%,50%,0.6)"
    stroke-width="1"
    transform="translate(-54.6053347357,-18.4879607501)"
    />
  
  <line
    x1="52.62520069218787"
    y1="-9.025745563916763"
    x2="14.35731668696178"
    y2="21.379126034764504"
    stroke="hsla(0,50%,50%,0.6)"
    stroke-width="1"
    transform="translate(-54.6053347357,-18.4879607501)"
    />
  
  <line
    x1="109.21066947141782"
    y1="13.459089069063022"
    x2="94.0963259476147"
    y2="43.17023907262776"
    stroke="hsla(0,50%,50%,0.6)"
    stroke-width="1"
    transform="translate(-54.6053347357,-18.4879607501)"
    />
  
  <line
    x1="92.32498381739953"
    y1="4.8691807828080025"
    x2="48.951630961582765"
    y2="37.87635067454895"
    stroke="hsla(0,50%,50%,0.6)"
    stroke-width="1"
    transform="translate(-54.6053347357,-18.4879607501)"
    />
  
  <line
    x1="100"
    y1="42.57549857549858"
    x2="65.99023926695206"
    y2="46.00166706416118"
    stroke="hsla(0,50%,50%,0.6)"
    stroke-width="1"
    transform="translate(-54.6053347357,-18.4879607501)"
    />
  
</svg>
