<?xml version="1.0"?>
<!DOCTYPE svg PUBLIC "-//W3C//DTD SVG 1.1//EN"
  "http://www.w3.org/Graphics/SVG/1.1/DTD/svg11.dtd">
<svg
  width="240"
  height="240"
  viewBox="-500 -500 1000 1000" xmlns="http://www.w3.org/2000/svg" version="1.1">
  <rect
    x="0"
    y="0"
    width="100"
    height="100"
    fill="hsla(206,100%,53%,0.3)"
    stroke="hsl(206,100%,53%)"
    stroke-width="3"
    transform="" />
  
  <path
    d="M 
      90.7692307692
      5.4794520547
      L
    
      53.2467532467
      98.4375
      L
    
      10.1449275362
      26.3888888888
      z
    "
    fill="hsla(0,0%,50%,0.3)"
    stroke="hsla(0,0%,50%,1)"
    stroke-width="1"
    transform="translate(-50.4570791527,-51.9584760273)"
    />
  
  
  <line
    x1="83.68270577034838"
    y1="7.3173004565245225"
    x2="85.87623851044124"
    y2="8.792303686488824"
    stroke="hsla(0,50%,50%,0.6)"
    stroke-width="1"
    transform="translate(-50.4570791527,-51.9584760273)"
    />
  
  <line
    x1="81.69594093499657"
    y1="11.215906272906096"
    x2="87.30077873469008"
    y2="14.072182381019264"
    stroke="hsla(0,50%,50%,0.6)"
    stroke-width="1"
    transform="translate(-50.4570791527,-51.9584760273)"
    />
  
  <line
    x1="85.46051262058921"
    y1="6.856236750573432"
    x2="87.50598564488276"
    y2="13.563803535700467"
    stroke="hsla(0,50%,50%,0.6)"
    stroke-width="1"
    transform="translate(-50.4570791527,-51.9584760273)"
    />
  
  <line
    x1="85.46051262058921"
    y1="6.856236750573432"
    x2="85.87623851044124"
    y2="8.792303686488824"
    stroke="hsla(0,50%,50%,0.6)"
    stroke-width="1"
    transform="translate(-50.4570791527,-51.9584760273)"
    />
  
  <line
    x1="73.6674503287682"
    y1="9.91469779995148"
    x2="87.30077873469008"
    y2="14.072182381019264"
    stroke="hsla(0,50%,50%,0.6)"
    stroke-width="1"
    transform="translate(-50.4570791527,-51.9584760273)"
    />
  
  <line
    x1="42.06671064061611"
    y1="53.01378223554421"
    x2="54.202643160822646"
    y2="96.0693818391144"
    stroke="hsla(0,50%,50%,0.6)"
    stroke-width="1"
    transform="translate(-50.4570791527,-51.9584760273)"
    />
  
  <line
    x1="52.96861224753252"
    y1="96.77562471903252"
    x2="53.246753246753244"
    y2="98.4375"
    stroke="hsla(0,50%,50%,0.6)"
    stroke-width="1"
    transform="translate(-50.4570791527,-51.9584760273)"
    />
  
  <line
    x1="27.843548854558648"
    y1="35.17852885456706"
    x2="32.93846859426493"
    y2="43.11454276373878"
    stroke="hsla(0,50%,50%,0.6)"
    stroke-width="1"
    transform="translate(-50.4570791527,-51.9584760273)"
    />
  
  <line
    x1="10.144927536231885"
    y1="26.38888888888889"
    x2="53.246753246753244"
    y2="98.4375"
    stroke="hsla(0,50%,50%,0.6)"
    stroke-width="1"
    transform="translate(-50.4570791527,-51.9584760273)"
    />
  
  <line
    x1="24.608823662764117"
    y1="22.637762859822693"
    x2="73.29613886282466"
    y2="48.767225742277674"
    stroke="hsla(0,50%,50%,0.6)"
    stroke-width="1"
    transform="translate(-50.4570791527,-51.9584760273)"
    />
  
  <line
    x1="10.144927536231885"
    y1="26.38888888888889"
    x2="27.843548854558648"
    y2="35.17852885456706"
    stroke="hsla(0,50%,50%,0.6)"
    stroke-width="1"
    transform="translate(-50.4570791527,-51.9584760273)"
    />
  
  <line
    x1="24.608823662764117"
    y1="22.637762859822693"
    x2="15.96004459333416"
    y2="36.109384494495636"
    stroke="hsla(0,50%,50%,0.6)"
    stroke-width="1"
    transform="translate(-50.4570791527,-51.9584760273)"
    />
  
  <line
    x1="66.1884545744015"
    y1="46.76380742518419"
    x2="52.14328582881583"
    y2="96.59295412385285"
    stroke="hsla(0,50%,50%,0.6)"
    stroke-width="1"
    transform="translate(-50.4570791527,-51.9584760273)"
    />
  
  <line
    x1="66.1884545744015"
    y1="46.76380742518419"
    x2="73.29613886282466"
    y2="48.767225742277674"
    stroke="hsla(0,50%,50%,0.6)"
    stroke-width="1"
    transform="translate(-50.4570791527,-51.9584760273)"
    />
  
  <line
    x1="90.76923076923077"
    y1="5.47945205479452"
    x2="10.144927536231885"
    y2="26.38888888888889"
    stroke="hsla(0,50%,50%,0.6)"
    stroke-width="1"
    transform="translate(-50.4570791527,-51.9584760273)"
    />
  
  <line
    x1="90.76923076923077"
    y1="5.47945205479452"
    x2="53.246753246753244"
    y2="98.4375"
    stroke="hsla(0,50%,50%,0.6)"
    stroke-width="1"
    transform="translate(-50.4570791527,-51.9584760273)"
    />
  
  <line
    x1="83.68270577034838"
    y1="7.3173004565245225"
    x2="81.69594093499657"
    y2="11.215906272906096"
    stroke="hsla(0,50%,50%,0.6)"
    stroke-width="1"
    transform="translate(-50.4570791527,-51.9584760273)"
    />
  
  <line
    x1="27.843548854558648"
    y1="35.17852885456706"
    x2="15.96004459333416"
    y2="36.109384494495636"
    stroke="hsla(0,50%,50%,0.6)"
    stroke-width="1"
    transform="translate(-50.4570791527,-51.9584760273)"
    />
  
  <line
    x1="73.6674503287682"
    y1="9.91469779995148"
    x2="28.38058430524026"
    y2="56.871443194825574"
    stroke="hsla(0,50%,50%,0.6)"
    stroke-width="1"
    transform="translate(-50.4570791527,-51.9584760273)"
    />
  
  <line
    x1="32.93846859426493"
    y1="43.11454276373878"
    x2="23.699229002408583"
    y2="49.04613319631373"
    stroke="hsla(0,50%,50%,0.6)"
    stroke-width="1"
    transform="translate(-50.4570791527,-51.9584760273)"
    />
  
  <line
    x1="90.76923076923077"
    y1="5.47945205479452"
    x2="85.87623851044124"
    y2="8.792303686488824"
    stroke="hsla(0,50%,50%,0.6)"
    stroke-width="1"
    transform="translate(-50.4570791527,-51.9584760273)"
    />
  
  <line
    x1="87.50598564488276"
    y1="13.563803535700467"
    x2="23.699229002408583"
    y2="49.04613319631373"
    stroke="hsla(0,50%,50%,0.6)"
    stroke-width="1"
    transform="translate(-50.4570791527,-51.9584760273)"
    />
  
  <line
    x1="42.06671064061611"
    y1="53.01378223554421"
    x2="28.38058430524026"
    y2="56.871443194825574"
    stroke="hsla(0,50%,50%,0.6)"
    stroke-width="1"
    transform="translate(-50.4570791527,-51.9584760273)"
    />
  
  <line
    x1="52.14328582881583"
    y1="96.59295412385285"
    x2="52.96861224753252"
    y2="96.77562471903252"
    stroke="hsla(0,50%,50%,0.6)"
    stroke-width="1"
    transform="translate(-50.4570791527,-51.9584760273)"
    />
  
  <line
    x1="52.96861224753252"
    y1="96.77562471903252"
    x2="52.44455385123291"
    y2="97.09655094903431"
    stroke="hsla(0,50%,50%,0.6)"
    stroke-width="1"
    transform="translate(-50.4570791527,-51.9584760273)"
    />
  
  <line
    x1="54.202643160822646"
    y1="96.0693818391144"
    x2="52.44455385123291"
    y2="97.09655094903431"
    stroke="hsla(0,50%,50%,0.6)"
    stroke-width="1"
    transform="translate(-50.4570791527,-51.9584760273)"
    />
  
</svg>
