<?xml version="1.0"?>
<!DOCTYPE svg PUBLIC "-//W3C//DTD SVG 1.1//EN"
  "http://www.w3.org/Graphics/SVG/1.1/DTD/svg11.dtd">
<svg
  width="240"
  height="240"
  viewBox="-500 -500 1000 1000" xmlns="http://www.w3.org/2000/svg" version="1.1">
  <rect
    x="0"
    y="0"
    width="100"
    height="100"
    fill="hsla(206,100%,53%,0.3)"
    stroke="hsl(206,100%,53%)"
    stroke-width="3"
    transform="" />
  
  <path
    d="M 
      70.7132753662
      -8.0023441366
      L
    
      74.2046555412
      0
      L
    
      100
      0
      L
    
      100
      26.4730119746
      L
    
      102.4281732339
      25.6970301091
      L
    
      125.4509864085
      36.3439210340
      L
    
      121.8425258702
      44.1468480485
      L
    
      55.8215887571
      40.5912987142
      L
    
      39.0766627278
      33.1751977539
      L
    
      0
      0.1086956521
      L
    
      0
      0
      L
    
      0.6478383025
      0
      L
    
      15.5427254819
      -2.4990950205
      L
    
      17.1913508872
      0
      L
    
      52.3716716241
      0
      z
    "
    fill="hsla(0,0%,50%,0.3)"
    stroke="hsla(0,0%,50%,1)"
    stroke-width="1"
    transform="translate(-62.7254932042,-18.0722519559)"
    />
  
  
  <line
    x1="101.84583208476003"
    y1="25.883131399169095"
    x2="117.87741653505164"
    y2="43.93330757983555"
    stroke="hsla(0,50%,50%,0.6)"
    stroke-width="1"
    transform="translate(-62.7254932042,-18.0722519559)"
    />
  
  <line
    x1="120.8575096550198"
    y1="41.228830456632764"
    x2="121.84252587029215"
    y2="44.14684804857015"
    stroke="hsla(0,50%,50%,0.6)"
    stroke-width="1"
    transform="translate(-62.7254932042,-18.0722519559)"
    />
  
  <line
    x1="70.71327536626544"
    y1="-8.002344136676642"
    x2="92.78288792620933"
    y2="42.58184487130946"
    stroke="hsla(0,50%,50%,0.6)"
    stroke-width="1"
    transform="translate(-62.7254932042,-18.0722519559)"
    />
  
  <line
    x1="102.42817323397557"
    y1="25.697030109113395"
    x2="125.45098640850576"
    y2="36.34392103400806"
    stroke="hsla(0,50%,50%,0.6)"
    stroke-width="1"
    transform="translate(-62.7254932042,-18.0722519559)"
    />
  
  <line
    x1="15.54272548193511"
    y1="-2.4990950205215925"
    x2="39.076662727871"
    y2="33.17519775396476"
    stroke="hsla(0,50%,50%,0.6)"
    stroke-width="1"
    transform="translate(-62.7254932042,-18.0722519559)"
    />
  
  <line
    x1="11.771441913243546"
    y1="3.3753504740385263"
    x2="16.584708667465808"
    y2="14.142604019154492"
    stroke="hsla(0,50%,50%,0.6)"
    stroke-width="1"
    transform="translate(-62.7254932042,-18.0722519559)"
    />
  
  <line
    x1="0"
    y1="0"
    x2="100"
    y2="0"
    stroke="hsla(0,50%,50%,0.6)"
    stroke-width="1"
    transform="translate(-62.7254932042,-18.0722519559)"
    />
  
  <line
    x1="0"
    y1="0"
    x2="0"
    y2="0.10869565217391304"
    stroke="hsla(0,50%,50%,0.6)"
    stroke-width="1"
    transform="translate(-62.7254932042,-18.0722519559)"
    />
  
  <line
    x1="100"
    y1="0"
    x2="100"
    y2="42.97052154195011"
    stroke="hsla(0,50%,50%,0.6)"
    stroke-width="1"
    transform="translate(-62.7254932042,-18.0722519559)"
    />
  
  <line
    x1="0"
    y1="0.10869565217391304"
    x2="39.076662727871"
    y2="33.17519775396476"
    stroke="hsla(0,50%,50%,0.6)"
    stroke-width="1"
    transform="translate(-62.7254932042,-18.0722519559)"
    />
  
  <line
    x1="15.54272548193511"
    y1="-2.4990950205215925"
    x2="0"
    y2="0.10869565217391304"
    stroke="hsla(0,50%,50%,0.6)"
    stroke-width="1"
    transform="translate(-62.7254932042,-18.0722519559)"
    />
  
  <line
    x1="11.771441913243546"
    y1="3.3753504740385263"
    x2="20.3246696115205"
    y2="4.749690982743771"
    stroke="hsla(0,50%,50%,0.6)"
    stroke-width="1"
    transform="translate(-62.7254932042,-18.0722519559)"
    />
  
  <line
    x1="20.3246696115205"
    y1="4.749690982743771"
    x2="17.73174073296652"
    y2="15.113217565885257"
    stroke="hsla(0,50%,50%,0.6)"
    stroke-width="1"
    transform="translate(-62.7254932042,-18.0722519559)"
    />
  
  <line
    x1="15.54272548193511"
    y1="-2.4990950205215925"
    x2="11.771441913243546"
    y2="3.3753504740385263"
    stroke="hsla(0,50%,50%,0.6)"
    stroke-width="1"
    transform="translate(-62.7254932042,-18.0722519559)"
    />
  
  <line
    x1="16.584708667465808"
    y1="14.142604019154492"
    x2="120.8575096550198"
    y2="41.228830456632764"
    stroke="hsla(0,50%,50%,0.6)"
    stroke-width="1"
    transform="translate(-62.7254932042,-18.0722519559)"
    />
  
  <line
    x1="101.84583208476003"
    y1="25.883131399169095"
    x2="100"
    y2="42.97052154195011"
    stroke="hsla(0,50%,50%,0.6)"
    stroke-width="1"
    transform="translate(-62.7254932042,-18.0722519559)"
    />
  
  <line
    x1="39.076662727871"
    y1="33.17519775396476"
    x2="55.821588757101566"
    y2="40.591298714242996"
    stroke="hsla(0,50%,50%,0.6)"
    stroke-width="1"
    transform="translate(-62.7254932042,-18.0722519559)"
    />
  
  <line
    x1="70.71327536626544"
    y1="-8.002344136676642"
    x2="17.73174073296652"
    y2="15.113217565885257"
    stroke="hsla(0,50%,50%,0.6)"
    stroke-width="1"
    transform="translate(-62.7254932042,-18.0722519559)"
    />
  
  <line
    x1="55.821588757101566"
    y1="40.591298714242996"
    x2="121.84252587029215"
    y2="44.14684804857015"
    stroke="hsla(0,50%,50%,0.6)"
    stroke-width="1"
    transform="translate(-62.7254932042,-18.0722519559)"
    />
  
  <line
    x1="102.42817323397557"
    y1="25.697030109113395"
    x2="92.78288792620933"
    y2="42.58184487130946"
    stroke="hsla(0,50%,50%,0.6)"
    stroke-width="1"
    transform="translate(-62.7254932042,-18.0722519559)"
    />
  
  <line
    x1="102.42817323397557"
    y1="25.697030109113395"
    x2="55.821588757101566"
    y2="40.591298714242996"
    stroke="hsla(0,50%,50%,0.6)"
    stroke-width="1"
    transform="translate(-62.7254932042,-18.0722519559)"
    />
  
  <line
    x1="125.45098640850576"
    y1="36.34392103400806"
    x2="121.84252587029215"
    y2="44.14684804857015"
    stroke="hsla(0,50%,50%,0.6)"
    stroke-width="1"
    transform="translate(-62.7254932042,-18.0722519559)"
    />
  
  <line
    x1="120.8575096550198"
    y1="41.228830456632764"
    x2="117.87741653505164"
    y2="43.93330757983555"
    stroke="hsla(0,50%,50%,0.6)"
    stroke-width="1"
    transform="translate(-62.7254932042,-18.0722519559)"
    />
  
</svg>
