<?xml version="1.0"?>
<!DOCTYPE svg PUBLIC "-//W3C//DTD SVG 1.1//EN"
  "http://www.w3.org/Graphics/SVG/1.1/DTD/svg11.dtd">
<svg
  width="240"
  height="240"
  viewBox="-500 -500 1000 1000" xmlns="http://www.w3.org/2000/svg" version="1.1">
  <rect
    x="0"
    y="0"
    width="100"
    height="100"
    fill="hsla(206,100%,53%,0.3)"
    stroke="hsl(206,100%,53%)"
    stroke-width="3"
    transform="" />
  
  <path
    d="M 
      60.0638103577
      -17.9015699536
      L
    
      71.7749627779
      0
      L
    
      91.8730911370
      0
      L
    
      121.0479759549
      -8.8370762433
      L
    
      141.7150139117
      22.4492323443
      L
    
      121.2476063332
      35.9695454907
      L
    
      121.3264514888
      53.6661760970
      L
    
      106.9251866455
      53.7303391567
      L
    
      68.2534729227
      32.9285969599
      L
    
      33.6622753078
      -0.6297663131
      L
    
      34.2625802172
      -1.6110640793
      L
    
      34.9026722599
      -1.4412302130
      z
    "
    fill="hsla(0,0%,50%,0.3)"
    stroke="hsla(0,0%,50%,1)"
    stroke-width="1"
    transform="translate(-87.6886446097,-17.9143846015)"
    />
  
  
  <line
    x1="121.04797595497104"
    y1="-8.837076243346061"
    x2="141.7150139117237"
    y2="22.44923234432365"
    stroke="hsla(0,50%,50%,0.6)"
    stroke-width="1"
    transform="translate(-87.6886446097,-17.9143846015)"
    />
  
  <line
    x1="60.06381035770226"
    y1="-17.90156995367428"
    x2="106.92518664558517"
    y2="53.730339156797655"
    stroke="hsla(0,50%,50%,0.6)"
    stroke-width="1"
    transform="translate(-87.6886446097,-17.9143846015)"
    />
  
  <line
    x1="50.84304704083957"
    y1="2.788185713597962"
    x2="68.2534729227727"
    y2="32.928596959997606"
    stroke="hsla(0,50%,50%,0.6)"
    stroke-width="1"
    transform="translate(-87.6886446097,-17.9143846015)"
    />
  
  <line
    x1="33.662275307844304"
    y1="-0.6297663131895094"
    x2="68.2534729227727"
    y2="32.928596959997606"
    stroke="hsla(0,50%,50%,0.6)"
    stroke-width="1"
    transform="translate(-87.6886446097,-17.9143846015)"
    />
  
  <line
    x1="34.262580217276536"
    y1="-1.6110640793619826"
    x2="50.84304704083957"
    y2="2.788185713597962"
    stroke="hsla(0,50%,50%,0.6)"
    stroke-width="1"
    transform="translate(-87.6886446097,-17.9143846015)"
    />
  
  <line
    x1="68.2534729227727"
    y1="32.928596959997606"
    x2="106.92518664558517"
    y2="53.730339156797655"
    stroke="hsla(0,50%,50%,0.6)"
    stroke-width="1"
    transform="translate(-87.6886446097,-17.9143846015)"
    />
  
  <line
    x1="34.262580217276536"
    y1="-1.6110640793619826"
    x2="34.31142410015649"
    y2="0"
    stroke="hsla(0,50%,50%,0.6)"
    stroke-width="1"
    transform="translate(-87.6886446097,-17.9143846015)"
    />
  
  <line
    x1="121.04797595497104"
    y1="-8.837076243346061"
    x2="121.32645148889321"
    y2="53.666176097017086"
    stroke="hsla(0,50%,50%,0.6)"
    stroke-width="1"
    transform="translate(-87.6886446097,-17.9143846015)"
    />
  
  <line
    x1="34.31142410015649"
    y1="0"
    x2="100"
    y2="0"
    stroke="hsla(0,50%,50%,0.6)"
    stroke-width="1"
    transform="translate(-87.6886446097,-17.9143846015)"
    />
  
  <line
    x1="100"
    y1="0"
    x2="100"
    y2="50.00524054082381"
    stroke="hsla(0,50%,50%,0.6)"
    stroke-width="1"
    transform="translate(-87.6886446097,-17.9143846015)"
    />
  
  <line
    x1="50.84304704083957"
    y1="2.788185713597962"
    x2="48.0073104177962"
    y2="13.286950440746617"
    stroke="hsla(0,50%,50%,0.6)"
    stroke-width="1"
    transform="translate(-87.6886446097,-17.9143846015)"
    />
  
  <line
    x1="34.262580217276536"
    y1="-1.6110640793619826"
    x2="33.662275307844304"
    y2="-0.6297663131895094"
    stroke="hsla(0,50%,50%,0.6)"
    stroke-width="1"
    transform="translate(-87.6886446097,-17.9143846015)"
    />
  
  <line
    x1="60.06381035770226"
    y1="-17.90156995367428"
    x2="33.662275307844304"
    y2="-0.6297663131895094"
    stroke="hsla(0,50%,50%,0.6)"
    stroke-width="1"
    transform="translate(-87.6886446097,-17.9143846015)"
    />
  
  <line
    x1="121.04797595497104"
    y1="-8.837076243346061"
    x2="48.0073104177962"
    y2="13.286950440746617"
    stroke="hsla(0,50%,50%,0.6)"
    stroke-width="1"
    transform="translate(-87.6886446097,-17.9143846015)"
    />
  
  <line
    x1="121.32645148889321"
    y1="53.666176097017086"
    x2="106.92518664558517"
    y2="53.730339156797655"
    stroke="hsla(0,50%,50%,0.6)"
    stroke-width="1"
    transform="translate(-87.6886446097,-17.9143846015)"
    />
  
  <line
    x1="141.7150139117237"
    y1="22.44923234432365"
    x2="100"
    y2="50.00524054082381"
    stroke="hsla(0,50%,50%,0.6)"
    stroke-width="1"
    transform="translate(-87.6886446097,-17.9143846015)"
    />
  
</svg>
