<?xml version="1.0"?>
<!DOCTYPE svg PUBLIC "-//W3C//DTD SVG 1.1//EN"
  "http://www.w3.org/Graphics/SVG/1.1/DTD/svg11.dtd">
<svg
  width="240"
  height="240"
  viewBox="-50 -50 200 200" xmlns="http://www.w3.org/2000/svg" version="1.1">
  <rect
    x="0"
    y="0"
    width="100"
    height="100"
    fill="hsla(206,100%,53%,0.3)"
    stroke="hsl(206,100%,53%)"
    stroke-width="3"
    transform="" />
  
  <path
    d="M 
      29.0317863296
      -10.2699142264
      L
    
      34.5358002336
      -3.4638433892
      L
    
      34.5416450531
      0
      L
    
      100
      0
      L
    
      100
      83.7556209044
      L
    
      102.9028351399
      96.3521315286
      L
    
      100
      97.0210828042
      L
    
      31.3199797124
      42.3681319445
      L
    
      16.3323700605
      0
      z
    "
    fill="hsla(0,0%,50%,0.3)"
    stroke="hsla(0,0%,50%,1)"
    stroke-width="1"
    transform="translate(-40.1332746416,-31.3053922197) scale(1,-1) translate(50,-110)"
    />
  
  
  <line
    x1="29.03178632966975"
    y1="-10.269914226454226"
    x2="34.53580023364823"
    y2="-3.463843389215674"
    stroke="hsla(0,50%,50%,0.6)"
    stroke-width="1"
    transform="translate(-40.1332746416,-31.3053922197) scale(1,-1) translate(50,-110)"
    />
  
  <line
    x1="96.96009862110132"
    y1="70.5643275071346"
    x2="102.90283513999698"
    y2="96.35213152866699"
    stroke="hsla(0,50%,50%,0.6)"
    stroke-width="1"
    transform="translate(-40.1332746416,-31.3053922197) scale(1,-1) translate(50,-110)"
    />
  
  <line
    x1="16.332370060556205"
    y1="0"
    x2="31.31997971242161"
    y2="42.36813194453331"
    stroke="hsla(0,50%,50%,0.6)"
    stroke-width="1"
    transform="translate(-40.1332746416,-31.3053922197) scale(1,-1) translate(50,-110)"
    />
  
  <line
    x1="34.53580023364823"
    y1="-3.463843389215674"
    x2="34.58831405808783"
    y2="27.65767595794822"
    stroke="hsla(0,50%,50%,0.6)"
    stroke-width="1"
    transform="translate(-40.1332746416,-31.3053922197) scale(1,-1) translate(50,-110)"
    />
  
  <line
    x1="16.332370060556205"
    y1="0"
    x2="100"
    y2="0"
    stroke="hsla(0,50%,50%,0.6)"
    stroke-width="1"
    transform="translate(-40.1332746416,-31.3053922197) scale(1,-1) translate(50,-110)"
    />
  
  <line
    x1="100"
    y1="0"
    x2="100"
    y2="97.02108280425406"
    stroke="hsla(0,50%,50%,0.6)"
    stroke-width="1"
    transform="translate(-40.1332746416,-31.3053922197) scale(1,-1) translate(50,-110)"
    />
  
  <line
    x1="29.03178632966975"
    y1="-10.269914226454226"
    x2="16.332370060556205"
    y2="0"
    stroke="hsla(0,50%,50%,0.6)"
    stroke-width="1"
    transform="translate(-40.1332746416,-31.3053922197) scale(1,-1) translate(50,-110)"
    />
  
  <line
    x1="21.047949287795355"
    y1="13.33036338250924"
    x2="89.16288715311578"
    y2="28.143206616771646"
    stroke="hsla(0,50%,50%,0.6)"
    stroke-width="1"
    transform="translate(-40.1332746416,-31.3053922197) scale(1,-1) translate(50,-110)"
    />
  
  <line
    x1="34.58831405808783"
    y1="27.65767595794822"
    x2="31.31997971242161"
    y2="42.36813194453331"
    stroke="hsla(0,50%,50%,0.6)"
    stroke-width="1"
    transform="translate(-40.1332746416,-31.3053922197) scale(1,-1) translate(50,-110)"
    />
  
  <line
    x1="31.31997971242161"
    y1="42.36813194453331"
    x2="100"
    y2="97.02108280425406"
    stroke="hsla(0,50%,50%,0.6)"
    stroke-width="1"
    transform="translate(-40.1332746416,-31.3053922197) scale(1,-1) translate(50,-110)"
    />
  
  <line
    x1="34.53580023364823"
    y1="-3.463843389215674"
    x2="21.047949287795355"
    y2="13.33036338250924"
    stroke="hsla(0,50%,50%,0.6)"
    stroke-width="1"
    transform="translate(-40.1332746416,-31.3053922197) scale(1,-1) translate(50,-110)"
    />
  
  <line
    x1="34.58831405808783"
    y1="27.65767595794822"
    x2="29.756703081480985"
    y2="37.94894088578737"
    stroke="hsla(0,50%,50%,0.6)"
    stroke-width="1"
    transform="translate(-40.1332746416,-31.3053922197) scale(1,-1) translate(50,-110)"
    />
  
  <line
    x1="29.756703081480985"
    y1="37.94894088578737"
    x2="96.96009862110132"
    y2="70.5643275071346"
    stroke="hsla(0,50%,50%,0.6)"
    stroke-width="1"
    transform="translate(-40.1332746416,-31.3053922197) scale(1,-1) translate(50,-110)"
    />
  
  <line
    x1="89.16288715311578"
    y1="28.143206616771646"
    x2="77.99258014941793"
    y2="79.5084141910702"
    stroke="hsla(0,50%,50%,0.6)"
    stroke-width="1"
    transform="translate(-40.1332746416,-31.3053922197) scale(1,-1) translate(50,-110)"
    />
  
  <line
    x1="96.96009862110132"
    y1="70.5643275071346"
    x2="77.99258014941793"
    y2="79.5084141910702"
    stroke="hsla(0,50%,50%,0.6)"
    stroke-width="1"
    transform="translate(-40.1332746416,-31.3053922197) scale(1,-1) translate(50,-110)"
    />
  
  <line
    x1="102.90283513999698"
    y1="96.35213152866699"
    x2="100"
    y2="97.02108280425406"
    stroke="hsla(0,50%,50%,0.6)"
    stroke-width="1"
    transform="translate(-40.1332746416,-31.3053922197) scale(1,-1) translate(50,-110)"
    />
  
</svg>
