<?xml version="1.0"?>
<!DOCTYPE svg PUBLIC "-//W3C//DTD SVG 1.1//EN"
  "http://www.w3.org/Graphics/SVG/1.1/DTD/svg11.dtd">
<svg
  width="240"
  height="240"
  viewBox="-500 -500 1000 1000" xmlns="http://www.w3.org/2000/svg" version="1.1">
  <rect
    x="0"
    y="0"
    width="100"
    height="100"
    fill="hsla(206,100%,53%,0.3)"
    stroke="hsl(206,100%,53%)"
    stroke-width="3"
    transform="" />
  
  <path
    d="M 
      41.1483488709
      -5.6551377541
      L
    
      70.9685859333
      0
      L
    
      100
      0
      L
    
      100
      9.2968601130
      L
    
      116.1122616986
      79.7894975208
      L
    
      100
      83.4722222222
      L
    
      0
      3.75
      L
    
      0
      0
      L
    
      16.4065973619
      0
      z
    "
    fill="hsla(0,0%,50%,0.3)"
    stroke="hsla(0,0%,50%,1)"
    stroke-width="1"
    transform="translate(-58.0561308493,-38.9085422340)"
    />
  
  
  <line
    x1="41.14834887092075"
    y1="-5.6551377541737216"
    x2="85.76399843429667"
    y2="24.83777515628501"
    stroke="hsla(0,50%,50%,0.6)"
    stroke-width="1"
    transform="translate(-58.0561308493,-38.9085422340)"
    />
  
  <line
    x1="99.09416813945792"
    y1="5.333761816128921"
    x2="116.11226169864462"
    y2="79.7894975208639"
    stroke="hsla(0,50%,50%,0.6)"
    stroke-width="1"
    transform="translate(-58.0561308493,-38.9085422340)"
    />
  
  <line
    x1="41.14834887092075"
    y1="-5.6551377541737216"
    x2="99.09416813945792"
    y2="5.333761816128921"
    stroke="hsla(0,50%,50%,0.6)"
    stroke-width="1"
    transform="translate(-58.0561308493,-38.9085422340)"
    />
  
  <line
    x1="0"
    y1="0"
    x2="100"
    y2="0"
    stroke="hsla(0,50%,50%,0.6)"
    stroke-width="1"
    transform="translate(-58.0561308493,-38.9085422340)"
    />
  
  <line
    x1="0"
    y1="0"
    x2="0"
    y2="3.75"
    stroke="hsla(0,50%,50%,0.6)"
    stroke-width="1"
    transform="translate(-58.0561308493,-38.9085422340)"
    />
  
  <line
    x1="100"
    y1="0"
    x2="100"
    y2="83.47222222222223"
    stroke="hsla(0,50%,50%,0.6)"
    stroke-width="1"
    transform="translate(-58.0561308493,-38.9085422340)"
    />
  
  <line
    x1="0"
    y1="3.75"
    x2="100"
    y2="83.47222222222223"
    stroke="hsla(0,50%,50%,0.6)"
    stroke-width="1"
    transform="translate(-58.0561308493,-38.9085422340)"
    />
  
  <line
    x1="41.14834887092075"
    y1="-5.6551377541737216"
    x2="0"
    y2="3.75"
    stroke="hsla(0,50%,50%,0.6)"
    stroke-width="1"
    transform="translate(-58.0561308493,-38.9085422340)"
    />
  
  <line
    x1="99.09416813945792"
    y1="5.333761816128921"
    x2="85.76399843429667"
    y2="24.83777515628501"
    stroke="hsla(0,50%,50%,0.6)"
    stroke-width="1"
    transform="translate(-58.0561308493,-38.9085422340)"
    />
  
  <line
    x1="116.11226169864462"
    y1="79.7894975208639"
    x2="100"
    y2="83.47222222222223"
    stroke="hsla(0,50%,50%,0.6)"
    stroke-width="1"
    transform="translate(-58.0561308493,-38.9085422340)"
    />
  
</svg>
