<?xml version="1.0"?>
<!DOCTYPE svg PUBLIC "-//W3C//DTD SVG 1.1//EN"
  "http://www.w3.org/Graphics/SVG/1.1/DTD/svg11.dtd">
<svg
  width="240"
  height="240"
  viewBox="-50 -50 200 200" xmlns="http://www.w3.org/2000/svg" version="1.1">
  <rect
    x="0"
    y="0"
    width="100"
    height="100"
    fill="hsla(206,100%,53%,0.3)"
    stroke="hsl(206,100%,53%)"
    stroke-width="3"
    transform="" />
  
  <path
    d="M 
      -4.4947986961
      42.2131896887
      L
    
      95.5052013038
      42.2131896887
      L
    
      95.5052013038
      142.2131896887
      L
    
      -4.4947986961
      142.2131896887
      z
    "
    fill="hsla(0,0%,50%,0.3)"
    stroke="hsla(0,0%,50%,1)"
    stroke-width="1"
    transform="translate(-33.0052013038,-117.2131896887) scale(1,-1) translate(50,-110)"
    />
  
  
  <line
    x1="-4.494798696196465"
    y1="42.213189688731326"
    x2="-4.494798696196465"
    y2="142.21318968873135"
    stroke="hsla(0,50%,50%,0.6)"
    stroke-width="1"
    transform="translate(-33.0052013038,-117.2131896887) scale(1,-1) translate(50,-110)"
    />
  
  <line
    x1="95.50520130380353"
    y1="42.213189688731326"
    x2="95.50520130380353"
    y2="142.21318968873135"
    stroke="hsla(0,50%,50%,0.6)"
    stroke-width="1"
    transform="translate(-33.0052013038,-117.2131896887) scale(1,-1) translate(50,-110)"
    />
  
  <line
    x1="-4.494798696196465"
    y1="42.213189688731326"
    x2="95.50520130380353"
    y2="42.213189688731326"
    stroke="hsla(0,50%,50%,0.6)"
    stroke-width="1"
    transform="translate(-33.0052013038,-117.2131896887) scale(1,-1) translate(50,-110)"
    />
  
  <line
    x1="-4.494798696196465"
    y1="142.21318968873135"
    x2="95.50520130380353"
    y2="142.21318968873135"
    stroke="hsla(0,50%,50%,0.6)"
    stroke-width="1"
    transform="translate(-33.0052013038,-117.2131896887) scale(1,-1) translate(50,-110)"
    />
  
</svg>
