<?xml version="1.0"?>
<!DOCTYPE svg PUBLIC "-//W3C//DTD SVG 1.1//EN"
  "http://www.w3.org/Graphics/SVG/1.1/DTD/svg11.dtd">
<svg
  width="240"
  height="240"
  viewBox="-50 -50 200 200" xmlns="http://www.w3.org/2000/svg" version="1.1">
  <rect
    x="0"
    y="0"
    width="100"
    height="100"
    fill="hsla(206,100%,53%,0.3)"
    stroke="hsl(206,100%,53%)"
    stroke-width="3"
    transform="" />
  
  <path
    d="M 
      45.1485873133
      -35.9053798851
      L
    
      74.0640301998
      -29.2235850485
      L
    
      76.0438382311
      -10.9876686689
      L
    
      122.6234206811
      -14.9242856367
      L
    
      126.4724184925
      -7.3535651456
      L
    
      119.1008292143
      -3.6058067873
      L
    
      114.6026560616
      10.8473247124
      L
    
      100.1853192325
      11.3306955602
      L
    
      100
      12.2443181818
      L
    
      41.9545629564
      6.4166882240
      L
    
      30.1838596612
      -8.3841752443
      L
    
      42.3275226214
      -23.6972326771
      z
    "
    fill="hsla(0,0%,50%,0.3)"
    stroke="hsla(0,0%,50%,1)"
    stroke-width="1"
    transform="translate(-46.9219821507,11.9823061727) scale(1,-1) translate(50,-110)"
    />
  
  
  <line
    x1="122.62342068112372"
    y1="-14.924285636774911"
    x2="126.47241849257388"
    y2="-7.353565145686405"
    stroke="hsla(0,50%,50%,0.6)"
    stroke-width="1"
    transform="translate(-46.9219821507,11.9823061727) scale(1,-1) translate(50,-110)"
    />
  
  <line
    x1="45.148587313313634"
    y1="-35.90537988512866"
    x2="74.06403019986213"
    y2="-29.223585048581565"
    stroke="hsla(0,50%,50%,0.6)"
    stroke-width="1"
    transform="translate(-46.9219821507,11.9823061727) scale(1,-1) translate(50,-110)"
    />
  
  <line
    x1="85.28322268473575"
    y1="-11.768524050197092"
    x2="97.2684263254169"
    y2="11.428490389742963"
    stroke="hsla(0,50%,50%,0.6)"
    stroke-width="1"
    transform="translate(-46.9219821507,11.9823061727) scale(1,-1) translate(50,-110)"
    />
  
  <line
    x1="105.21240703924147"
    y1="-13.45281491667457"
    x2="114.60265606166054"
    y2="10.847324712408751"
    stroke="hsla(0,50%,50%,0.6)"
    stroke-width="1"
    transform="translate(-46.9219821507,11.9823061727) scale(1,-1) translate(50,-110)"
    />
  
  <line
    x1="43.69548272150254"
    y1="-25.422218922831373"
    x2="89.91603388465339"
    y2="11.23191090194219"
    stroke="hsla(0,50%,50%,0.6)"
    stroke-width="1"
    transform="translate(-46.9219821507,11.9823061727) scale(1,-1) translate(50,-110)"
    />
  
  <line
    x1="61.17142785464611"
    y1="-9.730744927665308"
    x2="97.2684263254169"
    y2="11.428490389742963"
    stroke="hsla(0,50%,50%,0.6)"
    stroke-width="1"
    transform="translate(-46.9219821507,11.9823061727) scale(1,-1) translate(50,-110)"
    />
  
  <line
    x1="30.183859661287247"
    y1="-8.384175244331692"
    x2="41.95456295647332"
    y2="6.416688224095929"
    stroke="hsla(0,50%,50%,0.6)"
    stroke-width="1"
    transform="translate(-46.9219821507,11.9823061727) scale(1,-1) translate(50,-110)"
    />
  
  <line
    x1="74.06403019986213"
    y1="-29.223585048581565"
    x2="78.32985096472252"
    y2="10.068684469015041"
    stroke="hsla(0,50%,50%,0.6)"
    stroke-width="1"
    transform="translate(-46.9219821507,11.9823061727) scale(1,-1) translate(50,-110)"
    />
  
  <line
    x1="122.62342068112372"
    y1="-14.924285636774911"
    x2="61.17142785464611"
    y2="-9.730744927665308"
    stroke="hsla(0,50%,50%,0.6)"
    stroke-width="1"
    transform="translate(-46.9219821507,11.9823061727) scale(1,-1) translate(50,-110)"
    />
  
  <line
    x1="36.8515543796655"
    y1="0"
    x2="100"
    y2="0"
    stroke="hsla(0,50%,50%,0.6)"
    stroke-width="1"
    transform="translate(-46.9219821507,11.9823061727) scale(1,-1) translate(50,-110)"
    />
  
  <line
    x1="100"
    y1="0"
    x2="100"
    y2="12.244318181818182"
    stroke="hsla(0,50%,50%,0.6)"
    stroke-width="1"
    transform="translate(-46.9219821507,11.9823061727) scale(1,-1) translate(50,-110)"
    />
  
  <line
    x1="41.95456295647332"
    y1="6.416688224095929"
    x2="100"
    y2="12.244318181818182"
    stroke="hsla(0,50%,50%,0.6)"
    stroke-width="1"
    transform="translate(-46.9219821507,11.9823061727) scale(1,-1) translate(50,-110)"
    />
  
  <line
    x1="74.06403019986213"
    y1="-29.223585048581565"
    x2="30.183859661287247"
    y2="-8.384175244331692"
    stroke="hsla(0,50%,50%,0.6)"
    stroke-width="1"
    transform="translate(-46.9219821507,11.9823061727) scale(1,-1) translate(50,-110)"
    />
  
  <line
    x1="45.148587313313634"
    y1="-35.90537988512866"
    x2="36.8515543796655"
    y2="0"
    stroke="hsla(0,50%,50%,0.6)"
    stroke-width="1"
    transform="translate(-46.9219821507,11.9823061727) scale(1,-1) translate(50,-110)"
    />
  
  <line
    x1="43.69548272150254"
    y1="-25.422218922831373"
    x2="30.183859661287247"
    y2="-8.384175244331692"
    stroke="hsla(0,50%,50%,0.6)"
    stroke-width="1"
    transform="translate(-46.9219821507,11.9823061727) scale(1,-1) translate(50,-110)"
    />
  
  <line
    x1="114.60265606166054"
    y1="10.847324712408751"
    x2="97.2684263254169"
    y2="11.428490389742963"
    stroke="hsla(0,50%,50%,0.6)"
    stroke-width="1"
    transform="translate(-46.9219821507,11.9823061727) scale(1,-1) translate(50,-110)"
    />
  
  <line
    x1="105.21240703924147"
    y1="-13.45281491667457"
    x2="100"
    y2="12.244318181818182"
    stroke="hsla(0,50%,50%,0.6)"
    stroke-width="1"
    transform="translate(-46.9219821507,11.9823061727) scale(1,-1) translate(50,-110)"
    />
  
  <line
    x1="85.28322268473575"
    y1="-11.768524050197092"
    x2="78.32985096472252"
    y2="10.068684469015041"
    stroke="hsla(0,50%,50%,0.6)"
    stroke-width="1"
    transform="translate(-46.9219821507,11.9823061727) scale(1,-1) translate(50,-110)"
    />
  
  <line
    x1="61.17142785464611"
    y1="-9.730744927665308"
    x2="41.95456295647332"
    y2="6.416688224095929"
    stroke="hsla(0,50%,50%,0.6)"
    stroke-width="1"
    transform="translate(-46.9219821507,11.9823061727) scale(1,-1) translate(50,-110)"
    />
  
  <line
    x1="122.62342068112372"
    y1="-14.924285636774911"
    x2="114.60265606166054"
    y2="10.847324712408751"
    stroke="hsla(0,50%,50%,0.6)"
    stroke-width="1"
    transform="translate(-46.9219821507,11.9823061727) scale(1,-1) translate(50,-110)"
    />
  
  <line
    x1="126.47241849257388"
    y1="-7.353565145686405"
    x2="89.91603388465339"
    y2="11.23191090194219"
    stroke="hsla(0,50%,50%,0.6)"
    stroke-width="1"
    transform="translate(-46.9219821507,11.9823061727) scale(1,-1) translate(50,-110)"
    />
  
</svg>
