<?xml version="1.0"?>
<!DOCTYPE svg PUBLIC "-//W3C//DTD SVG 1.1//EN"
  "http://www.w3.org/Graphics/SVG/1.1/DTD/svg11.dtd">
<svg
  width="240"
  height="240"
  viewBox="-50 -50 200 200" xmlns="http://www.w3.org/2000/svg" version="1.1">
  <rect
    x="0"
    y="0"
    width="100"
    height="100"
    fill="hsla(206,100%,53%,0.3)"
    stroke="hsl(206,100%,53%)"
    stroke-width="3"
    transform="" />
  
  <path
    d="M 
      72.7266211624
      -27.7600119108
      L
    
      97.5330511602
      0
      L
    
      100
      0
      L
    
      100
      2.7606765335
      L
    
      103.6263607033
      6.8188105063
      L
    
      129.6779637735
      -1.4695958043
      L
    
      133.0313779628
      8.1493027562
      L
    
      149.6742133576
      15.0648152004
      L
    
      141.9353042184
      33.6892326934
      L
    
      139.7929416746
      33.6266942386
      L
    
      141.4746808264
      39.4618829682
      L
    
      134.5736219387
      41.4508127969
      L
    
      61.2028338855
      20.3160001590
      L
    
      43.0087713421
      -1.2040520785
      z
    "
    fill="hsla(0,0%,50%,0.3)"
    stroke="hsla(0,0%,50%,1)"
    stroke-width="1"
    transform="translate(-71.1927173339,-13.8531968276) scale(1,-1) translate(50,-110)"
    />
  
  
  <line
    x1="72.72662116245223"
    y1="-27.760011910898015"
    x2="134.57362193874755"
    y2="41.450812796987286"
    stroke="hsla(0,50%,50%,0.6)"
    stroke-width="1"
    transform="translate(-71.1927173339,-13.8531968276) scale(1,-1) translate(50,-110)"
    />
  
  <line
    x1="129.67796377358445"
    y1="-1.4695958043540531"
    x2="141.93530421848286"
    y2="33.68923269342923"
    stroke="hsla(0,50%,50%,0.6)"
    stroke-width="1"
    transform="translate(-71.1927173339,-13.8531968276) scale(1,-1) translate(50,-110)"
    />
  
  <line
    x1="118.46668570884022"
    y1="2.0973105242834915"
    x2="149.67421335761588"
    y2="15.064815200409562"
    stroke="hsla(0,50%,50%,0.6)"
    stroke-width="1"
    transform="translate(-71.1927173339,-13.8531968276) scale(1,-1) translate(50,-110)"
    />
  
  <line
    x1="129.67796377358445"
    y1="-1.4695958043540531"
    x2="141.47468082649425"
    y2="39.46188296827421"
    stroke="hsla(0,50%,50%,0.6)"
    stroke-width="1"
    transform="translate(-71.1927173339,-13.8531968276) scale(1,-1) translate(50,-110)"
    />
  
  <line
    x1="43.008771342126494"
    y1="-1.2040520785322015"
    x2="61.20283388552148"
    y2="20.316000159060483"
    stroke="hsla(0,50%,50%,0.6)"
    stroke-width="1"
    transform="translate(-71.1927173339,-13.8531968276) scale(1,-1) translate(50,-110)"
    />
  
  <line
    x1="44.420166316012676"
    y1="-2.332425577088203"
    x2="103.76017390808337"
    y2="32.57484910440505"
    stroke="hsla(0,50%,50%,0.6)"
    stroke-width="1"
    transform="translate(-71.1927173339,-13.8531968276) scale(1,-1) translate(50,-110)"
    />
  
  <line
    x1="44.02673350041771"
    y1="0"
    x2="100"
    y2="0"
    stroke="hsla(0,50%,50%,0.6)"
    stroke-width="1"
    transform="translate(-71.1927173339,-13.8531968276) scale(1,-1) translate(50,-110)"
    />
  
  <line
    x1="100"
    y1="0"
    x2="100"
    y2="31.49171270718232"
    stroke="hsla(0,50%,50%,0.6)"
    stroke-width="1"
    transform="translate(-71.1927173339,-13.8531968276) scale(1,-1) translate(50,-110)"
    />
  
  <line
    x1="61.20283388552148"
    y1="20.316000159060483"
    x2="134.57362193874755"
    y2="41.450812796987286"
    stroke="hsla(0,50%,50%,0.6)"
    stroke-width="1"
    transform="translate(-71.1927173339,-13.8531968276) scale(1,-1) translate(50,-110)"
    />
  
  <line
    x1="44.420166316012676"
    y1="-2.332425577088203"
    x2="44.02673350041771"
    y2="0"
    stroke="hsla(0,50%,50%,0.6)"
    stroke-width="1"
    transform="translate(-71.1927173339,-13.8531968276) scale(1,-1) translate(50,-110)"
    />
  
  <line
    x1="44.420166316012676"
    y1="-2.332425577088203"
    x2="43.008771342126494"
    y2="-1.2040520785322015"
    stroke="hsla(0,50%,50%,0.6)"
    stroke-width="1"
    transform="translate(-71.1927173339,-13.8531968276) scale(1,-1) translate(50,-110)"
    />
  
  <line
    x1="72.72662116245223"
    y1="-27.760011910898015"
    x2="43.008771342126494"
    y2="-1.2040520785322015"
    stroke="hsla(0,50%,50%,0.6)"
    stroke-width="1"
    transform="translate(-71.1927173339,-13.8531968276) scale(1,-1) translate(50,-110)"
    />
  
  <line
    x1="103.76017390808337"
    y1="32.57484910440505"
    x2="141.93530421848286"
    y2="33.68923269342923"
    stroke="hsla(0,50%,50%,0.6)"
    stroke-width="1"
    transform="translate(-71.1927173339,-13.8531968276) scale(1,-1) translate(50,-110)"
    />
  
  <line
    x1="129.67796377358445"
    y1="-1.4695958043540531"
    x2="61.20283388552148"
    y2="20.316000159060483"
    stroke="hsla(0,50%,50%,0.6)"
    stroke-width="1"
    transform="translate(-71.1927173339,-13.8531968276) scale(1,-1) translate(50,-110)"
    />
  
  <line
    x1="118.46668570884022"
    y1="2.0973105242834915"
    x2="100"
    y2="31.49171270718232"
    stroke="hsla(0,50%,50%,0.6)"
    stroke-width="1"
    transform="translate(-71.1927173339,-13.8531968276) scale(1,-1) translate(50,-110)"
    />
  
  <line
    x1="149.67421335761588"
    y1="15.064815200409562"
    x2="141.93530421848286"
    y2="33.68923269342923"
    stroke="hsla(0,50%,50%,0.6)"
    stroke-width="1"
    transform="translate(-71.1927173339,-13.8531968276) scale(1,-1) translate(50,-110)"
    />
  
  <line
    x1="141.47468082649425"
    y1="39.46188296827421"
    x2="134.57362193874755"
    y2="41.450812796987286"
    stroke="hsla(0,50%,50%,0.6)"
    stroke-width="1"
    transform="translate(-71.1927173339,-13.8531968276) scale(1,-1) translate(50,-110)"
    />
  
</svg>
