<?xml version="1.0"?>
<!DOCTYPE svg PUBLIC "-//W3C//DTD SVG 1.1//EN"
  "http://www.w3.org/Graphics/SVG/1.1/DTD/svg11.dtd">
<svg
  width="240"
  height="240"
  viewBox="-500 -500 1000 1000" xmlns="http://www.w3.org/2000/svg" version="1.1">
  <rect
    x="0"
    y="0"
    width="100"
    height="100"
    fill="hsla(206,100%,53%,0.3)"
    stroke="hsl(206,100%,53%)"
    stroke-width="3"
    transform="" />
  
  <path
    d="M 
      1.5625
      4.9019607843
      L
    
      98.4375
      17.8082191780
      L
    
      63.0136986301
      84.1463414634
      z
    "
    fill="hsla(0,0%,50%,0.3)"
    stroke="hsla(0,0%,50%,1)"
    stroke-width="1"
    transform="translate(-50,-44.5241511238)"
    />
  
  
  <line
    x1="96.09477767645218"
    y1="17.49610790424934"
    x2="97.64981350239151"
    y2="19.283319003063493"
    stroke="hsla(0,50%,50%,0.6)"
    stroke-width="1"
    transform="translate(-50,-44.5241511238)"
    />
  
  <line
    x1="93.18382930806344"
    y1="26.597858260803505"
    x2="93.56298469882445"
    y2="26.936719780115634"
    stroke="hsla(0,50%,50%,0.6)"
    stroke-width="1"
    transform="translate(-50,-44.5241511238)"
    />
  
  <line
    x1="85.56934150783128"
    y1="30.217271259729703"
    x2="89.8311106395583"
    y2="33.92539711353349"
    stroke="hsla(0,50%,50%,0.6)"
    stroke-width="1"
    transform="translate(-50,-44.5241511238)"
    />
  
  <line
    x1="56.834296264899834"
    y1="67.26969799326453"
    x2="63.013698630136986"
    y2="84.14634146341463"
    stroke="hsla(0,50%,50%,0.6)"
    stroke-width="1"
    transform="translate(-50,-44.5241511238)"
    />
  
  <line
    x1="50.18761892170022"
    y1="46.00428256080945"
    x2="70.96622125880081"
    y2="69.253659192844"
    stroke="hsla(0,50%,50%,0.6)"
    stroke-width="1"
    transform="translate(-50,-44.5241511238)"
    />
  
  <line
    x1="6.473593941174371"
    y1="5.556245660709774"
    x2="6.550420837071556"
    y2="11.334133083980989"
    stroke="hsla(0,50%,50%,0.6)"
    stroke-width="1"
    transform="translate(-50,-44.5241511238)"
    />
  
  <line
    x1="3.1311110710279126"
    y1="5.1109403951732055"
    x2="3.181068878210095"
    y2="6.989185951591804"
    stroke="hsla(0,50%,50%,0.6)"
    stroke-width="1"
    transform="translate(-50,-44.5241511238)"
    />
  
  <line
    x1="3.120033394448655"
    y1="5.109464561817494"
    x2="3.11891273677875"
    y2="5.15159752175885"
    stroke="hsla(0,50%,50%,0.6)"
    stroke-width="1"
    transform="translate(-50,-44.5241511238)"
    />
  
  <line
    x1="3.120033394448655"
    y1="5.109464561817494"
    x2="2.7868951752806295"
    y2="6.48087933325166"
    stroke="hsla(0,50%,50%,0.6)"
    stroke-width="1"
    transform="translate(-50,-44.5241511238)"
    />
  
  <line
    x1="1.5625"
    y1="4.901960784313726"
    x2="63.013698630136986"
    y2="84.14634146341463"
    stroke="hsla(0,50%,50%,0.6)"
    stroke-width="1"
    transform="translate(-50,-44.5241511238)"
    />
  
  <line
    x1="3.1311110710279126"
    y1="5.1109403951732055"
    x2="3.11891273677875"
    y2="5.15159752175885"
    stroke="hsla(0,50%,50%,0.6)"
    stroke-width="1"
    transform="translate(-50,-44.5241511238)"
    />
  
  <line
    x1="6.473593941174371"
    y1="5.556245660709774"
    x2="5.8469194127682975"
    y2="7.750535178013806"
    stroke="hsla(0,50%,50%,0.6)"
    stroke-width="1"
    transform="translate(-50,-44.5241511238)"
    />
  
  <line
    x1="14.592173728723703"
    y1="6.637850703584999"
    x2="93.56298469882445"
    y2="26.936719780115634"
    stroke="hsla(0,50%,50%,0.6)"
    stroke-width="1"
    transform="translate(-50,-44.5241511238)"
    />
  
  <line
    x1="1.5625"
    y1="4.901960784313726"
    x2="3.11891273677875"
    y2="5.15159752175885"
    stroke="hsla(0,50%,50%,0.6)"
    stroke-width="1"
    transform="translate(-50,-44.5241511238)"
    />
  
  <line
    x1="1.5625"
    y1="4.901960784313726"
    x2="98.4375"
    y2="17.80821917808219"
    stroke="hsla(0,50%,50%,0.6)"
    stroke-width="1"
    transform="translate(-50,-44.5241511238)"
    />
  
  <line
    x1="3.181068878210095"
    y1="6.989185951591804"
    x2="5.8469194127682975"
    y2="7.750535178013806"
    stroke="hsla(0,50%,50%,0.6)"
    stroke-width="1"
    transform="translate(-50,-44.5241511238)"
    />
  
  <line
    x1="2.7868951752806295"
    y1="6.48087933325166"
    x2="14.592173728723703"
    y2="6.637850703584999"
    stroke="hsla(0,50%,50%,0.6)"
    stroke-width="1"
    transform="translate(-50,-44.5241511238)"
    />
  
  <line
    x1="95.33803560977319"
    y1="18.99005820863172"
    x2="97.64981350239151"
    y2="19.283319003063493"
    stroke="hsla(0,50%,50%,0.6)"
    stroke-width="1"
    transform="translate(-50,-44.5241511238)"
    />
  
  <line
    x1="6.550420837071556"
    y1="11.334133083980989"
    x2="89.8311106395583"
    y2="33.92539711353349"
    stroke="hsla(0,50%,50%,0.6)"
    stroke-width="1"
    transform="translate(-50,-44.5241511238)"
    />
  
  <line
    x1="98.4375"
    y1="17.80821917808219"
    x2="63.013698630136986"
    y2="84.14634146341463"
    stroke="hsla(0,50%,50%,0.6)"
    stroke-width="1"
    transform="translate(-50,-44.5241511238)"
    />
  
  <line
    x1="98.4375"
    y1="17.80821917808219"
    x2="95.33803560977319"
    y2="18.99005820863172"
    stroke="hsla(0,50%,50%,0.6)"
    stroke-width="1"
    transform="translate(-50,-44.5241511238)"
    />
  
  <line
    x1="50.18761892170022"
    y1="46.00428256080945"
    x2="40.29323099619032"
    y2="54.84716705302856"
    stroke="hsla(0,50%,50%,0.6)"
    stroke-width="1"
    transform="translate(-50,-44.5241511238)"
    />
  
  <line
    x1="95.33803560977319"
    y1="18.99005820863172"
    x2="85.56934150783128"
    y2="30.217271259729703"
    stroke="hsla(0,50%,50%,0.6)"
    stroke-width="1"
    transform="translate(-50,-44.5241511238)"
    />
  
  <line
    x1="96.09477767645218"
    y1="17.49610790424934"
    x2="40.29323099619032"
    y2="54.84716705302856"
    stroke="hsla(0,50%,50%,0.6)"
    stroke-width="1"
    transform="translate(-50,-44.5241511238)"
    />
  
  <line
    x1="93.18382930806344"
    y1="26.597858260803505"
    x2="56.834296264899834"
    y2="67.26969799326453"
    stroke="hsla(0,50%,50%,0.6)"
    stroke-width="1"
    transform="translate(-50,-44.5241511238)"
    />
  
  <line
    x1="56.834296264899834"
    y1="67.26969799326453"
    x2="70.96622125880081"
    y2="69.253659192844"
    stroke="hsla(0,50%,50%,0.6)"
    stroke-width="1"
    transform="translate(-50,-44.5241511238)"
    />
  
</svg>
