<?xml version="1.0"?>
<!DOCTYPE svg PUBLIC "-//W3C//DTD SVG 1.1//EN"
  "http://www.w3.org/Graphics/SVG/1.1/DTD/svg11.dtd">
<svg
  width="240"
  height="240"
  viewBox="-50 -50 200 200" xmlns="http://www.w3.org/2000/svg" version="1.1">
  <rect
    x="0"
    y="0"
    width="100"
    height="100"
    fill="hsla(206,100%,53%,0.3)"
    stroke="hsl(206,100%,53%)"
    stroke-width="3"
    transform="" />
  
  <path
    d="M 
      -8.1560505000
      -59.7614169946
      L
    
      30.9209205492
      -44.1276343461
      L
    
      33.2815585414
      6.4293182787
      L
    
      -6.1368222192
      48.7525711554
      L
    
      -45.3012509507
      33.0837987327
      z
    "
    fill="hsla(0,0%,50%,0.3)"
    stroke="hsla(0,0%,50%,1)"
    stroke-width="1"
    transform="translate(18.6018318344,-23.0406412313) scale(1,-1) translate(50,-110)"
    />
  
  
  <line
    x1="-8.156050500059028"
    y1="-59.76141699466021"
    x2="30.920920549224203"
    y2="-44.1276343461886"
    stroke="hsla(0,50%,50%,0.6)"
    stroke-width="1"
    transform="translate(18.6018318344,-23.0406412313) scale(1,-1) translate(50,-110)"
    />
  
  <line
    x1="30.920920549224203"
    y1="-44.1276343461886"
    x2="-20.6089028071637"
    y2="-17.69957091934937"
    stroke="hsla(0,50%,50%,0.6)"
    stroke-width="1"
    transform="translate(18.6018318344,-23.0406412313) scale(1,-1) translate(50,-110)"
    />
  
  <line
    x1="-8.156050500059028"
    y1="-59.76141699466021"
    x2="-45.30125095079507"
    y2="33.08379873277854"
    stroke="hsla(0,50%,50%,0.6)"
    stroke-width="1"
    transform="translate(18.6018318344,-23.0406412313) scale(1,-1) translate(50,-110)"
    />
  
  <line
    x1="11.698833362969589"
    y1="6.955735193628187"
    x2="20.3290635917091"
    y2="20.336325836251564"
    stroke="hsla(0,50%,50%,0.6)"
    stroke-width="1"
    transform="translate(18.6018318344,-23.0406412313) scale(1,-1) translate(50,-110)"
    />
  
  <line
    x1="30.920920549224203"
    y1="-44.1276343461886"
    x2="33.28155854149678"
    y2="6.429318278751155"
    stroke="hsla(0,50%,50%,0.6)"
    stroke-width="1"
    transform="translate(18.6018318344,-23.0406412313) scale(1,-1) translate(50,-110)"
    />
  
  <line
    x1="0"
    y1="0"
    x2="32.98135664630293"
    y2="0"
    stroke="hsla(0,50%,50%,0.6)"
    stroke-width="1"
    transform="translate(18.6018318344,-23.0406412313) scale(1,-1) translate(50,-110)"
    />
  
  <line
    x1="0"
    y1="0"
    x2="0"
    y2="42.16350601295097"
    stroke="hsla(0,50%,50%,0.6)"
    stroke-width="1"
    transform="translate(18.6018318344,-23.0406412313) scale(1,-1) translate(50,-110)"
    />
  
  <line
    x1="32.98135664630293"
    y1="0"
    x2="-9.492623879412356"
    y2="3.97511179484573"
    stroke="hsla(0,50%,50%,0.6)"
    stroke-width="1"
    transform="translate(18.6018318344,-23.0406412313) scale(1,-1) translate(50,-110)"
    />
  
  <line
    x1="-20.6089028071637"
    y1="-17.69957091934937"
    x2="-9.492623879412356"
    y2="3.97511179484573"
    stroke="hsla(0,50%,50%,0.6)"
    stroke-width="1"
    transform="translate(18.6018318344,-23.0406412313) scale(1,-1) translate(50,-110)"
    />
  
  <line
    x1="11.698833362969589"
    y1="6.955735193628187"
    x2="-9.021449149479853"
    y2="42.805511620070305"
    stroke="hsla(0,50%,50%,0.6)"
    stroke-width="1"
    transform="translate(18.6018318344,-23.0406412313) scale(1,-1) translate(50,-110)"
    />
  
  <line
    x1="-9.492623879412356"
    y1="3.97511179484573"
    x2="20.3290635917091"
    y2="20.336325836251564"
    stroke="hsla(0,50%,50%,0.6)"
    stroke-width="1"
    transform="translate(18.6018318344,-23.0406412313) scale(1,-1) translate(50,-110)"
    />
  
  <line
    x1="33.28155854149678"
    y1="6.429318278751155"
    x2="11.698833362969589"
    y2="6.955735193628187"
    stroke="hsla(0,50%,50%,0.6)"
    stroke-width="1"
    transform="translate(18.6018318344,-23.0406412313) scale(1,-1) translate(50,-110)"
    />
  
  <line
    x1="-9.021449149479853"
    y1="42.805511620070305"
    x2="-6.136822219279061"
    y2="48.75257115548935"
    stroke="hsla(0,50%,50%,0.6)"
    stroke-width="1"
    transform="translate(18.6018318344,-23.0406412313) scale(1,-1) translate(50,-110)"
    />
  
  <line
    x1="33.28155854149678"
    y1="6.429318278751155"
    x2="-6.136822219279061"
    y2="48.75257115548935"
    stroke="hsla(0,50%,50%,0.6)"
    stroke-width="1"
    transform="translate(18.6018318344,-23.0406412313) scale(1,-1) translate(50,-110)"
    />
  
  <line
    x1="0"
    y1="42.16350601295097"
    x2="-9.021449149479853"
    y2="42.805511620070305"
    stroke="hsla(0,50%,50%,0.6)"
    stroke-width="1"
    transform="translate(18.6018318344,-23.0406412313) scale(1,-1) translate(50,-110)"
    />
  
  <line
    x1="-45.30125095079507"
    y1="33.08379873277854"
    x2="-6.136822219279061"
    y2="48.75257115548935"
    stroke="hsla(0,50%,50%,0.6)"
    stroke-width="1"
    transform="translate(18.6018318344,-23.0406412313) scale(1,-1) translate(50,-110)"
    />
  
</svg>
