<?xml version="1.0"?>
<!DOCTYPE svg PUBLIC "-//W3C//DTD SVG 1.1//EN"
  "http://www.w3.org/Graphics/SVG/1.1/DTD/svg11.dtd">
<svg
  width="240"
  height="240"
  viewBox="-500 -500 1000 1000" xmlns="http://www.w3.org/2000/svg" version="1.1">
  <rect
    x="0"
    y="0"
    width="100"
    height="100"
    fill="hsla(206,100%,53%,0.3)"
    stroke="hsl(206,100%,53%)"
    stroke-width="3"
    transform="" />
  
  <path
    d="M 
      56.6844919786
      0
      L
    
      100
      0
      L
    
      100
      12.6692057268
      L
    
      107.4382211552
      12.8672782029
      L
    
      137.0891825988
      23.3549466002
      L
    
      136.3981834197
      61.4925082965
      L
    
      135.5843944359
      61.4777635804
      L
    
      135.4328299571
      65.7905220118
      L
    
      100
      64.5452961335
      L
    
      48.6858661776
      11.3961373316
      z
    "
    fill="hsla(0,0%,50%,0.3)"
    stroke="hsla(0,0%,50%,1)"
    stroke-width="1"
    transform="translate(-92.8875243882,-32.8952610059)"
    />
  
  
  <line
    x1="107.43822115525316"
    y1="12.867278202979987"
    x2="131.1310411780443"
    y2="31.00306437440672"
    stroke="hsla(0,50%,50%,0.6)"
    stroke-width="1"
    transform="translate(-92.8875243882,-32.8952610059)"
    />
  
  <line
    x1="100.63460907497947"
    y1="12.686104739193075"
    x2="117.16324518013386"
    y2="61.14399816788324"
    stroke="hsla(0,50%,50%,0.6)"
    stroke-width="1"
    transform="translate(-92.8875243882,-32.8952610059)"
    />
  
  <line
    x1="107.43822115525316"
    y1="12.867278202979987"
    x2="137.08918259881156"
    y2="23.354946600291434"
    stroke="hsla(0,50%,50%,0.6)"
    stroke-width="1"
    transform="translate(-92.8875243882,-32.8952610059)"
    />
  
  <line
    x1="48.68586617767344"
    y1="11.396137331619554"
    x2="100"
    y2="64.54529613351662"
    stroke="hsla(0,50%,50%,0.6)"
    stroke-width="1"
    transform="translate(-92.8875243882,-32.8952610059)"
    />
  
  <line
    x1="56.68449197860963"
    y1="0"
    x2="68.05468822964141"
    y2="31.4576003704408"
    stroke="hsla(0,50%,50%,0.6)"
    stroke-width="1"
    transform="translate(-92.8875243882,-32.8952610059)"
    />
  
  <line
    x1="48.82373004689707"
    y1="11.306432249843157"
    x2="117.16324518013386"
    y2="61.14399816788324"
    stroke="hsla(0,50%,50%,0.6)"
    stroke-width="1"
    transform="translate(-92.8875243882,-32.8952610059)"
    />
  
  <line
    x1="56.68449197860963"
    y1="0"
    x2="100"
    y2="0"
    stroke="hsla(0,50%,50%,0.6)"
    stroke-width="1"
    transform="translate(-92.8875243882,-32.8952610059)"
    />
  
  <line
    x1="100"
    y1="0"
    x2="100"
    y2="64.54529613351662"
    stroke="hsla(0,50%,50%,0.6)"
    stroke-width="1"
    transform="translate(-92.8875243882,-32.8952610059)"
    />
  
  <line
    x1="137.08918259881156"
    y1="23.354946600291434"
    x2="136.39818341970826"
    y2="61.49250829654607"
    stroke="hsla(0,50%,50%,0.6)"
    stroke-width="1"
    transform="translate(-92.8875243882,-32.8952610059)"
    />
  
  <line
    x1="68.05468822964141"
    y1="31.4576003704408"
    x2="89.61534106216156"
    y2="40.11831686645841"
    stroke="hsla(0,50%,50%,0.6)"
    stroke-width="1"
    transform="translate(-92.8875243882,-32.8952610059)"
    />
  
  <line
    x1="136.92618143974545"
    y1="23.297292412317905"
    x2="135.43282995714682"
    y2="65.79052201180133"
    stroke="hsla(0,50%,50%,0.6)"
    stroke-width="1"
    transform="translate(-92.8875243882,-32.8952610059)"
    />
  
  <line
    x1="48.82373004689707"
    y1="11.306432249843157"
    x2="107.43822115525316"
    y2="12.867278202979987"
    stroke="hsla(0,50%,50%,0.6)"
    stroke-width="1"
    transform="translate(-92.8875243882,-32.8952610059)"
    />
  
  <line
    x1="56.68449197860963"
    y1="0"
    x2="48.68586617767344"
    y2="11.396137331619554"
    stroke="hsla(0,50%,50%,0.6)"
    stroke-width="1"
    transform="translate(-92.8875243882,-32.8952610059)"
    />
  
  <line
    x1="48.82373004689707"
    y1="11.306432249843157"
    x2="48.68586617767344"
    y2="11.396137331619554"
    stroke="hsla(0,50%,50%,0.6)"
    stroke-width="1"
    transform="translate(-92.8875243882,-32.8952610059)"
    />
  
  <line
    x1="100.63460907497947"
    y1="12.686104739193075"
    x2="89.61534106216156"
    y2="40.11831686645841"
    stroke="hsla(0,50%,50%,0.6)"
    stroke-width="1"
    transform="translate(-92.8875243882,-32.8952610059)"
    />
  
  <line
    x1="117.16324518013386"
    y1="61.14399816788324"
    x2="136.39818341970826"
    y2="61.49250829654607"
    stroke="hsla(0,50%,50%,0.6)"
    stroke-width="1"
    transform="translate(-92.8875243882,-32.8952610059)"
    />
  
  <line
    x1="100"
    y1="64.54529613351662"
    x2="135.43282995714682"
    y2="65.79052201180133"
    stroke="hsla(0,50%,50%,0.6)"
    stroke-width="1"
    transform="translate(-92.8875243882,-32.8952610059)"
    />
  
  <line
    x1="136.92618143974545"
    y1="23.297292412317905"
    x2="131.1310411780443"
    y2="31.00306437440672"
    stroke="hsla(0,50%,50%,0.6)"
    stroke-width="1"
    transform="translate(-92.8875243882,-32.8952610059)"
    />
  
  <line
    x1="137.08918259881156"
    y1="23.354946600291434"
    x2="131.1310411780443"
    y2="31.00306437440672"
    stroke="hsla(0,50%,50%,0.6)"
    stroke-width="1"
    transform="translate(-92.8875243882,-32.8952610059)"
    />
  
</svg>
