<?xml version="1.0"?>
<!DOCTYPE svg PUBLIC "-//W3C//DTD SVG 1.1//EN"
  "http://www.w3.org/Graphics/SVG/1.1/DTD/svg11.dtd">
<svg
  width="240"
  height="240"
  viewBox="-50 -50 200 200" xmlns="http://www.w3.org/2000/svg" version="1.1">
  <rect
    x="0"
    y="0"
    width="100"
    height="100"
    fill="hsla(206,100%,53%,0.3)"
    stroke="hsl(206,100%,53%)"
    stroke-width="3"
    transform="" />
  
  <path
    d="M 
      47.7740566763
      -72.9750327937
      L
    
      133.5991030272
      -21.6519247539
      L
    
      109.1895733382
      19.1669012482
      L
    
      10.2952723590
      -10.3011511044
      L
    
      10.7782551719
      -22.2939294109
      L
    
      7.3174810250
      -24.5573464522
      L
    
      10.9588349703
      -30.1249919032
      L
    
      15.7036341194
      -28.8721497467
      L
    
      20.4855442429
      -27.3418290791
      z
    "
    fill="hsla(0,0%,50%,0.3)"
    stroke="hsla(0,0%,50%,1)"
    stroke-width="1"
    transform="translate(-18.0550941382,27.2669460344) scale(1,-1) translate(50,-110)"
    />
  
  
  <line
    x1="47.77405667636433"
    y1="-72.97503279373292"
    x2="133.59910302728292"
    y2="-21.651924753955402"
    stroke="hsla(0,50%,50%,0.6)"
    stroke-width="1"
    transform="translate(-18.0550941382,27.2669460344) scale(1,-1) translate(50,-110)"
    />
  
  <line
    x1="10.958834970355566"
    y1="-30.124991903270654"
    x2="15.703634119482569"
    y2="-28.872149746716374"
    stroke="hsla(0,50%,50%,0.6)"
    stroke-width="1"
    transform="translate(-18.0550941382,27.2669460344) scale(1,-1) translate(50,-110)"
    />
  
  <line
    x1="10.975328462340537"
    y1="-29.863075575410768"
    x2="15.703634119482569"
    y2="-28.872149746716374"
    stroke="hsla(0,50%,50%,0.6)"
    stroke-width="1"
    transform="translate(-18.0550941382,27.2669460344) scale(1,-1) translate(50,-110)"
    />
  
  <line
    x1="15.703634119482569"
    y1="-28.872149746716374"
    x2="109.91008724040229"
    y2="1.2760710491329286"
    stroke="hsla(0,50%,50%,0.6)"
    stroke-width="1"
    transform="translate(-18.0550941382,27.2669460344) scale(1,-1) translate(50,-110)"
    />
  
  <line
    x1="7.317481025018361"
    y1="-24.557346452230586"
    x2="44.86576672228121"
    y2="0"
    stroke="hsla(0,50%,50%,0.6)"
    stroke-width="1"
    transform="translate(-18.0550941382,27.2669460344) scale(1,-1) translate(50,-110)"
    />
  
  <line
    x1="10.29527235902665"
    y1="-10.301151104444422"
    x2="109.18957333821642"
    y2="19.166901248253676"
    stroke="hsla(0,50%,50%,0.6)"
    stroke-width="1"
    transform="translate(-18.0550941382,27.2669460344) scale(1,-1) translate(50,-110)"
    />
  
  <line
    x1="10.958834970355566"
    y1="-30.124991903270654"
    x2="7.317481025018361"
    y2="-24.557346452230586"
    stroke="hsla(0,50%,50%,0.6)"
    stroke-width="1"
    transform="translate(-18.0550941382,27.2669460344) scale(1,-1) translate(50,-110)"
    />
  
  <line
    x1="11.092215668772523"
    y1="-30.089773349946185"
    x2="10.975328462340537"
    y2="-29.863075575410768"
    stroke="hsla(0,50%,50%,0.6)"
    stroke-width="1"
    transform="translate(-18.0550941382,27.2669460344) scale(1,-1) translate(50,-110)"
    />
  
  <line
    x1="10.958834970355566"
    y1="-30.124991903270654"
    x2="10.975328462340537"
    y2="-29.863075575410768"
    stroke="hsla(0,50%,50%,0.6)"
    stroke-width="1"
    transform="translate(-18.0550941382,27.2669460344) scale(1,-1) translate(50,-110)"
    />
  
  <line
    x1="44.86576672228121"
    y1="0"
    x2="100"
    y2="0"
    stroke="hsla(0,50%,50%,0.6)"
    stroke-width="1"
    transform="translate(-18.0550941382,27.2669460344) scale(1,-1) translate(50,-110)"
    />
  
  <line
    x1="100"
    y1="0"
    x2="100"
    y2="16.428635993853383"
    stroke="hsla(0,50%,50%,0.6)"
    stroke-width="1"
    transform="translate(-18.0550941382,27.2669460344) scale(1,-1) translate(50,-110)"
    />
  
  <line
    x1="11.092215668772523"
    y1="-30.089773349946185"
    x2="10.29527235902665"
    y2="-10.301151104444422"
    stroke="hsla(0,50%,50%,0.6)"
    stroke-width="1"
    transform="translate(-18.0550941382,27.2669460344) scale(1,-1) translate(50,-110)"
    />
  
  <line
    x1="47.77405667636433"
    y1="-72.97503279373292"
    x2="10.29527235902665"
    y2="-10.301151104444422"
    stroke="hsla(0,50%,50%,0.6)"
    stroke-width="1"
    transform="translate(-18.0550941382,27.2669460344) scale(1,-1) translate(50,-110)"
    />
  
  <line
    x1="109.91008724040229"
    y1="1.2760710491329286"
    x2="109.18957333821642"
    y2="19.166901248253676"
    stroke="hsla(0,50%,50%,0.6)"
    stroke-width="1"
    transform="translate(-18.0550941382,27.2669460344) scale(1,-1) translate(50,-110)"
    />
  
  <line
    x1="109.91008724040229"
    y1="1.2760710491329286"
    x2="100"
    y2="16.428635993853383"
    stroke="hsla(0,50%,50%,0.6)"
    stroke-width="1"
    transform="translate(-18.0550941382,27.2669460344) scale(1,-1) translate(50,-110)"
    />
  
  <line
    x1="133.59910302728292"
    y1="-21.651924753955402"
    x2="109.18957333821642"
    y2="19.166901248253676"
    stroke="hsla(0,50%,50%,0.6)"
    stroke-width="1"
    transform="translate(-18.0550941382,27.2669460344) scale(1,-1) translate(50,-110)"
    />
  
</svg>
