<?xml version="1.0"?>
<!DOCTYPE svg PUBLIC "-//W3C//DTD SVG 1.1//EN"
  "http://www.w3.org/Graphics/SVG/1.1/DTD/svg11.dtd">
<svg
  width="240"
  height="240"
  viewBox="-50 -50 200 200" xmlns="http://www.w3.org/2000/svg" version="1.1">
  <rect
    x="0"
    y="0"
    width="100"
    height="100"
    fill="hsla(206,100%,53%,0.3)"
    stroke="hsl(206,100%,53%)"
    stroke-width="3"
    transform="" />
  
  <path
    d="M 
      55.7050149335
      -0.0952538305
      L
    
      55.7053406966
      0
      L
    
      100
      0
      L
    
      100
      50.2251358479
      L
    
      106.8751873247
      57.5788429825
      L
    
      100
      87.2219484239
      L
    
      100
      88.7460427830
      L
    
      104.6108154492
      92.1336788889
      L
    
      104.7228143920
      95.0952020326
      L
    
      100
      95.2738095238
      L
    
      71.3922355612
      67.7274839640
      L
    
      27.8747531363
      12.9617748673
      L
    
      27.8525889073
      0
      z
    "
    fill="hsla(0,0%,50%,0.3)"
    stroke="hsla(0,0%,50%,1)"
    stroke-width="1"
    transform="translate(-42.5304438931,-23.2678287056) scale(1,-1) translate(50,-110)"
    />
  
  
  <line
    x1="75.58797883749081"
    y1="24.114013966799615"
    x2="106.87518732479442"
    y2="57.57884298257293"
    stroke="hsla(0,50%,50%,0.6)"
    stroke-width="1"
    transform="translate(-42.5304438931,-23.2678287056) scale(1,-1) translate(50,-110)"
    />
  
  <line
    x1="75.58797883749081"
    y1="24.114013966799615"
    x2="81.73757483813957"
    y2="61.652759996042924"
    stroke="hsla(0,50%,50%,0.6)"
    stroke-width="1"
    transform="translate(-42.5304438931,-23.2678287056) scale(1,-1) translate(50,-110)"
    />
  
  <line
    x1="27.874753136312766"
    y1="12.961774867390451"
    x2="71.392235561297"
    y2="67.72748396408221"
    stroke="hsla(0,50%,50%,0.6)"
    stroke-width="1"
    transform="translate(-42.5304438931,-23.2678287056) scale(1,-1) translate(50,-110)"
    />
  
  <line
    x1="104.61081544923658"
    y1="92.13367888895824"
    x2="104.72281439200441"
    y2="95.09520203261853"
    stroke="hsla(0,50%,50%,0.6)"
    stroke-width="1"
    transform="translate(-42.5304438931,-23.2678287056) scale(1,-1) translate(50,-110)"
    />
  
  <line
    x1="71.392235561297"
    y1="67.72748396408221"
    x2="100"
    y2="95.27380952380952"
    stroke="hsla(0,50%,50%,0.6)"
    stroke-width="1"
    transform="translate(-42.5304438931,-23.2678287056) scale(1,-1) translate(50,-110)"
    />
  
  <line
    x1="55.705014933564065"
    y1="-0.09525383058475669"
    x2="55.87015932351783"
    y2="48.193322876518025"
    stroke="hsla(0,50%,50%,0.6)"
    stroke-width="1"
    transform="translate(-42.5304438931,-23.2678287056) scale(1,-1) translate(50,-110)"
    />
  
  <line
    x1="27.852588907315276"
    y1="0"
    x2="27.874753136312766"
    y2="12.961774867390451"
    stroke="hsla(0,50%,50%,0.6)"
    stroke-width="1"
    transform="translate(-42.5304438931,-23.2678287056) scale(1,-1) translate(50,-110)"
    />
  
  <line
    x1="27.852588907315276"
    y1="0"
    x2="100"
    y2="0"
    stroke="hsla(0,50%,50%,0.6)"
    stroke-width="1"
    transform="translate(-42.5304438931,-23.2678287056) scale(1,-1) translate(50,-110)"
    />
  
  <line
    x1="100"
    y1="0"
    x2="100"
    y2="95.27380952380952"
    stroke="hsla(0,50%,50%,0.6)"
    stroke-width="1"
    transform="translate(-42.5304438931,-23.2678287056) scale(1,-1) translate(50,-110)"
    />
  
  <line
    x1="55.705014933564065"
    y1="-0.09525383058475669"
    x2="27.852588907315276"
    y2="0"
    stroke="hsla(0,50%,50%,0.6)"
    stroke-width="1"
    transform="translate(-42.5304438931,-23.2678287056) scale(1,-1) translate(50,-110)"
    />
  
  <line
    x1="27.874753136312766"
    y1="12.961774867390451"
    x2="75.58797883749081"
    y2="24.114013966799615"
    stroke="hsla(0,50%,50%,0.6)"
    stroke-width="1"
    transform="translate(-42.5304438931,-23.2678287056) scale(1,-1) translate(50,-110)"
    />
  
  <line
    x1="71.392235561297"
    y1="67.72748396408221"
    x2="104.61081544923658"
    y2="92.13367888895824"
    stroke="hsla(0,50%,50%,0.6)"
    stroke-width="1"
    transform="translate(-42.5304438931,-23.2678287056) scale(1,-1) translate(50,-110)"
    />
  
  <line
    x1="106.87518732479442"
    y1="57.57884298257293"
    x2="98.47343722838039"
    y2="93.80388707724802"
    stroke="hsla(0,50%,50%,0.6)"
    stroke-width="1"
    transform="translate(-42.5304438931,-23.2678287056) scale(1,-1) translate(50,-110)"
    />
  
  <line
    x1="106.8037188669626"
    y1="57.502400249679894"
    x2="106.20392379387808"
    y2="60.04888054127118"
    stroke="hsla(0,50%,50%,0.6)"
    stroke-width="1"
    transform="translate(-42.5304438931,-23.2678287056) scale(1,-1) translate(50,-110)"
    />
  
  <line
    x1="55.87015932351783"
    y1="48.193322876518025"
    x2="106.20392379387808"
    y2="60.04888054127118"
    stroke="hsla(0,50%,50%,0.6)"
    stroke-width="1"
    transform="translate(-42.5304438931,-23.2678287056) scale(1,-1) translate(50,-110)"
    />
  
  <line
    x1="106.87518732479442"
    y1="57.57884298257293"
    x2="81.73757483813957"
    y2="61.652759996042924"
    stroke="hsla(0,50%,50%,0.6)"
    stroke-width="1"
    transform="translate(-42.5304438931,-23.2678287056) scale(1,-1) translate(50,-110)"
    />
  
  <line
    x1="106.8037188669626"
    y1="57.502400249679894"
    x2="81.73757483813957"
    y2="61.652759996042924"
    stroke="hsla(0,50%,50%,0.6)"
    stroke-width="1"
    transform="translate(-42.5304438931,-23.2678287056) scale(1,-1) translate(50,-110)"
    />
  
  <line
    x1="104.72281439200441"
    y1="95.09520203261853"
    x2="100"
    y2="95.27380952380952"
    stroke="hsla(0,50%,50%,0.6)"
    stroke-width="1"
    transform="translate(-42.5304438931,-23.2678287056) scale(1,-1) translate(50,-110)"
    />
  
  <line
    x1="104.61081544923658"
    y1="92.13367888895824"
    x2="98.47343722838039"
    y2="93.80388707724802"
    stroke="hsla(0,50%,50%,0.6)"
    stroke-width="1"
    transform="translate(-42.5304438931,-23.2678287056) scale(1,-1) translate(50,-110)"
    />
  
</svg>
