<?xml version="1.0"?>
<!DOCTYPE svg PUBLIC "-//W3C//DTD SVG 1.1//EN"
  "http://www.w3.org/Graphics/SVG/1.1/DTD/svg11.dtd">
<svg
  width="240"
  height="240"
  viewBox="-500 -500 1000 1000" xmlns="http://www.w3.org/2000/svg" version="1.1">
  <rect
    x="0"
    y="0"
    width="100"
    height="100"
    fill="hsla(206,100%,53%,0.3)"
    stroke="hsl(206,100%,53%)"
    stroke-width="3"
    transform="" />
  
  <path
    d="M 
      95.4588994706
      -10.1749711573
      L
    
      111.7312318397
      -10.0927357666
      L
    
      125.1663130375
      9.3301599140
      L
    
      164.5424277706
      3.6410598902
      L
    
      185.7807261034
      61.7508999697
      L
    
      160.3562420836
      71.0431777635
      L
    
      126.6181970342
      41.2891963281
      L
    
      93.2692307692
      0
      z
    "
    fill="hsla(0,0%,50%,0.3)"
    stroke="hsla(0,0%,50%,1)"
    stroke-width="1"
    transform="translate(-139.5249784363,-30.4341033031)"
    />
  
  
  <line
    x1="111.73123183974954"
    y1="-10.092735766678416"
    x2="160.9130025411648"
    y2="61.00861357851737"
    stroke="hsla(0,50%,50%,0.6)"
    stroke-width="1"
    transform="translate(-139.5249784363,-30.4341033031)"
    />
  
  <line
    x1="164.54242777065392"
    y1="3.641059890276075"
    x2="185.7807261034906"
    y2="61.750899969776356"
    stroke="hsla(0,50%,50%,0.6)"
    stroke-width="1"
    transform="translate(-139.5249784363,-30.4341033031)"
    />
  
  <line
    x1="93.26923076923077"
    y1="0"
    x2="126.61819703428617"
    y2="41.28919632816382"
    stroke="hsla(0,50%,50%,0.6)"
    stroke-width="1"
    transform="translate(-139.5249784363,-30.4341033031)"
    />
  
  <line
    x1="126.61819703428617"
    y1="41.28919632816382"
    x2="160.35624208369123"
    y2="71.04317776355789"
    stroke="hsla(0,50%,50%,0.6)"
    stroke-width="1"
    transform="translate(-139.5249784363,-30.4341033031)"
    />
  
  <line
    x1="98.99092562751987"
    y1="7.084003157881739"
    x2="158.7280909845047"
    y2="33.320116820551895"
    stroke="hsla(0,50%,50%,0.6)"
    stroke-width="1"
    transform="translate(-139.5249784363,-30.4341033031)"
    />
  
  <line
    x1="126.61819703428617"
    y1="41.28919632816382"
    x2="162.13686665183053"
    y2="63.265771502439"
    stroke="hsla(0,50%,50%,0.6)"
    stroke-width="1"
    transform="translate(-139.5249784363,-30.4341033031)"
    />
  
  <line
    x1="95.45889947066851"
    y1="-10.174971157319241"
    x2="98.99092562751987"
    y2="7.084003157881739"
    stroke="hsla(0,50%,50%,0.6)"
    stroke-width="1"
    transform="translate(-139.5249784363,-30.4341033031)"
    />
  
  <line
    x1="100"
    y1="8.333333333333334"
    x2="128.75758480055705"
    y2="14.522007718068595"
    stroke="hsla(0,50%,50%,0.6)"
    stroke-width="1"
    transform="translate(-139.5249784363,-30.4341033031)"
    />
  
  <line
    x1="95.45889947066851"
    y1="-10.174971157319241"
    x2="111.73123183974954"
    y2="-10.092735766678416"
    stroke="hsla(0,50%,50%,0.6)"
    stroke-width="1"
    transform="translate(-139.5249784363,-30.4341033031)"
    />
  
  <line
    x1="93.26923076923077"
    y1="0"
    x2="100"
    y2="0"
    stroke="hsla(0,50%,50%,0.6)"
    stroke-width="1"
    transform="translate(-139.5249784363,-30.4341033031)"
    />
  
  <line
    x1="100"
    y1="0"
    x2="100"
    y2="8.333333333333334"
    stroke="hsla(0,50%,50%,0.6)"
    stroke-width="1"
    transform="translate(-139.5249784363,-30.4341033031)"
    />
  
  <line
    x1="164.54242777065392"
    y1="3.641059890276075"
    x2="162.12553739019376"
    y2="41.69501704824063"
    stroke="hsla(0,50%,50%,0.6)"
    stroke-width="1"
    transform="translate(-139.5249784363,-30.4341033031)"
    />
  
  <line
    x1="151.70003054763052"
    y1="56.80815595277758"
    x2="151.22594166900836"
    y2="62.991057712137334"
    stroke="hsla(0,50%,50%,0.6)"
    stroke-width="1"
    transform="translate(-139.5249784363,-30.4341033031)"
    />
  
  <line
    x1="128.75758480055705"
    y1="14.522007718068595"
    x2="125.04374178611019"
    y2="39.3398707828031"
    stroke="hsla(0,50%,50%,0.6)"
    stroke-width="1"
    transform="translate(-139.5249784363,-30.4341033031)"
    />
  
  <line
    x1="95.45889947066851"
    y1="-10.174971157319241"
    x2="93.26923076923077"
    y2="0"
    stroke="hsla(0,50%,50%,0.6)"
    stroke-width="1"
    transform="translate(-139.5249784363,-30.4341033031)"
    />
  
  <line
    x1="164.54242777065392"
    y1="3.641059890276075"
    x2="103.35090413136133"
    y2="12.48207178168546"
    stroke="hsla(0,50%,50%,0.6)"
    stroke-width="1"
    transform="translate(-139.5249784363,-30.4341033031)"
    />
  
  <line
    x1="125.04374178611019"
    y1="39.3398707828031"
    x2="162.12553739019376"
    y2="41.69501704824063"
    stroke="hsla(0,50%,50%,0.6)"
    stroke-width="1"
    transform="translate(-139.5249784363,-30.4341033031)"
    />
  
  <line
    x1="111.73123183974954"
    y1="-10.092735766678416"
    x2="103.35090413136133"
    y2="12.48207178168546"
    stroke="hsla(0,50%,50%,0.6)"
    stroke-width="1"
    transform="translate(-139.5249784363,-30.4341033031)"
    />
  
  <line
    x1="162.13686665183053"
    y1="63.265771502439"
    x2="160.35624208369123"
    y2="71.04317776355789"
    stroke="hsla(0,50%,50%,0.6)"
    stroke-width="1"
    transform="translate(-139.5249784363,-30.4341033031)"
    />
  
  <line
    x1="158.7280909845047"
    y1="33.320116820551895"
    x2="147.24051027996865"
    y2="59.47625857698069"
    stroke="hsla(0,50%,50%,0.6)"
    stroke-width="1"
    transform="translate(-139.5249784363,-30.4341033031)"
    />
  
  <line
    x1="160.9130025411648"
    y1="61.00861357851737"
    x2="156.64915292496167"
    y2="67.77385193727874"
    stroke="hsla(0,50%,50%,0.6)"
    stroke-width="1"
    transform="translate(-139.5249784363,-30.4341033031)"
    />
  
  <line
    x1="160.9130025411648"
    y1="61.00861357851737"
    x2="151.22594166900836"
    y2="62.991057712137334"
    stroke="hsla(0,50%,50%,0.6)"
    stroke-width="1"
    transform="translate(-139.5249784363,-30.4341033031)"
    />
  
  <line
    x1="151.70003054763052"
    y1="56.80815595277758"
    x2="147.24051027996865"
    y2="59.47625857698069"
    stroke="hsla(0,50%,50%,0.6)"
    stroke-width="1"
    transform="translate(-139.5249784363,-30.4341033031)"
    />
  
  <line
    x1="185.7807261034906"
    y1="61.750899969776356"
    x2="160.35624208369123"
    y2="71.04317776355789"
    stroke="hsla(0,50%,50%,0.6)"
    stroke-width="1"
    transform="translate(-139.5249784363,-30.4341033031)"
    />
  
  <line
    x1="162.13686665183053"
    y1="63.265771502439"
    x2="156.64915292496167"
    y2="67.77385193727874"
    stroke="hsla(0,50%,50%,0.6)"
    stroke-width="1"
    transform="translate(-139.5249784363,-30.4341033031)"
    />
  
</svg>
