<?xml version="1.0"?>
<!DOCTYPE svg PUBLIC "-//W3C//DTD SVG 1.1//EN"
  "http://www.w3.org/Graphics/SVG/1.1/DTD/svg11.dtd">
<svg
  width="240"
  height="240"
  viewBox="-50 -50 200 200" xmlns="http://www.w3.org/2000/svg" version="1.1">
  <rect
    x="0"
    y="0"
    width="100"
    height="100"
    fill="hsla(206,100%,53%,0.3)"
    stroke="hsl(206,100%,53%)"
    stroke-width="3"
    transform="" />
  
  <path
    d="M 
      55.7142857142
      27.9411764705
      L
    
      58.4615384615
      98.4375
      L
    
      1.5625
      39.0625
      L
    
      1.5625
      28.7878787878
      z
    "
    fill="hsla(0,0%,50%,0.3)"
    stroke="hsla(0,0%,50%,1)"
    stroke-width="1"
    transform="translate(-15.4438530219,-39.9568989527) scale(1,-1) translate(50,-110)"
    />
  
  
  <line
    x1="58.0295310474113"
    y1="96.93467481319504"
    x2="58.46153846153846"
    y2="98.4375"
    stroke="hsla(0,50%,50%,0.6)"
    stroke-width="1"
    transform="translate(-15.4438530219,-39.9568989527) scale(1,-1) translate(50,-110)"
    />
  
  <line
    x1="48.743076101268095"
    y1="58.021702561569356"
    x2="56.444694357817724"
    y2="96.33289292936618"
    stroke="hsla(0,50%,50%,0.6)"
    stroke-width="1"
    transform="translate(-15.4438530219,-39.9568989527) scale(1,-1) translate(50,-110)"
    />
  
  <line
    x1="50.07158126069179"
    y1="42.13873800414795"
    x2="56.660030661164534"
    y2="96.55759959149826"
    stroke="hsla(0,50%,50%,0.6)"
    stroke-width="1"
    transform="translate(-15.4438530219,-39.9568989527) scale(1,-1) translate(50,-110)"
    />
  
  <line
    x1="55.714285714285715"
    y1="27.941176470588236"
    x2="58.46153846153846"
    y2="98.4375"
    stroke="hsla(0,50%,50%,0.6)"
    stroke-width="1"
    transform="translate(-15.4438530219,-39.9568989527) scale(1,-1) translate(50,-110)"
    />
  
  <line
    x1="11.348005137046524"
    y1="28.634875340880544"
    x2="13.101924217868698"
    y2="51.104062238333626"
    stroke="hsla(0,50%,50%,0.6)"
    stroke-width="1"
    transform="translate(-15.4438530219,-39.9568989527) scale(1,-1) translate(50,-110)"
    />
  
  <line
    x1="15.907654505831186"
    y1="48.29326011022684"
    x2="15.930994987604787"
    y2="54.05624001663871"
    stroke="hsla(0,50%,50%,0.6)"
    stroke-width="1"
    transform="translate(-15.4438530219,-39.9568989527) scale(1,-1) translate(50,-110)"
    />
  
  <line
    x1="1.5625"
    y1="28.78787878787879"
    x2="1.5625"
    y2="39.0625"
    stroke="hsla(0,50%,50%,0.6)"
    stroke-width="1"
    transform="translate(-15.4438530219,-39.9568989527) scale(1,-1) translate(50,-110)"
    />
  
  <line
    x1="3.125"
    y1="28.812309604948176"
    x2="3.125"
    y2="40.69299218419941"
    stroke="hsla(0,50%,50%,0.6)"
    stroke-width="1"
    transform="translate(-15.4438530219,-39.9568989527) scale(1,-1) translate(50,-110)"
    />
  
  <line
    x1="3.125"
    y1="28.812309604948176"
    x2="2.765129279882142"
    y2="40.3174616904558"
    stroke="hsla(0,50%,50%,0.6)"
    stroke-width="1"
    transform="translate(-15.4438530219,-39.9568989527) scale(1,-1) translate(50,-110)"
    />
  
  <line
    x1="20.073042348454624"
    y1="39.85119166063449"
    x2="20.06555280358458"
    y2="40.513190562377474"
    stroke="hsla(0,50%,50%,0.6)"
    stroke-width="1"
    transform="translate(-15.4438530219,-39.9568989527) scale(1,-1) translate(50,-110)"
    />
  
  <line
    x1="55.714285714285715"
    y1="27.941176470588236"
    x2="55.499493401101844"
    y2="55.90273667539146"
    stroke="hsla(0,50%,50%,0.6)"
    stroke-width="1"
    transform="translate(-15.4438530219,-39.9568989527) scale(1,-1) translate(50,-110)"
    />
  
  <line
    x1="11.348005137046524"
    y1="28.634875340880544"
    x2="10.429595022678852"
    y2="48.315446643860064"
    stroke="hsla(0,50%,50%,0.6)"
    stroke-width="1"
    transform="translate(-15.4438530219,-39.9568989527) scale(1,-1) translate(50,-110)"
    />
  
  <line
    x1="20.073042348454624"
    y1="39.85119166063449"
    x2="18.800533832716276"
    y2="57.05064683853367"
    stroke="hsla(0,50%,50%,0.6)"
    stroke-width="1"
    transform="translate(-15.4438530219,-39.9568989527) scale(1,-1) translate(50,-110)"
    />
  
  <line
    x1="1.5625"
    y1="39.0625"
    x2="58.46153846153846"
    y2="98.4375"
    stroke="hsla(0,50%,50%,0.6)"
    stroke-width="1"
    transform="translate(-15.4438530219,-39.9568989527) scale(1,-1) translate(50,-110)"
    />
  
  <line
    x1="1.5625"
    y1="28.78787878787879"
    x2="3.125"
    y2="28.812309604948176"
    stroke="hsla(0,50%,50%,0.6)"
    stroke-width="1"
    transform="translate(-15.4438530219,-39.9568989527) scale(1,-1) translate(50,-110)"
    />
  
  <line
    x1="55.714285714285715"
    y1="27.941176470588236"
    x2="1.5625"
    y2="28.78787878787879"
    stroke="hsla(0,50%,50%,0.6)"
    stroke-width="1"
    transform="translate(-15.4438530219,-39.9568989527) scale(1,-1) translate(50,-110)"
    />
  
  <line
    x1="1.5625"
    y1="39.0625"
    x2="56.2384709865449"
    y2="41.39211744407136"
    stroke="hsla(0,50%,50%,0.6)"
    stroke-width="1"
    transform="translate(-15.4438530219,-39.9568989527) scale(1,-1) translate(50,-110)"
    />
  
  <line
    x1="2.765129279882142"
    y1="40.3174616904558"
    x2="20.06555280358458"
    y2="40.513190562377474"
    stroke="hsla(0,50%,50%,0.6)"
    stroke-width="1"
    transform="translate(-15.4438530219,-39.9568989527) scale(1,-1) translate(50,-110)"
    />
  
  <line
    x1="3.125"
    y1="40.69299218419941"
    x2="56.29951846684679"
    y2="42.95863618768579"
    stroke="hsla(0,50%,50%,0.6)"
    stroke-width="1"
    transform="translate(-15.4438530219,-39.9568989527) scale(1,-1) translate(50,-110)"
    />
  
  <line
    x1="56.2384709865449"
    y1="41.39211744407136"
    x2="50.07158126069179"
    y2="42.13873800414795"
    stroke="hsla(0,50%,50%,0.6)"
    stroke-width="1"
    transform="translate(-15.4438530219,-39.9568989527) scale(1,-1) translate(50,-110)"
    />
  
  <line
    x1="15.907654505831186"
    y1="48.29326011022684"
    x2="10.429595022678852"
    y2="48.315446643860064"
    stroke="hsla(0,50%,50%,0.6)"
    stroke-width="1"
    transform="translate(-15.4438530219,-39.9568989527) scale(1,-1) translate(50,-110)"
    />
  
  <line
    x1="13.101924217868698"
    y1="51.104062238333626"
    x2="56.823227891326404"
    y2="56.39736659224604"
    stroke="hsla(0,50%,50%,0.6)"
    stroke-width="1"
    transform="translate(-15.4438530219,-39.9568989527) scale(1,-1) translate(50,-110)"
    />
  
  <line
    x1="56.29951846684679"
    y1="42.95863618768579"
    x2="50.259380573416"
    y2="43.68991100163738"
    stroke="hsla(0,50%,50%,0.6)"
    stroke-width="1"
    transform="translate(-15.4438530219,-39.9568989527) scale(1,-1) translate(50,-110)"
    />
  
  <line
    x1="15.930994987604787"
    y1="54.05624001663871"
    x2="55.499493401101844"
    y2="55.90273667539146"
    stroke="hsla(0,50%,50%,0.6)"
    stroke-width="1"
    transform="translate(-15.4438530219,-39.9568989527) scale(1,-1) translate(50,-110)"
    />
  
  <line
    x1="55.499493401101844"
    y1="55.90273667539146"
    x2="18.800533832716276"
    y2="57.05064683853367"
    stroke="hsla(0,50%,50%,0.6)"
    stroke-width="1"
    transform="translate(-15.4438530219,-39.9568989527) scale(1,-1) translate(50,-110)"
    />
  
  <line
    x1="56.823227891326404"
    y1="56.39736659224604"
    x2="48.743076101268095"
    y2="58.021702561569356"
    stroke="hsla(0,50%,50%,0.6)"
    stroke-width="1"
    transform="translate(-15.4438530219,-39.9568989527) scale(1,-1) translate(50,-110)"
    />
  
  <line
    x1="56.444694357817724"
    y1="96.33289292936618"
    x2="58.39822971211427"
    y2="96.8129555942794"
    stroke="hsla(0,50%,50%,0.6)"
    stroke-width="1"
    transform="translate(-15.4438530219,-39.9568989527) scale(1,-1) translate(50,-110)"
    />
  
  <line
    x1="56.660030661164534"
    y1="96.55759959149826"
    x2="58.39943076818494"
    y2="96.84377548786945"
    stroke="hsla(0,50%,50%,0.6)"
    stroke-width="1"
    transform="translate(-15.4438530219,-39.9568989527) scale(1,-1) translate(50,-110)"
    />
  
  <line
    x1="58.39822971211427"
    y1="96.8129555942794"
    x2="58.0295310474113"
    y2="96.93467481319504"
    stroke="hsla(0,50%,50%,0.6)"
    stroke-width="1"
    transform="translate(-15.4438530219,-39.9568989527) scale(1,-1) translate(50,-110)"
    />
  
  <line
    x1="58.39943076818494"
    y1="96.84377548786945"
    x2="58.0295310474113"
    y2="96.93467481319504"
    stroke="hsla(0,50%,50%,0.6)"
    stroke-width="1"
    transform="translate(-15.4438530219,-39.9568989527) scale(1,-1) translate(50,-110)"
    />
  
</svg>
