<?xml version="1.0"?>
<!DOCTYPE svg PUBLIC "-//W3C//DTD SVG 1.1//EN"
  "http://www.w3.org/Graphics/SVG/1.1/DTD/svg11.dtd">
<svg
  width="240"
  height="240"
  viewBox="-50 -50 200 200" xmlns="http://www.w3.org/2000/svg" version="1.1">
  <rect
    x="0"
    y="0"
    width="100"
    height="100"
    fill="hsla(206,100%,53%,0.3)"
    stroke="hsl(206,100%,53%)"
    stroke-width="3"
    transform="" />
  
  <path
    d="M 
      0
      0
      L
    
      110
      0
      L
    
      110
      20
      L
    
      0
      20
      z
    "
    fill="hsla(0,0%,50%,0.3)"
    stroke="hsla(0,0%,50%,1)"
    stroke-width="1"
    transform="translate(-41.25,-15) scale(1,-1) translate(50,-110)"
    />
  
  
  <line
    x1="98.33333333333333"
    y1="0"
    x2="110"
    y2="8.75"
    stroke="hsla(0,50%,50%,0.6)"
    stroke-width="1"
    transform="translate(-41.25,-15) scale(1,-1) translate(50,-110)"
    />
  
  <line
    x1="80"
    y1="0"
    x2="95"
    y2="20"
    stroke="hsla(0,50%,50%,0.6)"
    stroke-width="1"
    transform="translate(-41.25,-15) scale(1,-1) translate(50,-110)"
    />
  
  <line
    x1="45"
    y1="0"
    x2="71.66666666666667"
    y2="20"
    stroke="hsla(0,50%,50%,0.6)"
    stroke-width="1"
    transform="translate(-41.25,-15) scale(1,-1) translate(50,-110)"
    />
  
  <line
    x1="38.333333333333336"
    y1="0"
    x2="65"
    y2="20"
    stroke="hsla(0,50%,50%,0.6)"
    stroke-width="1"
    transform="translate(-41.25,-15) scale(1,-1) translate(50,-110)"
    />
  
  <line
    x1="15"
    y1="0"
    x2="30"
    y2="20"
    stroke="hsla(0,50%,50%,0.6)"
    stroke-width="1"
    transform="translate(-41.25,-15) scale(1,-1) translate(50,-110)"
    />
  
  <line
    x1="0"
    y1="0"
    x2="110"
    y2="0"
    stroke="hsla(0,50%,50%,0.6)"
    stroke-width="1"
    transform="translate(-41.25,-15) scale(1,-1) translate(50,-110)"
    />
  
  <line
    x1="0"
    y1="0"
    x2="0"
    y2="20"
    stroke="hsla(0,50%,50%,0.6)"
    stroke-width="1"
    transform="translate(-41.25,-15) scale(1,-1) translate(50,-110)"
    />
  
  <line
    x1="110"
    y1="0"
    x2="110"
    y2="20"
    stroke="hsla(0,50%,50%,0.6)"
    stroke-width="1"
    transform="translate(-41.25,-15) scale(1,-1) translate(50,-110)"
    />
  
  <line
    x1="0"
    y1="11.25"
    x2="11.666666666666666"
    y2="20"
    stroke="hsla(0,50%,50%,0.6)"
    stroke-width="1"
    transform="translate(-41.25,-15) scale(1,-1) translate(50,-110)"
    />
  
  <line
    x1="15"
    y1="0"
    x2="0"
    y2="11.25"
    stroke="hsla(0,50%,50%,0.6)"
    stroke-width="1"
    transform="translate(-41.25,-15) scale(1,-1) translate(50,-110)"
    />
  
  <line
    x1="15"
    y1="0"
    x2="0"
    y2="20"
    stroke="hsla(0,50%,50%,0.6)"
    stroke-width="1"
    transform="translate(-41.25,-15) scale(1,-1) translate(50,-110)"
    />
  
  <line
    x1="38.333333333333336"
    y1="0"
    x2="11.666666666666666"
    y2="20"
    stroke="hsla(0,50%,50%,0.6)"
    stroke-width="1"
    transform="translate(-41.25,-15) scale(1,-1) translate(50,-110)"
    />
  
  <line
    x1="0"
    y1="20"
    x2="110"
    y2="20"
    stroke="hsla(0,50%,50%,0.6)"
    stroke-width="1"
    transform="translate(-41.25,-15) scale(1,-1) translate(50,-110)"
    />
  
  <line
    x1="45"
    y1="0"
    x2="30"
    y2="20"
    stroke="hsla(0,50%,50%,0.6)"
    stroke-width="1"
    transform="translate(-41.25,-15) scale(1,-1) translate(50,-110)"
    />
  
  <line
    x1="80"
    y1="0"
    x2="65"
    y2="20"
    stroke="hsla(0,50%,50%,0.6)"
    stroke-width="1"
    transform="translate(-41.25,-15) scale(1,-1) translate(50,-110)"
    />
  
  <line
    x1="98.33333333333333"
    y1="0"
    x2="71.66666666666667"
    y2="20"
    stroke="hsla(0,50%,50%,0.6)"
    stroke-width="1"
    transform="translate(-41.25,-15) scale(1,-1) translate(50,-110)"
    />
  
  <line
    x1="110"
    y1="0"
    x2="95"
    y2="20"
    stroke="hsla(0,50%,50%,0.6)"
    stroke-width="1"
    transform="translate(-41.25,-15) scale(1,-1) translate(50,-110)"
    />
  
  <line
    x1="110"
    y1="8.75"
    x2="95"
    y2="20"
    stroke="hsla(0,50%,50%,0.6)"
    stroke-width="1"
    transform="translate(-41.25,-15) scale(1,-1) translate(50,-110)"
    />
  
</svg>
