<?xml version="1.0"?>
<!DOCTYPE svg PUBLIC "-//W3C//DTD SVG 1.1//EN"
  "http://www.w3.org/Graphics/SVG/1.1/DTD/svg11.dtd">
<svg
  width="240"
  height="240"
  viewBox="-500 -500 1000 1000" xmlns="http://www.w3.org/2000/svg" version="1.1">
  <rect
    x="0"
    y="0"
    width="100"
    height="100"
    fill="hsla(206,100%,53%,0.3)"
    stroke="hsl(206,100%,53%)"
    stroke-width="3"
    transform="" />
  
  <path
    d="M 
      15.1162790697
      1.5625
      L
    
      80.3030303030
      43.1578947368
      L
    
      98.4375
      70.8860759493
      L
    
      26.9662921348
      98.4375
      z
    "
    fill="hsla(0,0%,50%,0.3)"
    stroke="hsla(0,0%,50%,1)"
    stroke-width="1"
    transform="translate(-56.7768895348,-50)"
    />
  
  
  <line
    x1="92.95677119113805"
    y1="62.50586720170104"
    x2="96.97740159859951"
    y2="71.44892903964264"
    stroke="hsla(0,50%,50%,0.6)"
    stroke-width="1"
    transform="translate(-56.7768895348,-50)"
    />
  
  <line
    x1="80.3030303030303"
    y1="43.1578947368421"
    x2="98.4375"
    y2="70.88607594936708"
    stroke="hsla(0,50%,50%,0.6)"
    stroke-width="1"
    transform="translate(-56.7768895348,-50)"
    />
  
  <line
    x1="96.76541663379791"
    y1="70.79473962557086"
    x2="96.97740159859951"
    y2="71.44892903964264"
    stroke="hsla(0,50%,50%,0.6)"
    stroke-width="1"
    transform="translate(-56.7768895348,-50)"
    />
  
  <line
    x1="80.05347560506712"
    y1="48.256678544165716"
    x2="92.95677119113805"
    y2="62.50586720170104"
    stroke="hsla(0,50%,50%,0.6)"
    stroke-width="1"
    transform="translate(-56.7768895348,-50)"
    />
  
  <line
    x1="80.3030303030303"
    y1="43.1578947368421"
    x2="83.92266249482813"
    y2="66.24116655840912"
    stroke="hsla(0,50%,50%,0.6)"
    stroke-width="1"
    transform="translate(-56.7768895348,-50)"
    />
  
  <line
    x1="33.62503504062833"
    y1="13.372860174890809"
    x2="52.32405305752275"
    y2="88.66234095310611"
    stroke="hsla(0,50%,50%,0.6)"
    stroke-width="1"
    transform="translate(-56.7768895348,-50)"
    />
  
  <line
    x1="15.116279069767442"
    y1="1.5625"
    x2="15.877303188994578"
    y2="2.9404618744647992"
    stroke="hsla(0,50%,50%,0.6)"
    stroke-width="1"
    transform="translate(-56.7768895348,-50)"
    />
  
  <line
    x1="15.116279069767442"
    y1="1.5625"
    x2="80.3030303030303"
    y2="43.1578947368421"
    stroke="hsla(0,50%,50%,0.6)"
    stroke-width="1"
    transform="translate(-56.7768895348,-50)"
    />
  
  <line
    x1="15.7321122038142"
    y1="6.596995281415748"
    x2="49.46039379270584"
    y2="79.20378585430079"
    stroke="hsla(0,50%,50%,0.6)"
    stroke-width="1"
    transform="translate(-56.7768895348,-50)"
    />
  
  <line
    x1="49.9898614240265"
    y1="84.31172303245913"
    x2="52.32405305752275"
    y2="88.66234095310611"
    stroke="hsla(0,50%,50%,0.6)"
    stroke-width="1"
    transform="translate(-56.7768895348,-50)"
    />
  
  <line
    x1="15.116279069767442"
    y1="1.5625"
    x2="26.96629213483146"
    y2="98.4375"
    stroke="hsla(0,50%,50%,0.6)"
    stroke-width="1"
    transform="translate(-56.7768895348,-50)"
    />
  
  <line
    x1="16.734639129660113"
    y1="2.595168820642583"
    x2="17.462331742803208"
    y2="16.577137392239315"
    stroke="hsla(0,50%,50%,0.6)"
    stroke-width="1"
    transform="translate(-56.7768895348,-50)"
    />
  
  <line
    x1="16.532687038376313"
    y1="2.466304031464473"
    x2="15.7321122038142"
    y2="6.596995281415748"
    stroke="hsla(0,50%,50%,0.6)"
    stroke-width="1"
    transform="translate(-56.7768895348,-50)"
    />
  
  <line
    x1="16.734639129660113"
    y1="2.595168820642583"
    x2="15.877303188994578"
    y2="2.9404618744647992"
    stroke="hsla(0,50%,50%,0.6)"
    stroke-width="1"
    transform="translate(-56.7768895348,-50)"
    />
  
  <line
    x1="16.532687038376313"
    y1="2.466304031464473"
    x2="15.877303188994578"
    y2="2.9404618744647992"
    stroke="hsla(0,50%,50%,0.6)"
    stroke-width="1"
    transform="translate(-56.7768895348,-50)"
    />
  
  <line
    x1="17.462331742803208"
    y1="16.577137392239315"
    x2="16.95613289915254"
    y2="16.603482549390822"
    stroke="hsla(0,50%,50%,0.6)"
    stroke-width="1"
    transform="translate(-56.7768895348,-50)"
    />
  
  <line
    x1="33.62503504062833"
    y1="13.372860174890809"
    x2="16.95613289915254"
    y2="16.603482549390822"
    stroke="hsla(0,50%,50%,0.6)"
    stroke-width="1"
    transform="translate(-56.7768895348,-50)"
    />
  
  <line
    x1="27.536579341342144"
    y1="96.97028865202921"
    x2="26.96629213483146"
    y2="98.4375"
    stroke="hsla(0,50%,50%,0.6)"
    stroke-width="1"
    transform="translate(-56.7768895348,-50)"
    />
  
  <line
    x1="83.92266249482813"
    y1="66.24116655840912"
    x2="96.36520670342699"
    y2="71.68492394811473"
    stroke="hsla(0,50%,50%,0.6)"
    stroke-width="1"
    transform="translate(-56.7768895348,-50)"
    />
  
  <line
    x1="96.76541663379791"
    y1="70.79473962557086"
    x2="96.36520670342699"
    y2="71.68492394811473"
    stroke="hsla(0,50%,50%,0.6)"
    stroke-width="1"
    transform="translate(-56.7768895348,-50)"
    />
  
  <line
    x1="26.73415706393985"
    y1="96.53977340095314"
    x2="27.536579341342144"
    y2="96.97028865202921"
    stroke="hsla(0,50%,50%,0.6)"
    stroke-width="1"
    transform="translate(-56.7768895348,-50)"
    />
  
  <line
    x1="96.76541663379791"
    y1="70.79473962557086"
    x2="98.4375"
    y2="70.88607594936708"
    stroke="hsla(0,50%,50%,0.6)"
    stroke-width="1"
    transform="translate(-56.7768895348,-50)"
    />
  
  <line
    x1="80.05347560506712"
    y1="48.256678544165716"
    x2="26.73415706393985"
    y2="96.53977340095314"
    stroke="hsla(0,50%,50%,0.6)"
    stroke-width="1"
    transform="translate(-56.7768895348,-50)"
    />
  
  <line
    x1="91.19730893989595"
    y1="59.8155934327807"
    x2="83.92266249482813"
    y2="66.24116655840912"
    stroke="hsla(0,50%,50%,0.6)"
    stroke-width="1"
    transform="translate(-56.7768895348,-50)"
    />
  
  <line
    x1="91.19730893989595"
    y1="59.8155934327807"
    x2="49.46039379270584"
    y2="79.20378585430079"
    stroke="hsla(0,50%,50%,0.6)"
    stroke-width="1"
    transform="translate(-56.7768895348,-50)"
    />
  
  <line
    x1="26.76274992356316"
    y1="96.7735227867808"
    x2="27.536579341342144"
    y2="96.97028865202921"
    stroke="hsla(0,50%,50%,0.6)"
    stroke-width="1"
    transform="translate(-56.7768895348,-50)"
    />
  
  <line
    x1="49.9898614240265"
    y1="84.31172303245913"
    x2="26.76274992356316"
    y2="96.7735227867808"
    stroke="hsla(0,50%,50%,0.6)"
    stroke-width="1"
    transform="translate(-56.7768895348,-50)"
    />
  
  <line
    x1="98.4375"
    y1="70.88607594936708"
    x2="26.96629213483146"
    y2="98.4375"
    stroke="hsla(0,50%,50%,0.6)"
    stroke-width="1"
    transform="translate(-56.7768895348,-50)"
    />
  
</svg>
