<?xml version="1.0"?>
<!DOCTYPE svg PUBLIC "-//W3C//DTD SVG 1.1//EN"
  "http://www.w3.org/Graphics/SVG/1.1/DTD/svg11.dtd">
<svg
  width="240"
  height="240"
  viewBox="-50 -50 200 200" xmlns="http://www.w3.org/2000/svg" version="1.1">
  <rect
    x="0"
    y="0"
    width="100"
    height="100"
    fill="hsla(206,100%,53%,0.3)"
    stroke="hsl(206,100%,53%)"
    stroke-width="3"
    transform="" />
  
  <path
    d="M 
      16.6666666666
      0
      L
    
      33.3333333333
      0
      L
    
      33.3333333333
      30
      L
    
      41.6666666666
      38.3333333333
      L
    
      36.6666666666
      43.3333333333
      L
    
      40
      46.6666666666
      L
    
      40
      66.6666666666
      L
    
      20
      66.6666666666
      L
    
      16.6666666666
      63.3333333333
      L
    
      16.6666666666
      60
      L
    
      20
      60
      L
    
      13.3333333333
      53.3333333333
      L
    
      6.6666666666
      53.3333333333
      L
    
      0
      46.6666666666
      L
    
      0
      36.6666666666
      L
    
      10
      36.6666666666
      L
    
      10
      6.6666666666
      z
    "
    fill="hsla(0,0%,50%,0.3)"
    stroke="hsla(0,0%,50%,1)"
    stroke-width="1"
    transform="translate(-8.2282002766,-23.4444173177) scale(1,-1) translate(50,-110)"
    />
  
  
  <line
    x1="10"
    y1="6.666666666666667"
    x2="41.666666666666664"
    y2="38.333333333333336"
    stroke="hsla(0,50%,50%,0.6)"
    stroke-width="1"
    transform="translate(-8.2282002766,-23.4444173177) scale(1,-1) translate(50,-110)"
    />
  
  <line
    x1="16.666666666666668"
    y1="0"
    x2="33.333333333333336"
    y2="0"
    stroke="hsla(0,50%,50%,0.6)"
    stroke-width="1"
    transform="translate(-8.2282002766,-23.4444173177) scale(1,-1) translate(50,-110)"
    />
  
  <line
    x1="0"
    y1="36.666666666666664"
    x2="0"
    y2="46.666666666666664"
    stroke="hsla(0,50%,50%,0.6)"
    stroke-width="1"
    transform="translate(-8.2282002766,-23.4444173177) scale(1,-1) translate(50,-110)"
    />
  
  <line
    x1="10"
    y1="6.666666666666667"
    x2="10"
    y2="53.333333333333336"
    stroke="hsla(0,50%,50%,0.6)"
    stroke-width="1"
    transform="translate(-8.2282002766,-23.4444173177) scale(1,-1) translate(50,-110)"
    />
  
  <line
    x1="13.333333333333334"
    y1="33.333333333333336"
    x2="13.333333333333334"
    y2="53.333333333333336"
    stroke="hsla(0,50%,50%,0.6)"
    stroke-width="1"
    transform="translate(-8.2282002766,-23.4444173177) scale(1,-1) translate(50,-110)"
    />
  
  <line
    x1="16.666666666666668"
    y1="0"
    x2="16.666666666666668"
    y2="43.333333333333336"
    stroke="hsla(0,50%,50%,0.6)"
    stroke-width="1"
    transform="translate(-8.2282002766,-23.4444173177) scale(1,-1) translate(50,-110)"
    />
  
  <line
    x1="16.666666666666668"
    y1="60"
    x2="16.666666666666668"
    y2="63.333333333333336"
    stroke="hsla(0,50%,50%,0.6)"
    stroke-width="1"
    transform="translate(-8.2282002766,-23.4444173177) scale(1,-1) translate(50,-110)"
    />
  
  <line
    x1="20"
    y1="36.666666666666664"
    x2="20"
    y2="60"
    stroke="hsla(0,50%,50%,0.6)"
    stroke-width="1"
    transform="translate(-8.2282002766,-23.4444173177) scale(1,-1) translate(50,-110)"
    />
  
  <line
    x1="30"
    y1="0"
    x2="30"
    y2="63.333333333333336"
    stroke="hsla(0,50%,50%,0.6)"
    stroke-width="1"
    transform="translate(-8.2282002766,-23.4444173177) scale(1,-1) translate(50,-110)"
    />
  
  <line
    x1="33.333333333333336"
    y1="0"
    x2="33.333333333333336"
    y2="66.66666666666667"
    stroke="hsla(0,50%,50%,0.6)"
    stroke-width="1"
    transform="translate(-8.2282002766,-23.4444173177) scale(1,-1) translate(50,-110)"
    />
  
  <line
    x1="36.666666666666664"
    y1="33.333333333333336"
    x2="36.666666666666664"
    y2="43.333333333333336"
    stroke="hsla(0,50%,50%,0.6)"
    stroke-width="1"
    transform="translate(-8.2282002766,-23.4444173177) scale(1,-1) translate(50,-110)"
    />
  
  <line
    x1="40"
    y1="46.666666666666664"
    x2="40"
    y2="66.66666666666667"
    stroke="hsla(0,50%,50%,0.6)"
    stroke-width="1"
    transform="translate(-8.2282002766,-23.4444173177) scale(1,-1) translate(50,-110)"
    />
  
  <line
    x1="36.666666666666664"
    y1="43.333333333333336"
    x2="40"
    y2="46.666666666666664"
    stroke="hsla(0,50%,50%,0.6)"
    stroke-width="1"
    transform="translate(-8.2282002766,-23.4444173177) scale(1,-1) translate(50,-110)"
    />
  
  <line
    x1="10"
    y1="6.666666666666667"
    x2="16.666666666666668"
    y2="6.666666666666667"
    stroke="hsla(0,50%,50%,0.6)"
    stroke-width="1"
    transform="translate(-8.2282002766,-23.4444173177) scale(1,-1) translate(50,-110)"
    />
  
  <line
    x1="16.666666666666668"
    y1="0"
    x2="10"
    y2="6.666666666666667"
    stroke="hsla(0,50%,50%,0.6)"
    stroke-width="1"
    transform="translate(-8.2282002766,-23.4444173177) scale(1,-1) translate(50,-110)"
    />
  
  <line
    x1="13.333333333333334"
    y1="33.333333333333336"
    x2="40"
    y2="60"
    stroke="hsla(0,50%,50%,0.6)"
    stroke-width="1"
    transform="translate(-8.2282002766,-23.4444173177) scale(1,-1) translate(50,-110)"
    />
  
  <line
    x1="10"
    y1="36.666666666666664"
    x2="26.666666666666668"
    y2="53.333333333333336"
    stroke="hsla(0,50%,50%,0.6)"
    stroke-width="1"
    transform="translate(-8.2282002766,-23.4444173177) scale(1,-1) translate(50,-110)"
    />
  
  <line
    x1="10"
    y1="43.333333333333336"
    x2="33.333333333333336"
    y2="66.66666666666667"
    stroke="hsla(0,50%,50%,0.6)"
    stroke-width="1"
    transform="translate(-8.2282002766,-23.4444173177) scale(1,-1) translate(50,-110)"
    />
  
  <line
    x1="13.333333333333334"
    y1="53.333333333333336"
    x2="20"
    y2="60"
    stroke="hsla(0,50%,50%,0.6)"
    stroke-width="1"
    transform="translate(-8.2282002766,-23.4444173177) scale(1,-1) translate(50,-110)"
    />
  
  <line
    x1="0"
    y1="46.666666666666664"
    x2="6.666666666666667"
    y2="53.333333333333336"
    stroke="hsla(0,50%,50%,0.6)"
    stroke-width="1"
    transform="translate(-8.2282002766,-23.4444173177) scale(1,-1) translate(50,-110)"
    />
  
  <line
    x1="16.666666666666668"
    y1="63.333333333333336"
    x2="20"
    y2="66.66666666666667"
    stroke="hsla(0,50%,50%,0.6)"
    stroke-width="1"
    transform="translate(-8.2282002766,-23.4444173177) scale(1,-1) translate(50,-110)"
    />
  
  <line
    x1="20"
    y1="40"
    x2="6.666666666666667"
    y2="53.333333333333336"
    stroke="hsla(0,50%,50%,0.6)"
    stroke-width="1"
    transform="translate(-8.2282002766,-23.4444173177) scale(1,-1) translate(50,-110)"
    />
  
  <line
    x1="10"
    y1="33.333333333333336"
    x2="36.666666666666664"
    y2="33.333333333333336"
    stroke="hsla(0,50%,50%,0.6)"
    stroke-width="1"
    transform="translate(-8.2282002766,-23.4444173177) scale(1,-1) translate(50,-110)"
    />
  
  <line
    x1="0"
    y1="36.666666666666664"
    x2="20"
    y2="36.666666666666664"
    stroke="hsla(0,50%,50%,0.6)"
    stroke-width="1"
    transform="translate(-8.2282002766,-23.4444173177) scale(1,-1) translate(50,-110)"
    />
  
  <line
    x1="20"
    y1="53.333333333333336"
    x2="16.666666666666668"
    y2="56.666666666666664"
    stroke="hsla(0,50%,50%,0.6)"
    stroke-width="1"
    transform="translate(-8.2282002766,-23.4444173177) scale(1,-1) translate(50,-110)"
    />
  
  <line
    x1="41.666666666666664"
    y1="38.333333333333336"
    x2="23.333333333333332"
    y2="56.666666666666664"
    stroke="hsla(0,50%,50%,0.6)"
    stroke-width="1"
    transform="translate(-8.2282002766,-23.4444173177) scale(1,-1) translate(50,-110)"
    />
  
  <line
    x1="10"
    y1="43.333333333333336"
    x2="36.666666666666664"
    y2="43.333333333333336"
    stroke="hsla(0,50%,50%,0.6)"
    stroke-width="1"
    transform="translate(-8.2282002766,-23.4444173177) scale(1,-1) translate(50,-110)"
    />
  
  <line
    x1="40"
    y1="46.666666666666664"
    x2="20"
    y2="66.66666666666667"
    stroke="hsla(0,50%,50%,0.6)"
    stroke-width="1"
    transform="translate(-8.2282002766,-23.4444173177) scale(1,-1) translate(50,-110)"
    />
  
  <line
    x1="0"
    y1="46.666666666666664"
    x2="13.333333333333334"
    y2="46.666666666666664"
    stroke="hsla(0,50%,50%,0.6)"
    stroke-width="1"
    transform="translate(-8.2282002766,-23.4444173177) scale(1,-1) translate(50,-110)"
    />
  
  <line
    x1="40"
    y1="60"
    x2="33.333333333333336"
    y2="66.66666666666667"
    stroke="hsla(0,50%,50%,0.6)"
    stroke-width="1"
    transform="translate(-8.2282002766,-23.4444173177) scale(1,-1) translate(50,-110)"
    />
  
  <line
    x1="6.666666666666667"
    y1="53.333333333333336"
    x2="26.666666666666668"
    y2="53.333333333333336"
    stroke="hsla(0,50%,50%,0.6)"
    stroke-width="1"
    transform="translate(-8.2282002766,-23.4444173177) scale(1,-1) translate(50,-110)"
    />
  
  <line
    x1="16.666666666666668"
    y1="60"
    x2="40"
    y2="60"
    stroke="hsla(0,50%,50%,0.6)"
    stroke-width="1"
    transform="translate(-8.2282002766,-23.4444173177) scale(1,-1) translate(50,-110)"
    />
  
  <line
    x1="16.666666666666668"
    y1="63.333333333333336"
    x2="40"
    y2="63.333333333333336"
    stroke="hsla(0,50%,50%,0.6)"
    stroke-width="1"
    transform="translate(-8.2282002766,-23.4444173177) scale(1,-1) translate(50,-110)"
    />
  
  <line
    x1="20"
    y1="66.66666666666667"
    x2="40"
    y2="66.66666666666667"
    stroke="hsla(0,50%,50%,0.6)"
    stroke-width="1"
    transform="translate(-8.2282002766,-23.4444173177) scale(1,-1) translate(50,-110)"
    />
  
</svg>
