<?xml version="1.0"?>
<!DOCTYPE svg PUBLIC "-//W3C//DTD SVG 1.1//EN"
  "http://www.w3.org/Graphics/SVG/1.1/DTD/svg11.dtd">
<svg
  width="240"
  height="240"
  viewBox="-500 -500 1000 1000" xmlns="http://www.w3.org/2000/svg" version="1.1">
  <rect
    x="0"
    y="0"
    width="100"
    height="100"
    fill="hsla(206,100%,53%,0.3)"
    stroke="hsl(206,100%,53%)"
    stroke-width="3"
    transform="" />
  
  <path
    d="M 
      60.2941176470
      1.5625
      L
    
      98.4375
      27.6923076923
      L
    
      70.7692307692
      55.7522123893
      L
    
      37.6811594202
      66.1538461538
      L
    
      1.5625
      17.7215189873
      z
    "
    fill="hsla(0,0%,50%,0.3)"
    stroke="hsla(0,0%,50%,1)"
    stroke-width="1"
    transform="translate(-50,-33.8581730769)"
    />
  
  
  <line
    x1="96.20225511904201"
    y1="26.16107172733187"
    x2="96.60014019178452"
    y2="27.2327170811941"
    stroke="hsla(0,50%,50%,0.6)"
    stroke-width="1"
    transform="translate(-50,-33.8581730769)"
    />
  
  <line
    x1="60.294117647058826"
    y1="1.5625"
    x2="98.4375"
    y2="27.692307692307693"
    stroke="hsla(0,50%,50%,0.6)"
    stroke-width="1"
    transform="translate(-50,-33.8581730769)"
    />
  
  <line
    x1="58.779869884487496"
    y1="1.9791198604297298"
    x2="73.1792301613712"
    y2="39.152024806375465"
    stroke="hsla(0,50%,50%,0.6)"
    stroke-width="1"
    transform="translate(-50,-33.8581730769)"
    />
  
  <line
    x1="46.078773461520335"
    y1="16.204752229638256"
    x2="59.78215222141314"
    y2="33.416522098438556"
    stroke="hsla(0,50%,50%,0.6)"
    stroke-width="1"
    transform="translate(-50,-33.8581730769)"
    />
  
  <line
    x1="58.779869884487496"
    y1="1.9791198604297298"
    x2="59.13353870441071"
    y2="4.071860508499513"
    stroke="hsla(0,50%,50%,0.6)"
    stroke-width="1"
    transform="translate(-50,-33.8581730769)"
    />
  
  <line
    x1="26.114989314574828"
    y1="27.14621129928998"
    x2="26.451623846625214"
    y2="51.09590797006899"
    stroke="hsla(0,50%,50%,0.6)"
    stroke-width="1"
    transform="translate(-50,-33.8581730769)"
    />
  
  <line
    x1="24.847084609356134"
    y1="33.108642780766075"
    x2="44.115009046287035"
    y2="56.62363988549574"
    stroke="hsla(0,50%,50%,0.6)"
    stroke-width="1"
    transform="translate(-50,-33.8581730769)"
    />
  
  <line
    x1="3.257513987662057"
    y1="17.25516433361783"
    x2="3.0028457834394904"
    y2="18.46423060519429"
    stroke="hsla(0,50%,50%,0.6)"
    stroke-width="1"
    transform="translate(-50,-33.8581730769)"
    />
  
  <line
    x1="96.60014019178452"
    y1="27.2327170811941"
    x2="98.4375"
    y2="27.692307692307693"
    stroke="hsla(0,50%,50%,0.6)"
    stroke-width="1"
    transform="translate(-50,-33.8581730769)"
    />
  
  <line
    x1="24.847084609356134"
    y1="33.108642780766075"
    x2="23.372883121092446"
    y2="46.96755491175807"
    stroke="hsla(0,50%,50%,0.6)"
    stroke-width="1"
    transform="translate(-50,-33.8581730769)"
    />
  
  <line
    x1="1.5625"
    y1="17.72151898734177"
    x2="37.68115942028985"
    y2="66.15384615384616"
    stroke="hsla(0,50%,50%,0.6)"
    stroke-width="1"
    transform="translate(-50,-33.8581730769)"
    />
  
  <line
    x1="3.257513987662057"
    y1="17.25516433361783"
    x2="14.720709678141136"
    y2="29.694620487570855"
    stroke="hsla(0,50%,50%,0.6)"
    stroke-width="1"
    transform="translate(-50,-33.8581730769)"
    />
  
  <line
    x1="4.408962103145515"
    y1="16.93836270773978"
    x2="3.0028457834394904"
    y2="18.46423060519429"
    stroke="hsla(0,50%,50%,0.6)"
    stroke-width="1"
    transform="translate(-50,-33.8581730769)"
    />
  
  <line
    x1="1.5625"
    y1="17.72151898734177"
    x2="3.0028457834394904"
    y2="18.46423060519429"
    stroke="hsla(0,50%,50%,0.6)"
    stroke-width="1"
    transform="translate(-50,-33.8581730769)"
    />
  
  <line
    x1="4.408962103145515"
    y1="16.93836270773978"
    x2="59.78215222141314"
    y2="33.416522098438556"
    stroke="hsla(0,50%,50%,0.6)"
    stroke-width="1"
    transform="translate(-50,-33.8581730769)"
    />
  
  <line
    x1="60.294117647058826"
    y1="1.5625"
    x2="1.5625"
    y2="17.72151898734177"
    stroke="hsla(0,50%,50%,0.6)"
    stroke-width="1"
    transform="translate(-50,-33.8581730769)"
    />
  
  <line
    x1="60.294117647058826"
    y1="1.5625"
    x2="59.13353870441071"
    y2="4.071860508499513"
    stroke="hsla(0,50%,50%,0.6)"
    stroke-width="1"
    transform="translate(-50,-33.8581730769)"
    />
  
  <line
    x1="14.720709678141136"
    y1="29.694620487570855"
    x2="12.214108282970752"
    y2="32.00450139838021"
    stroke="hsla(0,50%,50%,0.6)"
    stroke-width="1"
    transform="translate(-50,-33.8581730769)"
    />
  
  <line
    x1="96.20225511904201"
    y1="26.16107172733187"
    x2="26.114989314574828"
    y2="27.14621129928998"
    stroke="hsla(0,50%,50%,0.6)"
    stroke-width="1"
    transform="translate(-50,-33.8581730769)"
    />
  
  <line
    x1="59.13353870441071"
    y1="4.071860508499513"
    x2="12.214108282970752"
    y2="32.00450139838021"
    stroke="hsla(0,50%,50%,0.6)"
    stroke-width="1"
    transform="translate(-50,-33.8581730769)"
    />
  
  <line
    x1="46.078773461520335"
    y1="16.204752229638256"
    x2="24.847084609356134"
    y2="33.108642780766075"
    stroke="hsla(0,50%,50%,0.6)"
    stroke-width="1"
    transform="translate(-50,-33.8581730769)"
    />
  
  <line
    x1="97.1087421600366"
    y1="26.782053155711438"
    x2="95.76416055907102"
    y2="30.403487394577336"
    stroke="hsla(0,50%,50%,0.6)"
    stroke-width="1"
    transform="translate(-50,-33.8581730769)"
    />
  
  <line
    x1="59.78215222141314"
    y1="33.416522098438556"
    x2="37.68115942028985"
    y2="66.15384615384616"
    stroke="hsla(0,50%,50%,0.6)"
    stroke-width="1"
    transform="translate(-50,-33.8581730769)"
    />
  
  <line
    x1="26.451623846625214"
    y1="51.09590797006899"
    x2="44.115009046287035"
    y2="56.62363988549574"
    stroke="hsla(0,50%,50%,0.6)"
    stroke-width="1"
    transform="translate(-50,-33.8581730769)"
    />
  
  <line
    x1="23.372883121092446"
    y1="46.96755491175807"
    x2="70.76923076923077"
    y2="55.75221238938053"
    stroke="hsla(0,50%,50%,0.6)"
    stroke-width="1"
    transform="translate(-50,-33.8581730769)"
    />
  
  <line
    x1="95.76416055907102"
    y1="30.403487394577336"
    x2="73.1792301613712"
    y2="39.152024806375465"
    stroke="hsla(0,50%,50%,0.6)"
    stroke-width="1"
    transform="translate(-50,-33.8581730769)"
    />
  
  <line
    x1="98.4375"
    y1="27.692307692307693"
    x2="70.76923076923077"
    y2="55.75221238938053"
    stroke="hsla(0,50%,50%,0.6)"
    stroke-width="1"
    transform="translate(-50,-33.8581730769)"
    />
  
  <line
    x1="97.1087421600366"
    y1="26.782053155711438"
    x2="96.60014019178452"
    y2="27.2327170811941"
    stroke="hsla(0,50%,50%,0.6)"
    stroke-width="1"
    transform="translate(-50,-33.8581730769)"
    />
  
  <line
    x1="70.76923076923077"
    y1="55.75221238938053"
    x2="37.68115942028985"
    y2="66.15384615384616"
    stroke="hsla(0,50%,50%,0.6)"
    stroke-width="1"
    transform="translate(-50,-33.8581730769)"
    />
  
</svg>
