<?xml version="1.0"?>
<!DOCTYPE svg PUBLIC "-//W3C//DTD SVG 1.1//EN"
  "http://www.w3.org/Graphics/SVG/1.1/DTD/svg11.dtd">
<svg
  width="240"
  height="240"
  viewBox="-50 -50 200 200" xmlns="http://www.w3.org/2000/svg" version="1.1">
  <rect
    x="0"
    y="0"
    width="100"
    height="100"
    fill="hsla(206,100%,53%,0.3)"
    stroke="hsl(206,100%,53%)"
    stroke-width="3"
    transform="" />
  
  <path
    d="M 
      65.8823529411
      28.9855072463
      L
    
      98.4375
      64.6153846153
      L
    
      88.4057971014
      69.7368421052
      L
    
      25.6756756756
      77.5700934579
      L
    
      1.5625
      65.1515151515
      L
    
      23.1884057971
      46.9135802469
      z
    "
    fill="hsla(0,0%,50%,0.3)"
    stroke="hsla(0,0%,50%,1)"
    stroke-width="1"
    transform="translate(-25.8546450812,-56.7245110958) scale(1,-1) translate(50,-110)"
    />
  
  
  <line
    x1="93.22829131294823"
    y1="58.914182701786736"
    x2="96.22038724132392"
    y2="63.94443938871482"
    stroke="hsla(0,50%,50%,0.6)"
    stroke-width="1"
    transform="translate(-25.8546450812,-56.7245110958) scale(1,-1) translate(50,-110)"
    />
  
  <line
    x1="65.88235294117646"
    y1="28.985507246376812"
    x2="98.4375"
    y2="64.61538461538461"
    stroke="hsla(0,50%,50%,0.6)"
    stroke-width="1"
    transform="translate(-25.8546450812,-56.7245110958) scale(1,-1) translate(50,-110)"
    />
  
  <line
    x1="44.23887331277197"
    y1="61.15563553080298"
    x2="48.50384933828047"
    y2="70.60558137130565"
    stroke="hsla(0,50%,50%,0.6)"
    stroke-width="1"
    transform="translate(-25.8546450812,-56.7245110958) scale(1,-1) translate(50,-110)"
    />
  
  <line
    x1="70.69411542896263"
    y1="42.59682370167626"
    x2="93.22829131294823"
    y2="58.914182701786736"
    stroke="hsla(0,50%,50%,0.6)"
    stroke-width="1"
    transform="translate(-25.8546450812,-56.7245110958) scale(1,-1) translate(50,-110)"
    />
  
  <line
    x1="45.94037547347304"
    y1="67.35451199686464"
    x2="47.06211763807599"
    y2="74.89952034851311"
    stroke="hsla(0,50%,50%,0.6)"
    stroke-width="1"
    transform="translate(-25.8546450812,-56.7245110958) scale(1,-1) translate(50,-110)"
    />
  
  <line
    x1="45.55345709088047"
    y1="59.99321833634601"
    x2="47.06211763807599"
    y2="74.89952034851311"
    stroke="hsla(0,50%,50%,0.6)"
    stroke-width="1"
    transform="translate(-25.8546450812,-56.7245110958) scale(1,-1) translate(50,-110)"
    />
  
  <line
    x1="29.475618873218135"
    y1="44.27344920870875"
    x2="29.61106460694681"
    y2="45.03730205131388"
    stroke="hsla(0,50%,50%,0.6)"
    stroke-width="1"
    transform="translate(-25.8546450812,-56.7245110958) scale(1,-1) translate(50,-110)"
    />
  
  <line
    x1="65.88235294117646"
    y1="28.985507246376812"
    x2="68.03234761753704"
    y2="68.18943562126313"
    stroke="hsla(0,50%,50%,0.6)"
    stroke-width="1"
    transform="translate(-25.8546450812,-56.7245110958) scale(1,-1) translate(50,-110)"
    />
  
  <line
    x1="29.475618873218135"
    y1="44.27344920870875"
    x2="45.94037547347304"
    y2="67.35451199686464"
    stroke="hsla(0,50%,50%,0.6)"
    stroke-width="1"
    transform="translate(-25.8546450812,-56.7245110958) scale(1,-1) translate(50,-110)"
    />
  
  <line
    x1="3.2343207340289766"
    y1="64.6093212798273"
    x2="3.022827773370996"
    y2="65.90360168920643"
    stroke="hsla(0,50%,50%,0.6)"
    stroke-width="1"
    transform="translate(-25.8546450812,-56.7245110958) scale(1,-1) translate(50,-110)"
    />
  
  <line
    x1="37.76286368765518"
    y1="66.88202974398592"
    x2="43.24237171341204"
    y2="75.37650061335566"
    stroke="hsla(0,50%,50%,0.6)"
    stroke-width="1"
    transform="translate(-25.8546450812,-56.7245110958) scale(1,-1) translate(50,-110)"
    />
  
  <line
    x1="35.63070652493377"
    y1="41.6888003737749"
    x2="33.94373541858615"
    y2="60.355846452478794"
    stroke="hsla(0,50%,50%,0.6)"
    stroke-width="1"
    transform="translate(-25.8546450812,-56.7245110958) scale(1,-1) translate(50,-110)"
    />
  
  <line
    x1="35.63070652493377"
    y1="41.6888003737749"
    x2="68.03234761753704"
    y2="68.18943562126313"
    stroke="hsla(0,50%,50%,0.6)"
    stroke-width="1"
    transform="translate(-25.8546450812,-56.7245110958) scale(1,-1) translate(50,-110)"
    />
  
  <line
    x1="5.382641334561723"
    y1="61.929847137246234"
    x2="9.677537559635644"
    y2="68.1261581018301"
    stroke="hsla(0,50%,50%,0.6)"
    stroke-width="1"
    transform="translate(-25.8546450812,-56.7245110958) scale(1,-1) translate(50,-110)"
    />
  
  <line
    x1="45.94037547347304"
    y1="67.35451199686464"
    x2="43.24237171341204"
    y2="75.37650061335566"
    stroke="hsla(0,50%,50%,0.6)"
    stroke-width="1"
    transform="translate(-25.8546450812,-56.7245110958) scale(1,-1) translate(50,-110)"
    />
  
  <line
    x1="37.76286368765518"
    y1="66.88202974398592"
    x2="47.32718108042763"
    y2="74.86642128029587"
    stroke="hsla(0,50%,50%,0.6)"
    stroke-width="1"
    transform="translate(-25.8546450812,-56.7245110958) scale(1,-1) translate(50,-110)"
    />
  
  <line
    x1="23.18840579710145"
    y1="46.91358024691358"
    x2="9.677537559635644"
    y2="68.1261581018301"
    stroke="hsla(0,50%,50%,0.6)"
    stroke-width="1"
    transform="translate(-25.8546450812,-56.7245110958) scale(1,-1) translate(50,-110)"
    />
  
  <line
    x1="44.23887331277197"
    y1="61.15563553080298"
    x2="63.45965729149693"
    y2="72.85192269125714"
    stroke="hsla(0,50%,50%,0.6)"
    stroke-width="1"
    transform="translate(-25.8546450812,-56.7245110958) scale(1,-1) translate(50,-110)"
    />
  
  <line
    x1="5.382641334561723"
    y1="61.929847137246234"
    x2="16.52451429752085"
    y2="72.85713421533276"
    stroke="hsla(0,50%,50%,0.6)"
    stroke-width="1"
    transform="translate(-25.8546450812,-56.7245110958) scale(1,-1) translate(50,-110)"
    />
  
  <line
    x1="3.2343207340289766"
    y1="64.6093212798273"
    x2="6.173448395969127"
    y2="67.52620957137987"
    stroke="hsla(0,50%,50%,0.6)"
    stroke-width="1"
    transform="translate(-25.8546450812,-56.7245110958) scale(1,-1) translate(50,-110)"
    />
  
  <line
    x1="96.22038724132392"
    y1="63.94443938871482"
    x2="98.4375"
    y2="64.61538461538461"
    stroke="hsla(0,50%,50%,0.6)"
    stroke-width="1"
    transform="translate(-25.8546450812,-56.7245110958) scale(1,-1) translate(50,-110)"
    />
  
  <line
    x1="16.32725003647721"
    y1="52.69984942364183"
    x2="3.022827773370996"
    y2="65.90360168920643"
    stroke="hsla(0,50%,50%,0.6)"
    stroke-width="1"
    transform="translate(-25.8546450812,-56.7245110958) scale(1,-1) translate(50,-110)"
    />
  
  <line
    x1="23.18840579710145"
    y1="46.91358024691358"
    x2="1.5625"
    y2="65.15151515151516"
    stroke="hsla(0,50%,50%,0.6)"
    stroke-width="1"
    transform="translate(-25.8546450812,-56.7245110958) scale(1,-1) translate(50,-110)"
    />
  
  <line
    x1="26.228030849367762"
    y1="45.63717870813355"
    x2="16.32725003647721"
    y2="52.69984942364183"
    stroke="hsla(0,50%,50%,0.6)"
    stroke-width="1"
    transform="translate(-25.8546450812,-56.7245110958) scale(1,-1) translate(50,-110)"
    />
  
  <line
    x1="45.55345709088047"
    y1="59.99321833634601"
    x2="88.40579710144928"
    y2="69.73684210526316"
    stroke="hsla(0,50%,50%,0.6)"
    stroke-width="1"
    transform="translate(-25.8546450812,-56.7245110958) scale(1,-1) translate(50,-110)"
    />
  
  <line
    x1="65.88235294117646"
    y1="28.985507246376812"
    x2="23.18840579710145"
    y2="46.91358024691358"
    stroke="hsla(0,50%,50%,0.6)"
    stroke-width="1"
    transform="translate(-25.8546450812,-56.7245110958) scale(1,-1) translate(50,-110)"
    />
  
  <line
    x1="70.69411542896263"
    y1="42.59682370167626"
    x2="47.32718108042763"
    y2="74.86642128029587"
    stroke="hsla(0,50%,50%,0.6)"
    stroke-width="1"
    transform="translate(-25.8546450812,-56.7245110958) scale(1,-1) translate(50,-110)"
    />
  
  <line
    x1="29.61106460694681"
    y1="45.03730205131388"
    x2="26.228030849367762"
    y2="45.63717870813355"
    stroke="hsla(0,50%,50%,0.6)"
    stroke-width="1"
    transform="translate(-25.8546450812,-56.7245110958) scale(1,-1) translate(50,-110)"
    />
  
  <line
    x1="1.5625"
    y1="65.15151515151516"
    x2="25.675675675675677"
    y2="77.57009345794393"
    stroke="hsla(0,50%,50%,0.6)"
    stroke-width="1"
    transform="translate(-25.8546450812,-56.7245110958) scale(1,-1) translate(50,-110)"
    />
  
  <line
    x1="45.55345709088047"
    y1="59.99321833634601"
    x2="25.675675675675677"
    y2="77.57009345794393"
    stroke="hsla(0,50%,50%,0.6)"
    stroke-width="1"
    transform="translate(-25.8546450812,-56.7245110958) scale(1,-1) translate(50,-110)"
    />
  
  <line
    x1="33.94373541858615"
    y1="60.355846452478794"
    x2="95.82663208109769"
    y2="65.94830378111047"
    stroke="hsla(0,50%,50%,0.6)"
    stroke-width="1"
    transform="translate(-25.8546450812,-56.7245110958) scale(1,-1) translate(50,-110)"
    />
  
  <line
    x1="97.33633532515601"
    y1="63.41021843208087"
    x2="95.82663208109769"
    y2="65.94830378111047"
    stroke="hsla(0,50%,50%,0.6)"
    stroke-width="1"
    transform="translate(-25.8546450812,-56.7245110958) scale(1,-1) translate(50,-110)"
    />
  
  <line
    x1="3.2343207340289766"
    y1="64.6093212798273"
    x2="1.5625"
    y2="65.15151515151516"
    stroke="hsla(0,50%,50%,0.6)"
    stroke-width="1"
    transform="translate(-25.8546450812,-56.7245110958) scale(1,-1) translate(50,-110)"
    />
  
  <line
    x1="6.173448395969127"
    y1="67.52620957137987"
    x2="9.677537559635644"
    y2="68.1261581018301"
    stroke="hsla(0,50%,50%,0.6)"
    stroke-width="1"
    transform="translate(-25.8546450812,-56.7245110958) scale(1,-1) translate(50,-110)"
    />
  
  <line
    x1="68.03234761753704"
    y1="68.18943562126313"
    x2="63.45965729149693"
    y2="72.85192269125714"
    stroke="hsla(0,50%,50%,0.6)"
    stroke-width="1"
    transform="translate(-25.8546450812,-56.7245110958) scale(1,-1) translate(50,-110)"
    />
  
  <line
    x1="16.52451429752085"
    y1="72.85713421533276"
    x2="35.90192027226995"
    y2="76.2931192946801"
    stroke="hsla(0,50%,50%,0.6)"
    stroke-width="1"
    transform="translate(-25.8546450812,-56.7245110958) scale(1,-1) translate(50,-110)"
    />
  
  <line
    x1="48.50384933828047"
    y1="70.60558137130565"
    x2="35.90192027226995"
    y2="76.2931192946801"
    stroke="hsla(0,50%,50%,0.6)"
    stroke-width="1"
    transform="translate(-25.8546450812,-56.7245110958) scale(1,-1) translate(50,-110)"
    />
  
  <line
    x1="88.40579710144928"
    y1="69.73684210526316"
    x2="25.675675675675677"
    y2="77.57009345794393"
    stroke="hsla(0,50%,50%,0.6)"
    stroke-width="1"
    transform="translate(-25.8546450812,-56.7245110958) scale(1,-1) translate(50,-110)"
    />
  
  <line
    x1="97.33633532515601"
    y1="63.41021843208087"
    x2="96.22038724132392"
    y2="63.94443938871482"
    stroke="hsla(0,50%,50%,0.6)"
    stroke-width="1"
    transform="translate(-25.8546450812,-56.7245110958) scale(1,-1) translate(50,-110)"
    />
  
  <line
    x1="98.4375"
    y1="64.61538461538461"
    x2="88.40579710144928"
    y2="69.73684210526316"
    stroke="hsla(0,50%,50%,0.6)"
    stroke-width="1"
    transform="translate(-25.8546450812,-56.7245110958) scale(1,-1) translate(50,-110)"
    />
  
</svg>
