<?xml version="1.0"?>
<!DOCTYPE svg PUBLIC "-//W3C//DTD SVG 1.1//EN"
  "http://www.w3.org/Graphics/SVG/1.1/DTD/svg11.dtd">
<svg
  width="240"
  height="240"
  viewBox="-500 -500 1000 1000" xmlns="http://www.w3.org/2000/svg" version="1.1">
  <rect
    x="0"
    y="0"
    width="100"
    height="100"
    fill="hsla(206,100%,53%,0.3)"
    stroke="hsl(206,100%,53%)"
    stroke-width="3"
    transform="" />
  
  <path
    d="M 
      -250
      150
      L
    
      -200
      150
      L
    
      -150
      200
      L
    
      -150
      250
      L
    
      -200
      250
      L
    
      -250
      200
      z
    "
    fill="hsla(0,0%,50%,0.3)"
    stroke="hsla(0,0%,50%,1)"
    stroke-width="1"
    transform="translate(200,-200)"
    />
  
  
  <line
    x1="-250"
    y1="150"
    x2="-250"
    y2="200"
    stroke="hsla(0,50%,50%,0.6)"
    stroke-width="1"
    transform="translate(200,-200)"
    />
  
  <line
    x1="-200"
    y1="150"
    x2="-200"
    y2="250"
    stroke="hsla(0,50%,50%,0.6)"
    stroke-width="1"
    transform="translate(200,-200)"
    />
  
  <line
    x1="-150"
    y1="200"
    x2="-150"
    y2="250"
    stroke="hsla(0,50%,50%,0.6)"
    stroke-width="1"
    transform="translate(200,-200)"
    />
  
  <line
    x1="-250"
    y1="150"
    x2="-200"
    y2="150"
    stroke="hsla(0,50%,50%,0.6)"
    stroke-width="1"
    transform="translate(200,-200)"
    />
  
  <line
    x1="-200"
    y1="150"
    x2="-150"
    y2="200"
    stroke="hsla(0,50%,50%,0.6)"
    stroke-width="1"
    transform="translate(200,-200)"
    />
  
  <line
    x1="-250"
    y1="200"
    x2="-150"
    y2="200"
    stroke="hsla(0,50%,50%,0.6)"
    stroke-width="1"
    transform="translate(200,-200)"
    />
  
  <line
    x1="-250"
    y1="200"
    x2="-200"
    y2="250"
    stroke="hsla(0,50%,50%,0.6)"
    stroke-width="1"
    transform="translate(200,-200)"
    />
  
  <line
    x1="-200"
    y1="250"
    x2="-150"
    y2="250"
    stroke="hsla(0,50%,50%,0.6)"
    stroke-width="1"
    transform="translate(200,-200)"
    />
  
</svg>
