<?xml version="1.0"?>
<!DOCTYPE svg PUBLIC "-//W3C//DTD SVG 1.1//EN"
  "http://www.w3.org/Graphics/SVG/1.1/DTD/svg11.dtd">
<svg
  width="240"
  height="240"
  viewBox="-50 -50 200 200" xmlns="http://www.w3.org/2000/svg" version="1.1">
  <rect
    x="0"
    y="0"
    width="100"
    height="100"
    fill="hsla(206,100%,53%,0.3)"
    stroke="hsl(206,100%,53%)"
    stroke-width="3"
    transform="" />
  
  <path
    d="M 
      79.6402090677
      -12.8236295125
      L
    
      84.1797182242
      -0.0503899549
      L
    
      91.8396221317
      4.3454208012
      L
    
      134.6968344290
      12.1227150986
      L
    
      131.9328450341
      27.3538322140
      L
    
      122.6954182891
      31.6479878745
      L
    
      64.8400817897
      33.9317511574
      L
    
      63.8194666174
      27.9380877297
      L
    
      65.8431230497
      22.7868482684
      L
    
      68.6980787950
      -8.9348822343
      z
    "
    fill="hsla(0,0%,50%,0.3)"
    stroke="hsla(0,0%,50%,1)"
    stroke-width="1"
    transform="translate(-70.4664694626,-8.3452080553) scale(1,-1) translate(50,-110)"
    />
  
  
  <line
    x1="68.69807879502645"
    y1="-8.934882234300549"
    x2="131.93284503412406"
    y2="27.353832214061878"
    stroke="hsla(0,50%,50%,0.6)"
    stroke-width="1"
    transform="translate(-70.4664694626,-8.3452080553) scale(1,-1) translate(50,-110)"
    />
  
  <line
    x1="71.93940641008834"
    y1="9.972514878767624"
    x2="90.60377317474504"
    y2="32.9147633395934"
    stroke="hsla(0,50%,50%,0.6)"
    stroke-width="1"
    transform="translate(-70.4664694626,-8.3452080553) scale(1,-1) translate(50,-110)"
    />
  
  <line
    x1="79.6402090677039"
    y1="-12.823629512580528"
    x2="95.82206956503302"
    y2="32.70877795576624"
    stroke="hsla(0,50%,50%,0.6)"
    stroke-width="1"
    transform="translate(-70.4664694626,-8.3452080553) scale(1,-1) translate(50,-110)"
    />
  
  <line
    x1="72.105546841157"
    y1="20.4416790259655"
    x2="82.0156988013832"
    y2="30.233839489954406"
    stroke="hsla(0,50%,50%,0.6)"
    stroke-width="1"
    transform="translate(-70.4664694626,-8.3452080553) scale(1,-1) translate(50,-110)"
    />
  
  <line
    x1="70.05700350765886"
    y1="12.060369725323788"
    x2="79.46841620083674"
    y2="15.955539114485116"
    stroke="hsla(0,50%,50%,0.6)"
    stroke-width="1"
    transform="translate(-70.4664694626,-8.3452080553) scale(1,-1) translate(50,-110)"
    />
  
  <line
    x1="70.05700350765886"
    y1="12.060369725323788"
    x2="122.69541828914166"
    y2="31.647987874551426"
    stroke="hsla(0,50%,50%,0.6)"
    stroke-width="1"
    transform="translate(-70.4664694626,-8.3452080553) scale(1,-1) translate(50,-110)"
    />
  
  <line
    x1="67.89393939393939"
    y1="0"
    x2="134.69683442900384"
    y2="12.122715098610348"
    stroke="hsla(0,50%,50%,0.6)"
    stroke-width="1"
    transform="translate(-70.4664694626,-8.3452080553) scale(1,-1) translate(50,-110)"
    />
  
  <line
    x1="76.8556313343794"
    y1="-4.253484447855315"
    x2="79.46841620083674"
    y2="15.955539114485116"
    stroke="hsla(0,50%,50%,0.6)"
    stroke-width="1"
    transform="translate(-70.4664694626,-8.3452080553) scale(1,-1) translate(50,-110)"
    />
  
  <line
    x1="63.81946661748723"
    y1="27.938087729739358"
    x2="64.84008178977147"
    y2="33.9317511574213"
    stroke="hsla(0,50%,50%,0.6)"
    stroke-width="1"
    transform="translate(-70.4664694626,-8.3452080553) scale(1,-1) translate(50,-110)"
    />
  
  <line
    x1="98.05223981810126"
    y1="7.910673313574495"
    x2="99.06035227848479"
    y2="20.66020085531087"
    stroke="hsla(0,50%,50%,0.6)"
    stroke-width="1"
    transform="translate(-70.4664694626,-8.3452080553) scale(1,-1) translate(50,-110)"
    />
  
  <line
    x1="67.89393939393939"
    y1="0"
    x2="84.19762641898865"
    y2="0"
    stroke="hsla(0,50%,50%,0.6)"
    stroke-width="1"
    transform="translate(-70.4664694626,-8.3452080553) scale(1,-1) translate(50,-110)"
    />
  
  <line
    x1="68.69807879502645"
    y1="-8.934882234300549"
    x2="64.84008178977147"
    y2="33.9317511574213"
    stroke="hsla(0,50%,50%,0.6)"
    stroke-width="1"
    transform="translate(-70.4664694626,-8.3452080553) scale(1,-1) translate(50,-110)"
    />
  
  <line
    x1="76.16244374566409"
    y1="-3.9602067906362413"
    x2="72.105546841157"
    y2="20.4416790259655"
    stroke="hsla(0,50%,50%,0.6)"
    stroke-width="1"
    transform="translate(-70.4664694626,-8.3452080553) scale(1,-1) translate(50,-110)"
    />
  
  <line
    x1="79.6402090677039"
    y1="-12.823629512580528"
    x2="68.69807879502645"
    y2="-8.934882234300549"
    stroke="hsla(0,50%,50%,0.6)"
    stroke-width="1"
    transform="translate(-70.4664694626,-8.3452080553) scale(1,-1) translate(50,-110)"
    />
  
  <line
    x1="76.8556313343794"
    y1="-4.253484447855315"
    x2="76.16244374566409"
    y2="-3.9602067906362413"
    stroke="hsla(0,50%,50%,0.6)"
    stroke-width="1"
    transform="translate(-70.4664694626,-8.3452080553) scale(1,-1) translate(50,-110)"
    />
  
  <line
    x1="134.69683442900384"
    y1="12.122715098610348"
    x2="131.93284503412406"
    y2="27.353832214061878"
    stroke="hsla(0,50%,50%,0.6)"
    stroke-width="1"
    transform="translate(-70.4664694626,-8.3452080553) scale(1,-1) translate(50,-110)"
    />
  
  <line
    x1="76.53757911457687"
    y1="-4.436005976288613"
    x2="63.81946661748723"
    y2="27.938087729739358"
    stroke="hsla(0,50%,50%,0.6)"
    stroke-width="1"
    transform="translate(-70.4664694626,-8.3452080553) scale(1,-1) translate(50,-110)"
    />
  
  <line
    x1="101.89441480262528"
    y1="10.115593156985355"
    x2="95.82206956503302"
    y2="32.70877795576624"
    stroke="hsla(0,50%,50%,0.6)"
    stroke-width="1"
    transform="translate(-70.4664694626,-8.3452080553) scale(1,-1) translate(50,-110)"
    />
  
  <line
    x1="76.53757911457687"
    y1="-4.436005976288613"
    x2="76.16244374566409"
    y2="-3.9602067906362413"
    stroke="hsla(0,50%,50%,0.6)"
    stroke-width="1"
    transform="translate(-70.4664694626,-8.3452080553) scale(1,-1) translate(50,-110)"
    />
  
  <line
    x1="122.69541828914166"
    y1="31.647987874551426"
    x2="64.84008178977147"
    y2="33.9317511574213"
    stroke="hsla(0,50%,50%,0.6)"
    stroke-width="1"
    transform="translate(-70.4664694626,-8.3452080553) scale(1,-1) translate(50,-110)"
    />
  
  <line
    x1="84.19762641898865"
    y1="0"
    x2="71.93940641008834"
    y2="9.972514878767624"
    stroke="hsla(0,50%,50%,0.6)"
    stroke-width="1"
    transform="translate(-70.4664694626,-8.3452080553) scale(1,-1) translate(50,-110)"
    />
  
  <line
    x1="98.05223981810126"
    y1="7.910673313574495"
    x2="72.105546841157"
    y2="20.4416790259655"
    stroke="hsla(0,50%,50%,0.6)"
    stroke-width="1"
    transform="translate(-70.4664694626,-8.3452080553) scale(1,-1) translate(50,-110)"
    />
  
  <line
    x1="79.46841620083674"
    y1="15.955539114485116"
    x2="63.81946661748723"
    y2="27.938087729739358"
    stroke="hsla(0,50%,50%,0.6)"
    stroke-width="1"
    transform="translate(-70.4664694626,-8.3452080553) scale(1,-1) translate(50,-110)"
    />
  
  <line
    x1="99.06035227848479"
    y1="20.66020085531087"
    x2="90.60377317474504"
    y2="32.9147633395934"
    stroke="hsla(0,50%,50%,0.6)"
    stroke-width="1"
    transform="translate(-70.4664694626,-8.3452080553) scale(1,-1) translate(50,-110)"
    />
  
  <line
    x1="101.89441480262528"
    y1="10.115593156985355"
    x2="82.0156988013832"
    y2="30.233839489954406"
    stroke="hsla(0,50%,50%,0.6)"
    stroke-width="1"
    transform="translate(-70.4664694626,-8.3452080553) scale(1,-1) translate(50,-110)"
    />
  
  <line
    x1="131.93284503412406"
    y1="27.353832214061878"
    x2="122.69541828914166"
    y2="31.647987874551426"
    stroke="hsla(0,50%,50%,0.6)"
    stroke-width="1"
    transform="translate(-70.4664694626,-8.3452080553) scale(1,-1) translate(50,-110)"
    />
  
</svg>
