<?xml version="1.0"?>
<!DOCTYPE svg PUBLIC "-//W3C//DTD SVG 1.1//EN"
  "http://www.w3.org/Graphics/SVG/1.1/DTD/svg11.dtd">
<svg
  width="240"
  height="240"
  viewBox="-50 -50 200 200" xmlns="http://www.w3.org/2000/svg" version="1.1">
  <rect
    x="0"
    y="0"
    width="100"
    height="100"
    fill="hsla(206,100%,53%,0.3)"
    stroke="hsl(206,100%,53%)"
    stroke-width="3"
    transform="" />
  
  <path
    d="M 
      16.9230769230
      12.2222222222
      L
    
      68.4931506849
      25.3731343283
      L
    
      98.4375
      36.5217391304
      L
    
      98.4375
      95.8904109589
      L
    
      84.4155844155
      98.4375
      L
    
      26.0273972602
      98.4375
      L
    
      1.5625
      72.0588235294
      L
    
      1.5625
      23.2323232323
      z
    "
    fill="hsla(0,0%,50%,0.3)"
    stroke="hsla(0,0%,50%,1)"
    stroke-width="1"
    transform="translate(-14.9828457741,-51.9488399879) scale(1,-1) translate(50,-110)"
    />
  
  
  <line
    x1="68.4931506849315"
    y1="25.37313432835821"
    x2="96.14043915346559"
    y2="39.17899881671931"
    stroke="hsla(0,50%,50%,0.6)"
    stroke-width="1"
    transform="translate(-14.9828457741,-51.9488399879) scale(1,-1) translate(50,-110)"
    />
  
  <line
    x1="16.923076923076923"
    y1="12.222222222222221"
    x2="26.039421268216667"
    y2="31.117558586408265"
    stroke="hsla(0,50%,50%,0.6)"
    stroke-width="1"
    transform="translate(-14.9828457741,-51.9488399879) scale(1,-1) translate(50,-110)"
    />
  
  <line
    x1="27.476537516109016"
    y1="96.875"
    x2="27.594331072510368"
    y2="98.4375"
    stroke="hsla(0,50%,50%,0.6)"
    stroke-width="1"
    transform="translate(-14.9828457741,-51.9488399879) scale(1,-1) translate(50,-110)"
    />
  
  <line
    x1="68.4931506849315"
    y1="25.37313432835821"
    x2="98.4375"
    y2="36.52173913043478"
    stroke="hsla(0,50%,50%,0.6)"
    stroke-width="1"
    transform="translate(-14.9828457741,-51.9488399879) scale(1,-1) translate(50,-110)"
    />
  
  <line
    x1="1.5625"
    y1="23.232323232323232"
    x2="1.5625"
    y2="72.05882352941177"
    stroke="hsla(0,50%,50%,0.6)"
    stroke-width="1"
    transform="translate(-14.9828457741,-51.9488399879) scale(1,-1) translate(50,-110)"
    />
  
  <line
    x1="3.125"
    y1="24.35228655885933"
    x2="3.125"
    y2="73.7435508980495"
    stroke="hsla(0,50%,50%,0.6)"
    stroke-width="1"
    transform="translate(-14.9828457741,-51.9488399879) scale(1,-1) translate(50,-110)"
    />
  
  <line
    x1="96.875"
    y1="35.9400034974458"
    x2="96.875"
    y2="95.6065819340642"
    stroke="hsla(0,50%,50%,0.6)"
    stroke-width="1"
    transform="translate(-14.9828457741,-51.9488399879) scale(1,-1) translate(50,-110)"
    />
  
  <line
    x1="98.4375"
    y1="36.52173913043478"
    x2="98.4375"
    y2="95.89041095890411"
    stroke="hsla(0,50%,50%,0.6)"
    stroke-width="1"
    transform="translate(-14.9828457741,-51.9488399879) scale(1,-1) translate(50,-110)"
    />
  
  <line
    x1="29.424613826609857"
    y1="74.15928911436895"
    x2="27.594331072510368"
    y2="98.4375"
    stroke="hsla(0,50%,50%,0.6)"
    stroke-width="1"
    transform="translate(-14.9828457741,-51.9488399879) scale(1,-1) translate(50,-110)"
    />
  
  <line
    x1="28.80176429554997"
    y1="15.251412645587685"
    x2="26.039421268216667"
    y2="31.117558586408265"
    stroke="hsla(0,50%,50%,0.6)"
    stroke-width="1"
    transform="translate(-14.9828457741,-51.9488399879) scale(1,-1) translate(50,-110)"
    />
  
  <line
    x1="16.923076923076923"
    y1="12.222222222222221"
    x2="68.4931506849315"
    y2="25.37313432835821"
    stroke="hsla(0,50%,50%,0.6)"
    stroke-width="1"
    transform="translate(-14.9828457741,-51.9488399879) scale(1,-1) translate(50,-110)"
    />
  
  <line
    x1="28.80176429554997"
    y1="15.251412645587685"
    x2="23.06184382333031"
    y2="32.17438475008157"
    stroke="hsla(0,50%,50%,0.6)"
    stroke-width="1"
    transform="translate(-14.9828457741,-51.9488399879) scale(1,-1) translate(50,-110)"
    />
  
  <line
    x1="26.039421268216667"
    y1="31.117558586408265"
    x2="82.63004702626344"
    y2="61.98745070026646"
    stroke="hsla(0,50%,50%,0.6)"
    stroke-width="1"
    transform="translate(-14.9828457741,-51.9488399879) scale(1,-1) translate(50,-110)"
    />
  
  <line
    x1="1.5625"
    y1="23.232323232323232"
    x2="3.125"
    y2="24.35228655885933"
    stroke="hsla(0,50%,50%,0.6)"
    stroke-width="1"
    transform="translate(-14.9828457741,-51.9488399879) scale(1,-1) translate(50,-110)"
    />
  
  <line
    x1="16.923076923076923"
    y1="12.222222222222221"
    x2="1.5625"
    y2="23.232323232323232"
    stroke="hsla(0,50%,50%,0.6)"
    stroke-width="1"
    transform="translate(-14.9828457741,-51.9488399879) scale(1,-1) translate(50,-110)"
    />
  
  <line
    x1="95.36550771525535"
    y1="35.378003209600735"
    x2="94.69780008398526"
    y2="38.45860703140812"
    stroke="hsla(0,50%,50%,0.6)"
    stroke-width="1"
    transform="translate(-14.9828457741,-51.9488399879) scale(1,-1) translate(50,-110)"
    />
  
  <line
    x1="96.84490595297305"
    y1="35.92879915856809"
    x2="96.14043915346559"
    y2="39.17899881671931"
    stroke="hsla(0,50%,50%,0.6)"
    stroke-width="1"
    transform="translate(-14.9828457741,-51.9488399879) scale(1,-1) translate(50,-110)"
    />
  
  <line
    x1="1.5625"
    y1="24.882254089530942"
    x2="23.06184382333031"
    y2="32.17438475008157"
    stroke="hsla(0,50%,50%,0.6)"
    stroke-width="1"
    transform="translate(-14.9828457741,-51.9488399879) scale(1,-1) translate(50,-110)"
    />
  
  <line
    x1="3.125"
    y1="24.35228655885933"
    x2="1.5625"
    y2="24.882254089530942"
    stroke="hsla(0,50%,50%,0.6)"
    stroke-width="1"
    transform="translate(-14.9828457741,-51.9488399879) scale(1,-1) translate(50,-110)"
    />
  
  <line
    x1="1.5625"
    y1="72.05882352941177"
    x2="26.027397260273972"
    y2="98.4375"
    stroke="hsla(0,50%,50%,0.6)"
    stroke-width="1"
    transform="translate(-14.9828457741,-51.9488399879) scale(1,-1) translate(50,-110)"
    />
  
  <line
    x1="98.42014867823292"
    y1="91.49384101537673"
    x2="96.875"
    y2="95.6065819340642"
    stroke="hsla(0,50%,50%,0.6)"
    stroke-width="1"
    transform="translate(-14.9828457741,-51.9488399879) scale(1,-1) translate(50,-110)"
    />
  
  <line
    x1="98.42014867823292"
    y1="91.49384101537673"
    x2="98.4375"
    y2="91.500359872855"
    stroke="hsla(0,50%,50%,0.6)"
    stroke-width="1"
    transform="translate(-14.9828457741,-51.9488399879) scale(1,-1) translate(50,-110)"
    />
  
  <line
    x1="95.36550771525535"
    y1="35.378003209600735"
    x2="81.25835840670901"
    y2="61.23920169025385"
    stroke="hsla(0,50%,50%,0.6)"
    stroke-width="1"
    transform="translate(-14.9828457741,-51.9488399879) scale(1,-1) translate(50,-110)"
    />
  
  <line
    x1="96.84490595297305"
    y1="35.92879915856809"
    x2="82.63004702626344"
    y2="61.98745070026646"
    stroke="hsla(0,50%,50%,0.6)"
    stroke-width="1"
    transform="translate(-14.9828457741,-51.9488399879) scale(1,-1) translate(50,-110)"
    />
  
  <line
    x1="27.476537516109016"
    y1="96.875"
    x2="26.027397260273972"
    y2="98.4375"
    stroke="hsla(0,50%,50%,0.6)"
    stroke-width="1"
    transform="translate(-14.9828457741,-51.9488399879) scale(1,-1) translate(50,-110)"
    />
  
  <line
    x1="75.81390510749755"
    y1="96.875"
    x2="79.97283024912102"
    y2="98.4375"
    stroke="hsla(0,50%,50%,0.6)"
    stroke-width="1"
    transform="translate(-14.9828457741,-51.9488399879) scale(1,-1) translate(50,-110)"
    />
  
  <line
    x1="96.875"
    y1="35.9400034974458"
    x2="94.69780008398526"
    y2="38.45860703140812"
    stroke="hsla(0,50%,50%,0.6)"
    stroke-width="1"
    transform="translate(-14.9828457741,-51.9488399879) scale(1,-1) translate(50,-110)"
    />
  
  <line
    x1="98.4375"
    y1="36.52173913043478"
    x2="96.14043915346559"
    y2="39.17899881671931"
    stroke="hsla(0,50%,50%,0.6)"
    stroke-width="1"
    transform="translate(-14.9828457741,-51.9488399879) scale(1,-1) translate(50,-110)"
    />
  
  <line
    x1="1.5625"
    y1="72.05882352941177"
    x2="29.424613826609857"
    y2="74.15928911436895"
    stroke="hsla(0,50%,50%,0.6)"
    stroke-width="1"
    transform="translate(-14.9828457741,-51.9488399879) scale(1,-1) translate(50,-110)"
    />
  
  <line
    x1="3.125"
    y1="73.7435508980495"
    x2="29.307153580082645"
    y2="75.71736784809384"
    stroke="hsla(0,50%,50%,0.6)"
    stroke-width="1"
    transform="translate(-14.9828457741,-51.9488399879) scale(1,-1) translate(50,-110)"
    />
  
  <line
    x1="96.875"
    y1="95.6065819340642"
    x2="98.4375"
    y2="95.89041095890411"
    stroke="hsla(0,50%,50%,0.6)"
    stroke-width="1"
    transform="translate(-14.9828457741,-51.9488399879) scale(1,-1) translate(50,-110)"
    />
  
  <line
    x1="75.81390510749755"
    y1="96.875"
    x2="84.41558441558442"
    y2="98.4375"
    stroke="hsla(0,50%,50%,0.6)"
    stroke-width="1"
    transform="translate(-14.9828457741,-51.9488399879) scale(1,-1) translate(50,-110)"
    />
  
  <line
    x1="27.476537516109016"
    y1="96.875"
    x2="75.81390510749755"
    y2="96.875"
    stroke="hsla(0,50%,50%,0.6)"
    stroke-width="1"
    transform="translate(-14.9828457741,-51.9488399879) scale(1,-1) translate(50,-110)"
    />
  
  <line
    x1="26.027397260273972"
    y1="98.4375"
    x2="84.41558441558442"
    y2="98.4375"
    stroke="hsla(0,50%,50%,0.6)"
    stroke-width="1"
    transform="translate(-14.9828457741,-51.9488399879) scale(1,-1) translate(50,-110)"
    />
  
  <line
    x1="98.4375"
    y1="95.89041095890411"
    x2="84.41558441558442"
    y2="98.4375"
    stroke="hsla(0,50%,50%,0.6)"
    stroke-width="1"
    transform="translate(-14.9828457741,-51.9488399879) scale(1,-1) translate(50,-110)"
    />
  
  <line
    x1="98.4375"
    y1="91.500359872855"
    x2="79.97283024912102"
    y2="98.4375"
    stroke="hsla(0,50%,50%,0.6)"
    stroke-width="1"
    transform="translate(-14.9828457741,-51.9488399879) scale(1,-1) translate(50,-110)"
    />
  
</svg>
