<?xml version="1.0"?>
<!DOCTYPE svg PUBLIC "-//W3C//DTD SVG 1.1//EN"
  "http://www.w3.org/Graphics/SVG/1.1/DTD/svg11.dtd">
<svg
  width="240"
  height="240"
  viewBox="-50 -50 200 200" xmlns="http://www.w3.org/2000/svg" version="1.1">
  <rect
    x="0"
    y="0"
    width="100"
    height="100"
    fill="hsla(206,100%,53%,0.3)"
    stroke="hsl(206,100%,53%)"
    stroke-width="3"
    transform="" />
  
  <path
    d="M 
      76.6666666666
      80
      L
    
      88.3333333333
      81.6666666666
      L
    
      86.6666666666
      93.3333333333
      L
    
      73.3333333333
      103.3333333333
      L
    
      70
      126.6666666666
      L
    
      60
      113.3333333333
      L
    
      56.6666666666
      136.6666666666
      L
    
      36.6666666666
      110
      z
    "
    fill="hsla(0,0%,50%,0.3)"
    stroke="hsla(0,0%,50%,1)"
    stroke-width="1"
    transform="translate(-49.3098958333,-117.2005208333) scale(1,-1) translate(50,-110)"
    />
  
  
  <line
    x1="63.333333333333336"
    y1="90"
    x2="56.666666666666664"
    y2="136.66666666666666"
    stroke="hsla(0,50%,50%,0.6)"
    stroke-width="1"
    transform="translate(-49.3098958333,-117.2005208333) scale(1,-1) translate(50,-110)"
    />
  
  <line
    x1="50"
    y1="100"
    x2="70"
    y2="126.66666666666667"
    stroke="hsla(0,50%,50%,0.6)"
    stroke-width="1"
    transform="translate(-49.3098958333,-117.2005208333) scale(1,-1) translate(50,-110)"
    />
  
  <line
    x1="76.66666666666667"
    y1="80"
    x2="70"
    y2="126.66666666666667"
    stroke="hsla(0,50%,50%,0.6)"
    stroke-width="1"
    transform="translate(-49.3098958333,-117.2005208333) scale(1,-1) translate(50,-110)"
    />
  
  <line
    x1="88.33333333333333"
    y1="81.66666666666667"
    x2="86.66666666666667"
    y2="93.33333333333333"
    stroke="hsla(0,50%,50%,0.6)"
    stroke-width="1"
    transform="translate(-49.3098958333,-117.2005208333) scale(1,-1) translate(50,-110)"
    />
  
  <line
    x1="36.666666666666664"
    y1="110"
    x2="56.666666666666664"
    y2="136.66666666666666"
    stroke="hsla(0,50%,50%,0.6)"
    stroke-width="1"
    transform="translate(-49.3098958333,-117.2005208333) scale(1,-1) translate(50,-110)"
    />
  
  <line
    x1="76.66666666666667"
    y1="80"
    x2="88.33333333333333"
    y2="81.66666666666667"
    stroke="hsla(0,50%,50%,0.6)"
    stroke-width="1"
    transform="translate(-49.3098958333,-117.2005208333) scale(1,-1) translate(50,-110)"
    />
  
  <line
    x1="63.333333333333336"
    y1="90"
    x2="86.66666666666667"
    y2="93.33333333333333"
    stroke="hsla(0,50%,50%,0.6)"
    stroke-width="1"
    transform="translate(-49.3098958333,-117.2005208333) scale(1,-1) translate(50,-110)"
    />
  
  <line
    x1="76.66666666666667"
    y1="80"
    x2="36.666666666666664"
    y2="110"
    stroke="hsla(0,50%,50%,0.6)"
    stroke-width="1"
    transform="translate(-49.3098958333,-117.2005208333) scale(1,-1) translate(50,-110)"
    />
  
  <line
    x1="75"
    y1="91.66666666666667"
    x2="41.666666666666664"
    y2="116.66666666666667"
    stroke="hsla(0,50%,50%,0.6)"
    stroke-width="1"
    transform="translate(-49.3098958333,-117.2005208333) scale(1,-1) translate(50,-110)"
    />
  
  <line
    x1="86.66666666666667"
    y1="93.33333333333333"
    x2="46.666666666666664"
    y2="123.33333333333333"
    stroke="hsla(0,50%,50%,0.6)"
    stroke-width="1"
    transform="translate(-49.3098958333,-117.2005208333) scale(1,-1) translate(50,-110)"
    />
  
</svg>
