<?xml version="1.0"?>
<!DOCTYPE svg PUBLIC "-//W3C//DTD SVG 1.1//EN"
  "http://www.w3.org/Graphics/SVG/1.1/DTD/svg11.dtd">
<svg
  width="240"
  height="240"
  viewBox="-50 -50 200 200" xmlns="http://www.w3.org/2000/svg" version="1.1">
  <rect
    x="0"
    y="0"
    width="100"
    height="100"
    fill="hsla(206,100%,53%,0.3)"
    stroke="hsl(206,100%,53%)"
    stroke-width="3"
    transform="" />
  
  <path
    d="M 
      22.0588235294
      1.5625
      L
    
      69.7368421052
      1.5625
      L
    
      98.4375
      13.8461538461
      L
    
      98.4375
      45.9183673469
      L
    
      97.8494623655
      50.9259259259
      L
    
      83.0769230769
      90.1408450704
      L
    
      56.7901234567
      98.4375
      L
    
      29.3333333333
      98.4375
      L
    
      1.5625
      85.2272727272
      L
    
      1.5625
      12.8571428571
      z
    "
    fill="hsla(0,0%,50%,0.3)"
    stroke="hsla(0,0%,50%,1)"
    stroke-width="1"
    transform="translate(-13.8458289408,-50.2239671604) scale(1,-1) translate(50,-110)"
    />
  
  
  <line
    x1="96.875"
    y1="14.514891448093454"
    x2="98.4375"
    y2="16.005906955497323"
    stroke="hsla(0,50%,50%,0.6)"
    stroke-width="1"
    transform="translate(-13.8458289408,-50.2239671604) scale(1,-1) translate(50,-110)"
    />
  
  <line
    x1="67.57708899591968"
    y1="1.5625"
    x2="89.49902292556942"
    y2="24.535448031049306"
    stroke="hsla(0,50%,50%,0.6)"
    stroke-width="1"
    transform="translate(-13.8458289408,-50.2239671604) scale(1,-1) translate(50,-110)"
    />
  
  <line
    x1="97.07995544390602"
    y1="44.87424625310412"
    x2="98.29131554412609"
    y2="47.16323193262496"
    stroke="hsla(0,50%,50%,0.6)"
    stroke-width="1"
    transform="translate(-13.8458289408,-50.2239671604) scale(1,-1) translate(50,-110)"
    />
  
  <line
    x1="69.73684210526316"
    y1="1.5625"
    x2="98.4375"
    y2="13.846153846153847"
    stroke="hsla(0,50%,50%,0.6)"
    stroke-width="1"
    transform="translate(-13.8458289408,-50.2239671604) scale(1,-1) translate(50,-110)"
    />
  
  <line
    x1="96.875"
    y1="32.61256883705863"
    x2="98.4375"
    y2="39.17372589974368"
    stroke="hsla(0,50%,50%,0.6)"
    stroke-width="1"
    transform="translate(-13.8458289408,-50.2239671604) scale(1,-1) translate(50,-110)"
    />
  
  <line
    x1="75.75504465320577"
    y1="85.14156904927982"
    x2="76.17004767123916"
    y2="86.75886136844136"
    stroke="hsla(0,50%,50%,0.6)"
    stroke-width="1"
    transform="translate(-13.8458289408,-50.2239671604) scale(1,-1) translate(50,-110)"
    />
  
  <line
    x1="97.07995544390602"
    y1="44.87424625310412"
    x2="97.84946236559139"
    y2="50.925925925925924"
    stroke="hsla(0,50%,50%,0.6)"
    stroke-width="1"
    transform="translate(-13.8458289408,-50.2239671604) scale(1,-1) translate(50,-110)"
    />
  
  <line
    x1="96.875"
    y1="32.61256883705863"
    x2="98.4375"
    y2="45.91836734693877"
    stroke="hsla(0,50%,50%,0.6)"
    stroke-width="1"
    transform="translate(-13.8458289408,-50.2239671604) scale(1,-1) translate(50,-110)"
    />
  
  <line
    x1="1.5625"
    y1="12.857142857142858"
    x2="1.5625"
    y2="85.22727272727273"
    stroke="hsla(0,50%,50%,0.6)"
    stroke-width="1"
    transform="translate(-13.8458289408,-50.2239671604) scale(1,-1) translate(50,-110)"
    />
  
  <line
    x1="3.125"
    y1="11.996116271620757"
    x2="3.125"
    y2="84.48401162790698"
    stroke="hsla(0,50%,50%,0.6)"
    stroke-width="1"
    transform="translate(-13.8458289408,-50.2239671604) scale(1,-1) translate(50,-110)"
    />
  
  <line
    x1="96.875"
    y1="14.514891448093454"
    x2="96.875"
    y2="32.61256883705863"
    stroke="hsla(0,50%,50%,0.6)"
    stroke-width="1"
    transform="translate(-13.8458289408,-50.2239671604) scale(1,-1) translate(50,-110)"
    />
  
  <line
    x1="98.4375"
    y1="13.846153846153847"
    x2="98.4375"
    y2="45.91836734693877"
    stroke="hsla(0,50%,50%,0.6)"
    stroke-width="1"
    transform="translate(-13.8458289408,-50.2239671604) scale(1,-1) translate(50,-110)"
    />
  
  <line
    x1="22.058823529411764"
    y1="1.5625"
    x2="69.73684210526316"
    y2="1.5625"
    stroke="hsla(0,50%,50%,0.6)"
    stroke-width="1"
    transform="translate(-13.8458289408,-50.2239671604) scale(1,-1) translate(50,-110)"
    />
  
  <line
    x1="19.223363752615672"
    y1="3.125"
    x2="66.08607348851581"
    y2="3.125"
    stroke="hsla(0,50%,50%,0.6)"
    stroke-width="1"
    transform="translate(-13.8458289408,-50.2239671604) scale(1,-1) translate(50,-110)"
    />
  
  <line
    x1="3.125"
    y1="11.996116271620757"
    x2="11.945552181982649"
    y2="17.569105389531405"
    stroke="hsla(0,50%,50%,0.6)"
    stroke-width="1"
    transform="translate(-13.8458289408,-50.2239671604) scale(1,-1) translate(50,-110)"
    />
  
  <line
    x1="1.5625"
    y1="12.857142857142858"
    x2="11.110961828068596"
    y2="18.8900388440073"
    stroke="hsla(0,50%,50%,0.6)"
    stroke-width="1"
    transform="translate(-13.8458289408,-50.2239671604) scale(1,-1) translate(50,-110)"
    />
  
  <line
    x1="19.223363752615672"
    y1="3.125"
    x2="9.790028373592703"
    y2="18.055448490093244"
    stroke="hsla(0,50%,50%,0.6)"
    stroke-width="1"
    transform="translate(-13.8458289408,-50.2239671604) scale(1,-1) translate(50,-110)"
    />
  
  <line
    x1="22.058823529411764"
    y1="1.5625"
    x2="11.110961828068596"
    y2="18.8900388440073"
    stroke="hsla(0,50%,50%,0.6)"
    stroke-width="1"
    transform="translate(-13.8458289408,-50.2239671604) scale(1,-1) translate(50,-110)"
    />
  
  <line
    x1="22.058823529411764"
    y1="1.5625"
    x2="1.5625"
    y2="12.857142857142858"
    stroke="hsla(0,50%,50%,0.6)"
    stroke-width="1"
    transform="translate(-13.8458289408,-50.2239671604) scale(1,-1) translate(50,-110)"
    />
  
  <line
    x1="98.4375"
    y1="45.91836734693877"
    x2="97.84946236559139"
    y2="50.925925925925924"
    stroke="hsla(0,50%,50%,0.6)"
    stroke-width="1"
    transform="translate(-13.8458289408,-50.2239671604) scale(1,-1) translate(50,-110)"
    />
  
  <line
    x1="63.8550808232629"
    y1="86.38395156046052"
    x2="72.08517481980219"
    y2="93.61006702516636"
    stroke="hsla(0,50%,50%,0.6)"
    stroke-width="1"
    transform="translate(-13.8458289408,-50.2239671604) scale(1,-1) translate(50,-110)"
    />
  
  <line
    x1="73.81592849921903"
    y1="86.50104501133691"
    x2="72.08517481980219"
    y2="93.61006702516636"
    stroke="hsla(0,50%,50%,0.6)"
    stroke-width="1"
    transform="translate(-13.8458289408,-50.2239671604) scale(1,-1) translate(50,-110)"
    />
  
  <line
    x1="75.75504465320577"
    y1="85.14156904927982"
    x2="83.07692307692308"
    y2="90.14084507042253"
    stroke="hsla(0,50%,50%,0.6)"
    stroke-width="1"
    transform="translate(-13.8458289408,-50.2239671604) scale(1,-1) translate(50,-110)"
    />
  
  <line
    x1="12.037652540148859"
    y1="74.69417932670929"
    x2="31.34732499412732"
    y2="98.4375"
    stroke="hsla(0,50%,50%,0.6)"
    stroke-width="1"
    transform="translate(-13.8458289408,-50.2239671604) scale(1,-1) translate(50,-110)"
    />
  
  <line
    x1="98.4375"
    y1="39.17372589974368"
    x2="97.07995544390602"
    y2="44.87424625310412"
    stroke="hsla(0,50%,50%,0.6)"
    stroke-width="1"
    transform="translate(-13.8458289408,-50.2239671604) scale(1,-1) translate(50,-110)"
    />
  
  <line
    x1="69.73684210526316"
    y1="1.5625"
    x2="66.08607348851581"
    y2="3.125"
    stroke="hsla(0,50%,50%,0.6)"
    stroke-width="1"
    transform="translate(-13.8458289408,-50.2239671604) scale(1,-1) translate(50,-110)"
    />
  
  <line
    x1="67.57708899591968"
    y1="1.5625"
    x2="66.08607348851581"
    y2="3.125"
    stroke="hsla(0,50%,50%,0.6)"
    stroke-width="1"
    transform="translate(-13.8458289408,-50.2239671604) scale(1,-1) translate(50,-110)"
    />
  
  <line
    x1="97.84946236559139"
    y1="50.925925925925924"
    x2="83.07692307692308"
    y2="90.14084507042253"
    stroke="hsla(0,50%,50%,0.6)"
    stroke-width="1"
    transform="translate(-13.8458289408,-50.2239671604) scale(1,-1) translate(50,-110)"
    />
  
  <line
    x1="98.4375"
    y1="13.846153846153847"
    x2="96.875"
    y2="14.514891448093454"
    stroke="hsla(0,50%,50%,0.6)"
    stroke-width="1"
    transform="translate(-13.8458289408,-50.2239671604) scale(1,-1) translate(50,-110)"
    />
  
  <line
    x1="1.5625"
    y1="83.21328106647874"
    x2="3.125"
    y2="84.48401162790698"
    stroke="hsla(0,50%,50%,0.6)"
    stroke-width="1"
    transform="translate(-13.8458289408,-50.2239671604) scale(1,-1) translate(50,-110)"
    />
  
  <line
    x1="12.037652540148859"
    y1="74.69417932670929"
    x2="1.5625"
    y2="83.21328106647874"
    stroke="hsla(0,50%,50%,0.6)"
    stroke-width="1"
    transform="translate(-13.8458289408,-50.2239671604) scale(1,-1) translate(50,-110)"
    />
  
  <line
    x1="32.61805555555556"
    y1="96.875"
    x2="31.34732499412732"
    y2="98.4375"
    stroke="hsla(0,50%,50%,0.6)"
    stroke-width="1"
    transform="translate(-13.8458289408,-50.2239671604) scale(1,-1) translate(50,-110)"
    />
  
  <line
    x1="98.4375"
    y1="16.005906955497323"
    x2="89.49902292556942"
    y2="24.535448031049306"
    stroke="hsla(0,50%,50%,0.6)"
    stroke-width="1"
    transform="translate(-13.8458289408,-50.2239671604) scale(1,-1) translate(50,-110)"
    />
  
  <line
    x1="1.5625"
    y1="85.22727272727273"
    x2="29.333333333333332"
    y2="98.4375"
    stroke="hsla(0,50%,50%,0.6)"
    stroke-width="1"
    transform="translate(-13.8458289408,-50.2239671604) scale(1,-1) translate(50,-110)"
    />
  
  <line
    x1="98.29131554412609"
    y1="47.16323193262496"
    x2="63.8550808232629"
    y2="86.38395156046052"
    stroke="hsla(0,50%,50%,0.6)"
    stroke-width="1"
    transform="translate(-13.8458289408,-50.2239671604) scale(1,-1) translate(50,-110)"
    />
  
  <line
    x1="3.125"
    y1="84.48401162790698"
    x2="1.5625"
    y2="85.22727272727273"
    stroke="hsla(0,50%,50%,0.6)"
    stroke-width="1"
    transform="translate(-13.8458289408,-50.2239671604) scale(1,-1) translate(50,-110)"
    />
  
  <line
    x1="73.81592849921903"
    y1="86.50104501133691"
    x2="76.17004767123916"
    y2="86.75886136844136"
    stroke="hsla(0,50%,50%,0.6)"
    stroke-width="1"
    transform="translate(-13.8458289408,-50.2239671604) scale(1,-1) translate(50,-110)"
    />
  
  <line
    x1="32.61805555555556"
    y1="96.875"
    x2="29.333333333333332"
    y2="98.4375"
    stroke="hsla(0,50%,50%,0.6)"
    stroke-width="1"
    transform="translate(-13.8458289408,-50.2239671604) scale(1,-1) translate(50,-110)"
    />
  
  <line
    x1="75.75504465320577"
    y1="85.14156904927982"
    x2="56.79012345679013"
    y2="98.4375"
    stroke="hsla(0,50%,50%,0.6)"
    stroke-width="1"
    transform="translate(-13.8458289408,-50.2239671604) scale(1,-1) translate(50,-110)"
    />
  
  <line
    x1="76.17004767123916"
    y1="86.75886136844136"
    x2="61.7406878414836"
    y2="96.875"
    stroke="hsla(0,50%,50%,0.6)"
    stroke-width="1"
    transform="translate(-13.8458289408,-50.2239671604) scale(1,-1) translate(50,-110)"
    />
  
  <line
    x1="32.61805555555556"
    y1="96.875"
    x2="61.7406878414836"
    y2="96.875"
    stroke="hsla(0,50%,50%,0.6)"
    stroke-width="1"
    transform="translate(-13.8458289408,-50.2239671604) scale(1,-1) translate(50,-110)"
    />
  
  <line
    x1="29.333333333333332"
    y1="98.4375"
    x2="56.79012345679013"
    y2="98.4375"
    stroke="hsla(0,50%,50%,0.6)"
    stroke-width="1"
    transform="translate(-13.8458289408,-50.2239671604) scale(1,-1) translate(50,-110)"
    />
  
  <line
    x1="83.07692307692308"
    y1="90.14084507042253"
    x2="56.79012345679013"
    y2="98.4375"
    stroke="hsla(0,50%,50%,0.6)"
    stroke-width="1"
    transform="translate(-13.8458289408,-50.2239671604) scale(1,-1) translate(50,-110)"
    />
  
</svg>
