<?xml version="1.0"?>
<!DOCTYPE svg PUBLIC "-//W3C//DTD SVG 1.1//EN"
  "http://www.w3.org/Graphics/SVG/1.1/DTD/svg11.dtd">
<svg
  width="240"
  height="240"
  viewBox="-500 -500 1000 1000" xmlns="http://www.w3.org/2000/svg" version="1.1">
  <rect
    x="0"
    y="0"
    width="100"
    height="100"
    fill="hsla(206,100%,53%,0.3)"
    stroke="hsl(206,100%,53%)"
    stroke-width="3"
    transform="" />
  
  <path
    d="M 
      41.7910447761
      1.5625
      L
    
      57.6086956521
      1.5625
      L
    
      98.4375
      42.5742574257
      L
    
      94.8051948051
      70.2380952380
      L
    
      94.2028985507
      72.4637681159
      L
    
      70.5128205128
      98.4375
      L
    
      55.2238805970
      98.4375
      L
    
      21.8390804597
      84.5070422535
      L
    
      1.5625
      67.4698795180
      L
    
      1.5625
      20.6521739130
      L
    
      11.9402985074
      11.5942028985
      L
    
      31.0810810810
      3.3707865168
      z
    "
    fill="hsla(0,0%,50%,0.3)"
    stroke="hsla(0,0%,50%,1)"
    stroke-width="1"
    transform="translate(-50,-50)"
    />
  
  
  <line
    x1="57.608695652173914"
    y1="1.5625"
    x2="98.4375"
    y2="42.57425742574257"
    stroke="hsla(0,50%,50%,0.6)"
    stroke-width="1"
    transform="translate(-50,-50)"
    />
  
  <line
    x1="94.74207892278542"
    y1="50.351293401316106"
    x2="96.55004895041982"
    y2="56.9491892979365"
    stroke="hsla(0,50%,50%,0.6)"
    stroke-width="1"
    transform="translate(-50,-50)"
    />
  
  <line
    x1="38.04443172956628"
    y1="2.1950838302411553"
    x2="38.926906809277135"
    y2="3.125"
    stroke="hsla(0,50%,50%,0.6)"
    stroke-width="1"
    transform="translate(-50,-50)"
    />
  
  <line
    x1="36.614730652468374"
    y1="2.436476728897328"
    x2="37.68509022462542"
    y2="2.9896969468899868"
    stroke="hsla(0,50%,50%,0.6)"
    stroke-width="1"
    transform="translate(-50,-50)"
    />
  
  <line
    x1="37.12411728176245"
    y1="2.3504711176883117"
    x2="38.926906809277135"
    y2="3.125"
    stroke="hsla(0,50%,50%,0.6)"
    stroke-width="1"
    transform="translate(-50,-50)"
    />
  
  <line
    x1="70.50091314918242"
    y1="81.28212154594036"
    x2="77.37996478693057"
    y2="90.90838321534889"
    stroke="hsla(0,50%,50%,0.6)"
    stroke-width="1"
    transform="translate(-50,-50)"
    />
  
  <line
    x1="70.50091314918242"
    y1="81.28212154594036"
    x2="71.93794290568484"
    y2="96.875"
    stroke="hsla(0,50%,50%,0.6)"
    stroke-width="1"
    transform="translate(-50,-50)"
    />
  
  <line
    x1="68.98381018748817"
    y1="81.84656160778626"
    x2="70.51282051282051"
    y2="98.4375"
    stroke="hsla(0,50%,50%,0.6)"
    stroke-width="1"
    transform="translate(-50,-50)"
    />
  
  <line
    x1="68.98381018748817"
    y1="81.84656160778626"
    x2="76.30317218052816"
    y2="92.0889754619714"
    stroke="hsla(0,50%,50%,0.6)"
    stroke-width="1"
    transform="translate(-50,-50)"
    />
  
  <line
    x1="94.74207892278542"
    y1="50.351293401316106"
    x2="94.8051948051948"
    y2="70.23809523809524"
    stroke="hsla(0,50%,50%,0.6)"
    stroke-width="1"
    transform="translate(-50,-50)"
    />
  
  <line
    x1="1.5625"
    y1="20.652173913043477"
    x2="1.5625"
    y2="67.46987951807229"
    stroke="hsla(0,50%,50%,0.6)"
    stroke-width="1"
    transform="translate(-50,-50)"
    />
  
  <line
    x1="3.125"
    y1="22.01595831297834"
    x2="3.125"
    y2="66.1570069246409"
    stroke="hsla(0,50%,50%,0.6)"
    stroke-width="1"
    transform="translate(-50,-50)"
    />
  
  <line
    x1="57.608695652173914"
    y1="1.5625"
    x2="57.41916662935966"
    y2="43.95338065916454"
    stroke="hsla(0,50%,50%,0.6)"
    stroke-width="1"
    transform="translate(-50,-50)"
    />
  
  <line
    x1="59.16422535384515"
    y1="3.125"
    x2="58.981651012630145"
    y2="43.96036650455673"
    stroke="hsla(0,50%,50%,0.6)"
    stroke-width="1"
    transform="translate(-50,-50)"
    />
  
  <line
    x1="31.08108108108108"
    y1="3.3707865168539324"
    x2="35.65042039448279"
    y2="3.6969318987362367"
    stroke="hsla(0,50%,50%,0.6)"
    stroke-width="1"
    transform="translate(-50,-50)"
    />
  
  <line
    x1="41.791044776119406"
    y1="1.5625"
    x2="57.608695652173914"
    y2="1.5625"
    stroke="hsla(0,50%,50%,0.6)"
    stroke-width="1"
    transform="translate(-50,-50)"
    />
  
  <line
    x1="38.926906809277135"
    y1="3.125"
    x2="59.16422535384515"
    y2="3.125"
    stroke="hsla(0,50%,50%,0.6)"
    stroke-width="1"
    transform="translate(-50,-50)"
    />
  
  <line
    x1="2.904738576848339"
    y1="19.480638532501693"
    x2="5.243287092698945"
    y2="22.731370596186977"
    stroke="hsla(0,50%,50%,0.6)"
    stroke-width="1"
    transform="translate(-50,-50)"
    />
  
  <line
    x1="11.940298507462687"
    y1="11.594202898550725"
    x2="5.243287092698945"
    y2="22.731370596186977"
    stroke="hsla(0,50%,50%,0.6)"
    stroke-width="1"
    transform="translate(-50,-50)"
    />
  
  <line
    x1="41.791044776119406"
    y1="1.5625"
    x2="31.08108108108108"
    y2="3.3707865168539324"
    stroke="hsla(0,50%,50%,0.6)"
    stroke-width="1"
    transform="translate(-50,-50)"
    />
  
  <line
    x1="2.904738576848339"
    y1="19.480638532501693"
    x2="12.131111446048683"
    y2="28.23631393418998"
    stroke="hsla(0,50%,50%,0.6)"
    stroke-width="1"
    transform="translate(-50,-50)"
    />
  
  <line
    x1="1.5625"
    y1="20.652173913043477"
    x2="3.125"
    y2="22.01595831297834"
    stroke="hsla(0,50%,50%,0.6)"
    stroke-width="1"
    transform="translate(-50,-50)"
    />
  
  <line
    x1="11.940298507462687"
    y1="11.594202898550725"
    x2="1.5625"
    y2="20.652173913043477"
    stroke="hsla(0,50%,50%,0.6)"
    stroke-width="1"
    transform="translate(-50,-50)"
    />
  
  <line
    x1="98.4375"
    y1="42.57425742574257"
    x2="94.8051948051948"
    y2="70.23809523809524"
    stroke="hsla(0,50%,50%,0.6)"
    stroke-width="1"
    transform="translate(-50,-50)"
    />
  
  <line
    x1="31.08108108108108"
    y1="3.3707865168539324"
    x2="11.940298507462687"
    y2="11.594202898550725"
    stroke="hsla(0,50%,50%,0.6)"
    stroke-width="1"
    transform="translate(-50,-50)"
    />
  
  <line
    x1="41.791044776119406"
    y1="1.5625"
    x2="35.65042039448279"
    y2="3.6969318987362367"
    stroke="hsla(0,50%,50%,0.6)"
    stroke-width="1"
    transform="translate(-50,-50)"
    />
  
  <line
    x1="9.099053836709338"
    y1="64.56512803203562"
    x2="21.839080459770116"
    y2="84.50704225352112"
    stroke="hsla(0,50%,50%,0.6)"
    stroke-width="1"
    transform="translate(-50,-50)"
    />
  
  <line
    x1="38.04443172956628"
    y1="2.1950838302411553"
    x2="37.68509022462542"
    y2="2.9896969468899868"
    stroke="hsla(0,50%,50%,0.6)"
    stroke-width="1"
    transform="translate(-50,-50)"
    />
  
  <line
    x1="36.614730652468374"
    y1="2.436476728897328"
    x2="12.131111446048683"
    y2="28.23631393418998"
    stroke="hsla(0,50%,50%,0.6)"
    stroke-width="1"
    transform="translate(-50,-50)"
    />
  
  <line
    x1="37.12411728176245"
    y1="2.3504711176883117"
    x2="35.65042039448279"
    y2="3.6969318987362367"
    stroke="hsla(0,50%,50%,0.6)"
    stroke-width="1"
    transform="translate(-50,-50)"
    />
  
  <line
    x1="17.489315949407167"
    y1="58.08627913496455"
    x2="57.422163686725106"
    y2="98.4375"
    stroke="hsla(0,50%,50%,0.6)"
    stroke-width="1"
    transform="translate(-50,-50)"
    />
  
  <line
    x1="1.5625"
    y1="22.229151234279566"
    x2="5.243287092698945"
    y2="22.731370596186977"
    stroke="hsla(0,50%,50%,0.6)"
    stroke-width="1"
    transform="translate(-50,-50)"
    />
  
  <line
    x1="3.125"
    y1="22.01595831297834"
    x2="1.5625"
    y2="22.229151234279566"
    stroke="hsla(0,50%,50%,0.6)"
    stroke-width="1"
    transform="translate(-50,-50)"
    />
  
  <line
    x1="9.099053836709338"
    y1="64.56512803203562"
    x2="5.048037845756875"
    y2="70.39856246915204"
    stroke="hsla(0,50%,50%,0.6)"
    stroke-width="1"
    transform="translate(-50,-50)"
    />
  
  <line
    x1="97.16242019618554"
    y1="41.29346401413519"
    x2="94.74207892278542"
    y2="50.351293401316106"
    stroke="hsla(0,50%,50%,0.6)"
    stroke-width="1"
    transform="translate(-50,-50)"
    />
  
  <line
    x1="94.8051948051948"
    y1="70.23809523809524"
    x2="94.20289855072464"
    y2="72.46376811594203"
    stroke="hsla(0,50%,50%,0.6)"
    stroke-width="1"
    transform="translate(-50,-50)"
    />
  
  <line
    x1="76.88643819090734"
    y1="90.62016720599607"
    x2="77.37996478693057"
    y2="90.90838321534889"
    stroke="hsla(0,50%,50%,0.6)"
    stroke-width="1"
    transform="translate(-50,-50)"
    />
  
  <line
    x1="76.09847585650645"
    y1="91.96943426983684"
    x2="76.30317218052816"
    y2="92.0889754619714"
    stroke="hsla(0,50%,50%,0.6)"
    stroke-width="1"
    transform="translate(-50,-50)"
    />
  
  <line
    x1="17.489315949407167"
    y1="58.08627913496455"
    x2="5.048037845756875"
    y2="70.39856246915204"
    stroke="hsla(0,50%,50%,0.6)"
    stroke-width="1"
    transform="translate(-50,-50)"
    />
  
  <line
    x1="1.5625"
    y1="67.46987951807229"
    x2="21.839080459770116"
    y2="84.50704225352112"
    stroke="hsla(0,50%,50%,0.6)"
    stroke-width="1"
    transform="translate(-50,-50)"
    />
  
  <line
    x1="3.125"
    y1="66.1570069246409"
    x2="1.5625"
    y2="67.46987951807229"
    stroke="hsla(0,50%,50%,0.6)"
    stroke-width="1"
    transform="translate(-50,-50)"
    />
  
  <line
    x1="57.41916662935966"
    y1="43.95338065916454"
    x2="86.53054643577552"
    y2="44.08353722306909"
    stroke="hsla(0,50%,50%,0.6)"
    stroke-width="1"
    transform="translate(-50,-50)"
    />
  
  <line
    x1="98.4375"
    y1="42.57425742574257"
    x2="86.53054643577552"
    y2="44.08353722306909"
    stroke="hsla(0,50%,50%,0.6)"
    stroke-width="1"
    transform="translate(-50,-50)"
    />
  
  <line
    x1="96.55004895041982"
    y1="56.9491892979365"
    x2="76.09847585650645"
    y2="91.96943426983684"
    stroke="hsla(0,50%,50%,0.6)"
    stroke-width="1"
    transform="translate(-50,-50)"
    />
  
  <line
    x1="97.16242019618554"
    y1="41.29346401413519"
    x2="86.53054643577552"
    y2="44.08353722306909"
    stroke="hsla(0,50%,50%,0.6)"
    stroke-width="1"
    transform="translate(-50,-50)"
    />
  
  <line
    x1="1.5625"
    y1="65.88364764857408"
    x2="3.125"
    y2="66.1570069246409"
    stroke="hsla(0,50%,50%,0.6)"
    stroke-width="1"
    transform="translate(-50,-50)"
    />
  
  <line
    x1="9.099053836709338"
    y1="64.56512803203562"
    x2="1.5625"
    y2="65.88364764857408"
    stroke="hsla(0,50%,50%,0.6)"
    stroke-width="1"
    transform="translate(-50,-50)"
    />
  
  <line
    x1="21.839080459770116"
    y1="84.50704225352112"
    x2="55.223880597014926"
    y2="98.4375"
    stroke="hsla(0,50%,50%,0.6)"
    stroke-width="1"
    transform="translate(-50,-50)"
    />
  
  <line
    x1="58.96846323484175"
    y1="96.875"
    x2="57.422163686725106"
    y2="98.4375"
    stroke="hsla(0,50%,50%,0.6)"
    stroke-width="1"
    transform="translate(-50,-50)"
    />
  
  <line
    x1="94.20289855072464"
    y1="72.46376811594203"
    x2="70.51282051282051"
    y2="98.4375"
    stroke="hsla(0,50%,50%,0.6)"
    stroke-width="1"
    transform="translate(-50,-50)"
    />
  
  <line
    x1="94.20289855072464"
    y1="72.46376811594203"
    x2="68.98381018748817"
    y2="81.84656160778626"
    stroke="hsla(0,50%,50%,0.6)"
    stroke-width="1"
    transform="translate(-50,-50)"
    />
  
  <line
    x1="58.96846323484175"
    y1="96.875"
    x2="71.93794290568484"
    y2="96.875"
    stroke="hsla(0,50%,50%,0.6)"
    stroke-width="1"
    transform="translate(-50,-50)"
    />
  
  <line
    x1="55.223880597014926"
    y1="98.4375"
    x2="70.51282051282051"
    y2="98.4375"
    stroke="hsla(0,50%,50%,0.6)"
    stroke-width="1"
    transform="translate(-50,-50)"
    />
  
  <line
    x1="58.96846323484175"
    y1="96.875"
    x2="55.223880597014926"
    y2="98.4375"
    stroke="hsla(0,50%,50%,0.6)"
    stroke-width="1"
    transform="translate(-50,-50)"
    />
  
</svg>
