<?xml version="1.0"?>
<!DOCTYPE svg PUBLIC "-//W3C//DTD SVG 1.1//EN"
  "http://www.w3.org/Graphics/SVG/1.1/DTD/svg11.dtd">
<svg
  width="240"
  height="240"
  viewBox="-500 -500 1000 1000" xmlns="http://www.w3.org/2000/svg" version="1.1">
  <rect
    x="0"
    y="0"
    width="100"
    height="100"
    fill="hsla(206,100%,53%,0.3)"
    stroke="hsl(206,100%,53%)"
    stroke-width="3"
    transform="" />
  
  <path
    d="M 
      39.7058823529
      18.3098591549
      L
    
      60.2941176470
      18.3098591549
      L
    
      77.0270270270
      30.3797468354
      L
    
      83.0769230769
      50
      L
    
      77.0270270270
      69.6202531645
      L
    
      60.2941176470
      81.6901408450
      L
    
      39.7058823529
      81.6901408450
      L
    
      22.9729729729
      69.6202531645
      L
    
      16.9230769230
      50
      L
    
      22.9729729729
      30.3797468354
      z
    "
    fill="hsla(0,0%,50%,0.3)"
    stroke="hsla(0,0%,50%,1)"
    stroke-width="1"
    transform="translate(-50,-50)"
    />
  
  
  <line
    x1="77.02702702702703"
    y1="30.379746835443036"
    x2="83.07692307692308"
    y2="50"
    stroke="hsla(0,50%,50%,0.6)"
    stroke-width="1"
    transform="translate(-50,-50)"
    />
  
  <line
    x1="72.86845433607296"
    y1="58.145998006500406"
    x2="77.02702702702703"
    y2="69.62025316455696"
    stroke="hsla(0,50%,50%,0.6)"
    stroke-width="1"
    transform="translate(-50,-50)"
    />
  
  <line
    x1="60.294117647058826"
    y1="18.309859154929576"
    x2="77.02702702702703"
    y2="30.379746835443036"
    stroke="hsla(0,50%,50%,0.6)"
    stroke-width="1"
    transform="translate(-50,-50)"
    />
  
  <line
    x1="73.8099142769453"
    y1="58.12537190347948"
    x2="77.31811856604473"
    y2="68.6762221196457"
    stroke="hsla(0,50%,50%,0.6)"
    stroke-width="1"
    transform="translate(-50,-50)"
    />
  
  <line
    x1="52.32865147639836"
    y1="18.309859154929576"
    x2="55.567423049197664"
    y2="28.637395263026992"
    stroke="hsla(0,50%,50%,0.6)"
    stroke-width="1"
    transform="translate(-50,-50)"
    />
  
  <line
    x1="41.00097080204199"
    y1="18.309859154929576"
    x2="76.31753433054331"
    y2="70.13202890912383"
    stroke="hsla(0,50%,50%,0.6)"
    stroke-width="1"
    transform="translate(-50,-50)"
    />
  
  <line
    x1="48.87568165388007"
    y1="18.309859154929576"
    x2="50.82005270056249"
    y2="25.143751407940623"
    stroke="hsla(0,50%,50%,0.6)"
    stroke-width="1"
    transform="translate(-50,-50)"
    />
  
  <line
    x1="64.87944987736216"
    y1="55.13562752397606"
    x2="76.31753433054331"
    y2="70.13202890912383"
    stroke="hsla(0,50%,50%,0.6)"
    stroke-width="1"
    transform="translate(-50,-50)"
    />
  
  <line
    x1="40.998625588783895"
    y1="18.309859154929576"
    x2="45.24345093708718"
    y2="31.076081630311847"
    stroke="hsla(0,50%,50%,0.6)"
    stroke-width="1"
    transform="translate(-50,-50)"
    />
  
  <line
    x1="41.75447549894666"
    y1="18.309859154929576"
    x2="55.567423049197664"
    y2="28.637395263026992"
    stroke="hsla(0,50%,50%,0.6)"
    stroke-width="1"
    transform="translate(-50,-50)"
    />
  
  <line
    x1="39.705882352941174"
    y1="18.309859154929576"
    x2="50"
    y2="25.735276991635008"
    stroke="hsla(0,50%,50%,0.6)"
    stroke-width="1"
    transform="translate(-50,-50)"
    />
  
  <line
    x1="40.934780078982534"
    y1="18.406984881326252"
    x2="50.82005270056249"
    y2="25.143751407940623"
    stroke="hsla(0,50%,50%,0.6)"
    stroke-width="1"
    transform="translate(-50,-50)"
    />
  
  <line
    x1="22.972972972972972"
    y1="30.379746835443036"
    x2="27.13154566392704"
    y2="41.85400199349959"
    stroke="hsla(0,50%,50%,0.6)"
    stroke-width="1"
    transform="translate(-50,-50)"
    />
  
  <line
    x1="35.600602675372784"
    y1="69.34359902363784"
    x2="39.705882352941174"
    y2="81.69014084507042"
    stroke="hsla(0,50%,50%,0.6)"
    stroke-width="1"
    transform="translate(-50,-50)"
    />
  
  <line
    x1="23.682465669456683"
    y1="29.86797109087618"
    x2="58.99902919795801"
    y2="81.69014084507042"
    stroke="hsla(0,50%,50%,0.6)"
    stroke-width="1"
    transform="translate(-50,-50)"
    />
  
  <line
    x1="23.682465669456683"
    y1="29.86797109087618"
    x2="46.22464191439451"
    y2="59.422878160111175"
    stroke="hsla(0,50%,50%,0.6)"
    stroke-width="1"
    transform="translate(-50,-50)"
    />
  
  <line
    x1="16.923076923076923"
    y1="50"
    x2="22.972972972972972"
    y2="69.62025316455696"
    stroke="hsla(0,50%,50%,0.6)"
    stroke-width="1"
    transform="translate(-50,-50)"
    />
  
  <line
    x1="70.56568857567657"
    y1="50.79860847641432"
    x2="80.61745685831988"
    y2="57.97622793196577"
    stroke="hsla(0,50%,50%,0.6)"
    stroke-width="1"
    transform="translate(-50,-50)"
    />
  
  <line
    x1="73.39258374391963"
    y1="59.59216596084585"
    x2="78.9511193645678"
    y2="63.38028169014085"
    stroke="hsla(0,50%,50%,0.6)"
    stroke-width="1"
    transform="translate(-50,-50)"
    />
  
  <line
    x1="22.972972972972972"
    y1="30.379746835443036"
    x2="16.923076923076923"
    y2="50"
    stroke="hsla(0,50%,50%,0.6)"
    stroke-width="1"
    transform="translate(-50,-50)"
    />
  
  <line
    x1="40.998625588783895"
    y1="18.309859154929576"
    x2="40.748548242052834"
    y2="19.06196148717231"
    stroke="hsla(0,50%,50%,0.6)"
    stroke-width="1"
    transform="translate(-50,-50)"
    />
  
  <line
    x1="48.87568165388007"
    y1="18.309859154929576"
    x2="45.24345093708718"
    y2="31.076081630311847"
    stroke="hsla(0,50%,50%,0.6)"
    stroke-width="1"
    transform="translate(-50,-50)"
    />
  
  <line
    x1="32.34055395345718"
    y1="63.38028169014085"
    x2="29.062111550001394"
    y2="74.0125089897035"
    stroke="hsla(0,50%,50%,0.6)"
    stroke-width="1"
    transform="translate(-50,-50)"
    />
  
  <line
    x1="52.32865147639836"
    y1="18.309859154929576"
    x2="50"
    y2="25.735276991635008"
    stroke="hsla(0,50%,50%,0.6)"
    stroke-width="1"
    transform="translate(-50,-50)"
    />
  
  <line
    x1="39.705882352941174"
    y1="18.309859154929576"
    x2="60.294117647058826"
    y2="18.309859154929576"
    stroke="hsla(0,50%,50%,0.6)"
    stroke-width="1"
    transform="translate(-50,-50)"
    />
  
  <line
    x1="19.382543141680113"
    y1="42.02377206803423"
    x2="45.02751175570161"
    y2="60.33595560482007"
    stroke="hsla(0,50%,50%,0.6)"
    stroke-width="1"
    transform="translate(-50,-50)"
    />
  
  <line
    x1="55.567423049197664"
    y1="28.637395263026992"
    x2="45.02751175570161"
    y2="60.33595560482007"
    stroke="hsla(0,50%,50%,0.6)"
    stroke-width="1"
    transform="translate(-50,-50)"
    />
  
  <line
    x1="73.8099142769453"
    y1="58.12537190347948"
    x2="73.39258374391963"
    y2="59.59216596084585"
    stroke="hsla(0,50%,50%,0.6)"
    stroke-width="1"
    transform="translate(-50,-50)"
    />
  
  <line
    x1="41.00097080204199"
    y1="18.309859154929576"
    x2="40.934780078982534"
    y2="18.406984881326252"
    stroke="hsla(0,50%,50%,0.6)"
    stroke-width="1"
    transform="translate(-50,-50)"
    />
  
  <line
    x1="70.56568857567657"
    y1="50.79860847641432"
    x2="60.294117647058826"
    y2="81.69014084507042"
    stroke="hsla(0,50%,50%,0.6)"
    stroke-width="1"
    transform="translate(-50,-50)"
    />
  
  <line
    x1="83.07692307692308"
    y1="50"
    x2="77.02702702702703"
    y2="69.62025316455696"
    stroke="hsla(0,50%,50%,0.6)"
    stroke-width="1"
    transform="translate(-50,-50)"
    />
  
  <line
    x1="32.34055395345718"
    y1="63.38028169014085"
    x2="59.065219921017466"
    y2="81.59301511867375"
    stroke="hsla(0,50%,50%,0.6)"
    stroke-width="1"
    transform="translate(-50,-50)"
    />
  
  <line
    x1="39.705882352941174"
    y1="18.309859154929576"
    x2="22.972972972972972"
    y2="30.379746835443036"
    stroke="hsla(0,50%,50%,0.6)"
    stroke-width="1"
    transform="translate(-50,-50)"
    />
  
  <line
    x1="41.75447549894666"
    y1="18.309859154929576"
    x2="40.748548242052834"
    y2="19.06196148717231"
    stroke="hsla(0,50%,50%,0.6)"
    stroke-width="1"
    transform="translate(-50,-50)"
    />
  
  <line
    x1="77.02702702702703"
    y1="30.379746835443036"
    x2="45.24345093708718"
    y2="31.076081630311847"
    stroke="hsla(0,50%,50%,0.6)"
    stroke-width="1"
    transform="translate(-50,-50)"
    />
  
  <line
    x1="22.972972972972972"
    y1="69.62025316455696"
    x2="39.705882352941174"
    y2="81.69014084507042"
    stroke="hsla(0,50%,50%,0.6)"
    stroke-width="1"
    transform="translate(-50,-50)"
    />
  
  <line
    x1="27.13154566392704"
    y1="41.85400199349959"
    x2="16.923076923076923"
    y2="50"
    stroke="hsla(0,50%,50%,0.6)"
    stroke-width="1"
    transform="translate(-50,-50)"
    />
  
  <line
    x1="60.294117647058826"
    y1="18.309859154929576"
    x2="50"
    y2="25.735276991635008"
    stroke="hsla(0,50%,50%,0.6)"
    stroke-width="1"
    transform="translate(-50,-50)"
    />
  
  <line
    x1="27.13154566392704"
    y1="41.85400199349959"
    x2="19.382543141680113"
    y2="42.02377206803423"
    stroke="hsla(0,50%,50%,0.6)"
    stroke-width="1"
    transform="translate(-50,-50)"
    />
  
  <line
    x1="59.065219921017466"
    y1="81.59301511867375"
    x2="58.99902919795801"
    y2="81.69014084507042"
    stroke="hsla(0,50%,50%,0.6)"
    stroke-width="1"
    transform="translate(-50,-50)"
    />
  
  <line
    x1="80.61745685831988"
    y1="57.97622793196577"
    x2="72.86845433607296"
    y2="58.145998006500406"
    stroke="hsla(0,50%,50%,0.6)"
    stroke-width="1"
    transform="translate(-50,-50)"
    />
  
  <line
    x1="46.22464191439451"
    y1="59.422878160111175"
    x2="45.02751175570161"
    y2="60.33595560482007"
    stroke="hsla(0,50%,50%,0.6)"
    stroke-width="1"
    transform="translate(-50,-50)"
    />
  
  <line
    x1="35.600602675372784"
    y1="69.34359902363784"
    x2="29.062111550001394"
    y2="74.0125089897035"
    stroke="hsla(0,50%,50%,0.6)"
    stroke-width="1"
    transform="translate(-50,-50)"
    />
  
  <line
    x1="32.34055395345718"
    y1="63.38028169014085"
    x2="78.9511193645678"
    y2="63.38028169014085"
    stroke="hsla(0,50%,50%,0.6)"
    stroke-width="1"
    transform="translate(-50,-50)"
    />
  
  <line
    x1="70.56568857567657"
    y1="50.79860847641432"
    x2="64.87944987736216"
    y2="55.13562752397606"
    stroke="hsla(0,50%,50%,0.6)"
    stroke-width="1"
    transform="translate(-50,-50)"
    />
  
  <line
    x1="35.600602675372784"
    y1="69.34359902363784"
    x2="22.972972972972972"
    y2="69.62025316455696"
    stroke="hsla(0,50%,50%,0.6)"
    stroke-width="1"
    transform="translate(-50,-50)"
    />
  
  <line
    x1="83.07692307692308"
    y1="50"
    x2="72.86845433607296"
    y2="58.145998006500406"
    stroke="hsla(0,50%,50%,0.6)"
    stroke-width="1"
    transform="translate(-50,-50)"
    />
  
  <line
    x1="77.31811856604473"
    y1="68.6762221196457"
    x2="75.98354166911884"
    y2="69.69413320806329"
    stroke="hsla(0,50%,50%,0.6)"
    stroke-width="1"
    transform="translate(-50,-50)"
    />
  
  <line
    x1="39.705882352941174"
    y1="81.69014084507042"
    x2="60.294117647058826"
    y2="81.69014084507042"
    stroke="hsla(0,50%,50%,0.6)"
    stroke-width="1"
    transform="translate(-50,-50)"
    />
  
  <line
    x1="77.02702702702703"
    y1="69.62025316455696"
    x2="60.294117647058826"
    y2="81.69014084507042"
    stroke="hsla(0,50%,50%,0.6)"
    stroke-width="1"
    transform="translate(-50,-50)"
    />
  
</svg>
