<?xml version="1.0"?>
<!DOCTYPE svg PUBLIC "-//W3C//DTD SVG 1.1//EN"
  "http://www.w3.org/Graphics/SVG/1.1/DTD/svg11.dtd">
<svg
  width="240"
  height="240"
  viewBox="-50 -50 200 200" xmlns="http://www.w3.org/2000/svg" version="1.1">
  <rect
    x="0"
    y="0"
    width="100"
    height="100"
    fill="hsla(206,100%,53%,0.3)"
    stroke="hsl(206,100%,53%)"
    stroke-width="3"
    transform="" />
  
  <path
    d="M 
      43.75
      43.75
      L
    
      56.25
      43.75
      L
    
      81.25
      68.75
      L
    
      81.25
      87.5
      L
    
      62.5
      87.5
      L
    
      56.25
      93.75
      L
    
      43.75
      93.75
      L
    
      37.5
      87.5
      L
    
      18.75
      87.5
      L
    
      18.75
      68.75
      z
    "
    fill="hsla(0,0%,50%,0.3)"
    stroke="hsla(0,0%,50%,1)"
    stroke-width="1"
    transform="translate(-25.3662109375,-78.466796875) scale(1,-1) translate(50,-110)"
    />
  
  
  <line
    x1="56.25"
    y1="43.75"
    x2="81.25"
    y2="68.75"
    stroke="hsla(0,50%,50%,0.6)"
    stroke-width="1"
    transform="translate(-25.3662109375,-78.466796875) scale(1,-1) translate(50,-110)"
    />
  
  <line
    x1="43.75"
    y1="43.75"
    x2="50"
    y2="50"
    stroke="hsla(0,50%,50%,0.6)"
    stroke-width="1"
    transform="translate(-25.3662109375,-78.466796875) scale(1,-1) translate(50,-110)"
    />
  
  <line
    x1="18.75"
    y1="68.75"
    x2="18.75"
    y2="87.5"
    stroke="hsla(0,50%,50%,0.6)"
    stroke-width="1"
    transform="translate(-25.3662109375,-78.466796875) scale(1,-1) translate(50,-110)"
    />
  
  <line
    x1="25"
    y1="75"
    x2="25"
    y2="87.5"
    stroke="hsla(0,50%,50%,0.6)"
    stroke-width="1"
    transform="translate(-25.3662109375,-78.466796875) scale(1,-1) translate(50,-110)"
    />
  
  <line
    x1="37.5"
    y1="50"
    x2="37.5"
    y2="87.5"
    stroke="hsla(0,50%,50%,0.6)"
    stroke-width="1"
    transform="translate(-25.3662109375,-78.466796875) scale(1,-1) translate(50,-110)"
    />
  
  <line
    x1="50"
    y1="50"
    x2="50"
    y2="93.75"
    stroke="hsla(0,50%,50%,0.6)"
    stroke-width="1"
    transform="translate(-25.3662109375,-78.466796875) scale(1,-1) translate(50,-110)"
    />
  
  <line
    x1="62.5"
    y1="50"
    x2="62.5"
    y2="87.5"
    stroke="hsla(0,50%,50%,0.6)"
    stroke-width="1"
    transform="translate(-25.3662109375,-78.466796875) scale(1,-1) translate(50,-110)"
    />
  
  <line
    x1="75"
    y1="75"
    x2="75"
    y2="87.5"
    stroke="hsla(0,50%,50%,0.6)"
    stroke-width="1"
    transform="translate(-25.3662109375,-78.466796875) scale(1,-1) translate(50,-110)"
    />
  
  <line
    x1="81.25"
    y1="68.75"
    x2="81.25"
    y2="87.5"
    stroke="hsla(0,50%,50%,0.6)"
    stroke-width="1"
    transform="translate(-25.3662109375,-78.466796875) scale(1,-1) translate(50,-110)"
    />
  
  <line
    x1="50"
    y1="87.5"
    x2="56.25"
    y2="93.75"
    stroke="hsla(0,50%,50%,0.6)"
    stroke-width="1"
    transform="translate(-25.3662109375,-78.466796875) scale(1,-1) translate(50,-110)"
    />
  
  <line
    x1="18.75"
    y1="68.75"
    x2="43.75"
    y2="93.75"
    stroke="hsla(0,50%,50%,0.6)"
    stroke-width="1"
    transform="translate(-25.3662109375,-78.466796875) scale(1,-1) translate(50,-110)"
    />
  
  <line
    x1="43.75"
    y1="43.75"
    x2="56.25"
    y2="43.75"
    stroke="hsla(0,50%,50%,0.6)"
    stroke-width="1"
    transform="translate(-25.3662109375,-78.466796875) scale(1,-1) translate(50,-110)"
    />
  
  <line
    x1="43.75"
    y1="43.75"
    x2="18.75"
    y2="68.75"
    stroke="hsla(0,50%,50%,0.6)"
    stroke-width="1"
    transform="translate(-25.3662109375,-78.466796875) scale(1,-1) translate(50,-110)"
    />
  
  <line
    x1="37.5"
    y1="50"
    x2="62.5"
    y2="50"
    stroke="hsla(0,50%,50%,0.6)"
    stroke-width="1"
    transform="translate(-25.3662109375,-78.466796875) scale(1,-1) translate(50,-110)"
    />
  
  <line
    x1="56.25"
    y1="43.75"
    x2="50"
    y2="50"
    stroke="hsla(0,50%,50%,0.6)"
    stroke-width="1"
    transform="translate(-25.3662109375,-78.466796875) scale(1,-1) translate(50,-110)"
    />
  
  <line
    x1="50"
    y1="87.5"
    x2="43.75"
    y2="93.75"
    stroke="hsla(0,50%,50%,0.6)"
    stroke-width="1"
    transform="translate(-25.3662109375,-78.466796875) scale(1,-1) translate(50,-110)"
    />
  
  <line
    x1="18.75"
    y1="75"
    x2="81.25"
    y2="75"
    stroke="hsla(0,50%,50%,0.6)"
    stroke-width="1"
    transform="translate(-25.3662109375,-78.466796875) scale(1,-1) translate(50,-110)"
    />
  
  <line
    x1="81.25"
    y1="68.75"
    x2="56.25"
    y2="93.75"
    stroke="hsla(0,50%,50%,0.6)"
    stroke-width="1"
    transform="translate(-25.3662109375,-78.466796875) scale(1,-1) translate(50,-110)"
    />
  
  <line
    x1="18.75"
    y1="87.5"
    x2="81.25"
    y2="87.5"
    stroke="hsla(0,50%,50%,0.6)"
    stroke-width="1"
    transform="translate(-25.3662109375,-78.466796875) scale(1,-1) translate(50,-110)"
    />
  
  <line
    x1="43.75"
    y1="93.75"
    x2="56.25"
    y2="93.75"
    stroke="hsla(0,50%,50%,0.6)"
    stroke-width="1"
    transform="translate(-25.3662109375,-78.466796875) scale(1,-1) translate(50,-110)"
    />
  
</svg>
