<?xml version="1.0"?>
<!DOCTYPE svg PUBLIC "-//W3C//DTD SVG 1.1//EN"
  "http://www.w3.org/Graphics/SVG/1.1/DTD/svg11.dtd">
<svg
  width="240"
  height="240"
  viewBox="-50 -50 200 200" xmlns="http://www.w3.org/2000/svg" version="1.1">
  <rect
    x="0"
    y="0"
    width="100"
    height="100"
    fill="hsla(206,100%,53%,0.3)"
    stroke="hsl(206,100%,53%)"
    stroke-width="3"
    transform="" />
  
  <path
    d="M 
      97.4026041438
      -1.3888623451
      L
    
      98.1627699313
      -1.1042040410
      L
    
      97.7528857075
      -0.0096286879
      L
    
      97.7553310886
      0
      L
    
      97.7436617462
      0.0150034402
      L
    
      95.0632618644
      7.1728774867
      L
    
      93.7830850487
      18.8070712035
      L
    
      86.7276964167
      22.3871759824
      L
    
      107.7713110033
      70.4801999295
      L
    
      16.1576178415
      110.5667466161
      L
    
      11.5340253748
      100
      L
    
      50.1544571139
      40.9454773936
      z
    "
    fill="hsla(0,0%,50%,0.3)"
    stroke="hsla(0,0%,50%,1)"
    stroke-width="1"
    transform="translate(-42.3981192863,-64.7469242483) scale(1,-1) translate(50,-110)"
    />
  
  
  <line
    x1="97.40260414386223"
    y1="-1.3888623451586242"
    x2="98.16276993132355"
    y2="-1.1042040410861547"
    stroke="hsla(0,50%,50%,0.6)"
    stroke-width="1"
    transform="translate(-42.3981192863,-64.7469242483) scale(1,-1) translate(50,-110)"
    />
  
  <line
    x1="82.26069062737925"
    y1="12.178292165610127"
    x2="107.77131100339366"
    y2="70.48019992955503"
    stroke="hsla(0,50%,50%,0.6)"
    stroke-width="1"
    transform="translate(-42.3981192863,-64.7469242483) scale(1,-1) translate(50,-110)"
    />
  
  <line
    x1="82.26069062737925"
    y1="12.178292165610127"
    x2="93.78308504870292"
    y2="18.80707120358769"
    stroke="hsla(0,50%,50%,0.6)"
    stroke-width="1"
    transform="translate(-42.3981192863,-64.7469242483) scale(1,-1) translate(50,-110)"
    />
  
  <line
    x1="97.40260414386223"
    y1="-1.3888623451586242"
    x2="97.75533108866442"
    y2="0"
    stroke="hsla(0,50%,50%,0.6)"
    stroke-width="1"
    transform="translate(-42.3981192863,-64.7469242483) scale(1,-1) translate(50,-110)"
    />
  
  <line
    x1="76.82827986507954"
    y1="17.04573220863067"
    x2="87.1012673723128"
    y2="79.21927171486891"
    stroke="hsla(0,50%,50%,0.6)"
    stroke-width="1"
    transform="translate(-42.3981192863,-64.7469242483) scale(1,-1) translate(50,-110)"
    />
  
  <line
    x1="76.82827986507954"
    y1="17.04573220863067"
    x2="89.98490508179012"
    y2="20.734375702279596"
    stroke="hsla(0,50%,50%,0.6)"
    stroke-width="1"
    transform="translate(-42.3981192863,-64.7469242483) scale(1,-1) translate(50,-110)"
    />
  
  <line
    x1="95.85253456221199"
    y1="0"
    x2="97.75533108866442"
    y2="0"
    stroke="hsla(0,50%,50%,0.6)"
    stroke-width="1"
    transform="translate(-42.3981192863,-64.7469242483) scale(1,-1) translate(50,-110)"
    />
  
  <line
    x1="17.61575588930256"
    y1="90.70042265251267"
    x2="19.977553310886645"
    y2="100"
    stroke="hsla(0,50%,50%,0.6)"
    stroke-width="1"
    transform="translate(-42.3981192863,-64.7469242483) scale(1,-1) translate(50,-110)"
    />
  
  <line
    x1="95.85253456221199"
    y1="0"
    x2="93.78308504870292"
    y2="18.80707120358769"
    stroke="hsla(0,50%,50%,0.6)"
    stroke-width="1"
    transform="translate(-42.3981192863,-64.7469242483) scale(1,-1) translate(50,-110)"
    />
  
  <line
    x1="11.534025374855824"
    y1="100"
    x2="16.157617841588255"
    y2="110.56674661612519"
    stroke="hsla(0,50%,50%,0.6)"
    stroke-width="1"
    transform="translate(-42.3981192863,-64.7469242483) scale(1,-1) translate(50,-110)"
    />
  
  <line
    x1="98.16276993132355"
    y1="-1.1042040410861547"
    x2="89.98490508179012"
    y2="20.734375702279596"
    stroke="hsla(0,50%,50%,0.6)"
    stroke-width="1"
    transform="translate(-42.3981192863,-64.7469242483) scale(1,-1) translate(50,-110)"
    />
  
  <line
    x1="50.154457113977635"
    y1="40.94547739361798"
    x2="11.534025374855824"
    y2="100"
    stroke="hsla(0,50%,50%,0.6)"
    stroke-width="1"
    transform="translate(-42.3981192863,-64.7469242483) scale(1,-1) translate(50,-110)"
    />
  
  <line
    x1="97.75533108866442"
    y1="0"
    x2="19.977553310886645"
    y2="100"
    stroke="hsla(0,50%,50%,0.6)"
    stroke-width="1"
    transform="translate(-42.3981192863,-64.7469242483) scale(1,-1) translate(50,-110)"
    />
  
  <line
    x1="97.40260414386223"
    y1="-1.3888623451586242"
    x2="50.154457113977635"
    y2="40.94547739361798"
    stroke="hsla(0,50%,50%,0.6)"
    stroke-width="1"
    transform="translate(-42.3981192863,-64.7469242483) scale(1,-1) translate(50,-110)"
    />
  
  <line
    x1="93.78308504870292"
    y1="18.80707120358769"
    x2="50.154457113977635"
    y2="40.94547739361798"
    stroke="hsla(0,50%,50%,0.6)"
    stroke-width="1"
    transform="translate(-42.3981192863,-64.7469242483) scale(1,-1) translate(50,-110)"
    />
  
  <line
    x1="87.1012673723128"
    y1="79.21927171486891"
    x2="17.61575588930256"
    y2="90.70042265251267"
    stroke="hsla(0,50%,50%,0.6)"
    stroke-width="1"
    transform="translate(-42.3981192863,-64.7469242483) scale(1,-1) translate(50,-110)"
    />
  
  <line
    x1="107.77131100339366"
    y1="70.48019992955503"
    x2="16.157617841588255"
    y2="110.56674661612519"
    stroke="hsla(0,50%,50%,0.6)"
    stroke-width="1"
    transform="translate(-42.3981192863,-64.7469242483) scale(1,-1) translate(50,-110)"
    />
  
  <line
    x1="11.534025374855824"
    y1="100"
    x2="19.977553310886645"
    y2="100"
    stroke="hsla(0,50%,50%,0.6)"
    stroke-width="1"
    transform="translate(-42.3981192863,-64.7469242483) scale(1,-1) translate(50,-110)"
    />
  
</svg>
