<?xml version="1.0"?>
<!DOCTYPE svg PUBLIC "-//W3C//DTD SVG 1.1//EN"
  "http://www.w3.org/Graphics/SVG/1.1/DTD/svg11.dtd">
<svg
  width="240"
  height="240"
  viewBox="-50 -50 200 200" xmlns="http://www.w3.org/2000/svg" version="1.1">
  <rect
    x="0"
    y="0"
    width="100"
    height="100"
    fill="hsla(206,100%,53%,0.3)"
    stroke="hsl(206,100%,53%)"
    stroke-width="3"
    transform="" />
  
  <path
    d="M 
      55.5555555555
      0
      L
    
      66.6666666666
      0
      L
    
      66.6666666666
      11.1111111111
      L
    
      61.1111111111
      16.6666666666
      L
    
      66.6666666666
      22.2222222222
      L
    
      66.6666666666
      44.4444444444
      L
    
      61.1111111111
      50
      L
    
      66.6666666666
      55.5555555555
      L
    
      66.6666666666
      77.7777777777
      L
    
      61.1111111111
      83.3333333333
      L
    
      66.6666666666
      88.8888888888
      L
    
      66.6666666666
      100
      L
    
      55.5555555555
      100
      L
    
      50
      94.4444444444
      L
    
      50
      72.2222222222
      L
    
      55.5555555555
      66.6666666666
      L
    
      50
      61.1111111111
      L
    
      50
      38.8888888888
      L
    
      55.5555555555
      33.3333333333
      L
    
      50
      27.7777777777
      L
    
      50
      5.5555555555
      z
    "
    fill="hsla(0,0%,50%,0.3)"
    stroke="hsla(0,0%,50%,1)"
    stroke-width="1"
    transform="translate(-50.8230951097,-20.5760531955) scale(1,-1) translate(50,-110)"
    />
  
  
  <line
    x1="50"
    y1="5.555555555555555"
    x2="66.66666666666667"
    y2="22.22222222222222"
    stroke="hsla(0,50%,50%,0.6)"
    stroke-width="1"
    transform="translate(-50.8230951097,-20.5760531955) scale(1,-1) translate(50,-110)"
    />
  
  <line
    x1="50"
    y1="27.77777777777778"
    x2="66.66666666666667"
    y2="44.44444444444444"
    stroke="hsla(0,50%,50%,0.6)"
    stroke-width="1"
    transform="translate(-50.8230951097,-20.5760531955) scale(1,-1) translate(50,-110)"
    />
  
  <line
    x1="50"
    y1="38.888888888888886"
    x2="66.66666666666667"
    y2="55.55555555555556"
    stroke="hsla(0,50%,50%,0.6)"
    stroke-width="1"
    transform="translate(-50.8230951097,-20.5760531955) scale(1,-1) translate(50,-110)"
    />
  
  <line
    x1="55.55555555555556"
    y1="0"
    x2="66.66666666666667"
    y2="0"
    stroke="hsla(0,50%,50%,0.6)"
    stroke-width="1"
    transform="translate(-50.8230951097,-20.5760531955) scale(1,-1) translate(50,-110)"
    />
  
  <line
    x1="50"
    y1="5.555555555555555"
    x2="50"
    y2="27.77777777777778"
    stroke="hsla(0,50%,50%,0.6)"
    stroke-width="1"
    transform="translate(-50.8230951097,-20.5760531955) scale(1,-1) translate(50,-110)"
    />
  
  <line
    x1="50"
    y1="38.888888888888886"
    x2="50"
    y2="61.111111111111114"
    stroke="hsla(0,50%,50%,0.6)"
    stroke-width="1"
    transform="translate(-50.8230951097,-20.5760531955) scale(1,-1) translate(50,-110)"
    />
  
  <line
    x1="50"
    y1="72.22222222222223"
    x2="50"
    y2="94.44444444444444"
    stroke="hsla(0,50%,50%,0.6)"
    stroke-width="1"
    transform="translate(-50.8230951097,-20.5760531955) scale(1,-1) translate(50,-110)"
    />
  
  <line
    x1="55.55555555555556"
    y1="0"
    x2="55.55555555555556"
    y2="100"
    stroke="hsla(0,50%,50%,0.6)"
    stroke-width="1"
    transform="translate(-50.8230951097,-20.5760531955) scale(1,-1) translate(50,-110)"
    />
  
  <line
    x1="66.66666666666667"
    y1="0"
    x2="66.66666666666667"
    y2="11.11111111111111"
    stroke="hsla(0,50%,50%,0.6)"
    stroke-width="1"
    transform="translate(-50.8230951097,-20.5760531955) scale(1,-1) translate(50,-110)"
    />
  
  <line
    x1="66.66666666666667"
    y1="22.22222222222222"
    x2="66.66666666666667"
    y2="44.44444444444444"
    stroke="hsla(0,50%,50%,0.6)"
    stroke-width="1"
    transform="translate(-50.8230951097,-20.5760531955) scale(1,-1) translate(50,-110)"
    />
  
  <line
    x1="66.66666666666667"
    y1="55.55555555555556"
    x2="66.66666666666667"
    y2="77.77777777777777"
    stroke="hsla(0,50%,50%,0.6)"
    stroke-width="1"
    transform="translate(-50.8230951097,-20.5760531955) scale(1,-1) translate(50,-110)"
    />
  
  <line
    x1="66.66666666666667"
    y1="88.88888888888889"
    x2="66.66666666666667"
    y2="100"
    stroke="hsla(0,50%,50%,0.6)"
    stroke-width="1"
    transform="translate(-50.8230951097,-20.5760531955) scale(1,-1) translate(50,-110)"
    />
  
  <line
    x1="50"
    y1="61.111111111111114"
    x2="66.66666666666667"
    y2="77.77777777777777"
    stroke="hsla(0,50%,50%,0.6)"
    stroke-width="1"
    transform="translate(-50.8230951097,-20.5760531955) scale(1,-1) translate(50,-110)"
    />
  
  <line
    x1="50"
    y1="72.22222222222223"
    x2="66.66666666666667"
    y2="88.88888888888889"
    stroke="hsla(0,50%,50%,0.6)"
    stroke-width="1"
    transform="translate(-50.8230951097,-20.5760531955) scale(1,-1) translate(50,-110)"
    />
  
  <line
    x1="50"
    y1="11.11111111111111"
    x2="66.66666666666667"
    y2="11.11111111111111"
    stroke="hsla(0,50%,50%,0.6)"
    stroke-width="1"
    transform="translate(-50.8230951097,-20.5760531955) scale(1,-1) translate(50,-110)"
    />
  
  <line
    x1="50"
    y1="94.44444444444444"
    x2="55.55555555555556"
    y2="100"
    stroke="hsla(0,50%,50%,0.6)"
    stroke-width="1"
    transform="translate(-50.8230951097,-20.5760531955) scale(1,-1) translate(50,-110)"
    />
  
  <line
    x1="50"
    y1="22.22222222222222"
    x2="66.66666666666667"
    y2="22.22222222222222"
    stroke="hsla(0,50%,50%,0.6)"
    stroke-width="1"
    transform="translate(-50.8230951097,-20.5760531955) scale(1,-1) translate(50,-110)"
    />
  
  <line
    x1="55.55555555555556"
    y1="0"
    x2="50"
    y2="5.555555555555555"
    stroke="hsla(0,50%,50%,0.6)"
    stroke-width="1"
    transform="translate(-50.8230951097,-20.5760531955) scale(1,-1) translate(50,-110)"
    />
  
  <line
    x1="55.55555555555556"
    y1="33.333333333333336"
    x2="66.66666666666667"
    y2="33.333333333333336"
    stroke="hsla(0,50%,50%,0.6)"
    stroke-width="1"
    transform="translate(-50.8230951097,-20.5760531955) scale(1,-1) translate(50,-110)"
    />
  
  <line
    x1="66.66666666666667"
    y1="11.11111111111111"
    x2="50"
    y2="27.77777777777778"
    stroke="hsla(0,50%,50%,0.6)"
    stroke-width="1"
    transform="translate(-50.8230951097,-20.5760531955) scale(1,-1) translate(50,-110)"
    />
  
  <line
    x1="50"
    y1="44.44444444444444"
    x2="66.66666666666667"
    y2="44.44444444444444"
    stroke="hsla(0,50%,50%,0.6)"
    stroke-width="1"
    transform="translate(-50.8230951097,-20.5760531955) scale(1,-1) translate(50,-110)"
    />
  
  <line
    x1="66.66666666666667"
    y1="22.22222222222222"
    x2="50"
    y2="38.888888888888886"
    stroke="hsla(0,50%,50%,0.6)"
    stroke-width="1"
    transform="translate(-50.8230951097,-20.5760531955) scale(1,-1) translate(50,-110)"
    />
  
  <line
    x1="50"
    y1="55.55555555555556"
    x2="66.66666666666667"
    y2="55.55555555555556"
    stroke="hsla(0,50%,50%,0.6)"
    stroke-width="1"
    transform="translate(-50.8230951097,-20.5760531955) scale(1,-1) translate(50,-110)"
    />
  
  <line
    x1="66.66666666666667"
    y1="44.44444444444444"
    x2="50"
    y2="61.111111111111114"
    stroke="hsla(0,50%,50%,0.6)"
    stroke-width="1"
    transform="translate(-50.8230951097,-20.5760531955) scale(1,-1) translate(50,-110)"
    />
  
  <line
    x1="66.66666666666667"
    y1="55.55555555555556"
    x2="50"
    y2="72.22222222222223"
    stroke="hsla(0,50%,50%,0.6)"
    stroke-width="1"
    transform="translate(-50.8230951097,-20.5760531955) scale(1,-1) translate(50,-110)"
    />
  
  <line
    x1="55.55555555555556"
    y1="66.66666666666667"
    x2="66.66666666666667"
    y2="66.66666666666667"
    stroke="hsla(0,50%,50%,0.6)"
    stroke-width="1"
    transform="translate(-50.8230951097,-20.5760531955) scale(1,-1) translate(50,-110)"
    />
  
  <line
    x1="66.66666666666667"
    y1="77.77777777777777"
    x2="50"
    y2="94.44444444444444"
    stroke="hsla(0,50%,50%,0.6)"
    stroke-width="1"
    transform="translate(-50.8230951097,-20.5760531955) scale(1,-1) translate(50,-110)"
    />
  
  <line
    x1="50"
    y1="77.77777777777777"
    x2="66.66666666666667"
    y2="77.77777777777777"
    stroke="hsla(0,50%,50%,0.6)"
    stroke-width="1"
    transform="translate(-50.8230951097,-20.5760531955) scale(1,-1) translate(50,-110)"
    />
  
  <line
    x1="50"
    y1="88.88888888888889"
    x2="66.66666666666667"
    y2="88.88888888888889"
    stroke="hsla(0,50%,50%,0.6)"
    stroke-width="1"
    transform="translate(-50.8230951097,-20.5760531955) scale(1,-1) translate(50,-110)"
    />
  
  <line
    x1="55.55555555555556"
    y1="100"
    x2="66.66666666666667"
    y2="100"
    stroke="hsla(0,50%,50%,0.6)"
    stroke-width="1"
    transform="translate(-50.8230951097,-20.5760531955) scale(1,-1) translate(50,-110)"
    />
  
</svg>
