<?xml version="1.0"?>
<!DOCTYPE svg PUBLIC "-//W3C//DTD SVG 1.1//EN"
  "http://www.w3.org/Graphics/SVG/1.1/DTD/svg11.dtd">
<svg
  width="240"
  height="240"
  viewBox="-50 -50 200 200" xmlns="http://www.w3.org/2000/svg" version="1.1">
  <rect
    x="0"
    y="0"
    width="100"
    height="100"
    fill="hsla(206,100%,53%,0.3)"
    stroke="hsl(206,100%,53%)"
    stroke-width="3"
    transform="" />
  
  <path
    d="M 
      0
      0
      L
    
      100
      0
      L
    
      100
      32
      L
    
      66
      66
      z
    "
    fill="hsla(0,0%,50%,0.3)"
    stroke="hsla(0,0%,50%,1)"
    stroke-width="1"
    transform="translate(-70.5,-41) scale(1,-1) translate(50,-110)"
    />
  
  
  <line
    x1="0"
    y1="0"
    x2="100"
    y2="0"
    stroke="hsla(0,50%,50%,0.6)"
    stroke-width="1"
    transform="translate(-70.5,-41) scale(1,-1) translate(50,-110)"
    />
  
  <line
    x1="0"
    y1="0"
    x2="66"
    y2="66"
    stroke="hsla(0,50%,50%,0.6)"
    stroke-width="1"
    transform="translate(-70.5,-41) scale(1,-1) translate(50,-110)"
    />
  
  <line
    x1="34"
    y1="0"
    x2="34"
    y2="34"
    stroke="hsla(0,50%,50%,0.6)"
    stroke-width="1"
    transform="translate(-70.5,-41) scale(1,-1) translate(50,-110)"
    />
  
  <line
    x1="66"
    y1="0"
    x2="66"
    y2="66"
    stroke="hsla(0,50%,50%,0.6)"
    stroke-width="1"
    transform="translate(-70.5,-41) scale(1,-1) translate(50,-110)"
    />
  
  <line
    x1="98"
    y1="32"
    x2="98"
    y2="34"
    stroke="hsla(0,50%,50%,0.6)"
    stroke-width="1"
    transform="translate(-70.5,-41) scale(1,-1) translate(50,-110)"
    />
  
  <line
    x1="100"
    y1="0"
    x2="100"
    y2="32"
    stroke="hsla(0,50%,50%,0.6)"
    stroke-width="1"
    transform="translate(-70.5,-41) scale(1,-1) translate(50,-110)"
    />
  
  <line
    x1="66"
    y1="32"
    x2="100"
    y2="32"
    stroke="hsla(0,50%,50%,0.6)"
    stroke-width="1"
    transform="translate(-70.5,-41) scale(1,-1) translate(50,-110)"
    />
  
  <line
    x1="34"
    y1="34"
    x2="98"
    y2="34"
    stroke="hsla(0,50%,50%,0.6)"
    stroke-width="1"
    transform="translate(-70.5,-41) scale(1,-1) translate(50,-110)"
    />
  
  <line
    x1="100"
    y1="32"
    x2="66"
    y2="66"
    stroke="hsla(0,50%,50%,0.6)"
    stroke-width="1"
    transform="translate(-70.5,-41) scale(1,-1) translate(50,-110)"
    />
  
</svg>
