<?xml version="1.0"?>
<!DOCTYPE svg PUBLIC "-//W3C//DTD SVG 1.1//EN"
  "http://www.w3.org/Graphics/SVG/1.1/DTD/svg11.dtd">
<svg
  width="240"
  height="240"
  viewBox="-500 -500 1000 1000" xmlns="http://www.w3.org/2000/svg" version="1.1">
  <rect
    x="0"
    y="0"
    width="100"
    height="100"
    fill="hsla(206,100%,53%,0.3)"
    stroke="hsl(206,100%,53%)"
    stroke-width="3"
    transform="" />
  
  <path
    d="M 
      50
      0
      L
    
      50
      10
      L
    
      55
      15
      L
    
      55
      45
      L
    
      60
      50
      L
    
      60
      100
      L
    
      35
      75
      L
    
      40
      70
      L
    
      40
      30
      L
    
      45
      25
      L
    
      45
      5
      z
    "
    fill="hsla(0,0%,50%,0.3)"
    stroke="hsla(0,0%,50%,1)"
    stroke-width="1"
    transform="translate(-47.5,-50)"
    />
  
  
  <line
    x1="45"
    y1="5"
    x2="55"
    y2="15"
    stroke="hsla(0,50%,50%,0.6)"
    stroke-width="1"
    transform="translate(-47.5,-50)"
    />
  
  <line
    x1="40"
    y1="30"
    x2="60"
    y2="50"
    stroke="hsla(0,50%,50%,0.6)"
    stroke-width="1"
    transform="translate(-47.5,-50)"
    />
  
  <line
    x1="40"
    y1="30"
    x2="40"
    y2="80"
    stroke="hsla(0,50%,50%,0.6)"
    stroke-width="1"
    transform="translate(-47.5,-50)"
    />
  
  <line
    x1="45"
    y1="5"
    x2="45"
    y2="85"
    stroke="hsla(0,50%,50%,0.6)"
    stroke-width="1"
    transform="translate(-47.5,-50)"
    />
  
  <line
    x1="50"
    y1="0"
    x2="50"
    y2="90"
    stroke="hsla(0,50%,50%,0.6)"
    stroke-width="1"
    transform="translate(-47.5,-50)"
    />
  
  <line
    x1="55"
    y1="15"
    x2="55"
    y2="95"
    stroke="hsla(0,50%,50%,0.6)"
    stroke-width="1"
    transform="translate(-47.5,-50)"
    />
  
  <line
    x1="60"
    y1="50"
    x2="60"
    y2="100"
    stroke="hsla(0,50%,50%,0.6)"
    stroke-width="1"
    transform="translate(-47.5,-50)"
    />
  
  <line
    x1="35"
    y1="75"
    x2="60"
    y2="100"
    stroke="hsla(0,50%,50%,0.6)"
    stroke-width="1"
    transform="translate(-47.5,-50)"
    />
  
  <line
    x1="50"
    y1="0"
    x2="45"
    y2="5"
    stroke="hsla(0,50%,50%,0.6)"
    stroke-width="1"
    transform="translate(-47.5,-50)"
    />
  
  <line
    x1="55"
    y1="15"
    x2="40"
    y2="30"
    stroke="hsla(0,50%,50%,0.6)"
    stroke-width="1"
    transform="translate(-47.5,-50)"
    />
  
  <line
    x1="60"
    y1="50"
    x2="35"
    y2="75"
    stroke="hsla(0,50%,50%,0.6)"
    stroke-width="1"
    transform="translate(-47.5,-50)"
    />
  
  <line
    x1="35"
    y1="75"
    x2="60"
    y2="75"
    stroke="hsla(0,50%,50%,0.6)"
    stroke-width="1"
    transform="translate(-47.5,-50)"
    />
  
  <line
    x1="40"
    y1="80"
    x2="60"
    y2="80"
    stroke="hsla(0,50%,50%,0.6)"
    stroke-width="1"
    transform="translate(-47.5,-50)"
    />
  
  <line
    x1="45"
    y1="85"
    x2="60"
    y2="85"
    stroke="hsla(0,50%,50%,0.6)"
    stroke-width="1"
    transform="translate(-47.5,-50)"
    />
  
  <line
    x1="50"
    y1="90"
    x2="60"
    y2="90"
    stroke="hsla(0,50%,50%,0.6)"
    stroke-width="1"
    transform="translate(-47.5,-50)"
    />
  
  <line
    x1="55"
    y1="95"
    x2="60"
    y2="95"
    stroke="hsla(0,50%,50%,0.6)"
    stroke-width="1"
    transform="translate(-47.5,-50)"
    />
  
</svg>
