<?xml version="1.0"?>
<!DOCTYPE svg PUBLIC "-//W3C//DTD SVG 1.1//EN"
  "http://www.w3.org/Graphics/SVG/1.1/DTD/svg11.dtd">
<svg
  width="240"
  height="240"
  viewBox="-500 -500 1000 1000" xmlns="http://www.w3.org/2000/svg" version="1.1">
  <rect
    x="0"
    y="0"
    width="100"
    height="100"
    fill="hsla(206,100%,53%,0.3)"
    stroke="hsl(206,100%,53%)"
    stroke-width="3"
    transform="" />
  
  <path
    d="M 
      75
      66.6666666666
      L
    
      105.5555555555
      66.6666666666
      L
    
      110.8108108108
      68.4684684684
      L
    
      100
      100
      L
    
      75
      100
      z
    "
    fill="hsla(0,0%,50%,0.3)"
    stroke="hsla(0,0%,50%,1)"
    stroke-width="1"
    transform="translate(-92.9054054054,-83.3333333333)"
    />
  
  
  <line
    x1="94.28571428571429"
    y1="66.66666666666667"
    x2="100"
    y2="83.33333333333333"
    stroke="hsla(0,50%,50%,0.6)"
    stroke-width="1"
    transform="translate(-92.9054054054,-83.3333333333)"
    />
  
  <line
    x1="75"
    y1="66.66666666666667"
    x2="75"
    y2="100"
    stroke="hsla(0,50%,50%,0.6)"
    stroke-width="1"
    transform="translate(-92.9054054054,-83.3333333333)"
    />
  
  <line
    x1="100"
    y1="66.66666666666667"
    x2="100"
    y2="100"
    stroke="hsla(0,50%,50%,0.6)"
    stroke-width="1"
    transform="translate(-92.9054054054,-83.3333333333)"
    />
  
  <line
    x1="105.55555555555556"
    y1="66.66666666666667"
    x2="110.8108108108108"
    y2="68.46846846846847"
    stroke="hsla(0,50%,50%,0.6)"
    stroke-width="1"
    transform="translate(-92.9054054054,-83.3333333333)"
    />
  
  <line
    x1="94.28571428571429"
    y1="66.66666666666667"
    x2="83.78378378378379"
    y2="97.29729729729729"
    stroke="hsla(0,50%,50%,0.6)"
    stroke-width="1"
    transform="translate(-92.9054054054,-83.3333333333)"
    />
  
  <line
    x1="110.8108108108108"
    y1="68.46846846846847"
    x2="100"
    y2="100"
    stroke="hsla(0,50%,50%,0.6)"
    stroke-width="1"
    transform="translate(-92.9054054054,-83.3333333333)"
    />
  
  <line
    x1="75"
    y1="77.14285714285714"
    x2="100"
    y2="85.71428571428571"
    stroke="hsla(0,50%,50%,0.6)"
    stroke-width="1"
    transform="translate(-92.9054054054,-83.3333333333)"
    />
  
  <line
    x1="75"
    y1="94.28571428571429"
    x2="83.78378378378379"
    y2="97.29729729729729"
    stroke="hsla(0,50%,50%,0.6)"
    stroke-width="1"
    transform="translate(-92.9054054054,-83.3333333333)"
    />
  
  <line
    x1="75"
    y1="66.66666666666667"
    x2="105.55555555555556"
    y2="66.66666666666667"
    stroke="hsla(0,50%,50%,0.6)"
    stroke-width="1"
    transform="translate(-92.9054054054,-83.3333333333)"
    />
  
  <line
    x1="75"
    y1="87.5"
    x2="100"
    y2="91.66666666666667"
    stroke="hsla(0,50%,50%,0.6)"
    stroke-width="1"
    transform="translate(-92.9054054054,-83.3333333333)"
    />
  
  <line
    x1="75"
    y1="95.83333333333333"
    x2="100"
    y2="100"
    stroke="hsla(0,50%,50%,0.6)"
    stroke-width="1"
    transform="translate(-92.9054054054,-83.3333333333)"
    />
  
  <line
    x1="105.55555555555556"
    y1="66.66666666666667"
    x2="75"
    y2="77.14285714285714"
    stroke="hsla(0,50%,50%,0.6)"
    stroke-width="1"
    transform="translate(-92.9054054054,-83.3333333333)"
    />
  
  <line
    x1="100"
    y1="83.33333333333333"
    x2="75"
    y2="87.5"
    stroke="hsla(0,50%,50%,0.6)"
    stroke-width="1"
    transform="translate(-92.9054054054,-83.3333333333)"
    />
  
  <line
    x1="75"
    y1="100"
    x2="100"
    y2="100"
    stroke="hsla(0,50%,50%,0.6)"
    stroke-width="1"
    transform="translate(-92.9054054054,-83.3333333333)"
    />
  
  <line
    x1="100"
    y1="91.66666666666667"
    x2="75"
    y2="95.83333333333333"
    stroke="hsla(0,50%,50%,0.6)"
    stroke-width="1"
    transform="translate(-92.9054054054,-83.3333333333)"
    />
  
  <line
    x1="100"
    y1="85.71428571428571"
    x2="75"
    y2="94.28571428571429"
    stroke="hsla(0,50%,50%,0.6)"
    stroke-width="1"
    transform="translate(-92.9054054054,-83.3333333333)"
    />
  
</svg>
