<?xml version="1.0"?>
<!DOCTYPE svg PUBLIC "-//W3C//DTD SVG 1.1//EN"
  "http://www.w3.org/Graphics/SVG/1.1/DTD/svg11.dtd">
<svg
  width="240"
  height="240"
  viewBox="-500 -500 1000 1000" xmlns="http://www.w3.org/2000/svg" version="1.1">
  <rect
    x="0"
    y="0"
    width="100"
    height="100"
    fill="hsla(206,100%,53%,0.3)"
    stroke="hsl(206,100%,53%)"
    stroke-width="3"
    transform="" />
  
  <path
    d="M 
      109.3079893079
      -9.4743094743
      L
    
      110
      -8.8611111111
      L
    
      110
      -8.3084367767
      L
    
      120
      -7.7046076162
      L
    
      120
      -2.8739743320
      L
    
      131.6899316899
      -2.1681021681
      L
    
      141.1642411642
      8.5239085239
      L
    
      130.4722304722
      17.9982179982
      L
    
      80
      14.9505575426
      L
    
      80
      -5.2892909741
      L
    
      100
      -6.4969492951
      L
    
      100
      -8.9122659373
      z
    "
    fill="hsla(0,0%,50%,0.3)"
    stroke="hsla(0,0%,50%,1)"
    stroke-width="1"
    transform="translate(-110.5821205821,-4.2619542619)"
    />
  
  
  <line
    x1="131.68993168993168"
    y1="-2.168102168102168"
    x2="141.16424116424116"
    y2="8.523908523908524"
    stroke="hsla(0,50%,50%,0.6)"
    stroke-width="1"
    transform="translate(-110.5821205821,-4.2619542619)"
    />
  
  <line
    x1="109.3079893079893"
    y1="-9.474309474309475"
    x2="110"
    y2="-8.86111111111111"
    stroke="hsla(0,50%,50%,0.6)"
    stroke-width="1"
    transform="translate(-110.5821205821,-4.2619542619)"
    />
  
  <line
    x1="110.85833085833086"
    y1="-8.256608256608256"
    x2="120"
    y2="2.0600089565606807"
    stroke="hsla(0,50%,50%,0.6)"
    stroke-width="1"
    transform="translate(-110.5821205821,-4.2619542619)"
    />
  
  <line
    x1="108.97534897534898"
    y1="-7.0389070389070385"
    x2="120"
    y2="2.7301587301587302"
    stroke="hsla(0,50%,50%,0.6)"
    stroke-width="1"
    transform="translate(-110.5821205821,-4.2619542619)"
    />
  
  <line
    x1="111.52361152361152"
    y1="-3.385803385803386"
    x2="130.47223047223048"
    y2="17.998217998218"
    stroke="hsla(0,50%,50%,0.6)"
    stroke-width="1"
    transform="translate(-110.5821205821,-4.2619542619)"
    />
  
  <line
    x1="100"
    y1="1.0300044782803404"
    x2="109.64062964062964"
    y2="11.909711909711909"
    stroke="hsla(0,50%,50%,0.6)"
    stroke-width="1"
    transform="translate(-110.5821205821,-4.2619542619)"
    />
  
  <line
    x1="100"
    y1="1.3650793650793651"
    x2="105.71428571428571"
    y2="6.428571428571429"
    stroke="hsla(0,50%,50%,0.6)"
    stroke-width="1"
    transform="translate(-110.5821205821,-4.2619542619)"
    />
  
  <line
    x1="91.35729135729136"
    y1="-4.603504603504604"
    x2="110.3059103059103"
    y2="16.78051678051678"
    stroke="hsla(0,50%,50%,0.6)"
    stroke-width="1"
    transform="translate(-110.5821205821,-4.2619542619)"
    />
  
  <line
    x1="88.8090288090288"
    y1="-5.8212058212058215"
    x2="110.1930501930502"
    y2="13.127413127413128"
    stroke="hsla(0,50%,50%,0.6)"
    stroke-width="1"
    transform="translate(-110.5821205821,-4.2619542619)"
    />
  
  <line
    x1="100"
    y1="5.714285714285714"
    x2="105.97402597402598"
    y2="11.688311688311689"
    stroke="hsla(0,50%,50%,0.6)"
    stroke-width="1"
    transform="translate(-110.5821205821,-4.2619542619)"
    />
  
  <line
    x1="80"
    y1="4.1200179131213615"
    x2="90.13959013959014"
    y2="15.562815562815564"
    stroke="hsla(0,50%,50%,0.6)"
    stroke-width="1"
    transform="translate(-110.5821205821,-4.2619542619)"
    />
  
  <line
    x1="100"
    y1="0"
    x2="110"
    y2="4.5"
    stroke="hsla(0,50%,50%,0.6)"
    stroke-width="1"
    transform="translate(-110.5821205821,-4.2619542619)"
    />
  
  <line
    x1="80"
    y1="5.4603174603174605"
    x2="90.02673002673002"
    y2="14.345114345114345"
    stroke="hsla(0,50%,50%,0.6)"
    stroke-width="1"
    transform="translate(-110.5821205821,-4.2619542619)"
    />
  
  <line
    x1="100"
    y1="9"
    x2="105.97402597402598"
    y2="11.688311688311689"
    stroke="hsla(0,50%,50%,0.6)"
    stroke-width="1"
    transform="translate(-110.5821205821,-4.2619542619)"
    />
  
  <line
    x1="100"
    y1="-8.912265937302756"
    x2="120"
    y2="-7.704607616242373"
    stroke="hsla(0,50%,50%,0.6)"
    stroke-width="1"
    transform="translate(-110.5821205821,-4.2619542619)"
    />
  
  <line
    x1="80"
    y1="-5.289290974121608"
    x2="131.68993168993168"
    y2="-2.168102168102168"
    stroke="hsla(0,50%,50%,0.6)"
    stroke-width="1"
    transform="translate(-110.5821205821,-4.2619542619)"
    />
  
  <line
    x1="100.16632016632016"
    y1="1.2177012177012176"
    x2="120"
    y2="2.4153166421207657"
    stroke="hsla(0,50%,50%,0.6)"
    stroke-width="1"
    transform="translate(-110.5821205821,-4.2619542619)"
    />
  
  <line
    x1="109.3079893079893"
    y1="-9.474309474309475"
    x2="100"
    y2="-8.912265937302756"
    stroke="hsla(0,50%,50%,0.6)"
    stroke-width="1"
    transform="translate(-110.5821205821,-4.2619542619)"
    />
  
  <line
    x1="120"
    y1="-7.704607616242373"
    x2="80"
    y2="-5.289290974121608"
    stroke="hsla(0,50%,50%,0.6)"
    stroke-width="1"
    transform="translate(-110.5821205821,-4.2619542619)"
    />
  
  <line
    x1="100"
    y1="0"
    x2="110"
    y2="0"
    stroke="hsla(0,50%,50%,0.6)"
    stroke-width="1"
    transform="translate(-110.5821205821,-4.2619542619)"
    />
  
  <line
    x1="80"
    y1="4.830633284241531"
    x2="120.997920997921"
    y2="7.306207306207306"
    stroke="hsla(0,50%,50%,0.6)"
    stroke-width="1"
    transform="translate(-110.5821205821,-4.2619542619)"
    />
  
  <line
    x1="80"
    y1="-5.289290974121608"
    x2="80"
    y2="14.95055754260467"
    stroke="hsla(0,50%,50%,0.6)"
    stroke-width="1"
    transform="translate(-110.5821205821,-4.2619542619)"
    />
  
  <line
    x1="100"
    y1="-8.912265937302756"
    x2="100"
    y2="9"
    stroke="hsla(0,50%,50%,0.6)"
    stroke-width="1"
    transform="translate(-110.5821205821,-4.2619542619)"
    />
  
  <line
    x1="105.71428571428571"
    y1="0"
    x2="105.71428571428571"
    y2="6.428571428571429"
    stroke="hsla(0,50%,50%,0.6)"
    stroke-width="1"
    transform="translate(-110.5821205821,-4.2619542619)"
    />
  
  <line
    x1="110"
    y1="-8.86111111111111"
    x2="110"
    y2="4.5"
    stroke="hsla(0,50%,50%,0.6)"
    stroke-width="1"
    transform="translate(-110.5821205821,-4.2619542619)"
    />
  
  <line
    x1="120"
    y1="-7.704607616242373"
    x2="120"
    y2="12.535240900483904"
    stroke="hsla(0,50%,50%,0.6)"
    stroke-width="1"
    transform="translate(-110.5821205821,-4.2619542619)"
    />
  
  <line
    x1="105.97402597402598"
    y1="11.688311688311689"
    x2="120"
    y2="12.535240900483904"
    stroke="hsla(0,50%,50%,0.6)"
    stroke-width="1"
    transform="translate(-110.5821205821,-4.2619542619)"
    />
  
  <line
    x1="120"
    y1="2.4153166421207657"
    x2="80"
    y2="4.830633284241531"
    stroke="hsla(0,50%,50%,0.6)"
    stroke-width="1"
    transform="translate(-110.5821205821,-4.2619542619)"
    />
  
  <line
    x1="80"
    y1="14.95055754260467"
    x2="130.47223047223048"
    y2="17.998217998218"
    stroke="hsla(0,50%,50%,0.6)"
    stroke-width="1"
    transform="translate(-110.5821205821,-4.2619542619)"
    />
  
  <line
    x1="120"
    y1="12.535240900483904"
    x2="80"
    y2="14.95055754260467"
    stroke="hsla(0,50%,50%,0.6)"
    stroke-width="1"
    transform="translate(-110.5821205821,-4.2619542619)"
    />
  
  <line
    x1="88.8090288090288"
    y1="-5.8212058212058215"
    x2="80"
    y2="4.1200179131213615"
    stroke="hsla(0,50%,50%,0.6)"
    stroke-width="1"
    transform="translate(-110.5821205821,-4.2619542619)"
    />
  
  <line
    x1="91.35729135729136"
    y1="-4.603504603504604"
    x2="80"
    y2="5.4603174603174605"
    stroke="hsla(0,50%,50%,0.6)"
    stroke-width="1"
    transform="translate(-110.5821205821,-4.2619542619)"
    />
  
  <line
    x1="110"
    y1="4.5"
    x2="100"
    y2="9"
    stroke="hsla(0,50%,50%,0.6)"
    stroke-width="1"
    transform="translate(-110.5821205821,-4.2619542619)"
    />
  
  <line
    x1="110"
    y1="-8.86111111111111"
    x2="100"
    y2="0"
    stroke="hsla(0,50%,50%,0.6)"
    stroke-width="1"
    transform="translate(-110.5821205821,-4.2619542619)"
    />
  
  <line
    x1="109.3079893079893"
    y1="-9.474309474309475"
    x2="100"
    y2="1.0300044782803404"
    stroke="hsla(0,50%,50%,0.6)"
    stroke-width="1"
    transform="translate(-110.5821205821,-4.2619542619)"
    />
  
  <line
    x1="110.85833085833086"
    y1="-8.256608256608256"
    x2="100"
    y2="1.3650793650793651"
    stroke="hsla(0,50%,50%,0.6)"
    stroke-width="1"
    transform="translate(-110.5821205821,-4.2619542619)"
    />
  
  <line
    x1="108.97534897534898"
    y1="-7.0389070389070385"
    x2="90.02673002673002"
    y2="14.345114345114345"
    stroke="hsla(0,50%,50%,0.6)"
    stroke-width="1"
    transform="translate(-110.5821205821,-4.2619542619)"
    />
  
  <line
    x1="105.71428571428571"
    y1="0"
    x2="100"
    y2="5.714285714285714"
    stroke="hsla(0,50%,50%,0.6)"
    stroke-width="1"
    transform="translate(-110.5821205821,-4.2619542619)"
    />
  
  <line
    x1="111.52361152361152"
    y1="-3.385803385803386"
    x2="90.13959013959014"
    y2="15.562815562815564"
    stroke="hsla(0,50%,50%,0.6)"
    stroke-width="1"
    transform="translate(-110.5821205821,-4.2619542619)"
    />
  
  <line
    x1="120"
    y1="2.0600089565606807"
    x2="110.1930501930502"
    y2="13.127413127413128"
    stroke="hsla(0,50%,50%,0.6)"
    stroke-width="1"
    transform="translate(-110.5821205821,-4.2619542619)"
    />
  
  <line
    x1="120"
    y1="2.7301587301587302"
    x2="109.64062964062964"
    y2="11.909711909711909"
    stroke="hsla(0,50%,50%,0.6)"
    stroke-width="1"
    transform="translate(-110.5821205821,-4.2619542619)"
    />
  
  <line
    x1="131.68993168993168"
    y1="-2.168102168102168"
    x2="110.3059103059103"
    y2="16.78051678051678"
    stroke="hsla(0,50%,50%,0.6)"
    stroke-width="1"
    transform="translate(-110.5821205821,-4.2619542619)"
    />
  
  <line
    x1="141.16424116424116"
    y1="8.523908523908524"
    x2="130.47223047223048"
    y2="17.998217998218"
    stroke="hsla(0,50%,50%,0.6)"
    stroke-width="1"
    transform="translate(-110.5821205821,-4.2619542619)"
    />
  
</svg>
