<?xml version="1.0"?>
<!DOCTYPE svg PUBLIC "-//W3C//DTD SVG 1.1//EN"
  "http://www.w3.org/Graphics/SVG/1.1/DTD/svg11.dtd">
<svg
  width="240"
  height="240"
  viewBox="-50 -50 200 200" xmlns="http://www.w3.org/2000/svg" version="1.1">
  <rect
    x="0"
    y="0"
    width="100"
    height="100"
    fill="hsla(206,100%,53%,0.3)"
    stroke="hsl(206,100%,53%)"
    stroke-width="3"
    transform="" />
  
  <path
    d="M 
      -36.7507886435
      -60.4100946372
      L
    
      60.4100946372
      -36.7507886435
      L
    
      36.7507886435
      60.4100946372
      L
    
      -60.4100946372
      36.7507886435
      z
    "
    fill="hsla(0,0%,50%,0.3)"
    stroke="hsla(0,0%,50%,1)"
    stroke-width="1"
    transform="translate(18.0599369085,-21.3328075709) scale(1,-1) translate(50,-110)"
    />
  
  
  <line
    x1="-36.75078864353312"
    y1="-60.41009463722398"
    x2="60.41009463722398"
    y2="-36.75078864353312"
    stroke="hsla(0,50%,50%,0.6)"
    stroke-width="1"
    transform="translate(18.0599369085,-21.3328075709) scale(1,-1) translate(50,-110)"
    />
  
  <line
    x1="-36.75078864353312"
    y1="-60.41009463722398"
    x2="-60.41009463722398"
    y2="36.75078864353312"
    stroke="hsla(0,50%,50%,0.6)"
    stroke-width="1"
    transform="translate(18.0599369085,-21.3328075709) scale(1,-1) translate(50,-110)"
    />
  
  <line
    x1="60.41009463722398"
    y1="-36.75078864353312"
    x2="36.75078864353312"
    y2="60.41009463722398"
    stroke="hsla(0,50%,50%,0.6)"
    stroke-width="1"
    transform="translate(18.0599369085,-21.3328075709) scale(1,-1) translate(50,-110)"
    />
  
  <line
    x1="-60.41009463722398"
    y1="36.75078864353312"
    x2="36.75078864353312"
    y2="60.41009463722398"
    stroke="hsla(0,50%,50%,0.6)"
    stroke-width="1"
    transform="translate(18.0599369085,-21.3328075709) scale(1,-1) translate(50,-110)"
    />
  
</svg>
