<?xml version="1.0"?>
<!DOCTYPE svg PUBLIC "-//W3C//DTD SVG 1.1//EN"
  "http://www.w3.org/Graphics/SVG/1.1/DTD/svg11.dtd">
<svg
  width="240"
  height="240"
  viewBox="-500 -500 1000 1000" xmlns="http://www.w3.org/2000/svg" version="1.1">
  <rect
    x="0"
    y="0"
    width="100"
    height="100"
    fill="hsla(206,100%,53%,0.3)"
    stroke="hsl(206,100%,53%)"
    stroke-width="3"
    transform="" />
  
  <path
    d="M 
      58.2417582417
      30.2197802197
      L
    
      61.1263736263
      31.4217032967
      L
    
      45.1923076923
      69.6634615384
      L
    
      42.3076923076
      68.4615384615
      L
    
      46.7032967032
      57.9120879120
      L
    
      32.1978021978
      33.2967032967
      L
    
      34.8901098901
      31.7101648351
      L
    
      48.2057005494
      54.3063186813
      z
    "
    fill="hsla(0,0%,50%,0.3)"
    stroke="hsla(0,0%,50%,1)"
    stroke-width="1"
    transform="translate(-46.6620879120,-49.9416208791)"
    />
  
  
  <line
    x1="34.89010989010989"
    y1="31.710164835164836"
    x2="50.18887362637363"
    y2="57.6717032967033"
    stroke="hsla(0,50%,50%,0.6)"
    stroke-width="1"
    transform="translate(-46.6620879120,-49.9416208791)"
    />
  
  <line
    x1="32.1978021978022"
    y1="33.2967032967033"
    x2="46.7032967032967"
    y2="57.91208791208791"
    stroke="hsla(0,50%,50%,0.6)"
    stroke-width="1"
    transform="translate(-46.6620879120,-49.9416208791)"
    />
  
  <line
    x1="58.24175824175824"
    y1="30.21978021978022"
    x2="61.12637362637363"
    y2="31.421703296703296"
    stroke="hsla(0,50%,50%,0.6)"
    stroke-width="1"
    transform="translate(-46.6620879120,-49.9416208791)"
    />
  
  <line
    x1="58.24175824175824"
    y1="30.21978021978022"
    x2="42.30769230769231"
    y2="68.46153846153847"
    stroke="hsla(0,50%,50%,0.6)"
    stroke-width="1"
    transform="translate(-46.6620879120,-49.9416208791)"
    />
  
  <line
    x1="61.12637362637363"
    y1="31.421703296703296"
    x2="45.19230769230769"
    y2="69.66346153846153"
    stroke="hsla(0,50%,50%,0.6)"
    stroke-width="1"
    transform="translate(-46.6620879120,-49.9416208791)"
    />
  
  <line
    x1="34.89010989010989"
    y1="31.710164835164836"
    x2="32.1978021978022"
    y2="33.2967032967033"
    stroke="hsla(0,50%,50%,0.6)"
    stroke-width="1"
    transform="translate(-46.6620879120,-49.9416208791)"
    />
  
  <line
    x1="42.30769230769231"
    y1="68.46153846153847"
    x2="45.19230769230769"
    y2="69.66346153846153"
    stroke="hsla(0,50%,50%,0.6)"
    stroke-width="1"
    transform="translate(-46.6620879120,-49.9416208791)"
    />
  
  <line
    x1="50.18887362637363"
    y1="57.6717032967033"
    x2="46.7032967032967"
    y2="57.91208791208791"
    stroke="hsla(0,50%,50%,0.6)"
    stroke-width="1"
    transform="translate(-46.6620879120,-49.9416208791)"
    />
  
</svg>
