<?xml version="1.0"?>
<!DOCTYPE svg PUBLIC "-//W3C//DTD SVG 1.1//EN"
  "http://www.w3.org/Graphics/SVG/1.1/DTD/svg11.dtd">
<svg
  width="240"
  height="240"
  viewBox="-50 -50 200 200" xmlns="http://www.w3.org/2000/svg" version="1.1">
  <rect
    x="0"
    y="0"
    width="100"
    height="100"
    fill="hsla(206,100%,53%,0.3)"
    stroke="hsl(206,100%,53%)"
    stroke-width="3"
    transform="" />
  
  <path
    d="M 
      0
      0
      L
    
      6.25
      0
      L
    
      6.25
      6.25
      L
    
      12.5
      6.25
      L
    
      18.75
      12.5
      L
    
      18.75
      18.75
      L
    
      25
      18.75
      L
    
      31.25
      25
      L
    
      31.25
      31.25
      L
    
      37.5
      31.25
      L
    
      43.75
      37.5
      L
    
      43.75
      43.75
      L
    
      50
      43.75
      L
    
      56.25
      50
      L
    
      43.75
      50
      L
    
      37.5
      43.75
      L
    
      37.5
      37.5
      L
    
      31.25
      37.5
      L
    
      25
      31.25
      L
    
      25
      25
      L
    
      18.75
      25
      L
    
      12.5
      18.75
      L
    
      12.5
      12.5
      L
    
      6.25
      12.5
      L
    
      0
      6.25
      z
    "
    fill="hsla(0,0%,50%,0.3)"
    stroke="hsla(0,0%,50%,1)"
    stroke-width="1"
    transform="translate(-5.3562711924,-10.7094906270) scale(1,-1) translate(50,-110)"
    />
  
  
  <line
    x1="12.5"
    y1="6.25"
    x2="18.75"
    y2="12.5"
    stroke="hsla(0,50%,50%,0.6)"
    stroke-width="1"
    transform="translate(-5.3562711924,-10.7094906270) scale(1,-1) translate(50,-110)"
    />
  
  <line
    x1="25"
    y1="18.75"
    x2="31.25"
    y2="25"
    stroke="hsla(0,50%,50%,0.6)"
    stroke-width="1"
    transform="translate(-5.3562711924,-10.7094906270) scale(1,-1) translate(50,-110)"
    />
  
  <line
    x1="37.5"
    y1="31.25"
    x2="43.75"
    y2="37.5"
    stroke="hsla(0,50%,50%,0.6)"
    stroke-width="1"
    transform="translate(-5.3562711924,-10.7094906270) scale(1,-1) translate(50,-110)"
    />
  
  <line
    x1="50"
    y1="43.75"
    x2="56.25"
    y2="50"
    stroke="hsla(0,50%,50%,0.6)"
    stroke-width="1"
    transform="translate(-5.3562711924,-10.7094906270) scale(1,-1) translate(50,-110)"
    />
  
  <line
    x1="0"
    y1="0"
    x2="6.25"
    y2="0"
    stroke="hsla(0,50%,50%,0.6)"
    stroke-width="1"
    transform="translate(-5.3562711924,-10.7094906270) scale(1,-1) translate(50,-110)"
    />
  
  <line
    x1="0"
    y1="0"
    x2="0"
    y2="6.25"
    stroke="hsla(0,50%,50%,0.6)"
    stroke-width="1"
    transform="translate(-5.3562711924,-10.7094906270) scale(1,-1) translate(50,-110)"
    />
  
  <line
    x1="6.25"
    y1="0"
    x2="6.25"
    y2="12.5"
    stroke="hsla(0,50%,50%,0.6)"
    stroke-width="1"
    transform="translate(-5.3562711924,-10.7094906270) scale(1,-1) translate(50,-110)"
    />
  
  <line
    x1="12.5"
    y1="6.25"
    x2="12.5"
    y2="18.75"
    stroke="hsla(0,50%,50%,0.6)"
    stroke-width="1"
    transform="translate(-5.3562711924,-10.7094906270) scale(1,-1) translate(50,-110)"
    />
  
  <line
    x1="18.75"
    y1="12.5"
    x2="18.75"
    y2="25"
    stroke="hsla(0,50%,50%,0.6)"
    stroke-width="1"
    transform="translate(-5.3562711924,-10.7094906270) scale(1,-1) translate(50,-110)"
    />
  
  <line
    x1="25"
    y1="18.75"
    x2="25"
    y2="31.25"
    stroke="hsla(0,50%,50%,0.6)"
    stroke-width="1"
    transform="translate(-5.3562711924,-10.7094906270) scale(1,-1) translate(50,-110)"
    />
  
  <line
    x1="31.25"
    y1="25"
    x2="31.25"
    y2="37.5"
    stroke="hsla(0,50%,50%,0.6)"
    stroke-width="1"
    transform="translate(-5.3562711924,-10.7094906270) scale(1,-1) translate(50,-110)"
    />
  
  <line
    x1="37.5"
    y1="31.25"
    x2="37.5"
    y2="43.75"
    stroke="hsla(0,50%,50%,0.6)"
    stroke-width="1"
    transform="translate(-5.3562711924,-10.7094906270) scale(1,-1) translate(50,-110)"
    />
  
  <line
    x1="43.75"
    y1="37.5"
    x2="43.75"
    y2="50"
    stroke="hsla(0,50%,50%,0.6)"
    stroke-width="1"
    transform="translate(-5.3562711924,-10.7094906270) scale(1,-1) translate(50,-110)"
    />
  
  <line
    x1="50"
    y1="43.75"
    x2="50"
    y2="50"
    stroke="hsla(0,50%,50%,0.6)"
    stroke-width="1"
    transform="translate(-5.3562711924,-10.7094906270) scale(1,-1) translate(50,-110)"
    />
  
  <line
    x1="0"
    y1="6.25"
    x2="6.25"
    y2="12.5"
    stroke="hsla(0,50%,50%,0.6)"
    stroke-width="1"
    transform="translate(-5.3562711924,-10.7094906270) scale(1,-1) translate(50,-110)"
    />
  
  <line
    x1="12.5"
    y1="18.75"
    x2="18.75"
    y2="25"
    stroke="hsla(0,50%,50%,0.6)"
    stroke-width="1"
    transform="translate(-5.3562711924,-10.7094906270) scale(1,-1) translate(50,-110)"
    />
  
  <line
    x1="25"
    y1="31.25"
    x2="31.25"
    y2="37.5"
    stroke="hsla(0,50%,50%,0.6)"
    stroke-width="1"
    transform="translate(-5.3562711924,-10.7094906270) scale(1,-1) translate(50,-110)"
    />
  
  <line
    x1="37.5"
    y1="43.75"
    x2="43.75"
    y2="50"
    stroke="hsla(0,50%,50%,0.6)"
    stroke-width="1"
    transform="translate(-5.3562711924,-10.7094906270) scale(1,-1) translate(50,-110)"
    />
  
  <line
    x1="0"
    y1="6.25"
    x2="12.5"
    y2="6.25"
    stroke="hsla(0,50%,50%,0.6)"
    stroke-width="1"
    transform="translate(-5.3562711924,-10.7094906270) scale(1,-1) translate(50,-110)"
    />
  
  <line
    x1="6.25"
    y1="12.5"
    x2="18.75"
    y2="12.5"
    stroke="hsla(0,50%,50%,0.6)"
    stroke-width="1"
    transform="translate(-5.3562711924,-10.7094906270) scale(1,-1) translate(50,-110)"
    />
  
  <line
    x1="12.5"
    y1="18.75"
    x2="25"
    y2="18.75"
    stroke="hsla(0,50%,50%,0.6)"
    stroke-width="1"
    transform="translate(-5.3562711924,-10.7094906270) scale(1,-1) translate(50,-110)"
    />
  
  <line
    x1="18.75"
    y1="25"
    x2="31.25"
    y2="25"
    stroke="hsla(0,50%,50%,0.6)"
    stroke-width="1"
    transform="translate(-5.3562711924,-10.7094906270) scale(1,-1) translate(50,-110)"
    />
  
  <line
    x1="25"
    y1="31.25"
    x2="37.5"
    y2="31.25"
    stroke="hsla(0,50%,50%,0.6)"
    stroke-width="1"
    transform="translate(-5.3562711924,-10.7094906270) scale(1,-1) translate(50,-110)"
    />
  
  <line
    x1="31.25"
    y1="37.5"
    x2="43.75"
    y2="37.5"
    stroke="hsla(0,50%,50%,0.6)"
    stroke-width="1"
    transform="translate(-5.3562711924,-10.7094906270) scale(1,-1) translate(50,-110)"
    />
  
  <line
    x1="37.5"
    y1="43.75"
    x2="50"
    y2="43.75"
    stroke="hsla(0,50%,50%,0.6)"
    stroke-width="1"
    transform="translate(-5.3562711924,-10.7094906270) scale(1,-1) translate(50,-110)"
    />
  
  <line
    x1="43.75"
    y1="50"
    x2="56.25"
    y2="50"
    stroke="hsla(0,50%,50%,0.6)"
    stroke-width="1"
    transform="translate(-5.3562711924,-10.7094906270) scale(1,-1) translate(50,-110)"
    />
  
</svg>
