<?xml version="1.0"?>
<!DOCTYPE svg PUBLIC "-//W3C//DTD SVG 1.1//EN"
  "http://www.w3.org/Graphics/SVG/1.1/DTD/svg11.dtd">
<svg
  width="240"
  height="240"
  viewBox="-50 -50 200 200" xmlns="http://www.w3.org/2000/svg" version="1.1">
  <rect
    x="0"
    y="0"
    width="100"
    height="100"
    fill="hsla(206,100%,53%,0.3)"
    stroke="hsl(206,100%,53%)"
    stroke-width="3"
    transform="" />
  
  <path
    d="M 
      45.4716981132
      -54.1509433962
      L
    
      54.1509433962
      45.4716981132
      L
    
      -45.4716981132
      54.1509433962
      L
    
      -54.1509433962
      -45.4716981132
      z
    "
    fill="hsla(0,0%,50%,0.3)"
    stroke="hsla(0,0%,50%,1)"
    stroke-width="1"
    transform="translate(25.9905660377,10.2830188679) scale(1,-1) translate(50,-110)"
    />
  
  
  <line
    x1="45.471698113207545"
    y1="-54.15094339622642"
    x2="-54.15094339622642"
    y2="-45.471698113207545"
    stroke="hsla(0,50%,50%,0.6)"
    stroke-width="1"
    transform="translate(25.9905660377,10.2830188679) scale(1,-1) translate(50,-110)"
    />
  
  <line
    x1="45.471698113207545"
    y1="-54.15094339622642"
    x2="54.15094339622642"
    y2="45.471698113207545"
    stroke="hsla(0,50%,50%,0.6)"
    stroke-width="1"
    transform="translate(25.9905660377,10.2830188679) scale(1,-1) translate(50,-110)"
    />
  
  <line
    x1="-54.15094339622642"
    y1="-45.471698113207545"
    x2="-45.471698113207545"
    y2="54.15094339622642"
    stroke="hsla(0,50%,50%,0.6)"
    stroke-width="1"
    transform="translate(25.9905660377,10.2830188679) scale(1,-1) translate(50,-110)"
    />
  
  <line
    x1="54.15094339622642"
    y1="45.471698113207545"
    x2="-45.471698113207545"
    y2="54.15094339622642"
    stroke="hsla(0,50%,50%,0.6)"
    stroke-width="1"
    transform="translate(25.9905660377,10.2830188679) scale(1,-1) translate(50,-110)"
    />
  
</svg>
