<?xml version="1.0"?>
<!DOCTYPE svg PUBLIC "-//W3C//DTD SVG 1.1//EN"
  "http://www.w3.org/Graphics/SVG/1.1/DTD/svg11.dtd">
<svg
  width="240"
  height="240"
  viewBox="-50 -50 200 200" xmlns="http://www.w3.org/2000/svg" version="1.1">
  <rect
    x="0"
    y="0"
    width="100"
    height="100"
    fill="hsla(206,100%,53%,0.3)"
    stroke="hsl(206,100%,53%)"
    stroke-width="3"
    transform="" />
  
  <path
    d="M 
      86.2068965517
      84.4827586206
      L
    
      66.5024630541
      105.1724137931
      L
    
      72.7586206896
      113.1034482758
      L
    
      60.3448275862
      111.6379310344
      L
    
      51.7241379310
      120.6896551724
      L
    
      42.6724137931
      112.0689655172
      L
    
      30.3448275862
      114.1379310344
      L
    
      36.2068965517
      105.9113300492
      L
    
      15.5172413793
      86.2068965517
      z
    "
    fill="hsla(0,0%,50%,0.3)"
    stroke="hsla(0,0%,50%,1)"
    stroke-width="1"
    transform="translate(-26.9946890394,-97.9931881157) scale(1,-1) translate(50,-110)"
    />
  
  
  <line
    x1="50.86206896551724"
    y1="85.34482758620689"
    x2="60.3448275862069"
    y2="111.63793103448276"
    stroke="hsla(0,50%,50%,0.6)"
    stroke-width="1"
    transform="translate(-26.9946890394,-97.9931881157) scale(1,-1) translate(50,-110)"
    />
  
  <line
    x1="50.86206896551724"
    y1="85.34482758620689"
    x2="51.724137931034484"
    y2="120.6896551724138"
    stroke="hsla(0,50%,50%,0.6)"
    stroke-width="1"
    transform="translate(-26.9946890394,-97.9931881157) scale(1,-1) translate(50,-110)"
    />
  
  <line
    x1="50.86206896551724"
    y1="85.34482758620689"
    x2="72.75862068965517"
    y2="113.10344827586206"
    stroke="hsla(0,50%,50%,0.6)"
    stroke-width="1"
    transform="translate(-26.9946890394,-97.9931881157) scale(1,-1) translate(50,-110)"
    />
  
  <line
    x1="68.53448275862068"
    y1="84.91379310344827"
    x2="77.58620689655173"
    y2="93.53448275862068"
    stroke="hsla(0,50%,50%,0.6)"
    stroke-width="1"
    transform="translate(-26.9946890394,-97.9931881157) scale(1,-1) translate(50,-110)"
    />
  
  <line
    x1="50.86206896551724"
    y1="85.34482758620689"
    x2="42.672413793103445"
    y2="112.06896551724138"
    stroke="hsla(0,50%,50%,0.6)"
    stroke-width="1"
    transform="translate(-26.9946890394,-97.9931881157) scale(1,-1) translate(50,-110)"
    />
  
  <line
    x1="33.189655172413794"
    y1="85.77586206896552"
    x2="51.293103448275865"
    y2="103.01724137931035"
    stroke="hsla(0,50%,50%,0.6)"
    stroke-width="1"
    transform="translate(-26.9946890394,-97.9931881157) scale(1,-1) translate(50,-110)"
    />
  
  <line
    x1="15.517241379310345"
    y1="86.20689655172414"
    x2="51.724137931034484"
    y2="120.6896551724138"
    stroke="hsla(0,50%,50%,0.6)"
    stroke-width="1"
    transform="translate(-26.9946890394,-97.9931881157) scale(1,-1) translate(50,-110)"
    />
  
  <line
    x1="50.86206896551724"
    y1="85.34482758620689"
    x2="30.344827586206897"
    y2="114.13793103448276"
    stroke="hsla(0,50%,50%,0.6)"
    stroke-width="1"
    transform="translate(-26.9946890394,-97.9931881157) scale(1,-1) translate(50,-110)"
    />
  
  <line
    x1="33.189655172413794"
    y1="85.77586206896552"
    x2="24.56896551724138"
    y2="94.82758620689656"
    stroke="hsla(0,50%,50%,0.6)"
    stroke-width="1"
    transform="translate(-26.9946890394,-97.9931881157) scale(1,-1) translate(50,-110)"
    />
  
  <line
    x1="68.53448275862068"
    y1="84.91379310344827"
    x2="51.293103448275865"
    y2="103.01724137931035"
    stroke="hsla(0,50%,50%,0.6)"
    stroke-width="1"
    transform="translate(-26.9946890394,-97.9931881157) scale(1,-1) translate(50,-110)"
    />
  
  <line
    x1="86.20689655172414"
    y1="84.48275862068965"
    x2="51.724137931034484"
    y2="120.6896551724138"
    stroke="hsla(0,50%,50%,0.6)"
    stroke-width="1"
    transform="translate(-26.9946890394,-97.9931881157) scale(1,-1) translate(50,-110)"
    />
  
  <line
    x1="86.20689655172414"
    y1="84.48275862068965"
    x2="15.517241379310345"
    y2="86.20689655172414"
    stroke="hsla(0,50%,50%,0.6)"
    stroke-width="1"
    transform="translate(-26.9946890394,-97.9931881157) scale(1,-1) translate(50,-110)"
    />
  
  <line
    x1="77.58620689655173"
    y1="93.53448275862068"
    x2="24.56896551724138"
    y2="94.82758620689656"
    stroke="hsla(0,50%,50%,0.6)"
    stroke-width="1"
    transform="translate(-26.9946890394,-97.9931881157) scale(1,-1) translate(50,-110)"
    />
  
  <line
    x1="60.3448275862069"
    y1="111.63793103448276"
    x2="72.75862068965517"
    y2="113.10344827586206"
    stroke="hsla(0,50%,50%,0.6)"
    stroke-width="1"
    transform="translate(-26.9946890394,-97.9931881157) scale(1,-1) translate(50,-110)"
    />
  
  <line
    x1="42.672413793103445"
    y1="112.06896551724138"
    x2="30.344827586206897"
    y2="114.13793103448276"
    stroke="hsla(0,50%,50%,0.6)"
    stroke-width="1"
    transform="translate(-26.9946890394,-97.9931881157) scale(1,-1) translate(50,-110)"
    />
  
</svg>
