<?xml version="1.0"?>
<!DOCTYPE svg PUBLIC "-//W3C//DTD SVG 1.1//EN"
  "http://www.w3.org/Graphics/SVG/1.1/DTD/svg11.dtd">
<svg
  width="240"
  height="240"
  viewBox="-50 -50 200 200" xmlns="http://www.w3.org/2000/svg" version="1.1">
  <rect
    x="0"
    y="0"
    width="100"
    height="100"
    fill="hsla(206,100%,53%,0.3)"
    stroke="hsl(206,100%,53%)"
    stroke-width="3"
    transform="" />
  
  <path
    d="M 
      46.4787824068
      -53.2890494002
      L
    
      53.2890494002
      46.4787824068
      L
    
      -46.4787824068
      53.2890494002
      L
    
      -53.2890494002
      -46.4787824068
      z
    "
    fill="hsla(0,0%,50%,0.3)"
    stroke="hsla(0,0%,50%,1)"
    stroke-width="1"
    transform="translate(25.7932413259,10.7684122275) scale(1,-1) translate(50,-110)"
    />
  
  
  <line
    x1="46.47878240681027"
    y1="-53.289049400232166"
    x2="-53.289049400232166"
    y2="-46.47878240681027"
    stroke="hsla(0,50%,50%,0.6)"
    stroke-width="1"
    transform="translate(25.7932413259,10.7684122275) scale(1,-1) translate(50,-110)"
    />
  
  <line
    x1="46.47878240681027"
    y1="-53.289049400232166"
    x2="53.289049400232166"
    y2="46.47878240681027"
    stroke="hsla(0,50%,50%,0.6)"
    stroke-width="1"
    transform="translate(25.7932413259,10.7684122275) scale(1,-1) translate(50,-110)"
    />
  
  <line
    x1="-53.289049400232166"
    y1="-46.47878240681027"
    x2="-46.47878240681027"
    y2="53.289049400232166"
    stroke="hsla(0,50%,50%,0.6)"
    stroke-width="1"
    transform="translate(25.7932413259,10.7684122275) scale(1,-1) translate(50,-110)"
    />
  
  <line
    x1="53.289049400232166"
    y1="46.47878240681027"
    x2="-46.47878240681027"
    y2="53.289049400232166"
    stroke="hsla(0,50%,50%,0.6)"
    stroke-width="1"
    transform="translate(25.7932413259,10.7684122275) scale(1,-1) translate(50,-110)"
    />
  
</svg>
