<?xml version="1.0"?>
<!DOCTYPE svg PUBLIC "-//W3C//DTD SVG 1.1//EN"
  "http://www.w3.org/Graphics/SVG/1.1/DTD/svg11.dtd">
<svg
  width="240"
  height="240"
  viewBox="-50 -50 200 200" xmlns="http://www.w3.org/2000/svg" version="1.1">
  <rect
    x="0"
    y="0"
    width="100"
    height="100"
    fill="hsla(206,100%,53%,0.3)"
    stroke="hsl(206,100%,53%)"
    stroke-width="3"
    transform="" />
  
  <path
    d="M 
      23.9520168731
      -66.5304508304
      L
    
      66.5304508304
      23.9520168731
      L
    
      -23.9520168731
      66.5304508304
      L
    
      -66.5304508304
      -23.9520168731
      z
    "
    fill="hsla(0,0%,50%,0.3)"
    stroke="hsla(0,0%,50%,1)"
    stroke-width="1"
    transform="translate(27.9429211705,0.6656999736) scale(1,-1) translate(50,-110)"
    />
  
  
  <line
    x1="23.95201687318745"
    y1="-66.53045083047719"
    x2="-66.53045083047719"
    y2="-23.95201687318745"
    stroke="hsla(0,50%,50%,0.6)"
    stroke-width="1"
    transform="translate(27.9429211705,0.6656999736) scale(1,-1) translate(50,-110)"
    />
  
  <line
    x1="23.95201687318745"
    y1="-66.53045083047719"
    x2="66.53045083047719"
    y2="23.95201687318745"
    stroke="hsla(0,50%,50%,0.6)"
    stroke-width="1"
    transform="translate(27.9429211705,0.6656999736) scale(1,-1) translate(50,-110)"
    />
  
  <line
    x1="-66.53045083047719"
    y1="-23.95201687318745"
    x2="-23.95201687318745"
    y2="66.53045083047719"
    stroke="hsla(0,50%,50%,0.6)"
    stroke-width="1"
    transform="translate(27.9429211705,0.6656999736) scale(1,-1) translate(50,-110)"
    />
  
  <line
    x1="66.53045083047719"
    y1="23.95201687318745"
    x2="-23.95201687318745"
    y2="66.53045083047719"
    stroke="hsla(0,50%,50%,0.6)"
    stroke-width="1"
    transform="translate(27.9429211705,0.6656999736) scale(1,-1) translate(50,-110)"
    />
  
</svg>
