<?xml version="1.0"?>
<!DOCTYPE svg PUBLIC "-//W3C//DTD SVG 1.1//EN"
  "http://www.w3.org/Graphics/SVG/1.1/DTD/svg11.dtd">
<svg
  width="240"
  height="240"
  viewBox="-50 -50 200 200" xmlns="http://www.w3.org/2000/svg" version="1.1">
  <rect
    x="0"
    y="0"
    width="100"
    height="100"
    fill="hsla(206,100%,53%,0.3)"
    stroke="hsl(206,100%,53%)"
    stroke-width="3"
    transform="" />
  
  <path
    d="M 
      6.2043795620
      -70.4379562043
      L
    
      70.4379562043
      6.2043795620
      L
    
      -6.2043795620
      70.4379562043
      L
    
      -70.4379562043
      -6.2043795620
      z
    "
    fill="hsla(0,0%,50%,0.3)"
    stroke="hsla(0,0%,50%,1)"
    stroke-width="1"
    transform="translate(27.1897810218,-6.4781021897) scale(1,-1) translate(50,-110)"
    />
  
  
  <line
    x1="6.204379562043796"
    y1="-70.43795620437956"
    x2="-70.43795620437956"
    y2="-6.204379562043796"
    stroke="hsla(0,50%,50%,0.6)"
    stroke-width="1"
    transform="translate(27.1897810218,-6.4781021897) scale(1,-1) translate(50,-110)"
    />
  
  <line
    x1="6.204379562043796"
    y1="-70.43795620437956"
    x2="70.43795620437956"
    y2="6.204379562043796"
    stroke="hsla(0,50%,50%,0.6)"
    stroke-width="1"
    transform="translate(27.1897810218,-6.4781021897) scale(1,-1) translate(50,-110)"
    />
  
  <line
    x1="-70.43795620437956"
    y1="-6.204379562043796"
    x2="-6.204379562043796"
    y2="70.43795620437956"
    stroke="hsla(0,50%,50%,0.6)"
    stroke-width="1"
    transform="translate(27.1897810218,-6.4781021897) scale(1,-1) translate(50,-110)"
    />
  
  <line
    x1="70.43795620437956"
    y1="6.204379562043796"
    x2="-6.204379562043796"
    y2="70.43795620437956"
    stroke="hsla(0,50%,50%,0.6)"
    stroke-width="1"
    transform="translate(27.1897810218,-6.4781021897) scale(1,-1) translate(50,-110)"
    />
  
</svg>
