<?xml version="1.0"?>
<!DOCTYPE svg PUBLIC "-//W3C//DTD SVG 1.1//EN"
  "http://www.w3.org/Graphics/SVG/1.1/DTD/svg11.dtd">
<svg
  width="240"
  height="240"
  viewBox="-500 -500 1000 1000" xmlns="http://www.w3.org/2000/svg" version="1.1">
  <rect
    x="0"
    y="0"
    width="100"
    height="100"
    fill="hsla(206,100%,53%,0.3)"
    stroke="hsl(206,100%,53%)"
    stroke-width="3"
    transform="" />
  
  <path
    d="M 
      69.8275862068
      -37.9310344827
      L
    
      87.0689655172
      -19.8275862068
      L
    
      86.2068965517
      15.5172413793
      L
    
      68.1034482758
      32.7586206896
      L
    
      50.2873563218
      38.2183908045
      L
    
      43.4482758620
      28.6206896551
      L
    
      50.4926108374
      29.8029556650
      L
    
      50.8620689655
      14.6551724137
      L
    
      68.9655172413
      -2.5862068965
      z
    "
    fill="hsla(0,0%,50%,0.3)"
    stroke="hsla(0,0%,50%,1)"
    stroke-width="1"
    transform="translate(-65.2586206896,-0.1436781609)"
    />
  
  
  <line
    x1="69.82758620689656"
    y1="-37.93103448275862"
    x2="87.06896551724138"
    y2="-19.82758620689655"
    stroke="hsla(0,50%,50%,0.6)"
    stroke-width="1"
    transform="translate(-65.2586206896,-0.1436781609)"
    />
  
  <line
    x1="68.96551724137932"
    y1="-2.586206896551724"
    x2="86.20689655172414"
    y2="15.517241379310345"
    stroke="hsla(0,50%,50%,0.6)"
    stroke-width="1"
    transform="translate(-65.2586206896,-0.1436781609)"
    />
  
  <line
    x1="43.44827586206897"
    y1="28.620689655172413"
    x2="50.28735632183908"
    y2="38.2183908045977"
    stroke="hsla(0,50%,50%,0.6)"
    stroke-width="1"
    transform="translate(-65.2586206896,-0.1436781609)"
    />
  
  <line
    x1="50.86206896551724"
    y1="14.655172413793103"
    x2="50.28735632183908"
    y2="38.2183908045977"
    stroke="hsla(0,50%,50%,0.6)"
    stroke-width="1"
    transform="translate(-65.2586206896,-0.1436781609)"
    />
  
  <line
    x1="69.82758620689656"
    y1="-37.93103448275862"
    x2="68.96551724137932"
    y2="-2.586206896551724"
    stroke="hsla(0,50%,50%,0.6)"
    stroke-width="1"
    transform="translate(-65.2586206896,-0.1436781609)"
    />
  
  <line
    x1="87.06896551724138"
    y1="-19.82758620689655"
    x2="86.20689655172414"
    y2="15.517241379310345"
    stroke="hsla(0,50%,50%,0.6)"
    stroke-width="1"
    transform="translate(-65.2586206896,-0.1436781609)"
    />
  
  <line
    x1="50.86206896551724"
    y1="14.655172413793103"
    x2="86.20689655172414"
    y2="15.517241379310345"
    stroke="hsla(0,50%,50%,0.6)"
    stroke-width="1"
    transform="translate(-65.2586206896,-0.1436781609)"
    />
  
  <line
    x1="43.44827586206897"
    y1="28.620689655172413"
    x2="68.10344827586206"
    y2="32.758620689655174"
    stroke="hsla(0,50%,50%,0.6)"
    stroke-width="1"
    transform="translate(-65.2586206896,-0.1436781609)"
    />
  
  <line
    x1="87.06896551724138"
    y1="-19.82758620689655"
    x2="50.86206896551724"
    y2="14.655172413793103"
    stroke="hsla(0,50%,50%,0.6)"
    stroke-width="1"
    transform="translate(-65.2586206896,-0.1436781609)"
    />
  
  <line
    x1="68.10344827586206"
    y1="32.758620689655174"
    x2="50.28735632183908"
    y2="38.2183908045977"
    stroke="hsla(0,50%,50%,0.6)"
    stroke-width="1"
    transform="translate(-65.2586206896,-0.1436781609)"
    />
  
  <line
    x1="86.20689655172414"
    y1="15.517241379310345"
    x2="68.10344827586206"
    y2="32.758620689655174"
    stroke="hsla(0,50%,50%,0.6)"
    stroke-width="1"
    transform="translate(-65.2586206896,-0.1436781609)"
    />
  
</svg>
